<?xml version="1.0" encoding="utf-8" standalone="no"?>
<!DOCTYPE svg PUBLIC "-//W3C//DTD SVG 1.1//EN"
  "http://www.w3.org/Graphics/SVG/1.1/DTD/svg11.dtd">
<!-- Created with matplotlib (https://matplotlib.org/) -->
<svg height="297.190125pt" version="1.1" viewBox="0 0 403.97 297.190125" width="403.97pt" xmlns="http://www.w3.org/2000/svg" xmlns:xlink="http://www.w3.org/1999/xlink">
 <metadata>
  <rdf:RDF xmlns:cc="http://creativecommons.org/ns#" xmlns:dc="http://purl.org/dc/elements/1.1/" xmlns:rdf="http://www.w3.org/1999/02/22-rdf-syntax-ns#">
   <cc:Work>
    <dc:type rdf:resource="http://purl.org/dc/dcmitype/StillImage"/>
    <dc:date>2021-06-30T11:00:47.234719</dc:date>
    <dc:format>image/svg+xml</dc:format>
    <dc:creator>
     <cc:Agent>
      <dc:title>Matplotlib v3.3.4, https://matplotlib.org/</dc:title>
     </cc:Agent>
    </dc:creator>
   </cc:Work>
  </rdf:RDF>
 </metadata>
 <defs>
  <style type="text/css">*{stroke-linecap:butt;stroke-linejoin:round;}</style>
 </defs>
 <g id="figure_1">
  <g id="patch_1">
   <path d="M 0 297.190125 
L 403.97 297.190125 
L 403.97 0 
L 0 0 
z
" style="fill:#ffffff;"/>
  </g>
  <g id="axes_1">
   <g id="patch_2">
    <path d="M 39.65 273.312 
L 396.77 273.312 
L 396.77 7.2 
L 39.65 7.2 
z
" style="fill:#ffffff;"/>
   </g>
   <g id="matplotlib.axis_1">
    <g id="xtick_1">
     <g id="line2d_1">
      <defs>
       <path d="M 0 0 
L 0 3.5 
" id="m9a6383cf11" style="stroke:#000000;stroke-width:0.8;"/>
      </defs>
      <g>
       <use style="stroke:#000000;stroke-width:0.8;" x="55.882727" xlink:href="#m9a6383cf11" y="273.312"/>
      </g>
     </g>
     <g id="text_1">
      <!-- 0.0 -->
      <g transform="translate(47.931165 287.910437)scale(0.1 -0.1)">
       <defs>
        <path d="M 31.78125 66.40625 
Q 24.171875 66.40625 20.328125 58.90625 
Q 16.5 51.421875 16.5 36.375 
Q 16.5 21.390625 20.328125 13.890625 
Q 24.171875 6.390625 31.78125 6.390625 
Q 39.453125 6.390625 43.28125 13.890625 
Q 47.125 21.390625 47.125 36.375 
Q 47.125 51.421875 43.28125 58.90625 
Q 39.453125 66.40625 31.78125 66.40625 
z
M 31.78125 74.21875 
Q 44.046875 74.21875 50.515625 64.515625 
Q 56.984375 54.828125 56.984375 36.375 
Q 56.984375 17.96875 50.515625 8.265625 
Q 44.046875 -1.421875 31.78125 -1.421875 
Q 19.53125 -1.421875 13.0625 8.265625 
Q 6.59375 17.96875 6.59375 36.375 
Q 6.59375 54.828125 13.0625 64.515625 
Q 19.53125 74.21875 31.78125 74.21875 
z
" id="DejaVuSans-48"/>
        <path d="M 10.6875 12.40625 
L 21 12.40625 
L 21 0 
L 10.6875 0 
z
" id="DejaVuSans-46"/>
       </defs>
       <use xlink:href="#DejaVuSans-48"/>
       <use x="63.623047" xlink:href="#DejaVuSans-46"/>
       <use x="95.410156" xlink:href="#DejaVuSans-48"/>
      </g>
     </g>
    </g>
    <g id="xtick_2">
     <g id="line2d_2">
      <g>
       <use style="stroke:#000000;stroke-width:0.8;" x="96.668474" xlink:href="#m9a6383cf11" y="273.312"/>
      </g>
     </g>
     <g id="text_2">
      <!-- 2.5 -->
      <g transform="translate(88.716912 287.910437)scale(0.1 -0.1)">
       <defs>
        <path d="M 19.1875 8.296875 
L 53.609375 8.296875 
L 53.609375 0 
L 7.328125 0 
L 7.328125 8.296875 
Q 12.9375 14.109375 22.625 23.890625 
Q 32.328125 33.6875 34.8125 36.53125 
Q 39.546875 41.84375 41.421875 45.53125 
Q 43.3125 49.21875 43.3125 52.78125 
Q 43.3125 58.59375 39.234375 62.25 
Q 35.15625 65.921875 28.609375 65.921875 
Q 23.96875 65.921875 18.8125 64.3125 
Q 13.671875 62.703125 7.8125 59.421875 
L 7.8125 69.390625 
Q 13.765625 71.78125 18.9375 73 
Q 24.125 74.21875 28.421875 74.21875 
Q 39.75 74.21875 46.484375 68.546875 
Q 53.21875 62.890625 53.21875 53.421875 
Q 53.21875 48.921875 51.53125 44.890625 
Q 49.859375 40.875 45.40625 35.40625 
Q 44.1875 33.984375 37.640625 27.21875 
Q 31.109375 20.453125 19.1875 8.296875 
z
" id="DejaVuSans-50"/>
        <path d="M 10.796875 72.90625 
L 49.515625 72.90625 
L 49.515625 64.59375 
L 19.828125 64.59375 
L 19.828125 46.734375 
Q 21.96875 47.46875 24.109375 47.828125 
Q 26.265625 48.1875 28.421875 48.1875 
Q 40.625 48.1875 47.75 41.5 
Q 54.890625 34.8125 54.890625 23.390625 
Q 54.890625 11.625 47.5625 5.09375 
Q 40.234375 -1.421875 26.90625 -1.421875 
Q 22.3125 -1.421875 17.546875 -0.640625 
Q 12.796875 0.140625 7.71875 1.703125 
L 7.71875 11.625 
Q 12.109375 9.234375 16.796875 8.0625 
Q 21.484375 6.890625 26.703125 6.890625 
Q 35.15625 6.890625 40.078125 11.328125 
Q 45.015625 15.765625 45.015625 23.390625 
Q 45.015625 31 40.078125 35.4375 
Q 35.15625 39.890625 26.703125 39.890625 
Q 22.75 39.890625 18.8125 39.015625 
Q 14.890625 38.140625 10.796875 36.28125 
z
" id="DejaVuSans-53"/>
       </defs>
       <use xlink:href="#DejaVuSans-50"/>
       <use x="63.623047" xlink:href="#DejaVuSans-46"/>
       <use x="95.410156" xlink:href="#DejaVuSans-53"/>
      </g>
     </g>
    </g>
    <g id="xtick_3">
     <g id="line2d_3">
      <g>
       <use style="stroke:#000000;stroke-width:0.8;" x="137.454221" xlink:href="#m9a6383cf11" y="273.312"/>
      </g>
     </g>
     <g id="text_3">
      <!-- 5.0 -->
      <g transform="translate(129.502659 287.910437)scale(0.1 -0.1)">
       <use xlink:href="#DejaVuSans-53"/>
       <use x="63.623047" xlink:href="#DejaVuSans-46"/>
       <use x="95.410156" xlink:href="#DejaVuSans-48"/>
      </g>
     </g>
    </g>
    <g id="xtick_4">
     <g id="line2d_4">
      <g>
       <use style="stroke:#000000;stroke-width:0.8;" x="178.239968" xlink:href="#m9a6383cf11" y="273.312"/>
      </g>
     </g>
     <g id="text_4">
      <!-- 7.5 -->
      <g transform="translate(170.288406 287.910437)scale(0.1 -0.1)">
       <defs>
        <path d="M 8.203125 72.90625 
L 55.078125 72.90625 
L 55.078125 68.703125 
L 28.609375 0 
L 18.3125 0 
L 43.21875 64.59375 
L 8.203125 64.59375 
z
" id="DejaVuSans-55"/>
       </defs>
       <use xlink:href="#DejaVuSans-55"/>
       <use x="63.623047" xlink:href="#DejaVuSans-46"/>
       <use x="95.410156" xlink:href="#DejaVuSans-53"/>
      </g>
     </g>
    </g>
    <g id="xtick_5">
     <g id="line2d_5">
      <g>
       <use style="stroke:#000000;stroke-width:0.8;" x="219.025715" xlink:href="#m9a6383cf11" y="273.312"/>
      </g>
     </g>
     <g id="text_5">
      <!-- 10.0 -->
      <g transform="translate(207.892902 287.910437)scale(0.1 -0.1)">
       <defs>
        <path d="M 12.40625 8.296875 
L 28.515625 8.296875 
L 28.515625 63.921875 
L 10.984375 60.40625 
L 10.984375 69.390625 
L 28.421875 72.90625 
L 38.28125 72.90625 
L 38.28125 8.296875 
L 54.390625 8.296875 
L 54.390625 0 
L 12.40625 0 
z
" id="DejaVuSans-49"/>
       </defs>
       <use xlink:href="#DejaVuSans-49"/>
       <use x="63.623047" xlink:href="#DejaVuSans-48"/>
       <use x="127.246094" xlink:href="#DejaVuSans-46"/>
       <use x="159.033203" xlink:href="#DejaVuSans-48"/>
      </g>
     </g>
    </g>
    <g id="xtick_6">
     <g id="line2d_6">
      <g>
       <use style="stroke:#000000;stroke-width:0.8;" x="259.811462" xlink:href="#m9a6383cf11" y="273.312"/>
      </g>
     </g>
     <g id="text_6">
      <!-- 12.5 -->
      <g transform="translate(248.678649 287.910437)scale(0.1 -0.1)">
       <use xlink:href="#DejaVuSans-49"/>
       <use x="63.623047" xlink:href="#DejaVuSans-50"/>
       <use x="127.246094" xlink:href="#DejaVuSans-46"/>
       <use x="159.033203" xlink:href="#DejaVuSans-53"/>
      </g>
     </g>
    </g>
    <g id="xtick_7">
     <g id="line2d_7">
      <g>
       <use style="stroke:#000000;stroke-width:0.8;" x="300.597209" xlink:href="#m9a6383cf11" y="273.312"/>
      </g>
     </g>
     <g id="text_7">
      <!-- 15.0 -->
      <g transform="translate(289.464396 287.910437)scale(0.1 -0.1)">
       <use xlink:href="#DejaVuSans-49"/>
       <use x="63.623047" xlink:href="#DejaVuSans-53"/>
       <use x="127.246094" xlink:href="#DejaVuSans-46"/>
       <use x="159.033203" xlink:href="#DejaVuSans-48"/>
      </g>
     </g>
    </g>
    <g id="xtick_8">
     <g id="line2d_8">
      <g>
       <use style="stroke:#000000;stroke-width:0.8;" x="341.382956" xlink:href="#m9a6383cf11" y="273.312"/>
      </g>
     </g>
     <g id="text_8">
      <!-- 17.5 -->
      <g transform="translate(330.250143 287.910437)scale(0.1 -0.1)">
       <use xlink:href="#DejaVuSans-49"/>
       <use x="63.623047" xlink:href="#DejaVuSans-55"/>
       <use x="127.246094" xlink:href="#DejaVuSans-46"/>
       <use x="159.033203" xlink:href="#DejaVuSans-53"/>
      </g>
     </g>
    </g>
    <g id="xtick_9">
     <g id="line2d_9">
      <g>
       <use style="stroke:#000000;stroke-width:0.8;" x="382.168703" xlink:href="#m9a6383cf11" y="273.312"/>
      </g>
     </g>
     <g id="text_9">
      <!-- 20.0 -->
      <g transform="translate(371.03589 287.910437)scale(0.1 -0.1)">
       <use xlink:href="#DejaVuSans-50"/>
       <use x="63.623047" xlink:href="#DejaVuSans-48"/>
       <use x="127.246094" xlink:href="#DejaVuSans-46"/>
       <use x="159.033203" xlink:href="#DejaVuSans-48"/>
      </g>
     </g>
    </g>
   </g>
   <g id="matplotlib.axis_2">
    <g id="ytick_1">
     <g id="line2d_10">
      <defs>
       <path d="M 0 0 
L -3.5 0 
" id="mb071f4e1b1" style="stroke:#000000;stroke-width:0.8;"/>
      </defs>
      <g>
       <use style="stroke:#000000;stroke-width:0.8;" x="39.65" xlink:href="#mb071f4e1b1" y="261.216"/>
      </g>
     </g>
     <g id="text_10">
      <!-- 0 -->
      <g transform="translate(26.2875 265.015219)scale(0.1 -0.1)">
       <use xlink:href="#DejaVuSans-48"/>
      </g>
     </g>
    </g>
    <g id="ytick_2">
     <g id="line2d_11">
      <g>
       <use style="stroke:#000000;stroke-width:0.8;" x="39.65" xlink:href="#mb071f4e1b1" y="221.439611"/>
      </g>
     </g>
     <g id="text_11">
      <!-- 500 -->
      <g transform="translate(13.5625 225.238829)scale(0.1 -0.1)">
       <use xlink:href="#DejaVuSans-53"/>
       <use x="63.623047" xlink:href="#DejaVuSans-48"/>
       <use x="127.246094" xlink:href="#DejaVuSans-48"/>
      </g>
     </g>
    </g>
    <g id="ytick_3">
     <g id="line2d_12">
      <g>
       <use style="stroke:#000000;stroke-width:0.8;" x="39.65" xlink:href="#mb071f4e1b1" y="181.663221"/>
      </g>
     </g>
     <g id="text_12">
      <!-- 1000 -->
      <g transform="translate(7.2 185.46244)scale(0.1 -0.1)">
       <use xlink:href="#DejaVuSans-49"/>
       <use x="63.623047" xlink:href="#DejaVuSans-48"/>
       <use x="127.246094" xlink:href="#DejaVuSans-48"/>
       <use x="190.869141" xlink:href="#DejaVuSans-48"/>
      </g>
     </g>
    </g>
    <g id="ytick_4">
     <g id="line2d_13">
      <g>
       <use style="stroke:#000000;stroke-width:0.8;" x="39.65" xlink:href="#mb071f4e1b1" y="141.886832"/>
      </g>
     </g>
     <g id="text_13">
      <!-- 1500 -->
      <g transform="translate(7.2 145.686051)scale(0.1 -0.1)">
       <use xlink:href="#DejaVuSans-49"/>
       <use x="63.623047" xlink:href="#DejaVuSans-53"/>
       <use x="127.246094" xlink:href="#DejaVuSans-48"/>
       <use x="190.869141" xlink:href="#DejaVuSans-48"/>
      </g>
     </g>
    </g>
    <g id="ytick_5">
     <g id="line2d_14">
      <g>
       <use style="stroke:#000000;stroke-width:0.8;" x="39.65" xlink:href="#mb071f4e1b1" y="102.110443"/>
      </g>
     </g>
     <g id="text_14">
      <!-- 2000 -->
      <g transform="translate(7.2 105.909661)scale(0.1 -0.1)">
       <use xlink:href="#DejaVuSans-50"/>
       <use x="63.623047" xlink:href="#DejaVuSans-48"/>
       <use x="127.246094" xlink:href="#DejaVuSans-48"/>
       <use x="190.869141" xlink:href="#DejaVuSans-48"/>
      </g>
     </g>
    </g>
    <g id="ytick_6">
     <g id="line2d_15">
      <g>
       <use style="stroke:#000000;stroke-width:0.8;" x="39.65" xlink:href="#mb071f4e1b1" y="62.334053"/>
      </g>
     </g>
     <g id="text_15">
      <!-- 2500 -->
      <g transform="translate(7.2 66.133272)scale(0.1 -0.1)">
       <use xlink:href="#DejaVuSans-50"/>
       <use x="63.623047" xlink:href="#DejaVuSans-53"/>
       <use x="127.246094" xlink:href="#DejaVuSans-48"/>
       <use x="190.869141" xlink:href="#DejaVuSans-48"/>
      </g>
     </g>
    </g>
    <g id="ytick_7">
     <g id="line2d_16">
      <g>
       <use style="stroke:#000000;stroke-width:0.8;" x="39.65" xlink:href="#mb071f4e1b1" y="22.557664"/>
      </g>
     </g>
     <g id="text_16">
      <!-- 3000 -->
      <g transform="translate(7.2 26.356883)scale(0.1 -0.1)">
       <defs>
        <path d="M 40.578125 39.3125 
Q 47.65625 37.796875 51.625 33 
Q 55.609375 28.21875 55.609375 21.1875 
Q 55.609375 10.40625 48.1875 4.484375 
Q 40.765625 -1.421875 27.09375 -1.421875 
Q 22.515625 -1.421875 17.65625 -0.515625 
Q 12.796875 0.390625 7.625 2.203125 
L 7.625 11.71875 
Q 11.71875 9.328125 16.59375 8.109375 
Q 21.484375 6.890625 26.8125 6.890625 
Q 36.078125 6.890625 40.9375 10.546875 
Q 45.796875 14.203125 45.796875 21.1875 
Q 45.796875 27.640625 41.28125 31.265625 
Q 36.765625 34.90625 28.71875 34.90625 
L 20.21875 34.90625 
L 20.21875 43.015625 
L 29.109375 43.015625 
Q 36.375 43.015625 40.234375 45.921875 
Q 44.09375 48.828125 44.09375 54.296875 
Q 44.09375 59.90625 40.109375 62.90625 
Q 36.140625 65.921875 28.71875 65.921875 
Q 24.65625 65.921875 20.015625 65.03125 
Q 15.375 64.15625 9.8125 62.3125 
L 9.8125 71.09375 
Q 15.4375 72.65625 20.34375 73.4375 
Q 25.25 74.21875 29.59375 74.21875 
Q 40.828125 74.21875 47.359375 69.109375 
Q 53.90625 64.015625 53.90625 55.328125 
Q 53.90625 49.265625 50.4375 45.09375 
Q 46.96875 40.921875 40.578125 39.3125 
z
" id="DejaVuSans-51"/>
       </defs>
       <use xlink:href="#DejaVuSans-51"/>
       <use x="63.623047" xlink:href="#DejaVuSans-48"/>
       <use x="127.246094" xlink:href="#DejaVuSans-48"/>
       <use x="190.869141" xlink:href="#DejaVuSans-48"/>
      </g>
     </g>
    </g>
   </g>
   <g id="line2d_17">
    <path clip-path="url(#p38653f78cd)" d="M 55.882727 261.216 
L 72.197026 181.663221 
L 88.511325 128.628036 
L 104.825624 93.271245 
L 121.139922 69.700051 
L 137.454221 53.985922 
L 153.76852 43.509836 
L 170.082819 36.525779 
L 186.397117 31.86974 
L 202.711416 28.765715 
L 219.025715 26.696365 
L 235.340014 25.316798 
L 251.654312 24.397086 
L 267.968611 23.783946 
L 284.28291 23.375185 
L 300.597209 23.102678 
L 316.911508 22.921007 
L 333.225806 22.799892 
L 349.540105 22.71915 
L 365.854404 22.665321 
" style="fill:none;stroke:#1f77b4;stroke-linecap:square;stroke-width:1.5;"/>
   </g>
   <g id="line2d_18">
    <path clip-path="url(#p38653f78cd)" d="M 55.882727 261.216 
L 72.197026 261.216 
L 88.511325 234.698407 
L 104.825624 208.180814 
L 121.139922 187.55602 
L 137.454221 172.824024 
L 153.76852 162.675315 
L 170.082819 155.800384 
L 186.397117 151.180721 
L 202.711416 148.08882 
L 219.025715 146.023512 
L 235.340014 144.645292 
L 251.654312 143.72603 
L 267.968611 143.113039 
L 284.28291 142.704328 
L 300.597209 142.431838 
L 316.911508 142.250172 
L 333.225806 142.12906 
L 349.540105 142.048317 
L 365.854404 141.994489 
" style="fill:none;stroke:#ff7f0e;stroke-linecap:square;stroke-width:1.5;"/>
   </g>
   <g id="line2d_19">
    <path clip-path="url(#p38653f78cd)" d="M 55.882727 261.216 
L 60.777017 240.293619 
L 64.039877 226.8492 
L 65.671307 220.882741 
L 67.302736 215.473152 
L 70.565596 202.346944 
L 72.197026 194.550771 
L 73.828456 189.300288 
L 75.459886 185.402202 
L 77.091316 179.03798 
L 80.354175 169.093882 
L 81.985605 163.684293 
L 83.617035 159.86576 
L 85.248465 155.649463 
L 86.879895 150.319427 
L 88.511325 145.784918 
L 90.142755 142.284596 
L 91.774185 138.068299 
L 93.405614 135.443057 
L 95.037044 129.23794 
L 96.668474 125.101196 
L 98.299904 121.362215 
L 99.931334 119.134737 
L 101.562764 114.91844 
L 103.194194 111.656776 
L 104.825624 107.520032 
L 106.457053 104.974343 
L 108.088483 103.860604 
L 109.719913 100.59894 
L 111.351343 98.769226 
L 112.982773 98.451015 
L 114.614203 95.984879 
L 116.245633 93.041426 
L 117.877063 91.132159 
L 121.139922 85.72257 
L 122.771352 84.688384 
L 124.402782 83.972409 
L 126.034212 81.347167 
L 127.665642 78.085503 
L 129.297072 77.289976 
L 130.928502 75.460262 
L 135.822791 68.618723 
L 137.454221 68.777828 
L 139.085651 65.436612 
L 140.717081 63.527345 
L 142.348511 62.015842 
L 143.979941 60.345234 
L 145.61137 58.197309 
L 147.2428 55.731173 
L 148.87423 54.696987 
L 150.50566 55.015198 
L 152.13709 54.537881 
L 153.76852 52.708167 
L 155.39995 49.287398 
L 157.03138 48.094106 
L 158.66281 47.219025 
L 160.294239 47.935 
L 161.925669 47.537236 
L 163.557099 47.696342 
L 165.188529 46.741709 
L 166.819959 44.116467 
L 168.451389 43.957361 
L 170.082819 43.082281 
L 171.714249 42.843622 
L 173.345678 42.445859 
L 176.608538 43.320939 
L 178.239968 42.684517 
L 179.871398 40.695697 
L 181.502828 39.741064 
L 183.134258 37.593139 
L 184.765688 37.513586 
L 186.397117 35.763425 
L 188.028547 34.729239 
L 189.659977 33.376842 
L 191.291407 30.831153 
L 194.554267 31.547128 
L 196.185697 30.990258 
L 197.817127 31.388022 
L 199.448556 30.433389 
L 201.079986 28.842333 
L 202.711416 29.240097 
L 204.342846 32.024445 
L 205.974276 33.058631 
L 207.605706 32.501761 
L 209.237136 30.672047 
L 210.868566 28.126358 
L 212.499995 27.251278 
L 214.131425 26.217092 
L 215.762855 27.092172 
L 217.394285 26.376197 
L 219.025715 26.057986 
L 220.657145 26.535303 
L 222.288575 23.353192 
L 223.920005 24.228272 
L 225.551434 25.421564 
L 227.182864 27.171725 
L 228.814294 27.808147 
L 230.445724 29.080992 
L 232.077154 28.762781 
L 233.708584 27.251278 
L 235.340014 28.603675 
L 236.971444 30.274283 
L 238.602873 30.512942 
L 240.234303 30.910706 
L 241.865733 30.194731 
L 243.497163 29.796967 
L 245.128593 27.8877 
L 246.760023 27.171725 
L 248.391453 26.853514 
L 250.022883 26.217092 
L 251.654312 25.739775 
L 253.285742 26.296645 
L 254.917172 27.01262 
L 256.548602 28.365017 
L 258.180032 30.433389 
L 259.811462 30.274283 
L 261.442892 29.240097 
L 263.074322 29.160545 
L 264.705751 28.603675 
L 266.337181 27.330831 
L 267.968611 26.853514 
L 269.600041 28.126358 
L 271.231471 29.240097 
L 272.862901 29.717414 
L 274.494331 29.240097 
L 276.125761 30.035625 
L 277.75719 30.433389 
L 279.38862 29.478756 
L 281.02005 29.478756 
L 282.65148 28.524122 
L 284.28291 28.842333 
L 285.91434 29.001439 
L 287.54577 30.115178 
L 289.1772 28.205911 
L 290.80863 27.967253 
L 292.440059 28.046806 
L 294.071489 26.376197 
L 295.702919 25.660222 
L 297.334349 26.694408 
L 298.965779 26.694408 
L 300.597209 24.785142 
L 302.228639 24.546483 
L 303.860069 23.273639 
L 305.491498 24.14872 
L 307.122928 22.716769 
L 308.754358 23.750956 
L 310.385788 23.512297 
L 312.017218 24.466931 
L 313.648648 24.228272 
L 315.280078 25.501117 
L 316.911508 25.182906 
L 318.542937 25.660222 
L 320.174367 25.182906 
L 321.805797 25.342011 
L 323.437227 25.819328 
L 325.068657 25.739775 
L 326.700087 24.944247 
L 328.331517 25.501117 
L 329.962947 25.182906 
L 331.594376 23.114533 
L 333.225806 21.921242 
L 334.857236 21.205267 
L 336.488666 21.284819 
L 338.120096 20.72795 
L 339.751526 20.807503 
L 341.382956 20.091528 
L 343.014386 19.932422 
L 344.645815 19.534658 
L 346.277245 22.000794 
L 349.540105 22.875875 
L 351.171535 23.750956 
L 352.802965 24.466931 
L 354.434395 23.910061 
L 356.065825 22.955428 
L 357.697254 23.910061 
L 362.591544 22.478111 
L 364.222974 22.1599 
L 365.854404 21.125714 
L 367.485834 19.375553 
L 369.117264 19.296 
L 370.748693 19.534658 
L 372.380123 20.489292 
L 374.011553 20.72795 
L 375.642983 21.205267 
L 377.274413 23.273639 
L 378.905843 22.478111 
L 380.537273 23.432744 
L 380.537273 23.432744 
" style="fill:none;stroke:#2ca02c;stroke-linecap:square;stroke-width:1.5;"/>
   </g>
   <g id="line2d_20">
    <path clip-path="url(#p38653f78cd)" d="M 55.882727 261.216 
L 60.777017 260.420472 
L 62.408447 259.545392 
L 64.039877 259.068075 
L 65.671307 257.795231 
L 67.302736 256.36328 
L 68.934166 255.567753 
L 70.565596 254.613119 
L 72.197026 253.181169 
L 73.828456 250.874139 
L 75.459886 248.885319 
L 77.091316 246.657841 
L 78.722746 244.669022 
L 80.354175 242.282439 
L 81.985605 240.373172 
L 83.617035 238.225247 
L 85.248465 235.838664 
L 86.879895 235.281794 
L 88.511325 232.577 
L 90.142755 230.906391 
L 91.774185 228.599361 
L 93.405614 225.655908 
L 95.037044 225.41725 
L 96.668474 224.223958 
L 98.299904 222.155586 
L 99.931334 219.212133 
L 101.562764 218.734816 
L 103.194194 216.348233 
L 104.825624 215.950469 
L 106.457053 213.802544 
L 108.088483 211.177302 
L 109.719913 210.779538 
L 111.351343 207.597427 
L 112.982773 205.926819 
L 114.614203 203.778894 
L 116.245633 202.426497 
L 117.877063 200.755888 
L 119.508492 198.687516 
L 121.139922 197.335119 
L 122.771352 195.266746 
L 124.402782 193.437033 
L 127.665642 193.516585 
L 129.297072 190.175369 
L 130.928502 189.618499 
L 132.559931 188.345655 
L 134.191361 187.62968 
L 135.822791 184.76578 
L 137.454221 182.299644 
L 139.085651 183.970252 
L 140.717081 184.447569 
L 142.348511 183.254277 
L 143.979941 181.106352 
L 145.61137 179.91306 
L 147.2428 178.242452 
L 148.87423 174.503471 
L 150.50566 172.912416 
L 152.13709 170.844043 
L 153.76852 170.844043 
L 155.39995 170.366727 
L 157.03138 168.855224 
L 158.66281 168.537013 
L 160.294239 167.264168 
L 161.925669 164.957138 
L 163.557099 163.206977 
L 165.188529 163.525188 
L 166.819959 164.559374 
L 168.451389 164.320716 
L 170.082819 165.195796 
L 171.714249 165.354902 
L 173.345678 163.843399 
L 174.977108 163.445635 
L 176.608538 160.661288 
L 178.239968 160.661288 
L 179.871398 160.979499 
L 181.502828 160.263524 
L 183.134258 159.070232 
L 186.397117 159.945313 
L 188.028547 158.115599 
L 189.659977 157.081413 
L 191.291407 156.763202 
L 192.922837 155.331252 
L 194.554267 156.524543 
L 197.817127 155.490357 
L 199.448556 154.13796 
L 201.079986 154.376618 
L 202.711416 153.58109 
L 204.342846 152.546904 
L 205.974276 151.27406 
L 207.605706 151.671824 
L 209.237136 152.865115 
L 210.868566 153.103774 
L 212.499995 153.819749 
L 214.131425 151.990035 
L 217.394285 152.14914 
L 219.025715 151.194507 
L 220.657145 150.001215 
L 222.288575 154.217513 
L 223.920005 152.944668 
L 225.551434 152.70601 
L 228.814294 152.467352 
L 230.445724 153.819749 
L 232.077154 152.14914 
L 233.708584 151.671824 
L 235.340014 150.001215 
L 236.971444 147.932843 
L 238.602873 147.535079 
L 241.865733 143.716546 
L 243.497163 143.55744 
L 245.128593 144.591626 
L 246.760023 144.193863 
L 248.391453 144.512074 
L 253.285742 144.352968 
L 254.917172 144.352968 
L 256.548602 142.68236 
L 258.180032 142.12549 
L 259.811462 142.523254 
L 261.442892 142.284596 
L 263.074322 143.398335 
L 264.705751 142.205043 
L 266.337181 143.716546 
L 267.968611 143.955204 
L 269.600041 143.159676 
L 271.231471 143.239229 
L 272.862901 142.841465 
L 274.494331 143.159676 
L 276.125761 142.68236 
L 277.75719 141.648174 
L 279.38862 144.11431 
L 281.02005 145.387154 
L 282.65148 146.898657 
L 284.28291 144.11431 
L 285.91434 143.318782 
L 287.54577 142.841465 
L 289.1772 143.398335 
L 290.80863 142.443701 
L 292.440059 143.875651 
L 294.071489 143.55744 
L 295.702919 145.466707 
L 297.334349 143.955204 
L 298.965779 145.466707 
L 300.597209 146.182682 
L 302.228639 145.625813 
L 303.860069 146.182682 
L 307.122928 145.784918 
L 308.754358 146.262235 
L 310.385788 146.023576 
L 312.017218 145.148496 
L 313.648648 145.864471 
L 315.280078 145.466707 
L 316.911508 146.023576 
L 318.542937 145.54626 
L 320.174367 144.193863 
L 321.805797 145.864471 
L 323.437227 143.796099 
L 325.068657 143.955204 
L 326.700087 143.55744 
L 328.331517 143.477888 
L 329.962947 143.636993 
L 331.594376 144.750732 
L 334.857236 146.580446 
L 336.488666 145.864471 
L 339.751526 146.42134 
L 341.382956 145.784918 
L 343.014386 144.352968 
L 344.645815 143.955204 
L 346.277245 141.727726 
L 347.908675 141.807279 
L 349.540105 141.329963 
L 351.171535 141.011751 
L 352.802965 140.932199 
L 354.434395 140.057118 
L 356.065825 141.966385 
L 359.328684 141.329963 
L 360.960114 142.68236 
L 364.222974 144.034757 
L 365.854404 143.955204 
L 367.485834 142.284596 
L 369.117264 144.034757 
L 370.748693 143.398335 
L 372.380123 141.727726 
L 374.011553 140.932199 
L 377.274413 137.590982 
L 378.905843 139.341143 
L 380.537273 140.375329 
L 380.537273 140.375329 
" style="fill:none;stroke:#d62728;stroke-linecap:square;stroke-width:1.5;"/>
   </g>
   <g id="patch_3">
    <path d="M 39.65 273.312 
L 39.65 7.2 
" style="fill:none;stroke:#000000;stroke-linecap:square;stroke-linejoin:miter;stroke-width:0.8;"/>
   </g>
   <g id="patch_4">
    <path d="M 396.77 273.312 
L 396.77 7.2 
" style="fill:none;stroke:#000000;stroke-linecap:square;stroke-linejoin:miter;stroke-width:0.8;"/>
   </g>
   <g id="patch_5">
    <path d="M 39.65 273.312 
L 396.77 273.312 
" style="fill:none;stroke:#000000;stroke-linecap:square;stroke-linejoin:miter;stroke-width:0.8;"/>
   </g>
   <g id="patch_6">
    <path d="M 39.65 7.2 
L 396.77 7.2 
" style="fill:none;stroke:#000000;stroke-linecap:square;stroke-linejoin:miter;stroke-width:0.8;"/>
   </g>
  </g>
 </g>
 <defs>
  <clipPath id="p38653f78cd">
   <rect height="266.112" width="357.12" x="39.65" y="7.2"/>
  </clipPath>
 </defs>
</svg>
