<?xml version="1.0" encoding="utf-8" standalone="no"?>
<!DOCTYPE svg PUBLIC "-//W3C//DTD SVG 1.1//EN"
  "http://www.w3.org/Graphics/SVG/1.1/DTD/svg11.dtd">
<!-- Created with matplotlib (https://matplotlib.org/) -->
<svg height="297.190125pt" version="1.1" viewBox="0 0 403.97 297.190125" width="403.97pt" xmlns="http://www.w3.org/2000/svg" xmlns:xlink="http://www.w3.org/1999/xlink">
 <metadata>
  <rdf:RDF xmlns:cc="http://creativecommons.org/ns#" xmlns:dc="http://purl.org/dc/elements/1.1/" xmlns:rdf="http://www.w3.org/1999/02/22-rdf-syntax-ns#">
   <cc:Work>
    <dc:type rdf:resource="http://purl.org/dc/dcmitype/StillImage"/>
    <dc:date>2020-10-22T13:19:31.284384</dc:date>
    <dc:format>image/svg+xml</dc:format>
    <dc:creator>
     <cc:Agent>
      <dc:title>Matplotlib v3.3.2, https://matplotlib.org/</dc:title>
     </cc:Agent>
    </dc:creator>
   </cc:Work>
  </rdf:RDF>
 </metadata>
 <defs>
  <style type="text/css">*{stroke-linecap:butt;stroke-linejoin:round;}</style>
 </defs>
 <g id="figure_1">
  <g id="patch_1">
   <path d="M 0 297.190125 
L 403.97 297.190125 
L 403.97 0 
L 0 0 
z
" style="fill:#ffffff;"/>
  </g>
  <g id="axes_1">
   <g id="patch_2">
    <path d="M 39.65 273.312 
L 396.77 273.312 
L 396.77 7.2 
L 39.65 7.2 
z
" style="fill:#ffffff;"/>
   </g>
   <g id="matplotlib.axis_1">
    <g id="xtick_1">
     <g id="line2d_1">
      <defs>
       <path d="M 0 0 
L 0 3.5 
" id="m7d82b05e38" style="stroke:#000000;stroke-width:0.8;"/>
      </defs>
      <g>
       <use style="stroke:#000000;stroke-width:0.8;" x="55.882727" xlink:href="#m7d82b05e38" y="273.312"/>
      </g>
     </g>
     <g id="text_1">
      <!-- 0.0 -->
      <g transform="translate(47.931165 287.910437)scale(0.1 -0.1)">
       <defs>
        <path d="M 31.78125 66.40625 
Q 24.171875 66.40625 20.328125 58.90625 
Q 16.5 51.421875 16.5 36.375 
Q 16.5 21.390625 20.328125 13.890625 
Q 24.171875 6.390625 31.78125 6.390625 
Q 39.453125 6.390625 43.28125 13.890625 
Q 47.125 21.390625 47.125 36.375 
Q 47.125 51.421875 43.28125 58.90625 
Q 39.453125 66.40625 31.78125 66.40625 
z
M 31.78125 74.21875 
Q 44.046875 74.21875 50.515625 64.515625 
Q 56.984375 54.828125 56.984375 36.375 
Q 56.984375 17.96875 50.515625 8.265625 
Q 44.046875 -1.421875 31.78125 -1.421875 
Q 19.53125 -1.421875 13.0625 8.265625 
Q 6.59375 17.96875 6.59375 36.375 
Q 6.59375 54.828125 13.0625 64.515625 
Q 19.53125 74.21875 31.78125 74.21875 
z
" id="DejaVuSans-48"/>
        <path d="M 10.6875 12.40625 
L 21 12.40625 
L 21 0 
L 10.6875 0 
z
" id="DejaVuSans-46"/>
       </defs>
       <use xlink:href="#DejaVuSans-48"/>
       <use x="63.623047" xlink:href="#DejaVuSans-46"/>
       <use x="95.410156" xlink:href="#DejaVuSans-48"/>
      </g>
     </g>
    </g>
    <g id="xtick_2">
     <g id="line2d_2">
      <g>
       <use style="stroke:#000000;stroke-width:0.8;" x="96.668474" xlink:href="#m7d82b05e38" y="273.312"/>
      </g>
     </g>
     <g id="text_2">
      <!-- 2.5 -->
      <g transform="translate(88.716912 287.910437)scale(0.1 -0.1)">
       <defs>
        <path d="M 19.1875 8.296875 
L 53.609375 8.296875 
L 53.609375 0 
L 7.328125 0 
L 7.328125 8.296875 
Q 12.9375 14.109375 22.625 23.890625 
Q 32.328125 33.6875 34.8125 36.53125 
Q 39.546875 41.84375 41.421875 45.53125 
Q 43.3125 49.21875 43.3125 52.78125 
Q 43.3125 58.59375 39.234375 62.25 
Q 35.15625 65.921875 28.609375 65.921875 
Q 23.96875 65.921875 18.8125 64.3125 
Q 13.671875 62.703125 7.8125 59.421875 
L 7.8125 69.390625 
Q 13.765625 71.78125 18.9375 73 
Q 24.125 74.21875 28.421875 74.21875 
Q 39.75 74.21875 46.484375 68.546875 
Q 53.21875 62.890625 53.21875 53.421875 
Q 53.21875 48.921875 51.53125 44.890625 
Q 49.859375 40.875 45.40625 35.40625 
Q 44.1875 33.984375 37.640625 27.21875 
Q 31.109375 20.453125 19.1875 8.296875 
z
" id="DejaVuSans-50"/>
        <path d="M 10.796875 72.90625 
L 49.515625 72.90625 
L 49.515625 64.59375 
L 19.828125 64.59375 
L 19.828125 46.734375 
Q 21.96875 47.46875 24.109375 47.828125 
Q 26.265625 48.1875 28.421875 48.1875 
Q 40.625 48.1875 47.75 41.5 
Q 54.890625 34.8125 54.890625 23.390625 
Q 54.890625 11.625 47.5625 5.09375 
Q 40.234375 -1.421875 26.90625 -1.421875 
Q 22.3125 -1.421875 17.546875 -0.640625 
Q 12.796875 0.140625 7.71875 1.703125 
L 7.71875 11.625 
Q 12.109375 9.234375 16.796875 8.0625 
Q 21.484375 6.890625 26.703125 6.890625 
Q 35.15625 6.890625 40.078125 11.328125 
Q 45.015625 15.765625 45.015625 23.390625 
Q 45.015625 31 40.078125 35.4375 
Q 35.15625 39.890625 26.703125 39.890625 
Q 22.75 39.890625 18.8125 39.015625 
Q 14.890625 38.140625 10.796875 36.28125 
z
" id="DejaVuSans-53"/>
       </defs>
       <use xlink:href="#DejaVuSans-50"/>
       <use x="63.623047" xlink:href="#DejaVuSans-46"/>
       <use x="95.410156" xlink:href="#DejaVuSans-53"/>
      </g>
     </g>
    </g>
    <g id="xtick_3">
     <g id="line2d_3">
      <g>
       <use style="stroke:#000000;stroke-width:0.8;" x="137.454221" xlink:href="#m7d82b05e38" y="273.312"/>
      </g>
     </g>
     <g id="text_3">
      <!-- 5.0 -->
      <g transform="translate(129.502659 287.910437)scale(0.1 -0.1)">
       <use xlink:href="#DejaVuSans-53"/>
       <use x="63.623047" xlink:href="#DejaVuSans-46"/>
       <use x="95.410156" xlink:href="#DejaVuSans-48"/>
      </g>
     </g>
    </g>
    <g id="xtick_4">
     <g id="line2d_4">
      <g>
       <use style="stroke:#000000;stroke-width:0.8;" x="178.239968" xlink:href="#m7d82b05e38" y="273.312"/>
      </g>
     </g>
     <g id="text_4">
      <!-- 7.5 -->
      <g transform="translate(170.288406 287.910437)scale(0.1 -0.1)">
       <defs>
        <path d="M 8.203125 72.90625 
L 55.078125 72.90625 
L 55.078125 68.703125 
L 28.609375 0 
L 18.3125 0 
L 43.21875 64.59375 
L 8.203125 64.59375 
z
" id="DejaVuSans-55"/>
       </defs>
       <use xlink:href="#DejaVuSans-55"/>
       <use x="63.623047" xlink:href="#DejaVuSans-46"/>
       <use x="95.410156" xlink:href="#DejaVuSans-53"/>
      </g>
     </g>
    </g>
    <g id="xtick_5">
     <g id="line2d_5">
      <g>
       <use style="stroke:#000000;stroke-width:0.8;" x="219.025715" xlink:href="#m7d82b05e38" y="273.312"/>
      </g>
     </g>
     <g id="text_5">
      <!-- 10.0 -->
      <g transform="translate(207.892902 287.910437)scale(0.1 -0.1)">
       <defs>
        <path d="M 12.40625 8.296875 
L 28.515625 8.296875 
L 28.515625 63.921875 
L 10.984375 60.40625 
L 10.984375 69.390625 
L 28.421875 72.90625 
L 38.28125 72.90625 
L 38.28125 8.296875 
L 54.390625 8.296875 
L 54.390625 0 
L 12.40625 0 
z
" id="DejaVuSans-49"/>
       </defs>
       <use xlink:href="#DejaVuSans-49"/>
       <use x="63.623047" xlink:href="#DejaVuSans-48"/>
       <use x="127.246094" xlink:href="#DejaVuSans-46"/>
       <use x="159.033203" xlink:href="#DejaVuSans-48"/>
      </g>
     </g>
    </g>
    <g id="xtick_6">
     <g id="line2d_6">
      <g>
       <use style="stroke:#000000;stroke-width:0.8;" x="259.811462" xlink:href="#m7d82b05e38" y="273.312"/>
      </g>
     </g>
     <g id="text_6">
      <!-- 12.5 -->
      <g transform="translate(248.678649 287.910437)scale(0.1 -0.1)">
       <use xlink:href="#DejaVuSans-49"/>
       <use x="63.623047" xlink:href="#DejaVuSans-50"/>
       <use x="127.246094" xlink:href="#DejaVuSans-46"/>
       <use x="159.033203" xlink:href="#DejaVuSans-53"/>
      </g>
     </g>
    </g>
    <g id="xtick_7">
     <g id="line2d_7">
      <g>
       <use style="stroke:#000000;stroke-width:0.8;" x="300.597209" xlink:href="#m7d82b05e38" y="273.312"/>
      </g>
     </g>
     <g id="text_7">
      <!-- 15.0 -->
      <g transform="translate(289.464396 287.910437)scale(0.1 -0.1)">
       <use xlink:href="#DejaVuSans-49"/>
       <use x="63.623047" xlink:href="#DejaVuSans-53"/>
       <use x="127.246094" xlink:href="#DejaVuSans-46"/>
       <use x="159.033203" xlink:href="#DejaVuSans-48"/>
      </g>
     </g>
    </g>
    <g id="xtick_8">
     <g id="line2d_8">
      <g>
       <use style="stroke:#000000;stroke-width:0.8;" x="341.382956" xlink:href="#m7d82b05e38" y="273.312"/>
      </g>
     </g>
     <g id="text_8">
      <!-- 17.5 -->
      <g transform="translate(330.250143 287.910437)scale(0.1 -0.1)">
       <use xlink:href="#DejaVuSans-49"/>
       <use x="63.623047" xlink:href="#DejaVuSans-55"/>
       <use x="127.246094" xlink:href="#DejaVuSans-46"/>
       <use x="159.033203" xlink:href="#DejaVuSans-53"/>
      </g>
     </g>
    </g>
    <g id="xtick_9">
     <g id="line2d_9">
      <g>
       <use style="stroke:#000000;stroke-width:0.8;" x="382.168703" xlink:href="#m7d82b05e38" y="273.312"/>
      </g>
     </g>
     <g id="text_9">
      <!-- 20.0 -->
      <g transform="translate(371.03589 287.910437)scale(0.1 -0.1)">
       <use xlink:href="#DejaVuSans-50"/>
       <use x="63.623047" xlink:href="#DejaVuSans-48"/>
       <use x="127.246094" xlink:href="#DejaVuSans-46"/>
       <use x="159.033203" xlink:href="#DejaVuSans-48"/>
      </g>
     </g>
    </g>
   </g>
   <g id="matplotlib.axis_2">
    <g id="ytick_1">
     <g id="line2d_10">
      <defs>
       <path d="M 0 0 
L -3.5 0 
" id="m0f9308dc2b" style="stroke:#000000;stroke-width:0.8;"/>
      </defs>
      <g>
       <use style="stroke:#000000;stroke-width:0.8;" x="39.65" xlink:href="#m0f9308dc2b" y="261.216"/>
      </g>
     </g>
     <g id="text_10">
      <!-- 0 -->
      <g transform="translate(26.2875 265.015219)scale(0.1 -0.1)">
       <use xlink:href="#DejaVuSans-48"/>
      </g>
     </g>
    </g>
    <g id="ytick_2">
     <g id="line2d_11">
      <g>
       <use style="stroke:#000000;stroke-width:0.8;" x="39.65" xlink:href="#m0f9308dc2b" y="226.862876"/>
      </g>
     </g>
     <g id="text_11">
      <!-- 500 -->
      <g transform="translate(13.5625 230.662095)scale(0.1 -0.1)">
       <use xlink:href="#DejaVuSans-53"/>
       <use x="63.623047" xlink:href="#DejaVuSans-48"/>
       <use x="127.246094" xlink:href="#DejaVuSans-48"/>
      </g>
     </g>
    </g>
    <g id="ytick_3">
     <g id="line2d_12">
      <g>
       <use style="stroke:#000000;stroke-width:0.8;" x="39.65" xlink:href="#m0f9308dc2b" y="192.509752"/>
      </g>
     </g>
     <g id="text_12">
      <!-- 1000 -->
      <g transform="translate(7.2 196.308971)scale(0.1 -0.1)">
       <use xlink:href="#DejaVuSans-49"/>
       <use x="63.623047" xlink:href="#DejaVuSans-48"/>
       <use x="127.246094" xlink:href="#DejaVuSans-48"/>
       <use x="190.869141" xlink:href="#DejaVuSans-48"/>
      </g>
     </g>
    </g>
    <g id="ytick_4">
     <g id="line2d_13">
      <g>
       <use style="stroke:#000000;stroke-width:0.8;" x="39.65" xlink:href="#m0f9308dc2b" y="158.156628"/>
      </g>
     </g>
     <g id="text_13">
      <!-- 1500 -->
      <g transform="translate(7.2 161.955847)scale(0.1 -0.1)">
       <use xlink:href="#DejaVuSans-49"/>
       <use x="63.623047" xlink:href="#DejaVuSans-53"/>
       <use x="127.246094" xlink:href="#DejaVuSans-48"/>
       <use x="190.869141" xlink:href="#DejaVuSans-48"/>
      </g>
     </g>
    </g>
    <g id="ytick_5">
     <g id="line2d_14">
      <g>
       <use style="stroke:#000000;stroke-width:0.8;" x="39.65" xlink:href="#m0f9308dc2b" y="123.803504"/>
      </g>
     </g>
     <g id="text_14">
      <!-- 2000 -->
      <g transform="translate(7.2 127.602722)scale(0.1 -0.1)">
       <use xlink:href="#DejaVuSans-50"/>
       <use x="63.623047" xlink:href="#DejaVuSans-48"/>
       <use x="127.246094" xlink:href="#DejaVuSans-48"/>
       <use x="190.869141" xlink:href="#DejaVuSans-48"/>
      </g>
     </g>
    </g>
    <g id="ytick_6">
     <g id="line2d_15">
      <g>
       <use style="stroke:#000000;stroke-width:0.8;" x="39.65" xlink:href="#m0f9308dc2b" y="89.45038"/>
      </g>
     </g>
     <g id="text_15">
      <!-- 2500 -->
      <g transform="translate(7.2 93.249598)scale(0.1 -0.1)">
       <use xlink:href="#DejaVuSans-50"/>
       <use x="63.623047" xlink:href="#DejaVuSans-53"/>
       <use x="127.246094" xlink:href="#DejaVuSans-48"/>
       <use x="190.869141" xlink:href="#DejaVuSans-48"/>
      </g>
     </g>
    </g>
    <g id="ytick_7">
     <g id="line2d_16">
      <g>
       <use style="stroke:#000000;stroke-width:0.8;" x="39.65" xlink:href="#m0f9308dc2b" y="55.097256"/>
      </g>
     </g>
     <g id="text_16">
      <!-- 3000 -->
      <g transform="translate(7.2 58.896474)scale(0.1 -0.1)">
       <defs>
        <path d="M 40.578125 39.3125 
Q 47.65625 37.796875 51.625 33 
Q 55.609375 28.21875 55.609375 21.1875 
Q 55.609375 10.40625 48.1875 4.484375 
Q 40.765625 -1.421875 27.09375 -1.421875 
Q 22.515625 -1.421875 17.65625 -0.515625 
Q 12.796875 0.390625 7.625 2.203125 
L 7.625 11.71875 
Q 11.71875 9.328125 16.59375 8.109375 
Q 21.484375 6.890625 26.8125 6.890625 
Q 36.078125 6.890625 40.9375 10.546875 
Q 45.796875 14.203125 45.796875 21.1875 
Q 45.796875 27.640625 41.28125 31.265625 
Q 36.765625 34.90625 28.71875 34.90625 
L 20.21875 34.90625 
L 20.21875 43.015625 
L 29.109375 43.015625 
Q 36.375 43.015625 40.234375 45.921875 
Q 44.09375 48.828125 44.09375 54.296875 
Q 44.09375 59.90625 40.109375 62.90625 
Q 36.140625 65.921875 28.71875 65.921875 
Q 24.65625 65.921875 20.015625 65.03125 
Q 15.375 64.15625 9.8125 62.3125 
L 9.8125 71.09375 
Q 15.4375 72.65625 20.34375 73.4375 
Q 25.25 74.21875 29.59375 74.21875 
Q 40.828125 74.21875 47.359375 69.109375 
Q 53.90625 64.015625 53.90625 55.328125 
Q 53.90625 49.265625 50.4375 45.09375 
Q 46.96875 40.921875 40.578125 39.3125 
z
" id="DejaVuSans-51"/>
       </defs>
       <use xlink:href="#DejaVuSans-51"/>
       <use x="63.623047" xlink:href="#DejaVuSans-48"/>
       <use x="127.246094" xlink:href="#DejaVuSans-48"/>
       <use x="190.869141" xlink:href="#DejaVuSans-48"/>
      </g>
     </g>
    </g>
    <g id="ytick_8">
     <g id="line2d_17">
      <g>
       <use style="stroke:#000000;stroke-width:0.8;" x="39.65" xlink:href="#m0f9308dc2b" y="20.744132"/>
      </g>
     </g>
     <g id="text_17">
      <!-- 3500 -->
      <g transform="translate(7.2 24.54335)scale(0.1 -0.1)">
       <use xlink:href="#DejaVuSans-51"/>
       <use x="63.623047" xlink:href="#DejaVuSans-53"/>
       <use x="127.246094" xlink:href="#DejaVuSans-48"/>
       <use x="190.869141" xlink:href="#DejaVuSans-48"/>
      </g>
     </g>
    </g>
   </g>
   <g id="line2d_18">
    <path clip-path="url(#p203ab5184b)" d="M 55.882727 261.216 
L 72.197026 192.509752 
L 88.511325 143.281725 
L 104.825624 108.009844 
L 121.139922 82.737541 
L 137.454221 64.629936 
L 153.76852 51.655837 
L 170.082819 42.359895 
L 186.397117 35.699353 
L 202.711416 30.927074 
L 219.025715 27.507736 
L 235.340014 25.057781 
L 251.654312 23.302388 
L 267.968611 22.044649 
L 284.28291 21.143479 
L 300.597209 20.49779 
L 316.911508 20.035155 
L 333.225806 19.703676 
L 349.540105 19.466172 
L 365.854404 19.296 
" style="fill:none;stroke:#1f77b4;stroke-linecap:square;stroke-width:1.5;"/>
   </g>
   <g id="line2d_19">
    <path clip-path="url(#p203ab5184b)" d="M 55.882727 261.216 
L 72.197026 261.216 
L 88.511325 238.313917 
L 104.825624 210.146646 
L 121.139922 183.928275 
L 137.454221 162.043662 
L 153.76852 144.772234 
L 170.082819 131.580383 
L 186.397117 121.709039 
L 202.711416 114.420911 
L 219.025715 109.088426 
L 235.340014 105.210949 
L 251.654312 102.4036 
L 267.968611 100.377177 
L 284.28291 98.917564 
L 300.597209 97.867809 
L 316.911508 97.113636 
L 333.225806 96.572231 
L 349.540105 96.183781 
L 365.854404 95.905183 
" style="fill:none;stroke:#ff7f0e;stroke-linecap:square;stroke-width:1.5;"/>
   </g>
   <g id="line2d_20">
    <path clip-path="url(#p203ab5184b)" d="M 55.882727 261.216 
L 57.514157 255.101144 
L 59.145587 246.512863 
L 60.777017 240.672832 
L 64.039877 228.030882 
L 65.671307 220.129664 
L 67.302736 214.220926 
L 68.934166 209.617608 
L 70.565596 205.563939 
L 72.197026 200.067439 
L 73.828456 195.738946 
L 75.459886 190.448564 
L 77.091316 185.982658 
L 78.722746 182.203815 
L 80.354175 180.073921 
L 81.985605 174.852246 
L 83.617035 170.592459 
L 86.879895 163.653128 
L 88.511325 158.981103 
L 90.142755 155.889322 
L 91.774185 150.598941 
L 93.405614 148.262928 
L 95.037044 145.308559 
L 96.668474 142.697722 
L 98.299904 138.369228 
L 99.931334 135.41486 
L 101.562764 131.429897 
L 103.194194 128.200704 
L 104.825624 125.246335 
L 106.457053 122.635498 
L 108.088483 121.261373 
L 109.719913 118.581829 
L 111.351343 114.940398 
L 112.982773 112.673092 
L 114.614203 111.092848 
L 116.245633 108.825542 
L 117.877063 107.93236 
L 119.508492 108.962954 
L 121.139922 106.558235 
L 122.771352 104.771873 
L 124.402782 102.641979 
L 126.034212 102.092329 
L 127.665642 100.649498 
L 129.297072 98.519604 
L 130.928502 98.588311 
L 132.559931 96.801948 
L 137.454221 90.00003 
L 139.085651 88.419786 
L 140.717081 87.114367 
L 142.348511 84.50353 
L 143.979941 83.060699 
L 145.61137 81.274336 
L 147.2428 79.762799 
L 148.87423 79.00703 
L 150.50566 78.45738 
L 152.13709 79.213149 
L 153.76852 79.55668 
L 155.39995 76.602311 
L 157.03138 75.640424 
L 158.66281 74.815949 
L 160.294239 73.441824 
L 161.925669 71.380636 
L 163.557099 71.792874 
L 165.188529 69.731686 
L 166.819959 69.869099 
L 168.451389 69.869099 
L 171.714249 68.288855 
L 173.345678 66.983437 
L 174.977108 66.502493 
L 176.608538 67.326968 
L 178.239968 66.846024 
L 181.502828 62.311412 
L 183.134258 62.311412 
L 186.397117 61.212112 
L 188.028547 61.693055 
L 189.659977 61.624349 
L 191.291407 60.731168 
L 192.922837 60.593755 
L 196.185697 61.830468 
L 197.817127 61.349524 
L 201.079986 61.693055 
L 202.711416 60.456343 
L 204.342846 60.731168 
L 205.974276 61.212112 
L 207.605706 61.486937 
L 209.237136 60.662462 
L 210.868566 60.181518 
L 212.499995 62.036587 
L 214.131425 60.456343 
L 215.762855 60.387637 
L 217.394285 57.982918 
L 219.025715 57.501974 
L 220.657145 56.677499 
L 222.288575 56.677499 
L 223.920005 56.402674 
L 225.551434 55.440787 
L 227.182864 55.440787 
L 228.814294 55.028549 
L 230.445724 55.440787 
L 232.077154 55.646906 
L 233.708584 54.547606 
L 235.340014 53.791837 
L 238.602873 56.333968 
L 240.234303 56.333968 
L 241.865733 55.990437 
L 243.497163 55.990437 
L 245.128593 57.639387 
L 246.760023 58.120331 
L 248.391453 59.700574 
L 250.022883 59.906693 
L 251.654312 58.66998 
L 253.285742 59.21963 
L 254.917172 59.288337 
L 256.548602 58.257743 
L 258.180032 59.288337 
L 259.811462 59.837987 
L 261.442892 58.944805 
L 263.074322 57.776799 
L 266.337181 57.708093 
L 267.968611 58.326449 
L 269.600041 58.395156 
L 271.231471 58.189037 
L 272.862901 58.326449 
L 274.494331 58.051624 
L 276.125761 57.158443 
L 277.75719 57.227149 
L 279.38862 56.814912 
L 282.65148 57.158443 
L 284.28291 55.784318 
L 285.91434 55.646906 
L 287.54577 55.165962 
L 290.80863 53.585718 
L 292.440059 53.997956 
L 294.071489 53.929249 
L 295.702919 55.165962 
L 297.334349 56.059143 
L 298.965779 56.677499 
L 302.228639 59.150924 
L 303.860069 57.708093 
L 305.491498 57.364562 
L 307.122928 58.189037 
L 310.385788 57.295856 
L 312.017218 55.784318 
L 313.648648 55.234668 
L 315.280078 56.402674 
L 316.911508 58.257743 
L 318.542937 59.631868 
L 320.174367 59.21963 
L 321.805797 59.357043 
L 323.437227 59.21963 
L 325.068657 58.944805 
L 326.700087 59.906693 
L 328.331517 60.112812 
L 329.962947 59.357043 
L 331.594376 59.21963 
L 333.225806 58.051624 
L 334.857236 57.433268 
L 336.488666 57.433268 
L 338.120096 55.234668 
L 339.751526 55.440787 
L 341.382956 55.921731 
L 343.014386 57.914212 
L 344.645815 58.189037 
L 346.277245 56.814912 
L 347.908675 56.127849 
L 351.171535 55.509493 
L 352.802965 55.921731 
L 354.434395 54.478899 
L 356.065825 56.540087 
L 357.697254 57.158443 
L 359.328684 58.326449 
L 362.591544 59.494455 
L 364.222974 57.433268 
L 365.854404 57.089737 
L 367.485834 56.333968 
L 369.117264 57.227149 
L 370.748693 56.608793 
L 372.380123 54.959843 
L 374.011553 54.616312 
L 377.274413 55.578199 
L 378.905843 55.372081 
L 380.537273 53.791837 
L 380.537273 53.791837 
" style="fill:none;stroke:#2ca02c;stroke-linecap:square;stroke-width:1.5;"/>
   </g>
   <g id="line2d_21">
    <path clip-path="url(#p203ab5184b)" d="M 55.882727 261.216 
L 57.514157 261.216 
L 59.145587 260.803763 
L 60.777017 259.979288 
L 62.408447 259.498344 
L 64.039877 258.811281 
L 65.671307 257.9181 
L 67.302736 257.231038 
L 68.934166 255.650794 
L 70.565596 254.757613 
L 72.197026 253.589606 
L 73.828456 251.87195 
L 75.459886 250.703944 
L 77.091316 248.711463 
L 78.722746 247.406044 
L 80.354175 245.550975 
L 81.985605 244.7265 
L 83.617035 242.940138 
L 85.248465 240.672832 
L 88.511325 237.031401 
L 90.142755 235.313744 
L 91.774185 234.832801 
L 93.405614 233.252557 
L 96.668474 230.710426 
L 98.299904 229.336301 
L 99.931334 227.068995 
L 103.194194 224.183332 
L 108.088483 219.030364 
L 109.719913 218.892951 
L 111.351343 217.656239 
L 112.982773 216.007289 
L 114.614203 214.907989 
L 116.245633 213.465158 
L 119.508492 209.20537 
L 121.139922 208.243483 
L 122.771352 205.976176 
L 124.402782 206.594533 
L 126.034212 205.220408 
L 127.665642 204.189814 
L 129.297072 203.914989 
L 130.928502 200.685795 
L 134.191361 198.968139 
L 135.822791 196.769539 
L 139.085651 195.807652 
L 140.717081 194.570939 
L 142.348511 194.227408 
L 143.979941 192.715871 
L 145.61137 192.509752 
L 147.2428 190.105033 
L 148.87423 189.486677 
L 150.50566 188.112552 
L 152.13709 185.22689 
L 153.76852 185.707833 
L 155.39995 185.364302 
L 157.03138 183.784058 
L 158.66281 181.241927 
L 160.294239 181.173221 
L 161.925669 180.073921 
L 163.557099 178.63109 
L 165.188529 178.974621 
L 166.819959 178.974621 
L 168.451389 178.562383 
L 171.714249 178.150146 
L 173.345678 177.256965 
L 174.977108 177.53179 
L 176.608538 174.302596 
L 178.239968 174.78354 
L 179.871398 176.295077 
L 181.502828 174.508715 
L 183.134258 173.409415 
L 184.765688 173.203296 
L 186.397117 171.48564 
L 188.028547 171.829171 
L 189.659977 171.829171 
L 191.291407 170.661165 
L 192.922837 169.767984 
L 194.554267 169.012215 
L 196.185697 167.019734 
L 197.817127 166.813615 
L 199.448556 166.401378 
L 202.711416 165.164665 
L 204.342846 164.683721 
L 205.974276 165.095959 
L 207.605706 165.370784 
L 209.237136 166.813615 
L 210.868566 167.157146 
L 212.499995 167.019734 
L 214.131425 167.294559 
L 215.762855 166.813615 
L 217.394285 168.050328 
L 219.025715 169.630571 
L 220.657145 169.905396 
L 222.288575 169.974102 
L 223.920005 170.317634 
L 227.182864 169.012215 
L 228.814294 168.874803 
L 230.445724 168.050328 
L 232.077154 167.775503 
L 233.708584 168.119034 
L 235.340014 167.294559 
L 236.971444 165.302078 
L 238.602873 164.065365 
L 240.234303 163.927953 
L 241.865733 162.347709 
L 243.497163 161.729353 
L 245.128593 160.630053 
L 246.760023 159.39334 
L 248.391453 159.187222 
L 250.022883 158.84369 
L 253.285742 158.500159 
L 254.917172 157.881803 
L 256.548602 158.912397 
L 258.180032 158.500159 
L 259.811462 157.74439 
L 261.442892 158.362747 
L 263.074322 158.431453 
L 264.705751 157.263447 
L 266.337181 156.782503 
L 267.968611 155.683203 
L 269.600041 155.064847 
L 271.231471 154.99614 
L 272.862901 154.240372 
L 274.494331 153.690722 
L 276.125761 156.026734 
L 277.75719 156.438972 
L 279.38862 156.507678 
L 282.65148 156.988622 
L 284.28291 157.950509 
L 285.91434 159.324634 
L 287.54577 159.805578 
L 289.1772 160.698759 
L 290.80863 160.904878 
L 292.440059 161.798059 
L 294.071489 162.485121 
L 295.702919 159.874284 
L 297.334349 159.255928 
L 298.965779 157.606978 
L 300.597209 157.881803 
L 302.228639 158.84369 
L 303.860069 159.530753 
L 305.491498 158.362747 
L 307.122928 158.362747 
L 308.754358 159.324634 
L 310.385788 161.248409 
L 312.017218 159.736872 
L 313.648648 160.217815 
L 315.280078 159.324634 
L 316.911508 157.74439 
L 318.542937 157.19474 
L 320.174367 157.881803 
L 321.805797 158.29404 
L 323.437227 155.820615 
L 325.068657 155.064847 
L 326.700087 155.477084 
L 328.331517 155.133553 
L 329.962947 155.751909 
L 331.594376 155.958028 
L 334.857236 157.950509 
L 336.488666 159.187222 
L 338.120096 160.011696 
L 339.751526 160.561346 
L 341.382956 160.080403 
L 343.014386 160.080403 
L 344.645815 159.736872 
L 346.277245 159.255928 
L 347.908675 161.110996 
L 351.171535 161.523234 
L 352.802965 161.523234 
L 354.434395 162.416415 
L 356.065825 160.080403 
L 357.697254 159.599459 
L 359.328684 158.774984 
L 360.960114 158.637572 
L 362.591544 159.255928 
L 364.222974 160.011696 
L 365.854404 161.385821 
L 367.485834 161.866765 
L 369.117264 160.973584 
L 370.748693 160.561346 
L 372.380123 161.04229 
L 374.011553 161.798059 
L 375.642983 159.599459 
L 377.274413 159.324634 
L 378.905843 160.149109 
L 380.537273 161.523234 
L 380.537273 161.523234 
" style="fill:none;stroke:#d62728;stroke-linecap:square;stroke-width:1.5;"/>
   </g>
   <g id="patch_3">
    <path d="M 39.65 273.312 
L 39.65 7.2 
" style="fill:none;stroke:#000000;stroke-linecap:square;stroke-linejoin:miter;stroke-width:0.8;"/>
   </g>
   <g id="patch_4">
    <path d="M 396.77 273.312 
L 396.77 7.2 
" style="fill:none;stroke:#000000;stroke-linecap:square;stroke-linejoin:miter;stroke-width:0.8;"/>
   </g>
   <g id="patch_5">
    <path d="M 39.65 273.312 
L 396.77 273.312 
" style="fill:none;stroke:#000000;stroke-linecap:square;stroke-linejoin:miter;stroke-width:0.8;"/>
   </g>
   <g id="patch_6">
    <path d="M 39.65 7.2 
L 396.77 7.2 
" style="fill:none;stroke:#000000;stroke-linecap:square;stroke-linejoin:miter;stroke-width:0.8;"/>
   </g>
  </g>
 </g>
 <defs>
  <clipPath id="p203ab5184b">
   <rect height="266.112" width="357.12" x="39.65" y="7.2"/>
  </clipPath>
 </defs>
</svg>
