<?xml version="1.0" encoding="utf-8" standalone="no"?>
<!DOCTYPE svg PUBLIC "-//W3C//DTD SVG 1.1//EN"
  "http://www.w3.org/Graphics/SVG/1.1/DTD/svg11.dtd">
<!-- Created with matplotlib (https://matplotlib.org/) -->
<svg height="298.973344pt" version="1.1" viewBox="0 0 397.6075 298.973344" width="397.6075pt" xmlns="http://www.w3.org/2000/svg" xmlns:xlink="http://www.w3.org/1999/xlink">
 <metadata>
  <rdf:RDF xmlns:cc="http://creativecommons.org/ns#" xmlns:dc="http://purl.org/dc/elements/1.1/" xmlns:rdf="http://www.w3.org/1999/02/22-rdf-syntax-ns#">
   <cc:Work>
    <dc:type rdf:resource="http://purl.org/dc/dcmitype/StillImage"/>
    <dc:date>2020-10-22T12:54:33.256257</dc:date>
    <dc:format>image/svg+xml</dc:format>
    <dc:creator>
     <cc:Agent>
      <dc:title>Matplotlib v3.3.2, https://matplotlib.org/</dc:title>
     </cc:Agent>
    </dc:creator>
   </cc:Work>
  </rdf:RDF>
 </metadata>
 <defs>
  <style type="text/css">*{stroke-linecap:butt;stroke-linejoin:round;}</style>
 </defs>
 <g id="figure_1">
  <g id="patch_1">
   <path d="M 0 298.973344 
L 397.6075 298.973344 
L 397.6075 0 
L 0 0 
z
" style="fill:#ffffff;"/>
  </g>
  <g id="axes_1">
   <g id="patch_2">
    <path d="M 33.2875 275.095219 
L 390.4075 275.095219 
L 390.4075 8.983219 
L 33.2875 8.983219 
z
" style="fill:#ffffff;"/>
   </g>
   <g id="matplotlib.axis_1">
    <g id="xtick_1">
     <g id="line2d_1">
      <defs>
       <path d="M 0 0 
L 0 3.5 
" id="m5ce6153ac9" style="stroke:#000000;stroke-width:0.8;"/>
      </defs>
      <g>
       <use style="stroke:#000000;stroke-width:0.8;" x="49.520227" xlink:href="#m5ce6153ac9" y="275.095219"/>
      </g>
     </g>
     <g id="text_1">
      <!-- 0.0 -->
      <g transform="translate(41.568665 289.693656)scale(0.1 -0.1)">
       <defs>
        <path d="M 31.78125 66.40625 
Q 24.171875 66.40625 20.328125 58.90625 
Q 16.5 51.421875 16.5 36.375 
Q 16.5 21.390625 20.328125 13.890625 
Q 24.171875 6.390625 31.78125 6.390625 
Q 39.453125 6.390625 43.28125 13.890625 
Q 47.125 21.390625 47.125 36.375 
Q 47.125 51.421875 43.28125 58.90625 
Q 39.453125 66.40625 31.78125 66.40625 
z
M 31.78125 74.21875 
Q 44.046875 74.21875 50.515625 64.515625 
Q 56.984375 54.828125 56.984375 36.375 
Q 56.984375 17.96875 50.515625 8.265625 
Q 44.046875 -1.421875 31.78125 -1.421875 
Q 19.53125 -1.421875 13.0625 8.265625 
Q 6.59375 17.96875 6.59375 36.375 
Q 6.59375 54.828125 13.0625 64.515625 
Q 19.53125 74.21875 31.78125 74.21875 
z
" id="DejaVuSans-48"/>
        <path d="M 10.6875 12.40625 
L 21 12.40625 
L 21 0 
L 10.6875 0 
z
" id="DejaVuSans-46"/>
       </defs>
       <use xlink:href="#DejaVuSans-48"/>
       <use x="63.623047" xlink:href="#DejaVuSans-46"/>
       <use x="95.410156" xlink:href="#DejaVuSans-48"/>
      </g>
     </g>
    </g>
    <g id="xtick_2">
     <g id="line2d_2">
      <g>
       <use style="stroke:#000000;stroke-width:0.8;" x="90.305974" xlink:href="#m5ce6153ac9" y="275.095219"/>
      </g>
     </g>
     <g id="text_2">
      <!-- 2.5 -->
      <g transform="translate(82.354412 289.693656)scale(0.1 -0.1)">
       <defs>
        <path d="M 19.1875 8.296875 
L 53.609375 8.296875 
L 53.609375 0 
L 7.328125 0 
L 7.328125 8.296875 
Q 12.9375 14.109375 22.625 23.890625 
Q 32.328125 33.6875 34.8125 36.53125 
Q 39.546875 41.84375 41.421875 45.53125 
Q 43.3125 49.21875 43.3125 52.78125 
Q 43.3125 58.59375 39.234375 62.25 
Q 35.15625 65.921875 28.609375 65.921875 
Q 23.96875 65.921875 18.8125 64.3125 
Q 13.671875 62.703125 7.8125 59.421875 
L 7.8125 69.390625 
Q 13.765625 71.78125 18.9375 73 
Q 24.125 74.21875 28.421875 74.21875 
Q 39.75 74.21875 46.484375 68.546875 
Q 53.21875 62.890625 53.21875 53.421875 
Q 53.21875 48.921875 51.53125 44.890625 
Q 49.859375 40.875 45.40625 35.40625 
Q 44.1875 33.984375 37.640625 27.21875 
Q 31.109375 20.453125 19.1875 8.296875 
z
" id="DejaVuSans-50"/>
        <path d="M 10.796875 72.90625 
L 49.515625 72.90625 
L 49.515625 64.59375 
L 19.828125 64.59375 
L 19.828125 46.734375 
Q 21.96875 47.46875 24.109375 47.828125 
Q 26.265625 48.1875 28.421875 48.1875 
Q 40.625 48.1875 47.75 41.5 
Q 54.890625 34.8125 54.890625 23.390625 
Q 54.890625 11.625 47.5625 5.09375 
Q 40.234375 -1.421875 26.90625 -1.421875 
Q 22.3125 -1.421875 17.546875 -0.640625 
Q 12.796875 0.140625 7.71875 1.703125 
L 7.71875 11.625 
Q 12.109375 9.234375 16.796875 8.0625 
Q 21.484375 6.890625 26.703125 6.890625 
Q 35.15625 6.890625 40.078125 11.328125 
Q 45.015625 15.765625 45.015625 23.390625 
Q 45.015625 31 40.078125 35.4375 
Q 35.15625 39.890625 26.703125 39.890625 
Q 22.75 39.890625 18.8125 39.015625 
Q 14.890625 38.140625 10.796875 36.28125 
z
" id="DejaVuSans-53"/>
       </defs>
       <use xlink:href="#DejaVuSans-50"/>
       <use x="63.623047" xlink:href="#DejaVuSans-46"/>
       <use x="95.410156" xlink:href="#DejaVuSans-53"/>
      </g>
     </g>
    </g>
    <g id="xtick_3">
     <g id="line2d_3">
      <g>
       <use style="stroke:#000000;stroke-width:0.8;" x="131.091721" xlink:href="#m5ce6153ac9" y="275.095219"/>
      </g>
     </g>
     <g id="text_3">
      <!-- 5.0 -->
      <g transform="translate(123.140159 289.693656)scale(0.1 -0.1)">
       <use xlink:href="#DejaVuSans-53"/>
       <use x="63.623047" xlink:href="#DejaVuSans-46"/>
       <use x="95.410156" xlink:href="#DejaVuSans-48"/>
      </g>
     </g>
    </g>
    <g id="xtick_4">
     <g id="line2d_4">
      <g>
       <use style="stroke:#000000;stroke-width:0.8;" x="171.877468" xlink:href="#m5ce6153ac9" y="275.095219"/>
      </g>
     </g>
     <g id="text_4">
      <!-- 7.5 -->
      <g transform="translate(163.925906 289.693656)scale(0.1 -0.1)">
       <defs>
        <path d="M 8.203125 72.90625 
L 55.078125 72.90625 
L 55.078125 68.703125 
L 28.609375 0 
L 18.3125 0 
L 43.21875 64.59375 
L 8.203125 64.59375 
z
" id="DejaVuSans-55"/>
       </defs>
       <use xlink:href="#DejaVuSans-55"/>
       <use x="63.623047" xlink:href="#DejaVuSans-46"/>
       <use x="95.410156" xlink:href="#DejaVuSans-53"/>
      </g>
     </g>
    </g>
    <g id="xtick_5">
     <g id="line2d_5">
      <g>
       <use style="stroke:#000000;stroke-width:0.8;" x="212.663215" xlink:href="#m5ce6153ac9" y="275.095219"/>
      </g>
     </g>
     <g id="text_5">
      <!-- 10.0 -->
      <g transform="translate(201.530402 289.693656)scale(0.1 -0.1)">
       <defs>
        <path d="M 12.40625 8.296875 
L 28.515625 8.296875 
L 28.515625 63.921875 
L 10.984375 60.40625 
L 10.984375 69.390625 
L 28.421875 72.90625 
L 38.28125 72.90625 
L 38.28125 8.296875 
L 54.390625 8.296875 
L 54.390625 0 
L 12.40625 0 
z
" id="DejaVuSans-49"/>
       </defs>
       <use xlink:href="#DejaVuSans-49"/>
       <use x="63.623047" xlink:href="#DejaVuSans-48"/>
       <use x="127.246094" xlink:href="#DejaVuSans-46"/>
       <use x="159.033203" xlink:href="#DejaVuSans-48"/>
      </g>
     </g>
    </g>
    <g id="xtick_6">
     <g id="line2d_6">
      <g>
       <use style="stroke:#000000;stroke-width:0.8;" x="253.448962" xlink:href="#m5ce6153ac9" y="275.095219"/>
      </g>
     </g>
     <g id="text_6">
      <!-- 12.5 -->
      <g transform="translate(242.316149 289.693656)scale(0.1 -0.1)">
       <use xlink:href="#DejaVuSans-49"/>
       <use x="63.623047" xlink:href="#DejaVuSans-50"/>
       <use x="127.246094" xlink:href="#DejaVuSans-46"/>
       <use x="159.033203" xlink:href="#DejaVuSans-53"/>
      </g>
     </g>
    </g>
    <g id="xtick_7">
     <g id="line2d_7">
      <g>
       <use style="stroke:#000000;stroke-width:0.8;" x="294.234709" xlink:href="#m5ce6153ac9" y="275.095219"/>
      </g>
     </g>
     <g id="text_7">
      <!-- 15.0 -->
      <g transform="translate(283.101896 289.693656)scale(0.1 -0.1)">
       <use xlink:href="#DejaVuSans-49"/>
       <use x="63.623047" xlink:href="#DejaVuSans-53"/>
       <use x="127.246094" xlink:href="#DejaVuSans-46"/>
       <use x="159.033203" xlink:href="#DejaVuSans-48"/>
      </g>
     </g>
    </g>
    <g id="xtick_8">
     <g id="line2d_8">
      <g>
       <use style="stroke:#000000;stroke-width:0.8;" x="335.020456" xlink:href="#m5ce6153ac9" y="275.095219"/>
      </g>
     </g>
     <g id="text_8">
      <!-- 17.5 -->
      <g transform="translate(323.887643 289.693656)scale(0.1 -0.1)">
       <use xlink:href="#DejaVuSans-49"/>
       <use x="63.623047" xlink:href="#DejaVuSans-55"/>
       <use x="127.246094" xlink:href="#DejaVuSans-46"/>
       <use x="159.033203" xlink:href="#DejaVuSans-53"/>
      </g>
     </g>
    </g>
    <g id="xtick_9">
     <g id="line2d_9">
      <g>
       <use style="stroke:#000000;stroke-width:0.8;" x="375.806203" xlink:href="#m5ce6153ac9" y="275.095219"/>
      </g>
     </g>
     <g id="text_9">
      <!-- 20.0 -->
      <g transform="translate(364.67339 289.693656)scale(0.1 -0.1)">
       <use xlink:href="#DejaVuSans-50"/>
       <use x="63.623047" xlink:href="#DejaVuSans-48"/>
       <use x="127.246094" xlink:href="#DejaVuSans-46"/>
       <use x="159.033203" xlink:href="#DejaVuSans-48"/>
      </g>
     </g>
    </g>
   </g>
   <g id="matplotlib.axis_2">
    <g id="ytick_1">
     <g id="line2d_10">
      <defs>
       <path d="M 0 0 
L -3.5 0 
" id="m6b36e7369c" style="stroke:#000000;stroke-width:0.8;"/>
      </defs>
      <g>
       <use style="stroke:#000000;stroke-width:0.8;" x="33.2875" xlink:href="#m6b36e7369c" y="262.999219"/>
      </g>
     </g>
     <g id="text_10">
      <!-- 0 -->
      <g transform="translate(19.925 266.798437)scale(0.1 -0.1)">
       <use xlink:href="#DejaVuSans-48"/>
      </g>
     </g>
    </g>
    <g id="ytick_2">
     <g id="line2d_11">
      <g>
       <use style="stroke:#000000;stroke-width:0.8;" x="33.2875" xlink:href="#m6b36e7369c" y="220.999219"/>
      </g>
     </g>
     <g id="text_11">
      <!-- 50 -->
      <g transform="translate(13.5625 224.798437)scale(0.1 -0.1)">
       <use xlink:href="#DejaVuSans-53"/>
       <use x="63.623047" xlink:href="#DejaVuSans-48"/>
      </g>
     </g>
    </g>
    <g id="ytick_3">
     <g id="line2d_12">
      <g>
       <use style="stroke:#000000;stroke-width:0.8;" x="33.2875" xlink:href="#m6b36e7369c" y="178.999219"/>
      </g>
     </g>
     <g id="text_12">
      <!-- 100 -->
      <g transform="translate(7.2 182.798437)scale(0.1 -0.1)">
       <use xlink:href="#DejaVuSans-49"/>
       <use x="63.623047" xlink:href="#DejaVuSans-48"/>
       <use x="127.246094" xlink:href="#DejaVuSans-48"/>
      </g>
     </g>
    </g>
    <g id="ytick_4">
     <g id="line2d_13">
      <g>
       <use style="stroke:#000000;stroke-width:0.8;" x="33.2875" xlink:href="#m6b36e7369c" y="136.999219"/>
      </g>
     </g>
     <g id="text_13">
      <!-- 150 -->
      <g transform="translate(7.2 140.798437)scale(0.1 -0.1)">
       <use xlink:href="#DejaVuSans-49"/>
       <use x="63.623047" xlink:href="#DejaVuSans-53"/>
       <use x="127.246094" xlink:href="#DejaVuSans-48"/>
      </g>
     </g>
    </g>
    <g id="ytick_5">
     <g id="line2d_14">
      <g>
       <use style="stroke:#000000;stroke-width:0.8;" x="33.2875" xlink:href="#m6b36e7369c" y="94.999219"/>
      </g>
     </g>
     <g id="text_14">
      <!-- 200 -->
      <g transform="translate(7.2 98.798437)scale(0.1 -0.1)">
       <use xlink:href="#DejaVuSans-50"/>
       <use x="63.623047" xlink:href="#DejaVuSans-48"/>
       <use x="127.246094" xlink:href="#DejaVuSans-48"/>
      </g>
     </g>
    </g>
    <g id="ytick_6">
     <g id="line2d_15">
      <g>
       <use style="stroke:#000000;stroke-width:0.8;" x="33.2875" xlink:href="#m6b36e7369c" y="52.999219"/>
      </g>
     </g>
     <g id="text_15">
      <!-- 250 -->
      <g transform="translate(7.2 56.798437)scale(0.1 -0.1)">
       <use xlink:href="#DejaVuSans-50"/>
       <use x="63.623047" xlink:href="#DejaVuSans-53"/>
       <use x="127.246094" xlink:href="#DejaVuSans-48"/>
      </g>
     </g>
    </g>
    <g id="ytick_7">
     <g id="line2d_16">
      <g>
       <use style="stroke:#000000;stroke-width:0.8;" x="33.2875" xlink:href="#m6b36e7369c" y="10.999219"/>
      </g>
     </g>
     <g id="text_16">
      <!-- 300 -->
      <g transform="translate(7.2 14.798437)scale(0.1 -0.1)">
       <defs>
        <path d="M 40.578125 39.3125 
Q 47.65625 37.796875 51.625 33 
Q 55.609375 28.21875 55.609375 21.1875 
Q 55.609375 10.40625 48.1875 4.484375 
Q 40.765625 -1.421875 27.09375 -1.421875 
Q 22.515625 -1.421875 17.65625 -0.515625 
Q 12.796875 0.390625 7.625 2.203125 
L 7.625 11.71875 
Q 11.71875 9.328125 16.59375 8.109375 
Q 21.484375 6.890625 26.8125 6.890625 
Q 36.078125 6.890625 40.9375 10.546875 
Q 45.796875 14.203125 45.796875 21.1875 
Q 45.796875 27.640625 41.28125 31.265625 
Q 36.765625 34.90625 28.71875 34.90625 
L 20.21875 34.90625 
L 20.21875 43.015625 
L 29.109375 43.015625 
Q 36.375 43.015625 40.234375 45.921875 
Q 44.09375 48.828125 44.09375 54.296875 
Q 44.09375 59.90625 40.109375 62.90625 
Q 36.140625 65.921875 28.71875 65.921875 
Q 24.65625 65.921875 20.015625 65.03125 
Q 15.375 64.15625 9.8125 62.3125 
L 9.8125 71.09375 
Q 15.4375 72.65625 20.34375 73.4375 
Q 25.25 74.21875 29.59375 74.21875 
Q 40.828125 74.21875 47.359375 69.109375 
Q 53.90625 64.015625 53.90625 55.328125 
Q 53.90625 49.265625 50.4375 45.09375 
Q 46.96875 40.921875 40.578125 39.3125 
z
" id="DejaVuSans-51"/>
       </defs>
       <use xlink:href="#DejaVuSans-51"/>
       <use x="63.623047" xlink:href="#DejaVuSans-48"/>
       <use x="127.246094" xlink:href="#DejaVuSans-48"/>
      </g>
     </g>
    </g>
   </g>
   <g id="line2d_17">
    <path clip-path="url(#p6d8be510da)" d="M 49.520227 262.999219 
L 53.598802 52.999219 
L 57.677377 52.999219 
L 61.755951 52.999219 
L 65.834526 52.999219 
L 69.913101 52.999219 
L 73.991675 52.999219 
L 78.07025 52.999219 
L 82.148825 52.999219 
L 86.227399 52.999219 
L 90.305974 52.999219 
L 94.384549 52.999219 
L 98.463124 52.999219 
L 102.541698 52.999219 
L 106.620273 52.999219 
L 110.698848 52.999219 
L 114.777422 52.999219 
L 118.855997 52.999219 
L 122.934572 52.999219 
L 127.013146 52.999219 
L 131.091721 52.999219 
L 135.170296 52.999219 
L 139.24887 52.999219 
L 143.327445 52.999219 
L 147.40602 52.999219 
L 151.484595 52.999219 
L 155.563169 52.999219 
L 159.641744 52.999219 
L 163.720319 52.999219 
L 167.798893 52.999219 
L 171.877468 52.999219 
L 175.956043 52.999219 
L 180.034617 52.999219 
L 184.113192 52.999219 
L 188.191767 52.999219 
L 192.270341 52.999219 
L 196.348916 52.999219 
L 200.427491 52.999219 
L 204.506066 52.999219 
L 208.58464 52.999219 
L 212.663215 52.999219 
L 216.74179 52.999219 
L 220.820364 52.999219 
L 224.898939 52.999219 
L 228.977514 52.999219 
L 233.056088 52.999219 
L 237.134663 52.999219 
L 241.213238 52.999219 
L 245.291812 52.999219 
L 249.370387 52.999219 
L 253.448962 52.999219 
L 257.527537 52.999219 
L 261.606111 52.999219 
L 265.684686 52.999219 
L 269.763261 52.999219 
L 273.841835 52.999219 
L 277.92041 52.999219 
L 281.998985 52.999219 
L 286.077559 52.999219 
L 290.156134 52.999219 
L 294.234709 52.999219 
L 298.313283 52.999219 
L 302.391858 52.999219 
L 306.470433 52.999219 
L 310.549008 52.999219 
L 314.627582 52.999219 
L 318.706157 52.999219 
L 322.784732 52.999219 
L 326.863306 52.999219 
L 330.941881 52.999219 
L 335.020456 52.999219 
L 339.09903 52.999219 
L 343.177605 52.999219 
L 347.25618 52.999219 
L 351.334754 52.999219 
L 355.413329 52.999219 
L 359.491904 52.999219 
L 363.570479 52.999219 
L 367.649053 52.999219 
L 371.727628 52.999219 
" style="fill:none;stroke:#1f77b4;stroke-linecap:square;stroke-width:1.5;"/>
   </g>
   <g id="line2d_18">
    <path clip-path="url(#p6d8be510da)" d="M 49.520227 262.999219 
L 53.598802 262.999219 
L 57.677377 52.999219 
L 61.755951 52.999219 
L 65.834526 52.999219 
L 69.913101 52.999219 
L 73.991675 52.999219 
L 78.07025 52.999219 
L 82.148825 52.999219 
L 86.227399 52.999219 
L 90.305974 52.999219 
L 94.384549 52.999219 
L 98.463124 52.999219 
L 102.541698 52.999219 
L 106.620273 52.999219 
L 110.698848 52.999219 
L 114.777422 52.999219 
L 118.855997 52.999219 
L 122.934572 52.999219 
L 127.013146 52.999219 
L 131.091721 52.999219 
L 135.170296 52.999219 
L 139.24887 52.999219 
L 143.327445 52.999219 
L 147.40602 52.999219 
L 151.484595 52.999219 
L 155.563169 52.999219 
L 159.641744 52.999219 
L 163.720319 52.999219 
L 167.798893 52.999219 
L 171.877468 52.999219 
L 175.956043 52.999219 
L 180.034617 52.999219 
L 184.113192 52.999219 
L 188.191767 52.999219 
L 192.270341 52.999219 
L 196.348916 52.999219 
L 200.427491 52.999219 
L 204.506066 52.999219 
L 208.58464 52.999219 
L 212.663215 52.999219 
L 216.74179 52.999219 
L 220.820364 52.999219 
L 224.898939 52.999219 
L 228.977514 52.999219 
L 233.056088 52.999219 
L 237.134663 52.999219 
L 241.213238 52.999219 
L 245.291812 52.999219 
L 249.370387 52.999219 
L 253.448962 52.999219 
L 257.527537 52.999219 
L 261.606111 52.999219 
L 265.684686 52.999219 
L 269.763261 52.999219 
L 273.841835 52.999219 
L 277.92041 52.999219 
L 281.998985 52.999219 
L 286.077559 52.999219 
L 290.156134 52.999219 
L 294.234709 52.999219 
L 298.313283 52.999219 
L 302.391858 52.999219 
L 306.470433 52.999219 
L 310.549008 52.999219 
L 314.627582 52.999219 
L 318.706157 52.999219 
L 322.784732 52.999219 
L 326.863306 52.999219 
L 330.941881 52.999219 
L 335.020456 52.999219 
L 339.09903 52.999219 
L 343.177605 52.999219 
L 347.25618 52.999219 
L 351.334754 52.999219 
L 355.413329 52.999219 
L 359.491904 52.999219 
L 363.570479 52.999219 
L 367.649053 52.999219 
L 371.727628 52.999219 
" style="fill:none;stroke:#ff7f0e;stroke-linecap:square;stroke-width:1.5;"/>
   </g>
   <g id="line2d_19">
    <path clip-path="url(#p6d8be510da)" d="M 49.520227 262.999219 
L 51.151657 192.439219 
L 52.783087 148.759219 
L 54.414517 113.479219 
L 56.045947 87.439219 
L 57.677377 87.439219 
L 59.308807 79.879219 
L 60.940236 73.159219 
L 62.571666 56.359219 
L 64.203096 46.279219 
L 65.834526 42.919219 
L 67.465956 47.959219 
L 69.097386 53.839219 
L 70.728816 52.159219 
L 72.360246 47.119219 
L 73.991675 44.599219 
L 75.623105 47.119219 
L 77.254535 47.959219 
L 78.885965 49.639219 
L 80.517395 41.239219 
L 82.148825 44.599219 
L 83.780255 41.239219 
L 85.411685 47.119219 
L 87.043114 49.639219 
L 88.674544 54.679219 
L 90.305974 60.559219 
L 91.937404 58.039219 
L 93.568834 44.599219 
L 95.200264 55.519219 
L 96.831694 38.719219 
L 98.463124 40.399219 
L 100.094553 47.959219 
L 101.725983 52.159219 
L 103.357413 55.519219 
L 104.988843 52.159219 
L 106.620273 63.079219 
L 108.251703 52.999219 
L 111.514563 63.079219 
L 113.145992 58.039219 
L 114.777422 50.479219 
L 116.408852 45.439219 
L 118.040282 73.159219 
L 119.671712 73.159219 
L 121.303142 66.439219 
L 122.934572 68.959219 
L 124.566002 66.439219 
L 126.197431 61.399219 
L 127.828861 42.919219 
L 129.460291 51.319219 
L 131.091721 50.479219 
L 132.723151 50.479219 
L 134.354581 47.959219 
L 135.986011 54.679219 
L 137.617441 46.279219 
L 139.24887 42.919219 
L 140.8803 47.119219 
L 142.51173 60.559219 
L 144.14316 63.919219 
L 145.77459 72.319219 
L 147.40602 72.319219 
L 149.03745 64.759219 
L 150.66888 61.399219 
L 153.931739 56.359219 
L 155.563169 62.239219 
L 157.194599 55.519219 
L 158.826029 52.999219 
L 160.457459 56.359219 
L 162.088889 69.799219 
L 163.720319 79.879219 
L 165.351749 73.159219 
L 166.983178 75.679219 
L 168.614608 70.639219 
L 170.246038 75.679219 
L 171.877468 68.119219 
L 173.508898 66.439219 
L 175.140328 55.519219 
L 176.771758 62.239219 
L 178.403188 55.519219 
L 180.034617 63.919219 
L 181.666047 59.719219 
L 183.297477 58.039219 
L 184.928907 55.519219 
L 186.560337 54.679219 
L 188.191767 52.999219 
L 189.823197 50.479219 
L 191.454627 53.839219 
L 193.086056 49.639219 
L 194.717486 47.959219 
L 196.348916 51.319219 
L 199.611776 51.319219 
L 201.243206 58.879219 
L 202.874636 46.279219 
L 204.506066 45.439219 
L 206.137495 40.399219 
L 207.768925 41.239219 
L 209.400355 54.679219 
L 211.031785 52.999219 
L 212.663215 47.959219 
L 214.294645 48.799219 
L 215.926075 46.279219 
L 217.557505 55.519219 
L 219.188934 52.159219 
L 220.820364 51.319219 
L 222.451794 60.559219 
L 224.083224 65.599219 
L 225.714654 74.839219 
L 227.346084 63.079219 
L 228.977514 57.199219 
L 230.608944 57.199219 
L 232.240373 52.159219 
L 233.871803 51.319219 
L 235.503233 52.999219 
L 237.134663 52.159219 
L 238.766093 58.039219 
L 240.397523 59.719219 
L 242.028953 62.239219 
L 243.660383 47.119219 
L 245.291812 52.999219 
L 246.923242 52.159219 
L 248.554672 49.639219 
L 250.186102 46.279219 
L 251.817532 52.159219 
L 253.448962 51.319219 
L 255.080392 58.879219 
L 256.711822 60.559219 
L 258.343251 68.119219 
L 259.974681 59.719219 
L 261.606111 54.679219 
L 263.237541 52.159219 
L 264.868971 68.119219 
L 266.500401 67.279219 
L 268.131831 79.879219 
L 269.763261 70.639219 
L 271.39469 64.759219 
L 273.02612 58.039219 
L 274.65755 63.079219 
L 276.28898 63.079219 
L 277.92041 63.919219 
L 279.55184 63.919219 
L 281.18327 50.479219 
L 282.8147 47.119219 
L 286.077559 57.199219 
L 287.708989 47.119219 
L 289.340419 48.799219 
L 290.971849 43.759219 
L 292.603279 49.639219 
L 294.234709 49.639219 
L 295.866139 46.279219 
L 297.497569 37.879219 
L 300.760428 41.239219 
L 302.391858 46.279219 
L 304.023288 45.439219 
L 305.654718 45.439219 
L 307.286148 50.479219 
L 308.917578 61.399219 
L 310.549008 62.239219 
L 312.180437 59.719219 
L 313.811867 63.919219 
L 315.443297 73.159219 
L 317.074727 71.479219 
L 318.706157 65.599219 
L 320.337587 61.399219 
L 321.969017 64.759219 
L 323.600447 63.079219 
L 325.231876 52.999219 
L 326.863306 55.519219 
L 328.494736 44.599219 
L 330.126166 52.999219 
L 331.757596 65.599219 
L 333.389026 59.719219 
L 335.020456 55.519219 
L 336.651886 49.639219 
L 338.283315 45.439219 
L 339.914745 48.799219 
L 341.546175 42.919219 
L 343.177605 38.719219 
L 344.809035 45.439219 
L 346.440465 47.119219 
L 348.071895 49.639219 
L 349.703325 43.759219 
L 351.334754 49.639219 
L 352.966184 39.559219 
L 354.597614 48.799219 
L 356.229044 52.159219 
L 357.860474 49.639219 
L 359.491904 54.679219 
L 361.123334 55.519219 
L 362.754764 44.599219 
L 364.386193 56.359219 
L 366.017623 64.759219 
L 367.649053 57.199219 
L 369.280483 48.799219 
L 370.911913 47.959219 
L 372.543343 46.279219 
L 374.174773 43.759219 
L 374.174773 43.759219 
" style="fill:none;stroke:#2ca02c;stroke-linecap:square;stroke-width:1.5;"/>
   </g>
   <g id="line2d_20">
    <path clip-path="url(#p6d8be510da)" d="M 49.520227 262.999219 
L 51.151657 249.559219 
L 52.783087 218.479219 
L 54.414517 197.479219 
L 56.045947 169.759219 
L 57.677377 129.439219 
L 59.308807 105.079219 
L 60.940236 85.759219 
L 62.571666 90.799219 
L 64.203096 76.519219 
L 65.834526 69.799219 
L 67.465956 54.679219 
L 69.097386 49.639219 
L 70.728816 60.559219 
L 72.360246 60.559219 
L 73.991675 59.719219 
L 75.623105 62.239219 
L 77.254535 53.839219 
L 78.885965 54.679219 
L 80.517395 52.999219 
L 82.148825 48.799219 
L 83.780255 43.759219 
L 85.411685 37.879219 
L 87.043114 42.079219 
L 88.674544 30.319219 
L 90.305974 25.279219 
L 91.937404 37.039219 
L 93.568834 47.959219 
L 95.200264 54.679219 
L 96.831694 65.599219 
L 98.463124 60.559219 
L 100.094553 61.399219 
L 101.725983 63.079219 
L 103.357413 70.639219 
L 104.988843 58.879219 
L 106.620273 33.679219 
L 108.251703 40.399219 
L 109.883133 52.159219 
L 111.514563 31.159219 
L 114.777422 62.239219 
L 116.408852 60.559219 
L 118.040282 28.639219 
L 119.671712 31.999219 
L 121.303142 40.399219 
L 122.934572 39.559219 
L 124.566002 37.879219 
L 126.197431 32.839219 
L 127.828861 56.359219 
L 129.460291 46.279219 
L 131.091721 46.279219 
L 132.723151 47.119219 
L 134.354581 38.719219 
L 135.986011 34.519219 
L 137.617441 42.919219 
L 139.24887 63.079219 
L 140.8803 50.479219 
L 142.51173 34.519219 
L 144.14316 24.439219 
L 145.77459 27.799219 
L 147.40602 33.679219 
L 149.03745 58.039219 
L 150.66888 58.879219 
L 152.30031 63.079219 
L 153.931739 74.839219 
L 155.563169 61.399219 
L 157.194599 70.639219 
L 158.826029 68.119219 
L 162.088889 32.839219 
L 163.720319 33.679219 
L 165.351749 47.959219 
L 166.983178 36.199219 
L 168.614608 48.799219 
L 170.246038 44.599219 
L 171.877468 51.319219 
L 173.508898 47.959219 
L 175.140328 58.039219 
L 176.771758 58.039219 
L 178.403188 57.199219 
L 180.034617 64.759219 
L 181.666047 51.319219 
L 183.297477 43.759219 
L 184.928907 42.079219 
L 186.560337 35.359219 
L 188.191767 50.479219 
L 189.823197 48.799219 
L 191.454627 42.919219 
L 193.086056 42.919219 
L 194.717486 51.319219 
L 196.348916 45.439219 
L 197.980346 41.239219 
L 199.611776 35.359219 
L 201.243206 27.799219 
L 202.874636 46.279219 
L 204.506066 51.319219 
L 206.137495 53.839219 
L 207.768925 51.319219 
L 209.400355 53.839219 
L 211.031785 49.639219 
L 212.663215 55.519219 
L 214.294645 30.319219 
L 215.926075 45.439219 
L 217.557505 37.879219 
L 219.188934 34.519219 
L 220.820364 39.559219 
L 222.451794 30.319219 
L 224.083224 28.639219 
L 225.714654 34.519219 
L 227.346084 52.999219 
L 228.977514 59.719219 
L 230.608944 59.719219 
L 232.240373 86.599219 
L 233.871803 68.119219 
L 237.134663 69.799219 
L 238.766093 69.799219 
L 240.397523 59.719219 
L 242.028953 64.759219 
L 243.660383 73.159219 
L 245.291812 52.159219 
L 246.923242 37.039219 
L 248.554672 46.279219 
L 250.186102 38.719219 
L 251.817532 55.519219 
L 253.448962 47.119219 
L 255.080392 56.359219 
L 256.711822 43.759219 
L 258.343251 35.359219 
L 259.974681 44.599219 
L 261.606111 45.439219 
L 263.237541 52.999219 
L 264.868971 37.039219 
L 266.500401 37.879219 
L 268.131831 22.759219 
L 269.763261 43.759219 
L 271.39469 50.479219 
L 273.02612 48.799219 
L 274.65755 55.519219 
L 276.28898 39.559219 
L 277.92041 52.159219 
L 279.55184 53.839219 
L 281.18327 73.999219 
L 282.8147 70.639219 
L 284.44613 58.879219 
L 286.077559 56.359219 
L 287.708989 68.959219 
L 289.340419 52.999219 
L 290.971849 67.279219 
L 292.603279 42.919219 
L 294.234709 52.999219 
L 295.866139 52.159219 
L 297.497569 55.519219 
L 299.128998 59.719219 
L 300.760428 52.159219 
L 302.391858 49.639219 
L 304.023288 53.839219 
L 305.654718 57.199219 
L 307.286148 52.159219 
L 308.917578 64.759219 
L 310.549008 57.199219 
L 312.180437 46.279219 
L 313.811867 47.119219 
L 315.443297 34.519219 
L 317.074727 37.879219 
L 318.706157 46.279219 
L 320.337587 50.479219 
L 321.969017 31.999219 
L 323.600447 43.759219 
L 325.231876 53.839219 
L 326.863306 45.439219 
L 328.494736 57.199219 
L 330.126166 31.159219 
L 331.757596 28.639219 
L 333.389026 35.359219 
L 335.020456 33.679219 
L 336.651886 45.439219 
L 338.283315 55.519219 
L 339.914745 46.279219 
L 341.546175 47.119219 
L 343.177605 57.199219 
L 344.809035 45.439219 
L 346.440465 35.359219 
L 348.071895 21.079219 
L 349.703325 36.199219 
L 351.334754 36.199219 
L 352.966184 57.199219 
L 354.597614 52.159219 
L 356.229044 45.439219 
L 357.860474 49.639219 
L 359.491904 37.879219 
L 361.123334 49.639219 
L 362.754764 53.839219 
L 364.386193 45.439219 
L 366.017623 41.239219 
L 369.280483 61.399219 
L 370.911913 47.119219 
L 372.543343 56.359219 
L 374.174773 59.719219 
L 374.174773 59.719219 
" style="fill:none;stroke:#d62728;stroke-linecap:square;stroke-width:1.5;"/>
   </g>
   <g id="patch_3">
    <path d="M 33.2875 275.095219 
L 33.2875 8.983219 
" style="fill:none;stroke:#000000;stroke-linecap:square;stroke-linejoin:miter;stroke-width:0.8;"/>
   </g>
   <g id="patch_4">
    <path d="M 390.4075 275.095219 
L 390.4075 8.983219 
" style="fill:none;stroke:#000000;stroke-linecap:square;stroke-linejoin:miter;stroke-width:0.8;"/>
   </g>
   <g id="patch_5">
    <path d="M 33.2875 275.095219 
L 390.4075 275.095219 
" style="fill:none;stroke:#000000;stroke-linecap:square;stroke-linejoin:miter;stroke-width:0.8;"/>
   </g>
   <g id="patch_6">
    <path d="M 33.2875 8.983219 
L 390.4075 8.983219 
" style="fill:none;stroke:#000000;stroke-linecap:square;stroke-linejoin:miter;stroke-width:0.8;"/>
   </g>
  </g>
 </g>
 <defs>
  <clipPath id="p6d8be510da">
   <rect height="266.112" width="357.12" x="33.2875" y="8.983219"/>
  </clipPath>
 </defs>
</svg>
