<?xml version="1.0" encoding="utf-8" standalone="no"?>
<!DOCTYPE svg PUBLIC "-//W3C//DTD SVG 1.1//EN"
  "http://www.w3.org/Graphics/SVG/1.1/DTD/svg11.dtd">
<svg xmlns:xlink="http://www.w3.org/1999/xlink" width="403.97pt" height="297.190125pt" viewBox="0 0 403.97 297.190125" xmlns="http://www.w3.org/2000/svg" version="1.1">
 <metadata>
  <rdf:RDF xmlns:dc="http://purl.org/dc/elements/1.1/" xmlns:cc="http://creativecommons.org/ns#" xmlns:rdf="http://www.w3.org/1999/02/22-rdf-syntax-ns#">
   <cc:Work>
    <dc:type rdf:resource="http://purl.org/dc/dcmitype/StillImage"/>
    <dc:date>2025-06-30T05:55:09.887720</dc:date>
    <dc:format>image/svg+xml</dc:format>
    <dc:creator>
     <cc:Agent>
      <dc:title>Matplotlib v3.10.3, https://matplotlib.org/</dc:title>
     </cc:Agent>
    </dc:creator>
   </cc:Work>
  </rdf:RDF>
 </metadata>
 <defs>
  <style type="text/css">*{stroke-linejoin: round; stroke-linecap: butt}</style>
 </defs>
 <g id="figure_1">
  <g id="patch_1">
   <path d="M 0 297.190125 
L 403.97 297.190125 
L 403.97 0 
L 0 0 
z
" style="fill: #ffffff"/>
  </g>
  <g id="axes_1">
   <g id="patch_2">
    <path d="M 39.65 273.312 
L 396.77 273.312 
L 396.77 7.2 
L 39.65 7.2 
z
" style="fill: #ffffff"/>
   </g>
   <g id="matplotlib.axis_1">
    <g id="xtick_1">
     <g id="line2d_1">
      <defs>
       <path id="m7e76dadde4" d="M 0 0 
L 0 3.5 
" style="stroke: #000000; stroke-width: 0.8"/>
      </defs>
      <g>
       <use xlink:href="#m7e76dadde4" x="55.882727" y="273.312" style="stroke: #000000; stroke-width: 0.8"/>
      </g>
     </g>
     <g id="text_1">
      <!-- 0.0 -->
      <g transform="translate(47.931165 287.910437) scale(0.1 -0.1)">
       <defs>
        <path id="DejaVuSans-30" d="M 2034 4250 
Q 1547 4250 1301 3770 
Q 1056 3291 1056 2328 
Q 1056 1369 1301 889 
Q 1547 409 2034 409 
Q 2525 409 2770 889 
Q 3016 1369 3016 2328 
Q 3016 3291 2770 3770 
Q 2525 4250 2034 4250 
z
M 2034 4750 
Q 2819 4750 3233 4129 
Q 3647 3509 3647 2328 
Q 3647 1150 3233 529 
Q 2819 -91 2034 -91 
Q 1250 -91 836 529 
Q 422 1150 422 2328 
Q 422 3509 836 4129 
Q 1250 4750 2034 4750 
z
" transform="scale(0.015625)"/>
        <path id="DejaVuSans-2e" d="M 684 794 
L 1344 794 
L 1344 0 
L 684 0 
L 684 794 
z
" transform="scale(0.015625)"/>
       </defs>
       <use xlink:href="#DejaVuSans-30"/>
       <use xlink:href="#DejaVuSans-2e" transform="translate(63.623047 0)"/>
       <use xlink:href="#DejaVuSans-30" transform="translate(95.410156 0)"/>
      </g>
     </g>
    </g>
    <g id="xtick_2">
     <g id="line2d_2">
      <g>
       <use xlink:href="#m7e76dadde4" x="96.668474" y="273.312" style="stroke: #000000; stroke-width: 0.8"/>
      </g>
     </g>
     <g id="text_2">
      <!-- 2.5 -->
      <g transform="translate(88.716912 287.910437) scale(0.1 -0.1)">
       <defs>
        <path id="DejaVuSans-32" d="M 1228 531 
L 3431 531 
L 3431 0 
L 469 0 
L 469 531 
Q 828 903 1448 1529 
Q 2069 2156 2228 2338 
Q 2531 2678 2651 2914 
Q 2772 3150 2772 3378 
Q 2772 3750 2511 3984 
Q 2250 4219 1831 4219 
Q 1534 4219 1204 4116 
Q 875 4013 500 3803 
L 500 4441 
Q 881 4594 1212 4672 
Q 1544 4750 1819 4750 
Q 2544 4750 2975 4387 
Q 3406 4025 3406 3419 
Q 3406 3131 3298 2873 
Q 3191 2616 2906 2266 
Q 2828 2175 2409 1742 
Q 1991 1309 1228 531 
z
" transform="scale(0.015625)"/>
        <path id="DejaVuSans-35" d="M 691 4666 
L 3169 4666 
L 3169 4134 
L 1269 4134 
L 1269 2991 
Q 1406 3038 1543 3061 
Q 1681 3084 1819 3084 
Q 2600 3084 3056 2656 
Q 3513 2228 3513 1497 
Q 3513 744 3044 326 
Q 2575 -91 1722 -91 
Q 1428 -91 1123 -41 
Q 819 9 494 109 
L 494 744 
Q 775 591 1075 516 
Q 1375 441 1709 441 
Q 2250 441 2565 725 
Q 2881 1009 2881 1497 
Q 2881 1984 2565 2268 
Q 2250 2553 1709 2553 
Q 1456 2553 1204 2497 
Q 953 2441 691 2322 
L 691 4666 
z
" transform="scale(0.015625)"/>
       </defs>
       <use xlink:href="#DejaVuSans-32"/>
       <use xlink:href="#DejaVuSans-2e" transform="translate(63.623047 0)"/>
       <use xlink:href="#DejaVuSans-35" transform="translate(95.410156 0)"/>
      </g>
     </g>
    </g>
    <g id="xtick_3">
     <g id="line2d_3">
      <g>
       <use xlink:href="#m7e76dadde4" x="137.454221" y="273.312" style="stroke: #000000; stroke-width: 0.8"/>
      </g>
     </g>
     <g id="text_3">
      <!-- 5.0 -->
      <g transform="translate(129.502659 287.910437) scale(0.1 -0.1)">
       <use xlink:href="#DejaVuSans-35"/>
       <use xlink:href="#DejaVuSans-2e" transform="translate(63.623047 0)"/>
       <use xlink:href="#DejaVuSans-30" transform="translate(95.410156 0)"/>
      </g>
     </g>
    </g>
    <g id="xtick_4">
     <g id="line2d_4">
      <g>
       <use xlink:href="#m7e76dadde4" x="178.239968" y="273.312" style="stroke: #000000; stroke-width: 0.8"/>
      </g>
     </g>
     <g id="text_4">
      <!-- 7.5 -->
      <g transform="translate(170.288406 287.910437) scale(0.1 -0.1)">
       <defs>
        <path id="DejaVuSans-37" d="M 525 4666 
L 3525 4666 
L 3525 4397 
L 1831 0 
L 1172 0 
L 2766 4134 
L 525 4134 
L 525 4666 
z
" transform="scale(0.015625)"/>
       </defs>
       <use xlink:href="#DejaVuSans-37"/>
       <use xlink:href="#DejaVuSans-2e" transform="translate(63.623047 0)"/>
       <use xlink:href="#DejaVuSans-35" transform="translate(95.410156 0)"/>
      </g>
     </g>
    </g>
    <g id="xtick_5">
     <g id="line2d_5">
      <g>
       <use xlink:href="#m7e76dadde4" x="219.025715" y="273.312" style="stroke: #000000; stroke-width: 0.8"/>
      </g>
     </g>
     <g id="text_5">
      <!-- 10.0 -->
      <g transform="translate(207.892902 287.910437) scale(0.1 -0.1)">
       <defs>
        <path id="DejaVuSans-31" d="M 794 531 
L 1825 531 
L 1825 4091 
L 703 3866 
L 703 4441 
L 1819 4666 
L 2450 4666 
L 2450 531 
L 3481 531 
L 3481 0 
L 794 0 
L 794 531 
z
" transform="scale(0.015625)"/>
       </defs>
       <use xlink:href="#DejaVuSans-31"/>
       <use xlink:href="#DejaVuSans-30" transform="translate(63.623047 0)"/>
       <use xlink:href="#DejaVuSans-2e" transform="translate(127.246094 0)"/>
       <use xlink:href="#DejaVuSans-30" transform="translate(159.033203 0)"/>
      </g>
     </g>
    </g>
    <g id="xtick_6">
     <g id="line2d_6">
      <g>
       <use xlink:href="#m7e76dadde4" x="259.811462" y="273.312" style="stroke: #000000; stroke-width: 0.8"/>
      </g>
     </g>
     <g id="text_6">
      <!-- 12.5 -->
      <g transform="translate(248.678649 287.910437) scale(0.1 -0.1)">
       <use xlink:href="#DejaVuSans-31"/>
       <use xlink:href="#DejaVuSans-32" transform="translate(63.623047 0)"/>
       <use xlink:href="#DejaVuSans-2e" transform="translate(127.246094 0)"/>
       <use xlink:href="#DejaVuSans-35" transform="translate(159.033203 0)"/>
      </g>
     </g>
    </g>
    <g id="xtick_7">
     <g id="line2d_7">
      <g>
       <use xlink:href="#m7e76dadde4" x="300.597209" y="273.312" style="stroke: #000000; stroke-width: 0.8"/>
      </g>
     </g>
     <g id="text_7">
      <!-- 15.0 -->
      <g transform="translate(289.464396 287.910437) scale(0.1 -0.1)">
       <use xlink:href="#DejaVuSans-31"/>
       <use xlink:href="#DejaVuSans-35" transform="translate(63.623047 0)"/>
       <use xlink:href="#DejaVuSans-2e" transform="translate(127.246094 0)"/>
       <use xlink:href="#DejaVuSans-30" transform="translate(159.033203 0)"/>
      </g>
     </g>
    </g>
    <g id="xtick_8">
     <g id="line2d_8">
      <g>
       <use xlink:href="#m7e76dadde4" x="341.382956" y="273.312" style="stroke: #000000; stroke-width: 0.8"/>
      </g>
     </g>
     <g id="text_8">
      <!-- 17.5 -->
      <g transform="translate(330.250143 287.910437) scale(0.1 -0.1)">
       <use xlink:href="#DejaVuSans-31"/>
       <use xlink:href="#DejaVuSans-37" transform="translate(63.623047 0)"/>
       <use xlink:href="#DejaVuSans-2e" transform="translate(127.246094 0)"/>
       <use xlink:href="#DejaVuSans-35" transform="translate(159.033203 0)"/>
      </g>
     </g>
    </g>
    <g id="xtick_9">
     <g id="line2d_9">
      <g>
       <use xlink:href="#m7e76dadde4" x="382.168703" y="273.312" style="stroke: #000000; stroke-width: 0.8"/>
      </g>
     </g>
     <g id="text_9">
      <!-- 20.0 -->
      <g transform="translate(371.03589 287.910437) scale(0.1 -0.1)">
       <use xlink:href="#DejaVuSans-32"/>
       <use xlink:href="#DejaVuSans-30" transform="translate(63.623047 0)"/>
       <use xlink:href="#DejaVuSans-2e" transform="translate(127.246094 0)"/>
       <use xlink:href="#DejaVuSans-30" transform="translate(159.033203 0)"/>
      </g>
     </g>
    </g>
   </g>
   <g id="matplotlib.axis_2">
    <g id="ytick_1">
     <g id="line2d_10">
      <defs>
       <path id="m1791ec974d" d="M 0 0 
L -3.5 0 
" style="stroke: #000000; stroke-width: 0.8"/>
      </defs>
      <g>
       <use xlink:href="#m1791ec974d" x="39.65" y="261.216" style="stroke: #000000; stroke-width: 0.8"/>
      </g>
     </g>
     <g id="text_10">
      <!-- 0 -->
      <g transform="translate(26.2875 265.015219) scale(0.1 -0.1)">
       <use xlink:href="#DejaVuSans-30"/>
      </g>
     </g>
    </g>
    <g id="ytick_2">
     <g id="line2d_11">
      <g>
       <use xlink:href="#m1791ec974d" x="39.65" y="221.904983" style="stroke: #000000; stroke-width: 0.8"/>
      </g>
     </g>
     <g id="text_11">
      <!-- 500 -->
      <g transform="translate(13.5625 225.704202) scale(0.1 -0.1)">
       <use xlink:href="#DejaVuSans-35"/>
       <use xlink:href="#DejaVuSans-30" transform="translate(63.623047 0)"/>
       <use xlink:href="#DejaVuSans-30" transform="translate(127.246094 0)"/>
      </g>
     </g>
    </g>
    <g id="ytick_3">
     <g id="line2d_12">
      <g>
       <use xlink:href="#m1791ec974d" x="39.65" y="182.593966" style="stroke: #000000; stroke-width: 0.8"/>
      </g>
     </g>
     <g id="text_12">
      <!-- 1000 -->
      <g transform="translate(7.2 186.393184) scale(0.1 -0.1)">
       <use xlink:href="#DejaVuSans-31"/>
       <use xlink:href="#DejaVuSans-30" transform="translate(63.623047 0)"/>
       <use xlink:href="#DejaVuSans-30" transform="translate(127.246094 0)"/>
       <use xlink:href="#DejaVuSans-30" transform="translate(190.869141 0)"/>
      </g>
     </g>
    </g>
    <g id="ytick_4">
     <g id="line2d_13">
      <g>
       <use xlink:href="#m1791ec974d" x="39.65" y="143.282948" style="stroke: #000000; stroke-width: 0.8"/>
      </g>
     </g>
     <g id="text_13">
      <!-- 1500 -->
      <g transform="translate(7.2 147.082167) scale(0.1 -0.1)">
       <use xlink:href="#DejaVuSans-31"/>
       <use xlink:href="#DejaVuSans-35" transform="translate(63.623047 0)"/>
       <use xlink:href="#DejaVuSans-30" transform="translate(127.246094 0)"/>
       <use xlink:href="#DejaVuSans-30" transform="translate(190.869141 0)"/>
      </g>
     </g>
    </g>
    <g id="ytick_5">
     <g id="line2d_14">
      <g>
       <use xlink:href="#m1791ec974d" x="39.65" y="103.971931" style="stroke: #000000; stroke-width: 0.8"/>
      </g>
     </g>
     <g id="text_14">
      <!-- 2000 -->
      <g transform="translate(7.2 107.77115) scale(0.1 -0.1)">
       <use xlink:href="#DejaVuSans-32"/>
       <use xlink:href="#DejaVuSans-30" transform="translate(63.623047 0)"/>
       <use xlink:href="#DejaVuSans-30" transform="translate(127.246094 0)"/>
       <use xlink:href="#DejaVuSans-30" transform="translate(190.869141 0)"/>
      </g>
     </g>
    </g>
    <g id="ytick_6">
     <g id="line2d_15">
      <g>
       <use xlink:href="#m1791ec974d" x="39.65" y="64.660914" style="stroke: #000000; stroke-width: 0.8"/>
      </g>
     </g>
     <g id="text_15">
      <!-- 2500 -->
      <g transform="translate(7.2 68.460133) scale(0.1 -0.1)">
       <use xlink:href="#DejaVuSans-32"/>
       <use xlink:href="#DejaVuSans-35" transform="translate(63.623047 0)"/>
       <use xlink:href="#DejaVuSans-30" transform="translate(127.246094 0)"/>
       <use xlink:href="#DejaVuSans-30" transform="translate(190.869141 0)"/>
      </g>
     </g>
    </g>
    <g id="ytick_7">
     <g id="line2d_16">
      <g>
       <use xlink:href="#m1791ec974d" x="39.65" y="25.349897" style="stroke: #000000; stroke-width: 0.8"/>
      </g>
     </g>
     <g id="text_16">
      <!-- 3000 -->
      <g transform="translate(7.2 29.149115) scale(0.1 -0.1)">
       <defs>
        <path id="DejaVuSans-33" d="M 2597 2516 
Q 3050 2419 3304 2112 
Q 3559 1806 3559 1356 
Q 3559 666 3084 287 
Q 2609 -91 1734 -91 
Q 1441 -91 1130 -33 
Q 819 25 488 141 
L 488 750 
Q 750 597 1062 519 
Q 1375 441 1716 441 
Q 2309 441 2620 675 
Q 2931 909 2931 1356 
Q 2931 1769 2642 2001 
Q 2353 2234 1838 2234 
L 1294 2234 
L 1294 2753 
L 1863 2753 
Q 2328 2753 2575 2939 
Q 2822 3125 2822 3475 
Q 2822 3834 2567 4026 
Q 2313 4219 1838 4219 
Q 1578 4219 1281 4162 
Q 984 4106 628 3988 
L 628 4550 
Q 988 4650 1302 4700 
Q 1616 4750 1894 4750 
Q 2613 4750 3031 4423 
Q 3450 4097 3450 3541 
Q 3450 3153 3228 2886 
Q 3006 2619 2597 2516 
z
" transform="scale(0.015625)"/>
       </defs>
       <use xlink:href="#DejaVuSans-33"/>
       <use xlink:href="#DejaVuSans-30" transform="translate(63.623047 0)"/>
       <use xlink:href="#DejaVuSans-30" transform="translate(127.246094 0)"/>
       <use xlink:href="#DejaVuSans-30" transform="translate(190.869141 0)"/>
      </g>
     </g>
    </g>
   </g>
   <g id="line2d_17">
    <path d="M 55.882727 261.216 
L 72.197026 182.593966 
L 88.511325 130.179276 
L 104.825624 95.236149 
L 121.139922 71.940732 
L 137.454221 56.410453 
L 153.76852 46.056935 
L 170.082819 39.154589 
L 186.397117 34.553025 
L 202.711416 31.485315 
L 219.025715 29.440176 
L 235.340014 28.076749 
L 251.654312 27.167798 
L 267.968611 26.561831 
L 284.28291 26.157853 
L 300.597209 25.888534 
L 316.911508 25.708988 
L 333.225806 25.589291 
L 349.540105 25.509493 
L 365.854404 25.456294 
" clip-path="url(#pbd9ae3c033)" style="fill: none; stroke: #1f77b4; stroke-width: 1.5; stroke-linecap: square"/>
   </g>
   <g id="line2d_18">
    <path d="M 55.882727 261.216 
L 72.197026 261.216 
L 88.511325 235.008655 
L 104.825624 208.80131 
L 121.139922 188.41782 
L 137.454221 173.858184 
L 153.76852 163.828212 
L 170.082819 157.033716 
L 186.397117 152.468101 
L 202.711416 149.412375 
L 219.025715 147.37123 
L 235.340014 146.009135 
L 251.654312 145.100628 
L 267.968611 144.494809 
L 284.28291 144.09088 
L 300.597209 143.821578 
L 316.911508 143.642037 
L 333.225806 143.522342 
L 349.540105 143.442544 
L 365.854404 143.389346 
" clip-path="url(#pbd9ae3c033)" style="fill: none; stroke: #ff7f0e; stroke-width: 1.5; stroke-linecap: square"/>
   </g>
   <g id="line2d_19">
    <path d="M 55.882727 261.216 
L 57.514157 252.72482 
L 62.408447 230.396162 
L 64.039877 224.263644 
L 65.671307 219.703566 
L 67.302736 213.335181 
L 68.934166 207.831639 
L 72.197026 194.859003 
L 73.828456 188.56924 
L 75.459886 183.93054 
L 77.091316 180.313927 
L 78.722746 174.26003 
L 83.617035 158.457001 
L 85.248465 153.896923 
L 86.879895 150.280309 
L 88.511325 146.191964 
L 90.142755 143.204326 
L 91.774185 138.958736 
L 93.405614 136.678697 
L 95.037044 135.184879 
L 96.668474 132.433108 
L 98.299904 128.580628 
L 99.931334 125.671613 
L 101.562764 123.62744 
L 103.194194 121.111535 
L 108.088483 110.812048 
L 109.719913 107.195435 
L 112.982773 101.141538 
L 114.614203 98.468389 
L 117.877063 92.021382 
L 119.508492 89.977209 
L 121.139922 89.269611 
L 122.771352 87.068194 
L 124.402782 85.967485 
L 127.665642 81.014297 
L 129.297072 80.228077 
L 130.928502 78.498392 
L 132.559931 77.554928 
L 135.822791 74.645912 
L 137.454221 73.938314 
L 139.085651 74.016936 
L 140.717081 70.636188 
L 142.348511 72.444495 
L 143.979941 68.74926 
L 145.61137 67.648551 
L 147.2428 65.683 
L 148.87423 65.525756 
L 150.50566 63.324339 
L 152.13709 62.773985 
L 153.76852 61.751899 
L 155.39995 59.235994 
L 157.03138 57.663553 
L 158.66281 57.113199 
L 160.294239 55.540758 
L 161.925669 54.911782 
L 163.557099 54.911782 
L 165.188529 54.754538 
L 166.819959 52.395877 
L 168.451389 51.295168 
L 170.082819 50.037215 
L 171.714249 50.744814 
L 173.345678 51.688278 
L 174.977108 50.744814 
L 176.608538 48.464775 
L 178.239968 47.1282 
L 179.871398 46.34198 
L 181.502828 46.027492 
L 183.134258 44.061941 
L 184.765688 44.376429 
L 186.397117 42.725366 
L 188.028547 43.275721 
L 189.659977 43.197098 
L 191.291407 43.511587 
L 192.922837 42.017768 
L 196.185697 41.074304 
L 197.817127 41.231548 
L 199.448556 39.030131 
L 201.079986 38.558398 
L 202.711416 38.794265 
L 204.342846 37.693556 
L 205.974276 36.828714 
L 207.605706 35.649383 
L 209.237136 33.762454 
L 210.868566 33.447966 
L 212.499995 33.762454 
L 214.131425 33.683832 
L 215.762855 34.548675 
L 217.394285 32.976234 
L 219.025715 32.504502 
L 220.657145 33.526588 
L 222.288575 33.683832 
L 223.920005 31.796903 
L 225.551434 32.111392 
L 227.182864 30.696195 
L 228.814294 30.774817 
L 230.445724 30.381707 
L 232.077154 31.561037 
L 233.708584 31.561037 
L 235.340014 31.954148 
L 236.971444 30.381707 
L 238.602873 29.35962 
L 240.234303 28.887888 
L 241.865733 27.472692 
L 243.497163 28.023046 
L 245.128593 27.472692 
L 246.760023 26.371983 
L 248.391453 26.214739 
L 250.022883 25.035409 
L 251.654312 26.686471 
L 253.285742 25.428519 
L 254.917172 26.293361 
L 256.548602 26.057495 
L 261.442892 28.5734 
L 263.074322 27.78718 
L 264.705751 27.78718 
L 266.337181 28.5734 
L 267.968611 28.023046 
L 269.600041 27.315448 
L 271.231471 29.123754 
L 272.862901 29.909975 
L 274.494331 30.381707 
L 276.125761 29.438242 
L 277.75719 27.629936 
L 279.38862 27.236825 
L 281.02005 26.450605 
L 282.65148 26.765093 
L 284.28291 28.5734 
L 285.91434 27.629936 
L 287.54577 27.551314 
L 289.1772 27.629936 
L 292.440059 29.909975 
L 294.071489 28.809266 
L 295.702919 28.730644 
L 297.334349 28.809266 
L 298.965779 30.145841 
L 302.228639 28.652022 
L 303.860069 27.079581 
L 305.491498 28.101668 
L 308.754358 28.494778 
L 310.385788 25.821629 
L 312.017218 27.629936 
L 313.648648 26.450605 
L 315.280078 26.843715 
L 316.911508 24.485054 
L 318.542937 23.14848 
L 320.174367 25.585763 
L 323.437227 24.878164 
L 325.068657 22.75537 
L 326.700087 22.833992 
L 328.331517 24.485054 
L 331.594376 24.799542 
L 333.225806 23.384346 
L 334.857236 23.856078 
L 336.488666 24.013322 
L 338.120096 22.75537 
L 339.751526 22.833992 
L 341.382956 20.239464 
L 343.014386 20.947063 
L 344.645815 19.296 
L 346.277245 19.924976 
L 347.908675 20.947063 
L 349.540105 22.205015 
L 351.171535 22.126393 
L 352.802965 22.676747 
L 354.434395 21.497417 
L 356.065825 23.069858 
L 357.697254 24.249188 
L 359.328684 24.170566 
L 362.591544 22.440881 
L 364.222974 22.283637 
L 365.854404 22.912614 
L 367.485834 22.833992 
L 369.117264 21.654661 
L 370.748693 20.239464 
L 372.380123 20.239464 
L 374.011553 19.610488 
L 375.642983 20.553953 
L 377.274413 20.160842 
L 378.905843 19.296 
L 380.537273 20.947063 
L 380.537273 20.947063 
" clip-path="url(#pbd9ae3c033)" style="fill: none; stroke: #2ca02c; stroke-width: 1.5; stroke-linecap: square"/>
   </g>
   <g id="line2d_20">
    <path d="M 55.882727 261.216 
L 59.145587 260.744268 
L 60.777017 260.036669 
L 62.408447 259.093205 
L 64.039877 258.306985 
L 67.302736 256.026946 
L 68.934166 254.297261 
L 70.565596 252.960686 
L 72.197026 251.309624 
L 73.828456 250.051671 
L 75.459886 247.850254 
L 77.091316 246.120569 
L 78.722746 244.705373 
L 80.354175 243.997774 
L 81.985605 241.717735 
L 83.617035 240.302539 
L 85.248465 239.123208 
L 86.879895 236.135571 
L 88.511325 234.17002 
L 90.142755 231.575493 
L 91.774185 229.767186 
L 95.037044 225.442974 
L 96.668474 222.927069 
L 99.931334 219.153212 
L 101.562764 217.738015 
L 103.194194 215.929708 
L 104.825624 213.885535 
L 106.457053 213.649669 
L 108.088483 211.212386 
L 109.719913 210.1903 
L 111.351343 208.853725 
L 112.982773 207.12404 
L 114.614203 205.158489 
L 117.877063 202.87845 
L 119.508492 201.463254 
L 121.139922 199.340459 
L 122.771352 196.903176 
L 124.402782 195.094869 
L 126.034212 192.42172 
L 127.665642 191.871366 
L 129.297072 189.040972 
L 130.928502 187.547154 
L 132.559931 185.581603 
L 134.191361 184.638138 
L 135.822791 182.436721 
L 137.454221 181.729123 
L 139.085651 180.549793 
L 140.717081 182.122233 
L 142.348511 179.606328 
L 143.979941 178.348376 
L 145.61137 177.483533 
L 147.2428 177.247667 
L 148.87423 174.574518 
L 150.50566 173.237943 
L 152.13709 172.923455 
L 153.76852 171.979991 
L 155.39995 171.508259 
L 157.03138 171.744125 
L 158.66281 170.957904 
L 160.294239 171.272393 
L 161.925669 171.115149 
L 163.557099 170.40755 
L 165.188529 169.22822 
L 166.819959 168.913732 
L 170.082819 168.756487 
L 171.714249 165.926094 
L 173.345678 164.746764 
L 174.977108 164.58952 
L 176.608538 164.196409 
L 178.239968 163.488811 
L 179.871398 162.073615 
L 181.502828 162.623969 
L 183.134258 162.623969 
L 184.765688 161.208772 
L 186.397117 160.422552 
L 188.028547 158.535623 
L 189.659977 158.063891 
L 191.291407 156.805938 
L 192.922837 155.70523 
L 194.554267 155.076253 
L 196.185697 154.919009 
L 197.817127 153.818301 
L 199.448556 153.818301 
L 201.079986 154.132789 
L 202.711416 154.132789 
L 204.342846 153.346569 
L 205.974276 153.189325 
L 207.605706 154.290033 
L 209.237136 154.604521 
L 210.868566 152.63897 
L 212.499995 151.931372 
L 214.131425 150.830664 
L 215.762855 150.358931 
L 217.394285 149.729955 
L 219.025715 149.415467 
L 220.657145 148.472003 
L 222.288575 147.843026 
L 223.920005 148.393381 
L 225.551434 148.550625 
L 227.182864 148.393381 
L 228.814294 147.371294 
L 230.445724 146.742318 
L 232.077154 146.978184 
L 233.708584 145.012633 
L 235.340014 143.36157 
L 236.971444 146.349208 
L 238.602873 146.585074 
L 241.865733 145.012633 
L 243.497163 145.641609 
L 245.128593 145.327121 
L 246.760023 146.42783 
L 248.391453 146.191964 
L 250.022883 146.270586 
L 251.654312 145.641609 
L 253.285742 145.405743 
L 254.917172 144.776767 
L 256.548602 144.619523 
L 258.180032 142.889838 
L 261.442892 142.260862 
L 263.074322 142.732594 
L 264.705751 140.688421 
L 266.337181 141.317397 
L 267.968611 143.676058 
L 269.600041 145.012633 
L 271.231471 145.798853 
L 272.862901 146.03472 
L 274.494331 146.663696 
L 276.125761 146.978184 
L 277.75719 148.393381 
L 279.38862 148.314759 
L 281.02005 149.651333 
L 282.65148 148.786491 
L 284.28291 148.393381 
L 285.91434 148.629247 
L 287.54577 149.022357 
L 289.1772 147.21405 
L 290.80863 145.169877 
L 294.071489 146.663696 
L 295.702919 147.135428 
L 297.334349 147.843026 
L 298.965779 145.091255 
L 302.228639 146.270586 
L 303.860069 148.00027 
L 305.491498 147.292672 
L 307.122928 146.191964 
L 308.754358 146.113342 
L 310.385788 148.157514 
L 312.017218 147.292672 
L 313.648648 146.978184 
L 315.280078 145.405743 
L 318.542937 147.685782 
L 320.174367 146.742318 
L 321.805797 145.641609 
L 323.437227 146.585074 
L 325.068657 148.393381 
L 326.700087 148.472003 
L 328.331517 147.135428 
L 329.962947 147.292672 
L 331.594376 145.169877 
L 333.225806 144.934011 
L 334.857236 144.383657 
L 336.488666 144.147791 
L 338.120096 145.248499 
L 339.751526 144.934011 
L 341.382956 145.798853 
L 343.014386 145.798853 
L 344.645815 145.012633 
L 346.277245 144.462279 
L 347.908675 145.327121 
L 349.540105 144.147791 
L 351.171535 144.147791 
L 352.802965 144.855389 
L 354.434395 145.012633 
L 356.065825 145.405743 
L 357.697254 144.540901 
L 359.328684 142.496728 
L 360.960114 143.047082 
L 362.591544 144.619523 
L 364.222974 145.798853 
L 365.854404 145.877475 
L 367.485834 146.663696 
L 369.117264 146.978184 
L 370.748693 147.843026 
L 372.380123 147.764404 
L 374.011553 145.641609 
L 375.642983 145.091255 
L 377.274413 145.720231 
L 378.905843 145.956097 
L 380.537273 144.776767 
L 380.537273 144.776767 
" clip-path="url(#pbd9ae3c033)" style="fill: none; stroke: #d62728; stroke-width: 1.5; stroke-linecap: square"/>
   </g>
   <g id="patch_3">
    <path d="M 39.65 273.312 
L 39.65 7.2 
" style="fill: none; stroke: #000000; stroke-width: 0.8; stroke-linejoin: miter; stroke-linecap: square"/>
   </g>
   <g id="patch_4">
    <path d="M 396.77 273.312 
L 396.77 7.2 
" style="fill: none; stroke: #000000; stroke-width: 0.8; stroke-linejoin: miter; stroke-linecap: square"/>
   </g>
   <g id="patch_5">
    <path d="M 39.65 273.312 
L 396.77 273.312 
" style="fill: none; stroke: #000000; stroke-width: 0.8; stroke-linejoin: miter; stroke-linecap: square"/>
   </g>
   <g id="patch_6">
    <path d="M 39.65 7.2 
L 396.77 7.2 
" style="fill: none; stroke: #000000; stroke-width: 0.8; stroke-linejoin: miter; stroke-linecap: square"/>
   </g>
  </g>
 </g>
 <defs>
  <clipPath id="pbd9ae3c033">
   <rect x="39.65" y="7.2" width="357.12" height="266.112"/>
  </clipPath>
 </defs>
</svg>
