<?xml version="1.0" encoding="utf-8" standalone="no"?>
<!DOCTYPE svg PUBLIC "-//W3C//DTD SVG 1.1//EN"
  "http://www.w3.org/Graphics/SVG/1.1/DTD/svg11.dtd">
<svg xmlns:xlink="http://www.w3.org/1999/xlink" width="403.97pt" height="297.190125pt" viewBox="0 0 403.97 297.190125" xmlns="http://www.w3.org/2000/svg" version="1.1">
 <metadata>
  <rdf:RDF xmlns:dc="http://purl.org/dc/elements/1.1/" xmlns:cc="http://creativecommons.org/ns#" xmlns:rdf="http://www.w3.org/1999/02/22-rdf-syntax-ns#">
   <cc:Work>
    <dc:type rdf:resource="http://purl.org/dc/dcmitype/StillImage"/>
    <dc:date>2025-07-14T05:57:22.583290</dc:date>
    <dc:format>image/svg+xml</dc:format>
    <dc:creator>
     <cc:Agent>
      <dc:title>Matplotlib v3.10.3, https://matplotlib.org/</dc:title>
     </cc:Agent>
    </dc:creator>
   </cc:Work>
  </rdf:RDF>
 </metadata>
 <defs>
  <style type="text/css">*{stroke-linejoin: round; stroke-linecap: butt}</style>
 </defs>
 <g id="figure_1">
  <g id="patch_1">
   <path d="M 0 297.190125 
L 403.97 297.190125 
L 403.97 0 
L 0 0 
z
" style="fill: #ffffff"/>
  </g>
  <g id="axes_1">
   <g id="patch_2">
    <path d="M 39.65 273.312 
L 396.77 273.312 
L 396.77 7.2 
L 39.65 7.2 
z
" style="fill: #ffffff"/>
   </g>
   <g id="matplotlib.axis_1">
    <g id="xtick_1">
     <g id="line2d_1">
      <defs>
       <path id="m86752761d0" d="M 0 0 
L 0 3.5 
" style="stroke: #000000; stroke-width: 0.8"/>
      </defs>
      <g>
       <use xlink:href="#m86752761d0" x="55.882727" y="273.312" style="stroke: #000000; stroke-width: 0.8"/>
      </g>
     </g>
     <g id="text_1">
      <!-- 0.0 -->
      <g transform="translate(47.931165 287.910437) scale(0.1 -0.1)">
       <defs>
        <path id="DejaVuSans-30" d="M 2034 4250 
Q 1547 4250 1301 3770 
Q 1056 3291 1056 2328 
Q 1056 1369 1301 889 
Q 1547 409 2034 409 
Q 2525 409 2770 889 
Q 3016 1369 3016 2328 
Q 3016 3291 2770 3770 
Q 2525 4250 2034 4250 
z
M 2034 4750 
Q 2819 4750 3233 4129 
Q 3647 3509 3647 2328 
Q 3647 1150 3233 529 
Q 2819 -91 2034 -91 
Q 1250 -91 836 529 
Q 422 1150 422 2328 
Q 422 3509 836 4129 
Q 1250 4750 2034 4750 
z
" transform="scale(0.015625)"/>
        <path id="DejaVuSans-2e" d="M 684 794 
L 1344 794 
L 1344 0 
L 684 0 
L 684 794 
z
" transform="scale(0.015625)"/>
       </defs>
       <use xlink:href="#DejaVuSans-30"/>
       <use xlink:href="#DejaVuSans-2e" transform="translate(63.623047 0)"/>
       <use xlink:href="#DejaVuSans-30" transform="translate(95.410156 0)"/>
      </g>
     </g>
    </g>
    <g id="xtick_2">
     <g id="line2d_2">
      <g>
       <use xlink:href="#m86752761d0" x="96.668474" y="273.312" style="stroke: #000000; stroke-width: 0.8"/>
      </g>
     </g>
     <g id="text_2">
      <!-- 2.5 -->
      <g transform="translate(88.716912 287.910437) scale(0.1 -0.1)">
       <defs>
        <path id="DejaVuSans-32" d="M 1228 531 
L 3431 531 
L 3431 0 
L 469 0 
L 469 531 
Q 828 903 1448 1529 
Q 2069 2156 2228 2338 
Q 2531 2678 2651 2914 
Q 2772 3150 2772 3378 
Q 2772 3750 2511 3984 
Q 2250 4219 1831 4219 
Q 1534 4219 1204 4116 
Q 875 4013 500 3803 
L 500 4441 
Q 881 4594 1212 4672 
Q 1544 4750 1819 4750 
Q 2544 4750 2975 4387 
Q 3406 4025 3406 3419 
Q 3406 3131 3298 2873 
Q 3191 2616 2906 2266 
Q 2828 2175 2409 1742 
Q 1991 1309 1228 531 
z
" transform="scale(0.015625)"/>
        <path id="DejaVuSans-35" d="M 691 4666 
L 3169 4666 
L 3169 4134 
L 1269 4134 
L 1269 2991 
Q 1406 3038 1543 3061 
Q 1681 3084 1819 3084 
Q 2600 3084 3056 2656 
Q 3513 2228 3513 1497 
Q 3513 744 3044 326 
Q 2575 -91 1722 -91 
Q 1428 -91 1123 -41 
Q 819 9 494 109 
L 494 744 
Q 775 591 1075 516 
Q 1375 441 1709 441 
Q 2250 441 2565 725 
Q 2881 1009 2881 1497 
Q 2881 1984 2565 2268 
Q 2250 2553 1709 2553 
Q 1456 2553 1204 2497 
Q 953 2441 691 2322 
L 691 4666 
z
" transform="scale(0.015625)"/>
       </defs>
       <use xlink:href="#DejaVuSans-32"/>
       <use xlink:href="#DejaVuSans-2e" transform="translate(63.623047 0)"/>
       <use xlink:href="#DejaVuSans-35" transform="translate(95.410156 0)"/>
      </g>
     </g>
    </g>
    <g id="xtick_3">
     <g id="line2d_3">
      <g>
       <use xlink:href="#m86752761d0" x="137.454221" y="273.312" style="stroke: #000000; stroke-width: 0.8"/>
      </g>
     </g>
     <g id="text_3">
      <!-- 5.0 -->
      <g transform="translate(129.502659 287.910437) scale(0.1 -0.1)">
       <use xlink:href="#DejaVuSans-35"/>
       <use xlink:href="#DejaVuSans-2e" transform="translate(63.623047 0)"/>
       <use xlink:href="#DejaVuSans-30" transform="translate(95.410156 0)"/>
      </g>
     </g>
    </g>
    <g id="xtick_4">
     <g id="line2d_4">
      <g>
       <use xlink:href="#m86752761d0" x="178.239968" y="273.312" style="stroke: #000000; stroke-width: 0.8"/>
      </g>
     </g>
     <g id="text_4">
      <!-- 7.5 -->
      <g transform="translate(170.288406 287.910437) scale(0.1 -0.1)">
       <defs>
        <path id="DejaVuSans-37" d="M 525 4666 
L 3525 4666 
L 3525 4397 
L 1831 0 
L 1172 0 
L 2766 4134 
L 525 4134 
L 525 4666 
z
" transform="scale(0.015625)"/>
       </defs>
       <use xlink:href="#DejaVuSans-37"/>
       <use xlink:href="#DejaVuSans-2e" transform="translate(63.623047 0)"/>
       <use xlink:href="#DejaVuSans-35" transform="translate(95.410156 0)"/>
      </g>
     </g>
    </g>
    <g id="xtick_5">
     <g id="line2d_5">
      <g>
       <use xlink:href="#m86752761d0" x="219.025715" y="273.312" style="stroke: #000000; stroke-width: 0.8"/>
      </g>
     </g>
     <g id="text_5">
      <!-- 10.0 -->
      <g transform="translate(207.892902 287.910437) scale(0.1 -0.1)">
       <defs>
        <path id="DejaVuSans-31" d="M 794 531 
L 1825 531 
L 1825 4091 
L 703 3866 
L 703 4441 
L 1819 4666 
L 2450 4666 
L 2450 531 
L 3481 531 
L 3481 0 
L 794 0 
L 794 531 
z
" transform="scale(0.015625)"/>
       </defs>
       <use xlink:href="#DejaVuSans-31"/>
       <use xlink:href="#DejaVuSans-30" transform="translate(63.623047 0)"/>
       <use xlink:href="#DejaVuSans-2e" transform="translate(127.246094 0)"/>
       <use xlink:href="#DejaVuSans-30" transform="translate(159.033203 0)"/>
      </g>
     </g>
    </g>
    <g id="xtick_6">
     <g id="line2d_6">
      <g>
       <use xlink:href="#m86752761d0" x="259.811462" y="273.312" style="stroke: #000000; stroke-width: 0.8"/>
      </g>
     </g>
     <g id="text_6">
      <!-- 12.5 -->
      <g transform="translate(248.678649 287.910437) scale(0.1 -0.1)">
       <use xlink:href="#DejaVuSans-31"/>
       <use xlink:href="#DejaVuSans-32" transform="translate(63.623047 0)"/>
       <use xlink:href="#DejaVuSans-2e" transform="translate(127.246094 0)"/>
       <use xlink:href="#DejaVuSans-35" transform="translate(159.033203 0)"/>
      </g>
     </g>
    </g>
    <g id="xtick_7">
     <g id="line2d_7">
      <g>
       <use xlink:href="#m86752761d0" x="300.597209" y="273.312" style="stroke: #000000; stroke-width: 0.8"/>
      </g>
     </g>
     <g id="text_7">
      <!-- 15.0 -->
      <g transform="translate(289.464396 287.910437) scale(0.1 -0.1)">
       <use xlink:href="#DejaVuSans-31"/>
       <use xlink:href="#DejaVuSans-35" transform="translate(63.623047 0)"/>
       <use xlink:href="#DejaVuSans-2e" transform="translate(127.246094 0)"/>
       <use xlink:href="#DejaVuSans-30" transform="translate(159.033203 0)"/>
      </g>
     </g>
    </g>
    <g id="xtick_8">
     <g id="line2d_8">
      <g>
       <use xlink:href="#m86752761d0" x="341.382956" y="273.312" style="stroke: #000000; stroke-width: 0.8"/>
      </g>
     </g>
     <g id="text_8">
      <!-- 17.5 -->
      <g transform="translate(330.250143 287.910437) scale(0.1 -0.1)">
       <use xlink:href="#DejaVuSans-31"/>
       <use xlink:href="#DejaVuSans-37" transform="translate(63.623047 0)"/>
       <use xlink:href="#DejaVuSans-2e" transform="translate(127.246094 0)"/>
       <use xlink:href="#DejaVuSans-35" transform="translate(159.033203 0)"/>
      </g>
     </g>
    </g>
    <g id="xtick_9">
     <g id="line2d_9">
      <g>
       <use xlink:href="#m86752761d0" x="382.168703" y="273.312" style="stroke: #000000; stroke-width: 0.8"/>
      </g>
     </g>
     <g id="text_9">
      <!-- 20.0 -->
      <g transform="translate(371.03589 287.910437) scale(0.1 -0.1)">
       <use xlink:href="#DejaVuSans-32"/>
       <use xlink:href="#DejaVuSans-30" transform="translate(63.623047 0)"/>
       <use xlink:href="#DejaVuSans-2e" transform="translate(127.246094 0)"/>
       <use xlink:href="#DejaVuSans-30" transform="translate(159.033203 0)"/>
      </g>
     </g>
    </g>
   </g>
   <g id="matplotlib.axis_2">
    <g id="ytick_1">
     <g id="line2d_10">
      <defs>
       <path id="m76f04f8609" d="M 0 0 
L -3.5 0 
" style="stroke: #000000; stroke-width: 0.8"/>
      </defs>
      <g>
       <use xlink:href="#m76f04f8609" x="39.65" y="261.216" style="stroke: #000000; stroke-width: 0.8"/>
      </g>
     </g>
     <g id="text_10">
      <!-- 0 -->
      <g transform="translate(26.2875 265.015219) scale(0.1 -0.1)">
       <use xlink:href="#DejaVuSans-30"/>
      </g>
     </g>
    </g>
    <g id="ytick_2">
     <g id="line2d_11">
      <g>
       <use xlink:href="#m76f04f8609" x="39.65" y="226.862876" style="stroke: #000000; stroke-width: 0.8"/>
      </g>
     </g>
     <g id="text_11">
      <!-- 500 -->
      <g transform="translate(13.5625 230.662095) scale(0.1 -0.1)">
       <use xlink:href="#DejaVuSans-35"/>
       <use xlink:href="#DejaVuSans-30" transform="translate(63.623047 0)"/>
       <use xlink:href="#DejaVuSans-30" transform="translate(127.246094 0)"/>
      </g>
     </g>
    </g>
    <g id="ytick_3">
     <g id="line2d_12">
      <g>
       <use xlink:href="#m76f04f8609" x="39.65" y="192.509752" style="stroke: #000000; stroke-width: 0.8"/>
      </g>
     </g>
     <g id="text_12">
      <!-- 1000 -->
      <g transform="translate(7.2 196.308971) scale(0.1 -0.1)">
       <use xlink:href="#DejaVuSans-31"/>
       <use xlink:href="#DejaVuSans-30" transform="translate(63.623047 0)"/>
       <use xlink:href="#DejaVuSans-30" transform="translate(127.246094 0)"/>
       <use xlink:href="#DejaVuSans-30" transform="translate(190.869141 0)"/>
      </g>
     </g>
    </g>
    <g id="ytick_4">
     <g id="line2d_13">
      <g>
       <use xlink:href="#m76f04f8609" x="39.65" y="158.156628" style="stroke: #000000; stroke-width: 0.8"/>
      </g>
     </g>
     <g id="text_13">
      <!-- 1500 -->
      <g transform="translate(7.2 161.955847) scale(0.1 -0.1)">
       <use xlink:href="#DejaVuSans-31"/>
       <use xlink:href="#DejaVuSans-35" transform="translate(63.623047 0)"/>
       <use xlink:href="#DejaVuSans-30" transform="translate(127.246094 0)"/>
       <use xlink:href="#DejaVuSans-30" transform="translate(190.869141 0)"/>
      </g>
     </g>
    </g>
    <g id="ytick_5">
     <g id="line2d_14">
      <g>
       <use xlink:href="#m76f04f8609" x="39.65" y="123.803504" style="stroke: #000000; stroke-width: 0.8"/>
      </g>
     </g>
     <g id="text_14">
      <!-- 2000 -->
      <g transform="translate(7.2 127.602722) scale(0.1 -0.1)">
       <use xlink:href="#DejaVuSans-32"/>
       <use xlink:href="#DejaVuSans-30" transform="translate(63.623047 0)"/>
       <use xlink:href="#DejaVuSans-30" transform="translate(127.246094 0)"/>
       <use xlink:href="#DejaVuSans-30" transform="translate(190.869141 0)"/>
      </g>
     </g>
    </g>
    <g id="ytick_6">
     <g id="line2d_15">
      <g>
       <use xlink:href="#m76f04f8609" x="39.65" y="89.45038" style="stroke: #000000; stroke-width: 0.8"/>
      </g>
     </g>
     <g id="text_15">
      <!-- 2500 -->
      <g transform="translate(7.2 93.249598) scale(0.1 -0.1)">
       <use xlink:href="#DejaVuSans-32"/>
       <use xlink:href="#DejaVuSans-35" transform="translate(63.623047 0)"/>
       <use xlink:href="#DejaVuSans-30" transform="translate(127.246094 0)"/>
       <use xlink:href="#DejaVuSans-30" transform="translate(190.869141 0)"/>
      </g>
     </g>
    </g>
    <g id="ytick_7">
     <g id="line2d_16">
      <g>
       <use xlink:href="#m76f04f8609" x="39.65" y="55.097256" style="stroke: #000000; stroke-width: 0.8"/>
      </g>
     </g>
     <g id="text_16">
      <!-- 3000 -->
      <g transform="translate(7.2 58.896474) scale(0.1 -0.1)">
       <defs>
        <path id="DejaVuSans-33" d="M 2597 2516 
Q 3050 2419 3304 2112 
Q 3559 1806 3559 1356 
Q 3559 666 3084 287 
Q 2609 -91 1734 -91 
Q 1441 -91 1130 -33 
Q 819 25 488 141 
L 488 750 
Q 750 597 1062 519 
Q 1375 441 1716 441 
Q 2309 441 2620 675 
Q 2931 909 2931 1356 
Q 2931 1769 2642 2001 
Q 2353 2234 1838 2234 
L 1294 2234 
L 1294 2753 
L 1863 2753 
Q 2328 2753 2575 2939 
Q 2822 3125 2822 3475 
Q 2822 3834 2567 4026 
Q 2313 4219 1838 4219 
Q 1578 4219 1281 4162 
Q 984 4106 628 3988 
L 628 4550 
Q 988 4650 1302 4700 
Q 1616 4750 1894 4750 
Q 2613 4750 3031 4423 
Q 3450 4097 3450 3541 
Q 3450 3153 3228 2886 
Q 3006 2619 2597 2516 
z
" transform="scale(0.015625)"/>
       </defs>
       <use xlink:href="#DejaVuSans-33"/>
       <use xlink:href="#DejaVuSans-30" transform="translate(63.623047 0)"/>
       <use xlink:href="#DejaVuSans-30" transform="translate(127.246094 0)"/>
       <use xlink:href="#DejaVuSans-30" transform="translate(190.869141 0)"/>
      </g>
     </g>
    </g>
    <g id="ytick_8">
     <g id="line2d_17">
      <g>
       <use xlink:href="#m76f04f8609" x="39.65" y="20.744132" style="stroke: #000000; stroke-width: 0.8"/>
      </g>
     </g>
     <g id="text_17">
      <!-- 3500 -->
      <g transform="translate(7.2 24.54335) scale(0.1 -0.1)">
       <use xlink:href="#DejaVuSans-33"/>
       <use xlink:href="#DejaVuSans-35" transform="translate(63.623047 0)"/>
       <use xlink:href="#DejaVuSans-30" transform="translate(127.246094 0)"/>
       <use xlink:href="#DejaVuSans-30" transform="translate(190.869141 0)"/>
      </g>
     </g>
    </g>
   </g>
   <g id="line2d_18">
    <path d="M 55.882727 261.216 
L 72.197026 192.509752 
L 88.511325 143.281725 
L 104.825624 108.009844 
L 121.139922 82.737541 
L 137.454221 64.629936 
L 153.76852 51.655837 
L 170.082819 42.359895 
L 186.397117 35.699353 
L 202.711416 30.927074 
L 219.025715 27.507736 
L 235.340014 25.057781 
L 251.654312 23.302388 
L 267.968611 22.044649 
L 284.28291 21.143479 
L 300.597209 20.49779 
L 316.911508 20.035155 
L 333.225806 19.703676 
L 349.540105 19.466172 
L 365.854404 19.296 
" clip-path="url(#pa2f6c72fb0)" style="fill: none; stroke: #1f77b4; stroke-width: 1.5; stroke-linecap: square"/>
   </g>
   <g id="line2d_19">
    <path d="M 55.882727 261.216 
L 72.197026 261.216 
L 88.511325 238.313917 
L 104.825624 210.146646 
L 121.139922 183.928275 
L 137.454221 162.043662 
L 153.76852 144.772234 
L 170.082819 131.580383 
L 186.397117 121.709039 
L 202.711416 114.420911 
L 219.025715 109.088426 
L 235.340014 105.210949 
L 251.654312 102.4036 
L 267.968611 100.377177 
L 284.28291 98.917564 
L 300.597209 97.867809 
L 316.911508 97.113636 
L 333.225806 96.572231 
L 349.540105 96.183781 
L 365.854404 95.905183 
" clip-path="url(#pa2f6c72fb0)" style="fill: none; stroke: #ff7f0e; stroke-width: 1.5; stroke-linecap: square"/>
   </g>
   <g id="line2d_20">
    <path d="M 55.882727 261.216 
L 57.514157 255.375969 
L 59.145587 248.230519 
L 60.777017 243.352375 
L 65.671307 225.69487 
L 67.302736 220.954139 
L 68.934166 215.663757 
L 72.197026 203.502752 
L 73.828456 198.281077 
L 77.091316 188.662202 
L 78.722746 185.845246 
L 81.985605 175.33319 
L 83.617035 170.455046 
L 85.248465 166.126553 
L 86.879895 162.828653 
L 88.511325 160.355228 
L 90.142755 157.538272 
L 93.405614 149.568347 
L 95.037044 146.545272 
L 96.668474 143.865728 
L 98.299904 140.91136 
L 99.931334 137.544753 
L 101.562764 133.903322 
L 103.194194 130.742835 
L 104.825624 128.750354 
L 106.457053 126.345635 
L 108.088483 122.979029 
L 111.351343 118.307004 
L 112.982773 115.283929 
L 114.614203 113.909804 
L 116.245633 110.268373 
L 117.877063 108.48201 
L 119.508492 107.039179 
L 121.139922 104.565754 
L 122.771352 103.260336 
L 124.402782 101.473973 
L 126.034212 99.206667 
L 127.665642 97.969954 
L 129.297072 97.282892 
L 130.928502 96.321004 
L 132.559931 94.259817 
L 134.191361 94.191111 
L 135.822791 93.916286 
L 137.454221 92.610867 
L 139.085651 92.19863 
L 140.717081 91.168036 
L 142.348511 89.519086 
L 143.979941 88.557198 
L 145.61137 88.213667 
L 147.2428 86.221186 
L 148.87423 85.740242 
L 150.50566 85.740242 
L 152.13709 82.373636 
L 155.39995 81.480455 
L 157.03138 80.312449 
L 158.66281 78.869617 
L 160.294239 78.869617 
L 161.925669 75.777836 
L 163.557099 75.70913 
L 165.188529 75.090774 
L 166.819959 75.640424 
L 170.082819 73.373118 
L 171.714249 73.441824 
L 173.345678 71.724168 
L 174.977108 71.174518 
L 176.608538 68.907211 
L 178.239968 68.426268 
L 179.871398 65.884137 
L 181.502828 65.540605 
L 183.134258 63.891655 
L 184.765688 64.372599 
L 186.397117 65.059662 
L 188.028547 65.059662 
L 189.659977 66.36508 
L 191.291407 65.540605 
L 192.922837 66.571199 
L 194.554267 66.91473 
L 196.185697 65.746724 
L 197.817127 65.471899 
L 199.448556 63.342005 
L 201.079986 64.647424 
L 202.711416 63.204593 
L 204.342846 61.074699 
L 205.974276 62.448824 
L 207.605706 61.555643 
L 209.237136 62.242705 
L 210.868566 62.448824 
L 212.499995 62.792355 
L 214.131425 60.112812 
L 215.762855 59.906693 
L 217.394285 59.494455 
L 219.025715 59.563162 
L 220.657145 59.425749 
L 222.288575 58.395156 
L 223.920005 57.845506 
L 225.551434 58.257743 
L 227.182864 57.570681 
L 228.814294 57.364562 
L 230.445724 56.402674 
L 232.077154 56.402674 
L 233.708584 54.272781 
L 235.340014 54.204074 
L 236.971444 52.486418 
L 240.234303 50.906174 
L 243.497163 51.455824 
L 245.128593 52.074181 
L 246.760023 52.349006 
L 248.391453 51.661943 
L 250.022883 52.211593 
L 251.654312 52.555124 
L 253.285742 51.936768 
L 254.917172 51.043587 
L 256.548602 53.104774 
L 258.180032 53.585718 
L 259.811462 54.753724 
L 261.442892 53.929249 
L 263.074322 55.165962 
L 264.705751 53.791837 
L 266.337181 53.723131 
L 267.968611 54.478899 
L 269.600041 55.990437 
L 272.862901 55.990437 
L 274.494331 55.715612 
L 276.125761 56.059143 
L 277.75719 55.784318 
L 279.38862 54.547606 
L 281.02005 54.547606 
L 282.65148 53.448306 
L 284.28291 53.585718 
L 285.91434 54.478899 
L 287.54577 55.509493 
L 289.1772 56.333968 
L 290.80863 55.578199 
L 292.440059 53.997956 
L 295.702919 53.310893 
L 297.334349 52.555124 
L 298.965779 52.074181 
L 300.597209 53.448306 
L 302.228639 54.066662 
L 303.860069 54.478899 
L 305.491498 53.036068 
L 307.122928 53.448306 
L 310.385788 51.936768 
L 312.017218 53.104774 
L 313.648648 52.623831 
L 315.280078 52.555124 
L 316.911508 53.448306 
L 318.542937 56.608793 
L 320.174367 55.646906 
L 321.805797 56.471381 
L 325.068657 53.929249 
L 326.700087 54.410193 
L 328.331517 54.204074 
L 329.962947 53.860543 
L 331.594376 54.547606 
L 333.225806 55.715612 
L 334.857236 55.853024 
L 336.488666 56.333968 
L 338.120096 54.822431 
L 339.751526 54.272781 
L 341.382956 53.036068 
L 343.014386 52.555124 
L 344.645815 53.104774 
L 346.277245 52.142887 
L 349.540105 54.410193 
L 352.802965 52.692537 
L 354.434395 52.486418 
L 356.065825 52.692537 
L 357.697254 52.280299 
L 359.328684 50.219112 
L 360.960114 50.837468 
L 362.591544 50.287818 
L 364.222974 50.974881 
L 369.117264 49.325931 
L 370.748693 47.951806 
L 372.380123 45.6845 
L 374.011553 45.066143 
L 375.642983 45.478381 
L 377.274413 46.921212 
L 378.905843 51.318412 
L 380.537273 58.807393 
L 380.537273 58.807393 
" clip-path="url(#pa2f6c72fb0)" style="fill: none; stroke: #2ca02c; stroke-width: 1.5; stroke-linecap: square"/>
   </g>
   <g id="line2d_21">
    <path d="M 55.882727 261.216 
L 59.145587 260.66635 
L 60.777017 259.979288 
L 62.408447 259.086106 
L 64.039877 258.46775 
L 65.671307 257.093625 
L 67.302736 256.131738 
L 70.565596 253.246075 
L 72.197026 252.215481 
L 73.828456 250.77265 
L 77.091316 248.642757 
L 78.722746 246.306744 
L 80.354175 245.482269 
L 81.985605 243.695907 
L 85.248465 239.848357 
L 90.142755 234.489269 
L 91.774185 231.947138 
L 93.405614 229.748538 
L 95.037044 228.44312 
L 96.668474 227.412526 
L 98.299904 225.557457 
L 99.931334 224.59557 
L 101.562764 223.084032 
L 103.194194 220.679314 
L 104.825624 219.236482 
L 106.457053 216.763057 
L 108.088483 215.595051 
L 109.719913 213.739983 
L 112.982773 210.991733 
L 114.614203 207.00677 
L 116.245633 206.251001 
L 117.877063 205.35782 
L 119.508492 203.296633 
L 121.139922 202.197333 
L 122.771352 200.685795 
L 124.402782 200.204852 
L 126.034212 200.067439 
L 127.665642 198.693314 
L 130.928502 195.051883 
L 132.559931 194.708352 
L 134.191361 191.891396 
L 135.822791 189.898914 
L 137.454221 189.143146 
L 139.085651 188.593496 
L 142.348511 186.120071 
L 143.979941 184.471121 
L 145.61137 184.471121 
L 147.2428 185.570421 
L 148.87423 184.539827 
L 150.50566 181.997696 
L 152.13709 183.57794 
L 153.76852 182.616052 
L 155.39995 182.203815 
L 157.03138 181.37934 
L 158.66281 181.035808 
L 160.294239 178.63109 
L 161.925669 179.524271 
L 163.557099 178.012734 
L 165.188529 177.669202 
L 166.819959 177.188259 
L 168.451389 176.088959 
L 170.082819 176.363784 
L 171.714249 175.539309 
L 174.977108 174.508715 
L 176.608538 174.577421 
L 178.239968 172.791059 
L 179.871398 172.516234 
L 181.502828 172.378821 
L 183.134258 172.03529 
L 184.765688 171.966584 
L 186.397117 170.38634 
L 188.028547 171.623052 
L 189.659977 171.348227 
L 191.291407 172.03529 
L 192.922837 172.378821 
L 194.554267 171.210815 
L 196.185697 171.554346 
L 197.817127 170.729871 
L 199.448556 170.798577 
L 201.079986 168.531271 
L 202.711416 169.493159 
L 204.342846 169.767984 
L 205.974276 167.706796 
L 207.605706 168.325153 
L 209.237136 167.569384 
L 210.868566 167.912915 
L 212.499995 166.813615 
L 214.131425 167.981621 
L 215.762855 166.882321 
L 217.394285 167.500678 
L 219.025715 166.882321 
L 222.288575 167.500678 
L 223.920005 167.08844 
L 225.551434 167.500678 
L 227.182864 168.393859 
L 228.814294 168.462565 
L 230.445724 167.225853 
L 232.077154 165.302078 
L 233.708584 165.508196 
L 235.340014 164.134071 
L 236.971444 164.408896 
L 238.602873 164.546309 
L 240.234303 165.43949 
L 241.865733 165.302078 
L 243.497163 164.821134 
L 245.128593 163.447009 
L 246.760023 161.729353 
L 248.391453 161.523234 
L 250.022883 160.423934 
L 251.654312 160.355228 
L 253.285742 160.561346 
L 254.917172 161.385821 
L 256.548602 161.248409 
L 258.180032 158.637572 
L 259.811462 157.400859 
L 261.442892 158.706278 
L 263.074322 158.774984 
L 264.705751 159.530753 
L 267.968611 157.813097 
L 269.600041 157.675684 
L 271.231471 156.988622 
L 272.862901 159.462047 
L 274.494331 159.668165 
L 276.125761 160.698759 
L 279.38862 162.004178 
L 281.02005 160.904878 
L 282.65148 161.248409 
L 284.28291 160.630053 
L 285.91434 160.904878 
L 287.54577 160.698759 
L 289.1772 159.94299 
L 290.80863 158.156628 
L 292.440059 159.805578 
L 294.071489 159.39334 
L 295.702919 159.255928 
L 297.334349 159.736872 
L 298.965779 160.630053 
L 300.597209 159.187222 
L 302.228639 159.462047 
L 303.860069 158.981103 
L 305.491498 158.774984 
L 307.122928 158.981103 
L 308.754358 157.881803 
L 310.385788 157.813097 
L 312.017218 157.263447 
L 313.648648 157.74439 
L 316.911508 155.614497 
L 318.542937 153.553309 
L 320.174367 154.102959 
L 321.805797 153.759428 
L 323.437227 153.003659 
L 325.068657 154.927434 
L 326.700087 154.44649 
L 328.331517 155.133553 
L 329.962947 156.164147 
L 331.594376 156.919915 
L 333.225806 156.370265 
L 334.857236 157.469565 
L 336.488666 158.362747 
L 338.120096 159.874284 
L 339.751526 158.912397 
L 341.382956 159.255928 
L 343.014386 158.225334 
L 344.645815 158.706278 
L 346.277245 159.94299 
L 347.908675 160.217815 
L 349.540105 160.217815 
L 351.171535 160.973584 
L 352.802965 160.217815 
L 354.434395 159.805578 
L 356.065825 160.423934 
L 357.697254 162.14159 
L 359.328684 162.279003 
L 360.960114 162.14159 
L 362.591544 163.653128 
L 364.222974 163.584421 
L 365.854404 162.759946 
L 367.485834 162.966065 
L 369.117264 164.065365 
L 370.748693 163.859246 
L 372.380123 164.065365 
L 374.011553 163.103478 
L 375.642983 161.317115 
L 377.274413 160.355228 
L 378.905843 159.255928 
L 380.537273 158.568865 
L 380.537273 158.568865 
" clip-path="url(#pa2f6c72fb0)" style="fill: none; stroke: #d62728; stroke-width: 1.5; stroke-linecap: square"/>
   </g>
   <g id="patch_3">
    <path d="M 39.65 273.312 
L 39.65 7.2 
" style="fill: none; stroke: #000000; stroke-width: 0.8; stroke-linejoin: miter; stroke-linecap: square"/>
   </g>
   <g id="patch_4">
    <path d="M 396.77 273.312 
L 396.77 7.2 
" style="fill: none; stroke: #000000; stroke-width: 0.8; stroke-linejoin: miter; stroke-linecap: square"/>
   </g>
   <g id="patch_5">
    <path d="M 39.65 273.312 
L 396.77 273.312 
" style="fill: none; stroke: #000000; stroke-width: 0.8; stroke-linejoin: miter; stroke-linecap: square"/>
   </g>
   <g id="patch_6">
    <path d="M 39.65 7.2 
L 396.77 7.2 
" style="fill: none; stroke: #000000; stroke-width: 0.8; stroke-linejoin: miter; stroke-linecap: square"/>
   </g>
  </g>
 </g>
 <defs>
  <clipPath id="pa2f6c72fb0">
   <rect x="39.65" y="7.2" width="357.12" height="266.112"/>
  </clipPath>
 </defs>
</svg>
