<?xml version="1.0" encoding="utf-8" standalone="no"?>
<!DOCTYPE svg PUBLIC "-//W3C//DTD SVG 1.1//EN"
  "http://www.w3.org/Graphics/SVG/1.1/DTD/svg11.dtd">
<svg xmlns:xlink="http://www.w3.org/1999/xlink" width="331.2pt" height="428.3875pt" viewBox="0 0 331.2 428.3875" xmlns="http://www.w3.org/2000/svg" version="1.1">
 <metadata>
  <rdf:RDF xmlns:dc="http://purl.org/dc/elements/1.1/" xmlns:cc="http://creativecommons.org/ns#" xmlns:rdf="http://www.w3.org/1999/02/22-rdf-syntax-ns#">
   <cc:Work>
    <dc:type rdf:resource="http://purl.org/dc/dcmitype/StillImage"/>
    <dc:date>2025-07-07T21:49:04.043798</dc:date>
    <dc:format>image/svg+xml</dc:format>
    <dc:creator>
     <cc:Agent>
      <dc:title>Matplotlib v3.10.3, https://matplotlib.org/</dc:title>
     </cc:Agent>
    </dc:creator>
   </cc:Work>
  </rdf:RDF>
 </metadata>
 <defs>
  <style type="text/css">*{stroke-linejoin: round; stroke-linecap: butt}</style>
 </defs>
 <g id="figure_1">
  <g id="patch_1">
   <path d="M 0 428.3875 
L 331.2 428.3875 
L 331.2 -0 
L 0 -0 
z
" style="fill: #ffffff"/>
  </g>
  <g id="axes_1">
   <g id="legend_1">
    <g id="patch_2">
     <path d="M 41.886719 18.798437 
L 61.886719 18.798437 
L 61.886719 11.798437 
L 41.886719 11.798437 
z
" style="fill: #18bb9b"/>
    </g>
    <g id="text_1">
     <!-- Completed treatment (active) -->
     <g transform="translate(69.886719 18.798437) scale(0.1 -0.1)">
      <defs>
       <path id="DejaVuSans-43" d="M 4122 4306 
L 4122 3641 
Q 3803 3938 3442 4084 
Q 3081 4231 2675 4231 
Q 1875 4231 1450 3742 
Q 1025 3253 1025 2328 
Q 1025 1406 1450 917 
Q 1875 428 2675 428 
Q 3081 428 3442 575 
Q 3803 722 4122 1019 
L 4122 359 
Q 3791 134 3420 21 
Q 3050 -91 2638 -91 
Q 1578 -91 968 557 
Q 359 1206 359 2328 
Q 359 3453 968 4101 
Q 1578 4750 2638 4750 
Q 3056 4750 3426 4639 
Q 3797 4528 4122 4306 
z
" transform="scale(0.015625)"/>
       <path id="DejaVuSans-6f" d="M 1959 3097 
Q 1497 3097 1228 2736 
Q 959 2375 959 1747 
Q 959 1119 1226 758 
Q 1494 397 1959 397 
Q 2419 397 2687 759 
Q 2956 1122 2956 1747 
Q 2956 2369 2687 2733 
Q 2419 3097 1959 3097 
z
M 1959 3584 
Q 2709 3584 3137 3096 
Q 3566 2609 3566 1747 
Q 3566 888 3137 398 
Q 2709 -91 1959 -91 
Q 1206 -91 779 398 
Q 353 888 353 1747 
Q 353 2609 779 3096 
Q 1206 3584 1959 3584 
z
" transform="scale(0.015625)"/>
       <path id="DejaVuSans-6d" d="M 3328 2828 
Q 3544 3216 3844 3400 
Q 4144 3584 4550 3584 
Q 5097 3584 5394 3201 
Q 5691 2819 5691 2113 
L 5691 0 
L 5113 0 
L 5113 2094 
Q 5113 2597 4934 2840 
Q 4756 3084 4391 3084 
Q 3944 3084 3684 2787 
Q 3425 2491 3425 1978 
L 3425 0 
L 2847 0 
L 2847 2094 
Q 2847 2600 2669 2842 
Q 2491 3084 2119 3084 
Q 1678 3084 1418 2786 
Q 1159 2488 1159 1978 
L 1159 0 
L 581 0 
L 581 3500 
L 1159 3500 
L 1159 2956 
Q 1356 3278 1631 3431 
Q 1906 3584 2284 3584 
Q 2666 3584 2933 3390 
Q 3200 3197 3328 2828 
z
" transform="scale(0.015625)"/>
       <path id="DejaVuSans-70" d="M 1159 525 
L 1159 -1331 
L 581 -1331 
L 581 3500 
L 1159 3500 
L 1159 2969 
Q 1341 3281 1617 3432 
Q 1894 3584 2278 3584 
Q 2916 3584 3314 3078 
Q 3713 2572 3713 1747 
Q 3713 922 3314 415 
Q 2916 -91 2278 -91 
Q 1894 -91 1617 61 
Q 1341 213 1159 525 
z
M 3116 1747 
Q 3116 2381 2855 2742 
Q 2594 3103 2138 3103 
Q 1681 3103 1420 2742 
Q 1159 2381 1159 1747 
Q 1159 1113 1420 752 
Q 1681 391 2138 391 
Q 2594 391 2855 752 
Q 3116 1113 3116 1747 
z
" transform="scale(0.015625)"/>
       <path id="DejaVuSans-6c" d="M 603 4863 
L 1178 4863 
L 1178 0 
L 603 0 
L 603 4863 
z
" transform="scale(0.015625)"/>
       <path id="DejaVuSans-65" d="M 3597 1894 
L 3597 1613 
L 953 1613 
Q 991 1019 1311 708 
Q 1631 397 2203 397 
Q 2534 397 2845 478 
Q 3156 559 3463 722 
L 3463 178 
Q 3153 47 2828 -22 
Q 2503 -91 2169 -91 
Q 1331 -91 842 396 
Q 353 884 353 1716 
Q 353 2575 817 3079 
Q 1281 3584 2069 3584 
Q 2775 3584 3186 3129 
Q 3597 2675 3597 1894 
z
M 3022 2063 
Q 3016 2534 2758 2815 
Q 2500 3097 2075 3097 
Q 1594 3097 1305 2825 
Q 1016 2553 972 2059 
L 3022 2063 
z
" transform="scale(0.015625)"/>
       <path id="DejaVuSans-74" d="M 1172 4494 
L 1172 3500 
L 2356 3500 
L 2356 3053 
L 1172 3053 
L 1172 1153 
Q 1172 725 1289 603 
Q 1406 481 1766 481 
L 2356 481 
L 2356 0 
L 1766 0 
Q 1100 0 847 248 
Q 594 497 594 1153 
L 594 3053 
L 172 3053 
L 172 3500 
L 594 3500 
L 594 4494 
L 1172 4494 
z
" transform="scale(0.015625)"/>
       <path id="DejaVuSans-64" d="M 2906 2969 
L 2906 4863 
L 3481 4863 
L 3481 0 
L 2906 0 
L 2906 525 
Q 2725 213 2448 61 
Q 2172 -91 1784 -91 
Q 1150 -91 751 415 
Q 353 922 353 1747 
Q 353 2572 751 3078 
Q 1150 3584 1784 3584 
Q 2172 3584 2448 3432 
Q 2725 3281 2906 2969 
z
M 947 1747 
Q 947 1113 1208 752 
Q 1469 391 1925 391 
Q 2381 391 2643 752 
Q 2906 1113 2906 1747 
Q 2906 2381 2643 2742 
Q 2381 3103 1925 3103 
Q 1469 3103 1208 2742 
Q 947 2381 947 1747 
z
" transform="scale(0.015625)"/>
       <path id="DejaVuSans-20" transform="scale(0.015625)"/>
       <path id="DejaVuSans-72" d="M 2631 2963 
Q 2534 3019 2420 3045 
Q 2306 3072 2169 3072 
Q 1681 3072 1420 2755 
Q 1159 2438 1159 1844 
L 1159 0 
L 581 0 
L 581 3500 
L 1159 3500 
L 1159 2956 
Q 1341 3275 1631 3429 
Q 1922 3584 2338 3584 
Q 2397 3584 2469 3576 
Q 2541 3569 2628 3553 
L 2631 2963 
z
" transform="scale(0.015625)"/>
       <path id="DejaVuSans-61" d="M 2194 1759 
Q 1497 1759 1228 1600 
Q 959 1441 959 1056 
Q 959 750 1161 570 
Q 1363 391 1709 391 
Q 2188 391 2477 730 
Q 2766 1069 2766 1631 
L 2766 1759 
L 2194 1759 
z
M 3341 1997 
L 3341 0 
L 2766 0 
L 2766 531 
Q 2569 213 2275 61 
Q 1981 -91 1556 -91 
Q 1019 -91 701 211 
Q 384 513 384 1019 
Q 384 1609 779 1909 
Q 1175 2209 1959 2209 
L 2766 2209 
L 2766 2266 
Q 2766 2663 2505 2880 
Q 2244 3097 1772 3097 
Q 1472 3097 1187 3025 
Q 903 2953 641 2809 
L 641 3341 
Q 956 3463 1253 3523 
Q 1550 3584 1831 3584 
Q 2591 3584 2966 3190 
Q 3341 2797 3341 1997 
z
" transform="scale(0.015625)"/>
       <path id="DejaVuSans-6e" d="M 3513 2113 
L 3513 0 
L 2938 0 
L 2938 2094 
Q 2938 2591 2744 2837 
Q 2550 3084 2163 3084 
Q 1697 3084 1428 2787 
Q 1159 2491 1159 1978 
L 1159 0 
L 581 0 
L 581 3500 
L 1159 3500 
L 1159 2956 
Q 1366 3272 1645 3428 
Q 1925 3584 2291 3584 
Q 2894 3584 3203 3211 
Q 3513 2838 3513 2113 
z
" transform="scale(0.015625)"/>
       <path id="DejaVuSans-28" d="M 1984 4856 
Q 1566 4138 1362 3434 
Q 1159 2731 1159 2009 
Q 1159 1288 1364 580 
Q 1569 -128 1984 -844 
L 1484 -844 
Q 1016 -109 783 600 
Q 550 1309 550 2009 
Q 550 2706 781 3412 
Q 1013 4119 1484 4856 
L 1984 4856 
z
" transform="scale(0.015625)"/>
       <path id="DejaVuSans-63" d="M 3122 3366 
L 3122 2828 
Q 2878 2963 2633 3030 
Q 2388 3097 2138 3097 
Q 1578 3097 1268 2742 
Q 959 2388 959 1747 
Q 959 1106 1268 751 
Q 1578 397 2138 397 
Q 2388 397 2633 464 
Q 2878 531 3122 666 
L 3122 134 
Q 2881 22 2623 -34 
Q 2366 -91 2075 -91 
Q 1284 -91 818 406 
Q 353 903 353 1747 
Q 353 2603 823 3093 
Q 1294 3584 2113 3584 
Q 2378 3584 2631 3529 
Q 2884 3475 3122 3366 
z
" transform="scale(0.015625)"/>
       <path id="DejaVuSans-69" d="M 603 3500 
L 1178 3500 
L 1178 0 
L 603 0 
L 603 3500 
z
M 603 4863 
L 1178 4863 
L 1178 4134 
L 603 4134 
L 603 4863 
z
" transform="scale(0.015625)"/>
       <path id="DejaVuSans-76" d="M 191 3500 
L 800 3500 
L 1894 563 
L 2988 3500 
L 3597 3500 
L 2284 0 
L 1503 0 
L 191 3500 
z
" transform="scale(0.015625)"/>
       <path id="DejaVuSans-29" d="M 513 4856 
L 1013 4856 
Q 1481 4119 1714 3412 
Q 1947 2706 1947 2009 
Q 1947 1309 1714 600 
Q 1481 -109 1013 -844 
L 513 -844 
Q 928 -128 1133 580 
Q 1338 1288 1338 2009 
Q 1338 2731 1133 3434 
Q 928 4138 513 4856 
z
" transform="scale(0.015625)"/>
      </defs>
      <use xlink:href="#DejaVuSans-43"/>
      <use xlink:href="#DejaVuSans-6f" transform="translate(69.824219 0)"/>
      <use xlink:href="#DejaVuSans-6d" transform="translate(131.005859 0)"/>
      <use xlink:href="#DejaVuSans-70" transform="translate(228.417969 0)"/>
      <use xlink:href="#DejaVuSans-6c" transform="translate(291.894531 0)"/>
      <use xlink:href="#DejaVuSans-65" transform="translate(319.677734 0)"/>
      <use xlink:href="#DejaVuSans-74" transform="translate(381.201172 0)"/>
      <use xlink:href="#DejaVuSans-65" transform="translate(420.410156 0)"/>
      <use xlink:href="#DejaVuSans-64" transform="translate(481.933594 0)"/>
      <use xlink:href="#DejaVuSans-20" transform="translate(545.410156 0)"/>
      <use xlink:href="#DejaVuSans-74" transform="translate(577.197266 0)"/>
      <use xlink:href="#DejaVuSans-72" transform="translate(616.40625 0)"/>
      <use xlink:href="#DejaVuSans-65" transform="translate(655.269531 0)"/>
      <use xlink:href="#DejaVuSans-61" transform="translate(716.792969 0)"/>
      <use xlink:href="#DejaVuSans-74" transform="translate(778.072266 0)"/>
      <use xlink:href="#DejaVuSans-6d" transform="translate(817.28125 0)"/>
      <use xlink:href="#DejaVuSans-65" transform="translate(914.693359 0)"/>
      <use xlink:href="#DejaVuSans-6e" transform="translate(976.216797 0)"/>
      <use xlink:href="#DejaVuSans-74" transform="translate(1039.595703 0)"/>
      <use xlink:href="#DejaVuSans-20" transform="translate(1078.804688 0)"/>
      <use xlink:href="#DejaVuSans-28" transform="translate(1110.591797 0)"/>
      <use xlink:href="#DejaVuSans-61" transform="translate(1149.605469 0)"/>
      <use xlink:href="#DejaVuSans-63" transform="translate(1210.884766 0)"/>
      <use xlink:href="#DejaVuSans-74" transform="translate(1265.865234 0)"/>
      <use xlink:href="#DejaVuSans-69" transform="translate(1305.074219 0)"/>
      <use xlink:href="#DejaVuSans-76" transform="translate(1332.857422 0)"/>
      <use xlink:href="#DejaVuSans-65" transform="translate(1392.037109 0)"/>
      <use xlink:href="#DejaVuSans-29" transform="translate(1453.560547 0)"/>
     </g>
    </g>
    <g id="patch_3">
     <path d="M 41.886719 33.476562 
L 61.886719 33.476562 
L 61.886719 26.476562 
L 41.886719 26.476562 
z
" style="fill: #23187a"/>
    </g>
    <g id="text_2">
     <!-- SN-XDR on treatment -->
     <g transform="translate(69.886719 33.476562) scale(0.1 -0.1)">
      <defs>
       <path id="DejaVuSans-53" d="M 3425 4513 
L 3425 3897 
Q 3066 4069 2747 4153 
Q 2428 4238 2131 4238 
Q 1616 4238 1336 4038 
Q 1056 3838 1056 3469 
Q 1056 3159 1242 3001 
Q 1428 2844 1947 2747 
L 2328 2669 
Q 3034 2534 3370 2195 
Q 3706 1856 3706 1288 
Q 3706 609 3251 259 
Q 2797 -91 1919 -91 
Q 1588 -91 1214 -16 
Q 841 59 441 206 
L 441 856 
Q 825 641 1194 531 
Q 1563 422 1919 422 
Q 2459 422 2753 634 
Q 3047 847 3047 1241 
Q 3047 1584 2836 1778 
Q 2625 1972 2144 2069 
L 1759 2144 
Q 1053 2284 737 2584 
Q 422 2884 422 3419 
Q 422 4038 858 4394 
Q 1294 4750 2059 4750 
Q 2388 4750 2728 4690 
Q 3069 4631 3425 4513 
z
" transform="scale(0.015625)"/>
       <path id="DejaVuSans-4e" d="M 628 4666 
L 1478 4666 
L 3547 763 
L 3547 4666 
L 4159 4666 
L 4159 0 
L 3309 0 
L 1241 3903 
L 1241 0 
L 628 0 
L 628 4666 
z
" transform="scale(0.015625)"/>
       <path id="DejaVuSans-2d" d="M 313 2009 
L 1997 2009 
L 1997 1497 
L 313 1497 
L 313 2009 
z
" transform="scale(0.015625)"/>
       <path id="DejaVuSans-58" d="M 403 4666 
L 1081 4666 
L 2241 2931 
L 3406 4666 
L 4084 4666 
L 2584 2425 
L 4184 0 
L 3506 0 
L 2194 1984 
L 872 0 
L 191 0 
L 1856 2491 
L 403 4666 
z
" transform="scale(0.015625)"/>
       <path id="DejaVuSans-44" d="M 1259 4147 
L 1259 519 
L 2022 519 
Q 2988 519 3436 956 
Q 3884 1394 3884 2338 
Q 3884 3275 3436 3711 
Q 2988 4147 2022 4147 
L 1259 4147 
z
M 628 4666 
L 1925 4666 
Q 3281 4666 3915 4102 
Q 4550 3538 4550 2338 
Q 4550 1131 3912 565 
Q 3275 0 1925 0 
L 628 0 
L 628 4666 
z
" transform="scale(0.015625)"/>
       <path id="DejaVuSans-52" d="M 2841 2188 
Q 3044 2119 3236 1894 
Q 3428 1669 3622 1275 
L 4263 0 
L 3584 0 
L 2988 1197 
Q 2756 1666 2539 1819 
Q 2322 1972 1947 1972 
L 1259 1972 
L 1259 0 
L 628 0 
L 628 4666 
L 2053 4666 
Q 2853 4666 3247 4331 
Q 3641 3997 3641 3322 
Q 3641 2881 3436 2590 
Q 3231 2300 2841 2188 
z
M 1259 4147 
L 1259 2491 
L 2053 2491 
Q 2509 2491 2742 2702 
Q 2975 2913 2975 3322 
Q 2975 3731 2742 3939 
Q 2509 4147 2053 4147 
L 1259 4147 
z
" transform="scale(0.015625)"/>
      </defs>
      <use xlink:href="#DejaVuSans-53"/>
      <use xlink:href="#DejaVuSans-4e" transform="translate(63.476562 0)"/>
      <use xlink:href="#DejaVuSans-2d" transform="translate(138.28125 0)"/>
      <use xlink:href="#DejaVuSans-58" transform="translate(169.365234 0)"/>
      <use xlink:href="#DejaVuSans-44" transform="translate(237.871094 0)"/>
      <use xlink:href="#DejaVuSans-52" transform="translate(314.873047 0)"/>
      <use xlink:href="#DejaVuSans-20" transform="translate(384.355469 0)"/>
      <use xlink:href="#DejaVuSans-6f" transform="translate(416.142578 0)"/>
      <use xlink:href="#DejaVuSans-6e" transform="translate(477.324219 0)"/>
      <use xlink:href="#DejaVuSans-20" transform="translate(540.703125 0)"/>
      <use xlink:href="#DejaVuSans-74" transform="translate(572.490234 0)"/>
      <use xlink:href="#DejaVuSans-72" transform="translate(611.699219 0)"/>
      <use xlink:href="#DejaVuSans-65" transform="translate(650.5625 0)"/>
      <use xlink:href="#DejaVuSans-61" transform="translate(712.085938 0)"/>
      <use xlink:href="#DejaVuSans-74" transform="translate(773.365234 0)"/>
      <use xlink:href="#DejaVuSans-6d" transform="translate(812.574219 0)"/>
      <use xlink:href="#DejaVuSans-65" transform="translate(909.986328 0)"/>
      <use xlink:href="#DejaVuSans-6e" transform="translate(971.509766 0)"/>
      <use xlink:href="#DejaVuSans-74" transform="translate(1034.888672 0)"/>
     </g>
    </g>
    <g id="patch_4">
     <path d="M 41.886719 48.154687 
L 61.886719 48.154687 
L 61.886719 41.154687 
L 41.886719 41.154687 
z
" style="fill: #a664e7"/>
    </g>
    <g id="text_3">
     <!-- SN-XDR diagnosed but not on treatment -->
     <g transform="translate(69.886719 48.154687) scale(0.1 -0.1)">
      <defs>
       <path id="DejaVuSans-67" d="M 2906 1791 
Q 2906 2416 2648 2759 
Q 2391 3103 1925 3103 
Q 1463 3103 1205 2759 
Q 947 2416 947 1791 
Q 947 1169 1205 825 
Q 1463 481 1925 481 
Q 2391 481 2648 825 
Q 2906 1169 2906 1791 
z
M 3481 434 
Q 3481 -459 3084 -895 
Q 2688 -1331 1869 -1331 
Q 1566 -1331 1297 -1286 
Q 1028 -1241 775 -1147 
L 775 -588 
Q 1028 -725 1275 -790 
Q 1522 -856 1778 -856 
Q 2344 -856 2625 -561 
Q 2906 -266 2906 331 
L 2906 616 
Q 2728 306 2450 153 
Q 2172 0 1784 0 
Q 1141 0 747 490 
Q 353 981 353 1791 
Q 353 2603 747 3093 
Q 1141 3584 1784 3584 
Q 2172 3584 2450 3431 
Q 2728 3278 2906 2969 
L 2906 3500 
L 3481 3500 
L 3481 434 
z
" transform="scale(0.015625)"/>
       <path id="DejaVuSans-73" d="M 2834 3397 
L 2834 2853 
Q 2591 2978 2328 3040 
Q 2066 3103 1784 3103 
Q 1356 3103 1142 2972 
Q 928 2841 928 2578 
Q 928 2378 1081 2264 
Q 1234 2150 1697 2047 
L 1894 2003 
Q 2506 1872 2764 1633 
Q 3022 1394 3022 966 
Q 3022 478 2636 193 
Q 2250 -91 1575 -91 
Q 1294 -91 989 -36 
Q 684 19 347 128 
L 347 722 
Q 666 556 975 473 
Q 1284 391 1588 391 
Q 1994 391 2212 530 
Q 2431 669 2431 922 
Q 2431 1156 2273 1281 
Q 2116 1406 1581 1522 
L 1381 1569 
Q 847 1681 609 1914 
Q 372 2147 372 2553 
Q 372 3047 722 3315 
Q 1072 3584 1716 3584 
Q 2034 3584 2315 3537 
Q 2597 3491 2834 3397 
z
" transform="scale(0.015625)"/>
       <path id="DejaVuSans-62" d="M 3116 1747 
Q 3116 2381 2855 2742 
Q 2594 3103 2138 3103 
Q 1681 3103 1420 2742 
Q 1159 2381 1159 1747 
Q 1159 1113 1420 752 
Q 1681 391 2138 391 
Q 2594 391 2855 752 
Q 3116 1113 3116 1747 
z
M 1159 2969 
Q 1341 3281 1617 3432 
Q 1894 3584 2278 3584 
Q 2916 3584 3314 3078 
Q 3713 2572 3713 1747 
Q 3713 922 3314 415 
Q 2916 -91 2278 -91 
Q 1894 -91 1617 61 
Q 1341 213 1159 525 
L 1159 0 
L 581 0 
L 581 4863 
L 1159 4863 
L 1159 2969 
z
" transform="scale(0.015625)"/>
       <path id="DejaVuSans-75" d="M 544 1381 
L 544 3500 
L 1119 3500 
L 1119 1403 
Q 1119 906 1312 657 
Q 1506 409 1894 409 
Q 2359 409 2629 706 
Q 2900 1003 2900 1516 
L 2900 3500 
L 3475 3500 
L 3475 0 
L 2900 0 
L 2900 538 
Q 2691 219 2414 64 
Q 2138 -91 1772 -91 
Q 1169 -91 856 284 
Q 544 659 544 1381 
z
M 1991 3584 
L 1991 3584 
z
" transform="scale(0.015625)"/>
      </defs>
      <use xlink:href="#DejaVuSans-53"/>
      <use xlink:href="#DejaVuSans-4e" transform="translate(63.476562 0)"/>
      <use xlink:href="#DejaVuSans-2d" transform="translate(138.28125 0)"/>
      <use xlink:href="#DejaVuSans-58" transform="translate(169.365234 0)"/>
      <use xlink:href="#DejaVuSans-44" transform="translate(237.871094 0)"/>
      <use xlink:href="#DejaVuSans-52" transform="translate(314.873047 0)"/>
      <use xlink:href="#DejaVuSans-20" transform="translate(384.355469 0)"/>
      <use xlink:href="#DejaVuSans-64" transform="translate(416.142578 0)"/>
      <use xlink:href="#DejaVuSans-69" transform="translate(479.619141 0)"/>
      <use xlink:href="#DejaVuSans-61" transform="translate(507.402344 0)"/>
      <use xlink:href="#DejaVuSans-67" transform="translate(568.681641 0)"/>
      <use xlink:href="#DejaVuSans-6e" transform="translate(632.158203 0)"/>
      <use xlink:href="#DejaVuSans-6f" transform="translate(695.537109 0)"/>
      <use xlink:href="#DejaVuSans-73" transform="translate(756.71875 0)"/>
      <use xlink:href="#DejaVuSans-65" transform="translate(808.818359 0)"/>
      <use xlink:href="#DejaVuSans-64" transform="translate(870.341797 0)"/>
      <use xlink:href="#DejaVuSans-20" transform="translate(933.818359 0)"/>
      <use xlink:href="#DejaVuSans-62" transform="translate(965.605469 0)"/>
      <use xlink:href="#DejaVuSans-75" transform="translate(1029.082031 0)"/>
      <use xlink:href="#DejaVuSans-74" transform="translate(1092.460938 0)"/>
      <use xlink:href="#DejaVuSans-20" transform="translate(1131.669922 0)"/>
      <use xlink:href="#DejaVuSans-6e" transform="translate(1163.457031 0)"/>
      <use xlink:href="#DejaVuSans-6f" transform="translate(1226.835938 0)"/>
      <use xlink:href="#DejaVuSans-74" transform="translate(1288.017578 0)"/>
      <use xlink:href="#DejaVuSans-20" transform="translate(1327.226562 0)"/>
      <use xlink:href="#DejaVuSans-6f" transform="translate(1359.013672 0)"/>
      <use xlink:href="#DejaVuSans-6e" transform="translate(1420.195312 0)"/>
      <use xlink:href="#DejaVuSans-20" transform="translate(1483.574219 0)"/>
      <use xlink:href="#DejaVuSans-74" transform="translate(1515.361328 0)"/>
      <use xlink:href="#DejaVuSans-72" transform="translate(1554.570312 0)"/>
      <use xlink:href="#DejaVuSans-65" transform="translate(1593.433594 0)"/>
      <use xlink:href="#DejaVuSans-61" transform="translate(1654.957031 0)"/>
      <use xlink:href="#DejaVuSans-74" transform="translate(1716.236328 0)"/>
      <use xlink:href="#DejaVuSans-6d" transform="translate(1755.445312 0)"/>
      <use xlink:href="#DejaVuSans-65" transform="translate(1852.857422 0)"/>
      <use xlink:href="#DejaVuSans-6e" transform="translate(1914.380859 0)"/>
      <use xlink:href="#DejaVuSans-74" transform="translate(1977.759766 0)"/>
     </g>
    </g>
    <g id="patch_5">
     <path d="M 41.886719 62.832812 
L 61.886719 62.832812 
L 61.886719 55.832812 
L 41.886719 55.832812 
z
" style="fill: #4f90e7"/>
    </g>
    <g id="text_4">
     <!-- SN-XDR undiagnosed -->
     <g transform="translate(69.886719 62.832812) scale(0.1 -0.1)">
      <use xlink:href="#DejaVuSans-53"/>
      <use xlink:href="#DejaVuSans-4e" transform="translate(63.476562 0)"/>
      <use xlink:href="#DejaVuSans-2d" transform="translate(138.28125 0)"/>
      <use xlink:href="#DejaVuSans-58" transform="translate(169.365234 0)"/>
      <use xlink:href="#DejaVuSans-44" transform="translate(237.871094 0)"/>
      <use xlink:href="#DejaVuSans-52" transform="translate(314.873047 0)"/>
      <use xlink:href="#DejaVuSans-20" transform="translate(384.355469 0)"/>
      <use xlink:href="#DejaVuSans-75" transform="translate(416.142578 0)"/>
      <use xlink:href="#DejaVuSans-6e" transform="translate(479.521484 0)"/>
      <use xlink:href="#DejaVuSans-64" transform="translate(542.900391 0)"/>
      <use xlink:href="#DejaVuSans-69" transform="translate(606.376953 0)"/>
      <use xlink:href="#DejaVuSans-61" transform="translate(634.160156 0)"/>
      <use xlink:href="#DejaVuSans-67" transform="translate(695.439453 0)"/>
      <use xlink:href="#DejaVuSans-6e" transform="translate(758.916016 0)"/>
      <use xlink:href="#DejaVuSans-6f" transform="translate(822.294922 0)"/>
      <use xlink:href="#DejaVuSans-73" transform="translate(883.476562 0)"/>
      <use xlink:href="#DejaVuSans-65" transform="translate(935.576172 0)"/>
      <use xlink:href="#DejaVuSans-64" transform="translate(997.099609 0)"/>
     </g>
    </g>
    <g id="patch_6">
     <path d="M 41.886719 77.510938 
L 61.886719 77.510938 
L 61.886719 70.510938 
L 41.886719 70.510938 
z
" style="fill: #3918e7"/>
    </g>
    <g id="text_5">
     <!-- SN-MDR on treatment -->
     <g transform="translate(69.886719 77.510938) scale(0.1 -0.1)">
      <defs>
       <path id="DejaVuSans-4d" d="M 628 4666 
L 1569 4666 
L 2759 1491 
L 3956 4666 
L 4897 4666 
L 4897 0 
L 4281 0 
L 4281 4097 
L 3078 897 
L 2444 897 
L 1241 4097 
L 1241 0 
L 628 0 
L 628 4666 
z
" transform="scale(0.015625)"/>
      </defs>
      <use xlink:href="#DejaVuSans-53"/>
      <use xlink:href="#DejaVuSans-4e" transform="translate(63.476562 0)"/>
      <use xlink:href="#DejaVuSans-2d" transform="translate(138.28125 0)"/>
      <use xlink:href="#DejaVuSans-4d" transform="translate(174.365234 0)"/>
      <use xlink:href="#DejaVuSans-44" transform="translate(260.644531 0)"/>
      <use xlink:href="#DejaVuSans-52" transform="translate(337.646484 0)"/>
      <use xlink:href="#DejaVuSans-20" transform="translate(407.128906 0)"/>
      <use xlink:href="#DejaVuSans-6f" transform="translate(438.916016 0)"/>
      <use xlink:href="#DejaVuSans-6e" transform="translate(500.097656 0)"/>
      <use xlink:href="#DejaVuSans-20" transform="translate(563.476562 0)"/>
      <use xlink:href="#DejaVuSans-74" transform="translate(595.263672 0)"/>
      <use xlink:href="#DejaVuSans-72" transform="translate(634.472656 0)"/>
      <use xlink:href="#DejaVuSans-65" transform="translate(673.335938 0)"/>
      <use xlink:href="#DejaVuSans-61" transform="translate(734.859375 0)"/>
      <use xlink:href="#DejaVuSans-74" transform="translate(796.138672 0)"/>
      <use xlink:href="#DejaVuSans-6d" transform="translate(835.347656 0)"/>
      <use xlink:href="#DejaVuSans-65" transform="translate(932.759766 0)"/>
      <use xlink:href="#DejaVuSans-6e" transform="translate(994.283203 0)"/>
      <use xlink:href="#DejaVuSans-74" transform="translate(1057.662109 0)"/>
     </g>
    </g>
    <g id="patch_7">
     <path d="M 41.886719 92.189062 
L 61.886719 92.189062 
L 61.886719 85.189062 
L 41.886719 85.189062 
z
" style="fill: #18e718"/>
    </g>
    <g id="text_6">
     <!-- SN-MDR diagnosed but not on treatment -->
     <g transform="translate(69.886719 92.189062) scale(0.1 -0.1)">
      <use xlink:href="#DejaVuSans-53"/>
      <use xlink:href="#DejaVuSans-4e" transform="translate(63.476562 0)"/>
      <use xlink:href="#DejaVuSans-2d" transform="translate(138.28125 0)"/>
      <use xlink:href="#DejaVuSans-4d" transform="translate(174.365234 0)"/>
      <use xlink:href="#DejaVuSans-44" transform="translate(260.644531 0)"/>
      <use xlink:href="#DejaVuSans-52" transform="translate(337.646484 0)"/>
      <use xlink:href="#DejaVuSans-20" transform="translate(407.128906 0)"/>
      <use xlink:href="#DejaVuSans-64" transform="translate(438.916016 0)"/>
      <use xlink:href="#DejaVuSans-69" transform="translate(502.392578 0)"/>
      <use xlink:href="#DejaVuSans-61" transform="translate(530.175781 0)"/>
      <use xlink:href="#DejaVuSans-67" transform="translate(591.455078 0)"/>
      <use xlink:href="#DejaVuSans-6e" transform="translate(654.931641 0)"/>
      <use xlink:href="#DejaVuSans-6f" transform="translate(718.310547 0)"/>
      <use xlink:href="#DejaVuSans-73" transform="translate(779.492188 0)"/>
      <use xlink:href="#DejaVuSans-65" transform="translate(831.591797 0)"/>
      <use xlink:href="#DejaVuSans-64" transform="translate(893.115234 0)"/>
      <use xlink:href="#DejaVuSans-20" transform="translate(956.591797 0)"/>
      <use xlink:href="#DejaVuSans-62" transform="translate(988.378906 0)"/>
      <use xlink:href="#DejaVuSans-75" transform="translate(1051.855469 0)"/>
      <use xlink:href="#DejaVuSans-74" transform="translate(1115.234375 0)"/>
      <use xlink:href="#DejaVuSans-20" transform="translate(1154.443359 0)"/>
      <use xlink:href="#DejaVuSans-6e" transform="translate(1186.230469 0)"/>
      <use xlink:href="#DejaVuSans-6f" transform="translate(1249.609375 0)"/>
      <use xlink:href="#DejaVuSans-74" transform="translate(1310.791016 0)"/>
      <use xlink:href="#DejaVuSans-20" transform="translate(1350 0)"/>
      <use xlink:href="#DejaVuSans-6f" transform="translate(1381.787109 0)"/>
      <use xlink:href="#DejaVuSans-6e" transform="translate(1442.96875 0)"/>
      <use xlink:href="#DejaVuSans-20" transform="translate(1506.347656 0)"/>
      <use xlink:href="#DejaVuSans-74" transform="translate(1538.134766 0)"/>
      <use xlink:href="#DejaVuSans-72" transform="translate(1577.34375 0)"/>
      <use xlink:href="#DejaVuSans-65" transform="translate(1616.207031 0)"/>
      <use xlink:href="#DejaVuSans-61" transform="translate(1677.730469 0)"/>
      <use xlink:href="#DejaVuSans-74" transform="translate(1739.009766 0)"/>
      <use xlink:href="#DejaVuSans-6d" transform="translate(1778.21875 0)"/>
      <use xlink:href="#DejaVuSans-65" transform="translate(1875.630859 0)"/>
      <use xlink:href="#DejaVuSans-6e" transform="translate(1937.154297 0)"/>
      <use xlink:href="#DejaVuSans-74" transform="translate(2000.533203 0)"/>
     </g>
    </g>
    <g id="patch_8">
     <path d="M 41.886719 106.867188 
L 61.886719 106.867188 
L 61.886719 99.867188 
L 41.886719 99.867188 
z
" style="fill: #59e77a"/>
    </g>
    <g id="text_7">
     <!-- SN-MDR undiagnosed -->
     <g transform="translate(69.886719 106.867188) scale(0.1 -0.1)">
      <use xlink:href="#DejaVuSans-53"/>
      <use xlink:href="#DejaVuSans-4e" transform="translate(63.476562 0)"/>
      <use xlink:href="#DejaVuSans-2d" transform="translate(138.28125 0)"/>
      <use xlink:href="#DejaVuSans-4d" transform="translate(174.365234 0)"/>
      <use xlink:href="#DejaVuSans-44" transform="translate(260.644531 0)"/>
      <use xlink:href="#DejaVuSans-52" transform="translate(337.646484 0)"/>
      <use xlink:href="#DejaVuSans-20" transform="translate(407.128906 0)"/>
      <use xlink:href="#DejaVuSans-75" transform="translate(438.916016 0)"/>
      <use xlink:href="#DejaVuSans-6e" transform="translate(502.294922 0)"/>
      <use xlink:href="#DejaVuSans-64" transform="translate(565.673828 0)"/>
      <use xlink:href="#DejaVuSans-69" transform="translate(629.150391 0)"/>
      <use xlink:href="#DejaVuSans-61" transform="translate(656.933594 0)"/>
      <use xlink:href="#DejaVuSans-67" transform="translate(718.212891 0)"/>
      <use xlink:href="#DejaVuSans-6e" transform="translate(781.689453 0)"/>
      <use xlink:href="#DejaVuSans-6f" transform="translate(845.068359 0)"/>
      <use xlink:href="#DejaVuSans-73" transform="translate(906.25 0)"/>
      <use xlink:href="#DejaVuSans-65" transform="translate(958.349609 0)"/>
      <use xlink:href="#DejaVuSans-64" transform="translate(1019.873047 0)"/>
     </g>
    </g>
    <g id="patch_9">
     <path d="M 41.886719 121.545312 
L 61.886719 121.545312 
L 61.886719 114.545312 
L 41.886719 114.545312 
z
" style="fill: #dc18e7"/>
    </g>
    <g id="text_8">
     <!-- SN-DS on treatment -->
     <g transform="translate(69.886719 121.545312) scale(0.1 -0.1)">
      <use xlink:href="#DejaVuSans-53"/>
      <use xlink:href="#DejaVuSans-4e" transform="translate(63.476562 0)"/>
      <use xlink:href="#DejaVuSans-2d" transform="translate(138.28125 0)"/>
      <use xlink:href="#DejaVuSans-44" transform="translate(174.365234 0)"/>
      <use xlink:href="#DejaVuSans-53" transform="translate(251.367188 0)"/>
      <use xlink:href="#DejaVuSans-20" transform="translate(314.84375 0)"/>
      <use xlink:href="#DejaVuSans-6f" transform="translate(346.630859 0)"/>
      <use xlink:href="#DejaVuSans-6e" transform="translate(407.8125 0)"/>
      <use xlink:href="#DejaVuSans-20" transform="translate(471.191406 0)"/>
      <use xlink:href="#DejaVuSans-74" transform="translate(502.978516 0)"/>
      <use xlink:href="#DejaVuSans-72" transform="translate(542.1875 0)"/>
      <use xlink:href="#DejaVuSans-65" transform="translate(581.050781 0)"/>
      <use xlink:href="#DejaVuSans-61" transform="translate(642.574219 0)"/>
      <use xlink:href="#DejaVuSans-74" transform="translate(703.853516 0)"/>
      <use xlink:href="#DejaVuSans-6d" transform="translate(743.0625 0)"/>
      <use xlink:href="#DejaVuSans-65" transform="translate(840.474609 0)"/>
      <use xlink:href="#DejaVuSans-6e" transform="translate(901.998047 0)"/>
      <use xlink:href="#DejaVuSans-74" transform="translate(965.376953 0)"/>
     </g>
    </g>
    <g id="patch_10">
     <path d="M 41.886719 136.223437 
L 61.886719 136.223437 
L 61.886719 129.223437 
L 41.886719 129.223437 
z
" style="fill: #18e7e7"/>
    </g>
    <g id="text_9">
     <!-- SN-DS diagnosed but not on treatment -->
     <g transform="translate(69.886719 136.223437) scale(0.1 -0.1)">
      <use xlink:href="#DejaVuSans-53"/>
      <use xlink:href="#DejaVuSans-4e" transform="translate(63.476562 0)"/>
      <use xlink:href="#DejaVuSans-2d" transform="translate(138.28125 0)"/>
      <use xlink:href="#DejaVuSans-44" transform="translate(174.365234 0)"/>
      <use xlink:href="#DejaVuSans-53" transform="translate(251.367188 0)"/>
      <use xlink:href="#DejaVuSans-20" transform="translate(314.84375 0)"/>
      <use xlink:href="#DejaVuSans-64" transform="translate(346.630859 0)"/>
      <use xlink:href="#DejaVuSans-69" transform="translate(410.107422 0)"/>
      <use xlink:href="#DejaVuSans-61" transform="translate(437.890625 0)"/>
      <use xlink:href="#DejaVuSans-67" transform="translate(499.169922 0)"/>
      <use xlink:href="#DejaVuSans-6e" transform="translate(562.646484 0)"/>
      <use xlink:href="#DejaVuSans-6f" transform="translate(626.025391 0)"/>
      <use xlink:href="#DejaVuSans-73" transform="translate(687.207031 0)"/>
      <use xlink:href="#DejaVuSans-65" transform="translate(739.306641 0)"/>
      <use xlink:href="#DejaVuSans-64" transform="translate(800.830078 0)"/>
      <use xlink:href="#DejaVuSans-20" transform="translate(864.306641 0)"/>
      <use xlink:href="#DejaVuSans-62" transform="translate(896.09375 0)"/>
      <use xlink:href="#DejaVuSans-75" transform="translate(959.570312 0)"/>
      <use xlink:href="#DejaVuSans-74" transform="translate(1022.949219 0)"/>
      <use xlink:href="#DejaVuSans-20" transform="translate(1062.158203 0)"/>
      <use xlink:href="#DejaVuSans-6e" transform="translate(1093.945312 0)"/>
      <use xlink:href="#DejaVuSans-6f" transform="translate(1157.324219 0)"/>
      <use xlink:href="#DejaVuSans-74" transform="translate(1218.505859 0)"/>
      <use xlink:href="#DejaVuSans-20" transform="translate(1257.714844 0)"/>
      <use xlink:href="#DejaVuSans-6f" transform="translate(1289.501953 0)"/>
      <use xlink:href="#DejaVuSans-6e" transform="translate(1350.683594 0)"/>
      <use xlink:href="#DejaVuSans-20" transform="translate(1414.0625 0)"/>
      <use xlink:href="#DejaVuSans-74" transform="translate(1445.849609 0)"/>
      <use xlink:href="#DejaVuSans-72" transform="translate(1485.058594 0)"/>
      <use xlink:href="#DejaVuSans-65" transform="translate(1523.921875 0)"/>
      <use xlink:href="#DejaVuSans-61" transform="translate(1585.445312 0)"/>
      <use xlink:href="#DejaVuSans-74" transform="translate(1646.724609 0)"/>
      <use xlink:href="#DejaVuSans-6d" transform="translate(1685.933594 0)"/>
      <use xlink:href="#DejaVuSans-65" transform="translate(1783.345703 0)"/>
      <use xlink:href="#DejaVuSans-6e" transform="translate(1844.869141 0)"/>
      <use xlink:href="#DejaVuSans-74" transform="translate(1908.248047 0)"/>
     </g>
    </g>
    <g id="patch_11">
     <path d="M 41.886719 150.901562 
L 61.886719 150.901562 
L 61.886719 143.901562 
L 41.886719 143.901562 
z
" style="fill: #2e3923"/>
    </g>
    <g id="text_10">
     <!-- SN-DS undiagnosed -->
     <g transform="translate(69.886719 150.901562) scale(0.1 -0.1)">
      <use xlink:href="#DejaVuSans-53"/>
      <use xlink:href="#DejaVuSans-4e" transform="translate(63.476562 0)"/>
      <use xlink:href="#DejaVuSans-2d" transform="translate(138.28125 0)"/>
      <use xlink:href="#DejaVuSans-44" transform="translate(174.365234 0)"/>
      <use xlink:href="#DejaVuSans-53" transform="translate(251.367188 0)"/>
      <use xlink:href="#DejaVuSans-20" transform="translate(314.84375 0)"/>
      <use xlink:href="#DejaVuSans-75" transform="translate(346.630859 0)"/>
      <use xlink:href="#DejaVuSans-6e" transform="translate(410.009766 0)"/>
      <use xlink:href="#DejaVuSans-64" transform="translate(473.388672 0)"/>
      <use xlink:href="#DejaVuSans-69" transform="translate(536.865234 0)"/>
      <use xlink:href="#DejaVuSans-61" transform="translate(564.648438 0)"/>
      <use xlink:href="#DejaVuSans-67" transform="translate(625.927734 0)"/>
      <use xlink:href="#DejaVuSans-6e" transform="translate(689.404297 0)"/>
      <use xlink:href="#DejaVuSans-6f" transform="translate(752.783203 0)"/>
      <use xlink:href="#DejaVuSans-73" transform="translate(813.964844 0)"/>
      <use xlink:href="#DejaVuSans-65" transform="translate(866.064453 0)"/>
      <use xlink:href="#DejaVuSans-64" transform="translate(927.587891 0)"/>
     </g>
    </g>
    <g id="patch_12">
     <path d="M 41.886719 165.579687 
L 61.886719 165.579687 
L 61.886719 158.579687 
L 41.886719 158.579687 
z
" style="fill: #e75923"/>
    </g>
    <g id="text_11">
     <!-- SP-XDR on treatment -->
     <g transform="translate(69.886719 165.579687) scale(0.1 -0.1)">
      <defs>
       <path id="DejaVuSans-50" d="M 1259 4147 
L 1259 2394 
L 2053 2394 
Q 2494 2394 2734 2622 
Q 2975 2850 2975 3272 
Q 2975 3691 2734 3919 
Q 2494 4147 2053 4147 
L 1259 4147 
z
M 628 4666 
L 2053 4666 
Q 2838 4666 3239 4311 
Q 3641 3956 3641 3272 
Q 3641 2581 3239 2228 
Q 2838 1875 2053 1875 
L 1259 1875 
L 1259 0 
L 628 0 
L 628 4666 
z
" transform="scale(0.015625)"/>
      </defs>
      <use xlink:href="#DejaVuSans-53"/>
      <use xlink:href="#DejaVuSans-50" transform="translate(63.476562 0)"/>
      <use xlink:href="#DejaVuSans-2d" transform="translate(121.529297 0)"/>
      <use xlink:href="#DejaVuSans-58" transform="translate(152.613281 0)"/>
      <use xlink:href="#DejaVuSans-44" transform="translate(221.119141 0)"/>
      <use xlink:href="#DejaVuSans-52" transform="translate(298.121094 0)"/>
      <use xlink:href="#DejaVuSans-20" transform="translate(367.603516 0)"/>
      <use xlink:href="#DejaVuSans-6f" transform="translate(399.390625 0)"/>
      <use xlink:href="#DejaVuSans-6e" transform="translate(460.572266 0)"/>
      <use xlink:href="#DejaVuSans-20" transform="translate(523.951172 0)"/>
      <use xlink:href="#DejaVuSans-74" transform="translate(555.738281 0)"/>
      <use xlink:href="#DejaVuSans-72" transform="translate(594.947266 0)"/>
      <use xlink:href="#DejaVuSans-65" transform="translate(633.810547 0)"/>
      <use xlink:href="#DejaVuSans-61" transform="translate(695.333984 0)"/>
      <use xlink:href="#DejaVuSans-74" transform="translate(756.613281 0)"/>
      <use xlink:href="#DejaVuSans-6d" transform="translate(795.822266 0)"/>
      <use xlink:href="#DejaVuSans-65" transform="translate(893.234375 0)"/>
      <use xlink:href="#DejaVuSans-6e" transform="translate(954.757812 0)"/>
      <use xlink:href="#DejaVuSans-74" transform="translate(1018.136719 0)"/>
     </g>
    </g>
    <g id="patch_13">
     <path d="M 41.886719 180.257812 
L 61.886719 180.257812 
L 61.886719 173.257812 
L 41.886719 173.257812 
z
" style="fill: #644423"/>
    </g>
    <g id="text_12">
     <!-- SP-XDR diagnosed but not on treatment -->
     <g transform="translate(69.886719 180.257812) scale(0.1 -0.1)">
      <use xlink:href="#DejaVuSans-53"/>
      <use xlink:href="#DejaVuSans-50" transform="translate(63.476562 0)"/>
      <use xlink:href="#DejaVuSans-2d" transform="translate(121.529297 0)"/>
      <use xlink:href="#DejaVuSans-58" transform="translate(152.613281 0)"/>
      <use xlink:href="#DejaVuSans-44" transform="translate(221.119141 0)"/>
      <use xlink:href="#DejaVuSans-52" transform="translate(298.121094 0)"/>
      <use xlink:href="#DejaVuSans-20" transform="translate(367.603516 0)"/>
      <use xlink:href="#DejaVuSans-64" transform="translate(399.390625 0)"/>
      <use xlink:href="#DejaVuSans-69" transform="translate(462.867188 0)"/>
      <use xlink:href="#DejaVuSans-61" transform="translate(490.650391 0)"/>
      <use xlink:href="#DejaVuSans-67" transform="translate(551.929688 0)"/>
      <use xlink:href="#DejaVuSans-6e" transform="translate(615.40625 0)"/>
      <use xlink:href="#DejaVuSans-6f" transform="translate(678.785156 0)"/>
      <use xlink:href="#DejaVuSans-73" transform="translate(739.966797 0)"/>
      <use xlink:href="#DejaVuSans-65" transform="translate(792.066406 0)"/>
      <use xlink:href="#DejaVuSans-64" transform="translate(853.589844 0)"/>
      <use xlink:href="#DejaVuSans-20" transform="translate(917.066406 0)"/>
      <use xlink:href="#DejaVuSans-62" transform="translate(948.853516 0)"/>
      <use xlink:href="#DejaVuSans-75" transform="translate(1012.330078 0)"/>
      <use xlink:href="#DejaVuSans-74" transform="translate(1075.708984 0)"/>
      <use xlink:href="#DejaVuSans-20" transform="translate(1114.917969 0)"/>
      <use xlink:href="#DejaVuSans-6e" transform="translate(1146.705078 0)"/>
      <use xlink:href="#DejaVuSans-6f" transform="translate(1210.083984 0)"/>
      <use xlink:href="#DejaVuSans-74" transform="translate(1271.265625 0)"/>
      <use xlink:href="#DejaVuSans-20" transform="translate(1310.474609 0)"/>
      <use xlink:href="#DejaVuSans-6f" transform="translate(1342.261719 0)"/>
      <use xlink:href="#DejaVuSans-6e" transform="translate(1403.443359 0)"/>
      <use xlink:href="#DejaVuSans-20" transform="translate(1466.822266 0)"/>
      <use xlink:href="#DejaVuSans-74" transform="translate(1498.609375 0)"/>
      <use xlink:href="#DejaVuSans-72" transform="translate(1537.818359 0)"/>
      <use xlink:href="#DejaVuSans-65" transform="translate(1576.681641 0)"/>
      <use xlink:href="#DejaVuSans-61" transform="translate(1638.205078 0)"/>
      <use xlink:href="#DejaVuSans-74" transform="translate(1699.484375 0)"/>
      <use xlink:href="#DejaVuSans-6d" transform="translate(1738.693359 0)"/>
      <use xlink:href="#DejaVuSans-65" transform="translate(1836.105469 0)"/>
      <use xlink:href="#DejaVuSans-6e" transform="translate(1897.628906 0)"/>
      <use xlink:href="#DejaVuSans-74" transform="translate(1961.007812 0)"/>
     </g>
    </g>
    <g id="patch_14">
     <path d="M 41.886719 194.935937 
L 61.886719 194.935937 
L 61.886719 187.935937 
L 41.886719 187.935937 
z
" style="fill: #90bb18"/>
    </g>
    <g id="text_13">
     <!-- SP-XDR undiagnosed -->
     <g transform="translate(69.886719 194.935937) scale(0.1 -0.1)">
      <use xlink:href="#DejaVuSans-53"/>
      <use xlink:href="#DejaVuSans-50" transform="translate(63.476562 0)"/>
      <use xlink:href="#DejaVuSans-2d" transform="translate(121.529297 0)"/>
      <use xlink:href="#DejaVuSans-58" transform="translate(152.613281 0)"/>
      <use xlink:href="#DejaVuSans-44" transform="translate(221.119141 0)"/>
      <use xlink:href="#DejaVuSans-52" transform="translate(298.121094 0)"/>
      <use xlink:href="#DejaVuSans-20" transform="translate(367.603516 0)"/>
      <use xlink:href="#DejaVuSans-75" transform="translate(399.390625 0)"/>
      <use xlink:href="#DejaVuSans-6e" transform="translate(462.769531 0)"/>
      <use xlink:href="#DejaVuSans-64" transform="translate(526.148438 0)"/>
      <use xlink:href="#DejaVuSans-69" transform="translate(589.625 0)"/>
      <use xlink:href="#DejaVuSans-61" transform="translate(617.408203 0)"/>
      <use xlink:href="#DejaVuSans-67" transform="translate(678.6875 0)"/>
      <use xlink:href="#DejaVuSans-6e" transform="translate(742.164062 0)"/>
      <use xlink:href="#DejaVuSans-6f" transform="translate(805.542969 0)"/>
      <use xlink:href="#DejaVuSans-73" transform="translate(866.724609 0)"/>
      <use xlink:href="#DejaVuSans-65" transform="translate(918.824219 0)"/>
      <use xlink:href="#DejaVuSans-64" transform="translate(980.347656 0)"/>
     </g>
    </g>
    <g id="patch_15">
     <path d="M 41.886719 209.614062 
L 61.886719 209.614062 
L 61.886719 202.614062 
L 41.886719 202.614062 
z
" style="fill: #852e18"/>
    </g>
    <g id="text_14">
     <!-- SP-MDR on treatment -->
     <g transform="translate(69.886719 209.614062) scale(0.1 -0.1)">
      <use xlink:href="#DejaVuSans-53"/>
      <use xlink:href="#DejaVuSans-50" transform="translate(63.476562 0)"/>
      <use xlink:href="#DejaVuSans-2d" transform="translate(121.529297 0)"/>
      <use xlink:href="#DejaVuSans-4d" transform="translate(157.613281 0)"/>
      <use xlink:href="#DejaVuSans-44" transform="translate(243.892578 0)"/>
      <use xlink:href="#DejaVuSans-52" transform="translate(320.894531 0)"/>
      <use xlink:href="#DejaVuSans-20" transform="translate(390.376953 0)"/>
      <use xlink:href="#DejaVuSans-6f" transform="translate(422.164062 0)"/>
      <use xlink:href="#DejaVuSans-6e" transform="translate(483.345703 0)"/>
      <use xlink:href="#DejaVuSans-20" transform="translate(546.724609 0)"/>
      <use xlink:href="#DejaVuSans-74" transform="translate(578.511719 0)"/>
      <use xlink:href="#DejaVuSans-72" transform="translate(617.720703 0)"/>
      <use xlink:href="#DejaVuSans-65" transform="translate(656.583984 0)"/>
      <use xlink:href="#DejaVuSans-61" transform="translate(718.107422 0)"/>
      <use xlink:href="#DejaVuSans-74" transform="translate(779.386719 0)"/>
      <use xlink:href="#DejaVuSans-6d" transform="translate(818.595703 0)"/>
      <use xlink:href="#DejaVuSans-65" transform="translate(916.007812 0)"/>
      <use xlink:href="#DejaVuSans-6e" transform="translate(977.53125 0)"/>
      <use xlink:href="#DejaVuSans-74" transform="translate(1040.910156 0)"/>
     </g>
    </g>
    <g id="patch_16">
     <path d="M 41.886719 224.292187 
L 61.886719 224.292187 
L 61.886719 217.292187 
L 41.886719 217.292187 
z
" style="fill: #dcd118"/>
    </g>
    <g id="text_15">
     <!-- SP-MDR diagnosed but not on treatment -->
     <g transform="translate(69.886719 224.292187) scale(0.1 -0.1)">
      <use xlink:href="#DejaVuSans-53"/>
      <use xlink:href="#DejaVuSans-50" transform="translate(63.476562 0)"/>
      <use xlink:href="#DejaVuSans-2d" transform="translate(121.529297 0)"/>
      <use xlink:href="#DejaVuSans-4d" transform="translate(157.613281 0)"/>
      <use xlink:href="#DejaVuSans-44" transform="translate(243.892578 0)"/>
      <use xlink:href="#DejaVuSans-52" transform="translate(320.894531 0)"/>
      <use xlink:href="#DejaVuSans-20" transform="translate(390.376953 0)"/>
      <use xlink:href="#DejaVuSans-64" transform="translate(422.164062 0)"/>
      <use xlink:href="#DejaVuSans-69" transform="translate(485.640625 0)"/>
      <use xlink:href="#DejaVuSans-61" transform="translate(513.423828 0)"/>
      <use xlink:href="#DejaVuSans-67" transform="translate(574.703125 0)"/>
      <use xlink:href="#DejaVuSans-6e" transform="translate(638.179688 0)"/>
      <use xlink:href="#DejaVuSans-6f" transform="translate(701.558594 0)"/>
      <use xlink:href="#DejaVuSans-73" transform="translate(762.740234 0)"/>
      <use xlink:href="#DejaVuSans-65" transform="translate(814.839844 0)"/>
      <use xlink:href="#DejaVuSans-64" transform="translate(876.363281 0)"/>
      <use xlink:href="#DejaVuSans-20" transform="translate(939.839844 0)"/>
      <use xlink:href="#DejaVuSans-62" transform="translate(971.626953 0)"/>
      <use xlink:href="#DejaVuSans-75" transform="translate(1035.103516 0)"/>
      <use xlink:href="#DejaVuSans-74" transform="translate(1098.482422 0)"/>
      <use xlink:href="#DejaVuSans-20" transform="translate(1137.691406 0)"/>
      <use xlink:href="#DejaVuSans-6e" transform="translate(1169.478516 0)"/>
      <use xlink:href="#DejaVuSans-6f" transform="translate(1232.857422 0)"/>
      <use xlink:href="#DejaVuSans-74" transform="translate(1294.039062 0)"/>
      <use xlink:href="#DejaVuSans-20" transform="translate(1333.248047 0)"/>
      <use xlink:href="#DejaVuSans-6f" transform="translate(1365.035156 0)"/>
      <use xlink:href="#DejaVuSans-6e" transform="translate(1426.216797 0)"/>
      <use xlink:href="#DejaVuSans-20" transform="translate(1489.595703 0)"/>
      <use xlink:href="#DejaVuSans-74" transform="translate(1521.382812 0)"/>
      <use xlink:href="#DejaVuSans-72" transform="translate(1560.591797 0)"/>
      <use xlink:href="#DejaVuSans-65" transform="translate(1599.455078 0)"/>
      <use xlink:href="#DejaVuSans-61" transform="translate(1660.978516 0)"/>
      <use xlink:href="#DejaVuSans-74" transform="translate(1722.257812 0)"/>
      <use xlink:href="#DejaVuSans-6d" transform="translate(1761.466797 0)"/>
      <use xlink:href="#DejaVuSans-65" transform="translate(1858.878906 0)"/>
      <use xlink:href="#DejaVuSans-6e" transform="translate(1920.402344 0)"/>
      <use xlink:href="#DejaVuSans-74" transform="translate(1983.78125 0)"/>
     </g>
    </g>
    <g id="patch_17">
     <path d="M 41.886719 238.970312 
L 61.886719 238.970312 
L 61.886719 231.970312 
L 41.886719 231.970312 
z
" style="fill: #b0446f"/>
    </g>
    <g id="text_16">
     <!-- SP-MDR undiagnosed -->
     <g transform="translate(69.886719 238.970312) scale(0.1 -0.1)">
      <use xlink:href="#DejaVuSans-53"/>
      <use xlink:href="#DejaVuSans-50" transform="translate(63.476562 0)"/>
      <use xlink:href="#DejaVuSans-2d" transform="translate(121.529297 0)"/>
      <use xlink:href="#DejaVuSans-4d" transform="translate(157.613281 0)"/>
      <use xlink:href="#DejaVuSans-44" transform="translate(243.892578 0)"/>
      <use xlink:href="#DejaVuSans-52" transform="translate(320.894531 0)"/>
      <use xlink:href="#DejaVuSans-20" transform="translate(390.376953 0)"/>
      <use xlink:href="#DejaVuSans-75" transform="translate(422.164062 0)"/>
      <use xlink:href="#DejaVuSans-6e" transform="translate(485.542969 0)"/>
      <use xlink:href="#DejaVuSans-64" transform="translate(548.921875 0)"/>
      <use xlink:href="#DejaVuSans-69" transform="translate(612.398438 0)"/>
      <use xlink:href="#DejaVuSans-61" transform="translate(640.181641 0)"/>
      <use xlink:href="#DejaVuSans-67" transform="translate(701.460938 0)"/>
      <use xlink:href="#DejaVuSans-6e" transform="translate(764.9375 0)"/>
      <use xlink:href="#DejaVuSans-6f" transform="translate(828.316406 0)"/>
      <use xlink:href="#DejaVuSans-73" transform="translate(889.498047 0)"/>
      <use xlink:href="#DejaVuSans-65" transform="translate(941.597656 0)"/>
      <use xlink:href="#DejaVuSans-64" transform="translate(1003.121094 0)"/>
     </g>
    </g>
    <g id="patch_18">
     <path d="M 41.886719 253.648437 
L 61.886719 253.648437 
L 61.886719 246.648437 
L 41.886719 246.648437 
z
" style="fill: #e7a618"/>
    </g>
    <g id="text_17">
     <!-- SP-DS on treatment -->
     <g transform="translate(69.886719 253.648437) scale(0.1 -0.1)">
      <use xlink:href="#DejaVuSans-53"/>
      <use xlink:href="#DejaVuSans-50" transform="translate(63.476562 0)"/>
      <use xlink:href="#DejaVuSans-2d" transform="translate(121.529297 0)"/>
      <use xlink:href="#DejaVuSans-44" transform="translate(157.613281 0)"/>
      <use xlink:href="#DejaVuSans-53" transform="translate(234.615234 0)"/>
      <use xlink:href="#DejaVuSans-20" transform="translate(298.091797 0)"/>
      <use xlink:href="#DejaVuSans-6f" transform="translate(329.878906 0)"/>
      <use xlink:href="#DejaVuSans-6e" transform="translate(391.060547 0)"/>
      <use xlink:href="#DejaVuSans-20" transform="translate(454.439453 0)"/>
      <use xlink:href="#DejaVuSans-74" transform="translate(486.226562 0)"/>
      <use xlink:href="#DejaVuSans-72" transform="translate(525.435547 0)"/>
      <use xlink:href="#DejaVuSans-65" transform="translate(564.298828 0)"/>
      <use xlink:href="#DejaVuSans-61" transform="translate(625.822266 0)"/>
      <use xlink:href="#DejaVuSans-74" transform="translate(687.101562 0)"/>
      <use xlink:href="#DejaVuSans-6d" transform="translate(726.310547 0)"/>
      <use xlink:href="#DejaVuSans-65" transform="translate(823.722656 0)"/>
      <use xlink:href="#DejaVuSans-6e" transform="translate(885.246094 0)"/>
      <use xlink:href="#DejaVuSans-74" transform="translate(948.625 0)"/>
     </g>
    </g>
    <g id="patch_19">
     <path d="M 41.886719 268.326562 
L 61.886719 268.326562 
L 61.886719 261.326562 
L 41.886719 261.326562 
z
" style="fill: #644f9b"/>
    </g>
    <g id="text_18">
     <!-- SP-DS diagnosed but not on treatment -->
     <g transform="translate(69.886719 268.326562) scale(0.1 -0.1)">
      <use xlink:href="#DejaVuSans-53"/>
      <use xlink:href="#DejaVuSans-50" transform="translate(63.476562 0)"/>
      <use xlink:href="#DejaVuSans-2d" transform="translate(121.529297 0)"/>
      <use xlink:href="#DejaVuSans-44" transform="translate(157.613281 0)"/>
      <use xlink:href="#DejaVuSans-53" transform="translate(234.615234 0)"/>
      <use xlink:href="#DejaVuSans-20" transform="translate(298.091797 0)"/>
      <use xlink:href="#DejaVuSans-64" transform="translate(329.878906 0)"/>
      <use xlink:href="#DejaVuSans-69" transform="translate(393.355469 0)"/>
      <use xlink:href="#DejaVuSans-61" transform="translate(421.138672 0)"/>
      <use xlink:href="#DejaVuSans-67" transform="translate(482.417969 0)"/>
      <use xlink:href="#DejaVuSans-6e" transform="translate(545.894531 0)"/>
      <use xlink:href="#DejaVuSans-6f" transform="translate(609.273438 0)"/>
      <use xlink:href="#DejaVuSans-73" transform="translate(670.455078 0)"/>
      <use xlink:href="#DejaVuSans-65" transform="translate(722.554688 0)"/>
      <use xlink:href="#DejaVuSans-64" transform="translate(784.078125 0)"/>
      <use xlink:href="#DejaVuSans-20" transform="translate(847.554688 0)"/>
      <use xlink:href="#DejaVuSans-62" transform="translate(879.341797 0)"/>
      <use xlink:href="#DejaVuSans-75" transform="translate(942.818359 0)"/>
      <use xlink:href="#DejaVuSans-74" transform="translate(1006.197266 0)"/>
      <use xlink:href="#DejaVuSans-20" transform="translate(1045.40625 0)"/>
      <use xlink:href="#DejaVuSans-6e" transform="translate(1077.193359 0)"/>
      <use xlink:href="#DejaVuSans-6f" transform="translate(1140.572266 0)"/>
      <use xlink:href="#DejaVuSans-74" transform="translate(1201.753906 0)"/>
      <use xlink:href="#DejaVuSans-20" transform="translate(1240.962891 0)"/>
      <use xlink:href="#DejaVuSans-6f" transform="translate(1272.75 0)"/>
      <use xlink:href="#DejaVuSans-6e" transform="translate(1333.931641 0)"/>
      <use xlink:href="#DejaVuSans-20" transform="translate(1397.310547 0)"/>
      <use xlink:href="#DejaVuSans-74" transform="translate(1429.097656 0)"/>
      <use xlink:href="#DejaVuSans-72" transform="translate(1468.306641 0)"/>
      <use xlink:href="#DejaVuSans-65" transform="translate(1507.169922 0)"/>
      <use xlink:href="#DejaVuSans-61" transform="translate(1568.693359 0)"/>
      <use xlink:href="#DejaVuSans-74" transform="translate(1629.972656 0)"/>
      <use xlink:href="#DejaVuSans-6d" transform="translate(1669.181641 0)"/>
      <use xlink:href="#DejaVuSans-65" transform="translate(1766.59375 0)"/>
      <use xlink:href="#DejaVuSans-6e" transform="translate(1828.117188 0)"/>
      <use xlink:href="#DejaVuSans-74" transform="translate(1891.496094 0)"/>
     </g>
    </g>
    <g id="patch_20">
     <path d="M 41.886719 283.004687 
L 61.886719 283.004687 
L 61.886719 276.004687 
L 41.886719 276.004687 
z
" style="fill: #e7907a"/>
    </g>
    <g id="text_19">
     <!-- SP-DS undiagnosed -->
     <g transform="translate(69.886719 283.004687) scale(0.1 -0.1)">
      <use xlink:href="#DejaVuSans-53"/>
      <use xlink:href="#DejaVuSans-50" transform="translate(63.476562 0)"/>
      <use xlink:href="#DejaVuSans-2d" transform="translate(121.529297 0)"/>
      <use xlink:href="#DejaVuSans-44" transform="translate(157.613281 0)"/>
      <use xlink:href="#DejaVuSans-53" transform="translate(234.615234 0)"/>
      <use xlink:href="#DejaVuSans-20" transform="translate(298.091797 0)"/>
      <use xlink:href="#DejaVuSans-75" transform="translate(329.878906 0)"/>
      <use xlink:href="#DejaVuSans-6e" transform="translate(393.257812 0)"/>
      <use xlink:href="#DejaVuSans-64" transform="translate(456.636719 0)"/>
      <use xlink:href="#DejaVuSans-69" transform="translate(520.113281 0)"/>
      <use xlink:href="#DejaVuSans-61" transform="translate(547.896484 0)"/>
      <use xlink:href="#DejaVuSans-67" transform="translate(609.175781 0)"/>
      <use xlink:href="#DejaVuSans-6e" transform="translate(672.652344 0)"/>
      <use xlink:href="#DejaVuSans-6f" transform="translate(736.03125 0)"/>
      <use xlink:href="#DejaVuSans-73" transform="translate(797.212891 0)"/>
      <use xlink:href="#DejaVuSans-65" transform="translate(849.3125 0)"/>
      <use xlink:href="#DejaVuSans-64" transform="translate(910.835938 0)"/>
     </g>
    </g>
    <g id="patch_21">
     <path d="M 41.886719 297.682812 
L 61.886719 297.682812 
L 61.886719 290.682812 
L 41.886719 290.682812 
z
" style="fill: #1864a6"/>
    </g>
    <g id="text_20">
     <!-- Late latent untreated (diagnosis restricted) -->
     <g transform="translate(69.886719 297.682812) scale(0.1 -0.1)">
      <defs>
       <path id="DejaVuSans-4c" d="M 628 4666 
L 1259 4666 
L 1259 531 
L 3531 531 
L 3531 0 
L 628 0 
L 628 4666 
z
" transform="scale(0.015625)"/>
      </defs>
      <use xlink:href="#DejaVuSans-4c"/>
      <use xlink:href="#DejaVuSans-61" transform="translate(55.712891 0)"/>
      <use xlink:href="#DejaVuSans-74" transform="translate(116.992188 0)"/>
      <use xlink:href="#DejaVuSans-65" transform="translate(156.201172 0)"/>
      <use xlink:href="#DejaVuSans-20" transform="translate(217.724609 0)"/>
      <use xlink:href="#DejaVuSans-6c" transform="translate(249.511719 0)"/>
      <use xlink:href="#DejaVuSans-61" transform="translate(277.294922 0)"/>
      <use xlink:href="#DejaVuSans-74" transform="translate(338.574219 0)"/>
      <use xlink:href="#DejaVuSans-65" transform="translate(377.783203 0)"/>
      <use xlink:href="#DejaVuSans-6e" transform="translate(439.306641 0)"/>
      <use xlink:href="#DejaVuSans-74" transform="translate(502.685547 0)"/>
      <use xlink:href="#DejaVuSans-20" transform="translate(541.894531 0)"/>
      <use xlink:href="#DejaVuSans-75" transform="translate(573.681641 0)"/>
      <use xlink:href="#DejaVuSans-6e" transform="translate(637.060547 0)"/>
      <use xlink:href="#DejaVuSans-74" transform="translate(700.439453 0)"/>
      <use xlink:href="#DejaVuSans-72" transform="translate(739.648438 0)"/>
      <use xlink:href="#DejaVuSans-65" transform="translate(778.511719 0)"/>
      <use xlink:href="#DejaVuSans-61" transform="translate(840.035156 0)"/>
      <use xlink:href="#DejaVuSans-74" transform="translate(901.314453 0)"/>
      <use xlink:href="#DejaVuSans-65" transform="translate(940.523438 0)"/>
      <use xlink:href="#DejaVuSans-64" transform="translate(1002.046875 0)"/>
      <use xlink:href="#DejaVuSans-20" transform="translate(1065.523438 0)"/>
      <use xlink:href="#DejaVuSans-28" transform="translate(1097.310547 0)"/>
      <use xlink:href="#DejaVuSans-64" transform="translate(1136.324219 0)"/>
      <use xlink:href="#DejaVuSans-69" transform="translate(1199.800781 0)"/>
      <use xlink:href="#DejaVuSans-61" transform="translate(1227.583984 0)"/>
      <use xlink:href="#DejaVuSans-67" transform="translate(1288.863281 0)"/>
      <use xlink:href="#DejaVuSans-6e" transform="translate(1352.339844 0)"/>
      <use xlink:href="#DejaVuSans-6f" transform="translate(1415.71875 0)"/>
      <use xlink:href="#DejaVuSans-73" transform="translate(1476.900391 0)"/>
      <use xlink:href="#DejaVuSans-69" transform="translate(1529 0)"/>
      <use xlink:href="#DejaVuSans-73" transform="translate(1556.783203 0)"/>
      <use xlink:href="#DejaVuSans-20" transform="translate(1608.882812 0)"/>
      <use xlink:href="#DejaVuSans-72" transform="translate(1640.669922 0)"/>
      <use xlink:href="#DejaVuSans-65" transform="translate(1679.533203 0)"/>
      <use xlink:href="#DejaVuSans-73" transform="translate(1741.056641 0)"/>
      <use xlink:href="#DejaVuSans-74" transform="translate(1793.15625 0)"/>
      <use xlink:href="#DejaVuSans-72" transform="translate(1832.365234 0)"/>
      <use xlink:href="#DejaVuSans-69" transform="translate(1873.478516 0)"/>
      <use xlink:href="#DejaVuSans-63" transform="translate(1901.261719 0)"/>
      <use xlink:href="#DejaVuSans-74" transform="translate(1956.242188 0)"/>
      <use xlink:href="#DejaVuSans-65" transform="translate(1995.451172 0)"/>
      <use xlink:href="#DejaVuSans-64" transform="translate(2056.974609 0)"/>
      <use xlink:href="#DejaVuSans-29" transform="translate(2120.451172 0)"/>
     </g>
    </g>
    <g id="patch_22">
     <path d="M 41.886719 312.360937 
L 61.886719 312.360937 
L 61.886719 305.360937 
L 41.886719 305.360937 
z
" style="fill: #e790b0"/>
    </g>
    <g id="text_21">
     <!-- Early latent untreated (diagnosis restricted) -->
     <g transform="translate(69.886719 312.360937) scale(0.1 -0.1)">
      <defs>
       <path id="DejaVuSans-45" d="M 628 4666 
L 3578 4666 
L 3578 4134 
L 1259 4134 
L 1259 2753 
L 3481 2753 
L 3481 2222 
L 1259 2222 
L 1259 531 
L 3634 531 
L 3634 0 
L 628 0 
L 628 4666 
z
" transform="scale(0.015625)"/>
       <path id="DejaVuSans-79" d="M 2059 -325 
Q 1816 -950 1584 -1140 
Q 1353 -1331 966 -1331 
L 506 -1331 
L 506 -850 
L 844 -850 
Q 1081 -850 1212 -737 
Q 1344 -625 1503 -206 
L 1606 56 
L 191 3500 
L 800 3500 
L 1894 763 
L 2988 3500 
L 3597 3500 
L 2059 -325 
z
" transform="scale(0.015625)"/>
      </defs>
      <use xlink:href="#DejaVuSans-45"/>
      <use xlink:href="#DejaVuSans-61" transform="translate(63.183594 0)"/>
      <use xlink:href="#DejaVuSans-72" transform="translate(124.462891 0)"/>
      <use xlink:href="#DejaVuSans-6c" transform="translate(165.576172 0)"/>
      <use xlink:href="#DejaVuSans-79" transform="translate(193.359375 0)"/>
      <use xlink:href="#DejaVuSans-20" transform="translate(252.539062 0)"/>
      <use xlink:href="#DejaVuSans-6c" transform="translate(284.326172 0)"/>
      <use xlink:href="#DejaVuSans-61" transform="translate(312.109375 0)"/>
      <use xlink:href="#DejaVuSans-74" transform="translate(373.388672 0)"/>
      <use xlink:href="#DejaVuSans-65" transform="translate(412.597656 0)"/>
      <use xlink:href="#DejaVuSans-6e" transform="translate(474.121094 0)"/>
      <use xlink:href="#DejaVuSans-74" transform="translate(537.5 0)"/>
      <use xlink:href="#DejaVuSans-20" transform="translate(576.708984 0)"/>
      <use xlink:href="#DejaVuSans-75" transform="translate(608.496094 0)"/>
      <use xlink:href="#DejaVuSans-6e" transform="translate(671.875 0)"/>
      <use xlink:href="#DejaVuSans-74" transform="translate(735.253906 0)"/>
      <use xlink:href="#DejaVuSans-72" transform="translate(774.462891 0)"/>
      <use xlink:href="#DejaVuSans-65" transform="translate(813.326172 0)"/>
      <use xlink:href="#DejaVuSans-61" transform="translate(874.849609 0)"/>
      <use xlink:href="#DejaVuSans-74" transform="translate(936.128906 0)"/>
      <use xlink:href="#DejaVuSans-65" transform="translate(975.337891 0)"/>
      <use xlink:href="#DejaVuSans-64" transform="translate(1036.861328 0)"/>
      <use xlink:href="#DejaVuSans-20" transform="translate(1100.337891 0)"/>
      <use xlink:href="#DejaVuSans-28" transform="translate(1132.125 0)"/>
      <use xlink:href="#DejaVuSans-64" transform="translate(1171.138672 0)"/>
      <use xlink:href="#DejaVuSans-69" transform="translate(1234.615234 0)"/>
      <use xlink:href="#DejaVuSans-61" transform="translate(1262.398438 0)"/>
      <use xlink:href="#DejaVuSans-67" transform="translate(1323.677734 0)"/>
      <use xlink:href="#DejaVuSans-6e" transform="translate(1387.154297 0)"/>
      <use xlink:href="#DejaVuSans-6f" transform="translate(1450.533203 0)"/>
      <use xlink:href="#DejaVuSans-73" transform="translate(1511.714844 0)"/>
      <use xlink:href="#DejaVuSans-69" transform="translate(1563.814453 0)"/>
      <use xlink:href="#DejaVuSans-73" transform="translate(1591.597656 0)"/>
      <use xlink:href="#DejaVuSans-20" transform="translate(1643.697266 0)"/>
      <use xlink:href="#DejaVuSans-72" transform="translate(1675.484375 0)"/>
      <use xlink:href="#DejaVuSans-65" transform="translate(1714.347656 0)"/>
      <use xlink:href="#DejaVuSans-73" transform="translate(1775.871094 0)"/>
      <use xlink:href="#DejaVuSans-74" transform="translate(1827.970703 0)"/>
      <use xlink:href="#DejaVuSans-72" transform="translate(1867.179688 0)"/>
      <use xlink:href="#DejaVuSans-69" transform="translate(1908.292969 0)"/>
      <use xlink:href="#DejaVuSans-63" transform="translate(1936.076172 0)"/>
      <use xlink:href="#DejaVuSans-74" transform="translate(1991.056641 0)"/>
      <use xlink:href="#DejaVuSans-65" transform="translate(2030.265625 0)"/>
      <use xlink:href="#DejaVuSans-64" transform="translate(2091.789062 0)"/>
      <use xlink:href="#DejaVuSans-29" transform="translate(2155.265625 0)"/>
     </g>
    </g>
    <g id="patch_23">
     <path d="M 41.886719 327.039062 
L 61.886719 327.039062 
L 61.886719 320.039062 
L 41.886719 320.039062 
z
" style="fill: #188559"/>
    </g>
    <g id="text_22">
     <!-- Susceptible (diagnosis restricted) -->
     <g transform="translate(69.886719 327.039062) scale(0.1 -0.1)">
      <use xlink:href="#DejaVuSans-53"/>
      <use xlink:href="#DejaVuSans-75" transform="translate(63.476562 0)"/>
      <use xlink:href="#DejaVuSans-73" transform="translate(126.855469 0)"/>
      <use xlink:href="#DejaVuSans-63" transform="translate(178.955078 0)"/>
      <use xlink:href="#DejaVuSans-65" transform="translate(233.935547 0)"/>
      <use xlink:href="#DejaVuSans-70" transform="translate(295.458984 0)"/>
      <use xlink:href="#DejaVuSans-74" transform="translate(358.935547 0)"/>
      <use xlink:href="#DejaVuSans-69" transform="translate(398.144531 0)"/>
      <use xlink:href="#DejaVuSans-62" transform="translate(425.927734 0)"/>
      <use xlink:href="#DejaVuSans-6c" transform="translate(489.404297 0)"/>
      <use xlink:href="#DejaVuSans-65" transform="translate(517.1875 0)"/>
      <use xlink:href="#DejaVuSans-20" transform="translate(578.710938 0)"/>
      <use xlink:href="#DejaVuSans-28" transform="translate(610.498047 0)"/>
      <use xlink:href="#DejaVuSans-64" transform="translate(649.511719 0)"/>
      <use xlink:href="#DejaVuSans-69" transform="translate(712.988281 0)"/>
      <use xlink:href="#DejaVuSans-61" transform="translate(740.771484 0)"/>
      <use xlink:href="#DejaVuSans-67" transform="translate(802.050781 0)"/>
      <use xlink:href="#DejaVuSans-6e" transform="translate(865.527344 0)"/>
      <use xlink:href="#DejaVuSans-6f" transform="translate(928.90625 0)"/>
      <use xlink:href="#DejaVuSans-73" transform="translate(990.087891 0)"/>
      <use xlink:href="#DejaVuSans-69" transform="translate(1042.1875 0)"/>
      <use xlink:href="#DejaVuSans-73" transform="translate(1069.970703 0)"/>
      <use xlink:href="#DejaVuSans-20" transform="translate(1122.070312 0)"/>
      <use xlink:href="#DejaVuSans-72" transform="translate(1153.857422 0)"/>
      <use xlink:href="#DejaVuSans-65" transform="translate(1192.720703 0)"/>
      <use xlink:href="#DejaVuSans-73" transform="translate(1254.244141 0)"/>
      <use xlink:href="#DejaVuSans-74" transform="translate(1306.34375 0)"/>
      <use xlink:href="#DejaVuSans-72" transform="translate(1345.552734 0)"/>
      <use xlink:href="#DejaVuSans-69" transform="translate(1386.666016 0)"/>
      <use xlink:href="#DejaVuSans-63" transform="translate(1414.449219 0)"/>
      <use xlink:href="#DejaVuSans-74" transform="translate(1469.429688 0)"/>
      <use xlink:href="#DejaVuSans-65" transform="translate(1508.638672 0)"/>
      <use xlink:href="#DejaVuSans-64" transform="translate(1570.162109 0)"/>
      <use xlink:href="#DejaVuSans-29" transform="translate(1633.638672 0)"/>
     </g>
    </g>
    <g id="patch_24">
     <path d="M 41.886719 341.717188 
L 61.886719 341.717188 
L 61.886719 334.717188 
L 41.886719 334.717188 
z
" style="fill: #c6b085"/>
    </g>
    <g id="text_23">
     <!-- Late latent on treatment -->
     <g transform="translate(69.886719 341.717188) scale(0.1 -0.1)">
      <use xlink:href="#DejaVuSans-4c"/>
      <use xlink:href="#DejaVuSans-61" transform="translate(55.712891 0)"/>
      <use xlink:href="#DejaVuSans-74" transform="translate(116.992188 0)"/>
      <use xlink:href="#DejaVuSans-65" transform="translate(156.201172 0)"/>
      <use xlink:href="#DejaVuSans-20" transform="translate(217.724609 0)"/>
      <use xlink:href="#DejaVuSans-6c" transform="translate(249.511719 0)"/>
      <use xlink:href="#DejaVuSans-61" transform="translate(277.294922 0)"/>
      <use xlink:href="#DejaVuSans-74" transform="translate(338.574219 0)"/>
      <use xlink:href="#DejaVuSans-65" transform="translate(377.783203 0)"/>
      <use xlink:href="#DejaVuSans-6e" transform="translate(439.306641 0)"/>
      <use xlink:href="#DejaVuSans-74" transform="translate(502.685547 0)"/>
      <use xlink:href="#DejaVuSans-20" transform="translate(541.894531 0)"/>
      <use xlink:href="#DejaVuSans-6f" transform="translate(573.681641 0)"/>
      <use xlink:href="#DejaVuSans-6e" transform="translate(634.863281 0)"/>
      <use xlink:href="#DejaVuSans-20" transform="translate(698.242188 0)"/>
      <use xlink:href="#DejaVuSans-74" transform="translate(730.029297 0)"/>
      <use xlink:href="#DejaVuSans-72" transform="translate(769.238281 0)"/>
      <use xlink:href="#DejaVuSans-65" transform="translate(808.101562 0)"/>
      <use xlink:href="#DejaVuSans-61" transform="translate(869.625 0)"/>
      <use xlink:href="#DejaVuSans-74" transform="translate(930.904297 0)"/>
      <use xlink:href="#DejaVuSans-6d" transform="translate(970.113281 0)"/>
      <use xlink:href="#DejaVuSans-65" transform="translate(1067.525391 0)"/>
      <use xlink:href="#DejaVuSans-6e" transform="translate(1129.048828 0)"/>
      <use xlink:href="#DejaVuSans-74" transform="translate(1192.427734 0)"/>
     </g>
    </g>
    <g id="patch_25">
     <path d="M 41.886719 356.395313 
L 61.886719 356.395313 
L 61.886719 349.395313 
L 41.886719 349.395313 
z
" style="fill: #bb182e"/>
    </g>
    <g id="text_24">
     <!-- Late latent untreated (diagnosable) -->
     <g transform="translate(69.886719 356.395313) scale(0.1 -0.1)">
      <use xlink:href="#DejaVuSans-4c"/>
      <use xlink:href="#DejaVuSans-61" transform="translate(55.712891 0)"/>
      <use xlink:href="#DejaVuSans-74" transform="translate(116.992188 0)"/>
      <use xlink:href="#DejaVuSans-65" transform="translate(156.201172 0)"/>
      <use xlink:href="#DejaVuSans-20" transform="translate(217.724609 0)"/>
      <use xlink:href="#DejaVuSans-6c" transform="translate(249.511719 0)"/>
      <use xlink:href="#DejaVuSans-61" transform="translate(277.294922 0)"/>
      <use xlink:href="#DejaVuSans-74" transform="translate(338.574219 0)"/>
      <use xlink:href="#DejaVuSans-65" transform="translate(377.783203 0)"/>
      <use xlink:href="#DejaVuSans-6e" transform="translate(439.306641 0)"/>
      <use xlink:href="#DejaVuSans-74" transform="translate(502.685547 0)"/>
      <use xlink:href="#DejaVuSans-20" transform="translate(541.894531 0)"/>
      <use xlink:href="#DejaVuSans-75" transform="translate(573.681641 0)"/>
      <use xlink:href="#DejaVuSans-6e" transform="translate(637.060547 0)"/>
      <use xlink:href="#DejaVuSans-74" transform="translate(700.439453 0)"/>
      <use xlink:href="#DejaVuSans-72" transform="translate(739.648438 0)"/>
      <use xlink:href="#DejaVuSans-65" transform="translate(778.511719 0)"/>
      <use xlink:href="#DejaVuSans-61" transform="translate(840.035156 0)"/>
      <use xlink:href="#DejaVuSans-74" transform="translate(901.314453 0)"/>
      <use xlink:href="#DejaVuSans-65" transform="translate(940.523438 0)"/>
      <use xlink:href="#DejaVuSans-64" transform="translate(1002.046875 0)"/>
      <use xlink:href="#DejaVuSans-20" transform="translate(1065.523438 0)"/>
      <use xlink:href="#DejaVuSans-28" transform="translate(1097.310547 0)"/>
      <use xlink:href="#DejaVuSans-64" transform="translate(1136.324219 0)"/>
      <use xlink:href="#DejaVuSans-69" transform="translate(1199.800781 0)"/>
      <use xlink:href="#DejaVuSans-61" transform="translate(1227.583984 0)"/>
      <use xlink:href="#DejaVuSans-67" transform="translate(1288.863281 0)"/>
      <use xlink:href="#DejaVuSans-6e" transform="translate(1352.339844 0)"/>
      <use xlink:href="#DejaVuSans-6f" transform="translate(1415.71875 0)"/>
      <use xlink:href="#DejaVuSans-73" transform="translate(1476.900391 0)"/>
      <use xlink:href="#DejaVuSans-61" transform="translate(1529 0)"/>
      <use xlink:href="#DejaVuSans-62" transform="translate(1590.279297 0)"/>
      <use xlink:href="#DejaVuSans-6c" transform="translate(1653.755859 0)"/>
      <use xlink:href="#DejaVuSans-65" transform="translate(1681.539062 0)"/>
      <use xlink:href="#DejaVuSans-29" transform="translate(1743.0625 0)"/>
     </g>
    </g>
    <g id="patch_26">
     <path d="M 41.886719 371.073438 
L 61.886719 371.073438 
L 61.886719 364.073438 
L 41.886719 364.073438 
z
" style="fill: #a6c6e7"/>
    </g>
    <g id="text_25">
     <!-- Early latent on treatment -->
     <g transform="translate(69.886719 371.073438) scale(0.1 -0.1)">
      <use xlink:href="#DejaVuSans-45"/>
      <use xlink:href="#DejaVuSans-61" transform="translate(63.183594 0)"/>
      <use xlink:href="#DejaVuSans-72" transform="translate(124.462891 0)"/>
      <use xlink:href="#DejaVuSans-6c" transform="translate(165.576172 0)"/>
      <use xlink:href="#DejaVuSans-79" transform="translate(193.359375 0)"/>
      <use xlink:href="#DejaVuSans-20" transform="translate(252.539062 0)"/>
      <use xlink:href="#DejaVuSans-6c" transform="translate(284.326172 0)"/>
      <use xlink:href="#DejaVuSans-61" transform="translate(312.109375 0)"/>
      <use xlink:href="#DejaVuSans-74" transform="translate(373.388672 0)"/>
      <use xlink:href="#DejaVuSans-65" transform="translate(412.597656 0)"/>
      <use xlink:href="#DejaVuSans-6e" transform="translate(474.121094 0)"/>
      <use xlink:href="#DejaVuSans-74" transform="translate(537.5 0)"/>
      <use xlink:href="#DejaVuSans-20" transform="translate(576.708984 0)"/>
      <use xlink:href="#DejaVuSans-6f" transform="translate(608.496094 0)"/>
      <use xlink:href="#DejaVuSans-6e" transform="translate(669.677734 0)"/>
      <use xlink:href="#DejaVuSans-20" transform="translate(733.056641 0)"/>
      <use xlink:href="#DejaVuSans-74" transform="translate(764.84375 0)"/>
      <use xlink:href="#DejaVuSans-72" transform="translate(804.052734 0)"/>
      <use xlink:href="#DejaVuSans-65" transform="translate(842.916016 0)"/>
      <use xlink:href="#DejaVuSans-61" transform="translate(904.439453 0)"/>
      <use xlink:href="#DejaVuSans-74" transform="translate(965.71875 0)"/>
      <use xlink:href="#DejaVuSans-6d" transform="translate(1004.927734 0)"/>
      <use xlink:href="#DejaVuSans-65" transform="translate(1102.339844 0)"/>
      <use xlink:href="#DejaVuSans-6e" transform="translate(1163.863281 0)"/>
      <use xlink:href="#DejaVuSans-74" transform="translate(1227.242188 0)"/>
     </g>
    </g>
    <g id="patch_27">
     <path d="M 41.886719 385.751563 
L 61.886719 385.751563 
L 61.886719 378.751563 
L 41.886719 378.751563 
z
" style="fill: #e78518"/>
    </g>
    <g id="text_26">
     <!-- Early latent untreated (diagnosable) -->
     <g transform="translate(69.886719 385.751563) scale(0.1 -0.1)">
      <use xlink:href="#DejaVuSans-45"/>
      <use xlink:href="#DejaVuSans-61" transform="translate(63.183594 0)"/>
      <use xlink:href="#DejaVuSans-72" transform="translate(124.462891 0)"/>
      <use xlink:href="#DejaVuSans-6c" transform="translate(165.576172 0)"/>
      <use xlink:href="#DejaVuSans-79" transform="translate(193.359375 0)"/>
      <use xlink:href="#DejaVuSans-20" transform="translate(252.539062 0)"/>
      <use xlink:href="#DejaVuSans-6c" transform="translate(284.326172 0)"/>
      <use xlink:href="#DejaVuSans-61" transform="translate(312.109375 0)"/>
      <use xlink:href="#DejaVuSans-74" transform="translate(373.388672 0)"/>
      <use xlink:href="#DejaVuSans-65" transform="translate(412.597656 0)"/>
      <use xlink:href="#DejaVuSans-6e" transform="translate(474.121094 0)"/>
      <use xlink:href="#DejaVuSans-74" transform="translate(537.5 0)"/>
      <use xlink:href="#DejaVuSans-20" transform="translate(576.708984 0)"/>
      <use xlink:href="#DejaVuSans-75" transform="translate(608.496094 0)"/>
      <use xlink:href="#DejaVuSans-6e" transform="translate(671.875 0)"/>
      <use xlink:href="#DejaVuSans-74" transform="translate(735.253906 0)"/>
      <use xlink:href="#DejaVuSans-72" transform="translate(774.462891 0)"/>
      <use xlink:href="#DejaVuSans-65" transform="translate(813.326172 0)"/>
      <use xlink:href="#DejaVuSans-61" transform="translate(874.849609 0)"/>
      <use xlink:href="#DejaVuSans-74" transform="translate(936.128906 0)"/>
      <use xlink:href="#DejaVuSans-65" transform="translate(975.337891 0)"/>
      <use xlink:href="#DejaVuSans-64" transform="translate(1036.861328 0)"/>
      <use xlink:href="#DejaVuSans-20" transform="translate(1100.337891 0)"/>
      <use xlink:href="#DejaVuSans-28" transform="translate(1132.125 0)"/>
      <use xlink:href="#DejaVuSans-64" transform="translate(1171.138672 0)"/>
      <use xlink:href="#DejaVuSans-69" transform="translate(1234.615234 0)"/>
      <use xlink:href="#DejaVuSans-61" transform="translate(1262.398438 0)"/>
      <use xlink:href="#DejaVuSans-67" transform="translate(1323.677734 0)"/>
      <use xlink:href="#DejaVuSans-6e" transform="translate(1387.154297 0)"/>
      <use xlink:href="#DejaVuSans-6f" transform="translate(1450.533203 0)"/>
      <use xlink:href="#DejaVuSans-73" transform="translate(1511.714844 0)"/>
      <use xlink:href="#DejaVuSans-61" transform="translate(1563.814453 0)"/>
      <use xlink:href="#DejaVuSans-62" transform="translate(1625.09375 0)"/>
      <use xlink:href="#DejaVuSans-6c" transform="translate(1688.570312 0)"/>
      <use xlink:href="#DejaVuSans-65" transform="translate(1716.353516 0)"/>
      <use xlink:href="#DejaVuSans-29" transform="translate(1777.876953 0)"/>
     </g>
    </g>
    <g id="patch_28">
     <path d="M 41.886719 400.429688 
L 61.886719 400.429688 
L 61.886719 393.429688 
L 41.886719 393.429688 
z
" style="fill: #855990"/>
    </g>
    <g id="text_27">
     <!-- Vaccinated -->
     <g transform="translate(69.886719 400.429688) scale(0.1 -0.1)">
      <defs>
       <path id="DejaVuSans-56" d="M 1831 0 
L 50 4666 
L 709 4666 
L 2188 738 
L 3669 4666 
L 4325 4666 
L 2547 0 
L 1831 0 
z
" transform="scale(0.015625)"/>
      </defs>
      <use xlink:href="#DejaVuSans-56"/>
      <use xlink:href="#DejaVuSans-61" transform="translate(60.658203 0)"/>
      <use xlink:href="#DejaVuSans-63" transform="translate(121.9375 0)"/>
      <use xlink:href="#DejaVuSans-63" transform="translate(176.917969 0)"/>
      <use xlink:href="#DejaVuSans-69" transform="translate(231.898438 0)"/>
      <use xlink:href="#DejaVuSans-6e" transform="translate(259.681641 0)"/>
      <use xlink:href="#DejaVuSans-61" transform="translate(323.060547 0)"/>
      <use xlink:href="#DejaVuSans-74" transform="translate(384.339844 0)"/>
      <use xlink:href="#DejaVuSans-65" transform="translate(423.548828 0)"/>
      <use xlink:href="#DejaVuSans-64" transform="translate(485.072266 0)"/>
     </g>
    </g>
    <g id="patch_29">
     <path d="M 41.886719 415.107813 
L 61.886719 415.107813 
L 61.886719 408.107813 
L 41.886719 408.107813 
z
" style="fill: #e7c618"/>
    </g>
    <g id="text_28">
     <!-- Susceptible -->
     <g transform="translate(69.886719 415.107813) scale(0.1 -0.1)">
      <use xlink:href="#DejaVuSans-53"/>
      <use xlink:href="#DejaVuSans-75" transform="translate(63.476562 0)"/>
      <use xlink:href="#DejaVuSans-73" transform="translate(126.855469 0)"/>
      <use xlink:href="#DejaVuSans-63" transform="translate(178.955078 0)"/>
      <use xlink:href="#DejaVuSans-65" transform="translate(233.935547 0)"/>
      <use xlink:href="#DejaVuSans-70" transform="translate(295.458984 0)"/>
      <use xlink:href="#DejaVuSans-74" transform="translate(358.935547 0)"/>
      <use xlink:href="#DejaVuSans-69" transform="translate(398.144531 0)"/>
      <use xlink:href="#DejaVuSans-62" transform="translate(425.927734 0)"/>
      <use xlink:href="#DejaVuSans-6c" transform="translate(489.404297 0)"/>
      <use xlink:href="#DejaVuSans-65" transform="translate(517.1875 0)"/>
     </g>
    </g>
   </g>
  </g>
 </g>
</svg>
