<?xml version="1.0" encoding="utf-8" standalone="no"?>
<!DOCTYPE svg PUBLIC "-//W3C//DTD SVG 1.1//EN"
  "http://www.w3.org/Graphics/SVG/1.1/DTD/svg11.dtd">
<!-- Created with matplotlib (https://matplotlib.org/) -->
<svg height="297.190125pt" version="1.1" viewBox="0 0 403.97 297.190125" width="403.97pt" xmlns="http://www.w3.org/2000/svg" xmlns:xlink="http://www.w3.org/1999/xlink">
 <metadata>
  <rdf:RDF xmlns:cc="http://creativecommons.org/ns#" xmlns:dc="http://purl.org/dc/elements/1.1/" xmlns:rdf="http://www.w3.org/1999/02/22-rdf-syntax-ns#">
   <cc:Work>
    <dc:type rdf:resource="http://purl.org/dc/dcmitype/StillImage"/>
    <dc:date>2020-10-29T02:18:59.377068</dc:date>
    <dc:format>image/svg+xml</dc:format>
    <dc:creator>
     <cc:Agent>
      <dc:title>Matplotlib v3.3.2, https://matplotlib.org/</dc:title>
     </cc:Agent>
    </dc:creator>
   </cc:Work>
  </rdf:RDF>
 </metadata>
 <defs>
  <style type="text/css">*{stroke-linecap:butt;stroke-linejoin:round;}</style>
 </defs>
 <g id="figure_1">
  <g id="patch_1">
   <path d="M 0 297.190125 
L 403.97 297.190125 
L 403.97 0 
L 0 0 
z
" style="fill:#ffffff;"/>
  </g>
  <g id="axes_1">
   <g id="patch_2">
    <path d="M 39.65 273.312 
L 396.77 273.312 
L 396.77 7.2 
L 39.65 7.2 
z
" style="fill:#ffffff;"/>
   </g>
   <g id="matplotlib.axis_1">
    <g id="xtick_1">
     <g id="line2d_1">
      <defs>
       <path d="M 0 0 
L 0 3.5 
" id="m9cfa7d69ee" style="stroke:#000000;stroke-width:0.8;"/>
      </defs>
      <g>
       <use style="stroke:#000000;stroke-width:0.8;" x="55.882727" xlink:href="#m9cfa7d69ee" y="273.312"/>
      </g>
     </g>
     <g id="text_1">
      <!-- 0.0 -->
      <g transform="translate(47.931165 287.910437)scale(0.1 -0.1)">
       <defs>
        <path d="M 31.78125 66.40625 
Q 24.171875 66.40625 20.328125 58.90625 
Q 16.5 51.421875 16.5 36.375 
Q 16.5 21.390625 20.328125 13.890625 
Q 24.171875 6.390625 31.78125 6.390625 
Q 39.453125 6.390625 43.28125 13.890625 
Q 47.125 21.390625 47.125 36.375 
Q 47.125 51.421875 43.28125 58.90625 
Q 39.453125 66.40625 31.78125 66.40625 
z
M 31.78125 74.21875 
Q 44.046875 74.21875 50.515625 64.515625 
Q 56.984375 54.828125 56.984375 36.375 
Q 56.984375 17.96875 50.515625 8.265625 
Q 44.046875 -1.421875 31.78125 -1.421875 
Q 19.53125 -1.421875 13.0625 8.265625 
Q 6.59375 17.96875 6.59375 36.375 
Q 6.59375 54.828125 13.0625 64.515625 
Q 19.53125 74.21875 31.78125 74.21875 
z
" id="DejaVuSans-48"/>
        <path d="M 10.6875 12.40625 
L 21 12.40625 
L 21 0 
L 10.6875 0 
z
" id="DejaVuSans-46"/>
       </defs>
       <use xlink:href="#DejaVuSans-48"/>
       <use x="63.623047" xlink:href="#DejaVuSans-46"/>
       <use x="95.410156" xlink:href="#DejaVuSans-48"/>
      </g>
     </g>
    </g>
    <g id="xtick_2">
     <g id="line2d_2">
      <g>
       <use style="stroke:#000000;stroke-width:0.8;" x="96.668474" xlink:href="#m9cfa7d69ee" y="273.312"/>
      </g>
     </g>
     <g id="text_2">
      <!-- 2.5 -->
      <g transform="translate(88.716912 287.910437)scale(0.1 -0.1)">
       <defs>
        <path d="M 19.1875 8.296875 
L 53.609375 8.296875 
L 53.609375 0 
L 7.328125 0 
L 7.328125 8.296875 
Q 12.9375 14.109375 22.625 23.890625 
Q 32.328125 33.6875 34.8125 36.53125 
Q 39.546875 41.84375 41.421875 45.53125 
Q 43.3125 49.21875 43.3125 52.78125 
Q 43.3125 58.59375 39.234375 62.25 
Q 35.15625 65.921875 28.609375 65.921875 
Q 23.96875 65.921875 18.8125 64.3125 
Q 13.671875 62.703125 7.8125 59.421875 
L 7.8125 69.390625 
Q 13.765625 71.78125 18.9375 73 
Q 24.125 74.21875 28.421875 74.21875 
Q 39.75 74.21875 46.484375 68.546875 
Q 53.21875 62.890625 53.21875 53.421875 
Q 53.21875 48.921875 51.53125 44.890625 
Q 49.859375 40.875 45.40625 35.40625 
Q 44.1875 33.984375 37.640625 27.21875 
Q 31.109375 20.453125 19.1875 8.296875 
z
" id="DejaVuSans-50"/>
        <path d="M 10.796875 72.90625 
L 49.515625 72.90625 
L 49.515625 64.59375 
L 19.828125 64.59375 
L 19.828125 46.734375 
Q 21.96875 47.46875 24.109375 47.828125 
Q 26.265625 48.1875 28.421875 48.1875 
Q 40.625 48.1875 47.75 41.5 
Q 54.890625 34.8125 54.890625 23.390625 
Q 54.890625 11.625 47.5625 5.09375 
Q 40.234375 -1.421875 26.90625 -1.421875 
Q 22.3125 -1.421875 17.546875 -0.640625 
Q 12.796875 0.140625 7.71875 1.703125 
L 7.71875 11.625 
Q 12.109375 9.234375 16.796875 8.0625 
Q 21.484375 6.890625 26.703125 6.890625 
Q 35.15625 6.890625 40.078125 11.328125 
Q 45.015625 15.765625 45.015625 23.390625 
Q 45.015625 31 40.078125 35.4375 
Q 35.15625 39.890625 26.703125 39.890625 
Q 22.75 39.890625 18.8125 39.015625 
Q 14.890625 38.140625 10.796875 36.28125 
z
" id="DejaVuSans-53"/>
       </defs>
       <use xlink:href="#DejaVuSans-50"/>
       <use x="63.623047" xlink:href="#DejaVuSans-46"/>
       <use x="95.410156" xlink:href="#DejaVuSans-53"/>
      </g>
     </g>
    </g>
    <g id="xtick_3">
     <g id="line2d_3">
      <g>
       <use style="stroke:#000000;stroke-width:0.8;" x="137.454221" xlink:href="#m9cfa7d69ee" y="273.312"/>
      </g>
     </g>
     <g id="text_3">
      <!-- 5.0 -->
      <g transform="translate(129.502659 287.910437)scale(0.1 -0.1)">
       <use xlink:href="#DejaVuSans-53"/>
       <use x="63.623047" xlink:href="#DejaVuSans-46"/>
       <use x="95.410156" xlink:href="#DejaVuSans-48"/>
      </g>
     </g>
    </g>
    <g id="xtick_4">
     <g id="line2d_4">
      <g>
       <use style="stroke:#000000;stroke-width:0.8;" x="178.239968" xlink:href="#m9cfa7d69ee" y="273.312"/>
      </g>
     </g>
     <g id="text_4">
      <!-- 7.5 -->
      <g transform="translate(170.288406 287.910437)scale(0.1 -0.1)">
       <defs>
        <path d="M 8.203125 72.90625 
L 55.078125 72.90625 
L 55.078125 68.703125 
L 28.609375 0 
L 18.3125 0 
L 43.21875 64.59375 
L 8.203125 64.59375 
z
" id="DejaVuSans-55"/>
       </defs>
       <use xlink:href="#DejaVuSans-55"/>
       <use x="63.623047" xlink:href="#DejaVuSans-46"/>
       <use x="95.410156" xlink:href="#DejaVuSans-53"/>
      </g>
     </g>
    </g>
    <g id="xtick_5">
     <g id="line2d_5">
      <g>
       <use style="stroke:#000000;stroke-width:0.8;" x="219.025715" xlink:href="#m9cfa7d69ee" y="273.312"/>
      </g>
     </g>
     <g id="text_5">
      <!-- 10.0 -->
      <g transform="translate(207.892902 287.910437)scale(0.1 -0.1)">
       <defs>
        <path d="M 12.40625 8.296875 
L 28.515625 8.296875 
L 28.515625 63.921875 
L 10.984375 60.40625 
L 10.984375 69.390625 
L 28.421875 72.90625 
L 38.28125 72.90625 
L 38.28125 8.296875 
L 54.390625 8.296875 
L 54.390625 0 
L 12.40625 0 
z
" id="DejaVuSans-49"/>
       </defs>
       <use xlink:href="#DejaVuSans-49"/>
       <use x="63.623047" xlink:href="#DejaVuSans-48"/>
       <use x="127.246094" xlink:href="#DejaVuSans-46"/>
       <use x="159.033203" xlink:href="#DejaVuSans-48"/>
      </g>
     </g>
    </g>
    <g id="xtick_6">
     <g id="line2d_6">
      <g>
       <use style="stroke:#000000;stroke-width:0.8;" x="259.811462" xlink:href="#m9cfa7d69ee" y="273.312"/>
      </g>
     </g>
     <g id="text_6">
      <!-- 12.5 -->
      <g transform="translate(248.678649 287.910437)scale(0.1 -0.1)">
       <use xlink:href="#DejaVuSans-49"/>
       <use x="63.623047" xlink:href="#DejaVuSans-50"/>
       <use x="127.246094" xlink:href="#DejaVuSans-46"/>
       <use x="159.033203" xlink:href="#DejaVuSans-53"/>
      </g>
     </g>
    </g>
    <g id="xtick_7">
     <g id="line2d_7">
      <g>
       <use style="stroke:#000000;stroke-width:0.8;" x="300.597209" xlink:href="#m9cfa7d69ee" y="273.312"/>
      </g>
     </g>
     <g id="text_7">
      <!-- 15.0 -->
      <g transform="translate(289.464396 287.910437)scale(0.1 -0.1)">
       <use xlink:href="#DejaVuSans-49"/>
       <use x="63.623047" xlink:href="#DejaVuSans-53"/>
       <use x="127.246094" xlink:href="#DejaVuSans-46"/>
       <use x="159.033203" xlink:href="#DejaVuSans-48"/>
      </g>
     </g>
    </g>
    <g id="xtick_8">
     <g id="line2d_8">
      <g>
       <use style="stroke:#000000;stroke-width:0.8;" x="341.382956" xlink:href="#m9cfa7d69ee" y="273.312"/>
      </g>
     </g>
     <g id="text_8">
      <!-- 17.5 -->
      <g transform="translate(330.250143 287.910437)scale(0.1 -0.1)">
       <use xlink:href="#DejaVuSans-49"/>
       <use x="63.623047" xlink:href="#DejaVuSans-55"/>
       <use x="127.246094" xlink:href="#DejaVuSans-46"/>
       <use x="159.033203" xlink:href="#DejaVuSans-53"/>
      </g>
     </g>
    </g>
    <g id="xtick_9">
     <g id="line2d_9">
      <g>
       <use style="stroke:#000000;stroke-width:0.8;" x="382.168703" xlink:href="#m9cfa7d69ee" y="273.312"/>
      </g>
     </g>
     <g id="text_9">
      <!-- 20.0 -->
      <g transform="translate(371.03589 287.910437)scale(0.1 -0.1)">
       <use xlink:href="#DejaVuSans-50"/>
       <use x="63.623047" xlink:href="#DejaVuSans-48"/>
       <use x="127.246094" xlink:href="#DejaVuSans-46"/>
       <use x="159.033203" xlink:href="#DejaVuSans-48"/>
      </g>
     </g>
    </g>
   </g>
   <g id="matplotlib.axis_2">
    <g id="ytick_1">
     <g id="line2d_10">
      <defs>
       <path d="M 0 0 
L -3.5 0 
" id="meacaeab86f" style="stroke:#000000;stroke-width:0.8;"/>
      </defs>
      <g>
       <use style="stroke:#000000;stroke-width:0.8;" x="39.65" xlink:href="#meacaeab86f" y="261.216"/>
      </g>
     </g>
     <g id="text_10">
      <!-- 0 -->
      <g transform="translate(26.2875 265.015219)scale(0.1 -0.1)">
       <use xlink:href="#DejaVuSans-48"/>
      </g>
     </g>
    </g>
    <g id="ytick_2">
     <g id="line2d_11">
      <g>
       <use style="stroke:#000000;stroke-width:0.8;" x="39.65" xlink:href="#meacaeab86f" y="221.374103"/>
      </g>
     </g>
     <g id="text_11">
      <!-- 500 -->
      <g transform="translate(13.5625 225.173322)scale(0.1 -0.1)">
       <use xlink:href="#DejaVuSans-53"/>
       <use x="63.623047" xlink:href="#DejaVuSans-48"/>
       <use x="127.246094" xlink:href="#DejaVuSans-48"/>
      </g>
     </g>
    </g>
    <g id="ytick_3">
     <g id="line2d_12">
      <g>
       <use style="stroke:#000000;stroke-width:0.8;" x="39.65" xlink:href="#meacaeab86f" y="181.532206"/>
      </g>
     </g>
     <g id="text_12">
      <!-- 1000 -->
      <g transform="translate(7.2 185.331424)scale(0.1 -0.1)">
       <use xlink:href="#DejaVuSans-49"/>
       <use x="63.623047" xlink:href="#DejaVuSans-48"/>
       <use x="127.246094" xlink:href="#DejaVuSans-48"/>
       <use x="190.869141" xlink:href="#DejaVuSans-48"/>
      </g>
     </g>
    </g>
    <g id="ytick_4">
     <g id="line2d_13">
      <g>
       <use style="stroke:#000000;stroke-width:0.8;" x="39.65" xlink:href="#meacaeab86f" y="141.690308"/>
      </g>
     </g>
     <g id="text_13">
      <!-- 1500 -->
      <g transform="translate(7.2 145.489527)scale(0.1 -0.1)">
       <use xlink:href="#DejaVuSans-49"/>
       <use x="63.623047" xlink:href="#DejaVuSans-53"/>
       <use x="127.246094" xlink:href="#DejaVuSans-48"/>
       <use x="190.869141" xlink:href="#DejaVuSans-48"/>
      </g>
     </g>
    </g>
    <g id="ytick_5">
     <g id="line2d_14">
      <g>
       <use style="stroke:#000000;stroke-width:0.8;" x="39.65" xlink:href="#meacaeab86f" y="101.848411"/>
      </g>
     </g>
     <g id="text_14">
      <!-- 2000 -->
      <g transform="translate(7.2 105.64763)scale(0.1 -0.1)">
       <use xlink:href="#DejaVuSans-50"/>
       <use x="63.623047" xlink:href="#DejaVuSans-48"/>
       <use x="127.246094" xlink:href="#DejaVuSans-48"/>
       <use x="190.869141" xlink:href="#DejaVuSans-48"/>
      </g>
     </g>
    </g>
    <g id="ytick_6">
     <g id="line2d_15">
      <g>
       <use style="stroke:#000000;stroke-width:0.8;" x="39.65" xlink:href="#meacaeab86f" y="62.006514"/>
      </g>
     </g>
     <g id="text_15">
      <!-- 2500 -->
      <g transform="translate(7.2 65.805733)scale(0.1 -0.1)">
       <use xlink:href="#DejaVuSans-50"/>
       <use x="63.623047" xlink:href="#DejaVuSans-53"/>
       <use x="127.246094" xlink:href="#DejaVuSans-48"/>
       <use x="190.869141" xlink:href="#DejaVuSans-48"/>
      </g>
     </g>
    </g>
    <g id="ytick_7">
     <g id="line2d_16">
      <g>
       <use style="stroke:#000000;stroke-width:0.8;" x="39.65" xlink:href="#meacaeab86f" y="22.164617"/>
      </g>
     </g>
     <g id="text_16">
      <!-- 3000 -->
      <g transform="translate(7.2 25.963835)scale(0.1 -0.1)">
       <defs>
        <path d="M 40.578125 39.3125 
Q 47.65625 37.796875 51.625 33 
Q 55.609375 28.21875 55.609375 21.1875 
Q 55.609375 10.40625 48.1875 4.484375 
Q 40.765625 -1.421875 27.09375 -1.421875 
Q 22.515625 -1.421875 17.65625 -0.515625 
Q 12.796875 0.390625 7.625 2.203125 
L 7.625 11.71875 
Q 11.71875 9.328125 16.59375 8.109375 
Q 21.484375 6.890625 26.8125 6.890625 
Q 36.078125 6.890625 40.9375 10.546875 
Q 45.796875 14.203125 45.796875 21.1875 
Q 45.796875 27.640625 41.28125 31.265625 
Q 36.765625 34.90625 28.71875 34.90625 
L 20.21875 34.90625 
L 20.21875 43.015625 
L 29.109375 43.015625 
Q 36.375 43.015625 40.234375 45.921875 
Q 44.09375 48.828125 44.09375 54.296875 
Q 44.09375 59.90625 40.109375 62.90625 
Q 36.140625 65.921875 28.71875 65.921875 
Q 24.65625 65.921875 20.015625 65.03125 
Q 15.375 64.15625 9.8125 62.3125 
L 9.8125 71.09375 
Q 15.4375 72.65625 20.34375 73.4375 
Q 25.25 74.21875 29.59375 74.21875 
Q 40.828125 74.21875 47.359375 69.109375 
Q 53.90625 64.015625 53.90625 55.328125 
Q 53.90625 49.265625 50.4375 45.09375 
Q 46.96875 40.921875 40.578125 39.3125 
z
" id="DejaVuSans-51"/>
       </defs>
       <use xlink:href="#DejaVuSans-51"/>
       <use x="63.623047" xlink:href="#DejaVuSans-48"/>
       <use x="127.246094" xlink:href="#DejaVuSans-48"/>
       <use x="190.869141" xlink:href="#DejaVuSans-48"/>
      </g>
     </g>
    </g>
   </g>
   <g id="line2d_17">
    <path clip-path="url(#p5277ab1cf6)" d="M 55.882727 261.216 
L 59.961302 241.295051 
L 64.039877 223.294482 
L 68.118451 207.029168 
L 72.197026 192.33183 
L 76.275601 179.051315 
L 80.354175 167.051042 
L 84.43275 156.207596 
L 88.511325 146.409457 
L 92.589899 137.555859 
L 96.668474 129.555748 
L 100.747049 122.326848 
L 104.825624 115.794814 
L 108.904198 109.892467 
L 112.982773 104.559107 
L 117.061348 99.739883 
L 121.139922 95.385232 
L 125.218497 91.45037 
L 129.297072 87.894828 
L 133.375646 84.68204 
L 137.454221 81.778965 
L 141.532796 79.155747 
L 145.61137 76.785407 
L 149.689945 74.643567 
L 153.76852 72.708201 
L 157.847095 70.959404 
L 161.925669 69.379191 
L 166.004244 67.951311 
L 170.082819 66.661079 
L 174.161393 65.495224 
L 178.239968 64.441759 
L 182.318543 63.489847 
L 186.397117 62.629699 
L 190.475692 61.85247 
L 194.554267 61.150166 
L 198.632841 60.515564 
L 202.711416 59.942137 
L 206.789991 59.423989 
L 210.868566 58.95579 
L 214.94714 58.532726 
L 219.025715 58.150445 
L 223.10429 57.805016 
L 227.182864 57.492886 
L 231.261439 57.210845 
L 235.340014 56.955994 
L 239.418588 56.72571 
L 243.497163 56.517625 
L 247.575738 56.3296 
L 251.654312 56.1597 
L 255.732887 56.006179 
L 259.811462 55.867457 
L 263.890037 55.742108 
L 267.968611 55.628843 
L 272.047186 55.526496 
L 276.125761 55.434015 
L 280.204335 55.35045 
L 284.28291 55.274941 
L 288.361485 55.20671 
L 292.440059 55.145057 
L 296.518634 55.089347 
L 300.597209 55.039008 
L 304.675783 54.993521 
L 308.754358 54.95242 
L 312.832933 54.91528 
L 316.911508 54.881721 
L 320.990082 54.851397 
L 325.068657 54.823996 
L 329.147232 54.799237 
L 333.225806 54.776864 
L 337.304381 54.756648 
L 341.382956 54.738381 
L 345.46153 54.721875 
L 349.540105 54.70696 
L 353.61868 54.693483 
L 357.697254 54.681305 
L 361.775829 54.670301 
L 365.854404 54.660358 
L 369.932979 54.651373 
L 374.011553 54.643254 
L 378.090128 54.635918 
" style="fill:none;stroke:#1f77b4;stroke-linecap:square;stroke-width:1.5;"/>
   </g>
   <g id="line2d_18">
    <path clip-path="url(#p5277ab1cf6)" d="M 55.882727 261.216 
L 59.961302 261.216 
L 64.039877 259.295621 
L 68.118451 256.101261 
L 72.197026 252.106211 
L 76.275601 247.653948 
L 80.354175 242.990878 
L 84.43275 238.29105 
L 88.511325 233.674813 
L 92.589899 229.222855 
L 96.668474 224.986771 
L 100.747049 220.996984 
L 104.825624 217.268677 
L 108.904198 213.806222 
L 112.982773 210.606462 
L 117.061348 207.661148 
L 121.139922 204.958726 
L 125.218497 202.485637 
L 129.297072 200.227264 
L 133.375646 198.168597 
L 137.454221 196.29471 
L 141.532796 194.591073 
L 145.61137 193.043772 
L 149.689945 191.639632 
L 153.76852 190.366293 
L 157.847095 189.212241 
L 161.925669 188.166808 
L 166.004244 187.220156 
L 170.082819 186.363241 
L 174.161393 185.58778 
L 178.239968 184.886195 
L 182.318543 184.251578 
L 186.397117 183.677631 
L 190.475692 183.158628 
L 194.554267 182.689364 
L 198.632841 182.265116 
L 202.711416 181.881596 
L 206.789991 181.534919 
L 210.868566 181.221565 
L 214.94714 180.938344 
L 219.025715 180.682369 
L 223.10429 180.451028 
L 227.182864 180.241955 
L 231.261439 180.053013 
L 235.340014 179.882265 
L 239.418588 179.727964 
L 243.497163 179.588526 
L 247.575738 179.462522 
L 251.654312 179.348658 
L 255.732887 179.245767 
L 259.811462 179.15279 
L 263.890037 179.068773 
L 267.968611 178.992854 
L 272.047186 178.924252 
L 276.125761 178.862261 
L 280.204335 178.806246 
L 284.28291 178.75563 
L 288.361485 178.709893 
L 292.440059 178.668564 
L 296.518634 178.631219 
L 300.597209 178.597474 
L 304.675783 178.566982 
L 308.754358 178.539429 
L 312.832933 178.514532 
L 316.911508 178.492036 
L 320.990082 178.471707 
L 325.068657 178.453339 
L 329.147232 178.436741 
L 333.225806 178.421743 
L 337.304381 178.408191 
L 341.382956 178.395945 
L 345.46153 178.38488 
L 349.540105 178.374881 
L 353.61868 178.365846 
L 357.697254 178.357683 
L 361.775829 178.350306 
L 365.854404 178.34364 
L 369.932979 178.337617 
L 374.011553 178.332175 
L 378.090128 178.327257 
" style="fill:none;stroke:#ff7f0e;stroke-linecap:square;stroke-width:1.5;"/>
   </g>
   <g id="line2d_19">
    <path clip-path="url(#p5277ab1cf6)" d="M 55.882727 261.216 
L 57.514157 252.291415 
L 59.145587 244.482403 
L 60.777017 235.79687 
L 64.039877 223.286514 
L 65.671307 215.955605 
L 67.302736 209.262166 
L 68.934166 204.72019 
L 70.565596 199.301692 
L 72.197026 192.13015 
L 73.828456 187.030387 
L 75.459886 180.655684 
L 77.091316 173.324775 
L 78.722746 168.703115 
L 80.354175 163.523668 
L 83.617035 153.961613 
L 85.248465 148.144696 
L 86.879895 144.160506 
L 88.511325 140.89347 
L 90.142755 137.3077 
L 91.774185 135.076553 
L 93.405614 130.136158 
L 95.037044 125.753549 
L 96.668474 122.088095 
L 98.299904 116.271178 
L 99.931334 113.482245 
L 101.562764 108.701217 
L 103.194194 106.629439 
L 104.825624 104.956079 
L 106.457053 102.485881 
L 108.088483 100.57347 
L 109.719913 96.668964 
L 111.351343 93.561296 
L 112.982773 91.967621 
L 114.614203 89.736474 
L 116.245633 86.150704 
L 117.877063 84.317976 
L 119.508492 80.652522 
L 121.139922 79.218213 
L 122.771352 77.943273 
L 124.402782 77.066751 
L 126.034212 76.508964 
L 127.665642 75.79181 
L 129.297072 73.959083 
L 130.928502 70.692047 
L 132.559931 67.743747 
L 134.191361 66.309439 
L 135.822791 63.759557 
L 137.454221 64.397028 
L 139.085651 63.839241 
L 140.717081 61.448727 
L 142.348511 60.173787 
L 143.979941 58.659794 
L 145.61137 57.862957 
L 147.2428 58.739478 
L 148.87423 60.572206 
L 150.50566 58.261375 
L 152.13709 57.145802 
L 153.76852 57.703589 
L 155.39995 57.30517 
L 157.03138 57.544221 
L 158.66281 56.986435 
L 160.294239 55.63181 
L 161.925669 53.639715 
L 163.557099 55.313075 
L 165.188529 54.516237 
L 166.819959 52.603826 
L 168.451389 50.452364 
L 170.082819 50.771099 
L 171.714249 49.974261 
L 174.977108 51.806988 
L 176.608538 50.37268 
L 178.239968 51.727304 
L 179.871398 49.735209 
L 181.502828 47.344696 
L 183.134258 45.990071 
L 184.765688 45.990071 
L 186.397117 45.511968 
L 188.028547 44.07766 
L 189.659977 43.44019 
L 191.291407 43.44019 
L 192.922837 42.962087 
L 194.554267 40.890308 
L 196.185697 40.491889 
L 201.079986 41.607462 
L 202.711416 41.209043 
L 204.342846 41.049676 
L 205.974276 40.571573 
L 207.605706 38.81853 
L 209.237136 37.384221 
L 210.868566 36.268648 
L 212.499995 34.117186 
L 214.131425 33.798451 
L 215.762855 31.726672 
L 217.394285 32.52351 
L 219.025715 33.479715 
L 220.657145 33.320348 
L 222.288575 33.400032 
L 223.920005 33.081296 
L 225.551434 31.407937 
L 227.182864 31.646988 
L 228.814294 32.364142 
L 230.445724 33.559399 
L 232.077154 33.878134 
L 233.708584 33.400032 
L 235.340014 32.204775 
L 236.971444 31.567304 
L 238.602873 30.451731 
L 240.234303 31.88604 
L 241.865733 28.459636 
L 243.497163 29.893945 
L 245.128593 31.567304 
L 248.391453 31.487621 
L 250.022883 29.973628 
L 251.654312 31.328253 
L 253.285742 31.168885 
L 254.917172 30.85015 
L 256.548602 31.806356 
L 258.180032 30.690783 
L 261.442892 30.690783 
L 263.074322 31.009518 
L 264.705751 30.690783 
L 266.337181 29.814261 
L 271.231471 28.379953 
L 272.862901 28.459636 
L 274.494331 28.220585 
L 276.125761 27.822166 
L 277.75719 27.742482 
L 279.38862 27.503431 
L 281.02005 28.140901 
L 282.65148 29.256474 
L 284.28291 31.965723 
L 285.91434 31.328253 
L 287.54577 32.204775 
L 289.1772 30.85015 
L 290.80863 29.814261 
L 292.440059 30.770466 
L 294.071489 32.284458 
L 295.702919 30.611099 
L 297.334349 31.248569 
L 298.965779 31.168885 
L 300.597209 29.336158 
L 302.228639 28.619004 
L 303.860069 30.132996 
L 305.491498 28.937739 
L 307.122928 29.176791 
L 308.754358 27.981534 
L 310.385788 27.423747 
L 312.017218 28.459636 
L 313.648648 28.778372 
L 315.280078 26.069123 
L 316.911508 27.105012 
L 318.542937 26.786277 
L 321.805797 24.794182 
L 323.437227 26.387858 
L 325.068657 24.873866 
L 326.700087 24.55513 
L 328.331517 23.598925 
L 329.962947 23.837976 
L 331.594376 23.120822 
L 333.225806 21.686514 
L 334.857236 19.296 
L 336.488666 20.252206 
L 338.120096 21.845881 
L 339.751526 21.925565 
L 341.382956 22.483352 
L 343.014386 24.475447 
L 344.645815 25.431652 
L 346.277245 25.192601 
L 347.908675 25.192601 
L 349.540105 26.148806 
L 351.171535 27.583115 
L 352.802965 27.583115 
L 356.065825 28.220585 
L 357.697254 26.86596 
L 359.328684 27.184696 
L 360.960114 26.786277 
L 362.591544 26.069123 
L 364.222974 26.22849 
L 365.854404 25.909755 
L 367.485834 25.909755 
L 369.117264 24.55513 
L 372.380123 24.395763 
L 374.011553 23.91766 
L 375.642983 24.873866 
L 377.274413 27.184696 
L 378.905843 25.670704 
L 380.537273 26.22849 
L 380.537273 26.22849 
" style="fill:none;stroke:#2ca02c;stroke-linecap:square;stroke-width:1.5;"/>
   </g>
   <g id="line2d_20">
    <path clip-path="url(#p5277ab1cf6)" d="M 55.882727 261.216 
L 57.514157 261.056632 
L 59.145587 260.57853 
L 60.777017 259.941059 
L 64.039877 257.709913 
L 65.671307 256.833391 
L 67.302736 256.195921 
L 68.934166 253.805407 
L 70.565596 252.61015 
L 72.197026 251.175842 
L 73.828456 249.024379 
L 75.459886 247.111968 
L 77.091316 245.597976 
L 78.722746 243.127779 
L 80.354175 240.338846 
L 81.985605 238.585802 
L 83.617035 237.07181 
L 85.248465 235.398451 
L 88.511325 230.458055 
L 90.142755 228.784696 
L 91.774185 225.358292 
L 93.405614 224.402087 
L 95.037044 222.409992 
L 96.668474 222.170941 
L 98.299904 222.170941 
L 99.931334 219.461692 
L 101.562764 218.186751 
L 103.194194 216.513391 
L 108.088483 208.943431 
L 111.351343 206.313866 
L 112.982773 203.126514 
L 114.614203 202.249992 
L 116.245633 201.692206 
L 117.877063 199.381375 
L 119.508492 198.584538 
L 121.139922 195.795605 
L 122.771352 193.644142 
L 124.402782 191.253628 
L 126.034212 190.377107 
L 127.665642 187.827225 
L 129.297072 187.588174 
L 132.559931 184.958609 
L 134.191361 184.241455 
L 135.822791 182.408727 
L 137.454221 180.894735 
L 139.085651 180.018213 
L 140.717081 178.982324 
L 143.979941 177.866751 
L 145.61137 176.273075 
L 147.2428 173.962245 
L 148.87423 171.33268 
L 150.50566 170.057739 
L 152.13709 170.695209 
L 153.76852 168.942166 
L 155.39995 167.667225 
L 157.03138 168.145328 
L 158.66281 167.746909 
L 160.294239 168.543747 
L 161.925669 168.703115 
L 163.557099 168.543747 
L 165.188529 167.029755 
L 166.819959 165.834498 
L 168.451389 165.914182 
L 170.082819 163.842403 
L 171.714249 165.515763 
L 173.345678 163.443984 
L 174.977108 162.408095 
L 176.608538 162.806514 
L 178.239968 160.814419 
L 179.871398 161.850308 
L 181.502828 163.523668 
L 183.134258 162.647146 
L 186.397117 161.133154 
L 188.028547 160.973787 
L 189.659977 161.05347 
L 191.291407 159.698846 
L 192.922837 158.822324 
L 194.554267 158.74264 
L 196.185697 158.503589 
L 197.817127 159.300427 
L 201.079986 160.017581 
L 202.711416 159.300427 
L 204.342846 159.300427 
L 205.974276 159.619162 
L 207.605706 158.822324 
L 209.237136 158.981692 
L 210.868566 158.184854 
L 212.499995 157.069281 
L 214.131425 155.555289 
L 215.762855 156.909913 
L 217.394285 156.192759 
L 219.025715 156.750545 
L 220.657145 155.555289 
L 222.288575 154.917818 
L 223.920005 155.555289 
L 225.551434 156.670862 
L 227.182864 157.069281 
L 228.814294 156.43181 
L 230.445724 157.148964 
L 232.077154 154.917818 
L 233.708584 156.033391 
L 235.340014 156.352126 
L 236.971444 157.069281 
L 238.602873 155.874024 
L 240.234303 154.041296 
L 241.865733 155.15687 
L 243.497163 152.447621 
L 245.128593 150.694577 
L 246.760023 150.296158 
L 248.391453 150.375842 
L 250.022883 152.049202 
L 251.654312 152.925723 
L 253.285742 152.367937 
L 254.917172 151.491415 
L 256.548602 151.650783 
L 258.180032 151.969518 
L 261.442892 150.296158 
L 263.074322 148.144696 
L 264.705751 147.18849 
L 266.337181 147.507225 
L 267.968611 146.630704 
L 269.600041 146.790071 
L 271.231471 146.55102 
L 272.862901 147.427542 
L 274.494331 147.985328 
L 276.125761 146.790071 
L 277.75719 145.993233 
L 279.38862 146.630704 
L 281.02005 145.754182 
L 282.65148 144.558925 
L 284.28291 143.2043 
L 285.91434 143.283984 
L 289.1772 145.196395 
L 290.80863 146.391652 
L 292.440059 145.674498 
L 294.071489 145.116711 
L 295.702919 146.232285 
L 297.334349 146.391652 
L 298.965779 145.51513 
L 300.597209 145.435447 
L 302.228639 146.710387 
L 303.860069 144.479241 
L 305.491498 145.355763 
L 307.122928 144.638609 
L 308.754358 145.51513 
L 310.385788 144.638609 
L 312.017218 145.51513 
L 313.648648 145.196395 
L 315.280078 146.869755 
L 316.911508 145.993233 
L 318.542937 147.347858 
L 320.174367 148.065012 
L 321.805797 147.985328 
L 323.437227 147.18849 
L 325.068657 145.913549 
L 326.700087 146.391652 
L 328.331517 146.630704 
L 329.962947 147.427542 
L 331.594376 146.869755 
L 333.225806 146.55102 
L 334.857236 147.905644 
L 336.488666 146.471336 
L 338.120096 145.754182 
L 339.751526 144.479241 
L 341.382956 143.921455 
L 343.014386 142.726198 
L 344.645815 142.487146 
L 346.277245 142.885565 
L 347.908675 143.124617 
L 349.540105 143.2043 
L 351.171535 141.052838 
L 352.802965 143.044933 
L 354.434395 142.487146 
L 356.065825 141.451257 
L 357.697254 142.487146 
L 359.328684 141.849676 
L 360.960114 142.327779 
L 362.591544 143.523036 
L 367.485834 142.088727 
L 369.117264 144.001138 
L 370.748693 143.523036 
L 372.380123 143.363668 
L 374.011553 144.001138 
L 375.642983 144.319874 
L 377.274413 140.973154 
L 378.905843 141.212206 
L 380.537273 140.813787 
L 380.537273 140.813787 
" style="fill:none;stroke:#d62728;stroke-linecap:square;stroke-width:1.5;"/>
   </g>
   <g id="patch_3">
    <path d="M 39.65 273.312 
L 39.65 7.2 
" style="fill:none;stroke:#000000;stroke-linecap:square;stroke-linejoin:miter;stroke-width:0.8;"/>
   </g>
   <g id="patch_4">
    <path d="M 396.77 273.312 
L 396.77 7.2 
" style="fill:none;stroke:#000000;stroke-linecap:square;stroke-linejoin:miter;stroke-width:0.8;"/>
   </g>
   <g id="patch_5">
    <path d="M 39.65 273.312 
L 396.77 273.312 
" style="fill:none;stroke:#000000;stroke-linecap:square;stroke-linejoin:miter;stroke-width:0.8;"/>
   </g>
   <g id="patch_6">
    <path d="M 39.65 7.2 
L 396.77 7.2 
" style="fill:none;stroke:#000000;stroke-linecap:square;stroke-linejoin:miter;stroke-width:0.8;"/>
   </g>
  </g>
 </g>
 <defs>
  <clipPath id="p5277ab1cf6">
   <rect height="266.112" width="357.12" x="39.65" y="7.2"/>
  </clipPath>
 </defs>
</svg>
