<?xml version="1.0" encoding="utf-8" standalone="no"?>
<!DOCTYPE svg PUBLIC "-//W3C//DTD SVG 1.1//EN"
  "http://www.w3.org/Graphics/SVG/1.1/DTD/svg11.dtd">
<!-- Created with matplotlib (https://matplotlib.org/) -->
<svg height="297.190125pt" version="1.1" viewBox="0 0 403.97 297.190125" width="403.97pt" xmlns="http://www.w3.org/2000/svg" xmlns:xlink="http://www.w3.org/1999/xlink">
 <metadata>
  <rdf:RDF xmlns:cc="http://creativecommons.org/ns#" xmlns:dc="http://purl.org/dc/elements/1.1/" xmlns:rdf="http://www.w3.org/1999/02/22-rdf-syntax-ns#">
   <cc:Work>
    <dc:type rdf:resource="http://purl.org/dc/dcmitype/StillImage"/>
    <dc:date>2020-10-15T08:56:01.217376</dc:date>
    <dc:format>image/svg+xml</dc:format>
    <dc:creator>
     <cc:Agent>
      <dc:title>Matplotlib v3.3.2, https://matplotlib.org/</dc:title>
     </cc:Agent>
    </dc:creator>
   </cc:Work>
  </rdf:RDF>
 </metadata>
 <defs>
  <style type="text/css">*{stroke-linecap:butt;stroke-linejoin:round;}</style>
 </defs>
 <g id="figure_1">
  <g id="patch_1">
   <path d="M 0 297.190125 
L 403.97 297.190125 
L 403.97 0 
L 0 0 
z
" style="fill:#ffffff;"/>
  </g>
  <g id="axes_1">
   <g id="patch_2">
    <path d="M 39.65 273.312 
L 396.77 273.312 
L 396.77 7.2 
L 39.65 7.2 
z
" style="fill:#ffffff;"/>
   </g>
   <g id="matplotlib.axis_1">
    <g id="xtick_1">
     <g id="line2d_1">
      <defs>
       <path d="M 0 0 
L 0 3.5 
" id="m239cdcc351" style="stroke:#000000;stroke-width:0.8;"/>
      </defs>
      <g>
       <use style="stroke:#000000;stroke-width:0.8;" x="55.882727" xlink:href="#m239cdcc351" y="273.312"/>
      </g>
     </g>
     <g id="text_1">
      <!-- 0.0 -->
      <g transform="translate(47.931165 287.910437)scale(0.1 -0.1)">
       <defs>
        <path d="M 31.78125 66.40625 
Q 24.171875 66.40625 20.328125 58.90625 
Q 16.5 51.421875 16.5 36.375 
Q 16.5 21.390625 20.328125 13.890625 
Q 24.171875 6.390625 31.78125 6.390625 
Q 39.453125 6.390625 43.28125 13.890625 
Q 47.125 21.390625 47.125 36.375 
Q 47.125 51.421875 43.28125 58.90625 
Q 39.453125 66.40625 31.78125 66.40625 
z
M 31.78125 74.21875 
Q 44.046875 74.21875 50.515625 64.515625 
Q 56.984375 54.828125 56.984375 36.375 
Q 56.984375 17.96875 50.515625 8.265625 
Q 44.046875 -1.421875 31.78125 -1.421875 
Q 19.53125 -1.421875 13.0625 8.265625 
Q 6.59375 17.96875 6.59375 36.375 
Q 6.59375 54.828125 13.0625 64.515625 
Q 19.53125 74.21875 31.78125 74.21875 
z
" id="DejaVuSans-48"/>
        <path d="M 10.6875 12.40625 
L 21 12.40625 
L 21 0 
L 10.6875 0 
z
" id="DejaVuSans-46"/>
       </defs>
       <use xlink:href="#DejaVuSans-48"/>
       <use x="63.623047" xlink:href="#DejaVuSans-46"/>
       <use x="95.410156" xlink:href="#DejaVuSans-48"/>
      </g>
     </g>
    </g>
    <g id="xtick_2">
     <g id="line2d_2">
      <g>
       <use style="stroke:#000000;stroke-width:0.8;" x="96.668474" xlink:href="#m239cdcc351" y="273.312"/>
      </g>
     </g>
     <g id="text_2">
      <!-- 2.5 -->
      <g transform="translate(88.716912 287.910437)scale(0.1 -0.1)">
       <defs>
        <path d="M 19.1875 8.296875 
L 53.609375 8.296875 
L 53.609375 0 
L 7.328125 0 
L 7.328125 8.296875 
Q 12.9375 14.109375 22.625 23.890625 
Q 32.328125 33.6875 34.8125 36.53125 
Q 39.546875 41.84375 41.421875 45.53125 
Q 43.3125 49.21875 43.3125 52.78125 
Q 43.3125 58.59375 39.234375 62.25 
Q 35.15625 65.921875 28.609375 65.921875 
Q 23.96875 65.921875 18.8125 64.3125 
Q 13.671875 62.703125 7.8125 59.421875 
L 7.8125 69.390625 
Q 13.765625 71.78125 18.9375 73 
Q 24.125 74.21875 28.421875 74.21875 
Q 39.75 74.21875 46.484375 68.546875 
Q 53.21875 62.890625 53.21875 53.421875 
Q 53.21875 48.921875 51.53125 44.890625 
Q 49.859375 40.875 45.40625 35.40625 
Q 44.1875 33.984375 37.640625 27.21875 
Q 31.109375 20.453125 19.1875 8.296875 
z
" id="DejaVuSans-50"/>
        <path d="M 10.796875 72.90625 
L 49.515625 72.90625 
L 49.515625 64.59375 
L 19.828125 64.59375 
L 19.828125 46.734375 
Q 21.96875 47.46875 24.109375 47.828125 
Q 26.265625 48.1875 28.421875 48.1875 
Q 40.625 48.1875 47.75 41.5 
Q 54.890625 34.8125 54.890625 23.390625 
Q 54.890625 11.625 47.5625 5.09375 
Q 40.234375 -1.421875 26.90625 -1.421875 
Q 22.3125 -1.421875 17.546875 -0.640625 
Q 12.796875 0.140625 7.71875 1.703125 
L 7.71875 11.625 
Q 12.109375 9.234375 16.796875 8.0625 
Q 21.484375 6.890625 26.703125 6.890625 
Q 35.15625 6.890625 40.078125 11.328125 
Q 45.015625 15.765625 45.015625 23.390625 
Q 45.015625 31 40.078125 35.4375 
Q 35.15625 39.890625 26.703125 39.890625 
Q 22.75 39.890625 18.8125 39.015625 
Q 14.890625 38.140625 10.796875 36.28125 
z
" id="DejaVuSans-53"/>
       </defs>
       <use xlink:href="#DejaVuSans-50"/>
       <use x="63.623047" xlink:href="#DejaVuSans-46"/>
       <use x="95.410156" xlink:href="#DejaVuSans-53"/>
      </g>
     </g>
    </g>
    <g id="xtick_3">
     <g id="line2d_3">
      <g>
       <use style="stroke:#000000;stroke-width:0.8;" x="137.454221" xlink:href="#m239cdcc351" y="273.312"/>
      </g>
     </g>
     <g id="text_3">
      <!-- 5.0 -->
      <g transform="translate(129.502659 287.910437)scale(0.1 -0.1)">
       <use xlink:href="#DejaVuSans-53"/>
       <use x="63.623047" xlink:href="#DejaVuSans-46"/>
       <use x="95.410156" xlink:href="#DejaVuSans-48"/>
      </g>
     </g>
    </g>
    <g id="xtick_4">
     <g id="line2d_4">
      <g>
       <use style="stroke:#000000;stroke-width:0.8;" x="178.239968" xlink:href="#m239cdcc351" y="273.312"/>
      </g>
     </g>
     <g id="text_4">
      <!-- 7.5 -->
      <g transform="translate(170.288406 287.910437)scale(0.1 -0.1)">
       <defs>
        <path d="M 8.203125 72.90625 
L 55.078125 72.90625 
L 55.078125 68.703125 
L 28.609375 0 
L 18.3125 0 
L 43.21875 64.59375 
L 8.203125 64.59375 
z
" id="DejaVuSans-55"/>
       </defs>
       <use xlink:href="#DejaVuSans-55"/>
       <use x="63.623047" xlink:href="#DejaVuSans-46"/>
       <use x="95.410156" xlink:href="#DejaVuSans-53"/>
      </g>
     </g>
    </g>
    <g id="xtick_5">
     <g id="line2d_5">
      <g>
       <use style="stroke:#000000;stroke-width:0.8;" x="219.025715" xlink:href="#m239cdcc351" y="273.312"/>
      </g>
     </g>
     <g id="text_5">
      <!-- 10.0 -->
      <g transform="translate(207.892902 287.910437)scale(0.1 -0.1)">
       <defs>
        <path d="M 12.40625 8.296875 
L 28.515625 8.296875 
L 28.515625 63.921875 
L 10.984375 60.40625 
L 10.984375 69.390625 
L 28.421875 72.90625 
L 38.28125 72.90625 
L 38.28125 8.296875 
L 54.390625 8.296875 
L 54.390625 0 
L 12.40625 0 
z
" id="DejaVuSans-49"/>
       </defs>
       <use xlink:href="#DejaVuSans-49"/>
       <use x="63.623047" xlink:href="#DejaVuSans-48"/>
       <use x="127.246094" xlink:href="#DejaVuSans-46"/>
       <use x="159.033203" xlink:href="#DejaVuSans-48"/>
      </g>
     </g>
    </g>
    <g id="xtick_6">
     <g id="line2d_6">
      <g>
       <use style="stroke:#000000;stroke-width:0.8;" x="259.811462" xlink:href="#m239cdcc351" y="273.312"/>
      </g>
     </g>
     <g id="text_6">
      <!-- 12.5 -->
      <g transform="translate(248.678649 287.910437)scale(0.1 -0.1)">
       <use xlink:href="#DejaVuSans-49"/>
       <use x="63.623047" xlink:href="#DejaVuSans-50"/>
       <use x="127.246094" xlink:href="#DejaVuSans-46"/>
       <use x="159.033203" xlink:href="#DejaVuSans-53"/>
      </g>
     </g>
    </g>
    <g id="xtick_7">
     <g id="line2d_7">
      <g>
       <use style="stroke:#000000;stroke-width:0.8;" x="300.597209" xlink:href="#m239cdcc351" y="273.312"/>
      </g>
     </g>
     <g id="text_7">
      <!-- 15.0 -->
      <g transform="translate(289.464396 287.910437)scale(0.1 -0.1)">
       <use xlink:href="#DejaVuSans-49"/>
       <use x="63.623047" xlink:href="#DejaVuSans-53"/>
       <use x="127.246094" xlink:href="#DejaVuSans-46"/>
       <use x="159.033203" xlink:href="#DejaVuSans-48"/>
      </g>
     </g>
    </g>
    <g id="xtick_8">
     <g id="line2d_8">
      <g>
       <use style="stroke:#000000;stroke-width:0.8;" x="341.382956" xlink:href="#m239cdcc351" y="273.312"/>
      </g>
     </g>
     <g id="text_8">
      <!-- 17.5 -->
      <g transform="translate(330.250143 287.910437)scale(0.1 -0.1)">
       <use xlink:href="#DejaVuSans-49"/>
       <use x="63.623047" xlink:href="#DejaVuSans-55"/>
       <use x="127.246094" xlink:href="#DejaVuSans-46"/>
       <use x="159.033203" xlink:href="#DejaVuSans-53"/>
      </g>
     </g>
    </g>
    <g id="xtick_9">
     <g id="line2d_9">
      <g>
       <use style="stroke:#000000;stroke-width:0.8;" x="382.168703" xlink:href="#m239cdcc351" y="273.312"/>
      </g>
     </g>
     <g id="text_9">
      <!-- 20.0 -->
      <g transform="translate(371.03589 287.910437)scale(0.1 -0.1)">
       <use xlink:href="#DejaVuSans-50"/>
       <use x="63.623047" xlink:href="#DejaVuSans-48"/>
       <use x="127.246094" xlink:href="#DejaVuSans-46"/>
       <use x="159.033203" xlink:href="#DejaVuSans-48"/>
      </g>
     </g>
    </g>
   </g>
   <g id="matplotlib.axis_2">
    <g id="ytick_1">
     <g id="line2d_10">
      <defs>
       <path d="M 0 0 
L -3.5 0 
" id="mf3c98039be" style="stroke:#000000;stroke-width:0.8;"/>
      </defs>
      <g>
       <use style="stroke:#000000;stroke-width:0.8;" x="39.65" xlink:href="#mf3c98039be" y="261.216"/>
      </g>
     </g>
     <g id="text_10">
      <!-- 0 -->
      <g transform="translate(26.2875 265.015219)scale(0.1 -0.1)">
       <use xlink:href="#DejaVuSans-48"/>
      </g>
     </g>
    </g>
    <g id="ytick_2">
     <g id="line2d_11">
      <g>
       <use style="stroke:#000000;stroke-width:0.8;" x="39.65" xlink:href="#mf3c98039be" y="222.057696"/>
      </g>
     </g>
     <g id="text_11">
      <!-- 500 -->
      <g transform="translate(13.5625 225.856915)scale(0.1 -0.1)">
       <use xlink:href="#DejaVuSans-53"/>
       <use x="63.623047" xlink:href="#DejaVuSans-48"/>
       <use x="127.246094" xlink:href="#DejaVuSans-48"/>
      </g>
     </g>
    </g>
    <g id="ytick_3">
     <g id="line2d_12">
      <g>
       <use style="stroke:#000000;stroke-width:0.8;" x="39.65" xlink:href="#mf3c98039be" y="182.899393"/>
      </g>
     </g>
     <g id="text_12">
      <!-- 1000 -->
      <g transform="translate(7.2 186.698611)scale(0.1 -0.1)">
       <use xlink:href="#DejaVuSans-49"/>
       <use x="63.623047" xlink:href="#DejaVuSans-48"/>
       <use x="127.246094" xlink:href="#DejaVuSans-48"/>
       <use x="190.869141" xlink:href="#DejaVuSans-48"/>
      </g>
     </g>
    </g>
    <g id="ytick_4">
     <g id="line2d_13">
      <g>
       <use style="stroke:#000000;stroke-width:0.8;" x="39.65" xlink:href="#mf3c98039be" y="143.741089"/>
      </g>
     </g>
     <g id="text_13">
      <!-- 1500 -->
      <g transform="translate(7.2 147.540308)scale(0.1 -0.1)">
       <use xlink:href="#DejaVuSans-49"/>
       <use x="63.623047" xlink:href="#DejaVuSans-53"/>
       <use x="127.246094" xlink:href="#DejaVuSans-48"/>
       <use x="190.869141" xlink:href="#DejaVuSans-48"/>
      </g>
     </g>
    </g>
    <g id="ytick_5">
     <g id="line2d_14">
      <g>
       <use style="stroke:#000000;stroke-width:0.8;" x="39.65" xlink:href="#mf3c98039be" y="104.582785"/>
      </g>
     </g>
     <g id="text_14">
      <!-- 2000 -->
      <g transform="translate(7.2 108.382004)scale(0.1 -0.1)">
       <use xlink:href="#DejaVuSans-50"/>
       <use x="63.623047" xlink:href="#DejaVuSans-48"/>
       <use x="127.246094" xlink:href="#DejaVuSans-48"/>
       <use x="190.869141" xlink:href="#DejaVuSans-48"/>
      </g>
     </g>
    </g>
    <g id="ytick_6">
     <g id="line2d_15">
      <g>
       <use style="stroke:#000000;stroke-width:0.8;" x="39.65" xlink:href="#mf3c98039be" y="65.424482"/>
      </g>
     </g>
     <g id="text_15">
      <!-- 2500 -->
      <g transform="translate(7.2 69.2237)scale(0.1 -0.1)">
       <use xlink:href="#DejaVuSans-50"/>
       <use x="63.623047" xlink:href="#DejaVuSans-53"/>
       <use x="127.246094" xlink:href="#DejaVuSans-48"/>
       <use x="190.869141" xlink:href="#DejaVuSans-48"/>
      </g>
     </g>
    </g>
    <g id="ytick_7">
     <g id="line2d_16">
      <g>
       <use style="stroke:#000000;stroke-width:0.8;" x="39.65" xlink:href="#mf3c98039be" y="26.266178"/>
      </g>
     </g>
     <g id="text_16">
      <!-- 3000 -->
      <g transform="translate(7.2 30.065397)scale(0.1 -0.1)">
       <defs>
        <path d="M 40.578125 39.3125 
Q 47.65625 37.796875 51.625 33 
Q 55.609375 28.21875 55.609375 21.1875 
Q 55.609375 10.40625 48.1875 4.484375 
Q 40.765625 -1.421875 27.09375 -1.421875 
Q 22.515625 -1.421875 17.65625 -0.515625 
Q 12.796875 0.390625 7.625 2.203125 
L 7.625 11.71875 
Q 11.71875 9.328125 16.59375 8.109375 
Q 21.484375 6.890625 26.8125 6.890625 
Q 36.078125 6.890625 40.9375 10.546875 
Q 45.796875 14.203125 45.796875 21.1875 
Q 45.796875 27.640625 41.28125 31.265625 
Q 36.765625 34.90625 28.71875 34.90625 
L 20.21875 34.90625 
L 20.21875 43.015625 
L 29.109375 43.015625 
Q 36.375 43.015625 40.234375 45.921875 
Q 44.09375 48.828125 44.09375 54.296875 
Q 44.09375 59.90625 40.109375 62.90625 
Q 36.140625 65.921875 28.71875 65.921875 
Q 24.65625 65.921875 20.015625 65.03125 
Q 15.375 64.15625 9.8125 62.3125 
L 9.8125 71.09375 
Q 15.4375 72.65625 20.34375 73.4375 
Q 25.25 74.21875 29.59375 74.21875 
Q 40.828125 74.21875 47.359375 69.109375 
Q 53.90625 64.015625 53.90625 55.328125 
Q 53.90625 49.265625 50.4375 45.09375 
Q 46.96875 40.921875 40.578125 39.3125 
z
" id="DejaVuSans-51"/>
       </defs>
       <use xlink:href="#DejaVuSans-51"/>
       <use x="63.623047" xlink:href="#DejaVuSans-48"/>
       <use x="127.246094" xlink:href="#DejaVuSans-48"/>
       <use x="190.869141" xlink:href="#DejaVuSans-48"/>
      </g>
     </g>
    </g>
   </g>
   <g id="line2d_17">
    <path clip-path="url(#p69e4e12a59)" d="M 55.882727 261.216 
L 59.961302 241.636848 
L 64.039877 223.945127 
L 68.118451 207.958887 
L 72.197026 193.513721 
L 76.275601 180.461069 
L 80.354175 168.666692 
L 84.43275 158.009294 
L 88.511325 148.379268 
L 92.589899 139.677577 
L 96.668474 131.81473 
L 100.747049 124.70986 
L 104.825624 118.2899 
L 108.904198 112.488824 
L 112.982773 107.246972 
L 117.061348 102.510435 
L 121.139922 98.230499 
L 125.218497 94.36315 
L 129.297072 90.868613 
L 133.375646 87.710949 
L 137.454221 84.857684 
L 141.532796 82.279474 
L 145.61137 79.949803 
L 149.689945 77.844713 
L 153.76852 75.942553 
L 157.847095 74.223762 
L 161.925669 72.670661 
L 166.004244 71.26728 
L 170.082819 69.999185 
L 174.161393 68.853334 
L 178.239968 67.817943 
L 182.318543 66.882364 
L 186.397117 66.036975 
L 190.475692 65.273081 
L 194.554267 64.582827 
L 198.632841 63.959113 
L 202.711416 63.395525 
L 206.789991 62.886267 
L 210.868566 62.426101 
L 214.94714 62.010296 
L 219.025715 61.634574 
L 223.10429 61.295071 
L 227.182864 60.988297 
L 231.261439 60.711096 
L 235.340014 60.460617 
L 239.418588 60.234284 
L 243.497163 60.029769 
L 247.575738 59.84497 
L 251.654312 59.677986 
L 255.732887 59.527098 
L 259.811462 59.390757 
L 263.890037 59.267558 
L 267.968611 59.156236 
L 272.047186 59.055646 
L 276.125761 58.964752 
L 280.204335 58.88262 
L 284.28291 58.808406 
L 288.361485 58.741347 
L 292.440059 58.680751 
L 296.518634 58.625998 
L 300.597209 58.576522 
L 304.675783 58.531816 
L 308.754358 58.491419 
L 312.832933 58.454917 
L 316.911508 58.421934 
L 320.990082 58.39213 
L 325.068657 58.365199 
L 329.147232 58.340864 
L 333.225806 58.318876 
L 337.304381 58.299007 
L 341.382956 58.281053 
L 345.46153 58.26483 
L 349.540105 58.250171 
L 353.61868 58.236925 
L 357.697254 58.224956 
L 361.775829 58.214141 
L 365.854404 58.204368 
L 369.932979 58.195538 
L 374.011553 58.187558 
L 378.090128 58.180348 
" style="fill:none;stroke:#1f77b4;stroke-linecap:square;stroke-width:1.5;"/>
   </g>
   <g id="line2d_18">
    <path clip-path="url(#p69e4e12a59)" d="M 55.882727 261.216 
L 59.961302 261.216 
L 64.039877 259.32857 
L 68.118451 256.189018 
L 72.197026 252.262514 
L 76.275601 247.886641 
L 80.354175 243.303578 
L 84.43275 238.684388 
L 88.511325 234.147355 
L 92.589899 229.771783 
L 96.668474 225.60838 
L 100.747049 221.687048 
L 104.825624 218.02271 
L 108.904198 214.619662 
L 112.982773 211.474803 
L 117.061348 208.580024 
L 121.139922 205.923969 
L 125.218497 203.493313 
L 129.297072 201.273687 
L 133.375646 199.250343 
L 137.454221 197.408607 
L 141.532796 195.734201 
L 145.61137 194.213448 
L 149.689945 192.8334 
L 153.76852 191.581908 
L 157.847095 190.447657 
L 161.925669 189.420161 
L 166.004244 188.489751 
L 170.082819 187.647539 
L 174.161393 186.885383 
L 178.239968 186.195836 
L 182.318543 185.572107 
L 186.397117 185.008007 
L 190.475692 184.497909 
L 194.554267 184.036697 
L 198.632841 183.619728 
L 202.711416 183.242788 
L 206.789991 182.90206 
L 210.868566 182.594082 
L 214.94714 182.315721 
L 219.025715 182.064138 
L 223.10429 181.836766 
L 227.182864 181.63128 
L 231.261439 181.445579 
L 235.340014 181.277762 
L 239.418588 181.126108 
L 243.497163 180.989062 
L 247.575738 180.86522 
L 251.654312 180.75331 
L 255.732887 180.652184 
L 259.811462 180.560802 
L 263.890037 180.478227 
L 267.968611 180.403611 
L 272.047186 180.336185 
L 276.125761 180.275259 
L 280.204335 180.220204 
L 284.28291 180.170457 
L 288.361485 180.125504 
L 292.440059 180.084885 
L 296.518634 180.048181 
L 300.597209 180.015015 
L 304.675783 179.985046 
L 308.754358 179.957965 
L 312.832933 179.933496 
L 316.911508 179.911385 
L 320.990082 179.891405 
L 325.068657 179.873352 
L 329.147232 179.857039 
L 333.225806 179.842298 
L 337.304381 179.828979 
L 341.382956 179.816943 
L 345.46153 179.806068 
L 349.540105 179.796241 
L 353.61868 179.787361 
L 357.697254 179.779337 
L 361.775829 179.772087 
L 365.854404 179.765536 
L 369.932979 179.759616 
L 374.011553 179.754267 
L 378.090128 179.749433 
" style="fill:none;stroke:#ff7f0e;stroke-linecap:square;stroke-width:1.5;"/>
   </g>
   <g id="line2d_19">
    <path clip-path="url(#p69e4e12a59)" d="M 55.882727 261.216 
L 64.039877 226.678376 
L 65.671307 219.708198 
L 68.934166 207.804074 
L 70.565596 203.183394 
L 73.828456 192.532335 
L 77.091316 183.290976 
L 78.722746 176.634064 
L 81.985605 166.844488 
L 83.617035 160.657476 
L 85.248465 156.115113 
L 86.879895 150.554634 
L 88.511325 146.48217 
L 90.142755 141.704857 
L 91.774185 138.18061 
L 93.405614 130.427266 
L 96.668474 125.49332 
L 99.931334 117.270076 
L 101.562764 114.137411 
L 103.194194 110.299898 
L 104.825624 107.0106 
L 106.457053 104.034569 
L 108.088483 102.311604 
L 109.719913 100.980221 
L 112.982773 98.865673 
L 114.614203 94.949843 
L 116.245633 93.931727 
L 117.877063 92.365395 
L 119.508492 89.389364 
L 121.139922 87.118182 
L 122.771352 83.985518 
L 124.402782 82.340869 
L 126.034212 79.364838 
L 127.665642 77.876822 
L 129.297072 75.683957 
L 130.928502 74.430892 
L 132.559931 73.021193 
L 135.822791 69.653579 
L 137.454221 66.834181 
L 139.085651 65.189532 
L 140.717081 65.111215 
L 142.348511 64.562999 
L 143.979941 64.876265 
L 145.61137 63.85815 
L 147.2428 61.195385 
L 148.87423 61.821918 
L 150.50566 58.845887 
L 152.13709 57.749454 
L 153.76852 55.634906 
L 155.39995 53.207091 
L 157.03138 54.61679 
L 158.66281 54.068574 
L 161.925669 50.46601 
L 163.557099 49.447894 
L 165.188529 47.724928 
L 166.819959 47.568295 
L 168.451389 47.255029 
L 171.714249 45.767013 
L 173.345678 45.218797 
L 174.977108 45.218797 
L 176.608538 43.260882 
L 178.239968 41.9295 
L 179.871398 42.556032 
L 181.502828 41.851183 
L 183.134258 42.790982 
L 184.765688 42.634349 
L 186.397117 42.321083 
L 188.028547 43.182565 
L 189.659977 43.652465 
L 191.291407 42.556032 
L 192.922837 41.068017 
L 194.554267 42.086133 
L 196.185697 39.893268 
L 197.817127 40.049901 
L 201.079986 39.501685 
L 202.711416 41.068017 
L 204.342846 40.441484 
L 205.974276 41.068017 
L 207.605706 41.068017 
L 209.237136 39.423368 
L 210.868566 38.405252 
L 212.499995 38.640202 
L 214.131425 39.658318 
L 215.762855 39.188418 
L 217.394285 39.188418 
L 219.025715 41.381283 
L 222.288575 39.423368 
L 223.920005 39.345051 
L 225.551434 36.682287 
L 227.182864 35.194271 
L 228.814294 32.766456 
L 230.445724 33.862889 
L 232.077154 31.435074 
L 233.708584 31.200124 
L 235.340014 29.555476 
L 236.971444 30.338642 
L 238.602873 29.947059 
L 240.234303 29.947059 
L 241.865733 29.163893 
L 243.497163 27.989143 
L 245.128593 25.796278 
L 246.760023 24.543213 
L 248.391453 25.013112 
L 250.022883 25.248062 
L 251.654312 24.699846 
L 253.285742 26.031228 
L 254.917172 24.856479 
L 256.548602 24.386579 
L 258.180032 22.898564 
L 259.811462 21.097282 
L 261.442892 21.097282 
L 263.074322 21.488865 
L 264.705751 21.645498 
L 266.337181 21.175599 
L 267.968611 22.506981 
L 269.600041 22.585298 
L 271.231471 23.44678 
L 272.862901 23.368464 
L 274.494331 23.760047 
L 276.125761 22.350348 
L 277.75719 23.994996 
L 279.38862 22.741931 
L 281.02005 23.133514 
L 282.65148 23.21183 
L 284.28291 24.386579 
L 285.91434 24.229946 
L 289.1772 23.21183 
L 290.80863 22.193714 
L 292.440059 23.055197 
L 294.071489 23.055197 
L 295.702919 22.350348 
L 297.334349 19.296 
L 298.965779 19.844216 
L 300.597209 22.663614 
L 302.228639 23.133514 
L 303.860069 22.663614 
L 305.491498 21.880448 
L 307.122928 23.760047 
L 308.754358 22.506981 
L 310.385788 22.663614 
L 312.017218 24.934796 
L 313.648648 25.404695 
L 315.280078 23.44678 
L 316.911508 26.031228 
L 318.542937 29.477159 
L 320.174367 28.06746 
L 321.805797 27.284294 
L 323.437227 28.772309 
L 325.068657 29.790425 
L 326.700087 29.555476 
L 328.331517 29.085576 
L 329.962947 29.320526 
L 331.594376 28.693993 
L 333.225806 26.971028 
L 334.857236 26.187861 
L 336.488666 25.717962 
L 338.120096 25.952912 
L 339.751526 26.501128 
L 341.382956 24.934796 
L 343.014386 26.266178 
L 344.645815 23.91668 
L 346.277245 24.778163 
L 347.908675 23.838363 
L 349.540105 24.856479 
L 351.171535 24.308263 
L 352.802965 24.15163 
L 354.434395 24.386579 
L 356.065825 24.229946 
L 357.697254 25.561329 
L 359.328684 24.856479 
L 360.960114 24.464896 
L 362.591544 25.013112 
L 364.222974 24.229946 
L 365.854404 26.422811 
L 367.485834 24.543213 
L 369.117264 23.055197 
L 370.748693 22.115398 
L 372.380123 21.723815 
L 374.011553 23.368464 
L 375.642983 23.44678 
L 377.274413 23.290147 
L 378.905843 23.603413 
L 380.537273 25.561329 
L 380.537273 25.561329 
" style="fill:none;stroke:#2ca02c;stroke-linecap:square;stroke-width:1.5;"/>
   </g>
   <g id="line2d_20">
    <path clip-path="url(#p69e4e12a59)" d="M 55.882727 261.216 
L 57.514157 261.137683 
L 59.145587 260.354517 
L 60.777017 259.962934 
L 62.408447 259.336401 
L 64.039877 258.239969 
L 65.671307 257.456803 
L 68.934166 254.794038 
L 72.197026 251.896324 
L 73.828456 249.546826 
L 75.459886 248.05881 
L 77.091316 246.335845 
L 78.722746 244.926146 
L 80.354175 243.20318 
L 81.985605 241.871798 
L 83.617035 240.305466 
L 85.248465 238.269234 
L 86.879895 236.624585 
L 88.511325 235.841419 
L 95.037044 229.576091 
L 98.299904 225.738577 
L 99.931334 224.642144 
L 101.562764 221.666113 
L 103.194194 219.081665 
L 104.825624 217.202067 
L 106.457053 214.382669 
L 109.719913 208.195657 
L 111.351343 205.297942 
L 114.614203 201.695378 
L 116.245633 198.641031 
L 117.877063 197.153015 
L 119.508492 195.038467 
L 121.139922 194.020351 
L 124.402782 192.297386 
L 126.034212 190.33947 
L 127.665642 189.869571 
L 129.297072 189.556304 
L 130.928502 187.363439 
L 132.559931 186.267007 
L 134.191361 184.935624 
L 135.822791 184.230775 
L 137.454221 182.821076 
L 139.085651 182.194543 
L 140.717081 180.001678 
L 142.348511 179.453462 
L 143.979941 176.947331 
L 145.61137 174.832782 
L 147.2428 174.989415 
L 148.87423 173.109817 
L 150.50566 173.971299 
L 152.13709 172.874867 
L 153.76852 172.561601 
L 155.39995 172.483284 
L 157.03138 169.272303 
L 158.66281 168.019237 
L 160.294239 166.061322 
L 161.925669 165.826372 
L 163.557099 166.374589 
L 165.188529 165.513106 
L 166.819959 163.085291 
L 170.082819 163.79014 
L 171.714249 162.693708 
L 173.345678 162.380442 
L 174.977108 161.910542 
L 176.608538 163.476874 
L 179.871398 163.006974 
L 181.502828 161.205692 
L 183.134258 160.814109 
L 184.765688 160.030943 
L 186.397117 158.934511 
L 188.028547 157.133229 
L 189.659977 155.645213 
L 191.291407 155.645213 
L 192.922837 156.585013 
L 194.554267 154.313831 
L 196.185697 153.452348 
L 197.817127 153.217399 
L 199.448556 152.512549 
L 201.079986 152.120966 
L 202.711416 151.57275 
L 205.974276 151.10285 
L 207.605706 152.277599 
L 209.237136 154.000565 
L 210.868566 154.470464 
L 214.131425 154.548781 
L 215.762855 154.313831 
L 217.394285 154.392148 
L 219.025715 153.139082 
L 220.657145 153.530665 
L 222.288575 154.783731 
L 223.920005 155.331947 
L 225.551434 157.368179 
L 227.182864 158.542928 
L 228.814294 158.934511 
L 230.445724 157.603129 
L 232.077154 157.603129 
L 233.708584 158.073028 
L 235.340014 156.663329 
L 236.971444 154.000565 
L 238.602873 154.627097 
L 240.234303 155.645213 
L 241.865733 154.470464 
L 243.497163 154.313831 
L 245.128593 154.783731 
L 246.760023 154.627097 
L 250.022883 151.886016 
L 251.654312 151.494433 
L 253.285742 150.163051 
L 254.917172 150.163051 
L 256.548602 149.849784 
L 258.180032 149.849784 
L 259.811462 150.8679 
L 261.442892 149.301568 
L 263.074322 149.928101 
L 264.705751 151.416117 
L 266.337181 151.416117 
L 267.968611 148.283452 
L 269.600041 148.361769 
L 271.231471 147.578603 
L 272.862901 147.108703 
L 274.494331 146.325537 
L 276.125761 146.325537 
L 277.75719 146.48217 
L 279.38862 147.813553 
L 281.02005 148.675035 
L 282.65148 149.066618 
L 284.28291 146.560487 
L 285.91434 146.24722 
L 287.54577 146.24722 
L 289.1772 147.030387 
L 290.80863 148.283452 
L 294.071489 148.048502 
L 295.702919 148.675035 
L 297.334349 150.241367 
L 298.965779 150.163051 
L 300.597209 148.518402 
L 302.228639 149.066618 
L 303.860069 149.144935 
L 305.491498 149.458201 
L 307.122928 147.578603 
L 308.754358 148.361769 
L 312.017218 146.090587 
L 313.648648 145.933954 
L 315.280078 147.108703 
L 316.911508 145.072471 
L 318.542937 143.349506 
L 320.174367 143.741089 
L 321.805797 142.174757 
L 323.437227 142.80129 
L 325.068657 142.879606 
L 326.700087 141.548224 
L 328.331517 141.939807 
L 329.962947 141.626541 
L 331.594376 142.409707 
L 333.225806 142.80129 
L 334.857236 142.879606 
L 336.488666 143.192873 
L 338.120096 141.548224 
L 339.751526 142.253073 
L 341.382956 143.271189 
L 343.014386 142.488023 
L 344.645815 145.699004 
L 346.277245 145.699004 
L 347.908675 146.48217 
L 349.540105 145.777321 
L 352.802965 145.229105 
L 354.434395 145.385738 
L 356.065825 144.367622 
L 357.697254 143.819406 
L 359.328684 144.054355 
L 360.960114 143.662772 
L 362.591544 144.602572 
L 364.222974 144.054355 
L 365.854404 142.253073 
L 367.485834 143.584456 
L 369.117264 143.271189 
L 370.748693 144.602572 
L 372.380123 143.662772 
L 374.011553 142.409707 
L 375.642983 143.271189 
L 377.274413 143.584456 
L 378.905843 144.759205 
L 380.537273 143.427823 
L 380.537273 143.427823 
" style="fill:none;stroke:#d62728;stroke-linecap:square;stroke-width:1.5;"/>
   </g>
   <g id="patch_3">
    <path d="M 39.65 273.312 
L 39.65 7.2 
" style="fill:none;stroke:#000000;stroke-linecap:square;stroke-linejoin:miter;stroke-width:0.8;"/>
   </g>
   <g id="patch_4">
    <path d="M 396.77 273.312 
L 396.77 7.2 
" style="fill:none;stroke:#000000;stroke-linecap:square;stroke-linejoin:miter;stroke-width:0.8;"/>
   </g>
   <g id="patch_5">
    <path d="M 39.65 273.312 
L 396.77 273.312 
" style="fill:none;stroke:#000000;stroke-linecap:square;stroke-linejoin:miter;stroke-width:0.8;"/>
   </g>
   <g id="patch_6">
    <path d="M 39.65 7.2 
L 396.77 7.2 
" style="fill:none;stroke:#000000;stroke-linecap:square;stroke-linejoin:miter;stroke-width:0.8;"/>
   </g>
  </g>
 </g>
 <defs>
  <clipPath id="p69e4e12a59">
   <rect height="266.112" width="357.12" x="39.65" y="7.2"/>
  </clipPath>
 </defs>
</svg>
