<?xml version="1.0" encoding="utf-8" standalone="no"?>
<!DOCTYPE svg PUBLIC "-//W3C//DTD SVG 1.1//EN"
  "http://www.w3.org/Graphics/SVG/1.1/DTD/svg11.dtd">
<!-- Created with matplotlib (https://matplotlib.org/) -->
<svg height="297.190125pt" version="1.1" viewBox="0 0 403.97 297.190125" width="403.97pt" xmlns="http://www.w3.org/2000/svg" xmlns:xlink="http://www.w3.org/1999/xlink">
 <metadata>
  <rdf:RDF xmlns:cc="http://creativecommons.org/ns#" xmlns:dc="http://purl.org/dc/elements/1.1/" xmlns:rdf="http://www.w3.org/1999/02/22-rdf-syntax-ns#">
   <cc:Work>
    <dc:type rdf:resource="http://purl.org/dc/dcmitype/StillImage"/>
    <dc:date>2020-12-15T06:46:22.578801</dc:date>
    <dc:format>image/svg+xml</dc:format>
    <dc:creator>
     <cc:Agent>
      <dc:title>Matplotlib v3.3.3, https://matplotlib.org/</dc:title>
     </cc:Agent>
    </dc:creator>
   </cc:Work>
  </rdf:RDF>
 </metadata>
 <defs>
  <style type="text/css">*{stroke-linecap:butt;stroke-linejoin:round;}</style>
 </defs>
 <g id="figure_1">
  <g id="patch_1">
   <path d="M 0 297.190125 
L 403.97 297.190125 
L 403.97 0 
L 0 0 
z
" style="fill:#ffffff;"/>
  </g>
  <g id="axes_1">
   <g id="patch_2">
    <path d="M 39.65 273.312 
L 396.77 273.312 
L 396.77 7.2 
L 39.65 7.2 
z
" style="fill:#ffffff;"/>
   </g>
   <g id="matplotlib.axis_1">
    <g id="xtick_1">
     <g id="line2d_1">
      <defs>
       <path d="M 0 0 
L 0 3.5 
" id="mc76b8987b7" style="stroke:#000000;stroke-width:0.8;"/>
      </defs>
      <g>
       <use style="stroke:#000000;stroke-width:0.8;" x="55.882727" xlink:href="#mc76b8987b7" y="273.312"/>
      </g>
     </g>
     <g id="text_1">
      <!-- 0.0 -->
      <g transform="translate(47.931165 287.910437)scale(0.1 -0.1)">
       <defs>
        <path d="M 31.78125 66.40625 
Q 24.171875 66.40625 20.328125 58.90625 
Q 16.5 51.421875 16.5 36.375 
Q 16.5 21.390625 20.328125 13.890625 
Q 24.171875 6.390625 31.78125 6.390625 
Q 39.453125 6.390625 43.28125 13.890625 
Q 47.125 21.390625 47.125 36.375 
Q 47.125 51.421875 43.28125 58.90625 
Q 39.453125 66.40625 31.78125 66.40625 
z
M 31.78125 74.21875 
Q 44.046875 74.21875 50.515625 64.515625 
Q 56.984375 54.828125 56.984375 36.375 
Q 56.984375 17.96875 50.515625 8.265625 
Q 44.046875 -1.421875 31.78125 -1.421875 
Q 19.53125 -1.421875 13.0625 8.265625 
Q 6.59375 17.96875 6.59375 36.375 
Q 6.59375 54.828125 13.0625 64.515625 
Q 19.53125 74.21875 31.78125 74.21875 
z
" id="DejaVuSans-48"/>
        <path d="M 10.6875 12.40625 
L 21 12.40625 
L 21 0 
L 10.6875 0 
z
" id="DejaVuSans-46"/>
       </defs>
       <use xlink:href="#DejaVuSans-48"/>
       <use x="63.623047" xlink:href="#DejaVuSans-46"/>
       <use x="95.410156" xlink:href="#DejaVuSans-48"/>
      </g>
     </g>
    </g>
    <g id="xtick_2">
     <g id="line2d_2">
      <g>
       <use style="stroke:#000000;stroke-width:0.8;" x="96.668474" xlink:href="#mc76b8987b7" y="273.312"/>
      </g>
     </g>
     <g id="text_2">
      <!-- 2.5 -->
      <g transform="translate(88.716912 287.910437)scale(0.1 -0.1)">
       <defs>
        <path d="M 19.1875 8.296875 
L 53.609375 8.296875 
L 53.609375 0 
L 7.328125 0 
L 7.328125 8.296875 
Q 12.9375 14.109375 22.625 23.890625 
Q 32.328125 33.6875 34.8125 36.53125 
Q 39.546875 41.84375 41.421875 45.53125 
Q 43.3125 49.21875 43.3125 52.78125 
Q 43.3125 58.59375 39.234375 62.25 
Q 35.15625 65.921875 28.609375 65.921875 
Q 23.96875 65.921875 18.8125 64.3125 
Q 13.671875 62.703125 7.8125 59.421875 
L 7.8125 69.390625 
Q 13.765625 71.78125 18.9375 73 
Q 24.125 74.21875 28.421875 74.21875 
Q 39.75 74.21875 46.484375 68.546875 
Q 53.21875 62.890625 53.21875 53.421875 
Q 53.21875 48.921875 51.53125 44.890625 
Q 49.859375 40.875 45.40625 35.40625 
Q 44.1875 33.984375 37.640625 27.21875 
Q 31.109375 20.453125 19.1875 8.296875 
z
" id="DejaVuSans-50"/>
        <path d="M 10.796875 72.90625 
L 49.515625 72.90625 
L 49.515625 64.59375 
L 19.828125 64.59375 
L 19.828125 46.734375 
Q 21.96875 47.46875 24.109375 47.828125 
Q 26.265625 48.1875 28.421875 48.1875 
Q 40.625 48.1875 47.75 41.5 
Q 54.890625 34.8125 54.890625 23.390625 
Q 54.890625 11.625 47.5625 5.09375 
Q 40.234375 -1.421875 26.90625 -1.421875 
Q 22.3125 -1.421875 17.546875 -0.640625 
Q 12.796875 0.140625 7.71875 1.703125 
L 7.71875 11.625 
Q 12.109375 9.234375 16.796875 8.0625 
Q 21.484375 6.890625 26.703125 6.890625 
Q 35.15625 6.890625 40.078125 11.328125 
Q 45.015625 15.765625 45.015625 23.390625 
Q 45.015625 31 40.078125 35.4375 
Q 35.15625 39.890625 26.703125 39.890625 
Q 22.75 39.890625 18.8125 39.015625 
Q 14.890625 38.140625 10.796875 36.28125 
z
" id="DejaVuSans-53"/>
       </defs>
       <use xlink:href="#DejaVuSans-50"/>
       <use x="63.623047" xlink:href="#DejaVuSans-46"/>
       <use x="95.410156" xlink:href="#DejaVuSans-53"/>
      </g>
     </g>
    </g>
    <g id="xtick_3">
     <g id="line2d_3">
      <g>
       <use style="stroke:#000000;stroke-width:0.8;" x="137.454221" xlink:href="#mc76b8987b7" y="273.312"/>
      </g>
     </g>
     <g id="text_3">
      <!-- 5.0 -->
      <g transform="translate(129.502659 287.910437)scale(0.1 -0.1)">
       <use xlink:href="#DejaVuSans-53"/>
       <use x="63.623047" xlink:href="#DejaVuSans-46"/>
       <use x="95.410156" xlink:href="#DejaVuSans-48"/>
      </g>
     </g>
    </g>
    <g id="xtick_4">
     <g id="line2d_4">
      <g>
       <use style="stroke:#000000;stroke-width:0.8;" x="178.239968" xlink:href="#mc76b8987b7" y="273.312"/>
      </g>
     </g>
     <g id="text_4">
      <!-- 7.5 -->
      <g transform="translate(170.288406 287.910437)scale(0.1 -0.1)">
       <defs>
        <path d="M 8.203125 72.90625 
L 55.078125 72.90625 
L 55.078125 68.703125 
L 28.609375 0 
L 18.3125 0 
L 43.21875 64.59375 
L 8.203125 64.59375 
z
" id="DejaVuSans-55"/>
       </defs>
       <use xlink:href="#DejaVuSans-55"/>
       <use x="63.623047" xlink:href="#DejaVuSans-46"/>
       <use x="95.410156" xlink:href="#DejaVuSans-53"/>
      </g>
     </g>
    </g>
    <g id="xtick_5">
     <g id="line2d_5">
      <g>
       <use style="stroke:#000000;stroke-width:0.8;" x="219.025715" xlink:href="#mc76b8987b7" y="273.312"/>
      </g>
     </g>
     <g id="text_5">
      <!-- 10.0 -->
      <g transform="translate(207.892902 287.910437)scale(0.1 -0.1)">
       <defs>
        <path d="M 12.40625 8.296875 
L 28.515625 8.296875 
L 28.515625 63.921875 
L 10.984375 60.40625 
L 10.984375 69.390625 
L 28.421875 72.90625 
L 38.28125 72.90625 
L 38.28125 8.296875 
L 54.390625 8.296875 
L 54.390625 0 
L 12.40625 0 
z
" id="DejaVuSans-49"/>
       </defs>
       <use xlink:href="#DejaVuSans-49"/>
       <use x="63.623047" xlink:href="#DejaVuSans-48"/>
       <use x="127.246094" xlink:href="#DejaVuSans-46"/>
       <use x="159.033203" xlink:href="#DejaVuSans-48"/>
      </g>
     </g>
    </g>
    <g id="xtick_6">
     <g id="line2d_6">
      <g>
       <use style="stroke:#000000;stroke-width:0.8;" x="259.811462" xlink:href="#mc76b8987b7" y="273.312"/>
      </g>
     </g>
     <g id="text_6">
      <!-- 12.5 -->
      <g transform="translate(248.678649 287.910437)scale(0.1 -0.1)">
       <use xlink:href="#DejaVuSans-49"/>
       <use x="63.623047" xlink:href="#DejaVuSans-50"/>
       <use x="127.246094" xlink:href="#DejaVuSans-46"/>
       <use x="159.033203" xlink:href="#DejaVuSans-53"/>
      </g>
     </g>
    </g>
    <g id="xtick_7">
     <g id="line2d_7">
      <g>
       <use style="stroke:#000000;stroke-width:0.8;" x="300.597209" xlink:href="#mc76b8987b7" y="273.312"/>
      </g>
     </g>
     <g id="text_7">
      <!-- 15.0 -->
      <g transform="translate(289.464396 287.910437)scale(0.1 -0.1)">
       <use xlink:href="#DejaVuSans-49"/>
       <use x="63.623047" xlink:href="#DejaVuSans-53"/>
       <use x="127.246094" xlink:href="#DejaVuSans-46"/>
       <use x="159.033203" xlink:href="#DejaVuSans-48"/>
      </g>
     </g>
    </g>
    <g id="xtick_8">
     <g id="line2d_8">
      <g>
       <use style="stroke:#000000;stroke-width:0.8;" x="341.382956" xlink:href="#mc76b8987b7" y="273.312"/>
      </g>
     </g>
     <g id="text_8">
      <!-- 17.5 -->
      <g transform="translate(330.250143 287.910437)scale(0.1 -0.1)">
       <use xlink:href="#DejaVuSans-49"/>
       <use x="63.623047" xlink:href="#DejaVuSans-55"/>
       <use x="127.246094" xlink:href="#DejaVuSans-46"/>
       <use x="159.033203" xlink:href="#DejaVuSans-53"/>
      </g>
     </g>
    </g>
    <g id="xtick_9">
     <g id="line2d_9">
      <g>
       <use style="stroke:#000000;stroke-width:0.8;" x="382.168703" xlink:href="#mc76b8987b7" y="273.312"/>
      </g>
     </g>
     <g id="text_9">
      <!-- 20.0 -->
      <g transform="translate(371.03589 287.910437)scale(0.1 -0.1)">
       <use xlink:href="#DejaVuSans-50"/>
       <use x="63.623047" xlink:href="#DejaVuSans-48"/>
       <use x="127.246094" xlink:href="#DejaVuSans-46"/>
       <use x="159.033203" xlink:href="#DejaVuSans-48"/>
      </g>
     </g>
    </g>
   </g>
   <g id="matplotlib.axis_2">
    <g id="ytick_1">
     <g id="line2d_10">
      <defs>
       <path d="M 0 0 
L -3.5 0 
" id="m499e5b0e8f" style="stroke:#000000;stroke-width:0.8;"/>
      </defs>
      <g>
       <use style="stroke:#000000;stroke-width:0.8;" x="39.65" xlink:href="#m499e5b0e8f" y="261.216"/>
      </g>
     </g>
     <g id="text_10">
      <!-- 0 -->
      <g transform="translate(26.2875 265.015219)scale(0.1 -0.1)">
       <use xlink:href="#DejaVuSans-48"/>
      </g>
     </g>
    </g>
    <g id="ytick_2">
     <g id="line2d_11">
      <g>
       <use style="stroke:#000000;stroke-width:0.8;" x="39.65" xlink:href="#m499e5b0e8f" y="226.862876"/>
      </g>
     </g>
     <g id="text_11">
      <!-- 500 -->
      <g transform="translate(13.5625 230.662095)scale(0.1 -0.1)">
       <use xlink:href="#DejaVuSans-53"/>
       <use x="63.623047" xlink:href="#DejaVuSans-48"/>
       <use x="127.246094" xlink:href="#DejaVuSans-48"/>
      </g>
     </g>
    </g>
    <g id="ytick_3">
     <g id="line2d_12">
      <g>
       <use style="stroke:#000000;stroke-width:0.8;" x="39.65" xlink:href="#m499e5b0e8f" y="192.509752"/>
      </g>
     </g>
     <g id="text_12">
      <!-- 1000 -->
      <g transform="translate(7.2 196.308971)scale(0.1 -0.1)">
       <use xlink:href="#DejaVuSans-49"/>
       <use x="63.623047" xlink:href="#DejaVuSans-48"/>
       <use x="127.246094" xlink:href="#DejaVuSans-48"/>
       <use x="190.869141" xlink:href="#DejaVuSans-48"/>
      </g>
     </g>
    </g>
    <g id="ytick_4">
     <g id="line2d_13">
      <g>
       <use style="stroke:#000000;stroke-width:0.8;" x="39.65" xlink:href="#m499e5b0e8f" y="158.156628"/>
      </g>
     </g>
     <g id="text_13">
      <!-- 1500 -->
      <g transform="translate(7.2 161.955847)scale(0.1 -0.1)">
       <use xlink:href="#DejaVuSans-49"/>
       <use x="63.623047" xlink:href="#DejaVuSans-53"/>
       <use x="127.246094" xlink:href="#DejaVuSans-48"/>
       <use x="190.869141" xlink:href="#DejaVuSans-48"/>
      </g>
     </g>
    </g>
    <g id="ytick_5">
     <g id="line2d_14">
      <g>
       <use style="stroke:#000000;stroke-width:0.8;" x="39.65" xlink:href="#m499e5b0e8f" y="123.803504"/>
      </g>
     </g>
     <g id="text_14">
      <!-- 2000 -->
      <g transform="translate(7.2 127.602722)scale(0.1 -0.1)">
       <use xlink:href="#DejaVuSans-50"/>
       <use x="63.623047" xlink:href="#DejaVuSans-48"/>
       <use x="127.246094" xlink:href="#DejaVuSans-48"/>
       <use x="190.869141" xlink:href="#DejaVuSans-48"/>
      </g>
     </g>
    </g>
    <g id="ytick_6">
     <g id="line2d_15">
      <g>
       <use style="stroke:#000000;stroke-width:0.8;" x="39.65" xlink:href="#m499e5b0e8f" y="89.45038"/>
      </g>
     </g>
     <g id="text_15">
      <!-- 2500 -->
      <g transform="translate(7.2 93.249598)scale(0.1 -0.1)">
       <use xlink:href="#DejaVuSans-50"/>
       <use x="63.623047" xlink:href="#DejaVuSans-53"/>
       <use x="127.246094" xlink:href="#DejaVuSans-48"/>
       <use x="190.869141" xlink:href="#DejaVuSans-48"/>
      </g>
     </g>
    </g>
    <g id="ytick_7">
     <g id="line2d_16">
      <g>
       <use style="stroke:#000000;stroke-width:0.8;" x="39.65" xlink:href="#m499e5b0e8f" y="55.097256"/>
      </g>
     </g>
     <g id="text_16">
      <!-- 3000 -->
      <g transform="translate(7.2 58.896474)scale(0.1 -0.1)">
       <defs>
        <path d="M 40.578125 39.3125 
Q 47.65625 37.796875 51.625 33 
Q 55.609375 28.21875 55.609375 21.1875 
Q 55.609375 10.40625 48.1875 4.484375 
Q 40.765625 -1.421875 27.09375 -1.421875 
Q 22.515625 -1.421875 17.65625 -0.515625 
Q 12.796875 0.390625 7.625 2.203125 
L 7.625 11.71875 
Q 11.71875 9.328125 16.59375 8.109375 
Q 21.484375 6.890625 26.8125 6.890625 
Q 36.078125 6.890625 40.9375 10.546875 
Q 45.796875 14.203125 45.796875 21.1875 
Q 45.796875 27.640625 41.28125 31.265625 
Q 36.765625 34.90625 28.71875 34.90625 
L 20.21875 34.90625 
L 20.21875 43.015625 
L 29.109375 43.015625 
Q 36.375 43.015625 40.234375 45.921875 
Q 44.09375 48.828125 44.09375 54.296875 
Q 44.09375 59.90625 40.109375 62.90625 
Q 36.140625 65.921875 28.71875 65.921875 
Q 24.65625 65.921875 20.015625 65.03125 
Q 15.375 64.15625 9.8125 62.3125 
L 9.8125 71.09375 
Q 15.4375 72.65625 20.34375 73.4375 
Q 25.25 74.21875 29.59375 74.21875 
Q 40.828125 74.21875 47.359375 69.109375 
Q 53.90625 64.015625 53.90625 55.328125 
Q 53.90625 49.265625 50.4375 45.09375 
Q 46.96875 40.921875 40.578125 39.3125 
z
" id="DejaVuSans-51"/>
       </defs>
       <use xlink:href="#DejaVuSans-51"/>
       <use x="63.623047" xlink:href="#DejaVuSans-48"/>
       <use x="127.246094" xlink:href="#DejaVuSans-48"/>
       <use x="190.869141" xlink:href="#DejaVuSans-48"/>
      </g>
     </g>
    </g>
    <g id="ytick_8">
     <g id="line2d_17">
      <g>
       <use style="stroke:#000000;stroke-width:0.8;" x="39.65" xlink:href="#m499e5b0e8f" y="20.744132"/>
      </g>
     </g>
     <g id="text_17">
      <!-- 3500 -->
      <g transform="translate(7.2 24.54335)scale(0.1 -0.1)">
       <use xlink:href="#DejaVuSans-51"/>
       <use x="63.623047" xlink:href="#DejaVuSans-53"/>
       <use x="127.246094" xlink:href="#DejaVuSans-48"/>
       <use x="190.869141" xlink:href="#DejaVuSans-48"/>
      </g>
     </g>
    </g>
   </g>
   <g id="line2d_18">
    <path clip-path="url(#p0f7adebd55)" d="M 55.882727 261.216 
L 72.197026 192.509752 
L 88.511325 143.281725 
L 104.825624 108.009844 
L 121.139922 82.737541 
L 137.454221 64.629936 
L 153.76852 51.655837 
L 170.082819 42.359895 
L 186.397117 35.699353 
L 202.711416 30.927074 
L 219.025715 27.507736 
L 235.340014 25.057781 
L 251.654312 23.302388 
L 267.968611 22.044649 
L 284.28291 21.143479 
L 300.597209 20.49779 
L 316.911508 20.035155 
L 333.225806 19.703676 
L 349.540105 19.466172 
L 365.854404 19.296 
" style="fill:none;stroke:#1f77b4;stroke-linecap:square;stroke-width:1.5;"/>
   </g>
   <g id="line2d_19">
    <path clip-path="url(#p0f7adebd55)" d="M 55.882727 261.216 
L 72.197026 261.216 
L 88.511325 238.313917 
L 104.825624 210.146646 
L 121.139922 183.928275 
L 137.454221 162.043662 
L 153.76852 144.772234 
L 170.082819 131.580383 
L 186.397117 121.709039 
L 202.711416 114.420911 
L 219.025715 109.088426 
L 235.340014 105.210949 
L 251.654312 102.4036 
L 267.968611 100.377177 
L 284.28291 98.917564 
L 300.597209 97.867809 
L 316.911508 97.113636 
L 333.225806 96.572231 
L 349.540105 96.183781 
L 365.854404 95.905183 
" style="fill:none;stroke:#ff7f0e;stroke-linecap:square;stroke-width:1.5;"/>
   </g>
   <g id="line2d_20">
    <path clip-path="url(#p0f7adebd55)" d="M 55.882727 261.216 
L 57.514157 256.475269 
L 59.145587 249.948175 
L 60.777017 242.802725 
L 64.039877 231.397488 
L 65.671307 226.24452 
L 67.302736 220.19837 
L 68.934166 214.907989 
L 70.565596 208.861839 
L 72.197026 203.70887 
L 73.828456 198.006252 
L 75.459886 193.883877 
L 78.722746 184.196296 
L 80.354175 180.211333 
L 83.617035 171.829171 
L 85.248465 168.599978 
L 86.879895 164.134071 
L 88.511325 161.248409 
L 90.142755 155.54579 
L 91.774185 153.072365 
L 93.405614 149.087403 
L 95.037044 145.789503 
L 96.668474 141.873247 
L 98.299904 139.193703 
L 103.194194 129.231297 
L 106.457053 126.208222 
L 108.088483 125.658572 
L 109.719913 123.116441 
L 111.351343 120.368191 
L 112.982773 118.238298 
L 114.614203 115.696166 
L 116.245633 114.459454 
L 119.508492 110.062254 
L 121.139922 108.825542 
L 122.771352 106.901767 
L 124.402782 104.771873 
L 126.034212 103.878692 
L 127.665642 101.748798 
L 129.297072 101.748798 
L 130.928502 99.275373 
L 134.191361 97.557717 
L 135.822791 96.252298 
L 137.454221 93.84758 
L 139.085651 92.336042 
L 142.348511 90.343561 
L 143.979941 87.870136 
L 145.61137 86.015067 
L 147.2428 86.358598 
L 148.87423 84.915767 
L 150.50566 85.534124 
L 152.13709 83.816467 
L 153.76852 83.472936 
L 155.39995 81.617867 
L 157.03138 80.65598 
L 158.66281 80.175036 
L 160.294239 80.65598 
L 161.925669 79.900211 
L 163.557099 79.625386 
L 165.188529 79.968917 
L 166.819959 78.594792 
L 168.451389 79.419267 
L 170.082819 77.770317 
L 171.714249 76.80843 
L 173.345678 76.396193 
L 174.977108 75.777836 
L 178.239968 72.823468 
L 179.871398 73.441824 
L 181.502828 71.792874 
L 183.134258 69.800393 
L 184.765688 68.01403 
L 186.397117 67.189555 
L 188.028547 65.884137 
L 189.659977 67.739205 
L 191.291407 66.983437 
L 192.922837 66.433787 
L 194.554267 66.708612 
L 196.185697 68.082736 
L 201.079986 67.670499 
L 202.711416 70.006511 
L 204.342846 69.800393 
L 205.974276 68.632386 
L 207.605706 67.189555 
L 209.237136 66.021549 
L 210.868566 64.647424 
L 212.499995 62.586237 
L 214.131425 62.792355 
L 215.762855 62.586237 
L 217.394285 64.71613 
L 219.025715 63.548124 
L 220.657145 64.235187 
L 222.288575 63.754243 
L 223.920005 61.693055 
L 225.551434 61.830468 
L 227.182864 61.41823 
L 228.814294 62.242705 
L 230.445724 62.792355 
L 232.077154 61.486937 
L 233.708584 60.937287 
L 235.340014 61.41823 
L 236.971444 61.624349 
L 238.602873 61.624349 
L 240.234303 61.96788 
L 241.865733 63.135887 
L 243.497163 62.311412 
L 245.128593 60.181518 
L 246.760023 60.731168 
L 248.391453 62.998474 
L 250.022883 63.06718 
L 251.654312 63.410712 
L 253.285742 63.204593 
L 254.917172 62.173999 
L 256.548602 62.242705 
L 258.180032 60.250224 
L 259.811462 59.563162 
L 261.442892 59.013512 
L 263.074322 59.150924 
L 264.705751 59.425749 
L 266.337181 60.31893 
L 267.968611 59.906693 
L 271.231471 57.914212 
L 272.862901 58.66998 
L 274.494331 56.883618 
L 276.125761 57.982918 
L 277.75719 58.120331 
L 279.38862 57.021031 
L 281.02005 57.295856 
L 282.65148 56.608793 
L 284.28291 57.364562 
L 285.91434 57.227149 
L 287.54577 56.402674 
L 289.1772 56.746206 
L 290.80863 56.952324 
L 292.440059 56.402674 
L 294.071489 55.440787 
L 295.702919 54.753724 
L 297.334349 55.646906 
L 298.965779 56.883618 
L 300.597209 57.089737 
L 302.228639 58.120331 
L 303.860069 58.463862 
L 305.491498 59.21963 
L 307.122928 59.425749 
L 308.754358 58.807393 
L 310.385788 60.387637 
L 312.017218 58.532568 
L 313.648648 57.845506 
L 315.280078 57.639387 
L 318.542937 58.395156 
L 320.174367 59.013512 
L 321.805797 57.433268 
L 323.437227 58.601274 
L 325.068657 58.463862 
L 326.700087 58.463862 
L 329.962947 57.295856 
L 331.594376 56.608793 
L 333.225806 57.570681 
L 334.857236 58.120331 
L 336.488666 58.051624 
L 338.120096 58.120331 
L 339.751526 57.501974 
L 341.382956 56.127849 
L 343.014386 55.509493 
L 344.645815 55.921731 
L 346.277245 55.853024 
L 347.908675 56.196556 
L 349.540105 57.570681 
L 351.171535 55.990437 
L 352.802965 56.540087 
L 354.434395 54.685018 
L 356.065825 54.891137 
L 357.697254 54.959843 
L 359.328684 55.990437 
L 360.960114 55.784318 
L 362.591544 57.089737 
L 364.222974 55.646906 
L 365.854404 56.952324 
L 367.485834 57.021031 
L 369.117264 55.578199 
L 370.748693 56.608793 
L 372.380123 56.608793 
L 374.011553 57.845506 
L 377.274413 57.158443 
L 378.905843 58.326449 
L 380.537273 60.044105 
L 380.537273 60.044105 
" style="fill:none;stroke:#2ca02c;stroke-linecap:square;stroke-width:1.5;"/>
   </g>
   <g id="line2d_21">
    <path clip-path="url(#p0f7adebd55)" d="M 55.882727 261.216 
L 59.145587 260.872469 
L 60.777017 260.322819 
L 62.408447 259.56705 
L 64.039877 258.673869 
L 65.671307 257.574569 
L 67.302736 256.681388 
L 68.934166 256.063031 
L 70.565596 254.826319 
L 72.197026 253.383488 
L 73.828456 252.352894 
L 75.459886 250.635238 
L 77.091316 248.367932 
L 78.722746 247.749575 
L 83.617035 242.390488 
L 86.879895 240.123182 
L 88.511325 238.130701 
L 90.142755 237.100107 
L 93.405614 233.38997 
L 95.037044 230.985251 
L 96.668474 229.885951 
L 98.299904 228.099588 
L 99.931334 226.519345 
L 101.562764 225.351338 
L 103.194194 223.221445 
L 106.457053 218.618126 
L 108.088483 215.526345 
L 109.719913 214.427045 
L 111.351343 212.297151 
L 112.982773 210.716908 
L 114.614203 208.724426 
L 116.245633 206.319708 
L 117.877063 204.80817 
L 119.508492 203.021808 
L 121.139922 202.678277 
L 122.771352 200.96062 
L 124.402782 200.617089 
L 126.034212 198.968139 
L 127.665642 198.143664 
L 129.297072 195.945064 
L 130.928502 196.151183 
L 132.559931 194.502233 
L 134.191361 193.815171 
L 137.454221 192.715871 
L 139.085651 192.303633 
L 140.717081 192.372339 
L 142.348511 191.341746 
L 143.979941 191.135627 
L 145.61137 189.761502 
L 147.2428 187.837727 
L 148.87423 187.769021 
L 150.50566 185.982658 
L 152.13709 185.089477 
L 153.76852 185.158183 
L 155.39995 183.646646 
L 157.03138 183.096996 
L 158.66281 182.684758 
L 160.294239 182.616052 
L 161.925669 181.585458 
L 163.557099 181.37934 
L 165.188529 180.486158 
L 166.819959 180.898396 
L 170.082819 180.486158 
L 171.714249 179.386858 
L 174.977108 178.08144 
L 178.239968 177.463084 
L 179.871398 175.195777 
L 181.502828 174.371302 
L 183.134258 174.714834 
L 184.765688 174.440009 
L 186.397117 174.440009 
L 188.028547 174.302596 
L 189.659977 171.48564 
L 191.291407 171.348227 
L 194.554267 170.111515 
L 196.185697 168.18774 
L 197.817127 167.157146 
L 201.079986 166.057846 
L 202.711416 165.164665 
L 204.342846 166.53879 
L 207.605706 166.195259 
L 209.237136 167.157146 
L 210.868566 167.019734 
L 212.499995 167.363265 
L 214.131425 167.500678 
L 215.762855 166.951028 
L 217.394285 165.98914 
L 219.025715 165.783021 
L 220.657145 165.027253 
L 222.288575 164.546309 
L 223.920005 165.43949 
L 225.551434 165.027253 
L 227.182864 167.08844 
L 228.814294 166.676203 
L 230.445724 165.714315 
L 232.077154 166.607496 
L 233.708584 166.263965 
L 235.340014 165.095959 
L 236.971444 164.752428 
L 238.602873 164.88984 
L 241.865733 163.378303 
L 245.128593 163.859246 
L 246.760023 161.798059 
L 248.391453 162.210296 
L 250.022883 163.034771 
L 251.654312 161.866765 
L 253.285742 161.59194 
L 254.917172 160.904878 
L 258.180032 163.034771 
L 259.811462 164.477603 
L 261.442892 163.24089 
L 263.074322 162.828653 
L 264.705751 161.660646 
L 267.968611 160.698759 
L 269.600041 160.49264 
L 271.231471 160.836171 
L 272.862901 160.836171 
L 274.494331 162.279003 
L 276.125761 162.004178 
L 277.75719 163.653128 
L 279.38862 164.134071 
L 281.02005 163.653128 
L 282.65148 163.859246 
L 285.91434 163.584421 
L 287.54577 163.034771 
L 289.1772 163.447009 
L 290.80863 164.065365 
L 292.440059 163.24089 
L 294.071489 163.721834 
L 295.702919 163.79054 
L 297.334349 163.996659 
L 298.965779 162.416415 
L 300.597209 162.485121 
L 303.860069 160.630053 
L 305.491498 160.904878 
L 307.122928 160.423934 
L 308.754358 159.599459 
L 310.385788 159.118515 
L 313.648648 160.904878 
L 315.280078 161.110996 
L 316.911508 160.217815 
L 318.542937 158.362747 
L 320.174367 158.362747 
L 321.805797 159.736872 
L 323.437227 158.568865 
L 325.068657 158.774984 
L 326.700087 157.332153 
L 328.331517 157.538272 
L 329.962947 157.538272 
L 331.594376 157.74439 
L 333.225806 157.74439 
L 334.857236 158.431453 
L 336.488666 158.912397 
L 338.120096 159.049809 
L 341.382956 161.385821 
L 343.014386 161.317115 
L 344.645815 160.836171 
L 347.908675 162.553828 
L 349.540105 162.004178 
L 351.171535 162.072884 
L 352.802965 161.660646 
L 354.434395 162.897359 
L 356.065825 164.546309 
L 357.697254 164.821134 
L 359.328684 163.721834 
L 360.960114 164.958546 
L 362.591544 162.966065 
L 364.222974 162.622534 
L 365.854404 162.485121 
L 367.485834 163.172184 
L 369.117264 163.309596 
L 370.748693 162.553828 
L 372.380123 162.69124 
L 374.011553 163.309596 
L 375.642983 164.477603 
L 377.274413 164.683721 
L 380.537273 161.729353 
L 380.537273 161.729353 
" style="fill:none;stroke:#d62728;stroke-linecap:square;stroke-width:1.5;"/>
   </g>
   <g id="patch_3">
    <path d="M 39.65 273.312 
L 39.65 7.2 
" style="fill:none;stroke:#000000;stroke-linecap:square;stroke-linejoin:miter;stroke-width:0.8;"/>
   </g>
   <g id="patch_4">
    <path d="M 396.77 273.312 
L 396.77 7.2 
" style="fill:none;stroke:#000000;stroke-linecap:square;stroke-linejoin:miter;stroke-width:0.8;"/>
   </g>
   <g id="patch_5">
    <path d="M 39.65 273.312 
L 396.77 273.312 
" style="fill:none;stroke:#000000;stroke-linecap:square;stroke-linejoin:miter;stroke-width:0.8;"/>
   </g>
   <g id="patch_6">
    <path d="M 39.65 7.2 
L 396.77 7.2 
" style="fill:none;stroke:#000000;stroke-linecap:square;stroke-linejoin:miter;stroke-width:0.8;"/>
   </g>
  </g>
 </g>
 <defs>
  <clipPath id="p0f7adebd55">
   <rect height="266.112" width="357.12" x="39.65" y="7.2"/>
  </clipPath>
 </defs>
</svg>
