<?xml version="1.0" encoding="utf-8" standalone="no"?>
<!DOCTYPE svg PUBLIC "-//W3C//DTD SVG 1.1//EN"
  "http://www.w3.org/Graphics/SVG/1.1/DTD/svg11.dtd">
<!-- Created with matplotlib (https://matplotlib.org/) -->
<svg height="297.190125pt" version="1.1" viewBox="0 0 403.97 297.190125" width="403.97pt" xmlns="http://www.w3.org/2000/svg" xmlns:xlink="http://www.w3.org/1999/xlink">
 <metadata>
  <rdf:RDF xmlns:cc="http://creativecommons.org/ns#" xmlns:dc="http://purl.org/dc/elements/1.1/" xmlns:rdf="http://www.w3.org/1999/02/22-rdf-syntax-ns#">
   <cc:Work>
    <dc:type rdf:resource="http://purl.org/dc/dcmitype/StillImage"/>
    <dc:date>2020-11-10T17:45:30.272321</dc:date>
    <dc:format>image/svg+xml</dc:format>
    <dc:creator>
     <cc:Agent>
      <dc:title>Matplotlib v3.3.2, https://matplotlib.org/</dc:title>
     </cc:Agent>
    </dc:creator>
   </cc:Work>
  </rdf:RDF>
 </metadata>
 <defs>
  <style type="text/css">*{stroke-linecap:butt;stroke-linejoin:round;}</style>
 </defs>
 <g id="figure_1">
  <g id="patch_1">
   <path d="M 0 297.190125 
L 403.97 297.190125 
L 403.97 0 
L 0 0 
z
" style="fill:#ffffff;"/>
  </g>
  <g id="axes_1">
   <g id="patch_2">
    <path d="M 39.65 273.312 
L 396.77 273.312 
L 396.77 7.2 
L 39.65 7.2 
z
" style="fill:#ffffff;"/>
   </g>
   <g id="matplotlib.axis_1">
    <g id="xtick_1">
     <g id="line2d_1">
      <defs>
       <path d="M 0 0 
L 0 3.5 
" id="m49d7340505" style="stroke:#000000;stroke-width:0.8;"/>
      </defs>
      <g>
       <use style="stroke:#000000;stroke-width:0.8;" x="55.882727" xlink:href="#m49d7340505" y="273.312"/>
      </g>
     </g>
     <g id="text_1">
      <!-- 0.0 -->
      <g transform="translate(47.931165 287.910437)scale(0.1 -0.1)">
       <defs>
        <path d="M 31.78125 66.40625 
Q 24.171875 66.40625 20.328125 58.90625 
Q 16.5 51.421875 16.5 36.375 
Q 16.5 21.390625 20.328125 13.890625 
Q 24.171875 6.390625 31.78125 6.390625 
Q 39.453125 6.390625 43.28125 13.890625 
Q 47.125 21.390625 47.125 36.375 
Q 47.125 51.421875 43.28125 58.90625 
Q 39.453125 66.40625 31.78125 66.40625 
z
M 31.78125 74.21875 
Q 44.046875 74.21875 50.515625 64.515625 
Q 56.984375 54.828125 56.984375 36.375 
Q 56.984375 17.96875 50.515625 8.265625 
Q 44.046875 -1.421875 31.78125 -1.421875 
Q 19.53125 -1.421875 13.0625 8.265625 
Q 6.59375 17.96875 6.59375 36.375 
Q 6.59375 54.828125 13.0625 64.515625 
Q 19.53125 74.21875 31.78125 74.21875 
z
" id="DejaVuSans-48"/>
        <path d="M 10.6875 12.40625 
L 21 12.40625 
L 21 0 
L 10.6875 0 
z
" id="DejaVuSans-46"/>
       </defs>
       <use xlink:href="#DejaVuSans-48"/>
       <use x="63.623047" xlink:href="#DejaVuSans-46"/>
       <use x="95.410156" xlink:href="#DejaVuSans-48"/>
      </g>
     </g>
    </g>
    <g id="xtick_2">
     <g id="line2d_2">
      <g>
       <use style="stroke:#000000;stroke-width:0.8;" x="96.668474" xlink:href="#m49d7340505" y="273.312"/>
      </g>
     </g>
     <g id="text_2">
      <!-- 2.5 -->
      <g transform="translate(88.716912 287.910437)scale(0.1 -0.1)">
       <defs>
        <path d="M 19.1875 8.296875 
L 53.609375 8.296875 
L 53.609375 0 
L 7.328125 0 
L 7.328125 8.296875 
Q 12.9375 14.109375 22.625 23.890625 
Q 32.328125 33.6875 34.8125 36.53125 
Q 39.546875 41.84375 41.421875 45.53125 
Q 43.3125 49.21875 43.3125 52.78125 
Q 43.3125 58.59375 39.234375 62.25 
Q 35.15625 65.921875 28.609375 65.921875 
Q 23.96875 65.921875 18.8125 64.3125 
Q 13.671875 62.703125 7.8125 59.421875 
L 7.8125 69.390625 
Q 13.765625 71.78125 18.9375 73 
Q 24.125 74.21875 28.421875 74.21875 
Q 39.75 74.21875 46.484375 68.546875 
Q 53.21875 62.890625 53.21875 53.421875 
Q 53.21875 48.921875 51.53125 44.890625 
Q 49.859375 40.875 45.40625 35.40625 
Q 44.1875 33.984375 37.640625 27.21875 
Q 31.109375 20.453125 19.1875 8.296875 
z
" id="DejaVuSans-50"/>
        <path d="M 10.796875 72.90625 
L 49.515625 72.90625 
L 49.515625 64.59375 
L 19.828125 64.59375 
L 19.828125 46.734375 
Q 21.96875 47.46875 24.109375 47.828125 
Q 26.265625 48.1875 28.421875 48.1875 
Q 40.625 48.1875 47.75 41.5 
Q 54.890625 34.8125 54.890625 23.390625 
Q 54.890625 11.625 47.5625 5.09375 
Q 40.234375 -1.421875 26.90625 -1.421875 
Q 22.3125 -1.421875 17.546875 -0.640625 
Q 12.796875 0.140625 7.71875 1.703125 
L 7.71875 11.625 
Q 12.109375 9.234375 16.796875 8.0625 
Q 21.484375 6.890625 26.703125 6.890625 
Q 35.15625 6.890625 40.078125 11.328125 
Q 45.015625 15.765625 45.015625 23.390625 
Q 45.015625 31 40.078125 35.4375 
Q 35.15625 39.890625 26.703125 39.890625 
Q 22.75 39.890625 18.8125 39.015625 
Q 14.890625 38.140625 10.796875 36.28125 
z
" id="DejaVuSans-53"/>
       </defs>
       <use xlink:href="#DejaVuSans-50"/>
       <use x="63.623047" xlink:href="#DejaVuSans-46"/>
       <use x="95.410156" xlink:href="#DejaVuSans-53"/>
      </g>
     </g>
    </g>
    <g id="xtick_3">
     <g id="line2d_3">
      <g>
       <use style="stroke:#000000;stroke-width:0.8;" x="137.454221" xlink:href="#m49d7340505" y="273.312"/>
      </g>
     </g>
     <g id="text_3">
      <!-- 5.0 -->
      <g transform="translate(129.502659 287.910437)scale(0.1 -0.1)">
       <use xlink:href="#DejaVuSans-53"/>
       <use x="63.623047" xlink:href="#DejaVuSans-46"/>
       <use x="95.410156" xlink:href="#DejaVuSans-48"/>
      </g>
     </g>
    </g>
    <g id="xtick_4">
     <g id="line2d_4">
      <g>
       <use style="stroke:#000000;stroke-width:0.8;" x="178.239968" xlink:href="#m49d7340505" y="273.312"/>
      </g>
     </g>
     <g id="text_4">
      <!-- 7.5 -->
      <g transform="translate(170.288406 287.910437)scale(0.1 -0.1)">
       <defs>
        <path d="M 8.203125 72.90625 
L 55.078125 72.90625 
L 55.078125 68.703125 
L 28.609375 0 
L 18.3125 0 
L 43.21875 64.59375 
L 8.203125 64.59375 
z
" id="DejaVuSans-55"/>
       </defs>
       <use xlink:href="#DejaVuSans-55"/>
       <use x="63.623047" xlink:href="#DejaVuSans-46"/>
       <use x="95.410156" xlink:href="#DejaVuSans-53"/>
      </g>
     </g>
    </g>
    <g id="xtick_5">
     <g id="line2d_5">
      <g>
       <use style="stroke:#000000;stroke-width:0.8;" x="219.025715" xlink:href="#m49d7340505" y="273.312"/>
      </g>
     </g>
     <g id="text_5">
      <!-- 10.0 -->
      <g transform="translate(207.892902 287.910437)scale(0.1 -0.1)">
       <defs>
        <path d="M 12.40625 8.296875 
L 28.515625 8.296875 
L 28.515625 63.921875 
L 10.984375 60.40625 
L 10.984375 69.390625 
L 28.421875 72.90625 
L 38.28125 72.90625 
L 38.28125 8.296875 
L 54.390625 8.296875 
L 54.390625 0 
L 12.40625 0 
z
" id="DejaVuSans-49"/>
       </defs>
       <use xlink:href="#DejaVuSans-49"/>
       <use x="63.623047" xlink:href="#DejaVuSans-48"/>
       <use x="127.246094" xlink:href="#DejaVuSans-46"/>
       <use x="159.033203" xlink:href="#DejaVuSans-48"/>
      </g>
     </g>
    </g>
    <g id="xtick_6">
     <g id="line2d_6">
      <g>
       <use style="stroke:#000000;stroke-width:0.8;" x="259.811462" xlink:href="#m49d7340505" y="273.312"/>
      </g>
     </g>
     <g id="text_6">
      <!-- 12.5 -->
      <g transform="translate(248.678649 287.910437)scale(0.1 -0.1)">
       <use xlink:href="#DejaVuSans-49"/>
       <use x="63.623047" xlink:href="#DejaVuSans-50"/>
       <use x="127.246094" xlink:href="#DejaVuSans-46"/>
       <use x="159.033203" xlink:href="#DejaVuSans-53"/>
      </g>
     </g>
    </g>
    <g id="xtick_7">
     <g id="line2d_7">
      <g>
       <use style="stroke:#000000;stroke-width:0.8;" x="300.597209" xlink:href="#m49d7340505" y="273.312"/>
      </g>
     </g>
     <g id="text_7">
      <!-- 15.0 -->
      <g transform="translate(289.464396 287.910437)scale(0.1 -0.1)">
       <use xlink:href="#DejaVuSans-49"/>
       <use x="63.623047" xlink:href="#DejaVuSans-53"/>
       <use x="127.246094" xlink:href="#DejaVuSans-46"/>
       <use x="159.033203" xlink:href="#DejaVuSans-48"/>
      </g>
     </g>
    </g>
    <g id="xtick_8">
     <g id="line2d_8">
      <g>
       <use style="stroke:#000000;stroke-width:0.8;" x="341.382956" xlink:href="#m49d7340505" y="273.312"/>
      </g>
     </g>
     <g id="text_8">
      <!-- 17.5 -->
      <g transform="translate(330.250143 287.910437)scale(0.1 -0.1)">
       <use xlink:href="#DejaVuSans-49"/>
       <use x="63.623047" xlink:href="#DejaVuSans-55"/>
       <use x="127.246094" xlink:href="#DejaVuSans-46"/>
       <use x="159.033203" xlink:href="#DejaVuSans-53"/>
      </g>
     </g>
    </g>
    <g id="xtick_9">
     <g id="line2d_9">
      <g>
       <use style="stroke:#000000;stroke-width:0.8;" x="382.168703" xlink:href="#m49d7340505" y="273.312"/>
      </g>
     </g>
     <g id="text_9">
      <!-- 20.0 -->
      <g transform="translate(371.03589 287.910437)scale(0.1 -0.1)">
       <use xlink:href="#DejaVuSans-50"/>
       <use x="63.623047" xlink:href="#DejaVuSans-48"/>
       <use x="127.246094" xlink:href="#DejaVuSans-46"/>
       <use x="159.033203" xlink:href="#DejaVuSans-48"/>
      </g>
     </g>
    </g>
   </g>
   <g id="matplotlib.axis_2">
    <g id="ytick_1">
     <g id="line2d_10">
      <defs>
       <path d="M 0 0 
L -3.5 0 
" id="m96cedd4dcb" style="stroke:#000000;stroke-width:0.8;"/>
      </defs>
      <g>
       <use style="stroke:#000000;stroke-width:0.8;" x="39.65" xlink:href="#m96cedd4dcb" y="261.216"/>
      </g>
     </g>
     <g id="text_10">
      <!-- 0 -->
      <g transform="translate(26.2875 265.015219)scale(0.1 -0.1)">
       <use xlink:href="#DejaVuSans-48"/>
      </g>
     </g>
    </g>
    <g id="ytick_2">
     <g id="line2d_11">
      <g>
       <use style="stroke:#000000;stroke-width:0.8;" x="39.65" xlink:href="#m96cedd4dcb" y="220.870273"/>
      </g>
     </g>
     <g id="text_11">
      <!-- 500 -->
      <g transform="translate(13.5625 224.669492)scale(0.1 -0.1)">
       <use xlink:href="#DejaVuSans-53"/>
       <use x="63.623047" xlink:href="#DejaVuSans-48"/>
       <use x="127.246094" xlink:href="#DejaVuSans-48"/>
      </g>
     </g>
    </g>
    <g id="ytick_3">
     <g id="line2d_12">
      <g>
       <use style="stroke:#000000;stroke-width:0.8;" x="39.65" xlink:href="#m96cedd4dcb" y="180.524546"/>
      </g>
     </g>
     <g id="text_12">
      <!-- 1000 -->
      <g transform="translate(7.2 184.323764)scale(0.1 -0.1)">
       <use xlink:href="#DejaVuSans-49"/>
       <use x="63.623047" xlink:href="#DejaVuSans-48"/>
       <use x="127.246094" xlink:href="#DejaVuSans-48"/>
       <use x="190.869141" xlink:href="#DejaVuSans-48"/>
      </g>
     </g>
    </g>
    <g id="ytick_4">
     <g id="line2d_13">
      <g>
       <use style="stroke:#000000;stroke-width:0.8;" x="39.65" xlink:href="#m96cedd4dcb" y="140.178819"/>
      </g>
     </g>
     <g id="text_13">
      <!-- 1500 -->
      <g transform="translate(7.2 143.978037)scale(0.1 -0.1)">
       <use xlink:href="#DejaVuSans-49"/>
       <use x="63.623047" xlink:href="#DejaVuSans-53"/>
       <use x="127.246094" xlink:href="#DejaVuSans-48"/>
       <use x="190.869141" xlink:href="#DejaVuSans-48"/>
      </g>
     </g>
    </g>
    <g id="ytick_5">
     <g id="line2d_14">
      <g>
       <use style="stroke:#000000;stroke-width:0.8;" x="39.65" xlink:href="#m96cedd4dcb" y="99.833091"/>
      </g>
     </g>
     <g id="text_14">
      <!-- 2000 -->
      <g transform="translate(7.2 103.63231)scale(0.1 -0.1)">
       <use xlink:href="#DejaVuSans-50"/>
       <use x="63.623047" xlink:href="#DejaVuSans-48"/>
       <use x="127.246094" xlink:href="#DejaVuSans-48"/>
       <use x="190.869141" xlink:href="#DejaVuSans-48"/>
      </g>
     </g>
    </g>
    <g id="ytick_6">
     <g id="line2d_15">
      <g>
       <use style="stroke:#000000;stroke-width:0.8;" x="39.65" xlink:href="#m96cedd4dcb" y="59.487364"/>
      </g>
     </g>
     <g id="text_15">
      <!-- 2500 -->
      <g transform="translate(7.2 63.286583)scale(0.1 -0.1)">
       <use xlink:href="#DejaVuSans-50"/>
       <use x="63.623047" xlink:href="#DejaVuSans-53"/>
       <use x="127.246094" xlink:href="#DejaVuSans-48"/>
       <use x="190.869141" xlink:href="#DejaVuSans-48"/>
      </g>
     </g>
    </g>
    <g id="ytick_7">
     <g id="line2d_16">
      <g>
       <use style="stroke:#000000;stroke-width:0.8;" x="39.65" xlink:href="#m96cedd4dcb" y="19.141637"/>
      </g>
     </g>
     <g id="text_16">
      <!-- 3000 -->
      <g transform="translate(7.2 22.940856)scale(0.1 -0.1)">
       <defs>
        <path d="M 40.578125 39.3125 
Q 47.65625 37.796875 51.625 33 
Q 55.609375 28.21875 55.609375 21.1875 
Q 55.609375 10.40625 48.1875 4.484375 
Q 40.765625 -1.421875 27.09375 -1.421875 
Q 22.515625 -1.421875 17.65625 -0.515625 
Q 12.796875 0.390625 7.625 2.203125 
L 7.625 11.71875 
Q 11.71875 9.328125 16.59375 8.109375 
Q 21.484375 6.890625 26.8125 6.890625 
Q 36.078125 6.890625 40.9375 10.546875 
Q 45.796875 14.203125 45.796875 21.1875 
Q 45.796875 27.640625 41.28125 31.265625 
Q 36.765625 34.90625 28.71875 34.90625 
L 20.21875 34.90625 
L 20.21875 43.015625 
L 29.109375 43.015625 
Q 36.375 43.015625 40.234375 45.921875 
Q 44.09375 48.828125 44.09375 54.296875 
Q 44.09375 59.90625 40.109375 62.90625 
Q 36.140625 65.921875 28.71875 65.921875 
Q 24.65625 65.921875 20.015625 65.03125 
Q 15.375 64.15625 9.8125 62.3125 
L 9.8125 71.09375 
Q 15.4375 72.65625 20.34375 73.4375 
Q 25.25 74.21875 29.59375 74.21875 
Q 40.828125 74.21875 47.359375 69.109375 
Q 53.90625 64.015625 53.90625 55.328125 
Q 53.90625 49.265625 50.4375 45.09375 
Q 46.96875 40.921875 40.578125 39.3125 
z
" id="DejaVuSans-51"/>
       </defs>
       <use xlink:href="#DejaVuSans-51"/>
       <use x="63.623047" xlink:href="#DejaVuSans-48"/>
       <use x="127.246094" xlink:href="#DejaVuSans-48"/>
       <use x="190.869141" xlink:href="#DejaVuSans-48"/>
      </g>
     </g>
    </g>
   </g>
   <g id="line2d_17">
    <path clip-path="url(#pe2694c8227)" d="M 55.882727 261.216 
L 59.961302 241.043136 
L 64.039877 222.550672 
L 68.118451 205.598631 
L 72.197026 190.058694 
L 76.275601 175.813234 
L 80.354175 162.754421 
L 84.43275 150.783407 
L 88.511325 139.809578 
L 92.589899 129.74987 
L 96.668474 120.528135 
L 100.747049 112.07457 
L 104.825624 104.325188 
L 108.904198 97.221329 
L 112.982773 90.709221 
L 117.061348 84.739573 
L 121.139922 79.267195 
L 125.218497 74.250667 
L 129.297072 69.652016 
L 133.375646 65.436432 
L 137.454221 61.572007 
L 141.532796 58.029488 
L 145.61137 54.782061 
L 149.689945 51.805144 
L 153.76852 49.076205 
L 157.847095 46.574586 
L 161.925669 44.281352 
L 166.004244 42.179145 
L 170.082819 40.252051 
L 174.161393 38.485485 
L 178.239968 36.866073 
L 182.318543 35.381558 
L 186.397117 34.020704 
L 190.475692 32.773208 
L 194.554267 31.629629 
L 198.632841 30.581311 
L 202.711416 29.620317 
L 206.789991 28.739373 
L 210.868566 27.931813 
L 214.94714 27.191522 
L 219.025715 26.512898 
L 223.10429 25.890802 
L 227.182864 25.320528 
L 231.261439 24.797757 
L 235.340014 24.318533 
L 239.418588 23.879229 
L 243.497163 23.476518 
L 247.575738 23.107353 
L 251.654312 22.76894 
L 255.732887 22.458717 
L 259.811462 22.174335 
L 263.890037 21.913642 
L 267.968611 21.674665 
L 272.047186 21.455594 
L 276.125761 21.254773 
L 280.204335 21.070679 
L 284.28291 20.901921 
L 288.361485 20.74722 
L 292.440059 20.605406 
L 296.518634 20.475405 
L 300.597209 20.356233 
L 304.675783 20.246988 
L 308.754358 20.146843 
L 312.832933 20.05504 
L 316.911508 19.970885 
L 320.990082 19.893739 
L 325.068657 19.82302 
L 329.147232 19.758192 
L 333.225806 19.698763 
L 337.304381 19.644286 
L 341.382956 19.594346 
L 345.46153 19.548566 
L 349.540105 19.5066 
L 353.61868 19.468129 
L 357.697254 19.432863 
L 361.775829 19.400535 
L 365.854404 19.3709 
L 369.932979 19.343733 
L 374.011553 19.318829 
L 378.090128 19.296 
" style="fill:none;stroke:#1f77b4;stroke-linecap:square;stroke-width:1.5;"/>
   </g>
   <g id="line2d_18">
    <path clip-path="url(#pe2694c8227)" d="M 55.882727 261.216 
L 59.961302 261.216 
L 64.039877 259.5356 
L 68.118451 256.594901 
L 72.197026 252.732312 
L 76.275601 248.219139 
L 80.354175 243.271665 
L 84.43275 238.061136 
L 88.511325 232.722017 
L 92.589899 227.358809 
L 96.668474 222.051674 
L 100.747049 216.861068 
L 104.825624 211.831554 
L 108.904198 206.994937 
L 112.982773 202.372832 
L 117.061348 197.978773 
L 121.139922 193.819933 
L 125.218497 189.898522 
L 129.297072 186.212933 
L 133.375646 182.758664 
L 137.454221 179.529064 
L 141.532796 176.515932 
L 145.61137 173.709997 
L 149.689945 171.1013 
L 153.76852 168.679496 
L 157.847095 166.434087 
L 161.925669 164.354602 
L 166.004244 162.430741 
L 170.082819 160.652473 
L 174.161393 159.010116 
L 178.239968 157.494385 
L 182.318543 156.09643 
L 186.397117 154.807853 
L 190.475692 153.620723 
L 194.554267 152.527571 
L 198.632841 151.521388 
L 202.711416 150.59561 
L 206.789991 149.744108 
L 210.868566 148.96117 
L 214.94714 148.241477 
L 219.025715 147.580091 
L 223.10429 146.972429 
L 227.182864 146.414243 
L 231.261439 145.901603 
L 235.340014 145.430873 
L 239.418588 144.998695 
L 243.497163 144.601967 
L 247.575738 144.237827 
L 251.654312 143.903638 
L 255.732887 143.596969 
L 259.811462 143.31558 
L 263.890037 143.057409 
L 267.968611 142.82056 
L 272.047186 142.603286 
L 276.125761 142.403984 
L 280.204335 142.221177 
L 284.28291 142.053509 
L 288.361485 141.899733 
L 292.440059 141.758705 
L 296.518634 141.629374 
L 300.597209 141.510773 
L 304.675783 141.402016 
L 308.754358 141.302288 
L 312.832933 141.210843 
L 316.911508 141.126995 
L 320.990082 141.050114 
L 325.068657 140.979623 
L 329.147232 140.914992 
L 333.225806 140.855734 
L 337.304381 140.801405 
L 341.382956 140.751594 
L 345.46153 140.705927 
L 349.540105 140.664059 
L 353.61868 140.625674 
L 357.697254 140.590484 
L 361.775829 140.558222 
L 365.854404 140.528645 
L 369.932979 140.501531 
L 374.011553 140.476673 
L 378.090128 140.453884 
" style="fill:none;stroke:#ff7f0e;stroke-linecap:square;stroke-width:1.5;"/>
   </g>
   <g id="line2d_19">
    <path clip-path="url(#pe2694c8227)" d="M 55.882727 261.216 
L 59.145587 245.158401 
L 62.408447 230.633939 
L 65.671307 215.948094 
L 67.302736 210.057618 
L 68.934166 203.279536 
L 70.565596 199.08358 
L 72.197026 193.031721 
L 73.828456 188.270925 
L 75.459886 180.847312 
L 77.091316 176.005824 
L 78.722746 168.178753 
L 80.354175 163.740723 
L 81.985605 158.092321 
L 83.617035 153.5736 
L 85.248465 150.345942 
L 86.879895 147.441049 
L 88.511325 142.438179 
L 90.142755 139.452595 
L 91.774185 134.369034 
L 93.405614 128.720632 
L 96.668474 121.700476 
L 98.299904 117.827286 
L 99.931334 116.294148 
L 101.562764 111.533352 
L 103.194194 109.435374 
L 104.825624 104.432504 
L 108.088483 98.703411 
L 109.719913 95.556444 
L 111.351343 92.732243 
L 112.982773 91.118414 
L 114.614203 90.3115 
L 116.245633 86.357619 
L 117.877063 83.614109 
L 119.508492 80.305759 
L 121.139922 80.709217 
L 122.771352 79.095388 
L 124.402782 76.674644 
L 126.034212 74.011826 
L 127.665642 74.738049 
L 129.297072 72.882146 
L 130.928502 71.671774 
L 132.559931 72.397997 
L 134.191361 69.573796 
L 137.454221 67.233744 
L 139.085651 65.216458 
L 140.717081 63.764011 
L 142.348511 65.37784 
L 143.979941 63.441246 
L 145.61137 64.651617 
L 147.2428 62.55364 
L 148.87423 61.988799 
L 150.50566 60.294279 
L 152.13709 59.487364 
L 153.76852 56.985929 
L 155.39995 58.519067 
L 157.03138 56.421089 
L 158.66281 54.887951 
L 160.294239 56.098323 
L 161.925669 55.130026 
L 163.557099 52.628591 
L 165.188529 52.709282 
L 166.819959 53.112739 
L 170.082819 51.902368 
L 171.714249 51.579602 
L 173.345678 49.23955 
L 174.977108 48.271252 
L 176.608538 46.253966 
L 179.871398 43.913914 
L 181.502828 42.945616 
L 183.134258 42.380776 
L 184.765688 41.49317 
L 186.397117 42.138702 
L 189.659977 40.766947 
L 191.291407 40.686255 
L 192.922837 39.153118 
L 194.554267 36.570991 
L 196.185697 36.651683 
L 197.817127 36.570991 
L 199.448556 35.764077 
L 201.079986 35.844768 
L 202.711416 35.522002 
L 204.342846 36.167534 
L 207.605706 34.715088 
L 209.237136 34.230939 
L 210.868566 33.908173 
L 212.499995 31.568121 
L 214.131425 32.05227 
L 215.762855 29.873601 
L 217.394285 29.066686 
L 219.025715 28.582537 
L 220.657145 28.582537 
L 222.288575 29.631526 
L 223.920005 26.807325 
L 225.551434 28.017697 
L 227.182864 28.421154 
L 228.814294 27.856314 
L 235.340014 28.17908 
L 236.971444 29.873601 
L 238.602873 29.550835 
L 240.234303 30.761207 
L 243.497163 30.599824 
L 245.128593 32.536419 
L 246.760023 33.585407 
L 248.391453 32.939876 
L 250.022883 32.05227 
L 251.654312 31.568121 
L 253.285742 32.294344 
L 254.917172 32.05227 
L 256.548602 32.939876 
L 258.180032 33.424025 
L 259.811462 33.504716 
L 261.442892 31.971578 
L 263.074322 30.761207 
L 264.705751 30.115675 
L 266.337181 29.631526 
L 267.968611 29.470143 
L 269.600041 30.922589 
L 271.231471 32.778493 
L 272.862901 32.778493 
L 274.494331 32.05227 
L 277.75719 29.873601 
L 279.38862 29.066686 
L 281.02005 27.694931 
L 282.65148 27.61424 
L 284.28291 27.210783 
L 285.91434 25.596953 
L 287.54577 27.130091 
L 289.1772 28.421154 
L 290.80863 30.277058 
L 292.440059 29.550835 
L 294.071489 30.438441 
L 295.702919 30.277058 
L 297.334349 29.712218 
L 298.965779 28.905303 
L 300.597209 29.228069 
L 302.228639 27.856314 
L 303.860069 27.452857 
L 305.491498 26.726634 
L 307.122928 28.340463 
L 308.754358 28.259771 
L 310.385788 28.421154 
L 312.017218 29.147377 
L 313.648648 30.519132 
L 315.280078 30.196366 
L 316.911508 28.985995 
L 318.542937 28.905303 
L 320.174367 29.470143 
L 321.805797 29.712218 
L 323.437227 27.452857 
L 325.068657 27.856314 
L 326.700087 26.081102 
L 328.331517 26.565251 
L 329.962947 25.274188 
L 331.594376 27.210783 
L 333.225806 27.452857 
L 334.857236 27.372165 
L 336.488666 29.631526 
L 338.120096 30.277058 
L 339.751526 31.406738 
L 341.382956 29.470143 
L 343.014386 29.550835 
L 344.645815 29.389452 
L 346.277245 30.034983 
L 347.908675 30.519132 
L 349.540105 31.810195 
L 351.171535 31.326047 
L 352.802965 29.147377 
L 354.434395 27.694931 
L 356.065825 29.792909 
L 357.697254 28.582537 
L 359.328684 28.582537 
L 360.960114 26.484559 
L 362.591544 26.323177 
L 364.222974 25.758336 
L 365.854404 26.726634 
L 367.485834 27.533548 
L 369.117264 27.856314 
L 370.748693 27.694931 
L 372.380123 28.017697 
L 374.011553 29.954292 
L 375.642983 30.438441 
L 377.274413 31.48743 
L 378.905843 29.550835 
L 380.537273 28.985995 
L 380.537273 28.985995 
" style="fill:none;stroke:#2ca02c;stroke-linecap:square;stroke-width:1.5;"/>
   </g>
   <g id="line2d_20">
    <path clip-path="url(#pe2694c8227)" d="M 55.882727 261.216 
L 57.514157 260.893234 
L 59.145587 260.812543 
L 60.777017 260.328394 
L 62.408447 259.521479 
L 67.302736 255.890364 
L 68.934166 255.002758 
L 70.565596 252.420631 
L 73.828456 249.112282 
L 77.091316 244.916326 
L 78.722746 243.302497 
L 80.354175 240.236222 
L 81.985605 237.976861 
L 83.617035 234.58782 
L 85.248465 231.844311 
L 86.879895 230.633939 
L 88.511325 228.45527 
L 90.142755 225.631069 
L 91.774185 224.420697 
L 93.405614 224.097931 
L 95.037044 222.726176 
L 96.668474 219.821284 
L 98.299904 217.40054 
L 99.931334 215.302563 
L 101.562764 214.092191 
L 103.194194 211.671447 
L 104.825624 210.461075 
L 108.088483 206.82996 
L 109.719913 205.700279 
L 111.351343 203.844376 
L 112.982773 201.746398 
L 114.614203 198.841506 
L 116.245633 198.276666 
L 117.877063 196.824219 
L 119.508492 196.420762 
L 121.139922 193.757944 
L 122.771352 191.498583 
L 124.402782 191.821349 
L 126.034212 190.77236 
L 127.665642 187.786777 
L 129.297072 186.899171 
L 130.928502 185.285342 
L 132.559931 182.219066 
L 134.191361 181.170077 
L 135.822791 180.282471 
L 137.454221 179.152791 
L 139.085651 177.781036 
L 140.717081 176.651356 
L 142.348511 174.311304 
L 145.61137 171.487103 
L 147.2428 171.164337 
L 148.87423 171.406411 
L 150.50566 169.792582 
L 152.13709 169.147051 
L 153.76852 169.550508 
L 155.39995 168.662902 
L 157.03138 168.824285 
L 158.66281 166.564924 
L 160.294239 165.435244 
L 161.925669 166.726307 
L 163.557099 166.32285 
L 165.188529 164.305563 
L 166.819959 164.789712 
L 168.451389 164.789712 
L 171.714249 162.126894 
L 173.345678 162.046203 
L 174.977108 161.481363 
L 176.608538 161.88482 
L 178.239968 161.562054 
L 179.871398 160.755139 
L 181.502828 159.302693 
L 184.765688 157.366098 
L 186.397117 157.043333 
L 188.028547 155.429503 
L 189.659977 155.106738 
L 191.291407 154.13844 
L 192.922837 155.187429 
L 194.554267 155.026046 
L 196.185697 155.106738 
L 197.817127 152.766685 
L 199.448556 152.928068 
L 201.079986 152.928068 
L 202.711416 152.685994 
L 204.342846 151.637005 
L 205.974276 151.879079 
L 207.605706 151.475622 
L 210.868566 152.040462 
L 212.499995 153.5736 
L 214.131425 154.299823 
L 217.394285 154.057749 
L 219.025715 154.219132 
L 220.657145 153.250834 
L 222.288575 152.121154 
L 223.920005 151.798388 
L 225.551434 151.314239 
L 227.182864 150.345942 
L 228.814294 149.054879 
L 230.445724 146.149986 
L 232.077154 145.26238 
L 233.708584 144.213391 
L 235.340014 144.858923 
L 236.971444 144.455466 
L 241.865733 144.374774 
L 243.497163 143.245094 
L 245.128593 142.599562 
L 246.760023 143.164402 
L 248.391453 142.760945 
L 250.022883 144.536157 
L 251.654312 143.971317 
L 253.285742 144.052008 
L 254.917172 144.858923 
L 258.180032 145.020306 
L 259.811462 145.504455 
L 261.442892 146.149986 
L 263.074322 146.472752 
L 264.705751 144.858923 
L 266.337181 144.778231 
L 267.968611 144.052008 
L 269.600041 142.518871 
L 271.231471 142.922328 
L 272.862901 142.276796 
L 274.494331 142.438179 
L 276.125761 144.213391 
L 277.75719 143.648551 
L 281.02005 144.69754 
L 282.65148 144.69754 
L 284.28291 144.213391 
L 285.91434 144.939614 
L 287.54577 143.325785 
L 289.1772 142.841637 
L 290.80863 142.680254 
L 292.440059 143.245094 
L 294.071489 144.374774 
L 295.702919 144.69754 
L 297.334349 145.504455 
L 298.965779 146.714826 
L 300.597209 145.746529 
L 302.228639 145.181689 
L 303.860069 144.374774 
L 305.491498 144.052008 
L 307.122928 143.164402 
L 308.754358 142.922328 
L 310.385788 140.743659 
L 312.017218 139.775361 
L 313.648648 140.905042 
L 315.280078 138.968447 
L 316.911508 139.291213 
L 318.542937 138.968447 
L 320.174367 138.080841 
L 323.437227 137.919458 
L 325.068657 135.82148 
L 326.700087 136.063554 
L 328.331517 135.982863 
L 329.962947 137.516001 
L 331.594376 136.063554 
L 333.225806 135.498714 
L 334.857236 135.579406 
L 336.488666 134.772491 
L 338.120096 134.772491 
L 339.751526 134.449725 
L 341.382956 135.418023 
L 343.014386 134.853183 
L 344.645815 135.337331 
L 346.277245 135.660097 
L 347.908675 134.369034 
L 349.540105 133.965577 
L 351.171535 134.369034 
L 352.802965 135.418023 
L 354.434395 134.369034 
L 356.065825 134.611108 
L 359.328684 136.063554 
L 360.960114 138.322915 
L 362.591544 137.919458 
L 364.222974 138.645681 
L 365.854404 136.709086 
L 367.485834 136.144246 
L 369.117264 135.982863 
L 370.748693 137.112543 
L 372.380123 139.12983 
L 374.011553 137.838766 
L 375.642983 139.613978 
L 377.274413 139.613978 
L 378.905843 140.017436 
L 380.537273 140.985733 
L 380.537273 140.985733 
" style="fill:none;stroke:#d62728;stroke-linecap:square;stroke-width:1.5;"/>
   </g>
   <g id="patch_3">
    <path d="M 39.65 273.312 
L 39.65 7.2 
" style="fill:none;stroke:#000000;stroke-linecap:square;stroke-linejoin:miter;stroke-width:0.8;"/>
   </g>
   <g id="patch_4">
    <path d="M 396.77 273.312 
L 396.77 7.2 
" style="fill:none;stroke:#000000;stroke-linecap:square;stroke-linejoin:miter;stroke-width:0.8;"/>
   </g>
   <g id="patch_5">
    <path d="M 39.65 273.312 
L 396.77 273.312 
" style="fill:none;stroke:#000000;stroke-linecap:square;stroke-linejoin:miter;stroke-width:0.8;"/>
   </g>
   <g id="patch_6">
    <path d="M 39.65 7.2 
L 396.77 7.2 
" style="fill:none;stroke:#000000;stroke-linecap:square;stroke-linejoin:miter;stroke-width:0.8;"/>
   </g>
  </g>
 </g>
 <defs>
  <clipPath id="pe2694c8227">
   <rect height="266.112" width="357.12" x="39.65" y="7.2"/>
  </clipPath>
 </defs>
</svg>
