<?xml version="1.0" encoding="utf-8" standalone="no"?>
<!DOCTYPE svg PUBLIC "-//W3C//DTD SVG 1.1//EN"
  "http://www.w3.org/Graphics/SVG/1.1/DTD/svg11.dtd">
<!-- Created with matplotlib (https://matplotlib.org/) -->
<svg height="297.190125pt" version="1.1" viewBox="0 0 403.97 297.190125" width="403.97pt" xmlns="http://www.w3.org/2000/svg" xmlns:xlink="http://www.w3.org/1999/xlink">
 <metadata>
  <rdf:RDF xmlns:cc="http://creativecommons.org/ns#" xmlns:dc="http://purl.org/dc/elements/1.1/" xmlns:rdf="http://www.w3.org/1999/02/22-rdf-syntax-ns#">
   <cc:Work>
    <dc:type rdf:resource="http://purl.org/dc/dcmitype/StillImage"/>
    <dc:date>2020-09-20T14:39:17.757594</dc:date>
    <dc:format>image/svg+xml</dc:format>
    <dc:creator>
     <cc:Agent>
      <dc:title>Matplotlib v3.3.2, https://matplotlib.org/</dc:title>
     </cc:Agent>
    </dc:creator>
   </cc:Work>
  </rdf:RDF>
 </metadata>
 <defs>
  <style type="text/css">*{stroke-linecap:butt;stroke-linejoin:round;}</style>
 </defs>
 <g id="figure_1">
  <g id="patch_1">
   <path d="M 0 297.190125 
L 403.97 297.190125 
L 403.97 0 
L 0 0 
z
" style="fill:#ffffff;"/>
  </g>
  <g id="axes_1">
   <g id="patch_2">
    <path d="M 39.65 273.312 
L 396.77 273.312 
L 396.77 7.2 
L 39.65 7.2 
z
" style="fill:#ffffff;"/>
   </g>
   <g id="matplotlib.axis_1">
    <g id="xtick_1">
     <g id="line2d_1">
      <defs>
       <path d="M 0 0 
L 0 3.5 
" id="ma77b6cda14" style="stroke:#000000;stroke-width:0.8;"/>
      </defs>
      <g>
       <use style="stroke:#000000;stroke-width:0.8;" x="55.882727" xlink:href="#ma77b6cda14" y="273.312"/>
      </g>
     </g>
     <g id="text_1">
      <!-- 0.0 -->
      <g transform="translate(47.931165 287.910437)scale(0.1 -0.1)">
       <defs>
        <path d="M 31.78125 66.40625 
Q 24.171875 66.40625 20.328125 58.90625 
Q 16.5 51.421875 16.5 36.375 
Q 16.5 21.390625 20.328125 13.890625 
Q 24.171875 6.390625 31.78125 6.390625 
Q 39.453125 6.390625 43.28125 13.890625 
Q 47.125 21.390625 47.125 36.375 
Q 47.125 51.421875 43.28125 58.90625 
Q 39.453125 66.40625 31.78125 66.40625 
z
M 31.78125 74.21875 
Q 44.046875 74.21875 50.515625 64.515625 
Q 56.984375 54.828125 56.984375 36.375 
Q 56.984375 17.96875 50.515625 8.265625 
Q 44.046875 -1.421875 31.78125 -1.421875 
Q 19.53125 -1.421875 13.0625 8.265625 
Q 6.59375 17.96875 6.59375 36.375 
Q 6.59375 54.828125 13.0625 64.515625 
Q 19.53125 74.21875 31.78125 74.21875 
z
" id="DejaVuSans-48"/>
        <path d="M 10.6875 12.40625 
L 21 12.40625 
L 21 0 
L 10.6875 0 
z
" id="DejaVuSans-46"/>
       </defs>
       <use xlink:href="#DejaVuSans-48"/>
       <use x="63.623047" xlink:href="#DejaVuSans-46"/>
       <use x="95.410156" xlink:href="#DejaVuSans-48"/>
      </g>
     </g>
    </g>
    <g id="xtick_2">
     <g id="line2d_2">
      <g>
       <use style="stroke:#000000;stroke-width:0.8;" x="96.668474" xlink:href="#ma77b6cda14" y="273.312"/>
      </g>
     </g>
     <g id="text_2">
      <!-- 2.5 -->
      <g transform="translate(88.716912 287.910437)scale(0.1 -0.1)">
       <defs>
        <path d="M 19.1875 8.296875 
L 53.609375 8.296875 
L 53.609375 0 
L 7.328125 0 
L 7.328125 8.296875 
Q 12.9375 14.109375 22.625 23.890625 
Q 32.328125 33.6875 34.8125 36.53125 
Q 39.546875 41.84375 41.421875 45.53125 
Q 43.3125 49.21875 43.3125 52.78125 
Q 43.3125 58.59375 39.234375 62.25 
Q 35.15625 65.921875 28.609375 65.921875 
Q 23.96875 65.921875 18.8125 64.3125 
Q 13.671875 62.703125 7.8125 59.421875 
L 7.8125 69.390625 
Q 13.765625 71.78125 18.9375 73 
Q 24.125 74.21875 28.421875 74.21875 
Q 39.75 74.21875 46.484375 68.546875 
Q 53.21875 62.890625 53.21875 53.421875 
Q 53.21875 48.921875 51.53125 44.890625 
Q 49.859375 40.875 45.40625 35.40625 
Q 44.1875 33.984375 37.640625 27.21875 
Q 31.109375 20.453125 19.1875 8.296875 
z
" id="DejaVuSans-50"/>
        <path d="M 10.796875 72.90625 
L 49.515625 72.90625 
L 49.515625 64.59375 
L 19.828125 64.59375 
L 19.828125 46.734375 
Q 21.96875 47.46875 24.109375 47.828125 
Q 26.265625 48.1875 28.421875 48.1875 
Q 40.625 48.1875 47.75 41.5 
Q 54.890625 34.8125 54.890625 23.390625 
Q 54.890625 11.625 47.5625 5.09375 
Q 40.234375 -1.421875 26.90625 -1.421875 
Q 22.3125 -1.421875 17.546875 -0.640625 
Q 12.796875 0.140625 7.71875 1.703125 
L 7.71875 11.625 
Q 12.109375 9.234375 16.796875 8.0625 
Q 21.484375 6.890625 26.703125 6.890625 
Q 35.15625 6.890625 40.078125 11.328125 
Q 45.015625 15.765625 45.015625 23.390625 
Q 45.015625 31 40.078125 35.4375 
Q 35.15625 39.890625 26.703125 39.890625 
Q 22.75 39.890625 18.8125 39.015625 
Q 14.890625 38.140625 10.796875 36.28125 
z
" id="DejaVuSans-53"/>
       </defs>
       <use xlink:href="#DejaVuSans-50"/>
       <use x="63.623047" xlink:href="#DejaVuSans-46"/>
       <use x="95.410156" xlink:href="#DejaVuSans-53"/>
      </g>
     </g>
    </g>
    <g id="xtick_3">
     <g id="line2d_3">
      <g>
       <use style="stroke:#000000;stroke-width:0.8;" x="137.454221" xlink:href="#ma77b6cda14" y="273.312"/>
      </g>
     </g>
     <g id="text_3">
      <!-- 5.0 -->
      <g transform="translate(129.502659 287.910437)scale(0.1 -0.1)">
       <use xlink:href="#DejaVuSans-53"/>
       <use x="63.623047" xlink:href="#DejaVuSans-46"/>
       <use x="95.410156" xlink:href="#DejaVuSans-48"/>
      </g>
     </g>
    </g>
    <g id="xtick_4">
     <g id="line2d_4">
      <g>
       <use style="stroke:#000000;stroke-width:0.8;" x="178.239968" xlink:href="#ma77b6cda14" y="273.312"/>
      </g>
     </g>
     <g id="text_4">
      <!-- 7.5 -->
      <g transform="translate(170.288406 287.910437)scale(0.1 -0.1)">
       <defs>
        <path d="M 8.203125 72.90625 
L 55.078125 72.90625 
L 55.078125 68.703125 
L 28.609375 0 
L 18.3125 0 
L 43.21875 64.59375 
L 8.203125 64.59375 
z
" id="DejaVuSans-55"/>
       </defs>
       <use xlink:href="#DejaVuSans-55"/>
       <use x="63.623047" xlink:href="#DejaVuSans-46"/>
       <use x="95.410156" xlink:href="#DejaVuSans-53"/>
      </g>
     </g>
    </g>
    <g id="xtick_5">
     <g id="line2d_5">
      <g>
       <use style="stroke:#000000;stroke-width:0.8;" x="219.025715" xlink:href="#ma77b6cda14" y="273.312"/>
      </g>
     </g>
     <g id="text_5">
      <!-- 10.0 -->
      <g transform="translate(207.892902 287.910437)scale(0.1 -0.1)">
       <defs>
        <path d="M 12.40625 8.296875 
L 28.515625 8.296875 
L 28.515625 63.921875 
L 10.984375 60.40625 
L 10.984375 69.390625 
L 28.421875 72.90625 
L 38.28125 72.90625 
L 38.28125 8.296875 
L 54.390625 8.296875 
L 54.390625 0 
L 12.40625 0 
z
" id="DejaVuSans-49"/>
       </defs>
       <use xlink:href="#DejaVuSans-49"/>
       <use x="63.623047" xlink:href="#DejaVuSans-48"/>
       <use x="127.246094" xlink:href="#DejaVuSans-46"/>
       <use x="159.033203" xlink:href="#DejaVuSans-48"/>
      </g>
     </g>
    </g>
    <g id="xtick_6">
     <g id="line2d_6">
      <g>
       <use style="stroke:#000000;stroke-width:0.8;" x="259.811462" xlink:href="#ma77b6cda14" y="273.312"/>
      </g>
     </g>
     <g id="text_6">
      <!-- 12.5 -->
      <g transform="translate(248.678649 287.910437)scale(0.1 -0.1)">
       <use xlink:href="#DejaVuSans-49"/>
       <use x="63.623047" xlink:href="#DejaVuSans-50"/>
       <use x="127.246094" xlink:href="#DejaVuSans-46"/>
       <use x="159.033203" xlink:href="#DejaVuSans-53"/>
      </g>
     </g>
    </g>
    <g id="xtick_7">
     <g id="line2d_7">
      <g>
       <use style="stroke:#000000;stroke-width:0.8;" x="300.597209" xlink:href="#ma77b6cda14" y="273.312"/>
      </g>
     </g>
     <g id="text_7">
      <!-- 15.0 -->
      <g transform="translate(289.464396 287.910437)scale(0.1 -0.1)">
       <use xlink:href="#DejaVuSans-49"/>
       <use x="63.623047" xlink:href="#DejaVuSans-53"/>
       <use x="127.246094" xlink:href="#DejaVuSans-46"/>
       <use x="159.033203" xlink:href="#DejaVuSans-48"/>
      </g>
     </g>
    </g>
    <g id="xtick_8">
     <g id="line2d_8">
      <g>
       <use style="stroke:#000000;stroke-width:0.8;" x="341.382956" xlink:href="#ma77b6cda14" y="273.312"/>
      </g>
     </g>
     <g id="text_8">
      <!-- 17.5 -->
      <g transform="translate(330.250143 287.910437)scale(0.1 -0.1)">
       <use xlink:href="#DejaVuSans-49"/>
       <use x="63.623047" xlink:href="#DejaVuSans-55"/>
       <use x="127.246094" xlink:href="#DejaVuSans-46"/>
       <use x="159.033203" xlink:href="#DejaVuSans-53"/>
      </g>
     </g>
    </g>
    <g id="xtick_9">
     <g id="line2d_9">
      <g>
       <use style="stroke:#000000;stroke-width:0.8;" x="382.168703" xlink:href="#ma77b6cda14" y="273.312"/>
      </g>
     </g>
     <g id="text_9">
      <!-- 20.0 -->
      <g transform="translate(371.03589 287.910437)scale(0.1 -0.1)">
       <use xlink:href="#DejaVuSans-50"/>
       <use x="63.623047" xlink:href="#DejaVuSans-48"/>
       <use x="127.246094" xlink:href="#DejaVuSans-46"/>
       <use x="159.033203" xlink:href="#DejaVuSans-48"/>
      </g>
     </g>
    </g>
   </g>
   <g id="matplotlib.axis_2">
    <g id="ytick_1">
     <g id="line2d_10">
      <defs>
       <path d="M 0 0 
L -3.5 0 
" id="m3c4b7ea7d8" style="stroke:#000000;stroke-width:0.8;"/>
      </defs>
      <g>
       <use style="stroke:#000000;stroke-width:0.8;" x="39.65" xlink:href="#m3c4b7ea7d8" y="261.216"/>
      </g>
     </g>
     <g id="text_10">
      <!-- 0 -->
      <g transform="translate(26.2875 265.015219)scale(0.1 -0.1)">
       <use xlink:href="#DejaVuSans-48"/>
      </g>
     </g>
    </g>
    <g id="ytick_2">
     <g id="line2d_11">
      <g>
       <use style="stroke:#000000;stroke-width:0.8;" x="39.65" xlink:href="#m3c4b7ea7d8" y="226.862876"/>
      </g>
     </g>
     <g id="text_11">
      <!-- 500 -->
      <g transform="translate(13.5625 230.662095)scale(0.1 -0.1)">
       <use xlink:href="#DejaVuSans-53"/>
       <use x="63.623047" xlink:href="#DejaVuSans-48"/>
       <use x="127.246094" xlink:href="#DejaVuSans-48"/>
      </g>
     </g>
    </g>
    <g id="ytick_3">
     <g id="line2d_12">
      <g>
       <use style="stroke:#000000;stroke-width:0.8;" x="39.65" xlink:href="#m3c4b7ea7d8" y="192.509752"/>
      </g>
     </g>
     <g id="text_12">
      <!-- 1000 -->
      <g transform="translate(7.2 196.308971)scale(0.1 -0.1)">
       <use xlink:href="#DejaVuSans-49"/>
       <use x="63.623047" xlink:href="#DejaVuSans-48"/>
       <use x="127.246094" xlink:href="#DejaVuSans-48"/>
       <use x="190.869141" xlink:href="#DejaVuSans-48"/>
      </g>
     </g>
    </g>
    <g id="ytick_4">
     <g id="line2d_13">
      <g>
       <use style="stroke:#000000;stroke-width:0.8;" x="39.65" xlink:href="#m3c4b7ea7d8" y="158.156628"/>
      </g>
     </g>
     <g id="text_13">
      <!-- 1500 -->
      <g transform="translate(7.2 161.955847)scale(0.1 -0.1)">
       <use xlink:href="#DejaVuSans-49"/>
       <use x="63.623047" xlink:href="#DejaVuSans-53"/>
       <use x="127.246094" xlink:href="#DejaVuSans-48"/>
       <use x="190.869141" xlink:href="#DejaVuSans-48"/>
      </g>
     </g>
    </g>
    <g id="ytick_5">
     <g id="line2d_14">
      <g>
       <use style="stroke:#000000;stroke-width:0.8;" x="39.65" xlink:href="#m3c4b7ea7d8" y="123.803504"/>
      </g>
     </g>
     <g id="text_14">
      <!-- 2000 -->
      <g transform="translate(7.2 127.602722)scale(0.1 -0.1)">
       <use xlink:href="#DejaVuSans-50"/>
       <use x="63.623047" xlink:href="#DejaVuSans-48"/>
       <use x="127.246094" xlink:href="#DejaVuSans-48"/>
       <use x="190.869141" xlink:href="#DejaVuSans-48"/>
      </g>
     </g>
    </g>
    <g id="ytick_6">
     <g id="line2d_15">
      <g>
       <use style="stroke:#000000;stroke-width:0.8;" x="39.65" xlink:href="#m3c4b7ea7d8" y="89.45038"/>
      </g>
     </g>
     <g id="text_15">
      <!-- 2500 -->
      <g transform="translate(7.2 93.249598)scale(0.1 -0.1)">
       <use xlink:href="#DejaVuSans-50"/>
       <use x="63.623047" xlink:href="#DejaVuSans-53"/>
       <use x="127.246094" xlink:href="#DejaVuSans-48"/>
       <use x="190.869141" xlink:href="#DejaVuSans-48"/>
      </g>
     </g>
    </g>
    <g id="ytick_7">
     <g id="line2d_16">
      <g>
       <use style="stroke:#000000;stroke-width:0.8;" x="39.65" xlink:href="#m3c4b7ea7d8" y="55.097256"/>
      </g>
     </g>
     <g id="text_16">
      <!-- 3000 -->
      <g transform="translate(7.2 58.896474)scale(0.1 -0.1)">
       <defs>
        <path d="M 40.578125 39.3125 
Q 47.65625 37.796875 51.625 33 
Q 55.609375 28.21875 55.609375 21.1875 
Q 55.609375 10.40625 48.1875 4.484375 
Q 40.765625 -1.421875 27.09375 -1.421875 
Q 22.515625 -1.421875 17.65625 -0.515625 
Q 12.796875 0.390625 7.625 2.203125 
L 7.625 11.71875 
Q 11.71875 9.328125 16.59375 8.109375 
Q 21.484375 6.890625 26.8125 6.890625 
Q 36.078125 6.890625 40.9375 10.546875 
Q 45.796875 14.203125 45.796875 21.1875 
Q 45.796875 27.640625 41.28125 31.265625 
Q 36.765625 34.90625 28.71875 34.90625 
L 20.21875 34.90625 
L 20.21875 43.015625 
L 29.109375 43.015625 
Q 36.375 43.015625 40.234375 45.921875 
Q 44.09375 48.828125 44.09375 54.296875 
Q 44.09375 59.90625 40.109375 62.90625 
Q 36.140625 65.921875 28.71875 65.921875 
Q 24.65625 65.921875 20.015625 65.03125 
Q 15.375 64.15625 9.8125 62.3125 
L 9.8125 71.09375 
Q 15.4375 72.65625 20.34375 73.4375 
Q 25.25 74.21875 29.59375 74.21875 
Q 40.828125 74.21875 47.359375 69.109375 
Q 53.90625 64.015625 53.90625 55.328125 
Q 53.90625 49.265625 50.4375 45.09375 
Q 46.96875 40.921875 40.578125 39.3125 
z
" id="DejaVuSans-51"/>
       </defs>
       <use xlink:href="#DejaVuSans-51"/>
       <use x="63.623047" xlink:href="#DejaVuSans-48"/>
       <use x="127.246094" xlink:href="#DejaVuSans-48"/>
       <use x="190.869141" xlink:href="#DejaVuSans-48"/>
      </g>
     </g>
    </g>
    <g id="ytick_8">
     <g id="line2d_17">
      <g>
       <use style="stroke:#000000;stroke-width:0.8;" x="39.65" xlink:href="#m3c4b7ea7d8" y="20.744132"/>
      </g>
     </g>
     <g id="text_17">
      <!-- 3500 -->
      <g transform="translate(7.2 24.54335)scale(0.1 -0.1)">
       <use xlink:href="#DejaVuSans-51"/>
       <use x="63.623047" xlink:href="#DejaVuSans-53"/>
       <use x="127.246094" xlink:href="#DejaVuSans-48"/>
       <use x="190.869141" xlink:href="#DejaVuSans-48"/>
      </g>
     </g>
    </g>
   </g>
   <g id="line2d_18">
    <path clip-path="url(#p176966895c)" d="M 55.882727 261.216 
L 72.197026 192.509752 
L 88.511325 143.281725 
L 104.825624 108.009844 
L 121.139922 82.737541 
L 137.454221 64.629936 
L 153.76852 51.655837 
L 170.082819 42.359895 
L 186.397117 35.699353 
L 202.711416 30.927074 
L 219.025715 27.507736 
L 235.340014 25.057781 
L 251.654312 23.302388 
L 267.968611 22.044649 
L 284.28291 21.143479 
L 300.597209 20.49779 
L 316.911508 20.035155 
L 333.225806 19.703676 
L 349.540105 19.466172 
L 365.854404 19.296 
" style="fill:none;stroke:#1f77b4;stroke-linecap:square;stroke-width:1.5;"/>
   </g>
   <g id="line2d_19">
    <path clip-path="url(#p176966895c)" d="M 55.882727 261.216 
L 72.197026 261.216 
L 88.511325 238.313917 
L 104.825624 210.146646 
L 121.139922 183.928275 
L 137.454221 162.043662 
L 153.76852 144.772234 
L 170.082819 131.580383 
L 186.397117 121.709039 
L 202.711416 114.420911 
L 219.025715 109.088426 
L 235.340014 105.210949 
L 251.654312 102.4036 
L 267.968611 100.377177 
L 284.28291 98.917564 
L 300.597209 97.867809 
L 316.911508 97.113636 
L 333.225806 96.572231 
L 349.540105 96.183781 
L 365.854404 95.905183 
" style="fill:none;stroke:#ff7f0e;stroke-linecap:square;stroke-width:1.5;"/>
   </g>
   <g id="line2d_20">
    <path clip-path="url(#p176966895c)" d="M 55.882727 261.216 
L 57.514157 254.276669 
L 62.408447 235.107626 
L 64.039877 228.168295 
L 65.671307 223.290151 
L 68.934166 211.129145 
L 70.565596 206.044883 
L 72.197026 201.922508 
L 78.722746 182.684758 
L 80.354175 178.63109 
L 81.985605 175.745427 
L 83.617035 172.58494 
L 86.879895 163.79054 
L 88.511325 160.011696 
L 90.142755 157.126034 
L 91.774185 152.728834 
L 93.405614 149.156109 
L 96.668474 143.590903 
L 98.299904 141.529716 
L 99.931334 137.682166 
L 101.562764 135.346153 
L 103.194194 134.727797 
L 104.825624 131.292485 
L 108.088483 127.994585 
L 109.719913 125.864691 
L 111.351343 122.841616 
L 112.982773 121.261373 
L 114.614203 121.467491 
L 116.245633 117.688648 
L 117.877063 114.940398 
L 119.508492 113.291448 
L 121.139922 112.673092 
L 122.771352 110.955435 
L 124.402782 109.993548 
L 126.034212 107.93236 
L 127.665642 104.63446 
L 129.297072 101.817504 
L 130.928502 100.580792 
L 132.559931 100.237261 
L 134.191361 99.275373 
L 135.822791 98.519604 
L 137.454221 96.527123 
L 139.085651 93.916286 
L 140.717081 92.542161 
L 142.348511 91.374155 
L 143.979941 89.519086 
L 145.61137 87.114367 
L 147.2428 85.740242 
L 148.87423 82.991992 
L 150.50566 82.579755 
L 152.13709 81.892692 
L 153.76852 82.442342 
L 155.39995 82.30493 
L 157.03138 81.823986 
L 158.66281 82.373636 
L 160.294239 81.961399 
L 161.925669 80.724686 
L 163.557099 78.732205 
L 165.188529 77.632905 
L 166.819959 78.526086 
L 168.451389 78.663499 
L 170.082819 78.319967 
L 171.714249 78.319967 
L 173.345678 76.533605 
L 174.977108 75.15948 
L 176.608538 74.815949 
L 178.239968 72.823468 
L 179.871398 71.86158 
L 181.502828 71.380636 
L 183.134258 70.693574 
L 184.765688 69.319449 
L 188.028547 68.288855 
L 189.659977 68.56368 
L 191.291407 67.189555 
L 192.922837 66.433787 
L 194.554267 65.81543 
L 196.185697 65.609312 
L 197.817127 67.052143 
L 199.448556 66.158962 
L 201.079986 66.708612 
L 202.711416 64.71613 
L 204.342846 64.990955 
L 207.605706 62.861062 
L 209.237136 64.372599 
L 210.868566 64.303893 
L 212.499995 63.273299 
L 214.131425 64.235187 
L 215.762855 62.173999 
L 217.394285 61.624349 
L 219.025715 60.937287 
L 220.657145 60.731168 
L 222.288575 59.21963 
L 223.920005 60.937287 
L 225.551434 60.662462 
L 227.182864 63.06718 
L 228.814294 62.792355 
L 230.445724 62.929768 
L 232.077154 64.303893 
L 235.340014 63.06718 
L 236.971444 63.342005 
L 238.602873 63.06718 
L 240.234303 61.486937 
L 243.497163 61.899174 
L 245.128593 60.662462 
L 246.760023 62.173999 
L 248.391453 62.173999 
L 250.022883 62.998474 
L 251.654312 62.036587 
L 254.917172 61.761762 
L 258.180032 64.510012 
L 259.811462 65.26578 
L 261.442892 64.647424 
L 263.074322 66.090255 
L 264.705751 67.189555 
L 266.337181 66.91473 
L 267.968611 66.021549 
L 269.600041 66.021549 
L 271.231471 65.059662 
L 272.862901 64.510012 
L 274.494331 64.578718 
L 276.125761 63.135887 
L 277.75719 64.029068 
L 279.38862 65.334487 
L 281.02005 64.647424 
L 284.28291 64.16648 
L 285.91434 63.548124 
L 287.54577 63.342005 
L 289.1772 62.929768 
L 290.80863 63.960362 
L 292.440059 63.204593 
L 294.071489 62.105293 
L 295.702919 61.96788 
L 297.334349 60.799874 
L 298.965779 59.013512 
L 300.597209 58.66998 
L 302.228639 58.120331 
L 305.491498 57.433268 
L 307.122928 56.883618 
L 308.754358 56.059143 
L 310.385788 54.959843 
L 312.017218 54.616312 
L 313.648648 53.860543 
L 315.280078 53.791837 
L 316.911508 53.104774 
L 318.542937 53.104774 
L 320.174367 52.761243 
L 321.805797 53.448306 
L 323.437227 52.417712 
L 326.700087 51.799356 
L 328.331517 52.486418 
L 329.962947 55.234668 
L 331.594376 55.028549 
L 333.225806 54.204074 
L 334.857236 53.585718 
L 336.488666 55.372081 
L 338.120096 55.921731 
L 339.751526 55.990437 
L 341.382956 54.685018 
L 343.014386 54.891137 
L 344.645815 55.715612 
L 346.277245 55.715612 
L 347.908675 56.471381 
L 349.540105 55.509493 
L 354.434395 54.822431 
L 356.065825 55.372081 
L 357.697254 58.120331 
L 359.328684 57.158443 
L 360.960114 55.853024 
L 362.591544 56.333968 
L 364.222974 55.921731 
L 365.854404 54.959843 
L 367.485834 54.959843 
L 369.117264 53.448306 
L 370.748693 53.104774 
L 372.380123 53.104774 
L 374.011553 53.929249 
L 375.642983 54.410193 
L 378.905843 57.089737 
L 380.537273 57.501974 
L 380.537273 57.501974 
" style="fill:none;stroke:#2ca02c;stroke-linecap:square;stroke-width:1.5;"/>
   </g>
   <g id="line2d_21">
    <path clip-path="url(#p176966895c)" d="M 55.882727 261.216 
L 57.514157 261.216 
L 59.145587 260.872469 
L 60.777017 260.391525 
L 62.408447 260.322819 
L 64.039877 259.635756 
L 65.671307 258.605163 
L 67.302736 257.36845 
L 68.934166 256.406563 
L 70.565596 255.582088 
L 72.197026 254.276669 
L 73.828456 252.559013 
L 75.459886 251.116182 
L 77.091316 249.192407 
L 78.722746 247.543457 
L 80.354175 246.306744 
L 81.985605 244.7265 
L 83.617035 242.527901 
L 85.248465 241.222482 
L 86.879895 239.573532 
L 88.511325 238.130701 
L 90.142755 235.863394 
L 91.774185 234.420563 
L 93.405614 233.252557 
L 96.668474 229.54242 
L 98.299904 227.000288 
L 99.931334 225.557457 
L 101.562764 223.290151 
L 103.194194 221.503789 
L 104.825624 220.885432 
L 106.457053 219.305189 
L 108.088483 216.694351 
L 109.719913 214.976695 
L 111.351343 214.083514 
L 112.982773 212.434564 
L 114.614203 209.548901 
L 116.245633 210.029845 
L 117.877063 208.930545 
L 119.508492 208.312189 
L 121.139922 206.594533 
L 122.771352 203.914989 
L 124.402782 202.403452 
L 127.665642 200.96062 
L 129.297072 200.342264 
L 130.928502 200.479677 
L 132.559931 198.624608 
L 134.191361 196.219889 
L 135.822791 195.120589 
L 137.454221 194.708352 
L 139.085651 193.677758 
L 140.717081 193.746464 
L 142.348511 193.196814 
L 143.979941 192.097514 
L 145.61137 191.204333 
L 147.2428 189.486677 
L 148.87423 188.868321 
L 150.50566 185.982658 
L 152.13709 185.020771 
L 153.76852 183.096996 
L 157.03138 181.241927 
L 158.66281 178.424971 
L 160.294239 179.043327 
L 161.925669 178.768502 
L 163.557099 179.386858 
L 165.188529 178.424971 
L 166.819959 177.944027 
L 168.451389 178.218852 
L 170.082819 177.875321 
L 171.714249 176.913434 
L 173.345678 176.844727 
L 176.608538 175.058365 
L 178.239968 176.43249 
L 179.871398 175.058365 
L 181.502828 174.646127 
L 183.134258 173.959065 
L 188.028547 177.875321 
L 189.659977 176.363784 
L 191.291407 175.33319 
L 192.922837 174.508715 
L 194.554267 174.165184 
L 196.185697 175.058365 
L 197.817127 173.340709 
L 199.448556 172.378821 
L 201.079986 172.722352 
L 202.711416 173.340709 
L 204.342846 173.272002 
L 205.974276 174.165184 
L 207.605706 173.478121 
L 209.237136 172.103996 
L 210.868566 172.241409 
L 212.499995 172.58494 
L 214.131425 172.58494 
L 215.762855 172.310115 
L 219.025715 169.974102 
L 220.657145 169.080921 
L 223.920005 170.523752 
L 225.551434 171.416934 
L 227.182864 169.699277 
L 230.445724 168.943509 
L 232.077154 167.294559 
L 233.708584 167.63809 
L 235.340014 167.08844 
L 236.971444 165.714315 
L 238.602873 164.958546 
L 240.234303 165.783021 
L 241.865733 163.927953 
L 243.497163 162.347709 
L 245.128593 161.59194 
L 246.760023 159.668165 
L 248.391453 159.324634 
L 250.022883 159.324634 
L 251.654312 160.217815 
L 253.285742 159.874284 
L 254.917172 160.149109 
L 256.548602 158.568865 
L 258.180032 156.438972 
L 259.811462 156.988622 
L 261.442892 157.881803 
L 263.074322 156.507678 
L 264.705751 156.09544 
L 266.337181 156.919915 
L 267.968611 158.84369 
L 269.600041 158.774984 
L 271.231471 160.49264 
L 272.862901 159.462047 
L 274.494331 158.568865 
L 276.125761 157.538272 
L 277.75719 156.988622 
L 279.38862 157.538272 
L 281.02005 157.813097 
L 282.65148 158.84369 
L 284.28291 160.149109 
L 285.91434 161.248409 
L 287.54577 161.317115 
L 289.1772 160.630053 
L 292.440059 161.935471 
L 294.071489 162.966065 
L 295.702919 162.279003 
L 297.334349 163.79054 
L 298.965779 165.508196 
L 300.597209 164.065365 
L 302.228639 164.615015 
L 303.860069 163.653128 
L 305.491498 163.927953 
L 307.122928 164.477603 
L 308.754358 164.821134 
L 310.385788 164.408896 
L 312.017218 164.546309 
L 315.280078 166.263965 
L 316.911508 166.263965 
L 318.542937 164.752428 
L 320.174367 164.546309 
L 323.437227 165.783021 
L 325.068657 164.546309 
L 326.700087 163.927953 
L 328.331517 161.866765 
L 329.962947 160.286521 
L 331.594376 161.04229 
L 333.225806 160.698759 
L 334.857236 161.660646 
L 336.488666 159.736872 
L 338.120096 159.39334 
L 339.751526 160.355228 
L 341.382956 159.805578 
L 343.014386 160.149109 
L 344.645815 159.255928 
L 346.277245 158.912397 
L 347.908675 158.912397 
L 349.540105 157.950509 
L 352.802965 158.29404 
L 354.434395 158.019215 
L 356.065825 157.263447 
L 357.697254 155.408378 
L 359.328684 154.858728 
L 360.960114 154.858728 
L 362.591544 155.820615 
L 364.222974 156.370265 
L 367.485834 156.988622 
L 369.117264 159.049809 
L 370.748693 159.255928 
L 372.380123 156.919915 
L 375.642983 158.019215 
L 377.274413 157.606978 
L 378.905843 157.881803 
L 380.537273 157.675684 
L 380.537273 157.675684 
" style="fill:none;stroke:#d62728;stroke-linecap:square;stroke-width:1.5;"/>
   </g>
   <g id="patch_3">
    <path d="M 39.65 273.312 
L 39.65 7.2 
" style="fill:none;stroke:#000000;stroke-linecap:square;stroke-linejoin:miter;stroke-width:0.8;"/>
   </g>
   <g id="patch_4">
    <path d="M 396.77 273.312 
L 396.77 7.2 
" style="fill:none;stroke:#000000;stroke-linecap:square;stroke-linejoin:miter;stroke-width:0.8;"/>
   </g>
   <g id="patch_5">
    <path d="M 39.65 273.312 
L 396.77 273.312 
" style="fill:none;stroke:#000000;stroke-linecap:square;stroke-linejoin:miter;stroke-width:0.8;"/>
   </g>
   <g id="patch_6">
    <path d="M 39.65 7.2 
L 396.77 7.2 
" style="fill:none;stroke:#000000;stroke-linecap:square;stroke-linejoin:miter;stroke-width:0.8;"/>
   </g>
  </g>
 </g>
 <defs>
  <clipPath id="p176966895c">
   <rect height="266.112" width="357.12" x="39.65" y="7.2"/>
  </clipPath>
 </defs>
</svg>
