<?xml version="1.0" encoding="utf-8" standalone="no"?>
<!DOCTYPE svg PUBLIC "-//W3C//DTD SVG 1.1//EN"
  "http://www.w3.org/Graphics/SVG/1.1/DTD/svg11.dtd">
<!-- Created with matplotlib (https://matplotlib.org/) -->
<svg height="325.986375pt" version="1.1" viewBox="0 0 443.635488 325.986375" width="443.635488pt" xmlns="http://www.w3.org/2000/svg" xmlns:xlink="http://www.w3.org/1999/xlink">
 <metadata>
  <rdf:RDF xmlns:cc="http://creativecommons.org/ns#" xmlns:dc="http://purl.org/dc/elements/1.1/" xmlns:rdf="http://www.w3.org/1999/02/22-rdf-syntax-ns#">
   <cc:Work>
    <dc:type rdf:resource="http://purl.org/dc/dcmitype/StillImage"/>
    <dc:date>2020-10-15T08:57:15.609625</dc:date>
    <dc:format>image/svg+xml</dc:format>
    <dc:creator>
     <cc:Agent>
      <dc:title>Matplotlib v3.3.2, https://matplotlib.org/</dc:title>
     </cc:Agent>
    </dc:creator>
   </cc:Work>
  </rdf:RDF>
 </metadata>
 <defs>
  <style type="text/css">*{stroke-linecap:butt;stroke-linejoin:round;}</style>
 </defs>
 <g id="figure_1">
  <g id="patch_1">
   <path d="M 0 325.986375 
L 443.635488 325.986375 
L 443.635488 0 
L 0 0 
z
" style="fill:none;opacity:0;"/>
  </g>
  <g id="axes_1">
   <g id="patch_2">
    <path d="M 49.571875 288.430125 
L 335.267875 288.430125 
L 335.267875 22.318125 
L 49.571875 22.318125 
z
" style="fill:none;opacity:0;"/>
   </g>
   <g id="matplotlib.axis_1">
    <g id="xtick_1">
     <g id="line2d_1">
      <defs>
       <path d="M 0 0 
L 0 3.5 
" id="m65fdabbf08" style="stroke:#000000;stroke-width:0.8;"/>
      </defs>
      <g>
       <use style="stroke:#000000;stroke-width:0.8;" x="49.571875" xlink:href="#m65fdabbf08" y="288.430125"/>
      </g>
     </g>
     <g id="text_1">
      <!-- 2000 -->
      <g transform="translate(36.846875 303.028562)scale(0.1 -0.1)">
       <defs>
        <path d="M 19.1875 8.296875 
L 53.609375 8.296875 
L 53.609375 0 
L 7.328125 0 
L 7.328125 8.296875 
Q 12.9375 14.109375 22.625 23.890625 
Q 32.328125 33.6875 34.8125 36.53125 
Q 39.546875 41.84375 41.421875 45.53125 
Q 43.3125 49.21875 43.3125 52.78125 
Q 43.3125 58.59375 39.234375 62.25 
Q 35.15625 65.921875 28.609375 65.921875 
Q 23.96875 65.921875 18.8125 64.3125 
Q 13.671875 62.703125 7.8125 59.421875 
L 7.8125 69.390625 
Q 13.765625 71.78125 18.9375 73 
Q 24.125 74.21875 28.421875 74.21875 
Q 39.75 74.21875 46.484375 68.546875 
Q 53.21875 62.890625 53.21875 53.421875 
Q 53.21875 48.921875 51.53125 44.890625 
Q 49.859375 40.875 45.40625 35.40625 
Q 44.1875 33.984375 37.640625 27.21875 
Q 31.109375 20.453125 19.1875 8.296875 
z
" id="DejaVuSans-50"/>
        <path d="M 31.78125 66.40625 
Q 24.171875 66.40625 20.328125 58.90625 
Q 16.5 51.421875 16.5 36.375 
Q 16.5 21.390625 20.328125 13.890625 
Q 24.171875 6.390625 31.78125 6.390625 
Q 39.453125 6.390625 43.28125 13.890625 
Q 47.125 21.390625 47.125 36.375 
Q 47.125 51.421875 43.28125 58.90625 
Q 39.453125 66.40625 31.78125 66.40625 
z
M 31.78125 74.21875 
Q 44.046875 74.21875 50.515625 64.515625 
Q 56.984375 54.828125 56.984375 36.375 
Q 56.984375 17.96875 50.515625 8.265625 
Q 44.046875 -1.421875 31.78125 -1.421875 
Q 19.53125 -1.421875 13.0625 8.265625 
Q 6.59375 17.96875 6.59375 36.375 
Q 6.59375 54.828125 13.0625 64.515625 
Q 19.53125 74.21875 31.78125 74.21875 
z
" id="DejaVuSans-48"/>
       </defs>
       <use xlink:href="#DejaVuSans-50"/>
       <use x="63.623047" xlink:href="#DejaVuSans-48"/>
       <use x="127.246094" xlink:href="#DejaVuSans-48"/>
       <use x="190.869141" xlink:href="#DejaVuSans-48"/>
      </g>
     </g>
    </g>
    <g id="xtick_2">
     <g id="line2d_2">
      <g>
       <use style="stroke:#000000;stroke-width:0.8;" x="90.385589" xlink:href="#m65fdabbf08" y="288.430125"/>
      </g>
     </g>
     <g id="text_2">
      <!-- 2005 -->
      <g transform="translate(77.660589 303.028562)scale(0.1 -0.1)">
       <defs>
        <path d="M 10.796875 72.90625 
L 49.515625 72.90625 
L 49.515625 64.59375 
L 19.828125 64.59375 
L 19.828125 46.734375 
Q 21.96875 47.46875 24.109375 47.828125 
Q 26.265625 48.1875 28.421875 48.1875 
Q 40.625 48.1875 47.75 41.5 
Q 54.890625 34.8125 54.890625 23.390625 
Q 54.890625 11.625 47.5625 5.09375 
Q 40.234375 -1.421875 26.90625 -1.421875 
Q 22.3125 -1.421875 17.546875 -0.640625 
Q 12.796875 0.140625 7.71875 1.703125 
L 7.71875 11.625 
Q 12.109375 9.234375 16.796875 8.0625 
Q 21.484375 6.890625 26.703125 6.890625 
Q 35.15625 6.890625 40.078125 11.328125 
Q 45.015625 15.765625 45.015625 23.390625 
Q 45.015625 31 40.078125 35.4375 
Q 35.15625 39.890625 26.703125 39.890625 
Q 22.75 39.890625 18.8125 39.015625 
Q 14.890625 38.140625 10.796875 36.28125 
z
" id="DejaVuSans-53"/>
       </defs>
       <use xlink:href="#DejaVuSans-50"/>
       <use x="63.623047" xlink:href="#DejaVuSans-48"/>
       <use x="127.246094" xlink:href="#DejaVuSans-48"/>
       <use x="190.869141" xlink:href="#DejaVuSans-53"/>
      </g>
     </g>
    </g>
    <g id="xtick_3">
     <g id="line2d_3">
      <g>
       <use style="stroke:#000000;stroke-width:0.8;" x="131.199304" xlink:href="#m65fdabbf08" y="288.430125"/>
      </g>
     </g>
     <g id="text_3">
      <!-- 2010 -->
      <g transform="translate(118.474304 303.028562)scale(0.1 -0.1)">
       <defs>
        <path d="M 12.40625 8.296875 
L 28.515625 8.296875 
L 28.515625 63.921875 
L 10.984375 60.40625 
L 10.984375 69.390625 
L 28.421875 72.90625 
L 38.28125 72.90625 
L 38.28125 8.296875 
L 54.390625 8.296875 
L 54.390625 0 
L 12.40625 0 
z
" id="DejaVuSans-49"/>
       </defs>
       <use xlink:href="#DejaVuSans-50"/>
       <use x="63.623047" xlink:href="#DejaVuSans-48"/>
       <use x="127.246094" xlink:href="#DejaVuSans-49"/>
       <use x="190.869141" xlink:href="#DejaVuSans-48"/>
      </g>
     </g>
    </g>
    <g id="xtick_4">
     <g id="line2d_4">
      <g>
       <use style="stroke:#000000;stroke-width:0.8;" x="172.013018" xlink:href="#m65fdabbf08" y="288.430125"/>
      </g>
     </g>
     <g id="text_4">
      <!-- 2015 -->
      <g transform="translate(159.288018 303.028562)scale(0.1 -0.1)">
       <use xlink:href="#DejaVuSans-50"/>
       <use x="63.623047" xlink:href="#DejaVuSans-48"/>
       <use x="127.246094" xlink:href="#DejaVuSans-49"/>
       <use x="190.869141" xlink:href="#DejaVuSans-53"/>
      </g>
     </g>
    </g>
    <g id="xtick_5">
     <g id="line2d_5">
      <g>
       <use style="stroke:#000000;stroke-width:0.8;" x="212.826732" xlink:href="#m65fdabbf08" y="288.430125"/>
      </g>
     </g>
     <g id="text_5">
      <!-- 2020 -->
      <g transform="translate(200.101732 303.028562)scale(0.1 -0.1)">
       <use xlink:href="#DejaVuSans-50"/>
       <use x="63.623047" xlink:href="#DejaVuSans-48"/>
       <use x="127.246094" xlink:href="#DejaVuSans-50"/>
       <use x="190.869141" xlink:href="#DejaVuSans-48"/>
      </g>
     </g>
    </g>
    <g id="xtick_6">
     <g id="line2d_6">
      <g>
       <use style="stroke:#000000;stroke-width:0.8;" x="253.640446" xlink:href="#m65fdabbf08" y="288.430125"/>
      </g>
     </g>
     <g id="text_6">
      <!-- 2025 -->
      <g transform="translate(240.915446 303.028562)scale(0.1 -0.1)">
       <use xlink:href="#DejaVuSans-50"/>
       <use x="63.623047" xlink:href="#DejaVuSans-48"/>
       <use x="127.246094" xlink:href="#DejaVuSans-50"/>
       <use x="190.869141" xlink:href="#DejaVuSans-53"/>
      </g>
     </g>
    </g>
    <g id="xtick_7">
     <g id="line2d_7">
      <g>
       <use style="stroke:#000000;stroke-width:0.8;" x="294.454161" xlink:href="#m65fdabbf08" y="288.430125"/>
      </g>
     </g>
     <g id="text_7">
      <!-- 2030 -->
      <g transform="translate(281.729161 303.028562)scale(0.1 -0.1)">
       <defs>
        <path d="M 40.578125 39.3125 
Q 47.65625 37.796875 51.625 33 
Q 55.609375 28.21875 55.609375 21.1875 
Q 55.609375 10.40625 48.1875 4.484375 
Q 40.765625 -1.421875 27.09375 -1.421875 
Q 22.515625 -1.421875 17.65625 -0.515625 
Q 12.796875 0.390625 7.625 2.203125 
L 7.625 11.71875 
Q 11.71875 9.328125 16.59375 8.109375 
Q 21.484375 6.890625 26.8125 6.890625 
Q 36.078125 6.890625 40.9375 10.546875 
Q 45.796875 14.203125 45.796875 21.1875 
Q 45.796875 27.640625 41.28125 31.265625 
Q 36.765625 34.90625 28.71875 34.90625 
L 20.21875 34.90625 
L 20.21875 43.015625 
L 29.109375 43.015625 
Q 36.375 43.015625 40.234375 45.921875 
Q 44.09375 48.828125 44.09375 54.296875 
Q 44.09375 59.90625 40.109375 62.90625 
Q 36.140625 65.921875 28.71875 65.921875 
Q 24.65625 65.921875 20.015625 65.03125 
Q 15.375 64.15625 9.8125 62.3125 
L 9.8125 71.09375 
Q 15.4375 72.65625 20.34375 73.4375 
Q 25.25 74.21875 29.59375 74.21875 
Q 40.828125 74.21875 47.359375 69.109375 
Q 53.90625 64.015625 53.90625 55.328125 
Q 53.90625 49.265625 50.4375 45.09375 
Q 46.96875 40.921875 40.578125 39.3125 
z
" id="DejaVuSans-51"/>
       </defs>
       <use xlink:href="#DejaVuSans-50"/>
       <use x="63.623047" xlink:href="#DejaVuSans-48"/>
       <use x="127.246094" xlink:href="#DejaVuSans-51"/>
       <use x="190.869141" xlink:href="#DejaVuSans-48"/>
      </g>
     </g>
    </g>
    <g id="xtick_8">
     <g id="line2d_8">
      <g>
       <use style="stroke:#000000;stroke-width:0.8;" x="335.267875" xlink:href="#m65fdabbf08" y="288.430125"/>
      </g>
     </g>
     <g id="text_8">
      <!-- 2035 -->
      <g transform="translate(322.542875 303.028562)scale(0.1 -0.1)">
       <use xlink:href="#DejaVuSans-50"/>
       <use x="63.623047" xlink:href="#DejaVuSans-48"/>
       <use x="127.246094" xlink:href="#DejaVuSans-51"/>
       <use x="190.869141" xlink:href="#DejaVuSans-53"/>
      </g>
     </g>
    </g>
    <g id="text_9">
     <!-- Year -->
     <g transform="translate(181.832375 316.706687)scale(0.1 -0.1)">
      <defs>
       <path d="M -0.203125 72.90625 
L 10.40625 72.90625 
L 30.609375 42.921875 
L 50.6875 72.90625 
L 61.28125 72.90625 
L 35.5 34.71875 
L 35.5 0 
L 25.59375 0 
L 25.59375 34.71875 
z
" id="DejaVuSans-89"/>
       <path d="M 56.203125 29.59375 
L 56.203125 25.203125 
L 14.890625 25.203125 
Q 15.484375 15.921875 20.484375 11.0625 
Q 25.484375 6.203125 34.421875 6.203125 
Q 39.59375 6.203125 44.453125 7.46875 
Q 49.3125 8.734375 54.109375 11.28125 
L 54.109375 2.78125 
Q 49.265625 0.734375 44.1875 -0.34375 
Q 39.109375 -1.421875 33.890625 -1.421875 
Q 20.796875 -1.421875 13.15625 6.1875 
Q 5.515625 13.8125 5.515625 26.8125 
Q 5.515625 40.234375 12.765625 48.109375 
Q 20.015625 56 32.328125 56 
Q 43.359375 56 49.78125 48.890625 
Q 56.203125 41.796875 56.203125 29.59375 
z
M 47.21875 32.234375 
Q 47.125 39.59375 43.09375 43.984375 
Q 39.0625 48.390625 32.421875 48.390625 
Q 24.90625 48.390625 20.390625 44.140625 
Q 15.875 39.890625 15.1875 32.171875 
z
" id="DejaVuSans-101"/>
       <path d="M 34.28125 27.484375 
Q 23.390625 27.484375 19.1875 25 
Q 14.984375 22.515625 14.984375 16.5 
Q 14.984375 11.71875 18.140625 8.90625 
Q 21.296875 6.109375 26.703125 6.109375 
Q 34.1875 6.109375 38.703125 11.40625 
Q 43.21875 16.703125 43.21875 25.484375 
L 43.21875 27.484375 
z
M 52.203125 31.203125 
L 52.203125 0 
L 43.21875 0 
L 43.21875 8.296875 
Q 40.140625 3.328125 35.546875 0.953125 
Q 30.953125 -1.421875 24.3125 -1.421875 
Q 15.921875 -1.421875 10.953125 3.296875 
Q 6 8.015625 6 15.921875 
Q 6 25.140625 12.171875 29.828125 
Q 18.359375 34.515625 30.609375 34.515625 
L 43.21875 34.515625 
L 43.21875 35.40625 
Q 43.21875 41.609375 39.140625 45 
Q 35.0625 48.390625 27.6875 48.390625 
Q 23 48.390625 18.546875 47.265625 
Q 14.109375 46.140625 10.015625 43.890625 
L 10.015625 52.203125 
Q 14.9375 54.109375 19.578125 55.046875 
Q 24.21875 56 28.609375 56 
Q 40.484375 56 46.34375 49.84375 
Q 52.203125 43.703125 52.203125 31.203125 
z
" id="DejaVuSans-97"/>
       <path d="M 41.109375 46.296875 
Q 39.59375 47.171875 37.8125 47.578125 
Q 36.03125 48 33.890625 48 
Q 26.265625 48 22.1875 43.046875 
Q 18.109375 38.09375 18.109375 28.8125 
L 18.109375 0 
L 9.078125 0 
L 9.078125 54.6875 
L 18.109375 54.6875 
L 18.109375 46.1875 
Q 20.953125 51.171875 25.484375 53.578125 
Q 30.03125 56 36.53125 56 
Q 37.453125 56 38.578125 55.875 
Q 39.703125 55.765625 41.0625 55.515625 
z
" id="DejaVuSans-114"/>
      </defs>
      <use xlink:href="#DejaVuSans-89"/>
      <use x="47.833984" xlink:href="#DejaVuSans-101"/>
      <use x="109.357422" xlink:href="#DejaVuSans-97"/>
      <use x="170.636719" xlink:href="#DejaVuSans-114"/>
     </g>
    </g>
   </g>
   <g id="matplotlib.axis_2">
    <g id="ytick_1">
     <g id="line2d_9">
      <defs>
       <path d="M 0 0 
L -3.5 0 
" id="m5457f930e8" style="stroke:#000000;stroke-width:0.8;"/>
      </defs>
      <g>
       <use style="stroke:#000000;stroke-width:0.8;" x="49.571875" xlink:href="#m5457f930e8" y="288.430125"/>
      </g>
     </g>
     <g id="text_10">
      <!-- 0 -->
      <g transform="translate(36.209375 292.229344)scale(0.1 -0.1)">
       <use xlink:href="#DejaVuSans-48"/>
      </g>
     </g>
    </g>
    <g id="ytick_2">
     <g id="line2d_10">
      <g>
       <use style="stroke:#000000;stroke-width:0.8;" x="49.571875" xlink:href="#m5457f930e8" y="249.349518"/>
      </g>
     </g>
     <g id="text_11">
      <!-- 5.0k -->
      <g transform="translate(20.878125 253.148737)scale(0.1 -0.1)">
       <defs>
        <path d="M 10.6875 12.40625 
L 21 12.40625 
L 21 0 
L 10.6875 0 
z
" id="DejaVuSans-46"/>
        <path d="M 9.078125 75.984375 
L 18.109375 75.984375 
L 18.109375 31.109375 
L 44.921875 54.6875 
L 56.390625 54.6875 
L 27.390625 29.109375 
L 57.625 0 
L 45.90625 0 
L 18.109375 26.703125 
L 18.109375 0 
L 9.078125 0 
z
" id="DejaVuSans-107"/>
       </defs>
       <use xlink:href="#DejaVuSans-53"/>
       <use x="63.623047" xlink:href="#DejaVuSans-46"/>
       <use x="95.410156" xlink:href="#DejaVuSans-48"/>
       <use x="159.033203" xlink:href="#DejaVuSans-107"/>
      </g>
     </g>
    </g>
    <g id="ytick_3">
     <g id="line2d_11">
      <g>
       <use style="stroke:#000000;stroke-width:0.8;" x="49.571875" xlink:href="#m5457f930e8" y="210.268912"/>
      </g>
     </g>
     <g id="text_12">
      <!-- 10k -->
      <g transform="translate(24.05625 214.068131)scale(0.1 -0.1)">
       <use xlink:href="#DejaVuSans-49"/>
       <use x="63.623047" xlink:href="#DejaVuSans-48"/>
       <use x="127.246094" xlink:href="#DejaVuSans-107"/>
      </g>
     </g>
    </g>
    <g id="ytick_4">
     <g id="line2d_12">
      <g>
       <use style="stroke:#000000;stroke-width:0.8;" x="49.571875" xlink:href="#m5457f930e8" y="171.188305"/>
      </g>
     </g>
     <g id="text_13">
      <!-- 15k -->
      <g transform="translate(24.05625 174.987524)scale(0.1 -0.1)">
       <use xlink:href="#DejaVuSans-49"/>
       <use x="63.623047" xlink:href="#DejaVuSans-53"/>
       <use x="127.246094" xlink:href="#DejaVuSans-107"/>
      </g>
     </g>
    </g>
    <g id="ytick_5">
     <g id="line2d_13">
      <g>
       <use style="stroke:#000000;stroke-width:0.8;" x="49.571875" xlink:href="#m5457f930e8" y="132.107699"/>
      </g>
     </g>
     <g id="text_14">
      <!-- 20k -->
      <g transform="translate(24.05625 135.906918)scale(0.1 -0.1)">
       <use xlink:href="#DejaVuSans-50"/>
       <use x="63.623047" xlink:href="#DejaVuSans-48"/>
       <use x="127.246094" xlink:href="#DejaVuSans-107"/>
      </g>
     </g>
    </g>
    <g id="ytick_6">
     <g id="line2d_14">
      <g>
       <use style="stroke:#000000;stroke-width:0.8;" x="49.571875" xlink:href="#m5457f930e8" y="93.027092"/>
      </g>
     </g>
     <g id="text_15">
      <!-- 25k -->
      <g transform="translate(24.05625 96.826311)scale(0.1 -0.1)">
       <use xlink:href="#DejaVuSans-50"/>
       <use x="63.623047" xlink:href="#DejaVuSans-53"/>
       <use x="127.246094" xlink:href="#DejaVuSans-107"/>
      </g>
     </g>
    </g>
    <g id="ytick_7">
     <g id="line2d_15">
      <g>
       <use style="stroke:#000000;stroke-width:0.8;" x="49.571875" xlink:href="#m5457f930e8" y="53.946486"/>
      </g>
     </g>
     <g id="text_16">
      <!-- 30k -->
      <g transform="translate(24.05625 57.745705)scale(0.1 -0.1)">
       <use xlink:href="#DejaVuSans-51"/>
       <use x="63.623047" xlink:href="#DejaVuSans-48"/>
       <use x="127.246094" xlink:href="#DejaVuSans-107"/>
      </g>
     </g>
    </g>
    <g id="text_17">
     <!-- New incident cases (Number of people per year) -->
     <g transform="translate(14.798438 276.797562)rotate(-90)scale(0.1 -0.1)">
      <defs>
       <path d="M 9.8125 72.90625 
L 23.09375 72.90625 
L 55.421875 11.921875 
L 55.421875 72.90625 
L 64.984375 72.90625 
L 64.984375 0 
L 51.703125 0 
L 19.390625 60.984375 
L 19.390625 0 
L 9.8125 0 
z
" id="DejaVuSans-78"/>
       <path d="M 4.203125 54.6875 
L 13.1875 54.6875 
L 24.421875 12.015625 
L 35.59375 54.6875 
L 46.1875 54.6875 
L 57.421875 12.015625 
L 68.609375 54.6875 
L 77.59375 54.6875 
L 63.28125 0 
L 52.6875 0 
L 40.921875 44.828125 
L 29.109375 0 
L 18.5 0 
z
" id="DejaVuSans-119"/>
       <path id="DejaVuSans-32"/>
       <path d="M 9.421875 54.6875 
L 18.40625 54.6875 
L 18.40625 0 
L 9.421875 0 
z
M 9.421875 75.984375 
L 18.40625 75.984375 
L 18.40625 64.59375 
L 9.421875 64.59375 
z
" id="DejaVuSans-105"/>
       <path d="M 54.890625 33.015625 
L 54.890625 0 
L 45.90625 0 
L 45.90625 32.71875 
Q 45.90625 40.484375 42.875 44.328125 
Q 39.84375 48.1875 33.796875 48.1875 
Q 26.515625 48.1875 22.3125 43.546875 
Q 18.109375 38.921875 18.109375 30.90625 
L 18.109375 0 
L 9.078125 0 
L 9.078125 54.6875 
L 18.109375 54.6875 
L 18.109375 46.1875 
Q 21.34375 51.125 25.703125 53.5625 
Q 30.078125 56 35.796875 56 
Q 45.21875 56 50.046875 50.171875 
Q 54.890625 44.34375 54.890625 33.015625 
z
" id="DejaVuSans-110"/>
       <path d="M 48.78125 52.59375 
L 48.78125 44.1875 
Q 44.96875 46.296875 41.140625 47.34375 
Q 37.3125 48.390625 33.40625 48.390625 
Q 24.65625 48.390625 19.8125 42.84375 
Q 14.984375 37.3125 14.984375 27.296875 
Q 14.984375 17.28125 19.8125 11.734375 
Q 24.65625 6.203125 33.40625 6.203125 
Q 37.3125 6.203125 41.140625 7.25 
Q 44.96875 8.296875 48.78125 10.40625 
L 48.78125 2.09375 
Q 45.015625 0.34375 40.984375 -0.53125 
Q 36.96875 -1.421875 32.421875 -1.421875 
Q 20.0625 -1.421875 12.78125 6.34375 
Q 5.515625 14.109375 5.515625 27.296875 
Q 5.515625 40.671875 12.859375 48.328125 
Q 20.21875 56 33.015625 56 
Q 37.15625 56 41.109375 55.140625 
Q 45.0625 54.296875 48.78125 52.59375 
z
" id="DejaVuSans-99"/>
       <path d="M 45.40625 46.390625 
L 45.40625 75.984375 
L 54.390625 75.984375 
L 54.390625 0 
L 45.40625 0 
L 45.40625 8.203125 
Q 42.578125 3.328125 38.25 0.953125 
Q 33.9375 -1.421875 27.875 -1.421875 
Q 17.96875 -1.421875 11.734375 6.484375 
Q 5.515625 14.40625 5.515625 27.296875 
Q 5.515625 40.1875 11.734375 48.09375 
Q 17.96875 56 27.875 56 
Q 33.9375 56 38.25 53.625 
Q 42.578125 51.265625 45.40625 46.390625 
z
M 14.796875 27.296875 
Q 14.796875 17.390625 18.875 11.75 
Q 22.953125 6.109375 30.078125 6.109375 
Q 37.203125 6.109375 41.296875 11.75 
Q 45.40625 17.390625 45.40625 27.296875 
Q 45.40625 37.203125 41.296875 42.84375 
Q 37.203125 48.484375 30.078125 48.484375 
Q 22.953125 48.484375 18.875 42.84375 
Q 14.796875 37.203125 14.796875 27.296875 
z
" id="DejaVuSans-100"/>
       <path d="M 18.3125 70.21875 
L 18.3125 54.6875 
L 36.8125 54.6875 
L 36.8125 47.703125 
L 18.3125 47.703125 
L 18.3125 18.015625 
Q 18.3125 11.328125 20.140625 9.421875 
Q 21.96875 7.515625 27.59375 7.515625 
L 36.8125 7.515625 
L 36.8125 0 
L 27.59375 0 
Q 17.1875 0 13.234375 3.875 
Q 9.28125 7.765625 9.28125 18.015625 
L 9.28125 47.703125 
L 2.6875 47.703125 
L 2.6875 54.6875 
L 9.28125 54.6875 
L 9.28125 70.21875 
z
" id="DejaVuSans-116"/>
       <path d="M 44.28125 53.078125 
L 44.28125 44.578125 
Q 40.484375 46.53125 36.375 47.5 
Q 32.28125 48.484375 27.875 48.484375 
Q 21.1875 48.484375 17.84375 46.4375 
Q 14.5 44.390625 14.5 40.28125 
Q 14.5 37.15625 16.890625 35.375 
Q 19.28125 33.59375 26.515625 31.984375 
L 29.59375 31.296875 
Q 39.15625 29.25 43.1875 25.515625 
Q 47.21875 21.78125 47.21875 15.09375 
Q 47.21875 7.46875 41.1875 3.015625 
Q 35.15625 -1.421875 24.609375 -1.421875 
Q 20.21875 -1.421875 15.453125 -0.5625 
Q 10.6875 0.296875 5.421875 2 
L 5.421875 11.28125 
Q 10.40625 8.6875 15.234375 7.390625 
Q 20.0625 6.109375 24.8125 6.109375 
Q 31.15625 6.109375 34.5625 8.28125 
Q 37.984375 10.453125 37.984375 14.40625 
Q 37.984375 18.0625 35.515625 20.015625 
Q 33.0625 21.96875 24.703125 23.78125 
L 21.578125 24.515625 
Q 13.234375 26.265625 9.515625 29.90625 
Q 5.8125 33.546875 5.8125 39.890625 
Q 5.8125 47.609375 11.28125 51.796875 
Q 16.75 56 26.8125 56 
Q 31.78125 56 36.171875 55.265625 
Q 40.578125 54.546875 44.28125 53.078125 
z
" id="DejaVuSans-115"/>
       <path d="M 31 75.875 
Q 24.46875 64.65625 21.28125 53.65625 
Q 18.109375 42.671875 18.109375 31.390625 
Q 18.109375 20.125 21.3125 9.0625 
Q 24.515625 -2 31 -13.1875 
L 23.1875 -13.1875 
Q 15.875 -1.703125 12.234375 9.375 
Q 8.59375 20.453125 8.59375 31.390625 
Q 8.59375 42.28125 12.203125 53.3125 
Q 15.828125 64.359375 23.1875 75.875 
z
" id="DejaVuSans-40"/>
       <path d="M 8.5 21.578125 
L 8.5 54.6875 
L 17.484375 54.6875 
L 17.484375 21.921875 
Q 17.484375 14.15625 20.5 10.265625 
Q 23.53125 6.390625 29.59375 6.390625 
Q 36.859375 6.390625 41.078125 11.03125 
Q 45.3125 15.671875 45.3125 23.6875 
L 45.3125 54.6875 
L 54.296875 54.6875 
L 54.296875 0 
L 45.3125 0 
L 45.3125 8.40625 
Q 42.046875 3.421875 37.71875 1 
Q 33.40625 -1.421875 27.6875 -1.421875 
Q 18.265625 -1.421875 13.375 4.4375 
Q 8.5 10.296875 8.5 21.578125 
z
M 31.109375 56 
z
" id="DejaVuSans-117"/>
       <path d="M 52 44.1875 
Q 55.375 50.25 60.0625 53.125 
Q 64.75 56 71.09375 56 
Q 79.640625 56 84.28125 50.015625 
Q 88.921875 44.046875 88.921875 33.015625 
L 88.921875 0 
L 79.890625 0 
L 79.890625 32.71875 
Q 79.890625 40.578125 77.09375 44.375 
Q 74.3125 48.1875 68.609375 48.1875 
Q 61.625 48.1875 57.5625 43.546875 
Q 53.515625 38.921875 53.515625 30.90625 
L 53.515625 0 
L 44.484375 0 
L 44.484375 32.71875 
Q 44.484375 40.625 41.703125 44.40625 
Q 38.921875 48.1875 33.109375 48.1875 
Q 26.21875 48.1875 22.15625 43.53125 
Q 18.109375 38.875 18.109375 30.90625 
L 18.109375 0 
L 9.078125 0 
L 9.078125 54.6875 
L 18.109375 54.6875 
L 18.109375 46.1875 
Q 21.1875 51.21875 25.484375 53.609375 
Q 29.78125 56 35.6875 56 
Q 41.65625 56 45.828125 52.96875 
Q 50 49.953125 52 44.1875 
z
" id="DejaVuSans-109"/>
       <path d="M 48.6875 27.296875 
Q 48.6875 37.203125 44.609375 42.84375 
Q 40.53125 48.484375 33.40625 48.484375 
Q 26.265625 48.484375 22.1875 42.84375 
Q 18.109375 37.203125 18.109375 27.296875 
Q 18.109375 17.390625 22.1875 11.75 
Q 26.265625 6.109375 33.40625 6.109375 
Q 40.53125 6.109375 44.609375 11.75 
Q 48.6875 17.390625 48.6875 27.296875 
z
M 18.109375 46.390625 
Q 20.953125 51.265625 25.265625 53.625 
Q 29.59375 56 35.59375 56 
Q 45.5625 56 51.78125 48.09375 
Q 58.015625 40.1875 58.015625 27.296875 
Q 58.015625 14.40625 51.78125 6.484375 
Q 45.5625 -1.421875 35.59375 -1.421875 
Q 29.59375 -1.421875 25.265625 0.953125 
Q 20.953125 3.328125 18.109375 8.203125 
L 18.109375 0 
L 9.078125 0 
L 9.078125 75.984375 
L 18.109375 75.984375 
z
" id="DejaVuSans-98"/>
       <path d="M 30.609375 48.390625 
Q 23.390625 48.390625 19.1875 42.75 
Q 14.984375 37.109375 14.984375 27.296875 
Q 14.984375 17.484375 19.15625 11.84375 
Q 23.34375 6.203125 30.609375 6.203125 
Q 37.796875 6.203125 41.984375 11.859375 
Q 46.1875 17.53125 46.1875 27.296875 
Q 46.1875 37.015625 41.984375 42.703125 
Q 37.796875 48.390625 30.609375 48.390625 
z
M 30.609375 56 
Q 42.328125 56 49.015625 48.375 
Q 55.71875 40.765625 55.71875 27.296875 
Q 55.71875 13.875 49.015625 6.21875 
Q 42.328125 -1.421875 30.609375 -1.421875 
Q 18.84375 -1.421875 12.171875 6.21875 
Q 5.515625 13.875 5.515625 27.296875 
Q 5.515625 40.765625 12.171875 48.375 
Q 18.84375 56 30.609375 56 
z
" id="DejaVuSans-111"/>
       <path d="M 37.109375 75.984375 
L 37.109375 68.5 
L 28.515625 68.5 
Q 23.6875 68.5 21.796875 66.546875 
Q 19.921875 64.59375 19.921875 59.515625 
L 19.921875 54.6875 
L 34.71875 54.6875 
L 34.71875 47.703125 
L 19.921875 47.703125 
L 19.921875 0 
L 10.890625 0 
L 10.890625 47.703125 
L 2.296875 47.703125 
L 2.296875 54.6875 
L 10.890625 54.6875 
L 10.890625 58.5 
Q 10.890625 67.625 15.140625 71.796875 
Q 19.390625 75.984375 28.609375 75.984375 
z
" id="DejaVuSans-102"/>
       <path d="M 18.109375 8.203125 
L 18.109375 -20.796875 
L 9.078125 -20.796875 
L 9.078125 54.6875 
L 18.109375 54.6875 
L 18.109375 46.390625 
Q 20.953125 51.265625 25.265625 53.625 
Q 29.59375 56 35.59375 56 
Q 45.5625 56 51.78125 48.09375 
Q 58.015625 40.1875 58.015625 27.296875 
Q 58.015625 14.40625 51.78125 6.484375 
Q 45.5625 -1.421875 35.59375 -1.421875 
Q 29.59375 -1.421875 25.265625 0.953125 
Q 20.953125 3.328125 18.109375 8.203125 
z
M 48.6875 27.296875 
Q 48.6875 37.203125 44.609375 42.84375 
Q 40.53125 48.484375 33.40625 48.484375 
Q 26.265625 48.484375 22.1875 42.84375 
Q 18.109375 37.203125 18.109375 27.296875 
Q 18.109375 17.390625 22.1875 11.75 
Q 26.265625 6.109375 33.40625 6.109375 
Q 40.53125 6.109375 44.609375 11.75 
Q 48.6875 17.390625 48.6875 27.296875 
z
" id="DejaVuSans-112"/>
       <path d="M 9.421875 75.984375 
L 18.40625 75.984375 
L 18.40625 0 
L 9.421875 0 
z
" id="DejaVuSans-108"/>
       <path d="M 32.171875 -5.078125 
Q 28.375 -14.84375 24.75 -17.8125 
Q 21.140625 -20.796875 15.09375 -20.796875 
L 7.90625 -20.796875 
L 7.90625 -13.28125 
L 13.1875 -13.28125 
Q 16.890625 -13.28125 18.9375 -11.515625 
Q 21 -9.765625 23.484375 -3.21875 
L 25.09375 0.875 
L 2.984375 54.6875 
L 12.5 54.6875 
L 29.59375 11.921875 
L 46.6875 54.6875 
L 56.203125 54.6875 
z
" id="DejaVuSans-121"/>
       <path d="M 8.015625 75.875 
L 15.828125 75.875 
Q 23.140625 64.359375 26.78125 53.3125 
Q 30.421875 42.28125 30.421875 31.390625 
Q 30.421875 20.453125 26.78125 9.375 
Q 23.140625 -1.703125 15.828125 -13.1875 
L 8.015625 -13.1875 
Q 14.5 -2 17.703125 9.0625 
Q 20.90625 20.125 20.90625 31.390625 
Q 20.90625 42.671875 17.703125 53.65625 
Q 14.5 64.65625 8.015625 75.875 
z
" id="DejaVuSans-41"/>
      </defs>
      <use xlink:href="#DejaVuSans-78"/>
      <use x="74.804688" xlink:href="#DejaVuSans-101"/>
      <use x="136.328125" xlink:href="#DejaVuSans-119"/>
      <use x="218.115234" xlink:href="#DejaVuSans-32"/>
      <use x="249.902344" xlink:href="#DejaVuSans-105"/>
      <use x="277.685547" xlink:href="#DejaVuSans-110"/>
      <use x="341.064453" xlink:href="#DejaVuSans-99"/>
      <use x="396.044922" xlink:href="#DejaVuSans-105"/>
      <use x="423.828125" xlink:href="#DejaVuSans-100"/>
      <use x="487.304688" xlink:href="#DejaVuSans-101"/>
      <use x="548.828125" xlink:href="#DejaVuSans-110"/>
      <use x="612.207031" xlink:href="#DejaVuSans-116"/>
      <use x="651.416016" xlink:href="#DejaVuSans-32"/>
      <use x="683.203125" xlink:href="#DejaVuSans-99"/>
      <use x="738.183594" xlink:href="#DejaVuSans-97"/>
      <use x="799.462891" xlink:href="#DejaVuSans-115"/>
      <use x="851.5625" xlink:href="#DejaVuSans-101"/>
      <use x="913.085938" xlink:href="#DejaVuSans-115"/>
      <use x="965.185547" xlink:href="#DejaVuSans-32"/>
      <use x="996.972656" xlink:href="#DejaVuSans-40"/>
      <use x="1035.986328" xlink:href="#DejaVuSans-78"/>
      <use x="1110.791016" xlink:href="#DejaVuSans-117"/>
      <use x="1174.169922" xlink:href="#DejaVuSans-109"/>
      <use x="1271.582031" xlink:href="#DejaVuSans-98"/>
      <use x="1335.058594" xlink:href="#DejaVuSans-101"/>
      <use x="1396.582031" xlink:href="#DejaVuSans-114"/>
      <use x="1437.695312" xlink:href="#DejaVuSans-32"/>
      <use x="1469.482422" xlink:href="#DejaVuSans-111"/>
      <use x="1530.664062" xlink:href="#DejaVuSans-102"/>
      <use x="1565.869141" xlink:href="#DejaVuSans-32"/>
      <use x="1597.65625" xlink:href="#DejaVuSans-112"/>
      <use x="1661.132812" xlink:href="#DejaVuSans-101"/>
      <use x="1722.65625" xlink:href="#DejaVuSans-111"/>
      <use x="1783.837891" xlink:href="#DejaVuSans-112"/>
      <use x="1847.314453" xlink:href="#DejaVuSans-108"/>
      <use x="1875.097656" xlink:href="#DejaVuSans-101"/>
      <use x="1936.621094" xlink:href="#DejaVuSans-32"/>
      <use x="1968.408203" xlink:href="#DejaVuSans-112"/>
      <use x="2031.884766" xlink:href="#DejaVuSans-101"/>
      <use x="2093.408203" xlink:href="#DejaVuSans-114"/>
      <use x="2134.521484" xlink:href="#DejaVuSans-32"/>
      <use x="2166.308594" xlink:href="#DejaVuSans-121"/>
      <use x="2225.488281" xlink:href="#DejaVuSans-101"/>
      <use x="2287.011719" xlink:href="#DejaVuSans-97"/>
      <use x="2348.291016" xlink:href="#DejaVuSans-114"/>
      <use x="2389.404297" xlink:href="#DejaVuSans-41"/>
     </g>
    </g>
   </g>
   <g id="line2d_16">
    <path clip-path="url(#pdced521903)" d="M 49.571875 278.258225 
L 53.653246 274.773407 
L 57.734618 271.901845 
L 61.815989 269.643518 
L 65.897361 267.878836 
L 69.978732 266.512583 
L 74.060104 265.477473 
L 78.141475 264.700482 
L 82.222846 264.129598 
L 86.304218 263.758634 
L 90.385589 263.583846 
L 94.466961 263.586715 
L 98.548332 263.740807 
L 102.629704 263.952796 
L 106.711075 264.176854 
L 110.792446 264.37582 
L 114.873818 264.526631 
L 118.955189 264.658875 
L 123.036561 264.772394 
L 127.117932 264.868908 
L 131.199304 264.95822 
L 135.280675 265.039275 
L 139.362046 265.099839 
L 143.443418 265.158229 
L 147.524789 265.237625 
L 151.606161 265.328333 
L 155.687532 265.40684 
L 159.768904 265.441882 
L 163.850275 265.424775 
L 167.931646 265.387068 
L 172.013018 265.346819 
L 176.094389 265.321042 
L 180.175761 265.313026 
L 184.257132 265.324911 
L 188.338504 265.350836 
L 192.419875 265.386638 
L 196.501246 265.422977 
L 200.582618 265.452165 
L 204.663989 265.476731 
L 208.745361 265.498028 
L 212.826732 265.516645 
L 216.908104 265.532707 
L 220.989475 265.546149 
L 225.070846 265.556864 
L 229.152218 265.564769 
L 233.233589 265.569841 
L 237.314961 265.572113 
L 241.396332 265.571682 
L 245.477704 265.568689 
L 249.559075 265.563309 
L 253.640446 265.555741 
L 257.721818 265.5462 
L 261.803189 265.534907 
L 265.884561 265.522083 
L 269.965932 265.507948 
L 274.047304 265.492714 
L 278.128675 265.476583 
L 282.210046 265.459746 
L 286.291418 265.442382 
L 290.372789 265.424658 
L 294.454161 265.406728 
L 298.535532 265.388733 
L 302.616904 265.370803 
L 306.698275 265.353055 
L 310.779646 265.335597 
L 314.861018 265.318524 
L 318.942389 265.301925 
L 323.023761 265.285878 
L 327.105132 265.270452 
L 331.186504 265.255713 
L 335.267875 265.241715 
" style="fill:none;stroke:#377eb8;stroke-linecap:square;stroke-width:3;"/>
   </g>
   <g id="line2d_17">
    <path clip-path="url(#pdced521903)" d="M 49.571875 252.413438 
L 53.653246 255.794961 
L 57.734618 258.317669 
L 61.815989 260.186879 
L 65.897361 261.56001 
L 69.978732 262.559064 
L 74.060104 263.279572 
L 78.141475 263.793413 
L 82.222846 264.155515 
L 86.304218 264.412921 
L 90.385589 264.605274 
L 94.466961 264.763773 
L 98.548332 264.897338 
L 102.629704 265.014338 
L 106.711075 265.117349 
L 110.792446 265.20416 
L 114.873818 265.270269 
L 118.955189 265.316686 
L 123.036561 265.34367 
L 127.117932 265.351712 
L 131.199304 265.342694 
L 135.280675 265.317875 
L 139.362046 265.289971 
L 143.443418 265.260021 
L 147.524789 265.232125 
L 151.606161 265.2077 
L 155.687532 265.184418 
L 159.768904 265.155826 
L 163.850275 265.115756 
L 167.931646 265.064214 
L 172.013018 265.003251 
L 176.094389 264.93687 
L 180.175761 264.871898 
L 184.257132 264.811169 
L 188.338504 264.756065 
L 192.419875 264.707249 
L 196.501246 264.663851 
L 200.582618 264.62475 
L 204.663989 264.589574 
L 208.745361 264.558069 
L 212.826732 264.53 
L 216.908104 264.505097 
L 220.989475 264.483052 
L 225.070846 264.463529 
L 229.152218 264.446177 
L 233.233589 264.430649 
L 237.314961 264.416612 
L 241.396332 264.403757 
L 245.477704 264.391807 
L 249.559075 264.380519 
L 253.640446 264.369682 
L 257.721818 264.359124 
L 261.803189 264.348702 
L 265.884561 264.338306 
L 269.965932 264.327852 
L 274.047304 264.317282 
L 278.128675 264.306557 
L 282.210046 264.295659 
L 286.291418 264.284584 
L 290.372789 264.273341 
L 294.454161 264.261949 
L 298.535532 264.250437 
L 302.616904 264.23884 
L 306.698275 264.227197 
L 310.779646 264.215552 
L 314.861018 264.20395 
L 318.942389 264.19244 
L 323.023761 264.181069 
L 327.105132 264.169885 
L 331.186504 264.158936 
L 335.267875 264.14827 
" style="fill:none;stroke:#e41a1c;stroke-linecap:square;stroke-width:3;"/>
   </g>
   <g id="line2d_18">
    <path clip-path="url(#pdced521903)" d="M 49.571875 47.00577 
L 53.653246 53.079492 
L 57.734618 58.58211 
L 61.815989 63.68364 
L 65.897361 68.394792 
L 69.978732 72.735759 
L 74.060104 76.74374 
L 78.141475 80.431323 
L 82.222846 83.822092 
L 86.304218 86.992365 
L 90.385589 90.015943 
L 94.466961 92.93986 
L 98.548332 95.773345 
L 102.629704 98.434003 
L 106.711075 100.888667 
L 110.792446 103.105929 
L 114.873818 105.066098 
L 118.955189 106.822603 
L 123.036561 108.388095 
L 127.117932 109.776509 
L 131.199304 111.013296 
L 135.280675 112.107887 
L 139.362046 113.069251 
L 143.443418 113.935817 
L 147.524789 114.756443 
L 151.606161 115.530129 
L 155.687532 116.22966 
L 159.768904 116.808525 
L 163.850275 117.250089 
L 167.931646 117.603126 
L 172.013018 117.90028 
L 176.094389 118.175876 
L 180.175761 118.42609 
L 184.257132 118.662668 
L 188.338504 118.883337 
L 192.419875 119.086858 
L 196.501246 119.261368 
L 200.582618 119.402065 
L 204.663989 119.519306 
L 208.745361 119.620817 
L 212.826732 119.712261 
L 216.908104 119.797708 
L 220.989475 119.880138 
L 225.070846 119.961769 
L 229.152218 120.044277 
L 233.233589 120.128929 
L 237.314961 120.216688 
L 241.396332 120.308291 
L 245.477704 120.404288 
L 249.559075 120.505084 
L 253.640446 120.610963 
L 257.721818 120.722117 
L 261.803189 120.838661 
L 265.884561 120.960653 
L 269.965932 121.0881 
L 274.047304 121.220973 
L 278.128675 121.359213 
L 282.210046 121.50274 
L 286.291418 121.651455 
L 290.372789 121.805249 
L 294.454161 121.964003 
L 298.535532 122.127596 
L 302.616904 122.295901 
L 306.698275 122.468792 
L 310.779646 122.646144 
L 314.861018 122.827834 
L 318.942389 123.013742 
L 323.023761 123.203752 
L 327.105132 123.397753 
L 331.186504 123.595638 
L 335.267875 123.797304 
" style="fill:none;stroke:#4daf4a;stroke-linecap:square;stroke-width:3;"/>
   </g>
   <g id="line2d_19">
    <path clip-path="url(#pdced521903)" d="M 49.571875 268.67047 
L 53.653246 267.928382 
L 57.734618 267.295471 
L 61.815989 266.767828 
L 65.897361 266.328643 
L 69.978732 265.963621 
L 74.060104 265.661652 
L 78.141475 265.410989 
L 82.222846 265.202344 
L 86.304218 265.032574 
L 90.385589 264.899693 
L 94.466961 264.800556 
L 98.548332 264.729674 
L 102.629704 264.674141 
L 106.711075 264.625939 
L 110.792446 264.577736 
L 114.873818 264.523737 
L 118.955189 264.465281 
L 123.036561 264.400616 
L 127.117932 264.328531 
L 131.199304 264.249257 
L 135.280675 264.161883 
L 139.362046 264.065697 
L 143.443418 263.96294 
L 147.524789 263.857223 
L 151.606161 263.747769 
L 155.687532 263.631348 
L 159.768904 263.502778 
L 163.850275 263.359616 
L 167.931646 263.205844 
L 172.013018 263.044211 
L 176.094389 262.877886 
L 180.175761 262.719126 
L 184.257132 262.568392 
L 188.338504 262.424824 
L 192.419875 262.287709 
L 196.501246 262.155266 
L 200.582618 262.026427 
L 204.663989 261.901753 
L 208.745361 261.781629 
L 212.826732 261.666296 
L 216.908104 261.555876 
L 220.989475 261.45042 
L 225.070846 261.349926 
L 229.152218 261.254357 
L 233.233589 261.163657 
L 237.314961 261.077748 
L 241.396332 260.996544 
L 245.477704 260.91995 
L 249.559075 260.847863 
L 253.640446 260.780176 
L 257.721818 260.716779 
L 261.803189 260.65756 
L 265.884561 260.602404 
L 269.965932 260.551196 
L 274.047304 260.503821 
L 278.128675 260.460165 
L 282.210046 260.420115 
L 286.291418 260.383559 
L 290.372789 260.350385 
L 294.454161 260.320486 
L 298.535532 260.293756 
L 302.616904 260.27009 
L 306.698275 260.249388 
L 310.779646 260.23155 
L 314.861018 260.21648 
L 318.942389 260.204086 
L 323.023761 260.194277 
L 327.105132 260.186965 
L 331.186504 260.182066 
L 335.267875 260.179498 
" style="fill:none;stroke:#a24e99;stroke-linecap:square;stroke-width:3;"/>
   </g>
   <g id="line2d_20">
    <path clip-path="url(#pdced521903)" d="M 49.571875 287.318673 
L 53.653246 287.226678 
L 57.734618 287.139752 
L 61.815989 287.062815 
L 65.897361 286.998201 
L 69.978732 286.946625 
L 74.060104 286.907686 
L 78.141475 286.878916 
L 82.222846 286.858026 
L 86.304218 286.842584 
L 90.385589 286.831367 
L 94.466961 286.822257 
L 98.548332 286.812807 
L 102.629704 286.803146 
L 106.711075 286.79448 
L 110.792446 286.786212 
L 114.873818 286.778757 
L 118.955189 286.772584 
L 123.036561 286.76702 
L 127.117932 286.761279 
L 131.199304 286.757034 
L 135.280675 286.755316 
L 139.362046 286.75545 
L 143.443418 286.757341 
L 147.524789 286.760834 
L 151.606161 286.765875 
L 155.687532 286.769567 
L 159.768904 286.770195 
L 163.850275 286.770744 
L 167.931646 286.772766 
L 172.013018 286.776878 
L 176.094389 286.783679 
L 180.175761 286.792885 
L 184.257132 286.804356 
L 188.338504 286.816249 
L 192.419875 286.826901 
L 196.501246 286.835597 
L 200.582618 286.842009 
L 204.663989 286.84697 
L 208.745361 286.850984 
L 212.826732 286.854379 
L 216.908104 286.857372 
L 220.989475 286.860098 
L 225.070846 286.862647 
L 229.152218 286.865077 
L 233.233589 286.867429 
L 237.314961 286.869731 
L 241.396332 286.872003 
L 245.477704 286.874262 
L 249.559075 286.876518 
L 253.640446 286.878783 
L 257.721818 286.881065 
L 261.803189 286.883372 
L 265.884561 286.885711 
L 269.965932 286.888089 
L 274.047304 286.890513 
L 278.128675 286.892988 
L 282.210046 286.89552 
L 286.291418 286.898116 
L 290.372789 286.90078 
L 294.454161 286.90352 
L 298.535532 286.906339 
L 302.616904 286.909244 
L 306.698275 286.91224 
L 310.779646 286.915332 
L 314.861018 286.918525 
L 318.942389 286.921824 
L 323.023761 286.925234 
L 327.105132 286.92876 
L 331.186504 286.932406 
L 335.267875 286.936178 
" style="fill:none;stroke:#ff7f00;stroke-linecap:square;stroke-width:3;"/>
   </g>
   <g id="patch_3">
    <path d="M 49.571875 288.430125 
L 49.571875 22.318125 
" style="fill:none;stroke:#000000;stroke-linecap:square;stroke-linejoin:miter;stroke-width:0.8;"/>
   </g>
   <g id="patch_4">
    <path d="M 335.267875 288.430125 
L 335.267875 22.318125 
" style="fill:none;"/>
   </g>
   <g id="patch_5">
    <path d="M 49.571875 288.430125 
L 335.267875 288.430125 
" style="fill:none;stroke:#000000;stroke-linecap:square;stroke-linejoin:miter;stroke-width:0.8;"/>
   </g>
   <g id="patch_6">
    <path d="M 49.571875 22.318125 
L 335.267875 22.318125 
" style="fill:none;"/>
   </g>
   <g id="text_18">
    <!-- New active TB infections -->
    <g transform="translate(118.401438 16.318125)scale(0.12 -0.12)">
     <defs>
      <path d="M 2.984375 54.6875 
L 12.5 54.6875 
L 29.59375 8.796875 
L 46.6875 54.6875 
L 56.203125 54.6875 
L 35.6875 0 
L 23.484375 0 
z
" id="DejaVuSans-118"/>
      <path d="M -0.296875 72.90625 
L 61.375 72.90625 
L 61.375 64.59375 
L 35.5 64.59375 
L 35.5 0 
L 25.59375 0 
L 25.59375 64.59375 
L -0.296875 64.59375 
z
" id="DejaVuSans-84"/>
      <path d="M 19.671875 34.8125 
L 19.671875 8.109375 
L 35.5 8.109375 
Q 43.453125 8.109375 47.28125 11.40625 
Q 51.125 14.703125 51.125 21.484375 
Q 51.125 28.328125 47.28125 31.5625 
Q 43.453125 34.8125 35.5 34.8125 
z
M 19.671875 64.796875 
L 19.671875 42.828125 
L 34.28125 42.828125 
Q 41.5 42.828125 45.03125 45.53125 
Q 48.578125 48.25 48.578125 53.8125 
Q 48.578125 59.328125 45.03125 62.0625 
Q 41.5 64.796875 34.28125 64.796875 
z
M 9.8125 72.90625 
L 35.015625 72.90625 
Q 46.296875 72.90625 52.390625 68.21875 
Q 58.5 63.53125 58.5 54.890625 
Q 58.5 48.1875 55.375 44.234375 
Q 52.25 40.28125 46.1875 39.3125 
Q 53.46875 37.75 57.5 32.78125 
Q 61.53125 27.828125 61.53125 20.40625 
Q 61.53125 10.640625 54.890625 5.3125 
Q 48.25 0 35.984375 0 
L 9.8125 0 
z
" id="DejaVuSans-66"/>
     </defs>
     <use xlink:href="#DejaVuSans-78"/>
     <use x="74.804688" xlink:href="#DejaVuSans-101"/>
     <use x="136.328125" xlink:href="#DejaVuSans-119"/>
     <use x="218.115234" xlink:href="#DejaVuSans-32"/>
     <use x="249.902344" xlink:href="#DejaVuSans-97"/>
     <use x="311.181641" xlink:href="#DejaVuSans-99"/>
     <use x="366.162109" xlink:href="#DejaVuSans-116"/>
     <use x="405.371094" xlink:href="#DejaVuSans-105"/>
     <use x="433.154297" xlink:href="#DejaVuSans-118"/>
     <use x="492.333984" xlink:href="#DejaVuSans-101"/>
     <use x="553.857422" xlink:href="#DejaVuSans-32"/>
     <use x="585.644531" xlink:href="#DejaVuSans-84"/>
     <use x="646.728516" xlink:href="#DejaVuSans-66"/>
     <use x="715.332031" xlink:href="#DejaVuSans-32"/>
     <use x="747.119141" xlink:href="#DejaVuSans-105"/>
     <use x="774.902344" xlink:href="#DejaVuSans-110"/>
     <use x="838.28125" xlink:href="#DejaVuSans-102"/>
     <use x="873.486328" xlink:href="#DejaVuSans-101"/>
     <use x="935.009766" xlink:href="#DejaVuSans-99"/>
     <use x="989.990234" xlink:href="#DejaVuSans-116"/>
     <use x="1029.199219" xlink:href="#DejaVuSans-105"/>
     <use x="1056.982422" xlink:href="#DejaVuSans-111"/>
     <use x="1118.164062" xlink:href="#DejaVuSans-110"/>
     <use x="1181.542969" xlink:href="#DejaVuSans-115"/>
    </g>
   </g>
   <g id="legend_1">
    <g id="patch_7">
     <path d="M 356.552675 193.569437 
L 434.435488 193.569437 
Q 436.435488 193.569437 436.435488 191.569437 
L 436.435488 119.178812 
Q 436.435488 117.178812 434.435488 117.178812 
L 356.552675 117.178812 
Q 354.552675 117.178812 354.552675 119.178812 
L 354.552675 191.569437 
Q 354.552675 193.569437 356.552675 193.569437 
z
" style="fill:none;opacity:0;"/>
    </g>
    <g id="line2d_21">
     <path d="M 358.552675 125.27725 
L 378.552675 125.27725 
" style="fill:none;stroke:#377eb8;stroke-linecap:square;stroke-width:3;"/>
    </g>
    <g id="line2d_22"/>
    <g id="text_19">
     <!-- 0-4 -->
     <g transform="translate(386.552675 128.77725)scale(0.1 -0.1)">
      <defs>
       <path d="M 4.890625 31.390625 
L 31.203125 31.390625 
L 31.203125 23.390625 
L 4.890625 23.390625 
z
" id="DejaVuSans-45"/>
       <path d="M 37.796875 64.3125 
L 12.890625 25.390625 
L 37.796875 25.390625 
z
M 35.203125 72.90625 
L 47.609375 72.90625 
L 47.609375 25.390625 
L 58.015625 25.390625 
L 58.015625 17.1875 
L 47.609375 17.1875 
L 47.609375 0 
L 37.796875 0 
L 37.796875 17.1875 
L 4.890625 17.1875 
L 4.890625 26.703125 
z
" id="DejaVuSans-52"/>
      </defs>
      <use xlink:href="#DejaVuSans-48"/>
      <use x="63.623047" xlink:href="#DejaVuSans-45"/>
      <use x="99.707031" xlink:href="#DejaVuSans-52"/>
     </g>
    </g>
    <g id="line2d_23">
     <path d="M 358.552675 139.955375 
L 378.552675 139.955375 
" style="fill:none;stroke:#e41a1c;stroke-linecap:square;stroke-width:3;"/>
    </g>
    <g id="line2d_24"/>
    <g id="text_20">
     <!-- 5-14 -->
     <g transform="translate(386.552675 143.455375)scale(0.1 -0.1)">
      <use xlink:href="#DejaVuSans-53"/>
      <use x="63.623047" xlink:href="#DejaVuSans-45"/>
      <use x="99.707031" xlink:href="#DejaVuSans-49"/>
      <use x="163.330078" xlink:href="#DejaVuSans-52"/>
     </g>
    </g>
    <g id="line2d_25">
     <path d="M 358.552675 154.6335 
L 378.552675 154.6335 
" style="fill:none;stroke:#4daf4a;stroke-linecap:square;stroke-width:3;"/>
    </g>
    <g id="line2d_26"/>
    <g id="text_21">
     <!-- 15-64 -->
     <g transform="translate(386.552675 158.1335)scale(0.1 -0.1)">
      <defs>
       <path d="M 33.015625 40.375 
Q 26.375 40.375 22.484375 35.828125 
Q 18.609375 31.296875 18.609375 23.390625 
Q 18.609375 15.53125 22.484375 10.953125 
Q 26.375 6.390625 33.015625 6.390625 
Q 39.65625 6.390625 43.53125 10.953125 
Q 47.40625 15.53125 47.40625 23.390625 
Q 47.40625 31.296875 43.53125 35.828125 
Q 39.65625 40.375 33.015625 40.375 
z
M 52.59375 71.296875 
L 52.59375 62.3125 
Q 48.875 64.0625 45.09375 64.984375 
Q 41.3125 65.921875 37.59375 65.921875 
Q 27.828125 65.921875 22.671875 59.328125 
Q 17.53125 52.734375 16.796875 39.40625 
Q 19.671875 43.65625 24.015625 45.921875 
Q 28.375 48.1875 33.59375 48.1875 
Q 44.578125 48.1875 50.953125 41.515625 
Q 57.328125 34.859375 57.328125 23.390625 
Q 57.328125 12.15625 50.6875 5.359375 
Q 44.046875 -1.421875 33.015625 -1.421875 
Q 20.359375 -1.421875 13.671875 8.265625 
Q 6.984375 17.96875 6.984375 36.375 
Q 6.984375 53.65625 15.1875 63.9375 
Q 23.390625 74.21875 37.203125 74.21875 
Q 40.921875 74.21875 44.703125 73.484375 
Q 48.484375 72.75 52.59375 71.296875 
z
" id="DejaVuSans-54"/>
      </defs>
      <use xlink:href="#DejaVuSans-49"/>
      <use x="63.623047" xlink:href="#DejaVuSans-53"/>
      <use x="127.246094" xlink:href="#DejaVuSans-45"/>
      <use x="163.330078" xlink:href="#DejaVuSans-54"/>
      <use x="226.953125" xlink:href="#DejaVuSans-52"/>
     </g>
    </g>
    <g id="line2d_27">
     <path d="M 358.552675 169.311625 
L 378.552675 169.311625 
" style="fill:none;stroke:#a24e99;stroke-linecap:square;stroke-width:3;"/>
    </g>
    <g id="line2d_28"/>
    <g id="text_22">
     <!-- 65+ -->
     <g transform="translate(386.552675 172.811625)scale(0.1 -0.1)">
      <defs>
       <path d="M 46 62.703125 
L 46 35.5 
L 73.1875 35.5 
L 73.1875 27.203125 
L 46 27.203125 
L 46 0 
L 37.796875 0 
L 37.796875 27.203125 
L 10.59375 27.203125 
L 10.59375 35.5 
L 37.796875 35.5 
L 37.796875 62.703125 
z
" id="DejaVuSans-43"/>
      </defs>
      <use xlink:href="#DejaVuSans-54"/>
      <use x="63.623047" xlink:href="#DejaVuSans-53"/>
      <use x="127.246094" xlink:href="#DejaVuSans-43"/>
     </g>
    </g>
    <g id="line2d_29">
     <path d="M 358.552675 183.98975 
L 378.552675 183.98975 
" style="fill:none;stroke:#ff7f00;stroke-linecap:square;stroke-width:3;"/>
    </g>
    <g id="line2d_30"/>
    <g id="text_23">
     <!-- Prisoners -->
     <g transform="translate(386.552675 187.48975)scale(0.1 -0.1)">
      <defs>
       <path d="M 19.671875 64.796875 
L 19.671875 37.40625 
L 32.078125 37.40625 
Q 38.96875 37.40625 42.71875 40.96875 
Q 46.484375 44.53125 46.484375 51.125 
Q 46.484375 57.671875 42.71875 61.234375 
Q 38.96875 64.796875 32.078125 64.796875 
z
M 9.8125 72.90625 
L 32.078125 72.90625 
Q 44.34375 72.90625 50.609375 67.359375 
Q 56.890625 61.8125 56.890625 51.125 
Q 56.890625 40.328125 50.609375 34.8125 
Q 44.34375 29.296875 32.078125 29.296875 
L 19.671875 29.296875 
L 19.671875 0 
L 9.8125 0 
z
" id="DejaVuSans-80"/>
      </defs>
      <use xlink:href="#DejaVuSans-80"/>
      <use x="58.552734" xlink:href="#DejaVuSans-114"/>
      <use x="99.666016" xlink:href="#DejaVuSans-105"/>
      <use x="127.449219" xlink:href="#DejaVuSans-115"/>
      <use x="179.548828" xlink:href="#DejaVuSans-111"/>
      <use x="240.730469" xlink:href="#DejaVuSans-110"/>
      <use x="304.109375" xlink:href="#DejaVuSans-101"/>
      <use x="365.632812" xlink:href="#DejaVuSans-114"/>
      <use x="406.746094" xlink:href="#DejaVuSans-115"/>
     </g>
    </g>
   </g>
  </g>
 </g>
 <defs>
  <clipPath id="pdced521903">
   <rect height="266.112" width="285.696" x="49.571875" y="22.318125"/>
  </clipPath>
 </defs>
</svg>
