<?xml version="1.0" encoding="utf-8" standalone="no"?>
<!DOCTYPE svg PUBLIC "-//W3C//DTD SVG 1.1//EN"
  "http://www.w3.org/Graphics/SVG/1.1/DTD/svg11.dtd">
<!-- Created with matplotlib (https://matplotlib.org/) -->
<svg height="297.190125pt" version="1.1" viewBox="0 0 403.97 297.190125" width="403.97pt" xmlns="http://www.w3.org/2000/svg" xmlns:xlink="http://www.w3.org/1999/xlink">
 <metadata>
  <rdf:RDF xmlns:cc="http://creativecommons.org/ns#" xmlns:dc="http://purl.org/dc/elements/1.1/" xmlns:rdf="http://www.w3.org/1999/02/22-rdf-syntax-ns#">
   <cc:Work>
    <dc:type rdf:resource="http://purl.org/dc/dcmitype/StillImage"/>
    <dc:date>2020-11-10T17:45:29.431660</dc:date>
    <dc:format>image/svg+xml</dc:format>
    <dc:creator>
     <cc:Agent>
      <dc:title>Matplotlib v3.3.2, https://matplotlib.org/</dc:title>
     </cc:Agent>
    </dc:creator>
   </cc:Work>
  </rdf:RDF>
 </metadata>
 <defs>
  <style type="text/css">*{stroke-linecap:butt;stroke-linejoin:round;}</style>
 </defs>
 <g id="figure_1">
  <g id="patch_1">
   <path d="M 0 297.190125 
L 403.97 297.190125 
L 403.97 0 
L 0 0 
z
" style="fill:#ffffff;"/>
  </g>
  <g id="axes_1">
   <g id="patch_2">
    <path d="M 39.65 273.312 
L 396.77 273.312 
L 396.77 7.2 
L 39.65 7.2 
z
" style="fill:#ffffff;"/>
   </g>
   <g id="matplotlib.axis_1">
    <g id="xtick_1">
     <g id="line2d_1">
      <defs>
       <path d="M 0 0 
L 0 3.5 
" id="ma8a4397725" style="stroke:#000000;stroke-width:0.8;"/>
      </defs>
      <g>
       <use style="stroke:#000000;stroke-width:0.8;" x="55.882727" xlink:href="#ma8a4397725" y="273.312"/>
      </g>
     </g>
     <g id="text_1">
      <!-- 0.0 -->
      <g transform="translate(47.931165 287.910437)scale(0.1 -0.1)">
       <defs>
        <path d="M 31.78125 66.40625 
Q 24.171875 66.40625 20.328125 58.90625 
Q 16.5 51.421875 16.5 36.375 
Q 16.5 21.390625 20.328125 13.890625 
Q 24.171875 6.390625 31.78125 6.390625 
Q 39.453125 6.390625 43.28125 13.890625 
Q 47.125 21.390625 47.125 36.375 
Q 47.125 51.421875 43.28125 58.90625 
Q 39.453125 66.40625 31.78125 66.40625 
z
M 31.78125 74.21875 
Q 44.046875 74.21875 50.515625 64.515625 
Q 56.984375 54.828125 56.984375 36.375 
Q 56.984375 17.96875 50.515625 8.265625 
Q 44.046875 -1.421875 31.78125 -1.421875 
Q 19.53125 -1.421875 13.0625 8.265625 
Q 6.59375 17.96875 6.59375 36.375 
Q 6.59375 54.828125 13.0625 64.515625 
Q 19.53125 74.21875 31.78125 74.21875 
z
" id="DejaVuSans-48"/>
        <path d="M 10.6875 12.40625 
L 21 12.40625 
L 21 0 
L 10.6875 0 
z
" id="DejaVuSans-46"/>
       </defs>
       <use xlink:href="#DejaVuSans-48"/>
       <use x="63.623047" xlink:href="#DejaVuSans-46"/>
       <use x="95.410156" xlink:href="#DejaVuSans-48"/>
      </g>
     </g>
    </g>
    <g id="xtick_2">
     <g id="line2d_2">
      <g>
       <use style="stroke:#000000;stroke-width:0.8;" x="96.668474" xlink:href="#ma8a4397725" y="273.312"/>
      </g>
     </g>
     <g id="text_2">
      <!-- 2.5 -->
      <g transform="translate(88.716912 287.910437)scale(0.1 -0.1)">
       <defs>
        <path d="M 19.1875 8.296875 
L 53.609375 8.296875 
L 53.609375 0 
L 7.328125 0 
L 7.328125 8.296875 
Q 12.9375 14.109375 22.625 23.890625 
Q 32.328125 33.6875 34.8125 36.53125 
Q 39.546875 41.84375 41.421875 45.53125 
Q 43.3125 49.21875 43.3125 52.78125 
Q 43.3125 58.59375 39.234375 62.25 
Q 35.15625 65.921875 28.609375 65.921875 
Q 23.96875 65.921875 18.8125 64.3125 
Q 13.671875 62.703125 7.8125 59.421875 
L 7.8125 69.390625 
Q 13.765625 71.78125 18.9375 73 
Q 24.125 74.21875 28.421875 74.21875 
Q 39.75 74.21875 46.484375 68.546875 
Q 53.21875 62.890625 53.21875 53.421875 
Q 53.21875 48.921875 51.53125 44.890625 
Q 49.859375 40.875 45.40625 35.40625 
Q 44.1875 33.984375 37.640625 27.21875 
Q 31.109375 20.453125 19.1875 8.296875 
z
" id="DejaVuSans-50"/>
        <path d="M 10.796875 72.90625 
L 49.515625 72.90625 
L 49.515625 64.59375 
L 19.828125 64.59375 
L 19.828125 46.734375 
Q 21.96875 47.46875 24.109375 47.828125 
Q 26.265625 48.1875 28.421875 48.1875 
Q 40.625 48.1875 47.75 41.5 
Q 54.890625 34.8125 54.890625 23.390625 
Q 54.890625 11.625 47.5625 5.09375 
Q 40.234375 -1.421875 26.90625 -1.421875 
Q 22.3125 -1.421875 17.546875 -0.640625 
Q 12.796875 0.140625 7.71875 1.703125 
L 7.71875 11.625 
Q 12.109375 9.234375 16.796875 8.0625 
Q 21.484375 6.890625 26.703125 6.890625 
Q 35.15625 6.890625 40.078125 11.328125 
Q 45.015625 15.765625 45.015625 23.390625 
Q 45.015625 31 40.078125 35.4375 
Q 35.15625 39.890625 26.703125 39.890625 
Q 22.75 39.890625 18.8125 39.015625 
Q 14.890625 38.140625 10.796875 36.28125 
z
" id="DejaVuSans-53"/>
       </defs>
       <use xlink:href="#DejaVuSans-50"/>
       <use x="63.623047" xlink:href="#DejaVuSans-46"/>
       <use x="95.410156" xlink:href="#DejaVuSans-53"/>
      </g>
     </g>
    </g>
    <g id="xtick_3">
     <g id="line2d_3">
      <g>
       <use style="stroke:#000000;stroke-width:0.8;" x="137.454221" xlink:href="#ma8a4397725" y="273.312"/>
      </g>
     </g>
     <g id="text_3">
      <!-- 5.0 -->
      <g transform="translate(129.502659 287.910437)scale(0.1 -0.1)">
       <use xlink:href="#DejaVuSans-53"/>
       <use x="63.623047" xlink:href="#DejaVuSans-46"/>
       <use x="95.410156" xlink:href="#DejaVuSans-48"/>
      </g>
     </g>
    </g>
    <g id="xtick_4">
     <g id="line2d_4">
      <g>
       <use style="stroke:#000000;stroke-width:0.8;" x="178.239968" xlink:href="#ma8a4397725" y="273.312"/>
      </g>
     </g>
     <g id="text_4">
      <!-- 7.5 -->
      <g transform="translate(170.288406 287.910437)scale(0.1 -0.1)">
       <defs>
        <path d="M 8.203125 72.90625 
L 55.078125 72.90625 
L 55.078125 68.703125 
L 28.609375 0 
L 18.3125 0 
L 43.21875 64.59375 
L 8.203125 64.59375 
z
" id="DejaVuSans-55"/>
       </defs>
       <use xlink:href="#DejaVuSans-55"/>
       <use x="63.623047" xlink:href="#DejaVuSans-46"/>
       <use x="95.410156" xlink:href="#DejaVuSans-53"/>
      </g>
     </g>
    </g>
    <g id="xtick_5">
     <g id="line2d_5">
      <g>
       <use style="stroke:#000000;stroke-width:0.8;" x="219.025715" xlink:href="#ma8a4397725" y="273.312"/>
      </g>
     </g>
     <g id="text_5">
      <!-- 10.0 -->
      <g transform="translate(207.892902 287.910437)scale(0.1 -0.1)">
       <defs>
        <path d="M 12.40625 8.296875 
L 28.515625 8.296875 
L 28.515625 63.921875 
L 10.984375 60.40625 
L 10.984375 69.390625 
L 28.421875 72.90625 
L 38.28125 72.90625 
L 38.28125 8.296875 
L 54.390625 8.296875 
L 54.390625 0 
L 12.40625 0 
z
" id="DejaVuSans-49"/>
       </defs>
       <use xlink:href="#DejaVuSans-49"/>
       <use x="63.623047" xlink:href="#DejaVuSans-48"/>
       <use x="127.246094" xlink:href="#DejaVuSans-46"/>
       <use x="159.033203" xlink:href="#DejaVuSans-48"/>
      </g>
     </g>
    </g>
    <g id="xtick_6">
     <g id="line2d_6">
      <g>
       <use style="stroke:#000000;stroke-width:0.8;" x="259.811462" xlink:href="#ma8a4397725" y="273.312"/>
      </g>
     </g>
     <g id="text_6">
      <!-- 12.5 -->
      <g transform="translate(248.678649 287.910437)scale(0.1 -0.1)">
       <use xlink:href="#DejaVuSans-49"/>
       <use x="63.623047" xlink:href="#DejaVuSans-50"/>
       <use x="127.246094" xlink:href="#DejaVuSans-46"/>
       <use x="159.033203" xlink:href="#DejaVuSans-53"/>
      </g>
     </g>
    </g>
    <g id="xtick_7">
     <g id="line2d_7">
      <g>
       <use style="stroke:#000000;stroke-width:0.8;" x="300.597209" xlink:href="#ma8a4397725" y="273.312"/>
      </g>
     </g>
     <g id="text_7">
      <!-- 15.0 -->
      <g transform="translate(289.464396 287.910437)scale(0.1 -0.1)">
       <use xlink:href="#DejaVuSans-49"/>
       <use x="63.623047" xlink:href="#DejaVuSans-53"/>
       <use x="127.246094" xlink:href="#DejaVuSans-46"/>
       <use x="159.033203" xlink:href="#DejaVuSans-48"/>
      </g>
     </g>
    </g>
    <g id="xtick_8">
     <g id="line2d_8">
      <g>
       <use style="stroke:#000000;stroke-width:0.8;" x="341.382956" xlink:href="#ma8a4397725" y="273.312"/>
      </g>
     </g>
     <g id="text_8">
      <!-- 17.5 -->
      <g transform="translate(330.250143 287.910437)scale(0.1 -0.1)">
       <use xlink:href="#DejaVuSans-49"/>
       <use x="63.623047" xlink:href="#DejaVuSans-55"/>
       <use x="127.246094" xlink:href="#DejaVuSans-46"/>
       <use x="159.033203" xlink:href="#DejaVuSans-53"/>
      </g>
     </g>
    </g>
    <g id="xtick_9">
     <g id="line2d_9">
      <g>
       <use style="stroke:#000000;stroke-width:0.8;" x="382.168703" xlink:href="#ma8a4397725" y="273.312"/>
      </g>
     </g>
     <g id="text_9">
      <!-- 20.0 -->
      <g transform="translate(371.03589 287.910437)scale(0.1 -0.1)">
       <use xlink:href="#DejaVuSans-50"/>
       <use x="63.623047" xlink:href="#DejaVuSans-48"/>
       <use x="127.246094" xlink:href="#DejaVuSans-46"/>
       <use x="159.033203" xlink:href="#DejaVuSans-48"/>
      </g>
     </g>
    </g>
   </g>
   <g id="matplotlib.axis_2">
    <g id="ytick_1">
     <g id="line2d_10">
      <defs>
       <path d="M 0 0 
L -3.5 0 
" id="me3d31c31f9" style="stroke:#000000;stroke-width:0.8;"/>
      </defs>
      <g>
       <use style="stroke:#000000;stroke-width:0.8;" x="39.65" xlink:href="#me3d31c31f9" y="261.216"/>
      </g>
     </g>
     <g id="text_10">
      <!-- 0 -->
      <g transform="translate(26.2875 265.015219)scale(0.1 -0.1)">
       <use xlink:href="#DejaVuSans-48"/>
      </g>
     </g>
    </g>
    <g id="ytick_2">
     <g id="line2d_11">
      <g>
       <use style="stroke:#000000;stroke-width:0.8;" x="39.65" xlink:href="#me3d31c31f9" y="220.877804"/>
      </g>
     </g>
     <g id="text_11">
      <!-- 500 -->
      <g transform="translate(13.5625 224.677022)scale(0.1 -0.1)">
       <use xlink:href="#DejaVuSans-53"/>
       <use x="63.623047" xlink:href="#DejaVuSans-48"/>
       <use x="127.246094" xlink:href="#DejaVuSans-48"/>
      </g>
     </g>
    </g>
    <g id="ytick_3">
     <g id="line2d_12">
      <g>
       <use style="stroke:#000000;stroke-width:0.8;" x="39.65" xlink:href="#me3d31c31f9" y="180.539607"/>
      </g>
     </g>
     <g id="text_12">
      <!-- 1000 -->
      <g transform="translate(7.2 184.338826)scale(0.1 -0.1)">
       <use xlink:href="#DejaVuSans-49"/>
       <use x="63.623047" xlink:href="#DejaVuSans-48"/>
       <use x="127.246094" xlink:href="#DejaVuSans-48"/>
       <use x="190.869141" xlink:href="#DejaVuSans-48"/>
      </g>
     </g>
    </g>
    <g id="ytick_4">
     <g id="line2d_13">
      <g>
       <use style="stroke:#000000;stroke-width:0.8;" x="39.65" xlink:href="#me3d31c31f9" y="140.201411"/>
      </g>
     </g>
     <g id="text_13">
      <!-- 1500 -->
      <g transform="translate(7.2 144.00063)scale(0.1 -0.1)">
       <use xlink:href="#DejaVuSans-49"/>
       <use x="63.623047" xlink:href="#DejaVuSans-53"/>
       <use x="127.246094" xlink:href="#DejaVuSans-48"/>
       <use x="190.869141" xlink:href="#DejaVuSans-48"/>
      </g>
     </g>
    </g>
    <g id="ytick_5">
     <g id="line2d_14">
      <g>
       <use style="stroke:#000000;stroke-width:0.8;" x="39.65" xlink:href="#me3d31c31f9" y="99.863215"/>
      </g>
     </g>
     <g id="text_14">
      <!-- 2000 -->
      <g transform="translate(7.2 103.662434)scale(0.1 -0.1)">
       <use xlink:href="#DejaVuSans-50"/>
       <use x="63.623047" xlink:href="#DejaVuSans-48"/>
       <use x="127.246094" xlink:href="#DejaVuSans-48"/>
       <use x="190.869141" xlink:href="#DejaVuSans-48"/>
      </g>
     </g>
    </g>
    <g id="ytick_6">
     <g id="line2d_15">
      <g>
       <use style="stroke:#000000;stroke-width:0.8;" x="39.65" xlink:href="#me3d31c31f9" y="59.525019"/>
      </g>
     </g>
     <g id="text_15">
      <!-- 2500 -->
      <g transform="translate(7.2 63.324237)scale(0.1 -0.1)">
       <use xlink:href="#DejaVuSans-50"/>
       <use x="63.623047" xlink:href="#DejaVuSans-53"/>
       <use x="127.246094" xlink:href="#DejaVuSans-48"/>
       <use x="190.869141" xlink:href="#DejaVuSans-48"/>
      </g>
     </g>
    </g>
    <g id="ytick_7">
     <g id="line2d_16">
      <g>
       <use style="stroke:#000000;stroke-width:0.8;" x="39.65" xlink:href="#me3d31c31f9" y="19.186822"/>
      </g>
     </g>
     <g id="text_16">
      <!-- 3000 -->
      <g transform="translate(7.2 22.986041)scale(0.1 -0.1)">
       <defs>
        <path d="M 40.578125 39.3125 
Q 47.65625 37.796875 51.625 33 
Q 55.609375 28.21875 55.609375 21.1875 
Q 55.609375 10.40625 48.1875 4.484375 
Q 40.765625 -1.421875 27.09375 -1.421875 
Q 22.515625 -1.421875 17.65625 -0.515625 
Q 12.796875 0.390625 7.625 2.203125 
L 7.625 11.71875 
Q 11.71875 9.328125 16.59375 8.109375 
Q 21.484375 6.890625 26.8125 6.890625 
Q 36.078125 6.890625 40.9375 10.546875 
Q 45.796875 14.203125 45.796875 21.1875 
Q 45.796875 27.640625 41.28125 31.265625 
Q 36.765625 34.90625 28.71875 34.90625 
L 20.21875 34.90625 
L 20.21875 43.015625 
L 29.109375 43.015625 
Q 36.375 43.015625 40.234375 45.921875 
Q 44.09375 48.828125 44.09375 54.296875 
Q 44.09375 59.90625 40.109375 62.90625 
Q 36.140625 65.921875 28.71875 65.921875 
Q 24.65625 65.921875 20.015625 65.03125 
Q 15.375 64.15625 9.8125 62.3125 
L 9.8125 71.09375 
Q 15.4375 72.65625 20.34375 73.4375 
Q 25.25 74.21875 29.59375 74.21875 
Q 40.828125 74.21875 47.359375 69.109375 
Q 53.90625 64.015625 53.90625 55.328125 
Q 53.90625 49.265625 50.4375 45.09375 
Q 46.96875 40.921875 40.578125 39.3125 
z
" id="DejaVuSans-51"/>
       </defs>
       <use xlink:href="#DejaVuSans-51"/>
       <use x="63.623047" xlink:href="#DejaVuSans-48"/>
       <use x="127.246094" xlink:href="#DejaVuSans-48"/>
       <use x="190.869141" xlink:href="#DejaVuSans-48"/>
      </g>
     </g>
    </g>
   </g>
   <g id="line2d_17">
    <path clip-path="url(#p3553857e65)" d="M 55.882727 261.216 
L 72.197026 180.539607 
L 88.511325 126.755346 
L 104.825624 90.899171 
L 121.139922 66.995055 
L 137.454221 51.058977 
L 153.76852 40.434926 
L 170.082819 33.352225 
L 186.397117 28.630424 
L 202.711416 25.482557 
L 219.025715 23.383979 
L 235.340014 21.984926 
L 251.654312 21.052225 
L 267.968611 20.430424 
L 284.28291 20.01589 
L 300.597209 19.739534 
L 316.911508 19.555297 
L 333.225806 19.432472 
L 349.540105 19.350589 
L 365.854404 19.296 
" style="fill:none;stroke:#1f77b4;stroke-linecap:square;stroke-width:1.5;"/>
   </g>
   <g id="line2d_18">
    <path clip-path="url(#p3553857e65)" d="M 55.882727 261.216 
L 72.197026 261.216 
L 88.511325 234.323869 
L 104.825624 207.431738 
L 121.139922 186.515637 
L 137.454221 171.575564 
L 153.76852 161.283514 
L 170.082819 154.31148 
L 186.397117 149.626568 
L 202.711416 146.490997 
L 219.025715 144.396518 
L 235.340014 142.998832 
L 251.654312 142.066586 
L 267.968611 141.444937 
L 284.28291 141.030454 
L 300.597209 140.754115 
L 316.911508 140.569883 
L 333.225806 140.44706 
L 349.540105 140.365177 
L 365.854404 140.310589 
" style="fill:none;stroke:#ff7f0e;stroke-linecap:square;stroke-width:1.5;"/>
   </g>
   <g id="line2d_19">
    <path clip-path="url(#p3553857e65)" d="M 55.882727 261.216 
L 59.145587 245.161398 
L 62.408447 230.639647 
L 65.671307 215.956544 
L 67.302736 210.067167 
L 68.934166 203.29035 
L 70.565596 199.095178 
L 72.197026 193.044448 
L 73.828456 188.284541 
L 75.459886 180.862313 
L 77.091316 176.021729 
L 78.722746 168.196119 
L 80.354175 163.758918 
L 81.985605 158.11157 
L 83.617035 153.593692 
L 85.248465 150.366637 
L 86.879895 147.462286 
L 88.511325 142.46035 
L 90.142755 139.475324 
L 91.774185 134.392711 
L 93.405614 128.745363 
L 96.668474 121.726517 
L 98.299904 117.85405 
L 99.931334 116.321199 
L 101.562764 111.561292 
L 103.194194 109.463706 
L 104.825624 104.461769 
L 108.088483 98.733745 
L 109.719913 95.587366 
L 111.351343 92.763692 
L 112.982773 91.150164 
L 114.614203 90.343401 
L 116.245633 86.390257 
L 117.877063 83.64726 
L 119.508492 80.339528 
L 121.139922 80.74291 
L 122.771352 79.129382 
L 124.402782 76.70909 
L 126.034212 74.046769 
L 127.665642 74.772857 
L 129.297072 72.9173 
L 130.928502 71.707154 
L 132.559931 72.433241 
L 134.191361 69.609568 
L 137.454221 67.269952 
L 139.085651 65.253042 
L 140.717081 63.800867 
L 142.348511 65.414395 
L 143.979941 63.478162 
L 145.61137 64.688308 
L 147.2428 62.590722 
L 148.87423 62.025987 
L 150.50566 60.331783 
L 152.13709 59.525019 
L 153.76852 57.02405 
L 155.39995 58.556902 
L 157.03138 56.459316 
L 158.66281 54.926464 
L 160.294239 56.13661 
L 161.925669 55.168493 
L 163.557099 52.667525 
L 165.188529 52.748202 
L 166.819959 53.151584 
L 170.082819 51.941438 
L 171.714249 51.618732 
L 173.345678 49.279117 
L 174.977108 48.311 
L 176.608538 46.29409 
L 179.871398 43.954475 
L 181.502828 42.986358 
L 183.134258 42.421623 
L 184.765688 41.534183 
L 186.397117 42.179594 
L 189.659977 40.808096 
L 191.291407 40.727419 
L 192.922837 39.194568 
L 194.554267 36.612923 
L 196.185697 36.6936 
L 197.817127 36.612923 
L 199.448556 35.806159 
L 201.079986 35.886836 
L 202.711416 35.56413 
L 204.342846 36.209541 
L 207.605706 34.757366 
L 209.237136 34.273308 
L 210.868566 33.950602 
L 212.499995 31.610987 
L 214.131425 32.095045 
L 215.762855 29.916783 
L 217.394285 29.110019 
L 219.025715 28.62596 
L 220.657145 28.62596 
L 222.288575 29.674753 
L 223.920005 26.85108 
L 225.551434 28.061226 
L 227.182864 28.464607 
L 228.814294 27.899873 
L 235.340014 28.222578 
L 236.971444 29.916783 
L 238.602873 29.594077 
L 240.234303 30.804223 
L 243.497163 30.64287 
L 245.128593 32.579103 
L 246.760023 33.627897 
L 248.391453 32.982485 
L 250.022883 32.095045 
L 251.654312 31.610987 
L 253.285742 32.337074 
L 254.917172 32.095045 
L 256.548602 32.982485 
L 258.180032 33.466544 
L 259.811462 33.54722 
L 261.442892 32.014369 
L 263.074322 30.804223 
L 264.705751 30.158812 
L 266.337181 29.674753 
L 267.968611 29.513401 
L 269.600041 30.965576 
L 271.231471 32.821133 
L 272.862901 32.821133 
L 274.494331 32.095045 
L 277.75719 29.916783 
L 279.38862 29.110019 
L 281.02005 27.73852 
L 282.65148 27.657844 
L 284.28291 27.254462 
L 285.91434 25.640934 
L 287.54577 27.173785 
L 289.1772 28.464607 
L 290.80863 30.320165 
L 292.440059 29.594077 
L 294.071489 30.481517 
L 295.702919 30.320165 
L 297.334349 29.75543 
L 298.965779 28.948666 
L 300.597209 29.271371 
L 302.228639 27.899873 
L 303.860069 27.496491 
L 305.491498 26.770403 
L 307.122928 28.383931 
L 308.754358 28.303255 
L 310.385788 28.464607 
L 312.017218 29.190695 
L 313.648648 30.562194 
L 315.280078 30.239488 
L 316.911508 29.029342 
L 318.542937 28.948666 
L 320.174367 29.513401 
L 321.805797 29.75543 
L 323.437227 27.496491 
L 325.068657 27.899873 
L 326.700087 26.124992 
L 328.331517 26.60905 
L 329.962947 25.318228 
L 331.594376 27.254462 
L 333.225806 27.496491 
L 334.857236 27.415814 
L 336.488666 29.674753 
L 338.120096 30.320165 
L 339.751526 31.449634 
L 341.382956 29.513401 
L 343.014386 29.594077 
L 344.645815 29.432724 
L 346.277245 30.078135 
L 347.908675 30.562194 
L 349.540105 31.853016 
L 351.171535 31.368958 
L 352.802965 29.190695 
L 354.434395 27.73852 
L 356.065825 29.836106 
L 357.697254 28.62596 
L 359.328684 28.62596 
L 360.960114 26.528374 
L 362.591544 26.367021 
L 364.222974 25.802287 
L 365.854404 26.770403 
L 367.485834 27.577167 
L 369.117264 27.899873 
L 370.748693 27.73852 
L 372.380123 28.061226 
L 374.011553 29.997459 
L 375.642983 30.481517 
L 377.274413 31.53031 
L 378.905843 29.594077 
L 380.537273 29.029342 
L 380.537273 29.029342 
" style="fill:none;stroke:#2ca02c;stroke-linecap:square;stroke-width:1.5;"/>
   </g>
   <g id="line2d_20">
    <path clip-path="url(#p3553857e65)" d="M 55.882727 261.216 
L 57.514157 260.893294 
L 59.145587 260.812618 
L 60.777017 260.32856 
L 62.408447 259.521796 
L 67.302736 255.891358 
L 68.934166 255.003918 
L 70.565596 252.422273 
L 73.828456 249.114541 
L 77.091316 244.919369 
L 78.722746 243.305841 
L 80.354175 240.240138 
L 81.985605 237.981199 
L 83.617035 234.59279 
L 85.248465 231.849793 
L 86.879895 230.639647 
L 88.511325 228.461385 
L 90.142755 225.637711 
L 91.774185 224.427565 
L 93.405614 224.104859 
L 95.037044 222.733361 
L 96.668474 219.829011 
L 98.299904 217.408719 
L 99.931334 215.311133 
L 101.562764 214.100987 
L 103.194194 211.680695 
L 104.825624 210.470549 
L 108.088483 206.840111 
L 109.719913 205.710642 
L 111.351343 203.855085 
L 112.982773 201.757499 
L 114.614203 198.853149 
L 116.245633 198.288414 
L 117.877063 196.836239 
L 119.508492 196.432857 
L 121.139922 193.770536 
L 122.771352 191.511597 
L 124.402782 191.834302 
L 126.034212 190.785509 
L 127.665642 187.800483 
L 129.297072 186.913042 
L 130.928502 185.299515 
L 132.559931 182.233812 
L 134.191361 181.185019 
L 135.822791 180.297578 
L 137.454221 179.168109 
L 139.085651 177.79661 
L 140.717081 176.667141 
L 142.348511 174.327525 
L 145.61137 171.503851 
L 147.2428 171.181146 
L 148.87423 171.423175 
L 150.50566 169.809647 
L 152.13709 169.164236 
L 153.76852 169.567618 
L 155.39995 168.680178 
L 157.03138 168.841531 
L 158.66281 166.582592 
L 160.294239 165.453122 
L 161.925669 166.743944 
L 163.557099 166.340562 
L 165.188529 164.323653 
L 166.819959 164.807711 
L 168.451389 164.807711 
L 171.714249 162.14539 
L 173.345678 162.064714 
L 174.977108 161.499979 
L 176.608538 161.903361 
L 178.239968 161.580655 
L 179.871398 160.773891 
L 181.502828 159.321716 
L 184.765688 157.385483 
L 186.397117 157.062777 
L 188.028547 155.449249 
L 189.659977 155.126544 
L 191.291407 154.158427 
L 192.922837 155.20722 
L 194.554267 155.045867 
L 196.185697 155.126544 
L 197.817127 152.786928 
L 199.448556 152.948281 
L 201.079986 152.948281 
L 202.711416 152.706252 
L 204.342846 151.657459 
L 205.974276 151.899488 
L 207.605706 151.496106 
L 210.868566 152.060841 
L 212.499995 153.593692 
L 214.131425 154.31978 
L 217.394285 154.077751 
L 219.025715 154.239103 
L 220.657145 153.270987 
L 222.288575 152.141517 
L 223.920005 151.818812 
L 225.551434 151.334753 
L 227.182864 150.366637 
L 228.814294 149.075814 
L 230.445724 146.171464 
L 232.077154 145.284024 
L 233.708584 144.235231 
L 235.340014 144.880642 
L 236.971444 144.47726 
L 241.865733 144.396584 
L 243.497163 143.267114 
L 245.128593 142.621703 
L 246.760023 143.186438 
L 248.391453 142.783056 
L 250.022883 144.557936 
L 251.654312 143.993202 
L 253.285742 144.073878 
L 254.917172 144.880642 
L 258.180032 145.041995 
L 259.811462 145.526053 
L 261.442892 146.171464 
L 263.074322 146.49417 
L 264.705751 144.880642 
L 266.337181 144.799966 
L 267.968611 144.073878 
L 269.600041 142.541027 
L 271.231471 142.944409 
L 272.862901 142.298997 
L 274.494331 142.46035 
L 276.125761 144.235231 
L 277.75719 143.670496 
L 281.02005 144.719289 
L 282.65148 144.719289 
L 284.28291 144.235231 
L 285.91434 144.961318 
L 287.54577 143.34779 
L 289.1772 142.863732 
L 290.80863 142.702379 
L 292.440059 143.267114 
L 294.071489 144.396584 
L 295.702919 144.719289 
L 297.334349 145.526053 
L 298.965779 146.736199 
L 300.597209 145.768082 
L 302.228639 145.203348 
L 303.860069 144.396584 
L 305.491498 144.073878 
L 307.122928 143.186438 
L 308.754358 142.944409 
L 310.385788 140.766146 
L 312.017218 139.798029 
L 313.648648 140.927499 
L 315.280078 138.991265 
L 316.911508 139.313971 
L 318.542937 138.991265 
L 320.174367 138.103825 
L 323.437227 137.942472 
L 325.068657 135.844886 
L 326.700087 136.086915 
L 328.331517 136.006239 
L 329.962947 137.53909 
L 331.594376 136.086915 
L 333.225806 135.52218 
L 334.857236 135.602857 
L 336.488666 134.796093 
L 338.120096 134.796093 
L 339.751526 134.473387 
L 341.382956 135.441504 
L 343.014386 134.876769 
L 344.645815 135.360828 
L 346.277245 135.683533 
L 347.908675 134.392711 
L 349.540105 133.989329 
L 351.171535 134.392711 
L 352.802965 135.441504 
L 354.434395 134.392711 
L 356.065825 134.63474 
L 359.328684 136.086915 
L 360.960114 138.345854 
L 362.591544 137.942472 
L 364.222974 138.66856 
L 365.854404 136.732326 
L 367.485834 136.167592 
L 369.117264 136.006239 
L 370.748693 137.135708 
L 372.380123 139.152618 
L 374.011553 137.861796 
L 375.642983 139.636676 
L 377.274413 139.636676 
L 378.905843 140.040058 
L 380.537273 141.008175 
L 380.537273 141.008175 
" style="fill:none;stroke:#d62728;stroke-linecap:square;stroke-width:1.5;"/>
   </g>
   <g id="patch_3">
    <path d="M 39.65 273.312 
L 39.65 7.2 
" style="fill:none;stroke:#000000;stroke-linecap:square;stroke-linejoin:miter;stroke-width:0.8;"/>
   </g>
   <g id="patch_4">
    <path d="M 396.77 273.312 
L 396.77 7.2 
" style="fill:none;stroke:#000000;stroke-linecap:square;stroke-linejoin:miter;stroke-width:0.8;"/>
   </g>
   <g id="patch_5">
    <path d="M 39.65 273.312 
L 396.77 273.312 
" style="fill:none;stroke:#000000;stroke-linecap:square;stroke-linejoin:miter;stroke-width:0.8;"/>
   </g>
   <g id="patch_6">
    <path d="M 39.65 7.2 
L 396.77 7.2 
" style="fill:none;stroke:#000000;stroke-linecap:square;stroke-linejoin:miter;stroke-width:0.8;"/>
   </g>
  </g>
 </g>
 <defs>
  <clipPath id="p3553857e65">
   <rect height="266.112" width="357.12" x="39.65" y="7.2"/>
  </clipPath>
 </defs>
</svg>
