<?xml version="1.0" encoding="utf-8" standalone="no"?>
<!DOCTYPE svg PUBLIC "-//W3C//DTD SVG 1.1//EN"
  "http://www.w3.org/Graphics/SVG/1.1/DTD/svg11.dtd">
<svg xmlns:xlink="http://www.w3.org/1999/xlink" width="403.97pt" height="297.190125pt" viewBox="0 0 403.97 297.190125" xmlns="http://www.w3.org/2000/svg" version="1.1">
 <metadata>
  <rdf:RDF xmlns:dc="http://purl.org/dc/elements/1.1/" xmlns:cc="http://creativecommons.org/ns#" xmlns:rdf="http://www.w3.org/1999/02/22-rdf-syntax-ns#">
   <cc:Work>
    <dc:type rdf:resource="http://purl.org/dc/dcmitype/StillImage"/>
    <dc:date>2024-04-30T16:32:50.887309</dc:date>
    <dc:format>image/svg+xml</dc:format>
    <dc:creator>
     <cc:Agent>
      <dc:title>Matplotlib v3.8.4, https://matplotlib.org/</dc:title>
     </cc:Agent>
    </dc:creator>
   </cc:Work>
  </rdf:RDF>
 </metadata>
 <defs>
  <style type="text/css">*{stroke-linejoin: round; stroke-linecap: butt}</style>
 </defs>
 <g id="figure_1">
  <g id="patch_1">
   <path d="M 0 297.190125 
L 403.97 297.190125 
L 403.97 0 
L 0 0 
z
" style="fill: #ffffff"/>
  </g>
  <g id="axes_1">
   <g id="patch_2">
    <path d="M 39.65 273.312 
L 396.77 273.312 
L 396.77 7.2 
L 39.65 7.2 
z
" style="fill: #ffffff"/>
   </g>
   <g id="matplotlib.axis_1">
    <g id="xtick_1">
     <g id="line2d_1">
      <defs>
       <path id="m87b36000ff" d="M 0 0 
L 0 3.5 
" style="stroke: #000000; stroke-width: 0.8"/>
      </defs>
      <g>
       <use xlink:href="#m87b36000ff" x="55.882727" y="273.312" style="stroke: #000000; stroke-width: 0.8"/>
      </g>
     </g>
     <g id="text_1">
      <!-- 0.0 -->
      <g transform="translate(47.931165 287.910437) scale(0.1 -0.1)">
       <defs>
        <path id="DejaVuSans-30" d="M 2034 4250 
Q 1547 4250 1301 3770 
Q 1056 3291 1056 2328 
Q 1056 1369 1301 889 
Q 1547 409 2034 409 
Q 2525 409 2770 889 
Q 3016 1369 3016 2328 
Q 3016 3291 2770 3770 
Q 2525 4250 2034 4250 
z
M 2034 4750 
Q 2819 4750 3233 4129 
Q 3647 3509 3647 2328 
Q 3647 1150 3233 529 
Q 2819 -91 2034 -91 
Q 1250 -91 836 529 
Q 422 1150 422 2328 
Q 422 3509 836 4129 
Q 1250 4750 2034 4750 
z
" transform="scale(0.015625)"/>
        <path id="DejaVuSans-2e" d="M 684 794 
L 1344 794 
L 1344 0 
L 684 0 
L 684 794 
z
" transform="scale(0.015625)"/>
       </defs>
       <use xlink:href="#DejaVuSans-30"/>
       <use xlink:href="#DejaVuSans-2e" x="63.623047"/>
       <use xlink:href="#DejaVuSans-30" x="95.410156"/>
      </g>
     </g>
    </g>
    <g id="xtick_2">
     <g id="line2d_2">
      <g>
       <use xlink:href="#m87b36000ff" x="96.668474" y="273.312" style="stroke: #000000; stroke-width: 0.8"/>
      </g>
     </g>
     <g id="text_2">
      <!-- 2.5 -->
      <g transform="translate(88.716912 287.910437) scale(0.1 -0.1)">
       <defs>
        <path id="DejaVuSans-32" d="M 1228 531 
L 3431 531 
L 3431 0 
L 469 0 
L 469 531 
Q 828 903 1448 1529 
Q 2069 2156 2228 2338 
Q 2531 2678 2651 2914 
Q 2772 3150 2772 3378 
Q 2772 3750 2511 3984 
Q 2250 4219 1831 4219 
Q 1534 4219 1204 4116 
Q 875 4013 500 3803 
L 500 4441 
Q 881 4594 1212 4672 
Q 1544 4750 1819 4750 
Q 2544 4750 2975 4387 
Q 3406 4025 3406 3419 
Q 3406 3131 3298 2873 
Q 3191 2616 2906 2266 
Q 2828 2175 2409 1742 
Q 1991 1309 1228 531 
z
" transform="scale(0.015625)"/>
        <path id="DejaVuSans-35" d="M 691 4666 
L 3169 4666 
L 3169 4134 
L 1269 4134 
L 1269 2991 
Q 1406 3038 1543 3061 
Q 1681 3084 1819 3084 
Q 2600 3084 3056 2656 
Q 3513 2228 3513 1497 
Q 3513 744 3044 326 
Q 2575 -91 1722 -91 
Q 1428 -91 1123 -41 
Q 819 9 494 109 
L 494 744 
Q 775 591 1075 516 
Q 1375 441 1709 441 
Q 2250 441 2565 725 
Q 2881 1009 2881 1497 
Q 2881 1984 2565 2268 
Q 2250 2553 1709 2553 
Q 1456 2553 1204 2497 
Q 953 2441 691 2322 
L 691 4666 
z
" transform="scale(0.015625)"/>
       </defs>
       <use xlink:href="#DejaVuSans-32"/>
       <use xlink:href="#DejaVuSans-2e" x="63.623047"/>
       <use xlink:href="#DejaVuSans-35" x="95.410156"/>
      </g>
     </g>
    </g>
    <g id="xtick_3">
     <g id="line2d_3">
      <g>
       <use xlink:href="#m87b36000ff" x="137.454221" y="273.312" style="stroke: #000000; stroke-width: 0.8"/>
      </g>
     </g>
     <g id="text_3">
      <!-- 5.0 -->
      <g transform="translate(129.502659 287.910437) scale(0.1 -0.1)">
       <use xlink:href="#DejaVuSans-35"/>
       <use xlink:href="#DejaVuSans-2e" x="63.623047"/>
       <use xlink:href="#DejaVuSans-30" x="95.410156"/>
      </g>
     </g>
    </g>
    <g id="xtick_4">
     <g id="line2d_4">
      <g>
       <use xlink:href="#m87b36000ff" x="178.239968" y="273.312" style="stroke: #000000; stroke-width: 0.8"/>
      </g>
     </g>
     <g id="text_4">
      <!-- 7.5 -->
      <g transform="translate(170.288406 287.910437) scale(0.1 -0.1)">
       <defs>
        <path id="DejaVuSans-37" d="M 525 4666 
L 3525 4666 
L 3525 4397 
L 1831 0 
L 1172 0 
L 2766 4134 
L 525 4134 
L 525 4666 
z
" transform="scale(0.015625)"/>
       </defs>
       <use xlink:href="#DejaVuSans-37"/>
       <use xlink:href="#DejaVuSans-2e" x="63.623047"/>
       <use xlink:href="#DejaVuSans-35" x="95.410156"/>
      </g>
     </g>
    </g>
    <g id="xtick_5">
     <g id="line2d_5">
      <g>
       <use xlink:href="#m87b36000ff" x="219.025715" y="273.312" style="stroke: #000000; stroke-width: 0.8"/>
      </g>
     </g>
     <g id="text_5">
      <!-- 10.0 -->
      <g transform="translate(207.892902 287.910437) scale(0.1 -0.1)">
       <defs>
        <path id="DejaVuSans-31" d="M 794 531 
L 1825 531 
L 1825 4091 
L 703 3866 
L 703 4441 
L 1819 4666 
L 2450 4666 
L 2450 531 
L 3481 531 
L 3481 0 
L 794 0 
L 794 531 
z
" transform="scale(0.015625)"/>
       </defs>
       <use xlink:href="#DejaVuSans-31"/>
       <use xlink:href="#DejaVuSans-30" x="63.623047"/>
       <use xlink:href="#DejaVuSans-2e" x="127.246094"/>
       <use xlink:href="#DejaVuSans-30" x="159.033203"/>
      </g>
     </g>
    </g>
    <g id="xtick_6">
     <g id="line2d_6">
      <g>
       <use xlink:href="#m87b36000ff" x="259.811462" y="273.312" style="stroke: #000000; stroke-width: 0.8"/>
      </g>
     </g>
     <g id="text_6">
      <!-- 12.5 -->
      <g transform="translate(248.678649 287.910437) scale(0.1 -0.1)">
       <use xlink:href="#DejaVuSans-31"/>
       <use xlink:href="#DejaVuSans-32" x="63.623047"/>
       <use xlink:href="#DejaVuSans-2e" x="127.246094"/>
       <use xlink:href="#DejaVuSans-35" x="159.033203"/>
      </g>
     </g>
    </g>
    <g id="xtick_7">
     <g id="line2d_7">
      <g>
       <use xlink:href="#m87b36000ff" x="300.597209" y="273.312" style="stroke: #000000; stroke-width: 0.8"/>
      </g>
     </g>
     <g id="text_7">
      <!-- 15.0 -->
      <g transform="translate(289.464396 287.910437) scale(0.1 -0.1)">
       <use xlink:href="#DejaVuSans-31"/>
       <use xlink:href="#DejaVuSans-35" x="63.623047"/>
       <use xlink:href="#DejaVuSans-2e" x="127.246094"/>
       <use xlink:href="#DejaVuSans-30" x="159.033203"/>
      </g>
     </g>
    </g>
    <g id="xtick_8">
     <g id="line2d_8">
      <g>
       <use xlink:href="#m87b36000ff" x="341.382956" y="273.312" style="stroke: #000000; stroke-width: 0.8"/>
      </g>
     </g>
     <g id="text_8">
      <!-- 17.5 -->
      <g transform="translate(330.250143 287.910437) scale(0.1 -0.1)">
       <use xlink:href="#DejaVuSans-31"/>
       <use xlink:href="#DejaVuSans-37" x="63.623047"/>
       <use xlink:href="#DejaVuSans-2e" x="127.246094"/>
       <use xlink:href="#DejaVuSans-35" x="159.033203"/>
      </g>
     </g>
    </g>
    <g id="xtick_9">
     <g id="line2d_9">
      <g>
       <use xlink:href="#m87b36000ff" x="382.168703" y="273.312" style="stroke: #000000; stroke-width: 0.8"/>
      </g>
     </g>
     <g id="text_9">
      <!-- 20.0 -->
      <g transform="translate(371.03589 287.910437) scale(0.1 -0.1)">
       <use xlink:href="#DejaVuSans-32"/>
       <use xlink:href="#DejaVuSans-30" x="63.623047"/>
       <use xlink:href="#DejaVuSans-2e" x="127.246094"/>
       <use xlink:href="#DejaVuSans-30" x="159.033203"/>
      </g>
     </g>
    </g>
   </g>
   <g id="matplotlib.axis_2">
    <g id="ytick_1">
     <g id="line2d_10">
      <defs>
       <path id="m758896bef4" d="M 0 0 
L -3.5 0 
" style="stroke: #000000; stroke-width: 0.8"/>
      </defs>
      <g>
       <use xlink:href="#m758896bef4" x="39.65" y="261.216" style="stroke: #000000; stroke-width: 0.8"/>
      </g>
     </g>
     <g id="text_10">
      <!-- 0 -->
      <g transform="translate(26.2875 265.015219) scale(0.1 -0.1)">
       <use xlink:href="#DejaVuSans-30"/>
      </g>
     </g>
    </g>
    <g id="ytick_2">
     <g id="line2d_11">
      <g>
       <use xlink:href="#m758896bef4" x="39.65" y="221.647796" style="stroke: #000000; stroke-width: 0.8"/>
      </g>
     </g>
     <g id="text_11">
      <!-- 500 -->
      <g transform="translate(13.5625 225.447015) scale(0.1 -0.1)">
       <use xlink:href="#DejaVuSans-35"/>
       <use xlink:href="#DejaVuSans-30" x="63.623047"/>
       <use xlink:href="#DejaVuSans-30" x="127.246094"/>
      </g>
     </g>
    </g>
    <g id="ytick_3">
     <g id="line2d_12">
      <g>
       <use xlink:href="#m758896bef4" x="39.65" y="182.079592" style="stroke: #000000; stroke-width: 0.8"/>
      </g>
     </g>
     <g id="text_12">
      <!-- 1000 -->
      <g transform="translate(7.2 185.878811) scale(0.1 -0.1)">
       <use xlink:href="#DejaVuSans-31"/>
       <use xlink:href="#DejaVuSans-30" x="63.623047"/>
       <use xlink:href="#DejaVuSans-30" x="127.246094"/>
       <use xlink:href="#DejaVuSans-30" x="190.869141"/>
      </g>
     </g>
    </g>
    <g id="ytick_4">
     <g id="line2d_13">
      <g>
       <use xlink:href="#m758896bef4" x="39.65" y="142.511388" style="stroke: #000000; stroke-width: 0.8"/>
      </g>
     </g>
     <g id="text_13">
      <!-- 1500 -->
      <g transform="translate(7.2 146.310606) scale(0.1 -0.1)">
       <use xlink:href="#DejaVuSans-31"/>
       <use xlink:href="#DejaVuSans-35" x="63.623047"/>
       <use xlink:href="#DejaVuSans-30" x="127.246094"/>
       <use xlink:href="#DejaVuSans-30" x="190.869141"/>
      </g>
     </g>
    </g>
    <g id="ytick_5">
     <g id="line2d_14">
      <g>
       <use xlink:href="#m758896bef4" x="39.65" y="102.943184" style="stroke: #000000; stroke-width: 0.8"/>
      </g>
     </g>
     <g id="text_14">
      <!-- 2000 -->
      <g transform="translate(7.2 106.742402) scale(0.1 -0.1)">
       <use xlink:href="#DejaVuSans-32"/>
       <use xlink:href="#DejaVuSans-30" x="63.623047"/>
       <use xlink:href="#DejaVuSans-30" x="127.246094"/>
       <use xlink:href="#DejaVuSans-30" x="190.869141"/>
      </g>
     </g>
    </g>
    <g id="ytick_6">
     <g id="line2d_15">
      <g>
       <use xlink:href="#m758896bef4" x="39.65" y="63.374979" style="stroke: #000000; stroke-width: 0.8"/>
      </g>
     </g>
     <g id="text_15">
      <!-- 2500 -->
      <g transform="translate(7.2 67.174198) scale(0.1 -0.1)">
       <use xlink:href="#DejaVuSans-32"/>
       <use xlink:href="#DejaVuSans-35" x="63.623047"/>
       <use xlink:href="#DejaVuSans-30" x="127.246094"/>
       <use xlink:href="#DejaVuSans-30" x="190.869141"/>
      </g>
     </g>
    </g>
    <g id="ytick_7">
     <g id="line2d_16">
      <g>
       <use xlink:href="#m758896bef4" x="39.65" y="23.806775" style="stroke: #000000; stroke-width: 0.8"/>
      </g>
     </g>
     <g id="text_16">
      <!-- 3000 -->
      <g transform="translate(7.2 27.605994) scale(0.1 -0.1)">
       <defs>
        <path id="DejaVuSans-33" d="M 2597 2516 
Q 3050 2419 3304 2112 
Q 3559 1806 3559 1356 
Q 3559 666 3084 287 
Q 2609 -91 1734 -91 
Q 1441 -91 1130 -33 
Q 819 25 488 141 
L 488 750 
Q 750 597 1062 519 
Q 1375 441 1716 441 
Q 2309 441 2620 675 
Q 2931 909 2931 1356 
Q 2931 1769 2642 2001 
Q 2353 2234 1838 2234 
L 1294 2234 
L 1294 2753 
L 1863 2753 
Q 2328 2753 2575 2939 
Q 2822 3125 2822 3475 
Q 2822 3834 2567 4026 
Q 2313 4219 1838 4219 
Q 1578 4219 1281 4162 
Q 984 4106 628 3988 
L 628 4550 
Q 988 4650 1302 4700 
Q 1616 4750 1894 4750 
Q 2613 4750 3031 4423 
Q 3450 4097 3450 3541 
Q 3450 3153 3228 2886 
Q 3006 2619 2597 2516 
z
" transform="scale(0.015625)"/>
       </defs>
       <use xlink:href="#DejaVuSans-33"/>
       <use xlink:href="#DejaVuSans-30" x="63.623047"/>
       <use xlink:href="#DejaVuSans-30" x="127.246094"/>
       <use xlink:href="#DejaVuSans-30" x="190.869141"/>
      </g>
     </g>
    </g>
   </g>
   <g id="line2d_17">
    <path d="M 55.882727 261.216 
L 59.961302 241.431898 
L 64.039877 223.554983 
L 68.118451 207.401403 
L 72.197026 192.805028 
L 76.275601 179.615744 
L 80.354175 167.697907 
L 84.43275 156.928949 
L 88.511325 147.198118 
L 92.589899 138.40534 
L 96.668474 130.460186 
L 100.747049 123.280944 
L 104.825624 116.793781 
L 108.904198 110.931981 
L 112.982773 105.635259 
L 117.061348 100.84914 
L 121.139922 96.524403 
L 125.218497 92.616571 
L 129.297072 89.085454 
L 133.375646 85.894737 
L 137.454221 83.011604 
L 141.532796 80.406406 
L 145.61137 78.052349 
L 149.689945 75.925223 
L 153.76852 74.003152 
L 157.847095 72.266368 
L 161.925669 70.697011 
L 166.004244 69.278939 
L 170.082819 67.99757 
L 174.161393 66.839724 
L 178.239968 65.793495 
L 182.318543 64.848123 
L 186.397117 63.993884 
L 190.475692 63.221994 
L 194.554267 62.524514 
L 198.632841 61.894271 
L 202.711416 61.324784 
L 206.789991 60.810195 
L 210.868566 60.345213 
L 214.94714 59.925054 
L 219.025715 59.545399 
L 223.10429 59.202343 
L 227.182864 58.892358 
L 231.261439 58.612255 
L 235.340014 58.359154 
L 239.418588 58.130452 
L 243.497163 57.923796 
L 247.575738 57.737063 
L 251.654312 57.56833 
L 255.732887 57.415864 
L 259.811462 57.278095 
L 263.890037 57.153607 
L 267.968611 57.041119 
L 272.047186 56.939476 
L 276.125761 56.847631 
L 280.204335 56.764639 
L 284.28291 56.689649 
L 288.361485 56.621887 
L 292.440059 56.560657 
L 296.518634 56.50533 
L 300.597209 56.455337 
L 304.675783 56.410163 
L 308.754358 56.369343 
L 312.832933 56.332459 
L 316.911508 56.29913 
L 320.990082 56.269014 
L 325.068657 56.241802 
L 329.147232 56.217212 
L 333.225806 56.194993 
L 337.304381 56.174916 
L 341.382956 56.156775 
L 345.46153 56.140382 
L 349.540105 56.12557 
L 353.61868 56.112185 
L 357.697254 56.100091 
L 361.775829 56.089162 
L 365.854404 56.079287 
L 369.932979 56.070364 
L 374.011553 56.062302 
L 378.090128 56.055016 
" clip-path="url(#p45165b8aa4)" style="fill: none; stroke: #1f77b4; stroke-width: 1.5; stroke-linecap: square"/>
   </g>
   <g id="line2d_18">
    <path d="M 55.882727 261.216 
L 59.961302 261.216 
L 64.039877 259.308813 
L 68.118451 256.136397 
L 72.197026 252.16879 
L 76.275601 247.747113 
L 80.354175 243.116075 
L 84.43275 238.448532 
L 88.511325 233.864006 
L 92.589899 229.442632 
L 96.668474 225.235647 
L 100.747049 221.273267 
L 104.825624 217.570572 
L 108.904198 214.131902 
L 112.982773 210.954123 
L 117.061348 208.029042 
L 121.139922 205.345184 
L 125.218497 202.889084 
L 129.297072 200.646225 
L 133.375646 198.6017 
L 137.454221 196.740685 
L 141.532796 195.048752 
L 145.61137 193.51208 
L 149.689945 192.117586 
L 153.76852 190.852994 
L 157.847095 189.706869 
L 161.925669 188.668618 
L 166.004244 187.728469 
L 170.082819 186.877441 
L 174.161393 186.107306 
L 178.239968 185.410541 
L 182.318543 184.780283 
L 186.397117 184.210279 
L 190.475692 183.694841 
L 194.554267 183.228801 
L 198.632841 182.807467 
L 202.711416 182.426582 
L 206.789991 182.082287 
L 210.868566 181.771085 
L 214.94714 181.48981 
L 219.025715 181.235594 
L 223.10429 181.005841 
L 227.182864 180.798205 
L 231.261439 180.61056 
L 235.340014 180.440986 
L 239.418588 180.287744 
L 243.497163 180.149264 
L 247.575738 180.024126 
L 251.654312 179.911045 
L 255.732887 179.808859 
L 259.811462 179.716521 
L 263.890037 179.633082 
L 267.968611 179.557684 
L 272.047186 179.489553 
L 276.125761 179.427989 
L 280.204335 179.372358 
L 284.28291 179.32209 
L 288.361485 179.276667 
L 292.440059 179.235622 
L 296.518634 179.198534 
L 300.597209 179.165021 
L 304.675783 179.134738 
L 308.754358 179.107374 
L 312.832933 179.082649 
L 316.911508 179.060306 
L 320.990082 179.040118 
L 325.068657 179.021875 
L 329.147232 179.005391 
L 333.225806 178.990496 
L 337.304381 178.977037 
L 341.382956 178.964876 
L 345.46153 178.953886 
L 349.540105 178.943957 
L 353.61868 178.934984 
L 357.697254 178.926876 
L 361.775829 178.91955 
L 365.854404 178.91293 
L 369.932979 178.906948 
L 374.011553 178.901543 
L 378.090128 178.896659 
" clip-path="url(#p45165b8aa4)" style="fill: none; stroke: #ff7f0e; stroke-width: 1.5; stroke-linecap: square"/>
   </g>
   <g id="line2d_19">
    <path d="M 55.882727 261.216 
L 57.514157 253.698041 
L 59.145587 246.971447 
L 62.408447 231.144165 
L 64.039877 224.338434 
L 65.671307 216.820475 
L 67.302736 210.806108 
L 68.934166 205.503969 
L 72.197026 192.763007 
L 73.828456 188.806186 
L 75.459886 181.367364 
L 77.091316 175.432133 
L 78.722746 169.971721 
L 80.354175 163.561672 
L 81.985605 160.554489 
L 83.617035 156.360259 
L 85.248465 153.115666 
L 86.879895 148.604891 
L 88.511325 144.88548 
L 90.142755 142.432251 
L 91.774185 139.662477 
L 95.037044 131.748836 
L 96.668474 129.691289 
L 98.299904 126.130151 
L 99.931334 121.856785 
L 101.562764 118.21651 
L 103.194194 116.317237 
L 104.825624 112.676962 
L 108.088483 107.058277 
L 109.719913 105.079867 
L 111.351343 102.784911 
L 112.982773 99.936 
L 114.614203 98.353272 
L 116.245633 94.792133 
L 117.877063 94.396451 
L 119.508492 92.813723 
L 121.139922 93.288542 
L 122.771352 91.389268 
L 124.402782 88.223812 
L 126.034212 86.641083 
L 127.665642 85.533174 
L 129.297072 84.108718 
L 130.928502 82.842536 
L 132.559931 81.813763 
L 134.191361 79.597943 
L 135.822791 78.331761 
L 137.454221 74.770622 
L 139.085651 71.921711 
L 140.717081 72.317394 
L 142.348511 69.785028 
L 143.979941 67.648345 
L 145.61137 65.195117 
L 147.2428 64.562026 
L 148.87423 64.166343 
L 152.13709 61.713115 
L 155.39995 60.684342 
L 157.03138 61.633978 
L 158.66281 58.943341 
L 160.294239 59.892977 
L 161.925669 59.022477 
L 163.557099 56.09443 
L 165.188529 54.590838 
L 166.819959 54.353429 
L 168.451389 54.353429 
L 170.082819 53.799474 
L 171.714249 50.950563 
L 173.345678 49.92179 
L 174.977108 49.367835 
L 176.608538 49.526108 
L 178.239968 49.288699 
L 179.871398 46.914606 
L 181.502828 46.518924 
L 183.134258 45.411015 
L 184.765688 45.490151 
L 186.397117 45.72756 
L 188.028547 46.360652 
L 189.659977 44.619651 
L 191.291407 43.986559 
L 192.922837 44.382241 
L 194.554267 43.116059 
L 196.185697 42.799513 
L 197.817127 42.087286 
L 201.079986 42.64124 
L 204.342846 39.000966 
L 205.974276 37.972192 
L 207.605706 36.626873 
L 209.237136 34.569327 
L 210.868566 34.094508 
L 212.499995 32.828326 
L 214.131425 31.720416 
L 215.762855 30.929052 
L 217.394285 32.036962 
L 219.025715 31.40387 
L 220.657145 30.53337 
L 222.288575 30.295961 
L 223.920005 30.53337 
L 225.551434 29.821142 
L 227.182864 30.295961 
L 228.814294 29.583733 
L 230.445724 30.137688 
L 232.077154 28.634096 
L 233.708584 28.317551 
L 235.340014 26.260004 
L 236.971444 26.33914 
L 238.602873 25.706049 
L 240.234303 25.547776 
L 241.865733 26.497413 
L 243.497163 27.051368 
L 245.128593 24.914685 
L 246.760023 25.864322 
L 248.391453 25.46864 
L 251.654312 22.540593 
L 253.285742 23.173684 
L 254.917172 23.331957 
L 256.548602 24.598139 
L 258.180032 26.734822 
L 259.811462 23.569366 
L 261.442892 24.202457 
L 263.074322 23.331957 
L 264.705751 23.015411 
L 266.337181 23.331957 
L 267.968611 22.065774 
L 269.600041 21.670092 
L 271.231471 21.432683 
L 272.862901 20.483046 
L 274.494331 19.691682 
L 276.125761 19.849955 
L 277.75719 19.533409 
L 279.38862 20.087364 
L 281.02005 19.296 
L 282.65148 19.849955 
L 284.28291 19.849955 
L 285.91434 21.432683 
L 287.54577 21.037001 
L 289.1772 22.778002 
L 290.80863 21.590956 
L 292.440059 22.698866 
L 294.071489 24.36073 
L 295.702919 23.965048 
L 298.965779 22.857138 
L 300.597209 24.123321 
L 302.228639 23.806775 
L 303.860069 24.598139 
L 305.491498 25.864322 
L 307.122928 25.072958 
L 308.754358 26.972232 
L 310.385788 27.921868 
L 312.017218 28.317551 
L 313.648648 28.317551 
L 315.280078 27.921868 
L 316.911508 26.893095 
L 318.542937 28.792369 
L 320.174367 28.55496 
L 321.805797 27.763596 
L 323.437227 28.080141 
L 325.068657 28.792369 
L 326.700087 30.216824 
L 328.331517 29.42546 
L 331.594376 29.504597 
L 333.225806 30.691643 
L 334.857236 30.612506 
L 336.488666 30.058552 
L 338.120096 29.108915 
L 339.751526 27.209641 
L 341.382956 28.001005 
L 343.014386 26.57655 
L 344.645815 27.209641 
L 346.277245 26.972232 
L 347.908675 28.871505 
L 349.540105 29.267187 
L 351.171535 29.346324 
L 352.802965 28.238414 
L 354.434395 28.634096 
L 356.065825 27.367914 
L 357.697254 28.238414 
L 359.328684 27.842732 
L 362.591544 29.742006 
L 364.222974 28.396687 
L 365.854404 28.317551 
L 367.485834 27.130504 
L 369.117264 27.367914 
L 370.748693 28.396687 
L 372.380123 26.497413 
L 374.011553 27.209641 
L 377.274413 25.785185 
L 378.905843 24.756412 
L 380.537273 23.885912 
L 380.537273 23.885912 
" clip-path="url(#p45165b8aa4)" style="fill: none; stroke: #2ca02c; stroke-width: 1.5; stroke-linecap: square"/>
   </g>
   <g id="line2d_20">
    <path d="M 55.882727 261.216 
L 57.514157 261.057727 
L 59.145587 260.741182 
L 60.777017 260.266363 
L 62.408447 259.633272 
L 64.039877 258.604499 
L 65.671307 257.338316 
L 72.197026 250.690858 
L 73.828456 248.395902 
L 75.459886 247.208856 
L 77.091316 244.834763 
L 78.722746 243.172899 
L 80.354175 242.223262 
L 81.985605 240.165715 
L 83.617035 237.712487 
L 85.248465 236.129759 
L 86.879895 234.705303 
L 88.511325 233.043439 
L 91.774185 228.6118 
L 93.405614 227.108208 
L 95.037044 225.842026 
L 96.668474 223.705342 
L 98.299904 222.518296 
L 99.931334 221.885205 
L 101.562764 219.511113 
L 103.194194 214.683792 
L 104.825624 212.467973 
L 106.457053 210.489562 
L 108.088483 207.957197 
L 109.719913 206.928424 
L 111.351343 205.108287 
L 112.982773 202.655058 
L 116.245633 201.626285 
L 117.877063 199.331329 
L 119.508492 197.827737 
L 121.139922 194.029189 
L 122.771352 191.575961 
L 124.402782 190.784597 
L 126.034212 188.489641 
L 127.665642 185.878139 
L 129.297072 184.849366 
L 130.928502 184.611957 
L 132.559931 182.396137 
L 134.191361 182.712683 
L 135.822791 180.734273 
L 137.454221 181.604773 
L 139.085651 181.842183 
L 140.717081 180.180318 
L 142.348511 180.971682 
L 143.979941 178.755863 
L 145.61137 177.48968 
L 147.2428 176.61918 
L 148.87423 174.324224 
L 150.50566 174.324224 
L 152.13709 172.899768 
L 153.76852 172.187541 
L 155.39995 170.367403 
L 157.03138 167.993311 
L 158.66281 167.597629 
L 160.294239 165.619219 
L 161.925669 166.568856 
L 165.188529 167.281083 
L 166.819959 167.518493 
L 168.451389 167.439356 
L 170.082819 165.302673 
L 171.714249 166.885401 
L 173.345678 163.561672 
L 174.977108 162.770308 
L 176.608538 160.158807 
L 178.239968 158.813488 
L 179.871398 158.892624 
L 181.502828 158.10126 
L 183.134258 156.99335 
L 184.765688 156.043713 
L 186.397117 155.568895 
L 188.028547 155.727168 
L 189.659977 156.755941 
L 191.291407 156.12285 
L 192.922837 155.173213 
L 194.554267 156.043713 
L 196.185697 154.935804 
L 197.817127 154.223576 
L 201.079986 154.302712 
L 204.342846 153.590485 
L 205.974276 152.245166 
L 207.605706 152.245166 
L 209.237136 154.223576 
L 210.868566 153.115666 
L 212.499995 152.799121 
L 214.131425 152.878257 
L 215.762855 154.14444 
L 217.394285 153.03653 
L 219.025715 154.065303 
L 220.657145 155.410622 
L 222.288575 156.12285 
L 223.920005 155.885441 
L 225.551434 154.540122 
L 227.182864 154.065303 
L 228.814294 154.935804 
L 230.445724 153.986167 
L 232.077154 154.619258 
L 233.708584 153.194803 
L 235.340014 155.094077 
L 236.971444 154.777531 
L 238.602873 152.799121 
L 240.234303 152.007757 
L 241.865733 151.770347 
L 243.497163 150.820711 
L 245.128593 152.799121 
L 248.391453 149.871074 
L 250.022883 151.612075 
L 251.654312 151.05812 
L 253.285742 149.633664 
L 254.917172 148.8423 
L 256.548602 149.07971 
L 258.180032 147.576118 
L 259.811462 148.446618 
L 261.442892 149.07971 
L 264.705751 149.95021 
L 266.337181 148.8423 
L 267.968611 148.288345 
L 269.600041 147.496981 
L 271.231471 146.86389 
L 272.862901 146.784754 
L 274.494331 145.676844 
L 276.125761 145.202026 
L 277.75719 145.360298 
L 281.02005 144.806343 
L 284.28291 145.676844 
L 287.54577 145.122889 
L 289.1772 142.590524 
L 290.80863 142.432251 
L 292.440059 141.79916 
L 295.702919 142.194842 
L 297.334349 141.561751 
L 298.965779 141.403478 
L 300.597209 139.345931 
L 302.228639 140.69125 
L 303.860069 139.583341 
L 305.491498 141.482614 
L 307.122928 141.561751 
L 308.754358 139.741613 
L 310.385788 139.979023 
L 313.648648 138.475431 
L 315.280078 139.187658 
L 316.911508 139.662477 
L 318.542937 138.871113 
L 320.174367 140.137295 
L 321.805797 139.583341 
L 323.437227 141.561751 
L 325.068657 143.065342 
L 326.700087 142.194842 
L 328.331517 143.77757 
L 329.962947 143.065342 
L 331.594376 141.482614 
L 333.225806 140.058159 
L 334.857236 139.899886 
L 336.488666 141.086932 
L 338.120096 141.561751 
L 339.751526 143.223615 
L 341.382956 142.66966 
L 343.014386 144.964616 
L 346.277245 143.302752 
L 347.908675 143.461025 
L 349.540105 143.302752 
L 351.171535 143.698434 
L 352.802965 143.619297 
L 354.434395 144.014979 
L 356.065825 144.727207 
L 357.697254 141.720024 
L 359.328684 142.194842 
L 360.960114 141.561751 
L 362.591544 142.115706 
L 364.222974 144.568934 
L 365.854404 145.122889 
L 367.485834 145.122889 
L 369.117264 144.014979 
L 370.748693 143.302752 
L 372.380123 144.88548 
L 374.011553 144.568934 
L 377.274413 145.835117 
L 378.905843 149.396255 
L 380.537273 149.95021 
L 380.537273 149.95021 
" clip-path="url(#p45165b8aa4)" style="fill: none; stroke: #d62728; stroke-width: 1.5; stroke-linecap: square"/>
   </g>
   <g id="patch_3">
    <path d="M 39.65 273.312 
L 39.65 7.2 
" style="fill: none; stroke: #000000; stroke-width: 0.8; stroke-linejoin: miter; stroke-linecap: square"/>
   </g>
   <g id="patch_4">
    <path d="M 396.77 273.312 
L 396.77 7.2 
" style="fill: none; stroke: #000000; stroke-width: 0.8; stroke-linejoin: miter; stroke-linecap: square"/>
   </g>
   <g id="patch_5">
    <path d="M 39.65 273.312 
L 396.77 273.312 
" style="fill: none; stroke: #000000; stroke-width: 0.8; stroke-linejoin: miter; stroke-linecap: square"/>
   </g>
   <g id="patch_6">
    <path d="M 39.65 7.2 
L 396.77 7.2 
" style="fill: none; stroke: #000000; stroke-width: 0.8; stroke-linejoin: miter; stroke-linecap: square"/>
   </g>
  </g>
 </g>
 <defs>
  <clipPath id="p45165b8aa4">
   <rect x="39.65" y="7.2" width="357.12" height="266.112"/>
  </clipPath>
 </defs>
</svg>
