<?xml version="1.0" encoding="utf-8" standalone="no"?>
<!DOCTYPE svg PUBLIC "-//W3C//DTD SVG 1.1//EN"
  "http://www.w3.org/Graphics/SVG/1.1/DTD/svg11.dtd">
<svg xmlns:xlink="http://www.w3.org/1999/xlink" width="397.6075pt" height="299.851393pt" viewBox="0 0 397.6075 299.851393" xmlns="http://www.w3.org/2000/svg" version="1.1">
 <metadata>
  <rdf:RDF xmlns:dc="http://purl.org/dc/elements/1.1/" xmlns:cc="http://creativecommons.org/ns#" xmlns:rdf="http://www.w3.org/1999/02/22-rdf-syntax-ns#">
   <cc:Work>
    <dc:type rdf:resource="http://purl.org/dc/dcmitype/StillImage"/>
    <dc:date>2024-11-02T02:26:04.938423</dc:date>
    <dc:format>image/svg+xml</dc:format>
    <dc:creator>
     <cc:Agent>
      <dc:title>Matplotlib v3.9.2, https://matplotlib.org/</dc:title>
     </cc:Agent>
    </dc:creator>
   </cc:Work>
  </rdf:RDF>
 </metadata>
 <defs>
  <style type="text/css">*{stroke-linejoin: round; stroke-linecap: butt}</style>
 </defs>
 <g id="figure_1">
  <g id="patch_1">
   <path d="M 0 299.851393 
L 397.6075 299.851393 
L 397.6075 0 
L 0 0 
z
" style="fill: #ffffff"/>
  </g>
  <g id="axes_1">
   <g id="patch_2">
    <path d="M 33.2875 275.973268 
L 390.4075 275.973268 
L 390.4075 9.861268 
L 33.2875 9.861268 
z
" style="fill: #ffffff"/>
   </g>
   <g id="matplotlib.axis_1">
    <g id="xtick_1">
     <g id="line2d_1">
      <defs>
       <path id="ma730f08c74" d="M 0 0 
L 0 3.5 
" style="stroke: #000000; stroke-width: 0.8"/>
      </defs>
      <g>
       <use xlink:href="#ma730f08c74" x="49.520227" y="275.973268" style="stroke: #000000; stroke-width: 0.8"/>
      </g>
     </g>
     <g id="text_1">
      <!-- 0.0 -->
      <g transform="translate(41.568665 290.571705) scale(0.1 -0.1)">
       <defs>
        <path id="DejaVuSans-30" d="M 2034 4250 
Q 1547 4250 1301 3770 
Q 1056 3291 1056 2328 
Q 1056 1369 1301 889 
Q 1547 409 2034 409 
Q 2525 409 2770 889 
Q 3016 1369 3016 2328 
Q 3016 3291 2770 3770 
Q 2525 4250 2034 4250 
z
M 2034 4750 
Q 2819 4750 3233 4129 
Q 3647 3509 3647 2328 
Q 3647 1150 3233 529 
Q 2819 -91 2034 -91 
Q 1250 -91 836 529 
Q 422 1150 422 2328 
Q 422 3509 836 4129 
Q 1250 4750 2034 4750 
z
" transform="scale(0.015625)"/>
        <path id="DejaVuSans-2e" d="M 684 794 
L 1344 794 
L 1344 0 
L 684 0 
L 684 794 
z
" transform="scale(0.015625)"/>
       </defs>
       <use xlink:href="#DejaVuSans-30"/>
       <use xlink:href="#DejaVuSans-2e" x="63.623047"/>
       <use xlink:href="#DejaVuSans-30" x="95.410156"/>
      </g>
     </g>
    </g>
    <g id="xtick_2">
     <g id="line2d_2">
      <g>
       <use xlink:href="#ma730f08c74" x="90.305974" y="275.973268" style="stroke: #000000; stroke-width: 0.8"/>
      </g>
     </g>
     <g id="text_2">
      <!-- 2.5 -->
      <g transform="translate(82.354412 290.571705) scale(0.1 -0.1)">
       <defs>
        <path id="DejaVuSans-32" d="M 1228 531 
L 3431 531 
L 3431 0 
L 469 0 
L 469 531 
Q 828 903 1448 1529 
Q 2069 2156 2228 2338 
Q 2531 2678 2651 2914 
Q 2772 3150 2772 3378 
Q 2772 3750 2511 3984 
Q 2250 4219 1831 4219 
Q 1534 4219 1204 4116 
Q 875 4013 500 3803 
L 500 4441 
Q 881 4594 1212 4672 
Q 1544 4750 1819 4750 
Q 2544 4750 2975 4387 
Q 3406 4025 3406 3419 
Q 3406 3131 3298 2873 
Q 3191 2616 2906 2266 
Q 2828 2175 2409 1742 
Q 1991 1309 1228 531 
z
" transform="scale(0.015625)"/>
        <path id="DejaVuSans-35" d="M 691 4666 
L 3169 4666 
L 3169 4134 
L 1269 4134 
L 1269 2991 
Q 1406 3038 1543 3061 
Q 1681 3084 1819 3084 
Q 2600 3084 3056 2656 
Q 3513 2228 3513 1497 
Q 3513 744 3044 326 
Q 2575 -91 1722 -91 
Q 1428 -91 1123 -41 
Q 819 9 494 109 
L 494 744 
Q 775 591 1075 516 
Q 1375 441 1709 441 
Q 2250 441 2565 725 
Q 2881 1009 2881 1497 
Q 2881 1984 2565 2268 
Q 2250 2553 1709 2553 
Q 1456 2553 1204 2497 
Q 953 2441 691 2322 
L 691 4666 
z
" transform="scale(0.015625)"/>
       </defs>
       <use xlink:href="#DejaVuSans-32"/>
       <use xlink:href="#DejaVuSans-2e" x="63.623047"/>
       <use xlink:href="#DejaVuSans-35" x="95.410156"/>
      </g>
     </g>
    </g>
    <g id="xtick_3">
     <g id="line2d_3">
      <g>
       <use xlink:href="#ma730f08c74" x="131.091721" y="275.973268" style="stroke: #000000; stroke-width: 0.8"/>
      </g>
     </g>
     <g id="text_3">
      <!-- 5.0 -->
      <g transform="translate(123.140159 290.571705) scale(0.1 -0.1)">
       <use xlink:href="#DejaVuSans-35"/>
       <use xlink:href="#DejaVuSans-2e" x="63.623047"/>
       <use xlink:href="#DejaVuSans-30" x="95.410156"/>
      </g>
     </g>
    </g>
    <g id="xtick_4">
     <g id="line2d_4">
      <g>
       <use xlink:href="#ma730f08c74" x="171.877468" y="275.973268" style="stroke: #000000; stroke-width: 0.8"/>
      </g>
     </g>
     <g id="text_4">
      <!-- 7.5 -->
      <g transform="translate(163.925906 290.571705) scale(0.1 -0.1)">
       <defs>
        <path id="DejaVuSans-37" d="M 525 4666 
L 3525 4666 
L 3525 4397 
L 1831 0 
L 1172 0 
L 2766 4134 
L 525 4134 
L 525 4666 
z
" transform="scale(0.015625)"/>
       </defs>
       <use xlink:href="#DejaVuSans-37"/>
       <use xlink:href="#DejaVuSans-2e" x="63.623047"/>
       <use xlink:href="#DejaVuSans-35" x="95.410156"/>
      </g>
     </g>
    </g>
    <g id="xtick_5">
     <g id="line2d_5">
      <g>
       <use xlink:href="#ma730f08c74" x="212.663215" y="275.973268" style="stroke: #000000; stroke-width: 0.8"/>
      </g>
     </g>
     <g id="text_5">
      <!-- 10.0 -->
      <g transform="translate(201.530402 290.571705) scale(0.1 -0.1)">
       <defs>
        <path id="DejaVuSans-31" d="M 794 531 
L 1825 531 
L 1825 4091 
L 703 3866 
L 703 4441 
L 1819 4666 
L 2450 4666 
L 2450 531 
L 3481 531 
L 3481 0 
L 794 0 
L 794 531 
z
" transform="scale(0.015625)"/>
       </defs>
       <use xlink:href="#DejaVuSans-31"/>
       <use xlink:href="#DejaVuSans-30" x="63.623047"/>
       <use xlink:href="#DejaVuSans-2e" x="127.246094"/>
       <use xlink:href="#DejaVuSans-30" x="159.033203"/>
      </g>
     </g>
    </g>
    <g id="xtick_6">
     <g id="line2d_6">
      <g>
       <use xlink:href="#ma730f08c74" x="253.448962" y="275.973268" style="stroke: #000000; stroke-width: 0.8"/>
      </g>
     </g>
     <g id="text_6">
      <!-- 12.5 -->
      <g transform="translate(242.316149 290.571705) scale(0.1 -0.1)">
       <use xlink:href="#DejaVuSans-31"/>
       <use xlink:href="#DejaVuSans-32" x="63.623047"/>
       <use xlink:href="#DejaVuSans-2e" x="127.246094"/>
       <use xlink:href="#DejaVuSans-35" x="159.033203"/>
      </g>
     </g>
    </g>
    <g id="xtick_7">
     <g id="line2d_7">
      <g>
       <use xlink:href="#ma730f08c74" x="294.234709" y="275.973268" style="stroke: #000000; stroke-width: 0.8"/>
      </g>
     </g>
     <g id="text_7">
      <!-- 15.0 -->
      <g transform="translate(283.101896 290.571705) scale(0.1 -0.1)">
       <use xlink:href="#DejaVuSans-31"/>
       <use xlink:href="#DejaVuSans-35" x="63.623047"/>
       <use xlink:href="#DejaVuSans-2e" x="127.246094"/>
       <use xlink:href="#DejaVuSans-30" x="159.033203"/>
      </g>
     </g>
    </g>
    <g id="xtick_8">
     <g id="line2d_8">
      <g>
       <use xlink:href="#ma730f08c74" x="335.020456" y="275.973268" style="stroke: #000000; stroke-width: 0.8"/>
      </g>
     </g>
     <g id="text_8">
      <!-- 17.5 -->
      <g transform="translate(323.887643 290.571705) scale(0.1 -0.1)">
       <use xlink:href="#DejaVuSans-31"/>
       <use xlink:href="#DejaVuSans-37" x="63.623047"/>
       <use xlink:href="#DejaVuSans-2e" x="127.246094"/>
       <use xlink:href="#DejaVuSans-35" x="159.033203"/>
      </g>
     </g>
    </g>
    <g id="xtick_9">
     <g id="line2d_9">
      <g>
       <use xlink:href="#ma730f08c74" x="375.806203" y="275.973268" style="stroke: #000000; stroke-width: 0.8"/>
      </g>
     </g>
     <g id="text_9">
      <!-- 20.0 -->
      <g transform="translate(364.67339 290.571705) scale(0.1 -0.1)">
       <use xlink:href="#DejaVuSans-32"/>
       <use xlink:href="#DejaVuSans-30" x="63.623047"/>
       <use xlink:href="#DejaVuSans-2e" x="127.246094"/>
       <use xlink:href="#DejaVuSans-30" x="159.033203"/>
      </g>
     </g>
    </g>
   </g>
   <g id="matplotlib.axis_2">
    <g id="ytick_1">
     <g id="line2d_10">
      <defs>
       <path id="ma268fc2bea" d="M 0 0 
L -3.5 0 
" style="stroke: #000000; stroke-width: 0.8"/>
      </defs>
      <g>
       <use xlink:href="#ma268fc2bea" x="33.2875" y="263.877268" style="stroke: #000000; stroke-width: 0.8"/>
      </g>
     </g>
     <g id="text_10">
      <!-- 0 -->
      <g transform="translate(19.925 267.676486) scale(0.1 -0.1)">
       <use xlink:href="#DejaVuSans-30"/>
      </g>
     </g>
    </g>
    <g id="ytick_2">
     <g id="line2d_11">
      <g>
       <use xlink:href="#ma268fc2bea" x="33.2875" y="221.730926" style="stroke: #000000; stroke-width: 0.8"/>
      </g>
     </g>
     <g id="text_11">
      <!-- 50 -->
      <g transform="translate(13.5625 225.530145) scale(0.1 -0.1)">
       <use xlink:href="#DejaVuSans-35"/>
       <use xlink:href="#DejaVuSans-30" x="63.623047"/>
      </g>
     </g>
    </g>
    <g id="ytick_3">
     <g id="line2d_12">
      <g>
       <use xlink:href="#ma268fc2bea" x="33.2875" y="179.584585" style="stroke: #000000; stroke-width: 0.8"/>
      </g>
     </g>
     <g id="text_12">
      <!-- 100 -->
      <g transform="translate(7.2 183.383803) scale(0.1 -0.1)">
       <use xlink:href="#DejaVuSans-31"/>
       <use xlink:href="#DejaVuSans-30" x="63.623047"/>
       <use xlink:href="#DejaVuSans-30" x="127.246094"/>
      </g>
     </g>
    </g>
    <g id="ytick_4">
     <g id="line2d_13">
      <g>
       <use xlink:href="#ma268fc2bea" x="33.2875" y="137.438243" style="stroke: #000000; stroke-width: 0.8"/>
      </g>
     </g>
     <g id="text_13">
      <!-- 150 -->
      <g transform="translate(7.2 141.237462) scale(0.1 -0.1)">
       <use xlink:href="#DejaVuSans-31"/>
       <use xlink:href="#DejaVuSans-35" x="63.623047"/>
       <use xlink:href="#DejaVuSans-30" x="127.246094"/>
      </g>
     </g>
    </g>
    <g id="ytick_5">
     <g id="line2d_14">
      <g>
       <use xlink:href="#ma268fc2bea" x="33.2875" y="95.291902" style="stroke: #000000; stroke-width: 0.8"/>
      </g>
     </g>
     <g id="text_14">
      <!-- 200 -->
      <g transform="translate(7.2 99.09112) scale(0.1 -0.1)">
       <use xlink:href="#DejaVuSans-32"/>
       <use xlink:href="#DejaVuSans-30" x="63.623047"/>
       <use xlink:href="#DejaVuSans-30" x="127.246094"/>
      </g>
     </g>
    </g>
    <g id="ytick_6">
     <g id="line2d_15">
      <g>
       <use xlink:href="#ma268fc2bea" x="33.2875" y="53.14556" style="stroke: #000000; stroke-width: 0.8"/>
      </g>
     </g>
     <g id="text_15">
      <!-- 250 -->
      <g transform="translate(7.2 56.944779) scale(0.1 -0.1)">
       <use xlink:href="#DejaVuSans-32"/>
       <use xlink:href="#DejaVuSans-35" x="63.623047"/>
       <use xlink:href="#DejaVuSans-30" x="127.246094"/>
      </g>
     </g>
    </g>
    <g id="ytick_7">
     <g id="line2d_16">
      <g>
       <use xlink:href="#ma268fc2bea" x="33.2875" y="10.999219" style="stroke: #000000; stroke-width: 0.8"/>
      </g>
     </g>
     <g id="text_16">
      <!-- 300 -->
      <g transform="translate(7.2 14.798438) scale(0.1 -0.1)">
       <defs>
        <path id="DejaVuSans-33" d="M 2597 2516 
Q 3050 2419 3304 2112 
Q 3559 1806 3559 1356 
Q 3559 666 3084 287 
Q 2609 -91 1734 -91 
Q 1441 -91 1130 -33 
Q 819 25 488 141 
L 488 750 
Q 750 597 1062 519 
Q 1375 441 1716 441 
Q 2309 441 2620 675 
Q 2931 909 2931 1356 
Q 2931 1769 2642 2001 
Q 2353 2234 1838 2234 
L 1294 2234 
L 1294 2753 
L 1863 2753 
Q 2328 2753 2575 2939 
Q 2822 3125 2822 3475 
Q 2822 3834 2567 4026 
Q 2313 4219 1838 4219 
Q 1578 4219 1281 4162 
Q 984 4106 628 3988 
L 628 4550 
Q 988 4650 1302 4700 
Q 1616 4750 1894 4750 
Q 2613 4750 3031 4423 
Q 3450 4097 3450 3541 
Q 3450 3153 3228 2886 
Q 3006 2619 2597 2516 
z
" transform="scale(0.015625)"/>
       </defs>
       <use xlink:href="#DejaVuSans-33"/>
       <use xlink:href="#DejaVuSans-30" x="63.623047"/>
       <use xlink:href="#DejaVuSans-30" x="127.246094"/>
      </g>
     </g>
    </g>
   </g>
   <g id="line2d_17">
    <path d="M 49.520227 263.877268 
L 51.151657 194.757268 
L 52.783087 152.610926 
L 54.414517 134.066536 
L 56.045947 98.663609 
L 57.677377 68.318243 
L 60.940236 41.344585 
L 62.571666 48.930926 
L 64.203096 45.559219 
L 65.834526 36.287024 
L 67.465956 36.287024 
L 70.728816 44.716292 
L 72.360246 43.873365 
L 73.991675 44.716292 
L 75.623105 37.972877 
L 77.254535 32.915316 
L 78.885965 39.658731 
L 80.517395 31.229463 
L 82.148825 25.328975 
L 83.780255 25.328975 
L 85.411685 37.972877 
L 87.043114 31.229463 
L 88.674544 56.517268 
L 90.305974 43.873365 
L 91.937404 65.789463 
L 93.568834 64.946536 
L 96.831694 56.517268 
L 98.463124 59.888975 
L 100.094553 61.574829 
L 101.725983 47.245072 
L 103.357413 43.030438 
L 104.988843 55.674341 
L 106.620273 57.360194 
L 108.251703 64.103609 
L 109.883133 56.517268 
L 111.514563 49.773853 
L 113.145992 38.815804 
L 114.777422 43.030438 
L 116.408852 44.716292 
L 118.040282 59.046048 
L 119.671712 55.674341 
L 121.303142 48.930926 
L 122.934572 46.402146 
L 124.566002 50.61678 
L 126.197431 57.360194 
L 127.828861 68.318243 
L 129.460291 69.16117 
L 131.091721 71.68995 
L 132.723151 71.68995 
L 134.354581 70.004097 
L 135.986011 63.260682 
L 137.617441 49.773853 
L 139.24887 49.773853 
L 140.8803 47.245072 
L 142.51173 48.087999 
L 144.14316 53.988487 
L 145.77459 64.946536 
L 147.40602 53.14556 
L 149.03745 59.046048 
L 150.66888 73.375804 
L 152.30031 57.360194 
L 153.931739 55.674341 
L 155.563169 59.888975 
L 157.194599 59.888975 
L 158.826029 59.046048 
L 160.457459 55.674341 
L 162.088889 63.260682 
L 163.720319 61.574829 
L 165.351749 64.103609 
L 166.983178 65.789463 
L 168.614608 62.417755 
L 170.246038 67.475316 
L 171.877468 68.318243 
L 173.508898 45.559219 
L 175.140328 64.103609 
L 176.771758 63.260682 
L 178.403188 53.988487 
L 180.034617 47.245072 
L 181.666047 44.716292 
L 183.297477 47.245072 
L 184.928907 45.559219 
L 186.560337 50.61678 
L 188.191767 57.360194 
L 189.823197 55.674341 
L 191.454627 49.773853 
L 193.086056 59.888975 
L 196.348916 53.14556 
L 197.980346 64.103609 
L 199.611776 60.731902 
L 201.243206 55.674341 
L 202.874636 42.187511 
L 204.506066 50.61678 
L 206.137495 59.888975 
L 209.400355 49.773853 
L 211.031785 41.344585 
L 212.663215 37.972877 
L 214.294645 43.030438 
L 215.926075 43.873365 
L 217.557505 52.302633 
L 219.188934 50.61678 
L 220.820364 45.559219 
L 222.451794 47.245072 
L 224.083224 41.344585 
L 225.714654 56.517268 
L 227.346084 55.674341 
L 228.977514 63.260682 
L 230.608944 62.417755 
L 232.240373 54.831414 
L 235.503233 53.14556 
L 237.134663 48.087999 
L 238.766093 45.559219 
L 240.397523 44.716292 
L 242.028953 45.559219 
L 243.660383 48.087999 
L 245.291812 45.559219 
L 246.923242 36.287024 
L 248.554672 33.758243 
L 250.186102 35.444097 
L 251.817532 39.658731 
L 253.448962 44.716292 
L 255.080392 42.187511 
L 256.711822 42.187511 
L 258.343251 54.831414 
L 259.974681 48.087999 
L 261.606111 52.302633 
L 263.237541 61.574829 
L 264.868971 56.517268 
L 266.500401 54.831414 
L 268.131831 54.831414 
L 269.763261 51.459707 
L 271.39469 38.815804 
L 273.02612 42.187511 
L 274.65755 36.287024 
L 276.28898 33.758243 
L 277.92041 46.402146 
L 279.55184 57.360194 
L 281.18327 70.847024 
L 282.8147 70.004097 
L 284.44613 63.260682 
L 286.077559 53.14556 
L 287.708989 60.731902 
L 289.340419 47.245072 
L 290.971849 57.360194 
L 292.603279 55.674341 
L 294.234709 50.61678 
L 295.866139 54.831414 
L 297.497569 59.888975 
L 299.128998 60.731902 
L 300.760428 45.559219 
L 302.391858 38.815804 
L 304.023288 45.559219 
L 305.654718 48.930926 
L 307.286148 48.087999 
L 308.917578 48.087999 
L 310.549008 50.61678 
L 312.180437 48.930926 
L 313.811867 53.14556 
L 315.443297 32.915316 
L 317.074727 49.773853 
L 318.706157 51.459707 
L 320.337587 54.831414 
L 321.969017 53.14556 
L 323.600447 63.260682 
L 325.231876 61.574829 
L 326.863306 65.789463 
L 328.494736 64.103609 
L 330.126166 67.475316 
L 331.757596 74.218731 
L 333.389026 69.16117 
L 335.020456 59.888975 
L 336.651886 68.318243 
L 338.283315 67.475316 
L 339.914745 62.417755 
L 341.546175 61.574829 
L 343.177605 59.888975 
L 344.809035 48.087999 
L 346.440465 64.103609 
L 348.071895 48.087999 
L 349.703325 57.360194 
L 351.334754 57.360194 
L 352.966184 46.402146 
L 354.597614 47.245072 
L 356.229044 52.302633 
L 359.491904 52.302633 
L 361.123334 48.930926 
L 362.754764 37.12995 
L 364.386193 50.61678 
L 366.017623 51.459707 
L 367.649053 43.030438 
L 369.280483 37.12995 
L 370.911913 41.344585 
L 372.543343 52.302633 
L 374.174773 48.930926 
L 374.174773 48.930926 
" clip-path="url(#p34bba8abad)" style="fill: none; stroke: #1f77b4; stroke-width: 1.5; stroke-linecap: square"/>
   </g>
   <g id="line2d_18">
    <path d="M 49.520227 263.877268 
L 51.151657 251.233365 
L 52.783087 217.516292 
L 54.414517 172.84117 
L 56.045947 161.883121 
L 57.677377 155.982633 
L 59.308807 135.752389 
L 60.940236 121.422633 
L 62.571666 96.134829 
L 64.203096 86.862633 
L 65.834526 90.234341 
L 69.097386 59.046048 
L 70.728816 64.946536 
L 72.360246 47.245072 
L 75.623105 50.61678 
L 77.254535 50.61678 
L 78.885965 44.716292 
L 80.517395 32.915316 
L 82.148825 40.501658 
L 83.780255 49.773853 
L 85.411685 44.716292 
L 87.043114 47.245072 
L 88.674544 21.957268 
L 90.305974 46.402146 
L 91.937404 31.229463 
L 93.568834 34.60117 
L 95.200264 41.344585 
L 96.831694 41.344585 
L 98.463124 55.674341 
L 100.094553 50.61678 
L 101.725983 64.103609 
L 103.357413 69.16117 
L 104.988843 54.831414 
L 106.620273 53.988487 
L 108.251703 35.444097 
L 109.883133 45.559219 
L 111.514563 46.402146 
L 113.145992 55.674341 
L 114.777422 61.574829 
L 116.408852 50.61678 
L 118.040282 35.444097 
L 119.671712 42.187511 
L 121.303142 54.831414 
L 122.934572 59.888975 
L 126.197431 46.402146 
L 127.828861 40.501658 
L 129.460291 37.972877 
L 131.091721 32.915316 
L 132.723151 33.758243 
L 134.354581 44.716292 
L 135.986011 49.773853 
L 137.617441 64.103609 
L 139.24887 59.888975 
L 140.8803 46.402146 
L 142.51173 53.988487 
L 144.14316 53.14556 
L 145.77459 61.574829 
L 147.40602 61.574829 
L 149.03745 62.417755 
L 150.66888 60.731902 
L 152.30031 75.061658 
L 153.931739 72.532877 
L 155.563169 59.888975 
L 157.194599 61.574829 
L 158.826029 61.574829 
L 160.457459 60.731902 
L 162.088889 35.444097 
L 163.720319 37.972877 
L 165.351749 41.344585 
L 166.983178 49.773853 
L 168.614608 63.260682 
L 170.246038 65.789463 
L 171.877468 70.004097 
L 173.508898 91.920194 
L 175.140328 70.004097 
L 176.771758 54.831414 
L 178.403188 58.203121 
L 180.034617 71.68995 
L 181.666047 71.68995 
L 183.297477 61.574829 
L 184.928907 55.674341 
L 186.560337 63.260682 
L 188.191767 56.517268 
L 189.823197 77.590438 
L 191.454627 66.632389 
L 193.086056 54.831414 
L 194.717486 57.360194 
L 196.348916 57.360194 
L 197.980346 55.674341 
L 199.611776 53.14556 
L 201.243206 64.103609 
L 202.874636 59.888975 
L 204.506066 52.302633 
L 206.137495 58.203121 
L 207.768925 60.731902 
L 209.400355 65.789463 
L 211.031785 75.904585 
L 212.663215 76.747511 
L 214.294645 60.731902 
L 215.926075 63.260682 
L 217.557505 59.888975 
L 219.188934 50.61678 
L 220.820364 53.988487 
L 222.451794 44.716292 
L 224.083224 60.731902 
L 225.714654 57.360194 
L 227.346084 60.731902 
L 228.977514 47.245072 
L 230.608944 52.302633 
L 232.240373 55.674341 
L 233.871803 60.731902 
L 235.503233 70.847024 
L 240.397523 60.731902 
L 242.028953 45.559219 
L 243.660383 33.758243 
L 245.291812 49.773853 
L 246.923242 52.302633 
L 248.554672 55.674341 
L 250.186102 53.988487 
L 251.817532 57.360194 
L 253.448962 49.773853 
L 255.080392 50.61678 
L 256.711822 50.61678 
L 258.343251 38.815804 
L 259.974681 32.915316 
L 261.606111 33.758243 
L 263.237541 37.12995 
L 264.868971 49.773853 
L 266.500401 51.459707 
L 268.131831 57.360194 
L 271.39469 62.417755 
L 273.02612 46.402146 
L 274.65755 61.574829 
L 276.28898 56.517268 
L 277.92041 48.087999 
L 279.55184 32.915316 
L 281.18327 30.386536 
L 282.8147 59.888975 
L 284.44613 64.946536 
L 286.077559 63.260682 
L 287.708989 57.360194 
L 289.340419 61.574829 
L 290.971849 45.559219 
L 292.603279 48.087999 
L 294.234709 65.789463 
L 295.866139 67.475316 
L 297.497569 48.930926 
L 299.128998 57.360194 
L 300.760428 56.517268 
L 302.391858 53.14556 
L 304.023288 46.402146 
L 305.654718 32.915316 
L 307.286148 44.716292 
L 308.917578 50.61678 
L 310.549008 40.501658 
L 312.180437 49.773853 
L 313.811867 45.559219 
L 315.443297 49.773853 
L 317.074727 43.873365 
L 318.706157 36.287024 
L 320.337587 43.873365 
L 321.969017 53.988487 
L 323.600447 33.758243 
L 325.231876 39.658731 
L 326.863306 47.245072 
L 328.494736 52.302633 
L 330.126166 54.831414 
L 331.757596 42.187511 
L 333.389026 51.459707 
L 335.020456 61.574829 
L 336.651886 42.187511 
L 338.283315 52.302633 
L 339.914745 55.674341 
L 341.546175 48.087999 
L 343.177605 51.459707 
L 344.809035 51.459707 
L 346.440465 43.030438 
L 348.071895 62.417755 
L 349.703325 47.245072 
L 351.334754 42.187511 
L 352.966184 57.360194 
L 354.597614 63.260682 
L 356.229044 51.459707 
L 357.860474 49.773853 
L 359.491904 49.773853 
L 361.123334 55.674341 
L 362.754764 67.475316 
L 364.386193 59.046048 
L 366.017623 51.459707 
L 367.649053 60.731902 
L 369.280483 85.17678 
L 370.911913 72.532877 
L 372.543343 50.61678 
L 374.174773 48.930926 
L 374.174773 48.930926 
" clip-path="url(#p34bba8abad)" style="fill: none; stroke: #ff7f0e; stroke-width: 1.5; stroke-linecap: square"/>
   </g>
   <g id="patch_3">
    <path d="M 33.2875 275.973268 
L 33.2875 9.861268 
" style="fill: none; stroke: #000000; stroke-width: 0.8; stroke-linejoin: miter; stroke-linecap: square"/>
   </g>
   <g id="patch_4">
    <path d="M 390.4075 275.973268 
L 390.4075 9.861268 
" style="fill: none; stroke: #000000; stroke-width: 0.8; stroke-linejoin: miter; stroke-linecap: square"/>
   </g>
   <g id="patch_5">
    <path d="M 33.2875 275.973268 
L 390.4075 275.973268 
" style="fill: none; stroke: #000000; stroke-width: 0.8; stroke-linejoin: miter; stroke-linecap: square"/>
   </g>
   <g id="patch_6">
    <path d="M 33.2875 9.861268 
L 390.4075 9.861268 
" style="fill: none; stroke: #000000; stroke-width: 0.8; stroke-linejoin: miter; stroke-linecap: square"/>
   </g>
  </g>
 </g>
 <defs>
  <clipPath id="p34bba8abad">
   <rect x="33.2875" y="9.861268" width="357.12" height="266.112"/>
  </clipPath>
 </defs>
</svg>
