<?xml version="1.0" encoding="utf-8" standalone="no"?>
<!DOCTYPE svg PUBLIC "-//W3C//DTD SVG 1.1//EN"
  "http://www.w3.org/Graphics/SVG/1.1/DTD/svg11.dtd">
<svg xmlns:xlink="http://www.w3.org/1999/xlink" width="403.97pt" height="297.190125pt" viewBox="0 0 403.97 297.190125" xmlns="http://www.w3.org/2000/svg" version="1.1">
 <metadata>
  <rdf:RDF xmlns:dc="http://purl.org/dc/elements/1.1/" xmlns:cc="http://creativecommons.org/ns#" xmlns:rdf="http://www.w3.org/1999/02/22-rdf-syntax-ns#">
   <cc:Work>
    <dc:type rdf:resource="http://purl.org/dc/dcmitype/StillImage"/>
    <dc:date>2025-06-04T05:38:33.484111</dc:date>
    <dc:format>image/svg+xml</dc:format>
    <dc:creator>
     <cc:Agent>
      <dc:title>Matplotlib v3.10.3, https://matplotlib.org/</dc:title>
     </cc:Agent>
    </dc:creator>
   </cc:Work>
  </rdf:RDF>
 </metadata>
 <defs>
  <style type="text/css">*{stroke-linejoin: round; stroke-linecap: butt}</style>
 </defs>
 <g id="figure_1">
  <g id="patch_1">
   <path d="M 0 297.190125 
L 403.97 297.190125 
L 403.97 0 
L 0 0 
z
" style="fill: #ffffff"/>
  </g>
  <g id="axes_1">
   <g id="patch_2">
    <path d="M 39.65 273.312 
L 396.77 273.312 
L 396.77 7.2 
L 39.65 7.2 
z
" style="fill: #ffffff"/>
   </g>
   <g id="matplotlib.axis_1">
    <g id="xtick_1">
     <g id="line2d_1">
      <defs>
       <path id="mc964101289" d="M 0 0 
L 0 3.5 
" style="stroke: #000000; stroke-width: 0.8"/>
      </defs>
      <g>
       <use xlink:href="#mc964101289" x="55.882727" y="273.312" style="stroke: #000000; stroke-width: 0.8"/>
      </g>
     </g>
     <g id="text_1">
      <!-- 0.0 -->
      <g transform="translate(47.931165 287.910437) scale(0.1 -0.1)">
       <defs>
        <path id="DejaVuSans-30" d="M 2034 4250 
Q 1547 4250 1301 3770 
Q 1056 3291 1056 2328 
Q 1056 1369 1301 889 
Q 1547 409 2034 409 
Q 2525 409 2770 889 
Q 3016 1369 3016 2328 
Q 3016 3291 2770 3770 
Q 2525 4250 2034 4250 
z
M 2034 4750 
Q 2819 4750 3233 4129 
Q 3647 3509 3647 2328 
Q 3647 1150 3233 529 
Q 2819 -91 2034 -91 
Q 1250 -91 836 529 
Q 422 1150 422 2328 
Q 422 3509 836 4129 
Q 1250 4750 2034 4750 
z
" transform="scale(0.015625)"/>
        <path id="DejaVuSans-2e" d="M 684 794 
L 1344 794 
L 1344 0 
L 684 0 
L 684 794 
z
" transform="scale(0.015625)"/>
       </defs>
       <use xlink:href="#DejaVuSans-30"/>
       <use xlink:href="#DejaVuSans-2e" transform="translate(63.623047 0)"/>
       <use xlink:href="#DejaVuSans-30" transform="translate(95.410156 0)"/>
      </g>
     </g>
    </g>
    <g id="xtick_2">
     <g id="line2d_2">
      <g>
       <use xlink:href="#mc964101289" x="96.668474" y="273.312" style="stroke: #000000; stroke-width: 0.8"/>
      </g>
     </g>
     <g id="text_2">
      <!-- 2.5 -->
      <g transform="translate(88.716912 287.910437) scale(0.1 -0.1)">
       <defs>
        <path id="DejaVuSans-32" d="M 1228 531 
L 3431 531 
L 3431 0 
L 469 0 
L 469 531 
Q 828 903 1448 1529 
Q 2069 2156 2228 2338 
Q 2531 2678 2651 2914 
Q 2772 3150 2772 3378 
Q 2772 3750 2511 3984 
Q 2250 4219 1831 4219 
Q 1534 4219 1204 4116 
Q 875 4013 500 3803 
L 500 4441 
Q 881 4594 1212 4672 
Q 1544 4750 1819 4750 
Q 2544 4750 2975 4387 
Q 3406 4025 3406 3419 
Q 3406 3131 3298 2873 
Q 3191 2616 2906 2266 
Q 2828 2175 2409 1742 
Q 1991 1309 1228 531 
z
" transform="scale(0.015625)"/>
        <path id="DejaVuSans-35" d="M 691 4666 
L 3169 4666 
L 3169 4134 
L 1269 4134 
L 1269 2991 
Q 1406 3038 1543 3061 
Q 1681 3084 1819 3084 
Q 2600 3084 3056 2656 
Q 3513 2228 3513 1497 
Q 3513 744 3044 326 
Q 2575 -91 1722 -91 
Q 1428 -91 1123 -41 
Q 819 9 494 109 
L 494 744 
Q 775 591 1075 516 
Q 1375 441 1709 441 
Q 2250 441 2565 725 
Q 2881 1009 2881 1497 
Q 2881 1984 2565 2268 
Q 2250 2553 1709 2553 
Q 1456 2553 1204 2497 
Q 953 2441 691 2322 
L 691 4666 
z
" transform="scale(0.015625)"/>
       </defs>
       <use xlink:href="#DejaVuSans-32"/>
       <use xlink:href="#DejaVuSans-2e" transform="translate(63.623047 0)"/>
       <use xlink:href="#DejaVuSans-35" transform="translate(95.410156 0)"/>
      </g>
     </g>
    </g>
    <g id="xtick_3">
     <g id="line2d_3">
      <g>
       <use xlink:href="#mc964101289" x="137.454221" y="273.312" style="stroke: #000000; stroke-width: 0.8"/>
      </g>
     </g>
     <g id="text_3">
      <!-- 5.0 -->
      <g transform="translate(129.502659 287.910437) scale(0.1 -0.1)">
       <use xlink:href="#DejaVuSans-35"/>
       <use xlink:href="#DejaVuSans-2e" transform="translate(63.623047 0)"/>
       <use xlink:href="#DejaVuSans-30" transform="translate(95.410156 0)"/>
      </g>
     </g>
    </g>
    <g id="xtick_4">
     <g id="line2d_4">
      <g>
       <use xlink:href="#mc964101289" x="178.239968" y="273.312" style="stroke: #000000; stroke-width: 0.8"/>
      </g>
     </g>
     <g id="text_4">
      <!-- 7.5 -->
      <g transform="translate(170.288406 287.910437) scale(0.1 -0.1)">
       <defs>
        <path id="DejaVuSans-37" d="M 525 4666 
L 3525 4666 
L 3525 4397 
L 1831 0 
L 1172 0 
L 2766 4134 
L 525 4134 
L 525 4666 
z
" transform="scale(0.015625)"/>
       </defs>
       <use xlink:href="#DejaVuSans-37"/>
       <use xlink:href="#DejaVuSans-2e" transform="translate(63.623047 0)"/>
       <use xlink:href="#DejaVuSans-35" transform="translate(95.410156 0)"/>
      </g>
     </g>
    </g>
    <g id="xtick_5">
     <g id="line2d_5">
      <g>
       <use xlink:href="#mc964101289" x="219.025715" y="273.312" style="stroke: #000000; stroke-width: 0.8"/>
      </g>
     </g>
     <g id="text_5">
      <!-- 10.0 -->
      <g transform="translate(207.892902 287.910437) scale(0.1 -0.1)">
       <defs>
        <path id="DejaVuSans-31" d="M 794 531 
L 1825 531 
L 1825 4091 
L 703 3866 
L 703 4441 
L 1819 4666 
L 2450 4666 
L 2450 531 
L 3481 531 
L 3481 0 
L 794 0 
L 794 531 
z
" transform="scale(0.015625)"/>
       </defs>
       <use xlink:href="#DejaVuSans-31"/>
       <use xlink:href="#DejaVuSans-30" transform="translate(63.623047 0)"/>
       <use xlink:href="#DejaVuSans-2e" transform="translate(127.246094 0)"/>
       <use xlink:href="#DejaVuSans-30" transform="translate(159.033203 0)"/>
      </g>
     </g>
    </g>
    <g id="xtick_6">
     <g id="line2d_6">
      <g>
       <use xlink:href="#mc964101289" x="259.811462" y="273.312" style="stroke: #000000; stroke-width: 0.8"/>
      </g>
     </g>
     <g id="text_6">
      <!-- 12.5 -->
      <g transform="translate(248.678649 287.910437) scale(0.1 -0.1)">
       <use xlink:href="#DejaVuSans-31"/>
       <use xlink:href="#DejaVuSans-32" transform="translate(63.623047 0)"/>
       <use xlink:href="#DejaVuSans-2e" transform="translate(127.246094 0)"/>
       <use xlink:href="#DejaVuSans-35" transform="translate(159.033203 0)"/>
      </g>
     </g>
    </g>
    <g id="xtick_7">
     <g id="line2d_7">
      <g>
       <use xlink:href="#mc964101289" x="300.597209" y="273.312" style="stroke: #000000; stroke-width: 0.8"/>
      </g>
     </g>
     <g id="text_7">
      <!-- 15.0 -->
      <g transform="translate(289.464396 287.910437) scale(0.1 -0.1)">
       <use xlink:href="#DejaVuSans-31"/>
       <use xlink:href="#DejaVuSans-35" transform="translate(63.623047 0)"/>
       <use xlink:href="#DejaVuSans-2e" transform="translate(127.246094 0)"/>
       <use xlink:href="#DejaVuSans-30" transform="translate(159.033203 0)"/>
      </g>
     </g>
    </g>
    <g id="xtick_8">
     <g id="line2d_8">
      <g>
       <use xlink:href="#mc964101289" x="341.382956" y="273.312" style="stroke: #000000; stroke-width: 0.8"/>
      </g>
     </g>
     <g id="text_8">
      <!-- 17.5 -->
      <g transform="translate(330.250143 287.910437) scale(0.1 -0.1)">
       <use xlink:href="#DejaVuSans-31"/>
       <use xlink:href="#DejaVuSans-37" transform="translate(63.623047 0)"/>
       <use xlink:href="#DejaVuSans-2e" transform="translate(127.246094 0)"/>
       <use xlink:href="#DejaVuSans-35" transform="translate(159.033203 0)"/>
      </g>
     </g>
    </g>
    <g id="xtick_9">
     <g id="line2d_9">
      <g>
       <use xlink:href="#mc964101289" x="382.168703" y="273.312" style="stroke: #000000; stroke-width: 0.8"/>
      </g>
     </g>
     <g id="text_9">
      <!-- 20.0 -->
      <g transform="translate(371.03589 287.910437) scale(0.1 -0.1)">
       <use xlink:href="#DejaVuSans-32"/>
       <use xlink:href="#DejaVuSans-30" transform="translate(63.623047 0)"/>
       <use xlink:href="#DejaVuSans-2e" transform="translate(127.246094 0)"/>
       <use xlink:href="#DejaVuSans-30" transform="translate(159.033203 0)"/>
      </g>
     </g>
    </g>
   </g>
   <g id="matplotlib.axis_2">
    <g id="ytick_1">
     <g id="line2d_10">
      <defs>
       <path id="m28a1b0c3ca" d="M 0 0 
L -3.5 0 
" style="stroke: #000000; stroke-width: 0.8"/>
      </defs>
      <g>
       <use xlink:href="#m28a1b0c3ca" x="39.65" y="261.216" style="stroke: #000000; stroke-width: 0.8"/>
      </g>
     </g>
     <g id="text_10">
      <!-- 0 -->
      <g transform="translate(26.2875 265.015219) scale(0.1 -0.1)">
       <use xlink:href="#DejaVuSans-30"/>
      </g>
     </g>
    </g>
    <g id="ytick_2">
     <g id="line2d_11">
      <g>
       <use xlink:href="#m28a1b0c3ca" x="39.65" y="221.968758" style="stroke: #000000; stroke-width: 0.8"/>
      </g>
     </g>
     <g id="text_11">
      <!-- 500 -->
      <g transform="translate(13.5625 225.767977) scale(0.1 -0.1)">
       <use xlink:href="#DejaVuSans-35"/>
       <use xlink:href="#DejaVuSans-30" transform="translate(63.623047 0)"/>
       <use xlink:href="#DejaVuSans-30" transform="translate(127.246094 0)"/>
      </g>
     </g>
    </g>
    <g id="ytick_3">
     <g id="line2d_12">
      <g>
       <use xlink:href="#m28a1b0c3ca" x="39.65" y="182.721516" style="stroke: #000000; stroke-width: 0.8"/>
      </g>
     </g>
     <g id="text_12">
      <!-- 1000 -->
      <g transform="translate(7.2 186.520735) scale(0.1 -0.1)">
       <use xlink:href="#DejaVuSans-31"/>
       <use xlink:href="#DejaVuSans-30" transform="translate(63.623047 0)"/>
       <use xlink:href="#DejaVuSans-30" transform="translate(127.246094 0)"/>
       <use xlink:href="#DejaVuSans-30" transform="translate(190.869141 0)"/>
      </g>
     </g>
    </g>
    <g id="ytick_4">
     <g id="line2d_13">
      <g>
       <use xlink:href="#m28a1b0c3ca" x="39.65" y="143.474274" style="stroke: #000000; stroke-width: 0.8"/>
      </g>
     </g>
     <g id="text_13">
      <!-- 1500 -->
      <g transform="translate(7.2 147.273493) scale(0.1 -0.1)">
       <use xlink:href="#DejaVuSans-31"/>
       <use xlink:href="#DejaVuSans-35" transform="translate(63.623047 0)"/>
       <use xlink:href="#DejaVuSans-30" transform="translate(127.246094 0)"/>
       <use xlink:href="#DejaVuSans-30" transform="translate(190.869141 0)"/>
      </g>
     </g>
    </g>
    <g id="ytick_5">
     <g id="line2d_14">
      <g>
       <use xlink:href="#m28a1b0c3ca" x="39.65" y="104.227032" style="stroke: #000000; stroke-width: 0.8"/>
      </g>
     </g>
     <g id="text_14">
      <!-- 2000 -->
      <g transform="translate(7.2 108.026251) scale(0.1 -0.1)">
       <use xlink:href="#DejaVuSans-32"/>
       <use xlink:href="#DejaVuSans-30" transform="translate(63.623047 0)"/>
       <use xlink:href="#DejaVuSans-30" transform="translate(127.246094 0)"/>
       <use xlink:href="#DejaVuSans-30" transform="translate(190.869141 0)"/>
      </g>
     </g>
    </g>
    <g id="ytick_6">
     <g id="line2d_15">
      <g>
       <use xlink:href="#m28a1b0c3ca" x="39.65" y="64.97979" style="stroke: #000000; stroke-width: 0.8"/>
      </g>
     </g>
     <g id="text_15">
      <!-- 2500 -->
      <g transform="translate(7.2 68.779008) scale(0.1 -0.1)">
       <use xlink:href="#DejaVuSans-32"/>
       <use xlink:href="#DejaVuSans-35" transform="translate(63.623047 0)"/>
       <use xlink:href="#DejaVuSans-30" transform="translate(127.246094 0)"/>
       <use xlink:href="#DejaVuSans-30" transform="translate(190.869141 0)"/>
      </g>
     </g>
    </g>
    <g id="ytick_7">
     <g id="line2d_16">
      <g>
       <use xlink:href="#m28a1b0c3ca" x="39.65" y="25.732548" style="stroke: #000000; stroke-width: 0.8"/>
      </g>
     </g>
     <g id="text_16">
      <!-- 3000 -->
      <g transform="translate(7.2 29.531766) scale(0.1 -0.1)">
       <defs>
        <path id="DejaVuSans-33" d="M 2597 2516 
Q 3050 2419 3304 2112 
Q 3559 1806 3559 1356 
Q 3559 666 3084 287 
Q 2609 -91 1734 -91 
Q 1441 -91 1130 -33 
Q 819 25 488 141 
L 488 750 
Q 750 597 1062 519 
Q 1375 441 1716 441 
Q 2309 441 2620 675 
Q 2931 909 2931 1356 
Q 2931 1769 2642 2001 
Q 2353 2234 1838 2234 
L 1294 2234 
L 1294 2753 
L 1863 2753 
Q 2328 2753 2575 2939 
Q 2822 3125 2822 3475 
Q 2822 3834 2567 4026 
Q 2313 4219 1838 4219 
Q 1578 4219 1281 4162 
Q 984 4106 628 3988 
L 628 4550 
Q 988 4650 1302 4700 
Q 1616 4750 1894 4750 
Q 2613 4750 3031 4423 
Q 3450 4097 3450 3541 
Q 3450 3153 3228 2886 
Q 3006 2619 2597 2516 
z
" transform="scale(0.015625)"/>
       </defs>
       <use xlink:href="#DejaVuSans-33"/>
       <use xlink:href="#DejaVuSans-30" transform="translate(63.623047 0)"/>
       <use xlink:href="#DejaVuSans-30" transform="translate(127.246094 0)"/>
       <use xlink:href="#DejaVuSans-30" transform="translate(190.869141 0)"/>
      </g>
     </g>
    </g>
   </g>
   <g id="line2d_17">
    <path d="M 55.882727 261.216 
L 59.961302 241.592379 
L 64.039877 223.603406 
L 68.118451 207.112914 
L 72.197026 191.99608 
L 76.275601 178.138478 
L 80.354175 165.435215 
L 84.43275 153.790133 
L 88.511325 143.115087 
L 92.589899 133.329272 
L 96.668474 124.358615 
L 100.747049 116.135214 
L 104.825624 108.596823 
L 108.904198 101.686379 
L 112.982773 95.351576 
L 117.061348 89.544461 
L 121.139922 84.221079 
L 125.218497 79.341135 
L 129.297072 74.86769 
L 133.375646 70.766884 
L 137.454221 67.007674 
L 141.532796 63.561606 
L 145.61137 60.402596 
L 149.689945 57.506732 
L 153.76852 54.852093 
L 157.847095 52.418585 
L 161.925669 50.187789 
L 166.004244 48.142818 
L 170.082819 46.268193 
L 174.161393 44.549724 
L 178.239968 42.974404 
L 182.318543 41.530308 
L 186.397117 40.206505 
L 190.475692 38.992975 
L 194.554267 37.880532 
L 198.632841 36.860755 
L 202.711416 35.925926 
L 206.789991 35.068968 
L 210.868566 34.283395 
L 214.94714 33.56326 
L 219.025715 32.903112 
L 223.10429 32.297955 
L 227.182864 31.743207 
L 231.261439 31.23467 
L 235.340014 30.768493 
L 239.418588 30.34115 
L 243.497163 29.949404 
L 247.575738 29.59029 
L 251.654312 29.261091 
L 255.732887 28.959314 
L 259.811462 28.682675 
L 263.890037 28.42908 
L 267.968611 28.196609 
L 272.047186 27.983503 
L 276.125761 27.788149 
L 280.204335 27.609068 
L 284.28291 27.444905 
L 288.361485 27.294416 
L 292.440059 27.156463 
L 296.518634 27.030001 
L 300.597209 26.914074 
L 304.675783 26.807803 
L 308.754358 26.710385 
L 312.832933 26.621082 
L 316.911508 26.539217 
L 320.990082 26.464172 
L 325.068657 26.395379 
L 329.147232 26.332315 
L 333.225806 26.274505 
L 337.304381 26.221511 
L 341.382956 26.172931 
L 345.46153 26.128397 
L 349.540105 26.087574 
L 353.61868 26.05015 
L 357.697254 26.015845 
L 361.775829 25.984397 
L 365.854404 25.955568 
L 369.932979 25.929141 
L 374.011553 25.904915 
L 378.090128 25.882708 
" clip-path="url(#p6ba6bbf620)" style="fill: none; stroke: #1f77b4; stroke-width: 1.5; stroke-linecap: square"/>
   </g>
   <g id="line2d_18">
    <path d="M 55.882727 261.216 
L 59.961302 261.216 
L 64.039877 259.581352 
L 68.118451 256.720719 
L 72.197026 252.963295 
L 76.275601 248.573002 
L 80.354175 243.760232 
L 84.43275 238.691569 
L 88.511325 233.497817 
L 92.589899 228.280632 
L 96.668474 223.117993 
L 100.747049 218.068711 
L 104.825624 213.176135 
L 108.904198 208.471203 
L 112.982773 203.974943 
L 117.061348 199.700521 
L 121.139922 195.654912 
L 125.218497 191.840268 
L 129.297072 188.255027 
L 133.375646 184.894807 
L 137.454221 181.753138 
L 141.532796 178.822044 
L 145.61137 176.092505 
L 149.689945 173.554835 
L 153.76852 171.198969 
L 157.847095 169.014695 
L 161.925669 166.991828 
L 166.004244 165.120347 
L 170.082819 163.390497 
L 174.161393 161.792856 
L 178.239968 160.318393 
L 182.318543 158.958499 
L 186.397117 157.705006 
L 190.475692 156.550198 
L 194.554267 155.486809 
L 198.632841 154.508021 
L 202.711416 153.607449 
L 206.789991 152.779131 
L 210.868566 152.01751 
L 214.94714 151.317412 
L 219.025715 150.674033 
L 223.10429 150.082916 
L 227.182864 149.539928 
L 231.261439 149.041245 
L 235.340014 148.583332 
L 239.418588 148.16292 
L 243.497163 147.776994 
L 247.575738 147.422769 
L 251.654312 147.097679 
L 255.732887 146.799359 
L 259.811462 146.525631 
L 263.890037 146.27449 
L 267.968611 146.044089 
L 272.047186 145.832731 
L 276.125761 145.638855 
L 280.204335 145.461025 
L 284.28291 145.297922 
L 288.361485 145.148333 
L 292.440059 145.011145 
L 296.518634 144.885335 
L 300.597209 144.769963 
L 304.675783 144.664167 
L 308.754358 144.567155 
L 312.832933 144.4782 
L 316.911508 144.396634 
L 320.990082 144.321847 
L 325.068657 144.253275 
L 329.147232 144.190403 
L 333.225806 144.132759 
L 337.304381 144.079909 
L 341.382956 144.031454 
L 345.46153 143.98703 
L 349.540105 143.946302 
L 353.61868 143.908963 
L 357.697254 143.874731 
L 361.775829 143.843347 
L 365.854404 143.814576 
L 369.932979 143.788199 
L 374.011553 143.764018 
L 378.090128 143.74185 
" clip-path="url(#p6ba6bbf620)" style="fill: none; stroke: #ff7f0e; stroke-width: 1.5; stroke-linecap: square"/>
   </g>
   <g id="line2d_19">
    <path d="M 55.882727 261.216 
L 57.514157 254.151496 
L 62.408447 231.388096 
L 64.039877 224.480581 
L 65.671307 219.37844 
L 70.565596 199.126863 
L 73.828456 186.960218 
L 75.459886 180.366681 
L 80.354175 164.667785 
L 81.985605 161.057038 
L 83.617035 158.231237 
L 86.879895 148.419426 
L 88.511325 145.044164 
L 90.142755 140.569978 
L 91.774185 136.566759 
L 93.405614 134.211925 
L 95.037044 130.679673 
L 98.299904 125.891509 
L 99.931334 123.615169 
L 101.562764 119.140984 
L 103.194194 117.100127 
L 104.825624 113.960348 
L 106.457053 110.349602 
L 108.088483 105.639933 
L 109.719913 101.715208 
L 111.351343 100.851769 
L 112.982773 98.261451 
L 114.614203 97.005539 
L 116.245633 92.766837 
L 117.877063 90.725981 
L 119.508492 87.900179 
L 121.139922 85.46685 
L 122.771352 83.975455 
L 124.402782 81.228148 
L 126.034212 79.187291 
L 127.665642 78.009874 
L 129.297072 74.320633 
L 130.928502 72.201282 
L 132.559931 72.122788 
L 134.191361 71.80881 
L 135.822791 70.474404 
L 137.454221 67.727097 
L 139.085651 65.921724 
L 140.717081 66.078713 
L 142.348511 62.70345 
L 145.61137 59.56367 
L 147.2428 59.171198 
L 148.87423 57.915286 
L 150.50566 55.324968 
L 152.13709 54.854001 
L 153.76852 52.813145 
L 155.39995 51.714222 
L 157.03138 49.280893 
L 158.66281 48.888421 
L 160.294239 50.379816 
L 161.925669 49.75186 
L 165.188529 49.045409 
L 166.819959 46.769069 
L 168.451389 47.789498 
L 170.082819 47.789498 
L 171.714249 48.574443 
L 173.345678 48.652937 
L 174.977108 46.847564 
L 178.239968 44.728213 
L 179.871398 44.414235 
L 183.134258 41.902411 
L 184.765688 39.07661 
L 186.397117 39.547577 
L 188.028547 38.762632 
L 189.659977 37.820698 
L 191.291407 36.407798 
L 192.922837 36.643281 
L 194.554267 34.288446 
L 196.185697 34.052963 
L 197.817127 34.131457 
L 199.448556 34.052963 
L 201.079986 34.131457 
L 202.711416 33.268018 
L 204.342846 33.581996 
L 205.974276 33.503502 
L 207.605706 32.24759 
L 209.237136 34.288446 
L 210.868566 34.366941 
L 212.499995 32.797051 
L 214.131425 33.032535 
L 215.762855 33.660491 
L 217.394285 35.544358 
L 219.025715 33.660491 
L 220.657145 33.81748 
L 222.288575 33.581996 
L 223.920005 31.855117 
L 225.551434 33.032535 
L 227.182864 32.718557 
L 232.077154 34.837908 
L 235.340014 33.189524 
L 236.971444 33.111029 
L 238.602873 32.875546 
L 240.234303 30.6777 
L 241.865733 31.305656 
L 243.497163 30.442217 
L 245.128593 29.97125 
L 246.760023 30.363722 
L 248.391453 29.107811 
L 250.022883 27.69491 
L 251.654312 27.302437 
L 253.285742 24.869108 
L 254.917172 23.220724 
L 256.548602 24.476636 
L 258.180032 22.592768 
L 259.811462 22.200296 
L 261.442892 22.043307 
L 263.074322 22.043307 
L 264.705751 21.807823 
L 266.337181 23.534702 
L 267.968611 23.299219 
L 269.600041 22.357285 
L 271.231471 22.435779 
L 274.494331 21.258362 
L 276.125761 23.14223 
L 277.75719 22.121801 
L 279.38862 21.807823 
L 281.02005 21.101373 
L 282.65148 22.985241 
L 284.28291 22.985241 
L 285.91434 23.14223 
L 287.54577 23.14223 
L 289.1772 24.55513 
L 290.80863 25.340075 
L 292.440059 24.084164 
L 294.071489 24.947603 
L 295.702919 23.299219 
L 297.334349 22.749757 
L 298.965779 22.906746 
L 300.597209 22.514274 
L 302.228639 21.807823 
L 303.860069 23.770186 
L 307.122928 22.514274 
L 308.754358 22.435779 
L 310.385788 21.886318 
L 312.017218 23.534702 
L 313.648648 23.691691 
L 315.280078 23.063735 
L 316.911508 21.179868 
L 318.542937 21.493846 
L 320.174367 21.022879 
L 321.805797 22.121801 
L 323.437227 22.200296 
L 325.068657 23.14223 
L 326.700087 24.476636 
L 328.331517 25.026097 
L 329.962947 26.046526 
L 331.594376 26.517493 
L 334.857236 24.55513 
L 336.488666 22.906746 
L 338.120096 23.299219 
L 339.751526 24.55513 
L 341.382956 21.57234 
L 343.014386 21.57234 
L 344.645815 23.377713 
L 346.277245 23.613197 
L 347.908675 25.41857 
L 349.540105 25.968031 
L 351.171535 24.712119 
L 352.802965 23.927175 
L 354.434395 25.654053 
L 356.065825 24.947603 
L 357.697254 25.497064 
L 359.328684 25.183086 
L 360.960114 25.575559 
L 362.591544 24.162658 
L 364.222974 21.336857 
L 365.854404 22.357285 
L 367.485834 24.084164 
L 369.117264 23.691691 
L 370.748693 24.398141 
L 372.380123 23.613197 
L 374.011553 21.729329 
L 375.642983 21.179868 
L 377.274413 19.452989 
L 378.905843 19.296 
L 380.537273 22.749757 
L 380.537273 22.749757 
" clip-path="url(#p6ba6bbf620)" style="fill: none; stroke: #2ca02c; stroke-width: 1.5; stroke-linecap: square"/>
   </g>
   <g id="line2d_20">
    <path d="M 55.882727 261.216 
L 57.514157 260.980517 
L 59.145587 260.588044 
L 62.408447 259.018154 
L 65.671307 257.134287 
L 67.302736 256.349342 
L 68.934166 255.09343 
L 72.197026 251.875156 
L 73.828456 250.933223 
L 75.459886 249.598816 
L 77.091316 247.165487 
L 78.722746 245.752587 
L 80.354175 244.104202 
L 81.985605 241.43539 
L 83.617035 239.394533 
L 85.248465 237.824644 
L 86.879895 235.469809 
L 88.511325 233.350458 
L 90.142755 232.094546 
L 91.774185 229.111756 
L 93.405614 226.442944 
L 95.037044 225.030043 
L 96.668474 221.890263 
L 98.299904 220.163385 
L 101.562764 215.610705 
L 103.194194 212.706409 
L 104.825624 211.84297 
L 106.457053 210.351574 
L 108.088483 210.037596 
L 109.719913 208.938674 
L 112.982773 204.699971 
L 114.614203 200.932236 
L 116.245633 199.048369 
L 117.877063 197.635468 
L 119.508492 197.242995 
L 121.139922 196.301062 
L 124.402782 193.082788 
L 126.034212 193.082788 
L 127.665642 191.591393 
L 129.297072 191.19892 
L 130.928502 190.413975 
L 132.559931 187.745163 
L 134.191361 186.332262 
L 137.454221 184.526889 
L 139.085651 184.134417 
L 140.717081 181.701088 
L 142.348511 182.015066 
L 143.979941 181.544099 
L 145.61137 181.544099 
L 147.2428 179.738726 
L 148.87423 177.54088 
L 150.50566 176.912924 
L 152.13709 177.305396 
L 153.76852 176.284968 
L 155.39995 172.674222 
L 157.03138 172.831211 
L 158.66281 171.575299 
L 160.294239 169.455948 
L 163.557099 167.650575 
L 165.188529 164.667785 
L 168.451389 163.647356 
L 170.082819 162.626928 
L 171.714249 161.920478 
L 173.345678 159.33016 
L 174.977108 159.801127 
L 176.608538 159.879621 
L 178.239968 159.644138 
L 179.871398 160.507577 
L 181.502828 160.272093 
L 183.134258 160.74306 
L 184.765688 160.350588 
L 186.397117 159.565643 
L 188.028547 157.76027 
L 189.659977 157.524787 
L 191.291407 158.152742 
L 192.922837 157.917259 
L 194.554267 157.995753 
L 196.185697 155.48393 
L 197.817127 154.385007 
L 199.448556 154.463502 
L 201.079986 155.326941 
L 202.711416 154.071029 
L 204.342846 152.972106 
L 205.974276 151.166733 
L 207.605706 151.480711 
L 209.237136 150.538777 
L 210.868566 149.832327 
L 212.499995 150.538777 
L 214.131425 149.204371 
L 215.762855 148.419426 
L 217.394285 148.026954 
L 220.657145 146.535559 
L 222.288575 147.006526 
L 223.920005 148.419426 
L 225.551434 148.340932 
L 227.182864 147.79147 
L 228.814294 146.614053 
L 230.445724 146.221581 
L 232.077154 145.51513 
L 233.708584 146.064592 
L 235.340014 146.457064 
L 236.971444 146.300075 
L 238.602873 146.614053 
L 240.234303 146.535559 
L 241.865733 147.477493 
L 243.497163 147.477493 
L 245.128593 147.163515 
L 246.760023 147.320504 
L 248.391453 147.634482 
L 250.022883 148.576415 
L 251.654312 148.65491 
L 253.285742 151.559206 
L 254.917172 152.344151 
L 256.548602 151.559206 
L 258.180032 152.815117 
L 259.811462 152.422645 
L 261.442892 151.716195 
L 263.074322 150.538777 
L 264.705751 150.852755 
L 266.337181 150.460283 
L 267.968611 149.282866 
L 269.600041 149.204371 
L 271.231471 148.65491 
L 272.862901 147.398998 
L 274.494331 148.105448 
L 276.125761 145.672119 
L 277.75719 146.771042 
L 279.38862 146.457064 
L 281.02005 146.300075 
L 282.65148 144.651691 
L 284.28291 144.730186 
L 285.91434 144.494702 
L 287.54577 145.044164 
L 289.1772 143.474274 
L 290.80863 142.139868 
L 292.440059 142.375351 
L 294.071489 143.160296 
L 295.702919 143.709757 
L 297.334349 143.474274 
L 298.965779 142.689329 
L 300.597209 143.003307 
L 302.228639 142.610835 
L 303.860069 141.197934 
L 305.491498 141.668901 
L 307.122928 143.160296 
L 308.754358 142.610835 
L 310.385788 142.689329 
L 312.017218 141.119439 
L 313.648648 140.412989 
L 315.280078 140.099011 
L 316.911508 142.53234 
L 318.542937 140.412989 
L 320.174367 141.354923 
L 321.805797 139.471055 
L 323.437227 138.529121 
L 325.068657 139.157077 
L 326.700087 137.97966 
L 328.331517 136.959232 
L 329.962947 138.607616 
L 331.594376 137.194715 
L 333.225806 138.215143 
L 334.857236 140.569978 
L 338.120096 144.730186 
L 339.751526 144.651691 
L 341.382956 146.457064 
L 343.014386 145.201152 
L 344.645815 145.436636 
L 346.277245 145.358141 
L 347.908675 144.023735 
L 349.540105 144.573197 
L 351.171535 145.829108 
L 352.802965 145.593625 
L 354.434395 143.631263 
L 356.065825 144.887175 
L 357.697254 142.610835 
L 359.328684 143.003307 
L 360.960114 144.259219 
L 362.591544 144.887175 
L 364.222974 145.750614 
L 365.854404 145.122658 
L 367.485834 145.829108 
L 369.117264 146.37857 
L 370.748693 146.614053 
L 372.380123 144.416208 
L 375.642983 145.593625 
L 377.274413 147.477493 
L 380.537273 148.026954 
L 380.537273 148.026954 
" clip-path="url(#p6ba6bbf620)" style="fill: none; stroke: #d62728; stroke-width: 1.5; stroke-linecap: square"/>
   </g>
   <g id="patch_3">
    <path d="M 39.65 273.312 
L 39.65 7.2 
" style="fill: none; stroke: #000000; stroke-width: 0.8; stroke-linejoin: miter; stroke-linecap: square"/>
   </g>
   <g id="patch_4">
    <path d="M 396.77 273.312 
L 396.77 7.2 
" style="fill: none; stroke: #000000; stroke-width: 0.8; stroke-linejoin: miter; stroke-linecap: square"/>
   </g>
   <g id="patch_5">
    <path d="M 39.65 273.312 
L 396.77 273.312 
" style="fill: none; stroke: #000000; stroke-width: 0.8; stroke-linejoin: miter; stroke-linecap: square"/>
   </g>
   <g id="patch_6">
    <path d="M 39.65 7.2 
L 396.77 7.2 
" style="fill: none; stroke: #000000; stroke-width: 0.8; stroke-linejoin: miter; stroke-linecap: square"/>
   </g>
  </g>
 </g>
 <defs>
  <clipPath id="p6ba6bbf620">
   <rect x="39.65" y="7.2" width="357.12" height="266.112"/>
  </clipPath>
 </defs>
</svg>
