<?xml version="1.0" encoding="utf-8" standalone="no"?>
<!DOCTYPE svg PUBLIC "-//W3C//DTD SVG 1.1//EN"
  "http://www.w3.org/Graphics/SVG/1.1/DTD/svg11.dtd">
<svg xmlns:xlink="http://www.w3.org/1999/xlink" width="403.97pt" height="297.190125pt" viewBox="0 0 403.97 297.190125" xmlns="http://www.w3.org/2000/svg" version="1.1">
 <metadata>
  <rdf:RDF xmlns:dc="http://purl.org/dc/elements/1.1/" xmlns:cc="http://creativecommons.org/ns#" xmlns:rdf="http://www.w3.org/1999/02/22-rdf-syntax-ns#">
   <cc:Work>
    <dc:type rdf:resource="http://purl.org/dc/dcmitype/StillImage"/>
    <dc:date>2024-09-23T17:59:10.806641</dc:date>
    <dc:format>image/svg+xml</dc:format>
    <dc:creator>
     <cc:Agent>
      <dc:title>Matplotlib v3.9.2, https://matplotlib.org/</dc:title>
     </cc:Agent>
    </dc:creator>
   </cc:Work>
  </rdf:RDF>
 </metadata>
 <defs>
  <style type="text/css">*{stroke-linejoin: round; stroke-linecap: butt}</style>
 </defs>
 <g id="figure_1">
  <g id="patch_1">
   <path d="M 0 297.190125 
L 403.97 297.190125 
L 403.97 0 
L 0 0 
z
" style="fill: #ffffff"/>
  </g>
  <g id="axes_1">
   <g id="patch_2">
    <path d="M 39.65 273.312 
L 396.77 273.312 
L 396.77 7.2 
L 39.65 7.2 
z
" style="fill: #ffffff"/>
   </g>
   <g id="matplotlib.axis_1">
    <g id="xtick_1">
     <g id="line2d_1">
      <defs>
       <path id="m599175d13a" d="M 0 0 
L 0 3.5 
" style="stroke: #000000; stroke-width: 0.8"/>
      </defs>
      <g>
       <use xlink:href="#m599175d13a" x="55.882727" y="273.312" style="stroke: #000000; stroke-width: 0.8"/>
      </g>
     </g>
     <g id="text_1">
      <!-- 0.0 -->
      <g transform="translate(47.931165 287.910437) scale(0.1 -0.1)">
       <defs>
        <path id="DejaVuSans-30" d="M 2034 4250 
Q 1547 4250 1301 3770 
Q 1056 3291 1056 2328 
Q 1056 1369 1301 889 
Q 1547 409 2034 409 
Q 2525 409 2770 889 
Q 3016 1369 3016 2328 
Q 3016 3291 2770 3770 
Q 2525 4250 2034 4250 
z
M 2034 4750 
Q 2819 4750 3233 4129 
Q 3647 3509 3647 2328 
Q 3647 1150 3233 529 
Q 2819 -91 2034 -91 
Q 1250 -91 836 529 
Q 422 1150 422 2328 
Q 422 3509 836 4129 
Q 1250 4750 2034 4750 
z
" transform="scale(0.015625)"/>
        <path id="DejaVuSans-2e" d="M 684 794 
L 1344 794 
L 1344 0 
L 684 0 
L 684 794 
z
" transform="scale(0.015625)"/>
       </defs>
       <use xlink:href="#DejaVuSans-30"/>
       <use xlink:href="#DejaVuSans-2e" x="63.623047"/>
       <use xlink:href="#DejaVuSans-30" x="95.410156"/>
      </g>
     </g>
    </g>
    <g id="xtick_2">
     <g id="line2d_2">
      <g>
       <use xlink:href="#m599175d13a" x="96.668474" y="273.312" style="stroke: #000000; stroke-width: 0.8"/>
      </g>
     </g>
     <g id="text_2">
      <!-- 2.5 -->
      <g transform="translate(88.716912 287.910437) scale(0.1 -0.1)">
       <defs>
        <path id="DejaVuSans-32" d="M 1228 531 
L 3431 531 
L 3431 0 
L 469 0 
L 469 531 
Q 828 903 1448 1529 
Q 2069 2156 2228 2338 
Q 2531 2678 2651 2914 
Q 2772 3150 2772 3378 
Q 2772 3750 2511 3984 
Q 2250 4219 1831 4219 
Q 1534 4219 1204 4116 
Q 875 4013 500 3803 
L 500 4441 
Q 881 4594 1212 4672 
Q 1544 4750 1819 4750 
Q 2544 4750 2975 4387 
Q 3406 4025 3406 3419 
Q 3406 3131 3298 2873 
Q 3191 2616 2906 2266 
Q 2828 2175 2409 1742 
Q 1991 1309 1228 531 
z
" transform="scale(0.015625)"/>
        <path id="DejaVuSans-35" d="M 691 4666 
L 3169 4666 
L 3169 4134 
L 1269 4134 
L 1269 2991 
Q 1406 3038 1543 3061 
Q 1681 3084 1819 3084 
Q 2600 3084 3056 2656 
Q 3513 2228 3513 1497 
Q 3513 744 3044 326 
Q 2575 -91 1722 -91 
Q 1428 -91 1123 -41 
Q 819 9 494 109 
L 494 744 
Q 775 591 1075 516 
Q 1375 441 1709 441 
Q 2250 441 2565 725 
Q 2881 1009 2881 1497 
Q 2881 1984 2565 2268 
Q 2250 2553 1709 2553 
Q 1456 2553 1204 2497 
Q 953 2441 691 2322 
L 691 4666 
z
" transform="scale(0.015625)"/>
       </defs>
       <use xlink:href="#DejaVuSans-32"/>
       <use xlink:href="#DejaVuSans-2e" x="63.623047"/>
       <use xlink:href="#DejaVuSans-35" x="95.410156"/>
      </g>
     </g>
    </g>
    <g id="xtick_3">
     <g id="line2d_3">
      <g>
       <use xlink:href="#m599175d13a" x="137.454221" y="273.312" style="stroke: #000000; stroke-width: 0.8"/>
      </g>
     </g>
     <g id="text_3">
      <!-- 5.0 -->
      <g transform="translate(129.502659 287.910437) scale(0.1 -0.1)">
       <use xlink:href="#DejaVuSans-35"/>
       <use xlink:href="#DejaVuSans-2e" x="63.623047"/>
       <use xlink:href="#DejaVuSans-30" x="95.410156"/>
      </g>
     </g>
    </g>
    <g id="xtick_4">
     <g id="line2d_4">
      <g>
       <use xlink:href="#m599175d13a" x="178.239968" y="273.312" style="stroke: #000000; stroke-width: 0.8"/>
      </g>
     </g>
     <g id="text_4">
      <!-- 7.5 -->
      <g transform="translate(170.288406 287.910437) scale(0.1 -0.1)">
       <defs>
        <path id="DejaVuSans-37" d="M 525 4666 
L 3525 4666 
L 3525 4397 
L 1831 0 
L 1172 0 
L 2766 4134 
L 525 4134 
L 525 4666 
z
" transform="scale(0.015625)"/>
       </defs>
       <use xlink:href="#DejaVuSans-37"/>
       <use xlink:href="#DejaVuSans-2e" x="63.623047"/>
       <use xlink:href="#DejaVuSans-35" x="95.410156"/>
      </g>
     </g>
    </g>
    <g id="xtick_5">
     <g id="line2d_5">
      <g>
       <use xlink:href="#m599175d13a" x="219.025715" y="273.312" style="stroke: #000000; stroke-width: 0.8"/>
      </g>
     </g>
     <g id="text_5">
      <!-- 10.0 -->
      <g transform="translate(207.892902 287.910437) scale(0.1 -0.1)">
       <defs>
        <path id="DejaVuSans-31" d="M 794 531 
L 1825 531 
L 1825 4091 
L 703 3866 
L 703 4441 
L 1819 4666 
L 2450 4666 
L 2450 531 
L 3481 531 
L 3481 0 
L 794 0 
L 794 531 
z
" transform="scale(0.015625)"/>
       </defs>
       <use xlink:href="#DejaVuSans-31"/>
       <use xlink:href="#DejaVuSans-30" x="63.623047"/>
       <use xlink:href="#DejaVuSans-2e" x="127.246094"/>
       <use xlink:href="#DejaVuSans-30" x="159.033203"/>
      </g>
     </g>
    </g>
    <g id="xtick_6">
     <g id="line2d_6">
      <g>
       <use xlink:href="#m599175d13a" x="259.811462" y="273.312" style="stroke: #000000; stroke-width: 0.8"/>
      </g>
     </g>
     <g id="text_6">
      <!-- 12.5 -->
      <g transform="translate(248.678649 287.910437) scale(0.1 -0.1)">
       <use xlink:href="#DejaVuSans-31"/>
       <use xlink:href="#DejaVuSans-32" x="63.623047"/>
       <use xlink:href="#DejaVuSans-2e" x="127.246094"/>
       <use xlink:href="#DejaVuSans-35" x="159.033203"/>
      </g>
     </g>
    </g>
    <g id="xtick_7">
     <g id="line2d_7">
      <g>
       <use xlink:href="#m599175d13a" x="300.597209" y="273.312" style="stroke: #000000; stroke-width: 0.8"/>
      </g>
     </g>
     <g id="text_7">
      <!-- 15.0 -->
      <g transform="translate(289.464396 287.910437) scale(0.1 -0.1)">
       <use xlink:href="#DejaVuSans-31"/>
       <use xlink:href="#DejaVuSans-35" x="63.623047"/>
       <use xlink:href="#DejaVuSans-2e" x="127.246094"/>
       <use xlink:href="#DejaVuSans-30" x="159.033203"/>
      </g>
     </g>
    </g>
    <g id="xtick_8">
     <g id="line2d_8">
      <g>
       <use xlink:href="#m599175d13a" x="341.382956" y="273.312" style="stroke: #000000; stroke-width: 0.8"/>
      </g>
     </g>
     <g id="text_8">
      <!-- 17.5 -->
      <g transform="translate(330.250143 287.910437) scale(0.1 -0.1)">
       <use xlink:href="#DejaVuSans-31"/>
       <use xlink:href="#DejaVuSans-37" x="63.623047"/>
       <use xlink:href="#DejaVuSans-2e" x="127.246094"/>
       <use xlink:href="#DejaVuSans-35" x="159.033203"/>
      </g>
     </g>
    </g>
    <g id="xtick_9">
     <g id="line2d_9">
      <g>
       <use xlink:href="#m599175d13a" x="382.168703" y="273.312" style="stroke: #000000; stroke-width: 0.8"/>
      </g>
     </g>
     <g id="text_9">
      <!-- 20.0 -->
      <g transform="translate(371.03589 287.910437) scale(0.1 -0.1)">
       <use xlink:href="#DejaVuSans-32"/>
       <use xlink:href="#DejaVuSans-30" x="63.623047"/>
       <use xlink:href="#DejaVuSans-2e" x="127.246094"/>
       <use xlink:href="#DejaVuSans-30" x="159.033203"/>
      </g>
     </g>
    </g>
   </g>
   <g id="matplotlib.axis_2">
    <g id="ytick_1">
     <g id="line2d_10">
      <defs>
       <path id="mc325cc2e3d" d="M 0 0 
L -3.5 0 
" style="stroke: #000000; stroke-width: 0.8"/>
      </defs>
      <g>
       <use xlink:href="#mc325cc2e3d" x="39.65" y="261.216" style="stroke: #000000; stroke-width: 0.8"/>
      </g>
     </g>
     <g id="text_10">
      <!-- 0 -->
      <g transform="translate(26.2875 265.015219) scale(0.1 -0.1)">
       <use xlink:href="#DejaVuSans-30"/>
      </g>
     </g>
    </g>
    <g id="ytick_2">
     <g id="line2d_11">
      <g>
       <use xlink:href="#mc325cc2e3d" x="39.65" y="226.862876" style="stroke: #000000; stroke-width: 0.8"/>
      </g>
     </g>
     <g id="text_11">
      <!-- 500 -->
      <g transform="translate(13.5625 230.662095) scale(0.1 -0.1)">
       <use xlink:href="#DejaVuSans-35"/>
       <use xlink:href="#DejaVuSans-30" x="63.623047"/>
       <use xlink:href="#DejaVuSans-30" x="127.246094"/>
      </g>
     </g>
    </g>
    <g id="ytick_3">
     <g id="line2d_12">
      <g>
       <use xlink:href="#mc325cc2e3d" x="39.65" y="192.509752" style="stroke: #000000; stroke-width: 0.8"/>
      </g>
     </g>
     <g id="text_12">
      <!-- 1000 -->
      <g transform="translate(7.2 196.308971) scale(0.1 -0.1)">
       <use xlink:href="#DejaVuSans-31"/>
       <use xlink:href="#DejaVuSans-30" x="63.623047"/>
       <use xlink:href="#DejaVuSans-30" x="127.246094"/>
       <use xlink:href="#DejaVuSans-30" x="190.869141"/>
      </g>
     </g>
    </g>
    <g id="ytick_4">
     <g id="line2d_13">
      <g>
       <use xlink:href="#mc325cc2e3d" x="39.65" y="158.156628" style="stroke: #000000; stroke-width: 0.8"/>
      </g>
     </g>
     <g id="text_13">
      <!-- 1500 -->
      <g transform="translate(7.2 161.955847) scale(0.1 -0.1)">
       <use xlink:href="#DejaVuSans-31"/>
       <use xlink:href="#DejaVuSans-35" x="63.623047"/>
       <use xlink:href="#DejaVuSans-30" x="127.246094"/>
       <use xlink:href="#DejaVuSans-30" x="190.869141"/>
      </g>
     </g>
    </g>
    <g id="ytick_5">
     <g id="line2d_14">
      <g>
       <use xlink:href="#mc325cc2e3d" x="39.65" y="123.803504" style="stroke: #000000; stroke-width: 0.8"/>
      </g>
     </g>
     <g id="text_14">
      <!-- 2000 -->
      <g transform="translate(7.2 127.602722) scale(0.1 -0.1)">
       <use xlink:href="#DejaVuSans-32"/>
       <use xlink:href="#DejaVuSans-30" x="63.623047"/>
       <use xlink:href="#DejaVuSans-30" x="127.246094"/>
       <use xlink:href="#DejaVuSans-30" x="190.869141"/>
      </g>
     </g>
    </g>
    <g id="ytick_6">
     <g id="line2d_15">
      <g>
       <use xlink:href="#mc325cc2e3d" x="39.65" y="89.45038" style="stroke: #000000; stroke-width: 0.8"/>
      </g>
     </g>
     <g id="text_15">
      <!-- 2500 -->
      <g transform="translate(7.2 93.249598) scale(0.1 -0.1)">
       <use xlink:href="#DejaVuSans-32"/>
       <use xlink:href="#DejaVuSans-35" x="63.623047"/>
       <use xlink:href="#DejaVuSans-30" x="127.246094"/>
       <use xlink:href="#DejaVuSans-30" x="190.869141"/>
      </g>
     </g>
    </g>
    <g id="ytick_7">
     <g id="line2d_16">
      <g>
       <use xlink:href="#mc325cc2e3d" x="39.65" y="55.097256" style="stroke: #000000; stroke-width: 0.8"/>
      </g>
     </g>
     <g id="text_16">
      <!-- 3000 -->
      <g transform="translate(7.2 58.896474) scale(0.1 -0.1)">
       <defs>
        <path id="DejaVuSans-33" d="M 2597 2516 
Q 3050 2419 3304 2112 
Q 3559 1806 3559 1356 
Q 3559 666 3084 287 
Q 2609 -91 1734 -91 
Q 1441 -91 1130 -33 
Q 819 25 488 141 
L 488 750 
Q 750 597 1062 519 
Q 1375 441 1716 441 
Q 2309 441 2620 675 
Q 2931 909 2931 1356 
Q 2931 1769 2642 2001 
Q 2353 2234 1838 2234 
L 1294 2234 
L 1294 2753 
L 1863 2753 
Q 2328 2753 2575 2939 
Q 2822 3125 2822 3475 
Q 2822 3834 2567 4026 
Q 2313 4219 1838 4219 
Q 1578 4219 1281 4162 
Q 984 4106 628 3988 
L 628 4550 
Q 988 4650 1302 4700 
Q 1616 4750 1894 4750 
Q 2613 4750 3031 4423 
Q 3450 4097 3450 3541 
Q 3450 3153 3228 2886 
Q 3006 2619 2597 2516 
z
" transform="scale(0.015625)"/>
       </defs>
       <use xlink:href="#DejaVuSans-33"/>
       <use xlink:href="#DejaVuSans-30" x="63.623047"/>
       <use xlink:href="#DejaVuSans-30" x="127.246094"/>
       <use xlink:href="#DejaVuSans-30" x="190.869141"/>
      </g>
     </g>
    </g>
    <g id="ytick_8">
     <g id="line2d_17">
      <g>
       <use xlink:href="#mc325cc2e3d" x="39.65" y="20.744132" style="stroke: #000000; stroke-width: 0.8"/>
      </g>
     </g>
     <g id="text_17">
      <!-- 3500 -->
      <g transform="translate(7.2 24.54335) scale(0.1 -0.1)">
       <use xlink:href="#DejaVuSans-33"/>
       <use xlink:href="#DejaVuSans-35" x="63.623047"/>
       <use xlink:href="#DejaVuSans-30" x="127.246094"/>
       <use xlink:href="#DejaVuSans-30" x="190.869141"/>
      </g>
     </g>
    </g>
   </g>
   <g id="line2d_18">
    <path d="M 55.882727 261.216 
L 72.197026 192.509752 
L 88.511325 143.281725 
L 104.825624 108.009844 
L 121.139922 82.737541 
L 137.454221 64.629936 
L 153.76852 51.655837 
L 170.082819 42.359895 
L 186.397117 35.699353 
L 202.711416 30.927074 
L 219.025715 27.507736 
L 235.340014 25.057781 
L 251.654312 23.302388 
L 267.968611 22.044649 
L 284.28291 21.143479 
L 300.597209 20.49779 
L 316.911508 20.035155 
L 333.225806 19.703676 
L 349.540105 19.466172 
L 365.854404 19.296 
" clip-path="url(#p303ff38db4)" style="fill: none; stroke: #1f77b4; stroke-width: 1.5; stroke-linecap: square"/>
   </g>
   <g id="line2d_19">
    <path d="M 55.882727 261.216 
L 72.197026 261.216 
L 88.511325 238.313917 
L 104.825624 210.146646 
L 121.139922 183.928275 
L 137.454221 162.043662 
L 153.76852 144.772234 
L 170.082819 131.580383 
L 186.397117 121.709039 
L 202.711416 114.420911 
L 219.025715 109.088426 
L 235.340014 105.210949 
L 251.654312 102.4036 
L 267.968611 100.377177 
L 284.28291 98.917564 
L 300.597209 97.867809 
L 316.911508 97.113636 
L 333.225806 96.572231 
L 349.540105 96.183781 
L 365.854404 95.905183 
" clip-path="url(#p303ff38db4)" style="fill: none; stroke: #ff7f0e; stroke-width: 1.5; stroke-linecap: square"/>
   </g>
   <g id="line2d_20">
    <path d="M 55.882727 261.216 
L 57.514157 253.452194 
L 60.777017 239.985769 
L 62.408447 234.145738 
L 64.039877 227.549938 
L 65.671307 221.503789 
L 67.302736 214.770576 
L 68.934166 208.518308 
L 70.565596 203.502752 
L 72.197026 199.036845 
L 73.828456 193.677758 
L 75.459886 190.654683 
L 78.722746 183.02829 
L 80.354175 178.768502 
L 81.985605 174.096477 
L 83.617035 169.974102 
L 85.248465 167.019734 
L 86.879895 163.653128 
L 88.511325 161.385821 
L 90.142755 157.19474 
L 91.774185 152.24789 
L 95.037044 146.476566 
L 96.668474 143.453491 
L 98.299904 139.674647 
L 99.931334 136.308041 
L 101.562764 134.246853 
L 103.194194 133.147553 
L 104.825624 130.46801 
L 106.457053 129.36871 
L 108.088483 127.032697 
L 109.719913 124.078329 
L 111.351343 122.017141 
L 112.982773 120.230779 
L 114.614203 116.451935 
L 116.245633 114.115923 
L 117.877063 111.024142 
L 121.139922 107.314004 
L 122.771352 103.741279 
L 124.402782 101.886211 
L 126.034212 101.061736 
L 129.297072 97.626423 
L 130.928502 95.427823 
L 132.559931 95.015586 
L 134.191361 94.94688 
L 135.822791 95.290411 
L 137.454221 93.29793 
L 139.085651 92.267336 
L 140.717081 90.480973 
L 142.348511 90.068736 
L 143.979941 90.206148 
L 145.61137 91.030623 
L 148.87423 89.587792 
L 150.50566 87.526605 
L 152.13709 86.70213 
L 153.76852 85.396711 
L 155.39995 81.892692 
L 158.66281 82.373636 
L 160.294239 80.518567 
L 161.925669 79.281855 
L 163.557099 79.694092 
L 165.188529 79.762799 
L 166.819959 79.144442 
L 168.451389 77.90773 
L 170.082819 78.388674 
L 171.714249 78.319967 
L 173.345678 78.800911 
L 174.977108 78.732205 
L 176.608538 78.319967 
L 178.239968 76.396193 
L 179.871398 76.052661 
L 181.502828 74.815949 
L 183.134258 74.197593 
L 184.765688 76.052661 
L 186.397117 73.166999 
L 188.028547 72.479936 
L 189.659977 73.304411 
L 192.922837 71.724168 
L 194.554267 70.830986 
L 196.185697 72.41123 
L 197.817127 71.86158 
L 199.448556 70.281336 
L 201.079986 71.243224 
L 202.711416 70.21263 
L 204.342846 70.281336 
L 205.974276 68.701093 
L 207.605706 69.250743 
L 209.237136 70.075218 
L 210.868566 69.388155 
L 212.499995 69.044624 
L 214.131425 68.494974 
L 215.762855 68.56368 
L 217.394285 68.01403 
L 220.657145 68.357561 
L 222.288575 67.739205 
L 223.920005 65.540605 
L 225.551434 65.26578 
L 227.182864 64.647424 
L 228.814294 64.990955 
L 230.445724 65.884137 
L 232.077154 65.403193 
L 233.708584 64.784837 
L 235.340014 62.929768 
L 236.971444 61.761762 
L 238.602873 63.410712 
L 240.234303 62.311412 
L 241.865733 61.41823 
L 243.497163 62.036587 
L 245.128593 60.86858 
L 246.760023 61.899174 
L 248.391453 63.273299 
L 250.022883 63.204593 
L 251.654312 63.342005 
L 253.285742 62.105293 
L 254.917172 62.723649 
L 256.548602 62.380118 
L 258.180032 61.280818 
L 259.811462 61.96788 
L 261.442892 59.631868 
L 263.074322 60.456343 
L 264.705751 59.013512 
L 266.337181 57.364562 
L 267.968611 57.227149 
L 269.600041 56.746206 
L 271.231471 56.952324 
L 272.862901 57.295856 
L 274.494331 58.189037 
L 276.125761 58.257743 
L 277.75719 56.883618 
L 279.38862 56.677499 
L 281.02005 56.059143 
L 282.65148 54.959843 
L 284.28291 55.578199 
L 285.91434 54.753724 
L 287.54577 52.829949 
L 289.1772 53.585718 
L 290.80863 55.372081 
L 292.440059 53.997956 
L 294.071489 53.997956 
L 295.702919 54.204074 
L 297.334349 53.517012 
L 298.965779 53.860543 
L 300.597209 54.959843 
L 302.228639 54.341487 
L 303.860069 53.860543 
L 305.491498 54.272781 
L 307.122928 53.791837 
L 308.754358 54.341487 
L 310.385788 54.753724 
L 312.017218 53.242187 
L 313.648648 52.898656 
L 315.280078 54.204074 
L 316.911508 53.310893 
L 318.542937 54.204074 
L 320.174367 54.410193 
L 321.805797 52.486418 
L 323.437227 51.936768 
L 325.068657 52.005474 
L 326.700087 51.180999 
L 328.331517 50.150406 
L 329.962947 50.356524 
L 331.594376 50.768762 
L 333.225806 51.661943 
L 334.857236 51.936768 
L 336.488666 51.249706 
L 338.120096 50.081699 
L 339.751526 48.364043 
L 341.382956 49.119812 
L 343.014386 51.249706 
L 344.645815 52.967362 
L 346.277245 51.868062 
L 347.908675 50.906174 
L 349.540105 50.425231 
L 351.171535 51.043587 
L 352.802965 50.974881 
L 354.434395 51.868062 
L 356.065825 52.211593 
L 357.697254 52.349006 
L 359.328684 54.478899 
L 360.960114 56.402674 
L 362.591544 56.883618 
L 364.222974 57.639387 
L 365.854404 58.051624 
L 367.485834 57.364562 
L 369.117264 57.295856 
L 372.380123 57.776799 
L 374.011553 59.975399 
L 375.642983 59.357043 
L 377.274413 58.944805 
L 378.905843 58.189037 
L 380.537273 59.494455 
L 380.537273 59.494455 
" clip-path="url(#p303ff38db4)" style="fill: none; stroke: #2ca02c; stroke-width: 1.5; stroke-linecap: square"/>
   </g>
   <g id="line2d_21">
    <path d="M 55.882727 261.216 
L 57.514157 261.078588 
L 59.145587 260.803763 
L 60.777017 260.254113 
L 62.408447 259.910581 
L 64.039877 259.0174 
L 65.671307 258.330338 
L 67.302736 257.231038 
L 68.934166 255.788206 
L 70.565596 255.16985 
L 72.197026 252.902544 
L 73.828456 251.391007 
L 75.459886 249.467232 
L 78.722746 246.9251 
L 80.354175 245.207444 
L 81.985605 244.039438 
L 83.617035 242.459194 
L 85.248465 239.779651 
L 86.879895 238.268113 
L 90.142755 234.832801 
L 91.774185 233.183851 
L 93.405614 230.160776 
L 95.037044 227.549938 
L 96.668474 225.900988 
L 98.299904 224.526863 
L 99.931334 223.908507 
L 101.562764 222.534382 
L 103.194194 220.060957 
L 104.825624 218.205889 
L 106.457053 216.694351 
L 108.088483 214.014808 
L 109.719913 213.05292 
L 112.982773 209.411489 
L 114.614203 208.793133 
L 116.245633 206.45712 
L 117.877063 206.113589 
L 119.508492 204.945583 
L 121.139922 203.090514 
L 124.402782 203.434045 
L 126.034212 201.166739 
L 127.665642 200.273558 
L 129.297072 199.036845 
L 130.928502 197.250483 
L 132.559931 194.708352 
L 134.191361 193.402933 
L 135.822791 191.410452 
L 137.454221 190.792096 
L 139.085651 190.517271 
L 140.717081 189.624089 
L 142.348511 187.906433 
L 143.979941 186.738427 
L 145.61137 185.158183 
L 147.2428 184.608533 
L 148.87423 184.402415 
L 150.50566 184.745946 
L 152.13709 184.402415 
L 153.76852 182.822171 
L 155.39995 183.990177 
L 157.03138 183.303115 
L 158.66281 180.211333 
L 160.294239 180.898396 
L 161.925669 180.623571 
L 163.557099 179.455565 
L 165.188529 178.768502 
L 166.819959 177.53179 
L 168.451389 178.287559 
L 170.082819 176.638609 
L 171.714249 176.776021 
L 173.345678 175.814134 
L 174.977108 175.951546 
L 176.608538 175.127071 
L 178.239968 174.989659 
L 179.871398 174.23389 
L 181.502828 174.027771 
L 183.134258 174.577421 
L 184.765688 173.615534 
L 186.397117 174.23389 
L 188.028547 173.68424 
L 189.659977 173.68424 
L 192.922837 175.264484 
L 194.554267 174.440009 
L 196.185697 172.310115 
L 199.448556 171.348227 
L 201.079986 170.317634 
L 202.711416 169.493159 
L 204.342846 169.630571 
L 207.605706 169.149627 
L 209.237136 168.119034 
L 210.868566 167.775503 
L 215.762855 167.569384 
L 217.394285 167.706796 
L 219.025715 167.63809 
L 220.657145 167.157146 
L 222.288575 165.851728 
L 223.920005 167.08844 
L 225.551434 167.431971 
L 227.182864 167.157146 
L 228.814294 166.676203 
L 230.445724 166.744909 
L 232.077154 168.119034 
L 233.708584 167.157146 
L 235.340014 165.920434 
L 236.971444 164.88984 
L 238.602873 162.966065 
L 240.234303 163.24089 
L 241.865733 163.172184 
L 243.497163 163.584421 
L 245.128593 163.859246 
L 246.760023 162.553828 
L 248.391453 160.904878 
L 250.022883 161.179703 
L 251.654312 161.110996 
L 253.285742 161.248409 
L 254.917172 160.698759 
L 256.548602 161.660646 
L 258.180032 163.103478 
L 259.811462 162.004178 
L 261.442892 161.248409 
L 263.074322 160.767465 
L 264.705751 160.767465 
L 266.337181 161.59194 
L 267.968611 161.454528 
L 271.231471 160.355228 
L 272.862901 159.049809 
L 274.494331 158.225334 
L 276.125761 157.606978 
L 277.75719 157.332153 
L 279.38862 158.087922 
L 281.02005 159.736872 
L 282.65148 160.49264 
L 284.28291 160.286521 
L 285.91434 161.248409 
L 287.54577 162.485121 
L 289.1772 162.347709 
L 290.80863 159.94299 
L 292.440059 160.973584 
L 294.071489 161.454528 
L 295.702919 161.454528 
L 297.334349 162.897359 
L 298.965779 162.69124 
L 300.597209 161.454528 
L 302.228639 161.248409 
L 303.860069 159.805578 
L 305.491498 160.011696 
L 307.122928 158.84369 
L 310.385788 158.019215 
L 312.017218 158.500159 
L 313.648648 158.29404 
L 315.280078 157.675684 
L 316.911508 157.74439 
L 318.542937 157.263447 
L 320.174367 156.988622 
L 321.805797 158.637572 
L 323.437227 158.774984 
L 325.068657 159.118515 
L 326.700087 159.324634 
L 328.331517 158.225334 
L 329.962947 156.988622 
L 331.594376 155.477084 
L 333.225806 154.99614 
L 334.857236 155.064847 
L 336.488666 157.19474 
L 338.120096 160.011696 
L 339.751526 160.904878 
L 341.382956 161.454528 
L 343.014386 158.912397 
L 344.645815 156.782503 
L 346.277245 157.057328 
L 347.908675 157.606978 
L 349.540105 157.538272 
L 351.171535 157.126034 
L 352.802965 156.919915 
L 354.434395 156.507678 
L 356.065825 155.751909 
L 357.697254 156.507678 
L 359.328684 155.54579 
L 360.960114 155.889322 
L 362.591544 155.683203 
L 365.854404 156.232853 
L 367.485834 156.713797 
L 369.117264 155.614497 
L 370.748693 154.858728 
L 372.380123 155.408378 
L 374.011553 153.622015 
L 375.642983 155.958028 
L 377.274413 154.858728 
L 380.537273 155.683203 
L 380.537273 155.683203 
" clip-path="url(#p303ff38db4)" style="fill: none; stroke: #d62728; stroke-width: 1.5; stroke-linecap: square"/>
   </g>
   <g id="patch_3">
    <path d="M 39.65 273.312 
L 39.65 7.2 
" style="fill: none; stroke: #000000; stroke-width: 0.8; stroke-linejoin: miter; stroke-linecap: square"/>
   </g>
   <g id="patch_4">
    <path d="M 396.77 273.312 
L 396.77 7.2 
" style="fill: none; stroke: #000000; stroke-width: 0.8; stroke-linejoin: miter; stroke-linecap: square"/>
   </g>
   <g id="patch_5">
    <path d="M 39.65 273.312 
L 396.77 273.312 
" style="fill: none; stroke: #000000; stroke-width: 0.8; stroke-linejoin: miter; stroke-linecap: square"/>
   </g>
   <g id="patch_6">
    <path d="M 39.65 7.2 
L 396.77 7.2 
" style="fill: none; stroke: #000000; stroke-width: 0.8; stroke-linejoin: miter; stroke-linecap: square"/>
   </g>
  </g>
 </g>
 <defs>
  <clipPath id="p303ff38db4">
   <rect x="39.65" y="7.2" width="357.12" height="266.112"/>
  </clipPath>
 </defs>
</svg>
