<?xml version="1.0" encoding="utf-8" standalone="no"?>
<!DOCTYPE svg PUBLIC "-//W3C//DTD SVG 1.1//EN"
  "http://www.w3.org/Graphics/SVG/1.1/DTD/svg11.dtd">
<svg xmlns:xlink="http://www.w3.org/1999/xlink" width="403.97pt" height="297.190125pt" viewBox="0 0 403.97 297.190125" xmlns="http://www.w3.org/2000/svg" version="1.1">
 <metadata>
  <rdf:RDF xmlns:dc="http://purl.org/dc/elements/1.1/" xmlns:cc="http://creativecommons.org/ns#" xmlns:rdf="http://www.w3.org/1999/02/22-rdf-syntax-ns#">
   <cc:Work>
    <dc:type rdf:resource="http://purl.org/dc/dcmitype/StillImage"/>
    <dc:date>2024-06-10T12:09:23.940902</dc:date>
    <dc:format>image/svg+xml</dc:format>
    <dc:creator>
     <cc:Agent>
      <dc:title>Matplotlib v3.9.0, https://matplotlib.org/</dc:title>
     </cc:Agent>
    </dc:creator>
   </cc:Work>
  </rdf:RDF>
 </metadata>
 <defs>
  <style type="text/css">*{stroke-linejoin: round; stroke-linecap: butt}</style>
 </defs>
 <g id="figure_1">
  <g id="patch_1">
   <path d="M 0 297.190125 
L 403.97 297.190125 
L 403.97 0 
L 0 0 
z
" style="fill: #ffffff"/>
  </g>
  <g id="axes_1">
   <g id="patch_2">
    <path d="M 39.65 273.312 
L 396.77 273.312 
L 396.77 7.2 
L 39.65 7.2 
z
" style="fill: #ffffff"/>
   </g>
   <g id="matplotlib.axis_1">
    <g id="xtick_1">
     <g id="line2d_1">
      <defs>
       <path id="m112ae61022" d="M 0 0 
L 0 3.5 
" style="stroke: #000000; stroke-width: 0.8"/>
      </defs>
      <g>
       <use xlink:href="#m112ae61022" x="55.882727" y="273.312" style="stroke: #000000; stroke-width: 0.8"/>
      </g>
     </g>
     <g id="text_1">
      <!-- 0.0 -->
      <g transform="translate(47.931165 287.910437) scale(0.1 -0.1)">
       <defs>
        <path id="DejaVuSans-30" d="M 2034 4250 
Q 1547 4250 1301 3770 
Q 1056 3291 1056 2328 
Q 1056 1369 1301 889 
Q 1547 409 2034 409 
Q 2525 409 2770 889 
Q 3016 1369 3016 2328 
Q 3016 3291 2770 3770 
Q 2525 4250 2034 4250 
z
M 2034 4750 
Q 2819 4750 3233 4129 
Q 3647 3509 3647 2328 
Q 3647 1150 3233 529 
Q 2819 -91 2034 -91 
Q 1250 -91 836 529 
Q 422 1150 422 2328 
Q 422 3509 836 4129 
Q 1250 4750 2034 4750 
z
" transform="scale(0.015625)"/>
        <path id="DejaVuSans-2e" d="M 684 794 
L 1344 794 
L 1344 0 
L 684 0 
L 684 794 
z
" transform="scale(0.015625)"/>
       </defs>
       <use xlink:href="#DejaVuSans-30"/>
       <use xlink:href="#DejaVuSans-2e" x="63.623047"/>
       <use xlink:href="#DejaVuSans-30" x="95.410156"/>
      </g>
     </g>
    </g>
    <g id="xtick_2">
     <g id="line2d_2">
      <g>
       <use xlink:href="#m112ae61022" x="96.668474" y="273.312" style="stroke: #000000; stroke-width: 0.8"/>
      </g>
     </g>
     <g id="text_2">
      <!-- 2.5 -->
      <g transform="translate(88.716912 287.910437) scale(0.1 -0.1)">
       <defs>
        <path id="DejaVuSans-32" d="M 1228 531 
L 3431 531 
L 3431 0 
L 469 0 
L 469 531 
Q 828 903 1448 1529 
Q 2069 2156 2228 2338 
Q 2531 2678 2651 2914 
Q 2772 3150 2772 3378 
Q 2772 3750 2511 3984 
Q 2250 4219 1831 4219 
Q 1534 4219 1204 4116 
Q 875 4013 500 3803 
L 500 4441 
Q 881 4594 1212 4672 
Q 1544 4750 1819 4750 
Q 2544 4750 2975 4387 
Q 3406 4025 3406 3419 
Q 3406 3131 3298 2873 
Q 3191 2616 2906 2266 
Q 2828 2175 2409 1742 
Q 1991 1309 1228 531 
z
" transform="scale(0.015625)"/>
        <path id="DejaVuSans-35" d="M 691 4666 
L 3169 4666 
L 3169 4134 
L 1269 4134 
L 1269 2991 
Q 1406 3038 1543 3061 
Q 1681 3084 1819 3084 
Q 2600 3084 3056 2656 
Q 3513 2228 3513 1497 
Q 3513 744 3044 326 
Q 2575 -91 1722 -91 
Q 1428 -91 1123 -41 
Q 819 9 494 109 
L 494 744 
Q 775 591 1075 516 
Q 1375 441 1709 441 
Q 2250 441 2565 725 
Q 2881 1009 2881 1497 
Q 2881 1984 2565 2268 
Q 2250 2553 1709 2553 
Q 1456 2553 1204 2497 
Q 953 2441 691 2322 
L 691 4666 
z
" transform="scale(0.015625)"/>
       </defs>
       <use xlink:href="#DejaVuSans-32"/>
       <use xlink:href="#DejaVuSans-2e" x="63.623047"/>
       <use xlink:href="#DejaVuSans-35" x="95.410156"/>
      </g>
     </g>
    </g>
    <g id="xtick_3">
     <g id="line2d_3">
      <g>
       <use xlink:href="#m112ae61022" x="137.454221" y="273.312" style="stroke: #000000; stroke-width: 0.8"/>
      </g>
     </g>
     <g id="text_3">
      <!-- 5.0 -->
      <g transform="translate(129.502659 287.910437) scale(0.1 -0.1)">
       <use xlink:href="#DejaVuSans-35"/>
       <use xlink:href="#DejaVuSans-2e" x="63.623047"/>
       <use xlink:href="#DejaVuSans-30" x="95.410156"/>
      </g>
     </g>
    </g>
    <g id="xtick_4">
     <g id="line2d_4">
      <g>
       <use xlink:href="#m112ae61022" x="178.239968" y="273.312" style="stroke: #000000; stroke-width: 0.8"/>
      </g>
     </g>
     <g id="text_4">
      <!-- 7.5 -->
      <g transform="translate(170.288406 287.910437) scale(0.1 -0.1)">
       <defs>
        <path id="DejaVuSans-37" d="M 525 4666 
L 3525 4666 
L 3525 4397 
L 1831 0 
L 1172 0 
L 2766 4134 
L 525 4134 
L 525 4666 
z
" transform="scale(0.015625)"/>
       </defs>
       <use xlink:href="#DejaVuSans-37"/>
       <use xlink:href="#DejaVuSans-2e" x="63.623047"/>
       <use xlink:href="#DejaVuSans-35" x="95.410156"/>
      </g>
     </g>
    </g>
    <g id="xtick_5">
     <g id="line2d_5">
      <g>
       <use xlink:href="#m112ae61022" x="219.025715" y="273.312" style="stroke: #000000; stroke-width: 0.8"/>
      </g>
     </g>
     <g id="text_5">
      <!-- 10.0 -->
      <g transform="translate(207.892902 287.910437) scale(0.1 -0.1)">
       <defs>
        <path id="DejaVuSans-31" d="M 794 531 
L 1825 531 
L 1825 4091 
L 703 3866 
L 703 4441 
L 1819 4666 
L 2450 4666 
L 2450 531 
L 3481 531 
L 3481 0 
L 794 0 
L 794 531 
z
" transform="scale(0.015625)"/>
       </defs>
       <use xlink:href="#DejaVuSans-31"/>
       <use xlink:href="#DejaVuSans-30" x="63.623047"/>
       <use xlink:href="#DejaVuSans-2e" x="127.246094"/>
       <use xlink:href="#DejaVuSans-30" x="159.033203"/>
      </g>
     </g>
    </g>
    <g id="xtick_6">
     <g id="line2d_6">
      <g>
       <use xlink:href="#m112ae61022" x="259.811462" y="273.312" style="stroke: #000000; stroke-width: 0.8"/>
      </g>
     </g>
     <g id="text_6">
      <!-- 12.5 -->
      <g transform="translate(248.678649 287.910437) scale(0.1 -0.1)">
       <use xlink:href="#DejaVuSans-31"/>
       <use xlink:href="#DejaVuSans-32" x="63.623047"/>
       <use xlink:href="#DejaVuSans-2e" x="127.246094"/>
       <use xlink:href="#DejaVuSans-35" x="159.033203"/>
      </g>
     </g>
    </g>
    <g id="xtick_7">
     <g id="line2d_7">
      <g>
       <use xlink:href="#m112ae61022" x="300.597209" y="273.312" style="stroke: #000000; stroke-width: 0.8"/>
      </g>
     </g>
     <g id="text_7">
      <!-- 15.0 -->
      <g transform="translate(289.464396 287.910437) scale(0.1 -0.1)">
       <use xlink:href="#DejaVuSans-31"/>
       <use xlink:href="#DejaVuSans-35" x="63.623047"/>
       <use xlink:href="#DejaVuSans-2e" x="127.246094"/>
       <use xlink:href="#DejaVuSans-30" x="159.033203"/>
      </g>
     </g>
    </g>
    <g id="xtick_8">
     <g id="line2d_8">
      <g>
       <use xlink:href="#m112ae61022" x="341.382956" y="273.312" style="stroke: #000000; stroke-width: 0.8"/>
      </g>
     </g>
     <g id="text_8">
      <!-- 17.5 -->
      <g transform="translate(330.250143 287.910437) scale(0.1 -0.1)">
       <use xlink:href="#DejaVuSans-31"/>
       <use xlink:href="#DejaVuSans-37" x="63.623047"/>
       <use xlink:href="#DejaVuSans-2e" x="127.246094"/>
       <use xlink:href="#DejaVuSans-35" x="159.033203"/>
      </g>
     </g>
    </g>
    <g id="xtick_9">
     <g id="line2d_9">
      <g>
       <use xlink:href="#m112ae61022" x="382.168703" y="273.312" style="stroke: #000000; stroke-width: 0.8"/>
      </g>
     </g>
     <g id="text_9">
      <!-- 20.0 -->
      <g transform="translate(371.03589 287.910437) scale(0.1 -0.1)">
       <use xlink:href="#DejaVuSans-32"/>
       <use xlink:href="#DejaVuSans-30" x="63.623047"/>
       <use xlink:href="#DejaVuSans-2e" x="127.246094"/>
       <use xlink:href="#DejaVuSans-30" x="159.033203"/>
      </g>
     </g>
    </g>
   </g>
   <g id="matplotlib.axis_2">
    <g id="ytick_1">
     <g id="line2d_10">
      <defs>
       <path id="m96903893ea" d="M 0 0 
L -3.5 0 
" style="stroke: #000000; stroke-width: 0.8"/>
      </defs>
      <g>
       <use xlink:href="#m96903893ea" x="39.65" y="261.216" style="stroke: #000000; stroke-width: 0.8"/>
      </g>
     </g>
     <g id="text_10">
      <!-- 0 -->
      <g transform="translate(26.2875 265.015219) scale(0.1 -0.1)">
       <use xlink:href="#DejaVuSans-30"/>
      </g>
     </g>
    </g>
    <g id="ytick_2">
     <g id="line2d_11">
      <g>
       <use xlink:href="#m96903893ea" x="39.65" y="226.862876" style="stroke: #000000; stroke-width: 0.8"/>
      </g>
     </g>
     <g id="text_11">
      <!-- 500 -->
      <g transform="translate(13.5625 230.662095) scale(0.1 -0.1)">
       <use xlink:href="#DejaVuSans-35"/>
       <use xlink:href="#DejaVuSans-30" x="63.623047"/>
       <use xlink:href="#DejaVuSans-30" x="127.246094"/>
      </g>
     </g>
    </g>
    <g id="ytick_3">
     <g id="line2d_12">
      <g>
       <use xlink:href="#m96903893ea" x="39.65" y="192.509752" style="stroke: #000000; stroke-width: 0.8"/>
      </g>
     </g>
     <g id="text_12">
      <!-- 1000 -->
      <g transform="translate(7.2 196.308971) scale(0.1 -0.1)">
       <use xlink:href="#DejaVuSans-31"/>
       <use xlink:href="#DejaVuSans-30" x="63.623047"/>
       <use xlink:href="#DejaVuSans-30" x="127.246094"/>
       <use xlink:href="#DejaVuSans-30" x="190.869141"/>
      </g>
     </g>
    </g>
    <g id="ytick_4">
     <g id="line2d_13">
      <g>
       <use xlink:href="#m96903893ea" x="39.65" y="158.156628" style="stroke: #000000; stroke-width: 0.8"/>
      </g>
     </g>
     <g id="text_13">
      <!-- 1500 -->
      <g transform="translate(7.2 161.955847) scale(0.1 -0.1)">
       <use xlink:href="#DejaVuSans-31"/>
       <use xlink:href="#DejaVuSans-35" x="63.623047"/>
       <use xlink:href="#DejaVuSans-30" x="127.246094"/>
       <use xlink:href="#DejaVuSans-30" x="190.869141"/>
      </g>
     </g>
    </g>
    <g id="ytick_5">
     <g id="line2d_14">
      <g>
       <use xlink:href="#m96903893ea" x="39.65" y="123.803504" style="stroke: #000000; stroke-width: 0.8"/>
      </g>
     </g>
     <g id="text_14">
      <!-- 2000 -->
      <g transform="translate(7.2 127.602722) scale(0.1 -0.1)">
       <use xlink:href="#DejaVuSans-32"/>
       <use xlink:href="#DejaVuSans-30" x="63.623047"/>
       <use xlink:href="#DejaVuSans-30" x="127.246094"/>
       <use xlink:href="#DejaVuSans-30" x="190.869141"/>
      </g>
     </g>
    </g>
    <g id="ytick_6">
     <g id="line2d_15">
      <g>
       <use xlink:href="#m96903893ea" x="39.65" y="89.45038" style="stroke: #000000; stroke-width: 0.8"/>
      </g>
     </g>
     <g id="text_15">
      <!-- 2500 -->
      <g transform="translate(7.2 93.249598) scale(0.1 -0.1)">
       <use xlink:href="#DejaVuSans-32"/>
       <use xlink:href="#DejaVuSans-35" x="63.623047"/>
       <use xlink:href="#DejaVuSans-30" x="127.246094"/>
       <use xlink:href="#DejaVuSans-30" x="190.869141"/>
      </g>
     </g>
    </g>
    <g id="ytick_7">
     <g id="line2d_16">
      <g>
       <use xlink:href="#m96903893ea" x="39.65" y="55.097256" style="stroke: #000000; stroke-width: 0.8"/>
      </g>
     </g>
     <g id="text_16">
      <!-- 3000 -->
      <g transform="translate(7.2 58.896474) scale(0.1 -0.1)">
       <defs>
        <path id="DejaVuSans-33" d="M 2597 2516 
Q 3050 2419 3304 2112 
Q 3559 1806 3559 1356 
Q 3559 666 3084 287 
Q 2609 -91 1734 -91 
Q 1441 -91 1130 -33 
Q 819 25 488 141 
L 488 750 
Q 750 597 1062 519 
Q 1375 441 1716 441 
Q 2309 441 2620 675 
Q 2931 909 2931 1356 
Q 2931 1769 2642 2001 
Q 2353 2234 1838 2234 
L 1294 2234 
L 1294 2753 
L 1863 2753 
Q 2328 2753 2575 2939 
Q 2822 3125 2822 3475 
Q 2822 3834 2567 4026 
Q 2313 4219 1838 4219 
Q 1578 4219 1281 4162 
Q 984 4106 628 3988 
L 628 4550 
Q 988 4650 1302 4700 
Q 1616 4750 1894 4750 
Q 2613 4750 3031 4423 
Q 3450 4097 3450 3541 
Q 3450 3153 3228 2886 
Q 3006 2619 2597 2516 
z
" transform="scale(0.015625)"/>
       </defs>
       <use xlink:href="#DejaVuSans-33"/>
       <use xlink:href="#DejaVuSans-30" x="63.623047"/>
       <use xlink:href="#DejaVuSans-30" x="127.246094"/>
       <use xlink:href="#DejaVuSans-30" x="190.869141"/>
      </g>
     </g>
    </g>
    <g id="ytick_8">
     <g id="line2d_17">
      <g>
       <use xlink:href="#m96903893ea" x="39.65" y="20.744132" style="stroke: #000000; stroke-width: 0.8"/>
      </g>
     </g>
     <g id="text_17">
      <!-- 3500 -->
      <g transform="translate(7.2 24.54335) scale(0.1 -0.1)">
       <use xlink:href="#DejaVuSans-33"/>
       <use xlink:href="#DejaVuSans-35" x="63.623047"/>
       <use xlink:href="#DejaVuSans-30" x="127.246094"/>
       <use xlink:href="#DejaVuSans-30" x="190.869141"/>
      </g>
     </g>
    </g>
   </g>
   <g id="line2d_18">
    <path d="M 55.882727 261.216 
L 72.197026 192.509752 
L 88.511325 143.281725 
L 104.825624 108.009844 
L 121.139922 82.737541 
L 137.454221 64.629936 
L 153.76852 51.655837 
L 170.082819 42.359895 
L 186.397117 35.699353 
L 202.711416 30.927074 
L 219.025715 27.507736 
L 235.340014 25.057781 
L 251.654312 23.302388 
L 267.968611 22.044649 
L 284.28291 21.143479 
L 300.597209 20.49779 
L 316.911508 20.035155 
L 333.225806 19.703676 
L 349.540105 19.466172 
L 365.854404 19.296 
" clip-path="url(#p1a3840a43d)" style="fill: none; stroke: #1f77b4; stroke-width: 1.5; stroke-linecap: square"/>
   </g>
   <g id="line2d_19">
    <path d="M 55.882727 261.216 
L 72.197026 261.216 
L 88.511325 238.313917 
L 104.825624 210.146646 
L 121.139922 183.928275 
L 137.454221 162.043662 
L 153.76852 144.772234 
L 170.082819 131.580383 
L 186.397117 121.709039 
L 202.711416 114.420911 
L 219.025715 109.088426 
L 235.340014 105.210949 
L 251.654312 102.4036 
L 267.968611 100.377177 
L 284.28291 98.917564 
L 300.597209 97.867809 
L 316.911508 97.113636 
L 333.225806 96.572231 
L 349.540105 96.183781 
L 365.854404 95.905183 
" clip-path="url(#p1a3840a43d)" style="fill: none; stroke: #ff7f0e; stroke-width: 1.5; stroke-linecap: square"/>
   </g>
   <g id="line2d_20">
    <path d="M 55.882727 261.216 
L 59.145587 247.268632 
L 62.408447 234.420563 
L 65.671307 221.228964 
L 67.302736 214.70187 
L 68.934166 209.617608 
L 70.565596 205.151702 
L 72.197026 199.930027 
L 73.828456 196.700833 
L 75.459886 191.685277 
L 77.091316 187.219371 
L 81.985605 172.722352 
L 83.617035 169.561865 
L 85.248465 166.882321 
L 86.879895 163.927953 
L 88.511325 160.423934 
L 90.142755 155.683203 
L 91.774185 152.316597 
L 93.405614 149.911878 
L 95.037044 146.407859 
L 96.668474 144.346672 
L 98.299904 141.804541 
L 99.931334 140.086885 
L 101.562764 137.544753 
L 104.825624 132.254372 
L 106.457053 129.574829 
L 108.088483 127.376229 
L 109.719913 123.32256 
L 111.351343 120.780429 
L 112.982773 117.619941 
L 114.614203 116.245816 
L 116.245633 114.322041 
L 119.508492 109.03166 
L 121.139922 106.83306 
L 122.771352 105.802467 
L 124.402782 102.229742 
L 126.034212 100.443379 
L 127.665642 98.450898 
L 129.297072 97.420304 
L 130.928502 98.176073 
L 132.559931 94.878173 
L 134.191361 92.816986 
L 135.822791 91.580273 
L 137.454221 90.618386 
L 139.085651 89.519086 
L 140.717081 87.664017 
L 142.348511 86.70213 
L 143.979941 84.778355 
L 145.61137 84.022586 
L 147.2428 82.85458 
L 148.87423 81.343042 
L 150.50566 80.175036 
L 152.13709 79.625386 
L 153.76852 77.289374 
L 155.39995 75.70913 
L 157.03138 75.70913 
L 158.66281 74.197593 
L 160.294239 75.365599 
L 161.925669 75.434305 
L 163.557099 74.541124 
L 165.188529 77.083255 
L 166.819959 75.296893 
L 168.451389 76.877136 
L 170.082819 75.983955 
L 171.714249 73.579236 
L 173.345678 71.655461 
L 174.977108 70.968399 
L 176.608538 71.998993 
L 179.871398 68.975918 
L 181.502828 70.143924 
L 183.134258 69.800393 
L 184.765688 70.075218 
L 186.397117 70.21263 
L 188.028547 68.082736 
L 189.659977 66.639905 
L 191.291407 67.533087 
L 192.922837 66.777318 
L 194.554267 66.227668 
L 196.185697 63.891655 
L 197.817127 64.097774 
L 199.448556 63.754243 
L 201.079986 63.822949 
L 202.711416 63.342005 
L 204.342846 64.510012 
L 205.974276 63.822949 
L 207.605706 61.41823 
L 209.237136 61.96788 
L 210.868566 60.525049 
L 212.499995 60.112812 
L 214.131425 59.975399 
L 215.762855 60.31893 
L 217.394285 59.288337 
L 219.025715 60.662462 
L 220.657145 58.395156 
L 223.920005 59.288337 
L 225.551434 61.005993 
L 227.182864 61.486937 
L 228.814294 62.105293 
L 230.445724 61.96788 
L 232.077154 62.311412 
L 235.340014 59.357043 
L 236.971444 59.975399 
L 238.602873 60.044105 
L 240.234303 59.425749 
L 241.865733 59.563162 
L 243.497163 59.425749 
L 245.128593 57.570681 
L 246.760023 57.845506 
L 248.391453 57.982918 
L 250.022883 58.738687 
L 251.654312 59.013512 
L 253.285742 58.601274 
L 254.917172 57.570681 
L 256.548602 57.708093 
L 258.180032 57.708093 
L 259.811462 59.21963 
L 261.442892 58.051624 
L 263.074322 55.921731 
L 264.705751 56.402674 
L 266.337181 54.204074 
L 269.600041 54.135368 
L 271.231471 53.929249 
L 272.862901 52.761243 
L 274.494331 52.967362 
L 276.125761 53.723131 
L 277.75719 52.898656 
L 279.38862 52.211593 
L 281.02005 53.242187 
L 282.65148 51.868062 
L 284.28291 52.623831 
L 285.91434 52.074181 
L 287.54577 51.661943 
L 289.1772 52.349006 
L 290.80863 51.387118 
L 292.440059 50.906174 
L 294.071489 51.112293 
L 295.702919 52.623831 
L 297.334349 52.555124 
L 298.965779 53.517012 
L 300.597209 53.654424 
L 302.228639 53.448306 
L 303.860069 54.341487 
L 305.491498 54.341487 
L 307.122928 53.310893 
L 308.754358 54.547606 
L 310.385788 55.303374 
L 313.648648 54.410193 
L 315.280078 54.753724 
L 316.911508 54.547606 
L 318.542937 52.829949 
L 321.805797 51.249706 
L 323.437227 51.730649 
L 325.068657 51.936768 
L 326.700087 52.280299 
L 328.331517 53.379599 
L 329.962947 51.249706 
L 331.594376 51.593237 
L 333.225806 53.036068 
L 334.857236 53.104774 
L 336.488666 53.723131 
L 338.120096 53.310893 
L 339.751526 52.761243 
L 343.014386 53.310893 
L 344.645815 51.661943 
L 346.277245 52.898656 
L 347.908675 51.249706 
L 349.540105 51.730649 
L 351.171535 51.455824 
L 352.802965 50.425231 
L 354.434395 51.936768 
L 356.065825 52.898656 
L 357.697254 55.097256 
L 359.328684 55.165962 
L 360.960114 55.784318 
L 362.591544 56.677499 
L 364.222974 57.708093 
L 365.854404 59.082218 
L 367.485834 59.837987 
L 369.117264 60.112812 
L 370.748693 61.761762 
L 372.380123 60.525049 
L 374.011553 59.700574 
L 375.642983 60.593755 
L 377.274413 60.86858 
L 378.905843 61.486937 
L 380.537273 62.723649 
L 380.537273 62.723649 
" clip-path="url(#p1a3840a43d)" style="fill: none; stroke: #2ca02c; stroke-width: 1.5; stroke-linecap: square"/>
   </g>
   <g id="line2d_21">
    <path d="M 55.882727 261.216 
L 57.514157 261.216 
L 59.145587 261.009881 
L 60.777017 260.597644 
L 62.408447 259.979288 
L 64.039877 259.223519 
L 67.302736 256.956213 
L 68.934166 256.063031 
L 70.565596 255.307263 
L 72.197026 254.688906 
L 73.828456 252.765131 
L 75.459886 251.459713 
L 78.722746 248.0244 
L 85.248465 239.573532 
L 86.879895 236.893988 
L 88.511325 234.901507 
L 90.142755 233.733501 
L 91.774185 232.015845 
L 93.405614 230.023363 
L 95.037044 227.756057 
L 98.299904 225.076513 
L 99.931334 221.916026 
L 101.562764 220.404489 
L 103.194194 219.373895 
L 104.825624 217.656239 
L 106.457053 216.556939 
L 108.088483 214.907989 
L 109.719913 213.946101 
L 111.351343 213.465158 
L 112.982773 212.091033 
L 114.614203 210.167258 
L 116.245633 208.930545 
L 117.877063 208.037364 
L 122.771352 203.365339 
L 124.402782 203.15922 
L 126.034212 201.716389 
L 127.665642 200.479677 
L 130.928502 196.151183 
L 132.559931 195.945064 
L 134.191361 195.189296 
L 137.454221 192.234927 
L 139.085651 190.585977 
L 140.717081 189.486677 
L 142.348511 188.730908 
L 143.979941 189.624089 
L 145.61137 188.868321 
L 147.2428 187.42549 
L 148.87423 187.42549 
L 150.50566 187.288077 
L 152.13709 186.601015 
L 155.39995 185.913952 
L 157.03138 184.333708 
L 158.66281 183.852765 
L 160.294239 181.654165 
L 161.925669 181.173221 
L 163.557099 179.73039 
L 165.188529 176.295077 
L 166.819959 176.363784 
L 168.451389 175.058365 
L 170.082819 174.027771 
L 171.714249 176.226371 
L 173.345678 177.050846 
L 174.977108 176.844727 
L 176.608538 176.157665 
L 178.239968 177.394377 
L 179.871398 176.98214 
L 181.502828 176.913434 
L 183.134258 176.226371 
L 184.765688 175.195777 
L 186.397117 174.027771 
L 188.028547 174.508715 
L 189.659977 173.409415 
L 191.291407 170.729871 
L 192.922837 170.317634 
L 194.554267 169.424452 
L 196.185697 169.974102 
L 197.817127 168.874803 
L 199.448556 166.744909 
L 201.079986 166.951028 
L 202.711416 166.882321 
L 204.342846 167.706796 
L 205.974276 166.401378 
L 207.605706 168.393859 
L 209.237136 168.462565 
L 210.868566 168.806096 
L 212.499995 169.974102 
L 214.131425 168.874803 
L 215.762855 167.363265 
L 217.394285 166.401378 
L 219.025715 164.683721 
L 220.657145 167.157146 
L 222.288575 167.019734 
L 223.920005 167.63809 
L 225.551434 166.882321 
L 227.182864 165.714315 
L 228.814294 164.065365 
L 230.445724 163.103478 
L 233.708584 165.576903 
L 235.340014 166.126553 
L 236.971444 166.53879 
L 240.234303 166.53879 
L 241.865733 166.813615 
L 243.497163 165.851728 
L 245.128593 166.263965 
L 251.654312 160.904878 
L 253.285742 162.004178 
L 254.917172 163.515715 
L 256.548602 163.653128 
L 258.180032 163.034771 
L 259.811462 163.447009 
L 261.442892 163.653128 
L 263.074322 164.065365 
L 264.705751 161.866765 
L 266.337181 162.553828 
L 267.968611 163.447009 
L 269.600041 162.897359 
L 271.231471 163.103478 
L 272.862901 164.408896 
L 274.494331 163.79054 
L 276.125761 163.034771 
L 277.75719 162.966065 
L 279.38862 163.721834 
L 281.02005 162.347709 
L 282.65148 162.279003 
L 284.28291 160.149109 
L 285.91434 160.630053 
L 289.1772 159.462047 
L 290.80863 158.568865 
L 292.440059 159.462047 
L 294.071489 160.011696 
L 295.702919 158.84369 
L 297.334349 158.431453 
L 298.965779 153.759428 
L 302.228639 155.614497 
L 303.860069 156.232853 
L 305.491498 157.400859 
L 307.122928 159.118515 
L 308.754358 158.500159 
L 310.385788 157.675684 
L 312.017218 157.675684 
L 313.648648 158.087922 
L 315.280078 157.881803 
L 316.911508 157.057328 
L 318.542937 157.950509 
L 320.174367 157.813097 
L 321.805797 158.500159 
L 323.437227 158.156628 
L 325.068657 156.576384 
L 326.700087 157.057328 
L 328.331517 157.74439 
L 329.962947 158.706278 
L 331.594376 159.94299 
L 333.225806 158.431453 
L 334.857236 158.637572 
L 336.488666 157.675684 
L 338.120096 157.263447 
L 339.751526 158.087922 
L 341.382956 157.332153 
L 343.014386 158.087922 
L 344.645815 158.087922 
L 346.277245 157.881803 
L 347.908675 158.156628 
L 349.540105 157.950509 
L 351.171535 158.706278 
L 352.802965 160.561346 
L 354.434395 160.011696 
L 356.065825 159.874284 
L 357.697254 158.500159 
L 359.328684 158.774984 
L 360.960114 158.362747 
L 362.591544 156.301559 
L 365.854404 157.332153 
L 367.485834 157.675684 
L 369.117264 158.568865 
L 370.748693 158.019215 
L 372.380123 159.805578 
L 374.011553 160.286521 
L 375.642983 159.874284 
L 377.274413 159.049809 
L 378.905843 157.813097 
L 380.537273 158.431453 
L 380.537273 158.431453 
" clip-path="url(#p1a3840a43d)" style="fill: none; stroke: #d62728; stroke-width: 1.5; stroke-linecap: square"/>
   </g>
   <g id="patch_3">
    <path d="M 39.65 273.312 
L 39.65 7.2 
" style="fill: none; stroke: #000000; stroke-width: 0.8; stroke-linejoin: miter; stroke-linecap: square"/>
   </g>
   <g id="patch_4">
    <path d="M 396.77 273.312 
L 396.77 7.2 
" style="fill: none; stroke: #000000; stroke-width: 0.8; stroke-linejoin: miter; stroke-linecap: square"/>
   </g>
   <g id="patch_5">
    <path d="M 39.65 273.312 
L 396.77 273.312 
" style="fill: none; stroke: #000000; stroke-width: 0.8; stroke-linejoin: miter; stroke-linecap: square"/>
   </g>
   <g id="patch_6">
    <path d="M 39.65 7.2 
L 396.77 7.2 
" style="fill: none; stroke: #000000; stroke-width: 0.8; stroke-linejoin: miter; stroke-linecap: square"/>
   </g>
  </g>
 </g>
 <defs>
  <clipPath id="p1a3840a43d">
   <rect x="39.65" y="7.2" width="357.12" height="266.112"/>
  </clipPath>
 </defs>
</svg>
