<?xml version="1.0" encoding="utf-8" standalone="no"?>
<!DOCTYPE svg PUBLIC "-//W3C//DTD SVG 1.1//EN"
  "http://www.w3.org/Graphics/SVG/1.1/DTD/svg11.dtd">
<svg xmlns:xlink="http://www.w3.org/1999/xlink" width="403.97pt" height="297.190125pt" viewBox="0 0 403.97 297.190125" xmlns="http://www.w3.org/2000/svg" version="1.1">
 <metadata>
  <rdf:RDF xmlns:dc="http://purl.org/dc/elements/1.1/" xmlns:cc="http://creativecommons.org/ns#" xmlns:rdf="http://www.w3.org/1999/02/22-rdf-syntax-ns#">
   <cc:Work>
    <dc:type rdf:resource="http://purl.org/dc/dcmitype/StillImage"/>
    <dc:date>2024-09-11T22:15:15.694131</dc:date>
    <dc:format>image/svg+xml</dc:format>
    <dc:creator>
     <cc:Agent>
      <dc:title>Matplotlib v3.9.2, https://matplotlib.org/</dc:title>
     </cc:Agent>
    </dc:creator>
   </cc:Work>
  </rdf:RDF>
 </metadata>
 <defs>
  <style type="text/css">*{stroke-linejoin: round; stroke-linecap: butt}</style>
 </defs>
 <g id="figure_1">
  <g id="patch_1">
   <path d="M 0 297.190125 
L 403.97 297.190125 
L 403.97 0 
L 0 0 
z
" style="fill: #ffffff"/>
  </g>
  <g id="axes_1">
   <g id="patch_2">
    <path d="M 39.65 273.312 
L 396.77 273.312 
L 396.77 7.2 
L 39.65 7.2 
z
" style="fill: #ffffff"/>
   </g>
   <g id="matplotlib.axis_1">
    <g id="xtick_1">
     <g id="line2d_1">
      <defs>
       <path id="m76e989472d" d="M 0 0 
L 0 3.5 
" style="stroke: #000000; stroke-width: 0.8"/>
      </defs>
      <g>
       <use xlink:href="#m76e989472d" x="55.882727" y="273.312" style="stroke: #000000; stroke-width: 0.8"/>
      </g>
     </g>
     <g id="text_1">
      <!-- 0.0 -->
      <g transform="translate(47.931165 287.910437) scale(0.1 -0.1)">
       <defs>
        <path id="DejaVuSans-30" d="M 2034 4250 
Q 1547 4250 1301 3770 
Q 1056 3291 1056 2328 
Q 1056 1369 1301 889 
Q 1547 409 2034 409 
Q 2525 409 2770 889 
Q 3016 1369 3016 2328 
Q 3016 3291 2770 3770 
Q 2525 4250 2034 4250 
z
M 2034 4750 
Q 2819 4750 3233 4129 
Q 3647 3509 3647 2328 
Q 3647 1150 3233 529 
Q 2819 -91 2034 -91 
Q 1250 -91 836 529 
Q 422 1150 422 2328 
Q 422 3509 836 4129 
Q 1250 4750 2034 4750 
z
" transform="scale(0.015625)"/>
        <path id="DejaVuSans-2e" d="M 684 794 
L 1344 794 
L 1344 0 
L 684 0 
L 684 794 
z
" transform="scale(0.015625)"/>
       </defs>
       <use xlink:href="#DejaVuSans-30"/>
       <use xlink:href="#DejaVuSans-2e" x="63.623047"/>
       <use xlink:href="#DejaVuSans-30" x="95.410156"/>
      </g>
     </g>
    </g>
    <g id="xtick_2">
     <g id="line2d_2">
      <g>
       <use xlink:href="#m76e989472d" x="96.668474" y="273.312" style="stroke: #000000; stroke-width: 0.8"/>
      </g>
     </g>
     <g id="text_2">
      <!-- 2.5 -->
      <g transform="translate(88.716912 287.910437) scale(0.1 -0.1)">
       <defs>
        <path id="DejaVuSans-32" d="M 1228 531 
L 3431 531 
L 3431 0 
L 469 0 
L 469 531 
Q 828 903 1448 1529 
Q 2069 2156 2228 2338 
Q 2531 2678 2651 2914 
Q 2772 3150 2772 3378 
Q 2772 3750 2511 3984 
Q 2250 4219 1831 4219 
Q 1534 4219 1204 4116 
Q 875 4013 500 3803 
L 500 4441 
Q 881 4594 1212 4672 
Q 1544 4750 1819 4750 
Q 2544 4750 2975 4387 
Q 3406 4025 3406 3419 
Q 3406 3131 3298 2873 
Q 3191 2616 2906 2266 
Q 2828 2175 2409 1742 
Q 1991 1309 1228 531 
z
" transform="scale(0.015625)"/>
        <path id="DejaVuSans-35" d="M 691 4666 
L 3169 4666 
L 3169 4134 
L 1269 4134 
L 1269 2991 
Q 1406 3038 1543 3061 
Q 1681 3084 1819 3084 
Q 2600 3084 3056 2656 
Q 3513 2228 3513 1497 
Q 3513 744 3044 326 
Q 2575 -91 1722 -91 
Q 1428 -91 1123 -41 
Q 819 9 494 109 
L 494 744 
Q 775 591 1075 516 
Q 1375 441 1709 441 
Q 2250 441 2565 725 
Q 2881 1009 2881 1497 
Q 2881 1984 2565 2268 
Q 2250 2553 1709 2553 
Q 1456 2553 1204 2497 
Q 953 2441 691 2322 
L 691 4666 
z
" transform="scale(0.015625)"/>
       </defs>
       <use xlink:href="#DejaVuSans-32"/>
       <use xlink:href="#DejaVuSans-2e" x="63.623047"/>
       <use xlink:href="#DejaVuSans-35" x="95.410156"/>
      </g>
     </g>
    </g>
    <g id="xtick_3">
     <g id="line2d_3">
      <g>
       <use xlink:href="#m76e989472d" x="137.454221" y="273.312" style="stroke: #000000; stroke-width: 0.8"/>
      </g>
     </g>
     <g id="text_3">
      <!-- 5.0 -->
      <g transform="translate(129.502659 287.910437) scale(0.1 -0.1)">
       <use xlink:href="#DejaVuSans-35"/>
       <use xlink:href="#DejaVuSans-2e" x="63.623047"/>
       <use xlink:href="#DejaVuSans-30" x="95.410156"/>
      </g>
     </g>
    </g>
    <g id="xtick_4">
     <g id="line2d_4">
      <g>
       <use xlink:href="#m76e989472d" x="178.239968" y="273.312" style="stroke: #000000; stroke-width: 0.8"/>
      </g>
     </g>
     <g id="text_4">
      <!-- 7.5 -->
      <g transform="translate(170.288406 287.910437) scale(0.1 -0.1)">
       <defs>
        <path id="DejaVuSans-37" d="M 525 4666 
L 3525 4666 
L 3525 4397 
L 1831 0 
L 1172 0 
L 2766 4134 
L 525 4134 
L 525 4666 
z
" transform="scale(0.015625)"/>
       </defs>
       <use xlink:href="#DejaVuSans-37"/>
       <use xlink:href="#DejaVuSans-2e" x="63.623047"/>
       <use xlink:href="#DejaVuSans-35" x="95.410156"/>
      </g>
     </g>
    </g>
    <g id="xtick_5">
     <g id="line2d_5">
      <g>
       <use xlink:href="#m76e989472d" x="219.025715" y="273.312" style="stroke: #000000; stroke-width: 0.8"/>
      </g>
     </g>
     <g id="text_5">
      <!-- 10.0 -->
      <g transform="translate(207.892902 287.910437) scale(0.1 -0.1)">
       <defs>
        <path id="DejaVuSans-31" d="M 794 531 
L 1825 531 
L 1825 4091 
L 703 3866 
L 703 4441 
L 1819 4666 
L 2450 4666 
L 2450 531 
L 3481 531 
L 3481 0 
L 794 0 
L 794 531 
z
" transform="scale(0.015625)"/>
       </defs>
       <use xlink:href="#DejaVuSans-31"/>
       <use xlink:href="#DejaVuSans-30" x="63.623047"/>
       <use xlink:href="#DejaVuSans-2e" x="127.246094"/>
       <use xlink:href="#DejaVuSans-30" x="159.033203"/>
      </g>
     </g>
    </g>
    <g id="xtick_6">
     <g id="line2d_6">
      <g>
       <use xlink:href="#m76e989472d" x="259.811462" y="273.312" style="stroke: #000000; stroke-width: 0.8"/>
      </g>
     </g>
     <g id="text_6">
      <!-- 12.5 -->
      <g transform="translate(248.678649 287.910437) scale(0.1 -0.1)">
       <use xlink:href="#DejaVuSans-31"/>
       <use xlink:href="#DejaVuSans-32" x="63.623047"/>
       <use xlink:href="#DejaVuSans-2e" x="127.246094"/>
       <use xlink:href="#DejaVuSans-35" x="159.033203"/>
      </g>
     </g>
    </g>
    <g id="xtick_7">
     <g id="line2d_7">
      <g>
       <use xlink:href="#m76e989472d" x="300.597209" y="273.312" style="stroke: #000000; stroke-width: 0.8"/>
      </g>
     </g>
     <g id="text_7">
      <!-- 15.0 -->
      <g transform="translate(289.464396 287.910437) scale(0.1 -0.1)">
       <use xlink:href="#DejaVuSans-31"/>
       <use xlink:href="#DejaVuSans-35" x="63.623047"/>
       <use xlink:href="#DejaVuSans-2e" x="127.246094"/>
       <use xlink:href="#DejaVuSans-30" x="159.033203"/>
      </g>
     </g>
    </g>
    <g id="xtick_8">
     <g id="line2d_8">
      <g>
       <use xlink:href="#m76e989472d" x="341.382956" y="273.312" style="stroke: #000000; stroke-width: 0.8"/>
      </g>
     </g>
     <g id="text_8">
      <!-- 17.5 -->
      <g transform="translate(330.250143 287.910437) scale(0.1 -0.1)">
       <use xlink:href="#DejaVuSans-31"/>
       <use xlink:href="#DejaVuSans-37" x="63.623047"/>
       <use xlink:href="#DejaVuSans-2e" x="127.246094"/>
       <use xlink:href="#DejaVuSans-35" x="159.033203"/>
      </g>
     </g>
    </g>
    <g id="xtick_9">
     <g id="line2d_9">
      <g>
       <use xlink:href="#m76e989472d" x="382.168703" y="273.312" style="stroke: #000000; stroke-width: 0.8"/>
      </g>
     </g>
     <g id="text_9">
      <!-- 20.0 -->
      <g transform="translate(371.03589 287.910437) scale(0.1 -0.1)">
       <use xlink:href="#DejaVuSans-32"/>
       <use xlink:href="#DejaVuSans-30" x="63.623047"/>
       <use xlink:href="#DejaVuSans-2e" x="127.246094"/>
       <use xlink:href="#DejaVuSans-30" x="159.033203"/>
      </g>
     </g>
    </g>
   </g>
   <g id="matplotlib.axis_2">
    <g id="ytick_1">
     <g id="line2d_10">
      <defs>
       <path id="m9812fe8be5" d="M 0 0 
L -3.5 0 
" style="stroke: #000000; stroke-width: 0.8"/>
      </defs>
      <g>
       <use xlink:href="#m9812fe8be5" x="39.65" y="261.216" style="stroke: #000000; stroke-width: 0.8"/>
      </g>
     </g>
     <g id="text_10">
      <!-- 0 -->
      <g transform="translate(26.2875 265.015219) scale(0.1 -0.1)">
       <use xlink:href="#DejaVuSans-30"/>
      </g>
     </g>
    </g>
    <g id="ytick_2">
     <g id="line2d_11">
      <g>
       <use xlink:href="#m9812fe8be5" x="39.65" y="222.455389" style="stroke: #000000; stroke-width: 0.8"/>
      </g>
     </g>
     <g id="text_11">
      <!-- 500 -->
      <g transform="translate(13.5625 226.254608) scale(0.1 -0.1)">
       <use xlink:href="#DejaVuSans-35"/>
       <use xlink:href="#DejaVuSans-30" x="63.623047"/>
       <use xlink:href="#DejaVuSans-30" x="127.246094"/>
      </g>
     </g>
    </g>
    <g id="ytick_3">
     <g id="line2d_12">
      <g>
       <use xlink:href="#m9812fe8be5" x="39.65" y="183.694778" style="stroke: #000000; stroke-width: 0.8"/>
      </g>
     </g>
     <g id="text_12">
      <!-- 1000 -->
      <g transform="translate(7.2 187.493997) scale(0.1 -0.1)">
       <use xlink:href="#DejaVuSans-31"/>
       <use xlink:href="#DejaVuSans-30" x="63.623047"/>
       <use xlink:href="#DejaVuSans-30" x="127.246094"/>
       <use xlink:href="#DejaVuSans-30" x="190.869141"/>
      </g>
     </g>
    </g>
    <g id="ytick_4">
     <g id="line2d_13">
      <g>
       <use xlink:href="#m9812fe8be5" x="39.65" y="144.934168" style="stroke: #000000; stroke-width: 0.8"/>
      </g>
     </g>
     <g id="text_13">
      <!-- 1500 -->
      <g transform="translate(7.2 148.733386) scale(0.1 -0.1)">
       <use xlink:href="#DejaVuSans-31"/>
       <use xlink:href="#DejaVuSans-35" x="63.623047"/>
       <use xlink:href="#DejaVuSans-30" x="127.246094"/>
       <use xlink:href="#DejaVuSans-30" x="190.869141"/>
      </g>
     </g>
    </g>
    <g id="ytick_5">
     <g id="line2d_14">
      <g>
       <use xlink:href="#m9812fe8be5" x="39.65" y="106.173557" style="stroke: #000000; stroke-width: 0.8"/>
      </g>
     </g>
     <g id="text_14">
      <!-- 2000 -->
      <g transform="translate(7.2 109.972776) scale(0.1 -0.1)">
       <use xlink:href="#DejaVuSans-32"/>
       <use xlink:href="#DejaVuSans-30" x="63.623047"/>
       <use xlink:href="#DejaVuSans-30" x="127.246094"/>
       <use xlink:href="#DejaVuSans-30" x="190.869141"/>
      </g>
     </g>
    </g>
    <g id="ytick_6">
     <g id="line2d_15">
      <g>
       <use xlink:href="#m9812fe8be5" x="39.65" y="67.412946" style="stroke: #000000; stroke-width: 0.8"/>
      </g>
     </g>
     <g id="text_15">
      <!-- 2500 -->
      <g transform="translate(7.2 71.212165) scale(0.1 -0.1)">
       <use xlink:href="#DejaVuSans-32"/>
       <use xlink:href="#DejaVuSans-35" x="63.623047"/>
       <use xlink:href="#DejaVuSans-30" x="127.246094"/>
       <use xlink:href="#DejaVuSans-30" x="190.869141"/>
      </g>
     </g>
    </g>
    <g id="ytick_7">
     <g id="line2d_16">
      <g>
       <use xlink:href="#m9812fe8be5" x="39.65" y="28.652335" style="stroke: #000000; stroke-width: 0.8"/>
      </g>
     </g>
     <g id="text_16">
      <!-- 3000 -->
      <g transform="translate(7.2 32.451554) scale(0.1 -0.1)">
       <defs>
        <path id="DejaVuSans-33" d="M 2597 2516 
Q 3050 2419 3304 2112 
Q 3559 1806 3559 1356 
Q 3559 666 3084 287 
Q 2609 -91 1734 -91 
Q 1441 -91 1130 -33 
Q 819 25 488 141 
L 488 750 
Q 750 597 1062 519 
Q 1375 441 1716 441 
Q 2309 441 2620 675 
Q 2931 909 2931 1356 
Q 2931 1769 2642 2001 
Q 2353 2234 1838 2234 
L 1294 2234 
L 1294 2753 
L 1863 2753 
Q 2328 2753 2575 2939 
Q 2822 3125 2822 3475 
Q 2822 3834 2567 4026 
Q 2313 4219 1838 4219 
Q 1578 4219 1281 4162 
Q 984 4106 628 3988 
L 628 4550 
Q 988 4650 1302 4700 
Q 1616 4750 1894 4750 
Q 2613 4750 3031 4423 
Q 3450 4097 3450 3541 
Q 3450 3153 3228 2886 
Q 3006 2619 2597 2516 
z
" transform="scale(0.015625)"/>
       </defs>
       <use xlink:href="#DejaVuSans-33"/>
       <use xlink:href="#DejaVuSans-30" x="63.623047"/>
       <use xlink:href="#DejaVuSans-30" x="127.246094"/>
       <use xlink:href="#DejaVuSans-30" x="190.869141"/>
      </g>
     </g>
    </g>
   </g>
   <g id="line2d_17">
    <path d="M 55.882727 261.216 
L 59.961302 241.835695 
L 64.039877 224.005814 
L 68.118451 207.602323 
L 72.197026 192.511112 
L 76.275601 178.627198 
L 80.354175 165.853996 
L 84.43275 154.102651 
L 88.511325 143.291414 
L 92.589899 133.345075 
L 96.668474 124.194444 
L 100.747049 115.775863 
L 104.825624 108.030769 
L 108.904198 100.905282 
L 112.982773 94.349834 
L 117.061348 88.318822 
L 121.139922 82.770291 
L 125.218497 77.665642 
L 129.297072 72.969365 
L 133.375646 68.648791 
L 137.454221 64.673862 
L 141.532796 61.016928 
L 145.61137 57.652548 
L 149.689945 54.557319 
L 153.76852 51.709708 
L 157.847095 49.089906 
L 161.925669 46.679688 
L 166.004244 44.462288 
L 170.082819 42.422279 
L 174.161393 40.545471 
L 178.239968 38.818808 
L 182.318543 37.230278 
L 186.397117 35.768831 
L 190.475692 34.424299 
L 194.554267 33.187329 
L 198.632841 32.049318 
L 202.711416 31.002347 
L 206.789991 30.039134 
L 210.868566 29.152978 
L 214.94714 28.337714 
L 219.025715 27.587672 
L 223.10429 26.897632 
L 227.182864 26.262796 
L 231.261439 25.678747 
L 235.340014 25.141422 
L 239.418588 24.647083 
L 243.497163 24.192291 
L 247.575738 23.773882 
L 251.654312 23.388946 
L 255.732887 23.034805 
L 259.811462 22.708995 
L 263.890037 22.40925 
L 267.968611 22.133485 
L 272.047186 21.879781 
L 276.125761 21.646373 
L 280.204335 21.431638 
L 284.28291 21.234081 
L 288.361485 21.052329 
L 292.440059 20.885118 
L 296.518634 20.731283 
L 300.597209 20.589755 
L 304.675783 20.459549 
L 308.754358 20.33976 
L 312.832933 20.229554 
L 316.911508 20.128164 
L 320.990082 20.034885 
L 325.068657 19.949069 
L 329.147232 19.870118 
L 333.225806 19.797483 
L 337.304381 19.730659 
L 341.382956 19.669181 
L 345.46153 19.612621 
L 349.540105 19.560586 
L 353.61868 19.512714 
L 357.697254 19.468671 
L 361.775829 19.428152 
L 365.854404 19.390875 
L 369.932979 19.356579 
L 374.011553 19.325028 
L 378.090128 19.296 
" clip-path="url(#p30dcfbb68e)" style="fill: none; stroke: #1f77b4; stroke-width: 1.5; stroke-linecap: square"/>
   </g>
   <g id="line2d_18">
    <path d="M 55.882727 261.216 
L 59.961302 261.216 
L 64.039877 259.665576 
L 68.118451 256.926751 
L 72.197026 253.296056 
L 76.275601 249.015377 
L 80.354175 244.281068 
L 84.43275 239.25162 
L 88.511325 234.054084 
L 92.589899 228.789472 
L 96.668474 223.53727 
L 100.747049 218.35923 
L 104.825624 213.302533 
L 108.904198 208.402432 
L 112.982773 203.684457 
L 117.061348 199.166256 
L 121.139922 194.859117 
L 125.218497 190.769242 
L 129.297072 186.898791 
L 133.375646 183.246752 
L 137.454221 179.809654 
L 141.532796 176.582157 
L 145.61137 173.557526 
L 149.689945 170.728026 
L 153.76852 168.085235 
L 157.847095 165.620304 
L 161.925669 163.324156 
L 166.004244 161.187649 
L 170.082819 159.201704 
L 174.161393 157.357401 
L 178.239968 155.646054 
L 182.318543 154.059265 
L 186.397117 152.588966 
L 190.475692 151.227442 
L 194.554267 149.96735 
L 198.632841 148.801724 
L 202.711416 147.723981 
L 206.789991 146.727913 
L 210.868566 145.807685 
L 214.94714 144.95782 
L 219.025715 144.173188 
L 223.10429 143.448993 
L 227.182864 142.780759 
L 231.261439 142.164312 
L 235.340014 141.595766 
L 239.418588 141.071506 
L 243.497163 140.588172 
L 247.575738 140.142647 
L 251.654312 139.732037 
L 255.732887 139.353661 
L 259.811462 139.005035 
L 263.890037 138.683858 
L 267.968611 138.388001 
L 272.047186 138.115498 
L 276.125761 137.864528 
L 280.204335 137.633408 
L 284.28291 137.420587 
L 288.361485 137.22463 
L 292.440059 137.044211 
L 296.518634 136.87811 
L 300.597209 136.725199 
L 304.675783 136.584437 
L 308.754358 136.454866 
L 312.832933 136.335601 
L 316.911508 136.225826 
L 320.990082 136.124791 
L 325.068657 136.031803 
L 329.147232 135.946222 
L 333.225806 135.867463 
L 337.304381 135.794982 
L 341.382956 135.728281 
L 345.46153 135.6669 
L 349.540105 135.610417 
L 353.61868 135.558441 
L 357.697254 135.510613 
L 361.775829 135.466604 
L 365.854404 135.426108 
L 369.932979 135.388847 
L 374.011553 135.354561 
L 378.090128 135.323014 
" clip-path="url(#p30dcfbb68e)" style="fill: none; stroke: #ff7f0e; stroke-width: 1.5; stroke-linecap: square"/>
   </g>
   <g id="line2d_19">
    <path d="M 55.882727 261.216 
L 57.514157 254.161569 
L 59.145587 246.099362 
L 65.671307 216.641298 
L 67.302736 209.741909 
L 68.934166 204.08286 
L 70.565596 199.431586 
L 72.197026 192.842283 
L 73.828456 187.415797 
L 75.459886 182.53196 
L 77.091316 178.190772 
L 78.722746 172.454201 
L 80.354175 168.268055 
L 81.985605 162.686527 
L 83.617035 158.577903 
L 85.248465 156.174745 
L 86.879895 150.205611 
L 88.511325 145.244253 
L 90.142755 141.988361 
L 91.774185 140.282894 
L 93.405614 135.786663 
L 96.668474 128.499669 
L 98.299904 126.329074 
L 101.562764 120.592504 
L 103.194194 117.18157 
L 104.825624 115.476103 
L 106.457053 111.600042 
L 108.088483 109.584491 
L 109.719913 108.344151 
L 111.351343 106.406121 
L 112.982773 103.615357 
L 114.614203 100.126902 
L 116.245633 99.041604 
L 117.877063 95.940756 
L 119.508492 93.847683 
L 121.139922 92.762386 
L 122.771352 90.436749 
L 124.402782 89.351452 
L 126.034212 87.568464 
L 127.665642 86.09556 
L 129.297072 83.614881 
L 130.928502 81.366766 
L 132.559931 78.808566 
L 134.191361 77.955832 
L 135.822791 75.320111 
L 137.454221 75.242589 
L 139.085651 74.079771 
L 140.717081 72.684389 
L 143.979941 67.64551 
L 145.61137 65.862522 
L 148.87423 63.84697 
L 150.50566 62.219024 
L 152.13709 57.335187 
L 153.76852 57.412708 
L 155.39995 56.87006 
L 157.03138 55.707242 
L 158.66281 56.637496 
L 160.294239 55.862284 
L 161.925669 53.304084 
L 163.557099 51.908702 
L 165.188529 50.280756 
L 166.819959 49.660586 
L 168.451389 47.489992 
L 170.082819 48.962895 
L 171.714249 46.792301 
L 173.345678 45.784525 
L 174.977108 44.466664 
L 176.608538 44.234101 
L 178.239968 42.606155 
L 179.871398 41.908464 
L 181.502828 40.125476 
L 183.134258 39.427785 
L 184.765688 38.109924 
L 186.397117 37.334712 
L 188.028547 38.885137 
L 189.659977 39.660349 
L 191.291407 39.892912 
L 192.922837 39.427785 
L 194.554267 40.047955 
L 196.185697 41.753422 
L 197.817127 42.761198 
L 199.448556 42.218549 
L 201.079986 41.133252 
L 204.342846 40.125476 
L 205.974276 37.954882 
L 207.605706 37.102148 
L 209.237136 36.404457 
L 210.868566 37.412233 
L 212.499995 37.102148 
L 214.131425 37.954882 
L 215.762855 37.024627 
L 217.394285 37.489755 
L 219.025715 37.024627 
L 220.657145 38.420009 
L 222.288575 38.187446 
L 227.182864 38.885137 
L 228.814294 38.807615 
L 232.077154 39.505306 
L 233.708584 39.582828 
L 235.340014 38.652573 
L 236.971444 37.877361 
L 238.602873 37.722318 
L 240.234303 37.257191 
L 241.865733 37.102148 
L 243.497163 36.016851 
L 245.128593 36.016851 
L 246.760023 37.024627 
L 248.391453 37.412233 
L 250.022883 35.706766 
L 251.654312 35.241639 
L 253.285742 36.249415 
L 254.917172 35.009075 
L 258.180032 33.768736 
L 259.811462 32.218311 
L 261.442892 30.125238 
L 263.074322 31.288057 
L 264.705751 30.745408 
L 266.337181 31.210536 
L 267.968611 28.807378 
L 269.600041 28.34225 
L 271.231471 28.419772 
L 272.862901 30.280281 
L 276.125761 28.652335 
L 277.75719 28.109687 
L 279.38862 27.179432 
L 281.02005 26.094135 
L 282.65148 27.567038 
L 284.28291 27.954644 
L 285.91434 29.194984 
L 287.54577 29.815154 
L 289.1772 29.272505 
L 290.80863 26.636784 
L 292.440059 27.334475 
L 294.071489 27.489517 
L 295.702919 27.179432 
L 298.965779 29.892675 
L 300.597209 29.039941 
L 302.228639 26.714305 
L 303.860069 26.016614 
L 305.491498 28.264729 
L 307.122928 30.125238 
L 308.754358 29.737632 
L 310.385788 30.512845 
L 312.017218 29.815154 
L 313.648648 27.644559 
L 315.280078 27.411996 
L 316.911508 26.016614 
L 318.542937 26.636784 
L 320.174367 26.946868 
L 321.805797 27.567038 
L 323.437227 28.032166 
L 325.068657 27.722081 
L 326.700087 28.032166 
L 328.331517 29.505069 
L 329.962947 28.807378 
L 331.594376 27.334475 
L 333.225806 26.946868 
L 334.857236 26.016614 
L 336.488666 27.877123 
L 338.120096 27.334475 
L 339.751526 25.706529 
L 341.382956 25.78405 
L 343.014386 26.326699 
L 344.645815 24.311147 
L 346.277245 23.148329 
L 347.908675 22.450638 
L 349.540105 22.450638 
L 351.171535 21.210298 
L 352.802965 19.659874 
L 354.434395 22.915765 
L 356.065825 24.233626 
L 357.697254 22.760722 
L 359.328684 22.60568 
L 360.960114 23.535935 
L 364.222974 25.008838 
L 365.854404 25.086359 
L 369.117264 26.869347 
L 370.748693 26.559262 
L 374.011553 25.318923 
L 375.642983 25.16388 
L 377.274413 24.853795 
L 378.905843 24.698753 
L 380.537273 24.931317 
L 380.537273 24.931317 
" clip-path="url(#p30dcfbb68e)" style="fill: none; stroke: #2ca02c; stroke-width: 1.5; stroke-linecap: square"/>
   </g>
   <g id="line2d_20">
    <path d="M 55.882727 261.216 
L 57.514157 260.828394 
L 59.145587 260.59583 
L 62.408447 259.588054 
L 67.302736 256.332163 
L 68.934166 254.85926 
L 70.565596 253.929005 
L 72.197026 253.153793 
L 73.828456 250.983199 
L 75.459886 249.432774 
L 78.722746 245.866798 
L 80.354175 243.231077 
L 81.985605 242.610907 
L 83.617035 239.897664 
L 85.248465 237.494506 
L 86.879895 235.478954 
L 88.511325 232.765712 
L 90.142755 230.827681 
L 91.774185 228.347002 
L 93.405614 227.339226 
L 95.037044 225.01359 
L 96.668474 223.230601 
L 99.931334 220.284795 
L 101.562764 217.804116 
L 103.194194 217.881637 
L 104.825624 214.315661 
L 106.457053 212.9978 
L 108.088483 210.517121 
L 109.719913 207.648836 
L 111.351343 205.943369 
L 112.982773 205.245678 
L 114.614203 203.230126 
L 117.877063 201.292096 
L 119.508492 198.578853 
L 121.139922 196.873386 
L 122.771352 196.640822 
L 124.402782 195.167919 
L 127.665642 193.462452 
L 129.297072 192.997325 
L 130.928502 191.214337 
L 132.559931 189.198785 
L 134.191361 186.873149 
L 137.454221 184.547512 
L 140.717081 180.206323 
L 142.348511 181.214099 
L 143.979941 180.438887 
L 145.61137 178.578378 
L 147.2428 178.810941 
L 150.50566 175.865135 
L 152.13709 177.570602 
L 153.76852 174.469753 
L 155.39995 173.461977 
L 157.03138 173.461977 
L 160.294239 170.206086 
L 161.925669 171.291383 
L 163.557099 170.128565 
L 165.188529 169.81848 
L 166.819959 169.275831 
L 168.451389 169.430874 
L 170.082819 166.717631 
L 171.714249 165.244728 
L 173.345678 165.477291 
L 174.977108 165.942419 
L 176.608538 164.7796 
L 178.239968 164.159431 
L 179.871398 164.236952 
L 181.502828 162.84157 
L 183.134258 161.988836 
L 184.765688 161.60123 
L 186.397117 161.446188 
L 188.028547 158.577903 
L 189.659977 158.655424 
L 191.291407 158.577903 
L 192.922837 157.880212 
L 194.554267 156.639872 
L 196.185697 155.632096 
L 197.817127 156.407308 
L 199.448556 157.415084 
L 201.079986 157.027478 
L 202.711416 156.949957 
L 204.342846 157.104999 
L 205.974276 157.415084 
L 207.605706 156.562351 
L 209.237136 155.399533 
L 210.868566 154.004151 
L 212.499995 153.539023 
L 214.131425 153.228938 
L 215.762855 153.926629 
L 217.394285 152.376205 
L 219.025715 151.44595 
L 220.657145 151.213387 
L 222.288575 150.748259 
L 223.920005 148.035017 
L 225.551434 147.337326 
L 227.182864 147.64741 
L 228.814294 148.732707 
L 230.445724 147.569889 
L 232.077154 146.794677 
L 233.708584 146.407071 
L 235.340014 147.104762 
L 236.971444 147.492368 
L 238.602873 148.500144 
L 240.234303 148.655186 
L 241.865733 150.283132 
L 243.497163 150.82578 
L 245.128593 149.740483 
L 246.760023 148.345101 
L 248.391453 147.879974 
L 250.022883 148.577665 
L 251.654312 148.500144 
L 253.285742 148.732707 
L 254.917172 148.655186 
L 258.180032 149.275356 
L 259.811462 148.965271 
L 261.442892 150.82578 
L 263.074322 149.662962 
L 264.705751 150.593217 
L 266.337181 150.283132 
L 267.968611 150.438174 
L 269.600041 149.818005 
L 271.231471 148.500144 
L 272.862901 147.027241 
L 274.494331 148.88775 
L 277.75719 147.724932 
L 279.38862 148.422623 
L 281.02005 150.128089 
L 282.65148 148.500144 
L 284.28291 148.965271 
L 285.91434 147.182283 
L 287.54577 146.949719 
L 289.1772 147.182283 
L 290.80863 148.577665 
L 292.440059 146.717156 
L 294.071489 146.484592 
L 295.702919 148.577665 
L 297.334349 146.949719 
L 298.965779 147.724932 
L 300.597209 148.112538 
L 302.228639 151.44595 
L 303.860069 151.213387 
L 305.491498 150.205611 
L 307.122928 148.810229 
L 308.754358 148.577665 
L 310.385788 148.112538 
L 312.017218 147.957495 
L 313.648648 149.275356 
L 315.280078 147.724932 
L 316.911508 148.112538 
L 318.542937 145.786901 
L 320.174367 148.422623 
L 321.805797 147.182283 
L 323.437227 147.259804 
L 325.068657 147.027241 
L 328.331517 145.941944 
L 329.962947 146.872198 
L 331.594376 147.569889 
L 333.225806 146.872198 
L 334.857236 147.182283 
L 336.488666 144.003913 
L 338.120096 145.166731 
L 339.751526 147.259804 
L 341.382956 146.872198 
L 343.014386 146.639635 
L 344.645815 147.492368 
L 346.277245 147.182283 
L 347.908675 146.717156 
L 349.540105 147.259804 
L 351.171535 149.352877 
L 352.802965 149.818005 
L 354.434395 146.949719 
L 356.065825 145.864422 
L 357.697254 145.554337 
L 359.328684 146.949719 
L 360.960114 145.554337 
L 362.591544 144.779125 
L 364.222974 143.848871 
L 365.854404 143.616307 
L 367.485834 143.073658 
L 369.117264 143.228701 
L 370.748693 142.453489 
L 372.380123 142.841095 
L 374.011553 142.298446 
L 375.642983 142.608531 
L 377.274413 141.833319 
L 378.905843 141.600755 
L 380.537273 142.996137 
L 380.537273 142.996137 
" clip-path="url(#p30dcfbb68e)" style="fill: none; stroke: #d62728; stroke-width: 1.5; stroke-linecap: square"/>
   </g>
   <g id="patch_3">
    <path d="M 39.65 273.312 
L 39.65 7.2 
" style="fill: none; stroke: #000000; stroke-width: 0.8; stroke-linejoin: miter; stroke-linecap: square"/>
   </g>
   <g id="patch_4">
    <path d="M 396.77 273.312 
L 396.77 7.2 
" style="fill: none; stroke: #000000; stroke-width: 0.8; stroke-linejoin: miter; stroke-linecap: square"/>
   </g>
   <g id="patch_5">
    <path d="M 39.65 273.312 
L 396.77 273.312 
" style="fill: none; stroke: #000000; stroke-width: 0.8; stroke-linejoin: miter; stroke-linecap: square"/>
   </g>
   <g id="patch_6">
    <path d="M 39.65 7.2 
L 396.77 7.2 
" style="fill: none; stroke: #000000; stroke-width: 0.8; stroke-linejoin: miter; stroke-linecap: square"/>
   </g>
  </g>
 </g>
 <defs>
  <clipPath id="p30dcfbb68e">
   <rect x="39.65" y="7.2" width="357.12" height="266.112"/>
  </clipPath>
 </defs>
</svg>
