<?xml version="1.0" encoding="utf-8" standalone="no"?>
<!DOCTYPE svg PUBLIC "-//W3C//DTD SVG 1.1//EN"
  "http://www.w3.org/Graphics/SVG/1.1/DTD/svg11.dtd">
<svg xmlns:xlink="http://www.w3.org/1999/xlink" width="403.97pt" height="297.190125pt" viewBox="0 0 403.97 297.190125" xmlns="http://www.w3.org/2000/svg" version="1.1">
 <metadata>
  <rdf:RDF xmlns:dc="http://purl.org/dc/elements/1.1/" xmlns:cc="http://creativecommons.org/ns#" xmlns:rdf="http://www.w3.org/1999/02/22-rdf-syntax-ns#">
   <cc:Work>
    <dc:type rdf:resource="http://purl.org/dc/dcmitype/StillImage"/>
    <dc:date>2024-09-11T16:22:38.947068</dc:date>
    <dc:format>image/svg+xml</dc:format>
    <dc:creator>
     <cc:Agent>
      <dc:title>Matplotlib v3.9.2, https://matplotlib.org/</dc:title>
     </cc:Agent>
    </dc:creator>
   </cc:Work>
  </rdf:RDF>
 </metadata>
 <defs>
  <style type="text/css">*{stroke-linejoin: round; stroke-linecap: butt}</style>
 </defs>
 <g id="figure_1">
  <g id="patch_1">
   <path d="M 0 297.190125 
L 403.97 297.190125 
L 403.97 0 
L 0 0 
z
" style="fill: #ffffff"/>
  </g>
  <g id="axes_1">
   <g id="patch_2">
    <path d="M 39.65 273.312 
L 396.77 273.312 
L 396.77 7.2 
L 39.65 7.2 
z
" style="fill: #ffffff"/>
   </g>
   <g id="matplotlib.axis_1">
    <g id="xtick_1">
     <g id="line2d_1">
      <defs>
       <path id="mba98d92545" d="M 0 0 
L 0 3.5 
" style="stroke: #000000; stroke-width: 0.8"/>
      </defs>
      <g>
       <use xlink:href="#mba98d92545" x="55.882727" y="273.312" style="stroke: #000000; stroke-width: 0.8"/>
      </g>
     </g>
     <g id="text_1">
      <!-- 0.0 -->
      <g transform="translate(47.931165 287.910437) scale(0.1 -0.1)">
       <defs>
        <path id="DejaVuSans-30" d="M 2034 4250 
Q 1547 4250 1301 3770 
Q 1056 3291 1056 2328 
Q 1056 1369 1301 889 
Q 1547 409 2034 409 
Q 2525 409 2770 889 
Q 3016 1369 3016 2328 
Q 3016 3291 2770 3770 
Q 2525 4250 2034 4250 
z
M 2034 4750 
Q 2819 4750 3233 4129 
Q 3647 3509 3647 2328 
Q 3647 1150 3233 529 
Q 2819 -91 2034 -91 
Q 1250 -91 836 529 
Q 422 1150 422 2328 
Q 422 3509 836 4129 
Q 1250 4750 2034 4750 
z
" transform="scale(0.015625)"/>
        <path id="DejaVuSans-2e" d="M 684 794 
L 1344 794 
L 1344 0 
L 684 0 
L 684 794 
z
" transform="scale(0.015625)"/>
       </defs>
       <use xlink:href="#DejaVuSans-30"/>
       <use xlink:href="#DejaVuSans-2e" x="63.623047"/>
       <use xlink:href="#DejaVuSans-30" x="95.410156"/>
      </g>
     </g>
    </g>
    <g id="xtick_2">
     <g id="line2d_2">
      <g>
       <use xlink:href="#mba98d92545" x="96.668474" y="273.312" style="stroke: #000000; stroke-width: 0.8"/>
      </g>
     </g>
     <g id="text_2">
      <!-- 2.5 -->
      <g transform="translate(88.716912 287.910437) scale(0.1 -0.1)">
       <defs>
        <path id="DejaVuSans-32" d="M 1228 531 
L 3431 531 
L 3431 0 
L 469 0 
L 469 531 
Q 828 903 1448 1529 
Q 2069 2156 2228 2338 
Q 2531 2678 2651 2914 
Q 2772 3150 2772 3378 
Q 2772 3750 2511 3984 
Q 2250 4219 1831 4219 
Q 1534 4219 1204 4116 
Q 875 4013 500 3803 
L 500 4441 
Q 881 4594 1212 4672 
Q 1544 4750 1819 4750 
Q 2544 4750 2975 4387 
Q 3406 4025 3406 3419 
Q 3406 3131 3298 2873 
Q 3191 2616 2906 2266 
Q 2828 2175 2409 1742 
Q 1991 1309 1228 531 
z
" transform="scale(0.015625)"/>
        <path id="DejaVuSans-35" d="M 691 4666 
L 3169 4666 
L 3169 4134 
L 1269 4134 
L 1269 2991 
Q 1406 3038 1543 3061 
Q 1681 3084 1819 3084 
Q 2600 3084 3056 2656 
Q 3513 2228 3513 1497 
Q 3513 744 3044 326 
Q 2575 -91 1722 -91 
Q 1428 -91 1123 -41 
Q 819 9 494 109 
L 494 744 
Q 775 591 1075 516 
Q 1375 441 1709 441 
Q 2250 441 2565 725 
Q 2881 1009 2881 1497 
Q 2881 1984 2565 2268 
Q 2250 2553 1709 2553 
Q 1456 2553 1204 2497 
Q 953 2441 691 2322 
L 691 4666 
z
" transform="scale(0.015625)"/>
       </defs>
       <use xlink:href="#DejaVuSans-32"/>
       <use xlink:href="#DejaVuSans-2e" x="63.623047"/>
       <use xlink:href="#DejaVuSans-35" x="95.410156"/>
      </g>
     </g>
    </g>
    <g id="xtick_3">
     <g id="line2d_3">
      <g>
       <use xlink:href="#mba98d92545" x="137.454221" y="273.312" style="stroke: #000000; stroke-width: 0.8"/>
      </g>
     </g>
     <g id="text_3">
      <!-- 5.0 -->
      <g transform="translate(129.502659 287.910437) scale(0.1 -0.1)">
       <use xlink:href="#DejaVuSans-35"/>
       <use xlink:href="#DejaVuSans-2e" x="63.623047"/>
       <use xlink:href="#DejaVuSans-30" x="95.410156"/>
      </g>
     </g>
    </g>
    <g id="xtick_4">
     <g id="line2d_4">
      <g>
       <use xlink:href="#mba98d92545" x="178.239968" y="273.312" style="stroke: #000000; stroke-width: 0.8"/>
      </g>
     </g>
     <g id="text_4">
      <!-- 7.5 -->
      <g transform="translate(170.288406 287.910437) scale(0.1 -0.1)">
       <defs>
        <path id="DejaVuSans-37" d="M 525 4666 
L 3525 4666 
L 3525 4397 
L 1831 0 
L 1172 0 
L 2766 4134 
L 525 4134 
L 525 4666 
z
" transform="scale(0.015625)"/>
       </defs>
       <use xlink:href="#DejaVuSans-37"/>
       <use xlink:href="#DejaVuSans-2e" x="63.623047"/>
       <use xlink:href="#DejaVuSans-35" x="95.410156"/>
      </g>
     </g>
    </g>
    <g id="xtick_5">
     <g id="line2d_5">
      <g>
       <use xlink:href="#mba98d92545" x="219.025715" y="273.312" style="stroke: #000000; stroke-width: 0.8"/>
      </g>
     </g>
     <g id="text_5">
      <!-- 10.0 -->
      <g transform="translate(207.892902 287.910437) scale(0.1 -0.1)">
       <defs>
        <path id="DejaVuSans-31" d="M 794 531 
L 1825 531 
L 1825 4091 
L 703 3866 
L 703 4441 
L 1819 4666 
L 2450 4666 
L 2450 531 
L 3481 531 
L 3481 0 
L 794 0 
L 794 531 
z
" transform="scale(0.015625)"/>
       </defs>
       <use xlink:href="#DejaVuSans-31"/>
       <use xlink:href="#DejaVuSans-30" x="63.623047"/>
       <use xlink:href="#DejaVuSans-2e" x="127.246094"/>
       <use xlink:href="#DejaVuSans-30" x="159.033203"/>
      </g>
     </g>
    </g>
    <g id="xtick_6">
     <g id="line2d_6">
      <g>
       <use xlink:href="#mba98d92545" x="259.811462" y="273.312" style="stroke: #000000; stroke-width: 0.8"/>
      </g>
     </g>
     <g id="text_6">
      <!-- 12.5 -->
      <g transform="translate(248.678649 287.910437) scale(0.1 -0.1)">
       <use xlink:href="#DejaVuSans-31"/>
       <use xlink:href="#DejaVuSans-32" x="63.623047"/>
       <use xlink:href="#DejaVuSans-2e" x="127.246094"/>
       <use xlink:href="#DejaVuSans-35" x="159.033203"/>
      </g>
     </g>
    </g>
    <g id="xtick_7">
     <g id="line2d_7">
      <g>
       <use xlink:href="#mba98d92545" x="300.597209" y="273.312" style="stroke: #000000; stroke-width: 0.8"/>
      </g>
     </g>
     <g id="text_7">
      <!-- 15.0 -->
      <g transform="translate(289.464396 287.910437) scale(0.1 -0.1)">
       <use xlink:href="#DejaVuSans-31"/>
       <use xlink:href="#DejaVuSans-35" x="63.623047"/>
       <use xlink:href="#DejaVuSans-2e" x="127.246094"/>
       <use xlink:href="#DejaVuSans-30" x="159.033203"/>
      </g>
     </g>
    </g>
    <g id="xtick_8">
     <g id="line2d_8">
      <g>
       <use xlink:href="#mba98d92545" x="341.382956" y="273.312" style="stroke: #000000; stroke-width: 0.8"/>
      </g>
     </g>
     <g id="text_8">
      <!-- 17.5 -->
      <g transform="translate(330.250143 287.910437) scale(0.1 -0.1)">
       <use xlink:href="#DejaVuSans-31"/>
       <use xlink:href="#DejaVuSans-37" x="63.623047"/>
       <use xlink:href="#DejaVuSans-2e" x="127.246094"/>
       <use xlink:href="#DejaVuSans-35" x="159.033203"/>
      </g>
     </g>
    </g>
    <g id="xtick_9">
     <g id="line2d_9">
      <g>
       <use xlink:href="#mba98d92545" x="382.168703" y="273.312" style="stroke: #000000; stroke-width: 0.8"/>
      </g>
     </g>
     <g id="text_9">
      <!-- 20.0 -->
      <g transform="translate(371.03589 287.910437) scale(0.1 -0.1)">
       <use xlink:href="#DejaVuSans-32"/>
       <use xlink:href="#DejaVuSans-30" x="63.623047"/>
       <use xlink:href="#DejaVuSans-2e" x="127.246094"/>
       <use xlink:href="#DejaVuSans-30" x="159.033203"/>
      </g>
     </g>
    </g>
   </g>
   <g id="matplotlib.axis_2">
    <g id="ytick_1">
     <g id="line2d_10">
      <defs>
       <path id="m6d3e59e67d" d="M 0 0 
L -3.5 0 
" style="stroke: #000000; stroke-width: 0.8"/>
      </defs>
      <g>
       <use xlink:href="#m6d3e59e67d" x="39.65" y="261.216" style="stroke: #000000; stroke-width: 0.8"/>
      </g>
     </g>
     <g id="text_10">
      <!-- 0 -->
      <g transform="translate(26.2875 265.015219) scale(0.1 -0.1)">
       <use xlink:href="#DejaVuSans-30"/>
      </g>
     </g>
    </g>
    <g id="ytick_2">
     <g id="line2d_11">
      <g>
       <use xlink:href="#m6d3e59e67d" x="39.65" y="222.455389" style="stroke: #000000; stroke-width: 0.8"/>
      </g>
     </g>
     <g id="text_11">
      <!-- 500 -->
      <g transform="translate(13.5625 226.254608) scale(0.1 -0.1)">
       <use xlink:href="#DejaVuSans-35"/>
       <use xlink:href="#DejaVuSans-30" x="63.623047"/>
       <use xlink:href="#DejaVuSans-30" x="127.246094"/>
      </g>
     </g>
    </g>
    <g id="ytick_3">
     <g id="line2d_12">
      <g>
       <use xlink:href="#m6d3e59e67d" x="39.65" y="183.694778" style="stroke: #000000; stroke-width: 0.8"/>
      </g>
     </g>
     <g id="text_12">
      <!-- 1000 -->
      <g transform="translate(7.2 187.493997) scale(0.1 -0.1)">
       <use xlink:href="#DejaVuSans-31"/>
       <use xlink:href="#DejaVuSans-30" x="63.623047"/>
       <use xlink:href="#DejaVuSans-30" x="127.246094"/>
       <use xlink:href="#DejaVuSans-30" x="190.869141"/>
      </g>
     </g>
    </g>
    <g id="ytick_4">
     <g id="line2d_13">
      <g>
       <use xlink:href="#m6d3e59e67d" x="39.65" y="144.934168" style="stroke: #000000; stroke-width: 0.8"/>
      </g>
     </g>
     <g id="text_13">
      <!-- 1500 -->
      <g transform="translate(7.2 148.733386) scale(0.1 -0.1)">
       <use xlink:href="#DejaVuSans-31"/>
       <use xlink:href="#DejaVuSans-35" x="63.623047"/>
       <use xlink:href="#DejaVuSans-30" x="127.246094"/>
       <use xlink:href="#DejaVuSans-30" x="190.869141"/>
      </g>
     </g>
    </g>
    <g id="ytick_5">
     <g id="line2d_14">
      <g>
       <use xlink:href="#m6d3e59e67d" x="39.65" y="106.173557" style="stroke: #000000; stroke-width: 0.8"/>
      </g>
     </g>
     <g id="text_14">
      <!-- 2000 -->
      <g transform="translate(7.2 109.972776) scale(0.1 -0.1)">
       <use xlink:href="#DejaVuSans-32"/>
       <use xlink:href="#DejaVuSans-30" x="63.623047"/>
       <use xlink:href="#DejaVuSans-30" x="127.246094"/>
       <use xlink:href="#DejaVuSans-30" x="190.869141"/>
      </g>
     </g>
    </g>
    <g id="ytick_6">
     <g id="line2d_15">
      <g>
       <use xlink:href="#m6d3e59e67d" x="39.65" y="67.412946" style="stroke: #000000; stroke-width: 0.8"/>
      </g>
     </g>
     <g id="text_15">
      <!-- 2500 -->
      <g transform="translate(7.2 71.212165) scale(0.1 -0.1)">
       <use xlink:href="#DejaVuSans-32"/>
       <use xlink:href="#DejaVuSans-35" x="63.623047"/>
       <use xlink:href="#DejaVuSans-30" x="127.246094"/>
       <use xlink:href="#DejaVuSans-30" x="190.869141"/>
      </g>
     </g>
    </g>
    <g id="ytick_7">
     <g id="line2d_16">
      <g>
       <use xlink:href="#m6d3e59e67d" x="39.65" y="28.652335" style="stroke: #000000; stroke-width: 0.8"/>
      </g>
     </g>
     <g id="text_16">
      <!-- 3000 -->
      <g transform="translate(7.2 32.451554) scale(0.1 -0.1)">
       <defs>
        <path id="DejaVuSans-33" d="M 2597 2516 
Q 3050 2419 3304 2112 
Q 3559 1806 3559 1356 
Q 3559 666 3084 287 
Q 2609 -91 1734 -91 
Q 1441 -91 1130 -33 
Q 819 25 488 141 
L 488 750 
Q 750 597 1062 519 
Q 1375 441 1716 441 
Q 2309 441 2620 675 
Q 2931 909 2931 1356 
Q 2931 1769 2642 2001 
Q 2353 2234 1838 2234 
L 1294 2234 
L 1294 2753 
L 1863 2753 
Q 2328 2753 2575 2939 
Q 2822 3125 2822 3475 
Q 2822 3834 2567 4026 
Q 2313 4219 1838 4219 
Q 1578 4219 1281 4162 
Q 984 4106 628 3988 
L 628 4550 
Q 988 4650 1302 4700 
Q 1616 4750 1894 4750 
Q 2613 4750 3031 4423 
Q 3450 4097 3450 3541 
Q 3450 3153 3228 2886 
Q 3006 2619 2597 2516 
z
" transform="scale(0.015625)"/>
       </defs>
       <use xlink:href="#DejaVuSans-33"/>
       <use xlink:href="#DejaVuSans-30" x="63.623047"/>
       <use xlink:href="#DejaVuSans-30" x="127.246094"/>
       <use xlink:href="#DejaVuSans-30" x="190.869141"/>
      </g>
     </g>
    </g>
   </g>
   <g id="line2d_17">
    <path d="M 55.882727 261.216 
L 59.961302 241.835695 
L 64.039877 224.005814 
L 68.118451 207.602323 
L 72.197026 192.511112 
L 76.275601 178.627198 
L 80.354175 165.853996 
L 84.43275 154.102651 
L 88.511325 143.291414 
L 92.589899 133.345075 
L 96.668474 124.194444 
L 100.747049 115.775863 
L 104.825624 108.030769 
L 108.904198 100.905282 
L 112.982773 94.349834 
L 117.061348 88.318822 
L 121.139922 82.770291 
L 125.218497 77.665642 
L 129.297072 72.969365 
L 133.375646 68.648791 
L 137.454221 64.673862 
L 141.532796 61.016928 
L 145.61137 57.652548 
L 149.689945 54.557319 
L 153.76852 51.709708 
L 157.847095 49.089906 
L 161.925669 46.679688 
L 166.004244 44.462288 
L 170.082819 42.422279 
L 174.161393 40.545471 
L 178.239968 38.818808 
L 182.318543 37.230278 
L 186.397117 35.768831 
L 190.475692 34.424299 
L 194.554267 33.187329 
L 198.632841 32.049318 
L 202.711416 31.002347 
L 206.789991 30.039134 
L 210.868566 29.152978 
L 214.94714 28.337714 
L 219.025715 27.587672 
L 223.10429 26.897632 
L 227.182864 26.262796 
L 231.261439 25.678747 
L 235.340014 25.141422 
L 239.418588 24.647083 
L 243.497163 24.192291 
L 247.575738 23.773882 
L 251.654312 23.388946 
L 255.732887 23.034805 
L 259.811462 22.708995 
L 263.890037 22.40925 
L 267.968611 22.133485 
L 272.047186 21.879781 
L 276.125761 21.646373 
L 280.204335 21.431638 
L 284.28291 21.234081 
L 288.361485 21.052329 
L 292.440059 20.885118 
L 296.518634 20.731283 
L 300.597209 20.589755 
L 304.675783 20.459549 
L 308.754358 20.33976 
L 312.832933 20.229554 
L 316.911508 20.128164 
L 320.990082 20.034885 
L 325.068657 19.949069 
L 329.147232 19.870118 
L 333.225806 19.797483 
L 337.304381 19.730659 
L 341.382956 19.669181 
L 345.46153 19.612621 
L 349.540105 19.560586 
L 353.61868 19.512714 
L 357.697254 19.468671 
L 361.775829 19.428152 
L 365.854404 19.390875 
L 369.932979 19.356579 
L 374.011553 19.325028 
L 378.090128 19.296 
" clip-path="url(#pe2dc8b02f4)" style="fill: none; stroke: #1f77b4; stroke-width: 1.5; stroke-linecap: square"/>
   </g>
   <g id="line2d_18">
    <path d="M 55.882727 261.216 
L 59.961302 261.216 
L 64.039877 259.665576 
L 68.118451 256.926751 
L 72.197026 253.296056 
L 76.275601 249.015377 
L 80.354175 244.281068 
L 84.43275 239.25162 
L 88.511325 234.054084 
L 92.589899 228.789472 
L 96.668474 223.53727 
L 100.747049 218.35923 
L 104.825624 213.302533 
L 108.904198 208.402432 
L 112.982773 203.684457 
L 117.061348 199.166256 
L 121.139922 194.859117 
L 125.218497 190.769242 
L 129.297072 186.898791 
L 133.375646 183.246752 
L 137.454221 179.809654 
L 141.532796 176.582157 
L 145.61137 173.557526 
L 149.689945 170.728026 
L 153.76852 168.085235 
L 157.847095 165.620304 
L 161.925669 163.324156 
L 166.004244 161.187649 
L 170.082819 159.201704 
L 174.161393 157.357401 
L 178.239968 155.646054 
L 182.318543 154.059265 
L 186.397117 152.588966 
L 190.475692 151.227442 
L 194.554267 149.96735 
L 198.632841 148.801724 
L 202.711416 147.723981 
L 206.789991 146.727913 
L 210.868566 145.807685 
L 214.94714 144.95782 
L 219.025715 144.173188 
L 223.10429 143.448993 
L 227.182864 142.780759 
L 231.261439 142.164312 
L 235.340014 141.595766 
L 239.418588 141.071506 
L 243.497163 140.588172 
L 247.575738 140.142647 
L 251.654312 139.732037 
L 255.732887 139.353661 
L 259.811462 139.005035 
L 263.890037 138.683858 
L 267.968611 138.388001 
L 272.047186 138.115498 
L 276.125761 137.864528 
L 280.204335 137.633408 
L 284.28291 137.420587 
L 288.361485 137.22463 
L 292.440059 137.044211 
L 296.518634 136.87811 
L 300.597209 136.725199 
L 304.675783 136.584437 
L 308.754358 136.454866 
L 312.832933 136.335601 
L 316.911508 136.225826 
L 320.990082 136.124791 
L 325.068657 136.031803 
L 329.147232 135.946222 
L 333.225806 135.867463 
L 337.304381 135.794982 
L 341.382956 135.728281 
L 345.46153 135.6669 
L 349.540105 135.610417 
L 353.61868 135.558441 
L 357.697254 135.510613 
L 361.775829 135.466604 
L 365.854404 135.426108 
L 369.932979 135.388847 
L 374.011553 135.354561 
L 378.090128 135.323014 
" clip-path="url(#pe2dc8b02f4)" style="fill: none; stroke: #ff7f0e; stroke-width: 1.5; stroke-linecap: square"/>
   </g>
   <g id="line2d_19">
    <path d="M 55.882727 261.216 
L 57.514157 253.696442 
L 59.145587 244.548937 
L 60.777017 238.657325 
L 64.039877 224.936068 
L 65.671307 217.183946 
L 67.302736 210.129515 
L 72.197026 192.299634 
L 73.828456 187.493318 
L 75.459886 183.229651 
L 77.091316 177.803166 
L 80.354175 168.733183 
L 81.985605 162.453964 
L 83.617035 157.957733 
L 86.879895 147.724932 
L 88.511325 143.848871 
L 90.142755 138.422385 
L 91.774185 135.321536 
L 93.405614 131.367954 
L 95.037044 129.19736 
L 96.668474 125.553862 
L 98.299904 123.460789 
L 99.931334 118.654474 
L 101.562764 115.86371 
L 103.194194 113.305509 
L 104.825624 111.522521 
L 108.088483 106.406121 
L 109.719913 103.460314 
L 111.351343 99.506732 
L 112.982773 97.103574 
L 114.614203 94.157768 
L 117.877063 89.816579 
L 119.508492 87.180858 
L 121.139922 84.15753 
L 122.771352 80.591554 
L 124.402782 79.196172 
L 126.034212 75.397632 
L 127.665642 73.38208 
L 129.297072 73.692165 
L 130.928502 72.374304 
L 134.191361 70.591316 
L 135.822791 68.96337 
L 137.454221 69.273455 
L 139.085651 68.26568 
L 140.717081 67.490467 
L 142.348511 66.095085 
L 143.979941 63.304321 
L 145.61137 63.304321 
L 147.2428 61.908939 
L 148.87423 61.056206 
L 150.50566 59.350739 
L 152.13709 59.970909 
L 153.76852 59.195697 
L 155.39995 59.970909 
L 157.03138 56.947581 
L 160.294239 57.567751 
L 161.925669 56.017326 
L 163.557099 55.862284 
L 165.188529 56.172369 
L 168.451389 52.838956 
L 170.082819 51.986223 
L 171.714249 53.07152 
L 173.345678 54.001775 
L 174.977108 51.986223 
L 176.608538 48.420247 
L 178.239968 49.815629 
L 179.871398 50.51332 
L 181.502828 48.885374 
L 183.134258 49.505544 
L 186.397117 48.420247 
L 188.028547 46.559737 
L 189.659977 46.09461 
L 191.291407 47.33495 
L 192.922837 49.040417 
L 194.554267 48.885374 
L 196.185697 48.575289 
L 197.817127 46.792301 
L 199.448556 46.017089 
L 201.079986 45.784525 
L 202.711416 46.327174 
L 204.342846 47.877598 
L 205.974276 43.924016 
L 207.605706 44.15658 
L 209.237136 43.768973 
L 210.868566 43.924016 
L 212.499995 44.311622 
L 214.131425 45.551962 
L 217.394285 42.218549 
L 219.025715 41.520858 
L 220.657145 40.97821 
L 222.288575 39.660349 
L 223.920005 39.73787 
L 225.551434 38.032403 
L 227.182864 38.032403 
L 228.814294 37.877361 
L 230.445724 36.171894 
L 232.077154 35.474203 
L 233.708584 35.474203 
L 235.340014 35.629245 
L 238.602873 37.799839 
L 240.234303 38.342488 
L 241.865733 37.954882 
L 243.497163 35.861809 
L 245.128593 35.241639 
L 246.760023 35.396682 
L 248.391453 37.644797 
L 250.022883 37.102148 
L 251.654312 37.954882 
L 253.285742 39.582828 
L 254.917172 39.582828 
L 256.548602 38.109924 
L 258.180032 35.551724 
L 259.811462 35.086597 
L 261.442892 33.38113 
L 263.074322 32.683439 
L 266.337181 32.218311 
L 267.968611 31.288057 
L 269.600041 31.52062 
L 271.231471 31.288057 
L 272.862901 30.822929 
L 274.494331 29.970196 
L 276.125761 30.280281 
L 277.75719 28.419772 
L 279.38862 27.334475 
L 281.02005 28.729857 
L 282.65148 26.946868 
L 284.28291 26.016614 
L 285.91434 26.40422 
L 287.54577 27.334475 
L 289.1772 28.419772 
L 290.80863 29.117463 
L 292.440059 28.96242 
L 294.071489 29.194984 
L 295.702919 29.194984 
L 297.334349 28.497293 
L 298.965779 28.497293 
L 300.597209 29.58259 
L 302.228639 28.497293 
L 303.860069 31.055493 
L 305.491498 31.288057 
L 307.122928 29.194984 
L 308.754358 28.96242 
L 310.385788 29.039941 
L 312.017218 29.505069 
L 313.648648 28.807378 
L 315.280078 28.34225 
L 318.542937 28.574814 
L 320.174367 28.807378 
L 321.805797 28.807378 
L 323.437227 27.954644 
L 325.068657 27.334475 
L 326.700087 26.326699 
L 328.331517 27.644559 
L 329.962947 26.869347 
L 331.594376 27.489517 
L 334.857236 27.256953 
L 336.488666 28.032166 
L 338.120096 27.489517 
L 341.382956 28.032166 
L 343.014386 27.877123 
L 344.645815 27.954644 
L 346.277245 27.411996 
L 349.540105 23.768498 
L 351.171535 22.295595 
L 352.802965 22.450638 
L 354.434395 23.380892 
L 357.697254 23.148329 
L 359.328684 22.993286 
L 360.960114 23.84602 
L 362.591544 25.086359 
L 364.222974 24.698753 
L 365.854404 25.318923 
L 367.485834 27.02439 
L 369.117264 26.016614 
L 370.748693 25.318923 
L 372.380123 23.768498 
L 374.011553 22.993286 
L 375.642983 23.768498 
L 377.274413 25.008838 
L 378.905843 26.094135 
L 380.537273 26.249177 
L 380.537273 26.249177 
" clip-path="url(#pe2dc8b02f4)" style="fill: none; stroke: #2ca02c; stroke-width: 1.5; stroke-linecap: square"/>
   </g>
   <g id="line2d_20">
    <path d="M 55.882727 261.216 
L 57.514157 261.060958 
L 59.145587 260.59583 
L 60.777017 259.820618 
L 62.408447 259.433012 
L 64.039877 258.347715 
L 65.671307 257.882587 
L 67.302736 256.719769 
L 68.934166 255.169345 
L 70.565596 254.316611 
L 72.197026 252.146017 
L 73.828456 250.983199 
L 75.459886 249.200211 
L 77.091316 246.952095 
L 78.722746 245.32415 
L 80.354175 242.84347 
L 81.985605 240.750398 
L 83.617035 238.34724 
L 86.879895 234.316136 
L 88.511325 230.827681 
L 90.142755 229.897426 
L 91.774185 228.269481 
L 93.405614 227.106663 
L 96.668474 222.842995 
L 98.299904 221.060007 
L 99.931334 219.509583 
L 101.562764 216.17617 
L 104.825624 212.37763 
L 106.457053 209.741909 
L 108.088483 208.579091 
L 109.719913 207.26123 
L 111.351343 206.098411 
L 112.982773 203.617732 
L 114.614203 203.075084 
L 116.245633 201.137053 
L 117.877063 199.974235 
L 121.139922 197.338513 
L 122.771352 197.183471 
L 124.402782 194.315186 
L 126.034212 193.772537 
L 129.297072 190.671688 
L 130.928502 189.663912 
L 132.559931 187.803403 
L 134.191361 186.718106 
L 135.822791 186.563064 
L 137.454221 184.780076 
L 139.085651 183.7723 
L 140.717081 181.834269 
L 142.348511 181.756748 
L 143.979941 181.524184 
L 145.61137 180.826493 
L 147.2428 179.276069 
L 148.87423 178.888463 
L 150.50566 176.485305 
L 152.13709 174.702317 
L 153.76852 173.849583 
L 155.39995 172.454201 
L 157.03138 172.609244 
L 158.66281 171.368904 
L 160.294239 167.95797 
L 161.925669 167.415322 
L 163.557099 167.802928 
L 165.188529 167.260279 
L 168.451389 165.322249 
L 170.082819 165.322249 
L 171.714249 164.159431 
L 173.345678 161.988836 
L 174.977108 161.833794 
L 176.608538 162.2214 
L 178.239968 159.353115 
L 181.502828 159.04303 
L 183.134258 157.880212 
L 184.765688 157.182521 
L 186.397117 156.639872 
L 188.028547 157.80269 
L 189.659977 156.717393 
L 191.291407 153.771587 
L 192.922837 153.694066 
L 194.554267 155.477054 
L 196.185697 154.701842 
L 197.817127 155.477054 
L 199.448556 154.236714 
L 201.079986 154.004151 
L 202.711416 152.608769 
L 204.342846 150.515696 
L 205.974276 153.073896 
L 207.605706 152.608769 
L 210.868566 150.515696 
L 212.499995 149.042792 
L 214.131425 147.337326 
L 215.762855 146.639635 
L 217.394285 146.872198 
L 219.025715 148.422623 
L 220.657145 148.655186 
L 222.288575 148.577665 
L 223.920005 148.345101 
L 225.551434 150.670738 
L 227.182864 148.965271 
L 228.814294 148.26758 
L 230.445724 147.957495 
L 232.077154 147.492368 
L 233.708584 145.864422 
L 235.340014 146.639635 
L 236.971444 145.399295 
L 238.602873 146.872198 
L 240.234303 147.879974 
L 241.865733 146.872198 
L 243.497163 147.027241 
L 245.128593 148.500144 
L 246.760023 149.275356 
L 248.391453 148.500144 
L 250.022883 148.190059 
L 251.654312 147.724932 
L 253.285742 145.631859 
L 254.917172 144.779125 
L 256.548602 145.011689 
L 258.180032 146.174507 
L 259.811462 146.949719 
L 261.442892 147.414847 
L 263.074322 148.577665 
L 264.705751 148.88775 
L 266.337181 149.352877 
L 267.968611 150.515696 
L 269.600041 150.205611 
L 271.231471 152.143641 
L 272.862901 150.903302 
L 277.75719 149.895526 
L 279.38862 150.128089 
L 281.02005 148.810229 
L 284.28291 149.662962 
L 285.91434 148.26758 
L 287.54577 147.259804 
L 289.1772 147.182283 
L 290.80863 147.337326 
L 292.440059 146.794677 
L 294.071489 145.244253 
L 295.702919 144.624083 
L 297.334349 145.70938 
L 298.965779 147.64741 
L 300.597209 146.872198 
L 302.228639 148.577665 
L 303.860069 148.26758 
L 305.491498 148.732707 
L 307.122928 149.430398 
L 308.754358 148.577665 
L 310.385788 148.732707 
L 312.017218 148.112538 
L 313.648648 147.879974 
L 315.280078 148.190059 
L 316.911508 147.957495 
L 318.542937 148.26758 
L 320.174367 149.352877 
L 323.437227 148.190059 
L 325.068657 148.810229 
L 326.700087 150.205611 
L 328.331517 149.585441 
L 329.962947 150.903302 
L 331.594376 149.197835 
L 333.225806 149.973047 
L 336.488666 146.639635 
L 338.120096 145.399295 
L 339.751526 145.554337 
L 343.014386 146.794677 
L 346.277245 147.182283 
L 347.908675 148.577665 
L 349.540105 148.732707 
L 351.171535 150.205611 
L 352.802965 151.523471 
L 354.434395 150.515696 
L 357.697254 147.64741 
L 359.328684 147.182283 
L 362.591544 145.321774 
L 364.222974 144.081434 
L 365.854404 143.616307 
L 367.485834 141.91084 
L 370.748693 142.298446 
L 372.380123 142.996137 
L 375.642983 143.383743 
L 377.274413 142.53101 
L 378.905843 142.763573 
L 380.537273 141.600755 
L 380.537273 141.600755 
" clip-path="url(#pe2dc8b02f4)" style="fill: none; stroke: #d62728; stroke-width: 1.5; stroke-linecap: square"/>
   </g>
   <g id="patch_3">
    <path d="M 39.65 273.312 
L 39.65 7.2 
" style="fill: none; stroke: #000000; stroke-width: 0.8; stroke-linejoin: miter; stroke-linecap: square"/>
   </g>
   <g id="patch_4">
    <path d="M 396.77 273.312 
L 396.77 7.2 
" style="fill: none; stroke: #000000; stroke-width: 0.8; stroke-linejoin: miter; stroke-linecap: square"/>
   </g>
   <g id="patch_5">
    <path d="M 39.65 273.312 
L 396.77 273.312 
" style="fill: none; stroke: #000000; stroke-width: 0.8; stroke-linejoin: miter; stroke-linecap: square"/>
   </g>
   <g id="patch_6">
    <path d="M 39.65 7.2 
L 396.77 7.2 
" style="fill: none; stroke: #000000; stroke-width: 0.8; stroke-linejoin: miter; stroke-linecap: square"/>
   </g>
  </g>
 </g>
 <defs>
  <clipPath id="pe2dc8b02f4">
   <rect x="39.65" y="7.2" width="357.12" height="266.112"/>
  </clipPath>
 </defs>
</svg>
