<?xml version="1.0" encoding="utf-8" standalone="no"?>
<!DOCTYPE svg PUBLIC "-//W3C//DTD SVG 1.1//EN"
  "http://www.w3.org/Graphics/SVG/1.1/DTD/svg11.dtd">
<svg xmlns:xlink="http://www.w3.org/1999/xlink" width="403.97pt" height="297.190125pt" viewBox="0 0 403.97 297.190125" xmlns="http://www.w3.org/2000/svg" version="1.1">
 <metadata>
  <rdf:RDF xmlns:dc="http://purl.org/dc/elements/1.1/" xmlns:cc="http://creativecommons.org/ns#" xmlns:rdf="http://www.w3.org/1999/02/22-rdf-syntax-ns#">
   <cc:Work>
    <dc:type rdf:resource="http://purl.org/dc/dcmitype/StillImage"/>
    <dc:date>2024-04-02T22:10:19.699740</dc:date>
    <dc:format>image/svg+xml</dc:format>
    <dc:creator>
     <cc:Agent>
      <dc:title>Matplotlib v3.8.3, https://matplotlib.org/</dc:title>
     </cc:Agent>
    </dc:creator>
   </cc:Work>
  </rdf:RDF>
 </metadata>
 <defs>
  <style type="text/css">*{stroke-linejoin: round; stroke-linecap: butt}</style>
 </defs>
 <g id="figure_1">
  <g id="patch_1">
   <path d="M 0 297.190125 
L 403.97 297.190125 
L 403.97 0 
L 0 0 
z
" style="fill: #ffffff"/>
  </g>
  <g id="axes_1">
   <g id="patch_2">
    <path d="M 39.65 273.312 
L 396.77 273.312 
L 396.77 7.2 
L 39.65 7.2 
z
" style="fill: #ffffff"/>
   </g>
   <g id="matplotlib.axis_1">
    <g id="xtick_1">
     <g id="line2d_1">
      <defs>
       <path id="mc28829c2e2" d="M 0 0 
L 0 3.5 
" style="stroke: #000000; stroke-width: 0.8"/>
      </defs>
      <g>
       <use xlink:href="#mc28829c2e2" x="55.882727" y="273.312" style="stroke: #000000; stroke-width: 0.8"/>
      </g>
     </g>
     <g id="text_1">
      <!-- 0.0 -->
      <g transform="translate(47.931165 287.910437) scale(0.1 -0.1)">
       <defs>
        <path id="DejaVuSans-30" d="M 2034 4250 
Q 1547 4250 1301 3770 
Q 1056 3291 1056 2328 
Q 1056 1369 1301 889 
Q 1547 409 2034 409 
Q 2525 409 2770 889 
Q 3016 1369 3016 2328 
Q 3016 3291 2770 3770 
Q 2525 4250 2034 4250 
z
M 2034 4750 
Q 2819 4750 3233 4129 
Q 3647 3509 3647 2328 
Q 3647 1150 3233 529 
Q 2819 -91 2034 -91 
Q 1250 -91 836 529 
Q 422 1150 422 2328 
Q 422 3509 836 4129 
Q 1250 4750 2034 4750 
z
" transform="scale(0.015625)"/>
        <path id="DejaVuSans-2e" d="M 684 794 
L 1344 794 
L 1344 0 
L 684 0 
L 684 794 
z
" transform="scale(0.015625)"/>
       </defs>
       <use xlink:href="#DejaVuSans-30"/>
       <use xlink:href="#DejaVuSans-2e" x="63.623047"/>
       <use xlink:href="#DejaVuSans-30" x="95.410156"/>
      </g>
     </g>
    </g>
    <g id="xtick_2">
     <g id="line2d_2">
      <g>
       <use xlink:href="#mc28829c2e2" x="96.668474" y="273.312" style="stroke: #000000; stroke-width: 0.8"/>
      </g>
     </g>
     <g id="text_2">
      <!-- 2.5 -->
      <g transform="translate(88.716912 287.910437) scale(0.1 -0.1)">
       <defs>
        <path id="DejaVuSans-32" d="M 1228 531 
L 3431 531 
L 3431 0 
L 469 0 
L 469 531 
Q 828 903 1448 1529 
Q 2069 2156 2228 2338 
Q 2531 2678 2651 2914 
Q 2772 3150 2772 3378 
Q 2772 3750 2511 3984 
Q 2250 4219 1831 4219 
Q 1534 4219 1204 4116 
Q 875 4013 500 3803 
L 500 4441 
Q 881 4594 1212 4672 
Q 1544 4750 1819 4750 
Q 2544 4750 2975 4387 
Q 3406 4025 3406 3419 
Q 3406 3131 3298 2873 
Q 3191 2616 2906 2266 
Q 2828 2175 2409 1742 
Q 1991 1309 1228 531 
z
" transform="scale(0.015625)"/>
        <path id="DejaVuSans-35" d="M 691 4666 
L 3169 4666 
L 3169 4134 
L 1269 4134 
L 1269 2991 
Q 1406 3038 1543 3061 
Q 1681 3084 1819 3084 
Q 2600 3084 3056 2656 
Q 3513 2228 3513 1497 
Q 3513 744 3044 326 
Q 2575 -91 1722 -91 
Q 1428 -91 1123 -41 
Q 819 9 494 109 
L 494 744 
Q 775 591 1075 516 
Q 1375 441 1709 441 
Q 2250 441 2565 725 
Q 2881 1009 2881 1497 
Q 2881 1984 2565 2268 
Q 2250 2553 1709 2553 
Q 1456 2553 1204 2497 
Q 953 2441 691 2322 
L 691 4666 
z
" transform="scale(0.015625)"/>
       </defs>
       <use xlink:href="#DejaVuSans-32"/>
       <use xlink:href="#DejaVuSans-2e" x="63.623047"/>
       <use xlink:href="#DejaVuSans-35" x="95.410156"/>
      </g>
     </g>
    </g>
    <g id="xtick_3">
     <g id="line2d_3">
      <g>
       <use xlink:href="#mc28829c2e2" x="137.454221" y="273.312" style="stroke: #000000; stroke-width: 0.8"/>
      </g>
     </g>
     <g id="text_3">
      <!-- 5.0 -->
      <g transform="translate(129.502659 287.910437) scale(0.1 -0.1)">
       <use xlink:href="#DejaVuSans-35"/>
       <use xlink:href="#DejaVuSans-2e" x="63.623047"/>
       <use xlink:href="#DejaVuSans-30" x="95.410156"/>
      </g>
     </g>
    </g>
    <g id="xtick_4">
     <g id="line2d_4">
      <g>
       <use xlink:href="#mc28829c2e2" x="178.239968" y="273.312" style="stroke: #000000; stroke-width: 0.8"/>
      </g>
     </g>
     <g id="text_4">
      <!-- 7.5 -->
      <g transform="translate(170.288406 287.910437) scale(0.1 -0.1)">
       <defs>
        <path id="DejaVuSans-37" d="M 525 4666 
L 3525 4666 
L 3525 4397 
L 1831 0 
L 1172 0 
L 2766 4134 
L 525 4134 
L 525 4666 
z
" transform="scale(0.015625)"/>
       </defs>
       <use xlink:href="#DejaVuSans-37"/>
       <use xlink:href="#DejaVuSans-2e" x="63.623047"/>
       <use xlink:href="#DejaVuSans-35" x="95.410156"/>
      </g>
     </g>
    </g>
    <g id="xtick_5">
     <g id="line2d_5">
      <g>
       <use xlink:href="#mc28829c2e2" x="219.025715" y="273.312" style="stroke: #000000; stroke-width: 0.8"/>
      </g>
     </g>
     <g id="text_5">
      <!-- 10.0 -->
      <g transform="translate(207.892902 287.910437) scale(0.1 -0.1)">
       <defs>
        <path id="DejaVuSans-31" d="M 794 531 
L 1825 531 
L 1825 4091 
L 703 3866 
L 703 4441 
L 1819 4666 
L 2450 4666 
L 2450 531 
L 3481 531 
L 3481 0 
L 794 0 
L 794 531 
z
" transform="scale(0.015625)"/>
       </defs>
       <use xlink:href="#DejaVuSans-31"/>
       <use xlink:href="#DejaVuSans-30" x="63.623047"/>
       <use xlink:href="#DejaVuSans-2e" x="127.246094"/>
       <use xlink:href="#DejaVuSans-30" x="159.033203"/>
      </g>
     </g>
    </g>
    <g id="xtick_6">
     <g id="line2d_6">
      <g>
       <use xlink:href="#mc28829c2e2" x="259.811462" y="273.312" style="stroke: #000000; stroke-width: 0.8"/>
      </g>
     </g>
     <g id="text_6">
      <!-- 12.5 -->
      <g transform="translate(248.678649 287.910437) scale(0.1 -0.1)">
       <use xlink:href="#DejaVuSans-31"/>
       <use xlink:href="#DejaVuSans-32" x="63.623047"/>
       <use xlink:href="#DejaVuSans-2e" x="127.246094"/>
       <use xlink:href="#DejaVuSans-35" x="159.033203"/>
      </g>
     </g>
    </g>
    <g id="xtick_7">
     <g id="line2d_7">
      <g>
       <use xlink:href="#mc28829c2e2" x="300.597209" y="273.312" style="stroke: #000000; stroke-width: 0.8"/>
      </g>
     </g>
     <g id="text_7">
      <!-- 15.0 -->
      <g transform="translate(289.464396 287.910437) scale(0.1 -0.1)">
       <use xlink:href="#DejaVuSans-31"/>
       <use xlink:href="#DejaVuSans-35" x="63.623047"/>
       <use xlink:href="#DejaVuSans-2e" x="127.246094"/>
       <use xlink:href="#DejaVuSans-30" x="159.033203"/>
      </g>
     </g>
    </g>
    <g id="xtick_8">
     <g id="line2d_8">
      <g>
       <use xlink:href="#mc28829c2e2" x="341.382956" y="273.312" style="stroke: #000000; stroke-width: 0.8"/>
      </g>
     </g>
     <g id="text_8">
      <!-- 17.5 -->
      <g transform="translate(330.250143 287.910437) scale(0.1 -0.1)">
       <use xlink:href="#DejaVuSans-31"/>
       <use xlink:href="#DejaVuSans-37" x="63.623047"/>
       <use xlink:href="#DejaVuSans-2e" x="127.246094"/>
       <use xlink:href="#DejaVuSans-35" x="159.033203"/>
      </g>
     </g>
    </g>
    <g id="xtick_9">
     <g id="line2d_9">
      <g>
       <use xlink:href="#mc28829c2e2" x="382.168703" y="273.312" style="stroke: #000000; stroke-width: 0.8"/>
      </g>
     </g>
     <g id="text_9">
      <!-- 20.0 -->
      <g transform="translate(371.03589 287.910437) scale(0.1 -0.1)">
       <use xlink:href="#DejaVuSans-32"/>
       <use xlink:href="#DejaVuSans-30" x="63.623047"/>
       <use xlink:href="#DejaVuSans-2e" x="127.246094"/>
       <use xlink:href="#DejaVuSans-30" x="159.033203"/>
      </g>
     </g>
    </g>
   </g>
   <g id="matplotlib.axis_2">
    <g id="ytick_1">
     <g id="line2d_10">
      <defs>
       <path id="ma826859cdc" d="M 0 0 
L -3.5 0 
" style="stroke: #000000; stroke-width: 0.8"/>
      </defs>
      <g>
       <use xlink:href="#ma826859cdc" x="39.65" y="261.216" style="stroke: #000000; stroke-width: 0.8"/>
      </g>
     </g>
     <g id="text_10">
      <!-- 0 -->
      <g transform="translate(26.2875 265.015219) scale(0.1 -0.1)">
       <use xlink:href="#DejaVuSans-30"/>
      </g>
     </g>
    </g>
    <g id="ytick_2">
     <g id="line2d_11">
      <g>
       <use xlink:href="#ma826859cdc" x="39.65" y="220.870273" style="stroke: #000000; stroke-width: 0.8"/>
      </g>
     </g>
     <g id="text_11">
      <!-- 500 -->
      <g transform="translate(13.5625 224.669492) scale(0.1 -0.1)">
       <use xlink:href="#DejaVuSans-35"/>
       <use xlink:href="#DejaVuSans-30" x="63.623047"/>
       <use xlink:href="#DejaVuSans-30" x="127.246094"/>
      </g>
     </g>
    </g>
    <g id="ytick_3">
     <g id="line2d_12">
      <g>
       <use xlink:href="#ma826859cdc" x="39.65" y="180.524546" style="stroke: #000000; stroke-width: 0.8"/>
      </g>
     </g>
     <g id="text_12">
      <!-- 1000 -->
      <g transform="translate(7.2 184.323764) scale(0.1 -0.1)">
       <use xlink:href="#DejaVuSans-31"/>
       <use xlink:href="#DejaVuSans-30" x="63.623047"/>
       <use xlink:href="#DejaVuSans-30" x="127.246094"/>
       <use xlink:href="#DejaVuSans-30" x="190.869141"/>
      </g>
     </g>
    </g>
    <g id="ytick_4">
     <g id="line2d_13">
      <g>
       <use xlink:href="#ma826859cdc" x="39.65" y="140.178819" style="stroke: #000000; stroke-width: 0.8"/>
      </g>
     </g>
     <g id="text_13">
      <!-- 1500 -->
      <g transform="translate(7.2 143.978037) scale(0.1 -0.1)">
       <use xlink:href="#DejaVuSans-31"/>
       <use xlink:href="#DejaVuSans-35" x="63.623047"/>
       <use xlink:href="#DejaVuSans-30" x="127.246094"/>
       <use xlink:href="#DejaVuSans-30" x="190.869141"/>
      </g>
     </g>
    </g>
    <g id="ytick_5">
     <g id="line2d_14">
      <g>
       <use xlink:href="#ma826859cdc" x="39.65" y="99.833091" style="stroke: #000000; stroke-width: 0.8"/>
      </g>
     </g>
     <g id="text_14">
      <!-- 2000 -->
      <g transform="translate(7.2 103.63231) scale(0.1 -0.1)">
       <use xlink:href="#DejaVuSans-32"/>
       <use xlink:href="#DejaVuSans-30" x="63.623047"/>
       <use xlink:href="#DejaVuSans-30" x="127.246094"/>
       <use xlink:href="#DejaVuSans-30" x="190.869141"/>
      </g>
     </g>
    </g>
    <g id="ytick_6">
     <g id="line2d_15">
      <g>
       <use xlink:href="#ma826859cdc" x="39.65" y="59.487364" style="stroke: #000000; stroke-width: 0.8"/>
      </g>
     </g>
     <g id="text_15">
      <!-- 2500 -->
      <g transform="translate(7.2 63.286583) scale(0.1 -0.1)">
       <use xlink:href="#DejaVuSans-32"/>
       <use xlink:href="#DejaVuSans-35" x="63.623047"/>
       <use xlink:href="#DejaVuSans-30" x="127.246094"/>
       <use xlink:href="#DejaVuSans-30" x="190.869141"/>
      </g>
     </g>
    </g>
    <g id="ytick_7">
     <g id="line2d_16">
      <g>
       <use xlink:href="#ma826859cdc" x="39.65" y="19.141637" style="stroke: #000000; stroke-width: 0.8"/>
      </g>
     </g>
     <g id="text_16">
      <!-- 3000 -->
      <g transform="translate(7.2 22.940856) scale(0.1 -0.1)">
       <defs>
        <path id="DejaVuSans-33" d="M 2597 2516 
Q 3050 2419 3304 2112 
Q 3559 1806 3559 1356 
Q 3559 666 3084 287 
Q 2609 -91 1734 -91 
Q 1441 -91 1130 -33 
Q 819 25 488 141 
L 488 750 
Q 750 597 1062 519 
Q 1375 441 1716 441 
Q 2309 441 2620 675 
Q 2931 909 2931 1356 
Q 2931 1769 2642 2001 
Q 2353 2234 1838 2234 
L 1294 2234 
L 1294 2753 
L 1863 2753 
Q 2328 2753 2575 2939 
Q 2822 3125 2822 3475 
Q 2822 3834 2567 4026 
Q 2313 4219 1838 4219 
Q 1578 4219 1281 4162 
Q 984 4106 628 3988 
L 628 4550 
Q 988 4650 1302 4700 
Q 1616 4750 1894 4750 
Q 2613 4750 3031 4423 
Q 3450 4097 3450 3541 
Q 3450 3153 3228 2886 
Q 3006 2619 2597 2516 
z
" transform="scale(0.015625)"/>
       </defs>
       <use xlink:href="#DejaVuSans-33"/>
       <use xlink:href="#DejaVuSans-30" x="63.623047"/>
       <use xlink:href="#DejaVuSans-30" x="127.246094"/>
       <use xlink:href="#DejaVuSans-30" x="190.869141"/>
      </g>
     </g>
    </g>
   </g>
   <g id="line2d_17">
    <path d="M 55.882727 261.216 
L 59.961302 241.043136 
L 64.039877 222.550672 
L 68.118451 205.598631 
L 72.197026 190.058694 
L 76.275601 175.813234 
L 80.354175 162.754421 
L 84.43275 150.783407 
L 88.511325 139.809578 
L 92.589899 129.74987 
L 96.668474 120.528135 
L 100.747049 112.07457 
L 104.825624 104.325188 
L 108.904198 97.221329 
L 112.982773 90.709221 
L 117.061348 84.739573 
L 121.139922 79.267195 
L 125.218497 74.250667 
L 129.297072 69.652016 
L 133.375646 65.436432 
L 137.454221 61.572007 
L 141.532796 58.029488 
L 145.61137 54.782061 
L 149.689945 51.805144 
L 153.76852 49.076205 
L 157.847095 46.574586 
L 161.925669 44.281352 
L 166.004244 42.179145 
L 170.082819 40.252051 
L 174.161393 38.485485 
L 178.239968 36.866073 
L 182.318543 35.381558 
L 186.397117 34.020704 
L 190.475692 32.773208 
L 194.554267 31.629629 
L 198.632841 30.581311 
L 202.711416 29.620317 
L 206.789991 28.739373 
L 210.868566 27.931813 
L 214.94714 27.191522 
L 219.025715 26.512898 
L 223.10429 25.890802 
L 227.182864 25.320528 
L 231.261439 24.797757 
L 235.340014 24.318533 
L 239.418588 23.879229 
L 243.497163 23.476518 
L 247.575738 23.107353 
L 251.654312 22.76894 
L 255.732887 22.458717 
L 259.811462 22.174335 
L 263.890037 21.913642 
L 267.968611 21.674665 
L 272.047186 21.455594 
L 276.125761 21.254773 
L 280.204335 21.070679 
L 284.28291 20.901921 
L 288.361485 20.74722 
L 292.440059 20.605406 
L 296.518634 20.475405 
L 300.597209 20.356233 
L 304.675783 20.246988 
L 308.754358 20.146843 
L 312.832933 20.05504 
L 316.911508 19.970885 
L 320.990082 19.893739 
L 325.068657 19.82302 
L 329.147232 19.758192 
L 333.225806 19.698763 
L 337.304381 19.644286 
L 341.382956 19.594346 
L 345.46153 19.548566 
L 349.540105 19.5066 
L 353.61868 19.468129 
L 357.697254 19.432863 
L 361.775829 19.400535 
L 365.854404 19.3709 
L 369.932979 19.343733 
L 374.011553 19.318829 
L 378.090128 19.296 
" clip-path="url(#pe2be68dbe2)" style="fill: none; stroke: #1f77b4; stroke-width: 1.5; stroke-linecap: square"/>
   </g>
   <g id="line2d_18">
    <path d="M 55.882727 261.216 
L 59.961302 261.216 
L 64.039877 259.5356 
L 68.118451 256.594901 
L 72.197026 252.732312 
L 76.275601 248.219139 
L 80.354175 243.271665 
L 84.43275 238.061136 
L 88.511325 232.722017 
L 92.589899 227.358809 
L 96.668474 222.051674 
L 100.747049 216.861068 
L 104.825624 211.831554 
L 108.904198 206.994937 
L 112.982773 202.372832 
L 117.061348 197.978773 
L 121.139922 193.819933 
L 125.218497 189.898522 
L 129.297072 186.212933 
L 133.375646 182.758664 
L 137.454221 179.529064 
L 141.532796 176.515932 
L 145.61137 173.709997 
L 149.689945 171.1013 
L 153.76852 168.679496 
L 157.847095 166.434087 
L 161.925669 164.354602 
L 166.004244 162.430741 
L 170.082819 160.652473 
L 174.161393 159.010116 
L 178.239968 157.494385 
L 182.318543 156.09643 
L 186.397117 154.807853 
L 190.475692 153.620723 
L 194.554267 152.527571 
L 198.632841 151.521388 
L 202.711416 150.59561 
L 206.789991 149.744108 
L 210.868566 148.96117 
L 214.94714 148.241477 
L 219.025715 147.580091 
L 223.10429 146.972429 
L 227.182864 146.414243 
L 231.261439 145.901603 
L 235.340014 145.430873 
L 239.418588 144.998695 
L 243.497163 144.601967 
L 247.575738 144.237827 
L 251.654312 143.903638 
L 255.732887 143.596969 
L 259.811462 143.31558 
L 263.890037 143.057409 
L 267.968611 142.82056 
L 272.047186 142.603286 
L 276.125761 142.403984 
L 280.204335 142.221177 
L 284.28291 142.053509 
L 288.361485 141.899733 
L 292.440059 141.758705 
L 296.518634 141.629374 
L 300.597209 141.510773 
L 304.675783 141.402016 
L 308.754358 141.302288 
L 312.832933 141.210843 
L 316.911508 141.126995 
L 320.990082 141.050114 
L 325.068657 140.979623 
L 329.147232 140.914992 
L 333.225806 140.855734 
L 337.304381 140.801405 
L 341.382956 140.751594 
L 345.46153 140.705927 
L 349.540105 140.664059 
L 353.61868 140.625674 
L 357.697254 140.590484 
L 361.775829 140.558222 
L 365.854404 140.528645 
L 369.932979 140.501531 
L 374.011553 140.476673 
L 378.090128 140.453884 
" clip-path="url(#pe2be68dbe2)" style="fill: none; stroke: #ff7f0e; stroke-width: 1.5; stroke-linecap: square"/>
   </g>
   <g id="line2d_19">
    <path d="M 55.882727 261.216 
L 59.145587 246.852921 
L 62.408447 234.749203 
L 64.039877 227.809738 
L 65.671307 221.83857 
L 67.302736 213.608042 
L 68.934166 207.717566 
L 70.565596 202.553313 
L 72.197026 195.775231 
L 73.828456 190.610978 
L 75.459886 184.801193 
L 77.091316 178.426568 
L 78.722746 174.069229 
L 80.354175 170.599497 
L 81.985605 165.838701 
L 83.617035 161.88482 
L 88.511325 148.167273 
L 90.142755 143.971317 
L 91.774185 140.82435 
L 93.405614 136.224937 
L 95.037044 131.141376 
L 96.668474 127.348877 
L 98.299904 123.07223 
L 99.931334 117.827286 
L 103.194194 109.516066 
L 106.457053 103.706281 
L 108.088483 99.510326 
L 109.719913 97.493039 
L 111.351343 93.216392 
L 112.982773 89.74666 
L 114.614203 87.083842 
L 116.245633 84.824481 
L 117.877063 82.807195 
L 119.508492 81.193365 
L 121.139922 79.256771 
L 122.771352 78.530547 
L 124.402782 77.078101 
L 126.034212 72.478688 
L 127.665642 68.605499 
L 129.297072 66.749595 
L 130.928502 65.216458 
L 132.559931 61.988799 
L 135.822791 59.083907 
L 137.454221 57.954227 
L 139.085651 57.631461 
L 140.717081 56.905238 
L 142.348511 55.049334 
L 143.979941 54.565186 
L 145.61137 55.210717 
L 147.2428 56.824546 
L 148.87423 55.130026 
L 150.50566 54.403803 
L 152.13709 51.902368 
L 153.76852 51.983059 
L 155.39995 50.449921 
L 157.03138 49.965773 
L 158.66281 50.36923 
L 160.294239 48.432635 
L 161.925669 48.432635 
L 163.557099 46.899497 
L 165.188529 47.383646 
L 166.819959 47.141572 
L 168.451389 49.158858 
L 170.082819 47.948486 
L 171.714249 46.576732 
L 173.345678 45.850509 
L 174.977108 47.222263 
L 176.608538 46.253966 
L 178.239968 45.124285 
L 179.871398 43.026308 
L 181.502828 41.735244 
L 183.134258 40.847638 
L 184.765688 40.202107 
L 186.397117 39.072426 
L 188.028547 37.377906 
L 189.659977 37.377906 
L 191.291407 36.409608 
L 192.922837 35.683385 
L 194.554267 32.61711 
L 196.185697 31.971578 
L 197.817127 30.357749 
L 199.448556 31.003281 
L 201.079986 30.922589 
L 202.711416 30.438441 
L 204.342846 28.17908 
L 205.974276 26.565251 
L 207.605706 27.372165 
L 210.868566 27.856314 
L 212.499995 28.421154 
L 214.131425 27.61424 
L 215.762855 26.161794 
L 217.394285 26.161794 
L 219.025715 24.951422 
L 220.657145 24.790039 
L 222.288575 26.323177 
L 223.920005 26.242485 
L 225.551434 25.839028 
L 227.182864 26.888017 
L 228.814294 25.596953 
L 230.445724 26.403868 
L 232.077154 26.807325 
L 233.708584 27.694931 
L 235.340014 29.147377 
L 236.971444 29.550835 
L 238.602873 28.905303 
L 240.234303 29.470143 
L 241.865733 27.452857 
L 245.128593 27.533548 
L 246.760023 26.968708 
L 248.391453 28.098389 
L 250.022883 26.484559 
L 251.654312 25.677645 
L 253.285742 25.919719 
L 254.917172 25.193496 
L 256.548602 24.709347 
L 258.180032 25.193496 
L 259.811462 25.354879 
L 263.074322 23.014827 
L 264.705751 23.418284 
L 266.337181 21.965838 
L 267.968611 23.418284 
L 269.600041 23.579667 
L 271.231471 23.337593 
L 272.862901 22.530678 
L 274.494331 22.207912 
L 276.125761 21.320306 
L 277.75719 20.190626 
L 279.38862 20.109935 
L 281.02005 21.400998 
L 282.65148 21.723764 
L 284.28291 21.804455 
L 285.91434 21.400998 
L 287.54577 22.772753 
L 289.1772 22.127221 
L 290.80863 22.288604 
L 292.440059 21.562381 
L 294.071489 21.965838 
L 297.334349 24.628656 
L 298.965779 24.628656 
L 300.597209 23.256901 
L 302.228639 23.74105 
L 303.860069 25.274188 
L 305.491498 25.677645 
L 307.122928 24.225199 
L 308.754358 23.74105 
L 310.385788 22.530678 
L 312.017218 22.369295 
L 313.648648 21.481689 
L 315.280078 21.965838 
L 316.911508 21.804455 
L 318.542937 22.772753 
L 320.174367 24.225199 
L 321.805797 24.225199 
L 323.437227 24.063816 
L 325.068657 22.853444 
L 326.700087 22.288604 
L 328.331517 23.256901 
L 329.962947 22.369295 
L 331.594376 22.207912 
L 333.225806 22.934135 
L 334.857236 22.934135 
L 336.488666 22.207912 
L 338.120096 24.144507 
L 339.751526 24.225199 
L 341.382956 23.498976 
L 343.014386 24.225199 
L 344.645815 21.562381 
L 346.277245 21.804455 
L 347.908675 22.853444 
L 349.540105 22.530678 
L 351.171535 23.014827 
L 352.802965 22.046529 
L 354.434395 24.063816 
L 356.065825 24.709347 
L 357.697254 24.467273 
L 359.328684 24.709347 
L 360.960114 24.225199 
L 362.591544 25.112805 
L 364.222974 25.516262 
L 365.854404 24.547965 
L 367.485834 25.919719 
L 369.117264 27.856314 
L 370.748693 28.421154 
L 372.380123 28.663229 
L 374.011553 28.74392 
L 375.642983 29.228069 
L 377.274413 28.098389 
L 378.905843 27.452857 
L 380.537273 27.291474 
L 380.537273 27.291474 
" clip-path="url(#pe2be68dbe2)" style="fill: none; stroke: #2ca02c; stroke-width: 1.5; stroke-linecap: square"/>
   </g>
   <g id="line2d_20">
    <path d="M 55.882727 261.216 
L 59.145587 260.65116 
L 60.777017 260.328394 
L 64.039877 258.633873 
L 65.671307 257.423502 
L 67.302736 256.77797 
L 68.934166 255.244832 
L 72.197026 251.21026 
L 73.828456 249.757813 
L 78.722746 243.867337 
L 80.354175 240.962445 
L 81.985605 239.429307 
L 83.617035 236.766489 
L 86.879895 233.135374 
L 90.142755 228.939418 
L 91.774185 226.115217 
L 93.405614 224.01724 
L 95.037044 223.452399 
L 96.668474 222.645485 
L 98.299904 221.677187 
L 99.931334 220.466816 
L 101.562764 217.723306 
L 103.194194 216.512934 
L 104.825624 214.737722 
L 106.457053 213.285276 
L 108.088483 212.074904 
L 109.719913 209.896235 
L 111.351343 209.331395 
L 112.982773 207.233417 
L 114.614203 205.619588 
L 116.245633 204.489908 
L 117.877063 202.553313 
L 119.508492 201.020175 
L 121.139922 198.760814 
L 124.402782 191.821349 
L 126.034212 190.77236 
L 129.297072 189.07784 
L 130.928502 187.625394 
L 132.559931 186.979862 
L 134.191361 186.011565 
L 135.822791 184.63981 
L 137.454221 182.703215 
L 139.085651 180.121088 
L 140.717081 176.974122 
L 142.348511 175.118218 
L 143.979941 174.472687 
L 147.2428 169.147051 
L 148.87423 169.066359 
L 150.50566 169.469816 
L 152.13709 170.438114 
L 155.39995 167.129764 
L 157.03138 166.806998 
L 158.66281 165.273861 
L 160.294239 165.193169 
L 161.925669 164.224872 
L 163.557099 163.902106 
L 165.188529 163.337266 
L 166.819959 161.642745 
L 168.451389 160.109608 
L 170.082819 161.158597 
L 171.714249 160.916522 
L 173.345678 159.222002 
L 174.977108 158.737853 
L 176.608538 159.060619 
L 178.239968 159.786842 
L 179.871398 161.158597 
L 183.134258 158.899236 
L 186.397117 159.14131 
L 188.028547 158.737853 
L 189.659977 158.737853 
L 191.291407 156.88195 
L 192.922837 156.236418 
L 194.554267 157.930939 
L 196.185697 157.043333 
L 197.817127 154.541897 
L 199.448556 151.314239 
L 201.079986 150.426633 
L 202.711416 150.426633 
L 204.342846 152.040462 
L 205.974276 150.991473 
L 207.605706 149.13557 
L 209.237136 149.13557 
L 210.868566 148.409347 
L 212.499995 149.377644 
L 214.131425 149.377644 
L 215.762855 151.072165 
L 217.394285 151.959771 
L 219.025715 150.991473 
L 220.657145 149.216261 
L 222.288575 147.763815 
L 223.920005 146.714826 
L 225.551434 147.198975 
L 227.182864 145.907912 
L 228.814294 145.82722 
L 230.445724 145.988603 
L 232.077154 145.82722 
L 233.708584 145.181689 
L 236.971444 144.294083 
L 238.602873 145.504455 
L 240.234303 145.82722 
L 241.865733 148.490038 
L 243.497163 147.602432 
L 245.128593 146.472752 
L 246.760023 146.795518 
L 248.391453 145.504455 
L 250.022883 146.230678 
L 251.654312 145.020306 
L 253.285742 145.585146 
L 254.917172 145.343072 
L 256.548602 145.665837 
L 258.180032 145.504455 
L 259.811462 144.69754 
L 261.442892 145.746529 
L 263.074322 146.634135 
L 264.705751 146.392061 
L 266.337181 146.876209 
L 267.968611 144.778231 
L 269.600041 146.392061 
L 271.231471 145.907912 
L 272.862901 146.634135 
L 274.494331 146.795518 
L 276.125761 147.198975 
L 277.75719 147.441049 
L 279.38862 147.521741 
L 281.02005 145.343072 
L 282.65148 145.181689 
L 284.28291 144.294083 
L 285.91434 144.213391 
L 287.54577 143.56786 
L 289.1772 141.469882 
L 290.80863 140.985733 
L 292.440059 140.098127 
L 294.071489 139.613978 
L 295.702919 139.371904 
L 297.334349 139.452595 
L 298.965779 140.743659 
L 300.597209 140.420893 
L 302.228639 139.533287 
L 303.860069 139.291213 
L 305.491498 138.807064 
L 307.122928 137.919458 
L 308.754358 140.25951 
L 310.385788 142.276796 
L 312.017218 142.357488 
L 313.648648 141.711956 
L 315.280078 143.406477 
L 316.911508 143.003019 
L 318.542937 144.69754 
L 320.174367 144.1327 
L 321.805797 145.585146 
L 323.437227 146.069295 
L 325.068657 145.343072 
L 326.700087 144.939614 
L 328.331517 143.083711 
L 329.962947 144.1327 
L 331.594376 146.392061 
L 333.225806 144.939614 
L 334.857236 144.69754 
L 336.488666 143.003019 
L 338.120096 143.729243 
L 339.751526 143.406477 
L 343.014386 141.792648 
L 344.645815 142.760945 
L 346.277245 143.971317 
L 347.908675 143.003019 
L 349.540105 143.971317 
L 351.171535 142.357488 
L 352.802965 143.083711 
L 354.434395 141.38919 
L 356.065825 140.82435 
L 357.697254 140.662967 
L 359.328684 139.775361 
L 360.960114 141.147116 
L 362.591544 142.276796 
L 364.222974 141.066425 
L 365.854404 141.066425 
L 367.485834 140.340201 
L 369.117264 141.711956 
L 370.748693 140.340201 
L 372.380123 139.775361 
L 374.011553 140.178819 
L 375.642983 140.178819 
L 377.274413 144.052008 
L 378.905843 142.841637 
L 380.537273 142.760945 
L 380.537273 142.760945 
" clip-path="url(#pe2be68dbe2)" style="fill: none; stroke: #d62728; stroke-width: 1.5; stroke-linecap: square"/>
   </g>
   <g id="patch_3">
    <path d="M 39.65 273.312 
L 39.65 7.2 
" style="fill: none; stroke: #000000; stroke-width: 0.8; stroke-linejoin: miter; stroke-linecap: square"/>
   </g>
   <g id="patch_4">
    <path d="M 396.77 273.312 
L 396.77 7.2 
" style="fill: none; stroke: #000000; stroke-width: 0.8; stroke-linejoin: miter; stroke-linecap: square"/>
   </g>
   <g id="patch_5">
    <path d="M 39.65 273.312 
L 396.77 273.312 
" style="fill: none; stroke: #000000; stroke-width: 0.8; stroke-linejoin: miter; stroke-linecap: square"/>
   </g>
   <g id="patch_6">
    <path d="M 39.65 7.2 
L 396.77 7.2 
" style="fill: none; stroke: #000000; stroke-width: 0.8; stroke-linejoin: miter; stroke-linecap: square"/>
   </g>
  </g>
 </g>
 <defs>
  <clipPath id="pe2be68dbe2">
   <rect x="39.65" y="7.2" width="357.12" height="266.112"/>
  </clipPath>
 </defs>
</svg>
