<?xml version="1.0" encoding="utf-8" standalone="no"?>
<!DOCTYPE svg PUBLIC "-//W3C//DTD SVG 1.1//EN"
  "http://www.w3.org/Graphics/SVG/1.1/DTD/svg11.dtd">
<svg xmlns:xlink="http://www.w3.org/1999/xlink" width="417.648125pt" height="310.86825pt" viewBox="0 0 417.648125 310.86825" xmlns="http://www.w3.org/2000/svg" version="1.1">
 <metadata>
  <rdf:RDF xmlns:dc="http://purl.org/dc/elements/1.1/" xmlns:cc="http://creativecommons.org/ns#" xmlns:rdf="http://www.w3.org/1999/02/22-rdf-syntax-ns#">
   <cc:Work>
    <dc:type rdf:resource="http://purl.org/dc/dcmitype/StillImage"/>
    <dc:date>2025-02-17T11:22:05.503279</dc:date>
    <dc:format>image/svg+xml</dc:format>
    <dc:creator>
     <cc:Agent>
      <dc:title>Matplotlib v3.10.0, https://matplotlib.org/</dc:title>
     </cc:Agent>
    </dc:creator>
   </cc:Work>
  </rdf:RDF>
 </metadata>
 <defs>
  <style type="text/css">*{stroke-linejoin: round; stroke-linecap: butt}</style>
 </defs>
 <g id="figure_1">
  <g id="patch_1">
   <path d="M 0 310.86825 
L 417.648125 310.86825 
L 417.648125 0 
L 0 0 
z
" style="fill: #ffffff"/>
  </g>
  <g id="axes_1">
   <g id="patch_2">
    <path d="M 53.328125 273.312 
L 410.448125 273.312 
L 410.448125 7.2 
L 53.328125 7.2 
z
" style="fill: #ffffff"/>
   </g>
   <g id="matplotlib.axis_1">
    <g id="xtick_1">
     <g id="line2d_1">
      <defs>
       <path id="me38137807e" d="M 0 0 
L 0 3.5 
" style="stroke: #000000; stroke-width: 0.8"/>
      </defs>
      <g>
       <use xlink:href="#me38137807e" x="69.560852" y="273.312" style="stroke: #000000; stroke-width: 0.8"/>
      </g>
     </g>
     <g id="text_1">
      <!-- 0.0 -->
      <g transform="translate(61.60929 287.910437) scale(0.1 -0.1)">
       <defs>
        <path id="DejaVuSans-30" d="M 2034 4250 
Q 1547 4250 1301 3770 
Q 1056 3291 1056 2328 
Q 1056 1369 1301 889 
Q 1547 409 2034 409 
Q 2525 409 2770 889 
Q 3016 1369 3016 2328 
Q 3016 3291 2770 3770 
Q 2525 4250 2034 4250 
z
M 2034 4750 
Q 2819 4750 3233 4129 
Q 3647 3509 3647 2328 
Q 3647 1150 3233 529 
Q 2819 -91 2034 -91 
Q 1250 -91 836 529 
Q 422 1150 422 2328 
Q 422 3509 836 4129 
Q 1250 4750 2034 4750 
z
" transform="scale(0.015625)"/>
        <path id="DejaVuSans-2e" d="M 684 794 
L 1344 794 
L 1344 0 
L 684 0 
L 684 794 
z
" transform="scale(0.015625)"/>
       </defs>
       <use xlink:href="#DejaVuSans-30"/>
       <use xlink:href="#DejaVuSans-2e" transform="translate(63.623047 0)"/>
       <use xlink:href="#DejaVuSans-30" transform="translate(95.410156 0)"/>
      </g>
     </g>
    </g>
    <g id="xtick_2">
     <g id="line2d_2">
      <g>
       <use xlink:href="#me38137807e" x="110.346599" y="273.312" style="stroke: #000000; stroke-width: 0.8"/>
      </g>
     </g>
     <g id="text_2">
      <!-- 2.5 -->
      <g transform="translate(102.395037 287.910437) scale(0.1 -0.1)">
       <defs>
        <path id="DejaVuSans-32" d="M 1228 531 
L 3431 531 
L 3431 0 
L 469 0 
L 469 531 
Q 828 903 1448 1529 
Q 2069 2156 2228 2338 
Q 2531 2678 2651 2914 
Q 2772 3150 2772 3378 
Q 2772 3750 2511 3984 
Q 2250 4219 1831 4219 
Q 1534 4219 1204 4116 
Q 875 4013 500 3803 
L 500 4441 
Q 881 4594 1212 4672 
Q 1544 4750 1819 4750 
Q 2544 4750 2975 4387 
Q 3406 4025 3406 3419 
Q 3406 3131 3298 2873 
Q 3191 2616 2906 2266 
Q 2828 2175 2409 1742 
Q 1991 1309 1228 531 
z
" transform="scale(0.015625)"/>
        <path id="DejaVuSans-35" d="M 691 4666 
L 3169 4666 
L 3169 4134 
L 1269 4134 
L 1269 2991 
Q 1406 3038 1543 3061 
Q 1681 3084 1819 3084 
Q 2600 3084 3056 2656 
Q 3513 2228 3513 1497 
Q 3513 744 3044 326 
Q 2575 -91 1722 -91 
Q 1428 -91 1123 -41 
Q 819 9 494 109 
L 494 744 
Q 775 591 1075 516 
Q 1375 441 1709 441 
Q 2250 441 2565 725 
Q 2881 1009 2881 1497 
Q 2881 1984 2565 2268 
Q 2250 2553 1709 2553 
Q 1456 2553 1204 2497 
Q 953 2441 691 2322 
L 691 4666 
z
" transform="scale(0.015625)"/>
       </defs>
       <use xlink:href="#DejaVuSans-32"/>
       <use xlink:href="#DejaVuSans-2e" transform="translate(63.623047 0)"/>
       <use xlink:href="#DejaVuSans-35" transform="translate(95.410156 0)"/>
      </g>
     </g>
    </g>
    <g id="xtick_3">
     <g id="line2d_3">
      <g>
       <use xlink:href="#me38137807e" x="151.132346" y="273.312" style="stroke: #000000; stroke-width: 0.8"/>
      </g>
     </g>
     <g id="text_3">
      <!-- 5.0 -->
      <g transform="translate(143.180784 287.910437) scale(0.1 -0.1)">
       <use xlink:href="#DejaVuSans-35"/>
       <use xlink:href="#DejaVuSans-2e" transform="translate(63.623047 0)"/>
       <use xlink:href="#DejaVuSans-30" transform="translate(95.410156 0)"/>
      </g>
     </g>
    </g>
    <g id="xtick_4">
     <g id="line2d_4">
      <g>
       <use xlink:href="#me38137807e" x="191.918093" y="273.312" style="stroke: #000000; stroke-width: 0.8"/>
      </g>
     </g>
     <g id="text_4">
      <!-- 7.5 -->
      <g transform="translate(183.966531 287.910437) scale(0.1 -0.1)">
       <defs>
        <path id="DejaVuSans-37" d="M 525 4666 
L 3525 4666 
L 3525 4397 
L 1831 0 
L 1172 0 
L 2766 4134 
L 525 4134 
L 525 4666 
z
" transform="scale(0.015625)"/>
       </defs>
       <use xlink:href="#DejaVuSans-37"/>
       <use xlink:href="#DejaVuSans-2e" transform="translate(63.623047 0)"/>
       <use xlink:href="#DejaVuSans-35" transform="translate(95.410156 0)"/>
      </g>
     </g>
    </g>
    <g id="xtick_5">
     <g id="line2d_5">
      <g>
       <use xlink:href="#me38137807e" x="232.70384" y="273.312" style="stroke: #000000; stroke-width: 0.8"/>
      </g>
     </g>
     <g id="text_5">
      <!-- 10.0 -->
      <g transform="translate(221.571027 287.910437) scale(0.1 -0.1)">
       <defs>
        <path id="DejaVuSans-31" d="M 794 531 
L 1825 531 
L 1825 4091 
L 703 3866 
L 703 4441 
L 1819 4666 
L 2450 4666 
L 2450 531 
L 3481 531 
L 3481 0 
L 794 0 
L 794 531 
z
" transform="scale(0.015625)"/>
       </defs>
       <use xlink:href="#DejaVuSans-31"/>
       <use xlink:href="#DejaVuSans-30" transform="translate(63.623047 0)"/>
       <use xlink:href="#DejaVuSans-2e" transform="translate(127.246094 0)"/>
       <use xlink:href="#DejaVuSans-30" transform="translate(159.033203 0)"/>
      </g>
     </g>
    </g>
    <g id="xtick_6">
     <g id="line2d_6">
      <g>
       <use xlink:href="#me38137807e" x="273.489587" y="273.312" style="stroke: #000000; stroke-width: 0.8"/>
      </g>
     </g>
     <g id="text_6">
      <!-- 12.5 -->
      <g transform="translate(262.356774 287.910437) scale(0.1 -0.1)">
       <use xlink:href="#DejaVuSans-31"/>
       <use xlink:href="#DejaVuSans-32" transform="translate(63.623047 0)"/>
       <use xlink:href="#DejaVuSans-2e" transform="translate(127.246094 0)"/>
       <use xlink:href="#DejaVuSans-35" transform="translate(159.033203 0)"/>
      </g>
     </g>
    </g>
    <g id="xtick_7">
     <g id="line2d_7">
      <g>
       <use xlink:href="#me38137807e" x="314.275334" y="273.312" style="stroke: #000000; stroke-width: 0.8"/>
      </g>
     </g>
     <g id="text_7">
      <!-- 15.0 -->
      <g transform="translate(303.142521 287.910437) scale(0.1 -0.1)">
       <use xlink:href="#DejaVuSans-31"/>
       <use xlink:href="#DejaVuSans-35" transform="translate(63.623047 0)"/>
       <use xlink:href="#DejaVuSans-2e" transform="translate(127.246094 0)"/>
       <use xlink:href="#DejaVuSans-30" transform="translate(159.033203 0)"/>
      </g>
     </g>
    </g>
    <g id="xtick_8">
     <g id="line2d_8">
      <g>
       <use xlink:href="#me38137807e" x="355.061081" y="273.312" style="stroke: #000000; stroke-width: 0.8"/>
      </g>
     </g>
     <g id="text_8">
      <!-- 17.5 -->
      <g transform="translate(343.928268 287.910437) scale(0.1 -0.1)">
       <use xlink:href="#DejaVuSans-31"/>
       <use xlink:href="#DejaVuSans-37" transform="translate(63.623047 0)"/>
       <use xlink:href="#DejaVuSans-2e" transform="translate(127.246094 0)"/>
       <use xlink:href="#DejaVuSans-35" transform="translate(159.033203 0)"/>
      </g>
     </g>
    </g>
    <g id="xtick_9">
     <g id="line2d_9">
      <g>
       <use xlink:href="#me38137807e" x="395.846828" y="273.312" style="stroke: #000000; stroke-width: 0.8"/>
      </g>
     </g>
     <g id="text_9">
      <!-- 20.0 -->
      <g transform="translate(384.714015 287.910437) scale(0.1 -0.1)">
       <use xlink:href="#DejaVuSans-32"/>
       <use xlink:href="#DejaVuSans-30" transform="translate(63.623047 0)"/>
       <use xlink:href="#DejaVuSans-2e" transform="translate(127.246094 0)"/>
       <use xlink:href="#DejaVuSans-30" transform="translate(159.033203 0)"/>
      </g>
     </g>
    </g>
    <g id="text_10">
     <!-- Time -->
     <g transform="translate(219.654531 301.588562) scale(0.1 -0.1)">
      <defs>
       <path id="DejaVuSans-54" d="M -19 4666 
L 3928 4666 
L 3928 4134 
L 2272 4134 
L 2272 0 
L 1638 0 
L 1638 4134 
L -19 4134 
L -19 4666 
z
" transform="scale(0.015625)"/>
       <path id="DejaVuSans-69" d="M 603 3500 
L 1178 3500 
L 1178 0 
L 603 0 
L 603 3500 
z
M 603 4863 
L 1178 4863 
L 1178 4134 
L 603 4134 
L 603 4863 
z
" transform="scale(0.015625)"/>
       <path id="DejaVuSans-6d" d="M 3328 2828 
Q 3544 3216 3844 3400 
Q 4144 3584 4550 3584 
Q 5097 3584 5394 3201 
Q 5691 2819 5691 2113 
L 5691 0 
L 5113 0 
L 5113 2094 
Q 5113 2597 4934 2840 
Q 4756 3084 4391 3084 
Q 3944 3084 3684 2787 
Q 3425 2491 3425 1978 
L 3425 0 
L 2847 0 
L 2847 2094 
Q 2847 2600 2669 2842 
Q 2491 3084 2119 3084 
Q 1678 3084 1418 2786 
Q 1159 2488 1159 1978 
L 1159 0 
L 581 0 
L 581 3500 
L 1159 3500 
L 1159 2956 
Q 1356 3278 1631 3431 
Q 1906 3584 2284 3584 
Q 2666 3584 2933 3390 
Q 3200 3197 3328 2828 
z
" transform="scale(0.015625)"/>
       <path id="DejaVuSans-65" d="M 3597 1894 
L 3597 1613 
L 953 1613 
Q 991 1019 1311 708 
Q 1631 397 2203 397 
Q 2534 397 2845 478 
Q 3156 559 3463 722 
L 3463 178 
Q 3153 47 2828 -22 
Q 2503 -91 2169 -91 
Q 1331 -91 842 396 
Q 353 884 353 1716 
Q 353 2575 817 3079 
Q 1281 3584 2069 3584 
Q 2775 3584 3186 3129 
Q 3597 2675 3597 1894 
z
M 3022 2063 
Q 3016 2534 2758 2815 
Q 2500 3097 2075 3097 
Q 1594 3097 1305 2825 
Q 1016 2553 972 2059 
L 3022 2063 
z
" transform="scale(0.015625)"/>
      </defs>
      <use xlink:href="#DejaVuSans-54"/>
      <use xlink:href="#DejaVuSans-69" transform="translate(57.958984 0)"/>
      <use xlink:href="#DejaVuSans-6d" transform="translate(85.742188 0)"/>
      <use xlink:href="#DejaVuSans-65" transform="translate(183.154297 0)"/>
     </g>
    </g>
   </g>
   <g id="matplotlib.axis_2">
    <g id="ytick_1">
     <g id="line2d_10">
      <defs>
       <path id="mc856fd6370" d="M 0 0 
L -3.5 0 
" style="stroke: #000000; stroke-width: 0.8"/>
      </defs>
      <g>
       <use xlink:href="#mc856fd6370" x="53.328125" y="261.216" style="stroke: #000000; stroke-width: 0.8"/>
      </g>
     </g>
     <g id="text_11">
      <!-- 0 -->
      <g transform="translate(39.965625 265.015219) scale(0.1 -0.1)">
       <use xlink:href="#DejaVuSans-30"/>
      </g>
     </g>
    </g>
    <g id="ytick_2">
     <g id="line2d_11">
      <g>
       <use xlink:href="#mc856fd6370" x="53.328125" y="222.234369" style="stroke: #000000; stroke-width: 0.8"/>
      </g>
     </g>
     <g id="text_12">
      <!-- 500 -->
      <g transform="translate(27.240625 226.033588) scale(0.1 -0.1)">
       <use xlink:href="#DejaVuSans-35"/>
       <use xlink:href="#DejaVuSans-30" transform="translate(63.623047 0)"/>
       <use xlink:href="#DejaVuSans-30" transform="translate(127.246094 0)"/>
      </g>
     </g>
    </g>
    <g id="ytick_3">
     <g id="line2d_12">
      <g>
       <use xlink:href="#mc856fd6370" x="53.328125" y="183.252739" style="stroke: #000000; stroke-width: 0.8"/>
      </g>
     </g>
     <g id="text_13">
      <!-- 1000 -->
      <g transform="translate(20.878125 187.051957) scale(0.1 -0.1)">
       <use xlink:href="#DejaVuSans-31"/>
       <use xlink:href="#DejaVuSans-30" transform="translate(63.623047 0)"/>
       <use xlink:href="#DejaVuSans-30" transform="translate(127.246094 0)"/>
       <use xlink:href="#DejaVuSans-30" transform="translate(190.869141 0)"/>
      </g>
     </g>
    </g>
    <g id="ytick_4">
     <g id="line2d_13">
      <g>
       <use xlink:href="#mc856fd6370" x="53.328125" y="144.271108" style="stroke: #000000; stroke-width: 0.8"/>
      </g>
     </g>
     <g id="text_14">
      <!-- 1500 -->
      <g transform="translate(20.878125 148.070327) scale(0.1 -0.1)">
       <use xlink:href="#DejaVuSans-31"/>
       <use xlink:href="#DejaVuSans-35" transform="translate(63.623047 0)"/>
       <use xlink:href="#DejaVuSans-30" transform="translate(127.246094 0)"/>
       <use xlink:href="#DejaVuSans-30" transform="translate(190.869141 0)"/>
      </g>
     </g>
    </g>
    <g id="ytick_5">
     <g id="line2d_14">
      <g>
       <use xlink:href="#mc856fd6370" x="53.328125" y="105.289477" style="stroke: #000000; stroke-width: 0.8"/>
      </g>
     </g>
     <g id="text_15">
      <!-- 2000 -->
      <g transform="translate(20.878125 109.088696) scale(0.1 -0.1)">
       <use xlink:href="#DejaVuSans-32"/>
       <use xlink:href="#DejaVuSans-30" transform="translate(63.623047 0)"/>
       <use xlink:href="#DejaVuSans-30" transform="translate(127.246094 0)"/>
       <use xlink:href="#DejaVuSans-30" transform="translate(190.869141 0)"/>
      </g>
     </g>
    </g>
    <g id="ytick_6">
     <g id="line2d_15">
      <g>
       <use xlink:href="#mc856fd6370" x="53.328125" y="66.307847" style="stroke: #000000; stroke-width: 0.8"/>
      </g>
     </g>
     <g id="text_16">
      <!-- 2500 -->
      <g transform="translate(20.878125 70.107065) scale(0.1 -0.1)">
       <use xlink:href="#DejaVuSans-32"/>
       <use xlink:href="#DejaVuSans-35" transform="translate(63.623047 0)"/>
       <use xlink:href="#DejaVuSans-30" transform="translate(127.246094 0)"/>
       <use xlink:href="#DejaVuSans-30" transform="translate(190.869141 0)"/>
      </g>
     </g>
    </g>
    <g id="ytick_7">
     <g id="line2d_16">
      <g>
       <use xlink:href="#mc856fd6370" x="53.328125" y="27.326216" style="stroke: #000000; stroke-width: 0.8"/>
      </g>
     </g>
     <g id="text_17">
      <!-- 3000 -->
      <g transform="translate(20.878125 31.125435) scale(0.1 -0.1)">
       <defs>
        <path id="DejaVuSans-33" d="M 2597 2516 
Q 3050 2419 3304 2112 
Q 3559 1806 3559 1356 
Q 3559 666 3084 287 
Q 2609 -91 1734 -91 
Q 1441 -91 1130 -33 
Q 819 25 488 141 
L 488 750 
Q 750 597 1062 519 
Q 1375 441 1716 441 
Q 2309 441 2620 675 
Q 2931 909 2931 1356 
Q 2931 1769 2642 2001 
Q 2353 2234 1838 2234 
L 1294 2234 
L 1294 2753 
L 1863 2753 
Q 2328 2753 2575 2939 
Q 2822 3125 2822 3475 
Q 2822 3834 2567 4026 
Q 2313 4219 1838 4219 
Q 1578 4219 1281 4162 
Q 984 4106 628 3988 
L 628 4550 
Q 988 4650 1302 4700 
Q 1616 4750 1894 4750 
Q 2613 4750 3031 4423 
Q 3450 4097 3450 3541 
Q 3450 3153 3228 2886 
Q 3006 2619 2597 2516 
z
" transform="scale(0.015625)"/>
       </defs>
       <use xlink:href="#DejaVuSans-33"/>
       <use xlink:href="#DejaVuSans-30" transform="translate(63.623047 0)"/>
       <use xlink:href="#DejaVuSans-30" transform="translate(127.246094 0)"/>
       <use xlink:href="#DejaVuSans-30" transform="translate(190.869141 0)"/>
      </g>
     </g>
    </g>
    <g id="text_18">
     <!-- Number of entities in each compartment -->
     <g transform="translate(14.798438 242.356781) rotate(-90) scale(0.1 -0.1)">
      <defs>
       <path id="DejaVuSans-4e" d="M 628 4666 
L 1478 4666 
L 3547 763 
L 3547 4666 
L 4159 4666 
L 4159 0 
L 3309 0 
L 1241 3903 
L 1241 0 
L 628 0 
L 628 4666 
z
" transform="scale(0.015625)"/>
       <path id="DejaVuSans-75" d="M 544 1381 
L 544 3500 
L 1119 3500 
L 1119 1403 
Q 1119 906 1312 657 
Q 1506 409 1894 409 
Q 2359 409 2629 706 
Q 2900 1003 2900 1516 
L 2900 3500 
L 3475 3500 
L 3475 0 
L 2900 0 
L 2900 538 
Q 2691 219 2414 64 
Q 2138 -91 1772 -91 
Q 1169 -91 856 284 
Q 544 659 544 1381 
z
M 1991 3584 
L 1991 3584 
z
" transform="scale(0.015625)"/>
       <path id="DejaVuSans-62" d="M 3116 1747 
Q 3116 2381 2855 2742 
Q 2594 3103 2138 3103 
Q 1681 3103 1420 2742 
Q 1159 2381 1159 1747 
Q 1159 1113 1420 752 
Q 1681 391 2138 391 
Q 2594 391 2855 752 
Q 3116 1113 3116 1747 
z
M 1159 2969 
Q 1341 3281 1617 3432 
Q 1894 3584 2278 3584 
Q 2916 3584 3314 3078 
Q 3713 2572 3713 1747 
Q 3713 922 3314 415 
Q 2916 -91 2278 -91 
Q 1894 -91 1617 61 
Q 1341 213 1159 525 
L 1159 0 
L 581 0 
L 581 4863 
L 1159 4863 
L 1159 2969 
z
" transform="scale(0.015625)"/>
       <path id="DejaVuSans-72" d="M 2631 2963 
Q 2534 3019 2420 3045 
Q 2306 3072 2169 3072 
Q 1681 3072 1420 2755 
Q 1159 2438 1159 1844 
L 1159 0 
L 581 0 
L 581 3500 
L 1159 3500 
L 1159 2956 
Q 1341 3275 1631 3429 
Q 1922 3584 2338 3584 
Q 2397 3584 2469 3576 
Q 2541 3569 2628 3553 
L 2631 2963 
z
" transform="scale(0.015625)"/>
       <path id="DejaVuSans-20" transform="scale(0.015625)"/>
       <path id="DejaVuSans-6f" d="M 1959 3097 
Q 1497 3097 1228 2736 
Q 959 2375 959 1747 
Q 959 1119 1226 758 
Q 1494 397 1959 397 
Q 2419 397 2687 759 
Q 2956 1122 2956 1747 
Q 2956 2369 2687 2733 
Q 2419 3097 1959 3097 
z
M 1959 3584 
Q 2709 3584 3137 3096 
Q 3566 2609 3566 1747 
Q 3566 888 3137 398 
Q 2709 -91 1959 -91 
Q 1206 -91 779 398 
Q 353 888 353 1747 
Q 353 2609 779 3096 
Q 1206 3584 1959 3584 
z
" transform="scale(0.015625)"/>
       <path id="DejaVuSans-66" d="M 2375 4863 
L 2375 4384 
L 1825 4384 
Q 1516 4384 1395 4259 
Q 1275 4134 1275 3809 
L 1275 3500 
L 2222 3500 
L 2222 3053 
L 1275 3053 
L 1275 0 
L 697 0 
L 697 3053 
L 147 3053 
L 147 3500 
L 697 3500 
L 697 3744 
Q 697 4328 969 4595 
Q 1241 4863 1831 4863 
L 2375 4863 
z
" transform="scale(0.015625)"/>
       <path id="DejaVuSans-6e" d="M 3513 2113 
L 3513 0 
L 2938 0 
L 2938 2094 
Q 2938 2591 2744 2837 
Q 2550 3084 2163 3084 
Q 1697 3084 1428 2787 
Q 1159 2491 1159 1978 
L 1159 0 
L 581 0 
L 581 3500 
L 1159 3500 
L 1159 2956 
Q 1366 3272 1645 3428 
Q 1925 3584 2291 3584 
Q 2894 3584 3203 3211 
Q 3513 2838 3513 2113 
z
" transform="scale(0.015625)"/>
       <path id="DejaVuSans-74" d="M 1172 4494 
L 1172 3500 
L 2356 3500 
L 2356 3053 
L 1172 3053 
L 1172 1153 
Q 1172 725 1289 603 
Q 1406 481 1766 481 
L 2356 481 
L 2356 0 
L 1766 0 
Q 1100 0 847 248 
Q 594 497 594 1153 
L 594 3053 
L 172 3053 
L 172 3500 
L 594 3500 
L 594 4494 
L 1172 4494 
z
" transform="scale(0.015625)"/>
       <path id="DejaVuSans-73" d="M 2834 3397 
L 2834 2853 
Q 2591 2978 2328 3040 
Q 2066 3103 1784 3103 
Q 1356 3103 1142 2972 
Q 928 2841 928 2578 
Q 928 2378 1081 2264 
Q 1234 2150 1697 2047 
L 1894 2003 
Q 2506 1872 2764 1633 
Q 3022 1394 3022 966 
Q 3022 478 2636 193 
Q 2250 -91 1575 -91 
Q 1294 -91 989 -36 
Q 684 19 347 128 
L 347 722 
Q 666 556 975 473 
Q 1284 391 1588 391 
Q 1994 391 2212 530 
Q 2431 669 2431 922 
Q 2431 1156 2273 1281 
Q 2116 1406 1581 1522 
L 1381 1569 
Q 847 1681 609 1914 
Q 372 2147 372 2553 
Q 372 3047 722 3315 
Q 1072 3584 1716 3584 
Q 2034 3584 2315 3537 
Q 2597 3491 2834 3397 
z
" transform="scale(0.015625)"/>
       <path id="DejaVuSans-61" d="M 2194 1759 
Q 1497 1759 1228 1600 
Q 959 1441 959 1056 
Q 959 750 1161 570 
Q 1363 391 1709 391 
Q 2188 391 2477 730 
Q 2766 1069 2766 1631 
L 2766 1759 
L 2194 1759 
z
M 3341 1997 
L 3341 0 
L 2766 0 
L 2766 531 
Q 2569 213 2275 61 
Q 1981 -91 1556 -91 
Q 1019 -91 701 211 
Q 384 513 384 1019 
Q 384 1609 779 1909 
Q 1175 2209 1959 2209 
L 2766 2209 
L 2766 2266 
Q 2766 2663 2505 2880 
Q 2244 3097 1772 3097 
Q 1472 3097 1187 3025 
Q 903 2953 641 2809 
L 641 3341 
Q 956 3463 1253 3523 
Q 1550 3584 1831 3584 
Q 2591 3584 2966 3190 
Q 3341 2797 3341 1997 
z
" transform="scale(0.015625)"/>
       <path id="DejaVuSans-63" d="M 3122 3366 
L 3122 2828 
Q 2878 2963 2633 3030 
Q 2388 3097 2138 3097 
Q 1578 3097 1268 2742 
Q 959 2388 959 1747 
Q 959 1106 1268 751 
Q 1578 397 2138 397 
Q 2388 397 2633 464 
Q 2878 531 3122 666 
L 3122 134 
Q 2881 22 2623 -34 
Q 2366 -91 2075 -91 
Q 1284 -91 818 406 
Q 353 903 353 1747 
Q 353 2603 823 3093 
Q 1294 3584 2113 3584 
Q 2378 3584 2631 3529 
Q 2884 3475 3122 3366 
z
" transform="scale(0.015625)"/>
       <path id="DejaVuSans-68" d="M 3513 2113 
L 3513 0 
L 2938 0 
L 2938 2094 
Q 2938 2591 2744 2837 
Q 2550 3084 2163 3084 
Q 1697 3084 1428 2787 
Q 1159 2491 1159 1978 
L 1159 0 
L 581 0 
L 581 4863 
L 1159 4863 
L 1159 2956 
Q 1366 3272 1645 3428 
Q 1925 3584 2291 3584 
Q 2894 3584 3203 3211 
Q 3513 2838 3513 2113 
z
" transform="scale(0.015625)"/>
       <path id="DejaVuSans-70" d="M 1159 525 
L 1159 -1331 
L 581 -1331 
L 581 3500 
L 1159 3500 
L 1159 2969 
Q 1341 3281 1617 3432 
Q 1894 3584 2278 3584 
Q 2916 3584 3314 3078 
Q 3713 2572 3713 1747 
Q 3713 922 3314 415 
Q 2916 -91 2278 -91 
Q 1894 -91 1617 61 
Q 1341 213 1159 525 
z
M 3116 1747 
Q 3116 2381 2855 2742 
Q 2594 3103 2138 3103 
Q 1681 3103 1420 2742 
Q 1159 2381 1159 1747 
Q 1159 1113 1420 752 
Q 1681 391 2138 391 
Q 2594 391 2855 752 
Q 3116 1113 3116 1747 
z
" transform="scale(0.015625)"/>
      </defs>
      <use xlink:href="#DejaVuSans-4e"/>
      <use xlink:href="#DejaVuSans-75" transform="translate(74.804688 0)"/>
      <use xlink:href="#DejaVuSans-6d" transform="translate(138.183594 0)"/>
      <use xlink:href="#DejaVuSans-62" transform="translate(235.595703 0)"/>
      <use xlink:href="#DejaVuSans-65" transform="translate(299.072266 0)"/>
      <use xlink:href="#DejaVuSans-72" transform="translate(360.595703 0)"/>
      <use xlink:href="#DejaVuSans-20" transform="translate(401.708984 0)"/>
      <use xlink:href="#DejaVuSans-6f" transform="translate(433.496094 0)"/>
      <use xlink:href="#DejaVuSans-66" transform="translate(494.677734 0)"/>
      <use xlink:href="#DejaVuSans-20" transform="translate(529.882812 0)"/>
      <use xlink:href="#DejaVuSans-65" transform="translate(561.669922 0)"/>
      <use xlink:href="#DejaVuSans-6e" transform="translate(623.193359 0)"/>
      <use xlink:href="#DejaVuSans-74" transform="translate(686.572266 0)"/>
      <use xlink:href="#DejaVuSans-69" transform="translate(725.78125 0)"/>
      <use xlink:href="#DejaVuSans-74" transform="translate(753.564453 0)"/>
      <use xlink:href="#DejaVuSans-69" transform="translate(792.773438 0)"/>
      <use xlink:href="#DejaVuSans-65" transform="translate(820.556641 0)"/>
      <use xlink:href="#DejaVuSans-73" transform="translate(882.080078 0)"/>
      <use xlink:href="#DejaVuSans-20" transform="translate(934.179688 0)"/>
      <use xlink:href="#DejaVuSans-69" transform="translate(965.966797 0)"/>
      <use xlink:href="#DejaVuSans-6e" transform="translate(993.75 0)"/>
      <use xlink:href="#DejaVuSans-20" transform="translate(1057.128906 0)"/>
      <use xlink:href="#DejaVuSans-65" transform="translate(1088.916016 0)"/>
      <use xlink:href="#DejaVuSans-61" transform="translate(1150.439453 0)"/>
      <use xlink:href="#DejaVuSans-63" transform="translate(1211.71875 0)"/>
      <use xlink:href="#DejaVuSans-68" transform="translate(1266.699219 0)"/>
      <use xlink:href="#DejaVuSans-20" transform="translate(1330.078125 0)"/>
      <use xlink:href="#DejaVuSans-63" transform="translate(1361.865234 0)"/>
      <use xlink:href="#DejaVuSans-6f" transform="translate(1416.845703 0)"/>
      <use xlink:href="#DejaVuSans-6d" transform="translate(1478.027344 0)"/>
      <use xlink:href="#DejaVuSans-70" transform="translate(1575.439453 0)"/>
      <use xlink:href="#DejaVuSans-61" transform="translate(1638.916016 0)"/>
      <use xlink:href="#DejaVuSans-72" transform="translate(1700.195312 0)"/>
      <use xlink:href="#DejaVuSans-74" transform="translate(1741.308594 0)"/>
      <use xlink:href="#DejaVuSans-6d" transform="translate(1780.517578 0)"/>
      <use xlink:href="#DejaVuSans-65" transform="translate(1877.929688 0)"/>
      <use xlink:href="#DejaVuSans-6e" transform="translate(1939.453125 0)"/>
      <use xlink:href="#DejaVuSans-74" transform="translate(2002.832031 0)"/>
     </g>
    </g>
   </g>
   <g id="line2d_17">
    <path d="M 69.560852 261.216 
L 71.192282 255.602645 
L 72.823712 247.572429 
L 76.086572 233.305152 
L 79.349432 220.129361 
L 80.980861 214.204153 
L 82.612291 209.058578 
L 84.243721 201.574105 
L 87.506581 189.879616 
L 89.138011 182.862922 
L 92.400871 173.273441 
L 94.0323 168.907499 
L 95.66373 163.91785 
L 97.29516 161.111172 
L 98.92659 155.575781 
L 100.55802 152.145397 
L 102.18945 147.935381 
L 103.82088 145.128704 
L 105.45231 143.101659 
L 111.978029 126.339558 
L 113.609459 123.298991 
L 115.240889 119.94657 
L 116.872319 115.814518 
L 118.503749 113.631546 
L 120.135178 111.838391 
L 121.766608 108.875787 
L 123.398038 105.60133 
L 125.029468 105.83522 
L 126.660898 100.611682 
L 128.292328 97.960931 
L 129.923758 94.686474 
L 131.555188 92.815355 
L 133.186617 90.008678 
L 134.818047 88.449413 
L 136.449477 86.734221 
L 139.712337 82.290315 
L 141.343767 79.405675 
L 142.975197 77.14474 
L 144.606627 75.663438 
L 146.238056 72.622871 
L 147.869486 70.673789 
L 149.500916 69.192487 
L 151.132346 66.15192 
L 152.763776 64.826545 
L 154.395206 63.189316 
L 156.026636 61.318198 
L 157.658066 59.057263 
L 159.289495 59.758933 
L 160.920925 58.355594 
L 162.552355 56.640402 
L 164.183785 56.016696 
L 165.815215 55.548917 
L 167.446645 55.782806 
L 169.078075 55.704843 
L 170.709505 52.742239 
L 172.340935 53.210019 
L 173.972364 53.132055 
L 175.603794 50.871121 
L 177.235224 49.311856 
L 178.866654 49.000003 
L 180.498084 49.000003 
L 182.129514 45.881472 
L 183.760944 44.244244 
L 185.392374 43.620538 
L 187.023803 41.983309 
L 188.655233 42.840905 
L 190.286663 44.088317 
L 191.918093 42.996831 
L 193.549523 42.529052 
L 195.180953 41.593493 
L 196.812383 39.254595 
L 198.443813 37.617366 
L 200.075242 39.098668 
L 201.706672 39.878301 
L 203.338102 39.176632 
L 204.969532 38.708852 
L 206.600962 37.773293 
L 208.232392 35.902175 
L 209.863822 36.759771 
L 211.495252 35.902175 
L 213.126681 35.902175 
L 214.758111 37.539403 
L 216.389541 37.22755 
L 218.020971 35.668285 
L 219.652401 36.291991 
L 221.283831 34.966616 
L 224.546691 35.200505 
L 227.80955 35.122542 
L 229.44098 32.471791 
L 231.07241 31.536232 
L 232.70384 31.068452 
L 235.9667 33.173461 
L 237.59813 32.861607 
L 240.860989 35.746248 
L 242.492419 35.902175 
L 244.123849 33.953093 
L 247.386709 33.251424 
L 249.018139 34.810689 
L 250.649569 34.420873 
L 252.280998 32.783644 
L 253.912428 33.87513 
L 255.543858 33.87513 
L 258.806718 35.512358 
L 260.438148 37.22755 
L 262.069578 37.773293 
L 263.701008 35.590322 
L 265.332437 36.058101 
L 266.963867 35.356432 
L 268.595297 34.031056 
L 270.226727 35.356432 
L 271.858157 33.251424 
L 273.489587 33.797167 
L 275.121017 32.705681 
L 276.752447 32.783644 
L 278.383876 31.068452 
L 280.015306 29.899004 
L 281.646736 31.068452 
L 283.278166 30.366783 
L 284.909596 30.912526 
L 286.541026 30.366783 
L 288.172456 29.509187 
L 289.803886 28.495665 
L 291.435315 29.82104 
L 293.066745 30.05493 
L 294.698175 31.848085 
L 296.329605 32.861607 
L 297.961035 32.237901 
L 299.592465 32.004012 
L 301.223895 32.081975 
L 302.855325 30.52271 
L 304.486755 29.58715 
L 306.118184 29.82104 
L 307.749614 30.678636 
L 309.381044 28.105849 
L 311.012474 27.638069 
L 312.643904 28.261775 
L 314.275334 28.027885 
L 315.906764 27.949922 
L 317.538194 29.119371 
L 319.169623 29.353261 
L 320.801053 29.743077 
L 322.432483 31.068452 
L 324.063913 30.912526 
L 325.695343 28.729555 
L 327.326773 27.871959 
L 328.958203 25.611024 
L 330.589633 26.390657 
L 332.221062 26.156767 
L 333.852492 25.533061 
L 335.483922 25.688987 
L 337.115352 25.299171 
L 338.746782 24.129722 
L 340.378212 23.973796 
L 342.009642 23.1162 
L 343.641072 21.868788 
L 345.272501 23.817869 
L 346.903931 22.64842 
L 348.535361 22.336567 
L 350.166791 23.194163 
L 351.798221 22.492494 
L 353.429651 21.401008 
L 355.061081 21.011192 
L 356.692511 19.373963 
L 358.32394 19.451927 
L 359.95537 19.296 
L 361.5868 19.685816 
L 363.21823 21.323045 
L 364.84966 20.777302 
L 366.48109 23.428053 
L 368.11252 22.258604 
L 369.74395 23.1162 
L 371.375379 21.790824 
L 374.638239 23.272126 
L 376.269669 22.726383 
L 377.901099 25.143245 
L 379.532529 23.583979 
L 381.163959 23.895832 
L 382.795389 22.804347 
L 384.426818 21.868788 
L 386.058248 23.038237 
L 387.689678 24.441575 
L 389.321108 25.221208 
L 390.952538 25.688987 
L 392.583968 27.949922 
L 394.215398 36.291991 
L 394.215398 36.291991 
" clip-path="url(#pdbaed4e564)" style="fill: none; stroke: #1f77b4; stroke-width: 1.5; stroke-linecap: square"/>
   </g>
   <g id="line2d_18">
    <path d="M 69.560852 261.216 
L 71.192282 261.138037 
L 76.086572 259.734698 
L 77.718002 258.721176 
L 79.349432 257.473763 
L 80.980861 256.382278 
L 82.612291 255.056902 
L 84.243721 253.965417 
L 85.875151 252.562078 
L 87.506581 250.612996 
L 92.400871 244.220009 
L 94.0323 242.504817 
L 95.66373 240.321846 
L 97.29516 237.827022 
L 98.92659 236.813499 
L 100.55802 235.098307 
L 102.18945 232.603483 
L 103.82088 230.420512 
L 105.45231 227.379945 
L 107.083739 225.976606 
L 108.715169 224.807157 
L 111.978029 221.5327 
L 113.609459 219.427692 
L 115.240889 216.854904 
L 116.872319 215.919345 
L 118.503749 213.658411 
L 120.135178 210.851733 
L 121.766608 209.292468 
L 123.398038 206.797644 
L 125.029468 203.289297 
L 126.660898 202.977444 
L 128.292328 199.78095 
L 129.923758 198.455575 
L 131.555188 198.923354 
L 133.186617 197.052236 
L 134.818047 193.154073 
L 136.449477 192.920183 
L 139.712337 190.035542 
L 141.343767 190.191469 
L 142.975197 189.567763 
L 144.606627 187.618681 
L 146.238056 186.293306 
L 147.869486 183.954408 
L 149.500916 183.174775 
L 151.132346 183.954408 
L 152.763776 183.330702 
L 154.395206 181.303657 
L 157.658066 181.537547 
L 159.289495 178.26309 
L 160.920925 177.483457 
L 162.552355 176.080119 
L 167.446645 169.375278 
L 169.078075 166.490637 
L 170.709505 166.334711 
L 172.340935 164.775446 
L 173.972364 164.931372 
L 175.603794 165.866931 
L 177.235224 165.321189 
L 178.866654 163.839887 
L 180.498084 163.21618 
L 182.129514 163.45007 
L 183.760944 162.670438 
L 185.392374 162.748401 
L 187.023803 161.578952 
L 188.655233 159.785797 
L 190.286663 158.382458 
L 191.918093 158.226532 
L 193.549523 156.823193 
L 195.180953 156.97912 
L 196.812383 156.901156 
L 198.443813 156.433377 
L 200.075242 156.355413 
L 201.706672 157.213009 
L 203.338102 156.355413 
L 204.969532 155.108001 
L 206.600962 155.497818 
L 208.232392 155.263928 
L 209.863822 155.575781 
L 211.495252 154.328369 
L 213.126681 154.016516 
L 214.758111 153.080956 
L 216.389541 152.69114 
L 218.020971 151.131875 
L 219.652401 151.209838 
L 221.283831 150.742059 
L 222.915261 148.715014 
L 224.546691 148.325198 
L 227.80955 146.687969 
L 229.44098 147.077785 
L 231.07241 147.701491 
L 232.70384 149.182793 
L 234.33527 147.935381 
L 235.9667 148.481124 
L 237.59813 148.559087 
L 239.229559 146.610006 
L 240.860989 145.206667 
L 242.492419 142.945733 
L 244.123849 143.179622 
L 245.755279 142.867769 
L 247.386709 143.257586 
L 249.018139 141.308504 
L 250.649569 140.606835 
L 252.280998 143.023696 
L 253.912428 141.854247 
L 255.543858 142.477953 
L 257.175288 142.244063 
L 258.806718 142.322026 
L 260.438148 140.684798 
L 262.069578 140.061092 
L 263.701008 141.93221 
L 265.332437 142.244063 
L 266.963867 143.803328 
L 268.595297 145.206667 
L 270.226727 144.349071 
L 271.858157 144.582961 
L 273.489587 144.271108 
L 275.121017 144.582961 
L 276.752447 145.206667 
L 278.383876 145.9863 
L 280.015306 146.999822 
L 281.646736 145.362594 
L 283.278166 145.9863 
L 284.909596 144.271108 
L 286.541026 144.271108 
L 288.172456 145.9863 
L 289.803886 145.75241 
L 291.435315 145.28463 
L 293.066745 144.427034 
L 294.698175 142.244063 
L 296.329605 140.606835 
L 297.961035 140.684798 
L 299.592465 141.776284 
L 301.223895 140.996651 
L 302.855325 142.244063 
L 304.486755 143.179622 
L 306.118184 144.349071 
L 307.749614 144.193145 
L 309.381044 145.362594 
L 311.012474 146.220189 
L 312.643904 146.142226 
L 314.275334 146.220189 
L 315.906764 145.830373 
L 317.538194 144.816851 
L 319.169623 144.115181 
L 320.801053 142.867769 
L 322.432483 142.711843 
L 324.063913 143.257586 
L 325.695343 145.908336 
L 327.326773 145.440557 
L 328.958203 147.233712 
L 330.589633 147.623528 
L 332.221062 147.623528 
L 333.852492 150.118353 
L 335.483922 149.650573 
L 337.115352 148.403161 
L 338.746782 149.026867 
L 340.378212 150.274279 
L 343.641072 151.287801 
L 345.272501 148.87094 
L 346.903931 151.521691 
L 348.535361 152.535214 
L 350.166791 151.599655 
L 351.798221 150.975948 
L 353.429651 151.209838 
L 355.061081 152.92503 
L 358.32394 151.365765 
L 359.95537 150.352242 
L 361.5868 150.196316 
L 363.21823 147.545565 
L 364.84966 147.701491 
L 366.48109 145.908336 
L 368.11252 147.077785 
L 369.74395 145.75241 
L 371.375379 145.908336 
L 373.006809 145.206667 
L 374.638239 145.28463 
L 376.269669 145.51852 
L 377.901099 144.349071 
L 379.532529 145.440557 
L 381.163959 145.28463 
L 382.795389 145.908336 
L 384.426818 146.687969 
L 386.058248 145.9863 
L 387.689678 146.610006 
L 389.321108 144.037218 
L 390.952538 142.39999 
L 392.583968 143.803328 
L 394.215398 143.101659 
L 394.215398 143.101659 
" clip-path="url(#pdbaed4e564)" style="fill: none; stroke: #ff7f0e; stroke-width: 1.5; stroke-linecap: square"/>
   </g>
   <g id="patch_3">
    <path d="M 53.328125 273.312 
L 53.328125 7.2 
" style="fill: none; stroke: #000000; stroke-width: 0.8; stroke-linejoin: miter; stroke-linecap: square"/>
   </g>
   <g id="patch_4">
    <path d="M 410.448125 273.312 
L 410.448125 7.2 
" style="fill: none; stroke: #000000; stroke-width: 0.8; stroke-linejoin: miter; stroke-linecap: square"/>
   </g>
   <g id="patch_5">
    <path d="M 53.328125 273.312 
L 410.448125 273.312 
" style="fill: none; stroke: #000000; stroke-width: 0.8; stroke-linejoin: miter; stroke-linecap: square"/>
   </g>
   <g id="patch_6">
    <path d="M 53.328125 7.2 
L 410.448125 7.2 
" style="fill: none; stroke: #000000; stroke-width: 0.8; stroke-linejoin: miter; stroke-linecap: square"/>
   </g>
  </g>
 </g>
 <defs>
  <clipPath id="pdbaed4e564">
   <rect x="53.328125" y="7.2" width="357.12" height="266.112"/>
  </clipPath>
 </defs>
</svg>
