<?xml version="1.0" encoding="utf-8" standalone="no"?>
<!DOCTYPE svg PUBLIC "-//W3C//DTD SVG 1.1//EN"
  "http://www.w3.org/Graphics/SVG/1.1/DTD/svg11.dtd">
<svg xmlns:xlink="http://www.w3.org/1999/xlink" width="403.97pt" height="297.190125pt" viewBox="0 0 403.97 297.190125" xmlns="http://www.w3.org/2000/svg" version="1.1">
 <metadata>
  <rdf:RDF xmlns:dc="http://purl.org/dc/elements/1.1/" xmlns:cc="http://creativecommons.org/ns#" xmlns:rdf="http://www.w3.org/1999/02/22-rdf-syntax-ns#">
   <cc:Work>
    <dc:type rdf:resource="http://purl.org/dc/dcmitype/StillImage"/>
    <dc:date>2024-06-19T07:35:55.192001</dc:date>
    <dc:format>image/svg+xml</dc:format>
    <dc:creator>
     <cc:Agent>
      <dc:title>Matplotlib v3.9.0, https://matplotlib.org/</dc:title>
     </cc:Agent>
    </dc:creator>
   </cc:Work>
  </rdf:RDF>
 </metadata>
 <defs>
  <style type="text/css">*{stroke-linejoin: round; stroke-linecap: butt}</style>
 </defs>
 <g id="figure_1">
  <g id="patch_1">
   <path d="M 0 297.190125 
L 403.97 297.190125 
L 403.97 0 
L 0 0 
z
" style="fill: #ffffff"/>
  </g>
  <g id="axes_1">
   <g id="patch_2">
    <path d="M 39.65 273.312 
L 396.77 273.312 
L 396.77 7.2 
L 39.65 7.2 
z
" style="fill: #ffffff"/>
   </g>
   <g id="matplotlib.axis_1">
    <g id="xtick_1">
     <g id="line2d_1">
      <defs>
       <path id="m0727b6ec8f" d="M 0 0 
L 0 3.5 
" style="stroke: #000000; stroke-width: 0.8"/>
      </defs>
      <g>
       <use xlink:href="#m0727b6ec8f" x="55.882727" y="273.312" style="stroke: #000000; stroke-width: 0.8"/>
      </g>
     </g>
     <g id="text_1">
      <!-- 0.0 -->
      <g transform="translate(47.931165 287.910437) scale(0.1 -0.1)">
       <defs>
        <path id="DejaVuSans-30" d="M 2034 4250 
Q 1547 4250 1301 3770 
Q 1056 3291 1056 2328 
Q 1056 1369 1301 889 
Q 1547 409 2034 409 
Q 2525 409 2770 889 
Q 3016 1369 3016 2328 
Q 3016 3291 2770 3770 
Q 2525 4250 2034 4250 
z
M 2034 4750 
Q 2819 4750 3233 4129 
Q 3647 3509 3647 2328 
Q 3647 1150 3233 529 
Q 2819 -91 2034 -91 
Q 1250 -91 836 529 
Q 422 1150 422 2328 
Q 422 3509 836 4129 
Q 1250 4750 2034 4750 
z
" transform="scale(0.015625)"/>
        <path id="DejaVuSans-2e" d="M 684 794 
L 1344 794 
L 1344 0 
L 684 0 
L 684 794 
z
" transform="scale(0.015625)"/>
       </defs>
       <use xlink:href="#DejaVuSans-30"/>
       <use xlink:href="#DejaVuSans-2e" x="63.623047"/>
       <use xlink:href="#DejaVuSans-30" x="95.410156"/>
      </g>
     </g>
    </g>
    <g id="xtick_2">
     <g id="line2d_2">
      <g>
       <use xlink:href="#m0727b6ec8f" x="96.668474" y="273.312" style="stroke: #000000; stroke-width: 0.8"/>
      </g>
     </g>
     <g id="text_2">
      <!-- 2.5 -->
      <g transform="translate(88.716912 287.910437) scale(0.1 -0.1)">
       <defs>
        <path id="DejaVuSans-32" d="M 1228 531 
L 3431 531 
L 3431 0 
L 469 0 
L 469 531 
Q 828 903 1448 1529 
Q 2069 2156 2228 2338 
Q 2531 2678 2651 2914 
Q 2772 3150 2772 3378 
Q 2772 3750 2511 3984 
Q 2250 4219 1831 4219 
Q 1534 4219 1204 4116 
Q 875 4013 500 3803 
L 500 4441 
Q 881 4594 1212 4672 
Q 1544 4750 1819 4750 
Q 2544 4750 2975 4387 
Q 3406 4025 3406 3419 
Q 3406 3131 3298 2873 
Q 3191 2616 2906 2266 
Q 2828 2175 2409 1742 
Q 1991 1309 1228 531 
z
" transform="scale(0.015625)"/>
        <path id="DejaVuSans-35" d="M 691 4666 
L 3169 4666 
L 3169 4134 
L 1269 4134 
L 1269 2991 
Q 1406 3038 1543 3061 
Q 1681 3084 1819 3084 
Q 2600 3084 3056 2656 
Q 3513 2228 3513 1497 
Q 3513 744 3044 326 
Q 2575 -91 1722 -91 
Q 1428 -91 1123 -41 
Q 819 9 494 109 
L 494 744 
Q 775 591 1075 516 
Q 1375 441 1709 441 
Q 2250 441 2565 725 
Q 2881 1009 2881 1497 
Q 2881 1984 2565 2268 
Q 2250 2553 1709 2553 
Q 1456 2553 1204 2497 
Q 953 2441 691 2322 
L 691 4666 
z
" transform="scale(0.015625)"/>
       </defs>
       <use xlink:href="#DejaVuSans-32"/>
       <use xlink:href="#DejaVuSans-2e" x="63.623047"/>
       <use xlink:href="#DejaVuSans-35" x="95.410156"/>
      </g>
     </g>
    </g>
    <g id="xtick_3">
     <g id="line2d_3">
      <g>
       <use xlink:href="#m0727b6ec8f" x="137.454221" y="273.312" style="stroke: #000000; stroke-width: 0.8"/>
      </g>
     </g>
     <g id="text_3">
      <!-- 5.0 -->
      <g transform="translate(129.502659 287.910437) scale(0.1 -0.1)">
       <use xlink:href="#DejaVuSans-35"/>
       <use xlink:href="#DejaVuSans-2e" x="63.623047"/>
       <use xlink:href="#DejaVuSans-30" x="95.410156"/>
      </g>
     </g>
    </g>
    <g id="xtick_4">
     <g id="line2d_4">
      <g>
       <use xlink:href="#m0727b6ec8f" x="178.239968" y="273.312" style="stroke: #000000; stroke-width: 0.8"/>
      </g>
     </g>
     <g id="text_4">
      <!-- 7.5 -->
      <g transform="translate(170.288406 287.910437) scale(0.1 -0.1)">
       <defs>
        <path id="DejaVuSans-37" d="M 525 4666 
L 3525 4666 
L 3525 4397 
L 1831 0 
L 1172 0 
L 2766 4134 
L 525 4134 
L 525 4666 
z
" transform="scale(0.015625)"/>
       </defs>
       <use xlink:href="#DejaVuSans-37"/>
       <use xlink:href="#DejaVuSans-2e" x="63.623047"/>
       <use xlink:href="#DejaVuSans-35" x="95.410156"/>
      </g>
     </g>
    </g>
    <g id="xtick_5">
     <g id="line2d_5">
      <g>
       <use xlink:href="#m0727b6ec8f" x="219.025715" y="273.312" style="stroke: #000000; stroke-width: 0.8"/>
      </g>
     </g>
     <g id="text_5">
      <!-- 10.0 -->
      <g transform="translate(207.892902 287.910437) scale(0.1 -0.1)">
       <defs>
        <path id="DejaVuSans-31" d="M 794 531 
L 1825 531 
L 1825 4091 
L 703 3866 
L 703 4441 
L 1819 4666 
L 2450 4666 
L 2450 531 
L 3481 531 
L 3481 0 
L 794 0 
L 794 531 
z
" transform="scale(0.015625)"/>
       </defs>
       <use xlink:href="#DejaVuSans-31"/>
       <use xlink:href="#DejaVuSans-30" x="63.623047"/>
       <use xlink:href="#DejaVuSans-2e" x="127.246094"/>
       <use xlink:href="#DejaVuSans-30" x="159.033203"/>
      </g>
     </g>
    </g>
    <g id="xtick_6">
     <g id="line2d_6">
      <g>
       <use xlink:href="#m0727b6ec8f" x="259.811462" y="273.312" style="stroke: #000000; stroke-width: 0.8"/>
      </g>
     </g>
     <g id="text_6">
      <!-- 12.5 -->
      <g transform="translate(248.678649 287.910437) scale(0.1 -0.1)">
       <use xlink:href="#DejaVuSans-31"/>
       <use xlink:href="#DejaVuSans-32" x="63.623047"/>
       <use xlink:href="#DejaVuSans-2e" x="127.246094"/>
       <use xlink:href="#DejaVuSans-35" x="159.033203"/>
      </g>
     </g>
    </g>
    <g id="xtick_7">
     <g id="line2d_7">
      <g>
       <use xlink:href="#m0727b6ec8f" x="300.597209" y="273.312" style="stroke: #000000; stroke-width: 0.8"/>
      </g>
     </g>
     <g id="text_7">
      <!-- 15.0 -->
      <g transform="translate(289.464396 287.910437) scale(0.1 -0.1)">
       <use xlink:href="#DejaVuSans-31"/>
       <use xlink:href="#DejaVuSans-35" x="63.623047"/>
       <use xlink:href="#DejaVuSans-2e" x="127.246094"/>
       <use xlink:href="#DejaVuSans-30" x="159.033203"/>
      </g>
     </g>
    </g>
    <g id="xtick_8">
     <g id="line2d_8">
      <g>
       <use xlink:href="#m0727b6ec8f" x="341.382956" y="273.312" style="stroke: #000000; stroke-width: 0.8"/>
      </g>
     </g>
     <g id="text_8">
      <!-- 17.5 -->
      <g transform="translate(330.250143 287.910437) scale(0.1 -0.1)">
       <use xlink:href="#DejaVuSans-31"/>
       <use xlink:href="#DejaVuSans-37" x="63.623047"/>
       <use xlink:href="#DejaVuSans-2e" x="127.246094"/>
       <use xlink:href="#DejaVuSans-35" x="159.033203"/>
      </g>
     </g>
    </g>
    <g id="xtick_9">
     <g id="line2d_9">
      <g>
       <use xlink:href="#m0727b6ec8f" x="382.168703" y="273.312" style="stroke: #000000; stroke-width: 0.8"/>
      </g>
     </g>
     <g id="text_9">
      <!-- 20.0 -->
      <g transform="translate(371.03589 287.910437) scale(0.1 -0.1)">
       <use xlink:href="#DejaVuSans-32"/>
       <use xlink:href="#DejaVuSans-30" x="63.623047"/>
       <use xlink:href="#DejaVuSans-2e" x="127.246094"/>
       <use xlink:href="#DejaVuSans-30" x="159.033203"/>
      </g>
     </g>
    </g>
   </g>
   <g id="matplotlib.axis_2">
    <g id="ytick_1">
     <g id="line2d_10">
      <defs>
       <path id="mc06d40f669" d="M 0 0 
L -3.5 0 
" style="stroke: #000000; stroke-width: 0.8"/>
      </defs>
      <g>
       <use xlink:href="#mc06d40f669" x="39.65" y="261.216" style="stroke: #000000; stroke-width: 0.8"/>
      </g>
     </g>
     <g id="text_10">
      <!-- 0 -->
      <g transform="translate(26.2875 265.015219) scale(0.1 -0.1)">
       <use xlink:href="#DejaVuSans-30"/>
      </g>
     </g>
    </g>
    <g id="ytick_2">
     <g id="line2d_11">
      <g>
       <use xlink:href="#mc06d40f669" x="39.65" y="226.862876" style="stroke: #000000; stroke-width: 0.8"/>
      </g>
     </g>
     <g id="text_11">
      <!-- 500 -->
      <g transform="translate(13.5625 230.662095) scale(0.1 -0.1)">
       <use xlink:href="#DejaVuSans-35"/>
       <use xlink:href="#DejaVuSans-30" x="63.623047"/>
       <use xlink:href="#DejaVuSans-30" x="127.246094"/>
      </g>
     </g>
    </g>
    <g id="ytick_3">
     <g id="line2d_12">
      <g>
       <use xlink:href="#mc06d40f669" x="39.65" y="192.509752" style="stroke: #000000; stroke-width: 0.8"/>
      </g>
     </g>
     <g id="text_12">
      <!-- 1000 -->
      <g transform="translate(7.2 196.308971) scale(0.1 -0.1)">
       <use xlink:href="#DejaVuSans-31"/>
       <use xlink:href="#DejaVuSans-30" x="63.623047"/>
       <use xlink:href="#DejaVuSans-30" x="127.246094"/>
       <use xlink:href="#DejaVuSans-30" x="190.869141"/>
      </g>
     </g>
    </g>
    <g id="ytick_4">
     <g id="line2d_13">
      <g>
       <use xlink:href="#mc06d40f669" x="39.65" y="158.156628" style="stroke: #000000; stroke-width: 0.8"/>
      </g>
     </g>
     <g id="text_13">
      <!-- 1500 -->
      <g transform="translate(7.2 161.955847) scale(0.1 -0.1)">
       <use xlink:href="#DejaVuSans-31"/>
       <use xlink:href="#DejaVuSans-35" x="63.623047"/>
       <use xlink:href="#DejaVuSans-30" x="127.246094"/>
       <use xlink:href="#DejaVuSans-30" x="190.869141"/>
      </g>
     </g>
    </g>
    <g id="ytick_5">
     <g id="line2d_14">
      <g>
       <use xlink:href="#mc06d40f669" x="39.65" y="123.803504" style="stroke: #000000; stroke-width: 0.8"/>
      </g>
     </g>
     <g id="text_14">
      <!-- 2000 -->
      <g transform="translate(7.2 127.602722) scale(0.1 -0.1)">
       <use xlink:href="#DejaVuSans-32"/>
       <use xlink:href="#DejaVuSans-30" x="63.623047"/>
       <use xlink:href="#DejaVuSans-30" x="127.246094"/>
       <use xlink:href="#DejaVuSans-30" x="190.869141"/>
      </g>
     </g>
    </g>
    <g id="ytick_6">
     <g id="line2d_15">
      <g>
       <use xlink:href="#mc06d40f669" x="39.65" y="89.45038" style="stroke: #000000; stroke-width: 0.8"/>
      </g>
     </g>
     <g id="text_15">
      <!-- 2500 -->
      <g transform="translate(7.2 93.249598) scale(0.1 -0.1)">
       <use xlink:href="#DejaVuSans-32"/>
       <use xlink:href="#DejaVuSans-35" x="63.623047"/>
       <use xlink:href="#DejaVuSans-30" x="127.246094"/>
       <use xlink:href="#DejaVuSans-30" x="190.869141"/>
      </g>
     </g>
    </g>
    <g id="ytick_7">
     <g id="line2d_16">
      <g>
       <use xlink:href="#mc06d40f669" x="39.65" y="55.097256" style="stroke: #000000; stroke-width: 0.8"/>
      </g>
     </g>
     <g id="text_16">
      <!-- 3000 -->
      <g transform="translate(7.2 58.896474) scale(0.1 -0.1)">
       <defs>
        <path id="DejaVuSans-33" d="M 2597 2516 
Q 3050 2419 3304 2112 
Q 3559 1806 3559 1356 
Q 3559 666 3084 287 
Q 2609 -91 1734 -91 
Q 1441 -91 1130 -33 
Q 819 25 488 141 
L 488 750 
Q 750 597 1062 519 
Q 1375 441 1716 441 
Q 2309 441 2620 675 
Q 2931 909 2931 1356 
Q 2931 1769 2642 2001 
Q 2353 2234 1838 2234 
L 1294 2234 
L 1294 2753 
L 1863 2753 
Q 2328 2753 2575 2939 
Q 2822 3125 2822 3475 
Q 2822 3834 2567 4026 
Q 2313 4219 1838 4219 
Q 1578 4219 1281 4162 
Q 984 4106 628 3988 
L 628 4550 
Q 988 4650 1302 4700 
Q 1616 4750 1894 4750 
Q 2613 4750 3031 4423 
Q 3450 4097 3450 3541 
Q 3450 3153 3228 2886 
Q 3006 2619 2597 2516 
z
" transform="scale(0.015625)"/>
       </defs>
       <use xlink:href="#DejaVuSans-33"/>
       <use xlink:href="#DejaVuSans-30" x="63.623047"/>
       <use xlink:href="#DejaVuSans-30" x="127.246094"/>
       <use xlink:href="#DejaVuSans-30" x="190.869141"/>
      </g>
     </g>
    </g>
    <g id="ytick_8">
     <g id="line2d_17">
      <g>
       <use xlink:href="#mc06d40f669" x="39.65" y="20.744132" style="stroke: #000000; stroke-width: 0.8"/>
      </g>
     </g>
     <g id="text_17">
      <!-- 3500 -->
      <g transform="translate(7.2 24.54335) scale(0.1 -0.1)">
       <use xlink:href="#DejaVuSans-33"/>
       <use xlink:href="#DejaVuSans-35" x="63.623047"/>
       <use xlink:href="#DejaVuSans-30" x="127.246094"/>
       <use xlink:href="#DejaVuSans-30" x="190.869141"/>
      </g>
     </g>
    </g>
   </g>
   <g id="line2d_18">
    <path d="M 55.882727 261.216 
L 72.197026 192.509752 
L 88.511325 143.281725 
L 104.825624 108.009844 
L 121.139922 82.737541 
L 137.454221 64.629936 
L 153.76852 51.655837 
L 170.082819 42.359895 
L 186.397117 35.699353 
L 202.711416 30.927074 
L 219.025715 27.507736 
L 235.340014 25.057781 
L 251.654312 23.302388 
L 267.968611 22.044649 
L 284.28291 21.143479 
L 300.597209 20.49779 
L 316.911508 20.035155 
L 333.225806 19.703676 
L 349.540105 19.466172 
L 365.854404 19.296 
" clip-path="url(#p5216ddd378)" style="fill: none; stroke: #1f77b4; stroke-width: 1.5; stroke-linecap: square"/>
   </g>
   <g id="line2d_19">
    <path d="M 55.882727 261.216 
L 72.197026 261.216 
L 88.511325 238.313917 
L 104.825624 210.146646 
L 121.139922 183.928275 
L 137.454221 162.043662 
L 153.76852 144.772234 
L 170.082819 131.580383 
L 186.397117 121.709039 
L 202.711416 114.420911 
L 219.025715 109.088426 
L 235.340014 105.210949 
L 251.654312 102.4036 
L 267.968611 100.377177 
L 284.28291 98.917564 
L 300.597209 97.867809 
L 316.911508 97.113636 
L 333.225806 96.572231 
L 349.540105 96.183781 
L 365.854404 95.905183 
" clip-path="url(#p5216ddd378)" style="fill: none; stroke: #ff7f0e; stroke-width: 1.5; stroke-linecap: square"/>
   </g>
   <g id="line2d_20">
    <path d="M 55.882727 261.216 
L 57.514157 254.414081 
L 59.145587 248.367932 
L 60.777017 241.291188 
L 62.408447 234.832801 
L 68.934166 214.289633 
L 70.565596 209.961139 
L 72.197026 204.670758 
L 73.828456 200.685795 
L 75.459886 195.807652 
L 77.091316 190.105033 
L 78.722746 185.295596 
L 80.354175 181.448046 
L 81.985605 176.363784 
L 83.617035 172.310115 
L 85.248465 167.500678 
L 86.879895 163.721834 
L 88.511325 159.049809 
L 90.142755 157.057328 
L 91.774185 154.309078 
L 95.037044 147.438453 
L 96.668474 145.308559 
L 98.299904 142.216778 
L 101.562764 137.956991 
L 103.194194 133.903322 
L 104.825624 132.11696 
L 106.457053 129.506122 
L 108.088483 128.131997 
L 111.351343 122.291966 
L 112.982773 119.543716 
L 114.614203 117.27641 
L 116.245633 116.245816 
L 117.877063 113.154035 
L 119.508492 112.260854 
L 122.771352 108.619423 
L 124.402782 107.863654 
L 126.034212 105.458935 
L 127.665642 104.63446 
L 129.297072 102.641979 
L 132.559931 101.680092 
L 134.191361 100.580792 
L 135.822791 98.725723 
L 137.454221 96.183592 
L 139.085651 95.221705 
L 142.348511 91.855098 
L 143.979941 91.580273 
L 145.61137 91.09933 
L 147.2428 88.419786 
L 148.87423 87.732723 
L 150.50566 85.328005 
L 153.76852 85.671536 
L 155.39995 85.259299 
L 157.03138 84.091292 
L 158.66281 84.159999 
L 160.294239 83.95388 
L 161.925669 82.991992 
L 163.557099 81.411749 
L 165.188529 79.213149 
L 166.819959 78.319967 
L 168.451389 76.396193 
L 170.082819 76.052661 
L 171.714249 73.716649 
L 173.345678 73.304411 
L 174.977108 73.785355 
L 176.608538 73.51053 
L 178.239968 71.243224 
L 179.871398 70.075218 
L 181.502828 69.66298 
L 183.134258 70.143924 
L 184.765688 69.800393 
L 186.397117 68.907211 
L 188.028547 67.120849 
L 189.659977 67.326968 
L 191.291407 66.36508 
L 192.922837 66.502493 
L 194.554267 66.158962 
L 196.185697 66.433787 
L 197.817127 65.952843 
L 199.448556 65.609312 
L 201.079986 65.403193 
L 202.711416 65.403193 
L 204.342846 64.578718 
L 205.974276 63.342005 
L 207.605706 61.624349 
L 209.237136 62.51753 
L 210.868566 65.471899 
L 212.499995 66.296374 
L 214.131425 66.021549 
L 215.762855 65.540605 
L 217.394285 63.479418 
L 219.025715 63.960362 
L 220.657145 62.929768 
L 222.288575 63.204593 
L 225.551434 61.212112 
L 228.814294 61.280818 
L 230.445724 60.250224 
L 232.077154 59.76928 
L 233.708584 59.76928 
L 236.971444 58.395156 
L 238.602873 58.326449 
L 240.234303 56.814912 
L 243.497163 57.708093 
L 245.128593 57.639387 
L 246.760023 56.127849 
L 248.391453 55.646906 
L 250.022883 57.089737 
L 251.654312 55.440787 
L 253.285742 56.883618 
L 254.917172 56.402674 
L 256.548602 56.333968 
L 258.180032 56.471381 
L 259.811462 57.501974 
L 261.442892 56.540087 
L 263.074322 56.127849 
L 264.705751 55.921731 
L 266.337181 57.227149 
L 267.968611 55.578199 
L 269.600041 55.509493 
L 271.231471 55.234668 
L 272.862901 55.097256 
L 274.494331 54.753724 
L 276.125761 55.372081 
L 277.75719 55.372081 
L 281.02005 57.845506 
L 282.65148 57.433268 
L 284.28291 57.708093 
L 285.91434 56.471381 
L 287.54577 55.990437 
L 289.1772 56.608793 
L 290.80863 55.990437 
L 294.071489 54.478899 
L 295.702919 54.341487 
L 297.334349 54.478899 
L 298.965779 54.753724 
L 300.597209 53.517012 
L 302.228639 53.310893 
L 303.860069 53.310893 
L 307.122928 54.341487 
L 308.754358 53.310893 
L 310.385788 53.036068 
L 312.017218 54.066662 
L 313.648648 53.517012 
L 315.280078 52.623831 
L 316.911508 50.974881 
L 318.542937 51.249706 
L 320.174367 50.356524 
L 321.805797 51.936768 
L 323.437227 51.112293 
L 325.068657 50.562643 
L 326.700087 50.837468 
L 328.331517 50.631349 
L 329.962947 52.280299 
L 331.594376 52.555124 
L 333.225806 53.860543 
L 334.857236 55.646906 
L 336.488666 55.303374 
L 338.120096 53.448306 
L 341.382956 53.791837 
L 343.014386 53.242187 
L 344.645815 53.173481 
L 346.277245 52.005474 
L 347.908675 53.242187 
L 349.540105 51.593237 
L 351.171535 50.837468 
L 352.802965 50.906174 
L 356.065825 52.761243 
L 357.697254 51.868062 
L 359.328684 51.799356 
L 360.960114 52.486418 
L 362.591544 53.310893 
L 364.222974 54.547606 
L 365.854404 55.578199 
L 367.485834 55.784318 
L 369.117264 56.952324 
L 370.748693 57.295856 
L 372.380123 57.089737 
L 374.011553 55.921731 
L 375.642983 56.333968 
L 377.274413 57.158443 
L 378.905843 56.402674 
L 380.537273 56.127849 
L 380.537273 56.127849 
" clip-path="url(#p5216ddd378)" style="fill: none; stroke: #2ca02c; stroke-width: 1.5; stroke-linecap: square"/>
   </g>
   <g id="line2d_21">
    <path d="M 55.882727 261.216 
L 57.514157 261.078588 
L 59.145587 260.735056 
L 64.039877 258.673869 
L 68.934166 256.063031 
L 70.565596 254.551494 
L 73.828456 252.490306 
L 75.459886 251.253594 
L 78.722746 248.367932 
L 80.354175 247.199925 
L 81.985605 245.138738 
L 83.617035 242.321782 
L 86.879895 238.955176 
L 88.511325 237.649757 
L 90.142755 235.107626 
L 91.774185 232.909026 
L 93.405614 230.229482 
L 95.037044 229.54242 
L 98.299904 226.107107 
L 99.931334 224.870395 
L 101.562764 223.152739 
L 103.194194 221.778614 
L 104.825624 219.854839 
L 106.457053 218.618126 
L 108.088483 217.106589 
L 109.719913 216.144701 
L 112.982773 214.014808 
L 114.614203 213.05292 
L 116.245633 210.373376 
L 117.877063 209.548901 
L 119.508492 208.518308 
L 121.139922 206.319708 
L 122.771352 204.464639 
L 124.402782 202.815689 
L 127.665642 198.899433 
L 129.297072 197.11307 
L 130.928502 194.983177 
L 132.559931 195.120589 
L 137.454221 192.990696 
L 139.085651 191.273039 
L 142.348511 188.937027 
L 143.979941 189.417971 
L 145.61137 187.356783 
L 147.2428 187.631608 
L 148.87423 186.32619 
L 152.13709 184.608533 
L 153.76852 183.57794 
L 155.39995 183.096996 
L 157.03138 181.997696 
L 161.925669 177.600496 
L 163.557099 177.188259 
L 166.819959 176.707315 
L 168.451389 175.539309 
L 171.714249 174.371302 
L 173.345678 172.378821 
L 174.977108 173.065884 
L 178.239968 171.897877 
L 179.871398 171.829171 
L 181.502828 170.248927 
L 184.765688 170.042809 
L 186.397117 170.111515 
L 188.028547 170.455046 
L 189.659977 168.256446 
L 191.291407 168.668684 
L 192.922837 167.294559 
L 194.554267 167.019734 
L 196.185697 166.401378 
L 197.817127 166.607496 
L 199.448556 167.225853 
L 201.079986 166.470084 
L 202.711416 166.53879 
L 204.342846 165.233371 
L 207.605706 166.676203 
L 209.237136 166.057846 
L 210.868566 163.309596 
L 212.499995 163.721834 
L 215.762855 163.378303 
L 219.025715 162.347709 
L 220.657145 162.347709 
L 222.288575 161.798059 
L 223.920005 163.24089 
L 225.551434 163.034771 
L 227.182864 162.279003 
L 228.814294 162.210296 
L 230.445724 163.653128 
L 232.077154 163.447009 
L 233.708584 164.271484 
L 235.340014 165.43949 
L 236.971444 166.401378 
L 238.602873 166.401378 
L 240.234303 167.569384 
L 241.865733 166.401378 
L 243.497163 167.363265 
L 245.128593 165.370784 
L 246.760023 165.851728 
L 248.391453 165.645609 
L 250.022883 165.645609 
L 251.654312 165.783021 
L 253.285742 163.172184 
L 254.917172 163.309596 
L 256.548602 162.897359 
L 258.180032 163.79054 
L 259.811462 161.454528 
L 261.442892 160.973584 
L 263.074322 160.630053 
L 264.705751 161.798059 
L 266.337181 161.179703 
L 267.968611 161.04229 
L 269.600041 161.385821 
L 271.231471 160.767465 
L 272.862901 160.698759 
L 276.125761 160.011696 
L 277.75719 158.774984 
L 279.38862 158.362747 
L 281.02005 158.362747 
L 282.65148 158.981103 
L 284.28291 158.706278 
L 285.91434 160.423934 
L 287.54577 160.355228 
L 289.1772 158.706278 
L 290.80863 159.049809 
L 292.440059 158.706278 
L 294.071489 158.84369 
L 295.702919 157.263447 
L 297.334349 158.019215 
L 298.965779 157.400859 
L 300.597209 160.217815 
L 302.228639 160.767465 
L 303.860069 159.324634 
L 305.491498 158.29404 
L 307.122928 158.500159 
L 308.754358 159.39334 
L 310.385788 160.080403 
L 312.017218 159.599459 
L 313.648648 159.255928 
L 315.280078 159.324634 
L 316.911508 159.599459 
L 318.542937 160.011696 
L 320.174367 161.110996 
L 321.805797 159.39334 
L 325.068657 158.774984 
L 326.700087 156.988622 
L 328.331517 157.538272 
L 329.962947 157.126034 
L 331.594376 157.74439 
L 336.488666 153.89684 
L 338.120096 155.54579 
L 339.751526 155.408378 
L 341.382956 154.583903 
L 343.014386 155.339672 
L 344.645815 155.54579 
L 346.277245 157.881803 
L 347.908675 157.19474 
L 349.540105 157.332153 
L 351.171535 157.881803 
L 352.802965 158.225334 
L 354.434395 157.606978 
L 356.065825 157.400859 
L 357.697254 158.84369 
L 359.328684 158.706278 
L 360.960114 159.255928 
L 362.591544 159.324634 
L 364.222974 158.981103 
L 365.854404 159.118515 
L 370.748693 157.675684 
L 372.380123 159.805578 
L 374.011553 160.149109 
L 377.274413 159.94299 
L 378.905843 160.355228 
L 380.537273 161.179703 
L 380.537273 161.179703 
" clip-path="url(#p5216ddd378)" style="fill: none; stroke: #d62728; stroke-width: 1.5; stroke-linecap: square"/>
   </g>
   <g id="patch_3">
    <path d="M 39.65 273.312 
L 39.65 7.2 
" style="fill: none; stroke: #000000; stroke-width: 0.8; stroke-linejoin: miter; stroke-linecap: square"/>
   </g>
   <g id="patch_4">
    <path d="M 396.77 273.312 
L 396.77 7.2 
" style="fill: none; stroke: #000000; stroke-width: 0.8; stroke-linejoin: miter; stroke-linecap: square"/>
   </g>
   <g id="patch_5">
    <path d="M 39.65 273.312 
L 396.77 273.312 
" style="fill: none; stroke: #000000; stroke-width: 0.8; stroke-linejoin: miter; stroke-linecap: square"/>
   </g>
   <g id="patch_6">
    <path d="M 39.65 7.2 
L 396.77 7.2 
" style="fill: none; stroke: #000000; stroke-width: 0.8; stroke-linejoin: miter; stroke-linecap: square"/>
   </g>
  </g>
 </g>
 <defs>
  <clipPath id="p5216ddd378">
   <rect x="39.65" y="7.2" width="357.12" height="266.112"/>
  </clipPath>
 </defs>
</svg>
