<?xml version="1.0" encoding="utf-8" standalone="no"?>
<!DOCTYPE svg PUBLIC "-//W3C//DTD SVG 1.1//EN"
  "http://www.w3.org/Graphics/SVG/1.1/DTD/svg11.dtd">
<svg xmlns:xlink="http://www.w3.org/1999/xlink" width="403.97pt" height="297.190125pt" viewBox="0 0 403.97 297.190125" xmlns="http://www.w3.org/2000/svg" version="1.1">
 <metadata>
  <rdf:RDF xmlns:dc="http://purl.org/dc/elements/1.1/" xmlns:cc="http://creativecommons.org/ns#" xmlns:rdf="http://www.w3.org/1999/02/22-rdf-syntax-ns#">
   <cc:Work>
    <dc:type rdf:resource="http://purl.org/dc/dcmitype/StillImage"/>
    <dc:date>2024-04-30T16:32:50.557638</dc:date>
    <dc:format>image/svg+xml</dc:format>
    <dc:creator>
     <cc:Agent>
      <dc:title>Matplotlib v3.8.4, https://matplotlib.org/</dc:title>
     </cc:Agent>
    </dc:creator>
   </cc:Work>
  </rdf:RDF>
 </metadata>
 <defs>
  <style type="text/css">*{stroke-linejoin: round; stroke-linecap: butt}</style>
 </defs>
 <g id="figure_1">
  <g id="patch_1">
   <path d="M 0 297.190125 
L 403.97 297.190125 
L 403.97 0 
L 0 0 
z
" style="fill: #ffffff"/>
  </g>
  <g id="axes_1">
   <g id="patch_2">
    <path d="M 39.65 273.312 
L 396.77 273.312 
L 396.77 7.2 
L 39.65 7.2 
z
" style="fill: #ffffff"/>
   </g>
   <g id="matplotlib.axis_1">
    <g id="xtick_1">
     <g id="line2d_1">
      <defs>
       <path id="m02fe66ac42" d="M 0 0 
L 0 3.5 
" style="stroke: #000000; stroke-width: 0.8"/>
      </defs>
      <g>
       <use xlink:href="#m02fe66ac42" x="55.882727" y="273.312" style="stroke: #000000; stroke-width: 0.8"/>
      </g>
     </g>
     <g id="text_1">
      <!-- 0.0 -->
      <g transform="translate(47.931165 287.910437) scale(0.1 -0.1)">
       <defs>
        <path id="DejaVuSans-30" d="M 2034 4250 
Q 1547 4250 1301 3770 
Q 1056 3291 1056 2328 
Q 1056 1369 1301 889 
Q 1547 409 2034 409 
Q 2525 409 2770 889 
Q 3016 1369 3016 2328 
Q 3016 3291 2770 3770 
Q 2525 4250 2034 4250 
z
M 2034 4750 
Q 2819 4750 3233 4129 
Q 3647 3509 3647 2328 
Q 3647 1150 3233 529 
Q 2819 -91 2034 -91 
Q 1250 -91 836 529 
Q 422 1150 422 2328 
Q 422 3509 836 4129 
Q 1250 4750 2034 4750 
z
" transform="scale(0.015625)"/>
        <path id="DejaVuSans-2e" d="M 684 794 
L 1344 794 
L 1344 0 
L 684 0 
L 684 794 
z
" transform="scale(0.015625)"/>
       </defs>
       <use xlink:href="#DejaVuSans-30"/>
       <use xlink:href="#DejaVuSans-2e" x="63.623047"/>
       <use xlink:href="#DejaVuSans-30" x="95.410156"/>
      </g>
     </g>
    </g>
    <g id="xtick_2">
     <g id="line2d_2">
      <g>
       <use xlink:href="#m02fe66ac42" x="96.668474" y="273.312" style="stroke: #000000; stroke-width: 0.8"/>
      </g>
     </g>
     <g id="text_2">
      <!-- 2.5 -->
      <g transform="translate(88.716912 287.910437) scale(0.1 -0.1)">
       <defs>
        <path id="DejaVuSans-32" d="M 1228 531 
L 3431 531 
L 3431 0 
L 469 0 
L 469 531 
Q 828 903 1448 1529 
Q 2069 2156 2228 2338 
Q 2531 2678 2651 2914 
Q 2772 3150 2772 3378 
Q 2772 3750 2511 3984 
Q 2250 4219 1831 4219 
Q 1534 4219 1204 4116 
Q 875 4013 500 3803 
L 500 4441 
Q 881 4594 1212 4672 
Q 1544 4750 1819 4750 
Q 2544 4750 2975 4387 
Q 3406 4025 3406 3419 
Q 3406 3131 3298 2873 
Q 3191 2616 2906 2266 
Q 2828 2175 2409 1742 
Q 1991 1309 1228 531 
z
" transform="scale(0.015625)"/>
        <path id="DejaVuSans-35" d="M 691 4666 
L 3169 4666 
L 3169 4134 
L 1269 4134 
L 1269 2991 
Q 1406 3038 1543 3061 
Q 1681 3084 1819 3084 
Q 2600 3084 3056 2656 
Q 3513 2228 3513 1497 
Q 3513 744 3044 326 
Q 2575 -91 1722 -91 
Q 1428 -91 1123 -41 
Q 819 9 494 109 
L 494 744 
Q 775 591 1075 516 
Q 1375 441 1709 441 
Q 2250 441 2565 725 
Q 2881 1009 2881 1497 
Q 2881 1984 2565 2268 
Q 2250 2553 1709 2553 
Q 1456 2553 1204 2497 
Q 953 2441 691 2322 
L 691 4666 
z
" transform="scale(0.015625)"/>
       </defs>
       <use xlink:href="#DejaVuSans-32"/>
       <use xlink:href="#DejaVuSans-2e" x="63.623047"/>
       <use xlink:href="#DejaVuSans-35" x="95.410156"/>
      </g>
     </g>
    </g>
    <g id="xtick_3">
     <g id="line2d_3">
      <g>
       <use xlink:href="#m02fe66ac42" x="137.454221" y="273.312" style="stroke: #000000; stroke-width: 0.8"/>
      </g>
     </g>
     <g id="text_3">
      <!-- 5.0 -->
      <g transform="translate(129.502659 287.910437) scale(0.1 -0.1)">
       <use xlink:href="#DejaVuSans-35"/>
       <use xlink:href="#DejaVuSans-2e" x="63.623047"/>
       <use xlink:href="#DejaVuSans-30" x="95.410156"/>
      </g>
     </g>
    </g>
    <g id="xtick_4">
     <g id="line2d_4">
      <g>
       <use xlink:href="#m02fe66ac42" x="178.239968" y="273.312" style="stroke: #000000; stroke-width: 0.8"/>
      </g>
     </g>
     <g id="text_4">
      <!-- 7.5 -->
      <g transform="translate(170.288406 287.910437) scale(0.1 -0.1)">
       <defs>
        <path id="DejaVuSans-37" d="M 525 4666 
L 3525 4666 
L 3525 4397 
L 1831 0 
L 1172 0 
L 2766 4134 
L 525 4134 
L 525 4666 
z
" transform="scale(0.015625)"/>
       </defs>
       <use xlink:href="#DejaVuSans-37"/>
       <use xlink:href="#DejaVuSans-2e" x="63.623047"/>
       <use xlink:href="#DejaVuSans-35" x="95.410156"/>
      </g>
     </g>
    </g>
    <g id="xtick_5">
     <g id="line2d_5">
      <g>
       <use xlink:href="#m02fe66ac42" x="219.025715" y="273.312" style="stroke: #000000; stroke-width: 0.8"/>
      </g>
     </g>
     <g id="text_5">
      <!-- 10.0 -->
      <g transform="translate(207.892902 287.910437) scale(0.1 -0.1)">
       <defs>
        <path id="DejaVuSans-31" d="M 794 531 
L 1825 531 
L 1825 4091 
L 703 3866 
L 703 4441 
L 1819 4666 
L 2450 4666 
L 2450 531 
L 3481 531 
L 3481 0 
L 794 0 
L 794 531 
z
" transform="scale(0.015625)"/>
       </defs>
       <use xlink:href="#DejaVuSans-31"/>
       <use xlink:href="#DejaVuSans-30" x="63.623047"/>
       <use xlink:href="#DejaVuSans-2e" x="127.246094"/>
       <use xlink:href="#DejaVuSans-30" x="159.033203"/>
      </g>
     </g>
    </g>
    <g id="xtick_6">
     <g id="line2d_6">
      <g>
       <use xlink:href="#m02fe66ac42" x="259.811462" y="273.312" style="stroke: #000000; stroke-width: 0.8"/>
      </g>
     </g>
     <g id="text_6">
      <!-- 12.5 -->
      <g transform="translate(248.678649 287.910437) scale(0.1 -0.1)">
       <use xlink:href="#DejaVuSans-31"/>
       <use xlink:href="#DejaVuSans-32" x="63.623047"/>
       <use xlink:href="#DejaVuSans-2e" x="127.246094"/>
       <use xlink:href="#DejaVuSans-35" x="159.033203"/>
      </g>
     </g>
    </g>
    <g id="xtick_7">
     <g id="line2d_7">
      <g>
       <use xlink:href="#m02fe66ac42" x="300.597209" y="273.312" style="stroke: #000000; stroke-width: 0.8"/>
      </g>
     </g>
     <g id="text_7">
      <!-- 15.0 -->
      <g transform="translate(289.464396 287.910437) scale(0.1 -0.1)">
       <use xlink:href="#DejaVuSans-31"/>
       <use xlink:href="#DejaVuSans-35" x="63.623047"/>
       <use xlink:href="#DejaVuSans-2e" x="127.246094"/>
       <use xlink:href="#DejaVuSans-30" x="159.033203"/>
      </g>
     </g>
    </g>
    <g id="xtick_8">
     <g id="line2d_8">
      <g>
       <use xlink:href="#m02fe66ac42" x="341.382956" y="273.312" style="stroke: #000000; stroke-width: 0.8"/>
      </g>
     </g>
     <g id="text_8">
      <!-- 17.5 -->
      <g transform="translate(330.250143 287.910437) scale(0.1 -0.1)">
       <use xlink:href="#DejaVuSans-31"/>
       <use xlink:href="#DejaVuSans-37" x="63.623047"/>
       <use xlink:href="#DejaVuSans-2e" x="127.246094"/>
       <use xlink:href="#DejaVuSans-35" x="159.033203"/>
      </g>
     </g>
    </g>
    <g id="xtick_9">
     <g id="line2d_9">
      <g>
       <use xlink:href="#m02fe66ac42" x="382.168703" y="273.312" style="stroke: #000000; stroke-width: 0.8"/>
      </g>
     </g>
     <g id="text_9">
      <!-- 20.0 -->
      <g transform="translate(371.03589 287.910437) scale(0.1 -0.1)">
       <use xlink:href="#DejaVuSans-32"/>
       <use xlink:href="#DejaVuSans-30" x="63.623047"/>
       <use xlink:href="#DejaVuSans-2e" x="127.246094"/>
       <use xlink:href="#DejaVuSans-30" x="159.033203"/>
      </g>
     </g>
    </g>
   </g>
   <g id="matplotlib.axis_2">
    <g id="ytick_1">
     <g id="line2d_10">
      <defs>
       <path id="m731aea9a80" d="M 0 0 
L -3.5 0 
" style="stroke: #000000; stroke-width: 0.8"/>
      </defs>
      <g>
       <use xlink:href="#m731aea9a80" x="39.65" y="261.216" style="stroke: #000000; stroke-width: 0.8"/>
      </g>
     </g>
     <g id="text_10">
      <!-- 0 -->
      <g transform="translate(26.2875 265.015219) scale(0.1 -0.1)">
       <use xlink:href="#DejaVuSans-30"/>
      </g>
     </g>
    </g>
    <g id="ytick_2">
     <g id="line2d_11">
      <g>
       <use xlink:href="#m731aea9a80" x="39.65" y="222.455389" style="stroke: #000000; stroke-width: 0.8"/>
      </g>
     </g>
     <g id="text_11">
      <!-- 500 -->
      <g transform="translate(13.5625 226.254608) scale(0.1 -0.1)">
       <use xlink:href="#DejaVuSans-35"/>
       <use xlink:href="#DejaVuSans-30" x="63.623047"/>
       <use xlink:href="#DejaVuSans-30" x="127.246094"/>
      </g>
     </g>
    </g>
    <g id="ytick_3">
     <g id="line2d_12">
      <g>
       <use xlink:href="#m731aea9a80" x="39.65" y="183.694778" style="stroke: #000000; stroke-width: 0.8"/>
      </g>
     </g>
     <g id="text_12">
      <!-- 1000 -->
      <g transform="translate(7.2 187.493997) scale(0.1 -0.1)">
       <use xlink:href="#DejaVuSans-31"/>
       <use xlink:href="#DejaVuSans-30" x="63.623047"/>
       <use xlink:href="#DejaVuSans-30" x="127.246094"/>
       <use xlink:href="#DejaVuSans-30" x="190.869141"/>
      </g>
     </g>
    </g>
    <g id="ytick_4">
     <g id="line2d_13">
      <g>
       <use xlink:href="#m731aea9a80" x="39.65" y="144.934168" style="stroke: #000000; stroke-width: 0.8"/>
      </g>
     </g>
     <g id="text_13">
      <!-- 1500 -->
      <g transform="translate(7.2 148.733386) scale(0.1 -0.1)">
       <use xlink:href="#DejaVuSans-31"/>
       <use xlink:href="#DejaVuSans-35" x="63.623047"/>
       <use xlink:href="#DejaVuSans-30" x="127.246094"/>
       <use xlink:href="#DejaVuSans-30" x="190.869141"/>
      </g>
     </g>
    </g>
    <g id="ytick_5">
     <g id="line2d_14">
      <g>
       <use xlink:href="#m731aea9a80" x="39.65" y="106.173557" style="stroke: #000000; stroke-width: 0.8"/>
      </g>
     </g>
     <g id="text_14">
      <!-- 2000 -->
      <g transform="translate(7.2 109.972776) scale(0.1 -0.1)">
       <use xlink:href="#DejaVuSans-32"/>
       <use xlink:href="#DejaVuSans-30" x="63.623047"/>
       <use xlink:href="#DejaVuSans-30" x="127.246094"/>
       <use xlink:href="#DejaVuSans-30" x="190.869141"/>
      </g>
     </g>
    </g>
    <g id="ytick_6">
     <g id="line2d_15">
      <g>
       <use xlink:href="#m731aea9a80" x="39.65" y="67.412946" style="stroke: #000000; stroke-width: 0.8"/>
      </g>
     </g>
     <g id="text_15">
      <!-- 2500 -->
      <g transform="translate(7.2 71.212165) scale(0.1 -0.1)">
       <use xlink:href="#DejaVuSans-32"/>
       <use xlink:href="#DejaVuSans-35" x="63.623047"/>
       <use xlink:href="#DejaVuSans-30" x="127.246094"/>
       <use xlink:href="#DejaVuSans-30" x="190.869141"/>
      </g>
     </g>
    </g>
    <g id="ytick_7">
     <g id="line2d_16">
      <g>
       <use xlink:href="#m731aea9a80" x="39.65" y="28.652335" style="stroke: #000000; stroke-width: 0.8"/>
      </g>
     </g>
     <g id="text_16">
      <!-- 3000 -->
      <g transform="translate(7.2 32.451554) scale(0.1 -0.1)">
       <defs>
        <path id="DejaVuSans-33" d="M 2597 2516 
Q 3050 2419 3304 2112 
Q 3559 1806 3559 1356 
Q 3559 666 3084 287 
Q 2609 -91 1734 -91 
Q 1441 -91 1130 -33 
Q 819 25 488 141 
L 488 750 
Q 750 597 1062 519 
Q 1375 441 1716 441 
Q 2309 441 2620 675 
Q 2931 909 2931 1356 
Q 2931 1769 2642 2001 
Q 2353 2234 1838 2234 
L 1294 2234 
L 1294 2753 
L 1863 2753 
Q 2328 2753 2575 2939 
Q 2822 3125 2822 3475 
Q 2822 3834 2567 4026 
Q 2313 4219 1838 4219 
Q 1578 4219 1281 4162 
Q 984 4106 628 3988 
L 628 4550 
Q 988 4650 1302 4700 
Q 1616 4750 1894 4750 
Q 2613 4750 3031 4423 
Q 3450 4097 3450 3541 
Q 3450 3153 3228 2886 
Q 3006 2619 2597 2516 
z
" transform="scale(0.015625)"/>
       </defs>
       <use xlink:href="#DejaVuSans-33"/>
       <use xlink:href="#DejaVuSans-30" x="63.623047"/>
       <use xlink:href="#DejaVuSans-30" x="127.246094"/>
       <use xlink:href="#DejaVuSans-30" x="190.869141"/>
      </g>
     </g>
    </g>
   </g>
   <g id="line2d_17">
    <path d="M 55.882727 261.216 
L 59.961302 241.835695 
L 64.039877 224.005814 
L 68.118451 207.602323 
L 72.197026 192.511112 
L 76.275601 178.627198 
L 80.354175 165.853996 
L 84.43275 154.102651 
L 88.511325 143.291414 
L 92.589899 133.345075 
L 96.668474 124.194444 
L 100.747049 115.775863 
L 104.825624 108.030769 
L 108.904198 100.905282 
L 112.982773 94.349834 
L 117.061348 88.318822 
L 121.139922 82.770291 
L 125.218497 77.665642 
L 129.297072 72.969365 
L 133.375646 68.648791 
L 137.454221 64.673862 
L 141.532796 61.016928 
L 145.61137 57.652548 
L 149.689945 54.557319 
L 153.76852 51.709708 
L 157.847095 49.089906 
L 161.925669 46.679688 
L 166.004244 44.462288 
L 170.082819 42.422279 
L 174.161393 40.545471 
L 178.239968 38.818808 
L 182.318543 37.230278 
L 186.397117 35.768831 
L 190.475692 34.424299 
L 194.554267 33.187329 
L 198.632841 32.049318 
L 202.711416 31.002347 
L 206.789991 30.039134 
L 210.868566 29.152978 
L 214.94714 28.337714 
L 219.025715 27.587672 
L 223.10429 26.897632 
L 227.182864 26.262796 
L 231.261439 25.678747 
L 235.340014 25.141422 
L 239.418588 24.647083 
L 243.497163 24.192291 
L 247.575738 23.773882 
L 251.654312 23.388946 
L 255.732887 23.034805 
L 259.811462 22.708995 
L 263.890037 22.40925 
L 267.968611 22.133485 
L 272.047186 21.879781 
L 276.125761 21.646373 
L 280.204335 21.431638 
L 284.28291 21.234081 
L 288.361485 21.052329 
L 292.440059 20.885118 
L 296.518634 20.731283 
L 300.597209 20.589755 
L 304.675783 20.459549 
L 308.754358 20.33976 
L 312.832933 20.229554 
L 316.911508 20.128164 
L 320.990082 20.034885 
L 325.068657 19.949069 
L 329.147232 19.870118 
L 333.225806 19.797483 
L 337.304381 19.730659 
L 341.382956 19.669181 
L 345.46153 19.612621 
L 349.540105 19.560586 
L 353.61868 19.512714 
L 357.697254 19.468671 
L 361.775829 19.428152 
L 365.854404 19.390875 
L 369.932979 19.356579 
L 374.011553 19.325028 
L 378.090128 19.296 
" clip-path="url(#pddf762ea14)" style="fill: none; stroke: #1f77b4; stroke-width: 1.5; stroke-linecap: square"/>
   </g>
   <g id="line2d_18">
    <path d="M 55.882727 261.216 
L 59.961302 261.216 
L 64.039877 259.665576 
L 68.118451 256.926751 
L 72.197026 253.296056 
L 76.275601 249.015377 
L 80.354175 244.281068 
L 84.43275 239.25162 
L 88.511325 234.054084 
L 92.589899 228.789472 
L 96.668474 223.53727 
L 100.747049 218.35923 
L 104.825624 213.302533 
L 108.904198 208.402432 
L 112.982773 203.684457 
L 117.061348 199.166256 
L 121.139922 194.859117 
L 125.218497 190.769242 
L 129.297072 186.898791 
L 133.375646 183.246752 
L 137.454221 179.809654 
L 141.532796 176.582157 
L 145.61137 173.557526 
L 149.689945 170.728026 
L 153.76852 168.085235 
L 157.847095 165.620304 
L 161.925669 163.324156 
L 166.004244 161.187649 
L 170.082819 159.201704 
L 174.161393 157.357401 
L 178.239968 155.646054 
L 182.318543 154.059265 
L 186.397117 152.588966 
L 190.475692 151.227442 
L 194.554267 149.96735 
L 198.632841 148.801724 
L 202.711416 147.723981 
L 206.789991 146.727913 
L 210.868566 145.807685 
L 214.94714 144.95782 
L 219.025715 144.173188 
L 223.10429 143.448993 
L 227.182864 142.780759 
L 231.261439 142.164312 
L 235.340014 141.595766 
L 239.418588 141.071506 
L 243.497163 140.588172 
L 247.575738 140.142647 
L 251.654312 139.732037 
L 255.732887 139.353661 
L 259.811462 139.005035 
L 263.890037 138.683858 
L 267.968611 138.388001 
L 272.047186 138.115498 
L 276.125761 137.864528 
L 280.204335 137.633408 
L 284.28291 137.420587 
L 288.361485 137.22463 
L 292.440059 137.044211 
L 296.518634 136.87811 
L 300.597209 136.725199 
L 304.675783 136.584437 
L 308.754358 136.454866 
L 312.832933 136.335601 
L 316.911508 136.225826 
L 320.990082 136.124791 
L 325.068657 136.031803 
L 329.147232 135.946222 
L 333.225806 135.867463 
L 337.304381 135.794982 
L 341.382956 135.728281 
L 345.46153 135.6669 
L 349.540105 135.610417 
L 353.61868 135.558441 
L 357.697254 135.510613 
L 361.775829 135.466604 
L 365.854404 135.426108 
L 369.932979 135.388847 
L 374.011553 135.354561 
L 378.090128 135.323014 
" clip-path="url(#pddf762ea14)" style="fill: none; stroke: #ff7f0e; stroke-width: 1.5; stroke-linecap: square"/>
   </g>
   <g id="line2d_19">
    <path d="M 55.882727 261.216 
L 57.514157 253.851484 
L 59.145587 247.26218 
L 62.408447 231.757936 
L 64.039877 225.091111 
L 65.671307 217.726595 
L 67.302736 211.834982 
L 68.934166 206.64106 
L 72.197026 194.160143 
L 73.828456 190.284082 
L 75.459886 182.997087 
L 77.091316 177.182996 
L 78.722746 171.834032 
L 80.354175 165.554813 
L 81.985605 162.609006 
L 83.617035 158.500381 
L 85.248465 155.322011 
L 86.879895 150.903302 
L 88.511325 147.259804 
L 90.142755 144.856646 
L 91.774185 142.143404 
L 95.037044 134.391282 
L 96.668474 132.37573 
L 98.299904 128.887275 
L 99.931334 124.701129 
L 101.562764 121.135153 
L 103.194194 119.274643 
L 104.825624 115.708667 
L 108.088483 110.20466 
L 109.719913 108.26663 
L 111.351343 106.018514 
L 112.982773 103.22775 
L 114.614203 101.677326 
L 116.245633 98.188871 
L 117.877063 97.801265 
L 119.508492 96.25084 
L 121.139922 96.715968 
L 122.771352 94.855459 
L 124.402782 91.75461 
L 126.034212 90.204185 
L 127.665642 89.118888 
L 129.297072 87.723506 
L 130.928502 86.483167 
L 132.559931 85.475391 
L 134.191361 83.304796 
L 135.822791 82.064457 
L 137.454221 78.576002 
L 139.085651 75.785238 
L 140.717081 76.172844 
L 142.348511 73.692165 
L 143.979941 71.599092 
L 145.61137 69.195934 
L 147.2428 68.575764 
L 148.87423 68.188158 
L 152.13709 65.785 
L 155.39995 64.777225 
L 157.03138 65.707479 
L 158.66281 63.071758 
L 160.294239 64.002012 
L 161.925669 63.149279 
L 163.557099 60.280994 
L 165.188529 58.80809 
L 166.819959 58.575527 
L 168.451389 58.575527 
L 170.082819 58.032878 
L 171.714249 55.242114 
L 173.345678 54.234338 
L 174.977108 53.69169 
L 176.608538 53.846732 
L 178.239968 53.614169 
L 179.871398 51.288532 
L 181.502828 50.900926 
L 183.134258 49.815629 
L 184.765688 49.89315 
L 186.397117 50.125714 
L 188.028547 50.745883 
L 189.659977 49.040417 
L 191.291407 48.420247 
L 192.922837 48.807853 
L 194.554267 47.567513 
L 196.185697 47.257428 
L 197.817127 46.559737 
L 201.079986 47.102386 
L 204.342846 43.53641 
L 205.974276 42.528634 
L 207.605706 41.210773 
L 209.237136 39.195221 
L 210.868566 38.730094 
L 212.499995 37.489755 
L 214.131425 36.404457 
L 215.762855 35.629245 
L 217.394285 36.714542 
L 219.025715 36.094373 
L 220.657145 35.241639 
L 222.288575 35.009075 
L 223.920005 35.241639 
L 225.551434 34.543948 
L 227.182864 35.009075 
L 228.814294 34.311384 
L 230.445724 34.854033 
L 232.077154 33.38113 
L 233.708584 33.071045 
L 235.340014 31.055493 
L 236.971444 31.133014 
L 238.602873 30.512845 
L 240.234303 30.357802 
L 241.865733 31.288057 
L 243.497163 31.830705 
L 245.128593 29.737632 
L 246.760023 30.667887 
L 248.391453 30.280281 
L 251.654312 27.411996 
L 253.285742 28.032166 
L 254.917172 28.187208 
L 256.548602 29.427547 
L 258.180032 31.52062 
L 259.811462 28.419772 
L 261.442892 29.039941 
L 263.074322 28.187208 
L 264.705751 27.877123 
L 266.337181 28.187208 
L 267.968611 26.946868 
L 269.600041 26.559262 
L 271.231471 26.326699 
L 272.862901 25.396444 
L 274.494331 24.621232 
L 276.125761 24.776274 
L 277.75719 24.466189 
L 279.38862 25.008838 
L 281.02005 24.233626 
L 282.65148 24.776274 
L 284.28291 24.776274 
L 285.91434 26.326699 
L 287.54577 25.939093 
L 289.1772 27.644559 
L 290.80863 26.481741 
L 292.440059 27.567038 
L 294.071489 29.194984 
L 295.702919 28.807378 
L 298.965779 27.722081 
L 300.597209 28.96242 
L 302.228639 28.652335 
L 303.860069 29.427547 
L 305.491498 30.667887 
L 307.122928 29.892675 
L 308.754358 31.753184 
L 310.385788 32.683439 
L 312.017218 33.071045 
L 313.648648 33.071045 
L 315.280078 32.683439 
L 316.911508 31.675663 
L 318.542937 33.536172 
L 320.174367 33.303609 
L 321.805797 32.528396 
L 323.437227 32.838481 
L 325.068657 33.536172 
L 326.700087 34.931554 
L 328.331517 34.156342 
L 331.594376 34.233863 
L 333.225806 35.396682 
L 334.857236 35.31916 
L 336.488666 34.776512 
L 338.120096 33.846257 
L 339.751526 31.985748 
L 341.382956 32.76096 
L 343.014386 31.365578 
L 344.645815 31.985748 
L 346.277245 31.753184 
L 347.908675 33.613693 
L 349.540105 34.0013 
L 351.171535 34.078821 
L 352.802965 32.993524 
L 354.434395 33.38113 
L 356.065825 32.14079 
L 357.697254 32.993524 
L 359.328684 32.605918 
L 362.591544 34.466427 
L 364.222974 33.148566 
L 365.854404 33.071045 
L 367.485834 31.908227 
L 369.117264 32.14079 
L 370.748693 33.148566 
L 372.380123 31.288057 
L 374.011553 31.985748 
L 377.274413 30.590366 
L 378.905843 29.58259 
L 380.537273 28.729857 
L 380.537273 28.729857 
" clip-path="url(#pddf762ea14)" style="fill: none; stroke: #2ca02c; stroke-width: 1.5; stroke-linecap: square"/>
   </g>
   <g id="line2d_20">
    <path d="M 55.882727 261.216 
L 57.514157 261.060958 
L 59.145587 260.750873 
L 60.777017 260.285745 
L 62.408447 259.665576 
L 64.039877 258.6578 
L 65.671307 257.41746 
L 72.197026 250.905678 
L 73.828456 248.657562 
L 75.459886 247.494744 
L 77.091316 245.169107 
L 78.722746 243.541161 
L 80.354175 242.610907 
L 81.985605 240.595355 
L 83.617035 238.192197 
L 85.248465 236.641773 
L 86.879895 235.246391 
L 88.511325 233.618445 
L 91.774185 229.277257 
L 93.405614 227.804354 
L 95.037044 226.564014 
L 96.668474 224.470941 
L 98.299904 223.308123 
L 99.931334 222.687953 
L 101.562764 220.362316 
L 103.194194 215.633522 
L 104.825624 213.462928 
L 106.457053 211.524897 
L 108.088483 209.044218 
L 109.719913 208.036442 
L 111.351343 206.253454 
L 112.982773 203.850296 
L 116.245633 202.84252 
L 117.877063 200.594405 
L 119.508492 199.121502 
L 121.139922 195.400483 
L 122.771352 192.997325 
L 124.402782 192.222113 
L 126.034212 189.973997 
L 127.665642 187.415797 
L 129.297072 186.408021 
L 130.928502 186.175458 
L 132.559931 184.004863 
L 134.191361 184.314948 
L 135.822791 182.376918 
L 137.454221 183.229651 
L 139.085651 183.462215 
L 140.717081 181.834269 
L 142.348511 182.609481 
L 143.979941 180.438887 
L 145.61137 179.198548 
L 147.2428 178.345814 
L 148.87423 176.097699 
L 150.50566 176.097699 
L 152.13709 174.702317 
L 153.76852 174.004626 
L 155.39995 172.221638 
L 157.03138 169.896001 
L 158.66281 169.508395 
L 160.294239 167.570364 
L 161.925669 168.500619 
L 165.188529 169.19831 
L 166.819959 169.430874 
L 168.451389 169.353352 
L 170.082819 167.260279 
L 171.714249 168.810704 
L 173.345678 165.554813 
L 174.977108 164.7796 
L 176.608538 162.2214 
L 178.239968 160.903539 
L 179.871398 160.981061 
L 181.502828 160.205848 
L 183.134258 159.120551 
L 184.765688 158.190297 
L 186.397117 157.725169 
L 188.028547 157.880212 
L 189.659977 158.887988 
L 191.291407 158.267818 
L 192.922837 157.337563 
L 194.554267 158.190297 
L 196.185697 157.104999 
L 197.817127 156.407308 
L 201.079986 156.48483 
L 204.342846 155.787139 
L 205.974276 154.469278 
L 207.605706 154.469278 
L 209.237136 156.407308 
L 210.868566 155.322011 
L 212.499995 155.011926 
L 214.131425 155.089448 
L 215.762855 156.329787 
L 217.394285 155.24449 
L 219.025715 156.252266 
L 220.657145 157.570127 
L 222.288575 158.267818 
L 223.920005 158.035254 
L 225.551434 156.717393 
L 227.182864 156.252266 
L 228.814294 157.104999 
L 230.445724 156.174745 
L 232.077154 156.794915 
L 233.708584 155.399533 
L 235.340014 157.260042 
L 236.971444 156.949957 
L 238.602873 155.011926 
L 240.234303 154.236714 
L 241.865733 154.004151 
L 243.497163 153.073896 
L 245.128593 155.011926 
L 248.391453 152.143641 
L 250.022883 153.849108 
L 251.654312 153.30646 
L 253.285742 151.911078 
L 254.917172 151.135865 
L 256.548602 151.368429 
L 258.180032 149.895526 
L 259.811462 150.748259 
L 261.442892 151.368429 
L 264.705751 152.221162 
L 266.337181 151.135865 
L 267.968611 150.593217 
L 269.600041 149.818005 
L 271.231471 149.197835 
L 272.862901 149.120314 
L 274.494331 148.035017 
L 276.125761 147.569889 
L 277.75719 147.724932 
L 281.02005 147.182283 
L 284.28291 148.035017 
L 287.54577 147.492368 
L 289.1772 145.011689 
L 290.80863 144.856646 
L 292.440059 144.236477 
L 295.702919 144.624083 
L 297.334349 144.003913 
L 298.965779 143.848871 
L 300.597209 141.833319 
L 302.228639 143.15118 
L 303.860069 142.065882 
L 305.491498 143.926392 
L 307.122928 144.003913 
L 308.754358 142.220925 
L 310.385788 142.453489 
L 313.648648 140.980585 
L 315.280078 141.678276 
L 316.911508 142.143404 
L 318.542937 141.368191 
L 320.174367 142.608531 
L 321.805797 142.065882 
L 323.437227 144.003913 
L 325.068657 145.476816 
L 326.700087 144.624083 
L 328.331517 146.174507 
L 329.962947 145.476816 
L 331.594376 143.926392 
L 333.225806 142.53101 
L 334.857236 142.375967 
L 336.488666 143.538786 
L 338.120096 144.003913 
L 339.751526 145.631859 
L 341.382956 145.08921 
L 343.014386 147.337326 
L 346.277245 145.70938 
L 347.908675 145.864422 
L 349.540105 145.70938 
L 351.171535 146.096986 
L 352.802965 146.019465 
L 354.434395 146.407071 
L 356.065825 147.104762 
L 357.697254 144.158955 
L 359.328684 144.624083 
L 360.960114 144.003913 
L 362.591544 144.546562 
L 364.222974 146.949719 
L 365.854404 147.492368 
L 367.485834 147.492368 
L 369.117264 146.407071 
L 370.748693 145.70938 
L 372.380123 147.259804 
L 374.011553 146.949719 
L 377.274413 148.190059 
L 378.905843 151.678514 
L 380.537273 152.221162 
L 380.537273 152.221162 
" clip-path="url(#pddf762ea14)" style="fill: none; stroke: #d62728; stroke-width: 1.5; stroke-linecap: square"/>
   </g>
   <g id="patch_3">
    <path d="M 39.65 273.312 
L 39.65 7.2 
" style="fill: none; stroke: #000000; stroke-width: 0.8; stroke-linejoin: miter; stroke-linecap: square"/>
   </g>
   <g id="patch_4">
    <path d="M 396.77 273.312 
L 396.77 7.2 
" style="fill: none; stroke: #000000; stroke-width: 0.8; stroke-linejoin: miter; stroke-linecap: square"/>
   </g>
   <g id="patch_5">
    <path d="M 39.65 273.312 
L 396.77 273.312 
" style="fill: none; stroke: #000000; stroke-width: 0.8; stroke-linejoin: miter; stroke-linecap: square"/>
   </g>
   <g id="patch_6">
    <path d="M 39.65 7.2 
L 396.77 7.2 
" style="fill: none; stroke: #000000; stroke-width: 0.8; stroke-linejoin: miter; stroke-linecap: square"/>
   </g>
  </g>
 </g>
 <defs>
  <clipPath id="pddf762ea14">
   <rect x="39.65" y="7.2" width="357.12" height="266.112"/>
  </clipPath>
 </defs>
</svg>
