<?xml version="1.0" encoding="utf-8" standalone="no"?>
<!DOCTYPE svg PUBLIC "-//W3C//DTD SVG 1.1//EN"
  "http://www.w3.org/Graphics/SVG/1.1/DTD/svg11.dtd">
<svg xmlns:xlink="http://www.w3.org/1999/xlink" width="397.6075pt" height="297.190125pt" viewBox="0 0 397.6075 297.190125" xmlns="http://www.w3.org/2000/svg" version="1.1">
 <metadata>
  <rdf:RDF xmlns:dc="http://purl.org/dc/elements/1.1/" xmlns:cc="http://creativecommons.org/ns#" xmlns:rdf="http://www.w3.org/1999/02/22-rdf-syntax-ns#">
   <cc:Work>
    <dc:type rdf:resource="http://purl.org/dc/dcmitype/StillImage"/>
    <dc:date>2024-10-10T03:50:11.331608</dc:date>
    <dc:format>image/svg+xml</dc:format>
    <dc:creator>
     <cc:Agent>
      <dc:title>Matplotlib v3.9.2, https://matplotlib.org/</dc:title>
     </cc:Agent>
    </dc:creator>
   </cc:Work>
  </rdf:RDF>
 </metadata>
 <defs>
  <style type="text/css">*{stroke-linejoin: round; stroke-linecap: butt}</style>
 </defs>
 <g id="figure_1">
  <g id="patch_1">
   <path d="M 0 297.190125 
L 397.6075 297.190125 
L 397.6075 0 
L 0 0 
z
" style="fill: #ffffff"/>
  </g>
  <g id="axes_1">
   <g id="patch_2">
    <path d="M 33.2875 273.312 
L 390.4075 273.312 
L 390.4075 7.2 
L 33.2875 7.2 
z
" style="fill: #ffffff"/>
   </g>
   <g id="matplotlib.axis_1">
    <g id="xtick_1">
     <g id="line2d_1">
      <defs>
       <path id="m4194a48684" d="M 0 0 
L 0 3.5 
" style="stroke: #000000; stroke-width: 0.8"/>
      </defs>
      <g>
       <use xlink:href="#m4194a48684" x="49.520227" y="273.312" style="stroke: #000000; stroke-width: 0.8"/>
      </g>
     </g>
     <g id="text_1">
      <!-- 0.0 -->
      <g transform="translate(41.568665 287.910437) scale(0.1 -0.1)">
       <defs>
        <path id="DejaVuSans-30" d="M 2034 4250 
Q 1547 4250 1301 3770 
Q 1056 3291 1056 2328 
Q 1056 1369 1301 889 
Q 1547 409 2034 409 
Q 2525 409 2770 889 
Q 3016 1369 3016 2328 
Q 3016 3291 2770 3770 
Q 2525 4250 2034 4250 
z
M 2034 4750 
Q 2819 4750 3233 4129 
Q 3647 3509 3647 2328 
Q 3647 1150 3233 529 
Q 2819 -91 2034 -91 
Q 1250 -91 836 529 
Q 422 1150 422 2328 
Q 422 3509 836 4129 
Q 1250 4750 2034 4750 
z
" transform="scale(0.015625)"/>
        <path id="DejaVuSans-2e" d="M 684 794 
L 1344 794 
L 1344 0 
L 684 0 
L 684 794 
z
" transform="scale(0.015625)"/>
       </defs>
       <use xlink:href="#DejaVuSans-30"/>
       <use xlink:href="#DejaVuSans-2e" x="63.623047"/>
       <use xlink:href="#DejaVuSans-30" x="95.410156"/>
      </g>
     </g>
    </g>
    <g id="xtick_2">
     <g id="line2d_2">
      <g>
       <use xlink:href="#m4194a48684" x="90.305974" y="273.312" style="stroke: #000000; stroke-width: 0.8"/>
      </g>
     </g>
     <g id="text_2">
      <!-- 2.5 -->
      <g transform="translate(82.354412 287.910437) scale(0.1 -0.1)">
       <defs>
        <path id="DejaVuSans-32" d="M 1228 531 
L 3431 531 
L 3431 0 
L 469 0 
L 469 531 
Q 828 903 1448 1529 
Q 2069 2156 2228 2338 
Q 2531 2678 2651 2914 
Q 2772 3150 2772 3378 
Q 2772 3750 2511 3984 
Q 2250 4219 1831 4219 
Q 1534 4219 1204 4116 
Q 875 4013 500 3803 
L 500 4441 
Q 881 4594 1212 4672 
Q 1544 4750 1819 4750 
Q 2544 4750 2975 4387 
Q 3406 4025 3406 3419 
Q 3406 3131 3298 2873 
Q 3191 2616 2906 2266 
Q 2828 2175 2409 1742 
Q 1991 1309 1228 531 
z
" transform="scale(0.015625)"/>
        <path id="DejaVuSans-35" d="M 691 4666 
L 3169 4666 
L 3169 4134 
L 1269 4134 
L 1269 2991 
Q 1406 3038 1543 3061 
Q 1681 3084 1819 3084 
Q 2600 3084 3056 2656 
Q 3513 2228 3513 1497 
Q 3513 744 3044 326 
Q 2575 -91 1722 -91 
Q 1428 -91 1123 -41 
Q 819 9 494 109 
L 494 744 
Q 775 591 1075 516 
Q 1375 441 1709 441 
Q 2250 441 2565 725 
Q 2881 1009 2881 1497 
Q 2881 1984 2565 2268 
Q 2250 2553 1709 2553 
Q 1456 2553 1204 2497 
Q 953 2441 691 2322 
L 691 4666 
z
" transform="scale(0.015625)"/>
       </defs>
       <use xlink:href="#DejaVuSans-32"/>
       <use xlink:href="#DejaVuSans-2e" x="63.623047"/>
       <use xlink:href="#DejaVuSans-35" x="95.410156"/>
      </g>
     </g>
    </g>
    <g id="xtick_3">
     <g id="line2d_3">
      <g>
       <use xlink:href="#m4194a48684" x="131.091721" y="273.312" style="stroke: #000000; stroke-width: 0.8"/>
      </g>
     </g>
     <g id="text_3">
      <!-- 5.0 -->
      <g transform="translate(123.140159 287.910437) scale(0.1 -0.1)">
       <use xlink:href="#DejaVuSans-35"/>
       <use xlink:href="#DejaVuSans-2e" x="63.623047"/>
       <use xlink:href="#DejaVuSans-30" x="95.410156"/>
      </g>
     </g>
    </g>
    <g id="xtick_4">
     <g id="line2d_4">
      <g>
       <use xlink:href="#m4194a48684" x="171.877468" y="273.312" style="stroke: #000000; stroke-width: 0.8"/>
      </g>
     </g>
     <g id="text_4">
      <!-- 7.5 -->
      <g transform="translate(163.925906 287.910437) scale(0.1 -0.1)">
       <defs>
        <path id="DejaVuSans-37" d="M 525 4666 
L 3525 4666 
L 3525 4397 
L 1831 0 
L 1172 0 
L 2766 4134 
L 525 4134 
L 525 4666 
z
" transform="scale(0.015625)"/>
       </defs>
       <use xlink:href="#DejaVuSans-37"/>
       <use xlink:href="#DejaVuSans-2e" x="63.623047"/>
       <use xlink:href="#DejaVuSans-35" x="95.410156"/>
      </g>
     </g>
    </g>
    <g id="xtick_5">
     <g id="line2d_5">
      <g>
       <use xlink:href="#m4194a48684" x="212.663215" y="273.312" style="stroke: #000000; stroke-width: 0.8"/>
      </g>
     </g>
     <g id="text_5">
      <!-- 10.0 -->
      <g transform="translate(201.530402 287.910437) scale(0.1 -0.1)">
       <defs>
        <path id="DejaVuSans-31" d="M 794 531 
L 1825 531 
L 1825 4091 
L 703 3866 
L 703 4441 
L 1819 4666 
L 2450 4666 
L 2450 531 
L 3481 531 
L 3481 0 
L 794 0 
L 794 531 
z
" transform="scale(0.015625)"/>
       </defs>
       <use xlink:href="#DejaVuSans-31"/>
       <use xlink:href="#DejaVuSans-30" x="63.623047"/>
       <use xlink:href="#DejaVuSans-2e" x="127.246094"/>
       <use xlink:href="#DejaVuSans-30" x="159.033203"/>
      </g>
     </g>
    </g>
    <g id="xtick_6">
     <g id="line2d_6">
      <g>
       <use xlink:href="#m4194a48684" x="253.448962" y="273.312" style="stroke: #000000; stroke-width: 0.8"/>
      </g>
     </g>
     <g id="text_6">
      <!-- 12.5 -->
      <g transform="translate(242.316149 287.910437) scale(0.1 -0.1)">
       <use xlink:href="#DejaVuSans-31"/>
       <use xlink:href="#DejaVuSans-32" x="63.623047"/>
       <use xlink:href="#DejaVuSans-2e" x="127.246094"/>
       <use xlink:href="#DejaVuSans-35" x="159.033203"/>
      </g>
     </g>
    </g>
    <g id="xtick_7">
     <g id="line2d_7">
      <g>
       <use xlink:href="#m4194a48684" x="294.234709" y="273.312" style="stroke: #000000; stroke-width: 0.8"/>
      </g>
     </g>
     <g id="text_7">
      <!-- 15.0 -->
      <g transform="translate(283.101896 287.910437) scale(0.1 -0.1)">
       <use xlink:href="#DejaVuSans-31"/>
       <use xlink:href="#DejaVuSans-35" x="63.623047"/>
       <use xlink:href="#DejaVuSans-2e" x="127.246094"/>
       <use xlink:href="#DejaVuSans-30" x="159.033203"/>
      </g>
     </g>
    </g>
    <g id="xtick_8">
     <g id="line2d_8">
      <g>
       <use xlink:href="#m4194a48684" x="335.020456" y="273.312" style="stroke: #000000; stroke-width: 0.8"/>
      </g>
     </g>
     <g id="text_8">
      <!-- 17.5 -->
      <g transform="translate(323.887643 287.910437) scale(0.1 -0.1)">
       <use xlink:href="#DejaVuSans-31"/>
       <use xlink:href="#DejaVuSans-37" x="63.623047"/>
       <use xlink:href="#DejaVuSans-2e" x="127.246094"/>
       <use xlink:href="#DejaVuSans-35" x="159.033203"/>
      </g>
     </g>
    </g>
    <g id="xtick_9">
     <g id="line2d_9">
      <g>
       <use xlink:href="#m4194a48684" x="375.806203" y="273.312" style="stroke: #000000; stroke-width: 0.8"/>
      </g>
     </g>
     <g id="text_9">
      <!-- 20.0 -->
      <g transform="translate(364.67339 287.910437) scale(0.1 -0.1)">
       <use xlink:href="#DejaVuSans-32"/>
       <use xlink:href="#DejaVuSans-30" x="63.623047"/>
       <use xlink:href="#DejaVuSans-2e" x="127.246094"/>
       <use xlink:href="#DejaVuSans-30" x="159.033203"/>
      </g>
     </g>
    </g>
   </g>
   <g id="matplotlib.axis_2">
    <g id="ytick_1">
     <g id="line2d_10">
      <defs>
       <path id="m888cc64737" d="M 0 0 
L -3.5 0 
" style="stroke: #000000; stroke-width: 0.8"/>
      </defs>
      <g>
       <use xlink:href="#m888cc64737" x="33.2875" y="261.216" style="stroke: #000000; stroke-width: 0.8"/>
      </g>
     </g>
     <g id="text_10">
      <!-- 0 -->
      <g transform="translate(19.925 265.015219) scale(0.1 -0.1)">
       <use xlink:href="#DejaVuSans-30"/>
      </g>
     </g>
    </g>
    <g id="ytick_2">
     <g id="line2d_11">
      <g>
       <use xlink:href="#m888cc64737" x="33.2875" y="218.773895" style="stroke: #000000; stroke-width: 0.8"/>
      </g>
     </g>
     <g id="text_11">
      <!-- 50 -->
      <g transform="translate(13.5625 222.573113) scale(0.1 -0.1)">
       <use xlink:href="#DejaVuSans-35"/>
       <use xlink:href="#DejaVuSans-30" x="63.623047"/>
      </g>
     </g>
    </g>
    <g id="ytick_3">
     <g id="line2d_12">
      <g>
       <use xlink:href="#m888cc64737" x="33.2875" y="176.331789" style="stroke: #000000; stroke-width: 0.8"/>
      </g>
     </g>
     <g id="text_12">
      <!-- 100 -->
      <g transform="translate(7.2 180.131008) scale(0.1 -0.1)">
       <use xlink:href="#DejaVuSans-31"/>
       <use xlink:href="#DejaVuSans-30" x="63.623047"/>
       <use xlink:href="#DejaVuSans-30" x="127.246094"/>
      </g>
     </g>
    </g>
    <g id="ytick_4">
     <g id="line2d_13">
      <g>
       <use xlink:href="#m888cc64737" x="33.2875" y="133.889684" style="stroke: #000000; stroke-width: 0.8"/>
      </g>
     </g>
     <g id="text_13">
      <!-- 150 -->
      <g transform="translate(7.2 137.688903) scale(0.1 -0.1)">
       <use xlink:href="#DejaVuSans-31"/>
       <use xlink:href="#DejaVuSans-35" x="63.623047"/>
       <use xlink:href="#DejaVuSans-30" x="127.246094"/>
      </g>
     </g>
    </g>
    <g id="ytick_5">
     <g id="line2d_14">
      <g>
       <use xlink:href="#m888cc64737" x="33.2875" y="91.447579" style="stroke: #000000; stroke-width: 0.8"/>
      </g>
     </g>
     <g id="text_14">
      <!-- 200 -->
      <g transform="translate(7.2 95.246798) scale(0.1 -0.1)">
       <use xlink:href="#DejaVuSans-32"/>
       <use xlink:href="#DejaVuSans-30" x="63.623047"/>
       <use xlink:href="#DejaVuSans-30" x="127.246094"/>
      </g>
     </g>
    </g>
    <g id="ytick_6">
     <g id="line2d_15">
      <g>
       <use xlink:href="#m888cc64737" x="33.2875" y="49.005474" style="stroke: #000000; stroke-width: 0.8"/>
      </g>
     </g>
     <g id="text_15">
      <!-- 250 -->
      <g transform="translate(7.2 52.804692) scale(0.1 -0.1)">
       <use xlink:href="#DejaVuSans-32"/>
       <use xlink:href="#DejaVuSans-35" x="63.623047"/>
       <use xlink:href="#DejaVuSans-30" x="127.246094"/>
      </g>
     </g>
    </g>
   </g>
   <g id="line2d_16">
    <path d="M 49.520227 261.216 
L 53.598802 49.005474 
L 57.677377 49.005474 
L 61.755951 49.005474 
L 65.834526 49.005474 
L 69.913101 49.005474 
L 73.991675 49.005474 
L 78.07025 49.005474 
L 82.148825 49.005474 
L 86.227399 49.005474 
L 90.305974 49.005474 
L 94.384549 49.005474 
L 98.463124 49.005474 
L 102.541698 49.005474 
L 106.620273 49.005474 
L 110.698848 49.005474 
L 114.777422 49.005474 
L 118.855997 49.005474 
L 122.934572 49.005474 
L 127.013146 49.005474 
L 131.091721 49.005474 
L 135.170296 49.005474 
L 139.24887 49.005474 
L 143.327445 49.005474 
L 147.40602 49.005474 
L 151.484595 49.005474 
L 155.563169 49.005474 
L 159.641744 49.005474 
L 163.720319 49.005474 
L 167.798893 49.005474 
L 171.877468 49.005474 
L 175.956043 49.005474 
L 180.034617 49.005474 
L 184.113192 49.005474 
L 188.191767 49.005474 
L 192.270341 49.005474 
L 196.348916 49.005474 
L 200.427491 49.005474 
L 204.506066 49.005474 
L 208.58464 49.005474 
L 212.663215 49.005474 
L 216.74179 49.005474 
L 220.820364 49.005474 
L 224.898939 49.005474 
L 228.977514 49.005474 
L 233.056088 49.005474 
L 237.134663 49.005474 
L 241.213238 49.005474 
L 245.291812 49.005474 
L 249.370387 49.005474 
L 253.448962 49.005474 
L 257.527537 49.005474 
L 261.606111 49.005474 
L 265.684686 49.005474 
L 269.763261 49.005474 
L 273.841835 49.005474 
L 277.92041 49.005474 
L 281.998985 49.005474 
L 286.077559 49.005474 
L 290.156134 49.005474 
L 294.234709 49.005474 
L 298.313283 49.005474 
L 302.391858 49.005474 
L 306.470433 49.005474 
L 310.549008 49.005474 
L 314.627582 49.005474 
L 318.706157 49.005474 
L 322.784732 49.005474 
L 326.863306 49.005474 
L 330.941881 49.005474 
L 335.020456 49.005474 
L 339.09903 49.005474 
L 343.177605 49.005474 
L 347.25618 49.005474 
L 351.334754 49.005474 
L 355.413329 49.005474 
L 359.491904 49.005474 
L 363.570479 49.005474 
L 367.649053 49.005474 
L 371.727628 49.005474 
" clip-path="url(#p6fbe0430a6)" style="fill: none; stroke: #1f77b4; stroke-width: 1.5; stroke-linecap: square"/>
   </g>
   <g id="line2d_17">
    <path d="M 49.520227 261.216 
L 53.598802 261.216 
L 57.677377 49.005474 
L 61.755951 49.005474 
L 65.834526 49.005474 
L 69.913101 49.005474 
L 73.991675 49.005474 
L 78.07025 49.005474 
L 82.148825 49.005474 
L 86.227399 49.005474 
L 90.305974 49.005474 
L 94.384549 49.005474 
L 98.463124 49.005474 
L 102.541698 49.005474 
L 106.620273 49.005474 
L 110.698848 49.005474 
L 114.777422 49.005474 
L 118.855997 49.005474 
L 122.934572 49.005474 
L 127.013146 49.005474 
L 131.091721 49.005474 
L 135.170296 49.005474 
L 139.24887 49.005474 
L 143.327445 49.005474 
L 147.40602 49.005474 
L 151.484595 49.005474 
L 155.563169 49.005474 
L 159.641744 49.005474 
L 163.720319 49.005474 
L 167.798893 49.005474 
L 171.877468 49.005474 
L 175.956043 49.005474 
L 180.034617 49.005474 
L 184.113192 49.005474 
L 188.191767 49.005474 
L 192.270341 49.005474 
L 196.348916 49.005474 
L 200.427491 49.005474 
L 204.506066 49.005474 
L 208.58464 49.005474 
L 212.663215 49.005474 
L 216.74179 49.005474 
L 220.820364 49.005474 
L 224.898939 49.005474 
L 228.977514 49.005474 
L 233.056088 49.005474 
L 237.134663 49.005474 
L 241.213238 49.005474 
L 245.291812 49.005474 
L 249.370387 49.005474 
L 253.448962 49.005474 
L 257.527537 49.005474 
L 261.606111 49.005474 
L 265.684686 49.005474 
L 269.763261 49.005474 
L 273.841835 49.005474 
L 277.92041 49.005474 
L 281.998985 49.005474 
L 286.077559 49.005474 
L 290.156134 49.005474 
L 294.234709 49.005474 
L 298.313283 49.005474 
L 302.391858 49.005474 
L 306.470433 49.005474 
L 310.549008 49.005474 
L 314.627582 49.005474 
L 318.706157 49.005474 
L 322.784732 49.005474 
L 326.863306 49.005474 
L 330.941881 49.005474 
L 335.020456 49.005474 
L 339.09903 49.005474 
L 343.177605 49.005474 
L 347.25618 49.005474 
L 351.334754 49.005474 
L 355.413329 49.005474 
L 359.491904 49.005474 
L 363.570479 49.005474 
L 367.649053 49.005474 
L 371.727628 49.005474 
" clip-path="url(#p6fbe0430a6)" style="fill: none; stroke: #ff7f0e; stroke-width: 1.5; stroke-linecap: square"/>
   </g>
   <g id="line2d_18">
    <path d="M 49.520227 261.216 
L 51.151657 188.215579 
L 52.783087 150.866526 
L 54.414517 117.761684 
L 56.045947 99.936 
L 57.677377 77.866105 
L 59.308807 67.68 
L 60.940236 60.889263 
L 62.571666 52.400842 
L 64.203096 51.552 
L 65.834526 44.761263 
L 67.465956 42.214737 
L 69.097386 49.854316 
L 70.728816 47.307789 
L 72.360246 47.307789 
L 73.991675 55.796211 
L 75.623105 45.610105 
L 77.254535 34.575158 
L 78.885965 49.854316 
L 80.517395 47.307789 
L 82.148825 54.098526 
L 83.780255 59.191579 
L 88.674544 38.819368 
L 90.305974 39.668211 
L 91.937404 44.761263 
L 93.568834 43.063579 
L 95.200264 39.668211 
L 96.831694 37.121684 
L 98.463124 37.970526 
L 100.094553 54.947368 
L 101.725983 54.098526 
L 103.357413 49.854316 
L 104.988843 52.400842 
L 106.620273 50.703158 
L 108.251703 50.703158 
L 109.883133 47.307789 
L 111.514563 60.889263 
L 113.145992 45.610105 
L 114.777422 48.156632 
L 116.408852 49.854316 
L 118.040282 47.307789 
L 119.671712 40.517053 
L 121.303142 44.761263 
L 122.934572 35.424 
L 124.566002 37.970526 
L 126.197431 43.063579 
L 127.828861 49.854316 
L 129.460291 47.307789 
L 131.091721 60.040421 
L 132.723151 66.831158 
L 134.354581 57.493895 
L 135.986011 54.947368 
L 137.617441 46.458947 
L 139.24887 65.133474 
L 140.8803 49.854316 
L 142.51173 41.365895 
L 144.14316 43.912421 
L 145.77459 48.156632 
L 147.40602 49.005474 
L 149.03745 53.249684 
L 150.66888 65.982316 
L 152.30031 65.133474 
L 153.931739 60.040421 
L 155.563169 44.761263 
L 157.194599 49.854316 
L 158.826029 47.307789 
L 160.457459 54.098526 
L 162.088889 51.552 
L 165.351749 66.831158 
L 166.983178 60.889263 
L 168.614608 65.133474 
L 170.246038 63.435789 
L 171.877468 67.68 
L 173.508898 54.947368 
L 175.140328 49.005474 
L 176.771758 48.156632 
L 178.403188 42.214737 
L 180.034617 51.552 
L 181.666047 46.458947 
L 183.297477 46.458947 
L 184.928907 37.121684 
L 186.560337 45.610105 
L 188.191767 46.458947 
L 189.823197 46.458947 
L 191.454627 48.156632 
L 193.086056 53.249684 
L 194.717486 54.098526 
L 196.348916 43.912421 
L 197.980346 43.063579 
L 199.611776 53.249684 
L 201.243206 44.761263 
L 202.874636 43.912421 
L 204.506066 43.912421 
L 206.137495 44.761263 
L 207.768925 48.156632 
L 209.400355 63.435789 
L 211.031785 53.249684 
L 212.663215 49.005474 
L 214.294645 49.854316 
L 215.926075 41.365895 
L 217.557505 40.517053 
L 219.188934 37.970526 
L 220.820364 42.214737 
L 222.451794 44.761263 
L 224.083224 45.610105 
L 225.714654 43.912421 
L 227.346084 55.796211 
L 228.977514 50.703158 
L 230.608944 55.796211 
L 232.240373 60.040421 
L 233.871803 62.586947 
L 235.503233 48.156632 
L 237.134663 44.761263 
L 238.766093 50.703158 
L 240.397523 49.854316 
L 242.028953 49.854316 
L 243.660383 56.645053 
L 245.291812 51.552 
L 246.923242 54.947368 
L 248.554672 52.400842 
L 250.186102 62.586947 
L 251.817532 50.703158 
L 253.448962 63.435789 
L 255.080392 64.284632 
L 256.711822 56.645053 
L 258.343251 54.947368 
L 261.606111 61.738105 
L 263.237541 52.400842 
L 264.868971 44.761263 
L 266.500401 56.645053 
L 268.131831 47.307789 
L 269.763261 35.424 
L 271.39469 42.214737 
L 273.02612 43.912421 
L 274.65755 41.365895 
L 276.28898 49.005474 
L 277.92041 48.156632 
L 279.55184 56.645053 
L 281.18327 61.738105 
L 282.8147 68.528842 
L 284.44613 57.493895 
L 286.077559 57.493895 
L 287.708989 61.738105 
L 290.971849 65.133474 
L 292.603279 64.284632 
L 294.234709 60.040421 
L 295.866139 64.284632 
L 297.497569 57.493895 
L 299.128998 54.947368 
L 300.760428 48.156632 
L 302.391858 47.307789 
L 304.023288 37.121684 
L 305.654718 35.424 
L 307.286148 42.214737 
L 308.917578 43.912421 
L 310.549008 49.854316 
L 312.180437 65.982316 
L 313.811867 57.493895 
L 315.443297 54.947368 
L 317.074727 51.552 
L 318.706157 43.912421 
L 320.337587 49.854316 
L 321.969017 41.365895 
L 323.600447 33.726316 
L 325.231876 41.365895 
L 326.863306 45.610105 
L 328.494736 51.552 
L 330.126166 52.400842 
L 331.757596 51.552 
L 333.389026 56.645053 
L 335.020456 58.342737 
L 336.651886 58.342737 
L 338.283315 49.005474 
L 339.914745 54.098526 
L 341.546175 55.796211 
L 343.177605 59.191579 
L 344.809035 44.761263 
L 346.440465 39.668211 
L 348.071895 51.552 
L 349.703325 43.912421 
L 351.334754 46.458947 
L 352.966184 46.458947 
L 354.597614 54.947368 
L 356.229044 44.761263 
L 357.860474 44.761263 
L 359.491904 48.156632 
L 361.123334 32.028632 
L 362.754764 43.912421 
L 364.386193 45.610105 
L 366.017623 54.947368 
L 367.649053 37.121684 
L 369.280483 54.098526 
L 370.911913 49.005474 
L 372.543343 54.947368 
L 374.174773 56.645053 
L 374.174773 56.645053 
" clip-path="url(#p6fbe0430a6)" style="fill: none; stroke: #2ca02c; stroke-width: 1.5; stroke-linecap: square"/>
   </g>
   <g id="line2d_19">
    <path d="M 49.520227 261.216 
L 51.151657 249.332211 
L 52.783087 212.832 
L 56.045947 151.715368 
L 59.308807 103.331368 
L 60.940236 98.238316 
L 62.571666 79.563789 
L 64.203096 77.866105 
L 65.834526 72.773053 
L 67.465956 58.342737 
L 69.097386 38.819368 
L 70.728816 45.610105 
L 72.360246 41.365895 
L 73.991675 26.935579 
L 75.623105 41.365895 
L 77.254535 54.098526 
L 78.885965 51.552 
L 80.517395 60.889263 
L 82.148825 45.610105 
L 83.780255 44.761263 
L 87.043114 58.342737 
L 88.674544 65.982316 
L 90.305974 64.284632 
L 91.937404 57.493895 
L 93.568834 56.645053 
L 95.200264 47.307789 
L 96.831694 45.610105 
L 98.463124 54.947368 
L 100.094553 51.552 
L 101.725983 60.040421 
L 103.357413 46.458947 
L 104.988843 43.912421 
L 106.620273 40.517053 
L 109.883133 50.703158 
L 111.514563 37.970526 
L 113.145992 49.854316 
L 114.777422 52.400842 
L 116.408852 63.435789 
L 118.040282 60.889263 
L 119.671712 59.191579 
L 121.303142 52.400842 
L 122.934572 49.854316 
L 124.566002 51.552 
L 126.197431 49.854316 
L 127.828861 51.552 
L 129.460291 57.493895 
L 131.091721 44.761263 
L 132.723151 41.365895 
L 134.354581 49.854316 
L 135.986011 53.249684 
L 137.617441 67.68 
L 139.24887 45.610105 
L 142.51173 43.912421 
L 144.14316 32.028632 
L 145.77459 34.575158 
L 147.40602 40.517053 
L 149.03745 40.517053 
L 150.66888 45.610105 
L 152.30031 61.738105 
L 153.931739 67.68 
L 155.563169 87.203368 
L 157.194599 70.226526 
L 158.826029 63.435789 
L 160.457459 53.249684 
L 162.088889 60.040421 
L 163.720319 59.191579 
L 165.351749 39.668211 
L 166.983178 60.040421 
L 168.614608 60.040421 
L 170.246038 45.610105 
L 171.877468 41.365895 
L 173.508898 43.912421 
L 175.140328 36.272842 
L 176.771758 48.156632 
L 178.403188 48.156632 
L 180.034617 55.796211 
L 181.666047 33.726316 
L 183.297477 31.179789 
L 184.928907 35.424 
L 186.560337 31.179789 
L 188.191767 44.761263 
L 189.823197 43.912421 
L 191.454627 27.784421 
L 193.086056 36.272842 
L 194.717486 30.330947 
L 196.348916 32.877474 
L 197.980346 44.761263 
L 199.611776 27.784421 
L 201.243206 40.517053 
L 202.874636 32.028632 
L 204.506066 38.819368 
L 206.137495 48.156632 
L 207.768925 37.970526 
L 209.400355 26.935579 
L 211.031785 56.645053 
L 212.663215 73.621895 
L 214.294645 67.68 
L 215.926075 63.435789 
L 217.557505 58.342737 
L 219.188934 67.68 
L 220.820364 60.040421 
L 222.451794 49.854316 
L 224.083224 43.912421 
L 225.714654 54.098526 
L 227.346084 45.610105 
L 228.977514 45.610105 
L 232.240373 19.296 
L 233.871803 22.691368 
L 235.503233 32.877474 
L 237.134663 42.214737 
L 238.766093 42.214737 
L 240.397523 43.063579 
L 242.028953 48.156632 
L 243.660383 48.156632 
L 245.291812 63.435789 
L 246.923242 73.621895 
L 248.554672 65.982316 
L 250.186102 65.133474 
L 251.817532 65.982316 
L 253.448962 55.796211 
L 255.080392 59.191579 
L 256.711822 58.342737 
L 258.343251 56.645053 
L 259.974681 36.272842 
L 261.606111 43.912421 
L 263.237541 38.819368 
L 264.868971 57.493895 
L 266.500401 45.610105 
L 268.131831 54.098526 
L 269.763261 65.982316 
L 271.39469 49.854316 
L 273.02612 49.005474 
L 274.65755 49.854316 
L 276.28898 37.121684 
L 277.92041 42.214737 
L 279.55184 48.156632 
L 281.18327 35.424 
L 282.8147 31.179789 
L 284.44613 35.424 
L 286.077559 37.970526 
L 287.708989 43.063579 
L 289.340419 34.575158 
L 292.603279 36.272842 
L 294.234709 36.272842 
L 295.866139 34.575158 
L 297.497569 34.575158 
L 299.128998 46.458947 
L 300.760428 49.005474 
L 302.391858 52.400842 
L 304.023288 65.982316 
L 305.654718 43.912421 
L 307.286148 45.610105 
L 308.917578 46.458947 
L 310.549008 38.819368 
L 312.180437 27.784421 
L 313.811867 51.552 
L 315.443297 43.063579 
L 317.074727 49.005474 
L 318.706157 52.400842 
L 320.337587 49.005474 
L 321.969017 61.738105 
L 323.600447 55.796211 
L 325.231876 57.493895 
L 326.863306 48.156632 
L 328.494736 33.726316 
L 330.126166 40.517053 
L 331.757596 31.179789 
L 333.389026 25.237895 
L 335.020456 49.005474 
L 336.651886 54.098526 
L 338.283315 56.645053 
L 339.914745 50.703158 
L 341.546175 45.610105 
L 343.177605 49.854316 
L 344.809035 60.040421 
L 346.440465 65.982316 
L 348.071895 49.005474 
L 349.703325 41.365895 
L 351.334754 48.156632 
L 352.966184 46.458947 
L 354.597614 42.214737 
L 356.229044 60.040421 
L 357.860474 48.156632 
L 359.491904 39.668211 
L 361.123334 55.796211 
L 362.754764 36.272842 
L 364.386193 53.249684 
L 366.017623 59.191579 
L 367.649053 68.528842 
L 369.280483 40.517053 
L 370.911913 42.214737 
L 372.543343 52.400842 
L 374.174773 51.552 
L 374.174773 51.552 
" clip-path="url(#p6fbe0430a6)" style="fill: none; stroke: #d62728; stroke-width: 1.5; stroke-linecap: square"/>
   </g>
   <g id="patch_3">
    <path d="M 33.2875 273.312 
L 33.2875 7.2 
" style="fill: none; stroke: #000000; stroke-width: 0.8; stroke-linejoin: miter; stroke-linecap: square"/>
   </g>
   <g id="patch_4">
    <path d="M 390.4075 273.312 
L 390.4075 7.2 
" style="fill: none; stroke: #000000; stroke-width: 0.8; stroke-linejoin: miter; stroke-linecap: square"/>
   </g>
   <g id="patch_5">
    <path d="M 33.2875 273.312 
L 390.4075 273.312 
" style="fill: none; stroke: #000000; stroke-width: 0.8; stroke-linejoin: miter; stroke-linecap: square"/>
   </g>
   <g id="patch_6">
    <path d="M 33.2875 7.2 
L 390.4075 7.2 
" style="fill: none; stroke: #000000; stroke-width: 0.8; stroke-linejoin: miter; stroke-linecap: square"/>
   </g>
  </g>
 </g>
 <defs>
  <clipPath id="p6fbe0430a6">
   <rect x="33.2875" y="7.2" width="357.12" height="266.112"/>
  </clipPath>
 </defs>
</svg>
