<?xml version="1.0" encoding="utf-8" standalone="no"?>
<!DOCTYPE svg PUBLIC "-//W3C//DTD SVG 1.1//EN"
  "http://www.w3.org/Graphics/SVG/1.1/DTD/svg11.dtd">
<svg xmlns:xlink="http://www.w3.org/1999/xlink" width="403.97pt" height="297.190125pt" viewBox="0 0 403.97 297.190125" xmlns="http://www.w3.org/2000/svg" version="1.1">
 <metadata>
  <rdf:RDF xmlns:dc="http://purl.org/dc/elements/1.1/" xmlns:cc="http://creativecommons.org/ns#" xmlns:rdf="http://www.w3.org/1999/02/22-rdf-syntax-ns#">
   <cc:Work>
    <dc:type rdf:resource="http://purl.org/dc/dcmitype/StillImage"/>
    <dc:date>2024-09-23T17:59:12.429418</dc:date>
    <dc:format>image/svg+xml</dc:format>
    <dc:creator>
     <cc:Agent>
      <dc:title>Matplotlib v3.9.2, https://matplotlib.org/</dc:title>
     </cc:Agent>
    </dc:creator>
   </cc:Work>
  </rdf:RDF>
 </metadata>
 <defs>
  <style type="text/css">*{stroke-linejoin: round; stroke-linecap: butt}</style>
 </defs>
 <g id="figure_1">
  <g id="patch_1">
   <path d="M 0 297.190125 
L 403.97 297.190125 
L 403.97 0 
L 0 0 
z
" style="fill: #ffffff"/>
  </g>
  <g id="axes_1">
   <g id="patch_2">
    <path d="M 39.65 273.312 
L 396.77 273.312 
L 396.77 7.2 
L 39.65 7.2 
z
" style="fill: #ffffff"/>
   </g>
   <g id="matplotlib.axis_1">
    <g id="xtick_1">
     <g id="line2d_1">
      <defs>
       <path id="m0511929c9c" d="M 0 0 
L 0 3.5 
" style="stroke: #000000; stroke-width: 0.8"/>
      </defs>
      <g>
       <use xlink:href="#m0511929c9c" x="55.882727" y="273.312" style="stroke: #000000; stroke-width: 0.8"/>
      </g>
     </g>
     <g id="text_1">
      <!-- 0.0 -->
      <g transform="translate(47.931165 287.910437) scale(0.1 -0.1)">
       <defs>
        <path id="DejaVuSans-30" d="M 2034 4250 
Q 1547 4250 1301 3770 
Q 1056 3291 1056 2328 
Q 1056 1369 1301 889 
Q 1547 409 2034 409 
Q 2525 409 2770 889 
Q 3016 1369 3016 2328 
Q 3016 3291 2770 3770 
Q 2525 4250 2034 4250 
z
M 2034 4750 
Q 2819 4750 3233 4129 
Q 3647 3509 3647 2328 
Q 3647 1150 3233 529 
Q 2819 -91 2034 -91 
Q 1250 -91 836 529 
Q 422 1150 422 2328 
Q 422 3509 836 4129 
Q 1250 4750 2034 4750 
z
" transform="scale(0.015625)"/>
        <path id="DejaVuSans-2e" d="M 684 794 
L 1344 794 
L 1344 0 
L 684 0 
L 684 794 
z
" transform="scale(0.015625)"/>
       </defs>
       <use xlink:href="#DejaVuSans-30"/>
       <use xlink:href="#DejaVuSans-2e" x="63.623047"/>
       <use xlink:href="#DejaVuSans-30" x="95.410156"/>
      </g>
     </g>
    </g>
    <g id="xtick_2">
     <g id="line2d_2">
      <g>
       <use xlink:href="#m0511929c9c" x="96.668474" y="273.312" style="stroke: #000000; stroke-width: 0.8"/>
      </g>
     </g>
     <g id="text_2">
      <!-- 2.5 -->
      <g transform="translate(88.716912 287.910437) scale(0.1 -0.1)">
       <defs>
        <path id="DejaVuSans-32" d="M 1228 531 
L 3431 531 
L 3431 0 
L 469 0 
L 469 531 
Q 828 903 1448 1529 
Q 2069 2156 2228 2338 
Q 2531 2678 2651 2914 
Q 2772 3150 2772 3378 
Q 2772 3750 2511 3984 
Q 2250 4219 1831 4219 
Q 1534 4219 1204 4116 
Q 875 4013 500 3803 
L 500 4441 
Q 881 4594 1212 4672 
Q 1544 4750 1819 4750 
Q 2544 4750 2975 4387 
Q 3406 4025 3406 3419 
Q 3406 3131 3298 2873 
Q 3191 2616 2906 2266 
Q 2828 2175 2409 1742 
Q 1991 1309 1228 531 
z
" transform="scale(0.015625)"/>
        <path id="DejaVuSans-35" d="M 691 4666 
L 3169 4666 
L 3169 4134 
L 1269 4134 
L 1269 2991 
Q 1406 3038 1543 3061 
Q 1681 3084 1819 3084 
Q 2600 3084 3056 2656 
Q 3513 2228 3513 1497 
Q 3513 744 3044 326 
Q 2575 -91 1722 -91 
Q 1428 -91 1123 -41 
Q 819 9 494 109 
L 494 744 
Q 775 591 1075 516 
Q 1375 441 1709 441 
Q 2250 441 2565 725 
Q 2881 1009 2881 1497 
Q 2881 1984 2565 2268 
Q 2250 2553 1709 2553 
Q 1456 2553 1204 2497 
Q 953 2441 691 2322 
L 691 4666 
z
" transform="scale(0.015625)"/>
       </defs>
       <use xlink:href="#DejaVuSans-32"/>
       <use xlink:href="#DejaVuSans-2e" x="63.623047"/>
       <use xlink:href="#DejaVuSans-35" x="95.410156"/>
      </g>
     </g>
    </g>
    <g id="xtick_3">
     <g id="line2d_3">
      <g>
       <use xlink:href="#m0511929c9c" x="137.454221" y="273.312" style="stroke: #000000; stroke-width: 0.8"/>
      </g>
     </g>
     <g id="text_3">
      <!-- 5.0 -->
      <g transform="translate(129.502659 287.910437) scale(0.1 -0.1)">
       <use xlink:href="#DejaVuSans-35"/>
       <use xlink:href="#DejaVuSans-2e" x="63.623047"/>
       <use xlink:href="#DejaVuSans-30" x="95.410156"/>
      </g>
     </g>
    </g>
    <g id="xtick_4">
     <g id="line2d_4">
      <g>
       <use xlink:href="#m0511929c9c" x="178.239968" y="273.312" style="stroke: #000000; stroke-width: 0.8"/>
      </g>
     </g>
     <g id="text_4">
      <!-- 7.5 -->
      <g transform="translate(170.288406 287.910437) scale(0.1 -0.1)">
       <defs>
        <path id="DejaVuSans-37" d="M 525 4666 
L 3525 4666 
L 3525 4397 
L 1831 0 
L 1172 0 
L 2766 4134 
L 525 4134 
L 525 4666 
z
" transform="scale(0.015625)"/>
       </defs>
       <use xlink:href="#DejaVuSans-37"/>
       <use xlink:href="#DejaVuSans-2e" x="63.623047"/>
       <use xlink:href="#DejaVuSans-35" x="95.410156"/>
      </g>
     </g>
    </g>
    <g id="xtick_5">
     <g id="line2d_5">
      <g>
       <use xlink:href="#m0511929c9c" x="219.025715" y="273.312" style="stroke: #000000; stroke-width: 0.8"/>
      </g>
     </g>
     <g id="text_5">
      <!-- 10.0 -->
      <g transform="translate(207.892902 287.910437) scale(0.1 -0.1)">
       <defs>
        <path id="DejaVuSans-31" d="M 794 531 
L 1825 531 
L 1825 4091 
L 703 3866 
L 703 4441 
L 1819 4666 
L 2450 4666 
L 2450 531 
L 3481 531 
L 3481 0 
L 794 0 
L 794 531 
z
" transform="scale(0.015625)"/>
       </defs>
       <use xlink:href="#DejaVuSans-31"/>
       <use xlink:href="#DejaVuSans-30" x="63.623047"/>
       <use xlink:href="#DejaVuSans-2e" x="127.246094"/>
       <use xlink:href="#DejaVuSans-30" x="159.033203"/>
      </g>
     </g>
    </g>
    <g id="xtick_6">
     <g id="line2d_6">
      <g>
       <use xlink:href="#m0511929c9c" x="259.811462" y="273.312" style="stroke: #000000; stroke-width: 0.8"/>
      </g>
     </g>
     <g id="text_6">
      <!-- 12.5 -->
      <g transform="translate(248.678649 287.910437) scale(0.1 -0.1)">
       <use xlink:href="#DejaVuSans-31"/>
       <use xlink:href="#DejaVuSans-32" x="63.623047"/>
       <use xlink:href="#DejaVuSans-2e" x="127.246094"/>
       <use xlink:href="#DejaVuSans-35" x="159.033203"/>
      </g>
     </g>
    </g>
    <g id="xtick_7">
     <g id="line2d_7">
      <g>
       <use xlink:href="#m0511929c9c" x="300.597209" y="273.312" style="stroke: #000000; stroke-width: 0.8"/>
      </g>
     </g>
     <g id="text_7">
      <!-- 15.0 -->
      <g transform="translate(289.464396 287.910437) scale(0.1 -0.1)">
       <use xlink:href="#DejaVuSans-31"/>
       <use xlink:href="#DejaVuSans-35" x="63.623047"/>
       <use xlink:href="#DejaVuSans-2e" x="127.246094"/>
       <use xlink:href="#DejaVuSans-30" x="159.033203"/>
      </g>
     </g>
    </g>
    <g id="xtick_8">
     <g id="line2d_8">
      <g>
       <use xlink:href="#m0511929c9c" x="341.382956" y="273.312" style="stroke: #000000; stroke-width: 0.8"/>
      </g>
     </g>
     <g id="text_8">
      <!-- 17.5 -->
      <g transform="translate(330.250143 287.910437) scale(0.1 -0.1)">
       <use xlink:href="#DejaVuSans-31"/>
       <use xlink:href="#DejaVuSans-37" x="63.623047"/>
       <use xlink:href="#DejaVuSans-2e" x="127.246094"/>
       <use xlink:href="#DejaVuSans-35" x="159.033203"/>
      </g>
     </g>
    </g>
    <g id="xtick_9">
     <g id="line2d_9">
      <g>
       <use xlink:href="#m0511929c9c" x="382.168703" y="273.312" style="stroke: #000000; stroke-width: 0.8"/>
      </g>
     </g>
     <g id="text_9">
      <!-- 20.0 -->
      <g transform="translate(371.03589 287.910437) scale(0.1 -0.1)">
       <use xlink:href="#DejaVuSans-32"/>
       <use xlink:href="#DejaVuSans-30" x="63.623047"/>
       <use xlink:href="#DejaVuSans-2e" x="127.246094"/>
       <use xlink:href="#DejaVuSans-30" x="159.033203"/>
      </g>
     </g>
    </g>
   </g>
   <g id="matplotlib.axis_2">
    <g id="ytick_1">
     <g id="line2d_10">
      <defs>
       <path id="m1ea6438317" d="M 0 0 
L -3.5 0 
" style="stroke: #000000; stroke-width: 0.8"/>
      </defs>
      <g>
       <use xlink:href="#m1ea6438317" x="39.65" y="261.216" style="stroke: #000000; stroke-width: 0.8"/>
      </g>
     </g>
     <g id="text_10">
      <!-- 0 -->
      <g transform="translate(26.2875 265.015219) scale(0.1 -0.1)">
       <use xlink:href="#DejaVuSans-30"/>
      </g>
     </g>
    </g>
    <g id="ytick_2">
     <g id="line2d_11">
      <g>
       <use xlink:href="#m1ea6438317" x="39.65" y="222.171455" style="stroke: #000000; stroke-width: 0.8"/>
      </g>
     </g>
     <g id="text_11">
      <!-- 500 -->
      <g transform="translate(13.5625 225.970674) scale(0.1 -0.1)">
       <use xlink:href="#DejaVuSans-35"/>
       <use xlink:href="#DejaVuSans-30" x="63.623047"/>
       <use xlink:href="#DejaVuSans-30" x="127.246094"/>
      </g>
     </g>
    </g>
    <g id="ytick_3">
     <g id="line2d_12">
      <g>
       <use xlink:href="#m1ea6438317" x="39.65" y="183.12691" style="stroke: #000000; stroke-width: 0.8"/>
      </g>
     </g>
     <g id="text_12">
      <!-- 1000 -->
      <g transform="translate(7.2 186.926129) scale(0.1 -0.1)">
       <use xlink:href="#DejaVuSans-31"/>
       <use xlink:href="#DejaVuSans-30" x="63.623047"/>
       <use xlink:href="#DejaVuSans-30" x="127.246094"/>
       <use xlink:href="#DejaVuSans-30" x="190.869141"/>
      </g>
     </g>
    </g>
    <g id="ytick_4">
     <g id="line2d_13">
      <g>
       <use xlink:href="#m1ea6438317" x="39.65" y="144.082365" style="stroke: #000000; stroke-width: 0.8"/>
      </g>
     </g>
     <g id="text_13">
      <!-- 1500 -->
      <g transform="translate(7.2 147.881584) scale(0.1 -0.1)">
       <use xlink:href="#DejaVuSans-31"/>
       <use xlink:href="#DejaVuSans-35" x="63.623047"/>
       <use xlink:href="#DejaVuSans-30" x="127.246094"/>
       <use xlink:href="#DejaVuSans-30" x="190.869141"/>
      </g>
     </g>
    </g>
    <g id="ytick_5">
     <g id="line2d_14">
      <g>
       <use xlink:href="#m1ea6438317" x="39.65" y="105.037821" style="stroke: #000000; stroke-width: 0.8"/>
      </g>
     </g>
     <g id="text_14">
      <!-- 2000 -->
      <g transform="translate(7.2 108.837039) scale(0.1 -0.1)">
       <use xlink:href="#DejaVuSans-32"/>
       <use xlink:href="#DejaVuSans-30" x="63.623047"/>
       <use xlink:href="#DejaVuSans-30" x="127.246094"/>
       <use xlink:href="#DejaVuSans-30" x="190.869141"/>
      </g>
     </g>
    </g>
    <g id="ytick_6">
     <g id="line2d_15">
      <g>
       <use xlink:href="#m1ea6438317" x="39.65" y="65.993276" style="stroke: #000000; stroke-width: 0.8"/>
      </g>
     </g>
     <g id="text_15">
      <!-- 2500 -->
      <g transform="translate(7.2 69.792494) scale(0.1 -0.1)">
       <use xlink:href="#DejaVuSans-32"/>
       <use xlink:href="#DejaVuSans-35" x="63.623047"/>
       <use xlink:href="#DejaVuSans-30" x="127.246094"/>
       <use xlink:href="#DejaVuSans-30" x="190.869141"/>
      </g>
     </g>
    </g>
    <g id="ytick_7">
     <g id="line2d_16">
      <g>
       <use xlink:href="#m1ea6438317" x="39.65" y="26.948731" style="stroke: #000000; stroke-width: 0.8"/>
      </g>
     </g>
     <g id="text_16">
      <!-- 3000 -->
      <g transform="translate(7.2 30.74795) scale(0.1 -0.1)">
       <defs>
        <path id="DejaVuSans-33" d="M 2597 2516 
Q 3050 2419 3304 2112 
Q 3559 1806 3559 1356 
Q 3559 666 3084 287 
Q 2609 -91 1734 -91 
Q 1441 -91 1130 -33 
Q 819 25 488 141 
L 488 750 
Q 750 597 1062 519 
Q 1375 441 1716 441 
Q 2309 441 2620 675 
Q 2931 909 2931 1356 
Q 2931 1769 2642 2001 
Q 2353 2234 1838 2234 
L 1294 2234 
L 1294 2753 
L 1863 2753 
Q 2328 2753 2575 2939 
Q 2822 3125 2822 3475 
Q 2822 3834 2567 4026 
Q 2313 4219 1838 4219 
Q 1578 4219 1281 4162 
Q 984 4106 628 3988 
L 628 4550 
Q 988 4650 1302 4700 
Q 1616 4750 1894 4750 
Q 2613 4750 3031 4423 
Q 3450 4097 3450 3541 
Q 3450 3153 3228 2886 
Q 3006 2619 2597 2516 
z
" transform="scale(0.015625)"/>
       </defs>
       <use xlink:href="#DejaVuSans-33"/>
       <use xlink:href="#DejaVuSans-30" x="63.623047"/>
       <use xlink:href="#DejaVuSans-30" x="127.246094"/>
       <use xlink:href="#DejaVuSans-30" x="190.869141"/>
      </g>
     </g>
    </g>
   </g>
   <g id="line2d_17">
    <path d="M 55.882727 261.216 
L 59.961302 241.693728 
L 64.039877 224.053402 
L 68.118451 208.113604 
L 72.197026 193.710403 
L 76.275601 180.69567 
L 80.354175 168.935557 
L 84.43275 158.309119 
L 88.511325 148.70707 
L 92.589899 140.030659 
L 96.668474 132.190653 
L 100.747049 125.106424 
L 104.825624 118.705115 
L 108.904198 112.920892 
L 112.982773 107.694268 
L 117.061348 102.97149 
L 121.139922 98.703989 
L 125.218497 94.847874 
L 129.297072 91.363489 
L 133.375646 88.214999 
L 137.454221 85.370023 
L 141.532796 82.799302 
L 145.61137 80.4764 
L 149.689945 78.377425 
L 153.76852 76.480791 
L 157.847095 74.766993 
L 161.925669 73.218405 
L 166.004244 71.8191 
L 170.082819 70.554689 
L 174.161393 69.412167 
L 178.239968 68.379784 
L 182.318543 67.446923 
L 186.397117 66.603989 
L 190.475692 65.842315 
L 194.554267 65.154066 
L 198.632841 64.532164 
L 202.711416 63.970213 
L 206.789991 63.462434 
L 210.868566 63.003606 
L 214.94714 62.589008 
L 219.025715 62.214378 
L 223.10429 61.875862 
L 227.182864 61.569979 
L 231.261439 61.293583 
L 235.340014 61.043831 
L 239.418588 60.818156 
L 243.497163 60.614236 
L 247.575738 60.429973 
L 251.654312 60.263474 
L 255.732887 60.113025 
L 259.811462 59.977079 
L 263.890037 59.854239 
L 267.968611 59.74324 
L 272.047186 59.642942 
L 276.125761 59.552312 
L 280.204335 59.470419 
L 284.28291 59.396421 
L 288.361485 59.329556 
L 292.440059 59.269137 
L 296.518634 59.214542 
L 300.597209 59.16521 
L 304.675783 59.120634 
L 308.754358 59.080355 
L 312.832933 59.043958 
L 316.911508 59.011071 
L 320.990082 58.981353 
L 325.068657 58.954501 
L 329.147232 58.930237 
L 333.225806 58.908312 
L 337.304381 58.888501 
L 341.382956 58.870599 
L 345.46153 58.854423 
L 349.540105 58.839807 
L 353.61868 58.8266 
L 357.697254 58.814665 
L 361.775829 58.803882 
L 365.854404 58.794137 
L 369.932979 58.785332 
L 374.011553 58.777376 
L 378.090128 58.770187 
" clip-path="url(#p975080c8fb)" style="fill: none; stroke: #1f77b4; stroke-width: 1.5; stroke-linecap: square"/>
   </g>
   <g id="line2d_18">
    <path d="M 55.882727 261.216 
L 59.961302 261.216 
L 64.039877 259.334053 
L 68.118451 256.203622 
L 72.197026 252.288524 
L 76.275601 247.925364 
L 80.354175 243.355615 
L 84.43275 238.749845 
L 88.511325 234.225992 
L 92.589899 229.863131 
L 96.668474 225.711823 
L 100.747049 221.801883 
L 104.825624 218.148191 
L 108.904198 214.755029 
L 112.982773 211.619306 
L 117.061348 208.732937 
L 121.139922 206.084598 
L 125.218497 203.661003 
L 129.297072 201.447826 
L 133.375646 199.430359 
L 137.454221 197.593974 
L 141.532796 195.924432 
L 145.61137 194.408097 
L 149.689945 193.032058 
L 153.76852 191.784202 
L 157.847095 190.653246 
L 161.925669 189.628735 
L 166.004244 188.701028 
L 170.082819 187.861263 
L 174.161393 187.101321 
L 178.239968 186.413777 
L 182.318543 185.79186 
L 186.397117 185.229399 
L 190.475692 184.720783 
L 194.554267 184.260911 
L 198.632841 183.845153 
L 202.711416 183.469308 
L 206.789991 183.12957 
L 210.868566 182.822487 
L 214.94714 182.544934 
L 219.025715 182.294082 
L 223.10429 182.06737 
L 227.182864 181.862482 
L 231.261439 181.67732 
L 235.340014 181.50999 
L 239.418588 181.358777 
L 243.497163 181.22213 
L 247.575738 181.098647 
L 251.654312 180.987062 
L 255.732887 180.88623 
L 259.811462 180.795114 
L 263.890037 180.712779 
L 267.968611 180.638379 
L 272.047186 180.571149 
L 276.125761 180.5104 
L 280.204335 180.455505 
L 284.28291 180.405902 
L 288.361485 180.36108 
L 292.440059 180.320579 
L 296.518634 180.283981 
L 300.597209 180.250912 
L 304.675783 180.22103 
L 308.754358 180.194028 
L 312.832933 180.16963 
L 316.911508 180.147583 
L 320.990082 180.127662 
L 325.068657 180.109661 
L 329.147232 180.093395 
L 333.225806 180.078697 
L 337.304381 180.065416 
L 341.382956 180.053415 
L 345.46153 180.042572 
L 349.540105 180.032773 
L 353.61868 180.023919 
L 357.697254 180.015919 
L 361.775829 180.00869 
L 365.854404 180.002157 
L 369.932979 179.996255 
L 374.011553 179.990921 
L 378.090128 179.986102 
" clip-path="url(#p975080c8fb)" style="fill: none; stroke: #ff7f0e; stroke-width: 1.5; stroke-linecap: square"/>
   </g>
   <g id="line2d_19">
    <path d="M 55.882727 261.216 
L 57.514157 252.391933 
L 60.777017 237.086471 
L 62.408447 230.448899 
L 64.039877 222.952346 
L 65.671307 216.080506 
L 67.302736 208.427775 
L 68.934166 201.321668 
L 70.565596 195.621165 
L 72.197026 190.545374 
L 73.828456 184.454425 
L 75.459886 181.018505 
L 78.722746 172.350616 
L 80.354175 167.509092 
L 81.985605 162.199034 
L 83.617035 157.513689 
L 85.248465 154.155858 
L 86.879895 150.329493 
L 88.511325 147.752553 
L 90.142755 142.989118 
L 91.774185 137.366704 
L 95.037044 130.80722 
L 96.668474 127.3713 
L 98.299904 123.0764 
L 99.931334 119.250035 
L 101.562764 116.907362 
L 103.194194 115.657937 
L 104.825624 112.612462 
L 106.457053 111.363037 
L 108.088483 108.708008 
L 109.719913 105.350177 
L 111.351343 103.007504 
L 112.982773 100.977188 
L 114.614203 96.682288 
L 116.245633 94.027259 
L 117.877063 90.51325 
L 121.139922 86.296439 
L 122.771352 82.235806 
L 124.402782 80.127401 
L 126.034212 79.190332 
L 129.297072 75.285877 
L 130.928502 72.787026 
L 132.559931 72.318492 
L 134.191361 72.240403 
L 135.822791 72.630848 
L 137.454221 70.366265 
L 139.085651 69.194928 
L 140.717081 67.164612 
L 142.348511 66.696077 
L 143.979941 66.852256 
L 145.61137 67.789325 
L 148.87423 66.149454 
L 150.50566 63.806781 
L 152.13709 62.869712 
L 153.76852 61.386019 
L 155.39995 57.403476 
L 158.66281 57.950099 
L 160.294239 55.841694 
L 161.925669 54.43609 
L 163.557099 54.904625 
L 165.188529 54.982714 
L 166.819959 54.279912 
L 168.451389 52.874309 
L 170.082819 53.420932 
L 171.714249 53.342843 
L 173.345678 53.889467 
L 174.977108 53.811378 
L 176.608538 53.342843 
L 178.239968 51.156349 
L 179.871398 50.765903 
L 181.502828 49.3603 
L 183.134258 48.657498 
L 184.765688 50.765903 
L 186.397117 47.486161 
L 188.028547 46.70527 
L 189.659977 47.64234 
L 192.922837 45.846291 
L 194.554267 44.831132 
L 196.185697 46.627181 
L 197.817127 46.002469 
L 199.448556 44.20642 
L 201.079986 45.299667 
L 202.711416 44.128331 
L 204.342846 44.20642 
L 205.974276 42.410371 
L 207.605706 43.035083 
L 209.237136 43.972152 
L 210.868566 43.191261 
L 212.499995 42.800816 
L 214.131425 42.176103 
L 215.762855 42.254192 
L 217.394285 41.62948 
L 220.657145 42.019925 
L 222.288575 41.317123 
L 223.920005 38.818272 
L 225.551434 38.505916 
L 227.182864 37.803114 
L 228.814294 38.19356 
L 230.445724 39.208718 
L 232.077154 38.662094 
L 233.708584 37.959292 
L 235.340014 35.850887 
L 236.971444 34.523372 
L 238.602873 36.397511 
L 240.234303 35.148085 
L 241.865733 34.132927 
L 243.497163 34.835729 
L 245.128593 33.508214 
L 246.760023 34.679551 
L 248.391453 36.241332 
L 250.022883 36.163243 
L 251.654312 36.319422 
L 253.285742 34.913818 
L 254.917172 35.61662 
L 256.548602 35.226174 
L 258.180032 33.976749 
L 259.811462 34.75764 
L 261.442892 32.102611 
L 263.074322 33.03968 
L 264.705751 31.399809 
L 266.337181 29.525671 
L 267.968611 29.369493 
L 269.600041 28.822869 
L 271.231471 29.057136 
L 272.862901 29.447582 
L 274.494331 30.46274 
L 276.125761 30.540829 
L 277.75719 28.979047 
L 279.38862 28.74478 
L 281.02005 28.041978 
L 282.65148 26.792553 
L 284.28291 27.495354 
L 285.91434 26.558285 
L 287.54577 24.371791 
L 289.1772 25.230771 
L 290.80863 27.261087 
L 292.440059 25.699305 
L 294.071489 25.699305 
L 295.702919 25.933573 
L 297.334349 25.152682 
L 298.965779 25.543127 
L 300.597209 26.792553 
L 302.228639 26.089751 
L 303.860069 25.543127 
L 305.491498 26.011662 
L 307.122928 25.465038 
L 308.754358 26.089751 
L 310.385788 26.558285 
L 312.017218 24.840325 
L 313.648648 24.44988 
L 315.280078 25.933573 
L 316.911508 24.918414 
L 318.542937 25.933573 
L 320.174367 26.16784 
L 321.805797 23.981345 
L 323.437227 23.356633 
L 325.068657 23.434722 
L 326.700087 22.497653 
L 328.331517 21.326316 
L 329.962947 21.560584 
L 331.594376 22.029118 
L 333.225806 23.044276 
L 334.857236 23.356633 
L 336.488666 22.575742 
L 338.120096 21.248227 
L 339.751526 19.296 
L 341.382956 20.15498 
L 343.014386 22.575742 
L 344.645815 24.527969 
L 346.277245 23.278544 
L 347.908675 22.185296 
L 349.540105 21.638673 
L 351.171535 22.341474 
L 352.802965 22.263385 
L 354.434395 23.278544 
L 356.065825 23.668989 
L 357.697254 23.825167 
L 359.328684 26.245929 
L 360.960114 28.432423 
L 362.591544 28.979047 
L 364.222974 29.838027 
L 365.854404 30.306562 
L 367.485834 29.525671 
L 369.117264 29.447582 
L 372.380123 29.994205 
L 374.011553 32.493056 
L 375.642983 31.790254 
L 377.274413 31.32172 
L 378.905843 30.46274 
L 380.537273 31.946433 
L 380.537273 31.946433 
" clip-path="url(#p975080c8fb)" style="fill: none; stroke: #2ca02c; stroke-width: 1.5; stroke-linecap: square"/>
   </g>
   <g id="line2d_20">
    <path d="M 55.882727 261.216 
L 57.514157 261.059822 
L 59.145587 260.747465 
L 60.777017 260.122753 
L 62.408447 259.732307 
L 64.039877 258.717149 
L 65.671307 257.936258 
L 67.302736 256.686833 
L 68.934166 255.046962 
L 70.565596 254.34416 
L 72.197026 251.76722 
L 73.828456 250.04926 
L 75.459886 247.862766 
L 78.722746 244.973469 
L 80.354175 243.021242 
L 81.985605 241.693728 
L 83.617035 239.897679 
L 85.248465 236.852204 
L 86.879895 235.134244 
L 90.142755 231.22979 
L 91.774185 229.355651 
L 93.405614 225.919731 
L 95.037044 222.952346 
L 96.668474 221.078208 
L 98.299904 219.516426 
L 99.931334 218.813624 
L 101.562764 217.251842 
L 103.194194 214.440635 
L 104.825624 212.33223 
L 106.457053 210.61427 
L 108.088483 207.568795 
L 109.719913 206.475548 
L 112.982773 202.336826 
L 114.614203 201.634025 
L 116.245633 198.978995 
L 117.877063 198.58855 
L 119.508492 197.261036 
L 121.139922 195.15263 
L 124.402782 195.543076 
L 126.034212 192.966136 
L 127.665642 191.950977 
L 129.297072 190.545374 
L 130.928502 188.515057 
L 132.559931 185.625761 
L 134.191361 184.142068 
L 135.822791 181.877485 
L 137.454221 181.174683 
L 139.085651 180.862327 
L 140.717081 179.847168 
L 142.348511 177.894941 
L 143.979941 176.567427 
L 145.61137 174.771378 
L 147.2428 174.146665 
L 148.87423 173.912398 
L 150.50566 174.302843 
L 152.13709 173.912398 
L 153.76852 172.116349 
L 155.39995 173.443863 
L 157.03138 172.662972 
L 158.66281 169.148963 
L 160.294239 169.929854 
L 161.925669 169.617498 
L 163.557099 168.289983 
L 165.188529 167.509092 
L 166.819959 166.103489 
L 168.451389 166.962469 
L 170.082819 165.088331 
L 171.714249 165.244509 
L 173.345678 164.151261 
L 174.977108 164.30744 
L 176.608538 163.370371 
L 178.239968 163.214192 
L 179.871398 162.355212 
L 181.502828 162.120945 
L 183.134258 162.745658 
L 184.765688 161.652411 
L 186.397117 162.355212 
L 188.028547 161.7305 
L 189.659977 161.7305 
L 192.922837 163.526549 
L 194.554267 162.58948 
L 196.185697 160.168718 
L 199.448556 159.075471 
L 201.079986 157.904134 
L 202.711416 156.967065 
L 204.342846 157.123243 
L 207.605706 156.57662 
L 209.237136 155.405283 
L 210.868566 155.014838 
L 215.762855 154.780571 
L 217.394285 154.936749 
L 219.025715 154.85866 
L 220.657145 154.312036 
L 222.288575 152.828343 
L 223.920005 154.233947 
L 225.551434 154.624393 
L 227.182864 154.312036 
L 228.814294 153.765413 
L 230.445724 153.843502 
L 232.077154 155.405283 
L 233.708584 154.312036 
L 235.340014 152.906433 
L 236.971444 151.735096 
L 238.602873 149.548602 
L 240.234303 149.860958 
L 241.865733 149.782869 
L 243.497163 150.251403 
L 245.128593 150.56376 
L 246.760023 149.080067 
L 248.391453 147.205929 
L 250.022883 147.518285 
L 251.654312 147.440196 
L 253.285742 147.596374 
L 254.917172 146.971662 
L 256.548602 148.064909 
L 258.180032 149.70478 
L 259.811462 148.455354 
L 261.442892 147.596374 
L 263.074322 147.049751 
L 264.705751 147.049751 
L 266.337181 147.98682 
L 267.968611 147.830642 
L 271.231471 146.581216 
L 272.862901 145.097524 
L 274.494331 144.160454 
L 276.125761 143.457653 
L 277.75719 143.145296 
L 279.38862 144.004276 
L 281.02005 145.878414 
L 282.65148 146.737394 
L 284.28291 146.503127 
L 285.91434 147.596374 
L 287.54577 149.001978 
L 289.1772 148.8458 
L 290.80863 146.112682 
L 292.440059 147.284018 
L 294.071489 147.830642 
L 295.702919 147.830642 
L 297.334349 149.470513 
L 298.965779 149.236245 
L 300.597209 147.830642 
L 302.228639 147.596374 
L 303.860069 145.956504 
L 305.491498 146.190771 
L 307.122928 144.863256 
L 310.385788 143.926187 
L 312.017218 144.472811 
L 313.648648 144.238544 
L 315.280078 143.535742 
L 316.911508 143.613831 
L 318.542937 143.067207 
L 320.174367 142.754851 
L 321.805797 144.628989 
L 323.437227 144.785167 
L 325.068657 145.175613 
L 326.700087 145.40988 
L 328.331517 144.160454 
L 329.962947 142.754851 
L 331.594376 141.036891 
L 333.225806 140.490267 
L 334.857236 140.568356 
L 336.488666 142.989118 
L 338.120096 146.190771 
L 339.751526 147.205929 
L 341.382956 147.830642 
L 343.014386 144.941345 
L 344.645815 142.520584 
L 346.277245 142.83294 
L 347.908675 143.457653 
L 349.540105 143.379564 
L 351.171535 142.911029 
L 352.802965 142.676762 
L 354.434395 142.208227 
L 356.065825 141.349247 
L 357.697254 142.208227 
L 359.328684 141.11498 
L 360.960114 141.505425 
L 362.591544 141.271158 
L 365.854404 141.895871 
L 367.485834 142.442495 
L 369.117264 141.193069 
L 370.748693 140.334089 
L 372.380123 140.958802 
L 374.011553 138.928485 
L 375.642983 141.583515 
L 377.274413 140.334089 
L 380.537273 141.271158 
L 380.537273 141.271158 
" clip-path="url(#p975080c8fb)" style="fill: none; stroke: #d62728; stroke-width: 1.5; stroke-linecap: square"/>
   </g>
   <g id="patch_3">
    <path d="M 39.65 273.312 
L 39.65 7.2 
" style="fill: none; stroke: #000000; stroke-width: 0.8; stroke-linejoin: miter; stroke-linecap: square"/>
   </g>
   <g id="patch_4">
    <path d="M 396.77 273.312 
L 396.77 7.2 
" style="fill: none; stroke: #000000; stroke-width: 0.8; stroke-linejoin: miter; stroke-linecap: square"/>
   </g>
   <g id="patch_5">
    <path d="M 39.65 273.312 
L 396.77 273.312 
" style="fill: none; stroke: #000000; stroke-width: 0.8; stroke-linejoin: miter; stroke-linecap: square"/>
   </g>
   <g id="patch_6">
    <path d="M 39.65 7.2 
L 396.77 7.2 
" style="fill: none; stroke: #000000; stroke-width: 0.8; stroke-linejoin: miter; stroke-linecap: square"/>
   </g>
  </g>
 </g>
 <defs>
  <clipPath id="p975080c8fb">
   <rect x="39.65" y="7.2" width="357.12" height="266.112"/>
  </clipPath>
 </defs>
</svg>
