<?xml version="1.0" encoding="utf-8" standalone="no"?>
<!DOCTYPE svg PUBLIC "-//W3C//DTD SVG 1.1//EN"
  "http://www.w3.org/Graphics/SVG/1.1/DTD/svg11.dtd">
<svg xmlns:xlink="http://www.w3.org/1999/xlink" width="403.97pt" height="297.190125pt" viewBox="0 0 403.97 297.190125" xmlns="http://www.w3.org/2000/svg" version="1.1">
 <metadata>
  <rdf:RDF xmlns:dc="http://purl.org/dc/elements/1.1/" xmlns:cc="http://creativecommons.org/ns#" xmlns:rdf="http://www.w3.org/1999/02/22-rdf-syntax-ns#">
   <cc:Work>
    <dc:type rdf:resource="http://purl.org/dc/dcmitype/StillImage"/>
    <dc:date>2025-02-17T09:52:40.490849</dc:date>
    <dc:format>image/svg+xml</dc:format>
    <dc:creator>
     <cc:Agent>
      <dc:title>Matplotlib v3.10.0, https://matplotlib.org/</dc:title>
     </cc:Agent>
    </dc:creator>
   </cc:Work>
  </rdf:RDF>
 </metadata>
 <defs>
  <style type="text/css">*{stroke-linejoin: round; stroke-linecap: butt}</style>
 </defs>
 <g id="figure_1">
  <g id="patch_1">
   <path d="M 0 297.190125 
L 403.97 297.190125 
L 403.97 0 
L 0 0 
z
" style="fill: #ffffff"/>
  </g>
  <g id="axes_1">
   <g id="patch_2">
    <path d="M 39.65 273.312 
L 396.77 273.312 
L 396.77 7.2 
L 39.65 7.2 
z
" style="fill: #ffffff"/>
   </g>
   <g id="matplotlib.axis_1">
    <g id="xtick_1">
     <g id="line2d_1">
      <defs>
       <path id="m697ac55de7" d="M 0 0 
L 0 3.5 
" style="stroke: #000000; stroke-width: 0.8"/>
      </defs>
      <g>
       <use xlink:href="#m697ac55de7" x="55.882727" y="273.312" style="stroke: #000000; stroke-width: 0.8"/>
      </g>
     </g>
     <g id="text_1">
      <!-- 0.0 -->
      <g transform="translate(47.931165 287.910437) scale(0.1 -0.1)">
       <defs>
        <path id="DejaVuSans-30" d="M 2034 4250 
Q 1547 4250 1301 3770 
Q 1056 3291 1056 2328 
Q 1056 1369 1301 889 
Q 1547 409 2034 409 
Q 2525 409 2770 889 
Q 3016 1369 3016 2328 
Q 3016 3291 2770 3770 
Q 2525 4250 2034 4250 
z
M 2034 4750 
Q 2819 4750 3233 4129 
Q 3647 3509 3647 2328 
Q 3647 1150 3233 529 
Q 2819 -91 2034 -91 
Q 1250 -91 836 529 
Q 422 1150 422 2328 
Q 422 3509 836 4129 
Q 1250 4750 2034 4750 
z
" transform="scale(0.015625)"/>
        <path id="DejaVuSans-2e" d="M 684 794 
L 1344 794 
L 1344 0 
L 684 0 
L 684 794 
z
" transform="scale(0.015625)"/>
       </defs>
       <use xlink:href="#DejaVuSans-30"/>
       <use xlink:href="#DejaVuSans-2e" transform="translate(63.623047 0)"/>
       <use xlink:href="#DejaVuSans-30" transform="translate(95.410156 0)"/>
      </g>
     </g>
    </g>
    <g id="xtick_2">
     <g id="line2d_2">
      <g>
       <use xlink:href="#m697ac55de7" x="96.668474" y="273.312" style="stroke: #000000; stroke-width: 0.8"/>
      </g>
     </g>
     <g id="text_2">
      <!-- 2.5 -->
      <g transform="translate(88.716912 287.910437) scale(0.1 -0.1)">
       <defs>
        <path id="DejaVuSans-32" d="M 1228 531 
L 3431 531 
L 3431 0 
L 469 0 
L 469 531 
Q 828 903 1448 1529 
Q 2069 2156 2228 2338 
Q 2531 2678 2651 2914 
Q 2772 3150 2772 3378 
Q 2772 3750 2511 3984 
Q 2250 4219 1831 4219 
Q 1534 4219 1204 4116 
Q 875 4013 500 3803 
L 500 4441 
Q 881 4594 1212 4672 
Q 1544 4750 1819 4750 
Q 2544 4750 2975 4387 
Q 3406 4025 3406 3419 
Q 3406 3131 3298 2873 
Q 3191 2616 2906 2266 
Q 2828 2175 2409 1742 
Q 1991 1309 1228 531 
z
" transform="scale(0.015625)"/>
        <path id="DejaVuSans-35" d="M 691 4666 
L 3169 4666 
L 3169 4134 
L 1269 4134 
L 1269 2991 
Q 1406 3038 1543 3061 
Q 1681 3084 1819 3084 
Q 2600 3084 3056 2656 
Q 3513 2228 3513 1497 
Q 3513 744 3044 326 
Q 2575 -91 1722 -91 
Q 1428 -91 1123 -41 
Q 819 9 494 109 
L 494 744 
Q 775 591 1075 516 
Q 1375 441 1709 441 
Q 2250 441 2565 725 
Q 2881 1009 2881 1497 
Q 2881 1984 2565 2268 
Q 2250 2553 1709 2553 
Q 1456 2553 1204 2497 
Q 953 2441 691 2322 
L 691 4666 
z
" transform="scale(0.015625)"/>
       </defs>
       <use xlink:href="#DejaVuSans-32"/>
       <use xlink:href="#DejaVuSans-2e" transform="translate(63.623047 0)"/>
       <use xlink:href="#DejaVuSans-35" transform="translate(95.410156 0)"/>
      </g>
     </g>
    </g>
    <g id="xtick_3">
     <g id="line2d_3">
      <g>
       <use xlink:href="#m697ac55de7" x="137.454221" y="273.312" style="stroke: #000000; stroke-width: 0.8"/>
      </g>
     </g>
     <g id="text_3">
      <!-- 5.0 -->
      <g transform="translate(129.502659 287.910437) scale(0.1 -0.1)">
       <use xlink:href="#DejaVuSans-35"/>
       <use xlink:href="#DejaVuSans-2e" transform="translate(63.623047 0)"/>
       <use xlink:href="#DejaVuSans-30" transform="translate(95.410156 0)"/>
      </g>
     </g>
    </g>
    <g id="xtick_4">
     <g id="line2d_4">
      <g>
       <use xlink:href="#m697ac55de7" x="178.239968" y="273.312" style="stroke: #000000; stroke-width: 0.8"/>
      </g>
     </g>
     <g id="text_4">
      <!-- 7.5 -->
      <g transform="translate(170.288406 287.910437) scale(0.1 -0.1)">
       <defs>
        <path id="DejaVuSans-37" d="M 525 4666 
L 3525 4666 
L 3525 4397 
L 1831 0 
L 1172 0 
L 2766 4134 
L 525 4134 
L 525 4666 
z
" transform="scale(0.015625)"/>
       </defs>
       <use xlink:href="#DejaVuSans-37"/>
       <use xlink:href="#DejaVuSans-2e" transform="translate(63.623047 0)"/>
       <use xlink:href="#DejaVuSans-35" transform="translate(95.410156 0)"/>
      </g>
     </g>
    </g>
    <g id="xtick_5">
     <g id="line2d_5">
      <g>
       <use xlink:href="#m697ac55de7" x="219.025715" y="273.312" style="stroke: #000000; stroke-width: 0.8"/>
      </g>
     </g>
     <g id="text_5">
      <!-- 10.0 -->
      <g transform="translate(207.892902 287.910437) scale(0.1 -0.1)">
       <defs>
        <path id="DejaVuSans-31" d="M 794 531 
L 1825 531 
L 1825 4091 
L 703 3866 
L 703 4441 
L 1819 4666 
L 2450 4666 
L 2450 531 
L 3481 531 
L 3481 0 
L 794 0 
L 794 531 
z
" transform="scale(0.015625)"/>
       </defs>
       <use xlink:href="#DejaVuSans-31"/>
       <use xlink:href="#DejaVuSans-30" transform="translate(63.623047 0)"/>
       <use xlink:href="#DejaVuSans-2e" transform="translate(127.246094 0)"/>
       <use xlink:href="#DejaVuSans-30" transform="translate(159.033203 0)"/>
      </g>
     </g>
    </g>
    <g id="xtick_6">
     <g id="line2d_6">
      <g>
       <use xlink:href="#m697ac55de7" x="259.811462" y="273.312" style="stroke: #000000; stroke-width: 0.8"/>
      </g>
     </g>
     <g id="text_6">
      <!-- 12.5 -->
      <g transform="translate(248.678649 287.910437) scale(0.1 -0.1)">
       <use xlink:href="#DejaVuSans-31"/>
       <use xlink:href="#DejaVuSans-32" transform="translate(63.623047 0)"/>
       <use xlink:href="#DejaVuSans-2e" transform="translate(127.246094 0)"/>
       <use xlink:href="#DejaVuSans-35" transform="translate(159.033203 0)"/>
      </g>
     </g>
    </g>
    <g id="xtick_7">
     <g id="line2d_7">
      <g>
       <use xlink:href="#m697ac55de7" x="300.597209" y="273.312" style="stroke: #000000; stroke-width: 0.8"/>
      </g>
     </g>
     <g id="text_7">
      <!-- 15.0 -->
      <g transform="translate(289.464396 287.910437) scale(0.1 -0.1)">
       <use xlink:href="#DejaVuSans-31"/>
       <use xlink:href="#DejaVuSans-35" transform="translate(63.623047 0)"/>
       <use xlink:href="#DejaVuSans-2e" transform="translate(127.246094 0)"/>
       <use xlink:href="#DejaVuSans-30" transform="translate(159.033203 0)"/>
      </g>
     </g>
    </g>
    <g id="xtick_8">
     <g id="line2d_8">
      <g>
       <use xlink:href="#m697ac55de7" x="341.382956" y="273.312" style="stroke: #000000; stroke-width: 0.8"/>
      </g>
     </g>
     <g id="text_8">
      <!-- 17.5 -->
      <g transform="translate(330.250143 287.910437) scale(0.1 -0.1)">
       <use xlink:href="#DejaVuSans-31"/>
       <use xlink:href="#DejaVuSans-37" transform="translate(63.623047 0)"/>
       <use xlink:href="#DejaVuSans-2e" transform="translate(127.246094 0)"/>
       <use xlink:href="#DejaVuSans-35" transform="translate(159.033203 0)"/>
      </g>
     </g>
    </g>
    <g id="xtick_9">
     <g id="line2d_9">
      <g>
       <use xlink:href="#m697ac55de7" x="382.168703" y="273.312" style="stroke: #000000; stroke-width: 0.8"/>
      </g>
     </g>
     <g id="text_9">
      <!-- 20.0 -->
      <g transform="translate(371.03589 287.910437) scale(0.1 -0.1)">
       <use xlink:href="#DejaVuSans-32"/>
       <use xlink:href="#DejaVuSans-30" transform="translate(63.623047 0)"/>
       <use xlink:href="#DejaVuSans-2e" transform="translate(127.246094 0)"/>
       <use xlink:href="#DejaVuSans-30" transform="translate(159.033203 0)"/>
      </g>
     </g>
    </g>
   </g>
   <g id="matplotlib.axis_2">
    <g id="ytick_1">
     <g id="line2d_10">
      <defs>
       <path id="mf74ac7cd84" d="M 0 0 
L -3.5 0 
" style="stroke: #000000; stroke-width: 0.8"/>
      </defs>
      <g>
       <use xlink:href="#mf74ac7cd84" x="39.65" y="261.216" style="stroke: #000000; stroke-width: 0.8"/>
      </g>
     </g>
     <g id="text_10">
      <!-- 0 -->
      <g transform="translate(26.2875 265.015219) scale(0.1 -0.1)">
       <use xlink:href="#DejaVuSans-30"/>
      </g>
     </g>
    </g>
    <g id="ytick_2">
     <g id="line2d_11">
      <g>
       <use xlink:href="#mf74ac7cd84" x="39.65" y="226.862876" style="stroke: #000000; stroke-width: 0.8"/>
      </g>
     </g>
     <g id="text_11">
      <!-- 500 -->
      <g transform="translate(13.5625 230.662095) scale(0.1 -0.1)">
       <use xlink:href="#DejaVuSans-35"/>
       <use xlink:href="#DejaVuSans-30" transform="translate(63.623047 0)"/>
       <use xlink:href="#DejaVuSans-30" transform="translate(127.246094 0)"/>
      </g>
     </g>
    </g>
    <g id="ytick_3">
     <g id="line2d_12">
      <g>
       <use xlink:href="#mf74ac7cd84" x="39.65" y="192.509752" style="stroke: #000000; stroke-width: 0.8"/>
      </g>
     </g>
     <g id="text_12">
      <!-- 1000 -->
      <g transform="translate(7.2 196.308971) scale(0.1 -0.1)">
       <use xlink:href="#DejaVuSans-31"/>
       <use xlink:href="#DejaVuSans-30" transform="translate(63.623047 0)"/>
       <use xlink:href="#DejaVuSans-30" transform="translate(127.246094 0)"/>
       <use xlink:href="#DejaVuSans-30" transform="translate(190.869141 0)"/>
      </g>
     </g>
    </g>
    <g id="ytick_4">
     <g id="line2d_13">
      <g>
       <use xlink:href="#mf74ac7cd84" x="39.65" y="158.156628" style="stroke: #000000; stroke-width: 0.8"/>
      </g>
     </g>
     <g id="text_13">
      <!-- 1500 -->
      <g transform="translate(7.2 161.955847) scale(0.1 -0.1)">
       <use xlink:href="#DejaVuSans-31"/>
       <use xlink:href="#DejaVuSans-35" transform="translate(63.623047 0)"/>
       <use xlink:href="#DejaVuSans-30" transform="translate(127.246094 0)"/>
       <use xlink:href="#DejaVuSans-30" transform="translate(190.869141 0)"/>
      </g>
     </g>
    </g>
    <g id="ytick_5">
     <g id="line2d_14">
      <g>
       <use xlink:href="#mf74ac7cd84" x="39.65" y="123.803504" style="stroke: #000000; stroke-width: 0.8"/>
      </g>
     </g>
     <g id="text_14">
      <!-- 2000 -->
      <g transform="translate(7.2 127.602722) scale(0.1 -0.1)">
       <use xlink:href="#DejaVuSans-32"/>
       <use xlink:href="#DejaVuSans-30" transform="translate(63.623047 0)"/>
       <use xlink:href="#DejaVuSans-30" transform="translate(127.246094 0)"/>
       <use xlink:href="#DejaVuSans-30" transform="translate(190.869141 0)"/>
      </g>
     </g>
    </g>
    <g id="ytick_6">
     <g id="line2d_15">
      <g>
       <use xlink:href="#mf74ac7cd84" x="39.65" y="89.45038" style="stroke: #000000; stroke-width: 0.8"/>
      </g>
     </g>
     <g id="text_15">
      <!-- 2500 -->
      <g transform="translate(7.2 93.249598) scale(0.1 -0.1)">
       <use xlink:href="#DejaVuSans-32"/>
       <use xlink:href="#DejaVuSans-35" transform="translate(63.623047 0)"/>
       <use xlink:href="#DejaVuSans-30" transform="translate(127.246094 0)"/>
       <use xlink:href="#DejaVuSans-30" transform="translate(190.869141 0)"/>
      </g>
     </g>
    </g>
    <g id="ytick_7">
     <g id="line2d_16">
      <g>
       <use xlink:href="#mf74ac7cd84" x="39.65" y="55.097256" style="stroke: #000000; stroke-width: 0.8"/>
      </g>
     </g>
     <g id="text_16">
      <!-- 3000 -->
      <g transform="translate(7.2 58.896474) scale(0.1 -0.1)">
       <defs>
        <path id="DejaVuSans-33" d="M 2597 2516 
Q 3050 2419 3304 2112 
Q 3559 1806 3559 1356 
Q 3559 666 3084 287 
Q 2609 -91 1734 -91 
Q 1441 -91 1130 -33 
Q 819 25 488 141 
L 488 750 
Q 750 597 1062 519 
Q 1375 441 1716 441 
Q 2309 441 2620 675 
Q 2931 909 2931 1356 
Q 2931 1769 2642 2001 
Q 2353 2234 1838 2234 
L 1294 2234 
L 1294 2753 
L 1863 2753 
Q 2328 2753 2575 2939 
Q 2822 3125 2822 3475 
Q 2822 3834 2567 4026 
Q 2313 4219 1838 4219 
Q 1578 4219 1281 4162 
Q 984 4106 628 3988 
L 628 4550 
Q 988 4650 1302 4700 
Q 1616 4750 1894 4750 
Q 2613 4750 3031 4423 
Q 3450 4097 3450 3541 
Q 3450 3153 3228 2886 
Q 3006 2619 2597 2516 
z
" transform="scale(0.015625)"/>
       </defs>
       <use xlink:href="#DejaVuSans-33"/>
       <use xlink:href="#DejaVuSans-30" transform="translate(63.623047 0)"/>
       <use xlink:href="#DejaVuSans-30" transform="translate(127.246094 0)"/>
       <use xlink:href="#DejaVuSans-30" transform="translate(190.869141 0)"/>
      </g>
     </g>
    </g>
    <g id="ytick_8">
     <g id="line2d_17">
      <g>
       <use xlink:href="#mf74ac7cd84" x="39.65" y="20.744132" style="stroke: #000000; stroke-width: 0.8"/>
      </g>
     </g>
     <g id="text_17">
      <!-- 3500 -->
      <g transform="translate(7.2 24.54335) scale(0.1 -0.1)">
       <use xlink:href="#DejaVuSans-33"/>
       <use xlink:href="#DejaVuSans-35" transform="translate(63.623047 0)"/>
       <use xlink:href="#DejaVuSans-30" transform="translate(127.246094 0)"/>
       <use xlink:href="#DejaVuSans-30" transform="translate(190.869141 0)"/>
      </g>
     </g>
    </g>
   </g>
   <g id="line2d_18">
    <path d="M 55.882727 261.216 
L 72.197026 192.509752 
L 88.511325 143.281725 
L 104.825624 108.009844 
L 121.139922 82.737541 
L 137.454221 64.629936 
L 153.76852 51.655837 
L 170.082819 42.359895 
L 186.397117 35.699353 
L 202.711416 30.927074 
L 219.025715 27.507736 
L 235.340014 25.057781 
L 251.654312 23.302388 
L 267.968611 22.044649 
L 284.28291 21.143479 
L 300.597209 20.49779 
L 316.911508 20.035155 
L 333.225806 19.703676 
L 349.540105 19.466172 
L 365.854404 19.296 
" clip-path="url(#pfdf55e5c66)" style="fill: none; stroke: #1f77b4; stroke-width: 1.5; stroke-linecap: square"/>
   </g>
   <g id="line2d_19">
    <path d="M 55.882727 261.216 
L 72.197026 261.216 
L 88.511325 238.313917 
L 104.825624 210.146646 
L 121.139922 183.928275 
L 137.454221 162.043662 
L 153.76852 144.772234 
L 170.082819 131.580383 
L 186.397117 121.709039 
L 202.711416 114.420911 
L 219.025715 109.088426 
L 235.340014 105.210949 
L 251.654312 102.4036 
L 267.968611 100.377177 
L 284.28291 98.917564 
L 300.597209 97.867809 
L 316.911508 97.113636 
L 333.225806 96.572231 
L 349.540105 96.183781 
L 365.854404 95.905183 
" clip-path="url(#pfdf55e5c66)" style="fill: none; stroke: #ff7f0e; stroke-width: 1.5; stroke-linecap: square"/>
   </g>
   <g id="line2d_20">
    <path d="M 55.882727 261.216 
L 57.514157 254.688906 
L 59.145587 247.131219 
L 60.777017 241.016363 
L 64.039877 227.824763 
L 65.671307 221.503789 
L 67.302736 214.495751 
L 68.934166 210.235964 
L 72.197026 200.273558 
L 73.828456 195.876358 
L 86.879895 164.683721 
L 88.511325 161.523234 
L 91.774185 154.583903 
L 93.405614 151.629534 
L 95.037044 147.575866 
L 96.668474 145.033734 
L 99.931334 138.71276 
L 101.562764 136.51416 
L 103.194194 132.391785 
L 104.825624 129.36871 
L 106.457053 127.032697 
L 108.088483 125.108922 
L 109.719913 123.803504 
L 111.351343 122.291966 
L 112.982773 121.192666 
L 114.614203 118.444416 
L 116.245633 115.970991 
L 117.877063 113.841098 
L 119.508492 113.291448 
L 121.139922 112.192148 
L 122.771352 110.68061 
L 124.402782 108.894248 
L 126.034212 106.420823 
L 127.665642 104.153517 
L 129.297072 104.153517 
L 132.559931 99.825023 
L 134.191361 97.282892 
L 135.822791 95.427823 
L 137.454221 93.778873 
L 139.085651 90.961917 
L 140.717081 90.00003 
L 142.348511 88.213667 
L 143.979941 84.847061 
L 145.61137 85.190592 
L 147.2428 85.259299 
L 148.87423 83.679055 
L 150.50566 84.572236 
L 152.13709 84.50353 
L 153.76852 84.297411 
L 155.39995 82.923286 
L 157.03138 81.75528 
L 158.66281 79.762799 
L 160.294239 79.831505 
L 161.925669 77.564199 
L 163.557099 76.533605 
L 165.188529 75.640424 
L 166.819959 75.296893 
L 168.451389 74.747243 
L 170.082819 72.617349 
L 171.714249 71.243224 
L 173.345678 70.830986 
L 174.977108 69.456861 
L 176.608538 69.869099 
L 178.239968 66.502493 
L 179.871398 66.090255 
L 181.502828 64.578718 
L 183.134258 61.624349 
L 184.765688 61.349524 
L 186.397117 60.593755 
L 188.028547 59.357043 
L 189.659977 59.494455 
L 191.291407 58.532568 
L 192.922837 58.807393 
L 194.554267 59.700574 
L 197.817127 59.357043 
L 199.448556 60.456343 
L 201.079986 60.525049 
L 202.711416 60.044105 
L 204.342846 58.532568 
L 205.974276 57.845506 
L 207.605706 56.883618 
L 209.237136 56.402674 
L 210.868566 58.66998 
L 212.499995 58.66998 
L 214.131425 59.357043 
L 215.762855 59.425749 
L 217.394285 59.700574 
L 219.025715 61.212112 
L 220.657145 61.349524 
L 222.288575 60.799874 
L 223.920005 60.112812 
L 225.551434 60.456343 
L 227.182864 61.830468 
L 228.814294 62.586237 
L 230.445724 63.960362 
L 232.077154 62.380118 
L 233.708584 63.410712 
L 235.340014 63.342005 
L 236.971444 64.16648 
L 238.602873 64.784837 
L 240.234303 64.372599 
L 241.865733 64.235187 
L 243.497163 62.242705 
L 245.128593 63.685537 
L 246.760023 63.822949 
L 248.391453 63.410712 
L 250.022883 62.036587 
L 251.654312 63.548124 
L 253.285742 62.723649 
L 254.917172 62.654943 
L 256.548602 62.105293 
L 258.180032 62.861062 
L 259.811462 64.372599 
L 261.442892 64.922249 
L 263.074322 66.502493 
L 266.337181 66.021549 
L 267.968611 66.36508 
L 269.600041 65.884137 
L 271.231471 65.81543 
L 272.862901 64.235187 
L 276.125761 62.311412 
L 277.75719 61.624349 
L 281.02005 62.51753 
L 282.65148 61.693055 
L 284.28291 61.349524 
L 287.54577 62.861062 
L 289.1772 63.06718 
L 290.80863 62.448824 
L 292.440059 62.448824 
L 294.071489 63.479418 
L 295.702919 63.479418 
L 297.334349 62.586237 
L 298.965779 61.830468 
L 300.597209 61.830468 
L 302.228639 62.036587 
L 303.860069 62.723649 
L 305.491498 62.380118 
L 307.122928 61.624349 
L 308.754358 60.387637 
L 310.385788 60.31893 
L 312.017218 60.387637 
L 313.648648 61.555643 
L 315.280078 62.105293 
L 316.911508 61.41823 
L 318.542937 62.173999 
L 320.174367 62.380118 
L 321.805797 62.173999 
L 323.437227 61.486937 
L 325.068657 61.624349 
L 326.700087 62.105293 
L 328.331517 60.799874 
L 329.962947 60.937287 
L 331.594376 61.212112 
L 333.225806 60.525049 
L 336.488666 60.387637 
L 338.120096 59.563162 
L 339.751526 59.837987 
L 341.382956 60.731168 
L 343.014386 60.31893 
L 344.645815 60.387637 
L 346.277245 60.662462 
L 347.908675 61.349524 
L 349.540105 61.899174 
L 351.171535 64.372599 
L 352.802965 64.71613 
L 354.434395 63.479418 
L 356.065825 64.990955 
L 357.697254 63.685537 
L 359.328684 63.822949 
L 360.960114 62.929768 
L 362.591544 64.441305 
L 364.222974 64.853543 
L 367.485834 64.097774 
L 369.117264 62.242705 
L 370.748693 63.06718 
L 372.380123 62.861062 
L 374.011553 62.861062 
L 377.274413 62.51753 
L 378.905843 63.754243 
L 380.537273 62.036587 
L 380.537273 62.036587 
" clip-path="url(#pfdf55e5c66)" style="fill: none; stroke: #2ca02c; stroke-width: 1.5; stroke-linecap: square"/>
   </g>
   <g id="line2d_21">
    <path d="M 55.882727 261.216 
L 57.514157 261.147294 
L 59.145587 260.941175 
L 60.777017 260.597644 
L 64.039877 258.811281 
L 65.671307 258.330338 
L 68.934166 256.131738 
L 70.565596 254.414081 
L 72.197026 253.246075 
L 73.828456 251.3223 
L 75.459886 249.604644 
L 77.091316 247.47475 
L 78.722746 246.169332 
L 81.985605 242.802725 
L 83.617035 241.772132 
L 85.248465 239.230001 
L 86.879895 238.336819 
L 88.511325 236.138219 
L 93.405614 230.710426 
L 95.037044 230.023363 
L 101.562764 224.732982 
L 103.194194 223.908507 
L 104.825624 221.916026 
L 106.457053 219.167776 
L 108.088483 218.686832 
L 109.719913 215.388932 
L 111.351343 213.877395 
L 114.614203 210.442083 
L 116.245633 209.342783 
L 117.877063 208.449601 
L 119.508492 205.563939 
L 121.139922 204.189814 
L 122.771352 203.434045 
L 124.402782 200.754502 
L 127.665642 199.31167 
L 129.297072 199.105552 
L 130.928502 198.693314 
L 132.559931 198.006252 
L 134.191361 195.807652 
L 135.822791 196.357302 
L 137.454221 194.777058 
L 139.085651 194.021289 
L 140.717081 192.166221 
L 142.348511 191.616571 
L 143.979941 191.341746 
L 145.61137 190.242446 
L 147.2428 188.043846 
L 150.50566 185.158183 
L 152.13709 184.12759 
L 153.76852 183.852765 
L 155.39995 184.883358 
L 157.03138 183.990177 
L 158.66281 184.333708 
L 160.294239 183.784058 
L 161.925669 183.921471 
L 165.188529 182.616052 
L 168.451389 179.936508 
L 170.082819 180.348746 
L 171.714249 179.867802 
L 173.345678 177.188259 
L 174.977108 177.188259 
L 176.608538 175.470602 
L 178.239968 176.776021 
L 179.871398 175.951546 
L 181.502828 175.951546 
L 183.134258 176.43249 
L 184.765688 175.745427 
L 186.397117 175.470602 
L 188.028547 174.096477 
L 189.659977 171.623052 
L 192.922837 171.416934 
L 194.554267 171.279521 
L 196.185697 170.180221 
L 197.817127 169.355746 
L 199.448556 168.050328 
L 201.079986 165.714315 
L 202.711416 164.958546 
L 204.342846 165.783021 
L 205.974276 164.958546 
L 207.605706 165.095959 
L 209.237136 164.958546 
L 210.868566 163.927953 
L 212.499995 163.721834 
L 214.131425 161.660646 
L 215.762855 162.072884 
L 217.394285 160.973584 
L 219.025715 159.39334 
L 220.657145 160.011696 
L 222.288575 159.94299 
L 223.920005 158.431453 
L 225.551434 158.568865 
L 227.182864 158.087922 
L 228.814294 158.362747 
L 230.445724 157.332153 
L 232.077154 158.637572 
L 233.708584 157.74439 
L 235.340014 157.606978 
L 236.971444 157.813097 
L 238.602873 158.431453 
L 240.234303 157.469565 
L 241.865733 157.263447 
L 243.497163 157.332153 
L 245.128593 155.958028 
L 246.760023 155.958028 
L 248.391453 156.164147 
L 250.022883 156.507678 
L 251.654312 154.99614 
L 253.285742 156.370265 
L 254.917172 155.889322 
L 256.548602 155.751909 
L 258.180032 154.99614 
L 259.811462 153.141072 
L 261.442892 153.484603 
L 263.074322 154.240372 
L 264.705751 154.721315 
L 266.337181 155.339672 
L 267.968611 156.576384 
L 269.600041 157.057328 
L 271.231471 158.019215 
L 272.862901 157.400859 
L 274.494331 156.370265 
L 276.125761 157.606978 
L 277.75719 158.500159 
L 279.38862 157.950509 
L 281.02005 156.370265 
L 282.65148 155.683203 
L 284.28291 155.820615 
L 285.91434 155.683203 
L 287.54577 155.751909 
L 289.1772 156.09544 
L 290.80863 156.988622 
L 292.440059 157.74439 
L 294.071489 157.263447 
L 295.702919 157.813097 
L 297.334349 159.39334 
L 298.965779 160.286521 
L 300.597209 161.317115 
L 302.228639 161.660646 
L 303.860069 160.149109 
L 305.491498 161.729353 
L 307.122928 162.553828 
L 312.017218 163.653128 
L 313.648648 162.897359 
L 315.280078 162.828653 
L 316.911508 164.065365 
L 318.542937 162.072884 
L 320.174367 161.523234 
L 321.805797 161.729353 
L 323.437227 162.966065 
L 326.700087 160.904878 
L 328.331517 161.866765 
L 329.962947 162.004178 
L 331.594376 161.729353 
L 333.225806 162.553828 
L 334.857236 162.347709 
L 336.488666 161.04229 
L 338.120096 160.836171 
L 339.751526 161.248409 
L 341.382956 159.255928 
L 343.014386 159.94299 
L 344.645815 161.454528 
L 346.277245 161.866765 
L 347.908675 161.935471 
L 349.540105 162.347709 
L 351.171535 160.836171 
L 352.802965 161.798059 
L 354.434395 163.927953 
L 356.065825 163.378303 
L 357.697254 163.378303 
L 359.328684 162.004178 
L 360.960114 162.553828 
L 362.591544 162.14159 
L 364.222974 160.767465 
L 365.854404 161.110996 
L 367.485834 161.866765 
L 369.117264 163.584421 
L 370.748693 162.210296 
L 372.380123 161.385821 
L 374.011553 161.248409 
L 375.642983 160.217815 
L 377.274413 162.347709 
L 378.905843 160.767465 
L 380.537273 162.210296 
L 380.537273 162.210296 
" clip-path="url(#pfdf55e5c66)" style="fill: none; stroke: #d62728; stroke-width: 1.5; stroke-linecap: square"/>
   </g>
   <g id="patch_3">
    <path d="M 39.65 273.312 
L 39.65 7.2 
" style="fill: none; stroke: #000000; stroke-width: 0.8; stroke-linejoin: miter; stroke-linecap: square"/>
   </g>
   <g id="patch_4">
    <path d="M 396.77 273.312 
L 396.77 7.2 
" style="fill: none; stroke: #000000; stroke-width: 0.8; stroke-linejoin: miter; stroke-linecap: square"/>
   </g>
   <g id="patch_5">
    <path d="M 39.65 273.312 
L 396.77 273.312 
" style="fill: none; stroke: #000000; stroke-width: 0.8; stroke-linejoin: miter; stroke-linecap: square"/>
   </g>
   <g id="patch_6">
    <path d="M 39.65 7.2 
L 396.77 7.2 
" style="fill: none; stroke: #000000; stroke-width: 0.8; stroke-linejoin: miter; stroke-linecap: square"/>
   </g>
  </g>
 </g>
 <defs>
  <clipPath id="pfdf55e5c66">
   <rect x="39.65" y="7.2" width="357.12" height="266.112"/>
  </clipPath>
 </defs>
</svg>
