<?xml version="1.0" encoding="utf-8" standalone="no"?>
<!DOCTYPE svg PUBLIC "-//W3C//DTD SVG 1.1//EN"
  "http://www.w3.org/Graphics/SVG/1.1/DTD/svg11.dtd">
<svg xmlns:xlink="http://www.w3.org/1999/xlink" width="453.019863pt" height="325.986375pt" viewBox="0 0 453.019863 325.986375" xmlns="http://www.w3.org/2000/svg" version="1.1">
 <metadata>
  <rdf:RDF xmlns:dc="http://purl.org/dc/elements/1.1/" xmlns:cc="http://creativecommons.org/ns#" xmlns:rdf="http://www.w3.org/1999/02/22-rdf-syntax-ns#">
   <cc:Work>
    <dc:type rdf:resource="http://purl.org/dc/dcmitype/StillImage"/>
    <dc:date>2024-04-30T16:28:52.777300</dc:date>
    <dc:format>image/svg+xml</dc:format>
    <dc:creator>
     <cc:Agent>
      <dc:title>Matplotlib v3.8.4, https://matplotlib.org/</dc:title>
     </cc:Agent>
    </dc:creator>
   </cc:Work>
  </rdf:RDF>
 </metadata>
 <defs>
  <style type="text/css">*{stroke-linejoin: round; stroke-linecap: butt}</style>
 </defs>
 <g id="figure_1">
  <g id="patch_1">
   <path d="M 0 325.986375 
L 453.019862 325.986375 
L 453.019862 0 
L 0 0 
L 0 325.986375 
z
" style="fill: none; opacity: 0"/>
  </g>
  <g id="axes_1">
   <g id="patch_2">
    <path d="M 46.965625 288.430125 
L 332.661625 288.430125 
L 332.661625 22.318125 
L 46.965625 22.318125 
L 46.965625 288.430125 
z
" style="fill: none; opacity: 0"/>
   </g>
   <g id="PolyCollection_1">
    <path d="M 46.965625 288.430125 
L 46.965625 288.430125 
L 50.724783 288.430125 
L 54.483941 288.430125 
L 58.243099 288.430125 
L 62.002257 288.430125 
L 65.761414 288.430125 
L 69.520572 288.430125 
L 73.27973 288.430125 
L 77.038888 288.430125 
L 80.798046 288.430125 
L 84.557204 288.430125 
L 88.316362 288.430125 
L 92.07552 288.430125 
L 95.834678 288.430125 
L 99.593836 288.430125 
L 103.352993 288.430125 
L 107.112151 288.430125 
L 110.871309 288.430125 
L 114.630467 288.430125 
L 118.389625 288.430125 
L 122.148783 288.430125 
L 125.907941 288.430125 
L 129.667099 288.430125 
L 133.426257 288.430125 
L 137.185414 288.430125 
L 140.944572 288.430125 
L 144.70373 288.430125 
L 148.462888 288.430125 
L 152.222046 288.430125 
L 155.981204 288.430125 
L 159.740362 288.430125 
L 163.49952 288.430125 
L 167.258678 288.430125 
L 171.017836 288.430125 
L 174.776993 288.430125 
L 178.536151 288.430125 
L 182.295309 288.430125 
L 186.054467 288.430125 
L 189.813625 288.430125 
L 193.572783 288.430125 
L 197.331941 288.430125 
L 201.091099 288.430125 
L 204.850257 288.430125 
L 208.609414 288.430125 
L 212.368572 288.430125 
L 216.12773 288.430125 
L 219.886888 288.430125 
L 223.646046 288.430125 
L 227.405204 288.430125 
L 231.164362 288.430125 
L 234.92352 288.430125 
L 238.682678 288.430125 
L 242.441836 288.430125 
L 246.200993 288.430125 
L 249.960151 288.430125 
L 253.719309 288.430125 
L 257.478467 288.430125 
L 261.237625 288.430125 
L 264.996783 288.430125 
L 268.755941 288.430125 
L 272.515099 288.430125 
L 276.274257 288.430125 
L 280.033414 288.430125 
L 283.792572 288.430125 
L 287.55173 288.430125 
L 291.310888 288.430125 
L 295.070046 288.430125 
L 298.829204 288.430125 
L 302.588362 288.430125 
L 306.34752 288.430125 
L 310.106678 288.430125 
L 313.865836 288.430125 
L 317.624993 288.430125 
L 321.384151 288.430125 
L 325.143309 288.430125 
L 328.902467 288.430125 
L 332.661625 288.430125 
L 332.661625 64.888476 
L 332.661625 64.888476 
L 328.902467 66.307638 
L 325.143309 67.757953 
L 321.384151 69.23997 
L 317.624993 70.754243 
L 313.865836 72.301324 
L 310.106678 73.881772 
L 306.34752 75.496145 
L 302.588362 77.145001 
L 298.829204 78.828902 
L 295.070046 80.548407 
L 291.310888 82.304077 
L 287.55173 84.09647 
L 283.792572 85.926143 
L 280.033414 87.793652 
L 276.274257 89.699548 
L 272.515099 91.64438 
L 268.755941 93.628691 
L 264.996783 95.65302 
L 261.237625 97.717899 
L 257.478467 99.823853 
L 253.719309 101.971401 
L 249.960151 104.161049 
L 246.200993 106.393296 
L 242.441836 108.66863 
L 238.682678 110.987525 
L 234.92352 113.350443 
L 231.164362 115.75783 
L 227.405204 118.210116 
L 223.646046 120.707714 
L 219.886888 123.251017 
L 216.12773 125.840398 
L 212.368572 128.476208 
L 208.609414 131.158772 
L 204.850257 133.88839 
L 201.091099 136.665333 
L 197.331941 139.489841 
L 193.572783 142.362122 
L 189.813625 145.282347 
L 186.054467 148.25065 
L 182.295309 151.267122 
L 178.536151 154.33181 
L 174.776993 157.444712 
L 171.017836 160.605775 
L 167.258678 163.814887 
L 163.49952 167.071878 
L 159.740362 170.37651 
L 155.981204 173.728474 
L 152.222046 177.127384 
L 148.462888 180.572773 
L 144.70373 184.064081 
L 140.944572 187.600656 
L 137.185414 191.181741 
L 133.426257 194.806473 
L 129.667099 198.473872 
L 125.907941 202.18284 
L 122.148783 205.932158 
L 118.389625 209.720484 
L 114.630467 213.546356 
L 110.871309 217.408203 
L 107.112151 221.304364 
L 103.352993 225.233115 
L 99.593836 229.192713 
L 95.834678 233.181462 
L 92.07552 237.197811 
L 88.316362 241.240483 
L 84.557204 245.308662 
L 80.798046 249.402243 
L 77.038888 253.522182 
L 73.27973 257.671497 
L 69.520572 261.855326 
L 65.761414 266.081566 
L 62.002257 270.361638 
L 58.243099 274.711424 
L 54.483941 279.152399 
L 50.724783 283.712976 
L 46.965625 288.430125 
z
" clip-path="url(#p714bf1cc92)" style="fill: #377eb8"/>
   </g>
   <g id="PolyCollection_2">
    <path d="M 46.965625 288.430125 
L 46.965625 288.430125 
L 50.724783 283.712976 
L 54.483941 279.152399 
L 58.243099 274.711424 
L 62.002257 270.361638 
L 65.761414 266.081566 
L 69.520572 261.855326 
L 73.27973 257.671497 
L 77.038888 253.522182 
L 80.798046 249.402243 
L 84.557204 245.308662 
L 88.316362 241.240483 
L 92.07552 237.197811 
L 95.834678 233.181462 
L 99.593836 229.192713 
L 103.352993 225.233115 
L 107.112151 221.304364 
L 110.871309 217.408203 
L 114.630467 213.546356 
L 118.389625 209.720484 
L 122.148783 205.932158 
L 125.907941 202.18284 
L 129.667099 198.473872 
L 133.426257 194.806473 
L 137.185414 191.181741 
L 140.944572 187.600656 
L 144.70373 184.064081 
L 148.462888 180.572773 
L 152.222046 177.127384 
L 155.981204 173.728474 
L 159.740362 170.37651 
L 163.49952 167.071878 
L 167.258678 163.814887 
L 171.017836 160.605775 
L 174.776993 157.444712 
L 178.536151 154.33181 
L 182.295309 151.267122 
L 186.054467 148.25065 
L 189.813625 145.282347 
L 193.572783 142.362122 
L 197.331941 139.489841 
L 201.091099 136.665333 
L 204.850257 133.88839 
L 208.609414 131.158772 
L 212.368572 128.476208 
L 216.12773 125.840398 
L 219.886888 123.251017 
L 223.646046 120.707714 
L 227.405204 118.210116 
L 231.164362 115.75783 
L 234.92352 113.350443 
L 238.682678 110.987525 
L 242.441836 108.66863 
L 246.200993 106.393296 
L 249.960151 104.161049 
L 253.719309 101.971401 
L 257.478467 99.823853 
L 261.237625 97.717899 
L 264.996783 95.65302 
L 268.755941 93.628691 
L 272.515099 91.64438 
L 276.274257 89.699548 
L 280.033414 87.793652 
L 283.792572 85.926143 
L 287.55173 84.09647 
L 291.310888 82.304077 
L 295.070046 80.548407 
L 298.829204 78.828902 
L 302.588362 77.145001 
L 306.34752 75.496145 
L 310.106678 73.881772 
L 313.865836 72.301324 
L 317.624993 70.754243 
L 321.384151 69.23997 
L 325.143309 67.757953 
L 328.902467 66.307638 
L 332.661625 64.888476 
L 332.661625 64.888447 
L 332.661625 64.888447 
L 328.902467 66.307603 
L 325.143309 67.75791 
L 321.384151 69.239919 
L 317.624993 70.754181 
L 313.865836 72.301249 
L 310.106678 73.881681 
L 306.34752 75.496035 
L 302.588362 77.144868 
L 298.829204 78.828741 
L 295.070046 80.548213 
L 291.310888 82.303842 
L 287.55173 84.096185 
L 283.792572 85.925799 
L 280.033414 87.793236 
L 276.274257 89.699045 
L 272.515099 91.643772 
L 268.755941 93.627957 
L 264.996783 95.652133 
L 261.237625 97.716827 
L 257.478467 99.822559 
L 253.719309 101.969837 
L 249.960151 104.159161 
L 246.200993 106.391017 
L 242.441836 108.665879 
L 238.682678 110.984205 
L 234.92352 113.346436 
L 231.164362 115.752996 
L 227.405204 118.204286 
L 223.646046 120.700684 
L 219.886888 123.242544 
L 216.12773 125.830187 
L 212.368572 128.463907 
L 208.609414 131.143958 
L 204.850257 133.870556 
L 201.091099 136.643871 
L 197.331941 139.464023 
L 193.572783 142.331078 
L 189.813625 145.245035 
L 186.054467 148.205827 
L 182.295309 151.213303 
L 178.536151 154.267226 
L 174.776993 157.367257 
L 171.017836 160.512942 
L 167.258678 163.703702 
L 163.49952 166.938812 
L 159.740362 170.217385 
L 155.981204 173.538354 
L 152.222046 176.900449 
L 148.462888 180.302174 
L 144.70373 183.741785 
L 140.944572 187.21726 
L 137.185414 190.726284 
L 133.426257 194.266221 
L 129.667099 197.834098 
L 125.907941 201.426602 
L 122.148783 205.040076 
L 118.389625 208.670555 
L 114.630467 212.313813 
L 110.871309 215.965463 
L 107.112151 219.621118 
L 103.352993 223.276624 
L 99.593836 226.928427 
L 95.834678 230.574077 
L 92.07552 234.212952 
L 88.316362 237.847271 
L 84.557204 241.483465 
L 80.798046 245.13406 
L 77.038888 248.820202 
L 73.27973 252.592378 
L 69.520572 256.501934 
L 65.761414 260.617731 
L 62.002257 265.029898 
L 58.243099 269.853993 
L 54.483941 275.235475 
L 50.724783 281.354402 
L 46.965625 288.430125 
z
" clip-path="url(#p714bf1cc92)" style="fill: #e41a1c"/>
   </g>
   <g id="PolyCollection_3">
    <path d="M 46.965625 288.430125 
L 46.965625 288.430125 
L 50.724783 281.354402 
L 54.483941 275.235475 
L 58.243099 269.853993 
L 62.002257 265.029898 
L 65.761414 260.617731 
L 69.520572 256.501934 
L 73.27973 252.592378 
L 77.038888 248.820202 
L 80.798046 245.13406 
L 84.557204 241.483465 
L 88.316362 237.847271 
L 92.07552 234.212952 
L 95.834678 230.574077 
L 99.593836 226.928427 
L 103.352993 223.276624 
L 107.112151 219.621118 
L 110.871309 215.965463 
L 114.630467 212.313813 
L 118.389625 208.670555 
L 122.148783 205.040076 
L 125.907941 201.426602 
L 129.667099 197.834098 
L 133.426257 194.266221 
L 137.185414 190.726284 
L 140.944572 187.21726 
L 144.70373 183.741785 
L 148.462888 180.302174 
L 152.222046 176.900449 
L 155.981204 173.538354 
L 159.740362 170.217385 
L 163.49952 166.938812 
L 167.258678 163.703702 
L 171.017836 160.512942 
L 174.776993 157.367257 
L 178.536151 154.267226 
L 182.295309 151.213303 
L 186.054467 148.205827 
L 189.813625 145.245035 
L 193.572783 142.331078 
L 197.331941 139.464023 
L 201.091099 136.643871 
L 204.850257 133.870556 
L 208.609414 131.143958 
L 212.368572 128.463907 
L 216.12773 125.830187 
L 219.886888 123.242544 
L 223.646046 120.700684 
L 227.405204 118.204286 
L 231.164362 115.752996 
L 234.92352 113.346436 
L 238.682678 110.984205 
L 242.441836 108.665879 
L 246.200993 106.391017 
L 249.960151 104.159161 
L 253.719309 101.969837 
L 257.478467 99.822559 
L 261.237625 97.716827 
L 264.996783 95.652133 
L 268.755941 93.627957 
L 272.515099 91.643772 
L 276.274257 89.699045 
L 280.033414 87.793236 
L 283.792572 85.925799 
L 287.55173 84.096185 
L 291.310888 82.303842 
L 295.070046 80.548213 
L 298.829204 78.828741 
L 302.588362 77.144868 
L 306.34752 75.496035 
L 310.106678 73.881681 
L 313.865836 72.301249 
L 317.624993 70.754181 
L 321.384151 69.239919 
L 325.143309 67.75791 
L 328.902467 66.307603 
L 332.661625 64.888447 
L 332.661625 47.058696 
L 332.661625 47.058696 
L 328.902467 48.126837 
L 325.143309 49.222365 
L 321.384151 50.345983 
L 317.624993 51.498412 
L 313.865836 52.68039 
L 310.106678 53.892674 
L 306.34752 55.136043 
L 302.588362 56.411292 
L 298.829204 57.719239 
L 295.070046 59.060722 
L 291.310888 60.436601 
L 287.55173 61.847758 
L 283.792572 63.295097 
L 280.033414 64.779545 
L 276.274257 66.302054 
L 272.515099 67.863599 
L 268.755941 69.46518 
L 264.996783 71.107824 
L 261.237625 72.792581 
L 257.478467 74.520532 
L 253.719309 76.292783 
L 249.960151 78.110467 
L 246.200993 79.974749 
L 242.441836 81.886821 
L 238.682678 83.847906 
L 234.92352 85.859257 
L 231.164362 87.92216 
L 227.405204 90.037933 
L 223.646046 92.207925 
L 219.886888 94.433521 
L 216.12773 96.71614 
L 212.368572 99.057233 
L 208.609414 101.45829 
L 204.850257 103.920835 
L 201.091099 106.446429 
L 197.331941 109.036671 
L 193.572783 111.693194 
L 189.813625 114.417673 
L 186.054467 117.211818 
L 182.295309 120.077377 
L 178.536151 123.016136 
L 174.776993 126.029918 
L 171.017836 129.120582 
L 167.258678 132.290023 
L 163.49952 135.54017 
L 159.740362 138.872987 
L 155.981204 142.290466 
L 152.222046 145.794628 
L 148.462888 149.387521 
L 144.70373 153.071214 
L 140.944572 156.847794 
L 137.185414 160.719362 
L 133.426257 164.688026 
L 129.667099 168.755899 
L 125.907941 172.925091 
L 122.148783 177.197701 
L 118.389625 181.575819 
L 114.630467 186.061513 
L 110.871309 190.656835 
L 107.112151 195.36382 
L 103.352993 200.18449 
L 99.593836 205.120874 
L 95.834678 210.175036 
L 92.07552 215.349112 
L 88.316362 220.645387 
L 84.557204 226.066386 
L 80.798046 231.615028 
L 77.038888 237.294819 
L 73.27973 243.110575 
L 69.520572 249.068421 
L 65.761414 255.1762 
L 62.002257 261.443976 
L 58.243099 267.884626 
L 54.483941 274.514536 
L 50.724783 281.354402 
L 46.965625 288.430125 
z
" clip-path="url(#p714bf1cc92)" style="fill: #4daf4a"/>
   </g>
   <g id="matplotlib.axis_1">
    <g id="xtick_1">
     <g id="line2d_1">
      <defs>
       <path id="m8c46e98a7b" d="M 0 0 
L 0 3.5 
" style="stroke: #000000; stroke-width: 0.8"/>
      </defs>
      <g>
       <use xlink:href="#m8c46e98a7b" x="69.520572" y="288.430125" style="stroke: #000000; stroke-width: 0.8"/>
      </g>
     </g>
     <g id="text_1">
      <!-- 2017.5 -->
      <g transform="translate(52.02526 303.028562) scale(0.1 -0.1)">
       <defs>
        <path id="DejaVuSans-32" d="M 1228 531 
L 3431 531 
L 3431 0 
L 469 0 
L 469 531 
Q 828 903 1448 1529 
Q 2069 2156 2228 2338 
Q 2531 2678 2651 2914 
Q 2772 3150 2772 3378 
Q 2772 3750 2511 3984 
Q 2250 4219 1831 4219 
Q 1534 4219 1204 4116 
Q 875 4013 500 3803 
L 500 4441 
Q 881 4594 1212 4672 
Q 1544 4750 1819 4750 
Q 2544 4750 2975 4387 
Q 3406 4025 3406 3419 
Q 3406 3131 3298 2873 
Q 3191 2616 2906 2266 
Q 2828 2175 2409 1742 
Q 1991 1309 1228 531 
z
" transform="scale(0.015625)"/>
        <path id="DejaVuSans-30" d="M 2034 4250 
Q 1547 4250 1301 3770 
Q 1056 3291 1056 2328 
Q 1056 1369 1301 889 
Q 1547 409 2034 409 
Q 2525 409 2770 889 
Q 3016 1369 3016 2328 
Q 3016 3291 2770 3770 
Q 2525 4250 2034 4250 
z
M 2034 4750 
Q 2819 4750 3233 4129 
Q 3647 3509 3647 2328 
Q 3647 1150 3233 529 
Q 2819 -91 2034 -91 
Q 1250 -91 836 529 
Q 422 1150 422 2328 
Q 422 3509 836 4129 
Q 1250 4750 2034 4750 
z
" transform="scale(0.015625)"/>
        <path id="DejaVuSans-31" d="M 794 531 
L 1825 531 
L 1825 4091 
L 703 3866 
L 703 4441 
L 1819 4666 
L 2450 4666 
L 2450 531 
L 3481 531 
L 3481 0 
L 794 0 
L 794 531 
z
" transform="scale(0.015625)"/>
        <path id="DejaVuSans-37" d="M 525 4666 
L 3525 4666 
L 3525 4397 
L 1831 0 
L 1172 0 
L 2766 4134 
L 525 4134 
L 525 4666 
z
" transform="scale(0.015625)"/>
        <path id="DejaVuSans-2e" d="M 684 794 
L 1344 794 
L 1344 0 
L 684 0 
L 684 794 
z
" transform="scale(0.015625)"/>
        <path id="DejaVuSans-35" d="M 691 4666 
L 3169 4666 
L 3169 4134 
L 1269 4134 
L 1269 2991 
Q 1406 3038 1543 3061 
Q 1681 3084 1819 3084 
Q 2600 3084 3056 2656 
Q 3513 2228 3513 1497 
Q 3513 744 3044 326 
Q 2575 -91 1722 -91 
Q 1428 -91 1123 -41 
Q 819 9 494 109 
L 494 744 
Q 775 591 1075 516 
Q 1375 441 1709 441 
Q 2250 441 2565 725 
Q 2881 1009 2881 1497 
Q 2881 1984 2565 2268 
Q 2250 2553 1709 2553 
Q 1456 2553 1204 2497 
Q 953 2441 691 2322 
L 691 4666 
z
" transform="scale(0.015625)"/>
       </defs>
       <use xlink:href="#DejaVuSans-32"/>
       <use xlink:href="#DejaVuSans-30" x="63.623047"/>
       <use xlink:href="#DejaVuSans-31" x="127.246094"/>
       <use xlink:href="#DejaVuSans-37" x="190.869141"/>
       <use xlink:href="#DejaVuSans-2e" x="254.492188"/>
       <use xlink:href="#DejaVuSans-35" x="286.279297"/>
      </g>
     </g>
    </g>
    <g id="xtick_2">
     <g id="line2d_2">
      <g>
       <use xlink:href="#m8c46e98a7b" x="107.112151" y="288.430125" style="stroke: #000000; stroke-width: 0.8"/>
      </g>
     </g>
     <g id="text_2">
      <!-- 2020.0 -->
      <g transform="translate(89.616839 303.028562) scale(0.1 -0.1)">
       <use xlink:href="#DejaVuSans-32"/>
       <use xlink:href="#DejaVuSans-30" x="63.623047"/>
       <use xlink:href="#DejaVuSans-32" x="127.246094"/>
       <use xlink:href="#DejaVuSans-30" x="190.869141"/>
       <use xlink:href="#DejaVuSans-2e" x="254.492188"/>
       <use xlink:href="#DejaVuSans-30" x="286.279297"/>
      </g>
     </g>
    </g>
    <g id="xtick_3">
     <g id="line2d_3">
      <g>
       <use xlink:href="#m8c46e98a7b" x="144.70373" y="288.430125" style="stroke: #000000; stroke-width: 0.8"/>
      </g>
     </g>
     <g id="text_3">
      <!-- 2022.5 -->
      <g transform="translate(127.208418 303.028562) scale(0.1 -0.1)">
       <use xlink:href="#DejaVuSans-32"/>
       <use xlink:href="#DejaVuSans-30" x="63.623047"/>
       <use xlink:href="#DejaVuSans-32" x="127.246094"/>
       <use xlink:href="#DejaVuSans-32" x="190.869141"/>
       <use xlink:href="#DejaVuSans-2e" x="254.492188"/>
       <use xlink:href="#DejaVuSans-35" x="286.279297"/>
      </g>
     </g>
    </g>
    <g id="xtick_4">
     <g id="line2d_4">
      <g>
       <use xlink:href="#m8c46e98a7b" x="182.295309" y="288.430125" style="stroke: #000000; stroke-width: 0.8"/>
      </g>
     </g>
     <g id="text_4">
      <!-- 2025.0 -->
      <g transform="translate(164.799997 303.028562) scale(0.1 -0.1)">
       <use xlink:href="#DejaVuSans-32"/>
       <use xlink:href="#DejaVuSans-30" x="63.623047"/>
       <use xlink:href="#DejaVuSans-32" x="127.246094"/>
       <use xlink:href="#DejaVuSans-35" x="190.869141"/>
       <use xlink:href="#DejaVuSans-2e" x="254.492188"/>
       <use xlink:href="#DejaVuSans-30" x="286.279297"/>
      </g>
     </g>
    </g>
    <g id="xtick_5">
     <g id="line2d_5">
      <g>
       <use xlink:href="#m8c46e98a7b" x="219.886888" y="288.430125" style="stroke: #000000; stroke-width: 0.8"/>
      </g>
     </g>
     <g id="text_5">
      <!-- 2027.5 -->
      <g transform="translate(202.391576 303.028562) scale(0.1 -0.1)">
       <use xlink:href="#DejaVuSans-32"/>
       <use xlink:href="#DejaVuSans-30" x="63.623047"/>
       <use xlink:href="#DejaVuSans-32" x="127.246094"/>
       <use xlink:href="#DejaVuSans-37" x="190.869141"/>
       <use xlink:href="#DejaVuSans-2e" x="254.492188"/>
       <use xlink:href="#DejaVuSans-35" x="286.279297"/>
      </g>
     </g>
    </g>
    <g id="xtick_6">
     <g id="line2d_6">
      <g>
       <use xlink:href="#m8c46e98a7b" x="257.478467" y="288.430125" style="stroke: #000000; stroke-width: 0.8"/>
      </g>
     </g>
     <g id="text_6">
      <!-- 2030.0 -->
      <g transform="translate(239.983155 303.028562) scale(0.1 -0.1)">
       <defs>
        <path id="DejaVuSans-33" d="M 2597 2516 
Q 3050 2419 3304 2112 
Q 3559 1806 3559 1356 
Q 3559 666 3084 287 
Q 2609 -91 1734 -91 
Q 1441 -91 1130 -33 
Q 819 25 488 141 
L 488 750 
Q 750 597 1062 519 
Q 1375 441 1716 441 
Q 2309 441 2620 675 
Q 2931 909 2931 1356 
Q 2931 1769 2642 2001 
Q 2353 2234 1838 2234 
L 1294 2234 
L 1294 2753 
L 1863 2753 
Q 2328 2753 2575 2939 
Q 2822 3125 2822 3475 
Q 2822 3834 2567 4026 
Q 2313 4219 1838 4219 
Q 1578 4219 1281 4162 
Q 984 4106 628 3988 
L 628 4550 
Q 988 4650 1302 4700 
Q 1616 4750 1894 4750 
Q 2613 4750 3031 4423 
Q 3450 4097 3450 3541 
Q 3450 3153 3228 2886 
Q 3006 2619 2597 2516 
z
" transform="scale(0.015625)"/>
       </defs>
       <use xlink:href="#DejaVuSans-32"/>
       <use xlink:href="#DejaVuSans-30" x="63.623047"/>
       <use xlink:href="#DejaVuSans-33" x="127.246094"/>
       <use xlink:href="#DejaVuSans-30" x="190.869141"/>
       <use xlink:href="#DejaVuSans-2e" x="254.492188"/>
       <use xlink:href="#DejaVuSans-30" x="286.279297"/>
      </g>
     </g>
    </g>
    <g id="xtick_7">
     <g id="line2d_7">
      <g>
       <use xlink:href="#m8c46e98a7b" x="295.070046" y="288.430125" style="stroke: #000000; stroke-width: 0.8"/>
      </g>
     </g>
     <g id="text_7">
      <!-- 2032.5 -->
      <g transform="translate(277.574734 303.028562) scale(0.1 -0.1)">
       <use xlink:href="#DejaVuSans-32"/>
       <use xlink:href="#DejaVuSans-30" x="63.623047"/>
       <use xlink:href="#DejaVuSans-33" x="127.246094"/>
       <use xlink:href="#DejaVuSans-32" x="190.869141"/>
       <use xlink:href="#DejaVuSans-2e" x="254.492188"/>
       <use xlink:href="#DejaVuSans-35" x="286.279297"/>
      </g>
     </g>
    </g>
    <g id="xtick_8">
     <g id="line2d_8">
      <g>
       <use xlink:href="#m8c46e98a7b" x="332.661625" y="288.430125" style="stroke: #000000; stroke-width: 0.8"/>
      </g>
     </g>
     <g id="text_8">
      <!-- 2035.0 -->
      <g transform="translate(315.166313 303.028562) scale(0.1 -0.1)">
       <use xlink:href="#DejaVuSans-32"/>
       <use xlink:href="#DejaVuSans-30" x="63.623047"/>
       <use xlink:href="#DejaVuSans-33" x="127.246094"/>
       <use xlink:href="#DejaVuSans-35" x="190.869141"/>
       <use xlink:href="#DejaVuSans-2e" x="254.492188"/>
       <use xlink:href="#DejaVuSans-30" x="286.279297"/>
      </g>
     </g>
    </g>
    <g id="text_9">
     <!-- Year -->
     <g transform="translate(179.226125 316.706687) scale(0.1 -0.1)">
      <defs>
       <path id="DejaVuSans-59" d="M -13 4666 
L 666 4666 
L 1959 2747 
L 3244 4666 
L 3922 4666 
L 2272 2222 
L 2272 0 
L 1638 0 
L 1638 2222 
L -13 4666 
z
" transform="scale(0.015625)"/>
       <path id="DejaVuSans-65" d="M 3597 1894 
L 3597 1613 
L 953 1613 
Q 991 1019 1311 708 
Q 1631 397 2203 397 
Q 2534 397 2845 478 
Q 3156 559 3463 722 
L 3463 178 
Q 3153 47 2828 -22 
Q 2503 -91 2169 -91 
Q 1331 -91 842 396 
Q 353 884 353 1716 
Q 353 2575 817 3079 
Q 1281 3584 2069 3584 
Q 2775 3584 3186 3129 
Q 3597 2675 3597 1894 
z
M 3022 2063 
Q 3016 2534 2758 2815 
Q 2500 3097 2075 3097 
Q 1594 3097 1305 2825 
Q 1016 2553 972 2059 
L 3022 2063 
z
" transform="scale(0.015625)"/>
       <path id="DejaVuSans-61" d="M 2194 1759 
Q 1497 1759 1228 1600 
Q 959 1441 959 1056 
Q 959 750 1161 570 
Q 1363 391 1709 391 
Q 2188 391 2477 730 
Q 2766 1069 2766 1631 
L 2766 1759 
L 2194 1759 
z
M 3341 1997 
L 3341 0 
L 2766 0 
L 2766 531 
Q 2569 213 2275 61 
Q 1981 -91 1556 -91 
Q 1019 -91 701 211 
Q 384 513 384 1019 
Q 384 1609 779 1909 
Q 1175 2209 1959 2209 
L 2766 2209 
L 2766 2266 
Q 2766 2663 2505 2880 
Q 2244 3097 1772 3097 
Q 1472 3097 1187 3025 
Q 903 2953 641 2809 
L 641 3341 
Q 956 3463 1253 3523 
Q 1550 3584 1831 3584 
Q 2591 3584 2966 3190 
Q 3341 2797 3341 1997 
z
" transform="scale(0.015625)"/>
       <path id="DejaVuSans-72" d="M 2631 2963 
Q 2534 3019 2420 3045 
Q 2306 3072 2169 3072 
Q 1681 3072 1420 2755 
Q 1159 2438 1159 1844 
L 1159 0 
L 581 0 
L 581 3500 
L 1159 3500 
L 1159 2956 
Q 1341 3275 1631 3429 
Q 1922 3584 2338 3584 
Q 2397 3584 2469 3576 
Q 2541 3569 2628 3553 
L 2631 2963 
z
" transform="scale(0.015625)"/>
      </defs>
      <use xlink:href="#DejaVuSans-59"/>
      <use xlink:href="#DejaVuSans-65" x="47.833984"/>
      <use xlink:href="#DejaVuSans-61" x="109.357422"/>
      <use xlink:href="#DejaVuSans-72" x="170.636719"/>
     </g>
    </g>
   </g>
   <g id="matplotlib.axis_2">
    <g id="ytick_1">
     <g id="line2d_9">
      <defs>
       <path id="m5bfdf5d3ce" d="M 0 0 
L -3.5 0 
" style="stroke: #000000; stroke-width: 0.8"/>
      </defs>
      <g>
       <use xlink:href="#m5bfdf5d3ce" x="46.965625" y="288.430125" style="stroke: #000000; stroke-width: 0.8"/>
      </g>
     </g>
     <g id="text_10">
      <!-- 0 -->
      <g transform="translate(33.603125 292.229344) scale(0.1 -0.1)">
       <use xlink:href="#DejaVuSans-30"/>
      </g>
     </g>
    </g>
    <g id="ytick_2">
     <g id="line2d_10">
      <g>
       <use xlink:href="#m5bfdf5d3ce" x="46.965625" y="231.82434" style="stroke: #000000; stroke-width: 0.8"/>
      </g>
     </g>
     <g id="text_11">
      <!-- 200 -->
      <g transform="translate(20.878125 235.623558) scale(0.1 -0.1)">
       <use xlink:href="#DejaVuSans-32"/>
       <use xlink:href="#DejaVuSans-30" x="63.623047"/>
       <use xlink:href="#DejaVuSans-30" x="127.246094"/>
      </g>
     </g>
    </g>
    <g id="ytick_3">
     <g id="line2d_11">
      <g>
       <use xlink:href="#m5bfdf5d3ce" x="46.965625" y="175.218554" style="stroke: #000000; stroke-width: 0.8"/>
      </g>
     </g>
     <g id="text_12">
      <!-- 400 -->
      <g transform="translate(20.878125 179.017773) scale(0.1 -0.1)">
       <defs>
        <path id="DejaVuSans-34" d="M 2419 4116 
L 825 1625 
L 2419 1625 
L 2419 4116 
z
M 2253 4666 
L 3047 4666 
L 3047 1625 
L 3713 1625 
L 3713 1100 
L 3047 1100 
L 3047 0 
L 2419 0 
L 2419 1100 
L 313 1100 
L 313 1709 
L 2253 4666 
z
" transform="scale(0.015625)"/>
       </defs>
       <use xlink:href="#DejaVuSans-34"/>
       <use xlink:href="#DejaVuSans-30" x="63.623047"/>
       <use xlink:href="#DejaVuSans-30" x="127.246094"/>
      </g>
     </g>
    </g>
    <g id="ytick_4">
     <g id="line2d_12">
      <g>
       <use xlink:href="#m5bfdf5d3ce" x="46.965625" y="118.612769" style="stroke: #000000; stroke-width: 0.8"/>
      </g>
     </g>
     <g id="text_13">
      <!-- 600 -->
      <g transform="translate(20.878125 122.411988) scale(0.1 -0.1)">
       <defs>
        <path id="DejaVuSans-36" d="M 2113 2584 
Q 1688 2584 1439 2293 
Q 1191 2003 1191 1497 
Q 1191 994 1439 701 
Q 1688 409 2113 409 
Q 2538 409 2786 701 
Q 3034 994 3034 1497 
Q 3034 2003 2786 2293 
Q 2538 2584 2113 2584 
z
M 3366 4563 
L 3366 3988 
Q 3128 4100 2886 4159 
Q 2644 4219 2406 4219 
Q 1781 4219 1451 3797 
Q 1122 3375 1075 2522 
Q 1259 2794 1537 2939 
Q 1816 3084 2150 3084 
Q 2853 3084 3261 2657 
Q 3669 2231 3669 1497 
Q 3669 778 3244 343 
Q 2819 -91 2113 -91 
Q 1303 -91 875 529 
Q 447 1150 447 2328 
Q 447 3434 972 4092 
Q 1497 4750 2381 4750 
Q 2619 4750 2861 4703 
Q 3103 4656 3366 4563 
z
" transform="scale(0.015625)"/>
       </defs>
       <use xlink:href="#DejaVuSans-36"/>
       <use xlink:href="#DejaVuSans-30" x="63.623047"/>
       <use xlink:href="#DejaVuSans-30" x="127.246094"/>
      </g>
     </g>
    </g>
    <g id="ytick_5">
     <g id="line2d_13">
      <g>
       <use xlink:href="#m5bfdf5d3ce" x="46.965625" y="62.006984" style="stroke: #000000; stroke-width: 0.8"/>
      </g>
     </g>
     <g id="text_14">
      <!-- 800 -->
      <g transform="translate(20.878125 65.806202) scale(0.1 -0.1)">
       <defs>
        <path id="DejaVuSans-38" d="M 2034 2216 
Q 1584 2216 1326 1975 
Q 1069 1734 1069 1313 
Q 1069 891 1326 650 
Q 1584 409 2034 409 
Q 2484 409 2743 651 
Q 3003 894 3003 1313 
Q 3003 1734 2745 1975 
Q 2488 2216 2034 2216 
z
M 1403 2484 
Q 997 2584 770 2862 
Q 544 3141 544 3541 
Q 544 4100 942 4425 
Q 1341 4750 2034 4750 
Q 2731 4750 3128 4425 
Q 3525 4100 3525 3541 
Q 3525 3141 3298 2862 
Q 3072 2584 2669 2484 
Q 3125 2378 3379 2068 
Q 3634 1759 3634 1313 
Q 3634 634 3220 271 
Q 2806 -91 2034 -91 
Q 1263 -91 848 271 
Q 434 634 434 1313 
Q 434 1759 690 2068 
Q 947 2378 1403 2484 
z
M 1172 3481 
Q 1172 3119 1398 2916 
Q 1625 2713 2034 2713 
Q 2441 2713 2670 2916 
Q 2900 3119 2900 3481 
Q 2900 3844 2670 4047 
Q 2441 4250 2034 4250 
Q 1625 4250 1398 4047 
Q 1172 3844 1172 3481 
z
" transform="scale(0.015625)"/>
       </defs>
       <use xlink:href="#DejaVuSans-38"/>
       <use xlink:href="#DejaVuSans-30" x="63.623047"/>
       <use xlink:href="#DejaVuSans-30" x="127.246094"/>
      </g>
     </g>
    </g>
    <g id="text_15">
     <!-- Number of people -->
     <g transform="translate(14.798438 200.407719) rotate(-90) scale(0.1 -0.1)">
      <defs>
       <path id="DejaVuSans-4e" d="M 628 4666 
L 1478 4666 
L 3547 763 
L 3547 4666 
L 4159 4666 
L 4159 0 
L 3309 0 
L 1241 3903 
L 1241 0 
L 628 0 
L 628 4666 
z
" transform="scale(0.015625)"/>
       <path id="DejaVuSans-75" d="M 544 1381 
L 544 3500 
L 1119 3500 
L 1119 1403 
Q 1119 906 1312 657 
Q 1506 409 1894 409 
Q 2359 409 2629 706 
Q 2900 1003 2900 1516 
L 2900 3500 
L 3475 3500 
L 3475 0 
L 2900 0 
L 2900 538 
Q 2691 219 2414 64 
Q 2138 -91 1772 -91 
Q 1169 -91 856 284 
Q 544 659 544 1381 
z
M 1991 3584 
L 1991 3584 
z
" transform="scale(0.015625)"/>
       <path id="DejaVuSans-6d" d="M 3328 2828 
Q 3544 3216 3844 3400 
Q 4144 3584 4550 3584 
Q 5097 3584 5394 3201 
Q 5691 2819 5691 2113 
L 5691 0 
L 5113 0 
L 5113 2094 
Q 5113 2597 4934 2840 
Q 4756 3084 4391 3084 
Q 3944 3084 3684 2787 
Q 3425 2491 3425 1978 
L 3425 0 
L 2847 0 
L 2847 2094 
Q 2847 2600 2669 2842 
Q 2491 3084 2119 3084 
Q 1678 3084 1418 2786 
Q 1159 2488 1159 1978 
L 1159 0 
L 581 0 
L 581 3500 
L 1159 3500 
L 1159 2956 
Q 1356 3278 1631 3431 
Q 1906 3584 2284 3584 
Q 2666 3584 2933 3390 
Q 3200 3197 3328 2828 
z
" transform="scale(0.015625)"/>
       <path id="DejaVuSans-62" d="M 3116 1747 
Q 3116 2381 2855 2742 
Q 2594 3103 2138 3103 
Q 1681 3103 1420 2742 
Q 1159 2381 1159 1747 
Q 1159 1113 1420 752 
Q 1681 391 2138 391 
Q 2594 391 2855 752 
Q 3116 1113 3116 1747 
z
M 1159 2969 
Q 1341 3281 1617 3432 
Q 1894 3584 2278 3584 
Q 2916 3584 3314 3078 
Q 3713 2572 3713 1747 
Q 3713 922 3314 415 
Q 2916 -91 2278 -91 
Q 1894 -91 1617 61 
Q 1341 213 1159 525 
L 1159 0 
L 581 0 
L 581 4863 
L 1159 4863 
L 1159 2969 
z
" transform="scale(0.015625)"/>
       <path id="DejaVuSans-20" transform="scale(0.015625)"/>
       <path id="DejaVuSans-6f" d="M 1959 3097 
Q 1497 3097 1228 2736 
Q 959 2375 959 1747 
Q 959 1119 1226 758 
Q 1494 397 1959 397 
Q 2419 397 2687 759 
Q 2956 1122 2956 1747 
Q 2956 2369 2687 2733 
Q 2419 3097 1959 3097 
z
M 1959 3584 
Q 2709 3584 3137 3096 
Q 3566 2609 3566 1747 
Q 3566 888 3137 398 
Q 2709 -91 1959 -91 
Q 1206 -91 779 398 
Q 353 888 353 1747 
Q 353 2609 779 3096 
Q 1206 3584 1959 3584 
z
" transform="scale(0.015625)"/>
       <path id="DejaVuSans-66" d="M 2375 4863 
L 2375 4384 
L 1825 4384 
Q 1516 4384 1395 4259 
Q 1275 4134 1275 3809 
L 1275 3500 
L 2222 3500 
L 2222 3053 
L 1275 3053 
L 1275 0 
L 697 0 
L 697 3053 
L 147 3053 
L 147 3500 
L 697 3500 
L 697 3744 
Q 697 4328 969 4595 
Q 1241 4863 1831 4863 
L 2375 4863 
z
" transform="scale(0.015625)"/>
       <path id="DejaVuSans-70" d="M 1159 525 
L 1159 -1331 
L 581 -1331 
L 581 3500 
L 1159 3500 
L 1159 2969 
Q 1341 3281 1617 3432 
Q 1894 3584 2278 3584 
Q 2916 3584 3314 3078 
Q 3713 2572 3713 1747 
Q 3713 922 3314 415 
Q 2916 -91 2278 -91 
Q 1894 -91 1617 61 
Q 1341 213 1159 525 
z
M 3116 1747 
Q 3116 2381 2855 2742 
Q 2594 3103 2138 3103 
Q 1681 3103 1420 2742 
Q 1159 2381 1159 1747 
Q 1159 1113 1420 752 
Q 1681 391 2138 391 
Q 2594 391 2855 752 
Q 3116 1113 3116 1747 
z
" transform="scale(0.015625)"/>
       <path id="DejaVuSans-6c" d="M 603 4863 
L 1178 4863 
L 1178 0 
L 603 0 
L 603 4863 
z
" transform="scale(0.015625)"/>
      </defs>
      <use xlink:href="#DejaVuSans-4e"/>
      <use xlink:href="#DejaVuSans-75" x="74.804688"/>
      <use xlink:href="#DejaVuSans-6d" x="138.183594"/>
      <use xlink:href="#DejaVuSans-62" x="235.595703"/>
      <use xlink:href="#DejaVuSans-65" x="299.072266"/>
      <use xlink:href="#DejaVuSans-72" x="360.595703"/>
      <use xlink:href="#DejaVuSans-20" x="401.708984"/>
      <use xlink:href="#DejaVuSans-6f" x="433.496094"/>
      <use xlink:href="#DejaVuSans-66" x="494.677734"/>
      <use xlink:href="#DejaVuSans-20" x="529.882812"/>
      <use xlink:href="#DejaVuSans-70" x="561.669922"/>
      <use xlink:href="#DejaVuSans-65" x="625.146484"/>
      <use xlink:href="#DejaVuSans-6f" x="686.669922"/>
      <use xlink:href="#DejaVuSans-70" x="747.851562"/>
      <use xlink:href="#DejaVuSans-6c" x="811.328125"/>
      <use xlink:href="#DejaVuSans-65" x="839.111328"/>
     </g>
    </g>
   </g>
   <g id="patch_3">
    <path d="M 46.965625 288.430125 
L 46.965625 22.318125 
" style="fill: none; stroke: #000000; stroke-width: 0.8; stroke-linejoin: miter; stroke-linecap: square"/>
   </g>
   <g id="patch_4">
    <path d="M 332.661625 288.430125 
L 332.661625 22.318125 
" style="fill: none"/>
   </g>
   <g id="patch_5">
    <path d="M 46.965625 288.430125 
L 332.661625 288.430125 
" style="fill: none; stroke: #000000; stroke-width: 0.8; stroke-linejoin: miter; stroke-linecap: square"/>
   </g>
   <g id="patch_6">
    <path d="M 46.965625 22.318125 
L 332.661625 22.318125 
" style="fill: none"/>
   </g>
   <g id="text_16">
    <!-- parset_default-Prisoners -->
    <g transform="translate(116.8855 16.318125) scale(0.12 -0.12)">
     <defs>
      <path id="DejaVuSans-73" d="M 2834 3397 
L 2834 2853 
Q 2591 2978 2328 3040 
Q 2066 3103 1784 3103 
Q 1356 3103 1142 2972 
Q 928 2841 928 2578 
Q 928 2378 1081 2264 
Q 1234 2150 1697 2047 
L 1894 2003 
Q 2506 1872 2764 1633 
Q 3022 1394 3022 966 
Q 3022 478 2636 193 
Q 2250 -91 1575 -91 
Q 1294 -91 989 -36 
Q 684 19 347 128 
L 347 722 
Q 666 556 975 473 
Q 1284 391 1588 391 
Q 1994 391 2212 530 
Q 2431 669 2431 922 
Q 2431 1156 2273 1281 
Q 2116 1406 1581 1522 
L 1381 1569 
Q 847 1681 609 1914 
Q 372 2147 372 2553 
Q 372 3047 722 3315 
Q 1072 3584 1716 3584 
Q 2034 3584 2315 3537 
Q 2597 3491 2834 3397 
z
" transform="scale(0.015625)"/>
      <path id="DejaVuSans-74" d="M 1172 4494 
L 1172 3500 
L 2356 3500 
L 2356 3053 
L 1172 3053 
L 1172 1153 
Q 1172 725 1289 603 
Q 1406 481 1766 481 
L 2356 481 
L 2356 0 
L 1766 0 
Q 1100 0 847 248 
Q 594 497 594 1153 
L 594 3053 
L 172 3053 
L 172 3500 
L 594 3500 
L 594 4494 
L 1172 4494 
z
" transform="scale(0.015625)"/>
      <path id="DejaVuSans-5f" d="M 3263 -1063 
L 3263 -1509 
L -63 -1509 
L -63 -1063 
L 3263 -1063 
z
" transform="scale(0.015625)"/>
      <path id="DejaVuSans-64" d="M 2906 2969 
L 2906 4863 
L 3481 4863 
L 3481 0 
L 2906 0 
L 2906 525 
Q 2725 213 2448 61 
Q 2172 -91 1784 -91 
Q 1150 -91 751 415 
Q 353 922 353 1747 
Q 353 2572 751 3078 
Q 1150 3584 1784 3584 
Q 2172 3584 2448 3432 
Q 2725 3281 2906 2969 
z
M 947 1747 
Q 947 1113 1208 752 
Q 1469 391 1925 391 
Q 2381 391 2643 752 
Q 2906 1113 2906 1747 
Q 2906 2381 2643 2742 
Q 2381 3103 1925 3103 
Q 1469 3103 1208 2742 
Q 947 2381 947 1747 
z
" transform="scale(0.015625)"/>
      <path id="DejaVuSans-2d" d="M 313 2009 
L 1997 2009 
L 1997 1497 
L 313 1497 
L 313 2009 
z
" transform="scale(0.015625)"/>
      <path id="DejaVuSans-50" d="M 1259 4147 
L 1259 2394 
L 2053 2394 
Q 2494 2394 2734 2622 
Q 2975 2850 2975 3272 
Q 2975 3691 2734 3919 
Q 2494 4147 2053 4147 
L 1259 4147 
z
M 628 4666 
L 2053 4666 
Q 2838 4666 3239 4311 
Q 3641 3956 3641 3272 
Q 3641 2581 3239 2228 
Q 2838 1875 2053 1875 
L 1259 1875 
L 1259 0 
L 628 0 
L 628 4666 
z
" transform="scale(0.015625)"/>
      <path id="DejaVuSans-69" d="M 603 3500 
L 1178 3500 
L 1178 0 
L 603 0 
L 603 3500 
z
M 603 4863 
L 1178 4863 
L 1178 4134 
L 603 4134 
L 603 4863 
z
" transform="scale(0.015625)"/>
      <path id="DejaVuSans-6e" d="M 3513 2113 
L 3513 0 
L 2938 0 
L 2938 2094 
Q 2938 2591 2744 2837 
Q 2550 3084 2163 3084 
Q 1697 3084 1428 2787 
Q 1159 2491 1159 1978 
L 1159 0 
L 581 0 
L 581 3500 
L 1159 3500 
L 1159 2956 
Q 1366 3272 1645 3428 
Q 1925 3584 2291 3584 
Q 2894 3584 3203 3211 
Q 3513 2838 3513 2113 
z
" transform="scale(0.015625)"/>
     </defs>
     <use xlink:href="#DejaVuSans-70"/>
     <use xlink:href="#DejaVuSans-61" x="63.476562"/>
     <use xlink:href="#DejaVuSans-72" x="124.755859"/>
     <use xlink:href="#DejaVuSans-73" x="165.869141"/>
     <use xlink:href="#DejaVuSans-65" x="217.96875"/>
     <use xlink:href="#DejaVuSans-74" x="279.492188"/>
     <use xlink:href="#DejaVuSans-5f" x="318.701172"/>
     <use xlink:href="#DejaVuSans-64" x="368.701172"/>
     <use xlink:href="#DejaVuSans-65" x="432.177734"/>
     <use xlink:href="#DejaVuSans-66" x="493.701172"/>
     <use xlink:href="#DejaVuSans-61" x="528.90625"/>
     <use xlink:href="#DejaVuSans-75" x="590.185547"/>
     <use xlink:href="#DejaVuSans-6c" x="653.564453"/>
     <use xlink:href="#DejaVuSans-74" x="681.347656"/>
     <use xlink:href="#DejaVuSans-2d" x="720.556641"/>
     <use xlink:href="#DejaVuSans-50" x="756.640625"/>
     <use xlink:href="#DejaVuSans-72" x="815.193359"/>
     <use xlink:href="#DejaVuSans-69" x="856.306641"/>
     <use xlink:href="#DejaVuSans-73" x="884.089844"/>
     <use xlink:href="#DejaVuSans-6f" x="936.189453"/>
     <use xlink:href="#DejaVuSans-6e" x="997.371094"/>
     <use xlink:href="#DejaVuSans-65" x="1060.75"/>
     <use xlink:href="#DejaVuSans-72" x="1122.273438"/>
     <use xlink:href="#DejaVuSans-73" x="1163.386719"/>
    </g>
   </g>
   <g id="legend_1">
    <g id="patch_7">
     <path d="M 353.946425 178.891312 
L 443.819863 178.891312 
Q 445.819863 178.891312 445.819863 176.891312 
L 445.819863 133.856937 
Q 445.819863 131.856937 443.819863 131.856937 
L 353.946425 131.856937 
Q 351.946425 131.856937 351.946425 133.856937 
L 351.946425 176.891312 
Q 351.946425 178.891312 353.946425 178.891312 
L 353.946425 178.891312 
z
" style="fill: none; opacity: 0"/>
    </g>
    <g id="patch_8">
     <path d="M 355.946425 143.455375 
L 375.946425 143.455375 
L 375.946425 136.455375 
L 355.946425 136.455375 
z
" style="fill: #4daf4a"/>
    </g>
    <g id="text_17">
     <!-- Recovered -->
     <g transform="translate(383.946425 143.455375) scale(0.1 -0.1)">
      <defs>
       <path id="DejaVuSans-52" d="M 2841 2188 
Q 3044 2119 3236 1894 
Q 3428 1669 3622 1275 
L 4263 0 
L 3584 0 
L 2988 1197 
Q 2756 1666 2539 1819 
Q 2322 1972 1947 1972 
L 1259 1972 
L 1259 0 
L 628 0 
L 628 4666 
L 2053 4666 
Q 2853 4666 3247 4331 
Q 3641 3997 3641 3322 
Q 3641 2881 3436 2590 
Q 3231 2300 2841 2188 
z
M 1259 4147 
L 1259 2491 
L 2053 2491 
Q 2509 2491 2742 2702 
Q 2975 2913 2975 3322 
Q 2975 3731 2742 3939 
Q 2509 4147 2053 4147 
L 1259 4147 
z
" transform="scale(0.015625)"/>
       <path id="DejaVuSans-63" d="M 3122 3366 
L 3122 2828 
Q 2878 2963 2633 3030 
Q 2388 3097 2138 3097 
Q 1578 3097 1268 2742 
Q 959 2388 959 1747 
Q 959 1106 1268 751 
Q 1578 397 2138 397 
Q 2388 397 2633 464 
Q 2878 531 3122 666 
L 3122 134 
Q 2881 22 2623 -34 
Q 2366 -91 2075 -91 
Q 1284 -91 818 406 
Q 353 903 353 1747 
Q 353 2603 823 3093 
Q 1294 3584 2113 3584 
Q 2378 3584 2631 3529 
Q 2884 3475 3122 3366 
z
" transform="scale(0.015625)"/>
       <path id="DejaVuSans-76" d="M 191 3500 
L 800 3500 
L 1894 563 
L 2988 3500 
L 3597 3500 
L 2284 0 
L 1503 0 
L 191 3500 
z
" transform="scale(0.015625)"/>
      </defs>
      <use xlink:href="#DejaVuSans-52"/>
      <use xlink:href="#DejaVuSans-65" x="64.982422"/>
      <use xlink:href="#DejaVuSans-63" x="126.505859"/>
      <use xlink:href="#DejaVuSans-6f" x="181.486328"/>
      <use xlink:href="#DejaVuSans-76" x="242.667969"/>
      <use xlink:href="#DejaVuSans-65" x="301.847656"/>
      <use xlink:href="#DejaVuSans-72" x="363.371094"/>
      <use xlink:href="#DejaVuSans-65" x="402.234375"/>
      <use xlink:href="#DejaVuSans-64" x="463.757812"/>
     </g>
    </g>
    <g id="patch_9">
     <path d="M 355.946425 158.1335 
L 375.946425 158.1335 
L 375.946425 151.1335 
L 355.946425 151.1335 
z
" style="fill: #e41a1c"/>
    </g>
    <g id="text_18">
     <!-- Infected -->
     <g transform="translate(383.946425 158.1335) scale(0.1 -0.1)">
      <defs>
       <path id="DejaVuSans-49" d="M 628 4666 
L 1259 4666 
L 1259 0 
L 628 0 
L 628 4666 
z
" transform="scale(0.015625)"/>
      </defs>
      <use xlink:href="#DejaVuSans-49"/>
      <use xlink:href="#DejaVuSans-6e" x="29.492188"/>
      <use xlink:href="#DejaVuSans-66" x="92.871094"/>
      <use xlink:href="#DejaVuSans-65" x="128.076172"/>
      <use xlink:href="#DejaVuSans-63" x="189.599609"/>
      <use xlink:href="#DejaVuSans-74" x="244.580078"/>
      <use xlink:href="#DejaVuSans-65" x="283.789062"/>
      <use xlink:href="#DejaVuSans-64" x="345.3125"/>
     </g>
    </g>
    <g id="patch_10">
     <path d="M 355.946425 172.811625 
L 375.946425 172.811625 
L 375.946425 165.811625 
L 355.946425 165.811625 
z
" style="fill: #377eb8"/>
    </g>
    <g id="text_19">
     <!-- Susceptible -->
     <g transform="translate(383.946425 172.811625) scale(0.1 -0.1)">
      <defs>
       <path id="DejaVuSans-53" d="M 3425 4513 
L 3425 3897 
Q 3066 4069 2747 4153 
Q 2428 4238 2131 4238 
Q 1616 4238 1336 4038 
Q 1056 3838 1056 3469 
Q 1056 3159 1242 3001 
Q 1428 2844 1947 2747 
L 2328 2669 
Q 3034 2534 3370 2195 
Q 3706 1856 3706 1288 
Q 3706 609 3251 259 
Q 2797 -91 1919 -91 
Q 1588 -91 1214 -16 
Q 841 59 441 206 
L 441 856 
Q 825 641 1194 531 
Q 1563 422 1919 422 
Q 2459 422 2753 634 
Q 3047 847 3047 1241 
Q 3047 1584 2836 1778 
Q 2625 1972 2144 2069 
L 1759 2144 
Q 1053 2284 737 2584 
Q 422 2884 422 3419 
Q 422 4038 858 4394 
Q 1294 4750 2059 4750 
Q 2388 4750 2728 4690 
Q 3069 4631 3425 4513 
z
" transform="scale(0.015625)"/>
      </defs>
      <use xlink:href="#DejaVuSans-53"/>
      <use xlink:href="#DejaVuSans-75" x="63.476562"/>
      <use xlink:href="#DejaVuSans-73" x="126.855469"/>
      <use xlink:href="#DejaVuSans-63" x="178.955078"/>
      <use xlink:href="#DejaVuSans-65" x="233.935547"/>
      <use xlink:href="#DejaVuSans-70" x="295.458984"/>
      <use xlink:href="#DejaVuSans-74" x="358.935547"/>
      <use xlink:href="#DejaVuSans-69" x="398.144531"/>
      <use xlink:href="#DejaVuSans-62" x="425.927734"/>
      <use xlink:href="#DejaVuSans-6c" x="489.404297"/>
      <use xlink:href="#DejaVuSans-65" x="517.1875"/>
     </g>
    </g>
   </g>
  </g>
 </g>
 <defs>
  <clipPath id="p714bf1cc92">
   <rect x="46.965625" y="22.318125" width="285.696" height="266.112"/>
  </clipPath>
 </defs>
</svg>
