<?xml version="1.0" encoding="utf-8" standalone="no"?>
<!DOCTYPE svg PUBLIC "-//W3C//DTD SVG 1.1//EN"
  "http://www.w3.org/Graphics/SVG/1.1/DTD/svg11.dtd">
<svg xmlns:xlink="http://www.w3.org/1999/xlink" width="403.97pt" height="297.190125pt" viewBox="0 0 403.97 297.190125" xmlns="http://www.w3.org/2000/svg" version="1.1">
 <metadata>
  <rdf:RDF xmlns:dc="http://purl.org/dc/elements/1.1/" xmlns:cc="http://creativecommons.org/ns#" xmlns:rdf="http://www.w3.org/1999/02/22-rdf-syntax-ns#">
   <cc:Work>
    <dc:type rdf:resource="http://purl.org/dc/dcmitype/StillImage"/>
    <dc:date>2026-01-28T00:00:15.530917</dc:date>
    <dc:format>image/svg+xml</dc:format>
    <dc:creator>
     <cc:Agent>
      <dc:title>Matplotlib v3.10.8, https://matplotlib.org/</dc:title>
     </cc:Agent>
    </dc:creator>
   </cc:Work>
  </rdf:RDF>
 </metadata>
 <defs>
  <style type="text/css">*{stroke-linejoin: round; stroke-linecap: butt}</style>
 </defs>
 <g id="figure_1">
  <g id="patch_1">
   <path d="M 0 297.190125 
L 403.97 297.190125 
L 403.97 0 
L 0 0 
z
" style="fill: #ffffff"/>
  </g>
  <g id="axes_1">
   <g id="patch_2">
    <path d="M 39.65 273.312 
L 396.77 273.312 
L 396.77 7.2 
L 39.65 7.2 
z
" style="fill: #ffffff"/>
   </g>
   <g id="matplotlib.axis_1">
    <g id="xtick_1">
     <g id="line2d_1">
      <defs>
       <path id="m40c1a7d990" d="M 0 0 
L 0 3.5 
" style="stroke: #000000; stroke-width: 0.8"/>
      </defs>
      <g>
       <use xlink:href="#m40c1a7d990" x="55.882727" y="273.312" style="stroke: #000000; stroke-width: 0.8"/>
      </g>
     </g>
     <g id="text_1">
      <!-- 0.0 -->
      <g transform="translate(47.931165 287.910437) scale(0.1 -0.1)">
       <defs>
        <path id="DejaVuSans-30" d="M 2034 4250 
Q 1547 4250 1301 3770 
Q 1056 3291 1056 2328 
Q 1056 1369 1301 889 
Q 1547 409 2034 409 
Q 2525 409 2770 889 
Q 3016 1369 3016 2328 
Q 3016 3291 2770 3770 
Q 2525 4250 2034 4250 
z
M 2034 4750 
Q 2819 4750 3233 4129 
Q 3647 3509 3647 2328 
Q 3647 1150 3233 529 
Q 2819 -91 2034 -91 
Q 1250 -91 836 529 
Q 422 1150 422 2328 
Q 422 3509 836 4129 
Q 1250 4750 2034 4750 
z
" transform="scale(0.015625)"/>
        <path id="DejaVuSans-2e" d="M 684 794 
L 1344 794 
L 1344 0 
L 684 0 
L 684 794 
z
" transform="scale(0.015625)"/>
       </defs>
       <use xlink:href="#DejaVuSans-30"/>
       <use xlink:href="#DejaVuSans-2e" transform="translate(63.623047 0)"/>
       <use xlink:href="#DejaVuSans-30" transform="translate(95.410156 0)"/>
      </g>
     </g>
    </g>
    <g id="xtick_2">
     <g id="line2d_2">
      <g>
       <use xlink:href="#m40c1a7d990" x="96.668474" y="273.312" style="stroke: #000000; stroke-width: 0.8"/>
      </g>
     </g>
     <g id="text_2">
      <!-- 2.5 -->
      <g transform="translate(88.716912 287.910437) scale(0.1 -0.1)">
       <defs>
        <path id="DejaVuSans-32" d="M 1228 531 
L 3431 531 
L 3431 0 
L 469 0 
L 469 531 
Q 828 903 1448 1529 
Q 2069 2156 2228 2338 
Q 2531 2678 2651 2914 
Q 2772 3150 2772 3378 
Q 2772 3750 2511 3984 
Q 2250 4219 1831 4219 
Q 1534 4219 1204 4116 
Q 875 4013 500 3803 
L 500 4441 
Q 881 4594 1212 4672 
Q 1544 4750 1819 4750 
Q 2544 4750 2975 4387 
Q 3406 4025 3406 3419 
Q 3406 3131 3298 2873 
Q 3191 2616 2906 2266 
Q 2828 2175 2409 1742 
Q 1991 1309 1228 531 
z
" transform="scale(0.015625)"/>
        <path id="DejaVuSans-35" d="M 691 4666 
L 3169 4666 
L 3169 4134 
L 1269 4134 
L 1269 2991 
Q 1406 3038 1543 3061 
Q 1681 3084 1819 3084 
Q 2600 3084 3056 2656 
Q 3513 2228 3513 1497 
Q 3513 744 3044 326 
Q 2575 -91 1722 -91 
Q 1428 -91 1123 -41 
Q 819 9 494 109 
L 494 744 
Q 775 591 1075 516 
Q 1375 441 1709 441 
Q 2250 441 2565 725 
Q 2881 1009 2881 1497 
Q 2881 1984 2565 2268 
Q 2250 2553 1709 2553 
Q 1456 2553 1204 2497 
Q 953 2441 691 2322 
L 691 4666 
z
" transform="scale(0.015625)"/>
       </defs>
       <use xlink:href="#DejaVuSans-32"/>
       <use xlink:href="#DejaVuSans-2e" transform="translate(63.623047 0)"/>
       <use xlink:href="#DejaVuSans-35" transform="translate(95.410156 0)"/>
      </g>
     </g>
    </g>
    <g id="xtick_3">
     <g id="line2d_3">
      <g>
       <use xlink:href="#m40c1a7d990" x="137.454221" y="273.312" style="stroke: #000000; stroke-width: 0.8"/>
      </g>
     </g>
     <g id="text_3">
      <!-- 5.0 -->
      <g transform="translate(129.502659 287.910437) scale(0.1 -0.1)">
       <use xlink:href="#DejaVuSans-35"/>
       <use xlink:href="#DejaVuSans-2e" transform="translate(63.623047 0)"/>
       <use xlink:href="#DejaVuSans-30" transform="translate(95.410156 0)"/>
      </g>
     </g>
    </g>
    <g id="xtick_4">
     <g id="line2d_4">
      <g>
       <use xlink:href="#m40c1a7d990" x="178.239968" y="273.312" style="stroke: #000000; stroke-width: 0.8"/>
      </g>
     </g>
     <g id="text_4">
      <!-- 7.5 -->
      <g transform="translate(170.288406 287.910437) scale(0.1 -0.1)">
       <defs>
        <path id="DejaVuSans-37" d="M 525 4666 
L 3525 4666 
L 3525 4397 
L 1831 0 
L 1172 0 
L 2766 4134 
L 525 4134 
L 525 4666 
z
" transform="scale(0.015625)"/>
       </defs>
       <use xlink:href="#DejaVuSans-37"/>
       <use xlink:href="#DejaVuSans-2e" transform="translate(63.623047 0)"/>
       <use xlink:href="#DejaVuSans-35" transform="translate(95.410156 0)"/>
      </g>
     </g>
    </g>
    <g id="xtick_5">
     <g id="line2d_5">
      <g>
       <use xlink:href="#m40c1a7d990" x="219.025715" y="273.312" style="stroke: #000000; stroke-width: 0.8"/>
      </g>
     </g>
     <g id="text_5">
      <!-- 10.0 -->
      <g transform="translate(207.892902 287.910437) scale(0.1 -0.1)">
       <defs>
        <path id="DejaVuSans-31" d="M 794 531 
L 1825 531 
L 1825 4091 
L 703 3866 
L 703 4441 
L 1819 4666 
L 2450 4666 
L 2450 531 
L 3481 531 
L 3481 0 
L 794 0 
L 794 531 
z
" transform="scale(0.015625)"/>
       </defs>
       <use xlink:href="#DejaVuSans-31"/>
       <use xlink:href="#DejaVuSans-30" transform="translate(63.623047 0)"/>
       <use xlink:href="#DejaVuSans-2e" transform="translate(127.246094 0)"/>
       <use xlink:href="#DejaVuSans-30" transform="translate(159.033203 0)"/>
      </g>
     </g>
    </g>
    <g id="xtick_6">
     <g id="line2d_6">
      <g>
       <use xlink:href="#m40c1a7d990" x="259.811462" y="273.312" style="stroke: #000000; stroke-width: 0.8"/>
      </g>
     </g>
     <g id="text_6">
      <!-- 12.5 -->
      <g transform="translate(248.678649 287.910437) scale(0.1 -0.1)">
       <use xlink:href="#DejaVuSans-31"/>
       <use xlink:href="#DejaVuSans-32" transform="translate(63.623047 0)"/>
       <use xlink:href="#DejaVuSans-2e" transform="translate(127.246094 0)"/>
       <use xlink:href="#DejaVuSans-35" transform="translate(159.033203 0)"/>
      </g>
     </g>
    </g>
    <g id="xtick_7">
     <g id="line2d_7">
      <g>
       <use xlink:href="#m40c1a7d990" x="300.597209" y="273.312" style="stroke: #000000; stroke-width: 0.8"/>
      </g>
     </g>
     <g id="text_7">
      <!-- 15.0 -->
      <g transform="translate(289.464396 287.910437) scale(0.1 -0.1)">
       <use xlink:href="#DejaVuSans-31"/>
       <use xlink:href="#DejaVuSans-35" transform="translate(63.623047 0)"/>
       <use xlink:href="#DejaVuSans-2e" transform="translate(127.246094 0)"/>
       <use xlink:href="#DejaVuSans-30" transform="translate(159.033203 0)"/>
      </g>
     </g>
    </g>
    <g id="xtick_8">
     <g id="line2d_8">
      <g>
       <use xlink:href="#m40c1a7d990" x="341.382956" y="273.312" style="stroke: #000000; stroke-width: 0.8"/>
      </g>
     </g>
     <g id="text_8">
      <!-- 17.5 -->
      <g transform="translate(330.250143 287.910437) scale(0.1 -0.1)">
       <use xlink:href="#DejaVuSans-31"/>
       <use xlink:href="#DejaVuSans-37" transform="translate(63.623047 0)"/>
       <use xlink:href="#DejaVuSans-2e" transform="translate(127.246094 0)"/>
       <use xlink:href="#DejaVuSans-35" transform="translate(159.033203 0)"/>
      </g>
     </g>
    </g>
    <g id="xtick_9">
     <g id="line2d_9">
      <g>
       <use xlink:href="#m40c1a7d990" x="382.168703" y="273.312" style="stroke: #000000; stroke-width: 0.8"/>
      </g>
     </g>
     <g id="text_9">
      <!-- 20.0 -->
      <g transform="translate(371.03589 287.910437) scale(0.1 -0.1)">
       <use xlink:href="#DejaVuSans-32"/>
       <use xlink:href="#DejaVuSans-30" transform="translate(63.623047 0)"/>
       <use xlink:href="#DejaVuSans-2e" transform="translate(127.246094 0)"/>
       <use xlink:href="#DejaVuSans-30" transform="translate(159.033203 0)"/>
      </g>
     </g>
    </g>
   </g>
   <g id="matplotlib.axis_2">
    <g id="ytick_1">
     <g id="line2d_10">
      <defs>
       <path id="mf02944db5b" d="M 0 0 
L -3.5 0 
" style="stroke: #000000; stroke-width: 0.8"/>
      </defs>
      <g>
       <use xlink:href="#mf02944db5b" x="39.65" y="261.216" style="stroke: #000000; stroke-width: 0.8"/>
      </g>
     </g>
     <g id="text_10">
      <!-- 0 -->
      <g transform="translate(26.2875 265.015219) scale(0.1 -0.1)">
       <use xlink:href="#DejaVuSans-30"/>
      </g>
     </g>
    </g>
    <g id="ytick_2">
     <g id="line2d_11">
      <g>
       <use xlink:href="#mf02944db5b" x="39.65" y="222.196645" style="stroke: #000000; stroke-width: 0.8"/>
      </g>
     </g>
     <g id="text_11">
      <!-- 500 -->
      <g transform="translate(13.5625 225.995864) scale(0.1 -0.1)">
       <use xlink:href="#DejaVuSans-35"/>
       <use xlink:href="#DejaVuSans-30" transform="translate(63.623047 0)"/>
       <use xlink:href="#DejaVuSans-30" transform="translate(127.246094 0)"/>
      </g>
     </g>
    </g>
    <g id="ytick_3">
     <g id="line2d_12">
      <g>
       <use xlink:href="#mf02944db5b" x="39.65" y="183.17729" style="stroke: #000000; stroke-width: 0.8"/>
      </g>
     </g>
     <g id="text_12">
      <!-- 1000 -->
      <g transform="translate(7.2 186.976509) scale(0.1 -0.1)">
       <use xlink:href="#DejaVuSans-31"/>
       <use xlink:href="#DejaVuSans-30" transform="translate(63.623047 0)"/>
       <use xlink:href="#DejaVuSans-30" transform="translate(127.246094 0)"/>
       <use xlink:href="#DejaVuSans-30" transform="translate(190.869141 0)"/>
      </g>
     </g>
    </g>
    <g id="ytick_4">
     <g id="line2d_13">
      <g>
       <use xlink:href="#mf02944db5b" x="39.65" y="144.157935" style="stroke: #000000; stroke-width: 0.8"/>
      </g>
     </g>
     <g id="text_13">
      <!-- 1500 -->
      <g transform="translate(7.2 147.957154) scale(0.1 -0.1)">
       <use xlink:href="#DejaVuSans-31"/>
       <use xlink:href="#DejaVuSans-35" transform="translate(63.623047 0)"/>
       <use xlink:href="#DejaVuSans-30" transform="translate(127.246094 0)"/>
       <use xlink:href="#DejaVuSans-30" transform="translate(190.869141 0)"/>
      </g>
     </g>
    </g>
    <g id="ytick_5">
     <g id="line2d_14">
      <g>
       <use xlink:href="#mf02944db5b" x="39.65" y="105.138581" style="stroke: #000000; stroke-width: 0.8"/>
      </g>
     </g>
     <g id="text_14">
      <!-- 2000 -->
      <g transform="translate(7.2 108.937799) scale(0.1 -0.1)">
       <use xlink:href="#DejaVuSans-32"/>
       <use xlink:href="#DejaVuSans-30" transform="translate(63.623047 0)"/>
       <use xlink:href="#DejaVuSans-30" transform="translate(127.246094 0)"/>
       <use xlink:href="#DejaVuSans-30" transform="translate(190.869141 0)"/>
      </g>
     </g>
    </g>
    <g id="ytick_6">
     <g id="line2d_15">
      <g>
       <use xlink:href="#mf02944db5b" x="39.65" y="66.119226" style="stroke: #000000; stroke-width: 0.8"/>
      </g>
     </g>
     <g id="text_15">
      <!-- 2500 -->
      <g transform="translate(7.2 69.918445) scale(0.1 -0.1)">
       <use xlink:href="#DejaVuSans-32"/>
       <use xlink:href="#DejaVuSans-35" transform="translate(63.623047 0)"/>
       <use xlink:href="#DejaVuSans-30" transform="translate(127.246094 0)"/>
       <use xlink:href="#DejaVuSans-30" transform="translate(190.869141 0)"/>
      </g>
     </g>
    </g>
    <g id="ytick_7">
     <g id="line2d_16">
      <g>
       <use xlink:href="#mf02944db5b" x="39.65" y="27.099871" style="stroke: #000000; stroke-width: 0.8"/>
      </g>
     </g>
     <g id="text_16">
      <!-- 3000 -->
      <g transform="translate(7.2 30.89909) scale(0.1 -0.1)">
       <defs>
        <path id="DejaVuSans-33" d="M 2597 2516 
Q 3050 2419 3304 2112 
Q 3559 1806 3559 1356 
Q 3559 666 3084 287 
Q 2609 -91 1734 -91 
Q 1441 -91 1130 -33 
Q 819 25 488 141 
L 488 750 
Q 750 597 1062 519 
Q 1375 441 1716 441 
Q 2309 441 2620 675 
Q 2931 909 2931 1356 
Q 2931 1769 2642 2001 
Q 2353 2234 1838 2234 
L 1294 2234 
L 1294 2753 
L 1863 2753 
Q 2328 2753 2575 2939 
Q 2822 3125 2822 3475 
Q 2822 3834 2567 4026 
Q 2313 4219 1838 4219 
Q 1578 4219 1281 4162 
Q 984 4106 628 3988 
L 628 4550 
Q 988 4650 1302 4700 
Q 1616 4750 1894 4750 
Q 2613 4750 3031 4423 
Q 3450 4097 3450 3541 
Q 3450 3153 3228 2886 
Q 3006 2619 2597 2516 
z
" transform="scale(0.015625)"/>
       </defs>
       <use xlink:href="#DejaVuSans-33"/>
       <use xlink:href="#DejaVuSans-30" transform="translate(63.623047 0)"/>
       <use xlink:href="#DejaVuSans-30" transform="translate(127.246094 0)"/>
       <use xlink:href="#DejaVuSans-30" transform="translate(190.869141 0)"/>
      </g>
     </g>
    </g>
   </g>
   <g id="line2d_17">
    <path d="M 55.882727 261.216 
L 59.961302 241.706323 
L 64.039877 224.077378 
L 68.118451 208.147864 
L 72.197026 193.753955 
L 76.275601 180.747618 
L 80.354175 168.995093 
L 84.43275 158.375511 
L 88.511325 148.779657 
L 92.589899 140.108843 
L 96.668474 132.273895 
L 100.747049 125.194237 
L 104.825624 118.797057 
L 108.904198 113.016566 
L 112.982773 107.793314 
L 117.061348 103.073584 
L 121.139922 98.808835 
L 125.218497 94.955208 
L 129.297072 91.473071 
L 133.375646 88.326612 
L 137.454221 85.483472 
L 141.532796 82.91441 
L 145.61137 80.593006 
L 149.689945 78.495385 
L 153.76852 76.599975 
L 157.847095 74.887282 
L 161.925669 73.339693 
L 166.004244 71.941292 
L 170.082819 70.677696 
L 174.161393 69.535911 
L 178.239968 68.504194 
L 182.318543 67.571935 
L 186.397117 66.729546 
L 190.475692 65.968362 
L 194.554267 65.280557 
L 198.632841 64.659056 
L 202.711416 64.097468 
L 206.789991 63.590017 
L 210.868566 63.131485 
L 214.94714 62.717155 
L 219.025715 62.342766 
L 223.10429 62.004468 
L 227.182864 61.698782 
L 231.261439 61.422565 
L 235.340014 61.172975 
L 239.418588 60.947445 
L 243.497163 60.743656 
L 247.575738 60.559513 
L 251.654312 60.393121 
L 255.732887 60.242769 
L 259.811462 60.106911 
L 263.890037 59.98415 
L 267.968611 59.873223 
L 272.047186 59.772989 
L 276.125761 59.682418 
L 280.204335 59.600578 
L 284.28291 59.526627 
L 288.361485 59.459805 
L 292.440059 59.399425 
L 296.518634 59.344865 
L 300.597209 59.295565 
L 304.675783 59.251018 
L 308.754358 59.210765 
L 312.832933 59.174392 
L 316.911508 59.141525 
L 320.990082 59.111827 
L 325.068657 59.084992 
L 329.147232 59.060744 
L 333.225806 59.038833 
L 337.304381 59.019035 
L 341.382956 59.001145 
L 345.46153 58.984979 
L 349.540105 58.970372 
L 353.61868 58.957173 
L 357.697254 58.945247 
L 361.775829 58.93447 
L 365.854404 58.924732 
L 369.932979 58.915933 
L 374.011553 58.907982 
L 378.090128 58.900797 
" clip-path="url(#pa5e9bdd917)" style="fill: none; stroke: #1f77b4; stroke-width: 1.5; stroke-linecap: square"/>
   </g>
   <g id="line2d_18">
    <path d="M 55.882727 261.216 
L 59.961302 261.216 
L 64.039877 259.335267 
L 68.118451 256.206856 
L 72.197026 252.294284 
L 76.275601 247.933939 
L 80.354175 243.367138 
L 84.43275 238.764339 
L 88.511325 234.243405 
L 92.589899 229.883359 
L 96.668474 225.734729 
L 100.747049 221.827312 
L 104.825624 218.175977 
L 108.904198 214.785004 
L 112.982773 211.651304 
L 117.061348 208.766797 
L 121.139922 206.120167 
L 125.218497 203.698135 
L 129.297072 201.486386 
L 133.375646 199.470221 
L 137.454221 197.63502 
L 141.532796 195.966556 
L 145.61137 194.451199 
L 149.689945 193.076048 
L 153.76852 191.828997 
L 157.847095 190.69877 
L 161.925669 189.67492 
L 166.004244 188.747812 
L 170.082819 187.908589 
L 174.161393 187.149136 
L 178.239968 186.462037 
L 182.318543 185.84052 
L 186.397117 185.278423 
L 190.475692 184.770135 
L 194.554267 184.310559 
L 198.632841 183.895069 
L 202.711416 183.519468 
L 206.789991 183.179948 
L 210.868566 182.873063 
L 214.94714 182.595689 
L 219.025715 182.344999 
L 223.10429 182.118434 
L 227.182864 181.913678 
L 231.261439 181.728636 
L 235.340014 181.561413 
L 239.418588 181.410297 
L 243.497163 181.273738 
L 247.575738 181.150336 
L 251.654312 181.038823 
L 255.732887 180.938055 
L 259.811462 180.846998 
L 263.890037 180.764716 
L 267.968611 180.690364 
L 272.047186 180.623178 
L 276.125761 180.562468 
L 280.204335 180.507609 
L 284.28291 180.458038 
L 288.361485 180.413245 
L 292.440059 180.372769 
L 296.518634 180.336195 
L 300.597209 180.303147 
L 304.675783 180.273284 
L 308.754358 180.2463 
L 312.832933 180.221918 
L 316.911508 180.199885 
L 320.990082 180.179977 
L 325.068657 180.161987 
L 329.147232 180.145732 
L 333.225806 180.131044 
L 337.304381 180.117771 
L 341.382956 180.105778 
L 345.46153 180.094942 
L 349.540105 180.085149 
L 353.61868 180.076301 
L 357.697254 180.068306 
L 361.775829 180.061081 
L 365.854404 180.054553 
L 369.932979 180.048655 
L 374.011553 180.043325 
L 378.090128 180.038508 
" clip-path="url(#pa5e9bdd917)" style="fill: none; stroke: #ff7f0e; stroke-width: 1.5; stroke-linecap: square"/>
   </g>
   <g id="line2d_19">
    <path d="M 55.882727 261.216 
L 57.514157 253.021935 
L 59.145587 244.203561 
L 60.777017 236.321652 
L 62.408447 230.234632 
L 65.671307 214.704929 
L 68.934166 203.389316 
L 70.565596 196.677987 
L 72.197026 190.981161 
L 73.828456 186.532955 
L 75.459886 184.035716 
L 77.091316 179.821626 
L 80.354175 170.769135 
L 83.617035 159.063329 
L 85.248465 154.14689 
L 86.879895 150.713187 
L 88.511325 146.811252 
L 90.142755 142.441084 
L 91.774185 137.290529 
L 93.405614 132.920361 
L 95.037044 130.735277 
L 96.668474 128.78431 
L 98.299904 126.443148 
L 99.931334 123.087484 
L 101.562764 120.200052 
L 103.194194 116.68831 
L 104.825624 113.6448 
L 106.457053 110.211097 
L 111.351343 105.528774 
L 112.982773 104.280155 
L 114.614203 103.499768 
L 116.245633 102.17311 
L 117.877063 100.144103 
L 119.508492 98.661368 
L 121.139922 96.632361 
L 122.771352 94.2912 
L 124.402782 93.042581 
L 126.034212 89.374761 
L 127.665642 86.877523 
L 129.297072 86.331252 
L 130.928502 85.004594 
L 132.559931 81.961084 
L 134.191361 80.166194 
L 135.822791 79.697961 
L 137.454221 78.215226 
L 139.085651 77.122684 
L 140.717081 75.249755 
L 142.348511 74.469368 
L 143.979941 70.879587 
L 145.61137 70.177239 
L 148.87423 67.992155 
L 150.50566 66.041187 
L 152.13709 66.041187 
L 153.76852 64.402374 
L 155.39995 63.934142 
L 157.03138 62.607484 
L 158.66281 62.139252 
L 160.294239 59.485935 
L 161.925669 59.329858 
L 163.557099 58.0032 
L 165.188529 57.222813 
L 166.819959 54.803613 
L 168.451389 54.803613 
L 170.082819 53.78911 
L 171.714249 53.320877 
L 173.345678 50.433445 
L 174.977108 50.199329 
L 178.239968 46.375432 
L 179.871398 45.751123 
L 181.502828 46.765626 
L 183.134258 46.141316 
L 184.765688 45.048774 
L 186.397117 44.346426 
L 188.028547 43.253884 
L 189.659977 42.395458 
L 191.291407 42.707613 
L 192.922837 42.083303 
L 194.554267 42.005265 
L 196.185697 41.771148 
L 197.817127 40.210374 
L 199.448556 37.947252 
L 201.079986 36.85471 
L 202.711416 37.088826 
L 204.342846 36.698632 
L 205.974276 36.776671 
L 207.605706 35.60609 
L 209.237136 34.669626 
L 210.868566 34.825703 
L 212.499995 34.201394 
L 214.131425 33.733161 
L 215.762855 30.689652 
L 217.394285 30.455535 
L 219.025715 29.050839 
L 220.657145 29.284955 
L 222.288575 29.206916 
L 223.920005 28.504568 
L 225.551434 27.568103 
L 227.182864 25.383019 
L 228.814294 26.163406 
L 230.445724 26.475561 
L 232.077154 25.773213 
L 233.708584 25.226942 
L 235.340014 24.446555 
L 236.971444 24.1344 
L 240.234303 25.92929 
L 241.865733 25.92929 
L 243.497163 26.5536 
L 245.128593 28.738684 
L 246.760023 27.958297 
L 248.391453 26.319484 
L 253.285742 26.5536 
L 254.917172 26.241445 
L 256.548602 25.148903 
L 258.180032 24.914787 
L 259.811462 25.851252 
L 261.442892 24.368516 
L 263.074322 24.446555 
L 264.705751 24.75871 
L 267.968611 21.403045 
L 269.600041 22.183432 
L 271.231471 20.544619 
L 272.862901 19.296 
L 276.125761 21.793239 
L 277.75719 21.793239 
L 279.38862 20.934813 
L 281.02005 21.09089 
L 282.65148 23.978323 
L 284.28291 24.524594 
L 285.91434 24.290477 
L 287.54577 25.226942 
L 289.1772 25.92929 
L 290.80863 23.432052 
L 292.440059 23.432052 
L 294.071489 24.368516 
L 295.702919 23.978323 
L 297.334349 26.241445 
L 298.965779 26.865755 
L 300.597209 26.163406 
L 303.860069 24.992826 
L 305.491498 23.51009 
L 307.122928 22.885781 
L 308.754358 24.290477 
L 310.385788 24.914787 
L 312.017218 24.056361 
L 313.648648 22.651665 
L 315.280078 22.417548 
L 316.911508 24.602632 
L 318.542937 26.397523 
L 320.174367 27.568103 
L 321.805797 29.441032 
L 323.437227 28.34849 
L 325.068657 26.5536 
L 326.700087 26.709677 
L 328.331517 25.617135 
L 329.962947 27.021832 
L 331.594376 26.085368 
L 334.857236 25.226942 
L 336.488666 25.851252 
L 338.120096 25.695174 
L 339.751526 26.475561 
L 341.382956 25.92929 
L 343.014386 26.475561 
L 344.645815 23.354013 
L 346.277245 22.261471 
L 347.908675 22.261471 
L 349.540105 22.885781 
L 351.171535 23.978323 
L 352.802965 23.900284 
L 354.434395 21.012852 
L 356.065825 22.027355 
L 357.697254 22.105394 
L 359.328684 23.275974 
L 360.960114 22.183432 
L 362.591544 21.246968 
L 364.222974 23.197935 
L 365.854404 23.197935 
L 367.485834 21.637161 
L 370.748693 22.027355 
L 374.011553 24.1344 
L 375.642983 24.212439 
L 377.274413 25.539097 
L 378.905843 24.680671 
L 380.537273 23.978323 
L 380.537273 23.978323 
" clip-path="url(#pa5e9bdd917)" style="fill: none; stroke: #2ca02c; stroke-width: 1.5; stroke-linecap: square"/>
   </g>
   <g id="line2d_20">
    <path d="M 55.882727 261.216 
L 57.514157 261.137961 
L 60.777017 260.279535 
L 62.408447 259.186994 
L 64.039877 258.484645 
L 65.671307 257.314065 
L 67.302736 255.363097 
L 68.934166 253.802323 
L 70.565596 252.007432 
L 72.197026 250.446658 
L 73.828456 248.49569 
L 75.459886 244.827871 
L 78.722746 241.940439 
L 80.354175 239.989471 
L 81.985605 239.677316 
L 83.617035 238.038503 
L 85.248465 237.024 
L 88.511325 232.80991 
L 90.142755 231.56129 
L 93.405614 227.893471 
L 95.037044 225.240155 
L 96.668474 221.88449 
L 98.299904 220.869987 
L 103.194194 216.031587 
L 104.825624 215.017084 
L 106.457053 213.768465 
L 108.088483 211.817497 
L 109.719913 210.178684 
L 111.351343 207.837523 
L 112.982773 205.964594 
L 114.614203 204.481858 
L 116.245633 204.325781 
L 117.877063 203.467355 
L 119.508492 202.140697 
L 121.139922 200.501884 
L 122.771352 197.770529 
L 126.034212 196.443871 
L 127.665642 194.805058 
L 129.297072 194.180748 
L 130.928502 192.307819 
L 134.191361 189.654503 
L 135.822791 187.859613 
L 137.454221 186.376877 
L 139.085651 185.206297 
L 140.717081 184.269832 
L 142.348511 182.396903 
L 143.979941 182.631019 
L 145.61137 180.680052 
L 147.2428 179.353394 
L 148.87423 179.041239 
L 150.50566 176.700077 
L 152.13709 175.217342 
L 155.39995 172.017755 
L 157.03138 171.003252 
L 158.66281 168.818168 
L 160.294239 169.364439 
L 161.925669 169.208361 
L 163.557099 169.832671 
L 165.188529 168.896206 
L 166.819959 170.456981 
L 168.451389 169.130323 
L 170.082819 169.364439 
L 171.714249 168.427974 
L 173.345678 169.364439 
L 174.977108 167.413471 
L 176.608538 168.193858 
L 178.239968 168.66209 
L 179.871398 168.193858 
L 181.502828 166.945239 
L 183.134258 165.930735 
L 184.765688 167.335432 
L 186.397117 168.349935 
L 189.659977 168.584052 
L 191.291407 165.774658 
L 192.922837 164.604077 
L 194.554267 164.057806 
L 197.817127 163.979768 
L 199.448556 164.838194 
L 201.079986 163.043303 
L 202.711416 162.184877 
L 205.974276 161.560568 
L 207.605706 161.014297 
L 209.237136 159.453523 
L 212.499995 157.970787 
L 214.131425 158.126865 
L 215.762855 158.048826 
L 217.394285 157.424516 
L 219.025715 157.81471 
L 220.657145 157.268439 
L 222.288575 154.615123 
L 223.920005 154.615123 
L 225.551434 154.302968 
L 227.182864 155.941781 
L 230.445724 152.898271 
L 232.077154 153.288465 
L 233.708584 152.273961 
L 235.340014 151.025342 
L 236.971444 148.762219 
L 238.602873 148.450065 
L 241.865733 149.30849 
L 243.497163 150.010839 
L 245.128593 149.464568 
L 246.760023 149.464568 
L 248.391453 148.684181 
L 250.022883 147.5136 
L 251.654312 146.811252 
L 253.285742 145.71871 
L 254.917172 147.045368 
L 256.548602 146.108903 
L 258.180032 145.796748 
L 259.811462 145.71871 
L 261.442892 145.796748 
L 264.705751 145.71871 
L 266.337181 146.577135 
L 267.968611 144.392052 
L 269.600041 144.079897 
L 271.231471 144.782245 
L 272.862901 147.201445 
L 274.494331 144.938323 
L 276.125761 144.392052 
L 277.75719 144.548129 
L 279.38862 144.079897 
L 281.02005 144.079897 
L 282.65148 141.894813 
L 284.28291 142.831277 
L 285.91434 144.001858 
L 287.54577 144.782245 
L 289.1772 145.952826 
L 290.80863 146.967329 
L 292.440059 147.279484 
L 294.071489 146.264981 
L 295.702919 148.372026 
L 297.334349 146.499097 
L 298.965779 144.938323 
L 300.597209 144.314013 
L 302.228639 144.235974 
L 303.860069 142.6752 
L 305.491498 143.533626 
L 307.122928 144.001858 
L 308.754358 143.065394 
L 310.385788 142.831277 
L 312.017218 143.221471 
L 313.648648 143.845781 
L 315.280078 144.860284 
L 316.911508 142.363045 
L 318.542937 141.192465 
L 320.174367 141.504619 
L 321.805797 140.177961 
L 323.437227 142.753239 
L 325.068657 146.421058 
L 326.700087 146.108903 
L 328.331517 146.186942 
L 329.962947 145.406555 
L 331.594376 143.845781 
L 333.225806 141.738735 
L 334.857236 144.860284 
L 336.488666 143.923819 
L 338.120096 144.314013 
L 341.382956 142.6752 
L 343.014386 142.05089 
L 344.645815 142.987355 
L 346.277245 144.314013 
L 347.908675 144.782245 
L 349.540105 145.0944 
L 351.171535 143.533626 
L 352.802965 143.221471 
L 354.434395 145.874787 
L 356.065825 143.455587 
L 357.697254 145.328516 
L 359.328684 145.0944 
L 360.960114 146.811252 
L 362.591544 146.499097 
L 364.222974 144.548129 
L 365.854404 143.455587 
L 367.485834 144.079897 
L 369.117264 142.831277 
L 370.748693 142.206968 
L 372.380123 142.831277 
L 374.011553 142.285006 
L 375.642983 142.285006 
L 377.274413 142.05089 
L 378.905843 144.314013 
L 380.537273 144.157935 
L 380.537273 144.157935 
" clip-path="url(#pa5e9bdd917)" style="fill: none; stroke: #d62728; stroke-width: 1.5; stroke-linecap: square"/>
   </g>
   <g id="patch_3">
    <path d="M 39.65 273.312 
L 39.65 7.2 
" style="fill: none; stroke: #000000; stroke-width: 0.8; stroke-linejoin: miter; stroke-linecap: square"/>
   </g>
   <g id="patch_4">
    <path d="M 396.77 273.312 
L 396.77 7.2 
" style="fill: none; stroke: #000000; stroke-width: 0.8; stroke-linejoin: miter; stroke-linecap: square"/>
   </g>
   <g id="patch_5">
    <path d="M 39.65 273.312 
L 396.77 273.312 
" style="fill: none; stroke: #000000; stroke-width: 0.8; stroke-linejoin: miter; stroke-linecap: square"/>
   </g>
   <g id="patch_6">
    <path d="M 39.65 7.2 
L 396.77 7.2 
" style="fill: none; stroke: #000000; stroke-width: 0.8; stroke-linejoin: miter; stroke-linecap: square"/>
   </g>
  </g>
 </g>
 <defs>
  <clipPath id="pa5e9bdd917">
   <rect x="39.65" y="7.2" width="357.12" height="266.112"/>
  </clipPath>
 </defs>
</svg>
