<?xml version="1.0" encoding="utf-8" standalone="no"?>
<!DOCTYPE svg PUBLIC "-//W3C//DTD SVG 1.1//EN"
  "http://www.w3.org/Graphics/SVG/1.1/DTD/svg11.dtd">
<svg xmlns:xlink="http://www.w3.org/1999/xlink" width="403.97pt" height="297.190125pt" viewBox="0 0 403.97 297.190125" xmlns="http://www.w3.org/2000/svg" version="1.1">
 <metadata>
  <rdf:RDF xmlns:dc="http://purl.org/dc/elements/1.1/" xmlns:cc="http://creativecommons.org/ns#" xmlns:rdf="http://www.w3.org/1999/02/22-rdf-syntax-ns#">
   <cc:Work>
    <dc:type rdf:resource="http://purl.org/dc/dcmitype/StillImage"/>
    <dc:date>2023-10-20T09:24:58.618188</dc:date>
    <dc:format>image/svg+xml</dc:format>
    <dc:creator>
     <cc:Agent>
      <dc:title>Matplotlib v3.8.0, https://matplotlib.org/</dc:title>
     </cc:Agent>
    </dc:creator>
   </cc:Work>
  </rdf:RDF>
 </metadata>
 <defs>
  <style type="text/css">*{stroke-linejoin: round; stroke-linecap: butt}</style>
 </defs>
 <g id="figure_1">
  <g id="patch_1">
   <path d="M 0 297.190125 
L 403.97 297.190125 
L 403.97 0 
L 0 0 
z
" style="fill: #ffffff"/>
  </g>
  <g id="axes_1">
   <g id="patch_2">
    <path d="M 39.65 273.312 
L 396.77 273.312 
L 396.77 7.2 
L 39.65 7.2 
z
" style="fill: #ffffff"/>
   </g>
   <g id="matplotlib.axis_1">
    <g id="xtick_1">
     <g id="line2d_1">
      <defs>
       <path id="m46f8816ae8" d="M 0 0 
L 0 3.5 
" style="stroke: #000000; stroke-width: 0.8"/>
      </defs>
      <g>
       <use xlink:href="#m46f8816ae8" x="55.882727" y="273.312" style="stroke: #000000; stroke-width: 0.8"/>
      </g>
     </g>
     <g id="text_1">
      <!-- 0.0 -->
      <g transform="translate(47.931165 287.910437) scale(0.1 -0.1)">
       <defs>
        <path id="DejaVuSans-30" d="M 2034 4250 
Q 1547 4250 1301 3770 
Q 1056 3291 1056 2328 
Q 1056 1369 1301 889 
Q 1547 409 2034 409 
Q 2525 409 2770 889 
Q 3016 1369 3016 2328 
Q 3016 3291 2770 3770 
Q 2525 4250 2034 4250 
z
M 2034 4750 
Q 2819 4750 3233 4129 
Q 3647 3509 3647 2328 
Q 3647 1150 3233 529 
Q 2819 -91 2034 -91 
Q 1250 -91 836 529 
Q 422 1150 422 2328 
Q 422 3509 836 4129 
Q 1250 4750 2034 4750 
z
" transform="scale(0.015625)"/>
        <path id="DejaVuSans-2e" d="M 684 794 
L 1344 794 
L 1344 0 
L 684 0 
L 684 794 
z
" transform="scale(0.015625)"/>
       </defs>
       <use xlink:href="#DejaVuSans-30"/>
       <use xlink:href="#DejaVuSans-2e" x="63.623047"/>
       <use xlink:href="#DejaVuSans-30" x="95.410156"/>
      </g>
     </g>
    </g>
    <g id="xtick_2">
     <g id="line2d_2">
      <g>
       <use xlink:href="#m46f8816ae8" x="96.668474" y="273.312" style="stroke: #000000; stroke-width: 0.8"/>
      </g>
     </g>
     <g id="text_2">
      <!-- 2.5 -->
      <g transform="translate(88.716912 287.910437) scale(0.1 -0.1)">
       <defs>
        <path id="DejaVuSans-32" d="M 1228 531 
L 3431 531 
L 3431 0 
L 469 0 
L 469 531 
Q 828 903 1448 1529 
Q 2069 2156 2228 2338 
Q 2531 2678 2651 2914 
Q 2772 3150 2772 3378 
Q 2772 3750 2511 3984 
Q 2250 4219 1831 4219 
Q 1534 4219 1204 4116 
Q 875 4013 500 3803 
L 500 4441 
Q 881 4594 1212 4672 
Q 1544 4750 1819 4750 
Q 2544 4750 2975 4387 
Q 3406 4025 3406 3419 
Q 3406 3131 3298 2873 
Q 3191 2616 2906 2266 
Q 2828 2175 2409 1742 
Q 1991 1309 1228 531 
z
" transform="scale(0.015625)"/>
        <path id="DejaVuSans-35" d="M 691 4666 
L 3169 4666 
L 3169 4134 
L 1269 4134 
L 1269 2991 
Q 1406 3038 1543 3061 
Q 1681 3084 1819 3084 
Q 2600 3084 3056 2656 
Q 3513 2228 3513 1497 
Q 3513 744 3044 326 
Q 2575 -91 1722 -91 
Q 1428 -91 1123 -41 
Q 819 9 494 109 
L 494 744 
Q 775 591 1075 516 
Q 1375 441 1709 441 
Q 2250 441 2565 725 
Q 2881 1009 2881 1497 
Q 2881 1984 2565 2268 
Q 2250 2553 1709 2553 
Q 1456 2553 1204 2497 
Q 953 2441 691 2322 
L 691 4666 
z
" transform="scale(0.015625)"/>
       </defs>
       <use xlink:href="#DejaVuSans-32"/>
       <use xlink:href="#DejaVuSans-2e" x="63.623047"/>
       <use xlink:href="#DejaVuSans-35" x="95.410156"/>
      </g>
     </g>
    </g>
    <g id="xtick_3">
     <g id="line2d_3">
      <g>
       <use xlink:href="#m46f8816ae8" x="137.454221" y="273.312" style="stroke: #000000; stroke-width: 0.8"/>
      </g>
     </g>
     <g id="text_3">
      <!-- 5.0 -->
      <g transform="translate(129.502659 287.910437) scale(0.1 -0.1)">
       <use xlink:href="#DejaVuSans-35"/>
       <use xlink:href="#DejaVuSans-2e" x="63.623047"/>
       <use xlink:href="#DejaVuSans-30" x="95.410156"/>
      </g>
     </g>
    </g>
    <g id="xtick_4">
     <g id="line2d_4">
      <g>
       <use xlink:href="#m46f8816ae8" x="178.239968" y="273.312" style="stroke: #000000; stroke-width: 0.8"/>
      </g>
     </g>
     <g id="text_4">
      <!-- 7.5 -->
      <g transform="translate(170.288406 287.910437) scale(0.1 -0.1)">
       <defs>
        <path id="DejaVuSans-37" d="M 525 4666 
L 3525 4666 
L 3525 4397 
L 1831 0 
L 1172 0 
L 2766 4134 
L 525 4134 
L 525 4666 
z
" transform="scale(0.015625)"/>
       </defs>
       <use xlink:href="#DejaVuSans-37"/>
       <use xlink:href="#DejaVuSans-2e" x="63.623047"/>
       <use xlink:href="#DejaVuSans-35" x="95.410156"/>
      </g>
     </g>
    </g>
    <g id="xtick_5">
     <g id="line2d_5">
      <g>
       <use xlink:href="#m46f8816ae8" x="219.025715" y="273.312" style="stroke: #000000; stroke-width: 0.8"/>
      </g>
     </g>
     <g id="text_5">
      <!-- 10.0 -->
      <g transform="translate(207.892902 287.910437) scale(0.1 -0.1)">
       <defs>
        <path id="DejaVuSans-31" d="M 794 531 
L 1825 531 
L 1825 4091 
L 703 3866 
L 703 4441 
L 1819 4666 
L 2450 4666 
L 2450 531 
L 3481 531 
L 3481 0 
L 794 0 
L 794 531 
z
" transform="scale(0.015625)"/>
       </defs>
       <use xlink:href="#DejaVuSans-31"/>
       <use xlink:href="#DejaVuSans-30" x="63.623047"/>
       <use xlink:href="#DejaVuSans-2e" x="127.246094"/>
       <use xlink:href="#DejaVuSans-30" x="159.033203"/>
      </g>
     </g>
    </g>
    <g id="xtick_6">
     <g id="line2d_6">
      <g>
       <use xlink:href="#m46f8816ae8" x="259.811462" y="273.312" style="stroke: #000000; stroke-width: 0.8"/>
      </g>
     </g>
     <g id="text_6">
      <!-- 12.5 -->
      <g transform="translate(248.678649 287.910437) scale(0.1 -0.1)">
       <use xlink:href="#DejaVuSans-31"/>
       <use xlink:href="#DejaVuSans-32" x="63.623047"/>
       <use xlink:href="#DejaVuSans-2e" x="127.246094"/>
       <use xlink:href="#DejaVuSans-35" x="159.033203"/>
      </g>
     </g>
    </g>
    <g id="xtick_7">
     <g id="line2d_7">
      <g>
       <use xlink:href="#m46f8816ae8" x="300.597209" y="273.312" style="stroke: #000000; stroke-width: 0.8"/>
      </g>
     </g>
     <g id="text_7">
      <!-- 15.0 -->
      <g transform="translate(289.464396 287.910437) scale(0.1 -0.1)">
       <use xlink:href="#DejaVuSans-31"/>
       <use xlink:href="#DejaVuSans-35" x="63.623047"/>
       <use xlink:href="#DejaVuSans-2e" x="127.246094"/>
       <use xlink:href="#DejaVuSans-30" x="159.033203"/>
      </g>
     </g>
    </g>
    <g id="xtick_8">
     <g id="line2d_8">
      <g>
       <use xlink:href="#m46f8816ae8" x="341.382956" y="273.312" style="stroke: #000000; stroke-width: 0.8"/>
      </g>
     </g>
     <g id="text_8">
      <!-- 17.5 -->
      <g transform="translate(330.250143 287.910437) scale(0.1 -0.1)">
       <use xlink:href="#DejaVuSans-31"/>
       <use xlink:href="#DejaVuSans-37" x="63.623047"/>
       <use xlink:href="#DejaVuSans-2e" x="127.246094"/>
       <use xlink:href="#DejaVuSans-35" x="159.033203"/>
      </g>
     </g>
    </g>
    <g id="xtick_9">
     <g id="line2d_9">
      <g>
       <use xlink:href="#m46f8816ae8" x="382.168703" y="273.312" style="stroke: #000000; stroke-width: 0.8"/>
      </g>
     </g>
     <g id="text_9">
      <!-- 20.0 -->
      <g transform="translate(371.03589 287.910437) scale(0.1 -0.1)">
       <use xlink:href="#DejaVuSans-32"/>
       <use xlink:href="#DejaVuSans-30" x="63.623047"/>
       <use xlink:href="#DejaVuSans-2e" x="127.246094"/>
       <use xlink:href="#DejaVuSans-30" x="159.033203"/>
      </g>
     </g>
    </g>
   </g>
   <g id="matplotlib.axis_2">
    <g id="ytick_1">
     <g id="line2d_10">
      <defs>
       <path id="m0dde7bb690" d="M 0 0 
L -3.5 0 
" style="stroke: #000000; stroke-width: 0.8"/>
      </defs>
      <g>
       <use xlink:href="#m0dde7bb690" x="39.65" y="261.216" style="stroke: #000000; stroke-width: 0.8"/>
      </g>
     </g>
     <g id="text_10">
      <!-- 0 -->
      <g transform="translate(26.2875 265.015219) scale(0.1 -0.1)">
       <use xlink:href="#DejaVuSans-30"/>
      </g>
     </g>
    </g>
    <g id="ytick_2">
     <g id="line2d_11">
      <g>
       <use xlink:href="#m0dde7bb690" x="39.65" y="226.862876" style="stroke: #000000; stroke-width: 0.8"/>
      </g>
     </g>
     <g id="text_11">
      <!-- 500 -->
      <g transform="translate(13.5625 230.662095) scale(0.1 -0.1)">
       <use xlink:href="#DejaVuSans-35"/>
       <use xlink:href="#DejaVuSans-30" x="63.623047"/>
       <use xlink:href="#DejaVuSans-30" x="127.246094"/>
      </g>
     </g>
    </g>
    <g id="ytick_3">
     <g id="line2d_12">
      <g>
       <use xlink:href="#m0dde7bb690" x="39.65" y="192.509752" style="stroke: #000000; stroke-width: 0.8"/>
      </g>
     </g>
     <g id="text_12">
      <!-- 1000 -->
      <g transform="translate(7.2 196.308971) scale(0.1 -0.1)">
       <use xlink:href="#DejaVuSans-31"/>
       <use xlink:href="#DejaVuSans-30" x="63.623047"/>
       <use xlink:href="#DejaVuSans-30" x="127.246094"/>
       <use xlink:href="#DejaVuSans-30" x="190.869141"/>
      </g>
     </g>
    </g>
    <g id="ytick_4">
     <g id="line2d_13">
      <g>
       <use xlink:href="#m0dde7bb690" x="39.65" y="158.156628" style="stroke: #000000; stroke-width: 0.8"/>
      </g>
     </g>
     <g id="text_13">
      <!-- 1500 -->
      <g transform="translate(7.2 161.955847) scale(0.1 -0.1)">
       <use xlink:href="#DejaVuSans-31"/>
       <use xlink:href="#DejaVuSans-35" x="63.623047"/>
       <use xlink:href="#DejaVuSans-30" x="127.246094"/>
       <use xlink:href="#DejaVuSans-30" x="190.869141"/>
      </g>
     </g>
    </g>
    <g id="ytick_5">
     <g id="line2d_14">
      <g>
       <use xlink:href="#m0dde7bb690" x="39.65" y="123.803504" style="stroke: #000000; stroke-width: 0.8"/>
      </g>
     </g>
     <g id="text_14">
      <!-- 2000 -->
      <g transform="translate(7.2 127.602722) scale(0.1 -0.1)">
       <use xlink:href="#DejaVuSans-32"/>
       <use xlink:href="#DejaVuSans-30" x="63.623047"/>
       <use xlink:href="#DejaVuSans-30" x="127.246094"/>
       <use xlink:href="#DejaVuSans-30" x="190.869141"/>
      </g>
     </g>
    </g>
    <g id="ytick_6">
     <g id="line2d_15">
      <g>
       <use xlink:href="#m0dde7bb690" x="39.65" y="89.45038" style="stroke: #000000; stroke-width: 0.8"/>
      </g>
     </g>
     <g id="text_15">
      <!-- 2500 -->
      <g transform="translate(7.2 93.249598) scale(0.1 -0.1)">
       <use xlink:href="#DejaVuSans-32"/>
       <use xlink:href="#DejaVuSans-35" x="63.623047"/>
       <use xlink:href="#DejaVuSans-30" x="127.246094"/>
       <use xlink:href="#DejaVuSans-30" x="190.869141"/>
      </g>
     </g>
    </g>
    <g id="ytick_7">
     <g id="line2d_16">
      <g>
       <use xlink:href="#m0dde7bb690" x="39.65" y="55.097256" style="stroke: #000000; stroke-width: 0.8"/>
      </g>
     </g>
     <g id="text_16">
      <!-- 3000 -->
      <g transform="translate(7.2 58.896474) scale(0.1 -0.1)">
       <defs>
        <path id="DejaVuSans-33" d="M 2597 2516 
Q 3050 2419 3304 2112 
Q 3559 1806 3559 1356 
Q 3559 666 3084 287 
Q 2609 -91 1734 -91 
Q 1441 -91 1130 -33 
Q 819 25 488 141 
L 488 750 
Q 750 597 1062 519 
Q 1375 441 1716 441 
Q 2309 441 2620 675 
Q 2931 909 2931 1356 
Q 2931 1769 2642 2001 
Q 2353 2234 1838 2234 
L 1294 2234 
L 1294 2753 
L 1863 2753 
Q 2328 2753 2575 2939 
Q 2822 3125 2822 3475 
Q 2822 3834 2567 4026 
Q 2313 4219 1838 4219 
Q 1578 4219 1281 4162 
Q 984 4106 628 3988 
L 628 4550 
Q 988 4650 1302 4700 
Q 1616 4750 1894 4750 
Q 2613 4750 3031 4423 
Q 3450 4097 3450 3541 
Q 3450 3153 3228 2886 
Q 3006 2619 2597 2516 
z
" transform="scale(0.015625)"/>
       </defs>
       <use xlink:href="#DejaVuSans-33"/>
       <use xlink:href="#DejaVuSans-30" x="63.623047"/>
       <use xlink:href="#DejaVuSans-30" x="127.246094"/>
       <use xlink:href="#DejaVuSans-30" x="190.869141"/>
      </g>
     </g>
    </g>
    <g id="ytick_8">
     <g id="line2d_17">
      <g>
       <use xlink:href="#m0dde7bb690" x="39.65" y="20.744132" style="stroke: #000000; stroke-width: 0.8"/>
      </g>
     </g>
     <g id="text_17">
      <!-- 3500 -->
      <g transform="translate(7.2 24.54335) scale(0.1 -0.1)">
       <use xlink:href="#DejaVuSans-33"/>
       <use xlink:href="#DejaVuSans-35" x="63.623047"/>
       <use xlink:href="#DejaVuSans-30" x="127.246094"/>
       <use xlink:href="#DejaVuSans-30" x="190.869141"/>
      </g>
     </g>
    </g>
   </g>
   <g id="line2d_18">
    <path d="M 55.882727 261.216 
L 72.197026 192.509752 
L 88.511325 143.281725 
L 104.825624 108.009844 
L 121.139922 82.737541 
L 137.454221 64.629936 
L 153.76852 51.655837 
L 170.082819 42.359895 
L 186.397117 35.699353 
L 202.711416 30.927074 
L 219.025715 27.507736 
L 235.340014 25.057781 
L 251.654312 23.302388 
L 267.968611 22.044649 
L 284.28291 21.143479 
L 300.597209 20.49779 
L 316.911508 20.035155 
L 333.225806 19.703676 
L 349.540105 19.466172 
L 365.854404 19.296 
" clip-path="url(#p0204a2a548)" style="fill: none; stroke: #1f77b4; stroke-width: 1.5; stroke-linecap: square"/>
   </g>
   <g id="line2d_19">
    <path d="M 55.882727 261.216 
L 72.197026 261.216 
L 88.511325 238.313917 
L 104.825624 210.146646 
L 121.139922 183.928275 
L 137.454221 162.043662 
L 153.76852 144.772234 
L 170.082819 131.580383 
L 186.397117 121.709039 
L 202.711416 114.420911 
L 219.025715 109.088426 
L 235.340014 105.210949 
L 251.654312 102.4036 
L 267.968611 100.377177 
L 284.28291 98.917564 
L 300.597209 97.867809 
L 316.911508 97.113636 
L 333.225806 96.572231 
L 349.540105 96.183781 
L 365.854404 95.905183 
" clip-path="url(#p0204a2a548)" style="fill: none; stroke: #ff7f0e; stroke-width: 1.5; stroke-linecap: square"/>
   </g>
   <g id="line2d_20">
    <path d="M 55.882727 261.216 
L 57.514157 253.5209 
L 60.777017 239.367413 
L 64.039877 227.824763 
L 65.671307 223.152739 
L 67.302736 216.763057 
L 68.934166 211.335264 
L 70.565596 208.10607 
L 72.197026 204.395933 
L 73.828456 199.998733 
L 75.459886 195.120589 
L 77.091316 191.204333 
L 78.722746 185.020771 
L 80.354175 182.890877 
L 83.617035 173.13459 
L 85.248465 170.180221 
L 86.879895 166.744909 
L 88.511325 164.271484 
L 90.142755 161.248409 
L 91.774185 157.538272 
L 93.405614 155.270965 
L 95.037044 151.629534 
L 98.299904 146.407859 
L 99.931334 142.903841 
L 101.562764 141.186185 
L 103.194194 137.750872 
L 104.825624 133.697203 
L 106.457053 130.674129 
L 108.088483 129.643535 
L 109.719913 127.582347 
L 111.351343 125.177629 
L 112.982773 121.811023 
L 114.614203 119.681129 
L 116.245633 118.650535 
L 117.877063 116.864173 
L 119.508492 115.764873 
L 121.139922 114.047216 
L 122.771352 112.604385 
L 126.034212 106.626942 
L 127.665642 104.290929 
L 129.297072 101.542679 
L 130.928502 101.817504 
L 132.559931 98.863136 
L 134.191361 98.038661 
L 135.822791 95.840061 
L 137.454221 93.29793 
L 139.085651 91.855098 
L 140.717081 91.168036 
L 142.348511 89.519086 
L 143.979941 88.282373 
L 145.61137 88.763317 
L 147.2428 86.289892 
L 148.87423 85.396711 
L 150.50566 83.40423 
L 152.13709 82.442342 
L 153.76852 82.098811 
L 155.39995 81.411749 
L 157.03138 81.274336 
L 158.66281 79.55668 
L 160.294239 78.251261 
L 161.925669 77.701611 
L 163.557099 77.770317 
L 165.188529 76.602311 
L 166.819959 75.777836 
L 168.451389 75.090774 
L 170.082819 74.747243 
L 171.714249 72.96088 
L 173.345678 73.373118 
L 174.977108 73.235705 
L 176.608538 73.373118 
L 178.239968 72.548643 
L 179.871398 70.075218 
L 181.502828 68.01403 
L 183.134258 66.502493 
L 184.765688 65.81543 
L 186.397117 65.952843 
L 188.028547 65.334487 
L 189.659977 65.746724 
L 191.291407 65.403193 
L 192.922837 66.777318 
L 194.554267 66.227668 
L 196.185697 64.578718 
L 197.817127 65.128368 
L 199.448556 63.273299 
L 201.079986 64.510012 
L 202.711416 64.784837 
L 204.342846 64.71613 
L 207.605706 60.31893 
L 209.237136 61.280818 
L 210.868566 60.112812 
L 212.499995 59.494455 
L 214.131425 58.051624 
L 215.762855 58.120331 
L 217.394285 59.150924 
L 219.025715 59.013512 
L 220.657145 60.387637 
L 222.288575 59.906693 
L 223.920005 60.181518 
L 225.551434 59.76928 
L 227.182864 60.662462 
L 228.814294 61.143405 
L 230.445724 62.311412 
L 232.077154 61.005993 
L 233.708584 62.998474 
L 235.340014 62.105293 
L 236.971444 61.555643 
L 238.602873 59.975399 
L 240.234303 60.593755 
L 241.865733 59.288337 
L 243.497163 58.601274 
L 248.391453 59.76928 
L 250.022883 60.86858 
L 251.654312 60.456343 
L 253.285742 60.731168 
L 254.917172 60.31893 
L 256.548602 60.86858 
L 258.180032 60.044105 
L 259.811462 60.112812 
L 261.442892 59.837987 
L 263.074322 59.425749 
L 264.705751 57.433268 
L 266.337181 56.814912 
L 267.968611 58.395156 
L 269.600041 59.21963 
L 271.231471 59.150924 
L 274.494331 59.76928 
L 276.125761 60.731168 
L 277.75719 61.830468 
L 279.38862 62.380118 
L 281.02005 63.06718 
L 282.65148 63.273299 
L 284.28291 64.441305 
L 285.91434 65.334487 
L 287.54577 66.021549 
L 289.1772 65.197074 
L 290.80863 64.029068 
L 294.071489 65.471899 
L 295.702919 65.884137 
L 297.334349 66.639905 
L 298.965779 65.81543 
L 300.597209 64.16648 
L 302.228639 63.548124 
L 303.860069 64.647424 
L 307.122928 64.578718 
L 308.754358 64.922249 
L 310.385788 64.578718 
L 313.648648 62.861062 
L 315.280078 61.761762 
L 316.911508 61.761762 
L 318.542937 61.212112 
L 320.174367 62.51753 
L 321.805797 62.723649 
L 323.437227 63.342005 
L 326.700087 63.754243 
L 328.331517 65.26578 
L 329.962947 64.922249 
L 331.594376 62.998474 
L 333.225806 61.899174 
L 334.857236 62.242705 
L 336.488666 62.242705 
L 338.120096 61.41823 
L 339.751526 62.036587 
L 341.382956 62.311412 
L 343.014386 60.731168 
L 344.645815 60.044105 
L 346.277245 59.563162 
L 347.908675 59.837987 
L 349.540105 59.700574 
L 351.171535 60.86858 
L 352.802965 60.937287 
L 354.434395 59.975399 
L 356.065825 58.66998 
L 357.697254 57.021031 
L 359.328684 57.708093 
L 360.960114 57.227149 
L 364.222974 59.082218 
L 367.485834 58.051624 
L 369.117264 56.196556 
L 370.748693 55.509493 
L 372.380123 55.372081 
L 374.011553 53.791837 
L 375.642983 53.173481 
L 377.274413 53.310893 
L 378.905843 54.272781 
L 380.537273 53.036068 
L 380.537273 53.036068 
" clip-path="url(#p0204a2a548)" style="fill: none; stroke: #2ca02c; stroke-width: 1.5; stroke-linecap: square"/>
   </g>
   <g id="line2d_21">
    <path d="M 55.882727 261.216 
L 59.145587 261.009881 
L 60.777017 260.391525 
L 62.408447 259.154813 
L 64.039877 258.330338 
L 67.302736 255.925619 
L 68.934166 255.101144 
L 72.197026 252.559013 
L 73.828456 251.665832 
L 75.459886 249.604644 
L 77.091316 248.642757 
L 78.722746 247.818282 
L 80.354175 246.031919 
L 83.617035 243.352375 
L 85.248465 241.291188 
L 86.879895 238.886469 
L 88.511325 235.863394 
L 90.142755 233.939619 
L 91.774185 233.115145 
L 93.405614 231.122663 
L 95.037044 229.611126 
L 96.668474 228.305707 
L 98.299904 227.412526 
L 99.931334 225.763576 
L 101.562764 224.320745 
L 103.194194 224.252039 
L 104.825624 223.427564 
L 106.457053 222.190851 
L 108.088483 219.786132 
L 109.719913 217.724945 
L 111.351343 216.556939 
L 114.614203 215.388932 
L 116.245633 213.877395 
L 117.877063 211.884914 
L 121.139922 208.999251 
L 122.771352 207.00677 
L 124.402782 205.701352 
L 126.034212 204.052402 
L 127.665642 202.815689 
L 129.297072 202.266039 
L 130.928502 199.586495 
L 132.559931 197.731427 
L 134.191361 196.082477 
L 135.822791 195.051883 
L 137.454221 194.227408 
L 139.085651 193.128108 
L 140.717081 191.479158 
L 142.348511 190.654683 
L 143.979941 189.349264 
L 145.61137 187.837727 
L 147.2428 187.081958 
L 148.87423 186.051365 
L 150.50566 186.532308 
L 152.13709 186.32619 
L 153.76852 185.501715 
L 155.39995 184.333708 
L 157.03138 182.066402 
L 158.66281 183.165702 
L 160.294239 181.722871 
L 161.925669 181.173221 
L 163.557099 179.592977 
L 165.188529 179.043327 
L 168.451389 176.43249 
L 170.082819 176.363784 
L 171.714249 175.401896 
L 173.345678 173.959065 
L 174.977108 173.68424 
L 176.608538 172.58494 
L 178.239968 173.68424 
L 179.871398 175.676721 
L 181.502828 176.363784 
L 183.134258 175.745427 
L 184.765688 176.157665 
L 186.397117 176.088959 
L 188.028547 176.501196 
L 189.659977 174.989659 
L 191.291407 173.890359 
L 192.922837 171.966584 
L 194.554267 172.859765 
L 196.185697 173.340709 
L 197.817127 173.13459 
L 199.448556 173.409415 
L 201.079986 172.722352 
L 202.711416 172.172702 
L 204.342846 170.592459 
L 205.974276 170.729871 
L 207.605706 171.073402 
L 209.237136 168.531271 
L 210.868566 167.912915 
L 212.499995 168.73739 
L 214.131425 168.531271 
L 215.762855 167.844209 
L 217.394285 165.783021 
L 219.025715 165.783021 
L 220.657145 164.202778 
L 222.288575 163.721834 
L 223.920005 162.622534 
L 225.551434 163.447009 
L 228.814294 162.416415 
L 230.445724 162.004178 
L 232.077154 163.24089 
L 233.708584 162.622534 
L 235.340014 162.828653 
L 236.971444 163.584421 
L 238.602873 164.065365 
L 240.234303 164.752428 
L 241.865733 163.378303 
L 243.497163 164.271484 
L 245.128593 164.683721 
L 246.760023 165.302078 
L 248.391453 162.828653 
L 250.022883 162.14159 
L 251.654312 162.69124 
L 253.285742 160.904878 
L 254.917172 161.59194 
L 256.548602 162.072884 
L 258.180032 162.14159 
L 259.811462 161.660646 
L 261.442892 162.553828 
L 264.705751 163.172184 
L 266.337181 164.477603 
L 267.968611 163.996659 
L 269.600041 163.103478 
L 272.862901 161.110996 
L 274.494331 161.59194 
L 276.125761 160.698759 
L 277.75719 160.423934 
L 279.38862 160.286521 
L 281.02005 160.698759 
L 282.65148 160.973584 
L 284.28291 159.94299 
L 285.91434 159.94299 
L 287.54577 160.080403 
L 289.1772 160.355228 
L 290.80863 160.767465 
L 292.440059 161.454528 
L 294.071489 160.217815 
L 295.702919 159.324634 
L 297.334349 160.561346 
L 298.965779 161.523234 
L 300.597209 161.248409 
L 302.228639 161.179703 
L 303.860069 160.355228 
L 305.491498 161.454528 
L 307.122928 160.836171 
L 308.754358 162.279003 
L 310.385788 162.622534 
L 312.017218 163.24089 
L 313.648648 163.172184 
L 315.280078 163.24089 
L 316.911508 163.653128 
L 318.542937 163.24089 
L 320.174367 162.279003 
L 321.805797 164.615015 
L 323.437227 163.034771 
L 325.068657 163.172184 
L 326.700087 162.759946 
L 328.331517 163.172184 
L 329.962947 163.24089 
L 331.594376 163.721834 
L 333.225806 163.721834 
L 334.857236 164.683721 
L 336.488666 164.408896 
L 338.120096 163.584421 
L 339.751526 162.347709 
L 341.382956 161.317115 
L 343.014386 161.729353 
L 344.645815 161.385821 
L 346.277245 161.317115 
L 347.908675 162.759946 
L 349.540105 161.935471 
L 351.171535 160.698759 
L 352.802965 159.805578 
L 354.434395 160.904878 
L 356.065825 161.454528 
L 357.697254 161.59194 
L 359.328684 160.698759 
L 360.960114 160.561346 
L 362.591544 160.836171 
L 364.222974 161.523234 
L 365.854404 161.523234 
L 367.485834 160.836171 
L 369.117264 162.279003 
L 370.748693 161.935471 
L 372.380123 162.14159 
L 374.011553 162.897359 
L 375.642983 164.202778 
L 377.274413 162.485121 
L 378.905843 161.523234 
L 380.537273 161.660646 
L 380.537273 161.660646 
" clip-path="url(#p0204a2a548)" style="fill: none; stroke: #d62728; stroke-width: 1.5; stroke-linecap: square"/>
   </g>
   <g id="patch_3">
    <path d="M 39.65 273.312 
L 39.65 7.2 
" style="fill: none; stroke: #000000; stroke-width: 0.8; stroke-linejoin: miter; stroke-linecap: square"/>
   </g>
   <g id="patch_4">
    <path d="M 396.77 273.312 
L 396.77 7.2 
" style="fill: none; stroke: #000000; stroke-width: 0.8; stroke-linejoin: miter; stroke-linecap: square"/>
   </g>
   <g id="patch_5">
    <path d="M 39.65 273.312 
L 396.77 273.312 
" style="fill: none; stroke: #000000; stroke-width: 0.8; stroke-linejoin: miter; stroke-linecap: square"/>
   </g>
   <g id="patch_6">
    <path d="M 39.65 7.2 
L 396.77 7.2 
" style="fill: none; stroke: #000000; stroke-width: 0.8; stroke-linejoin: miter; stroke-linecap: square"/>
   </g>
  </g>
 </g>
 <defs>
  <clipPath id="p0204a2a548">
   <rect x="39.65" y="7.2" width="357.12" height="266.112"/>
  </clipPath>
 </defs>
</svg>
