<?xml version="1.0" encoding="utf-8" standalone="no"?>
<!DOCTYPE svg PUBLIC "-//W3C//DTD SVG 1.1//EN"
  "http://www.w3.org/Graphics/SVG/1.1/DTD/svg11.dtd">
<svg xmlns:xlink="http://www.w3.org/1999/xlink" width="397.6075pt" height="297.190125pt" viewBox="0 0 397.6075 297.190125" xmlns="http://www.w3.org/2000/svg" version="1.1">
 <metadata>
  <rdf:RDF xmlns:dc="http://purl.org/dc/elements/1.1/" xmlns:cc="http://creativecommons.org/ns#" xmlns:rdf="http://www.w3.org/1999/02/22-rdf-syntax-ns#">
   <cc:Work>
    <dc:type rdf:resource="http://purl.org/dc/dcmitype/StillImage"/>
    <dc:date>2023-09-26T20:49:58.028923</dc:date>
    <dc:format>image/svg+xml</dc:format>
    <dc:creator>
     <cc:Agent>
      <dc:title>Matplotlib v3.8.0, https://matplotlib.org/</dc:title>
     </cc:Agent>
    </dc:creator>
   </cc:Work>
  </rdf:RDF>
 </metadata>
 <defs>
  <style type="text/css">*{stroke-linejoin: round; stroke-linecap: butt}</style>
 </defs>
 <g id="figure_1">
  <g id="patch_1">
   <path d="M 0 297.190125 
L 397.6075 297.190125 
L 397.6075 0 
L 0 0 
z
" style="fill: #ffffff"/>
  </g>
  <g id="axes_1">
   <g id="patch_2">
    <path d="M 33.2875 273.312 
L 390.4075 273.312 
L 390.4075 7.2 
L 33.2875 7.2 
z
" style="fill: #ffffff"/>
   </g>
   <g id="matplotlib.axis_1">
    <g id="xtick_1">
     <g id="line2d_1">
      <defs>
       <path id="m8b687961ea" d="M 0 0 
L 0 3.5 
" style="stroke: #000000; stroke-width: 0.8"/>
      </defs>
      <g>
       <use xlink:href="#m8b687961ea" x="49.520227" y="273.312" style="stroke: #000000; stroke-width: 0.8"/>
      </g>
     </g>
     <g id="text_1">
      <!-- 0.0 -->
      <g transform="translate(41.568665 287.910437) scale(0.1 -0.1)">
       <defs>
        <path id="DejaVuSans-30" d="M 2034 4250 
Q 1547 4250 1301 3770 
Q 1056 3291 1056 2328 
Q 1056 1369 1301 889 
Q 1547 409 2034 409 
Q 2525 409 2770 889 
Q 3016 1369 3016 2328 
Q 3016 3291 2770 3770 
Q 2525 4250 2034 4250 
z
M 2034 4750 
Q 2819 4750 3233 4129 
Q 3647 3509 3647 2328 
Q 3647 1150 3233 529 
Q 2819 -91 2034 -91 
Q 1250 -91 836 529 
Q 422 1150 422 2328 
Q 422 3509 836 4129 
Q 1250 4750 2034 4750 
z
" transform="scale(0.015625)"/>
        <path id="DejaVuSans-2e" d="M 684 794 
L 1344 794 
L 1344 0 
L 684 0 
L 684 794 
z
" transform="scale(0.015625)"/>
       </defs>
       <use xlink:href="#DejaVuSans-30"/>
       <use xlink:href="#DejaVuSans-2e" x="63.623047"/>
       <use xlink:href="#DejaVuSans-30" x="95.410156"/>
      </g>
     </g>
    </g>
    <g id="xtick_2">
     <g id="line2d_2">
      <g>
       <use xlink:href="#m8b687961ea" x="90.305974" y="273.312" style="stroke: #000000; stroke-width: 0.8"/>
      </g>
     </g>
     <g id="text_2">
      <!-- 2.5 -->
      <g transform="translate(82.354412 287.910437) scale(0.1 -0.1)">
       <defs>
        <path id="DejaVuSans-32" d="M 1228 531 
L 3431 531 
L 3431 0 
L 469 0 
L 469 531 
Q 828 903 1448 1529 
Q 2069 2156 2228 2338 
Q 2531 2678 2651 2914 
Q 2772 3150 2772 3378 
Q 2772 3750 2511 3984 
Q 2250 4219 1831 4219 
Q 1534 4219 1204 4116 
Q 875 4013 500 3803 
L 500 4441 
Q 881 4594 1212 4672 
Q 1544 4750 1819 4750 
Q 2544 4750 2975 4387 
Q 3406 4025 3406 3419 
Q 3406 3131 3298 2873 
Q 3191 2616 2906 2266 
Q 2828 2175 2409 1742 
Q 1991 1309 1228 531 
z
" transform="scale(0.015625)"/>
        <path id="DejaVuSans-35" d="M 691 4666 
L 3169 4666 
L 3169 4134 
L 1269 4134 
L 1269 2991 
Q 1406 3038 1543 3061 
Q 1681 3084 1819 3084 
Q 2600 3084 3056 2656 
Q 3513 2228 3513 1497 
Q 3513 744 3044 326 
Q 2575 -91 1722 -91 
Q 1428 -91 1123 -41 
Q 819 9 494 109 
L 494 744 
Q 775 591 1075 516 
Q 1375 441 1709 441 
Q 2250 441 2565 725 
Q 2881 1009 2881 1497 
Q 2881 1984 2565 2268 
Q 2250 2553 1709 2553 
Q 1456 2553 1204 2497 
Q 953 2441 691 2322 
L 691 4666 
z
" transform="scale(0.015625)"/>
       </defs>
       <use xlink:href="#DejaVuSans-32"/>
       <use xlink:href="#DejaVuSans-2e" x="63.623047"/>
       <use xlink:href="#DejaVuSans-35" x="95.410156"/>
      </g>
     </g>
    </g>
    <g id="xtick_3">
     <g id="line2d_3">
      <g>
       <use xlink:href="#m8b687961ea" x="131.091721" y="273.312" style="stroke: #000000; stroke-width: 0.8"/>
      </g>
     </g>
     <g id="text_3">
      <!-- 5.0 -->
      <g transform="translate(123.140159 287.910437) scale(0.1 -0.1)">
       <use xlink:href="#DejaVuSans-35"/>
       <use xlink:href="#DejaVuSans-2e" x="63.623047"/>
       <use xlink:href="#DejaVuSans-30" x="95.410156"/>
      </g>
     </g>
    </g>
    <g id="xtick_4">
     <g id="line2d_4">
      <g>
       <use xlink:href="#m8b687961ea" x="171.877468" y="273.312" style="stroke: #000000; stroke-width: 0.8"/>
      </g>
     </g>
     <g id="text_4">
      <!-- 7.5 -->
      <g transform="translate(163.925906 287.910437) scale(0.1 -0.1)">
       <defs>
        <path id="DejaVuSans-37" d="M 525 4666 
L 3525 4666 
L 3525 4397 
L 1831 0 
L 1172 0 
L 2766 4134 
L 525 4134 
L 525 4666 
z
" transform="scale(0.015625)"/>
       </defs>
       <use xlink:href="#DejaVuSans-37"/>
       <use xlink:href="#DejaVuSans-2e" x="63.623047"/>
       <use xlink:href="#DejaVuSans-35" x="95.410156"/>
      </g>
     </g>
    </g>
    <g id="xtick_5">
     <g id="line2d_5">
      <g>
       <use xlink:href="#m8b687961ea" x="212.663215" y="273.312" style="stroke: #000000; stroke-width: 0.8"/>
      </g>
     </g>
     <g id="text_5">
      <!-- 10.0 -->
      <g transform="translate(201.530402 287.910437) scale(0.1 -0.1)">
       <defs>
        <path id="DejaVuSans-31" d="M 794 531 
L 1825 531 
L 1825 4091 
L 703 3866 
L 703 4441 
L 1819 4666 
L 2450 4666 
L 2450 531 
L 3481 531 
L 3481 0 
L 794 0 
L 794 531 
z
" transform="scale(0.015625)"/>
       </defs>
       <use xlink:href="#DejaVuSans-31"/>
       <use xlink:href="#DejaVuSans-30" x="63.623047"/>
       <use xlink:href="#DejaVuSans-2e" x="127.246094"/>
       <use xlink:href="#DejaVuSans-30" x="159.033203"/>
      </g>
     </g>
    </g>
    <g id="xtick_6">
     <g id="line2d_6">
      <g>
       <use xlink:href="#m8b687961ea" x="253.448962" y="273.312" style="stroke: #000000; stroke-width: 0.8"/>
      </g>
     </g>
     <g id="text_6">
      <!-- 12.5 -->
      <g transform="translate(242.316149 287.910437) scale(0.1 -0.1)">
       <use xlink:href="#DejaVuSans-31"/>
       <use xlink:href="#DejaVuSans-32" x="63.623047"/>
       <use xlink:href="#DejaVuSans-2e" x="127.246094"/>
       <use xlink:href="#DejaVuSans-35" x="159.033203"/>
      </g>
     </g>
    </g>
    <g id="xtick_7">
     <g id="line2d_7">
      <g>
       <use xlink:href="#m8b687961ea" x="294.234709" y="273.312" style="stroke: #000000; stroke-width: 0.8"/>
      </g>
     </g>
     <g id="text_7">
      <!-- 15.0 -->
      <g transform="translate(283.101896 287.910437) scale(0.1 -0.1)">
       <use xlink:href="#DejaVuSans-31"/>
       <use xlink:href="#DejaVuSans-35" x="63.623047"/>
       <use xlink:href="#DejaVuSans-2e" x="127.246094"/>
       <use xlink:href="#DejaVuSans-30" x="159.033203"/>
      </g>
     </g>
    </g>
    <g id="xtick_8">
     <g id="line2d_8">
      <g>
       <use xlink:href="#m8b687961ea" x="335.020456" y="273.312" style="stroke: #000000; stroke-width: 0.8"/>
      </g>
     </g>
     <g id="text_8">
      <!-- 17.5 -->
      <g transform="translate(323.887643 287.910437) scale(0.1 -0.1)">
       <use xlink:href="#DejaVuSans-31"/>
       <use xlink:href="#DejaVuSans-37" x="63.623047"/>
       <use xlink:href="#DejaVuSans-2e" x="127.246094"/>
       <use xlink:href="#DejaVuSans-35" x="159.033203"/>
      </g>
     </g>
    </g>
    <g id="xtick_9">
     <g id="line2d_9">
      <g>
       <use xlink:href="#m8b687961ea" x="375.806203" y="273.312" style="stroke: #000000; stroke-width: 0.8"/>
      </g>
     </g>
     <g id="text_9">
      <!-- 20.0 -->
      <g transform="translate(364.67339 287.910437) scale(0.1 -0.1)">
       <use xlink:href="#DejaVuSans-32"/>
       <use xlink:href="#DejaVuSans-30" x="63.623047"/>
       <use xlink:href="#DejaVuSans-2e" x="127.246094"/>
       <use xlink:href="#DejaVuSans-30" x="159.033203"/>
      </g>
     </g>
    </g>
   </g>
   <g id="matplotlib.axis_2">
    <g id="ytick_1">
     <g id="line2d_10">
      <defs>
       <path id="m11c886429b" d="M 0 0 
L -3.5 0 
" style="stroke: #000000; stroke-width: 0.8"/>
      </defs>
      <g>
       <use xlink:href="#m11c886429b" x="33.2875" y="261.216" style="stroke: #000000; stroke-width: 0.8"/>
      </g>
     </g>
     <g id="text_10">
      <!-- 0 -->
      <g transform="translate(19.925 265.015219) scale(0.1 -0.1)">
       <use xlink:href="#DejaVuSans-30"/>
      </g>
     </g>
    </g>
    <g id="ytick_2">
     <g id="line2d_11">
      <g>
       <use xlink:href="#m11c886429b" x="33.2875" y="218.016" style="stroke: #000000; stroke-width: 0.8"/>
      </g>
     </g>
     <g id="text_11">
      <!-- 50 -->
      <g transform="translate(13.5625 221.815219) scale(0.1 -0.1)">
       <use xlink:href="#DejaVuSans-35"/>
       <use xlink:href="#DejaVuSans-30" x="63.623047"/>
      </g>
     </g>
    </g>
    <g id="ytick_3">
     <g id="line2d_12">
      <g>
       <use xlink:href="#m11c886429b" x="33.2875" y="174.816" style="stroke: #000000; stroke-width: 0.8"/>
      </g>
     </g>
     <g id="text_12">
      <!-- 100 -->
      <g transform="translate(7.2 178.615219) scale(0.1 -0.1)">
       <use xlink:href="#DejaVuSans-31"/>
       <use xlink:href="#DejaVuSans-30" x="63.623047"/>
       <use xlink:href="#DejaVuSans-30" x="127.246094"/>
      </g>
     </g>
    </g>
    <g id="ytick_4">
     <g id="line2d_13">
      <g>
       <use xlink:href="#m11c886429b" x="33.2875" y="131.616" style="stroke: #000000; stroke-width: 0.8"/>
      </g>
     </g>
     <g id="text_13">
      <!-- 150 -->
      <g transform="translate(7.2 135.415219) scale(0.1 -0.1)">
       <use xlink:href="#DejaVuSans-31"/>
       <use xlink:href="#DejaVuSans-35" x="63.623047"/>
       <use xlink:href="#DejaVuSans-30" x="127.246094"/>
      </g>
     </g>
    </g>
    <g id="ytick_5">
     <g id="line2d_14">
      <g>
       <use xlink:href="#m11c886429b" x="33.2875" y="88.416" style="stroke: #000000; stroke-width: 0.8"/>
      </g>
     </g>
     <g id="text_14">
      <!-- 200 -->
      <g transform="translate(7.2 92.215219) scale(0.1 -0.1)">
       <use xlink:href="#DejaVuSans-32"/>
       <use xlink:href="#DejaVuSans-30" x="63.623047"/>
       <use xlink:href="#DejaVuSans-30" x="127.246094"/>
      </g>
     </g>
    </g>
    <g id="ytick_6">
     <g id="line2d_15">
      <g>
       <use xlink:href="#m11c886429b" x="33.2875" y="45.216" style="stroke: #000000; stroke-width: 0.8"/>
      </g>
     </g>
     <g id="text_15">
      <!-- 250 -->
      <g transform="translate(7.2 49.015219) scale(0.1 -0.1)">
       <use xlink:href="#DejaVuSans-32"/>
       <use xlink:href="#DejaVuSans-35" x="63.623047"/>
       <use xlink:href="#DejaVuSans-30" x="127.246094"/>
      </g>
     </g>
    </g>
   </g>
   <g id="line2d_16">
    <path d="M 49.520227 261.216 
L 53.598802 45.216 
L 57.677377 45.216 
L 61.755951 45.216 
L 65.834526 45.216 
L 69.913101 45.216 
L 73.991675 45.216 
L 78.07025 45.216 
L 82.148825 45.216 
L 86.227399 45.216 
L 90.305974 45.216 
L 94.384549 45.216 
L 98.463124 45.216 
L 102.541698 45.216 
L 106.620273 45.216 
L 110.698848 45.216 
L 114.777422 45.216 
L 118.855997 45.216 
L 122.934572 45.216 
L 127.013146 45.216 
L 131.091721 45.216 
L 135.170296 45.216 
L 139.24887 45.216 
L 143.327445 45.216 
L 147.40602 45.216 
L 151.484595 45.216 
L 155.563169 45.216 
L 159.641744 45.216 
L 163.720319 45.216 
L 167.798893 45.216 
L 171.877468 45.216 
L 175.956043 45.216 
L 180.034617 45.216 
L 184.113192 45.216 
L 188.191767 45.216 
L 192.270341 45.216 
L 196.348916 45.216 
L 200.427491 45.216 
L 204.506066 45.216 
L 208.58464 45.216 
L 212.663215 45.216 
L 216.74179 45.216 
L 220.820364 45.216 
L 224.898939 45.216 
L 228.977514 45.216 
L 233.056088 45.216 
L 237.134663 45.216 
L 241.213238 45.216 
L 245.291812 45.216 
L 249.370387 45.216 
L 253.448962 45.216 
L 257.527537 45.216 
L 261.606111 45.216 
L 265.684686 45.216 
L 269.763261 45.216 
L 273.841835 45.216 
L 277.92041 45.216 
L 281.998985 45.216 
L 286.077559 45.216 
L 290.156134 45.216 
L 294.234709 45.216 
L 298.313283 45.216 
L 302.391858 45.216 
L 306.470433 45.216 
L 310.549008 45.216 
L 314.627582 45.216 
L 318.706157 45.216 
L 322.784732 45.216 
L 326.863306 45.216 
L 330.941881 45.216 
L 335.020456 45.216 
L 339.09903 45.216 
L 343.177605 45.216 
L 347.25618 45.216 
L 351.334754 45.216 
L 355.413329 45.216 
L 359.491904 45.216 
L 363.570479 45.216 
L 367.649053 45.216 
L 371.727628 45.216 
" clip-path="url(#p0f5926bba7)" style="fill: none; stroke: #1f77b4; stroke-width: 1.5; stroke-linecap: square"/>
   </g>
   <g id="line2d_17">
    <path d="M 49.520227 261.216 
L 53.598802 261.216 
L 57.677377 45.216 
L 61.755951 45.216 
L 65.834526 45.216 
L 69.913101 45.216 
L 73.991675 45.216 
L 78.07025 45.216 
L 82.148825 45.216 
L 86.227399 45.216 
L 90.305974 45.216 
L 94.384549 45.216 
L 98.463124 45.216 
L 102.541698 45.216 
L 106.620273 45.216 
L 110.698848 45.216 
L 114.777422 45.216 
L 118.855997 45.216 
L 122.934572 45.216 
L 127.013146 45.216 
L 131.091721 45.216 
L 135.170296 45.216 
L 139.24887 45.216 
L 143.327445 45.216 
L 147.40602 45.216 
L 151.484595 45.216 
L 155.563169 45.216 
L 159.641744 45.216 
L 163.720319 45.216 
L 167.798893 45.216 
L 171.877468 45.216 
L 175.956043 45.216 
L 180.034617 45.216 
L 184.113192 45.216 
L 188.191767 45.216 
L 192.270341 45.216 
L 196.348916 45.216 
L 200.427491 45.216 
L 204.506066 45.216 
L 208.58464 45.216 
L 212.663215 45.216 
L 216.74179 45.216 
L 220.820364 45.216 
L 224.898939 45.216 
L 228.977514 45.216 
L 233.056088 45.216 
L 237.134663 45.216 
L 241.213238 45.216 
L 245.291812 45.216 
L 249.370387 45.216 
L 253.448962 45.216 
L 257.527537 45.216 
L 261.606111 45.216 
L 265.684686 45.216 
L 269.763261 45.216 
L 273.841835 45.216 
L 277.92041 45.216 
L 281.998985 45.216 
L 286.077559 45.216 
L 290.156134 45.216 
L 294.234709 45.216 
L 298.313283 45.216 
L 302.391858 45.216 
L 306.470433 45.216 
L 310.549008 45.216 
L 314.627582 45.216 
L 318.706157 45.216 
L 322.784732 45.216 
L 326.863306 45.216 
L 330.941881 45.216 
L 335.020456 45.216 
L 339.09903 45.216 
L 343.177605 45.216 
L 347.25618 45.216 
L 351.334754 45.216 
L 355.413329 45.216 
L 359.491904 45.216 
L 363.570479 45.216 
L 367.649053 45.216 
L 371.727628 45.216 
" clip-path="url(#p0f5926bba7)" style="fill: none; stroke: #ff7f0e; stroke-width: 1.5; stroke-linecap: square"/>
   </g>
   <g id="line2d_18">
    <path d="M 49.520227 261.216 
L 51.151657 194.688 
L 52.783087 147.168 
L 54.414517 117.792 
L 56.045947 96.192 
L 57.677377 82.368 
L 59.308807 56.448 
L 60.940236 51.264 
L 62.571666 48.672 
L 64.203096 37.44 
L 65.834526 31.392 
L 67.465956 22.752 
L 69.097386 37.44 
L 70.728816 59.904 
L 72.360246 52.128 
L 73.991675 52.128 
L 75.623105 43.488 
L 77.254535 46.08 
L 78.885965 56.448 
L 80.517395 48.672 
L 82.148825 53.856 
L 85.411685 60.768 
L 87.043114 48.672 
L 88.674544 50.4 
L 90.305974 46.08 
L 91.937404 48.672 
L 93.568834 59.904 
L 95.200264 55.584 
L 96.831694 57.312 
L 98.463124 47.808 
L 100.094553 47.808 
L 101.725983 63.36 
L 103.357413 60.768 
L 104.988843 49.536 
L 106.620273 48.672 
L 108.251703 43.488 
L 109.883133 40.032 
L 111.514563 46.944 
L 113.145992 44.352 
L 114.777422 52.992 
L 118.040282 47.808 
L 119.671712 50.4 
L 121.303142 40.032 
L 122.934572 47.808 
L 124.566002 52.992 
L 126.197431 45.216 
L 127.828861 47.808 
L 129.460291 49.536 
L 131.091721 52.128 
L 132.723151 52.992 
L 134.354581 52.992 
L 135.986011 56.448 
L 137.617441 65.952 
L 139.24887 53.856 
L 140.8803 53.856 
L 142.51173 48.672 
L 144.14316 42.624 
L 145.77459 49.536 
L 147.40602 46.08 
L 149.03745 38.304 
L 150.66888 52.128 
L 152.30031 41.76 
L 153.931739 46.08 
L 155.563169 47.808 
L 157.194599 45.216 
L 158.826029 41.76 
L 160.457459 52.128 
L 162.088889 48.672 
L 163.720319 44.352 
L 165.351749 57.312 
L 166.983178 41.76 
L 168.614608 48.672 
L 170.246038 47.808 
L 171.877468 43.488 
L 173.508898 46.944 
L 175.140328 59.904 
L 176.771758 59.904 
L 178.403188 56.448 
L 180.034617 51.264 
L 181.666047 42.624 
L 184.928907 47.808 
L 186.560337 45.216 
L 188.191767 50.4 
L 189.823197 44.352 
L 191.454627 47.808 
L 193.086056 59.904 
L 194.717486 52.128 
L 196.348916 53.856 
L 197.980346 53.856 
L 199.611776 64.224 
L 201.243206 47.808 
L 202.874636 63.36 
L 204.506066 74.592 
L 206.137495 71.136 
L 207.768925 63.36 
L 209.400355 40.896 
L 211.031785 45.216 
L 212.663215 33.12 
L 214.294645 44.352 
L 215.926075 40.032 
L 217.557505 39.168 
L 219.188934 48.672 
L 220.820364 51.264 
L 222.451794 48.672 
L 224.083224 42.624 
L 225.714654 37.44 
L 227.346084 50.4 
L 228.977514 49.536 
L 232.240373 49.536 
L 235.503233 51.264 
L 237.134663 49.536 
L 238.766093 55.584 
L 240.397523 40.896 
L 242.028953 46.08 
L 243.660383 38.304 
L 245.291812 47.808 
L 246.923242 61.632 
L 250.186102 54.72 
L 251.817532 48.672 
L 253.448962 48.672 
L 255.080392 43.488 
L 256.711822 46.08 
L 258.343251 40.032 
L 259.974681 39.168 
L 261.606111 51.264 
L 263.237541 47.808 
L 264.868971 51.264 
L 266.500401 46.08 
L 268.131831 61.632 
L 269.763261 50.4 
L 271.39469 45.216 
L 273.02612 46.944 
L 274.65755 47.808 
L 276.28898 35.712 
L 277.92041 37.44 
L 279.55184 53.856 
L 281.18327 53.856 
L 282.8147 52.128 
L 284.44613 51.264 
L 286.077559 40.896 
L 287.708989 35.712 
L 289.340419 52.128 
L 290.971849 41.76 
L 292.603279 45.216 
L 294.234709 41.76 
L 295.866139 46.944 
L 297.497569 45.216 
L 299.128998 48.672 
L 300.760428 40.896 
L 302.391858 51.264 
L 304.023288 50.4 
L 305.654718 51.264 
L 307.286148 53.856 
L 308.917578 61.632 
L 310.549008 59.04 
L 312.180437 62.496 
L 313.811867 52.992 
L 315.443297 57.312 
L 317.074727 46.944 
L 318.706157 46.08 
L 320.337587 23.616 
L 321.969017 41.76 
L 323.600447 45.216 
L 325.231876 31.392 
L 326.863306 31.392 
L 328.494736 32.256 
L 330.126166 30.528 
L 331.757596 35.712 
L 333.389026 41.76 
L 335.020456 49.536 
L 336.651886 52.128 
L 338.283315 39.168 
L 339.914745 40.032 
L 341.546175 35.712 
L 343.177605 39.168 
L 344.809035 37.44 
L 346.440465 37.44 
L 348.071895 43.488 
L 349.703325 52.992 
L 351.334754 44.352 
L 352.966184 38.304 
L 354.597614 49.536 
L 356.229044 40.032 
L 357.860474 56.448 
L 359.491904 52.128 
L 361.123334 45.216 
L 362.754764 40.032 
L 364.386193 49.536 
L 366.017623 42.624 
L 367.649053 50.4 
L 369.280483 43.488 
L 370.911913 54.72 
L 372.543343 52.992 
L 374.174773 44.352 
L 374.174773 44.352 
" clip-path="url(#p0f5926bba7)" style="fill: none; stroke: #2ca02c; stroke-width: 1.5; stroke-linecap: square"/>
   </g>
   <g id="line2d_19">
    <path d="M 49.520227 261.216 
L 51.151657 243.936 
L 52.783087 221.472 
L 54.414517 188.64 
L 56.045947 166.176 
L 57.677377 137.664 
L 59.308807 116.928 
L 60.940236 98.784 
L 62.571666 91.008 
L 64.203096 97.92 
L 65.834526 81.504 
L 67.465956 72 
L 69.097386 52.128 
L 70.728816 41.76 
L 72.360246 45.216 
L 73.991675 42.624 
L 75.623105 46.944 
L 77.254535 48.672 
L 78.885965 34.848 
L 80.517395 33.984 
L 82.148825 34.848 
L 83.780255 22.752 
L 85.411685 39.168 
L 87.043114 48.672 
L 88.674544 33.984 
L 90.305974 38.304 
L 91.937404 45.216 
L 93.568834 28.8 
L 95.200264 31.392 
L 96.831694 37.44 
L 98.463124 30.528 
L 100.094553 27.072 
L 101.725983 27.936 
L 103.357413 29.664 
L 104.988843 40.896 
L 106.620273 47.808 
L 108.251703 45.216 
L 109.883133 40.896 
L 111.514563 40.896 
L 113.145992 43.488 
L 114.777422 25.344 
L 116.408852 31.392 
L 118.040282 30.528 
L 119.671712 37.44 
L 121.303142 35.712 
L 122.934572 21.888 
L 124.566002 27.936 
L 126.197431 34.848 
L 127.828861 33.984 
L 129.460291 41.76 
L 131.091721 40.896 
L 132.723151 40.896 
L 134.354581 48.672 
L 135.986011 46.08 
L 137.617441 37.44 
L 139.24887 47.808 
L 140.8803 43.488 
L 142.51173 63.36 
L 144.14316 65.088 
L 145.77459 53.856 
L 147.40602 52.992 
L 149.03745 49.536 
L 150.66888 27.936 
L 152.30031 42.624 
L 153.931739 42.624 
L 155.563169 46.944 
L 157.194599 48.672 
L 158.826029 70.272 
L 160.457459 61.632 
L 162.088889 58.176 
L 163.720319 48.672 
L 165.351749 38.304 
L 166.983178 60.768 
L 168.614608 45.216 
L 170.246038 52.128 
L 171.877468 55.584 
L 173.508898 46.08 
L 175.140328 35.712 
L 176.771758 35.712 
L 178.403188 55.584 
L 180.034617 59.904 
L 181.666047 76.32 
L 183.297477 54.72 
L 184.928907 54.72 
L 186.560337 49.536 
L 188.191767 46.944 
L 189.823197 46.08 
L 193.086056 30.528 
L 194.717486 39.168 
L 196.348916 33.12 
L 197.980346 59.04 
L 199.611776 52.992 
L 201.243206 64.224 
L 202.874636 49.536 
L 204.506066 25.344 
L 206.137495 31.392 
L 207.768925 52.992 
L 209.400355 64.224 
L 211.031785 50.4 
L 212.663215 53.856 
L 214.294645 33.984 
L 215.926075 37.44 
L 217.557505 29.664 
L 219.188934 21.024 
L 220.820364 37.44 
L 222.451794 35.712 
L 224.083224 48.672 
L 225.714654 44.352 
L 227.346084 19.296 
L 230.608944 31.392 
L 232.240373 40.032 
L 233.871803 44.352 
L 235.503233 47.808 
L 237.134663 45.216 
L 238.766093 36.576 
L 240.397523 40.896 
L 242.028953 48.672 
L 243.660383 50.4 
L 245.291812 46.944 
L 246.923242 23.616 
L 248.554672 51.264 
L 250.186102 42.624 
L 251.817532 52.992 
L 253.448962 46.08 
L 255.080392 52.128 
L 256.711822 56.448 
L 258.343251 51.264 
L 259.974681 62.496 
L 261.606111 52.128 
L 263.237541 57.312 
L 264.868971 53.856 
L 266.500401 47.808 
L 268.131831 30.528 
L 269.763261 53.856 
L 271.39469 61.632 
L 273.02612 46.944 
L 274.65755 47.808 
L 276.28898 59.04 
L 277.92041 59.904 
L 279.55184 44.352 
L 281.18327 46.08 
L 282.8147 33.984 
L 284.44613 45.216 
L 286.077559 57.312 
L 287.708989 64.224 
L 289.340419 43.488 
L 290.971849 62.496 
L 292.603279 49.536 
L 295.866139 44.352 
L 297.497569 40.896 
L 299.128998 33.984 
L 300.760428 41.76 
L 302.391858 35.712 
L 304.023288 37.44 
L 305.654718 37.44 
L 307.286148 26.208 
L 308.917578 22.752 
L 310.549008 28.8 
L 312.180437 33.12 
L 313.811867 35.712 
L 315.443297 32.256 
L 317.074727 40.896 
L 318.706157 47.808 
L 320.337587 56.448 
L 321.969017 40.032 
L 323.600447 45.216 
L 325.231876 49.536 
L 326.863306 40.896 
L 328.494736 38.304 
L 330.126166 40.032 
L 331.757596 33.12 
L 333.389026 23.616 
L 335.020456 21.024 
L 336.651886 32.256 
L 338.283315 57.312 
L 339.914745 56.448 
L 341.546175 48.672 
L 343.177605 44.352 
L 344.809035 61.632 
L 346.440465 56.448 
L 348.071895 52.128 
L 349.703325 41.76 
L 352.966184 60.768 
L 354.597614 46.944 
L 356.229044 65.088 
L 357.860474 54.72 
L 359.491904 55.584 
L 361.123334 50.4 
L 362.754764 50.4 
L 364.386193 33.984 
L 366.017623 48.672 
L 369.280483 52.128 
L 370.911913 26.208 
L 374.174773 38.304 
L 374.174773 38.304 
" clip-path="url(#p0f5926bba7)" style="fill: none; stroke: #d62728; stroke-width: 1.5; stroke-linecap: square"/>
   </g>
   <g id="patch_3">
    <path d="M 33.2875 273.312 
L 33.2875 7.2 
" style="fill: none; stroke: #000000; stroke-width: 0.8; stroke-linejoin: miter; stroke-linecap: square"/>
   </g>
   <g id="patch_4">
    <path d="M 390.4075 273.312 
L 390.4075 7.2 
" style="fill: none; stroke: #000000; stroke-width: 0.8; stroke-linejoin: miter; stroke-linecap: square"/>
   </g>
   <g id="patch_5">
    <path d="M 33.2875 273.312 
L 390.4075 273.312 
" style="fill: none; stroke: #000000; stroke-width: 0.8; stroke-linejoin: miter; stroke-linecap: square"/>
   </g>
   <g id="patch_6">
    <path d="M 33.2875 7.2 
L 390.4075 7.2 
" style="fill: none; stroke: #000000; stroke-width: 0.8; stroke-linejoin: miter; stroke-linecap: square"/>
   </g>
  </g>
 </g>
 <defs>
  <clipPath id="p0f5926bba7">
   <rect x="33.2875" y="7.2" width="357.12" height="266.112"/>
  </clipPath>
 </defs>
</svg>
