<?xml version="1.0" encoding="utf-8" standalone="no"?>
<!DOCTYPE svg PUBLIC "-//W3C//DTD SVG 1.1//EN"
  "http://www.w3.org/Graphics/SVG/1.1/DTD/svg11.dtd">
<svg xmlns:xlink="http://www.w3.org/1999/xlink" width="417.648125pt" height="310.86825pt" viewBox="0 0 417.648125 310.86825" xmlns="http://www.w3.org/2000/svg" version="1.1">
 <metadata>
  <rdf:RDF xmlns:dc="http://purl.org/dc/elements/1.1/" xmlns:cc="http://creativecommons.org/ns#" xmlns:rdf="http://www.w3.org/1999/02/22-rdf-syntax-ns#">
   <cc:Work>
    <dc:type rdf:resource="http://purl.org/dc/dcmitype/StillImage"/>
    <dc:date>2025-03-10T03:10:12.738314</dc:date>
    <dc:format>image/svg+xml</dc:format>
    <dc:creator>
     <cc:Agent>
      <dc:title>Matplotlib v3.10.1, https://matplotlib.org/</dc:title>
     </cc:Agent>
    </dc:creator>
   </cc:Work>
  </rdf:RDF>
 </metadata>
 <defs>
  <style type="text/css">*{stroke-linejoin: round; stroke-linecap: butt}</style>
 </defs>
 <g id="figure_1">
  <g id="patch_1">
   <path d="M 0 310.86825 
L 417.648125 310.86825 
L 417.648125 0 
L 0 0 
z
" style="fill: #ffffff"/>
  </g>
  <g id="axes_1">
   <g id="patch_2">
    <path d="M 53.328125 273.312 
L 410.448125 273.312 
L 410.448125 7.2 
L 53.328125 7.2 
z
" style="fill: #ffffff"/>
   </g>
   <g id="matplotlib.axis_1">
    <g id="xtick_1">
     <g id="line2d_1">
      <defs>
       <path id="mc95606daab" d="M 0 0 
L 0 3.5 
" style="stroke: #000000; stroke-width: 0.8"/>
      </defs>
      <g>
       <use xlink:href="#mc95606daab" x="69.560852" y="273.312" style="stroke: #000000; stroke-width: 0.8"/>
      </g>
     </g>
     <g id="text_1">
      <!-- 0.0 -->
      <g transform="translate(61.60929 287.910437) scale(0.1 -0.1)">
       <defs>
        <path id="DejaVuSans-30" d="M 2034 4250 
Q 1547 4250 1301 3770 
Q 1056 3291 1056 2328 
Q 1056 1369 1301 889 
Q 1547 409 2034 409 
Q 2525 409 2770 889 
Q 3016 1369 3016 2328 
Q 3016 3291 2770 3770 
Q 2525 4250 2034 4250 
z
M 2034 4750 
Q 2819 4750 3233 4129 
Q 3647 3509 3647 2328 
Q 3647 1150 3233 529 
Q 2819 -91 2034 -91 
Q 1250 -91 836 529 
Q 422 1150 422 2328 
Q 422 3509 836 4129 
Q 1250 4750 2034 4750 
z
" transform="scale(0.015625)"/>
        <path id="DejaVuSans-2e" d="M 684 794 
L 1344 794 
L 1344 0 
L 684 0 
L 684 794 
z
" transform="scale(0.015625)"/>
       </defs>
       <use xlink:href="#DejaVuSans-30"/>
       <use xlink:href="#DejaVuSans-2e" transform="translate(63.623047 0)"/>
       <use xlink:href="#DejaVuSans-30" transform="translate(95.410156 0)"/>
      </g>
     </g>
    </g>
    <g id="xtick_2">
     <g id="line2d_2">
      <g>
       <use xlink:href="#mc95606daab" x="110.346599" y="273.312" style="stroke: #000000; stroke-width: 0.8"/>
      </g>
     </g>
     <g id="text_2">
      <!-- 2.5 -->
      <g transform="translate(102.395037 287.910437) scale(0.1 -0.1)">
       <defs>
        <path id="DejaVuSans-32" d="M 1228 531 
L 3431 531 
L 3431 0 
L 469 0 
L 469 531 
Q 828 903 1448 1529 
Q 2069 2156 2228 2338 
Q 2531 2678 2651 2914 
Q 2772 3150 2772 3378 
Q 2772 3750 2511 3984 
Q 2250 4219 1831 4219 
Q 1534 4219 1204 4116 
Q 875 4013 500 3803 
L 500 4441 
Q 881 4594 1212 4672 
Q 1544 4750 1819 4750 
Q 2544 4750 2975 4387 
Q 3406 4025 3406 3419 
Q 3406 3131 3298 2873 
Q 3191 2616 2906 2266 
Q 2828 2175 2409 1742 
Q 1991 1309 1228 531 
z
" transform="scale(0.015625)"/>
        <path id="DejaVuSans-35" d="M 691 4666 
L 3169 4666 
L 3169 4134 
L 1269 4134 
L 1269 2991 
Q 1406 3038 1543 3061 
Q 1681 3084 1819 3084 
Q 2600 3084 3056 2656 
Q 3513 2228 3513 1497 
Q 3513 744 3044 326 
Q 2575 -91 1722 -91 
Q 1428 -91 1123 -41 
Q 819 9 494 109 
L 494 744 
Q 775 591 1075 516 
Q 1375 441 1709 441 
Q 2250 441 2565 725 
Q 2881 1009 2881 1497 
Q 2881 1984 2565 2268 
Q 2250 2553 1709 2553 
Q 1456 2553 1204 2497 
Q 953 2441 691 2322 
L 691 4666 
z
" transform="scale(0.015625)"/>
       </defs>
       <use xlink:href="#DejaVuSans-32"/>
       <use xlink:href="#DejaVuSans-2e" transform="translate(63.623047 0)"/>
       <use xlink:href="#DejaVuSans-35" transform="translate(95.410156 0)"/>
      </g>
     </g>
    </g>
    <g id="xtick_3">
     <g id="line2d_3">
      <g>
       <use xlink:href="#mc95606daab" x="151.132346" y="273.312" style="stroke: #000000; stroke-width: 0.8"/>
      </g>
     </g>
     <g id="text_3">
      <!-- 5.0 -->
      <g transform="translate(143.180784 287.910437) scale(0.1 -0.1)">
       <use xlink:href="#DejaVuSans-35"/>
       <use xlink:href="#DejaVuSans-2e" transform="translate(63.623047 0)"/>
       <use xlink:href="#DejaVuSans-30" transform="translate(95.410156 0)"/>
      </g>
     </g>
    </g>
    <g id="xtick_4">
     <g id="line2d_4">
      <g>
       <use xlink:href="#mc95606daab" x="191.918093" y="273.312" style="stroke: #000000; stroke-width: 0.8"/>
      </g>
     </g>
     <g id="text_4">
      <!-- 7.5 -->
      <g transform="translate(183.966531 287.910437) scale(0.1 -0.1)">
       <defs>
        <path id="DejaVuSans-37" d="M 525 4666 
L 3525 4666 
L 3525 4397 
L 1831 0 
L 1172 0 
L 2766 4134 
L 525 4134 
L 525 4666 
z
" transform="scale(0.015625)"/>
       </defs>
       <use xlink:href="#DejaVuSans-37"/>
       <use xlink:href="#DejaVuSans-2e" transform="translate(63.623047 0)"/>
       <use xlink:href="#DejaVuSans-35" transform="translate(95.410156 0)"/>
      </g>
     </g>
    </g>
    <g id="xtick_5">
     <g id="line2d_5">
      <g>
       <use xlink:href="#mc95606daab" x="232.70384" y="273.312" style="stroke: #000000; stroke-width: 0.8"/>
      </g>
     </g>
     <g id="text_5">
      <!-- 10.0 -->
      <g transform="translate(221.571027 287.910437) scale(0.1 -0.1)">
       <defs>
        <path id="DejaVuSans-31" d="M 794 531 
L 1825 531 
L 1825 4091 
L 703 3866 
L 703 4441 
L 1819 4666 
L 2450 4666 
L 2450 531 
L 3481 531 
L 3481 0 
L 794 0 
L 794 531 
z
" transform="scale(0.015625)"/>
       </defs>
       <use xlink:href="#DejaVuSans-31"/>
       <use xlink:href="#DejaVuSans-30" transform="translate(63.623047 0)"/>
       <use xlink:href="#DejaVuSans-2e" transform="translate(127.246094 0)"/>
       <use xlink:href="#DejaVuSans-30" transform="translate(159.033203 0)"/>
      </g>
     </g>
    </g>
    <g id="xtick_6">
     <g id="line2d_6">
      <g>
       <use xlink:href="#mc95606daab" x="273.489587" y="273.312" style="stroke: #000000; stroke-width: 0.8"/>
      </g>
     </g>
     <g id="text_6">
      <!-- 12.5 -->
      <g transform="translate(262.356774 287.910437) scale(0.1 -0.1)">
       <use xlink:href="#DejaVuSans-31"/>
       <use xlink:href="#DejaVuSans-32" transform="translate(63.623047 0)"/>
       <use xlink:href="#DejaVuSans-2e" transform="translate(127.246094 0)"/>
       <use xlink:href="#DejaVuSans-35" transform="translate(159.033203 0)"/>
      </g>
     </g>
    </g>
    <g id="xtick_7">
     <g id="line2d_7">
      <g>
       <use xlink:href="#mc95606daab" x="314.275334" y="273.312" style="stroke: #000000; stroke-width: 0.8"/>
      </g>
     </g>
     <g id="text_7">
      <!-- 15.0 -->
      <g transform="translate(303.142521 287.910437) scale(0.1 -0.1)">
       <use xlink:href="#DejaVuSans-31"/>
       <use xlink:href="#DejaVuSans-35" transform="translate(63.623047 0)"/>
       <use xlink:href="#DejaVuSans-2e" transform="translate(127.246094 0)"/>
       <use xlink:href="#DejaVuSans-30" transform="translate(159.033203 0)"/>
      </g>
     </g>
    </g>
    <g id="xtick_8">
     <g id="line2d_8">
      <g>
       <use xlink:href="#mc95606daab" x="355.061081" y="273.312" style="stroke: #000000; stroke-width: 0.8"/>
      </g>
     </g>
     <g id="text_8">
      <!-- 17.5 -->
      <g transform="translate(343.928268 287.910437) scale(0.1 -0.1)">
       <use xlink:href="#DejaVuSans-31"/>
       <use xlink:href="#DejaVuSans-37" transform="translate(63.623047 0)"/>
       <use xlink:href="#DejaVuSans-2e" transform="translate(127.246094 0)"/>
       <use xlink:href="#DejaVuSans-35" transform="translate(159.033203 0)"/>
      </g>
     </g>
    </g>
    <g id="xtick_9">
     <g id="line2d_9">
      <g>
       <use xlink:href="#mc95606daab" x="395.846828" y="273.312" style="stroke: #000000; stroke-width: 0.8"/>
      </g>
     </g>
     <g id="text_9">
      <!-- 20.0 -->
      <g transform="translate(384.714015 287.910437) scale(0.1 -0.1)">
       <use xlink:href="#DejaVuSans-32"/>
       <use xlink:href="#DejaVuSans-30" transform="translate(63.623047 0)"/>
       <use xlink:href="#DejaVuSans-2e" transform="translate(127.246094 0)"/>
       <use xlink:href="#DejaVuSans-30" transform="translate(159.033203 0)"/>
      </g>
     </g>
    </g>
    <g id="text_10">
     <!-- Time -->
     <g transform="translate(219.654531 301.588562) scale(0.1 -0.1)">
      <defs>
       <path id="DejaVuSans-54" d="M -19 4666 
L 3928 4666 
L 3928 4134 
L 2272 4134 
L 2272 0 
L 1638 0 
L 1638 4134 
L -19 4134 
L -19 4666 
z
" transform="scale(0.015625)"/>
       <path id="DejaVuSans-69" d="M 603 3500 
L 1178 3500 
L 1178 0 
L 603 0 
L 603 3500 
z
M 603 4863 
L 1178 4863 
L 1178 4134 
L 603 4134 
L 603 4863 
z
" transform="scale(0.015625)"/>
       <path id="DejaVuSans-6d" d="M 3328 2828 
Q 3544 3216 3844 3400 
Q 4144 3584 4550 3584 
Q 5097 3584 5394 3201 
Q 5691 2819 5691 2113 
L 5691 0 
L 5113 0 
L 5113 2094 
Q 5113 2597 4934 2840 
Q 4756 3084 4391 3084 
Q 3944 3084 3684 2787 
Q 3425 2491 3425 1978 
L 3425 0 
L 2847 0 
L 2847 2094 
Q 2847 2600 2669 2842 
Q 2491 3084 2119 3084 
Q 1678 3084 1418 2786 
Q 1159 2488 1159 1978 
L 1159 0 
L 581 0 
L 581 3500 
L 1159 3500 
L 1159 2956 
Q 1356 3278 1631 3431 
Q 1906 3584 2284 3584 
Q 2666 3584 2933 3390 
Q 3200 3197 3328 2828 
z
" transform="scale(0.015625)"/>
       <path id="DejaVuSans-65" d="M 3597 1894 
L 3597 1613 
L 953 1613 
Q 991 1019 1311 708 
Q 1631 397 2203 397 
Q 2534 397 2845 478 
Q 3156 559 3463 722 
L 3463 178 
Q 3153 47 2828 -22 
Q 2503 -91 2169 -91 
Q 1331 -91 842 396 
Q 353 884 353 1716 
Q 353 2575 817 3079 
Q 1281 3584 2069 3584 
Q 2775 3584 3186 3129 
Q 3597 2675 3597 1894 
z
M 3022 2063 
Q 3016 2534 2758 2815 
Q 2500 3097 2075 3097 
Q 1594 3097 1305 2825 
Q 1016 2553 972 2059 
L 3022 2063 
z
" transform="scale(0.015625)"/>
      </defs>
      <use xlink:href="#DejaVuSans-54"/>
      <use xlink:href="#DejaVuSans-69" transform="translate(57.958984 0)"/>
      <use xlink:href="#DejaVuSans-6d" transform="translate(85.742188 0)"/>
      <use xlink:href="#DejaVuSans-65" transform="translate(183.154297 0)"/>
     </g>
    </g>
   </g>
   <g id="matplotlib.axis_2">
    <g id="ytick_1">
     <g id="line2d_10">
      <defs>
       <path id="m23e2cac522" d="M 0 0 
L -3.5 0 
" style="stroke: #000000; stroke-width: 0.8"/>
      </defs>
      <g>
       <use xlink:href="#m23e2cac522" x="53.328125" y="261.216" style="stroke: #000000; stroke-width: 0.8"/>
      </g>
     </g>
     <g id="text_11">
      <!-- 0 -->
      <g transform="translate(39.965625 265.015219) scale(0.1 -0.1)">
       <use xlink:href="#DejaVuSans-30"/>
      </g>
     </g>
    </g>
    <g id="ytick_2">
     <g id="line2d_11">
      <g>
       <use xlink:href="#m23e2cac522" x="53.328125" y="222.421901" style="stroke: #000000; stroke-width: 0.8"/>
      </g>
     </g>
     <g id="text_12">
      <!-- 500 -->
      <g transform="translate(27.240625 226.22112) scale(0.1 -0.1)">
       <use xlink:href="#DejaVuSans-35"/>
       <use xlink:href="#DejaVuSans-30" transform="translate(63.623047 0)"/>
       <use xlink:href="#DejaVuSans-30" transform="translate(127.246094 0)"/>
      </g>
     </g>
    </g>
    <g id="ytick_3">
     <g id="line2d_12">
      <g>
       <use xlink:href="#m23e2cac522" x="53.328125" y="183.627802" style="stroke: #000000; stroke-width: 0.8"/>
      </g>
     </g>
     <g id="text_13">
      <!-- 1000 -->
      <g transform="translate(20.878125 187.427021) scale(0.1 -0.1)">
       <use xlink:href="#DejaVuSans-31"/>
       <use xlink:href="#DejaVuSans-30" transform="translate(63.623047 0)"/>
       <use xlink:href="#DejaVuSans-30" transform="translate(127.246094 0)"/>
       <use xlink:href="#DejaVuSans-30" transform="translate(190.869141 0)"/>
      </g>
     </g>
    </g>
    <g id="ytick_4">
     <g id="line2d_13">
      <g>
       <use xlink:href="#m23e2cac522" x="53.328125" y="144.833704" style="stroke: #000000; stroke-width: 0.8"/>
      </g>
     </g>
     <g id="text_14">
      <!-- 1500 -->
      <g transform="translate(20.878125 148.632922) scale(0.1 -0.1)">
       <use xlink:href="#DejaVuSans-31"/>
       <use xlink:href="#DejaVuSans-35" transform="translate(63.623047 0)"/>
       <use xlink:href="#DejaVuSans-30" transform="translate(127.246094 0)"/>
       <use xlink:href="#DejaVuSans-30" transform="translate(190.869141 0)"/>
      </g>
     </g>
    </g>
    <g id="ytick_5">
     <g id="line2d_14">
      <g>
       <use xlink:href="#m23e2cac522" x="53.328125" y="106.039605" style="stroke: #000000; stroke-width: 0.8"/>
      </g>
     </g>
     <g id="text_15">
      <!-- 2000 -->
      <g transform="translate(20.878125 109.838824) scale(0.1 -0.1)">
       <use xlink:href="#DejaVuSans-32"/>
       <use xlink:href="#DejaVuSans-30" transform="translate(63.623047 0)"/>
       <use xlink:href="#DejaVuSans-30" transform="translate(127.246094 0)"/>
       <use xlink:href="#DejaVuSans-30" transform="translate(190.869141 0)"/>
      </g>
     </g>
    </g>
    <g id="ytick_6">
     <g id="line2d_15">
      <g>
       <use xlink:href="#m23e2cac522" x="53.328125" y="67.245506" style="stroke: #000000; stroke-width: 0.8"/>
      </g>
     </g>
     <g id="text_16">
      <!-- 2500 -->
      <g transform="translate(20.878125 71.044725) scale(0.1 -0.1)">
       <use xlink:href="#DejaVuSans-32"/>
       <use xlink:href="#DejaVuSans-35" transform="translate(63.623047 0)"/>
       <use xlink:href="#DejaVuSans-30" transform="translate(127.246094 0)"/>
       <use xlink:href="#DejaVuSans-30" transform="translate(190.869141 0)"/>
      </g>
     </g>
    </g>
    <g id="ytick_7">
     <g id="line2d_16">
      <g>
       <use xlink:href="#m23e2cac522" x="53.328125" y="28.451407" style="stroke: #000000; stroke-width: 0.8"/>
      </g>
     </g>
     <g id="text_17">
      <!-- 3000 -->
      <g transform="translate(20.878125 32.250626) scale(0.1 -0.1)">
       <defs>
        <path id="DejaVuSans-33" d="M 2597 2516 
Q 3050 2419 3304 2112 
Q 3559 1806 3559 1356 
Q 3559 666 3084 287 
Q 2609 -91 1734 -91 
Q 1441 -91 1130 -33 
Q 819 25 488 141 
L 488 750 
Q 750 597 1062 519 
Q 1375 441 1716 441 
Q 2309 441 2620 675 
Q 2931 909 2931 1356 
Q 2931 1769 2642 2001 
Q 2353 2234 1838 2234 
L 1294 2234 
L 1294 2753 
L 1863 2753 
Q 2328 2753 2575 2939 
Q 2822 3125 2822 3475 
Q 2822 3834 2567 4026 
Q 2313 4219 1838 4219 
Q 1578 4219 1281 4162 
Q 984 4106 628 3988 
L 628 4550 
Q 988 4650 1302 4700 
Q 1616 4750 1894 4750 
Q 2613 4750 3031 4423 
Q 3450 4097 3450 3541 
Q 3450 3153 3228 2886 
Q 3006 2619 2597 2516 
z
" transform="scale(0.015625)"/>
       </defs>
       <use xlink:href="#DejaVuSans-33"/>
       <use xlink:href="#DejaVuSans-30" transform="translate(63.623047 0)"/>
       <use xlink:href="#DejaVuSans-30" transform="translate(127.246094 0)"/>
       <use xlink:href="#DejaVuSans-30" transform="translate(190.869141 0)"/>
      </g>
     </g>
    </g>
    <g id="text_18">
     <!-- Number of entities in each compartment -->
     <g transform="translate(14.798438 242.356781) rotate(-90) scale(0.1 -0.1)">
      <defs>
       <path id="DejaVuSans-4e" d="M 628 4666 
L 1478 4666 
L 3547 763 
L 3547 4666 
L 4159 4666 
L 4159 0 
L 3309 0 
L 1241 3903 
L 1241 0 
L 628 0 
L 628 4666 
z
" transform="scale(0.015625)"/>
       <path id="DejaVuSans-75" d="M 544 1381 
L 544 3500 
L 1119 3500 
L 1119 1403 
Q 1119 906 1312 657 
Q 1506 409 1894 409 
Q 2359 409 2629 706 
Q 2900 1003 2900 1516 
L 2900 3500 
L 3475 3500 
L 3475 0 
L 2900 0 
L 2900 538 
Q 2691 219 2414 64 
Q 2138 -91 1772 -91 
Q 1169 -91 856 284 
Q 544 659 544 1381 
z
M 1991 3584 
L 1991 3584 
z
" transform="scale(0.015625)"/>
       <path id="DejaVuSans-62" d="M 3116 1747 
Q 3116 2381 2855 2742 
Q 2594 3103 2138 3103 
Q 1681 3103 1420 2742 
Q 1159 2381 1159 1747 
Q 1159 1113 1420 752 
Q 1681 391 2138 391 
Q 2594 391 2855 752 
Q 3116 1113 3116 1747 
z
M 1159 2969 
Q 1341 3281 1617 3432 
Q 1894 3584 2278 3584 
Q 2916 3584 3314 3078 
Q 3713 2572 3713 1747 
Q 3713 922 3314 415 
Q 2916 -91 2278 -91 
Q 1894 -91 1617 61 
Q 1341 213 1159 525 
L 1159 0 
L 581 0 
L 581 4863 
L 1159 4863 
L 1159 2969 
z
" transform="scale(0.015625)"/>
       <path id="DejaVuSans-72" d="M 2631 2963 
Q 2534 3019 2420 3045 
Q 2306 3072 2169 3072 
Q 1681 3072 1420 2755 
Q 1159 2438 1159 1844 
L 1159 0 
L 581 0 
L 581 3500 
L 1159 3500 
L 1159 2956 
Q 1341 3275 1631 3429 
Q 1922 3584 2338 3584 
Q 2397 3584 2469 3576 
Q 2541 3569 2628 3553 
L 2631 2963 
z
" transform="scale(0.015625)"/>
       <path id="DejaVuSans-20" transform="scale(0.015625)"/>
       <path id="DejaVuSans-6f" d="M 1959 3097 
Q 1497 3097 1228 2736 
Q 959 2375 959 1747 
Q 959 1119 1226 758 
Q 1494 397 1959 397 
Q 2419 397 2687 759 
Q 2956 1122 2956 1747 
Q 2956 2369 2687 2733 
Q 2419 3097 1959 3097 
z
M 1959 3584 
Q 2709 3584 3137 3096 
Q 3566 2609 3566 1747 
Q 3566 888 3137 398 
Q 2709 -91 1959 -91 
Q 1206 -91 779 398 
Q 353 888 353 1747 
Q 353 2609 779 3096 
Q 1206 3584 1959 3584 
z
" transform="scale(0.015625)"/>
       <path id="DejaVuSans-66" d="M 2375 4863 
L 2375 4384 
L 1825 4384 
Q 1516 4384 1395 4259 
Q 1275 4134 1275 3809 
L 1275 3500 
L 2222 3500 
L 2222 3053 
L 1275 3053 
L 1275 0 
L 697 0 
L 697 3053 
L 147 3053 
L 147 3500 
L 697 3500 
L 697 3744 
Q 697 4328 969 4595 
Q 1241 4863 1831 4863 
L 2375 4863 
z
" transform="scale(0.015625)"/>
       <path id="DejaVuSans-6e" d="M 3513 2113 
L 3513 0 
L 2938 0 
L 2938 2094 
Q 2938 2591 2744 2837 
Q 2550 3084 2163 3084 
Q 1697 3084 1428 2787 
Q 1159 2491 1159 1978 
L 1159 0 
L 581 0 
L 581 3500 
L 1159 3500 
L 1159 2956 
Q 1366 3272 1645 3428 
Q 1925 3584 2291 3584 
Q 2894 3584 3203 3211 
Q 3513 2838 3513 2113 
z
" transform="scale(0.015625)"/>
       <path id="DejaVuSans-74" d="M 1172 4494 
L 1172 3500 
L 2356 3500 
L 2356 3053 
L 1172 3053 
L 1172 1153 
Q 1172 725 1289 603 
Q 1406 481 1766 481 
L 2356 481 
L 2356 0 
L 1766 0 
Q 1100 0 847 248 
Q 594 497 594 1153 
L 594 3053 
L 172 3053 
L 172 3500 
L 594 3500 
L 594 4494 
L 1172 4494 
z
" transform="scale(0.015625)"/>
       <path id="DejaVuSans-73" d="M 2834 3397 
L 2834 2853 
Q 2591 2978 2328 3040 
Q 2066 3103 1784 3103 
Q 1356 3103 1142 2972 
Q 928 2841 928 2578 
Q 928 2378 1081 2264 
Q 1234 2150 1697 2047 
L 1894 2003 
Q 2506 1872 2764 1633 
Q 3022 1394 3022 966 
Q 3022 478 2636 193 
Q 2250 -91 1575 -91 
Q 1294 -91 989 -36 
Q 684 19 347 128 
L 347 722 
Q 666 556 975 473 
Q 1284 391 1588 391 
Q 1994 391 2212 530 
Q 2431 669 2431 922 
Q 2431 1156 2273 1281 
Q 2116 1406 1581 1522 
L 1381 1569 
Q 847 1681 609 1914 
Q 372 2147 372 2553 
Q 372 3047 722 3315 
Q 1072 3584 1716 3584 
Q 2034 3584 2315 3537 
Q 2597 3491 2834 3397 
z
" transform="scale(0.015625)"/>
       <path id="DejaVuSans-61" d="M 2194 1759 
Q 1497 1759 1228 1600 
Q 959 1441 959 1056 
Q 959 750 1161 570 
Q 1363 391 1709 391 
Q 2188 391 2477 730 
Q 2766 1069 2766 1631 
L 2766 1759 
L 2194 1759 
z
M 3341 1997 
L 3341 0 
L 2766 0 
L 2766 531 
Q 2569 213 2275 61 
Q 1981 -91 1556 -91 
Q 1019 -91 701 211 
Q 384 513 384 1019 
Q 384 1609 779 1909 
Q 1175 2209 1959 2209 
L 2766 2209 
L 2766 2266 
Q 2766 2663 2505 2880 
Q 2244 3097 1772 3097 
Q 1472 3097 1187 3025 
Q 903 2953 641 2809 
L 641 3341 
Q 956 3463 1253 3523 
Q 1550 3584 1831 3584 
Q 2591 3584 2966 3190 
Q 3341 2797 3341 1997 
z
" transform="scale(0.015625)"/>
       <path id="DejaVuSans-63" d="M 3122 3366 
L 3122 2828 
Q 2878 2963 2633 3030 
Q 2388 3097 2138 3097 
Q 1578 3097 1268 2742 
Q 959 2388 959 1747 
Q 959 1106 1268 751 
Q 1578 397 2138 397 
Q 2388 397 2633 464 
Q 2878 531 3122 666 
L 3122 134 
Q 2881 22 2623 -34 
Q 2366 -91 2075 -91 
Q 1284 -91 818 406 
Q 353 903 353 1747 
Q 353 2603 823 3093 
Q 1294 3584 2113 3584 
Q 2378 3584 2631 3529 
Q 2884 3475 3122 3366 
z
" transform="scale(0.015625)"/>
       <path id="DejaVuSans-68" d="M 3513 2113 
L 3513 0 
L 2938 0 
L 2938 2094 
Q 2938 2591 2744 2837 
Q 2550 3084 2163 3084 
Q 1697 3084 1428 2787 
Q 1159 2491 1159 1978 
L 1159 0 
L 581 0 
L 581 4863 
L 1159 4863 
L 1159 2956 
Q 1366 3272 1645 3428 
Q 1925 3584 2291 3584 
Q 2894 3584 3203 3211 
Q 3513 2838 3513 2113 
z
" transform="scale(0.015625)"/>
       <path id="DejaVuSans-70" d="M 1159 525 
L 1159 -1331 
L 581 -1331 
L 581 3500 
L 1159 3500 
L 1159 2969 
Q 1341 3281 1617 3432 
Q 1894 3584 2278 3584 
Q 2916 3584 3314 3078 
Q 3713 2572 3713 1747 
Q 3713 922 3314 415 
Q 2916 -91 2278 -91 
Q 1894 -91 1617 61 
Q 1341 213 1159 525 
z
M 3116 1747 
Q 3116 2381 2855 2742 
Q 2594 3103 2138 3103 
Q 1681 3103 1420 2742 
Q 1159 2381 1159 1747 
Q 1159 1113 1420 752 
Q 1681 391 2138 391 
Q 2594 391 2855 752 
Q 3116 1113 3116 1747 
z
" transform="scale(0.015625)"/>
      </defs>
      <use xlink:href="#DejaVuSans-4e"/>
      <use xlink:href="#DejaVuSans-75" transform="translate(74.804688 0)"/>
      <use xlink:href="#DejaVuSans-6d" transform="translate(138.183594 0)"/>
      <use xlink:href="#DejaVuSans-62" transform="translate(235.595703 0)"/>
      <use xlink:href="#DejaVuSans-65" transform="translate(299.072266 0)"/>
      <use xlink:href="#DejaVuSans-72" transform="translate(360.595703 0)"/>
      <use xlink:href="#DejaVuSans-20" transform="translate(401.708984 0)"/>
      <use xlink:href="#DejaVuSans-6f" transform="translate(433.496094 0)"/>
      <use xlink:href="#DejaVuSans-66" transform="translate(494.677734 0)"/>
      <use xlink:href="#DejaVuSans-20" transform="translate(529.882812 0)"/>
      <use xlink:href="#DejaVuSans-65" transform="translate(561.669922 0)"/>
      <use xlink:href="#DejaVuSans-6e" transform="translate(623.193359 0)"/>
      <use xlink:href="#DejaVuSans-74" transform="translate(686.572266 0)"/>
      <use xlink:href="#DejaVuSans-69" transform="translate(725.78125 0)"/>
      <use xlink:href="#DejaVuSans-74" transform="translate(753.564453 0)"/>
      <use xlink:href="#DejaVuSans-69" transform="translate(792.773438 0)"/>
      <use xlink:href="#DejaVuSans-65" transform="translate(820.556641 0)"/>
      <use xlink:href="#DejaVuSans-73" transform="translate(882.080078 0)"/>
      <use xlink:href="#DejaVuSans-20" transform="translate(934.179688 0)"/>
      <use xlink:href="#DejaVuSans-69" transform="translate(965.966797 0)"/>
      <use xlink:href="#DejaVuSans-6e" transform="translate(993.75 0)"/>
      <use xlink:href="#DejaVuSans-20" transform="translate(1057.128906 0)"/>
      <use xlink:href="#DejaVuSans-65" transform="translate(1088.916016 0)"/>
      <use xlink:href="#DejaVuSans-61" transform="translate(1150.439453 0)"/>
      <use xlink:href="#DejaVuSans-63" transform="translate(1211.71875 0)"/>
      <use xlink:href="#DejaVuSans-68" transform="translate(1266.699219 0)"/>
      <use xlink:href="#DejaVuSans-20" transform="translate(1330.078125 0)"/>
      <use xlink:href="#DejaVuSans-63" transform="translate(1361.865234 0)"/>
      <use xlink:href="#DejaVuSans-6f" transform="translate(1416.845703 0)"/>
      <use xlink:href="#DejaVuSans-6d" transform="translate(1478.027344 0)"/>
      <use xlink:href="#DejaVuSans-70" transform="translate(1575.439453 0)"/>
      <use xlink:href="#DejaVuSans-61" transform="translate(1638.916016 0)"/>
      <use xlink:href="#DejaVuSans-72" transform="translate(1700.195312 0)"/>
      <use xlink:href="#DejaVuSans-74" transform="translate(1741.308594 0)"/>
      <use xlink:href="#DejaVuSans-6d" transform="translate(1780.517578 0)"/>
      <use xlink:href="#DejaVuSans-65" transform="translate(1877.929688 0)"/>
      <use xlink:href="#DejaVuSans-6e" transform="translate(1939.453125 0)"/>
      <use xlink:href="#DejaVuSans-74" transform="translate(2002.832031 0)"/>
     </g>
    </g>
   </g>
   <g id="line2d_17">
    <path d="M 69.560852 261.216 
L 71.192282 253.689945 
L 72.823712 244.84489 
L 74.455142 236.69813 
L 76.086572 227.542722 
L 79.349432 211.559554 
L 80.980861 204.654204 
L 84.243721 187.817565 
L 85.875151 180.136334 
L 87.506581 171.756808 
L 89.138011 165.394576 
L 90.769441 157.48058 
L 92.400871 150.730407 
L 94.0323 145.299233 
L 98.92659 124.117655 
L 102.18945 110.617309 
L 105.45231 97.427315 
L 107.083739 92.384082 
L 108.715169 85.556321 
L 110.346599 80.4355 
L 111.978029 74.693973 
L 113.609459 69.883505 
L 115.240889 64.452331 
L 116.872319 60.262568 
L 118.503749 58.633216 
L 120.135178 56.227982 
L 121.766608 51.960631 
L 123.398038 48.081221 
L 125.029468 44.589752 
L 126.660898 42.882812 
L 128.292328 37.994756 
L 129.923758 37.451638 
L 131.555188 35.279169 
L 133.186617 33.572228 
L 134.818047 31.632523 
L 136.449477 30.391112 
L 138.080907 29.382466 
L 139.712337 28.684172 
L 141.343767 27.675525 
L 142.975197 27.90829 
L 144.606627 25.503056 
L 146.238056 25.890997 
L 149.500916 22.787469 
L 151.132346 20.614999 
L 152.763776 20.692588 
L 154.395206 21.235705 
L 156.026636 21.313293 
L 157.658066 21.623646 
L 159.289495 22.399528 
L 160.920925 23.408174 
L 162.552355 21.701234 
L 164.183785 21.623646 
L 165.815215 21.313293 
L 167.446645 20.770176 
L 169.078075 21.390881 
L 170.709505 20.304647 
L 172.340935 22.011587 
L 173.972364 22.011587 
L 175.603794 21.313293 
L 177.235224 19.296 
L 180.498084 22.865057 
L 182.129514 22.089175 
L 183.760944 19.994294 
L 185.392374 21.158117 
L 187.023803 24.339233 
L 188.655233 24.649586 
L 190.286663 25.270291 
L 191.918093 24.959938 
L 193.549523 25.813409 
L 195.180953 23.718527 
L 196.812383 25.968585 
L 198.443813 24.88235 
L 200.075242 26.046173 
L 201.706672 25.658232 
L 203.338102 25.968585 
L 204.969532 25.968585 
L 206.600962 26.744467 
L 208.232392 27.90829 
L 209.863822 28.76176 
L 211.495252 29.072113 
L 213.126681 29.227289 
L 214.758111 29.770407 
L 216.389541 29.304877 
L 218.020971 30.080759 
L 219.652401 28.916936 
L 221.283831 30.158348 
L 222.915261 28.839348 
L 224.546691 30.701465 
L 226.17812 30.93423 
L 227.80955 30.856641 
L 229.44098 30.93423 
L 231.07241 30.546289 
L 232.70384 29.925583 
L 234.33527 30.856641 
L 235.9667 31.244582 
L 237.59813 31.865288 
L 240.860989 34.580875 
L 242.492419 34.658463 
L 244.123849 34.270522 
L 245.755279 32.796346 
L 247.386709 30.701465 
L 249.018139 29.227289 
L 252.280998 27.287584 
L 253.912428 28.916936 
L 255.543858 30.235936 
L 257.175288 31.322171 
L 258.806718 29.925583 
L 260.438148 31.399759 
L 262.069578 32.253229 
L 263.701008 30.080759 
L 265.332437 31.632523 
L 266.963867 31.399759 
L 268.595297 29.460054 
L 270.226727 30.158348 
L 271.858157 30.158348 
L 273.489587 28.994525 
L 275.121017 29.692818 
L 276.752447 29.382466 
L 278.383876 30.93423 
L 280.015306 28.606584 
L 281.646736 30.623877 
L 283.278166 30.856641 
L 284.909596 31.244582 
L 286.541026 31.011818 
L 288.172456 31.399759 
L 289.803886 31.477347 
L 291.435315 32.873935 
L 293.066745 34.736051 
L 294.698175 35.977462 
L 296.329605 35.434345 
L 297.961035 36.675756 
L 299.592465 38.693049 
L 301.223895 37.296462 
L 302.855325 36.675756 
L 304.486755 33.804993 
L 306.118184 34.34811 
L 307.749614 34.270522 
L 309.381044 35.434345 
L 312.643904 35.822286 
L 314.275334 36.365403 
L 315.906764 34.81364 
L 317.538194 34.192934 
L 320.801053 34.037758 
L 322.432483 32.64117 
L 324.063913 33.49464 
L 325.695343 33.649817 
L 327.326773 31.7877 
L 330.589633 29.149701 
L 332.221062 29.537642 
L 333.852492 28.373819 
L 335.483922 27.753114 
L 337.115352 26.046173 
L 338.746782 25.580644 
L 340.378212 24.494409 
L 342.009642 25.890997 
L 343.641072 26.977232 
L 345.272501 26.434114 
L 346.903931 26.20135 
L 348.535361 26.278938 
L 350.166791 25.813409 
L 351.798221 27.05482 
L 353.429651 27.675525 
L 355.061081 28.684172 
L 356.692511 29.537642 
L 358.32394 29.460054 
L 359.95537 28.451407 
L 361.5868 28.373819 
L 363.21823 27.442761 
L 364.84966 25.813409 
L 366.48109 22.942645 
L 368.11252 22.865057 
L 369.74395 23.563351 
L 371.375379 23.020233 
L 373.006809 24.261645 
L 374.638239 23.252998 
L 376.269669 25.115115 
L 377.901099 23.718527 
L 379.532529 23.640939 
L 381.163959 23.796115 
L 382.795389 22.942645 
L 384.426818 22.709881 
L 386.058248 23.020233 
L 389.321108 19.916706 
L 390.952538 20.227058 
L 392.583968 19.373588 
L 394.215398 24.02888 
L 394.215398 24.02888 
" clip-path="url(#p6b2abcc20e)" style="fill: none; stroke: #1f77b4; stroke-width: 1.5; stroke-linecap: square"/>
   </g>
   <g id="line2d_18">
    <path d="M 69.560852 261.216 
L 82.612291 261.138412 
L 87.506581 260.750471 
L 89.138011 260.284942 
L 90.769441 260.129765 
L 92.400871 259.586648 
L 94.0323 259.276295 
L 95.66373 258.810766 
L 98.92659 257.491767 
L 102.18945 256.172767 
L 103.82088 254.77618 
L 105.45231 252.914063 
L 107.083739 251.439887 
L 108.715169 250.276064 
L 111.978029 246.551831 
L 113.609459 243.13795 
L 115.240889 240.732716 
L 116.872319 238.017129 
L 118.503749 233.361837 
L 120.135178 229.560015 
L 121.766608 227.853075 
L 123.398038 224.904724 
L 125.029468 221.723607 
L 126.660898 217.378668 
L 128.292328 214.74067 
L 129.923758 209.775025 
L 131.555188 205.895615 
L 133.186617 202.714499 
L 134.818047 200.386853 
L 136.449477 196.66262 
L 138.080907 192.472857 
L 139.712337 187.972742 
L 141.343767 185.257155 
L 142.975197 180.912216 
L 144.606627 178.58457 
L 146.238056 175.868983 
L 147.869486 173.85169 
L 149.500916 171.213691 
L 151.132346 171.291279 
L 152.763776 167.411869 
L 154.395206 164.153165 
L 156.026636 161.980695 
L 157.658066 160.04099 
L 159.289495 158.566815 
L 160.920925 156.937462 
L 162.552355 155.696051 
L 164.183785 153.213229 
L 165.815215 153.445994 
L 167.446645 152.825288 
L 169.078075 151.661465 
L 170.709505 149.876936 
L 172.340935 145.919938 
L 173.972364 144.368174 
L 175.603794 144.678527 
L 177.235224 145.299233 
L 178.866654 144.13541 
L 180.498084 142.273293 
L 182.129514 141.885352 
L 183.760944 142.040529 
L 185.392374 141.419823 
L 187.023803 139.480118 
L 188.655233 139.635294 
L 190.286663 140.178412 
L 191.918093 141.419823 
L 193.549523 140.488765 
L 195.180953 141.264647 
L 196.812383 140.566353 
L 198.443813 143.049175 
L 200.075242 141.264647 
L 201.706672 141.342235 
L 203.338102 140.954294 
L 204.969532 139.635294 
L 208.232392 139.790471 
L 209.863822 141.264647 
L 211.495252 140.954294 
L 213.126681 140.876706 
L 214.758111 140.488765 
L 216.389541 141.652588 
L 218.020971 141.031882 
L 219.652401 141.10947 
L 221.283831 140.023235 
L 222.915261 140.566353 
L 224.546691 140.023235 
L 226.17812 139.324942 
L 227.80955 138.393883 
L 229.44098 139.945647 
L 231.07241 138.08353 
L 232.70384 138.393883 
L 234.33527 138.005942 
L 235.9667 139.40253 
L 237.59813 139.40253 
L 239.229559 138.781824 
L 240.860989 138.005942 
L 242.492419 138.005942 
L 244.123849 138.238707 
L 245.755279 139.480118 
L 247.386709 140.256 
L 249.018139 140.100824 
L 250.649569 143.126763 
L 252.280998 144.057822 
L 253.912428 143.902645 
L 255.543858 143.437116 
L 257.175288 141.885352 
L 258.806718 141.574999 
L 260.438148 141.96294 
L 262.069578 140.954294 
L 263.701008 143.437116 
L 265.332437 142.040529 
L 266.963867 141.10947 
L 268.595297 142.506058 
L 271.858157 144.678527 
L 273.489587 144.600939 
L 275.121017 142.738822 
L 276.752447 143.902645 
L 278.383876 144.445763 
L 280.015306 145.764762 
L 281.646736 143.747469 
L 283.278166 144.368174 
L 284.909596 144.600939 
L 286.541026 141.96294 
L 288.172456 141.574999 
L 289.803886 143.747469 
L 291.435315 143.980233 
L 293.066745 143.747469 
L 294.698175 144.523351 
L 296.329605 144.445763 
L 297.961035 143.359528 
L 301.223895 142.42847 
L 304.486755 146.69582 
L 306.118184 145.687174 
L 307.749614 146.230291 
L 309.381044 144.368174 
L 311.012474 144.13541 
L 312.643904 143.28194 
L 314.275334 143.592292 
L 315.906764 144.756115 
L 319.169623 145.144056 
L 320.801053 143.902645 
L 322.432483 143.437116 
L 324.063913 141.574999 
L 325.695343 140.799117 
L 327.326773 141.652588 
L 328.958203 142.738822 
L 330.589633 144.911292 
L 332.221062 143.980233 
L 333.852492 147.316526 
L 335.483922 148.01482 
L 337.115352 149.566584 
L 338.746782 148.790702 
L 340.378212 150.032113 
L 342.009642 148.092408 
L 343.641072 147.394114 
L 346.903931 148.86829 
L 348.535361 147.782055 
L 350.166791 148.713114 
L 351.798221 148.480349 
L 353.429651 147.704467 
L 355.061081 145.531997 
L 356.692511 146.463056 
L 358.32394 144.600939 
L 359.95537 144.445763 
L 363.21823 144.445763 
L 364.84966 145.066468 
L 366.48109 146.773409 
L 368.11252 145.144056 
L 371.375379 142.893999 
L 373.006809 141.342235 
L 374.638239 141.807764 
L 376.269669 139.790471 
L 377.901099 139.790471 
L 379.532529 140.488765 
L 381.163959 139.557706 
L 382.795389 140.721529 
L 384.426818 141.187058 
L 386.058248 140.178412 
L 387.689678 141.807764 
L 389.321108 140.566353 
L 392.583968 142.195705 
L 394.215398 141.497411 
L 394.215398 141.497411 
" clip-path="url(#p6b2abcc20e)" style="fill: none; stroke: #ff7f0e; stroke-width: 1.5; stroke-linecap: square"/>
   </g>
   <g id="patch_3">
    <path d="M 53.328125 273.312 
L 53.328125 7.2 
" style="fill: none; stroke: #000000; stroke-width: 0.8; stroke-linejoin: miter; stroke-linecap: square"/>
   </g>
   <g id="patch_4">
    <path d="M 410.448125 273.312 
L 410.448125 7.2 
" style="fill: none; stroke: #000000; stroke-width: 0.8; stroke-linejoin: miter; stroke-linecap: square"/>
   </g>
   <g id="patch_5">
    <path d="M 53.328125 273.312 
L 410.448125 273.312 
" style="fill: none; stroke: #000000; stroke-width: 0.8; stroke-linejoin: miter; stroke-linecap: square"/>
   </g>
   <g id="patch_6">
    <path d="M 53.328125 7.2 
L 410.448125 7.2 
" style="fill: none; stroke: #000000; stroke-width: 0.8; stroke-linejoin: miter; stroke-linecap: square"/>
   </g>
  </g>
 </g>
 <defs>
  <clipPath id="p6b2abcc20e">
   <rect x="53.328125" y="7.2" width="357.12" height="266.112"/>
  </clipPath>
 </defs>
</svg>
