<?xml version="1.0" encoding="utf-8" standalone="no"?>
<!DOCTYPE svg PUBLIC "-//W3C//DTD SVG 1.1//EN"
  "http://www.w3.org/Graphics/SVG/1.1/DTD/svg11.dtd">
<!-- Created with matplotlib (https://matplotlib.org/) -->
<svg height="297.190125pt" version="1.1" viewBox="0 0 403.97 297.190125" width="403.97pt" xmlns="http://www.w3.org/2000/svg" xmlns:xlink="http://www.w3.org/1999/xlink">
 <metadata>
  <rdf:RDF xmlns:cc="http://creativecommons.org/ns#" xmlns:dc="http://purl.org/dc/elements/1.1/" xmlns:rdf="http://www.w3.org/1999/02/22-rdf-syntax-ns#">
   <cc:Work>
    <dc:type rdf:resource="http://purl.org/dc/dcmitype/StillImage"/>
    <dc:date>2021-06-30T11:49:14.509277</dc:date>
    <dc:format>image/svg+xml</dc:format>
    <dc:creator>
     <cc:Agent>
      <dc:title>Matplotlib v3.3.4, https://matplotlib.org/</dc:title>
     </cc:Agent>
    </dc:creator>
   </cc:Work>
  </rdf:RDF>
 </metadata>
 <defs>
  <style type="text/css">*{stroke-linecap:butt;stroke-linejoin:round;}</style>
 </defs>
 <g id="figure_1">
  <g id="patch_1">
   <path d="M 0 297.190125 
L 403.97 297.190125 
L 403.97 0 
L 0 0 
z
" style="fill:#ffffff;"/>
  </g>
  <g id="axes_1">
   <g id="patch_2">
    <path d="M 39.65 273.312 
L 396.77 273.312 
L 396.77 7.2 
L 39.65 7.2 
z
" style="fill:#ffffff;"/>
   </g>
   <g id="matplotlib.axis_1">
    <g id="xtick_1">
     <g id="line2d_1">
      <defs>
       <path d="M 0 0 
L 0 3.5 
" id="md0575cddd8" style="stroke:#000000;stroke-width:0.8;"/>
      </defs>
      <g>
       <use style="stroke:#000000;stroke-width:0.8;" x="55.882727" xlink:href="#md0575cddd8" y="273.312"/>
      </g>
     </g>
     <g id="text_1">
      <!-- 0.0 -->
      <g transform="translate(47.931165 287.910437)scale(0.1 -0.1)">
       <defs>
        <path d="M 31.78125 66.40625 
Q 24.171875 66.40625 20.328125 58.90625 
Q 16.5 51.421875 16.5 36.375 
Q 16.5 21.390625 20.328125 13.890625 
Q 24.171875 6.390625 31.78125 6.390625 
Q 39.453125 6.390625 43.28125 13.890625 
Q 47.125 21.390625 47.125 36.375 
Q 47.125 51.421875 43.28125 58.90625 
Q 39.453125 66.40625 31.78125 66.40625 
z
M 31.78125 74.21875 
Q 44.046875 74.21875 50.515625 64.515625 
Q 56.984375 54.828125 56.984375 36.375 
Q 56.984375 17.96875 50.515625 8.265625 
Q 44.046875 -1.421875 31.78125 -1.421875 
Q 19.53125 -1.421875 13.0625 8.265625 
Q 6.59375 17.96875 6.59375 36.375 
Q 6.59375 54.828125 13.0625 64.515625 
Q 19.53125 74.21875 31.78125 74.21875 
z
" id="DejaVuSans-48"/>
        <path d="M 10.6875 12.40625 
L 21 12.40625 
L 21 0 
L 10.6875 0 
z
" id="DejaVuSans-46"/>
       </defs>
       <use xlink:href="#DejaVuSans-48"/>
       <use x="63.623047" xlink:href="#DejaVuSans-46"/>
       <use x="95.410156" xlink:href="#DejaVuSans-48"/>
      </g>
     </g>
    </g>
    <g id="xtick_2">
     <g id="line2d_2">
      <g>
       <use style="stroke:#000000;stroke-width:0.8;" x="96.668474" xlink:href="#md0575cddd8" y="273.312"/>
      </g>
     </g>
     <g id="text_2">
      <!-- 2.5 -->
      <g transform="translate(88.716912 287.910437)scale(0.1 -0.1)">
       <defs>
        <path d="M 19.1875 8.296875 
L 53.609375 8.296875 
L 53.609375 0 
L 7.328125 0 
L 7.328125 8.296875 
Q 12.9375 14.109375 22.625 23.890625 
Q 32.328125 33.6875 34.8125 36.53125 
Q 39.546875 41.84375 41.421875 45.53125 
Q 43.3125 49.21875 43.3125 52.78125 
Q 43.3125 58.59375 39.234375 62.25 
Q 35.15625 65.921875 28.609375 65.921875 
Q 23.96875 65.921875 18.8125 64.3125 
Q 13.671875 62.703125 7.8125 59.421875 
L 7.8125 69.390625 
Q 13.765625 71.78125 18.9375 73 
Q 24.125 74.21875 28.421875 74.21875 
Q 39.75 74.21875 46.484375 68.546875 
Q 53.21875 62.890625 53.21875 53.421875 
Q 53.21875 48.921875 51.53125 44.890625 
Q 49.859375 40.875 45.40625 35.40625 
Q 44.1875 33.984375 37.640625 27.21875 
Q 31.109375 20.453125 19.1875 8.296875 
z
" id="DejaVuSans-50"/>
        <path d="M 10.796875 72.90625 
L 49.515625 72.90625 
L 49.515625 64.59375 
L 19.828125 64.59375 
L 19.828125 46.734375 
Q 21.96875 47.46875 24.109375 47.828125 
Q 26.265625 48.1875 28.421875 48.1875 
Q 40.625 48.1875 47.75 41.5 
Q 54.890625 34.8125 54.890625 23.390625 
Q 54.890625 11.625 47.5625 5.09375 
Q 40.234375 -1.421875 26.90625 -1.421875 
Q 22.3125 -1.421875 17.546875 -0.640625 
Q 12.796875 0.140625 7.71875 1.703125 
L 7.71875 11.625 
Q 12.109375 9.234375 16.796875 8.0625 
Q 21.484375 6.890625 26.703125 6.890625 
Q 35.15625 6.890625 40.078125 11.328125 
Q 45.015625 15.765625 45.015625 23.390625 
Q 45.015625 31 40.078125 35.4375 
Q 35.15625 39.890625 26.703125 39.890625 
Q 22.75 39.890625 18.8125 39.015625 
Q 14.890625 38.140625 10.796875 36.28125 
z
" id="DejaVuSans-53"/>
       </defs>
       <use xlink:href="#DejaVuSans-50"/>
       <use x="63.623047" xlink:href="#DejaVuSans-46"/>
       <use x="95.410156" xlink:href="#DejaVuSans-53"/>
      </g>
     </g>
    </g>
    <g id="xtick_3">
     <g id="line2d_3">
      <g>
       <use style="stroke:#000000;stroke-width:0.8;" x="137.454221" xlink:href="#md0575cddd8" y="273.312"/>
      </g>
     </g>
     <g id="text_3">
      <!-- 5.0 -->
      <g transform="translate(129.502659 287.910437)scale(0.1 -0.1)">
       <use xlink:href="#DejaVuSans-53"/>
       <use x="63.623047" xlink:href="#DejaVuSans-46"/>
       <use x="95.410156" xlink:href="#DejaVuSans-48"/>
      </g>
     </g>
    </g>
    <g id="xtick_4">
     <g id="line2d_4">
      <g>
       <use style="stroke:#000000;stroke-width:0.8;" x="178.239968" xlink:href="#md0575cddd8" y="273.312"/>
      </g>
     </g>
     <g id="text_4">
      <!-- 7.5 -->
      <g transform="translate(170.288406 287.910437)scale(0.1 -0.1)">
       <defs>
        <path d="M 8.203125 72.90625 
L 55.078125 72.90625 
L 55.078125 68.703125 
L 28.609375 0 
L 18.3125 0 
L 43.21875 64.59375 
L 8.203125 64.59375 
z
" id="DejaVuSans-55"/>
       </defs>
       <use xlink:href="#DejaVuSans-55"/>
       <use x="63.623047" xlink:href="#DejaVuSans-46"/>
       <use x="95.410156" xlink:href="#DejaVuSans-53"/>
      </g>
     </g>
    </g>
    <g id="xtick_5">
     <g id="line2d_5">
      <g>
       <use style="stroke:#000000;stroke-width:0.8;" x="219.025715" xlink:href="#md0575cddd8" y="273.312"/>
      </g>
     </g>
     <g id="text_5">
      <!-- 10.0 -->
      <g transform="translate(207.892902 287.910437)scale(0.1 -0.1)">
       <defs>
        <path d="M 12.40625 8.296875 
L 28.515625 8.296875 
L 28.515625 63.921875 
L 10.984375 60.40625 
L 10.984375 69.390625 
L 28.421875 72.90625 
L 38.28125 72.90625 
L 38.28125 8.296875 
L 54.390625 8.296875 
L 54.390625 0 
L 12.40625 0 
z
" id="DejaVuSans-49"/>
       </defs>
       <use xlink:href="#DejaVuSans-49"/>
       <use x="63.623047" xlink:href="#DejaVuSans-48"/>
       <use x="127.246094" xlink:href="#DejaVuSans-46"/>
       <use x="159.033203" xlink:href="#DejaVuSans-48"/>
      </g>
     </g>
    </g>
    <g id="xtick_6">
     <g id="line2d_6">
      <g>
       <use style="stroke:#000000;stroke-width:0.8;" x="259.811462" xlink:href="#md0575cddd8" y="273.312"/>
      </g>
     </g>
     <g id="text_6">
      <!-- 12.5 -->
      <g transform="translate(248.678649 287.910437)scale(0.1 -0.1)">
       <use xlink:href="#DejaVuSans-49"/>
       <use x="63.623047" xlink:href="#DejaVuSans-50"/>
       <use x="127.246094" xlink:href="#DejaVuSans-46"/>
       <use x="159.033203" xlink:href="#DejaVuSans-53"/>
      </g>
     </g>
    </g>
    <g id="xtick_7">
     <g id="line2d_7">
      <g>
       <use style="stroke:#000000;stroke-width:0.8;" x="300.597209" xlink:href="#md0575cddd8" y="273.312"/>
      </g>
     </g>
     <g id="text_7">
      <!-- 15.0 -->
      <g transform="translate(289.464396 287.910437)scale(0.1 -0.1)">
       <use xlink:href="#DejaVuSans-49"/>
       <use x="63.623047" xlink:href="#DejaVuSans-53"/>
       <use x="127.246094" xlink:href="#DejaVuSans-46"/>
       <use x="159.033203" xlink:href="#DejaVuSans-48"/>
      </g>
     </g>
    </g>
    <g id="xtick_8">
     <g id="line2d_8">
      <g>
       <use style="stroke:#000000;stroke-width:0.8;" x="341.382956" xlink:href="#md0575cddd8" y="273.312"/>
      </g>
     </g>
     <g id="text_8">
      <!-- 17.5 -->
      <g transform="translate(330.250143 287.910437)scale(0.1 -0.1)">
       <use xlink:href="#DejaVuSans-49"/>
       <use x="63.623047" xlink:href="#DejaVuSans-55"/>
       <use x="127.246094" xlink:href="#DejaVuSans-46"/>
       <use x="159.033203" xlink:href="#DejaVuSans-53"/>
      </g>
     </g>
    </g>
    <g id="xtick_9">
     <g id="line2d_9">
      <g>
       <use style="stroke:#000000;stroke-width:0.8;" x="382.168703" xlink:href="#md0575cddd8" y="273.312"/>
      </g>
     </g>
     <g id="text_9">
      <!-- 20.0 -->
      <g transform="translate(371.03589 287.910437)scale(0.1 -0.1)">
       <use xlink:href="#DejaVuSans-50"/>
       <use x="63.623047" xlink:href="#DejaVuSans-48"/>
       <use x="127.246094" xlink:href="#DejaVuSans-46"/>
       <use x="159.033203" xlink:href="#DejaVuSans-48"/>
      </g>
     </g>
    </g>
   </g>
   <g id="matplotlib.axis_2">
    <g id="ytick_1">
     <g id="line2d_10">
      <defs>
       <path d="M 0 0 
L -3.5 0 
" id="me2b7869695" style="stroke:#000000;stroke-width:0.8;"/>
      </defs>
      <g>
       <use style="stroke:#000000;stroke-width:0.8;" x="39.65" xlink:href="#me2b7869695" y="261.216"/>
      </g>
     </g>
     <g id="text_10">
      <!-- 0 -->
      <g transform="translate(26.2875 265.015219)scale(0.1 -0.1)">
       <use xlink:href="#DejaVuSans-48"/>
      </g>
     </g>
    </g>
    <g id="ytick_2">
     <g id="line2d_11">
      <g>
       <use style="stroke:#000000;stroke-width:0.8;" x="39.65" xlink:href="#me2b7869695" y="222.455389"/>
      </g>
     </g>
     <g id="text_11">
      <!-- 500 -->
      <g transform="translate(13.5625 226.254608)scale(0.1 -0.1)">
       <use xlink:href="#DejaVuSans-53"/>
       <use x="63.623047" xlink:href="#DejaVuSans-48"/>
       <use x="127.246094" xlink:href="#DejaVuSans-48"/>
      </g>
     </g>
    </g>
    <g id="ytick_3">
     <g id="line2d_12">
      <g>
       <use style="stroke:#000000;stroke-width:0.8;" x="39.65" xlink:href="#me2b7869695" y="183.694778"/>
      </g>
     </g>
     <g id="text_12">
      <!-- 1000 -->
      <g transform="translate(7.2 187.493997)scale(0.1 -0.1)">
       <use xlink:href="#DejaVuSans-49"/>
       <use x="63.623047" xlink:href="#DejaVuSans-48"/>
       <use x="127.246094" xlink:href="#DejaVuSans-48"/>
       <use x="190.869141" xlink:href="#DejaVuSans-48"/>
      </g>
     </g>
    </g>
    <g id="ytick_4">
     <g id="line2d_13">
      <g>
       <use style="stroke:#000000;stroke-width:0.8;" x="39.65" xlink:href="#me2b7869695" y="144.934168"/>
      </g>
     </g>
     <g id="text_13">
      <!-- 1500 -->
      <g transform="translate(7.2 148.733386)scale(0.1 -0.1)">
       <use xlink:href="#DejaVuSans-49"/>
       <use x="63.623047" xlink:href="#DejaVuSans-53"/>
       <use x="127.246094" xlink:href="#DejaVuSans-48"/>
       <use x="190.869141" xlink:href="#DejaVuSans-48"/>
      </g>
     </g>
    </g>
    <g id="ytick_5">
     <g id="line2d_14">
      <g>
       <use style="stroke:#000000;stroke-width:0.8;" x="39.65" xlink:href="#me2b7869695" y="106.173557"/>
      </g>
     </g>
     <g id="text_14">
      <!-- 2000 -->
      <g transform="translate(7.2 109.972776)scale(0.1 -0.1)">
       <use xlink:href="#DejaVuSans-50"/>
       <use x="63.623047" xlink:href="#DejaVuSans-48"/>
       <use x="127.246094" xlink:href="#DejaVuSans-48"/>
       <use x="190.869141" xlink:href="#DejaVuSans-48"/>
      </g>
     </g>
    </g>
    <g id="ytick_6">
     <g id="line2d_15">
      <g>
       <use style="stroke:#000000;stroke-width:0.8;" x="39.65" xlink:href="#me2b7869695" y="67.412946"/>
      </g>
     </g>
     <g id="text_15">
      <!-- 2500 -->
      <g transform="translate(7.2 71.212165)scale(0.1 -0.1)">
       <use xlink:href="#DejaVuSans-50"/>
       <use x="63.623047" xlink:href="#DejaVuSans-53"/>
       <use x="127.246094" xlink:href="#DejaVuSans-48"/>
       <use x="190.869141" xlink:href="#DejaVuSans-48"/>
      </g>
     </g>
    </g>
    <g id="ytick_7">
     <g id="line2d_16">
      <g>
       <use style="stroke:#000000;stroke-width:0.8;" x="39.65" xlink:href="#me2b7869695" y="28.652335"/>
      </g>
     </g>
     <g id="text_16">
      <!-- 3000 -->
      <g transform="translate(7.2 32.451554)scale(0.1 -0.1)">
       <defs>
        <path d="M 40.578125 39.3125 
Q 47.65625 37.796875 51.625 33 
Q 55.609375 28.21875 55.609375 21.1875 
Q 55.609375 10.40625 48.1875 4.484375 
Q 40.765625 -1.421875 27.09375 -1.421875 
Q 22.515625 -1.421875 17.65625 -0.515625 
Q 12.796875 0.390625 7.625 2.203125 
L 7.625 11.71875 
Q 11.71875 9.328125 16.59375 8.109375 
Q 21.484375 6.890625 26.8125 6.890625 
Q 36.078125 6.890625 40.9375 10.546875 
Q 45.796875 14.203125 45.796875 21.1875 
Q 45.796875 27.640625 41.28125 31.265625 
Q 36.765625 34.90625 28.71875 34.90625 
L 20.21875 34.90625 
L 20.21875 43.015625 
L 29.109375 43.015625 
Q 36.375 43.015625 40.234375 45.921875 
Q 44.09375 48.828125 44.09375 54.296875 
Q 44.09375 59.90625 40.109375 62.90625 
Q 36.140625 65.921875 28.71875 65.921875 
Q 24.65625 65.921875 20.015625 65.03125 
Q 15.375 64.15625 9.8125 62.3125 
L 9.8125 71.09375 
Q 15.4375 72.65625 20.34375 73.4375 
Q 25.25 74.21875 29.59375 74.21875 
Q 40.828125 74.21875 47.359375 69.109375 
Q 53.90625 64.015625 53.90625 55.328125 
Q 53.90625 49.265625 50.4375 45.09375 
Q 46.96875 40.921875 40.578125 39.3125 
z
" id="DejaVuSans-51"/>
       </defs>
       <use xlink:href="#DejaVuSans-51"/>
       <use x="63.623047" xlink:href="#DejaVuSans-48"/>
       <use x="127.246094" xlink:href="#DejaVuSans-48"/>
       <use x="190.869141" xlink:href="#DejaVuSans-48"/>
      </g>
     </g>
    </g>
   </g>
   <g id="line2d_17">
    <path clip-path="url(#p3122193065)" d="M 55.882727 261.216 
L 59.961302 241.835695 
L 64.039877 224.005814 
L 68.118451 207.602323 
L 72.197026 192.511112 
L 76.275601 178.627198 
L 80.354175 165.853996 
L 84.43275 154.102651 
L 88.511325 143.291414 
L 92.589899 133.345075 
L 96.668474 124.194444 
L 100.747049 115.775863 
L 104.825624 108.030769 
L 108.904198 100.905282 
L 112.982773 94.349834 
L 117.061348 88.318822 
L 121.139922 82.770291 
L 125.218497 77.665642 
L 129.297072 72.969365 
L 133.375646 68.648791 
L 137.454221 64.673862 
L 141.532796 61.016928 
L 145.61137 57.652548 
L 149.689945 54.557319 
L 153.76852 51.709708 
L 157.847095 49.089906 
L 161.925669 46.679688 
L 166.004244 44.462288 
L 170.082819 42.422279 
L 174.161393 40.545471 
L 178.239968 38.818808 
L 182.318543 37.230278 
L 186.397117 35.768831 
L 190.475692 34.424299 
L 194.554267 33.187329 
L 198.632841 32.049318 
L 202.711416 31.002347 
L 206.789991 30.039134 
L 210.868566 29.152978 
L 214.94714 28.337714 
L 219.025715 27.587672 
L 223.10429 26.897632 
L 227.182864 26.262796 
L 231.261439 25.678747 
L 235.340014 25.141422 
L 239.418588 24.647083 
L 243.497163 24.192291 
L 247.575738 23.773882 
L 251.654312 23.388946 
L 255.732887 23.034805 
L 259.811462 22.708995 
L 263.890037 22.40925 
L 267.968611 22.133485 
L 272.047186 21.879781 
L 276.125761 21.646373 
L 280.204335 21.431638 
L 284.28291 21.234081 
L 288.361485 21.052329 
L 292.440059 20.885118 
L 296.518634 20.731283 
L 300.597209 20.589755 
L 304.675783 20.459549 
L 308.754358 20.33976 
L 312.832933 20.229554 
L 316.911508 20.128164 
L 320.990082 20.034885 
L 325.068657 19.949069 
L 329.147232 19.870118 
L 333.225806 19.797483 
L 337.304381 19.730659 
L 341.382956 19.669181 
L 345.46153 19.612621 
L 349.540105 19.560586 
L 353.61868 19.512714 
L 357.697254 19.468671 
L 361.775829 19.428152 
L 365.854404 19.390875 
L 369.932979 19.356579 
L 374.011553 19.325028 
L 378.090128 19.296 
" style="fill:none;stroke:#1f77b4;stroke-linecap:square;stroke-width:1.5;"/>
   </g>
   <g id="line2d_18">
    <path clip-path="url(#p3122193065)" d="M 55.882727 261.216 
L 59.961302 261.216 
L 64.039877 259.665576 
L 68.118451 256.926751 
L 72.197026 253.296056 
L 76.275601 249.015377 
L 80.354175 244.281068 
L 84.43275 239.25162 
L 88.511325 234.054084 
L 92.589899 228.789472 
L 96.668474 223.53727 
L 100.747049 218.35923 
L 104.825624 213.302533 
L 108.904198 208.402432 
L 112.982773 203.684457 
L 117.061348 199.166256 
L 121.139922 194.859117 
L 125.218497 190.769242 
L 129.297072 186.898791 
L 133.375646 183.246752 
L 137.454221 179.809654 
L 141.532796 176.582157 
L 145.61137 173.557526 
L 149.689945 170.728026 
L 153.76852 168.085235 
L 157.847095 165.620304 
L 161.925669 163.324156 
L 166.004244 161.187649 
L 170.082819 159.201704 
L 174.161393 157.357401 
L 178.239968 155.646054 
L 182.318543 154.059265 
L 186.397117 152.588966 
L 190.475692 151.227442 
L 194.554267 149.96735 
L 198.632841 148.801724 
L 202.711416 147.723981 
L 206.789991 146.727913 
L 210.868566 145.807685 
L 214.94714 144.95782 
L 219.025715 144.173188 
L 223.10429 143.448993 
L 227.182864 142.780759 
L 231.261439 142.164312 
L 235.340014 141.595766 
L 239.418588 141.071506 
L 243.497163 140.588172 
L 247.575738 140.142647 
L 251.654312 139.732037 
L 255.732887 139.353661 
L 259.811462 139.005035 
L 263.890037 138.683858 
L 267.968611 138.388001 
L 272.047186 138.115498 
L 276.125761 137.864528 
L 280.204335 137.633408 
L 284.28291 137.420587 
L 288.361485 137.22463 
L 292.440059 137.044211 
L 296.518634 136.87811 
L 300.597209 136.725199 
L 304.675783 136.584437 
L 308.754358 136.454866 
L 312.832933 136.335601 
L 316.911508 136.225826 
L 320.990082 136.124791 
L 325.068657 136.031803 
L 329.147232 135.946222 
L 333.225806 135.867463 
L 337.304381 135.794982 
L 341.382956 135.728281 
L 345.46153 135.6669 
L 349.540105 135.610417 
L 353.61868 135.558441 
L 357.697254 135.510613 
L 361.775829 135.466604 
L 365.854404 135.426108 
L 369.932979 135.388847 
L 374.011553 135.354561 
L 378.090128 135.323014 
" style="fill:none;stroke:#ff7f0e;stroke-linecap:square;stroke-width:1.5;"/>
   </g>
   <g id="line2d_19">
    <path clip-path="url(#p3122193065)" d="M 55.882727 261.216 
L 57.514157 255.091823 
L 59.145587 247.184659 
L 62.408447 233.385881 
L 68.934166 208.889175 
L 70.565596 203.307647 
L 72.197026 199.121502 
L 73.828456 193.92758 
L 75.459886 187.725882 
L 77.091316 183.7723 
L 80.354175 172.531723 
L 81.985605 168.190534 
L 85.248465 158.500381 
L 86.879895 154.62432 
L 88.511325 149.973047 
L 90.142755 145.941944 
L 91.774185 143.073658 
L 93.405614 139.740246 
L 95.037044 135.864185 
L 96.668474 133.228463 
L 98.299904 129.352402 
L 99.931334 127.724456 
L 101.562764 124.236001 
L 103.194194 121.987886 
L 104.825624 118.344389 
L 108.088483 112.142691 
L 109.719913 107.879024 
L 111.351343 106.096036 
L 112.982773 103.460314 
L 114.614203 101.28972 
L 116.245633 98.886562 
L 117.877063 96.095798 
L 119.508492 94.157768 
L 121.139922 91.832131 
L 122.771352 90.979397 
L 124.402782 90.51427 
L 126.034212 89.8941 
L 129.297072 87.413421 
L 130.928502 84.622657 
L 132.559931 83.847445 
L 134.191361 81.211724 
L 135.822791 79.893863 
L 137.454221 78.808566 
L 139.085651 76.405408 
L 140.717081 77.568226 
L 142.348511 76.017802 
L 143.979941 74.157292 
L 145.61137 74.079771 
L 147.2428 74.389856 
L 148.87423 73.692165 
L 150.50566 71.44405 
L 153.76852 66.017564 
L 155.39995 66.947819 
L 157.03138 65.785 
L 160.294239 63.2268 
L 161.925669 62.994236 
L 163.557099 61.831418 
L 165.188529 61.676376 
L 166.819959 59.42826 
L 168.451389 57.49023 
L 170.082819 56.87006 
L 171.714249 55.397157 
L 173.345678 55.474678 
L 174.977108 54.621945 
L 176.608538 53.459126 
L 178.239968 50.435799 
L 179.871398 50.978447 
L 181.502828 51.676138 
L 183.134258 50.978447 
L 184.765688 49.970671 
L 186.397117 49.428023 
L 188.028547 48.575289 
L 189.659977 49.428023 
L 191.291407 47.645035 
L 192.922837 47.33495 
L 194.554267 46.559737 
L 196.185697 46.869822 
L 197.817127 46.017089 
L 199.448556 44.621707 
L 201.079986 44.389143 
L 202.711416 42.91624 
L 204.342846 43.226325 
L 205.974276 45.629483 
L 207.605706 46.327174 
L 209.237136 45.009313 
L 210.868566 44.854271 
L 212.499995 45.939568 
L 214.131425 44.776749 
L 215.762855 43.768973 
L 217.394285 44.854271 
L 219.025715 45.47444 
L 220.657145 44.234101 
L 222.288575 44.15658 
L 223.920005 44.699228 
L 225.551434 44.389143 
L 227.182864 46.09461 
L 228.814294 42.683676 
L 230.445724 40.280519 
L 232.077154 39.505306 
L 233.708584 38.342488 
L 236.971444 38.962658 
L 238.602873 38.962658 
L 240.234303 39.660349 
L 243.497163 34.543948 
L 245.128593 32.993524 
L 248.391453 32.993524 
L 250.022883 33.148566 
L 251.654312 35.086597 
L 254.917172 36.5595 
L 256.548602 36.404457 
L 258.180032 37.722318 
L 259.811462 37.024627 
L 261.442892 37.334712 
L 263.074322 38.652573 
L 264.705751 39.815391 
L 266.337181 39.582828 
L 267.968611 37.567276 
L 271.231471 37.644797 
L 272.862901 37.334712 
L 274.494331 35.706766 
L 276.125761 35.474203 
L 277.75719 33.38113 
L 279.38862 32.063269 
L 281.02005 32.295833 
L 282.65148 32.373354 
L 284.28291 31.133014 
L 285.91434 29.660111 
L 287.54577 30.512845 
L 289.1772 32.218311 
L 290.80863 35.164118 
L 292.440059 33.923778 
L 294.071489 35.474203 
L 295.702919 34.854033 
L 298.965779 35.861809 
L 300.597209 35.474203 
L 302.228639 34.854033 
L 305.491498 33.846257 
L 307.122928 34.621469 
L 308.754358 33.691215 
L 310.385788 33.303609 
L 312.017218 34.233863 
L 313.648648 32.993524 
L 315.280078 32.528396 
L 316.911508 32.683439 
L 318.542937 31.055493 
L 320.174367 29.194984 
L 321.805797 29.350026 
L 323.437227 28.264729 
L 325.068657 29.58259 
L 328.331517 28.264729 
L 329.962947 28.807378 
L 331.594376 29.194984 
L 333.225806 29.350026 
L 334.857236 29.117463 
L 336.488666 28.729857 
L 338.120096 30.357802 
L 339.751526 29.505069 
L 341.382956 29.505069 
L 343.014386 27.954644 
L 344.645815 27.411996 
L 346.277245 27.644559 
L 347.908675 28.032166 
L 349.540105 26.326699 
L 351.171535 26.791826 
L 352.802965 25.939093 
L 354.434395 24.621232 
L 356.065825 24.156104 
L 357.697254 25.318923 
L 359.328684 25.551486 
L 360.960114 25.008838 
L 362.591544 27.101911 
L 364.222974 27.101911 
L 365.854404 29.039941 
L 367.485834 28.34225 
L 369.117264 27.02439 
L 370.748693 27.334475 
L 372.380123 28.109687 
L 374.011553 29.350026 
L 375.642983 31.133014 
L 377.274413 31.830705 
L 378.905843 31.830705 
L 380.537273 32.218311 
L 380.537273 32.218311 
" style="fill:none;stroke:#2ca02c;stroke-linecap:square;stroke-width:1.5;"/>
   </g>
   <g id="line2d_20">
    <path clip-path="url(#p3122193065)" d="M 55.882727 261.216 
L 57.514157 261.216 
L 59.145587 260.905915 
L 60.777017 260.130703 
L 62.408447 258.967885 
L 64.039877 258.347715 
L 65.671307 257.339939 
L 67.302736 256.487205 
L 68.934166 255.47943 
L 70.565596 254.161569 
L 72.197026 252.533623 
L 73.828456 251.215762 
L 75.459886 249.742859 
L 77.091316 247.572265 
L 78.722746 246.331925 
L 80.354175 244.936543 
L 81.985605 243.231077 
L 83.617035 240.750398 
L 85.248465 239.742622 
L 86.879895 237.029379 
L 90.142755 232.68819 
L 91.774185 231.37033 
L 93.405614 228.889651 
L 95.037044 226.098887 
L 96.668474 223.540686 
L 98.299904 221.680177 
L 99.931334 220.129753 
L 101.562764 218.966934 
L 103.194194 216.563776 
L 104.825624 215.090873 
L 106.457053 212.920279 
L 108.088483 210.129515 
L 109.719913 208.579091 
L 111.351343 206.02089 
L 112.982773 204.703029 
L 114.614203 202.687478 
L 116.245633 200.129277 
L 117.877063 200.439362 
L 119.508492 198.346289 
L 121.139922 197.338513 
L 122.771352 194.857834 
L 124.402782 191.834507 
L 126.034212 190.439125 
L 127.665642 189.50887 
L 129.297072 188.423573 
L 130.928502 187.493318 
L 132.559931 187.493318 
L 135.822791 184.857597 
L 137.454221 184.004863 
L 139.085651 183.384694 
L 140.717081 180.671451 
L 142.348511 178.655899 
L 143.979941 177.260517 
L 145.61137 174.702317 
L 147.2428 172.841807 
L 150.50566 172.841807 
L 153.76852 171.989074 
L 155.39995 169.120789 
L 157.03138 170.128565 
L 158.66281 171.291383 
L 160.294239 170.826256 
L 161.925669 171.446425 
L 163.557099 170.826256 
L 165.188529 170.593692 
L 166.819959 169.275831 
L 168.451389 170.516171 
L 170.082819 170.206086 
L 171.714249 169.740959 
L 173.345678 169.585916 
L 174.977108 170.361128 
L 176.608538 169.740959 
L 178.239968 170.051043 
L 179.871398 167.260279 
L 181.502828 165.554813 
L 183.134258 165.39977 
L 186.397117 165.632334 
L 188.028547 165.012164 
L 189.659977 163.849346 
L 191.291407 162.996612 
L 192.922837 161.60123 
L 194.554267 160.748497 
L 196.185697 160.903539 
L 197.817127 160.360891 
L 199.448556 160.903539 
L 202.711416 161.523709 
L 204.342846 159.818242 
L 205.974276 157.415084 
L 207.605706 155.787139 
L 209.237136 153.771587 
L 210.868566 153.461502 
L 212.499995 152.68629 
L 214.131425 153.073896 
L 215.762855 154.081672 
L 217.394285 151.600993 
L 219.025715 150.128089 
L 220.657145 150.050568 
L 222.288575 148.810229 
L 223.920005 148.26758 
L 225.551434 147.337326 
L 227.182864 148.112538 
L 228.814294 149.895526 
L 230.445724 151.368429 
L 232.077154 151.600993 
L 233.708584 151.988599 
L 236.971444 151.833556 
L 238.602873 152.06612 
L 240.234303 150.903302 
L 241.865733 151.833556 
L 243.497163 152.143641 
L 245.128593 153.461502 
L 246.760023 151.833556 
L 248.391453 152.453726 
L 250.022883 151.911078 
L 251.654312 150.283132 
L 253.285742 150.283132 
L 254.917172 148.810229 
L 256.548602 149.042792 
L 258.180032 148.732707 
L 261.442892 147.879974 
L 263.074322 148.190059 
L 264.705751 146.32955 
L 266.337181 149.197835 
L 267.968611 149.042792 
L 269.600041 149.275356 
L 271.231471 148.035017 
L 274.494331 146.949719 
L 276.125761 147.104762 
L 277.75719 145.70938 
L 279.38862 146.484592 
L 281.02005 148.190059 
L 282.65148 147.64741 
L 284.28291 148.26758 
L 285.91434 148.345101 
L 287.54577 148.655186 
L 289.1772 146.562113 
L 290.80863 145.70938 
L 292.440059 147.414847 
L 294.071489 146.252028 
L 295.702919 146.484592 
L 297.334349 144.546562 
L 298.965779 144.546562 
L 300.597209 144.313998 
L 302.228639 143.693828 
L 303.860069 143.461264 
L 305.491498 144.081434 
L 307.122928 143.616307 
L 308.754358 142.453489 
L 310.385788 142.453489 
L 312.017218 142.686052 
L 313.648648 144.158955 
L 315.280078 144.391519 
L 316.911508 145.011689 
L 318.542937 144.701604 
L 320.174367 145.631859 
L 321.805797 144.934168 
L 323.437227 146.174507 
L 325.068657 146.872198 
L 326.700087 147.337326 
L 328.331517 147.027241 
L 329.962947 146.019465 
L 331.594376 146.096986 
L 333.225806 145.399295 
L 334.857236 144.158955 
L 338.120096 142.841095 
L 339.751526 142.453489 
L 341.382956 141.755798 
L 343.014386 144.236477 
L 344.645815 145.941944 
L 346.277245 147.027241 
L 347.908675 147.104762 
L 349.540105 145.70938 
L 351.171535 143.073658 
L 352.802965 143.616307 
L 354.434395 144.701604 
L 356.065825 145.554337 
L 357.697254 145.08921 
L 359.328684 145.476816 
L 360.960114 145.166731 
L 362.591544 143.693828 
L 364.222974 144.158955 
L 365.854404 145.08921 
L 367.485834 146.717156 
L 369.117264 146.252028 
L 372.380123 144.779125 
L 374.011553 144.236477 
L 375.642983 143.461264 
L 377.274413 143.693828 
L 378.905843 145.321774 
L 380.537273 144.313998 
L 380.537273 144.313998 
" style="fill:none;stroke:#d62728;stroke-linecap:square;stroke-width:1.5;"/>
   </g>
   <g id="patch_3">
    <path d="M 39.65 273.312 
L 39.65 7.2 
" style="fill:none;stroke:#000000;stroke-linecap:square;stroke-linejoin:miter;stroke-width:0.8;"/>
   </g>
   <g id="patch_4">
    <path d="M 396.77 273.312 
L 396.77 7.2 
" style="fill:none;stroke:#000000;stroke-linecap:square;stroke-linejoin:miter;stroke-width:0.8;"/>
   </g>
   <g id="patch_5">
    <path d="M 39.65 273.312 
L 396.77 273.312 
" style="fill:none;stroke:#000000;stroke-linecap:square;stroke-linejoin:miter;stroke-width:0.8;"/>
   </g>
   <g id="patch_6">
    <path d="M 39.65 7.2 
L 396.77 7.2 
" style="fill:none;stroke:#000000;stroke-linecap:square;stroke-linejoin:miter;stroke-width:0.8;"/>
   </g>
  </g>
 </g>
 <defs>
  <clipPath id="p3122193065">
   <rect height="266.112" width="357.12" x="39.65" y="7.2"/>
  </clipPath>
 </defs>
</svg>
