<?xml version="1.0" encoding="utf-8" standalone="no"?>
<!DOCTYPE svg PUBLIC "-//W3C//DTD SVG 1.1//EN"
  "http://www.w3.org/Graphics/SVG/1.1/DTD/svg11.dtd">
<svg xmlns:xlink="http://www.w3.org/1999/xlink" width="403.97pt" height="297.190125pt" viewBox="0 0 403.97 297.190125" xmlns="http://www.w3.org/2000/svg" version="1.1">
 <metadata>
  <rdf:RDF xmlns:dc="http://purl.org/dc/elements/1.1/" xmlns:cc="http://creativecommons.org/ns#" xmlns:rdf="http://www.w3.org/1999/02/22-rdf-syntax-ns#">
   <cc:Work>
    <dc:type rdf:resource="http://purl.org/dc/dcmitype/StillImage"/>
    <dc:date>2024-10-31T00:50:12.000566</dc:date>
    <dc:format>image/svg+xml</dc:format>
    <dc:creator>
     <cc:Agent>
      <dc:title>Matplotlib v3.9.2, https://matplotlib.org/</dc:title>
     </cc:Agent>
    </dc:creator>
   </cc:Work>
  </rdf:RDF>
 </metadata>
 <defs>
  <style type="text/css">*{stroke-linejoin: round; stroke-linecap: butt}</style>
 </defs>
 <g id="figure_1">
  <g id="patch_1">
   <path d="M 0 297.190125 
L 403.97 297.190125 
L 403.97 0 
L 0 0 
z
" style="fill: #ffffff"/>
  </g>
  <g id="axes_1">
   <g id="patch_2">
    <path d="M 39.65 273.312 
L 396.77 273.312 
L 396.77 7.2 
L 39.65 7.2 
z
" style="fill: #ffffff"/>
   </g>
   <g id="matplotlib.axis_1">
    <g id="xtick_1">
     <g id="line2d_1">
      <defs>
       <path id="m0cb52b836a" d="M 0 0 
L 0 3.5 
" style="stroke: #000000; stroke-width: 0.8"/>
      </defs>
      <g>
       <use xlink:href="#m0cb52b836a" x="55.882727" y="273.312" style="stroke: #000000; stroke-width: 0.8"/>
      </g>
     </g>
     <g id="text_1">
      <!-- 0.0 -->
      <g transform="translate(47.931165 287.910437) scale(0.1 -0.1)">
       <defs>
        <path id="DejaVuSans-30" d="M 2034 4250 
Q 1547 4250 1301 3770 
Q 1056 3291 1056 2328 
Q 1056 1369 1301 889 
Q 1547 409 2034 409 
Q 2525 409 2770 889 
Q 3016 1369 3016 2328 
Q 3016 3291 2770 3770 
Q 2525 4250 2034 4250 
z
M 2034 4750 
Q 2819 4750 3233 4129 
Q 3647 3509 3647 2328 
Q 3647 1150 3233 529 
Q 2819 -91 2034 -91 
Q 1250 -91 836 529 
Q 422 1150 422 2328 
Q 422 3509 836 4129 
Q 1250 4750 2034 4750 
z
" transform="scale(0.015625)"/>
        <path id="DejaVuSans-2e" d="M 684 794 
L 1344 794 
L 1344 0 
L 684 0 
L 684 794 
z
" transform="scale(0.015625)"/>
       </defs>
       <use xlink:href="#DejaVuSans-30"/>
       <use xlink:href="#DejaVuSans-2e" x="63.623047"/>
       <use xlink:href="#DejaVuSans-30" x="95.410156"/>
      </g>
     </g>
    </g>
    <g id="xtick_2">
     <g id="line2d_2">
      <g>
       <use xlink:href="#m0cb52b836a" x="96.668474" y="273.312" style="stroke: #000000; stroke-width: 0.8"/>
      </g>
     </g>
     <g id="text_2">
      <!-- 2.5 -->
      <g transform="translate(88.716912 287.910437) scale(0.1 -0.1)">
       <defs>
        <path id="DejaVuSans-32" d="M 1228 531 
L 3431 531 
L 3431 0 
L 469 0 
L 469 531 
Q 828 903 1448 1529 
Q 2069 2156 2228 2338 
Q 2531 2678 2651 2914 
Q 2772 3150 2772 3378 
Q 2772 3750 2511 3984 
Q 2250 4219 1831 4219 
Q 1534 4219 1204 4116 
Q 875 4013 500 3803 
L 500 4441 
Q 881 4594 1212 4672 
Q 1544 4750 1819 4750 
Q 2544 4750 2975 4387 
Q 3406 4025 3406 3419 
Q 3406 3131 3298 2873 
Q 3191 2616 2906 2266 
Q 2828 2175 2409 1742 
Q 1991 1309 1228 531 
z
" transform="scale(0.015625)"/>
        <path id="DejaVuSans-35" d="M 691 4666 
L 3169 4666 
L 3169 4134 
L 1269 4134 
L 1269 2991 
Q 1406 3038 1543 3061 
Q 1681 3084 1819 3084 
Q 2600 3084 3056 2656 
Q 3513 2228 3513 1497 
Q 3513 744 3044 326 
Q 2575 -91 1722 -91 
Q 1428 -91 1123 -41 
Q 819 9 494 109 
L 494 744 
Q 775 591 1075 516 
Q 1375 441 1709 441 
Q 2250 441 2565 725 
Q 2881 1009 2881 1497 
Q 2881 1984 2565 2268 
Q 2250 2553 1709 2553 
Q 1456 2553 1204 2497 
Q 953 2441 691 2322 
L 691 4666 
z
" transform="scale(0.015625)"/>
       </defs>
       <use xlink:href="#DejaVuSans-32"/>
       <use xlink:href="#DejaVuSans-2e" x="63.623047"/>
       <use xlink:href="#DejaVuSans-35" x="95.410156"/>
      </g>
     </g>
    </g>
    <g id="xtick_3">
     <g id="line2d_3">
      <g>
       <use xlink:href="#m0cb52b836a" x="137.454221" y="273.312" style="stroke: #000000; stroke-width: 0.8"/>
      </g>
     </g>
     <g id="text_3">
      <!-- 5.0 -->
      <g transform="translate(129.502659 287.910437) scale(0.1 -0.1)">
       <use xlink:href="#DejaVuSans-35"/>
       <use xlink:href="#DejaVuSans-2e" x="63.623047"/>
       <use xlink:href="#DejaVuSans-30" x="95.410156"/>
      </g>
     </g>
    </g>
    <g id="xtick_4">
     <g id="line2d_4">
      <g>
       <use xlink:href="#m0cb52b836a" x="178.239968" y="273.312" style="stroke: #000000; stroke-width: 0.8"/>
      </g>
     </g>
     <g id="text_4">
      <!-- 7.5 -->
      <g transform="translate(170.288406 287.910437) scale(0.1 -0.1)">
       <defs>
        <path id="DejaVuSans-37" d="M 525 4666 
L 3525 4666 
L 3525 4397 
L 1831 0 
L 1172 0 
L 2766 4134 
L 525 4134 
L 525 4666 
z
" transform="scale(0.015625)"/>
       </defs>
       <use xlink:href="#DejaVuSans-37"/>
       <use xlink:href="#DejaVuSans-2e" x="63.623047"/>
       <use xlink:href="#DejaVuSans-35" x="95.410156"/>
      </g>
     </g>
    </g>
    <g id="xtick_5">
     <g id="line2d_5">
      <g>
       <use xlink:href="#m0cb52b836a" x="219.025715" y="273.312" style="stroke: #000000; stroke-width: 0.8"/>
      </g>
     </g>
     <g id="text_5">
      <!-- 10.0 -->
      <g transform="translate(207.892902 287.910437) scale(0.1 -0.1)">
       <defs>
        <path id="DejaVuSans-31" d="M 794 531 
L 1825 531 
L 1825 4091 
L 703 3866 
L 703 4441 
L 1819 4666 
L 2450 4666 
L 2450 531 
L 3481 531 
L 3481 0 
L 794 0 
L 794 531 
z
" transform="scale(0.015625)"/>
       </defs>
       <use xlink:href="#DejaVuSans-31"/>
       <use xlink:href="#DejaVuSans-30" x="63.623047"/>
       <use xlink:href="#DejaVuSans-2e" x="127.246094"/>
       <use xlink:href="#DejaVuSans-30" x="159.033203"/>
      </g>
     </g>
    </g>
    <g id="xtick_6">
     <g id="line2d_6">
      <g>
       <use xlink:href="#m0cb52b836a" x="259.811462" y="273.312" style="stroke: #000000; stroke-width: 0.8"/>
      </g>
     </g>
     <g id="text_6">
      <!-- 12.5 -->
      <g transform="translate(248.678649 287.910437) scale(0.1 -0.1)">
       <use xlink:href="#DejaVuSans-31"/>
       <use xlink:href="#DejaVuSans-32" x="63.623047"/>
       <use xlink:href="#DejaVuSans-2e" x="127.246094"/>
       <use xlink:href="#DejaVuSans-35" x="159.033203"/>
      </g>
     </g>
    </g>
    <g id="xtick_7">
     <g id="line2d_7">
      <g>
       <use xlink:href="#m0cb52b836a" x="300.597209" y="273.312" style="stroke: #000000; stroke-width: 0.8"/>
      </g>
     </g>
     <g id="text_7">
      <!-- 15.0 -->
      <g transform="translate(289.464396 287.910437) scale(0.1 -0.1)">
       <use xlink:href="#DejaVuSans-31"/>
       <use xlink:href="#DejaVuSans-35" x="63.623047"/>
       <use xlink:href="#DejaVuSans-2e" x="127.246094"/>
       <use xlink:href="#DejaVuSans-30" x="159.033203"/>
      </g>
     </g>
    </g>
    <g id="xtick_8">
     <g id="line2d_8">
      <g>
       <use xlink:href="#m0cb52b836a" x="341.382956" y="273.312" style="stroke: #000000; stroke-width: 0.8"/>
      </g>
     </g>
     <g id="text_8">
      <!-- 17.5 -->
      <g transform="translate(330.250143 287.910437) scale(0.1 -0.1)">
       <use xlink:href="#DejaVuSans-31"/>
       <use xlink:href="#DejaVuSans-37" x="63.623047"/>
       <use xlink:href="#DejaVuSans-2e" x="127.246094"/>
       <use xlink:href="#DejaVuSans-35" x="159.033203"/>
      </g>
     </g>
    </g>
    <g id="xtick_9">
     <g id="line2d_9">
      <g>
       <use xlink:href="#m0cb52b836a" x="382.168703" y="273.312" style="stroke: #000000; stroke-width: 0.8"/>
      </g>
     </g>
     <g id="text_9">
      <!-- 20.0 -->
      <g transform="translate(371.03589 287.910437) scale(0.1 -0.1)">
       <use xlink:href="#DejaVuSans-32"/>
       <use xlink:href="#DejaVuSans-30" x="63.623047"/>
       <use xlink:href="#DejaVuSans-2e" x="127.246094"/>
       <use xlink:href="#DejaVuSans-30" x="159.033203"/>
      </g>
     </g>
    </g>
   </g>
   <g id="matplotlib.axis_2">
    <g id="ytick_1">
     <g id="line2d_10">
      <defs>
       <path id="mb48cfe735f" d="M 0 0 
L -3.5 0 
" style="stroke: #000000; stroke-width: 0.8"/>
      </defs>
      <g>
       <use xlink:href="#mb48cfe735f" x="39.65" y="261.216" style="stroke: #000000; stroke-width: 0.8"/>
      </g>
     </g>
     <g id="text_10">
      <!-- 0 -->
      <g transform="translate(26.2875 265.015219) scale(0.1 -0.1)">
       <use xlink:href="#DejaVuSans-30"/>
      </g>
     </g>
    </g>
    <g id="ytick_2">
     <g id="line2d_11">
      <g>
       <use xlink:href="#mb48cfe735f" x="39.65" y="221.478812" style="stroke: #000000; stroke-width: 0.8"/>
      </g>
     </g>
     <g id="text_11">
      <!-- 500 -->
      <g transform="translate(13.5625 225.278031) scale(0.1 -0.1)">
       <use xlink:href="#DejaVuSans-35"/>
       <use xlink:href="#DejaVuSans-30" x="63.623047"/>
       <use xlink:href="#DejaVuSans-30" x="127.246094"/>
      </g>
     </g>
    </g>
    <g id="ytick_3">
     <g id="line2d_12">
      <g>
       <use xlink:href="#mb48cfe735f" x="39.65" y="181.741624" style="stroke: #000000; stroke-width: 0.8"/>
      </g>
     </g>
     <g id="text_12">
      <!-- 1000 -->
      <g transform="translate(7.2 185.540843) scale(0.1 -0.1)">
       <use xlink:href="#DejaVuSans-31"/>
       <use xlink:href="#DejaVuSans-30" x="63.623047"/>
       <use xlink:href="#DejaVuSans-30" x="127.246094"/>
       <use xlink:href="#DejaVuSans-30" x="190.869141"/>
      </g>
     </g>
    </g>
    <g id="ytick_4">
     <g id="line2d_13">
      <g>
       <use xlink:href="#mb48cfe735f" x="39.65" y="142.004436" style="stroke: #000000; stroke-width: 0.8"/>
      </g>
     </g>
     <g id="text_13">
      <!-- 1500 -->
      <g transform="translate(7.2 145.803655) scale(0.1 -0.1)">
       <use xlink:href="#DejaVuSans-31"/>
       <use xlink:href="#DejaVuSans-35" x="63.623047"/>
       <use xlink:href="#DejaVuSans-30" x="127.246094"/>
       <use xlink:href="#DejaVuSans-30" x="190.869141"/>
      </g>
     </g>
    </g>
    <g id="ytick_5">
     <g id="line2d_14">
      <g>
       <use xlink:href="#mb48cfe735f" x="39.65" y="102.267248" style="stroke: #000000; stroke-width: 0.8"/>
      </g>
     </g>
     <g id="text_14">
      <!-- 2000 -->
      <g transform="translate(7.2 106.066467) scale(0.1 -0.1)">
       <use xlink:href="#DejaVuSans-32"/>
       <use xlink:href="#DejaVuSans-30" x="63.623047"/>
       <use xlink:href="#DejaVuSans-30" x="127.246094"/>
       <use xlink:href="#DejaVuSans-30" x="190.869141"/>
      </g>
     </g>
    </g>
    <g id="ytick_6">
     <g id="line2d_15">
      <g>
       <use xlink:href="#mb48cfe735f" x="39.65" y="62.53006" style="stroke: #000000; stroke-width: 0.8"/>
      </g>
     </g>
     <g id="text_15">
      <!-- 2500 -->
      <g transform="translate(7.2 66.329279) scale(0.1 -0.1)">
       <use xlink:href="#DejaVuSans-32"/>
       <use xlink:href="#DejaVuSans-35" x="63.623047"/>
       <use xlink:href="#DejaVuSans-30" x="127.246094"/>
       <use xlink:href="#DejaVuSans-30" x="190.869141"/>
      </g>
     </g>
    </g>
    <g id="ytick_7">
     <g id="line2d_16">
      <g>
       <use xlink:href="#mb48cfe735f" x="39.65" y="22.792873" style="stroke: #000000; stroke-width: 0.8"/>
      </g>
     </g>
     <g id="text_16">
      <!-- 3000 -->
      <g transform="translate(7.2 26.592091) scale(0.1 -0.1)">
       <defs>
        <path id="DejaVuSans-33" d="M 2597 2516 
Q 3050 2419 3304 2112 
Q 3559 1806 3559 1356 
Q 3559 666 3084 287 
Q 2609 -91 1734 -91 
Q 1441 -91 1130 -33 
Q 819 25 488 141 
L 488 750 
Q 750 597 1062 519 
Q 1375 441 1716 441 
Q 2309 441 2620 675 
Q 2931 909 2931 1356 
Q 2931 1769 2642 2001 
Q 2353 2234 1838 2234 
L 1294 2234 
L 1294 2753 
L 1863 2753 
Q 2328 2753 2575 2939 
Q 2822 3125 2822 3475 
Q 2822 3834 2567 4026 
Q 2313 4219 1838 4219 
Q 1578 4219 1281 4162 
Q 984 4106 628 3988 
L 628 4550 
Q 988 4650 1302 4700 
Q 1616 4750 1894 4750 
Q 2613 4750 3031 4423 
Q 3450 4097 3450 3541 
Q 3450 3153 3228 2886 
Q 3006 2619 2597 2516 
z
" transform="scale(0.015625)"/>
       </defs>
       <use xlink:href="#DejaVuSans-33"/>
       <use xlink:href="#DejaVuSans-30" x="63.623047"/>
       <use xlink:href="#DejaVuSans-30" x="127.246094"/>
       <use xlink:href="#DejaVuSans-30" x="190.869141"/>
      </g>
     </g>
    </g>
   </g>
   <g id="line2d_17">
    <path d="M 55.882727 261.216 
L 72.197026 181.741624 
L 88.511325 128.758707 
L 104.825624 93.436762 
L 121.139922 69.888799 
L 137.454221 54.190157 
L 153.76852 43.724395 
L 170.082819 36.747221 
L 186.397117 32.095772 
L 202.711416 28.994805 
L 219.025715 26.927494 
L 235.340014 25.549287 
L 251.654312 24.630482 
L 267.968611 24.017946 
L 284.28291 23.609588 
L 300.597209 23.337349 
L 316.911508 23.155857 
L 333.225806 23.034862 
L 349.540105 22.954199 
L 365.854404 22.900424 
" clip-path="url(#pd3bac01601)" style="fill: none; stroke: #1f77b4; stroke-width: 1.5; stroke-linecap: square"/>
   </g>
   <g id="line2d_18">
    <path d="M 55.882727 261.216 
L 72.197026 261.216 
L 88.511325 234.724541 
L 104.825624 208.233083 
L 121.139922 187.628615 
L 137.454221 172.911138 
L 153.76852 162.772432 
L 170.082819 155.904276 
L 186.397117 151.289166 
L 202.711416 148.200312 
L 219.025715 146.137039 
L 235.340014 144.760178 
L 251.654312 143.841822 
L 267.968611 143.229435 
L 284.28291 142.821127 
L 300.597209 142.548905 
L 316.911508 142.367418 
L 333.225806 142.246425 
L 349.540105 142.165762 
L 365.854404 142.111987 
" clip-path="url(#pd3bac01601)" style="fill: none; stroke: #ff7f0e; stroke-width: 1.5; stroke-linecap: square"/>
   </g>
   <g id="line2d_19">
    <path d="M 55.882727 261.216 
L 60.777017 239.59897 
L 62.408447 231.731007 
L 64.039877 224.816736 
L 65.671307 218.617735 
L 67.302736 211.941887 
L 70.565596 201.451269 
L 72.197026 196.126486 
L 73.828456 189.132741 
L 75.459886 184.523227 
L 77.091316 180.549509 
L 78.722746 177.291059 
L 83.617035 162.747248 
L 85.248465 158.535106 
L 86.879895 154.799811 
L 88.511325 149.475028 
L 91.774185 140.891795 
L 93.405614 135.249114 
L 95.037044 131.911191 
L 96.668474 128.016946 
L 101.562764 118.559495 
L 104.825624 110.532583 
L 106.457053 109.499417 
L 108.088483 106.956237 
L 109.719913 104.730954 
L 111.351343 102.903043 
L 114.614203 97.101414 
L 116.245633 93.76349 
L 117.877063 92.412426 
L 119.508492 90.266618 
L 122.771352 83.829193 
L 124.402782 81.524436 
L 126.034212 80.809167 
L 127.665642 77.789141 
L 129.297072 75.484384 
L 130.928502 73.497524 
L 132.559931 71.192767 
L 134.191361 69.285382 
L 135.822791 66.185882 
L 137.454221 65.470612 
L 139.085651 62.53006 
L 140.717081 60.622675 
L 142.348511 60.463727 
L 143.979941 58.953714 
L 145.61137 55.933687 
L 147.2428 55.218418 
L 148.87423 53.152084 
L 150.50566 52.436815 
L 152.13709 52.277866 
L 153.76852 52.516289 
L 155.39995 51.244699 
L 157.03138 51.403648 
L 158.66281 48.622045 
L 160.294239 47.98625 
L 161.925669 47.588878 
L 163.557099 47.668352 
L 165.188529 46.555711 
L 168.451389 45.681493 
L 170.082819 44.17148 
L 171.714249 45.681493 
L 173.345678 45.681493 
L 174.977108 43.45621 
L 176.608538 44.409903 
L 178.239968 44.409903 
L 179.871398 44.568852 
L 181.502828 45.204647 
L 183.134258 44.648326 
L 184.765688 42.581992 
L 186.397117 42.740941 
L 188.028547 42.661466 
L 189.659977 42.18462 
L 191.291407 41.866723 
L 192.922837 41.071979 
L 194.554267 39.164594 
L 196.185697 39.08512 
L 197.817127 36.939311 
L 199.448556 35.906145 
L 201.079986 36.54194 
L 202.711416 37.575106 
L 204.342846 35.667721 
L 209.237136 33.839811 
L 210.868566 34.634555 
L 212.499995 34.634555 
L 214.131425 33.839811 
L 215.762855 33.204016 
L 217.394285 31.137682 
L 219.025715 30.025041 
L 220.657145 29.707143 
L 222.288575 27.163963 
L 223.920005 24.859206 
L 225.551434 23.508142 
L 227.182864 24.064463 
L 228.814294 23.587616 
L 230.445724 24.302886 
L 233.708584 25.415527 
L 235.340014 25.812899 
L 238.602873 25.892373 
L 240.234303 26.210271 
L 241.865733 24.461834 
L 243.497163 26.210271 
L 245.128593 25.018155 
L 246.760023 24.302886 
L 248.391453 21.441808 
L 250.022883 21.83918 
L 251.654312 23.190244 
L 253.285742 21.362334 
L 254.917172 21.521283 
L 256.548602 19.375474 
L 258.180032 20.011269 
L 259.811462 19.296 
L 263.074322 20.56759 
L 264.705751 23.826039 
L 266.337181 25.65395 
L 267.968611 25.971848 
L 269.600041 25.336053 
L 271.231471 24.38236 
L 272.862901 24.064463 
L 274.494331 26.687117 
L 276.125761 25.733424 
L 277.75719 25.495001 
L 279.38862 26.130796 
L 281.02005 25.65395 
L 282.65148 26.289745 
L 284.28291 25.892373 
L 285.91434 25.177104 
L 287.54577 25.971848 
L 289.1772 25.574476 
L 290.80863 25.971848 
L 292.440059 26.130796 
L 294.071489 25.812899 
L 295.702919 25.892373 
L 297.334349 26.607643 
L 298.965779 28.356079 
L 300.597209 26.846066 
L 302.228639 26.846066 
L 305.491498 28.912399 
L 307.122928 27.243438 
L 308.754358 27.958707 
L 312.017218 25.812899 
L 315.280078 25.336053 
L 316.911508 25.256578 
L 321.805797 24.541309 
L 323.437227 24.541309 
L 325.068657 23.746565 
L 326.700087 22.077603 
L 331.594376 20.647064 
L 333.225806 19.534423 
L 334.857236 19.772846 
L 336.488666 20.885488 
L 338.120096 22.633924 
L 339.751526 22.077603 
L 341.382956 22.157078 
L 343.014386 24.461834 
L 344.645815 24.064463 
L 346.277245 23.031296 
L 347.908675 26.210271 
L 349.540105 26.766591 
L 351.171535 25.018155 
L 352.802965 25.733424 
L 354.434395 26.607643 
L 356.065825 25.971848 
L 357.697254 25.018155 
L 359.328684 23.826039 
L 362.591544 26.289745 
L 364.222974 27.084489 
L 365.854404 26.687117 
L 367.485834 26.448694 
L 369.117264 24.779732 
L 370.748693 26.766591 
L 372.380123 26.130796 
L 375.642983 25.733424 
L 377.274413 24.38236 
L 378.905843 25.495001 
L 380.537273 27.402386 
L 380.537273 27.402386 
" clip-path="url(#pd3bac01601)" style="fill: none; stroke: #2ca02c; stroke-width: 1.5; stroke-linecap: square"/>
   </g>
   <g id="line2d_20">
    <path d="M 55.882727 261.216 
L 57.514157 260.977577 
L 59.145587 260.580205 
L 60.777017 259.94441 
L 62.408447 259.149666 
L 65.671307 257.162807 
L 67.302736 256.447537 
L 68.934166 254.222255 
L 70.565596 252.473819 
L 73.828456 250.725382 
L 75.459886 249.05642 
L 77.091316 246.592715 
L 80.354175 242.221624 
L 81.985605 241.108983 
L 83.617035 239.519495 
L 85.248465 237.771059 
L 88.511325 233.002597 
L 90.142755 230.856788 
L 91.774185 229.187827 
L 93.405614 228.869929 
L 95.037044 225.929377 
L 96.668474 223.227248 
L 98.299904 220.207222 
L 99.931334 218.697209 
L 103.194194 214.405593 
L 104.825624 213.213477 
L 108.088483 210.272925 
L 111.351343 204.391821 
L 112.982773 202.404962 
L 114.614203 200.894949 
L 116.245633 200.100205 
L 117.877063 198.113346 
L 119.508492 195.888063 
L 121.139922 194.536999 
L 122.771352 192.709088 
L 124.402782 191.516972 
L 126.034212 188.894318 
L 127.665642 188.814844 
L 129.297072 188.179049 
L 130.928502 186.74851 
L 132.559931 184.284804 
L 134.191361 182.297945 
L 135.822791 182.536368 
L 137.454221 180.867406 
L 139.085651 181.185304 
L 140.717081 180.152137 
L 142.348511 178.324226 
L 143.979941 178.165277 
L 145.61137 178.244752 
L 147.2428 176.655264 
L 148.87423 176.098943 
L 152.13709 173.953135 
L 153.76852 173.476289 
L 157.03138 170.376788 
L 158.66281 171.012583 
L 161.925669 169.661519 
L 163.557099 169.423096 
L 165.188529 167.038865 
L 166.819959 167.118339 
L 168.451389 166.164647 
L 170.082819 166.562018 
L 171.714249 164.813582 
L 173.345678 163.780415 
L 174.977108 164.41621 
L 176.608538 162.826723 
L 178.239968 162.031979 
L 179.871398 161.87303 
L 181.502828 162.349876 
L 184.765688 160.521966 
L 186.397117 160.04512 
L 188.028547 158.535106 
L 189.659977 158.137735 
L 191.291407 156.150875 
L 192.922837 155.594555 
L 194.554267 155.435606 
L 196.185697 153.607695 
L 197.817127 153.369272 
L 199.448556 153.289798 
L 201.079986 152.892426 
L 202.711416 150.746618 
L 204.342846 151.461887 
L 205.974276 152.336105 
L 209.237136 150.587669 
L 210.868566 149.316079 
L 212.499995 147.408694 
L 214.131425 148.998181 
L 217.394285 150.110823 
L 219.025715 151.064515 
L 220.657145 151.064515 
L 222.288575 151.302938 
L 223.920005 151.938733 
L 225.551434 150.587669 
L 227.182864 150.587669 
L 228.814294 150.42872 
L 230.445724 150.031348 
L 233.708584 150.746618 
L 235.340014 149.713451 
L 236.971444 148.441861 
L 238.602873 147.726591 
L 240.234303 146.772899 
L 241.865733 148.362386 
L 243.497163 147.011322 
L 245.128593 147.726591 
L 246.760023 146.216578 
L 248.391453 147.567643 
L 250.022883 147.170271 
L 251.654312 145.262886 
L 253.285742 146.057629 
L 254.917172 145.739732 
L 256.548602 146.296053 
L 258.180032 144.229719 
L 261.442892 142.163385 
L 263.074322 143.037603 
L 264.705751 142.083911 
L 267.968611 139.779154 
L 269.600041 140.732846 
L 271.231471 143.037603 
L 272.862901 143.911821 
L 274.494331 142.79918 
L 276.125761 142.481283 
L 277.75719 140.494423 
L 279.38862 137.633346 
L 281.02005 138.030717 
L 282.65148 136.997551 
L 284.28291 139.540731 
L 285.91434 141.130218 
L 287.54577 139.779154 
L 289.1772 140.335474 
L 290.80863 140.414949 
L 292.440059 140.971269 
L 294.071489 142.322334 
L 295.702919 141.289167 
L 297.334349 142.004436 
L 298.965779 140.414949 
L 300.597209 142.560757 
L 302.228639 143.276026 
L 303.860069 143.037603 
L 305.491498 144.627091 
L 307.122928 145.978155 
L 308.754358 145.103937 
L 310.385788 146.693424 
L 312.017218 148.521335 
L 313.648648 148.123963 
L 315.280078 146.455001 
L 316.911508 145.501309 
L 318.542937 145.183411 
L 320.174367 146.852373 
L 321.805797 147.408694 
L 323.437227 146.057629 
L 326.700087 146.931848 
L 328.331517 146.455001 
L 329.962947 144.706565 
L 331.594376 144.150244 
L 333.225806 146.61395 
L 334.857236 145.103937 
L 338.120096 142.958129 
L 339.751526 143.991296 
L 341.382956 143.196552 
L 343.014386 141.924962 
L 344.645815 141.368641 
L 346.277245 141.209693 
L 347.908675 137.553871 
L 349.540105 138.507564 
L 351.171535 138.745987 
L 352.802965 138.745987 
L 354.434395 139.302307 
L 356.065825 139.461256 
L 357.697254 142.640231 
L 359.328684 142.163385 
L 360.960114 142.163385 
L 362.591544 142.322334 
L 364.222974 142.79918 
L 365.854404 143.593924 
L 367.485834 142.640231 
L 369.117264 144.07077 
L 370.748693 142.958129 
L 374.011553 145.421834 
L 375.642983 144.468142 
L 377.274413 144.229719 
L 378.905843 144.388668 
L 380.537273 143.832347 
L 380.537273 143.832347 
" clip-path="url(#pd3bac01601)" style="fill: none; stroke: #d62728; stroke-width: 1.5; stroke-linecap: square"/>
   </g>
   <g id="patch_3">
    <path d="M 39.65 273.312 
L 39.65 7.2 
" style="fill: none; stroke: #000000; stroke-width: 0.8; stroke-linejoin: miter; stroke-linecap: square"/>
   </g>
   <g id="patch_4">
    <path d="M 396.77 273.312 
L 396.77 7.2 
" style="fill: none; stroke: #000000; stroke-width: 0.8; stroke-linejoin: miter; stroke-linecap: square"/>
   </g>
   <g id="patch_5">
    <path d="M 39.65 273.312 
L 396.77 273.312 
" style="fill: none; stroke: #000000; stroke-width: 0.8; stroke-linejoin: miter; stroke-linecap: square"/>
   </g>
   <g id="patch_6">
    <path d="M 39.65 7.2 
L 396.77 7.2 
" style="fill: none; stroke: #000000; stroke-width: 0.8; stroke-linejoin: miter; stroke-linecap: square"/>
   </g>
  </g>
 </g>
 <defs>
  <clipPath id="pd3bac01601">
   <rect x="39.65" y="7.2" width="357.12" height="266.112"/>
  </clipPath>
 </defs>
</svg>
