<?xml version="1.0" encoding="utf-8" standalone="no"?>
<!DOCTYPE svg PUBLIC "-//W3C//DTD SVG 1.1//EN"
  "http://www.w3.org/Graphics/SVG/1.1/DTD/svg11.dtd">
<svg xmlns:xlink="http://www.w3.org/1999/xlink" width="403.97pt" height="297.190125pt" viewBox="0 0 403.97 297.190125" xmlns="http://www.w3.org/2000/svg" version="1.1">
 <metadata>
  <rdf:RDF xmlns:dc="http://purl.org/dc/elements/1.1/" xmlns:cc="http://creativecommons.org/ns#" xmlns:rdf="http://www.w3.org/1999/02/22-rdf-syntax-ns#">
   <cc:Work>
    <dc:type rdf:resource="http://purl.org/dc/dcmitype/StillImage"/>
    <dc:date>2024-06-28T04:39:21.158493</dc:date>
    <dc:format>image/svg+xml</dc:format>
    <dc:creator>
     <cc:Agent>
      <dc:title>Matplotlib v3.9.0, https://matplotlib.org/</dc:title>
     </cc:Agent>
    </dc:creator>
   </cc:Work>
  </rdf:RDF>
 </metadata>
 <defs>
  <style type="text/css">*{stroke-linejoin: round; stroke-linecap: butt}</style>
 </defs>
 <g id="figure_1">
  <g id="patch_1">
   <path d="M 0 297.190125 
L 403.97 297.190125 
L 403.97 0 
L 0 0 
z
" style="fill: #ffffff"/>
  </g>
  <g id="axes_1">
   <g id="patch_2">
    <path d="M 39.65 273.312 
L 396.77 273.312 
L 396.77 7.2 
L 39.65 7.2 
z
" style="fill: #ffffff"/>
   </g>
   <g id="matplotlib.axis_1">
    <g id="xtick_1">
     <g id="line2d_1">
      <defs>
       <path id="mf96aa148c5" d="M 0 0 
L 0 3.5 
" style="stroke: #000000; stroke-width: 0.8"/>
      </defs>
      <g>
       <use xlink:href="#mf96aa148c5" x="55.882727" y="273.312" style="stroke: #000000; stroke-width: 0.8"/>
      </g>
     </g>
     <g id="text_1">
      <!-- 0.0 -->
      <g transform="translate(47.931165 287.910437) scale(0.1 -0.1)">
       <defs>
        <path id="DejaVuSans-30" d="M 2034 4250 
Q 1547 4250 1301 3770 
Q 1056 3291 1056 2328 
Q 1056 1369 1301 889 
Q 1547 409 2034 409 
Q 2525 409 2770 889 
Q 3016 1369 3016 2328 
Q 3016 3291 2770 3770 
Q 2525 4250 2034 4250 
z
M 2034 4750 
Q 2819 4750 3233 4129 
Q 3647 3509 3647 2328 
Q 3647 1150 3233 529 
Q 2819 -91 2034 -91 
Q 1250 -91 836 529 
Q 422 1150 422 2328 
Q 422 3509 836 4129 
Q 1250 4750 2034 4750 
z
" transform="scale(0.015625)"/>
        <path id="DejaVuSans-2e" d="M 684 794 
L 1344 794 
L 1344 0 
L 684 0 
L 684 794 
z
" transform="scale(0.015625)"/>
       </defs>
       <use xlink:href="#DejaVuSans-30"/>
       <use xlink:href="#DejaVuSans-2e" x="63.623047"/>
       <use xlink:href="#DejaVuSans-30" x="95.410156"/>
      </g>
     </g>
    </g>
    <g id="xtick_2">
     <g id="line2d_2">
      <g>
       <use xlink:href="#mf96aa148c5" x="96.668474" y="273.312" style="stroke: #000000; stroke-width: 0.8"/>
      </g>
     </g>
     <g id="text_2">
      <!-- 2.5 -->
      <g transform="translate(88.716912 287.910437) scale(0.1 -0.1)">
       <defs>
        <path id="DejaVuSans-32" d="M 1228 531 
L 3431 531 
L 3431 0 
L 469 0 
L 469 531 
Q 828 903 1448 1529 
Q 2069 2156 2228 2338 
Q 2531 2678 2651 2914 
Q 2772 3150 2772 3378 
Q 2772 3750 2511 3984 
Q 2250 4219 1831 4219 
Q 1534 4219 1204 4116 
Q 875 4013 500 3803 
L 500 4441 
Q 881 4594 1212 4672 
Q 1544 4750 1819 4750 
Q 2544 4750 2975 4387 
Q 3406 4025 3406 3419 
Q 3406 3131 3298 2873 
Q 3191 2616 2906 2266 
Q 2828 2175 2409 1742 
Q 1991 1309 1228 531 
z
" transform="scale(0.015625)"/>
        <path id="DejaVuSans-35" d="M 691 4666 
L 3169 4666 
L 3169 4134 
L 1269 4134 
L 1269 2991 
Q 1406 3038 1543 3061 
Q 1681 3084 1819 3084 
Q 2600 3084 3056 2656 
Q 3513 2228 3513 1497 
Q 3513 744 3044 326 
Q 2575 -91 1722 -91 
Q 1428 -91 1123 -41 
Q 819 9 494 109 
L 494 744 
Q 775 591 1075 516 
Q 1375 441 1709 441 
Q 2250 441 2565 725 
Q 2881 1009 2881 1497 
Q 2881 1984 2565 2268 
Q 2250 2553 1709 2553 
Q 1456 2553 1204 2497 
Q 953 2441 691 2322 
L 691 4666 
z
" transform="scale(0.015625)"/>
       </defs>
       <use xlink:href="#DejaVuSans-32"/>
       <use xlink:href="#DejaVuSans-2e" x="63.623047"/>
       <use xlink:href="#DejaVuSans-35" x="95.410156"/>
      </g>
     </g>
    </g>
    <g id="xtick_3">
     <g id="line2d_3">
      <g>
       <use xlink:href="#mf96aa148c5" x="137.454221" y="273.312" style="stroke: #000000; stroke-width: 0.8"/>
      </g>
     </g>
     <g id="text_3">
      <!-- 5.0 -->
      <g transform="translate(129.502659 287.910437) scale(0.1 -0.1)">
       <use xlink:href="#DejaVuSans-35"/>
       <use xlink:href="#DejaVuSans-2e" x="63.623047"/>
       <use xlink:href="#DejaVuSans-30" x="95.410156"/>
      </g>
     </g>
    </g>
    <g id="xtick_4">
     <g id="line2d_4">
      <g>
       <use xlink:href="#mf96aa148c5" x="178.239968" y="273.312" style="stroke: #000000; stroke-width: 0.8"/>
      </g>
     </g>
     <g id="text_4">
      <!-- 7.5 -->
      <g transform="translate(170.288406 287.910437) scale(0.1 -0.1)">
       <defs>
        <path id="DejaVuSans-37" d="M 525 4666 
L 3525 4666 
L 3525 4397 
L 1831 0 
L 1172 0 
L 2766 4134 
L 525 4134 
L 525 4666 
z
" transform="scale(0.015625)"/>
       </defs>
       <use xlink:href="#DejaVuSans-37"/>
       <use xlink:href="#DejaVuSans-2e" x="63.623047"/>
       <use xlink:href="#DejaVuSans-35" x="95.410156"/>
      </g>
     </g>
    </g>
    <g id="xtick_5">
     <g id="line2d_5">
      <g>
       <use xlink:href="#mf96aa148c5" x="219.025715" y="273.312" style="stroke: #000000; stroke-width: 0.8"/>
      </g>
     </g>
     <g id="text_5">
      <!-- 10.0 -->
      <g transform="translate(207.892902 287.910437) scale(0.1 -0.1)">
       <defs>
        <path id="DejaVuSans-31" d="M 794 531 
L 1825 531 
L 1825 4091 
L 703 3866 
L 703 4441 
L 1819 4666 
L 2450 4666 
L 2450 531 
L 3481 531 
L 3481 0 
L 794 0 
L 794 531 
z
" transform="scale(0.015625)"/>
       </defs>
       <use xlink:href="#DejaVuSans-31"/>
       <use xlink:href="#DejaVuSans-30" x="63.623047"/>
       <use xlink:href="#DejaVuSans-2e" x="127.246094"/>
       <use xlink:href="#DejaVuSans-30" x="159.033203"/>
      </g>
     </g>
    </g>
    <g id="xtick_6">
     <g id="line2d_6">
      <g>
       <use xlink:href="#mf96aa148c5" x="259.811462" y="273.312" style="stroke: #000000; stroke-width: 0.8"/>
      </g>
     </g>
     <g id="text_6">
      <!-- 12.5 -->
      <g transform="translate(248.678649 287.910437) scale(0.1 -0.1)">
       <use xlink:href="#DejaVuSans-31"/>
       <use xlink:href="#DejaVuSans-32" x="63.623047"/>
       <use xlink:href="#DejaVuSans-2e" x="127.246094"/>
       <use xlink:href="#DejaVuSans-35" x="159.033203"/>
      </g>
     </g>
    </g>
    <g id="xtick_7">
     <g id="line2d_7">
      <g>
       <use xlink:href="#mf96aa148c5" x="300.597209" y="273.312" style="stroke: #000000; stroke-width: 0.8"/>
      </g>
     </g>
     <g id="text_7">
      <!-- 15.0 -->
      <g transform="translate(289.464396 287.910437) scale(0.1 -0.1)">
       <use xlink:href="#DejaVuSans-31"/>
       <use xlink:href="#DejaVuSans-35" x="63.623047"/>
       <use xlink:href="#DejaVuSans-2e" x="127.246094"/>
       <use xlink:href="#DejaVuSans-30" x="159.033203"/>
      </g>
     </g>
    </g>
    <g id="xtick_8">
     <g id="line2d_8">
      <g>
       <use xlink:href="#mf96aa148c5" x="341.382956" y="273.312" style="stroke: #000000; stroke-width: 0.8"/>
      </g>
     </g>
     <g id="text_8">
      <!-- 17.5 -->
      <g transform="translate(330.250143 287.910437) scale(0.1 -0.1)">
       <use xlink:href="#DejaVuSans-31"/>
       <use xlink:href="#DejaVuSans-37" x="63.623047"/>
       <use xlink:href="#DejaVuSans-2e" x="127.246094"/>
       <use xlink:href="#DejaVuSans-35" x="159.033203"/>
      </g>
     </g>
    </g>
    <g id="xtick_9">
     <g id="line2d_9">
      <g>
       <use xlink:href="#mf96aa148c5" x="382.168703" y="273.312" style="stroke: #000000; stroke-width: 0.8"/>
      </g>
     </g>
     <g id="text_9">
      <!-- 20.0 -->
      <g transform="translate(371.03589 287.910437) scale(0.1 -0.1)">
       <use xlink:href="#DejaVuSans-32"/>
       <use xlink:href="#DejaVuSans-30" x="63.623047"/>
       <use xlink:href="#DejaVuSans-2e" x="127.246094"/>
       <use xlink:href="#DejaVuSans-30" x="159.033203"/>
      </g>
     </g>
    </g>
   </g>
   <g id="matplotlib.axis_2">
    <g id="ytick_1">
     <g id="line2d_10">
      <defs>
       <path id="m6f231c7d94" d="M 0 0 
L -3.5 0 
" style="stroke: #000000; stroke-width: 0.8"/>
      </defs>
      <g>
       <use xlink:href="#m6f231c7d94" x="39.65" y="261.216" style="stroke: #000000; stroke-width: 0.8"/>
      </g>
     </g>
     <g id="text_10">
      <!-- 0 -->
      <g transform="translate(26.2875 265.015219) scale(0.1 -0.1)">
       <use xlink:href="#DejaVuSans-30"/>
      </g>
     </g>
    </g>
    <g id="ytick_2">
     <g id="line2d_11">
      <g>
       <use xlink:href="#m6f231c7d94" x="39.65" y="226.862876" style="stroke: #000000; stroke-width: 0.8"/>
      </g>
     </g>
     <g id="text_11">
      <!-- 500 -->
      <g transform="translate(13.5625 230.662095) scale(0.1 -0.1)">
       <use xlink:href="#DejaVuSans-35"/>
       <use xlink:href="#DejaVuSans-30" x="63.623047"/>
       <use xlink:href="#DejaVuSans-30" x="127.246094"/>
      </g>
     </g>
    </g>
    <g id="ytick_3">
     <g id="line2d_12">
      <g>
       <use xlink:href="#m6f231c7d94" x="39.65" y="192.509752" style="stroke: #000000; stroke-width: 0.8"/>
      </g>
     </g>
     <g id="text_12">
      <!-- 1000 -->
      <g transform="translate(7.2 196.308971) scale(0.1 -0.1)">
       <use xlink:href="#DejaVuSans-31"/>
       <use xlink:href="#DejaVuSans-30" x="63.623047"/>
       <use xlink:href="#DejaVuSans-30" x="127.246094"/>
       <use xlink:href="#DejaVuSans-30" x="190.869141"/>
      </g>
     </g>
    </g>
    <g id="ytick_4">
     <g id="line2d_13">
      <g>
       <use xlink:href="#m6f231c7d94" x="39.65" y="158.156628" style="stroke: #000000; stroke-width: 0.8"/>
      </g>
     </g>
     <g id="text_13">
      <!-- 1500 -->
      <g transform="translate(7.2 161.955847) scale(0.1 -0.1)">
       <use xlink:href="#DejaVuSans-31"/>
       <use xlink:href="#DejaVuSans-35" x="63.623047"/>
       <use xlink:href="#DejaVuSans-30" x="127.246094"/>
       <use xlink:href="#DejaVuSans-30" x="190.869141"/>
      </g>
     </g>
    </g>
    <g id="ytick_5">
     <g id="line2d_14">
      <g>
       <use xlink:href="#m6f231c7d94" x="39.65" y="123.803504" style="stroke: #000000; stroke-width: 0.8"/>
      </g>
     </g>
     <g id="text_14">
      <!-- 2000 -->
      <g transform="translate(7.2 127.602722) scale(0.1 -0.1)">
       <use xlink:href="#DejaVuSans-32"/>
       <use xlink:href="#DejaVuSans-30" x="63.623047"/>
       <use xlink:href="#DejaVuSans-30" x="127.246094"/>
       <use xlink:href="#DejaVuSans-30" x="190.869141"/>
      </g>
     </g>
    </g>
    <g id="ytick_6">
     <g id="line2d_15">
      <g>
       <use xlink:href="#m6f231c7d94" x="39.65" y="89.45038" style="stroke: #000000; stroke-width: 0.8"/>
      </g>
     </g>
     <g id="text_15">
      <!-- 2500 -->
      <g transform="translate(7.2 93.249598) scale(0.1 -0.1)">
       <use xlink:href="#DejaVuSans-32"/>
       <use xlink:href="#DejaVuSans-35" x="63.623047"/>
       <use xlink:href="#DejaVuSans-30" x="127.246094"/>
       <use xlink:href="#DejaVuSans-30" x="190.869141"/>
      </g>
     </g>
    </g>
    <g id="ytick_7">
     <g id="line2d_16">
      <g>
       <use xlink:href="#m6f231c7d94" x="39.65" y="55.097256" style="stroke: #000000; stroke-width: 0.8"/>
      </g>
     </g>
     <g id="text_16">
      <!-- 3000 -->
      <g transform="translate(7.2 58.896474) scale(0.1 -0.1)">
       <defs>
        <path id="DejaVuSans-33" d="M 2597 2516 
Q 3050 2419 3304 2112 
Q 3559 1806 3559 1356 
Q 3559 666 3084 287 
Q 2609 -91 1734 -91 
Q 1441 -91 1130 -33 
Q 819 25 488 141 
L 488 750 
Q 750 597 1062 519 
Q 1375 441 1716 441 
Q 2309 441 2620 675 
Q 2931 909 2931 1356 
Q 2931 1769 2642 2001 
Q 2353 2234 1838 2234 
L 1294 2234 
L 1294 2753 
L 1863 2753 
Q 2328 2753 2575 2939 
Q 2822 3125 2822 3475 
Q 2822 3834 2567 4026 
Q 2313 4219 1838 4219 
Q 1578 4219 1281 4162 
Q 984 4106 628 3988 
L 628 4550 
Q 988 4650 1302 4700 
Q 1616 4750 1894 4750 
Q 2613 4750 3031 4423 
Q 3450 4097 3450 3541 
Q 3450 3153 3228 2886 
Q 3006 2619 2597 2516 
z
" transform="scale(0.015625)"/>
       </defs>
       <use xlink:href="#DejaVuSans-33"/>
       <use xlink:href="#DejaVuSans-30" x="63.623047"/>
       <use xlink:href="#DejaVuSans-30" x="127.246094"/>
       <use xlink:href="#DejaVuSans-30" x="190.869141"/>
      </g>
     </g>
    </g>
    <g id="ytick_8">
     <g id="line2d_17">
      <g>
       <use xlink:href="#m6f231c7d94" x="39.65" y="20.744132" style="stroke: #000000; stroke-width: 0.8"/>
      </g>
     </g>
     <g id="text_17">
      <!-- 3500 -->
      <g transform="translate(7.2 24.54335) scale(0.1 -0.1)">
       <use xlink:href="#DejaVuSans-33"/>
       <use xlink:href="#DejaVuSans-35" x="63.623047"/>
       <use xlink:href="#DejaVuSans-30" x="127.246094"/>
       <use xlink:href="#DejaVuSans-30" x="190.869141"/>
      </g>
     </g>
    </g>
   </g>
   <g id="line2d_18">
    <path d="M 55.882727 261.216 
L 72.197026 192.509752 
L 88.511325 143.281725 
L 104.825624 108.009844 
L 121.139922 82.737541 
L 137.454221 64.629936 
L 153.76852 51.655837 
L 170.082819 42.359895 
L 186.397117 35.699353 
L 202.711416 30.927074 
L 219.025715 27.507736 
L 235.340014 25.057781 
L 251.654312 23.302388 
L 267.968611 22.044649 
L 284.28291 21.143479 
L 300.597209 20.49779 
L 316.911508 20.035155 
L 333.225806 19.703676 
L 349.540105 19.466172 
L 365.854404 19.296 
" clip-path="url(#p0e39af0321)" style="fill: none; stroke: #1f77b4; stroke-width: 1.5; stroke-linecap: square"/>
   </g>
   <g id="line2d_19">
    <path d="M 55.882727 261.216 
L 72.197026 261.216 
L 88.511325 238.313917 
L 104.825624 210.146646 
L 121.139922 183.928275 
L 137.454221 162.043662 
L 153.76852 144.772234 
L 170.082819 131.580383 
L 186.397117 121.709039 
L 202.711416 114.420911 
L 219.025715 109.088426 
L 235.340014 105.210949 
L 251.654312 102.4036 
L 267.968611 100.377177 
L 284.28291 98.917564 
L 300.597209 97.867809 
L 316.911508 97.113636 
L 333.225806 96.572231 
L 349.540105 96.183781 
L 365.854404 95.905183 
" clip-path="url(#p0e39af0321)" style="fill: none; stroke: #ff7f0e; stroke-width: 1.5; stroke-linecap: square"/>
   </g>
   <g id="line2d_20">
    <path d="M 55.882727 261.216 
L 57.514157 254.6202 
L 59.145587 246.787688 
L 60.777017 240.054476 
L 62.408447 234.626682 
L 65.671307 222.259557 
L 67.302736 215.457639 
L 68.934166 211.266558 
L 70.565596 206.594533 
L 72.197026 200.342264 
L 73.828456 195.326708 
L 75.459886 191.273039 
L 77.091316 185.845246 
L 78.722746 181.860283 
L 80.354175 178.768502 
L 81.985605 174.371302 
L 83.617035 170.317634 
L 85.248465 167.019734 
L 86.879895 162.966065 
L 88.511325 160.217815 
L 90.142755 158.29404 
L 91.774185 154.858728 
L 93.405614 150.667647 
L 95.037044 147.507159 
L 96.668474 144.621497 
L 98.299904 141.117478 
L 99.931334 139.26241 
L 101.562764 135.071328 
L 104.825624 130.742835 
L 106.457053 127.994585 
L 108.088483 124.765391 
L 109.719913 122.841616 
L 112.982773 118.581829 
L 114.614203 116.589348 
L 116.245633 114.322041 
L 117.877063 113.703685 
L 119.508492 112.123442 
L 121.139922 109.512604 
L 122.771352 109.718723 
L 124.402782 105.73376 
L 126.034212 104.771873 
L 127.665642 102.916804 
L 129.297072 102.023623 
L 130.928502 100.580792 
L 134.191361 99.962436 
L 135.822791 98.863136 
L 137.454221 97.420304 
L 139.085651 97.282892 
L 140.717081 96.664536 
L 142.348511 96.252298 
L 143.979941 94.259817 
L 150.50566 88.90073 
L 152.13709 86.289892 
L 155.39995 82.785874 
L 157.03138 83.335524 
L 158.66281 81.617867 
L 160.294239 80.999511 
L 161.925669 79.625386 
L 163.557099 78.663499 
L 165.188529 77.839024 
L 166.819959 76.80843 
L 168.451389 76.25878 
L 170.082819 74.541124 
L 171.714249 75.777836 
L 173.345678 75.022068 
L 174.977108 73.373118 
L 176.608538 72.754761 
L 178.239968 71.930286 
L 179.871398 70.830986 
L 181.502828 69.250743 
L 183.134258 67.876618 
L 184.765688 65.81543 
L 186.397117 66.296374 
L 188.028547 65.471899 
L 189.659977 63.61683 
L 191.291407 63.479418 
L 192.922837 62.51753 
L 194.554267 63.548124 
L 196.185697 64.71613 
L 197.817127 63.342005 
L 199.448556 65.059662 
L 201.079986 67.052143 
L 202.711416 67.739205 
L 204.342846 65.952843 
L 205.974276 66.36508 
L 207.605706 66.021549 
L 210.868566 64.441305 
L 212.499995 63.891655 
L 214.131425 63.06718 
L 215.762855 62.654943 
L 217.394285 62.448824 
L 219.025715 59.631868 
L 220.657145 57.639387 
L 222.288575 57.845506 
L 223.920005 57.433268 
L 225.551434 58.807393 
L 227.182864 58.051624 
L 228.814294 56.059143 
L 230.445724 58.326449 
L 232.077154 57.845506 
L 235.340014 59.013512 
L 236.971444 60.387637 
L 238.602873 61.349524 
L 240.234303 63.135887 
L 243.497163 60.799874 
L 245.128593 61.074699 
L 248.391453 59.082218 
L 250.022883 59.288337 
L 251.654312 57.501974 
L 254.917172 54.753724 
L 256.548602 53.929249 
L 258.180032 54.204074 
L 259.811462 53.310893 
L 261.442892 53.517012 
L 263.074322 53.379599 
L 264.705751 52.486418 
L 267.968611 52.280299 
L 269.600041 51.043587 
L 271.231471 51.318412 
L 272.862901 50.081699 
L 274.494331 50.562643 
L 276.125761 49.806874 
L 277.75719 49.463343 
L 279.38862 48.913693 
L 281.02005 49.257225 
L 282.65148 48.9824 
L 285.91434 49.394637 
L 287.54577 49.806874 
L 289.1772 50.356524 
L 290.80863 50.219112 
L 292.440059 48.707575 
L 294.071489 50.768762 
L 295.702919 51.180999 
L 297.334349 50.974881 
L 298.965779 52.280299 
L 300.597209 52.829949 
L 302.228639 53.104774 
L 303.860069 54.204074 
L 305.491498 53.448306 
L 307.122928 53.585718 
L 308.754358 51.661943 
L 310.385788 51.661943 
L 312.017218 53.585718 
L 313.648648 56.265262 
L 315.280078 55.509493 
L 316.911508 57.021031 
L 318.542937 54.547606 
L 320.174367 53.929249 
L 321.805797 53.860543 
L 323.437227 52.142887 
L 325.068657 52.692537 
L 326.700087 51.387118 
L 328.331517 50.837468 
L 331.594376 52.349006 
L 333.225806 52.005474 
L 334.857236 51.318412 
L 336.488666 51.112293 
L 338.120096 49.600756 
L 339.751526 52.142887 
L 341.382956 52.898656 
L 343.014386 53.310893 
L 344.645815 53.860543 
L 346.277245 54.822431 
L 347.908675 53.379599 
L 349.540105 52.692537 
L 351.171535 52.211593 
L 352.802965 51.387118 
L 354.434395 52.692537 
L 356.065825 53.723131 
L 357.697254 53.517012 
L 359.328684 54.959843 
L 360.960114 54.891137 
L 364.222974 57.639387 
L 365.854404 57.021031 
L 367.485834 57.227149 
L 369.117264 55.303374 
L 370.748693 55.921731 
L 372.380123 56.265262 
L 374.011553 57.227149 
L 375.642983 55.578199 
L 377.274413 54.135368 
L 378.905843 56.402674 
L 380.537273 62.036587 
L 380.537273 62.036587 
" clip-path="url(#p0e39af0321)" style="fill: none; stroke: #2ca02c; stroke-width: 1.5; stroke-linecap: square"/>
   </g>
   <g id="line2d_21">
    <path d="M 55.882727 261.216 
L 57.514157 261.078588 
L 59.145587 260.735056 
L 64.039877 257.643275 
L 65.671307 256.200444 
L 67.302736 255.925619 
L 70.565596 252.833838 
L 72.197026 252.009363 
L 73.828456 250.77265 
L 75.459886 248.642757 
L 77.091316 247.543457 
L 78.722746 245.482269 
L 80.354175 242.802725 
L 81.985605 240.947657 
L 83.617035 239.504826 
L 85.248465 237.443638 
L 86.879895 236.893988 
L 88.511325 235.245038 
L 90.142755 233.252557 
L 91.774185 232.29067 
L 93.405614 230.573013 
L 95.037044 229.405007 
L 98.299904 226.519345 
L 101.562764 222.740501 
L 103.194194 222.39697 
L 104.825624 220.060957 
L 106.457053 218.068476 
L 108.088483 217.793651 
L 109.719913 214.839283 
L 111.351343 212.915508 
L 112.982773 211.197851 
L 114.614203 208.449601 
L 116.245633 207.144183 
L 117.877063 204.739464 
L 119.508492 203.777577 
L 121.139922 202.60957 
L 122.771352 201.166739 
L 124.402782 201.922508 
L 126.034212 198.830727 
L 129.297072 196.219889 
L 132.559931 194.708352 
L 134.191361 193.471639 
L 135.822791 193.334227 
L 139.085651 189.417971 
L 140.717081 188.662202 
L 143.979941 188.043846 
L 145.61137 188.043846 
L 147.2428 186.463602 
L 148.87423 185.22689 
L 150.50566 185.089477 
L 152.13709 185.295596 
L 153.76852 185.295596 
L 155.39995 184.539827 
L 157.03138 181.92899 
L 158.66281 181.92899 
L 160.294239 180.967102 
L 161.925669 181.035808 
L 163.557099 180.073921 
L 165.188529 179.524271 
L 166.819959 179.386858 
L 168.451389 177.600496 
L 170.082819 177.463084 
L 171.714249 174.78354 
L 173.345678 174.78354 
L 174.977108 173.959065 
L 176.608538 172.722352 
L 178.239968 171.966584 
L 179.871398 171.691759 
L 181.502828 172.722352 
L 183.134258 172.447527 
L 184.765688 172.791059 
L 186.397117 170.729871 
L 188.028547 170.042809 
L 189.659977 170.180221 
L 191.291407 170.111515 
L 192.922837 169.149627 
L 194.554267 167.981621 
L 196.185697 167.706796 
L 197.817127 168.806096 
L 199.448556 166.951028 
L 202.711416 164.134071 
L 205.974276 163.584421 
L 207.605706 163.515715 
L 210.868566 163.927953 
L 212.499995 164.477603 
L 214.131425 166.195259 
L 215.762855 166.744909 
L 217.394285 165.370784 
L 219.025715 167.225853 
L 220.657145 168.599978 
L 223.920005 169.767984 
L 225.551434 167.912915 
L 227.182864 167.981621 
L 228.814294 169.080921 
L 230.445724 167.775503 
L 232.077154 167.431971 
L 233.708584 166.263965 
L 235.340014 165.370784 
L 236.971444 165.783021 
L 238.602873 166.744909 
L 240.234303 165.095959 
L 241.865733 165.783021 
L 243.497163 166.126553 
L 245.128593 165.095959 
L 248.391453 165.164665 
L 250.022883 164.88984 
L 251.654312 164.271484 
L 253.285742 165.370784 
L 254.917172 164.546309 
L 256.548602 165.302078 
L 258.180032 164.202778 
L 259.811462 165.508196 
L 261.442892 165.508196 
L 263.074322 166.951028 
L 264.705751 167.912915 
L 266.337181 165.43949 
L 267.968611 165.370784 
L 269.600041 165.714315 
L 272.862901 164.546309 
L 274.494331 163.24089 
L 276.125761 163.172184 
L 277.75719 162.69124 
L 279.38862 163.927953 
L 281.02005 162.485121 
L 282.65148 161.660646 
L 284.28291 161.04229 
L 285.91434 159.255928 
L 287.54577 159.805578 
L 289.1772 160.767465 
L 290.80863 160.904878 
L 292.440059 163.103478 
L 294.071489 160.767465 
L 295.702919 161.454528 
L 297.334349 160.973584 
L 300.597209 158.225334 
L 302.228639 159.118515 
L 303.860069 158.84369 
L 305.491498 158.981103 
L 307.122928 158.29404 
L 308.754358 158.774984 
L 310.385788 158.156628 
L 312.017218 157.332153 
L 313.648648 155.958028 
L 315.280078 156.782503 
L 316.911508 155.958028 
L 318.542937 158.087922 
L 320.174367 157.881803 
L 321.805797 159.187222 
L 323.437227 158.84369 
L 325.068657 158.087922 
L 326.700087 158.362747 
L 328.331517 159.187222 
L 329.962947 157.813097 
L 331.594376 157.675684 
L 333.225806 157.881803 
L 334.857236 156.782503 
L 336.488666 157.126034 
L 338.120096 158.156628 
L 339.751526 156.232853 
L 343.014386 155.339672 
L 344.645815 154.583903 
L 346.277245 154.034253 
L 347.908675 153.965547 
L 349.540105 154.652609 
L 351.171535 155.133553 
L 352.802965 155.270965 
L 354.434395 154.721315 
L 356.065825 153.484603 
L 357.697254 154.583903 
L 359.328684 152.79754 
L 360.960114 153.003659 
L 362.591544 151.904359 
L 364.222974 151.492122 
L 365.854404 151.835653 
L 367.485834 151.904359 
L 369.117264 153.278484 
L 372.380123 153.003659 
L 374.011553 152.385303 
L 377.274413 154.652609 
L 378.905843 153.828134 
L 380.537273 154.583903 
L 380.537273 154.583903 
" clip-path="url(#p0e39af0321)" style="fill: none; stroke: #d62728; stroke-width: 1.5; stroke-linecap: square"/>
   </g>
   <g id="patch_3">
    <path d="M 39.65 273.312 
L 39.65 7.2 
" style="fill: none; stroke: #000000; stroke-width: 0.8; stroke-linejoin: miter; stroke-linecap: square"/>
   </g>
   <g id="patch_4">
    <path d="M 396.77 273.312 
L 396.77 7.2 
" style="fill: none; stroke: #000000; stroke-width: 0.8; stroke-linejoin: miter; stroke-linecap: square"/>
   </g>
   <g id="patch_5">
    <path d="M 39.65 273.312 
L 396.77 273.312 
" style="fill: none; stroke: #000000; stroke-width: 0.8; stroke-linejoin: miter; stroke-linecap: square"/>
   </g>
   <g id="patch_6">
    <path d="M 39.65 7.2 
L 396.77 7.2 
" style="fill: none; stroke: #000000; stroke-width: 0.8; stroke-linejoin: miter; stroke-linecap: square"/>
   </g>
  </g>
 </g>
 <defs>
  <clipPath id="p0e39af0321">
   <rect x="39.65" y="7.2" width="357.12" height="266.112"/>
  </clipPath>
 </defs>
</svg>
