<?xml version="1.0" encoding="utf-8" standalone="no"?>
<!DOCTYPE svg PUBLIC "-//W3C//DTD SVG 1.1//EN"
  "http://www.w3.org/Graphics/SVG/1.1/DTD/svg11.dtd">
<svg xmlns:xlink="http://www.w3.org/1999/xlink" width="403.97pt" height="297.190125pt" viewBox="0 0 403.97 297.190125" xmlns="http://www.w3.org/2000/svg" version="1.1">
 <metadata>
  <rdf:RDF xmlns:dc="http://purl.org/dc/elements/1.1/" xmlns:cc="http://creativecommons.org/ns#" xmlns:rdf="http://www.w3.org/1999/02/22-rdf-syntax-ns#">
   <cc:Work>
    <dc:type rdf:resource="http://purl.org/dc/dcmitype/StillImage"/>
    <dc:date>2024-06-28T04:39:22.618819</dc:date>
    <dc:format>image/svg+xml</dc:format>
    <dc:creator>
     <cc:Agent>
      <dc:title>Matplotlib v3.9.0, https://matplotlib.org/</dc:title>
     </cc:Agent>
    </dc:creator>
   </cc:Work>
  </rdf:RDF>
 </metadata>
 <defs>
  <style type="text/css">*{stroke-linejoin: round; stroke-linecap: butt}</style>
 </defs>
 <g id="figure_1">
  <g id="patch_1">
   <path d="M 0 297.190125 
L 403.97 297.190125 
L 403.97 0 
L 0 0 
z
" style="fill: #ffffff"/>
  </g>
  <g id="axes_1">
   <g id="patch_2">
    <path d="M 39.65 273.312 
L 396.77 273.312 
L 396.77 7.2 
L 39.65 7.2 
z
" style="fill: #ffffff"/>
   </g>
   <g id="matplotlib.axis_1">
    <g id="xtick_1">
     <g id="line2d_1">
      <defs>
       <path id="m593e024398" d="M 0 0 
L 0 3.5 
" style="stroke: #000000; stroke-width: 0.8"/>
      </defs>
      <g>
       <use xlink:href="#m593e024398" x="55.882727" y="273.312" style="stroke: #000000; stroke-width: 0.8"/>
      </g>
     </g>
     <g id="text_1">
      <!-- 0.0 -->
      <g transform="translate(47.931165 287.910437) scale(0.1 -0.1)">
       <defs>
        <path id="DejaVuSans-30" d="M 2034 4250 
Q 1547 4250 1301 3770 
Q 1056 3291 1056 2328 
Q 1056 1369 1301 889 
Q 1547 409 2034 409 
Q 2525 409 2770 889 
Q 3016 1369 3016 2328 
Q 3016 3291 2770 3770 
Q 2525 4250 2034 4250 
z
M 2034 4750 
Q 2819 4750 3233 4129 
Q 3647 3509 3647 2328 
Q 3647 1150 3233 529 
Q 2819 -91 2034 -91 
Q 1250 -91 836 529 
Q 422 1150 422 2328 
Q 422 3509 836 4129 
Q 1250 4750 2034 4750 
z
" transform="scale(0.015625)"/>
        <path id="DejaVuSans-2e" d="M 684 794 
L 1344 794 
L 1344 0 
L 684 0 
L 684 794 
z
" transform="scale(0.015625)"/>
       </defs>
       <use xlink:href="#DejaVuSans-30"/>
       <use xlink:href="#DejaVuSans-2e" x="63.623047"/>
       <use xlink:href="#DejaVuSans-30" x="95.410156"/>
      </g>
     </g>
    </g>
    <g id="xtick_2">
     <g id="line2d_2">
      <g>
       <use xlink:href="#m593e024398" x="96.668474" y="273.312" style="stroke: #000000; stroke-width: 0.8"/>
      </g>
     </g>
     <g id="text_2">
      <!-- 2.5 -->
      <g transform="translate(88.716912 287.910437) scale(0.1 -0.1)">
       <defs>
        <path id="DejaVuSans-32" d="M 1228 531 
L 3431 531 
L 3431 0 
L 469 0 
L 469 531 
Q 828 903 1448 1529 
Q 2069 2156 2228 2338 
Q 2531 2678 2651 2914 
Q 2772 3150 2772 3378 
Q 2772 3750 2511 3984 
Q 2250 4219 1831 4219 
Q 1534 4219 1204 4116 
Q 875 4013 500 3803 
L 500 4441 
Q 881 4594 1212 4672 
Q 1544 4750 1819 4750 
Q 2544 4750 2975 4387 
Q 3406 4025 3406 3419 
Q 3406 3131 3298 2873 
Q 3191 2616 2906 2266 
Q 2828 2175 2409 1742 
Q 1991 1309 1228 531 
z
" transform="scale(0.015625)"/>
        <path id="DejaVuSans-35" d="M 691 4666 
L 3169 4666 
L 3169 4134 
L 1269 4134 
L 1269 2991 
Q 1406 3038 1543 3061 
Q 1681 3084 1819 3084 
Q 2600 3084 3056 2656 
Q 3513 2228 3513 1497 
Q 3513 744 3044 326 
Q 2575 -91 1722 -91 
Q 1428 -91 1123 -41 
Q 819 9 494 109 
L 494 744 
Q 775 591 1075 516 
Q 1375 441 1709 441 
Q 2250 441 2565 725 
Q 2881 1009 2881 1497 
Q 2881 1984 2565 2268 
Q 2250 2553 1709 2553 
Q 1456 2553 1204 2497 
Q 953 2441 691 2322 
L 691 4666 
z
" transform="scale(0.015625)"/>
       </defs>
       <use xlink:href="#DejaVuSans-32"/>
       <use xlink:href="#DejaVuSans-2e" x="63.623047"/>
       <use xlink:href="#DejaVuSans-35" x="95.410156"/>
      </g>
     </g>
    </g>
    <g id="xtick_3">
     <g id="line2d_3">
      <g>
       <use xlink:href="#m593e024398" x="137.454221" y="273.312" style="stroke: #000000; stroke-width: 0.8"/>
      </g>
     </g>
     <g id="text_3">
      <!-- 5.0 -->
      <g transform="translate(129.502659 287.910437) scale(0.1 -0.1)">
       <use xlink:href="#DejaVuSans-35"/>
       <use xlink:href="#DejaVuSans-2e" x="63.623047"/>
       <use xlink:href="#DejaVuSans-30" x="95.410156"/>
      </g>
     </g>
    </g>
    <g id="xtick_4">
     <g id="line2d_4">
      <g>
       <use xlink:href="#m593e024398" x="178.239968" y="273.312" style="stroke: #000000; stroke-width: 0.8"/>
      </g>
     </g>
     <g id="text_4">
      <!-- 7.5 -->
      <g transform="translate(170.288406 287.910437) scale(0.1 -0.1)">
       <defs>
        <path id="DejaVuSans-37" d="M 525 4666 
L 3525 4666 
L 3525 4397 
L 1831 0 
L 1172 0 
L 2766 4134 
L 525 4134 
L 525 4666 
z
" transform="scale(0.015625)"/>
       </defs>
       <use xlink:href="#DejaVuSans-37"/>
       <use xlink:href="#DejaVuSans-2e" x="63.623047"/>
       <use xlink:href="#DejaVuSans-35" x="95.410156"/>
      </g>
     </g>
    </g>
    <g id="xtick_5">
     <g id="line2d_5">
      <g>
       <use xlink:href="#m593e024398" x="219.025715" y="273.312" style="stroke: #000000; stroke-width: 0.8"/>
      </g>
     </g>
     <g id="text_5">
      <!-- 10.0 -->
      <g transform="translate(207.892902 287.910437) scale(0.1 -0.1)">
       <defs>
        <path id="DejaVuSans-31" d="M 794 531 
L 1825 531 
L 1825 4091 
L 703 3866 
L 703 4441 
L 1819 4666 
L 2450 4666 
L 2450 531 
L 3481 531 
L 3481 0 
L 794 0 
L 794 531 
z
" transform="scale(0.015625)"/>
       </defs>
       <use xlink:href="#DejaVuSans-31"/>
       <use xlink:href="#DejaVuSans-30" x="63.623047"/>
       <use xlink:href="#DejaVuSans-2e" x="127.246094"/>
       <use xlink:href="#DejaVuSans-30" x="159.033203"/>
      </g>
     </g>
    </g>
    <g id="xtick_6">
     <g id="line2d_6">
      <g>
       <use xlink:href="#m593e024398" x="259.811462" y="273.312" style="stroke: #000000; stroke-width: 0.8"/>
      </g>
     </g>
     <g id="text_6">
      <!-- 12.5 -->
      <g transform="translate(248.678649 287.910437) scale(0.1 -0.1)">
       <use xlink:href="#DejaVuSans-31"/>
       <use xlink:href="#DejaVuSans-32" x="63.623047"/>
       <use xlink:href="#DejaVuSans-2e" x="127.246094"/>
       <use xlink:href="#DejaVuSans-35" x="159.033203"/>
      </g>
     </g>
    </g>
    <g id="xtick_7">
     <g id="line2d_7">
      <g>
       <use xlink:href="#m593e024398" x="300.597209" y="273.312" style="stroke: #000000; stroke-width: 0.8"/>
      </g>
     </g>
     <g id="text_7">
      <!-- 15.0 -->
      <g transform="translate(289.464396 287.910437) scale(0.1 -0.1)">
       <use xlink:href="#DejaVuSans-31"/>
       <use xlink:href="#DejaVuSans-35" x="63.623047"/>
       <use xlink:href="#DejaVuSans-2e" x="127.246094"/>
       <use xlink:href="#DejaVuSans-30" x="159.033203"/>
      </g>
     </g>
    </g>
    <g id="xtick_8">
     <g id="line2d_8">
      <g>
       <use xlink:href="#m593e024398" x="341.382956" y="273.312" style="stroke: #000000; stroke-width: 0.8"/>
      </g>
     </g>
     <g id="text_8">
      <!-- 17.5 -->
      <g transform="translate(330.250143 287.910437) scale(0.1 -0.1)">
       <use xlink:href="#DejaVuSans-31"/>
       <use xlink:href="#DejaVuSans-37" x="63.623047"/>
       <use xlink:href="#DejaVuSans-2e" x="127.246094"/>
       <use xlink:href="#DejaVuSans-35" x="159.033203"/>
      </g>
     </g>
    </g>
    <g id="xtick_9">
     <g id="line2d_9">
      <g>
       <use xlink:href="#m593e024398" x="382.168703" y="273.312" style="stroke: #000000; stroke-width: 0.8"/>
      </g>
     </g>
     <g id="text_9">
      <!-- 20.0 -->
      <g transform="translate(371.03589 287.910437) scale(0.1 -0.1)">
       <use xlink:href="#DejaVuSans-32"/>
       <use xlink:href="#DejaVuSans-30" x="63.623047"/>
       <use xlink:href="#DejaVuSans-2e" x="127.246094"/>
       <use xlink:href="#DejaVuSans-30" x="159.033203"/>
      </g>
     </g>
    </g>
   </g>
   <g id="matplotlib.axis_2">
    <g id="ytick_1">
     <g id="line2d_10">
      <defs>
       <path id="mea32930529" d="M 0 0 
L -3.5 0 
" style="stroke: #000000; stroke-width: 0.8"/>
      </defs>
      <g>
       <use xlink:href="#mea32930529" x="39.65" y="261.216" style="stroke: #000000; stroke-width: 0.8"/>
      </g>
     </g>
     <g id="text_10">
      <!-- 0 -->
      <g transform="translate(26.2875 265.015219) scale(0.1 -0.1)">
       <use xlink:href="#DejaVuSans-30"/>
      </g>
     </g>
    </g>
    <g id="ytick_2">
     <g id="line2d_11">
      <g>
       <use xlink:href="#mea32930529" x="39.65" y="222.108338" style="stroke: #000000; stroke-width: 0.8"/>
      </g>
     </g>
     <g id="text_11">
      <!-- 500 -->
      <g transform="translate(13.5625 225.907556) scale(0.1 -0.1)">
       <use xlink:href="#DejaVuSans-35"/>
       <use xlink:href="#DejaVuSans-30" x="63.623047"/>
       <use xlink:href="#DejaVuSans-30" x="127.246094"/>
      </g>
     </g>
    </g>
    <g id="ytick_3">
     <g id="line2d_12">
      <g>
       <use xlink:href="#mea32930529" x="39.65" y="183.000675" style="stroke: #000000; stroke-width: 0.8"/>
      </g>
     </g>
     <g id="text_12">
      <!-- 1000 -->
      <g transform="translate(7.2 186.799894) scale(0.1 -0.1)">
       <use xlink:href="#DejaVuSans-31"/>
       <use xlink:href="#DejaVuSans-30" x="63.623047"/>
       <use xlink:href="#DejaVuSans-30" x="127.246094"/>
       <use xlink:href="#DejaVuSans-30" x="190.869141"/>
      </g>
     </g>
    </g>
    <g id="ytick_4">
     <g id="line2d_13">
      <g>
       <use xlink:href="#mea32930529" x="39.65" y="143.893013" style="stroke: #000000; stroke-width: 0.8"/>
      </g>
     </g>
     <g id="text_13">
      <!-- 1500 -->
      <g transform="translate(7.2 147.692231) scale(0.1 -0.1)">
       <use xlink:href="#DejaVuSans-31"/>
       <use xlink:href="#DejaVuSans-35" x="63.623047"/>
       <use xlink:href="#DejaVuSans-30" x="127.246094"/>
       <use xlink:href="#DejaVuSans-30" x="190.869141"/>
      </g>
     </g>
    </g>
    <g id="ytick_5">
     <g id="line2d_14">
      <g>
       <use xlink:href="#mea32930529" x="39.65" y="104.78535" style="stroke: #000000; stroke-width: 0.8"/>
      </g>
     </g>
     <g id="text_14">
      <!-- 2000 -->
      <g transform="translate(7.2 108.584569) scale(0.1 -0.1)">
       <use xlink:href="#DejaVuSans-32"/>
       <use xlink:href="#DejaVuSans-30" x="63.623047"/>
       <use xlink:href="#DejaVuSans-30" x="127.246094"/>
       <use xlink:href="#DejaVuSans-30" x="190.869141"/>
      </g>
     </g>
    </g>
    <g id="ytick_6">
     <g id="line2d_15">
      <g>
       <use xlink:href="#mea32930529" x="39.65" y="65.677688" style="stroke: #000000; stroke-width: 0.8"/>
      </g>
     </g>
     <g id="text_15">
      <!-- 2500 -->
      <g transform="translate(7.2 69.476906) scale(0.1 -0.1)">
       <use xlink:href="#DejaVuSans-32"/>
       <use xlink:href="#DejaVuSans-35" x="63.623047"/>
       <use xlink:href="#DejaVuSans-30" x="127.246094"/>
       <use xlink:href="#DejaVuSans-30" x="190.869141"/>
      </g>
     </g>
    </g>
    <g id="ytick_7">
     <g id="line2d_16">
      <g>
       <use xlink:href="#mea32930529" x="39.65" y="26.570025" style="stroke: #000000; stroke-width: 0.8"/>
      </g>
     </g>
     <g id="text_16">
      <!-- 3000 -->
      <g transform="translate(7.2 30.369244) scale(0.1 -0.1)">
       <defs>
        <path id="DejaVuSans-33" d="M 2597 2516 
Q 3050 2419 3304 2112 
Q 3559 1806 3559 1356 
Q 3559 666 3084 287 
Q 2609 -91 1734 -91 
Q 1441 -91 1130 -33 
Q 819 25 488 141 
L 488 750 
Q 750 597 1062 519 
Q 1375 441 1716 441 
Q 2309 441 2620 675 
Q 2931 909 2931 1356 
Q 2931 1769 2642 2001 
Q 2353 2234 1838 2234 
L 1294 2234 
L 1294 2753 
L 1863 2753 
Q 2328 2753 2575 2939 
Q 2822 3125 2822 3475 
Q 2822 3834 2567 4026 
Q 2313 4219 1838 4219 
Q 1578 4219 1281 4162 
Q 984 4106 628 3988 
L 628 4550 
Q 988 4650 1302 4700 
Q 1616 4750 1894 4750 
Q 2613 4750 3031 4423 
Q 3450 4097 3450 3541 
Q 3450 3153 3228 2886 
Q 3006 2619 2597 2516 
z
" transform="scale(0.015625)"/>
       </defs>
       <use xlink:href="#DejaVuSans-33"/>
       <use xlink:href="#DejaVuSans-30" x="63.623047"/>
       <use xlink:href="#DejaVuSans-30" x="127.246094"/>
       <use xlink:href="#DejaVuSans-30" x="190.869141"/>
      </g>
     </g>
    </g>
   </g>
   <g id="line2d_17">
    <path d="M 55.882727 261.216 
L 59.961302 241.662169 
L 64.039877 223.737172 
L 68.118451 207.305327 
L 72.197026 192.242255 
L 76.275601 178.433936 
L 80.354175 165.775851 
L 84.43275 154.172184 
L 88.511325 143.535103 
L 92.589899 133.78409 
L 96.668474 124.845337 
L 100.747049 116.651182 
L 104.825624 109.1396 
L 108.904198 102.253733 
L 112.982773 95.941459 
L 117.061348 90.154997 
L 121.139922 84.850547 
L 125.218497 79.987958 
L 129.297072 75.530423 
L 133.375646 71.4442 
L 137.454221 67.69836 
L 141.532796 64.264548 
L 145.61137 61.116773 
L 149.689945 58.231207 
L 153.76852 55.586009 
L 157.847095 53.161156 
L 161.925669 50.938293 
L 166.004244 48.900595 
L 170.082819 47.032637 
L 174.161393 45.32028 
L 178.239968 43.750562 
L 182.318543 42.311602 
L 186.397117 40.992507 
L 190.475692 39.783293 
L 194.554267 38.674806 
L 198.632841 37.658656 
L 202.711416 36.727152 
L 206.789991 35.873242 
L 210.868566 35.090462 
L 214.94714 34.372888 
L 219.025715 33.715088 
L 223.10429 33.112083 
L 227.182864 32.559308 
L 231.261439 32.052579 
L 235.340014 31.588061 
L 239.418588 31.162237 
L 243.497163 30.771884 
L 247.575738 30.414048 
L 251.654312 30.086019 
L 255.732887 29.785315 
L 259.811462 29.50966 
L 263.890037 29.256967 
L 267.968611 29.025323 
L 272.047186 28.812975 
L 276.125761 28.618316 
L 280.204335 28.439872 
L 284.28291 28.276292 
L 288.361485 28.126339 
L 292.440059 27.988876 
L 296.518634 27.862864 
L 300.597209 27.747349 
L 304.675783 27.641457 
L 308.754358 27.544385 
L 312.832933 27.455399 
L 316.911508 27.373826 
L 320.990082 27.299048 
L 325.068657 27.230499 
L 329.147232 27.16766 
L 333.225806 27.110055 
L 337.304381 27.057249 
L 341.382956 27.008842 
L 345.46153 26.964467 
L 349.540105 26.923788 
L 353.61868 26.886498 
L 357.697254 26.852315 
L 361.775829 26.820978 
L 365.854404 26.792253 
L 369.932979 26.765919 
L 374.011553 26.74178 
L 378.090128 26.719651 
" clip-path="url(#p8dd0d7bfff)" style="fill: none; stroke: #1f77b4; stroke-width: 1.5; stroke-linecap: square"/>
   </g>
   <g id="line2d_18">
    <path d="M 55.882727 261.216 
L 59.961302 261.216 
L 64.039877 259.587166 
L 68.118451 256.736706 
L 72.197026 252.992645 
L 76.275601 248.617966 
L 80.354175 243.822312 
L 84.43275 238.771675 
L 88.511325 233.596394 
L 92.589899 228.397764 
L 96.668474 223.253486 
L 100.747049 218.222161 
L 104.825624 213.346984 
L 108.904198 208.658785 
L 112.982773 204.178516 
L 117.061348 199.919295 
L 121.139922 195.888074 
L 125.218497 192.086997 
L 129.297072 188.514506 
L 133.375646 185.166237 
L 137.454221 182.035741 
L 141.532796 179.115071 
L 145.61137 176.39524 
L 149.689945 173.866595 
L 153.76852 171.519108 
L 157.847095 169.342601 
L 161.925669 167.326928 
L 166.004244 165.462104 
L 170.082819 163.738405 
L 174.161393 162.146446 
L 178.239968 160.677227 
L 182.318543 159.32217 
L 186.397117 158.073135 
L 190.475692 156.922433 
L 194.554267 155.862826 
L 198.632841 154.887519 
L 202.711416 153.99015 
L 206.789991 153.164778 
L 210.868566 152.405865 
L 214.94714 151.708257 
L 219.025715 151.067167 
L 223.10429 150.478151 
L 227.182864 149.937094 
L 231.261439 149.440186 
L 235.340014 148.983901 
L 239.418588 148.564984 
L 243.497163 148.18043 
L 247.575738 147.827465 
L 251.654312 147.503531 
L 255.732887 147.206272 
L 259.811462 146.933518 
L 263.890037 146.68327 
L 267.968611 146.453688 
L 272.047186 146.243082 
L 276.125761 146.049896 
L 280.204335 145.872698 
L 284.28291 145.710175 
L 288.361485 145.561119 
L 292.440059 145.424418 
L 296.518634 145.299056 
L 300.597209 145.184094 
L 304.675783 145.078674 
L 308.754358 144.982007 
L 312.832933 144.893368 
L 316.911508 144.812093 
L 320.990082 144.737571 
L 325.068657 144.669243 
L 329.147232 144.606595 
L 333.225806 144.549156 
L 337.304381 144.496494 
L 341.382956 144.448212 
L 345.46153 144.403946 
L 349.540105 144.363362 
L 353.61868 144.326156 
L 357.697254 144.292045 
L 361.775829 144.260774 
L 365.854404 144.232105 
L 369.932979 144.205822 
L 374.011553 144.181727 
L 378.090128 144.159638 
" clip-path="url(#p8dd0d7bfff)" style="fill: none; stroke: #ff7f0e; stroke-width: 1.5; stroke-linecap: square"/>
   </g>
   <g id="line2d_19">
    <path d="M 55.882727 261.216 
L 57.514157 253.707329 
L 59.145587 244.790782 
L 60.777017 237.12568 
L 62.408447 230.946669 
L 65.671307 216.867911 
L 67.302736 209.124594 
L 68.934166 204.353459 
L 70.565596 199.034817 
L 72.197026 191.917222 
L 73.828456 186.207503 
L 75.459886 181.592799 
L 77.091316 175.413789 
L 78.722746 170.8773 
L 80.354175 167.35761 
L 81.985605 162.351829 
L 83.617035 157.737125 
L 85.248465 153.98279 
L 86.879895 149.368085 
L 88.511325 146.239472 
L 90.142755 144.049443 
L 91.774185 140.138677 
L 93.405614 135.367542 
L 95.037044 131.769637 
L 96.668474 128.484594 
L 98.299904 124.495612 
L 99.931334 122.383798 
L 101.562764 117.612663 
L 104.825624 112.685098 
L 106.457053 109.556485 
L 108.088483 105.880365 
L 109.719913 103.690336 
L 112.982773 98.840985 
L 114.614203 96.572741 
L 116.245633 93.991635 
L 117.877063 93.287697 
L 119.508492 91.488745 
L 121.139922 88.516563 
L 122.771352 88.751209 
L 124.402782 84.21472 
L 126.034212 83.119705 
L 127.665642 81.007891 
L 129.297072 79.991092 
L 130.928502 78.34857 
L 134.191361 77.644632 
L 135.822791 76.393187 
L 137.454221 74.750665 
L 139.085651 74.594235 
L 140.717081 73.890297 
L 142.348511 73.421005 
L 143.979941 71.15276 
L 147.2428 68.258793 
L 148.87423 66.538056 
L 150.50566 65.051965 
L 152.13709 62.079783 
L 155.39995 58.090801 
L 157.03138 58.716524 
L 158.66281 56.761141 
L 160.294239 56.057203 
L 161.925669 54.492896 
L 163.557099 53.397882 
L 165.188529 52.459298 
L 166.819959 51.286068 
L 168.451389 50.660345 
L 170.082819 48.704962 
L 171.714249 50.112838 
L 173.345678 49.252469 
L 174.977108 47.375302 
L 176.608538 46.671364 
L 178.239968 45.73278 
L 179.871398 44.481335 
L 181.502828 42.682382 
L 183.134258 41.118076 
L 184.765688 38.771616 
L 186.397117 39.319123 
L 188.028547 38.380539 
L 189.659977 36.268726 
L 191.291407 36.112295 
L 192.922837 35.01728 
L 194.554267 36.19051 
L 196.185697 37.520171 
L 197.817127 35.955864 
L 199.448556 37.911247 
L 201.079986 40.179492 
L 202.711416 40.961645 
L 204.342846 38.928047 
L 205.974276 39.397339 
L 207.605706 39.006262 
L 210.868566 37.207309 
L 212.499995 36.581587 
L 214.131425 35.643003 
L 215.762855 35.173711 
L 217.394285 34.939065 
L 219.025715 31.732237 
L 220.657145 29.463992 
L 222.288575 29.698638 
L 223.920005 29.229346 
L 225.551434 30.793653 
L 227.182864 29.933284 
L 228.814294 27.66504 
L 230.445724 30.246145 
L 232.077154 29.698638 
L 235.340014 31.028299 
L 236.971444 32.592605 
L 238.602873 33.68762 
L 240.234303 35.721218 
L 241.865733 34.313342 
L 243.497163 33.061897 
L 245.128593 33.374758 
L 248.391453 31.106514 
L 250.022883 31.34116 
L 251.654312 29.307562 
L 254.917172 26.178949 
L 256.548602 25.240365 
L 258.180032 25.553226 
L 259.811462 24.536427 
L 261.442892 24.771073 
L 263.074322 24.614642 
L 264.705751 23.597843 
L 267.968611 23.363197 
L 269.600041 21.955321 
L 271.231471 22.268182 
L 272.862901 20.860306 
L 274.494331 21.407814 
L 276.125761 20.547445 
L 277.75719 20.156369 
L 279.38862 19.530646 
L 281.02005 19.921723 
L 282.65148 19.608861 
L 285.91434 20.078153 
L 287.54577 20.547445 
L 289.1772 21.173168 
L 290.80863 21.016737 
L 292.440059 19.296 
L 294.071489 21.64246 
L 295.702919 22.111752 
L 297.334349 21.877106 
L 298.965779 23.363197 
L 300.597209 23.988919 
L 302.228639 24.301781 
L 303.860069 25.553226 
L 305.491498 24.692857 
L 307.122928 24.849288 
L 308.754358 22.659259 
L 310.385788 22.659259 
L 312.017218 24.849288 
L 313.648648 27.899686 
L 315.280078 27.039317 
L 316.911508 28.760054 
L 318.542937 25.944303 
L 320.174367 25.240365 
L 321.805797 25.162149 
L 323.437227 23.206766 
L 325.068657 23.832489 
L 326.700087 22.346398 
L 328.331517 21.720675 
L 331.594376 23.441412 
L 333.225806 23.050336 
L 334.857236 22.268182 
L 336.488666 22.033536 
L 338.120096 20.312799 
L 339.751526 23.206766 
L 341.382956 24.067135 
L 343.014386 24.536427 
L 344.645815 25.162149 
L 346.277245 26.257164 
L 347.908675 24.614642 
L 349.540105 23.832489 
L 351.171535 23.284982 
L 352.802965 22.346398 
L 354.434395 23.832489 
L 356.065825 25.005719 
L 357.697254 24.771073 
L 359.328684 26.413595 
L 360.960114 26.335379 
L 364.222974 29.463992 
L 365.854404 28.760054 
L 367.485834 28.9947 
L 369.117264 26.804671 
L 370.748693 27.508609 
L 372.380123 27.899686 
L 374.011553 28.9947 
L 375.642983 27.117532 
L 377.274413 25.475011 
L 378.905843 28.056116 
L 380.537273 34.469773 
L 380.537273 34.469773 
" clip-path="url(#p8dd0d7bfff)" style="fill: none; stroke: #2ca02c; stroke-width: 1.5; stroke-linecap: square"/>
   </g>
   <g id="line2d_20">
    <path d="M 55.882727 261.216 
L 57.514157 261.059569 
L 59.145587 260.668493 
L 64.039877 257.148803 
L 65.671307 255.506281 
L 67.302736 255.19342 
L 70.565596 251.67373 
L 72.197026 250.735146 
L 73.828456 249.327271 
L 75.459886 246.902596 
L 77.091316 245.65115 
L 78.722746 243.304691 
L 80.354175 240.254293 
L 81.985605 238.142479 
L 83.617035 236.499957 
L 85.248465 234.153498 
L 86.879895 233.527775 
L 88.511325 231.650607 
L 90.142755 229.382363 
L 91.774185 228.287348 
L 93.405614 226.331965 
L 95.037044 225.002305 
L 98.299904 221.717261 
L 101.562764 217.415418 
L 103.194194 217.024341 
L 104.825624 214.36502 
L 106.457053 212.096776 
L 108.088483 211.783915 
L 109.719913 208.420656 
L 111.351343 206.230627 
L 112.982773 204.275243 
L 114.614203 201.14663 
L 116.245633 199.660539 
L 117.877063 196.923003 
L 119.508492 195.827988 
L 121.139922 194.498328 
L 122.771352 192.855806 
L 124.402782 193.716175 
L 126.034212 190.196485 
L 127.665642 188.632178 
L 129.297072 187.224303 
L 132.559931 185.503565 
L 134.191361 184.09569 
L 135.822791 183.939259 
L 139.085651 179.480985 
L 140.717081 178.620617 
L 143.979941 177.916679 
L 145.61137 177.916679 
L 147.2428 176.117726 
L 148.87423 174.709851 
L 150.50566 174.55342 
L 152.13709 174.788066 
L 153.76852 174.788066 
L 155.39995 173.927697 
L 157.03138 170.955515 
L 158.66281 170.955515 
L 160.294239 169.8605 
L 161.925669 169.938716 
L 163.557099 168.843701 
L 165.188529 168.217979 
L 166.819959 168.061548 
L 168.451389 166.02795 
L 170.082819 165.871519 
L 171.714249 162.821121 
L 173.345678 162.821121 
L 174.977108 161.882537 
L 176.608538 160.474661 
L 178.239968 159.614293 
L 179.871398 159.301432 
L 181.502828 160.474661 
L 183.134258 160.1618 
L 184.765688 160.552877 
L 186.397117 158.206417 
L 188.028547 157.424264 
L 189.659977 157.580694 
L 191.291407 157.502479 
L 192.922837 156.407465 
L 194.554267 155.077804 
L 196.185697 154.764943 
L 197.817127 156.016388 
L 199.448556 153.904574 
L 202.711416 150.697746 
L 205.974276 150.072023 
L 207.605706 149.993808 
L 210.868566 150.4631 
L 212.499995 151.088823 
L 214.131425 153.044206 
L 215.762855 153.669928 
L 217.394285 152.105622 
L 219.025715 154.217435 
L 220.657145 155.781742 
L 223.920005 157.111403 
L 225.551434 154.999589 
L 227.182864 155.077804 
L 228.814294 156.329249 
L 230.445724 154.843158 
L 232.077154 154.452081 
L 233.708584 153.122421 
L 235.340014 152.105622 
L 236.971444 152.574914 
L 238.602873 153.669928 
L 240.234303 151.79276 
L 241.865733 152.574914 
L 243.497163 152.96599 
L 245.128593 151.79276 
L 248.391453 151.870976 
L 250.022883 151.558114 
L 251.654312 150.854177 
L 253.285742 152.105622 
L 254.917172 151.167038 
L 256.548602 152.027406 
L 258.180032 150.775961 
L 259.811462 152.262052 
L 261.442892 152.262052 
L 263.074322 153.904574 
L 264.705751 154.999589 
L 266.337181 152.183837 
L 267.968611 152.105622 
L 269.600041 152.496698 
L 272.862901 151.167038 
L 274.494331 149.680947 
L 276.125761 149.602731 
L 277.75719 149.055224 
L 279.38862 150.4631 
L 281.02005 148.820578 
L 282.65148 147.881994 
L 284.28291 147.178056 
L 285.91434 145.144458 
L 287.54577 145.77018 
L 289.1772 146.865195 
L 290.80863 147.021626 
L 292.440059 149.524516 
L 294.071489 146.865195 
L 295.702919 147.647348 
L 297.334349 147.099841 
L 300.597209 143.971228 
L 302.228639 144.988027 
L 303.860069 144.675166 
L 305.491498 144.831597 
L 307.122928 144.049443 
L 308.754358 144.596951 
L 310.385788 143.893013 
L 312.017218 142.954429 
L 313.648648 141.390122 
L 315.280078 142.328706 
L 316.911508 141.390122 
L 318.542937 143.814797 
L 320.174367 143.580151 
L 321.805797 145.066242 
L 323.437227 144.675166 
L 325.068657 143.814797 
L 326.700087 144.127659 
L 328.331517 145.066242 
L 329.962947 143.501936 
L 331.594376 143.345505 
L 333.225806 143.580151 
L 334.857236 142.328706 
L 336.488666 142.719783 
L 338.120096 143.893013 
L 339.751526 141.702984 
L 343.014386 140.686184 
L 344.645815 139.825816 
L 346.277245 139.200093 
L 347.908675 139.121878 
L 349.540105 139.904031 
L 351.171535 140.451538 
L 352.802965 140.607969 
L 354.434395 139.982246 
L 356.065825 138.574371 
L 357.697254 139.825816 
L 359.328684 137.792217 
L 360.960114 138.026863 
L 362.591544 136.775418 
L 364.222974 136.306126 
L 365.854404 136.697203 
L 367.485834 136.775418 
L 369.117264 138.339725 
L 372.380123 138.026863 
L 374.011553 137.322925 
L 377.274413 139.904031 
L 378.905843 138.965447 
L 380.537273 139.825816 
L 380.537273 139.825816 
" clip-path="url(#p8dd0d7bfff)" style="fill: none; stroke: #d62728; stroke-width: 1.5; stroke-linecap: square"/>
   </g>
   <g id="patch_3">
    <path d="M 39.65 273.312 
L 39.65 7.2 
" style="fill: none; stroke: #000000; stroke-width: 0.8; stroke-linejoin: miter; stroke-linecap: square"/>
   </g>
   <g id="patch_4">
    <path d="M 396.77 273.312 
L 396.77 7.2 
" style="fill: none; stroke: #000000; stroke-width: 0.8; stroke-linejoin: miter; stroke-linecap: square"/>
   </g>
   <g id="patch_5">
    <path d="M 39.65 273.312 
L 396.77 273.312 
" style="fill: none; stroke: #000000; stroke-width: 0.8; stroke-linejoin: miter; stroke-linecap: square"/>
   </g>
   <g id="patch_6">
    <path d="M 39.65 7.2 
L 396.77 7.2 
" style="fill: none; stroke: #000000; stroke-width: 0.8; stroke-linejoin: miter; stroke-linecap: square"/>
   </g>
  </g>
 </g>
 <defs>
  <clipPath id="p8dd0d7bfff">
   <rect x="39.65" y="7.2" width="357.12" height="266.112"/>
  </clipPath>
 </defs>
</svg>
