<?xml version="1.0" encoding="utf-8" standalone="no"?>
<!DOCTYPE svg PUBLIC "-//W3C//DTD SVG 1.1//EN"
  "http://www.w3.org/Graphics/SVG/1.1/DTD/svg11.dtd">
<svg xmlns:xlink="http://www.w3.org/1999/xlink" width="403.97pt" height="297.190125pt" viewBox="0 0 403.97 297.190125" xmlns="http://www.w3.org/2000/svg" version="1.1">
 <metadata>
  <rdf:RDF xmlns:dc="http://purl.org/dc/elements/1.1/" xmlns:cc="http://creativecommons.org/ns#" xmlns:rdf="http://www.w3.org/1999/02/22-rdf-syntax-ns#">
   <cc:Work>
    <dc:type rdf:resource="http://purl.org/dc/dcmitype/StillImage"/>
    <dc:date>2025-08-11T06:04:22.491864</dc:date>
    <dc:format>image/svg+xml</dc:format>
    <dc:creator>
     <cc:Agent>
      <dc:title>Matplotlib v3.10.5, https://matplotlib.org/</dc:title>
     </cc:Agent>
    </dc:creator>
   </cc:Work>
  </rdf:RDF>
 </metadata>
 <defs>
  <style type="text/css">*{stroke-linejoin: round; stroke-linecap: butt}</style>
 </defs>
 <g id="figure_1">
  <g id="patch_1">
   <path d="M 0 297.190125 
L 403.97 297.190125 
L 403.97 0 
L 0 0 
z
" style="fill: #ffffff"/>
  </g>
  <g id="axes_1">
   <g id="patch_2">
    <path d="M 39.65 273.312 
L 396.77 273.312 
L 396.77 7.2 
L 39.65 7.2 
z
" style="fill: #ffffff"/>
   </g>
   <g id="matplotlib.axis_1">
    <g id="xtick_1">
     <g id="line2d_1">
      <defs>
       <path id="m0c342594d8" d="M 0 0 
L 0 3.5 
" style="stroke: #000000; stroke-width: 0.8"/>
      </defs>
      <g>
       <use xlink:href="#m0c342594d8" x="55.882727" y="273.312" style="stroke: #000000; stroke-width: 0.8"/>
      </g>
     </g>
     <g id="text_1">
      <!-- 0.0 -->
      <g transform="translate(47.931165 287.910437) scale(0.1 -0.1)">
       <defs>
        <path id="DejaVuSans-30" d="M 2034 4250 
Q 1547 4250 1301 3770 
Q 1056 3291 1056 2328 
Q 1056 1369 1301 889 
Q 1547 409 2034 409 
Q 2525 409 2770 889 
Q 3016 1369 3016 2328 
Q 3016 3291 2770 3770 
Q 2525 4250 2034 4250 
z
M 2034 4750 
Q 2819 4750 3233 4129 
Q 3647 3509 3647 2328 
Q 3647 1150 3233 529 
Q 2819 -91 2034 -91 
Q 1250 -91 836 529 
Q 422 1150 422 2328 
Q 422 3509 836 4129 
Q 1250 4750 2034 4750 
z
" transform="scale(0.015625)"/>
        <path id="DejaVuSans-2e" d="M 684 794 
L 1344 794 
L 1344 0 
L 684 0 
L 684 794 
z
" transform="scale(0.015625)"/>
       </defs>
       <use xlink:href="#DejaVuSans-30"/>
       <use xlink:href="#DejaVuSans-2e" transform="translate(63.623047 0)"/>
       <use xlink:href="#DejaVuSans-30" transform="translate(95.410156 0)"/>
      </g>
     </g>
    </g>
    <g id="xtick_2">
     <g id="line2d_2">
      <g>
       <use xlink:href="#m0c342594d8" x="96.668474" y="273.312" style="stroke: #000000; stroke-width: 0.8"/>
      </g>
     </g>
     <g id="text_2">
      <!-- 2.5 -->
      <g transform="translate(88.716912 287.910437) scale(0.1 -0.1)">
       <defs>
        <path id="DejaVuSans-32" d="M 1228 531 
L 3431 531 
L 3431 0 
L 469 0 
L 469 531 
Q 828 903 1448 1529 
Q 2069 2156 2228 2338 
Q 2531 2678 2651 2914 
Q 2772 3150 2772 3378 
Q 2772 3750 2511 3984 
Q 2250 4219 1831 4219 
Q 1534 4219 1204 4116 
Q 875 4013 500 3803 
L 500 4441 
Q 881 4594 1212 4672 
Q 1544 4750 1819 4750 
Q 2544 4750 2975 4387 
Q 3406 4025 3406 3419 
Q 3406 3131 3298 2873 
Q 3191 2616 2906 2266 
Q 2828 2175 2409 1742 
Q 1991 1309 1228 531 
z
" transform="scale(0.015625)"/>
        <path id="DejaVuSans-35" d="M 691 4666 
L 3169 4666 
L 3169 4134 
L 1269 4134 
L 1269 2991 
Q 1406 3038 1543 3061 
Q 1681 3084 1819 3084 
Q 2600 3084 3056 2656 
Q 3513 2228 3513 1497 
Q 3513 744 3044 326 
Q 2575 -91 1722 -91 
Q 1428 -91 1123 -41 
Q 819 9 494 109 
L 494 744 
Q 775 591 1075 516 
Q 1375 441 1709 441 
Q 2250 441 2565 725 
Q 2881 1009 2881 1497 
Q 2881 1984 2565 2268 
Q 2250 2553 1709 2553 
Q 1456 2553 1204 2497 
Q 953 2441 691 2322 
L 691 4666 
z
" transform="scale(0.015625)"/>
       </defs>
       <use xlink:href="#DejaVuSans-32"/>
       <use xlink:href="#DejaVuSans-2e" transform="translate(63.623047 0)"/>
       <use xlink:href="#DejaVuSans-35" transform="translate(95.410156 0)"/>
      </g>
     </g>
    </g>
    <g id="xtick_3">
     <g id="line2d_3">
      <g>
       <use xlink:href="#m0c342594d8" x="137.454221" y="273.312" style="stroke: #000000; stroke-width: 0.8"/>
      </g>
     </g>
     <g id="text_3">
      <!-- 5.0 -->
      <g transform="translate(129.502659 287.910437) scale(0.1 -0.1)">
       <use xlink:href="#DejaVuSans-35"/>
       <use xlink:href="#DejaVuSans-2e" transform="translate(63.623047 0)"/>
       <use xlink:href="#DejaVuSans-30" transform="translate(95.410156 0)"/>
      </g>
     </g>
    </g>
    <g id="xtick_4">
     <g id="line2d_4">
      <g>
       <use xlink:href="#m0c342594d8" x="178.239968" y="273.312" style="stroke: #000000; stroke-width: 0.8"/>
      </g>
     </g>
     <g id="text_4">
      <!-- 7.5 -->
      <g transform="translate(170.288406 287.910437) scale(0.1 -0.1)">
       <defs>
        <path id="DejaVuSans-37" d="M 525 4666 
L 3525 4666 
L 3525 4397 
L 1831 0 
L 1172 0 
L 2766 4134 
L 525 4134 
L 525 4666 
z
" transform="scale(0.015625)"/>
       </defs>
       <use xlink:href="#DejaVuSans-37"/>
       <use xlink:href="#DejaVuSans-2e" transform="translate(63.623047 0)"/>
       <use xlink:href="#DejaVuSans-35" transform="translate(95.410156 0)"/>
      </g>
     </g>
    </g>
    <g id="xtick_5">
     <g id="line2d_5">
      <g>
       <use xlink:href="#m0c342594d8" x="219.025715" y="273.312" style="stroke: #000000; stroke-width: 0.8"/>
      </g>
     </g>
     <g id="text_5">
      <!-- 10.0 -->
      <g transform="translate(207.892902 287.910437) scale(0.1 -0.1)">
       <defs>
        <path id="DejaVuSans-31" d="M 794 531 
L 1825 531 
L 1825 4091 
L 703 3866 
L 703 4441 
L 1819 4666 
L 2450 4666 
L 2450 531 
L 3481 531 
L 3481 0 
L 794 0 
L 794 531 
z
" transform="scale(0.015625)"/>
       </defs>
       <use xlink:href="#DejaVuSans-31"/>
       <use xlink:href="#DejaVuSans-30" transform="translate(63.623047 0)"/>
       <use xlink:href="#DejaVuSans-2e" transform="translate(127.246094 0)"/>
       <use xlink:href="#DejaVuSans-30" transform="translate(159.033203 0)"/>
      </g>
     </g>
    </g>
    <g id="xtick_6">
     <g id="line2d_6">
      <g>
       <use xlink:href="#m0c342594d8" x="259.811462" y="273.312" style="stroke: #000000; stroke-width: 0.8"/>
      </g>
     </g>
     <g id="text_6">
      <!-- 12.5 -->
      <g transform="translate(248.678649 287.910437) scale(0.1 -0.1)">
       <use xlink:href="#DejaVuSans-31"/>
       <use xlink:href="#DejaVuSans-32" transform="translate(63.623047 0)"/>
       <use xlink:href="#DejaVuSans-2e" transform="translate(127.246094 0)"/>
       <use xlink:href="#DejaVuSans-35" transform="translate(159.033203 0)"/>
      </g>
     </g>
    </g>
    <g id="xtick_7">
     <g id="line2d_7">
      <g>
       <use xlink:href="#m0c342594d8" x="300.597209" y="273.312" style="stroke: #000000; stroke-width: 0.8"/>
      </g>
     </g>
     <g id="text_7">
      <!-- 15.0 -->
      <g transform="translate(289.464396 287.910437) scale(0.1 -0.1)">
       <use xlink:href="#DejaVuSans-31"/>
       <use xlink:href="#DejaVuSans-35" transform="translate(63.623047 0)"/>
       <use xlink:href="#DejaVuSans-2e" transform="translate(127.246094 0)"/>
       <use xlink:href="#DejaVuSans-30" transform="translate(159.033203 0)"/>
      </g>
     </g>
    </g>
    <g id="xtick_8">
     <g id="line2d_8">
      <g>
       <use xlink:href="#m0c342594d8" x="341.382956" y="273.312" style="stroke: #000000; stroke-width: 0.8"/>
      </g>
     </g>
     <g id="text_8">
      <!-- 17.5 -->
      <g transform="translate(330.250143 287.910437) scale(0.1 -0.1)">
       <use xlink:href="#DejaVuSans-31"/>
       <use xlink:href="#DejaVuSans-37" transform="translate(63.623047 0)"/>
       <use xlink:href="#DejaVuSans-2e" transform="translate(127.246094 0)"/>
       <use xlink:href="#DejaVuSans-35" transform="translate(159.033203 0)"/>
      </g>
     </g>
    </g>
    <g id="xtick_9">
     <g id="line2d_9">
      <g>
       <use xlink:href="#m0c342594d8" x="382.168703" y="273.312" style="stroke: #000000; stroke-width: 0.8"/>
      </g>
     </g>
     <g id="text_9">
      <!-- 20.0 -->
      <g transform="translate(371.03589 287.910437) scale(0.1 -0.1)">
       <use xlink:href="#DejaVuSans-32"/>
       <use xlink:href="#DejaVuSans-30" transform="translate(63.623047 0)"/>
       <use xlink:href="#DejaVuSans-2e" transform="translate(127.246094 0)"/>
       <use xlink:href="#DejaVuSans-30" transform="translate(159.033203 0)"/>
      </g>
     </g>
    </g>
   </g>
   <g id="matplotlib.axis_2">
    <g id="ytick_1">
     <g id="line2d_10">
      <defs>
       <path id="m9e21a7bc4f" d="M 0 0 
L -3.5 0 
" style="stroke: #000000; stroke-width: 0.8"/>
      </defs>
      <g>
       <use xlink:href="#m9e21a7bc4f" x="39.65" y="261.216" style="stroke: #000000; stroke-width: 0.8"/>
      </g>
     </g>
     <g id="text_10">
      <!-- 0 -->
      <g transform="translate(26.2875 265.015219) scale(0.1 -0.1)">
       <use xlink:href="#DejaVuSans-30"/>
      </g>
     </g>
    </g>
    <g id="ytick_2">
     <g id="line2d_11">
      <g>
       <use xlink:href="#m9e21a7bc4f" x="39.65" y="222.455389" style="stroke: #000000; stroke-width: 0.8"/>
      </g>
     </g>
     <g id="text_11">
      <!-- 500 -->
      <g transform="translate(13.5625 226.254608) scale(0.1 -0.1)">
       <use xlink:href="#DejaVuSans-35"/>
       <use xlink:href="#DejaVuSans-30" transform="translate(63.623047 0)"/>
       <use xlink:href="#DejaVuSans-30" transform="translate(127.246094 0)"/>
      </g>
     </g>
    </g>
    <g id="ytick_3">
     <g id="line2d_12">
      <g>
       <use xlink:href="#m9e21a7bc4f" x="39.65" y="183.694778" style="stroke: #000000; stroke-width: 0.8"/>
      </g>
     </g>
     <g id="text_12">
      <!-- 1000 -->
      <g transform="translate(7.2 187.493997) scale(0.1 -0.1)">
       <use xlink:href="#DejaVuSans-31"/>
       <use xlink:href="#DejaVuSans-30" transform="translate(63.623047 0)"/>
       <use xlink:href="#DejaVuSans-30" transform="translate(127.246094 0)"/>
       <use xlink:href="#DejaVuSans-30" transform="translate(190.869141 0)"/>
      </g>
     </g>
    </g>
    <g id="ytick_4">
     <g id="line2d_13">
      <g>
       <use xlink:href="#m9e21a7bc4f" x="39.65" y="144.934168" style="stroke: #000000; stroke-width: 0.8"/>
      </g>
     </g>
     <g id="text_13">
      <!-- 1500 -->
      <g transform="translate(7.2 148.733386) scale(0.1 -0.1)">
       <use xlink:href="#DejaVuSans-31"/>
       <use xlink:href="#DejaVuSans-35" transform="translate(63.623047 0)"/>
       <use xlink:href="#DejaVuSans-30" transform="translate(127.246094 0)"/>
       <use xlink:href="#DejaVuSans-30" transform="translate(190.869141 0)"/>
      </g>
     </g>
    </g>
    <g id="ytick_5">
     <g id="line2d_14">
      <g>
       <use xlink:href="#m9e21a7bc4f" x="39.65" y="106.173557" style="stroke: #000000; stroke-width: 0.8"/>
      </g>
     </g>
     <g id="text_14">
      <!-- 2000 -->
      <g transform="translate(7.2 109.972776) scale(0.1 -0.1)">
       <use xlink:href="#DejaVuSans-32"/>
       <use xlink:href="#DejaVuSans-30" transform="translate(63.623047 0)"/>
       <use xlink:href="#DejaVuSans-30" transform="translate(127.246094 0)"/>
       <use xlink:href="#DejaVuSans-30" transform="translate(190.869141 0)"/>
      </g>
     </g>
    </g>
    <g id="ytick_6">
     <g id="line2d_15">
      <g>
       <use xlink:href="#m9e21a7bc4f" x="39.65" y="67.412946" style="stroke: #000000; stroke-width: 0.8"/>
      </g>
     </g>
     <g id="text_15">
      <!-- 2500 -->
      <g transform="translate(7.2 71.212165) scale(0.1 -0.1)">
       <use xlink:href="#DejaVuSans-32"/>
       <use xlink:href="#DejaVuSans-35" transform="translate(63.623047 0)"/>
       <use xlink:href="#DejaVuSans-30" transform="translate(127.246094 0)"/>
       <use xlink:href="#DejaVuSans-30" transform="translate(190.869141 0)"/>
      </g>
     </g>
    </g>
    <g id="ytick_7">
     <g id="line2d_16">
      <g>
       <use xlink:href="#m9e21a7bc4f" x="39.65" y="28.652335" style="stroke: #000000; stroke-width: 0.8"/>
      </g>
     </g>
     <g id="text_16">
      <!-- 3000 -->
      <g transform="translate(7.2 32.451554) scale(0.1 -0.1)">
       <defs>
        <path id="DejaVuSans-33" d="M 2597 2516 
Q 3050 2419 3304 2112 
Q 3559 1806 3559 1356 
Q 3559 666 3084 287 
Q 2609 -91 1734 -91 
Q 1441 -91 1130 -33 
Q 819 25 488 141 
L 488 750 
Q 750 597 1062 519 
Q 1375 441 1716 441 
Q 2309 441 2620 675 
Q 2931 909 2931 1356 
Q 2931 1769 2642 2001 
Q 2353 2234 1838 2234 
L 1294 2234 
L 1294 2753 
L 1863 2753 
Q 2328 2753 2575 2939 
Q 2822 3125 2822 3475 
Q 2822 3834 2567 4026 
Q 2313 4219 1838 4219 
Q 1578 4219 1281 4162 
Q 984 4106 628 3988 
L 628 4550 
Q 988 4650 1302 4700 
Q 1616 4750 1894 4750 
Q 2613 4750 3031 4423 
Q 3450 4097 3450 3541 
Q 3450 3153 3228 2886 
Q 3006 2619 2597 2516 
z
" transform="scale(0.015625)"/>
       </defs>
       <use xlink:href="#DejaVuSans-33"/>
       <use xlink:href="#DejaVuSans-30" transform="translate(63.623047 0)"/>
       <use xlink:href="#DejaVuSans-30" transform="translate(127.246094 0)"/>
       <use xlink:href="#DejaVuSans-30" transform="translate(190.869141 0)"/>
      </g>
     </g>
    </g>
   </g>
   <g id="line2d_17">
    <path d="M 55.882727 261.216 
L 59.961302 241.835695 
L 64.039877 224.005814 
L 68.118451 207.602323 
L 72.197026 192.511112 
L 76.275601 178.627198 
L 80.354175 165.853996 
L 84.43275 154.102651 
L 88.511325 143.291414 
L 92.589899 133.345075 
L 96.668474 124.194444 
L 100.747049 115.775863 
L 104.825624 108.030769 
L 108.904198 100.905282 
L 112.982773 94.349834 
L 117.061348 88.318822 
L 121.139922 82.770291 
L 125.218497 77.665642 
L 129.297072 72.969365 
L 133.375646 68.648791 
L 137.454221 64.673862 
L 141.532796 61.016928 
L 145.61137 57.652548 
L 149.689945 54.557319 
L 153.76852 51.709708 
L 157.847095 49.089906 
L 161.925669 46.679688 
L 166.004244 44.462288 
L 170.082819 42.422279 
L 174.161393 40.545471 
L 178.239968 38.818808 
L 182.318543 37.230278 
L 186.397117 35.768831 
L 190.475692 34.424299 
L 194.554267 33.187329 
L 198.632841 32.049318 
L 202.711416 31.002347 
L 206.789991 30.039134 
L 210.868566 29.152978 
L 214.94714 28.337714 
L 219.025715 27.587672 
L 223.10429 26.897632 
L 227.182864 26.262796 
L 231.261439 25.678747 
L 235.340014 25.141422 
L 239.418588 24.647083 
L 243.497163 24.192291 
L 247.575738 23.773882 
L 251.654312 23.388946 
L 255.732887 23.034805 
L 259.811462 22.708995 
L 263.890037 22.40925 
L 267.968611 22.133485 
L 272.047186 21.879781 
L 276.125761 21.646373 
L 280.204335 21.431638 
L 284.28291 21.234081 
L 288.361485 21.052329 
L 292.440059 20.885118 
L 296.518634 20.731283 
L 300.597209 20.589755 
L 304.675783 20.459549 
L 308.754358 20.33976 
L 312.832933 20.229554 
L 316.911508 20.128164 
L 320.990082 20.034885 
L 325.068657 19.949069 
L 329.147232 19.870118 
L 333.225806 19.797483 
L 337.304381 19.730659 
L 341.382956 19.669181 
L 345.46153 19.612621 
L 349.540105 19.560586 
L 353.61868 19.512714 
L 357.697254 19.468671 
L 361.775829 19.428152 
L 365.854404 19.390875 
L 369.932979 19.356579 
L 374.011553 19.325028 
L 378.090128 19.296 
" clip-path="url(#pa39254a6cc)" style="fill: none; stroke: #1f77b4; stroke-width: 1.5; stroke-linecap: square"/>
   </g>
   <g id="line2d_18">
    <path d="M 55.882727 261.216 
L 59.961302 261.216 
L 64.039877 259.665576 
L 68.118451 256.926751 
L 72.197026 253.296056 
L 76.275601 249.015377 
L 80.354175 244.281068 
L 84.43275 239.25162 
L 88.511325 234.054084 
L 92.589899 228.789472 
L 96.668474 223.53727 
L 100.747049 218.35923 
L 104.825624 213.302533 
L 108.904198 208.402432 
L 112.982773 203.684457 
L 117.061348 199.166256 
L 121.139922 194.859117 
L 125.218497 190.769242 
L 129.297072 186.898791 
L 133.375646 183.246752 
L 137.454221 179.809654 
L 141.532796 176.582157 
L 145.61137 173.557526 
L 149.689945 170.728026 
L 153.76852 168.085235 
L 157.847095 165.620304 
L 161.925669 163.324156 
L 166.004244 161.187649 
L 170.082819 159.201704 
L 174.161393 157.357401 
L 178.239968 155.646054 
L 182.318543 154.059265 
L 186.397117 152.588966 
L 190.475692 151.227442 
L 194.554267 149.96735 
L 198.632841 148.801724 
L 202.711416 147.723981 
L 206.789991 146.727913 
L 210.868566 145.807685 
L 214.94714 144.95782 
L 219.025715 144.173188 
L 223.10429 143.448993 
L 227.182864 142.780759 
L 231.261439 142.164312 
L 235.340014 141.595766 
L 239.418588 141.071506 
L 243.497163 140.588172 
L 247.575738 140.142647 
L 251.654312 139.732037 
L 255.732887 139.353661 
L 259.811462 139.005035 
L 263.890037 138.683858 
L 267.968611 138.388001 
L 272.047186 138.115498 
L 276.125761 137.864528 
L 280.204335 137.633408 
L 284.28291 137.420587 
L 288.361485 137.22463 
L 292.440059 137.044211 
L 296.518634 136.87811 
L 300.597209 136.725199 
L 304.675783 136.584437 
L 308.754358 136.454866 
L 312.832933 136.335601 
L 316.911508 136.225826 
L 320.990082 136.124791 
L 325.068657 136.031803 
L 329.147232 135.946222 
L 333.225806 135.867463 
L 337.304381 135.794982 
L 341.382956 135.728281 
L 345.46153 135.6669 
L 349.540105 135.610417 
L 353.61868 135.558441 
L 357.697254 135.510613 
L 361.775829 135.466604 
L 365.854404 135.426108 
L 369.932979 135.388847 
L 374.011553 135.354561 
L 378.090128 135.323014 
" clip-path="url(#pa39254a6cc)" style="fill: none; stroke: #ff7f0e; stroke-width: 1.5; stroke-linecap: square"/>
   </g>
   <g id="line2d_19">
    <path d="M 55.882727 261.216 
L 57.514157 254.161569 
L 59.145587 245.944319 
L 60.777017 238.424761 
L 62.408447 231.447851 
L 65.671307 218.269243 
L 67.302736 212.687715 
L 68.934166 206.64106 
L 72.197026 195.86561 
L 73.828456 190.516646 
L 75.459886 184.625033 
L 77.091316 179.818717 
L 78.722746 175.55505 
L 80.354175 169.973522 
L 83.617035 160.050806 
L 85.248465 155.632096 
L 86.879895 150.670738 
L 88.511325 146.794677 
L 90.142755 144.313998 
L 95.037044 132.9959 
L 98.299904 126.174032 
L 99.931334 122.142928 
L 101.562764 119.429686 
L 103.194194 115.553625 
L 104.825624 114.235764 
L 106.457053 111.755085 
L 108.088483 107.879024 
L 109.719913 107.103812 
L 111.351343 105.70843 
L 114.614203 101.754847 
L 116.245633 100.04938 
L 117.877063 97.49118 
L 119.508492 97.103574 
L 121.139922 95.010501 
L 122.771352 89.739058 
L 124.402782 87.025815 
L 126.034212 84.700178 
L 127.665642 81.909415 
L 129.297072 78.033353 
L 130.928502 75.630196 
L 132.559931 74.00225 
L 134.191361 71.986698 
L 135.822791 70.436274 
L 137.454221 69.118413 
L 139.085651 66.40517 
L 140.717081 65.940043 
L 142.348511 63.536885 
L 143.979941 63.84697 
L 147.2428 60.280994 
L 148.87423 59.970909 
L 150.50566 60.203472 
L 152.13709 58.265442 
L 153.76852 58.575527 
L 155.39995 56.792539 
L 157.03138 56.24989 
L 158.66281 55.164593 
L 160.294239 54.854508 
L 161.925669 53.614169 
L 163.557099 51.211011 
L 165.188529 49.738108 
L 166.819959 48.730332 
L 168.451389 46.792301 
L 170.082819 47.179907 
L 171.714249 45.47444 
L 173.345678 47.567513 
L 174.977108 47.722556 
L 178.239968 44.621707 
L 181.502828 42.683676 
L 183.134258 43.691452 
L 184.765688 43.381367 
L 186.397117 43.226325 
L 188.028547 42.761198 
L 191.291407 42.993761 
L 192.922837 42.993761 
L 194.554267 41.830943 
L 196.185697 41.675901 
L 197.817127 41.908464 
L 201.079986 39.350264 
L 202.711416 38.962658 
L 204.342846 37.644797 
L 205.974276 40.202997 
L 207.605706 39.427785 
L 209.237136 39.660349 
L 210.868566 40.202997 
L 212.499995 40.047955 
L 214.131425 39.195221 
L 215.762855 37.567276 
L 217.394285 37.412233 
L 219.025715 37.799839 
L 220.657145 35.241639 
L 222.288575 36.016851 
L 223.920005 37.17967 
L 225.551434 35.93933 
L 227.182864 35.31916 
L 228.814294 35.784288 
L 232.077154 33.846257 
L 233.708584 35.474203 
L 235.340014 35.396682 
L 236.971444 35.784288 
L 238.602873 35.551724 
L 240.234303 35.164118 
L 241.865733 35.009075 
L 243.497163 34.466427 
L 245.128593 36.947106 
L 246.760023 37.334712 
L 248.391453 37.334712 
L 250.022883 35.629245 
L 251.654312 35.861809 
L 253.285742 35.629245 
L 254.917172 34.776512 
L 256.548602 36.016851 
L 258.180032 35.551724 
L 261.442892 34.078821 
L 263.074322 34.078821 
L 264.705751 33.923778 
L 266.337181 34.311384 
L 267.968611 34.466427 
L 269.600041 32.605918 
L 271.231471 33.846257 
L 272.862901 32.450875 
L 274.494331 31.985748 
L 276.125761 33.071045 
L 277.75719 34.698991 
L 279.38862 34.621469 
L 281.02005 34.931554 
L 282.65148 34.543948 
L 284.28291 35.551724 
L 285.91434 35.706766 
L 287.54577 34.854033 
L 289.1772 33.768736 
L 290.80863 32.916002 
L 292.440059 33.303609 
L 294.071489 33.071045 
L 295.702919 32.528396 
L 297.334349 33.536172 
L 298.965779 34.078821 
L 300.597209 33.613693 
L 302.228639 32.063269 
L 303.860069 32.14079 
L 305.491498 32.605918 
L 307.122928 34.776512 
L 308.754358 35.086597 
L 310.385788 36.016851 
L 312.017218 35.086597 
L 313.648648 35.706766 
L 315.280078 35.164118 
L 316.911508 33.691215 
L 318.542937 33.613693 
L 320.174367 35.009075 
L 321.805797 32.528396 
L 323.437227 32.683439 
L 325.068657 32.993524 
L 328.331517 30.900451 
L 331.594376 33.148566 
L 333.225806 33.071045 
L 334.857236 33.691215 
L 336.488666 34.156342 
L 338.120096 32.218311 
L 339.751526 32.218311 
L 341.382956 31.908227 
L 343.014386 30.667887 
L 344.645815 30.822929 
L 346.277245 31.598142 
L 347.908675 31.598142 
L 349.540105 31.443099 
L 351.171535 31.753184 
L 352.802965 31.598142 
L 354.434395 29.58259 
L 356.065825 30.357802 
L 357.697254 29.505069 
L 359.328684 29.272505 
L 360.960114 32.14079 
L 362.591544 32.295833 
L 364.222974 33.536172 
L 365.854404 31.830705 
L 367.485834 31.210536 
L 369.117264 31.985748 
L 370.748693 32.295833 
L 372.380123 30.900451 
L 374.011553 32.295833 
L 375.642983 31.598142 
L 377.274413 32.605918 
L 378.905843 33.071045 
L 380.537273 34.466427 
L 380.537273 34.466427 
" clip-path="url(#pa39254a6cc)" style="fill: none; stroke: #2ca02c; stroke-width: 1.5; stroke-linecap: square"/>
   </g>
   <g id="line2d_20">
    <path d="M 55.882727 261.216 
L 59.145587 260.905915 
L 60.777017 260.208224 
L 62.408447 259.665576 
L 64.039877 258.812842 
L 65.671307 257.805066 
L 67.302736 256.332163 
L 68.934166 255.47943 
L 72.197026 251.990975 
L 73.828456 251.138241 
L 75.459886 249.975423 
L 77.091316 248.657562 
L 78.722746 246.952095 
L 80.354175 244.859022 
L 81.985605 243.076034 
L 85.248465 238.734846 
L 86.879895 236.951858 
L 90.142755 232.300584 
L 91.774185 229.974948 
L 93.405614 228.424523 
L 96.668474 224.160856 
L 98.299904 222.300347 
L 99.931334 221.370092 
L 101.562764 219.35454 
L 103.194194 218.191722 
L 104.825624 215.168394 
L 106.457053 213.385406 
L 108.088483 212.532673 
L 114.614203 205.013114 
L 116.245633 203.46269 
L 117.877063 201.757223 
L 119.508492 199.04398 
L 121.139922 197.416035 
L 122.771352 197.338513 
L 124.402782 195.555525 
L 127.665642 192.919804 
L 129.297072 192.997325 
L 130.928502 191.446901 
L 134.191361 190.439125 
L 135.822791 188.8887 
L 137.454221 188.8887 
L 139.085651 187.028191 
L 140.717081 185.555288 
L 142.348511 185.012639 
L 143.979941 182.221875 
L 145.61137 181.291621 
L 147.2428 179.741196 
L 150.50566 176.020177 
L 152.13709 173.461977 
L 153.76852 172.299159 
L 155.39995 171.834032 
L 157.03138 172.066595 
L 158.66281 171.834032 
L 160.294239 172.37668 
L 161.925669 171.291383 
L 163.557099 171.523947 
L 165.188529 170.903777 
L 166.819959 168.423098 
L 168.451389 168.190534 
L 170.082819 166.252504 
L 171.714249 166.64011 
L 173.345678 165.322249 
L 174.977108 163.849346 
L 176.608538 164.159431 
L 178.239968 164.159431 
L 179.871398 163.384218 
L 181.502828 163.229176 
L 183.134258 161.368667 
L 184.765688 160.670976 
L 186.397117 160.28337 
L 188.028547 160.593454 
L 189.659977 160.438412 
L 191.291407 158.965509 
L 192.922837 157.957733 
L 194.554267 158.267818 
L 196.185697 158.112775 
L 197.817127 157.260042 
L 199.448556 155.399533 
L 201.079986 154.856884 
L 202.711416 156.407308 
L 204.342846 156.949957 
L 205.974276 158.112775 
L 207.605706 157.104999 
L 209.237136 156.252266 
L 210.868566 155.632096 
L 212.499995 155.787139 
L 214.131425 156.174745 
L 215.762855 158.190297 
L 217.394285 157.647648 
L 219.025715 158.112775 
L 220.657145 158.887988 
L 222.288575 157.492606 
L 223.920005 156.639872 
L 225.551434 157.957733 
L 227.182864 156.639872 
L 228.814294 154.779363 
L 230.445724 154.934405 
L 232.077154 153.849108 
L 233.708584 153.228938 
L 235.340014 152.06612 
L 236.971444 152.608769 
L 238.602873 150.82578 
L 240.234303 151.833556 
L 241.865733 151.988599 
L 243.497163 151.833556 
L 245.128593 147.414847 
L 246.760023 147.492368 
L 248.391453 146.949719 
L 250.022883 147.879974 
L 251.654312 147.802453 
L 253.285742 147.957495 
L 256.548602 149.042792 
L 258.180032 150.205611 
L 259.811462 149.973047 
L 261.442892 149.585441 
L 263.074322 149.662962 
L 264.705751 150.360653 
L 266.337181 149.662962 
L 267.968611 149.120314 
L 271.231471 147.64741 
L 272.862901 148.500144 
L 274.494331 148.965271 
L 276.125761 146.639635 
L 277.75719 145.399295 
L 279.38862 144.391519 
L 281.02005 144.856646 
L 284.28291 144.158955 
L 285.91434 144.46904 
L 287.54577 145.08921 
L 289.1772 145.011689 
L 290.80863 146.096986 
L 292.440059 145.941944 
L 294.071489 145.554337 
L 295.702919 145.011689 
L 297.334349 142.996137 
L 298.965779 142.608531 
L 300.597209 142.918616 
L 302.228639 144.546562 
L 303.860069 143.848871 
L 305.491498 141.600755 
L 307.122928 139.042555 
L 308.754358 142.375967 
L 310.385788 142.298446 
L 312.017218 143.461264 
L 313.648648 142.608531 
L 315.280078 143.228701 
L 316.911508 144.934168 
L 318.542937 143.383743 
L 320.174367 142.065882 
L 321.805797 143.073658 
L 323.437227 143.693828 
L 325.068657 143.771349 
L 326.700087 145.08921 
L 328.331517 146.096986 
L 329.962947 147.337326 
L 331.594376 145.554337 
L 333.225806 146.096986 
L 334.857236 145.70938 
L 336.488666 145.70938 
L 338.120096 147.64741 
L 341.382956 148.190059 
L 343.014386 148.810229 
L 344.645815 148.26758 
L 346.277245 147.104762 
L 351.171535 145.399295 
L 352.802965 145.70938 
L 354.434395 145.08921 
L 356.065825 144.779125 
L 357.697254 146.019465 
L 359.328684 146.794677 
L 360.960114 144.701604 
L 362.591544 145.476816 
L 364.222974 143.848871 
L 365.854404 145.554337 
L 367.485834 145.864422 
L 369.117264 144.624083 
L 370.748693 145.941944 
L 372.380123 146.407071 
L 374.011553 144.856646 
L 375.642983 146.407071 
L 377.274413 145.70938 
L 378.905843 146.174507 
L 380.537273 146.484592 
L 380.537273 146.484592 
" clip-path="url(#pa39254a6cc)" style="fill: none; stroke: #d62728; stroke-width: 1.5; stroke-linecap: square"/>
   </g>
   <g id="patch_3">
    <path d="M 39.65 273.312 
L 39.65 7.2 
" style="fill: none; stroke: #000000; stroke-width: 0.8; stroke-linejoin: miter; stroke-linecap: square"/>
   </g>
   <g id="patch_4">
    <path d="M 396.77 273.312 
L 396.77 7.2 
" style="fill: none; stroke: #000000; stroke-width: 0.8; stroke-linejoin: miter; stroke-linecap: square"/>
   </g>
   <g id="patch_5">
    <path d="M 39.65 273.312 
L 396.77 273.312 
" style="fill: none; stroke: #000000; stroke-width: 0.8; stroke-linejoin: miter; stroke-linecap: square"/>
   </g>
   <g id="patch_6">
    <path d="M 39.65 7.2 
L 396.77 7.2 
" style="fill: none; stroke: #000000; stroke-width: 0.8; stroke-linejoin: miter; stroke-linecap: square"/>
   </g>
  </g>
 </g>
 <defs>
  <clipPath id="pa39254a6cc">
   <rect x="39.65" y="7.2" width="357.12" height="266.112"/>
  </clipPath>
 </defs>
</svg>
