<?xml version="1.0" encoding="utf-8" standalone="no"?>
<!DOCTYPE svg PUBLIC "-//W3C//DTD SVG 1.1//EN"
  "http://www.w3.org/Graphics/SVG/1.1/DTD/svg11.dtd">
<svg xmlns:xlink="http://www.w3.org/1999/xlink" width="397.6075pt" height="297.190125pt" viewBox="0 0 397.6075 297.190125" xmlns="http://www.w3.org/2000/svg" version="1.1">
 <metadata>
  <rdf:RDF xmlns:dc="http://purl.org/dc/elements/1.1/" xmlns:cc="http://creativecommons.org/ns#" xmlns:rdf="http://www.w3.org/1999/02/22-rdf-syntax-ns#">
   <cc:Work>
    <dc:type rdf:resource="http://purl.org/dc/dcmitype/StillImage"/>
    <dc:date>2024-10-31T00:50:14.661761</dc:date>
    <dc:format>image/svg+xml</dc:format>
    <dc:creator>
     <cc:Agent>
      <dc:title>Matplotlib v3.9.2, https://matplotlib.org/</dc:title>
     </cc:Agent>
    </dc:creator>
   </cc:Work>
  </rdf:RDF>
 </metadata>
 <defs>
  <style type="text/css">*{stroke-linejoin: round; stroke-linecap: butt}</style>
 </defs>
 <g id="figure_1">
  <g id="patch_1">
   <path d="M 0 297.190125 
L 397.6075 297.190125 
L 397.6075 0 
L 0 0 
z
" style="fill: #ffffff"/>
  </g>
  <g id="axes_1">
   <g id="patch_2">
    <path d="M 33.2875 273.312 
L 390.4075 273.312 
L 390.4075 7.2 
L 33.2875 7.2 
z
" style="fill: #ffffff"/>
   </g>
   <g id="matplotlib.axis_1">
    <g id="xtick_1">
     <g id="line2d_1">
      <defs>
       <path id="m129c610e10" d="M 0 0 
L 0 3.5 
" style="stroke: #000000; stroke-width: 0.8"/>
      </defs>
      <g>
       <use xlink:href="#m129c610e10" x="49.520227" y="273.312" style="stroke: #000000; stroke-width: 0.8"/>
      </g>
     </g>
     <g id="text_1">
      <!-- 0.0 -->
      <g transform="translate(41.568665 287.910437) scale(0.1 -0.1)">
       <defs>
        <path id="DejaVuSans-30" d="M 2034 4250 
Q 1547 4250 1301 3770 
Q 1056 3291 1056 2328 
Q 1056 1369 1301 889 
Q 1547 409 2034 409 
Q 2525 409 2770 889 
Q 3016 1369 3016 2328 
Q 3016 3291 2770 3770 
Q 2525 4250 2034 4250 
z
M 2034 4750 
Q 2819 4750 3233 4129 
Q 3647 3509 3647 2328 
Q 3647 1150 3233 529 
Q 2819 -91 2034 -91 
Q 1250 -91 836 529 
Q 422 1150 422 2328 
Q 422 3509 836 4129 
Q 1250 4750 2034 4750 
z
" transform="scale(0.015625)"/>
        <path id="DejaVuSans-2e" d="M 684 794 
L 1344 794 
L 1344 0 
L 684 0 
L 684 794 
z
" transform="scale(0.015625)"/>
       </defs>
       <use xlink:href="#DejaVuSans-30"/>
       <use xlink:href="#DejaVuSans-2e" x="63.623047"/>
       <use xlink:href="#DejaVuSans-30" x="95.410156"/>
      </g>
     </g>
    </g>
    <g id="xtick_2">
     <g id="line2d_2">
      <g>
       <use xlink:href="#m129c610e10" x="90.305974" y="273.312" style="stroke: #000000; stroke-width: 0.8"/>
      </g>
     </g>
     <g id="text_2">
      <!-- 2.5 -->
      <g transform="translate(82.354412 287.910437) scale(0.1 -0.1)">
       <defs>
        <path id="DejaVuSans-32" d="M 1228 531 
L 3431 531 
L 3431 0 
L 469 0 
L 469 531 
Q 828 903 1448 1529 
Q 2069 2156 2228 2338 
Q 2531 2678 2651 2914 
Q 2772 3150 2772 3378 
Q 2772 3750 2511 3984 
Q 2250 4219 1831 4219 
Q 1534 4219 1204 4116 
Q 875 4013 500 3803 
L 500 4441 
Q 881 4594 1212 4672 
Q 1544 4750 1819 4750 
Q 2544 4750 2975 4387 
Q 3406 4025 3406 3419 
Q 3406 3131 3298 2873 
Q 3191 2616 2906 2266 
Q 2828 2175 2409 1742 
Q 1991 1309 1228 531 
z
" transform="scale(0.015625)"/>
        <path id="DejaVuSans-35" d="M 691 4666 
L 3169 4666 
L 3169 4134 
L 1269 4134 
L 1269 2991 
Q 1406 3038 1543 3061 
Q 1681 3084 1819 3084 
Q 2600 3084 3056 2656 
Q 3513 2228 3513 1497 
Q 3513 744 3044 326 
Q 2575 -91 1722 -91 
Q 1428 -91 1123 -41 
Q 819 9 494 109 
L 494 744 
Q 775 591 1075 516 
Q 1375 441 1709 441 
Q 2250 441 2565 725 
Q 2881 1009 2881 1497 
Q 2881 1984 2565 2268 
Q 2250 2553 1709 2553 
Q 1456 2553 1204 2497 
Q 953 2441 691 2322 
L 691 4666 
z
" transform="scale(0.015625)"/>
       </defs>
       <use xlink:href="#DejaVuSans-32"/>
       <use xlink:href="#DejaVuSans-2e" x="63.623047"/>
       <use xlink:href="#DejaVuSans-35" x="95.410156"/>
      </g>
     </g>
    </g>
    <g id="xtick_3">
     <g id="line2d_3">
      <g>
       <use xlink:href="#m129c610e10" x="131.091721" y="273.312" style="stroke: #000000; stroke-width: 0.8"/>
      </g>
     </g>
     <g id="text_3">
      <!-- 5.0 -->
      <g transform="translate(123.140159 287.910437) scale(0.1 -0.1)">
       <use xlink:href="#DejaVuSans-35"/>
       <use xlink:href="#DejaVuSans-2e" x="63.623047"/>
       <use xlink:href="#DejaVuSans-30" x="95.410156"/>
      </g>
     </g>
    </g>
    <g id="xtick_4">
     <g id="line2d_4">
      <g>
       <use xlink:href="#m129c610e10" x="171.877468" y="273.312" style="stroke: #000000; stroke-width: 0.8"/>
      </g>
     </g>
     <g id="text_4">
      <!-- 7.5 -->
      <g transform="translate(163.925906 287.910437) scale(0.1 -0.1)">
       <defs>
        <path id="DejaVuSans-37" d="M 525 4666 
L 3525 4666 
L 3525 4397 
L 1831 0 
L 1172 0 
L 2766 4134 
L 525 4134 
L 525 4666 
z
" transform="scale(0.015625)"/>
       </defs>
       <use xlink:href="#DejaVuSans-37"/>
       <use xlink:href="#DejaVuSans-2e" x="63.623047"/>
       <use xlink:href="#DejaVuSans-35" x="95.410156"/>
      </g>
     </g>
    </g>
    <g id="xtick_5">
     <g id="line2d_5">
      <g>
       <use xlink:href="#m129c610e10" x="212.663215" y="273.312" style="stroke: #000000; stroke-width: 0.8"/>
      </g>
     </g>
     <g id="text_5">
      <!-- 10.0 -->
      <g transform="translate(201.530402 287.910437) scale(0.1 -0.1)">
       <defs>
        <path id="DejaVuSans-31" d="M 794 531 
L 1825 531 
L 1825 4091 
L 703 3866 
L 703 4441 
L 1819 4666 
L 2450 4666 
L 2450 531 
L 3481 531 
L 3481 0 
L 794 0 
L 794 531 
z
" transform="scale(0.015625)"/>
       </defs>
       <use xlink:href="#DejaVuSans-31"/>
       <use xlink:href="#DejaVuSans-30" x="63.623047"/>
       <use xlink:href="#DejaVuSans-2e" x="127.246094"/>
       <use xlink:href="#DejaVuSans-30" x="159.033203"/>
      </g>
     </g>
    </g>
    <g id="xtick_6">
     <g id="line2d_6">
      <g>
       <use xlink:href="#m129c610e10" x="253.448962" y="273.312" style="stroke: #000000; stroke-width: 0.8"/>
      </g>
     </g>
     <g id="text_6">
      <!-- 12.5 -->
      <g transform="translate(242.316149 287.910437) scale(0.1 -0.1)">
       <use xlink:href="#DejaVuSans-31"/>
       <use xlink:href="#DejaVuSans-32" x="63.623047"/>
       <use xlink:href="#DejaVuSans-2e" x="127.246094"/>
       <use xlink:href="#DejaVuSans-35" x="159.033203"/>
      </g>
     </g>
    </g>
    <g id="xtick_7">
     <g id="line2d_7">
      <g>
       <use xlink:href="#m129c610e10" x="294.234709" y="273.312" style="stroke: #000000; stroke-width: 0.8"/>
      </g>
     </g>
     <g id="text_7">
      <!-- 15.0 -->
      <g transform="translate(283.101896 287.910437) scale(0.1 -0.1)">
       <use xlink:href="#DejaVuSans-31"/>
       <use xlink:href="#DejaVuSans-35" x="63.623047"/>
       <use xlink:href="#DejaVuSans-2e" x="127.246094"/>
       <use xlink:href="#DejaVuSans-30" x="159.033203"/>
      </g>
     </g>
    </g>
    <g id="xtick_8">
     <g id="line2d_8">
      <g>
       <use xlink:href="#m129c610e10" x="335.020456" y="273.312" style="stroke: #000000; stroke-width: 0.8"/>
      </g>
     </g>
     <g id="text_8">
      <!-- 17.5 -->
      <g transform="translate(323.887643 287.910437) scale(0.1 -0.1)">
       <use xlink:href="#DejaVuSans-31"/>
       <use xlink:href="#DejaVuSans-37" x="63.623047"/>
       <use xlink:href="#DejaVuSans-2e" x="127.246094"/>
       <use xlink:href="#DejaVuSans-35" x="159.033203"/>
      </g>
     </g>
    </g>
    <g id="xtick_9">
     <g id="line2d_9">
      <g>
       <use xlink:href="#m129c610e10" x="375.806203" y="273.312" style="stroke: #000000; stroke-width: 0.8"/>
      </g>
     </g>
     <g id="text_9">
      <!-- 20.0 -->
      <g transform="translate(364.67339 287.910437) scale(0.1 -0.1)">
       <use xlink:href="#DejaVuSans-32"/>
       <use xlink:href="#DejaVuSans-30" x="63.623047"/>
       <use xlink:href="#DejaVuSans-2e" x="127.246094"/>
       <use xlink:href="#DejaVuSans-30" x="159.033203"/>
      </g>
     </g>
    </g>
   </g>
   <g id="matplotlib.axis_2">
    <g id="ytick_1">
     <g id="line2d_10">
      <defs>
       <path id="m39a7b0a1f9" d="M 0 0 
L -3.5 0 
" style="stroke: #000000; stroke-width: 0.8"/>
      </defs>
      <g>
       <use xlink:href="#m39a7b0a1f9" x="33.2875" y="261.216" style="stroke: #000000; stroke-width: 0.8"/>
      </g>
     </g>
     <g id="text_10">
      <!-- 0 -->
      <g transform="translate(19.925 265.015219) scale(0.1 -0.1)">
       <use xlink:href="#DejaVuSans-30"/>
      </g>
     </g>
    </g>
    <g id="ytick_2">
     <g id="line2d_11">
      <g>
       <use xlink:href="#m39a7b0a1f9" x="33.2875" y="218.473951" style="stroke: #000000; stroke-width: 0.8"/>
      </g>
     </g>
     <g id="text_11">
      <!-- 50 -->
      <g transform="translate(13.5625 222.273169) scale(0.1 -0.1)">
       <use xlink:href="#DejaVuSans-35"/>
       <use xlink:href="#DejaVuSans-30" x="63.623047"/>
      </g>
     </g>
    </g>
    <g id="ytick_3">
     <g id="line2d_12">
      <g>
       <use xlink:href="#m39a7b0a1f9" x="33.2875" y="175.731901" style="stroke: #000000; stroke-width: 0.8"/>
      </g>
     </g>
     <g id="text_12">
      <!-- 100 -->
      <g transform="translate(7.2 179.53112) scale(0.1 -0.1)">
       <use xlink:href="#DejaVuSans-31"/>
       <use xlink:href="#DejaVuSans-30" x="63.623047"/>
       <use xlink:href="#DejaVuSans-30" x="127.246094"/>
      </g>
     </g>
    </g>
    <g id="ytick_4">
     <g id="line2d_13">
      <g>
       <use xlink:href="#m39a7b0a1f9" x="33.2875" y="132.989852" style="stroke: #000000; stroke-width: 0.8"/>
      </g>
     </g>
     <g id="text_13">
      <!-- 150 -->
      <g transform="translate(7.2 136.78907) scale(0.1 -0.1)">
       <use xlink:href="#DejaVuSans-31"/>
       <use xlink:href="#DejaVuSans-35" x="63.623047"/>
       <use xlink:href="#DejaVuSans-30" x="127.246094"/>
      </g>
     </g>
    </g>
    <g id="ytick_5">
     <g id="line2d_14">
      <g>
       <use xlink:href="#m39a7b0a1f9" x="33.2875" y="90.247802" style="stroke: #000000; stroke-width: 0.8"/>
      </g>
     </g>
     <g id="text_14">
      <!-- 200 -->
      <g transform="translate(7.2 94.047021) scale(0.1 -0.1)">
       <use xlink:href="#DejaVuSans-32"/>
       <use xlink:href="#DejaVuSans-30" x="63.623047"/>
       <use xlink:href="#DejaVuSans-30" x="127.246094"/>
      </g>
     </g>
    </g>
    <g id="ytick_6">
     <g id="line2d_15">
      <g>
       <use xlink:href="#m39a7b0a1f9" x="33.2875" y="47.505753" style="stroke: #000000; stroke-width: 0.8"/>
      </g>
     </g>
     <g id="text_15">
      <!-- 250 -->
      <g transform="translate(7.2 51.304971) scale(0.1 -0.1)">
       <use xlink:href="#DejaVuSans-32"/>
       <use xlink:href="#DejaVuSans-35" x="63.623047"/>
       <use xlink:href="#DejaVuSans-30" x="127.246094"/>
      </g>
     </g>
    </g>
   </g>
   <g id="line2d_16">
    <path d="M 49.520227 261.216 
L 53.598802 47.505753 
L 57.677377 47.505753 
L 61.755951 47.505753 
L 65.834526 47.505753 
L 69.913101 47.505753 
L 73.991675 47.505753 
L 78.07025 47.505753 
L 82.148825 47.505753 
L 86.227399 47.505753 
L 90.305974 47.505753 
L 94.384549 47.505753 
L 98.463124 47.505753 
L 102.541698 47.505753 
L 106.620273 47.505753 
L 110.698848 47.505753 
L 114.777422 47.505753 
L 118.855997 47.505753 
L 122.934572 47.505753 
L 127.013146 47.505753 
L 131.091721 47.505753 
L 135.170296 47.505753 
L 139.24887 47.505753 
L 143.327445 47.505753 
L 147.40602 47.505753 
L 151.484595 47.505753 
L 155.563169 47.505753 
L 159.641744 47.505753 
L 163.720319 47.505753 
L 167.798893 47.505753 
L 171.877468 47.505753 
L 175.956043 47.505753 
L 180.034617 47.505753 
L 184.113192 47.505753 
L 188.191767 47.505753 
L 192.270341 47.505753 
L 196.348916 47.505753 
L 200.427491 47.505753 
L 204.506066 47.505753 
L 208.58464 47.505753 
L 212.663215 47.505753 
L 216.74179 47.505753 
L 220.820364 47.505753 
L 224.898939 47.505753 
L 228.977514 47.505753 
L 233.056088 47.505753 
L 237.134663 47.505753 
L 241.213238 47.505753 
L 245.291812 47.505753 
L 249.370387 47.505753 
L 253.448962 47.505753 
L 257.527537 47.505753 
L 261.606111 47.505753 
L 265.684686 47.505753 
L 269.763261 47.505753 
L 273.841835 47.505753 
L 277.92041 47.505753 
L 281.998985 47.505753 
L 286.077559 47.505753 
L 290.156134 47.505753 
L 294.234709 47.505753 
L 298.313283 47.505753 
L 302.391858 47.505753 
L 306.470433 47.505753 
L 310.549008 47.505753 
L 314.627582 47.505753 
L 318.706157 47.505753 
L 322.784732 47.505753 
L 326.863306 47.505753 
L 330.941881 47.505753 
L 335.020456 47.505753 
L 339.09903 47.505753 
L 343.177605 47.505753 
L 347.25618 47.505753 
L 351.334754 47.505753 
L 355.413329 47.505753 
L 359.491904 47.505753 
L 363.570479 47.505753 
L 367.649053 47.505753 
L 371.727628 47.505753 
" clip-path="url(#p58d12cb5b6)" style="fill: none; stroke: #1f77b4; stroke-width: 1.5; stroke-linecap: square"/>
   </g>
   <g id="line2d_17">
    <path d="M 49.520227 261.216 
L 53.598802 261.216 
L 57.677377 47.505753 
L 61.755951 47.505753 
L 65.834526 47.505753 
L 69.913101 47.505753 
L 73.991675 47.505753 
L 78.07025 47.505753 
L 82.148825 47.505753 
L 86.227399 47.505753 
L 90.305974 47.505753 
L 94.384549 47.505753 
L 98.463124 47.505753 
L 102.541698 47.505753 
L 106.620273 47.505753 
L 110.698848 47.505753 
L 114.777422 47.505753 
L 118.855997 47.505753 
L 122.934572 47.505753 
L 127.013146 47.505753 
L 131.091721 47.505753 
L 135.170296 47.505753 
L 139.24887 47.505753 
L 143.327445 47.505753 
L 147.40602 47.505753 
L 151.484595 47.505753 
L 155.563169 47.505753 
L 159.641744 47.505753 
L 163.720319 47.505753 
L 167.798893 47.505753 
L 171.877468 47.505753 
L 175.956043 47.505753 
L 180.034617 47.505753 
L 184.113192 47.505753 
L 188.191767 47.505753 
L 192.270341 47.505753 
L 196.348916 47.505753 
L 200.427491 47.505753 
L 204.506066 47.505753 
L 208.58464 47.505753 
L 212.663215 47.505753 
L 216.74179 47.505753 
L 220.820364 47.505753 
L 224.898939 47.505753 
L 228.977514 47.505753 
L 233.056088 47.505753 
L 237.134663 47.505753 
L 241.213238 47.505753 
L 245.291812 47.505753 
L 249.370387 47.505753 
L 253.448962 47.505753 
L 257.527537 47.505753 
L 261.606111 47.505753 
L 265.684686 47.505753 
L 269.763261 47.505753 
L 273.841835 47.505753 
L 277.92041 47.505753 
L 281.998985 47.505753 
L 286.077559 47.505753 
L 290.156134 47.505753 
L 294.234709 47.505753 
L 298.313283 47.505753 
L 302.391858 47.505753 
L 306.470433 47.505753 
L 310.549008 47.505753 
L 314.627582 47.505753 
L 318.706157 47.505753 
L 322.784732 47.505753 
L 326.863306 47.505753 
L 330.941881 47.505753 
L 335.020456 47.505753 
L 339.09903 47.505753 
L 343.177605 47.505753 
L 347.25618 47.505753 
L 351.334754 47.505753 
L 355.413329 47.505753 
L 359.491904 47.505753 
L 363.570479 47.505753 
L 367.649053 47.505753 
L 371.727628 47.505753 
" clip-path="url(#p58d12cb5b6)" style="fill: none; stroke: #ff7f0e; stroke-width: 1.5; stroke-linecap: square"/>
   </g>
   <g id="line2d_18">
    <path d="M 49.520227 261.216 
L 51.151657 192.828721 
L 52.783087 148.376989 
L 56.045947 73.150982 
L 57.677377 71.4413 
L 59.308807 57.763845 
L 60.940236 55.199322 
L 62.571666 58.618686 
L 65.834526 39.812184 
L 69.097386 48.360594 
L 70.728816 63.747731 
L 72.360246 61.183208 
L 73.991675 59.473527 
L 75.623105 53.48964 
L 77.254535 62.038049 
L 78.885965 55.199322 
L 80.517395 47.505753 
L 82.148825 48.360594 
L 83.780255 53.48964 
L 85.411685 48.360594 
L 87.043114 49.215435 
L 88.674544 34.683138 
L 90.305974 51.779958 
L 91.937404 48.360594 
L 93.568834 56.054163 
L 95.200264 44.086389 
L 96.831694 44.086389 
L 98.463124 46.650912 
L 100.094553 74.005823 
L 101.725983 66.312254 
L 103.357413 60.328367 
L 104.988843 56.054163 
L 106.620273 56.909004 
L 108.251703 43.231548 
L 109.883133 46.650912 
L 111.514563 47.505753 
L 113.145992 59.473527 
L 114.777422 63.747731 
L 116.408852 54.344481 
L 118.040282 51.779958 
L 119.671712 43.231548 
L 121.303142 45.796071 
L 122.934572 39.812184 
L 124.566002 55.199322 
L 126.197431 57.763845 
L 127.828861 50.070276 
L 129.460291 41.521866 
L 131.091721 38.102502 
L 132.723151 43.231548 
L 134.354581 49.215435 
L 135.986011 47.505753 
L 137.617441 56.909004 
L 139.24887 62.038049 
L 140.8803 50.925117 
L 142.51173 45.796071 
L 144.14316 49.215435 
L 145.77459 45.796071 
L 147.40602 47.505753 
L 149.03745 46.650912 
L 150.66888 54.344481 
L 152.30031 44.94123 
L 153.931739 45.796071 
L 155.563169 62.038049 
L 157.194599 52.634799 
L 158.826029 52.634799 
L 160.457459 45.796071 
L 162.088889 34.683138 
L 163.720319 39.812184 
L 165.351749 49.215435 
L 166.983178 62.038049 
L 168.614608 54.344481 
L 170.246038 52.634799 
L 171.877468 42.376707 
L 173.508898 54.344481 
L 176.771758 45.796071 
L 178.403188 61.183208 
L 180.034617 49.215435 
L 181.666047 50.925117 
L 183.297477 44.086389 
L 184.928907 41.521866 
L 186.560337 46.650912 
L 188.191767 46.650912 
L 189.823197 52.634799 
L 191.454627 53.48964 
L 193.086056 64.602572 
L 194.717486 55.199322 
L 196.348916 55.199322 
L 197.980346 51.779958 
L 199.611776 52.634799 
L 201.243206 55.199322 
L 202.874636 58.618686 
L 204.506066 57.763845 
L 206.137495 64.602572 
L 207.768925 59.473527 
L 209.400355 68.021936 
L 211.031785 47.505753 
L 212.663215 61.183208 
L 214.294645 45.796071 
L 215.926075 56.054163 
L 217.557505 53.48964 
L 219.188934 51.779958 
L 220.820364 41.521866 
L 222.451794 38.102502 
L 224.083224 55.199322 
L 225.714654 58.618686 
L 227.346084 56.909004 
L 228.977514 43.231548 
L 230.608944 41.521866 
L 232.240373 42.376707 
L 233.871803 54.344481 
L 235.503233 56.054163 
L 237.134663 63.747731 
L 238.766093 63.747731 
L 240.397523 58.618686 
L 242.028953 62.89289 
L 243.660383 59.473527 
L 245.291812 53.48964 
L 246.923242 50.070276 
L 248.554672 60.328367 
L 250.186102 48.360594 
L 255.080392 25.279887 
L 256.711822 28.699251 
L 258.343251 32.973456 
L 259.974681 36.39282 
L 261.606111 38.102502 
L 263.237541 40.667025 
L 264.868971 28.699251 
L 266.500401 38.957343 
L 268.131831 34.683138 
L 269.763261 43.231548 
L 271.39469 44.94123 
L 273.02612 38.957343 
L 274.65755 44.94123 
L 276.28898 50.070276 
L 277.92041 44.086389 
L 279.55184 53.48964 
L 281.18327 59.473527 
L 282.8147 60.328367 
L 284.44613 45.796071 
L 286.077559 37.247661 
L 287.708989 35.537979 
L 289.340419 42.376707 
L 292.603279 38.957343 
L 294.234709 42.376707 
L 295.866139 41.521866 
L 297.497569 34.683138 
L 299.128998 21.005682 
L 300.760428 28.699251 
L 302.391858 33.828297 
L 304.023288 20.150841 
L 305.654718 21.860523 
L 307.286148 42.376707 
L 308.917578 38.957343 
L 310.549008 44.94123 
L 312.180437 57.763845 
L 313.811867 48.360594 
L 315.443297 40.667025 
L 317.074727 50.070276 
L 318.706157 39.812184 
L 320.337587 54.344481 
L 325.231876 49.215435 
L 326.863306 41.521866 
L 328.494736 43.231548 
L 330.126166 29.554092 
L 331.757596 35.537979 
L 333.389026 39.812184 
L 335.020456 49.215435 
L 336.651886 49.215435 
L 338.283315 58.618686 
L 339.914745 49.215435 
L 343.177605 52.634799 
L 344.809035 66.312254 
L 346.440465 58.618686 
L 348.071895 58.618686 
L 349.703325 59.473527 
L 351.334754 62.038049 
L 352.966184 62.038049 
L 354.597614 47.505753 
L 356.229044 50.070276 
L 357.860474 37.247661 
L 359.491904 34.683138 
L 361.123334 29.554092 
L 362.754764 31.263774 
L 364.386193 42.376707 
L 366.017623 47.505753 
L 369.280483 61.183208 
L 370.911913 71.4413 
L 372.543343 60.328367 
L 374.174773 55.199322 
L 374.174773 55.199322 
" clip-path="url(#p58d12cb5b6)" style="fill: none; stroke: #2ca02c; stroke-width: 1.5; stroke-linecap: square"/>
   </g>
   <g id="line2d_19">
    <path d="M 49.520227 261.216 
L 51.151657 245.828862 
L 52.783087 218.473951 
L 54.414517 187.699675 
L 56.045947 174.87706 
L 57.677377 127.005965 
L 59.308807 119.312396 
L 60.940236 100.505894 
L 62.571666 85.118756 
L 64.203096 68.021936 
L 65.834526 72.296141 
L 67.465956 62.038049 
L 69.097386 56.909004 
L 70.728816 47.505753 
L 72.360246 52.634799 
L 73.991675 47.505753 
L 75.623105 55.199322 
L 77.254535 36.39282 
L 78.885965 50.070276 
L 80.517395 49.215435 
L 82.148825 53.48964 
L 83.780255 56.909004 
L 85.411685 57.763845 
L 87.043114 43.231548 
L 88.674544 62.038049 
L 90.305974 34.683138 
L 91.937404 49.215435 
L 93.568834 36.39282 
L 95.200264 65.457413 
L 96.831694 56.909004 
L 98.463124 55.199322 
L 100.094553 30.408933 
L 101.725983 47.505753 
L 103.357413 55.199322 
L 106.620273 67.167095 
L 108.251703 60.328367 
L 109.883133 68.021936 
L 111.514563 70.586459 
L 113.145992 63.747731 
L 114.777422 59.473527 
L 116.408852 56.909004 
L 118.040282 67.167095 
L 119.671712 73.150982 
L 122.934572 62.89289 
L 124.566002 55.199322 
L 126.197431 52.634799 
L 127.828861 63.747731 
L 129.460291 65.457413 
L 132.723151 51.779958 
L 134.354581 49.215435 
L 135.986011 55.199322 
L 137.617441 35.537979 
L 139.24887 32.973456 
L 140.8803 42.376707 
L 142.51173 52.634799 
L 144.14316 39.812184 
L 145.77459 46.650912 
L 147.40602 35.537979 
L 149.03745 32.118615 
L 150.66888 19.296 
L 152.30031 30.408933 
L 153.931739 38.957343 
L 155.563169 26.989569 
L 157.194599 44.94123 
L 158.826029 47.505753 
L 160.457459 53.48964 
L 162.088889 50.070276 
L 163.720319 44.086389 
L 165.351749 32.118615 
L 166.983178 28.699251 
L 168.614608 26.989569 
L 171.877468 30.408933 
L 173.508898 31.263774 
L 175.140328 50.925117 
L 176.771758 56.054163 
L 178.403188 44.94123 
L 180.034617 57.763845 
L 181.666047 56.054163 
L 183.297477 62.89289 
L 184.928907 68.876777 
L 186.560337 58.618686 
L 188.191767 49.215435 
L 189.823197 48.360594 
L 191.454627 38.102502 
L 193.086056 38.957343 
L 194.717486 46.650912 
L 196.348916 56.054163 
L 197.980346 56.909004 
L 199.611776 55.199322 
L 201.243206 62.89289 
L 202.874636 47.505753 
L 204.506066 49.215435 
L 206.137495 29.554092 
L 207.768925 46.650912 
L 209.400355 39.812184 
L 211.031785 61.183208 
L 212.663215 48.360594 
L 214.294645 51.779958 
L 215.926075 44.94123 
L 217.557505 51.779958 
L 219.188934 62.038049 
L 220.820364 60.328367 
L 222.451794 46.650912 
L 224.083224 35.537979 
L 225.714654 36.39282 
L 227.346084 38.957343 
L 228.977514 56.054163 
L 230.608944 64.602572 
L 232.240373 64.602572 
L 233.871803 54.344481 
L 235.503233 62.89289 
L 237.134663 62.038049 
L 238.766093 67.167095 
L 240.397523 60.328367 
L 242.028953 47.505753 
L 243.660383 42.376707 
L 245.291812 55.199322 
L 246.923242 50.925117 
L 248.554672 32.118615 
L 250.186102 46.650912 
L 251.817532 57.763845 
L 253.448962 53.48964 
L 255.080392 45.796071 
L 256.711822 44.94123 
L 258.343251 45.796071 
L 259.974681 35.537979 
L 261.606111 38.957343 
L 263.237541 39.812184 
L 264.868971 52.634799 
L 266.500401 43.231548 
L 268.131831 55.199322 
L 269.763261 64.602572 
L 271.39469 46.650912 
L 273.02612 56.054163 
L 274.65755 44.086389 
L 276.28898 36.39282 
L 277.92041 52.634799 
L 279.55184 56.909004 
L 281.18327 48.360594 
L 282.8147 50.925117 
L 286.077559 89.392961 
L 287.708989 77.425187 
L 289.340419 66.312254 
L 290.971849 64.602572 
L 294.234709 64.602572 
L 295.866139 57.763845 
L 297.497569 60.328367 
L 299.128998 68.876777 
L 300.760428 50.070276 
L 304.023288 48.360594 
L 305.654718 50.925117 
L 307.286148 45.796071 
L 308.917578 57.763845 
L 310.549008 40.667025 
L 312.180437 21.005682 
L 313.811867 47.505753 
L 315.443297 49.215435 
L 317.074727 39.812184 
L 318.706157 44.086389 
L 320.337587 33.828297 
L 321.969017 37.247661 
L 323.600447 46.650912 
L 325.231876 45.796071 
L 326.863306 49.215435 
L 328.494736 43.231548 
L 330.126166 52.634799 
L 331.757596 48.360594 
L 333.389026 50.070276 
L 335.020456 30.408933 
L 336.651886 48.360594 
L 338.283315 37.247661 
L 339.914745 43.231548 
L 341.546175 40.667025 
L 343.177605 47.505753 
L 344.809035 32.118615 
L 346.440465 45.796071 
L 348.071895 38.957343 
L 349.703325 38.102502 
L 351.334754 32.118615 
L 352.966184 37.247661 
L 354.597614 56.909004 
L 356.229044 56.054163 
L 357.860474 61.183208 
L 359.491904 50.925117 
L 361.123334 52.634799 
L 362.754764 47.505753 
L 364.386193 38.102502 
L 366.017623 54.344481 
L 367.649053 45.796071 
L 369.280483 51.779958 
L 370.911913 58.618686 
L 372.543343 54.344481 
L 374.174773 59.473527 
L 374.174773 59.473527 
" clip-path="url(#p58d12cb5b6)" style="fill: none; stroke: #d62728; stroke-width: 1.5; stroke-linecap: square"/>
   </g>
   <g id="patch_3">
    <path d="M 33.2875 273.312 
L 33.2875 7.2 
" style="fill: none; stroke: #000000; stroke-width: 0.8; stroke-linejoin: miter; stroke-linecap: square"/>
   </g>
   <g id="patch_4">
    <path d="M 390.4075 273.312 
L 390.4075 7.2 
" style="fill: none; stroke: #000000; stroke-width: 0.8; stroke-linejoin: miter; stroke-linecap: square"/>
   </g>
   <g id="patch_5">
    <path d="M 33.2875 273.312 
L 390.4075 273.312 
" style="fill: none; stroke: #000000; stroke-width: 0.8; stroke-linejoin: miter; stroke-linecap: square"/>
   </g>
   <g id="patch_6">
    <path d="M 33.2875 7.2 
L 390.4075 7.2 
" style="fill: none; stroke: #000000; stroke-width: 0.8; stroke-linejoin: miter; stroke-linecap: square"/>
   </g>
  </g>
 </g>
 <defs>
  <clipPath id="p58d12cb5b6">
   <rect x="33.2875" y="7.2" width="357.12" height="266.112"/>
  </clipPath>
 </defs>
</svg>
