<?xml version="1.0" encoding="utf-8" standalone="no"?>
<!DOCTYPE svg PUBLIC "-//W3C//DTD SVG 1.1//EN"
  "http://www.w3.org/Graphics/SVG/1.1/DTD/svg11.dtd">
<svg xmlns:xlink="http://www.w3.org/1999/xlink" width="451.963613pt" height="325.986375pt" viewBox="0 0 451.963613 325.986375" xmlns="http://www.w3.org/2000/svg" version="1.1">
 <metadata>
  <rdf:RDF xmlns:dc="http://purl.org/dc/elements/1.1/" xmlns:cc="http://creativecommons.org/ns#" xmlns:rdf="http://www.w3.org/1999/02/22-rdf-syntax-ns#">
   <cc:Work>
    <dc:type rdf:resource="http://purl.org/dc/dcmitype/StillImage"/>
    <dc:date>2026-01-28T01:54:54.415652</dc:date>
    <dc:format>image/svg+xml</dc:format>
    <dc:creator>
     <cc:Agent>
      <dc:title>Matplotlib v3.10.8, https://matplotlib.org/</dc:title>
     </cc:Agent>
    </dc:creator>
   </cc:Work>
  </rdf:RDF>
 </metadata>
 <defs>
  <style type="text/css">*{stroke-linejoin: round; stroke-linecap: butt}</style>
 </defs>
 <g id="figure_1">
  <g id="patch_1">
   <path d="M 0 325.986375 
L 451.963613 325.986375 
L 451.963613 0 
L 0 0 
L 0 325.986375 
z
" style="fill: none; opacity: 0"/>
  </g>
  <g id="axes_1">
   <g id="patch_2">
    <path d="M 56.50625 288.430125 
L 342.20225 288.430125 
L 342.20225 22.318125 
L 56.50625 22.318125 
L 56.50625 288.430125 
z
" style="fill: none; opacity: 0"/>
   </g>
   <g id="matplotlib.axis_1">
    <g id="xtick_1">
     <g id="line2d_1">
      <defs>
       <path id="m1dc89e5ba6" d="M 0 0 
L 0 3.5 
" style="stroke: #000000; stroke-width: 0.8"/>
      </defs>
      <g>
       <use xlink:href="#m1dc89e5ba6" x="79.061197" y="288.430125" style="stroke: #000000; stroke-width: 0.8"/>
      </g>
     </g>
     <g id="text_1">
      <!-- 2017.5 -->
      <g transform="translate(61.565885 303.028562) scale(0.1 -0.1)">
       <defs>
        <path id="DejaVuSans-32" d="M 1228 531 
L 3431 531 
L 3431 0 
L 469 0 
L 469 531 
Q 828 903 1448 1529 
Q 2069 2156 2228 2338 
Q 2531 2678 2651 2914 
Q 2772 3150 2772 3378 
Q 2772 3750 2511 3984 
Q 2250 4219 1831 4219 
Q 1534 4219 1204 4116 
Q 875 4013 500 3803 
L 500 4441 
Q 881 4594 1212 4672 
Q 1544 4750 1819 4750 
Q 2544 4750 2975 4387 
Q 3406 4025 3406 3419 
Q 3406 3131 3298 2873 
Q 3191 2616 2906 2266 
Q 2828 2175 2409 1742 
Q 1991 1309 1228 531 
z
" transform="scale(0.015625)"/>
        <path id="DejaVuSans-30" d="M 2034 4250 
Q 1547 4250 1301 3770 
Q 1056 3291 1056 2328 
Q 1056 1369 1301 889 
Q 1547 409 2034 409 
Q 2525 409 2770 889 
Q 3016 1369 3016 2328 
Q 3016 3291 2770 3770 
Q 2525 4250 2034 4250 
z
M 2034 4750 
Q 2819 4750 3233 4129 
Q 3647 3509 3647 2328 
Q 3647 1150 3233 529 
Q 2819 -91 2034 -91 
Q 1250 -91 836 529 
Q 422 1150 422 2328 
Q 422 3509 836 4129 
Q 1250 4750 2034 4750 
z
" transform="scale(0.015625)"/>
        <path id="DejaVuSans-31" d="M 794 531 
L 1825 531 
L 1825 4091 
L 703 3866 
L 703 4441 
L 1819 4666 
L 2450 4666 
L 2450 531 
L 3481 531 
L 3481 0 
L 794 0 
L 794 531 
z
" transform="scale(0.015625)"/>
        <path id="DejaVuSans-37" d="M 525 4666 
L 3525 4666 
L 3525 4397 
L 1831 0 
L 1172 0 
L 2766 4134 
L 525 4134 
L 525 4666 
z
" transform="scale(0.015625)"/>
        <path id="DejaVuSans-2e" d="M 684 794 
L 1344 794 
L 1344 0 
L 684 0 
L 684 794 
z
" transform="scale(0.015625)"/>
        <path id="DejaVuSans-35" d="M 691 4666 
L 3169 4666 
L 3169 4134 
L 1269 4134 
L 1269 2991 
Q 1406 3038 1543 3061 
Q 1681 3084 1819 3084 
Q 2600 3084 3056 2656 
Q 3513 2228 3513 1497 
Q 3513 744 3044 326 
Q 2575 -91 1722 -91 
Q 1428 -91 1123 -41 
Q 819 9 494 109 
L 494 744 
Q 775 591 1075 516 
Q 1375 441 1709 441 
Q 2250 441 2565 725 
Q 2881 1009 2881 1497 
Q 2881 1984 2565 2268 
Q 2250 2553 1709 2553 
Q 1456 2553 1204 2497 
Q 953 2441 691 2322 
L 691 4666 
z
" transform="scale(0.015625)"/>
       </defs>
       <use xlink:href="#DejaVuSans-32"/>
       <use xlink:href="#DejaVuSans-30" transform="translate(63.623047 0)"/>
       <use xlink:href="#DejaVuSans-31" transform="translate(127.246094 0)"/>
       <use xlink:href="#DejaVuSans-37" transform="translate(190.869141 0)"/>
       <use xlink:href="#DejaVuSans-2e" transform="translate(254.492188 0)"/>
       <use xlink:href="#DejaVuSans-35" transform="translate(286.279297 0)"/>
      </g>
     </g>
    </g>
    <g id="xtick_2">
     <g id="line2d_2">
      <g>
       <use xlink:href="#m1dc89e5ba6" x="116.652776" y="288.430125" style="stroke: #000000; stroke-width: 0.8"/>
      </g>
     </g>
     <g id="text_2">
      <!-- 2020.0 -->
      <g transform="translate(99.157464 303.028562) scale(0.1 -0.1)">
       <use xlink:href="#DejaVuSans-32"/>
       <use xlink:href="#DejaVuSans-30" transform="translate(63.623047 0)"/>
       <use xlink:href="#DejaVuSans-32" transform="translate(127.246094 0)"/>
       <use xlink:href="#DejaVuSans-30" transform="translate(190.869141 0)"/>
       <use xlink:href="#DejaVuSans-2e" transform="translate(254.492188 0)"/>
       <use xlink:href="#DejaVuSans-30" transform="translate(286.279297 0)"/>
      </g>
     </g>
    </g>
    <g id="xtick_3">
     <g id="line2d_3">
      <g>
       <use xlink:href="#m1dc89e5ba6" x="154.244355" y="288.430125" style="stroke: #000000; stroke-width: 0.8"/>
      </g>
     </g>
     <g id="text_3">
      <!-- 2022.5 -->
      <g transform="translate(136.749043 303.028562) scale(0.1 -0.1)">
       <use xlink:href="#DejaVuSans-32"/>
       <use xlink:href="#DejaVuSans-30" transform="translate(63.623047 0)"/>
       <use xlink:href="#DejaVuSans-32" transform="translate(127.246094 0)"/>
       <use xlink:href="#DejaVuSans-32" transform="translate(190.869141 0)"/>
       <use xlink:href="#DejaVuSans-2e" transform="translate(254.492188 0)"/>
       <use xlink:href="#DejaVuSans-35" transform="translate(286.279297 0)"/>
      </g>
     </g>
    </g>
    <g id="xtick_4">
     <g id="line2d_4">
      <g>
       <use xlink:href="#m1dc89e5ba6" x="191.835934" y="288.430125" style="stroke: #000000; stroke-width: 0.8"/>
      </g>
     </g>
     <g id="text_4">
      <!-- 2025.0 -->
      <g transform="translate(174.340622 303.028562) scale(0.1 -0.1)">
       <use xlink:href="#DejaVuSans-32"/>
       <use xlink:href="#DejaVuSans-30" transform="translate(63.623047 0)"/>
       <use xlink:href="#DejaVuSans-32" transform="translate(127.246094 0)"/>
       <use xlink:href="#DejaVuSans-35" transform="translate(190.869141 0)"/>
       <use xlink:href="#DejaVuSans-2e" transform="translate(254.492188 0)"/>
       <use xlink:href="#DejaVuSans-30" transform="translate(286.279297 0)"/>
      </g>
     </g>
    </g>
    <g id="xtick_5">
     <g id="line2d_5">
      <g>
       <use xlink:href="#m1dc89e5ba6" x="229.427513" y="288.430125" style="stroke: #000000; stroke-width: 0.8"/>
      </g>
     </g>
     <g id="text_5">
      <!-- 2027.5 -->
      <g transform="translate(211.932201 303.028562) scale(0.1 -0.1)">
       <use xlink:href="#DejaVuSans-32"/>
       <use xlink:href="#DejaVuSans-30" transform="translate(63.623047 0)"/>
       <use xlink:href="#DejaVuSans-32" transform="translate(127.246094 0)"/>
       <use xlink:href="#DejaVuSans-37" transform="translate(190.869141 0)"/>
       <use xlink:href="#DejaVuSans-2e" transform="translate(254.492188 0)"/>
       <use xlink:href="#DejaVuSans-35" transform="translate(286.279297 0)"/>
      </g>
     </g>
    </g>
    <g id="xtick_6">
     <g id="line2d_6">
      <g>
       <use xlink:href="#m1dc89e5ba6" x="267.019092" y="288.430125" style="stroke: #000000; stroke-width: 0.8"/>
      </g>
     </g>
     <g id="text_6">
      <!-- 2030.0 -->
      <g transform="translate(249.52378 303.028562) scale(0.1 -0.1)">
       <defs>
        <path id="DejaVuSans-33" d="M 2597 2516 
Q 3050 2419 3304 2112 
Q 3559 1806 3559 1356 
Q 3559 666 3084 287 
Q 2609 -91 1734 -91 
Q 1441 -91 1130 -33 
Q 819 25 488 141 
L 488 750 
Q 750 597 1062 519 
Q 1375 441 1716 441 
Q 2309 441 2620 675 
Q 2931 909 2931 1356 
Q 2931 1769 2642 2001 
Q 2353 2234 1838 2234 
L 1294 2234 
L 1294 2753 
L 1863 2753 
Q 2328 2753 2575 2939 
Q 2822 3125 2822 3475 
Q 2822 3834 2567 4026 
Q 2313 4219 1838 4219 
Q 1578 4219 1281 4162 
Q 984 4106 628 3988 
L 628 4550 
Q 988 4650 1302 4700 
Q 1616 4750 1894 4750 
Q 2613 4750 3031 4423 
Q 3450 4097 3450 3541 
Q 3450 3153 3228 2886 
Q 3006 2619 2597 2516 
z
" transform="scale(0.015625)"/>
       </defs>
       <use xlink:href="#DejaVuSans-32"/>
       <use xlink:href="#DejaVuSans-30" transform="translate(63.623047 0)"/>
       <use xlink:href="#DejaVuSans-33" transform="translate(127.246094 0)"/>
       <use xlink:href="#DejaVuSans-30" transform="translate(190.869141 0)"/>
       <use xlink:href="#DejaVuSans-2e" transform="translate(254.492188 0)"/>
       <use xlink:href="#DejaVuSans-30" transform="translate(286.279297 0)"/>
      </g>
     </g>
    </g>
    <g id="xtick_7">
     <g id="line2d_7">
      <g>
       <use xlink:href="#m1dc89e5ba6" x="304.610671" y="288.430125" style="stroke: #000000; stroke-width: 0.8"/>
      </g>
     </g>
     <g id="text_7">
      <!-- 2032.5 -->
      <g transform="translate(287.115359 303.028562) scale(0.1 -0.1)">
       <use xlink:href="#DejaVuSans-32"/>
       <use xlink:href="#DejaVuSans-30" transform="translate(63.623047 0)"/>
       <use xlink:href="#DejaVuSans-33" transform="translate(127.246094 0)"/>
       <use xlink:href="#DejaVuSans-32" transform="translate(190.869141 0)"/>
       <use xlink:href="#DejaVuSans-2e" transform="translate(254.492188 0)"/>
       <use xlink:href="#DejaVuSans-35" transform="translate(286.279297 0)"/>
      </g>
     </g>
    </g>
    <g id="xtick_8">
     <g id="line2d_8">
      <g>
       <use xlink:href="#m1dc89e5ba6" x="342.20225" y="288.430125" style="stroke: #000000; stroke-width: 0.8"/>
      </g>
     </g>
     <g id="text_8">
      <!-- 2035.0 -->
      <g transform="translate(324.706937 303.028562) scale(0.1 -0.1)">
       <use xlink:href="#DejaVuSans-32"/>
       <use xlink:href="#DejaVuSans-30" transform="translate(63.623047 0)"/>
       <use xlink:href="#DejaVuSans-33" transform="translate(127.246094 0)"/>
       <use xlink:href="#DejaVuSans-35" transform="translate(190.869141 0)"/>
       <use xlink:href="#DejaVuSans-2e" transform="translate(254.492188 0)"/>
       <use xlink:href="#DejaVuSans-30" transform="translate(286.279297 0)"/>
      </g>
     </g>
    </g>
    <g id="text_9">
     <!-- Year -->
     <g transform="translate(188.76675 316.706687) scale(0.1 -0.1)">
      <defs>
       <path id="DejaVuSans-59" d="M -13 4666 
L 666 4666 
L 1959 2747 
L 3244 4666 
L 3922 4666 
L 2272 2222 
L 2272 0 
L 1638 0 
L 1638 2222 
L -13 4666 
z
" transform="scale(0.015625)"/>
       <path id="DejaVuSans-65" d="M 3597 1894 
L 3597 1613 
L 953 1613 
Q 991 1019 1311 708 
Q 1631 397 2203 397 
Q 2534 397 2845 478 
Q 3156 559 3463 722 
L 3463 178 
Q 3153 47 2828 -22 
Q 2503 -91 2169 -91 
Q 1331 -91 842 396 
Q 353 884 353 1716 
Q 353 2575 817 3079 
Q 1281 3584 2069 3584 
Q 2775 3584 3186 3129 
Q 3597 2675 3597 1894 
z
M 3022 2063 
Q 3016 2534 2758 2815 
Q 2500 3097 2075 3097 
Q 1594 3097 1305 2825 
Q 1016 2553 972 2059 
L 3022 2063 
z
" transform="scale(0.015625)"/>
       <path id="DejaVuSans-61" d="M 2194 1759 
Q 1497 1759 1228 1600 
Q 959 1441 959 1056 
Q 959 750 1161 570 
Q 1363 391 1709 391 
Q 2188 391 2477 730 
Q 2766 1069 2766 1631 
L 2766 1759 
L 2194 1759 
z
M 3341 1997 
L 3341 0 
L 2766 0 
L 2766 531 
Q 2569 213 2275 61 
Q 1981 -91 1556 -91 
Q 1019 -91 701 211 
Q 384 513 384 1019 
Q 384 1609 779 1909 
Q 1175 2209 1959 2209 
L 2766 2209 
L 2766 2266 
Q 2766 2663 2505 2880 
Q 2244 3097 1772 3097 
Q 1472 3097 1187 3025 
Q 903 2953 641 2809 
L 641 3341 
Q 956 3463 1253 3523 
Q 1550 3584 1831 3584 
Q 2591 3584 2966 3190 
Q 3341 2797 3341 1997 
z
" transform="scale(0.015625)"/>
       <path id="DejaVuSans-72" d="M 2631 2963 
Q 2534 3019 2420 3045 
Q 2306 3072 2169 3072 
Q 1681 3072 1420 2755 
Q 1159 2438 1159 1844 
L 1159 0 
L 581 0 
L 581 3500 
L 1159 3500 
L 1159 2956 
Q 1341 3275 1631 3429 
Q 1922 3584 2338 3584 
Q 2397 3584 2469 3576 
Q 2541 3569 2628 3553 
L 2631 2963 
z
" transform="scale(0.015625)"/>
      </defs>
      <use xlink:href="#DejaVuSans-59"/>
      <use xlink:href="#DejaVuSans-65" transform="translate(47.833984 0)"/>
      <use xlink:href="#DejaVuSans-61" transform="translate(109.357422 0)"/>
      <use xlink:href="#DejaVuSans-72" transform="translate(170.636719 0)"/>
     </g>
    </g>
   </g>
   <g id="matplotlib.axis_2">
    <g id="ytick_1">
     <g id="line2d_9">
      <defs>
       <path id="m867b8bab83" d="M 0 0 
L -3.5 0 
" style="stroke: #000000; stroke-width: 0.8"/>
      </defs>
      <g>
       <use xlink:href="#m867b8bab83" x="56.50625" y="288.430125" style="stroke: #000000; stroke-width: 0.8"/>
      </g>
     </g>
     <g id="text_10">
      <!-- 0 -->
      <g transform="translate(43.14375 292.229344) scale(0.1 -0.1)">
       <use xlink:href="#DejaVuSans-30"/>
      </g>
     </g>
    </g>
    <g id="ytick_2">
     <g id="line2d_10">
      <g>
       <use xlink:href="#m867b8bab83" x="56.50625" y="252.031986" style="stroke: #000000; stroke-width: 0.8"/>
      </g>
     </g>
     <g id="text_11">
      <!-- 50.0 -->
      <g transform="translate(27.240625 255.831205) scale(0.1 -0.1)">
       <use xlink:href="#DejaVuSans-35"/>
       <use xlink:href="#DejaVuSans-30" transform="translate(63.623047 0)"/>
       <use xlink:href="#DejaVuSans-2e" transform="translate(127.246094 0)"/>
       <use xlink:href="#DejaVuSans-30" transform="translate(159.033203 0)"/>
      </g>
     </g>
    </g>
    <g id="ytick_3">
     <g id="line2d_11">
      <g>
       <use xlink:href="#m867b8bab83" x="56.50625" y="215.633847" style="stroke: #000000; stroke-width: 0.8"/>
      </g>
     </g>
     <g id="text_12">
      <!-- 100.0 -->
      <g transform="translate(20.878125 219.433066) scale(0.1 -0.1)">
       <use xlink:href="#DejaVuSans-31"/>
       <use xlink:href="#DejaVuSans-30" transform="translate(63.623047 0)"/>
       <use xlink:href="#DejaVuSans-30" transform="translate(127.246094 0)"/>
       <use xlink:href="#DejaVuSans-2e" transform="translate(190.869141 0)"/>
       <use xlink:href="#DejaVuSans-30" transform="translate(222.65625 0)"/>
      </g>
     </g>
    </g>
    <g id="ytick_4">
     <g id="line2d_12">
      <g>
       <use xlink:href="#m867b8bab83" x="56.50625" y="179.235709" style="stroke: #000000; stroke-width: 0.8"/>
      </g>
     </g>
     <g id="text_13">
      <!-- 150.0 -->
      <g transform="translate(20.878125 183.034927) scale(0.1 -0.1)">
       <use xlink:href="#DejaVuSans-31"/>
       <use xlink:href="#DejaVuSans-35" transform="translate(63.623047 0)"/>
       <use xlink:href="#DejaVuSans-30" transform="translate(127.246094 0)"/>
       <use xlink:href="#DejaVuSans-2e" transform="translate(190.869141 0)"/>
       <use xlink:href="#DejaVuSans-30" transform="translate(222.65625 0)"/>
      </g>
     </g>
    </g>
    <g id="ytick_5">
     <g id="line2d_13">
      <g>
       <use xlink:href="#m867b8bab83" x="56.50625" y="142.83757" style="stroke: #000000; stroke-width: 0.8"/>
      </g>
     </g>
     <g id="text_14">
      <!-- 200.0 -->
      <g transform="translate(20.878125 146.636789) scale(0.1 -0.1)">
       <use xlink:href="#DejaVuSans-32"/>
       <use xlink:href="#DejaVuSans-30" transform="translate(63.623047 0)"/>
       <use xlink:href="#DejaVuSans-30" transform="translate(127.246094 0)"/>
       <use xlink:href="#DejaVuSans-2e" transform="translate(190.869141 0)"/>
       <use xlink:href="#DejaVuSans-30" transform="translate(222.65625 0)"/>
      </g>
     </g>
    </g>
    <g id="ytick_6">
     <g id="line2d_14">
      <g>
       <use xlink:href="#m867b8bab83" x="56.50625" y="106.439431" style="stroke: #000000; stroke-width: 0.8"/>
      </g>
     </g>
     <g id="text_15">
      <!-- 250.0 -->
      <g transform="translate(20.878125 110.23865) scale(0.1 -0.1)">
       <use xlink:href="#DejaVuSans-32"/>
       <use xlink:href="#DejaVuSans-35" transform="translate(63.623047 0)"/>
       <use xlink:href="#DejaVuSans-30" transform="translate(127.246094 0)"/>
       <use xlink:href="#DejaVuSans-2e" transform="translate(190.869141 0)"/>
       <use xlink:href="#DejaVuSans-30" transform="translate(222.65625 0)"/>
      </g>
     </g>
    </g>
    <g id="ytick_7">
     <g id="line2d_15">
      <g>
       <use xlink:href="#m867b8bab83" x="56.50625" y="70.041292" style="stroke: #000000; stroke-width: 0.8"/>
      </g>
     </g>
     <g id="text_16">
      <!-- 300.0 -->
      <g transform="translate(20.878125 73.840511) scale(0.1 -0.1)">
       <use xlink:href="#DejaVuSans-33"/>
       <use xlink:href="#DejaVuSans-30" transform="translate(63.623047 0)"/>
       <use xlink:href="#DejaVuSans-30" transform="translate(127.246094 0)"/>
       <use xlink:href="#DejaVuSans-2e" transform="translate(190.869141 0)"/>
       <use xlink:href="#DejaVuSans-30" transform="translate(222.65625 0)"/>
      </g>
     </g>
    </g>
    <g id="ytick_8">
     <g id="line2d_16">
      <g>
       <use xlink:href="#m867b8bab83" x="56.50625" y="33.643153" style="stroke: #000000; stroke-width: 0.8"/>
      </g>
     </g>
     <g id="text_17">
      <!-- 350.0 -->
      <g transform="translate(20.878125 37.442372) scale(0.1 -0.1)">
       <use xlink:href="#DejaVuSans-33"/>
       <use xlink:href="#DejaVuSans-35" transform="translate(63.623047 0)"/>
       <use xlink:href="#DejaVuSans-30" transform="translate(127.246094 0)"/>
       <use xlink:href="#DejaVuSans-2e" transform="translate(190.869141 0)"/>
       <use xlink:href="#DejaVuSans-30" transform="translate(222.65625 0)"/>
      </g>
     </g>
    </g>
    <g id="text_18">
     <!-- scr (Number of people) -->
     <g transform="translate(14.798438 213.307719) rotate(-90) scale(0.1 -0.1)">
      <defs>
       <path id="DejaVuSans-73" d="M 2834 3397 
L 2834 2853 
Q 2591 2978 2328 3040 
Q 2066 3103 1784 3103 
Q 1356 3103 1142 2972 
Q 928 2841 928 2578 
Q 928 2378 1081 2264 
Q 1234 2150 1697 2047 
L 1894 2003 
Q 2506 1872 2764 1633 
Q 3022 1394 3022 966 
Q 3022 478 2636 193 
Q 2250 -91 1575 -91 
Q 1294 -91 989 -36 
Q 684 19 347 128 
L 347 722 
Q 666 556 975 473 
Q 1284 391 1588 391 
Q 1994 391 2212 530 
Q 2431 669 2431 922 
Q 2431 1156 2273 1281 
Q 2116 1406 1581 1522 
L 1381 1569 
Q 847 1681 609 1914 
Q 372 2147 372 2553 
Q 372 3047 722 3315 
Q 1072 3584 1716 3584 
Q 2034 3584 2315 3537 
Q 2597 3491 2834 3397 
z
" transform="scale(0.015625)"/>
       <path id="DejaVuSans-63" d="M 3122 3366 
L 3122 2828 
Q 2878 2963 2633 3030 
Q 2388 3097 2138 3097 
Q 1578 3097 1268 2742 
Q 959 2388 959 1747 
Q 959 1106 1268 751 
Q 1578 397 2138 397 
Q 2388 397 2633 464 
Q 2878 531 3122 666 
L 3122 134 
Q 2881 22 2623 -34 
Q 2366 -91 2075 -91 
Q 1284 -91 818 406 
Q 353 903 353 1747 
Q 353 2603 823 3093 
Q 1294 3584 2113 3584 
Q 2378 3584 2631 3529 
Q 2884 3475 3122 3366 
z
" transform="scale(0.015625)"/>
       <path id="DejaVuSans-20" transform="scale(0.015625)"/>
       <path id="DejaVuSans-28" d="M 1984 4856 
Q 1566 4138 1362 3434 
Q 1159 2731 1159 2009 
Q 1159 1288 1364 580 
Q 1569 -128 1984 -844 
L 1484 -844 
Q 1016 -109 783 600 
Q 550 1309 550 2009 
Q 550 2706 781 3412 
Q 1013 4119 1484 4856 
L 1984 4856 
z
" transform="scale(0.015625)"/>
       <path id="DejaVuSans-4e" d="M 628 4666 
L 1478 4666 
L 3547 763 
L 3547 4666 
L 4159 4666 
L 4159 0 
L 3309 0 
L 1241 3903 
L 1241 0 
L 628 0 
L 628 4666 
z
" transform="scale(0.015625)"/>
       <path id="DejaVuSans-75" d="M 544 1381 
L 544 3500 
L 1119 3500 
L 1119 1403 
Q 1119 906 1312 657 
Q 1506 409 1894 409 
Q 2359 409 2629 706 
Q 2900 1003 2900 1516 
L 2900 3500 
L 3475 3500 
L 3475 0 
L 2900 0 
L 2900 538 
Q 2691 219 2414 64 
Q 2138 -91 1772 -91 
Q 1169 -91 856 284 
Q 544 659 544 1381 
z
M 1991 3584 
L 1991 3584 
z
" transform="scale(0.015625)"/>
       <path id="DejaVuSans-6d" d="M 3328 2828 
Q 3544 3216 3844 3400 
Q 4144 3584 4550 3584 
Q 5097 3584 5394 3201 
Q 5691 2819 5691 2113 
L 5691 0 
L 5113 0 
L 5113 2094 
Q 5113 2597 4934 2840 
Q 4756 3084 4391 3084 
Q 3944 3084 3684 2787 
Q 3425 2491 3425 1978 
L 3425 0 
L 2847 0 
L 2847 2094 
Q 2847 2600 2669 2842 
Q 2491 3084 2119 3084 
Q 1678 3084 1418 2786 
Q 1159 2488 1159 1978 
L 1159 0 
L 581 0 
L 581 3500 
L 1159 3500 
L 1159 2956 
Q 1356 3278 1631 3431 
Q 1906 3584 2284 3584 
Q 2666 3584 2933 3390 
Q 3200 3197 3328 2828 
z
" transform="scale(0.015625)"/>
       <path id="DejaVuSans-62" d="M 3116 1747 
Q 3116 2381 2855 2742 
Q 2594 3103 2138 3103 
Q 1681 3103 1420 2742 
Q 1159 2381 1159 1747 
Q 1159 1113 1420 752 
Q 1681 391 2138 391 
Q 2594 391 2855 752 
Q 3116 1113 3116 1747 
z
M 1159 2969 
Q 1341 3281 1617 3432 
Q 1894 3584 2278 3584 
Q 2916 3584 3314 3078 
Q 3713 2572 3713 1747 
Q 3713 922 3314 415 
Q 2916 -91 2278 -91 
Q 1894 -91 1617 61 
Q 1341 213 1159 525 
L 1159 0 
L 581 0 
L 581 4863 
L 1159 4863 
L 1159 2969 
z
" transform="scale(0.015625)"/>
       <path id="DejaVuSans-6f" d="M 1959 3097 
Q 1497 3097 1228 2736 
Q 959 2375 959 1747 
Q 959 1119 1226 758 
Q 1494 397 1959 397 
Q 2419 397 2687 759 
Q 2956 1122 2956 1747 
Q 2956 2369 2687 2733 
Q 2419 3097 1959 3097 
z
M 1959 3584 
Q 2709 3584 3137 3096 
Q 3566 2609 3566 1747 
Q 3566 888 3137 398 
Q 2709 -91 1959 -91 
Q 1206 -91 779 398 
Q 353 888 353 1747 
Q 353 2609 779 3096 
Q 1206 3584 1959 3584 
z
" transform="scale(0.015625)"/>
       <path id="DejaVuSans-66" d="M 2375 4863 
L 2375 4384 
L 1825 4384 
Q 1516 4384 1395 4259 
Q 1275 4134 1275 3809 
L 1275 3500 
L 2222 3500 
L 2222 3053 
L 1275 3053 
L 1275 0 
L 697 0 
L 697 3053 
L 147 3053 
L 147 3500 
L 697 3500 
L 697 3744 
Q 697 4328 969 4595 
Q 1241 4863 1831 4863 
L 2375 4863 
z
" transform="scale(0.015625)"/>
       <path id="DejaVuSans-70" d="M 1159 525 
L 1159 -1331 
L 581 -1331 
L 581 3500 
L 1159 3500 
L 1159 2969 
Q 1341 3281 1617 3432 
Q 1894 3584 2278 3584 
Q 2916 3584 3314 3078 
Q 3713 2572 3713 1747 
Q 3713 922 3314 415 
Q 2916 -91 2278 -91 
Q 1894 -91 1617 61 
Q 1341 213 1159 525 
z
M 3116 1747 
Q 3116 2381 2855 2742 
Q 2594 3103 2138 3103 
Q 1681 3103 1420 2742 
Q 1159 2381 1159 1747 
Q 1159 1113 1420 752 
Q 1681 391 2138 391 
Q 2594 391 2855 752 
Q 3116 1113 3116 1747 
z
" transform="scale(0.015625)"/>
       <path id="DejaVuSans-6c" d="M 603 4863 
L 1178 4863 
L 1178 0 
L 603 0 
L 603 4863 
z
" transform="scale(0.015625)"/>
       <path id="DejaVuSans-29" d="M 513 4856 
L 1013 4856 
Q 1481 4119 1714 3412 
Q 1947 2706 1947 2009 
Q 1947 1309 1714 600 
Q 1481 -109 1013 -844 
L 513 -844 
Q 928 -128 1133 580 
Q 1338 1288 1338 2009 
Q 1338 2731 1133 3434 
Q 928 4138 513 4856 
z
" transform="scale(0.015625)"/>
      </defs>
      <use xlink:href="#DejaVuSans-73"/>
      <use xlink:href="#DejaVuSans-63" transform="translate(52.099609 0)"/>
      <use xlink:href="#DejaVuSans-72" transform="translate(107.080078 0)"/>
      <use xlink:href="#DejaVuSans-20" transform="translate(148.193359 0)"/>
      <use xlink:href="#DejaVuSans-28" transform="translate(179.980469 0)"/>
      <use xlink:href="#DejaVuSans-4e" transform="translate(218.994141 0)"/>
      <use xlink:href="#DejaVuSans-75" transform="translate(293.798828 0)"/>
      <use xlink:href="#DejaVuSans-6d" transform="translate(357.177734 0)"/>
      <use xlink:href="#DejaVuSans-62" transform="translate(454.589844 0)"/>
      <use xlink:href="#DejaVuSans-65" transform="translate(518.066406 0)"/>
      <use xlink:href="#DejaVuSans-72" transform="translate(579.589844 0)"/>
      <use xlink:href="#DejaVuSans-20" transform="translate(620.703125 0)"/>
      <use xlink:href="#DejaVuSans-6f" transform="translate(652.490234 0)"/>
      <use xlink:href="#DejaVuSans-66" transform="translate(713.671875 0)"/>
      <use xlink:href="#DejaVuSans-20" transform="translate(748.876953 0)"/>
      <use xlink:href="#DejaVuSans-70" transform="translate(780.664062 0)"/>
      <use xlink:href="#DejaVuSans-65" transform="translate(844.140625 0)"/>
      <use xlink:href="#DejaVuSans-6f" transform="translate(905.664062 0)"/>
      <use xlink:href="#DejaVuSans-70" transform="translate(966.845703 0)"/>
      <use xlink:href="#DejaVuSans-6c" transform="translate(1030.322266 0)"/>
      <use xlink:href="#DejaVuSans-65" transform="translate(1058.105469 0)"/>
      <use xlink:href="#DejaVuSans-29" transform="translate(1119.628906 0)"/>
     </g>
    </g>
   </g>
   <g id="line2d_17">
    <path d="M 56.50625 266.889825 
L 71.542882 92.968711 
L 86.579513 65.953387 
L 101.616145 51.116111 
L 116.652776 46.032968 
L 131.689408 48.688307 
L 146.726039 57.410349 
L 161.762671 70.81656 
L 176.799303 87.767358 
L 191.835934 107.326944 
L 206.872566 128.730177 
L 221.909197 151.354601 
L 236.945829 157.26991 
L 251.982461 159.100813 
L 267.019092 160.630391 
L 282.055724 161.906105 
L 297.092355 162.968036 
L 312.128987 163.850015 
L 327.165618 164.580587 
L 342.20225 165.183832 
" clip-path="url(#p0f830b68e3)" style="fill: none; stroke: #377eb8; stroke-width: 3; stroke-linecap: square"/>
   </g>
   <g id="line2d_18">
    <path d="M 56.50625 266.889825 
L 60.265408 223.759576 
L 64.024566 192.739934 
L 67.783724 170.584369 
L 71.542882 154.911431 
L 75.302039 143.974399 
L 79.061197 136.605709 
L 82.820355 130.271718 
L 86.579513 124.646777 
L 90.338671 119.695675 
L 94.097829 115.38468 
L 97.856987 111.681478 
L 101.616145 108.55512 
L 105.375303 105.975967 
L 109.134461 103.91564 
L 112.893618 102.346966 
L 116.652776 101.243937 
L 120.411934 100.581657 
L 124.171092 100.336303 
L 127.93025 100.485079 
L 131.689408 101.006178 
L 135.448566 101.878739 
L 139.207724 103.082812 
L 142.966882 104.599323 
L 146.726039 106.410032 
L 150.485197 108.497508 
L 154.244355 110.845091 
L 158.003513 113.436863 
L 161.762671 116.257615 
L 165.521829 119.292824 
L 169.280987 122.528619 
L 173.040145 125.951759 
L 176.799303 129.549607 
L 180.558461 133.310099 
L 184.317618 137.221731 
L 188.076776 141.273528 
L 191.835934 145.455024 
L 195.595092 149.101881 
L 199.35425 151.957873 
L 203.113408 154.226301 
L 206.872566 156.056621 
L 210.631724 157.558767 
L 214.390882 158.813668 
L 218.150039 159.880955 
L 221.909197 160.804625 
L 225.668355 161.617195 
L 229.427513 162.342748 
L 233.186671 162.999169 
L 236.945829 163.599789 
L 240.704987 164.154589 
L 244.464145 164.671083 
L 248.223303 165.154969 
L 251.982461 165.610604 
L 255.741618 166.041356 
L 259.500776 166.449859 
L 263.259934 166.838202 
L 267.019092 167.20807 
L 270.77825 167.560845 
L 274.537408 167.897677 
L 278.296566 168.219549 
L 282.055724 168.527306 
L 285.814882 168.821696 
L 289.574039 169.103384 
L 293.333197 169.372974 
L 297.092355 169.631019 
L 300.851513 169.878029 
L 304.610671 170.11448 
L 308.369829 170.340821 
L 312.128987 170.557473 
L 315.888145 170.764835 
L 319.647303 170.963288 
L 323.406461 171.153193 
L 327.165618 171.334896 
L 330.924776 171.508727 
L 334.683934 171.675002 
L 338.443092 171.834024 
L 342.20225 171.986083 
" clip-path="url(#p0f830b68e3)" style="fill: none; stroke: #e41a1c; stroke-width: 3; stroke-linecap: square"/>
   </g>
   <g id="line2d_19">
    <path d="M 56.50625 266.889825 
L 58.009913 249.637725 
L 59.513576 234.323096 
L 61.017239 220.738192 
L 62.520903 208.697411 
L 64.024566 198.034935 
L 65.528229 188.60262 
L 67.031892 180.26812 
L 68.535555 172.913198 
L 70.039218 166.432227 
L 71.542882 160.730843 
L 73.046545 155.724752 
L 74.550208 151.356968 
L 76.053871 147.557871 
L 77.557534 144.265282 
L 79.061197 141.423667 
L 82.068524 136.374402 
L 85.07585 131.772082 
L 88.083176 127.599083 
L 91.090503 123.838368 
L 94.097829 120.47347 
L 97.105155 117.488472 
L 100.112482 114.86799 
L 103.119808 112.597161 
L 106.127134 110.661619 
L 109.134461 109.047486 
L 112.141787 107.741354 
L 115.149113 106.73027 
L 118.156439 106.001721 
L 121.163766 105.543624 
L 124.171092 105.344307 
L 127.178418 105.392501 
L 130.185745 105.677322 
L 133.193071 106.188265 
L 136.200397 106.915188 
L 139.207724 107.848299 
L 142.21505 108.978149 
L 145.222376 110.29562 
L 148.229703 111.791912 
L 152.740692 114.353148 
L 157.251682 117.270297 
L 161.762671 120.517402 
L 166.273661 124.069881 
L 170.78465 127.904463 
L 175.295639 131.999121 
L 181.310292 137.827371 
L 190.332271 146.87979 
L 193.339597 149.265797 
L 196.346924 151.281679 
L 199.35425 152.998521 
L 202.361576 154.473185 
L 205.368903 155.751173 
L 209.879892 157.37705 
L 214.390882 158.734591 
L 220.405534 160.240981 
L 226.420187 161.498227 
L 233.938503 162.825749 
L 242.960482 164.170639 
L 253.486124 165.502616 
L 265.515429 166.800416 
L 279.048397 168.043417 
L 294.085029 169.209971 
L 310.625324 170.279625 
L 330.172945 171.307061 
L 342.20225 171.832587 
L 342.20225 171.832587 
" clip-path="url(#p0f830b68e3)" style="fill: none; stroke: #4daf4a; stroke-width: 3; stroke-linecap: square"/>
   </g>
   <g id="line2d_20">
    <path d="M 56.50625 266.889825 
L 58.009913 250.122074 
L 59.513576 235.189235 
L 61.017239 221.899741 
L 62.520903 210.081901 
L 64.024566 199.58184 
L 65.528229 190.261648 
L 67.031892 181.99773 
L 68.535555 174.679318 
L 70.039218 168.207143 
L 71.542882 162.492242 
L 73.046545 157.459483 
L 74.550208 153.050038 
L 76.053871 149.197713 
L 77.557534 145.8432 
L 79.061197 142.933364 
L 82.068524 137.904927 
L 85.07585 133.324523 
L 88.083176 129.169927 
L 91.090503 125.424299 
L 94.097829 122.071357 
L 97.105155 119.095364 
L 100.112482 116.481108 
L 103.119808 114.213888 
L 106.127134 112.279494 
L 109.134461 110.664199 
L 112.141787 109.354736 
L 115.149113 108.338288 
L 118.156439 107.602473 
L 121.163766 107.135331 
L 124.171092 106.925308 
L 127.178418 106.961249 
L 130.185745 107.232378 
L 133.193071 107.728291 
L 136.200397 108.438943 
L 139.207724 109.354637 
L 142.21505 110.466012 
L 145.974208 112.116673 
L 149.733366 114.042036 
L 153.492524 116.225885 
L 157.251682 118.652714 
L 161.762671 121.864818 
L 166.273661 125.381127 
L 170.78465 129.17856 
L 176.047471 133.935123 
L 181.310292 139.011946 
L 188.828608 146.39215 
L 191.084103 148.198661 
L 194.091429 150.286681 
L 197.098755 152.071338 
L 200.106082 153.608853 
L 203.865239 155.251312 
L 207.624397 156.64729 
L 212.135387 158.071037 
L 217.398208 159.469919 
L 223.412861 160.815366 
L 230.179345 162.097278 
L 238.449492 163.428891 
L 248.223303 164.768037 
L 259.500776 166.087411 
L 273.033745 167.43348 
L 288.070376 168.692933 
L 304.610671 169.84714 
L 322.654629 170.88012 
L 342.20225 171.781256 
L 342.20225 171.781256 
" clip-path="url(#p0f830b68e3)" style="fill: none; stroke: #a24e99; stroke-width: 3; stroke-linecap: square"/>
   </g>
   <g id="line2d_21">
    <path d="M 56.50625 266.889825 
L 58.310646 247.421324 
L 60.115042 230.43395 
L 61.919437 215.626309 
L 63.723833 202.733383 
L 65.528229 191.522139 
L 67.332625 181.787674 
L 68.986654 174.007452 
L 70.640684 167.19387 
L 72.294713 161.239761 
L 73.948743 156.06364 
L 75.602772 151.580583 
L 77.256802 147.711577 
L 78.910831 144.386423 
L 80.715227 141.265232 
L 83.722553 136.506879 
L 86.579513 132.385662 
L 89.436473 128.638628 
L 92.293433 125.251697 
L 95.150393 122.211234 
L 98.007353 119.504036 
L 100.713947 117.235148 
L 103.420541 115.243357 
L 106.127134 113.518449 
L 108.833728 112.050517 
L 111.540322 110.829956 
L 114.246915 109.847454 
L 116.953509 109.093981 
L 119.660103 108.560785 
L 122.517063 108.227569 
L 125.374023 108.12067 
L 128.230983 108.230737 
L 131.238309 108.571054 
L 134.245635 109.131558 
L 137.403328 109.946298 
L 140.711387 111.036592 
L 144.169812 112.422476 
L 147.628237 114.046692 
L 151.237029 115.981755 
L 155.146553 118.338959 
L 159.206444 121.056264 
L 163.416701 124.14502 
L 167.92769 127.738782 
L 172.589046 131.738079 
L 177.551134 136.288514 
L 182.813955 141.415945 
L 187.024212 145.482536 
L 189.580439 147.563399 
L 192.287033 149.478171 
L 195.143993 151.230948 
L 198.301686 152.903927 
L 201.760111 154.477401 
L 205.519269 155.942188 
L 209.729526 157.344022 
L 214.541248 158.708148 
L 220.104802 160.047526 
L 226.570553 161.369063 
L 234.239235 162.701557 
L 243.261214 164.03779 
L 253.937223 165.388481 
L 266.267261 166.720007 
L 280.251328 168.002882 
L 295.889425 169.209196 
L 313.031185 170.305366 
L 331.977341 171.29119 
L 342.20225 171.740134 
L 342.20225 171.740134 
" clip-path="url(#p0f830b68e3)" style="fill: none; stroke: #ff7f00; stroke-width: 3; stroke-linecap: square"/>
   </g>
   <g id="patch_3">
    <path d="M 56.50625 288.430125 
L 56.50625 22.318125 
" style="fill: none; stroke: #000000; stroke-width: 0.8; stroke-linejoin: miter; stroke-linecap: square"/>
   </g>
   <g id="patch_4">
    <path d="M 342.20225 288.430125 
L 342.20225 22.318125 
" style="fill: none"/>
   </g>
   <g id="patch_5">
    <path d="M 56.50625 288.430125 
L 342.20225 288.430125 
" style="fill: none; stroke: #000000; stroke-width: 0.8; stroke-linejoin: miter; stroke-linecap: square"/>
   </g>
   <g id="patch_6">
    <path d="M 56.50625 22.318125 
L 342.20225 22.318125 
" style="fill: none"/>
   </g>
   <g id="text_19">
    <!-- women -->
    <g transform="translate(177.437375 16.318125) scale(0.12 -0.12)">
     <defs>
      <path id="DejaVuSans-77" d="M 269 3500 
L 844 3500 
L 1563 769 
L 2278 3500 
L 2956 3500 
L 3675 769 
L 4391 3500 
L 4966 3500 
L 4050 0 
L 3372 0 
L 2619 2869 
L 1863 0 
L 1184 0 
L 269 3500 
z
" transform="scale(0.015625)"/>
      <path id="DejaVuSans-6e" d="M 3513 2113 
L 3513 0 
L 2938 0 
L 2938 2094 
Q 2938 2591 2744 2837 
Q 2550 3084 2163 3084 
Q 1697 3084 1428 2787 
Q 1159 2491 1159 1978 
L 1159 0 
L 581 0 
L 581 3500 
L 1159 3500 
L 1159 2956 
Q 1366 3272 1645 3428 
Q 1925 3584 2291 3584 
Q 2894 3584 3203 3211 
Q 3513 2838 3513 2113 
z
" transform="scale(0.015625)"/>
     </defs>
     <use xlink:href="#DejaVuSans-77"/>
     <use xlink:href="#DejaVuSans-6f" transform="translate(81.787109 0)"/>
     <use xlink:href="#DejaVuSans-6d" transform="translate(142.96875 0)"/>
     <use xlink:href="#DejaVuSans-65" transform="translate(240.380859 0)"/>
     <use xlink:href="#DejaVuSans-6e" transform="translate(301.904297 0)"/>
    </g>
   </g>
   <g id="legend_1">
    <g id="patch_7">
     <path d="M 363.48705 193.569437 
L 442.763613 193.569437 
Q 444.763613 193.569437 444.763613 191.569437 
L 444.763613 119.178812 
Q 444.763613 117.178812 442.763613 117.178812 
L 363.48705 117.178812 
Q 361.48705 117.178812 361.48705 119.178812 
L 361.48705 191.569437 
Q 361.48705 193.569437 363.48705 193.569437 
L 363.48705 193.569437 
z
" style="fill: none; opacity: 0"/>
    </g>
    <g id="line2d_22">
     <path d="M 365.48705 125.27725 
L 375.48705 125.27725 
L 385.48705 125.27725 
" style="fill: none; stroke: #377eb8; stroke-width: 3; stroke-linecap: square"/>
    </g>
    <g id="text_20">
     <!-- dt=1.000 -->
     <g transform="translate(393.48705 128.77725) scale(0.1 -0.1)">
      <defs>
       <path id="DejaVuSans-64" d="M 2906 2969 
L 2906 4863 
L 3481 4863 
L 3481 0 
L 2906 0 
L 2906 525 
Q 2725 213 2448 61 
Q 2172 -91 1784 -91 
Q 1150 -91 751 415 
Q 353 922 353 1747 
Q 353 2572 751 3078 
Q 1150 3584 1784 3584 
Q 2172 3584 2448 3432 
Q 2725 3281 2906 2969 
z
M 947 1747 
Q 947 1113 1208 752 
Q 1469 391 1925 391 
Q 2381 391 2643 752 
Q 2906 1113 2906 1747 
Q 2906 2381 2643 2742 
Q 2381 3103 1925 3103 
Q 1469 3103 1208 2742 
Q 947 2381 947 1747 
z
" transform="scale(0.015625)"/>
       <path id="DejaVuSans-74" d="M 1172 4494 
L 1172 3500 
L 2356 3500 
L 2356 3053 
L 1172 3053 
L 1172 1153 
Q 1172 725 1289 603 
Q 1406 481 1766 481 
L 2356 481 
L 2356 0 
L 1766 0 
Q 1100 0 847 248 
Q 594 497 594 1153 
L 594 3053 
L 172 3053 
L 172 3500 
L 594 3500 
L 594 4494 
L 1172 4494 
z
" transform="scale(0.015625)"/>
       <path id="DejaVuSans-3d" d="M 678 2906 
L 4684 2906 
L 4684 2381 
L 678 2381 
L 678 2906 
z
M 678 1631 
L 4684 1631 
L 4684 1100 
L 678 1100 
L 678 1631 
z
" transform="scale(0.015625)"/>
      </defs>
      <use xlink:href="#DejaVuSans-64"/>
      <use xlink:href="#DejaVuSans-74" transform="translate(63.476562 0)"/>
      <use xlink:href="#DejaVuSans-3d" transform="translate(102.685547 0)"/>
      <use xlink:href="#DejaVuSans-31" transform="translate(186.474609 0)"/>
      <use xlink:href="#DejaVuSans-2e" transform="translate(250.097656 0)"/>
      <use xlink:href="#DejaVuSans-30" transform="translate(281.884766 0)"/>
      <use xlink:href="#DejaVuSans-30" transform="translate(345.507812 0)"/>
      <use xlink:href="#DejaVuSans-30" transform="translate(409.130859 0)"/>
     </g>
    </g>
    <g id="line2d_23">
     <path d="M 365.48705 139.955375 
L 375.48705 139.955375 
L 385.48705 139.955375 
" style="fill: none; stroke: #e41a1c; stroke-width: 3; stroke-linecap: square"/>
    </g>
    <g id="text_21">
     <!-- dt=0.250 -->
     <g transform="translate(393.48705 143.455375) scale(0.1 -0.1)">
      <use xlink:href="#DejaVuSans-64"/>
      <use xlink:href="#DejaVuSans-74" transform="translate(63.476562 0)"/>
      <use xlink:href="#DejaVuSans-3d" transform="translate(102.685547 0)"/>
      <use xlink:href="#DejaVuSans-30" transform="translate(186.474609 0)"/>
      <use xlink:href="#DejaVuSans-2e" transform="translate(250.097656 0)"/>
      <use xlink:href="#DejaVuSans-32" transform="translate(281.884766 0)"/>
      <use xlink:href="#DejaVuSans-35" transform="translate(345.507812 0)"/>
      <use xlink:href="#DejaVuSans-30" transform="translate(409.130859 0)"/>
     </g>
    </g>
    <g id="line2d_24">
     <path d="M 365.48705 154.6335 
L 375.48705 154.6335 
L 385.48705 154.6335 
" style="fill: none; stroke: #4daf4a; stroke-width: 3; stroke-linecap: square"/>
    </g>
    <g id="text_22">
     <!-- dt=0.100 -->
     <g transform="translate(393.48705 158.1335) scale(0.1 -0.1)">
      <use xlink:href="#DejaVuSans-64"/>
      <use xlink:href="#DejaVuSans-74" transform="translate(63.476562 0)"/>
      <use xlink:href="#DejaVuSans-3d" transform="translate(102.685547 0)"/>
      <use xlink:href="#DejaVuSans-30" transform="translate(186.474609 0)"/>
      <use xlink:href="#DejaVuSans-2e" transform="translate(250.097656 0)"/>
      <use xlink:href="#DejaVuSans-31" transform="translate(281.884766 0)"/>
      <use xlink:href="#DejaVuSans-30" transform="translate(345.507812 0)"/>
      <use xlink:href="#DejaVuSans-30" transform="translate(409.130859 0)"/>
     </g>
    </g>
    <g id="line2d_25">
     <path d="M 365.48705 169.311625 
L 375.48705 169.311625 
L 385.48705 169.311625 
" style="fill: none; stroke: #a24e99; stroke-width: 3; stroke-linecap: square"/>
    </g>
    <g id="text_23">
     <!-- dt=0.050 -->
     <g transform="translate(393.48705 172.811625) scale(0.1 -0.1)">
      <use xlink:href="#DejaVuSans-64"/>
      <use xlink:href="#DejaVuSans-74" transform="translate(63.476562 0)"/>
      <use xlink:href="#DejaVuSans-3d" transform="translate(102.685547 0)"/>
      <use xlink:href="#DejaVuSans-30" transform="translate(186.474609 0)"/>
      <use xlink:href="#DejaVuSans-2e" transform="translate(250.097656 0)"/>
      <use xlink:href="#DejaVuSans-30" transform="translate(281.884766 0)"/>
      <use xlink:href="#DejaVuSans-35" transform="translate(345.507812 0)"/>
      <use xlink:href="#DejaVuSans-30" transform="translate(409.130859 0)"/>
     </g>
    </g>
    <g id="line2d_26">
     <path d="M 365.48705 183.98975 
L 375.48705 183.98975 
L 385.48705 183.98975 
" style="fill: none; stroke: #ff7f00; stroke-width: 3; stroke-linecap: square"/>
    </g>
    <g id="text_24">
     <!-- dt=0.010 -->
     <g transform="translate(393.48705 187.48975) scale(0.1 -0.1)">
      <use xlink:href="#DejaVuSans-64"/>
      <use xlink:href="#DejaVuSans-74" transform="translate(63.476562 0)"/>
      <use xlink:href="#DejaVuSans-3d" transform="translate(102.685547 0)"/>
      <use xlink:href="#DejaVuSans-30" transform="translate(186.474609 0)"/>
      <use xlink:href="#DejaVuSans-2e" transform="translate(250.097656 0)"/>
      <use xlink:href="#DejaVuSans-30" transform="translate(281.884766 0)"/>
      <use xlink:href="#DejaVuSans-31" transform="translate(345.507812 0)"/>
      <use xlink:href="#DejaVuSans-30" transform="translate(409.130859 0)"/>
     </g>
    </g>
   </g>
  </g>
 </g>
 <defs>
  <clipPath id="p0f830b68e3">
   <rect x="56.50625" y="22.318125" width="285.696" height="266.112"/>
  </clipPath>
 </defs>
</svg>
