<?xml version="1.0" encoding="utf-8" standalone="no"?>
<!DOCTYPE svg PUBLIC "-//W3C//DTD SVG 1.1//EN"
  "http://www.w3.org/Graphics/SVG/1.1/DTD/svg11.dtd">
<svg xmlns:xlink="http://www.w3.org/1999/xlink" width="403.97pt" height="297.190125pt" viewBox="0 0 403.97 297.190125" xmlns="http://www.w3.org/2000/svg" version="1.1">
 <metadata>
  <rdf:RDF xmlns:dc="http://purl.org/dc/elements/1.1/" xmlns:cc="http://creativecommons.org/ns#" xmlns:rdf="http://www.w3.org/1999/02/22-rdf-syntax-ns#">
   <cc:Work>
    <dc:type rdf:resource="http://purl.org/dc/dcmitype/StillImage"/>
    <dc:date>2025-08-11T06:04:22.832232</dc:date>
    <dc:format>image/svg+xml</dc:format>
    <dc:creator>
     <cc:Agent>
      <dc:title>Matplotlib v3.10.5, https://matplotlib.org/</dc:title>
     </cc:Agent>
    </dc:creator>
   </cc:Work>
  </rdf:RDF>
 </metadata>
 <defs>
  <style type="text/css">*{stroke-linejoin: round; stroke-linecap: butt}</style>
 </defs>
 <g id="figure_1">
  <g id="patch_1">
   <path d="M 0 297.190125 
L 403.97 297.190125 
L 403.97 0 
L 0 0 
z
" style="fill: #ffffff"/>
  </g>
  <g id="axes_1">
   <g id="patch_2">
    <path d="M 39.65 273.312 
L 396.77 273.312 
L 396.77 7.2 
L 39.65 7.2 
z
" style="fill: #ffffff"/>
   </g>
   <g id="matplotlib.axis_1">
    <g id="xtick_1">
     <g id="line2d_1">
      <defs>
       <path id="ma588e0f86f" d="M 0 0 
L 0 3.5 
" style="stroke: #000000; stroke-width: 0.8"/>
      </defs>
      <g>
       <use xlink:href="#ma588e0f86f" x="55.882727" y="273.312" style="stroke: #000000; stroke-width: 0.8"/>
      </g>
     </g>
     <g id="text_1">
      <!-- 0.0 -->
      <g transform="translate(47.931165 287.910437) scale(0.1 -0.1)">
       <defs>
        <path id="DejaVuSans-30" d="M 2034 4250 
Q 1547 4250 1301 3770 
Q 1056 3291 1056 2328 
Q 1056 1369 1301 889 
Q 1547 409 2034 409 
Q 2525 409 2770 889 
Q 3016 1369 3016 2328 
Q 3016 3291 2770 3770 
Q 2525 4250 2034 4250 
z
M 2034 4750 
Q 2819 4750 3233 4129 
Q 3647 3509 3647 2328 
Q 3647 1150 3233 529 
Q 2819 -91 2034 -91 
Q 1250 -91 836 529 
Q 422 1150 422 2328 
Q 422 3509 836 4129 
Q 1250 4750 2034 4750 
z
" transform="scale(0.015625)"/>
        <path id="DejaVuSans-2e" d="M 684 794 
L 1344 794 
L 1344 0 
L 684 0 
L 684 794 
z
" transform="scale(0.015625)"/>
       </defs>
       <use xlink:href="#DejaVuSans-30"/>
       <use xlink:href="#DejaVuSans-2e" transform="translate(63.623047 0)"/>
       <use xlink:href="#DejaVuSans-30" transform="translate(95.410156 0)"/>
      </g>
     </g>
    </g>
    <g id="xtick_2">
     <g id="line2d_2">
      <g>
       <use xlink:href="#ma588e0f86f" x="96.668474" y="273.312" style="stroke: #000000; stroke-width: 0.8"/>
      </g>
     </g>
     <g id="text_2">
      <!-- 2.5 -->
      <g transform="translate(88.716912 287.910437) scale(0.1 -0.1)">
       <defs>
        <path id="DejaVuSans-32" d="M 1228 531 
L 3431 531 
L 3431 0 
L 469 0 
L 469 531 
Q 828 903 1448 1529 
Q 2069 2156 2228 2338 
Q 2531 2678 2651 2914 
Q 2772 3150 2772 3378 
Q 2772 3750 2511 3984 
Q 2250 4219 1831 4219 
Q 1534 4219 1204 4116 
Q 875 4013 500 3803 
L 500 4441 
Q 881 4594 1212 4672 
Q 1544 4750 1819 4750 
Q 2544 4750 2975 4387 
Q 3406 4025 3406 3419 
Q 3406 3131 3298 2873 
Q 3191 2616 2906 2266 
Q 2828 2175 2409 1742 
Q 1991 1309 1228 531 
z
" transform="scale(0.015625)"/>
        <path id="DejaVuSans-35" d="M 691 4666 
L 3169 4666 
L 3169 4134 
L 1269 4134 
L 1269 2991 
Q 1406 3038 1543 3061 
Q 1681 3084 1819 3084 
Q 2600 3084 3056 2656 
Q 3513 2228 3513 1497 
Q 3513 744 3044 326 
Q 2575 -91 1722 -91 
Q 1428 -91 1123 -41 
Q 819 9 494 109 
L 494 744 
Q 775 591 1075 516 
Q 1375 441 1709 441 
Q 2250 441 2565 725 
Q 2881 1009 2881 1497 
Q 2881 1984 2565 2268 
Q 2250 2553 1709 2553 
Q 1456 2553 1204 2497 
Q 953 2441 691 2322 
L 691 4666 
z
" transform="scale(0.015625)"/>
       </defs>
       <use xlink:href="#DejaVuSans-32"/>
       <use xlink:href="#DejaVuSans-2e" transform="translate(63.623047 0)"/>
       <use xlink:href="#DejaVuSans-35" transform="translate(95.410156 0)"/>
      </g>
     </g>
    </g>
    <g id="xtick_3">
     <g id="line2d_3">
      <g>
       <use xlink:href="#ma588e0f86f" x="137.454221" y="273.312" style="stroke: #000000; stroke-width: 0.8"/>
      </g>
     </g>
     <g id="text_3">
      <!-- 5.0 -->
      <g transform="translate(129.502659 287.910437) scale(0.1 -0.1)">
       <use xlink:href="#DejaVuSans-35"/>
       <use xlink:href="#DejaVuSans-2e" transform="translate(63.623047 0)"/>
       <use xlink:href="#DejaVuSans-30" transform="translate(95.410156 0)"/>
      </g>
     </g>
    </g>
    <g id="xtick_4">
     <g id="line2d_4">
      <g>
       <use xlink:href="#ma588e0f86f" x="178.239968" y="273.312" style="stroke: #000000; stroke-width: 0.8"/>
      </g>
     </g>
     <g id="text_4">
      <!-- 7.5 -->
      <g transform="translate(170.288406 287.910437) scale(0.1 -0.1)">
       <defs>
        <path id="DejaVuSans-37" d="M 525 4666 
L 3525 4666 
L 3525 4397 
L 1831 0 
L 1172 0 
L 2766 4134 
L 525 4134 
L 525 4666 
z
" transform="scale(0.015625)"/>
       </defs>
       <use xlink:href="#DejaVuSans-37"/>
       <use xlink:href="#DejaVuSans-2e" transform="translate(63.623047 0)"/>
       <use xlink:href="#DejaVuSans-35" transform="translate(95.410156 0)"/>
      </g>
     </g>
    </g>
    <g id="xtick_5">
     <g id="line2d_5">
      <g>
       <use xlink:href="#ma588e0f86f" x="219.025715" y="273.312" style="stroke: #000000; stroke-width: 0.8"/>
      </g>
     </g>
     <g id="text_5">
      <!-- 10.0 -->
      <g transform="translate(207.892902 287.910437) scale(0.1 -0.1)">
       <defs>
        <path id="DejaVuSans-31" d="M 794 531 
L 1825 531 
L 1825 4091 
L 703 3866 
L 703 4441 
L 1819 4666 
L 2450 4666 
L 2450 531 
L 3481 531 
L 3481 0 
L 794 0 
L 794 531 
z
" transform="scale(0.015625)"/>
       </defs>
       <use xlink:href="#DejaVuSans-31"/>
       <use xlink:href="#DejaVuSans-30" transform="translate(63.623047 0)"/>
       <use xlink:href="#DejaVuSans-2e" transform="translate(127.246094 0)"/>
       <use xlink:href="#DejaVuSans-30" transform="translate(159.033203 0)"/>
      </g>
     </g>
    </g>
    <g id="xtick_6">
     <g id="line2d_6">
      <g>
       <use xlink:href="#ma588e0f86f" x="259.811462" y="273.312" style="stroke: #000000; stroke-width: 0.8"/>
      </g>
     </g>
     <g id="text_6">
      <!-- 12.5 -->
      <g transform="translate(248.678649 287.910437) scale(0.1 -0.1)">
       <use xlink:href="#DejaVuSans-31"/>
       <use xlink:href="#DejaVuSans-32" transform="translate(63.623047 0)"/>
       <use xlink:href="#DejaVuSans-2e" transform="translate(127.246094 0)"/>
       <use xlink:href="#DejaVuSans-35" transform="translate(159.033203 0)"/>
      </g>
     </g>
    </g>
    <g id="xtick_7">
     <g id="line2d_7">
      <g>
       <use xlink:href="#ma588e0f86f" x="300.597209" y="273.312" style="stroke: #000000; stroke-width: 0.8"/>
      </g>
     </g>
     <g id="text_7">
      <!-- 15.0 -->
      <g transform="translate(289.464396 287.910437) scale(0.1 -0.1)">
       <use xlink:href="#DejaVuSans-31"/>
       <use xlink:href="#DejaVuSans-35" transform="translate(63.623047 0)"/>
       <use xlink:href="#DejaVuSans-2e" transform="translate(127.246094 0)"/>
       <use xlink:href="#DejaVuSans-30" transform="translate(159.033203 0)"/>
      </g>
     </g>
    </g>
    <g id="xtick_8">
     <g id="line2d_8">
      <g>
       <use xlink:href="#ma588e0f86f" x="341.382956" y="273.312" style="stroke: #000000; stroke-width: 0.8"/>
      </g>
     </g>
     <g id="text_8">
      <!-- 17.5 -->
      <g transform="translate(330.250143 287.910437) scale(0.1 -0.1)">
       <use xlink:href="#DejaVuSans-31"/>
       <use xlink:href="#DejaVuSans-37" transform="translate(63.623047 0)"/>
       <use xlink:href="#DejaVuSans-2e" transform="translate(127.246094 0)"/>
       <use xlink:href="#DejaVuSans-35" transform="translate(159.033203 0)"/>
      </g>
     </g>
    </g>
    <g id="xtick_9">
     <g id="line2d_9">
      <g>
       <use xlink:href="#ma588e0f86f" x="382.168703" y="273.312" style="stroke: #000000; stroke-width: 0.8"/>
      </g>
     </g>
     <g id="text_9">
      <!-- 20.0 -->
      <g transform="translate(371.03589 287.910437) scale(0.1 -0.1)">
       <use xlink:href="#DejaVuSans-32"/>
       <use xlink:href="#DejaVuSans-30" transform="translate(63.623047 0)"/>
       <use xlink:href="#DejaVuSans-2e" transform="translate(127.246094 0)"/>
       <use xlink:href="#DejaVuSans-30" transform="translate(159.033203 0)"/>
      </g>
     </g>
    </g>
   </g>
   <g id="matplotlib.axis_2">
    <g id="ytick_1">
     <g id="line2d_10">
      <defs>
       <path id="mf21c385617" d="M 0 0 
L -3.5 0 
" style="stroke: #000000; stroke-width: 0.8"/>
      </defs>
      <g>
       <use xlink:href="#mf21c385617" x="39.65" y="261.216" style="stroke: #000000; stroke-width: 0.8"/>
      </g>
     </g>
     <g id="text_10">
      <!-- 0 -->
      <g transform="translate(26.2875 265.015219) scale(0.1 -0.1)">
       <use xlink:href="#DejaVuSans-30"/>
      </g>
     </g>
    </g>
    <g id="ytick_2">
     <g id="line2d_11">
      <g>
       <use xlink:href="#mf21c385617" x="39.65" y="220.788193" style="stroke: #000000; stroke-width: 0.8"/>
      </g>
     </g>
     <g id="text_11">
      <!-- 500 -->
      <g transform="translate(13.5625 224.587411) scale(0.1 -0.1)">
       <use xlink:href="#DejaVuSans-35"/>
       <use xlink:href="#DejaVuSans-30" transform="translate(63.623047 0)"/>
       <use xlink:href="#DejaVuSans-30" transform="translate(127.246094 0)"/>
      </g>
     </g>
    </g>
    <g id="ytick_3">
     <g id="line2d_12">
      <g>
       <use xlink:href="#mf21c385617" x="39.65" y="180.360385" style="stroke: #000000; stroke-width: 0.8"/>
      </g>
     </g>
     <g id="text_12">
      <!-- 1000 -->
      <g transform="translate(7.2 184.159604) scale(0.1 -0.1)">
       <use xlink:href="#DejaVuSans-31"/>
       <use xlink:href="#DejaVuSans-30" transform="translate(63.623047 0)"/>
       <use xlink:href="#DejaVuSans-30" transform="translate(127.246094 0)"/>
       <use xlink:href="#DejaVuSans-30" transform="translate(190.869141 0)"/>
      </g>
     </g>
    </g>
    <g id="ytick_4">
     <g id="line2d_13">
      <g>
       <use xlink:href="#mf21c385617" x="39.65" y="139.932578" style="stroke: #000000; stroke-width: 0.8"/>
      </g>
     </g>
     <g id="text_13">
      <!-- 1500 -->
      <g transform="translate(7.2 143.731796) scale(0.1 -0.1)">
       <use xlink:href="#DejaVuSans-31"/>
       <use xlink:href="#DejaVuSans-35" transform="translate(63.623047 0)"/>
       <use xlink:href="#DejaVuSans-30" transform="translate(127.246094 0)"/>
       <use xlink:href="#DejaVuSans-30" transform="translate(190.869141 0)"/>
      </g>
     </g>
    </g>
    <g id="ytick_5">
     <g id="line2d_14">
      <g>
       <use xlink:href="#mf21c385617" x="39.65" y="99.50477" style="stroke: #000000; stroke-width: 0.8"/>
      </g>
     </g>
     <g id="text_14">
      <!-- 2000 -->
      <g transform="translate(7.2 103.303989) scale(0.1 -0.1)">
       <use xlink:href="#DejaVuSans-32"/>
       <use xlink:href="#DejaVuSans-30" transform="translate(63.623047 0)"/>
       <use xlink:href="#DejaVuSans-30" transform="translate(127.246094 0)"/>
       <use xlink:href="#DejaVuSans-30" transform="translate(190.869141 0)"/>
      </g>
     </g>
    </g>
    <g id="ytick_6">
     <g id="line2d_15">
      <g>
       <use xlink:href="#mf21c385617" x="39.65" y="59.076963" style="stroke: #000000; stroke-width: 0.8"/>
      </g>
     </g>
     <g id="text_15">
      <!-- 2500 -->
      <g transform="translate(7.2 62.876181) scale(0.1 -0.1)">
       <use xlink:href="#DejaVuSans-32"/>
       <use xlink:href="#DejaVuSans-35" transform="translate(63.623047 0)"/>
       <use xlink:href="#DejaVuSans-30" transform="translate(127.246094 0)"/>
       <use xlink:href="#DejaVuSans-30" transform="translate(190.869141 0)"/>
      </g>
     </g>
    </g>
    <g id="ytick_7">
     <g id="line2d_16">
      <g>
       <use xlink:href="#mf21c385617" x="39.65" y="18.649155" style="stroke: #000000; stroke-width: 0.8"/>
      </g>
     </g>
     <g id="text_16">
      <!-- 3000 -->
      <g transform="translate(7.2 22.448374) scale(0.1 -0.1)">
       <defs>
        <path id="DejaVuSans-33" d="M 2597 2516 
Q 3050 2419 3304 2112 
Q 3559 1806 3559 1356 
Q 3559 666 3084 287 
Q 2609 -91 1734 -91 
Q 1441 -91 1130 -33 
Q 819 25 488 141 
L 488 750 
Q 750 597 1062 519 
Q 1375 441 1716 441 
Q 2309 441 2620 675 
Q 2931 909 2931 1356 
Q 2931 1769 2642 2001 
Q 2353 2234 1838 2234 
L 1294 2234 
L 1294 2753 
L 1863 2753 
Q 2328 2753 2575 2939 
Q 2822 3125 2822 3475 
Q 2822 3834 2567 4026 
Q 2313 4219 1838 4219 
Q 1578 4219 1281 4162 
Q 984 4106 628 3988 
L 628 4550 
Q 988 4650 1302 4700 
Q 1616 4750 1894 4750 
Q 2613 4750 3031 4423 
Q 3450 4097 3450 3541 
Q 3450 3153 3228 2886 
Q 3006 2619 2597 2516 
z
" transform="scale(0.015625)"/>
       </defs>
       <use xlink:href="#DejaVuSans-33"/>
       <use xlink:href="#DejaVuSans-30" transform="translate(63.623047 0)"/>
       <use xlink:href="#DejaVuSans-30" transform="translate(127.246094 0)"/>
       <use xlink:href="#DejaVuSans-30" transform="translate(190.869141 0)"/>
      </g>
     </g>
    </g>
   </g>
   <g id="line2d_17">
    <path d="M 55.882727 261.216 
L 59.961302 241.002096 
L 64.039877 222.736813 
L 68.118451 206.232303 
L 72.197026 191.318827 
L 76.275601 177.843011 
L 80.354175 165.666263 
L 84.43275 154.663354 
L 88.511325 144.721126 
L 92.589899 135.737328 
L 96.668474 127.619568 
L 100.747049 120.28436 
L 104.825624 113.656267 
L 108.904198 107.667121 
L 112.982773 102.255329 
L 117.061348 97.365234 
L 121.139922 92.946544 
L 125.218497 88.953816 
L 129.297072 85.345987 
L 133.375646 82.085952 
L 137.454221 79.140185 
L 141.532796 76.47839 
L 145.61137 74.073192 
L 149.689945 71.899855 
L 153.76852 69.936028 
L 157.847095 68.161513 
L 161.925669 66.558062 
L 166.004244 65.109183 
L 170.082819 63.799977 
L 174.161393 62.616978 
L 178.239968 61.54802 
L 182.318543 60.582109 
L 186.397117 59.709313 
L 190.475692 58.920653 
L 194.554267 58.208021 
L 198.632841 57.564087 
L 202.711416 56.982227 
L 206.789991 56.456459 
L 210.868566 55.981375 
L 214.94714 55.552089 
L 219.025715 55.164187 
L 223.10429 54.813678 
L 227.182864 54.496958 
L 231.261439 54.21077 
L 235.340014 53.95217 
L 239.418588 53.7185 
L 243.497163 53.507355 
L 247.575738 53.316565 
L 251.654312 53.144166 
L 255.732887 52.988387 
L 259.811462 52.847626 
L 263.890037 52.720433 
L 267.968611 52.605502 
L 272.047186 52.50165 
L 276.125761 52.40781 
L 280.204335 52.323016 
L 284.28291 52.246396 
L 288.361485 52.177162 
L 292.440059 52.114602 
L 296.518634 52.058073 
L 300.597209 52.006993 
L 304.675783 51.960838 
L 308.754358 51.919132 
L 312.832933 51.881446 
L 316.911508 51.847393 
L 320.990082 51.816623 
L 325.068657 51.788819 
L 329.147232 51.763696 
L 333.225806 51.740994 
L 337.304381 51.720481 
L 341.382956 51.701945 
L 345.46153 51.685197 
L 349.540105 51.670062 
L 353.61868 51.656387 
L 357.697254 51.64403 
L 361.775829 51.632864 
L 365.854404 51.622775 
L 369.932979 51.613658 
L 374.011553 51.60542 
L 378.090128 51.597976 
" clip-path="url(#pe08e1485bb)" style="fill: none; stroke: #1f77b4; stroke-width: 1.5; stroke-linecap: square"/>
   </g>
   <g id="line2d_18">
    <path d="M 55.882727 261.216 
L 59.961302 261.216 
L 64.039877 259.26738 
L 68.118451 256.026045 
L 72.197026 251.972243 
L 76.275601 247.454506 
L 80.354175 242.722861 
L 84.43275 237.953918 
L 88.511325 233.269795 
L 92.589899 228.752368 
L 96.668474 224.453988 
L 100.747049 220.405527 
L 104.825624 216.622393 
L 108.904198 213.109019 
L 112.982773 209.862204 
L 117.061348 206.873577 
L 121.139922 204.131413 
L 125.218497 201.621955 
L 129.297072 199.33037 
L 133.375646 197.241429 
L 137.454221 195.339985 
L 141.532796 193.611295 
L 145.61137 192.04124 
L 149.689945 190.61645 
L 153.76852 189.324386 
L 157.847095 188.153362 
L 161.925669 187.092555 
L 166.004244 186.131981 
L 170.082819 185.262466 
L 174.161393 184.4756 
L 178.239968 183.763698 
L 182.318543 183.119748 
L 186.397117 182.537361 
L 190.475692 182.010725 
L 194.554267 181.534561 
L 198.632841 181.104073 
L 202.711416 180.714914 
L 206.789991 180.363139 
L 210.868566 180.045176 
L 214.94714 179.75779 
L 219.025715 179.498051 
L 223.10429 179.263308 
L 227.182864 179.051161 
L 231.261439 178.859439 
L 235.340014 178.686181 
L 239.418588 178.52961 
L 243.497163 178.388122 
L 247.575738 178.260265 
L 251.654312 178.144727 
L 255.732887 178.040322 
L 259.811462 177.945978 
L 263.890037 177.860726 
L 267.968611 177.78369 
L 272.047186 177.714079 
L 276.125761 177.651177 
L 280.204335 177.594338 
L 284.28291 177.542978 
L 288.361485 177.496568 
L 292.440059 177.454631 
L 296.518634 177.416737 
L 300.597209 177.382496 
L 304.675783 177.351555 
L 308.754358 177.323597 
L 312.832933 177.298334 
L 316.911508 177.275507 
L 320.990082 177.25488 
L 325.068657 177.236241 
L 329.147232 177.219399 
L 333.225806 177.20418 
L 337.304381 177.190429 
L 341.382956 177.178003 
L 345.46153 177.166775 
L 349.540105 177.156629 
L 353.61868 177.147462 
L 357.697254 177.139178 
L 361.775829 177.131693 
L 365.854404 177.124929 
L 369.932979 177.118817 
L 374.011553 177.113295 
L 378.090128 177.108305 
" clip-path="url(#pe08e1485bb)" style="fill: none; stroke: #ff7f0e; stroke-width: 1.5; stroke-linecap: square"/>
   </g>
   <g id="line2d_19">
    <path d="M 55.882727 261.216 
L 57.514157 253.858139 
L 59.145587 245.287444 
L 60.777017 237.444449 
L 62.408447 230.167444 
L 65.671307 216.421989 
L 67.302736 210.600385 
L 68.934166 204.293647 
L 72.197026 193.054717 
L 73.828456 187.475679 
L 75.459886 181.330652 
L 77.091316 176.317604 
L 78.722746 171.870545 
L 80.354175 166.048941 
L 83.617035 155.699422 
L 85.248465 151.090652 
L 86.879895 145.915893 
L 88.511325 141.873112 
L 90.142755 139.285733 
L 95.037044 127.480813 
L 98.299904 120.365519 
L 99.931334 116.161027 
L 101.562764 113.33108 
L 103.194194 109.288299 
L 104.825624 107.913754 
L 106.457053 105.326374 
L 108.088483 101.283594 
L 109.719913 100.475037 
L 111.351343 99.019636 
L 114.614203 94.896 
L 116.245633 93.117176 
L 117.877063 90.448941 
L 119.508492 90.044663 
L 121.139922 87.861561 
L 122.771352 82.36338 
L 124.402782 79.533433 
L 126.034212 77.107765 
L 127.665642 74.196963 
L 129.297072 70.154182 
L 130.928502 67.647658 
L 132.559931 65.94969 
L 134.191361 63.847444 
L 135.822791 62.230332 
L 137.454221 60.855786 
L 139.085651 58.02584 
L 140.717081 57.540706 
L 142.348511 55.034182 
L 143.979941 55.357604 
L 147.2428 51.638246 
L 148.87423 51.314824 
L 150.50566 51.55739 
L 152.13709 49.536 
L 153.76852 49.859422 
L 155.39995 47.999743 
L 157.03138 47.433754 
L 158.66281 46.301775 
L 160.294239 45.978353 
L 161.925669 44.684663 
L 163.557099 42.178139 
L 165.188529 40.641882 
L 166.819959 39.590759 
L 168.451389 37.569369 
L 170.082819 37.973647 
L 171.714249 36.194824 
L 173.345678 38.377925 
L 174.977108 38.539636 
L 176.608538 36.841668 
L 178.239968 35.305412 
L 181.502828 33.284021 
L 183.134258 34.335144 
L 184.765688 34.011722 
L 186.397117 33.850011 
L 188.028547 33.364877 
L 191.291407 33.607444 
L 192.922837 33.607444 
L 194.554267 32.39461 
L 196.185697 32.232898 
L 197.817127 32.475465 
L 201.079986 29.80723 
L 202.711416 29.402952 
L 204.342846 28.028406 
L 205.974276 30.696642 
L 207.605706 29.888086 
L 209.237136 30.130652 
L 210.868566 30.696642 
L 212.499995 30.53493 
L 214.131425 29.645519 
L 215.762855 27.947551 
L 217.394285 27.78584 
L 219.025715 28.190118 
L 220.657145 25.521882 
L 222.288575 26.330439 
L 223.920005 27.543273 
L 225.551434 26.249583 
L 227.182864 25.602738 
L 228.814294 26.087872 
L 232.077154 24.066481 
L 233.708584 25.764449 
L 235.340014 25.683594 
L 236.971444 26.087872 
L 238.602873 25.845305 
L 240.234303 25.441027 
L 241.865733 25.279316 
L 243.497163 24.713326 
L 245.128593 27.300706 
L 246.760023 27.704984 
L 248.391453 27.704984 
L 250.022883 25.92616 
L 251.654312 26.168727 
L 253.285742 25.92616 
L 254.917172 25.036749 
L 256.548602 26.330439 
L 258.180032 25.845305 
L 261.442892 24.309048 
L 263.074322 24.309048 
L 264.705751 24.147337 
L 266.337181 24.551615 
L 267.968611 24.713326 
L 269.600041 22.772791 
L 271.231471 24.066481 
L 272.862901 22.61108 
L 274.494331 22.125947 
L 276.125761 23.257925 
L 277.75719 24.955893 
L 279.38862 24.875037 
L 281.02005 25.19846 
L 282.65148 24.794182 
L 284.28291 25.845305 
L 285.91434 26.007016 
L 287.54577 25.117604 
L 289.1772 23.985626 
L 290.80863 23.096214 
L 292.440059 23.500492 
L 294.071489 23.257925 
L 295.702919 22.691936 
L 297.334349 23.743059 
L 298.965779 24.309048 
L 300.597209 23.823914 
L 302.228639 22.206802 
L 303.860069 22.287658 
L 305.491498 22.772791 
L 307.122928 25.036749 
L 308.754358 25.360171 
L 310.385788 26.330439 
L 312.017218 25.360171 
L 313.648648 26.007016 
L 315.280078 25.441027 
L 316.911508 23.90477 
L 318.542937 23.823914 
L 320.174367 25.279316 
L 321.805797 22.691936 
L 323.437227 22.853647 
L 325.068657 23.17707 
L 328.331517 20.993968 
L 331.594376 23.338781 
L 333.225806 23.257925 
L 334.857236 23.90477 
L 336.488666 24.389904 
L 338.120096 22.368513 
L 339.751526 22.368513 
L 341.382956 22.045091 
L 343.014386 20.751401 
L 344.645815 20.913112 
L 346.277245 21.721668 
L 347.908675 21.721668 
L 349.540105 21.559957 
L 351.171535 21.88338 
L 352.802965 21.721668 
L 354.434395 19.619422 
L 356.065825 20.427979 
L 357.697254 19.538567 
L 359.328684 19.296 
L 360.960114 22.287658 
L 362.591544 22.449369 
L 364.222974 23.743059 
L 365.854404 21.964235 
L 367.485834 21.31739 
L 369.117264 22.125947 
L 370.748693 22.449369 
L 372.380123 20.993968 
L 374.011553 22.449369 
L 375.642983 21.721668 
L 377.274413 22.772791 
L 378.905843 23.257925 
L 380.537273 24.713326 
L 380.537273 24.713326 
" clip-path="url(#pe08e1485bb)" style="fill: none; stroke: #2ca02c; stroke-width: 1.5; stroke-linecap: square"/>
   </g>
   <g id="line2d_20">
    <path d="M 55.882727 261.216 
L 59.145587 260.892578 
L 60.777017 260.164877 
L 62.408447 259.598888 
L 64.039877 258.709476 
L 65.671307 257.658353 
L 67.302736 256.122096 
L 68.934166 255.232684 
L 72.197026 251.594182 
L 73.828456 250.70477 
L 75.459886 249.491936 
L 77.091316 248.11739 
L 78.722746 246.338567 
L 80.354175 244.155465 
L 81.985605 242.295786 
L 85.248465 237.767872 
L 86.879895 235.908193 
L 90.142755 231.056856 
L 91.774185 228.631187 
L 93.405614 227.014075 
L 96.668474 222.567016 
L 98.299904 220.626481 
L 99.931334 219.656214 
L 101.562764 217.553968 
L 103.194194 216.341134 
L 104.825624 213.187765 
L 106.457053 211.328086 
L 108.088483 210.438674 
L 114.614203 202.595679 
L 116.245633 200.978567 
L 117.877063 199.199743 
L 119.508492 196.369797 
L 121.139922 194.671829 
L 122.771352 194.590973 
L 124.402782 192.731294 
L 127.665642 189.982203 
L 129.297072 190.063059 
L 130.928502 188.445947 
L 134.191361 187.394824 
L 135.822791 185.777711 
L 137.454221 185.777711 
L 139.085651 183.837176 
L 140.717081 182.30092 
L 142.348511 181.73493 
L 143.979941 178.824128 
L 145.61137 177.853861 
L 147.2428 176.236749 
L 150.50566 172.355679 
L 152.13709 169.687444 
L 153.76852 168.47461 
L 155.39995 167.989476 
L 157.03138 168.232043 
L 158.66281 167.989476 
L 160.294239 168.555465 
L 161.925669 167.423487 
L 163.557099 167.666053 
L 165.188529 167.019209 
L 166.819959 164.431829 
L 168.451389 164.189262 
L 170.082819 162.167872 
L 171.714249 162.57215 
L 173.345678 161.197604 
L 174.977108 159.661348 
L 176.608538 159.98477 
L 178.239968 159.98477 
L 179.871398 159.176214 
L 181.502828 159.014503 
L 183.134258 157.073968 
L 184.765688 156.346267 
L 186.397117 155.941989 
L 188.028547 156.265412 
L 189.659977 156.103701 
L 191.291407 154.567444 
L 192.922837 153.516321 
L 194.554267 153.839743 
L 196.185697 153.678032 
L 197.817127 152.78862 
L 199.448556 150.848086 
L 201.079986 150.282096 
L 202.711416 151.899209 
L 204.342846 152.465198 
L 205.974276 153.678032 
L 207.605706 152.626909 
L 209.237136 151.737497 
L 210.868566 151.090652 
L 212.499995 151.252364 
L 214.131425 151.656642 
L 215.762855 153.758888 
L 217.394285 153.192898 
L 219.025715 153.678032 
L 220.657145 154.486588 
L 222.288575 153.031187 
L 223.920005 152.141775 
L 225.551434 153.516321 
L 227.182864 152.141775 
L 228.814294 150.201241 
L 230.445724 150.362952 
L 232.077154 149.230973 
L 233.708584 148.584128 
L 235.340014 147.371294 
L 236.971444 147.937283 
L 238.602873 146.077604 
L 240.234303 147.128727 
L 241.865733 147.290439 
L 243.497163 147.128727 
L 245.128593 142.519957 
L 246.760023 142.600813 
L 248.391453 142.034824 
L 250.022883 143.005091 
L 251.654312 142.924235 
L 253.285742 143.085947 
L 256.548602 144.217925 
L 258.180032 145.430759 
L 259.811462 145.188193 
L 261.442892 144.783914 
L 263.074322 144.86477 
L 264.705751 145.592471 
L 266.337181 144.86477 
L 267.968611 144.298781 
L 271.231471 142.762524 
L 272.862901 143.651936 
L 274.494331 144.13707 
L 276.125761 141.711401 
L 277.75719 140.417711 
L 279.38862 139.366588 
L 281.02005 139.851722 
L 284.28291 139.124021 
L 285.91434 139.447444 
L 287.54577 140.094289 
L 289.1772 140.013433 
L 290.80863 141.145412 
L 292.440059 140.983701 
L 294.071489 140.579422 
L 295.702919 140.013433 
L 297.334349 137.911187 
L 298.965779 137.506909 
L 300.597209 137.830332 
L 302.228639 139.528299 
L 303.860069 138.800599 
L 305.491498 136.455786 
L 307.122928 133.787551 
L 308.754358 137.264342 
L 310.385788 137.183487 
L 312.017218 138.396321 
L 313.648648 137.506909 
L 315.280078 138.153754 
L 316.911508 139.932578 
L 318.542937 138.315465 
L 320.174367 136.94092 
L 321.805797 137.992043 
L 323.437227 138.638888 
L 325.068657 138.719743 
L 326.700087 140.094289 
L 328.331517 141.145412 
L 329.962947 142.439102 
L 331.594376 140.579422 
L 333.225806 141.145412 
L 334.857236 140.741134 
L 336.488666 140.741134 
L 338.120096 142.762524 
L 341.382956 143.328513 
L 343.014386 143.975358 
L 344.645815 143.409369 
L 346.277245 142.196535 
L 351.171535 140.417711 
L 352.802965 140.741134 
L 354.434395 140.094289 
L 356.065825 139.770866 
L 357.697254 141.064556 
L 359.328684 141.873112 
L 360.960114 139.690011 
L 362.591544 140.498567 
L 364.222974 138.800599 
L 365.854404 140.579422 
L 367.485834 140.902845 
L 369.117264 139.609155 
L 370.748693 140.983701 
L 372.380123 141.468834 
L 374.011553 139.851722 
L 375.642983 141.468834 
L 377.274413 140.741134 
L 378.905843 141.226267 
L 380.537273 141.54969 
L 380.537273 141.54969 
" clip-path="url(#pe08e1485bb)" style="fill: none; stroke: #d62728; stroke-width: 1.5; stroke-linecap: square"/>
   </g>
   <g id="patch_3">
    <path d="M 39.65 273.312 
L 39.65 7.2 
" style="fill: none; stroke: #000000; stroke-width: 0.8; stroke-linejoin: miter; stroke-linecap: square"/>
   </g>
   <g id="patch_4">
    <path d="M 396.77 273.312 
L 396.77 7.2 
" style="fill: none; stroke: #000000; stroke-width: 0.8; stroke-linejoin: miter; stroke-linecap: square"/>
   </g>
   <g id="patch_5">
    <path d="M 39.65 273.312 
L 396.77 273.312 
" style="fill: none; stroke: #000000; stroke-width: 0.8; stroke-linejoin: miter; stroke-linecap: square"/>
   </g>
   <g id="patch_6">
    <path d="M 39.65 7.2 
L 396.77 7.2 
" style="fill: none; stroke: #000000; stroke-width: 0.8; stroke-linejoin: miter; stroke-linecap: square"/>
   </g>
  </g>
 </g>
 <defs>
  <clipPath id="pe08e1485bb">
   <rect x="39.65" y="7.2" width="357.12" height="266.112"/>
  </clipPath>
 </defs>
</svg>
