<?xml version="1.0" encoding="utf-8" standalone="no"?>
<!DOCTYPE svg PUBLIC "-//W3C//DTD SVG 1.1//EN"
  "http://www.w3.org/Graphics/SVG/1.1/DTD/svg11.dtd">
<!-- Created with matplotlib (https://matplotlib.org/) -->
<svg height="297.190125pt" version="1.1" viewBox="0 0 397.6075 297.190125" width="397.6075pt" xmlns="http://www.w3.org/2000/svg" xmlns:xlink="http://www.w3.org/1999/xlink">
 <metadata>
  <rdf:RDF xmlns:cc="http://creativecommons.org/ns#" xmlns:dc="http://purl.org/dc/elements/1.1/" xmlns:rdf="http://www.w3.org/1999/02/22-rdf-syntax-ns#">
   <cc:Work>
    <dc:type rdf:resource="http://purl.org/dc/dcmitype/StillImage"/>
    <dc:date>2021-03-25T23:06:45.997306</dc:date>
    <dc:format>image/svg+xml</dc:format>
    <dc:creator>
     <cc:Agent>
      <dc:title>Matplotlib v3.3.4, https://matplotlib.org/</dc:title>
     </cc:Agent>
    </dc:creator>
   </cc:Work>
  </rdf:RDF>
 </metadata>
 <defs>
  <style type="text/css">*{stroke-linecap:butt;stroke-linejoin:round;}</style>
 </defs>
 <g id="figure_1">
  <g id="patch_1">
   <path d="M 0 297.190125 
L 397.6075 297.190125 
L 397.6075 0 
L 0 0 
z
" style="fill:#ffffff;"/>
  </g>
  <g id="axes_1">
   <g id="patch_2">
    <path d="M 33.2875 273.312 
L 390.4075 273.312 
L 390.4075 7.2 
L 33.2875 7.2 
z
" style="fill:#ffffff;"/>
   </g>
   <g id="matplotlib.axis_1">
    <g id="xtick_1">
     <g id="line2d_1">
      <defs>
       <path d="M 0 0 
L 0 3.5 
" id="mb3b9f1cda5" style="stroke:#000000;stroke-width:0.8;"/>
      </defs>
      <g>
       <use style="stroke:#000000;stroke-width:0.8;" x="49.520227" xlink:href="#mb3b9f1cda5" y="273.312"/>
      </g>
     </g>
     <g id="text_1">
      <!-- 0.0 -->
      <g transform="translate(41.568665 287.910437)scale(0.1 -0.1)">
       <defs>
        <path d="M 31.78125 66.40625 
Q 24.171875 66.40625 20.328125 58.90625 
Q 16.5 51.421875 16.5 36.375 
Q 16.5 21.390625 20.328125 13.890625 
Q 24.171875 6.390625 31.78125 6.390625 
Q 39.453125 6.390625 43.28125 13.890625 
Q 47.125 21.390625 47.125 36.375 
Q 47.125 51.421875 43.28125 58.90625 
Q 39.453125 66.40625 31.78125 66.40625 
z
M 31.78125 74.21875 
Q 44.046875 74.21875 50.515625 64.515625 
Q 56.984375 54.828125 56.984375 36.375 
Q 56.984375 17.96875 50.515625 8.265625 
Q 44.046875 -1.421875 31.78125 -1.421875 
Q 19.53125 -1.421875 13.0625 8.265625 
Q 6.59375 17.96875 6.59375 36.375 
Q 6.59375 54.828125 13.0625 64.515625 
Q 19.53125 74.21875 31.78125 74.21875 
z
" id="DejaVuSans-48"/>
        <path d="M 10.6875 12.40625 
L 21 12.40625 
L 21 0 
L 10.6875 0 
z
" id="DejaVuSans-46"/>
       </defs>
       <use xlink:href="#DejaVuSans-48"/>
       <use x="63.623047" xlink:href="#DejaVuSans-46"/>
       <use x="95.410156" xlink:href="#DejaVuSans-48"/>
      </g>
     </g>
    </g>
    <g id="xtick_2">
     <g id="line2d_2">
      <g>
       <use style="stroke:#000000;stroke-width:0.8;" x="90.305974" xlink:href="#mb3b9f1cda5" y="273.312"/>
      </g>
     </g>
     <g id="text_2">
      <!-- 2.5 -->
      <g transform="translate(82.354412 287.910437)scale(0.1 -0.1)">
       <defs>
        <path d="M 19.1875 8.296875 
L 53.609375 8.296875 
L 53.609375 0 
L 7.328125 0 
L 7.328125 8.296875 
Q 12.9375 14.109375 22.625 23.890625 
Q 32.328125 33.6875 34.8125 36.53125 
Q 39.546875 41.84375 41.421875 45.53125 
Q 43.3125 49.21875 43.3125 52.78125 
Q 43.3125 58.59375 39.234375 62.25 
Q 35.15625 65.921875 28.609375 65.921875 
Q 23.96875 65.921875 18.8125 64.3125 
Q 13.671875 62.703125 7.8125 59.421875 
L 7.8125 69.390625 
Q 13.765625 71.78125 18.9375 73 
Q 24.125 74.21875 28.421875 74.21875 
Q 39.75 74.21875 46.484375 68.546875 
Q 53.21875 62.890625 53.21875 53.421875 
Q 53.21875 48.921875 51.53125 44.890625 
Q 49.859375 40.875 45.40625 35.40625 
Q 44.1875 33.984375 37.640625 27.21875 
Q 31.109375 20.453125 19.1875 8.296875 
z
" id="DejaVuSans-50"/>
        <path d="M 10.796875 72.90625 
L 49.515625 72.90625 
L 49.515625 64.59375 
L 19.828125 64.59375 
L 19.828125 46.734375 
Q 21.96875 47.46875 24.109375 47.828125 
Q 26.265625 48.1875 28.421875 48.1875 
Q 40.625 48.1875 47.75 41.5 
Q 54.890625 34.8125 54.890625 23.390625 
Q 54.890625 11.625 47.5625 5.09375 
Q 40.234375 -1.421875 26.90625 -1.421875 
Q 22.3125 -1.421875 17.546875 -0.640625 
Q 12.796875 0.140625 7.71875 1.703125 
L 7.71875 11.625 
Q 12.109375 9.234375 16.796875 8.0625 
Q 21.484375 6.890625 26.703125 6.890625 
Q 35.15625 6.890625 40.078125 11.328125 
Q 45.015625 15.765625 45.015625 23.390625 
Q 45.015625 31 40.078125 35.4375 
Q 35.15625 39.890625 26.703125 39.890625 
Q 22.75 39.890625 18.8125 39.015625 
Q 14.890625 38.140625 10.796875 36.28125 
z
" id="DejaVuSans-53"/>
       </defs>
       <use xlink:href="#DejaVuSans-50"/>
       <use x="63.623047" xlink:href="#DejaVuSans-46"/>
       <use x="95.410156" xlink:href="#DejaVuSans-53"/>
      </g>
     </g>
    </g>
    <g id="xtick_3">
     <g id="line2d_3">
      <g>
       <use style="stroke:#000000;stroke-width:0.8;" x="131.091721" xlink:href="#mb3b9f1cda5" y="273.312"/>
      </g>
     </g>
     <g id="text_3">
      <!-- 5.0 -->
      <g transform="translate(123.140159 287.910437)scale(0.1 -0.1)">
       <use xlink:href="#DejaVuSans-53"/>
       <use x="63.623047" xlink:href="#DejaVuSans-46"/>
       <use x="95.410156" xlink:href="#DejaVuSans-48"/>
      </g>
     </g>
    </g>
    <g id="xtick_4">
     <g id="line2d_4">
      <g>
       <use style="stroke:#000000;stroke-width:0.8;" x="171.877468" xlink:href="#mb3b9f1cda5" y="273.312"/>
      </g>
     </g>
     <g id="text_4">
      <!-- 7.5 -->
      <g transform="translate(163.925906 287.910437)scale(0.1 -0.1)">
       <defs>
        <path d="M 8.203125 72.90625 
L 55.078125 72.90625 
L 55.078125 68.703125 
L 28.609375 0 
L 18.3125 0 
L 43.21875 64.59375 
L 8.203125 64.59375 
z
" id="DejaVuSans-55"/>
       </defs>
       <use xlink:href="#DejaVuSans-55"/>
       <use x="63.623047" xlink:href="#DejaVuSans-46"/>
       <use x="95.410156" xlink:href="#DejaVuSans-53"/>
      </g>
     </g>
    </g>
    <g id="xtick_5">
     <g id="line2d_5">
      <g>
       <use style="stroke:#000000;stroke-width:0.8;" x="212.663215" xlink:href="#mb3b9f1cda5" y="273.312"/>
      </g>
     </g>
     <g id="text_5">
      <!-- 10.0 -->
      <g transform="translate(201.530402 287.910437)scale(0.1 -0.1)">
       <defs>
        <path d="M 12.40625 8.296875 
L 28.515625 8.296875 
L 28.515625 63.921875 
L 10.984375 60.40625 
L 10.984375 69.390625 
L 28.421875 72.90625 
L 38.28125 72.90625 
L 38.28125 8.296875 
L 54.390625 8.296875 
L 54.390625 0 
L 12.40625 0 
z
" id="DejaVuSans-49"/>
       </defs>
       <use xlink:href="#DejaVuSans-49"/>
       <use x="63.623047" xlink:href="#DejaVuSans-48"/>
       <use x="127.246094" xlink:href="#DejaVuSans-46"/>
       <use x="159.033203" xlink:href="#DejaVuSans-48"/>
      </g>
     </g>
    </g>
    <g id="xtick_6">
     <g id="line2d_6">
      <g>
       <use style="stroke:#000000;stroke-width:0.8;" x="253.448962" xlink:href="#mb3b9f1cda5" y="273.312"/>
      </g>
     </g>
     <g id="text_6">
      <!-- 12.5 -->
      <g transform="translate(242.316149 287.910437)scale(0.1 -0.1)">
       <use xlink:href="#DejaVuSans-49"/>
       <use x="63.623047" xlink:href="#DejaVuSans-50"/>
       <use x="127.246094" xlink:href="#DejaVuSans-46"/>
       <use x="159.033203" xlink:href="#DejaVuSans-53"/>
      </g>
     </g>
    </g>
    <g id="xtick_7">
     <g id="line2d_7">
      <g>
       <use style="stroke:#000000;stroke-width:0.8;" x="294.234709" xlink:href="#mb3b9f1cda5" y="273.312"/>
      </g>
     </g>
     <g id="text_7">
      <!-- 15.0 -->
      <g transform="translate(283.101896 287.910437)scale(0.1 -0.1)">
       <use xlink:href="#DejaVuSans-49"/>
       <use x="63.623047" xlink:href="#DejaVuSans-53"/>
       <use x="127.246094" xlink:href="#DejaVuSans-46"/>
       <use x="159.033203" xlink:href="#DejaVuSans-48"/>
      </g>
     </g>
    </g>
    <g id="xtick_8">
     <g id="line2d_8">
      <g>
       <use style="stroke:#000000;stroke-width:0.8;" x="335.020456" xlink:href="#mb3b9f1cda5" y="273.312"/>
      </g>
     </g>
     <g id="text_8">
      <!-- 17.5 -->
      <g transform="translate(323.887643 287.910437)scale(0.1 -0.1)">
       <use xlink:href="#DejaVuSans-49"/>
       <use x="63.623047" xlink:href="#DejaVuSans-55"/>
       <use x="127.246094" xlink:href="#DejaVuSans-46"/>
       <use x="159.033203" xlink:href="#DejaVuSans-53"/>
      </g>
     </g>
    </g>
    <g id="xtick_9">
     <g id="line2d_9">
      <g>
       <use style="stroke:#000000;stroke-width:0.8;" x="375.806203" xlink:href="#mb3b9f1cda5" y="273.312"/>
      </g>
     </g>
     <g id="text_9">
      <!-- 20.0 -->
      <g transform="translate(364.67339 287.910437)scale(0.1 -0.1)">
       <use xlink:href="#DejaVuSans-50"/>
       <use x="63.623047" xlink:href="#DejaVuSans-48"/>
       <use x="127.246094" xlink:href="#DejaVuSans-46"/>
       <use x="159.033203" xlink:href="#DejaVuSans-48"/>
      </g>
     </g>
    </g>
   </g>
   <g id="matplotlib.axis_2">
    <g id="ytick_1">
     <g id="line2d_10">
      <defs>
       <path d="M 0 0 
L -3.5 0 
" id="mc89ec53126" style="stroke:#000000;stroke-width:0.8;"/>
      </defs>
      <g>
       <use style="stroke:#000000;stroke-width:0.8;" x="33.2875" xlink:href="#mc89ec53126" y="261.216"/>
      </g>
     </g>
     <g id="text_10">
      <!-- 0 -->
      <g transform="translate(19.925 265.015219)scale(0.1 -0.1)">
       <use xlink:href="#DejaVuSans-48"/>
      </g>
     </g>
    </g>
    <g id="ytick_2">
     <g id="line2d_11">
      <g>
       <use style="stroke:#000000;stroke-width:0.8;" x="33.2875" xlink:href="#mc89ec53126" y="220.073143"/>
      </g>
     </g>
     <g id="text_11">
      <!-- 50 -->
      <g transform="translate(13.5625 223.872362)scale(0.1 -0.1)">
       <use xlink:href="#DejaVuSans-53"/>
       <use x="63.623047" xlink:href="#DejaVuSans-48"/>
      </g>
     </g>
    </g>
    <g id="ytick_3">
     <g id="line2d_12">
      <g>
       <use style="stroke:#000000;stroke-width:0.8;" x="33.2875" xlink:href="#mc89ec53126" y="178.930286"/>
      </g>
     </g>
     <g id="text_12">
      <!-- 100 -->
      <g transform="translate(7.2 182.729504)scale(0.1 -0.1)">
       <use xlink:href="#DejaVuSans-49"/>
       <use x="63.623047" xlink:href="#DejaVuSans-48"/>
       <use x="127.246094" xlink:href="#DejaVuSans-48"/>
      </g>
     </g>
    </g>
    <g id="ytick_4">
     <g id="line2d_13">
      <g>
       <use style="stroke:#000000;stroke-width:0.8;" x="33.2875" xlink:href="#mc89ec53126" y="137.787429"/>
      </g>
     </g>
     <g id="text_13">
      <!-- 150 -->
      <g transform="translate(7.2 141.586647)scale(0.1 -0.1)">
       <use xlink:href="#DejaVuSans-49"/>
       <use x="63.623047" xlink:href="#DejaVuSans-53"/>
       <use x="127.246094" xlink:href="#DejaVuSans-48"/>
      </g>
     </g>
    </g>
    <g id="ytick_5">
     <g id="line2d_14">
      <g>
       <use style="stroke:#000000;stroke-width:0.8;" x="33.2875" xlink:href="#mc89ec53126" y="96.644571"/>
      </g>
     </g>
     <g id="text_14">
      <!-- 200 -->
      <g transform="translate(7.2 100.44379)scale(0.1 -0.1)">
       <use xlink:href="#DejaVuSans-50"/>
       <use x="63.623047" xlink:href="#DejaVuSans-48"/>
       <use x="127.246094" xlink:href="#DejaVuSans-48"/>
      </g>
     </g>
    </g>
    <g id="ytick_6">
     <g id="line2d_15">
      <g>
       <use style="stroke:#000000;stroke-width:0.8;" x="33.2875" xlink:href="#mc89ec53126" y="55.501714"/>
      </g>
     </g>
     <g id="text_15">
      <!-- 250 -->
      <g transform="translate(7.2 59.300933)scale(0.1 -0.1)">
       <use xlink:href="#DejaVuSans-50"/>
       <use x="63.623047" xlink:href="#DejaVuSans-53"/>
       <use x="127.246094" xlink:href="#DejaVuSans-48"/>
      </g>
     </g>
    </g>
    <g id="ytick_7">
     <g id="line2d_16">
      <g>
       <use style="stroke:#000000;stroke-width:0.8;" x="33.2875" xlink:href="#mc89ec53126" y="14.358857"/>
      </g>
     </g>
     <g id="text_16">
      <!-- 300 -->
      <g transform="translate(7.2 18.158076)scale(0.1 -0.1)">
       <defs>
        <path d="M 40.578125 39.3125 
Q 47.65625 37.796875 51.625 33 
Q 55.609375 28.21875 55.609375 21.1875 
Q 55.609375 10.40625 48.1875 4.484375 
Q 40.765625 -1.421875 27.09375 -1.421875 
Q 22.515625 -1.421875 17.65625 -0.515625 
Q 12.796875 0.390625 7.625 2.203125 
L 7.625 11.71875 
Q 11.71875 9.328125 16.59375 8.109375 
Q 21.484375 6.890625 26.8125 6.890625 
Q 36.078125 6.890625 40.9375 10.546875 
Q 45.796875 14.203125 45.796875 21.1875 
Q 45.796875 27.640625 41.28125 31.265625 
Q 36.765625 34.90625 28.71875 34.90625 
L 20.21875 34.90625 
L 20.21875 43.015625 
L 29.109375 43.015625 
Q 36.375 43.015625 40.234375 45.921875 
Q 44.09375 48.828125 44.09375 54.296875 
Q 44.09375 59.90625 40.109375 62.90625 
Q 36.140625 65.921875 28.71875 65.921875 
Q 24.65625 65.921875 20.015625 65.03125 
Q 15.375 64.15625 9.8125 62.3125 
L 9.8125 71.09375 
Q 15.4375 72.65625 20.34375 73.4375 
Q 25.25 74.21875 29.59375 74.21875 
Q 40.828125 74.21875 47.359375 69.109375 
Q 53.90625 64.015625 53.90625 55.328125 
Q 53.90625 49.265625 50.4375 45.09375 
Q 46.96875 40.921875 40.578125 39.3125 
z
" id="DejaVuSans-51"/>
       </defs>
       <use xlink:href="#DejaVuSans-51"/>
       <use x="63.623047" xlink:href="#DejaVuSans-48"/>
       <use x="127.246094" xlink:href="#DejaVuSans-48"/>
      </g>
     </g>
    </g>
   </g>
   <g id="line2d_17">
    <path clip-path="url(#p9ffa8e0acf)" d="M 49.520227 261.216 
L 53.598802 55.501714 
L 57.677377 55.501714 
L 61.755951 55.501714 
L 65.834526 55.501714 
L 69.913101 55.501714 
L 73.991675 55.501714 
L 78.07025 55.501714 
L 82.148825 55.501714 
L 86.227399 55.501714 
L 90.305974 55.501714 
L 94.384549 55.501714 
L 98.463124 55.501714 
L 102.541698 55.501714 
L 106.620273 55.501714 
L 110.698848 55.501714 
L 114.777422 55.501714 
L 118.855997 55.501714 
L 122.934572 55.501714 
L 127.013146 55.501714 
L 131.091721 55.501714 
L 135.170296 55.501714 
L 139.24887 55.501714 
L 143.327445 55.501714 
L 147.40602 55.501714 
L 151.484595 55.501714 
L 155.563169 55.501714 
L 159.641744 55.501714 
L 163.720319 55.501714 
L 167.798893 55.501714 
L 171.877468 55.501714 
L 175.956043 55.501714 
L 180.034617 55.501714 
L 184.113192 55.501714 
L 188.191767 55.501714 
L 192.270341 55.501714 
L 196.348916 55.501714 
L 200.427491 55.501714 
L 204.506066 55.501714 
L 208.58464 55.501714 
L 212.663215 55.501714 
L 216.74179 55.501714 
L 220.820364 55.501714 
L 224.898939 55.501714 
L 228.977514 55.501714 
L 233.056088 55.501714 
L 237.134663 55.501714 
L 241.213238 55.501714 
L 245.291812 55.501714 
L 249.370387 55.501714 
L 253.448962 55.501714 
L 257.527537 55.501714 
L 261.606111 55.501714 
L 265.684686 55.501714 
L 269.763261 55.501714 
L 273.841835 55.501714 
L 277.92041 55.501714 
L 281.998985 55.501714 
L 286.077559 55.501714 
L 290.156134 55.501714 
L 294.234709 55.501714 
L 298.313283 55.501714 
L 302.391858 55.501714 
L 306.470433 55.501714 
L 310.549008 55.501714 
L 314.627582 55.501714 
L 318.706157 55.501714 
L 322.784732 55.501714 
L 326.863306 55.501714 
L 330.941881 55.501714 
L 335.020456 55.501714 
L 339.09903 55.501714 
L 343.177605 55.501714 
L 347.25618 55.501714 
L 351.334754 55.501714 
L 355.413329 55.501714 
L 359.491904 55.501714 
L 363.570479 55.501714 
L 367.649053 55.501714 
L 371.727628 55.501714 
" style="fill:none;stroke:#1f77b4;stroke-linecap:square;stroke-width:1.5;"/>
   </g>
   <g id="line2d_18">
    <path clip-path="url(#p9ffa8e0acf)" d="M 49.520227 261.216 
L 53.598802 261.216 
L 57.677377 55.501714 
L 61.755951 55.501714 
L 65.834526 55.501714 
L 69.913101 55.501714 
L 73.991675 55.501714 
L 78.07025 55.501714 
L 82.148825 55.501714 
L 86.227399 55.501714 
L 90.305974 55.501714 
L 94.384549 55.501714 
L 98.463124 55.501714 
L 102.541698 55.501714 
L 106.620273 55.501714 
L 110.698848 55.501714 
L 114.777422 55.501714 
L 118.855997 55.501714 
L 122.934572 55.501714 
L 127.013146 55.501714 
L 131.091721 55.501714 
L 135.170296 55.501714 
L 139.24887 55.501714 
L 143.327445 55.501714 
L 147.40602 55.501714 
L 151.484595 55.501714 
L 155.563169 55.501714 
L 159.641744 55.501714 
L 163.720319 55.501714 
L 167.798893 55.501714 
L 171.877468 55.501714 
L 175.956043 55.501714 
L 180.034617 55.501714 
L 184.113192 55.501714 
L 188.191767 55.501714 
L 192.270341 55.501714 
L 196.348916 55.501714 
L 200.427491 55.501714 
L 204.506066 55.501714 
L 208.58464 55.501714 
L 212.663215 55.501714 
L 216.74179 55.501714 
L 220.820364 55.501714 
L 224.898939 55.501714 
L 228.977514 55.501714 
L 233.056088 55.501714 
L 237.134663 55.501714 
L 241.213238 55.501714 
L 245.291812 55.501714 
L 249.370387 55.501714 
L 253.448962 55.501714 
L 257.527537 55.501714 
L 261.606111 55.501714 
L 265.684686 55.501714 
L 269.763261 55.501714 
L 273.841835 55.501714 
L 277.92041 55.501714 
L 281.998985 55.501714 
L 286.077559 55.501714 
L 290.156134 55.501714 
L 294.234709 55.501714 
L 298.313283 55.501714 
L 302.391858 55.501714 
L 306.470433 55.501714 
L 310.549008 55.501714 
L 314.627582 55.501714 
L 318.706157 55.501714 
L 322.784732 55.501714 
L 326.863306 55.501714 
L 330.941881 55.501714 
L 335.020456 55.501714 
L 339.09903 55.501714 
L 343.177605 55.501714 
L 347.25618 55.501714 
L 351.334754 55.501714 
L 355.413329 55.501714 
L 359.491904 55.501714 
L 363.570479 55.501714 
L 367.649053 55.501714 
L 371.727628 55.501714 
" style="fill:none;stroke:#ff7f0e;stroke-linecap:square;stroke-width:1.5;"/>
   </g>
   <g id="line2d_19">
    <path clip-path="url(#p9ffa8e0acf)" d="M 49.520227 261.216 
L 51.151657 192.918857 
L 52.783087 148.484571 
L 54.414517 120.507429 
L 56.045947 101.581714 
L 57.677377 79.364571 
L 59.308807 66.198857 
L 60.940236 51.387429 
L 62.571666 73.604571 
L 64.203096 67.844571 
L 65.834526 69.490286 
L 67.465956 70.313143 
L 70.728816 57.147429 
L 72.360246 57.147429 
L 73.991675 60.438857 
L 75.623105 69.490286 
L 77.254535 71.136 
L 78.885965 64.553143 
L 80.517395 67.844571 
L 82.148825 51.387429 
L 83.780255 54.678857 
L 85.411685 54.678857 
L 87.043114 49.741714 
L 88.674544 52.210286 
L 90.305974 61.261714 
L 91.937404 61.261714 
L 93.568834 56.324571 
L 95.200264 56.324571 
L 96.831694 59.616 
L 98.463124 50.564571 
L 100.094553 45.627429 
L 101.725983 54.678857 
L 103.357413 61.261714 
L 104.988843 61.261714 
L 106.620273 57.147429 
L 108.251703 53.856 
L 109.883133 55.501714 
L 111.514563 58.793143 
L 113.145992 56.324571 
L 114.777422 58.793143 
L 116.408852 48.096 
L 118.040282 55.501714 
L 119.671712 59.616 
L 121.303142 71.136 
L 122.934572 73.604571 
L 124.566002 63.730286 
L 126.197431 64.553143 
L 127.828861 47.273143 
L 129.460291 60.438857 
L 131.091721 53.856 
L 132.723151 55.501714 
L 134.354581 50.564571 
L 135.986011 60.438857 
L 137.617441 55.501714 
L 139.24887 54.678857 
L 140.8803 51.387429 
L 142.51173 48.918857 
L 144.14316 64.553143 
L 147.40602 77.718857 
L 149.03745 69.490286 
L 150.66888 75.250286 
L 152.30031 73.604571 
L 153.931739 57.970286 
L 155.563169 43.981714 
L 157.194599 44.804571 
L 158.826029 48.918857 
L 160.457459 57.970286 
L 162.088889 64.553143 
L 163.720319 63.730286 
L 165.351749 68.667429 
L 166.983178 58.793143 
L 168.614608 43.981714 
L 170.246038 55.501714 
L 171.877468 59.616 
L 173.508898 53.033143 
L 175.140328 62.084571 
L 176.771758 58.793143 
L 178.403188 49.741714 
L 180.034617 41.513143 
L 181.666047 48.918857 
L 183.297477 53.033143 
L 184.928907 59.616 
L 189.823197 62.084571 
L 191.454627 72.781714 
L 193.086056 72.781714 
L 194.717486 64.553143 
L 196.348916 73.604571 
L 197.980346 62.907429 
L 199.611776 65.376 
L 201.243206 67.021714 
L 202.874636 67.844571 
L 204.506066 67.021714 
L 206.137495 65.376 
L 207.768925 70.313143 
L 209.400355 65.376 
L 211.031785 63.730286 
L 212.663215 63.730286 
L 214.294645 53.856 
L 215.926075 61.261714 
L 217.557505 62.907429 
L 219.188934 67.021714 
L 220.820364 56.324571 
L 222.451794 48.918857 
L 224.083224 52.210286 
L 225.714654 51.387429 
L 227.346084 55.501714 
L 228.977514 46.450286 
L 230.608944 46.450286 
L 232.240373 50.564571 
L 233.871803 62.084571 
L 235.503233 77.718857 
L 237.134663 67.844571 
L 238.766093 56.324571 
L 240.397523 64.553143 
L 242.028953 66.198857 
L 243.660383 54.678857 
L 245.291812 49.741714 
L 246.923242 52.210286 
L 248.554672 62.084571 
L 250.186102 49.741714 
L 251.817532 51.387429 
L 253.448962 46.450286 
L 255.080392 48.918857 
L 256.711822 44.804571 
L 258.343251 49.741714 
L 259.974681 48.096 
L 261.606111 47.273143 
L 263.237541 58.793143 
L 264.868971 58.793143 
L 266.500401 54.678857 
L 268.131831 54.678857 
L 269.763261 48.918857 
L 271.39469 49.741714 
L 273.02612 51.387429 
L 274.65755 53.856 
L 276.28898 45.627429 
L 277.92041 46.450286 
L 279.55184 45.627429 
L 281.18327 41.513143 
L 282.8147 39.044571 
L 284.44613 40.690286 
L 286.077559 47.273143 
L 287.708989 45.627429 
L 289.340419 44.804571 
L 290.971849 46.450286 
L 292.603279 39.867429 
L 294.234709 59.616 
L 295.866139 53.856 
L 297.497569 57.147429 
L 299.128998 55.501714 
L 300.760428 49.741714 
L 302.391858 44.804571 
L 304.023288 53.856 
L 305.654718 53.856 
L 307.286148 52.210286 
L 308.917578 60.438857 
L 310.549008 60.438857 
L 312.180437 49.741714 
L 313.811867 51.387429 
L 315.443297 55.501714 
L 317.074727 54.678857 
L 318.706157 48.918857 
L 320.337587 55.501714 
L 321.969017 65.376 
L 323.600447 62.084571 
L 325.231876 62.084571 
L 326.863306 56.324571 
L 328.494736 52.210286 
L 330.126166 53.033143 
L 331.757596 47.273143 
L 335.020456 50.564571 
L 336.651886 64.553143 
L 338.283315 69.490286 
L 339.914745 56.324571 
L 341.546175 57.970286 
L 343.177605 57.970286 
L 344.809035 63.730286 
L 346.440465 62.907429 
L 348.071895 62.907429 
L 349.703325 65.376 
L 351.334754 65.376 
L 352.966184 58.793143 
L 354.597614 57.147429 
L 356.229044 50.564571 
L 357.860474 48.096 
L 359.491904 54.678857 
L 361.123334 48.918857 
L 362.754764 51.387429 
L 364.386193 47.273143 
L 366.017623 44.804571 
L 367.649053 53.856 
L 369.280483 58.793143 
L 370.911913 61.261714 
L 372.543343 57.970286 
L 374.174773 56.324571 
L 374.174773 56.324571 
" style="fill:none;stroke:#2ca02c;stroke-linecap:square;stroke-width:1.5;"/>
   </g>
   <g id="line2d_20">
    <path clip-path="url(#p9ffa8e0acf)" d="M 49.520227 261.216 
L 51.151657 249.696 
L 52.783087 222.541714 
L 54.414517 192.096 
L 57.677377 142.724571 
L 59.308807 126.267429 
L 60.940236 118.861714 
L 62.571666 78.541714 
L 64.203096 82.656 
L 65.834526 81.010286 
L 67.465956 71.958857 
L 69.097386 64.553143 
L 70.728816 87.593143 
L 72.360246 72.781714 
L 73.991675 71.136 
L 75.623105 56.324571 
L 77.254535 48.096 
L 78.885965 62.084571 
L 80.517395 53.033143 
L 82.148825 59.616 
L 83.780255 58.793143 
L 85.411685 54.678857 
L 87.043114 66.198857 
L 88.674544 57.147429 
L 90.305974 49.741714 
L 91.937404 49.741714 
L 93.568834 64.553143 
L 95.200264 53.856 
L 96.831694 64.553143 
L 98.463124 76.896 
L 100.094553 81.010286 
L 101.725983 69.490286 
L 103.357413 69.490286 
L 104.988843 70.313143 
L 106.620273 75.250286 
L 108.251703 62.084571 
L 111.514563 73.604571 
L 113.145992 70.313143 
L 114.777422 64.553143 
L 116.408852 64.553143 
L 118.040282 45.627429 
L 119.671712 53.856 
L 122.934572 47.273143 
L 124.566002 57.970286 
L 126.197431 57.147429 
L 127.828861 65.376 
L 129.460291 56.324571 
L 131.091721 65.376 
L 132.723151 52.210286 
L 134.354581 58.793143 
L 135.986011 62.907429 
L 137.617441 69.490286 
L 139.24887 79.364571 
L 140.8803 81.010286 
L 142.51173 71.958857 
L 144.14316 49.741714 
L 145.77459 45.627429 
L 147.40602 30.816 
L 149.03745 45.627429 
L 150.66888 38.221714 
L 152.30031 44.804571 
L 153.931739 56.324571 
L 155.563169 78.541714 
L 157.194599 84.301714 
L 158.826029 77.718857 
L 160.457459 66.198857 
L 162.088889 60.438857 
L 163.720319 58.793143 
L 165.351749 49.741714 
L 166.983178 53.856 
L 168.614608 68.667429 
L 170.246038 49.741714 
L 171.877468 48.918857 
L 173.508898 59.616 
L 175.140328 49.741714 
L 176.771758 49.741714 
L 178.403188 61.261714 
L 180.034617 70.313143 
L 181.666047 63.730286 
L 183.297477 61.261714 
L 184.928907 47.273143 
L 186.560337 52.210286 
L 188.191767 55.501714 
L 189.823197 56.324571 
L 191.454627 41.513143 
L 193.086056 52.210286 
L 194.717486 64.553143 
L 196.348916 60.438857 
L 197.980346 79.364571 
L 199.611776 57.147429 
L 201.243206 60.438857 
L 202.874636 64.553143 
L 204.506066 62.084571 
L 206.137495 50.564571 
L 207.768925 40.690286 
L 209.400355 45.627429 
L 211.031785 44.804571 
L 212.663215 40.690286 
L 214.294645 49.741714 
L 215.926075 41.513143 
L 219.188934 39.867429 
L 220.820364 43.981714 
L 222.451794 42.336 
L 224.083224 54.678857 
L 225.714654 53.033143 
L 227.346084 64.553143 
L 228.977514 65.376 
L 230.608944 73.604571 
L 232.240373 54.678857 
L 233.871803 29.993143 
L 235.503233 19.296 
L 237.134663 50.564571 
L 238.766093 53.856 
L 240.397523 41.513143 
L 242.028953 47.273143 
L 243.660383 59.616 
L 245.291812 68.667429 
L 246.923242 69.490286 
L 248.554672 62.907429 
L 250.186102 59.616 
L 251.817532 68.667429 
L 253.448962 53.856 
L 255.080392 65.376 
L 256.711822 66.198857 
L 258.343251 54.678857 
L 259.974681 58.793143 
L 261.606111 57.147429 
L 263.237541 42.336 
L 264.868971 39.867429 
L 266.500401 52.210286 
L 268.131831 53.856 
L 269.763261 62.907429 
L 271.39469 67.021714 
L 273.02612 60.438857 
L 274.65755 53.033143 
L 276.28898 65.376 
L 277.92041 57.970286 
L 279.55184 53.033143 
L 281.18327 63.730286 
L 282.8147 67.844571 
L 284.44613 55.501714 
L 286.077559 52.210286 
L 287.708989 45.627429 
L 289.340419 54.678857 
L 290.971849 49.741714 
L 292.603279 52.210286 
L 294.234709 29.170286 
L 295.866139 43.981714 
L 297.497569 46.450286 
L 299.128998 49.741714 
L 300.760428 52.210286 
L 302.391858 64.553143 
L 304.023288 53.033143 
L 305.654718 62.907429 
L 307.286148 76.073143 
L 308.917578 46.450286 
L 310.549008 43.981714 
L 312.180437 64.553143 
L 313.811867 49.741714 
L 315.443297 50.564571 
L 317.074727 52.210286 
L 318.706157 62.907429 
L 321.969017 64.553143 
L 323.600447 68.667429 
L 325.231876 64.553143 
L 326.863306 76.896 
L 328.494736 65.376 
L 330.126166 60.438857 
L 331.757596 68.667429 
L 333.389026 57.970286 
L 335.020456 52.210286 
L 336.651886 44.804571 
L 338.283315 43.158857 
L 339.914745 56.324571 
L 341.546175 61.261714 
L 343.177605 57.970286 
L 344.809035 57.147429 
L 346.440465 62.084571 
L 348.071895 63.730286 
L 349.703325 62.084571 
L 351.334754 59.616 
L 352.966184 58.793143 
L 354.597614 56.324571 
L 356.229044 50.564571 
L 359.491904 47.273143 
L 361.123334 51.387429 
L 362.754764 57.970286 
L 364.386193 55.501714 
L 366.017623 57.970286 
L 367.649053 48.918857 
L 369.280483 52.210286 
L 370.911913 45.627429 
L 372.543343 61.261714 
L 374.174773 70.313143 
L 374.174773 70.313143 
" style="fill:none;stroke:#d62728;stroke-linecap:square;stroke-width:1.5;"/>
   </g>
   <g id="patch_3">
    <path d="M 33.2875 273.312 
L 33.2875 7.2 
" style="fill:none;stroke:#000000;stroke-linecap:square;stroke-linejoin:miter;stroke-width:0.8;"/>
   </g>
   <g id="patch_4">
    <path d="M 390.4075 273.312 
L 390.4075 7.2 
" style="fill:none;stroke:#000000;stroke-linecap:square;stroke-linejoin:miter;stroke-width:0.8;"/>
   </g>
   <g id="patch_5">
    <path d="M 33.2875 273.312 
L 390.4075 273.312 
" style="fill:none;stroke:#000000;stroke-linecap:square;stroke-linejoin:miter;stroke-width:0.8;"/>
   </g>
   <g id="patch_6">
    <path d="M 33.2875 7.2 
L 390.4075 7.2 
" style="fill:none;stroke:#000000;stroke-linecap:square;stroke-linejoin:miter;stroke-width:0.8;"/>
   </g>
  </g>
 </g>
 <defs>
  <clipPath id="p9ffa8e0acf">
   <rect height="266.112" width="357.12" x="33.2875" y="7.2"/>
  </clipPath>
 </defs>
</svg>
