<?xml version="1.0" encoding="utf-8" standalone="no"?>
<!DOCTYPE svg PUBLIC "-//W3C//DTD SVG 1.1//EN"
  "http://www.w3.org/Graphics/SVG/1.1/DTD/svg11.dtd">
<svg xmlns:xlink="http://www.w3.org/1999/xlink" width="403.97pt" height="297.190125pt" viewBox="0 0 403.97 297.190125" xmlns="http://www.w3.org/2000/svg" version="1.1">
 <metadata>
  <rdf:RDF xmlns:dc="http://purl.org/dc/elements/1.1/" xmlns:cc="http://creativecommons.org/ns#" xmlns:rdf="http://www.w3.org/1999/02/22-rdf-syntax-ns#">
   <cc:Work>
    <dc:type rdf:resource="http://purl.org/dc/dcmitype/StillImage"/>
    <dc:date>2025-02-17T12:42:10.969091</dc:date>
    <dc:format>image/svg+xml</dc:format>
    <dc:creator>
     <cc:Agent>
      <dc:title>Matplotlib v3.10.0, https://matplotlib.org/</dc:title>
     </cc:Agent>
    </dc:creator>
   </cc:Work>
  </rdf:RDF>
 </metadata>
 <defs>
  <style type="text/css">*{stroke-linejoin: round; stroke-linecap: butt}</style>
 </defs>
 <g id="figure_1">
  <g id="patch_1">
   <path d="M 0 297.190125 
L 403.97 297.190125 
L 403.97 0 
L 0 0 
z
" style="fill: #ffffff"/>
  </g>
  <g id="axes_1">
   <g id="patch_2">
    <path d="M 39.65 273.312 
L 396.77 273.312 
L 396.77 7.2 
L 39.65 7.2 
z
" style="fill: #ffffff"/>
   </g>
   <g id="matplotlib.axis_1">
    <g id="xtick_1">
     <g id="line2d_1">
      <defs>
       <path id="m5496b7ed45" d="M 0 0 
L 0 3.5 
" style="stroke: #000000; stroke-width: 0.8"/>
      </defs>
      <g>
       <use xlink:href="#m5496b7ed45" x="55.882727" y="273.312" style="stroke: #000000; stroke-width: 0.8"/>
      </g>
     </g>
     <g id="text_1">
      <!-- 0.0 -->
      <g transform="translate(47.931165 287.910437) scale(0.1 -0.1)">
       <defs>
        <path id="DejaVuSans-30" d="M 2034 4250 
Q 1547 4250 1301 3770 
Q 1056 3291 1056 2328 
Q 1056 1369 1301 889 
Q 1547 409 2034 409 
Q 2525 409 2770 889 
Q 3016 1369 3016 2328 
Q 3016 3291 2770 3770 
Q 2525 4250 2034 4250 
z
M 2034 4750 
Q 2819 4750 3233 4129 
Q 3647 3509 3647 2328 
Q 3647 1150 3233 529 
Q 2819 -91 2034 -91 
Q 1250 -91 836 529 
Q 422 1150 422 2328 
Q 422 3509 836 4129 
Q 1250 4750 2034 4750 
z
" transform="scale(0.015625)"/>
        <path id="DejaVuSans-2e" d="M 684 794 
L 1344 794 
L 1344 0 
L 684 0 
L 684 794 
z
" transform="scale(0.015625)"/>
       </defs>
       <use xlink:href="#DejaVuSans-30"/>
       <use xlink:href="#DejaVuSans-2e" transform="translate(63.623047 0)"/>
       <use xlink:href="#DejaVuSans-30" transform="translate(95.410156 0)"/>
      </g>
     </g>
    </g>
    <g id="xtick_2">
     <g id="line2d_2">
      <g>
       <use xlink:href="#m5496b7ed45" x="96.668474" y="273.312" style="stroke: #000000; stroke-width: 0.8"/>
      </g>
     </g>
     <g id="text_2">
      <!-- 2.5 -->
      <g transform="translate(88.716912 287.910437) scale(0.1 -0.1)">
       <defs>
        <path id="DejaVuSans-32" d="M 1228 531 
L 3431 531 
L 3431 0 
L 469 0 
L 469 531 
Q 828 903 1448 1529 
Q 2069 2156 2228 2338 
Q 2531 2678 2651 2914 
Q 2772 3150 2772 3378 
Q 2772 3750 2511 3984 
Q 2250 4219 1831 4219 
Q 1534 4219 1204 4116 
Q 875 4013 500 3803 
L 500 4441 
Q 881 4594 1212 4672 
Q 1544 4750 1819 4750 
Q 2544 4750 2975 4387 
Q 3406 4025 3406 3419 
Q 3406 3131 3298 2873 
Q 3191 2616 2906 2266 
Q 2828 2175 2409 1742 
Q 1991 1309 1228 531 
z
" transform="scale(0.015625)"/>
        <path id="DejaVuSans-35" d="M 691 4666 
L 3169 4666 
L 3169 4134 
L 1269 4134 
L 1269 2991 
Q 1406 3038 1543 3061 
Q 1681 3084 1819 3084 
Q 2600 3084 3056 2656 
Q 3513 2228 3513 1497 
Q 3513 744 3044 326 
Q 2575 -91 1722 -91 
Q 1428 -91 1123 -41 
Q 819 9 494 109 
L 494 744 
Q 775 591 1075 516 
Q 1375 441 1709 441 
Q 2250 441 2565 725 
Q 2881 1009 2881 1497 
Q 2881 1984 2565 2268 
Q 2250 2553 1709 2553 
Q 1456 2553 1204 2497 
Q 953 2441 691 2322 
L 691 4666 
z
" transform="scale(0.015625)"/>
       </defs>
       <use xlink:href="#DejaVuSans-32"/>
       <use xlink:href="#DejaVuSans-2e" transform="translate(63.623047 0)"/>
       <use xlink:href="#DejaVuSans-35" transform="translate(95.410156 0)"/>
      </g>
     </g>
    </g>
    <g id="xtick_3">
     <g id="line2d_3">
      <g>
       <use xlink:href="#m5496b7ed45" x="137.454221" y="273.312" style="stroke: #000000; stroke-width: 0.8"/>
      </g>
     </g>
     <g id="text_3">
      <!-- 5.0 -->
      <g transform="translate(129.502659 287.910437) scale(0.1 -0.1)">
       <use xlink:href="#DejaVuSans-35"/>
       <use xlink:href="#DejaVuSans-2e" transform="translate(63.623047 0)"/>
       <use xlink:href="#DejaVuSans-30" transform="translate(95.410156 0)"/>
      </g>
     </g>
    </g>
    <g id="xtick_4">
     <g id="line2d_4">
      <g>
       <use xlink:href="#m5496b7ed45" x="178.239968" y="273.312" style="stroke: #000000; stroke-width: 0.8"/>
      </g>
     </g>
     <g id="text_4">
      <!-- 7.5 -->
      <g transform="translate(170.288406 287.910437) scale(0.1 -0.1)">
       <defs>
        <path id="DejaVuSans-37" d="M 525 4666 
L 3525 4666 
L 3525 4397 
L 1831 0 
L 1172 0 
L 2766 4134 
L 525 4134 
L 525 4666 
z
" transform="scale(0.015625)"/>
       </defs>
       <use xlink:href="#DejaVuSans-37"/>
       <use xlink:href="#DejaVuSans-2e" transform="translate(63.623047 0)"/>
       <use xlink:href="#DejaVuSans-35" transform="translate(95.410156 0)"/>
      </g>
     </g>
    </g>
    <g id="xtick_5">
     <g id="line2d_5">
      <g>
       <use xlink:href="#m5496b7ed45" x="219.025715" y="273.312" style="stroke: #000000; stroke-width: 0.8"/>
      </g>
     </g>
     <g id="text_5">
      <!-- 10.0 -->
      <g transform="translate(207.892902 287.910437) scale(0.1 -0.1)">
       <defs>
        <path id="DejaVuSans-31" d="M 794 531 
L 1825 531 
L 1825 4091 
L 703 3866 
L 703 4441 
L 1819 4666 
L 2450 4666 
L 2450 531 
L 3481 531 
L 3481 0 
L 794 0 
L 794 531 
z
" transform="scale(0.015625)"/>
       </defs>
       <use xlink:href="#DejaVuSans-31"/>
       <use xlink:href="#DejaVuSans-30" transform="translate(63.623047 0)"/>
       <use xlink:href="#DejaVuSans-2e" transform="translate(127.246094 0)"/>
       <use xlink:href="#DejaVuSans-30" transform="translate(159.033203 0)"/>
      </g>
     </g>
    </g>
    <g id="xtick_6">
     <g id="line2d_6">
      <g>
       <use xlink:href="#m5496b7ed45" x="259.811462" y="273.312" style="stroke: #000000; stroke-width: 0.8"/>
      </g>
     </g>
     <g id="text_6">
      <!-- 12.5 -->
      <g transform="translate(248.678649 287.910437) scale(0.1 -0.1)">
       <use xlink:href="#DejaVuSans-31"/>
       <use xlink:href="#DejaVuSans-32" transform="translate(63.623047 0)"/>
       <use xlink:href="#DejaVuSans-2e" transform="translate(127.246094 0)"/>
       <use xlink:href="#DejaVuSans-35" transform="translate(159.033203 0)"/>
      </g>
     </g>
    </g>
    <g id="xtick_7">
     <g id="line2d_7">
      <g>
       <use xlink:href="#m5496b7ed45" x="300.597209" y="273.312" style="stroke: #000000; stroke-width: 0.8"/>
      </g>
     </g>
     <g id="text_7">
      <!-- 15.0 -->
      <g transform="translate(289.464396 287.910437) scale(0.1 -0.1)">
       <use xlink:href="#DejaVuSans-31"/>
       <use xlink:href="#DejaVuSans-35" transform="translate(63.623047 0)"/>
       <use xlink:href="#DejaVuSans-2e" transform="translate(127.246094 0)"/>
       <use xlink:href="#DejaVuSans-30" transform="translate(159.033203 0)"/>
      </g>
     </g>
    </g>
    <g id="xtick_8">
     <g id="line2d_8">
      <g>
       <use xlink:href="#m5496b7ed45" x="341.382956" y="273.312" style="stroke: #000000; stroke-width: 0.8"/>
      </g>
     </g>
     <g id="text_8">
      <!-- 17.5 -->
      <g transform="translate(330.250143 287.910437) scale(0.1 -0.1)">
       <use xlink:href="#DejaVuSans-31"/>
       <use xlink:href="#DejaVuSans-37" transform="translate(63.623047 0)"/>
       <use xlink:href="#DejaVuSans-2e" transform="translate(127.246094 0)"/>
       <use xlink:href="#DejaVuSans-35" transform="translate(159.033203 0)"/>
      </g>
     </g>
    </g>
    <g id="xtick_9">
     <g id="line2d_9">
      <g>
       <use xlink:href="#m5496b7ed45" x="382.168703" y="273.312" style="stroke: #000000; stroke-width: 0.8"/>
      </g>
     </g>
     <g id="text_9">
      <!-- 20.0 -->
      <g transform="translate(371.03589 287.910437) scale(0.1 -0.1)">
       <use xlink:href="#DejaVuSans-32"/>
       <use xlink:href="#DejaVuSans-30" transform="translate(63.623047 0)"/>
       <use xlink:href="#DejaVuSans-2e" transform="translate(127.246094 0)"/>
       <use xlink:href="#DejaVuSans-30" transform="translate(159.033203 0)"/>
      </g>
     </g>
    </g>
   </g>
   <g id="matplotlib.axis_2">
    <g id="ytick_1">
     <g id="line2d_10">
      <defs>
       <path id="mb9451e48a4" d="M 0 0 
L -3.5 0 
" style="stroke: #000000; stroke-width: 0.8"/>
      </defs>
      <g>
       <use xlink:href="#mb9451e48a4" x="39.65" y="261.216" style="stroke: #000000; stroke-width: 0.8"/>
      </g>
     </g>
     <g id="text_10">
      <!-- 0 -->
      <g transform="translate(26.2875 265.015219) scale(0.1 -0.1)">
       <use xlink:href="#DejaVuSans-30"/>
      </g>
     </g>
    </g>
    <g id="ytick_2">
     <g id="line2d_11">
      <g>
       <use xlink:href="#mb9451e48a4" x="39.65" y="221.321541" style="stroke: #000000; stroke-width: 0.8"/>
      </g>
     </g>
     <g id="text_11">
      <!-- 500 -->
      <g transform="translate(13.5625 225.12076) scale(0.1 -0.1)">
       <use xlink:href="#DejaVuSans-35"/>
       <use xlink:href="#DejaVuSans-30" transform="translate(63.623047 0)"/>
       <use xlink:href="#DejaVuSans-30" transform="translate(127.246094 0)"/>
      </g>
     </g>
    </g>
    <g id="ytick_3">
     <g id="line2d_12">
      <g>
       <use xlink:href="#mb9451e48a4" x="39.65" y="181.427082" style="stroke: #000000; stroke-width: 0.8"/>
      </g>
     </g>
     <g id="text_12">
      <!-- 1000 -->
      <g transform="translate(7.2 185.226301) scale(0.1 -0.1)">
       <use xlink:href="#DejaVuSans-31"/>
       <use xlink:href="#DejaVuSans-30" transform="translate(63.623047 0)"/>
       <use xlink:href="#DejaVuSans-30" transform="translate(127.246094 0)"/>
       <use xlink:href="#DejaVuSans-30" transform="translate(190.869141 0)"/>
      </g>
     </g>
    </g>
    <g id="ytick_4">
     <g id="line2d_13">
      <g>
       <use xlink:href="#mb9451e48a4" x="39.65" y="141.532623" style="stroke: #000000; stroke-width: 0.8"/>
      </g>
     </g>
     <g id="text_13">
      <!-- 1500 -->
      <g transform="translate(7.2 145.331841) scale(0.1 -0.1)">
       <use xlink:href="#DejaVuSans-31"/>
       <use xlink:href="#DejaVuSans-35" transform="translate(63.623047 0)"/>
       <use xlink:href="#DejaVuSans-30" transform="translate(127.246094 0)"/>
       <use xlink:href="#DejaVuSans-30" transform="translate(190.869141 0)"/>
      </g>
     </g>
    </g>
    <g id="ytick_5">
     <g id="line2d_14">
      <g>
       <use xlink:href="#mb9451e48a4" x="39.65" y="101.638164" style="stroke: #000000; stroke-width: 0.8"/>
      </g>
     </g>
     <g id="text_14">
      <!-- 2000 -->
      <g transform="translate(7.2 105.437382) scale(0.1 -0.1)">
       <use xlink:href="#DejaVuSans-32"/>
       <use xlink:href="#DejaVuSans-30" transform="translate(63.623047 0)"/>
       <use xlink:href="#DejaVuSans-30" transform="translate(127.246094 0)"/>
       <use xlink:href="#DejaVuSans-30" transform="translate(190.869141 0)"/>
      </g>
     </g>
    </g>
    <g id="ytick_6">
     <g id="line2d_15">
      <g>
       <use xlink:href="#mb9451e48a4" x="39.65" y="61.743704" style="stroke: #000000; stroke-width: 0.8"/>
      </g>
     </g>
     <g id="text_15">
      <!-- 2500 -->
      <g transform="translate(7.2 65.542923) scale(0.1 -0.1)">
       <use xlink:href="#DejaVuSans-32"/>
       <use xlink:href="#DejaVuSans-35" transform="translate(63.623047 0)"/>
       <use xlink:href="#DejaVuSans-30" transform="translate(127.246094 0)"/>
       <use xlink:href="#DejaVuSans-30" transform="translate(190.869141 0)"/>
      </g>
     </g>
    </g>
    <g id="ytick_7">
     <g id="line2d_16">
      <g>
       <use xlink:href="#mb9451e48a4" x="39.65" y="21.849245" style="stroke: #000000; stroke-width: 0.8"/>
      </g>
     </g>
     <g id="text_16">
      <!-- 3000 -->
      <g transform="translate(7.2 25.648464) scale(0.1 -0.1)">
       <defs>
        <path id="DejaVuSans-33" d="M 2597 2516 
Q 3050 2419 3304 2112 
Q 3559 1806 3559 1356 
Q 3559 666 3084 287 
Q 2609 -91 1734 -91 
Q 1441 -91 1130 -33 
Q 819 25 488 141 
L 488 750 
Q 750 597 1062 519 
Q 1375 441 1716 441 
Q 2309 441 2620 675 
Q 2931 909 2931 1356 
Q 2931 1769 2642 2001 
Q 2353 2234 1838 2234 
L 1294 2234 
L 1294 2753 
L 1863 2753 
Q 2328 2753 2575 2939 
Q 2822 3125 2822 3475 
Q 2822 3834 2567 4026 
Q 2313 4219 1838 4219 
Q 1578 4219 1281 4162 
Q 984 4106 628 3988 
L 628 4550 
Q 988 4650 1302 4700 
Q 1616 4750 1894 4750 
Q 2613 4750 3031 4423 
Q 3450 4097 3450 3541 
Q 3450 3153 3228 2886 
Q 3006 2619 2597 2516 
z
" transform="scale(0.015625)"/>
       </defs>
       <use xlink:href="#DejaVuSans-33"/>
       <use xlink:href="#DejaVuSans-30" transform="translate(63.623047 0)"/>
       <use xlink:href="#DejaVuSans-30" transform="translate(127.246094 0)"/>
       <use xlink:href="#DejaVuSans-30" transform="translate(190.869141 0)"/>
      </g>
     </g>
    </g>
   </g>
   <g id="line2d_17">
    <path d="M 55.882727 261.216 
L 59.961302 241.26877 
L 64.039877 222.983145 
L 68.118451 206.220712 
L 72.197026 190.85459 
L 76.275601 176.768466 
L 80.354175 163.855716 
L 84.43275 152.018598 
L 88.511325 141.167512 
L 92.589899 131.220322 
L 96.668474 122.101732 
L 100.747049 113.742721 
L 104.825624 106.080016 
L 108.904198 99.055614 
L 112.982773 92.616344 
L 117.061348 86.713466 
L 121.139922 81.302298 
L 125.218497 76.341879 
L 129.297072 71.794664 
L 133.375646 67.626232 
L 137.454221 63.80503 
L 141.532796 60.302134 
L 145.61137 57.09103 
L 149.689945 54.14741 
L 153.76852 51.448994 
L 157.847095 48.975356 
L 161.925669 46.707772 
L 166.004244 44.629078 
L 170.082819 42.723539 
L 174.161393 40.976732 
L 178.239968 39.375433 
L 182.318543 37.907523 
L 186.397117 36.561889 
L 190.475692 35.328347 
L 194.554267 34.197559 
L 198.632841 33.160966 
L 202.711416 32.210721 
L 206.789991 31.339631 
L 210.868566 30.541103 
L 214.94714 29.809092 
L 219.025715 29.138058 
L 223.10429 28.522921 
L 227.182864 27.959025 
L 231.261439 27.442101 
L 235.340014 26.968238 
L 239.418588 26.533847 
L 243.497163 26.135641 
L 247.575738 25.770605 
L 251.654312 25.435977 
L 255.732887 25.129223 
L 259.811462 24.848022 
L 263.890037 24.590245 
L 267.968611 24.353941 
L 272.047186 24.137321 
L 276.125761 23.938745 
L 280.204335 23.756711 
L 284.28291 23.58984 
L 288.361485 23.43687 
L 292.440059 23.296642 
L 296.518634 23.168095 
L 300.597209 23.050256 
L 304.675783 22.942233 
L 308.754358 22.843208 
L 312.832933 22.752432 
L 316.911508 22.669218 
L 320.990082 22.592935 
L 325.068657 22.523007 
L 329.147232 22.458904 
L 333.225806 22.40014 
L 337.304381 22.346272 
L 341.382956 22.296891 
L 345.46153 22.251623 
L 349.540105 22.210126 
L 353.61868 22.172086 
L 357.697254 22.137214 
L 361.775829 22.105247 
L 365.854404 22.075944 
L 369.932979 22.049081 
L 374.011553 22.024456 
L 378.090128 22.001882 
" clip-path="url(#p7f7cc43498)" style="fill: none; stroke: #1f77b4; stroke-width: 1.5; stroke-linecap: square"/>
   </g>
   <g id="line2d_18">
    <path d="M 55.882727 261.216 
L 59.961302 261.216 
L 64.039877 259.554396 
L 68.118451 256.646588 
L 72.197026 252.827202 
L 76.275601 248.364509 
L 80.354175 243.472373 
L 84.43275 238.320124 
L 88.511325 233.040723 
L 92.589899 227.737503 
L 96.668474 222.489728 
L 100.747049 217.357179 
L 104.825624 212.38392 
L 108.904198 207.601401 
L 112.982773 203.030994 
L 117.061348 198.686083 
L 121.139922 194.573759 
L 125.218497 190.696209 
L 129.297072 187.051844 
L 133.375646 183.636212 
L 137.454221 180.442735 
L 141.532796 177.463304 
L 145.61137 174.688754 
L 149.689945 172.109236 
L 153.76852 169.71452 
L 157.847095 167.494225 
L 161.925669 165.437999 
L 166.004244 163.535657 
L 170.082819 161.777279 
L 174.161393 160.153292 
L 178.239968 158.654514 
L 182.318543 157.272195 
L 186.397117 155.998031 
L 190.475692 154.824179 
L 194.554267 153.743254 
L 198.632841 152.748325 
L 202.711416 151.832902 
L 206.789991 150.990924 
L 210.868566 150.216743 
L 214.94714 149.5051 
L 219.025715 148.851112 
L 223.10429 148.250246 
L 227.182864 147.698304 
L 231.261439 147.191398 
L 235.340014 146.725933 
L 239.418588 146.298589 
L 243.497163 145.906298 
L 247.575738 145.546231 
L 251.654312 145.21578 
L 255.732887 144.912541 
L 259.811462 144.634299 
L 263.890037 144.379016 
L 267.968611 144.144816 
L 272.047186 143.929973 
L 276.125761 143.7329 
L 280.204335 143.552137 
L 284.28291 143.386344 
L 288.361485 143.234289 
L 292.440059 143.094838 
L 296.518634 142.966954 
L 300.597209 142.849679 
L 304.675783 142.742138 
L 308.754358 142.643526 
L 312.832933 142.553104 
L 316.911508 142.470194 
L 320.990082 142.394173 
L 325.068657 142.32447 
L 329.147232 142.260562 
L 333.225806 142.201967 
L 337.304381 142.148245 
L 341.382956 142.098992 
L 345.46153 142.053835 
L 349.540105 142.012435 
L 353.61868 141.97448 
L 357.697254 141.939684 
L 361.775829 141.907783 
L 365.854404 141.878537 
L 369.932979 141.851725 
L 374.011553 141.827145 
L 378.090128 141.804612 
" clip-path="url(#p7f7cc43498)" style="fill: none; stroke: #ff7f0e; stroke-width: 1.5; stroke-linecap: square"/>
   </g>
   <g id="line2d_19">
    <path d="M 55.882727 261.216 
L 57.514157 252.758375 
L 59.145587 246.056106 
L 60.777017 237.279325 
L 65.671307 213.26286 
L 67.302736 208.635103 
L 70.565596 195.948665 
L 72.197026 190.762385 
L 73.828456 184.778216 
L 75.459886 180.07067 
L 77.091316 174.086501 
L 78.722746 168.660855 
L 80.354175 162.517108 
L 83.617035 153.022227 
L 85.248465 147.756158 
L 86.879895 144.165657 
L 90.142755 136.426132 
L 93.405614 129.644074 
L 95.037044 124.697161 
L 96.668474 122.622649 
L 99.931334 115.521435 
L 101.562764 112.170301 
L 103.194194 109.617055 
L 104.825624 105.069087 
L 106.457053 101.558375 
L 111.351343 94.457161 
L 112.982773 92.622016 
L 114.614203 90.308137 
L 116.245633 89.111303 
L 117.877063 87.355947 
L 119.508492 84.722913 
L 121.139922 80.733467 
L 122.771352 78.898322 
L 124.402782 75.148243 
L 126.034212 72.515208 
L 127.665642 70.281119 
L 129.297072 69.642807 
L 130.928502 68.68534 
L 132.559931 66.850195 
L 134.191361 63.818216 
L 135.822791 62.302227 
L 137.454221 62.621383 
L 140.717081 61.264971 
L 142.348511 58.711726 
L 143.979941 58.552148 
L 147.2428 54.163757 
L 148.87423 52.328612 
L 150.50566 51.77009 
L 152.13709 50.972201 
L 153.76852 50.333889 
L 155.39995 50.892412 
L 157.03138 49.775367 
L 158.66281 48.897689 
L 163.557099 47.541277 
L 165.188529 46.663599 
L 166.819959 45.147609 
L 168.451389 45.945499 
L 170.082819 45.466765 
L 171.714249 43.551831 
L 173.345678 43.950776 
L 174.977108 43.232675 
L 176.608538 41.557108 
L 178.239968 42.91352 
L 179.871398 39.96133 
L 181.502828 40.67943 
L 183.134258 39.562385 
L 184.765688 40.440063 
L 186.397117 39.402807 
L 188.028547 37.886818 
L 189.659977 37.647451 
L 191.291407 36.450617 
L 192.922837 36.370828 
L 194.554267 37.567662 
L 196.185697 37.168718 
L 197.817127 36.131462 
L 199.448556 35.253784 
L 201.079986 34.615472 
L 202.711416 33.099483 
L 204.342846 32.939905 
L 205.974276 34.05695 
L 207.605706 33.737794 
L 209.237136 34.05695 
L 210.868566 34.854839 
L 212.499995 33.099483 
L 214.131425 34.216528 
L 215.762855 34.376106 
L 217.394285 31.902649 
L 219.025715 31.10476 
L 220.657145 32.221805 
L 222.288575 34.296317 
L 223.920005 33.019694 
L 225.551434 32.700538 
L 227.182864 33.259061 
L 228.814294 33.019694 
L 230.445724 33.977161 
L 232.077154 32.381383 
L 233.708584 32.620749 
L 235.340014 33.737794 
L 236.971444 34.615472 
L 238.602873 33.33885 
L 240.234303 33.897372 
L 243.497163 29.987715 
L 245.128593 29.030248 
L 246.760023 27.673836 
L 248.391453 27.035525 
L 250.022883 26.716369 
L 251.654312 27.115314 
L 253.285742 28.631303 
L 254.917172 30.865393 
L 256.548602 28.87067 
L 258.180032 28.072781 
L 259.811462 30.067504 
L 261.442892 30.546237 
L 263.074322 29.748348 
L 264.705751 29.748348 
L 266.337181 29.907926 
L 267.968611 29.030248 
L 269.600041 31.264338 
L 271.231471 29.110037 
L 272.862901 28.391937 
L 274.494331 26.397214 
L 276.125761 25.91848 
L 277.75719 27.43447 
L 279.38862 27.514259 
L 281.02005 28.631303 
L 282.65148 26.796158 
L 284.28291 26.157847 
L 285.91434 26.397214 
L 287.54577 26.477003 
L 290.80863 26.237636 
L 292.440059 26.556792 
L 294.071489 25.439747 
L 297.334349 25.519536 
L 298.965779 24.961013 
L 300.597209 25.120591 
L 302.228639 25.838691 
L 303.860069 26.955736 
L 305.491498 26.237636 
L 307.122928 25.679113 
L 308.754358 26.875947 
L 310.385788 25.679113 
L 312.017218 25.439747 
L 313.648648 26.955736 
L 315.280078 27.913203 
L 316.911508 27.274892 
L 318.542937 27.43447 
L 320.174367 27.115314 
L 323.437227 23.285446 
L 325.068657 23.923757 
L 326.700087 23.125868 
L 328.331517 24.562069 
L 329.962947 24.641858 
L 331.594376 23.843968 
L 333.225806 23.205657 
L 334.857236 24.083335 
L 336.488666 24.083335 
L 338.120096 25.519536 
L 339.751526 25.20038 
L 341.382956 22.647135 
L 343.014386 21.290723 
L 346.277245 21.131145 
L 347.908675 22.088612 
L 349.540105 20.811989 
L 351.171535 20.333256 
L 352.802965 19.615156 
L 354.434395 20.891778 
L 356.065825 20.572623 
L 357.697254 20.891778 
L 359.328684 19.296 
L 360.960114 19.296 
L 362.591544 19.774734 
L 364.222974 19.296 
L 365.854404 19.774734 
L 367.485834 20.971567 
L 369.117264 21.929034 
L 370.748693 21.131145 
L 372.380123 20.732201 
L 374.011553 21.051356 
L 375.642983 20.891778 
L 377.274413 21.53009 
L 378.905843 22.96629 
L 380.537273 21.450301 
L 380.537273 21.450301 
" clip-path="url(#p7f7cc43498)" style="fill: none; stroke: #2ca02c; stroke-width: 1.5; stroke-linecap: square"/>
   </g>
   <g id="line2d_20">
    <path d="M 55.882727 261.216 
L 57.514157 261.136211 
L 60.777017 260.418111 
L 62.408447 259.380855 
L 64.039877 258.104232 
L 65.671307 257.625499 
L 67.302736 255.949931 
L 68.934166 254.433942 
L 72.197026 250.444496 
L 73.828456 248.68914 
L 75.459886 246.534839 
L 77.091316 244.619905 
L 78.722746 243.024127 
L 80.354175 241.587926 
L 81.985605 239.11447 
L 83.617035 237.039958 
L 86.879895 231.933467 
L 88.511325 230.098322 
L 90.142755 227.864232 
L 91.774185 225.151409 
L 93.405614 223.316264 
L 95.037044 221.880063 
L 96.668474 218.927873 
L 98.299904 217.092728 
L 99.931334 214.77885 
L 101.562764 213.183071 
L 103.194194 210.869193 
L 104.825624 208.954259 
L 106.457053 208.07658 
L 108.088483 205.443546 
L 109.719913 205.204179 
L 111.351343 203.209456 
L 112.982773 200.975367 
L 114.614203 200.496633 
L 116.245633 199.060433 
L 117.877063 198.023177 
L 119.508492 196.108243 
L 124.402782 192.836897 
L 126.034212 190.602807 
L 127.665642 189.166607 
L 129.297072 187.49104 
L 130.928502 186.134628 
L 132.559931 185.576106 
L 134.191361 185.655894 
L 135.822791 183.820749 
L 137.454221 182.30476 
L 139.085651 181.347293 
L 140.717081 177.916369 
L 142.348511 177.198269 
L 143.979941 174.405657 
L 145.61137 174.16629 
L 147.2428 175.442913 
L 148.87423 174.405657 
L 150.50566 172.969456 
L 152.13709 171.134311 
L 153.76852 170.974734 
L 155.39995 169.139588 
L 157.03138 168.581066 
L 158.66281 166.666132 
L 160.294239 165.628876 
L 163.557099 162.836264 
L 165.188529 161.240485 
L 166.819959 161.080908 
L 168.451389 159.724496 
L 170.082819 160.681963 
L 171.714249 161.320274 
L 173.345678 161.240485 
L 174.977108 161.001119 
L 176.608538 162.038375 
L 178.239968 159.644707 
L 179.871398 159.724496 
L 181.502828 157.809562 
L 183.134258 157.091462 
L 184.765688 157.490406 
L 188.028547 157.410617 
L 189.659977 156.213784 
L 192.922837 155.336106 
L 194.554267 153.50096 
L 196.185697 153.022227 
L 197.817127 152.703071 
L 199.448556 151.586026 
L 201.079986 153.022227 
L 202.711416 151.825393 
L 204.342846 151.745604 
L 205.974276 149.750881 
L 207.605706 150.628559 
L 209.237136 149.671092 
L 210.868566 149.351937 
L 214.131425 149.272148 
L 215.762855 149.192359 
L 217.394285 149.990248 
L 219.025715 150.389193 
L 220.657145 150.070037 
L 222.288575 148.39447 
L 223.920005 148.952992 
L 225.551434 149.11257 
L 227.182864 150.389193 
L 228.814294 149.750881 
L 230.445724 147.277425 
L 232.077154 146.798691 
L 233.708584 147.038058 
L 235.340014 146.240169 
L 236.971444 144.405024 
L 238.602873 144.165657 
L 240.234303 143.20819 
L 241.865733 144.564602 
L 243.497163 144.963546 
L 245.128593 144.006079 
L 246.760023 145.681646 
L 248.391453 145.921013 
L 250.022883 145.761435 
L 251.654312 144.564602 
L 253.285742 143.686923 
L 254.917172 141.771989 
L 256.548602 143.128401 
L 258.180032 143.128401 
L 259.811462 142.170934 
L 261.442892 142.569879 
L 263.074322 143.128401 
L 264.705751 142.889034 
L 266.337181 142.410301 
L 267.968611 140.734734 
L 269.600041 139.218744 
L 271.231471 141.133678 
L 272.862901 142.649668 
L 274.494331 144.484813 
L 277.75719 143.686923 
L 279.38862 145.123124 
L 281.02005 143.048612 
L 282.65148 144.724179 
L 284.28291 145.841224 
L 287.54577 145.123124 
L 289.1772 144.564602 
L 292.440059 142.729456 
L 294.071489 143.287979 
L 295.702919 143.686923 
L 297.334349 142.250723 
L 298.965779 142.968823 
L 300.597209 142.49009 
L 302.228639 142.330512 
L 303.860069 142.809245 
L 305.491498 142.49009 
L 307.122928 141.851778 
L 308.754358 141.373045 
L 310.385788 142.091145 
L 312.017218 141.692201 
L 313.648648 140.256 
L 315.280078 140.335789 
L 316.911508 140.256 
L 318.542937 140.814522 
L 320.174367 142.410301 
L 321.805797 143.846501 
L 323.437227 145.601858 
L 325.068657 145.043335 
L 326.700087 145.601858 
L 328.331517 144.245446 
L 329.962947 144.405024 
L 331.594376 145.282702 
L 333.225806 145.601858 
L 334.857236 142.889034 
L 336.488666 142.170934 
L 338.120096 141.293256 
L 339.751526 143.048612 
L 341.382956 143.92629 
L 343.014386 143.128401 
L 344.645815 143.686923 
L 346.277245 144.644391 
L 347.908675 141.851778 
L 349.540105 141.612412 
L 351.171535 141.851778 
L 352.802965 140.894311 
L 354.434395 139.617689 
L 356.065825 139.617689 
L 357.697254 138.819799 
L 359.328684 140.495367 
L 360.960114 138.660222 
L 362.591544 140.335789 
L 364.222974 140.335789 
L 365.854404 141.931567 
L 367.485834 140.814522 
L 369.117264 141.532623 
L 370.748693 141.612412 
L 374.011553 142.649668 
L 375.642983 143.048612 
L 378.905843 141.452834 
L 380.537273 141.931567 
L 380.537273 141.931567 
" clip-path="url(#p7f7cc43498)" style="fill: none; stroke: #d62728; stroke-width: 1.5; stroke-linecap: square"/>
   </g>
   <g id="patch_3">
    <path d="M 39.65 273.312 
L 39.65 7.2 
" style="fill: none; stroke: #000000; stroke-width: 0.8; stroke-linejoin: miter; stroke-linecap: square"/>
   </g>
   <g id="patch_4">
    <path d="M 396.77 273.312 
L 396.77 7.2 
" style="fill: none; stroke: #000000; stroke-width: 0.8; stroke-linejoin: miter; stroke-linecap: square"/>
   </g>
   <g id="patch_5">
    <path d="M 39.65 273.312 
L 396.77 273.312 
" style="fill: none; stroke: #000000; stroke-width: 0.8; stroke-linejoin: miter; stroke-linecap: square"/>
   </g>
   <g id="patch_6">
    <path d="M 39.65 7.2 
L 396.77 7.2 
" style="fill: none; stroke: #000000; stroke-width: 0.8; stroke-linejoin: miter; stroke-linecap: square"/>
   </g>
  </g>
 </g>
 <defs>
  <clipPath id="p7f7cc43498">
   <rect x="39.65" y="7.2" width="357.12" height="266.112"/>
  </clipPath>
 </defs>
</svg>
