<?xml version="1.0" encoding="utf-8" standalone="no"?>
<!DOCTYPE svg PUBLIC "-//W3C//DTD SVG 1.1//EN"
  "http://www.w3.org/Graphics/SVG/1.1/DTD/svg11.dtd">
<!-- Created with matplotlib (https://matplotlib.org/) -->
<svg height="297.190125pt" version="1.1" viewBox="0 0 403.97 297.190125" width="403.97pt" xmlns="http://www.w3.org/2000/svg" xmlns:xlink="http://www.w3.org/1999/xlink">
 <metadata>
  <rdf:RDF xmlns:cc="http://creativecommons.org/ns#" xmlns:dc="http://purl.org/dc/elements/1.1/" xmlns:rdf="http://www.w3.org/1999/02/22-rdf-syntax-ns#">
   <cc:Work>
    <dc:type rdf:resource="http://purl.org/dc/dcmitype/StillImage"/>
    <dc:date>2020-09-11T07:47:50.613399</dc:date>
    <dc:format>image/svg+xml</dc:format>
    <dc:creator>
     <cc:Agent>
      <dc:title>Matplotlib v3.3.1, https://matplotlib.org/</dc:title>
     </cc:Agent>
    </dc:creator>
   </cc:Work>
  </rdf:RDF>
 </metadata>
 <defs>
  <style type="text/css">*{stroke-linecap:butt;stroke-linejoin:round;}</style>
 </defs>
 <g id="figure_1">
  <g id="patch_1">
   <path d="M 0 297.190125 
L 403.97 297.190125 
L 403.97 0 
L 0 0 
z
" style="fill:#ffffff;"/>
  </g>
  <g id="axes_1">
   <g id="patch_2">
    <path d="M 39.65 273.312 
L 396.77 273.312 
L 396.77 7.2 
L 39.65 7.2 
z
" style="fill:#ffffff;"/>
   </g>
   <g id="matplotlib.axis_1">
    <g id="xtick_1">
     <g id="line2d_1">
      <defs>
       <path d="M 0 0 
L 0 3.5 
" id="m711e6b6e4c" style="stroke:#000000;stroke-width:0.8;"/>
      </defs>
      <g>
       <use style="stroke:#000000;stroke-width:0.8;" x="55.882727" xlink:href="#m711e6b6e4c" y="273.312"/>
      </g>
     </g>
     <g id="text_1">
      <!-- 0.0 -->
      <g transform="translate(47.931165 287.910437)scale(0.1 -0.1)">
       <defs>
        <path d="M 31.78125 66.40625 
Q 24.171875 66.40625 20.328125 58.90625 
Q 16.5 51.421875 16.5 36.375 
Q 16.5 21.390625 20.328125 13.890625 
Q 24.171875 6.390625 31.78125 6.390625 
Q 39.453125 6.390625 43.28125 13.890625 
Q 47.125 21.390625 47.125 36.375 
Q 47.125 51.421875 43.28125 58.90625 
Q 39.453125 66.40625 31.78125 66.40625 
z
M 31.78125 74.21875 
Q 44.046875 74.21875 50.515625 64.515625 
Q 56.984375 54.828125 56.984375 36.375 
Q 56.984375 17.96875 50.515625 8.265625 
Q 44.046875 -1.421875 31.78125 -1.421875 
Q 19.53125 -1.421875 13.0625 8.265625 
Q 6.59375 17.96875 6.59375 36.375 
Q 6.59375 54.828125 13.0625 64.515625 
Q 19.53125 74.21875 31.78125 74.21875 
z
" id="DejaVuSans-48"/>
        <path d="M 10.6875 12.40625 
L 21 12.40625 
L 21 0 
L 10.6875 0 
z
" id="DejaVuSans-46"/>
       </defs>
       <use xlink:href="#DejaVuSans-48"/>
       <use x="63.623047" xlink:href="#DejaVuSans-46"/>
       <use x="95.410156" xlink:href="#DejaVuSans-48"/>
      </g>
     </g>
    </g>
    <g id="xtick_2">
     <g id="line2d_2">
      <g>
       <use style="stroke:#000000;stroke-width:0.8;" x="96.668474" xlink:href="#m711e6b6e4c" y="273.312"/>
      </g>
     </g>
     <g id="text_2">
      <!-- 2.5 -->
      <g transform="translate(88.716912 287.910437)scale(0.1 -0.1)">
       <defs>
        <path d="M 19.1875 8.296875 
L 53.609375 8.296875 
L 53.609375 0 
L 7.328125 0 
L 7.328125 8.296875 
Q 12.9375 14.109375 22.625 23.890625 
Q 32.328125 33.6875 34.8125 36.53125 
Q 39.546875 41.84375 41.421875 45.53125 
Q 43.3125 49.21875 43.3125 52.78125 
Q 43.3125 58.59375 39.234375 62.25 
Q 35.15625 65.921875 28.609375 65.921875 
Q 23.96875 65.921875 18.8125 64.3125 
Q 13.671875 62.703125 7.8125 59.421875 
L 7.8125 69.390625 
Q 13.765625 71.78125 18.9375 73 
Q 24.125 74.21875 28.421875 74.21875 
Q 39.75 74.21875 46.484375 68.546875 
Q 53.21875 62.890625 53.21875 53.421875 
Q 53.21875 48.921875 51.53125 44.890625 
Q 49.859375 40.875 45.40625 35.40625 
Q 44.1875 33.984375 37.640625 27.21875 
Q 31.109375 20.453125 19.1875 8.296875 
z
" id="DejaVuSans-50"/>
        <path d="M 10.796875 72.90625 
L 49.515625 72.90625 
L 49.515625 64.59375 
L 19.828125 64.59375 
L 19.828125 46.734375 
Q 21.96875 47.46875 24.109375 47.828125 
Q 26.265625 48.1875 28.421875 48.1875 
Q 40.625 48.1875 47.75 41.5 
Q 54.890625 34.8125 54.890625 23.390625 
Q 54.890625 11.625 47.5625 5.09375 
Q 40.234375 -1.421875 26.90625 -1.421875 
Q 22.3125 -1.421875 17.546875 -0.640625 
Q 12.796875 0.140625 7.71875 1.703125 
L 7.71875 11.625 
Q 12.109375 9.234375 16.796875 8.0625 
Q 21.484375 6.890625 26.703125 6.890625 
Q 35.15625 6.890625 40.078125 11.328125 
Q 45.015625 15.765625 45.015625 23.390625 
Q 45.015625 31 40.078125 35.4375 
Q 35.15625 39.890625 26.703125 39.890625 
Q 22.75 39.890625 18.8125 39.015625 
Q 14.890625 38.140625 10.796875 36.28125 
z
" id="DejaVuSans-53"/>
       </defs>
       <use xlink:href="#DejaVuSans-50"/>
       <use x="63.623047" xlink:href="#DejaVuSans-46"/>
       <use x="95.410156" xlink:href="#DejaVuSans-53"/>
      </g>
     </g>
    </g>
    <g id="xtick_3">
     <g id="line2d_3">
      <g>
       <use style="stroke:#000000;stroke-width:0.8;" x="137.454221" xlink:href="#m711e6b6e4c" y="273.312"/>
      </g>
     </g>
     <g id="text_3">
      <!-- 5.0 -->
      <g transform="translate(129.502659 287.910437)scale(0.1 -0.1)">
       <use xlink:href="#DejaVuSans-53"/>
       <use x="63.623047" xlink:href="#DejaVuSans-46"/>
       <use x="95.410156" xlink:href="#DejaVuSans-48"/>
      </g>
     </g>
    </g>
    <g id="xtick_4">
     <g id="line2d_4">
      <g>
       <use style="stroke:#000000;stroke-width:0.8;" x="178.239968" xlink:href="#m711e6b6e4c" y="273.312"/>
      </g>
     </g>
     <g id="text_4">
      <!-- 7.5 -->
      <g transform="translate(170.288406 287.910437)scale(0.1 -0.1)">
       <defs>
        <path d="M 8.203125 72.90625 
L 55.078125 72.90625 
L 55.078125 68.703125 
L 28.609375 0 
L 18.3125 0 
L 43.21875 64.59375 
L 8.203125 64.59375 
z
" id="DejaVuSans-55"/>
       </defs>
       <use xlink:href="#DejaVuSans-55"/>
       <use x="63.623047" xlink:href="#DejaVuSans-46"/>
       <use x="95.410156" xlink:href="#DejaVuSans-53"/>
      </g>
     </g>
    </g>
    <g id="xtick_5">
     <g id="line2d_5">
      <g>
       <use style="stroke:#000000;stroke-width:0.8;" x="219.025715" xlink:href="#m711e6b6e4c" y="273.312"/>
      </g>
     </g>
     <g id="text_5">
      <!-- 10.0 -->
      <g transform="translate(207.892902 287.910437)scale(0.1 -0.1)">
       <defs>
        <path d="M 12.40625 8.296875 
L 28.515625 8.296875 
L 28.515625 63.921875 
L 10.984375 60.40625 
L 10.984375 69.390625 
L 28.421875 72.90625 
L 38.28125 72.90625 
L 38.28125 8.296875 
L 54.390625 8.296875 
L 54.390625 0 
L 12.40625 0 
z
" id="DejaVuSans-49"/>
       </defs>
       <use xlink:href="#DejaVuSans-49"/>
       <use x="63.623047" xlink:href="#DejaVuSans-48"/>
       <use x="127.246094" xlink:href="#DejaVuSans-46"/>
       <use x="159.033203" xlink:href="#DejaVuSans-48"/>
      </g>
     </g>
    </g>
    <g id="xtick_6">
     <g id="line2d_6">
      <g>
       <use style="stroke:#000000;stroke-width:0.8;" x="259.811462" xlink:href="#m711e6b6e4c" y="273.312"/>
      </g>
     </g>
     <g id="text_6">
      <!-- 12.5 -->
      <g transform="translate(248.678649 287.910437)scale(0.1 -0.1)">
       <use xlink:href="#DejaVuSans-49"/>
       <use x="63.623047" xlink:href="#DejaVuSans-50"/>
       <use x="127.246094" xlink:href="#DejaVuSans-46"/>
       <use x="159.033203" xlink:href="#DejaVuSans-53"/>
      </g>
     </g>
    </g>
    <g id="xtick_7">
     <g id="line2d_7">
      <g>
       <use style="stroke:#000000;stroke-width:0.8;" x="300.597209" xlink:href="#m711e6b6e4c" y="273.312"/>
      </g>
     </g>
     <g id="text_7">
      <!-- 15.0 -->
      <g transform="translate(289.464396 287.910437)scale(0.1 -0.1)">
       <use xlink:href="#DejaVuSans-49"/>
       <use x="63.623047" xlink:href="#DejaVuSans-53"/>
       <use x="127.246094" xlink:href="#DejaVuSans-46"/>
       <use x="159.033203" xlink:href="#DejaVuSans-48"/>
      </g>
     </g>
    </g>
    <g id="xtick_8">
     <g id="line2d_8">
      <g>
       <use style="stroke:#000000;stroke-width:0.8;" x="341.382956" xlink:href="#m711e6b6e4c" y="273.312"/>
      </g>
     </g>
     <g id="text_8">
      <!-- 17.5 -->
      <g transform="translate(330.250143 287.910437)scale(0.1 -0.1)">
       <use xlink:href="#DejaVuSans-49"/>
       <use x="63.623047" xlink:href="#DejaVuSans-55"/>
       <use x="127.246094" xlink:href="#DejaVuSans-46"/>
       <use x="159.033203" xlink:href="#DejaVuSans-53"/>
      </g>
     </g>
    </g>
    <g id="xtick_9">
     <g id="line2d_9">
      <g>
       <use style="stroke:#000000;stroke-width:0.8;" x="382.168703" xlink:href="#m711e6b6e4c" y="273.312"/>
      </g>
     </g>
     <g id="text_9">
      <!-- 20.0 -->
      <g transform="translate(371.03589 287.910437)scale(0.1 -0.1)">
       <use xlink:href="#DejaVuSans-50"/>
       <use x="63.623047" xlink:href="#DejaVuSans-48"/>
       <use x="127.246094" xlink:href="#DejaVuSans-46"/>
       <use x="159.033203" xlink:href="#DejaVuSans-48"/>
      </g>
     </g>
    </g>
   </g>
   <g id="matplotlib.axis_2">
    <g id="ytick_1">
     <g id="line2d_10">
      <defs>
       <path d="M 0 0 
L -3.5 0 
" id="mb065035adc" style="stroke:#000000;stroke-width:0.8;"/>
      </defs>
      <g>
       <use style="stroke:#000000;stroke-width:0.8;" x="39.65" xlink:href="#mb065035adc" y="261.216"/>
      </g>
     </g>
     <g id="text_10">
      <!-- 0 -->
      <g transform="translate(26.2875 265.015219)scale(0.1 -0.1)">
       <use xlink:href="#DejaVuSans-48"/>
      </g>
     </g>
    </g>
    <g id="ytick_2">
     <g id="line2d_11">
      <g>
       <use style="stroke:#000000;stroke-width:0.8;" x="39.65" xlink:href="#mb065035adc" y="220.529824"/>
      </g>
     </g>
     <g id="text_11">
      <!-- 500 -->
      <g transform="translate(13.5625 224.329043)scale(0.1 -0.1)">
       <use xlink:href="#DejaVuSans-53"/>
       <use x="63.623047" xlink:href="#DejaVuSans-48"/>
       <use x="127.246094" xlink:href="#DejaVuSans-48"/>
      </g>
     </g>
    </g>
    <g id="ytick_3">
     <g id="line2d_12">
      <g>
       <use style="stroke:#000000;stroke-width:0.8;" x="39.65" xlink:href="#mb065035adc" y="179.843649"/>
      </g>
     </g>
     <g id="text_12">
      <!-- 1000 -->
      <g transform="translate(7.2 183.642868)scale(0.1 -0.1)">
       <use xlink:href="#DejaVuSans-49"/>
       <use x="63.623047" xlink:href="#DejaVuSans-48"/>
       <use x="127.246094" xlink:href="#DejaVuSans-48"/>
       <use x="190.869141" xlink:href="#DejaVuSans-48"/>
      </g>
     </g>
    </g>
    <g id="ytick_4">
     <g id="line2d_13">
      <g>
       <use style="stroke:#000000;stroke-width:0.8;" x="39.65" xlink:href="#mb065035adc" y="139.157473"/>
      </g>
     </g>
     <g id="text_13">
      <!-- 1500 -->
      <g transform="translate(7.2 142.956692)scale(0.1 -0.1)">
       <use xlink:href="#DejaVuSans-49"/>
       <use x="63.623047" xlink:href="#DejaVuSans-53"/>
       <use x="127.246094" xlink:href="#DejaVuSans-48"/>
       <use x="190.869141" xlink:href="#DejaVuSans-48"/>
      </g>
     </g>
    </g>
    <g id="ytick_5">
     <g id="line2d_14">
      <g>
       <use style="stroke:#000000;stroke-width:0.8;" x="39.65" xlink:href="#mb065035adc" y="98.471298"/>
      </g>
     </g>
     <g id="text_14">
      <!-- 2000 -->
      <g transform="translate(7.2 102.270516)scale(0.1 -0.1)">
       <use xlink:href="#DejaVuSans-50"/>
       <use x="63.623047" xlink:href="#DejaVuSans-48"/>
       <use x="127.246094" xlink:href="#DejaVuSans-48"/>
       <use x="190.869141" xlink:href="#DejaVuSans-48"/>
      </g>
     </g>
    </g>
    <g id="ytick_6">
     <g id="line2d_15">
      <g>
       <use style="stroke:#000000;stroke-width:0.8;" x="39.65" xlink:href="#mb065035adc" y="57.785122"/>
      </g>
     </g>
     <g id="text_15">
      <!-- 2500 -->
      <g transform="translate(7.2 61.584341)scale(0.1 -0.1)">
       <use xlink:href="#DejaVuSans-50"/>
       <use x="63.623047" xlink:href="#DejaVuSans-53"/>
       <use x="127.246094" xlink:href="#DejaVuSans-48"/>
       <use x="190.869141" xlink:href="#DejaVuSans-48"/>
      </g>
     </g>
    </g>
    <g id="ytick_7">
     <g id="line2d_16">
      <g>
       <use style="stroke:#000000;stroke-width:0.8;" x="39.65" xlink:href="#mb065035adc" y="17.098947"/>
      </g>
     </g>
     <g id="text_16">
      <!-- 3000 -->
      <g transform="translate(7.2 20.898165)scale(0.1 -0.1)">
       <defs>
        <path d="M 40.578125 39.3125 
Q 47.65625 37.796875 51.625 33 
Q 55.609375 28.21875 55.609375 21.1875 
Q 55.609375 10.40625 48.1875 4.484375 
Q 40.765625 -1.421875 27.09375 -1.421875 
Q 22.515625 -1.421875 17.65625 -0.515625 
Q 12.796875 0.390625 7.625 2.203125 
L 7.625 11.71875 
Q 11.71875 9.328125 16.59375 8.109375 
Q 21.484375 6.890625 26.8125 6.890625 
Q 36.078125 6.890625 40.9375 10.546875 
Q 45.796875 14.203125 45.796875 21.1875 
Q 45.796875 27.640625 41.28125 31.265625 
Q 36.765625 34.90625 28.71875 34.90625 
L 20.21875 34.90625 
L 20.21875 43.015625 
L 29.109375 43.015625 
Q 36.375 43.015625 40.234375 45.921875 
Q 44.09375 48.828125 44.09375 54.296875 
Q 44.09375 59.90625 40.109375 62.90625 
Q 36.140625 65.921875 28.71875 65.921875 
Q 24.65625 65.921875 20.015625 65.03125 
Q 15.375 64.15625 9.8125 62.3125 
L 9.8125 71.09375 
Q 15.4375 72.65625 20.34375 73.4375 
Q 25.25 74.21875 29.59375 74.21875 
Q 40.828125 74.21875 47.359375 69.109375 
Q 53.90625 64.015625 53.90625 55.328125 
Q 53.90625 49.265625 50.4375 45.09375 
Q 46.96875 40.921875 40.578125 39.3125 
z
" id="DejaVuSans-51"/>
       </defs>
       <use xlink:href="#DejaVuSans-51"/>
       <use x="63.623047" xlink:href="#DejaVuSans-48"/>
       <use x="127.246094" xlink:href="#DejaVuSans-48"/>
       <use x="190.869141" xlink:href="#DejaVuSans-48"/>
      </g>
     </g>
    </g>
   </g>
   <g id="line2d_17">
    <path clip-path="url(#pa26b7d262c)" d="M 55.882727 261.216 
L 59.961302 240.872912 
L 64.039877 222.490898 
L 68.118451 205.88091 
L 72.197026 190.872125 
L 76.275601 177.310187 
L 80.354175 165.055619 
L 84.43275 153.982392 
L 88.511325 143.976624 
L 92.589899 134.935412 
L 96.668474 126.765773 
L 100.747049 119.383687 
L 104.825624 112.713234 
L 108.904198 106.685813 
L 112.982773 101.239435 
L 117.061348 96.318088 
L 121.139922 91.871159 
L 125.218497 87.852914 
L 129.297072 84.222028 
L 133.375646 80.941159 
L 137.454221 77.976566 
L 141.532796 75.29776 
L 145.61137 72.87719 
L 149.689945 70.689964 
L 153.76852 68.713586 
L 157.847095 66.927731 
L 161.925669 65.314032 
L 166.004244 63.855894 
L 170.082819 62.53832 
L 174.161393 61.347761 
L 178.239968 60.271971 
L 182.318543 59.299888 
L 186.397117 58.421513 
L 190.475692 57.627814 
L 194.554267 56.910627 
L 198.632841 56.262578 
L 202.711416 55.677 
L 206.789991 55.147872 
L 210.868566 54.669751 
L 214.94714 54.237722 
L 219.025715 53.84734 
L 223.10429 53.494591 
L 227.182864 53.175847 
L 231.261439 52.88783 
L 235.340014 52.627578 
L 239.418588 52.392414 
L 243.497163 52.17992 
L 247.575738 51.98791 
L 251.654312 51.81441 
L 255.732887 51.657636 
L 259.811462 51.515974 
L 263.890037 51.387969 
L 267.968611 51.272303 
L 272.047186 51.167788 
L 276.125761 51.073348 
L 280.204335 50.988012 
L 284.28291 50.910902 
L 288.361485 50.841226 
L 292.440059 50.778266 
L 296.518634 50.721376 
L 300.597209 50.66997 
L 304.675783 50.623519 
L 308.754358 50.581547 
L 312.832933 50.54362 
L 316.911508 50.50935 
L 320.990082 50.478383 
L 325.068657 50.450402 
L 329.147232 50.425117 
L 333.225806 50.402271 
L 337.304381 50.381626 
L 341.382956 50.362972 
L 345.46153 50.346116 
L 349.540105 50.330885 
L 353.61868 50.317123 
L 357.697254 50.304687 
L 361.775829 50.293449 
L 365.854404 50.283296 
L 369.932979 50.27412 
L 374.011553 50.26583 
L 378.090128 50.258338 
" style="fill:none;stroke:#1f77b4;stroke-linecap:square;stroke-width:1.5;"/>
   </g>
   <g id="line2d_18">
    <path clip-path="url(#pa26b7d262c)" d="M 55.882727 261.216 
L 59.961302 261.216 
L 64.039877 259.254926 
L 68.118451 255.992876 
L 72.197026 251.913168 
L 76.275601 247.366559 
L 80.354175 242.604674 
L 84.43275 237.805254 
L 88.511325 233.091195 
L 92.589899 228.544898 
L 96.668474 224.219048 
L 100.747049 220.144714 
L 104.825624 216.337402 
L 108.904198 212.801574 
L 112.982773 209.534009 
L 117.061348 206.526283 
L 121.139922 203.766594 
L 125.218497 201.241099 
L 129.297072 198.934869 
L 133.375646 196.832577 
L 137.454221 194.918981 
L 141.532796 193.179243 
L 145.61137 191.599154 
L 149.689945 190.165259 
L 153.76852 188.864937 
L 157.847095 187.68643 
L 161.925669 186.618843 
L 166.004244 185.652131 
L 170.082819 184.777058 
L 174.161393 183.985163 
L 178.239968 183.268712 
L 182.318543 182.620646 
L 186.397117 182.034537 
L 190.475692 181.504536 
L 194.554267 181.025328 
L 198.632841 180.59209 
L 202.711416 180.200443 
L 206.789991 179.84642 
L 210.868566 179.526426 
L 214.94714 179.237203 
L 219.025715 178.975804 
L 223.10429 178.73956 
L 227.182864 178.526057 
L 231.261439 178.333111 
L 235.340014 178.158745 
L 239.418588 178.001174 
L 243.497163 177.858781 
L 247.575738 177.730107 
L 251.654312 177.613831 
L 255.732887 177.508759 
L 259.811462 177.413812 
L 263.890037 177.328015 
L 267.968611 177.250487 
L 272.047186 177.180431 
L 276.125761 177.117127 
L 280.204335 177.059924 
L 284.28291 177.008236 
L 288.361485 176.961529 
L 292.440059 176.919325 
L 296.518634 176.881189 
L 300.597209 176.846729 
L 304.675783 176.81559 
L 308.754358 176.787454 
L 312.832933 176.762029 
L 316.911508 176.739056 
L 320.990082 176.718296 
L 325.068657 176.699539 
L 329.147232 176.682589 
L 333.225806 176.667273 
L 337.304381 176.653434 
L 341.382956 176.640929 
L 345.46153 176.629629 
L 349.540105 176.619418 
L 353.61868 176.610192 
L 357.697254 176.601856 
L 361.775829 176.594322 
L 365.854404 176.587516 
L 369.932979 176.581365 
L 374.011553 176.575807 
L 378.090128 176.570785 
" style="fill:none;stroke:#ff7f0e;stroke-linecap:square;stroke-width:1.5;"/>
   </g>
   <g id="line2d_19">
    <path clip-path="url(#pa26b7d262c)" d="M 55.882727 261.216 
L 57.514157 252.834648 
L 68.934166 202.058301 
L 70.565596 196.443608 
L 72.197026 189.120097 
L 73.828456 184.156383 
L 75.459886 176.507382 
L 77.091316 169.590733 
L 78.722746 163.487806 
L 80.354175 159.500561 
L 81.985605 155.106454 
L 83.617035 149.735879 
L 85.248465 145.2604 
L 86.879895 139.320218 
L 88.511325 133.949643 
L 91.774185 127.358482 
L 93.405614 122.883003 
L 95.037044 119.383992 
L 96.668474 116.291843 
L 98.299904 112.467342 
L 99.931334 109.61931 
L 101.562764 107.340884 
L 103.194194 104.167362 
L 104.825624 102.784032 
L 106.457053 101.807564 
L 109.719913 96.274244 
L 112.982773 91.147786 
L 114.614203 87.730147 
L 116.245633 84.637998 
L 117.877063 82.929179 
L 119.508492 82.359572 
L 121.139922 80.162519 
L 122.771352 78.290955 
L 124.402782 74.791943 
L 127.665642 72.513518 
L 129.297072 69.014507 
L 130.928502 68.607645 
L 132.559931 66.654708 
L 135.822791 61.935112 
L 137.454221 60.958644 
L 139.085651 59.168452 
L 140.717081 56.890026 
L 142.348511 55.832186 
L 143.979941 56.564537 
L 145.61137 54.93709 
L 147.2428 51.763568 
L 148.87423 52.821409 
L 150.50566 51.275334 
L 152.13709 49.485142 
L 153.76852 49.973376 
L 155.39995 47.125344 
L 157.03138 47.043972 
L 158.66281 46.067504 
L 160.294239 46.555738 
L 161.925669 45.579269 
L 163.557099 45.416525 
L 165.188529 44.114567 
L 166.819959 41.592024 
L 168.451389 40.534184 
L 170.082819 40.127322 
L 171.714249 38.906737 
L 173.345678 36.221449 
L 174.977108 38.011641 
L 176.608538 36.872428 
L 178.239968 37.523407 
L 179.871398 37.604779 
L 181.502828 37.035173 
L 183.134258 37.360662 
L 184.765688 38.093013 
L 186.397117 38.093013 
L 188.028547 36.384194 
L 189.659977 35.082236 
L 191.291407 33.1293 
L 192.922837 34.268513 
L 194.554267 31.664597 
L 196.185697 32.071459 
L 197.817127 31.74597 
L 199.448556 31.74597 
L 201.079986 32.234204 
L 202.711416 32.152831 
L 204.342846 31.664597 
L 205.974276 32.396949 
L 207.605706 29.793033 
L 209.237136 29.548916 
L 210.868566 28.65382 
L 212.499995 25.724416 
L 214.131425 23.201873 
L 215.762855 24.341086 
L 217.394285 25.317554 
L 219.025715 26.538139 
L 220.657145 25.154809 
L 222.288575 24.178341 
L 223.920005 22.713639 
L 225.551434 23.120501 
L 227.182864 24.259713 
L 228.814294 26.700884 
L 230.445724 27.840097 
L 232.077154 26.782256 
L 233.708584 24.992065 
L 238.602873 23.690107 
L 240.234303 26.863629 
L 241.865733 26.375395 
L 243.497163 23.852852 
L 245.128593 22.957756 
L 246.760023 23.608735 
L 248.391453 24.585203 
L 250.022883 22.469522 
L 251.654312 22.144032 
L 253.285742 23.120501 
L 254.917172 24.422458 
L 256.548602 22.957756 
L 258.180032 21.167564 
L 259.811462 22.144032 
L 261.442892 23.771479 
L 263.074322 26.049905 
L 264.705751 27.59598 
L 266.337181 28.328331 
L 267.968611 28.084214 
L 269.600041 28.084214 
L 271.231471 27.351863 
L 272.862901 26.294022 
L 274.494331 26.700884 
L 276.125761 26.375395 
L 277.75719 26.782256 
L 279.38862 26.131277 
L 281.02005 27.351863 
L 282.65148 26.21265 
L 284.28291 26.863629 
L 285.91434 24.82932 
L 287.54577 23.608735 
L 289.1772 21.899915 
L 290.80863 22.550894 
L 292.440059 22.388149 
L 294.071489 21.899915 
L 295.702919 22.144032 
L 297.334349 20.67933 
L 298.965779 21.004819 
L 300.597209 21.981288 
L 302.228639 22.06266 
L 303.860069 23.364618 
L 305.491498 23.934224 
L 307.122928 23.934224 
L 308.754358 24.341086 
L 310.385788 25.561671 
L 312.017218 24.666575 
L 313.648648 22.876383 
L 315.280078 24.178341 
L 316.911508 22.469522 
L 318.542937 24.422458 
L 320.174367 25.724416 
L 323.437227 26.456767 
L 325.068657 25.317554 
L 326.700087 24.82932 
L 328.331517 24.50383 
L 329.962947 23.039128 
L 331.594376 25.154809 
L 333.225806 24.422458 
L 334.857236 26.131277 
L 336.488666 25.073437 
L 338.120096 24.259713 
L 339.751526 23.201873 
L 341.382956 22.957756 
L 343.014386 21.248936 
L 344.645815 20.272468 
L 346.277245 21.086192 
L 347.908675 21.248936 
L 349.540105 21.981288 
L 351.171535 23.039128 
L 352.802965 22.876383 
L 354.434395 23.201873 
L 356.065825 23.283245 
L 357.697254 21.248936 
L 359.328684 20.760702 
L 360.960114 19.784234 
L 362.591544 19.296 
L 364.222974 19.784234 
L 365.854404 19.865606 
L 367.485834 20.923447 
L 370.748693 20.923447 
L 372.380123 23.120501 
L 374.011553 23.44599 
L 375.642983 24.259713 
L 377.274413 22.632266 
L 378.905843 23.283245 
L 380.537273 20.760702 
L 380.537273 20.760702 
" style="fill:none;stroke:#2ca02c;stroke-linecap:square;stroke-width:1.5;"/>
   </g>
   <g id="line2d_20">
    <path clip-path="url(#pa26b7d262c)" d="M 55.882727 261.216 
L 57.514157 261.053255 
L 59.145587 260.727766 
L 60.777017 260.158159 
L 62.408447 258.612085 
L 64.039877 257.228755 
L 65.671307 256.415031 
L 67.302736 254.543467 
L 70.565596 252.671903 
L 72.197026 251.451318 
L 75.459886 248.115051 
L 77.091316 246.731721 
L 80.354175 241.686636 
L 81.985605 239.40821 
L 85.248465 236.071943 
L 86.879895 233.87489 
L 88.511325 232.003326 
L 90.142755 228.748432 
L 91.774185 226.388634 
L 93.405614 224.598442 
L 95.037044 221.831782 
L 96.668474 218.65826 
L 98.299904 216.705324 
L 99.931334 214.345526 
L 103.194194 210.276908 
L 104.825624 207.347504 
L 106.457053 204.743588 
L 109.719913 200.186737 
L 111.351343 198.722034 
L 112.982773 199.047524 
L 114.614203 199.535758 
L 116.245633 197.17596 
L 117.877063 195.223023 
L 119.508492 191.64264 
L 121.139922 190.015193 
L 122.771352 187.899512 
L 124.402782 186.841671 
L 126.034212 185.458341 
L 127.665642 183.34266 
L 129.297072 181.715213 
L 130.928502 180.413255 
L 132.559931 179.925021 
L 134.191361 180.331883 
L 135.822791 178.867181 
L 139.085651 175.124052 
L 140.717081 175.205425 
L 143.979941 171.543669 
L 145.61137 169.265243 
L 147.2428 168.695637 
L 148.87423 166.986817 
L 150.50566 167.637796 
L 152.13709 166.824073 
L 153.76852 164.138785 
L 155.39995 164.545647 
L 157.03138 164.220157 
L 158.66281 163.243689 
L 160.294239 161.453497 
L 161.925669 159.256444 
L 163.557099 157.873114 
L 165.188529 158.524093 
L 166.819959 157.303508 
L 168.451389 157.059391 
L 170.082819 155.838805 
L 171.714249 156.082922 
L 173.345678 155.676061 
L 174.977108 153.723124 
L 176.608538 154.292731 
L 178.239968 152.828028 
L 179.871398 154.455475 
L 181.502828 153.967241 
L 183.134258 152.990773 
L 184.765688 151.363326 
L 186.397117 149.573134 
L 188.028547 148.840783 
L 189.659977 148.352549 
L 191.291407 148.02706 
L 192.922837 147.945687 
L 194.554267 147.294708 
L 199.448556 144.446676 
L 201.079986 142.737857 
L 202.711416 142.575112 
L 204.342846 143.307463 
L 205.974276 145.016283 
L 207.605706 146.155495 
L 209.237136 145.179027 
L 210.868566 146.480985 
L 212.499995 146.480985 
L 214.131425 147.70157 
L 217.394285 146.155495 
L 219.025715 147.620198 
L 220.657145 146.399613 
L 222.288575 145.504517 
L 223.920005 145.911378 
L 225.551434 145.585889 
L 227.182864 144.283931 
L 228.814294 143.55158 
L 232.077154 143.307463 
L 233.708584 145.585889 
L 236.971444 145.911378 
L 238.602873 145.423144 
L 240.234303 143.063346 
L 241.865733 144.283931 
L 243.497163 144.446676 
L 245.128593 144.446676 
L 246.760023 143.226091 
L 248.391453 143.307463 
L 250.022883 144.772165 
L 253.285742 142.819229 
L 254.917172 141.435899 
L 256.548602 142.330995 
L 259.811462 141.435899 
L 261.442892 141.11041 
L 263.074322 139.238846 
L 264.705751 138.913356 
L 266.337181 137.774143 
L 267.968611 137.448654 
L 269.600041 136.309441 
L 271.231471 137.285909 
L 272.862901 138.913356 
L 274.494331 139.157473 
L 276.125761 138.099633 
L 277.75719 139.076101 
L 279.38862 138.669239 
L 281.02005 137.285909 
L 282.65148 137.692771 
L 284.28291 137.692771 
L 285.91434 138.181005 
L 287.54577 139.482963 
L 289.1772 141.598644 
L 290.80863 140.703548 
L 292.440059 142.249623 
L 294.071489 141.029037 
L 295.702919 140.215314 
L 297.334349 142.249623 
L 298.965779 142.16825 
L 300.597209 140.540803 
L 302.228639 140.540803 
L 303.860069 141.761388 
L 305.491498 140.459431 
L 307.122928 140.703548 
L 308.754358 141.11041 
L 310.385788 139.971197 
L 312.017218 139.238846 
L 313.648648 140.133941 
L 315.280078 138.831984 
L 316.911508 138.425122 
L 318.542937 138.34375 
L 320.174367 136.146696 
L 321.805797 137.611399 
L 323.437227 136.63493 
L 325.068657 136.797675 
L 326.700087 135.658462 
L 328.331517 136.146696 
L 329.962947 137.041792 
L 331.594376 136.065324 
L 333.225806 135.57709 
L 334.857236 134.437877 
L 336.488666 135.983952 
L 338.120096 135.821207 
L 339.751526 137.041792 
L 341.382956 137.448654 
L 343.014386 136.309441 
L 344.645815 140.378059 
L 346.277245 139.645707 
L 347.908675 139.971197 
L 349.540105 139.971197 
L 351.171535 139.076101 
L 352.802965 138.913356 
L 354.434395 138.34375 
L 356.065825 139.157473 
L 357.697254 138.669239 
L 359.328684 138.506494 
L 360.960114 139.808452 
L 362.591544 140.215314 
L 364.222974 139.564335 
L 365.854404 140.215314 
L 367.485834 140.703548 
L 369.117264 140.78492 
L 370.748693 141.029037 
L 372.380123 140.622176 
L 374.011553 140.052569 
L 375.642983 140.215314 
L 377.274413 141.598644 
L 378.905843 140.78492 
L 380.537273 141.761388 
L 380.537273 141.761388 
" style="fill:none;stroke:#d62728;stroke-linecap:square;stroke-width:1.5;"/>
   </g>
   <g id="patch_3">
    <path d="M 39.65 273.312 
L 39.65 7.2 
" style="fill:none;stroke:#000000;stroke-linecap:square;stroke-linejoin:miter;stroke-width:0.8;"/>
   </g>
   <g id="patch_4">
    <path d="M 396.77 273.312 
L 396.77 7.2 
" style="fill:none;stroke:#000000;stroke-linecap:square;stroke-linejoin:miter;stroke-width:0.8;"/>
   </g>
   <g id="patch_5">
    <path d="M 39.65 273.312 
L 396.77 273.312 
" style="fill:none;stroke:#000000;stroke-linecap:square;stroke-linejoin:miter;stroke-width:0.8;"/>
   </g>
   <g id="patch_6">
    <path d="M 39.65 7.2 
L 396.77 7.2 
" style="fill:none;stroke:#000000;stroke-linecap:square;stroke-linejoin:miter;stroke-width:0.8;"/>
   </g>
  </g>
 </g>
 <defs>
  <clipPath id="pa26b7d262c">
   <rect height="266.112" width="357.12" x="39.65" y="7.2"/>
  </clipPath>
 </defs>
</svg>
