<?xml version="1.0" encoding="utf-8" standalone="no"?>
<!DOCTYPE svg PUBLIC "-//W3C//DTD SVG 1.1//EN"
  "http://www.w3.org/Graphics/SVG/1.1/DTD/svg11.dtd">
<!-- Created with matplotlib (https://matplotlib.org/) -->
<svg height="297.235413pt" version="1.1" viewBox="0 0 397.6075 297.235413" width="397.6075pt" xmlns="http://www.w3.org/2000/svg" xmlns:xlink="http://www.w3.org/1999/xlink">
 <metadata>
  <rdf:RDF xmlns:cc="http://creativecommons.org/ns#" xmlns:dc="http://purl.org/dc/elements/1.1/" xmlns:rdf="http://www.w3.org/1999/02/22-rdf-syntax-ns#">
   <cc:Work>
    <dc:type rdf:resource="http://purl.org/dc/dcmitype/StillImage"/>
    <dc:date>2021-03-10T00:05:22.634832</dc:date>
    <dc:format>image/svg+xml</dc:format>
    <dc:creator>
     <cc:Agent>
      <dc:title>Matplotlib v3.3.4, https://matplotlib.org/</dc:title>
     </cc:Agent>
    </dc:creator>
   </cc:Work>
  </rdf:RDF>
 </metadata>
 <defs>
  <style type="text/css">*{stroke-linecap:butt;stroke-linejoin:round;}</style>
 </defs>
 <g id="figure_1">
  <g id="patch_1">
   <path d="M 0 297.235413 
L 397.6075 297.235413 
L 397.6075 0 
L 0 0 
z
" style="fill:#ffffff;"/>
  </g>
  <g id="axes_1">
   <g id="patch_2">
    <path d="M 33.2875 273.357288 
L 390.4075 273.357288 
L 390.4075 7.245288 
L 33.2875 7.245288 
z
" style="fill:#ffffff;"/>
   </g>
   <g id="matplotlib.axis_1">
    <g id="xtick_1">
     <g id="line2d_1">
      <defs>
       <path d="M 0 0 
L 0 3.5 
" id="mb59f0eb1dc" style="stroke:#000000;stroke-width:0.8;"/>
      </defs>
      <g>
       <use style="stroke:#000000;stroke-width:0.8;" x="49.520227" xlink:href="#mb59f0eb1dc" y="273.357288"/>
      </g>
     </g>
     <g id="text_1">
      <!-- 0.0 -->
      <g transform="translate(41.568665 287.955725)scale(0.1 -0.1)">
       <defs>
        <path d="M 31.78125 66.40625 
Q 24.171875 66.40625 20.328125 58.90625 
Q 16.5 51.421875 16.5 36.375 
Q 16.5 21.390625 20.328125 13.890625 
Q 24.171875 6.390625 31.78125 6.390625 
Q 39.453125 6.390625 43.28125 13.890625 
Q 47.125 21.390625 47.125 36.375 
Q 47.125 51.421875 43.28125 58.90625 
Q 39.453125 66.40625 31.78125 66.40625 
z
M 31.78125 74.21875 
Q 44.046875 74.21875 50.515625 64.515625 
Q 56.984375 54.828125 56.984375 36.375 
Q 56.984375 17.96875 50.515625 8.265625 
Q 44.046875 -1.421875 31.78125 -1.421875 
Q 19.53125 -1.421875 13.0625 8.265625 
Q 6.59375 17.96875 6.59375 36.375 
Q 6.59375 54.828125 13.0625 64.515625 
Q 19.53125 74.21875 31.78125 74.21875 
z
" id="DejaVuSans-48"/>
        <path d="M 10.6875 12.40625 
L 21 12.40625 
L 21 0 
L 10.6875 0 
z
" id="DejaVuSans-46"/>
       </defs>
       <use xlink:href="#DejaVuSans-48"/>
       <use x="63.623047" xlink:href="#DejaVuSans-46"/>
       <use x="95.410156" xlink:href="#DejaVuSans-48"/>
      </g>
     </g>
    </g>
    <g id="xtick_2">
     <g id="line2d_2">
      <g>
       <use style="stroke:#000000;stroke-width:0.8;" x="90.305974" xlink:href="#mb59f0eb1dc" y="273.357288"/>
      </g>
     </g>
     <g id="text_2">
      <!-- 2.5 -->
      <g transform="translate(82.354412 287.955725)scale(0.1 -0.1)">
       <defs>
        <path d="M 19.1875 8.296875 
L 53.609375 8.296875 
L 53.609375 0 
L 7.328125 0 
L 7.328125 8.296875 
Q 12.9375 14.109375 22.625 23.890625 
Q 32.328125 33.6875 34.8125 36.53125 
Q 39.546875 41.84375 41.421875 45.53125 
Q 43.3125 49.21875 43.3125 52.78125 
Q 43.3125 58.59375 39.234375 62.25 
Q 35.15625 65.921875 28.609375 65.921875 
Q 23.96875 65.921875 18.8125 64.3125 
Q 13.671875 62.703125 7.8125 59.421875 
L 7.8125 69.390625 
Q 13.765625 71.78125 18.9375 73 
Q 24.125 74.21875 28.421875 74.21875 
Q 39.75 74.21875 46.484375 68.546875 
Q 53.21875 62.890625 53.21875 53.421875 
Q 53.21875 48.921875 51.53125 44.890625 
Q 49.859375 40.875 45.40625 35.40625 
Q 44.1875 33.984375 37.640625 27.21875 
Q 31.109375 20.453125 19.1875 8.296875 
z
" id="DejaVuSans-50"/>
        <path d="M 10.796875 72.90625 
L 49.515625 72.90625 
L 49.515625 64.59375 
L 19.828125 64.59375 
L 19.828125 46.734375 
Q 21.96875 47.46875 24.109375 47.828125 
Q 26.265625 48.1875 28.421875 48.1875 
Q 40.625 48.1875 47.75 41.5 
Q 54.890625 34.8125 54.890625 23.390625 
Q 54.890625 11.625 47.5625 5.09375 
Q 40.234375 -1.421875 26.90625 -1.421875 
Q 22.3125 -1.421875 17.546875 -0.640625 
Q 12.796875 0.140625 7.71875 1.703125 
L 7.71875 11.625 
Q 12.109375 9.234375 16.796875 8.0625 
Q 21.484375 6.890625 26.703125 6.890625 
Q 35.15625 6.890625 40.078125 11.328125 
Q 45.015625 15.765625 45.015625 23.390625 
Q 45.015625 31 40.078125 35.4375 
Q 35.15625 39.890625 26.703125 39.890625 
Q 22.75 39.890625 18.8125 39.015625 
Q 14.890625 38.140625 10.796875 36.28125 
z
" id="DejaVuSans-53"/>
       </defs>
       <use xlink:href="#DejaVuSans-50"/>
       <use x="63.623047" xlink:href="#DejaVuSans-46"/>
       <use x="95.410156" xlink:href="#DejaVuSans-53"/>
      </g>
     </g>
    </g>
    <g id="xtick_3">
     <g id="line2d_3">
      <g>
       <use style="stroke:#000000;stroke-width:0.8;" x="131.091721" xlink:href="#mb59f0eb1dc" y="273.357288"/>
      </g>
     </g>
     <g id="text_3">
      <!-- 5.0 -->
      <g transform="translate(123.140159 287.955725)scale(0.1 -0.1)">
       <use xlink:href="#DejaVuSans-53"/>
       <use x="63.623047" xlink:href="#DejaVuSans-46"/>
       <use x="95.410156" xlink:href="#DejaVuSans-48"/>
      </g>
     </g>
    </g>
    <g id="xtick_4">
     <g id="line2d_4">
      <g>
       <use style="stroke:#000000;stroke-width:0.8;" x="171.877468" xlink:href="#mb59f0eb1dc" y="273.357288"/>
      </g>
     </g>
     <g id="text_4">
      <!-- 7.5 -->
      <g transform="translate(163.925906 287.955725)scale(0.1 -0.1)">
       <defs>
        <path d="M 8.203125 72.90625 
L 55.078125 72.90625 
L 55.078125 68.703125 
L 28.609375 0 
L 18.3125 0 
L 43.21875 64.59375 
L 8.203125 64.59375 
z
" id="DejaVuSans-55"/>
       </defs>
       <use xlink:href="#DejaVuSans-55"/>
       <use x="63.623047" xlink:href="#DejaVuSans-46"/>
       <use x="95.410156" xlink:href="#DejaVuSans-53"/>
      </g>
     </g>
    </g>
    <g id="xtick_5">
     <g id="line2d_5">
      <g>
       <use style="stroke:#000000;stroke-width:0.8;" x="212.663215" xlink:href="#mb59f0eb1dc" y="273.357288"/>
      </g>
     </g>
     <g id="text_5">
      <!-- 10.0 -->
      <g transform="translate(201.530402 287.955725)scale(0.1 -0.1)">
       <defs>
        <path d="M 12.40625 8.296875 
L 28.515625 8.296875 
L 28.515625 63.921875 
L 10.984375 60.40625 
L 10.984375 69.390625 
L 28.421875 72.90625 
L 38.28125 72.90625 
L 38.28125 8.296875 
L 54.390625 8.296875 
L 54.390625 0 
L 12.40625 0 
z
" id="DejaVuSans-49"/>
       </defs>
       <use xlink:href="#DejaVuSans-49"/>
       <use x="63.623047" xlink:href="#DejaVuSans-48"/>
       <use x="127.246094" xlink:href="#DejaVuSans-46"/>
       <use x="159.033203" xlink:href="#DejaVuSans-48"/>
      </g>
     </g>
    </g>
    <g id="xtick_6">
     <g id="line2d_6">
      <g>
       <use style="stroke:#000000;stroke-width:0.8;" x="253.448962" xlink:href="#mb59f0eb1dc" y="273.357288"/>
      </g>
     </g>
     <g id="text_6">
      <!-- 12.5 -->
      <g transform="translate(242.316149 287.955725)scale(0.1 -0.1)">
       <use xlink:href="#DejaVuSans-49"/>
       <use x="63.623047" xlink:href="#DejaVuSans-50"/>
       <use x="127.246094" xlink:href="#DejaVuSans-46"/>
       <use x="159.033203" xlink:href="#DejaVuSans-53"/>
      </g>
     </g>
    </g>
    <g id="xtick_7">
     <g id="line2d_7">
      <g>
       <use style="stroke:#000000;stroke-width:0.8;" x="294.234709" xlink:href="#mb59f0eb1dc" y="273.357288"/>
      </g>
     </g>
     <g id="text_7">
      <!-- 15.0 -->
      <g transform="translate(283.101896 287.955725)scale(0.1 -0.1)">
       <use xlink:href="#DejaVuSans-49"/>
       <use x="63.623047" xlink:href="#DejaVuSans-53"/>
       <use x="127.246094" xlink:href="#DejaVuSans-46"/>
       <use x="159.033203" xlink:href="#DejaVuSans-48"/>
      </g>
     </g>
    </g>
    <g id="xtick_8">
     <g id="line2d_8">
      <g>
       <use style="stroke:#000000;stroke-width:0.8;" x="335.020456" xlink:href="#mb59f0eb1dc" y="273.357288"/>
      </g>
     </g>
     <g id="text_8">
      <!-- 17.5 -->
      <g transform="translate(323.887643 287.955725)scale(0.1 -0.1)">
       <use xlink:href="#DejaVuSans-49"/>
       <use x="63.623047" xlink:href="#DejaVuSans-55"/>
       <use x="127.246094" xlink:href="#DejaVuSans-46"/>
       <use x="159.033203" xlink:href="#DejaVuSans-53"/>
      </g>
     </g>
    </g>
    <g id="xtick_9">
     <g id="line2d_9">
      <g>
       <use style="stroke:#000000;stroke-width:0.8;" x="375.806203" xlink:href="#mb59f0eb1dc" y="273.357288"/>
      </g>
     </g>
     <g id="text_9">
      <!-- 20.0 -->
      <g transform="translate(364.67339 287.955725)scale(0.1 -0.1)">
       <use xlink:href="#DejaVuSans-50"/>
       <use x="63.623047" xlink:href="#DejaVuSans-48"/>
       <use x="127.246094" xlink:href="#DejaVuSans-46"/>
       <use x="159.033203" xlink:href="#DejaVuSans-48"/>
      </g>
     </g>
    </g>
   </g>
   <g id="matplotlib.axis_2">
    <g id="ytick_1">
     <g id="line2d_10">
      <defs>
       <path d="M 0 0 
L -3.5 0 
" id="m372bad359a" style="stroke:#000000;stroke-width:0.8;"/>
      </defs>
      <g>
       <use style="stroke:#000000;stroke-width:0.8;" x="33.2875" xlink:href="#m372bad359a" y="261.261288"/>
      </g>
     </g>
     <g id="text_10">
      <!-- 0 -->
      <g transform="translate(19.925 265.060506)scale(0.1 -0.1)">
       <use xlink:href="#DejaVuSans-48"/>
      </g>
     </g>
    </g>
    <g id="ytick_2">
     <g id="line2d_11">
      <g>
       <use style="stroke:#000000;stroke-width:0.8;" x="33.2875" xlink:href="#m372bad359a" y="219.550943"/>
      </g>
     </g>
     <g id="text_11">
      <!-- 50 -->
      <g transform="translate(13.5625 223.350162)scale(0.1 -0.1)">
       <use xlink:href="#DejaVuSans-53"/>
       <use x="63.623047" xlink:href="#DejaVuSans-48"/>
      </g>
     </g>
    </g>
    <g id="ytick_3">
     <g id="line2d_12">
      <g>
       <use style="stroke:#000000;stroke-width:0.8;" x="33.2875" xlink:href="#m372bad359a" y="177.840598"/>
      </g>
     </g>
     <g id="text_12">
      <!-- 100 -->
      <g transform="translate(7.2 181.639817)scale(0.1 -0.1)">
       <use xlink:href="#DejaVuSans-49"/>
       <use x="63.623047" xlink:href="#DejaVuSans-48"/>
       <use x="127.246094" xlink:href="#DejaVuSans-48"/>
      </g>
     </g>
    </g>
    <g id="ytick_4">
     <g id="line2d_13">
      <g>
       <use style="stroke:#000000;stroke-width:0.8;" x="33.2875" xlink:href="#m372bad359a" y="136.130253"/>
      </g>
     </g>
     <g id="text_13">
      <!-- 150 -->
      <g transform="translate(7.2 139.929472)scale(0.1 -0.1)">
       <use xlink:href="#DejaVuSans-49"/>
       <use x="63.623047" xlink:href="#DejaVuSans-53"/>
       <use x="127.246094" xlink:href="#DejaVuSans-48"/>
      </g>
     </g>
    </g>
    <g id="ytick_5">
     <g id="line2d_14">
      <g>
       <use style="stroke:#000000;stroke-width:0.8;" x="33.2875" xlink:href="#m372bad359a" y="94.419908"/>
      </g>
     </g>
     <g id="text_14">
      <!-- 200 -->
      <g transform="translate(7.2 98.219127)scale(0.1 -0.1)">
       <use xlink:href="#DejaVuSans-50"/>
       <use x="63.623047" xlink:href="#DejaVuSans-48"/>
       <use x="127.246094" xlink:href="#DejaVuSans-48"/>
      </g>
     </g>
    </g>
    <g id="ytick_6">
     <g id="line2d_15">
      <g>
       <use style="stroke:#000000;stroke-width:0.8;" x="33.2875" xlink:href="#m372bad359a" y="52.709564"/>
      </g>
     </g>
     <g id="text_15">
      <!-- 250 -->
      <g transform="translate(7.2 56.508782)scale(0.1 -0.1)">
       <use xlink:href="#DejaVuSans-50"/>
       <use x="63.623047" xlink:href="#DejaVuSans-53"/>
       <use x="127.246094" xlink:href="#DejaVuSans-48"/>
      </g>
     </g>
    </g>
    <g id="ytick_7">
     <g id="line2d_16">
      <g>
       <use style="stroke:#000000;stroke-width:0.8;" x="33.2875" xlink:href="#m372bad359a" y="10.999219"/>
      </g>
     </g>
     <g id="text_16">
      <!-- 300 -->
      <g transform="translate(7.2 14.798437)scale(0.1 -0.1)">
       <defs>
        <path d="M 40.578125 39.3125 
Q 47.65625 37.796875 51.625 33 
Q 55.609375 28.21875 55.609375 21.1875 
Q 55.609375 10.40625 48.1875 4.484375 
Q 40.765625 -1.421875 27.09375 -1.421875 
Q 22.515625 -1.421875 17.65625 -0.515625 
Q 12.796875 0.390625 7.625 2.203125 
L 7.625 11.71875 
Q 11.71875 9.328125 16.59375 8.109375 
Q 21.484375 6.890625 26.8125 6.890625 
Q 36.078125 6.890625 40.9375 10.546875 
Q 45.796875 14.203125 45.796875 21.1875 
Q 45.796875 27.640625 41.28125 31.265625 
Q 36.765625 34.90625 28.71875 34.90625 
L 20.21875 34.90625 
L 20.21875 43.015625 
L 29.109375 43.015625 
Q 36.375 43.015625 40.234375 45.921875 
Q 44.09375 48.828125 44.09375 54.296875 
Q 44.09375 59.90625 40.109375 62.90625 
Q 36.140625 65.921875 28.71875 65.921875 
Q 24.65625 65.921875 20.015625 65.03125 
Q 15.375 64.15625 9.8125 62.3125 
L 9.8125 71.09375 
Q 15.4375 72.65625 20.34375 73.4375 
Q 25.25 74.21875 29.59375 74.21875 
Q 40.828125 74.21875 47.359375 69.109375 
Q 53.90625 64.015625 53.90625 55.328125 
Q 53.90625 49.265625 50.4375 45.09375 
Q 46.96875 40.921875 40.578125 39.3125 
z
" id="DejaVuSans-51"/>
       </defs>
       <use xlink:href="#DejaVuSans-51"/>
       <use x="63.623047" xlink:href="#DejaVuSans-48"/>
       <use x="127.246094" xlink:href="#DejaVuSans-48"/>
      </g>
     </g>
    </g>
   </g>
   <g id="line2d_17">
    <path clip-path="url(#p3655f0b550)" d="M 49.520227 261.261288 
L 53.598802 52.709564 
L 57.677377 52.709564 
L 61.755951 52.709564 
L 65.834526 52.709564 
L 69.913101 52.709564 
L 73.991675 52.709564 
L 78.07025 52.709564 
L 82.148825 52.709564 
L 86.227399 52.709564 
L 90.305974 52.709564 
L 94.384549 52.709564 
L 98.463124 52.709564 
L 102.541698 52.709564 
L 106.620273 52.709564 
L 110.698848 52.709564 
L 114.777422 52.709564 
L 118.855997 52.709564 
L 122.934572 52.709564 
L 127.013146 52.709564 
L 131.091721 52.709564 
L 135.170296 52.709564 
L 139.24887 52.709564 
L 143.327445 52.709564 
L 147.40602 52.709564 
L 151.484595 52.709564 
L 155.563169 52.709564 
L 159.641744 52.709564 
L 163.720319 52.709564 
L 167.798893 52.709564 
L 171.877468 52.709564 
L 175.956043 52.709564 
L 180.034617 52.709564 
L 184.113192 52.709564 
L 188.191767 52.709564 
L 192.270341 52.709564 
L 196.348916 52.709564 
L 200.427491 52.709564 
L 204.506066 52.709564 
L 208.58464 52.709564 
L 212.663215 52.709564 
L 216.74179 52.709564 
L 220.820364 52.709564 
L 224.898939 52.709564 
L 228.977514 52.709564 
L 233.056088 52.709564 
L 237.134663 52.709564 
L 241.213238 52.709564 
L 245.291812 52.709564 
L 249.370387 52.709564 
L 253.448962 52.709564 
L 257.527537 52.709564 
L 261.606111 52.709564 
L 265.684686 52.709564 
L 269.763261 52.709564 
L 273.841835 52.709564 
L 277.92041 52.709564 
L 281.998985 52.709564 
L 286.077559 52.709564 
L 290.156134 52.709564 
L 294.234709 52.709564 
L 298.313283 52.709564 
L 302.391858 52.709564 
L 306.470433 52.709564 
L 310.549008 52.709564 
L 314.627582 52.709564 
L 318.706157 52.709564 
L 322.784732 52.709564 
L 326.863306 52.709564 
L 330.941881 52.709564 
L 335.020456 52.709564 
L 339.09903 52.709564 
L 343.177605 52.709564 
L 347.25618 52.709564 
L 351.334754 52.709564 
L 355.413329 52.709564 
L 359.491904 52.709564 
L 363.570479 52.709564 
L 367.649053 52.709564 
L 371.727628 52.709564 
" style="fill:none;stroke:#1f77b4;stroke-linecap:square;stroke-width:1.5;"/>
   </g>
   <g id="line2d_18">
    <path clip-path="url(#p3655f0b550)" d="M 49.520227 261.261288 
L 53.598802 261.261288 
L 57.677377 52.709564 
L 61.755951 52.709564 
L 65.834526 52.709564 
L 69.913101 52.709564 
L 73.991675 52.709564 
L 78.07025 52.709564 
L 82.148825 52.709564 
L 86.227399 52.709564 
L 90.305974 52.709564 
L 94.384549 52.709564 
L 98.463124 52.709564 
L 102.541698 52.709564 
L 106.620273 52.709564 
L 110.698848 52.709564 
L 114.777422 52.709564 
L 118.855997 52.709564 
L 122.934572 52.709564 
L 127.013146 52.709564 
L 131.091721 52.709564 
L 135.170296 52.709564 
L 139.24887 52.709564 
L 143.327445 52.709564 
L 147.40602 52.709564 
L 151.484595 52.709564 
L 155.563169 52.709564 
L 159.641744 52.709564 
L 163.720319 52.709564 
L 167.798893 52.709564 
L 171.877468 52.709564 
L 175.956043 52.709564 
L 180.034617 52.709564 
L 184.113192 52.709564 
L 188.191767 52.709564 
L 192.270341 52.709564 
L 196.348916 52.709564 
L 200.427491 52.709564 
L 204.506066 52.709564 
L 208.58464 52.709564 
L 212.663215 52.709564 
L 216.74179 52.709564 
L 220.820364 52.709564 
L 224.898939 52.709564 
L 228.977514 52.709564 
L 233.056088 52.709564 
L 237.134663 52.709564 
L 241.213238 52.709564 
L 245.291812 52.709564 
L 249.370387 52.709564 
L 253.448962 52.709564 
L 257.527537 52.709564 
L 261.606111 52.709564 
L 265.684686 52.709564 
L 269.763261 52.709564 
L 273.841835 52.709564 
L 277.92041 52.709564 
L 281.998985 52.709564 
L 286.077559 52.709564 
L 290.156134 52.709564 
L 294.234709 52.709564 
L 298.313283 52.709564 
L 302.391858 52.709564 
L 306.470433 52.709564 
L 310.549008 52.709564 
L 314.627582 52.709564 
L 318.706157 52.709564 
L 322.784732 52.709564 
L 326.863306 52.709564 
L 330.941881 52.709564 
L 335.020456 52.709564 
L 339.09903 52.709564 
L 343.177605 52.709564 
L 347.25618 52.709564 
L 351.334754 52.709564 
L 355.413329 52.709564 
L 359.491904 52.709564 
L 363.570479 52.709564 
L 367.649053 52.709564 
L 371.727628 52.709564 
" style="fill:none;stroke:#ff7f0e;stroke-linecap:square;stroke-width:1.5;"/>
   </g>
   <g id="line2d_19">
    <path clip-path="url(#p3655f0b550)" d="M 49.520227 261.261288 
L 51.151657 187.851081 
L 52.783087 142.803908 
L 54.414517 111.104046 
L 56.045947 93.585702 
L 57.677377 74.398943 
L 59.308807 63.554253 
L 60.940236 67.725288 
L 62.571666 66.056874 
L 64.203096 56.046391 
L 65.834526 61.051633 
L 67.465956 51.875357 
L 70.728816 51.875357 
L 72.360246 46.870115 
L 73.991675 47.704322 
L 75.623105 51.875357 
L 77.254535 41.864874 
L 78.885965 56.046391 
L 80.517395 49.372736 
L 82.148825 44.367495 
L 83.780255 41.030667 
L 85.411685 29.35177 
L 87.043114 37.693839 
L 88.674544 44.367495 
L 91.937404 29.35177 
L 93.568834 31.854391 
L 95.200264 42.699081 
L 96.831694 52.709564 
L 98.463124 61.051633 
L 100.094553 61.051633 
L 101.725983 57.714805 
L 103.357413 61.885839 
L 104.988843 73.564736 
L 106.620273 53.54377 
L 108.251703 50.206943 
L 109.883133 47.704322 
L 111.514563 56.046391 
L 113.145992 51.04115 
L 114.777422 56.880598 
L 116.408852 53.54377 
L 118.040282 57.714805 
L 119.671712 42.699081 
L 121.303142 41.864874 
L 122.934572 42.699081 
L 124.566002 45.201702 
L 126.197431 51.04115 
L 127.828861 45.201702 
L 129.460291 38.528046 
L 131.091721 40.19646 
L 132.723151 43.533288 
L 134.354581 51.875357 
L 135.986011 41.030667 
L 137.617441 42.699081 
L 139.24887 47.704322 
L 140.8803 46.035908 
L 142.51173 36.025426 
L 145.77459 54.377977 
L 147.40602 55.212184 
L 149.03745 61.885839 
L 150.66888 49.372736 
L 152.30031 48.538529 
L 153.931739 56.046391 
L 155.563169 56.880598 
L 157.194599 66.056874 
L 158.826029 48.538529 
L 160.457459 51.875357 
L 162.088889 48.538529 
L 163.720319 64.38846 
L 165.351749 40.19646 
L 166.983178 35.191219 
L 168.614608 26.84915 
L 170.246038 40.19646 
L 171.877468 49.372736 
L 173.508898 54.377977 
L 175.140328 60.217426 
L 176.771758 48.538529 
L 178.403188 65.222667 
L 180.034617 66.056874 
L 181.666047 51.875357 
L 183.297477 55.212184 
L 184.928907 57.714805 
L 186.560337 52.709564 
L 188.191767 45.201702 
L 189.823197 43.533288 
L 191.454627 50.206943 
L 193.086056 50.206943 
L 196.348916 56.880598 
L 197.980346 56.880598 
L 199.611776 46.035908 
L 201.243206 54.377977 
L 202.874636 42.699081 
L 204.506066 44.367495 
L 206.137495 41.030667 
L 207.768925 46.870115 
L 209.400355 50.206943 
L 211.031785 49.372736 
L 212.663215 40.19646 
L 214.294645 42.699081 
L 215.926075 50.206943 
L 217.557505 49.372736 
L 219.188934 44.367495 
L 220.820364 45.201702 
L 222.451794 55.212184 
L 224.083224 45.201702 
L 225.714654 47.704322 
L 227.346084 41.864874 
L 228.977514 46.870115 
L 230.608944 59.383219 
L 232.240373 56.046391 
L 233.871803 56.046391 
L 235.503233 71.062115 
L 237.134663 61.885839 
L 238.766093 57.714805 
L 240.397523 45.201702 
L 242.028953 55.212184 
L 243.660383 53.54377 
L 245.291812 40.19646 
L 246.923242 51.04115 
L 248.554672 46.035908 
L 250.186102 49.372736 
L 251.817532 46.035908 
L 253.448962 50.206943 
L 255.080392 47.704322 
L 256.711822 53.54377 
L 258.343251 62.720046 
L 259.974681 51.04115 
L 261.606111 59.383219 
L 263.237541 61.051633 
L 264.868971 51.04115 
L 268.131831 51.04115 
L 269.763261 47.704322 
L 271.39469 46.870115 
L 273.02612 46.870115 
L 274.65755 51.875357 
L 276.28898 60.217426 
L 277.92041 74.398943 
L 279.55184 73.564736 
L 281.18327 59.383219 
L 282.8147 66.891081 
L 284.44613 64.38846 
L 286.077559 69.393702 
L 287.708989 59.383219 
L 289.340419 61.885839 
L 290.971849 51.04115 
L 292.603279 48.538529 
L 294.234709 61.051633 
L 295.866139 43.533288 
L 297.497569 41.030667 
L 299.128998 54.377977 
L 300.760428 49.372736 
L 302.391858 41.864874 
L 304.023288 42.699081 
L 305.654718 34.357012 
L 307.286148 30.185977 
L 308.917578 31.854391 
L 310.549008 27.683357 
L 312.180437 34.357012 
L 313.811867 44.367495 
L 315.443297 40.19646 
L 317.074727 55.212184 
L 318.706157 56.880598 
L 320.337587 56.046391 
L 321.969017 61.051633 
L 323.600447 61.885839 
L 325.231876 61.885839 
L 326.863306 65.222667 
L 328.494736 56.046391 
L 330.126166 57.714805 
L 331.757596 65.222667 
L 333.389026 64.38846 
L 335.020456 52.709564 
L 336.651886 44.367495 
L 338.283315 47.704322 
L 339.914745 34.357012 
L 341.546175 46.870115 
L 343.177605 48.538529 
L 344.809035 46.035908 
L 346.440465 42.699081 
L 348.071895 42.699081 
L 349.703325 45.201702 
L 351.334754 55.212184 
L 352.966184 53.54377 
L 354.597614 50.206943 
L 356.229044 51.875357 
L 357.860474 49.372736 
L 359.491904 51.875357 
L 361.123334 62.720046 
L 362.754764 64.38846 
L 364.386193 55.212184 
L 366.017623 57.714805 
L 367.649053 71.062115 
L 369.280483 66.891081 
L 370.911913 55.212184 
L 372.543343 51.04115 
L 374.174773 47.704322 
L 374.174773 47.704322 
" style="fill:none;stroke:#2ca02c;stroke-linecap:square;stroke-width:1.5;"/>
   </g>
   <g id="line2d_20">
    <path clip-path="url(#p3655f0b550)" d="M 49.520227 261.261288 
L 51.151657 253.753426 
L 52.783087 228.727219 
L 54.414517 192.856322 
L 56.045947 161.990667 
L 57.677377 136.96446 
L 59.308807 116.109288 
L 60.940236 92.751495 
L 62.571666 86.912046 
L 64.203096 79.404184 
L 65.834526 75.23315 
L 67.465956 56.046391 
L 69.097386 57.714805 
L 70.728816 52.709564 
L 72.360246 55.212184 
L 73.991675 38.528046 
L 75.623105 31.020184 
L 77.254535 41.030667 
L 78.885965 45.201702 
L 80.517395 46.870115 
L 82.148825 66.056874 
L 83.780255 51.875357 
L 85.411685 56.046391 
L 87.043114 57.714805 
L 88.674544 45.201702 
L 90.305974 53.54377 
L 91.937404 59.383219 
L 93.568834 54.377977 
L 95.200264 52.709564 
L 96.831694 41.030667 
L 98.463124 42.699081 
L 100.094553 51.875357 
L 101.725983 51.04115 
L 103.357413 51.875357 
L 104.988843 27.683357 
L 106.620273 58.549012 
L 108.251703 68.559495 
L 109.883133 48.538529 
L 111.514563 33.522805 
L 113.145992 48.538529 
L 114.777422 48.538529 
L 116.408852 36.859633 
L 118.040282 51.04115 
L 119.671712 71.896322 
L 121.303142 54.377977 
L 122.934572 47.704322 
L 124.566002 39.362253 
L 126.197431 33.522805 
L 127.828861 40.19646 
L 129.460291 45.201702 
L 131.091721 49.372736 
L 132.723151 38.528046 
L 134.354581 39.362253 
L 135.986011 44.367495 
L 137.617441 33.522805 
L 139.24887 42.699081 
L 140.8803 54.377977 
L 142.51173 67.725288 
L 144.14316 51.04115 
L 145.77459 46.035908 
L 147.40602 50.206943 
L 149.03745 39.362253 
L 150.66888 62.720046 
L 152.30031 68.559495 
L 153.931739 61.051633 
L 155.563169 51.04115 
L 157.194599 36.025426 
L 158.826029 56.046391 
L 160.457459 56.880598 
L 162.088889 66.056874 
L 163.720319 40.19646 
L 165.351749 50.206943 
L 166.983178 56.046391 
L 168.614608 71.896322 
L 170.246038 56.046391 
L 171.877468 37.693839 
L 173.508898 28.517564 
L 175.140328 38.528046 
L 176.771758 45.201702 
L 178.403188 48.538529 
L 180.034617 38.528046 
L 181.666047 58.549012 
L 183.297477 45.201702 
L 184.928907 44.367495 
L 186.560337 45.201702 
L 188.191767 58.549012 
L 189.823197 70.227908 
L 191.454627 59.383219 
L 193.086056 60.217426 
L 194.717486 59.383219 
L 196.348916 51.875357 
L 197.980346 55.212184 
L 199.611776 61.051633 
L 201.243206 60.217426 
L 202.874636 73.564736 
L 204.506066 76.067357 
L 206.137495 56.046391 
L 207.768925 50.206943 
L 209.400355 41.030667 
L 211.031785 42.699081 
L 212.663215 46.870115 
L 214.294645 36.859633 
L 215.926075 42.699081 
L 217.557505 43.533288 
L 219.188934 38.528046 
L 220.820364 53.54377 
L 222.451794 41.030667 
L 224.083224 44.367495 
L 225.714654 40.19646 
L 227.346084 30.185977 
L 228.977514 19.341288 
L 230.608944 20.175495 
L 232.240373 40.19646 
L 233.871803 54.377977 
L 235.503233 28.517564 
L 237.134663 51.04115 
L 238.766093 48.538529 
L 240.397523 70.227908 
L 242.028953 41.864874 
L 243.660383 46.035908 
L 245.291812 52.709564 
L 246.923242 47.704322 
L 248.554672 34.357012 
L 250.186102 32.688598 
L 251.817532 36.025426 
L 253.448962 47.704322 
L 255.080392 64.38846 
L 256.711822 59.383219 
L 258.343251 51.04115 
L 259.974681 49.372736 
L 261.606111 61.051633 
L 263.237541 46.035908 
L 264.868971 67.725288 
L 266.500401 61.885839 
L 268.131831 61.051633 
L 269.763261 61.885839 
L 271.39469 63.554253 
L 273.02612 64.38846 
L 274.65755 48.538529 
L 276.28898 51.04115 
L 277.92041 39.362253 
L 279.55184 56.880598 
L 281.18327 61.885839 
L 282.8147 57.714805 
L 284.44613 55.212184 
L 286.077559 43.533288 
L 287.708989 53.54377 
L 289.340419 59.383219 
L 290.971849 64.38846 
L 292.603279 66.891081 
L 294.234709 56.880598 
L 295.866139 76.067357 
L 297.497569 70.227908 
L 299.128998 72.730529 
L 300.760428 80.238391 
L 302.391858 83.575219 
L 304.023288 64.38846 
L 305.654718 61.051633 
L 307.286148 59.383219 
L 308.917578 46.035908 
L 310.549008 57.714805 
L 312.180437 44.367495 
L 313.811867 42.699081 
L 315.443297 50.206943 
L 317.074727 48.538529 
L 318.706157 56.880598 
L 320.337587 50.206943 
L 321.969017 45.201702 
L 323.600447 51.04115 
L 325.231876 62.720046 
L 326.863306 60.217426 
L 328.494736 85.243633 
L 330.126166 76.901564 
L 331.757596 49.372736 
L 333.389026 56.880598 
L 335.020456 75.23315 
L 336.651886 65.222667 
L 338.283315 66.056874 
L 339.914745 68.559495 
L 341.546175 58.549012 
L 343.177605 61.051633 
L 344.809035 54.377977 
L 348.071895 49.372736 
L 349.703325 36.859633 
L 351.334754 38.528046 
L 352.966184 37.693839 
L 356.229044 41.030667 
L 357.860474 45.201702 
L 359.491904 47.704322 
L 361.123334 33.522805 
L 362.754764 51.875357 
L 364.386193 64.38846 
L 366.017623 70.227908 
L 367.649053 47.704322 
L 369.280483 44.367495 
L 370.911913 55.212184 
L 372.543343 45.201702 
L 374.174773 49.372736 
L 374.174773 49.372736 
" style="fill:none;stroke:#d62728;stroke-linecap:square;stroke-width:1.5;"/>
   </g>
   <g id="patch_3">
    <path d="M 33.2875 273.357288 
L 33.2875 7.245288 
" style="fill:none;stroke:#000000;stroke-linecap:square;stroke-linejoin:miter;stroke-width:0.8;"/>
   </g>
   <g id="patch_4">
    <path d="M 390.4075 273.357288 
L 390.4075 7.245288 
" style="fill:none;stroke:#000000;stroke-linecap:square;stroke-linejoin:miter;stroke-width:0.8;"/>
   </g>
   <g id="patch_5">
    <path d="M 33.2875 273.357288 
L 390.4075 273.357288 
" style="fill:none;stroke:#000000;stroke-linecap:square;stroke-linejoin:miter;stroke-width:0.8;"/>
   </g>
   <g id="patch_6">
    <path d="M 33.2875 7.245288 
L 390.4075 7.245288 
" style="fill:none;stroke:#000000;stroke-linecap:square;stroke-linejoin:miter;stroke-width:0.8;"/>
   </g>
  </g>
 </g>
 <defs>
  <clipPath id="p3655f0b550">
   <rect height="266.112" width="357.12" x="33.2875" y="7.245288"/>
  </clipPath>
 </defs>
</svg>
