<?xml version="1.0" encoding="utf-8" standalone="no"?>
<!DOCTYPE svg PUBLIC "-//W3C//DTD SVG 1.1//EN"
  "http://www.w3.org/Graphics/SVG/1.1/DTD/svg11.dtd">
<svg xmlns:xlink="http://www.w3.org/1999/xlink" width="403.97pt" height="297.190125pt" viewBox="0 0 403.97 297.190125" xmlns="http://www.w3.org/2000/svg" version="1.1">
 <metadata>
  <rdf:RDF xmlns:dc="http://purl.org/dc/elements/1.1/" xmlns:cc="http://creativecommons.org/ns#" xmlns:rdf="http://www.w3.org/1999/02/22-rdf-syntax-ns#">
   <cc:Work>
    <dc:type rdf:resource="http://purl.org/dc/dcmitype/StillImage"/>
    <dc:date>2023-11-15T19:52:18.749503</dc:date>
    <dc:format>image/svg+xml</dc:format>
    <dc:creator>
     <cc:Agent>
      <dc:title>Matplotlib v3.8.1, https://matplotlib.org/</dc:title>
     </cc:Agent>
    </dc:creator>
   </cc:Work>
  </rdf:RDF>
 </metadata>
 <defs>
  <style type="text/css">*{stroke-linejoin: round; stroke-linecap: butt}</style>
 </defs>
 <g id="figure_1">
  <g id="patch_1">
   <path d="M 0 297.190125 
L 403.97 297.190125 
L 403.97 0 
L 0 0 
z
" style="fill: #ffffff"/>
  </g>
  <g id="axes_1">
   <g id="patch_2">
    <path d="M 39.65 273.312 
L 396.77 273.312 
L 396.77 7.2 
L 39.65 7.2 
z
" style="fill: #ffffff"/>
   </g>
   <g id="matplotlib.axis_1">
    <g id="xtick_1">
     <g id="line2d_1">
      <defs>
       <path id="m3f47fc48e0" d="M 0 0 
L 0 3.5 
" style="stroke: #000000; stroke-width: 0.8"/>
      </defs>
      <g>
       <use xlink:href="#m3f47fc48e0" x="55.882727" y="273.312" style="stroke: #000000; stroke-width: 0.8"/>
      </g>
     </g>
     <g id="text_1">
      <!-- 0.0 -->
      <g transform="translate(47.931165 287.910437) scale(0.1 -0.1)">
       <defs>
        <path id="DejaVuSans-30" d="M 2034 4250 
Q 1547 4250 1301 3770 
Q 1056 3291 1056 2328 
Q 1056 1369 1301 889 
Q 1547 409 2034 409 
Q 2525 409 2770 889 
Q 3016 1369 3016 2328 
Q 3016 3291 2770 3770 
Q 2525 4250 2034 4250 
z
M 2034 4750 
Q 2819 4750 3233 4129 
Q 3647 3509 3647 2328 
Q 3647 1150 3233 529 
Q 2819 -91 2034 -91 
Q 1250 -91 836 529 
Q 422 1150 422 2328 
Q 422 3509 836 4129 
Q 1250 4750 2034 4750 
z
" transform="scale(0.015625)"/>
        <path id="DejaVuSans-2e" d="M 684 794 
L 1344 794 
L 1344 0 
L 684 0 
L 684 794 
z
" transform="scale(0.015625)"/>
       </defs>
       <use xlink:href="#DejaVuSans-30"/>
       <use xlink:href="#DejaVuSans-2e" x="63.623047"/>
       <use xlink:href="#DejaVuSans-30" x="95.410156"/>
      </g>
     </g>
    </g>
    <g id="xtick_2">
     <g id="line2d_2">
      <g>
       <use xlink:href="#m3f47fc48e0" x="96.668474" y="273.312" style="stroke: #000000; stroke-width: 0.8"/>
      </g>
     </g>
     <g id="text_2">
      <!-- 2.5 -->
      <g transform="translate(88.716912 287.910437) scale(0.1 -0.1)">
       <defs>
        <path id="DejaVuSans-32" d="M 1228 531 
L 3431 531 
L 3431 0 
L 469 0 
L 469 531 
Q 828 903 1448 1529 
Q 2069 2156 2228 2338 
Q 2531 2678 2651 2914 
Q 2772 3150 2772 3378 
Q 2772 3750 2511 3984 
Q 2250 4219 1831 4219 
Q 1534 4219 1204 4116 
Q 875 4013 500 3803 
L 500 4441 
Q 881 4594 1212 4672 
Q 1544 4750 1819 4750 
Q 2544 4750 2975 4387 
Q 3406 4025 3406 3419 
Q 3406 3131 3298 2873 
Q 3191 2616 2906 2266 
Q 2828 2175 2409 1742 
Q 1991 1309 1228 531 
z
" transform="scale(0.015625)"/>
        <path id="DejaVuSans-35" d="M 691 4666 
L 3169 4666 
L 3169 4134 
L 1269 4134 
L 1269 2991 
Q 1406 3038 1543 3061 
Q 1681 3084 1819 3084 
Q 2600 3084 3056 2656 
Q 3513 2228 3513 1497 
Q 3513 744 3044 326 
Q 2575 -91 1722 -91 
Q 1428 -91 1123 -41 
Q 819 9 494 109 
L 494 744 
Q 775 591 1075 516 
Q 1375 441 1709 441 
Q 2250 441 2565 725 
Q 2881 1009 2881 1497 
Q 2881 1984 2565 2268 
Q 2250 2553 1709 2553 
Q 1456 2553 1204 2497 
Q 953 2441 691 2322 
L 691 4666 
z
" transform="scale(0.015625)"/>
       </defs>
       <use xlink:href="#DejaVuSans-32"/>
       <use xlink:href="#DejaVuSans-2e" x="63.623047"/>
       <use xlink:href="#DejaVuSans-35" x="95.410156"/>
      </g>
     </g>
    </g>
    <g id="xtick_3">
     <g id="line2d_3">
      <g>
       <use xlink:href="#m3f47fc48e0" x="137.454221" y="273.312" style="stroke: #000000; stroke-width: 0.8"/>
      </g>
     </g>
     <g id="text_3">
      <!-- 5.0 -->
      <g transform="translate(129.502659 287.910437) scale(0.1 -0.1)">
       <use xlink:href="#DejaVuSans-35"/>
       <use xlink:href="#DejaVuSans-2e" x="63.623047"/>
       <use xlink:href="#DejaVuSans-30" x="95.410156"/>
      </g>
     </g>
    </g>
    <g id="xtick_4">
     <g id="line2d_4">
      <g>
       <use xlink:href="#m3f47fc48e0" x="178.239968" y="273.312" style="stroke: #000000; stroke-width: 0.8"/>
      </g>
     </g>
     <g id="text_4">
      <!-- 7.5 -->
      <g transform="translate(170.288406 287.910437) scale(0.1 -0.1)">
       <defs>
        <path id="DejaVuSans-37" d="M 525 4666 
L 3525 4666 
L 3525 4397 
L 1831 0 
L 1172 0 
L 2766 4134 
L 525 4134 
L 525 4666 
z
" transform="scale(0.015625)"/>
       </defs>
       <use xlink:href="#DejaVuSans-37"/>
       <use xlink:href="#DejaVuSans-2e" x="63.623047"/>
       <use xlink:href="#DejaVuSans-35" x="95.410156"/>
      </g>
     </g>
    </g>
    <g id="xtick_5">
     <g id="line2d_5">
      <g>
       <use xlink:href="#m3f47fc48e0" x="219.025715" y="273.312" style="stroke: #000000; stroke-width: 0.8"/>
      </g>
     </g>
     <g id="text_5">
      <!-- 10.0 -->
      <g transform="translate(207.892902 287.910437) scale(0.1 -0.1)">
       <defs>
        <path id="DejaVuSans-31" d="M 794 531 
L 1825 531 
L 1825 4091 
L 703 3866 
L 703 4441 
L 1819 4666 
L 2450 4666 
L 2450 531 
L 3481 531 
L 3481 0 
L 794 0 
L 794 531 
z
" transform="scale(0.015625)"/>
       </defs>
       <use xlink:href="#DejaVuSans-31"/>
       <use xlink:href="#DejaVuSans-30" x="63.623047"/>
       <use xlink:href="#DejaVuSans-2e" x="127.246094"/>
       <use xlink:href="#DejaVuSans-30" x="159.033203"/>
      </g>
     </g>
    </g>
    <g id="xtick_6">
     <g id="line2d_6">
      <g>
       <use xlink:href="#m3f47fc48e0" x="259.811462" y="273.312" style="stroke: #000000; stroke-width: 0.8"/>
      </g>
     </g>
     <g id="text_6">
      <!-- 12.5 -->
      <g transform="translate(248.678649 287.910437) scale(0.1 -0.1)">
       <use xlink:href="#DejaVuSans-31"/>
       <use xlink:href="#DejaVuSans-32" x="63.623047"/>
       <use xlink:href="#DejaVuSans-2e" x="127.246094"/>
       <use xlink:href="#DejaVuSans-35" x="159.033203"/>
      </g>
     </g>
    </g>
    <g id="xtick_7">
     <g id="line2d_7">
      <g>
       <use xlink:href="#m3f47fc48e0" x="300.597209" y="273.312" style="stroke: #000000; stroke-width: 0.8"/>
      </g>
     </g>
     <g id="text_7">
      <!-- 15.0 -->
      <g transform="translate(289.464396 287.910437) scale(0.1 -0.1)">
       <use xlink:href="#DejaVuSans-31"/>
       <use xlink:href="#DejaVuSans-35" x="63.623047"/>
       <use xlink:href="#DejaVuSans-2e" x="127.246094"/>
       <use xlink:href="#DejaVuSans-30" x="159.033203"/>
      </g>
     </g>
    </g>
    <g id="xtick_8">
     <g id="line2d_8">
      <g>
       <use xlink:href="#m3f47fc48e0" x="341.382956" y="273.312" style="stroke: #000000; stroke-width: 0.8"/>
      </g>
     </g>
     <g id="text_8">
      <!-- 17.5 -->
      <g transform="translate(330.250143 287.910437) scale(0.1 -0.1)">
       <use xlink:href="#DejaVuSans-31"/>
       <use xlink:href="#DejaVuSans-37" x="63.623047"/>
       <use xlink:href="#DejaVuSans-2e" x="127.246094"/>
       <use xlink:href="#DejaVuSans-35" x="159.033203"/>
      </g>
     </g>
    </g>
    <g id="xtick_9">
     <g id="line2d_9">
      <g>
       <use xlink:href="#m3f47fc48e0" x="382.168703" y="273.312" style="stroke: #000000; stroke-width: 0.8"/>
      </g>
     </g>
     <g id="text_9">
      <!-- 20.0 -->
      <g transform="translate(371.03589 287.910437) scale(0.1 -0.1)">
       <use xlink:href="#DejaVuSans-32"/>
       <use xlink:href="#DejaVuSans-30" x="63.623047"/>
       <use xlink:href="#DejaVuSans-2e" x="127.246094"/>
       <use xlink:href="#DejaVuSans-30" x="159.033203"/>
      </g>
     </g>
    </g>
   </g>
   <g id="matplotlib.axis_2">
    <g id="ytick_1">
     <g id="line2d_10">
      <defs>
       <path id="mff611b89f5" d="M 0 0 
L -3.5 0 
" style="stroke: #000000; stroke-width: 0.8"/>
      </defs>
      <g>
       <use xlink:href="#mff611b89f5" x="39.65" y="261.216" style="stroke: #000000; stroke-width: 0.8"/>
      </g>
     </g>
     <g id="text_10">
      <!-- 0 -->
      <g transform="translate(26.2875 265.015219) scale(0.1 -0.1)">
       <use xlink:href="#DejaVuSans-30"/>
      </g>
     </g>
    </g>
    <g id="ytick_2">
     <g id="line2d_11">
      <g>
       <use xlink:href="#mff611b89f5" x="39.65" y="226.862876" style="stroke: #000000; stroke-width: 0.8"/>
      </g>
     </g>
     <g id="text_11">
      <!-- 500 -->
      <g transform="translate(13.5625 230.662095) scale(0.1 -0.1)">
       <use xlink:href="#DejaVuSans-35"/>
       <use xlink:href="#DejaVuSans-30" x="63.623047"/>
       <use xlink:href="#DejaVuSans-30" x="127.246094"/>
      </g>
     </g>
    </g>
    <g id="ytick_3">
     <g id="line2d_12">
      <g>
       <use xlink:href="#mff611b89f5" x="39.65" y="192.509752" style="stroke: #000000; stroke-width: 0.8"/>
      </g>
     </g>
     <g id="text_12">
      <!-- 1000 -->
      <g transform="translate(7.2 196.308971) scale(0.1 -0.1)">
       <use xlink:href="#DejaVuSans-31"/>
       <use xlink:href="#DejaVuSans-30" x="63.623047"/>
       <use xlink:href="#DejaVuSans-30" x="127.246094"/>
       <use xlink:href="#DejaVuSans-30" x="190.869141"/>
      </g>
     </g>
    </g>
    <g id="ytick_4">
     <g id="line2d_13">
      <g>
       <use xlink:href="#mff611b89f5" x="39.65" y="158.156628" style="stroke: #000000; stroke-width: 0.8"/>
      </g>
     </g>
     <g id="text_13">
      <!-- 1500 -->
      <g transform="translate(7.2 161.955847) scale(0.1 -0.1)">
       <use xlink:href="#DejaVuSans-31"/>
       <use xlink:href="#DejaVuSans-35" x="63.623047"/>
       <use xlink:href="#DejaVuSans-30" x="127.246094"/>
       <use xlink:href="#DejaVuSans-30" x="190.869141"/>
      </g>
     </g>
    </g>
    <g id="ytick_5">
     <g id="line2d_14">
      <g>
       <use xlink:href="#mff611b89f5" x="39.65" y="123.803504" style="stroke: #000000; stroke-width: 0.8"/>
      </g>
     </g>
     <g id="text_14">
      <!-- 2000 -->
      <g transform="translate(7.2 127.602722) scale(0.1 -0.1)">
       <use xlink:href="#DejaVuSans-32"/>
       <use xlink:href="#DejaVuSans-30" x="63.623047"/>
       <use xlink:href="#DejaVuSans-30" x="127.246094"/>
       <use xlink:href="#DejaVuSans-30" x="190.869141"/>
      </g>
     </g>
    </g>
    <g id="ytick_6">
     <g id="line2d_15">
      <g>
       <use xlink:href="#mff611b89f5" x="39.65" y="89.45038" style="stroke: #000000; stroke-width: 0.8"/>
      </g>
     </g>
     <g id="text_15">
      <!-- 2500 -->
      <g transform="translate(7.2 93.249598) scale(0.1 -0.1)">
       <use xlink:href="#DejaVuSans-32"/>
       <use xlink:href="#DejaVuSans-35" x="63.623047"/>
       <use xlink:href="#DejaVuSans-30" x="127.246094"/>
       <use xlink:href="#DejaVuSans-30" x="190.869141"/>
      </g>
     </g>
    </g>
    <g id="ytick_7">
     <g id="line2d_16">
      <g>
       <use xlink:href="#mff611b89f5" x="39.65" y="55.097256" style="stroke: #000000; stroke-width: 0.8"/>
      </g>
     </g>
     <g id="text_16">
      <!-- 3000 -->
      <g transform="translate(7.2 58.896474) scale(0.1 -0.1)">
       <defs>
        <path id="DejaVuSans-33" d="M 2597 2516 
Q 3050 2419 3304 2112 
Q 3559 1806 3559 1356 
Q 3559 666 3084 287 
Q 2609 -91 1734 -91 
Q 1441 -91 1130 -33 
Q 819 25 488 141 
L 488 750 
Q 750 597 1062 519 
Q 1375 441 1716 441 
Q 2309 441 2620 675 
Q 2931 909 2931 1356 
Q 2931 1769 2642 2001 
Q 2353 2234 1838 2234 
L 1294 2234 
L 1294 2753 
L 1863 2753 
Q 2328 2753 2575 2939 
Q 2822 3125 2822 3475 
Q 2822 3834 2567 4026 
Q 2313 4219 1838 4219 
Q 1578 4219 1281 4162 
Q 984 4106 628 3988 
L 628 4550 
Q 988 4650 1302 4700 
Q 1616 4750 1894 4750 
Q 2613 4750 3031 4423 
Q 3450 4097 3450 3541 
Q 3450 3153 3228 2886 
Q 3006 2619 2597 2516 
z
" transform="scale(0.015625)"/>
       </defs>
       <use xlink:href="#DejaVuSans-33"/>
       <use xlink:href="#DejaVuSans-30" x="63.623047"/>
       <use xlink:href="#DejaVuSans-30" x="127.246094"/>
       <use xlink:href="#DejaVuSans-30" x="190.869141"/>
      </g>
     </g>
    </g>
    <g id="ytick_8">
     <g id="line2d_17">
      <g>
       <use xlink:href="#mff611b89f5" x="39.65" y="20.744132" style="stroke: #000000; stroke-width: 0.8"/>
      </g>
     </g>
     <g id="text_17">
      <!-- 3500 -->
      <g transform="translate(7.2 24.54335) scale(0.1 -0.1)">
       <use xlink:href="#DejaVuSans-33"/>
       <use xlink:href="#DejaVuSans-35" x="63.623047"/>
       <use xlink:href="#DejaVuSans-30" x="127.246094"/>
       <use xlink:href="#DejaVuSans-30" x="190.869141"/>
      </g>
     </g>
    </g>
   </g>
   <g id="line2d_18">
    <path d="M 55.882727 261.216 
L 72.197026 192.509752 
L 88.511325 143.281725 
L 104.825624 108.009844 
L 121.139922 82.737541 
L 137.454221 64.629936 
L 153.76852 51.655837 
L 170.082819 42.359895 
L 186.397117 35.699353 
L 202.711416 30.927074 
L 219.025715 27.507736 
L 235.340014 25.057781 
L 251.654312 23.302388 
L 267.968611 22.044649 
L 284.28291 21.143479 
L 300.597209 20.49779 
L 316.911508 20.035155 
L 333.225806 19.703676 
L 349.540105 19.466172 
L 365.854404 19.296 
" clip-path="url(#ped4ef447d7)" style="fill: none; stroke: #1f77b4; stroke-width: 1.5; stroke-linecap: square"/>
   </g>
   <g id="line2d_19">
    <path d="M 55.882727 261.216 
L 72.197026 261.216 
L 88.511325 238.313917 
L 104.825624 210.146646 
L 121.139922 183.928275 
L 137.454221 162.043662 
L 153.76852 144.772234 
L 170.082819 131.580383 
L 186.397117 121.709039 
L 202.711416 114.420911 
L 219.025715 109.088426 
L 235.340014 105.210949 
L 251.654312 102.4036 
L 267.968611 100.377177 
L 284.28291 98.917564 
L 300.597209 97.867809 
L 316.911508 97.113636 
L 333.225806 96.572231 
L 349.540105 96.183781 
L 365.854404 95.905183 
" clip-path="url(#ped4ef447d7)" style="fill: none; stroke: #ff7f0e; stroke-width: 1.5; stroke-linecap: square"/>
   </g>
   <g id="line2d_20">
    <path d="M 55.882727 261.216 
L 57.514157 254.001844 
L 60.777017 241.153776 
L 62.408447 236.481751 
L 64.039877 230.710426 
L 68.934166 215.114108 
L 70.565596 209.20537 
L 72.197026 205.014289 
L 73.828456 198.76202 
L 75.459886 193.609052 
L 77.091316 189.211852 
L 80.354175 179.661683 
L 81.985605 175.127071 
L 83.617035 172.378821 
L 85.248465 169.218334 
L 86.879895 165.714315 
L 88.511325 161.523234 
L 90.142755 159.255928 
L 93.405614 151.560828 
L 95.037044 148.881284 
L 96.668474 146.613978 
L 98.299904 141.461009 
L 99.931334 138.025697 
L 101.562764 135.827097 
L 103.194194 133.21626 
L 104.825624 131.498604 
L 106.457053 130.261891 
L 108.088483 125.795985 
L 109.719913 122.291966 
L 111.351343 119.337598 
L 112.982773 117.551235 
L 116.245633 114.665573 
L 117.877063 114.184629 
L 119.508492 110.611904 
L 121.139922 108.138479 
L 122.771352 104.909285 
L 126.034212 100.099848 
L 127.665642 98.450898 
L 129.297072 98.519604 
L 130.928502 95.633942 
L 134.191361 95.290411 
L 135.822791 93.710167 
L 137.454221 90.961917 
L 139.085651 89.793911 
L 140.717081 89.106848 
L 142.348511 87.389192 
L 143.979941 84.778355 
L 145.61137 82.923286 
L 147.2428 82.236224 
L 150.50566 80.587274 
L 152.13709 80.312449 
L 153.76852 79.144442 
L 155.39995 78.319967 
L 157.03138 78.113849 
L 158.66281 78.663499 
L 161.925669 76.877136 
L 163.557099 74.197593 
L 165.188529 75.777836 
L 166.819959 74.403711 
L 168.451389 71.31193 
L 170.082819 71.655461 
L 171.714249 71.655461 
L 173.345678 71.174518 
L 174.977108 71.243224 
L 176.608538 69.388155 
L 178.239968 67.876618 
L 179.871398 67.395674 
L 181.502828 67.670499 
L 183.134258 66.433787 
L 184.765688 65.952843 
L 188.028547 65.81543 
L 189.659977 65.334487 
L 191.291407 65.746724 
L 192.922837 64.510012 
L 194.554267 64.441305 
L 196.185697 62.654943 
L 197.817127 62.654943 
L 199.448556 62.311412 
L 201.079986 62.105293 
L 202.711416 60.731168 
L 205.974276 61.349524 
L 209.237136 60.593755 
L 210.868566 60.937287 
L 212.499995 59.700574 
L 214.131425 60.181518 
L 215.762855 59.013512 
L 217.394285 57.501974 
L 219.025715 56.402674 
L 220.657145 56.746206 
L 222.288575 57.845506 
L 223.920005 57.158443 
L 225.551434 55.165962 
L 227.182864 53.997956 
L 228.814294 56.265262 
L 232.077154 55.097256 
L 233.708584 53.654424 
L 235.340014 54.685018 
L 236.971444 53.517012 
L 238.602873 54.822431 
L 240.234303 56.540087 
L 241.865733 56.883618 
L 243.497163 56.059143 
L 245.128593 56.127849 
L 246.760023 56.540087 
L 248.391453 55.440787 
L 250.022883 55.509493 
L 251.654312 55.165962 
L 253.285742 50.906174 
L 254.917172 51.043587 
L 256.548602 51.868062 
L 258.180032 52.898656 
L 259.811462 54.135368 
L 261.442892 52.280299 
L 263.074322 52.005474 
L 264.705751 50.562643 
L 266.337181 50.287818 
L 267.968611 52.486418 
L 269.600041 52.211593 
L 271.231471 52.555124 
L 272.862901 52.074181 
L 274.494331 52.142887 
L 276.125761 51.318412 
L 277.75719 52.142887 
L 279.38862 53.104774 
L 281.02005 53.860543 
L 282.65148 53.997956 
L 284.28291 53.723131 
L 285.91434 54.478899 
L 287.54577 54.410193 
L 289.1772 54.204074 
L 290.80863 55.578199 
L 292.440059 55.578199 
L 294.071489 56.677499 
L 295.702919 56.608793 
L 297.334349 58.326449 
L 298.965779 58.395156 
L 300.597209 55.784318 
L 302.228639 56.265262 
L 303.860069 54.753724 
L 305.491498 54.685018 
L 307.122928 54.891137 
L 308.754358 54.135368 
L 310.385788 55.440787 
L 312.017218 54.959843 
L 315.280078 52.692537 
L 316.911508 52.211593 
L 318.542937 53.379599 
L 321.805797 54.272781 
L 323.437227 53.654424 
L 325.068657 54.135368 
L 326.700087 53.310893 
L 328.331517 52.829949 
L 329.962947 53.036068 
L 331.594376 52.555124 
L 333.225806 53.654424 
L 334.857236 54.410193 
L 336.488666 54.478899 
L 338.120096 53.585718 
L 339.751526 54.685018 
L 341.382956 54.822431 
L 343.014386 55.921731 
L 344.645815 57.501974 
L 346.277245 58.876099 
L 347.908675 59.975399 
L 349.540105 59.082218 
L 351.171535 57.433268 
L 352.802965 58.189037 
L 354.434395 57.776799 
L 356.065825 58.944805 
L 357.697254 58.395156 
L 359.328684 59.76928 
L 360.960114 59.425749 
L 362.591544 58.807393 
L 364.222974 59.563162 
L 365.854404 58.66998 
L 367.485834 56.608793 
L 369.117264 57.501974 
L 370.748693 57.776799 
L 372.380123 56.677499 
L 374.011553 56.883618 
L 375.642983 56.883618 
L 377.274413 57.021031 
L 378.905843 58.189037 
L 380.537273 59.150924 
L 380.537273 59.150924 
" clip-path="url(#ped4ef447d7)" style="fill: none; stroke: #2ca02c; stroke-width: 1.5; stroke-linecap: square"/>
   </g>
   <g id="line2d_21">
    <path d="M 55.882727 261.216 
L 59.145587 261.009881 
L 60.777017 260.528938 
L 62.408447 259.360931 
L 65.671307 257.711981 
L 70.565596 253.727019 
L 73.828456 251.459713 
L 75.459886 249.604644 
L 77.091316 247.955694 
L 80.354175 244.314263 
L 83.617035 240.191888 
L 85.248465 239.230001 
L 88.511325 235.382451 
L 90.142755 233.252557 
L 91.774185 231.672313 
L 93.405614 230.779132 
L 96.668474 227.412526 
L 98.299904 227.068995 
L 101.562764 223.49627 
L 103.194194 221.984732 
L 104.825624 220.060957 
L 106.457053 217.518826 
L 111.351343 214.014808 
L 114.614203 209.411489 
L 116.245633 207.968658 
L 117.877063 206.869358 
L 119.508492 206.044883 
L 121.139922 206.319708 
L 122.771352 205.151702 
L 124.402782 205.082995 
L 126.034212 203.296633 
L 127.665642 203.090514 
L 129.297072 199.930027 
L 130.928502 199.86132 
L 132.559931 197.387895 
L 134.191361 195.738946 
L 135.822791 194.639646 
L 137.454221 194.021289 
L 139.085651 193.196814 
L 142.348511 192.028808 
L 143.979941 191.204333 
L 145.61137 190.517271 
L 147.2428 187.975139 
L 148.87423 186.738427 
L 150.50566 187.42549 
L 152.13709 185.913952 
L 153.76852 185.639127 
L 155.39995 184.814652 
L 157.03138 183.02829 
L 158.66281 182.135108 
L 160.294239 181.37934 
L 161.925669 181.310633 
L 163.557099 180.417452 
L 165.188529 178.562383 
L 166.819959 178.287559 
L 168.451389 178.63109 
L 170.082819 176.98214 
L 171.714249 174.852246 
L 173.345678 174.577421 
L 174.977108 172.928471 
L 176.608538 173.13459 
L 178.239968 172.310115 
L 179.871398 171.348227 
L 181.502828 171.004696 
L 183.134258 169.561865 
L 184.765688 169.218334 
L 186.397117 169.767984 
L 188.028547 167.912915 
L 189.659977 169.355746 
L 191.291407 169.355746 
L 192.922837 169.561865 
L 194.554267 170.042809 
L 196.185697 169.630571 
L 197.817127 170.042809 
L 199.448556 169.424452 
L 202.711416 169.630571 
L 204.342846 167.225853 
L 205.974276 166.882321 
L 209.237136 168.256446 
L 210.868566 168.050328 
L 212.499995 167.500678 
L 214.131425 166.744909 
L 215.762855 167.08844 
L 217.394285 167.019734 
L 219.025715 167.157146 
L 220.657145 165.43949 
L 222.288575 163.515715 
L 223.920005 164.408896 
L 225.551434 164.408896 
L 227.182864 163.927953 
L 228.814294 161.798059 
L 230.445724 162.347709 
L 232.077154 162.072884 
L 233.708584 164.271484 
L 235.340014 163.653128 
L 238.602873 163.653128 
L 240.234303 161.523234 
L 241.865733 161.523234 
L 243.497163 161.935471 
L 248.391453 161.729353 
L 250.022883 161.935471 
L 251.654312 160.904878 
L 253.285742 162.14159 
L 254.917172 162.897359 
L 256.548602 161.866765 
L 258.180032 160.423934 
L 259.811462 160.080403 
L 261.442892 160.561346 
L 263.074322 161.248409 
L 264.705751 162.210296 
L 266.337181 162.072884 
L 267.968611 160.630053 
L 269.600041 159.39334 
L 271.231471 158.912397 
L 272.862901 158.774984 
L 274.494331 159.049809 
L 276.125761 158.912397 
L 277.75719 157.19474 
L 279.38862 157.057328 
L 281.02005 157.675684 
L 282.65148 157.950509 
L 285.91434 156.232853 
L 287.54577 157.126034 
L 292.440059 155.683203 
L 294.071489 155.751909 
L 295.702919 155.958028 
L 298.965779 154.583903 
L 300.597209 155.958028 
L 302.228639 155.751909 
L 303.860069 155.820615 
L 307.122928 156.164147 
L 308.754358 156.164147 
L 310.385788 156.988622 
L 312.017218 157.057328 
L 313.648648 156.370265 
L 315.280078 157.881803 
L 316.911508 159.118515 
L 318.542937 158.774984 
L 320.174367 159.049809 
L 321.805797 158.156628 
L 323.437227 158.84369 
L 325.068657 159.187222 
L 326.700087 160.561346 
L 328.331517 160.836171 
L 329.962947 160.149109 
L 331.594376 160.286521 
L 333.225806 159.462047 
L 334.857236 158.981103 
L 336.488666 159.736872 
L 339.751526 160.904878 
L 341.382956 160.767465 
L 343.014386 160.080403 
L 344.645815 159.049809 
L 346.277245 156.988622 
L 347.908675 156.851209 
L 349.540105 157.813097 
L 351.171535 158.912397 
L 352.802965 158.706278 
L 354.434395 159.39334 
L 357.697254 159.324634 
L 359.328684 159.736872 
L 360.960114 159.599459 
L 362.591544 160.355228 
L 364.222974 158.912397 
L 365.854404 159.118515 
L 367.485834 159.736872 
L 369.117264 158.912397 
L 370.748693 159.187222 
L 372.380123 158.637572 
L 374.011553 158.706278 
L 375.642983 159.118515 
L 377.274413 160.355228 
L 380.537273 159.187222 
L 380.537273 159.187222 
" clip-path="url(#ped4ef447d7)" style="fill: none; stroke: #d62728; stroke-width: 1.5; stroke-linecap: square"/>
   </g>
   <g id="patch_3">
    <path d="M 39.65 273.312 
L 39.65 7.2 
" style="fill: none; stroke: #000000; stroke-width: 0.8; stroke-linejoin: miter; stroke-linecap: square"/>
   </g>
   <g id="patch_4">
    <path d="M 396.77 273.312 
L 396.77 7.2 
" style="fill: none; stroke: #000000; stroke-width: 0.8; stroke-linejoin: miter; stroke-linecap: square"/>
   </g>
   <g id="patch_5">
    <path d="M 39.65 273.312 
L 396.77 273.312 
" style="fill: none; stroke: #000000; stroke-width: 0.8; stroke-linejoin: miter; stroke-linecap: square"/>
   </g>
   <g id="patch_6">
    <path d="M 39.65 7.2 
L 396.77 7.2 
" style="fill: none; stroke: #000000; stroke-width: 0.8; stroke-linejoin: miter; stroke-linecap: square"/>
   </g>
  </g>
 </g>
 <defs>
  <clipPath id="ped4ef447d7">
   <rect x="39.65" y="7.2" width="357.12" height="266.112"/>
  </clipPath>
 </defs>
</svg>
