<?xml version="1.0" encoding="utf-8" standalone="no"?>
<!DOCTYPE svg PUBLIC "-//W3C//DTD SVG 1.1//EN"
  "http://www.w3.org/Graphics/SVG/1.1/DTD/svg11.dtd">
<!-- Created with matplotlib (https://matplotlib.org/) -->
<svg height="297.190125pt" version="1.1" viewBox="0 0 403.97 297.190125" width="403.97pt" xmlns="http://www.w3.org/2000/svg" xmlns:xlink="http://www.w3.org/1999/xlink">
 <metadata>
  <rdf:RDF xmlns:cc="http://creativecommons.org/ns#" xmlns:dc="http://purl.org/dc/elements/1.1/" xmlns:rdf="http://www.w3.org/1999/02/22-rdf-syntax-ns#">
   <cc:Work>
    <dc:type rdf:resource="http://purl.org/dc/dcmitype/StillImage"/>
    <dc:date>2021-03-09T10:55:44.616351</dc:date>
    <dc:format>image/svg+xml</dc:format>
    <dc:creator>
     <cc:Agent>
      <dc:title>Matplotlib v3.3.4, https://matplotlib.org/</dc:title>
     </cc:Agent>
    </dc:creator>
   </cc:Work>
  </rdf:RDF>
 </metadata>
 <defs>
  <style type="text/css">*{stroke-linecap:butt;stroke-linejoin:round;}</style>
 </defs>
 <g id="figure_1">
  <g id="patch_1">
   <path d="M 0 297.190125 
L 403.97 297.190125 
L 403.97 0 
L 0 0 
z
" style="fill:#ffffff;"/>
  </g>
  <g id="axes_1">
   <g id="patch_2">
    <path d="M 39.65 273.312 
L 396.77 273.312 
L 396.77 7.2 
L 39.65 7.2 
z
" style="fill:#ffffff;"/>
   </g>
   <g id="matplotlib.axis_1">
    <g id="xtick_1">
     <g id="line2d_1">
      <defs>
       <path d="M 0 0 
L 0 3.5 
" id="mdd5e520d64" style="stroke:#000000;stroke-width:0.8;"/>
      </defs>
      <g>
       <use style="stroke:#000000;stroke-width:0.8;" x="55.882727" xlink:href="#mdd5e520d64" y="273.312"/>
      </g>
     </g>
     <g id="text_1">
      <!-- 0.0 -->
      <g transform="translate(47.931165 287.910437)scale(0.1 -0.1)">
       <defs>
        <path d="M 31.78125 66.40625 
Q 24.171875 66.40625 20.328125 58.90625 
Q 16.5 51.421875 16.5 36.375 
Q 16.5 21.390625 20.328125 13.890625 
Q 24.171875 6.390625 31.78125 6.390625 
Q 39.453125 6.390625 43.28125 13.890625 
Q 47.125 21.390625 47.125 36.375 
Q 47.125 51.421875 43.28125 58.90625 
Q 39.453125 66.40625 31.78125 66.40625 
z
M 31.78125 74.21875 
Q 44.046875 74.21875 50.515625 64.515625 
Q 56.984375 54.828125 56.984375 36.375 
Q 56.984375 17.96875 50.515625 8.265625 
Q 44.046875 -1.421875 31.78125 -1.421875 
Q 19.53125 -1.421875 13.0625 8.265625 
Q 6.59375 17.96875 6.59375 36.375 
Q 6.59375 54.828125 13.0625 64.515625 
Q 19.53125 74.21875 31.78125 74.21875 
z
" id="DejaVuSans-48"/>
        <path d="M 10.6875 12.40625 
L 21 12.40625 
L 21 0 
L 10.6875 0 
z
" id="DejaVuSans-46"/>
       </defs>
       <use xlink:href="#DejaVuSans-48"/>
       <use x="63.623047" xlink:href="#DejaVuSans-46"/>
       <use x="95.410156" xlink:href="#DejaVuSans-48"/>
      </g>
     </g>
    </g>
    <g id="xtick_2">
     <g id="line2d_2">
      <g>
       <use style="stroke:#000000;stroke-width:0.8;" x="96.668474" xlink:href="#mdd5e520d64" y="273.312"/>
      </g>
     </g>
     <g id="text_2">
      <!-- 2.5 -->
      <g transform="translate(88.716912 287.910437)scale(0.1 -0.1)">
       <defs>
        <path d="M 19.1875 8.296875 
L 53.609375 8.296875 
L 53.609375 0 
L 7.328125 0 
L 7.328125 8.296875 
Q 12.9375 14.109375 22.625 23.890625 
Q 32.328125 33.6875 34.8125 36.53125 
Q 39.546875 41.84375 41.421875 45.53125 
Q 43.3125 49.21875 43.3125 52.78125 
Q 43.3125 58.59375 39.234375 62.25 
Q 35.15625 65.921875 28.609375 65.921875 
Q 23.96875 65.921875 18.8125 64.3125 
Q 13.671875 62.703125 7.8125 59.421875 
L 7.8125 69.390625 
Q 13.765625 71.78125 18.9375 73 
Q 24.125 74.21875 28.421875 74.21875 
Q 39.75 74.21875 46.484375 68.546875 
Q 53.21875 62.890625 53.21875 53.421875 
Q 53.21875 48.921875 51.53125 44.890625 
Q 49.859375 40.875 45.40625 35.40625 
Q 44.1875 33.984375 37.640625 27.21875 
Q 31.109375 20.453125 19.1875 8.296875 
z
" id="DejaVuSans-50"/>
        <path d="M 10.796875 72.90625 
L 49.515625 72.90625 
L 49.515625 64.59375 
L 19.828125 64.59375 
L 19.828125 46.734375 
Q 21.96875 47.46875 24.109375 47.828125 
Q 26.265625 48.1875 28.421875 48.1875 
Q 40.625 48.1875 47.75 41.5 
Q 54.890625 34.8125 54.890625 23.390625 
Q 54.890625 11.625 47.5625 5.09375 
Q 40.234375 -1.421875 26.90625 -1.421875 
Q 22.3125 -1.421875 17.546875 -0.640625 
Q 12.796875 0.140625 7.71875 1.703125 
L 7.71875 11.625 
Q 12.109375 9.234375 16.796875 8.0625 
Q 21.484375 6.890625 26.703125 6.890625 
Q 35.15625 6.890625 40.078125 11.328125 
Q 45.015625 15.765625 45.015625 23.390625 
Q 45.015625 31 40.078125 35.4375 
Q 35.15625 39.890625 26.703125 39.890625 
Q 22.75 39.890625 18.8125 39.015625 
Q 14.890625 38.140625 10.796875 36.28125 
z
" id="DejaVuSans-53"/>
       </defs>
       <use xlink:href="#DejaVuSans-50"/>
       <use x="63.623047" xlink:href="#DejaVuSans-46"/>
       <use x="95.410156" xlink:href="#DejaVuSans-53"/>
      </g>
     </g>
    </g>
    <g id="xtick_3">
     <g id="line2d_3">
      <g>
       <use style="stroke:#000000;stroke-width:0.8;" x="137.454221" xlink:href="#mdd5e520d64" y="273.312"/>
      </g>
     </g>
     <g id="text_3">
      <!-- 5.0 -->
      <g transform="translate(129.502659 287.910437)scale(0.1 -0.1)">
       <use xlink:href="#DejaVuSans-53"/>
       <use x="63.623047" xlink:href="#DejaVuSans-46"/>
       <use x="95.410156" xlink:href="#DejaVuSans-48"/>
      </g>
     </g>
    </g>
    <g id="xtick_4">
     <g id="line2d_4">
      <g>
       <use style="stroke:#000000;stroke-width:0.8;" x="178.239968" xlink:href="#mdd5e520d64" y="273.312"/>
      </g>
     </g>
     <g id="text_4">
      <!-- 7.5 -->
      <g transform="translate(170.288406 287.910437)scale(0.1 -0.1)">
       <defs>
        <path d="M 8.203125 72.90625 
L 55.078125 72.90625 
L 55.078125 68.703125 
L 28.609375 0 
L 18.3125 0 
L 43.21875 64.59375 
L 8.203125 64.59375 
z
" id="DejaVuSans-55"/>
       </defs>
       <use xlink:href="#DejaVuSans-55"/>
       <use x="63.623047" xlink:href="#DejaVuSans-46"/>
       <use x="95.410156" xlink:href="#DejaVuSans-53"/>
      </g>
     </g>
    </g>
    <g id="xtick_5">
     <g id="line2d_5">
      <g>
       <use style="stroke:#000000;stroke-width:0.8;" x="219.025715" xlink:href="#mdd5e520d64" y="273.312"/>
      </g>
     </g>
     <g id="text_5">
      <!-- 10.0 -->
      <g transform="translate(207.892902 287.910437)scale(0.1 -0.1)">
       <defs>
        <path d="M 12.40625 8.296875 
L 28.515625 8.296875 
L 28.515625 63.921875 
L 10.984375 60.40625 
L 10.984375 69.390625 
L 28.421875 72.90625 
L 38.28125 72.90625 
L 38.28125 8.296875 
L 54.390625 8.296875 
L 54.390625 0 
L 12.40625 0 
z
" id="DejaVuSans-49"/>
       </defs>
       <use xlink:href="#DejaVuSans-49"/>
       <use x="63.623047" xlink:href="#DejaVuSans-48"/>
       <use x="127.246094" xlink:href="#DejaVuSans-46"/>
       <use x="159.033203" xlink:href="#DejaVuSans-48"/>
      </g>
     </g>
    </g>
    <g id="xtick_6">
     <g id="line2d_6">
      <g>
       <use style="stroke:#000000;stroke-width:0.8;" x="259.811462" xlink:href="#mdd5e520d64" y="273.312"/>
      </g>
     </g>
     <g id="text_6">
      <!-- 12.5 -->
      <g transform="translate(248.678649 287.910437)scale(0.1 -0.1)">
       <use xlink:href="#DejaVuSans-49"/>
       <use x="63.623047" xlink:href="#DejaVuSans-50"/>
       <use x="127.246094" xlink:href="#DejaVuSans-46"/>
       <use x="159.033203" xlink:href="#DejaVuSans-53"/>
      </g>
     </g>
    </g>
    <g id="xtick_7">
     <g id="line2d_7">
      <g>
       <use style="stroke:#000000;stroke-width:0.8;" x="300.597209" xlink:href="#mdd5e520d64" y="273.312"/>
      </g>
     </g>
     <g id="text_7">
      <!-- 15.0 -->
      <g transform="translate(289.464396 287.910437)scale(0.1 -0.1)">
       <use xlink:href="#DejaVuSans-49"/>
       <use x="63.623047" xlink:href="#DejaVuSans-53"/>
       <use x="127.246094" xlink:href="#DejaVuSans-46"/>
       <use x="159.033203" xlink:href="#DejaVuSans-48"/>
      </g>
     </g>
    </g>
    <g id="xtick_8">
     <g id="line2d_8">
      <g>
       <use style="stroke:#000000;stroke-width:0.8;" x="341.382956" xlink:href="#mdd5e520d64" y="273.312"/>
      </g>
     </g>
     <g id="text_8">
      <!-- 17.5 -->
      <g transform="translate(330.250143 287.910437)scale(0.1 -0.1)">
       <use xlink:href="#DejaVuSans-49"/>
       <use x="63.623047" xlink:href="#DejaVuSans-55"/>
       <use x="127.246094" xlink:href="#DejaVuSans-46"/>
       <use x="159.033203" xlink:href="#DejaVuSans-53"/>
      </g>
     </g>
    </g>
    <g id="xtick_9">
     <g id="line2d_9">
      <g>
       <use style="stroke:#000000;stroke-width:0.8;" x="382.168703" xlink:href="#mdd5e520d64" y="273.312"/>
      </g>
     </g>
     <g id="text_9">
      <!-- 20.0 -->
      <g transform="translate(371.03589 287.910437)scale(0.1 -0.1)">
       <use xlink:href="#DejaVuSans-50"/>
       <use x="63.623047" xlink:href="#DejaVuSans-48"/>
       <use x="127.246094" xlink:href="#DejaVuSans-46"/>
       <use x="159.033203" xlink:href="#DejaVuSans-48"/>
      </g>
     </g>
    </g>
   </g>
   <g id="matplotlib.axis_2">
    <g id="ytick_1">
     <g id="line2d_10">
      <defs>
       <path d="M 0 0 
L -3.5 0 
" id="m749636e2a5" style="stroke:#000000;stroke-width:0.8;"/>
      </defs>
      <g>
       <use style="stroke:#000000;stroke-width:0.8;" x="39.65" xlink:href="#m749636e2a5" y="261.216"/>
      </g>
     </g>
     <g id="text_10">
      <!-- 0 -->
      <g transform="translate(26.2875 265.015219)scale(0.1 -0.1)">
       <use xlink:href="#DejaVuSans-48"/>
      </g>
     </g>
    </g>
    <g id="ytick_2">
     <g id="line2d_11">
      <g>
       <use style="stroke:#000000;stroke-width:0.8;" x="39.65" xlink:href="#m749636e2a5" y="222.221803"/>
      </g>
     </g>
     <g id="text_11">
      <!-- 500 -->
      <g transform="translate(13.5625 226.021021)scale(0.1 -0.1)">
       <use xlink:href="#DejaVuSans-53"/>
       <use x="63.623047" xlink:href="#DejaVuSans-48"/>
       <use x="127.246094" xlink:href="#DejaVuSans-48"/>
      </g>
     </g>
    </g>
    <g id="ytick_3">
     <g id="line2d_12">
      <g>
       <use style="stroke:#000000;stroke-width:0.8;" x="39.65" xlink:href="#m749636e2a5" y="183.227605"/>
      </g>
     </g>
     <g id="text_12">
      <!-- 1000 -->
      <g transform="translate(7.2 187.026824)scale(0.1 -0.1)">
       <use xlink:href="#DejaVuSans-49"/>
       <use x="63.623047" xlink:href="#DejaVuSans-48"/>
       <use x="127.246094" xlink:href="#DejaVuSans-48"/>
       <use x="190.869141" xlink:href="#DejaVuSans-48"/>
      </g>
     </g>
    </g>
    <g id="ytick_4">
     <g id="line2d_13">
      <g>
       <use style="stroke:#000000;stroke-width:0.8;" x="39.65" xlink:href="#m749636e2a5" y="144.233408"/>
      </g>
     </g>
     <g id="text_13">
      <!-- 1500 -->
      <g transform="translate(7.2 148.032627)scale(0.1 -0.1)">
       <use xlink:href="#DejaVuSans-49"/>
       <use x="63.623047" xlink:href="#DejaVuSans-53"/>
       <use x="127.246094" xlink:href="#DejaVuSans-48"/>
       <use x="190.869141" xlink:href="#DejaVuSans-48"/>
      </g>
     </g>
    </g>
    <g id="ytick_5">
     <g id="line2d_14">
      <g>
       <use style="stroke:#000000;stroke-width:0.8;" x="39.65" xlink:href="#m749636e2a5" y="105.239211"/>
      </g>
     </g>
     <g id="text_14">
      <!-- 2000 -->
      <g transform="translate(7.2 109.03843)scale(0.1 -0.1)">
       <use xlink:href="#DejaVuSans-50"/>
       <use x="63.623047" xlink:href="#DejaVuSans-48"/>
       <use x="127.246094" xlink:href="#DejaVuSans-48"/>
       <use x="190.869141" xlink:href="#DejaVuSans-48"/>
      </g>
     </g>
    </g>
    <g id="ytick_6">
     <g id="line2d_15">
      <g>
       <use style="stroke:#000000;stroke-width:0.8;" x="39.65" xlink:href="#m749636e2a5" y="66.245014"/>
      </g>
     </g>
     <g id="text_15">
      <!-- 2500 -->
      <g transform="translate(7.2 70.044232)scale(0.1 -0.1)">
       <use xlink:href="#DejaVuSans-50"/>
       <use x="63.623047" xlink:href="#DejaVuSans-53"/>
       <use x="127.246094" xlink:href="#DejaVuSans-48"/>
       <use x="190.869141" xlink:href="#DejaVuSans-48"/>
      </g>
     </g>
    </g>
    <g id="ytick_7">
     <g id="line2d_16">
      <g>
       <use style="stroke:#000000;stroke-width:0.8;" x="39.65" xlink:href="#m749636e2a5" y="27.250816"/>
      </g>
     </g>
     <g id="text_16">
      <!-- 3000 -->
      <g transform="translate(7.2 31.050035)scale(0.1 -0.1)">
       <defs>
        <path d="M 40.578125 39.3125 
Q 47.65625 37.796875 51.625 33 
Q 55.609375 28.21875 55.609375 21.1875 
Q 55.609375 10.40625 48.1875 4.484375 
Q 40.765625 -1.421875 27.09375 -1.421875 
Q 22.515625 -1.421875 17.65625 -0.515625 
Q 12.796875 0.390625 7.625 2.203125 
L 7.625 11.71875 
Q 11.71875 9.328125 16.59375 8.109375 
Q 21.484375 6.890625 26.8125 6.890625 
Q 36.078125 6.890625 40.9375 10.546875 
Q 45.796875 14.203125 45.796875 21.1875 
Q 45.796875 27.640625 41.28125 31.265625 
Q 36.765625 34.90625 28.71875 34.90625 
L 20.21875 34.90625 
L 20.21875 43.015625 
L 29.109375 43.015625 
Q 36.375 43.015625 40.234375 45.921875 
Q 44.09375 48.828125 44.09375 54.296875 
Q 44.09375 59.90625 40.109375 62.90625 
Q 36.140625 65.921875 28.71875 65.921875 
Q 24.65625 65.921875 20.015625 65.03125 
Q 15.375 64.15625 9.8125 62.3125 
L 9.8125 71.09375 
Q 15.4375 72.65625 20.34375 73.4375 
Q 25.25 74.21875 29.59375 74.21875 
Q 40.828125 74.21875 47.359375 69.109375 
Q 53.90625 64.015625 53.90625 55.328125 
Q 53.90625 49.265625 50.4375 45.09375 
Q 46.96875 40.921875 40.578125 39.3125 
z
" id="DejaVuSans-51"/>
       </defs>
       <use xlink:href="#DejaVuSans-51"/>
       <use x="63.623047" xlink:href="#DejaVuSans-48"/>
       <use x="127.246094" xlink:href="#DejaVuSans-48"/>
       <use x="190.869141" xlink:href="#DejaVuSans-48"/>
      </g>
     </g>
    </g>
   </g>
   <g id="line2d_17">
    <path clip-path="url(#p1f3e0ef7fb)" d="M 55.882727 261.216 
L 59.961302 241.718901 
L 64.039877 223.845911 
L 68.118451 207.461741 
L 72.197026 192.442372 
L 76.275601 178.674117 
L 80.354175 166.052757 
L 84.43275 154.482756 
L 88.511325 143.876537 
L 92.589899 134.153815 
L 96.668474 125.240997 
L 100.747049 117.070616 
L 104.825624 109.580828 
L 108.904198 102.714939 
L 112.982773 96.420979 
L 117.061348 90.651305 
L 121.139922 85.362246 
L 125.218497 80.513765 
L 129.297072 76.069162 
L 133.375646 71.994795 
L 137.454221 68.259823 
L 141.532796 64.835974 
L 145.61137 61.697331 
L 149.689945 58.820138 
L 153.76852 56.182615 
L 157.847095 53.764797 
L 161.925669 51.548383 
L 166.004244 49.516597 
L 170.082819 47.654059 
L 174.161393 45.94667 
L 178.239968 44.381506 
L 182.318543 42.946721 
L 186.397117 41.631453 
L 190.475692 40.425748 
L 194.554267 39.320477 
L 198.632841 38.307275 
L 202.711416 37.378473 
L 206.789991 36.527041 
L 210.868566 35.746532 
L 214.94714 35.03104 
L 219.025715 34.375149 
L 223.10429 33.773893 
L 227.182864 33.222722 
L 231.261439 32.717463 
L 235.340014 32.254293 
L 239.418588 31.829704 
L 243.497163 31.440484 
L 247.575738 31.083686 
L 251.654312 30.756609 
L 255.732887 30.456778 
L 259.811462 30.181922 
L 263.890037 29.929962 
L 267.968611 29.698991 
L 272.047186 29.487259 
L 276.125761 29.293164 
L 280.204335 29.115238 
L 284.28291 28.952133 
L 288.361485 28.802614 
L 292.440059 28.665551 
L 296.518634 28.539904 
L 300.597209 28.424725 
L 304.675783 28.319139 
L 308.754358 28.222349 
L 312.832933 28.133621 
L 316.911508 28.052285 
L 320.990082 27.977724 
L 325.068657 27.909374 
L 329.147232 27.846717 
L 333.225806 27.78928 
L 337.304381 27.736627 
L 341.382956 27.68836 
L 345.46153 27.644114 
L 349.540105 27.603553 
L 353.61868 27.566371 
L 357.697254 27.532287 
L 361.775829 27.501041 
L 365.854404 27.472399 
L 369.932979 27.446142 
L 374.011553 27.422073 
L 378.090128 27.400008 
" style="fill:none;stroke:#1f77b4;stroke-linecap:square;stroke-width:1.5;"/>
   </g>
   <g id="line2d_18">
    <path clip-path="url(#p1f3e0ef7fb)" d="M 55.882727 261.216 
L 59.961302 261.216 
L 64.039877 259.591892 
L 68.118451 256.749702 
L 72.197026 253.016504 
L 76.275601 248.654517 
L 80.354175 243.872777 
L 84.43275 238.836794 
L 88.511325 233.676529 
L 92.589899 228.492981 
L 96.668474 223.363629 
L 100.747049 218.346901 
L 104.825624 213.485869 
L 108.904198 208.811272 
L 112.982773 204.344002 
L 117.061348 200.097139 
L 121.139922 196.077614 
L 125.218497 192.287565 
L 129.297072 188.725439 
L 133.375646 185.386884 
L 137.454221 182.265471 
L 141.532796 179.353275 
L 145.61137 176.641335 
L 149.689945 174.120027 
L 153.76852 171.77935 
L 157.847095 169.609159 
L 161.925669 167.599334 
L 166.004244 165.73992 
L 170.082819 164.021222 
L 174.161393 162.433882 
L 178.239968 160.968926 
L 182.318543 159.6178 
L 186.397117 158.372389 
L 190.475692 157.225026 
L 194.554267 156.168493 
L 198.632841 155.196016 
L 202.711416 154.30125 
L 206.789991 153.478273 
L 210.868566 152.721562 
L 214.94714 152.025978 
L 219.025715 151.386748 
L 223.10429 150.799441 
L 227.182864 150.259954 
L 231.261439 149.764487 
L 235.340014 149.309526 
L 239.418588 148.891825 
L 243.497163 148.508387 
L 247.575738 148.156445 
L 251.654312 147.833451 
L 255.732887 147.537055 
L 259.811462 147.265092 
L 263.890037 147.01557 
L 267.968611 146.786654 
L 272.047186 146.576659 
L 276.125761 146.384033 
L 280.204335 146.20735 
L 284.28291 146.045298 
L 288.361485 145.896674 
L 292.440059 145.760371 
L 296.518634 145.635372 
L 300.597209 145.520744 
L 304.675783 145.41563 
L 308.754358 145.319243 
L 312.832933 145.230861 
L 316.911508 145.149822 
L 320.990082 145.075516 
L 325.068657 145.007386 
L 329.147232 144.94492 
L 333.225806 144.887648 
L 337.304381 144.835138 
L 341.382956 144.786996 
L 345.46153 144.742859 
L 349.540105 144.702393 
L 353.61868 144.665295 
L 357.697254 144.631283 
L 361.775829 144.600102 
L 365.854404 144.571516 
L 369.932979 144.54531 
L 374.011553 144.521285 
L 378.090128 144.49926 
" style="fill:none;stroke:#ff7f0e;stroke-linecap:square;stroke-width:1.5;"/>
   </g>
   <g id="line2d_19">
    <path clip-path="url(#p1f3e0ef7fb)" d="M 55.882727 261.216 
L 57.514157 254.586986 
L 59.145587 246.944124 
L 60.777017 238.677354 
L 62.408447 232.204317 
L 64.039877 226.901106 
L 65.671307 220.350081 
L 67.302736 213.331126 
L 68.934166 208.417857 
L 70.565596 203.972518 
L 73.828456 191.494375 
L 75.459886 187.594956 
L 77.091316 182.057779 
L 78.722746 177.456464 
L 81.985605 166.538089 
L 83.617035 162.404704 
L 85.248465 159.67511 
L 86.879895 154.917818 
L 88.511325 150.94041 
L 90.142755 148.210816 
L 91.774185 145.013292 
L 95.037044 137.292441 
L 98.299904 130.429462 
L 101.562764 121.616774 
L 103.194194 120.446948 
L 104.825624 116.547528 
L 106.457053 113.427992 
L 108.088483 110.62041 
L 109.719913 108.046793 
L 114.614203 100.949849 
L 116.245633 101.183814 
L 117.877063 97.51836 
L 119.508492 94.944743 
L 121.139922 93.384975 
L 122.771352 92.605091 
L 124.402782 92.059172 
L 126.034212 89.563544 
L 127.665642 88.861648 
L 129.297072 87.30188 
L 130.928502 83.948379 
L 132.559931 83.012518 
L 134.191361 79.659017 
L 135.822791 77.397354 
L 137.454221 74.901725 
L 139.085651 74.043853 
L 140.717081 72.484085 
L 143.979941 70.456387 
L 145.61137 69.598515 
L 150.50566 67.492828 
L 152.13709 64.763234 
L 153.76852 63.593408 
L 155.39995 60.08393 
L 157.03138 59.226058 
L 158.66281 57.120371 
L 160.294239 56.262499 
L 161.925669 53.76687 
L 163.557099 52.285091 
L 165.188529 52.597044 
L 166.819959 50.413369 
L 168.451389 51.115265 
L 170.082819 50.725323 
L 171.714249 49.711474 
L 173.345678 48.151706 
L 174.977108 49.945439 
L 176.608538 47.995729 
L 178.239968 47.917741 
L 179.871398 47.44981 
L 181.502828 48.385671 
L 183.134258 48.151706 
L 184.765688 46.98188 
L 186.397117 43.784356 
L 188.028547 42.458553 
L 189.659977 40.898785 
L 191.291407 40.742809 
L 192.922837 41.834646 
L 194.554267 41.834646 
L 196.185697 39.962925 
L 197.817127 40.19689 
L 199.448556 39.650971 
L 201.079986 40.19689 
L 202.711416 38.793099 
L 204.342846 38.71511 
L 205.974276 37.545284 
L 207.605706 36.531435 
L 209.237136 35.907528 
L 210.868566 36.687412 
L 212.499995 36.609424 
L 214.131425 37.233331 
L 215.762855 35.673563 
L 217.394285 34.737702 
L 219.025715 34.269772 
L 220.657145 33.645865 
L 222.288575 33.567876 
L 225.551434 32.710004 
L 227.182864 33.255923 
L 228.814294 31.93012 
L 230.445724 33.099946 
L 232.077154 33.021957 
L 233.708584 33.957818 
L 235.340014 35.439598 
L 236.971444 34.893679 
L 238.602873 33.957818 
L 240.234303 33.957818 
L 241.865733 31.852132 
L 243.497163 33.411899 
L 245.128593 34.659714 
L 246.760023 32.865981 
L 248.391453 31.306213 
L 250.022883 32.320062 
L 251.654312 31.540178 
L 253.285742 30.44834 
L 254.917172 31.306213 
L 256.548602 32.320062 
L 258.180032 32.476039 
L 259.811462 32.39805 
L 261.442892 32.554027 
L 263.074322 31.306213 
L 264.705751 31.150236 
L 266.337181 31.540178 
L 267.968611 29.902422 
L 269.600041 29.590468 
L 271.231471 30.44834 
L 272.862901 29.590468 
L 274.494331 30.604317 
L 276.125761 30.526329 
L 277.75719 31.774143 
L 279.38862 32.710004 
L 281.02005 31.696155 
L 282.65148 33.957818 
L 284.28291 33.645865 
L 285.91434 33.177934 
L 287.54577 35.205632 
L 289.1772 33.333911 
L 292.440059 33.255923 
L 294.071489 34.34776 
L 295.702919 35.82954 
L 297.334349 35.205632 
L 298.965779 34.34776 
L 300.597209 34.191783 
L 302.228639 34.581725 
L 303.860069 33.801841 
L 305.491498 34.503737 
L 307.122928 33.333911 
L 308.754358 33.87983 
L 310.385788 34.191783 
L 312.017218 33.333911 
L 313.648648 33.87983 
L 315.280078 33.489888 
L 316.911508 34.659714 
L 318.542937 34.503737 
L 320.174367 33.333911 
L 323.437227 33.333911 
L 325.068657 31.93012 
L 326.700087 30.682306 
L 328.331517 31.774143 
L 329.962947 31.072248 
L 331.594376 27.016851 
L 333.225806 25.925014 
L 334.857236 24.989153 
L 336.488666 23.117431 
L 338.120096 22.727489 
L 339.751526 21.869617 
L 341.382956 23.585362 
L 343.014386 23.741338 
L 344.645815 25.379095 
L 346.277245 23.819327 
L 347.908675 23.117431 
L 349.540105 23.117431 
L 351.171535 22.727489 
L 352.802965 22.571513 
L 354.434395 21.791629 
L 356.065825 20.387838 
L 357.697254 20.231861 
L 359.328684 21.167721 
L 360.960114 19.529965 
L 362.591544 19.607954 
L 364.222974 19.296 
L 365.854404 19.373988 
L 367.485834 19.841919 
L 369.117264 21.24571 
L 370.748693 20.465826 
L 372.380123 21.167721 
L 374.011553 22.883466 
L 375.642983 24.13128 
L 377.274413 23.039443 
L 378.905843 23.975304 
L 380.537273 23.273408 
L 380.537273 23.273408 
" style="fill:none;stroke:#2ca02c;stroke-linecap:square;stroke-width:1.5;"/>
   </g>
   <g id="line2d_20">
    <path clip-path="url(#p1f3e0ef7fb)" d="M 55.882727 261.216 
L 59.145587 260.826058 
L 60.777017 260.514104 
L 62.408447 259.734221 
L 64.039877 258.252441 
L 67.302736 256.614685 
L 68.934166 255.132905 
L 72.197026 250.687567 
L 73.828456 249.751706 
L 75.459886 247.724008 
L 77.091316 246.476193 
L 78.722746 244.292518 
L 81.985605 240.939017 
L 83.617035 239.84718 
L 85.248465 237.42954 
L 88.511325 233.53012 
L 90.142755 231.11248 
L 91.774185 228.460874 
L 93.405614 227.992944 
L 95.037044 226.511164 
L 96.668474 224.093524 
L 98.299904 222.299791 
L 99.931334 219.648186 
L 101.562764 219.570197 
L 103.194194 217.152557 
L 104.825624 215.514801 
L 106.457053 213.253137 
L 108.088483 212.707219 
L 109.719913 210.913485 
L 112.982773 205.84424 
L 114.614203 203.972518 
L 116.245633 200.930971 
L 119.508492 196.641609 
L 122.771352 191.806329 
L 124.402782 191.72834 
L 126.034212 190.558515 
L 127.665642 189.700642 
L 129.297072 188.530816 
L 130.928502 187.594956 
L 132.559931 185.723234 
L 134.191361 186.659095 
L 135.822791 185.489269 
L 137.454221 185.177315 
L 139.085651 182.681687 
L 140.717081 182.447721 
L 142.348511 181.589849 
L 143.979941 181.745826 
L 145.61137 180.186058 
L 147.2428 179.250197 
L 148.87423 177.612441 
L 150.50566 175.428766 
L 152.13709 175.350778 
L 153.76852 174.180952 
L 155.39995 175.194801 
L 157.03138 173.011126 
L 158.66281 172.153253 
L 160.294239 171.139404 
L 161.925669 171.919288 
L 163.557099 170.671474 
L 165.188529 170.047567 
L 166.819959 169.969578 
L 168.451389 169.579636 
L 170.082819 169.42366 
L 171.714249 166.928031 
L 173.345678 167.317973 
L 174.977108 164.198437 
L 176.608538 163.652518 
L 178.239968 163.418553 
L 179.871398 162.872634 
L 181.502828 161.780797 
L 183.134258 160.844936 
L 184.765688 160.610971 
L 186.397117 160.688959 
L 188.028547 158.817238 
L 189.659977 158.349308 
L 191.291407 158.271319 
L 192.922837 157.101493 
L 196.185697 158.115342 
L 197.817127 157.25747 
L 199.448556 157.7254 
L 201.079986 158.583273 
L 202.711416 158.115342 
L 204.342846 157.491435 
L 205.974276 156.555574 
L 207.605706 153.981957 
L 209.237136 152.42219 
L 210.868566 152.188224 
L 212.499995 152.89012 
L 214.131425 151.720294 
L 215.762855 153.202074 
L 217.394285 153.981957 
L 219.025715 153.436039 
L 220.657145 153.592015 
L 223.920005 150.862422 
L 225.551434 151.330352 
L 227.182864 149.224665 
L 228.814294 149.068689 
L 230.445724 147.586909 
L 232.077154 147.430932 
L 233.708584 147.664897 
L 235.340014 145.871164 
L 238.602873 144.077431 
L 240.234303 144.935304 
L 241.865733 145.637199 
L 243.497163 145.793176 
L 245.128593 144.077431 
L 246.760023 146.10513 
L 248.391453 146.10513 
L 250.022883 144.467373 
L 251.654312 143.999443 
L 253.285742 143.765478 
L 254.917172 141.815768 
L 258.180032 143.453524 
L 259.811462 143.609501 
L 261.442892 143.063582 
L 263.074322 144.077431 
L 264.705751 143.687489 
L 266.337181 143.921455 
L 267.968611 144.779327 
L 269.600041 144.935304 
L 271.231471 145.325246 
L 272.862901 146.261106 
L 274.494331 144.857315 
L 276.125761 145.871164 
L 277.75719 146.729037 
L 279.38862 146.027141 
L 281.02005 147.352944 
L 282.65148 144.935304 
L 284.28291 145.013292 
L 285.91434 146.495072 
L 287.54577 146.885014 
L 289.1772 147.820874 
L 290.80863 147.742886 
L 292.440059 148.9907 
L 294.071489 147.430932 
L 295.702919 146.651048 
L 297.334349 147.274956 
L 298.965779 149.146677 
L 300.597209 148.444781 
L 302.228639 146.57306 
L 303.860069 147.586909 
L 305.491498 145.715188 
L 307.122928 146.027141 
L 308.754358 144.935304 
L 310.385788 144.701338 
L 312.017218 146.183118 
L 313.648648 146.57306 
L 315.280078 146.495072 
L 316.911508 145.871164 
L 318.542937 145.481222 
L 321.805797 145.09128 
L 323.437227 144.545362 
L 325.068657 144.62335 
L 326.700087 146.027141 
L 328.331517 143.999443 
L 329.962947 144.077431 
L 331.594376 144.62335 
L 333.225806 145.013292 
L 334.857236 145.247257 
L 336.488666 146.57306 
L 338.120096 146.339095 
L 339.751526 147.04099 
L 341.382956 146.729037 
L 343.014386 147.742886 
L 344.645815 147.274956 
L 347.908675 149.068689 
L 349.540105 148.444781 
L 351.171535 147.118979 
L 352.802965 145.559211 
L 354.434395 144.467373 
L 356.065825 146.261106 
L 357.697254 145.247257 
L 359.328684 143.687489 
L 360.960114 144.077431 
L 364.222974 143.765478 
L 365.854404 141.191861 
L 367.485834 140.489965 
L 369.117264 142.049733 
L 370.748693 142.829617 
L 372.380123 142.439675 
L 374.011553 141.893756 
L 375.642983 142.361687 
L 377.274413 143.531513 
L 378.905843 141.815768 
L 380.537273 142.907605 
L 380.537273 142.907605 
" style="fill:none;stroke:#d62728;stroke-linecap:square;stroke-width:1.5;"/>
   </g>
   <g id="patch_3">
    <path d="M 39.65 273.312 
L 39.65 7.2 
" style="fill:none;stroke:#000000;stroke-linecap:square;stroke-linejoin:miter;stroke-width:0.8;"/>
   </g>
   <g id="patch_4">
    <path d="M 396.77 273.312 
L 396.77 7.2 
" style="fill:none;stroke:#000000;stroke-linecap:square;stroke-linejoin:miter;stroke-width:0.8;"/>
   </g>
   <g id="patch_5">
    <path d="M 39.65 273.312 
L 396.77 273.312 
" style="fill:none;stroke:#000000;stroke-linecap:square;stroke-linejoin:miter;stroke-width:0.8;"/>
   </g>
   <g id="patch_6">
    <path d="M 39.65 7.2 
L 396.77 7.2 
" style="fill:none;stroke:#000000;stroke-linecap:square;stroke-linejoin:miter;stroke-width:0.8;"/>
   </g>
  </g>
 </g>
 <defs>
  <clipPath id="p1f3e0ef7fb">
   <rect height="266.112" width="357.12" x="39.65" y="7.2"/>
  </clipPath>
 </defs>
</svg>
