<?xml version="1.0" encoding="utf-8" standalone="no"?>
<!DOCTYPE svg PUBLIC "-//W3C//DTD SVG 1.1//EN"
  "http://www.w3.org/Graphics/SVG/1.1/DTD/svg11.dtd">
<svg xmlns:xlink="http://www.w3.org/1999/xlink" width="403.97pt" height="297.190125pt" viewBox="0 0 403.97 297.190125" xmlns="http://www.w3.org/2000/svg" version="1.1">
 <metadata>
  <rdf:RDF xmlns:dc="http://purl.org/dc/elements/1.1/" xmlns:cc="http://creativecommons.org/ns#" xmlns:rdf="http://www.w3.org/1999/02/22-rdf-syntax-ns#">
   <cc:Work>
    <dc:type rdf:resource="http://purl.org/dc/dcmitype/StillImage"/>
    <dc:date>2025-02-17T13:18:09.056857</dc:date>
    <dc:format>image/svg+xml</dc:format>
    <dc:creator>
     <cc:Agent>
      <dc:title>Matplotlib v3.10.0, https://matplotlib.org/</dc:title>
     </cc:Agent>
    </dc:creator>
   </cc:Work>
  </rdf:RDF>
 </metadata>
 <defs>
  <style type="text/css">*{stroke-linejoin: round; stroke-linecap: butt}</style>
 </defs>
 <g id="figure_1">
  <g id="patch_1">
   <path d="M 0 297.190125 
L 403.97 297.190125 
L 403.97 0 
L 0 0 
z
" style="fill: #ffffff"/>
  </g>
  <g id="axes_1">
   <g id="patch_2">
    <path d="M 39.65 273.312 
L 396.77 273.312 
L 396.77 7.2 
L 39.65 7.2 
z
" style="fill: #ffffff"/>
   </g>
   <g id="matplotlib.axis_1">
    <g id="xtick_1">
     <g id="line2d_1">
      <defs>
       <path id="m1bd0a3649a" d="M 0 0 
L 0 3.5 
" style="stroke: #000000; stroke-width: 0.8"/>
      </defs>
      <g>
       <use xlink:href="#m1bd0a3649a" x="55.882727" y="273.312" style="stroke: #000000; stroke-width: 0.8"/>
      </g>
     </g>
     <g id="text_1">
      <!-- 0.0 -->
      <g transform="translate(47.931165 287.910437) scale(0.1 -0.1)">
       <defs>
        <path id="DejaVuSans-30" d="M 2034 4250 
Q 1547 4250 1301 3770 
Q 1056 3291 1056 2328 
Q 1056 1369 1301 889 
Q 1547 409 2034 409 
Q 2525 409 2770 889 
Q 3016 1369 3016 2328 
Q 3016 3291 2770 3770 
Q 2525 4250 2034 4250 
z
M 2034 4750 
Q 2819 4750 3233 4129 
Q 3647 3509 3647 2328 
Q 3647 1150 3233 529 
Q 2819 -91 2034 -91 
Q 1250 -91 836 529 
Q 422 1150 422 2328 
Q 422 3509 836 4129 
Q 1250 4750 2034 4750 
z
" transform="scale(0.015625)"/>
        <path id="DejaVuSans-2e" d="M 684 794 
L 1344 794 
L 1344 0 
L 684 0 
L 684 794 
z
" transform="scale(0.015625)"/>
       </defs>
       <use xlink:href="#DejaVuSans-30"/>
       <use xlink:href="#DejaVuSans-2e" transform="translate(63.623047 0)"/>
       <use xlink:href="#DejaVuSans-30" transform="translate(95.410156 0)"/>
      </g>
     </g>
    </g>
    <g id="xtick_2">
     <g id="line2d_2">
      <g>
       <use xlink:href="#m1bd0a3649a" x="96.668474" y="273.312" style="stroke: #000000; stroke-width: 0.8"/>
      </g>
     </g>
     <g id="text_2">
      <!-- 2.5 -->
      <g transform="translate(88.716912 287.910437) scale(0.1 -0.1)">
       <defs>
        <path id="DejaVuSans-32" d="M 1228 531 
L 3431 531 
L 3431 0 
L 469 0 
L 469 531 
Q 828 903 1448 1529 
Q 2069 2156 2228 2338 
Q 2531 2678 2651 2914 
Q 2772 3150 2772 3378 
Q 2772 3750 2511 3984 
Q 2250 4219 1831 4219 
Q 1534 4219 1204 4116 
Q 875 4013 500 3803 
L 500 4441 
Q 881 4594 1212 4672 
Q 1544 4750 1819 4750 
Q 2544 4750 2975 4387 
Q 3406 4025 3406 3419 
Q 3406 3131 3298 2873 
Q 3191 2616 2906 2266 
Q 2828 2175 2409 1742 
Q 1991 1309 1228 531 
z
" transform="scale(0.015625)"/>
        <path id="DejaVuSans-35" d="M 691 4666 
L 3169 4666 
L 3169 4134 
L 1269 4134 
L 1269 2991 
Q 1406 3038 1543 3061 
Q 1681 3084 1819 3084 
Q 2600 3084 3056 2656 
Q 3513 2228 3513 1497 
Q 3513 744 3044 326 
Q 2575 -91 1722 -91 
Q 1428 -91 1123 -41 
Q 819 9 494 109 
L 494 744 
Q 775 591 1075 516 
Q 1375 441 1709 441 
Q 2250 441 2565 725 
Q 2881 1009 2881 1497 
Q 2881 1984 2565 2268 
Q 2250 2553 1709 2553 
Q 1456 2553 1204 2497 
Q 953 2441 691 2322 
L 691 4666 
z
" transform="scale(0.015625)"/>
       </defs>
       <use xlink:href="#DejaVuSans-32"/>
       <use xlink:href="#DejaVuSans-2e" transform="translate(63.623047 0)"/>
       <use xlink:href="#DejaVuSans-35" transform="translate(95.410156 0)"/>
      </g>
     </g>
    </g>
    <g id="xtick_3">
     <g id="line2d_3">
      <g>
       <use xlink:href="#m1bd0a3649a" x="137.454221" y="273.312" style="stroke: #000000; stroke-width: 0.8"/>
      </g>
     </g>
     <g id="text_3">
      <!-- 5.0 -->
      <g transform="translate(129.502659 287.910437) scale(0.1 -0.1)">
       <use xlink:href="#DejaVuSans-35"/>
       <use xlink:href="#DejaVuSans-2e" transform="translate(63.623047 0)"/>
       <use xlink:href="#DejaVuSans-30" transform="translate(95.410156 0)"/>
      </g>
     </g>
    </g>
    <g id="xtick_4">
     <g id="line2d_4">
      <g>
       <use xlink:href="#m1bd0a3649a" x="178.239968" y="273.312" style="stroke: #000000; stroke-width: 0.8"/>
      </g>
     </g>
     <g id="text_4">
      <!-- 7.5 -->
      <g transform="translate(170.288406 287.910437) scale(0.1 -0.1)">
       <defs>
        <path id="DejaVuSans-37" d="M 525 4666 
L 3525 4666 
L 3525 4397 
L 1831 0 
L 1172 0 
L 2766 4134 
L 525 4134 
L 525 4666 
z
" transform="scale(0.015625)"/>
       </defs>
       <use xlink:href="#DejaVuSans-37"/>
       <use xlink:href="#DejaVuSans-2e" transform="translate(63.623047 0)"/>
       <use xlink:href="#DejaVuSans-35" transform="translate(95.410156 0)"/>
      </g>
     </g>
    </g>
    <g id="xtick_5">
     <g id="line2d_5">
      <g>
       <use xlink:href="#m1bd0a3649a" x="219.025715" y="273.312" style="stroke: #000000; stroke-width: 0.8"/>
      </g>
     </g>
     <g id="text_5">
      <!-- 10.0 -->
      <g transform="translate(207.892902 287.910437) scale(0.1 -0.1)">
       <defs>
        <path id="DejaVuSans-31" d="M 794 531 
L 1825 531 
L 1825 4091 
L 703 3866 
L 703 4441 
L 1819 4666 
L 2450 4666 
L 2450 531 
L 3481 531 
L 3481 0 
L 794 0 
L 794 531 
z
" transform="scale(0.015625)"/>
       </defs>
       <use xlink:href="#DejaVuSans-31"/>
       <use xlink:href="#DejaVuSans-30" transform="translate(63.623047 0)"/>
       <use xlink:href="#DejaVuSans-2e" transform="translate(127.246094 0)"/>
       <use xlink:href="#DejaVuSans-30" transform="translate(159.033203 0)"/>
      </g>
     </g>
    </g>
    <g id="xtick_6">
     <g id="line2d_6">
      <g>
       <use xlink:href="#m1bd0a3649a" x="259.811462" y="273.312" style="stroke: #000000; stroke-width: 0.8"/>
      </g>
     </g>
     <g id="text_6">
      <!-- 12.5 -->
      <g transform="translate(248.678649 287.910437) scale(0.1 -0.1)">
       <use xlink:href="#DejaVuSans-31"/>
       <use xlink:href="#DejaVuSans-32" transform="translate(63.623047 0)"/>
       <use xlink:href="#DejaVuSans-2e" transform="translate(127.246094 0)"/>
       <use xlink:href="#DejaVuSans-35" transform="translate(159.033203 0)"/>
      </g>
     </g>
    </g>
    <g id="xtick_7">
     <g id="line2d_7">
      <g>
       <use xlink:href="#m1bd0a3649a" x="300.597209" y="273.312" style="stroke: #000000; stroke-width: 0.8"/>
      </g>
     </g>
     <g id="text_7">
      <!-- 15.0 -->
      <g transform="translate(289.464396 287.910437) scale(0.1 -0.1)">
       <use xlink:href="#DejaVuSans-31"/>
       <use xlink:href="#DejaVuSans-35" transform="translate(63.623047 0)"/>
       <use xlink:href="#DejaVuSans-2e" transform="translate(127.246094 0)"/>
       <use xlink:href="#DejaVuSans-30" transform="translate(159.033203 0)"/>
      </g>
     </g>
    </g>
    <g id="xtick_8">
     <g id="line2d_8">
      <g>
       <use xlink:href="#m1bd0a3649a" x="341.382956" y="273.312" style="stroke: #000000; stroke-width: 0.8"/>
      </g>
     </g>
     <g id="text_8">
      <!-- 17.5 -->
      <g transform="translate(330.250143 287.910437) scale(0.1 -0.1)">
       <use xlink:href="#DejaVuSans-31"/>
       <use xlink:href="#DejaVuSans-37" transform="translate(63.623047 0)"/>
       <use xlink:href="#DejaVuSans-2e" transform="translate(127.246094 0)"/>
       <use xlink:href="#DejaVuSans-35" transform="translate(159.033203 0)"/>
      </g>
     </g>
    </g>
    <g id="xtick_9">
     <g id="line2d_9">
      <g>
       <use xlink:href="#m1bd0a3649a" x="382.168703" y="273.312" style="stroke: #000000; stroke-width: 0.8"/>
      </g>
     </g>
     <g id="text_9">
      <!-- 20.0 -->
      <g transform="translate(371.03589 287.910437) scale(0.1 -0.1)">
       <use xlink:href="#DejaVuSans-32"/>
       <use xlink:href="#DejaVuSans-30" transform="translate(63.623047 0)"/>
       <use xlink:href="#DejaVuSans-2e" transform="translate(127.246094 0)"/>
       <use xlink:href="#DejaVuSans-30" transform="translate(159.033203 0)"/>
      </g>
     </g>
    </g>
   </g>
   <g id="matplotlib.axis_2">
    <g id="ytick_1">
     <g id="line2d_10">
      <defs>
       <path id="m6d02b9417b" d="M 0 0 
L -3.5 0 
" style="stroke: #000000; stroke-width: 0.8"/>
      </defs>
      <g>
       <use xlink:href="#m6d02b9417b" x="39.65" y="261.216" style="stroke: #000000; stroke-width: 0.8"/>
      </g>
     </g>
     <g id="text_10">
      <!-- 0 -->
      <g transform="translate(26.2875 265.015219) scale(0.1 -0.1)">
       <use xlink:href="#DejaVuSans-30"/>
      </g>
     </g>
    </g>
    <g id="ytick_2">
     <g id="line2d_11">
      <g>
       <use xlink:href="#m6d02b9417b" x="39.65" y="226.862876" style="stroke: #000000; stroke-width: 0.8"/>
      </g>
     </g>
     <g id="text_11">
      <!-- 500 -->
      <g transform="translate(13.5625 230.662095) scale(0.1 -0.1)">
       <use xlink:href="#DejaVuSans-35"/>
       <use xlink:href="#DejaVuSans-30" transform="translate(63.623047 0)"/>
       <use xlink:href="#DejaVuSans-30" transform="translate(127.246094 0)"/>
      </g>
     </g>
    </g>
    <g id="ytick_3">
     <g id="line2d_12">
      <g>
       <use xlink:href="#m6d02b9417b" x="39.65" y="192.509752" style="stroke: #000000; stroke-width: 0.8"/>
      </g>
     </g>
     <g id="text_12">
      <!-- 1000 -->
      <g transform="translate(7.2 196.308971) scale(0.1 -0.1)">
       <use xlink:href="#DejaVuSans-31"/>
       <use xlink:href="#DejaVuSans-30" transform="translate(63.623047 0)"/>
       <use xlink:href="#DejaVuSans-30" transform="translate(127.246094 0)"/>
       <use xlink:href="#DejaVuSans-30" transform="translate(190.869141 0)"/>
      </g>
     </g>
    </g>
    <g id="ytick_4">
     <g id="line2d_13">
      <g>
       <use xlink:href="#m6d02b9417b" x="39.65" y="158.156628" style="stroke: #000000; stroke-width: 0.8"/>
      </g>
     </g>
     <g id="text_13">
      <!-- 1500 -->
      <g transform="translate(7.2 161.955847) scale(0.1 -0.1)">
       <use xlink:href="#DejaVuSans-31"/>
       <use xlink:href="#DejaVuSans-35" transform="translate(63.623047 0)"/>
       <use xlink:href="#DejaVuSans-30" transform="translate(127.246094 0)"/>
       <use xlink:href="#DejaVuSans-30" transform="translate(190.869141 0)"/>
      </g>
     </g>
    </g>
    <g id="ytick_5">
     <g id="line2d_14">
      <g>
       <use xlink:href="#m6d02b9417b" x="39.65" y="123.803504" style="stroke: #000000; stroke-width: 0.8"/>
      </g>
     </g>
     <g id="text_14">
      <!-- 2000 -->
      <g transform="translate(7.2 127.602722) scale(0.1 -0.1)">
       <use xlink:href="#DejaVuSans-32"/>
       <use xlink:href="#DejaVuSans-30" transform="translate(63.623047 0)"/>
       <use xlink:href="#DejaVuSans-30" transform="translate(127.246094 0)"/>
       <use xlink:href="#DejaVuSans-30" transform="translate(190.869141 0)"/>
      </g>
     </g>
    </g>
    <g id="ytick_6">
     <g id="line2d_15">
      <g>
       <use xlink:href="#m6d02b9417b" x="39.65" y="89.45038" style="stroke: #000000; stroke-width: 0.8"/>
      </g>
     </g>
     <g id="text_15">
      <!-- 2500 -->
      <g transform="translate(7.2 93.249598) scale(0.1 -0.1)">
       <use xlink:href="#DejaVuSans-32"/>
       <use xlink:href="#DejaVuSans-35" transform="translate(63.623047 0)"/>
       <use xlink:href="#DejaVuSans-30" transform="translate(127.246094 0)"/>
       <use xlink:href="#DejaVuSans-30" transform="translate(190.869141 0)"/>
      </g>
     </g>
    </g>
    <g id="ytick_7">
     <g id="line2d_16">
      <g>
       <use xlink:href="#m6d02b9417b" x="39.65" y="55.097256" style="stroke: #000000; stroke-width: 0.8"/>
      </g>
     </g>
     <g id="text_16">
      <!-- 3000 -->
      <g transform="translate(7.2 58.896474) scale(0.1 -0.1)">
       <defs>
        <path id="DejaVuSans-33" d="M 2597 2516 
Q 3050 2419 3304 2112 
Q 3559 1806 3559 1356 
Q 3559 666 3084 287 
Q 2609 -91 1734 -91 
Q 1441 -91 1130 -33 
Q 819 25 488 141 
L 488 750 
Q 750 597 1062 519 
Q 1375 441 1716 441 
Q 2309 441 2620 675 
Q 2931 909 2931 1356 
Q 2931 1769 2642 2001 
Q 2353 2234 1838 2234 
L 1294 2234 
L 1294 2753 
L 1863 2753 
Q 2328 2753 2575 2939 
Q 2822 3125 2822 3475 
Q 2822 3834 2567 4026 
Q 2313 4219 1838 4219 
Q 1578 4219 1281 4162 
Q 984 4106 628 3988 
L 628 4550 
Q 988 4650 1302 4700 
Q 1616 4750 1894 4750 
Q 2613 4750 3031 4423 
Q 3450 4097 3450 3541 
Q 3450 3153 3228 2886 
Q 3006 2619 2597 2516 
z
" transform="scale(0.015625)"/>
       </defs>
       <use xlink:href="#DejaVuSans-33"/>
       <use xlink:href="#DejaVuSans-30" transform="translate(63.623047 0)"/>
       <use xlink:href="#DejaVuSans-30" transform="translate(127.246094 0)"/>
       <use xlink:href="#DejaVuSans-30" transform="translate(190.869141 0)"/>
      </g>
     </g>
    </g>
    <g id="ytick_8">
     <g id="line2d_17">
      <g>
       <use xlink:href="#m6d02b9417b" x="39.65" y="20.744132" style="stroke: #000000; stroke-width: 0.8"/>
      </g>
     </g>
     <g id="text_17">
      <!-- 3500 -->
      <g transform="translate(7.2 24.54335) scale(0.1 -0.1)">
       <use xlink:href="#DejaVuSans-33"/>
       <use xlink:href="#DejaVuSans-35" transform="translate(63.623047 0)"/>
       <use xlink:href="#DejaVuSans-30" transform="translate(127.246094 0)"/>
       <use xlink:href="#DejaVuSans-30" transform="translate(190.869141 0)"/>
      </g>
     </g>
    </g>
   </g>
   <g id="line2d_18">
    <path d="M 55.882727 261.216 
L 72.197026 192.509752 
L 88.511325 143.281725 
L 104.825624 108.009844 
L 121.139922 82.737541 
L 137.454221 64.629936 
L 153.76852 51.655837 
L 170.082819 42.359895 
L 186.397117 35.699353 
L 202.711416 30.927074 
L 219.025715 27.507736 
L 235.340014 25.057781 
L 251.654312 23.302388 
L 267.968611 22.044649 
L 284.28291 21.143479 
L 300.597209 20.49779 
L 316.911508 20.035155 
L 333.225806 19.703676 
L 349.540105 19.466172 
L 365.854404 19.296 
" clip-path="url(#pdc02ff1af0)" style="fill: none; stroke: #1f77b4; stroke-width: 1.5; stroke-linecap: square"/>
   </g>
   <g id="line2d_19">
    <path d="M 55.882727 261.216 
L 72.197026 261.216 
L 88.511325 238.313917 
L 104.825624 210.146646 
L 121.139922 183.928275 
L 137.454221 162.043662 
L 153.76852 144.772234 
L 170.082819 131.580383 
L 186.397117 121.709039 
L 202.711416 114.420911 
L 219.025715 109.088426 
L 235.340014 105.210949 
L 251.654312 102.4036 
L 267.968611 100.377177 
L 284.28291 98.917564 
L 300.597209 97.867809 
L 316.911508 97.113636 
L 333.225806 96.572231 
L 349.540105 96.183781 
L 365.854404 95.905183 
" clip-path="url(#pdc02ff1af0)" style="fill: none; stroke: #ff7f0e; stroke-width: 1.5; stroke-linecap: square"/>
   </g>
   <g id="line2d_20">
    <path d="M 55.882727 261.216 
L 57.514157 253.177369 
L 59.145587 246.718982 
L 60.777017 239.504826 
L 62.408447 234.489269 
L 64.039877 228.44312 
L 65.671307 223.152739 
L 67.302736 216.488232 
L 68.934166 211.40397 
L 72.197026 199.586495 
L 75.459886 190.860802 
L 78.722746 180.82969 
L 80.354175 177.050846 
L 81.985605 174.027771 
L 83.617035 170.248927 
L 85.248465 164.683721 
L 86.879895 161.248409 
L 88.511325 156.301559 
L 90.142755 153.965547 
L 91.774185 150.942472 
L 93.405614 147.644572 
L 95.037044 144.003141 
L 96.668474 139.81206 
L 98.299904 136.995103 
L 99.931334 134.796503 
L 101.562764 133.21626 
L 104.825624 128.887766 
L 106.457053 125.246335 
L 108.088483 122.291966 
L 109.719913 121.879729 
L 111.351343 120.299485 
L 112.982773 118.032179 
L 114.614203 116.589348 
L 116.245633 114.596866 
L 117.877063 112.260854 
L 119.508492 110.13096 
L 121.139922 109.443898 
L 122.771352 107.520123 
L 124.402782 106.352117 
L 126.034212 104.497048 
L 127.665642 101.886211 
L 129.297072 99.550198 
L 130.928502 98.863136 
L 132.559931 95.908767 
L 134.191361 94.122405 
L 135.822791 91.442861 
L 137.454221 90.068736 
L 139.085651 89.312967 
L 140.717081 89.45038 
L 142.348511 89.175555 
L 143.979941 88.213667 
L 145.61137 86.633423 
L 147.2428 85.740242 
L 148.87423 86.70213 
L 150.50566 86.358598 
L 152.13709 85.740242 
L 155.39995 85.946361 
L 157.03138 84.709649 
L 158.66281 83.266817 
L 160.294239 82.717167 
L 161.925669 81.617867 
L 163.557099 80.10633 
L 165.188529 79.00703 
L 168.451389 79.213149 
L 170.082819 77.701611 
L 171.714249 76.464899 
L 174.977108 77.220667 
L 176.608538 75.640424 
L 178.239968 75.090774 
L 179.871398 73.922768 
L 181.502828 73.166999 
L 183.134258 72.892174 
L 184.765688 71.655461 
L 186.397117 70.21263 
L 188.028547 68.426268 
L 189.659977 69.456861 
L 191.291407 68.220149 
L 192.922837 65.334487 
L 194.554267 65.609312 
L 196.185697 65.471899 
L 197.817127 63.479418 
L 199.448556 63.06718 
L 201.079986 64.372599 
L 202.711416 66.021549 
L 204.342846 65.952843 
L 205.974276 65.334487 
L 207.605706 65.609312 
L 209.237136 66.090255 
L 210.868566 64.303893 
L 212.499995 64.647424 
L 214.131425 63.685537 
L 215.762855 64.784837 
L 217.394285 66.296374 
L 219.025715 67.052143 
L 220.657145 66.983437 
L 222.288575 68.01403 
L 223.920005 67.533087 
L 227.182864 67.807911 
L 228.814294 68.357561 
L 230.445724 69.937805 
L 232.077154 69.388155 
L 233.708584 71.449343 
L 235.340014 71.655461 
L 236.971444 71.998993 
L 238.602873 70.624868 
L 240.234303 69.525568 
L 241.865733 68.975918 
L 243.497163 66.571199 
L 246.760023 66.502493 
L 248.391453 67.326968 
L 250.022883 66.708612 
L 251.654312 66.846024 
L 253.285742 66.502493 
L 254.917172 63.61683 
L 256.548602 65.128368 
L 258.180032 63.135887 
L 259.811462 62.173999 
L 261.442892 63.06718 
L 263.074322 61.41823 
L 264.705751 60.387637 
L 266.337181 60.387637 
L 267.968611 59.563162 
L 269.600041 59.082218 
L 271.231471 60.250224 
L 272.862901 60.387637 
L 274.494331 60.86858 
L 276.125761 60.731168 
L 277.75719 59.425749 
L 279.38862 57.501974 
L 282.65148 56.883618 
L 284.28291 56.127849 
L 285.91434 57.089737 
L 289.1772 58.257743 
L 290.80863 56.471381 
L 292.440059 56.127849 
L 294.071489 54.547606 
L 295.702919 56.059143 
L 297.334349 56.608793 
L 298.965779 55.028549 
L 300.597209 54.959843 
L 302.228639 56.196556 
L 303.860069 56.127849 
L 307.122928 57.295856 
L 308.754358 56.677499 
L 310.385788 57.845506 
L 312.017218 57.639387 
L 313.648648 55.921731 
L 315.280078 57.639387 
L 316.911508 58.326449 
L 318.542937 57.089737 
L 320.174367 56.883618 
L 321.805797 58.051624 
L 323.437227 57.639387 
L 325.068657 56.608793 
L 326.700087 55.990437 
L 328.331517 56.127849 
L 329.962947 57.089737 
L 331.594376 57.845506 
L 333.225806 58.120331 
L 334.857236 59.631868 
L 338.120096 60.86858 
L 339.751526 61.143405 
L 341.382956 59.013512 
L 343.014386 57.982918 
L 344.645815 57.433268 
L 346.277245 57.776799 
L 347.908675 57.639387 
L 349.540105 57.776799 
L 351.171535 56.265262 
L 352.802965 56.677499 
L 354.434395 57.708093 
L 356.065825 59.288337 
L 357.697254 59.563162 
L 359.328684 58.876099 
L 360.960114 58.807393 
L 362.591544 57.982918 
L 364.222974 58.395156 
L 365.854404 58.326449 
L 367.485834 58.944805 
L 369.117264 58.120331 
L 370.748693 58.395156 
L 372.380123 58.463862 
L 374.011553 59.150924 
L 375.642983 59.013512 
L 377.274413 59.013512 
L 378.905843 57.708093 
L 380.537273 56.883618 
L 380.537273 56.883618 
" clip-path="url(#pdc02ff1af0)" style="fill: none; stroke: #2ca02c; stroke-width: 1.5; stroke-linecap: square"/>
   </g>
   <g id="line2d_21">
    <path d="M 55.882727 261.216 
L 57.514157 261.216 
L 59.145587 260.941175 
L 62.408447 260.1167 
L 64.039877 259.498344 
L 65.671307 258.605163 
L 67.302736 257.849394 
L 68.934166 256.956213 
L 75.459886 250.291707 
L 80.354175 246.444157 
L 81.985605 243.764613 
L 83.617035 242.184369 
L 85.248465 241.634719 
L 88.511325 238.749057 
L 91.774185 233.939619 
L 93.405614 231.260076 
L 95.037044 229.336301 
L 96.668474 228.305707 
L 98.299904 226.038401 
L 101.562764 223.49627 
L 103.194194 221.228964 
L 104.825624 219.236482 
L 106.457053 218.068476 
L 108.088483 216.625645 
L 109.719913 214.70187 
L 111.351343 213.533864 
L 112.982773 212.159739 
L 114.614203 210.442083 
L 117.877063 208.10607 
L 119.508492 205.90747 
L 121.139922 203.914989 
L 122.771352 201.578977 
L 124.402782 200.96062 
L 127.665642 198.281077 
L 129.297072 198.006252 
L 130.928502 195.601533 
L 132.559931 195.464121 
L 134.191361 194.021289 
L 135.822791 193.471639 
L 137.454221 191.410452 
L 139.085651 190.860802 
L 140.717081 189.143146 
L 142.348511 188.524789 
L 143.979941 186.32619 
L 145.61137 185.77654 
L 147.2428 185.501715 
L 148.87423 184.196296 
L 150.50566 183.371821 
L 152.13709 184.12759 
L 153.76852 182.822171 
L 157.03138 181.92899 
L 158.66281 180.692277 
L 160.294239 180.211333 
L 161.925669 180.348746 
L 163.557099 181.448046 
L 165.188529 181.310633 
L 166.819959 179.455565 
L 168.451389 176.776021 
L 170.082819 177.188259 
L 171.714249 176.913434 
L 173.345678 176.98214 
L 174.977108 176.157665 
L 176.608538 176.088959 
L 178.239968 175.539309 
L 179.871398 173.959065 
L 181.502828 174.23389 
L 183.134258 175.676721 
L 184.765688 175.539309 
L 188.028547 172.447527 
L 189.659977 171.210815 
L 191.291407 171.416934 
L 192.922837 171.760465 
L 194.554267 169.493159 
L 196.185697 168.256446 
L 197.817127 168.668684 
L 199.448556 169.630571 
L 201.079986 167.363265 
L 202.711416 165.783021 
L 204.342846 165.783021 
L 205.974276 166.744909 
L 207.605706 164.958546 
L 209.237136 164.202778 
L 210.868566 165.233371 
L 212.499995 164.408896 
L 214.131425 164.752428 
L 215.762855 164.202778 
L 217.394285 162.897359 
L 219.025715 162.072884 
L 222.288575 163.24089 
L 223.920005 162.759946 
L 225.551434 163.034771 
L 227.182864 162.622534 
L 228.814294 163.103478 
L 230.445724 162.553828 
L 232.077154 163.515715 
L 233.708584 161.454528 
L 235.340014 162.14159 
L 236.971444 162.966065 
L 238.602873 164.477603 
L 240.234303 164.821134 
L 241.865733 165.508196 
L 243.497163 167.157146 
L 245.128593 165.576903 
L 246.760023 166.676203 
L 248.391453 165.370784 
L 250.022883 165.233371 
L 253.285742 165.576903 
L 254.917172 166.263965 
L 256.548602 164.88984 
L 258.180032 165.851728 
L 259.811462 166.126553 
L 261.442892 165.851728 
L 263.074322 165.98914 
L 264.705751 167.019734 
L 266.337181 165.783021 
L 267.968611 166.195259 
L 269.600041 165.576903 
L 271.231471 164.34019 
L 272.862901 162.897359 
L 274.494331 162.347709 
L 276.125761 163.584421 
L 277.75719 163.996659 
L 279.38862 164.065365 
L 281.02005 165.714315 
L 282.65148 165.576903 
L 284.28291 166.470084 
L 285.91434 165.43949 
L 287.54577 165.164665 
L 289.1772 163.996659 
L 292.440059 164.34019 
L 294.071489 164.477603 
L 295.702919 163.996659 
L 297.334349 163.996659 
L 298.965779 164.202778 
L 302.228639 161.179703 
L 303.860069 161.385821 
L 307.122928 161.454528 
L 308.754358 160.767465 
L 310.385788 159.187222 
L 312.017218 159.462047 
L 313.648648 159.599459 
L 315.280078 159.94299 
L 316.911508 158.019215 
L 318.542937 157.675684 
L 320.174367 158.431453 
L 321.805797 158.225334 
L 323.437227 158.84369 
L 326.700087 159.324634 
L 328.331517 159.324634 
L 329.962947 157.675684 
L 331.594376 158.29404 
L 333.225806 158.362747 
L 334.857236 158.29404 
L 336.488666 158.362747 
L 338.120096 156.576384 
L 339.751526 157.400859 
L 341.382956 158.84369 
L 343.014386 159.668165 
L 344.645815 160.286521 
L 346.277245 159.118515 
L 347.908675 158.981103 
L 349.540105 160.49264 
L 351.171535 161.59194 
L 352.802965 161.866765 
L 356.065825 158.912397 
L 357.697254 158.156628 
L 359.328684 159.324634 
L 360.960114 159.187222 
L 362.591544 160.217815 
L 364.222974 158.774984 
L 365.854404 159.462047 
L 367.485834 159.324634 
L 369.117264 158.706278 
L 370.748693 157.881803 
L 372.380123 157.332153 
L 374.011553 157.19474 
L 375.642983 157.19474 
L 377.274413 157.74439 
L 378.905843 158.912397 
L 380.537273 160.836171 
L 380.537273 160.836171 
" clip-path="url(#pdc02ff1af0)" style="fill: none; stroke: #d62728; stroke-width: 1.5; stroke-linecap: square"/>
   </g>
   <g id="patch_3">
    <path d="M 39.65 273.312 
L 39.65 7.2 
" style="fill: none; stroke: #000000; stroke-width: 0.8; stroke-linejoin: miter; stroke-linecap: square"/>
   </g>
   <g id="patch_4">
    <path d="M 396.77 273.312 
L 396.77 7.2 
" style="fill: none; stroke: #000000; stroke-width: 0.8; stroke-linejoin: miter; stroke-linecap: square"/>
   </g>
   <g id="patch_5">
    <path d="M 39.65 273.312 
L 396.77 273.312 
" style="fill: none; stroke: #000000; stroke-width: 0.8; stroke-linejoin: miter; stroke-linecap: square"/>
   </g>
   <g id="patch_6">
    <path d="M 39.65 7.2 
L 396.77 7.2 
" style="fill: none; stroke: #000000; stroke-width: 0.8; stroke-linejoin: miter; stroke-linecap: square"/>
   </g>
  </g>
 </g>
 <defs>
  <clipPath id="pdc02ff1af0">
   <rect x="39.65" y="7.2" width="357.12" height="266.112"/>
  </clipPath>
 </defs>
</svg>
