<?xml version="1.0" encoding="utf-8" standalone="no"?>
<!DOCTYPE svg PUBLIC "-//W3C//DTD SVG 1.1//EN"
  "http://www.w3.org/Graphics/SVG/1.1/DTD/svg11.dtd">
<!-- Created with matplotlib (https://matplotlib.org/) -->
<svg height="297.190125pt" version="1.1" viewBox="0 0 403.97 297.190125" width="403.97pt" xmlns="http://www.w3.org/2000/svg" xmlns:xlink="http://www.w3.org/1999/xlink">
 <metadata>
  <rdf:RDF xmlns:cc="http://creativecommons.org/ns#" xmlns:dc="http://purl.org/dc/elements/1.1/" xmlns:rdf="http://www.w3.org/1999/02/22-rdf-syntax-ns#">
   <cc:Work>
    <dc:type rdf:resource="http://purl.org/dc/dcmitype/StillImage"/>
    <dc:date>2020-11-10T04:04:19.000039</dc:date>
    <dc:format>image/svg+xml</dc:format>
    <dc:creator>
     <cc:Agent>
      <dc:title>Matplotlib v3.3.2, https://matplotlib.org/</dc:title>
     </cc:Agent>
    </dc:creator>
   </cc:Work>
  </rdf:RDF>
 </metadata>
 <defs>
  <style type="text/css">*{stroke-linecap:butt;stroke-linejoin:round;}</style>
 </defs>
 <g id="figure_1">
  <g id="patch_1">
   <path d="M 0 297.190125 
L 403.97 297.190125 
L 403.97 0 
L 0 0 
z
" style="fill:#ffffff;"/>
  </g>
  <g id="axes_1">
   <g id="patch_2">
    <path d="M 39.65 273.312 
L 396.77 273.312 
L 396.77 7.2 
L 39.65 7.2 
z
" style="fill:#ffffff;"/>
   </g>
   <g id="matplotlib.axis_1">
    <g id="xtick_1">
     <g id="line2d_1">
      <defs>
       <path d="M 0 0 
L 0 3.5 
" id="m563ea629bb" style="stroke:#000000;stroke-width:0.8;"/>
      </defs>
      <g>
       <use style="stroke:#000000;stroke-width:0.8;" x="55.882727" xlink:href="#m563ea629bb" y="273.312"/>
      </g>
     </g>
     <g id="text_1">
      <!-- 0.0 -->
      <g transform="translate(47.931165 287.910437)scale(0.1 -0.1)">
       <defs>
        <path d="M 31.78125 66.40625 
Q 24.171875 66.40625 20.328125 58.90625 
Q 16.5 51.421875 16.5 36.375 
Q 16.5 21.390625 20.328125 13.890625 
Q 24.171875 6.390625 31.78125 6.390625 
Q 39.453125 6.390625 43.28125 13.890625 
Q 47.125 21.390625 47.125 36.375 
Q 47.125 51.421875 43.28125 58.90625 
Q 39.453125 66.40625 31.78125 66.40625 
z
M 31.78125 74.21875 
Q 44.046875 74.21875 50.515625 64.515625 
Q 56.984375 54.828125 56.984375 36.375 
Q 56.984375 17.96875 50.515625 8.265625 
Q 44.046875 -1.421875 31.78125 -1.421875 
Q 19.53125 -1.421875 13.0625 8.265625 
Q 6.59375 17.96875 6.59375 36.375 
Q 6.59375 54.828125 13.0625 64.515625 
Q 19.53125 74.21875 31.78125 74.21875 
z
" id="DejaVuSans-48"/>
        <path d="M 10.6875 12.40625 
L 21 12.40625 
L 21 0 
L 10.6875 0 
z
" id="DejaVuSans-46"/>
       </defs>
       <use xlink:href="#DejaVuSans-48"/>
       <use x="63.623047" xlink:href="#DejaVuSans-46"/>
       <use x="95.410156" xlink:href="#DejaVuSans-48"/>
      </g>
     </g>
    </g>
    <g id="xtick_2">
     <g id="line2d_2">
      <g>
       <use style="stroke:#000000;stroke-width:0.8;" x="96.668474" xlink:href="#m563ea629bb" y="273.312"/>
      </g>
     </g>
     <g id="text_2">
      <!-- 2.5 -->
      <g transform="translate(88.716912 287.910437)scale(0.1 -0.1)">
       <defs>
        <path d="M 19.1875 8.296875 
L 53.609375 8.296875 
L 53.609375 0 
L 7.328125 0 
L 7.328125 8.296875 
Q 12.9375 14.109375 22.625 23.890625 
Q 32.328125 33.6875 34.8125 36.53125 
Q 39.546875 41.84375 41.421875 45.53125 
Q 43.3125 49.21875 43.3125 52.78125 
Q 43.3125 58.59375 39.234375 62.25 
Q 35.15625 65.921875 28.609375 65.921875 
Q 23.96875 65.921875 18.8125 64.3125 
Q 13.671875 62.703125 7.8125 59.421875 
L 7.8125 69.390625 
Q 13.765625 71.78125 18.9375 73 
Q 24.125 74.21875 28.421875 74.21875 
Q 39.75 74.21875 46.484375 68.546875 
Q 53.21875 62.890625 53.21875 53.421875 
Q 53.21875 48.921875 51.53125 44.890625 
Q 49.859375 40.875 45.40625 35.40625 
Q 44.1875 33.984375 37.640625 27.21875 
Q 31.109375 20.453125 19.1875 8.296875 
z
" id="DejaVuSans-50"/>
        <path d="M 10.796875 72.90625 
L 49.515625 72.90625 
L 49.515625 64.59375 
L 19.828125 64.59375 
L 19.828125 46.734375 
Q 21.96875 47.46875 24.109375 47.828125 
Q 26.265625 48.1875 28.421875 48.1875 
Q 40.625 48.1875 47.75 41.5 
Q 54.890625 34.8125 54.890625 23.390625 
Q 54.890625 11.625 47.5625 5.09375 
Q 40.234375 -1.421875 26.90625 -1.421875 
Q 22.3125 -1.421875 17.546875 -0.640625 
Q 12.796875 0.140625 7.71875 1.703125 
L 7.71875 11.625 
Q 12.109375 9.234375 16.796875 8.0625 
Q 21.484375 6.890625 26.703125 6.890625 
Q 35.15625 6.890625 40.078125 11.328125 
Q 45.015625 15.765625 45.015625 23.390625 
Q 45.015625 31 40.078125 35.4375 
Q 35.15625 39.890625 26.703125 39.890625 
Q 22.75 39.890625 18.8125 39.015625 
Q 14.890625 38.140625 10.796875 36.28125 
z
" id="DejaVuSans-53"/>
       </defs>
       <use xlink:href="#DejaVuSans-50"/>
       <use x="63.623047" xlink:href="#DejaVuSans-46"/>
       <use x="95.410156" xlink:href="#DejaVuSans-53"/>
      </g>
     </g>
    </g>
    <g id="xtick_3">
     <g id="line2d_3">
      <g>
       <use style="stroke:#000000;stroke-width:0.8;" x="137.454221" xlink:href="#m563ea629bb" y="273.312"/>
      </g>
     </g>
     <g id="text_3">
      <!-- 5.0 -->
      <g transform="translate(129.502659 287.910437)scale(0.1 -0.1)">
       <use xlink:href="#DejaVuSans-53"/>
       <use x="63.623047" xlink:href="#DejaVuSans-46"/>
       <use x="95.410156" xlink:href="#DejaVuSans-48"/>
      </g>
     </g>
    </g>
    <g id="xtick_4">
     <g id="line2d_4">
      <g>
       <use style="stroke:#000000;stroke-width:0.8;" x="178.239968" xlink:href="#m563ea629bb" y="273.312"/>
      </g>
     </g>
     <g id="text_4">
      <!-- 7.5 -->
      <g transform="translate(170.288406 287.910437)scale(0.1 -0.1)">
       <defs>
        <path d="M 8.203125 72.90625 
L 55.078125 72.90625 
L 55.078125 68.703125 
L 28.609375 0 
L 18.3125 0 
L 43.21875 64.59375 
L 8.203125 64.59375 
z
" id="DejaVuSans-55"/>
       </defs>
       <use xlink:href="#DejaVuSans-55"/>
       <use x="63.623047" xlink:href="#DejaVuSans-46"/>
       <use x="95.410156" xlink:href="#DejaVuSans-53"/>
      </g>
     </g>
    </g>
    <g id="xtick_5">
     <g id="line2d_5">
      <g>
       <use style="stroke:#000000;stroke-width:0.8;" x="219.025715" xlink:href="#m563ea629bb" y="273.312"/>
      </g>
     </g>
     <g id="text_5">
      <!-- 10.0 -->
      <g transform="translate(207.892902 287.910437)scale(0.1 -0.1)">
       <defs>
        <path d="M 12.40625 8.296875 
L 28.515625 8.296875 
L 28.515625 63.921875 
L 10.984375 60.40625 
L 10.984375 69.390625 
L 28.421875 72.90625 
L 38.28125 72.90625 
L 38.28125 8.296875 
L 54.390625 8.296875 
L 54.390625 0 
L 12.40625 0 
z
" id="DejaVuSans-49"/>
       </defs>
       <use xlink:href="#DejaVuSans-49"/>
       <use x="63.623047" xlink:href="#DejaVuSans-48"/>
       <use x="127.246094" xlink:href="#DejaVuSans-46"/>
       <use x="159.033203" xlink:href="#DejaVuSans-48"/>
      </g>
     </g>
    </g>
    <g id="xtick_6">
     <g id="line2d_6">
      <g>
       <use style="stroke:#000000;stroke-width:0.8;" x="259.811462" xlink:href="#m563ea629bb" y="273.312"/>
      </g>
     </g>
     <g id="text_6">
      <!-- 12.5 -->
      <g transform="translate(248.678649 287.910437)scale(0.1 -0.1)">
       <use xlink:href="#DejaVuSans-49"/>
       <use x="63.623047" xlink:href="#DejaVuSans-50"/>
       <use x="127.246094" xlink:href="#DejaVuSans-46"/>
       <use x="159.033203" xlink:href="#DejaVuSans-53"/>
      </g>
     </g>
    </g>
    <g id="xtick_7">
     <g id="line2d_7">
      <g>
       <use style="stroke:#000000;stroke-width:0.8;" x="300.597209" xlink:href="#m563ea629bb" y="273.312"/>
      </g>
     </g>
     <g id="text_7">
      <!-- 15.0 -->
      <g transform="translate(289.464396 287.910437)scale(0.1 -0.1)">
       <use xlink:href="#DejaVuSans-49"/>
       <use x="63.623047" xlink:href="#DejaVuSans-53"/>
       <use x="127.246094" xlink:href="#DejaVuSans-46"/>
       <use x="159.033203" xlink:href="#DejaVuSans-48"/>
      </g>
     </g>
    </g>
    <g id="xtick_8">
     <g id="line2d_8">
      <g>
       <use style="stroke:#000000;stroke-width:0.8;" x="341.382956" xlink:href="#m563ea629bb" y="273.312"/>
      </g>
     </g>
     <g id="text_8">
      <!-- 17.5 -->
      <g transform="translate(330.250143 287.910437)scale(0.1 -0.1)">
       <use xlink:href="#DejaVuSans-49"/>
       <use x="63.623047" xlink:href="#DejaVuSans-55"/>
       <use x="127.246094" xlink:href="#DejaVuSans-46"/>
       <use x="159.033203" xlink:href="#DejaVuSans-53"/>
      </g>
     </g>
    </g>
    <g id="xtick_9">
     <g id="line2d_9">
      <g>
       <use style="stroke:#000000;stroke-width:0.8;" x="382.168703" xlink:href="#m563ea629bb" y="273.312"/>
      </g>
     </g>
     <g id="text_9">
      <!-- 20.0 -->
      <g transform="translate(371.03589 287.910437)scale(0.1 -0.1)">
       <use xlink:href="#DejaVuSans-50"/>
       <use x="63.623047" xlink:href="#DejaVuSans-48"/>
       <use x="127.246094" xlink:href="#DejaVuSans-46"/>
       <use x="159.033203" xlink:href="#DejaVuSans-48"/>
      </g>
     </g>
    </g>
   </g>
   <g id="matplotlib.axis_2">
    <g id="ytick_1">
     <g id="line2d_10">
      <defs>
       <path d="M 0 0 
L -3.5 0 
" id="m7bf19af324" style="stroke:#000000;stroke-width:0.8;"/>
      </defs>
      <g>
       <use style="stroke:#000000;stroke-width:0.8;" x="39.65" xlink:href="#m7bf19af324" y="261.216"/>
      </g>
     </g>
     <g id="text_10">
      <!-- 0 -->
      <g transform="translate(26.2875 265.015219)scale(0.1 -0.1)">
       <use xlink:href="#DejaVuSans-48"/>
      </g>
     </g>
    </g>
    <g id="ytick_2">
     <g id="line2d_11">
      <g>
       <use style="stroke:#000000;stroke-width:0.8;" x="39.65" xlink:href="#m7bf19af324" y="221.738193"/>
      </g>
     </g>
     <g id="text_11">
      <!-- 500 -->
      <g transform="translate(13.5625 225.537412)scale(0.1 -0.1)">
       <use xlink:href="#DejaVuSans-53"/>
       <use x="63.623047" xlink:href="#DejaVuSans-48"/>
       <use x="127.246094" xlink:href="#DejaVuSans-48"/>
      </g>
     </g>
    </g>
    <g id="ytick_3">
     <g id="line2d_12">
      <g>
       <use style="stroke:#000000;stroke-width:0.8;" x="39.65" xlink:href="#m7bf19af324" y="182.260386"/>
      </g>
     </g>
     <g id="text_12">
      <!-- 1000 -->
      <g transform="translate(7.2 186.059605)scale(0.1 -0.1)">
       <use xlink:href="#DejaVuSans-49"/>
       <use x="63.623047" xlink:href="#DejaVuSans-48"/>
       <use x="127.246094" xlink:href="#DejaVuSans-48"/>
       <use x="190.869141" xlink:href="#DejaVuSans-48"/>
      </g>
     </g>
    </g>
    <g id="ytick_4">
     <g id="line2d_13">
      <g>
       <use style="stroke:#000000;stroke-width:0.8;" x="39.65" xlink:href="#m7bf19af324" y="142.78258"/>
      </g>
     </g>
     <g id="text_13">
      <!-- 1500 -->
      <g transform="translate(7.2 146.581798)scale(0.1 -0.1)">
       <use xlink:href="#DejaVuSans-49"/>
       <use x="63.623047" xlink:href="#DejaVuSans-53"/>
       <use x="127.246094" xlink:href="#DejaVuSans-48"/>
       <use x="190.869141" xlink:href="#DejaVuSans-48"/>
      </g>
     </g>
    </g>
    <g id="ytick_5">
     <g id="line2d_14">
      <g>
       <use style="stroke:#000000;stroke-width:0.8;" x="39.65" xlink:href="#m7bf19af324" y="103.304773"/>
      </g>
     </g>
     <g id="text_14">
      <!-- 2000 -->
      <g transform="translate(7.2 107.103992)scale(0.1 -0.1)">
       <use xlink:href="#DejaVuSans-50"/>
       <use x="63.623047" xlink:href="#DejaVuSans-48"/>
       <use x="127.246094" xlink:href="#DejaVuSans-48"/>
       <use x="190.869141" xlink:href="#DejaVuSans-48"/>
      </g>
     </g>
    </g>
    <g id="ytick_6">
     <g id="line2d_15">
      <g>
       <use style="stroke:#000000;stroke-width:0.8;" x="39.65" xlink:href="#m7bf19af324" y="63.826966"/>
      </g>
     </g>
     <g id="text_15">
      <!-- 2500 -->
      <g transform="translate(7.2 67.626185)scale(0.1 -0.1)">
       <use xlink:href="#DejaVuSans-50"/>
       <use x="63.623047" xlink:href="#DejaVuSans-53"/>
       <use x="127.246094" xlink:href="#DejaVuSans-48"/>
       <use x="190.869141" xlink:href="#DejaVuSans-48"/>
      </g>
     </g>
    </g>
    <g id="ytick_7">
     <g id="line2d_16">
      <g>
       <use style="stroke:#000000;stroke-width:0.8;" x="39.65" xlink:href="#m7bf19af324" y="24.349159"/>
      </g>
     </g>
     <g id="text_16">
      <!-- 3000 -->
      <g transform="translate(7.2 28.148378)scale(0.1 -0.1)">
       <defs>
        <path d="M 40.578125 39.3125 
Q 47.65625 37.796875 51.625 33 
Q 55.609375 28.21875 55.609375 21.1875 
Q 55.609375 10.40625 48.1875 4.484375 
Q 40.765625 -1.421875 27.09375 -1.421875 
Q 22.515625 -1.421875 17.65625 -0.515625 
Q 12.796875 0.390625 7.625 2.203125 
L 7.625 11.71875 
Q 11.71875 9.328125 16.59375 8.109375 
Q 21.484375 6.890625 26.8125 6.890625 
Q 36.078125 6.890625 40.9375 10.546875 
Q 45.796875 14.203125 45.796875 21.1875 
Q 45.796875 27.640625 41.28125 31.265625 
Q 36.765625 34.90625 28.71875 34.90625 
L 20.21875 34.90625 
L 20.21875 43.015625 
L 29.109375 43.015625 
Q 36.375 43.015625 40.234375 45.921875 
Q 44.09375 48.828125 44.09375 54.296875 
Q 44.09375 59.90625 40.109375 62.90625 
Q 36.140625 65.921875 28.71875 65.921875 
Q 24.65625 65.921875 20.015625 65.03125 
Q 15.375 64.15625 9.8125 62.3125 
L 9.8125 71.09375 
Q 15.4375 72.65625 20.34375 73.4375 
Q 25.25 74.21875 29.59375 74.21875 
Q 40.828125 74.21875 47.359375 69.109375 
Q 53.90625 64.015625 53.90625 55.328125 
Q 53.90625 49.265625 50.4375 45.09375 
Q 46.96875 40.921875 40.578125 39.3125 
z
" id="DejaVuSans-51"/>
       </defs>
       <use xlink:href="#DejaVuSans-51"/>
       <use x="63.623047" xlink:href="#DejaVuSans-48"/>
       <use x="127.246094" xlink:href="#DejaVuSans-48"/>
       <use x="190.869141" xlink:href="#DejaVuSans-48"/>
      </g>
     </g>
    </g>
   </g>
   <g id="line2d_17">
    <path clip-path="url(#p4707b53815)" d="M 55.882727 261.216 
L 72.197026 182.260386 
L 88.511325 129.623311 
L 104.825624 94.531927 
L 121.139922 71.137671 
L 137.454221 55.5415 
L 153.76852 45.144053 
L 170.082819 38.212422 
L 186.397117 33.591334 
L 202.711416 30.510609 
L 219.025715 28.456793 
L 235.340014 27.087582 
L 251.654312 26.174774 
L 267.968611 25.566236 
L 284.28291 25.160544 
L 300.597209 24.890082 
L 316.911508 24.709775 
L 333.225806 24.589569 
L 349.540105 24.509433 
L 365.854404 24.456008 
" style="fill:none;stroke:#1f77b4;stroke-linecap:square;stroke-width:1.5;"/>
   </g>
   <g id="line2d_18">
    <path clip-path="url(#p4707b53815)" d="M 55.882727 261.216 
L 72.197026 261.216 
L 88.511325 234.897462 
L 104.825624 208.578924 
L 121.139922 188.10895 
L 137.454221 173.48754 
L 153.76852 163.415014 
L 170.082819 156.591689 
L 186.397117 152.006704 
L 202.711416 148.938013 
L 219.025715 146.888207 
L 235.340014 145.520333 
L 251.654312 144.607972 
L 267.968611 143.999582 
L 284.28291 143.593939 
L 300.597209 143.323494 
L 316.911508 143.143192 
L 333.225806 143.022989 
L 349.540105 142.942853 
L 365.854404 142.889429 
" style="fill:none;stroke:#ff7f0e;stroke-linecap:square;stroke-width:1.5;"/>
   </g>
   <g id="line2d_19">
    <path clip-path="url(#p4707b53815)" d="M 55.882727 261.216 
L 57.514157 253.636261 
L 59.145587 245.109055 
L 62.408447 229.870621 
L 64.039877 223.791039 
L 68.934166 202.551979 
L 70.565596 197.656731 
L 73.828456 186.918768 
L 78.722746 172.233023 
L 80.354175 165.28493 
L 81.985605 160.547593 
L 83.617035 154.941744 
L 85.248465 150.836052 
L 86.879895 146.335582 
L 88.511325 141.361379 
L 90.142755 135.75553 
L 91.774185 132.281483 
L 95.037044 124.149055 
L 96.668474 118.701117 
L 98.299904 114.042736 
L 99.931334 112.384668 
L 101.562764 109.463311 
L 103.194194 105.831352 
L 104.825624 104.725974 
L 106.457053 100.620282 
L 108.088483 98.014747 
L 109.719913 97.225191 
L 111.351343 95.961901 
L 114.614203 91.619342 
L 116.245633 90.435008 
L 117.877063 86.882005 
L 119.508492 87.51365 
L 121.139922 86.645138 
L 122.771352 83.802736 
L 124.402782 83.171091 
L 126.034212 78.986444 
L 127.665642 78.907488 
L 130.928502 74.249107 
L 132.559931 71.722527 
L 134.191361 72.669995 
L 135.822791 71.485661 
L 137.454221 69.748637 
L 139.085651 67.53788 
L 140.717081 66.669368 
L 142.348511 63.116366 
L 143.979941 60.589786 
L 145.61137 59.24754 
L 147.2428 59.24754 
L 148.87423 57.352606 
L 150.50566 56.56305 
L 152.13709 55.141849 
L 153.76852 55.220804 
L 155.39995 53.167958 
L 157.03138 51.667802 
L 158.66281 51.667802 
L 160.294239 50.167645 
L 161.925669 49.772867 
L 163.557099 47.325243 
L 165.188529 45.667175 
L 166.819959 45.351352 
L 168.451389 43.851196 
L 170.082819 44.167018 
L 171.714249 43.298507 
L 173.345678 40.614016 
L 174.977108 40.140282 
L 176.608538 39.429681 
L 179.871398 36.271457 
L 181.502828 36.350413 
L 183.134258 34.850256 
L 184.765688 36.113546 
L 186.397117 37.061013 
L 188.028547 36.113546 
L 191.291407 38.798037 
L 192.922837 38.403258 
L 194.554267 38.245347 
L 196.185697 37.929525 
L 197.817127 38.955948 
L 199.448556 36.508324 
L 201.079986 37.534747 
L 202.711416 35.797723 
L 204.342846 35.402945 
L 205.974276 34.218611 
L 207.605706 33.192188 
L 209.237136 32.639499 
L 210.868566 31.928898 
L 212.499995 30.744564 
L 214.131425 31.376209 
L 215.762855 30.744564 
L 217.394285 29.797097 
L 219.025715 29.323363 
L 222.288575 30.033963 
L 223.920005 30.112919 
L 225.551434 31.376209 
L 227.182864 32.481587 
L 228.814294 31.218298 
L 230.445724 31.613076 
L 232.077154 31.692031 
L 233.708584 33.586966 
L 235.340014 33.429055 
L 236.971444 30.82352 
L 238.602873 31.770987 
L 240.234303 31.53412 
L 241.865733 29.244407 
L 245.128593 29.797097 
L 246.760023 28.612762 
L 248.391453 27.270517 
L 250.022883 27.744251 
L 251.654312 29.244407 
L 253.285742 29.244407 
L 254.917172 27.270517 
L 256.548602 26.559916 
L 258.180032 28.533807 
L 261.442892 26.32305 
L 263.074322 26.086183 
L 264.705751 26.875739 
L 266.337181 25.77036 
L 267.968611 24.822893 
L 269.600041 26.480961 
L 271.231471 25.454538 
L 272.862901 25.138715 
L 274.494331 25.296627 
L 276.125761 24.428115 
L 277.75719 24.033337 
L 279.38862 22.691091 
L 281.02005 23.875426 
L 282.65148 23.559603 
L 284.28291 23.085869 
L 285.91434 21.901535 
L 287.54577 21.348846 
L 289.1772 21.427802 
L 290.80863 21.111979 
L 292.440059 19.532867 
L 295.702919 20.638245 
L 297.334349 19.927645 
L 298.965779 23.322736 
L 300.597209 23.006914 
L 302.228639 23.559603 
L 303.860069 22.849003 
L 305.491498 23.954381 
L 307.122928 23.085869 
L 308.754358 24.743937 
L 310.385788 24.428115 
L 312.017218 24.50707 
L 315.280078 23.79647 
L 316.911508 22.53318 
L 318.542937 21.980491 
L 320.174367 21.82258 
L 321.805797 22.53318 
L 323.437227 23.085869 
L 325.068657 24.191248 
L 326.700087 26.086183 
L 328.331517 25.533493 
L 329.962947 25.454538 
L 331.594376 24.428115 
L 333.225806 24.191248 
L 334.857236 24.901849 
L 336.488666 22.217358 
L 338.120096 21.427802 
L 339.751526 22.375269 
L 341.382956 22.691091 
L 343.014386 23.875426 
L 344.645815 24.901849 
L 346.277245 25.296627 
L 347.908675 25.928272 
L 349.540105 25.533493 
L 351.171535 27.112606 
L 352.802965 26.007227 
L 354.434395 26.165138 
L 356.065825 23.954381 
L 357.697254 22.770047 
L 359.328684 22.691091 
L 360.960114 22.849003 
L 362.591544 23.401692 
L 364.222974 23.006914 
L 367.485834 21.82258 
L 369.117264 23.006914 
L 370.748693 22.53318 
L 372.380123 22.296313 
L 374.011553 21.348846 
L 377.274413 19.769734 
L 378.905843 19.769734 
L 380.537273 19.296 
L 380.537273 19.296 
" style="fill:none;stroke:#2ca02c;stroke-linecap:square;stroke-width:1.5;"/>
   </g>
   <g id="line2d_20">
    <path clip-path="url(#p4707b53815)" d="M 55.882727 261.216 
L 57.514157 260.979133 
L 59.145587 260.979133 
L 60.777017 260.031666 
L 62.408447 259.321065 
L 65.671307 256.873441 
L 67.302736 256.241796 
L 68.934166 254.820595 
L 70.565596 252.372971 
L 72.197026 251.267593 
L 75.459886 247.319812 
L 78.722746 243.608898 
L 80.354175 242.266653 
L 83.617035 238.318872 
L 85.248465 236.73976 
L 86.879895 234.686914 
L 88.511325 232.397201 
L 90.142755 231.528689 
L 93.405614 227.659864 
L 95.037044 226.396574 
L 96.668474 225.685974 
L 98.299904 224.422684 
L 101.562764 218.816836 
L 103.194194 217.47459 
L 104.825624 213.447854 
L 106.457053 213.842632 
L 112.982773 205.710204 
L 114.614203 203.97318 
L 116.245633 201.130778 
L 117.877063 200.262266 
L 119.508492 197.340909 
L 121.139922 195.840752 
L 122.771352 195.445974 
L 124.402782 192.366705 
L 126.034212 191.103415 
L 127.665642 188.024146 
L 129.297072 188.655791 
L 130.928502 187.629368 
L 132.559931 188.261013 
L 134.191361 186.760856 
L 135.822791 185.892345 
L 137.454221 184.70801 
L 139.085651 184.550099 
L 140.717081 183.681587 
L 142.348511 183.207854 
L 143.979941 181.786653 
L 145.61137 181.312919 
L 147.2428 179.417984 
L 150.50566 178.707384 
L 152.13709 178.944251 
L 153.76852 177.444094 
L 155.39995 176.891405 
L 157.03138 175.628115 
L 158.66281 173.101535 
L 160.294239 173.891091 
L 161.925669 171.917201 
L 163.557099 170.338089 
L 165.188529 169.23271 
L 168.451389 169.864355 
L 170.082819 169.074799 
L 171.714249 167.25882 
L 173.345678 167.021953 
L 174.977108 165.758663 
L 176.608538 166.390308 
L 178.239968 164.495373 
L 179.871398 164.416418 
L 181.502828 162.442527 
L 184.765688 159.994903 
L 186.397117 158.889525 
L 188.028547 158.573702 
L 189.659977 156.99459 
L 191.291407 155.968167 
L 192.922837 157.547279 
L 194.554267 155.0207 
L 196.185697 154.231144 
L 197.817127 152.573076 
L 199.448556 152.809943 
L 201.079986 151.704564 
L 202.711416 152.888898 
L 204.342846 152.809943 
L 205.974276 153.125765 
L 207.605706 153.678454 
L 209.237136 150.993963 
L 210.868566 150.441274 
L 212.499995 148.941117 
L 214.131425 146.256627 
L 215.762855 146.888272 
L 217.394285 146.888272 
L 220.657145 146.177671 
L 222.288575 145.861849 
L 223.920005 145.940804 
L 225.551434 145.388115 
L 227.182864 144.598559 
L 228.814294 144.045869 
L 230.445724 145.546026 
L 232.077154 145.151248 
L 233.708584 144.282736 
L 235.340014 145.546026 
L 236.971444 145.940804 
L 238.602873 145.309159 
L 240.234303 145.546026 
L 243.497163 146.888272 
L 245.128593 147.99365 
L 246.760023 149.730674 
L 248.391453 152.178298 
L 250.022883 150.599185 
L 251.654312 148.783206 
L 253.285742 149.25694 
L 256.548602 149.730674 
L 258.180032 146.888272 
L 261.442892 147.125138 
L 263.074322 148.309473 
L 266.337181 148.072606 
L 267.968611 147.125138 
L 269.600041 146.01976 
L 271.231471 145.388115 
L 272.862901 146.73036 
L 274.494331 146.572449 
L 276.125761 146.651405 
L 277.75719 147.204094 
L 279.38862 148.309473 
L 281.02005 146.809316 
L 282.65148 145.624982 
L 284.28291 146.098715 
L 285.91434 146.177671 
L 287.54577 144.124825 
L 289.1772 144.519603 
L 290.80863 144.045869 
L 292.440059 144.440648 
L 294.071489 143.177358 
L 297.334349 145.388115 
L 298.965779 143.019446 
L 300.597209 142.071979 
L 302.228639 141.51929 
L 303.860069 139.545399 
L 305.491498 137.808376 
L 307.122928 138.28211 
L 308.754358 139.229577 
L 310.385788 138.913755 
L 312.017218 139.624355 
L 313.648648 139.150621 
L 315.280078 139.229577 
L 316.911508 141.282423 
L 318.542937 142.78258 
L 320.174367 141.124512 
L 321.805797 141.124512 
L 323.437227 141.440334 
L 325.068657 141.282423 
L 326.700087 138.203154 
L 328.331517 139.466444 
L 329.962947 140.571822 
L 331.594376 141.045556 
L 333.225806 141.045556 
L 334.857236 140.808689 
L 336.488666 142.78258 
L 338.120096 143.256313 
L 339.751526 141.677201 
L 341.382956 141.677201 
L 343.014386 140.571822 
L 344.645815 141.598245 
L 346.277245 142.150935 
L 347.908675 143.966914 
L 349.540105 144.677514 
L 351.171535 142.308846 
L 352.802965 142.703624 
L 354.434395 142.624668 
L 356.065825 142.78258 
L 359.328684 142.545713 
L 360.960114 142.071979 
L 362.591544 141.203467 
L 364.222974 141.993023 
L 365.854404 144.598559 
L 367.485834 144.124825 
L 369.117264 144.75647 
L 370.748693 144.598559 
L 374.011553 144.598559 
L 375.642983 145.230204 
L 377.274413 146.256627 
L 378.905843 146.335582 
L 380.537273 144.75647 
L 380.537273 144.75647 
" style="fill:none;stroke:#d62728;stroke-linecap:square;stroke-width:1.5;"/>
   </g>
   <g id="patch_3">
    <path d="M 39.65 273.312 
L 39.65 7.2 
" style="fill:none;stroke:#000000;stroke-linecap:square;stroke-linejoin:miter;stroke-width:0.8;"/>
   </g>
   <g id="patch_4">
    <path d="M 396.77 273.312 
L 396.77 7.2 
" style="fill:none;stroke:#000000;stroke-linecap:square;stroke-linejoin:miter;stroke-width:0.8;"/>
   </g>
   <g id="patch_5">
    <path d="M 39.65 273.312 
L 396.77 273.312 
" style="fill:none;stroke:#000000;stroke-linecap:square;stroke-linejoin:miter;stroke-width:0.8;"/>
   </g>
   <g id="patch_6">
    <path d="M 39.65 7.2 
L 396.77 7.2 
" style="fill:none;stroke:#000000;stroke-linecap:square;stroke-linejoin:miter;stroke-width:0.8;"/>
   </g>
  </g>
 </g>
 <defs>
  <clipPath id="p4707b53815">
   <rect height="266.112" width="357.12" x="39.65" y="7.2"/>
  </clipPath>
 </defs>
</svg>
