<?xml version="1.0" encoding="utf-8" standalone="no"?>
<!DOCTYPE svg PUBLIC "-//W3C//DTD SVG 1.1//EN"
  "http://www.w3.org/Graphics/SVG/1.1/DTD/svg11.dtd">
<!-- Created with matplotlib (https://matplotlib.org/) -->
<svg height="297.190125pt" version="1.1" viewBox="0 0 403.97 297.190125" width="403.97pt" xmlns="http://www.w3.org/2000/svg" xmlns:xlink="http://www.w3.org/1999/xlink">
 <metadata>
  <rdf:RDF xmlns:cc="http://creativecommons.org/ns#" xmlns:dc="http://purl.org/dc/elements/1.1/" xmlns:rdf="http://www.w3.org/1999/02/22-rdf-syntax-ns#">
   <cc:Work>
    <dc:type rdf:resource="http://purl.org/dc/dcmitype/StillImage"/>
    <dc:date>2021-05-06T04:16:11.231310</dc:date>
    <dc:format>image/svg+xml</dc:format>
    <dc:creator>
     <cc:Agent>
      <dc:title>Matplotlib v3.3.4, https://matplotlib.org/</dc:title>
     </cc:Agent>
    </dc:creator>
   </cc:Work>
  </rdf:RDF>
 </metadata>
 <defs>
  <style type="text/css">*{stroke-linecap:butt;stroke-linejoin:round;}</style>
 </defs>
 <g id="figure_1">
  <g id="patch_1">
   <path d="M 0 297.190125 
L 403.97 297.190125 
L 403.97 0 
L 0 0 
z
" style="fill:#ffffff;"/>
  </g>
  <g id="axes_1">
   <g id="patch_2">
    <path d="M 39.65 273.312 
L 396.77 273.312 
L 396.77 7.2 
L 39.65 7.2 
z
" style="fill:#ffffff;"/>
   </g>
   <g id="matplotlib.axis_1">
    <g id="xtick_1">
     <g id="line2d_1">
      <defs>
       <path d="M 0 0 
L 0 3.5 
" id="m60ea03cf21" style="stroke:#000000;stroke-width:0.8;"/>
      </defs>
      <g>
       <use style="stroke:#000000;stroke-width:0.8;" x="55.882727" xlink:href="#m60ea03cf21" y="273.312"/>
      </g>
     </g>
     <g id="text_1">
      <!-- 0.0 -->
      <g transform="translate(47.931165 287.910437)scale(0.1 -0.1)">
       <defs>
        <path d="M 31.78125 66.40625 
Q 24.171875 66.40625 20.328125 58.90625 
Q 16.5 51.421875 16.5 36.375 
Q 16.5 21.390625 20.328125 13.890625 
Q 24.171875 6.390625 31.78125 6.390625 
Q 39.453125 6.390625 43.28125 13.890625 
Q 47.125 21.390625 47.125 36.375 
Q 47.125 51.421875 43.28125 58.90625 
Q 39.453125 66.40625 31.78125 66.40625 
z
M 31.78125 74.21875 
Q 44.046875 74.21875 50.515625 64.515625 
Q 56.984375 54.828125 56.984375 36.375 
Q 56.984375 17.96875 50.515625 8.265625 
Q 44.046875 -1.421875 31.78125 -1.421875 
Q 19.53125 -1.421875 13.0625 8.265625 
Q 6.59375 17.96875 6.59375 36.375 
Q 6.59375 54.828125 13.0625 64.515625 
Q 19.53125 74.21875 31.78125 74.21875 
z
" id="DejaVuSans-48"/>
        <path d="M 10.6875 12.40625 
L 21 12.40625 
L 21 0 
L 10.6875 0 
z
" id="DejaVuSans-46"/>
       </defs>
       <use xlink:href="#DejaVuSans-48"/>
       <use x="63.623047" xlink:href="#DejaVuSans-46"/>
       <use x="95.410156" xlink:href="#DejaVuSans-48"/>
      </g>
     </g>
    </g>
    <g id="xtick_2">
     <g id="line2d_2">
      <g>
       <use style="stroke:#000000;stroke-width:0.8;" x="96.668474" xlink:href="#m60ea03cf21" y="273.312"/>
      </g>
     </g>
     <g id="text_2">
      <!-- 2.5 -->
      <g transform="translate(88.716912 287.910437)scale(0.1 -0.1)">
       <defs>
        <path d="M 19.1875 8.296875 
L 53.609375 8.296875 
L 53.609375 0 
L 7.328125 0 
L 7.328125 8.296875 
Q 12.9375 14.109375 22.625 23.890625 
Q 32.328125 33.6875 34.8125 36.53125 
Q 39.546875 41.84375 41.421875 45.53125 
Q 43.3125 49.21875 43.3125 52.78125 
Q 43.3125 58.59375 39.234375 62.25 
Q 35.15625 65.921875 28.609375 65.921875 
Q 23.96875 65.921875 18.8125 64.3125 
Q 13.671875 62.703125 7.8125 59.421875 
L 7.8125 69.390625 
Q 13.765625 71.78125 18.9375 73 
Q 24.125 74.21875 28.421875 74.21875 
Q 39.75 74.21875 46.484375 68.546875 
Q 53.21875 62.890625 53.21875 53.421875 
Q 53.21875 48.921875 51.53125 44.890625 
Q 49.859375 40.875 45.40625 35.40625 
Q 44.1875 33.984375 37.640625 27.21875 
Q 31.109375 20.453125 19.1875 8.296875 
z
" id="DejaVuSans-50"/>
        <path d="M 10.796875 72.90625 
L 49.515625 72.90625 
L 49.515625 64.59375 
L 19.828125 64.59375 
L 19.828125 46.734375 
Q 21.96875 47.46875 24.109375 47.828125 
Q 26.265625 48.1875 28.421875 48.1875 
Q 40.625 48.1875 47.75 41.5 
Q 54.890625 34.8125 54.890625 23.390625 
Q 54.890625 11.625 47.5625 5.09375 
Q 40.234375 -1.421875 26.90625 -1.421875 
Q 22.3125 -1.421875 17.546875 -0.640625 
Q 12.796875 0.140625 7.71875 1.703125 
L 7.71875 11.625 
Q 12.109375 9.234375 16.796875 8.0625 
Q 21.484375 6.890625 26.703125 6.890625 
Q 35.15625 6.890625 40.078125 11.328125 
Q 45.015625 15.765625 45.015625 23.390625 
Q 45.015625 31 40.078125 35.4375 
Q 35.15625 39.890625 26.703125 39.890625 
Q 22.75 39.890625 18.8125 39.015625 
Q 14.890625 38.140625 10.796875 36.28125 
z
" id="DejaVuSans-53"/>
       </defs>
       <use xlink:href="#DejaVuSans-50"/>
       <use x="63.623047" xlink:href="#DejaVuSans-46"/>
       <use x="95.410156" xlink:href="#DejaVuSans-53"/>
      </g>
     </g>
    </g>
    <g id="xtick_3">
     <g id="line2d_3">
      <g>
       <use style="stroke:#000000;stroke-width:0.8;" x="137.454221" xlink:href="#m60ea03cf21" y="273.312"/>
      </g>
     </g>
     <g id="text_3">
      <!-- 5.0 -->
      <g transform="translate(129.502659 287.910437)scale(0.1 -0.1)">
       <use xlink:href="#DejaVuSans-53"/>
       <use x="63.623047" xlink:href="#DejaVuSans-46"/>
       <use x="95.410156" xlink:href="#DejaVuSans-48"/>
      </g>
     </g>
    </g>
    <g id="xtick_4">
     <g id="line2d_4">
      <g>
       <use style="stroke:#000000;stroke-width:0.8;" x="178.239968" xlink:href="#m60ea03cf21" y="273.312"/>
      </g>
     </g>
     <g id="text_4">
      <!-- 7.5 -->
      <g transform="translate(170.288406 287.910437)scale(0.1 -0.1)">
       <defs>
        <path d="M 8.203125 72.90625 
L 55.078125 72.90625 
L 55.078125 68.703125 
L 28.609375 0 
L 18.3125 0 
L 43.21875 64.59375 
L 8.203125 64.59375 
z
" id="DejaVuSans-55"/>
       </defs>
       <use xlink:href="#DejaVuSans-55"/>
       <use x="63.623047" xlink:href="#DejaVuSans-46"/>
       <use x="95.410156" xlink:href="#DejaVuSans-53"/>
      </g>
     </g>
    </g>
    <g id="xtick_5">
     <g id="line2d_5">
      <g>
       <use style="stroke:#000000;stroke-width:0.8;" x="219.025715" xlink:href="#m60ea03cf21" y="273.312"/>
      </g>
     </g>
     <g id="text_5">
      <!-- 10.0 -->
      <g transform="translate(207.892902 287.910437)scale(0.1 -0.1)">
       <defs>
        <path d="M 12.40625 8.296875 
L 28.515625 8.296875 
L 28.515625 63.921875 
L 10.984375 60.40625 
L 10.984375 69.390625 
L 28.421875 72.90625 
L 38.28125 72.90625 
L 38.28125 8.296875 
L 54.390625 8.296875 
L 54.390625 0 
L 12.40625 0 
z
" id="DejaVuSans-49"/>
       </defs>
       <use xlink:href="#DejaVuSans-49"/>
       <use x="63.623047" xlink:href="#DejaVuSans-48"/>
       <use x="127.246094" xlink:href="#DejaVuSans-46"/>
       <use x="159.033203" xlink:href="#DejaVuSans-48"/>
      </g>
     </g>
    </g>
    <g id="xtick_6">
     <g id="line2d_6">
      <g>
       <use style="stroke:#000000;stroke-width:0.8;" x="259.811462" xlink:href="#m60ea03cf21" y="273.312"/>
      </g>
     </g>
     <g id="text_6">
      <!-- 12.5 -->
      <g transform="translate(248.678649 287.910437)scale(0.1 -0.1)">
       <use xlink:href="#DejaVuSans-49"/>
       <use x="63.623047" xlink:href="#DejaVuSans-50"/>
       <use x="127.246094" xlink:href="#DejaVuSans-46"/>
       <use x="159.033203" xlink:href="#DejaVuSans-53"/>
      </g>
     </g>
    </g>
    <g id="xtick_7">
     <g id="line2d_7">
      <g>
       <use style="stroke:#000000;stroke-width:0.8;" x="300.597209" xlink:href="#m60ea03cf21" y="273.312"/>
      </g>
     </g>
     <g id="text_7">
      <!-- 15.0 -->
      <g transform="translate(289.464396 287.910437)scale(0.1 -0.1)">
       <use xlink:href="#DejaVuSans-49"/>
       <use x="63.623047" xlink:href="#DejaVuSans-53"/>
       <use x="127.246094" xlink:href="#DejaVuSans-46"/>
       <use x="159.033203" xlink:href="#DejaVuSans-48"/>
      </g>
     </g>
    </g>
    <g id="xtick_8">
     <g id="line2d_8">
      <g>
       <use style="stroke:#000000;stroke-width:0.8;" x="341.382956" xlink:href="#m60ea03cf21" y="273.312"/>
      </g>
     </g>
     <g id="text_8">
      <!-- 17.5 -->
      <g transform="translate(330.250143 287.910437)scale(0.1 -0.1)">
       <use xlink:href="#DejaVuSans-49"/>
       <use x="63.623047" xlink:href="#DejaVuSans-55"/>
       <use x="127.246094" xlink:href="#DejaVuSans-46"/>
       <use x="159.033203" xlink:href="#DejaVuSans-53"/>
      </g>
     </g>
    </g>
    <g id="xtick_9">
     <g id="line2d_9">
      <g>
       <use style="stroke:#000000;stroke-width:0.8;" x="382.168703" xlink:href="#m60ea03cf21" y="273.312"/>
      </g>
     </g>
     <g id="text_9">
      <!-- 20.0 -->
      <g transform="translate(371.03589 287.910437)scale(0.1 -0.1)">
       <use xlink:href="#DejaVuSans-50"/>
       <use x="63.623047" xlink:href="#DejaVuSans-48"/>
       <use x="127.246094" xlink:href="#DejaVuSans-46"/>
       <use x="159.033203" xlink:href="#DejaVuSans-48"/>
      </g>
     </g>
    </g>
   </g>
   <g id="matplotlib.axis_2">
    <g id="ytick_1">
     <g id="line2d_10">
      <defs>
       <path d="M 0 0 
L -3.5 0 
" id="m6d9c0799e0" style="stroke:#000000;stroke-width:0.8;"/>
      </defs>
      <g>
       <use style="stroke:#000000;stroke-width:0.8;" x="39.65" xlink:href="#m6d9c0799e0" y="261.216"/>
      </g>
     </g>
     <g id="text_10">
      <!-- 0 -->
      <g transform="translate(26.2875 265.015219)scale(0.1 -0.1)">
       <use xlink:href="#DejaVuSans-48"/>
      </g>
     </g>
    </g>
    <g id="ytick_2">
     <g id="line2d_11">
      <g>
       <use style="stroke:#000000;stroke-width:0.8;" x="39.65" xlink:href="#m6d9c0799e0" y="221.686588"/>
      </g>
     </g>
     <g id="text_11">
      <!-- 500 -->
      <g transform="translate(13.5625 225.485807)scale(0.1 -0.1)">
       <use xlink:href="#DejaVuSans-53"/>
       <use x="63.623047" xlink:href="#DejaVuSans-48"/>
       <use x="127.246094" xlink:href="#DejaVuSans-48"/>
      </g>
     </g>
    </g>
    <g id="ytick_3">
     <g id="line2d_12">
      <g>
       <use style="stroke:#000000;stroke-width:0.8;" x="39.65" xlink:href="#m6d9c0799e0" y="182.157176"/>
      </g>
     </g>
     <g id="text_12">
      <!-- 1000 -->
      <g transform="translate(7.2 185.956395)scale(0.1 -0.1)">
       <use xlink:href="#DejaVuSans-49"/>
       <use x="63.623047" xlink:href="#DejaVuSans-48"/>
       <use x="127.246094" xlink:href="#DejaVuSans-48"/>
       <use x="190.869141" xlink:href="#DejaVuSans-48"/>
      </g>
     </g>
    </g>
    <g id="ytick_4">
     <g id="line2d_13">
      <g>
       <use style="stroke:#000000;stroke-width:0.8;" x="39.65" xlink:href="#m6d9c0799e0" y="142.627765"/>
      </g>
     </g>
     <g id="text_13">
      <!-- 1500 -->
      <g transform="translate(7.2 146.426983)scale(0.1 -0.1)">
       <use xlink:href="#DejaVuSans-49"/>
       <use x="63.623047" xlink:href="#DejaVuSans-53"/>
       <use x="127.246094" xlink:href="#DejaVuSans-48"/>
       <use x="190.869141" xlink:href="#DejaVuSans-48"/>
      </g>
     </g>
    </g>
    <g id="ytick_5">
     <g id="line2d_14">
      <g>
       <use style="stroke:#000000;stroke-width:0.8;" x="39.65" xlink:href="#m6d9c0799e0" y="103.098353"/>
      </g>
     </g>
     <g id="text_14">
      <!-- 2000 -->
      <g transform="translate(7.2 106.897572)scale(0.1 -0.1)">
       <use xlink:href="#DejaVuSans-50"/>
       <use x="63.623047" xlink:href="#DejaVuSans-48"/>
       <use x="127.246094" xlink:href="#DejaVuSans-48"/>
       <use x="190.869141" xlink:href="#DejaVuSans-48"/>
      </g>
     </g>
    </g>
    <g id="ytick_6">
     <g id="line2d_15">
      <g>
       <use style="stroke:#000000;stroke-width:0.8;" x="39.65" xlink:href="#m6d9c0799e0" y="63.568941"/>
      </g>
     </g>
     <g id="text_15">
      <!-- 2500 -->
      <g transform="translate(7.2 67.36816)scale(0.1 -0.1)">
       <use xlink:href="#DejaVuSans-50"/>
       <use x="63.623047" xlink:href="#DejaVuSans-53"/>
       <use x="127.246094" xlink:href="#DejaVuSans-48"/>
       <use x="190.869141" xlink:href="#DejaVuSans-48"/>
      </g>
     </g>
    </g>
    <g id="ytick_7">
     <g id="line2d_16">
      <g>
       <use style="stroke:#000000;stroke-width:0.8;" x="39.65" xlink:href="#m6d9c0799e0" y="24.039529"/>
      </g>
     </g>
     <g id="text_16">
      <!-- 3000 -->
      <g transform="translate(7.2 27.838748)scale(0.1 -0.1)">
       <defs>
        <path d="M 40.578125 39.3125 
Q 47.65625 37.796875 51.625 33 
Q 55.609375 28.21875 55.609375 21.1875 
Q 55.609375 10.40625 48.1875 4.484375 
Q 40.765625 -1.421875 27.09375 -1.421875 
Q 22.515625 -1.421875 17.65625 -0.515625 
Q 12.796875 0.390625 7.625 2.203125 
L 7.625 11.71875 
Q 11.71875 9.328125 16.59375 8.109375 
Q 21.484375 6.890625 26.8125 6.890625 
Q 36.078125 6.890625 40.9375 10.546875 
Q 45.796875 14.203125 45.796875 21.1875 
Q 45.796875 27.640625 41.28125 31.265625 
Q 36.765625 34.90625 28.71875 34.90625 
L 20.21875 34.90625 
L 20.21875 43.015625 
L 29.109375 43.015625 
Q 36.375 43.015625 40.234375 45.921875 
Q 44.09375 48.828125 44.09375 54.296875 
Q 44.09375 59.90625 40.109375 62.90625 
Q 36.140625 65.921875 28.71875 65.921875 
Q 24.65625 65.921875 20.015625 65.03125 
Q 15.375 64.15625 9.8125 62.3125 
L 9.8125 71.09375 
Q 15.4375 72.65625 20.34375 73.4375 
Q 25.25 74.21875 29.59375 74.21875 
Q 40.828125 74.21875 47.359375 69.109375 
Q 53.90625 64.015625 53.90625 55.328125 
Q 53.90625 49.265625 50.4375 45.09375 
Q 46.96875 40.921875 40.578125 39.3125 
z
" id="DejaVuSans-51"/>
       </defs>
       <use xlink:href="#DejaVuSans-51"/>
       <use x="63.623047" xlink:href="#DejaVuSans-48"/>
       <use x="127.246094" xlink:href="#DejaVuSans-48"/>
       <use x="190.869141" xlink:href="#DejaVuSans-48"/>
      </g>
     </g>
    </g>
   </g>
   <g id="line2d_17">
    <path clip-path="url(#pf3f9e4ee00)" d="M 55.882727 261.216 
L 59.961302 241.451294 
L 64.039877 223.591906 
L 68.118451 207.454163 
L 72.197026 192.872098 
L 76.275601 179.695744 
L 80.354175 167.789591 
L 84.43275 157.031191 
L 88.511325 147.309901 
L 92.589899 138.525743 
L 96.668474 130.588378 
L 100.747049 123.416175 
L 104.825624 116.935372 
L 108.904198 111.079319 
L 112.982773 105.787789 
L 117.061348 101.006362 
L 121.139922 96.685866 
L 125.218497 92.781865 
L 129.297072 89.254209 
L 133.375646 86.06662 
L 137.454221 83.186314 
L 141.532796 80.58367 
L 145.61137 78.231921 
L 149.689945 76.10688 
L 153.76852 74.186694 
L 157.847095 72.451613 
L 161.925669 70.883794 
L 166.004244 69.467113 
L 170.082819 68.187 
L 174.161393 67.030289 
L 178.239968 65.985086 
L 182.318543 65.04064 
L 186.397117 64.187239 
L 190.475692 63.416106 
L 194.554267 62.71931 
L 198.632841 62.089685 
L 202.711416 61.520756 
L 206.789991 61.006671 
L 210.868566 60.542145 
L 214.94714 60.122398 
L 219.025715 59.743116 
L 223.10429 59.400396 
L 227.182864 59.090714 
L 231.261439 58.810886 
L 235.340014 58.558033 
L 239.418588 58.329555 
L 243.497163 58.123103 
L 247.575738 57.936552 
L 251.654312 57.767985 
L 255.732887 57.615668 
L 259.811462 57.478034 
L 263.890037 57.353668 
L 267.968611 57.241291 
L 272.047186 57.139747 
L 276.125761 57.047992 
L 280.204335 56.965082 
L 284.28291 56.890165 
L 288.361485 56.822469 
L 292.440059 56.7613 
L 296.518634 56.706027 
L 300.597209 56.656082 
L 304.675783 56.610953 
L 308.754358 56.570173 
L 312.832933 56.533325 
L 316.911508 56.500029 
L 320.990082 56.469943 
L 325.068657 56.442757 
L 329.147232 56.418192 
L 333.225806 56.395994 
L 337.304381 56.375937 
L 341.382956 56.357813 
L 345.46153 56.341437 
L 349.540105 56.326639 
L 353.61868 56.313267 
L 357.697254 56.301185 
L 361.775829 56.290267 
L 365.854404 56.280402 
L 369.932979 56.271488 
L 374.011553 56.263433 
L 378.090128 56.256154 
" style="fill:none;stroke:#1f77b4;stroke-linecap:square;stroke-width:1.5;"/>
   </g>
   <g id="line2d_18">
    <path clip-path="url(#pf3f9e4ee00)" d="M 55.882727 261.216 
L 59.961302 261.216 
L 64.039877 259.310682 
L 68.118451 256.141377 
L 72.197026 252.17766 
L 76.275601 247.760317 
L 80.354175 243.13382 
L 84.43275 238.470854 
L 88.511325 233.890822 
L 92.589899 229.473782 
L 96.668474 225.270922 
L 100.747049 221.312427 
L 104.825624 217.613362 
L 108.904198 214.178063 
L 112.982773 211.003399 
L 117.061348 208.081187 
L 121.139922 205.39996 
L 125.218497 202.946268 
L 129.297072 200.705607 
L 133.375646 198.663087 
L 137.454221 196.803896 
L 141.532796 195.113622 
L 145.61137 193.578456 
L 149.689945 192.185329 
L 153.76852 190.921977 
L 157.847095 189.776976 
L 161.925669 188.739743 
L 166.004244 187.800515 
L 170.082819 186.950322 
L 174.161393 186.180942 
L 178.239968 185.484861 
L 182.318543 184.85522 
L 186.397117 184.285775 
L 190.475692 183.770842 
L 194.554267 183.305259 
L 198.632841 182.884338 
L 202.711416 182.503827 
L 206.789991 182.159869 
L 210.868566 181.848972 
L 214.94714 181.567973 
L 219.025715 181.314006 
L 223.10429 181.084479 
L 227.182864 180.877046 
L 231.261439 180.689585 
L 235.340014 180.520177 
L 239.418588 180.367086 
L 243.497163 180.228742 
L 247.575738 180.103726 
L 251.654312 179.990755 
L 255.732887 179.88867 
L 259.811462 179.796423 
L 263.890037 179.713065 
L 267.968611 179.637741 
L 272.047186 179.569677 
L 276.125761 179.508173 
L 280.204335 179.452597 
L 284.28291 179.402378 
L 288.361485 179.356999 
L 292.440059 179.315995 
L 296.518634 179.278943 
L 300.597209 179.245463 
L 304.675783 179.21521 
L 308.754358 179.187873 
L 312.832933 179.163171 
L 316.911508 179.140851 
L 320.990082 179.120682 
L 325.068657 179.102458 
L 329.147232 179.08599 
L 333.225806 179.07111 
L 337.304381 179.057664 
L 341.382956 179.045514 
L 345.46153 179.034536 
L 349.540105 179.024615 
L 353.61868 179.015652 
L 357.697254 179.007552 
L 361.775829 179.000233 
L 365.854404 178.993619 
L 369.932979 178.987644 
L 374.011553 178.982244 
L 378.090128 178.977365 
" style="fill:none;stroke:#ff7f0e;stroke-linecap:square;stroke-width:1.5;"/>
   </g>
   <g id="line2d_19">
    <path clip-path="url(#pf3f9e4ee00)" d="M 55.882727 261.216 
L 59.145587 243.902118 
L 60.777017 236.865882 
L 64.039877 224.611765 
L 65.671307 217.101176 
L 67.302736 211.804235 
L 68.934166 205.479529 
L 70.565596 200.577882 
L 72.197026 196.308706 
L 73.828456 191.090824 
L 75.459886 187.375059 
L 77.091316 181.682824 
L 80.354175 171.088941 
L 81.985605 167.531294 
L 85.248465 158.202353 
L 86.879895 151.798588 
L 88.511325 146.896941 
L 90.142755 142.627765 
L 95.037044 131.006118 
L 96.668474 128.476235 
L 98.299904 125.076706 
L 99.931334 122.467765 
L 101.562764 118.040471 
L 103.194194 115.273412 
L 104.825624 112.032 
L 106.457053 109.739294 
L 108.088483 107.841882 
L 111.351343 100.489412 
L 112.982773 98.750118 
L 116.245633 94.243765 
L 117.877063 92.583529 
L 119.508492 91.160471 
L 121.139922 88.630588 
L 124.402782 81.199059 
L 126.034212 79.696941 
L 127.665642 78.906353 
L 129.297072 76.613647 
L 130.928502 75.744 
L 132.559931 73.056 
L 134.191361 71.632941 
L 135.822791 68.786824 
L 137.454221 65.387294 
L 139.085651 63.410824 
L 140.717081 62.224941 
L 142.348511 61.671529 
L 143.979941 60.011294 
L 145.61137 58.667294 
L 147.2428 57.560471 
L 148.87423 55.109647 
L 150.50566 52.975059 
L 152.13709 53.528471 
L 155.39995 52.500706 
L 157.03138 52.579765 
L 158.66281 52.816941 
L 160.294239 51.552 
L 161.925669 49.733647 
L 163.557099 51.235765 
L 165.188529 50.761412 
L 166.819959 50.761412 
L 168.451389 50.919529 
L 170.082819 50.049882 
L 171.714249 49.575529 
L 173.345678 47.599059 
L 174.977108 47.203765 
L 176.608538 43.962353 
L 178.239968 43.646118 
L 179.871398 43.013647 
L 181.502828 42.064941 
L 183.134258 38.902588 
L 184.765688 37.321412 
L 186.397117 38.349176 
L 188.028547 37.637647 
L 189.659977 35.977412 
L 191.291407 35.186824 
L 192.922837 35.424 
L 194.554267 34.475294 
L 196.185697 34.317176 
L 197.817127 33.763765 
L 199.448556 31.550118 
L 201.079986 30.996706 
L 202.711416 29.810824 
L 204.342846 27.992471 
L 205.974276 28.862118 
L 207.605706 27.280941 
L 209.237136 28.387765 
L 210.868566 31.866353 
L 212.499995 32.182588 
L 214.131425 31.550118 
L 215.762855 30.127059 
L 217.394285 29.573647 
L 219.025715 29.652706 
L 220.657145 30.127059 
L 222.288575 28.783059 
L 223.920005 27.676235 
L 225.551434 27.36 
L 227.182864 28.783059 
L 228.814294 28.862118 
L 230.445724 27.280941 
L 232.077154 26.411294 
L 233.708584 27.755294 
L 235.340014 26.885647 
L 236.971444 27.043765 
L 238.602873 28.229647 
L 240.234303 27.439059 
L 241.865733 27.280941 
L 243.497163 26.569412 
L 245.128593 26.332235 
L 246.760023 27.201882 
L 248.391453 28.862118 
L 250.022883 29.178353 
L 251.654312 27.755294 
L 253.285742 27.755294 
L 254.917172 29.731765 
L 256.548602 28.704 
L 258.180032 28.941176 
L 259.811462 29.968941 
L 261.442892 28.624941 
L 263.074322 28.941176 
L 264.705751 28.150588 
L 266.337181 28.545882 
L 267.968611 29.810824 
L 269.600041 28.545882 
L 271.231471 30.680471 
L 272.862901 27.992471 
L 274.494331 29.178353 
L 276.125761 30.917647 
L 277.75719 31.945412 
L 279.38862 31.154824 
L 281.02005 29.178353 
L 282.65148 28.229647 
L 284.28291 27.518118 
L 285.91434 26.095059 
L 287.54577 26.490353 
L 289.1772 28.624941 
L 290.80863 27.439059 
L 292.440059 27.043765 
L 294.071489 26.253176 
L 295.702919 25.857882 
L 297.334349 25.857882 
L 298.965779 27.280941 
L 300.597209 26.885647 
L 302.228639 25.541647 
L 303.860069 24.592941 
L 305.491498 25.541647 
L 307.122928 27.122824 
L 308.754358 27.518118 
L 310.385788 26.490353 
L 312.017218 26.174118 
L 313.648648 27.913412 
L 315.280078 27.36 
L 316.911508 25.699765 
L 320.174367 25.146353 
L 321.805797 25.699765 
L 323.437227 24.039529 
L 325.068657 25.304471 
L 326.700087 23.486118 
L 328.331517 24.276706 
L 329.962947 22.932706 
L 331.594376 23.565176 
L 333.225806 21.193412 
L 334.857236 20.481882 
L 336.488666 19.296 
L 339.751526 20.798118 
L 341.382956 22.300235 
L 343.014386 21.825882 
L 344.645815 24.751059 
L 346.277245 23.169882 
L 347.908675 23.407059 
L 349.540105 23.407059 
L 351.171535 23.565176 
L 352.802965 22.063059 
L 354.434395 21.904941 
L 356.065825 22.695529 
L 357.697254 22.537412 
L 359.328684 21.904941 
L 360.960114 22.142118 
L 362.591544 21.351529 
L 367.485834 21.746824 
L 369.117264 22.458353 
L 370.748693 22.774588 
L 372.380123 21.272471 
L 374.011553 23.486118 
L 375.642983 23.407059 
L 377.274413 22.300235 
L 378.905843 23.486118 
L 380.537273 28.862118 
L 380.537273 28.862118 
" style="fill:none;stroke:#2ca02c;stroke-linecap:square;stroke-width:1.5;"/>
   </g>
   <g id="line2d_20">
    <path clip-path="url(#pf3f9e4ee00)" d="M 55.882727 261.216 
L 59.145587 260.978824 
L 60.777017 260.504471 
L 62.408447 259.476706 
L 64.039877 258.607059 
L 65.671307 257.184 
L 67.302736 255.602824 
L 68.934166 255.049412 
L 70.565596 253.942588 
L 73.828456 251.491765 
L 75.459886 249.12 
L 77.091316 247.459765 
L 78.722746 246.352941 
L 83.617035 241.293176 
L 85.248465 240.265412 
L 88.511325 236.391529 
L 90.142755 235.126588 
L 91.774185 231.964235 
L 93.405614 229.987765 
L 95.037044 227.695059 
L 96.668474 225.007059 
L 98.299904 221.765647 
L 99.931334 218.919529 
L 101.562764 216.310588 
L 108.088483 208.720941 
L 109.719913 207.614118 
L 112.982773 205.005176 
L 114.614203 203.582118 
L 116.245633 201.526588 
L 117.877063 199.787294 
L 119.508492 198.522353 
L 121.139922 195.992471 
L 122.771352 194.964706 
L 124.402782 193.225412 
L 126.034212 190.300235 
L 127.665642 188.956235 
L 130.928502 184.212706 
L 132.559931 184.370824 
L 134.191361 182.710588 
L 137.454221 181.761882 
L 139.085651 180.813176 
L 140.717081 179.548235 
L 142.348511 178.125176 
L 143.979941 175.990588 
L 145.61137 175.041882 
L 147.2428 172.907294 
L 148.87423 173.144471 
L 150.50566 172.432941 
L 152.13709 170.614588 
L 153.76852 170.456471 
L 155.39995 168.48 
L 158.66281 163.736471 
L 160.294239 163.183059 
L 161.925669 163.024941 
L 163.557099 160.416 
L 165.188529 158.518588 
L 166.819959 156.858353 
L 168.451389 155.830588 
L 170.082819 156.700235 
L 171.714249 158.755765 
L 173.345678 158.834824 
L 174.977108 158.676706 
L 176.608538 160.178824 
L 178.239968 159.388235 
L 179.871398 157.569882 
L 181.502828 157.807059 
L 183.134258 159.467294 
L 184.765688 158.992941 
L 186.397117 157.174588 
L 188.028547 157.728 
L 189.659977 156.384 
L 191.291407 157.728 
L 192.922837 157.095529 
L 194.554267 154.249412 
L 196.185697 154.407529 
L 197.817127 153.142588 
L 199.448556 152.352 
L 201.079986 152.352 
L 202.711416 151.087059 
L 204.342846 150.059294 
L 205.974276 148.636235 
L 207.605706 149.980235 
L 209.237136 148.003765 
L 210.868566 147.055059 
L 214.131425 147.529412 
L 215.762855 147.213176 
L 217.394285 147.529412 
L 219.025715 146.817882 
L 220.657145 144.920471 
L 222.288575 146.343529 
L 223.920005 145.948235 
L 225.551434 145.078588 
L 227.182864 143.813647 
L 228.814294 143.418353 
L 230.445724 142.153412 
L 232.077154 143.339294 
L 233.708584 142.311529 
L 235.340014 141.837176 
L 236.971444 142.153412 
L 238.602873 140.572235 
L 240.234303 141.837176 
L 241.865733 142.548706 
L 243.497163 143.655529 
L 245.128593 144.446118 
L 246.760023 143.576471 
L 248.391453 144.208941 
L 250.022883 144.050824 
L 251.654312 145.948235 
L 253.285742 146.027294 
L 254.917172 144.288 
L 256.548602 143.418353 
L 258.180032 143.418353 
L 259.811462 142.785882 
L 261.442892 144.525176 
L 263.074322 145.632 
L 264.705751 146.580706 
L 266.337181 144.999529 
L 269.600041 145.869176 
L 271.231471 145.632 
L 272.862901 146.264471 
L 274.494331 145.552941 
L 276.125761 144.367059 
L 277.75719 144.208941 
L 279.38862 145.157647 
L 281.02005 145.078588 
L 282.65148 145.394824 
L 284.28291 145.869176 
L 285.91434 146.817882 
L 287.54577 145.711059 
L 289.1772 143.655529 
L 290.80863 144.999529 
L 292.440059 145.632 
L 294.071489 145.790118 
L 295.702919 146.185412 
L 297.334349 145.552941 
L 298.965779 144.208941 
L 300.597209 143.892706 
L 302.228639 143.971765 
L 303.860069 143.576471 
L 305.491498 143.418353 
L 307.122928 141.520941 
L 308.754358 140.097882 
L 312.017218 141.679059 
L 315.280078 140.967529 
L 316.911508 142.311529 
L 318.542937 141.995294 
L 320.174367 142.311529 
L 321.805797 143.181176 
L 323.437227 145.078588 
L 325.068657 144.208941 
L 328.331517 143.497412 
L 329.962947 146.659765 
L 331.594376 145.869176 
L 333.225806 145.236706 
L 334.857236 144.920471 
L 336.488666 144.288 
L 338.120096 144.367059 
L 339.751526 143.260235 
L 341.382956 142.864941 
L 343.014386 143.023059 
L 344.645815 141.916235 
L 346.277245 142.232471 
L 347.908675 142.153412 
L 349.540105 142.864941 
L 351.171535 143.418353 
L 352.802965 144.841412 
L 356.065825 144.367059 
L 357.697254 143.497412 
L 359.328684 142.311529 
L 360.960114 143.971765 
L 364.222974 140.809412 
L 365.854404 141.758118 
L 369.117264 140.335059 
L 370.748693 140.335059 
L 372.380123 141.679059 
L 374.011553 142.548706 
L 375.642983 143.102118 
L 377.274413 143.497412 
L 378.905843 143.339294 
L 380.537273 142.706824 
L 380.537273 142.706824 
" style="fill:none;stroke:#d62728;stroke-linecap:square;stroke-width:1.5;"/>
   </g>
   <g id="patch_3">
    <path d="M 39.65 273.312 
L 39.65 7.2 
" style="fill:none;stroke:#000000;stroke-linecap:square;stroke-linejoin:miter;stroke-width:0.8;"/>
   </g>
   <g id="patch_4">
    <path d="M 396.77 273.312 
L 396.77 7.2 
" style="fill:none;stroke:#000000;stroke-linecap:square;stroke-linejoin:miter;stroke-width:0.8;"/>
   </g>
   <g id="patch_5">
    <path d="M 39.65 273.312 
L 396.77 273.312 
" style="fill:none;stroke:#000000;stroke-linecap:square;stroke-linejoin:miter;stroke-width:0.8;"/>
   </g>
   <g id="patch_6">
    <path d="M 39.65 7.2 
L 396.77 7.2 
" style="fill:none;stroke:#000000;stroke-linecap:square;stroke-linejoin:miter;stroke-width:0.8;"/>
   </g>
  </g>
 </g>
 <defs>
  <clipPath id="pf3f9e4ee00">
   <rect height="266.112" width="357.12" x="39.65" y="7.2"/>
  </clipPath>
 </defs>
</svg>
