<?xml version="1.0" encoding="utf-8" standalone="no"?>
<!DOCTYPE svg PUBLIC "-//W3C//DTD SVG 1.1//EN"
  "http://www.w3.org/Graphics/SVG/1.1/DTD/svg11.dtd">
<svg xmlns:xlink="http://www.w3.org/1999/xlink" width="403.97pt" height="297.190125pt" viewBox="0 0 403.97 297.190125" xmlns="http://www.w3.org/2000/svg" version="1.1">
 <metadata>
  <rdf:RDF xmlns:dc="http://purl.org/dc/elements/1.1/" xmlns:cc="http://creativecommons.org/ns#" xmlns:rdf="http://www.w3.org/1999/02/22-rdf-syntax-ns#">
   <cc:Work>
    <dc:type rdf:resource="http://purl.org/dc/dcmitype/StillImage"/>
    <dc:date>2024-06-28T00:19:40.455766</dc:date>
    <dc:format>image/svg+xml</dc:format>
    <dc:creator>
     <cc:Agent>
      <dc:title>Matplotlib v3.9.0, https://matplotlib.org/</dc:title>
     </cc:Agent>
    </dc:creator>
   </cc:Work>
  </rdf:RDF>
 </metadata>
 <defs>
  <style type="text/css">*{stroke-linejoin: round; stroke-linecap: butt}</style>
 </defs>
 <g id="figure_1">
  <g id="patch_1">
   <path d="M 0 297.190125 
L 403.97 297.190125 
L 403.97 0 
L 0 0 
z
" style="fill: #ffffff"/>
  </g>
  <g id="axes_1">
   <g id="patch_2">
    <path d="M 39.65 273.312 
L 396.77 273.312 
L 396.77 7.2 
L 39.65 7.2 
z
" style="fill: #ffffff"/>
   </g>
   <g id="matplotlib.axis_1">
    <g id="xtick_1">
     <g id="line2d_1">
      <defs>
       <path id="m004bd31b8d" d="M 0 0 
L 0 3.5 
" style="stroke: #000000; stroke-width: 0.8"/>
      </defs>
      <g>
       <use xlink:href="#m004bd31b8d" x="55.882727" y="273.312" style="stroke: #000000; stroke-width: 0.8"/>
      </g>
     </g>
     <g id="text_1">
      <!-- 0.0 -->
      <g transform="translate(47.931165 287.910437) scale(0.1 -0.1)">
       <defs>
        <path id="DejaVuSans-30" d="M 2034 4250 
Q 1547 4250 1301 3770 
Q 1056 3291 1056 2328 
Q 1056 1369 1301 889 
Q 1547 409 2034 409 
Q 2525 409 2770 889 
Q 3016 1369 3016 2328 
Q 3016 3291 2770 3770 
Q 2525 4250 2034 4250 
z
M 2034 4750 
Q 2819 4750 3233 4129 
Q 3647 3509 3647 2328 
Q 3647 1150 3233 529 
Q 2819 -91 2034 -91 
Q 1250 -91 836 529 
Q 422 1150 422 2328 
Q 422 3509 836 4129 
Q 1250 4750 2034 4750 
z
" transform="scale(0.015625)"/>
        <path id="DejaVuSans-2e" d="M 684 794 
L 1344 794 
L 1344 0 
L 684 0 
L 684 794 
z
" transform="scale(0.015625)"/>
       </defs>
       <use xlink:href="#DejaVuSans-30"/>
       <use xlink:href="#DejaVuSans-2e" x="63.623047"/>
       <use xlink:href="#DejaVuSans-30" x="95.410156"/>
      </g>
     </g>
    </g>
    <g id="xtick_2">
     <g id="line2d_2">
      <g>
       <use xlink:href="#m004bd31b8d" x="96.668474" y="273.312" style="stroke: #000000; stroke-width: 0.8"/>
      </g>
     </g>
     <g id="text_2">
      <!-- 2.5 -->
      <g transform="translate(88.716912 287.910437) scale(0.1 -0.1)">
       <defs>
        <path id="DejaVuSans-32" d="M 1228 531 
L 3431 531 
L 3431 0 
L 469 0 
L 469 531 
Q 828 903 1448 1529 
Q 2069 2156 2228 2338 
Q 2531 2678 2651 2914 
Q 2772 3150 2772 3378 
Q 2772 3750 2511 3984 
Q 2250 4219 1831 4219 
Q 1534 4219 1204 4116 
Q 875 4013 500 3803 
L 500 4441 
Q 881 4594 1212 4672 
Q 1544 4750 1819 4750 
Q 2544 4750 2975 4387 
Q 3406 4025 3406 3419 
Q 3406 3131 3298 2873 
Q 3191 2616 2906 2266 
Q 2828 2175 2409 1742 
Q 1991 1309 1228 531 
z
" transform="scale(0.015625)"/>
        <path id="DejaVuSans-35" d="M 691 4666 
L 3169 4666 
L 3169 4134 
L 1269 4134 
L 1269 2991 
Q 1406 3038 1543 3061 
Q 1681 3084 1819 3084 
Q 2600 3084 3056 2656 
Q 3513 2228 3513 1497 
Q 3513 744 3044 326 
Q 2575 -91 1722 -91 
Q 1428 -91 1123 -41 
Q 819 9 494 109 
L 494 744 
Q 775 591 1075 516 
Q 1375 441 1709 441 
Q 2250 441 2565 725 
Q 2881 1009 2881 1497 
Q 2881 1984 2565 2268 
Q 2250 2553 1709 2553 
Q 1456 2553 1204 2497 
Q 953 2441 691 2322 
L 691 4666 
z
" transform="scale(0.015625)"/>
       </defs>
       <use xlink:href="#DejaVuSans-32"/>
       <use xlink:href="#DejaVuSans-2e" x="63.623047"/>
       <use xlink:href="#DejaVuSans-35" x="95.410156"/>
      </g>
     </g>
    </g>
    <g id="xtick_3">
     <g id="line2d_3">
      <g>
       <use xlink:href="#m004bd31b8d" x="137.454221" y="273.312" style="stroke: #000000; stroke-width: 0.8"/>
      </g>
     </g>
     <g id="text_3">
      <!-- 5.0 -->
      <g transform="translate(129.502659 287.910437) scale(0.1 -0.1)">
       <use xlink:href="#DejaVuSans-35"/>
       <use xlink:href="#DejaVuSans-2e" x="63.623047"/>
       <use xlink:href="#DejaVuSans-30" x="95.410156"/>
      </g>
     </g>
    </g>
    <g id="xtick_4">
     <g id="line2d_4">
      <g>
       <use xlink:href="#m004bd31b8d" x="178.239968" y="273.312" style="stroke: #000000; stroke-width: 0.8"/>
      </g>
     </g>
     <g id="text_4">
      <!-- 7.5 -->
      <g transform="translate(170.288406 287.910437) scale(0.1 -0.1)">
       <defs>
        <path id="DejaVuSans-37" d="M 525 4666 
L 3525 4666 
L 3525 4397 
L 1831 0 
L 1172 0 
L 2766 4134 
L 525 4134 
L 525 4666 
z
" transform="scale(0.015625)"/>
       </defs>
       <use xlink:href="#DejaVuSans-37"/>
       <use xlink:href="#DejaVuSans-2e" x="63.623047"/>
       <use xlink:href="#DejaVuSans-35" x="95.410156"/>
      </g>
     </g>
    </g>
    <g id="xtick_5">
     <g id="line2d_5">
      <g>
       <use xlink:href="#m004bd31b8d" x="219.025715" y="273.312" style="stroke: #000000; stroke-width: 0.8"/>
      </g>
     </g>
     <g id="text_5">
      <!-- 10.0 -->
      <g transform="translate(207.892902 287.910437) scale(0.1 -0.1)">
       <defs>
        <path id="DejaVuSans-31" d="M 794 531 
L 1825 531 
L 1825 4091 
L 703 3866 
L 703 4441 
L 1819 4666 
L 2450 4666 
L 2450 531 
L 3481 531 
L 3481 0 
L 794 0 
L 794 531 
z
" transform="scale(0.015625)"/>
       </defs>
       <use xlink:href="#DejaVuSans-31"/>
       <use xlink:href="#DejaVuSans-30" x="63.623047"/>
       <use xlink:href="#DejaVuSans-2e" x="127.246094"/>
       <use xlink:href="#DejaVuSans-30" x="159.033203"/>
      </g>
     </g>
    </g>
    <g id="xtick_6">
     <g id="line2d_6">
      <g>
       <use xlink:href="#m004bd31b8d" x="259.811462" y="273.312" style="stroke: #000000; stroke-width: 0.8"/>
      </g>
     </g>
     <g id="text_6">
      <!-- 12.5 -->
      <g transform="translate(248.678649 287.910437) scale(0.1 -0.1)">
       <use xlink:href="#DejaVuSans-31"/>
       <use xlink:href="#DejaVuSans-32" x="63.623047"/>
       <use xlink:href="#DejaVuSans-2e" x="127.246094"/>
       <use xlink:href="#DejaVuSans-35" x="159.033203"/>
      </g>
     </g>
    </g>
    <g id="xtick_7">
     <g id="line2d_7">
      <g>
       <use xlink:href="#m004bd31b8d" x="300.597209" y="273.312" style="stroke: #000000; stroke-width: 0.8"/>
      </g>
     </g>
     <g id="text_7">
      <!-- 15.0 -->
      <g transform="translate(289.464396 287.910437) scale(0.1 -0.1)">
       <use xlink:href="#DejaVuSans-31"/>
       <use xlink:href="#DejaVuSans-35" x="63.623047"/>
       <use xlink:href="#DejaVuSans-2e" x="127.246094"/>
       <use xlink:href="#DejaVuSans-30" x="159.033203"/>
      </g>
     </g>
    </g>
    <g id="xtick_8">
     <g id="line2d_8">
      <g>
       <use xlink:href="#m004bd31b8d" x="341.382956" y="273.312" style="stroke: #000000; stroke-width: 0.8"/>
      </g>
     </g>
     <g id="text_8">
      <!-- 17.5 -->
      <g transform="translate(330.250143 287.910437) scale(0.1 -0.1)">
       <use xlink:href="#DejaVuSans-31"/>
       <use xlink:href="#DejaVuSans-37" x="63.623047"/>
       <use xlink:href="#DejaVuSans-2e" x="127.246094"/>
       <use xlink:href="#DejaVuSans-35" x="159.033203"/>
      </g>
     </g>
    </g>
    <g id="xtick_9">
     <g id="line2d_9">
      <g>
       <use xlink:href="#m004bd31b8d" x="382.168703" y="273.312" style="stroke: #000000; stroke-width: 0.8"/>
      </g>
     </g>
     <g id="text_9">
      <!-- 20.0 -->
      <g transform="translate(371.03589 287.910437) scale(0.1 -0.1)">
       <use xlink:href="#DejaVuSans-32"/>
       <use xlink:href="#DejaVuSans-30" x="63.623047"/>
       <use xlink:href="#DejaVuSans-2e" x="127.246094"/>
       <use xlink:href="#DejaVuSans-30" x="159.033203"/>
      </g>
     </g>
    </g>
   </g>
   <g id="matplotlib.axis_2">
    <g id="ytick_1">
     <g id="line2d_10">
      <defs>
       <path id="m12b43cbc0c" d="M 0 0 
L -3.5 0 
" style="stroke: #000000; stroke-width: 0.8"/>
      </defs>
      <g>
       <use xlink:href="#m12b43cbc0c" x="39.65" y="261.216" style="stroke: #000000; stroke-width: 0.8"/>
      </g>
     </g>
     <g id="text_10">
      <!-- 0 -->
      <g transform="translate(26.2875 265.015219) scale(0.1 -0.1)">
       <use xlink:href="#DejaVuSans-30"/>
      </g>
     </g>
    </g>
    <g id="ytick_2">
     <g id="line2d_11">
      <g>
       <use xlink:href="#m12b43cbc0c" x="39.65" y="221.439611" style="stroke: #000000; stroke-width: 0.8"/>
      </g>
     </g>
     <g id="text_11">
      <!-- 500 -->
      <g transform="translate(13.5625 225.238829) scale(0.1 -0.1)">
       <use xlink:href="#DejaVuSans-35"/>
       <use xlink:href="#DejaVuSans-30" x="63.623047"/>
       <use xlink:href="#DejaVuSans-30" x="127.246094"/>
      </g>
     </g>
    </g>
    <g id="ytick_3">
     <g id="line2d_12">
      <g>
       <use xlink:href="#m12b43cbc0c" x="39.65" y="181.663221" style="stroke: #000000; stroke-width: 0.8"/>
      </g>
     </g>
     <g id="text_12">
      <!-- 1000 -->
      <g transform="translate(7.2 185.46244) scale(0.1 -0.1)">
       <use xlink:href="#DejaVuSans-31"/>
       <use xlink:href="#DejaVuSans-30" x="63.623047"/>
       <use xlink:href="#DejaVuSans-30" x="127.246094"/>
       <use xlink:href="#DejaVuSans-30" x="190.869141"/>
      </g>
     </g>
    </g>
    <g id="ytick_4">
     <g id="line2d_13">
      <g>
       <use xlink:href="#m12b43cbc0c" x="39.65" y="141.886832" style="stroke: #000000; stroke-width: 0.8"/>
      </g>
     </g>
     <g id="text_13">
      <!-- 1500 -->
      <g transform="translate(7.2 145.686051) scale(0.1 -0.1)">
       <use xlink:href="#DejaVuSans-31"/>
       <use xlink:href="#DejaVuSans-35" x="63.623047"/>
       <use xlink:href="#DejaVuSans-30" x="127.246094"/>
       <use xlink:href="#DejaVuSans-30" x="190.869141"/>
      </g>
     </g>
    </g>
    <g id="ytick_5">
     <g id="line2d_14">
      <g>
       <use xlink:href="#m12b43cbc0c" x="39.65" y="102.110443" style="stroke: #000000; stroke-width: 0.8"/>
      </g>
     </g>
     <g id="text_14">
      <!-- 2000 -->
      <g transform="translate(7.2 105.909661) scale(0.1 -0.1)">
       <use xlink:href="#DejaVuSans-32"/>
       <use xlink:href="#DejaVuSans-30" x="63.623047"/>
       <use xlink:href="#DejaVuSans-30" x="127.246094"/>
       <use xlink:href="#DejaVuSans-30" x="190.869141"/>
      </g>
     </g>
    </g>
    <g id="ytick_6">
     <g id="line2d_15">
      <g>
       <use xlink:href="#m12b43cbc0c" x="39.65" y="62.334053" style="stroke: #000000; stroke-width: 0.8"/>
      </g>
     </g>
     <g id="text_15">
      <!-- 2500 -->
      <g transform="translate(7.2 66.133272) scale(0.1 -0.1)">
       <use xlink:href="#DejaVuSans-32"/>
       <use xlink:href="#DejaVuSans-35" x="63.623047"/>
       <use xlink:href="#DejaVuSans-30" x="127.246094"/>
       <use xlink:href="#DejaVuSans-30" x="190.869141"/>
      </g>
     </g>
    </g>
    <g id="ytick_7">
     <g id="line2d_16">
      <g>
       <use xlink:href="#m12b43cbc0c" x="39.65" y="22.557664" style="stroke: #000000; stroke-width: 0.8"/>
      </g>
     </g>
     <g id="text_16">
      <!-- 3000 -->
      <g transform="translate(7.2 26.356883) scale(0.1 -0.1)">
       <defs>
        <path id="DejaVuSans-33" d="M 2597 2516 
Q 3050 2419 3304 2112 
Q 3559 1806 3559 1356 
Q 3559 666 3084 287 
Q 2609 -91 1734 -91 
Q 1441 -91 1130 -33 
Q 819 25 488 141 
L 488 750 
Q 750 597 1062 519 
Q 1375 441 1716 441 
Q 2309 441 2620 675 
Q 2931 909 2931 1356 
Q 2931 1769 2642 2001 
Q 2353 2234 1838 2234 
L 1294 2234 
L 1294 2753 
L 1863 2753 
Q 2328 2753 2575 2939 
Q 2822 3125 2822 3475 
Q 2822 3834 2567 4026 
Q 2313 4219 1838 4219 
Q 1578 4219 1281 4162 
Q 984 4106 628 3988 
L 628 4550 
Q 988 4650 1302 4700 
Q 1616 4750 1894 4750 
Q 2613 4750 3031 4423 
Q 3450 4097 3450 3541 
Q 3450 3153 3228 2886 
Q 3006 2619 2597 2516 
z
" transform="scale(0.015625)"/>
       </defs>
       <use xlink:href="#DejaVuSans-33"/>
       <use xlink:href="#DejaVuSans-30" x="63.623047"/>
       <use xlink:href="#DejaVuSans-30" x="127.246094"/>
       <use xlink:href="#DejaVuSans-30" x="190.869141"/>
      </g>
     </g>
    </g>
   </g>
   <g id="line2d_17">
    <path d="M 55.882727 261.216 
L 59.961302 241.327805 
L 64.039877 223.096297 
L 68.118451 206.383474 
L 72.197026 191.062829 
L 76.275601 177.018393 
L 80.354175 164.143859 
L 84.43275 152.341774 
L 88.511325 141.522802 
L 92.589899 131.605051 
L 96.668474 122.513448 
L 100.747049 114.179176 
L 104.825624 106.539149 
L 108.904198 99.535536 
L 112.982773 93.115324 
L 117.061348 87.229916 
L 121.139922 81.834762 
L 125.218497 76.889024 
L 129.297072 72.355267 
L 133.375646 68.199171 
L 137.454221 64.389278 
L 141.532796 60.896749 
L 145.61137 57.695148 
L 149.689945 54.760241 
L 153.76852 52.069811 
L 157.847095 49.603494 
L 161.925669 47.342621 
L 166.004244 45.270079 
L 170.082819 43.370179 
L 174.161393 41.628541 
L 178.239968 40.031982 
L 182.318543 38.568416 
L 186.397117 37.226765 
L 190.475692 35.996874 
L 194.554267 34.869432 
L 198.632841 33.835907 
L 202.711416 32.888474 
L 206.789991 32.019962 
L 210.868566 31.223797 
L 214.94714 30.493953 
L 219.025715 29.824905 
L 223.10429 29.211588 
L 227.182864 28.649361 
L 231.261439 28.133968 
L 235.340014 27.661506 
L 239.418588 27.228401 
L 243.497163 26.831373 
L 247.575738 26.467418 
L 251.654312 26.13378 
L 255.732887 25.827934 
L 259.811462 25.547566 
L 263.890037 25.290552 
L 267.968611 25.054947 
L 272.047186 24.838968 
L 276.125761 24.64098 
L 280.204335 24.459484 
L 284.28291 24.293107 
L 288.361485 24.14059 
L 292.440059 24.000777 
L 296.518634 23.87261 
L 300.597209 23.75512 
L 304.675783 23.647417 
L 308.754358 23.548685 
L 312.832933 23.458178 
L 316.911508 23.375209 
L 320.990082 23.299153 
L 325.068657 23.229431 
L 329.147232 23.165518 
L 333.225806 23.106928 
L 337.304381 23.053219 
L 341.382956 23.003984 
L 345.46153 22.958851 
L 349.540105 22.917476 
L 353.61868 22.879549 
L 357.697254 22.84478 
L 361.775829 22.812908 
L 365.854404 22.783691 
L 369.932979 22.756908 
L 374.011553 22.732356 
L 378.090128 22.709848 
" clip-path="url(#pb58c032a7f)" style="fill: none; stroke: #1f77b4; stroke-width: 1.5; stroke-linecap: square"/>
   </g>
   <g id="line2d_18">
    <path d="M 55.882727 261.216 
L 59.961302 261.216 
L 64.039877 259.559313 
L 68.118451 256.660112 
L 72.197026 252.852029 
L 76.275601 248.402544 
L 80.354175 243.524886 
L 84.43275 238.387886 
L 88.511325 233.124109 
L 92.589899 227.836584 
L 96.668474 222.604341 
L 100.747049 217.486982 
L 104.825624 212.528442 
L 108.904198 207.760076 
L 112.982773 203.203196 
L 117.061348 198.871144 
L 121.139922 194.770991 
L 125.218497 190.904917 
L 129.297072 187.271337 
L 133.375646 183.865813 
L 137.454221 180.681788 
L 141.532796 177.711175 
L 145.61137 174.944836 
L 149.689945 172.372952 
L 153.76852 169.985323 
L 157.847095 167.771599 
L 161.925669 165.721459 
L 166.004244 163.824747 
L 170.082819 162.071573 
L 174.161393 160.452392 
L 178.239968 158.95805 
L 182.318543 157.579822 
L 186.397117 156.309429 
L 190.475692 155.139051 
L 194.554267 154.061325 
L 198.632841 153.06934 
L 202.711416 152.156627 
L 206.789991 151.317141 
L 210.868566 150.545251 
L 214.94714 149.835715 
L 219.025715 149.183662 
L 223.10429 148.584574 
L 227.182864 148.034265 
L 231.261439 147.52886 
L 235.340014 147.064773 
L 239.418588 146.638693 
L 243.497163 146.247563 
L 247.575738 145.888562 
L 251.654312 145.559089 
L 255.732887 145.256747 
L 259.811462 144.979329 
L 263.890037 144.724801 
L 267.968611 144.491294 
L 272.047186 144.277087 
L 276.125761 144.080597 
L 280.204335 143.900369 
L 284.28291 143.735067 
L 288.361485 143.583462 
L 292.440059 143.444424 
L 296.518634 143.316918 
L 300.597209 143.19999 
L 304.675783 143.092768 
L 308.754358 142.994448 
L 312.832933 142.904293 
L 316.911508 142.821628 
L 320.990082 142.745832 
L 325.068657 142.676336 
L 329.147232 142.612617 
L 333.225806 142.554195 
L 337.304381 142.500633 
L 341.382956 142.451525 
L 345.46153 142.406502 
L 349.540105 142.365225 
L 353.61868 142.327382 
L 357.697254 142.292688 
L 361.775829 142.260882 
L 365.854404 142.231722 
L 369.932979 142.20499 
L 374.011553 142.180483 
L 378.090128 142.158016 
" clip-path="url(#pb58c032a7f)" style="fill: none; stroke: #ff7f0e; stroke-width: 1.5; stroke-linecap: square"/>
   </g>
   <g id="line2d_19">
    <path d="M 55.882727 261.216 
L 57.514157 253.897144 
L 60.777017 237.350166 
L 62.408447 231.224602 
L 64.039877 225.655908 
L 65.671307 217.064208 
L 67.302736 210.461327 
L 68.934166 204.81308 
L 70.565596 198.687516 
L 72.197026 193.039269 
L 73.828456 188.106996 
L 75.459886 184.20891 
L 77.091316 180.629035 
L 78.722746 174.503471 
L 80.354175 169.173435 
L 85.248465 154.376618 
L 90.142755 140.852646 
L 95.037044 129.078835 
L 96.668474 125.578512 
L 98.299904 123.271482 
L 99.931334 119.691607 
L 101.562764 115.157098 
L 103.194194 112.372751 
L 104.825624 109.270193 
L 106.457053 106.883609 
L 108.088483 101.951337 
L 109.719913 100.837598 
L 111.351343 97.894145 
L 112.982773 97.17817 
L 116.245633 90.893501 
L 117.877063 90.654842 
L 121.139922 84.767937 
L 122.771352 83.335987 
L 124.402782 82.938223 
L 126.034212 81.267615 
L 127.665642 79.11969 
L 129.297072 78.244609 
L 132.559931 74.982945 
L 135.822791 69.891567 
L 139.085651 67.10722 
L 140.717081 65.118401 
L 142.348511 62.572712 
L 143.979941 61.618078 
L 145.61137 59.231495 
L 148.87423 56.208489 
L 150.50566 55.969831 
L 152.13709 56.128937 
L 153.76852 54.617434 
L 155.39995 52.946825 
L 157.03138 53.6628 
L 158.66281 51.833086 
L 160.294239 49.526056 
L 163.557099 47.05992 
L 165.188529 46.582603 
L 166.819959 42.923175 
L 168.451389 44.355125 
L 170.082819 42.2072 
L 171.714249 41.968542 
L 173.345678 41.093461 
L 174.977108 39.90017 
L 176.608538 36.797611 
L 178.239968 36.877164 
L 179.871398 36.081636 
L 181.502828 35.683872 
L 183.134258 33.854159 
L 184.765688 32.501761 
L 186.397117 29.956072 
L 188.028547 28.683228 
L 189.659977 28.842333 
L 191.291407 28.44457 
L 192.922837 28.921886 
L 194.554267 28.285464 
L 196.185697 27.489936 
L 197.817127 27.092172 
L 199.448556 26.933067 
L 201.079986 27.808147 
L 202.711416 25.262458 
L 204.342846 23.59185 
L 205.974276 24.387378 
L 207.605706 24.387378 
L 209.237136 24.546483 
L 210.868566 24.387378 
L 212.499995 25.0238 
L 214.131425 25.342011 
L 215.762855 25.103353 
L 217.394285 23.034981 
L 219.025715 22.796322 
L 220.657145 23.910061 
L 222.288575 23.512297 
L 223.920005 23.512297 
L 225.551434 22.637217 
L 227.182864 22.239453 
L 228.814294 23.353192 
L 230.445724 20.887056 
L 232.077154 19.296 
L 233.708584 20.409739 
L 235.340014 22.239453 
L 236.971444 21.205267 
L 238.602873 21.603031 
L 240.234303 23.830508 
L 241.865733 23.353192 
L 245.128593 24.944247 
L 246.760023 26.137539 
L 248.391453 26.614856 
L 250.022883 27.967253 
L 251.654312 27.410383 
L 253.285742 24.546483 
L 254.917172 22.478111 
L 256.548602 22.637217 
L 258.180032 24.228272 
L 259.811462 22.796322 
L 261.442892 23.273639 
L 266.337181 27.330831 
L 267.968611 27.808147 
L 269.600041 27.092172 
L 271.231471 27.808147 
L 272.862901 27.01262 
L 274.494331 27.728595 
L 276.125761 27.808147 
L 277.75719 28.842333 
L 279.38862 28.842333 
L 281.02005 29.637861 
L 282.65148 30.990258 
L 284.28291 30.274283 
L 285.91434 31.069811 
L 287.54577 30.831153 
L 289.1772 29.478756 
L 290.80863 29.87652 
L 292.440059 28.046806 
L 294.071489 27.728595 
L 295.702919 25.819328 
L 297.334349 26.057986 
L 298.965779 27.171725 
L 300.597209 26.45575 
L 302.228639 27.649042 
L 303.860069 27.569489 
L 305.491498 30.910706 
L 307.122928 34.570134 
L 308.754358 33.854159 
L 310.385788 33.456395 
L 312.017218 31.228917 
L 313.648648 31.547128 
L 316.911508 32.899525 
L 318.542937 34.013264 
L 320.174367 32.18355 
L 321.805797 32.660867 
L 323.437227 29.717414 
L 325.068657 28.603675 
L 326.700087 27.808147 
L 328.331517 27.569489 
L 329.962947 26.853514 
L 331.594376 26.376197 
L 333.225806 24.864695 
L 334.857236 25.739775 
L 336.488666 25.978433 
L 338.120096 26.535303 
L 339.751526 25.660222 
L 341.382956 23.910061 
L 343.014386 23.671403 
L 344.645815 24.944247 
L 346.277245 24.944247 
L 347.908675 26.376197 
L 349.540105 25.501117 
L 351.171535 25.262458 
L 352.802965 27.251278 
L 354.434395 28.524122 
L 356.065825 29.478756 
L 357.697254 28.683228 
L 359.328684 29.717414 
L 360.960114 28.921886 
L 362.591544 27.330831 
L 364.222974 26.057986 
L 365.854404 25.898881 
L 369.117264 27.251278 
L 370.748693 25.660222 
L 372.380123 26.296645 
L 374.011553 24.944247 
L 375.642983 23.910061 
L 377.274413 25.58067 
L 378.905843 26.137539 
L 380.537273 24.785142 
L 380.537273 24.785142 
" clip-path="url(#pb58c032a7f)" style="fill: none; stroke: #2ca02c; stroke-width: 1.5; stroke-linecap: square"/>
   </g>
   <g id="line2d_20">
    <path d="M 55.882727 261.216 
L 57.514157 261.056894 
L 60.777017 259.863603 
L 64.039877 256.92015 
L 65.671307 255.726858 
L 67.302736 254.772225 
L 68.934166 252.942511 
L 72.197026 250.078611 
L 73.828456 249.044425 
L 77.091316 246.100972 
L 78.722746 245.623655 
L 83.617035 239.73675 
L 85.248465 237.668378 
L 86.879895 237.031955 
L 88.511325 235.202241 
L 90.142755 232.815658 
L 91.774185 231.383708 
L 95.037044 227.565175 
L 96.668474 224.939933 
L 101.562764 218.496158 
L 103.194194 215.950469 
L 104.825624 213.961649 
L 106.457053 211.654619 
L 108.088483 211.336408 
L 109.719913 209.10893 
L 112.982773 203.142472 
L 114.614203 201.471863 
L 116.245633 201.790074 
L 117.877063 198.52841 
L 119.508492 197.494224 
L 122.771352 196.141827 
L 124.402782 193.118821 
L 126.034212 191.448213 
L 127.665642 191.92553 
L 129.297072 189.93671 
L 132.559931 188.266102 
L 134.191361 187.947891 
L 135.822791 186.277282 
L 137.454221 185.083991 
L 139.085651 183.492935 
L 140.717081 182.299644 
L 142.348511 181.742774 
L 143.979941 180.46993 
L 145.61137 179.515296 
L 147.2428 176.014974 
L 148.87423 175.298999 
L 150.50566 172.912416 
L 153.76852 171.003149 
L 155.39995 171.082702 
L 157.03138 169.571199 
L 158.66281 169.491646 
L 160.294239 170.44628 
L 161.925669 168.855224 
L 163.557099 169.332541 
L 165.188529 167.502827 
L 166.819959 167.343721 
L 168.451389 164.559374 
L 170.082819 164.400268 
L 171.714249 163.047871 
L 173.345678 162.570554 
L 176.608538 163.445635 
L 178.239968 161.854579 
L 179.871398 161.934132 
L 181.502828 161.695474 
L 183.134258 161.218157 
L 184.765688 161.29771 
L 186.397117 160.979499 
L 188.028547 160.422629 
L 189.659977 157.479177 
L 191.291407 157.87694 
L 192.922837 156.842754 
L 194.554267 156.763202 
L 196.185697 155.967674 
L 197.817127 155.410804 
L 199.448556 153.421985 
L 201.079986 154.535724 
L 202.711416 154.13796 
L 204.342846 154.058407 
L 205.974276 150.796743 
L 207.605706 151.114954 
L 209.237136 150.398979 
L 210.868566 149.364793 
L 212.499995 149.28524 
L 214.131425 147.694185 
L 215.762855 147.85329 
L 217.394285 149.126135 
L 219.025715 147.614632 
L 220.657145 148.012396 
L 222.288575 149.84211 
L 223.920005 148.330607 
L 225.551434 149.28524 
L 227.182864 148.648818 
L 228.814294 146.819104 
L 230.445724 146.023576 
L 232.077154 146.97821 
L 233.708584 146.341788 
L 235.340014 145.944024 
L 236.971444 146.103129 
L 238.602873 144.98939 
L 240.234303 142.443701 
L 241.865733 143.796099 
L 243.497163 143.159676 
L 245.128593 142.284596 
L 246.760023 143.239229 
L 248.391453 143.239229 
L 250.022883 141.409515 
L 251.654312 142.364149 
L 253.285742 143.636993 
L 254.917172 145.54626 
L 256.548602 143.080124 
L 258.180032 142.921018 
L 261.442892 143.796099 
L 263.074322 142.841465 
L 264.705751 142.68236 
L 266.337181 141.409515 
L 267.968611 139.420696 
L 269.600041 140.932199 
L 271.231471 140.216224 
L 272.862901 139.022932 
L 274.494331 138.784274 
L 276.125761 139.977565 
L 277.75719 139.420696 
L 279.38862 138.625168 
L 281.02005 139.659354 
L 282.65148 138.625168 
L 284.28291 138.784274 
L 285.91434 139.341143 
L 287.54577 140.613988 
L 289.1772 142.284596 
L 290.80863 142.761913 
L 292.440059 141.886832 
L 294.071489 142.205043 
L 295.702919 144.512074 
L 297.334349 144.352968 
L 298.965779 144.591626 
L 300.597209 143.239229 
L 302.228639 144.750732 
L 303.860069 144.671179 
L 305.491498 143.796099 
L 307.122928 141.807279 
L 308.754358 143.080124 
L 310.385788 142.68236 
L 312.017218 143.636993 
L 313.648648 142.523254 
L 315.280078 140.852646 
L 316.911508 140.932199 
L 318.542937 137.352324 
L 320.174367 138.306957 
L 321.805797 137.431876 
L 323.437227 138.863826 
L 325.068657 138.863826 
L 326.700087 139.898012 
L 328.331517 141.568621 
L 331.594376 141.011751 
L 333.225806 143.55744 
L 334.857236 142.602807 
L 336.488666 141.489068 
L 338.120096 140.057118 
L 339.751526 140.375329 
L 341.382956 140.295776 
L 343.014386 139.81846 
L 344.645815 139.102485 
L 346.277245 140.613988 
L 347.908675 138.38651 
L 349.540105 138.545615 
L 351.171535 139.579801 
L 352.802965 137.670535 
L 354.434395 136.556796 
L 356.065825 137.113665 
L 357.697254 140.613988 
L 359.328684 139.182037 
L 360.960114 140.375329 
L 362.591544 142.602807 
L 364.222974 143.955204 
L 365.854404 144.034757 
L 367.485834 144.432521 
L 369.117264 144.034757 
L 370.748693 144.034757 
L 372.380123 143.875651 
L 374.011553 145.148496 
L 375.642983 145.148496 
L 377.274413 143.477888 
L 378.905843 142.68236 
L 380.537273 143.875651 
L 380.537273 143.875651 
" clip-path="url(#pb58c032a7f)" style="fill: none; stroke: #d62728; stroke-width: 1.5; stroke-linecap: square"/>
   </g>
   <g id="patch_3">
    <path d="M 39.65 273.312 
L 39.65 7.2 
" style="fill: none; stroke: #000000; stroke-width: 0.8; stroke-linejoin: miter; stroke-linecap: square"/>
   </g>
   <g id="patch_4">
    <path d="M 396.77 273.312 
L 396.77 7.2 
" style="fill: none; stroke: #000000; stroke-width: 0.8; stroke-linejoin: miter; stroke-linecap: square"/>
   </g>
   <g id="patch_5">
    <path d="M 39.65 273.312 
L 396.77 273.312 
" style="fill: none; stroke: #000000; stroke-width: 0.8; stroke-linejoin: miter; stroke-linecap: square"/>
   </g>
   <g id="patch_6">
    <path d="M 39.65 7.2 
L 396.77 7.2 
" style="fill: none; stroke: #000000; stroke-width: 0.8; stroke-linejoin: miter; stroke-linecap: square"/>
   </g>
  </g>
 </g>
 <defs>
  <clipPath id="pb58c032a7f">
   <rect x="39.65" y="7.2" width="357.12" height="266.112"/>
  </clipPath>
 </defs>
</svg>
