<?xml version="1.0" encoding="utf-8" standalone="no"?>
<!DOCTYPE svg PUBLIC "-//W3C//DTD SVG 1.1//EN"
  "http://www.w3.org/Graphics/SVG/1.1/DTD/svg11.dtd">
<svg xmlns:xlink="http://www.w3.org/1999/xlink" width="403.97pt" height="297.190125pt" viewBox="0 0 403.97 297.190125" xmlns="http://www.w3.org/2000/svg" version="1.1">
 <metadata>
  <rdf:RDF xmlns:dc="http://purl.org/dc/elements/1.1/" xmlns:cc="http://creativecommons.org/ns#" xmlns:rdf="http://www.w3.org/1999/02/22-rdf-syntax-ns#">
   <cc:Work>
    <dc:type rdf:resource="http://purl.org/dc/dcmitype/StillImage"/>
    <dc:date>2024-06-28T00:19:39.107126</dc:date>
    <dc:format>image/svg+xml</dc:format>
    <dc:creator>
     <cc:Agent>
      <dc:title>Matplotlib v3.9.0, https://matplotlib.org/</dc:title>
     </cc:Agent>
    </dc:creator>
   </cc:Work>
  </rdf:RDF>
 </metadata>
 <defs>
  <style type="text/css">*{stroke-linejoin: round; stroke-linecap: butt}</style>
 </defs>
 <g id="figure_1">
  <g id="patch_1">
   <path d="M 0 297.190125 
L 403.97 297.190125 
L 403.97 0 
L 0 0 
z
" style="fill: #ffffff"/>
  </g>
  <g id="axes_1">
   <g id="patch_2">
    <path d="M 39.65 273.312 
L 396.77 273.312 
L 396.77 7.2 
L 39.65 7.2 
z
" style="fill: #ffffff"/>
   </g>
   <g id="matplotlib.axis_1">
    <g id="xtick_1">
     <g id="line2d_1">
      <defs>
       <path id="mc89bc7fccf" d="M 0 0 
L 0 3.5 
" style="stroke: #000000; stroke-width: 0.8"/>
      </defs>
      <g>
       <use xlink:href="#mc89bc7fccf" x="55.882727" y="273.312" style="stroke: #000000; stroke-width: 0.8"/>
      </g>
     </g>
     <g id="text_1">
      <!-- 0.0 -->
      <g transform="translate(47.931165 287.910437) scale(0.1 -0.1)">
       <defs>
        <path id="DejaVuSans-30" d="M 2034 4250 
Q 1547 4250 1301 3770 
Q 1056 3291 1056 2328 
Q 1056 1369 1301 889 
Q 1547 409 2034 409 
Q 2525 409 2770 889 
Q 3016 1369 3016 2328 
Q 3016 3291 2770 3770 
Q 2525 4250 2034 4250 
z
M 2034 4750 
Q 2819 4750 3233 4129 
Q 3647 3509 3647 2328 
Q 3647 1150 3233 529 
Q 2819 -91 2034 -91 
Q 1250 -91 836 529 
Q 422 1150 422 2328 
Q 422 3509 836 4129 
Q 1250 4750 2034 4750 
z
" transform="scale(0.015625)"/>
        <path id="DejaVuSans-2e" d="M 684 794 
L 1344 794 
L 1344 0 
L 684 0 
L 684 794 
z
" transform="scale(0.015625)"/>
       </defs>
       <use xlink:href="#DejaVuSans-30"/>
       <use xlink:href="#DejaVuSans-2e" x="63.623047"/>
       <use xlink:href="#DejaVuSans-30" x="95.410156"/>
      </g>
     </g>
    </g>
    <g id="xtick_2">
     <g id="line2d_2">
      <g>
       <use xlink:href="#mc89bc7fccf" x="96.668474" y="273.312" style="stroke: #000000; stroke-width: 0.8"/>
      </g>
     </g>
     <g id="text_2">
      <!-- 2.5 -->
      <g transform="translate(88.716912 287.910437) scale(0.1 -0.1)">
       <defs>
        <path id="DejaVuSans-32" d="M 1228 531 
L 3431 531 
L 3431 0 
L 469 0 
L 469 531 
Q 828 903 1448 1529 
Q 2069 2156 2228 2338 
Q 2531 2678 2651 2914 
Q 2772 3150 2772 3378 
Q 2772 3750 2511 3984 
Q 2250 4219 1831 4219 
Q 1534 4219 1204 4116 
Q 875 4013 500 3803 
L 500 4441 
Q 881 4594 1212 4672 
Q 1544 4750 1819 4750 
Q 2544 4750 2975 4387 
Q 3406 4025 3406 3419 
Q 3406 3131 3298 2873 
Q 3191 2616 2906 2266 
Q 2828 2175 2409 1742 
Q 1991 1309 1228 531 
z
" transform="scale(0.015625)"/>
        <path id="DejaVuSans-35" d="M 691 4666 
L 3169 4666 
L 3169 4134 
L 1269 4134 
L 1269 2991 
Q 1406 3038 1543 3061 
Q 1681 3084 1819 3084 
Q 2600 3084 3056 2656 
Q 3513 2228 3513 1497 
Q 3513 744 3044 326 
Q 2575 -91 1722 -91 
Q 1428 -91 1123 -41 
Q 819 9 494 109 
L 494 744 
Q 775 591 1075 516 
Q 1375 441 1709 441 
Q 2250 441 2565 725 
Q 2881 1009 2881 1497 
Q 2881 1984 2565 2268 
Q 2250 2553 1709 2553 
Q 1456 2553 1204 2497 
Q 953 2441 691 2322 
L 691 4666 
z
" transform="scale(0.015625)"/>
       </defs>
       <use xlink:href="#DejaVuSans-32"/>
       <use xlink:href="#DejaVuSans-2e" x="63.623047"/>
       <use xlink:href="#DejaVuSans-35" x="95.410156"/>
      </g>
     </g>
    </g>
    <g id="xtick_3">
     <g id="line2d_3">
      <g>
       <use xlink:href="#mc89bc7fccf" x="137.454221" y="273.312" style="stroke: #000000; stroke-width: 0.8"/>
      </g>
     </g>
     <g id="text_3">
      <!-- 5.0 -->
      <g transform="translate(129.502659 287.910437) scale(0.1 -0.1)">
       <use xlink:href="#DejaVuSans-35"/>
       <use xlink:href="#DejaVuSans-2e" x="63.623047"/>
       <use xlink:href="#DejaVuSans-30" x="95.410156"/>
      </g>
     </g>
    </g>
    <g id="xtick_4">
     <g id="line2d_4">
      <g>
       <use xlink:href="#mc89bc7fccf" x="178.239968" y="273.312" style="stroke: #000000; stroke-width: 0.8"/>
      </g>
     </g>
     <g id="text_4">
      <!-- 7.5 -->
      <g transform="translate(170.288406 287.910437) scale(0.1 -0.1)">
       <defs>
        <path id="DejaVuSans-37" d="M 525 4666 
L 3525 4666 
L 3525 4397 
L 1831 0 
L 1172 0 
L 2766 4134 
L 525 4134 
L 525 4666 
z
" transform="scale(0.015625)"/>
       </defs>
       <use xlink:href="#DejaVuSans-37"/>
       <use xlink:href="#DejaVuSans-2e" x="63.623047"/>
       <use xlink:href="#DejaVuSans-35" x="95.410156"/>
      </g>
     </g>
    </g>
    <g id="xtick_5">
     <g id="line2d_5">
      <g>
       <use xlink:href="#mc89bc7fccf" x="219.025715" y="273.312" style="stroke: #000000; stroke-width: 0.8"/>
      </g>
     </g>
     <g id="text_5">
      <!-- 10.0 -->
      <g transform="translate(207.892902 287.910437) scale(0.1 -0.1)">
       <defs>
        <path id="DejaVuSans-31" d="M 794 531 
L 1825 531 
L 1825 4091 
L 703 3866 
L 703 4441 
L 1819 4666 
L 2450 4666 
L 2450 531 
L 3481 531 
L 3481 0 
L 794 0 
L 794 531 
z
" transform="scale(0.015625)"/>
       </defs>
       <use xlink:href="#DejaVuSans-31"/>
       <use xlink:href="#DejaVuSans-30" x="63.623047"/>
       <use xlink:href="#DejaVuSans-2e" x="127.246094"/>
       <use xlink:href="#DejaVuSans-30" x="159.033203"/>
      </g>
     </g>
    </g>
    <g id="xtick_6">
     <g id="line2d_6">
      <g>
       <use xlink:href="#mc89bc7fccf" x="259.811462" y="273.312" style="stroke: #000000; stroke-width: 0.8"/>
      </g>
     </g>
     <g id="text_6">
      <!-- 12.5 -->
      <g transform="translate(248.678649 287.910437) scale(0.1 -0.1)">
       <use xlink:href="#DejaVuSans-31"/>
       <use xlink:href="#DejaVuSans-32" x="63.623047"/>
       <use xlink:href="#DejaVuSans-2e" x="127.246094"/>
       <use xlink:href="#DejaVuSans-35" x="159.033203"/>
      </g>
     </g>
    </g>
    <g id="xtick_7">
     <g id="line2d_7">
      <g>
       <use xlink:href="#mc89bc7fccf" x="300.597209" y="273.312" style="stroke: #000000; stroke-width: 0.8"/>
      </g>
     </g>
     <g id="text_7">
      <!-- 15.0 -->
      <g transform="translate(289.464396 287.910437) scale(0.1 -0.1)">
       <use xlink:href="#DejaVuSans-31"/>
       <use xlink:href="#DejaVuSans-35" x="63.623047"/>
       <use xlink:href="#DejaVuSans-2e" x="127.246094"/>
       <use xlink:href="#DejaVuSans-30" x="159.033203"/>
      </g>
     </g>
    </g>
    <g id="xtick_8">
     <g id="line2d_8">
      <g>
       <use xlink:href="#mc89bc7fccf" x="341.382956" y="273.312" style="stroke: #000000; stroke-width: 0.8"/>
      </g>
     </g>
     <g id="text_8">
      <!-- 17.5 -->
      <g transform="translate(330.250143 287.910437) scale(0.1 -0.1)">
       <use xlink:href="#DejaVuSans-31"/>
       <use xlink:href="#DejaVuSans-37" x="63.623047"/>
       <use xlink:href="#DejaVuSans-2e" x="127.246094"/>
       <use xlink:href="#DejaVuSans-35" x="159.033203"/>
      </g>
     </g>
    </g>
    <g id="xtick_9">
     <g id="line2d_9">
      <g>
       <use xlink:href="#mc89bc7fccf" x="382.168703" y="273.312" style="stroke: #000000; stroke-width: 0.8"/>
      </g>
     </g>
     <g id="text_9">
      <!-- 20.0 -->
      <g transform="translate(371.03589 287.910437) scale(0.1 -0.1)">
       <use xlink:href="#DejaVuSans-32"/>
       <use xlink:href="#DejaVuSans-30" x="63.623047"/>
       <use xlink:href="#DejaVuSans-2e" x="127.246094"/>
       <use xlink:href="#DejaVuSans-30" x="159.033203"/>
      </g>
     </g>
    </g>
   </g>
   <g id="matplotlib.axis_2">
    <g id="ytick_1">
     <g id="line2d_10">
      <defs>
       <path id="m3ae3c5749c" d="M 0 0 
L -3.5 0 
" style="stroke: #000000; stroke-width: 0.8"/>
      </defs>
      <g>
       <use xlink:href="#m3ae3c5749c" x="39.65" y="261.216" style="stroke: #000000; stroke-width: 0.8"/>
      </g>
     </g>
     <g id="text_10">
      <!-- 0 -->
      <g transform="translate(26.2875 265.015219) scale(0.1 -0.1)">
       <use xlink:href="#DejaVuSans-30"/>
      </g>
     </g>
    </g>
    <g id="ytick_2">
     <g id="line2d_11">
      <g>
       <use xlink:href="#m3ae3c5749c" x="39.65" y="226.862876" style="stroke: #000000; stroke-width: 0.8"/>
      </g>
     </g>
     <g id="text_11">
      <!-- 500 -->
      <g transform="translate(13.5625 230.662095) scale(0.1 -0.1)">
       <use xlink:href="#DejaVuSans-35"/>
       <use xlink:href="#DejaVuSans-30" x="63.623047"/>
       <use xlink:href="#DejaVuSans-30" x="127.246094"/>
      </g>
     </g>
    </g>
    <g id="ytick_3">
     <g id="line2d_12">
      <g>
       <use xlink:href="#m3ae3c5749c" x="39.65" y="192.509752" style="stroke: #000000; stroke-width: 0.8"/>
      </g>
     </g>
     <g id="text_12">
      <!-- 1000 -->
      <g transform="translate(7.2 196.308971) scale(0.1 -0.1)">
       <use xlink:href="#DejaVuSans-31"/>
       <use xlink:href="#DejaVuSans-30" x="63.623047"/>
       <use xlink:href="#DejaVuSans-30" x="127.246094"/>
       <use xlink:href="#DejaVuSans-30" x="190.869141"/>
      </g>
     </g>
    </g>
    <g id="ytick_4">
     <g id="line2d_13">
      <g>
       <use xlink:href="#m3ae3c5749c" x="39.65" y="158.156628" style="stroke: #000000; stroke-width: 0.8"/>
      </g>
     </g>
     <g id="text_13">
      <!-- 1500 -->
      <g transform="translate(7.2 161.955847) scale(0.1 -0.1)">
       <use xlink:href="#DejaVuSans-31"/>
       <use xlink:href="#DejaVuSans-35" x="63.623047"/>
       <use xlink:href="#DejaVuSans-30" x="127.246094"/>
       <use xlink:href="#DejaVuSans-30" x="190.869141"/>
      </g>
     </g>
    </g>
    <g id="ytick_5">
     <g id="line2d_14">
      <g>
       <use xlink:href="#m3ae3c5749c" x="39.65" y="123.803504" style="stroke: #000000; stroke-width: 0.8"/>
      </g>
     </g>
     <g id="text_14">
      <!-- 2000 -->
      <g transform="translate(7.2 127.602722) scale(0.1 -0.1)">
       <use xlink:href="#DejaVuSans-32"/>
       <use xlink:href="#DejaVuSans-30" x="63.623047"/>
       <use xlink:href="#DejaVuSans-30" x="127.246094"/>
       <use xlink:href="#DejaVuSans-30" x="190.869141"/>
      </g>
     </g>
    </g>
    <g id="ytick_6">
     <g id="line2d_15">
      <g>
       <use xlink:href="#m3ae3c5749c" x="39.65" y="89.45038" style="stroke: #000000; stroke-width: 0.8"/>
      </g>
     </g>
     <g id="text_15">
      <!-- 2500 -->
      <g transform="translate(7.2 93.249598) scale(0.1 -0.1)">
       <use xlink:href="#DejaVuSans-32"/>
       <use xlink:href="#DejaVuSans-35" x="63.623047"/>
       <use xlink:href="#DejaVuSans-30" x="127.246094"/>
       <use xlink:href="#DejaVuSans-30" x="190.869141"/>
      </g>
     </g>
    </g>
    <g id="ytick_7">
     <g id="line2d_16">
      <g>
       <use xlink:href="#m3ae3c5749c" x="39.65" y="55.097256" style="stroke: #000000; stroke-width: 0.8"/>
      </g>
     </g>
     <g id="text_16">
      <!-- 3000 -->
      <g transform="translate(7.2 58.896474) scale(0.1 -0.1)">
       <defs>
        <path id="DejaVuSans-33" d="M 2597 2516 
Q 3050 2419 3304 2112 
Q 3559 1806 3559 1356 
Q 3559 666 3084 287 
Q 2609 -91 1734 -91 
Q 1441 -91 1130 -33 
Q 819 25 488 141 
L 488 750 
Q 750 597 1062 519 
Q 1375 441 1716 441 
Q 2309 441 2620 675 
Q 2931 909 2931 1356 
Q 2931 1769 2642 2001 
Q 2353 2234 1838 2234 
L 1294 2234 
L 1294 2753 
L 1863 2753 
Q 2328 2753 2575 2939 
Q 2822 3125 2822 3475 
Q 2822 3834 2567 4026 
Q 2313 4219 1838 4219 
Q 1578 4219 1281 4162 
Q 984 4106 628 3988 
L 628 4550 
Q 988 4650 1302 4700 
Q 1616 4750 1894 4750 
Q 2613 4750 3031 4423 
Q 3450 4097 3450 3541 
Q 3450 3153 3228 2886 
Q 3006 2619 2597 2516 
z
" transform="scale(0.015625)"/>
       </defs>
       <use xlink:href="#DejaVuSans-33"/>
       <use xlink:href="#DejaVuSans-30" x="63.623047"/>
       <use xlink:href="#DejaVuSans-30" x="127.246094"/>
       <use xlink:href="#DejaVuSans-30" x="190.869141"/>
      </g>
     </g>
    </g>
    <g id="ytick_8">
     <g id="line2d_17">
      <g>
       <use xlink:href="#m3ae3c5749c" x="39.65" y="20.744132" style="stroke: #000000; stroke-width: 0.8"/>
      </g>
     </g>
     <g id="text_17">
      <!-- 3500 -->
      <g transform="translate(7.2 24.54335) scale(0.1 -0.1)">
       <use xlink:href="#DejaVuSans-33"/>
       <use xlink:href="#DejaVuSans-35" x="63.623047"/>
       <use xlink:href="#DejaVuSans-30" x="127.246094"/>
       <use xlink:href="#DejaVuSans-30" x="190.869141"/>
      </g>
     </g>
    </g>
   </g>
   <g id="line2d_18">
    <path d="M 55.882727 261.216 
L 72.197026 192.509752 
L 88.511325 143.281725 
L 104.825624 108.009844 
L 121.139922 82.737541 
L 137.454221 64.629936 
L 153.76852 51.655837 
L 170.082819 42.359895 
L 186.397117 35.699353 
L 202.711416 30.927074 
L 219.025715 27.507736 
L 235.340014 25.057781 
L 251.654312 23.302388 
L 267.968611 22.044649 
L 284.28291 21.143479 
L 300.597209 20.49779 
L 316.911508 20.035155 
L 333.225806 19.703676 
L 349.540105 19.466172 
L 365.854404 19.296 
" clip-path="url(#pc1aa27965c)" style="fill: none; stroke: #1f77b4; stroke-width: 1.5; stroke-linecap: square"/>
   </g>
   <g id="line2d_19">
    <path d="M 55.882727 261.216 
L 72.197026 261.216 
L 88.511325 238.313917 
L 104.825624 210.146646 
L 121.139922 183.928275 
L 137.454221 162.043662 
L 153.76852 144.772234 
L 170.082819 131.580383 
L 186.397117 121.709039 
L 202.711416 114.420911 
L 219.025715 109.088426 
L 235.340014 105.210949 
L 251.654312 102.4036 
L 267.968611 100.377177 
L 284.28291 98.917564 
L 300.597209 97.867809 
L 316.911508 97.113636 
L 333.225806 96.572231 
L 349.540105 96.183781 
L 365.854404 95.905183 
" clip-path="url(#pc1aa27965c)" style="fill: none; stroke: #ff7f0e; stroke-width: 1.5; stroke-linecap: square"/>
   </g>
   <g id="line2d_20">
    <path d="M 55.882727 261.216 
L 57.514157 254.895025 
L 60.777017 240.604126 
L 62.408447 235.313744 
L 64.039877 230.504307 
L 65.671307 223.084032 
L 67.302736 217.381414 
L 68.934166 212.50327 
L 70.565596 207.212889 
L 72.197026 202.334745 
L 73.828456 198.074958 
L 75.459886 194.708352 
L 77.091316 191.616571 
L 78.722746 186.32619 
L 80.354175 181.722871 
L 85.248465 168.943509 
L 90.142755 157.263447 
L 95.037044 147.094922 
L 96.668474 144.071847 
L 98.299904 142.079366 
L 99.931334 138.987585 
L 101.562764 135.071328 
L 103.194194 132.66661 
L 104.825624 129.987066 
L 106.457053 127.925879 
L 108.088483 123.666091 
L 109.719913 122.704204 
L 111.351343 120.162073 
L 112.982773 119.543716 
L 116.245633 114.115923 
L 117.877063 113.909804 
L 121.139922 108.825542 
L 122.771352 107.588829 
L 124.402782 107.245298 
L 126.034212 105.802467 
L 127.665642 103.947398 
L 129.297072 103.191629 
L 132.559931 100.374673 
L 135.822791 95.977473 
L 139.085651 93.572755 
L 140.717081 91.855098 
L 142.348511 89.656498 
L 143.979941 88.832023 
L 145.61137 86.770836 
L 148.87423 84.159999 
L 150.50566 83.95388 
L 152.13709 84.091292 
L 155.39995 81.343042 
L 157.03138 81.961399 
L 158.66281 80.381155 
L 160.294239 78.388674 
L 163.557099 76.25878 
L 165.188529 75.846543 
L 166.819959 72.686055 
L 168.451389 73.922768 
L 170.082819 72.067699 
L 171.714249 71.86158 
L 173.345678 71.105811 
L 174.977108 70.075218 
L 176.608538 67.395674 
L 178.239968 67.46438 
L 179.871398 66.777318 
L 181.502828 66.433787 
L 183.134258 64.853543 
L 184.765688 63.685537 
L 186.397117 61.486937 
L 188.028547 60.387637 
L 189.659977 60.525049 
L 191.291407 60.181518 
L 192.922837 60.593755 
L 194.554267 60.044105 
L 196.185697 59.357043 
L 197.817127 59.013512 
L 199.448556 58.876099 
L 201.079986 59.631868 
L 202.711416 57.433268 
L 204.342846 55.990437 
L 205.974276 56.677499 
L 207.605706 56.677499 
L 209.237136 56.814912 
L 210.868566 56.677499 
L 212.499995 57.227149 
L 214.131425 57.501974 
L 215.762855 57.295856 
L 217.394285 55.509493 
L 219.025715 55.303374 
L 220.657145 56.265262 
L 222.288575 55.921731 
L 223.920005 55.921731 
L 225.551434 55.165962 
L 227.182864 54.822431 
L 228.814294 55.784318 
L 230.445724 53.654424 
L 232.077154 52.280299 
L 233.708584 53.242187 
L 235.340014 54.822431 
L 236.971444 53.929249 
L 238.602873 54.272781 
L 240.234303 56.196556 
L 241.865733 55.784318 
L 245.128593 57.158443 
L 246.760023 58.189037 
L 248.391453 58.601274 
L 250.022883 59.76928 
L 251.654312 59.288337 
L 253.285742 56.814912 
L 254.917172 55.028549 
L 256.548602 55.165962 
L 258.180032 56.540087 
L 259.811462 55.303374 
L 261.442892 55.715612 
L 266.337181 59.21963 
L 267.968611 59.631868 
L 269.600041 59.013512 
L 271.231471 59.631868 
L 272.862901 58.944805 
L 274.494331 59.563162 
L 276.125761 59.631868 
L 277.75719 60.525049 
L 279.38862 60.525049 
L 281.02005 61.212112 
L 282.65148 62.380118 
L 284.28291 61.761762 
L 285.91434 62.448824 
L 287.54577 62.242705 
L 289.1772 61.074699 
L 290.80863 61.41823 
L 292.440059 59.837987 
L 294.071489 59.563162 
L 295.702919 57.914212 
L 297.334349 58.120331 
L 298.965779 59.082218 
L 300.597209 58.463862 
L 302.228639 59.494455 
L 303.860069 59.425749 
L 305.491498 62.311412 
L 307.122928 65.471899 
L 308.754358 64.853543 
L 310.385788 64.510012 
L 312.017218 62.586237 
L 313.648648 62.861062 
L 316.911508 64.029068 
L 318.542937 64.990955 
L 320.174367 63.410712 
L 321.805797 63.822949 
L 323.437227 61.280818 
L 325.068657 60.31893 
L 326.700087 59.631868 
L 328.331517 59.425749 
L 329.962947 58.807393 
L 331.594376 58.395156 
L 333.225806 57.089737 
L 334.857236 57.845506 
L 336.488666 58.051624 
L 338.120096 58.532568 
L 339.751526 57.776799 
L 341.382956 56.265262 
L 343.014386 56.059143 
L 344.645815 57.158443 
L 346.277245 57.158443 
L 347.908675 58.395156 
L 349.540105 57.639387 
L 351.171535 57.433268 
L 352.802965 59.150924 
L 354.434395 60.250224 
L 356.065825 61.074699 
L 357.697254 60.387637 
L 359.328684 61.280818 
L 360.960114 60.593755 
L 362.591544 59.21963 
L 364.222974 58.120331 
L 365.854404 57.982918 
L 369.117264 59.150924 
L 370.748693 57.776799 
L 372.380123 58.326449 
L 374.011553 57.158443 
L 375.642983 56.265262 
L 377.274413 57.708093 
L 378.905843 58.189037 
L 380.537273 57.021031 
L 380.537273 57.021031 
" clip-path="url(#pc1aa27965c)" style="fill: none; stroke: #2ca02c; stroke-width: 1.5; stroke-linecap: square"/>
   </g>
   <g id="line2d_21">
    <path d="M 55.882727 261.216 
L 57.514157 261.078588 
L 60.777017 260.047994 
L 65.671307 256.475269 
L 67.302736 255.650794 
L 68.934166 254.07055 
L 72.197026 251.597125 
L 73.828456 250.703944 
L 77.091316 248.161813 
L 78.722746 247.749575 
L 83.617035 242.665313 
L 85.248465 240.878951 
L 86.879895 240.329301 
L 88.511325 238.749057 
L 90.142755 236.687869 
L 91.774185 235.451157 
L 95.037044 232.153257 
L 96.668474 229.885951 
L 101.562764 224.320745 
L 103.194194 222.122145 
L 104.825624 220.404489 
L 106.457053 218.412007 
L 108.088483 218.137182 
L 109.719913 216.213407 
L 112.982773 211.060439 
L 114.614203 209.617608 
L 116.245633 209.892433 
L 117.877063 207.075476 
L 119.508492 206.182295 
L 122.771352 205.014289 
L 124.402782 202.403452 
L 126.034212 200.96062 
L 127.665642 201.372858 
L 129.297072 199.655202 
L 132.559931 198.21237 
L 134.191361 197.937545 
L 135.822791 196.494714 
L 137.454221 195.464121 
L 139.085651 194.089996 
L 140.717081 193.059402 
L 142.348511 192.578458 
L 143.979941 191.479158 
L 145.61137 190.654683 
L 147.2428 187.631608 
L 148.87423 187.013252 
L 150.50566 184.952065 
L 153.76852 183.303115 
L 155.39995 183.371821 
L 157.03138 182.066402 
L 158.66281 181.997696 
L 160.294239 182.822171 
L 161.925669 181.448046 
L 163.557099 181.860283 
L 165.188529 180.28004 
L 166.819959 180.142627 
L 168.451389 177.737909 
L 170.082819 177.600496 
L 171.714249 176.43249 
L 173.345678 176.020252 
L 176.608538 176.776021 
L 178.239968 175.401896 
L 179.871398 175.470602 
L 181.502828 175.264484 
L 183.134258 174.852246 
L 184.765688 174.920952 
L 186.397117 174.646127 
L 188.028547 174.165184 
L 189.659977 171.623052 
L 191.291407 171.966584 
L 192.922837 171.073402 
L 194.554267 171.004696 
L 196.185697 170.317634 
L 197.817127 169.83669 
L 199.448556 168.119034 
L 201.079986 169.080921 
L 202.711416 168.73739 
L 204.342846 168.668684 
L 205.974276 165.851728 
L 207.605706 166.126553 
L 209.237136 165.508196 
L 210.868566 164.615015 
L 212.499995 164.546309 
L 214.131425 163.172184 
L 215.762855 163.309596 
L 217.394285 164.408896 
L 219.025715 163.103478 
L 220.657145 163.447009 
L 222.288575 165.027253 
L 223.920005 163.721834 
L 225.551434 164.546309 
L 227.182864 163.996659 
L 228.814294 162.416415 
L 230.445724 161.729353 
L 232.077154 162.553828 
L 233.708584 162.004178 
L 235.340014 161.660646 
L 236.971444 161.798059 
L 238.602873 160.836171 
L 240.234303 158.637572 
L 241.865733 159.805578 
L 243.497163 159.255928 
L 245.128593 158.500159 
L 246.760023 159.324634 
L 248.391453 159.324634 
L 250.022883 157.74439 
L 251.654312 158.568865 
L 253.285742 159.668165 
L 254.917172 161.317115 
L 256.548602 159.187222 
L 258.180032 159.049809 
L 261.442892 159.805578 
L 263.074322 158.981103 
L 264.705751 158.84369 
L 266.337181 157.74439 
L 267.968611 156.026734 
L 269.600041 157.332153 
L 271.231471 156.713797 
L 272.862901 155.683203 
L 274.494331 155.477084 
L 276.125761 156.507678 
L 277.75719 156.026734 
L 279.38862 155.339672 
L 281.02005 156.232853 
L 282.65148 155.339672 
L 284.28291 155.477084 
L 285.91434 155.958028 
L 287.54577 157.057328 
L 289.1772 158.500159 
L 290.80863 158.912397 
L 292.440059 158.156628 
L 294.071489 158.431453 
L 295.702919 160.423934 
L 297.334349 160.286521 
L 298.965779 160.49264 
L 300.597209 159.324634 
L 302.228639 160.630053 
L 303.860069 160.561346 
L 305.491498 159.805578 
L 307.122928 158.087922 
L 308.754358 159.187222 
L 310.385788 158.84369 
L 312.017218 159.668165 
L 313.648648 158.706278 
L 315.280078 157.263447 
L 316.911508 157.332153 
L 318.542937 154.240372 
L 320.174367 155.064847 
L 321.805797 154.309078 
L 323.437227 155.54579 
L 325.068657 155.54579 
L 326.700087 156.438972 
L 328.331517 157.881803 
L 331.594376 157.400859 
L 333.225806 159.599459 
L 334.857236 158.774984 
L 336.488666 157.813097 
L 338.120096 156.576384 
L 339.751526 156.851209 
L 341.382956 156.782503 
L 343.014386 156.370265 
L 344.645815 155.751909 
L 346.277245 157.057328 
L 347.908675 155.133553 
L 349.540105 155.270965 
L 351.171535 156.164147 
L 352.802965 154.515197 
L 354.434395 153.553309 
L 356.065825 154.034253 
L 357.697254 157.057328 
L 359.328684 155.820615 
L 360.960114 156.851209 
L 362.591544 158.774984 
L 364.222974 159.94299 
L 365.854404 160.011696 
L 367.485834 160.355228 
L 369.117264 160.011696 
L 370.748693 160.011696 
L 372.380123 159.874284 
L 374.011553 160.973584 
L 375.642983 160.973584 
L 377.274413 159.530753 
L 378.905843 158.84369 
L 380.537273 159.874284 
L 380.537273 159.874284 
" clip-path="url(#pc1aa27965c)" style="fill: none; stroke: #d62728; stroke-width: 1.5; stroke-linecap: square"/>
   </g>
   <g id="patch_3">
    <path d="M 39.65 273.312 
L 39.65 7.2 
" style="fill: none; stroke: #000000; stroke-width: 0.8; stroke-linejoin: miter; stroke-linecap: square"/>
   </g>
   <g id="patch_4">
    <path d="M 396.77 273.312 
L 396.77 7.2 
" style="fill: none; stroke: #000000; stroke-width: 0.8; stroke-linejoin: miter; stroke-linecap: square"/>
   </g>
   <g id="patch_5">
    <path d="M 39.65 273.312 
L 396.77 273.312 
" style="fill: none; stroke: #000000; stroke-width: 0.8; stroke-linejoin: miter; stroke-linecap: square"/>
   </g>
   <g id="patch_6">
    <path d="M 39.65 7.2 
L 396.77 7.2 
" style="fill: none; stroke: #000000; stroke-width: 0.8; stroke-linejoin: miter; stroke-linecap: square"/>
   </g>
  </g>
 </g>
 <defs>
  <clipPath id="pc1aa27965c">
   <rect x="39.65" y="7.2" width="357.12" height="266.112"/>
  </clipPath>
 </defs>
</svg>
