<?xml version="1.0" encoding="utf-8" standalone="no"?>
<!DOCTYPE svg PUBLIC "-//W3C//DTD SVG 1.1//EN"
  "http://www.w3.org/Graphics/SVG/1.1/DTD/svg11.dtd">
<svg xmlns:xlink="http://www.w3.org/1999/xlink" width="403.97pt" height="297.190125pt" viewBox="0 0 403.97 297.190125" xmlns="http://www.w3.org/2000/svg" version="1.1">
 <metadata>
  <rdf:RDF xmlns:dc="http://purl.org/dc/elements/1.1/" xmlns:cc="http://creativecommons.org/ns#" xmlns:rdf="http://www.w3.org/1999/02/22-rdf-syntax-ns#">
   <cc:Work>
    <dc:type rdf:resource="http://purl.org/dc/dcmitype/StillImage"/>
    <dc:date>2023-09-26T23:05:12.695251</dc:date>
    <dc:format>image/svg+xml</dc:format>
    <dc:creator>
     <cc:Agent>
      <dc:title>Matplotlib v3.8.0, https://matplotlib.org/</dc:title>
     </cc:Agent>
    </dc:creator>
   </cc:Work>
  </rdf:RDF>
 </metadata>
 <defs>
  <style type="text/css">*{stroke-linejoin: round; stroke-linecap: butt}</style>
 </defs>
 <g id="figure_1">
  <g id="patch_1">
   <path d="M 0 297.190125 
L 403.97 297.190125 
L 403.97 0 
L 0 0 
z
" style="fill: #ffffff"/>
  </g>
  <g id="axes_1">
   <g id="patch_2">
    <path d="M 39.65 273.312 
L 396.77 273.312 
L 396.77 7.2 
L 39.65 7.2 
z
" style="fill: #ffffff"/>
   </g>
   <g id="matplotlib.axis_1">
    <g id="xtick_1">
     <g id="line2d_1">
      <defs>
       <path id="mee107aea1b" d="M 0 0 
L 0 3.5 
" style="stroke: #000000; stroke-width: 0.8"/>
      </defs>
      <g>
       <use xlink:href="#mee107aea1b" x="55.882727" y="273.312" style="stroke: #000000; stroke-width: 0.8"/>
      </g>
     </g>
     <g id="text_1">
      <!-- 0.0 -->
      <g transform="translate(47.931165 287.910437) scale(0.1 -0.1)">
       <defs>
        <path id="DejaVuSans-30" d="M 2034 4250 
Q 1547 4250 1301 3770 
Q 1056 3291 1056 2328 
Q 1056 1369 1301 889 
Q 1547 409 2034 409 
Q 2525 409 2770 889 
Q 3016 1369 3016 2328 
Q 3016 3291 2770 3770 
Q 2525 4250 2034 4250 
z
M 2034 4750 
Q 2819 4750 3233 4129 
Q 3647 3509 3647 2328 
Q 3647 1150 3233 529 
Q 2819 -91 2034 -91 
Q 1250 -91 836 529 
Q 422 1150 422 2328 
Q 422 3509 836 4129 
Q 1250 4750 2034 4750 
z
" transform="scale(0.015625)"/>
        <path id="DejaVuSans-2e" d="M 684 794 
L 1344 794 
L 1344 0 
L 684 0 
L 684 794 
z
" transform="scale(0.015625)"/>
       </defs>
       <use xlink:href="#DejaVuSans-30"/>
       <use xlink:href="#DejaVuSans-2e" x="63.623047"/>
       <use xlink:href="#DejaVuSans-30" x="95.410156"/>
      </g>
     </g>
    </g>
    <g id="xtick_2">
     <g id="line2d_2">
      <g>
       <use xlink:href="#mee107aea1b" x="96.668474" y="273.312" style="stroke: #000000; stroke-width: 0.8"/>
      </g>
     </g>
     <g id="text_2">
      <!-- 2.5 -->
      <g transform="translate(88.716912 287.910437) scale(0.1 -0.1)">
       <defs>
        <path id="DejaVuSans-32" d="M 1228 531 
L 3431 531 
L 3431 0 
L 469 0 
L 469 531 
Q 828 903 1448 1529 
Q 2069 2156 2228 2338 
Q 2531 2678 2651 2914 
Q 2772 3150 2772 3378 
Q 2772 3750 2511 3984 
Q 2250 4219 1831 4219 
Q 1534 4219 1204 4116 
Q 875 4013 500 3803 
L 500 4441 
Q 881 4594 1212 4672 
Q 1544 4750 1819 4750 
Q 2544 4750 2975 4387 
Q 3406 4025 3406 3419 
Q 3406 3131 3298 2873 
Q 3191 2616 2906 2266 
Q 2828 2175 2409 1742 
Q 1991 1309 1228 531 
z
" transform="scale(0.015625)"/>
        <path id="DejaVuSans-35" d="M 691 4666 
L 3169 4666 
L 3169 4134 
L 1269 4134 
L 1269 2991 
Q 1406 3038 1543 3061 
Q 1681 3084 1819 3084 
Q 2600 3084 3056 2656 
Q 3513 2228 3513 1497 
Q 3513 744 3044 326 
Q 2575 -91 1722 -91 
Q 1428 -91 1123 -41 
Q 819 9 494 109 
L 494 744 
Q 775 591 1075 516 
Q 1375 441 1709 441 
Q 2250 441 2565 725 
Q 2881 1009 2881 1497 
Q 2881 1984 2565 2268 
Q 2250 2553 1709 2553 
Q 1456 2553 1204 2497 
Q 953 2441 691 2322 
L 691 4666 
z
" transform="scale(0.015625)"/>
       </defs>
       <use xlink:href="#DejaVuSans-32"/>
       <use xlink:href="#DejaVuSans-2e" x="63.623047"/>
       <use xlink:href="#DejaVuSans-35" x="95.410156"/>
      </g>
     </g>
    </g>
    <g id="xtick_3">
     <g id="line2d_3">
      <g>
       <use xlink:href="#mee107aea1b" x="137.454221" y="273.312" style="stroke: #000000; stroke-width: 0.8"/>
      </g>
     </g>
     <g id="text_3">
      <!-- 5.0 -->
      <g transform="translate(129.502659 287.910437) scale(0.1 -0.1)">
       <use xlink:href="#DejaVuSans-35"/>
       <use xlink:href="#DejaVuSans-2e" x="63.623047"/>
       <use xlink:href="#DejaVuSans-30" x="95.410156"/>
      </g>
     </g>
    </g>
    <g id="xtick_4">
     <g id="line2d_4">
      <g>
       <use xlink:href="#mee107aea1b" x="178.239968" y="273.312" style="stroke: #000000; stroke-width: 0.8"/>
      </g>
     </g>
     <g id="text_4">
      <!-- 7.5 -->
      <g transform="translate(170.288406 287.910437) scale(0.1 -0.1)">
       <defs>
        <path id="DejaVuSans-37" d="M 525 4666 
L 3525 4666 
L 3525 4397 
L 1831 0 
L 1172 0 
L 2766 4134 
L 525 4134 
L 525 4666 
z
" transform="scale(0.015625)"/>
       </defs>
       <use xlink:href="#DejaVuSans-37"/>
       <use xlink:href="#DejaVuSans-2e" x="63.623047"/>
       <use xlink:href="#DejaVuSans-35" x="95.410156"/>
      </g>
     </g>
    </g>
    <g id="xtick_5">
     <g id="line2d_5">
      <g>
       <use xlink:href="#mee107aea1b" x="219.025715" y="273.312" style="stroke: #000000; stroke-width: 0.8"/>
      </g>
     </g>
     <g id="text_5">
      <!-- 10.0 -->
      <g transform="translate(207.892902 287.910437) scale(0.1 -0.1)">
       <defs>
        <path id="DejaVuSans-31" d="M 794 531 
L 1825 531 
L 1825 4091 
L 703 3866 
L 703 4441 
L 1819 4666 
L 2450 4666 
L 2450 531 
L 3481 531 
L 3481 0 
L 794 0 
L 794 531 
z
" transform="scale(0.015625)"/>
       </defs>
       <use xlink:href="#DejaVuSans-31"/>
       <use xlink:href="#DejaVuSans-30" x="63.623047"/>
       <use xlink:href="#DejaVuSans-2e" x="127.246094"/>
       <use xlink:href="#DejaVuSans-30" x="159.033203"/>
      </g>
     </g>
    </g>
    <g id="xtick_6">
     <g id="line2d_6">
      <g>
       <use xlink:href="#mee107aea1b" x="259.811462" y="273.312" style="stroke: #000000; stroke-width: 0.8"/>
      </g>
     </g>
     <g id="text_6">
      <!-- 12.5 -->
      <g transform="translate(248.678649 287.910437) scale(0.1 -0.1)">
       <use xlink:href="#DejaVuSans-31"/>
       <use xlink:href="#DejaVuSans-32" x="63.623047"/>
       <use xlink:href="#DejaVuSans-2e" x="127.246094"/>
       <use xlink:href="#DejaVuSans-35" x="159.033203"/>
      </g>
     </g>
    </g>
    <g id="xtick_7">
     <g id="line2d_7">
      <g>
       <use xlink:href="#mee107aea1b" x="300.597209" y="273.312" style="stroke: #000000; stroke-width: 0.8"/>
      </g>
     </g>
     <g id="text_7">
      <!-- 15.0 -->
      <g transform="translate(289.464396 287.910437) scale(0.1 -0.1)">
       <use xlink:href="#DejaVuSans-31"/>
       <use xlink:href="#DejaVuSans-35" x="63.623047"/>
       <use xlink:href="#DejaVuSans-2e" x="127.246094"/>
       <use xlink:href="#DejaVuSans-30" x="159.033203"/>
      </g>
     </g>
    </g>
    <g id="xtick_8">
     <g id="line2d_8">
      <g>
       <use xlink:href="#mee107aea1b" x="341.382956" y="273.312" style="stroke: #000000; stroke-width: 0.8"/>
      </g>
     </g>
     <g id="text_8">
      <!-- 17.5 -->
      <g transform="translate(330.250143 287.910437) scale(0.1 -0.1)">
       <use xlink:href="#DejaVuSans-31"/>
       <use xlink:href="#DejaVuSans-37" x="63.623047"/>
       <use xlink:href="#DejaVuSans-2e" x="127.246094"/>
       <use xlink:href="#DejaVuSans-35" x="159.033203"/>
      </g>
     </g>
    </g>
    <g id="xtick_9">
     <g id="line2d_9">
      <g>
       <use xlink:href="#mee107aea1b" x="382.168703" y="273.312" style="stroke: #000000; stroke-width: 0.8"/>
      </g>
     </g>
     <g id="text_9">
      <!-- 20.0 -->
      <g transform="translate(371.03589 287.910437) scale(0.1 -0.1)">
       <use xlink:href="#DejaVuSans-32"/>
       <use xlink:href="#DejaVuSans-30" x="63.623047"/>
       <use xlink:href="#DejaVuSans-2e" x="127.246094"/>
       <use xlink:href="#DejaVuSans-30" x="159.033203"/>
      </g>
     </g>
    </g>
   </g>
   <g id="matplotlib.axis_2">
    <g id="ytick_1">
     <g id="line2d_10">
      <defs>
       <path id="mf3c6de5b8e" d="M 0 0 
L -3.5 0 
" style="stroke: #000000; stroke-width: 0.8"/>
      </defs>
      <g>
       <use xlink:href="#mf3c6de5b8e" x="39.65" y="261.216" style="stroke: #000000; stroke-width: 0.8"/>
      </g>
     </g>
     <g id="text_10">
      <!-- 0 -->
      <g transform="translate(26.2875 265.015219) scale(0.1 -0.1)">
       <use xlink:href="#DejaVuSans-30"/>
      </g>
     </g>
    </g>
    <g id="ytick_2">
     <g id="line2d_11">
      <g>
       <use xlink:href="#mf3c6de5b8e" x="39.65" y="226.862876" style="stroke: #000000; stroke-width: 0.8"/>
      </g>
     </g>
     <g id="text_11">
      <!-- 500 -->
      <g transform="translate(13.5625 230.662095) scale(0.1 -0.1)">
       <use xlink:href="#DejaVuSans-35"/>
       <use xlink:href="#DejaVuSans-30" x="63.623047"/>
       <use xlink:href="#DejaVuSans-30" x="127.246094"/>
      </g>
     </g>
    </g>
    <g id="ytick_3">
     <g id="line2d_12">
      <g>
       <use xlink:href="#mf3c6de5b8e" x="39.65" y="192.509752" style="stroke: #000000; stroke-width: 0.8"/>
      </g>
     </g>
     <g id="text_12">
      <!-- 1000 -->
      <g transform="translate(7.2 196.308971) scale(0.1 -0.1)">
       <use xlink:href="#DejaVuSans-31"/>
       <use xlink:href="#DejaVuSans-30" x="63.623047"/>
       <use xlink:href="#DejaVuSans-30" x="127.246094"/>
       <use xlink:href="#DejaVuSans-30" x="190.869141"/>
      </g>
     </g>
    </g>
    <g id="ytick_4">
     <g id="line2d_13">
      <g>
       <use xlink:href="#mf3c6de5b8e" x="39.65" y="158.156628" style="stroke: #000000; stroke-width: 0.8"/>
      </g>
     </g>
     <g id="text_13">
      <!-- 1500 -->
      <g transform="translate(7.2 161.955847) scale(0.1 -0.1)">
       <use xlink:href="#DejaVuSans-31"/>
       <use xlink:href="#DejaVuSans-35" x="63.623047"/>
       <use xlink:href="#DejaVuSans-30" x="127.246094"/>
       <use xlink:href="#DejaVuSans-30" x="190.869141"/>
      </g>
     </g>
    </g>
    <g id="ytick_5">
     <g id="line2d_14">
      <g>
       <use xlink:href="#mf3c6de5b8e" x="39.65" y="123.803504" style="stroke: #000000; stroke-width: 0.8"/>
      </g>
     </g>
     <g id="text_14">
      <!-- 2000 -->
      <g transform="translate(7.2 127.602722) scale(0.1 -0.1)">
       <use xlink:href="#DejaVuSans-32"/>
       <use xlink:href="#DejaVuSans-30" x="63.623047"/>
       <use xlink:href="#DejaVuSans-30" x="127.246094"/>
       <use xlink:href="#DejaVuSans-30" x="190.869141"/>
      </g>
     </g>
    </g>
    <g id="ytick_6">
     <g id="line2d_15">
      <g>
       <use xlink:href="#mf3c6de5b8e" x="39.65" y="89.45038" style="stroke: #000000; stroke-width: 0.8"/>
      </g>
     </g>
     <g id="text_15">
      <!-- 2500 -->
      <g transform="translate(7.2 93.249598) scale(0.1 -0.1)">
       <use xlink:href="#DejaVuSans-32"/>
       <use xlink:href="#DejaVuSans-35" x="63.623047"/>
       <use xlink:href="#DejaVuSans-30" x="127.246094"/>
       <use xlink:href="#DejaVuSans-30" x="190.869141"/>
      </g>
     </g>
    </g>
    <g id="ytick_7">
     <g id="line2d_16">
      <g>
       <use xlink:href="#mf3c6de5b8e" x="39.65" y="55.097256" style="stroke: #000000; stroke-width: 0.8"/>
      </g>
     </g>
     <g id="text_16">
      <!-- 3000 -->
      <g transform="translate(7.2 58.896474) scale(0.1 -0.1)">
       <defs>
        <path id="DejaVuSans-33" d="M 2597 2516 
Q 3050 2419 3304 2112 
Q 3559 1806 3559 1356 
Q 3559 666 3084 287 
Q 2609 -91 1734 -91 
Q 1441 -91 1130 -33 
Q 819 25 488 141 
L 488 750 
Q 750 597 1062 519 
Q 1375 441 1716 441 
Q 2309 441 2620 675 
Q 2931 909 2931 1356 
Q 2931 1769 2642 2001 
Q 2353 2234 1838 2234 
L 1294 2234 
L 1294 2753 
L 1863 2753 
Q 2328 2753 2575 2939 
Q 2822 3125 2822 3475 
Q 2822 3834 2567 4026 
Q 2313 4219 1838 4219 
Q 1578 4219 1281 4162 
Q 984 4106 628 3988 
L 628 4550 
Q 988 4650 1302 4700 
Q 1616 4750 1894 4750 
Q 2613 4750 3031 4423 
Q 3450 4097 3450 3541 
Q 3450 3153 3228 2886 
Q 3006 2619 2597 2516 
z
" transform="scale(0.015625)"/>
       </defs>
       <use xlink:href="#DejaVuSans-33"/>
       <use xlink:href="#DejaVuSans-30" x="63.623047"/>
       <use xlink:href="#DejaVuSans-30" x="127.246094"/>
       <use xlink:href="#DejaVuSans-30" x="190.869141"/>
      </g>
     </g>
    </g>
    <g id="ytick_8">
     <g id="line2d_17">
      <g>
       <use xlink:href="#mf3c6de5b8e" x="39.65" y="20.744132" style="stroke: #000000; stroke-width: 0.8"/>
      </g>
     </g>
     <g id="text_17">
      <!-- 3500 -->
      <g transform="translate(7.2 24.54335) scale(0.1 -0.1)">
       <use xlink:href="#DejaVuSans-33"/>
       <use xlink:href="#DejaVuSans-35" x="63.623047"/>
       <use xlink:href="#DejaVuSans-30" x="127.246094"/>
       <use xlink:href="#DejaVuSans-30" x="190.869141"/>
      </g>
     </g>
    </g>
   </g>
   <g id="line2d_18">
    <path d="M 55.882727 261.216 
L 72.197026 192.509752 
L 88.511325 143.281725 
L 104.825624 108.009844 
L 121.139922 82.737541 
L 137.454221 64.629936 
L 153.76852 51.655837 
L 170.082819 42.359895 
L 186.397117 35.699353 
L 202.711416 30.927074 
L 219.025715 27.507736 
L 235.340014 25.057781 
L 251.654312 23.302388 
L 267.968611 22.044649 
L 284.28291 21.143479 
L 300.597209 20.49779 
L 316.911508 20.035155 
L 333.225806 19.703676 
L 349.540105 19.466172 
L 365.854404 19.296 
" clip-path="url(#p4d2dad50cf)" style="fill: none; stroke: #1f77b4; stroke-width: 1.5; stroke-linecap: square"/>
   </g>
   <g id="line2d_19">
    <path d="M 55.882727 261.216 
L 72.197026 261.216 
L 88.511325 238.313917 
L 104.825624 210.146646 
L 121.139922 183.928275 
L 137.454221 162.043662 
L 153.76852 144.772234 
L 170.082819 131.580383 
L 186.397117 121.709039 
L 202.711416 114.420911 
L 219.025715 109.088426 
L 235.340014 105.210949 
L 251.654312 102.4036 
L 267.968611 100.377177 
L 284.28291 98.917564 
L 300.597209 97.867809 
L 316.911508 97.113636 
L 333.225806 96.572231 
L 349.540105 96.183781 
L 365.854404 95.905183 
" clip-path="url(#p4d2dad50cf)" style="fill: none; stroke: #ff7f0e; stroke-width: 1.5; stroke-linecap: square"/>
   </g>
   <g id="line2d_20">
    <path d="M 55.882727 261.216 
L 57.514157 254.414081 
L 59.145587 249.467232 
L 64.039877 230.298188 
L 67.302736 219.854839 
L 68.934166 216.075995 
L 70.565596 210.785614 
L 72.197026 204.670758 
L 73.828456 199.31167 
L 77.091316 191.685277 
L 78.722746 188.181258 
L 80.354175 183.852765 
L 85.248465 168.874803 
L 86.879895 165.302078 
L 88.511325 160.836171 
L 90.142755 157.675684 
L 91.774185 155.133553 
L 93.405614 152.316597 
L 95.037044 147.850691 
L 96.668474 145.171147 
L 98.299904 141.186185 
L 99.931334 139.537235 
L 101.562764 137.269928 
L 103.194194 133.834616 
L 108.088483 124.97151 
L 109.719913 122.704204 
L 111.351343 121.536198 
L 114.614203 115.558754 
L 117.877063 111.642498 
L 119.508492 111.024142 
L 121.139922 109.856135 
L 124.402782 106.420823 
L 126.034212 105.73376 
L 127.665642 104.290929 
L 129.297072 102.573273 
L 130.928502 102.023623 
L 132.559931 100.580792 
L 134.191361 97.832542 
L 135.822791 95.496529 
L 137.454221 93.916286 
L 139.085651 94.740761 
L 140.717081 92.610867 
L 142.348511 90.206148 
L 143.979941 91.236742 
L 145.61137 91.580273 
L 148.87423 91.305448 
L 150.50566 91.64898 
L 152.13709 91.580273 
L 153.76852 91.64898 
L 155.39995 90.274855 
L 158.66281 86.976955 
L 160.294239 85.808949 
L 161.925669 83.266817 
L 163.557099 82.511049 
L 165.188529 80.930805 
L 166.819959 80.930805 
L 168.451389 78.388674 
L 170.082819 76.945843 
L 171.714249 75.70913 
L 173.345678 76.121368 
L 174.977108 75.777836 
L 176.608538 75.70913 
L 178.239968 74.197593 
L 179.871398 73.785355 
L 181.502828 72.41123 
L 183.134258 71.930286 
L 184.765688 71.037105 
L 186.397117 70.899693 
L 188.028547 71.105811 
L 189.659977 69.937805 
L 191.291407 70.418749 
L 192.922837 69.731686 
L 194.554267 70.143924 
L 196.185697 69.525568 
L 199.448556 65.884137 
L 201.079986 65.197074 
L 202.711416 64.097774 
L 204.342846 65.26578 
L 205.974276 64.784837 
L 207.605706 64.441305 
L 209.237136 65.540605 
L 210.868566 65.128368 
L 212.499995 64.441305 
L 215.762855 65.197074 
L 217.394285 64.922249 
L 219.025715 63.204593 
L 220.657145 64.578718 
L 222.288575 64.372599 
L 223.920005 64.372599 
L 225.551434 62.654943 
L 227.182864 60.456343 
L 228.814294 59.76928 
L 232.077154 57.639387 
L 233.708584 56.952324 
L 235.340014 56.814912 
L 236.971444 57.158443 
L 238.602873 58.463862 
L 241.865733 58.326449 
L 243.497163 58.051624 
L 245.128593 59.631868 
L 246.760023 59.288337 
L 248.391453 59.563162 
L 250.022883 59.631868 
L 251.654312 60.112812 
L 256.548602 59.837987 
L 258.180032 58.326449 
L 259.811462 56.196556 
L 261.442892 55.234668 
L 263.074322 55.990437 
L 264.705751 56.883618 
L 266.337181 55.165962 
L 267.968611 54.066662 
L 271.231471 53.448306 
L 272.862901 54.685018 
L 274.494331 54.272781 
L 276.125761 53.379599 
L 277.75719 51.180999 
L 279.38862 51.593237 
L 281.02005 48.364043 
L 282.65148 48.776281 
L 284.28291 47.8831 
L 285.91434 47.608275 
L 287.54577 48.226631 
L 289.1772 48.43275 
L 290.80863 47.676981 
L 292.440059 47.264743 
L 294.071489 46.165443 
L 295.702919 47.264743 
L 297.334349 46.646387 
L 298.965779 46.371562 
L 300.597209 46.921212 
L 302.228639 47.33345 
L 303.860069 48.364043 
L 305.491498 49.875581 
L 307.122928 50.219112 
L 308.754358 50.081699 
L 310.385788 50.425231 
L 312.017218 51.180999 
L 313.648648 51.593237 
L 315.280078 50.356524 
L 316.911508 51.936768 
L 318.542937 52.349006 
L 320.174367 52.280299 
L 321.805797 53.997956 
L 323.437227 54.341487 
L 325.068657 52.829949 
L 326.700087 52.486418 
L 328.331517 51.661943 
L 333.225806 52.555124 
L 334.857236 52.211593 
L 336.488666 52.074181 
L 338.120096 53.173481 
L 339.751526 52.417712 
L 341.382956 50.700056 
L 343.014386 48.226631 
L 344.645815 48.226631 
L 346.277245 49.051106 
L 347.908675 50.012993 
L 349.540105 50.081699 
L 351.171535 49.738168 
L 352.802965 48.226631 
L 354.434395 49.188518 
L 356.065825 48.638868 
L 357.697254 50.081699 
L 359.328684 49.944287 
L 360.960114 49.394637 
L 362.591544 49.944287 
L 364.222974 52.074181 
L 365.854404 51.524531 
L 367.485834 51.180999 
L 369.117264 51.799356 
L 370.748693 52.692537 
L 372.380123 51.868062 
L 374.011553 52.555124 
L 375.642983 53.860543 
L 377.274413 52.967362 
L 380.537273 52.280299 
L 380.537273 52.280299 
" clip-path="url(#p4d2dad50cf)" style="fill: none; stroke: #2ca02c; stroke-width: 1.5; stroke-linecap: square"/>
   </g>
   <g id="line2d_21">
    <path d="M 55.882727 261.216 
L 57.514157 261.216 
L 59.145587 260.528938 
L 62.408447 259.635756 
L 67.302736 256.956213 
L 68.934166 255.582088 
L 70.565596 254.551494 
L 72.197026 253.246075 
L 77.091316 247.818282 
L 78.722746 246.444157 
L 80.354175 244.382969 
L 81.985605 243.214963 
L 83.617035 241.359894 
L 85.248465 240.741538 
L 86.879895 238.474232 
L 88.511325 236.481751 
L 90.142755 234.764094 
L 91.774185 232.565495 
L 93.405614 231.19137 
L 95.037044 229.198888 
L 96.668474 228.237001 
L 98.299904 226.519345 
L 99.931334 223.908507 
L 101.562764 222.39697 
L 103.194194 220.473195 
L 106.457053 218.343301 
L 108.088483 217.99977 
L 109.719913 215.388932 
L 112.982773 210.85432 
L 114.614203 209.892433 
L 116.245633 208.10607 
L 117.877063 206.800651 
L 119.508492 204.327227 
L 121.139922 202.953102 
L 122.771352 202.266039 
L 124.402782 200.479677 
L 126.034212 199.449083 
L 127.665642 198.006252 
L 130.928502 195.738946 
L 132.559931 194.914471 
L 134.191361 195.051883 
L 135.822791 193.952583 
L 137.454221 192.234927 
L 139.085651 191.822689 
L 140.717081 190.860802 
L 142.348511 191.204333 
L 145.61137 185.982658 
L 147.2428 184.608533 
L 148.87423 183.921471 
L 150.50566 183.096996 
L 153.76852 179.936508 
L 155.39995 181.654165 
L 157.03138 180.967102 
L 158.66281 181.104515 
L 160.294239 182.547346 
L 161.925669 182.341227 
L 163.557099 181.722871 
L 165.188529 181.585458 
L 166.819959 180.348746 
L 168.451389 180.211333 
L 170.082819 178.974621 
L 171.714249 178.562383 
L 173.345678 176.913434 
L 174.977108 175.814134 
L 176.608538 175.608015 
L 178.239968 175.676721 
L 179.871398 175.195777 
L 181.502828 173.68424 
L 183.134258 172.791059 
L 184.765688 172.103996 
L 186.397117 171.142109 
L 188.028547 169.561865 
L 189.659977 169.83669 
L 191.291407 169.355746 
L 192.922837 169.355746 
L 194.554267 170.38634 
L 196.185697 170.592459 
L 197.817127 170.317634 
L 199.448556 169.561865 
L 201.079986 170.93599 
L 202.711416 170.729871 
L 204.342846 170.248927 
L 205.974276 169.080921 
L 207.605706 168.668684 
L 209.237136 167.157146 
L 210.868566 166.401378 
L 212.499995 166.470084 
L 214.131425 166.126553 
L 215.762855 166.195259 
L 217.394285 165.783021 
L 219.025715 167.363265 
L 220.657145 165.851728 
L 222.288575 165.576903 
L 223.920005 167.706796 
L 225.551434 167.844209 
L 227.182864 167.706796 
L 228.814294 167.706796 
L 230.445724 167.225853 
L 232.077154 167.225853 
L 233.708584 166.401378 
L 235.340014 166.951028 
L 236.971444 166.951028 
L 238.602873 165.783021 
L 240.234303 166.951028 
L 241.865733 165.302078 
L 243.497163 164.546309 
L 245.128593 163.653128 
L 246.760023 162.622534 
L 248.391453 162.072884 
L 250.022883 162.966065 
L 251.654312 162.279003 
L 253.285742 162.622534 
L 254.917172 162.485121 
L 256.548602 162.210296 
L 258.180032 162.072884 
L 259.811462 161.59194 
L 261.442892 163.653128 
L 263.074322 162.210296 
L 264.705751 161.317115 
L 266.337181 161.179703 
L 267.968611 160.698759 
L 269.600041 161.04229 
L 271.231471 160.836171 
L 272.862901 160.836171 
L 274.494331 160.286521 
L 276.125761 158.019215 
L 277.75719 159.049809 
L 279.38862 159.599459 
L 281.02005 162.828653 
L 282.65148 161.660646 
L 284.28291 162.897359 
L 285.91434 162.485121 
L 287.54577 161.248409 
L 289.1772 161.317115 
L 290.80863 161.110996 
L 292.440059 160.561346 
L 294.071489 161.523234 
L 295.702919 161.179703 
L 297.334349 161.248409 
L 298.965779 161.110996 
L 300.597209 158.84369 
L 302.228639 158.500159 
L 303.860069 158.362747 
L 305.491498 156.232853 
L 307.122928 156.782503 
L 308.754358 156.988622 
L 310.385788 155.477084 
L 312.017218 154.99614 
L 313.648648 154.240372 
L 315.280078 156.576384 
L 316.911508 156.026734 
L 318.542937 155.614497 
L 320.174367 157.332153 
L 321.805797 156.09544 
L 323.437227 156.164147 
L 326.700087 155.958028 
L 328.331517 156.576384 
L 329.962947 156.164147 
L 331.594376 155.614497 
L 333.225806 155.820615 
L 334.857236 156.782503 
L 336.488666 156.09544 
L 338.120096 156.438972 
L 339.751526 157.813097 
L 341.382956 160.149109 
L 344.645815 160.561346 
L 346.277245 160.973584 
L 347.908675 161.110996 
L 349.540105 159.94299 
L 351.171535 160.080403 
L 352.802965 160.355228 
L 354.434395 159.118515 
L 356.065825 158.225334 
L 357.697254 158.156628 
L 359.328684 157.74439 
L 360.960114 158.568865 
L 362.591544 158.225334 
L 364.222974 157.675684 
L 365.854404 157.606978 
L 367.485834 158.774984 
L 369.117264 158.019215 
L 370.748693 158.774984 
L 372.380123 158.912397 
L 374.011553 159.462047 
L 375.642983 158.225334 
L 377.274413 159.599459 
L 378.905843 159.599459 
L 380.537273 159.736872 
L 380.537273 159.736872 
" clip-path="url(#p4d2dad50cf)" style="fill: none; stroke: #d62728; stroke-width: 1.5; stroke-linecap: square"/>
   </g>
   <g id="patch_3">
    <path d="M 39.65 273.312 
L 39.65 7.2 
" style="fill: none; stroke: #000000; stroke-width: 0.8; stroke-linejoin: miter; stroke-linecap: square"/>
   </g>
   <g id="patch_4">
    <path d="M 396.77 273.312 
L 396.77 7.2 
" style="fill: none; stroke: #000000; stroke-width: 0.8; stroke-linejoin: miter; stroke-linecap: square"/>
   </g>
   <g id="patch_5">
    <path d="M 39.65 273.312 
L 396.77 273.312 
" style="fill: none; stroke: #000000; stroke-width: 0.8; stroke-linejoin: miter; stroke-linecap: square"/>
   </g>
   <g id="patch_6">
    <path d="M 39.65 7.2 
L 396.77 7.2 
" style="fill: none; stroke: #000000; stroke-width: 0.8; stroke-linejoin: miter; stroke-linecap: square"/>
   </g>
  </g>
 </g>
 <defs>
  <clipPath id="p4d2dad50cf">
   <rect x="39.65" y="7.2" width="357.12" height="266.112"/>
  </clipPath>
 </defs>
</svg>
