<?xml version="1.0" encoding="utf-8" standalone="no"?>
<!DOCTYPE svg PUBLIC "-//W3C//DTD SVG 1.1//EN"
  "http://www.w3.org/Graphics/SVG/1.1/DTD/svg11.dtd">
<!-- Created with matplotlib (https://matplotlib.org/) -->
<svg height="297.190125pt" version="1.1" viewBox="0 0 403.97 297.190125" width="403.97pt" xmlns="http://www.w3.org/2000/svg" xmlns:xlink="http://www.w3.org/1999/xlink">
 <metadata>
  <rdf:RDF xmlns:cc="http://creativecommons.org/ns#" xmlns:dc="http://purl.org/dc/elements/1.1/" xmlns:rdf="http://www.w3.org/1999/02/22-rdf-syntax-ns#">
   <cc:Work>
    <dc:type rdf:resource="http://purl.org/dc/dcmitype/StillImage"/>
    <dc:date>2021-03-22T00:06:04.059442</dc:date>
    <dc:format>image/svg+xml</dc:format>
    <dc:creator>
     <cc:Agent>
      <dc:title>Matplotlib v3.3.4, https://matplotlib.org/</dc:title>
     </cc:Agent>
    </dc:creator>
   </cc:Work>
  </rdf:RDF>
 </metadata>
 <defs>
  <style type="text/css">*{stroke-linecap:butt;stroke-linejoin:round;}</style>
 </defs>
 <g id="figure_1">
  <g id="patch_1">
   <path d="M 0 297.190125 
L 403.97 297.190125 
L 403.97 0 
L 0 0 
z
" style="fill:#ffffff;"/>
  </g>
  <g id="axes_1">
   <g id="patch_2">
    <path d="M 39.65 273.312 
L 396.77 273.312 
L 396.77 7.2 
L 39.65 7.2 
z
" style="fill:#ffffff;"/>
   </g>
   <g id="matplotlib.axis_1">
    <g id="xtick_1">
     <g id="line2d_1">
      <defs>
       <path d="M 0 0 
L 0 3.5 
" id="mad70e0489e" style="stroke:#000000;stroke-width:0.8;"/>
      </defs>
      <g>
       <use style="stroke:#000000;stroke-width:0.8;" x="55.882727" xlink:href="#mad70e0489e" y="273.312"/>
      </g>
     </g>
     <g id="text_1">
      <!-- 0.0 -->
      <g transform="translate(47.931165 287.910437)scale(0.1 -0.1)">
       <defs>
        <path d="M 31.78125 66.40625 
Q 24.171875 66.40625 20.328125 58.90625 
Q 16.5 51.421875 16.5 36.375 
Q 16.5 21.390625 20.328125 13.890625 
Q 24.171875 6.390625 31.78125 6.390625 
Q 39.453125 6.390625 43.28125 13.890625 
Q 47.125 21.390625 47.125 36.375 
Q 47.125 51.421875 43.28125 58.90625 
Q 39.453125 66.40625 31.78125 66.40625 
z
M 31.78125 74.21875 
Q 44.046875 74.21875 50.515625 64.515625 
Q 56.984375 54.828125 56.984375 36.375 
Q 56.984375 17.96875 50.515625 8.265625 
Q 44.046875 -1.421875 31.78125 -1.421875 
Q 19.53125 -1.421875 13.0625 8.265625 
Q 6.59375 17.96875 6.59375 36.375 
Q 6.59375 54.828125 13.0625 64.515625 
Q 19.53125 74.21875 31.78125 74.21875 
z
" id="DejaVuSans-48"/>
        <path d="M 10.6875 12.40625 
L 21 12.40625 
L 21 0 
L 10.6875 0 
z
" id="DejaVuSans-46"/>
       </defs>
       <use xlink:href="#DejaVuSans-48"/>
       <use x="63.623047" xlink:href="#DejaVuSans-46"/>
       <use x="95.410156" xlink:href="#DejaVuSans-48"/>
      </g>
     </g>
    </g>
    <g id="xtick_2">
     <g id="line2d_2">
      <g>
       <use style="stroke:#000000;stroke-width:0.8;" x="96.668474" xlink:href="#mad70e0489e" y="273.312"/>
      </g>
     </g>
     <g id="text_2">
      <!-- 2.5 -->
      <g transform="translate(88.716912 287.910437)scale(0.1 -0.1)">
       <defs>
        <path d="M 19.1875 8.296875 
L 53.609375 8.296875 
L 53.609375 0 
L 7.328125 0 
L 7.328125 8.296875 
Q 12.9375 14.109375 22.625 23.890625 
Q 32.328125 33.6875 34.8125 36.53125 
Q 39.546875 41.84375 41.421875 45.53125 
Q 43.3125 49.21875 43.3125 52.78125 
Q 43.3125 58.59375 39.234375 62.25 
Q 35.15625 65.921875 28.609375 65.921875 
Q 23.96875 65.921875 18.8125 64.3125 
Q 13.671875 62.703125 7.8125 59.421875 
L 7.8125 69.390625 
Q 13.765625 71.78125 18.9375 73 
Q 24.125 74.21875 28.421875 74.21875 
Q 39.75 74.21875 46.484375 68.546875 
Q 53.21875 62.890625 53.21875 53.421875 
Q 53.21875 48.921875 51.53125 44.890625 
Q 49.859375 40.875 45.40625 35.40625 
Q 44.1875 33.984375 37.640625 27.21875 
Q 31.109375 20.453125 19.1875 8.296875 
z
" id="DejaVuSans-50"/>
        <path d="M 10.796875 72.90625 
L 49.515625 72.90625 
L 49.515625 64.59375 
L 19.828125 64.59375 
L 19.828125 46.734375 
Q 21.96875 47.46875 24.109375 47.828125 
Q 26.265625 48.1875 28.421875 48.1875 
Q 40.625 48.1875 47.75 41.5 
Q 54.890625 34.8125 54.890625 23.390625 
Q 54.890625 11.625 47.5625 5.09375 
Q 40.234375 -1.421875 26.90625 -1.421875 
Q 22.3125 -1.421875 17.546875 -0.640625 
Q 12.796875 0.140625 7.71875 1.703125 
L 7.71875 11.625 
Q 12.109375 9.234375 16.796875 8.0625 
Q 21.484375 6.890625 26.703125 6.890625 
Q 35.15625 6.890625 40.078125 11.328125 
Q 45.015625 15.765625 45.015625 23.390625 
Q 45.015625 31 40.078125 35.4375 
Q 35.15625 39.890625 26.703125 39.890625 
Q 22.75 39.890625 18.8125 39.015625 
Q 14.890625 38.140625 10.796875 36.28125 
z
" id="DejaVuSans-53"/>
       </defs>
       <use xlink:href="#DejaVuSans-50"/>
       <use x="63.623047" xlink:href="#DejaVuSans-46"/>
       <use x="95.410156" xlink:href="#DejaVuSans-53"/>
      </g>
     </g>
    </g>
    <g id="xtick_3">
     <g id="line2d_3">
      <g>
       <use style="stroke:#000000;stroke-width:0.8;" x="137.454221" xlink:href="#mad70e0489e" y="273.312"/>
      </g>
     </g>
     <g id="text_3">
      <!-- 5.0 -->
      <g transform="translate(129.502659 287.910437)scale(0.1 -0.1)">
       <use xlink:href="#DejaVuSans-53"/>
       <use x="63.623047" xlink:href="#DejaVuSans-46"/>
       <use x="95.410156" xlink:href="#DejaVuSans-48"/>
      </g>
     </g>
    </g>
    <g id="xtick_4">
     <g id="line2d_4">
      <g>
       <use style="stroke:#000000;stroke-width:0.8;" x="178.239968" xlink:href="#mad70e0489e" y="273.312"/>
      </g>
     </g>
     <g id="text_4">
      <!-- 7.5 -->
      <g transform="translate(170.288406 287.910437)scale(0.1 -0.1)">
       <defs>
        <path d="M 8.203125 72.90625 
L 55.078125 72.90625 
L 55.078125 68.703125 
L 28.609375 0 
L 18.3125 0 
L 43.21875 64.59375 
L 8.203125 64.59375 
z
" id="DejaVuSans-55"/>
       </defs>
       <use xlink:href="#DejaVuSans-55"/>
       <use x="63.623047" xlink:href="#DejaVuSans-46"/>
       <use x="95.410156" xlink:href="#DejaVuSans-53"/>
      </g>
     </g>
    </g>
    <g id="xtick_5">
     <g id="line2d_5">
      <g>
       <use style="stroke:#000000;stroke-width:0.8;" x="219.025715" xlink:href="#mad70e0489e" y="273.312"/>
      </g>
     </g>
     <g id="text_5">
      <!-- 10.0 -->
      <g transform="translate(207.892902 287.910437)scale(0.1 -0.1)">
       <defs>
        <path d="M 12.40625 8.296875 
L 28.515625 8.296875 
L 28.515625 63.921875 
L 10.984375 60.40625 
L 10.984375 69.390625 
L 28.421875 72.90625 
L 38.28125 72.90625 
L 38.28125 8.296875 
L 54.390625 8.296875 
L 54.390625 0 
L 12.40625 0 
z
" id="DejaVuSans-49"/>
       </defs>
       <use xlink:href="#DejaVuSans-49"/>
       <use x="63.623047" xlink:href="#DejaVuSans-48"/>
       <use x="127.246094" xlink:href="#DejaVuSans-46"/>
       <use x="159.033203" xlink:href="#DejaVuSans-48"/>
      </g>
     </g>
    </g>
    <g id="xtick_6">
     <g id="line2d_6">
      <g>
       <use style="stroke:#000000;stroke-width:0.8;" x="259.811462" xlink:href="#mad70e0489e" y="273.312"/>
      </g>
     </g>
     <g id="text_6">
      <!-- 12.5 -->
      <g transform="translate(248.678649 287.910437)scale(0.1 -0.1)">
       <use xlink:href="#DejaVuSans-49"/>
       <use x="63.623047" xlink:href="#DejaVuSans-50"/>
       <use x="127.246094" xlink:href="#DejaVuSans-46"/>
       <use x="159.033203" xlink:href="#DejaVuSans-53"/>
      </g>
     </g>
    </g>
    <g id="xtick_7">
     <g id="line2d_7">
      <g>
       <use style="stroke:#000000;stroke-width:0.8;" x="300.597209" xlink:href="#mad70e0489e" y="273.312"/>
      </g>
     </g>
     <g id="text_7">
      <!-- 15.0 -->
      <g transform="translate(289.464396 287.910437)scale(0.1 -0.1)">
       <use xlink:href="#DejaVuSans-49"/>
       <use x="63.623047" xlink:href="#DejaVuSans-53"/>
       <use x="127.246094" xlink:href="#DejaVuSans-46"/>
       <use x="159.033203" xlink:href="#DejaVuSans-48"/>
      </g>
     </g>
    </g>
    <g id="xtick_8">
     <g id="line2d_8">
      <g>
       <use style="stroke:#000000;stroke-width:0.8;" x="341.382956" xlink:href="#mad70e0489e" y="273.312"/>
      </g>
     </g>
     <g id="text_8">
      <!-- 17.5 -->
      <g transform="translate(330.250143 287.910437)scale(0.1 -0.1)">
       <use xlink:href="#DejaVuSans-49"/>
       <use x="63.623047" xlink:href="#DejaVuSans-55"/>
       <use x="127.246094" xlink:href="#DejaVuSans-46"/>
       <use x="159.033203" xlink:href="#DejaVuSans-53"/>
      </g>
     </g>
    </g>
    <g id="xtick_9">
     <g id="line2d_9">
      <g>
       <use style="stroke:#000000;stroke-width:0.8;" x="382.168703" xlink:href="#mad70e0489e" y="273.312"/>
      </g>
     </g>
     <g id="text_9">
      <!-- 20.0 -->
      <g transform="translate(371.03589 287.910437)scale(0.1 -0.1)">
       <use xlink:href="#DejaVuSans-50"/>
       <use x="63.623047" xlink:href="#DejaVuSans-48"/>
       <use x="127.246094" xlink:href="#DejaVuSans-46"/>
       <use x="159.033203" xlink:href="#DejaVuSans-48"/>
      </g>
     </g>
    </g>
   </g>
   <g id="matplotlib.axis_2">
    <g id="ytick_1">
     <g id="line2d_10">
      <defs>
       <path d="M 0 0 
L -3.5 0 
" id="ma7af7c16ee" style="stroke:#000000;stroke-width:0.8;"/>
      </defs>
      <g>
       <use style="stroke:#000000;stroke-width:0.8;" x="39.65" xlink:href="#ma7af7c16ee" y="261.216"/>
      </g>
     </g>
     <g id="text_10">
      <!-- 0 -->
      <g transform="translate(26.2875 265.015219)scale(0.1 -0.1)">
       <use xlink:href="#DejaVuSans-48"/>
      </g>
     </g>
    </g>
    <g id="ytick_2">
     <g id="line2d_11">
      <g>
       <use style="stroke:#000000;stroke-width:0.8;" x="39.65" xlink:href="#ma7af7c16ee" y="226.862876"/>
      </g>
     </g>
     <g id="text_11">
      <!-- 500 -->
      <g transform="translate(13.5625 230.662095)scale(0.1 -0.1)">
       <use xlink:href="#DejaVuSans-53"/>
       <use x="63.623047" xlink:href="#DejaVuSans-48"/>
       <use x="127.246094" xlink:href="#DejaVuSans-48"/>
      </g>
     </g>
    </g>
    <g id="ytick_3">
     <g id="line2d_12">
      <g>
       <use style="stroke:#000000;stroke-width:0.8;" x="39.65" xlink:href="#ma7af7c16ee" y="192.509752"/>
      </g>
     </g>
     <g id="text_12">
      <!-- 1000 -->
      <g transform="translate(7.2 196.308971)scale(0.1 -0.1)">
       <use xlink:href="#DejaVuSans-49"/>
       <use x="63.623047" xlink:href="#DejaVuSans-48"/>
       <use x="127.246094" xlink:href="#DejaVuSans-48"/>
       <use x="190.869141" xlink:href="#DejaVuSans-48"/>
      </g>
     </g>
    </g>
    <g id="ytick_4">
     <g id="line2d_13">
      <g>
       <use style="stroke:#000000;stroke-width:0.8;" x="39.65" xlink:href="#ma7af7c16ee" y="158.156628"/>
      </g>
     </g>
     <g id="text_13">
      <!-- 1500 -->
      <g transform="translate(7.2 161.955847)scale(0.1 -0.1)">
       <use xlink:href="#DejaVuSans-49"/>
       <use x="63.623047" xlink:href="#DejaVuSans-53"/>
       <use x="127.246094" xlink:href="#DejaVuSans-48"/>
       <use x="190.869141" xlink:href="#DejaVuSans-48"/>
      </g>
     </g>
    </g>
    <g id="ytick_5">
     <g id="line2d_14">
      <g>
       <use style="stroke:#000000;stroke-width:0.8;" x="39.65" xlink:href="#ma7af7c16ee" y="123.803504"/>
      </g>
     </g>
     <g id="text_14">
      <!-- 2000 -->
      <g transform="translate(7.2 127.602722)scale(0.1 -0.1)">
       <use xlink:href="#DejaVuSans-50"/>
       <use x="63.623047" xlink:href="#DejaVuSans-48"/>
       <use x="127.246094" xlink:href="#DejaVuSans-48"/>
       <use x="190.869141" xlink:href="#DejaVuSans-48"/>
      </g>
     </g>
    </g>
    <g id="ytick_6">
     <g id="line2d_15">
      <g>
       <use style="stroke:#000000;stroke-width:0.8;" x="39.65" xlink:href="#ma7af7c16ee" y="89.45038"/>
      </g>
     </g>
     <g id="text_15">
      <!-- 2500 -->
      <g transform="translate(7.2 93.249598)scale(0.1 -0.1)">
       <use xlink:href="#DejaVuSans-50"/>
       <use x="63.623047" xlink:href="#DejaVuSans-53"/>
       <use x="127.246094" xlink:href="#DejaVuSans-48"/>
       <use x="190.869141" xlink:href="#DejaVuSans-48"/>
      </g>
     </g>
    </g>
    <g id="ytick_7">
     <g id="line2d_16">
      <g>
       <use style="stroke:#000000;stroke-width:0.8;" x="39.65" xlink:href="#ma7af7c16ee" y="55.097256"/>
      </g>
     </g>
     <g id="text_16">
      <!-- 3000 -->
      <g transform="translate(7.2 58.896474)scale(0.1 -0.1)">
       <defs>
        <path d="M 40.578125 39.3125 
Q 47.65625 37.796875 51.625 33 
Q 55.609375 28.21875 55.609375 21.1875 
Q 55.609375 10.40625 48.1875 4.484375 
Q 40.765625 -1.421875 27.09375 -1.421875 
Q 22.515625 -1.421875 17.65625 -0.515625 
Q 12.796875 0.390625 7.625 2.203125 
L 7.625 11.71875 
Q 11.71875 9.328125 16.59375 8.109375 
Q 21.484375 6.890625 26.8125 6.890625 
Q 36.078125 6.890625 40.9375 10.546875 
Q 45.796875 14.203125 45.796875 21.1875 
Q 45.796875 27.640625 41.28125 31.265625 
Q 36.765625 34.90625 28.71875 34.90625 
L 20.21875 34.90625 
L 20.21875 43.015625 
L 29.109375 43.015625 
Q 36.375 43.015625 40.234375 45.921875 
Q 44.09375 48.828125 44.09375 54.296875 
Q 44.09375 59.90625 40.109375 62.90625 
Q 36.140625 65.921875 28.71875 65.921875 
Q 24.65625 65.921875 20.015625 65.03125 
Q 15.375 64.15625 9.8125 62.3125 
L 9.8125 71.09375 
Q 15.4375 72.65625 20.34375 73.4375 
Q 25.25 74.21875 29.59375 74.21875 
Q 40.828125 74.21875 47.359375 69.109375 
Q 53.90625 64.015625 53.90625 55.328125 
Q 53.90625 49.265625 50.4375 45.09375 
Q 46.96875 40.921875 40.578125 39.3125 
z
" id="DejaVuSans-51"/>
       </defs>
       <use xlink:href="#DejaVuSans-51"/>
       <use x="63.623047" xlink:href="#DejaVuSans-48"/>
       <use x="127.246094" xlink:href="#DejaVuSans-48"/>
       <use x="190.869141" xlink:href="#DejaVuSans-48"/>
      </g>
     </g>
    </g>
    <g id="ytick_8">
     <g id="line2d_17">
      <g>
       <use style="stroke:#000000;stroke-width:0.8;" x="39.65" xlink:href="#ma7af7c16ee" y="20.744132"/>
      </g>
     </g>
     <g id="text_17">
      <!-- 3500 -->
      <g transform="translate(7.2 24.54335)scale(0.1 -0.1)">
       <use xlink:href="#DejaVuSans-51"/>
       <use x="63.623047" xlink:href="#DejaVuSans-53"/>
       <use x="127.246094" xlink:href="#DejaVuSans-48"/>
       <use x="190.869141" xlink:href="#DejaVuSans-48"/>
      </g>
     </g>
    </g>
   </g>
   <g id="line2d_18">
    <path clip-path="url(#pe19b816e9d)" d="M 55.882727 261.216 
L 72.197026 192.509752 
L 88.511325 143.281725 
L 104.825624 108.009844 
L 121.139922 82.737541 
L 137.454221 64.629936 
L 153.76852 51.655837 
L 170.082819 42.359895 
L 186.397117 35.699353 
L 202.711416 30.927074 
L 219.025715 27.507736 
L 235.340014 25.057781 
L 251.654312 23.302388 
L 267.968611 22.044649 
L 284.28291 21.143479 
L 300.597209 20.49779 
L 316.911508 20.035155 
L 333.225806 19.703676 
L 349.540105 19.466172 
L 365.854404 19.296 
" style="fill:none;stroke:#1f77b4;stroke-linecap:square;stroke-width:1.5;"/>
   </g>
   <g id="line2d_19">
    <path clip-path="url(#pe19b816e9d)" d="M 55.882727 261.216 
L 72.197026 261.216 
L 88.511325 238.313917 
L 104.825624 210.146646 
L 121.139922 183.928275 
L 137.454221 162.043662 
L 153.76852 144.772234 
L 170.082819 131.580383 
L 186.397117 121.709039 
L 202.711416 114.420911 
L 219.025715 109.088426 
L 235.340014 105.210949 
L 251.654312 102.4036 
L 267.968611 100.377177 
L 284.28291 98.917564 
L 300.597209 97.867809 
L 316.911508 97.113636 
L 333.225806 96.572231 
L 349.540105 96.183781 
L 365.854404 95.905183 
" style="fill:none;stroke:#ff7f0e;stroke-linecap:square;stroke-width:1.5;"/>
   </g>
   <g id="line2d_20">
    <path clip-path="url(#pe19b816e9d)" d="M 55.882727 261.216 
L 57.514157 254.757613 
L 59.145587 247.818282 
L 60.777017 242.253076 
L 64.039877 229.54242 
L 65.671307 225.007807 
L 67.302736 218.54942 
L 72.197026 203.914989 
L 73.828456 198.281077 
L 75.459886 194.364821 
L 77.091316 189.143146 
L 80.354175 181.310633 
L 81.985605 176.363784 
L 83.617035 172.03529 
L 85.248465 168.325153 
L 86.879895 163.584421 
L 88.511325 160.217815 
L 90.142755 156.026734 
L 91.774185 152.728834 
L 93.405614 149.980584 
L 95.037044 146.270447 
L 96.668474 142.148072 
L 98.299904 140.018178 
L 99.931334 138.300522 
L 101.562764 134.31556 
L 103.194194 132.66661 
L 104.825624 130.055772 
L 106.457053 128.26941 
L 109.719913 123.940916 
L 111.351343 119.062773 
L 112.982773 117.207704 
L 114.614203 115.833579 
L 116.245633 114.047216 
L 117.877063 111.161554 
L 119.508492 109.856135 
L 121.139922 108.138479 
L 122.771352 107.38271 
L 126.034212 105.390229 
L 127.665642 104.840579 
L 129.297072 101.954917 
L 130.928502 100.099848 
L 132.559931 99.687611 
L 137.454221 94.259817 
L 139.085651 94.259817 
L 140.717081 91.855098 
L 142.348511 90.618386 
L 143.979941 90.206148 
L 145.61137 90.274855 
L 147.2428 88.832023 
L 148.87423 86.908248 
L 150.50566 87.595311 
L 152.13709 85.396711 
L 153.76852 83.95388 
L 155.39995 82.85458 
L 157.03138 82.648461 
L 158.66281 82.648461 
L 160.294239 82.236224 
L 161.925669 81.20563 
L 163.557099 78.663499 
L 166.819959 78.045142 
L 170.082819 77.014549 
L 171.714249 77.083255 
L 173.345678 76.25878 
L 174.977108 76.80843 
L 176.608538 75.365599 
L 178.239968 74.472418 
L 179.871398 75.022068 
L 181.502828 73.647943 
L 183.134258 72.96088 
L 184.765688 71.037105 
L 186.397117 71.31193 
L 188.028547 70.075218 
L 191.291407 69.594274 
L 192.922837 68.357561 
L 194.554267 68.975918 
L 196.185697 68.769799 
L 197.817127 69.319449 
L 199.448556 69.182036 
L 201.079986 68.907211 
L 202.711416 69.250743 
L 204.342846 68.769799 
L 205.974276 66.502493 
L 207.605706 64.510012 
L 209.237136 64.510012 
L 210.868566 64.71613 
L 212.499995 64.578718 
L 214.131425 64.097774 
L 215.762855 64.029068 
L 217.394285 64.510012 
L 219.025715 64.71613 
L 220.657145 64.510012 
L 222.288575 63.822949 
L 223.920005 62.311412 
L 225.551434 64.029068 
L 227.182864 64.235187 
L 228.814294 64.097774 
L 230.445724 64.578718 
L 232.077154 66.708612 
L 233.708584 66.708612 
L 235.340014 65.540605 
L 236.971444 66.502493 
L 240.234303 67.258262 
L 241.865733 68.494974 
L 243.497163 67.601793 
L 245.128593 65.471899 
L 246.760023 66.433787 
L 248.391453 66.296374 
L 250.022883 65.678018 
L 251.654312 66.158962 
L 253.285742 66.090255 
L 254.917172 64.510012 
L 256.548602 64.235187 
L 258.180032 63.685537 
L 259.811462 63.548124 
L 261.442892 61.899174 
L 263.074322 60.86858 
L 264.705751 60.456343 
L 266.337181 60.31893 
L 267.968611 59.013512 
L 271.231471 60.731168 
L 272.862901 61.143405 
L 274.494331 60.731168 
L 276.125761 60.525049 
L 277.75719 61.96788 
L 279.38862 62.242705 
L 281.02005 61.143405 
L 282.65148 61.899174 
L 284.28291 62.242705 
L 285.91434 62.929768 
L 287.54577 62.586237 
L 289.1772 62.51753 
L 290.80863 61.899174 
L 292.440059 61.624349 
L 294.071489 61.143405 
L 295.702919 59.563162 
L 297.334349 59.21963 
L 298.965779 59.76928 
L 300.597209 57.639387 
L 302.228639 57.021031 
L 303.860069 57.227149 
L 305.491498 58.051624 
L 307.122928 59.013512 
L 308.754358 58.257743 
L 312.017218 57.227149 
L 313.648648 56.883618 
L 315.280078 55.990437 
L 316.911508 57.295856 
L 321.805797 59.082218 
L 323.437227 60.387637 
L 325.068657 61.280818 
L 326.700087 60.731168 
L 328.331517 60.044105 
L 329.962947 59.563162 
L 331.594376 60.799874 
L 333.225806 59.563162 
L 334.857236 59.425749 
L 336.488666 57.914212 
L 338.120096 58.326449 
L 339.751526 57.501974 
L 341.382956 57.914212 
L 343.014386 58.051624 
L 344.645815 56.814912 
L 346.277245 56.746206 
L 347.908675 56.814912 
L 352.802965 53.860543 
L 354.434395 54.753724 
L 356.065825 55.097256 
L 357.697254 56.127849 
L 359.328684 56.196556 
L 360.960114 57.433268 
L 362.591544 57.982918 
L 365.854404 57.708093 
L 367.485834 59.700574 
L 369.117264 60.250224 
L 370.748693 60.250224 
L 372.380123 61.693055 
L 374.011553 61.143405 
L 375.642983 61.074699 
L 377.274413 61.280818 
L 378.905843 60.250224 
L 380.537273 60.799874 
L 380.537273 60.799874 
" style="fill:none;stroke:#2ca02c;stroke-linecap:square;stroke-width:1.5;"/>
   </g>
   <g id="line2d_21">
    <path clip-path="url(#pe19b816e9d)" d="M 55.882727 261.216 
L 57.514157 261.009881 
L 59.145587 260.528938 
L 60.777017 259.841875 
L 62.408447 258.948694 
L 64.039877 258.330338 
L 67.302736 255.582088 
L 68.934166 254.482788 
L 70.565596 253.795725 
L 72.197026 252.627719 
L 73.828456 251.597125 
L 75.459886 249.67335 
L 77.091316 248.367932 
L 78.722746 246.031919 
L 81.985605 243.008844 
L 83.617035 241.909544 
L 85.248465 240.123182 
L 86.879895 238.749057 
L 88.511325 237.031401 
L 90.142755 236.413044 
L 91.774185 234.489269 
L 93.405614 232.909026 
L 95.037044 231.053957 
L 96.668474 229.679832 
L 98.299904 227.481232 
L 99.931334 224.939101 
L 101.562764 224.526863 
L 103.194194 222.603089 
L 104.825624 221.916026 
L 106.457053 219.580014 
L 108.088483 218.343301 
L 109.719913 217.45012 
L 111.351343 216.831764 
L 112.982773 214.564458 
L 114.614203 211.060439 
L 116.245633 209.342783 
L 119.508492 205.35782 
L 122.771352 202.815689 
L 124.402782 201.098033 
L 126.034212 200.479677 
L 127.665642 199.242964 
L 129.297072 198.555902 
L 130.928502 197.66272 
L 132.559931 197.181777 
L 134.191361 196.013771 
L 135.822791 196.975658 
L 137.454221 197.11307 
L 139.085651 193.677758 
L 142.348511 191.066921 
L 143.979941 190.311152 
L 145.61137 189.005733 
L 147.2428 187.975139 
L 148.87423 186.463602 
L 150.50566 184.539827 
L 152.13709 185.433008 
L 153.76852 185.501715 
L 157.03138 183.784058 
L 158.66281 181.997696 
L 160.294239 180.005215 
L 161.925669 179.249446 
L 163.557099 178.012734 
L 165.188529 178.493677 
L 166.819959 178.562383 
L 168.451389 178.150146 
L 170.082819 175.814134 
L 171.714249 175.127071 
L 173.345678 175.058365 
L 174.977108 173.272002 
L 176.608538 173.065884 
L 178.239968 173.409415 
L 181.502828 171.966584 
L 183.134258 171.760465 
L 184.765688 172.58494 
L 186.397117 171.073402 
L 189.659977 169.080921 
L 192.922837 168.874803 
L 194.554267 167.294559 
L 196.185697 167.225853 
L 197.817127 169.149627 
L 201.079986 169.630571 
L 202.711416 168.050328 
L 204.342846 168.256446 
L 205.974276 167.500678 
L 207.605706 167.363265 
L 209.237136 166.813615 
L 210.868566 166.744909 
L 212.499995 165.576903 
L 214.131425 164.683721 
L 217.394285 164.88984 
L 219.025715 163.721834 
L 220.657145 163.034771 
L 223.920005 165.783021 
L 225.551434 165.164665 
L 227.182864 163.721834 
L 228.814294 163.859246 
L 230.445724 163.378303 
L 232.077154 162.004178 
L 233.708584 161.179703 
L 235.340014 161.660646 
L 236.971444 162.416415 
L 238.602873 162.759946 
L 240.234303 163.309596 
L 243.497163 162.897359 
L 245.128593 164.202778 
L 246.760023 163.721834 
L 250.022883 166.53879 
L 251.654312 164.821134 
L 253.285742 163.996659 
L 254.917172 164.271484 
L 256.548602 162.347709 
L 258.180032 163.79054 
L 259.811462 164.752428 
L 261.442892 164.134071 
L 263.074322 165.645609 
L 264.705751 164.88984 
L 266.337181 163.584421 
L 267.968611 164.546309 
L 269.600041 164.271484 
L 271.231471 163.584421 
L 272.862901 165.027253 
L 274.494331 165.027253 
L 276.125761 166.332671 
L 279.38862 164.683721 
L 281.02005 165.233371 
L 282.65148 166.057846 
L 284.28291 165.027253 
L 285.91434 164.271484 
L 287.54577 163.859246 
L 289.1772 161.660646 
L 290.80863 161.660646 
L 292.440059 161.04229 
L 294.071489 162.210296 
L 295.702919 161.59194 
L 297.334349 161.454528 
L 298.965779 160.49264 
L 300.597209 161.523234 
L 302.228639 160.836171 
L 303.860069 159.187222 
L 307.122928 158.29404 
L 308.754358 158.912397 
L 310.385788 160.698759 
L 312.017218 160.836171 
L 313.648648 160.561346 
L 315.280078 160.630053 
L 316.911508 159.599459 
L 320.174367 158.637572 
L 321.805797 158.912397 
L 323.437227 159.736872 
L 325.068657 158.774984 
L 326.700087 158.431453 
L 328.331517 157.74439 
L 329.962947 157.813097 
L 331.594376 156.782503 
L 333.225806 157.19474 
L 334.857236 156.232853 
L 336.488666 156.988622 
L 338.120096 156.026734 
L 339.751526 157.332153 
L 341.382956 156.851209 
L 343.014386 157.950509 
L 344.645815 159.324634 
L 346.277245 158.84369 
L 347.908675 157.538272 
L 349.540105 157.263447 
L 351.171535 156.164147 
L 352.802965 158.156628 
L 354.434395 157.675684 
L 356.065825 157.400859 
L 357.697254 157.675684 
L 359.328684 157.126034 
L 360.960114 157.675684 
L 362.591544 156.09544 
L 364.222974 155.683203 
L 365.854404 156.232853 
L 367.485834 155.064847 
L 369.117264 155.270965 
L 370.748693 155.270965 
L 372.380123 154.99614 
L 374.011553 155.820615 
L 375.642983 156.919915 
L 377.274413 156.507678 
L 378.905843 156.782503 
L 380.537273 157.469565 
L 380.537273 157.469565 
" style="fill:none;stroke:#d62728;stroke-linecap:square;stroke-width:1.5;"/>
   </g>
   <g id="patch_3">
    <path d="M 39.65 273.312 
L 39.65 7.2 
" style="fill:none;stroke:#000000;stroke-linecap:square;stroke-linejoin:miter;stroke-width:0.8;"/>
   </g>
   <g id="patch_4">
    <path d="M 396.77 273.312 
L 396.77 7.2 
" style="fill:none;stroke:#000000;stroke-linecap:square;stroke-linejoin:miter;stroke-width:0.8;"/>
   </g>
   <g id="patch_5">
    <path d="M 39.65 273.312 
L 396.77 273.312 
" style="fill:none;stroke:#000000;stroke-linecap:square;stroke-linejoin:miter;stroke-width:0.8;"/>
   </g>
   <g id="patch_6">
    <path d="M 39.65 7.2 
L 396.77 7.2 
" style="fill:none;stroke:#000000;stroke-linecap:square;stroke-linejoin:miter;stroke-width:0.8;"/>
   </g>
  </g>
 </g>
 <defs>
  <clipPath id="pe19b816e9d">
   <rect height="266.112" width="357.12" x="39.65" y="7.2"/>
  </clipPath>
 </defs>
</svg>
