<?xml version="1.0" encoding="utf-8" standalone="no"?>
<!DOCTYPE svg PUBLIC "-//W3C//DTD SVG 1.1//EN"
  "http://www.w3.org/Graphics/SVG/1.1/DTD/svg11.dtd">
<!-- Created with matplotlib (https://matplotlib.org/) -->
<svg height="299.851393pt" version="1.1" viewBox="0 0 397.6075 299.851393" width="397.6075pt" xmlns="http://www.w3.org/2000/svg" xmlns:xlink="http://www.w3.org/1999/xlink">
 <metadata>
  <rdf:RDF xmlns:cc="http://creativecommons.org/ns#" xmlns:dc="http://purl.org/dc/elements/1.1/" xmlns:rdf="http://www.w3.org/1999/02/22-rdf-syntax-ns#">
   <cc:Work>
    <dc:type rdf:resource="http://purl.org/dc/dcmitype/StillImage"/>
    <dc:date>2021-03-23T00:05:15.259168</dc:date>
    <dc:format>image/svg+xml</dc:format>
    <dc:creator>
     <cc:Agent>
      <dc:title>Matplotlib v3.3.4, https://matplotlib.org/</dc:title>
     </cc:Agent>
    </dc:creator>
   </cc:Work>
  </rdf:RDF>
 </metadata>
 <defs>
  <style type="text/css">*{stroke-linecap:butt;stroke-linejoin:round;}</style>
 </defs>
 <g id="figure_1">
  <g id="patch_1">
   <path d="M 0 299.851393 
L 397.6075 299.851393 
L 397.6075 0 
L 0 0 
z
" style="fill:#ffffff;"/>
  </g>
  <g id="axes_1">
   <g id="patch_2">
    <path d="M 33.2875 275.973268 
L 390.4075 275.973268 
L 390.4075 9.861268 
L 33.2875 9.861268 
z
" style="fill:#ffffff;"/>
   </g>
   <g id="matplotlib.axis_1">
    <g id="xtick_1">
     <g id="line2d_1">
      <defs>
       <path d="M 0 0 
L 0 3.5 
" id="mb98b6666d5" style="stroke:#000000;stroke-width:0.8;"/>
      </defs>
      <g>
       <use style="stroke:#000000;stroke-width:0.8;" x="49.520227" xlink:href="#mb98b6666d5" y="275.973268"/>
      </g>
     </g>
     <g id="text_1">
      <!-- 0.0 -->
      <g transform="translate(41.568665 290.571705)scale(0.1 -0.1)">
       <defs>
        <path d="M 31.78125 66.40625 
Q 24.171875 66.40625 20.328125 58.90625 
Q 16.5 51.421875 16.5 36.375 
Q 16.5 21.390625 20.328125 13.890625 
Q 24.171875 6.390625 31.78125 6.390625 
Q 39.453125 6.390625 43.28125 13.890625 
Q 47.125 21.390625 47.125 36.375 
Q 47.125 51.421875 43.28125 58.90625 
Q 39.453125 66.40625 31.78125 66.40625 
z
M 31.78125 74.21875 
Q 44.046875 74.21875 50.515625 64.515625 
Q 56.984375 54.828125 56.984375 36.375 
Q 56.984375 17.96875 50.515625 8.265625 
Q 44.046875 -1.421875 31.78125 -1.421875 
Q 19.53125 -1.421875 13.0625 8.265625 
Q 6.59375 17.96875 6.59375 36.375 
Q 6.59375 54.828125 13.0625 64.515625 
Q 19.53125 74.21875 31.78125 74.21875 
z
" id="DejaVuSans-48"/>
        <path d="M 10.6875 12.40625 
L 21 12.40625 
L 21 0 
L 10.6875 0 
z
" id="DejaVuSans-46"/>
       </defs>
       <use xlink:href="#DejaVuSans-48"/>
       <use x="63.623047" xlink:href="#DejaVuSans-46"/>
       <use x="95.410156" xlink:href="#DejaVuSans-48"/>
      </g>
     </g>
    </g>
    <g id="xtick_2">
     <g id="line2d_2">
      <g>
       <use style="stroke:#000000;stroke-width:0.8;" x="90.305974" xlink:href="#mb98b6666d5" y="275.973268"/>
      </g>
     </g>
     <g id="text_2">
      <!-- 2.5 -->
      <g transform="translate(82.354412 290.571705)scale(0.1 -0.1)">
       <defs>
        <path d="M 19.1875 8.296875 
L 53.609375 8.296875 
L 53.609375 0 
L 7.328125 0 
L 7.328125 8.296875 
Q 12.9375 14.109375 22.625 23.890625 
Q 32.328125 33.6875 34.8125 36.53125 
Q 39.546875 41.84375 41.421875 45.53125 
Q 43.3125 49.21875 43.3125 52.78125 
Q 43.3125 58.59375 39.234375 62.25 
Q 35.15625 65.921875 28.609375 65.921875 
Q 23.96875 65.921875 18.8125 64.3125 
Q 13.671875 62.703125 7.8125 59.421875 
L 7.8125 69.390625 
Q 13.765625 71.78125 18.9375 73 
Q 24.125 74.21875 28.421875 74.21875 
Q 39.75 74.21875 46.484375 68.546875 
Q 53.21875 62.890625 53.21875 53.421875 
Q 53.21875 48.921875 51.53125 44.890625 
Q 49.859375 40.875 45.40625 35.40625 
Q 44.1875 33.984375 37.640625 27.21875 
Q 31.109375 20.453125 19.1875 8.296875 
z
" id="DejaVuSans-50"/>
        <path d="M 10.796875 72.90625 
L 49.515625 72.90625 
L 49.515625 64.59375 
L 19.828125 64.59375 
L 19.828125 46.734375 
Q 21.96875 47.46875 24.109375 47.828125 
Q 26.265625 48.1875 28.421875 48.1875 
Q 40.625 48.1875 47.75 41.5 
Q 54.890625 34.8125 54.890625 23.390625 
Q 54.890625 11.625 47.5625 5.09375 
Q 40.234375 -1.421875 26.90625 -1.421875 
Q 22.3125 -1.421875 17.546875 -0.640625 
Q 12.796875 0.140625 7.71875 1.703125 
L 7.71875 11.625 
Q 12.109375 9.234375 16.796875 8.0625 
Q 21.484375 6.890625 26.703125 6.890625 
Q 35.15625 6.890625 40.078125 11.328125 
Q 45.015625 15.765625 45.015625 23.390625 
Q 45.015625 31 40.078125 35.4375 
Q 35.15625 39.890625 26.703125 39.890625 
Q 22.75 39.890625 18.8125 39.015625 
Q 14.890625 38.140625 10.796875 36.28125 
z
" id="DejaVuSans-53"/>
       </defs>
       <use xlink:href="#DejaVuSans-50"/>
       <use x="63.623047" xlink:href="#DejaVuSans-46"/>
       <use x="95.410156" xlink:href="#DejaVuSans-53"/>
      </g>
     </g>
    </g>
    <g id="xtick_3">
     <g id="line2d_3">
      <g>
       <use style="stroke:#000000;stroke-width:0.8;" x="131.091721" xlink:href="#mb98b6666d5" y="275.973268"/>
      </g>
     </g>
     <g id="text_3">
      <!-- 5.0 -->
      <g transform="translate(123.140159 290.571705)scale(0.1 -0.1)">
       <use xlink:href="#DejaVuSans-53"/>
       <use x="63.623047" xlink:href="#DejaVuSans-46"/>
       <use x="95.410156" xlink:href="#DejaVuSans-48"/>
      </g>
     </g>
    </g>
    <g id="xtick_4">
     <g id="line2d_4">
      <g>
       <use style="stroke:#000000;stroke-width:0.8;" x="171.877468" xlink:href="#mb98b6666d5" y="275.973268"/>
      </g>
     </g>
     <g id="text_4">
      <!-- 7.5 -->
      <g transform="translate(163.925906 290.571705)scale(0.1 -0.1)">
       <defs>
        <path d="M 8.203125 72.90625 
L 55.078125 72.90625 
L 55.078125 68.703125 
L 28.609375 0 
L 18.3125 0 
L 43.21875 64.59375 
L 8.203125 64.59375 
z
" id="DejaVuSans-55"/>
       </defs>
       <use xlink:href="#DejaVuSans-55"/>
       <use x="63.623047" xlink:href="#DejaVuSans-46"/>
       <use x="95.410156" xlink:href="#DejaVuSans-53"/>
      </g>
     </g>
    </g>
    <g id="xtick_5">
     <g id="line2d_5">
      <g>
       <use style="stroke:#000000;stroke-width:0.8;" x="212.663215" xlink:href="#mb98b6666d5" y="275.973268"/>
      </g>
     </g>
     <g id="text_5">
      <!-- 10.0 -->
      <g transform="translate(201.530402 290.571705)scale(0.1 -0.1)">
       <defs>
        <path d="M 12.40625 8.296875 
L 28.515625 8.296875 
L 28.515625 63.921875 
L 10.984375 60.40625 
L 10.984375 69.390625 
L 28.421875 72.90625 
L 38.28125 72.90625 
L 38.28125 8.296875 
L 54.390625 8.296875 
L 54.390625 0 
L 12.40625 0 
z
" id="DejaVuSans-49"/>
       </defs>
       <use xlink:href="#DejaVuSans-49"/>
       <use x="63.623047" xlink:href="#DejaVuSans-48"/>
       <use x="127.246094" xlink:href="#DejaVuSans-46"/>
       <use x="159.033203" xlink:href="#DejaVuSans-48"/>
      </g>
     </g>
    </g>
    <g id="xtick_6">
     <g id="line2d_6">
      <g>
       <use style="stroke:#000000;stroke-width:0.8;" x="253.448962" xlink:href="#mb98b6666d5" y="275.973268"/>
      </g>
     </g>
     <g id="text_6">
      <!-- 12.5 -->
      <g transform="translate(242.316149 290.571705)scale(0.1 -0.1)">
       <use xlink:href="#DejaVuSans-49"/>
       <use x="63.623047" xlink:href="#DejaVuSans-50"/>
       <use x="127.246094" xlink:href="#DejaVuSans-46"/>
       <use x="159.033203" xlink:href="#DejaVuSans-53"/>
      </g>
     </g>
    </g>
    <g id="xtick_7">
     <g id="line2d_7">
      <g>
       <use style="stroke:#000000;stroke-width:0.8;" x="294.234709" xlink:href="#mb98b6666d5" y="275.973268"/>
      </g>
     </g>
     <g id="text_7">
      <!-- 15.0 -->
      <g transform="translate(283.101896 290.571705)scale(0.1 -0.1)">
       <use xlink:href="#DejaVuSans-49"/>
       <use x="63.623047" xlink:href="#DejaVuSans-53"/>
       <use x="127.246094" xlink:href="#DejaVuSans-46"/>
       <use x="159.033203" xlink:href="#DejaVuSans-48"/>
      </g>
     </g>
    </g>
    <g id="xtick_8">
     <g id="line2d_8">
      <g>
       <use style="stroke:#000000;stroke-width:0.8;" x="335.020456" xlink:href="#mb98b6666d5" y="275.973268"/>
      </g>
     </g>
     <g id="text_8">
      <!-- 17.5 -->
      <g transform="translate(323.887643 290.571705)scale(0.1 -0.1)">
       <use xlink:href="#DejaVuSans-49"/>
       <use x="63.623047" xlink:href="#DejaVuSans-55"/>
       <use x="127.246094" xlink:href="#DejaVuSans-46"/>
       <use x="159.033203" xlink:href="#DejaVuSans-53"/>
      </g>
     </g>
    </g>
    <g id="xtick_9">
     <g id="line2d_9">
      <g>
       <use style="stroke:#000000;stroke-width:0.8;" x="375.806203" xlink:href="#mb98b6666d5" y="275.973268"/>
      </g>
     </g>
     <g id="text_9">
      <!-- 20.0 -->
      <g transform="translate(364.67339 290.571705)scale(0.1 -0.1)">
       <use xlink:href="#DejaVuSans-50"/>
       <use x="63.623047" xlink:href="#DejaVuSans-48"/>
       <use x="127.246094" xlink:href="#DejaVuSans-46"/>
       <use x="159.033203" xlink:href="#DejaVuSans-48"/>
      </g>
     </g>
    </g>
   </g>
   <g id="matplotlib.axis_2">
    <g id="ytick_1">
     <g id="line2d_10">
      <defs>
       <path d="M 0 0 
L -3.5 0 
" id="m9d5fe80eeb" style="stroke:#000000;stroke-width:0.8;"/>
      </defs>
      <g>
       <use style="stroke:#000000;stroke-width:0.8;" x="33.2875" xlink:href="#m9d5fe80eeb" y="263.877268"/>
      </g>
     </g>
     <g id="text_10">
      <!-- 0 -->
      <g transform="translate(19.925 267.676486)scale(0.1 -0.1)">
       <use xlink:href="#DejaVuSans-48"/>
      </g>
     </g>
    </g>
    <g id="ytick_2">
     <g id="line2d_11">
      <g>
       <use style="stroke:#000000;stroke-width:0.8;" x="33.2875" xlink:href="#m9d5fe80eeb" y="221.730926"/>
      </g>
     </g>
     <g id="text_11">
      <!-- 50 -->
      <g transform="translate(13.5625 225.530145)scale(0.1 -0.1)">
       <use xlink:href="#DejaVuSans-53"/>
       <use x="63.623047" xlink:href="#DejaVuSans-48"/>
      </g>
     </g>
    </g>
    <g id="ytick_3">
     <g id="line2d_12">
      <g>
       <use style="stroke:#000000;stroke-width:0.8;" x="33.2875" xlink:href="#m9d5fe80eeb" y="179.584585"/>
      </g>
     </g>
     <g id="text_12">
      <!-- 100 -->
      <g transform="translate(7.2 183.383803)scale(0.1 -0.1)">
       <use xlink:href="#DejaVuSans-49"/>
       <use x="63.623047" xlink:href="#DejaVuSans-48"/>
       <use x="127.246094" xlink:href="#DejaVuSans-48"/>
      </g>
     </g>
    </g>
    <g id="ytick_4">
     <g id="line2d_13">
      <g>
       <use style="stroke:#000000;stroke-width:0.8;" x="33.2875" xlink:href="#m9d5fe80eeb" y="137.438243"/>
      </g>
     </g>
     <g id="text_13">
      <!-- 150 -->
      <g transform="translate(7.2 141.237462)scale(0.1 -0.1)">
       <use xlink:href="#DejaVuSans-49"/>
       <use x="63.623047" xlink:href="#DejaVuSans-53"/>
       <use x="127.246094" xlink:href="#DejaVuSans-48"/>
      </g>
     </g>
    </g>
    <g id="ytick_5">
     <g id="line2d_14">
      <g>
       <use style="stroke:#000000;stroke-width:0.8;" x="33.2875" xlink:href="#m9d5fe80eeb" y="95.291902"/>
      </g>
     </g>
     <g id="text_14">
      <!-- 200 -->
      <g transform="translate(7.2 99.09112)scale(0.1 -0.1)">
       <use xlink:href="#DejaVuSans-50"/>
       <use x="63.623047" xlink:href="#DejaVuSans-48"/>
       <use x="127.246094" xlink:href="#DejaVuSans-48"/>
      </g>
     </g>
    </g>
    <g id="ytick_6">
     <g id="line2d_15">
      <g>
       <use style="stroke:#000000;stroke-width:0.8;" x="33.2875" xlink:href="#m9d5fe80eeb" y="53.14556"/>
      </g>
     </g>
     <g id="text_15">
      <!-- 250 -->
      <g transform="translate(7.2 56.944779)scale(0.1 -0.1)">
       <use xlink:href="#DejaVuSans-50"/>
       <use x="63.623047" xlink:href="#DejaVuSans-53"/>
       <use x="127.246094" xlink:href="#DejaVuSans-48"/>
      </g>
     </g>
    </g>
    <g id="ytick_7">
     <g id="line2d_16">
      <g>
       <use style="stroke:#000000;stroke-width:0.8;" x="33.2875" xlink:href="#m9d5fe80eeb" y="10.999219"/>
      </g>
     </g>
     <g id="text_16">
      <!-- 300 -->
      <g transform="translate(7.2 14.798438)scale(0.1 -0.1)">
       <defs>
        <path d="M 40.578125 39.3125 
Q 47.65625 37.796875 51.625 33 
Q 55.609375 28.21875 55.609375 21.1875 
Q 55.609375 10.40625 48.1875 4.484375 
Q 40.765625 -1.421875 27.09375 -1.421875 
Q 22.515625 -1.421875 17.65625 -0.515625 
Q 12.796875 0.390625 7.625 2.203125 
L 7.625 11.71875 
Q 11.71875 9.328125 16.59375 8.109375 
Q 21.484375 6.890625 26.8125 6.890625 
Q 36.078125 6.890625 40.9375 10.546875 
Q 45.796875 14.203125 45.796875 21.1875 
Q 45.796875 27.640625 41.28125 31.265625 
Q 36.765625 34.90625 28.71875 34.90625 
L 20.21875 34.90625 
L 20.21875 43.015625 
L 29.109375 43.015625 
Q 36.375 43.015625 40.234375 45.921875 
Q 44.09375 48.828125 44.09375 54.296875 
Q 44.09375 59.90625 40.109375 62.90625 
Q 36.140625 65.921875 28.71875 65.921875 
Q 24.65625 65.921875 20.015625 65.03125 
Q 15.375 64.15625 9.8125 62.3125 
L 9.8125 71.09375 
Q 15.4375 72.65625 20.34375 73.4375 
Q 25.25 74.21875 29.59375 74.21875 
Q 40.828125 74.21875 47.359375 69.109375 
Q 53.90625 64.015625 53.90625 55.328125 
Q 53.90625 49.265625 50.4375 45.09375 
Q 46.96875 40.921875 40.578125 39.3125 
z
" id="DejaVuSans-51"/>
       </defs>
       <use xlink:href="#DejaVuSans-51"/>
       <use x="63.623047" xlink:href="#DejaVuSans-48"/>
       <use x="127.246094" xlink:href="#DejaVuSans-48"/>
      </g>
     </g>
    </g>
   </g>
   <g id="line2d_17">
    <path clip-path="url(#p5b99f66174)" d="M 49.520227 263.877268 
L 53.598802 53.14556 
L 57.677377 53.14556 
L 61.755951 53.14556 
L 65.834526 53.14556 
L 69.913101 53.14556 
L 73.991675 53.14556 
L 78.07025 53.14556 
L 82.148825 53.14556 
L 86.227399 53.14556 
L 90.305974 53.14556 
L 94.384549 53.14556 
L 98.463124 53.14556 
L 102.541698 53.14556 
L 106.620273 53.14556 
L 110.698848 53.14556 
L 114.777422 53.14556 
L 118.855997 53.14556 
L 122.934572 53.14556 
L 127.013146 53.14556 
L 131.091721 53.14556 
L 135.170296 53.14556 
L 139.24887 53.14556 
L 143.327445 53.14556 
L 147.40602 53.14556 
L 151.484595 53.14556 
L 155.563169 53.14556 
L 159.641744 53.14556 
L 163.720319 53.14556 
L 167.798893 53.14556 
L 171.877468 53.14556 
L 175.956043 53.14556 
L 180.034617 53.14556 
L 184.113192 53.14556 
L 188.191767 53.14556 
L 192.270341 53.14556 
L 196.348916 53.14556 
L 200.427491 53.14556 
L 204.506066 53.14556 
L 208.58464 53.14556 
L 212.663215 53.14556 
L 216.74179 53.14556 
L 220.820364 53.14556 
L 224.898939 53.14556 
L 228.977514 53.14556 
L 233.056088 53.14556 
L 237.134663 53.14556 
L 241.213238 53.14556 
L 245.291812 53.14556 
L 249.370387 53.14556 
L 253.448962 53.14556 
L 257.527537 53.14556 
L 261.606111 53.14556 
L 265.684686 53.14556 
L 269.763261 53.14556 
L 273.841835 53.14556 
L 277.92041 53.14556 
L 281.998985 53.14556 
L 286.077559 53.14556 
L 290.156134 53.14556 
L 294.234709 53.14556 
L 298.313283 53.14556 
L 302.391858 53.14556 
L 306.470433 53.14556 
L 310.549008 53.14556 
L 314.627582 53.14556 
L 318.706157 53.14556 
L 322.784732 53.14556 
L 326.863306 53.14556 
L 330.941881 53.14556 
L 335.020456 53.14556 
L 339.09903 53.14556 
L 343.177605 53.14556 
L 347.25618 53.14556 
L 351.334754 53.14556 
L 355.413329 53.14556 
L 359.491904 53.14556 
L 363.570479 53.14556 
L 367.649053 53.14556 
L 371.727628 53.14556 
" style="fill:none;stroke:#1f77b4;stroke-linecap:square;stroke-width:1.5;"/>
   </g>
   <g id="line2d_18">
    <path clip-path="url(#p5b99f66174)" d="M 49.520227 263.877268 
L 53.598802 263.877268 
L 57.677377 53.14556 
L 61.755951 53.14556 
L 65.834526 53.14556 
L 69.913101 53.14556 
L 73.991675 53.14556 
L 78.07025 53.14556 
L 82.148825 53.14556 
L 86.227399 53.14556 
L 90.305974 53.14556 
L 94.384549 53.14556 
L 98.463124 53.14556 
L 102.541698 53.14556 
L 106.620273 53.14556 
L 110.698848 53.14556 
L 114.777422 53.14556 
L 118.855997 53.14556 
L 122.934572 53.14556 
L 127.013146 53.14556 
L 131.091721 53.14556 
L 135.170296 53.14556 
L 139.24887 53.14556 
L 143.327445 53.14556 
L 147.40602 53.14556 
L 151.484595 53.14556 
L 155.563169 53.14556 
L 159.641744 53.14556 
L 163.720319 53.14556 
L 167.798893 53.14556 
L 171.877468 53.14556 
L 175.956043 53.14556 
L 180.034617 53.14556 
L 184.113192 53.14556 
L 188.191767 53.14556 
L 192.270341 53.14556 
L 196.348916 53.14556 
L 200.427491 53.14556 
L 204.506066 53.14556 
L 208.58464 53.14556 
L 212.663215 53.14556 
L 216.74179 53.14556 
L 220.820364 53.14556 
L 224.898939 53.14556 
L 228.977514 53.14556 
L 233.056088 53.14556 
L 237.134663 53.14556 
L 241.213238 53.14556 
L 245.291812 53.14556 
L 249.370387 53.14556 
L 253.448962 53.14556 
L 257.527537 53.14556 
L 261.606111 53.14556 
L 265.684686 53.14556 
L 269.763261 53.14556 
L 273.841835 53.14556 
L 277.92041 53.14556 
L 281.998985 53.14556 
L 286.077559 53.14556 
L 290.156134 53.14556 
L 294.234709 53.14556 
L 298.313283 53.14556 
L 302.391858 53.14556 
L 306.470433 53.14556 
L 310.549008 53.14556 
L 314.627582 53.14556 
L 318.706157 53.14556 
L 322.784732 53.14556 
L 326.863306 53.14556 
L 330.941881 53.14556 
L 335.020456 53.14556 
L 339.09903 53.14556 
L 343.177605 53.14556 
L 347.25618 53.14556 
L 351.334754 53.14556 
L 355.413329 53.14556 
L 359.491904 53.14556 
L 363.570479 53.14556 
L 367.649053 53.14556 
L 371.727628 53.14556 
" style="fill:none;stroke:#ff7f0e;stroke-linecap:square;stroke-width:1.5;"/>
   </g>
   <g id="line2d_19">
    <path clip-path="url(#p5b99f66174)" d="M 49.520227 263.877268 
L 51.151657 193.071414 
L 52.783087 145.867511 
L 54.414517 111.307511 
L 56.045947 86.862633 
L 57.677377 73.375804 
L 59.308807 69.16117 
L 60.940236 59.046048 
L 62.571666 50.61678 
L 64.203096 49.773853 
L 65.834526 54.831414 
L 67.465956 62.417755 
L 69.097386 62.417755 
L 70.728816 54.831414 
L 72.360246 51.459707 
L 73.991675 52.302633 
L 75.623105 41.344585 
L 77.254535 54.831414 
L 78.885965 58.203121 
L 80.517395 57.360194 
L 82.148825 62.417755 
L 83.780255 69.16117 
L 85.411685 58.203121 
L 87.043114 62.417755 
L 88.674544 62.417755 
L 90.305974 59.046048 
L 91.937404 67.475316 
L 93.568834 62.417755 
L 95.200264 59.046048 
L 96.831694 52.302633 
L 98.463124 59.888975 
L 100.094553 55.674341 
L 101.725983 59.888975 
L 103.357413 44.716292 
L 104.988843 47.245072 
L 106.620273 35.444097 
L 108.251703 44.716292 
L 109.883133 41.344585 
L 113.145992 22.800194 
L 114.777422 43.873365 
L 116.408852 43.873365 
L 118.040282 45.559219 
L 119.671712 40.501658 
L 121.303142 58.203121 
L 122.934572 62.417755 
L 124.566002 55.674341 
L 126.197431 58.203121 
L 127.828861 56.517268 
L 129.460291 47.245072 
L 131.091721 57.360194 
L 132.723151 64.946536 
L 134.354581 70.004097 
L 135.986011 67.475316 
L 137.617441 76.747511 
L 139.24887 73.375804 
L 140.8803 60.731902 
L 142.51173 62.417755 
L 144.14316 56.517268 
L 145.77459 54.831414 
L 147.40602 64.946536 
L 149.03745 67.475316 
L 150.66888 53.988487 
L 152.30031 56.517268 
L 153.931739 62.417755 
L 155.563169 72.532877 
L 157.194599 55.674341 
L 158.826029 55.674341 
L 160.457459 64.103609 
L 162.088889 60.731902 
L 163.720319 49.773853 
L 165.351749 42.187511 
L 166.983178 55.674341 
L 168.614608 53.988487 
L 170.246038 50.61678 
L 171.877468 59.888975 
L 173.508898 53.988487 
L 175.140328 57.360194 
L 176.771758 61.574829 
L 178.403188 63.260682 
L 180.034617 71.68995 
L 181.666047 63.260682 
L 183.297477 52.302633 
L 184.928907 57.360194 
L 186.560337 66.632389 
L 188.191767 63.260682 
L 189.823197 57.360194 
L 191.454627 74.218731 
L 193.086056 64.103609 
L 194.717486 60.731902 
L 196.348916 53.14556 
L 197.980346 48.087999 
L 199.611776 49.773853 
L 201.243206 41.344585 
L 202.874636 50.61678 
L 204.506066 57.360194 
L 206.137495 56.517268 
L 207.768925 47.245072 
L 209.400355 53.14556 
L 211.031785 47.245072 
L 212.663215 62.417755 
L 214.294645 62.417755 
L 215.926075 56.517268 
L 217.557505 48.087999 
L 220.820364 63.260682 
L 222.451794 63.260682 
L 224.083224 59.046048 
L 225.714654 67.475316 
L 227.346084 59.046048 
L 228.977514 55.674341 
L 230.608944 48.087999 
L 232.240373 37.972877 
L 233.871803 45.559219 
L 235.503233 56.517268 
L 237.134663 59.046048 
L 238.766093 64.946536 
L 240.397523 58.203121 
L 242.028953 56.517268 
L 243.660383 45.559219 
L 246.923242 52.302633 
L 248.554672 49.773853 
L 250.186102 45.559219 
L 251.817532 58.203121 
L 253.448962 51.459707 
L 255.080392 51.459707 
L 256.711822 47.245072 
L 258.343251 49.773853 
L 259.974681 49.773853 
L 261.606111 48.930926 
L 263.237541 48.930926 
L 264.868971 53.14556 
L 266.500401 35.444097 
L 269.763261 50.61678 
L 271.39469 60.731902 
L 273.02612 55.674341 
L 274.65755 56.517268 
L 276.28898 39.658731 
L 277.92041 43.873365 
L 279.55184 48.930926 
L 281.18327 52.302633 
L 282.8147 53.14556 
L 284.44613 50.61678 
L 286.077559 53.988487 
L 287.708989 40.501658 
L 289.340419 43.873365 
L 290.971849 64.946536 
L 292.603279 73.375804 
L 294.234709 75.904585 
L 295.866139 62.417755 
L 297.497569 46.402146 
L 299.128998 47.245072 
L 300.760428 52.302633 
L 302.391858 55.674341 
L 304.023288 55.674341 
L 305.654718 62.417755 
L 307.286148 68.318243 
L 308.917578 75.061658 
L 310.549008 61.574829 
L 312.180437 59.888975 
L 313.811867 67.475316 
L 315.443297 59.046048 
L 317.074727 55.674341 
L 318.706157 56.517268 
L 320.337587 58.203121 
L 321.969017 52.302633 
L 323.600447 48.930926 
L 325.231876 47.245072 
L 326.863306 51.459707 
L 328.494736 36.287024 
L 330.126166 38.815804 
L 331.757596 51.459707 
L 333.389026 53.14556 
L 335.020456 44.716292 
L 336.651886 48.930926 
L 338.283315 47.245072 
L 339.914745 48.930926 
L 341.546175 48.087999 
L 343.177605 49.773853 
L 344.809035 55.674341 
L 346.440465 53.14556 
L 348.071895 51.459707 
L 349.703325 53.14556 
L 351.334754 57.360194 
L 352.966184 45.559219 
L 354.597614 56.517268 
L 356.229044 57.360194 
L 357.860474 62.417755 
L 359.491904 49.773853 
L 361.123334 42.187511 
L 362.754764 35.444097 
L 364.386193 43.030438 
L 366.017623 48.087999 
L 367.649053 50.61678 
L 369.280483 46.402146 
L 370.911913 59.888975 
L 372.543343 51.459707 
L 374.174773 59.046048 
L 374.174773 59.046048 
" style="fill:none;stroke:#2ca02c;stroke-linecap:square;stroke-width:1.5;"/>
   </g>
   <g id="line2d_20">
    <path clip-path="url(#p5b99f66174)" d="M 49.520227 263.877268 
L 51.151657 251.233365 
L 52.783087 227.631414 
L 56.045947 173.684097 
L 57.677377 145.867511 
L 59.308807 115.522146 
L 60.940236 108.778731 
L 62.571666 98.663609 
L 64.203096 95.291902 
L 65.834526 90.234341 
L 67.465956 70.004097 
L 69.097386 60.731902 
L 70.728816 64.103609 
L 72.360246 56.517268 
L 73.991675 44.716292 
L 75.623105 48.930926 
L 77.254535 31.229463 
L 78.885965 46.402146 
L 80.517395 57.360194 
L 82.148825 57.360194 
L 83.780255 55.674341 
L 85.411685 65.789463 
L 87.043114 56.517268 
L 88.674544 51.459707 
L 90.305974 43.873365 
L 91.937404 41.344585 
L 93.568834 56.517268 
L 95.200264 68.318243 
L 96.831694 73.375804 
L 98.463124 63.260682 
L 100.094553 66.632389 
L 101.725983 61.574829 
L 103.357413 68.318243 
L 104.988843 59.046048 
L 106.620273 66.632389 
L 108.251703 53.988487 
L 109.883133 53.988487 
L 111.514563 73.375804 
L 113.145992 64.946536 
L 114.777422 44.716292 
L 116.408852 49.773853 
L 118.040282 68.318243 
L 119.671712 58.203121 
L 121.303142 52.302633 
L 122.934572 50.61678 
L 124.566002 59.888975 
L 126.197431 58.203121 
L 127.828861 58.203121 
L 129.460291 73.375804 
L 131.091721 72.532877 
L 132.723151 54.831414 
L 134.354581 59.046048 
L 135.986011 54.831414 
L 137.617441 56.517268 
L 139.24887 56.517268 
L 140.8803 55.674341 
L 142.51173 49.773853 
L 144.14316 64.103609 
L 145.77459 54.831414 
L 147.40602 49.773853 
L 149.03745 36.287024 
L 150.66888 36.287024 
L 152.30031 45.559219 
L 153.931739 48.087999 
L 155.563169 41.344585 
L 157.194599 53.988487 
L 158.826029 61.574829 
L 160.457459 62.417755 
L 162.088889 64.103609 
L 163.720319 75.061658 
L 165.351749 78.433365 
L 166.983178 56.517268 
L 168.614608 54.831414 
L 170.246038 45.559219 
L 171.877468 38.815804 
L 173.508898 44.716292 
L 175.140328 40.501658 
L 176.771758 28.700682 
L 178.403188 23.643121 
L 180.034617 21.957268 
L 181.666047 44.716292 
L 183.297477 48.087999 
L 184.928907 41.344585 
L 186.560337 38.815804 
L 188.191767 52.302633 
L 189.823197 56.517268 
L 191.454627 36.287024 
L 193.086056 51.459707 
L 194.717486 48.087999 
L 196.348916 61.574829 
L 197.980346 58.203121 
L 199.611776 53.988487 
L 201.243206 56.517268 
L 202.874636 53.988487 
L 204.506066 62.417755 
L 206.137495 62.417755 
L 207.768925 70.004097 
L 209.400355 55.674341 
L 211.031785 54.831414 
L 212.663215 37.972877 
L 214.294645 43.873365 
L 215.926075 51.459707 
L 217.557505 64.103609 
L 219.188934 53.14556 
L 220.820364 52.302633 
L 222.451794 64.946536 
L 224.083224 60.731902 
L 225.714654 37.972877 
L 227.346084 54.831414 
L 228.977514 53.14556 
L 230.608944 59.046048 
L 232.240373 57.360194 
L 233.871803 54.831414 
L 235.503233 48.930926 
L 237.134663 52.302633 
L 238.766093 41.344585 
L 242.028953 44.716292 
L 243.660383 53.988487 
L 245.291812 44.716292 
L 246.923242 43.873365 
L 248.554672 42.187511 
L 250.186102 43.873365 
L 251.817532 33.758243 
L 253.448962 42.187511 
L 255.080392 37.972877 
L 256.711822 46.402146 
L 258.343251 48.087999 
L 259.974681 54.831414 
L 261.606111 51.459707 
L 263.237541 49.773853 
L 264.868971 50.61678 
L 266.500401 69.16117 
L 268.131831 53.14556 
L 269.763261 43.873365 
L 271.39469 29.543609 
L 273.02612 39.658731 
L 274.65755 37.972877 
L 276.28898 55.674341 
L 277.92041 55.674341 
L 279.55184 46.402146 
L 281.18327 50.61678 
L 282.8147 55.674341 
L 284.44613 48.087999 
L 286.077559 41.344585 
L 287.708989 50.61678 
L 289.340419 59.046048 
L 290.971849 32.915316 
L 292.603279 27.014829 
L 294.234709 48.930926 
L 295.866139 53.988487 
L 297.497569 62.417755 
L 299.128998 81.805072 
L 300.760428 64.103609 
L 302.391858 56.517268 
L 304.023288 56.517268 
L 305.654718 65.789463 
L 307.286148 43.873365 
L 308.917578 32.915316 
L 310.549008 46.402146 
L 312.180437 61.574829 
L 313.811867 64.946536 
L 315.443297 69.16117 
L 317.074727 76.747511 
L 318.706157 57.360194 
L 320.337587 71.68995 
L 321.969017 65.789463 
L 323.600447 61.574829 
L 325.231876 67.475316 
L 326.863306 70.847024 
L 328.494736 81.805072 
L 330.126166 64.946536 
L 331.757596 64.946536 
L 333.389026 53.988487 
L 335.020456 59.888975 
L 336.651886 50.61678 
L 338.283315 45.559219 
L 339.914745 46.402146 
L 341.546175 51.459707 
L 343.177605 53.988487 
L 344.809035 34.60117 
L 346.440465 52.302633 
L 348.071895 59.046048 
L 349.703325 51.459707 
L 351.334754 52.302633 
L 352.966184 69.16117 
L 354.597614 62.417755 
L 357.860474 43.873365 
L 359.491904 61.574829 
L 361.123334 48.087999 
L 362.754764 59.888975 
L 364.386193 57.360194 
L 366.017623 42.187511 
L 367.649053 42.187511 
L 369.280483 46.402146 
L 370.911913 37.12995 
L 372.543343 50.61678 
L 374.174773 49.773853 
L 374.174773 49.773853 
" style="fill:none;stroke:#d62728;stroke-linecap:square;stroke-width:1.5;"/>
   </g>
   <g id="patch_3">
    <path d="M 33.2875 275.973268 
L 33.2875 9.861268 
" style="fill:none;stroke:#000000;stroke-linecap:square;stroke-linejoin:miter;stroke-width:0.8;"/>
   </g>
   <g id="patch_4">
    <path d="M 390.4075 275.973268 
L 390.4075 9.861268 
" style="fill:none;stroke:#000000;stroke-linecap:square;stroke-linejoin:miter;stroke-width:0.8;"/>
   </g>
   <g id="patch_5">
    <path d="M 33.2875 275.973268 
L 390.4075 275.973268 
" style="fill:none;stroke:#000000;stroke-linecap:square;stroke-linejoin:miter;stroke-width:0.8;"/>
   </g>
   <g id="patch_6">
    <path d="M 33.2875 9.861268 
L 390.4075 9.861268 
" style="fill:none;stroke:#000000;stroke-linecap:square;stroke-linejoin:miter;stroke-width:0.8;"/>
   </g>
  </g>
 </g>
 <defs>
  <clipPath id="p5b99f66174">
   <rect height="266.112" width="357.12" x="33.2875" y="9.861268"/>
  </clipPath>
 </defs>
</svg>
