<?xml version="1.0" encoding="utf-8" standalone="no"?>
<!DOCTYPE svg PUBLIC "-//W3C//DTD SVG 1.1//EN"
  "http://www.w3.org/Graphics/SVG/1.1/DTD/svg11.dtd">
<!-- Created with matplotlib (https://matplotlib.org/) -->
<svg height="297.190125pt" version="1.1" viewBox="0 0 403.97 297.190125" width="403.97pt" xmlns="http://www.w3.org/2000/svg" xmlns:xlink="http://www.w3.org/1999/xlink">
 <metadata>
  <rdf:RDF xmlns:cc="http://creativecommons.org/ns#" xmlns:dc="http://purl.org/dc/elements/1.1/" xmlns:rdf="http://www.w3.org/1999/02/22-rdf-syntax-ns#">
   <cc:Work>
    <dc:type rdf:resource="http://purl.org/dc/dcmitype/StillImage"/>
    <dc:date>2021-03-10T00:04:22.213804</dc:date>
    <dc:format>image/svg+xml</dc:format>
    <dc:creator>
     <cc:Agent>
      <dc:title>Matplotlib v3.3.4, https://matplotlib.org/</dc:title>
     </cc:Agent>
    </dc:creator>
   </cc:Work>
  </rdf:RDF>
 </metadata>
 <defs>
  <style type="text/css">*{stroke-linecap:butt;stroke-linejoin:round;}</style>
 </defs>
 <g id="figure_1">
  <g id="patch_1">
   <path d="M 0 297.190125 
L 403.97 297.190125 
L 403.97 0 
L 0 0 
z
" style="fill:#ffffff;"/>
  </g>
  <g id="axes_1">
   <g id="patch_2">
    <path d="M 39.65 273.312 
L 396.77 273.312 
L 396.77 7.2 
L 39.65 7.2 
z
" style="fill:#ffffff;"/>
   </g>
   <g id="matplotlib.axis_1">
    <g id="xtick_1">
     <g id="line2d_1">
      <defs>
       <path d="M 0 0 
L 0 3.5 
" id="m8f33ce1a06" style="stroke:#000000;stroke-width:0.8;"/>
      </defs>
      <g>
       <use style="stroke:#000000;stroke-width:0.8;" x="55.882727" xlink:href="#m8f33ce1a06" y="273.312"/>
      </g>
     </g>
     <g id="text_1">
      <!-- 0.0 -->
      <g transform="translate(47.931165 287.910437)scale(0.1 -0.1)">
       <defs>
        <path d="M 31.78125 66.40625 
Q 24.171875 66.40625 20.328125 58.90625 
Q 16.5 51.421875 16.5 36.375 
Q 16.5 21.390625 20.328125 13.890625 
Q 24.171875 6.390625 31.78125 6.390625 
Q 39.453125 6.390625 43.28125 13.890625 
Q 47.125 21.390625 47.125 36.375 
Q 47.125 51.421875 43.28125 58.90625 
Q 39.453125 66.40625 31.78125 66.40625 
z
M 31.78125 74.21875 
Q 44.046875 74.21875 50.515625 64.515625 
Q 56.984375 54.828125 56.984375 36.375 
Q 56.984375 17.96875 50.515625 8.265625 
Q 44.046875 -1.421875 31.78125 -1.421875 
Q 19.53125 -1.421875 13.0625 8.265625 
Q 6.59375 17.96875 6.59375 36.375 
Q 6.59375 54.828125 13.0625 64.515625 
Q 19.53125 74.21875 31.78125 74.21875 
z
" id="DejaVuSans-48"/>
        <path d="M 10.6875 12.40625 
L 21 12.40625 
L 21 0 
L 10.6875 0 
z
" id="DejaVuSans-46"/>
       </defs>
       <use xlink:href="#DejaVuSans-48"/>
       <use x="63.623047" xlink:href="#DejaVuSans-46"/>
       <use x="95.410156" xlink:href="#DejaVuSans-48"/>
      </g>
     </g>
    </g>
    <g id="xtick_2">
     <g id="line2d_2">
      <g>
       <use style="stroke:#000000;stroke-width:0.8;" x="96.668474" xlink:href="#m8f33ce1a06" y="273.312"/>
      </g>
     </g>
     <g id="text_2">
      <!-- 2.5 -->
      <g transform="translate(88.716912 287.910437)scale(0.1 -0.1)">
       <defs>
        <path d="M 19.1875 8.296875 
L 53.609375 8.296875 
L 53.609375 0 
L 7.328125 0 
L 7.328125 8.296875 
Q 12.9375 14.109375 22.625 23.890625 
Q 32.328125 33.6875 34.8125 36.53125 
Q 39.546875 41.84375 41.421875 45.53125 
Q 43.3125 49.21875 43.3125 52.78125 
Q 43.3125 58.59375 39.234375 62.25 
Q 35.15625 65.921875 28.609375 65.921875 
Q 23.96875 65.921875 18.8125 64.3125 
Q 13.671875 62.703125 7.8125 59.421875 
L 7.8125 69.390625 
Q 13.765625 71.78125 18.9375 73 
Q 24.125 74.21875 28.421875 74.21875 
Q 39.75 74.21875 46.484375 68.546875 
Q 53.21875 62.890625 53.21875 53.421875 
Q 53.21875 48.921875 51.53125 44.890625 
Q 49.859375 40.875 45.40625 35.40625 
Q 44.1875 33.984375 37.640625 27.21875 
Q 31.109375 20.453125 19.1875 8.296875 
z
" id="DejaVuSans-50"/>
        <path d="M 10.796875 72.90625 
L 49.515625 72.90625 
L 49.515625 64.59375 
L 19.828125 64.59375 
L 19.828125 46.734375 
Q 21.96875 47.46875 24.109375 47.828125 
Q 26.265625 48.1875 28.421875 48.1875 
Q 40.625 48.1875 47.75 41.5 
Q 54.890625 34.8125 54.890625 23.390625 
Q 54.890625 11.625 47.5625 5.09375 
Q 40.234375 -1.421875 26.90625 -1.421875 
Q 22.3125 -1.421875 17.546875 -0.640625 
Q 12.796875 0.140625 7.71875 1.703125 
L 7.71875 11.625 
Q 12.109375 9.234375 16.796875 8.0625 
Q 21.484375 6.890625 26.703125 6.890625 
Q 35.15625 6.890625 40.078125 11.328125 
Q 45.015625 15.765625 45.015625 23.390625 
Q 45.015625 31 40.078125 35.4375 
Q 35.15625 39.890625 26.703125 39.890625 
Q 22.75 39.890625 18.8125 39.015625 
Q 14.890625 38.140625 10.796875 36.28125 
z
" id="DejaVuSans-53"/>
       </defs>
       <use xlink:href="#DejaVuSans-50"/>
       <use x="63.623047" xlink:href="#DejaVuSans-46"/>
       <use x="95.410156" xlink:href="#DejaVuSans-53"/>
      </g>
     </g>
    </g>
    <g id="xtick_3">
     <g id="line2d_3">
      <g>
       <use style="stroke:#000000;stroke-width:0.8;" x="137.454221" xlink:href="#m8f33ce1a06" y="273.312"/>
      </g>
     </g>
     <g id="text_3">
      <!-- 5.0 -->
      <g transform="translate(129.502659 287.910437)scale(0.1 -0.1)">
       <use xlink:href="#DejaVuSans-53"/>
       <use x="63.623047" xlink:href="#DejaVuSans-46"/>
       <use x="95.410156" xlink:href="#DejaVuSans-48"/>
      </g>
     </g>
    </g>
    <g id="xtick_4">
     <g id="line2d_4">
      <g>
       <use style="stroke:#000000;stroke-width:0.8;" x="178.239968" xlink:href="#m8f33ce1a06" y="273.312"/>
      </g>
     </g>
     <g id="text_4">
      <!-- 7.5 -->
      <g transform="translate(170.288406 287.910437)scale(0.1 -0.1)">
       <defs>
        <path d="M 8.203125 72.90625 
L 55.078125 72.90625 
L 55.078125 68.703125 
L 28.609375 0 
L 18.3125 0 
L 43.21875 64.59375 
L 8.203125 64.59375 
z
" id="DejaVuSans-55"/>
       </defs>
       <use xlink:href="#DejaVuSans-55"/>
       <use x="63.623047" xlink:href="#DejaVuSans-46"/>
       <use x="95.410156" xlink:href="#DejaVuSans-53"/>
      </g>
     </g>
    </g>
    <g id="xtick_5">
     <g id="line2d_5">
      <g>
       <use style="stroke:#000000;stroke-width:0.8;" x="219.025715" xlink:href="#m8f33ce1a06" y="273.312"/>
      </g>
     </g>
     <g id="text_5">
      <!-- 10.0 -->
      <g transform="translate(207.892902 287.910437)scale(0.1 -0.1)">
       <defs>
        <path d="M 12.40625 8.296875 
L 28.515625 8.296875 
L 28.515625 63.921875 
L 10.984375 60.40625 
L 10.984375 69.390625 
L 28.421875 72.90625 
L 38.28125 72.90625 
L 38.28125 8.296875 
L 54.390625 8.296875 
L 54.390625 0 
L 12.40625 0 
z
" id="DejaVuSans-49"/>
       </defs>
       <use xlink:href="#DejaVuSans-49"/>
       <use x="63.623047" xlink:href="#DejaVuSans-48"/>
       <use x="127.246094" xlink:href="#DejaVuSans-46"/>
       <use x="159.033203" xlink:href="#DejaVuSans-48"/>
      </g>
     </g>
    </g>
    <g id="xtick_6">
     <g id="line2d_6">
      <g>
       <use style="stroke:#000000;stroke-width:0.8;" x="259.811462" xlink:href="#m8f33ce1a06" y="273.312"/>
      </g>
     </g>
     <g id="text_6">
      <!-- 12.5 -->
      <g transform="translate(248.678649 287.910437)scale(0.1 -0.1)">
       <use xlink:href="#DejaVuSans-49"/>
       <use x="63.623047" xlink:href="#DejaVuSans-50"/>
       <use x="127.246094" xlink:href="#DejaVuSans-46"/>
       <use x="159.033203" xlink:href="#DejaVuSans-53"/>
      </g>
     </g>
    </g>
    <g id="xtick_7">
     <g id="line2d_7">
      <g>
       <use style="stroke:#000000;stroke-width:0.8;" x="300.597209" xlink:href="#m8f33ce1a06" y="273.312"/>
      </g>
     </g>
     <g id="text_7">
      <!-- 15.0 -->
      <g transform="translate(289.464396 287.910437)scale(0.1 -0.1)">
       <use xlink:href="#DejaVuSans-49"/>
       <use x="63.623047" xlink:href="#DejaVuSans-53"/>
       <use x="127.246094" xlink:href="#DejaVuSans-46"/>
       <use x="159.033203" xlink:href="#DejaVuSans-48"/>
      </g>
     </g>
    </g>
    <g id="xtick_8">
     <g id="line2d_8">
      <g>
       <use style="stroke:#000000;stroke-width:0.8;" x="341.382956" xlink:href="#m8f33ce1a06" y="273.312"/>
      </g>
     </g>
     <g id="text_8">
      <!-- 17.5 -->
      <g transform="translate(330.250143 287.910437)scale(0.1 -0.1)">
       <use xlink:href="#DejaVuSans-49"/>
       <use x="63.623047" xlink:href="#DejaVuSans-55"/>
       <use x="127.246094" xlink:href="#DejaVuSans-46"/>
       <use x="159.033203" xlink:href="#DejaVuSans-53"/>
      </g>
     </g>
    </g>
    <g id="xtick_9">
     <g id="line2d_9">
      <g>
       <use style="stroke:#000000;stroke-width:0.8;" x="382.168703" xlink:href="#m8f33ce1a06" y="273.312"/>
      </g>
     </g>
     <g id="text_9">
      <!-- 20.0 -->
      <g transform="translate(371.03589 287.910437)scale(0.1 -0.1)">
       <use xlink:href="#DejaVuSans-50"/>
       <use x="63.623047" xlink:href="#DejaVuSans-48"/>
       <use x="127.246094" xlink:href="#DejaVuSans-46"/>
       <use x="159.033203" xlink:href="#DejaVuSans-48"/>
      </g>
     </g>
    </g>
   </g>
   <g id="matplotlib.axis_2">
    <g id="ytick_1">
     <g id="line2d_10">
      <defs>
       <path d="M 0 0 
L -3.5 0 
" id="mf1338e2eb6" style="stroke:#000000;stroke-width:0.8;"/>
      </defs>
      <g>
       <use style="stroke:#000000;stroke-width:0.8;" x="39.65" xlink:href="#mf1338e2eb6" y="261.216"/>
      </g>
     </g>
     <g id="text_10">
      <!-- 0 -->
      <g transform="translate(26.2875 265.015219)scale(0.1 -0.1)">
       <use xlink:href="#DejaVuSans-48"/>
      </g>
     </g>
    </g>
    <g id="ytick_2">
     <g id="line2d_11">
      <g>
       <use style="stroke:#000000;stroke-width:0.8;" x="39.65" xlink:href="#mf1338e2eb6" y="221.673666"/>
      </g>
     </g>
     <g id="text_11">
      <!-- 500 -->
      <g transform="translate(13.5625 225.472885)scale(0.1 -0.1)">
       <use xlink:href="#DejaVuSans-53"/>
       <use x="63.623047" xlink:href="#DejaVuSans-48"/>
       <use x="127.246094" xlink:href="#DejaVuSans-48"/>
      </g>
     </g>
    </g>
    <g id="ytick_3">
     <g id="line2d_12">
      <g>
       <use style="stroke:#000000;stroke-width:0.8;" x="39.65" xlink:href="#mf1338e2eb6" y="182.131332"/>
      </g>
     </g>
     <g id="text_12">
      <!-- 1000 -->
      <g transform="translate(7.2 185.930551)scale(0.1 -0.1)">
       <use xlink:href="#DejaVuSans-49"/>
       <use x="63.623047" xlink:href="#DejaVuSans-48"/>
       <use x="127.246094" xlink:href="#DejaVuSans-48"/>
       <use x="190.869141" xlink:href="#DejaVuSans-48"/>
      </g>
     </g>
    </g>
    <g id="ytick_4">
     <g id="line2d_13">
      <g>
       <use style="stroke:#000000;stroke-width:0.8;" x="39.65" xlink:href="#mf1338e2eb6" y="142.588998"/>
      </g>
     </g>
     <g id="text_13">
      <!-- 1500 -->
      <g transform="translate(7.2 146.388216)scale(0.1 -0.1)">
       <use xlink:href="#DejaVuSans-49"/>
       <use x="63.623047" xlink:href="#DejaVuSans-53"/>
       <use x="127.246094" xlink:href="#DejaVuSans-48"/>
       <use x="190.869141" xlink:href="#DejaVuSans-48"/>
      </g>
     </g>
    </g>
    <g id="ytick_5">
     <g id="line2d_14">
      <g>
       <use style="stroke:#000000;stroke-width:0.8;" x="39.65" xlink:href="#mf1338e2eb6" y="103.046664"/>
      </g>
     </g>
     <g id="text_14">
      <!-- 2000 -->
      <g transform="translate(7.2 106.845882)scale(0.1 -0.1)">
       <use xlink:href="#DejaVuSans-50"/>
       <use x="63.623047" xlink:href="#DejaVuSans-48"/>
       <use x="127.246094" xlink:href="#DejaVuSans-48"/>
       <use x="190.869141" xlink:href="#DejaVuSans-48"/>
      </g>
     </g>
    </g>
    <g id="ytick_6">
     <g id="line2d_15">
      <g>
       <use style="stroke:#000000;stroke-width:0.8;" x="39.65" xlink:href="#mf1338e2eb6" y="63.50433"/>
      </g>
     </g>
     <g id="text_15">
      <!-- 2500 -->
      <g transform="translate(7.2 67.303548)scale(0.1 -0.1)">
       <use xlink:href="#DejaVuSans-50"/>
       <use x="63.623047" xlink:href="#DejaVuSans-53"/>
       <use x="127.246094" xlink:href="#DejaVuSans-48"/>
       <use x="190.869141" xlink:href="#DejaVuSans-48"/>
      </g>
     </g>
    </g>
    <g id="ytick_7">
     <g id="line2d_16">
      <g>
       <use style="stroke:#000000;stroke-width:0.8;" x="39.65" xlink:href="#mf1338e2eb6" y="23.961995"/>
      </g>
     </g>
     <g id="text_16">
      <!-- 3000 -->
      <g transform="translate(7.2 27.761214)scale(0.1 -0.1)">
       <defs>
        <path d="M 40.578125 39.3125 
Q 47.65625 37.796875 51.625 33 
Q 55.609375 28.21875 55.609375 21.1875 
Q 55.609375 10.40625 48.1875 4.484375 
Q 40.765625 -1.421875 27.09375 -1.421875 
Q 22.515625 -1.421875 17.65625 -0.515625 
Q 12.796875 0.390625 7.625 2.203125 
L 7.625 11.71875 
Q 11.71875 9.328125 16.59375 8.109375 
Q 21.484375 6.890625 26.8125 6.890625 
Q 36.078125 6.890625 40.9375 10.546875 
Q 45.796875 14.203125 45.796875 21.1875 
Q 45.796875 27.640625 41.28125 31.265625 
Q 36.765625 34.90625 28.71875 34.90625 
L 20.21875 34.90625 
L 20.21875 43.015625 
L 29.109375 43.015625 
Q 36.375 43.015625 40.234375 45.921875 
Q 44.09375 48.828125 44.09375 54.296875 
Q 44.09375 59.90625 40.109375 62.90625 
Q 36.140625 65.921875 28.71875 65.921875 
Q 24.65625 65.921875 20.015625 65.03125 
Q 15.375 64.15625 9.8125 62.3125 
L 9.8125 71.09375 
Q 15.4375 72.65625 20.34375 73.4375 
Q 25.25 74.21875 29.59375 74.21875 
Q 40.828125 74.21875 47.359375 69.109375 
Q 53.90625 64.015625 53.90625 55.328125 
Q 53.90625 49.265625 50.4375 45.09375 
Q 46.96875 40.921875 40.578125 39.3125 
z
" id="DejaVuSans-51"/>
       </defs>
       <use xlink:href="#DejaVuSans-51"/>
       <use x="63.623047" xlink:href="#DejaVuSans-48"/>
       <use x="127.246094" xlink:href="#DejaVuSans-48"/>
       <use x="190.869141" xlink:href="#DejaVuSans-48"/>
      </g>
     </g>
    </g>
   </g>
   <g id="line2d_17">
    <path clip-path="url(#p74865e3079)" d="M 55.882727 261.216 
L 59.961302 241.444833 
L 64.039877 223.579606 
L 68.118451 207.436588 
L 72.197026 192.849756 
L 76.275601 179.669095 
L 80.354175 167.759049 
L 84.43275 156.997132 
L 88.511325 147.272664 
L 92.589899 138.485635 
L 96.668474 130.545675 
L 100.747049 123.371127 
L 104.825624 116.888206 
L 108.904198 111.030238 
L 112.982773 105.736979 
L 117.061348 100.953989 
L 121.139922 96.63208 
L 125.218497 92.726803 
L 129.297072 89.197994 
L 133.375646 86.009363 
L 137.454221 83.128116 
L 141.532796 80.524621 
L 145.61137 78.172103 
L 149.689945 76.046367 
L 153.76852 74.125553 
L 157.847095 72.389905 
L 161.925669 70.821573 
L 166.004244 69.404429 
L 170.082819 68.123898 
L 174.161393 66.966809 
L 178.239968 65.921264 
L 182.318543 64.97651 
L 186.397117 64.122829 
L 190.475692 63.351444 
L 194.554267 62.65442 
L 198.632841 62.024589 
L 202.711416 61.455474 
L 206.789991 60.941222 
L 210.868566 60.476544 
L 214.94714 60.05666 
L 219.025715 59.677253 
L 223.10429 59.334422 
L 227.182864 59.024639 
L 231.261439 58.744719 
L 235.340014 58.491783 
L 239.418588 58.263231 
L 243.497163 58.056711 
L 247.575738 57.870099 
L 251.654312 57.701477 
L 255.732887 57.54911 
L 259.811462 57.411431 
L 263.890037 57.287024 
L 267.968611 57.174611 
L 272.047186 57.073034 
L 276.125761 56.981248 
L 280.204335 56.898311 
L 284.28291 56.82337 
L 288.361485 56.755652 
L 292.440059 56.694463 
L 296.518634 56.639172 
L 300.597209 56.589211 
L 304.675783 56.544066 
L 308.754358 56.503274 
L 312.832933 56.466413 
L 316.911508 56.433107 
L 320.990082 56.40301 
L 325.068657 56.375816 
L 329.147232 56.351242 
L 333.225806 56.329038 
L 337.304381 56.308974 
L 341.382956 56.290844 
L 345.46153 56.274462 
L 349.540105 56.259659 
L 353.61868 56.246284 
L 357.697254 56.234197 
L 361.775829 56.223276 
L 365.854404 56.213408 
L 369.932979 56.20449 
L 374.011553 56.196433 
L 378.090128 56.189152 
" style="fill:none;stroke:#1f77b4;stroke-linecap:square;stroke-width:1.5;"/>
   </g>
   <g id="line2d_18">
    <path clip-path="url(#p74865e3079)" d="M 55.882727 261.216 
L 59.961302 261.216 
L 64.039877 259.310059 
L 68.118451 256.139718 
L 72.197026 252.174706 
L 76.275601 247.755919 
L 80.354175 243.127909 
L 84.43275 238.463418 
L 88.511325 233.881889 
L 92.589899 229.463405 
L 96.668474 225.259171 
L 100.747049 221.299382 
L 104.825624 217.599108 
L 108.904198 214.162686 
L 112.982773 210.986985 
L 117.061348 208.063817 
L 121.139922 205.381713 
L 125.218497 202.927219 
L 129.297072 200.685826 
L 133.375646 198.642638 
L 137.454221 196.78284 
L 141.532796 195.092013 
L 145.61137 193.556345 
L 149.689945 192.162763 
L 153.76852 190.898998 
L 157.847095 189.753623 
L 161.925669 188.71605 
L 166.004244 187.776515 
L 170.082819 186.926044 
L 174.161393 186.156413 
L 178.239968 185.460104 
L 182.318543 184.830257 
L 186.397117 184.260626 
L 190.475692 183.745525 
L 194.554267 183.27979 
L 198.632841 182.858731 
L 202.711416 182.478095 
L 206.789991 182.134025 
L 210.868566 181.823027 
L 214.94714 181.541936 
L 219.025715 181.287885 
L 223.10429 181.058283 
L 227.182864 180.850783 
L 231.261439 180.663261 
L 235.340014 180.493797 
L 239.418588 180.340656 
L 243.497163 180.202267 
L 247.575738 180.07721 
L 251.654312 179.964202 
L 255.732887 179.862084 
L 259.811462 179.769807 
L 263.890037 179.686422 
L 267.968611 179.611073 
L 272.047186 179.542987 
L 276.125761 179.481463 
L 280.204335 179.425868 
L 284.28291 179.375633 
L 288.361485 179.330239 
L 292.440059 179.289222 
L 296.518634 179.252158 
L 300.597209 179.218666 
L 304.675783 179.188403 
L 308.754358 179.161058 
L 312.832933 179.136348 
L 316.911508 179.11402 
L 320.990082 179.093845 
L 325.068657 179.075614 
L 329.147232 179.059141 
L 333.225806 179.044256 
L 337.304381 179.030806 
L 341.382956 179.018652 
L 345.46153 179.00767 
L 349.540105 178.997747 
L 353.61868 178.98878 
L 357.697254 178.980678 
L 361.775829 178.973356 
L 365.854404 178.966741 
L 369.932979 178.960763 
L 374.011553 178.955361 
L 378.090128 178.95048 
" style="fill:none;stroke:#ff7f0e;stroke-linecap:square;stroke-width:1.5;"/>
   </g>
   <g id="line2d_19">
    <path clip-path="url(#p74865e3079)" d="M 55.882727 261.216 
L 62.408447 232.903689 
L 64.039877 226.497831 
L 65.671307 219.222041 
L 67.302736 212.974352 
L 68.934166 208.782865 
L 72.197026 196.445657 
L 73.828456 190.751561 
L 75.459886 183.554856 
L 77.091316 177.623506 
L 80.354175 167.421584 
L 81.985605 161.727487 
L 83.617035 155.084375 
L 85.248465 150.102041 
L 86.879895 146.305977 
L 91.774185 133.177922 
L 93.405614 128.116503 
L 95.037044 123.845931 
L 96.668474 121.631561 
L 98.299904 118.389089 
L 99.931334 116.332888 
L 101.562764 111.034215 
L 103.194194 107.633574 
L 104.825624 104.865611 
L 108.088483 100.120531 
L 109.719913 97.036229 
L 111.351343 94.821858 
L 112.982773 92.132979 
L 114.614203 90.234947 
L 116.245633 88.653254 
L 117.877063 86.280714 
L 119.508492 80.744787 
L 121.139922 79.004924 
L 122.771352 77.5814 
L 124.402782 75.36703 
L 126.034212 73.785336 
L 127.665642 71.570966 
L 129.297072 69.910188 
L 130.928502 67.06314 
L 132.559931 66.272293 
L 135.822791 63.978838 
L 137.454221 60.420027 
L 139.085651 58.917419 
L 140.717081 57.177556 
L 142.348511 54.172339 
L 143.979941 53.460577 
L 145.61137 50.929867 
L 147.2428 50.139021 
L 148.87423 50.059936 
L 150.50566 47.371057 
L 152.13709 47.054719 
L 153.76852 45.947533 
L 155.39995 45.235771 
L 158.66281 42.942316 
L 160.294239 42.309638 
L 161.925669 41.360622 
L 163.557099 39.304421 
L 165.188529 40.095268 
L 166.819959 37.485474 
L 168.451389 37.564558 
L 170.082819 35.982865 
L 171.714249 37.169135 
L 173.345678 34.71751 
L 174.977108 34.243002 
L 176.608538 32.661309 
L 178.239968 32.265886 
L 179.871398 34.401172 
L 181.502828 34.322087 
L 183.134258 34.796595 
L 184.765688 35.033849 
L 188.028547 32.265886 
L 189.659977 29.656092 
L 191.291407 28.390737 
L 192.922837 27.283551 
L 194.554267 27.678975 
L 196.185697 27.283551 
L 197.817127 26.176366 
L 199.448556 24.752842 
L 201.079986 26.176366 
L 202.711416 26.809043 
L 204.342846 28.311652 
L 205.974276 30.1306 
L 207.605706 28.232568 
L 209.237136 30.684192 
L 210.868566 29.814261 
L 212.499995 29.497922 
L 214.131425 27.758059 
L 217.394285 26.650874 
L 219.025715 28.074398 
L 220.657145 28.627991 
L 222.288575 28.627991 
L 223.920005 30.842362 
L 225.551434 30.367854 
L 228.814294 29.814261 
L 230.445724 29.814261 
L 232.077154 29.497922 
L 233.708584 28.707076 
L 235.340014 30.367854 
L 236.971444 29.577007 
L 238.602873 29.418838 
L 240.234303 29.656092 
L 241.865733 28.311652 
L 243.497163 26.809043 
L 245.128593 26.176366 
L 246.760023 26.809043 
L 248.391453 26.018197 
L 250.022883 26.571789 
L 251.654312 26.571789 
L 253.285742 26.888128 
L 254.917172 28.627991 
L 256.548602 30.1306 
L 258.180032 31.791378 
L 259.811462 34.084833 
L 261.442892 32.582224 
L 263.074322 31.633208 
L 264.705751 30.209684 
L 266.337181 27.837144 
L 267.968611 27.204467 
L 269.600041 25.464604 
L 271.231471 25.860027 
L 272.862901 27.520805 
L 274.494331 26.334535 
L 276.125761 26.176366 
L 277.75719 26.809043 
L 279.38862 25.22735 
L 281.02005 23.092064 
L 282.65148 23.724741 
L 285.91434 23.566572 
L 287.54577 22.696641 
L 289.1772 23.566572 
L 290.80863 24.990096 
L 292.440059 24.831927 
L 294.071489 23.566572 
L 295.702919 25.069181 
L 297.334349 24.357419 
L 298.965779 25.385519 
L 300.597209 24.990096 
L 302.228639 25.306435 
L 303.860069 24.436503 
L 305.491498 24.120165 
L 307.122928 23.487487 
L 308.754358 24.199249 
L 310.385788 24.594673 
L 312.017218 25.385519 
L 313.648648 25.543689 
L 316.911508 23.724741 
L 318.542937 23.408403 
L 320.174367 23.882911 
L 321.805797 22.933895 
L 323.437227 23.487487 
L 325.068657 23.092064 
L 326.700087 20.640439 
L 328.331517 21.114947 
L 329.962947 19.533254 
L 331.594376 19.296 
L 333.225806 20.245016 
L 334.857236 21.431286 
L 336.488666 21.66854 
L 338.120096 23.724741 
L 339.751526 24.278334 
L 341.382956 23.250233 
L 343.014386 22.85481 
L 344.645815 21.510371 
L 349.540105 19.454169 
L 351.171535 21.194032 
L 352.802965 23.329318 
L 354.434395 24.990096 
L 356.065825 26.41362 
L 357.697254 28.311652 
L 359.328684 26.729959 
L 360.960114 27.837144 
L 362.591544 27.59989 
L 365.854404 25.306435 
L 369.117264 29.260668 
L 370.748693 27.125382 
L 372.380123 27.283551 
L 374.011553 28.311652 
L 375.642983 28.627991 
L 377.274413 29.814261 
L 378.905843 31.237785 
L 380.537273 38.118151 
L 380.537273 38.118151 
" style="fill:none;stroke:#2ca02c;stroke-linecap:square;stroke-width:1.5;"/>
   </g>
   <g id="line2d_20">
    <path clip-path="url(#p74865e3079)" d="M 55.882727 261.216 
L 57.514157 261.136915 
L 60.777017 260.583323 
L 62.408447 259.871561 
L 64.039877 259.001629 
L 67.302736 256.708174 
L 68.934166 255.126481 
L 70.565596 253.782041 
L 72.197026 252.991195 
L 73.828456 251.014078 
L 75.459886 249.274215 
L 77.091316 248.00886 
L 78.722746 246.585336 
L 80.354175 244.687304 
L 81.985605 243.580119 
L 83.617035 242.631103 
L 85.248465 240.100394 
L 86.879895 238.202362 
L 88.511325 236.067076 
L 90.142755 234.485382 
L 91.774185 232.429181 
L 95.037044 227.763185 
L 96.668474 225.232476 
L 98.299904 222.306343 
L 99.931334 219.854719 
L 101.562764 218.984787 
L 103.194194 217.403094 
L 104.825624 216.454078 
L 106.457053 214.476961 
L 108.088483 211.788082 
L 109.719913 210.206389 
L 111.351343 207.043002 
L 112.982773 205.540394 
L 116.245633 201.981584 
L 117.877063 199.688128 
L 119.508492 199.846297 
L 122.771352 194.784879 
L 124.402782 193.994032 
L 126.034212 191.305153 
L 127.665642 189.407121 
L 129.297072 188.695359 
L 130.928502 187.034581 
L 132.559931 184.503872 
L 134.191361 182.526755 
L 137.454221 181.340485 
L 139.085651 179.679707 
L 140.717081 179.363368 
L 142.348511 177.939844 
L 143.979941 176.67449 
L 145.61137 176.67449 
L 148.87423 173.985611 
L 150.50566 173.669272 
L 152.13709 172.008494 
L 153.76852 170.74314 
L 155.39995 169.319616 
L 157.03138 169.55687 
L 158.66281 169.082362 
L 160.294239 167.896092 
L 161.925669 165.918975 
L 163.557099 164.65362 
L 165.188529 163.625519 
L 166.819959 163.941858 
L 168.451389 163.309181 
L 170.082819 161.252979 
L 171.714249 159.434032 
L 173.345678 159.90854 
L 174.977108 159.987625 
L 176.608538 160.778471 
L 178.239968 161.252979 
L 179.871398 158.643185 
L 181.502828 157.219661 
L 183.134258 157.298746 
L 184.765688 156.824238 
L 186.397117 156.033391 
L 188.028547 155.005291 
L 189.659977 155.717053 
L 191.291407 154.768037 
L 194.554267 152.000073 
L 196.185697 151.920989 
L 197.817127 150.971973 
L 199.448556 152.079158 
L 202.711416 149.311195 
L 204.342846 147.096824 
L 205.974276 145.198792 
L 207.605706 145.277876 
L 209.237136 143.30076 
L 210.868566 145.752384 
L 212.499995 146.226892 
L 214.131425 146.938654 
L 217.394285 147.808586 
L 219.025715 149.311195 
L 220.657145 147.88767 
L 222.288575 147.017739 
L 223.920005 146.7014 
L 225.551434 145.594215 
L 227.182864 145.752384 
L 228.814294 145.119707 
L 230.445724 145.594215 
L 232.077154 145.198792 
L 233.708584 145.356961 
L 235.340014 144.170691 
L 236.971444 144.803368 
L 238.602873 145.277876 
L 240.234303 144.961538 
L 243.497163 144.803368 
L 245.128593 144.407945 
L 246.760023 142.747167 
L 248.391453 143.30076 
L 250.022883 142.035405 
L 251.654312 141.719066 
L 253.285742 142.905336 
L 254.917172 142.351744 
L 256.548602 142.430828 
L 258.180032 141.560897 
L 259.811462 140.216458 
L 261.442892 141.165474 
L 263.074322 142.984421 
L 264.705751 143.14259 
L 266.337181 144.48703 
L 267.968611 144.32886 
L 269.600041 145.436046 
L 271.231471 144.724284 
L 272.862901 142.905336 
L 274.494331 142.668082 
L 276.125761 143.30076 
L 277.75719 141.639982 
L 279.38862 142.430828 
L 281.02005 143.775268 
L 282.65148 144.012522 
L 284.28291 142.668082 
L 285.91434 143.30076 
L 287.54577 143.617098 
L 289.1772 142.193574 
L 290.80863 141.481812 
L 292.440059 141.481812 
L 294.071489 142.984421 
L 295.702919 143.458929 
L 297.334349 144.48703 
L 298.965779 142.11449 
L 300.597209 142.193574 
L 303.860069 141.244558 
L 305.491498 141.798151 
L 307.122928 140.453712 
L 308.754358 140.058288 
L 310.385788 140.77005 
L 312.017218 140.92822 
L 313.648648 142.11449 
L 315.280078 142.826252 
L 316.911508 142.588998 
L 318.542937 142.747167 
L 320.174367 143.379844 
L 321.805797 143.696183 
L 323.437227 144.48703 
L 325.068657 145.51513 
L 326.700087 145.51513 
L 328.331517 144.803368 
L 331.594376 144.882453 
L 333.225806 143.063506 
L 334.857236 142.11449 
L 336.488666 141.798151 
L 338.120096 140.611881 
L 339.751526 140.374627 
L 341.382956 141.007304 
L 343.014386 140.532796 
L 346.277245 140.611881 
L 349.540105 141.639982 
L 351.171535 141.481812 
L 352.802965 140.92822 
L 354.434395 139.900119 
L 356.065825 139.821034 
L 357.697254 139.979204 
L 359.328684 141.719066 
L 360.960114 141.086389 
L 362.591544 141.323643 
L 364.222974 142.035405 
L 365.854404 141.086389 
L 367.485834 141.798151 
L 369.117264 140.849135 
L 370.748693 142.035405 
L 372.380123 142.11449 
L 374.011553 141.165474 
L 375.642983 142.747167 
L 378.905843 142.984421 
L 380.537273 142.588998 
L 380.537273 142.588998 
" style="fill:none;stroke:#d62728;stroke-linecap:square;stroke-width:1.5;"/>
   </g>
   <g id="patch_3">
    <path d="M 39.65 273.312 
L 39.65 7.2 
" style="fill:none;stroke:#000000;stroke-linecap:square;stroke-linejoin:miter;stroke-width:0.8;"/>
   </g>
   <g id="patch_4">
    <path d="M 396.77 273.312 
L 396.77 7.2 
" style="fill:none;stroke:#000000;stroke-linecap:square;stroke-linejoin:miter;stroke-width:0.8;"/>
   </g>
   <g id="patch_5">
    <path d="M 39.65 273.312 
L 396.77 273.312 
" style="fill:none;stroke:#000000;stroke-linecap:square;stroke-linejoin:miter;stroke-width:0.8;"/>
   </g>
   <g id="patch_6">
    <path d="M 39.65 7.2 
L 396.77 7.2 
" style="fill:none;stroke:#000000;stroke-linecap:square;stroke-linejoin:miter;stroke-width:0.8;"/>
   </g>
  </g>
 </g>
 <defs>
  <clipPath id="p74865e3079">
   <rect height="266.112" width="357.12" x="39.65" y="7.2"/>
  </clipPath>
 </defs>
</svg>
