<?xml version="1.0" encoding="utf-8" standalone="no"?>
<!DOCTYPE svg PUBLIC "-//W3C//DTD SVG 1.1//EN"
  "http://www.w3.org/Graphics/SVG/1.1/DTD/svg11.dtd">
<!-- Created with matplotlib (https://matplotlib.org/) -->
<svg height="297.190125pt" version="1.1" viewBox="0 0 403.97 297.190125" width="403.97pt" xmlns="http://www.w3.org/2000/svg" xmlns:xlink="http://www.w3.org/1999/xlink">
 <metadata>
  <rdf:RDF xmlns:cc="http://creativecommons.org/ns#" xmlns:dc="http://purl.org/dc/elements/1.1/" xmlns:rdf="http://www.w3.org/1999/02/22-rdf-syntax-ns#">
   <cc:Work>
    <dc:type rdf:resource="http://purl.org/dc/dcmitype/StillImage"/>
    <dc:date>2021-03-09T10:55:22.587688</dc:date>
    <dc:format>image/svg+xml</dc:format>
    <dc:creator>
     <cc:Agent>
      <dc:title>Matplotlib v3.3.4, https://matplotlib.org/</dc:title>
     </cc:Agent>
    </dc:creator>
   </cc:Work>
  </rdf:RDF>
 </metadata>
 <defs>
  <style type="text/css">*{stroke-linecap:butt;stroke-linejoin:round;}</style>
 </defs>
 <g id="figure_1">
  <g id="patch_1">
   <path d="M 0 297.190125 
L 403.97 297.190125 
L 403.97 0 
L 0 0 
z
" style="fill:#ffffff;"/>
  </g>
  <g id="axes_1">
   <g id="patch_2">
    <path d="M 39.65 273.312 
L 396.77 273.312 
L 396.77 7.2 
L 39.65 7.2 
z
" style="fill:#ffffff;"/>
   </g>
   <g id="matplotlib.axis_1">
    <g id="xtick_1">
     <g id="line2d_1">
      <defs>
       <path d="M 0 0 
L 0 3.5 
" id="m69b46c9d93" style="stroke:#000000;stroke-width:0.8;"/>
      </defs>
      <g>
       <use style="stroke:#000000;stroke-width:0.8;" x="55.882727" xlink:href="#m69b46c9d93" y="273.312"/>
      </g>
     </g>
     <g id="text_1">
      <!-- 0.0 -->
      <g transform="translate(47.931165 287.910437)scale(0.1 -0.1)">
       <defs>
        <path d="M 31.78125 66.40625 
Q 24.171875 66.40625 20.328125 58.90625 
Q 16.5 51.421875 16.5 36.375 
Q 16.5 21.390625 20.328125 13.890625 
Q 24.171875 6.390625 31.78125 6.390625 
Q 39.453125 6.390625 43.28125 13.890625 
Q 47.125 21.390625 47.125 36.375 
Q 47.125 51.421875 43.28125 58.90625 
Q 39.453125 66.40625 31.78125 66.40625 
z
M 31.78125 74.21875 
Q 44.046875 74.21875 50.515625 64.515625 
Q 56.984375 54.828125 56.984375 36.375 
Q 56.984375 17.96875 50.515625 8.265625 
Q 44.046875 -1.421875 31.78125 -1.421875 
Q 19.53125 -1.421875 13.0625 8.265625 
Q 6.59375 17.96875 6.59375 36.375 
Q 6.59375 54.828125 13.0625 64.515625 
Q 19.53125 74.21875 31.78125 74.21875 
z
" id="DejaVuSans-48"/>
        <path d="M 10.6875 12.40625 
L 21 12.40625 
L 21 0 
L 10.6875 0 
z
" id="DejaVuSans-46"/>
       </defs>
       <use xlink:href="#DejaVuSans-48"/>
       <use x="63.623047" xlink:href="#DejaVuSans-46"/>
       <use x="95.410156" xlink:href="#DejaVuSans-48"/>
      </g>
     </g>
    </g>
    <g id="xtick_2">
     <g id="line2d_2">
      <g>
       <use style="stroke:#000000;stroke-width:0.8;" x="96.668474" xlink:href="#m69b46c9d93" y="273.312"/>
      </g>
     </g>
     <g id="text_2">
      <!-- 2.5 -->
      <g transform="translate(88.716912 287.910437)scale(0.1 -0.1)">
       <defs>
        <path d="M 19.1875 8.296875 
L 53.609375 8.296875 
L 53.609375 0 
L 7.328125 0 
L 7.328125 8.296875 
Q 12.9375 14.109375 22.625 23.890625 
Q 32.328125 33.6875 34.8125 36.53125 
Q 39.546875 41.84375 41.421875 45.53125 
Q 43.3125 49.21875 43.3125 52.78125 
Q 43.3125 58.59375 39.234375 62.25 
Q 35.15625 65.921875 28.609375 65.921875 
Q 23.96875 65.921875 18.8125 64.3125 
Q 13.671875 62.703125 7.8125 59.421875 
L 7.8125 69.390625 
Q 13.765625 71.78125 18.9375 73 
Q 24.125 74.21875 28.421875 74.21875 
Q 39.75 74.21875 46.484375 68.546875 
Q 53.21875 62.890625 53.21875 53.421875 
Q 53.21875 48.921875 51.53125 44.890625 
Q 49.859375 40.875 45.40625 35.40625 
Q 44.1875 33.984375 37.640625 27.21875 
Q 31.109375 20.453125 19.1875 8.296875 
z
" id="DejaVuSans-50"/>
        <path d="M 10.796875 72.90625 
L 49.515625 72.90625 
L 49.515625 64.59375 
L 19.828125 64.59375 
L 19.828125 46.734375 
Q 21.96875 47.46875 24.109375 47.828125 
Q 26.265625 48.1875 28.421875 48.1875 
Q 40.625 48.1875 47.75 41.5 
Q 54.890625 34.8125 54.890625 23.390625 
Q 54.890625 11.625 47.5625 5.09375 
Q 40.234375 -1.421875 26.90625 -1.421875 
Q 22.3125 -1.421875 17.546875 -0.640625 
Q 12.796875 0.140625 7.71875 1.703125 
L 7.71875 11.625 
Q 12.109375 9.234375 16.796875 8.0625 
Q 21.484375 6.890625 26.703125 6.890625 
Q 35.15625 6.890625 40.078125 11.328125 
Q 45.015625 15.765625 45.015625 23.390625 
Q 45.015625 31 40.078125 35.4375 
Q 35.15625 39.890625 26.703125 39.890625 
Q 22.75 39.890625 18.8125 39.015625 
Q 14.890625 38.140625 10.796875 36.28125 
z
" id="DejaVuSans-53"/>
       </defs>
       <use xlink:href="#DejaVuSans-50"/>
       <use x="63.623047" xlink:href="#DejaVuSans-46"/>
       <use x="95.410156" xlink:href="#DejaVuSans-53"/>
      </g>
     </g>
    </g>
    <g id="xtick_3">
     <g id="line2d_3">
      <g>
       <use style="stroke:#000000;stroke-width:0.8;" x="137.454221" xlink:href="#m69b46c9d93" y="273.312"/>
      </g>
     </g>
     <g id="text_3">
      <!-- 5.0 -->
      <g transform="translate(129.502659 287.910437)scale(0.1 -0.1)">
       <use xlink:href="#DejaVuSans-53"/>
       <use x="63.623047" xlink:href="#DejaVuSans-46"/>
       <use x="95.410156" xlink:href="#DejaVuSans-48"/>
      </g>
     </g>
    </g>
    <g id="xtick_4">
     <g id="line2d_4">
      <g>
       <use style="stroke:#000000;stroke-width:0.8;" x="178.239968" xlink:href="#m69b46c9d93" y="273.312"/>
      </g>
     </g>
     <g id="text_4">
      <!-- 7.5 -->
      <g transform="translate(170.288406 287.910437)scale(0.1 -0.1)">
       <defs>
        <path d="M 8.203125 72.90625 
L 55.078125 72.90625 
L 55.078125 68.703125 
L 28.609375 0 
L 18.3125 0 
L 43.21875 64.59375 
L 8.203125 64.59375 
z
" id="DejaVuSans-55"/>
       </defs>
       <use xlink:href="#DejaVuSans-55"/>
       <use x="63.623047" xlink:href="#DejaVuSans-46"/>
       <use x="95.410156" xlink:href="#DejaVuSans-53"/>
      </g>
     </g>
    </g>
    <g id="xtick_5">
     <g id="line2d_5">
      <g>
       <use style="stroke:#000000;stroke-width:0.8;" x="219.025715" xlink:href="#m69b46c9d93" y="273.312"/>
      </g>
     </g>
     <g id="text_5">
      <!-- 10.0 -->
      <g transform="translate(207.892902 287.910437)scale(0.1 -0.1)">
       <defs>
        <path d="M 12.40625 8.296875 
L 28.515625 8.296875 
L 28.515625 63.921875 
L 10.984375 60.40625 
L 10.984375 69.390625 
L 28.421875 72.90625 
L 38.28125 72.90625 
L 38.28125 8.296875 
L 54.390625 8.296875 
L 54.390625 0 
L 12.40625 0 
z
" id="DejaVuSans-49"/>
       </defs>
       <use xlink:href="#DejaVuSans-49"/>
       <use x="63.623047" xlink:href="#DejaVuSans-48"/>
       <use x="127.246094" xlink:href="#DejaVuSans-46"/>
       <use x="159.033203" xlink:href="#DejaVuSans-48"/>
      </g>
     </g>
    </g>
    <g id="xtick_6">
     <g id="line2d_6">
      <g>
       <use style="stroke:#000000;stroke-width:0.8;" x="259.811462" xlink:href="#m69b46c9d93" y="273.312"/>
      </g>
     </g>
     <g id="text_6">
      <!-- 12.5 -->
      <g transform="translate(248.678649 287.910437)scale(0.1 -0.1)">
       <use xlink:href="#DejaVuSans-49"/>
       <use x="63.623047" xlink:href="#DejaVuSans-50"/>
       <use x="127.246094" xlink:href="#DejaVuSans-46"/>
       <use x="159.033203" xlink:href="#DejaVuSans-53"/>
      </g>
     </g>
    </g>
    <g id="xtick_7">
     <g id="line2d_7">
      <g>
       <use style="stroke:#000000;stroke-width:0.8;" x="300.597209" xlink:href="#m69b46c9d93" y="273.312"/>
      </g>
     </g>
     <g id="text_7">
      <!-- 15.0 -->
      <g transform="translate(289.464396 287.910437)scale(0.1 -0.1)">
       <use xlink:href="#DejaVuSans-49"/>
       <use x="63.623047" xlink:href="#DejaVuSans-53"/>
       <use x="127.246094" xlink:href="#DejaVuSans-46"/>
       <use x="159.033203" xlink:href="#DejaVuSans-48"/>
      </g>
     </g>
    </g>
    <g id="xtick_8">
     <g id="line2d_8">
      <g>
       <use style="stroke:#000000;stroke-width:0.8;" x="341.382956" xlink:href="#m69b46c9d93" y="273.312"/>
      </g>
     </g>
     <g id="text_8">
      <!-- 17.5 -->
      <g transform="translate(330.250143 287.910437)scale(0.1 -0.1)">
       <use xlink:href="#DejaVuSans-49"/>
       <use x="63.623047" xlink:href="#DejaVuSans-55"/>
       <use x="127.246094" xlink:href="#DejaVuSans-46"/>
       <use x="159.033203" xlink:href="#DejaVuSans-53"/>
      </g>
     </g>
    </g>
    <g id="xtick_9">
     <g id="line2d_9">
      <g>
       <use style="stroke:#000000;stroke-width:0.8;" x="382.168703" xlink:href="#m69b46c9d93" y="273.312"/>
      </g>
     </g>
     <g id="text_9">
      <!-- 20.0 -->
      <g transform="translate(371.03589 287.910437)scale(0.1 -0.1)">
       <use xlink:href="#DejaVuSans-50"/>
       <use x="63.623047" xlink:href="#DejaVuSans-48"/>
       <use x="127.246094" xlink:href="#DejaVuSans-46"/>
       <use x="159.033203" xlink:href="#DejaVuSans-48"/>
      </g>
     </g>
    </g>
   </g>
   <g id="matplotlib.axis_2">
    <g id="ytick_1">
     <g id="line2d_10">
      <defs>
       <path d="M 0 0 
L -3.5 0 
" id="mfe6495d896" style="stroke:#000000;stroke-width:0.8;"/>
      </defs>
      <g>
       <use style="stroke:#000000;stroke-width:0.8;" x="39.65" xlink:href="#mfe6495d896" y="261.216"/>
      </g>
     </g>
     <g id="text_10">
      <!-- 0 -->
      <g transform="translate(26.2875 265.015219)scale(0.1 -0.1)">
       <use xlink:href="#DejaVuSans-48"/>
      </g>
     </g>
    </g>
    <g id="ytick_2">
     <g id="line2d_11">
      <g>
       <use style="stroke:#000000;stroke-width:0.8;" x="39.65" xlink:href="#mfe6495d896" y="226.862876"/>
      </g>
     </g>
     <g id="text_11">
      <!-- 500 -->
      <g transform="translate(13.5625 230.662095)scale(0.1 -0.1)">
       <use xlink:href="#DejaVuSans-53"/>
       <use x="63.623047" xlink:href="#DejaVuSans-48"/>
       <use x="127.246094" xlink:href="#DejaVuSans-48"/>
      </g>
     </g>
    </g>
    <g id="ytick_3">
     <g id="line2d_12">
      <g>
       <use style="stroke:#000000;stroke-width:0.8;" x="39.65" xlink:href="#mfe6495d896" y="192.509752"/>
      </g>
     </g>
     <g id="text_12">
      <!-- 1000 -->
      <g transform="translate(7.2 196.308971)scale(0.1 -0.1)">
       <use xlink:href="#DejaVuSans-49"/>
       <use x="63.623047" xlink:href="#DejaVuSans-48"/>
       <use x="127.246094" xlink:href="#DejaVuSans-48"/>
       <use x="190.869141" xlink:href="#DejaVuSans-48"/>
      </g>
     </g>
    </g>
    <g id="ytick_4">
     <g id="line2d_13">
      <g>
       <use style="stroke:#000000;stroke-width:0.8;" x="39.65" xlink:href="#mfe6495d896" y="158.156628"/>
      </g>
     </g>
     <g id="text_13">
      <!-- 1500 -->
      <g transform="translate(7.2 161.955847)scale(0.1 -0.1)">
       <use xlink:href="#DejaVuSans-49"/>
       <use x="63.623047" xlink:href="#DejaVuSans-53"/>
       <use x="127.246094" xlink:href="#DejaVuSans-48"/>
       <use x="190.869141" xlink:href="#DejaVuSans-48"/>
      </g>
     </g>
    </g>
    <g id="ytick_5">
     <g id="line2d_14">
      <g>
       <use style="stroke:#000000;stroke-width:0.8;" x="39.65" xlink:href="#mfe6495d896" y="123.803504"/>
      </g>
     </g>
     <g id="text_14">
      <!-- 2000 -->
      <g transform="translate(7.2 127.602722)scale(0.1 -0.1)">
       <use xlink:href="#DejaVuSans-50"/>
       <use x="63.623047" xlink:href="#DejaVuSans-48"/>
       <use x="127.246094" xlink:href="#DejaVuSans-48"/>
       <use x="190.869141" xlink:href="#DejaVuSans-48"/>
      </g>
     </g>
    </g>
    <g id="ytick_6">
     <g id="line2d_15">
      <g>
       <use style="stroke:#000000;stroke-width:0.8;" x="39.65" xlink:href="#mfe6495d896" y="89.45038"/>
      </g>
     </g>
     <g id="text_15">
      <!-- 2500 -->
      <g transform="translate(7.2 93.249598)scale(0.1 -0.1)">
       <use xlink:href="#DejaVuSans-50"/>
       <use x="63.623047" xlink:href="#DejaVuSans-53"/>
       <use x="127.246094" xlink:href="#DejaVuSans-48"/>
       <use x="190.869141" xlink:href="#DejaVuSans-48"/>
      </g>
     </g>
    </g>
    <g id="ytick_7">
     <g id="line2d_16">
      <g>
       <use style="stroke:#000000;stroke-width:0.8;" x="39.65" xlink:href="#mfe6495d896" y="55.097256"/>
      </g>
     </g>
     <g id="text_16">
      <!-- 3000 -->
      <g transform="translate(7.2 58.896474)scale(0.1 -0.1)">
       <defs>
        <path d="M 40.578125 39.3125 
Q 47.65625 37.796875 51.625 33 
Q 55.609375 28.21875 55.609375 21.1875 
Q 55.609375 10.40625 48.1875 4.484375 
Q 40.765625 -1.421875 27.09375 -1.421875 
Q 22.515625 -1.421875 17.65625 -0.515625 
Q 12.796875 0.390625 7.625 2.203125 
L 7.625 11.71875 
Q 11.71875 9.328125 16.59375 8.109375 
Q 21.484375 6.890625 26.8125 6.890625 
Q 36.078125 6.890625 40.9375 10.546875 
Q 45.796875 14.203125 45.796875 21.1875 
Q 45.796875 27.640625 41.28125 31.265625 
Q 36.765625 34.90625 28.71875 34.90625 
L 20.21875 34.90625 
L 20.21875 43.015625 
L 29.109375 43.015625 
Q 36.375 43.015625 40.234375 45.921875 
Q 44.09375 48.828125 44.09375 54.296875 
Q 44.09375 59.90625 40.109375 62.90625 
Q 36.140625 65.921875 28.71875 65.921875 
Q 24.65625 65.921875 20.015625 65.03125 
Q 15.375 64.15625 9.8125 62.3125 
L 9.8125 71.09375 
Q 15.4375 72.65625 20.34375 73.4375 
Q 25.25 74.21875 29.59375 74.21875 
Q 40.828125 74.21875 47.359375 69.109375 
Q 53.90625 64.015625 53.90625 55.328125 
Q 53.90625 49.265625 50.4375 45.09375 
Q 46.96875 40.921875 40.578125 39.3125 
z
" id="DejaVuSans-51"/>
       </defs>
       <use xlink:href="#DejaVuSans-51"/>
       <use x="63.623047" xlink:href="#DejaVuSans-48"/>
       <use x="127.246094" xlink:href="#DejaVuSans-48"/>
       <use x="190.869141" xlink:href="#DejaVuSans-48"/>
      </g>
     </g>
    </g>
    <g id="ytick_8">
     <g id="line2d_17">
      <g>
       <use style="stroke:#000000;stroke-width:0.8;" x="39.65" xlink:href="#mfe6495d896" y="20.744132"/>
      </g>
     </g>
     <g id="text_17">
      <!-- 3500 -->
      <g transform="translate(7.2 24.54335)scale(0.1 -0.1)">
       <use xlink:href="#DejaVuSans-51"/>
       <use x="63.623047" xlink:href="#DejaVuSans-53"/>
       <use x="127.246094" xlink:href="#DejaVuSans-48"/>
       <use x="190.869141" xlink:href="#DejaVuSans-48"/>
      </g>
     </g>
    </g>
   </g>
   <g id="line2d_18">
    <path clip-path="url(#p5d79f92bbb)" d="M 55.882727 261.216 
L 72.197026 192.509752 
L 88.511325 143.281725 
L 104.825624 108.009844 
L 121.139922 82.737541 
L 137.454221 64.629936 
L 153.76852 51.655837 
L 170.082819 42.359895 
L 186.397117 35.699353 
L 202.711416 30.927074 
L 219.025715 27.507736 
L 235.340014 25.057781 
L 251.654312 23.302388 
L 267.968611 22.044649 
L 284.28291 21.143479 
L 300.597209 20.49779 
L 316.911508 20.035155 
L 333.225806 19.703676 
L 349.540105 19.466172 
L 365.854404 19.296 
" style="fill:none;stroke:#1f77b4;stroke-linecap:square;stroke-width:1.5;"/>
   </g>
   <g id="line2d_19">
    <path clip-path="url(#p5d79f92bbb)" d="M 55.882727 261.216 
L 72.197026 261.216 
L 88.511325 238.313917 
L 104.825624 210.146646 
L 121.139922 183.928275 
L 137.454221 162.043662 
L 153.76852 144.772234 
L 170.082819 131.580383 
L 186.397117 121.709039 
L 202.711416 114.420911 
L 219.025715 109.088426 
L 235.340014 105.210949 
L 251.654312 102.4036 
L 267.968611 100.377177 
L 284.28291 98.917564 
L 300.597209 97.867809 
L 316.911508 97.113636 
L 333.225806 96.572231 
L 349.540105 96.183781 
L 365.854404 95.905183 
" style="fill:none;stroke:#ff7f0e;stroke-linecap:square;stroke-width:1.5;"/>
   </g>
   <g id="line2d_20">
    <path clip-path="url(#p5d79f92bbb)" d="M 55.882727 261.216 
L 57.514157 254.6202 
L 59.145587 247.062513 
L 60.777017 241.566013 
L 62.408447 234.489269 
L 64.039877 228.717945 
L 65.671307 221.84732 
L 67.302736 217.312707 
L 68.934166 210.85432 
L 70.565596 205.495233 
L 72.197026 199.517789 
L 73.828456 196.151183 
L 75.459886 191.066921 
L 78.722746 183.440527 
L 80.354175 178.837208 
L 81.985605 174.852246 
L 83.617035 169.83669 
L 85.248465 165.645609 
L 86.879895 162.072884 
L 88.511325 158.087922 
L 90.142755 155.339672 
L 91.774185 151.286003 
L 95.037044 146.682684 
L 96.668474 143.109959 
L 98.299904 140.018178 
L 99.931334 137.201222 
L 101.562764 135.140035 
L 103.194194 130.948954 
L 104.825624 129.437416 
L 106.457053 125.589866 
L 108.088483 123.116441 
L 109.719913 120.917841 
L 111.351343 117.688648 
L 112.982773 116.245816 
L 114.614203 113.497567 
L 116.245633 112.535679 
L 117.877063 110.405785 
L 119.508492 107.520123 
L 121.139922 106.077292 
L 122.771352 104.153517 
L 124.402782 101.886211 
L 126.034212 99.069254 
L 127.665642 98.725723 
L 130.928502 94.740761 
L 134.191361 94.94688 
L 135.822791 92.816986 
L 137.454221 91.580273 
L 140.717081 89.587792 
L 142.348511 87.457898 
L 143.979941 86.564717 
L 145.61137 86.839542 
L 147.2428 84.50353 
L 148.87423 83.40423 
L 150.50566 81.961399 
L 152.13709 79.968917 
L 153.76852 79.350561 
L 155.39995 78.251261 
L 157.03138 77.35808 
L 158.66281 75.503011 
L 160.294239 75.090774 
L 161.925669 73.098293 
L 163.557099 72.548643 
L 165.188529 72.342524 
L 166.819959 72.342524 
L 168.451389 73.441824 
L 170.082819 71.792874 
L 171.714249 72.273818 
L 173.345678 71.449343 
L 174.977108 71.380636 
L 176.608538 70.830986 
L 178.239968 70.143924 
L 179.871398 68.975918 
L 181.502828 69.525568 
L 183.134258 69.044624 
L 188.028547 68.082736 
L 189.659977 65.540605 
L 191.291407 65.197074 
L 192.922837 64.372599 
L 194.554267 64.71613 
L 196.185697 63.273299 
L 197.817127 62.654943 
L 199.448556 62.792355 
L 201.079986 62.105293 
L 202.711416 61.143405 
L 204.342846 61.143405 
L 205.974276 61.693055 
L 207.605706 61.693055 
L 209.237136 60.731168 
L 210.868566 61.212112 
L 212.499995 60.86858 
L 214.131425 60.31893 
L 215.762855 58.532568 
L 217.394285 55.784318 
L 219.025715 54.341487 
L 222.288575 56.196556 
L 223.920005 55.097256 
L 227.182864 55.990437 
L 228.814294 55.165962 
L 230.445724 57.433268 
L 232.077154 56.952324 
L 233.708584 58.120331 
L 235.340014 58.463862 
L 236.971444 58.051624 
L 238.602873 58.120331 
L 240.234303 57.845506 
L 241.865733 58.463862 
L 243.497163 57.570681 
L 245.128593 57.021031 
L 246.760023 56.952324 
L 248.391453 56.402674 
L 250.022883 54.822431 
L 251.654312 54.753724 
L 253.285742 53.997956 
L 254.917172 52.829949 
L 256.548602 54.135368 
L 258.180032 54.685018 
L 259.811462 54.547606 
L 261.442892 55.097256 
L 263.074322 57.158443 
L 264.705751 56.402674 
L 266.337181 54.547606 
L 267.968611 53.929249 
L 269.600041 53.448306 
L 271.231471 52.761243 
L 272.862901 53.517012 
L 274.494331 53.242187 
L 276.125761 52.555124 
L 277.75719 53.654424 
L 279.38862 52.005474 
L 281.02005 51.799356 
L 282.65148 50.150406 
L 284.28291 49.738168 
L 285.91434 50.081699 
L 289.1772 50.356524 
L 290.80863 51.868062 
L 292.440059 52.898656 
L 294.071489 52.967362 
L 295.702919 52.074181 
L 297.334349 49.600756 
L 298.965779 49.532049 
L 300.597209 49.325931 
L 302.228639 47.745687 
L 303.860069 48.364043 
L 305.491498 47.814393 
L 307.122928 47.814393 
L 308.754358 47.676981 
L 310.385788 50.081699 
L 312.017218 50.562643 
L 315.280078 50.356524 
L 316.911508 49.944287 
L 318.542937 50.287818 
L 320.174367 51.730649 
L 321.805797 51.387118 
L 323.437227 51.318412 
L 325.068657 50.562643 
L 326.700087 51.318412 
L 328.331517 51.730649 
L 329.962947 52.486418 
L 331.594376 51.730649 
L 333.225806 51.180999 
L 334.857236 52.349006 
L 336.488666 52.761243 
L 338.120096 54.135368 
L 339.751526 52.898656 
L 341.382956 52.074181 
L 343.014386 53.036068 
L 344.645815 54.822431 
L 346.277245 53.448306 
L 347.908675 54.410193 
L 349.540105 53.929249 
L 351.171535 53.242187 
L 352.802965 54.135368 
L 354.434395 54.135368 
L 356.065825 52.829949 
L 357.697254 52.967362 
L 359.328684 54.753724 
L 360.960114 55.303374 
L 362.591544 56.127849 
L 364.222974 55.509493 
L 367.485834 57.364562 
L 369.117264 56.952324 
L 370.748693 58.326449 
L 372.380123 59.21963 
L 374.011553 60.937287 
L 375.642983 61.41823 
L 377.274413 60.044105 
L 378.905843 59.357043 
L 380.537273 59.631868 
L 380.537273 59.631868 
" style="fill:none;stroke:#2ca02c;stroke-linecap:square;stroke-width:1.5;"/>
   </g>
   <g id="line2d_21">
    <path clip-path="url(#p5d79f92bbb)" d="M 55.882727 261.216 
L 57.514157 261.078588 
L 59.145587 260.66635 
L 60.777017 259.773169 
L 62.408447 259.498344 
L 64.039877 258.330338 
L 65.671307 257.9181 
L 67.302736 256.8188 
L 68.934166 255.307263 
L 70.565596 254.276669 
L 72.197026 252.902544 
L 73.828456 251.253594 
L 77.091316 248.711463 
L 78.722746 247.131219 
L 80.354175 245.757094 
L 81.985605 244.863913 
L 83.617035 243.489788 
L 85.248465 242.940138 
L 86.879895 241.566013 
L 88.511325 239.298707 
L 90.142755 237.306226 
L 91.774185 236.550457 
L 93.405614 234.008326 
L 95.037044 232.084551 
L 96.668474 229.198888 
L 98.299904 227.89347 
L 101.562764 222.809207 
L 103.194194 222.259557 
L 104.825624 220.541901 
L 106.457053 219.373895 
L 108.088483 218.343301 
L 112.982773 212.709389 
L 114.614203 212.640683 
L 116.245633 212.365858 
L 117.877063 211.266558 
L 119.508492 210.30467 
L 121.139922 208.793133 
L 122.771352 206.731945 
L 124.402782 205.632645 
L 126.034212 204.945583 
L 127.665642 202.197333 
L 129.297072 201.166739 
L 130.928502 200.96062 
L 132.559931 198.968139 
L 134.191361 198.143664 
L 135.822791 196.632127 
L 137.454221 195.876358 
L 139.085651 193.815171 
L 140.717081 191.204333 
L 142.348511 191.547864 
L 143.979941 191.066921 
L 145.61137 189.761502 
L 148.87423 188.181258 
L 150.50566 187.837727 
L 152.13709 187.837727 
L 153.76852 187.975139 
L 157.03138 185.089477 
L 158.66281 184.333708 
L 161.925669 180.82969 
L 163.557099 178.699796 
L 166.819959 176.020252 
L 168.451389 174.920952 
L 170.082819 173.615534 
L 171.714249 174.096477 
L 173.345678 171.966584 
L 174.977108 170.111515 
L 176.608538 169.149627 
L 178.239968 167.981621 
L 179.871398 167.775503 
L 181.502828 167.225853 
L 183.134258 165.920434 
L 184.765688 166.882321 
L 186.397117 165.920434 
L 188.028547 166.332671 
L 189.659977 166.263965 
L 191.291407 165.645609 
L 192.922837 166.126553 
L 194.554267 165.576903 
L 196.185697 167.157146 
L 197.817127 167.500678 
L 199.448556 166.401378 
L 201.079986 166.813615 
L 202.711416 165.508196 
L 204.342846 165.714315 
L 205.974276 165.164665 
L 207.605706 163.584421 
L 209.237136 163.515715 
L 210.868566 162.828653 
L 212.499995 162.828653 
L 214.131425 164.202778 
L 215.762855 164.683721 
L 217.394285 165.645609 
L 219.025715 166.057846 
L 220.657145 164.615015 
L 222.288575 164.34019 
L 223.920005 163.927953 
L 227.182864 161.04229 
L 228.814294 161.317115 
L 230.445724 161.179703 
L 233.708584 161.660646 
L 235.340014 159.94299 
L 236.971444 159.805578 
L 238.602873 158.912397 
L 240.234303 160.423934 
L 241.865733 160.973584 
L 243.497163 160.355228 
L 245.128593 160.217815 
L 246.760023 160.355228 
L 248.391453 160.767465 
L 250.022883 161.454528 
L 251.654312 161.385821 
L 253.285742 162.347709 
L 254.917172 164.34019 
L 256.548602 163.24089 
L 258.180032 162.416415 
L 259.811462 162.072884 
L 261.442892 160.698759 
L 263.074322 162.210296 
L 264.705751 162.966065 
L 266.337181 163.584421 
L 267.968611 163.172184 
L 269.600041 163.927953 
L 271.231471 164.065365 
L 272.862901 163.79054 
L 274.494331 163.996659 
L 277.75719 163.309596 
L 279.38862 162.828653 
L 281.02005 161.798059 
L 282.65148 162.004178 
L 284.28291 161.248409 
L 285.91434 159.94299 
L 287.54577 160.011696 
L 289.1772 159.118515 
L 292.440059 158.019215 
L 294.071489 157.675684 
L 295.702919 157.606978 
L 297.334349 158.912397 
L 298.965779 159.736872 
L 300.597209 160.836171 
L 302.228639 161.317115 
L 303.860069 160.698759 
L 305.491498 161.798059 
L 307.122928 161.59194 
L 308.754358 160.49264 
L 310.385788 159.599459 
L 312.017218 159.805578 
L 313.648648 161.04229 
L 315.280078 161.248409 
L 316.911508 161.110996 
L 318.542937 160.217815 
L 320.174367 160.080403 
L 321.805797 159.118515 
L 323.437227 157.813097 
L 325.068657 156.782503 
L 326.700087 156.026734 
L 328.331517 155.683203 
L 329.962947 157.74439 
L 333.225806 157.675684 
L 334.857236 156.438972 
L 336.488666 156.026734 
L 338.120096 155.202259 
L 339.751526 155.339672 
L 341.382956 156.576384 
L 343.014386 156.370265 
L 344.645815 155.477084 
L 346.277245 155.614497 
L 347.908675 154.721315 
L 349.540105 154.790022 
L 351.171535 154.309078 
L 352.802965 152.866247 
L 354.434395 153.141072 
L 356.065825 154.652609 
L 357.697254 154.858728 
L 359.328684 155.820615 
L 360.960114 157.538272 
L 362.591544 157.606978 
L 364.222974 158.981103 
L 365.854404 157.332153 
L 367.485834 158.225334 
L 369.117264 157.881803 
L 372.380123 158.637572 
L 374.011553 157.263447 
L 375.642983 156.09544 
L 377.274413 156.713797 
L 378.905843 157.950509 
L 380.537273 158.156628 
L 380.537273 158.156628 
" style="fill:none;stroke:#d62728;stroke-linecap:square;stroke-width:1.5;"/>
   </g>
   <g id="patch_3">
    <path d="M 39.65 273.312 
L 39.65 7.2 
" style="fill:none;stroke:#000000;stroke-linecap:square;stroke-linejoin:miter;stroke-width:0.8;"/>
   </g>
   <g id="patch_4">
    <path d="M 396.77 273.312 
L 396.77 7.2 
" style="fill:none;stroke:#000000;stroke-linecap:square;stroke-linejoin:miter;stroke-width:0.8;"/>
   </g>
   <g id="patch_5">
    <path d="M 39.65 273.312 
L 396.77 273.312 
" style="fill:none;stroke:#000000;stroke-linecap:square;stroke-linejoin:miter;stroke-width:0.8;"/>
   </g>
   <g id="patch_6">
    <path d="M 39.65 7.2 
L 396.77 7.2 
" style="fill:none;stroke:#000000;stroke-linecap:square;stroke-linejoin:miter;stroke-width:0.8;"/>
   </g>
  </g>
 </g>
 <defs>
  <clipPath id="p5d79f92bbb">
   <rect height="266.112" width="357.12" x="39.65" y="7.2"/>
  </clipPath>
 </defs>
</svg>
