<?xml version="1.0" encoding="utf-8" standalone="no"?>
<!DOCTYPE svg PUBLIC "-//W3C//DTD SVG 1.1//EN"
  "http://www.w3.org/Graphics/SVG/1.1/DTD/svg11.dtd">
<svg xmlns:xlink="http://www.w3.org/1999/xlink" width="397.6075pt" height="297.190125pt" viewBox="0 0 397.6075 297.190125" xmlns="http://www.w3.org/2000/svg" version="1.1">
 <metadata>
  <rdf:RDF xmlns:dc="http://purl.org/dc/elements/1.1/" xmlns:cc="http://creativecommons.org/ns#" xmlns:rdf="http://www.w3.org/1999/02/22-rdf-syntax-ns#">
   <cc:Work>
    <dc:type rdf:resource="http://purl.org/dc/dcmitype/StillImage"/>
    <dc:date>2024-02-05T19:36:00.220233</dc:date>
    <dc:format>image/svg+xml</dc:format>
    <dc:creator>
     <cc:Agent>
      <dc:title>Matplotlib v3.8.2, https://matplotlib.org/</dc:title>
     </cc:Agent>
    </dc:creator>
   </cc:Work>
  </rdf:RDF>
 </metadata>
 <defs>
  <style type="text/css">*{stroke-linejoin: round; stroke-linecap: butt}</style>
 </defs>
 <g id="figure_1">
  <g id="patch_1">
   <path d="M 0 297.190125 
L 397.6075 297.190125 
L 397.6075 0 
L 0 0 
z
" style="fill: #ffffff"/>
  </g>
  <g id="axes_1">
   <g id="patch_2">
    <path d="M 33.2875 273.312 
L 390.4075 273.312 
L 390.4075 7.2 
L 33.2875 7.2 
z
" style="fill: #ffffff"/>
   </g>
   <g id="matplotlib.axis_1">
    <g id="xtick_1">
     <g id="line2d_1">
      <defs>
       <path id="m8d64cc2e2d" d="M 0 0 
L 0 3.5 
" style="stroke: #000000; stroke-width: 0.8"/>
      </defs>
      <g>
       <use xlink:href="#m8d64cc2e2d" x="49.520227" y="273.312" style="stroke: #000000; stroke-width: 0.8"/>
      </g>
     </g>
     <g id="text_1">
      <!-- 0.0 -->
      <g transform="translate(41.568665 287.910437) scale(0.1 -0.1)">
       <defs>
        <path id="DejaVuSans-30" d="M 2034 4250 
Q 1547 4250 1301 3770 
Q 1056 3291 1056 2328 
Q 1056 1369 1301 889 
Q 1547 409 2034 409 
Q 2525 409 2770 889 
Q 3016 1369 3016 2328 
Q 3016 3291 2770 3770 
Q 2525 4250 2034 4250 
z
M 2034 4750 
Q 2819 4750 3233 4129 
Q 3647 3509 3647 2328 
Q 3647 1150 3233 529 
Q 2819 -91 2034 -91 
Q 1250 -91 836 529 
Q 422 1150 422 2328 
Q 422 3509 836 4129 
Q 1250 4750 2034 4750 
z
" transform="scale(0.015625)"/>
        <path id="DejaVuSans-2e" d="M 684 794 
L 1344 794 
L 1344 0 
L 684 0 
L 684 794 
z
" transform="scale(0.015625)"/>
       </defs>
       <use xlink:href="#DejaVuSans-30"/>
       <use xlink:href="#DejaVuSans-2e" x="63.623047"/>
       <use xlink:href="#DejaVuSans-30" x="95.410156"/>
      </g>
     </g>
    </g>
    <g id="xtick_2">
     <g id="line2d_2">
      <g>
       <use xlink:href="#m8d64cc2e2d" x="90.305974" y="273.312" style="stroke: #000000; stroke-width: 0.8"/>
      </g>
     </g>
     <g id="text_2">
      <!-- 2.5 -->
      <g transform="translate(82.354412 287.910437) scale(0.1 -0.1)">
       <defs>
        <path id="DejaVuSans-32" d="M 1228 531 
L 3431 531 
L 3431 0 
L 469 0 
L 469 531 
Q 828 903 1448 1529 
Q 2069 2156 2228 2338 
Q 2531 2678 2651 2914 
Q 2772 3150 2772 3378 
Q 2772 3750 2511 3984 
Q 2250 4219 1831 4219 
Q 1534 4219 1204 4116 
Q 875 4013 500 3803 
L 500 4441 
Q 881 4594 1212 4672 
Q 1544 4750 1819 4750 
Q 2544 4750 2975 4387 
Q 3406 4025 3406 3419 
Q 3406 3131 3298 2873 
Q 3191 2616 2906 2266 
Q 2828 2175 2409 1742 
Q 1991 1309 1228 531 
z
" transform="scale(0.015625)"/>
        <path id="DejaVuSans-35" d="M 691 4666 
L 3169 4666 
L 3169 4134 
L 1269 4134 
L 1269 2991 
Q 1406 3038 1543 3061 
Q 1681 3084 1819 3084 
Q 2600 3084 3056 2656 
Q 3513 2228 3513 1497 
Q 3513 744 3044 326 
Q 2575 -91 1722 -91 
Q 1428 -91 1123 -41 
Q 819 9 494 109 
L 494 744 
Q 775 591 1075 516 
Q 1375 441 1709 441 
Q 2250 441 2565 725 
Q 2881 1009 2881 1497 
Q 2881 1984 2565 2268 
Q 2250 2553 1709 2553 
Q 1456 2553 1204 2497 
Q 953 2441 691 2322 
L 691 4666 
z
" transform="scale(0.015625)"/>
       </defs>
       <use xlink:href="#DejaVuSans-32"/>
       <use xlink:href="#DejaVuSans-2e" x="63.623047"/>
       <use xlink:href="#DejaVuSans-35" x="95.410156"/>
      </g>
     </g>
    </g>
    <g id="xtick_3">
     <g id="line2d_3">
      <g>
       <use xlink:href="#m8d64cc2e2d" x="131.091721" y="273.312" style="stroke: #000000; stroke-width: 0.8"/>
      </g>
     </g>
     <g id="text_3">
      <!-- 5.0 -->
      <g transform="translate(123.140159 287.910437) scale(0.1 -0.1)">
       <use xlink:href="#DejaVuSans-35"/>
       <use xlink:href="#DejaVuSans-2e" x="63.623047"/>
       <use xlink:href="#DejaVuSans-30" x="95.410156"/>
      </g>
     </g>
    </g>
    <g id="xtick_4">
     <g id="line2d_4">
      <g>
       <use xlink:href="#m8d64cc2e2d" x="171.877468" y="273.312" style="stroke: #000000; stroke-width: 0.8"/>
      </g>
     </g>
     <g id="text_4">
      <!-- 7.5 -->
      <g transform="translate(163.925906 287.910437) scale(0.1 -0.1)">
       <defs>
        <path id="DejaVuSans-37" d="M 525 4666 
L 3525 4666 
L 3525 4397 
L 1831 0 
L 1172 0 
L 2766 4134 
L 525 4134 
L 525 4666 
z
" transform="scale(0.015625)"/>
       </defs>
       <use xlink:href="#DejaVuSans-37"/>
       <use xlink:href="#DejaVuSans-2e" x="63.623047"/>
       <use xlink:href="#DejaVuSans-35" x="95.410156"/>
      </g>
     </g>
    </g>
    <g id="xtick_5">
     <g id="line2d_5">
      <g>
       <use xlink:href="#m8d64cc2e2d" x="212.663215" y="273.312" style="stroke: #000000; stroke-width: 0.8"/>
      </g>
     </g>
     <g id="text_5">
      <!-- 10.0 -->
      <g transform="translate(201.530402 287.910437) scale(0.1 -0.1)">
       <defs>
        <path id="DejaVuSans-31" d="M 794 531 
L 1825 531 
L 1825 4091 
L 703 3866 
L 703 4441 
L 1819 4666 
L 2450 4666 
L 2450 531 
L 3481 531 
L 3481 0 
L 794 0 
L 794 531 
z
" transform="scale(0.015625)"/>
       </defs>
       <use xlink:href="#DejaVuSans-31"/>
       <use xlink:href="#DejaVuSans-30" x="63.623047"/>
       <use xlink:href="#DejaVuSans-2e" x="127.246094"/>
       <use xlink:href="#DejaVuSans-30" x="159.033203"/>
      </g>
     </g>
    </g>
    <g id="xtick_6">
     <g id="line2d_6">
      <g>
       <use xlink:href="#m8d64cc2e2d" x="253.448962" y="273.312" style="stroke: #000000; stroke-width: 0.8"/>
      </g>
     </g>
     <g id="text_6">
      <!-- 12.5 -->
      <g transform="translate(242.316149 287.910437) scale(0.1 -0.1)">
       <use xlink:href="#DejaVuSans-31"/>
       <use xlink:href="#DejaVuSans-32" x="63.623047"/>
       <use xlink:href="#DejaVuSans-2e" x="127.246094"/>
       <use xlink:href="#DejaVuSans-35" x="159.033203"/>
      </g>
     </g>
    </g>
    <g id="xtick_7">
     <g id="line2d_7">
      <g>
       <use xlink:href="#m8d64cc2e2d" x="294.234709" y="273.312" style="stroke: #000000; stroke-width: 0.8"/>
      </g>
     </g>
     <g id="text_7">
      <!-- 15.0 -->
      <g transform="translate(283.101896 287.910437) scale(0.1 -0.1)">
       <use xlink:href="#DejaVuSans-31"/>
       <use xlink:href="#DejaVuSans-35" x="63.623047"/>
       <use xlink:href="#DejaVuSans-2e" x="127.246094"/>
       <use xlink:href="#DejaVuSans-30" x="159.033203"/>
      </g>
     </g>
    </g>
    <g id="xtick_8">
     <g id="line2d_8">
      <g>
       <use xlink:href="#m8d64cc2e2d" x="335.020456" y="273.312" style="stroke: #000000; stroke-width: 0.8"/>
      </g>
     </g>
     <g id="text_8">
      <!-- 17.5 -->
      <g transform="translate(323.887643 287.910437) scale(0.1 -0.1)">
       <use xlink:href="#DejaVuSans-31"/>
       <use xlink:href="#DejaVuSans-37" x="63.623047"/>
       <use xlink:href="#DejaVuSans-2e" x="127.246094"/>
       <use xlink:href="#DejaVuSans-35" x="159.033203"/>
      </g>
     </g>
    </g>
    <g id="xtick_9">
     <g id="line2d_9">
      <g>
       <use xlink:href="#m8d64cc2e2d" x="375.806203" y="273.312" style="stroke: #000000; stroke-width: 0.8"/>
      </g>
     </g>
     <g id="text_9">
      <!-- 20.0 -->
      <g transform="translate(364.67339 287.910437) scale(0.1 -0.1)">
       <use xlink:href="#DejaVuSans-32"/>
       <use xlink:href="#DejaVuSans-30" x="63.623047"/>
       <use xlink:href="#DejaVuSans-2e" x="127.246094"/>
       <use xlink:href="#DejaVuSans-30" x="159.033203"/>
      </g>
     </g>
    </g>
   </g>
   <g id="matplotlib.axis_2">
    <g id="ytick_1">
     <g id="line2d_10">
      <defs>
       <path id="md7022a3627" d="M 0 0 
L -3.5 0 
" style="stroke: #000000; stroke-width: 0.8"/>
      </defs>
      <g>
       <use xlink:href="#md7022a3627" x="33.2875" y="261.216" style="stroke: #000000; stroke-width: 0.8"/>
      </g>
     </g>
     <g id="text_10">
      <!-- 0 -->
      <g transform="translate(19.925 265.015219) scale(0.1 -0.1)">
       <use xlink:href="#DejaVuSans-30"/>
      </g>
     </g>
    </g>
    <g id="ytick_2">
     <g id="line2d_11">
      <g>
       <use xlink:href="#md7022a3627" x="33.2875" y="230.631479" style="stroke: #000000; stroke-width: 0.8"/>
      </g>
     </g>
     <g id="text_11">
      <!-- 50 -->
      <g transform="translate(13.5625 234.430698) scale(0.1 -0.1)">
       <use xlink:href="#DejaVuSans-35"/>
       <use xlink:href="#DejaVuSans-30" x="63.623047"/>
      </g>
     </g>
    </g>
    <g id="ytick_3">
     <g id="line2d_12">
      <g>
       <use xlink:href="#md7022a3627" x="33.2875" y="200.046958" style="stroke: #000000; stroke-width: 0.8"/>
      </g>
     </g>
     <g id="text_12">
      <!-- 100 -->
      <g transform="translate(7.2 203.846177) scale(0.1 -0.1)">
       <use xlink:href="#DejaVuSans-31"/>
       <use xlink:href="#DejaVuSans-30" x="63.623047"/>
       <use xlink:href="#DejaVuSans-30" x="127.246094"/>
      </g>
     </g>
    </g>
    <g id="ytick_4">
     <g id="line2d_13">
      <g>
       <use xlink:href="#md7022a3627" x="33.2875" y="169.462437" style="stroke: #000000; stroke-width: 0.8"/>
      </g>
     </g>
     <g id="text_13">
      <!-- 150 -->
      <g transform="translate(7.2 173.261655) scale(0.1 -0.1)">
       <use xlink:href="#DejaVuSans-31"/>
       <use xlink:href="#DejaVuSans-35" x="63.623047"/>
       <use xlink:href="#DejaVuSans-30" x="127.246094"/>
      </g>
     </g>
    </g>
    <g id="ytick_5">
     <g id="line2d_14">
      <g>
       <use xlink:href="#md7022a3627" x="33.2875" y="138.877916" style="stroke: #000000; stroke-width: 0.8"/>
      </g>
     </g>
     <g id="text_14">
      <!-- 200 -->
      <g transform="translate(7.2 142.677134) scale(0.1 -0.1)">
       <use xlink:href="#DejaVuSans-32"/>
       <use xlink:href="#DejaVuSans-30" x="63.623047"/>
       <use xlink:href="#DejaVuSans-30" x="127.246094"/>
      </g>
     </g>
    </g>
    <g id="ytick_6">
     <g id="line2d_15">
      <g>
       <use xlink:href="#md7022a3627" x="33.2875" y="108.293394" style="stroke: #000000; stroke-width: 0.8"/>
      </g>
     </g>
     <g id="text_15">
      <!-- 250 -->
      <g transform="translate(7.2 112.092613) scale(0.1 -0.1)">
       <use xlink:href="#DejaVuSans-32"/>
       <use xlink:href="#DejaVuSans-35" x="63.623047"/>
       <use xlink:href="#DejaVuSans-30" x="127.246094"/>
      </g>
     </g>
    </g>
    <g id="ytick_7">
     <g id="line2d_16">
      <g>
       <use xlink:href="#md7022a3627" x="33.2875" y="77.708873" style="stroke: #000000; stroke-width: 0.8"/>
      </g>
     </g>
     <g id="text_16">
      <!-- 300 -->
      <g transform="translate(7.2 81.508092) scale(0.1 -0.1)">
       <defs>
        <path id="DejaVuSans-33" d="M 2597 2516 
Q 3050 2419 3304 2112 
Q 3559 1806 3559 1356 
Q 3559 666 3084 287 
Q 2609 -91 1734 -91 
Q 1441 -91 1130 -33 
Q 819 25 488 141 
L 488 750 
Q 750 597 1062 519 
Q 1375 441 1716 441 
Q 2309 441 2620 675 
Q 2931 909 2931 1356 
Q 2931 1769 2642 2001 
Q 2353 2234 1838 2234 
L 1294 2234 
L 1294 2753 
L 1863 2753 
Q 2328 2753 2575 2939 
Q 2822 3125 2822 3475 
Q 2822 3834 2567 4026 
Q 2313 4219 1838 4219 
Q 1578 4219 1281 4162 
Q 984 4106 628 3988 
L 628 4550 
Q 988 4650 1302 4700 
Q 1616 4750 1894 4750 
Q 2613 4750 3031 4423 
Q 3450 4097 3450 3541 
Q 3450 3153 3228 2886 
Q 3006 2619 2597 2516 
z
" transform="scale(0.015625)"/>
       </defs>
       <use xlink:href="#DejaVuSans-33"/>
       <use xlink:href="#DejaVuSans-30" x="63.623047"/>
       <use xlink:href="#DejaVuSans-30" x="127.246094"/>
      </g>
     </g>
    </g>
    <g id="ytick_8">
     <g id="line2d_17">
      <g>
       <use xlink:href="#md7022a3627" x="33.2875" y="47.124352" style="stroke: #000000; stroke-width: 0.8"/>
      </g>
     </g>
     <g id="text_17">
      <!-- 350 -->
      <g transform="translate(7.2 50.923571) scale(0.1 -0.1)">
       <use xlink:href="#DejaVuSans-33"/>
       <use xlink:href="#DejaVuSans-35" x="63.623047"/>
       <use xlink:href="#DejaVuSans-30" x="127.246094"/>
      </g>
     </g>
    </g>
    <g id="ytick_9">
     <g id="line2d_18">
      <g>
       <use xlink:href="#md7022a3627" x="33.2875" y="16.539831" style="stroke: #000000; stroke-width: 0.8"/>
      </g>
     </g>
     <g id="text_18">
      <!-- 400 -->
      <g transform="translate(7.2 20.33905) scale(0.1 -0.1)">
       <defs>
        <path id="DejaVuSans-34" d="M 2419 4116 
L 825 1625 
L 2419 1625 
L 2419 4116 
z
M 2253 4666 
L 3047 4666 
L 3047 1625 
L 3713 1625 
L 3713 1100 
L 3047 1100 
L 3047 0 
L 2419 0 
L 2419 1100 
L 313 1100 
L 313 1709 
L 2253 4666 
z
" transform="scale(0.015625)"/>
       </defs>
       <use xlink:href="#DejaVuSans-34"/>
       <use xlink:href="#DejaVuSans-30" x="63.623047"/>
       <use xlink:href="#DejaVuSans-30" x="127.246094"/>
      </g>
     </g>
    </g>
   </g>
   <g id="line2d_19">
    <path d="M 49.520227 261.216 
L 53.598802 108.293394 
L 57.677377 52.036312 
L 61.755951 31.340488 
L 65.834526 23.726919 
L 69.913101 20.926044 
L 73.991675 19.89566 
L 78.07025 19.516602 
L 82.148825 19.377155 
L 86.227399 19.325855 
L 90.305974 19.306983 
L 94.384549 19.30004 
L 98.463124 19.297486 
L 102.541698 19.296547 
L 106.620273 19.296201 
L 110.698848 19.296074 
L 114.777422 19.296027 
L 118.855997 19.29601 
L 122.934572 19.296004 
L 127.013146 19.296001 
L 131.091721 19.296 
L 135.170296 19.296 
L 139.24887 19.296 
L 143.327445 19.296 
L 147.40602 19.296 
L 151.484595 19.296 
L 155.563169 19.296 
L 159.641744 19.296 
L 163.720319 19.296 
L 167.798893 19.296 
L 171.877468 19.296 
L 175.956043 19.296 
L 180.034617 19.296 
L 184.113192 19.296 
L 188.191767 19.296 
L 192.270341 19.296 
L 196.348916 19.296 
L 200.427491 19.296 
L 204.506066 19.296 
L 208.58464 19.296 
L 212.663215 19.296 
L 216.74179 19.296 
L 220.820364 19.296 
L 224.898939 19.296 
L 228.977514 19.296 
L 233.056088 19.296 
L 237.134663 19.296 
L 241.213238 19.296 
L 245.291812 19.296 
L 249.370387 19.296 
L 253.448962 19.296 
L 257.527537 19.296 
L 261.606111 19.296 
L 265.684686 19.296 
L 269.763261 19.296 
L 273.841835 19.296 
L 277.92041 19.296 
L 281.998985 19.296 
L 286.077559 19.296 
L 290.156134 19.296 
L 294.234709 19.296 
L 298.313283 19.296 
L 302.391858 19.296 
L 306.470433 19.296 
L 310.549008 19.296 
L 314.627582 19.296 
L 318.706157 19.296 
L 322.784732 19.296 
L 326.863306 19.296 
L 330.941881 19.296 
L 335.020456 19.296 
L 339.09903 19.296 
L 343.177605 19.296 
L 347.25618 19.296 
L 351.334754 19.296 
L 355.413329 19.296 
L 359.491904 19.296 
L 363.570479 19.296 
L 367.649053 19.296 
L 371.727628 19.296 
" clip-path="url(#p76340d9ed2)" style="fill: none; stroke: #1f77b4; stroke-width: 1.5; stroke-linecap: square"/>
   </g>
   <g id="line2d_20">
    <path d="M 49.520227 261.216 
L 53.598802 261.216 
L 57.677377 164.550477 
L 61.755951 93.42796 
L 65.834526 54.181192 
L 69.913101 34.93042 
L 73.991675 26.077966 
L 78.07025 22.170003 
L 82.148825 20.492734 
L 86.227399 19.787554 
L 90.305974 19.495705 
L 94.384549 19.37641 
L 98.463124 19.328135 
L 102.541698 19.308761 
L 106.620273 19.30104 
L 110.698848 19.297981 
L 114.777422 19.296776 
L 118.855997 19.296303 
L 122.934572 19.296118 
L 127.013146 19.296046 
L 131.091721 19.296018 
L 135.170296 19.296007 
L 139.24887 19.296003 
L 143.327445 19.296001 
L 147.40602 19.296 
L 151.484595 19.296 
L 155.563169 19.296 
L 159.641744 19.296 
L 163.720319 19.296 
L 167.798893 19.296 
L 171.877468 19.296 
L 175.956043 19.296 
L 180.034617 19.296 
L 184.113192 19.296 
L 188.191767 19.296 
L 192.270341 19.296 
L 196.348916 19.296 
L 200.427491 19.296 
L 204.506066 19.296 
L 208.58464 19.296 
L 212.663215 19.296 
L 216.74179 19.296 
L 220.820364 19.296 
L 224.898939 19.296 
L 228.977514 19.296 
L 233.056088 19.296 
L 237.134663 19.296 
L 241.213238 19.296 
L 245.291812 19.296 
L 249.370387 19.296 
L 253.448962 19.296 
L 257.527537 19.296 
L 261.606111 19.296 
L 265.684686 19.296 
L 269.763261 19.296 
L 273.841835 19.296 
L 277.92041 19.296 
L 281.998985 19.296 
L 286.077559 19.296 
L 290.156134 19.296 
L 294.234709 19.296 
L 298.313283 19.296 
L 302.391858 19.296 
L 306.470433 19.296 
L 310.549008 19.296 
L 314.627582 19.296 
L 318.706157 19.296 
L 322.784732 19.296 
L 326.863306 19.296 
L 330.941881 19.296 
L 335.020456 19.296 
L 339.09903 19.296 
L 343.177605 19.296 
L 347.25618 19.296 
L 351.334754 19.296 
L 355.413329 19.296 
L 359.491904 19.296 
L 363.570479 19.296 
L 367.649053 19.296 
L 371.727628 19.296 
" clip-path="url(#p76340d9ed2)" style="fill: none; stroke: #ff7f0e; stroke-width: 1.5; stroke-linecap: square"/>
   </g>
   <g id="line2d_21">
    <path d="M 49.520227 261.216 
L 51.151657 210.445695 
L 52.783087 169.462437 
L 54.414517 144.383129 
L 56.045947 134.596083 
L 57.677377 120.527203 
L 59.308807 118.692132 
L 60.940236 113.798608 
L 62.571666 113.186918 
L 64.203096 113.186918 
L 65.834526 112.575227 
L 67.465956 107.681704 
L 69.097386 114.410299 
L 70.728816 100.341419 
L 72.360246 96.671276 
L 73.991675 102.788181 
L 75.623105 118.080441 
L 77.254535 107.070014 
L 78.885965 102.17649 
L 80.517395 99.118038 
L 82.148825 102.17649 
L 83.780255 107.681704 
L 85.411685 111.351847 
L 87.043114 109.516775 
L 88.674544 108.293394 
L 90.305974 114.410299 
L 91.937404 114.410299 
L 93.568834 117.468751 
L 95.200264 118.080441 
L 96.831694 113.798608 
L 98.463124 114.410299 
L 100.094553 100.953109 
L 101.725983 104.011561 
L 103.357413 99.729728 
L 104.988843 102.17649 
L 106.620273 94.836205 
L 108.251703 97.894657 
L 109.883133 94.836205 
L 111.514563 106.458323 
L 113.145992 102.788181 
L 114.777422 101.5648 
L 116.408852 102.17649 
L 118.040282 115.633679 
L 119.671712 116.85706 
L 121.303142 113.798608 
L 122.934572 111.351847 
L 124.566002 115.021989 
L 126.197431 106.458323 
L 127.828861 104.011561 
L 129.460291 108.293394 
L 131.091721 109.516775 
L 132.723151 100.953109 
L 134.354581 104.011561 
L 135.986011 113.798608 
L 137.617441 120.527203 
L 139.24887 113.186918 
L 140.8803 112.575227 
L 142.51173 115.633679 
L 144.14316 99.118038 
L 145.77459 110.128466 
L 147.40602 113.798608 
L 149.03745 105.846633 
L 150.66888 105.234942 
L 152.30031 99.729728 
L 153.931739 96.671276 
L 155.563169 105.234942 
L 157.194599 93.001134 
L 158.826029 99.729728 
L 162.088889 102.17649 
L 163.720319 108.293394 
L 165.351749 107.070014 
L 166.983178 110.128466 
L 170.246038 113.798608 
L 171.877468 110.740156 
L 173.508898 108.293394 
L 175.140328 107.070014 
L 176.771758 111.963537 
L 178.403188 107.681704 
L 180.034617 113.798608 
L 183.297477 119.915512 
L 184.928907 113.186918 
L 186.560337 113.798608 
L 188.191767 116.85706 
L 189.823197 120.527203 
L 191.454627 114.410299 
L 193.086056 119.915512 
L 194.717486 118.692132 
L 196.348916 116.85706 
L 197.980346 122.362274 
L 199.611776 119.303822 
L 201.243206 129.090869 
L 204.506066 122.973965 
L 206.137495 114.410299 
L 207.768925 115.021989 
L 209.400355 117.468751 
L 211.031785 118.692132 
L 212.663215 115.633679 
L 214.294645 114.410299 
L 215.926075 99.729728 
L 217.557505 96.059586 
L 219.188934 98.506348 
L 220.820364 106.458323 
L 222.451794 103.399871 
L 224.083224 106.458323 
L 225.714654 113.798608 
L 227.346084 110.128466 
L 228.977514 118.080441 
L 230.608944 111.351847 
L 232.240373 117.468751 
L 233.871803 120.527203 
L 235.503233 121.750584 
L 237.134663 123.585655 
L 238.766093 117.468751 
L 240.397523 107.070014 
L 242.028953 104.623252 
L 243.660383 102.788181 
L 245.291812 98.506348 
L 246.923242 100.953109 
L 248.554672 102.17649 
L 250.186102 105.846633 
L 251.817532 113.798608 
L 253.448962 108.293394 
L 255.080392 114.410299 
L 256.711822 116.24537 
L 258.343251 122.973965 
L 259.974681 126.644107 
L 261.606111 127.255798 
L 263.237541 116.24537 
L 264.868971 118.692132 
L 266.500401 115.021989 
L 268.131831 122.973965 
L 269.763261 121.750584 
L 271.39469 119.303822 
L 273.02612 120.527203 
L 274.65755 111.351847 
L 276.28898 108.905085 
L 277.92041 118.692132 
L 281.18327 118.692132 
L 282.8147 112.575227 
L 284.44613 113.186918 
L 286.077559 114.410299 
L 287.708989 118.692132 
L 289.340419 118.692132 
L 290.971849 123.585655 
L 292.603279 121.138893 
L 294.234709 112.575227 
L 295.866139 108.905085 
L 297.497569 103.399871 
L 299.128998 108.293394 
L 300.760428 115.021989 
L 302.391858 110.128466 
L 304.023288 110.128466 
L 305.654718 105.234942 
L 307.286148 107.681704 
L 308.917578 106.458323 
L 310.549008 99.118038 
L 312.180437 101.5648 
L 313.811867 100.953109 
L 315.443297 102.17649 
L 317.074727 99.729728 
L 318.706157 99.118038 
L 320.337587 104.623252 
L 321.969017 97.282967 
L 323.600447 103.399871 
L 325.231876 111.963537 
L 326.863306 117.468751 
L 328.494736 114.410299 
L 330.126166 115.633679 
L 331.757596 116.24537 
L 333.389026 108.905085 
L 335.020456 110.128466 
L 336.651886 100.341419 
L 338.283315 100.953109 
L 339.914745 113.798608 
L 341.546175 115.633679 
L 343.177605 116.85706 
L 344.809035 107.070014 
L 346.440465 108.293394 
L 348.071895 113.798608 
L 349.703325 118.692132 
L 351.334754 125.420726 
L 352.966184 118.692132 
L 354.597614 113.798608 
L 356.229044 115.021989 
L 357.860474 118.692132 
L 359.491904 112.575227 
L 361.123334 118.080441 
L 362.754764 119.915512 
L 364.386193 105.846633 
L 366.017623 102.788181 
L 367.649053 109.516775 
L 369.280483 121.750584 
L 370.911913 110.740156 
L 372.543343 124.197345 
L 374.174773 129.090869 
L 374.174773 129.090869 
" clip-path="url(#p76340d9ed2)" style="fill: none; stroke: #2ca02c; stroke-width: 1.5; stroke-linecap: square"/>
   </g>
   <g id="line2d_22">
    <path d="M 49.520227 261.216 
L 51.151657 252.040644 
L 52.783087 235.525002 
L 54.414517 217.17429 
L 56.045947 193.930054 
L 57.677377 176.802722 
L 59.308807 146.829891 
L 60.940236 137.654535 
L 62.571666 124.809036 
L 64.203096 126.644107 
L 65.834526 116.85706 
L 67.465956 123.585655 
L 69.097386 110.740156 
L 70.728816 122.973965 
L 72.360246 121.138893 
L 73.991675 119.915512 
L 75.623105 104.623252 
L 77.254535 115.633679 
L 78.885965 122.362274 
L 80.517395 115.021989 
L 82.148825 105.234942 
L 83.780255 103.399871 
L 85.411685 103.399871 
L 87.043114 102.17649 
L 88.674544 111.351847 
L 90.305974 110.128466 
L 91.937404 106.458323 
L 93.568834 104.011561 
L 95.200264 107.070014 
L 96.831694 111.963537 
L 98.463124 108.905085 
L 100.094553 120.527203 
L 101.725983 109.516775 
L 103.357413 108.293394 
L 106.620273 114.410299 
L 108.251703 111.351847 
L 109.883133 118.692132 
L 111.514563 104.623252 
L 116.408852 117.468751 
L 118.040282 99.118038 
L 119.671712 113.186918 
L 121.303142 113.186918 
L 122.934572 121.138893 
L 124.566002 110.128466 
L 126.197431 113.798608 
L 127.828861 109.516775 
L 129.460291 104.011561 
L 131.091721 108.293394 
L 132.723151 126.644107 
L 134.354581 111.351847 
L 135.986011 98.506348 
L 137.617441 96.059586 
L 139.24887 107.070014 
L 140.8803 105.846633 
L 142.51173 104.011561 
L 144.14316 122.973965 
L 145.77459 111.351847 
L 147.40602 107.070014 
L 149.03745 116.85706 
L 150.66888 118.692132 
L 152.30031 126.032417 
L 153.931739 113.186918 
L 155.563169 104.623252 
L 157.194599 115.021989 
L 158.826029 105.846633 
L 160.457459 108.293394 
L 162.088889 100.341419 
L 163.720319 87.49592 
L 165.351749 86.88423 
L 166.983178 96.671276 
L 168.614608 102.788181 
L 170.246038 99.729728 
L 171.877468 97.282967 
L 173.508898 98.506348 
L 175.140328 113.798608 
L 176.771758 105.234942 
L 178.403188 115.633679 
L 180.034617 105.234942 
L 181.666047 105.846633 
L 183.297477 107.070014 
L 184.928907 121.138893 
L 186.560337 121.750584 
L 188.191767 121.138893 
L 189.823197 117.468751 
L 191.454627 112.575227 
L 194.717486 108.905085 
L 196.348916 117.468751 
L 197.980346 113.798608 
L 199.611776 120.527203 
L 201.243206 114.410299 
L 204.506066 115.633679 
L 207.768925 121.750584 
L 209.400355 112.575227 
L 211.031785 114.410299 
L 212.663215 111.963537 
L 214.294645 113.186918 
L 215.926075 115.021989 
L 217.557505 121.138893 
L 219.188934 110.740156 
L 220.820364 102.17649 
L 222.451794 111.963537 
L 224.083224 110.740156 
L 225.714654 105.846633 
L 227.346084 115.021989 
L 228.977514 114.410299 
L 230.608944 122.362274 
L 232.240373 110.128466 
L 233.871803 116.85706 
L 235.503233 110.128466 
L 237.134663 111.963537 
L 238.766093 108.905085 
L 240.397523 125.420726 
L 242.028953 116.85706 
L 243.660383 115.633679 
L 245.291812 113.186918 
L 246.923242 105.234942 
L 248.554672 104.011561 
L 250.186102 100.341419 
L 251.817532 97.894657 
L 253.448962 99.729728 
L 255.080392 105.234942 
L 256.711822 108.905085 
L 258.343251 99.118038 
L 259.974681 100.341419 
L 261.606111 94.836205 
L 263.237541 108.905085 
L 264.868971 107.681704 
L 266.500401 104.011561 
L 268.131831 98.506348 
L 269.763261 100.341419 
L 271.39469 100.953109 
L 273.02612 99.729728 
L 274.65755 111.351847 
L 276.28898 109.516775 
L 277.92041 99.118038 
L 279.55184 110.128466 
L 281.18327 104.623252 
L 282.8147 104.623252 
L 284.44613 94.224515 
L 286.077559 100.953109 
L 287.708989 93.001134 
L 289.340419 102.788181 
L 290.971849 100.341419 
L 292.603279 111.963537 
L 294.234709 122.362274 
L 295.866139 129.090869 
L 297.497569 127.867488 
L 299.128998 111.351847 
L 300.760428 99.118038 
L 302.391858 105.234942 
L 304.023288 108.905085 
L 305.654718 110.740156 
L 307.286148 100.953109 
L 308.917578 99.118038 
L 310.549008 104.011561 
L 312.180437 99.118038 
L 313.811867 107.070014 
L 315.443297 110.128466 
L 317.074727 108.293394 
L 318.706157 119.303822 
L 320.337587 111.351847 
L 321.969017 110.128466 
L 323.600447 102.17649 
L 325.231876 106.458323 
L 326.863306 95.447896 
L 330.126166 106.458323 
L 331.757596 99.118038 
L 333.389026 108.293394 
L 335.020456 109.516775 
L 336.651886 111.963537 
L 338.283315 110.740156 
L 339.914745 97.894657 
L 341.546175 107.681704 
L 343.177605 113.798608 
L 344.809035 111.351847 
L 346.440465 115.633679 
L 348.071895 115.021989 
L 349.703325 113.186918 
L 352.966184 113.186918 
L 354.597614 112.575227 
L 356.229044 108.905085 
L 357.860474 104.011561 
L 359.491904 116.85706 
L 361.123334 118.080441 
L 362.754764 115.633679 
L 364.386193 117.468751 
L 366.017623 110.128466 
L 367.649053 106.458323 
L 369.280483 99.729728 
L 370.911913 111.351847 
L 372.543343 97.282967 
L 374.174773 94.836205 
L 374.174773 94.836205 
" clip-path="url(#p76340d9ed2)" style="fill: none; stroke: #d62728; stroke-width: 1.5; stroke-linecap: square"/>
   </g>
   <g id="patch_3">
    <path d="M 33.2875 273.312 
L 33.2875 7.2 
" style="fill: none; stroke: #000000; stroke-width: 0.8; stroke-linejoin: miter; stroke-linecap: square"/>
   </g>
   <g id="patch_4">
    <path d="M 390.4075 273.312 
L 390.4075 7.2 
" style="fill: none; stroke: #000000; stroke-width: 0.8; stroke-linejoin: miter; stroke-linecap: square"/>
   </g>
   <g id="patch_5">
    <path d="M 33.2875 273.312 
L 390.4075 273.312 
" style="fill: none; stroke: #000000; stroke-width: 0.8; stroke-linejoin: miter; stroke-linecap: square"/>
   </g>
   <g id="patch_6">
    <path d="M 33.2875 7.2 
L 390.4075 7.2 
" style="fill: none; stroke: #000000; stroke-width: 0.8; stroke-linejoin: miter; stroke-linecap: square"/>
   </g>
  </g>
 </g>
 <defs>
  <clipPath id="p76340d9ed2">
   <rect x="33.2875" y="7.2" width="357.12" height="266.112"/>
  </clipPath>
 </defs>
</svg>
