<?xml version="1.0" encoding="utf-8" standalone="no"?>
<!DOCTYPE svg PUBLIC "-//W3C//DTD SVG 1.1//EN"
  "http://www.w3.org/Graphics/SVG/1.1/DTD/svg11.dtd">
<!-- Created with matplotlib (https://matplotlib.org/) -->
<svg height="297.190125pt" version="1.1" viewBox="0 0 403.97 297.190125" width="403.97pt" xmlns="http://www.w3.org/2000/svg" xmlns:xlink="http://www.w3.org/1999/xlink">
 <metadata>
  <rdf:RDF xmlns:cc="http://creativecommons.org/ns#" xmlns:dc="http://purl.org/dc/elements/1.1/" xmlns:rdf="http://www.w3.org/1999/02/22-rdf-syntax-ns#">
   <cc:Work>
    <dc:type rdf:resource="http://purl.org/dc/dcmitype/StillImage"/>
    <dc:date>2021-03-19T00:04:38.852209</dc:date>
    <dc:format>image/svg+xml</dc:format>
    <dc:creator>
     <cc:Agent>
      <dc:title>Matplotlib v3.3.4, https://matplotlib.org/</dc:title>
     </cc:Agent>
    </dc:creator>
   </cc:Work>
  </rdf:RDF>
 </metadata>
 <defs>
  <style type="text/css">*{stroke-linecap:butt;stroke-linejoin:round;}</style>
 </defs>
 <g id="figure_1">
  <g id="patch_1">
   <path d="M 0 297.190125 
L 403.97 297.190125 
L 403.97 0 
L 0 0 
z
" style="fill:#ffffff;"/>
  </g>
  <g id="axes_1">
   <g id="patch_2">
    <path d="M 39.65 273.312 
L 396.77 273.312 
L 396.77 7.2 
L 39.65 7.2 
z
" style="fill:#ffffff;"/>
   </g>
   <g id="matplotlib.axis_1">
    <g id="xtick_1">
     <g id="line2d_1">
      <defs>
       <path d="M 0 0 
L 0 3.5 
" id="m61883f053f" style="stroke:#000000;stroke-width:0.8;"/>
      </defs>
      <g>
       <use style="stroke:#000000;stroke-width:0.8;" x="55.882727" xlink:href="#m61883f053f" y="273.312"/>
      </g>
     </g>
     <g id="text_1">
      <!-- 0.0 -->
      <g transform="translate(47.931165 287.910437)scale(0.1 -0.1)">
       <defs>
        <path d="M 31.78125 66.40625 
Q 24.171875 66.40625 20.328125 58.90625 
Q 16.5 51.421875 16.5 36.375 
Q 16.5 21.390625 20.328125 13.890625 
Q 24.171875 6.390625 31.78125 6.390625 
Q 39.453125 6.390625 43.28125 13.890625 
Q 47.125 21.390625 47.125 36.375 
Q 47.125 51.421875 43.28125 58.90625 
Q 39.453125 66.40625 31.78125 66.40625 
z
M 31.78125 74.21875 
Q 44.046875 74.21875 50.515625 64.515625 
Q 56.984375 54.828125 56.984375 36.375 
Q 56.984375 17.96875 50.515625 8.265625 
Q 44.046875 -1.421875 31.78125 -1.421875 
Q 19.53125 -1.421875 13.0625 8.265625 
Q 6.59375 17.96875 6.59375 36.375 
Q 6.59375 54.828125 13.0625 64.515625 
Q 19.53125 74.21875 31.78125 74.21875 
z
" id="DejaVuSans-48"/>
        <path d="M 10.6875 12.40625 
L 21 12.40625 
L 21 0 
L 10.6875 0 
z
" id="DejaVuSans-46"/>
       </defs>
       <use xlink:href="#DejaVuSans-48"/>
       <use x="63.623047" xlink:href="#DejaVuSans-46"/>
       <use x="95.410156" xlink:href="#DejaVuSans-48"/>
      </g>
     </g>
    </g>
    <g id="xtick_2">
     <g id="line2d_2">
      <g>
       <use style="stroke:#000000;stroke-width:0.8;" x="96.668474" xlink:href="#m61883f053f" y="273.312"/>
      </g>
     </g>
     <g id="text_2">
      <!-- 2.5 -->
      <g transform="translate(88.716912 287.910437)scale(0.1 -0.1)">
       <defs>
        <path d="M 19.1875 8.296875 
L 53.609375 8.296875 
L 53.609375 0 
L 7.328125 0 
L 7.328125 8.296875 
Q 12.9375 14.109375 22.625 23.890625 
Q 32.328125 33.6875 34.8125 36.53125 
Q 39.546875 41.84375 41.421875 45.53125 
Q 43.3125 49.21875 43.3125 52.78125 
Q 43.3125 58.59375 39.234375 62.25 
Q 35.15625 65.921875 28.609375 65.921875 
Q 23.96875 65.921875 18.8125 64.3125 
Q 13.671875 62.703125 7.8125 59.421875 
L 7.8125 69.390625 
Q 13.765625 71.78125 18.9375 73 
Q 24.125 74.21875 28.421875 74.21875 
Q 39.75 74.21875 46.484375 68.546875 
Q 53.21875 62.890625 53.21875 53.421875 
Q 53.21875 48.921875 51.53125 44.890625 
Q 49.859375 40.875 45.40625 35.40625 
Q 44.1875 33.984375 37.640625 27.21875 
Q 31.109375 20.453125 19.1875 8.296875 
z
" id="DejaVuSans-50"/>
        <path d="M 10.796875 72.90625 
L 49.515625 72.90625 
L 49.515625 64.59375 
L 19.828125 64.59375 
L 19.828125 46.734375 
Q 21.96875 47.46875 24.109375 47.828125 
Q 26.265625 48.1875 28.421875 48.1875 
Q 40.625 48.1875 47.75 41.5 
Q 54.890625 34.8125 54.890625 23.390625 
Q 54.890625 11.625 47.5625 5.09375 
Q 40.234375 -1.421875 26.90625 -1.421875 
Q 22.3125 -1.421875 17.546875 -0.640625 
Q 12.796875 0.140625 7.71875 1.703125 
L 7.71875 11.625 
Q 12.109375 9.234375 16.796875 8.0625 
Q 21.484375 6.890625 26.703125 6.890625 
Q 35.15625 6.890625 40.078125 11.328125 
Q 45.015625 15.765625 45.015625 23.390625 
Q 45.015625 31 40.078125 35.4375 
Q 35.15625 39.890625 26.703125 39.890625 
Q 22.75 39.890625 18.8125 39.015625 
Q 14.890625 38.140625 10.796875 36.28125 
z
" id="DejaVuSans-53"/>
       </defs>
       <use xlink:href="#DejaVuSans-50"/>
       <use x="63.623047" xlink:href="#DejaVuSans-46"/>
       <use x="95.410156" xlink:href="#DejaVuSans-53"/>
      </g>
     </g>
    </g>
    <g id="xtick_3">
     <g id="line2d_3">
      <g>
       <use style="stroke:#000000;stroke-width:0.8;" x="137.454221" xlink:href="#m61883f053f" y="273.312"/>
      </g>
     </g>
     <g id="text_3">
      <!-- 5.0 -->
      <g transform="translate(129.502659 287.910437)scale(0.1 -0.1)">
       <use xlink:href="#DejaVuSans-53"/>
       <use x="63.623047" xlink:href="#DejaVuSans-46"/>
       <use x="95.410156" xlink:href="#DejaVuSans-48"/>
      </g>
     </g>
    </g>
    <g id="xtick_4">
     <g id="line2d_4">
      <g>
       <use style="stroke:#000000;stroke-width:0.8;" x="178.239968" xlink:href="#m61883f053f" y="273.312"/>
      </g>
     </g>
     <g id="text_4">
      <!-- 7.5 -->
      <g transform="translate(170.288406 287.910437)scale(0.1 -0.1)">
       <defs>
        <path d="M 8.203125 72.90625 
L 55.078125 72.90625 
L 55.078125 68.703125 
L 28.609375 0 
L 18.3125 0 
L 43.21875 64.59375 
L 8.203125 64.59375 
z
" id="DejaVuSans-55"/>
       </defs>
       <use xlink:href="#DejaVuSans-55"/>
       <use x="63.623047" xlink:href="#DejaVuSans-46"/>
       <use x="95.410156" xlink:href="#DejaVuSans-53"/>
      </g>
     </g>
    </g>
    <g id="xtick_5">
     <g id="line2d_5">
      <g>
       <use style="stroke:#000000;stroke-width:0.8;" x="219.025715" xlink:href="#m61883f053f" y="273.312"/>
      </g>
     </g>
     <g id="text_5">
      <!-- 10.0 -->
      <g transform="translate(207.892902 287.910437)scale(0.1 -0.1)">
       <defs>
        <path d="M 12.40625 8.296875 
L 28.515625 8.296875 
L 28.515625 63.921875 
L 10.984375 60.40625 
L 10.984375 69.390625 
L 28.421875 72.90625 
L 38.28125 72.90625 
L 38.28125 8.296875 
L 54.390625 8.296875 
L 54.390625 0 
L 12.40625 0 
z
" id="DejaVuSans-49"/>
       </defs>
       <use xlink:href="#DejaVuSans-49"/>
       <use x="63.623047" xlink:href="#DejaVuSans-48"/>
       <use x="127.246094" xlink:href="#DejaVuSans-46"/>
       <use x="159.033203" xlink:href="#DejaVuSans-48"/>
      </g>
     </g>
    </g>
    <g id="xtick_6">
     <g id="line2d_6">
      <g>
       <use style="stroke:#000000;stroke-width:0.8;" x="259.811462" xlink:href="#m61883f053f" y="273.312"/>
      </g>
     </g>
     <g id="text_6">
      <!-- 12.5 -->
      <g transform="translate(248.678649 287.910437)scale(0.1 -0.1)">
       <use xlink:href="#DejaVuSans-49"/>
       <use x="63.623047" xlink:href="#DejaVuSans-50"/>
       <use x="127.246094" xlink:href="#DejaVuSans-46"/>
       <use x="159.033203" xlink:href="#DejaVuSans-53"/>
      </g>
     </g>
    </g>
    <g id="xtick_7">
     <g id="line2d_7">
      <g>
       <use style="stroke:#000000;stroke-width:0.8;" x="300.597209" xlink:href="#m61883f053f" y="273.312"/>
      </g>
     </g>
     <g id="text_7">
      <!-- 15.0 -->
      <g transform="translate(289.464396 287.910437)scale(0.1 -0.1)">
       <use xlink:href="#DejaVuSans-49"/>
       <use x="63.623047" xlink:href="#DejaVuSans-53"/>
       <use x="127.246094" xlink:href="#DejaVuSans-46"/>
       <use x="159.033203" xlink:href="#DejaVuSans-48"/>
      </g>
     </g>
    </g>
    <g id="xtick_8">
     <g id="line2d_8">
      <g>
       <use style="stroke:#000000;stroke-width:0.8;" x="341.382956" xlink:href="#m61883f053f" y="273.312"/>
      </g>
     </g>
     <g id="text_8">
      <!-- 17.5 -->
      <g transform="translate(330.250143 287.910437)scale(0.1 -0.1)">
       <use xlink:href="#DejaVuSans-49"/>
       <use x="63.623047" xlink:href="#DejaVuSans-55"/>
       <use x="127.246094" xlink:href="#DejaVuSans-46"/>
       <use x="159.033203" xlink:href="#DejaVuSans-53"/>
      </g>
     </g>
    </g>
    <g id="xtick_9">
     <g id="line2d_9">
      <g>
       <use style="stroke:#000000;stroke-width:0.8;" x="382.168703" xlink:href="#m61883f053f" y="273.312"/>
      </g>
     </g>
     <g id="text_9">
      <!-- 20.0 -->
      <g transform="translate(371.03589 287.910437)scale(0.1 -0.1)">
       <use xlink:href="#DejaVuSans-50"/>
       <use x="63.623047" xlink:href="#DejaVuSans-48"/>
       <use x="127.246094" xlink:href="#DejaVuSans-46"/>
       <use x="159.033203" xlink:href="#DejaVuSans-48"/>
      </g>
     </g>
    </g>
   </g>
   <g id="matplotlib.axis_2">
    <g id="ytick_1">
     <g id="line2d_10">
      <defs>
       <path d="M 0 0 
L -3.5 0 
" id="m13e5f76093" style="stroke:#000000;stroke-width:0.8;"/>
      </defs>
      <g>
       <use style="stroke:#000000;stroke-width:0.8;" x="39.65" xlink:href="#m13e5f76093" y="261.216"/>
      </g>
     </g>
     <g id="text_10">
      <!-- 0 -->
      <g transform="translate(26.2875 265.015219)scale(0.1 -0.1)">
       <use xlink:href="#DejaVuSans-48"/>
      </g>
     </g>
    </g>
    <g id="ytick_2">
     <g id="line2d_11">
      <g>
       <use style="stroke:#000000;stroke-width:0.8;" x="39.65" xlink:href="#m13e5f76093" y="226.862876"/>
      </g>
     </g>
     <g id="text_11">
      <!-- 500 -->
      <g transform="translate(13.5625 230.662095)scale(0.1 -0.1)">
       <use xlink:href="#DejaVuSans-53"/>
       <use x="63.623047" xlink:href="#DejaVuSans-48"/>
       <use x="127.246094" xlink:href="#DejaVuSans-48"/>
      </g>
     </g>
    </g>
    <g id="ytick_3">
     <g id="line2d_12">
      <g>
       <use style="stroke:#000000;stroke-width:0.8;" x="39.65" xlink:href="#m13e5f76093" y="192.509752"/>
      </g>
     </g>
     <g id="text_12">
      <!-- 1000 -->
      <g transform="translate(7.2 196.308971)scale(0.1 -0.1)">
       <use xlink:href="#DejaVuSans-49"/>
       <use x="63.623047" xlink:href="#DejaVuSans-48"/>
       <use x="127.246094" xlink:href="#DejaVuSans-48"/>
       <use x="190.869141" xlink:href="#DejaVuSans-48"/>
      </g>
     </g>
    </g>
    <g id="ytick_4">
     <g id="line2d_13">
      <g>
       <use style="stroke:#000000;stroke-width:0.8;" x="39.65" xlink:href="#m13e5f76093" y="158.156628"/>
      </g>
     </g>
     <g id="text_13">
      <!-- 1500 -->
      <g transform="translate(7.2 161.955847)scale(0.1 -0.1)">
       <use xlink:href="#DejaVuSans-49"/>
       <use x="63.623047" xlink:href="#DejaVuSans-53"/>
       <use x="127.246094" xlink:href="#DejaVuSans-48"/>
       <use x="190.869141" xlink:href="#DejaVuSans-48"/>
      </g>
     </g>
    </g>
    <g id="ytick_5">
     <g id="line2d_14">
      <g>
       <use style="stroke:#000000;stroke-width:0.8;" x="39.65" xlink:href="#m13e5f76093" y="123.803504"/>
      </g>
     </g>
     <g id="text_14">
      <!-- 2000 -->
      <g transform="translate(7.2 127.602722)scale(0.1 -0.1)">
       <use xlink:href="#DejaVuSans-50"/>
       <use x="63.623047" xlink:href="#DejaVuSans-48"/>
       <use x="127.246094" xlink:href="#DejaVuSans-48"/>
       <use x="190.869141" xlink:href="#DejaVuSans-48"/>
      </g>
     </g>
    </g>
    <g id="ytick_6">
     <g id="line2d_15">
      <g>
       <use style="stroke:#000000;stroke-width:0.8;" x="39.65" xlink:href="#m13e5f76093" y="89.45038"/>
      </g>
     </g>
     <g id="text_15">
      <!-- 2500 -->
      <g transform="translate(7.2 93.249598)scale(0.1 -0.1)">
       <use xlink:href="#DejaVuSans-50"/>
       <use x="63.623047" xlink:href="#DejaVuSans-53"/>
       <use x="127.246094" xlink:href="#DejaVuSans-48"/>
       <use x="190.869141" xlink:href="#DejaVuSans-48"/>
      </g>
     </g>
    </g>
    <g id="ytick_7">
     <g id="line2d_16">
      <g>
       <use style="stroke:#000000;stroke-width:0.8;" x="39.65" xlink:href="#m13e5f76093" y="55.097256"/>
      </g>
     </g>
     <g id="text_16">
      <!-- 3000 -->
      <g transform="translate(7.2 58.896474)scale(0.1 -0.1)">
       <defs>
        <path d="M 40.578125 39.3125 
Q 47.65625 37.796875 51.625 33 
Q 55.609375 28.21875 55.609375 21.1875 
Q 55.609375 10.40625 48.1875 4.484375 
Q 40.765625 -1.421875 27.09375 -1.421875 
Q 22.515625 -1.421875 17.65625 -0.515625 
Q 12.796875 0.390625 7.625 2.203125 
L 7.625 11.71875 
Q 11.71875 9.328125 16.59375 8.109375 
Q 21.484375 6.890625 26.8125 6.890625 
Q 36.078125 6.890625 40.9375 10.546875 
Q 45.796875 14.203125 45.796875 21.1875 
Q 45.796875 27.640625 41.28125 31.265625 
Q 36.765625 34.90625 28.71875 34.90625 
L 20.21875 34.90625 
L 20.21875 43.015625 
L 29.109375 43.015625 
Q 36.375 43.015625 40.234375 45.921875 
Q 44.09375 48.828125 44.09375 54.296875 
Q 44.09375 59.90625 40.109375 62.90625 
Q 36.140625 65.921875 28.71875 65.921875 
Q 24.65625 65.921875 20.015625 65.03125 
Q 15.375 64.15625 9.8125 62.3125 
L 9.8125 71.09375 
Q 15.4375 72.65625 20.34375 73.4375 
Q 25.25 74.21875 29.59375 74.21875 
Q 40.828125 74.21875 47.359375 69.109375 
Q 53.90625 64.015625 53.90625 55.328125 
Q 53.90625 49.265625 50.4375 45.09375 
Q 46.96875 40.921875 40.578125 39.3125 
z
" id="DejaVuSans-51"/>
       </defs>
       <use xlink:href="#DejaVuSans-51"/>
       <use x="63.623047" xlink:href="#DejaVuSans-48"/>
       <use x="127.246094" xlink:href="#DejaVuSans-48"/>
       <use x="190.869141" xlink:href="#DejaVuSans-48"/>
      </g>
     </g>
    </g>
    <g id="ytick_8">
     <g id="line2d_17">
      <g>
       <use style="stroke:#000000;stroke-width:0.8;" x="39.65" xlink:href="#m13e5f76093" y="20.744132"/>
      </g>
     </g>
     <g id="text_17">
      <!-- 3500 -->
      <g transform="translate(7.2 24.54335)scale(0.1 -0.1)">
       <use xlink:href="#DejaVuSans-51"/>
       <use x="63.623047" xlink:href="#DejaVuSans-53"/>
       <use x="127.246094" xlink:href="#DejaVuSans-48"/>
       <use x="190.869141" xlink:href="#DejaVuSans-48"/>
      </g>
     </g>
    </g>
   </g>
   <g id="line2d_18">
    <path clip-path="url(#p900f8d137d)" d="M 55.882727 261.216 
L 72.197026 192.509752 
L 88.511325 143.281725 
L 104.825624 108.009844 
L 121.139922 82.737541 
L 137.454221 64.629936 
L 153.76852 51.655837 
L 170.082819 42.359895 
L 186.397117 35.699353 
L 202.711416 30.927074 
L 219.025715 27.507736 
L 235.340014 25.057781 
L 251.654312 23.302388 
L 267.968611 22.044649 
L 284.28291 21.143479 
L 300.597209 20.49779 
L 316.911508 20.035155 
L 333.225806 19.703676 
L 349.540105 19.466172 
L 365.854404 19.296 
" style="fill:none;stroke:#1f77b4;stroke-linecap:square;stroke-width:1.5;"/>
   </g>
   <g id="line2d_19">
    <path clip-path="url(#p900f8d137d)" d="M 55.882727 261.216 
L 72.197026 261.216 
L 88.511325 238.313917 
L 104.825624 210.146646 
L 121.139922 183.928275 
L 137.454221 162.043662 
L 153.76852 144.772234 
L 170.082819 131.580383 
L 186.397117 121.709039 
L 202.711416 114.420911 
L 219.025715 109.088426 
L 235.340014 105.210949 
L 251.654312 102.4036 
L 267.968611 100.377177 
L 284.28291 98.917564 
L 300.597209 97.867809 
L 316.911508 97.113636 
L 333.225806 96.572231 
L 349.540105 96.183781 
L 365.854404 95.905183 
" style="fill:none;stroke:#ff7f0e;stroke-linecap:square;stroke-width:1.5;"/>
   </g>
   <g id="line2d_20">
    <path clip-path="url(#p900f8d137d)" d="M 55.882727 261.216 
L 57.514157 254.139256 
L 59.145587 248.093107 
L 60.777017 241.085069 
L 62.408447 236.344338 
L 64.039877 230.573013 
L 65.671307 225.557457 
L 67.302736 219.923545 
L 68.934166 215.320226 
L 70.565596 209.20537 
L 72.197026 203.571458 
L 73.828456 198.968139 
L 77.091316 190.448564 
L 78.722746 185.089477 
L 80.354175 182.409933 
L 83.617035 173.409415 
L 85.248465 170.798577 
L 86.879895 166.401378 
L 88.511325 163.172184 
L 90.142755 159.668165 
L 93.405614 153.828134 
L 95.037044 150.461528 
L 96.668474 146.820097 
L 98.299904 142.697722 
L 99.931334 139.537235 
L 101.562764 136.033216 
L 103.194194 134.178147 
L 106.457053 127.307522 
L 108.088483 124.490566 
L 109.719913 121.948435 
L 111.351343 120.368191 
L 112.982773 117.345116 
L 116.245633 114.047216 
L 117.877063 112.398267 
L 121.139922 110.818023 
L 122.771352 110.818023 
L 124.402782 108.688129 
L 126.034212 107.176592 
L 127.665642 107.245298 
L 129.297072 106.352117 
L 134.191361 100.924323 
L 135.822791 100.855617 
L 137.454221 98.450898 
L 139.085651 97.901248 
L 140.717081 96.664536 
L 142.348511 95.633942 
L 143.979941 93.641461 
L 145.61137 91.992511 
L 147.2428 91.236742 
L 152.13709 87.045661 
L 153.76852 84.915767 
L 155.39995 83.129405 
L 157.03138 80.243742 
L 158.66281 79.694092 
L 160.294239 80.65598 
L 161.925669 79.900211 
L 163.557099 78.938324 
L 165.188529 78.594792 
L 166.819959 77.220667 
L 168.451389 76.739724 
L 170.082819 77.083255 
L 171.714249 76.121368 
L 173.345678 75.571718 
L 174.977108 73.304411 
L 176.608538 71.655461 
L 178.239968 71.586755 
L 179.871398 70.281336 
L 181.502828 67.876618 
L 183.134258 66.983437 
L 184.765688 65.128368 
L 186.397117 64.990955 
L 188.028547 66.502493 
L 189.659977 65.197074 
L 191.291407 66.021549 
L 192.922837 66.090255 
L 194.554267 65.059662 
L 196.185697 64.235187 
L 197.817127 62.586237 
L 199.448556 61.693055 
L 202.711416 62.654943 
L 205.974276 61.899174 
L 207.605706 60.525049 
L 209.237136 60.456343 
L 210.868566 61.280818 
L 212.499995 60.112812 
L 214.131425 59.425749 
L 215.762855 58.395156 
L 217.394285 57.021031 
L 219.025715 58.326449 
L 220.657145 58.257743 
L 222.288575 58.807393 
L 223.920005 58.944805 
L 225.551434 58.944805 
L 230.445724 60.044105 
L 232.077154 59.082218 
L 233.708584 58.257743 
L 235.340014 57.845506 
L 236.971444 57.227149 
L 238.602873 57.295856 
L 240.234303 57.845506 
L 241.865733 56.196556 
L 243.497163 54.753724 
L 245.128593 54.547606 
L 246.760023 53.997956 
L 250.022883 53.379599 
L 251.654312 55.509493 
L 253.285742 55.509493 
L 254.917172 54.891137 
L 256.548602 53.929249 
L 258.180032 55.097256 
L 259.811462 54.685018 
L 261.442892 55.646906 
L 263.074322 55.303374 
L 264.705751 56.333968 
L 266.337181 55.646906 
L 267.968611 55.715612 
L 269.600041 53.585718 
L 271.231471 54.547606 
L 272.862901 54.753724 
L 274.494331 54.685018 
L 276.125761 53.448306 
L 277.75719 55.234668 
L 279.38862 53.997956 
L 281.02005 54.204074 
L 282.65148 54.066662 
L 284.28291 54.478899 
L 285.91434 54.547606 
L 287.54577 53.448306 
L 289.1772 54.547606 
L 292.440059 54.616312 
L 294.071489 54.891137 
L 295.702919 55.372081 
L 297.334349 57.158443 
L 298.965779 57.227149 
L 300.597209 59.357043 
L 302.228639 58.807393 
L 303.860069 58.807393 
L 305.491498 58.463862 
L 307.122928 56.265262 
L 308.754358 55.578199 
L 310.385788 55.646906 
L 312.017218 55.303374 
L 313.648648 55.646906 
L 315.280078 54.959843 
L 316.911508 54.616312 
L 318.542937 53.654424 
L 320.174367 52.280299 
L 321.805797 52.486418 
L 323.437227 53.997956 
L 325.068657 54.204074 
L 326.700087 53.379599 
L 328.331517 53.929249 
L 329.962947 54.341487 
L 331.594376 53.723131 
L 333.225806 54.204074 
L 334.857236 53.723131 
L 336.488666 54.410193 
L 338.120096 55.509493 
L 339.751526 56.471381 
L 341.382956 55.784318 
L 343.014386 55.921731 
L 344.645815 55.853024 
L 346.277245 56.608793 
L 347.908675 55.509493 
L 349.540105 56.402674 
L 351.171535 56.402674 
L 352.802965 57.089737 
L 354.434395 56.746206 
L 359.328684 56.196556 
L 360.960114 56.402674 
L 362.591544 58.257743 
L 364.222974 56.265262 
L 365.854404 55.715612 
L 367.485834 55.715612 
L 369.117264 57.295856 
L 370.748693 56.677499 
L 372.380123 54.685018 
L 374.011553 55.028549 
L 375.642983 57.433268 
L 377.274413 57.845506 
L 378.905843 57.089737 
L 380.537273 58.738687 
L 380.537273 58.738687 
" style="fill:none;stroke:#2ca02c;stroke-linecap:square;stroke-width:1.5;"/>
   </g>
   <g id="line2d_21">
    <path clip-path="url(#p900f8d137d)" d="M 55.882727 261.216 
L 57.514157 261.147294 
L 60.777017 260.391525 
L 64.039877 259.0174 
L 67.302736 257.162331 
L 68.934166 255.994325 
L 72.197026 254.001844 
L 73.828456 252.4216 
L 75.459886 251.253594 
L 77.091316 250.291707 
L 78.722746 248.367932 
L 80.354175 245.757094 
L 81.985605 244.589088 
L 83.617035 243.146257 
L 85.248465 240.329301 
L 88.511325 238.336819 
L 90.142755 236.344338 
L 91.774185 235.657276 
L 93.405614 234.626682 
L 96.668474 229.954657 
L 98.299904 228.924063 
L 101.562764 225.282632 
L 103.194194 222.671795 
L 104.825624 222.259557 
L 106.457053 220.060957 
L 109.719913 217.244001 
L 111.351343 216.419526 
L 112.982773 215.388932 
L 114.614203 214.15222 
L 116.245633 211.747501 
L 119.508492 207.693833 
L 121.139922 206.663239 
L 122.771352 205.014289 
L 124.402782 202.678277 
L 126.034212 202.197333 
L 127.665642 199.517789 
L 129.297072 198.830727 
L 130.928502 196.975658 
L 132.559931 195.807652 
L 134.191361 195.532827 
L 135.822791 193.952583 
L 137.454221 193.540346 
L 140.717081 189.074439 
L 142.348511 187.837727 
L 143.979941 187.013252 
L 145.61137 185.570421 
L 147.2428 185.433008 
L 148.87423 184.402415 
L 150.50566 184.814652 
L 152.13709 183.715352 
L 153.76852 183.715352 
L 155.39995 183.234408 
L 157.03138 183.303115 
L 158.66281 182.822171 
L 160.294239 181.035808 
L 163.557099 180.073921 
L 165.188529 178.356265 
L 166.819959 177.944027 
L 168.451389 178.08144 
L 171.714249 175.33319 
L 173.345678 175.814134 
L 174.977108 175.264484 
L 176.608538 175.814134 
L 178.239968 173.065884 
L 179.871398 174.440009 
L 181.502828 174.714834 
L 183.134258 174.646127 
L 184.765688 174.920952 
L 186.397117 173.340709 
L 188.028547 172.791059 
L 189.659977 173.340709 
L 191.291407 172.58494 
L 192.922837 170.93599 
L 196.185697 170.867284 
L 197.817127 170.455046 
L 201.079986 168.462565 
L 202.711416 167.569384 
L 204.342846 167.225853 
L 205.974276 168.050328 
L 207.605706 169.28704 
L 210.868566 166.53879 
L 212.499995 167.157146 
L 214.131425 167.63809 
L 215.762855 166.057846 
L 219.025715 164.202778 
L 220.657145 165.370784 
L 222.288575 164.271484 
L 223.920005 162.347709 
L 225.551434 163.034771 
L 227.182864 161.04229 
L 230.445724 159.462047 
L 232.077154 161.660646 
L 233.708584 161.317115 
L 235.340014 161.798059 
L 236.971444 162.004178 
L 238.602873 162.759946 
L 240.234303 162.897359 
L 243.497163 165.027253 
L 245.128593 164.615015 
L 246.760023 163.927953 
L 248.391453 163.721834 
L 250.022883 162.897359 
L 251.654312 163.24089 
L 253.285742 164.546309 
L 254.917172 164.615015 
L 256.548602 163.859246 
L 258.180032 161.729353 
L 259.811462 161.248409 
L 261.442892 162.622534 
L 263.074322 162.279003 
L 264.705751 161.729353 
L 266.337181 162.004178 
L 267.968611 160.767465 
L 269.600041 161.59194 
L 271.231471 161.798059 
L 274.494331 161.660646 
L 276.125761 162.004178 
L 277.75719 159.805578 
L 279.38862 161.317115 
L 281.02005 161.866765 
L 282.65148 161.385821 
L 284.28291 160.149109 
L 285.91434 160.49264 
L 287.54577 159.736872 
L 289.1772 159.255928 
L 290.80863 159.94299 
L 292.440059 158.981103 
L 295.702919 158.84369 
L 297.334349 157.19474 
L 298.965779 156.507678 
L 300.597209 155.477084 
L 303.860069 158.019215 
L 305.491498 158.500159 
L 307.122928 157.74439 
L 308.754358 158.29404 
L 310.385788 158.087922 
L 312.017218 159.049809 
L 313.648648 158.912397 
L 316.911508 157.881803 
L 318.542937 157.675684 
L 320.174367 157.74439 
L 321.805797 158.431453 
L 323.437227 157.74439 
L 325.068657 158.362747 
L 326.700087 160.149109 
L 328.331517 160.011696 
L 329.962947 160.49264 
L 331.594376 160.355228 
L 333.225806 159.39334 
L 334.857236 160.698759 
L 336.488666 159.462047 
L 338.120096 156.576384 
L 339.751526 155.751909 
L 341.382956 155.958028 
L 343.014386 155.751909 
L 344.645815 154.721315 
L 346.277245 154.034253 
L 347.908675 154.652609 
L 349.540105 153.484603 
L 351.171535 154.652609 
L 352.802965 154.171665 
L 354.434395 154.034253 
L 356.065825 156.026734 
L 357.697254 156.232853 
L 359.328684 156.713797 
L 360.960114 156.576384 
L 362.591544 155.614497 
L 364.222974 157.126034 
L 365.854404 156.919915 
L 367.485834 155.889322 
L 369.117264 156.370265 
L 370.748693 157.469565 
L 372.380123 159.187222 
L 374.011553 158.981103 
L 375.642983 156.782503 
L 378.905843 156.988622 
L 380.537273 155.958028 
L 380.537273 155.958028 
" style="fill:none;stroke:#d62728;stroke-linecap:square;stroke-width:1.5;"/>
   </g>
   <g id="patch_3">
    <path d="M 39.65 273.312 
L 39.65 7.2 
" style="fill:none;stroke:#000000;stroke-linecap:square;stroke-linejoin:miter;stroke-width:0.8;"/>
   </g>
   <g id="patch_4">
    <path d="M 396.77 273.312 
L 396.77 7.2 
" style="fill:none;stroke:#000000;stroke-linecap:square;stroke-linejoin:miter;stroke-width:0.8;"/>
   </g>
   <g id="patch_5">
    <path d="M 39.65 273.312 
L 396.77 273.312 
" style="fill:none;stroke:#000000;stroke-linecap:square;stroke-linejoin:miter;stroke-width:0.8;"/>
   </g>
   <g id="patch_6">
    <path d="M 39.65 7.2 
L 396.77 7.2 
" style="fill:none;stroke:#000000;stroke-linecap:square;stroke-linejoin:miter;stroke-width:0.8;"/>
   </g>
  </g>
 </g>
 <defs>
  <clipPath id="p900f8d137d">
   <rect height="266.112" width="357.12" x="39.65" y="7.2"/>
  </clipPath>
 </defs>
</svg>
