<?xml version="1.0" encoding="utf-8" standalone="no"?>
<!DOCTYPE svg PUBLIC "-//W3C//DTD SVG 1.1//EN"
  "http://www.w3.org/Graphics/SVG/1.1/DTD/svg11.dtd">
<!-- Created with matplotlib (https://matplotlib.org/) -->
<svg height="298.101371pt" version="1.1" viewBox="0 0 397.6075 298.101371" width="397.6075pt" xmlns="http://www.w3.org/2000/svg" xmlns:xlink="http://www.w3.org/1999/xlink">
 <metadata>
  <rdf:RDF xmlns:cc="http://creativecommons.org/ns#" xmlns:dc="http://purl.org/dc/elements/1.1/" xmlns:rdf="http://www.w3.org/1999/02/22-rdf-syntax-ns#">
   <cc:Work>
    <dc:type rdf:resource="http://purl.org/dc/dcmitype/StillImage"/>
    <dc:date>2021-03-17T00:05:18.636826</dc:date>
    <dc:format>image/svg+xml</dc:format>
    <dc:creator>
     <cc:Agent>
      <dc:title>Matplotlib v3.3.4, https://matplotlib.org/</dc:title>
     </cc:Agent>
    </dc:creator>
   </cc:Work>
  </rdf:RDF>
 </metadata>
 <defs>
  <style type="text/css">*{stroke-linecap:butt;stroke-linejoin:round;}</style>
 </defs>
 <g id="figure_1">
  <g id="patch_1">
   <path d="M 0 298.101371 
L 397.6075 298.101371 
L 397.6075 0 
L 0 0 
z
" style="fill:#ffffff;"/>
  </g>
  <g id="axes_1">
   <g id="patch_2">
    <path d="M 33.2875 274.223246 
L 390.4075 274.223246 
L 390.4075 8.111246 
L 33.2875 8.111246 
z
" style="fill:#ffffff;"/>
   </g>
   <g id="matplotlib.axis_1">
    <g id="xtick_1">
     <g id="line2d_1">
      <defs>
       <path d="M 0 0 
L 0 3.5 
" id="m24ff5457a6" style="stroke:#000000;stroke-width:0.8;"/>
      </defs>
      <g>
       <use style="stroke:#000000;stroke-width:0.8;" x="49.520227" xlink:href="#m24ff5457a6" y="274.223246"/>
      </g>
     </g>
     <g id="text_1">
      <!-- 0.0 -->
      <g transform="translate(41.568665 288.821684)scale(0.1 -0.1)">
       <defs>
        <path d="M 31.78125 66.40625 
Q 24.171875 66.40625 20.328125 58.90625 
Q 16.5 51.421875 16.5 36.375 
Q 16.5 21.390625 20.328125 13.890625 
Q 24.171875 6.390625 31.78125 6.390625 
Q 39.453125 6.390625 43.28125 13.890625 
Q 47.125 21.390625 47.125 36.375 
Q 47.125 51.421875 43.28125 58.90625 
Q 39.453125 66.40625 31.78125 66.40625 
z
M 31.78125 74.21875 
Q 44.046875 74.21875 50.515625 64.515625 
Q 56.984375 54.828125 56.984375 36.375 
Q 56.984375 17.96875 50.515625 8.265625 
Q 44.046875 -1.421875 31.78125 -1.421875 
Q 19.53125 -1.421875 13.0625 8.265625 
Q 6.59375 17.96875 6.59375 36.375 
Q 6.59375 54.828125 13.0625 64.515625 
Q 19.53125 74.21875 31.78125 74.21875 
z
" id="DejaVuSans-48"/>
        <path d="M 10.6875 12.40625 
L 21 12.40625 
L 21 0 
L 10.6875 0 
z
" id="DejaVuSans-46"/>
       </defs>
       <use xlink:href="#DejaVuSans-48"/>
       <use x="63.623047" xlink:href="#DejaVuSans-46"/>
       <use x="95.410156" xlink:href="#DejaVuSans-48"/>
      </g>
     </g>
    </g>
    <g id="xtick_2">
     <g id="line2d_2">
      <g>
       <use style="stroke:#000000;stroke-width:0.8;" x="90.305974" xlink:href="#m24ff5457a6" y="274.223246"/>
      </g>
     </g>
     <g id="text_2">
      <!-- 2.5 -->
      <g transform="translate(82.354412 288.821684)scale(0.1 -0.1)">
       <defs>
        <path d="M 19.1875 8.296875 
L 53.609375 8.296875 
L 53.609375 0 
L 7.328125 0 
L 7.328125 8.296875 
Q 12.9375 14.109375 22.625 23.890625 
Q 32.328125 33.6875 34.8125 36.53125 
Q 39.546875 41.84375 41.421875 45.53125 
Q 43.3125 49.21875 43.3125 52.78125 
Q 43.3125 58.59375 39.234375 62.25 
Q 35.15625 65.921875 28.609375 65.921875 
Q 23.96875 65.921875 18.8125 64.3125 
Q 13.671875 62.703125 7.8125 59.421875 
L 7.8125 69.390625 
Q 13.765625 71.78125 18.9375 73 
Q 24.125 74.21875 28.421875 74.21875 
Q 39.75 74.21875 46.484375 68.546875 
Q 53.21875 62.890625 53.21875 53.421875 
Q 53.21875 48.921875 51.53125 44.890625 
Q 49.859375 40.875 45.40625 35.40625 
Q 44.1875 33.984375 37.640625 27.21875 
Q 31.109375 20.453125 19.1875 8.296875 
z
" id="DejaVuSans-50"/>
        <path d="M 10.796875 72.90625 
L 49.515625 72.90625 
L 49.515625 64.59375 
L 19.828125 64.59375 
L 19.828125 46.734375 
Q 21.96875 47.46875 24.109375 47.828125 
Q 26.265625 48.1875 28.421875 48.1875 
Q 40.625 48.1875 47.75 41.5 
Q 54.890625 34.8125 54.890625 23.390625 
Q 54.890625 11.625 47.5625 5.09375 
Q 40.234375 -1.421875 26.90625 -1.421875 
Q 22.3125 -1.421875 17.546875 -0.640625 
Q 12.796875 0.140625 7.71875 1.703125 
L 7.71875 11.625 
Q 12.109375 9.234375 16.796875 8.0625 
Q 21.484375 6.890625 26.703125 6.890625 
Q 35.15625 6.890625 40.078125 11.328125 
Q 45.015625 15.765625 45.015625 23.390625 
Q 45.015625 31 40.078125 35.4375 
Q 35.15625 39.890625 26.703125 39.890625 
Q 22.75 39.890625 18.8125 39.015625 
Q 14.890625 38.140625 10.796875 36.28125 
z
" id="DejaVuSans-53"/>
       </defs>
       <use xlink:href="#DejaVuSans-50"/>
       <use x="63.623047" xlink:href="#DejaVuSans-46"/>
       <use x="95.410156" xlink:href="#DejaVuSans-53"/>
      </g>
     </g>
    </g>
    <g id="xtick_3">
     <g id="line2d_3">
      <g>
       <use style="stroke:#000000;stroke-width:0.8;" x="131.091721" xlink:href="#m24ff5457a6" y="274.223246"/>
      </g>
     </g>
     <g id="text_3">
      <!-- 5.0 -->
      <g transform="translate(123.140159 288.821684)scale(0.1 -0.1)">
       <use xlink:href="#DejaVuSans-53"/>
       <use x="63.623047" xlink:href="#DejaVuSans-46"/>
       <use x="95.410156" xlink:href="#DejaVuSans-48"/>
      </g>
     </g>
    </g>
    <g id="xtick_4">
     <g id="line2d_4">
      <g>
       <use style="stroke:#000000;stroke-width:0.8;" x="171.877468" xlink:href="#m24ff5457a6" y="274.223246"/>
      </g>
     </g>
     <g id="text_4">
      <!-- 7.5 -->
      <g transform="translate(163.925906 288.821684)scale(0.1 -0.1)">
       <defs>
        <path d="M 8.203125 72.90625 
L 55.078125 72.90625 
L 55.078125 68.703125 
L 28.609375 0 
L 18.3125 0 
L 43.21875 64.59375 
L 8.203125 64.59375 
z
" id="DejaVuSans-55"/>
       </defs>
       <use xlink:href="#DejaVuSans-55"/>
       <use x="63.623047" xlink:href="#DejaVuSans-46"/>
       <use x="95.410156" xlink:href="#DejaVuSans-53"/>
      </g>
     </g>
    </g>
    <g id="xtick_5">
     <g id="line2d_5">
      <g>
       <use style="stroke:#000000;stroke-width:0.8;" x="212.663215" xlink:href="#m24ff5457a6" y="274.223246"/>
      </g>
     </g>
     <g id="text_5">
      <!-- 10.0 -->
      <g transform="translate(201.530402 288.821684)scale(0.1 -0.1)">
       <defs>
        <path d="M 12.40625 8.296875 
L 28.515625 8.296875 
L 28.515625 63.921875 
L 10.984375 60.40625 
L 10.984375 69.390625 
L 28.421875 72.90625 
L 38.28125 72.90625 
L 38.28125 8.296875 
L 54.390625 8.296875 
L 54.390625 0 
L 12.40625 0 
z
" id="DejaVuSans-49"/>
       </defs>
       <use xlink:href="#DejaVuSans-49"/>
       <use x="63.623047" xlink:href="#DejaVuSans-48"/>
       <use x="127.246094" xlink:href="#DejaVuSans-46"/>
       <use x="159.033203" xlink:href="#DejaVuSans-48"/>
      </g>
     </g>
    </g>
    <g id="xtick_6">
     <g id="line2d_6">
      <g>
       <use style="stroke:#000000;stroke-width:0.8;" x="253.448962" xlink:href="#m24ff5457a6" y="274.223246"/>
      </g>
     </g>
     <g id="text_6">
      <!-- 12.5 -->
      <g transform="translate(242.316149 288.821684)scale(0.1 -0.1)">
       <use xlink:href="#DejaVuSans-49"/>
       <use x="63.623047" xlink:href="#DejaVuSans-50"/>
       <use x="127.246094" xlink:href="#DejaVuSans-46"/>
       <use x="159.033203" xlink:href="#DejaVuSans-53"/>
      </g>
     </g>
    </g>
    <g id="xtick_7">
     <g id="line2d_7">
      <g>
       <use style="stroke:#000000;stroke-width:0.8;" x="294.234709" xlink:href="#m24ff5457a6" y="274.223246"/>
      </g>
     </g>
     <g id="text_7">
      <!-- 15.0 -->
      <g transform="translate(283.101896 288.821684)scale(0.1 -0.1)">
       <use xlink:href="#DejaVuSans-49"/>
       <use x="63.623047" xlink:href="#DejaVuSans-53"/>
       <use x="127.246094" xlink:href="#DejaVuSans-46"/>
       <use x="159.033203" xlink:href="#DejaVuSans-48"/>
      </g>
     </g>
    </g>
    <g id="xtick_8">
     <g id="line2d_8">
      <g>
       <use style="stroke:#000000;stroke-width:0.8;" x="335.020456" xlink:href="#m24ff5457a6" y="274.223246"/>
      </g>
     </g>
     <g id="text_8">
      <!-- 17.5 -->
      <g transform="translate(323.887643 288.821684)scale(0.1 -0.1)">
       <use xlink:href="#DejaVuSans-49"/>
       <use x="63.623047" xlink:href="#DejaVuSans-55"/>
       <use x="127.246094" xlink:href="#DejaVuSans-46"/>
       <use x="159.033203" xlink:href="#DejaVuSans-53"/>
      </g>
     </g>
    </g>
    <g id="xtick_9">
     <g id="line2d_9">
      <g>
       <use style="stroke:#000000;stroke-width:0.8;" x="375.806203" xlink:href="#m24ff5457a6" y="274.223246"/>
      </g>
     </g>
     <g id="text_9">
      <!-- 20.0 -->
      <g transform="translate(364.67339 288.821684)scale(0.1 -0.1)">
       <use xlink:href="#DejaVuSans-50"/>
       <use x="63.623047" xlink:href="#DejaVuSans-48"/>
       <use x="127.246094" xlink:href="#DejaVuSans-46"/>
       <use x="159.033203" xlink:href="#DejaVuSans-48"/>
      </g>
     </g>
    </g>
   </g>
   <g id="matplotlib.axis_2">
    <g id="ytick_1">
     <g id="line2d_10">
      <defs>
       <path d="M 0 0 
L -3.5 0 
" id="m64f07cf81c" style="stroke:#000000;stroke-width:0.8;"/>
      </defs>
      <g>
       <use style="stroke:#000000;stroke-width:0.8;" x="33.2875" xlink:href="#m64f07cf81c" y="262.127246"/>
      </g>
     </g>
     <g id="text_10">
      <!-- 0 -->
      <g transform="translate(19.925 265.926465)scale(0.1 -0.1)">
       <use xlink:href="#DejaVuSans-48"/>
      </g>
     </g>
    </g>
    <g id="ytick_2">
     <g id="line2d_11">
      <g>
       <use style="stroke:#000000;stroke-width:0.8;" x="33.2875" xlink:href="#m64f07cf81c" y="220.272575"/>
      </g>
     </g>
     <g id="text_11">
      <!-- 50 -->
      <g transform="translate(13.5625 224.071794)scale(0.1 -0.1)">
       <use xlink:href="#DejaVuSans-53"/>
       <use x="63.623047" xlink:href="#DejaVuSans-48"/>
      </g>
     </g>
    </g>
    <g id="ytick_3">
     <g id="line2d_12">
      <g>
       <use style="stroke:#000000;stroke-width:0.8;" x="33.2875" xlink:href="#m64f07cf81c" y="178.417904"/>
      </g>
     </g>
     <g id="text_12">
      <!-- 100 -->
      <g transform="translate(7.2 182.217123)scale(0.1 -0.1)">
       <use xlink:href="#DejaVuSans-49"/>
       <use x="63.623047" xlink:href="#DejaVuSans-48"/>
       <use x="127.246094" xlink:href="#DejaVuSans-48"/>
      </g>
     </g>
    </g>
    <g id="ytick_4">
     <g id="line2d_13">
      <g>
       <use style="stroke:#000000;stroke-width:0.8;" x="33.2875" xlink:href="#m64f07cf81c" y="136.563233"/>
      </g>
     </g>
     <g id="text_13">
      <!-- 150 -->
      <g transform="translate(7.2 140.362451)scale(0.1 -0.1)">
       <use xlink:href="#DejaVuSans-49"/>
       <use x="63.623047" xlink:href="#DejaVuSans-53"/>
       <use x="127.246094" xlink:href="#DejaVuSans-48"/>
      </g>
     </g>
    </g>
    <g id="ytick_5">
     <g id="line2d_14">
      <g>
       <use style="stroke:#000000;stroke-width:0.8;" x="33.2875" xlink:href="#m64f07cf81c" y="94.708561"/>
      </g>
     </g>
     <g id="text_14">
      <!-- 200 -->
      <g transform="translate(7.2 98.50778)scale(0.1 -0.1)">
       <use xlink:href="#DejaVuSans-50"/>
       <use x="63.623047" xlink:href="#DejaVuSans-48"/>
       <use x="127.246094" xlink:href="#DejaVuSans-48"/>
      </g>
     </g>
    </g>
    <g id="ytick_6">
     <g id="line2d_15">
      <g>
       <use style="stroke:#000000;stroke-width:0.8;" x="33.2875" xlink:href="#m64f07cf81c" y="52.85389"/>
      </g>
     </g>
     <g id="text_15">
      <!-- 250 -->
      <g transform="translate(7.2 56.653109)scale(0.1 -0.1)">
       <use xlink:href="#DejaVuSans-50"/>
       <use x="63.623047" xlink:href="#DejaVuSans-53"/>
       <use x="127.246094" xlink:href="#DejaVuSans-48"/>
      </g>
     </g>
    </g>
    <g id="ytick_7">
     <g id="line2d_16">
      <g>
       <use style="stroke:#000000;stroke-width:0.8;" x="33.2875" xlink:href="#m64f07cf81c" y="10.999219"/>
      </g>
     </g>
     <g id="text_16">
      <!-- 300 -->
      <g transform="translate(7.2 14.798437)scale(0.1 -0.1)">
       <defs>
        <path d="M 40.578125 39.3125 
Q 47.65625 37.796875 51.625 33 
Q 55.609375 28.21875 55.609375 21.1875 
Q 55.609375 10.40625 48.1875 4.484375 
Q 40.765625 -1.421875 27.09375 -1.421875 
Q 22.515625 -1.421875 17.65625 -0.515625 
Q 12.796875 0.390625 7.625 2.203125 
L 7.625 11.71875 
Q 11.71875 9.328125 16.59375 8.109375 
Q 21.484375 6.890625 26.8125 6.890625 
Q 36.078125 6.890625 40.9375 10.546875 
Q 45.796875 14.203125 45.796875 21.1875 
Q 45.796875 27.640625 41.28125 31.265625 
Q 36.765625 34.90625 28.71875 34.90625 
L 20.21875 34.90625 
L 20.21875 43.015625 
L 29.109375 43.015625 
Q 36.375 43.015625 40.234375 45.921875 
Q 44.09375 48.828125 44.09375 54.296875 
Q 44.09375 59.90625 40.109375 62.90625 
Q 36.140625 65.921875 28.71875 65.921875 
Q 24.65625 65.921875 20.015625 65.03125 
Q 15.375 64.15625 9.8125 62.3125 
L 9.8125 71.09375 
Q 15.4375 72.65625 20.34375 73.4375 
Q 25.25 74.21875 29.59375 74.21875 
Q 40.828125 74.21875 47.359375 69.109375 
Q 53.90625 64.015625 53.90625 55.328125 
Q 53.90625 49.265625 50.4375 45.09375 
Q 46.96875 40.921875 40.578125 39.3125 
z
" id="DejaVuSans-51"/>
       </defs>
       <use xlink:href="#DejaVuSans-51"/>
       <use x="63.623047" xlink:href="#DejaVuSans-48"/>
       <use x="127.246094" xlink:href="#DejaVuSans-48"/>
      </g>
     </g>
    </g>
   </g>
   <g id="line2d_17">
    <path clip-path="url(#pe98005bccf)" d="M 49.520227 262.127246 
L 53.598802 52.85389 
L 57.677377 52.85389 
L 61.755951 52.85389 
L 65.834526 52.85389 
L 69.913101 52.85389 
L 73.991675 52.85389 
L 78.07025 52.85389 
L 82.148825 52.85389 
L 86.227399 52.85389 
L 90.305974 52.85389 
L 94.384549 52.85389 
L 98.463124 52.85389 
L 102.541698 52.85389 
L 106.620273 52.85389 
L 110.698848 52.85389 
L 114.777422 52.85389 
L 118.855997 52.85389 
L 122.934572 52.85389 
L 127.013146 52.85389 
L 131.091721 52.85389 
L 135.170296 52.85389 
L 139.24887 52.85389 
L 143.327445 52.85389 
L 147.40602 52.85389 
L 151.484595 52.85389 
L 155.563169 52.85389 
L 159.641744 52.85389 
L 163.720319 52.85389 
L 167.798893 52.85389 
L 171.877468 52.85389 
L 175.956043 52.85389 
L 180.034617 52.85389 
L 184.113192 52.85389 
L 188.191767 52.85389 
L 192.270341 52.85389 
L 196.348916 52.85389 
L 200.427491 52.85389 
L 204.506066 52.85389 
L 208.58464 52.85389 
L 212.663215 52.85389 
L 216.74179 52.85389 
L 220.820364 52.85389 
L 224.898939 52.85389 
L 228.977514 52.85389 
L 233.056088 52.85389 
L 237.134663 52.85389 
L 241.213238 52.85389 
L 245.291812 52.85389 
L 249.370387 52.85389 
L 253.448962 52.85389 
L 257.527537 52.85389 
L 261.606111 52.85389 
L 265.684686 52.85389 
L 269.763261 52.85389 
L 273.841835 52.85389 
L 277.92041 52.85389 
L 281.998985 52.85389 
L 286.077559 52.85389 
L 290.156134 52.85389 
L 294.234709 52.85389 
L 298.313283 52.85389 
L 302.391858 52.85389 
L 306.470433 52.85389 
L 310.549008 52.85389 
L 314.627582 52.85389 
L 318.706157 52.85389 
L 322.784732 52.85389 
L 326.863306 52.85389 
L 330.941881 52.85389 
L 335.020456 52.85389 
L 339.09903 52.85389 
L 343.177605 52.85389 
L 347.25618 52.85389 
L 351.334754 52.85389 
L 355.413329 52.85389 
L 359.491904 52.85389 
L 363.570479 52.85389 
L 367.649053 52.85389 
L 371.727628 52.85389 
" style="fill:none;stroke:#1f77b4;stroke-linecap:square;stroke-width:1.5;"/>
   </g>
   <g id="line2d_18">
    <path clip-path="url(#pe98005bccf)" d="M 49.520227 262.127246 
L 53.598802 262.127246 
L 57.677377 52.85389 
L 61.755951 52.85389 
L 65.834526 52.85389 
L 69.913101 52.85389 
L 73.991675 52.85389 
L 78.07025 52.85389 
L 82.148825 52.85389 
L 86.227399 52.85389 
L 90.305974 52.85389 
L 94.384549 52.85389 
L 98.463124 52.85389 
L 102.541698 52.85389 
L 106.620273 52.85389 
L 110.698848 52.85389 
L 114.777422 52.85389 
L 118.855997 52.85389 
L 122.934572 52.85389 
L 127.013146 52.85389 
L 131.091721 52.85389 
L 135.170296 52.85389 
L 139.24887 52.85389 
L 143.327445 52.85389 
L 147.40602 52.85389 
L 151.484595 52.85389 
L 155.563169 52.85389 
L 159.641744 52.85389 
L 163.720319 52.85389 
L 167.798893 52.85389 
L 171.877468 52.85389 
L 175.956043 52.85389 
L 180.034617 52.85389 
L 184.113192 52.85389 
L 188.191767 52.85389 
L 192.270341 52.85389 
L 196.348916 52.85389 
L 200.427491 52.85389 
L 204.506066 52.85389 
L 208.58464 52.85389 
L 212.663215 52.85389 
L 216.74179 52.85389 
L 220.820364 52.85389 
L 224.898939 52.85389 
L 228.977514 52.85389 
L 233.056088 52.85389 
L 237.134663 52.85389 
L 241.213238 52.85389 
L 245.291812 52.85389 
L 249.370387 52.85389 
L 253.448962 52.85389 
L 257.527537 52.85389 
L 261.606111 52.85389 
L 265.684686 52.85389 
L 269.763261 52.85389 
L 273.841835 52.85389 
L 277.92041 52.85389 
L 281.998985 52.85389 
L 286.077559 52.85389 
L 290.156134 52.85389 
L 294.234709 52.85389 
L 298.313283 52.85389 
L 302.391858 52.85389 
L 306.470433 52.85389 
L 310.549008 52.85389 
L 314.627582 52.85389 
L 318.706157 52.85389 
L 322.784732 52.85389 
L 326.863306 52.85389 
L 330.941881 52.85389 
L 335.020456 52.85389 
L 339.09903 52.85389 
L 343.177605 52.85389 
L 347.25618 52.85389 
L 351.334754 52.85389 
L 355.413329 52.85389 
L 359.491904 52.85389 
L 363.570479 52.85389 
L 367.649053 52.85389 
L 371.727628 52.85389 
" style="fill:none;stroke:#ff7f0e;stroke-linecap:square;stroke-width:1.5;"/>
   </g>
   <g id="line2d_19">
    <path clip-path="url(#pe98005bccf)" d="M 49.520227 262.127246 
L 51.151657 191.811399 
L 52.783087 143.25998 
L 54.414517 121.495551 
L 56.045947 114.798804 
L 59.308807 96.382748 
L 60.940236 86.337627 
L 62.571666 67.921572 
L 64.203096 65.410291 
L 65.834526 53.690983 
L 67.465956 57.876451 
L 69.097386 50.34261 
L 70.728816 55.36517 
L 72.360246 41.134582 
L 73.991675 44.482956 
L 75.623105 42.808769 
L 77.254535 41.971675 
L 78.885965 37.786208 
L 80.517395 39.460395 
L 82.148825 41.971675 
L 83.780255 49.505516 
L 85.411685 55.36517 
L 87.043114 59.550637 
L 88.674544 44.482956 
L 90.305974 57.876451 
L 91.937404 59.550637 
L 93.568834 62.899011 
L 95.200264 58.713544 
L 96.831694 57.039357 
L 98.463124 51.179703 
L 100.094553 57.876451 
L 101.725983 57.876451 
L 103.357413 70.432852 
L 104.988843 65.410291 
L 106.620273 56.202264 
L 108.251703 66.247385 
L 109.883133 66.247385 
L 111.514563 62.061918 
L 113.145992 54.528077 
L 114.777422 65.410291 
L 116.408852 55.36517 
L 118.040282 50.34261 
L 119.671712 64.573198 
L 121.303142 58.713544 
L 122.934572 71.269945 
L 124.566002 68.758665 
L 126.197431 67.084478 
L 127.828861 55.36517 
L 129.460291 56.202264 
L 131.091721 54.528077 
L 132.723151 50.34261 
L 134.354581 48.668423 
L 135.986011 52.016797 
L 137.617441 57.039357 
L 139.24887 46.994236 
L 140.8803 46.157143 
L 142.51173 37.786208 
L 144.14316 48.668423 
L 145.77459 50.34261 
L 147.40602 56.202264 
L 149.03745 62.899011 
L 150.66888 62.899011 
L 152.30031 48.668423 
L 153.931739 46.994236 
L 155.563169 57.876451 
L 157.194599 60.387731 
L 158.826029 57.039357 
L 160.457459 55.36517 
L 162.088889 52.016797 
L 163.720319 43.645862 
L 165.351749 43.645862 
L 166.983178 51.179703 
L 168.614608 53.690983 
L 170.246038 59.550637 
L 171.877468 61.224824 
L 173.508898 46.157143 
L 175.140328 41.134582 
L 176.771758 34.437835 
L 178.403188 38.623302 
L 180.034617 50.34261 
L 181.666047 45.320049 
L 183.297477 41.134582 
L 184.928907 47.831329 
L 186.560337 41.971675 
L 188.191767 53.690983 
L 189.823197 47.831329 
L 191.454627 36.112022 
L 193.086056 36.949115 
L 194.717486 28.578181 
L 196.348916 36.949115 
L 197.980346 33.600741 
L 199.611776 37.786208 
L 201.243206 52.85389 
L 202.874636 48.668423 
L 204.506066 39.460395 
L 206.137495 36.112022 
L 207.768925 47.831329 
L 209.400355 54.528077 
L 211.031785 41.134582 
L 212.663215 44.482956 
L 214.294645 48.668423 
L 215.926075 53.690983 
L 217.557505 50.34261 
L 219.188934 52.85389 
L 220.820364 54.528077 
L 222.451794 54.528077 
L 224.083224 56.202264 
L 225.714654 59.550637 
L 227.346084 50.34261 
L 228.977514 47.831329 
L 232.240373 52.85389 
L 233.871803 62.899011 
L 235.503233 57.039357 
L 237.134663 52.016797 
L 238.766093 57.876451 
L 240.397523 62.899011 
L 242.028953 68.758665 
L 243.660383 67.921572 
L 245.291812 67.921572 
L 246.923242 59.550637 
L 248.554672 72.107039 
L 250.186102 72.107039 
L 251.817532 66.247385 
L 253.448962 58.713544 
L 255.080392 50.34261 
L 256.711822 48.668423 
L 258.343251 60.387731 
L 259.974681 62.061918 
L 261.606111 65.410291 
L 263.237541 55.36517 
L 264.868971 55.36517 
L 266.500401 52.016797 
L 268.131831 63.736105 
L 269.763261 64.573198 
L 271.39469 58.713544 
L 273.02612 49.505516 
L 274.65755 54.528077 
L 276.28898 52.016797 
L 277.92041 52.016797 
L 279.55184 53.690983 
L 281.18327 62.899011 
L 282.8147 44.482956 
L 284.44613 53.690983 
L 286.077559 46.994236 
L 287.708989 51.179703 
L 289.340419 60.387731 
L 290.971849 61.224824 
L 292.603279 67.921572 
L 294.234709 65.410291 
L 295.866139 52.85389 
L 297.497569 54.528077 
L 299.128998 52.016797 
L 300.760428 59.550637 
L 302.391858 57.039357 
L 304.023288 56.202264 
L 305.654718 62.061918 
L 307.286148 64.573198 
L 308.917578 58.713544 
L 310.549008 48.668423 
L 312.180437 53.690983 
L 313.811867 48.668423 
L 315.443297 44.482956 
L 317.074727 54.528077 
L 318.706157 65.410291 
L 320.337587 57.039357 
L 321.969017 65.410291 
L 323.600447 66.247385 
L 325.231876 56.202264 
L 326.863306 57.039357 
L 328.494736 65.410291 
L 330.126166 67.921572 
L 331.757596 52.85389 
L 333.389026 71.269945 
L 335.020456 59.550637 
L 336.651886 57.876451 
L 338.283315 57.876451 
L 339.914745 56.202264 
L 341.546175 53.690983 
L 343.177605 55.36517 
L 344.809035 46.994236 
L 346.440465 52.85389 
L 348.071895 50.34261 
L 349.703325 55.36517 
L 351.334754 62.899011 
L 352.966184 62.061918 
L 356.229044 57.039357 
L 357.860474 69.595759 
L 359.491904 61.224824 
L 361.123334 60.387731 
L 362.754764 72.107039 
L 366.017623 60.387731 
L 367.649053 63.736105 
L 369.280483 65.410291 
L 370.911913 65.410291 
L 372.543343 52.016797 
L 374.174773 55.36517 
L 374.174773 55.36517 
" style="fill:none;stroke:#2ca02c;stroke-linecap:square;stroke-width:1.5;"/>
   </g>
   <g id="line2d_20">
    <path clip-path="url(#pe98005bccf)" d="M 49.520227 262.127246 
L 51.151657 251.245032 
L 52.783087 223.620949 
L 56.045947 152.468008 
L 59.308807 110.613336 
L 60.940236 106.427869 
L 62.571666 104.753682 
L 64.203096 88.848907 
L 65.834526 88.848907 
L 67.465956 61.224824 
L 69.097386 50.34261 
L 70.728816 51.179703 
L 72.360246 62.899011 
L 73.991675 59.550637 
L 75.623105 72.944132 
L 77.254535 62.061918 
L 78.885965 65.410291 
L 80.517395 56.202264 
L 82.148825 56.202264 
L 83.780255 50.34261 
L 85.411685 42.808769 
L 87.043114 31.926554 
L 88.674544 59.550637 
L 90.305974 41.971675 
L 91.937404 52.016797 
L 93.568834 55.36517 
L 95.200264 53.690983 
L 96.831694 73.781226 
L 98.463124 68.758665 
L 100.094553 57.039357 
L 101.725983 49.505516 
L 103.357413 40.297489 
L 104.988843 44.482956 
L 106.620273 51.179703 
L 108.251703 66.247385 
L 109.883133 61.224824 
L 111.514563 57.876451 
L 113.145992 58.713544 
L 114.777422 36.949115 
L 116.408852 51.179703 
L 118.040282 55.36517 
L 119.671712 44.482956 
L 121.303142 46.157143 
L 122.934572 37.786208 
L 124.566002 35.274928 
L 126.197431 42.808769 
L 127.828861 51.179703 
L 129.460291 56.202264 
L 131.091721 48.668423 
L 132.723151 54.528077 
L 134.354581 39.460395 
L 135.986011 31.089461 
L 137.617441 34.437835 
L 139.24887 43.645862 
L 140.8803 27.741087 
L 142.51173 36.949115 
L 144.14316 20.207246 
L 145.77459 27.741087 
L 147.40602 39.460395 
L 149.03745 20.207246 
L 150.66888 26.903994 
L 152.30031 48.668423 
L 153.931739 49.505516 
L 155.563169 45.320049 
L 157.194599 46.157143 
L 158.826029 52.016797 
L 160.457459 47.831329 
L 162.088889 41.134582 
L 163.720319 36.949115 
L 165.351749 41.134582 
L 166.983178 28.578181 
L 168.614608 29.415274 
L 170.246038 41.134582 
L 171.877468 39.460395 
L 173.508898 53.690983 
L 175.140328 50.34261 
L 176.771758 53.690983 
L 178.403188 51.179703 
L 180.034617 40.297489 
L 181.666047 47.831329 
L 183.297477 53.690983 
L 184.928907 47.831329 
L 186.560337 53.690983 
L 188.191767 56.202264 
L 191.454627 47.831329 
L 193.086056 52.85389 
L 194.717486 47.831329 
L 196.348916 39.460395 
L 197.980346 59.550637 
L 199.611776 57.876451 
L 201.243206 40.297489 
L 202.874636 49.505516 
L 204.506066 57.876451 
L 206.137495 50.34261 
L 207.768925 45.320049 
L 209.400355 52.85389 
L 211.031785 72.107039 
L 212.663215 57.039357 
L 214.294645 57.876451 
L 215.926075 52.016797 
L 217.557505 54.528077 
L 219.188934 52.85389 
L 220.820364 57.039357 
L 222.451794 46.157143 
L 224.083224 47.831329 
L 227.346084 56.202264 
L 230.608944 52.85389 
L 232.240373 55.36517 
L 233.871803 38.623302 
L 235.503233 47.831329 
L 237.134663 50.34261 
L 238.766093 42.808769 
L 240.397523 39.460395 
L 242.028953 43.645862 
L 243.660383 60.387731 
L 245.291812 46.994236 
L 246.923242 49.505516 
L 248.554672 41.134582 
L 250.186102 47.831329 
L 251.817532 61.224824 
L 253.448962 67.084478 
L 255.080392 88.848907 
L 258.343251 52.85389 
L 259.974681 44.482956 
L 263.237541 49.505516 
L 266.500401 32.763648 
L 268.131831 25.229807 
L 269.763261 41.971675 
L 271.39469 34.437835 
L 273.02612 31.089461 
L 274.65755 31.089461 
L 276.28898 26.0669 
L 277.92041 36.949115 
L 279.55184 36.949115 
L 281.18327 39.460395 
L 282.8147 62.899011 
L 284.44613 57.876451 
L 286.077559 56.202264 
L 287.708989 55.36517 
L 289.340419 38.623302 
L 290.971849 39.460395 
L 292.603279 50.34261 
L 294.234709 44.482956 
L 295.866139 67.084478 
L 297.497569 56.202264 
L 300.760428 39.460395 
L 302.391858 54.528077 
L 304.023288 62.061918 
L 305.654718 47.831329 
L 307.286148 36.949115 
L 308.917578 32.763648 
L 310.549008 52.016797 
L 312.180437 57.876451 
L 313.811867 57.876451 
L 315.443297 56.202264 
L 317.074727 40.297489 
L 318.706157 30.252368 
L 320.337587 41.134582 
L 321.969017 20.207246 
L 323.600447 26.0669 
L 325.231876 36.949115 
L 326.863306 54.528077 
L 328.494736 42.808769 
L 330.126166 37.786208 
L 331.757596 55.36517 
L 333.389026 31.926554 
L 335.020456 51.179703 
L 336.651886 45.320049 
L 338.283315 33.600741 
L 339.914745 47.831329 
L 341.546175 41.971675 
L 343.177605 52.85389 
L 344.809035 43.645862 
L 346.440465 41.134582 
L 348.071895 36.949115 
L 349.703325 37.786208 
L 351.334754 28.578181 
L 354.597614 58.713544 
L 356.229044 62.899011 
L 357.860474 39.460395 
L 359.491904 57.876451 
L 361.123334 51.179703 
L 362.754764 39.460395 
L 364.386193 36.949115 
L 366.017623 46.157143 
L 367.649053 49.505516 
L 369.280483 43.645862 
L 370.911913 45.320049 
L 372.543343 59.550637 
L 374.174773 45.320049 
L 374.174773 45.320049 
" style="fill:none;stroke:#d62728;stroke-linecap:square;stroke-width:1.5;"/>
   </g>
   <g id="patch_3">
    <path d="M 33.2875 274.223246 
L 33.2875 8.111246 
" style="fill:none;stroke:#000000;stroke-linecap:square;stroke-linejoin:miter;stroke-width:0.8;"/>
   </g>
   <g id="patch_4">
    <path d="M 390.4075 274.223246 
L 390.4075 8.111246 
" style="fill:none;stroke:#000000;stroke-linecap:square;stroke-linejoin:miter;stroke-width:0.8;"/>
   </g>
   <g id="patch_5">
    <path d="M 33.2875 274.223246 
L 390.4075 274.223246 
" style="fill:none;stroke:#000000;stroke-linecap:square;stroke-linejoin:miter;stroke-width:0.8;"/>
   </g>
   <g id="patch_6">
    <path d="M 33.2875 8.111246 
L 390.4075 8.111246 
" style="fill:none;stroke:#000000;stroke-linecap:square;stroke-linejoin:miter;stroke-width:0.8;"/>
   </g>
  </g>
 </g>
 <defs>
  <clipPath id="pe98005bccf">
   <rect height="266.112" width="357.12" x="33.2875" y="8.111246"/>
  </clipPath>
 </defs>
</svg>
