<?xml version="1.0" encoding="utf-8" standalone="no"?>
<!DOCTYPE svg PUBLIC "-//W3C//DTD SVG 1.1//EN"
  "http://www.w3.org/Graphics/SVG/1.1/DTD/svg11.dtd">
<svg xmlns:xlink="http://www.w3.org/1999/xlink" width="403.97pt" height="297.190125pt" viewBox="0 0 403.97 297.190125" xmlns="http://www.w3.org/2000/svg" version="1.1">
 <metadata>
  <rdf:RDF xmlns:dc="http://purl.org/dc/elements/1.1/" xmlns:cc="http://creativecommons.org/ns#" xmlns:rdf="http://www.w3.org/1999/02/22-rdf-syntax-ns#">
   <cc:Work>
    <dc:type rdf:resource="http://purl.org/dc/dcmitype/StillImage"/>
    <dc:date>2024-10-03T06:46:33.571102</dc:date>
    <dc:format>image/svg+xml</dc:format>
    <dc:creator>
     <cc:Agent>
      <dc:title>Matplotlib v3.9.2, https://matplotlib.org/</dc:title>
     </cc:Agent>
    </dc:creator>
   </cc:Work>
  </rdf:RDF>
 </metadata>
 <defs>
  <style type="text/css">*{stroke-linejoin: round; stroke-linecap: butt}</style>
 </defs>
 <g id="figure_1">
  <g id="patch_1">
   <path d="M 0 297.190125 
L 403.97 297.190125 
L 403.97 0 
L 0 0 
z
" style="fill: #ffffff"/>
  </g>
  <g id="axes_1">
   <g id="patch_2">
    <path d="M 39.65 273.312 
L 396.77 273.312 
L 396.77 7.2 
L 39.65 7.2 
z
" style="fill: #ffffff"/>
   </g>
   <g id="matplotlib.axis_1">
    <g id="xtick_1">
     <g id="line2d_1">
      <defs>
       <path id="m717322aa4c" d="M 0 0 
L 0 3.5 
" style="stroke: #000000; stroke-width: 0.8"/>
      </defs>
      <g>
       <use xlink:href="#m717322aa4c" x="55.882727" y="273.312" style="stroke: #000000; stroke-width: 0.8"/>
      </g>
     </g>
     <g id="text_1">
      <!-- 0.0 -->
      <g transform="translate(47.931165 287.910437) scale(0.1 -0.1)">
       <defs>
        <path id="DejaVuSans-30" d="M 2034 4250 
Q 1547 4250 1301 3770 
Q 1056 3291 1056 2328 
Q 1056 1369 1301 889 
Q 1547 409 2034 409 
Q 2525 409 2770 889 
Q 3016 1369 3016 2328 
Q 3016 3291 2770 3770 
Q 2525 4250 2034 4250 
z
M 2034 4750 
Q 2819 4750 3233 4129 
Q 3647 3509 3647 2328 
Q 3647 1150 3233 529 
Q 2819 -91 2034 -91 
Q 1250 -91 836 529 
Q 422 1150 422 2328 
Q 422 3509 836 4129 
Q 1250 4750 2034 4750 
z
" transform="scale(0.015625)"/>
        <path id="DejaVuSans-2e" d="M 684 794 
L 1344 794 
L 1344 0 
L 684 0 
L 684 794 
z
" transform="scale(0.015625)"/>
       </defs>
       <use xlink:href="#DejaVuSans-30"/>
       <use xlink:href="#DejaVuSans-2e" x="63.623047"/>
       <use xlink:href="#DejaVuSans-30" x="95.410156"/>
      </g>
     </g>
    </g>
    <g id="xtick_2">
     <g id="line2d_2">
      <g>
       <use xlink:href="#m717322aa4c" x="96.668474" y="273.312" style="stroke: #000000; stroke-width: 0.8"/>
      </g>
     </g>
     <g id="text_2">
      <!-- 2.5 -->
      <g transform="translate(88.716912 287.910437) scale(0.1 -0.1)">
       <defs>
        <path id="DejaVuSans-32" d="M 1228 531 
L 3431 531 
L 3431 0 
L 469 0 
L 469 531 
Q 828 903 1448 1529 
Q 2069 2156 2228 2338 
Q 2531 2678 2651 2914 
Q 2772 3150 2772 3378 
Q 2772 3750 2511 3984 
Q 2250 4219 1831 4219 
Q 1534 4219 1204 4116 
Q 875 4013 500 3803 
L 500 4441 
Q 881 4594 1212 4672 
Q 1544 4750 1819 4750 
Q 2544 4750 2975 4387 
Q 3406 4025 3406 3419 
Q 3406 3131 3298 2873 
Q 3191 2616 2906 2266 
Q 2828 2175 2409 1742 
Q 1991 1309 1228 531 
z
" transform="scale(0.015625)"/>
        <path id="DejaVuSans-35" d="M 691 4666 
L 3169 4666 
L 3169 4134 
L 1269 4134 
L 1269 2991 
Q 1406 3038 1543 3061 
Q 1681 3084 1819 3084 
Q 2600 3084 3056 2656 
Q 3513 2228 3513 1497 
Q 3513 744 3044 326 
Q 2575 -91 1722 -91 
Q 1428 -91 1123 -41 
Q 819 9 494 109 
L 494 744 
Q 775 591 1075 516 
Q 1375 441 1709 441 
Q 2250 441 2565 725 
Q 2881 1009 2881 1497 
Q 2881 1984 2565 2268 
Q 2250 2553 1709 2553 
Q 1456 2553 1204 2497 
Q 953 2441 691 2322 
L 691 4666 
z
" transform="scale(0.015625)"/>
       </defs>
       <use xlink:href="#DejaVuSans-32"/>
       <use xlink:href="#DejaVuSans-2e" x="63.623047"/>
       <use xlink:href="#DejaVuSans-35" x="95.410156"/>
      </g>
     </g>
    </g>
    <g id="xtick_3">
     <g id="line2d_3">
      <g>
       <use xlink:href="#m717322aa4c" x="137.454221" y="273.312" style="stroke: #000000; stroke-width: 0.8"/>
      </g>
     </g>
     <g id="text_3">
      <!-- 5.0 -->
      <g transform="translate(129.502659 287.910437) scale(0.1 -0.1)">
       <use xlink:href="#DejaVuSans-35"/>
       <use xlink:href="#DejaVuSans-2e" x="63.623047"/>
       <use xlink:href="#DejaVuSans-30" x="95.410156"/>
      </g>
     </g>
    </g>
    <g id="xtick_4">
     <g id="line2d_4">
      <g>
       <use xlink:href="#m717322aa4c" x="178.239968" y="273.312" style="stroke: #000000; stroke-width: 0.8"/>
      </g>
     </g>
     <g id="text_4">
      <!-- 7.5 -->
      <g transform="translate(170.288406 287.910437) scale(0.1 -0.1)">
       <defs>
        <path id="DejaVuSans-37" d="M 525 4666 
L 3525 4666 
L 3525 4397 
L 1831 0 
L 1172 0 
L 2766 4134 
L 525 4134 
L 525 4666 
z
" transform="scale(0.015625)"/>
       </defs>
       <use xlink:href="#DejaVuSans-37"/>
       <use xlink:href="#DejaVuSans-2e" x="63.623047"/>
       <use xlink:href="#DejaVuSans-35" x="95.410156"/>
      </g>
     </g>
    </g>
    <g id="xtick_5">
     <g id="line2d_5">
      <g>
       <use xlink:href="#m717322aa4c" x="219.025715" y="273.312" style="stroke: #000000; stroke-width: 0.8"/>
      </g>
     </g>
     <g id="text_5">
      <!-- 10.0 -->
      <g transform="translate(207.892902 287.910437) scale(0.1 -0.1)">
       <defs>
        <path id="DejaVuSans-31" d="M 794 531 
L 1825 531 
L 1825 4091 
L 703 3866 
L 703 4441 
L 1819 4666 
L 2450 4666 
L 2450 531 
L 3481 531 
L 3481 0 
L 794 0 
L 794 531 
z
" transform="scale(0.015625)"/>
       </defs>
       <use xlink:href="#DejaVuSans-31"/>
       <use xlink:href="#DejaVuSans-30" x="63.623047"/>
       <use xlink:href="#DejaVuSans-2e" x="127.246094"/>
       <use xlink:href="#DejaVuSans-30" x="159.033203"/>
      </g>
     </g>
    </g>
    <g id="xtick_6">
     <g id="line2d_6">
      <g>
       <use xlink:href="#m717322aa4c" x="259.811462" y="273.312" style="stroke: #000000; stroke-width: 0.8"/>
      </g>
     </g>
     <g id="text_6">
      <!-- 12.5 -->
      <g transform="translate(248.678649 287.910437) scale(0.1 -0.1)">
       <use xlink:href="#DejaVuSans-31"/>
       <use xlink:href="#DejaVuSans-32" x="63.623047"/>
       <use xlink:href="#DejaVuSans-2e" x="127.246094"/>
       <use xlink:href="#DejaVuSans-35" x="159.033203"/>
      </g>
     </g>
    </g>
    <g id="xtick_7">
     <g id="line2d_7">
      <g>
       <use xlink:href="#m717322aa4c" x="300.597209" y="273.312" style="stroke: #000000; stroke-width: 0.8"/>
      </g>
     </g>
     <g id="text_7">
      <!-- 15.0 -->
      <g transform="translate(289.464396 287.910437) scale(0.1 -0.1)">
       <use xlink:href="#DejaVuSans-31"/>
       <use xlink:href="#DejaVuSans-35" x="63.623047"/>
       <use xlink:href="#DejaVuSans-2e" x="127.246094"/>
       <use xlink:href="#DejaVuSans-30" x="159.033203"/>
      </g>
     </g>
    </g>
    <g id="xtick_8">
     <g id="line2d_8">
      <g>
       <use xlink:href="#m717322aa4c" x="341.382956" y="273.312" style="stroke: #000000; stroke-width: 0.8"/>
      </g>
     </g>
     <g id="text_8">
      <!-- 17.5 -->
      <g transform="translate(330.250143 287.910437) scale(0.1 -0.1)">
       <use xlink:href="#DejaVuSans-31"/>
       <use xlink:href="#DejaVuSans-37" x="63.623047"/>
       <use xlink:href="#DejaVuSans-2e" x="127.246094"/>
       <use xlink:href="#DejaVuSans-35" x="159.033203"/>
      </g>
     </g>
    </g>
    <g id="xtick_9">
     <g id="line2d_9">
      <g>
       <use xlink:href="#m717322aa4c" x="382.168703" y="273.312" style="stroke: #000000; stroke-width: 0.8"/>
      </g>
     </g>
     <g id="text_9">
      <!-- 20.0 -->
      <g transform="translate(371.03589 287.910437) scale(0.1 -0.1)">
       <use xlink:href="#DejaVuSans-32"/>
       <use xlink:href="#DejaVuSans-30" x="63.623047"/>
       <use xlink:href="#DejaVuSans-2e" x="127.246094"/>
       <use xlink:href="#DejaVuSans-30" x="159.033203"/>
      </g>
     </g>
    </g>
   </g>
   <g id="matplotlib.axis_2">
    <g id="ytick_1">
     <g id="line2d_10">
      <defs>
       <path id="m53615db7ae" d="M 0 0 
L -3.5 0 
" style="stroke: #000000; stroke-width: 0.8"/>
      </defs>
      <g>
       <use xlink:href="#m53615db7ae" x="39.65" y="261.216" style="stroke: #000000; stroke-width: 0.8"/>
      </g>
     </g>
     <g id="text_10">
      <!-- 0 -->
      <g transform="translate(26.2875 265.015219) scale(0.1 -0.1)">
       <use xlink:href="#DejaVuSans-30"/>
      </g>
     </g>
    </g>
    <g id="ytick_2">
     <g id="line2d_11">
      <g>
       <use xlink:href="#m53615db7ae" x="39.65" y="226.862876" style="stroke: #000000; stroke-width: 0.8"/>
      </g>
     </g>
     <g id="text_11">
      <!-- 500 -->
      <g transform="translate(13.5625 230.662095) scale(0.1 -0.1)">
       <use xlink:href="#DejaVuSans-35"/>
       <use xlink:href="#DejaVuSans-30" x="63.623047"/>
       <use xlink:href="#DejaVuSans-30" x="127.246094"/>
      </g>
     </g>
    </g>
    <g id="ytick_3">
     <g id="line2d_12">
      <g>
       <use xlink:href="#m53615db7ae" x="39.65" y="192.509752" style="stroke: #000000; stroke-width: 0.8"/>
      </g>
     </g>
     <g id="text_12">
      <!-- 1000 -->
      <g transform="translate(7.2 196.308971) scale(0.1 -0.1)">
       <use xlink:href="#DejaVuSans-31"/>
       <use xlink:href="#DejaVuSans-30" x="63.623047"/>
       <use xlink:href="#DejaVuSans-30" x="127.246094"/>
       <use xlink:href="#DejaVuSans-30" x="190.869141"/>
      </g>
     </g>
    </g>
    <g id="ytick_4">
     <g id="line2d_13">
      <g>
       <use xlink:href="#m53615db7ae" x="39.65" y="158.156628" style="stroke: #000000; stroke-width: 0.8"/>
      </g>
     </g>
     <g id="text_13">
      <!-- 1500 -->
      <g transform="translate(7.2 161.955847) scale(0.1 -0.1)">
       <use xlink:href="#DejaVuSans-31"/>
       <use xlink:href="#DejaVuSans-35" x="63.623047"/>
       <use xlink:href="#DejaVuSans-30" x="127.246094"/>
       <use xlink:href="#DejaVuSans-30" x="190.869141"/>
      </g>
     </g>
    </g>
    <g id="ytick_5">
     <g id="line2d_14">
      <g>
       <use xlink:href="#m53615db7ae" x="39.65" y="123.803504" style="stroke: #000000; stroke-width: 0.8"/>
      </g>
     </g>
     <g id="text_14">
      <!-- 2000 -->
      <g transform="translate(7.2 127.602722) scale(0.1 -0.1)">
       <use xlink:href="#DejaVuSans-32"/>
       <use xlink:href="#DejaVuSans-30" x="63.623047"/>
       <use xlink:href="#DejaVuSans-30" x="127.246094"/>
       <use xlink:href="#DejaVuSans-30" x="190.869141"/>
      </g>
     </g>
    </g>
    <g id="ytick_6">
     <g id="line2d_15">
      <g>
       <use xlink:href="#m53615db7ae" x="39.65" y="89.45038" style="stroke: #000000; stroke-width: 0.8"/>
      </g>
     </g>
     <g id="text_15">
      <!-- 2500 -->
      <g transform="translate(7.2 93.249598) scale(0.1 -0.1)">
       <use xlink:href="#DejaVuSans-32"/>
       <use xlink:href="#DejaVuSans-35" x="63.623047"/>
       <use xlink:href="#DejaVuSans-30" x="127.246094"/>
       <use xlink:href="#DejaVuSans-30" x="190.869141"/>
      </g>
     </g>
    </g>
    <g id="ytick_7">
     <g id="line2d_16">
      <g>
       <use xlink:href="#m53615db7ae" x="39.65" y="55.097256" style="stroke: #000000; stroke-width: 0.8"/>
      </g>
     </g>
     <g id="text_16">
      <!-- 3000 -->
      <g transform="translate(7.2 58.896474) scale(0.1 -0.1)">
       <defs>
        <path id="DejaVuSans-33" d="M 2597 2516 
Q 3050 2419 3304 2112 
Q 3559 1806 3559 1356 
Q 3559 666 3084 287 
Q 2609 -91 1734 -91 
Q 1441 -91 1130 -33 
Q 819 25 488 141 
L 488 750 
Q 750 597 1062 519 
Q 1375 441 1716 441 
Q 2309 441 2620 675 
Q 2931 909 2931 1356 
Q 2931 1769 2642 2001 
Q 2353 2234 1838 2234 
L 1294 2234 
L 1294 2753 
L 1863 2753 
Q 2328 2753 2575 2939 
Q 2822 3125 2822 3475 
Q 2822 3834 2567 4026 
Q 2313 4219 1838 4219 
Q 1578 4219 1281 4162 
Q 984 4106 628 3988 
L 628 4550 
Q 988 4650 1302 4700 
Q 1616 4750 1894 4750 
Q 2613 4750 3031 4423 
Q 3450 4097 3450 3541 
Q 3450 3153 3228 2886 
Q 3006 2619 2597 2516 
z
" transform="scale(0.015625)"/>
       </defs>
       <use xlink:href="#DejaVuSans-33"/>
       <use xlink:href="#DejaVuSans-30" x="63.623047"/>
       <use xlink:href="#DejaVuSans-30" x="127.246094"/>
       <use xlink:href="#DejaVuSans-30" x="190.869141"/>
      </g>
     </g>
    </g>
    <g id="ytick_8">
     <g id="line2d_17">
      <g>
       <use xlink:href="#m53615db7ae" x="39.65" y="20.744132" style="stroke: #000000; stroke-width: 0.8"/>
      </g>
     </g>
     <g id="text_17">
      <!-- 3500 -->
      <g transform="translate(7.2 24.54335) scale(0.1 -0.1)">
       <use xlink:href="#DejaVuSans-33"/>
       <use xlink:href="#DejaVuSans-35" x="63.623047"/>
       <use xlink:href="#DejaVuSans-30" x="127.246094"/>
       <use xlink:href="#DejaVuSans-30" x="190.869141"/>
      </g>
     </g>
    </g>
   </g>
   <g id="line2d_18">
    <path d="M 55.882727 261.216 
L 72.197026 192.509752 
L 88.511325 143.281725 
L 104.825624 108.009844 
L 121.139922 82.737541 
L 137.454221 64.629936 
L 153.76852 51.655837 
L 170.082819 42.359895 
L 186.397117 35.699353 
L 202.711416 30.927074 
L 219.025715 27.507736 
L 235.340014 25.057781 
L 251.654312 23.302388 
L 267.968611 22.044649 
L 284.28291 21.143479 
L 300.597209 20.49779 
L 316.911508 20.035155 
L 333.225806 19.703676 
L 349.540105 19.466172 
L 365.854404 19.296 
" clip-path="url(#p5f6dae1299)" style="fill: none; stroke: #1f77b4; stroke-width: 1.5; stroke-linecap: square"/>
   </g>
   <g id="line2d_19">
    <path d="M 55.882727 261.216 
L 72.197026 261.216 
L 88.511325 238.313917 
L 104.825624 210.146646 
L 121.139922 183.928275 
L 137.454221 162.043662 
L 153.76852 144.772234 
L 170.082819 131.580383 
L 186.397117 121.709039 
L 202.711416 114.420911 
L 219.025715 109.088426 
L 235.340014 105.210949 
L 251.654312 102.4036 
L 267.968611 100.377177 
L 284.28291 98.917564 
L 300.597209 97.867809 
L 316.911508 97.113636 
L 333.225806 96.572231 
L 349.540105 96.183781 
L 365.854404 95.905183 
" clip-path="url(#p5f6dae1299)" style="fill: none; stroke: #ff7f0e; stroke-width: 1.5; stroke-linecap: square"/>
   </g>
   <g id="line2d_20">
    <path d="M 55.882727 261.216 
L 57.514157 254.826319 
L 59.145587 247.062513 
L 60.777017 241.085069 
L 62.408447 234.351857 
L 64.039877 229.130182 
L 65.671307 222.603089 
L 67.302736 216.90047 
L 70.565596 207.55642 
L 72.197026 203.090514 
L 73.828456 197.181777 
L 75.459886 192.234927 
L 77.091316 189.005733 
L 78.722746 184.12759 
L 80.354175 180.142627 
L 81.985605 174.577421 
L 86.879895 162.072884 
L 88.511325 156.988622 
L 90.142755 153.828134 
L 91.774185 149.568347 
L 93.405614 145.926916 
L 95.037044 143.247372 
L 99.931334 133.491085 
L 101.562764 131.842135 
L 103.194194 128.681647 
L 104.825624 124.627979 
L 106.457053 122.291966 
L 109.719913 118.37571 
L 111.351343 116.108404 
L 112.982773 113.154035 
L 114.614203 112.535679 
L 116.245633 111.573792 
L 117.877063 108.825542 
L 119.508492 107.176592 
L 121.139922 104.153517 
L 122.771352 101.680092 
L 124.402782 101.336561 
L 126.034212 98.931842 
L 127.665642 97.214186 
L 129.297072 96.046179 
L 130.928502 95.152998 
L 132.559931 92.679573 
L 134.191361 91.64898 
L 135.822791 90.00003 
L 137.454221 90.068736 
L 139.085651 89.656498 
L 140.717081 88.557198 
L 142.348511 86.015067 
L 143.979941 84.572236 
L 145.61137 83.472936 
L 147.2428 81.75528 
L 148.87423 80.793392 
L 150.50566 81.068217 
L 152.13709 80.10633 
L 153.76852 78.388674 
L 155.39995 79.625386 
L 157.03138 79.625386 
L 158.66281 78.45738 
L 160.294239 78.732205 
L 161.925669 75.983955 
L 163.557099 74.747243 
L 165.188529 73.991474 
L 166.819959 72.617349 
L 168.451389 71.037105 
L 170.082819 71.380636 
L 171.714249 71.930286 
L 173.345678 73.098293 
L 174.977108 73.51053 
L 176.608538 73.098293 
L 178.239968 72.548643 
L 179.871398 72.754761 
L 181.502828 71.380636 
L 184.765688 70.075218 
L 186.397117 68.01403 
L 188.028547 68.082736 
L 189.659977 66.91473 
L 191.291407 65.609312 
L 192.922837 64.853543 
L 194.554267 64.372599 
L 196.185697 64.029068 
L 197.817127 62.723649 
L 199.448556 63.61683 
L 201.079986 64.097774 
L 202.711416 65.128368 
L 204.342846 65.403193 
L 205.974276 64.784837 
L 207.605706 63.685537 
L 209.237136 61.96788 
L 210.868566 62.173999 
L 212.499995 62.105293 
L 214.131425 62.173999 
L 215.762855 61.486937 
L 217.394285 62.792355 
L 219.025715 62.173999 
L 220.657145 62.861062 
L 222.288575 63.06718 
L 223.920005 62.448824 
L 225.551434 62.792355 
L 227.182864 62.242705 
L 228.814294 61.555643 
L 230.445724 63.548124 
L 232.077154 64.784837 
L 233.708584 64.853543 
L 235.340014 64.097774 
L 236.971444 64.029068 
L 238.602873 64.510012 
L 240.234303 62.448824 
L 241.865733 63.61683 
L 243.497163 63.754243 
L 245.128593 64.029068 
L 246.760023 64.16648 
L 248.391453 63.410712 
L 250.022883 61.555643 
L 251.654312 60.593755 
L 253.285742 60.662462 
L 254.917172 59.700574 
L 256.548602 59.494455 
L 258.180032 60.31893 
L 259.811462 59.837987 
L 261.442892 59.013512 
L 263.074322 57.433268 
L 264.705751 59.700574 
L 266.337181 60.181518 
L 267.968611 60.044105 
L 269.600041 59.425749 
L 271.231471 59.082218 
L 272.862901 59.013512 
L 274.494331 59.494455 
L 276.125761 58.601274 
L 277.75719 59.21963 
L 279.38862 58.051624 
L 281.02005 58.601274 
L 282.65148 55.853024 
L 284.28291 54.753724 
L 285.91434 54.959843 
L 287.54577 55.715612 
L 289.1772 55.784318 
L 290.80863 57.227149 
L 292.440059 58.189037 
L 295.702919 58.326449 
L 297.334349 57.433268 
L 298.965779 56.746206 
L 300.597209 57.364562 
L 302.228639 58.876099 
L 303.860069 59.631868 
L 305.491498 59.082218 
L 307.122928 60.456343 
L 308.754358 59.906693 
L 310.385788 60.387637 
L 312.017218 61.486937 
L 313.648648 60.662462 
L 315.280078 60.456343 
L 316.911508 59.837987 
L 318.542937 59.013512 
L 320.174367 59.013512 
L 321.805797 57.089737 
L 323.437227 56.402674 
L 325.068657 58.326449 
L 326.700087 57.845506 
L 329.962947 56.402674 
L 331.594376 56.746206 
L 333.225806 57.776799 
L 334.857236 57.708093 
L 336.488666 56.952324 
L 339.751526 57.776799 
L 341.382956 56.883618 
L 343.014386 57.776799 
L 344.645815 57.845506 
L 346.277245 58.395156 
L 347.908675 56.952324 
L 349.540105 55.990437 
L 351.171535 55.372081 
L 352.802965 57.227149 
L 354.434395 55.921731 
L 356.065825 55.646906 
L 357.697254 56.883618 
L 362.591544 55.440787 
L 364.222974 56.471381 
L 365.854404 56.265262 
L 367.485834 56.333968 
L 369.117264 57.982918 
L 370.748693 56.265262 
L 372.380123 56.814912 
L 374.011553 57.021031 
L 375.642983 56.540087 
L 377.274413 58.738687 
L 378.905843 57.433268 
L 380.537273 57.982918 
L 380.537273 57.982918 
" clip-path="url(#p5f6dae1299)" style="fill: none; stroke: #2ca02c; stroke-width: 1.5; stroke-linecap: square"/>
   </g>
   <g id="line2d_21">
    <path d="M 55.882727 261.216 
L 59.145587 260.597644 
L 60.777017 260.047994 
L 62.408447 259.841875 
L 64.039877 258.536456 
L 65.671307 257.437156 
L 67.302736 255.788206 
L 68.934166 254.895025 
L 70.565596 253.314781 
L 72.197026 251.528419 
L 73.828456 250.703944 
L 77.091316 247.543457 
L 78.722746 246.37545 
L 80.354175 243.352375 
L 81.985605 241.978251 
L 83.617035 240.947657 
L 85.248465 239.367413 
L 86.879895 237.993288 
L 88.511325 235.863394 
L 90.142755 234.283151 
L 91.774185 232.428082 
L 93.405614 231.809726 
L 95.037044 229.885951 
L 96.668474 228.168295 
L 98.299904 225.69487 
L 99.931334 224.870395 
L 101.562764 222.671795 
L 104.825624 220.19837 
L 106.457053 218.412007 
L 108.088483 216.419526 
L 109.719913 214.839283 
L 111.351343 213.05292 
L 112.982773 211.610089 
L 114.614203 208.930545 
L 116.245633 208.587014 
L 117.877063 205.838764 
L 119.508492 204.670758 
L 121.139922 203.640164 
L 122.771352 203.640164 
L 124.402782 200.342264 
L 126.034212 200.067439 
L 127.665642 197.525308 
L 130.928502 194.502233 
L 132.559931 192.921989 
L 134.191361 192.372339 
L 135.822791 192.166221 
L 137.454221 190.792096 
L 139.085651 188.593496 
L 140.717081 187.631608 
L 142.348511 186.807133 
L 143.979941 185.570421 
L 145.61137 185.364302 
L 147.2428 184.745946 
L 148.87423 184.608533 
L 150.50566 184.265002 
L 152.13709 183.715352 
L 155.39995 181.92899 
L 157.03138 180.073921 
L 158.66281 179.73039 
L 160.294239 178.905915 
L 161.925669 178.63109 
L 163.557099 178.562383 
L 165.188529 177.463084 
L 166.819959 176.98214 
L 170.082819 175.539309 
L 171.714249 174.508715 
L 173.345678 173.13459 
L 174.977108 172.928471 
L 178.239968 171.554346 
L 179.871398 171.554346 
L 181.502828 172.172702 
L 183.134258 173.272002 
L 184.765688 172.859765 
L 186.397117 174.371302 
L 188.028547 173.272002 
L 189.659977 174.096477 
L 191.291407 173.890359 
L 192.922837 173.203296 
L 194.554267 172.378821 
L 196.185697 172.791059 
L 197.817127 172.172702 
L 199.448556 169.905396 
L 201.079986 168.73739 
L 202.711416 167.912915 
L 204.342846 166.951028 
L 205.974276 166.53879 
L 207.605706 166.951028 
L 209.237136 167.912915 
L 210.868566 166.53879 
L 212.499995 166.263965 
L 214.131425 165.233371 
L 215.762855 166.607496 
L 217.394285 165.920434 
L 219.025715 164.546309 
L 220.657145 163.996659 
L 222.288575 163.103478 
L 223.920005 163.309596 
L 225.551434 163.172184 
L 227.182864 162.072884 
L 228.814294 162.210296 
L 230.445724 160.286521 
L 232.077154 158.981103 
L 233.708584 158.84369 
L 235.340014 159.187222 
L 236.971444 160.698759 
L 238.602873 160.286521 
L 240.234303 162.14159 
L 241.865733 162.14159 
L 243.497163 162.897359 
L 245.128593 163.309596 
L 246.760023 162.897359 
L 248.391453 163.24089 
L 250.022883 163.996659 
L 251.654312 162.828653 
L 253.285742 162.828653 
L 254.917172 162.072884 
L 258.180032 160.149109 
L 259.811462 160.149109 
L 261.442892 162.072884 
L 263.074322 162.622534 
L 264.705751 160.423934 
L 266.337181 159.599459 
L 267.968611 159.94299 
L 269.600041 159.805578 
L 271.231471 160.080403 
L 272.862901 161.729353 
L 274.494331 161.385821 
L 276.125761 162.210296 
L 277.75719 162.072884 
L 279.38862 161.179703 
L 281.02005 160.630053 
L 282.65148 162.553828 
L 284.28291 163.584421 
L 285.91434 163.79054 
L 287.54577 165.576903 
L 289.1772 164.821134 
L 290.80863 163.309596 
L 292.440059 162.347709 
L 294.071489 162.416415 
L 295.702919 161.798059 
L 297.334349 162.004178 
L 300.597209 160.973584 
L 302.228639 159.39334 
L 303.860069 160.286521 
L 305.491498 160.836171 
L 307.122928 159.874284 
L 308.754358 159.39334 
L 310.385788 157.881803 
L 312.017218 158.362747 
L 313.648648 158.019215 
L 315.280078 158.568865 
L 316.911508 159.462047 
L 318.542937 158.156628 
L 320.174367 158.981103 
L 321.805797 160.767465 
L 323.437227 161.04229 
L 325.068657 159.668165 
L 326.700087 160.904878 
L 328.331517 163.034771 
L 329.962947 161.798059 
L 331.594376 160.973584 
L 333.225806 159.324634 
L 334.857236 158.019215 
L 336.488666 158.431453 
L 338.120096 157.400859 
L 339.751526 156.507678 
L 341.382956 157.057328 
L 343.014386 156.851209 
L 344.645815 155.614497 
L 346.277245 155.614497 
L 347.908675 157.126034 
L 349.540105 157.675684 
L 351.171535 156.232853 
L 352.802965 156.64509 
L 354.434395 157.606978 
L 356.065825 157.400859 
L 357.697254 158.431453 
L 359.328684 158.019215 
L 360.960114 157.881803 
L 362.591544 159.874284 
L 364.222974 159.530753 
L 365.854404 160.080403 
L 367.485834 159.255928 
L 370.748693 157.263447 
L 372.380123 156.507678 
L 374.011553 156.438972 
L 375.642983 157.675684 
L 377.274413 155.820615 
L 378.905843 156.64509 
L 380.537273 156.09544 
L 380.537273 156.09544 
" clip-path="url(#p5f6dae1299)" style="fill: none; stroke: #d62728; stroke-width: 1.5; stroke-linecap: square"/>
   </g>
   <g id="patch_3">
    <path d="M 39.65 273.312 
L 39.65 7.2 
" style="fill: none; stroke: #000000; stroke-width: 0.8; stroke-linejoin: miter; stroke-linecap: square"/>
   </g>
   <g id="patch_4">
    <path d="M 396.77 273.312 
L 396.77 7.2 
" style="fill: none; stroke: #000000; stroke-width: 0.8; stroke-linejoin: miter; stroke-linecap: square"/>
   </g>
   <g id="patch_5">
    <path d="M 39.65 273.312 
L 396.77 273.312 
" style="fill: none; stroke: #000000; stroke-width: 0.8; stroke-linejoin: miter; stroke-linecap: square"/>
   </g>
   <g id="patch_6">
    <path d="M 39.65 7.2 
L 396.77 7.2 
" style="fill: none; stroke: #000000; stroke-width: 0.8; stroke-linejoin: miter; stroke-linecap: square"/>
   </g>
  </g>
 </g>
 <defs>
  <clipPath id="p5f6dae1299">
   <rect x="39.65" y="7.2" width="357.12" height="266.112"/>
  </clipPath>
 </defs>
</svg>
