<?xml version="1.0" encoding="utf-8" standalone="no"?>
<!DOCTYPE svg PUBLIC "-//W3C//DTD SVG 1.1//EN"
  "http://www.w3.org/Graphics/SVG/1.1/DTD/svg11.dtd">
<svg xmlns:xlink="http://www.w3.org/1999/xlink" width="405.4683pt" height="325.986375pt" viewBox="0 0 405.4683 325.986375" xmlns="http://www.w3.org/2000/svg" version="1.1">
 <metadata>
  <rdf:RDF xmlns:dc="http://purl.org/dc/elements/1.1/" xmlns:cc="http://creativecommons.org/ns#" xmlns:rdf="http://www.w3.org/1999/02/22-rdf-syntax-ns#">
   <cc:Work>
    <dc:type rdf:resource="http://purl.org/dc/dcmitype/StillImage"/>
    <dc:date>2025-02-18T01:15:31.124221</dc:date>
    <dc:format>image/svg+xml</dc:format>
    <dc:creator>
     <cc:Agent>
      <dc:title>Matplotlib v3.10.0, https://matplotlib.org/</dc:title>
     </cc:Agent>
    </dc:creator>
   </cc:Work>
  </rdf:RDF>
 </metadata>
 <defs>
  <style type="text/css">*{stroke-linejoin: round; stroke-linecap: butt}</style>
 </defs>
 <g id="figure_1">
  <g id="patch_1">
   <path d="M 0 325.986375 
L 405.4683 325.986375 
L 405.4683 0 
L 0 0 
L 0 325.986375 
z
" style="fill: none; opacity: 0"/>
  </g>
  <g id="axes_1">
   <g id="patch_2">
    <path d="M 50.339063 288.430125 
L 336.035063 288.430125 
L 336.035063 22.318125 
L 50.339063 22.318125 
L 50.339063 288.430125 
z
" style="fill: none; opacity: 0"/>
   </g>
   <g id="matplotlib.axis_1">
    <g id="xtick_1">
     <g id="line2d_1">
      <defs>
       <path id="m66899712c1" d="M 0 0 
L 0 3.5 
" style="stroke: #000000; stroke-width: 0.8"/>
      </defs>
      <g>
       <use xlink:href="#m66899712c1" x="50.339063" y="288.430125" style="stroke: #000000; stroke-width: 0.8"/>
      </g>
     </g>
     <g id="text_1">
      <!-- 2020 -->
      <g transform="translate(37.614063 303.028562) scale(0.1 -0.1)">
       <defs>
        <path id="DejaVuSans-32" d="M 1228 531 
L 3431 531 
L 3431 0 
L 469 0 
L 469 531 
Q 828 903 1448 1529 
Q 2069 2156 2228 2338 
Q 2531 2678 2651 2914 
Q 2772 3150 2772 3378 
Q 2772 3750 2511 3984 
Q 2250 4219 1831 4219 
Q 1534 4219 1204 4116 
Q 875 4013 500 3803 
L 500 4441 
Q 881 4594 1212 4672 
Q 1544 4750 1819 4750 
Q 2544 4750 2975 4387 
Q 3406 4025 3406 3419 
Q 3406 3131 3298 2873 
Q 3191 2616 2906 2266 
Q 2828 2175 2409 1742 
Q 1991 1309 1228 531 
z
" transform="scale(0.015625)"/>
        <path id="DejaVuSans-30" d="M 2034 4250 
Q 1547 4250 1301 3770 
Q 1056 3291 1056 2328 
Q 1056 1369 1301 889 
Q 1547 409 2034 409 
Q 2525 409 2770 889 
Q 3016 1369 3016 2328 
Q 3016 3291 2770 3770 
Q 2525 4250 2034 4250 
z
M 2034 4750 
Q 2819 4750 3233 4129 
Q 3647 3509 3647 2328 
Q 3647 1150 3233 529 
Q 2819 -91 2034 -91 
Q 1250 -91 836 529 
Q 422 1150 422 2328 
Q 422 3509 836 4129 
Q 1250 4750 2034 4750 
z
" transform="scale(0.015625)"/>
       </defs>
       <use xlink:href="#DejaVuSans-32"/>
       <use xlink:href="#DejaVuSans-30" transform="translate(63.623047 0)"/>
       <use xlink:href="#DejaVuSans-32" transform="translate(127.246094 0)"/>
       <use xlink:href="#DejaVuSans-30" transform="translate(190.869141 0)"/>
      </g>
     </g>
    </g>
    <g id="xtick_2">
     <g id="line2d_2">
      <g>
       <use xlink:href="#m66899712c1" x="107.478263" y="288.430125" style="stroke: #000000; stroke-width: 0.8"/>
      </g>
     </g>
     <g id="text_2">
      <!-- 2022 -->
      <g transform="translate(94.753263 303.028562) scale(0.1 -0.1)">
       <use xlink:href="#DejaVuSans-32"/>
       <use xlink:href="#DejaVuSans-30" transform="translate(63.623047 0)"/>
       <use xlink:href="#DejaVuSans-32" transform="translate(127.246094 0)"/>
       <use xlink:href="#DejaVuSans-32" transform="translate(190.869141 0)"/>
      </g>
     </g>
    </g>
    <g id="xtick_3">
     <g id="line2d_3">
      <g>
       <use xlink:href="#m66899712c1" x="164.617463" y="288.430125" style="stroke: #000000; stroke-width: 0.8"/>
      </g>
     </g>
     <g id="text_3">
      <!-- 2024 -->
      <g transform="translate(151.892463 303.028562) scale(0.1 -0.1)">
       <defs>
        <path id="DejaVuSans-34" d="M 2419 4116 
L 825 1625 
L 2419 1625 
L 2419 4116 
z
M 2253 4666 
L 3047 4666 
L 3047 1625 
L 3713 1625 
L 3713 1100 
L 3047 1100 
L 3047 0 
L 2419 0 
L 2419 1100 
L 313 1100 
L 313 1709 
L 2253 4666 
z
" transform="scale(0.015625)"/>
       </defs>
       <use xlink:href="#DejaVuSans-32"/>
       <use xlink:href="#DejaVuSans-30" transform="translate(63.623047 0)"/>
       <use xlink:href="#DejaVuSans-32" transform="translate(127.246094 0)"/>
       <use xlink:href="#DejaVuSans-34" transform="translate(190.869141 0)"/>
      </g>
     </g>
    </g>
    <g id="xtick_4">
     <g id="line2d_4">
      <g>
       <use xlink:href="#m66899712c1" x="221.756663" y="288.430125" style="stroke: #000000; stroke-width: 0.8"/>
      </g>
     </g>
     <g id="text_4">
      <!-- 2026 -->
      <g transform="translate(209.031663 303.028562) scale(0.1 -0.1)">
       <defs>
        <path id="DejaVuSans-36" d="M 2113 2584 
Q 1688 2584 1439 2293 
Q 1191 2003 1191 1497 
Q 1191 994 1439 701 
Q 1688 409 2113 409 
Q 2538 409 2786 701 
Q 3034 994 3034 1497 
Q 3034 2003 2786 2293 
Q 2538 2584 2113 2584 
z
M 3366 4563 
L 3366 3988 
Q 3128 4100 2886 4159 
Q 2644 4219 2406 4219 
Q 1781 4219 1451 3797 
Q 1122 3375 1075 2522 
Q 1259 2794 1537 2939 
Q 1816 3084 2150 3084 
Q 2853 3084 3261 2657 
Q 3669 2231 3669 1497 
Q 3669 778 3244 343 
Q 2819 -91 2113 -91 
Q 1303 -91 875 529 
Q 447 1150 447 2328 
Q 447 3434 972 4092 
Q 1497 4750 2381 4750 
Q 2619 4750 2861 4703 
Q 3103 4656 3366 4563 
z
" transform="scale(0.015625)"/>
       </defs>
       <use xlink:href="#DejaVuSans-32"/>
       <use xlink:href="#DejaVuSans-30" transform="translate(63.623047 0)"/>
       <use xlink:href="#DejaVuSans-32" transform="translate(127.246094 0)"/>
       <use xlink:href="#DejaVuSans-36" transform="translate(190.869141 0)"/>
      </g>
     </g>
    </g>
    <g id="xtick_5">
     <g id="line2d_5">
      <g>
       <use xlink:href="#m66899712c1" x="278.895863" y="288.430125" style="stroke: #000000; stroke-width: 0.8"/>
      </g>
     </g>
     <g id="text_5">
      <!-- 2028 -->
      <g transform="translate(266.170863 303.028562) scale(0.1 -0.1)">
       <defs>
        <path id="DejaVuSans-38" d="M 2034 2216 
Q 1584 2216 1326 1975 
Q 1069 1734 1069 1313 
Q 1069 891 1326 650 
Q 1584 409 2034 409 
Q 2484 409 2743 651 
Q 3003 894 3003 1313 
Q 3003 1734 2745 1975 
Q 2488 2216 2034 2216 
z
M 1403 2484 
Q 997 2584 770 2862 
Q 544 3141 544 3541 
Q 544 4100 942 4425 
Q 1341 4750 2034 4750 
Q 2731 4750 3128 4425 
Q 3525 4100 3525 3541 
Q 3525 3141 3298 2862 
Q 3072 2584 2669 2484 
Q 3125 2378 3379 2068 
Q 3634 1759 3634 1313 
Q 3634 634 3220 271 
Q 2806 -91 2034 -91 
Q 1263 -91 848 271 
Q 434 634 434 1313 
Q 434 1759 690 2068 
Q 947 2378 1403 2484 
z
M 1172 3481 
Q 1172 3119 1398 2916 
Q 1625 2713 2034 2713 
Q 2441 2713 2670 2916 
Q 2900 3119 2900 3481 
Q 2900 3844 2670 4047 
Q 2441 4250 2034 4250 
Q 1625 4250 1398 4047 
Q 1172 3844 1172 3481 
z
" transform="scale(0.015625)"/>
       </defs>
       <use xlink:href="#DejaVuSans-32"/>
       <use xlink:href="#DejaVuSans-30" transform="translate(63.623047 0)"/>
       <use xlink:href="#DejaVuSans-32" transform="translate(127.246094 0)"/>
       <use xlink:href="#DejaVuSans-38" transform="translate(190.869141 0)"/>
      </g>
     </g>
    </g>
    <g id="xtick_6">
     <g id="line2d_6">
      <g>
       <use xlink:href="#m66899712c1" x="336.035063" y="288.430125" style="stroke: #000000; stroke-width: 0.8"/>
      </g>
     </g>
     <g id="text_6">
      <!-- 2030 -->
      <g transform="translate(323.310063 303.028562) scale(0.1 -0.1)">
       <defs>
        <path id="DejaVuSans-33" d="M 2597 2516 
Q 3050 2419 3304 2112 
Q 3559 1806 3559 1356 
Q 3559 666 3084 287 
Q 2609 -91 1734 -91 
Q 1441 -91 1130 -33 
Q 819 25 488 141 
L 488 750 
Q 750 597 1062 519 
Q 1375 441 1716 441 
Q 2309 441 2620 675 
Q 2931 909 2931 1356 
Q 2931 1769 2642 2001 
Q 2353 2234 1838 2234 
L 1294 2234 
L 1294 2753 
L 1863 2753 
Q 2328 2753 2575 2939 
Q 2822 3125 2822 3475 
Q 2822 3834 2567 4026 
Q 2313 4219 1838 4219 
Q 1578 4219 1281 4162 
Q 984 4106 628 3988 
L 628 4550 
Q 988 4650 1302 4700 
Q 1616 4750 1894 4750 
Q 2613 4750 3031 4423 
Q 3450 4097 3450 3541 
Q 3450 3153 3228 2886 
Q 3006 2619 2597 2516 
z
" transform="scale(0.015625)"/>
       </defs>
       <use xlink:href="#DejaVuSans-32"/>
       <use xlink:href="#DejaVuSans-30" transform="translate(63.623047 0)"/>
       <use xlink:href="#DejaVuSans-33" transform="translate(127.246094 0)"/>
       <use xlink:href="#DejaVuSans-30" transform="translate(190.869141 0)"/>
      </g>
     </g>
    </g>
    <g id="text_7">
     <!-- Year -->
     <g transform="translate(182.599563 316.706687) scale(0.1 -0.1)">
      <defs>
       <path id="DejaVuSans-59" d="M -13 4666 
L 666 4666 
L 1959 2747 
L 3244 4666 
L 3922 4666 
L 2272 2222 
L 2272 0 
L 1638 0 
L 1638 2222 
L -13 4666 
z
" transform="scale(0.015625)"/>
       <path id="DejaVuSans-65" d="M 3597 1894 
L 3597 1613 
L 953 1613 
Q 991 1019 1311 708 
Q 1631 397 2203 397 
Q 2534 397 2845 478 
Q 3156 559 3463 722 
L 3463 178 
Q 3153 47 2828 -22 
Q 2503 -91 2169 -91 
Q 1331 -91 842 396 
Q 353 884 353 1716 
Q 353 2575 817 3079 
Q 1281 3584 2069 3584 
Q 2775 3584 3186 3129 
Q 3597 2675 3597 1894 
z
M 3022 2063 
Q 3016 2534 2758 2815 
Q 2500 3097 2075 3097 
Q 1594 3097 1305 2825 
Q 1016 2553 972 2059 
L 3022 2063 
z
" transform="scale(0.015625)"/>
       <path id="DejaVuSans-61" d="M 2194 1759 
Q 1497 1759 1228 1600 
Q 959 1441 959 1056 
Q 959 750 1161 570 
Q 1363 391 1709 391 
Q 2188 391 2477 730 
Q 2766 1069 2766 1631 
L 2766 1759 
L 2194 1759 
z
M 3341 1997 
L 3341 0 
L 2766 0 
L 2766 531 
Q 2569 213 2275 61 
Q 1981 -91 1556 -91 
Q 1019 -91 701 211 
Q 384 513 384 1019 
Q 384 1609 779 1909 
Q 1175 2209 1959 2209 
L 2766 2209 
L 2766 2266 
Q 2766 2663 2505 2880 
Q 2244 3097 1772 3097 
Q 1472 3097 1187 3025 
Q 903 2953 641 2809 
L 641 3341 
Q 956 3463 1253 3523 
Q 1550 3584 1831 3584 
Q 2591 3584 2966 3190 
Q 3341 2797 3341 1997 
z
" transform="scale(0.015625)"/>
       <path id="DejaVuSans-72" d="M 2631 2963 
Q 2534 3019 2420 3045 
Q 2306 3072 2169 3072 
Q 1681 3072 1420 2755 
Q 1159 2438 1159 1844 
L 1159 0 
L 581 0 
L 581 3500 
L 1159 3500 
L 1159 2956 
Q 1341 3275 1631 3429 
Q 1922 3584 2338 3584 
Q 2397 3584 2469 3576 
Q 2541 3569 2628 3553 
L 2631 2963 
z
" transform="scale(0.015625)"/>
      </defs>
      <use xlink:href="#DejaVuSans-59"/>
      <use xlink:href="#DejaVuSans-65" transform="translate(47.833984 0)"/>
      <use xlink:href="#DejaVuSans-61" transform="translate(109.357422 0)"/>
      <use xlink:href="#DejaVuSans-72" transform="translate(170.636719 0)"/>
     </g>
    </g>
   </g>
   <g id="matplotlib.axis_2">
    <g id="ytick_1">
     <g id="line2d_7">
      <defs>
       <path id="m407b421ecc" d="M 0 0 
L -3.5 0 
" style="stroke: #000000; stroke-width: 0.8"/>
      </defs>
      <g>
       <use xlink:href="#m407b421ecc" x="50.339063" y="288.430125" style="stroke: #000000; stroke-width: 0.8"/>
      </g>
     </g>
     <g id="text_8">
      <!-- 0 -->
      <g transform="translate(36.976562 292.229344) scale(0.1 -0.1)">
       <use xlink:href="#DejaVuSans-30"/>
      </g>
     </g>
    </g>
    <g id="ytick_2">
     <g id="line2d_8">
      <g>
       <use xlink:href="#m407b421ecc" x="50.339063" y="239.66822" style="stroke: #000000; stroke-width: 0.8"/>
      </g>
     </g>
     <g id="text_9">
      <!-- 200 -->
      <g transform="translate(24.251563 243.467439) scale(0.1 -0.1)">
       <use xlink:href="#DejaVuSans-32"/>
       <use xlink:href="#DejaVuSans-30" transform="translate(63.623047 0)"/>
       <use xlink:href="#DejaVuSans-30" transform="translate(127.246094 0)"/>
      </g>
     </g>
    </g>
    <g id="ytick_3">
     <g id="line2d_9">
      <g>
       <use xlink:href="#m407b421ecc" x="50.339063" y="190.906315" style="stroke: #000000; stroke-width: 0.8"/>
      </g>
     </g>
     <g id="text_10">
      <!-- 400 -->
      <g transform="translate(24.251563 194.705534) scale(0.1 -0.1)">
       <use xlink:href="#DejaVuSans-34"/>
       <use xlink:href="#DejaVuSans-30" transform="translate(63.623047 0)"/>
       <use xlink:href="#DejaVuSans-30" transform="translate(127.246094 0)"/>
      </g>
     </g>
    </g>
    <g id="ytick_4">
     <g id="line2d_10">
      <g>
       <use xlink:href="#m407b421ecc" x="50.339063" y="142.144411" style="stroke: #000000; stroke-width: 0.8"/>
      </g>
     </g>
     <g id="text_11">
      <!-- 600 -->
      <g transform="translate(24.251563 145.943629) scale(0.1 -0.1)">
       <use xlink:href="#DejaVuSans-36"/>
       <use xlink:href="#DejaVuSans-30" transform="translate(63.623047 0)"/>
       <use xlink:href="#DejaVuSans-30" transform="translate(127.246094 0)"/>
      </g>
     </g>
    </g>
    <g id="ytick_5">
     <g id="line2d_11">
      <g>
       <use xlink:href="#m407b421ecc" x="50.339063" y="93.382506" style="stroke: #000000; stroke-width: 0.8"/>
      </g>
     </g>
     <g id="text_12">
      <!-- 800 -->
      <g transform="translate(24.251563 97.181725) scale(0.1 -0.1)">
       <use xlink:href="#DejaVuSans-38"/>
       <use xlink:href="#DejaVuSans-30" transform="translate(63.623047 0)"/>
       <use xlink:href="#DejaVuSans-30" transform="translate(127.246094 0)"/>
      </g>
     </g>
    </g>
    <g id="ytick_6">
     <g id="line2d_12">
      <g>
       <use xlink:href="#m407b421ecc" x="50.339063" y="44.620601" style="stroke: #000000; stroke-width: 0.8"/>
      </g>
     </g>
     <g id="text_13">
      <!-- 1.0K -->
      <g transform="translate(20.878125 48.41982) scale(0.1 -0.1)">
       <defs>
        <path id="DejaVuSans-31" d="M 794 531 
L 1825 531 
L 1825 4091 
L 703 3866 
L 703 4441 
L 1819 4666 
L 2450 4666 
L 2450 531 
L 3481 531 
L 3481 0 
L 794 0 
L 794 531 
z
" transform="scale(0.015625)"/>
        <path id="DejaVuSans-2e" d="M 684 794 
L 1344 794 
L 1344 0 
L 684 0 
L 684 794 
z
" transform="scale(0.015625)"/>
        <path id="DejaVuSans-4b" d="M 628 4666 
L 1259 4666 
L 1259 2694 
L 3353 4666 
L 4166 4666 
L 1850 2491 
L 4331 0 
L 3500 0 
L 1259 2247 
L 1259 0 
L 628 0 
L 628 4666 
z
" transform="scale(0.015625)"/>
       </defs>
       <use xlink:href="#DejaVuSans-31"/>
       <use xlink:href="#DejaVuSans-2e" transform="translate(63.623047 0)"/>
       <use xlink:href="#DejaVuSans-30" transform="translate(95.410156 0)"/>
       <use xlink:href="#DejaVuSans-4b" transform="translate(159.033203 0)"/>
      </g>
     </g>
    </g>
    <g id="text_14">
     <!-- Number of people -->
     <g transform="translate(14.798438 200.407719) rotate(-90) scale(0.1 -0.1)">
      <defs>
       <path id="DejaVuSans-4e" d="M 628 4666 
L 1478 4666 
L 3547 763 
L 3547 4666 
L 4159 4666 
L 4159 0 
L 3309 0 
L 1241 3903 
L 1241 0 
L 628 0 
L 628 4666 
z
" transform="scale(0.015625)"/>
       <path id="DejaVuSans-75" d="M 544 1381 
L 544 3500 
L 1119 3500 
L 1119 1403 
Q 1119 906 1312 657 
Q 1506 409 1894 409 
Q 2359 409 2629 706 
Q 2900 1003 2900 1516 
L 2900 3500 
L 3475 3500 
L 3475 0 
L 2900 0 
L 2900 538 
Q 2691 219 2414 64 
Q 2138 -91 1772 -91 
Q 1169 -91 856 284 
Q 544 659 544 1381 
z
M 1991 3584 
L 1991 3584 
z
" transform="scale(0.015625)"/>
       <path id="DejaVuSans-6d" d="M 3328 2828 
Q 3544 3216 3844 3400 
Q 4144 3584 4550 3584 
Q 5097 3584 5394 3201 
Q 5691 2819 5691 2113 
L 5691 0 
L 5113 0 
L 5113 2094 
Q 5113 2597 4934 2840 
Q 4756 3084 4391 3084 
Q 3944 3084 3684 2787 
Q 3425 2491 3425 1978 
L 3425 0 
L 2847 0 
L 2847 2094 
Q 2847 2600 2669 2842 
Q 2491 3084 2119 3084 
Q 1678 3084 1418 2786 
Q 1159 2488 1159 1978 
L 1159 0 
L 581 0 
L 581 3500 
L 1159 3500 
L 1159 2956 
Q 1356 3278 1631 3431 
Q 1906 3584 2284 3584 
Q 2666 3584 2933 3390 
Q 3200 3197 3328 2828 
z
" transform="scale(0.015625)"/>
       <path id="DejaVuSans-62" d="M 3116 1747 
Q 3116 2381 2855 2742 
Q 2594 3103 2138 3103 
Q 1681 3103 1420 2742 
Q 1159 2381 1159 1747 
Q 1159 1113 1420 752 
Q 1681 391 2138 391 
Q 2594 391 2855 752 
Q 3116 1113 3116 1747 
z
M 1159 2969 
Q 1341 3281 1617 3432 
Q 1894 3584 2278 3584 
Q 2916 3584 3314 3078 
Q 3713 2572 3713 1747 
Q 3713 922 3314 415 
Q 2916 -91 2278 -91 
Q 1894 -91 1617 61 
Q 1341 213 1159 525 
L 1159 0 
L 581 0 
L 581 4863 
L 1159 4863 
L 1159 2969 
z
" transform="scale(0.015625)"/>
       <path id="DejaVuSans-20" transform="scale(0.015625)"/>
       <path id="DejaVuSans-6f" d="M 1959 3097 
Q 1497 3097 1228 2736 
Q 959 2375 959 1747 
Q 959 1119 1226 758 
Q 1494 397 1959 397 
Q 2419 397 2687 759 
Q 2956 1122 2956 1747 
Q 2956 2369 2687 2733 
Q 2419 3097 1959 3097 
z
M 1959 3584 
Q 2709 3584 3137 3096 
Q 3566 2609 3566 1747 
Q 3566 888 3137 398 
Q 2709 -91 1959 -91 
Q 1206 -91 779 398 
Q 353 888 353 1747 
Q 353 2609 779 3096 
Q 1206 3584 1959 3584 
z
" transform="scale(0.015625)"/>
       <path id="DejaVuSans-66" d="M 2375 4863 
L 2375 4384 
L 1825 4384 
Q 1516 4384 1395 4259 
Q 1275 4134 1275 3809 
L 1275 3500 
L 2222 3500 
L 2222 3053 
L 1275 3053 
L 1275 0 
L 697 0 
L 697 3053 
L 147 3053 
L 147 3500 
L 697 3500 
L 697 3744 
Q 697 4328 969 4595 
Q 1241 4863 1831 4863 
L 2375 4863 
z
" transform="scale(0.015625)"/>
       <path id="DejaVuSans-70" d="M 1159 525 
L 1159 -1331 
L 581 -1331 
L 581 3500 
L 1159 3500 
L 1159 2969 
Q 1341 3281 1617 3432 
Q 1894 3584 2278 3584 
Q 2916 3584 3314 3078 
Q 3713 2572 3713 1747 
Q 3713 922 3314 415 
Q 2916 -91 2278 -91 
Q 1894 -91 1617 61 
Q 1341 213 1159 525 
z
M 3116 1747 
Q 3116 2381 2855 2742 
Q 2594 3103 2138 3103 
Q 1681 3103 1420 2742 
Q 1159 2381 1159 1747 
Q 1159 1113 1420 752 
Q 1681 391 2138 391 
Q 2594 391 2855 752 
Q 3116 1113 3116 1747 
z
" transform="scale(0.015625)"/>
       <path id="DejaVuSans-6c" d="M 603 4863 
L 1178 4863 
L 1178 0 
L 603 0 
L 603 4863 
z
" transform="scale(0.015625)"/>
      </defs>
      <use xlink:href="#DejaVuSans-4e"/>
      <use xlink:href="#DejaVuSans-75" transform="translate(74.804688 0)"/>
      <use xlink:href="#DejaVuSans-6d" transform="translate(138.183594 0)"/>
      <use xlink:href="#DejaVuSans-62" transform="translate(235.595703 0)"/>
      <use xlink:href="#DejaVuSans-65" transform="translate(299.072266 0)"/>
      <use xlink:href="#DejaVuSans-72" transform="translate(360.595703 0)"/>
      <use xlink:href="#DejaVuSans-20" transform="translate(401.708984 0)"/>
      <use xlink:href="#DejaVuSans-6f" transform="translate(433.496094 0)"/>
      <use xlink:href="#DejaVuSans-66" transform="translate(494.677734 0)"/>
      <use xlink:href="#DejaVuSans-20" transform="translate(529.882812 0)"/>
      <use xlink:href="#DejaVuSans-70" transform="translate(561.669922 0)"/>
      <use xlink:href="#DejaVuSans-65" transform="translate(625.146484 0)"/>
      <use xlink:href="#DejaVuSans-6f" transform="translate(686.669922 0)"/>
      <use xlink:href="#DejaVuSans-70" transform="translate(747.851562 0)"/>
      <use xlink:href="#DejaVuSans-6c" transform="translate(811.328125 0)"/>
      <use xlink:href="#DejaVuSans-65" transform="translate(839.111328 0)"/>
     </g>
    </g>
   </g>
   <g id="line2d_13">
    <path d="M 50.339063 47.058696 
L 52.053239 48.090048 
L 53.767415 49.412402 
L 55.195895 50.791364 
L 56.624375 52.47821 
L 58.052855 54.534456 
L 59.481335 57.030312 
L 60.909815 60.044106 
L 62.338295 63.660647 
L 63.766775 67.968102 
L 65.195255 73.05298 
L 66.623735 78.99296 
L 68.052215 85.847567 
L 69.766391 95.320581 
L 71.480567 106.126551 
L 73.480439 120.236286 
L 76.051703 140.10149 
L 81.765623 184.892395 
L 84.051191 200.655532 
L 86.051063 212.779421 
L 87.765239 221.855015 
L 89.479415 229.745948 
L 91.193591 236.535228 
L 92.907767 242.334074 
L 94.621943 247.264123 
L 96.336119 251.445391 
L 98.050295 254.989168 
L 99.764471 257.99458 
L 101.478647 260.547558 
L 103.192823 262.721253 
L 104.906999 264.577183 
L 106.906871 266.408811 
L 108.906743 267.944226 
L 111.192311 269.404596 
L 113.477879 270.611249 
L 116.049143 271.726681 
L 118.906103 272.728478 
L 122.334455 273.676068 
L 126.048503 274.466139 
L 130.333943 275.153097 
L 135.476471 275.750417 
L 141.761783 276.250791 
L 149.761271 276.653922 
L 160.332023 276.953066 
L 176.045303 277.154888 
L 204.329207 277.258345 
L 302.037239 277.281161 
L 336.035063 277.281216 
L 336.035063 277.281216 
" clip-path="url(#pf713e8aa71)" style="fill: none; stroke: #377eb8; stroke-width: 3; stroke-linecap: square"/>
   </g>
   <g id="line2d_14">
    <path d="M 50.339063 285.99203 
L 52.338935 285.151368 
L 54.053111 284.211708 
L 55.767287 283.015278 
L 57.195767 281.777607 
L 58.624247 280.277403 
L 60.052727 278.469132 
L 61.481207 276.304334 
L 62.909687 273.734006 
L 64.338167 270.712355 
L 65.766647 267.202133 
L 67.480823 262.315882 
L 69.194999 256.705039 
L 71.194871 249.353236 
L 74.337527 236.746309 
L 77.194487 225.542455 
L 78.908663 219.655232 
L 80.337143 215.520537 
L 81.479927 212.819512 
L 82.622711 210.707837 
L 83.479799 209.524364 
L 84.336887 208.685115 
L 85.193975 208.183934 
L 86.051063 208.008939 
L 86.908151 208.143488 
L 87.765239 208.567218 
L 88.622327 209.257054 
L 89.765111 210.547722 
L 90.907895 212.206225 
L 92.336375 214.704026 
L 94.050551 218.175762 
L 96.336119 223.326113 
L 105.764087 245.207113 
L 108.621047 250.983854 
L 111.192311 255.67772 
L 113.763575 259.887066 
L 116.049143 263.235016 
L 118.334711 266.233241 
L 120.620279 268.90632 
L 123.191543 271.558046 
L 125.762807 273.870404 
L 128.334071 275.880733 
L 130.905335 277.624178 
L 133.762295 279.287599 
L 136.619255 280.701473 
L 139.761911 282.010673 
L 143.190263 283.191387 
L 146.904311 284.229819 
L 150.904055 285.121389 
L 155.475191 285.912717 
L 160.903415 286.611725 
L 167.188727 287.183227 
L 174.902519 287.645891 
L 184.616183 287.993036 
L 198.043895 288.235435 
L 219.756791 288.37751 
L 270.896375 288.427713 
L 336.035063 288.430077 
L 336.035063 288.430077 
" clip-path="url(#pf713e8aa71)" style="fill: none; stroke: #e41a1c; stroke-width: 3; stroke-linecap: square"/>
   </g>
   <g id="line2d_15">
    <path d="M 50.339063 288.430125 
L 53.196023 287.835816 
L 55.481591 287.143568 
L 57.481463 286.317552 
L 59.195639 285.394801 
L 60.909815 284.220548 
L 62.623991 282.73402 
L 64.052471 281.20588 
L 65.480951 279.365921 
L 66.909431 277.164771 
L 68.337911 274.55132 
L 69.766391 271.475258 
L 71.194871 267.890458 
L 72.623351 263.759019 
L 74.337527 258.045213 
L 76.051703 251.497217 
L 78.051575 242.846332 
L 80.337143 231.782921 
L 83.194103 216.632028 
L 93.764855 159.012558 
L 96.336119 146.709348 
L 98.907383 135.47808 
L 101.192951 126.42437 
L 103.478519 118.233874 
L 105.764087 110.871352 
L 108.049655 104.2872 
L 110.335223 98.423858 
L 112.620791 93.220394 
L 114.906359 88.61565 
L 117.191927 84.550324 
L 119.477495 80.968262 
L 121.763063 77.817196 
L 124.048631 75.049094 
L 126.334199 72.620247 
L 128.619767 70.491179 
L 131.191031 68.410339 
L 133.762295 66.61941 
L 136.619255 64.921965 
L 139.476215 63.487477 
L 142.618871 62.165746 
L 146.047223 60.978964 
L 149.761271 59.939177 
L 153.761015 59.049344 
L 158.332151 58.261752 
L 163.760375 57.567728 
L 170.045687 57.001456 
L 177.759479 56.543775 
L 187.473143 56.200806 
L 201.186551 55.958265 
L 223.185143 55.819633 
L 276.324599 55.771539 
L 336.035063 55.769558 
L 336.035063 55.769558 
" clip-path="url(#pf713e8aa71)" style="fill: none; stroke: #4daf4a; stroke-width: 3; stroke-linecap: square"/>
   </g>
   <g id="line2d_16">
    <path d="M 50.339063 47.058696 
L 53.196023 48.983162 
L 56.052983 51.906098 
L 58.909943 56.287535 
L 61.766902 62.718333 
L 64.623862 71.928781 
L 67.480822 84.54856 
L 70.337782 100.926352 
L 73.194742 120.795596 
L 76.051702 143.096444 
L 78.908662 165.958877 
L 81.765622 187.386312 
L 84.622582 206.224895 
L 87.479542 221.865091 
L 90.336502 234.229681 
L 93.193462 243.724715 
L 96.050422 251.006268 
L 98.907382 256.637422 
L 101.764342 260.984326 
L 104.621302 264.261376 
L 107.478262 266.786117 
L 110.335222 268.759609 
L 113.192182 270.320826 
L 116.049142 271.566106 
L 118.906102 272.562588 
L 121.763062 273.370534 
L 124.620022 274.020395 
L 127.476982 274.540577 
L 130.333942 274.958592 
L 133.190902 275.30106 
L 136.047862 275.592925 
L 138.904822 275.840172 
L 141.761782 276.045507 
L 144.618742 276.215071 
L 147.475702 276.354884 
L 150.332662 276.470843 
L 153.189622 276.568724 
L 156.046582 276.652345 
L 158.903542 276.722595 
L 161.760502 276.781378 
L 164.617462 276.8305 
L 167.474422 276.871658 
L 170.331382 276.906437 
L 173.188342 276.935933 
L 176.045302 276.960773 
L 178.902262 276.981622 
L 181.759222 276.999105 
L 184.616182 277.013807 
L 187.473142 277.026262 
L 190.330102 277.036813 
L 193.187062 277.045701 
L 196.044022 277.053167 
L 198.900982 277.059438 
L 201.757942 277.064721 
L 204.614902 277.069205 
L 207.471862 277.072998 
L 210.328822 277.076192 
L 213.185782 277.078875 
L 216.042742 277.08113 
L 218.899702 277.083034 
L 221.756662 277.084651 
L 224.613622 277.086016 
L 227.470582 277.087166 
L 230.327542 277.088131 
L 233.184502 277.088943 
L 236.041462 277.08963 
L 238.898422 277.090213 
L 241.755382 277.090705 
L 244.612342 277.091119 
L 247.469302 277.091467 
L 250.326262 277.091759 
L 253.183222 277.092007 
L 256.040182 277.092218 
L 258.897142 277.092395 
L 261.754102 277.092544 
L 264.611062 277.092669 
L 267.468022 277.092774 
L 270.324982 277.092864 
L 273.181942 277.09294 
L 276.038902 277.093004 
L 278.895862 277.093057 
L 281.752822 277.093102 
L 284.609782 277.09314 
L 287.466742 277.093173 
L 290.323702 277.0932 
L 293.180662 277.093223 
L 296.037622 277.093242 
L 298.894582 277.093259 
L 301.751542 277.093272 
L 304.608502 277.093284 
L 307.465462 277.093294 
L 310.322422 277.093302 
L 313.179382 277.093309 
L 316.036342 277.093315 
L 318.893302 277.09332 
L 321.750262 277.093324 
L 324.607222 277.093328 
L 327.464182 277.093331 
L 330.321142 277.093333 
L 333.178102 277.093335 
" clip-path="url(#pf713e8aa71)" style="fill: none; stroke-dasharray: 18.5,8; stroke-dashoffset: 0; stroke: #377eb8; stroke-width: 5"/>
   </g>
   <g id="line2d_17">
    <path d="M 50.339063 285.99203 
L 53.196023 284.677491 
L 56.052983 282.690312 
L 58.909943 279.733531 
L 61.766902 275.444748 
L 64.623862 269.404895 
L 67.480822 261.358681 
L 70.337782 251.350419 
L 73.194742 240.022999 
L 76.051702 228.573294 
L 78.908662 218.713553 
L 81.765622 211.990371 
L 84.622582 208.817763 
L 87.479542 209.099395 
L 90.336502 212.308331 
L 93.193462 217.522019 
L 96.050422 223.79511 
L 98.907382 230.443838 
L 101.764342 237.047765 
L 104.621302 243.405195 
L 107.478262 249.284006 
L 110.335222 254.599133 
L 113.192182 259.325862 
L 116.049142 263.479443 
L 118.906102 267.10691 
L 121.763062 270.253716 
L 124.620022 272.96894 
L 127.476982 275.300067 
L 130.333942 277.292566 
L 133.190902 278.989893 
L 136.047862 280.433746 
L 138.904822 281.664718 
L 141.761782 282.710631 
L 144.618742 283.595396 
L 147.475702 284.341878 
L 150.332662 284.971901 
L 153.189622 285.506248 
L 156.046582 285.961506 
L 158.903542 286.346873 
L 161.760502 286.671832 
L 164.617462 286.945324 
L 167.474422 287.175736 
L 170.331382 287.370891 
L 173.188342 287.53663 
L 176.045302 287.676605 
L 178.902262 287.794424 
L 181.759222 287.893472 
L 184.616182 287.976913 
L 187.473142 288.047653 
L 190.330102 288.107622 
L 193.187062 288.158194 
L 196.044022 288.200721 
L 198.900982 288.236466 
L 201.757942 288.266606 
L 204.614902 288.292188 
L 207.471862 288.313834 
L 210.328822 288.332069 
L 213.185782 288.347394 
L 216.042742 288.360279 
L 218.899702 288.371161 
L 221.756662 288.380401 
L 224.613622 288.388207 
L 227.470582 288.394776 
L 230.327542 288.400295 
L 233.184502 288.404939 
L 236.041462 288.408869 
L 238.898422 288.412204 
L 241.755382 288.415017 
L 244.612342 288.417382 
L 247.469302 288.41937 
L 250.326262 288.421044 
L 253.183222 288.422464 
L 256.040182 288.423666 
L 258.897142 288.42468 
L 261.754102 288.425531 
L 264.611062 288.426247 
L 267.468022 288.426851 
L 270.324982 288.427364 
L 273.181942 288.427797 
L 276.038902 288.428162 
L 278.895862 288.428469 
L 281.752822 288.428727 
L 284.609782 288.428945 
L 287.466742 288.42913 
L 290.323702 288.429286 
L 293.180662 288.429418 
L 296.037622 288.429528 
L 298.894582 288.429621 
L 301.751542 288.4297 
L 304.608502 288.429766 
L 307.465462 288.429823 
L 310.322422 288.42987 
L 313.179382 288.42991 
L 316.036342 288.429943 
L 318.893302 288.429972 
L 321.750262 288.429996 
L 324.607222 288.430016 
L 327.464182 288.430033 
L 330.321142 288.430047 
L 333.178102 288.430059 
" clip-path="url(#pf713e8aa71)" style="fill: none; stroke-dasharray: 18.5,8; stroke-dashoffset: 0; stroke: #e41a1c; stroke-width: 5"/>
   </g>
   <g id="line2d_18">
    <path d="M 50.339063 288.430125 
L 53.196023 287.820199 
L 56.052983 286.884441 
L 58.909943 285.459785 
L 61.766902 283.317771 
L 64.623862 280.147175 
L 67.480822 275.57361 
L 70.337782 269.20408 
L 73.194742 260.662257 
L 76.051702 249.811113 
L 78.908662 236.80842 
L 81.765622 222.104168 
L 84.622582 206.438193 
L 87.479542 190.516366 
L 90.336502 174.942839 
L 93.193462 160.234117 
L 96.050422 146.679473 
L 98.907382 134.399592 
L 101.764342 123.44876 
L 104.621302 113.81428 
L 107.478262 105.410728 
L 110.335222 98.122109 
L 113.192182 91.834163 
L 116.049142 86.435302 
L 118.906102 81.811353 
L 121.763062 77.856601 
L 124.620022 74.491516 
L 127.476982 71.640207 
L 130.333942 69.229692 
L 133.190902 67.189898 
L 136.047862 65.454179 
L 138.904822 63.975962 
L 141.761782 62.724713 
L 144.618742 61.670384 
L 147.475702 60.78409 
L 150.332662 60.038107 
L 153.189622 59.405879 
L 156.046582 58.867 
L 158.903542 58.411384 
L 161.760502 58.027642 
L 164.617462 57.705027 
L 167.474422 57.433457 
L 170.331382 57.203524 
L 173.188342 57.008288 
L 176.045302 56.843474 
L 178.902262 56.704805 
L 181.759222 56.588274 
L 184.616182 56.490132 
L 187.473142 56.406937 
L 190.330102 56.336417 
L 193.187062 56.276956 
L 196.044022 56.226963 
L 198.900982 56.184948 
L 201.757942 56.149524 
L 204.614902 56.119458 
L 207.471862 56.094019 
L 210.328822 56.07259 
L 213.185782 56.054582 
L 216.042742 56.039442 
L 218.899702 56.026656 
L 221.756662 56.015799 
L 224.613622 56.006628 
L 227.470582 55.99891 
L 230.327542 55.992425 
L 233.184502 55.986969 
L 236.041462 55.982351 
L 238.898422 55.978434 
L 241.755382 55.975129 
L 244.612342 55.97235 
L 247.469302 55.970015 
L 250.326262 55.968048 
L 253.183222 55.96638 
L 256.040182 55.964967 
L 258.897142 55.963777 
L 261.754102 55.962776 
L 264.611062 55.961935 
L 267.468022 55.961226 
L 270.324982 55.960623 
L 273.181942 55.960114 
L 276.038902 55.959685 
L 278.895862 55.959325 
L 281.752822 55.959022 
L 284.609782 55.958766 
L 287.466742 55.958549 
L 290.323702 55.958365 
L 293.180662 55.958211 
L 296.037622 55.958081 
L 298.894582 55.957972 
L 301.751542 55.957879 
L 304.608502 55.957801 
L 307.465462 55.957735 
L 310.322422 55.957679 
L 313.179382 55.957632 
L 316.036342 55.957593 
L 318.893302 55.95756 
L 321.750262 55.957531 
L 324.607222 55.957508 
L 327.464182 55.957487 
L 330.321142 55.957471 
L 333.178102 55.957456 
" clip-path="url(#pf713e8aa71)" style="fill: none; stroke-dasharray: 18.5,8; stroke-dashoffset: 0; stroke: #4daf4a; stroke-width: 5"/>
   </g>
   <g id="patch_3">
    <path d="M 50.339063 288.430125 
L 50.339063 22.318125 
" style="fill: none; stroke: #000000; stroke-width: 0.8; stroke-linejoin: miter; stroke-linecap: square"/>
   </g>
   <g id="patch_4">
    <path d="M 336.035063 288.430125 
L 336.035063 22.318125 
" style="fill: none"/>
   </g>
   <g id="patch_5">
    <path d="M 50.339063 288.430125 
L 336.035063 288.430125 
" style="fill: none; stroke: #000000; stroke-width: 0.8; stroke-linejoin: miter; stroke-linecap: square"/>
   </g>
   <g id="patch_6">
    <path d="M 50.339063 22.318125 
L 336.035063 22.318125 
" style="fill: none"/>
   </g>
   <g id="text_15">
    <!-- Compartment size comparison -->
    <g transform="translate(101.0055 16.318125) scale(0.12 -0.12)">
     <defs>
      <path id="DejaVuSans-43" d="M 4122 4306 
L 4122 3641 
Q 3803 3938 3442 4084 
Q 3081 4231 2675 4231 
Q 1875 4231 1450 3742 
Q 1025 3253 1025 2328 
Q 1025 1406 1450 917 
Q 1875 428 2675 428 
Q 3081 428 3442 575 
Q 3803 722 4122 1019 
L 4122 359 
Q 3791 134 3420 21 
Q 3050 -91 2638 -91 
Q 1578 -91 968 557 
Q 359 1206 359 2328 
Q 359 3453 968 4101 
Q 1578 4750 2638 4750 
Q 3056 4750 3426 4639 
Q 3797 4528 4122 4306 
z
" transform="scale(0.015625)"/>
      <path id="DejaVuSans-74" d="M 1172 4494 
L 1172 3500 
L 2356 3500 
L 2356 3053 
L 1172 3053 
L 1172 1153 
Q 1172 725 1289 603 
Q 1406 481 1766 481 
L 2356 481 
L 2356 0 
L 1766 0 
Q 1100 0 847 248 
Q 594 497 594 1153 
L 594 3053 
L 172 3053 
L 172 3500 
L 594 3500 
L 594 4494 
L 1172 4494 
z
" transform="scale(0.015625)"/>
      <path id="DejaVuSans-6e" d="M 3513 2113 
L 3513 0 
L 2938 0 
L 2938 2094 
Q 2938 2591 2744 2837 
Q 2550 3084 2163 3084 
Q 1697 3084 1428 2787 
Q 1159 2491 1159 1978 
L 1159 0 
L 581 0 
L 581 3500 
L 1159 3500 
L 1159 2956 
Q 1366 3272 1645 3428 
Q 1925 3584 2291 3584 
Q 2894 3584 3203 3211 
Q 3513 2838 3513 2113 
z
" transform="scale(0.015625)"/>
      <path id="DejaVuSans-73" d="M 2834 3397 
L 2834 2853 
Q 2591 2978 2328 3040 
Q 2066 3103 1784 3103 
Q 1356 3103 1142 2972 
Q 928 2841 928 2578 
Q 928 2378 1081 2264 
Q 1234 2150 1697 2047 
L 1894 2003 
Q 2506 1872 2764 1633 
Q 3022 1394 3022 966 
Q 3022 478 2636 193 
Q 2250 -91 1575 -91 
Q 1294 -91 989 -36 
Q 684 19 347 128 
L 347 722 
Q 666 556 975 473 
Q 1284 391 1588 391 
Q 1994 391 2212 530 
Q 2431 669 2431 922 
Q 2431 1156 2273 1281 
Q 2116 1406 1581 1522 
L 1381 1569 
Q 847 1681 609 1914 
Q 372 2147 372 2553 
Q 372 3047 722 3315 
Q 1072 3584 1716 3584 
Q 2034 3584 2315 3537 
Q 2597 3491 2834 3397 
z
" transform="scale(0.015625)"/>
      <path id="DejaVuSans-69" d="M 603 3500 
L 1178 3500 
L 1178 0 
L 603 0 
L 603 3500 
z
M 603 4863 
L 1178 4863 
L 1178 4134 
L 603 4134 
L 603 4863 
z
" transform="scale(0.015625)"/>
      <path id="DejaVuSans-7a" d="M 353 3500 
L 3084 3500 
L 3084 2975 
L 922 459 
L 3084 459 
L 3084 0 
L 275 0 
L 275 525 
L 2438 3041 
L 353 3041 
L 353 3500 
z
" transform="scale(0.015625)"/>
      <path id="DejaVuSans-63" d="M 3122 3366 
L 3122 2828 
Q 2878 2963 2633 3030 
Q 2388 3097 2138 3097 
Q 1578 3097 1268 2742 
Q 959 2388 959 1747 
Q 959 1106 1268 751 
Q 1578 397 2138 397 
Q 2388 397 2633 464 
Q 2878 531 3122 666 
L 3122 134 
Q 2881 22 2623 -34 
Q 2366 -91 2075 -91 
Q 1284 -91 818 406 
Q 353 903 353 1747 
Q 353 2603 823 3093 
Q 1294 3584 2113 3584 
Q 2378 3584 2631 3529 
Q 2884 3475 3122 3366 
z
" transform="scale(0.015625)"/>
     </defs>
     <use xlink:href="#DejaVuSans-43"/>
     <use xlink:href="#DejaVuSans-6f" transform="translate(69.824219 0)"/>
     <use xlink:href="#DejaVuSans-6d" transform="translate(131.005859 0)"/>
     <use xlink:href="#DejaVuSans-70" transform="translate(228.417969 0)"/>
     <use xlink:href="#DejaVuSans-61" transform="translate(291.894531 0)"/>
     <use xlink:href="#DejaVuSans-72" transform="translate(353.173828 0)"/>
     <use xlink:href="#DejaVuSans-74" transform="translate(394.287109 0)"/>
     <use xlink:href="#DejaVuSans-6d" transform="translate(433.496094 0)"/>
     <use xlink:href="#DejaVuSans-65" transform="translate(530.908203 0)"/>
     <use xlink:href="#DejaVuSans-6e" transform="translate(592.431641 0)"/>
     <use xlink:href="#DejaVuSans-74" transform="translate(655.810547 0)"/>
     <use xlink:href="#DejaVuSans-20" transform="translate(695.019531 0)"/>
     <use xlink:href="#DejaVuSans-73" transform="translate(726.806641 0)"/>
     <use xlink:href="#DejaVuSans-69" transform="translate(778.90625 0)"/>
     <use xlink:href="#DejaVuSans-7a" transform="translate(806.689453 0)"/>
     <use xlink:href="#DejaVuSans-65" transform="translate(859.179688 0)"/>
     <use xlink:href="#DejaVuSans-20" transform="translate(920.703125 0)"/>
     <use xlink:href="#DejaVuSans-63" transform="translate(952.490234 0)"/>
     <use xlink:href="#DejaVuSans-6f" transform="translate(1007.470703 0)"/>
     <use xlink:href="#DejaVuSans-6d" transform="translate(1068.652344 0)"/>
     <use xlink:href="#DejaVuSans-70" transform="translate(1166.064453 0)"/>
     <use xlink:href="#DejaVuSans-61" transform="translate(1229.541016 0)"/>
     <use xlink:href="#DejaVuSans-72" transform="translate(1290.820312 0)"/>
     <use xlink:href="#DejaVuSans-69" transform="translate(1331.933594 0)"/>
     <use xlink:href="#DejaVuSans-73" transform="translate(1359.716797 0)"/>
     <use xlink:href="#DejaVuSans-6f" transform="translate(1411.816406 0)"/>
     <use xlink:href="#DejaVuSans-6e" transform="translate(1472.998047 0)"/>
    </g>
   </g>
   <g id="legend_1">
    <g id="patch_7">
     <path d="M 357.319863 178.891312 
L 396.2683 178.891312 
Q 398.2683 178.891312 398.2683 176.891312 
L 398.2683 133.856937 
Q 398.2683 131.856937 396.2683 131.856937 
L 357.319863 131.856937 
Q 355.319863 131.856937 355.319863 133.856937 
L 355.319863 176.891312 
Q 355.319863 178.891312 357.319863 178.891312 
L 357.319863 178.891312 
z
" style="fill: none; opacity: 0"/>
    </g>
    <g id="line2d_19">
     <path d="M 359.319863 139.955375 
L 369.319863 139.955375 
L 379.319863 139.955375 
" style="fill: none; stroke: #377eb8; stroke-width: 3; stroke-linecap: square"/>
    </g>
    <g id="text_16">
     <!-- S -->
     <g transform="translate(387.319863 143.455375) scale(0.1 -0.1)">
      <defs>
       <path id="DejaVuSans-53" d="M 3425 4513 
L 3425 3897 
Q 3066 4069 2747 4153 
Q 2428 4238 2131 4238 
Q 1616 4238 1336 4038 
Q 1056 3838 1056 3469 
Q 1056 3159 1242 3001 
Q 1428 2844 1947 2747 
L 2328 2669 
Q 3034 2534 3370 2195 
Q 3706 1856 3706 1288 
Q 3706 609 3251 259 
Q 2797 -91 1919 -91 
Q 1588 -91 1214 -16 
Q 841 59 441 206 
L 441 856 
Q 825 641 1194 531 
Q 1563 422 1919 422 
Q 2459 422 2753 634 
Q 3047 847 3047 1241 
Q 3047 1584 2836 1778 
Q 2625 1972 2144 2069 
L 1759 2144 
Q 1053 2284 737 2584 
Q 422 2884 422 3419 
Q 422 4038 858 4394 
Q 1294 4750 2059 4750 
Q 2388 4750 2728 4690 
Q 3069 4631 3425 4513 
z
" transform="scale(0.015625)"/>
      </defs>
      <use xlink:href="#DejaVuSans-53"/>
     </g>
    </g>
    <g id="line2d_20">
     <path d="M 359.319863 154.6335 
L 369.319863 154.6335 
L 379.319863 154.6335 
" style="fill: none; stroke: #e41a1c; stroke-width: 3; stroke-linecap: square"/>
    </g>
    <g id="text_17">
     <!-- I -->
     <g transform="translate(387.319863 158.1335) scale(0.1 -0.1)">
      <defs>
       <path id="DejaVuSans-49" d="M 628 4666 
L 1259 4666 
L 1259 0 
L 628 0 
L 628 4666 
z
" transform="scale(0.015625)"/>
      </defs>
      <use xlink:href="#DejaVuSans-49"/>
     </g>
    </g>
    <g id="line2d_21">
     <path d="M 359.319863 169.311625 
L 369.319863 169.311625 
L 379.319863 169.311625 
" style="fill: none; stroke: #4daf4a; stroke-width: 3; stroke-linecap: square"/>
    </g>
    <g id="text_18">
     <!-- R -->
     <g transform="translate(387.319863 172.811625) scale(0.1 -0.1)">
      <defs>
       <path id="DejaVuSans-52" d="M 2841 2188 
Q 3044 2119 3236 1894 
Q 3428 1669 3622 1275 
L 4263 0 
L 3584 0 
L 2988 1197 
Q 2756 1666 2539 1819 
Q 2322 1972 1947 1972 
L 1259 1972 
L 1259 0 
L 628 0 
L 628 4666 
L 2053 4666 
Q 2853 4666 3247 4331 
Q 3641 3997 3641 3322 
Q 3641 2881 3436 2590 
Q 3231 2300 2841 2188 
z
M 1259 4147 
L 1259 2491 
L 2053 2491 
Q 2509 2491 2742 2702 
Q 2975 2913 2975 3322 
Q 2975 3731 2742 3939 
Q 2509 4147 2053 4147 
L 1259 4147 
z
" transform="scale(0.015625)"/>
      </defs>
      <use xlink:href="#DejaVuSans-52"/>
     </g>
    </g>
   </g>
  </g>
 </g>
 <defs>
  <clipPath id="pf713e8aa71">
   <rect x="50.339063" y="22.318125" width="285.696" height="266.112"/>
  </clipPath>
 </defs>
</svg>
