<?xml version="1.0" encoding="utf-8" standalone="no"?>
<!DOCTYPE svg PUBLIC "-//W3C//DTD SVG 1.1//EN"
  "http://www.w3.org/Graphics/SVG/1.1/DTD/svg11.dtd">
<svg xmlns:xlink="http://www.w3.org/1999/xlink" width="403.97pt" height="297.190125pt" viewBox="0 0 403.97 297.190125" xmlns="http://www.w3.org/2000/svg" version="1.1">
 <metadata>
  <rdf:RDF xmlns:dc="http://purl.org/dc/elements/1.1/" xmlns:cc="http://creativecommons.org/ns#" xmlns:rdf="http://www.w3.org/1999/02/22-rdf-syntax-ns#">
   <cc:Work>
    <dc:type rdf:resource="http://purl.org/dc/dcmitype/StillImage"/>
    <dc:date>2024-10-30T12:01:12.544008</dc:date>
    <dc:format>image/svg+xml</dc:format>
    <dc:creator>
     <cc:Agent>
      <dc:title>Matplotlib v3.9.2, https://matplotlib.org/</dc:title>
     </cc:Agent>
    </dc:creator>
   </cc:Work>
  </rdf:RDF>
 </metadata>
 <defs>
  <style type="text/css">*{stroke-linejoin: round; stroke-linecap: butt}</style>
 </defs>
 <g id="figure_1">
  <g id="patch_1">
   <path d="M 0 297.190125 
L 403.97 297.190125 
L 403.97 0 
L 0 0 
z
" style="fill: #ffffff"/>
  </g>
  <g id="axes_1">
   <g id="patch_2">
    <path d="M 39.65 273.312 
L 396.77 273.312 
L 396.77 7.2 
L 39.65 7.2 
z
" style="fill: #ffffff"/>
   </g>
   <g id="matplotlib.axis_1">
    <g id="xtick_1">
     <g id="line2d_1">
      <defs>
       <path id="macdd4b9bf7" d="M 0 0 
L 0 3.5 
" style="stroke: #000000; stroke-width: 0.8"/>
      </defs>
      <g>
       <use xlink:href="#macdd4b9bf7" x="55.882727" y="273.312" style="stroke: #000000; stroke-width: 0.8"/>
      </g>
     </g>
     <g id="text_1">
      <!-- 0.0 -->
      <g transform="translate(47.931165 287.910437) scale(0.1 -0.1)">
       <defs>
        <path id="DejaVuSans-30" d="M 2034 4250 
Q 1547 4250 1301 3770 
Q 1056 3291 1056 2328 
Q 1056 1369 1301 889 
Q 1547 409 2034 409 
Q 2525 409 2770 889 
Q 3016 1369 3016 2328 
Q 3016 3291 2770 3770 
Q 2525 4250 2034 4250 
z
M 2034 4750 
Q 2819 4750 3233 4129 
Q 3647 3509 3647 2328 
Q 3647 1150 3233 529 
Q 2819 -91 2034 -91 
Q 1250 -91 836 529 
Q 422 1150 422 2328 
Q 422 3509 836 4129 
Q 1250 4750 2034 4750 
z
" transform="scale(0.015625)"/>
        <path id="DejaVuSans-2e" d="M 684 794 
L 1344 794 
L 1344 0 
L 684 0 
L 684 794 
z
" transform="scale(0.015625)"/>
       </defs>
       <use xlink:href="#DejaVuSans-30"/>
       <use xlink:href="#DejaVuSans-2e" x="63.623047"/>
       <use xlink:href="#DejaVuSans-30" x="95.410156"/>
      </g>
     </g>
    </g>
    <g id="xtick_2">
     <g id="line2d_2">
      <g>
       <use xlink:href="#macdd4b9bf7" x="96.668474" y="273.312" style="stroke: #000000; stroke-width: 0.8"/>
      </g>
     </g>
     <g id="text_2">
      <!-- 2.5 -->
      <g transform="translate(88.716912 287.910437) scale(0.1 -0.1)">
       <defs>
        <path id="DejaVuSans-32" d="M 1228 531 
L 3431 531 
L 3431 0 
L 469 0 
L 469 531 
Q 828 903 1448 1529 
Q 2069 2156 2228 2338 
Q 2531 2678 2651 2914 
Q 2772 3150 2772 3378 
Q 2772 3750 2511 3984 
Q 2250 4219 1831 4219 
Q 1534 4219 1204 4116 
Q 875 4013 500 3803 
L 500 4441 
Q 881 4594 1212 4672 
Q 1544 4750 1819 4750 
Q 2544 4750 2975 4387 
Q 3406 4025 3406 3419 
Q 3406 3131 3298 2873 
Q 3191 2616 2906 2266 
Q 2828 2175 2409 1742 
Q 1991 1309 1228 531 
z
" transform="scale(0.015625)"/>
        <path id="DejaVuSans-35" d="M 691 4666 
L 3169 4666 
L 3169 4134 
L 1269 4134 
L 1269 2991 
Q 1406 3038 1543 3061 
Q 1681 3084 1819 3084 
Q 2600 3084 3056 2656 
Q 3513 2228 3513 1497 
Q 3513 744 3044 326 
Q 2575 -91 1722 -91 
Q 1428 -91 1123 -41 
Q 819 9 494 109 
L 494 744 
Q 775 591 1075 516 
Q 1375 441 1709 441 
Q 2250 441 2565 725 
Q 2881 1009 2881 1497 
Q 2881 1984 2565 2268 
Q 2250 2553 1709 2553 
Q 1456 2553 1204 2497 
Q 953 2441 691 2322 
L 691 4666 
z
" transform="scale(0.015625)"/>
       </defs>
       <use xlink:href="#DejaVuSans-32"/>
       <use xlink:href="#DejaVuSans-2e" x="63.623047"/>
       <use xlink:href="#DejaVuSans-35" x="95.410156"/>
      </g>
     </g>
    </g>
    <g id="xtick_3">
     <g id="line2d_3">
      <g>
       <use xlink:href="#macdd4b9bf7" x="137.454221" y="273.312" style="stroke: #000000; stroke-width: 0.8"/>
      </g>
     </g>
     <g id="text_3">
      <!-- 5.0 -->
      <g transform="translate(129.502659 287.910437) scale(0.1 -0.1)">
       <use xlink:href="#DejaVuSans-35"/>
       <use xlink:href="#DejaVuSans-2e" x="63.623047"/>
       <use xlink:href="#DejaVuSans-30" x="95.410156"/>
      </g>
     </g>
    </g>
    <g id="xtick_4">
     <g id="line2d_4">
      <g>
       <use xlink:href="#macdd4b9bf7" x="178.239968" y="273.312" style="stroke: #000000; stroke-width: 0.8"/>
      </g>
     </g>
     <g id="text_4">
      <!-- 7.5 -->
      <g transform="translate(170.288406 287.910437) scale(0.1 -0.1)">
       <defs>
        <path id="DejaVuSans-37" d="M 525 4666 
L 3525 4666 
L 3525 4397 
L 1831 0 
L 1172 0 
L 2766 4134 
L 525 4134 
L 525 4666 
z
" transform="scale(0.015625)"/>
       </defs>
       <use xlink:href="#DejaVuSans-37"/>
       <use xlink:href="#DejaVuSans-2e" x="63.623047"/>
       <use xlink:href="#DejaVuSans-35" x="95.410156"/>
      </g>
     </g>
    </g>
    <g id="xtick_5">
     <g id="line2d_5">
      <g>
       <use xlink:href="#macdd4b9bf7" x="219.025715" y="273.312" style="stroke: #000000; stroke-width: 0.8"/>
      </g>
     </g>
     <g id="text_5">
      <!-- 10.0 -->
      <g transform="translate(207.892902 287.910437) scale(0.1 -0.1)">
       <defs>
        <path id="DejaVuSans-31" d="M 794 531 
L 1825 531 
L 1825 4091 
L 703 3866 
L 703 4441 
L 1819 4666 
L 2450 4666 
L 2450 531 
L 3481 531 
L 3481 0 
L 794 0 
L 794 531 
z
" transform="scale(0.015625)"/>
       </defs>
       <use xlink:href="#DejaVuSans-31"/>
       <use xlink:href="#DejaVuSans-30" x="63.623047"/>
       <use xlink:href="#DejaVuSans-2e" x="127.246094"/>
       <use xlink:href="#DejaVuSans-30" x="159.033203"/>
      </g>
     </g>
    </g>
    <g id="xtick_6">
     <g id="line2d_6">
      <g>
       <use xlink:href="#macdd4b9bf7" x="259.811462" y="273.312" style="stroke: #000000; stroke-width: 0.8"/>
      </g>
     </g>
     <g id="text_6">
      <!-- 12.5 -->
      <g transform="translate(248.678649 287.910437) scale(0.1 -0.1)">
       <use xlink:href="#DejaVuSans-31"/>
       <use xlink:href="#DejaVuSans-32" x="63.623047"/>
       <use xlink:href="#DejaVuSans-2e" x="127.246094"/>
       <use xlink:href="#DejaVuSans-35" x="159.033203"/>
      </g>
     </g>
    </g>
    <g id="xtick_7">
     <g id="line2d_7">
      <g>
       <use xlink:href="#macdd4b9bf7" x="300.597209" y="273.312" style="stroke: #000000; stroke-width: 0.8"/>
      </g>
     </g>
     <g id="text_7">
      <!-- 15.0 -->
      <g transform="translate(289.464396 287.910437) scale(0.1 -0.1)">
       <use xlink:href="#DejaVuSans-31"/>
       <use xlink:href="#DejaVuSans-35" x="63.623047"/>
       <use xlink:href="#DejaVuSans-2e" x="127.246094"/>
       <use xlink:href="#DejaVuSans-30" x="159.033203"/>
      </g>
     </g>
    </g>
    <g id="xtick_8">
     <g id="line2d_8">
      <g>
       <use xlink:href="#macdd4b9bf7" x="341.382956" y="273.312" style="stroke: #000000; stroke-width: 0.8"/>
      </g>
     </g>
     <g id="text_8">
      <!-- 17.5 -->
      <g transform="translate(330.250143 287.910437) scale(0.1 -0.1)">
       <use xlink:href="#DejaVuSans-31"/>
       <use xlink:href="#DejaVuSans-37" x="63.623047"/>
       <use xlink:href="#DejaVuSans-2e" x="127.246094"/>
       <use xlink:href="#DejaVuSans-35" x="159.033203"/>
      </g>
     </g>
    </g>
    <g id="xtick_9">
     <g id="line2d_9">
      <g>
       <use xlink:href="#macdd4b9bf7" x="382.168703" y="273.312" style="stroke: #000000; stroke-width: 0.8"/>
      </g>
     </g>
     <g id="text_9">
      <!-- 20.0 -->
      <g transform="translate(371.03589 287.910437) scale(0.1 -0.1)">
       <use xlink:href="#DejaVuSans-32"/>
       <use xlink:href="#DejaVuSans-30" x="63.623047"/>
       <use xlink:href="#DejaVuSans-2e" x="127.246094"/>
       <use xlink:href="#DejaVuSans-30" x="159.033203"/>
      </g>
     </g>
    </g>
   </g>
   <g id="matplotlib.axis_2">
    <g id="ytick_1">
     <g id="line2d_10">
      <defs>
       <path id="m8d9c5de963" d="M 0 0 
L -3.5 0 
" style="stroke: #000000; stroke-width: 0.8"/>
      </defs>
      <g>
       <use xlink:href="#m8d9c5de963" x="39.65" y="261.216" style="stroke: #000000; stroke-width: 0.8"/>
      </g>
     </g>
     <g id="text_10">
      <!-- 0 -->
      <g transform="translate(26.2875 265.015219) scale(0.1 -0.1)">
       <use xlink:href="#DejaVuSans-30"/>
      </g>
     </g>
    </g>
    <g id="ytick_2">
     <g id="line2d_11">
      <g>
       <use xlink:href="#m8d9c5de963" x="39.65" y="221.465754" style="stroke: #000000; stroke-width: 0.8"/>
      </g>
     </g>
     <g id="text_11">
      <!-- 500 -->
      <g transform="translate(13.5625 225.264972) scale(0.1 -0.1)">
       <use xlink:href="#DejaVuSans-35"/>
       <use xlink:href="#DejaVuSans-30" x="63.623047"/>
       <use xlink:href="#DejaVuSans-30" x="127.246094"/>
      </g>
     </g>
    </g>
    <g id="ytick_3">
     <g id="line2d_12">
      <g>
       <use xlink:href="#m8d9c5de963" x="39.65" y="181.715507" style="stroke: #000000; stroke-width: 0.8"/>
      </g>
     </g>
     <g id="text_12">
      <!-- 1000 -->
      <g transform="translate(7.2 185.514726) scale(0.1 -0.1)">
       <use xlink:href="#DejaVuSans-31"/>
       <use xlink:href="#DejaVuSans-30" x="63.623047"/>
       <use xlink:href="#DejaVuSans-30" x="127.246094"/>
       <use xlink:href="#DejaVuSans-30" x="190.869141"/>
      </g>
     </g>
    </g>
    <g id="ytick_4">
     <g id="line2d_13">
      <g>
       <use xlink:href="#m8d9c5de963" x="39.65" y="141.965261" style="stroke: #000000; stroke-width: 0.8"/>
      </g>
     </g>
     <g id="text_13">
      <!-- 1500 -->
      <g transform="translate(7.2 145.764479) scale(0.1 -0.1)">
       <use xlink:href="#DejaVuSans-31"/>
       <use xlink:href="#DejaVuSans-35" x="63.623047"/>
       <use xlink:href="#DejaVuSans-30" x="127.246094"/>
       <use xlink:href="#DejaVuSans-30" x="190.869141"/>
      </g>
     </g>
    </g>
    <g id="ytick_5">
     <g id="line2d_14">
      <g>
       <use xlink:href="#m8d9c5de963" x="39.65" y="102.215014" style="stroke: #000000; stroke-width: 0.8"/>
      </g>
     </g>
     <g id="text_14">
      <!-- 2000 -->
      <g transform="translate(7.2 106.014233) scale(0.1 -0.1)">
       <use xlink:href="#DejaVuSans-32"/>
       <use xlink:href="#DejaVuSans-30" x="63.623047"/>
       <use xlink:href="#DejaVuSans-30" x="127.246094"/>
       <use xlink:href="#DejaVuSans-30" x="190.869141"/>
      </g>
     </g>
    </g>
    <g id="ytick_6">
     <g id="line2d_15">
      <g>
       <use xlink:href="#m8d9c5de963" x="39.65" y="62.464768" style="stroke: #000000; stroke-width: 0.8"/>
      </g>
     </g>
     <g id="text_15">
      <!-- 2500 -->
      <g transform="translate(7.2 66.263986) scale(0.1 -0.1)">
       <use xlink:href="#DejaVuSans-32"/>
       <use xlink:href="#DejaVuSans-35" x="63.623047"/>
       <use xlink:href="#DejaVuSans-30" x="127.246094"/>
       <use xlink:href="#DejaVuSans-30" x="190.869141"/>
      </g>
     </g>
    </g>
    <g id="ytick_7">
     <g id="line2d_16">
      <g>
       <use xlink:href="#m8d9c5de963" x="39.65" y="22.714521" style="stroke: #000000; stroke-width: 0.8"/>
      </g>
     </g>
     <g id="text_16">
      <!-- 3000 -->
      <g transform="translate(7.2 26.51374) scale(0.1 -0.1)">
       <defs>
        <path id="DejaVuSans-33" d="M 2597 2516 
Q 3050 2419 3304 2112 
Q 3559 1806 3559 1356 
Q 3559 666 3084 287 
Q 2609 -91 1734 -91 
Q 1441 -91 1130 -33 
Q 819 25 488 141 
L 488 750 
Q 750 597 1062 519 
Q 1375 441 1716 441 
Q 2309 441 2620 675 
Q 2931 909 2931 1356 
Q 2931 1769 2642 2001 
Q 2353 2234 1838 2234 
L 1294 2234 
L 1294 2753 
L 1863 2753 
Q 2328 2753 2575 2939 
Q 2822 3125 2822 3475 
Q 2822 3834 2567 4026 
Q 2313 4219 1838 4219 
Q 1578 4219 1281 4162 
Q 984 4106 628 3988 
L 628 4550 
Q 988 4650 1302 4700 
Q 1616 4750 1894 4750 
Q 2613 4750 3031 4423 
Q 3450 4097 3450 3541 
Q 3450 3153 3228 2886 
Q 3006 2619 2597 2516 
z
" transform="scale(0.015625)"/>
       </defs>
       <use xlink:href="#DejaVuSans-33"/>
       <use xlink:href="#DejaVuSans-30" x="63.623047"/>
       <use xlink:href="#DejaVuSans-30" x="127.246094"/>
       <use xlink:href="#DejaVuSans-30" x="190.869141"/>
      </g>
     </g>
    </g>
   </g>
   <g id="line2d_17">
    <path d="M 55.882727 261.216 
L 59.961302 241.340877 
L 64.039877 223.381715 
L 68.118451 207.153817 
L 72.197026 192.490288 
L 76.275601 179.240324 
L 80.354175 167.267656 
L 84.43275 156.449153 
L 88.511325 146.673554 
L 92.589899 137.840322 
L 96.668474 129.858614 
L 100.747049 122.646343 
L 104.825624 116.129335 
L 108.904198 110.240566 
L 112.982773 104.919475 
L 117.061348 100.111337 
L 121.139922 95.766703 
L 125.218497 91.840892 
L 129.297072 88.293529 
L 133.375646 85.088132 
L 137.454221 82.191735 
L 141.532796 79.574551 
L 145.61137 77.209664 
L 149.689945 75.072751 
L 153.76852 73.141837 
L 157.847095 71.397063 
L 161.925669 69.820485 
L 166.004244 68.39589 
L 170.082819 67.108625 
L 174.161393 65.945453 
L 178.239968 64.89441 
L 182.318543 63.944688 
L 186.397117 63.08652 
L 190.475692 62.311078 
L 194.554267 61.61039 
L 198.632841 60.977247 
L 202.711416 60.40514 
L 206.789991 59.888183 
L 210.868566 59.421062 
L 214.94714 58.99897 
L 219.025715 58.617569 
L 223.10429 58.272934 
L 227.182864 57.961523 
L 231.261439 57.680131 
L 235.340014 57.425866 
L 239.418588 57.196111 
L 243.497163 56.988505 
L 247.575738 56.800913 
L 251.654312 56.631404 
L 255.732887 56.478236 
L 259.811462 56.339833 
L 263.890037 56.214772 
L 267.968611 56.101767 
L 272.047186 55.999656 
L 276.125761 55.907388 
L 280.204335 55.824015 
L 284.28291 55.748679 
L 288.361485 55.680606 
L 292.440059 55.619095 
L 296.518634 55.563513 
L 300.597209 55.51329 
L 304.675783 55.467908 
L 308.754358 55.426901 
L 312.832933 55.389846 
L 316.911508 55.356364 
L 320.990082 55.32611 
L 325.068657 55.298772 
L 329.147232 55.27407 
L 333.225806 55.251749 
L 337.304381 55.231579 
L 341.382956 55.213354 
L 345.46153 55.196886 
L 349.540105 55.182005 
L 353.61868 55.168559 
L 357.697254 55.156409 
L 361.775829 55.145431 
L 365.854404 55.13551 
L 369.932979 55.126546 
L 374.011553 55.118446 
L 378.090128 55.111127 
" clip-path="url(#p57f071b077)" style="fill: none; stroke: #1f77b4; stroke-width: 1.5; stroke-linecap: square"/>
   </g>
   <g id="line2d_18">
    <path d="M 55.882727 261.216 
L 59.961302 261.216 
L 64.039877 259.300038 
L 68.118451 256.113027 
L 72.197026 252.127167 
L 76.275601 247.685146 
L 80.354175 243.032802 
L 84.43275 238.343786 
L 88.511325 233.738168 
L 92.589899 229.296451 
L 96.668474 225.070111 
L 100.747049 221.089502 
L 104.825624 217.369772 
L 108.904198 213.915281 
L 112.982773 210.722882 
L 117.061348 207.784344 
L 121.139922 205.088138 
L 125.218497 202.620738 
L 129.297072 200.36756 
L 133.375646 198.313629 
L 137.454221 196.444052 
L 141.532796 194.744335 
L 145.61137 193.200593 
L 149.689945 191.799683 
L 153.76852 190.529273 
L 157.847095 189.377876 
L 161.925669 188.334848 
L 166.004244 187.390373 
L 170.082819 186.53543 
L 174.161393 185.761752 
L 178.239968 185.061782 
L 182.318543 184.428624 
L 186.397117 183.855997 
L 190.475692 183.338188 
L 194.554267 182.870004 
L 198.632841 182.446731 
L 202.711416 182.064094 
L 206.789991 181.718215 
L 210.868566 181.405581 
L 214.94714 181.123012 
L 219.025715 180.867626 
L 223.10429 180.636817 
L 227.182864 180.428225 
L 231.261439 180.239717 
L 235.340014 180.069362 
L 239.418588 179.915416 
L 243.497163 179.776299 
L 247.575738 179.650585 
L 251.654312 179.536983 
L 255.732887 179.434328 
L 259.811462 179.341565 
L 263.890037 179.257742 
L 267.968611 179.181997 
L 272.047186 179.113552 
L 276.125761 179.051705 
L 280.204335 178.995818 
L 284.28291 178.945319 
L 288.361485 178.899687 
L 292.440059 178.858453 
L 296.518634 178.821194 
L 300.597209 178.787527 
L 304.675783 178.757105 
L 308.754358 178.729615 
L 312.832933 178.704776 
L 316.911508 178.682331 
L 320.990082 178.662049 
L 325.068657 178.643723 
L 329.147232 178.627163 
L 333.225806 178.6122 
L 337.304381 178.598679 
L 341.382956 178.586461 
L 345.46153 178.575421 
L 349.540105 178.565446 
L 353.61868 178.556432 
L 357.697254 178.548287 
L 361.775829 178.540927 
L 365.854404 178.534277 
L 369.932979 178.528267 
L 374.011553 178.522837 
L 378.090128 178.517931 
" clip-path="url(#p57f071b077)" style="fill: none; stroke: #ff7f0e; stroke-width: 1.5; stroke-linecap: square"/>
   </g>
   <g id="line2d_19">
    <path d="M 55.882727 261.216 
L 57.514157 253.504452 
L 59.145587 246.985412 
L 65.671307 218.762737 
L 67.302736 211.130689 
L 68.934166 206.122158 
L 72.197026 194.594587 
L 73.828456 190.540062 
L 75.459886 185.770032 
L 77.091316 180.443499 
L 78.722746 175.593969 
L 80.354175 168.756927 
L 81.985605 163.986897 
L 83.617035 158.580864 
L 85.248465 152.061823 
L 86.879895 148.007298 
L 88.511325 144.906779 
L 91.774185 134.969217 
L 93.405614 132.425201 
L 95.037044 127.41667 
L 96.668474 125.429158 
L 101.562764 115.173594 
L 103.194194 113.504084 
L 106.457053 106.34904 
L 108.088483 104.520528 
L 109.719913 101.261008 
L 112.982773 97.206483 
L 114.614203 96.490979 
L 116.245633 95.05997 
L 117.877063 93.946963 
L 119.508492 90.130939 
L 121.139922 89.415435 
L 124.402782 85.201909 
L 126.034212 84.406904 
L 127.665642 83.134896 
L 129.297072 80.670381 
L 130.928502 76.854357 
L 132.559931 77.172359 
L 134.191361 77.172359 
L 135.822791 74.628343 
L 137.454221 73.276835 
L 139.085651 72.243328 
L 140.717081 71.686825 
L 142.348511 68.824807 
L 143.979941 69.460811 
L 145.61137 67.870801 
L 147.2428 67.393798 
L 148.87423 64.849782 
L 150.50566 63.418774 
L 152.13709 62.464768 
L 153.76852 59.761751 
L 155.39995 58.728244 
L 157.03138 57.297236 
L 158.66281 57.297236 
L 160.294239 56.581731 
L 161.925669 53.799214 
L 163.557099 52.209204 
L 165.188529 51.652701 
L 166.819959 50.539694 
L 168.451389 49.744689 
L 170.082819 49.824189 
L 171.714249 49.108685 
L 173.345678 47.200673 
L 174.977108 47.518675 
L 176.608538 45.769664 
L 178.239968 43.46415 
L 179.871398 42.510144 
L 181.502828 42.669145 
L 183.134258 43.384649 
L 184.765688 45.05416 
L 186.397117 42.669145 
L 188.028547 42.192142 
L 191.291407 41.95364 
L 194.554267 43.305149 
L 196.185697 42.271642 
L 197.817127 42.669145 
L 199.448556 42.510144 
L 201.079986 43.54365 
L 202.711416 42.669145 
L 204.342846 41.476638 
L 205.974276 41.79464 
L 207.605706 40.920134 
L 209.237136 42.192142 
L 210.868566 41.397137 
L 212.499995 38.455619 
L 214.131425 38.455619 
L 215.762855 37.819615 
L 217.394285 35.832103 
L 219.025715 34.639595 
L 220.657145 34.242093 
L 223.920005 34.719096 
L 225.551434 32.731583 
L 227.182864 32.652083 
L 228.814294 34.242093 
L 230.445724 34.321593 
L 232.077154 34.878097 
L 233.708584 34.878097 
L 235.340014 35.196099 
L 236.971444 34.003591 
L 238.602873 33.049585 
L 240.234303 34.003591 
L 241.865733 33.76509 
L 243.497163 35.037098 
L 245.128593 36.547607 
L 246.760023 37.581113 
L 248.391453 36.627107 
L 250.022883 35.832103 
L 251.654312 33.288087 
L 253.285742 31.221074 
L 254.917172 31.062073 
L 256.548602 28.120555 
L 258.180032 28.438557 
L 259.811462 27.643552 
L 261.442892 27.882053 
L 263.074322 27.961554 
L 264.705751 27.087048 
L 266.337181 28.041054 
L 267.968611 27.246049 
L 269.600041 27.564051 
L 271.231471 26.928047 
L 272.862901 27.723052 
L 274.494331 27.166549 
L 276.125761 28.597558 
L 277.75719 29.313062 
L 279.38862 27.246049 
L 281.02005 27.564051 
L 282.65148 27.246049 
L 284.28291 27.484551 
L 285.91434 25.417538 
L 287.54577 25.417538 
L 289.1772 22.237518 
L 290.80863 24.14553 
L 292.440059 24.14553 
L 294.071489 22.635021 
L 295.702919 23.032523 
L 297.334349 22.237518 
L 298.965779 23.748028 
L 300.597209 23.430026 
L 302.228639 25.179036 
L 303.860069 25.656039 
L 305.491498 24.06603 
L 307.122928 23.907029 
L 308.754358 21.681015 
L 310.385788 21.363013 
L 312.017218 20.170505 
L 313.648648 21.760515 
L 315.280078 21.999017 
L 316.911508 19.296 
L 318.542937 19.455001 
L 321.805797 22.794022 
L 323.437227 21.522014 
L 325.068657 22.078517 
L 328.331517 22.953023 
L 329.962947 21.522014 
L 333.225806 23.589027 
L 334.857236 23.589027 
L 336.488666 22.55552 
L 338.120096 22.55552 
L 341.382956 24.06603 
L 343.014386 23.986529 
L 344.645815 25.73554 
L 346.277245 26.133042 
L 347.908675 25.020035 
L 349.540105 25.894541 
L 351.171535 23.589027 
L 352.802965 25.81504 
L 354.434395 26.928047 
L 356.065825 28.99506 
L 357.697254 29.551564 
L 359.328684 28.597558 
L 360.960114 29.631064 
L 362.591544 29.551564 
L 364.222974 31.062073 
L 365.854404 30.66457 
L 367.485834 30.823571 
L 369.117264 28.200055 
L 370.748693 28.99506 
L 372.380123 27.802553 
L 374.011553 25.417538 
L 375.642983 25.576539 
L 377.274413 26.212543 
L 378.905843 25.81504 
L 380.537273 26.610045 
L 380.537273 26.610045 
" clip-path="url(#p57f071b077)" style="fill: none; stroke: #2ca02c; stroke-width: 1.5; stroke-linecap: square"/>
   </g>
   <g id="line2d_20">
    <path d="M 55.882727 261.216 
L 57.514157 261.056999 
L 60.777017 260.341495 
L 62.408447 259.62599 
L 64.039877 259.069487 
L 65.671307 257.479477 
L 67.302736 256.684472 
L 68.934166 254.537959 
L 70.565596 252.629947 
L 72.197026 251.357939 
L 73.828456 249.211426 
L 75.459886 247.859917 
L 78.722746 244.043894 
L 80.354175 242.771886 
L 83.617035 237.445353 
L 85.248465 235.139838 
L 86.879895 233.549828 
L 88.511325 230.290308 
L 90.142755 227.984794 
L 91.774185 227.825793 
L 93.405614 224.645773 
L 96.668474 220.670749 
L 98.299904 218.683236 
L 99.931334 217.967732 
L 101.562764 216.298221 
L 103.194194 214.151708 
L 104.825624 211.766693 
L 106.457053 210.017683 
L 108.088483 207.712168 
L 109.719913 204.929651 
L 111.351343 203.260141 
L 114.614203 199.364616 
L 116.245633 196.6616 
L 117.877063 195.230591 
L 119.508492 194.674087 
L 121.139922 192.686575 
L 122.771352 191.494068 
L 124.402782 190.858064 
L 126.034212 190.460561 
L 127.665642 188.791051 
L 129.297072 185.929033 
L 130.928502 186.326536 
L 132.559931 184.498024 
L 134.191361 181.874508 
L 135.822791 180.920502 
L 137.454221 177.740482 
L 139.085651 176.865977 
L 140.717081 176.150473 
L 142.348511 175.275967 
L 143.979941 174.003959 
L 145.61137 173.288455 
L 147.2428 171.936946 
L 148.87423 170.982941 
L 150.50566 168.597926 
L 152.13709 168.041422 
L 153.76852 168.597926 
L 155.39995 167.484919 
L 157.03138 167.325918 
L 158.66281 166.292411 
L 160.294239 166.689914 
L 161.925669 167.325918 
L 163.557099 166.689914 
L 165.188529 165.894909 
L 166.819959 166.848915 
L 170.082819 166.610413 
L 171.714249 164.861403 
L 173.345678 164.543401 
L 174.977108 163.589395 
L 176.608538 162.79439 
L 178.239968 161.045379 
L 179.871398 161.363381 
L 181.502828 160.091373 
L 183.134258 159.375869 
L 184.765688 158.103861 
L 186.397117 158.421863 
L 188.028547 158.342362 
L 189.659977 156.513851 
L 191.291407 155.877847 
L 192.922837 154.526338 
L 194.554267 153.333831 
L 196.185697 151.823322 
L 197.817127 150.948816 
L 199.448556 151.982323 
L 201.079986 150.074311 
L 202.711416 150.392313 
L 204.342846 150.233312 
L 205.974276 149.676808 
L 207.605706 150.392313 
L 209.237136 148.881803 
L 210.868566 149.279306 
L 212.499995 148.007298 
L 214.131425 148.086799 
L 215.762855 148.643302 
L 217.394285 148.404801 
L 219.025715 148.722802 
L 220.657145 148.484301 
L 222.288575 147.212293 
L 223.920005 149.040804 
L 225.551434 150.312812 
L 227.182864 149.99481 
L 228.814294 148.961304 
L 230.445724 146.337788 
L 232.077154 146.417288 
L 233.708584 146.099286 
L 235.340014 144.827278 
L 236.971444 145.860785 
L 238.602873 147.848297 
L 240.234303 147.291794 
L 241.865733 147.450795 
L 243.497163 146.417288 
L 245.128593 143.793772 
L 246.760023 144.111774 
L 250.022883 144.509276 
L 251.654312 146.099286 
L 253.285742 147.212293 
L 254.917172 148.643302 
L 256.548602 150.392313 
L 258.180032 149.120305 
L 259.811462 149.120305 
L 261.442892 149.756309 
L 263.074322 147.689296 
L 264.705751 148.2458 
L 266.337181 146.178787 
L 267.968611 147.530295 
L 269.600041 147.132793 
L 271.231471 146.973792 
L 272.862901 147.689296 
L 274.494331 146.65579 
L 276.125761 145.383782 
L 277.75719 145.940285 
L 279.38862 145.622283 
L 281.02005 146.258287 
L 282.65148 147.530295 
L 284.28291 146.65579 
L 285.91434 146.099286 
L 287.54577 145.224781 
L 289.1772 144.509276 
L 290.80863 143.316769 
L 292.440059 144.270775 
L 294.071489 144.986279 
L 295.702919 144.747778 
L 297.334349 144.111774 
L 298.965779 142.283263 
L 300.597209 142.044761 
L 302.228639 140.534252 
L 305.491498 142.680765 
L 307.122928 141.329257 
L 310.385788 140.931754 
L 312.017218 141.88576 
L 313.648648 142.203762 
L 315.280078 140.772753 
L 316.911508 141.647259 
L 318.542937 141.090755 
L 320.174367 141.488258 
L 321.805797 141.090755 
L 323.437227 140.534252 
L 325.068657 139.659746 
L 326.700087 140.613752 
L 328.331517 139.262244 
L 329.962947 140.29575 
L 331.594376 139.977748 
L 333.225806 138.387738 
L 334.857236 138.62624 
L 336.488666 139.500745 
L 338.120096 138.62624 
L 339.751526 137.513233 
L 341.382956 137.672234 
L 343.014386 136.400226 
L 344.645815 136.559227 
L 346.277245 135.764222 
L 347.908675 135.525721 
L 349.540105 136.400226 
L 351.171535 137.115731 
L 352.802965 135.128218 
L 354.434395 136.241225 
L 356.065825 135.287219 
L 357.697254 137.990236 
L 359.328684 137.513233 
L 360.960114 137.195231 
L 362.591544 136.161725 
L 364.222974 134.810216 
L 367.485834 137.592733 
L 369.117264 139.898248 
L 370.748693 139.341744 
L 372.380123 141.090755 
L 374.011553 143.316769 
L 375.642983 144.111774 
L 377.274413 144.191274 
L 378.905843 142.919267 
L 380.537273 141.249756 
L 380.537273 141.249756 
" clip-path="url(#p57f071b077)" style="fill: none; stroke: #d62728; stroke-width: 1.5; stroke-linecap: square"/>
   </g>
   <g id="patch_3">
    <path d="M 39.65 273.312 
L 39.65 7.2 
" style="fill: none; stroke: #000000; stroke-width: 0.8; stroke-linejoin: miter; stroke-linecap: square"/>
   </g>
   <g id="patch_4">
    <path d="M 396.77 273.312 
L 396.77 7.2 
" style="fill: none; stroke: #000000; stroke-width: 0.8; stroke-linejoin: miter; stroke-linecap: square"/>
   </g>
   <g id="patch_5">
    <path d="M 39.65 273.312 
L 396.77 273.312 
" style="fill: none; stroke: #000000; stroke-width: 0.8; stroke-linejoin: miter; stroke-linecap: square"/>
   </g>
   <g id="patch_6">
    <path d="M 39.65 7.2 
L 396.77 7.2 
" style="fill: none; stroke: #000000; stroke-width: 0.8; stroke-linejoin: miter; stroke-linecap: square"/>
   </g>
  </g>
 </g>
 <defs>
  <clipPath id="p57f071b077">
   <rect x="39.65" y="7.2" width="357.12" height="266.112"/>
  </clipPath>
 </defs>
</svg>
