<?xml version="1.0" encoding="utf-8" standalone="no"?>
<!DOCTYPE svg PUBLIC "-//W3C//DTD SVG 1.1//EN"
  "http://www.w3.org/Graphics/SVG/1.1/DTD/svg11.dtd">
<svg xmlns:xlink="http://www.w3.org/1999/xlink" width="397.6075pt" height="297.190125pt" viewBox="0 0 397.6075 297.190125" xmlns="http://www.w3.org/2000/svg" version="1.1">
 <metadata>
  <rdf:RDF xmlns:dc="http://purl.org/dc/elements/1.1/" xmlns:cc="http://creativecommons.org/ns#" xmlns:rdf="http://www.w3.org/1999/02/22-rdf-syntax-ns#">
   <cc:Work>
    <dc:type rdf:resource="http://purl.org/dc/dcmitype/StillImage"/>
    <dc:date>2024-10-30T05:50:25.855965</dc:date>
    <dc:format>image/svg+xml</dc:format>
    <dc:creator>
     <cc:Agent>
      <dc:title>Matplotlib v3.9.2, https://matplotlib.org/</dc:title>
     </cc:Agent>
    </dc:creator>
   </cc:Work>
  </rdf:RDF>
 </metadata>
 <defs>
  <style type="text/css">*{stroke-linejoin: round; stroke-linecap: butt}</style>
 </defs>
 <g id="figure_1">
  <g id="patch_1">
   <path d="M 0 297.190125 
L 397.6075 297.190125 
L 397.6075 0 
L 0 0 
z
" style="fill: #ffffff"/>
  </g>
  <g id="axes_1">
   <g id="patch_2">
    <path d="M 33.2875 273.312 
L 390.4075 273.312 
L 390.4075 7.2 
L 33.2875 7.2 
z
" style="fill: #ffffff"/>
   </g>
   <g id="matplotlib.axis_1">
    <g id="xtick_1">
     <g id="line2d_1">
      <defs>
       <path id="mdb56a9e2db" d="M 0 0 
L 0 3.5 
" style="stroke: #000000; stroke-width: 0.8"/>
      </defs>
      <g>
       <use xlink:href="#mdb56a9e2db" x="49.520227" y="273.312" style="stroke: #000000; stroke-width: 0.8"/>
      </g>
     </g>
     <g id="text_1">
      <!-- 0.0 -->
      <g transform="translate(41.568665 287.910437) scale(0.1 -0.1)">
       <defs>
        <path id="DejaVuSans-30" d="M 2034 4250 
Q 1547 4250 1301 3770 
Q 1056 3291 1056 2328 
Q 1056 1369 1301 889 
Q 1547 409 2034 409 
Q 2525 409 2770 889 
Q 3016 1369 3016 2328 
Q 3016 3291 2770 3770 
Q 2525 4250 2034 4250 
z
M 2034 4750 
Q 2819 4750 3233 4129 
Q 3647 3509 3647 2328 
Q 3647 1150 3233 529 
Q 2819 -91 2034 -91 
Q 1250 -91 836 529 
Q 422 1150 422 2328 
Q 422 3509 836 4129 
Q 1250 4750 2034 4750 
z
" transform="scale(0.015625)"/>
        <path id="DejaVuSans-2e" d="M 684 794 
L 1344 794 
L 1344 0 
L 684 0 
L 684 794 
z
" transform="scale(0.015625)"/>
       </defs>
       <use xlink:href="#DejaVuSans-30"/>
       <use xlink:href="#DejaVuSans-2e" x="63.623047"/>
       <use xlink:href="#DejaVuSans-30" x="95.410156"/>
      </g>
     </g>
    </g>
    <g id="xtick_2">
     <g id="line2d_2">
      <g>
       <use xlink:href="#mdb56a9e2db" x="90.305974" y="273.312" style="stroke: #000000; stroke-width: 0.8"/>
      </g>
     </g>
     <g id="text_2">
      <!-- 2.5 -->
      <g transform="translate(82.354412 287.910437) scale(0.1 -0.1)">
       <defs>
        <path id="DejaVuSans-32" d="M 1228 531 
L 3431 531 
L 3431 0 
L 469 0 
L 469 531 
Q 828 903 1448 1529 
Q 2069 2156 2228 2338 
Q 2531 2678 2651 2914 
Q 2772 3150 2772 3378 
Q 2772 3750 2511 3984 
Q 2250 4219 1831 4219 
Q 1534 4219 1204 4116 
Q 875 4013 500 3803 
L 500 4441 
Q 881 4594 1212 4672 
Q 1544 4750 1819 4750 
Q 2544 4750 2975 4387 
Q 3406 4025 3406 3419 
Q 3406 3131 3298 2873 
Q 3191 2616 2906 2266 
Q 2828 2175 2409 1742 
Q 1991 1309 1228 531 
z
" transform="scale(0.015625)"/>
        <path id="DejaVuSans-35" d="M 691 4666 
L 3169 4666 
L 3169 4134 
L 1269 4134 
L 1269 2991 
Q 1406 3038 1543 3061 
Q 1681 3084 1819 3084 
Q 2600 3084 3056 2656 
Q 3513 2228 3513 1497 
Q 3513 744 3044 326 
Q 2575 -91 1722 -91 
Q 1428 -91 1123 -41 
Q 819 9 494 109 
L 494 744 
Q 775 591 1075 516 
Q 1375 441 1709 441 
Q 2250 441 2565 725 
Q 2881 1009 2881 1497 
Q 2881 1984 2565 2268 
Q 2250 2553 1709 2553 
Q 1456 2553 1204 2497 
Q 953 2441 691 2322 
L 691 4666 
z
" transform="scale(0.015625)"/>
       </defs>
       <use xlink:href="#DejaVuSans-32"/>
       <use xlink:href="#DejaVuSans-2e" x="63.623047"/>
       <use xlink:href="#DejaVuSans-35" x="95.410156"/>
      </g>
     </g>
    </g>
    <g id="xtick_3">
     <g id="line2d_3">
      <g>
       <use xlink:href="#mdb56a9e2db" x="131.091721" y="273.312" style="stroke: #000000; stroke-width: 0.8"/>
      </g>
     </g>
     <g id="text_3">
      <!-- 5.0 -->
      <g transform="translate(123.140159 287.910437) scale(0.1 -0.1)">
       <use xlink:href="#DejaVuSans-35"/>
       <use xlink:href="#DejaVuSans-2e" x="63.623047"/>
       <use xlink:href="#DejaVuSans-30" x="95.410156"/>
      </g>
     </g>
    </g>
    <g id="xtick_4">
     <g id="line2d_4">
      <g>
       <use xlink:href="#mdb56a9e2db" x="171.877468" y="273.312" style="stroke: #000000; stroke-width: 0.8"/>
      </g>
     </g>
     <g id="text_4">
      <!-- 7.5 -->
      <g transform="translate(163.925906 287.910437) scale(0.1 -0.1)">
       <defs>
        <path id="DejaVuSans-37" d="M 525 4666 
L 3525 4666 
L 3525 4397 
L 1831 0 
L 1172 0 
L 2766 4134 
L 525 4134 
L 525 4666 
z
" transform="scale(0.015625)"/>
       </defs>
       <use xlink:href="#DejaVuSans-37"/>
       <use xlink:href="#DejaVuSans-2e" x="63.623047"/>
       <use xlink:href="#DejaVuSans-35" x="95.410156"/>
      </g>
     </g>
    </g>
    <g id="xtick_5">
     <g id="line2d_5">
      <g>
       <use xlink:href="#mdb56a9e2db" x="212.663215" y="273.312" style="stroke: #000000; stroke-width: 0.8"/>
      </g>
     </g>
     <g id="text_5">
      <!-- 10.0 -->
      <g transform="translate(201.530402 287.910437) scale(0.1 -0.1)">
       <defs>
        <path id="DejaVuSans-31" d="M 794 531 
L 1825 531 
L 1825 4091 
L 703 3866 
L 703 4441 
L 1819 4666 
L 2450 4666 
L 2450 531 
L 3481 531 
L 3481 0 
L 794 0 
L 794 531 
z
" transform="scale(0.015625)"/>
       </defs>
       <use xlink:href="#DejaVuSans-31"/>
       <use xlink:href="#DejaVuSans-30" x="63.623047"/>
       <use xlink:href="#DejaVuSans-2e" x="127.246094"/>
       <use xlink:href="#DejaVuSans-30" x="159.033203"/>
      </g>
     </g>
    </g>
    <g id="xtick_6">
     <g id="line2d_6">
      <g>
       <use xlink:href="#mdb56a9e2db" x="253.448962" y="273.312" style="stroke: #000000; stroke-width: 0.8"/>
      </g>
     </g>
     <g id="text_6">
      <!-- 12.5 -->
      <g transform="translate(242.316149 287.910437) scale(0.1 -0.1)">
       <use xlink:href="#DejaVuSans-31"/>
       <use xlink:href="#DejaVuSans-32" x="63.623047"/>
       <use xlink:href="#DejaVuSans-2e" x="127.246094"/>
       <use xlink:href="#DejaVuSans-35" x="159.033203"/>
      </g>
     </g>
    </g>
    <g id="xtick_7">
     <g id="line2d_7">
      <g>
       <use xlink:href="#mdb56a9e2db" x="294.234709" y="273.312" style="stroke: #000000; stroke-width: 0.8"/>
      </g>
     </g>
     <g id="text_7">
      <!-- 15.0 -->
      <g transform="translate(283.101896 287.910437) scale(0.1 -0.1)">
       <use xlink:href="#DejaVuSans-31"/>
       <use xlink:href="#DejaVuSans-35" x="63.623047"/>
       <use xlink:href="#DejaVuSans-2e" x="127.246094"/>
       <use xlink:href="#DejaVuSans-30" x="159.033203"/>
      </g>
     </g>
    </g>
    <g id="xtick_8">
     <g id="line2d_8">
      <g>
       <use xlink:href="#mdb56a9e2db" x="335.020456" y="273.312" style="stroke: #000000; stroke-width: 0.8"/>
      </g>
     </g>
     <g id="text_8">
      <!-- 17.5 -->
      <g transform="translate(323.887643 287.910437) scale(0.1 -0.1)">
       <use xlink:href="#DejaVuSans-31"/>
       <use xlink:href="#DejaVuSans-37" x="63.623047"/>
       <use xlink:href="#DejaVuSans-2e" x="127.246094"/>
       <use xlink:href="#DejaVuSans-35" x="159.033203"/>
      </g>
     </g>
    </g>
    <g id="xtick_9">
     <g id="line2d_9">
      <g>
       <use xlink:href="#mdb56a9e2db" x="375.806203" y="273.312" style="stroke: #000000; stroke-width: 0.8"/>
      </g>
     </g>
     <g id="text_9">
      <!-- 20.0 -->
      <g transform="translate(364.67339 287.910437) scale(0.1 -0.1)">
       <use xlink:href="#DejaVuSans-32"/>
       <use xlink:href="#DejaVuSans-30" x="63.623047"/>
       <use xlink:href="#DejaVuSans-2e" x="127.246094"/>
       <use xlink:href="#DejaVuSans-30" x="159.033203"/>
      </g>
     </g>
    </g>
   </g>
   <g id="matplotlib.axis_2">
    <g id="ytick_1">
     <g id="line2d_10">
      <defs>
       <path id="m23ccd37bc0" d="M 0 0 
L -3.5 0 
" style="stroke: #000000; stroke-width: 0.8"/>
      </defs>
      <g>
       <use xlink:href="#m23ccd37bc0" x="33.2875" y="261.216" style="stroke: #000000; stroke-width: 0.8"/>
      </g>
     </g>
     <g id="text_10">
      <!-- 0 -->
      <g transform="translate(19.925 265.015219) scale(0.1 -0.1)">
       <use xlink:href="#DejaVuSans-30"/>
      </g>
     </g>
    </g>
    <g id="ytick_2">
     <g id="line2d_11">
      <g>
       <use xlink:href="#m23ccd37bc0" x="33.2875" y="220.488727" style="stroke: #000000; stroke-width: 0.8"/>
      </g>
     </g>
     <g id="text_11">
      <!-- 50 -->
      <g transform="translate(13.5625 224.287946) scale(0.1 -0.1)">
       <use xlink:href="#DejaVuSans-35"/>
       <use xlink:href="#DejaVuSans-30" x="63.623047"/>
      </g>
     </g>
    </g>
    <g id="ytick_3">
     <g id="line2d_12">
      <g>
       <use xlink:href="#m23ccd37bc0" x="33.2875" y="179.761455" style="stroke: #000000; stroke-width: 0.8"/>
      </g>
     </g>
     <g id="text_12">
      <!-- 100 -->
      <g transform="translate(7.2 183.560673) scale(0.1 -0.1)">
       <use xlink:href="#DejaVuSans-31"/>
       <use xlink:href="#DejaVuSans-30" x="63.623047"/>
       <use xlink:href="#DejaVuSans-30" x="127.246094"/>
      </g>
     </g>
    </g>
    <g id="ytick_4">
     <g id="line2d_13">
      <g>
       <use xlink:href="#m23ccd37bc0" x="33.2875" y="139.034182" style="stroke: #000000; stroke-width: 0.8"/>
      </g>
     </g>
     <g id="text_13">
      <!-- 150 -->
      <g transform="translate(7.2 142.833401) scale(0.1 -0.1)">
       <use xlink:href="#DejaVuSans-31"/>
       <use xlink:href="#DejaVuSans-35" x="63.623047"/>
       <use xlink:href="#DejaVuSans-30" x="127.246094"/>
      </g>
     </g>
    </g>
    <g id="ytick_5">
     <g id="line2d_14">
      <g>
       <use xlink:href="#m23ccd37bc0" x="33.2875" y="98.306909" style="stroke: #000000; stroke-width: 0.8"/>
      </g>
     </g>
     <g id="text_14">
      <!-- 200 -->
      <g transform="translate(7.2 102.106128) scale(0.1 -0.1)">
       <use xlink:href="#DejaVuSans-32"/>
       <use xlink:href="#DejaVuSans-30" x="63.623047"/>
       <use xlink:href="#DejaVuSans-30" x="127.246094"/>
      </g>
     </g>
    </g>
    <g id="ytick_6">
     <g id="line2d_15">
      <g>
       <use xlink:href="#m23ccd37bc0" x="33.2875" y="57.579636" style="stroke: #000000; stroke-width: 0.8"/>
      </g>
     </g>
     <g id="text_15">
      <!-- 250 -->
      <g transform="translate(7.2 61.378855) scale(0.1 -0.1)">
       <use xlink:href="#DejaVuSans-32"/>
       <use xlink:href="#DejaVuSans-35" x="63.623047"/>
       <use xlink:href="#DejaVuSans-30" x="127.246094"/>
      </g>
     </g>
    </g>
    <g id="ytick_7">
     <g id="line2d_16">
      <g>
       <use xlink:href="#m23ccd37bc0" x="33.2875" y="16.852364" style="stroke: #000000; stroke-width: 0.8"/>
      </g>
     </g>
     <g id="text_16">
      <!-- 300 -->
      <g transform="translate(7.2 20.651582) scale(0.1 -0.1)">
       <defs>
        <path id="DejaVuSans-33" d="M 2597 2516 
Q 3050 2419 3304 2112 
Q 3559 1806 3559 1356 
Q 3559 666 3084 287 
Q 2609 -91 1734 -91 
Q 1441 -91 1130 -33 
Q 819 25 488 141 
L 488 750 
Q 750 597 1062 519 
Q 1375 441 1716 441 
Q 2309 441 2620 675 
Q 2931 909 2931 1356 
Q 2931 1769 2642 2001 
Q 2353 2234 1838 2234 
L 1294 2234 
L 1294 2753 
L 1863 2753 
Q 2328 2753 2575 2939 
Q 2822 3125 2822 3475 
Q 2822 3834 2567 4026 
Q 2313 4219 1838 4219 
Q 1578 4219 1281 4162 
Q 984 4106 628 3988 
L 628 4550 
Q 988 4650 1302 4700 
Q 1616 4750 1894 4750 
Q 2613 4750 3031 4423 
Q 3450 4097 3450 3541 
Q 3450 3153 3228 2886 
Q 3006 2619 2597 2516 
z
" transform="scale(0.015625)"/>
       </defs>
       <use xlink:href="#DejaVuSans-33"/>
       <use xlink:href="#DejaVuSans-30" x="63.623047"/>
       <use xlink:href="#DejaVuSans-30" x="127.246094"/>
      </g>
     </g>
    </g>
   </g>
   <g id="line2d_17">
    <path d="M 49.520227 261.216 
L 53.598802 57.579636 
L 57.677377 57.579636 
L 61.755951 57.579636 
L 65.834526 57.579636 
L 69.913101 57.579636 
L 73.991675 57.579636 
L 78.07025 57.579636 
L 82.148825 57.579636 
L 86.227399 57.579636 
L 90.305974 57.579636 
L 94.384549 57.579636 
L 98.463124 57.579636 
L 102.541698 57.579636 
L 106.620273 57.579636 
L 110.698848 57.579636 
L 114.777422 57.579636 
L 118.855997 57.579636 
L 122.934572 57.579636 
L 127.013146 57.579636 
L 131.091721 57.579636 
L 135.170296 57.579636 
L 139.24887 57.579636 
L 143.327445 57.579636 
L 147.40602 57.579636 
L 151.484595 57.579636 
L 155.563169 57.579636 
L 159.641744 57.579636 
L 163.720319 57.579636 
L 167.798893 57.579636 
L 171.877468 57.579636 
L 175.956043 57.579636 
L 180.034617 57.579636 
L 184.113192 57.579636 
L 188.191767 57.579636 
L 192.270341 57.579636 
L 196.348916 57.579636 
L 200.427491 57.579636 
L 204.506066 57.579636 
L 208.58464 57.579636 
L 212.663215 57.579636 
L 216.74179 57.579636 
L 220.820364 57.579636 
L 224.898939 57.579636 
L 228.977514 57.579636 
L 233.056088 57.579636 
L 237.134663 57.579636 
L 241.213238 57.579636 
L 245.291812 57.579636 
L 249.370387 57.579636 
L 253.448962 57.579636 
L 257.527537 57.579636 
L 261.606111 57.579636 
L 265.684686 57.579636 
L 269.763261 57.579636 
L 273.841835 57.579636 
L 277.92041 57.579636 
L 281.998985 57.579636 
L 286.077559 57.579636 
L 290.156134 57.579636 
L 294.234709 57.579636 
L 298.313283 57.579636 
L 302.391858 57.579636 
L 306.470433 57.579636 
L 310.549008 57.579636 
L 314.627582 57.579636 
L 318.706157 57.579636 
L 322.784732 57.579636 
L 326.863306 57.579636 
L 330.941881 57.579636 
L 335.020456 57.579636 
L 339.09903 57.579636 
L 343.177605 57.579636 
L 347.25618 57.579636 
L 351.334754 57.579636 
L 355.413329 57.579636 
L 359.491904 57.579636 
L 363.570479 57.579636 
L 367.649053 57.579636 
L 371.727628 57.579636 
" clip-path="url(#p04f1b0fa8e)" style="fill: none; stroke: #1f77b4; stroke-width: 1.5; stroke-linecap: square"/>
   </g>
   <g id="line2d_18">
    <path d="M 49.520227 261.216 
L 53.598802 261.216 
L 57.677377 57.579636 
L 61.755951 57.579636 
L 65.834526 57.579636 
L 69.913101 57.579636 
L 73.991675 57.579636 
L 78.07025 57.579636 
L 82.148825 57.579636 
L 86.227399 57.579636 
L 90.305974 57.579636 
L 94.384549 57.579636 
L 98.463124 57.579636 
L 102.541698 57.579636 
L 106.620273 57.579636 
L 110.698848 57.579636 
L 114.777422 57.579636 
L 118.855997 57.579636 
L 122.934572 57.579636 
L 127.013146 57.579636 
L 131.091721 57.579636 
L 135.170296 57.579636 
L 139.24887 57.579636 
L 143.327445 57.579636 
L 147.40602 57.579636 
L 151.484595 57.579636 
L 155.563169 57.579636 
L 159.641744 57.579636 
L 163.720319 57.579636 
L 167.798893 57.579636 
L 171.877468 57.579636 
L 175.956043 57.579636 
L 180.034617 57.579636 
L 184.113192 57.579636 
L 188.191767 57.579636 
L 192.270341 57.579636 
L 196.348916 57.579636 
L 200.427491 57.579636 
L 204.506066 57.579636 
L 208.58464 57.579636 
L 212.663215 57.579636 
L 216.74179 57.579636 
L 220.820364 57.579636 
L 224.898939 57.579636 
L 228.977514 57.579636 
L 233.056088 57.579636 
L 237.134663 57.579636 
L 241.213238 57.579636 
L 245.291812 57.579636 
L 249.370387 57.579636 
L 253.448962 57.579636 
L 257.527537 57.579636 
L 261.606111 57.579636 
L 265.684686 57.579636 
L 269.763261 57.579636 
L 273.841835 57.579636 
L 277.92041 57.579636 
L 281.998985 57.579636 
L 286.077559 57.579636 
L 290.156134 57.579636 
L 294.234709 57.579636 
L 298.313283 57.579636 
L 302.391858 57.579636 
L 306.470433 57.579636 
L 310.549008 57.579636 
L 314.627582 57.579636 
L 318.706157 57.579636 
L 322.784732 57.579636 
L 326.863306 57.579636 
L 330.941881 57.579636 
L 335.020456 57.579636 
L 339.09903 57.579636 
L 343.177605 57.579636 
L 347.25618 57.579636 
L 351.334754 57.579636 
L 355.413329 57.579636 
L 359.491904 57.579636 
L 363.570479 57.579636 
L 367.649053 57.579636 
L 371.727628 57.579636 
" clip-path="url(#p04f1b0fa8e)" style="fill: none; stroke: #ff7f0e; stroke-width: 1.5; stroke-linecap: square"/>
   </g>
   <g id="line2d_19">
    <path d="M 49.520227 261.216 
L 51.151657 193.608727 
L 52.783087 147.179636 
L 54.414517 117.856 
L 56.045947 92.605091 
L 57.677377 81.201455 
L 59.308807 78.757818 
L 60.940236 67.354182 
L 62.571666 64.910545 
L 64.203096 61.652364 
L 65.834526 55.950545 
L 67.465956 62.466909 
L 69.097386 59.208727 
L 70.728816 62.466909 
L 72.360246 61.652364 
L 73.991675 66.539636 
L 75.623105 64.096 
L 77.254535 60.837818 
L 78.885965 61.652364 
L 80.517395 55.136 
L 82.148825 67.354182 
L 83.780255 57.579636 
L 85.411685 59.208727 
L 87.043114 55.950545 
L 88.674544 58.394182 
L 90.305974 63.281455 
L 91.937404 55.136 
L 93.568834 51.877818 
L 95.200264 60.023273 
L 96.831694 58.394182 
L 98.463124 64.096 
L 100.094553 56.765091 
L 103.357413 55.136 
L 104.988843 58.394182 
L 106.620273 64.096 
L 108.251703 68.983273 
L 109.883133 66.539636 
L 111.514563 68.983273 
L 113.145992 67.354182 
L 114.777422 72.241455 
L 116.408852 61.652364 
L 118.040282 74.685091 
L 119.671712 60.023273 
L 121.303142 57.579636 
L 122.934572 55.950545 
L 124.566002 55.136 
L 126.197431 63.281455 
L 127.828861 66.539636 
L 129.460291 60.837818 
L 131.091721 52.692364 
L 132.723151 47.805091 
L 134.354581 48.619636 
L 135.986011 58.394182 
L 137.617441 55.950545 
L 139.24887 54.321455 
L 140.8803 50.248727 
L 142.51173 46.990545 
L 144.14316 46.990545 
L 145.77459 55.950545 
L 147.40602 58.394182 
L 149.03745 42.103273 
L 150.66888 37.216 
L 152.30031 56.765091 
L 153.931739 59.208727 
L 155.563169 54.321455 
L 157.194599 54.321455 
L 158.826029 61.652364 
L 160.457459 55.136 
L 162.088889 59.208727 
L 163.720319 56.765091 
L 165.351749 60.023273 
L 166.983178 75.499636 
L 168.614608 74.685091 
L 170.246038 69.797818 
L 171.877468 70.612364 
L 173.508898 73.056 
L 175.140328 68.168727 
L 176.771758 73.870545 
L 178.403188 51.063273 
L 180.034617 61.652364 
L 181.666047 61.652364 
L 183.297477 54.321455 
L 184.928907 47.805091 
L 186.560337 56.765091 
L 188.191767 58.394182 
L 189.823197 57.579636 
L 191.454627 54.321455 
L 193.086056 50.248727 
L 194.717486 51.063273 
L 196.348916 42.917818 
L 197.980346 46.176 
L 199.611776 53.506909 
L 201.243206 39.659636 
L 202.874636 52.692364 
L 204.506066 59.208727 
L 206.137495 68.983273 
L 207.768925 68.168727 
L 209.400355 61.652364 
L 211.031785 73.056 
L 212.663215 68.168727 
L 214.294645 65.725091 
L 215.926075 54.321455 
L 217.557505 58.394182 
L 219.188934 55.136 
L 220.820364 57.579636 
L 224.083224 73.870545 
L 225.714654 86.088727 
L 227.346084 74.685091 
L 228.977514 64.096 
L 230.608944 82.016 
L 232.240373 76.314182 
L 233.871803 80.386909 
L 235.503233 72.241455 
L 237.134663 59.208727 
L 240.397523 57.579636 
L 242.028953 52.692364 
L 243.660383 56.765091 
L 245.291812 52.692364 
L 246.923242 53.506909 
L 248.554672 45.361455 
L 250.186102 48.619636 
L 251.817532 51.063273 
L 253.448962 60.837818 
L 255.080392 65.725091 
L 256.711822 69.797818 
L 258.343251 73.056 
L 259.974681 68.168727 
L 261.606111 73.056 
L 263.237541 70.612364 
L 264.868971 86.088727 
L 266.500401 89.346909 
L 268.131831 79.572364 
L 269.763261 77.128727 
L 271.39469 72.241455 
L 273.02612 68.168727 
L 274.65755 71.426909 
L 276.28898 60.837818 
L 277.92041 55.136 
L 279.55184 52.692364 
L 281.18327 56.765091 
L 282.8147 54.321455 
L 284.44613 43.732364 
L 286.077559 44.546909 
L 287.708989 47.805091 
L 289.340419 36.401455 
L 290.971849 42.103273 
L 292.603279 45.361455 
L 294.234709 45.361455 
L 295.866139 52.692364 
L 297.497569 51.063273 
L 299.128998 53.506909 
L 300.760428 56.765091 
L 302.391858 57.579636 
L 304.023288 73.056 
L 305.654718 64.096 
L 307.286148 62.466909 
L 308.917578 60.023273 
L 310.549008 60.837818 
L 312.180437 49.434182 
L 313.811867 53.506909 
L 315.443297 42.917818 
L 317.074727 56.765091 
L 318.706157 64.096 
L 320.337587 59.208727 
L 321.969017 52.692364 
L 323.600447 55.950545 
L 325.231876 58.394182 
L 326.863306 56.765091 
L 328.494736 51.063273 
L 330.126166 54.321455 
L 331.757596 59.208727 
L 333.389026 61.652364 
L 335.020456 62.466909 
L 336.651886 54.321455 
L 339.914745 54.321455 
L 341.546175 49.434182 
L 343.177605 55.950545 
L 344.809035 67.354182 
L 346.440465 68.168727 
L 348.071895 62.466909 
L 349.703325 54.321455 
L 351.334754 60.023273 
L 352.966184 57.579636 
L 356.229044 54.321455 
L 357.860474 50.248727 
L 359.491904 54.321455 
L 361.123334 40.474182 
L 362.754764 42.103273 
L 364.386193 46.990545 
L 366.017623 51.063273 
L 367.649053 44.546909 
L 369.280483 45.361455 
L 370.911913 51.877818 
L 372.543343 54.321455 
L 374.174773 51.063273 
L 374.174773 51.063273 
" clip-path="url(#p04f1b0fa8e)" style="fill: none; stroke: #2ca02c; stroke-width: 1.5; stroke-linecap: square"/>
   </g>
   <g id="line2d_20">
    <path d="M 49.520227 261.216 
L 51.151657 248.997818 
L 52.783087 225.376 
L 56.045947 165.914182 
L 57.677377 154.510545 
L 59.308807 112.154182 
L 60.940236 101.565091 
L 62.571666 92.605091 
L 64.203096 73.056 
L 65.834526 75.499636 
L 67.465956 60.837818 
L 69.097386 78.757818 
L 70.728816 71.426909 
L 72.360246 61.652364 
L 73.991675 57.579636 
L 75.623105 60.837818 
L 77.254535 60.837818 
L 78.885965 64.910545 
L 80.517395 60.837818 
L 82.148825 60.023273 
L 83.780255 67.354182 
L 85.411685 61.652364 
L 87.043114 70.612364 
L 88.674544 63.281455 
L 90.305974 62.466909 
L 91.937404 78.757818 
L 93.568834 62.466909 
L 95.200264 55.950545 
L 96.831694 55.136 
L 98.463124 56.765091 
L 100.094553 57.579636 
L 101.725983 66.539636 
L 103.357413 60.023273 
L 104.988843 59.208727 
L 106.620273 53.506909 
L 108.251703 48.619636 
L 109.883133 55.950545 
L 111.514563 54.321455 
L 113.145992 61.652364 
L 114.777422 44.546909 
L 116.408852 62.466909 
L 118.040282 56.765091 
L 119.671712 75.499636 
L 121.303142 81.201455 
L 122.934572 84.459636 
L 124.566002 73.056 
L 126.197431 55.950545 
L 127.828861 59.208727 
L 129.460291 57.579636 
L 131.091721 58.394182 
L 132.723151 55.136 
L 134.354581 56.765091 
L 135.986011 48.619636 
L 137.617441 54.321455 
L 139.24887 46.176 
L 140.8803 57.579636 
L 142.51173 71.426909 
L 144.14316 77.943273 
L 145.77459 62.466909 
L 147.40602 57.579636 
L 149.03745 62.466909 
L 150.66888 53.506909 
L 152.30031 20.110545 
L 153.931739 38.030545 
L 155.563169 40.474182 
L 157.194599 34.772364 
L 158.826029 19.296 
L 160.457459 42.103273 
L 162.088889 47.805091 
L 163.720319 38.030545 
L 165.351749 38.845091 
L 166.983178 38.845091 
L 168.614608 42.103273 
L 170.246038 61.652364 
L 171.877468 52.692364 
L 173.508898 58.394182 
L 175.140328 70.612364 
L 176.771758 68.168727 
L 178.403188 94.234182 
L 180.034617 79.572364 
L 181.666047 71.426909 
L 183.297477 73.870545 
L 184.928907 81.201455 
L 186.560337 68.168727 
L 188.191767 61.652364 
L 189.823197 71.426909 
L 191.454627 70.612364 
L 193.086056 59.208727 
L 194.717486 64.096 
L 196.348916 74.685091 
L 199.611776 46.176 
L 201.243206 58.394182 
L 202.874636 53.506909 
L 204.506066 63.281455 
L 206.137495 54.321455 
L 207.768925 54.321455 
L 209.400355 60.837818 
L 211.031785 40.474182 
L 212.663215 56.765091 
L 214.294645 51.877818 
L 215.926075 82.830545 
L 217.557505 73.056 
L 219.188934 76.314182 
L 220.820364 67.354182 
L 222.451794 63.281455 
L 224.083224 60.837818 
L 225.714654 44.546909 
L 227.346084 48.619636 
L 228.977514 54.321455 
L 230.608944 45.361455 
L 232.240373 46.176 
L 233.871803 52.692364 
L 235.503233 71.426909 
L 237.134663 71.426909 
L 238.766093 74.685091 
L 240.397523 70.612364 
L 242.028953 73.870545 
L 243.660383 55.136 
L 245.291812 53.506909 
L 246.923242 49.434182 
L 248.554672 60.023273 
L 250.186102 68.168727 
L 251.817532 50.248727 
L 253.448962 41.288727 
L 255.080392 48.619636 
L 256.711822 48.619636 
L 258.343251 45.361455 
L 259.974681 67.354182 
L 261.606111 54.321455 
L 263.237541 54.321455 
L 264.868971 42.917818 
L 266.500401 39.659636 
L 268.131831 59.208727 
L 269.763261 64.910545 
L 271.39469 78.757818 
L 274.65755 60.837818 
L 276.28898 61.652364 
L 277.92041 68.983273 
L 279.55184 74.685091 
L 281.18327 68.168727 
L 282.8147 82.016 
L 284.44613 80.386909 
L 286.077559 68.983273 
L 287.708989 62.466909 
L 289.340419 68.168727 
L 290.971849 58.394182 
L 292.603279 55.950545 
L 294.234709 58.394182 
L 295.866139 57.579636 
L 297.497569 58.394182 
L 299.128998 56.765091 
L 300.760428 44.546909 
L 302.391858 45.361455 
L 304.023288 53.506909 
L 305.654718 57.579636 
L 307.286148 59.208727 
L 308.917578 56.765091 
L 310.549008 56.765091 
L 312.180437 64.096 
L 313.811867 56.765091 
L 315.443297 77.943273 
L 317.074727 62.466909 
L 318.706157 61.652364 
L 320.337587 68.168727 
L 321.969017 71.426909 
L 323.600447 67.354182 
L 325.231876 54.321455 
L 326.863306 51.063273 
L 328.494736 62.466909 
L 330.126166 46.990545 
L 331.757596 36.401455 
L 333.389026 35.586909 
L 335.020456 51.063273 
L 336.651886 54.321455 
L 338.283315 61.652364 
L 339.914745 63.281455 
L 341.546175 68.168727 
L 343.177605 55.950545 
L 344.809035 47.805091 
L 346.440465 55.950545 
L 348.071895 50.248727 
L 349.703325 48.619636 
L 351.334754 42.917818 
L 352.966184 44.546909 
L 354.597614 48.619636 
L 356.229044 64.910545 
L 357.860474 64.096 
L 359.491904 51.063273 
L 361.123334 61.652364 
L 362.754764 50.248727 
L 364.386193 46.176 
L 366.017623 38.030545 
L 367.649053 45.361455 
L 369.280483 51.063273 
L 370.911913 42.917818 
L 372.543343 60.837818 
L 374.174773 55.136 
L 374.174773 55.136 
" clip-path="url(#p04f1b0fa8e)" style="fill: none; stroke: #d62728; stroke-width: 1.5; stroke-linecap: square"/>
   </g>
   <g id="patch_3">
    <path d="M 33.2875 273.312 
L 33.2875 7.2 
" style="fill: none; stroke: #000000; stroke-width: 0.8; stroke-linejoin: miter; stroke-linecap: square"/>
   </g>
   <g id="patch_4">
    <path d="M 390.4075 273.312 
L 390.4075 7.2 
" style="fill: none; stroke: #000000; stroke-width: 0.8; stroke-linejoin: miter; stroke-linecap: square"/>
   </g>
   <g id="patch_5">
    <path d="M 33.2875 273.312 
L 390.4075 273.312 
" style="fill: none; stroke: #000000; stroke-width: 0.8; stroke-linejoin: miter; stroke-linecap: square"/>
   </g>
   <g id="patch_6">
    <path d="M 33.2875 7.2 
L 390.4075 7.2 
" style="fill: none; stroke: #000000; stroke-width: 0.8; stroke-linejoin: miter; stroke-linecap: square"/>
   </g>
  </g>
 </g>
 <defs>
  <clipPath id="p04f1b0fa8e">
   <rect x="33.2875" y="7.2" width="357.12" height="266.112"/>
  </clipPath>
 </defs>
</svg>
