<?xml version="1.0" encoding="utf-8" standalone="no"?>
<!DOCTYPE svg PUBLIC "-//W3C//DTD SVG 1.1//EN"
  "http://www.w3.org/Graphics/SVG/1.1/DTD/svg11.dtd">
<svg xmlns:xlink="http://www.w3.org/1999/xlink" width="403.97pt" height="297.190125pt" viewBox="0 0 403.97 297.190125" xmlns="http://www.w3.org/2000/svg" version="1.1">
 <metadata>
  <rdf:RDF xmlns:dc="http://purl.org/dc/elements/1.1/" xmlns:cc="http://creativecommons.org/ns#" xmlns:rdf="http://www.w3.org/1999/02/22-rdf-syntax-ns#">
   <cc:Work>
    <dc:type rdf:resource="http://purl.org/dc/dcmitype/StillImage"/>
    <dc:date>2024-04-05T01:28:09.472481</dc:date>
    <dc:format>image/svg+xml</dc:format>
    <dc:creator>
     <cc:Agent>
      <dc:title>Matplotlib v3.8.4, https://matplotlib.org/</dc:title>
     </cc:Agent>
    </dc:creator>
   </cc:Work>
  </rdf:RDF>
 </metadata>
 <defs>
  <style type="text/css">*{stroke-linejoin: round; stroke-linecap: butt}</style>
 </defs>
 <g id="figure_1">
  <g id="patch_1">
   <path d="M 0 297.190125 
L 403.97 297.190125 
L 403.97 0 
L 0 0 
z
" style="fill: #ffffff"/>
  </g>
  <g id="axes_1">
   <g id="patch_2">
    <path d="M 39.65 273.312 
L 396.77 273.312 
L 396.77 7.2 
L 39.65 7.2 
z
" style="fill: #ffffff"/>
   </g>
   <g id="matplotlib.axis_1">
    <g id="xtick_1">
     <g id="line2d_1">
      <defs>
       <path id="mbe69ffd4a5" d="M 0 0 
L 0 3.5 
" style="stroke: #000000; stroke-width: 0.8"/>
      </defs>
      <g>
       <use xlink:href="#mbe69ffd4a5" x="55.882727" y="273.312" style="stroke: #000000; stroke-width: 0.8"/>
      </g>
     </g>
     <g id="text_1">
      <!-- 0.0 -->
      <g transform="translate(47.931165 287.910437) scale(0.1 -0.1)">
       <defs>
        <path id="DejaVuSans-30" d="M 2034 4250 
Q 1547 4250 1301 3770 
Q 1056 3291 1056 2328 
Q 1056 1369 1301 889 
Q 1547 409 2034 409 
Q 2525 409 2770 889 
Q 3016 1369 3016 2328 
Q 3016 3291 2770 3770 
Q 2525 4250 2034 4250 
z
M 2034 4750 
Q 2819 4750 3233 4129 
Q 3647 3509 3647 2328 
Q 3647 1150 3233 529 
Q 2819 -91 2034 -91 
Q 1250 -91 836 529 
Q 422 1150 422 2328 
Q 422 3509 836 4129 
Q 1250 4750 2034 4750 
z
" transform="scale(0.015625)"/>
        <path id="DejaVuSans-2e" d="M 684 794 
L 1344 794 
L 1344 0 
L 684 0 
L 684 794 
z
" transform="scale(0.015625)"/>
       </defs>
       <use xlink:href="#DejaVuSans-30"/>
       <use xlink:href="#DejaVuSans-2e" x="63.623047"/>
       <use xlink:href="#DejaVuSans-30" x="95.410156"/>
      </g>
     </g>
    </g>
    <g id="xtick_2">
     <g id="line2d_2">
      <g>
       <use xlink:href="#mbe69ffd4a5" x="96.668474" y="273.312" style="stroke: #000000; stroke-width: 0.8"/>
      </g>
     </g>
     <g id="text_2">
      <!-- 2.5 -->
      <g transform="translate(88.716912 287.910437) scale(0.1 -0.1)">
       <defs>
        <path id="DejaVuSans-32" d="M 1228 531 
L 3431 531 
L 3431 0 
L 469 0 
L 469 531 
Q 828 903 1448 1529 
Q 2069 2156 2228 2338 
Q 2531 2678 2651 2914 
Q 2772 3150 2772 3378 
Q 2772 3750 2511 3984 
Q 2250 4219 1831 4219 
Q 1534 4219 1204 4116 
Q 875 4013 500 3803 
L 500 4441 
Q 881 4594 1212 4672 
Q 1544 4750 1819 4750 
Q 2544 4750 2975 4387 
Q 3406 4025 3406 3419 
Q 3406 3131 3298 2873 
Q 3191 2616 2906 2266 
Q 2828 2175 2409 1742 
Q 1991 1309 1228 531 
z
" transform="scale(0.015625)"/>
        <path id="DejaVuSans-35" d="M 691 4666 
L 3169 4666 
L 3169 4134 
L 1269 4134 
L 1269 2991 
Q 1406 3038 1543 3061 
Q 1681 3084 1819 3084 
Q 2600 3084 3056 2656 
Q 3513 2228 3513 1497 
Q 3513 744 3044 326 
Q 2575 -91 1722 -91 
Q 1428 -91 1123 -41 
Q 819 9 494 109 
L 494 744 
Q 775 591 1075 516 
Q 1375 441 1709 441 
Q 2250 441 2565 725 
Q 2881 1009 2881 1497 
Q 2881 1984 2565 2268 
Q 2250 2553 1709 2553 
Q 1456 2553 1204 2497 
Q 953 2441 691 2322 
L 691 4666 
z
" transform="scale(0.015625)"/>
       </defs>
       <use xlink:href="#DejaVuSans-32"/>
       <use xlink:href="#DejaVuSans-2e" x="63.623047"/>
       <use xlink:href="#DejaVuSans-35" x="95.410156"/>
      </g>
     </g>
    </g>
    <g id="xtick_3">
     <g id="line2d_3">
      <g>
       <use xlink:href="#mbe69ffd4a5" x="137.454221" y="273.312" style="stroke: #000000; stroke-width: 0.8"/>
      </g>
     </g>
     <g id="text_3">
      <!-- 5.0 -->
      <g transform="translate(129.502659 287.910437) scale(0.1 -0.1)">
       <use xlink:href="#DejaVuSans-35"/>
       <use xlink:href="#DejaVuSans-2e" x="63.623047"/>
       <use xlink:href="#DejaVuSans-30" x="95.410156"/>
      </g>
     </g>
    </g>
    <g id="xtick_4">
     <g id="line2d_4">
      <g>
       <use xlink:href="#mbe69ffd4a5" x="178.239968" y="273.312" style="stroke: #000000; stroke-width: 0.8"/>
      </g>
     </g>
     <g id="text_4">
      <!-- 7.5 -->
      <g transform="translate(170.288406 287.910437) scale(0.1 -0.1)">
       <defs>
        <path id="DejaVuSans-37" d="M 525 4666 
L 3525 4666 
L 3525 4397 
L 1831 0 
L 1172 0 
L 2766 4134 
L 525 4134 
L 525 4666 
z
" transform="scale(0.015625)"/>
       </defs>
       <use xlink:href="#DejaVuSans-37"/>
       <use xlink:href="#DejaVuSans-2e" x="63.623047"/>
       <use xlink:href="#DejaVuSans-35" x="95.410156"/>
      </g>
     </g>
    </g>
    <g id="xtick_5">
     <g id="line2d_5">
      <g>
       <use xlink:href="#mbe69ffd4a5" x="219.025715" y="273.312" style="stroke: #000000; stroke-width: 0.8"/>
      </g>
     </g>
     <g id="text_5">
      <!-- 10.0 -->
      <g transform="translate(207.892902 287.910437) scale(0.1 -0.1)">
       <defs>
        <path id="DejaVuSans-31" d="M 794 531 
L 1825 531 
L 1825 4091 
L 703 3866 
L 703 4441 
L 1819 4666 
L 2450 4666 
L 2450 531 
L 3481 531 
L 3481 0 
L 794 0 
L 794 531 
z
" transform="scale(0.015625)"/>
       </defs>
       <use xlink:href="#DejaVuSans-31"/>
       <use xlink:href="#DejaVuSans-30" x="63.623047"/>
       <use xlink:href="#DejaVuSans-2e" x="127.246094"/>
       <use xlink:href="#DejaVuSans-30" x="159.033203"/>
      </g>
     </g>
    </g>
    <g id="xtick_6">
     <g id="line2d_6">
      <g>
       <use xlink:href="#mbe69ffd4a5" x="259.811462" y="273.312" style="stroke: #000000; stroke-width: 0.8"/>
      </g>
     </g>
     <g id="text_6">
      <!-- 12.5 -->
      <g transform="translate(248.678649 287.910437) scale(0.1 -0.1)">
       <use xlink:href="#DejaVuSans-31"/>
       <use xlink:href="#DejaVuSans-32" x="63.623047"/>
       <use xlink:href="#DejaVuSans-2e" x="127.246094"/>
       <use xlink:href="#DejaVuSans-35" x="159.033203"/>
      </g>
     </g>
    </g>
    <g id="xtick_7">
     <g id="line2d_7">
      <g>
       <use xlink:href="#mbe69ffd4a5" x="300.597209" y="273.312" style="stroke: #000000; stroke-width: 0.8"/>
      </g>
     </g>
     <g id="text_7">
      <!-- 15.0 -->
      <g transform="translate(289.464396 287.910437) scale(0.1 -0.1)">
       <use xlink:href="#DejaVuSans-31"/>
       <use xlink:href="#DejaVuSans-35" x="63.623047"/>
       <use xlink:href="#DejaVuSans-2e" x="127.246094"/>
       <use xlink:href="#DejaVuSans-30" x="159.033203"/>
      </g>
     </g>
    </g>
    <g id="xtick_8">
     <g id="line2d_8">
      <g>
       <use xlink:href="#mbe69ffd4a5" x="341.382956" y="273.312" style="stroke: #000000; stroke-width: 0.8"/>
      </g>
     </g>
     <g id="text_8">
      <!-- 17.5 -->
      <g transform="translate(330.250143 287.910437) scale(0.1 -0.1)">
       <use xlink:href="#DejaVuSans-31"/>
       <use xlink:href="#DejaVuSans-37" x="63.623047"/>
       <use xlink:href="#DejaVuSans-2e" x="127.246094"/>
       <use xlink:href="#DejaVuSans-35" x="159.033203"/>
      </g>
     </g>
    </g>
    <g id="xtick_9">
     <g id="line2d_9">
      <g>
       <use xlink:href="#mbe69ffd4a5" x="382.168703" y="273.312" style="stroke: #000000; stroke-width: 0.8"/>
      </g>
     </g>
     <g id="text_9">
      <!-- 20.0 -->
      <g transform="translate(371.03589 287.910437) scale(0.1 -0.1)">
       <use xlink:href="#DejaVuSans-32"/>
       <use xlink:href="#DejaVuSans-30" x="63.623047"/>
       <use xlink:href="#DejaVuSans-2e" x="127.246094"/>
       <use xlink:href="#DejaVuSans-30" x="159.033203"/>
      </g>
     </g>
    </g>
   </g>
   <g id="matplotlib.axis_2">
    <g id="ytick_1">
     <g id="line2d_10">
      <defs>
       <path id="m02a3773ef5" d="M 0 0 
L -3.5 0 
" style="stroke: #000000; stroke-width: 0.8"/>
      </defs>
      <g>
       <use xlink:href="#m02a3773ef5" x="39.65" y="261.216" style="stroke: #000000; stroke-width: 0.8"/>
      </g>
     </g>
     <g id="text_10">
      <!-- 0 -->
      <g transform="translate(26.2875 265.015219) scale(0.1 -0.1)">
       <use xlink:href="#DejaVuSans-30"/>
      </g>
     </g>
    </g>
    <g id="ytick_2">
     <g id="line2d_11">
      <g>
       <use xlink:href="#m02a3773ef5" x="39.65" y="220.949688" style="stroke: #000000; stroke-width: 0.8"/>
      </g>
     </g>
     <g id="text_11">
      <!-- 500 -->
      <g transform="translate(13.5625 224.748907) scale(0.1 -0.1)">
       <use xlink:href="#DejaVuSans-35"/>
       <use xlink:href="#DejaVuSans-30" x="63.623047"/>
       <use xlink:href="#DejaVuSans-30" x="127.246094"/>
      </g>
     </g>
    </g>
    <g id="ytick_3">
     <g id="line2d_12">
      <g>
       <use xlink:href="#m02a3773ef5" x="39.65" y="180.683377" style="stroke: #000000; stroke-width: 0.8"/>
      </g>
     </g>
     <g id="text_12">
      <!-- 1000 -->
      <g transform="translate(7.2 184.482596) scale(0.1 -0.1)">
       <use xlink:href="#DejaVuSans-31"/>
       <use xlink:href="#DejaVuSans-30" x="63.623047"/>
       <use xlink:href="#DejaVuSans-30" x="127.246094"/>
       <use xlink:href="#DejaVuSans-30" x="190.869141"/>
      </g>
     </g>
    </g>
    <g id="ytick_4">
     <g id="line2d_13">
      <g>
       <use xlink:href="#m02a3773ef5" x="39.65" y="140.417065" style="stroke: #000000; stroke-width: 0.8"/>
      </g>
     </g>
     <g id="text_13">
      <!-- 1500 -->
      <g transform="translate(7.2 144.216284) scale(0.1 -0.1)">
       <use xlink:href="#DejaVuSans-31"/>
       <use xlink:href="#DejaVuSans-35" x="63.623047"/>
       <use xlink:href="#DejaVuSans-30" x="127.246094"/>
       <use xlink:href="#DejaVuSans-30" x="190.869141"/>
      </g>
     </g>
    </g>
    <g id="ytick_5">
     <g id="line2d_14">
      <g>
       <use xlink:href="#m02a3773ef5" x="39.65" y="100.150754" style="stroke: #000000; stroke-width: 0.8"/>
      </g>
     </g>
     <g id="text_14">
      <!-- 2000 -->
      <g transform="translate(7.2 103.949972) scale(0.1 -0.1)">
       <use xlink:href="#DejaVuSans-32"/>
       <use xlink:href="#DejaVuSans-30" x="63.623047"/>
       <use xlink:href="#DejaVuSans-30" x="127.246094"/>
       <use xlink:href="#DejaVuSans-30" x="190.869141"/>
      </g>
     </g>
    </g>
    <g id="ytick_6">
     <g id="line2d_15">
      <g>
       <use xlink:href="#m02a3773ef5" x="39.65" y="59.884442" style="stroke: #000000; stroke-width: 0.8"/>
      </g>
     </g>
     <g id="text_15">
      <!-- 2500 -->
      <g transform="translate(7.2 63.683661) scale(0.1 -0.1)">
       <use xlink:href="#DejaVuSans-32"/>
       <use xlink:href="#DejaVuSans-35" x="63.623047"/>
       <use xlink:href="#DejaVuSans-30" x="127.246094"/>
       <use xlink:href="#DejaVuSans-30" x="190.869141"/>
      </g>
     </g>
    </g>
    <g id="ytick_7">
     <g id="line2d_16">
      <g>
       <use xlink:href="#m02a3773ef5" x="39.65" y="19.61813" style="stroke: #000000; stroke-width: 0.8"/>
      </g>
     </g>
     <g id="text_16">
      <!-- 3000 -->
      <g transform="translate(7.2 23.417349) scale(0.1 -0.1)">
       <defs>
        <path id="DejaVuSans-33" d="M 2597 2516 
Q 3050 2419 3304 2112 
Q 3559 1806 3559 1356 
Q 3559 666 3084 287 
Q 2609 -91 1734 -91 
Q 1441 -91 1130 -33 
Q 819 25 488 141 
L 488 750 
Q 750 597 1062 519 
Q 1375 441 1716 441 
Q 2309 441 2620 675 
Q 2931 909 2931 1356 
Q 2931 1769 2642 2001 
Q 2353 2234 1838 2234 
L 1294 2234 
L 1294 2753 
L 1863 2753 
Q 2328 2753 2575 2939 
Q 2822 3125 2822 3475 
Q 2822 3834 2567 4026 
Q 2313 4219 1838 4219 
Q 1578 4219 1281 4162 
Q 984 4106 628 3988 
L 628 4550 
Q 988 4650 1302 4700 
Q 1616 4750 1894 4750 
Q 2613 4750 3031 4423 
Q 3450 4097 3450 3541 
Q 3450 3153 3228 2886 
Q 3006 2619 2597 2516 
z
" transform="scale(0.015625)"/>
       </defs>
       <use xlink:href="#DejaVuSans-33"/>
       <use xlink:href="#DejaVuSans-30" x="63.623047"/>
       <use xlink:href="#DejaVuSans-30" x="127.246094"/>
       <use xlink:href="#DejaVuSans-30" x="190.869141"/>
      </g>
     </g>
    </g>
   </g>
   <g id="line2d_17">
    <path d="M 55.882727 261.216 
L 59.961302 241.082844 
L 64.039877 222.62678 
L 68.118451 205.708107 
L 72.197026 190.198758 
L 76.275601 175.981339 
L 80.354175 162.94823 
L 84.43275 151.00078 
L 88.511325 140.048552 
L 92.589899 130.008644 
L 96.668474 120.805061 
L 100.747049 112.368137 
L 104.825624 104.634008 
L 108.904198 97.544132 
L 112.982773 91.044843 
L 117.061348 85.086944 
L 121.139922 79.625339 
L 125.218497 74.618685 
L 129.297072 70.029086 
L 133.375646 65.8218 
L 137.454221 61.964981 
L 141.532796 58.429435 
L 145.61137 55.1884 
L 149.689945 52.217343 
L 153.76852 49.493776 
L 157.847095 46.997081 
L 161.925669 44.708361 
L 166.004244 42.610292 
L 170.082819 40.686992 
L 174.161393 38.923902 
L 178.239968 37.307678 
L 182.318543 35.826086 
L 186.397117 34.46791 
L 190.475692 33.22287 
L 194.554267 32.081542 
L 198.632841 31.035286 
L 202.711416 30.076184 
L 206.789991 29.196975 
L 210.868566 28.391004 
L 214.94714 27.65217 
L 219.025715 26.974881 
L 223.10429 26.354011 
L 227.182864 25.784859 
L 231.261439 25.263117 
L 235.340014 24.784836 
L 239.418588 24.346397 
L 243.497163 23.944479 
L 247.575738 23.576041 
L 251.654312 23.238293 
L 255.732887 22.928681 
L 259.811462 22.644859 
L 263.890037 22.384679 
L 267.968611 22.146172 
L 272.047186 21.927533 
L 276.125761 21.727106 
L 280.204335 21.543376 
L 284.28291 21.374949 
L 288.361485 21.220553 
L 292.440059 21.079018 
L 296.518634 20.949273 
L 300.597209 20.830335 
L 304.675783 20.721305 
L 308.754358 20.621358 
L 312.832933 20.529736 
L 316.911508 20.445746 
L 320.990082 20.368752 
L 325.068657 20.298172 
L 329.147232 20.233471 
L 333.225806 20.17416 
L 337.304381 20.11979 
L 341.382956 20.069948 
L 345.46153 20.024258 
L 349.540105 19.982375 
L 353.61868 19.94398 
L 357.697254 19.908783 
L 361.775829 19.876519 
L 365.854404 19.846942 
L 369.932979 19.819829 
L 374.011553 19.794974 
L 378.090128 19.77219 
" clip-path="url(#p5bec4b7f1f)" style="fill: none; stroke: #1f77b4; stroke-width: 1.5; stroke-linecap: square"/>
   </g>
   <g id="line2d_18">
    <path d="M 55.882727 261.216 
L 59.961302 261.216 
L 64.039877 259.538908 
L 68.118451 256.603997 
L 72.197026 252.749011 
L 76.275601 248.244722 
L 80.354175 243.306986 
L 84.43275 238.106714 
L 88.511325 232.778104 
L 92.589899 227.425453 
L 96.668474 222.128764 
L 100.747049 216.948375 
L 104.825624 211.928761 
L 108.904198 207.101664 
L 112.982773 202.488657 
L 117.061348 198.103248 
L 121.139922 193.952593 
L 125.218497 190.038901 
L 129.297072 186.360567 
L 133.375646 182.913098 
L 137.454221 179.689855 
L 141.532796 176.682653 
L 145.61137 173.882241 
L 149.689945 171.27868 
L 153.76852 168.861643 
L 157.847095 166.620653 
L 161.925669 164.545261 
L 166.004244 162.625187 
L 170.082819 160.85042 
L 174.161393 159.211296 
L 178.239968 157.698548 
L 182.318543 156.303344 
L 186.397117 155.017304 
L 190.475692 153.832511 
L 194.554267 152.741511 
L 198.632841 151.737308 
L 202.711416 150.813352 
L 206.789991 149.963527 
L 210.868566 149.182129 
L 214.94714 148.463853 
L 219.025715 147.803769 
L 223.10429 147.197303 
L 227.182864 146.640216 
L 231.261439 146.128585 
L 235.340014 145.658782 
L 239.418588 145.227454 
L 243.497163 144.831507 
L 247.575738 144.468084 
L 251.654312 144.134553 
L 255.732887 143.828487 
L 259.811462 143.547652 
L 263.890037 143.28999 
L 267.968611 143.053606 
L 272.047186 142.836761 
L 276.125761 142.637851 
L 280.204335 142.455403 
L 284.28291 142.288065 
L 288.361485 142.134592 
L 292.440059 141.993842 
L 296.518634 141.864765 
L 300.597209 141.746398 
L 304.675783 141.637855 
L 308.754358 141.538323 
L 312.832933 141.447058 
L 316.911508 141.363375 
L 320.990082 141.286646 
L 325.068657 141.216293 
L 329.147232 141.151789 
L 333.225806 141.092649 
L 337.304381 141.038426 
L 341.382956 140.988713 
L 345.46153 140.943136 
L 349.540105 140.90135 
L 353.61868 140.863041 
L 357.697254 140.82792 
L 361.775829 140.795722 
L 365.854404 140.766204 
L 369.932979 140.739142 
L 374.011553 140.714333 
L 378.090128 140.69159 
" clip-path="url(#p5bec4b7f1f)" style="fill: none; stroke: #ff7f0e; stroke-width: 1.5; stroke-linecap: square"/>
   </g>
   <g id="line2d_19">
    <path d="M 55.882727 261.216 
L 59.145587 245.431606 
L 62.408447 230.291473 
L 64.039877 224.493124 
L 68.934166 204.198903 
L 70.565596 198.803217 
L 72.197026 193.004868 
L 73.828456 187.689715 
L 75.459886 182.777225 
L 77.091316 177.381539 
L 80.354175 165.945907 
L 83.617035 158.536905 
L 85.248465 153.221752 
L 88.511325 147.181806 
L 90.142755 141.383457 
L 93.405614 133.893923 
L 95.037044 130.833683 
L 96.668474 125.760128 
L 99.931334 118.673257 
L 101.562764 115.69355 
L 103.194194 114.566093 
L 104.825624 111.183723 
L 106.457053 108.687212 
L 108.088483 105.063244 
L 109.719913 100.95608 
L 111.351343 98.862232 
L 112.982773 95.318796 
L 114.614203 93.466546 
L 116.245633 90.003643 
L 117.877063 86.862871 
L 119.508492 84.044229 
L 121.139922 82.514109 
L 122.771352 80.420261 
L 126.034212 75.18564 
L 127.665642 74.299782 
L 129.297072 70.675814 
L 130.928502 69.387292 
L 132.559931 66.085454 
L 134.191361 64.957997 
L 137.454221 62.944682 
L 139.085651 61.011899 
L 140.717081 60.44817 
L 142.348511 60.287105 
L 143.979941 59.320714 
L 145.61137 58.756985 
L 147.2428 59.159648 
L 148.87423 57.548996 
L 150.50566 57.629529 
L 152.13709 56.018876 
L 153.76852 53.441832 
L 155.39995 51.750647 
L 157.03138 50.784256 
L 158.66281 51.911712 
L 160.294239 50.139995 
L 161.925669 50.220527 
L 163.557099 49.173603 
L 165.188529 48.609875 
L 166.819959 46.838157 
L 168.451389 44.180581 
L 170.082819 43.85845 
L 171.714249 43.697385 
L 173.345678 44.985907 
L 174.977108 43.375254 
L 176.608538 43.375254 
L 179.871398 43.053124 
L 181.502828 41.925667 
L 183.134258 41.925667 
L 184.765688 43.53632 
L 186.397117 42.0062 
L 188.028547 42.247798 
L 189.659977 41.361939 
L 191.291407 41.120341 
L 192.922837 42.086732 
L 194.554267 40.79821 
L 196.185697 39.912352 
L 197.817127 40.959276 
L 199.448556 38.94596 
L 201.079986 38.301699 
L 202.711416 37.09371 
L 204.342846 36.529981 
L 205.974276 35.56359 
L 207.605706 35.966253 
L 209.237136 35.402525 
L 210.868566 34.03347 
L 212.499995 34.758264 
L 214.131425 33.550274 
L 215.762855 33.389209 
L 217.394285 34.275068 
L 219.025715 32.583883 
L 220.657145 32.583883 
L 223.920005 32.906013 
L 225.551434 31.617491 
L 227.182864 31.778557 
L 228.814294 31.214828 
L 232.077154 31.214828 
L 233.708584 32.422818 
L 235.340014 29.765241 
L 236.971444 30.167904 
L 238.602873 31.859089 
L 240.234303 32.825481 
L 241.865733 29.362578 
L 243.497163 29.523643 
L 245.128593 27.993523 
L 246.760023 26.866067 
L 248.391453 24.530621 
L 250.022883 25.174881 
L 251.654312 25.174881 
L 253.285742 26.382871 
L 254.917172 25.980208 
L 256.548602 26.624469 
L 258.180032 25.658077 
L 259.811462 27.26873 
L 261.442892 26.06074 
L 263.074322 25.577545 
L 266.337181 24.369555 
L 267.968611 23.000501 
L 271.231471 22.195174 
L 272.862901 22.034109 
L 274.494331 22.35624 
L 276.125761 21.550913 
L 277.75719 21.470381 
L 279.38862 20.342924 
L 281.02005 20.503989 
L 282.65148 19.779196 
L 284.28291 20.342924 
L 285.91434 21.711979 
L 287.54577 22.919968 
L 289.1772 22.839435 
L 290.80863 21.873044 
L 292.440059 23.000501 
L 294.071489 22.517305 
L 295.702919 24.047425 
L 297.334349 26.06074 
L 298.965779 24.852751 
L 300.597209 24.691686 
L 302.228639 24.772218 
L 303.860069 24.611153 
L 305.491498 23.242099 
L 307.122928 20.906652 
L 308.754358 21.309316 
L 310.385788 20.906652 
L 312.017218 21.309316 
L 315.280078 21.470381 
L 316.911508 21.389848 
L 318.542937 21.711979 
L 320.174367 22.597838 
L 321.805797 22.114642 
L 323.437227 21.792511 
L 325.068657 20.020794 
L 326.700087 22.034109 
L 328.331517 22.275707 
L 329.962947 22.35624 
L 331.594376 20.906652 
L 333.225806 21.067718 
L 334.857236 19.779196 
L 336.488666 19.296 
L 338.120096 21.309316 
L 339.751526 21.389848 
L 341.382956 19.940261 
L 343.014386 21.309316 
L 344.645815 22.839435 
L 346.277245 22.195174 
L 347.908675 21.873044 
L 349.540105 20.423457 
L 351.171535 20.987185 
L 352.802965 21.792511 
L 354.434395 21.14825 
L 356.065825 22.195174 
L 357.697254 21.792511 
L 359.328684 19.779196 
L 360.960114 22.35624 
L 362.591544 22.919968 
L 364.222974 23.081033 
L 365.854404 24.20849 
L 367.485834 25.174881 
L 369.117264 24.852751 
L 370.748693 25.658077 
L 372.380123 26.06074 
L 374.011553 25.73861 
L 375.642983 25.174881 
L 377.274413 25.899675 
L 378.905843 25.094349 
L 380.537273 22.597838 
L 380.537273 22.597838 
" clip-path="url(#p5bec4b7f1f)" style="fill: none; stroke: #2ca02c; stroke-width: 1.5; stroke-linecap: square"/>
   </g>
   <g id="line2d_20">
    <path d="M 55.882727 261.216 
L 57.514157 261.216 
L 59.145587 260.571739 
L 60.777017 259.605348 
L 62.408447 258.961087 
L 64.039877 257.350434 
L 67.302736 254.853923 
L 68.934166 253.565401 
L 70.565596 251.632618 
L 72.197026 250.344096 
L 73.828456 248.652911 
L 75.459886 246.559063 
L 77.091316 245.351073 
L 78.722746 243.820953 
L 80.354175 241.727105 
L 81.985605 240.841246 
L 83.617035 238.18367 
L 85.248465 236.895148 
L 86.879895 235.365028 
L 88.511325 233.029582 
L 90.142755 231.579995 
L 91.774185 230.291473 
L 93.405614 227.392298 
L 95.037044 225.781646 
L 96.668474 223.4462 
L 99.931334 221.271819 
L 101.562764 218.694775 
L 103.194194 215.795601 
L 104.825624 213.62122 
L 106.457053 210.963643 
L 108.088483 207.903403 
L 109.719913 206.775947 
L 111.351343 204.843164 
L 112.982773 204.279435 
L 114.614203 202.185587 
L 116.245633 201.138663 
L 117.877063 198.722684 
L 119.508492 197.112032 
L 121.139922 195.259782 
L 124.402782 193.004868 
L 126.034212 191.152618 
L 127.665642 187.931313 
L 129.297072 187.609182 
L 130.928502 185.112671 
L 132.559931 184.307345 
L 134.191361 183.260421 
L 135.822791 183.018823 
L 137.454221 181.166573 
L 139.085651 179.636453 
L 142.348511 178.911659 
L 145.61137 177.059409 
L 147.2428 175.931952 
L 148.87423 175.046093 
L 150.50566 172.066386 
L 152.13709 169.73094 
L 153.76852 168.442418 
L 155.39995 167.959222 
L 157.03138 168.039755 
L 158.66281 165.221113 
L 160.294239 164.254722 
L 161.925669 162.483004 
L 163.557099 161.919276 
L 165.188529 160.469688 
L 166.819959 160.067025 
L 168.451389 160.711286 
L 170.082819 158.859036 
L 171.714249 158.37584 
L 173.345678 156.201459 
L 174.977108 158.37584 
L 176.608538 158.939569 
L 178.239968 157.812112 
L 179.871398 158.05371 
L 181.502828 157.087318 
L 183.134258 156.926253 
L 184.765688 156.120927 
L 186.397117 155.959862 
L 188.028547 154.027079 
L 189.659977 153.946546 
L 191.291407 153.221752 
L 192.922837 151.772165 
L 194.554267 152.013763 
L 196.185697 151.530567 
L 197.817127 151.288969 
L 199.448556 152.335893 
L 201.079986 152.819089 
L 202.711416 151.691632 
L 204.342846 151.530567 
L 207.605706 150.322578 
L 209.237136 149.114589 
L 210.868566 148.631393 
L 212.499995 147.906599 
L 215.762855 150.242045 
L 217.394285 151.369502 
L 219.025715 151.208437 
L 220.657145 151.93323 
L 222.288575 152.335893 
L 223.920005 152.335893 
L 225.551434 152.819089 
L 227.182864 152.980154 
L 228.814294 152.658024 
L 230.445724 151.6111 
L 232.077154 150.725241 
L 233.708584 150.000447 
L 235.340014 149.839382 
L 236.971444 149.919915 
L 238.602873 148.22873 
L 240.234303 147.503936 
L 241.865733 149.114589 
L 243.497163 148.711925 
L 245.128593 149.195121 
L 246.760023 150.725241 
L 248.391453 153.624415 
L 250.022883 152.013763 
L 251.654312 151.772165 
L 253.285742 150.403111 
L 254.917172 151.6111 
L 256.548602 150.725241 
L 258.180032 151.6111 
L 259.811462 149.839382 
L 261.442892 151.047372 
L 263.074322 150.322578 
L 264.705751 151.6111 
L 266.337181 151.450035 
L 267.968611 153.543883 
L 269.600041 151.450035 
L 271.231471 149.919915 
L 274.494331 149.356186 
L 276.125761 148.067664 
L 277.75719 147.826067 
L 279.38862 148.55086 
L 281.02005 147.745534 
L 282.65148 146.054349 
L 284.28291 144.202099 
L 285.91434 144.202099 
L 287.54577 143.074642 
L 289.1772 144.041033 
L 290.80863 142.994109 
L 292.440059 139.692272 
L 294.071489 140.980794 
L 295.702919 141.061326 
L 297.334349 139.531206 
L 298.965779 139.93387 
L 300.597209 138.72588 
L 302.228639 139.289609 
L 303.860069 139.128543 
L 305.491498 139.692272 
L 307.122928 143.396772 
L 308.754358 143.074642 
L 312.017218 144.282631 
L 313.648648 144.765827 
L 315.280078 145.087957 
L 316.911508 144.84636 
L 318.542937 145.973816 
L 320.174367 145.007425 
L 321.805797 145.973816 
L 323.437227 144.926892 
L 325.068657 146.215414 
L 326.700087 144.685294 
L 328.331517 145.571153 
L 329.962947 145.571153 
L 331.594376 146.134881 
L 333.225806 146.134881 
L 334.857236 147.262338 
L 336.488666 147.826067 
L 338.120096 148.148197 
L 339.751526 147.826067 
L 341.382956 148.792458 
L 343.014386 147.584469 
L 344.645815 147.906599 
L 346.277245 146.134881 
L 349.540105 145.732218 
L 351.171535 146.457012 
L 352.802965 144.604762 
L 354.434395 141.705587 
L 356.065825 142.752511 
L 360.960114 145.249023 
L 362.591544 145.732218 
L 364.222974 146.779142 
L 365.854404 144.685294 
L 367.485834 144.121566 
L 369.117264 142.913577 
L 370.748693 142.994109 
L 374.011553 144.041033 
L 375.642983 144.121566 
L 377.274413 143.235707 
L 378.905843 143.799435 
L 380.537273 145.571153 
L 380.537273 145.571153 
" clip-path="url(#p5bec4b7f1f)" style="fill: none; stroke: #d62728; stroke-width: 1.5; stroke-linecap: square"/>
   </g>
   <g id="patch_3">
    <path d="M 39.65 273.312 
L 39.65 7.2 
" style="fill: none; stroke: #000000; stroke-width: 0.8; stroke-linejoin: miter; stroke-linecap: square"/>
   </g>
   <g id="patch_4">
    <path d="M 396.77 273.312 
L 396.77 7.2 
" style="fill: none; stroke: #000000; stroke-width: 0.8; stroke-linejoin: miter; stroke-linecap: square"/>
   </g>
   <g id="patch_5">
    <path d="M 39.65 273.312 
L 396.77 273.312 
" style="fill: none; stroke: #000000; stroke-width: 0.8; stroke-linejoin: miter; stroke-linecap: square"/>
   </g>
   <g id="patch_6">
    <path d="M 39.65 7.2 
L 396.77 7.2 
" style="fill: none; stroke: #000000; stroke-width: 0.8; stroke-linejoin: miter; stroke-linecap: square"/>
   </g>
  </g>
 </g>
 <defs>
  <clipPath id="p5bec4b7f1f">
   <rect x="39.65" y="7.2" width="357.12" height="266.112"/>
  </clipPath>
 </defs>
</svg>
