<?xml version="1.0" encoding="utf-8" standalone="no"?>
<!DOCTYPE svg PUBLIC "-//W3C//DTD SVG 1.1//EN"
  "http://www.w3.org/Graphics/SVG/1.1/DTD/svg11.dtd">
<svg xmlns:xlink="http://www.w3.org/1999/xlink" width="403.97pt" height="297.190125pt" viewBox="0 0 403.97 297.190125" xmlns="http://www.w3.org/2000/svg" version="1.1">
 <metadata>
  <rdf:RDF xmlns:dc="http://purl.org/dc/elements/1.1/" xmlns:cc="http://creativecommons.org/ns#" xmlns:rdf="http://www.w3.org/1999/02/22-rdf-syntax-ns#">
   <cc:Work>
    <dc:type rdf:resource="http://purl.org/dc/dcmitype/StillImage"/>
    <dc:date>2024-04-05T01:28:08.740648</dc:date>
    <dc:format>image/svg+xml</dc:format>
    <dc:creator>
     <cc:Agent>
      <dc:title>Matplotlib v3.8.4, https://matplotlib.org/</dc:title>
     </cc:Agent>
    </dc:creator>
   </cc:Work>
  </rdf:RDF>
 </metadata>
 <defs>
  <style type="text/css">*{stroke-linejoin: round; stroke-linecap: butt}</style>
 </defs>
 <g id="figure_1">
  <g id="patch_1">
   <path d="M 0 297.190125 
L 403.97 297.190125 
L 403.97 0 
L 0 0 
z
" style="fill: #ffffff"/>
  </g>
  <g id="axes_1">
   <g id="patch_2">
    <path d="M 39.65 273.312 
L 396.77 273.312 
L 396.77 7.2 
L 39.65 7.2 
z
" style="fill: #ffffff"/>
   </g>
   <g id="matplotlib.axis_1">
    <g id="xtick_1">
     <g id="line2d_1">
      <defs>
       <path id="m68ad634723" d="M 0 0 
L 0 3.5 
" style="stroke: #000000; stroke-width: 0.8"/>
      </defs>
      <g>
       <use xlink:href="#m68ad634723" x="55.882727" y="273.312" style="stroke: #000000; stroke-width: 0.8"/>
      </g>
     </g>
     <g id="text_1">
      <!-- 0.0 -->
      <g transform="translate(47.931165 287.910437) scale(0.1 -0.1)">
       <defs>
        <path id="DejaVuSans-30" d="M 2034 4250 
Q 1547 4250 1301 3770 
Q 1056 3291 1056 2328 
Q 1056 1369 1301 889 
Q 1547 409 2034 409 
Q 2525 409 2770 889 
Q 3016 1369 3016 2328 
Q 3016 3291 2770 3770 
Q 2525 4250 2034 4250 
z
M 2034 4750 
Q 2819 4750 3233 4129 
Q 3647 3509 3647 2328 
Q 3647 1150 3233 529 
Q 2819 -91 2034 -91 
Q 1250 -91 836 529 
Q 422 1150 422 2328 
Q 422 3509 836 4129 
Q 1250 4750 2034 4750 
z
" transform="scale(0.015625)"/>
        <path id="DejaVuSans-2e" d="M 684 794 
L 1344 794 
L 1344 0 
L 684 0 
L 684 794 
z
" transform="scale(0.015625)"/>
       </defs>
       <use xlink:href="#DejaVuSans-30"/>
       <use xlink:href="#DejaVuSans-2e" x="63.623047"/>
       <use xlink:href="#DejaVuSans-30" x="95.410156"/>
      </g>
     </g>
    </g>
    <g id="xtick_2">
     <g id="line2d_2">
      <g>
       <use xlink:href="#m68ad634723" x="96.668474" y="273.312" style="stroke: #000000; stroke-width: 0.8"/>
      </g>
     </g>
     <g id="text_2">
      <!-- 2.5 -->
      <g transform="translate(88.716912 287.910437) scale(0.1 -0.1)">
       <defs>
        <path id="DejaVuSans-32" d="M 1228 531 
L 3431 531 
L 3431 0 
L 469 0 
L 469 531 
Q 828 903 1448 1529 
Q 2069 2156 2228 2338 
Q 2531 2678 2651 2914 
Q 2772 3150 2772 3378 
Q 2772 3750 2511 3984 
Q 2250 4219 1831 4219 
Q 1534 4219 1204 4116 
Q 875 4013 500 3803 
L 500 4441 
Q 881 4594 1212 4672 
Q 1544 4750 1819 4750 
Q 2544 4750 2975 4387 
Q 3406 4025 3406 3419 
Q 3406 3131 3298 2873 
Q 3191 2616 2906 2266 
Q 2828 2175 2409 1742 
Q 1991 1309 1228 531 
z
" transform="scale(0.015625)"/>
        <path id="DejaVuSans-35" d="M 691 4666 
L 3169 4666 
L 3169 4134 
L 1269 4134 
L 1269 2991 
Q 1406 3038 1543 3061 
Q 1681 3084 1819 3084 
Q 2600 3084 3056 2656 
Q 3513 2228 3513 1497 
Q 3513 744 3044 326 
Q 2575 -91 1722 -91 
Q 1428 -91 1123 -41 
Q 819 9 494 109 
L 494 744 
Q 775 591 1075 516 
Q 1375 441 1709 441 
Q 2250 441 2565 725 
Q 2881 1009 2881 1497 
Q 2881 1984 2565 2268 
Q 2250 2553 1709 2553 
Q 1456 2553 1204 2497 
Q 953 2441 691 2322 
L 691 4666 
z
" transform="scale(0.015625)"/>
       </defs>
       <use xlink:href="#DejaVuSans-32"/>
       <use xlink:href="#DejaVuSans-2e" x="63.623047"/>
       <use xlink:href="#DejaVuSans-35" x="95.410156"/>
      </g>
     </g>
    </g>
    <g id="xtick_3">
     <g id="line2d_3">
      <g>
       <use xlink:href="#m68ad634723" x="137.454221" y="273.312" style="stroke: #000000; stroke-width: 0.8"/>
      </g>
     </g>
     <g id="text_3">
      <!-- 5.0 -->
      <g transform="translate(129.502659 287.910437) scale(0.1 -0.1)">
       <use xlink:href="#DejaVuSans-35"/>
       <use xlink:href="#DejaVuSans-2e" x="63.623047"/>
       <use xlink:href="#DejaVuSans-30" x="95.410156"/>
      </g>
     </g>
    </g>
    <g id="xtick_4">
     <g id="line2d_4">
      <g>
       <use xlink:href="#m68ad634723" x="178.239968" y="273.312" style="stroke: #000000; stroke-width: 0.8"/>
      </g>
     </g>
     <g id="text_4">
      <!-- 7.5 -->
      <g transform="translate(170.288406 287.910437) scale(0.1 -0.1)">
       <defs>
        <path id="DejaVuSans-37" d="M 525 4666 
L 3525 4666 
L 3525 4397 
L 1831 0 
L 1172 0 
L 2766 4134 
L 525 4134 
L 525 4666 
z
" transform="scale(0.015625)"/>
       </defs>
       <use xlink:href="#DejaVuSans-37"/>
       <use xlink:href="#DejaVuSans-2e" x="63.623047"/>
       <use xlink:href="#DejaVuSans-35" x="95.410156"/>
      </g>
     </g>
    </g>
    <g id="xtick_5">
     <g id="line2d_5">
      <g>
       <use xlink:href="#m68ad634723" x="219.025715" y="273.312" style="stroke: #000000; stroke-width: 0.8"/>
      </g>
     </g>
     <g id="text_5">
      <!-- 10.0 -->
      <g transform="translate(207.892902 287.910437) scale(0.1 -0.1)">
       <defs>
        <path id="DejaVuSans-31" d="M 794 531 
L 1825 531 
L 1825 4091 
L 703 3866 
L 703 4441 
L 1819 4666 
L 2450 4666 
L 2450 531 
L 3481 531 
L 3481 0 
L 794 0 
L 794 531 
z
" transform="scale(0.015625)"/>
       </defs>
       <use xlink:href="#DejaVuSans-31"/>
       <use xlink:href="#DejaVuSans-30" x="63.623047"/>
       <use xlink:href="#DejaVuSans-2e" x="127.246094"/>
       <use xlink:href="#DejaVuSans-30" x="159.033203"/>
      </g>
     </g>
    </g>
    <g id="xtick_6">
     <g id="line2d_6">
      <g>
       <use xlink:href="#m68ad634723" x="259.811462" y="273.312" style="stroke: #000000; stroke-width: 0.8"/>
      </g>
     </g>
     <g id="text_6">
      <!-- 12.5 -->
      <g transform="translate(248.678649 287.910437) scale(0.1 -0.1)">
       <use xlink:href="#DejaVuSans-31"/>
       <use xlink:href="#DejaVuSans-32" x="63.623047"/>
       <use xlink:href="#DejaVuSans-2e" x="127.246094"/>
       <use xlink:href="#DejaVuSans-35" x="159.033203"/>
      </g>
     </g>
    </g>
    <g id="xtick_7">
     <g id="line2d_7">
      <g>
       <use xlink:href="#m68ad634723" x="300.597209" y="273.312" style="stroke: #000000; stroke-width: 0.8"/>
      </g>
     </g>
     <g id="text_7">
      <!-- 15.0 -->
      <g transform="translate(289.464396 287.910437) scale(0.1 -0.1)">
       <use xlink:href="#DejaVuSans-31"/>
       <use xlink:href="#DejaVuSans-35" x="63.623047"/>
       <use xlink:href="#DejaVuSans-2e" x="127.246094"/>
       <use xlink:href="#DejaVuSans-30" x="159.033203"/>
      </g>
     </g>
    </g>
    <g id="xtick_8">
     <g id="line2d_8">
      <g>
       <use xlink:href="#m68ad634723" x="341.382956" y="273.312" style="stroke: #000000; stroke-width: 0.8"/>
      </g>
     </g>
     <g id="text_8">
      <!-- 17.5 -->
      <g transform="translate(330.250143 287.910437) scale(0.1 -0.1)">
       <use xlink:href="#DejaVuSans-31"/>
       <use xlink:href="#DejaVuSans-37" x="63.623047"/>
       <use xlink:href="#DejaVuSans-2e" x="127.246094"/>
       <use xlink:href="#DejaVuSans-35" x="159.033203"/>
      </g>
     </g>
    </g>
    <g id="xtick_9">
     <g id="line2d_9">
      <g>
       <use xlink:href="#m68ad634723" x="382.168703" y="273.312" style="stroke: #000000; stroke-width: 0.8"/>
      </g>
     </g>
     <g id="text_9">
      <!-- 20.0 -->
      <g transform="translate(371.03589 287.910437) scale(0.1 -0.1)">
       <use xlink:href="#DejaVuSans-32"/>
       <use xlink:href="#DejaVuSans-30" x="63.623047"/>
       <use xlink:href="#DejaVuSans-2e" x="127.246094"/>
       <use xlink:href="#DejaVuSans-30" x="159.033203"/>
      </g>
     </g>
    </g>
   </g>
   <g id="matplotlib.axis_2">
    <g id="ytick_1">
     <g id="line2d_10">
      <defs>
       <path id="mebc56411c9" d="M 0 0 
L -3.5 0 
" style="stroke: #000000; stroke-width: 0.8"/>
      </defs>
      <g>
       <use xlink:href="#mebc56411c9" x="39.65" y="261.216" style="stroke: #000000; stroke-width: 0.8"/>
      </g>
     </g>
     <g id="text_10">
      <!-- 0 -->
      <g transform="translate(26.2875 265.015219) scale(0.1 -0.1)">
       <use xlink:href="#DejaVuSans-30"/>
      </g>
     </g>
    </g>
    <g id="ytick_2">
     <g id="line2d_11">
      <g>
       <use xlink:href="#mebc56411c9" x="39.65" y="222.455389" style="stroke: #000000; stroke-width: 0.8"/>
      </g>
     </g>
     <g id="text_11">
      <!-- 500 -->
      <g transform="translate(13.5625 226.254608) scale(0.1 -0.1)">
       <use xlink:href="#DejaVuSans-35"/>
       <use xlink:href="#DejaVuSans-30" x="63.623047"/>
       <use xlink:href="#DejaVuSans-30" x="127.246094"/>
      </g>
     </g>
    </g>
    <g id="ytick_3">
     <g id="line2d_12">
      <g>
       <use xlink:href="#mebc56411c9" x="39.65" y="183.694778" style="stroke: #000000; stroke-width: 0.8"/>
      </g>
     </g>
     <g id="text_12">
      <!-- 1000 -->
      <g transform="translate(7.2 187.493997) scale(0.1 -0.1)">
       <use xlink:href="#DejaVuSans-31"/>
       <use xlink:href="#DejaVuSans-30" x="63.623047"/>
       <use xlink:href="#DejaVuSans-30" x="127.246094"/>
       <use xlink:href="#DejaVuSans-30" x="190.869141"/>
      </g>
     </g>
    </g>
    <g id="ytick_4">
     <g id="line2d_13">
      <g>
       <use xlink:href="#mebc56411c9" x="39.65" y="144.934168" style="stroke: #000000; stroke-width: 0.8"/>
      </g>
     </g>
     <g id="text_13">
      <!-- 1500 -->
      <g transform="translate(7.2 148.733386) scale(0.1 -0.1)">
       <use xlink:href="#DejaVuSans-31"/>
       <use xlink:href="#DejaVuSans-35" x="63.623047"/>
       <use xlink:href="#DejaVuSans-30" x="127.246094"/>
       <use xlink:href="#DejaVuSans-30" x="190.869141"/>
      </g>
     </g>
    </g>
    <g id="ytick_5">
     <g id="line2d_14">
      <g>
       <use xlink:href="#mebc56411c9" x="39.65" y="106.173557" style="stroke: #000000; stroke-width: 0.8"/>
      </g>
     </g>
     <g id="text_14">
      <!-- 2000 -->
      <g transform="translate(7.2 109.972776) scale(0.1 -0.1)">
       <use xlink:href="#DejaVuSans-32"/>
       <use xlink:href="#DejaVuSans-30" x="63.623047"/>
       <use xlink:href="#DejaVuSans-30" x="127.246094"/>
       <use xlink:href="#DejaVuSans-30" x="190.869141"/>
      </g>
     </g>
    </g>
    <g id="ytick_6">
     <g id="line2d_15">
      <g>
       <use xlink:href="#mebc56411c9" x="39.65" y="67.412946" style="stroke: #000000; stroke-width: 0.8"/>
      </g>
     </g>
     <g id="text_15">
      <!-- 2500 -->
      <g transform="translate(7.2 71.212165) scale(0.1 -0.1)">
       <use xlink:href="#DejaVuSans-32"/>
       <use xlink:href="#DejaVuSans-35" x="63.623047"/>
       <use xlink:href="#DejaVuSans-30" x="127.246094"/>
       <use xlink:href="#DejaVuSans-30" x="190.869141"/>
      </g>
     </g>
    </g>
    <g id="ytick_7">
     <g id="line2d_16">
      <g>
       <use xlink:href="#mebc56411c9" x="39.65" y="28.652335" style="stroke: #000000; stroke-width: 0.8"/>
      </g>
     </g>
     <g id="text_16">
      <!-- 3000 -->
      <g transform="translate(7.2 32.451554) scale(0.1 -0.1)">
       <defs>
        <path id="DejaVuSans-33" d="M 2597 2516 
Q 3050 2419 3304 2112 
Q 3559 1806 3559 1356 
Q 3559 666 3084 287 
Q 2609 -91 1734 -91 
Q 1441 -91 1130 -33 
Q 819 25 488 141 
L 488 750 
Q 750 597 1062 519 
Q 1375 441 1716 441 
Q 2309 441 2620 675 
Q 2931 909 2931 1356 
Q 2931 1769 2642 2001 
Q 2353 2234 1838 2234 
L 1294 2234 
L 1294 2753 
L 1863 2753 
Q 2328 2753 2575 2939 
Q 2822 3125 2822 3475 
Q 2822 3834 2567 4026 
Q 2313 4219 1838 4219 
Q 1578 4219 1281 4162 
Q 984 4106 628 3988 
L 628 4550 
Q 988 4650 1302 4700 
Q 1616 4750 1894 4750 
Q 2613 4750 3031 4423 
Q 3450 4097 3450 3541 
Q 3450 3153 3228 2886 
Q 3006 2619 2597 2516 
z
" transform="scale(0.015625)"/>
       </defs>
       <use xlink:href="#DejaVuSans-33"/>
       <use xlink:href="#DejaVuSans-30" x="63.623047"/>
       <use xlink:href="#DejaVuSans-30" x="127.246094"/>
       <use xlink:href="#DejaVuSans-30" x="190.869141"/>
      </g>
     </g>
    </g>
   </g>
   <g id="line2d_17">
    <path d="M 55.882727 261.216 
L 59.961302 241.835695 
L 64.039877 224.005814 
L 68.118451 207.602323 
L 72.197026 192.511112 
L 76.275601 178.627198 
L 80.354175 165.853996 
L 84.43275 154.102651 
L 88.511325 143.291414 
L 92.589899 133.345075 
L 96.668474 124.194444 
L 100.747049 115.775863 
L 104.825624 108.030769 
L 108.904198 100.905282 
L 112.982773 94.349834 
L 117.061348 88.318822 
L 121.139922 82.770291 
L 125.218497 77.665642 
L 129.297072 72.969365 
L 133.375646 68.648791 
L 137.454221 64.673862 
L 141.532796 61.016928 
L 145.61137 57.652548 
L 149.689945 54.557319 
L 153.76852 51.709708 
L 157.847095 49.089906 
L 161.925669 46.679688 
L 166.004244 44.462288 
L 170.082819 42.422279 
L 174.161393 40.545471 
L 178.239968 38.818808 
L 182.318543 37.230278 
L 186.397117 35.768831 
L 190.475692 34.424299 
L 194.554267 33.187329 
L 198.632841 32.049318 
L 202.711416 31.002347 
L 206.789991 30.039134 
L 210.868566 29.152978 
L 214.94714 28.337714 
L 219.025715 27.587672 
L 223.10429 26.897632 
L 227.182864 26.262796 
L 231.261439 25.678747 
L 235.340014 25.141422 
L 239.418588 24.647083 
L 243.497163 24.192291 
L 247.575738 23.773882 
L 251.654312 23.388946 
L 255.732887 23.034805 
L 259.811462 22.708995 
L 263.890037 22.40925 
L 267.968611 22.133485 
L 272.047186 21.879781 
L 276.125761 21.646373 
L 280.204335 21.431638 
L 284.28291 21.234081 
L 288.361485 21.052329 
L 292.440059 20.885118 
L 296.518634 20.731283 
L 300.597209 20.589755 
L 304.675783 20.459549 
L 308.754358 20.33976 
L 312.832933 20.229554 
L 316.911508 20.128164 
L 320.990082 20.034885 
L 325.068657 19.949069 
L 329.147232 19.870118 
L 333.225806 19.797483 
L 337.304381 19.730659 
L 341.382956 19.669181 
L 345.46153 19.612621 
L 349.540105 19.560586 
L 353.61868 19.512714 
L 357.697254 19.468671 
L 361.775829 19.428152 
L 365.854404 19.390875 
L 369.932979 19.356579 
L 374.011553 19.325028 
L 378.090128 19.296 
" clip-path="url(#p826f153790)" style="fill: none; stroke: #1f77b4; stroke-width: 1.5; stroke-linecap: square"/>
   </g>
   <g id="line2d_18">
    <path d="M 55.882727 261.216 
L 59.961302 261.216 
L 64.039877 259.665576 
L 68.118451 256.926751 
L 72.197026 253.296056 
L 76.275601 249.015377 
L 80.354175 244.281068 
L 84.43275 239.25162 
L 88.511325 234.054084 
L 92.589899 228.789472 
L 96.668474 223.53727 
L 100.747049 218.35923 
L 104.825624 213.302533 
L 108.904198 208.402432 
L 112.982773 203.684457 
L 117.061348 199.166256 
L 121.139922 194.859117 
L 125.218497 190.769242 
L 129.297072 186.898791 
L 133.375646 183.246752 
L 137.454221 179.809654 
L 141.532796 176.582157 
L 145.61137 173.557526 
L 149.689945 170.728026 
L 153.76852 168.085235 
L 157.847095 165.620304 
L 161.925669 163.324156 
L 166.004244 161.187649 
L 170.082819 159.201704 
L 174.161393 157.357401 
L 178.239968 155.646054 
L 182.318543 154.059265 
L 186.397117 152.588966 
L 190.475692 151.227442 
L 194.554267 149.96735 
L 198.632841 148.801724 
L 202.711416 147.723981 
L 206.789991 146.727913 
L 210.868566 145.807685 
L 214.94714 144.95782 
L 219.025715 144.173188 
L 223.10429 143.448993 
L 227.182864 142.780759 
L 231.261439 142.164312 
L 235.340014 141.595766 
L 239.418588 141.071506 
L 243.497163 140.588172 
L 247.575738 140.142647 
L 251.654312 139.732037 
L 255.732887 139.353661 
L 259.811462 139.005035 
L 263.890037 138.683858 
L 267.968611 138.388001 
L 272.047186 138.115498 
L 276.125761 137.864528 
L 280.204335 137.633408 
L 284.28291 137.420587 
L 288.361485 137.22463 
L 292.440059 137.044211 
L 296.518634 136.87811 
L 300.597209 136.725199 
L 304.675783 136.584437 
L 308.754358 136.454866 
L 312.832933 136.335601 
L 316.911508 136.225826 
L 320.990082 136.124791 
L 325.068657 136.031803 
L 329.147232 135.946222 
L 333.225806 135.867463 
L 337.304381 135.794982 
L 341.382956 135.728281 
L 345.46153 135.6669 
L 349.540105 135.610417 
L 353.61868 135.558441 
L 357.697254 135.510613 
L 361.775829 135.466604 
L 365.854404 135.426108 
L 369.932979 135.388847 
L 374.011553 135.354561 
L 378.090128 135.323014 
" clip-path="url(#p826f153790)" style="fill: none; stroke: #ff7f0e; stroke-width: 1.5; stroke-linecap: square"/>
   </g>
   <g id="line2d_19">
    <path d="M 55.882727 261.216 
L 59.145587 246.021841 
L 62.408447 231.447851 
L 64.039877 225.866323 
L 68.934166 206.330975 
L 70.565596 201.137053 
L 72.197026 195.555525 
L 73.828456 190.439125 
L 75.459886 185.71033 
L 77.091316 180.516408 
L 80.354175 169.508395 
L 83.617035 162.376442 
L 85.248465 157.260042 
L 88.511325 151.44595 
L 90.142755 145.864422 
L 93.405614 138.654949 
L 95.037044 135.709142 
L 96.668474 130.825305 
L 99.931334 124.003438 
L 101.562764 121.135153 
L 103.194194 120.049856 
L 104.825624 116.793964 
L 106.457053 114.390806 
L 108.088483 110.902351 
L 109.719913 106.948769 
L 111.351343 104.933217 
L 112.982773 101.522284 
L 114.614203 99.739295 
L 116.245633 96.405883 
L 117.877063 93.382555 
L 119.508492 90.669313 
L 121.139922 89.196409 
L 122.771352 87.180858 
L 126.034212 82.141978 
L 127.665642 81.289245 
L 129.297072 77.80079 
L 130.928502 76.56045 
L 132.559931 73.38208 
L 134.191361 72.296783 
L 137.454221 70.358752 
L 139.085651 68.498243 
L 140.717081 67.955595 
L 142.348511 67.800552 
L 143.979941 66.870298 
L 145.61137 66.327649 
L 147.2428 66.715255 
L 148.87423 65.164831 
L 150.50566 65.242352 
L 152.13709 63.691927 
L 153.76852 61.211248 
L 155.39995 59.583303 
L 157.03138 58.653048 
L 158.66281 59.738345 
L 160.294239 58.032878 
L 161.925669 58.110399 
L 163.557099 57.102624 
L 165.188529 56.559975 
L 166.819959 54.854508 
L 168.451389 52.296308 
L 170.082819 51.986223 
L 171.714249 51.831181 
L 173.345678 53.07152 
L 174.977108 51.521096 
L 176.608538 51.521096 
L 179.871398 51.211011 
L 181.502828 50.125714 
L 183.134258 50.125714 
L 184.765688 51.676138 
L 186.397117 50.203235 
L 188.028547 50.435799 
L 189.659977 49.583065 
L 191.291407 49.350501 
L 192.922837 50.280756 
L 194.554267 49.040417 
L 196.185697 48.187683 
L 197.817127 49.195459 
L 199.448556 47.257428 
L 201.079986 46.637259 
L 202.711416 45.47444 
L 204.342846 44.931792 
L 205.974276 44.001537 
L 207.605706 44.389143 
L 209.237136 43.846495 
L 210.868566 42.528634 
L 212.499995 43.226325 
L 214.131425 42.063507 
L 215.762855 41.908464 
L 217.394285 42.761198 
L 219.025715 41.133252 
L 220.657145 41.133252 
L 223.920005 41.443337 
L 225.551434 40.202997 
L 227.182864 40.35804 
L 228.814294 39.815391 
L 232.077154 39.815391 
L 233.708584 40.97821 
L 235.340014 38.420009 
L 236.971444 38.807615 
L 238.602873 40.435561 
L 240.234303 41.365816 
L 241.865733 38.032403 
L 243.497163 38.187446 
L 245.128593 36.714542 
L 246.760023 35.629245 
L 248.391453 33.38113 
L 250.022883 34.0013 
L 251.654312 34.0013 
L 253.285742 35.164118 
L 254.917172 34.776512 
L 256.548602 35.396682 
L 258.180032 34.466427 
L 259.811462 36.016851 
L 261.442892 34.854033 
L 263.074322 34.388906 
L 266.337181 33.226087 
L 267.968611 31.908227 
L 271.231471 31.133014 
L 272.862901 30.977972 
L 274.494331 31.288057 
L 276.125761 30.512845 
L 277.75719 30.435323 
L 279.38862 29.350026 
L 281.02005 29.505069 
L 282.65148 28.807378 
L 284.28291 29.350026 
L 285.91434 30.667887 
L 287.54577 31.830705 
L 289.1772 31.753184 
L 290.80863 30.822929 
L 292.440059 31.908227 
L 294.071489 31.443099 
L 295.702919 32.916002 
L 297.334349 34.854033 
L 298.965779 33.691215 
L 300.597209 33.536172 
L 302.228639 33.613693 
L 303.860069 33.458651 
L 305.491498 32.14079 
L 307.122928 29.892675 
L 308.754358 30.280281 
L 310.385788 29.892675 
L 312.017218 30.280281 
L 315.280078 30.435323 
L 316.911508 30.357802 
L 318.542937 30.667887 
L 320.174367 31.52062 
L 321.805797 31.055493 
L 323.437227 30.745408 
L 325.068657 29.039941 
L 326.700087 30.977972 
L 328.331517 31.210536 
L 329.962947 31.288057 
L 331.594376 29.892675 
L 333.225806 30.047717 
L 334.857236 28.807378 
L 336.488666 28.34225 
L 338.120096 30.280281 
L 339.751526 30.357802 
L 341.382956 28.96242 
L 343.014386 30.280281 
L 344.645815 31.753184 
L 346.277245 31.133014 
L 347.908675 30.822929 
L 349.540105 29.427547 
L 351.171535 29.970196 
L 352.802965 30.745408 
L 354.434395 30.125238 
L 356.065825 31.133014 
L 357.697254 30.745408 
L 359.328684 28.807378 
L 360.960114 31.288057 
L 362.591544 31.830705 
L 364.222974 31.985748 
L 365.854404 33.071045 
L 367.485834 34.0013 
L 369.117264 33.691215 
L 370.748693 34.466427 
L 372.380123 34.854033 
L 374.011553 34.543948 
L 375.642983 34.0013 
L 377.274413 34.698991 
L 378.905843 33.923778 
L 380.537273 31.52062 
L 380.537273 31.52062 
" clip-path="url(#p826f153790)" style="fill: none; stroke: #2ca02c; stroke-width: 1.5; stroke-linecap: square"/>
   </g>
   <g id="line2d_20">
    <path d="M 55.882727 261.216 
L 57.514157 261.216 
L 59.145587 260.59583 
L 60.777017 259.665576 
L 62.408447 259.045406 
L 64.039877 257.494981 
L 67.302736 255.091823 
L 68.934166 253.851484 
L 70.565596 251.990975 
L 72.197026 250.750635 
L 73.828456 249.122689 
L 75.459886 247.107138 
L 77.091316 245.944319 
L 78.722746 244.471416 
L 80.354175 242.455864 
L 81.985605 241.603131 
L 83.617035 239.044931 
L 85.248465 237.804591 
L 86.879895 236.331688 
L 88.511325 234.083572 
L 90.142755 232.68819 
L 91.774185 231.447851 
L 93.405614 228.657087 
L 95.037044 227.106663 
L 96.668474 224.858547 
L 99.931334 222.765474 
L 101.562764 220.284795 
L 103.194194 217.494031 
L 104.825624 215.400958 
L 106.457053 212.842758 
L 108.088483 209.896951 
L 109.719913 208.811654 
L 111.351343 206.951145 
L 112.982773 206.408496 
L 114.614203 204.392945 
L 116.245633 203.385169 
L 117.877063 201.059532 
L 119.508492 199.509108 
L 121.139922 197.72612 
L 124.402782 195.555525 
L 126.034212 193.772537 
L 127.665642 190.671688 
L 129.297072 190.361603 
L 130.928502 187.958446 
L 132.559931 187.183233 
L 134.191361 186.175458 
L 135.822791 185.942894 
L 137.454221 184.159906 
L 139.085651 182.687003 
L 142.348511 181.989312 
L 145.61137 180.206323 
L 147.2428 179.121026 
L 148.87423 178.268293 
L 150.50566 175.400008 
L 152.13709 173.151892 
L 153.76852 171.911553 
L 155.39995 171.446425 
L 157.03138 171.523947 
L 158.66281 168.810704 
L 160.294239 167.880449 
L 161.925669 166.174982 
L 163.557099 165.632334 
L 165.188529 164.236952 
L 166.819959 163.849346 
L 168.451389 164.469515 
L 170.082819 162.686527 
L 171.714249 162.2214 
L 173.345678 160.128327 
L 174.977108 162.2214 
L 176.608538 162.764049 
L 178.239968 161.678752 
L 179.871398 161.911315 
L 181.502828 160.981061 
L 183.134258 160.826018 
L 184.765688 160.050806 
L 186.397117 159.895763 
L 188.028547 158.035254 
L 189.659977 157.957733 
L 191.291407 157.260042 
L 192.922837 155.86466 
L 194.554267 156.097224 
L 196.185697 155.632096 
L 197.817127 155.399533 
L 199.448556 156.407308 
L 201.079986 156.872436 
L 202.711416 155.787139 
L 204.342846 155.632096 
L 207.605706 154.469278 
L 209.237136 153.30646 
L 210.868566 152.841332 
L 212.499995 152.143641 
L 215.762855 154.391757 
L 217.394285 155.477054 
L 219.025715 155.322011 
L 220.657145 156.019702 
L 222.288575 156.407308 
L 223.920005 156.407308 
L 225.551434 156.872436 
L 227.182864 157.027478 
L 228.814294 156.717393 
L 230.445724 155.709617 
L 232.077154 154.856884 
L 233.708584 154.159193 
L 235.340014 154.004151 
L 236.971444 154.081672 
L 238.602873 152.453726 
L 240.234303 151.756035 
L 241.865733 153.30646 
L 243.497163 152.918853 
L 245.128593 153.383981 
L 246.760023 154.856884 
L 248.391453 157.647648 
L 250.022883 156.097224 
L 251.654312 155.86466 
L 253.285742 154.546799 
L 254.917172 155.709617 
L 256.548602 154.856884 
L 258.180032 155.709617 
L 259.811462 154.004151 
L 261.442892 155.166969 
L 263.074322 154.469278 
L 264.705751 155.709617 
L 266.337181 155.554575 
L 267.968611 157.570127 
L 269.600041 155.554575 
L 271.231471 154.081672 
L 274.494331 153.539023 
L 276.125761 152.298684 
L 277.75719 152.06612 
L 279.38862 152.763811 
L 281.02005 151.988599 
L 284.28291 148.577665 
L 285.91434 148.577665 
L 287.54577 147.492368 
L 289.1772 148.422623 
L 290.80863 147.414847 
L 292.440059 144.236477 
L 294.071489 145.476816 
L 295.702919 145.554337 
L 297.334349 144.081434 
L 298.965779 144.46904 
L 300.597209 143.306222 
L 302.228639 143.848871 
L 303.860069 143.693828 
L 305.491498 144.236477 
L 307.122928 147.802453 
L 308.754358 147.492368 
L 312.017218 148.655186 
L 313.648648 149.120314 
L 315.280078 149.430398 
L 316.911508 149.197835 
L 318.542937 150.283132 
L 320.174367 149.352877 
L 321.805797 150.283132 
L 323.437227 149.275356 
L 325.068657 150.515696 
L 326.700087 149.042792 
L 328.331517 149.895526 
L 329.962947 149.895526 
L 331.594376 150.438174 
L 333.225806 150.438174 
L 334.857236 151.523471 
L 336.488666 152.06612 
L 338.120096 152.376205 
L 339.751526 152.06612 
L 341.382956 152.996375 
L 343.014386 151.833556 
L 344.645815 152.143641 
L 346.277245 150.438174 
L 349.540105 150.050568 
L 351.171535 150.748259 
L 352.802965 148.965271 
L 354.434395 146.174507 
L 356.065825 147.182283 
L 360.960114 149.585441 
L 362.591544 150.050568 
L 364.222974 151.058344 
L 365.854404 149.042792 
L 367.485834 148.500144 
L 369.117264 147.337326 
L 370.748693 147.414847 
L 374.011553 148.422623 
L 375.642983 148.500144 
L 377.274413 147.64741 
L 378.905843 148.190059 
L 380.537273 149.895526 
L 380.537273 149.895526 
" clip-path="url(#p826f153790)" style="fill: none; stroke: #d62728; stroke-width: 1.5; stroke-linecap: square"/>
   </g>
   <g id="patch_3">
    <path d="M 39.65 273.312 
L 39.65 7.2 
" style="fill: none; stroke: #000000; stroke-width: 0.8; stroke-linejoin: miter; stroke-linecap: square"/>
   </g>
   <g id="patch_4">
    <path d="M 396.77 273.312 
L 396.77 7.2 
" style="fill: none; stroke: #000000; stroke-width: 0.8; stroke-linejoin: miter; stroke-linecap: square"/>
   </g>
   <g id="patch_5">
    <path d="M 39.65 273.312 
L 396.77 273.312 
" style="fill: none; stroke: #000000; stroke-width: 0.8; stroke-linejoin: miter; stroke-linecap: square"/>
   </g>
   <g id="patch_6">
    <path d="M 39.65 7.2 
L 396.77 7.2 
" style="fill: none; stroke: #000000; stroke-width: 0.8; stroke-linejoin: miter; stroke-linecap: square"/>
   </g>
  </g>
 </g>
 <defs>
  <clipPath id="p826f153790">
   <rect x="39.65" y="7.2" width="357.12" height="266.112"/>
  </clipPath>
 </defs>
</svg>
