<?xml version="1.0" encoding="utf-8" standalone="no"?>
<!DOCTYPE svg PUBLIC "-//W3C//DTD SVG 1.1//EN"
  "http://www.w3.org/Graphics/SVG/1.1/DTD/svg11.dtd">
<svg xmlns:xlink="http://www.w3.org/1999/xlink" width="397.6075pt" height="298.101371pt" viewBox="0 0 397.6075 298.101371" xmlns="http://www.w3.org/2000/svg" version="1.1">
 <metadata>
  <rdf:RDF xmlns:dc="http://purl.org/dc/elements/1.1/" xmlns:cc="http://creativecommons.org/ns#" xmlns:rdf="http://www.w3.org/1999/02/22-rdf-syntax-ns#">
   <cc:Work>
    <dc:type rdf:resource="http://purl.org/dc/dcmitype/StillImage"/>
    <dc:date>2024-04-02T22:05:07.782972</dc:date>
    <dc:format>image/svg+xml</dc:format>
    <dc:creator>
     <cc:Agent>
      <dc:title>Matplotlib v3.8.3, https://matplotlib.org/</dc:title>
     </cc:Agent>
    </dc:creator>
   </cc:Work>
  </rdf:RDF>
 </metadata>
 <defs>
  <style type="text/css">*{stroke-linejoin: round; stroke-linecap: butt}</style>
 </defs>
 <g id="figure_1">
  <g id="patch_1">
   <path d="M 0 298.101371 
L 397.6075 298.101371 
L 397.6075 0 
L 0 0 
z
" style="fill: #ffffff"/>
  </g>
  <g id="axes_1">
   <g id="patch_2">
    <path d="M 33.2875 274.223246 
L 390.4075 274.223246 
L 390.4075 8.111246 
L 33.2875 8.111246 
z
" style="fill: #ffffff"/>
   </g>
   <g id="matplotlib.axis_1">
    <g id="xtick_1">
     <g id="line2d_1">
      <defs>
       <path id="mbb55b7c440" d="M 0 0 
L 0 3.5 
" style="stroke: #000000; stroke-width: 0.8"/>
      </defs>
      <g>
       <use xlink:href="#mbb55b7c440" x="49.520227" y="274.223246" style="stroke: #000000; stroke-width: 0.8"/>
      </g>
     </g>
     <g id="text_1">
      <!-- 0.0 -->
      <g transform="translate(41.568665 288.821684) scale(0.1 -0.1)">
       <defs>
        <path id="DejaVuSans-30" d="M 2034 4250 
Q 1547 4250 1301 3770 
Q 1056 3291 1056 2328 
Q 1056 1369 1301 889 
Q 1547 409 2034 409 
Q 2525 409 2770 889 
Q 3016 1369 3016 2328 
Q 3016 3291 2770 3770 
Q 2525 4250 2034 4250 
z
M 2034 4750 
Q 2819 4750 3233 4129 
Q 3647 3509 3647 2328 
Q 3647 1150 3233 529 
Q 2819 -91 2034 -91 
Q 1250 -91 836 529 
Q 422 1150 422 2328 
Q 422 3509 836 4129 
Q 1250 4750 2034 4750 
z
" transform="scale(0.015625)"/>
        <path id="DejaVuSans-2e" d="M 684 794 
L 1344 794 
L 1344 0 
L 684 0 
L 684 794 
z
" transform="scale(0.015625)"/>
       </defs>
       <use xlink:href="#DejaVuSans-30"/>
       <use xlink:href="#DejaVuSans-2e" x="63.623047"/>
       <use xlink:href="#DejaVuSans-30" x="95.410156"/>
      </g>
     </g>
    </g>
    <g id="xtick_2">
     <g id="line2d_2">
      <g>
       <use xlink:href="#mbb55b7c440" x="90.305974" y="274.223246" style="stroke: #000000; stroke-width: 0.8"/>
      </g>
     </g>
     <g id="text_2">
      <!-- 2.5 -->
      <g transform="translate(82.354412 288.821684) scale(0.1 -0.1)">
       <defs>
        <path id="DejaVuSans-32" d="M 1228 531 
L 3431 531 
L 3431 0 
L 469 0 
L 469 531 
Q 828 903 1448 1529 
Q 2069 2156 2228 2338 
Q 2531 2678 2651 2914 
Q 2772 3150 2772 3378 
Q 2772 3750 2511 3984 
Q 2250 4219 1831 4219 
Q 1534 4219 1204 4116 
Q 875 4013 500 3803 
L 500 4441 
Q 881 4594 1212 4672 
Q 1544 4750 1819 4750 
Q 2544 4750 2975 4387 
Q 3406 4025 3406 3419 
Q 3406 3131 3298 2873 
Q 3191 2616 2906 2266 
Q 2828 2175 2409 1742 
Q 1991 1309 1228 531 
z
" transform="scale(0.015625)"/>
        <path id="DejaVuSans-35" d="M 691 4666 
L 3169 4666 
L 3169 4134 
L 1269 4134 
L 1269 2991 
Q 1406 3038 1543 3061 
Q 1681 3084 1819 3084 
Q 2600 3084 3056 2656 
Q 3513 2228 3513 1497 
Q 3513 744 3044 326 
Q 2575 -91 1722 -91 
Q 1428 -91 1123 -41 
Q 819 9 494 109 
L 494 744 
Q 775 591 1075 516 
Q 1375 441 1709 441 
Q 2250 441 2565 725 
Q 2881 1009 2881 1497 
Q 2881 1984 2565 2268 
Q 2250 2553 1709 2553 
Q 1456 2553 1204 2497 
Q 953 2441 691 2322 
L 691 4666 
z
" transform="scale(0.015625)"/>
       </defs>
       <use xlink:href="#DejaVuSans-32"/>
       <use xlink:href="#DejaVuSans-2e" x="63.623047"/>
       <use xlink:href="#DejaVuSans-35" x="95.410156"/>
      </g>
     </g>
    </g>
    <g id="xtick_3">
     <g id="line2d_3">
      <g>
       <use xlink:href="#mbb55b7c440" x="131.091721" y="274.223246" style="stroke: #000000; stroke-width: 0.8"/>
      </g>
     </g>
     <g id="text_3">
      <!-- 5.0 -->
      <g transform="translate(123.140159 288.821684) scale(0.1 -0.1)">
       <use xlink:href="#DejaVuSans-35"/>
       <use xlink:href="#DejaVuSans-2e" x="63.623047"/>
       <use xlink:href="#DejaVuSans-30" x="95.410156"/>
      </g>
     </g>
    </g>
    <g id="xtick_4">
     <g id="line2d_4">
      <g>
       <use xlink:href="#mbb55b7c440" x="171.877468" y="274.223246" style="stroke: #000000; stroke-width: 0.8"/>
      </g>
     </g>
     <g id="text_4">
      <!-- 7.5 -->
      <g transform="translate(163.925906 288.821684) scale(0.1 -0.1)">
       <defs>
        <path id="DejaVuSans-37" d="M 525 4666 
L 3525 4666 
L 3525 4397 
L 1831 0 
L 1172 0 
L 2766 4134 
L 525 4134 
L 525 4666 
z
" transform="scale(0.015625)"/>
       </defs>
       <use xlink:href="#DejaVuSans-37"/>
       <use xlink:href="#DejaVuSans-2e" x="63.623047"/>
       <use xlink:href="#DejaVuSans-35" x="95.410156"/>
      </g>
     </g>
    </g>
    <g id="xtick_5">
     <g id="line2d_5">
      <g>
       <use xlink:href="#mbb55b7c440" x="212.663215" y="274.223246" style="stroke: #000000; stroke-width: 0.8"/>
      </g>
     </g>
     <g id="text_5">
      <!-- 10.0 -->
      <g transform="translate(201.530402 288.821684) scale(0.1 -0.1)">
       <defs>
        <path id="DejaVuSans-31" d="M 794 531 
L 1825 531 
L 1825 4091 
L 703 3866 
L 703 4441 
L 1819 4666 
L 2450 4666 
L 2450 531 
L 3481 531 
L 3481 0 
L 794 0 
L 794 531 
z
" transform="scale(0.015625)"/>
       </defs>
       <use xlink:href="#DejaVuSans-31"/>
       <use xlink:href="#DejaVuSans-30" x="63.623047"/>
       <use xlink:href="#DejaVuSans-2e" x="127.246094"/>
       <use xlink:href="#DejaVuSans-30" x="159.033203"/>
      </g>
     </g>
    </g>
    <g id="xtick_6">
     <g id="line2d_6">
      <g>
       <use xlink:href="#mbb55b7c440" x="253.448962" y="274.223246" style="stroke: #000000; stroke-width: 0.8"/>
      </g>
     </g>
     <g id="text_6">
      <!-- 12.5 -->
      <g transform="translate(242.316149 288.821684) scale(0.1 -0.1)">
       <use xlink:href="#DejaVuSans-31"/>
       <use xlink:href="#DejaVuSans-32" x="63.623047"/>
       <use xlink:href="#DejaVuSans-2e" x="127.246094"/>
       <use xlink:href="#DejaVuSans-35" x="159.033203"/>
      </g>
     </g>
    </g>
    <g id="xtick_7">
     <g id="line2d_7">
      <g>
       <use xlink:href="#mbb55b7c440" x="294.234709" y="274.223246" style="stroke: #000000; stroke-width: 0.8"/>
      </g>
     </g>
     <g id="text_7">
      <!-- 15.0 -->
      <g transform="translate(283.101896 288.821684) scale(0.1 -0.1)">
       <use xlink:href="#DejaVuSans-31"/>
       <use xlink:href="#DejaVuSans-35" x="63.623047"/>
       <use xlink:href="#DejaVuSans-2e" x="127.246094"/>
       <use xlink:href="#DejaVuSans-30" x="159.033203"/>
      </g>
     </g>
    </g>
    <g id="xtick_8">
     <g id="line2d_8">
      <g>
       <use xlink:href="#mbb55b7c440" x="335.020456" y="274.223246" style="stroke: #000000; stroke-width: 0.8"/>
      </g>
     </g>
     <g id="text_8">
      <!-- 17.5 -->
      <g transform="translate(323.887643 288.821684) scale(0.1 -0.1)">
       <use xlink:href="#DejaVuSans-31"/>
       <use xlink:href="#DejaVuSans-37" x="63.623047"/>
       <use xlink:href="#DejaVuSans-2e" x="127.246094"/>
       <use xlink:href="#DejaVuSans-35" x="159.033203"/>
      </g>
     </g>
    </g>
    <g id="xtick_9">
     <g id="line2d_9">
      <g>
       <use xlink:href="#mbb55b7c440" x="375.806203" y="274.223246" style="stroke: #000000; stroke-width: 0.8"/>
      </g>
     </g>
     <g id="text_9">
      <!-- 20.0 -->
      <g transform="translate(364.67339 288.821684) scale(0.1 -0.1)">
       <use xlink:href="#DejaVuSans-32"/>
       <use xlink:href="#DejaVuSans-30" x="63.623047"/>
       <use xlink:href="#DejaVuSans-2e" x="127.246094"/>
       <use xlink:href="#DejaVuSans-30" x="159.033203"/>
      </g>
     </g>
    </g>
   </g>
   <g id="matplotlib.axis_2">
    <g id="ytick_1">
     <g id="line2d_10">
      <defs>
       <path id="m77a0800c7f" d="M 0 0 
L -3.5 0 
" style="stroke: #000000; stroke-width: 0.8"/>
      </defs>
      <g>
       <use xlink:href="#m77a0800c7f" x="33.2875" y="262.127246" style="stroke: #000000; stroke-width: 0.8"/>
      </g>
     </g>
     <g id="text_10">
      <!-- 0 -->
      <g transform="translate(19.925 265.926465) scale(0.1 -0.1)">
       <use xlink:href="#DejaVuSans-30"/>
      </g>
     </g>
    </g>
    <g id="ytick_2">
     <g id="line2d_11">
      <g>
       <use xlink:href="#m77a0800c7f" x="33.2875" y="220.272575" style="stroke: #000000; stroke-width: 0.8"/>
      </g>
     </g>
     <g id="text_11">
      <!-- 50 -->
      <g transform="translate(13.5625 224.071794) scale(0.1 -0.1)">
       <use xlink:href="#DejaVuSans-35"/>
       <use xlink:href="#DejaVuSans-30" x="63.623047"/>
      </g>
     </g>
    </g>
    <g id="ytick_3">
     <g id="line2d_12">
      <g>
       <use xlink:href="#m77a0800c7f" x="33.2875" y="178.417904" style="stroke: #000000; stroke-width: 0.8"/>
      </g>
     </g>
     <g id="text_12">
      <!-- 100 -->
      <g transform="translate(7.2 182.217123) scale(0.1 -0.1)">
       <use xlink:href="#DejaVuSans-31"/>
       <use xlink:href="#DejaVuSans-30" x="63.623047"/>
       <use xlink:href="#DejaVuSans-30" x="127.246094"/>
      </g>
     </g>
    </g>
    <g id="ytick_4">
     <g id="line2d_13">
      <g>
       <use xlink:href="#m77a0800c7f" x="33.2875" y="136.563233" style="stroke: #000000; stroke-width: 0.8"/>
      </g>
     </g>
     <g id="text_13">
      <!-- 150 -->
      <g transform="translate(7.2 140.362451) scale(0.1 -0.1)">
       <use xlink:href="#DejaVuSans-31"/>
       <use xlink:href="#DejaVuSans-35" x="63.623047"/>
       <use xlink:href="#DejaVuSans-30" x="127.246094"/>
      </g>
     </g>
    </g>
    <g id="ytick_5">
     <g id="line2d_14">
      <g>
       <use xlink:href="#m77a0800c7f" x="33.2875" y="94.708561" style="stroke: #000000; stroke-width: 0.8"/>
      </g>
     </g>
     <g id="text_14">
      <!-- 200 -->
      <g transform="translate(7.2 98.50778) scale(0.1 -0.1)">
       <use xlink:href="#DejaVuSans-32"/>
       <use xlink:href="#DejaVuSans-30" x="63.623047"/>
       <use xlink:href="#DejaVuSans-30" x="127.246094"/>
      </g>
     </g>
    </g>
    <g id="ytick_6">
     <g id="line2d_15">
      <g>
       <use xlink:href="#m77a0800c7f" x="33.2875" y="52.85389" style="stroke: #000000; stroke-width: 0.8"/>
      </g>
     </g>
     <g id="text_15">
      <!-- 250 -->
      <g transform="translate(7.2 56.653109) scale(0.1 -0.1)">
       <use xlink:href="#DejaVuSans-32"/>
       <use xlink:href="#DejaVuSans-35" x="63.623047"/>
       <use xlink:href="#DejaVuSans-30" x="127.246094"/>
      </g>
     </g>
    </g>
    <g id="ytick_7">
     <g id="line2d_16">
      <g>
       <use xlink:href="#m77a0800c7f" x="33.2875" y="10.999219" style="stroke: #000000; stroke-width: 0.8"/>
      </g>
     </g>
     <g id="text_16">
      <!-- 300 -->
      <g transform="translate(7.2 14.798437) scale(0.1 -0.1)">
       <defs>
        <path id="DejaVuSans-33" d="M 2597 2516 
Q 3050 2419 3304 2112 
Q 3559 1806 3559 1356 
Q 3559 666 3084 287 
Q 2609 -91 1734 -91 
Q 1441 -91 1130 -33 
Q 819 25 488 141 
L 488 750 
Q 750 597 1062 519 
Q 1375 441 1716 441 
Q 2309 441 2620 675 
Q 2931 909 2931 1356 
Q 2931 1769 2642 2001 
Q 2353 2234 1838 2234 
L 1294 2234 
L 1294 2753 
L 1863 2753 
Q 2328 2753 2575 2939 
Q 2822 3125 2822 3475 
Q 2822 3834 2567 4026 
Q 2313 4219 1838 4219 
Q 1578 4219 1281 4162 
Q 984 4106 628 3988 
L 628 4550 
Q 988 4650 1302 4700 
Q 1616 4750 1894 4750 
Q 2613 4750 3031 4423 
Q 3450 4097 3450 3541 
Q 3450 3153 3228 2886 
Q 3006 2619 2597 2516 
z
" transform="scale(0.015625)"/>
       </defs>
       <use xlink:href="#DejaVuSans-33"/>
       <use xlink:href="#DejaVuSans-30" x="63.623047"/>
       <use xlink:href="#DejaVuSans-30" x="127.246094"/>
      </g>
     </g>
    </g>
   </g>
   <g id="line2d_17">
    <path d="M 49.520227 262.127246 
L 53.598802 52.85389 
L 57.677377 52.85389 
L 61.755951 52.85389 
L 65.834526 52.85389 
L 69.913101 52.85389 
L 73.991675 52.85389 
L 78.07025 52.85389 
L 82.148825 52.85389 
L 86.227399 52.85389 
L 90.305974 52.85389 
L 94.384549 52.85389 
L 98.463124 52.85389 
L 102.541698 52.85389 
L 106.620273 52.85389 
L 110.698848 52.85389 
L 114.777422 52.85389 
L 118.855997 52.85389 
L 122.934572 52.85389 
L 127.013146 52.85389 
L 131.091721 52.85389 
L 135.170296 52.85389 
L 139.24887 52.85389 
L 143.327445 52.85389 
L 147.40602 52.85389 
L 151.484595 52.85389 
L 155.563169 52.85389 
L 159.641744 52.85389 
L 163.720319 52.85389 
L 167.798893 52.85389 
L 171.877468 52.85389 
L 175.956043 52.85389 
L 180.034617 52.85389 
L 184.113192 52.85389 
L 188.191767 52.85389 
L 192.270341 52.85389 
L 196.348916 52.85389 
L 200.427491 52.85389 
L 204.506066 52.85389 
L 208.58464 52.85389 
L 212.663215 52.85389 
L 216.74179 52.85389 
L 220.820364 52.85389 
L 224.898939 52.85389 
L 228.977514 52.85389 
L 233.056088 52.85389 
L 237.134663 52.85389 
L 241.213238 52.85389 
L 245.291812 52.85389 
L 249.370387 52.85389 
L 253.448962 52.85389 
L 257.527537 52.85389 
L 261.606111 52.85389 
L 265.684686 52.85389 
L 269.763261 52.85389 
L 273.841835 52.85389 
L 277.92041 52.85389 
L 281.998985 52.85389 
L 286.077559 52.85389 
L 290.156134 52.85389 
L 294.234709 52.85389 
L 298.313283 52.85389 
L 302.391858 52.85389 
L 306.470433 52.85389 
L 310.549008 52.85389 
L 314.627582 52.85389 
L 318.706157 52.85389 
L 322.784732 52.85389 
L 326.863306 52.85389 
L 330.941881 52.85389 
L 335.020456 52.85389 
L 339.09903 52.85389 
L 343.177605 52.85389 
L 347.25618 52.85389 
L 351.334754 52.85389 
L 355.413329 52.85389 
L 359.491904 52.85389 
L 363.570479 52.85389 
L 367.649053 52.85389 
L 371.727628 52.85389 
" clip-path="url(#p1e90ed7be9)" style="fill: none; stroke: #1f77b4; stroke-width: 1.5; stroke-linecap: square"/>
   </g>
   <g id="line2d_18">
    <path d="M 49.520227 262.127246 
L 53.598802 262.127246 
L 57.677377 52.85389 
L 61.755951 52.85389 
L 65.834526 52.85389 
L 69.913101 52.85389 
L 73.991675 52.85389 
L 78.07025 52.85389 
L 82.148825 52.85389 
L 86.227399 52.85389 
L 90.305974 52.85389 
L 94.384549 52.85389 
L 98.463124 52.85389 
L 102.541698 52.85389 
L 106.620273 52.85389 
L 110.698848 52.85389 
L 114.777422 52.85389 
L 118.855997 52.85389 
L 122.934572 52.85389 
L 127.013146 52.85389 
L 131.091721 52.85389 
L 135.170296 52.85389 
L 139.24887 52.85389 
L 143.327445 52.85389 
L 147.40602 52.85389 
L 151.484595 52.85389 
L 155.563169 52.85389 
L 159.641744 52.85389 
L 163.720319 52.85389 
L 167.798893 52.85389 
L 171.877468 52.85389 
L 175.956043 52.85389 
L 180.034617 52.85389 
L 184.113192 52.85389 
L 188.191767 52.85389 
L 192.270341 52.85389 
L 196.348916 52.85389 
L 200.427491 52.85389 
L 204.506066 52.85389 
L 208.58464 52.85389 
L 212.663215 52.85389 
L 216.74179 52.85389 
L 220.820364 52.85389 
L 224.898939 52.85389 
L 228.977514 52.85389 
L 233.056088 52.85389 
L 237.134663 52.85389 
L 241.213238 52.85389 
L 245.291812 52.85389 
L 249.370387 52.85389 
L 253.448962 52.85389 
L 257.527537 52.85389 
L 261.606111 52.85389 
L 265.684686 52.85389 
L 269.763261 52.85389 
L 273.841835 52.85389 
L 277.92041 52.85389 
L 281.998985 52.85389 
L 286.077559 52.85389 
L 290.156134 52.85389 
L 294.234709 52.85389 
L 298.313283 52.85389 
L 302.391858 52.85389 
L 306.470433 52.85389 
L 310.549008 52.85389 
L 314.627582 52.85389 
L 318.706157 52.85389 
L 322.784732 52.85389 
L 326.863306 52.85389 
L 330.941881 52.85389 
L 335.020456 52.85389 
L 339.09903 52.85389 
L 343.177605 52.85389 
L 347.25618 52.85389 
L 351.334754 52.85389 
L 355.413329 52.85389 
L 359.491904 52.85389 
L 363.570479 52.85389 
L 367.649053 52.85389 
L 371.727628 52.85389 
" clip-path="url(#p1e90ed7be9)" style="fill: none; stroke: #ff7f0e; stroke-width: 1.5; stroke-linecap: square"/>
   </g>
   <g id="line2d_19">
    <path d="M 49.520227 262.127246 
L 51.151657 194.322679 
L 52.783087 144.934167 
L 54.414517 116.47299 
L 56.045947 96.382748 
L 57.677377 73.781226 
L 59.308807 60.387731 
L 60.940236 65.410291 
L 62.571666 58.713544 
L 64.203096 56.202264 
L 65.834526 57.039357 
L 69.097386 53.690983 
L 70.728816 56.202264 
L 73.991675 56.202264 
L 75.623105 51.179703 
L 77.254535 52.016797 
L 78.885965 57.876451 
L 80.517395 51.179703 
L 82.148825 51.179703 
L 83.780255 59.550637 
L 85.411685 59.550637 
L 87.043114 62.061918 
L 88.674544 65.410291 
L 90.305974 71.269945 
L 91.937404 59.550637 
L 93.568834 65.410291 
L 95.200264 53.690983 
L 96.831694 55.36517 
L 98.463124 49.505516 
L 100.094553 57.039357 
L 101.725983 42.808769 
L 103.357413 44.482956 
L 104.988843 44.482956 
L 106.620273 45.320049 
L 108.251703 44.482956 
L 109.883133 48.668423 
L 111.514563 62.061918 
L 113.145992 55.36517 
L 114.777422 59.550637 
L 116.408852 67.084478 
L 118.040282 63.736105 
L 121.303142 53.690983 
L 122.934572 52.016797 
L 124.566002 36.949115 
L 126.197431 31.089461 
L 127.828861 35.274928 
L 129.460291 42.808769 
L 131.091721 53.690983 
L 132.723151 48.668423 
L 134.354581 48.668423 
L 135.986011 59.550637 
L 137.617441 57.039357 
L 139.24887 41.971675 
L 140.8803 39.460395 
L 142.51173 52.85389 
L 144.14316 54.528077 
L 145.77459 52.85389 
L 147.40602 49.505516 
L 149.03745 57.876451 
L 152.30031 56.202264 
L 153.931739 49.505516 
L 155.563169 59.550637 
L 157.194599 43.645862 
L 158.826029 47.831329 
L 160.457459 56.202264 
L 162.088889 55.36517 
L 163.720319 56.202264 
L 165.351749 57.876451 
L 166.983178 52.85389 
L 170.246038 59.550637 
L 171.877468 59.550637 
L 173.508898 64.573198 
L 175.140328 56.202264 
L 176.771758 60.387731 
L 178.403188 62.899011 
L 180.034617 54.528077 
L 181.666047 62.061918 
L 183.297477 47.831329 
L 184.928907 41.971675 
L 186.560337 46.994236 
L 188.191767 48.668423 
L 189.823197 52.016797 
L 191.454627 49.505516 
L 193.086056 50.34261 
L 194.717486 54.528077 
L 196.348916 57.039357 
L 197.980346 57.039357 
L 199.611776 47.831329 
L 202.874636 32.763648 
L 204.506066 43.645862 
L 206.137495 52.016797 
L 207.768925 46.157143 
L 209.400355 43.645862 
L 211.031785 32.763648 
L 212.663215 39.460395 
L 214.294645 33.600741 
L 215.926075 42.808769 
L 217.557505 49.505516 
L 219.188934 51.179703 
L 220.820364 57.039357 
L 222.451794 51.179703 
L 224.083224 42.808769 
L 225.714654 52.016797 
L 227.346084 53.690983 
L 230.608944 68.758665 
L 232.240373 55.36517 
L 233.871803 56.202264 
L 235.503233 46.994236 
L 237.134663 46.994236 
L 238.766093 42.808769 
L 240.397523 35.274928 
L 242.028953 50.34261 
L 243.660383 51.179703 
L 246.923242 49.505516 
L 248.554672 61.224824 
L 250.186102 48.668423 
L 251.817532 66.247385 
L 253.448962 65.410291 
L 255.080392 61.224824 
L 256.711822 53.690983 
L 258.343251 56.202264 
L 259.974681 40.297489 
L 261.606111 33.600741 
L 263.237541 36.949115 
L 264.868971 52.016797 
L 266.500401 56.202264 
L 268.131831 49.505516 
L 269.763261 47.831329 
L 271.39469 59.550637 
L 273.02612 49.505516 
L 274.65755 41.971675 
L 276.28898 43.645862 
L 277.92041 37.786208 
L 279.55184 36.949115 
L 281.18327 37.786208 
L 284.44613 56.202264 
L 286.077559 44.482956 
L 287.708989 43.645862 
L 289.340419 34.437835 
L 290.971849 36.949115 
L 292.603279 45.320049 
L 294.234709 48.668423 
L 295.866139 59.550637 
L 297.497569 72.944132 
L 299.128998 74.618319 
L 302.391858 69.595759 
L 304.023288 65.410291 
L 305.654718 72.107039 
L 308.917578 58.713544 
L 310.549008 56.202264 
L 312.180437 51.179703 
L 313.811867 60.387731 
L 315.443297 44.482956 
L 317.074727 35.274928 
L 318.706157 38.623302 
L 320.337587 55.36517 
L 321.969017 49.505516 
L 323.600447 57.039357 
L 325.231876 55.36517 
L 326.863306 52.85389 
L 328.494736 54.528077 
L 330.126166 52.85389 
L 331.757596 62.061918 
L 333.389026 64.573198 
L 335.020456 57.039357 
L 336.651886 57.876451 
L 338.283315 60.387731 
L 339.914745 35.274928 
L 341.546175 44.482956 
L 343.177605 36.949115 
L 344.809035 37.786208 
L 346.440465 32.763648 
L 348.071895 39.460395 
L 349.703325 41.971675 
L 351.334754 47.831329 
L 352.966184 60.387731 
L 354.597614 66.247385 
L 356.229044 53.690983 
L 357.860474 60.387731 
L 359.491904 43.645862 
L 361.123334 41.971675 
L 362.754764 37.786208 
L 364.386193 46.157143 
L 366.017623 46.157143 
L 367.649053 57.876451 
L 369.280483 51.179703 
L 370.911913 46.994236 
L 372.543343 45.320049 
L 374.174773 50.34261 
L 374.174773 50.34261 
" clip-path="url(#p1e90ed7be9)" style="fill: none; stroke: #2ca02c; stroke-width: 1.5; stroke-linecap: square"/>
   </g>
   <g id="line2d_20">
    <path d="M 49.520227 262.127246 
L 51.151657 250.407938 
L 52.783087 225.295136 
L 54.414517 188.463025 
L 56.045947 159.164755 
L 57.677377 144.097073 
L 59.308807 127.355205 
L 60.940236 88.011814 
L 62.571666 77.129599 
L 64.203096 73.781226 
L 65.834526 66.247385 
L 67.465956 67.084478 
L 69.097386 62.899011 
L 70.728816 45.320049 
L 72.360246 45.320049 
L 73.991675 42.808769 
L 75.623105 52.85389 
L 77.254535 57.039357 
L 78.885965 43.645862 
L 80.517395 52.016797 
L 82.148825 49.505516 
L 83.780255 44.482956 
L 85.411685 56.202264 
L 87.043114 52.016797 
L 88.674544 48.668423 
L 90.305974 42.808769 
L 91.937404 53.690983 
L 93.568834 49.505516 
L 95.200264 58.713544 
L 96.831694 44.482956 
L 98.463124 41.134582 
L 100.094553 30.252368 
L 101.725983 43.645862 
L 103.357413 38.623302 
L 104.988843 46.157143 
L 106.620273 44.482956 
L 108.251703 54.528077 
L 109.883133 42.808769 
L 111.514563 20.207246 
L 113.145992 35.274928 
L 114.777422 41.134582 
L 116.408852 36.112022 
L 118.040282 46.157143 
L 119.671712 52.016797 
L 121.303142 52.016797 
L 122.934572 56.202264 
L 124.566002 61.224824 
L 126.197431 57.876451 
L 127.828861 57.039357 
L 129.460291 43.645862 
L 131.091721 31.926554 
L 132.723151 43.645862 
L 134.354581 46.994236 
L 135.986011 37.786208 
L 137.617441 37.786208 
L 139.24887 46.157143 
L 140.8803 51.179703 
L 142.51173 52.016797 
L 144.14316 56.202264 
L 145.77459 55.36517 
L 147.40602 53.690983 
L 149.03745 39.460395 
L 150.66888 45.320049 
L 152.30031 41.971675 
L 153.931739 43.645862 
L 155.563169 26.0669 
L 157.194599 63.736105 
L 158.826029 52.85389 
L 160.457459 46.157143 
L 162.088889 46.157143 
L 163.720319 47.831329 
L 165.351749 61.224824 
L 166.983178 64.573198 
L 168.614608 54.528077 
L 170.246038 53.690983 
L 171.877468 57.876451 
L 173.508898 53.690983 
L 175.140328 62.899011 
L 176.771758 69.595759 
L 178.403188 63.736105 
L 180.034617 66.247385 
L 181.666047 47.831329 
L 183.297477 56.202264 
L 184.928907 62.061918 
L 186.560337 64.573198 
L 188.191767 70.432852 
L 189.823197 62.899011 
L 191.454627 58.713544 
L 193.086056 57.876451 
L 194.717486 48.668423 
L 196.348916 41.971675 
L 197.980346 41.971675 
L 199.611776 50.34261 
L 201.243206 62.899011 
L 202.874636 62.061918 
L 204.506066 56.202264 
L 206.137495 31.926554 
L 207.768925 46.157143 
L 209.400355 41.134582 
L 211.031785 52.85389 
L 212.663215 47.831329 
L 214.294645 49.505516 
L 215.926075 41.134582 
L 217.557505 41.134582 
L 219.188934 45.320049 
L 220.820364 57.039357 
L 222.451794 61.224824 
L 224.083224 72.944132 
L 225.714654 52.016797 
L 227.346084 58.713544 
L 228.977514 50.34261 
L 230.608944 48.668423 
L 232.240373 52.85389 
L 233.871803 50.34261 
L 235.503233 58.713544 
L 237.134663 68.758665 
L 238.766093 62.061918 
L 240.397523 71.269945 
L 242.028953 59.550637 
L 243.660383 58.713544 
L 245.291812 53.690983 
L 246.923242 54.528077 
L 248.554672 57.039357 
L 250.186102 63.736105 
L 251.817532 47.831329 
L 253.448962 45.320049 
L 255.080392 58.713544 
L 256.711822 74.618319 
L 258.343251 59.550637 
L 259.974681 77.966693 
L 261.606111 77.129599 
L 264.868971 36.949115 
L 266.500401 38.623302 
L 268.131831 52.016797 
L 269.763261 56.202264 
L 271.39469 36.949115 
L 273.02612 34.437835 
L 274.65755 54.528077 
L 276.28898 54.528077 
L 277.92041 68.758665 
L 279.55184 56.202264 
L 281.18327 56.202264 
L 282.8147 46.157143 
L 284.44613 33.600741 
L 286.077559 52.016797 
L 287.708989 47.831329 
L 289.340419 62.061918 
L 290.971849 60.387731 
L 292.603279 56.202264 
L 294.234709 51.179703 
L 295.866139 58.713544 
L 297.497569 58.713544 
L 299.128998 52.016797 
L 300.760428 48.668423 
L 302.391858 33.600741 
L 304.023288 57.876451 
L 305.654718 38.623302 
L 307.286148 62.061918 
L 308.917578 51.179703 
L 310.549008 46.157143 
L 312.180437 50.34261 
L 313.811867 50.34261 
L 315.443297 68.758665 
L 317.074727 73.781226 
L 318.706157 61.224824 
L 320.337587 55.36517 
L 321.969017 67.084478 
L 323.600447 56.202264 
L 325.231876 57.039357 
L 326.863306 55.36517 
L 328.494736 64.573198 
L 330.126166 68.758665 
L 331.757596 47.831329 
L 333.389026 36.112022 
L 335.020456 47.831329 
L 336.651886 44.482956 
L 338.283315 42.808769 
L 339.914745 72.107039 
L 341.546175 53.690983 
L 343.177605 56.202264 
L 344.809035 52.016797 
L 346.440465 55.36517 
L 348.071895 49.505516 
L 349.703325 32.763648 
L 352.966184 22.718527 
L 354.597614 36.949115 
L 356.229044 68.758665 
L 357.860474 42.808769 
L 359.491904 61.224824 
L 361.123334 64.573198 
L 362.754764 63.736105 
L 364.386193 51.179703 
L 366.017623 36.112022 
L 367.649053 37.786208 
L 369.280483 59.550637 
L 370.911913 52.016797 
L 372.543343 58.713544 
L 374.174773 60.387731 
L 374.174773 60.387731 
" clip-path="url(#p1e90ed7be9)" style="fill: none; stroke: #d62728; stroke-width: 1.5; stroke-linecap: square"/>
   </g>
   <g id="patch_3">
    <path d="M 33.2875 274.223246 
L 33.2875 8.111246 
" style="fill: none; stroke: #000000; stroke-width: 0.8; stroke-linejoin: miter; stroke-linecap: square"/>
   </g>
   <g id="patch_4">
    <path d="M 390.4075 274.223246 
L 390.4075 8.111246 
" style="fill: none; stroke: #000000; stroke-width: 0.8; stroke-linejoin: miter; stroke-linecap: square"/>
   </g>
   <g id="patch_5">
    <path d="M 33.2875 274.223246 
L 390.4075 274.223246 
" style="fill: none; stroke: #000000; stroke-width: 0.8; stroke-linejoin: miter; stroke-linecap: square"/>
   </g>
   <g id="patch_6">
    <path d="M 33.2875 8.111246 
L 390.4075 8.111246 
" style="fill: none; stroke: #000000; stroke-width: 0.8; stroke-linejoin: miter; stroke-linecap: square"/>
   </g>
  </g>
 </g>
 <defs>
  <clipPath id="p1e90ed7be9">
   <rect x="33.2875" y="8.111246" width="357.12" height="266.112"/>
  </clipPath>
 </defs>
</svg>
