<?xml version="1.0" encoding="utf-8" standalone="no"?>
<!DOCTYPE svg PUBLIC "-//W3C//DTD SVG 1.1//EN"
  "http://www.w3.org/Graphics/SVG/1.1/DTD/svg11.dtd">
<svg xmlns:xlink="http://www.w3.org/1999/xlink" width="403.97pt" height="297.190125pt" viewBox="0 0 403.97 297.190125" xmlns="http://www.w3.org/2000/svg" version="1.1">
 <metadata>
  <rdf:RDF xmlns:dc="http://purl.org/dc/elements/1.1/" xmlns:cc="http://creativecommons.org/ns#" xmlns:rdf="http://www.w3.org/1999/02/22-rdf-syntax-ns#">
   <cc:Work>
    <dc:type rdf:resource="http://purl.org/dc/dcmitype/StillImage"/>
    <dc:date>2024-10-30T05:48:30.813354</dc:date>
    <dc:format>image/svg+xml</dc:format>
    <dc:creator>
     <cc:Agent>
      <dc:title>Matplotlib v3.9.2, https://matplotlib.org/</dc:title>
     </cc:Agent>
    </dc:creator>
   </cc:Work>
  </rdf:RDF>
 </metadata>
 <defs>
  <style type="text/css">*{stroke-linejoin: round; stroke-linecap: butt}</style>
 </defs>
 <g id="figure_1">
  <g id="patch_1">
   <path d="M 0 297.190125 
L 403.97 297.190125 
L 403.97 0 
L 0 0 
z
" style="fill: #ffffff"/>
  </g>
  <g id="axes_1">
   <g id="patch_2">
    <path d="M 39.65 273.312 
L 396.77 273.312 
L 396.77 7.2 
L 39.65 7.2 
z
" style="fill: #ffffff"/>
   </g>
   <g id="matplotlib.axis_1">
    <g id="xtick_1">
     <g id="line2d_1">
      <defs>
       <path id="mf3c4f0bc5f" d="M 0 0 
L 0 3.5 
" style="stroke: #000000; stroke-width: 0.8"/>
      </defs>
      <g>
       <use xlink:href="#mf3c4f0bc5f" x="55.882727" y="273.312" style="stroke: #000000; stroke-width: 0.8"/>
      </g>
     </g>
     <g id="text_1">
      <!-- 0.0 -->
      <g transform="translate(47.931165 287.910437) scale(0.1 -0.1)">
       <defs>
        <path id="DejaVuSans-30" d="M 2034 4250 
Q 1547 4250 1301 3770 
Q 1056 3291 1056 2328 
Q 1056 1369 1301 889 
Q 1547 409 2034 409 
Q 2525 409 2770 889 
Q 3016 1369 3016 2328 
Q 3016 3291 2770 3770 
Q 2525 4250 2034 4250 
z
M 2034 4750 
Q 2819 4750 3233 4129 
Q 3647 3509 3647 2328 
Q 3647 1150 3233 529 
Q 2819 -91 2034 -91 
Q 1250 -91 836 529 
Q 422 1150 422 2328 
Q 422 3509 836 4129 
Q 1250 4750 2034 4750 
z
" transform="scale(0.015625)"/>
        <path id="DejaVuSans-2e" d="M 684 794 
L 1344 794 
L 1344 0 
L 684 0 
L 684 794 
z
" transform="scale(0.015625)"/>
       </defs>
       <use xlink:href="#DejaVuSans-30"/>
       <use xlink:href="#DejaVuSans-2e" x="63.623047"/>
       <use xlink:href="#DejaVuSans-30" x="95.410156"/>
      </g>
     </g>
    </g>
    <g id="xtick_2">
     <g id="line2d_2">
      <g>
       <use xlink:href="#mf3c4f0bc5f" x="96.668474" y="273.312" style="stroke: #000000; stroke-width: 0.8"/>
      </g>
     </g>
     <g id="text_2">
      <!-- 2.5 -->
      <g transform="translate(88.716912 287.910437) scale(0.1 -0.1)">
       <defs>
        <path id="DejaVuSans-32" d="M 1228 531 
L 3431 531 
L 3431 0 
L 469 0 
L 469 531 
Q 828 903 1448 1529 
Q 2069 2156 2228 2338 
Q 2531 2678 2651 2914 
Q 2772 3150 2772 3378 
Q 2772 3750 2511 3984 
Q 2250 4219 1831 4219 
Q 1534 4219 1204 4116 
Q 875 4013 500 3803 
L 500 4441 
Q 881 4594 1212 4672 
Q 1544 4750 1819 4750 
Q 2544 4750 2975 4387 
Q 3406 4025 3406 3419 
Q 3406 3131 3298 2873 
Q 3191 2616 2906 2266 
Q 2828 2175 2409 1742 
Q 1991 1309 1228 531 
z
" transform="scale(0.015625)"/>
        <path id="DejaVuSans-35" d="M 691 4666 
L 3169 4666 
L 3169 4134 
L 1269 4134 
L 1269 2991 
Q 1406 3038 1543 3061 
Q 1681 3084 1819 3084 
Q 2600 3084 3056 2656 
Q 3513 2228 3513 1497 
Q 3513 744 3044 326 
Q 2575 -91 1722 -91 
Q 1428 -91 1123 -41 
Q 819 9 494 109 
L 494 744 
Q 775 591 1075 516 
Q 1375 441 1709 441 
Q 2250 441 2565 725 
Q 2881 1009 2881 1497 
Q 2881 1984 2565 2268 
Q 2250 2553 1709 2553 
Q 1456 2553 1204 2497 
Q 953 2441 691 2322 
L 691 4666 
z
" transform="scale(0.015625)"/>
       </defs>
       <use xlink:href="#DejaVuSans-32"/>
       <use xlink:href="#DejaVuSans-2e" x="63.623047"/>
       <use xlink:href="#DejaVuSans-35" x="95.410156"/>
      </g>
     </g>
    </g>
    <g id="xtick_3">
     <g id="line2d_3">
      <g>
       <use xlink:href="#mf3c4f0bc5f" x="137.454221" y="273.312" style="stroke: #000000; stroke-width: 0.8"/>
      </g>
     </g>
     <g id="text_3">
      <!-- 5.0 -->
      <g transform="translate(129.502659 287.910437) scale(0.1 -0.1)">
       <use xlink:href="#DejaVuSans-35"/>
       <use xlink:href="#DejaVuSans-2e" x="63.623047"/>
       <use xlink:href="#DejaVuSans-30" x="95.410156"/>
      </g>
     </g>
    </g>
    <g id="xtick_4">
     <g id="line2d_4">
      <g>
       <use xlink:href="#mf3c4f0bc5f" x="178.239968" y="273.312" style="stroke: #000000; stroke-width: 0.8"/>
      </g>
     </g>
     <g id="text_4">
      <!-- 7.5 -->
      <g transform="translate(170.288406 287.910437) scale(0.1 -0.1)">
       <defs>
        <path id="DejaVuSans-37" d="M 525 4666 
L 3525 4666 
L 3525 4397 
L 1831 0 
L 1172 0 
L 2766 4134 
L 525 4134 
L 525 4666 
z
" transform="scale(0.015625)"/>
       </defs>
       <use xlink:href="#DejaVuSans-37"/>
       <use xlink:href="#DejaVuSans-2e" x="63.623047"/>
       <use xlink:href="#DejaVuSans-35" x="95.410156"/>
      </g>
     </g>
    </g>
    <g id="xtick_5">
     <g id="line2d_5">
      <g>
       <use xlink:href="#mf3c4f0bc5f" x="219.025715" y="273.312" style="stroke: #000000; stroke-width: 0.8"/>
      </g>
     </g>
     <g id="text_5">
      <!-- 10.0 -->
      <g transform="translate(207.892902 287.910437) scale(0.1 -0.1)">
       <defs>
        <path id="DejaVuSans-31" d="M 794 531 
L 1825 531 
L 1825 4091 
L 703 3866 
L 703 4441 
L 1819 4666 
L 2450 4666 
L 2450 531 
L 3481 531 
L 3481 0 
L 794 0 
L 794 531 
z
" transform="scale(0.015625)"/>
       </defs>
       <use xlink:href="#DejaVuSans-31"/>
       <use xlink:href="#DejaVuSans-30" x="63.623047"/>
       <use xlink:href="#DejaVuSans-2e" x="127.246094"/>
       <use xlink:href="#DejaVuSans-30" x="159.033203"/>
      </g>
     </g>
    </g>
    <g id="xtick_6">
     <g id="line2d_6">
      <g>
       <use xlink:href="#mf3c4f0bc5f" x="259.811462" y="273.312" style="stroke: #000000; stroke-width: 0.8"/>
      </g>
     </g>
     <g id="text_6">
      <!-- 12.5 -->
      <g transform="translate(248.678649 287.910437) scale(0.1 -0.1)">
       <use xlink:href="#DejaVuSans-31"/>
       <use xlink:href="#DejaVuSans-32" x="63.623047"/>
       <use xlink:href="#DejaVuSans-2e" x="127.246094"/>
       <use xlink:href="#DejaVuSans-35" x="159.033203"/>
      </g>
     </g>
    </g>
    <g id="xtick_7">
     <g id="line2d_7">
      <g>
       <use xlink:href="#mf3c4f0bc5f" x="300.597209" y="273.312" style="stroke: #000000; stroke-width: 0.8"/>
      </g>
     </g>
     <g id="text_7">
      <!-- 15.0 -->
      <g transform="translate(289.464396 287.910437) scale(0.1 -0.1)">
       <use xlink:href="#DejaVuSans-31"/>
       <use xlink:href="#DejaVuSans-35" x="63.623047"/>
       <use xlink:href="#DejaVuSans-2e" x="127.246094"/>
       <use xlink:href="#DejaVuSans-30" x="159.033203"/>
      </g>
     </g>
    </g>
    <g id="xtick_8">
     <g id="line2d_8">
      <g>
       <use xlink:href="#mf3c4f0bc5f" x="341.382956" y="273.312" style="stroke: #000000; stroke-width: 0.8"/>
      </g>
     </g>
     <g id="text_8">
      <!-- 17.5 -->
      <g transform="translate(330.250143 287.910437) scale(0.1 -0.1)">
       <use xlink:href="#DejaVuSans-31"/>
       <use xlink:href="#DejaVuSans-37" x="63.623047"/>
       <use xlink:href="#DejaVuSans-2e" x="127.246094"/>
       <use xlink:href="#DejaVuSans-35" x="159.033203"/>
      </g>
     </g>
    </g>
    <g id="xtick_9">
     <g id="line2d_9">
      <g>
       <use xlink:href="#mf3c4f0bc5f" x="382.168703" y="273.312" style="stroke: #000000; stroke-width: 0.8"/>
      </g>
     </g>
     <g id="text_9">
      <!-- 20.0 -->
      <g transform="translate(371.03589 287.910437) scale(0.1 -0.1)">
       <use xlink:href="#DejaVuSans-32"/>
       <use xlink:href="#DejaVuSans-30" x="63.623047"/>
       <use xlink:href="#DejaVuSans-2e" x="127.246094"/>
       <use xlink:href="#DejaVuSans-30" x="159.033203"/>
      </g>
     </g>
    </g>
   </g>
   <g id="matplotlib.axis_2">
    <g id="ytick_1">
     <g id="line2d_10">
      <defs>
       <path id="m6edf7775e3" d="M 0 0 
L -3.5 0 
" style="stroke: #000000; stroke-width: 0.8"/>
      </defs>
      <g>
       <use xlink:href="#m6edf7775e3" x="39.65" y="261.216" style="stroke: #000000; stroke-width: 0.8"/>
      </g>
     </g>
     <g id="text_10">
      <!-- 0 -->
      <g transform="translate(26.2875 265.015219) scale(0.1 -0.1)">
       <use xlink:href="#DejaVuSans-30"/>
      </g>
     </g>
    </g>
    <g id="ytick_2">
     <g id="line2d_11">
      <g>
       <use xlink:href="#m6edf7775e3" x="39.65" y="221.400332" style="stroke: #000000; stroke-width: 0.8"/>
      </g>
     </g>
     <g id="text_11">
      <!-- 500 -->
      <g transform="translate(13.5625 225.199551) scale(0.1 -0.1)">
       <use xlink:href="#DejaVuSans-35"/>
       <use xlink:href="#DejaVuSans-30" x="63.623047"/>
       <use xlink:href="#DejaVuSans-30" x="127.246094"/>
      </g>
     </g>
    </g>
    <g id="ytick_3">
     <g id="line2d_12">
      <g>
       <use xlink:href="#m6edf7775e3" x="39.65" y="181.584664" style="stroke: #000000; stroke-width: 0.8"/>
      </g>
     </g>
     <g id="text_12">
      <!-- 1000 -->
      <g transform="translate(7.2 185.383882) scale(0.1 -0.1)">
       <use xlink:href="#DejaVuSans-31"/>
       <use xlink:href="#DejaVuSans-30" x="63.623047"/>
       <use xlink:href="#DejaVuSans-30" x="127.246094"/>
       <use xlink:href="#DejaVuSans-30" x="190.869141"/>
      </g>
     </g>
    </g>
    <g id="ytick_4">
     <g id="line2d_13">
      <g>
       <use xlink:href="#m6edf7775e3" x="39.65" y="141.768995" style="stroke: #000000; stroke-width: 0.8"/>
      </g>
     </g>
     <g id="text_13">
      <!-- 1500 -->
      <g transform="translate(7.2 145.568214) scale(0.1 -0.1)">
       <use xlink:href="#DejaVuSans-31"/>
       <use xlink:href="#DejaVuSans-35" x="63.623047"/>
       <use xlink:href="#DejaVuSans-30" x="127.246094"/>
       <use xlink:href="#DejaVuSans-30" x="190.869141"/>
      </g>
     </g>
    </g>
    <g id="ytick_5">
     <g id="line2d_14">
      <g>
       <use xlink:href="#m6edf7775e3" x="39.65" y="101.953327" style="stroke: #000000; stroke-width: 0.8"/>
      </g>
     </g>
     <g id="text_14">
      <!-- 2000 -->
      <g transform="translate(7.2 105.752546) scale(0.1 -0.1)">
       <use xlink:href="#DejaVuSans-32"/>
       <use xlink:href="#DejaVuSans-30" x="63.623047"/>
       <use xlink:href="#DejaVuSans-30" x="127.246094"/>
       <use xlink:href="#DejaVuSans-30" x="190.869141"/>
      </g>
     </g>
    </g>
    <g id="ytick_6">
     <g id="line2d_15">
      <g>
       <use xlink:href="#m6edf7775e3" x="39.65" y="62.137659" style="stroke: #000000; stroke-width: 0.8"/>
      </g>
     </g>
     <g id="text_15">
      <!-- 2500 -->
      <g transform="translate(7.2 65.936878) scale(0.1 -0.1)">
       <use xlink:href="#DejaVuSans-32"/>
       <use xlink:href="#DejaVuSans-35" x="63.623047"/>
       <use xlink:href="#DejaVuSans-30" x="127.246094"/>
       <use xlink:href="#DejaVuSans-30" x="190.869141"/>
      </g>
     </g>
    </g>
    <g id="ytick_7">
     <g id="line2d_16">
      <g>
       <use xlink:href="#m6edf7775e3" x="39.65" y="22.321991" style="stroke: #000000; stroke-width: 0.8"/>
      </g>
     </g>
     <g id="text_16">
      <!-- 3000 -->
      <g transform="translate(7.2 26.12121) scale(0.1 -0.1)">
       <defs>
        <path id="DejaVuSans-33" d="M 2597 2516 
Q 3050 2419 3304 2112 
Q 3559 1806 3559 1356 
Q 3559 666 3084 287 
Q 2609 -91 1734 -91 
Q 1441 -91 1130 -33 
Q 819 25 488 141 
L 488 750 
Q 750 597 1062 519 
Q 1375 441 1716 441 
Q 2309 441 2620 675 
Q 2931 909 2931 1356 
Q 2931 1769 2642 2001 
Q 2353 2234 1838 2234 
L 1294 2234 
L 1294 2753 
L 1863 2753 
Q 2328 2753 2575 2939 
Q 2822 3125 2822 3475 
Q 2822 3834 2567 4026 
Q 2313 4219 1838 4219 
Q 1578 4219 1281 4162 
Q 984 4106 628 3988 
L 628 4550 
Q 988 4650 1302 4700 
Q 1616 4750 1894 4750 
Q 2613 4750 3031 4423 
Q 3450 4097 3450 3541 
Q 3450 3153 3228 2886 
Q 3006 2619 2597 2516 
z
" transform="scale(0.015625)"/>
       </defs>
       <use xlink:href="#DejaVuSans-33"/>
       <use xlink:href="#DejaVuSans-30" x="63.623047"/>
       <use xlink:href="#DejaVuSans-30" x="127.246094"/>
       <use xlink:href="#DejaVuSans-30" x="190.869141"/>
      </g>
     </g>
    </g>
   </g>
   <g id="line2d_17">
    <path d="M 55.882727 261.216 
L 72.197026 181.584664 
L 88.511325 128.497106 
L 104.825624 93.105401 
L 121.139922 69.510931 
L 137.454221 53.781284 
L 153.76852 43.294853 
L 170.082819 36.303899 
L 186.397117 31.643263 
L 202.711416 28.536172 
L 219.025715 26.464778 
L 235.340014 25.083849 
L 251.654312 24.16323 
L 267.968611 23.549483 
L 284.28291 23.140319 
L 300.597209 22.867543 
L 316.911508 22.685692 
L 333.225806 22.564458 
L 349.540105 22.483636 
L 365.854404 22.429754 
" clip-path="url(#p569a0f4c5d)" style="fill: none; stroke: #1f77b4; stroke-width: 1.5; stroke-linecap: square"/>
   </g>
   <g id="line2d_18">
    <path d="M 55.882727 261.216 
L 72.197026 261.216 
L 88.511325 234.672221 
L 104.825624 208.128442 
L 121.139922 187.483281 
L 137.454221 172.736737 
L 153.76852 162.578007 
L 170.082819 155.696287 
L 186.397117 151.072062 
L 202.711416 147.977108 
L 219.025715 145.90976 
L 235.340014 144.53018 
L 251.654312 143.61001 
L 267.968611 142.996413 
L 284.28291 142.587299 
L 300.597209 142.314539 
L 316.911508 142.132694 
L 333.225806 142.011462 
L 349.540105 141.93064 
L 365.854404 141.876759 
" clip-path="url(#p569a0f4c5d)" style="fill: none; stroke: #ff7f0e; stroke-width: 1.5; stroke-linecap: square"/>
   </g>
   <g id="line2d_19">
    <path d="M 55.882727 261.216 
L 57.514157 255.004756 
L 59.145587 246.086046 
L 60.777017 238.282175 
L 64.039877 225.063373 
L 65.671307 217.418765 
L 67.302736 212.481622 
L 68.934166 206.668535 
L 72.197026 193.210839 
L 78.722746 170.277014 
L 80.354175 166.056553 
L 85.248465 147.98024 
L 86.879895 144.078304 
L 88.511325 139.380055 
L 90.142755 135.557751 
L 91.774185 132.133604 
L 93.405614 130.222452 
L 95.037044 127.435355 
L 96.668474 123.772313 
L 98.299904 122.179687 
L 99.931334 118.038857 
L 101.562764 115.80918 
L 103.194194 111.907244 
L 104.825624 110.394249 
L 108.088483 103.625585 
L 109.719913 101.634802 
L 111.351343 98.210654 
L 112.982773 93.592037 
L 114.614203 90.964203 
L 116.245633 87.301161 
L 117.877063 84.673327 
L 119.508492 80.373235 
L 121.139922 78.30282 
L 122.771352 77.267613 
L 124.402782 77.426876 
L 126.034212 74.321253 
L 127.665642 72.887889 
L 129.297072 71.773051 
L 130.928502 70.021161 
L 132.559931 68.030378 
L 134.191361 67.950747 
L 135.822791 67.632221 
L 137.454221 66.437751 
L 139.085651 66.676645 
L 140.717081 65.004387 
L 142.348511 64.446968 
L 145.61137 61.819134 
L 147.2428 61.102452 
L 148.87423 60.226507 
L 150.50566 57.43941 
L 152.13709 53.776369 
L 155.39995 55.687521 
L 157.03138 55.448627 
L 158.66281 54.891207 
L 160.294239 52.900424 
L 161.925669 52.581899 
L 163.557099 51.387429 
L 165.188529 49.874433 
L 166.819959 50.113327 
L 168.451389 48.122544 
L 170.082819 48.679963 
L 171.714249 46.052129 
L 173.345678 45.016922 
L 174.977108 45.415078 
L 176.608538 43.026138 
L 178.239968 43.583558 
L 179.871398 45.49471 
L 181.502828 45.096553 
L 183.134258 45.176184 
L 184.765688 44.140977 
L 186.397117 42.309456 
L 188.028547 42.389088 
L 189.659977 41.9113 
L 191.291407 41.194618 
L 192.922837 40.876092 
L 194.554267 39.761253 
L 196.185697 39.920516 
L 197.817127 37.929733 
L 199.448556 38.088995 
L 201.079986 39.124203 
L 202.711416 38.009364 
L 205.974276 34.903742 
L 207.605706 36.098212 
L 209.237136 34.505585 
L 210.868566 33.629641 
L 212.499995 31.081438 
L 214.131425 33.470378 
L 215.762855 33.151853 
L 217.394285 33.948166 
L 219.025715 32.674065 
L 220.657145 31.001806 
L 222.288575 29.568442 
L 223.920005 29.648074 
L 225.551434 29.568442 
L 227.182864 29.886968 
L 228.814294 29.648074 
L 230.445724 29.011023 
L 232.077154 27.179502 
L 233.708584 27.259134 
L 235.340014 28.055447 
L 236.971444 27.975816 
L 238.602873 29.568442 
L 240.234303 30.364756 
L 241.865733 30.524018 
L 243.497163 29.966599 
L 245.128593 31.638857 
L 246.760023 31.79812 
L 248.391453 32.435171 
L 250.022883 31.479594 
L 251.654312 31.2407 
L 253.285742 30.205493 
L 256.548602 31.161069 
L 258.180032 31.161069 
L 259.811462 28.692498 
L 261.442892 28.21471 
L 264.705751 28.931392 
L 266.337181 27.816553 
L 267.968611 26.303558 
L 269.600041 29.170286 
L 271.231471 28.85176 
L 272.862901 29.249917 
L 274.494331 28.21471 
L 276.125761 28.612866 
L 277.75719 28.294341 
L 279.38862 29.568442 
L 281.02005 31.081438 
L 282.65148 30.04623 
L 284.28291 29.488811 
L 285.91434 28.21471 
L 287.54577 28.85176 
L 289.1772 27.975816 
L 290.80863 27.975816 
L 292.440059 30.762912 
L 294.071489 30.04623 
L 295.702919 29.648074 
L 297.334349 29.966599 
L 298.965779 30.444387 
L 300.597209 29.011023 
L 302.228639 29.727705 
L 303.860069 28.21471 
L 305.491498 28.373972 
L 307.122928 27.736922 
L 308.754358 24.949825 
L 310.385788 26.223926 
L 312.017218 25.666507 
L 313.648648 25.507244 
L 315.280078 25.109088 
L 316.911508 26.223926 
L 318.542937 26.223926 
L 320.174367 25.985032 
L 321.805797 25.188719 
L 323.437227 24.233143 
L 325.068657 22.481253 
L 326.700087 19.853419 
L 328.331517 20.570101 
L 329.962947 19.773788 
L 331.594376 19.773788 
L 333.225806 19.296 
L 334.857236 21.605309 
L 336.488666 20.251576 
L 338.120096 21.605309 
L 341.382956 21.844203 
L 343.014386 23.197935 
L 344.645815 23.436829 
L 346.277245 24.392406 
L 347.908675 26.144295 
L 349.540105 26.860977 
L 351.171535 26.383189 
L 352.802965 26.781346 
L 354.434395 28.135078 
L 356.065825 29.090654 
L 357.697254 28.85176 
L 359.328684 30.125862 
L 360.960114 29.727705 
L 362.591544 28.055447 
L 364.222974 27.338765 
L 365.854404 27.816553 
L 369.117264 26.860977 
L 370.748693 26.781346 
L 372.380123 28.055447 
L 374.011553 28.294341 
L 375.642983 27.975816 
L 377.274413 26.303558 
L 378.905843 25.26835 
L 380.537273 24.710931 
L 380.537273 24.710931 
" clip-path="url(#p569a0f4c5d)" style="fill: none; stroke: #2ca02c; stroke-width: 1.5; stroke-linecap: square"/>
   </g>
   <g id="line2d_20">
    <path d="M 55.882727 261.216 
L 57.514157 261.056737 
L 59.145587 261.056737 
L 60.777017 260.578949 
L 62.408447 259.862267 
L 64.039877 258.906691 
L 67.302736 256.278857 
L 68.934166 254.447336 
L 72.197026 251.580608 
L 73.828456 249.350931 
L 75.459886 246.643465 
L 77.091316 245.369364 
L 78.722746 242.74153 
L 80.354175 241.069272 
L 83.617035 236.689548 
L 85.248465 235.176553 
L 86.879895 234.38024 
L 91.774185 229.761622 
L 93.405614 226.417106 
L 95.037044 224.665217 
L 96.668474 222.435539 
L 98.299904 219.807705 
L 103.194194 215.029825 
L 104.825624 212.083465 
L 106.457053 210.57047 
L 108.088483 209.216737 
L 109.719913 207.544479 
L 111.351343 205.474065 
L 112.982773 204.996276 
L 114.614203 203.164756 
L 117.877063 198.705401 
L 119.508492 198.386876 
L 121.139922 196.396092 
L 122.771352 194.166415 
L 124.402782 191.220055 
L 126.034212 190.821899 
L 127.665642 189.627429 
L 129.297072 187.716276 
L 130.928502 187.238488 
L 132.559931 185.884756 
L 134.191361 184.769917 
L 135.822791 182.221714 
L 137.454221 179.195724 
L 140.717081 177.364203 
L 142.348511 175.453051 
L 143.979941 174.577106 
L 145.61137 174.577106 
L 147.2428 174.975263 
L 150.50566 172.825217 
L 152.13709 174.099318 
L 153.76852 170.834433 
L 155.39995 169.719594 
L 157.03138 167.728811 
L 158.66281 166.295447 
L 160.294239 166.693604 
L 161.925669 165.100977 
L 163.557099 165.419502 
L 165.188529 164.862083 
L 166.819959 162.552774 
L 168.451389 162.8713 
L 170.082819 161.437935 
L 171.714249 160.561991 
L 173.345678 160.482359 
L 174.977108 160.243465 
L 176.608538 158.73047 
L 178.239968 158.650839 
L 179.871398 158.252682 
L 181.502828 157.058212 
L 183.134258 154.908166 
L 184.765688 156.102636 
L 186.397117 156.898949 
L 188.028547 156.023005 
L 191.291407 156.261899 
L 192.922837 154.748903 
L 196.185697 153.235908 
L 197.817127 155.465585 
L 199.448556 155.385954 
L 201.079986 154.510009 
L 202.711416 155.545217 
L 204.342846 155.306323 
L 205.974276 153.872959 
L 207.605706 152.75812 
L 209.237136 152.439594 
L 210.868566 152.678488 
L 212.499995 152.519226 
L 214.131425 151.404387 
L 215.762855 150.846968 
L 217.394285 148.059871 
L 219.025715 149.493235 
L 220.657145 148.856184 
L 222.288575 148.537659 
L 223.920005 149.17471 
L 225.551434 148.298765 
L 227.182864 148.856184 
L 228.814294 149.254341 
L 230.445724 148.61729 
L 232.077154 148.378396 
L 233.708584 149.333972 
L 235.340014 147.183926 
L 236.971444 146.148719 
L 238.602873 144.078304 
L 240.234303 143.281991 
L 241.865733 146.069088 
L 243.497163 144.874618 
L 245.128593 143.520885 
L 246.760023 141.45047 
L 250.022883 142.883834 
L 251.654312 143.998673 
L 254.917172 143.600516 
L 256.548602 143.919041 
L 258.180032 143.361622 
L 259.811462 144.556092 
L 263.074322 141.052313 
L 264.705751 138.424479 
L 266.337181 138.902267 
L 267.968611 140.654157 
L 269.600041 140.176369 
L 272.862901 141.052313 
L 274.494331 142.167152 
L 276.125761 139.698581 
L 277.75719 140.893051 
L 279.38862 140.574525 
L 281.02005 139.618949 
L 282.65148 140.654157 
L 284.28291 140.654157 
L 285.91434 139.698581 
L 287.54577 140.893051 
L 289.1772 141.609733 
L 290.80863 140.017106 
L 292.440059 138.105954 
L 294.071489 139.300424 
L 295.702919 138.981899 
L 297.334349 139.778212 
L 298.965779 139.141161 
L 300.597209 140.972682 
L 302.228639 140.893051 
L 303.860069 142.167152 
L 305.491498 142.326415 
L 307.122928 141.052313 
L 308.754358 141.689364 
L 310.385788 142.485677 
L 312.017218 142.167152 
L 313.648648 142.724571 
L 315.280078 141.609733 
L 316.911508 141.052313 
L 318.542937 141.131945 
L 320.174367 141.689364 
L 321.805797 141.928258 
L 323.437227 143.122728 
L 325.068657 144.635724 
L 326.700087 145.352406 
L 328.331517 143.919041 
L 329.962947 142.724571 
L 331.594376 142.007889 
L 334.857236 142.406046 
L 336.488666 141.291207 
L 338.120096 139.618949 
L 341.382956 140.972682 
L 343.014386 139.698581 
L 346.277245 138.504111 
L 347.908675 136.274433 
L 349.540105 135.876276 
L 352.802965 135.717014 
L 354.434395 134.124387 
L 356.065825 134.761438 
L 357.697254 136.433696 
L 359.328684 135.637382 
L 360.960114 135.47812 
L 362.591544 136.67259 
L 364.222974 137.309641 
L 365.854404 136.194802 
L 367.485834 135.955908 
L 369.117264 138.743005 
L 370.748693 138.822636 
L 372.380123 137.548535 
L 374.011553 139.618949 
L 375.642983 140.733788 
L 377.274413 142.485677 
L 378.905843 142.64494 
L 380.537273 142.087521 
L 380.537273 142.087521 
" clip-path="url(#p569a0f4c5d)" style="fill: none; stroke: #d62728; stroke-width: 1.5; stroke-linecap: square"/>
   </g>
   <g id="patch_3">
    <path d="M 39.65 273.312 
L 39.65 7.2 
" style="fill: none; stroke: #000000; stroke-width: 0.8; stroke-linejoin: miter; stroke-linecap: square"/>
   </g>
   <g id="patch_4">
    <path d="M 396.77 273.312 
L 396.77 7.2 
" style="fill: none; stroke: #000000; stroke-width: 0.8; stroke-linejoin: miter; stroke-linecap: square"/>
   </g>
   <g id="patch_5">
    <path d="M 39.65 273.312 
L 396.77 273.312 
" style="fill: none; stroke: #000000; stroke-width: 0.8; stroke-linejoin: miter; stroke-linecap: square"/>
   </g>
   <g id="patch_6">
    <path d="M 39.65 7.2 
L 396.77 7.2 
" style="fill: none; stroke: #000000; stroke-width: 0.8; stroke-linejoin: miter; stroke-linecap: square"/>
   </g>
  </g>
 </g>
 <defs>
  <clipPath id="p569a0f4c5d">
   <rect x="39.65" y="7.2" width="357.12" height="266.112"/>
  </clipPath>
 </defs>
</svg>
