<?xml version="1.0" encoding="utf-8" standalone="no"?>
<!DOCTYPE svg PUBLIC "-//W3C//DTD SVG 1.1//EN"
  "http://www.w3.org/Graphics/SVG/1.1/DTD/svg11.dtd">
<svg xmlns:xlink="http://www.w3.org/1999/xlink" width="403.97pt" height="297.190125pt" viewBox="0 0 403.97 297.190125" xmlns="http://www.w3.org/2000/svg" version="1.1">
 <metadata>
  <rdf:RDF xmlns:dc="http://purl.org/dc/elements/1.1/" xmlns:cc="http://creativecommons.org/ns#" xmlns:rdf="http://www.w3.org/1999/02/22-rdf-syntax-ns#">
   <cc:Work>
    <dc:type rdf:resource="http://purl.org/dc/dcmitype/StillImage"/>
    <dc:date>2024-10-30T05:50:23.618893</dc:date>
    <dc:format>image/svg+xml</dc:format>
    <dc:creator>
     <cc:Agent>
      <dc:title>Matplotlib v3.9.2, https://matplotlib.org/</dc:title>
     </cc:Agent>
    </dc:creator>
   </cc:Work>
  </rdf:RDF>
 </metadata>
 <defs>
  <style type="text/css">*{stroke-linejoin: round; stroke-linecap: butt}</style>
 </defs>
 <g id="figure_1">
  <g id="patch_1">
   <path d="M 0 297.190125 
L 403.97 297.190125 
L 403.97 0 
L 0 0 
z
" style="fill: #ffffff"/>
  </g>
  <g id="axes_1">
   <g id="patch_2">
    <path d="M 39.65 273.312 
L 396.77 273.312 
L 396.77 7.2 
L 39.65 7.2 
z
" style="fill: #ffffff"/>
   </g>
   <g id="matplotlib.axis_1">
    <g id="xtick_1">
     <g id="line2d_1">
      <defs>
       <path id="mcf9ef0964e" d="M 0 0 
L 0 3.5 
" style="stroke: #000000; stroke-width: 0.8"/>
      </defs>
      <g>
       <use xlink:href="#mcf9ef0964e" x="55.882727" y="273.312" style="stroke: #000000; stroke-width: 0.8"/>
      </g>
     </g>
     <g id="text_1">
      <!-- 0.0 -->
      <g transform="translate(47.931165 287.910437) scale(0.1 -0.1)">
       <defs>
        <path id="DejaVuSans-30" d="M 2034 4250 
Q 1547 4250 1301 3770 
Q 1056 3291 1056 2328 
Q 1056 1369 1301 889 
Q 1547 409 2034 409 
Q 2525 409 2770 889 
Q 3016 1369 3016 2328 
Q 3016 3291 2770 3770 
Q 2525 4250 2034 4250 
z
M 2034 4750 
Q 2819 4750 3233 4129 
Q 3647 3509 3647 2328 
Q 3647 1150 3233 529 
Q 2819 -91 2034 -91 
Q 1250 -91 836 529 
Q 422 1150 422 2328 
Q 422 3509 836 4129 
Q 1250 4750 2034 4750 
z
" transform="scale(0.015625)"/>
        <path id="DejaVuSans-2e" d="M 684 794 
L 1344 794 
L 1344 0 
L 684 0 
L 684 794 
z
" transform="scale(0.015625)"/>
       </defs>
       <use xlink:href="#DejaVuSans-30"/>
       <use xlink:href="#DejaVuSans-2e" x="63.623047"/>
       <use xlink:href="#DejaVuSans-30" x="95.410156"/>
      </g>
     </g>
    </g>
    <g id="xtick_2">
     <g id="line2d_2">
      <g>
       <use xlink:href="#mcf9ef0964e" x="96.668474" y="273.312" style="stroke: #000000; stroke-width: 0.8"/>
      </g>
     </g>
     <g id="text_2">
      <!-- 2.5 -->
      <g transform="translate(88.716912 287.910437) scale(0.1 -0.1)">
       <defs>
        <path id="DejaVuSans-32" d="M 1228 531 
L 3431 531 
L 3431 0 
L 469 0 
L 469 531 
Q 828 903 1448 1529 
Q 2069 2156 2228 2338 
Q 2531 2678 2651 2914 
Q 2772 3150 2772 3378 
Q 2772 3750 2511 3984 
Q 2250 4219 1831 4219 
Q 1534 4219 1204 4116 
Q 875 4013 500 3803 
L 500 4441 
Q 881 4594 1212 4672 
Q 1544 4750 1819 4750 
Q 2544 4750 2975 4387 
Q 3406 4025 3406 3419 
Q 3406 3131 3298 2873 
Q 3191 2616 2906 2266 
Q 2828 2175 2409 1742 
Q 1991 1309 1228 531 
z
" transform="scale(0.015625)"/>
        <path id="DejaVuSans-35" d="M 691 4666 
L 3169 4666 
L 3169 4134 
L 1269 4134 
L 1269 2991 
Q 1406 3038 1543 3061 
Q 1681 3084 1819 3084 
Q 2600 3084 3056 2656 
Q 3513 2228 3513 1497 
Q 3513 744 3044 326 
Q 2575 -91 1722 -91 
Q 1428 -91 1123 -41 
Q 819 9 494 109 
L 494 744 
Q 775 591 1075 516 
Q 1375 441 1709 441 
Q 2250 441 2565 725 
Q 2881 1009 2881 1497 
Q 2881 1984 2565 2268 
Q 2250 2553 1709 2553 
Q 1456 2553 1204 2497 
Q 953 2441 691 2322 
L 691 4666 
z
" transform="scale(0.015625)"/>
       </defs>
       <use xlink:href="#DejaVuSans-32"/>
       <use xlink:href="#DejaVuSans-2e" x="63.623047"/>
       <use xlink:href="#DejaVuSans-35" x="95.410156"/>
      </g>
     </g>
    </g>
    <g id="xtick_3">
     <g id="line2d_3">
      <g>
       <use xlink:href="#mcf9ef0964e" x="137.454221" y="273.312" style="stroke: #000000; stroke-width: 0.8"/>
      </g>
     </g>
     <g id="text_3">
      <!-- 5.0 -->
      <g transform="translate(129.502659 287.910437) scale(0.1 -0.1)">
       <use xlink:href="#DejaVuSans-35"/>
       <use xlink:href="#DejaVuSans-2e" x="63.623047"/>
       <use xlink:href="#DejaVuSans-30" x="95.410156"/>
      </g>
     </g>
    </g>
    <g id="xtick_4">
     <g id="line2d_4">
      <g>
       <use xlink:href="#mcf9ef0964e" x="178.239968" y="273.312" style="stroke: #000000; stroke-width: 0.8"/>
      </g>
     </g>
     <g id="text_4">
      <!-- 7.5 -->
      <g transform="translate(170.288406 287.910437) scale(0.1 -0.1)">
       <defs>
        <path id="DejaVuSans-37" d="M 525 4666 
L 3525 4666 
L 3525 4397 
L 1831 0 
L 1172 0 
L 2766 4134 
L 525 4134 
L 525 4666 
z
" transform="scale(0.015625)"/>
       </defs>
       <use xlink:href="#DejaVuSans-37"/>
       <use xlink:href="#DejaVuSans-2e" x="63.623047"/>
       <use xlink:href="#DejaVuSans-35" x="95.410156"/>
      </g>
     </g>
    </g>
    <g id="xtick_5">
     <g id="line2d_5">
      <g>
       <use xlink:href="#mcf9ef0964e" x="219.025715" y="273.312" style="stroke: #000000; stroke-width: 0.8"/>
      </g>
     </g>
     <g id="text_5">
      <!-- 10.0 -->
      <g transform="translate(207.892902 287.910437) scale(0.1 -0.1)">
       <defs>
        <path id="DejaVuSans-31" d="M 794 531 
L 1825 531 
L 1825 4091 
L 703 3866 
L 703 4441 
L 1819 4666 
L 2450 4666 
L 2450 531 
L 3481 531 
L 3481 0 
L 794 0 
L 794 531 
z
" transform="scale(0.015625)"/>
       </defs>
       <use xlink:href="#DejaVuSans-31"/>
       <use xlink:href="#DejaVuSans-30" x="63.623047"/>
       <use xlink:href="#DejaVuSans-2e" x="127.246094"/>
       <use xlink:href="#DejaVuSans-30" x="159.033203"/>
      </g>
     </g>
    </g>
    <g id="xtick_6">
     <g id="line2d_6">
      <g>
       <use xlink:href="#mcf9ef0964e" x="259.811462" y="273.312" style="stroke: #000000; stroke-width: 0.8"/>
      </g>
     </g>
     <g id="text_6">
      <!-- 12.5 -->
      <g transform="translate(248.678649 287.910437) scale(0.1 -0.1)">
       <use xlink:href="#DejaVuSans-31"/>
       <use xlink:href="#DejaVuSans-32" x="63.623047"/>
       <use xlink:href="#DejaVuSans-2e" x="127.246094"/>
       <use xlink:href="#DejaVuSans-35" x="159.033203"/>
      </g>
     </g>
    </g>
    <g id="xtick_7">
     <g id="line2d_7">
      <g>
       <use xlink:href="#mcf9ef0964e" x="300.597209" y="273.312" style="stroke: #000000; stroke-width: 0.8"/>
      </g>
     </g>
     <g id="text_7">
      <!-- 15.0 -->
      <g transform="translate(289.464396 287.910437) scale(0.1 -0.1)">
       <use xlink:href="#DejaVuSans-31"/>
       <use xlink:href="#DejaVuSans-35" x="63.623047"/>
       <use xlink:href="#DejaVuSans-2e" x="127.246094"/>
       <use xlink:href="#DejaVuSans-30" x="159.033203"/>
      </g>
     </g>
    </g>
    <g id="xtick_8">
     <g id="line2d_8">
      <g>
       <use xlink:href="#mcf9ef0964e" x="341.382956" y="273.312" style="stroke: #000000; stroke-width: 0.8"/>
      </g>
     </g>
     <g id="text_8">
      <!-- 17.5 -->
      <g transform="translate(330.250143 287.910437) scale(0.1 -0.1)">
       <use xlink:href="#DejaVuSans-31"/>
       <use xlink:href="#DejaVuSans-37" x="63.623047"/>
       <use xlink:href="#DejaVuSans-2e" x="127.246094"/>
       <use xlink:href="#DejaVuSans-35" x="159.033203"/>
      </g>
     </g>
    </g>
    <g id="xtick_9">
     <g id="line2d_9">
      <g>
       <use xlink:href="#mcf9ef0964e" x="382.168703" y="273.312" style="stroke: #000000; stroke-width: 0.8"/>
      </g>
     </g>
     <g id="text_9">
      <!-- 20.0 -->
      <g transform="translate(371.03589 287.910437) scale(0.1 -0.1)">
       <use xlink:href="#DejaVuSans-32"/>
       <use xlink:href="#DejaVuSans-30" x="63.623047"/>
       <use xlink:href="#DejaVuSans-2e" x="127.246094"/>
       <use xlink:href="#DejaVuSans-30" x="159.033203"/>
      </g>
     </g>
    </g>
   </g>
   <g id="matplotlib.axis_2">
    <g id="ytick_1">
     <g id="line2d_10">
      <defs>
       <path id="me80d18073e" d="M 0 0 
L -3.5 0 
" style="stroke: #000000; stroke-width: 0.8"/>
      </defs>
      <g>
       <use xlink:href="#me80d18073e" x="39.65" y="261.216" style="stroke: #000000; stroke-width: 0.8"/>
      </g>
     </g>
     <g id="text_10">
      <!-- 0 -->
      <g transform="translate(26.2875 265.015219) scale(0.1 -0.1)">
       <use xlink:href="#DejaVuSans-30"/>
      </g>
     </g>
    </g>
    <g id="ytick_2">
     <g id="line2d_11">
      <g>
       <use xlink:href="#me80d18073e" x="39.65" y="220.502436" style="stroke: #000000; stroke-width: 0.8"/>
      </g>
     </g>
     <g id="text_11">
      <!-- 500 -->
      <g transform="translate(13.5625 224.301654) scale(0.1 -0.1)">
       <use xlink:href="#DejaVuSans-35"/>
       <use xlink:href="#DejaVuSans-30" x="63.623047"/>
       <use xlink:href="#DejaVuSans-30" x="127.246094"/>
      </g>
     </g>
    </g>
    <g id="ytick_3">
     <g id="line2d_12">
      <g>
       <use xlink:href="#me80d18073e" x="39.65" y="179.788871" style="stroke: #000000; stroke-width: 0.8"/>
      </g>
     </g>
     <g id="text_12">
      <!-- 1000 -->
      <g transform="translate(7.2 183.58809) scale(0.1 -0.1)">
       <use xlink:href="#DejaVuSans-31"/>
       <use xlink:href="#DejaVuSans-30" x="63.623047"/>
       <use xlink:href="#DejaVuSans-30" x="127.246094"/>
       <use xlink:href="#DejaVuSans-30" x="190.869141"/>
      </g>
     </g>
    </g>
    <g id="ytick_4">
     <g id="line2d_13">
      <g>
       <use xlink:href="#me80d18073e" x="39.65" y="139.075307" style="stroke: #000000; stroke-width: 0.8"/>
      </g>
     </g>
     <g id="text_13">
      <!-- 1500 -->
      <g transform="translate(7.2 142.874525) scale(0.1 -0.1)">
       <use xlink:href="#DejaVuSans-31"/>
       <use xlink:href="#DejaVuSans-35" x="63.623047"/>
       <use xlink:href="#DejaVuSans-30" x="127.246094"/>
       <use xlink:href="#DejaVuSans-30" x="190.869141"/>
      </g>
     </g>
    </g>
    <g id="ytick_5">
     <g id="line2d_14">
      <g>
       <use xlink:href="#me80d18073e" x="39.65" y="98.361742" style="stroke: #000000; stroke-width: 0.8"/>
      </g>
     </g>
     <g id="text_14">
      <!-- 2000 -->
      <g transform="translate(7.2 102.160961) scale(0.1 -0.1)">
       <use xlink:href="#DejaVuSans-32"/>
       <use xlink:href="#DejaVuSans-30" x="63.623047"/>
       <use xlink:href="#DejaVuSans-30" x="127.246094"/>
       <use xlink:href="#DejaVuSans-30" x="190.869141"/>
      </g>
     </g>
    </g>
    <g id="ytick_6">
     <g id="line2d_15">
      <g>
       <use xlink:href="#me80d18073e" x="39.65" y="57.648178" style="stroke: #000000; stroke-width: 0.8"/>
      </g>
     </g>
     <g id="text_15">
      <!-- 2500 -->
      <g transform="translate(7.2 61.447396) scale(0.1 -0.1)">
       <use xlink:href="#DejaVuSans-32"/>
       <use xlink:href="#DejaVuSans-35" x="63.623047"/>
       <use xlink:href="#DejaVuSans-30" x="127.246094"/>
       <use xlink:href="#DejaVuSans-30" x="190.869141"/>
      </g>
     </g>
    </g>
    <g id="ytick_7">
     <g id="line2d_16">
      <g>
       <use xlink:href="#me80d18073e" x="39.65" y="16.934613" style="stroke: #000000; stroke-width: 0.8"/>
      </g>
     </g>
     <g id="text_16">
      <!-- 3000 -->
      <g transform="translate(7.2 20.733832) scale(0.1 -0.1)">
       <defs>
        <path id="DejaVuSans-33" d="M 2597 2516 
Q 3050 2419 3304 2112 
Q 3559 1806 3559 1356 
Q 3559 666 3084 287 
Q 2609 -91 1734 -91 
Q 1441 -91 1130 -33 
Q 819 25 488 141 
L 488 750 
Q 750 597 1062 519 
Q 1375 441 1716 441 
Q 2309 441 2620 675 
Q 2931 909 2931 1356 
Q 2931 1769 2642 2001 
Q 2353 2234 1838 2234 
L 1294 2234 
L 1294 2753 
L 1863 2753 
Q 2328 2753 2575 2939 
Q 2822 3125 2822 3475 
Q 2822 3834 2567 4026 
Q 2313 4219 1838 4219 
Q 1578 4219 1281 4162 
Q 984 4106 628 3988 
L 628 4550 
Q 988 4650 1302 4700 
Q 1616 4750 1894 4750 
Q 2613 4750 3031 4423 
Q 3450 4097 3450 3541 
Q 3450 3153 3228 2886 
Q 3006 2619 2597 2516 
z
" transform="scale(0.015625)"/>
       </defs>
       <use xlink:href="#DejaVuSans-33"/>
       <use xlink:href="#DejaVuSans-30" x="63.623047"/>
       <use xlink:href="#DejaVuSans-30" x="127.246094"/>
       <use xlink:href="#DejaVuSans-30" x="190.869141"/>
      </g>
     </g>
    </g>
   </g>
   <g id="line2d_17">
    <path d="M 55.882727 261.216 
L 59.961302 240.859218 
L 64.039877 222.464829 
L 68.118451 205.84366 
L 72.197026 190.824771 
L 76.275601 177.253704 
L 80.354175 164.990887 
L 84.43275 153.910205 
L 88.511325 143.897702 
L 92.589899 134.850403 
L 96.668474 126.675265 
L 100.747049 119.288209 
L 104.825624 112.613266 
L 108.904198 106.581788 
L 112.982773 101.131743 
L 117.061348 96.207083 
L 121.139922 91.757161 
L 125.218497 87.736211 
L 129.297072 84.10288 
L 133.375646 80.819803 
L 137.454221 77.853214 
L 141.532796 75.172604 
L 145.61137 72.750405 
L 149.689945 70.561706 
L 153.76852 68.583998 
L 157.847095 66.796941 
L 161.925669 65.182156 
L 166.004244 63.723036 
L 170.082819 62.404576 
L 174.161393 61.213215 
L 178.239968 60.136701 
L 182.318543 59.163963 
L 186.397117 58.284997 
L 190.475692 57.490764 
L 194.554267 56.773094 
L 198.632841 56.124608 
L 202.711416 55.538636 
L 206.789991 55.009152 
L 210.868566 54.53071 
L 214.94714 54.098389 
L 219.025715 53.707745 
L 223.10429 53.354758 
L 227.182864 53.0358 
L 231.261439 52.747589 
L 235.340014 52.487162 
L 239.418588 52.251839 
L 243.497163 52.039202 
L 247.575738 51.847063 
L 251.654312 51.673447 
L 255.732887 51.516567 
L 259.811462 51.37481 
L 263.890037 51.246718 
L 267.968611 51.130975 
L 272.047186 51.026389 
L 276.125761 50.931885 
L 280.204335 50.846492 
L 284.28291 50.76933 
L 288.361485 50.699607 
L 292.440059 50.636605 
L 296.518634 50.579676 
L 300.597209 50.528236 
L 304.675783 50.481754 
L 308.754358 50.439753 
L 312.832933 50.401801 
L 316.911508 50.367508 
L 320.990082 50.33652 
L 325.068657 50.30852 
L 329.147232 50.283219 
L 333.225806 50.260356 
L 337.304381 50.239698 
L 341.382956 50.221032 
L 345.46153 50.204164 
L 349.540105 50.188923 
L 353.61868 50.175151 
L 357.697254 50.162707 
L 361.775829 50.151462 
L 365.854404 50.141301 
L 369.932979 50.13212 
L 374.011553 50.123824 
L 378.090128 50.116327 
" clip-path="url(#p18d1fafe3d)" style="fill: none; stroke: #1f77b4; stroke-width: 1.5; stroke-linecap: square"/>
   </g>
   <g id="line2d_18">
    <path d="M 55.882727 261.216 
L 59.961302 261.216 
L 64.039877 259.253606 
L 68.118451 255.98936 
L 72.197026 251.906906 
L 76.275601 247.357236 
L 80.354175 242.592145 
L 84.43275 237.789494 
L 88.511325 233.072262 
L 92.589899 228.522904 
L 96.668474 224.194142 
L 100.747049 220.117066 
L 104.825624 216.307191 
L 108.904198 212.768983 
L 112.982773 209.499219 
L 117.061348 206.489467 
L 121.139922 203.727921 
L 125.218497 201.200725 
L 129.297072 198.892943 
L 133.375646 196.789236 
L 137.454221 194.874351 
L 141.532796 193.133443 
L 145.61137 191.55229 
L 149.689945 190.11743 
L 153.76852 188.816232 
L 157.847095 187.636932 
L 161.925669 186.568626 
L 166.004244 185.601263 
L 170.082819 184.725601 
L 174.161393 183.933174 
L 178.239968 183.21624 
L 182.318543 182.567738 
L 186.397117 181.981234 
L 190.475692 181.450876 
L 194.554267 180.971346 
L 198.632841 180.537816 
L 202.711416 180.145906 
L 206.789991 179.791644 
L 210.868566 179.471434 
L 214.94714 179.182017 
L 219.025715 178.920442 
L 223.10429 178.684039 
L 227.182864 178.470393 
L 231.261439 178.277316 
L 235.340014 178.102833 
L 239.418588 177.945156 
L 243.497163 177.802668 
L 247.575738 177.673907 
L 251.654312 177.557552 
L 255.732887 177.452409 
L 259.811462 177.357398 
L 263.890037 177.271544 
L 267.968611 177.193963 
L 272.047186 177.12386 
L 276.125761 177.060514 
L 280.204335 177.003273 
L 284.28291 176.951549 
L 288.361485 176.904811 
L 292.440059 176.862579 
L 296.518634 176.824417 
L 300.597209 176.789933 
L 304.675783 176.758774 
L 308.754358 176.730618 
L 312.832933 176.705177 
L 316.911508 176.682188 
L 320.990082 176.661415 
L 325.068657 176.642644 
L 329.147232 176.625683 
L 333.225806 176.610357 
L 337.304381 176.596509 
L 341.382956 176.583995 
L 345.46153 176.572688 
L 349.540105 176.56247 
L 353.61868 176.553238 
L 357.697254 176.544895 
L 361.775829 176.537357 
L 365.854404 176.530546 
L 369.932979 176.524391 
L 374.011553 176.518829 
L 378.090128 176.513804 
" clip-path="url(#p18d1fafe3d)" style="fill: none; stroke: #ff7f0e; stroke-width: 1.5; stroke-linecap: square"/>
   </g>
   <g id="line2d_19">
    <path d="M 55.882727 261.216 
L 57.514157 253.806131 
L 59.145587 247.129107 
L 60.777017 239.882092 
L 62.408447 231.250817 
L 64.039877 223.922375 
L 65.671307 217.978195 
L 68.934166 207.229814 
L 72.197026 194.201473 
L 73.828456 188.420147 
L 75.459886 183.453092 
L 77.091316 177.346057 
L 78.722746 172.704711 
L 81.985605 162.200611 
L 85.248465 151.615084 
L 86.879895 147.706582 
L 88.511325 142.6581 
L 90.142755 138.098181 
L 91.774185 134.596815 
L 93.405614 133.456835 
L 95.037044 129.304051 
L 96.668474 124.336996 
L 99.931334 118.311389 
L 101.562764 113.75147 
L 103.194194 109.76154 
L 104.825624 106.178747 
L 106.457053 101.700254 
L 108.088483 99.013159 
L 111.351343 94.208959 
L 112.982773 91.359009 
L 114.614203 91.114728 
L 116.245633 88.671914 
L 119.508492 84.51913 
L 121.139922 81.669181 
L 122.771352 79.470648 
L 124.402782 76.86498 
L 126.034212 75.399292 
L 127.665642 72.712197 
L 129.297072 69.373684 
L 132.559931 67.256579 
L 134.191361 65.058046 
L 135.822791 63.429504 
L 137.454221 62.778087 
L 139.085651 61.55668 
L 140.717081 59.928137 
L 142.348511 57.322469 
L 143.979941 55.205364 
L 145.61137 53.576821 
L 147.2428 51.215435 
L 148.87423 50.156882 
L 150.50566 48.365485 
L 152.13709 48.121204 
L 153.76852 46.574088 
L 155.39995 47.144078 
L 157.03138 47.469787 
L 158.66281 47.062651 
L 160.294239 47.306932 
L 161.925669 45.434108 
L 163.557099 45.189827 
L 166.819959 43.805566 
L 168.451389 44.782691 
L 171.714249 42.584159 
L 173.345678 43.479857 
L 176.608538 41.769888 
L 178.239968 40.548481 
L 179.871398 38.512802 
L 181.502828 39.571355 
L 183.134258 38.675657 
L 184.765688 38.512802 
L 186.397117 37.047114 
L 188.028547 34.848582 
L 191.291407 33.708602 
L 192.922837 34.115737 
L 194.554267 32.975758 
L 196.185697 30.940079 
L 197.817127 30.451517 
L 199.448556 29.718673 
L 201.079986 30.940079 
L 202.711416 30.125808 
L 204.342846 27.194432 
L 205.974276 28.334411 
L 207.605706 28.578693 
L 209.237136 27.682994 
L 210.868566 26.543014 
L 215.762855 26.95015 
L 217.394285 25.077326 
L 219.025715 24.425909 
L 220.657145 22.553085 
L 222.288575 23.611638 
L 223.920005 23.285929 
L 225.551434 25.565889 
L 227.182864 25.403035 
L 228.814294 25.403035 
L 230.445724 24.507336 
L 232.077154 23.774492 
L 233.708584 23.204502 
L 235.340014 24.263055 
L 236.971444 25.484462 
L 238.602873 23.855919 
L 240.234303 24.588763 
L 241.865733 23.855919 
L 243.497163 24.181628 
L 246.760023 25.24018 
L 248.391453 24.833045 
L 250.022883 26.135879 
L 251.654312 23.774492 
L 253.285742 25.158753 
L 254.917172 25.565889 
L 256.548602 24.181628 
L 258.180032 26.054452 
L 259.811462 24.751618 
L 261.442892 23.204502 
L 263.074322 22.14595 
L 264.705751 22.634512 
L 266.337181 24.263055 
L 267.968611 26.38016 
L 269.600041 28.09013 
L 271.231471 27.275859 
L 272.862901 27.601567 
L 274.494331 27.52014 
L 276.125761 27.682994 
L 277.75719 26.298733 
L 279.38862 25.158753 
L 281.02005 25.077326 
L 282.65148 24.751618 
L 284.28291 25.891597 
L 285.91434 25.403035 
L 287.54577 26.705869 
L 289.1772 26.298733 
L 290.80863 25.158753 
L 292.440059 25.403035 
L 294.071489 24.018773 
L 295.702919 24.100201 
L 297.334349 23.774492 
L 298.965779 23.611638 
L 300.597209 21.983095 
L 302.228639 21.820241 
L 305.491498 20.191698 
L 307.122928 20.191698 
L 308.754358 20.517407 
L 312.017218 19.296 
L 313.648648 20.598834 
L 315.280078 21.738814 
L 316.911508 21.738814 
L 318.542937 19.784563 
L 320.174367 20.273126 
L 321.805797 22.960221 
L 323.437227 24.100201 
L 325.068657 22.390231 
L 326.700087 23.367356 
L 328.331517 23.937346 
L 329.962947 25.077326 
L 331.594376 23.530211 
L 333.225806 24.914472 
L 334.857236 23.041648 
L 336.488666 24.181628 
L 338.120096 24.588763 
L 341.382956 23.123075 
L 343.014386 21.657387 
L 344.645815 21.657387 
L 346.277245 21.168824 
L 347.908675 23.774492 
L 349.540105 24.100201 
L 351.171535 23.611638 
L 352.802965 25.647316 
L 354.434395 26.217306 
L 356.065825 24.181628 
L 357.697254 23.774492 
L 359.328684 23.041648 
L 360.960114 22.715939 
L 362.591544 22.960221 
L 364.222974 22.715939 
L 365.854404 21.657387 
L 367.485834 20.761688 
L 369.117264 21.983095 
L 370.748693 22.227377 
L 372.380123 22.797367 
L 374.011553 21.738814 
L 375.642983 22.064522 
L 377.274413 22.715939 
L 378.905843 22.471658 
L 380.537273 23.855919 
L 380.537273 23.855919 
" clip-path="url(#p18d1fafe3d)" style="fill: none; stroke: #2ca02c; stroke-width: 1.5; stroke-linecap: square"/>
   </g>
   <g id="line2d_20">
    <path d="M 55.882727 261.216 
L 57.514157 261.134573 
L 59.145587 260.727437 
L 60.777017 259.913166 
L 62.408447 259.587457 
L 64.039877 258.528905 
L 65.671307 256.656081 
L 67.302736 255.597528 
L 68.934166 253.887558 
L 70.565596 251.933307 
L 72.197026 250.467619 
L 73.828456 248.513368 
L 75.459886 246.314835 
L 77.091316 245.33771 
L 80.354175 241.103499 
L 83.617035 237.520705 
L 85.248465 236.055017 
L 86.879895 233.205068 
L 88.511325 232.390796 
L 90.142755 230.355118 
L 91.774185 228.645148 
L 93.405614 225.876626 
L 95.037044 223.678094 
L 96.668474 222.293832 
L 99.931334 218.141049 
L 101.562764 216.593933 
L 103.194194 215.535381 
L 104.825624 213.825411 
L 106.457053 212.848285 
L 108.088483 211.056889 
L 109.719913 207.636949 
L 111.351343 206.089834 
L 112.982773 203.972728 
L 114.614203 201.204206 
L 116.245633 198.028548 
L 119.508492 195.585734 
L 121.139922 194.608609 
L 122.771352 193.305774 
L 124.402782 190.537252 
L 126.034212 188.257292 
L 127.665642 186.954458 
L 129.297072 186.05876 
L 130.928502 185.325916 
L 132.559931 182.801675 
L 134.191361 181.987404 
L 135.822791 181.010278 
L 139.085651 176.450359 
L 140.717081 175.55466 
L 142.348511 173.844691 
L 145.61137 172.379002 
L 147.2428 172.134721 
L 148.87423 169.121917 
L 150.50566 168.877636 
L 152.13709 167.411947 
L 153.76852 166.841958 
L 155.39995 164.154862 
L 157.03138 161.142059 
L 158.66281 159.269235 
L 160.294239 158.454963 
L 161.925669 158.454963 
L 166.819959 157.233556 
L 168.451389 156.093577 
L 170.082819 155.605014 
L 173.345678 155.035024 
L 174.977108 153.487908 
L 176.608538 154.465034 
L 178.239968 153.813617 
L 179.871398 154.139325 
L 181.502828 152.673637 
L 183.134258 153.1622 
L 184.765688 152.347929 
L 186.397117 152.59221 
L 188.028547 150.393678 
L 189.659977 149.742261 
L 191.291407 151.207949 
L 192.922837 149.253698 
L 194.554267 149.253698 
L 196.185697 150.88224 
L 197.817127 150.800813 
L 199.448556 152.103647 
L 202.711416 150.067969 
L 204.342846 149.823688 
L 205.974276 146.810884 
L 207.605706 145.670904 
L 209.237136 145.752331 
L 210.868566 147.380874 
L 212.499995 146.566602 
L 214.131425 145.996613 
L 215.762855 147.055165 
L 217.394285 147.462301 
L 220.657145 146.240894 
L 222.288575 145.752331 
L 223.920005 145.426623 
L 225.551434 143.22809 
L 227.182864 142.6581 
L 228.814294 142.6581 
L 230.445724 142.902382 
L 232.077154 144.775206 
L 235.340014 144.530924 
L 238.602873 144.856633 
L 240.234303 143.472372 
L 241.865733 144.36807 
L 245.128593 145.589477 
L 246.760023 145.100914 
L 248.391453 145.50805 
L 250.022883 143.960934 
L 251.654312 145.182341 
L 253.285742 143.716653 
L 256.548602 143.390944 
L 258.180032 142.495246 
L 259.811462 142.576673 
L 261.442892 142.983809 
L 263.074322 144.612351 
L 264.705751 144.042361 
L 266.337181 141.762402 
L 267.968611 138.831025 
L 269.600041 140.215286 
L 271.231471 141.843829 
L 272.862901 141.599548 
L 274.494331 142.332392 
L 276.125761 141.925256 
L 277.75719 143.879507 
L 281.02005 144.449497 
L 282.65148 143.22809 
L 284.28291 143.79808 
L 289.1772 140.215286 
L 290.80863 141.355266 
L 292.440059 140.866703 
L 294.071489 141.355266 
L 295.702919 142.820955 
L 297.334349 142.006683 
L 298.965779 142.902382 
L 300.597209 144.042361 
L 302.228639 145.345196 
L 303.860069 146.403748 
L 305.491498 145.752331 
L 307.122928 146.403748 
L 308.754358 145.019487 
L 310.385788 145.50805 
L 312.017218 143.960934 
L 313.648648 142.6581 
L 315.280078 142.739527 
L 316.911508 142.08811 
L 318.542937 142.413819 
L 321.805797 139.563869 
L 323.437227 138.179608 
L 325.068657 139.889578 
L 326.700087 138.179608 
L 328.331517 137.772473 
L 329.962947 138.016754 
L 331.594376 140.296714 
L 333.225806 139.482442 
L 334.857236 141.273839 
L 336.488666 139.075307 
L 338.120096 138.668171 
L 339.751526 140.540995 
L 343.014386 141.925256 
L 344.645815 142.250965 
L 346.277245 141.843829 
L 347.908675 141.029558 
L 349.540105 142.413819 
L 351.171535 142.08811 
L 352.802965 142.006683 
L 354.434395 141.680975 
L 356.065825 141.843829 
L 357.697254 141.110985 
L 359.328684 142.820955 
L 360.960114 143.553799 
L 362.591544 143.716653 
L 364.222974 143.472372 
L 365.854404 144.205216 
L 367.485834 143.79808 
L 369.117264 142.413819 
L 370.748693 143.065236 
L 372.380123 141.762402 
L 374.011553 142.006683 
L 375.642983 142.08811 
L 377.274413 141.762402 
L 378.905843 141.843829 
L 380.537273 139.563869 
L 380.537273 139.563869 
" clip-path="url(#p18d1fafe3d)" style="fill: none; stroke: #d62728; stroke-width: 1.5; stroke-linecap: square"/>
   </g>
   <g id="patch_3">
    <path d="M 39.65 273.312 
L 39.65 7.2 
" style="fill: none; stroke: #000000; stroke-width: 0.8; stroke-linejoin: miter; stroke-linecap: square"/>
   </g>
   <g id="patch_4">
    <path d="M 396.77 273.312 
L 396.77 7.2 
" style="fill: none; stroke: #000000; stroke-width: 0.8; stroke-linejoin: miter; stroke-linecap: square"/>
   </g>
   <g id="patch_5">
    <path d="M 39.65 273.312 
L 396.77 273.312 
" style="fill: none; stroke: #000000; stroke-width: 0.8; stroke-linejoin: miter; stroke-linecap: square"/>
   </g>
   <g id="patch_6">
    <path d="M 39.65 7.2 
L 396.77 7.2 
" style="fill: none; stroke: #000000; stroke-width: 0.8; stroke-linejoin: miter; stroke-linecap: square"/>
   </g>
  </g>
 </g>
 <defs>
  <clipPath id="p18d1fafe3d">
   <rect x="39.65" y="7.2" width="357.12" height="266.112"/>
  </clipPath>
 </defs>
</svg>
