<?xml version="1.0" encoding="utf-8" standalone="no"?>
<!DOCTYPE svg PUBLIC "-//W3C//DTD SVG 1.1//EN"
  "http://www.w3.org/Graphics/SVG/1.1/DTD/svg11.dtd">
<svg xmlns:xlink="http://www.w3.org/1999/xlink" width="397.6075pt" height="297.190125pt" viewBox="0 0 397.6075 297.190125" xmlns="http://www.w3.org/2000/svg" version="1.1">
 <metadata>
  <rdf:RDF xmlns:dc="http://purl.org/dc/elements/1.1/" xmlns:cc="http://creativecommons.org/ns#" xmlns:rdf="http://www.w3.org/1999/02/22-rdf-syntax-ns#">
   <cc:Work>
    <dc:type rdf:resource="http://purl.org/dc/dcmitype/StillImage"/>
    <dc:date>2024-10-30T12:01:15.158755</dc:date>
    <dc:format>image/svg+xml</dc:format>
    <dc:creator>
     <cc:Agent>
      <dc:title>Matplotlib v3.9.2, https://matplotlib.org/</dc:title>
     </cc:Agent>
    </dc:creator>
   </cc:Work>
  </rdf:RDF>
 </metadata>
 <defs>
  <style type="text/css">*{stroke-linejoin: round; stroke-linecap: butt}</style>
 </defs>
 <g id="figure_1">
  <g id="patch_1">
   <path d="M 0 297.190125 
L 397.6075 297.190125 
L 397.6075 0 
L 0 0 
z
" style="fill: #ffffff"/>
  </g>
  <g id="axes_1">
   <g id="patch_2">
    <path d="M 33.2875 273.312 
L 390.4075 273.312 
L 390.4075 7.2 
L 33.2875 7.2 
z
" style="fill: #ffffff"/>
   </g>
   <g id="matplotlib.axis_1">
    <g id="xtick_1">
     <g id="line2d_1">
      <defs>
       <path id="m336515fc77" d="M 0 0 
L 0 3.5 
" style="stroke: #000000; stroke-width: 0.8"/>
      </defs>
      <g>
       <use xlink:href="#m336515fc77" x="49.520227" y="273.312" style="stroke: #000000; stroke-width: 0.8"/>
      </g>
     </g>
     <g id="text_1">
      <!-- 0.0 -->
      <g transform="translate(41.568665 287.910437) scale(0.1 -0.1)">
       <defs>
        <path id="DejaVuSans-30" d="M 2034 4250 
Q 1547 4250 1301 3770 
Q 1056 3291 1056 2328 
Q 1056 1369 1301 889 
Q 1547 409 2034 409 
Q 2525 409 2770 889 
Q 3016 1369 3016 2328 
Q 3016 3291 2770 3770 
Q 2525 4250 2034 4250 
z
M 2034 4750 
Q 2819 4750 3233 4129 
Q 3647 3509 3647 2328 
Q 3647 1150 3233 529 
Q 2819 -91 2034 -91 
Q 1250 -91 836 529 
Q 422 1150 422 2328 
Q 422 3509 836 4129 
Q 1250 4750 2034 4750 
z
" transform="scale(0.015625)"/>
        <path id="DejaVuSans-2e" d="M 684 794 
L 1344 794 
L 1344 0 
L 684 0 
L 684 794 
z
" transform="scale(0.015625)"/>
       </defs>
       <use xlink:href="#DejaVuSans-30"/>
       <use xlink:href="#DejaVuSans-2e" x="63.623047"/>
       <use xlink:href="#DejaVuSans-30" x="95.410156"/>
      </g>
     </g>
    </g>
    <g id="xtick_2">
     <g id="line2d_2">
      <g>
       <use xlink:href="#m336515fc77" x="90.305974" y="273.312" style="stroke: #000000; stroke-width: 0.8"/>
      </g>
     </g>
     <g id="text_2">
      <!-- 2.5 -->
      <g transform="translate(82.354412 287.910437) scale(0.1 -0.1)">
       <defs>
        <path id="DejaVuSans-32" d="M 1228 531 
L 3431 531 
L 3431 0 
L 469 0 
L 469 531 
Q 828 903 1448 1529 
Q 2069 2156 2228 2338 
Q 2531 2678 2651 2914 
Q 2772 3150 2772 3378 
Q 2772 3750 2511 3984 
Q 2250 4219 1831 4219 
Q 1534 4219 1204 4116 
Q 875 4013 500 3803 
L 500 4441 
Q 881 4594 1212 4672 
Q 1544 4750 1819 4750 
Q 2544 4750 2975 4387 
Q 3406 4025 3406 3419 
Q 3406 3131 3298 2873 
Q 3191 2616 2906 2266 
Q 2828 2175 2409 1742 
Q 1991 1309 1228 531 
z
" transform="scale(0.015625)"/>
        <path id="DejaVuSans-35" d="M 691 4666 
L 3169 4666 
L 3169 4134 
L 1269 4134 
L 1269 2991 
Q 1406 3038 1543 3061 
Q 1681 3084 1819 3084 
Q 2600 3084 3056 2656 
Q 3513 2228 3513 1497 
Q 3513 744 3044 326 
Q 2575 -91 1722 -91 
Q 1428 -91 1123 -41 
Q 819 9 494 109 
L 494 744 
Q 775 591 1075 516 
Q 1375 441 1709 441 
Q 2250 441 2565 725 
Q 2881 1009 2881 1497 
Q 2881 1984 2565 2268 
Q 2250 2553 1709 2553 
Q 1456 2553 1204 2497 
Q 953 2441 691 2322 
L 691 4666 
z
" transform="scale(0.015625)"/>
       </defs>
       <use xlink:href="#DejaVuSans-32"/>
       <use xlink:href="#DejaVuSans-2e" x="63.623047"/>
       <use xlink:href="#DejaVuSans-35" x="95.410156"/>
      </g>
     </g>
    </g>
    <g id="xtick_3">
     <g id="line2d_3">
      <g>
       <use xlink:href="#m336515fc77" x="131.091721" y="273.312" style="stroke: #000000; stroke-width: 0.8"/>
      </g>
     </g>
     <g id="text_3">
      <!-- 5.0 -->
      <g transform="translate(123.140159 287.910437) scale(0.1 -0.1)">
       <use xlink:href="#DejaVuSans-35"/>
       <use xlink:href="#DejaVuSans-2e" x="63.623047"/>
       <use xlink:href="#DejaVuSans-30" x="95.410156"/>
      </g>
     </g>
    </g>
    <g id="xtick_4">
     <g id="line2d_4">
      <g>
       <use xlink:href="#m336515fc77" x="171.877468" y="273.312" style="stroke: #000000; stroke-width: 0.8"/>
      </g>
     </g>
     <g id="text_4">
      <!-- 7.5 -->
      <g transform="translate(163.925906 287.910437) scale(0.1 -0.1)">
       <defs>
        <path id="DejaVuSans-37" d="M 525 4666 
L 3525 4666 
L 3525 4397 
L 1831 0 
L 1172 0 
L 2766 4134 
L 525 4134 
L 525 4666 
z
" transform="scale(0.015625)"/>
       </defs>
       <use xlink:href="#DejaVuSans-37"/>
       <use xlink:href="#DejaVuSans-2e" x="63.623047"/>
       <use xlink:href="#DejaVuSans-35" x="95.410156"/>
      </g>
     </g>
    </g>
    <g id="xtick_5">
     <g id="line2d_5">
      <g>
       <use xlink:href="#m336515fc77" x="212.663215" y="273.312" style="stroke: #000000; stroke-width: 0.8"/>
      </g>
     </g>
     <g id="text_5">
      <!-- 10.0 -->
      <g transform="translate(201.530402 287.910437) scale(0.1 -0.1)">
       <defs>
        <path id="DejaVuSans-31" d="M 794 531 
L 1825 531 
L 1825 4091 
L 703 3866 
L 703 4441 
L 1819 4666 
L 2450 4666 
L 2450 531 
L 3481 531 
L 3481 0 
L 794 0 
L 794 531 
z
" transform="scale(0.015625)"/>
       </defs>
       <use xlink:href="#DejaVuSans-31"/>
       <use xlink:href="#DejaVuSans-30" x="63.623047"/>
       <use xlink:href="#DejaVuSans-2e" x="127.246094"/>
       <use xlink:href="#DejaVuSans-30" x="159.033203"/>
      </g>
     </g>
    </g>
    <g id="xtick_6">
     <g id="line2d_6">
      <g>
       <use xlink:href="#m336515fc77" x="253.448962" y="273.312" style="stroke: #000000; stroke-width: 0.8"/>
      </g>
     </g>
     <g id="text_6">
      <!-- 12.5 -->
      <g transform="translate(242.316149 287.910437) scale(0.1 -0.1)">
       <use xlink:href="#DejaVuSans-31"/>
       <use xlink:href="#DejaVuSans-32" x="63.623047"/>
       <use xlink:href="#DejaVuSans-2e" x="127.246094"/>
       <use xlink:href="#DejaVuSans-35" x="159.033203"/>
      </g>
     </g>
    </g>
    <g id="xtick_7">
     <g id="line2d_7">
      <g>
       <use xlink:href="#m336515fc77" x="294.234709" y="273.312" style="stroke: #000000; stroke-width: 0.8"/>
      </g>
     </g>
     <g id="text_7">
      <!-- 15.0 -->
      <g transform="translate(283.101896 287.910437) scale(0.1 -0.1)">
       <use xlink:href="#DejaVuSans-31"/>
       <use xlink:href="#DejaVuSans-35" x="63.623047"/>
       <use xlink:href="#DejaVuSans-2e" x="127.246094"/>
       <use xlink:href="#DejaVuSans-30" x="159.033203"/>
      </g>
     </g>
    </g>
    <g id="xtick_8">
     <g id="line2d_8">
      <g>
       <use xlink:href="#m336515fc77" x="335.020456" y="273.312" style="stroke: #000000; stroke-width: 0.8"/>
      </g>
     </g>
     <g id="text_8">
      <!-- 17.5 -->
      <g transform="translate(323.887643 287.910437) scale(0.1 -0.1)">
       <use xlink:href="#DejaVuSans-31"/>
       <use xlink:href="#DejaVuSans-37" x="63.623047"/>
       <use xlink:href="#DejaVuSans-2e" x="127.246094"/>
       <use xlink:href="#DejaVuSans-35" x="159.033203"/>
      </g>
     </g>
    </g>
    <g id="xtick_9">
     <g id="line2d_9">
      <g>
       <use xlink:href="#m336515fc77" x="375.806203" y="273.312" style="stroke: #000000; stroke-width: 0.8"/>
      </g>
     </g>
     <g id="text_9">
      <!-- 20.0 -->
      <g transform="translate(364.67339 287.910437) scale(0.1 -0.1)">
       <use xlink:href="#DejaVuSans-32"/>
       <use xlink:href="#DejaVuSans-30" x="63.623047"/>
       <use xlink:href="#DejaVuSans-2e" x="127.246094"/>
       <use xlink:href="#DejaVuSans-30" x="159.033203"/>
      </g>
     </g>
    </g>
   </g>
   <g id="matplotlib.axis_2">
    <g id="ytick_1">
     <g id="line2d_10">
      <defs>
       <path id="mcf342894f4" d="M 0 0 
L -3.5 0 
" style="stroke: #000000; stroke-width: 0.8"/>
      </defs>
      <g>
       <use xlink:href="#mcf342894f4" x="33.2875" y="261.216" style="stroke: #000000; stroke-width: 0.8"/>
      </g>
     </g>
     <g id="text_10">
      <!-- 0 -->
      <g transform="translate(19.925 265.015219) scale(0.1 -0.1)">
       <use xlink:href="#DejaVuSans-30"/>
      </g>
     </g>
    </g>
    <g id="ytick_2">
     <g id="line2d_11">
      <g>
       <use xlink:href="#mcf342894f4" x="33.2875" y="230.631479" style="stroke: #000000; stroke-width: 0.8"/>
      </g>
     </g>
     <g id="text_11">
      <!-- 50 -->
      <g transform="translate(13.5625 234.430698) scale(0.1 -0.1)">
       <use xlink:href="#DejaVuSans-35"/>
       <use xlink:href="#DejaVuSans-30" x="63.623047"/>
      </g>
     </g>
    </g>
    <g id="ytick_3">
     <g id="line2d_12">
      <g>
       <use xlink:href="#mcf342894f4" x="33.2875" y="200.046958" style="stroke: #000000; stroke-width: 0.8"/>
      </g>
     </g>
     <g id="text_12">
      <!-- 100 -->
      <g transform="translate(7.2 203.846177) scale(0.1 -0.1)">
       <use xlink:href="#DejaVuSans-31"/>
       <use xlink:href="#DejaVuSans-30" x="63.623047"/>
       <use xlink:href="#DejaVuSans-30" x="127.246094"/>
      </g>
     </g>
    </g>
    <g id="ytick_4">
     <g id="line2d_13">
      <g>
       <use xlink:href="#mcf342894f4" x="33.2875" y="169.462437" style="stroke: #000000; stroke-width: 0.8"/>
      </g>
     </g>
     <g id="text_13">
      <!-- 150 -->
      <g transform="translate(7.2 173.261655) scale(0.1 -0.1)">
       <use xlink:href="#DejaVuSans-31"/>
       <use xlink:href="#DejaVuSans-35" x="63.623047"/>
       <use xlink:href="#DejaVuSans-30" x="127.246094"/>
      </g>
     </g>
    </g>
    <g id="ytick_5">
     <g id="line2d_14">
      <g>
       <use xlink:href="#mcf342894f4" x="33.2875" y="138.877916" style="stroke: #000000; stroke-width: 0.8"/>
      </g>
     </g>
     <g id="text_14">
      <!-- 200 -->
      <g transform="translate(7.2 142.677134) scale(0.1 -0.1)">
       <use xlink:href="#DejaVuSans-32"/>
       <use xlink:href="#DejaVuSans-30" x="63.623047"/>
       <use xlink:href="#DejaVuSans-30" x="127.246094"/>
      </g>
     </g>
    </g>
    <g id="ytick_6">
     <g id="line2d_15">
      <g>
       <use xlink:href="#mcf342894f4" x="33.2875" y="108.293394" style="stroke: #000000; stroke-width: 0.8"/>
      </g>
     </g>
     <g id="text_15">
      <!-- 250 -->
      <g transform="translate(7.2 112.092613) scale(0.1 -0.1)">
       <use xlink:href="#DejaVuSans-32"/>
       <use xlink:href="#DejaVuSans-35" x="63.623047"/>
       <use xlink:href="#DejaVuSans-30" x="127.246094"/>
      </g>
     </g>
    </g>
    <g id="ytick_7">
     <g id="line2d_16">
      <g>
       <use xlink:href="#mcf342894f4" x="33.2875" y="77.708873" style="stroke: #000000; stroke-width: 0.8"/>
      </g>
     </g>
     <g id="text_16">
      <!-- 300 -->
      <g transform="translate(7.2 81.508092) scale(0.1 -0.1)">
       <defs>
        <path id="DejaVuSans-33" d="M 2597 2516 
Q 3050 2419 3304 2112 
Q 3559 1806 3559 1356 
Q 3559 666 3084 287 
Q 2609 -91 1734 -91 
Q 1441 -91 1130 -33 
Q 819 25 488 141 
L 488 750 
Q 750 597 1062 519 
Q 1375 441 1716 441 
Q 2309 441 2620 675 
Q 2931 909 2931 1356 
Q 2931 1769 2642 2001 
Q 2353 2234 1838 2234 
L 1294 2234 
L 1294 2753 
L 1863 2753 
Q 2328 2753 2575 2939 
Q 2822 3125 2822 3475 
Q 2822 3834 2567 4026 
Q 2313 4219 1838 4219 
Q 1578 4219 1281 4162 
Q 984 4106 628 3988 
L 628 4550 
Q 988 4650 1302 4700 
Q 1616 4750 1894 4750 
Q 2613 4750 3031 4423 
Q 3450 4097 3450 3541 
Q 3450 3153 3228 2886 
Q 3006 2619 2597 2516 
z
" transform="scale(0.015625)"/>
       </defs>
       <use xlink:href="#DejaVuSans-33"/>
       <use xlink:href="#DejaVuSans-30" x="63.623047"/>
       <use xlink:href="#DejaVuSans-30" x="127.246094"/>
      </g>
     </g>
    </g>
    <g id="ytick_8">
     <g id="line2d_17">
      <g>
       <use xlink:href="#mcf342894f4" x="33.2875" y="47.124352" style="stroke: #000000; stroke-width: 0.8"/>
      </g>
     </g>
     <g id="text_17">
      <!-- 350 -->
      <g transform="translate(7.2 50.923571) scale(0.1 -0.1)">
       <use xlink:href="#DejaVuSans-33"/>
       <use xlink:href="#DejaVuSans-35" x="63.623047"/>
       <use xlink:href="#DejaVuSans-30" x="127.246094"/>
      </g>
     </g>
    </g>
    <g id="ytick_9">
     <g id="line2d_18">
      <g>
       <use xlink:href="#mcf342894f4" x="33.2875" y="16.539831" style="stroke: #000000; stroke-width: 0.8"/>
      </g>
     </g>
     <g id="text_18">
      <!-- 400 -->
      <g transform="translate(7.2 20.33905) scale(0.1 -0.1)">
       <defs>
        <path id="DejaVuSans-34" d="M 2419 4116 
L 825 1625 
L 2419 1625 
L 2419 4116 
z
M 2253 4666 
L 3047 4666 
L 3047 1625 
L 3713 1625 
L 3713 1100 
L 3047 1100 
L 3047 0 
L 2419 0 
L 2419 1100 
L 313 1100 
L 313 1709 
L 2253 4666 
z
" transform="scale(0.015625)"/>
       </defs>
       <use xlink:href="#DejaVuSans-34"/>
       <use xlink:href="#DejaVuSans-30" x="63.623047"/>
       <use xlink:href="#DejaVuSans-30" x="127.246094"/>
      </g>
     </g>
    </g>
   </g>
   <g id="line2d_19">
    <path d="M 49.520227 261.216 
L 53.598802 108.293394 
L 57.677377 52.036312 
L 61.755951 31.340488 
L 65.834526 23.726919 
L 69.913101 20.926044 
L 73.991675 19.89566 
L 78.07025 19.516602 
L 82.148825 19.377155 
L 86.227399 19.325855 
L 90.305974 19.306983 
L 94.384549 19.30004 
L 98.463124 19.297486 
L 102.541698 19.296547 
L 106.620273 19.296201 
L 110.698848 19.296074 
L 114.777422 19.296027 
L 118.855997 19.29601 
L 122.934572 19.296004 
L 127.013146 19.296001 
L 131.091721 19.296 
L 135.170296 19.296 
L 139.24887 19.296 
L 143.327445 19.296 
L 147.40602 19.296 
L 151.484595 19.296 
L 155.563169 19.296 
L 159.641744 19.296 
L 163.720319 19.296 
L 167.798893 19.296 
L 171.877468 19.296 
L 175.956043 19.296 
L 180.034617 19.296 
L 184.113192 19.296 
L 188.191767 19.296 
L 192.270341 19.296 
L 196.348916 19.296 
L 200.427491 19.296 
L 204.506066 19.296 
L 208.58464 19.296 
L 212.663215 19.296 
L 216.74179 19.296 
L 220.820364 19.296 
L 224.898939 19.296 
L 228.977514 19.296 
L 233.056088 19.296 
L 237.134663 19.296 
L 241.213238 19.296 
L 245.291812 19.296 
L 249.370387 19.296 
L 253.448962 19.296 
L 257.527537 19.296 
L 261.606111 19.296 
L 265.684686 19.296 
L 269.763261 19.296 
L 273.841835 19.296 
L 277.92041 19.296 
L 281.998985 19.296 
L 286.077559 19.296 
L 290.156134 19.296 
L 294.234709 19.296 
L 298.313283 19.296 
L 302.391858 19.296 
L 306.470433 19.296 
L 310.549008 19.296 
L 314.627582 19.296 
L 318.706157 19.296 
L 322.784732 19.296 
L 326.863306 19.296 
L 330.941881 19.296 
L 335.020456 19.296 
L 339.09903 19.296 
L 343.177605 19.296 
L 347.25618 19.296 
L 351.334754 19.296 
L 355.413329 19.296 
L 359.491904 19.296 
L 363.570479 19.296 
L 367.649053 19.296 
L 371.727628 19.296 
" clip-path="url(#p761470d300)" style="fill: none; stroke: #1f77b4; stroke-width: 1.5; stroke-linecap: square"/>
   </g>
   <g id="line2d_20">
    <path d="M 49.520227 261.216 
L 53.598802 261.216 
L 57.677377 164.550477 
L 61.755951 93.42796 
L 65.834526 54.181192 
L 69.913101 34.93042 
L 73.991675 26.077966 
L 78.07025 22.170003 
L 82.148825 20.492734 
L 86.227399 19.787554 
L 90.305974 19.495705 
L 94.384549 19.37641 
L 98.463124 19.328135 
L 102.541698 19.308761 
L 106.620273 19.30104 
L 110.698848 19.297981 
L 114.777422 19.296776 
L 118.855997 19.296303 
L 122.934572 19.296118 
L 127.013146 19.296046 
L 131.091721 19.296018 
L 135.170296 19.296007 
L 139.24887 19.296003 
L 143.327445 19.296001 
L 147.40602 19.296 
L 151.484595 19.296 
L 155.563169 19.296 
L 159.641744 19.296 
L 163.720319 19.296 
L 167.798893 19.296 
L 171.877468 19.296 
L 175.956043 19.296 
L 180.034617 19.296 
L 184.113192 19.296 
L 188.191767 19.296 
L 192.270341 19.296 
L 196.348916 19.296 
L 200.427491 19.296 
L 204.506066 19.296 
L 208.58464 19.296 
L 212.663215 19.296 
L 216.74179 19.296 
L 220.820364 19.296 
L 224.898939 19.296 
L 228.977514 19.296 
L 233.056088 19.296 
L 237.134663 19.296 
L 241.213238 19.296 
L 245.291812 19.296 
L 249.370387 19.296 
L 253.448962 19.296 
L 257.527537 19.296 
L 261.606111 19.296 
L 265.684686 19.296 
L 269.763261 19.296 
L 273.841835 19.296 
L 277.92041 19.296 
L 281.998985 19.296 
L 286.077559 19.296 
L 290.156134 19.296 
L 294.234709 19.296 
L 298.313283 19.296 
L 302.391858 19.296 
L 306.470433 19.296 
L 310.549008 19.296 
L 314.627582 19.296 
L 318.706157 19.296 
L 322.784732 19.296 
L 326.863306 19.296 
L 330.941881 19.296 
L 335.020456 19.296 
L 339.09903 19.296 
L 343.177605 19.296 
L 347.25618 19.296 
L 351.334754 19.296 
L 355.413329 19.296 
L 359.491904 19.296 
L 363.570479 19.296 
L 367.649053 19.296 
L 371.727628 19.296 
" clip-path="url(#p761470d300)" style="fill: none; stroke: #ff7f0e; stroke-width: 1.5; stroke-linecap: square"/>
   </g>
   <g id="line2d_21">
    <path d="M 49.520227 261.216 
L 51.151657 213.504147 
L 52.783087 179.249483 
L 54.414517 158.452009 
L 56.045947 144.99482 
L 57.677377 133.984392 
L 59.308807 118.080441 
L 60.940236 119.303822 
L 62.571666 119.303822 
L 64.203096 116.85706 
L 65.834526 113.798608 
L 67.465956 112.575227 
L 69.097386 107.681704 
L 70.728816 109.516775 
L 72.360246 112.575227 
L 73.991675 111.963537 
L 75.623105 103.399871 
L 77.254535 105.846633 
L 78.885965 116.85706 
L 80.517395 115.633679 
L 82.148825 108.293394 
L 83.780255 97.894657 
L 85.411685 93.001134 
L 87.043114 93.001134 
L 88.674544 94.224515 
L 90.305974 104.623252 
L 91.937404 104.011561 
L 93.568834 104.011561 
L 95.200264 99.729728 
L 96.831694 108.293394 
L 98.463124 106.458323 
L 100.094553 102.17649 
L 101.725983 100.953109 
L 103.357413 99.118038 
L 104.988843 98.506348 
L 106.620273 92.389443 
L 108.251703 102.17649 
L 109.883133 114.410299 
L 111.514563 105.234942 
L 113.145992 107.070014 
L 114.777422 99.118038 
L 116.408852 105.846633 
L 118.040282 106.458323 
L 121.303142 115.021989 
L 122.934572 113.798608 
L 124.566002 100.953109 
L 126.197431 100.341419 
L 127.828861 101.5648 
L 129.460291 103.399871 
L 131.091721 99.118038 
L 132.723151 102.788181 
L 134.354581 108.293394 
L 135.986011 107.681704 
L 137.617441 108.905085 
L 139.24887 105.846633 
L 140.8803 110.740156 
L 142.51173 110.128466 
L 144.14316 114.410299 
L 145.77459 115.021989 
L 147.40602 107.681704 
L 149.03745 107.070014 
L 150.66888 112.575227 
L 152.30031 114.410299 
L 153.931739 109.516775 
L 155.563169 105.234942 
L 157.194599 99.118038 
L 158.826029 110.740156 
L 160.457459 115.021989 
L 162.088889 108.905085 
L 163.720319 102.17649 
L 165.351749 107.070014 
L 166.983178 115.021989 
L 168.614608 115.633679 
L 170.246038 111.351847 
L 171.877468 108.905085 
L 173.508898 108.293394 
L 175.140328 108.293394 
L 176.771758 99.729728 
L 178.403188 103.399871 
L 180.034617 108.293394 
L 181.666047 108.905085 
L 183.297477 101.5648 
L 184.928907 104.011561 
L 186.560337 105.846633 
L 188.191767 98.506348 
L 189.823197 110.128466 
L 191.454627 115.021989 
L 193.086056 110.740156 
L 194.717486 114.410299 
L 196.348916 116.24537 
L 197.980346 109.516775 
L 199.611776 113.798608 
L 201.243206 118.692132 
L 202.874636 113.186918 
L 204.506066 113.186918 
L 206.137495 104.011561 
L 207.768925 105.846633 
L 209.400355 94.224515 
L 211.031785 99.729728 
L 212.663215 104.011561 
L 214.294645 103.399871 
L 215.926075 110.740156 
L 217.557505 119.915512 
L 219.188934 122.362274 
L 220.820364 104.011561 
L 222.451794 110.128466 
L 224.083224 121.750584 
L 225.714654 125.420726 
L 227.346084 125.420726 
L 230.608944 120.527203 
L 232.240373 114.410299 
L 233.871803 122.362274 
L 235.503233 116.85706 
L 237.134663 121.138893 
L 238.766093 129.702559 
L 240.397523 126.644107 
L 242.028953 119.915512 
L 243.660383 111.963537 
L 245.291812 120.527203 
L 246.923242 113.798608 
L 248.554672 100.341419 
L 250.186102 96.059586 
L 251.817532 93.612824 
L 253.448962 101.5648 
L 255.080392 105.846633 
L 256.711822 104.011561 
L 258.343251 110.740156 
L 259.974681 105.234942 
L 261.606111 107.681704 
L 263.237541 105.234942 
L 264.868971 108.905085 
L 266.500401 110.128466 
L 268.131831 105.234942 
L 269.763261 107.681704 
L 271.39469 108.905085 
L 273.02612 109.516775 
L 274.65755 98.506348 
L 276.28898 104.623252 
L 277.92041 102.17649 
L 279.55184 100.953109 
L 281.18327 106.458323 
L 282.8147 105.234942 
L 284.44613 111.351847 
L 286.077559 116.24537 
L 287.708989 109.516775 
L 289.340419 110.740156 
L 290.971849 108.905085 
L 292.603279 116.85706 
L 294.234709 114.410299 
L 295.866139 116.24537 
L 297.497569 119.303822 
L 299.128998 110.740156 
L 300.760428 101.5648 
L 302.391858 108.293394 
L 304.023288 113.186918 
L 305.654718 112.575227 
L 307.286148 116.24537 
L 308.917578 110.128466 
L 310.549008 110.128466 
L 312.180437 119.303822 
L 313.811867 114.410299 
L 315.443297 121.138893 
L 317.074727 117.468751 
L 318.706157 111.963537 
L 320.337587 115.633679 
L 321.969017 112.575227 
L 323.600447 111.963537 
L 325.231876 112.575227 
L 326.863306 110.128466 
L 328.494736 105.234942 
L 330.126166 108.905085 
L 331.757596 102.788181 
L 333.389026 97.282967 
L 335.020456 100.341419 
L 336.651886 108.293394 
L 338.283315 108.905085 
L 339.914745 111.351847 
L 341.546175 119.915512 
L 343.177605 108.293394 
L 344.809035 107.681704 
L 346.440465 98.506348 
L 348.071895 97.894657 
L 349.703325 89.942682 
L 351.334754 96.059586 
L 352.966184 100.341419 
L 354.597614 107.681704 
L 356.229044 106.458323 
L 357.860474 104.623252 
L 359.491904 108.293394 
L 361.123334 119.915512 
L 362.754764 116.24537 
L 364.386193 107.681704 
L 366.017623 111.963537 
L 367.649053 121.750584 
L 369.280483 111.351847 
L 370.911913 105.234942 
L 372.543343 103.399871 
L 374.174773 109.516775 
L 374.174773 109.516775 
" clip-path="url(#p761470d300)" style="fill: none; stroke: #2ca02c; stroke-width: 1.5; stroke-linecap: square"/>
   </g>
   <g id="line2d_22">
    <path d="M 49.520227 261.216 
L 51.151657 250.205572 
L 52.783087 229.408098 
L 54.414517 205.552172 
L 57.677377 163.345532 
L 59.308807 162.733842 
L 60.940236 145.60651 
L 62.571666 124.197345 
L 64.203096 116.24537 
L 65.834526 121.138893 
L 67.465956 119.915512 
L 69.097386 107.070014 
L 70.728816 107.070014 
L 72.360246 104.623252 
L 73.991675 111.963537 
L 75.623105 116.85706 
L 77.254535 119.915512 
L 78.885965 106.458323 
L 80.517395 105.846633 
L 82.148825 108.905085 
L 83.780255 115.021989 
L 85.411685 117.468751 
L 87.043114 110.740156 
L 88.674544 109.516775 
L 90.305974 103.399871 
L 91.937404 100.953109 
L 93.568834 110.128466 
L 95.200264 111.351847 
L 96.831694 103.399871 
L 98.463124 102.788181 
L 100.094553 112.575227 
L 101.725983 116.24537 
L 103.357413 116.85706 
L 104.988843 121.138893 
L 106.620273 130.31425 
L 108.251703 115.633679 
L 109.883133 107.681704 
L 111.514563 107.070014 
L 113.145992 110.128466 
L 114.777422 114.410299 
L 116.408852 115.633679 
L 118.040282 118.692132 
L 121.303142 98.506348 
L 122.934572 104.011561 
L 124.566002 122.362274 
L 126.197431 111.351847 
L 127.828861 111.963537 
L 129.460291 111.963537 
L 131.091721 112.575227 
L 132.723151 107.681704 
L 134.354581 108.293394 
L 135.986011 116.24537 
L 137.617441 115.633679 
L 139.24887 113.186918 
L 140.8803 102.17649 
L 142.51173 107.070014 
L 144.14316 108.293394 
L 145.77459 107.070014 
L 147.40602 112.575227 
L 149.03745 113.186918 
L 150.66888 110.740156 
L 152.30031 107.681704 
L 153.931739 115.633679 
L 155.563169 118.080441 
L 157.194599 115.633679 
L 158.826029 101.5648 
L 160.457459 104.623252 
L 162.088889 111.963537 
L 163.720319 116.85706 
L 165.351749 111.351847 
L 166.983178 107.070014 
L 168.614608 110.128466 
L 170.246038 107.070014 
L 171.877468 105.234942 
L 173.508898 104.011561 
L 175.140328 108.293394 
L 176.771758 119.303822 
L 178.403188 110.740156 
L 180.034617 91.777753 
L 181.666047 99.729728 
L 183.297477 112.575227 
L 184.928907 104.623252 
L 186.560337 105.846633 
L 188.191767 108.905085 
L 189.823197 102.17649 
L 191.454627 100.953109 
L 193.086056 106.458323 
L 194.717486 97.282967 
L 196.348916 103.399871 
L 197.980346 111.351847 
L 199.611776 96.059586 
L 201.243206 96.671276 
L 202.874636 104.623252 
L 204.506066 100.341419 
L 206.137495 116.85706 
L 207.768925 107.070014 
L 209.400355 116.85706 
L 211.031785 115.021989 
L 212.663215 112.575227 
L 214.294645 109.516775 
L 217.557505 89.330991 
L 219.188934 86.88423 
L 220.820364 107.070014 
L 222.451794 97.282967 
L 224.083224 90.554372 
L 225.714654 100.953109 
L 227.346084 99.729728 
L 228.977514 113.186918 
L 230.608944 113.798608 
L 232.240373 116.24537 
L 233.871803 107.681704 
L 235.503233 107.681704 
L 237.134663 99.729728 
L 238.766093 99.118038 
L 240.397523 104.011561 
L 242.028953 101.5648 
L 243.660383 111.351847 
L 245.291812 100.341419 
L 246.923242 102.788181 
L 248.554672 120.527203 
L 250.186102 112.575227 
L 251.817532 116.85706 
L 253.448962 103.399871 
L 255.080392 105.234942 
L 256.711822 105.234942 
L 258.343251 102.17649 
L 259.974681 107.070014 
L 261.606111 102.17649 
L 263.237541 111.351847 
L 264.868971 103.399871 
L 266.500401 102.788181 
L 268.131831 105.234942 
L 271.39469 106.458323 
L 273.02612 104.623252 
L 274.65755 113.186918 
L 276.28898 111.351847 
L 277.92041 113.186918 
L 281.18327 111.963537 
L 282.8147 115.021989 
L 284.44613 107.070014 
L 286.077559 108.905085 
L 287.708989 122.362274 
L 289.340419 113.798608 
L 290.971849 111.963537 
L 292.603279 105.234942 
L 294.234709 104.011561 
L 295.866139 110.128466 
L 297.497569 103.399871 
L 299.128998 120.527203 
L 300.760428 122.973965 
L 302.391858 109.516775 
L 304.023288 107.070014 
L 305.654718 97.894657 
L 307.286148 93.612824 
L 308.917578 109.516775 
L 310.549008 110.740156 
L 312.180437 94.224515 
L 313.811867 105.234942 
L 315.443297 102.788181 
L 317.074727 99.118038 
L 318.706157 107.070014 
L 320.337587 107.681704 
L 321.969017 115.021989 
L 323.600447 121.138893 
L 325.231876 119.915512 
L 326.863306 123.585655 
L 328.494736 124.197345 
L 330.126166 111.963537 
L 331.757596 131.53763 
L 333.389026 133.372702 
L 335.020456 126.032417 
L 336.651886 114.410299 
L 338.283315 97.282967 
L 339.914745 98.506348 
L 341.546175 83.825778 
L 343.177605 97.894657 
L 344.809035 108.293394 
L 346.440465 113.798608 
L 348.071895 108.905085 
L 349.703325 120.527203 
L 351.334754 111.963537 
L 352.966184 93.612824 
L 354.597614 86.272539 
L 356.229044 99.118038 
L 357.860474 96.671276 
L 359.491904 92.389443 
L 361.123334 83.214087 
L 362.754764 91.166063 
L 364.386193 106.458323 
L 366.017623 107.681704 
L 367.649053 97.282967 
L 369.280483 112.575227 
L 370.911913 107.681704 
L 372.543343 104.011561 
L 374.174773 96.671276 
L 374.174773 96.671276 
" clip-path="url(#p761470d300)" style="fill: none; stroke: #d62728; stroke-width: 1.5; stroke-linecap: square"/>
   </g>
   <g id="patch_3">
    <path d="M 33.2875 273.312 
L 33.2875 7.2 
" style="fill: none; stroke: #000000; stroke-width: 0.8; stroke-linejoin: miter; stroke-linecap: square"/>
   </g>
   <g id="patch_4">
    <path d="M 390.4075 273.312 
L 390.4075 7.2 
" style="fill: none; stroke: #000000; stroke-width: 0.8; stroke-linejoin: miter; stroke-linecap: square"/>
   </g>
   <g id="patch_5">
    <path d="M 33.2875 273.312 
L 390.4075 273.312 
" style="fill: none; stroke: #000000; stroke-width: 0.8; stroke-linejoin: miter; stroke-linecap: square"/>
   </g>
   <g id="patch_6">
    <path d="M 33.2875 7.2 
L 390.4075 7.2 
" style="fill: none; stroke: #000000; stroke-width: 0.8; stroke-linejoin: miter; stroke-linecap: square"/>
   </g>
  </g>
 </g>
 <defs>
  <clipPath id="p761470d300">
   <rect x="33.2875" y="7.2" width="357.12" height="266.112"/>
  </clipPath>
 </defs>
</svg>
