<?xml version="1.0" encoding="utf-8" standalone="no"?>
<!DOCTYPE svg PUBLIC "-//W3C//DTD SVG 1.1//EN"
  "http://www.w3.org/Graphics/SVG/1.1/DTD/svg11.dtd">
<svg xmlns:xlink="http://www.w3.org/1999/xlink" width="403.97pt" height="297.190125pt" viewBox="0 0 403.97 297.190125" xmlns="http://www.w3.org/2000/svg" version="1.1">
 <metadata>
  <rdf:RDF xmlns:dc="http://purl.org/dc/elements/1.1/" xmlns:cc="http://creativecommons.org/ns#" xmlns:rdf="http://www.w3.org/1999/02/22-rdf-syntax-ns#">
   <cc:Work>
    <dc:type rdf:resource="http://purl.org/dc/dcmitype/StillImage"/>
    <dc:date>2026-05-21T03:37:11.621670</dc:date>
    <dc:format>image/svg+xml</dc:format>
    <dc:creator>
     <cc:Agent>
      <dc:title>Matplotlib v3.10.9, https://matplotlib.org/</dc:title>
     </cc:Agent>
    </dc:creator>
   </cc:Work>
  </rdf:RDF>
 </metadata>
 <defs>
  <style type="text/css">*{stroke-linejoin: round; stroke-linecap: butt}</style>
 </defs>
 <g id="figure_1">
  <g id="patch_1">
   <path d="M 0 297.190125 
L 403.97 297.190125 
L 403.97 0 
L 0 0 
z
" style="fill: #ffffff"/>
  </g>
  <g id="axes_1">
   <g id="patch_2">
    <path d="M 39.65 273.312 
L 396.77 273.312 
L 396.77 7.2 
L 39.65 7.2 
z
" style="fill: #ffffff"/>
   </g>
   <g id="matplotlib.axis_1">
    <g id="xtick_1">
     <g id="line2d_1">
      <defs>
       <path id="mf28521615b" d="M 0 0 
L 0 3.5 
" style="stroke: #000000; stroke-width: 0.8"/>
      </defs>
      <g>
       <use xlink:href="#mf28521615b" x="55.882727" y="273.312" style="stroke: #000000; stroke-width: 0.8"/>
      </g>
     </g>
     <g id="text_1">
      <!-- 0.0 -->
      <g transform="translate(47.931165 287.910437) scale(0.1 -0.1)">
       <defs>
        <path id="DejaVuSans-30" d="M 2034 4250 
Q 1547 4250 1301 3770 
Q 1056 3291 1056 2328 
Q 1056 1369 1301 889 
Q 1547 409 2034 409 
Q 2525 409 2770 889 
Q 3016 1369 3016 2328 
Q 3016 3291 2770 3770 
Q 2525 4250 2034 4250 
z
M 2034 4750 
Q 2819 4750 3233 4129 
Q 3647 3509 3647 2328 
Q 3647 1150 3233 529 
Q 2819 -91 2034 -91 
Q 1250 -91 836 529 
Q 422 1150 422 2328 
Q 422 3509 836 4129 
Q 1250 4750 2034 4750 
z
" transform="scale(0.015625)"/>
        <path id="DejaVuSans-2e" d="M 684 794 
L 1344 794 
L 1344 0 
L 684 0 
L 684 794 
z
" transform="scale(0.015625)"/>
       </defs>
       <use xlink:href="#DejaVuSans-30"/>
       <use xlink:href="#DejaVuSans-2e" transform="translate(63.623047 0)"/>
       <use xlink:href="#DejaVuSans-30" transform="translate(95.410156 0)"/>
      </g>
     </g>
    </g>
    <g id="xtick_2">
     <g id="line2d_2">
      <g>
       <use xlink:href="#mf28521615b" x="96.668474" y="273.312" style="stroke: #000000; stroke-width: 0.8"/>
      </g>
     </g>
     <g id="text_2">
      <!-- 2.5 -->
      <g transform="translate(88.716912 287.910437) scale(0.1 -0.1)">
       <defs>
        <path id="DejaVuSans-32" d="M 1228 531 
L 3431 531 
L 3431 0 
L 469 0 
L 469 531 
Q 828 903 1448 1529 
Q 2069 2156 2228 2338 
Q 2531 2678 2651 2914 
Q 2772 3150 2772 3378 
Q 2772 3750 2511 3984 
Q 2250 4219 1831 4219 
Q 1534 4219 1204 4116 
Q 875 4013 500 3803 
L 500 4441 
Q 881 4594 1212 4672 
Q 1544 4750 1819 4750 
Q 2544 4750 2975 4387 
Q 3406 4025 3406 3419 
Q 3406 3131 3298 2873 
Q 3191 2616 2906 2266 
Q 2828 2175 2409 1742 
Q 1991 1309 1228 531 
z
" transform="scale(0.015625)"/>
        <path id="DejaVuSans-35" d="M 691 4666 
L 3169 4666 
L 3169 4134 
L 1269 4134 
L 1269 2991 
Q 1406 3038 1543 3061 
Q 1681 3084 1819 3084 
Q 2600 3084 3056 2656 
Q 3513 2228 3513 1497 
Q 3513 744 3044 326 
Q 2575 -91 1722 -91 
Q 1428 -91 1123 -41 
Q 819 9 494 109 
L 494 744 
Q 775 591 1075 516 
Q 1375 441 1709 441 
Q 2250 441 2565 725 
Q 2881 1009 2881 1497 
Q 2881 1984 2565 2268 
Q 2250 2553 1709 2553 
Q 1456 2553 1204 2497 
Q 953 2441 691 2322 
L 691 4666 
z
" transform="scale(0.015625)"/>
       </defs>
       <use xlink:href="#DejaVuSans-32"/>
       <use xlink:href="#DejaVuSans-2e" transform="translate(63.623047 0)"/>
       <use xlink:href="#DejaVuSans-35" transform="translate(95.410156 0)"/>
      </g>
     </g>
    </g>
    <g id="xtick_3">
     <g id="line2d_3">
      <g>
       <use xlink:href="#mf28521615b" x="137.454221" y="273.312" style="stroke: #000000; stroke-width: 0.8"/>
      </g>
     </g>
     <g id="text_3">
      <!-- 5.0 -->
      <g transform="translate(129.502659 287.910437) scale(0.1 -0.1)">
       <use xlink:href="#DejaVuSans-35"/>
       <use xlink:href="#DejaVuSans-2e" transform="translate(63.623047 0)"/>
       <use xlink:href="#DejaVuSans-30" transform="translate(95.410156 0)"/>
      </g>
     </g>
    </g>
    <g id="xtick_4">
     <g id="line2d_4">
      <g>
       <use xlink:href="#mf28521615b" x="178.239968" y="273.312" style="stroke: #000000; stroke-width: 0.8"/>
      </g>
     </g>
     <g id="text_4">
      <!-- 7.5 -->
      <g transform="translate(170.288406 287.910437) scale(0.1 -0.1)">
       <defs>
        <path id="DejaVuSans-37" d="M 525 4666 
L 3525 4666 
L 3525 4397 
L 1831 0 
L 1172 0 
L 2766 4134 
L 525 4134 
L 525 4666 
z
" transform="scale(0.015625)"/>
       </defs>
       <use xlink:href="#DejaVuSans-37"/>
       <use xlink:href="#DejaVuSans-2e" transform="translate(63.623047 0)"/>
       <use xlink:href="#DejaVuSans-35" transform="translate(95.410156 0)"/>
      </g>
     </g>
    </g>
    <g id="xtick_5">
     <g id="line2d_5">
      <g>
       <use xlink:href="#mf28521615b" x="219.025715" y="273.312" style="stroke: #000000; stroke-width: 0.8"/>
      </g>
     </g>
     <g id="text_5">
      <!-- 10.0 -->
      <g transform="translate(207.892902 287.910437) scale(0.1 -0.1)">
       <defs>
        <path id="DejaVuSans-31" d="M 794 531 
L 1825 531 
L 1825 4091 
L 703 3866 
L 703 4441 
L 1819 4666 
L 2450 4666 
L 2450 531 
L 3481 531 
L 3481 0 
L 794 0 
L 794 531 
z
" transform="scale(0.015625)"/>
       </defs>
       <use xlink:href="#DejaVuSans-31"/>
       <use xlink:href="#DejaVuSans-30" transform="translate(63.623047 0)"/>
       <use xlink:href="#DejaVuSans-2e" transform="translate(127.246094 0)"/>
       <use xlink:href="#DejaVuSans-30" transform="translate(159.033203 0)"/>
      </g>
     </g>
    </g>
    <g id="xtick_6">
     <g id="line2d_6">
      <g>
       <use xlink:href="#mf28521615b" x="259.811462" y="273.312" style="stroke: #000000; stroke-width: 0.8"/>
      </g>
     </g>
     <g id="text_6">
      <!-- 12.5 -->
      <g transform="translate(248.678649 287.910437) scale(0.1 -0.1)">
       <use xlink:href="#DejaVuSans-31"/>
       <use xlink:href="#DejaVuSans-32" transform="translate(63.623047 0)"/>
       <use xlink:href="#DejaVuSans-2e" transform="translate(127.246094 0)"/>
       <use xlink:href="#DejaVuSans-35" transform="translate(159.033203 0)"/>
      </g>
     </g>
    </g>
    <g id="xtick_7">
     <g id="line2d_7">
      <g>
       <use xlink:href="#mf28521615b" x="300.597209" y="273.312" style="stroke: #000000; stroke-width: 0.8"/>
      </g>
     </g>
     <g id="text_7">
      <!-- 15.0 -->
      <g transform="translate(289.464396 287.910437) scale(0.1 -0.1)">
       <use xlink:href="#DejaVuSans-31"/>
       <use xlink:href="#DejaVuSans-35" transform="translate(63.623047 0)"/>
       <use xlink:href="#DejaVuSans-2e" transform="translate(127.246094 0)"/>
       <use xlink:href="#DejaVuSans-30" transform="translate(159.033203 0)"/>
      </g>
     </g>
    </g>
    <g id="xtick_8">
     <g id="line2d_8">
      <g>
       <use xlink:href="#mf28521615b" x="341.382956" y="273.312" style="stroke: #000000; stroke-width: 0.8"/>
      </g>
     </g>
     <g id="text_8">
      <!-- 17.5 -->
      <g transform="translate(330.250143 287.910437) scale(0.1 -0.1)">
       <use xlink:href="#DejaVuSans-31"/>
       <use xlink:href="#DejaVuSans-37" transform="translate(63.623047 0)"/>
       <use xlink:href="#DejaVuSans-2e" transform="translate(127.246094 0)"/>
       <use xlink:href="#DejaVuSans-35" transform="translate(159.033203 0)"/>
      </g>
     </g>
    </g>
    <g id="xtick_9">
     <g id="line2d_9">
      <g>
       <use xlink:href="#mf28521615b" x="382.168703" y="273.312" style="stroke: #000000; stroke-width: 0.8"/>
      </g>
     </g>
     <g id="text_9">
      <!-- 20.0 -->
      <g transform="translate(371.03589 287.910437) scale(0.1 -0.1)">
       <use xlink:href="#DejaVuSans-32"/>
       <use xlink:href="#DejaVuSans-30" transform="translate(63.623047 0)"/>
       <use xlink:href="#DejaVuSans-2e" transform="translate(127.246094 0)"/>
       <use xlink:href="#DejaVuSans-30" transform="translate(159.033203 0)"/>
      </g>
     </g>
    </g>
   </g>
   <g id="matplotlib.axis_2">
    <g id="ytick_1">
     <g id="line2d_10">
      <defs>
       <path id="m13377942f2" d="M 0 0 
L -3.5 0 
" style="stroke: #000000; stroke-width: 0.8"/>
      </defs>
      <g>
       <use xlink:href="#m13377942f2" x="39.65" y="261.216" style="stroke: #000000; stroke-width: 0.8"/>
      </g>
     </g>
     <g id="text_10">
      <!-- 0 -->
      <g transform="translate(26.2875 265.015219) scale(0.1 -0.1)">
       <use xlink:href="#DejaVuSans-30"/>
      </g>
     </g>
    </g>
    <g id="ytick_2">
     <g id="line2d_11">
      <g>
       <use xlink:href="#m13377942f2" x="39.65" y="226.862876" style="stroke: #000000; stroke-width: 0.8"/>
      </g>
     </g>
     <g id="text_11">
      <!-- 500 -->
      <g transform="translate(13.5625 230.662095) scale(0.1 -0.1)">
       <use xlink:href="#DejaVuSans-35"/>
       <use xlink:href="#DejaVuSans-30" transform="translate(63.623047 0)"/>
       <use xlink:href="#DejaVuSans-30" transform="translate(127.246094 0)"/>
      </g>
     </g>
    </g>
    <g id="ytick_3">
     <g id="line2d_12">
      <g>
       <use xlink:href="#m13377942f2" x="39.65" y="192.509752" style="stroke: #000000; stroke-width: 0.8"/>
      </g>
     </g>
     <g id="text_12">
      <!-- 1000 -->
      <g transform="translate(7.2 196.308971) scale(0.1 -0.1)">
       <use xlink:href="#DejaVuSans-31"/>
       <use xlink:href="#DejaVuSans-30" transform="translate(63.623047 0)"/>
       <use xlink:href="#DejaVuSans-30" transform="translate(127.246094 0)"/>
       <use xlink:href="#DejaVuSans-30" transform="translate(190.869141 0)"/>
      </g>
     </g>
    </g>
    <g id="ytick_4">
     <g id="line2d_13">
      <g>
       <use xlink:href="#m13377942f2" x="39.65" y="158.156628" style="stroke: #000000; stroke-width: 0.8"/>
      </g>
     </g>
     <g id="text_13">
      <!-- 1500 -->
      <g transform="translate(7.2 161.955847) scale(0.1 -0.1)">
       <use xlink:href="#DejaVuSans-31"/>
       <use xlink:href="#DejaVuSans-35" transform="translate(63.623047 0)"/>
       <use xlink:href="#DejaVuSans-30" transform="translate(127.246094 0)"/>
       <use xlink:href="#DejaVuSans-30" transform="translate(190.869141 0)"/>
      </g>
     </g>
    </g>
    <g id="ytick_5">
     <g id="line2d_14">
      <g>
       <use xlink:href="#m13377942f2" x="39.65" y="123.803504" style="stroke: #000000; stroke-width: 0.8"/>
      </g>
     </g>
     <g id="text_14">
      <!-- 2000 -->
      <g transform="translate(7.2 127.602722) scale(0.1 -0.1)">
       <use xlink:href="#DejaVuSans-32"/>
       <use xlink:href="#DejaVuSans-30" transform="translate(63.623047 0)"/>
       <use xlink:href="#DejaVuSans-30" transform="translate(127.246094 0)"/>
       <use xlink:href="#DejaVuSans-30" transform="translate(190.869141 0)"/>
      </g>
     </g>
    </g>
    <g id="ytick_6">
     <g id="line2d_15">
      <g>
       <use xlink:href="#m13377942f2" x="39.65" y="89.45038" style="stroke: #000000; stroke-width: 0.8"/>
      </g>
     </g>
     <g id="text_15">
      <!-- 2500 -->
      <g transform="translate(7.2 93.249598) scale(0.1 -0.1)">
       <use xlink:href="#DejaVuSans-32"/>
       <use xlink:href="#DejaVuSans-35" transform="translate(63.623047 0)"/>
       <use xlink:href="#DejaVuSans-30" transform="translate(127.246094 0)"/>
       <use xlink:href="#DejaVuSans-30" transform="translate(190.869141 0)"/>
      </g>
     </g>
    </g>
    <g id="ytick_7">
     <g id="line2d_16">
      <g>
       <use xlink:href="#m13377942f2" x="39.65" y="55.097256" style="stroke: #000000; stroke-width: 0.8"/>
      </g>
     </g>
     <g id="text_16">
      <!-- 3000 -->
      <g transform="translate(7.2 58.896474) scale(0.1 -0.1)">
       <defs>
        <path id="DejaVuSans-33" d="M 2597 2516 
Q 3050 2419 3304 2112 
Q 3559 1806 3559 1356 
Q 3559 666 3084 287 
Q 2609 -91 1734 -91 
Q 1441 -91 1130 -33 
Q 819 25 488 141 
L 488 750 
Q 750 597 1062 519 
Q 1375 441 1716 441 
Q 2309 441 2620 675 
Q 2931 909 2931 1356 
Q 2931 1769 2642 2001 
Q 2353 2234 1838 2234 
L 1294 2234 
L 1294 2753 
L 1863 2753 
Q 2328 2753 2575 2939 
Q 2822 3125 2822 3475 
Q 2822 3834 2567 4026 
Q 2313 4219 1838 4219 
Q 1578 4219 1281 4162 
Q 984 4106 628 3988 
L 628 4550 
Q 988 4650 1302 4700 
Q 1616 4750 1894 4750 
Q 2613 4750 3031 4423 
Q 3450 4097 3450 3541 
Q 3450 3153 3228 2886 
Q 3006 2619 2597 2516 
z
" transform="scale(0.015625)"/>
       </defs>
       <use xlink:href="#DejaVuSans-33"/>
       <use xlink:href="#DejaVuSans-30" transform="translate(63.623047 0)"/>
       <use xlink:href="#DejaVuSans-30" transform="translate(127.246094 0)"/>
       <use xlink:href="#DejaVuSans-30" transform="translate(190.869141 0)"/>
      </g>
     </g>
    </g>
    <g id="ytick_8">
     <g id="line2d_17">
      <g>
       <use xlink:href="#m13377942f2" x="39.65" y="20.744132" style="stroke: #000000; stroke-width: 0.8"/>
      </g>
     </g>
     <g id="text_17">
      <!-- 3500 -->
      <g transform="translate(7.2 24.54335) scale(0.1 -0.1)">
       <use xlink:href="#DejaVuSans-33"/>
       <use xlink:href="#DejaVuSans-35" transform="translate(63.623047 0)"/>
       <use xlink:href="#DejaVuSans-30" transform="translate(127.246094 0)"/>
       <use xlink:href="#DejaVuSans-30" transform="translate(190.869141 0)"/>
      </g>
     </g>
    </g>
   </g>
   <g id="line2d_18">
    <path d="M 55.882727 261.216 
L 72.197026 192.509752 
L 88.511325 143.281725 
L 104.825624 108.009844 
L 121.139922 82.737541 
L 137.454221 64.629936 
L 153.76852 51.655837 
L 170.082819 42.359895 
L 186.397117 35.699353 
L 202.711416 30.927074 
L 219.025715 27.507736 
L 235.340014 25.057781 
L 251.654312 23.302388 
L 267.968611 22.044649 
L 284.28291 21.143479 
L 300.597209 20.49779 
L 316.911508 20.035155 
L 333.225806 19.703676 
L 349.540105 19.466172 
L 365.854404 19.296 
" clip-path="url(#p649fdf35ba)" style="fill: none; stroke: #1f77b4; stroke-width: 1.5; stroke-linecap: square"/>
   </g>
   <g id="line2d_19">
    <path d="M 55.882727 261.216 
L 72.197026 261.216 
L 88.511325 238.313917 
L 104.825624 210.146646 
L 121.139922 183.928275 
L 137.454221 162.043662 
L 153.76852 144.772234 
L 170.082819 131.580383 
L 186.397117 121.709039 
L 202.711416 114.420911 
L 219.025715 109.088426 
L 235.340014 105.210949 
L 251.654312 102.4036 
L 267.968611 100.377177 
L 284.28291 98.917564 
L 300.597209 97.867809 
L 316.911508 97.113636 
L 333.225806 96.572231 
L 349.540105 96.183781 
L 365.854404 95.905183 
" clip-path="url(#p649fdf35ba)" style="fill: none; stroke: #ff7f0e; stroke-width: 1.5; stroke-linecap: square"/>
   </g>
   <g id="line2d_20">
    <path d="M 55.882727 261.216 
L 59.145587 249.879469 
L 60.777017 244.17685 
L 64.039877 230.710426 
L 65.671307 224.732982 
L 67.302736 220.404489 
L 68.934166 214.839283 
L 72.197026 204.739464 
L 73.828456 198.830727 
L 75.459886 193.540346 
L 77.091316 190.036327 
L 78.722746 187.219371 
L 83.617035 176.707315 
L 85.248465 172.928471 
L 86.879895 168.531271 
L 90.142755 161.248409 
L 91.774185 156.576384 
L 95.037044 149.637053 
L 96.668474 146.820097 
L 98.299904 144.758909 
L 99.931334 142.285484 
L 101.562764 138.025697 
L 104.825624 131.01766 
L 106.457053 128.612941 
L 108.088483 126.62046 
L 109.719913 124.353154 
L 111.351343 121.261373 
L 112.982773 118.787948 
L 114.614203 117.963473 
L 116.245633 115.421341 
L 117.877063 113.154035 
L 119.508492 110.268373 
L 121.139922 108.138479 
L 122.771352 104.703167 
L 124.402782 102.916804 
L 126.034212 101.611386 
L 127.665642 99.962436 
L 129.297072 96.870654 
L 130.928502 96.527123 
L 132.559931 95.221705 
L 134.191361 95.908767 
L 137.454221 91.442861 
L 139.085651 90.137442 
L 140.717081 90.54968 
L 142.348511 90.687092 
L 143.979941 90.618386 
L 145.61137 90.274855 
L 147.2428 90.137442 
L 148.87423 88.832023 
L 150.50566 89.931323 
L 152.13709 88.832023 
L 153.76852 88.763317 
L 155.39995 88.007548 
L 157.03138 85.60283 
L 158.66281 86.083774 
L 161.925669 82.991992 
L 163.557099 82.648461 
L 166.819959 80.65598 
L 168.451389 79.281855 
L 170.082819 77.564199 
L 171.714249 77.976436 
L 173.345678 78.732205 
L 174.977108 78.800911 
L 176.608538 78.251261 
L 178.239968 75.70913 
L 179.871398 75.296893 
L 181.502828 73.304411 
L 183.134258 71.518049 
L 184.765688 70.143924 
L 186.397117 71.31193 
L 188.028547 72.823468 
L 189.659977 71.174518 
L 191.291407 71.105811 
L 192.922837 71.243224 
L 194.554267 69.594274 
L 196.185697 70.006511 
L 197.817127 71.449343 
L 199.448556 69.937805 
L 201.079986 71.449343 
L 202.711416 70.968399 
L 204.342846 72.686055 
L 205.974276 73.51053 
L 207.605706 73.029586 
L 209.237136 70.830986 
L 210.868566 71.380636 
L 212.499995 71.792874 
L 214.131425 71.518049 
L 215.762855 70.21263 
L 217.394285 69.250743 
L 219.025715 69.319449 
L 220.657145 67.052143 
L 222.288575 65.952843 
L 223.920005 65.334487 
L 225.551434 65.81543 
L 227.182864 63.960362 
L 228.814294 64.029068 
L 232.077154 64.922249 
L 233.708584 63.204593 
L 235.340014 64.441305 
L 236.971444 64.990955 
L 238.602873 65.26578 
L 240.234303 66.502493 
L 241.865733 64.372599 
L 243.497163 64.372599 
L 245.128593 62.380118 
L 246.760023 62.51753 
L 248.391453 61.41823 
L 250.022883 59.906693 
L 251.654312 59.76928 
L 253.285742 58.738687 
L 254.917172 59.700574 
L 256.548602 59.837987 
L 258.180032 61.212112 
L 259.811462 61.41823 
L 261.442892 60.250224 
L 263.074322 59.494455 
L 264.705751 58.876099 
L 266.337181 57.708093 
L 267.968611 55.646906 
L 269.600041 55.165962 
L 271.231471 55.715612 
L 272.862901 55.715612 
L 274.494331 57.433268 
L 276.125761 56.814912 
L 277.75719 56.952324 
L 279.38862 55.234668 
L 281.02005 56.746206 
L 282.65148 56.883618 
L 284.28291 56.471381 
L 285.91434 56.540087 
L 287.54577 56.059143 
L 289.1772 55.853024 
L 290.80863 56.196556 
L 292.440059 55.372081 
L 294.071489 56.952324 
L 295.702919 57.364562 
L 297.334349 58.189037 
L 298.965779 58.876099 
L 300.597209 57.433268 
L 302.228639 55.578199 
L 303.860069 57.364562 
L 305.491498 58.876099 
L 307.122928 58.189037 
L 310.385788 59.700574 
L 312.017218 59.700574 
L 313.648648 58.807393 
L 315.280078 60.31893 
L 316.911508 62.586237 
L 318.542937 61.486937 
L 320.174367 61.486937 
L 321.805797 61.693055 
L 323.437227 59.837987 
L 325.068657 59.700574 
L 326.700087 58.807393 
L 328.331517 59.631868 
L 329.962947 59.494455 
L 331.594376 59.150924 
L 333.225806 57.433268 
L 334.857236 56.265262 
L 336.488666 56.883618 
L 338.120096 56.265262 
L 339.751526 55.165962 
L 341.382956 56.402674 
L 343.014386 55.372081 
L 344.645815 56.952324 
L 346.277245 57.364562 
L 347.908675 58.051624 
L 349.540105 58.257743 
L 352.802965 55.440787 
L 354.434395 55.715612 
L 356.065825 54.685018 
L 357.697254 53.997956 
L 359.328684 54.272781 
L 360.960114 54.959843 
L 362.591544 54.066662 
L 364.222974 54.685018 
L 365.854404 54.753724 
L 367.485834 55.372081 
L 369.117264 55.715612 
L 370.748693 56.196556 
L 374.011553 58.189037 
L 375.642983 57.433268 
L 377.274413 58.257743 
L 378.905843 57.776799 
L 380.537273 57.914212 
L 380.537273 57.914212 
" clip-path="url(#p649fdf35ba)" style="fill: none; stroke: #2ca02c; stroke-width: 1.5; stroke-linecap: square"/>
   </g>
   <g id="line2d_21">
    <path d="M 55.882727 261.216 
L 57.514157 261.147294 
L 59.145587 260.872469 
L 60.777017 260.185406 
L 62.408447 259.704463 
L 64.039877 258.811281 
L 65.671307 257.505863 
L 67.302736 256.475269 
L 68.934166 255.101144 
L 72.197026 252.902544 
L 73.828456 251.459713 
L 77.091316 247.612163 
L 78.722746 245.138738 
L 80.354175 243.489788 
L 81.985605 240.878951 
L 83.617035 239.779651 
L 85.248465 237.100107 
L 86.879895 236.275632 
L 88.511325 234.695388 
L 90.142755 232.702907 
L 91.774185 231.878432 
L 95.037044 229.405007 
L 96.668474 228.511826 
L 98.299904 226.107107 
L 99.931334 224.939101 
L 101.562764 223.49627 
L 103.194194 221.435082 
L 104.825624 220.541901 
L 106.457053 218.54942 
L 108.088483 217.175295 
L 109.719913 215.388932 
L 111.351343 213.396451 
L 112.982773 211.610089 
L 114.614203 210.716908 
L 116.245633 209.617608 
L 117.877063 208.380895 
L 119.508492 207.419008 
L 121.139922 204.533345 
L 122.771352 203.846283 
L 124.402782 203.296633 
L 127.665642 200.41097 
L 129.297072 200.617089 
L 130.928502 198.76202 
L 132.559931 197.594014 
L 134.191361 196.906952 
L 135.822791 195.945064 
L 137.454221 195.120589 
L 140.717081 191.273039 
L 142.348511 190.036327 
L 143.979941 188.043846 
L 147.2428 185.501715 
L 148.87423 185.158183 
L 150.50566 183.02829 
L 152.13709 182.203815 
L 153.76852 181.997696 
L 155.39995 182.547346 
L 157.03138 182.47864 
L 158.66281 183.234408 
L 160.294239 183.509233 
L 161.925669 183.646646 
L 163.557099 180.623571 
L 165.188529 180.211333 
L 166.819959 178.974621 
L 168.451389 178.562383 
L 171.714249 177.256965 
L 173.345678 174.646127 
L 176.608538 174.440009 
L 178.239968 173.752946 
L 179.871398 174.23389 
L 181.502828 175.195777 
L 183.134258 175.127071 
L 184.765688 174.165184 
L 186.397117 172.103996 
L 188.028547 170.93599 
L 189.659977 170.798577 
L 191.291407 171.554346 
L 192.922837 170.93599 
L 194.554267 172.310115 
L 196.185697 172.516234 
L 197.817127 171.348227 
L 199.448556 171.966584 
L 201.079986 170.317634 
L 202.711416 168.943509 
L 204.342846 166.882321 
L 205.974276 166.263965 
L 207.605706 166.744909 
L 209.237136 167.569384 
L 212.499995 167.500678 
L 214.131425 166.470084 
L 215.762855 166.470084 
L 217.394285 168.325153 
L 219.025715 168.050328 
L 220.657145 168.256446 
L 222.288575 167.294559 
L 223.920005 167.157146 
L 225.551434 167.157146 
L 227.182864 166.470084 
L 228.814294 164.88984 
L 230.445724 164.134071 
L 232.077154 164.683721 
L 233.708584 164.065365 
L 235.340014 161.935471 
L 236.971444 163.584421 
L 238.602873 163.172184 
L 240.234303 160.698759 
L 241.865733 161.110996 
L 243.497163 160.836171 
L 245.128593 161.729353 
L 246.760023 161.248409 
L 248.391453 161.866765 
L 250.022883 162.347709 
L 251.654312 162.14159 
L 253.285742 162.416415 
L 254.917172 163.515715 
L 256.548602 163.24089 
L 259.811462 160.49264 
L 263.074322 161.454528 
L 264.705751 161.59194 
L 266.337181 161.179703 
L 267.968611 161.935471 
L 269.600041 161.454528 
L 271.231471 160.561346 
L 272.862901 161.110996 
L 274.494331 158.84369 
L 276.125761 158.225334 
L 279.38862 158.568865 
L 281.02005 159.187222 
L 282.65148 159.39334 
L 284.28291 161.523234 
L 287.54577 162.072884 
L 289.1772 162.004178 
L 290.80863 160.561346 
L 292.440059 158.774984 
L 294.071489 158.981103 
L 295.702919 158.500159 
L 297.334349 158.637572 
L 298.965779 157.606978 
L 300.597209 159.668165 
L 302.228639 160.423934 
L 303.860069 159.187222 
L 305.491498 159.462047 
L 307.122928 160.355228 
L 308.754358 159.668165 
L 310.385788 159.462047 
L 312.017218 160.149109 
L 313.648648 160.698759 
L 315.280078 160.355228 
L 316.911508 158.019215 
L 318.542937 158.225334 
L 320.174367 157.74439 
L 321.805797 156.851209 
L 323.437227 158.156628 
L 325.068657 157.881803 
L 326.700087 157.74439 
L 328.331517 157.126034 
L 329.962947 157.469565 
L 331.594376 159.049809 
L 333.225806 161.110996 
L 334.857236 162.897359 
L 336.488666 161.935471 
L 338.120096 160.767465 
L 339.751526 159.805578 
L 341.382956 157.881803 
L 343.014386 158.84369 
L 344.645815 157.263447 
L 346.277245 156.370265 
L 347.908675 157.400859 
L 349.540105 156.64509 
L 351.171535 157.469565 
L 352.802965 157.606978 
L 354.434395 157.881803 
L 356.065825 159.324634 
L 357.697254 159.530753 
L 359.328684 158.981103 
L 360.960114 158.912397 
L 362.591544 159.049809 
L 364.222974 158.362747 
L 365.854404 158.774984 
L 367.485834 158.500159 
L 369.117264 159.874284 
L 370.748693 159.94299 
L 372.380123 158.568865 
L 375.642983 158.362747 
L 377.274413 159.874284 
L 378.905843 160.149109 
L 380.537273 159.530753 
L 380.537273 159.530753 
" clip-path="url(#p649fdf35ba)" style="fill: none; stroke: #d62728; stroke-width: 1.5; stroke-linecap: square"/>
   </g>
   <g id="patch_3">
    <path d="M 39.65 273.312 
L 39.65 7.2 
" style="fill: none; stroke: #000000; stroke-width: 0.8; stroke-linejoin: miter; stroke-linecap: square"/>
   </g>
   <g id="patch_4">
    <path d="M 396.77 273.312 
L 396.77 7.2 
" style="fill: none; stroke: #000000; stroke-width: 0.8; stroke-linejoin: miter; stroke-linecap: square"/>
   </g>
   <g id="patch_5">
    <path d="M 39.65 273.312 
L 396.77 273.312 
" style="fill: none; stroke: #000000; stroke-width: 0.8; stroke-linejoin: miter; stroke-linecap: square"/>
   </g>
   <g id="patch_6">
    <path d="M 39.65 7.2 
L 396.77 7.2 
" style="fill: none; stroke: #000000; stroke-width: 0.8; stroke-linejoin: miter; stroke-linecap: square"/>
   </g>
  </g>
 </g>
 <defs>
  <clipPath id="p649fdf35ba">
   <rect x="39.65" y="7.2" width="357.12" height="266.112"/>
  </clipPath>
 </defs>
</svg>
