<?xml version="1.0" encoding="utf-8" standalone="no"?>
<!DOCTYPE svg PUBLIC "-//W3C//DTD SVG 1.1//EN"
  "http://www.w3.org/Graphics/SVG/1.1/DTD/svg11.dtd">
<svg xmlns:xlink="http://www.w3.org/1999/xlink" width="403.97pt" height="297.190125pt" viewBox="0 0 403.97 297.190125" xmlns="http://www.w3.org/2000/svg" version="1.1">
 <metadata>
  <rdf:RDF xmlns:dc="http://purl.org/dc/elements/1.1/" xmlns:cc="http://creativecommons.org/ns#" xmlns:rdf="http://www.w3.org/1999/02/22-rdf-syntax-ns#">
   <cc:Work>
    <dc:type rdf:resource="http://purl.org/dc/dcmitype/StillImage"/>
    <dc:date>2024-08-30T00:09:42.743716</dc:date>
    <dc:format>image/svg+xml</dc:format>
    <dc:creator>
     <cc:Agent>
      <dc:title>Matplotlib v3.9.2, https://matplotlib.org/</dc:title>
     </cc:Agent>
    </dc:creator>
   </cc:Work>
  </rdf:RDF>
 </metadata>
 <defs>
  <style type="text/css">*{stroke-linejoin: round; stroke-linecap: butt}</style>
 </defs>
 <g id="figure_1">
  <g id="patch_1">
   <path d="M 0 297.190125 
L 403.97 297.190125 
L 403.97 0 
L 0 0 
z
" style="fill: #ffffff"/>
  </g>
  <g id="axes_1">
   <g id="patch_2">
    <path d="M 39.65 273.312 
L 396.77 273.312 
L 396.77 7.2 
L 39.65 7.2 
z
" style="fill: #ffffff"/>
   </g>
   <g id="matplotlib.axis_1">
    <g id="xtick_1">
     <g id="line2d_1">
      <defs>
       <path id="m1f512cd4e6" d="M 0 0 
L 0 3.5 
" style="stroke: #000000; stroke-width: 0.8"/>
      </defs>
      <g>
       <use xlink:href="#m1f512cd4e6" x="55.882727" y="273.312" style="stroke: #000000; stroke-width: 0.8"/>
      </g>
     </g>
     <g id="text_1">
      <!-- 0.0 -->
      <g transform="translate(47.931165 287.910437) scale(0.1 -0.1)">
       <defs>
        <path id="DejaVuSans-30" d="M 2034 4250 
Q 1547 4250 1301 3770 
Q 1056 3291 1056 2328 
Q 1056 1369 1301 889 
Q 1547 409 2034 409 
Q 2525 409 2770 889 
Q 3016 1369 3016 2328 
Q 3016 3291 2770 3770 
Q 2525 4250 2034 4250 
z
M 2034 4750 
Q 2819 4750 3233 4129 
Q 3647 3509 3647 2328 
Q 3647 1150 3233 529 
Q 2819 -91 2034 -91 
Q 1250 -91 836 529 
Q 422 1150 422 2328 
Q 422 3509 836 4129 
Q 1250 4750 2034 4750 
z
" transform="scale(0.015625)"/>
        <path id="DejaVuSans-2e" d="M 684 794 
L 1344 794 
L 1344 0 
L 684 0 
L 684 794 
z
" transform="scale(0.015625)"/>
       </defs>
       <use xlink:href="#DejaVuSans-30"/>
       <use xlink:href="#DejaVuSans-2e" x="63.623047"/>
       <use xlink:href="#DejaVuSans-30" x="95.410156"/>
      </g>
     </g>
    </g>
    <g id="xtick_2">
     <g id="line2d_2">
      <g>
       <use xlink:href="#m1f512cd4e6" x="96.668474" y="273.312" style="stroke: #000000; stroke-width: 0.8"/>
      </g>
     </g>
     <g id="text_2">
      <!-- 2.5 -->
      <g transform="translate(88.716912 287.910437) scale(0.1 -0.1)">
       <defs>
        <path id="DejaVuSans-32" d="M 1228 531 
L 3431 531 
L 3431 0 
L 469 0 
L 469 531 
Q 828 903 1448 1529 
Q 2069 2156 2228 2338 
Q 2531 2678 2651 2914 
Q 2772 3150 2772 3378 
Q 2772 3750 2511 3984 
Q 2250 4219 1831 4219 
Q 1534 4219 1204 4116 
Q 875 4013 500 3803 
L 500 4441 
Q 881 4594 1212 4672 
Q 1544 4750 1819 4750 
Q 2544 4750 2975 4387 
Q 3406 4025 3406 3419 
Q 3406 3131 3298 2873 
Q 3191 2616 2906 2266 
Q 2828 2175 2409 1742 
Q 1991 1309 1228 531 
z
" transform="scale(0.015625)"/>
        <path id="DejaVuSans-35" d="M 691 4666 
L 3169 4666 
L 3169 4134 
L 1269 4134 
L 1269 2991 
Q 1406 3038 1543 3061 
Q 1681 3084 1819 3084 
Q 2600 3084 3056 2656 
Q 3513 2228 3513 1497 
Q 3513 744 3044 326 
Q 2575 -91 1722 -91 
Q 1428 -91 1123 -41 
Q 819 9 494 109 
L 494 744 
Q 775 591 1075 516 
Q 1375 441 1709 441 
Q 2250 441 2565 725 
Q 2881 1009 2881 1497 
Q 2881 1984 2565 2268 
Q 2250 2553 1709 2553 
Q 1456 2553 1204 2497 
Q 953 2441 691 2322 
L 691 4666 
z
" transform="scale(0.015625)"/>
       </defs>
       <use xlink:href="#DejaVuSans-32"/>
       <use xlink:href="#DejaVuSans-2e" x="63.623047"/>
       <use xlink:href="#DejaVuSans-35" x="95.410156"/>
      </g>
     </g>
    </g>
    <g id="xtick_3">
     <g id="line2d_3">
      <g>
       <use xlink:href="#m1f512cd4e6" x="137.454221" y="273.312" style="stroke: #000000; stroke-width: 0.8"/>
      </g>
     </g>
     <g id="text_3">
      <!-- 5.0 -->
      <g transform="translate(129.502659 287.910437) scale(0.1 -0.1)">
       <use xlink:href="#DejaVuSans-35"/>
       <use xlink:href="#DejaVuSans-2e" x="63.623047"/>
       <use xlink:href="#DejaVuSans-30" x="95.410156"/>
      </g>
     </g>
    </g>
    <g id="xtick_4">
     <g id="line2d_4">
      <g>
       <use xlink:href="#m1f512cd4e6" x="178.239968" y="273.312" style="stroke: #000000; stroke-width: 0.8"/>
      </g>
     </g>
     <g id="text_4">
      <!-- 7.5 -->
      <g transform="translate(170.288406 287.910437) scale(0.1 -0.1)">
       <defs>
        <path id="DejaVuSans-37" d="M 525 4666 
L 3525 4666 
L 3525 4397 
L 1831 0 
L 1172 0 
L 2766 4134 
L 525 4134 
L 525 4666 
z
" transform="scale(0.015625)"/>
       </defs>
       <use xlink:href="#DejaVuSans-37"/>
       <use xlink:href="#DejaVuSans-2e" x="63.623047"/>
       <use xlink:href="#DejaVuSans-35" x="95.410156"/>
      </g>
     </g>
    </g>
    <g id="xtick_5">
     <g id="line2d_5">
      <g>
       <use xlink:href="#m1f512cd4e6" x="219.025715" y="273.312" style="stroke: #000000; stroke-width: 0.8"/>
      </g>
     </g>
     <g id="text_5">
      <!-- 10.0 -->
      <g transform="translate(207.892902 287.910437) scale(0.1 -0.1)">
       <defs>
        <path id="DejaVuSans-31" d="M 794 531 
L 1825 531 
L 1825 4091 
L 703 3866 
L 703 4441 
L 1819 4666 
L 2450 4666 
L 2450 531 
L 3481 531 
L 3481 0 
L 794 0 
L 794 531 
z
" transform="scale(0.015625)"/>
       </defs>
       <use xlink:href="#DejaVuSans-31"/>
       <use xlink:href="#DejaVuSans-30" x="63.623047"/>
       <use xlink:href="#DejaVuSans-2e" x="127.246094"/>
       <use xlink:href="#DejaVuSans-30" x="159.033203"/>
      </g>
     </g>
    </g>
    <g id="xtick_6">
     <g id="line2d_6">
      <g>
       <use xlink:href="#m1f512cd4e6" x="259.811462" y="273.312" style="stroke: #000000; stroke-width: 0.8"/>
      </g>
     </g>
     <g id="text_6">
      <!-- 12.5 -->
      <g transform="translate(248.678649 287.910437) scale(0.1 -0.1)">
       <use xlink:href="#DejaVuSans-31"/>
       <use xlink:href="#DejaVuSans-32" x="63.623047"/>
       <use xlink:href="#DejaVuSans-2e" x="127.246094"/>
       <use xlink:href="#DejaVuSans-35" x="159.033203"/>
      </g>
     </g>
    </g>
    <g id="xtick_7">
     <g id="line2d_7">
      <g>
       <use xlink:href="#m1f512cd4e6" x="300.597209" y="273.312" style="stroke: #000000; stroke-width: 0.8"/>
      </g>
     </g>
     <g id="text_7">
      <!-- 15.0 -->
      <g transform="translate(289.464396 287.910437) scale(0.1 -0.1)">
       <use xlink:href="#DejaVuSans-31"/>
       <use xlink:href="#DejaVuSans-35" x="63.623047"/>
       <use xlink:href="#DejaVuSans-2e" x="127.246094"/>
       <use xlink:href="#DejaVuSans-30" x="159.033203"/>
      </g>
     </g>
    </g>
    <g id="xtick_8">
     <g id="line2d_8">
      <g>
       <use xlink:href="#m1f512cd4e6" x="341.382956" y="273.312" style="stroke: #000000; stroke-width: 0.8"/>
      </g>
     </g>
     <g id="text_8">
      <!-- 17.5 -->
      <g transform="translate(330.250143 287.910437) scale(0.1 -0.1)">
       <use xlink:href="#DejaVuSans-31"/>
       <use xlink:href="#DejaVuSans-37" x="63.623047"/>
       <use xlink:href="#DejaVuSans-2e" x="127.246094"/>
       <use xlink:href="#DejaVuSans-35" x="159.033203"/>
      </g>
     </g>
    </g>
    <g id="xtick_9">
     <g id="line2d_9">
      <g>
       <use xlink:href="#m1f512cd4e6" x="382.168703" y="273.312" style="stroke: #000000; stroke-width: 0.8"/>
      </g>
     </g>
     <g id="text_9">
      <!-- 20.0 -->
      <g transform="translate(371.03589 287.910437) scale(0.1 -0.1)">
       <use xlink:href="#DejaVuSans-32"/>
       <use xlink:href="#DejaVuSans-30" x="63.623047"/>
       <use xlink:href="#DejaVuSans-2e" x="127.246094"/>
       <use xlink:href="#DejaVuSans-30" x="159.033203"/>
      </g>
     </g>
    </g>
   </g>
   <g id="matplotlib.axis_2">
    <g id="ytick_1">
     <g id="line2d_10">
      <defs>
       <path id="m46ce9fca61" d="M 0 0 
L -3.5 0 
" style="stroke: #000000; stroke-width: 0.8"/>
      </defs>
      <g>
       <use xlink:href="#m46ce9fca61" x="39.65" y="261.216" style="stroke: #000000; stroke-width: 0.8"/>
      </g>
     </g>
     <g id="text_10">
      <!-- 0 -->
      <g transform="translate(26.2875 265.015219) scale(0.1 -0.1)">
       <use xlink:href="#DejaVuSans-30"/>
      </g>
     </g>
    </g>
    <g id="ytick_2">
     <g id="line2d_11">
      <g>
       <use xlink:href="#m46ce9fca61" x="39.65" y="226.862876" style="stroke: #000000; stroke-width: 0.8"/>
      </g>
     </g>
     <g id="text_11">
      <!-- 500 -->
      <g transform="translate(13.5625 230.662095) scale(0.1 -0.1)">
       <use xlink:href="#DejaVuSans-35"/>
       <use xlink:href="#DejaVuSans-30" x="63.623047"/>
       <use xlink:href="#DejaVuSans-30" x="127.246094"/>
      </g>
     </g>
    </g>
    <g id="ytick_3">
     <g id="line2d_12">
      <g>
       <use xlink:href="#m46ce9fca61" x="39.65" y="192.509752" style="stroke: #000000; stroke-width: 0.8"/>
      </g>
     </g>
     <g id="text_12">
      <!-- 1000 -->
      <g transform="translate(7.2 196.308971) scale(0.1 -0.1)">
       <use xlink:href="#DejaVuSans-31"/>
       <use xlink:href="#DejaVuSans-30" x="63.623047"/>
       <use xlink:href="#DejaVuSans-30" x="127.246094"/>
       <use xlink:href="#DejaVuSans-30" x="190.869141"/>
      </g>
     </g>
    </g>
    <g id="ytick_4">
     <g id="line2d_13">
      <g>
       <use xlink:href="#m46ce9fca61" x="39.65" y="158.156628" style="stroke: #000000; stroke-width: 0.8"/>
      </g>
     </g>
     <g id="text_13">
      <!-- 1500 -->
      <g transform="translate(7.2 161.955847) scale(0.1 -0.1)">
       <use xlink:href="#DejaVuSans-31"/>
       <use xlink:href="#DejaVuSans-35" x="63.623047"/>
       <use xlink:href="#DejaVuSans-30" x="127.246094"/>
       <use xlink:href="#DejaVuSans-30" x="190.869141"/>
      </g>
     </g>
    </g>
    <g id="ytick_5">
     <g id="line2d_14">
      <g>
       <use xlink:href="#m46ce9fca61" x="39.65" y="123.803504" style="stroke: #000000; stroke-width: 0.8"/>
      </g>
     </g>
     <g id="text_14">
      <!-- 2000 -->
      <g transform="translate(7.2 127.602722) scale(0.1 -0.1)">
       <use xlink:href="#DejaVuSans-32"/>
       <use xlink:href="#DejaVuSans-30" x="63.623047"/>
       <use xlink:href="#DejaVuSans-30" x="127.246094"/>
       <use xlink:href="#DejaVuSans-30" x="190.869141"/>
      </g>
     </g>
    </g>
    <g id="ytick_6">
     <g id="line2d_15">
      <g>
       <use xlink:href="#m46ce9fca61" x="39.65" y="89.45038" style="stroke: #000000; stroke-width: 0.8"/>
      </g>
     </g>
     <g id="text_15">
      <!-- 2500 -->
      <g transform="translate(7.2 93.249598) scale(0.1 -0.1)">
       <use xlink:href="#DejaVuSans-32"/>
       <use xlink:href="#DejaVuSans-35" x="63.623047"/>
       <use xlink:href="#DejaVuSans-30" x="127.246094"/>
       <use xlink:href="#DejaVuSans-30" x="190.869141"/>
      </g>
     </g>
    </g>
    <g id="ytick_7">
     <g id="line2d_16">
      <g>
       <use xlink:href="#m46ce9fca61" x="39.65" y="55.097256" style="stroke: #000000; stroke-width: 0.8"/>
      </g>
     </g>
     <g id="text_16">
      <!-- 3000 -->
      <g transform="translate(7.2 58.896474) scale(0.1 -0.1)">
       <defs>
        <path id="DejaVuSans-33" d="M 2597 2516 
Q 3050 2419 3304 2112 
Q 3559 1806 3559 1356 
Q 3559 666 3084 287 
Q 2609 -91 1734 -91 
Q 1441 -91 1130 -33 
Q 819 25 488 141 
L 488 750 
Q 750 597 1062 519 
Q 1375 441 1716 441 
Q 2309 441 2620 675 
Q 2931 909 2931 1356 
Q 2931 1769 2642 2001 
Q 2353 2234 1838 2234 
L 1294 2234 
L 1294 2753 
L 1863 2753 
Q 2328 2753 2575 2939 
Q 2822 3125 2822 3475 
Q 2822 3834 2567 4026 
Q 2313 4219 1838 4219 
Q 1578 4219 1281 4162 
Q 984 4106 628 3988 
L 628 4550 
Q 988 4650 1302 4700 
Q 1616 4750 1894 4750 
Q 2613 4750 3031 4423 
Q 3450 4097 3450 3541 
Q 3450 3153 3228 2886 
Q 3006 2619 2597 2516 
z
" transform="scale(0.015625)"/>
       </defs>
       <use xlink:href="#DejaVuSans-33"/>
       <use xlink:href="#DejaVuSans-30" x="63.623047"/>
       <use xlink:href="#DejaVuSans-30" x="127.246094"/>
       <use xlink:href="#DejaVuSans-30" x="190.869141"/>
      </g>
     </g>
    </g>
    <g id="ytick_8">
     <g id="line2d_17">
      <g>
       <use xlink:href="#m46ce9fca61" x="39.65" y="20.744132" style="stroke: #000000; stroke-width: 0.8"/>
      </g>
     </g>
     <g id="text_17">
      <!-- 3500 -->
      <g transform="translate(7.2 24.54335) scale(0.1 -0.1)">
       <use xlink:href="#DejaVuSans-33"/>
       <use xlink:href="#DejaVuSans-35" x="63.623047"/>
       <use xlink:href="#DejaVuSans-30" x="127.246094"/>
       <use xlink:href="#DejaVuSans-30" x="190.869141"/>
      </g>
     </g>
    </g>
   </g>
   <g id="line2d_18">
    <path d="M 55.882727 261.216 
L 72.197026 192.509752 
L 88.511325 143.281725 
L 104.825624 108.009844 
L 121.139922 82.737541 
L 137.454221 64.629936 
L 153.76852 51.655837 
L 170.082819 42.359895 
L 186.397117 35.699353 
L 202.711416 30.927074 
L 219.025715 27.507736 
L 235.340014 25.057781 
L 251.654312 23.302388 
L 267.968611 22.044649 
L 284.28291 21.143479 
L 300.597209 20.49779 
L 316.911508 20.035155 
L 333.225806 19.703676 
L 349.540105 19.466172 
L 365.854404 19.296 
" clip-path="url(#pe68dd721a0)" style="fill: none; stroke: #1f77b4; stroke-width: 1.5; stroke-linecap: square"/>
   </g>
   <g id="line2d_19">
    <path d="M 55.882727 261.216 
L 72.197026 261.216 
L 88.511325 238.313917 
L 104.825624 210.146646 
L 121.139922 183.928275 
L 137.454221 162.043662 
L 153.76852 144.772234 
L 170.082819 131.580383 
L 186.397117 121.709039 
L 202.711416 114.420911 
L 219.025715 109.088426 
L 235.340014 105.210949 
L 251.654312 102.4036 
L 267.968611 100.377177 
L 284.28291 98.917564 
L 300.597209 97.867809 
L 316.911508 97.113636 
L 333.225806 96.572231 
L 349.540105 96.183781 
L 365.854404 95.905183 
" clip-path="url(#pe68dd721a0)" style="fill: none; stroke: #ff7f0e; stroke-width: 1.5; stroke-linecap: square"/>
   </g>
   <g id="line2d_20">
    <path d="M 55.882727 261.216 
L 57.514157 254.414081 
L 59.145587 248.161813 
L 64.039877 226.79417 
L 65.671307 222.328264 
L 67.302736 216.35082 
L 68.934166 211.541383 
L 72.197026 199.586495 
L 73.828456 194.502233 
L 75.459886 190.998214 
L 77.091316 187.013252 
L 78.722746 183.440527 
L 81.985605 175.470602 
L 88.511325 161.798059 
L 90.142755 157.057328 
L 91.774185 154.652609 
L 93.405614 150.049291 
L 95.037044 144.690203 
L 96.668474 140.91136 
L 98.299904 138.437935 
L 99.931334 135.208741 
L 101.562764 133.21626 
L 103.194194 128.956472 
L 104.825624 125.108922 
L 106.457053 122.979029 
L 108.088483 120.505604 
L 111.351343 117.963473 
L 112.982773 115.352635 
L 114.614203 113.016623 
L 116.245633 111.505085 
L 117.877063 108.894248 
L 119.508492 106.764354 
L 121.139922 104.840579 
L 122.771352 103.329042 
L 124.402782 101.130442 
L 126.034212 99.481492 
L 127.665642 99.412786 
L 129.297072 97.489011 
L 132.559931 93.160517 
L 135.822791 90.687092 
L 137.454221 90.068736 
L 139.085651 89.312967 
L 140.717081 87.80143 
L 142.348511 85.808949 
L 143.979941 84.778355 
L 145.61137 84.434824 
L 147.2428 81.686574 
L 152.13709 77.839024 
L 153.76852 78.182555 
L 155.39995 78.663499 
L 157.03138 77.90773 
L 158.66281 75.777836 
L 161.925669 73.854061 
L 163.557099 72.479936 
L 165.188529 72.342524 
L 168.451389 71.86158 
L 170.082819 71.724168 
L 171.714249 73.098293 
L 174.977108 71.105811 
L 176.608538 71.174518 
L 178.239968 70.968399 
L 179.871398 72.342524 
L 181.502828 73.235705 
L 183.134258 72.754761 
L 184.765688 71.998993 
L 186.397117 70.075218 
L 188.028547 69.869099 
L 189.659977 70.487455 
L 191.291407 70.281336 
L 192.922837 68.769799 
L 194.554267 69.044624 
L 197.817127 69.182036 
L 199.448556 68.56368 
L 201.079986 66.227668 
L 202.711416 66.571199 
L 205.974276 66.090255 
L 207.605706 66.021549 
L 209.237136 64.853543 
L 210.868566 63.342005 
L 212.499995 63.685537 
L 214.131425 62.173999 
L 217.394285 61.96788 
L 220.657145 60.799874 
L 222.288575 60.525049 
L 223.920005 59.837987 
L 225.551434 59.425749 
L 227.182864 59.288337 
L 228.814294 59.288337 
L 230.445724 59.425749 
L 232.077154 58.876099 
L 233.708584 58.051624 
L 235.340014 57.570681 
L 236.971444 59.288337 
L 238.602873 59.631868 
L 241.865733 57.089737 
L 243.497163 58.189037 
L 245.128593 58.532568 
L 246.760023 57.982918 
L 248.391453 57.158443 
L 250.022883 57.021031 
L 253.285742 58.257743 
L 254.917172 58.120331 
L 256.548602 59.357043 
L 258.180032 59.082218 
L 259.811462 59.76928 
L 261.442892 59.494455 
L 263.074322 60.181518 
L 264.705751 59.700574 
L 266.337181 59.563162 
L 267.968611 61.41823 
L 269.600041 64.097774 
L 271.231471 63.685537 
L 272.862901 63.61683 
L 274.494331 63.135887 
L 279.38862 65.81543 
L 281.02005 65.952843 
L 282.65148 65.81543 
L 284.28291 66.36508 
L 285.91434 65.471899 
L 287.54577 65.334487 
L 289.1772 63.685537 
L 290.80863 64.510012 
L 292.440059 65.746724 
L 294.071489 64.097774 
L 295.702919 63.61683 
L 297.334349 62.998474 
L 298.965779 63.479418 
L 300.597209 62.998474 
L 302.228639 63.754243 
L 303.860069 63.754243 
L 305.491498 62.723649 
L 307.122928 61.830468 
L 308.754358 62.311412 
L 310.385788 62.51753 
L 312.017218 62.929768 
L 313.648648 61.830468 
L 315.280078 62.242705 
L 316.911508 61.349524 
L 318.542937 61.005993 
L 320.174367 60.937287 
L 321.805797 60.456343 
L 323.437227 61.212112 
L 325.068657 60.181518 
L 326.700087 58.807393 
L 328.331517 57.845506 
L 329.962947 57.364562 
L 331.594376 56.127849 
L 333.225806 56.265262 
L 334.857236 57.364562 
L 336.488666 57.776799 
L 338.120096 58.66998 
L 339.751526 59.150924 
L 341.382956 57.639387 
L 343.014386 56.608793 
L 344.645815 55.784318 
L 346.277245 56.059143 
L 347.908675 55.234668 
L 349.540105 54.891137 
L 351.171535 53.791837 
L 352.802965 53.242187 
L 354.434395 53.791837 
L 356.065825 55.715612 
L 357.697254 55.234668 
L 359.328684 56.608793 
L 360.960114 55.921731 
L 362.591544 54.959843 
L 364.222974 55.372081 
L 365.854404 54.478899 
L 367.485834 54.478899 
L 369.117264 55.234668 
L 370.748693 55.784318 
L 372.380123 55.509493 
L 375.642983 57.089737 
L 377.274413 56.746206 
L 378.905843 56.059143 
L 380.537273 56.196556 
L 380.537273 56.196556 
" clip-path="url(#pe68dd721a0)" style="fill: none; stroke: #2ca02c; stroke-width: 1.5; stroke-linecap: square"/>
   </g>
   <g id="line2d_21">
    <path d="M 55.882727 261.216 
L 59.145587 260.735056 
L 60.777017 260.047994 
L 62.408447 259.704463 
L 64.039877 259.223519 
L 65.671307 258.055513 
L 67.302736 257.36845 
L 68.934166 255.788206 
L 70.565596 254.482788 
L 72.197026 252.490306 
L 73.828456 251.253594 
L 77.091316 247.406044 
L 78.722746 245.757094 
L 80.354175 242.802725 
L 81.985605 241.978251 
L 85.248465 237.993288 
L 86.879895 235.725982 
L 88.511325 234.008326 
L 90.142755 231.878432 
L 91.774185 229.954657 
L 93.405614 229.405007 
L 95.037044 228.374413 
L 96.668474 226.450638 
L 98.299904 223.771095 
L 99.931334 222.328264 
L 101.562764 219.992251 
L 103.194194 220.060957 
L 104.825624 219.030364 
L 106.457053 217.45012 
L 108.088483 214.70187 
L 109.719913 212.778095 
L 111.351343 210.648201 
L 112.982773 210.098551 
L 116.245633 206.869358 
L 117.877063 206.388414 
L 119.508492 205.082995 
L 121.139922 204.739464 
L 122.771352 204.945583 
L 124.402782 203.777577 
L 127.665642 200.754502 
L 129.297072 199.242964 
L 132.559931 195.532827 
L 134.191361 194.983177 
L 135.822791 192.372339 
L 137.454221 190.379858 
L 139.085651 189.898914 
L 143.979941 187.837727 
L 145.61137 186.807133 
L 147.2428 186.601015 
L 148.87423 184.67724 
L 150.50566 183.990177 
L 152.13709 183.509233 
L 153.76852 182.47864 
L 155.39995 180.967102 
L 157.03138 180.554865 
L 158.66281 181.035808 
L 160.294239 179.867802 
L 163.557099 178.699796 
L 165.188529 177.806615 
L 166.819959 177.600496 
L 168.451389 176.98214 
L 170.082819 177.050846 
L 171.714249 175.676721 
L 174.977108 177.394377 
L 176.608538 177.188259 
L 178.239968 176.020252 
L 179.871398 173.959065 
L 181.502828 174.577421 
L 183.134258 173.13459 
L 184.765688 172.722352 
L 188.028547 173.203296 
L 189.659977 171.829171 
L 191.291407 171.691759 
L 192.922837 172.447527 
L 194.554267 169.767984 
L 197.817127 170.248927 
L 199.448556 169.561865 
L 201.079986 169.905396 
L 202.711416 168.943509 
L 205.974276 165.576903 
L 207.605706 165.576903 
L 209.237136 166.126553 
L 210.868566 166.332671 
L 212.499995 167.500678 
L 214.131425 166.53879 
L 215.762855 164.88984 
L 217.394285 164.615015 
L 219.025715 164.477603 
L 220.657145 165.43949 
L 222.288575 165.302078 
L 223.920005 165.98914 
L 225.551434 166.332671 
L 227.182864 166.263965 
L 228.814294 165.714315 
L 230.445724 165.370784 
L 232.077154 163.721834 
L 233.708584 162.759946 
L 235.340014 164.408896 
L 236.971444 163.859246 
L 238.602873 164.065365 
L 240.234303 164.477603 
L 241.865733 163.859246 
L 243.497163 163.034771 
L 245.128593 162.004178 
L 246.760023 161.317115 
L 248.391453 162.416415 
L 250.022883 162.279003 
L 251.654312 162.347709 
L 253.285742 162.14159 
L 254.917172 160.767465 
L 258.180032 159.049809 
L 259.811462 158.706278 
L 261.442892 160.011696 
L 263.074322 160.355228 
L 264.705751 160.149109 
L 266.337181 160.904878 
L 267.968611 159.599459 
L 269.600041 158.706278 
L 271.231471 159.736872 
L 272.862901 159.324634 
L 274.494331 161.110996 
L 277.75719 160.011696 
L 279.38862 160.149109 
L 281.02005 160.49264 
L 282.65148 159.530753 
L 284.28291 158.84369 
L 285.91434 158.981103 
L 287.54577 159.462047 
L 289.1772 160.149109 
L 290.80863 160.423934 
L 292.440059 160.217815 
L 294.071489 160.698759 
L 295.702919 160.355228 
L 297.334349 161.248409 
L 298.965779 160.423934 
L 300.597209 160.561346 
L 302.228639 159.805578 
L 303.860069 159.530753 
L 305.491498 159.599459 
L 307.122928 160.011696 
L 308.754358 159.39334 
L 310.385788 158.981103 
L 312.017218 158.706278 
L 313.648648 159.462047 
L 315.280078 160.49264 
L 316.911508 159.462047 
L 318.542937 160.904878 
L 320.174367 161.454528 
L 323.437227 160.904878 
L 325.068657 161.523234 
L 326.700087 162.553828 
L 328.331517 162.072884 
L 329.962947 162.072884 
L 331.594376 163.172184 
L 334.857236 162.279003 
L 336.488666 161.179703 
L 338.120096 160.355228 
L 339.751526 162.14159 
L 341.382956 161.935471 
L 343.014386 163.653128 
L 344.645815 164.408896 
L 346.277245 163.309596 
L 347.908675 163.309596 
L 349.540105 163.034771 
L 351.171535 163.103478 
L 352.802965 164.134071 
L 354.434395 161.110996 
L 356.065825 160.423934 
L 357.697254 161.248409 
L 359.328684 160.630053 
L 360.960114 161.04229 
L 362.591544 160.011696 
L 364.222974 160.355228 
L 365.854404 161.523234 
L 367.485834 161.866765 
L 369.117264 160.561346 
L 372.380123 158.84369 
L 374.011553 156.988622 
L 375.642983 155.54579 
L 377.274413 156.232853 
L 380.537273 155.820615 
L 380.537273 155.820615 
" clip-path="url(#pe68dd721a0)" style="fill: none; stroke: #d62728; stroke-width: 1.5; stroke-linecap: square"/>
   </g>
   <g id="patch_3">
    <path d="M 39.65 273.312 
L 39.65 7.2 
" style="fill: none; stroke: #000000; stroke-width: 0.8; stroke-linejoin: miter; stroke-linecap: square"/>
   </g>
   <g id="patch_4">
    <path d="M 396.77 273.312 
L 396.77 7.2 
" style="fill: none; stroke: #000000; stroke-width: 0.8; stroke-linejoin: miter; stroke-linecap: square"/>
   </g>
   <g id="patch_5">
    <path d="M 39.65 273.312 
L 396.77 273.312 
" style="fill: none; stroke: #000000; stroke-width: 0.8; stroke-linejoin: miter; stroke-linecap: square"/>
   </g>
   <g id="patch_6">
    <path d="M 39.65 7.2 
L 396.77 7.2 
" style="fill: none; stroke: #000000; stroke-width: 0.8; stroke-linejoin: miter; stroke-linecap: square"/>
   </g>
  </g>
 </g>
 <defs>
  <clipPath id="pe68dd721a0">
   <rect x="39.65" y="7.2" width="357.12" height="266.112"/>
  </clipPath>
 </defs>
</svg>
