<?xml version="1.0" encoding="utf-8" standalone="no"?>
<!DOCTYPE svg PUBLIC "-//W3C//DTD SVG 1.1//EN"
  "http://www.w3.org/Graphics/SVG/1.1/DTD/svg11.dtd">
<svg xmlns:xlink="http://www.w3.org/1999/xlink" width="397.6075pt" height="297.190125pt" viewBox="0 0 397.6075 297.190125" xmlns="http://www.w3.org/2000/svg" version="1.1">
 <metadata>
  <rdf:RDF xmlns:dc="http://purl.org/dc/elements/1.1/" xmlns:cc="http://creativecommons.org/ns#" xmlns:rdf="http://www.w3.org/1999/02/22-rdf-syntax-ns#">
   <cc:Work>
    <dc:type rdf:resource="http://purl.org/dc/dcmitype/StillImage"/>
    <dc:date>2024-08-30T00:09:45.836405</dc:date>
    <dc:format>image/svg+xml</dc:format>
    <dc:creator>
     <cc:Agent>
      <dc:title>Matplotlib v3.9.2, https://matplotlib.org/</dc:title>
     </cc:Agent>
    </dc:creator>
   </cc:Work>
  </rdf:RDF>
 </metadata>
 <defs>
  <style type="text/css">*{stroke-linejoin: round; stroke-linecap: butt}</style>
 </defs>
 <g id="figure_1">
  <g id="patch_1">
   <path d="M 0 297.190125 
L 397.6075 297.190125 
L 397.6075 0 
L 0 0 
z
" style="fill: #ffffff"/>
  </g>
  <g id="axes_1">
   <g id="patch_2">
    <path d="M 33.2875 273.312 
L 390.4075 273.312 
L 390.4075 7.2 
L 33.2875 7.2 
z
" style="fill: #ffffff"/>
   </g>
   <g id="matplotlib.axis_1">
    <g id="xtick_1">
     <g id="line2d_1">
      <defs>
       <path id="m7100e9d5fb" d="M 0 0 
L 0 3.5 
" style="stroke: #000000; stroke-width: 0.8"/>
      </defs>
      <g>
       <use xlink:href="#m7100e9d5fb" x="49.520227" y="273.312" style="stroke: #000000; stroke-width: 0.8"/>
      </g>
     </g>
     <g id="text_1">
      <!-- 0.0 -->
      <g transform="translate(41.568665 287.910437) scale(0.1 -0.1)">
       <defs>
        <path id="DejaVuSans-30" d="M 2034 4250 
Q 1547 4250 1301 3770 
Q 1056 3291 1056 2328 
Q 1056 1369 1301 889 
Q 1547 409 2034 409 
Q 2525 409 2770 889 
Q 3016 1369 3016 2328 
Q 3016 3291 2770 3770 
Q 2525 4250 2034 4250 
z
M 2034 4750 
Q 2819 4750 3233 4129 
Q 3647 3509 3647 2328 
Q 3647 1150 3233 529 
Q 2819 -91 2034 -91 
Q 1250 -91 836 529 
Q 422 1150 422 2328 
Q 422 3509 836 4129 
Q 1250 4750 2034 4750 
z
" transform="scale(0.015625)"/>
        <path id="DejaVuSans-2e" d="M 684 794 
L 1344 794 
L 1344 0 
L 684 0 
L 684 794 
z
" transform="scale(0.015625)"/>
       </defs>
       <use xlink:href="#DejaVuSans-30"/>
       <use xlink:href="#DejaVuSans-2e" x="63.623047"/>
       <use xlink:href="#DejaVuSans-30" x="95.410156"/>
      </g>
     </g>
    </g>
    <g id="xtick_2">
     <g id="line2d_2">
      <g>
       <use xlink:href="#m7100e9d5fb" x="90.305974" y="273.312" style="stroke: #000000; stroke-width: 0.8"/>
      </g>
     </g>
     <g id="text_2">
      <!-- 2.5 -->
      <g transform="translate(82.354412 287.910437) scale(0.1 -0.1)">
       <defs>
        <path id="DejaVuSans-32" d="M 1228 531 
L 3431 531 
L 3431 0 
L 469 0 
L 469 531 
Q 828 903 1448 1529 
Q 2069 2156 2228 2338 
Q 2531 2678 2651 2914 
Q 2772 3150 2772 3378 
Q 2772 3750 2511 3984 
Q 2250 4219 1831 4219 
Q 1534 4219 1204 4116 
Q 875 4013 500 3803 
L 500 4441 
Q 881 4594 1212 4672 
Q 1544 4750 1819 4750 
Q 2544 4750 2975 4387 
Q 3406 4025 3406 3419 
Q 3406 3131 3298 2873 
Q 3191 2616 2906 2266 
Q 2828 2175 2409 1742 
Q 1991 1309 1228 531 
z
" transform="scale(0.015625)"/>
        <path id="DejaVuSans-35" d="M 691 4666 
L 3169 4666 
L 3169 4134 
L 1269 4134 
L 1269 2991 
Q 1406 3038 1543 3061 
Q 1681 3084 1819 3084 
Q 2600 3084 3056 2656 
Q 3513 2228 3513 1497 
Q 3513 744 3044 326 
Q 2575 -91 1722 -91 
Q 1428 -91 1123 -41 
Q 819 9 494 109 
L 494 744 
Q 775 591 1075 516 
Q 1375 441 1709 441 
Q 2250 441 2565 725 
Q 2881 1009 2881 1497 
Q 2881 1984 2565 2268 
Q 2250 2553 1709 2553 
Q 1456 2553 1204 2497 
Q 953 2441 691 2322 
L 691 4666 
z
" transform="scale(0.015625)"/>
       </defs>
       <use xlink:href="#DejaVuSans-32"/>
       <use xlink:href="#DejaVuSans-2e" x="63.623047"/>
       <use xlink:href="#DejaVuSans-35" x="95.410156"/>
      </g>
     </g>
    </g>
    <g id="xtick_3">
     <g id="line2d_3">
      <g>
       <use xlink:href="#m7100e9d5fb" x="131.091721" y="273.312" style="stroke: #000000; stroke-width: 0.8"/>
      </g>
     </g>
     <g id="text_3">
      <!-- 5.0 -->
      <g transform="translate(123.140159 287.910437) scale(0.1 -0.1)">
       <use xlink:href="#DejaVuSans-35"/>
       <use xlink:href="#DejaVuSans-2e" x="63.623047"/>
       <use xlink:href="#DejaVuSans-30" x="95.410156"/>
      </g>
     </g>
    </g>
    <g id="xtick_4">
     <g id="line2d_4">
      <g>
       <use xlink:href="#m7100e9d5fb" x="171.877468" y="273.312" style="stroke: #000000; stroke-width: 0.8"/>
      </g>
     </g>
     <g id="text_4">
      <!-- 7.5 -->
      <g transform="translate(163.925906 287.910437) scale(0.1 -0.1)">
       <defs>
        <path id="DejaVuSans-37" d="M 525 4666 
L 3525 4666 
L 3525 4397 
L 1831 0 
L 1172 0 
L 2766 4134 
L 525 4134 
L 525 4666 
z
" transform="scale(0.015625)"/>
       </defs>
       <use xlink:href="#DejaVuSans-37"/>
       <use xlink:href="#DejaVuSans-2e" x="63.623047"/>
       <use xlink:href="#DejaVuSans-35" x="95.410156"/>
      </g>
     </g>
    </g>
    <g id="xtick_5">
     <g id="line2d_5">
      <g>
       <use xlink:href="#m7100e9d5fb" x="212.663215" y="273.312" style="stroke: #000000; stroke-width: 0.8"/>
      </g>
     </g>
     <g id="text_5">
      <!-- 10.0 -->
      <g transform="translate(201.530402 287.910437) scale(0.1 -0.1)">
       <defs>
        <path id="DejaVuSans-31" d="M 794 531 
L 1825 531 
L 1825 4091 
L 703 3866 
L 703 4441 
L 1819 4666 
L 2450 4666 
L 2450 531 
L 3481 531 
L 3481 0 
L 794 0 
L 794 531 
z
" transform="scale(0.015625)"/>
       </defs>
       <use xlink:href="#DejaVuSans-31"/>
       <use xlink:href="#DejaVuSans-30" x="63.623047"/>
       <use xlink:href="#DejaVuSans-2e" x="127.246094"/>
       <use xlink:href="#DejaVuSans-30" x="159.033203"/>
      </g>
     </g>
    </g>
    <g id="xtick_6">
     <g id="line2d_6">
      <g>
       <use xlink:href="#m7100e9d5fb" x="253.448962" y="273.312" style="stroke: #000000; stroke-width: 0.8"/>
      </g>
     </g>
     <g id="text_6">
      <!-- 12.5 -->
      <g transform="translate(242.316149 287.910437) scale(0.1 -0.1)">
       <use xlink:href="#DejaVuSans-31"/>
       <use xlink:href="#DejaVuSans-32" x="63.623047"/>
       <use xlink:href="#DejaVuSans-2e" x="127.246094"/>
       <use xlink:href="#DejaVuSans-35" x="159.033203"/>
      </g>
     </g>
    </g>
    <g id="xtick_7">
     <g id="line2d_7">
      <g>
       <use xlink:href="#m7100e9d5fb" x="294.234709" y="273.312" style="stroke: #000000; stroke-width: 0.8"/>
      </g>
     </g>
     <g id="text_7">
      <!-- 15.0 -->
      <g transform="translate(283.101896 287.910437) scale(0.1 -0.1)">
       <use xlink:href="#DejaVuSans-31"/>
       <use xlink:href="#DejaVuSans-35" x="63.623047"/>
       <use xlink:href="#DejaVuSans-2e" x="127.246094"/>
       <use xlink:href="#DejaVuSans-30" x="159.033203"/>
      </g>
     </g>
    </g>
    <g id="xtick_8">
     <g id="line2d_8">
      <g>
       <use xlink:href="#m7100e9d5fb" x="335.020456" y="273.312" style="stroke: #000000; stroke-width: 0.8"/>
      </g>
     </g>
     <g id="text_8">
      <!-- 17.5 -->
      <g transform="translate(323.887643 287.910437) scale(0.1 -0.1)">
       <use xlink:href="#DejaVuSans-31"/>
       <use xlink:href="#DejaVuSans-37" x="63.623047"/>
       <use xlink:href="#DejaVuSans-2e" x="127.246094"/>
       <use xlink:href="#DejaVuSans-35" x="159.033203"/>
      </g>
     </g>
    </g>
    <g id="xtick_9">
     <g id="line2d_9">
      <g>
       <use xlink:href="#m7100e9d5fb" x="375.806203" y="273.312" style="stroke: #000000; stroke-width: 0.8"/>
      </g>
     </g>
     <g id="text_9">
      <!-- 20.0 -->
      <g transform="translate(364.67339 287.910437) scale(0.1 -0.1)">
       <use xlink:href="#DejaVuSans-32"/>
       <use xlink:href="#DejaVuSans-30" x="63.623047"/>
       <use xlink:href="#DejaVuSans-2e" x="127.246094"/>
       <use xlink:href="#DejaVuSans-30" x="159.033203"/>
      </g>
     </g>
    </g>
   </g>
   <g id="matplotlib.axis_2">
    <g id="ytick_1">
     <g id="line2d_10">
      <defs>
       <path id="m5d52dc3c11" d="M 0 0 
L -3.5 0 
" style="stroke: #000000; stroke-width: 0.8"/>
      </defs>
      <g>
       <use xlink:href="#m5d52dc3c11" x="33.2875" y="261.216" style="stroke: #000000; stroke-width: 0.8"/>
      </g>
     </g>
     <g id="text_10">
      <!-- 0 -->
      <g transform="translate(19.925 265.015219) scale(0.1 -0.1)">
       <use xlink:href="#DejaVuSans-30"/>
      </g>
     </g>
    </g>
    <g id="ytick_2">
     <g id="line2d_11">
      <g>
       <use xlink:href="#m5d52dc3c11" x="33.2875" y="220.21261" style="stroke: #000000; stroke-width: 0.8"/>
      </g>
     </g>
     <g id="text_11">
      <!-- 50 -->
      <g transform="translate(13.5625 224.011829) scale(0.1 -0.1)">
       <use xlink:href="#DejaVuSans-35"/>
       <use xlink:href="#DejaVuSans-30" x="63.623047"/>
      </g>
     </g>
    </g>
    <g id="ytick_3">
     <g id="line2d_12">
      <g>
       <use xlink:href="#m5d52dc3c11" x="33.2875" y="179.20922" style="stroke: #000000; stroke-width: 0.8"/>
      </g>
     </g>
     <g id="text_12">
      <!-- 100 -->
      <g transform="translate(7.2 183.008439) scale(0.1 -0.1)">
       <use xlink:href="#DejaVuSans-31"/>
       <use xlink:href="#DejaVuSans-30" x="63.623047"/>
       <use xlink:href="#DejaVuSans-30" x="127.246094"/>
      </g>
     </g>
    </g>
    <g id="ytick_4">
     <g id="line2d_13">
      <g>
       <use xlink:href="#m5d52dc3c11" x="33.2875" y="138.205831" style="stroke: #000000; stroke-width: 0.8"/>
      </g>
     </g>
     <g id="text_13">
      <!-- 150 -->
      <g transform="translate(7.2 142.005049) scale(0.1 -0.1)">
       <use xlink:href="#DejaVuSans-31"/>
       <use xlink:href="#DejaVuSans-35" x="63.623047"/>
       <use xlink:href="#DejaVuSans-30" x="127.246094"/>
      </g>
     </g>
    </g>
    <g id="ytick_5">
     <g id="line2d_14">
      <g>
       <use xlink:href="#m5d52dc3c11" x="33.2875" y="97.202441" style="stroke: #000000; stroke-width: 0.8"/>
      </g>
     </g>
     <g id="text_14">
      <!-- 200 -->
      <g transform="translate(7.2 101.001659) scale(0.1 -0.1)">
       <use xlink:href="#DejaVuSans-32"/>
       <use xlink:href="#DejaVuSans-30" x="63.623047"/>
       <use xlink:href="#DejaVuSans-30" x="127.246094"/>
      </g>
     </g>
    </g>
    <g id="ytick_6">
     <g id="line2d_15">
      <g>
       <use xlink:href="#m5d52dc3c11" x="33.2875" y="56.199051" style="stroke: #000000; stroke-width: 0.8"/>
      </g>
     </g>
     <g id="text_15">
      <!-- 250 -->
      <g transform="translate(7.2 59.99827) scale(0.1 -0.1)">
       <use xlink:href="#DejaVuSans-32"/>
       <use xlink:href="#DejaVuSans-35" x="63.623047"/>
       <use xlink:href="#DejaVuSans-30" x="127.246094"/>
      </g>
     </g>
    </g>
    <g id="ytick_7">
     <g id="line2d_16">
      <g>
       <use xlink:href="#m5d52dc3c11" x="33.2875" y="15.195661" style="stroke: #000000; stroke-width: 0.8"/>
      </g>
     </g>
     <g id="text_16">
      <!-- 300 -->
      <g transform="translate(7.2 18.99488) scale(0.1 -0.1)">
       <defs>
        <path id="DejaVuSans-33" d="M 2597 2516 
Q 3050 2419 3304 2112 
Q 3559 1806 3559 1356 
Q 3559 666 3084 287 
Q 2609 -91 1734 -91 
Q 1441 -91 1130 -33 
Q 819 25 488 141 
L 488 750 
Q 750 597 1062 519 
Q 1375 441 1716 441 
Q 2309 441 2620 675 
Q 2931 909 2931 1356 
Q 2931 1769 2642 2001 
Q 2353 2234 1838 2234 
L 1294 2234 
L 1294 2753 
L 1863 2753 
Q 2328 2753 2575 2939 
Q 2822 3125 2822 3475 
Q 2822 3834 2567 4026 
Q 2313 4219 1838 4219 
Q 1578 4219 1281 4162 
Q 984 4106 628 3988 
L 628 4550 
Q 988 4650 1302 4700 
Q 1616 4750 1894 4750 
Q 2613 4750 3031 4423 
Q 3450 4097 3450 3541 
Q 3450 3153 3228 2886 
Q 3006 2619 2597 2516 
z
" transform="scale(0.015625)"/>
       </defs>
       <use xlink:href="#DejaVuSans-33"/>
       <use xlink:href="#DejaVuSans-30" x="63.623047"/>
       <use xlink:href="#DejaVuSans-30" x="127.246094"/>
      </g>
     </g>
    </g>
   </g>
   <g id="line2d_17">
    <path d="M 49.520227 261.216 
L 51.151657 188.229966 
L 52.783087 143.946305 
L 54.414517 103.762983 
L 56.045947 91.461966 
L 57.677377 75.06061 
L 59.308807 63.579661 
L 60.940236 53.738847 
L 62.571666 55.378983 
L 64.203096 53.738847 
L 65.834526 45.538169 
L 67.465956 47.998373 
L 69.097386 43.898034 
L 70.728816 41.437831 
L 72.360246 45.538169 
L 73.991675 47.178305 
L 75.623105 38.977627 
L 77.254535 43.898034 
L 78.885965 54.558915 
L 80.517395 45.538169 
L 82.148825 55.378983 
L 83.780255 61.939525 
L 85.411685 66.039864 
L 87.043114 61.119458 
L 88.674544 71.780339 
L 90.305974 68.500068 
L 91.937404 71.780339 
L 93.568834 67.68 
L 95.200264 74.240542 
L 96.831694 78.340881 
L 98.463124 75.880678 
L 100.094553 72.600407 
L 101.725983 67.68 
L 103.357413 59.479322 
L 104.988843 60.29939 
L 106.620273 57.839186 
L 108.251703 66.859932 
L 109.883133 57.019119 
L 111.514563 60.29939 
L 113.145992 62.759593 
L 114.777422 45.538169 
L 116.408852 45.538169 
L 118.040282 46.358237 
L 119.671712 39.797695 
L 121.303142 52.91878 
L 122.934572 52.098712 
L 124.566002 61.939525 
L 126.197431 62.759593 
L 127.828861 54.558915 
L 129.460291 48.818441 
L 131.091721 51.278644 
L 132.723151 52.91878 
L 134.354581 44.718102 
L 135.986011 43.077966 
L 137.617441 42.257898 
L 139.24887 58.659254 
L 140.8803 53.738847 
L 142.51173 59.479322 
L 144.14316 51.278644 
L 145.77459 55.378983 
L 147.40602 44.718102 
L 149.03745 58.659254 
L 150.66888 63.579661 
L 152.30031 57.839186 
L 153.931739 57.839186 
L 155.563169 55.378983 
L 157.194599 54.558915 
L 158.826029 52.91878 
L 160.457459 42.257898 
L 162.088889 61.119458 
L 163.720319 61.119458 
L 165.351749 60.29939 
L 166.983178 69.320136 
L 168.614608 63.579661 
L 170.246038 58.659254 
L 171.877468 54.558915 
L 173.508898 47.178305 
L 175.140328 61.939525 
L 176.771758 67.68 
L 178.403188 77.520814 
L 180.034617 84.081356 
L 181.666047 81.621153 
L 183.297477 75.06061 
L 184.928907 64.399729 
L 186.560337 63.579661 
L 188.191767 49.638508 
L 189.823197 50.458576 
L 191.454627 45.538169 
L 193.086056 37.337492 
L 194.717486 47.178305 
L 196.348916 58.659254 
L 197.980346 63.579661 
L 199.611776 58.659254 
L 201.243206 51.278644 
L 202.874636 46.358237 
L 204.506066 57.839186 
L 206.137495 57.839186 
L 207.768925 52.91878 
L 209.400355 52.91878 
L 211.031785 57.839186 
L 212.663215 49.638508 
L 214.294645 55.378983 
L 215.926075 58.659254 
L 217.557505 55.378983 
L 219.188934 54.558915 
L 220.820364 66.859932 
L 222.451794 59.479322 
L 224.083224 66.859932 
L 227.346084 65.219797 
L 228.977514 70.960271 
L 230.608944 67.68 
L 232.240373 66.859932 
L 233.871803 60.29939 
L 235.503233 57.839186 
L 237.134663 52.098712 
L 238.766093 54.558915 
L 240.397523 58.659254 
L 242.028953 63.579661 
L 243.660383 59.479322 
L 245.291812 59.479322 
L 246.923242 52.91878 
L 248.554672 48.818441 
L 250.186102 52.098712 
L 253.448962 45.538169 
L 255.080392 48.818441 
L 256.711822 45.538169 
L 258.343251 56.199051 
L 259.974681 55.378983 
L 261.606111 47.998373 
L 263.237541 50.458576 
L 264.868971 42.257898 
L 266.500401 37.337492 
L 268.131831 33.237153 
L 269.763261 56.199051 
L 271.39469 52.91878 
L 273.02612 64.399729 
L 274.65755 56.199051 
L 276.28898 44.718102 
L 277.92041 44.718102 
L 279.55184 41.437831 
L 281.18327 52.098712 
L 282.8147 64.399729 
L 284.44613 62.759593 
L 286.077559 54.558915 
L 287.708989 56.199051 
L 289.340419 61.939525 
L 290.971849 65.219797 
L 292.603279 59.479322 
L 294.234709 54.558915 
L 295.866139 48.818441 
L 297.497569 44.718102 
L 299.128998 46.358237 
L 300.760428 48.818441 
L 302.391858 58.659254 
L 304.023288 66.859932 
L 305.654718 57.019119 
L 307.286148 55.378983 
L 308.917578 57.019119 
L 310.549008 52.098712 
L 312.180437 44.718102 
L 313.811867 51.278644 
L 315.443297 55.378983 
L 317.074727 42.257898 
L 318.706157 50.458576 
L 320.337587 45.538169 
L 321.969017 61.939525 
L 323.600447 63.579661 
L 325.231876 62.759593 
L 326.863306 53.738847 
L 328.494736 54.558915 
L 330.126166 61.939525 
L 333.389026 57.019119 
L 335.020456 66.859932 
L 336.651886 75.06061 
L 338.283315 66.039864 
L 339.914745 61.939525 
L 341.546175 51.278644 
L 343.177605 51.278644 
L 344.809035 52.098712 
L 346.440465 49.638508 
L 348.071895 47.998373 
L 349.703325 48.818441 
L 351.334754 47.998373 
L 352.966184 45.538169 
L 354.597614 43.898034 
L 356.229044 38.977627 
L 357.860474 55.378983 
L 359.491904 54.558915 
L 361.123334 55.378983 
L 362.754764 61.119458 
L 364.386193 69.320136 
L 366.017623 68.500068 
L 367.649053 61.939525 
L 369.280483 59.479322 
L 370.911913 45.538169 
L 372.543343 53.738847 
L 374.174773 54.558915 
L 374.174773 54.558915 
" clip-path="url(#p88c734575f)" style="fill: none; stroke: #1f77b4; stroke-width: 1.5; stroke-linecap: square"/>
   </g>
   <g id="line2d_18">
    <path d="M 49.520227 261.216 
L 51.151657 252.195254 
L 52.783087 224.312949 
L 54.414517 202.171119 
L 56.045947 162.807864 
L 57.677377 147.226576 
L 59.308807 124.264678 
L 60.940236 124.264678 
L 64.203096 85.721492 
L 65.834526 81.621153 
L 67.465956 87.361627 
L 69.097386 84.081356 
L 70.728816 77.520814 
L 72.360246 57.019119 
L 73.991675 62.759593 
L 75.623105 65.219797 
L 77.254535 56.199051 
L 78.885965 52.098712 
L 80.517395 61.119458 
L 82.148825 57.839186 
L 83.780255 48.818441 
L 85.411685 46.358237 
L 87.043114 55.378983 
L 88.674544 33.237153 
L 90.305974 41.437831 
L 91.937404 48.818441 
L 93.568834 47.178305 
L 95.200264 42.257898 
L 96.831694 47.998373 
L 98.463124 67.68 
L 100.094553 66.859932 
L 101.725983 62.759593 
L 104.988843 64.399729 
L 106.620273 77.520814 
L 108.251703 62.759593 
L 109.883133 73.420475 
L 111.514563 70.960271 
L 113.145992 67.68 
L 114.777422 77.520814 
L 116.408852 74.240542 
L 118.040282 61.119458 
L 119.671712 60.29939 
L 121.303142 39.797695 
L 122.934572 30.776949 
L 124.566002 38.157559 
L 126.197431 39.797695 
L 127.828861 52.91878 
L 129.460291 61.939525 
L 131.091721 70.140203 
L 132.723151 60.29939 
L 134.354581 68.500068 
L 135.986011 57.839186 
L 137.617441 50.458576 
L 139.24887 38.977627 
L 140.8803 61.119458 
L 142.51173 34.877288 
L 144.14316 48.818441 
L 145.77459 44.718102 
L 147.40602 64.399729 
L 149.03745 60.29939 
L 150.66888 59.479322 
L 152.30031 65.219797 
L 153.931739 56.199051 
L 155.563169 63.579661 
L 158.826029 45.538169 
L 160.457459 49.638508 
L 162.088889 35.697356 
L 163.720319 42.257898 
L 166.983178 42.257898 
L 168.614608 55.378983 
L 170.246038 47.178305 
L 171.877468 56.199051 
L 173.508898 61.119458 
L 175.140328 59.479322 
L 176.771758 52.91878 
L 178.403188 48.818441 
L 180.034617 41.437831 
L 181.666047 66.859932 
L 183.297477 81.621153 
L 184.928907 83.261288 
L 186.560337 80.801085 
L 188.191767 75.880678 
L 189.823197 52.91878 
L 191.454627 55.378983 
L 193.086056 62.759593 
L 194.717486 53.738847 
L 196.348916 47.998373 
L 197.980346 39.797695 
L 199.611776 65.219797 
L 201.243206 77.520814 
L 202.874636 86.541559 
L 204.506066 62.759593 
L 206.137495 73.420475 
L 207.768925 69.320136 
L 209.400355 55.378983 
L 211.031785 62.759593 
L 212.663215 69.320136 
L 214.294645 61.939525 
L 215.926075 52.91878 
L 217.557505 57.839186 
L 219.188934 51.278644 
L 220.820364 48.818441 
L 222.451794 52.098712 
L 224.083224 43.898034 
L 225.714654 49.638508 
L 227.346084 66.039864 
L 228.977514 57.839186 
L 230.608944 63.579661 
L 232.240373 67.68 
L 233.871803 79.160949 
L 235.503233 79.981017 
L 238.766093 46.358237 
L 240.397523 56.199051 
L 242.028953 35.697356 
L 243.660383 39.797695 
L 245.291812 45.538169 
L 246.923242 63.579661 
L 248.554672 75.880678 
L 250.186102 79.160949 
L 251.817532 79.981017 
L 253.448962 84.901424 
L 255.080392 69.320136 
L 256.711822 66.859932 
L 258.343251 49.638508 
L 259.974681 66.039864 
L 261.606111 73.420475 
L 263.237541 69.320136 
L 264.868971 79.160949 
L 266.500401 80.801085 
L 268.131831 74.240542 
L 269.763261 59.479322 
L 271.39469 46.358237 
L 273.02612 38.157559 
L 274.65755 57.839186 
L 276.28898 66.039864 
L 277.92041 66.859932 
L 279.55184 63.579661 
L 281.18327 61.119458 
L 282.8147 45.538169 
L 284.44613 46.358237 
L 286.077559 62.759593 
L 287.708989 54.558915 
L 289.340419 54.558915 
L 290.971849 36.517424 
L 292.603279 61.119458 
L 294.234709 68.500068 
L 295.866139 51.278644 
L 297.497569 70.140203 
L 299.128998 68.500068 
L 300.760428 62.759593 
L 302.391858 61.939525 
L 304.023288 56.199051 
L 305.654718 68.500068 
L 307.286148 61.119458 
L 308.917578 50.458576 
L 310.549008 46.358237 
L 312.180437 55.378983 
L 313.811867 53.738847 
L 315.443297 43.898034 
L 317.074727 57.019119 
L 318.706157 52.098712 
L 320.337587 56.199051 
L 321.969017 51.278644 
L 323.600447 52.098712 
L 325.231876 49.638508 
L 326.863306 58.659254 
L 328.494736 52.098712 
L 330.126166 43.898034 
L 331.757596 51.278644 
L 333.389026 49.638508 
L 335.020456 37.337492 
L 336.651886 34.877288 
L 338.283315 45.538169 
L 339.914745 52.91878 
L 341.546175 56.199051 
L 343.177605 53.738847 
L 344.809035 50.458576 
L 346.440465 59.479322 
L 348.071895 61.119458 
L 349.703325 52.098712 
L 352.966184 61.939525 
L 354.597614 47.178305 
L 356.229044 48.818441 
L 357.860474 19.296 
L 359.491904 28.316746 
L 361.123334 21.756203 
L 362.754764 25.036475 
L 364.386193 21.756203 
L 366.017623 44.718102 
L 367.649053 50.458576 
L 369.280483 60.29939 
L 370.911913 77.520814 
L 372.543343 67.68 
L 374.174773 55.378983 
L 374.174773 55.378983 
" clip-path="url(#p88c734575f)" style="fill: none; stroke: #ff7f0e; stroke-width: 1.5; stroke-linecap: square"/>
   </g>
   <g id="patch_3">
    <path d="M 33.2875 273.312 
L 33.2875 7.2 
" style="fill: none; stroke: #000000; stroke-width: 0.8; stroke-linejoin: miter; stroke-linecap: square"/>
   </g>
   <g id="patch_4">
    <path d="M 390.4075 273.312 
L 390.4075 7.2 
" style="fill: none; stroke: #000000; stroke-width: 0.8; stroke-linejoin: miter; stroke-linecap: square"/>
   </g>
   <g id="patch_5">
    <path d="M 33.2875 273.312 
L 390.4075 273.312 
" style="fill: none; stroke: #000000; stroke-width: 0.8; stroke-linejoin: miter; stroke-linecap: square"/>
   </g>
   <g id="patch_6">
    <path d="M 33.2875 7.2 
L 390.4075 7.2 
" style="fill: none; stroke: #000000; stroke-width: 0.8; stroke-linejoin: miter; stroke-linecap: square"/>
   </g>
  </g>
 </g>
 <defs>
  <clipPath id="p88c734575f">
   <rect x="33.2875" y="7.2" width="357.12" height="266.112"/>
  </clipPath>
 </defs>
</svg>
