<?xml version="1.0" encoding="utf-8" standalone="no"?>
<!DOCTYPE svg PUBLIC "-//W3C//DTD SVG 1.1//EN"
  "http://www.w3.org/Graphics/SVG/1.1/DTD/svg11.dtd">
<svg xmlns:xlink="http://www.w3.org/1999/xlink" width="403.97pt" height="297.190125pt" viewBox="0 0 403.97 297.190125" xmlns="http://www.w3.org/2000/svg" version="1.1">
 <metadata>
  <rdf:RDF xmlns:dc="http://purl.org/dc/elements/1.1/" xmlns:cc="http://creativecommons.org/ns#" xmlns:rdf="http://www.w3.org/1999/02/22-rdf-syntax-ns#">
   <cc:Work>
    <dc:type rdf:resource="http://purl.org/dc/dcmitype/StillImage"/>
    <dc:date>2025-02-18T01:15:21.141257</dc:date>
    <dc:format>image/svg+xml</dc:format>
    <dc:creator>
     <cc:Agent>
      <dc:title>Matplotlib v3.10.0, https://matplotlib.org/</dc:title>
     </cc:Agent>
    </dc:creator>
   </cc:Work>
  </rdf:RDF>
 </metadata>
 <defs>
  <style type="text/css">*{stroke-linejoin: round; stroke-linecap: butt}</style>
 </defs>
 <g id="figure_1">
  <g id="patch_1">
   <path d="M 0 297.190125 
L 403.97 297.190125 
L 403.97 0 
L 0 0 
z
" style="fill: #ffffff"/>
  </g>
  <g id="axes_1">
   <g id="patch_2">
    <path d="M 39.65 273.312 
L 396.77 273.312 
L 396.77 7.2 
L 39.65 7.2 
z
" style="fill: #ffffff"/>
   </g>
   <g id="matplotlib.axis_1">
    <g id="xtick_1">
     <g id="line2d_1">
      <defs>
       <path id="m7717071ccf" d="M 0 0 
L 0 3.5 
" style="stroke: #000000; stroke-width: 0.8"/>
      </defs>
      <g>
       <use xlink:href="#m7717071ccf" x="55.882727" y="273.312" style="stroke: #000000; stroke-width: 0.8"/>
      </g>
     </g>
     <g id="text_1">
      <!-- 0.0 -->
      <g transform="translate(47.931165 287.910437) scale(0.1 -0.1)">
       <defs>
        <path id="DejaVuSans-30" d="M 2034 4250 
Q 1547 4250 1301 3770 
Q 1056 3291 1056 2328 
Q 1056 1369 1301 889 
Q 1547 409 2034 409 
Q 2525 409 2770 889 
Q 3016 1369 3016 2328 
Q 3016 3291 2770 3770 
Q 2525 4250 2034 4250 
z
M 2034 4750 
Q 2819 4750 3233 4129 
Q 3647 3509 3647 2328 
Q 3647 1150 3233 529 
Q 2819 -91 2034 -91 
Q 1250 -91 836 529 
Q 422 1150 422 2328 
Q 422 3509 836 4129 
Q 1250 4750 2034 4750 
z
" transform="scale(0.015625)"/>
        <path id="DejaVuSans-2e" d="M 684 794 
L 1344 794 
L 1344 0 
L 684 0 
L 684 794 
z
" transform="scale(0.015625)"/>
       </defs>
       <use xlink:href="#DejaVuSans-30"/>
       <use xlink:href="#DejaVuSans-2e" transform="translate(63.623047 0)"/>
       <use xlink:href="#DejaVuSans-30" transform="translate(95.410156 0)"/>
      </g>
     </g>
    </g>
    <g id="xtick_2">
     <g id="line2d_2">
      <g>
       <use xlink:href="#m7717071ccf" x="96.668474" y="273.312" style="stroke: #000000; stroke-width: 0.8"/>
      </g>
     </g>
     <g id="text_2">
      <!-- 2.5 -->
      <g transform="translate(88.716912 287.910437) scale(0.1 -0.1)">
       <defs>
        <path id="DejaVuSans-32" d="M 1228 531 
L 3431 531 
L 3431 0 
L 469 0 
L 469 531 
Q 828 903 1448 1529 
Q 2069 2156 2228 2338 
Q 2531 2678 2651 2914 
Q 2772 3150 2772 3378 
Q 2772 3750 2511 3984 
Q 2250 4219 1831 4219 
Q 1534 4219 1204 4116 
Q 875 4013 500 3803 
L 500 4441 
Q 881 4594 1212 4672 
Q 1544 4750 1819 4750 
Q 2544 4750 2975 4387 
Q 3406 4025 3406 3419 
Q 3406 3131 3298 2873 
Q 3191 2616 2906 2266 
Q 2828 2175 2409 1742 
Q 1991 1309 1228 531 
z
" transform="scale(0.015625)"/>
        <path id="DejaVuSans-35" d="M 691 4666 
L 3169 4666 
L 3169 4134 
L 1269 4134 
L 1269 2991 
Q 1406 3038 1543 3061 
Q 1681 3084 1819 3084 
Q 2600 3084 3056 2656 
Q 3513 2228 3513 1497 
Q 3513 744 3044 326 
Q 2575 -91 1722 -91 
Q 1428 -91 1123 -41 
Q 819 9 494 109 
L 494 744 
Q 775 591 1075 516 
Q 1375 441 1709 441 
Q 2250 441 2565 725 
Q 2881 1009 2881 1497 
Q 2881 1984 2565 2268 
Q 2250 2553 1709 2553 
Q 1456 2553 1204 2497 
Q 953 2441 691 2322 
L 691 4666 
z
" transform="scale(0.015625)"/>
       </defs>
       <use xlink:href="#DejaVuSans-32"/>
       <use xlink:href="#DejaVuSans-2e" transform="translate(63.623047 0)"/>
       <use xlink:href="#DejaVuSans-35" transform="translate(95.410156 0)"/>
      </g>
     </g>
    </g>
    <g id="xtick_3">
     <g id="line2d_3">
      <g>
       <use xlink:href="#m7717071ccf" x="137.454221" y="273.312" style="stroke: #000000; stroke-width: 0.8"/>
      </g>
     </g>
     <g id="text_3">
      <!-- 5.0 -->
      <g transform="translate(129.502659 287.910437) scale(0.1 -0.1)">
       <use xlink:href="#DejaVuSans-35"/>
       <use xlink:href="#DejaVuSans-2e" transform="translate(63.623047 0)"/>
       <use xlink:href="#DejaVuSans-30" transform="translate(95.410156 0)"/>
      </g>
     </g>
    </g>
    <g id="xtick_4">
     <g id="line2d_4">
      <g>
       <use xlink:href="#m7717071ccf" x="178.239968" y="273.312" style="stroke: #000000; stroke-width: 0.8"/>
      </g>
     </g>
     <g id="text_4">
      <!-- 7.5 -->
      <g transform="translate(170.288406 287.910437) scale(0.1 -0.1)">
       <defs>
        <path id="DejaVuSans-37" d="M 525 4666 
L 3525 4666 
L 3525 4397 
L 1831 0 
L 1172 0 
L 2766 4134 
L 525 4134 
L 525 4666 
z
" transform="scale(0.015625)"/>
       </defs>
       <use xlink:href="#DejaVuSans-37"/>
       <use xlink:href="#DejaVuSans-2e" transform="translate(63.623047 0)"/>
       <use xlink:href="#DejaVuSans-35" transform="translate(95.410156 0)"/>
      </g>
     </g>
    </g>
    <g id="xtick_5">
     <g id="line2d_5">
      <g>
       <use xlink:href="#m7717071ccf" x="219.025715" y="273.312" style="stroke: #000000; stroke-width: 0.8"/>
      </g>
     </g>
     <g id="text_5">
      <!-- 10.0 -->
      <g transform="translate(207.892902 287.910437) scale(0.1 -0.1)">
       <defs>
        <path id="DejaVuSans-31" d="M 794 531 
L 1825 531 
L 1825 4091 
L 703 3866 
L 703 4441 
L 1819 4666 
L 2450 4666 
L 2450 531 
L 3481 531 
L 3481 0 
L 794 0 
L 794 531 
z
" transform="scale(0.015625)"/>
       </defs>
       <use xlink:href="#DejaVuSans-31"/>
       <use xlink:href="#DejaVuSans-30" transform="translate(63.623047 0)"/>
       <use xlink:href="#DejaVuSans-2e" transform="translate(127.246094 0)"/>
       <use xlink:href="#DejaVuSans-30" transform="translate(159.033203 0)"/>
      </g>
     </g>
    </g>
    <g id="xtick_6">
     <g id="line2d_6">
      <g>
       <use xlink:href="#m7717071ccf" x="259.811462" y="273.312" style="stroke: #000000; stroke-width: 0.8"/>
      </g>
     </g>
     <g id="text_6">
      <!-- 12.5 -->
      <g transform="translate(248.678649 287.910437) scale(0.1 -0.1)">
       <use xlink:href="#DejaVuSans-31"/>
       <use xlink:href="#DejaVuSans-32" transform="translate(63.623047 0)"/>
       <use xlink:href="#DejaVuSans-2e" transform="translate(127.246094 0)"/>
       <use xlink:href="#DejaVuSans-35" transform="translate(159.033203 0)"/>
      </g>
     </g>
    </g>
    <g id="xtick_7">
     <g id="line2d_7">
      <g>
       <use xlink:href="#m7717071ccf" x="300.597209" y="273.312" style="stroke: #000000; stroke-width: 0.8"/>
      </g>
     </g>
     <g id="text_7">
      <!-- 15.0 -->
      <g transform="translate(289.464396 287.910437) scale(0.1 -0.1)">
       <use xlink:href="#DejaVuSans-31"/>
       <use xlink:href="#DejaVuSans-35" transform="translate(63.623047 0)"/>
       <use xlink:href="#DejaVuSans-2e" transform="translate(127.246094 0)"/>
       <use xlink:href="#DejaVuSans-30" transform="translate(159.033203 0)"/>
      </g>
     </g>
    </g>
    <g id="xtick_8">
     <g id="line2d_8">
      <g>
       <use xlink:href="#m7717071ccf" x="341.382956" y="273.312" style="stroke: #000000; stroke-width: 0.8"/>
      </g>
     </g>
     <g id="text_8">
      <!-- 17.5 -->
      <g transform="translate(330.250143 287.910437) scale(0.1 -0.1)">
       <use xlink:href="#DejaVuSans-31"/>
       <use xlink:href="#DejaVuSans-37" transform="translate(63.623047 0)"/>
       <use xlink:href="#DejaVuSans-2e" transform="translate(127.246094 0)"/>
       <use xlink:href="#DejaVuSans-35" transform="translate(159.033203 0)"/>
      </g>
     </g>
    </g>
    <g id="xtick_9">
     <g id="line2d_9">
      <g>
       <use xlink:href="#m7717071ccf" x="382.168703" y="273.312" style="stroke: #000000; stroke-width: 0.8"/>
      </g>
     </g>
     <g id="text_9">
      <!-- 20.0 -->
      <g transform="translate(371.03589 287.910437) scale(0.1 -0.1)">
       <use xlink:href="#DejaVuSans-32"/>
       <use xlink:href="#DejaVuSans-30" transform="translate(63.623047 0)"/>
       <use xlink:href="#DejaVuSans-2e" transform="translate(127.246094 0)"/>
       <use xlink:href="#DejaVuSans-30" transform="translate(159.033203 0)"/>
      </g>
     </g>
    </g>
   </g>
   <g id="matplotlib.axis_2">
    <g id="ytick_1">
     <g id="line2d_10">
      <defs>
       <path id="m03772765e1" d="M 0 0 
L -3.5 0 
" style="stroke: #000000; stroke-width: 0.8"/>
      </defs>
      <g>
       <use xlink:href="#m03772765e1" x="39.65" y="261.216" style="stroke: #000000; stroke-width: 0.8"/>
      </g>
     </g>
     <g id="text_10">
      <!-- 0 -->
      <g transform="translate(26.2875 265.015219) scale(0.1 -0.1)">
       <use xlink:href="#DejaVuSans-30"/>
      </g>
     </g>
    </g>
    <g id="ytick_2">
     <g id="line2d_11">
      <g>
       <use xlink:href="#m03772765e1" x="39.65" y="226.862876" style="stroke: #000000; stroke-width: 0.8"/>
      </g>
     </g>
     <g id="text_11">
      <!-- 500 -->
      <g transform="translate(13.5625 230.662095) scale(0.1 -0.1)">
       <use xlink:href="#DejaVuSans-35"/>
       <use xlink:href="#DejaVuSans-30" transform="translate(63.623047 0)"/>
       <use xlink:href="#DejaVuSans-30" transform="translate(127.246094 0)"/>
      </g>
     </g>
    </g>
    <g id="ytick_3">
     <g id="line2d_12">
      <g>
       <use xlink:href="#m03772765e1" x="39.65" y="192.509752" style="stroke: #000000; stroke-width: 0.8"/>
      </g>
     </g>
     <g id="text_12">
      <!-- 1000 -->
      <g transform="translate(7.2 196.308971) scale(0.1 -0.1)">
       <use xlink:href="#DejaVuSans-31"/>
       <use xlink:href="#DejaVuSans-30" transform="translate(63.623047 0)"/>
       <use xlink:href="#DejaVuSans-30" transform="translate(127.246094 0)"/>
       <use xlink:href="#DejaVuSans-30" transform="translate(190.869141 0)"/>
      </g>
     </g>
    </g>
    <g id="ytick_4">
     <g id="line2d_13">
      <g>
       <use xlink:href="#m03772765e1" x="39.65" y="158.156628" style="stroke: #000000; stroke-width: 0.8"/>
      </g>
     </g>
     <g id="text_13">
      <!-- 1500 -->
      <g transform="translate(7.2 161.955847) scale(0.1 -0.1)">
       <use xlink:href="#DejaVuSans-31"/>
       <use xlink:href="#DejaVuSans-35" transform="translate(63.623047 0)"/>
       <use xlink:href="#DejaVuSans-30" transform="translate(127.246094 0)"/>
       <use xlink:href="#DejaVuSans-30" transform="translate(190.869141 0)"/>
      </g>
     </g>
    </g>
    <g id="ytick_5">
     <g id="line2d_14">
      <g>
       <use xlink:href="#m03772765e1" x="39.65" y="123.803504" style="stroke: #000000; stroke-width: 0.8"/>
      </g>
     </g>
     <g id="text_14">
      <!-- 2000 -->
      <g transform="translate(7.2 127.602722) scale(0.1 -0.1)">
       <use xlink:href="#DejaVuSans-32"/>
       <use xlink:href="#DejaVuSans-30" transform="translate(63.623047 0)"/>
       <use xlink:href="#DejaVuSans-30" transform="translate(127.246094 0)"/>
       <use xlink:href="#DejaVuSans-30" transform="translate(190.869141 0)"/>
      </g>
     </g>
    </g>
    <g id="ytick_6">
     <g id="line2d_15">
      <g>
       <use xlink:href="#m03772765e1" x="39.65" y="89.45038" style="stroke: #000000; stroke-width: 0.8"/>
      </g>
     </g>
     <g id="text_15">
      <!-- 2500 -->
      <g transform="translate(7.2 93.249598) scale(0.1 -0.1)">
       <use xlink:href="#DejaVuSans-32"/>
       <use xlink:href="#DejaVuSans-35" transform="translate(63.623047 0)"/>
       <use xlink:href="#DejaVuSans-30" transform="translate(127.246094 0)"/>
       <use xlink:href="#DejaVuSans-30" transform="translate(190.869141 0)"/>
      </g>
     </g>
    </g>
    <g id="ytick_7">
     <g id="line2d_16">
      <g>
       <use xlink:href="#m03772765e1" x="39.65" y="55.097256" style="stroke: #000000; stroke-width: 0.8"/>
      </g>
     </g>
     <g id="text_16">
      <!-- 3000 -->
      <g transform="translate(7.2 58.896474) scale(0.1 -0.1)">
       <defs>
        <path id="DejaVuSans-33" d="M 2597 2516 
Q 3050 2419 3304 2112 
Q 3559 1806 3559 1356 
Q 3559 666 3084 287 
Q 2609 -91 1734 -91 
Q 1441 -91 1130 -33 
Q 819 25 488 141 
L 488 750 
Q 750 597 1062 519 
Q 1375 441 1716 441 
Q 2309 441 2620 675 
Q 2931 909 2931 1356 
Q 2931 1769 2642 2001 
Q 2353 2234 1838 2234 
L 1294 2234 
L 1294 2753 
L 1863 2753 
Q 2328 2753 2575 2939 
Q 2822 3125 2822 3475 
Q 2822 3834 2567 4026 
Q 2313 4219 1838 4219 
Q 1578 4219 1281 4162 
Q 984 4106 628 3988 
L 628 4550 
Q 988 4650 1302 4700 
Q 1616 4750 1894 4750 
Q 2613 4750 3031 4423 
Q 3450 4097 3450 3541 
Q 3450 3153 3228 2886 
Q 3006 2619 2597 2516 
z
" transform="scale(0.015625)"/>
       </defs>
       <use xlink:href="#DejaVuSans-33"/>
       <use xlink:href="#DejaVuSans-30" transform="translate(63.623047 0)"/>
       <use xlink:href="#DejaVuSans-30" transform="translate(127.246094 0)"/>
       <use xlink:href="#DejaVuSans-30" transform="translate(190.869141 0)"/>
      </g>
     </g>
    </g>
    <g id="ytick_8">
     <g id="line2d_17">
      <g>
       <use xlink:href="#m03772765e1" x="39.65" y="20.744132" style="stroke: #000000; stroke-width: 0.8"/>
      </g>
     </g>
     <g id="text_17">
      <!-- 3500 -->
      <g transform="translate(7.2 24.54335) scale(0.1 -0.1)">
       <use xlink:href="#DejaVuSans-33"/>
       <use xlink:href="#DejaVuSans-35" transform="translate(63.623047 0)"/>
       <use xlink:href="#DejaVuSans-30" transform="translate(127.246094 0)"/>
       <use xlink:href="#DejaVuSans-30" transform="translate(190.869141 0)"/>
      </g>
     </g>
    </g>
   </g>
   <g id="line2d_18">
    <path d="M 55.882727 261.216 
L 72.197026 192.509752 
L 88.511325 143.281725 
L 104.825624 108.009844 
L 121.139922 82.737541 
L 137.454221 64.629936 
L 153.76852 51.655837 
L 170.082819 42.359895 
L 186.397117 35.699353 
L 202.711416 30.927074 
L 219.025715 27.507736 
L 235.340014 25.057781 
L 251.654312 23.302388 
L 267.968611 22.044649 
L 284.28291 21.143479 
L 300.597209 20.49779 
L 316.911508 20.035155 
L 333.225806 19.703676 
L 349.540105 19.466172 
L 365.854404 19.296 
" clip-path="url(#pf107592bae)" style="fill: none; stroke: #1f77b4; stroke-width: 1.5; stroke-linecap: square"/>
   </g>
   <g id="line2d_19">
    <path d="M 55.882727 261.216 
L 72.197026 261.216 
L 88.511325 238.313917 
L 104.825624 210.146646 
L 121.139922 183.928275 
L 137.454221 162.043662 
L 153.76852 144.772234 
L 170.082819 131.580383 
L 186.397117 121.709039 
L 202.711416 114.420911 
L 219.025715 109.088426 
L 235.340014 105.210949 
L 251.654312 102.4036 
L 267.968611 100.377177 
L 284.28291 98.917564 
L 300.597209 97.867809 
L 316.911508 97.113636 
L 333.225806 96.572231 
L 349.540105 96.183781 
L 365.854404 95.905183 
" clip-path="url(#pf107592bae)" style="fill: none; stroke: #ff7f0e; stroke-width: 1.5; stroke-linecap: square"/>
   </g>
   <g id="line2d_20">
    <path d="M 55.882727 261.216 
L 57.514157 253.108663 
L 59.145587 246.9251 
L 60.777017 241.222482 
L 64.039877 231.260076 
L 67.302736 218.755539 
L 70.565596 208.518308 
L 73.828456 196.975658 
L 77.091316 187.356783 
L 78.722746 184.814652 
L 80.354175 179.524271 
L 83.617035 172.722352 
L 85.248465 168.462565 
L 86.879895 164.958546 
L 88.511325 164.065365 
L 90.142755 160.973584 
L 91.774185 156.301559 
L 93.405614 152.934953 
L 95.037044 149.293522 
L 96.668474 147.026216 
L 98.299904 144.209259 
L 99.931334 140.499122 
L 101.562764 137.956991 
L 103.194194 135.827097 
L 104.825624 132.735316 
L 106.457053 130.742835 
L 108.088483 128.338116 
L 109.719913 125.658572 
L 112.982773 121.536198 
L 114.614203 118.650535 
L 116.245633 116.589348 
L 117.877063 115.558754 
L 119.508492 115.009104 
L 122.771352 110.337079 
L 124.402782 109.237779 
L 126.034212 108.275892 
L 127.665642 108.207185 
L 129.297072 107.176592 
L 132.559931 102.985511 
L 134.191361 98.931842 
L 135.822791 97.901248 
L 137.454221 96.527123 
L 139.085651 94.809467 
L 140.717081 91.511567 
L 142.348511 91.236742 
L 143.979941 89.45038 
L 145.61137 86.564717 
L 147.2428 84.984474 
L 148.87423 83.679055 
L 150.50566 83.679055 
L 152.13709 83.40423 
L 153.76852 82.30493 
L 155.39995 79.144442 
L 157.03138 78.526086 
L 158.66281 76.945843 
L 160.294239 75.70913 
L 161.925669 74.815949 
L 163.557099 75.571718 
L 165.188529 75.15948 
L 166.819959 75.503011 
L 168.451389 75.022068 
L 170.082819 74.128886 
L 171.714249 74.815949 
L 173.345678 74.747243 
L 174.977108 73.716649 
L 176.608538 73.716649 
L 178.239968 73.166999 
L 179.871398 73.029586 
L 181.502828 72.136405 
L 183.134258 72.96088 
L 184.765688 71.105811 
L 186.397117 69.869099 
L 188.028547 69.525568 
L 191.291407 66.777318 
L 192.922837 66.227668 
L 194.554267 68.838505 
L 196.185697 69.319449 
L 199.448556 68.975918 
L 201.079986 67.46438 
L 202.711416 68.01403 
L 207.605706 65.334487 
L 209.237136 65.540605 
L 210.868566 65.609312 
L 212.499995 65.952843 
L 214.131425 65.746724 
L 215.762855 65.128368 
L 217.394285 64.029068 
L 219.025715 62.654943 
L 220.657145 62.586237 
L 222.288575 61.074699 
L 223.920005 60.662462 
L 225.551434 60.387637 
L 227.182864 60.86858 
L 230.445724 61.624349 
L 232.077154 59.425749 
L 233.708584 61.143405 
L 235.340014 58.532568 
L 236.971444 58.257743 
L 238.602873 58.257743 
L 240.234303 57.227149 
L 241.865733 55.646906 
L 243.497163 55.303374 
L 245.128593 55.372081 
L 246.760023 56.196556 
L 248.391453 54.753724 
L 250.022883 54.685018 
L 253.285742 56.196556 
L 254.917172 54.204074 
L 256.548602 53.036068 
L 258.180032 53.997956 
L 259.811462 55.578199 
L 261.442892 56.059143 
L 263.074322 55.646906 
L 264.705751 55.509493 
L 266.337181 53.448306 
L 267.968611 52.692537 
L 269.600041 52.692537 
L 271.231471 51.730649 
L 272.862901 51.661943 
L 274.494331 51.387118 
L 276.125761 53.448306 
L 277.75719 54.410193 
L 279.38862 55.234668 
L 281.02005 55.372081 
L 282.65148 54.891137 
L 284.28291 54.204074 
L 285.91434 56.952324 
L 287.54577 56.883618 
L 289.1772 56.265262 
L 290.80863 58.051624 
L 292.440059 57.021031 
L 295.702919 58.257743 
L 297.334349 57.433268 
L 298.965779 58.051624 
L 300.597209 57.845506 
L 302.228639 58.807393 
L 303.860069 58.463862 
L 305.491498 59.494455 
L 307.122928 58.257743 
L 308.754358 58.532568 
L 310.385788 59.975399 
L 312.017218 59.975399 
L 313.648648 59.288337 
L 315.280078 59.975399 
L 316.911508 60.044105 
L 320.174367 56.540087 
L 321.805797 56.608793 
L 323.437227 58.326449 
L 325.068657 58.601274 
L 326.700087 58.120331 
L 328.331517 58.395156 
L 329.962947 59.494455 
L 331.594376 58.876099 
L 333.225806 57.364562 
L 334.857236 57.433268 
L 336.488666 57.295856 
L 338.120096 57.021031 
L 341.382956 57.295856 
L 343.014386 59.082218 
L 344.645815 58.051624 
L 346.277245 58.120331 
L 347.908675 58.532568 
L 349.540105 57.776799 
L 354.434395 56.127849 
L 356.065825 54.891137 
L 357.697254 55.990437 
L 359.328684 56.540087 
L 360.960114 57.639387 
L 362.591544 59.425749 
L 364.222974 60.31893 
L 365.854404 59.76928 
L 367.485834 59.357043 
L 369.117264 58.66998 
L 370.748693 59.975399 
L 372.380123 59.150924 
L 374.011553 58.189037 
L 375.642983 57.501974 
L 377.274413 57.158443 
L 378.905843 58.395156 
L 380.537273 55.715612 
L 380.537273 55.715612 
" clip-path="url(#pf107592bae)" style="fill: none; stroke: #2ca02c; stroke-width: 1.5; stroke-linecap: square"/>
   </g>
   <g id="line2d_21">
    <path d="M 55.882727 261.216 
L 57.514157 261.216 
L 59.145587 260.941175 
L 60.777017 260.528938 
L 62.408447 259.429638 
L 64.039877 259.360931 
L 67.302736 257.093625 
L 70.565596 254.207963 
L 75.459886 250.360413 
L 77.091316 248.780169 
L 78.722746 246.100625 
L 80.354175 245.344857 
L 81.985605 242.940138 
L 83.617035 240.123182 
L 85.248465 239.367413 
L 86.879895 237.993288 
L 88.511325 235.863394 
L 90.142755 234.145738 
L 91.774185 232.909026 
L 96.668474 228.237001 
L 98.299904 225.351338 
L 99.931334 223.084032 
L 103.194194 219.580014 
L 104.825624 218.480714 
L 106.457053 217.587532 
L 111.351343 212.915508 
L 112.982773 212.228445 
L 116.245633 209.961139 
L 119.508492 207.212889 
L 121.139922 204.945583 
L 122.771352 204.327227 
L 124.402782 201.785095 
L 126.034212 200.479677 
L 127.665642 198.830727 
L 129.297072 196.975658 
L 130.928502 196.494714 
L 132.559931 195.464121 
L 134.191361 196.700833 
L 135.822791 195.120589 
L 137.454221 194.708352 
L 139.085651 194.502233 
L 140.717081 192.921989 
L 142.348511 190.448564 
L 143.979941 188.730908 
L 145.61137 188.043846 
L 147.2428 187.975139 
L 148.87423 186.807133 
L 152.13709 183.234408 
L 153.76852 183.02829 
L 155.39995 182.066402 
L 157.03138 182.203815 
L 158.66281 181.654165 
L 160.294239 181.654165 
L 161.925669 181.241927 
L 163.557099 179.112033 
L 165.188529 177.600496 
L 166.819959 177.050846 
L 168.451389 176.020252 
L 170.082819 175.676721 
L 171.714249 174.852246 
L 173.345678 172.859765 
L 174.977108 173.340709 
L 176.608538 172.997177 
L 178.239968 171.691759 
L 179.871398 171.142109 
L 181.502828 170.111515 
L 183.134258 168.73739 
L 184.765688 168.943509 
L 186.397117 167.844209 
L 188.028547 168.874803 
L 189.659977 170.661165 
L 191.291407 171.48564 
L 192.922837 170.592459 
L 194.554267 168.943509 
L 196.185697 167.569384 
L 197.817127 168.256446 
L 199.448556 167.844209 
L 201.079986 167.775503 
L 202.711416 166.744909 
L 204.342846 168.050328 
L 205.974276 167.981621 
L 207.605706 168.599978 
L 209.237136 167.431971 
L 210.868566 165.783021 
L 212.499995 165.783021 
L 214.131425 165.164665 
L 215.762855 164.065365 
L 217.394285 163.721834 
L 219.025715 164.065365 
L 220.657145 163.447009 
L 223.920005 165.027253 
L 225.551434 165.027253 
L 227.182864 165.714315 
L 228.814294 167.63809 
L 230.445724 168.119034 
L 232.077154 167.431971 
L 233.708584 165.302078 
L 235.340014 165.508196 
L 236.971444 164.065365 
L 238.602873 163.996659 
L 240.234303 162.759946 
L 241.865733 163.378303 
L 243.497163 163.79054 
L 245.128593 163.859246 
L 246.760023 162.966065 
L 248.391453 163.172184 
L 250.022883 162.553828 
L 251.654312 162.14159 
L 253.285742 162.072884 
L 254.917172 163.103478 
L 256.548602 162.966065 
L 258.180032 162.485121 
L 259.811462 161.110996 
L 261.442892 159.39334 
L 263.074322 158.568865 
L 264.705751 157.950509 
L 266.337181 159.049809 
L 267.968611 158.29404 
L 269.600041 158.156628 
L 271.231471 158.981103 
L 272.862901 160.698759 
L 274.494331 161.523234 
L 276.125761 160.286521 
L 277.75719 158.087922 
L 279.38862 159.668165 
L 281.02005 158.225334 
L 282.65148 157.675684 
L 284.28291 157.881803 
L 285.91434 157.126034 
L 287.54577 156.164147 
L 294.071489 157.74439 
L 295.702919 157.606978 
L 297.334349 157.950509 
L 298.965779 157.606978 
L 300.597209 158.568865 
L 302.228639 158.156628 
L 303.860069 158.019215 
L 305.491498 157.19474 
L 307.122928 156.919915 
L 308.754358 157.332153 
L 310.385788 157.881803 
L 312.017218 158.981103 
L 313.648648 158.84369 
L 315.280078 160.561346 
L 316.911508 160.217815 
L 318.542937 160.904878 
L 320.174367 161.04229 
L 321.805797 161.523234 
L 323.437227 160.49264 
L 325.068657 160.630053 
L 326.700087 161.660646 
L 329.962947 159.805578 
L 336.488666 163.378303 
L 338.120096 162.004178 
L 339.751526 161.729353 
L 341.382956 162.210296 
L 343.014386 160.49264 
L 344.645815 160.904878 
L 346.277245 161.110996 
L 347.908675 159.736872 
L 349.540105 160.767465 
L 351.171535 160.561346 
L 352.802965 160.561346 
L 356.065825 161.729353 
L 357.697254 162.072884 
L 360.960114 160.836171 
L 362.591544 159.94299 
L 364.222974 158.774984 
L 365.854404 157.74439 
L 367.485834 158.362747 
L 369.117264 159.599459 
L 370.748693 160.286521 
L 372.380123 160.561346 
L 374.011553 162.004178 
L 375.642983 162.416415 
L 377.274413 160.630053 
L 378.905843 160.011696 
L 380.537273 159.255928 
L 380.537273 159.255928 
" clip-path="url(#pf107592bae)" style="fill: none; stroke: #d62728; stroke-width: 1.5; stroke-linecap: square"/>
   </g>
   <g id="patch_3">
    <path d="M 39.65 273.312 
L 39.65 7.2 
" style="fill: none; stroke: #000000; stroke-width: 0.8; stroke-linejoin: miter; stroke-linecap: square"/>
   </g>
   <g id="patch_4">
    <path d="M 396.77 273.312 
L 396.77 7.2 
" style="fill: none; stroke: #000000; stroke-width: 0.8; stroke-linejoin: miter; stroke-linecap: square"/>
   </g>
   <g id="patch_5">
    <path d="M 39.65 273.312 
L 396.77 273.312 
" style="fill: none; stroke: #000000; stroke-width: 0.8; stroke-linejoin: miter; stroke-linecap: square"/>
   </g>
   <g id="patch_6">
    <path d="M 39.65 7.2 
L 396.77 7.2 
" style="fill: none; stroke: #000000; stroke-width: 0.8; stroke-linejoin: miter; stroke-linecap: square"/>
   </g>
  </g>
 </g>
 <defs>
  <clipPath id="pf107592bae">
   <rect x="39.65" y="7.2" width="357.12" height="266.112"/>
  </clipPath>
 </defs>
</svg>
