<?xml version="1.0" encoding="utf-8" standalone="no"?>
<!DOCTYPE svg PUBLIC "-//W3C//DTD SVG 1.1//EN"
  "http://www.w3.org/Graphics/SVG/1.1/DTD/svg11.dtd">
<svg xmlns:xlink="http://www.w3.org/1999/xlink" width="397.6075pt" height="297.190125pt" viewBox="0 0 397.6075 297.190125" xmlns="http://www.w3.org/2000/svg" version="1.1">
 <metadata>
  <rdf:RDF xmlns:dc="http://purl.org/dc/elements/1.1/" xmlns:cc="http://creativecommons.org/ns#" xmlns:rdf="http://www.w3.org/1999/02/22-rdf-syntax-ns#">
   <cc:Work>
    <dc:type rdf:resource="http://purl.org/dc/dcmitype/StillImage"/>
    <dc:date>2025-02-18T01:12:44.962100</dc:date>
    <dc:format>image/svg+xml</dc:format>
    <dc:creator>
     <cc:Agent>
      <dc:title>Matplotlib v3.10.0, https://matplotlib.org/</dc:title>
     </cc:Agent>
    </dc:creator>
   </cc:Work>
  </rdf:RDF>
 </metadata>
 <defs>
  <style type="text/css">*{stroke-linejoin: round; stroke-linecap: butt}</style>
 </defs>
 <g id="figure_1">
  <g id="patch_1">
   <path d="M 0 297.190125 
L 397.6075 297.190125 
L 397.6075 0 
L 0 0 
z
" style="fill: #ffffff"/>
  </g>
  <g id="axes_1">
   <g id="patch_2">
    <path d="M 33.2875 273.312 
L 390.4075 273.312 
L 390.4075 7.2 
L 33.2875 7.2 
z
" style="fill: #ffffff"/>
   </g>
   <g id="matplotlib.axis_1">
    <g id="xtick_1">
     <g id="line2d_1">
      <defs>
       <path id="mbf3b746391" d="M 0 0 
L 0 3.5 
" style="stroke: #000000; stroke-width: 0.8"/>
      </defs>
      <g>
       <use xlink:href="#mbf3b746391" x="49.520227" y="273.312" style="stroke: #000000; stroke-width: 0.8"/>
      </g>
     </g>
     <g id="text_1">
      <!-- 0.0 -->
      <g transform="translate(41.568665 287.910437) scale(0.1 -0.1)">
       <defs>
        <path id="DejaVuSans-30" d="M 2034 4250 
Q 1547 4250 1301 3770 
Q 1056 3291 1056 2328 
Q 1056 1369 1301 889 
Q 1547 409 2034 409 
Q 2525 409 2770 889 
Q 3016 1369 3016 2328 
Q 3016 3291 2770 3770 
Q 2525 4250 2034 4250 
z
M 2034 4750 
Q 2819 4750 3233 4129 
Q 3647 3509 3647 2328 
Q 3647 1150 3233 529 
Q 2819 -91 2034 -91 
Q 1250 -91 836 529 
Q 422 1150 422 2328 
Q 422 3509 836 4129 
Q 1250 4750 2034 4750 
z
" transform="scale(0.015625)"/>
        <path id="DejaVuSans-2e" d="M 684 794 
L 1344 794 
L 1344 0 
L 684 0 
L 684 794 
z
" transform="scale(0.015625)"/>
       </defs>
       <use xlink:href="#DejaVuSans-30"/>
       <use xlink:href="#DejaVuSans-2e" transform="translate(63.623047 0)"/>
       <use xlink:href="#DejaVuSans-30" transform="translate(95.410156 0)"/>
      </g>
     </g>
    </g>
    <g id="xtick_2">
     <g id="line2d_2">
      <g>
       <use xlink:href="#mbf3b746391" x="90.305974" y="273.312" style="stroke: #000000; stroke-width: 0.8"/>
      </g>
     </g>
     <g id="text_2">
      <!-- 2.5 -->
      <g transform="translate(82.354412 287.910437) scale(0.1 -0.1)">
       <defs>
        <path id="DejaVuSans-32" d="M 1228 531 
L 3431 531 
L 3431 0 
L 469 0 
L 469 531 
Q 828 903 1448 1529 
Q 2069 2156 2228 2338 
Q 2531 2678 2651 2914 
Q 2772 3150 2772 3378 
Q 2772 3750 2511 3984 
Q 2250 4219 1831 4219 
Q 1534 4219 1204 4116 
Q 875 4013 500 3803 
L 500 4441 
Q 881 4594 1212 4672 
Q 1544 4750 1819 4750 
Q 2544 4750 2975 4387 
Q 3406 4025 3406 3419 
Q 3406 3131 3298 2873 
Q 3191 2616 2906 2266 
Q 2828 2175 2409 1742 
Q 1991 1309 1228 531 
z
" transform="scale(0.015625)"/>
        <path id="DejaVuSans-35" d="M 691 4666 
L 3169 4666 
L 3169 4134 
L 1269 4134 
L 1269 2991 
Q 1406 3038 1543 3061 
Q 1681 3084 1819 3084 
Q 2600 3084 3056 2656 
Q 3513 2228 3513 1497 
Q 3513 744 3044 326 
Q 2575 -91 1722 -91 
Q 1428 -91 1123 -41 
Q 819 9 494 109 
L 494 744 
Q 775 591 1075 516 
Q 1375 441 1709 441 
Q 2250 441 2565 725 
Q 2881 1009 2881 1497 
Q 2881 1984 2565 2268 
Q 2250 2553 1709 2553 
Q 1456 2553 1204 2497 
Q 953 2441 691 2322 
L 691 4666 
z
" transform="scale(0.015625)"/>
       </defs>
       <use xlink:href="#DejaVuSans-32"/>
       <use xlink:href="#DejaVuSans-2e" transform="translate(63.623047 0)"/>
       <use xlink:href="#DejaVuSans-35" transform="translate(95.410156 0)"/>
      </g>
     </g>
    </g>
    <g id="xtick_3">
     <g id="line2d_3">
      <g>
       <use xlink:href="#mbf3b746391" x="131.091721" y="273.312" style="stroke: #000000; stroke-width: 0.8"/>
      </g>
     </g>
     <g id="text_3">
      <!-- 5.0 -->
      <g transform="translate(123.140159 287.910437) scale(0.1 -0.1)">
       <use xlink:href="#DejaVuSans-35"/>
       <use xlink:href="#DejaVuSans-2e" transform="translate(63.623047 0)"/>
       <use xlink:href="#DejaVuSans-30" transform="translate(95.410156 0)"/>
      </g>
     </g>
    </g>
    <g id="xtick_4">
     <g id="line2d_4">
      <g>
       <use xlink:href="#mbf3b746391" x="171.877468" y="273.312" style="stroke: #000000; stroke-width: 0.8"/>
      </g>
     </g>
     <g id="text_4">
      <!-- 7.5 -->
      <g transform="translate(163.925906 287.910437) scale(0.1 -0.1)">
       <defs>
        <path id="DejaVuSans-37" d="M 525 4666 
L 3525 4666 
L 3525 4397 
L 1831 0 
L 1172 0 
L 2766 4134 
L 525 4134 
L 525 4666 
z
" transform="scale(0.015625)"/>
       </defs>
       <use xlink:href="#DejaVuSans-37"/>
       <use xlink:href="#DejaVuSans-2e" transform="translate(63.623047 0)"/>
       <use xlink:href="#DejaVuSans-35" transform="translate(95.410156 0)"/>
      </g>
     </g>
    </g>
    <g id="xtick_5">
     <g id="line2d_5">
      <g>
       <use xlink:href="#mbf3b746391" x="212.663215" y="273.312" style="stroke: #000000; stroke-width: 0.8"/>
      </g>
     </g>
     <g id="text_5">
      <!-- 10.0 -->
      <g transform="translate(201.530402 287.910437) scale(0.1 -0.1)">
       <defs>
        <path id="DejaVuSans-31" d="M 794 531 
L 1825 531 
L 1825 4091 
L 703 3866 
L 703 4441 
L 1819 4666 
L 2450 4666 
L 2450 531 
L 3481 531 
L 3481 0 
L 794 0 
L 794 531 
z
" transform="scale(0.015625)"/>
       </defs>
       <use xlink:href="#DejaVuSans-31"/>
       <use xlink:href="#DejaVuSans-30" transform="translate(63.623047 0)"/>
       <use xlink:href="#DejaVuSans-2e" transform="translate(127.246094 0)"/>
       <use xlink:href="#DejaVuSans-30" transform="translate(159.033203 0)"/>
      </g>
     </g>
    </g>
    <g id="xtick_6">
     <g id="line2d_6">
      <g>
       <use xlink:href="#mbf3b746391" x="253.448962" y="273.312" style="stroke: #000000; stroke-width: 0.8"/>
      </g>
     </g>
     <g id="text_6">
      <!-- 12.5 -->
      <g transform="translate(242.316149 287.910437) scale(0.1 -0.1)">
       <use xlink:href="#DejaVuSans-31"/>
       <use xlink:href="#DejaVuSans-32" transform="translate(63.623047 0)"/>
       <use xlink:href="#DejaVuSans-2e" transform="translate(127.246094 0)"/>
       <use xlink:href="#DejaVuSans-35" transform="translate(159.033203 0)"/>
      </g>
     </g>
    </g>
    <g id="xtick_7">
     <g id="line2d_7">
      <g>
       <use xlink:href="#mbf3b746391" x="294.234709" y="273.312" style="stroke: #000000; stroke-width: 0.8"/>
      </g>
     </g>
     <g id="text_7">
      <!-- 15.0 -->
      <g transform="translate(283.101896 287.910437) scale(0.1 -0.1)">
       <use xlink:href="#DejaVuSans-31"/>
       <use xlink:href="#DejaVuSans-35" transform="translate(63.623047 0)"/>
       <use xlink:href="#DejaVuSans-2e" transform="translate(127.246094 0)"/>
       <use xlink:href="#DejaVuSans-30" transform="translate(159.033203 0)"/>
      </g>
     </g>
    </g>
    <g id="xtick_8">
     <g id="line2d_8">
      <g>
       <use xlink:href="#mbf3b746391" x="335.020456" y="273.312" style="stroke: #000000; stroke-width: 0.8"/>
      </g>
     </g>
     <g id="text_8">
      <!-- 17.5 -->
      <g transform="translate(323.887643 287.910437) scale(0.1 -0.1)">
       <use xlink:href="#DejaVuSans-31"/>
       <use xlink:href="#DejaVuSans-37" transform="translate(63.623047 0)"/>
       <use xlink:href="#DejaVuSans-2e" transform="translate(127.246094 0)"/>
       <use xlink:href="#DejaVuSans-35" transform="translate(159.033203 0)"/>
      </g>
     </g>
    </g>
    <g id="xtick_9">
     <g id="line2d_9">
      <g>
       <use xlink:href="#mbf3b746391" x="375.806203" y="273.312" style="stroke: #000000; stroke-width: 0.8"/>
      </g>
     </g>
     <g id="text_9">
      <!-- 20.0 -->
      <g transform="translate(364.67339 287.910437) scale(0.1 -0.1)">
       <use xlink:href="#DejaVuSans-32"/>
       <use xlink:href="#DejaVuSans-30" transform="translate(63.623047 0)"/>
       <use xlink:href="#DejaVuSans-2e" transform="translate(127.246094 0)"/>
       <use xlink:href="#DejaVuSans-30" transform="translate(159.033203 0)"/>
      </g>
     </g>
    </g>
   </g>
   <g id="matplotlib.axis_2">
    <g id="ytick_1">
     <g id="line2d_10">
      <defs>
       <path id="m5130e86d37" d="M 0 0 
L -3.5 0 
" style="stroke: #000000; stroke-width: 0.8"/>
      </defs>
      <g>
       <use xlink:href="#m5130e86d37" x="33.2875" y="261.216" style="stroke: #000000; stroke-width: 0.8"/>
      </g>
     </g>
     <g id="text_10">
      <!-- 0 -->
      <g transform="translate(19.925 265.015219) scale(0.1 -0.1)">
       <use xlink:href="#DejaVuSans-30"/>
      </g>
     </g>
    </g>
    <g id="ytick_2">
     <g id="line2d_11">
      <g>
       <use xlink:href="#m5130e86d37" x="33.2875" y="218.773895" style="stroke: #000000; stroke-width: 0.8"/>
      </g>
     </g>
     <g id="text_11">
      <!-- 50 -->
      <g transform="translate(13.5625 222.573113) scale(0.1 -0.1)">
       <use xlink:href="#DejaVuSans-35"/>
       <use xlink:href="#DejaVuSans-30" transform="translate(63.623047 0)"/>
      </g>
     </g>
    </g>
    <g id="ytick_3">
     <g id="line2d_12">
      <g>
       <use xlink:href="#m5130e86d37" x="33.2875" y="176.331789" style="stroke: #000000; stroke-width: 0.8"/>
      </g>
     </g>
     <g id="text_12">
      <!-- 100 -->
      <g transform="translate(7.2 180.131008) scale(0.1 -0.1)">
       <use xlink:href="#DejaVuSans-31"/>
       <use xlink:href="#DejaVuSans-30" transform="translate(63.623047 0)"/>
       <use xlink:href="#DejaVuSans-30" transform="translate(127.246094 0)"/>
      </g>
     </g>
    </g>
    <g id="ytick_4">
     <g id="line2d_13">
      <g>
       <use xlink:href="#m5130e86d37" x="33.2875" y="133.889684" style="stroke: #000000; stroke-width: 0.8"/>
      </g>
     </g>
     <g id="text_13">
      <!-- 150 -->
      <g transform="translate(7.2 137.688903) scale(0.1 -0.1)">
       <use xlink:href="#DejaVuSans-31"/>
       <use xlink:href="#DejaVuSans-35" transform="translate(63.623047 0)"/>
       <use xlink:href="#DejaVuSans-30" transform="translate(127.246094 0)"/>
      </g>
     </g>
    </g>
    <g id="ytick_5">
     <g id="line2d_14">
      <g>
       <use xlink:href="#m5130e86d37" x="33.2875" y="91.447579" style="stroke: #000000; stroke-width: 0.8"/>
      </g>
     </g>
     <g id="text_14">
      <!-- 200 -->
      <g transform="translate(7.2 95.246798) scale(0.1 -0.1)">
       <use xlink:href="#DejaVuSans-32"/>
       <use xlink:href="#DejaVuSans-30" transform="translate(63.623047 0)"/>
       <use xlink:href="#DejaVuSans-30" transform="translate(127.246094 0)"/>
      </g>
     </g>
    </g>
    <g id="ytick_6">
     <g id="line2d_15">
      <g>
       <use xlink:href="#m5130e86d37" x="33.2875" y="49.005474" style="stroke: #000000; stroke-width: 0.8"/>
      </g>
     </g>
     <g id="text_15">
      <!-- 250 -->
      <g transform="translate(7.2 52.804692) scale(0.1 -0.1)">
       <use xlink:href="#DejaVuSans-32"/>
       <use xlink:href="#DejaVuSans-35" transform="translate(63.623047 0)"/>
       <use xlink:href="#DejaVuSans-30" transform="translate(127.246094 0)"/>
      </g>
     </g>
    </g>
   </g>
   <g id="line2d_16">
    <path d="M 49.520227 261.216 
L 53.598802 49.005474 
L 57.677377 49.005474 
L 61.755951 49.005474 
L 65.834526 49.005474 
L 69.913101 49.005474 
L 73.991675 49.005474 
L 78.07025 49.005474 
L 82.148825 49.005474 
L 86.227399 49.005474 
L 90.305974 49.005474 
L 94.384549 49.005474 
L 98.463124 49.005474 
L 102.541698 49.005474 
L 106.620273 49.005474 
L 110.698848 49.005474 
L 114.777422 49.005474 
L 118.855997 49.005474 
L 122.934572 49.005474 
L 127.013146 49.005474 
L 131.091721 49.005474 
L 135.170296 49.005474 
L 139.24887 49.005474 
L 143.327445 49.005474 
L 147.40602 49.005474 
L 151.484595 49.005474 
L 155.563169 49.005474 
L 159.641744 49.005474 
L 163.720319 49.005474 
L 167.798893 49.005474 
L 171.877468 49.005474 
L 175.956043 49.005474 
L 180.034617 49.005474 
L 184.113192 49.005474 
L 188.191767 49.005474 
L 192.270341 49.005474 
L 196.348916 49.005474 
L 200.427491 49.005474 
L 204.506066 49.005474 
L 208.58464 49.005474 
L 212.663215 49.005474 
L 216.74179 49.005474 
L 220.820364 49.005474 
L 224.898939 49.005474 
L 228.977514 49.005474 
L 233.056088 49.005474 
L 237.134663 49.005474 
L 241.213238 49.005474 
L 245.291812 49.005474 
L 249.370387 49.005474 
L 253.448962 49.005474 
L 257.527537 49.005474 
L 261.606111 49.005474 
L 265.684686 49.005474 
L 269.763261 49.005474 
L 273.841835 49.005474 
L 277.92041 49.005474 
L 281.998985 49.005474 
L 286.077559 49.005474 
L 290.156134 49.005474 
L 294.234709 49.005474 
L 298.313283 49.005474 
L 302.391858 49.005474 
L 306.470433 49.005474 
L 310.549008 49.005474 
L 314.627582 49.005474 
L 318.706157 49.005474 
L 322.784732 49.005474 
L 326.863306 49.005474 
L 330.941881 49.005474 
L 335.020456 49.005474 
L 339.09903 49.005474 
L 343.177605 49.005474 
L 347.25618 49.005474 
L 351.334754 49.005474 
L 355.413329 49.005474 
L 359.491904 49.005474 
L 363.570479 49.005474 
L 367.649053 49.005474 
L 371.727628 49.005474 
" clip-path="url(#pf9a3e910fb)" style="fill: none; stroke: #1f77b4; stroke-width: 1.5; stroke-linecap: square"/>
   </g>
   <g id="line2d_17">
    <path d="M 49.520227 261.216 
L 53.598802 261.216 
L 57.677377 49.005474 
L 61.755951 49.005474 
L 65.834526 49.005474 
L 69.913101 49.005474 
L 73.991675 49.005474 
L 78.07025 49.005474 
L 82.148825 49.005474 
L 86.227399 49.005474 
L 90.305974 49.005474 
L 94.384549 49.005474 
L 98.463124 49.005474 
L 102.541698 49.005474 
L 106.620273 49.005474 
L 110.698848 49.005474 
L 114.777422 49.005474 
L 118.855997 49.005474 
L 122.934572 49.005474 
L 127.013146 49.005474 
L 131.091721 49.005474 
L 135.170296 49.005474 
L 139.24887 49.005474 
L 143.327445 49.005474 
L 147.40602 49.005474 
L 151.484595 49.005474 
L 155.563169 49.005474 
L 159.641744 49.005474 
L 163.720319 49.005474 
L 167.798893 49.005474 
L 171.877468 49.005474 
L 175.956043 49.005474 
L 180.034617 49.005474 
L 184.113192 49.005474 
L 188.191767 49.005474 
L 192.270341 49.005474 
L 196.348916 49.005474 
L 200.427491 49.005474 
L 204.506066 49.005474 
L 208.58464 49.005474 
L 212.663215 49.005474 
L 216.74179 49.005474 
L 220.820364 49.005474 
L 224.898939 49.005474 
L 228.977514 49.005474 
L 233.056088 49.005474 
L 237.134663 49.005474 
L 241.213238 49.005474 
L 245.291812 49.005474 
L 249.370387 49.005474 
L 253.448962 49.005474 
L 257.527537 49.005474 
L 261.606111 49.005474 
L 265.684686 49.005474 
L 269.763261 49.005474 
L 273.841835 49.005474 
L 277.92041 49.005474 
L 281.998985 49.005474 
L 286.077559 49.005474 
L 290.156134 49.005474 
L 294.234709 49.005474 
L 298.313283 49.005474 
L 302.391858 49.005474 
L 306.470433 49.005474 
L 310.549008 49.005474 
L 314.627582 49.005474 
L 318.706157 49.005474 
L 322.784732 49.005474 
L 326.863306 49.005474 
L 330.941881 49.005474 
L 335.020456 49.005474 
L 339.09903 49.005474 
L 343.177605 49.005474 
L 347.25618 49.005474 
L 351.334754 49.005474 
L 355.413329 49.005474 
L 359.491904 49.005474 
L 363.570479 49.005474 
L 367.649053 49.005474 
L 371.727628 49.005474 
" clip-path="url(#pf9a3e910fb)" style="fill: none; stroke: #ff7f0e; stroke-width: 1.5; stroke-linecap: square"/>
   </g>
   <g id="line2d_18">
    <path d="M 49.520227 261.216 
L 51.151657 196.704 
L 54.414517 107.575579 
L 56.045947 81.261474 
L 57.677377 73.621895 
L 59.308807 66.831158 
L 60.940236 60.889263 
L 62.571666 52.400842 
L 64.203096 36.272842 
L 65.834526 42.214737 
L 67.465956 43.912421 
L 69.097386 38.819368 
L 70.728816 49.005474 
L 72.360246 49.854316 
L 73.991675 48.156632 
L 75.623105 61.738105 
L 77.254535 62.586947 
L 78.885965 65.982316 
L 80.517395 71.075368 
L 82.148825 74.470737 
L 83.780255 68.528842 
L 85.411685 61.738105 
L 87.043114 48.156632 
L 88.674544 46.458947 
L 90.305974 43.063579 
L 91.937404 44.761263 
L 93.568834 52.400842 
L 95.200264 49.854316 
L 96.831694 59.191579 
L 98.463124 61.738105 
L 100.094553 59.191579 
L 101.725983 63.435789 
L 103.357413 66.831158 
L 104.988843 57.493895 
L 106.620273 49.005474 
L 108.251703 53.249684 
L 109.883133 60.040421 
L 111.514563 49.005474 
L 113.145992 54.947368 
L 114.777422 54.098526 
L 116.408852 57.493895 
L 118.040282 54.947368 
L 119.671712 51.552 
L 121.303142 60.040421 
L 122.934572 50.703158 
L 124.566002 42.214737 
L 126.197431 47.307789 
L 127.828861 54.098526 
L 131.091721 45.610105 
L 132.723151 44.761263 
L 134.354581 32.028632 
L 135.986011 32.877474 
L 137.617441 36.272842 
L 139.24887 47.307789 
L 140.8803 30.330947 
L 142.51173 29.482105 
L 144.14316 42.214737 
L 145.77459 36.272842 
L 147.40602 37.121684 
L 149.03745 25.237895 
L 150.66888 41.365895 
L 152.30031 43.912421 
L 153.931739 44.761263 
L 155.563169 38.819368 
L 157.194599 37.121684 
L 158.826029 36.272842 
L 160.457459 38.819368 
L 162.088889 51.552 
L 163.720319 41.365895 
L 165.351749 42.214737 
L 166.983178 37.970526 
L 168.614608 37.970526 
L 170.246038 49.854316 
L 171.877468 46.458947 
L 173.508898 48.156632 
L 175.140328 55.796211 
L 176.771758 49.005474 
L 178.403188 54.098526 
L 180.034617 47.307789 
L 181.666047 49.854316 
L 183.297477 58.342737 
L 184.928907 56.645053 
L 186.560337 52.400842 
L 188.191767 64.284632 
L 189.823197 53.249684 
L 191.454627 51.552 
L 193.086056 54.947368 
L 194.717486 43.912421 
L 196.348916 35.424 
L 197.980346 40.517053 
L 199.611776 34.575158 
L 201.243206 34.575158 
L 202.874636 43.912421 
L 204.506066 43.912421 
L 206.137495 48.156632 
L 207.768925 43.063579 
L 209.400355 48.156632 
L 211.031785 55.796211 
L 212.663215 51.552 
L 214.294645 57.493895 
L 215.926075 55.796211 
L 217.557505 55.796211 
L 219.188934 43.063579 
L 220.820364 42.214737 
L 222.451794 49.854316 
L 224.083224 49.005474 
L 225.714654 53.249684 
L 227.346084 52.400842 
L 228.977514 59.191579 
L 230.608944 53.249684 
L 232.240373 49.854316 
L 233.871803 54.098526 
L 235.503233 60.040421 
L 237.134663 49.005474 
L 238.766093 47.307789 
L 240.397523 43.912421 
L 242.028953 43.063579 
L 243.660383 43.912421 
L 245.291812 34.575158 
L 246.923242 43.063579 
L 248.554672 36.272842 
L 250.186102 26.086737 
L 251.817532 37.121684 
L 253.448962 44.761263 
L 255.080392 54.947368 
L 256.711822 51.552 
L 258.343251 50.703158 
L 259.974681 54.947368 
L 261.606111 58.342737 
L 263.237541 59.191579 
L 264.868971 61.738105 
L 266.500401 54.098526 
L 269.763261 55.796211 
L 271.39469 54.098526 
L 273.02612 48.156632 
L 274.65755 56.645053 
L 276.28898 60.889263 
L 277.92041 63.435789 
L 279.55184 61.738105 
L 281.18327 51.552 
L 282.8147 55.796211 
L 284.44613 53.249684 
L 286.077559 49.854316 
L 287.708989 43.063579 
L 289.340419 41.365895 
L 290.971849 44.761263 
L 292.603279 51.552 
L 294.234709 61.738105 
L 295.866139 43.912421 
L 297.497569 46.458947 
L 299.128998 51.552 
L 300.760428 45.610105 
L 302.391858 51.552 
L 304.023288 49.005474 
L 305.654718 55.796211 
L 307.286148 59.191579 
L 308.917578 53.249684 
L 310.549008 54.098526 
L 312.180437 33.726316 
L 313.811867 38.819368 
L 315.443297 52.400842 
L 317.074727 54.098526 
L 318.706157 56.645053 
L 320.337587 66.831158 
L 321.969017 65.133474 
L 323.600447 62.586947 
L 325.231876 64.284632 
L 326.863306 61.738105 
L 328.494736 65.982316 
L 330.126166 61.738105 
L 331.757596 70.226526 
L 333.389026 60.040421 
L 336.651886 51.552 
L 338.283315 51.552 
L 339.914745 45.610105 
L 341.546175 46.458947 
L 343.177605 39.668211 
L 344.809035 35.424 
L 346.440465 37.121684 
L 348.071895 19.296 
L 349.703325 35.424 
L 351.334754 43.063579 
L 352.966184 43.912421 
L 354.597614 49.005474 
L 356.229044 46.458947 
L 357.860474 40.517053 
L 359.491904 55.796211 
L 361.123334 54.947368 
L 362.754764 68.528842 
L 364.386193 65.133474 
L 366.017623 54.098526 
L 367.649053 62.586947 
L 369.280483 46.458947 
L 370.911913 49.005474 
L 372.543343 60.889263 
L 374.174773 60.889263 
L 374.174773 60.889263 
" clip-path="url(#pf9a3e910fb)" style="fill: none; stroke: #2ca02c; stroke-width: 1.5; stroke-linecap: square"/>
   </g>
   <g id="line2d_19">
    <path d="M 49.520227 261.216 
L 51.151657 242.541474 
L 52.783087 213.680842 
L 54.414517 190.762105 
L 56.045947 161.901474 
L 57.677377 136.436211 
L 59.308807 100.784842 
L 60.940236 88.052211 
L 62.571666 84.656842 
L 64.203096 85.505684 
L 65.834526 69.377684 
L 67.465956 56.645053 
L 69.097386 62.586947 
L 70.728816 54.098526 
L 72.360246 57.493895 
L 73.991675 54.947368 
L 75.623105 35.424 
L 77.254535 44.761263 
L 78.885965 54.947368 
L 80.517395 43.912421 
L 82.148825 50.703158 
L 83.780255 51.552 
L 85.411685 54.947368 
L 87.043114 60.040421 
L 88.674544 60.889263 
L 90.305974 70.226526 
L 91.937404 66.831158 
L 93.568834 49.005474 
L 95.200264 52.400842 
L 96.831694 49.854316 
L 98.463124 49.854316 
L 100.094553 43.912421 
L 101.725983 45.610105 
L 103.357413 36.272842 
L 104.988843 60.040421 
L 108.251703 66.831158 
L 109.883133 56.645053 
L 111.514563 49.854316 
L 113.145992 38.819368 
L 114.777422 42.214737 
L 116.408852 36.272842 
L 118.040282 46.458947 
L 119.671712 49.005474 
L 121.303142 32.877474 
L 122.934572 45.610105 
L 124.566002 45.610105 
L 126.197431 43.063579 
L 127.828861 39.668211 
L 131.091721 49.854316 
L 134.354581 56.645053 
L 135.986011 54.098526 
L 137.617441 67.68 
L 139.24887 49.005474 
L 140.8803 59.191579 
L 142.51173 63.435789 
L 144.14316 60.040421 
L 145.77459 66.831158 
L 147.40602 53.249684 
L 149.03745 62.586947 
L 150.66888 45.610105 
L 152.30031 48.156632 
L 153.931739 64.284632 
L 155.563169 60.889263 
L 157.194599 65.982316 
L 158.826029 60.040421 
L 162.088889 41.365895 
L 163.720319 49.854316 
L 165.351749 57.493895 
L 166.983178 67.68 
L 168.614608 57.493895 
L 170.246038 46.458947 
L 173.508898 53.249684 
L 175.140328 43.063579 
L 176.771758 40.517053 
L 180.034617 40.517053 
L 181.666047 39.668211 
L 183.297477 32.877474 
L 184.928907 63.435789 
L 186.560337 68.528842 
L 188.191767 58.342737 
L 189.823197 76.168421 
L 191.454627 68.528842 
L 193.086056 62.586947 
L 194.717486 70.226526 
L 196.348916 85.505684 
L 197.980346 76.168421 
L 199.611776 65.133474 
L 201.243206 58.342737 
L 202.874636 37.970526 
L 204.506066 26.086737 
L 206.137495 32.028632 
L 207.768925 32.877474 
L 209.400355 46.458947 
L 211.031785 45.610105 
L 212.663215 41.365895 
L 214.294645 25.237895 
L 215.926075 26.935579 
L 217.557505 42.214737 
L 219.188934 70.226526 
L 220.820364 65.133474 
L 222.451794 37.970526 
L 224.083224 46.458947 
L 225.714654 63.435789 
L 227.346084 63.435789 
L 228.977514 41.365895 
L 230.608944 41.365895 
L 232.240373 44.761263 
L 233.871803 39.668211 
L 235.503233 38.819368 
L 237.134663 54.947368 
L 238.766093 55.796211 
L 240.397523 71.075368 
L 242.028953 65.982316 
L 243.660383 65.133474 
L 245.291812 68.528842 
L 246.923242 54.098526 
L 248.554672 49.005474 
L 250.186102 42.214737 
L 251.817532 32.028632 
L 253.448962 20.993684 
L 255.080392 38.819368 
L 256.711822 40.517053 
L 258.343251 41.365895 
L 259.974681 51.552 
L 263.237541 60.040421 
L 264.868971 60.040421 
L 266.500401 59.191579 
L 268.131831 48.156632 
L 269.763261 59.191579 
L 271.39469 59.191579 
L 273.02612 71.924211 
L 274.65755 52.400842 
L 276.28898 47.307789 
L 277.92041 56.645053 
L 279.55184 57.493895 
L 281.18327 59.191579 
L 282.8147 46.458947 
L 284.44613 51.552 
L 286.077559 49.854316 
L 287.708989 60.040421 
L 289.340419 55.796211 
L 290.971849 60.889263 
L 292.603279 53.249684 
L 294.234709 41.365895 
L 295.866139 54.098526 
L 297.497569 48.156632 
L 299.128998 48.156632 
L 300.760428 51.552 
L 302.391858 48.156632 
L 304.023288 61.738105 
L 305.654718 32.028632 
L 307.286148 42.214737 
L 310.549008 49.005474 
L 312.180437 60.040421 
L 313.811867 49.854316 
L 315.443297 42.214737 
L 317.074727 43.912421 
L 318.706157 33.726316 
L 320.337587 20.144842 
L 321.969017 23.540211 
L 323.600447 30.330947 
L 325.231876 40.517053 
L 328.494736 47.307789 
L 330.126166 62.586947 
L 331.757596 59.191579 
L 333.389026 61.738105 
L 335.020456 63.435789 
L 336.651886 47.307789 
L 338.283315 47.307789 
L 339.914745 60.889263 
L 343.177605 69.377684 
L 344.809035 71.075368 
L 346.440465 58.342737 
L 348.071895 82.959158 
L 349.703325 41.365895 
L 351.334754 40.517053 
L 352.966184 34.575158 
L 356.229044 44.761263 
L 357.860474 43.063579 
L 359.491904 24.389053 
L 361.123334 27.784421 
L 362.754764 38.819368 
L 364.386193 53.249684 
L 366.017623 77.866105 
L 367.649053 60.040421 
L 369.280483 59.191579 
L 370.911913 45.610105 
L 372.543343 41.365895 
L 374.174773 49.854316 
L 374.174773 49.854316 
" clip-path="url(#pf9a3e910fb)" style="fill: none; stroke: #d62728; stroke-width: 1.5; stroke-linecap: square"/>
   </g>
   <g id="patch_3">
    <path d="M 33.2875 273.312 
L 33.2875 7.2 
" style="fill: none; stroke: #000000; stroke-width: 0.8; stroke-linejoin: miter; stroke-linecap: square"/>
   </g>
   <g id="patch_4">
    <path d="M 390.4075 273.312 
L 390.4075 7.2 
" style="fill: none; stroke: #000000; stroke-width: 0.8; stroke-linejoin: miter; stroke-linecap: square"/>
   </g>
   <g id="patch_5">
    <path d="M 33.2875 273.312 
L 390.4075 273.312 
" style="fill: none; stroke: #000000; stroke-width: 0.8; stroke-linejoin: miter; stroke-linecap: square"/>
   </g>
   <g id="patch_6">
    <path d="M 33.2875 7.2 
L 390.4075 7.2 
" style="fill: none; stroke: #000000; stroke-width: 0.8; stroke-linejoin: miter; stroke-linecap: square"/>
   </g>
  </g>
 </g>
 <defs>
  <clipPath id="pf9a3e910fb">
   <rect x="33.2875" y="7.2" width="357.12" height="266.112"/>
  </clipPath>
 </defs>
</svg>
