<?xml version="1.0" encoding="utf-8" standalone="no"?>
<!DOCTYPE svg PUBLIC "-//W3C//DTD SVG 1.1//EN"
  "http://www.w3.org/Graphics/SVG/1.1/DTD/svg11.dtd">
<svg xmlns:xlink="http://www.w3.org/1999/xlink" width="403.97pt" height="297.190125pt" viewBox="0 0 403.97 297.190125" xmlns="http://www.w3.org/2000/svg" version="1.1">
 <metadata>
  <rdf:RDF xmlns:dc="http://purl.org/dc/elements/1.1/" xmlns:cc="http://creativecommons.org/ns#" xmlns:rdf="http://www.w3.org/1999/02/22-rdf-syntax-ns#">
   <cc:Work>
    <dc:type rdf:resource="http://purl.org/dc/dcmitype/StillImage"/>
    <dc:date>2024-05-31T07:22:53.088582</dc:date>
    <dc:format>image/svg+xml</dc:format>
    <dc:creator>
     <cc:Agent>
      <dc:title>Matplotlib v3.9.0, https://matplotlib.org/</dc:title>
     </cc:Agent>
    </dc:creator>
   </cc:Work>
  </rdf:RDF>
 </metadata>
 <defs>
  <style type="text/css">*{stroke-linejoin: round; stroke-linecap: butt}</style>
 </defs>
 <g id="figure_1">
  <g id="patch_1">
   <path d="M 0 297.190125 
L 403.97 297.190125 
L 403.97 0 
L 0 0 
z
" style="fill: #ffffff"/>
  </g>
  <g id="axes_1">
   <g id="patch_2">
    <path d="M 39.65 273.312 
L 396.77 273.312 
L 396.77 7.2 
L 39.65 7.2 
z
" style="fill: #ffffff"/>
   </g>
   <g id="matplotlib.axis_1">
    <g id="xtick_1">
     <g id="line2d_1">
      <defs>
       <path id="m54d7ef622a" d="M 0 0 
L 0 3.5 
" style="stroke: #000000; stroke-width: 0.8"/>
      </defs>
      <g>
       <use xlink:href="#m54d7ef622a" x="55.882727" y="273.312" style="stroke: #000000; stroke-width: 0.8"/>
      </g>
     </g>
     <g id="text_1">
      <!-- 0.0 -->
      <g transform="translate(47.931165 287.910437) scale(0.1 -0.1)">
       <defs>
        <path id="DejaVuSans-30" d="M 2034 4250 
Q 1547 4250 1301 3770 
Q 1056 3291 1056 2328 
Q 1056 1369 1301 889 
Q 1547 409 2034 409 
Q 2525 409 2770 889 
Q 3016 1369 3016 2328 
Q 3016 3291 2770 3770 
Q 2525 4250 2034 4250 
z
M 2034 4750 
Q 2819 4750 3233 4129 
Q 3647 3509 3647 2328 
Q 3647 1150 3233 529 
Q 2819 -91 2034 -91 
Q 1250 -91 836 529 
Q 422 1150 422 2328 
Q 422 3509 836 4129 
Q 1250 4750 2034 4750 
z
" transform="scale(0.015625)"/>
        <path id="DejaVuSans-2e" d="M 684 794 
L 1344 794 
L 1344 0 
L 684 0 
L 684 794 
z
" transform="scale(0.015625)"/>
       </defs>
       <use xlink:href="#DejaVuSans-30"/>
       <use xlink:href="#DejaVuSans-2e" x="63.623047"/>
       <use xlink:href="#DejaVuSans-30" x="95.410156"/>
      </g>
     </g>
    </g>
    <g id="xtick_2">
     <g id="line2d_2">
      <g>
       <use xlink:href="#m54d7ef622a" x="96.668474" y="273.312" style="stroke: #000000; stroke-width: 0.8"/>
      </g>
     </g>
     <g id="text_2">
      <!-- 2.5 -->
      <g transform="translate(88.716912 287.910437) scale(0.1 -0.1)">
       <defs>
        <path id="DejaVuSans-32" d="M 1228 531 
L 3431 531 
L 3431 0 
L 469 0 
L 469 531 
Q 828 903 1448 1529 
Q 2069 2156 2228 2338 
Q 2531 2678 2651 2914 
Q 2772 3150 2772 3378 
Q 2772 3750 2511 3984 
Q 2250 4219 1831 4219 
Q 1534 4219 1204 4116 
Q 875 4013 500 3803 
L 500 4441 
Q 881 4594 1212 4672 
Q 1544 4750 1819 4750 
Q 2544 4750 2975 4387 
Q 3406 4025 3406 3419 
Q 3406 3131 3298 2873 
Q 3191 2616 2906 2266 
Q 2828 2175 2409 1742 
Q 1991 1309 1228 531 
z
" transform="scale(0.015625)"/>
        <path id="DejaVuSans-35" d="M 691 4666 
L 3169 4666 
L 3169 4134 
L 1269 4134 
L 1269 2991 
Q 1406 3038 1543 3061 
Q 1681 3084 1819 3084 
Q 2600 3084 3056 2656 
Q 3513 2228 3513 1497 
Q 3513 744 3044 326 
Q 2575 -91 1722 -91 
Q 1428 -91 1123 -41 
Q 819 9 494 109 
L 494 744 
Q 775 591 1075 516 
Q 1375 441 1709 441 
Q 2250 441 2565 725 
Q 2881 1009 2881 1497 
Q 2881 1984 2565 2268 
Q 2250 2553 1709 2553 
Q 1456 2553 1204 2497 
Q 953 2441 691 2322 
L 691 4666 
z
" transform="scale(0.015625)"/>
       </defs>
       <use xlink:href="#DejaVuSans-32"/>
       <use xlink:href="#DejaVuSans-2e" x="63.623047"/>
       <use xlink:href="#DejaVuSans-35" x="95.410156"/>
      </g>
     </g>
    </g>
    <g id="xtick_3">
     <g id="line2d_3">
      <g>
       <use xlink:href="#m54d7ef622a" x="137.454221" y="273.312" style="stroke: #000000; stroke-width: 0.8"/>
      </g>
     </g>
     <g id="text_3">
      <!-- 5.0 -->
      <g transform="translate(129.502659 287.910437) scale(0.1 -0.1)">
       <use xlink:href="#DejaVuSans-35"/>
       <use xlink:href="#DejaVuSans-2e" x="63.623047"/>
       <use xlink:href="#DejaVuSans-30" x="95.410156"/>
      </g>
     </g>
    </g>
    <g id="xtick_4">
     <g id="line2d_4">
      <g>
       <use xlink:href="#m54d7ef622a" x="178.239968" y="273.312" style="stroke: #000000; stroke-width: 0.8"/>
      </g>
     </g>
     <g id="text_4">
      <!-- 7.5 -->
      <g transform="translate(170.288406 287.910437) scale(0.1 -0.1)">
       <defs>
        <path id="DejaVuSans-37" d="M 525 4666 
L 3525 4666 
L 3525 4397 
L 1831 0 
L 1172 0 
L 2766 4134 
L 525 4134 
L 525 4666 
z
" transform="scale(0.015625)"/>
       </defs>
       <use xlink:href="#DejaVuSans-37"/>
       <use xlink:href="#DejaVuSans-2e" x="63.623047"/>
       <use xlink:href="#DejaVuSans-35" x="95.410156"/>
      </g>
     </g>
    </g>
    <g id="xtick_5">
     <g id="line2d_5">
      <g>
       <use xlink:href="#m54d7ef622a" x="219.025715" y="273.312" style="stroke: #000000; stroke-width: 0.8"/>
      </g>
     </g>
     <g id="text_5">
      <!-- 10.0 -->
      <g transform="translate(207.892902 287.910437) scale(0.1 -0.1)">
       <defs>
        <path id="DejaVuSans-31" d="M 794 531 
L 1825 531 
L 1825 4091 
L 703 3866 
L 703 4441 
L 1819 4666 
L 2450 4666 
L 2450 531 
L 3481 531 
L 3481 0 
L 794 0 
L 794 531 
z
" transform="scale(0.015625)"/>
       </defs>
       <use xlink:href="#DejaVuSans-31"/>
       <use xlink:href="#DejaVuSans-30" x="63.623047"/>
       <use xlink:href="#DejaVuSans-2e" x="127.246094"/>
       <use xlink:href="#DejaVuSans-30" x="159.033203"/>
      </g>
     </g>
    </g>
    <g id="xtick_6">
     <g id="line2d_6">
      <g>
       <use xlink:href="#m54d7ef622a" x="259.811462" y="273.312" style="stroke: #000000; stroke-width: 0.8"/>
      </g>
     </g>
     <g id="text_6">
      <!-- 12.5 -->
      <g transform="translate(248.678649 287.910437) scale(0.1 -0.1)">
       <use xlink:href="#DejaVuSans-31"/>
       <use xlink:href="#DejaVuSans-32" x="63.623047"/>
       <use xlink:href="#DejaVuSans-2e" x="127.246094"/>
       <use xlink:href="#DejaVuSans-35" x="159.033203"/>
      </g>
     </g>
    </g>
    <g id="xtick_7">
     <g id="line2d_7">
      <g>
       <use xlink:href="#m54d7ef622a" x="300.597209" y="273.312" style="stroke: #000000; stroke-width: 0.8"/>
      </g>
     </g>
     <g id="text_7">
      <!-- 15.0 -->
      <g transform="translate(289.464396 287.910437) scale(0.1 -0.1)">
       <use xlink:href="#DejaVuSans-31"/>
       <use xlink:href="#DejaVuSans-35" x="63.623047"/>
       <use xlink:href="#DejaVuSans-2e" x="127.246094"/>
       <use xlink:href="#DejaVuSans-30" x="159.033203"/>
      </g>
     </g>
    </g>
    <g id="xtick_8">
     <g id="line2d_8">
      <g>
       <use xlink:href="#m54d7ef622a" x="341.382956" y="273.312" style="stroke: #000000; stroke-width: 0.8"/>
      </g>
     </g>
     <g id="text_8">
      <!-- 17.5 -->
      <g transform="translate(330.250143 287.910437) scale(0.1 -0.1)">
       <use xlink:href="#DejaVuSans-31"/>
       <use xlink:href="#DejaVuSans-37" x="63.623047"/>
       <use xlink:href="#DejaVuSans-2e" x="127.246094"/>
       <use xlink:href="#DejaVuSans-35" x="159.033203"/>
      </g>
     </g>
    </g>
    <g id="xtick_9">
     <g id="line2d_9">
      <g>
       <use xlink:href="#m54d7ef622a" x="382.168703" y="273.312" style="stroke: #000000; stroke-width: 0.8"/>
      </g>
     </g>
     <g id="text_9">
      <!-- 20.0 -->
      <g transform="translate(371.03589 287.910437) scale(0.1 -0.1)">
       <use xlink:href="#DejaVuSans-32"/>
       <use xlink:href="#DejaVuSans-30" x="63.623047"/>
       <use xlink:href="#DejaVuSans-2e" x="127.246094"/>
       <use xlink:href="#DejaVuSans-30" x="159.033203"/>
      </g>
     </g>
    </g>
   </g>
   <g id="matplotlib.axis_2">
    <g id="ytick_1">
     <g id="line2d_10">
      <defs>
       <path id="m140a3babc5" d="M 0 0 
L -3.5 0 
" style="stroke: #000000; stroke-width: 0.8"/>
      </defs>
      <g>
       <use xlink:href="#m140a3babc5" x="39.65" y="261.216" style="stroke: #000000; stroke-width: 0.8"/>
      </g>
     </g>
     <g id="text_10">
      <!-- 0 -->
      <g transform="translate(26.2875 265.015219) scale(0.1 -0.1)">
       <use xlink:href="#DejaVuSans-30"/>
      </g>
     </g>
    </g>
    <g id="ytick_2">
     <g id="line2d_11">
      <g>
       <use xlink:href="#m140a3babc5" x="39.65" y="226.862876" style="stroke: #000000; stroke-width: 0.8"/>
      </g>
     </g>
     <g id="text_11">
      <!-- 500 -->
      <g transform="translate(13.5625 230.662095) scale(0.1 -0.1)">
       <use xlink:href="#DejaVuSans-35"/>
       <use xlink:href="#DejaVuSans-30" x="63.623047"/>
       <use xlink:href="#DejaVuSans-30" x="127.246094"/>
      </g>
     </g>
    </g>
    <g id="ytick_3">
     <g id="line2d_12">
      <g>
       <use xlink:href="#m140a3babc5" x="39.65" y="192.509752" style="stroke: #000000; stroke-width: 0.8"/>
      </g>
     </g>
     <g id="text_12">
      <!-- 1000 -->
      <g transform="translate(7.2 196.308971) scale(0.1 -0.1)">
       <use xlink:href="#DejaVuSans-31"/>
       <use xlink:href="#DejaVuSans-30" x="63.623047"/>
       <use xlink:href="#DejaVuSans-30" x="127.246094"/>
       <use xlink:href="#DejaVuSans-30" x="190.869141"/>
      </g>
     </g>
    </g>
    <g id="ytick_4">
     <g id="line2d_13">
      <g>
       <use xlink:href="#m140a3babc5" x="39.65" y="158.156628" style="stroke: #000000; stroke-width: 0.8"/>
      </g>
     </g>
     <g id="text_13">
      <!-- 1500 -->
      <g transform="translate(7.2 161.955847) scale(0.1 -0.1)">
       <use xlink:href="#DejaVuSans-31"/>
       <use xlink:href="#DejaVuSans-35" x="63.623047"/>
       <use xlink:href="#DejaVuSans-30" x="127.246094"/>
       <use xlink:href="#DejaVuSans-30" x="190.869141"/>
      </g>
     </g>
    </g>
    <g id="ytick_5">
     <g id="line2d_14">
      <g>
       <use xlink:href="#m140a3babc5" x="39.65" y="123.803504" style="stroke: #000000; stroke-width: 0.8"/>
      </g>
     </g>
     <g id="text_14">
      <!-- 2000 -->
      <g transform="translate(7.2 127.602722) scale(0.1 -0.1)">
       <use xlink:href="#DejaVuSans-32"/>
       <use xlink:href="#DejaVuSans-30" x="63.623047"/>
       <use xlink:href="#DejaVuSans-30" x="127.246094"/>
       <use xlink:href="#DejaVuSans-30" x="190.869141"/>
      </g>
     </g>
    </g>
    <g id="ytick_6">
     <g id="line2d_15">
      <g>
       <use xlink:href="#m140a3babc5" x="39.65" y="89.45038" style="stroke: #000000; stroke-width: 0.8"/>
      </g>
     </g>
     <g id="text_15">
      <!-- 2500 -->
      <g transform="translate(7.2 93.249598) scale(0.1 -0.1)">
       <use xlink:href="#DejaVuSans-32"/>
       <use xlink:href="#DejaVuSans-35" x="63.623047"/>
       <use xlink:href="#DejaVuSans-30" x="127.246094"/>
       <use xlink:href="#DejaVuSans-30" x="190.869141"/>
      </g>
     </g>
    </g>
    <g id="ytick_7">
     <g id="line2d_16">
      <g>
       <use xlink:href="#m140a3babc5" x="39.65" y="55.097256" style="stroke: #000000; stroke-width: 0.8"/>
      </g>
     </g>
     <g id="text_16">
      <!-- 3000 -->
      <g transform="translate(7.2 58.896474) scale(0.1 -0.1)">
       <defs>
        <path id="DejaVuSans-33" d="M 2597 2516 
Q 3050 2419 3304 2112 
Q 3559 1806 3559 1356 
Q 3559 666 3084 287 
Q 2609 -91 1734 -91 
Q 1441 -91 1130 -33 
Q 819 25 488 141 
L 488 750 
Q 750 597 1062 519 
Q 1375 441 1716 441 
Q 2309 441 2620 675 
Q 2931 909 2931 1356 
Q 2931 1769 2642 2001 
Q 2353 2234 1838 2234 
L 1294 2234 
L 1294 2753 
L 1863 2753 
Q 2328 2753 2575 2939 
Q 2822 3125 2822 3475 
Q 2822 3834 2567 4026 
Q 2313 4219 1838 4219 
Q 1578 4219 1281 4162 
Q 984 4106 628 3988 
L 628 4550 
Q 988 4650 1302 4700 
Q 1616 4750 1894 4750 
Q 2613 4750 3031 4423 
Q 3450 4097 3450 3541 
Q 3450 3153 3228 2886 
Q 3006 2619 2597 2516 
z
" transform="scale(0.015625)"/>
       </defs>
       <use xlink:href="#DejaVuSans-33"/>
       <use xlink:href="#DejaVuSans-30" x="63.623047"/>
       <use xlink:href="#DejaVuSans-30" x="127.246094"/>
       <use xlink:href="#DejaVuSans-30" x="190.869141"/>
      </g>
     </g>
    </g>
    <g id="ytick_8">
     <g id="line2d_17">
      <g>
       <use xlink:href="#m140a3babc5" x="39.65" y="20.744132" style="stroke: #000000; stroke-width: 0.8"/>
      </g>
     </g>
     <g id="text_17">
      <!-- 3500 -->
      <g transform="translate(7.2 24.54335) scale(0.1 -0.1)">
       <use xlink:href="#DejaVuSans-33"/>
       <use xlink:href="#DejaVuSans-35" x="63.623047"/>
       <use xlink:href="#DejaVuSans-30" x="127.246094"/>
       <use xlink:href="#DejaVuSans-30" x="190.869141"/>
      </g>
     </g>
    </g>
   </g>
   <g id="line2d_18">
    <path d="M 55.882727 261.216 
L 72.197026 192.509752 
L 88.511325 143.281725 
L 104.825624 108.009844 
L 121.139922 82.737541 
L 137.454221 64.629936 
L 153.76852 51.655837 
L 170.082819 42.359895 
L 186.397117 35.699353 
L 202.711416 30.927074 
L 219.025715 27.507736 
L 235.340014 25.057781 
L 251.654312 23.302388 
L 267.968611 22.044649 
L 284.28291 21.143479 
L 300.597209 20.49779 
L 316.911508 20.035155 
L 333.225806 19.703676 
L 349.540105 19.466172 
L 365.854404 19.296 
" clip-path="url(#p44b43bbedf)" style="fill: none; stroke: #1f77b4; stroke-width: 1.5; stroke-linecap: square"/>
   </g>
   <g id="line2d_19">
    <path d="M 55.882727 261.216 
L 72.197026 261.216 
L 88.511325 238.313917 
L 104.825624 210.146646 
L 121.139922 183.928275 
L 137.454221 162.043662 
L 153.76852 144.772234 
L 170.082819 131.580383 
L 186.397117 121.709039 
L 202.711416 114.420911 
L 219.025715 109.088426 
L 235.340014 105.210949 
L 251.654312 102.4036 
L 267.968611 100.377177 
L 284.28291 98.917564 
L 300.597209 97.867809 
L 316.911508 97.113636 
L 333.225806 96.572231 
L 349.540105 96.183781 
L 365.854404 95.905183 
" clip-path="url(#p44b43bbedf)" style="fill: none; stroke: #ff7f0e; stroke-width: 1.5; stroke-linecap: square"/>
   </g>
   <g id="line2d_20">
    <path d="M 55.882727 261.216 
L 57.514157 254.414081 
L 59.145587 248.848875 
L 64.039877 230.366895 
L 65.671307 225.557457 
L 68.934166 214.770576 
L 70.565596 211.40397 
L 75.459886 194.639646 
L 80.354175 183.57794 
L 83.617035 174.577421 
L 85.248465 170.661165 
L 86.879895 168.599978 
L 88.511325 164.752428 
L 90.142755 160.355228 
L 91.774185 156.919915 
L 93.405614 153.828134 
L 95.037044 149.568347 
L 98.299904 145.858209 
L 101.562764 139.193703 
L 103.194194 134.933916 
L 104.825624 133.491085 
L 106.457053 130.536716 
L 108.088483 128.750354 
L 109.719913 126.689166 
L 112.982773 121.742316 
L 114.614203 117.894766 
L 116.245633 115.215223 
L 117.877063 111.367673 
L 119.508492 111.505085 
L 121.139922 110.68061 
L 122.771352 109.03166 
L 124.402782 106.970473 
L 126.034212 105.18411 
L 127.665642 105.73376 
L 130.928502 102.504567 
L 132.559931 102.573273 
L 135.822791 98.725723 
L 139.085651 96.595829 
L 140.717081 95.084292 
L 142.348511 93.984992 
L 143.979941 93.091811 
L 145.61137 91.236742 
L 147.2428 90.274855 
L 148.87423 90.893211 
L 150.50566 88.557198 
L 152.13709 88.832023 
L 153.76852 86.908248 
L 155.39995 85.534124 
L 157.03138 85.121886 
L 158.66281 83.335524 
L 160.294239 83.266817 
L 161.925669 81.686574 
L 163.557099 82.030105 
L 165.188529 80.518567 
L 166.819959 79.694092 
L 168.451389 78.663499 
L 170.082819 77.839024 
L 171.714249 76.671018 
L 173.345678 75.915249 
L 174.977108 72.136405 
L 176.608538 70.075218 
L 178.239968 70.968399 
L 179.871398 70.006511 
L 181.502828 69.250743 
L 183.134258 69.66298 
L 184.765688 67.46438 
L 186.397117 66.708612 
L 188.028547 65.746724 
L 189.659977 64.029068 
L 191.291407 61.624349 
L 192.922837 60.387637 
L 194.554267 61.349524 
L 196.185697 63.273299 
L 197.817127 62.036587 
L 199.448556 61.280818 
L 201.079986 58.876099 
L 202.711416 58.738687 
L 204.342846 58.944805 
L 205.974276 59.906693 
L 207.605706 60.044105 
L 209.237136 58.807393 
L 210.868566 59.357043 
L 214.131425 59.837987 
L 215.762855 57.364562 
L 217.394285 56.059143 
L 219.025715 56.402674 
L 220.657145 57.982918 
L 222.288575 57.021031 
L 223.920005 55.165962 
L 225.551434 55.165962 
L 227.182864 56.677499 
L 228.814294 56.333968 
L 230.445724 55.646906 
L 232.077154 56.402674 
L 233.708584 55.990437 
L 235.340014 54.685018 
L 236.971444 54.891137 
L 238.602873 55.440787 
L 240.234303 56.952324 
L 241.865733 56.059143 
L 243.497163 54.204074 
L 245.128593 53.929249 
L 246.760023 54.822431 
L 248.391453 54.066662 
L 250.022883 53.929249 
L 251.654312 54.753724 
L 253.285742 56.402674 
L 254.917172 56.677499 
L 256.548602 58.326449 
L 258.180032 57.914212 
L 259.811462 57.708093 
L 263.074322 58.326449 
L 264.705751 56.471381 
L 266.337181 55.372081 
L 267.968611 53.929249 
L 269.600041 53.860543 
L 271.231471 53.173481 
L 272.862901 51.387118 
L 274.494331 51.593237 
L 276.125761 53.104774 
L 277.75719 51.799356 
L 279.38862 51.593237 
L 281.02005 52.005474 
L 282.65148 51.936768 
L 284.28291 51.661943 
L 285.91434 51.936768 
L 287.54577 51.318412 
L 289.1772 50.906174 
L 292.440059 52.761243 
L 294.071489 53.242187 
L 295.702919 52.280299 
L 297.334349 52.280299 
L 298.965779 51.868062 
L 300.597209 50.081699 
L 302.228639 49.051106 
L 303.860069 50.150406 
L 305.491498 50.150406 
L 307.122928 50.700056 
L 308.754358 50.562643 
L 310.385788 50.012993 
L 312.017218 49.257225 
L 315.280078 50.768762 
L 316.911508 50.287818 
L 318.542937 50.150406 
L 320.174367 50.287818 
L 323.437227 49.257225 
L 325.068657 49.119812 
L 328.331517 50.631349 
L 329.962947 50.974881 
L 331.594376 48.776281 
L 333.225806 50.150406 
L 334.857236 50.012993 
L 336.488666 52.280299 
L 338.120096 52.280299 
L 339.751526 53.036068 
L 341.382956 53.173481 
L 343.014386 51.730649 
L 344.645815 49.875581 
L 346.277245 49.394637 
L 347.908675 49.738168 
L 349.540105 48.638868 
L 351.171535 48.570162 
L 352.802965 49.325931 
L 354.434395 48.776281 
L 356.065825 51.043587 
L 357.697254 51.455824 
L 359.328684 53.036068 
L 360.960114 52.417712 
L 362.591544 53.723131 
L 364.222974 55.303374 
L 365.854404 53.654424 
L 367.485834 53.929249 
L 369.117264 54.066662 
L 370.748693 54.547606 
L 372.380123 52.761243 
L 374.011553 52.898656 
L 375.642983 52.486418 
L 377.274413 53.791837 
L 378.905843 54.204074 
L 380.537273 59.76928 
L 380.537273 59.76928 
" clip-path="url(#p44b43bbedf)" style="fill: none; stroke: #2ca02c; stroke-width: 1.5; stroke-linecap: square"/>
   </g>
   <g id="line2d_21">
    <path d="M 55.882727 261.216 
L 57.514157 261.078588 
L 59.145587 260.735056 
L 60.777017 260.254113 
L 62.408447 259.360931 
L 64.039877 258.605163 
L 67.302736 255.856913 
L 68.934166 255.375969 
L 70.565596 254.139256 
L 72.197026 252.696425 
L 73.828456 250.841357 
L 75.459886 249.879469 
L 77.091316 248.230519 
L 78.722746 246.856394 
L 80.354175 245.001325 
L 81.985605 243.695907 
L 85.248465 240.260594 
L 86.879895 237.855876 
L 90.142755 235.245038 
L 93.405614 230.229482 
L 95.037044 229.061476 
L 96.668474 227.275113 
L 98.299904 225.076513 
L 99.931334 223.358857 
L 101.562764 222.122145 
L 103.194194 221.160257 
L 104.825624 219.236482 
L 106.457053 217.656239 
L 108.088483 217.175295 
L 109.719913 214.70187 
L 111.351343 213.465158 
L 112.982773 211.747501 
L 114.614203 211.95362 
L 116.245633 210.167258 
L 117.877063 209.274076 
L 119.508492 207.350301 
L 121.139922 204.739464 
L 122.771352 202.678277 
L 124.402782 201.029327 
L 126.034212 199.792614 
L 127.665642 199.105552 
L 129.297072 197.800133 
L 132.559931 194.845764 
L 134.191361 193.883877 
L 135.822791 193.128108 
L 137.454221 191.891396 
L 139.085651 190.998214 
L 140.717081 190.242446 
L 142.348511 189.761502 
L 145.61137 187.219371 
L 147.2428 187.356783 
L 148.87423 186.257483 
L 150.50566 186.669721 
L 152.13709 185.501715 
L 153.76852 185.639127 
L 157.03138 184.333708 
L 158.66281 185.982658 
L 160.294239 183.921471 
L 161.925669 183.371821 
L 163.557099 181.791577 
L 165.188529 181.448046 
L 166.819959 180.211333 
L 168.451389 180.417452 
L 170.082819 180.073921 
L 171.714249 178.63109 
L 173.345678 178.150146 
L 174.977108 178.699796 
L 176.608538 178.974621 
L 178.239968 176.501196 
L 179.871398 175.195777 
L 181.502828 174.577421 
L 183.134258 172.447527 
L 184.765688 172.997177 
L 186.397117 173.203296 
L 188.028547 173.13459 
L 189.659977 172.859765 
L 191.291407 173.13459 
L 192.922837 173.546827 
L 194.554267 172.58494 
L 196.185697 171.829171 
L 197.817127 171.348227 
L 199.448556 169.149627 
L 201.079986 169.630571 
L 202.711416 169.83669 
L 204.342846 168.599978 
L 205.974276 166.744909 
L 207.605706 165.851728 
L 209.237136 167.500678 
L 210.868566 165.851728 
L 212.499995 164.683721 
L 214.131425 166.401378 
L 215.762855 166.676203 
L 217.394285 166.470084 
L 219.025715 165.164665 
L 220.657145 164.752428 
L 222.288575 165.851728 
L 225.551434 166.470084 
L 227.182864 166.057846 
L 228.814294 166.401378 
L 230.445724 166.401378 
L 232.077154 165.095959 
L 233.708584 164.821134 
L 235.340014 166.195259 
L 236.971444 166.470084 
L 238.602873 165.370784 
L 240.234303 164.615015 
L 241.865733 166.195259 
L 243.497163 166.195259 
L 245.128593 166.676203 
L 246.760023 163.859246 
L 248.391453 163.721834 
L 250.022883 163.996659 
L 251.654312 163.653128 
L 253.285742 162.416415 
L 254.917172 162.622534 
L 256.548602 162.14159 
L 258.180032 161.454528 
L 259.811462 162.279003 
L 261.442892 161.935471 
L 263.074322 161.179703 
L 264.705751 160.904878 
L 267.968611 162.004178 
L 269.600041 160.973584 
L 271.231471 161.248409 
L 272.862901 161.179703 
L 274.494331 159.530753 
L 276.125761 158.156628 
L 277.75719 158.225334 
L 279.38862 157.813097 
L 281.02005 158.912397 
L 282.65148 158.774984 
L 284.28291 159.39334 
L 285.91434 158.431453 
L 287.54577 160.286521 
L 289.1772 161.523234 
L 290.80863 160.49264 
L 292.440059 159.599459 
L 294.071489 159.668165 
L 295.702919 159.599459 
L 297.334349 159.874284 
L 298.965779 161.04229 
L 300.597209 162.004178 
L 302.228639 161.798059 
L 303.860069 160.630053 
L 305.491498 160.973584 
L 307.122928 158.29404 
L 308.754358 159.39334 
L 310.385788 160.286521 
L 312.017218 160.49264 
L 313.648648 158.706278 
L 315.280078 159.324634 
L 316.911508 158.637572 
L 318.542937 158.225334 
L 320.174367 158.156628 
L 321.805797 158.774984 
L 323.437227 158.431453 
L 325.068657 157.538272 
L 328.331517 158.431453 
L 331.594376 159.736872 
L 333.225806 157.332153 
L 334.857236 155.889322 
L 336.488666 154.721315 
L 338.120096 155.064847 
L 341.382956 153.759428 
L 343.014386 154.927434 
L 344.645815 156.370265 
L 346.277245 156.988622 
L 347.908675 158.431453 
L 351.171535 157.606978 
L 352.802965 157.881803 
L 354.434395 157.538272 
L 356.065825 156.576384 
L 357.697254 155.751909 
L 359.328684 154.034253 
L 360.960114 155.958028 
L 362.591544 155.064847 
L 364.222974 153.828134 
L 365.854404 156.370265 
L 367.485834 155.820615 
L 369.117264 153.209778 
L 370.748693 152.79754 
L 372.380123 153.553309 
L 374.011553 153.141072 
L 375.642983 153.141072 
L 377.274413 153.484603 
L 378.905843 154.515197 
L 380.537273 155.064847 
L 380.537273 155.064847 
" clip-path="url(#p44b43bbedf)" style="fill: none; stroke: #d62728; stroke-width: 1.5; stroke-linecap: square"/>
   </g>
   <g id="patch_3">
    <path d="M 39.65 273.312 
L 39.65 7.2 
" style="fill: none; stroke: #000000; stroke-width: 0.8; stroke-linejoin: miter; stroke-linecap: square"/>
   </g>
   <g id="patch_4">
    <path d="M 396.77 273.312 
L 396.77 7.2 
" style="fill: none; stroke: #000000; stroke-width: 0.8; stroke-linejoin: miter; stroke-linecap: square"/>
   </g>
   <g id="patch_5">
    <path d="M 39.65 273.312 
L 396.77 273.312 
" style="fill: none; stroke: #000000; stroke-width: 0.8; stroke-linejoin: miter; stroke-linecap: square"/>
   </g>
   <g id="patch_6">
    <path d="M 39.65 7.2 
L 396.77 7.2 
" style="fill: none; stroke: #000000; stroke-width: 0.8; stroke-linejoin: miter; stroke-linecap: square"/>
   </g>
  </g>
 </g>
 <defs>
  <clipPath id="p44b43bbedf">
   <rect x="39.65" y="7.2" width="357.12" height="266.112"/>
  </clipPath>
 </defs>
</svg>
