<?xml version="1.0" encoding="utf-8" standalone="no"?>
<!DOCTYPE svg PUBLIC "-//W3C//DTD SVG 1.1//EN"
  "http://www.w3.org/Graphics/SVG/1.1/DTD/svg11.dtd">
<svg xmlns:xlink="http://www.w3.org/1999/xlink" width="403.97pt" height="297.190125pt" viewBox="0 0 403.97 297.190125" xmlns="http://www.w3.org/2000/svg" version="1.1">
 <metadata>
  <rdf:RDF xmlns:dc="http://purl.org/dc/elements/1.1/" xmlns:cc="http://creativecommons.org/ns#" xmlns:rdf="http://www.w3.org/1999/02/22-rdf-syntax-ns#">
   <cc:Work>
    <dc:type rdf:resource="http://purl.org/dc/dcmitype/StillImage"/>
    <dc:date>2024-08-28T07:14:29.484240</dc:date>
    <dc:format>image/svg+xml</dc:format>
    <dc:creator>
     <cc:Agent>
      <dc:title>Matplotlib v3.9.2, https://matplotlib.org/</dc:title>
     </cc:Agent>
    </dc:creator>
   </cc:Work>
  </rdf:RDF>
 </metadata>
 <defs>
  <style type="text/css">*{stroke-linejoin: round; stroke-linecap: butt}</style>
 </defs>
 <g id="figure_1">
  <g id="patch_1">
   <path d="M 0 297.190125 
L 403.97 297.190125 
L 403.97 0 
L 0 0 
z
" style="fill: #ffffff"/>
  </g>
  <g id="axes_1">
   <g id="patch_2">
    <path d="M 39.65 273.312 
L 396.77 273.312 
L 396.77 7.2 
L 39.65 7.2 
z
" style="fill: #ffffff"/>
   </g>
   <g id="matplotlib.axis_1">
    <g id="xtick_1">
     <g id="line2d_1">
      <defs>
       <path id="m83b3c5b7f6" d="M 0 0 
L 0 3.5 
" style="stroke: #000000; stroke-width: 0.8"/>
      </defs>
      <g>
       <use xlink:href="#m83b3c5b7f6" x="55.882727" y="273.312" style="stroke: #000000; stroke-width: 0.8"/>
      </g>
     </g>
     <g id="text_1">
      <!-- 0.0 -->
      <g transform="translate(47.931165 287.910437) scale(0.1 -0.1)">
       <defs>
        <path id="DejaVuSans-30" d="M 2034 4250 
Q 1547 4250 1301 3770 
Q 1056 3291 1056 2328 
Q 1056 1369 1301 889 
Q 1547 409 2034 409 
Q 2525 409 2770 889 
Q 3016 1369 3016 2328 
Q 3016 3291 2770 3770 
Q 2525 4250 2034 4250 
z
M 2034 4750 
Q 2819 4750 3233 4129 
Q 3647 3509 3647 2328 
Q 3647 1150 3233 529 
Q 2819 -91 2034 -91 
Q 1250 -91 836 529 
Q 422 1150 422 2328 
Q 422 3509 836 4129 
Q 1250 4750 2034 4750 
z
" transform="scale(0.015625)"/>
        <path id="DejaVuSans-2e" d="M 684 794 
L 1344 794 
L 1344 0 
L 684 0 
L 684 794 
z
" transform="scale(0.015625)"/>
       </defs>
       <use xlink:href="#DejaVuSans-30"/>
       <use xlink:href="#DejaVuSans-2e" x="63.623047"/>
       <use xlink:href="#DejaVuSans-30" x="95.410156"/>
      </g>
     </g>
    </g>
    <g id="xtick_2">
     <g id="line2d_2">
      <g>
       <use xlink:href="#m83b3c5b7f6" x="96.668474" y="273.312" style="stroke: #000000; stroke-width: 0.8"/>
      </g>
     </g>
     <g id="text_2">
      <!-- 2.5 -->
      <g transform="translate(88.716912 287.910437) scale(0.1 -0.1)">
       <defs>
        <path id="DejaVuSans-32" d="M 1228 531 
L 3431 531 
L 3431 0 
L 469 0 
L 469 531 
Q 828 903 1448 1529 
Q 2069 2156 2228 2338 
Q 2531 2678 2651 2914 
Q 2772 3150 2772 3378 
Q 2772 3750 2511 3984 
Q 2250 4219 1831 4219 
Q 1534 4219 1204 4116 
Q 875 4013 500 3803 
L 500 4441 
Q 881 4594 1212 4672 
Q 1544 4750 1819 4750 
Q 2544 4750 2975 4387 
Q 3406 4025 3406 3419 
Q 3406 3131 3298 2873 
Q 3191 2616 2906 2266 
Q 2828 2175 2409 1742 
Q 1991 1309 1228 531 
z
" transform="scale(0.015625)"/>
        <path id="DejaVuSans-35" d="M 691 4666 
L 3169 4666 
L 3169 4134 
L 1269 4134 
L 1269 2991 
Q 1406 3038 1543 3061 
Q 1681 3084 1819 3084 
Q 2600 3084 3056 2656 
Q 3513 2228 3513 1497 
Q 3513 744 3044 326 
Q 2575 -91 1722 -91 
Q 1428 -91 1123 -41 
Q 819 9 494 109 
L 494 744 
Q 775 591 1075 516 
Q 1375 441 1709 441 
Q 2250 441 2565 725 
Q 2881 1009 2881 1497 
Q 2881 1984 2565 2268 
Q 2250 2553 1709 2553 
Q 1456 2553 1204 2497 
Q 953 2441 691 2322 
L 691 4666 
z
" transform="scale(0.015625)"/>
       </defs>
       <use xlink:href="#DejaVuSans-32"/>
       <use xlink:href="#DejaVuSans-2e" x="63.623047"/>
       <use xlink:href="#DejaVuSans-35" x="95.410156"/>
      </g>
     </g>
    </g>
    <g id="xtick_3">
     <g id="line2d_3">
      <g>
       <use xlink:href="#m83b3c5b7f6" x="137.454221" y="273.312" style="stroke: #000000; stroke-width: 0.8"/>
      </g>
     </g>
     <g id="text_3">
      <!-- 5.0 -->
      <g transform="translate(129.502659 287.910437) scale(0.1 -0.1)">
       <use xlink:href="#DejaVuSans-35"/>
       <use xlink:href="#DejaVuSans-2e" x="63.623047"/>
       <use xlink:href="#DejaVuSans-30" x="95.410156"/>
      </g>
     </g>
    </g>
    <g id="xtick_4">
     <g id="line2d_4">
      <g>
       <use xlink:href="#m83b3c5b7f6" x="178.239968" y="273.312" style="stroke: #000000; stroke-width: 0.8"/>
      </g>
     </g>
     <g id="text_4">
      <!-- 7.5 -->
      <g transform="translate(170.288406 287.910437) scale(0.1 -0.1)">
       <defs>
        <path id="DejaVuSans-37" d="M 525 4666 
L 3525 4666 
L 3525 4397 
L 1831 0 
L 1172 0 
L 2766 4134 
L 525 4134 
L 525 4666 
z
" transform="scale(0.015625)"/>
       </defs>
       <use xlink:href="#DejaVuSans-37"/>
       <use xlink:href="#DejaVuSans-2e" x="63.623047"/>
       <use xlink:href="#DejaVuSans-35" x="95.410156"/>
      </g>
     </g>
    </g>
    <g id="xtick_5">
     <g id="line2d_5">
      <g>
       <use xlink:href="#m83b3c5b7f6" x="219.025715" y="273.312" style="stroke: #000000; stroke-width: 0.8"/>
      </g>
     </g>
     <g id="text_5">
      <!-- 10.0 -->
      <g transform="translate(207.892902 287.910437) scale(0.1 -0.1)">
       <defs>
        <path id="DejaVuSans-31" d="M 794 531 
L 1825 531 
L 1825 4091 
L 703 3866 
L 703 4441 
L 1819 4666 
L 2450 4666 
L 2450 531 
L 3481 531 
L 3481 0 
L 794 0 
L 794 531 
z
" transform="scale(0.015625)"/>
       </defs>
       <use xlink:href="#DejaVuSans-31"/>
       <use xlink:href="#DejaVuSans-30" x="63.623047"/>
       <use xlink:href="#DejaVuSans-2e" x="127.246094"/>
       <use xlink:href="#DejaVuSans-30" x="159.033203"/>
      </g>
     </g>
    </g>
    <g id="xtick_6">
     <g id="line2d_6">
      <g>
       <use xlink:href="#m83b3c5b7f6" x="259.811462" y="273.312" style="stroke: #000000; stroke-width: 0.8"/>
      </g>
     </g>
     <g id="text_6">
      <!-- 12.5 -->
      <g transform="translate(248.678649 287.910437) scale(0.1 -0.1)">
       <use xlink:href="#DejaVuSans-31"/>
       <use xlink:href="#DejaVuSans-32" x="63.623047"/>
       <use xlink:href="#DejaVuSans-2e" x="127.246094"/>
       <use xlink:href="#DejaVuSans-35" x="159.033203"/>
      </g>
     </g>
    </g>
    <g id="xtick_7">
     <g id="line2d_7">
      <g>
       <use xlink:href="#m83b3c5b7f6" x="300.597209" y="273.312" style="stroke: #000000; stroke-width: 0.8"/>
      </g>
     </g>
     <g id="text_7">
      <!-- 15.0 -->
      <g transform="translate(289.464396 287.910437) scale(0.1 -0.1)">
       <use xlink:href="#DejaVuSans-31"/>
       <use xlink:href="#DejaVuSans-35" x="63.623047"/>
       <use xlink:href="#DejaVuSans-2e" x="127.246094"/>
       <use xlink:href="#DejaVuSans-30" x="159.033203"/>
      </g>
     </g>
    </g>
    <g id="xtick_8">
     <g id="line2d_8">
      <g>
       <use xlink:href="#m83b3c5b7f6" x="341.382956" y="273.312" style="stroke: #000000; stroke-width: 0.8"/>
      </g>
     </g>
     <g id="text_8">
      <!-- 17.5 -->
      <g transform="translate(330.250143 287.910437) scale(0.1 -0.1)">
       <use xlink:href="#DejaVuSans-31"/>
       <use xlink:href="#DejaVuSans-37" x="63.623047"/>
       <use xlink:href="#DejaVuSans-2e" x="127.246094"/>
       <use xlink:href="#DejaVuSans-35" x="159.033203"/>
      </g>
     </g>
    </g>
    <g id="xtick_9">
     <g id="line2d_9">
      <g>
       <use xlink:href="#m83b3c5b7f6" x="382.168703" y="273.312" style="stroke: #000000; stroke-width: 0.8"/>
      </g>
     </g>
     <g id="text_9">
      <!-- 20.0 -->
      <g transform="translate(371.03589 287.910437) scale(0.1 -0.1)">
       <use xlink:href="#DejaVuSans-32"/>
       <use xlink:href="#DejaVuSans-30" x="63.623047"/>
       <use xlink:href="#DejaVuSans-2e" x="127.246094"/>
       <use xlink:href="#DejaVuSans-30" x="159.033203"/>
      </g>
     </g>
    </g>
   </g>
   <g id="matplotlib.axis_2">
    <g id="ytick_1">
     <g id="line2d_10">
      <defs>
       <path id="m9d612aa626" d="M 0 0 
L -3.5 0 
" style="stroke: #000000; stroke-width: 0.8"/>
      </defs>
      <g>
       <use xlink:href="#m9d612aa626" x="39.65" y="261.216" style="stroke: #000000; stroke-width: 0.8"/>
      </g>
     </g>
     <g id="text_10">
      <!-- 0 -->
      <g transform="translate(26.2875 265.015219) scale(0.1 -0.1)">
       <use xlink:href="#DejaVuSans-30"/>
      </g>
     </g>
    </g>
    <g id="ytick_2">
     <g id="line2d_11">
      <g>
       <use xlink:href="#m9d612aa626" x="39.65" y="222.455389" style="stroke: #000000; stroke-width: 0.8"/>
      </g>
     </g>
     <g id="text_11">
      <!-- 500 -->
      <g transform="translate(13.5625 226.254608) scale(0.1 -0.1)">
       <use xlink:href="#DejaVuSans-35"/>
       <use xlink:href="#DejaVuSans-30" x="63.623047"/>
       <use xlink:href="#DejaVuSans-30" x="127.246094"/>
      </g>
     </g>
    </g>
    <g id="ytick_3">
     <g id="line2d_12">
      <g>
       <use xlink:href="#m9d612aa626" x="39.65" y="183.694778" style="stroke: #000000; stroke-width: 0.8"/>
      </g>
     </g>
     <g id="text_12">
      <!-- 1000 -->
      <g transform="translate(7.2 187.493997) scale(0.1 -0.1)">
       <use xlink:href="#DejaVuSans-31"/>
       <use xlink:href="#DejaVuSans-30" x="63.623047"/>
       <use xlink:href="#DejaVuSans-30" x="127.246094"/>
       <use xlink:href="#DejaVuSans-30" x="190.869141"/>
      </g>
     </g>
    </g>
    <g id="ytick_4">
     <g id="line2d_13">
      <g>
       <use xlink:href="#m9d612aa626" x="39.65" y="144.934168" style="stroke: #000000; stroke-width: 0.8"/>
      </g>
     </g>
     <g id="text_13">
      <!-- 1500 -->
      <g transform="translate(7.2 148.733386) scale(0.1 -0.1)">
       <use xlink:href="#DejaVuSans-31"/>
       <use xlink:href="#DejaVuSans-35" x="63.623047"/>
       <use xlink:href="#DejaVuSans-30" x="127.246094"/>
       <use xlink:href="#DejaVuSans-30" x="190.869141"/>
      </g>
     </g>
    </g>
    <g id="ytick_5">
     <g id="line2d_14">
      <g>
       <use xlink:href="#m9d612aa626" x="39.65" y="106.173557" style="stroke: #000000; stroke-width: 0.8"/>
      </g>
     </g>
     <g id="text_14">
      <!-- 2000 -->
      <g transform="translate(7.2 109.972776) scale(0.1 -0.1)">
       <use xlink:href="#DejaVuSans-32"/>
       <use xlink:href="#DejaVuSans-30" x="63.623047"/>
       <use xlink:href="#DejaVuSans-30" x="127.246094"/>
       <use xlink:href="#DejaVuSans-30" x="190.869141"/>
      </g>
     </g>
    </g>
    <g id="ytick_6">
     <g id="line2d_15">
      <g>
       <use xlink:href="#m9d612aa626" x="39.65" y="67.412946" style="stroke: #000000; stroke-width: 0.8"/>
      </g>
     </g>
     <g id="text_15">
      <!-- 2500 -->
      <g transform="translate(7.2 71.212165) scale(0.1 -0.1)">
       <use xlink:href="#DejaVuSans-32"/>
       <use xlink:href="#DejaVuSans-35" x="63.623047"/>
       <use xlink:href="#DejaVuSans-30" x="127.246094"/>
       <use xlink:href="#DejaVuSans-30" x="190.869141"/>
      </g>
     </g>
    </g>
    <g id="ytick_7">
     <g id="line2d_16">
      <g>
       <use xlink:href="#m9d612aa626" x="39.65" y="28.652335" style="stroke: #000000; stroke-width: 0.8"/>
      </g>
     </g>
     <g id="text_16">
      <!-- 3000 -->
      <g transform="translate(7.2 32.451554) scale(0.1 -0.1)">
       <defs>
        <path id="DejaVuSans-33" d="M 2597 2516 
Q 3050 2419 3304 2112 
Q 3559 1806 3559 1356 
Q 3559 666 3084 287 
Q 2609 -91 1734 -91 
Q 1441 -91 1130 -33 
Q 819 25 488 141 
L 488 750 
Q 750 597 1062 519 
Q 1375 441 1716 441 
Q 2309 441 2620 675 
Q 2931 909 2931 1356 
Q 2931 1769 2642 2001 
Q 2353 2234 1838 2234 
L 1294 2234 
L 1294 2753 
L 1863 2753 
Q 2328 2753 2575 2939 
Q 2822 3125 2822 3475 
Q 2822 3834 2567 4026 
Q 2313 4219 1838 4219 
Q 1578 4219 1281 4162 
Q 984 4106 628 3988 
L 628 4550 
Q 988 4650 1302 4700 
Q 1616 4750 1894 4750 
Q 2613 4750 3031 4423 
Q 3450 4097 3450 3541 
Q 3450 3153 3228 2886 
Q 3006 2619 2597 2516 
z
" transform="scale(0.015625)"/>
       </defs>
       <use xlink:href="#DejaVuSans-33"/>
       <use xlink:href="#DejaVuSans-30" x="63.623047"/>
       <use xlink:href="#DejaVuSans-30" x="127.246094"/>
       <use xlink:href="#DejaVuSans-30" x="190.869141"/>
      </g>
     </g>
    </g>
   </g>
   <g id="line2d_17">
    <path d="M 55.882727 261.216 
L 59.961302 241.835695 
L 64.039877 224.005814 
L 68.118451 207.602323 
L 72.197026 192.511112 
L 76.275601 178.627198 
L 80.354175 165.853996 
L 84.43275 154.102651 
L 88.511325 143.291414 
L 92.589899 133.345075 
L 96.668474 124.194444 
L 100.747049 115.775863 
L 104.825624 108.030769 
L 108.904198 100.905282 
L 112.982773 94.349834 
L 117.061348 88.318822 
L 121.139922 82.770291 
L 125.218497 77.665642 
L 129.297072 72.969365 
L 133.375646 68.648791 
L 137.454221 64.673862 
L 141.532796 61.016928 
L 145.61137 57.652548 
L 149.689945 54.557319 
L 153.76852 51.709708 
L 157.847095 49.089906 
L 161.925669 46.679688 
L 166.004244 44.462288 
L 170.082819 42.422279 
L 174.161393 40.545471 
L 178.239968 38.818808 
L 182.318543 37.230278 
L 186.397117 35.768831 
L 190.475692 34.424299 
L 194.554267 33.187329 
L 198.632841 32.049318 
L 202.711416 31.002347 
L 206.789991 30.039134 
L 210.868566 29.152978 
L 214.94714 28.337714 
L 219.025715 27.587672 
L 223.10429 26.897632 
L 227.182864 26.262796 
L 231.261439 25.678747 
L 235.340014 25.141422 
L 239.418588 24.647083 
L 243.497163 24.192291 
L 247.575738 23.773882 
L 251.654312 23.388946 
L 255.732887 23.034805 
L 259.811462 22.708995 
L 263.890037 22.40925 
L 267.968611 22.133485 
L 272.047186 21.879781 
L 276.125761 21.646373 
L 280.204335 21.431638 
L 284.28291 21.234081 
L 288.361485 21.052329 
L 292.440059 20.885118 
L 296.518634 20.731283 
L 300.597209 20.589755 
L 304.675783 20.459549 
L 308.754358 20.33976 
L 312.832933 20.229554 
L 316.911508 20.128164 
L 320.990082 20.034885 
L 325.068657 19.949069 
L 329.147232 19.870118 
L 333.225806 19.797483 
L 337.304381 19.730659 
L 341.382956 19.669181 
L 345.46153 19.612621 
L 349.540105 19.560586 
L 353.61868 19.512714 
L 357.697254 19.468671 
L 361.775829 19.428152 
L 365.854404 19.390875 
L 369.932979 19.356579 
L 374.011553 19.325028 
L 378.090128 19.296 
" clip-path="url(#p8264c2045f)" style="fill: none; stroke: #1f77b4; stroke-width: 1.5; stroke-linecap: square"/>
   </g>
   <g id="line2d_18">
    <path d="M 55.882727 261.216 
L 59.961302 261.216 
L 64.039877 259.665576 
L 68.118451 256.926751 
L 72.197026 253.296056 
L 76.275601 249.015377 
L 80.354175 244.281068 
L 84.43275 239.25162 
L 88.511325 234.054084 
L 92.589899 228.789472 
L 96.668474 223.53727 
L 100.747049 218.35923 
L 104.825624 213.302533 
L 108.904198 208.402432 
L 112.982773 203.684457 
L 117.061348 199.166256 
L 121.139922 194.859117 
L 125.218497 190.769242 
L 129.297072 186.898791 
L 133.375646 183.246752 
L 137.454221 179.809654 
L 141.532796 176.582157 
L 145.61137 173.557526 
L 149.689945 170.728026 
L 153.76852 168.085235 
L 157.847095 165.620304 
L 161.925669 163.324156 
L 166.004244 161.187649 
L 170.082819 159.201704 
L 174.161393 157.357401 
L 178.239968 155.646054 
L 182.318543 154.059265 
L 186.397117 152.588966 
L 190.475692 151.227442 
L 194.554267 149.96735 
L 198.632841 148.801724 
L 202.711416 147.723981 
L 206.789991 146.727913 
L 210.868566 145.807685 
L 214.94714 144.95782 
L 219.025715 144.173188 
L 223.10429 143.448993 
L 227.182864 142.780759 
L 231.261439 142.164312 
L 235.340014 141.595766 
L 239.418588 141.071506 
L 243.497163 140.588172 
L 247.575738 140.142647 
L 251.654312 139.732037 
L 255.732887 139.353661 
L 259.811462 139.005035 
L 263.890037 138.683858 
L 267.968611 138.388001 
L 272.047186 138.115498 
L 276.125761 137.864528 
L 280.204335 137.633408 
L 284.28291 137.420587 
L 288.361485 137.22463 
L 292.440059 137.044211 
L 296.518634 136.87811 
L 300.597209 136.725199 
L 304.675783 136.584437 
L 308.754358 136.454866 
L 312.832933 136.335601 
L 316.911508 136.225826 
L 320.990082 136.124791 
L 325.068657 136.031803 
L 329.147232 135.946222 
L 333.225806 135.867463 
L 337.304381 135.794982 
L 341.382956 135.728281 
L 345.46153 135.6669 
L 349.540105 135.610417 
L 353.61868 135.558441 
L 357.697254 135.510613 
L 361.775829 135.466604 
L 365.854404 135.426108 
L 369.932979 135.388847 
L 374.011553 135.354561 
L 378.090128 135.323014 
" clip-path="url(#p8264c2045f)" style="fill: none; stroke: #ff7f0e; stroke-width: 1.5; stroke-linecap: square"/>
   </g>
   <g id="line2d_19">
    <path d="M 55.882727 261.216 
L 59.145587 245.169107 
L 64.039877 225.556238 
L 65.671307 219.664625 
L 67.302736 211.990024 
L 68.934166 205.478242 
L 70.565596 200.206799 
L 72.197026 193.152367 
L 73.828456 186.795627 
L 75.459886 182.454439 
L 77.091316 177.338038 
L 78.722746 174.237189 
L 80.354175 168.500619 
L 81.985605 165.089685 
L 83.617035 161.291145 
L 85.248465 157.027478 
L 86.879895 153.383981 
L 88.511325 150.438174 
L 90.142755 146.407071 
L 91.774185 143.693828 
L 93.405614 139.120076 
L 95.037044 137.259567 
L 96.668474 134.081197 
L 98.299904 129.740008 
L 99.931334 126.949244 
L 101.562764 121.755322 
L 103.194194 118.111825 
L 104.825624 113.150467 
L 106.457053 111.677564 
L 109.719913 107.801503 
L 111.351343 103.770399 
L 112.982773 100.747071 
L 114.614203 98.343913 
L 116.245633 97.413659 
L 117.877063 95.863234 
L 119.508492 93.615119 
L 124.402782 85.707954 
L 130.928502 76.017802 
L 132.559931 74.777462 
L 134.191361 75.242589 
L 135.822791 73.071995 
L 137.454221 72.064219 
L 139.085651 70.591316 
L 142.348511 68.188158 
L 143.979941 67.335425 
L 145.61137 67.02534 
L 148.87423 64.854746 
L 150.50566 63.924491 
L 152.13709 63.691927 
L 153.76852 62.994236 
L 155.39995 62.529109 
L 157.03138 59.970909 
L 158.66281 59.350739 
L 160.294239 58.575527 
L 161.925669 56.87006 
L 163.557099 56.637496 
L 165.188529 55.862284 
L 166.819959 54.932029 
L 168.451389 53.459126 
L 170.082819 52.838956 
L 171.714249 51.13349 
L 173.345678 52.296308 
L 174.977108 51.443574 
L 176.608538 50.745883 
L 178.239968 51.986223 
L 179.871398 51.055968 
L 181.502828 51.055968 
L 183.134258 53.459126 
L 184.765688 52.838956 
L 186.397117 52.683914 
L 188.028547 49.350501 
L 189.659977 49.89315 
L 191.291407 49.040417 
L 192.922837 50.823405 
L 194.554267 50.048192 
L 196.185697 51.055968 
L 197.817127 48.110162 
L 199.448556 47.102386 
L 201.079986 45.629483 
L 202.711416 45.396919 
L 205.974276 44.15658 
L 209.237136 42.373592 
L 210.868566 42.683676 
L 212.499995 41.443337 
L 214.131425 41.443337 
L 215.762855 41.133252 
L 217.394285 40.047955 
L 219.025715 39.73787 
L 220.657145 39.272743 
L 223.920005 39.1177 
L 225.551434 39.195221 
L 227.182864 37.412233 
L 228.814294 37.257191 
L 230.445724 36.016851 
L 232.077154 35.551724 
L 233.708584 36.249415 
L 236.971444 32.916002 
L 238.602873 34.078821 
L 240.234303 31.753184 
L 241.865733 31.598142 
L 243.497163 31.753184 
L 245.128593 32.838481 
L 246.760023 31.908227 
L 248.391453 30.047717 
L 251.654312 27.954644 
L 253.285742 27.02439 
L 254.917172 26.714305 
L 256.548602 26.946868 
L 258.180032 26.40422 
L 259.811462 27.334475 
L 261.442892 27.02439 
L 263.074322 28.652335 
L 264.705751 26.171656 
L 266.337181 27.722081 
L 267.968611 28.187208 
L 269.600041 28.032166 
L 271.231471 28.109687 
L 272.862901 27.411996 
L 274.494331 27.877123 
L 276.125761 29.660111 
L 277.75719 28.109687 
L 279.38862 29.194984 
L 281.02005 30.125238 
L 282.65148 30.125238 
L 284.28291 28.34225 
L 285.91434 28.032166 
L 287.54577 25.629008 
L 289.1772 25.706529 
L 290.80863 24.776274 
L 292.440059 23.22585 
L 294.071489 22.140553 
L 295.702919 22.063031 
L 297.334349 23.458413 
L 298.965779 24.621232 
L 300.597209 25.473965 
L 302.228639 25.78405 
L 303.860069 23.690977 
L 305.491498 25.706529 
L 307.122928 27.179432 
L 308.754358 26.481741 
L 310.385788 26.636784 
L 312.017218 27.334475 
L 313.648648 28.34225 
L 315.280078 28.807378 
L 316.911508 28.884899 
L 318.542937 28.807378 
L 321.805797 28.032166 
L 323.437227 27.334475 
L 325.068657 25.16388 
L 326.700087 23.690977 
L 328.331517 23.380892 
L 329.962947 24.776274 
L 331.594376 25.78405 
L 334.857236 26.946868 
L 336.488666 26.40422 
L 338.120096 26.094135 
L 339.751526 26.481741 
L 341.382956 28.497293 
L 343.014386 28.187208 
L 344.645815 26.869347 
L 346.277245 27.489517 
L 347.908675 26.559262 
L 349.540105 25.318923 
L 351.171535 25.939093 
L 352.802965 24.698753 
L 354.434395 26.171656 
L 356.065825 26.714305 
L 357.697254 27.799602 
L 359.328684 26.481741 
L 360.960114 26.249177 
L 362.591544 25.78405 
L 364.222974 24.233626 
L 365.854404 25.241402 
L 367.485834 28.264729 
L 369.117264 27.334475 
L 370.748693 27.567038 
L 372.380123 26.636784 
L 374.011553 26.791826 
L 375.642983 27.256953 
L 377.274413 26.559262 
L 378.905843 27.799602 
L 380.537273 26.40422 
L 380.537273 26.40422 
" clip-path="url(#p8264c2045f)" style="fill: none; stroke: #2ca02c; stroke-width: 1.5; stroke-linecap: square"/>
   </g>
   <g id="line2d_20">
    <path d="M 55.882727 261.216 
L 57.514157 261.060958 
L 59.145587 260.285745 
L 62.408447 258.967885 
L 64.039877 257.41746 
L 65.671307 256.254642 
L 67.302736 255.47943 
L 70.565596 251.448326 
L 72.197026 249.897902 
L 73.828456 249.122689 
L 75.459886 246.874574 
L 77.091316 245.634234 
L 78.722746 243.308598 
L 80.354175 241.680652 
L 81.985605 239.587579 
L 83.617035 236.409209 
L 85.248465 234.858785 
L 88.511325 232.765712 
L 91.774185 228.036917 
L 93.405614 227.881875 
L 95.037044 224.703505 
L 96.668474 220.982486 
L 98.299904 219.819668 
L 99.931334 217.881637 
L 101.562764 216.331213 
L 103.194194 215.400958 
L 104.825624 214.858309 
L 106.457053 213.307885 
L 108.088483 211.292333 
L 109.719913 209.664388 
L 111.351343 207.726357 
L 112.982773 204.858072 
L 114.614203 203.695254 
L 117.877063 200.051756 
L 119.508492 198.733895 
L 121.139922 197.028429 
L 122.771352 196.795865 
L 124.402782 194.935356 
L 126.034212 192.609719 
L 127.665642 191.291858 
L 129.297072 191.214337 
L 130.928502 189.50887 
L 132.559931 189.276306 
L 134.191361 186.563064 
L 135.822791 185.400245 
L 137.454221 183.229651 
L 139.085651 182.299396 
L 140.717081 182.066833 
L 142.348511 180.59393 
L 145.61137 178.500857 
L 147.2428 177.105475 
L 148.87423 175.400008 
L 150.50566 174.469753 
L 152.13709 172.299159 
L 153.76852 170.981298 
L 155.39995 170.671213 
L 157.03138 171.911553 
L 158.66281 170.206086 
L 160.294239 169.663437 
L 163.557099 166.795152 
L 165.188529 166.407546 
L 166.819959 164.857122 
L 168.451389 165.167206 
L 170.082819 165.167206 
L 171.714249 166.097461 
L 173.345678 164.857122 
L 174.977108 164.934643 
L 176.608538 165.244728 
L 178.239968 163.229176 
L 179.871398 164.7796 
L 181.502828 164.391994 
L 183.134258 162.143879 
L 184.765688 161.058582 
L 186.397117 160.28337 
L 188.028547 162.84157 
L 189.659977 161.291145 
L 191.291407 160.360891 
L 192.922837 159.120551 
L 196.185697 158.112775 
L 197.817127 160.903539 
L 199.448556 161.058582 
L 201.079986 161.678752 
L 202.711416 160.670976 
L 204.342846 160.981061 
L 205.974276 161.911315 
L 207.605706 161.833794 
L 209.237136 162.143879 
L 210.868566 160.28337 
L 212.499995 159.740721 
L 214.131425 160.360891 
L 215.762855 159.818242 
L 217.394285 159.6632 
L 219.025715 158.965509 
L 220.657145 158.500381 
L 222.288575 157.80269 
L 223.920005 156.329787 
L 225.551434 156.019702 
L 227.182864 154.62432 
L 228.814294 154.314235 
L 230.445724 154.546799 
L 232.077154 154.934405 
L 233.708584 155.011926 
L 235.340014 156.562351 
L 236.971444 157.104999 
L 238.602873 157.415084 
L 240.234303 158.887988 
L 241.865733 158.887988 
L 243.497163 158.345339 
L 245.128593 156.794915 
L 246.760023 156.097224 
L 248.391453 157.027478 
L 250.022883 157.182521 
L 251.654312 156.48483 
L 253.285742 155.554575 
L 254.917172 155.86466 
L 256.548602 156.794915 
L 258.180032 156.329787 
L 259.811462 154.62432 
L 261.442892 154.779363 
L 263.074322 152.763811 
L 264.705751 154.856884 
L 266.337181 150.593217 
L 267.968611 149.740483 
L 271.231471 150.515696 
L 272.862901 149.120314 
L 274.494331 147.492368 
L 276.125761 146.949719 
L 277.75719 148.500144 
L 279.38862 149.120314 
L 281.02005 148.577665 
L 285.91434 148.422623 
L 287.54577 149.042792 
L 289.1772 150.593217 
L 290.80863 150.903302 
L 294.071489 152.841332 
L 295.702919 151.756035 
L 297.334349 150.128089 
L 298.965779 147.802453 
L 300.597209 146.717156 
L 303.860069 146.949719 
L 305.491498 146.019465 
L 307.122928 144.546562 
L 308.754358 144.46904 
L 310.385788 145.864422 
L 312.017218 147.64741 
L 313.648648 148.035017 
L 315.280078 149.120314 
L 316.911508 148.035017 
L 318.542937 148.112538 
L 320.174367 146.407071 
L 321.805797 146.32955 
L 323.437227 147.724932 
L 325.068657 148.035017 
L 326.700087 149.973047 
L 328.331517 149.120314 
L 329.962947 150.283132 
L 331.594376 149.662962 
L 333.225806 147.569889 
L 338.120096 145.244253 
L 339.751526 144.856646 
L 341.382956 143.306222 
L 343.014386 144.546562 
L 344.645815 144.46904 
L 346.277245 143.848871 
L 347.908675 143.073658 
L 349.540105 143.771349 
L 351.171535 142.918616 
L 352.802965 143.383743 
L 354.434395 142.608531 
L 356.065825 142.220925 
L 357.697254 142.375967 
L 359.328684 142.143404 
L 360.960114 142.143404 
L 362.591544 142.841095 
L 364.222974 143.383743 
L 365.854404 141.678276 
L 367.485834 141.135628 
L 369.117264 142.220925 
L 370.748693 140.903064 
L 372.380123 141.29067 
L 374.011553 141.29067 
L 375.642983 140.980585 
L 377.274413 141.91084 
L 378.905843 141.523234 
L 380.537273 141.678276 
L 380.537273 141.678276 
" clip-path="url(#p8264c2045f)" style="fill: none; stroke: #d62728; stroke-width: 1.5; stroke-linecap: square"/>
   </g>
   <g id="patch_3">
    <path d="M 39.65 273.312 
L 39.65 7.2 
" style="fill: none; stroke: #000000; stroke-width: 0.8; stroke-linejoin: miter; stroke-linecap: square"/>
   </g>
   <g id="patch_4">
    <path d="M 396.77 273.312 
L 396.77 7.2 
" style="fill: none; stroke: #000000; stroke-width: 0.8; stroke-linejoin: miter; stroke-linecap: square"/>
   </g>
   <g id="patch_5">
    <path d="M 39.65 273.312 
L 396.77 273.312 
" style="fill: none; stroke: #000000; stroke-width: 0.8; stroke-linejoin: miter; stroke-linecap: square"/>
   </g>
   <g id="patch_6">
    <path d="M 39.65 7.2 
L 396.77 7.2 
" style="fill: none; stroke: #000000; stroke-width: 0.8; stroke-linejoin: miter; stroke-linecap: square"/>
   </g>
  </g>
 </g>
 <defs>
  <clipPath id="p8264c2045f">
   <rect x="39.65" y="7.2" width="357.12" height="266.112"/>
  </clipPath>
 </defs>
</svg>
