<?xml version="1.0" encoding="utf-8" standalone="no"?>
<!DOCTYPE svg PUBLIC "-//W3C//DTD SVG 1.1//EN"
  "http://www.w3.org/Graphics/SVG/1.1/DTD/svg11.dtd">
<svg xmlns:xlink="http://www.w3.org/1999/xlink" width="403.97pt" height="297.190125pt" viewBox="0 0 403.97 297.190125" xmlns="http://www.w3.org/2000/svg" version="1.1">
 <metadata>
  <rdf:RDF xmlns:dc="http://purl.org/dc/elements/1.1/" xmlns:cc="http://creativecommons.org/ns#" xmlns:rdf="http://www.w3.org/1999/02/22-rdf-syntax-ns#">
   <cc:Work>
    <dc:type rdf:resource="http://purl.org/dc/dcmitype/StillImage"/>
    <dc:date>2024-09-03T21:46:51.785506</dc:date>
    <dc:format>image/svg+xml</dc:format>
    <dc:creator>
     <cc:Agent>
      <dc:title>Matplotlib v3.9.2, https://matplotlib.org/</dc:title>
     </cc:Agent>
    </dc:creator>
   </cc:Work>
  </rdf:RDF>
 </metadata>
 <defs>
  <style type="text/css">*{stroke-linejoin: round; stroke-linecap: butt}</style>
 </defs>
 <g id="figure_1">
  <g id="patch_1">
   <path d="M 0 297.190125 
L 403.97 297.190125 
L 403.97 0 
L 0 0 
z
" style="fill: #ffffff"/>
  </g>
  <g id="axes_1">
   <g id="patch_2">
    <path d="M 39.65 273.312 
L 396.77 273.312 
L 396.77 7.2 
L 39.65 7.2 
z
" style="fill: #ffffff"/>
   </g>
   <g id="matplotlib.axis_1">
    <g id="xtick_1">
     <g id="line2d_1">
      <defs>
       <path id="ma6ce181028" d="M 0 0 
L 0 3.5 
" style="stroke: #000000; stroke-width: 0.8"/>
      </defs>
      <g>
       <use xlink:href="#ma6ce181028" x="55.882727" y="273.312" style="stroke: #000000; stroke-width: 0.8"/>
      </g>
     </g>
     <g id="text_1">
      <!-- 0.0 -->
      <g transform="translate(47.931165 287.910437) scale(0.1 -0.1)">
       <defs>
        <path id="DejaVuSans-30" d="M 2034 4250 
Q 1547 4250 1301 3770 
Q 1056 3291 1056 2328 
Q 1056 1369 1301 889 
Q 1547 409 2034 409 
Q 2525 409 2770 889 
Q 3016 1369 3016 2328 
Q 3016 3291 2770 3770 
Q 2525 4250 2034 4250 
z
M 2034 4750 
Q 2819 4750 3233 4129 
Q 3647 3509 3647 2328 
Q 3647 1150 3233 529 
Q 2819 -91 2034 -91 
Q 1250 -91 836 529 
Q 422 1150 422 2328 
Q 422 3509 836 4129 
Q 1250 4750 2034 4750 
z
" transform="scale(0.015625)"/>
        <path id="DejaVuSans-2e" d="M 684 794 
L 1344 794 
L 1344 0 
L 684 0 
L 684 794 
z
" transform="scale(0.015625)"/>
       </defs>
       <use xlink:href="#DejaVuSans-30"/>
       <use xlink:href="#DejaVuSans-2e" x="63.623047"/>
       <use xlink:href="#DejaVuSans-30" x="95.410156"/>
      </g>
     </g>
    </g>
    <g id="xtick_2">
     <g id="line2d_2">
      <g>
       <use xlink:href="#ma6ce181028" x="96.668474" y="273.312" style="stroke: #000000; stroke-width: 0.8"/>
      </g>
     </g>
     <g id="text_2">
      <!-- 2.5 -->
      <g transform="translate(88.716912 287.910437) scale(0.1 -0.1)">
       <defs>
        <path id="DejaVuSans-32" d="M 1228 531 
L 3431 531 
L 3431 0 
L 469 0 
L 469 531 
Q 828 903 1448 1529 
Q 2069 2156 2228 2338 
Q 2531 2678 2651 2914 
Q 2772 3150 2772 3378 
Q 2772 3750 2511 3984 
Q 2250 4219 1831 4219 
Q 1534 4219 1204 4116 
Q 875 4013 500 3803 
L 500 4441 
Q 881 4594 1212 4672 
Q 1544 4750 1819 4750 
Q 2544 4750 2975 4387 
Q 3406 4025 3406 3419 
Q 3406 3131 3298 2873 
Q 3191 2616 2906 2266 
Q 2828 2175 2409 1742 
Q 1991 1309 1228 531 
z
" transform="scale(0.015625)"/>
        <path id="DejaVuSans-35" d="M 691 4666 
L 3169 4666 
L 3169 4134 
L 1269 4134 
L 1269 2991 
Q 1406 3038 1543 3061 
Q 1681 3084 1819 3084 
Q 2600 3084 3056 2656 
Q 3513 2228 3513 1497 
Q 3513 744 3044 326 
Q 2575 -91 1722 -91 
Q 1428 -91 1123 -41 
Q 819 9 494 109 
L 494 744 
Q 775 591 1075 516 
Q 1375 441 1709 441 
Q 2250 441 2565 725 
Q 2881 1009 2881 1497 
Q 2881 1984 2565 2268 
Q 2250 2553 1709 2553 
Q 1456 2553 1204 2497 
Q 953 2441 691 2322 
L 691 4666 
z
" transform="scale(0.015625)"/>
       </defs>
       <use xlink:href="#DejaVuSans-32"/>
       <use xlink:href="#DejaVuSans-2e" x="63.623047"/>
       <use xlink:href="#DejaVuSans-35" x="95.410156"/>
      </g>
     </g>
    </g>
    <g id="xtick_3">
     <g id="line2d_3">
      <g>
       <use xlink:href="#ma6ce181028" x="137.454221" y="273.312" style="stroke: #000000; stroke-width: 0.8"/>
      </g>
     </g>
     <g id="text_3">
      <!-- 5.0 -->
      <g transform="translate(129.502659 287.910437) scale(0.1 -0.1)">
       <use xlink:href="#DejaVuSans-35"/>
       <use xlink:href="#DejaVuSans-2e" x="63.623047"/>
       <use xlink:href="#DejaVuSans-30" x="95.410156"/>
      </g>
     </g>
    </g>
    <g id="xtick_4">
     <g id="line2d_4">
      <g>
       <use xlink:href="#ma6ce181028" x="178.239968" y="273.312" style="stroke: #000000; stroke-width: 0.8"/>
      </g>
     </g>
     <g id="text_4">
      <!-- 7.5 -->
      <g transform="translate(170.288406 287.910437) scale(0.1 -0.1)">
       <defs>
        <path id="DejaVuSans-37" d="M 525 4666 
L 3525 4666 
L 3525 4397 
L 1831 0 
L 1172 0 
L 2766 4134 
L 525 4134 
L 525 4666 
z
" transform="scale(0.015625)"/>
       </defs>
       <use xlink:href="#DejaVuSans-37"/>
       <use xlink:href="#DejaVuSans-2e" x="63.623047"/>
       <use xlink:href="#DejaVuSans-35" x="95.410156"/>
      </g>
     </g>
    </g>
    <g id="xtick_5">
     <g id="line2d_5">
      <g>
       <use xlink:href="#ma6ce181028" x="219.025715" y="273.312" style="stroke: #000000; stroke-width: 0.8"/>
      </g>
     </g>
     <g id="text_5">
      <!-- 10.0 -->
      <g transform="translate(207.892902 287.910437) scale(0.1 -0.1)">
       <defs>
        <path id="DejaVuSans-31" d="M 794 531 
L 1825 531 
L 1825 4091 
L 703 3866 
L 703 4441 
L 1819 4666 
L 2450 4666 
L 2450 531 
L 3481 531 
L 3481 0 
L 794 0 
L 794 531 
z
" transform="scale(0.015625)"/>
       </defs>
       <use xlink:href="#DejaVuSans-31"/>
       <use xlink:href="#DejaVuSans-30" x="63.623047"/>
       <use xlink:href="#DejaVuSans-2e" x="127.246094"/>
       <use xlink:href="#DejaVuSans-30" x="159.033203"/>
      </g>
     </g>
    </g>
    <g id="xtick_6">
     <g id="line2d_6">
      <g>
       <use xlink:href="#ma6ce181028" x="259.811462" y="273.312" style="stroke: #000000; stroke-width: 0.8"/>
      </g>
     </g>
     <g id="text_6">
      <!-- 12.5 -->
      <g transform="translate(248.678649 287.910437) scale(0.1 -0.1)">
       <use xlink:href="#DejaVuSans-31"/>
       <use xlink:href="#DejaVuSans-32" x="63.623047"/>
       <use xlink:href="#DejaVuSans-2e" x="127.246094"/>
       <use xlink:href="#DejaVuSans-35" x="159.033203"/>
      </g>
     </g>
    </g>
    <g id="xtick_7">
     <g id="line2d_7">
      <g>
       <use xlink:href="#ma6ce181028" x="300.597209" y="273.312" style="stroke: #000000; stroke-width: 0.8"/>
      </g>
     </g>
     <g id="text_7">
      <!-- 15.0 -->
      <g transform="translate(289.464396 287.910437) scale(0.1 -0.1)">
       <use xlink:href="#DejaVuSans-31"/>
       <use xlink:href="#DejaVuSans-35" x="63.623047"/>
       <use xlink:href="#DejaVuSans-2e" x="127.246094"/>
       <use xlink:href="#DejaVuSans-30" x="159.033203"/>
      </g>
     </g>
    </g>
    <g id="xtick_8">
     <g id="line2d_8">
      <g>
       <use xlink:href="#ma6ce181028" x="341.382956" y="273.312" style="stroke: #000000; stroke-width: 0.8"/>
      </g>
     </g>
     <g id="text_8">
      <!-- 17.5 -->
      <g transform="translate(330.250143 287.910437) scale(0.1 -0.1)">
       <use xlink:href="#DejaVuSans-31"/>
       <use xlink:href="#DejaVuSans-37" x="63.623047"/>
       <use xlink:href="#DejaVuSans-2e" x="127.246094"/>
       <use xlink:href="#DejaVuSans-35" x="159.033203"/>
      </g>
     </g>
    </g>
    <g id="xtick_9">
     <g id="line2d_9">
      <g>
       <use xlink:href="#ma6ce181028" x="382.168703" y="273.312" style="stroke: #000000; stroke-width: 0.8"/>
      </g>
     </g>
     <g id="text_9">
      <!-- 20.0 -->
      <g transform="translate(371.03589 287.910437) scale(0.1 -0.1)">
       <use xlink:href="#DejaVuSans-32"/>
       <use xlink:href="#DejaVuSans-30" x="63.623047"/>
       <use xlink:href="#DejaVuSans-2e" x="127.246094"/>
       <use xlink:href="#DejaVuSans-30" x="159.033203"/>
      </g>
     </g>
    </g>
   </g>
   <g id="matplotlib.axis_2">
    <g id="ytick_1">
     <g id="line2d_10">
      <defs>
       <path id="mfef3887bad" d="M 0 0 
L -3.5 0 
" style="stroke: #000000; stroke-width: 0.8"/>
      </defs>
      <g>
       <use xlink:href="#mfef3887bad" x="39.65" y="261.216" style="stroke: #000000; stroke-width: 0.8"/>
      </g>
     </g>
     <g id="text_10">
      <!-- 0 -->
      <g transform="translate(26.2875 265.015219) scale(0.1 -0.1)">
       <use xlink:href="#DejaVuSans-30"/>
      </g>
     </g>
    </g>
    <g id="ytick_2">
     <g id="line2d_11">
      <g>
       <use xlink:href="#mfef3887bad" x="39.65" y="221.917754" style="stroke: #000000; stroke-width: 0.8"/>
      </g>
     </g>
     <g id="text_11">
      <!-- 500 -->
      <g transform="translate(13.5625 225.716973) scale(0.1 -0.1)">
       <use xlink:href="#DejaVuSans-35"/>
       <use xlink:href="#DejaVuSans-30" x="63.623047"/>
       <use xlink:href="#DejaVuSans-30" x="127.246094"/>
      </g>
     </g>
    </g>
    <g id="ytick_3">
     <g id="line2d_12">
      <g>
       <use xlink:href="#mfef3887bad" x="39.65" y="182.619509" style="stroke: #000000; stroke-width: 0.8"/>
      </g>
     </g>
     <g id="text_12">
      <!-- 1000 -->
      <g transform="translate(7.2 186.418728) scale(0.1 -0.1)">
       <use xlink:href="#DejaVuSans-31"/>
       <use xlink:href="#DejaVuSans-30" x="63.623047"/>
       <use xlink:href="#DejaVuSans-30" x="127.246094"/>
       <use xlink:href="#DejaVuSans-30" x="190.869141"/>
      </g>
     </g>
    </g>
    <g id="ytick_4">
     <g id="line2d_13">
      <g>
       <use xlink:href="#mfef3887bad" x="39.65" y="143.321263" style="stroke: #000000; stroke-width: 0.8"/>
      </g>
     </g>
     <g id="text_13">
      <!-- 1500 -->
      <g transform="translate(7.2 147.120482) scale(0.1 -0.1)">
       <use xlink:href="#DejaVuSans-31"/>
       <use xlink:href="#DejaVuSans-35" x="63.623047"/>
       <use xlink:href="#DejaVuSans-30" x="127.246094"/>
       <use xlink:href="#DejaVuSans-30" x="190.869141"/>
      </g>
     </g>
    </g>
    <g id="ytick_5">
     <g id="line2d_14">
      <g>
       <use xlink:href="#mfef3887bad" x="39.65" y="104.023018" style="stroke: #000000; stroke-width: 0.8"/>
      </g>
     </g>
     <g id="text_14">
      <!-- 2000 -->
      <g transform="translate(7.2 107.822236) scale(0.1 -0.1)">
       <use xlink:href="#DejaVuSans-32"/>
       <use xlink:href="#DejaVuSans-30" x="63.623047"/>
       <use xlink:href="#DejaVuSans-30" x="127.246094"/>
       <use xlink:href="#DejaVuSans-30" x="190.869141"/>
      </g>
     </g>
    </g>
    <g id="ytick_6">
     <g id="line2d_15">
      <g>
       <use xlink:href="#mfef3887bad" x="39.65" y="64.724772" style="stroke: #000000; stroke-width: 0.8"/>
      </g>
     </g>
     <g id="text_15">
      <!-- 2500 -->
      <g transform="translate(7.2 68.523991) scale(0.1 -0.1)">
       <use xlink:href="#DejaVuSans-32"/>
       <use xlink:href="#DejaVuSans-35" x="63.623047"/>
       <use xlink:href="#DejaVuSans-30" x="127.246094"/>
       <use xlink:href="#DejaVuSans-30" x="190.869141"/>
      </g>
     </g>
    </g>
    <g id="ytick_7">
     <g id="line2d_16">
      <g>
       <use xlink:href="#mfef3887bad" x="39.65" y="25.426526" style="stroke: #000000; stroke-width: 0.8"/>
      </g>
     </g>
     <g id="text_16">
      <!-- 3000 -->
      <g transform="translate(7.2 29.225745) scale(0.1 -0.1)">
       <defs>
        <path id="DejaVuSans-33" d="M 2597 2516 
Q 3050 2419 3304 2112 
Q 3559 1806 3559 1356 
Q 3559 666 3084 287 
Q 2609 -91 1734 -91 
Q 1441 -91 1130 -33 
Q 819 25 488 141 
L 488 750 
Q 750 597 1062 519 
Q 1375 441 1716 441 
Q 2309 441 2620 675 
Q 2931 909 2931 1356 
Q 2931 1769 2642 2001 
Q 2353 2234 1838 2234 
L 1294 2234 
L 1294 2753 
L 1863 2753 
Q 2328 2753 2575 2939 
Q 2822 3125 2822 3475 
Q 2822 3834 2567 4026 
Q 2313 4219 1838 4219 
Q 1578 4219 1281 4162 
Q 984 4106 628 3988 
L 628 4550 
Q 988 4650 1302 4700 
Q 1616 4750 1894 4750 
Q 2613 4750 3031 4423 
Q 3450 4097 3450 3541 
Q 3450 3153 3228 2886 
Q 3006 2619 2597 2516 
z
" transform="scale(0.015625)"/>
       </defs>
       <use xlink:href="#DejaVuSans-33"/>
       <use xlink:href="#DejaVuSans-30" x="63.623047"/>
       <use xlink:href="#DejaVuSans-30" x="127.246094"/>
       <use xlink:href="#DejaVuSans-30" x="190.869141"/>
      </g>
     </g>
    </g>
   </g>
   <g id="line2d_17">
    <path d="M 55.882727 261.216 
L 59.961302 241.566877 
L 64.039877 223.81193 
L 68.118451 207.768559 
L 72.197026 193.27177 
L 76.275601 180.172471 
L 80.354175 168.335944 
L 84.43275 157.640459 
L 88.511325 147.976018 
L 92.589899 139.24323 
L 96.668474 131.352282 
L 100.747049 124.222021 
L 104.825624 117.779118 
L 108.904198 111.957311 
L 112.982773 106.696726 
L 117.061348 101.943261 
L 121.139922 97.64803 
L 125.218497 93.76686 
L 129.297072 90.259834 
L 133.375646 87.090886 
L 137.454221 84.227424 
L 141.532796 81.64 
L 145.61137 79.302003 
L 149.689945 77.18939 
L 153.76852 75.280432 
L 157.847095 73.555498 
L 161.925669 71.996848 
L 166.004244 70.588451 
L 170.082819 69.315824 
L 174.161393 68.165878 
L 178.239968 67.126787 
L 182.318543 66.187864 
L 186.397117 65.339454 
L 190.475692 64.57283 
L 194.554267 63.880109 
L 198.632841 63.254166 
L 202.711416 62.688564 
L 206.789991 62.177486 
L 210.868566 61.715676 
L 214.94714 61.298384 
L 219.025715 60.92132 
L 223.10429 60.580604 
L 227.182864 60.272733 
L 231.261439 59.994542 
L 235.340014 59.743167 
L 239.418588 59.516026 
L 243.497163 59.31078 
L 247.575738 59.125321 
L 251.654312 58.957739 
L 255.732887 58.806313 
L 259.811462 58.669484 
L 263.890037 58.545845 
L 267.968611 58.434125 
L 272.047186 58.333175 
L 276.125761 58.241957 
L 280.204335 58.159532 
L 284.28291 58.085052 
L 288.361485 58.017753 
L 292.440059 57.956941 
L 296.518634 57.901992 
L 300.597209 57.852339 
L 304.675783 57.807473 
L 308.754358 57.766933 
L 312.832933 57.7303 
L 316.911508 57.697199 
L 320.990082 57.667288 
L 325.068657 57.640261 
L 329.147232 57.61584 
L 333.225806 57.593772 
L 337.304381 57.573832 
L 341.382956 57.555814 
L 345.46153 57.539533 
L 349.540105 57.524822 
L 353.61868 57.511529 
L 357.697254 57.499517 
L 361.775829 57.488663 
L 365.854404 57.478856 
L 369.932979 57.469994 
L 374.011553 57.461986 
L 378.090128 57.45475 
" clip-path="url(#p7257bf56a5)" style="fill: none; stroke: #1f77b4; stroke-width: 1.5; stroke-linecap: square"/>
   </g>
   <g id="line2d_18">
    <path d="M 55.882727 261.216 
L 59.961302 261.216 
L 64.039877 259.321825 
L 68.118451 256.171053 
L 72.197026 252.230516 
L 76.275601 247.839006 
L 80.354175 243.239563 
L 84.43275 238.603866 
L 88.511325 234.050618 
L 92.589899 229.659409 
L 96.668474 225.481127 
L 100.747049 221.545781 
L 104.825624 217.868348 
L 108.904198 214.453139 
L 112.982773 211.29704 
L 117.061348 208.391916 
L 121.139922 205.726369 
L 125.218497 203.287026 
L 129.297072 201.059469 
L 133.375646 199.028893 
L 137.454221 197.180575 
L 141.532796 195.500185 
L 145.61137 193.973998 
L 149.689945 192.589017 
L 153.76852 191.333053 
L 157.847095 190.194748 
L 161.925669 189.163581 
L 166.004244 188.229846 
L 170.082819 187.384624 
L 174.161393 186.619744 
L 178.239968 185.927733 
L 182.318543 185.301774 
L 186.397117 184.735659 
L 190.475692 184.223738 
L 194.554267 183.760878 
L 198.632841 183.342418 
L 202.711416 182.964132 
L 206.789991 182.622186 
L 210.868566 182.313107 
L 214.94714 182.033751 
L 219.025715 181.781269 
L 223.10429 181.553084 
L 227.182864 181.346864 
L 231.261439 181.1605 
L 235.340014 180.992082 
L 239.418588 180.839886 
L 243.497163 180.702351 
L 247.575738 180.578067 
L 251.654312 180.465757 
L 255.732887 180.364269 
L 259.811462 180.272561 
L 263.890037 180.189691 
L 267.968611 180.114807 
L 272.047186 180.047141 
L 276.125761 179.985997 
L 280.204335 179.930746 
L 284.28291 179.88082 
L 288.361485 179.835707 
L 292.440059 179.794942 
L 296.518634 179.758107 
L 300.597209 179.724823 
L 304.675783 179.694747 
L 308.754358 179.66757 
L 312.832933 179.643013 
L 316.911508 179.620823 
L 320.990082 179.600772 
L 325.068657 179.582654 
L 329.147232 179.566282 
L 333.225806 179.551489 
L 337.304381 179.538122 
L 341.382956 179.526043 
L 345.46153 179.515129 
L 349.540105 179.505267 
L 353.61868 179.496355 
L 357.697254 179.488303 
L 361.775829 179.481027 
L 365.854404 179.474452 
L 369.932979 179.468511 
L 374.011553 179.463143 
L 378.090128 179.458292 
" clip-path="url(#p7257bf56a5)" style="fill: none; stroke: #ff7f0e; stroke-width: 1.5; stroke-linecap: square"/>
   </g>
   <g id="line2d_19">
    <path d="M 55.882727 261.216 
L 59.145587 245.575298 
L 60.777017 239.759158 
L 62.408447 232.135298 
L 64.039877 225.454596 
L 68.934166 206.984421 
L 72.197026 193.937404 
L 73.828456 188.907228 
L 77.091316 177.66793 
L 78.722746 173.580912 
L 80.354175 167.214596 
L 81.985605 163.599158 
L 83.617035 159.119158 
L 86.879895 151.888281 
L 88.511325 149.216 
L 90.142755 145.914947 
L 91.774185 141.356351 
L 93.405614 137.740912 
L 95.037044 135.461614 
L 96.668474 132.081965 
L 98.299904 127.601965 
L 99.931334 123.90793 
L 101.562764 121.471439 
L 104.825624 114.161965 
L 106.457053 113.061614 
L 109.719913 107.166877 
L 111.351343 104.101614 
L 112.982773 102.372491 
L 114.614203 101.350737 
L 116.245633 100.014596 
L 117.877063 97.656702 
L 119.508492 94.827228 
L 121.139922 92.469333 
L 122.771352 92.390737 
L 124.402782 91.290386 
L 126.034212 89.168281 
L 127.665642 86.496 
L 129.297072 82.566175 
L 130.928502 81.465825 
L 132.559931 79.10793 
L 134.191361 76.278456 
L 135.822791 73.684772 
L 137.454221 72.663018 
L 139.085651 71.798456 
L 140.717081 69.990737 
L 143.979941 67.082667 
L 145.61137 67.397053 
L 147.2428 67.868632 
L 148.87423 67.790035 
L 152.13709 65.274947 
L 153.76852 65.196351 
L 155.39995 63.545825 
L 157.03138 63.545825 
L 158.66281 60.716351 
L 160.294239 60.873544 
L 161.925669 62.131088 
L 165.188529 58.27986 
L 166.819959 58.437053 
L 168.451389 57.022316 
L 170.082819 55.843368 
L 171.714249 55.371789 
L 173.345678 55.686175 
L 174.977108 51.913544 
L 178.239968 50.184421 
L 179.871398 48.140912 
L 181.502828 46.726175 
L 183.134258 46.490386 
L 186.397117 47.74793 
L 188.028547 47.040561 
L 189.659977 45.232842 
L 191.291407 44.60407 
L 192.922837 41.696 
L 194.554267 42.717754 
L 196.185697 39.809684 
L 197.817127 38.630737 
L 199.448556 36.430035 
L 201.079986 33.286175 
L 202.711416 33.364772 
L 204.342846 33.600561 
L 205.974276 31.085474 
L 207.605706 31.085474 
L 209.237136 29.59214 
L 210.868566 29.670737 
L 212.499995 29.120561 
L 214.131425 28.884772 
L 215.762855 27.312842 
L 217.394285 26.762667 
L 219.025715 27.234246 
L 220.657145 27.077053 
L 222.288575 26.762667 
L 223.920005 27.155649 
L 225.551434 26.998456 
L 227.182864 25.819509 
L 228.814294 26.605474 
L 230.445724 25.819509 
L 232.077154 26.291088 
L 233.708584 26.998456 
L 235.340014 28.491789 
L 236.971444 28.256 
L 238.602873 26.91986 
L 240.234303 27.391439 
L 241.865733 26.91986 
L 243.497163 26.91986 
L 245.128593 27.470035 
L 246.760023 27.312842 
L 248.391453 27.863018 
L 250.022883 27.391439 
L 251.654312 28.334596 
L 253.285742 27.863018 
L 254.917172 30.535298 
L 256.548602 29.199158 
L 258.180032 28.098807 
L 259.811462 26.762667 
L 261.442892 26.68407 
L 263.074322 26.91986 
L 264.705751 26.91986 
L 266.337181 29.985123 
L 267.968611 28.491789 
L 269.600041 29.277754 
L 271.231471 26.998456 
L 272.862901 26.762667 
L 274.494331 26.68407 
L 276.125761 27.705825 
L 277.75719 26.841263 
L 279.38862 27.705825 
L 281.02005 27.470035 
L 282.65148 28.727579 
L 284.28291 27.784421 
L 285.91434 26.68407 
L 287.54577 27.627228 
L 289.1772 28.727579 
L 290.80863 28.727579 
L 292.440059 29.199158 
L 294.071489 30.220912 
L 295.702919 28.727579 
L 298.965779 28.884772 
L 300.597209 25.662316 
L 302.228639 25.740912 
L 303.860069 26.055298 
L 305.491498 23.776 
L 307.122928 25.190737 
L 308.754358 23.147228 
L 310.385788 23.697404 
L 312.017218 22.125474 
L 313.648648 22.43986 
L 315.280078 21.811088 
L 316.911508 19.846175 
L 318.542937 21.260912 
L 320.174367 19.610386 
L 321.805797 19.296 
L 323.437227 21.968281 
L 325.068657 22.20407 
L 326.700087 23.697404 
L 328.331517 24.876351 
L 329.962947 25.11214 
L 331.594376 24.719158 
L 333.225806 25.740912 
L 334.857236 25.269333 
L 336.488666 25.426526 
L 338.120096 24.797754 
L 339.751526 23.225825 
L 341.382956 21.968281 
L 343.014386 22.361263 
L 344.645815 21.653895 
L 346.277245 22.832842 
L 347.908675 23.776 
L 349.540105 23.933193 
L 351.171535 23.068632 
L 352.802965 23.697404 
L 354.434395 23.697404 
L 356.065825 24.247579 
L 357.697254 23.225825 
L 359.328684 24.090386 
L 360.960114 23.776 
L 362.591544 24.168982 
L 364.222974 23.618807 
L 365.854404 23.304421 
L 367.485834 23.854596 
L 370.748693 24.090386 
L 372.380123 24.876351 
L 374.011553 23.933193 
L 375.642983 25.033544 
L 377.274413 28.098807 
L 378.905843 27.705825 
L 380.537273 27.470035 
L 380.537273 27.470035 
" clip-path="url(#p7257bf56a5)" style="fill: none; stroke: #2ca02c; stroke-width: 1.5; stroke-linecap: square"/>
   </g>
   <g id="line2d_20">
    <path d="M 55.882727 261.216 
L 57.514157 261.216 
L 59.145587 261.058807 
L 60.777017 260.351439 
L 62.408447 259.801263 
L 64.039877 258.386526 
L 65.671307 257.679158 
L 67.302736 255.871439 
L 68.934166 254.613895 
L 70.565596 253.749333 
L 73.828456 249.976702 
L 78.722746 245.418105 
L 80.354175 244.160561 
L 83.617035 241.095298 
L 85.248465 239.287579 
L 86.879895 236.536702 
L 88.511325 233.078456 
L 90.142755 231.270737 
L 91.774185 230.484772 
L 93.405614 227.733895 
L 95.037044 225.454596 
L 96.668474 222.939509 
L 99.931334 219.009684 
L 103.194194 215.07986 
L 104.825624 214.058105 
L 108.088483 209.263719 
L 112.982773 205.176702 
L 116.245633 199.989333 
L 117.877063 199.203368 
L 119.508492 197.945825 
L 121.139922 197.631439 
L 122.771352 196.373895 
L 124.402782 195.273544 
L 127.665642 191.893895 
L 129.297072 191.10793 
L 130.928502 189.300211 
L 132.559931 187.806877 
L 134.191361 187.492491 
L 135.822791 186.077754 
L 137.454221 185.056 
L 139.085651 183.012491 
L 140.717081 181.519158 
L 142.348511 180.811789 
L 143.979941 179.397053 
L 145.61137 176.881965 
L 150.50566 172.087579 
L 152.13709 170.672842 
L 153.76852 170.358456 
L 155.39995 170.751439 
L 158.66281 170.04407 
L 160.294239 169.258105 
L 161.925669 166.743018 
L 163.557099 166.428632 
L 165.188529 165.957053 
L 168.451389 165.249684 
L 170.082819 164.620912 
L 171.714249 164.699509 
L 173.345678 163.441965 
L 174.977108 165.092491 
L 176.608538 165.56407 
L 178.239968 163.99214 
L 179.871398 165.406877 
L 181.502828 165.878456 
L 183.134258 163.913544 
L 184.765688 160.848281 
L 186.397117 161.948632 
L 188.028547 161.712842 
L 189.659977 162.105825 
L 191.291407 161.791439 
L 192.922837 163.441965 
L 194.554267 161.08407 
L 196.185697 160.298105 
L 197.817127 161.08407 
L 199.448556 161.712842 
L 201.079986 162.970386 
L 202.711416 163.206175 
L 204.342846 162.498807 
L 205.974276 163.99214 
L 207.605706 163.206175 
L 209.237136 163.520561 
L 210.868566 162.577404 
L 212.499995 161.08407 
L 215.762855 158.961965 
L 217.394285 156.83986 
L 222.288575 151.966877 
L 223.920005 151.338105 
L 225.551434 152.752842 
L 227.182864 154.717754 
L 228.814294 152.831439 
L 230.445724 152.674246 
L 232.077154 153.617404 
L 233.708584 153.303018 
L 235.340014 151.966877 
L 236.971444 153.067228 
L 238.602873 153.774596 
L 240.234303 153.381614 
L 241.865733 153.460211 
L 243.497163 152.910035 
L 245.128593 152.517053 
L 246.760023 150.316351 
L 248.391453 148.351439 
L 250.022883 148.901614 
L 251.654312 147.565474 
L 253.285742 147.64407 
L 254.917172 146.779509 
L 258.180032 148.508632 
L 259.811462 148.194246 
L 261.442892 147.565474 
L 263.074322 147.565474 
L 264.705751 148.508632 
L 266.337181 145.443368 
L 267.968611 147.093895 
L 269.600041 144.893193 
L 271.231471 144.971789 
L 272.862901 144.814596 
L 274.494331 143.635649 
L 276.125761 142.063719 
L 277.75719 141.82793 
L 279.38862 141.356351 
L 281.02005 141.906526 
L 282.65148 141.277754 
L 284.28291 141.434947 
L 285.91434 142.299509 
L 287.54577 142.378105 
L 289.1772 143.871439 
L 290.80863 143.085474 
L 292.440059 141.82793 
L 294.071489 143.478456 
L 295.702919 142.849684 
L 297.334349 143.950035 
L 298.965779 144.185825 
L 300.597209 145.757754 
L 302.228639 144.814596 
L 303.860069 145.443368 
L 305.491498 147.64407 
L 307.122928 145.521965 
L 308.754358 147.172491 
L 310.385788 145.757754 
L 312.017218 145.836351 
L 313.648648 144.814596 
L 315.280078 146.779509 
L 316.911508 148.194246 
L 318.542937 146.386526 
L 320.174367 147.87986 
L 321.805797 147.251088 
L 323.437227 144.421614 
L 325.068657 144.736 
L 326.700087 145.286175 
L 328.331517 144.578807 
L 329.962947 143.16407 
L 331.594376 143.006877 
L 333.225806 142.692491 
L 334.857236 143.557053 
L 336.488666 145.286175 
L 338.120096 146.543719 
L 339.751526 146.779509 
L 341.382956 147.408281 
L 343.014386 145.757754 
L 344.645815 145.914947 
L 346.277245 143.557053 
L 347.908675 141.906526 
L 349.540105 142.692491 
L 351.171535 143.085474 
L 352.802965 144.028632 
L 354.434395 142.692491 
L 356.065825 142.142316 
L 357.697254 142.063719 
L 359.328684 143.557053 
L 360.960114 142.692491 
L 362.591544 142.063719 
L 364.222974 141.985123 
L 365.854404 142.613895 
L 367.485834 141.356351 
L 369.117264 144.028632 
L 370.748693 142.928281 
L 372.380123 144.421614 
L 374.011553 145.207579 
L 375.642983 145.207579 
L 378.905843 141.749333 
L 380.537273 141.985123 
L 380.537273 141.985123 
" clip-path="url(#p7257bf56a5)" style="fill: none; stroke: #d62728; stroke-width: 1.5; stroke-linecap: square"/>
   </g>
   <g id="patch_3">
    <path d="M 39.65 273.312 
L 39.65 7.2 
" style="fill: none; stroke: #000000; stroke-width: 0.8; stroke-linejoin: miter; stroke-linecap: square"/>
   </g>
   <g id="patch_4">
    <path d="M 396.77 273.312 
L 396.77 7.2 
" style="fill: none; stroke: #000000; stroke-width: 0.8; stroke-linejoin: miter; stroke-linecap: square"/>
   </g>
   <g id="patch_5">
    <path d="M 39.65 273.312 
L 396.77 273.312 
" style="fill: none; stroke: #000000; stroke-width: 0.8; stroke-linejoin: miter; stroke-linecap: square"/>
   </g>
   <g id="patch_6">
    <path d="M 39.65 7.2 
L 396.77 7.2 
" style="fill: none; stroke: #000000; stroke-width: 0.8; stroke-linejoin: miter; stroke-linecap: square"/>
   </g>
  </g>
 </g>
 <defs>
  <clipPath id="p7257bf56a5">
   <rect x="39.65" y="7.2" width="357.12" height="266.112"/>
  </clipPath>
 </defs>
</svg>
