<?xml version="1.0" encoding="utf-8" standalone="no"?>
<!DOCTYPE svg PUBLIC "-//W3C//DTD SVG 1.1//EN"
  "http://www.w3.org/Graphics/SVG/1.1/DTD/svg11.dtd">
<svg xmlns:xlink="http://www.w3.org/1999/xlink" width="417.648125pt" height="310.86825pt" viewBox="0 0 417.648125 310.86825" xmlns="http://www.w3.org/2000/svg" version="1.1">
 <metadata>
  <rdf:RDF xmlns:dc="http://purl.org/dc/elements/1.1/" xmlns:cc="http://creativecommons.org/ns#" xmlns:rdf="http://www.w3.org/1999/02/22-rdf-syntax-ns#">
   <cc:Work>
    <dc:type rdf:resource="http://purl.org/dc/dcmitype/StillImage"/>
    <dc:date>2024-06-19T07:35:54.949803</dc:date>
    <dc:format>image/svg+xml</dc:format>
    <dc:creator>
     <cc:Agent>
      <dc:title>Matplotlib v3.9.0, https://matplotlib.org/</dc:title>
     </cc:Agent>
    </dc:creator>
   </cc:Work>
  </rdf:RDF>
 </metadata>
 <defs>
  <style type="text/css">*{stroke-linejoin: round; stroke-linecap: butt}</style>
 </defs>
 <g id="figure_1">
  <g id="patch_1">
   <path d="M 0 310.86825 
L 417.648125 310.86825 
L 417.648125 0 
L 0 0 
z
" style="fill: #ffffff"/>
  </g>
  <g id="axes_1">
   <g id="patch_2">
    <path d="M 53.328125 273.312 
L 410.448125 273.312 
L 410.448125 7.2 
L 53.328125 7.2 
z
" style="fill: #ffffff"/>
   </g>
   <g id="matplotlib.axis_1">
    <g id="xtick_1">
     <g id="line2d_1">
      <defs>
       <path id="m0979daa186" d="M 0 0 
L 0 3.5 
" style="stroke: #000000; stroke-width: 0.8"/>
      </defs>
      <g>
       <use xlink:href="#m0979daa186" x="69.560852" y="273.312" style="stroke: #000000; stroke-width: 0.8"/>
      </g>
     </g>
     <g id="text_1">
      <!-- 0.0 -->
      <g transform="translate(61.60929 287.910437) scale(0.1 -0.1)">
       <defs>
        <path id="DejaVuSans-30" d="M 2034 4250 
Q 1547 4250 1301 3770 
Q 1056 3291 1056 2328 
Q 1056 1369 1301 889 
Q 1547 409 2034 409 
Q 2525 409 2770 889 
Q 3016 1369 3016 2328 
Q 3016 3291 2770 3770 
Q 2525 4250 2034 4250 
z
M 2034 4750 
Q 2819 4750 3233 4129 
Q 3647 3509 3647 2328 
Q 3647 1150 3233 529 
Q 2819 -91 2034 -91 
Q 1250 -91 836 529 
Q 422 1150 422 2328 
Q 422 3509 836 4129 
Q 1250 4750 2034 4750 
z
" transform="scale(0.015625)"/>
        <path id="DejaVuSans-2e" d="M 684 794 
L 1344 794 
L 1344 0 
L 684 0 
L 684 794 
z
" transform="scale(0.015625)"/>
       </defs>
       <use xlink:href="#DejaVuSans-30"/>
       <use xlink:href="#DejaVuSans-2e" x="63.623047"/>
       <use xlink:href="#DejaVuSans-30" x="95.410156"/>
      </g>
     </g>
    </g>
    <g id="xtick_2">
     <g id="line2d_2">
      <g>
       <use xlink:href="#m0979daa186" x="110.346599" y="273.312" style="stroke: #000000; stroke-width: 0.8"/>
      </g>
     </g>
     <g id="text_2">
      <!-- 2.5 -->
      <g transform="translate(102.395037 287.910437) scale(0.1 -0.1)">
       <defs>
        <path id="DejaVuSans-32" d="M 1228 531 
L 3431 531 
L 3431 0 
L 469 0 
L 469 531 
Q 828 903 1448 1529 
Q 2069 2156 2228 2338 
Q 2531 2678 2651 2914 
Q 2772 3150 2772 3378 
Q 2772 3750 2511 3984 
Q 2250 4219 1831 4219 
Q 1534 4219 1204 4116 
Q 875 4013 500 3803 
L 500 4441 
Q 881 4594 1212 4672 
Q 1544 4750 1819 4750 
Q 2544 4750 2975 4387 
Q 3406 4025 3406 3419 
Q 3406 3131 3298 2873 
Q 3191 2616 2906 2266 
Q 2828 2175 2409 1742 
Q 1991 1309 1228 531 
z
" transform="scale(0.015625)"/>
        <path id="DejaVuSans-35" d="M 691 4666 
L 3169 4666 
L 3169 4134 
L 1269 4134 
L 1269 2991 
Q 1406 3038 1543 3061 
Q 1681 3084 1819 3084 
Q 2600 3084 3056 2656 
Q 3513 2228 3513 1497 
Q 3513 744 3044 326 
Q 2575 -91 1722 -91 
Q 1428 -91 1123 -41 
Q 819 9 494 109 
L 494 744 
Q 775 591 1075 516 
Q 1375 441 1709 441 
Q 2250 441 2565 725 
Q 2881 1009 2881 1497 
Q 2881 1984 2565 2268 
Q 2250 2553 1709 2553 
Q 1456 2553 1204 2497 
Q 953 2441 691 2322 
L 691 4666 
z
" transform="scale(0.015625)"/>
       </defs>
       <use xlink:href="#DejaVuSans-32"/>
       <use xlink:href="#DejaVuSans-2e" x="63.623047"/>
       <use xlink:href="#DejaVuSans-35" x="95.410156"/>
      </g>
     </g>
    </g>
    <g id="xtick_3">
     <g id="line2d_3">
      <g>
       <use xlink:href="#m0979daa186" x="151.132346" y="273.312" style="stroke: #000000; stroke-width: 0.8"/>
      </g>
     </g>
     <g id="text_3">
      <!-- 5.0 -->
      <g transform="translate(143.180784 287.910437) scale(0.1 -0.1)">
       <use xlink:href="#DejaVuSans-35"/>
       <use xlink:href="#DejaVuSans-2e" x="63.623047"/>
       <use xlink:href="#DejaVuSans-30" x="95.410156"/>
      </g>
     </g>
    </g>
    <g id="xtick_4">
     <g id="line2d_4">
      <g>
       <use xlink:href="#m0979daa186" x="191.918093" y="273.312" style="stroke: #000000; stroke-width: 0.8"/>
      </g>
     </g>
     <g id="text_4">
      <!-- 7.5 -->
      <g transform="translate(183.966531 287.910437) scale(0.1 -0.1)">
       <defs>
        <path id="DejaVuSans-37" d="M 525 4666 
L 3525 4666 
L 3525 4397 
L 1831 0 
L 1172 0 
L 2766 4134 
L 525 4134 
L 525 4666 
z
" transform="scale(0.015625)"/>
       </defs>
       <use xlink:href="#DejaVuSans-37"/>
       <use xlink:href="#DejaVuSans-2e" x="63.623047"/>
       <use xlink:href="#DejaVuSans-35" x="95.410156"/>
      </g>
     </g>
    </g>
    <g id="xtick_5">
     <g id="line2d_5">
      <g>
       <use xlink:href="#m0979daa186" x="232.70384" y="273.312" style="stroke: #000000; stroke-width: 0.8"/>
      </g>
     </g>
     <g id="text_5">
      <!-- 10.0 -->
      <g transform="translate(221.571027 287.910437) scale(0.1 -0.1)">
       <defs>
        <path id="DejaVuSans-31" d="M 794 531 
L 1825 531 
L 1825 4091 
L 703 3866 
L 703 4441 
L 1819 4666 
L 2450 4666 
L 2450 531 
L 3481 531 
L 3481 0 
L 794 0 
L 794 531 
z
" transform="scale(0.015625)"/>
       </defs>
       <use xlink:href="#DejaVuSans-31"/>
       <use xlink:href="#DejaVuSans-30" x="63.623047"/>
       <use xlink:href="#DejaVuSans-2e" x="127.246094"/>
       <use xlink:href="#DejaVuSans-30" x="159.033203"/>
      </g>
     </g>
    </g>
    <g id="xtick_6">
     <g id="line2d_6">
      <g>
       <use xlink:href="#m0979daa186" x="273.489587" y="273.312" style="stroke: #000000; stroke-width: 0.8"/>
      </g>
     </g>
     <g id="text_6">
      <!-- 12.5 -->
      <g transform="translate(262.356774 287.910437) scale(0.1 -0.1)">
       <use xlink:href="#DejaVuSans-31"/>
       <use xlink:href="#DejaVuSans-32" x="63.623047"/>
       <use xlink:href="#DejaVuSans-2e" x="127.246094"/>
       <use xlink:href="#DejaVuSans-35" x="159.033203"/>
      </g>
     </g>
    </g>
    <g id="xtick_7">
     <g id="line2d_7">
      <g>
       <use xlink:href="#m0979daa186" x="314.275334" y="273.312" style="stroke: #000000; stroke-width: 0.8"/>
      </g>
     </g>
     <g id="text_7">
      <!-- 15.0 -->
      <g transform="translate(303.142521 287.910437) scale(0.1 -0.1)">
       <use xlink:href="#DejaVuSans-31"/>
       <use xlink:href="#DejaVuSans-35" x="63.623047"/>
       <use xlink:href="#DejaVuSans-2e" x="127.246094"/>
       <use xlink:href="#DejaVuSans-30" x="159.033203"/>
      </g>
     </g>
    </g>
    <g id="xtick_8">
     <g id="line2d_8">
      <g>
       <use xlink:href="#m0979daa186" x="355.061081" y="273.312" style="stroke: #000000; stroke-width: 0.8"/>
      </g>
     </g>
     <g id="text_8">
      <!-- 17.5 -->
      <g transform="translate(343.928268 287.910437) scale(0.1 -0.1)">
       <use xlink:href="#DejaVuSans-31"/>
       <use xlink:href="#DejaVuSans-37" x="63.623047"/>
       <use xlink:href="#DejaVuSans-2e" x="127.246094"/>
       <use xlink:href="#DejaVuSans-35" x="159.033203"/>
      </g>
     </g>
    </g>
    <g id="xtick_9">
     <g id="line2d_9">
      <g>
       <use xlink:href="#m0979daa186" x="395.846828" y="273.312" style="stroke: #000000; stroke-width: 0.8"/>
      </g>
     </g>
     <g id="text_9">
      <!-- 20.0 -->
      <g transform="translate(384.714015 287.910437) scale(0.1 -0.1)">
       <use xlink:href="#DejaVuSans-32"/>
       <use xlink:href="#DejaVuSans-30" x="63.623047"/>
       <use xlink:href="#DejaVuSans-2e" x="127.246094"/>
       <use xlink:href="#DejaVuSans-30" x="159.033203"/>
      </g>
     </g>
    </g>
    <g id="text_10">
     <!-- Time -->
     <g transform="translate(219.654531 301.588562) scale(0.1 -0.1)">
      <defs>
       <path id="DejaVuSans-54" d="M -19 4666 
L 3928 4666 
L 3928 4134 
L 2272 4134 
L 2272 0 
L 1638 0 
L 1638 4134 
L -19 4134 
L -19 4666 
z
" transform="scale(0.015625)"/>
       <path id="DejaVuSans-69" d="M 603 3500 
L 1178 3500 
L 1178 0 
L 603 0 
L 603 3500 
z
M 603 4863 
L 1178 4863 
L 1178 4134 
L 603 4134 
L 603 4863 
z
" transform="scale(0.015625)"/>
       <path id="DejaVuSans-6d" d="M 3328 2828 
Q 3544 3216 3844 3400 
Q 4144 3584 4550 3584 
Q 5097 3584 5394 3201 
Q 5691 2819 5691 2113 
L 5691 0 
L 5113 0 
L 5113 2094 
Q 5113 2597 4934 2840 
Q 4756 3084 4391 3084 
Q 3944 3084 3684 2787 
Q 3425 2491 3425 1978 
L 3425 0 
L 2847 0 
L 2847 2094 
Q 2847 2600 2669 2842 
Q 2491 3084 2119 3084 
Q 1678 3084 1418 2786 
Q 1159 2488 1159 1978 
L 1159 0 
L 581 0 
L 581 3500 
L 1159 3500 
L 1159 2956 
Q 1356 3278 1631 3431 
Q 1906 3584 2284 3584 
Q 2666 3584 2933 3390 
Q 3200 3197 3328 2828 
z
" transform="scale(0.015625)"/>
       <path id="DejaVuSans-65" d="M 3597 1894 
L 3597 1613 
L 953 1613 
Q 991 1019 1311 708 
Q 1631 397 2203 397 
Q 2534 397 2845 478 
Q 3156 559 3463 722 
L 3463 178 
Q 3153 47 2828 -22 
Q 2503 -91 2169 -91 
Q 1331 -91 842 396 
Q 353 884 353 1716 
Q 353 2575 817 3079 
Q 1281 3584 2069 3584 
Q 2775 3584 3186 3129 
Q 3597 2675 3597 1894 
z
M 3022 2063 
Q 3016 2534 2758 2815 
Q 2500 3097 2075 3097 
Q 1594 3097 1305 2825 
Q 1016 2553 972 2059 
L 3022 2063 
z
" transform="scale(0.015625)"/>
      </defs>
      <use xlink:href="#DejaVuSans-54"/>
      <use xlink:href="#DejaVuSans-69" x="57.958984"/>
      <use xlink:href="#DejaVuSans-6d" x="85.742188"/>
      <use xlink:href="#DejaVuSans-65" x="183.154297"/>
     </g>
    </g>
   </g>
   <g id="matplotlib.axis_2">
    <g id="ytick_1">
     <g id="line2d_10">
      <defs>
       <path id="m730e546db0" d="M 0 0 
L -3.5 0 
" style="stroke: #000000; stroke-width: 0.8"/>
      </defs>
      <g>
       <use xlink:href="#m730e546db0" x="53.328125" y="261.216" style="stroke: #000000; stroke-width: 0.8"/>
      </g>
     </g>
     <g id="text_11">
      <!-- 0 -->
      <g transform="translate(39.965625 265.015219) scale(0.1 -0.1)">
       <use xlink:href="#DejaVuSans-30"/>
      </g>
     </g>
    </g>
    <g id="ytick_2">
     <g id="line2d_11">
      <g>
       <use xlink:href="#m730e546db0" x="53.328125" y="221.80251" style="stroke: #000000; stroke-width: 0.8"/>
      </g>
     </g>
     <g id="text_12">
      <!-- 500 -->
      <g transform="translate(27.240625 225.601729) scale(0.1 -0.1)">
       <use xlink:href="#DejaVuSans-35"/>
       <use xlink:href="#DejaVuSans-30" x="63.623047"/>
       <use xlink:href="#DejaVuSans-30" x="127.246094"/>
      </g>
     </g>
    </g>
    <g id="ytick_3">
     <g id="line2d_12">
      <g>
       <use xlink:href="#m730e546db0" x="53.328125" y="182.389021" style="stroke: #000000; stroke-width: 0.8"/>
      </g>
     </g>
     <g id="text_13">
      <!-- 1000 -->
      <g transform="translate(20.878125 186.188239) scale(0.1 -0.1)">
       <use xlink:href="#DejaVuSans-31"/>
       <use xlink:href="#DejaVuSans-30" x="63.623047"/>
       <use xlink:href="#DejaVuSans-30" x="127.246094"/>
       <use xlink:href="#DejaVuSans-30" x="190.869141"/>
      </g>
     </g>
    </g>
    <g id="ytick_4">
     <g id="line2d_13">
      <g>
       <use xlink:href="#m730e546db0" x="53.328125" y="142.975531" style="stroke: #000000; stroke-width: 0.8"/>
      </g>
     </g>
     <g id="text_14">
      <!-- 1500 -->
      <g transform="translate(20.878125 146.77475) scale(0.1 -0.1)">
       <use xlink:href="#DejaVuSans-31"/>
       <use xlink:href="#DejaVuSans-35" x="63.623047"/>
       <use xlink:href="#DejaVuSans-30" x="127.246094"/>
       <use xlink:href="#DejaVuSans-30" x="190.869141"/>
      </g>
     </g>
    </g>
    <g id="ytick_5">
     <g id="line2d_14">
      <g>
       <use xlink:href="#m730e546db0" x="53.328125" y="103.562041" style="stroke: #000000; stroke-width: 0.8"/>
      </g>
     </g>
     <g id="text_15">
      <!-- 2000 -->
      <g transform="translate(20.878125 107.36126) scale(0.1 -0.1)">
       <use xlink:href="#DejaVuSans-32"/>
       <use xlink:href="#DejaVuSans-30" x="63.623047"/>
       <use xlink:href="#DejaVuSans-30" x="127.246094"/>
       <use xlink:href="#DejaVuSans-30" x="190.869141"/>
      </g>
     </g>
    </g>
    <g id="ytick_6">
     <g id="line2d_15">
      <g>
       <use xlink:href="#m730e546db0" x="53.328125" y="64.148551" style="stroke: #000000; stroke-width: 0.8"/>
      </g>
     </g>
     <g id="text_16">
      <!-- 2500 -->
      <g transform="translate(20.878125 67.94777) scale(0.1 -0.1)">
       <use xlink:href="#DejaVuSans-32"/>
       <use xlink:href="#DejaVuSans-35" x="63.623047"/>
       <use xlink:href="#DejaVuSans-30" x="127.246094"/>
       <use xlink:href="#DejaVuSans-30" x="190.869141"/>
      </g>
     </g>
    </g>
    <g id="ytick_7">
     <g id="line2d_16">
      <g>
       <use xlink:href="#m730e546db0" x="53.328125" y="24.735062" style="stroke: #000000; stroke-width: 0.8"/>
      </g>
     </g>
     <g id="text_17">
      <!-- 3000 -->
      <g transform="translate(20.878125 28.53428) scale(0.1 -0.1)">
       <defs>
        <path id="DejaVuSans-33" d="M 2597 2516 
Q 3050 2419 3304 2112 
Q 3559 1806 3559 1356 
Q 3559 666 3084 287 
Q 2609 -91 1734 -91 
Q 1441 -91 1130 -33 
Q 819 25 488 141 
L 488 750 
Q 750 597 1062 519 
Q 1375 441 1716 441 
Q 2309 441 2620 675 
Q 2931 909 2931 1356 
Q 2931 1769 2642 2001 
Q 2353 2234 1838 2234 
L 1294 2234 
L 1294 2753 
L 1863 2753 
Q 2328 2753 2575 2939 
Q 2822 3125 2822 3475 
Q 2822 3834 2567 4026 
Q 2313 4219 1838 4219 
Q 1578 4219 1281 4162 
Q 984 4106 628 3988 
L 628 4550 
Q 988 4650 1302 4700 
Q 1616 4750 1894 4750 
Q 2613 4750 3031 4423 
Q 3450 4097 3450 3541 
Q 3450 3153 3228 2886 
Q 3006 2619 2597 2516 
z
" transform="scale(0.015625)"/>
       </defs>
       <use xlink:href="#DejaVuSans-33"/>
       <use xlink:href="#DejaVuSans-30" x="63.623047"/>
       <use xlink:href="#DejaVuSans-30" x="127.246094"/>
       <use xlink:href="#DejaVuSans-30" x="190.869141"/>
      </g>
     </g>
    </g>
    <g id="text_18">
     <!-- Number of entities in each compartment -->
     <g transform="translate(14.798438 242.356781) rotate(-90) scale(0.1 -0.1)">
      <defs>
       <path id="DejaVuSans-4e" d="M 628 4666 
L 1478 4666 
L 3547 763 
L 3547 4666 
L 4159 4666 
L 4159 0 
L 3309 0 
L 1241 3903 
L 1241 0 
L 628 0 
L 628 4666 
z
" transform="scale(0.015625)"/>
       <path id="DejaVuSans-75" d="M 544 1381 
L 544 3500 
L 1119 3500 
L 1119 1403 
Q 1119 906 1312 657 
Q 1506 409 1894 409 
Q 2359 409 2629 706 
Q 2900 1003 2900 1516 
L 2900 3500 
L 3475 3500 
L 3475 0 
L 2900 0 
L 2900 538 
Q 2691 219 2414 64 
Q 2138 -91 1772 -91 
Q 1169 -91 856 284 
Q 544 659 544 1381 
z
M 1991 3584 
L 1991 3584 
z
" transform="scale(0.015625)"/>
       <path id="DejaVuSans-62" d="M 3116 1747 
Q 3116 2381 2855 2742 
Q 2594 3103 2138 3103 
Q 1681 3103 1420 2742 
Q 1159 2381 1159 1747 
Q 1159 1113 1420 752 
Q 1681 391 2138 391 
Q 2594 391 2855 752 
Q 3116 1113 3116 1747 
z
M 1159 2969 
Q 1341 3281 1617 3432 
Q 1894 3584 2278 3584 
Q 2916 3584 3314 3078 
Q 3713 2572 3713 1747 
Q 3713 922 3314 415 
Q 2916 -91 2278 -91 
Q 1894 -91 1617 61 
Q 1341 213 1159 525 
L 1159 0 
L 581 0 
L 581 4863 
L 1159 4863 
L 1159 2969 
z
" transform="scale(0.015625)"/>
       <path id="DejaVuSans-72" d="M 2631 2963 
Q 2534 3019 2420 3045 
Q 2306 3072 2169 3072 
Q 1681 3072 1420 2755 
Q 1159 2438 1159 1844 
L 1159 0 
L 581 0 
L 581 3500 
L 1159 3500 
L 1159 2956 
Q 1341 3275 1631 3429 
Q 1922 3584 2338 3584 
Q 2397 3584 2469 3576 
Q 2541 3569 2628 3553 
L 2631 2963 
z
" transform="scale(0.015625)"/>
       <path id="DejaVuSans-20" transform="scale(0.015625)"/>
       <path id="DejaVuSans-6f" d="M 1959 3097 
Q 1497 3097 1228 2736 
Q 959 2375 959 1747 
Q 959 1119 1226 758 
Q 1494 397 1959 397 
Q 2419 397 2687 759 
Q 2956 1122 2956 1747 
Q 2956 2369 2687 2733 
Q 2419 3097 1959 3097 
z
M 1959 3584 
Q 2709 3584 3137 3096 
Q 3566 2609 3566 1747 
Q 3566 888 3137 398 
Q 2709 -91 1959 -91 
Q 1206 -91 779 398 
Q 353 888 353 1747 
Q 353 2609 779 3096 
Q 1206 3584 1959 3584 
z
" transform="scale(0.015625)"/>
       <path id="DejaVuSans-66" d="M 2375 4863 
L 2375 4384 
L 1825 4384 
Q 1516 4384 1395 4259 
Q 1275 4134 1275 3809 
L 1275 3500 
L 2222 3500 
L 2222 3053 
L 1275 3053 
L 1275 0 
L 697 0 
L 697 3053 
L 147 3053 
L 147 3500 
L 697 3500 
L 697 3744 
Q 697 4328 969 4595 
Q 1241 4863 1831 4863 
L 2375 4863 
z
" transform="scale(0.015625)"/>
       <path id="DejaVuSans-6e" d="M 3513 2113 
L 3513 0 
L 2938 0 
L 2938 2094 
Q 2938 2591 2744 2837 
Q 2550 3084 2163 3084 
Q 1697 3084 1428 2787 
Q 1159 2491 1159 1978 
L 1159 0 
L 581 0 
L 581 3500 
L 1159 3500 
L 1159 2956 
Q 1366 3272 1645 3428 
Q 1925 3584 2291 3584 
Q 2894 3584 3203 3211 
Q 3513 2838 3513 2113 
z
" transform="scale(0.015625)"/>
       <path id="DejaVuSans-74" d="M 1172 4494 
L 1172 3500 
L 2356 3500 
L 2356 3053 
L 1172 3053 
L 1172 1153 
Q 1172 725 1289 603 
Q 1406 481 1766 481 
L 2356 481 
L 2356 0 
L 1766 0 
Q 1100 0 847 248 
Q 594 497 594 1153 
L 594 3053 
L 172 3053 
L 172 3500 
L 594 3500 
L 594 4494 
L 1172 4494 
z
" transform="scale(0.015625)"/>
       <path id="DejaVuSans-73" d="M 2834 3397 
L 2834 2853 
Q 2591 2978 2328 3040 
Q 2066 3103 1784 3103 
Q 1356 3103 1142 2972 
Q 928 2841 928 2578 
Q 928 2378 1081 2264 
Q 1234 2150 1697 2047 
L 1894 2003 
Q 2506 1872 2764 1633 
Q 3022 1394 3022 966 
Q 3022 478 2636 193 
Q 2250 -91 1575 -91 
Q 1294 -91 989 -36 
Q 684 19 347 128 
L 347 722 
Q 666 556 975 473 
Q 1284 391 1588 391 
Q 1994 391 2212 530 
Q 2431 669 2431 922 
Q 2431 1156 2273 1281 
Q 2116 1406 1581 1522 
L 1381 1569 
Q 847 1681 609 1914 
Q 372 2147 372 2553 
Q 372 3047 722 3315 
Q 1072 3584 1716 3584 
Q 2034 3584 2315 3537 
Q 2597 3491 2834 3397 
z
" transform="scale(0.015625)"/>
       <path id="DejaVuSans-61" d="M 2194 1759 
Q 1497 1759 1228 1600 
Q 959 1441 959 1056 
Q 959 750 1161 570 
Q 1363 391 1709 391 
Q 2188 391 2477 730 
Q 2766 1069 2766 1631 
L 2766 1759 
L 2194 1759 
z
M 3341 1997 
L 3341 0 
L 2766 0 
L 2766 531 
Q 2569 213 2275 61 
Q 1981 -91 1556 -91 
Q 1019 -91 701 211 
Q 384 513 384 1019 
Q 384 1609 779 1909 
Q 1175 2209 1959 2209 
L 2766 2209 
L 2766 2266 
Q 2766 2663 2505 2880 
Q 2244 3097 1772 3097 
Q 1472 3097 1187 3025 
Q 903 2953 641 2809 
L 641 3341 
Q 956 3463 1253 3523 
Q 1550 3584 1831 3584 
Q 2591 3584 2966 3190 
Q 3341 2797 3341 1997 
z
" transform="scale(0.015625)"/>
       <path id="DejaVuSans-63" d="M 3122 3366 
L 3122 2828 
Q 2878 2963 2633 3030 
Q 2388 3097 2138 3097 
Q 1578 3097 1268 2742 
Q 959 2388 959 1747 
Q 959 1106 1268 751 
Q 1578 397 2138 397 
Q 2388 397 2633 464 
Q 2878 531 3122 666 
L 3122 134 
Q 2881 22 2623 -34 
Q 2366 -91 2075 -91 
Q 1284 -91 818 406 
Q 353 903 353 1747 
Q 353 2603 823 3093 
Q 1294 3584 2113 3584 
Q 2378 3584 2631 3529 
Q 2884 3475 3122 3366 
z
" transform="scale(0.015625)"/>
       <path id="DejaVuSans-68" d="M 3513 2113 
L 3513 0 
L 2938 0 
L 2938 2094 
Q 2938 2591 2744 2837 
Q 2550 3084 2163 3084 
Q 1697 3084 1428 2787 
Q 1159 2491 1159 1978 
L 1159 0 
L 581 0 
L 581 4863 
L 1159 4863 
L 1159 2956 
Q 1366 3272 1645 3428 
Q 1925 3584 2291 3584 
Q 2894 3584 3203 3211 
Q 3513 2838 3513 2113 
z
" transform="scale(0.015625)"/>
       <path id="DejaVuSans-70" d="M 1159 525 
L 1159 -1331 
L 581 -1331 
L 581 3500 
L 1159 3500 
L 1159 2969 
Q 1341 3281 1617 3432 
Q 1894 3584 2278 3584 
Q 2916 3584 3314 3078 
Q 3713 2572 3713 1747 
Q 3713 922 3314 415 
Q 2916 -91 2278 -91 
Q 1894 -91 1617 61 
Q 1341 213 1159 525 
z
M 3116 1747 
Q 3116 2381 2855 2742 
Q 2594 3103 2138 3103 
Q 1681 3103 1420 2742 
Q 1159 2381 1159 1747 
Q 1159 1113 1420 752 
Q 1681 391 2138 391 
Q 2594 391 2855 752 
Q 3116 1113 3116 1747 
z
" transform="scale(0.015625)"/>
      </defs>
      <use xlink:href="#DejaVuSans-4e"/>
      <use xlink:href="#DejaVuSans-75" x="74.804688"/>
      <use xlink:href="#DejaVuSans-6d" x="138.183594"/>
      <use xlink:href="#DejaVuSans-62" x="235.595703"/>
      <use xlink:href="#DejaVuSans-65" x="299.072266"/>
      <use xlink:href="#DejaVuSans-72" x="360.595703"/>
      <use xlink:href="#DejaVuSans-20" x="401.708984"/>
      <use xlink:href="#DejaVuSans-6f" x="433.496094"/>
      <use xlink:href="#DejaVuSans-66" x="494.677734"/>
      <use xlink:href="#DejaVuSans-20" x="529.882812"/>
      <use xlink:href="#DejaVuSans-65" x="561.669922"/>
      <use xlink:href="#DejaVuSans-6e" x="623.193359"/>
      <use xlink:href="#DejaVuSans-74" x="686.572266"/>
      <use xlink:href="#DejaVuSans-69" x="725.78125"/>
      <use xlink:href="#DejaVuSans-74" x="753.564453"/>
      <use xlink:href="#DejaVuSans-69" x="792.773438"/>
      <use xlink:href="#DejaVuSans-65" x="820.556641"/>
      <use xlink:href="#DejaVuSans-73" x="882.080078"/>
      <use xlink:href="#DejaVuSans-20" x="934.179688"/>
      <use xlink:href="#DejaVuSans-69" x="965.966797"/>
      <use xlink:href="#DejaVuSans-6e" x="993.75"/>
      <use xlink:href="#DejaVuSans-20" x="1057.128906"/>
      <use xlink:href="#DejaVuSans-65" x="1088.916016"/>
      <use xlink:href="#DejaVuSans-61" x="1150.439453"/>
      <use xlink:href="#DejaVuSans-63" x="1211.71875"/>
      <use xlink:href="#DejaVuSans-68" x="1266.699219"/>
      <use xlink:href="#DejaVuSans-20" x="1330.078125"/>
      <use xlink:href="#DejaVuSans-63" x="1361.865234"/>
      <use xlink:href="#DejaVuSans-6f" x="1416.845703"/>
      <use xlink:href="#DejaVuSans-6d" x="1478.027344"/>
      <use xlink:href="#DejaVuSans-70" x="1575.439453"/>
      <use xlink:href="#DejaVuSans-61" x="1638.916016"/>
      <use xlink:href="#DejaVuSans-72" x="1700.195312"/>
      <use xlink:href="#DejaVuSans-74" x="1741.308594"/>
      <use xlink:href="#DejaVuSans-6d" x="1780.517578"/>
      <use xlink:href="#DejaVuSans-65" x="1877.929688"/>
      <use xlink:href="#DejaVuSans-6e" x="1939.453125"/>
      <use xlink:href="#DejaVuSans-74" x="2002.832031"/>
     </g>
    </g>
   </g>
   <g id="line2d_17">
    <path d="M 69.560852 261.216 
L 71.192282 253.412129 
L 72.823712 246.475355 
L 74.455142 238.356176 
L 76.086572 230.94644 
L 82.612291 207.377173 
L 84.243721 202.411073 
L 85.875151 196.341396 
L 87.506581 191.769431 
L 89.138011 186.172716 
L 90.769441 179.630076 
L 92.400871 174.112188 
L 94.0323 169.697877 
L 95.66373 163.86468 
L 97.29516 159.213889 
L 98.92659 153.696 
L 100.55802 149.360516 
L 102.18945 144.000282 
L 103.82088 141.714299 
L 105.45231 138.56122 
L 108.715169 130.678522 
L 110.346599 128.234886 
L 111.978029 124.687672 
L 115.240889 119.800399 
L 116.872319 115.149607 
L 118.503749 113.100106 
L 120.135178 110.10468 
L 121.766608 108.528141 
L 125.029468 101.827848 
L 126.660898 98.674768 
L 128.292328 96.073478 
L 129.923758 94.891073 
L 131.555188 91.343859 
L 133.186617 90.319109 
L 136.449477 86.141279 
L 138.080907 85.274182 
L 139.712337 82.515238 
L 141.343767 81.569314 
L 142.975197 79.283331 
L 146.238056 78.179754 
L 147.869486 76.918522 
L 149.500916 74.790194 
L 151.132346 71.873595 
L 152.763776 70.770018 
L 156.026636 66.907496 
L 157.658066 66.592188 
L 159.289495 66.040399 
L 160.920925 62.966147 
L 162.552355 62.177877 
L 164.183785 59.418933 
L 167.446645 59.813067 
L 169.078075 59.340106 
L 170.709505 58.000047 
L 172.340935 58.078874 
L 173.972364 57.842393 
L 175.603794 56.738815 
L 177.235224 54.925795 
L 178.866654 52.403331 
L 180.498084 51.378581 
L 182.129514 49.171425 
L 183.760944 48.77729 
L 185.392374 46.097173 
L 187.023803 45.624211 
L 188.655233 46.176 
L 190.286663 45.860692 
L 191.918093 43.259402 
L 193.549523 41.919343 
L 195.180953 41.446381 
L 196.812383 41.99817 
L 198.443813 41.604035 
L 200.075242 40.579284 
L 201.706672 38.529783 
L 203.338102 38.766264 
L 204.969532 37.662686 
L 206.600962 37.82034 
L 208.232392 37.426205 
L 209.863822 37.741513 
L 211.495252 37.189724 
L 213.126681 36.795589 
L 214.758111 36.559109 
L 216.389541 36.559109 
L 218.020971 35.613185 
L 219.652401 34.194299 
L 221.283831 32.223625 
L 222.915261 33.248375 
L 224.546691 36.637935 
L 226.17812 37.583859 
L 227.80955 37.268551 
L 229.44098 36.716762 
L 231.07241 34.351953 
L 232.70384 34.903742 
L 234.33527 33.721337 
L 235.9667 34.036645 
L 239.229559 31.750663 
L 242.492419 31.82949 
L 244.123849 30.647085 
L 245.755279 30.095296 
L 247.386709 30.095296 
L 250.649569 28.518757 
L 252.280998 28.43993 
L 253.912428 26.705736 
L 257.175288 27.730487 
L 258.806718 27.65166 
L 260.438148 25.917466 
L 262.069578 25.365677 
L 263.701008 27.021044 
L 265.332437 25.129196 
L 266.963867 26.784563 
L 268.595297 26.232774 
L 270.226727 26.153947 
L 271.858157 26.311601 
L 273.489587 27.494006 
L 275.121017 26.390428 
L 276.752447 25.917466 
L 278.383876 25.680985 
L 280.015306 27.178698 
L 281.646736 25.28685 
L 283.278166 25.208023 
L 284.909596 24.892716 
L 286.541026 24.735062 
L 288.172456 24.340927 
L 289.803886 25.05037 
L 291.435315 25.05037 
L 293.066745 26.548082 
L 294.698175 27.888141 
L 296.329605 27.415179 
L 297.961035 27.730487 
L 299.592465 26.311601 
L 301.223895 25.759812 
L 302.855325 26.469255 
L 304.486755 25.759812 
L 307.749614 24.025619 
L 309.381044 23.867965 
L 311.012474 24.025619 
L 312.643904 24.340927 
L 314.275334 22.922041 
L 315.906764 22.68556 
L 317.538194 22.68556 
L 320.801053 23.867965 
L 322.432483 22.68556 
L 324.063913 22.370252 
L 325.695343 23.552657 
L 327.326773 22.922041 
L 328.958203 21.89729 
L 330.589633 20.005443 
L 332.221062 20.320751 
L 333.852492 19.296 
L 335.483922 21.109021 
L 337.115352 20.163097 
L 338.746782 19.532481 
L 340.378212 19.847789 
L 342.009642 19.611308 
L 343.641072 21.503155 
L 345.272501 21.818463 
L 346.903931 23.316176 
L 348.535361 25.365677 
L 350.166791 24.971543 
L 351.798221 22.843214 
L 355.061081 23.237349 
L 356.692511 22.606733 
L 358.32394 22.527906 
L 359.95537 21.187848 
L 361.5868 22.606733 
L 363.21823 20.714886 
L 364.84966 19.847789 
L 366.48109 19.926616 
L 369.74395 22.054944 
L 371.375379 21.030194 
L 373.006809 20.951367 
L 374.638239 21.739636 
L 376.269669 22.68556 
L 377.901099 24.104446 
L 379.532529 25.28685 
L 381.163959 25.523331 
L 382.795389 26.86339 
L 384.426818 27.257525 
L 386.058248 27.021044 
L 387.689678 25.680985 
L 389.321108 26.153947 
L 390.952538 27.099871 
L 392.583968 26.232774 
L 394.215398 25.917466 
L 394.215398 25.917466 
" clip-path="url(#peeb06ae5bf)" style="fill: none; stroke: #1f77b4; stroke-width: 1.5; stroke-linecap: square"/>
   </g>
   <g id="line2d_18">
    <path d="M 69.560852 261.216 
L 71.192282 261.058346 
L 72.823712 260.664211 
L 77.718002 258.299402 
L 82.612291 255.303977 
L 84.243721 253.569783 
L 87.506581 251.204974 
L 89.138011 249.786088 
L 92.400871 246.475355 
L 94.0323 245.135296 
L 95.66373 242.770487 
L 97.29516 239.538581 
L 100.55802 235.676059 
L 102.18945 234.178346 
L 103.82088 231.261748 
L 105.45231 228.739284 
L 107.083739 225.665032 
L 108.715169 224.876762 
L 111.978029 220.935413 
L 113.609459 219.516528 
L 115.240889 217.545853 
L 116.872319 215.969314 
L 118.503749 213.762158 
L 120.135178 212.343273 
L 121.766608 210.609079 
L 123.398038 209.505501 
L 126.660898 207.061865 
L 128.292328 205.958287 
L 129.923758 202.884035 
L 131.555188 201.938111 
L 133.186617 200.755707 
L 134.818047 198.233243 
L 136.449477 196.104915 
L 138.080907 194.213067 
L 141.343767 189.71993 
L 142.975197 187.670428 
L 144.606627 185.226792 
L 146.238056 185.384446 
L 151.132346 182.940809 
L 152.763776 180.970135 
L 154.395206 179.551249 
L 156.026636 178.290018 
L 157.658066 178.841806 
L 159.289495 176.476997 
L 160.920925 176.792305 
L 162.552355 175.294592 
L 165.815215 173.323918 
L 167.446645 172.141513 
L 169.078075 171.589724 
L 170.709505 170.328493 
L 175.603794 165.283566 
L 177.235224 164.810604 
L 180.498084 164.258815 
L 182.129514 162.918757 
L 185.392374 161.578698 
L 187.023803 159.292716 
L 188.655233 160.080985 
L 191.918093 158.740927 
L 193.549523 158.6621 
L 195.180953 156.849079 
L 198.443813 156.612598 
L 200.075242 156.691425 
L 201.706672 157.08556 
L 203.338102 154.563097 
L 204.969532 155.036059 
L 206.600962 153.459519 
L 208.232392 153.144211 
L 209.863822 152.434768 
L 211.495252 152.671249 
L 213.126681 153.380692 
L 214.758111 152.513595 
L 216.389541 152.592422 
L 218.020971 151.09471 
L 221.283831 152.750076 
L 222.915261 152.040633 
L 224.546691 148.887554 
L 226.17812 149.360516 
L 229.44098 148.966381 
L 232.70384 147.783977 
L 234.33527 147.783977 
L 235.9667 147.153361 
L 237.59813 148.808727 
L 239.229559 148.572246 
L 240.860989 147.70515 
L 242.492419 147.626323 
L 244.123849 149.281689 
L 245.755279 149.045208 
L 247.386709 149.991132 
L 249.018139 151.331191 
L 250.649569 152.434768 
L 252.280998 152.434768 
L 253.912428 153.774827 
L 255.543858 152.434768 
L 257.175288 153.538346 
L 258.806718 151.252364 
L 260.438148 151.804152 
L 262.069578 151.567672 
L 263.701008 151.567672 
L 265.332437 151.725326 
L 266.963867 148.7299 
L 268.595297 148.887554 
L 270.226727 148.414592 
L 271.858157 149.439343 
L 273.489587 146.759226 
L 275.121017 146.207437 
L 276.752447 145.813302 
L 278.383876 147.153361 
L 280.015306 146.443918 
L 281.646736 146.286264 
L 283.278166 146.680399 
L 284.909596 145.970956 
L 286.541026 145.892129 
L 289.803886 145.103859 
L 291.435315 143.684974 
L 293.066745 143.212012 
L 294.698175 143.212012 
L 296.329605 143.921455 
L 297.961035 143.606147 
L 299.592465 145.576821 
L 301.223895 145.497994 
L 302.855325 143.606147 
L 304.486755 144.000282 
L 306.118184 143.606147 
L 307.749614 143.763801 
L 309.381044 141.95078 
L 311.012474 142.817877 
L 312.643904 142.108434 
L 314.275334 145.34034 
L 315.906764 145.970956 
L 317.538194 144.315589 
L 319.169623 143.133185 
L 320.801053 143.369666 
L 322.432483 144.394416 
L 324.063913 145.182686 
L 325.695343 144.630897 
L 327.326773 144.236762 
L 328.958203 144.315589 
L 330.589633 144.630897 
L 332.221062 145.103859 
L 333.852492 146.365091 
L 335.483922 144.394416 
L 338.746782 143.684974 
L 340.378212 141.635472 
L 342.009642 142.266088 
L 343.641072 141.793126 
L 345.272501 142.502569 
L 348.535361 139.585971 
L 350.166791 138.088258 
L 351.798221 139.980106 
L 353.429651 139.822452 
L 355.061081 138.876528 
L 356.692511 139.743625 
L 358.32394 139.980106 
L 359.95537 142.660223 
L 361.5868 141.871953 
L 363.21823 142.029607 
L 364.84966 142.660223 
L 366.48109 143.054358 
L 368.11252 142.344915 
L 369.74395 142.108434 
L 371.375379 143.763801 
L 373.006809 143.606147 
L 374.638239 144.236762 
L 376.269669 144.315589 
L 377.901099 143.921455 
L 379.532529 144.079109 
L 384.426818 142.423742 
L 386.058248 144.867378 
L 387.689678 145.261513 
L 390.952538 145.025032 
L 392.583968 145.497994 
L 394.215398 146.443918 
L 394.215398 146.443918 
" clip-path="url(#peeb06ae5bf)" style="fill: none; stroke: #ff7f0e; stroke-width: 1.5; stroke-linecap: square"/>
   </g>
   <g id="patch_3">
    <path d="M 53.328125 273.312 
L 53.328125 7.2 
" style="fill: none; stroke: #000000; stroke-width: 0.8; stroke-linejoin: miter; stroke-linecap: square"/>
   </g>
   <g id="patch_4">
    <path d="M 410.448125 273.312 
L 410.448125 7.2 
" style="fill: none; stroke: #000000; stroke-width: 0.8; stroke-linejoin: miter; stroke-linecap: square"/>
   </g>
   <g id="patch_5">
    <path d="M 53.328125 273.312 
L 410.448125 273.312 
" style="fill: none; stroke: #000000; stroke-width: 0.8; stroke-linejoin: miter; stroke-linecap: square"/>
   </g>
   <g id="patch_6">
    <path d="M 53.328125 7.2 
L 410.448125 7.2 
" style="fill: none; stroke: #000000; stroke-width: 0.8; stroke-linejoin: miter; stroke-linecap: square"/>
   </g>
  </g>
 </g>
 <defs>
  <clipPath id="peeb06ae5bf">
   <rect x="53.328125" y="7.2" width="357.12" height="266.112"/>
  </clipPath>
 </defs>
</svg>
