<?xml version="1.0" encoding="utf-8" standalone="no"?>
<!DOCTYPE svg PUBLIC "-//W3C//DTD SVG 1.1//EN"
  "http://www.w3.org/Graphics/SVG/1.1/DTD/svg11.dtd">
<svg xmlns:xlink="http://www.w3.org/1999/xlink" width="403.97pt" height="297.190125pt" viewBox="0 0 403.97 297.190125" xmlns="http://www.w3.org/2000/svg" version="1.1">
 <metadata>
  <rdf:RDF xmlns:dc="http://purl.org/dc/elements/1.1/" xmlns:cc="http://creativecommons.org/ns#" xmlns:rdf="http://www.w3.org/1999/02/22-rdf-syntax-ns#">
   <cc:Work>
    <dc:type rdf:resource="http://purl.org/dc/dcmitype/StillImage"/>
    <dc:date>2024-05-31T16:26:56.494403</dc:date>
    <dc:format>image/svg+xml</dc:format>
    <dc:creator>
     <cc:Agent>
      <dc:title>Matplotlib v3.9.0, https://matplotlib.org/</dc:title>
     </cc:Agent>
    </dc:creator>
   </cc:Work>
  </rdf:RDF>
 </metadata>
 <defs>
  <style type="text/css">*{stroke-linejoin: round; stroke-linecap: butt}</style>
 </defs>
 <g id="figure_1">
  <g id="patch_1">
   <path d="M 0 297.190125 
L 403.97 297.190125 
L 403.97 0 
L 0 0 
z
" style="fill: #ffffff"/>
  </g>
  <g id="axes_1">
   <g id="patch_2">
    <path d="M 39.65 273.312 
L 396.77 273.312 
L 396.77 7.2 
L 39.65 7.2 
z
" style="fill: #ffffff"/>
   </g>
   <g id="matplotlib.axis_1">
    <g id="xtick_1">
     <g id="line2d_1">
      <defs>
       <path id="m070530a45d" d="M 0 0 
L 0 3.5 
" style="stroke: #000000; stroke-width: 0.8"/>
      </defs>
      <g>
       <use xlink:href="#m070530a45d" x="55.882727" y="273.312" style="stroke: #000000; stroke-width: 0.8"/>
      </g>
     </g>
     <g id="text_1">
      <!-- 0.0 -->
      <g transform="translate(47.931165 287.910437) scale(0.1 -0.1)">
       <defs>
        <path id="DejaVuSans-30" d="M 2034 4250 
Q 1547 4250 1301 3770 
Q 1056 3291 1056 2328 
Q 1056 1369 1301 889 
Q 1547 409 2034 409 
Q 2525 409 2770 889 
Q 3016 1369 3016 2328 
Q 3016 3291 2770 3770 
Q 2525 4250 2034 4250 
z
M 2034 4750 
Q 2819 4750 3233 4129 
Q 3647 3509 3647 2328 
Q 3647 1150 3233 529 
Q 2819 -91 2034 -91 
Q 1250 -91 836 529 
Q 422 1150 422 2328 
Q 422 3509 836 4129 
Q 1250 4750 2034 4750 
z
" transform="scale(0.015625)"/>
        <path id="DejaVuSans-2e" d="M 684 794 
L 1344 794 
L 1344 0 
L 684 0 
L 684 794 
z
" transform="scale(0.015625)"/>
       </defs>
       <use xlink:href="#DejaVuSans-30"/>
       <use xlink:href="#DejaVuSans-2e" x="63.623047"/>
       <use xlink:href="#DejaVuSans-30" x="95.410156"/>
      </g>
     </g>
    </g>
    <g id="xtick_2">
     <g id="line2d_2">
      <g>
       <use xlink:href="#m070530a45d" x="96.668474" y="273.312" style="stroke: #000000; stroke-width: 0.8"/>
      </g>
     </g>
     <g id="text_2">
      <!-- 2.5 -->
      <g transform="translate(88.716912 287.910437) scale(0.1 -0.1)">
       <defs>
        <path id="DejaVuSans-32" d="M 1228 531 
L 3431 531 
L 3431 0 
L 469 0 
L 469 531 
Q 828 903 1448 1529 
Q 2069 2156 2228 2338 
Q 2531 2678 2651 2914 
Q 2772 3150 2772 3378 
Q 2772 3750 2511 3984 
Q 2250 4219 1831 4219 
Q 1534 4219 1204 4116 
Q 875 4013 500 3803 
L 500 4441 
Q 881 4594 1212 4672 
Q 1544 4750 1819 4750 
Q 2544 4750 2975 4387 
Q 3406 4025 3406 3419 
Q 3406 3131 3298 2873 
Q 3191 2616 2906 2266 
Q 2828 2175 2409 1742 
Q 1991 1309 1228 531 
z
" transform="scale(0.015625)"/>
        <path id="DejaVuSans-35" d="M 691 4666 
L 3169 4666 
L 3169 4134 
L 1269 4134 
L 1269 2991 
Q 1406 3038 1543 3061 
Q 1681 3084 1819 3084 
Q 2600 3084 3056 2656 
Q 3513 2228 3513 1497 
Q 3513 744 3044 326 
Q 2575 -91 1722 -91 
Q 1428 -91 1123 -41 
Q 819 9 494 109 
L 494 744 
Q 775 591 1075 516 
Q 1375 441 1709 441 
Q 2250 441 2565 725 
Q 2881 1009 2881 1497 
Q 2881 1984 2565 2268 
Q 2250 2553 1709 2553 
Q 1456 2553 1204 2497 
Q 953 2441 691 2322 
L 691 4666 
z
" transform="scale(0.015625)"/>
       </defs>
       <use xlink:href="#DejaVuSans-32"/>
       <use xlink:href="#DejaVuSans-2e" x="63.623047"/>
       <use xlink:href="#DejaVuSans-35" x="95.410156"/>
      </g>
     </g>
    </g>
    <g id="xtick_3">
     <g id="line2d_3">
      <g>
       <use xlink:href="#m070530a45d" x="137.454221" y="273.312" style="stroke: #000000; stroke-width: 0.8"/>
      </g>
     </g>
     <g id="text_3">
      <!-- 5.0 -->
      <g transform="translate(129.502659 287.910437) scale(0.1 -0.1)">
       <use xlink:href="#DejaVuSans-35"/>
       <use xlink:href="#DejaVuSans-2e" x="63.623047"/>
       <use xlink:href="#DejaVuSans-30" x="95.410156"/>
      </g>
     </g>
    </g>
    <g id="xtick_4">
     <g id="line2d_4">
      <g>
       <use xlink:href="#m070530a45d" x="178.239968" y="273.312" style="stroke: #000000; stroke-width: 0.8"/>
      </g>
     </g>
     <g id="text_4">
      <!-- 7.5 -->
      <g transform="translate(170.288406 287.910437) scale(0.1 -0.1)">
       <defs>
        <path id="DejaVuSans-37" d="M 525 4666 
L 3525 4666 
L 3525 4397 
L 1831 0 
L 1172 0 
L 2766 4134 
L 525 4134 
L 525 4666 
z
" transform="scale(0.015625)"/>
       </defs>
       <use xlink:href="#DejaVuSans-37"/>
       <use xlink:href="#DejaVuSans-2e" x="63.623047"/>
       <use xlink:href="#DejaVuSans-35" x="95.410156"/>
      </g>
     </g>
    </g>
    <g id="xtick_5">
     <g id="line2d_5">
      <g>
       <use xlink:href="#m070530a45d" x="219.025715" y="273.312" style="stroke: #000000; stroke-width: 0.8"/>
      </g>
     </g>
     <g id="text_5">
      <!-- 10.0 -->
      <g transform="translate(207.892902 287.910437) scale(0.1 -0.1)">
       <defs>
        <path id="DejaVuSans-31" d="M 794 531 
L 1825 531 
L 1825 4091 
L 703 3866 
L 703 4441 
L 1819 4666 
L 2450 4666 
L 2450 531 
L 3481 531 
L 3481 0 
L 794 0 
L 794 531 
z
" transform="scale(0.015625)"/>
       </defs>
       <use xlink:href="#DejaVuSans-31"/>
       <use xlink:href="#DejaVuSans-30" x="63.623047"/>
       <use xlink:href="#DejaVuSans-2e" x="127.246094"/>
       <use xlink:href="#DejaVuSans-30" x="159.033203"/>
      </g>
     </g>
    </g>
    <g id="xtick_6">
     <g id="line2d_6">
      <g>
       <use xlink:href="#m070530a45d" x="259.811462" y="273.312" style="stroke: #000000; stroke-width: 0.8"/>
      </g>
     </g>
     <g id="text_6">
      <!-- 12.5 -->
      <g transform="translate(248.678649 287.910437) scale(0.1 -0.1)">
       <use xlink:href="#DejaVuSans-31"/>
       <use xlink:href="#DejaVuSans-32" x="63.623047"/>
       <use xlink:href="#DejaVuSans-2e" x="127.246094"/>
       <use xlink:href="#DejaVuSans-35" x="159.033203"/>
      </g>
     </g>
    </g>
    <g id="xtick_7">
     <g id="line2d_7">
      <g>
       <use xlink:href="#m070530a45d" x="300.597209" y="273.312" style="stroke: #000000; stroke-width: 0.8"/>
      </g>
     </g>
     <g id="text_7">
      <!-- 15.0 -->
      <g transform="translate(289.464396 287.910437) scale(0.1 -0.1)">
       <use xlink:href="#DejaVuSans-31"/>
       <use xlink:href="#DejaVuSans-35" x="63.623047"/>
       <use xlink:href="#DejaVuSans-2e" x="127.246094"/>
       <use xlink:href="#DejaVuSans-30" x="159.033203"/>
      </g>
     </g>
    </g>
    <g id="xtick_8">
     <g id="line2d_8">
      <g>
       <use xlink:href="#m070530a45d" x="341.382956" y="273.312" style="stroke: #000000; stroke-width: 0.8"/>
      </g>
     </g>
     <g id="text_8">
      <!-- 17.5 -->
      <g transform="translate(330.250143 287.910437) scale(0.1 -0.1)">
       <use xlink:href="#DejaVuSans-31"/>
       <use xlink:href="#DejaVuSans-37" x="63.623047"/>
       <use xlink:href="#DejaVuSans-2e" x="127.246094"/>
       <use xlink:href="#DejaVuSans-35" x="159.033203"/>
      </g>
     </g>
    </g>
    <g id="xtick_9">
     <g id="line2d_9">
      <g>
       <use xlink:href="#m070530a45d" x="382.168703" y="273.312" style="stroke: #000000; stroke-width: 0.8"/>
      </g>
     </g>
     <g id="text_9">
      <!-- 20.0 -->
      <g transform="translate(371.03589 287.910437) scale(0.1 -0.1)">
       <use xlink:href="#DejaVuSans-32"/>
       <use xlink:href="#DejaVuSans-30" x="63.623047"/>
       <use xlink:href="#DejaVuSans-2e" x="127.246094"/>
       <use xlink:href="#DejaVuSans-30" x="159.033203"/>
      </g>
     </g>
    </g>
   </g>
   <g id="matplotlib.axis_2">
    <g id="ytick_1">
     <g id="line2d_10">
      <defs>
       <path id="mbb21e75464" d="M 0 0 
L -3.5 0 
" style="stroke: #000000; stroke-width: 0.8"/>
      </defs>
      <g>
       <use xlink:href="#mbb21e75464" x="39.65" y="261.216" style="stroke: #000000; stroke-width: 0.8"/>
      </g>
     </g>
     <g id="text_10">
      <!-- 0 -->
      <g transform="translate(26.2875 265.015219) scale(0.1 -0.1)">
       <use xlink:href="#DejaVuSans-30"/>
      </g>
     </g>
    </g>
    <g id="ytick_2">
     <g id="line2d_11">
      <g>
       <use xlink:href="#mbb21e75464" x="39.65" y="220.976479" style="stroke: #000000; stroke-width: 0.8"/>
      </g>
     </g>
     <g id="text_11">
      <!-- 500 -->
      <g transform="translate(13.5625 224.775698) scale(0.1 -0.1)">
       <use xlink:href="#DejaVuSans-35"/>
       <use xlink:href="#DejaVuSans-30" x="63.623047"/>
       <use xlink:href="#DejaVuSans-30" x="127.246094"/>
      </g>
     </g>
    </g>
    <g id="ytick_3">
     <g id="line2d_12">
      <g>
       <use xlink:href="#mbb21e75464" x="39.65" y="180.736958" style="stroke: #000000; stroke-width: 0.8"/>
      </g>
     </g>
     <g id="text_12">
      <!-- 1000 -->
      <g transform="translate(7.2 184.536177) scale(0.1 -0.1)">
       <use xlink:href="#DejaVuSans-31"/>
       <use xlink:href="#DejaVuSans-30" x="63.623047"/>
       <use xlink:href="#DejaVuSans-30" x="127.246094"/>
       <use xlink:href="#DejaVuSans-30" x="190.869141"/>
      </g>
     </g>
    </g>
    <g id="ytick_4">
     <g id="line2d_13">
      <g>
       <use xlink:href="#mbb21e75464" x="39.65" y="140.497437" style="stroke: #000000; stroke-width: 0.8"/>
      </g>
     </g>
     <g id="text_13">
      <!-- 1500 -->
      <g transform="translate(7.2 144.296656) scale(0.1 -0.1)">
       <use xlink:href="#DejaVuSans-31"/>
       <use xlink:href="#DejaVuSans-35" x="63.623047"/>
       <use xlink:href="#DejaVuSans-30" x="127.246094"/>
       <use xlink:href="#DejaVuSans-30" x="190.869141"/>
      </g>
     </g>
    </g>
    <g id="ytick_5">
     <g id="line2d_14">
      <g>
       <use xlink:href="#mbb21e75464" x="39.65" y="100.257916" style="stroke: #000000; stroke-width: 0.8"/>
      </g>
     </g>
     <g id="text_14">
      <!-- 2000 -->
      <g transform="translate(7.2 104.057135) scale(0.1 -0.1)">
       <use xlink:href="#DejaVuSans-32"/>
       <use xlink:href="#DejaVuSans-30" x="63.623047"/>
       <use xlink:href="#DejaVuSans-30" x="127.246094"/>
       <use xlink:href="#DejaVuSans-30" x="190.869141"/>
      </g>
     </g>
    </g>
    <g id="ytick_6">
     <g id="line2d_15">
      <g>
       <use xlink:href="#mbb21e75464" x="39.65" y="60.018395" style="stroke: #000000; stroke-width: 0.8"/>
      </g>
     </g>
     <g id="text_15">
      <!-- 2500 -->
      <g transform="translate(7.2 63.817614) scale(0.1 -0.1)">
       <use xlink:href="#DejaVuSans-32"/>
       <use xlink:href="#DejaVuSans-35" x="63.623047"/>
       <use xlink:href="#DejaVuSans-30" x="127.246094"/>
       <use xlink:href="#DejaVuSans-30" x="190.869141"/>
      </g>
     </g>
    </g>
    <g id="ytick_7">
     <g id="line2d_16">
      <g>
       <use xlink:href="#mbb21e75464" x="39.65" y="19.778874" style="stroke: #000000; stroke-width: 0.8"/>
      </g>
     </g>
     <g id="text_16">
      <!-- 3000 -->
      <g transform="translate(7.2 23.578093) scale(0.1 -0.1)">
       <defs>
        <path id="DejaVuSans-33" d="M 2597 2516 
Q 3050 2419 3304 2112 
Q 3559 1806 3559 1356 
Q 3559 666 3084 287 
Q 2609 -91 1734 -91 
Q 1441 -91 1130 -33 
Q 819 25 488 141 
L 488 750 
Q 750 597 1062 519 
Q 1375 441 1716 441 
Q 2309 441 2620 675 
Q 2931 909 2931 1356 
Q 2931 1769 2642 2001 
Q 2353 2234 1838 2234 
L 1294 2234 
L 1294 2753 
L 1863 2753 
Q 2328 2753 2575 2939 
Q 2822 3125 2822 3475 
Q 2822 3834 2567 4026 
Q 2313 4219 1838 4219 
Q 1578 4219 1281 4162 
Q 984 4106 628 3988 
L 628 4550 
Q 988 4650 1302 4700 
Q 1616 4750 1894 4750 
Q 2613 4750 3031 4423 
Q 3450 4097 3450 3541 
Q 3450 3153 3228 2886 
Q 3006 2619 2597 2516 
z
" transform="scale(0.015625)"/>
       </defs>
       <use xlink:href="#DejaVuSans-33"/>
       <use xlink:href="#DejaVuSans-30" x="63.623047"/>
       <use xlink:href="#DejaVuSans-30" x="127.246094"/>
       <use xlink:href="#DejaVuSans-30" x="190.869141"/>
      </g>
     </g>
    </g>
   </g>
   <g id="line2d_17">
    <path d="M 55.882727 261.216 
L 59.961302 241.09624 
L 64.039877 222.916024 
L 68.118451 206.488381 
L 72.197026 191.644363 
L 76.275601 178.231308 
L 80.354175 166.111272 
L 84.43275 155.159608 
L 88.511325 145.263683 
L 92.589899 136.321726 
L 96.668474 128.241774 
L 100.747049 120.940729 
L 104.825624 114.343504 
L 108.904198 108.382252 
L 112.982773 102.995665 
L 117.061348 98.128345 
L 121.139922 93.730234 
L 125.218497 89.756102 
L 129.297072 86.165075 
L 133.375646 82.920224 
L 137.454221 79.988176 
L 141.532796 77.338778 
L 145.61137 74.944782 
L 149.689945 72.781567 
L 153.76852 70.826886 
L 157.847095 69.060636 
L 161.925669 67.464652 
L 166.004244 66.022522 
L 170.082819 64.719413 
L 174.161393 63.541923 
L 178.239968 62.477944 
L 182.318543 61.516532 
L 186.397117 60.6478 
L 190.475692 59.862814 
L 194.554267 59.153501 
L 198.632841 58.512565 
L 202.711416 57.933416 
L 206.789991 57.410096 
L 210.868566 56.937225 
L 214.94714 56.509939 
L 219.025715 56.123842 
L 223.10429 55.774966 
L 227.182864 55.459721 
L 231.261439 55.174866 
L 235.340014 54.917471 
L 239.418588 54.684888 
L 243.497163 54.474727 
L 247.575738 54.284825 
L 251.654312 54.11323 
L 255.732887 53.958177 
L 259.811462 53.81807 
L 263.890037 53.69147 
L 267.968611 53.577074 
L 272.047186 53.473706 
L 276.125761 53.380303 
L 280.204335 53.295904 
L 284.28291 53.219641 
L 288.361485 53.150729 
L 292.440059 53.088461 
L 296.518634 53.032195 
L 300.597209 52.981353 
L 304.675783 52.935413 
L 308.754358 52.893901 
L 312.832933 52.856391 
L 316.911508 52.822497 
L 320.990082 52.79187 
L 325.068657 52.764196 
L 329.147232 52.739189 
L 333.225806 52.716593 
L 337.304381 52.696175 
L 341.382956 52.677726 
L 345.46153 52.661055 
L 349.540105 52.645991 
L 353.61868 52.63238 
L 357.697254 52.62008 
L 361.775829 52.608966 
L 365.854404 52.598924 
L 369.932979 52.58985 
L 374.011553 52.58165 
L 378.090128 52.574241 
" clip-path="url(#p36ad430a1d)" style="fill: none; stroke: #1f77b4; stroke-width: 1.5; stroke-linecap: square"/>
   </g>
   <g id="line2d_18">
    <path d="M 55.882727 261.216 
L 59.961302 261.216 
L 64.039877 259.276455 
L 68.118451 256.050216 
L 72.197026 252.015295 
L 76.275601 247.518598 
L 80.354175 242.80899 
L 84.43275 238.062258 
L 88.511325 233.399951 
L 92.589899 228.903562 
L 96.668474 224.625202 
L 100.747049 220.595596 
L 104.825624 216.830081 
L 108.904198 213.33307 
L 112.982773 210.101377 
L 117.061348 207.126669 
L 121.139922 204.397276 
L 125.218497 201.899506 
L 129.297072 199.618594 
L 133.375646 197.539381 
L 137.454221 195.646792 
L 141.532796 193.926154 
L 145.61137 192.363411 
L 149.689945 190.945257 
L 153.76852 189.65921 
L 157.847095 188.493641 
L 161.925669 187.437774 
L 166.004244 186.481674 
L 170.082819 185.616208 
L 174.161393 184.833007 
L 178.239968 184.124421 
L 182.318543 183.48347 
L 186.397117 182.903795 
L 190.475692 182.379612 
L 194.554267 181.905665 
L 198.632841 181.477183 
L 202.711416 181.089836 
L 206.789991 180.739699 
L 210.868566 180.423217 
L 214.94714 180.13717 
L 219.025715 179.878641 
L 223.10429 179.64499 
L 227.182864 179.433831 
L 231.261439 179.243003 
L 235.340014 179.070551 
L 239.418588 178.91471 
L 243.497163 178.773881 
L 247.575738 178.646619 
L 251.654312 178.531619 
L 255.732887 178.4277 
L 259.811462 178.333796 
L 263.890037 178.248941 
L 267.968611 178.172264 
L 272.047186 178.102977 
L 276.125761 178.040368 
L 280.204335 177.983794 
L 284.28291 177.932672 
L 288.361485 177.886479 
L 292.440059 177.844737 
L 296.518634 177.80702 
L 300.597209 177.772938 
L 304.675783 177.742142 
L 308.754358 177.714314 
L 312.832933 177.689169 
L 316.911508 177.666447 
L 320.990082 177.645916 
L 325.068657 177.627364 
L 329.147232 177.6106 
L 333.225806 177.595453 
L 337.304381 177.581765 
L 341.382956 177.569398 
L 345.46153 177.558222 
L 349.540105 177.548123 
L 353.61868 177.538999 
L 357.697254 177.530753 
L 361.775829 177.523303 
L 365.854404 177.516571 
L 369.932979 177.510488 
L 374.011553 177.504991 
L 378.090128 177.500024 
" clip-path="url(#p36ad430a1d)" style="fill: none; stroke: #ff7f0e; stroke-width: 1.5; stroke-linecap: square"/>
   </g>
   <g id="line2d_19">
    <path d="M 55.882727 261.216 
L 57.514157 253.972886 
L 59.145587 245.442108 
L 60.777017 238.038036 
L 62.408447 231.921629 
L 64.039877 224.839473 
L 65.671307 218.40115 
L 68.934166 207.134084 
L 70.565596 200.293365 
L 75.459886 182.507497 
L 77.091316 177.517796 
L 78.722746 171.240431 
L 80.354175 165.928814 
L 83.617035 156.995641 
L 85.248465 152.649772 
L 86.879895 150.476838 
L 90.142755 140.416958 
L 91.774185 137.358754 
L 95.037044 129.874204 
L 96.668474 126.252647 
L 98.299904 121.343425 
L 99.931334 119.009533 
L 101.562764 114.502707 
L 106.457053 103.477078 
L 108.088483 100.74079 
L 109.719913 98.889772 
L 112.982773 91.646659 
L 114.614203 89.956599 
L 116.245633 88.105581 
L 117.877063 85.449772 
L 119.508492 84.886419 
L 122.771352 80.701509 
L 124.402782 78.528575 
L 126.034212 75.711808 
L 127.665642 74.102228 
L 129.297072 73.216958 
L 130.928502 70.883066 
L 132.559931 69.353964 
L 134.191361 69.434443 
L 135.822791 68.388216 
L 137.454221 65.893365 
L 139.085651 62.754683 
L 140.717081 60.903665 
L 142.348511 59.696479 
L 143.979941 59.776958 
L 145.61137 58.891689 
L 147.2428 55.753006 
L 148.87423 54.626299 
L 150.50566 55.350611 
L 152.13709 55.189653 
L 153.76852 52.775281 
L 155.39995 52.694802 
L 157.03138 50.521868 
L 158.66281 48.027018 
L 160.294239 47.061269 
L 161.925669 48.027018 
L 163.557099 46.256479 
L 165.188529 43.761629 
L 166.819959 43.037317 
L 168.451389 41.749653 
L 170.082819 40.864383 
L 171.714249 40.461988 
L 173.345678 39.898635 
L 174.977108 39.576719 
L 176.608538 37.886659 
L 178.239968 37.967138 
L 179.871398 38.61097 
L 181.502828 38.450012 
L 183.134258 37.081868 
L 184.765688 35.552766 
L 186.397117 36.196599 
L 188.028547 35.472287 
L 189.659977 33.701749 
L 192.922837 32.816479 
L 194.554267 33.057916 
L 196.185697 31.367856 
L 197.817127 28.792527 
L 199.448556 30.160671 
L 201.079986 30.160671 
L 202.711416 29.677796 
L 204.342846 29.919234 
L 205.974276 28.390132 
L 207.605706 27.746299 
L 209.237136 28.068216 
L 210.868566 29.838754 
L 212.499995 30.402108 
L 214.131425 29.516838 
L 215.762855 29.838754 
L 217.394285 28.873006 
L 219.025715 30.402108 
L 220.657145 31.609293 
L 222.288575 31.448335 
L 223.920005 30.884982 
L 225.551434 28.792527 
L 227.182864 28.792527 
L 228.814294 28.229174 
L 230.445724 26.539114 
L 232.077154 27.504862 
L 233.708584 28.068216 
L 236.971444 28.470611 
L 240.234303 27.504862 
L 241.865733 27.585341 
L 243.497163 28.068216 
L 245.128593 27.66582 
L 246.760023 27.504862 
L 250.022883 28.148695 
L 251.654312 27.66582 
L 253.285742 29.114443 
L 254.917172 28.792527 
L 258.180032 29.033964 
L 259.811462 27.263425 
L 263.074322 29.194922 
L 266.337181 29.677796 
L 267.968611 29.516838 
L 269.600041 29.033964 
L 271.231471 29.114443 
L 272.862901 29.677796 
L 274.494331 29.275401 
L 276.125761 27.746299 
L 277.75719 28.309653 
L 279.38862 28.229174 
L 281.02005 27.504862 
L 282.65148 25.734323 
L 284.28291 27.66582 
L 285.91434 28.953485 
L 287.54577 27.424383 
L 289.1772 28.470611 
L 290.80863 29.35588 
L 292.440059 28.953485 
L 294.071489 28.148695 
L 295.702919 28.873006 
L 297.334349 27.987737 
L 298.965779 29.194922 
L 300.597209 27.987737 
L 302.228639 26.458635 
L 303.860069 25.331928 
L 305.491498 24.36618 
L 307.122928 25.331928 
L 308.754358 26.05624 
L 310.385788 25.734323 
L 312.017218 24.768575 
L 313.648648 24.929533 
L 315.280078 25.97576 
L 316.911508 26.136719 
L 318.542937 25.895281 
L 321.805797 24.044263 
L 323.437227 24.768575 
L 325.068657 24.285701 
L 326.700087 26.217198 
L 328.331517 25.17097 
L 329.962947 25.251449 
L 331.594376 23.239473 
L 333.225806 22.756599 
L 334.857236 22.998036 
L 338.120096 22.515162 
L 339.751526 20.583665 
L 341.382956 20.664144 
L 343.014386 21.79085 
L 344.645815 23.158994 
L 346.277245 22.112766 
L 347.908675 21.871329 
L 349.540105 20.181269 
L 351.171535 20.825102 
L 352.802965 20.261749 
L 354.434395 19.296 
L 356.065825 20.422707 
L 357.697254 23.641868 
L 359.328684 23.963784 
L 360.960114 22.112766 
L 362.591544 21.307976 
L 364.222974 21.227497 
L 365.854404 22.515162 
L 367.485834 22.756599 
L 369.117264 20.422707 
L 370.748693 21.79085 
L 372.380123 22.515162 
L 374.011553 22.595641 
L 375.642983 21.710371 
L 377.274413 21.227497 
L 378.905843 20.98606 
L 380.537273 20.503186 
L 380.537273 20.503186 
" clip-path="url(#p36ad430a1d)" style="fill: none; stroke: #2ca02c; stroke-width: 1.5; stroke-linecap: square"/>
   </g>
   <g id="line2d_20">
    <path d="M 55.882727 261.216 
L 57.514157 261.135521 
L 59.145587 260.491689 
L 60.777017 260.089293 
L 62.408447 259.123545 
L 64.039877 258.882108 
L 65.671307 257.674922 
L 67.302736 256.226299 
L 68.934166 254.133844 
L 70.565596 252.363305 
L 72.197026 251.075641 
L 75.459886 248.017437 
L 77.091316 246.246898 
L 78.722746 244.798275 
L 80.354175 244.073964 
L 81.985605 241.418156 
L 83.617035 240.532886 
L 85.248465 239.164743 
L 86.879895 236.02606 
L 88.511325 234.657916 
L 90.142755 232.726419 
L 93.405614 226.931928 
L 99.931334 218.159713 
L 101.562764 216.71109 
L 103.194194 214.21624 
L 104.825624 212.043305 
L 106.457053 210.675162 
L 108.088483 209.467976 
L 109.719913 207.616958 
L 111.351343 206.248814 
L 112.982773 204.397796 
L 117.877063 199.971449 
L 119.508492 197.235162 
L 121.139922 196.108455 
L 122.771352 195.223186 
L 124.402782 193.855042 
L 127.665642 190.555401 
L 129.297072 188.462946 
L 130.928502 187.497198 
L 132.559931 186.290012 
L 134.191361 184.438994 
L 137.454221 181.944144 
L 139.085651 180.897916 
L 140.717081 180.012647 
L 142.348511 177.598275 
L 143.979941 177.437317 
L 145.61137 176.713006 
L 147.2428 176.873964 
L 148.87423 177.276359 
L 152.13709 173.574323 
L 153.76852 171.723305 
L 155.39995 169.308934 
L 157.03138 169.389413 
L 158.66281 168.82606 
L 160.294239 166.894563 
L 161.925669 165.848335 
L 163.557099 166.653126 
L 165.188529 167.618874 
L 166.819959 167.216479 
L 168.451389 166.009293 
L 170.082819 165.928814 
L 171.714249 163.916838 
L 173.345678 163.192527 
L 174.977108 162.226778 
L 176.608538 164.158275 
L 178.239968 163.273006 
L 179.871398 161.421988 
L 181.502828 161.663425 
L 183.134258 161.341509 
L 184.765688 160.858635 
L 186.397117 158.363784 
L 188.028547 158.524743 
L 189.659977 159.651449 
L 191.291407 158.605222 
L 192.922837 158.685701 
L 194.554267 157.800431 
L 196.185697 157.639473 
L 197.817127 159.410012 
L 199.448556 156.995641 
L 201.079986 156.19085 
L 204.342846 155.466539 
L 205.974276 155.064144 
L 207.605706 154.50079 
L 209.237136 153.052168 
L 210.868566 153.293605 
L 212.499995 150.557317 
L 214.131425 150.718275 
L 215.762855 150.396359 
L 217.394285 150.396359 
L 219.025715 149.189174 
L 220.657145 148.786778 
L 222.288575 147.499114 
L 223.920005 148.947737 
L 225.551434 149.913485 
L 227.182864 148.947737 
L 228.814294 147.82103 
L 230.445724 147.901509 
L 232.077154 147.338156 
L 233.708584 145.809054 
L 235.340014 143.63612 
L 236.971444 143.797078 
L 238.602873 143.555641 
L 240.234303 141.865581 
L 241.865733 140.577916 
L 243.497163 139.692647 
L 245.128593 140.014563 
L 246.760023 138.726898 
L 248.391453 138.163545 
L 250.022883 138.404982 
L 251.654312 138.324503 
L 253.285742 138.968335 
L 254.917172 137.922108 
L 256.548602 136.473485 
L 259.811462 137.600192 
L 261.442892 138.56594 
L 263.074322 138.726898 
L 264.705751 138.56594 
L 266.337181 137.278275 
L 267.968611 138.646419 
L 269.600041 139.853605 
L 271.231471 140.256 
L 272.862901 137.117317 
L 274.494331 137.036838 
L 276.125761 138.485461 
L 277.75719 139.129293 
L 279.38862 138.56594 
L 281.02005 139.934084 
L 282.65148 140.336479 
L 284.28291 137.922108 
L 285.91434 137.680671 
L 287.54577 138.244024 
L 289.1772 137.922108 
L 290.80863 136.312527 
L 292.440059 139.048814 
L 295.702919 140.577916 
L 297.334349 139.048814 
L 298.965779 138.646419 
L 300.597209 139.773126 
L 302.228639 141.382707 
L 303.860069 144.360431 
L 305.491498 144.762826 
L 307.122928 144.44091 
L 308.754358 144.360431 
L 310.385788 144.038515 
L 312.017218 145.889533 
L 313.648648 146.533365 
L 315.280078 146.13097 
L 316.911508 147.096719 
L 318.542937 147.82103 
L 320.174367 147.660072 
L 321.805797 147.82103 
L 323.437227 146.452886 
L 325.068657 146.613844 
L 326.700087 144.843305 
L 328.331517 146.291928 
L 329.962947 145.889533 
L 331.594376 147.981988 
L 333.225806 148.545341 
L 334.857236 147.177198 
L 338.120096 147.418635 
L 339.751526 150.476838 
L 343.014386 147.660072 
L 344.645815 147.740551 
L 346.277245 148.545341 
L 347.908675 147.257677 
L 349.540105 149.108695 
L 351.171535 147.177198 
L 352.802965 146.855281 
L 354.434395 146.211449 
L 356.065825 146.211449 
L 357.697254 145.406659 
L 359.328684 144.118994 
L 360.960114 145.406659 
L 362.591544 147.418635 
L 364.222974 147.177198 
L 365.854404 145.970012 
L 367.485834 147.01624 
L 369.117264 147.740551 
L 370.748693 146.372407 
L 372.380123 146.050491 
L 374.011553 146.694323 
L 377.274413 145.084743 
L 378.905843 145.32618 
L 380.537273 143.475162 
L 380.537273 143.475162 
" clip-path="url(#p36ad430a1d)" style="fill: none; stroke: #d62728; stroke-width: 1.5; stroke-linecap: square"/>
   </g>
   <g id="patch_3">
    <path d="M 39.65 273.312 
L 39.65 7.2 
" style="fill: none; stroke: #000000; stroke-width: 0.8; stroke-linejoin: miter; stroke-linecap: square"/>
   </g>
   <g id="patch_4">
    <path d="M 396.77 273.312 
L 396.77 7.2 
" style="fill: none; stroke: #000000; stroke-width: 0.8; stroke-linejoin: miter; stroke-linecap: square"/>
   </g>
   <g id="patch_5">
    <path d="M 39.65 273.312 
L 396.77 273.312 
" style="fill: none; stroke: #000000; stroke-width: 0.8; stroke-linejoin: miter; stroke-linecap: square"/>
   </g>
   <g id="patch_6">
    <path d="M 39.65 7.2 
L 396.77 7.2 
" style="fill: none; stroke: #000000; stroke-width: 0.8; stroke-linejoin: miter; stroke-linecap: square"/>
   </g>
  </g>
 </g>
 <defs>
  <clipPath id="p36ad430a1d">
   <rect x="39.65" y="7.2" width="357.12" height="266.112"/>
  </clipPath>
 </defs>
</svg>
