<?xml version="1.0" encoding="utf-8" standalone="no"?>
<!DOCTYPE svg PUBLIC "-//W3C//DTD SVG 1.1//EN"
  "http://www.w3.org/Graphics/SVG/1.1/DTD/svg11.dtd">
<svg xmlns:xlink="http://www.w3.org/1999/xlink" width="397.6075pt" height="297.190125pt" viewBox="0 0 397.6075 297.190125" xmlns="http://www.w3.org/2000/svg" version="1.1">
 <metadata>
  <rdf:RDF xmlns:dc="http://purl.org/dc/elements/1.1/" xmlns:cc="http://creativecommons.org/ns#" xmlns:rdf="http://www.w3.org/1999/02/22-rdf-syntax-ns#">
   <cc:Work>
    <dc:type rdf:resource="http://purl.org/dc/dcmitype/StillImage"/>
    <dc:date>2024-09-03T21:46:54.606686</dc:date>
    <dc:format>image/svg+xml</dc:format>
    <dc:creator>
     <cc:Agent>
      <dc:title>Matplotlib v3.9.2, https://matplotlib.org/</dc:title>
     </cc:Agent>
    </dc:creator>
   </cc:Work>
  </rdf:RDF>
 </metadata>
 <defs>
  <style type="text/css">*{stroke-linejoin: round; stroke-linecap: butt}</style>
 </defs>
 <g id="figure_1">
  <g id="patch_1">
   <path d="M 0 297.190125 
L 397.6075 297.190125 
L 397.6075 0 
L 0 0 
z
" style="fill: #ffffff"/>
  </g>
  <g id="axes_1">
   <g id="patch_2">
    <path d="M 33.2875 273.312 
L 390.4075 273.312 
L 390.4075 7.2 
L 33.2875 7.2 
z
" style="fill: #ffffff"/>
   </g>
   <g id="matplotlib.axis_1">
    <g id="xtick_1">
     <g id="line2d_1">
      <defs>
       <path id="m1cea5e83d5" d="M 0 0 
L 0 3.5 
" style="stroke: #000000; stroke-width: 0.8"/>
      </defs>
      <g>
       <use xlink:href="#m1cea5e83d5" x="49.520227" y="273.312" style="stroke: #000000; stroke-width: 0.8"/>
      </g>
     </g>
     <g id="text_1">
      <!-- 0.0 -->
      <g transform="translate(41.568665 287.910437) scale(0.1 -0.1)">
       <defs>
        <path id="DejaVuSans-30" d="M 2034 4250 
Q 1547 4250 1301 3770 
Q 1056 3291 1056 2328 
Q 1056 1369 1301 889 
Q 1547 409 2034 409 
Q 2525 409 2770 889 
Q 3016 1369 3016 2328 
Q 3016 3291 2770 3770 
Q 2525 4250 2034 4250 
z
M 2034 4750 
Q 2819 4750 3233 4129 
Q 3647 3509 3647 2328 
Q 3647 1150 3233 529 
Q 2819 -91 2034 -91 
Q 1250 -91 836 529 
Q 422 1150 422 2328 
Q 422 3509 836 4129 
Q 1250 4750 2034 4750 
z
" transform="scale(0.015625)"/>
        <path id="DejaVuSans-2e" d="M 684 794 
L 1344 794 
L 1344 0 
L 684 0 
L 684 794 
z
" transform="scale(0.015625)"/>
       </defs>
       <use xlink:href="#DejaVuSans-30"/>
       <use xlink:href="#DejaVuSans-2e" x="63.623047"/>
       <use xlink:href="#DejaVuSans-30" x="95.410156"/>
      </g>
     </g>
    </g>
    <g id="xtick_2">
     <g id="line2d_2">
      <g>
       <use xlink:href="#m1cea5e83d5" x="90.305974" y="273.312" style="stroke: #000000; stroke-width: 0.8"/>
      </g>
     </g>
     <g id="text_2">
      <!-- 2.5 -->
      <g transform="translate(82.354412 287.910437) scale(0.1 -0.1)">
       <defs>
        <path id="DejaVuSans-32" d="M 1228 531 
L 3431 531 
L 3431 0 
L 469 0 
L 469 531 
Q 828 903 1448 1529 
Q 2069 2156 2228 2338 
Q 2531 2678 2651 2914 
Q 2772 3150 2772 3378 
Q 2772 3750 2511 3984 
Q 2250 4219 1831 4219 
Q 1534 4219 1204 4116 
Q 875 4013 500 3803 
L 500 4441 
Q 881 4594 1212 4672 
Q 1544 4750 1819 4750 
Q 2544 4750 2975 4387 
Q 3406 4025 3406 3419 
Q 3406 3131 3298 2873 
Q 3191 2616 2906 2266 
Q 2828 2175 2409 1742 
Q 1991 1309 1228 531 
z
" transform="scale(0.015625)"/>
        <path id="DejaVuSans-35" d="M 691 4666 
L 3169 4666 
L 3169 4134 
L 1269 4134 
L 1269 2991 
Q 1406 3038 1543 3061 
Q 1681 3084 1819 3084 
Q 2600 3084 3056 2656 
Q 3513 2228 3513 1497 
Q 3513 744 3044 326 
Q 2575 -91 1722 -91 
Q 1428 -91 1123 -41 
Q 819 9 494 109 
L 494 744 
Q 775 591 1075 516 
Q 1375 441 1709 441 
Q 2250 441 2565 725 
Q 2881 1009 2881 1497 
Q 2881 1984 2565 2268 
Q 2250 2553 1709 2553 
Q 1456 2553 1204 2497 
Q 953 2441 691 2322 
L 691 4666 
z
" transform="scale(0.015625)"/>
       </defs>
       <use xlink:href="#DejaVuSans-32"/>
       <use xlink:href="#DejaVuSans-2e" x="63.623047"/>
       <use xlink:href="#DejaVuSans-35" x="95.410156"/>
      </g>
     </g>
    </g>
    <g id="xtick_3">
     <g id="line2d_3">
      <g>
       <use xlink:href="#m1cea5e83d5" x="131.091721" y="273.312" style="stroke: #000000; stroke-width: 0.8"/>
      </g>
     </g>
     <g id="text_3">
      <!-- 5.0 -->
      <g transform="translate(123.140159 287.910437) scale(0.1 -0.1)">
       <use xlink:href="#DejaVuSans-35"/>
       <use xlink:href="#DejaVuSans-2e" x="63.623047"/>
       <use xlink:href="#DejaVuSans-30" x="95.410156"/>
      </g>
     </g>
    </g>
    <g id="xtick_4">
     <g id="line2d_4">
      <g>
       <use xlink:href="#m1cea5e83d5" x="171.877468" y="273.312" style="stroke: #000000; stroke-width: 0.8"/>
      </g>
     </g>
     <g id="text_4">
      <!-- 7.5 -->
      <g transform="translate(163.925906 287.910437) scale(0.1 -0.1)">
       <defs>
        <path id="DejaVuSans-37" d="M 525 4666 
L 3525 4666 
L 3525 4397 
L 1831 0 
L 1172 0 
L 2766 4134 
L 525 4134 
L 525 4666 
z
" transform="scale(0.015625)"/>
       </defs>
       <use xlink:href="#DejaVuSans-37"/>
       <use xlink:href="#DejaVuSans-2e" x="63.623047"/>
       <use xlink:href="#DejaVuSans-35" x="95.410156"/>
      </g>
     </g>
    </g>
    <g id="xtick_5">
     <g id="line2d_5">
      <g>
       <use xlink:href="#m1cea5e83d5" x="212.663215" y="273.312" style="stroke: #000000; stroke-width: 0.8"/>
      </g>
     </g>
     <g id="text_5">
      <!-- 10.0 -->
      <g transform="translate(201.530402 287.910437) scale(0.1 -0.1)">
       <defs>
        <path id="DejaVuSans-31" d="M 794 531 
L 1825 531 
L 1825 4091 
L 703 3866 
L 703 4441 
L 1819 4666 
L 2450 4666 
L 2450 531 
L 3481 531 
L 3481 0 
L 794 0 
L 794 531 
z
" transform="scale(0.015625)"/>
       </defs>
       <use xlink:href="#DejaVuSans-31"/>
       <use xlink:href="#DejaVuSans-30" x="63.623047"/>
       <use xlink:href="#DejaVuSans-2e" x="127.246094"/>
       <use xlink:href="#DejaVuSans-30" x="159.033203"/>
      </g>
     </g>
    </g>
    <g id="xtick_6">
     <g id="line2d_6">
      <g>
       <use xlink:href="#m1cea5e83d5" x="253.448962" y="273.312" style="stroke: #000000; stroke-width: 0.8"/>
      </g>
     </g>
     <g id="text_6">
      <!-- 12.5 -->
      <g transform="translate(242.316149 287.910437) scale(0.1 -0.1)">
       <use xlink:href="#DejaVuSans-31"/>
       <use xlink:href="#DejaVuSans-32" x="63.623047"/>
       <use xlink:href="#DejaVuSans-2e" x="127.246094"/>
       <use xlink:href="#DejaVuSans-35" x="159.033203"/>
      </g>
     </g>
    </g>
    <g id="xtick_7">
     <g id="line2d_7">
      <g>
       <use xlink:href="#m1cea5e83d5" x="294.234709" y="273.312" style="stroke: #000000; stroke-width: 0.8"/>
      </g>
     </g>
     <g id="text_7">
      <!-- 15.0 -->
      <g transform="translate(283.101896 287.910437) scale(0.1 -0.1)">
       <use xlink:href="#DejaVuSans-31"/>
       <use xlink:href="#DejaVuSans-35" x="63.623047"/>
       <use xlink:href="#DejaVuSans-2e" x="127.246094"/>
       <use xlink:href="#DejaVuSans-30" x="159.033203"/>
      </g>
     </g>
    </g>
    <g id="xtick_8">
     <g id="line2d_8">
      <g>
       <use xlink:href="#m1cea5e83d5" x="335.020456" y="273.312" style="stroke: #000000; stroke-width: 0.8"/>
      </g>
     </g>
     <g id="text_8">
      <!-- 17.5 -->
      <g transform="translate(323.887643 287.910437) scale(0.1 -0.1)">
       <use xlink:href="#DejaVuSans-31"/>
       <use xlink:href="#DejaVuSans-37" x="63.623047"/>
       <use xlink:href="#DejaVuSans-2e" x="127.246094"/>
       <use xlink:href="#DejaVuSans-35" x="159.033203"/>
      </g>
     </g>
    </g>
    <g id="xtick_9">
     <g id="line2d_9">
      <g>
       <use xlink:href="#m1cea5e83d5" x="375.806203" y="273.312" style="stroke: #000000; stroke-width: 0.8"/>
      </g>
     </g>
     <g id="text_9">
      <!-- 20.0 -->
      <g transform="translate(364.67339 287.910437) scale(0.1 -0.1)">
       <use xlink:href="#DejaVuSans-32"/>
       <use xlink:href="#DejaVuSans-30" x="63.623047"/>
       <use xlink:href="#DejaVuSans-2e" x="127.246094"/>
       <use xlink:href="#DejaVuSans-30" x="159.033203"/>
      </g>
     </g>
    </g>
   </g>
   <g id="matplotlib.axis_2">
    <g id="ytick_1">
     <g id="line2d_10">
      <defs>
       <path id="me292e48aad" d="M 0 0 
L -3.5 0 
" style="stroke: #000000; stroke-width: 0.8"/>
      </defs>
      <g>
       <use xlink:href="#me292e48aad" x="33.2875" y="261.216" style="stroke: #000000; stroke-width: 0.8"/>
      </g>
     </g>
     <g id="text_10">
      <!-- 0 -->
      <g transform="translate(19.925 265.015219) scale(0.1 -0.1)">
       <use xlink:href="#DejaVuSans-30"/>
      </g>
     </g>
    </g>
    <g id="ytick_2">
     <g id="line2d_11">
      <g>
       <use xlink:href="#me292e48aad" x="33.2875" y="230.631479" style="stroke: #000000; stroke-width: 0.8"/>
      </g>
     </g>
     <g id="text_11">
      <!-- 50 -->
      <g transform="translate(13.5625 234.430698) scale(0.1 -0.1)">
       <use xlink:href="#DejaVuSans-35"/>
       <use xlink:href="#DejaVuSans-30" x="63.623047"/>
      </g>
     </g>
    </g>
    <g id="ytick_3">
     <g id="line2d_12">
      <g>
       <use xlink:href="#me292e48aad" x="33.2875" y="200.046958" style="stroke: #000000; stroke-width: 0.8"/>
      </g>
     </g>
     <g id="text_12">
      <!-- 100 -->
      <g transform="translate(7.2 203.846177) scale(0.1 -0.1)">
       <use xlink:href="#DejaVuSans-31"/>
       <use xlink:href="#DejaVuSans-30" x="63.623047"/>
       <use xlink:href="#DejaVuSans-30" x="127.246094"/>
      </g>
     </g>
    </g>
    <g id="ytick_4">
     <g id="line2d_13">
      <g>
       <use xlink:href="#me292e48aad" x="33.2875" y="169.462437" style="stroke: #000000; stroke-width: 0.8"/>
      </g>
     </g>
     <g id="text_13">
      <!-- 150 -->
      <g transform="translate(7.2 173.261655) scale(0.1 -0.1)">
       <use xlink:href="#DejaVuSans-31"/>
       <use xlink:href="#DejaVuSans-35" x="63.623047"/>
       <use xlink:href="#DejaVuSans-30" x="127.246094"/>
      </g>
     </g>
    </g>
    <g id="ytick_5">
     <g id="line2d_14">
      <g>
       <use xlink:href="#me292e48aad" x="33.2875" y="138.877916" style="stroke: #000000; stroke-width: 0.8"/>
      </g>
     </g>
     <g id="text_14">
      <!-- 200 -->
      <g transform="translate(7.2 142.677134) scale(0.1 -0.1)">
       <use xlink:href="#DejaVuSans-32"/>
       <use xlink:href="#DejaVuSans-30" x="63.623047"/>
       <use xlink:href="#DejaVuSans-30" x="127.246094"/>
      </g>
     </g>
    </g>
    <g id="ytick_6">
     <g id="line2d_15">
      <g>
       <use xlink:href="#me292e48aad" x="33.2875" y="108.293394" style="stroke: #000000; stroke-width: 0.8"/>
      </g>
     </g>
     <g id="text_15">
      <!-- 250 -->
      <g transform="translate(7.2 112.092613) scale(0.1 -0.1)">
       <use xlink:href="#DejaVuSans-32"/>
       <use xlink:href="#DejaVuSans-35" x="63.623047"/>
       <use xlink:href="#DejaVuSans-30" x="127.246094"/>
      </g>
     </g>
    </g>
    <g id="ytick_7">
     <g id="line2d_16">
      <g>
       <use xlink:href="#me292e48aad" x="33.2875" y="77.708873" style="stroke: #000000; stroke-width: 0.8"/>
      </g>
     </g>
     <g id="text_16">
      <!-- 300 -->
      <g transform="translate(7.2 81.508092) scale(0.1 -0.1)">
       <defs>
        <path id="DejaVuSans-33" d="M 2597 2516 
Q 3050 2419 3304 2112 
Q 3559 1806 3559 1356 
Q 3559 666 3084 287 
Q 2609 -91 1734 -91 
Q 1441 -91 1130 -33 
Q 819 25 488 141 
L 488 750 
Q 750 597 1062 519 
Q 1375 441 1716 441 
Q 2309 441 2620 675 
Q 2931 909 2931 1356 
Q 2931 1769 2642 2001 
Q 2353 2234 1838 2234 
L 1294 2234 
L 1294 2753 
L 1863 2753 
Q 2328 2753 2575 2939 
Q 2822 3125 2822 3475 
Q 2822 3834 2567 4026 
Q 2313 4219 1838 4219 
Q 1578 4219 1281 4162 
Q 984 4106 628 3988 
L 628 4550 
Q 988 4650 1302 4700 
Q 1616 4750 1894 4750 
Q 2613 4750 3031 4423 
Q 3450 4097 3450 3541 
Q 3450 3153 3228 2886 
Q 3006 2619 2597 2516 
z
" transform="scale(0.015625)"/>
       </defs>
       <use xlink:href="#DejaVuSans-33"/>
       <use xlink:href="#DejaVuSans-30" x="63.623047"/>
       <use xlink:href="#DejaVuSans-30" x="127.246094"/>
      </g>
     </g>
    </g>
    <g id="ytick_8">
     <g id="line2d_17">
      <g>
       <use xlink:href="#me292e48aad" x="33.2875" y="47.124352" style="stroke: #000000; stroke-width: 0.8"/>
      </g>
     </g>
     <g id="text_17">
      <!-- 350 -->
      <g transform="translate(7.2 50.923571) scale(0.1 -0.1)">
       <use xlink:href="#DejaVuSans-33"/>
       <use xlink:href="#DejaVuSans-35" x="63.623047"/>
       <use xlink:href="#DejaVuSans-30" x="127.246094"/>
      </g>
     </g>
    </g>
    <g id="ytick_9">
     <g id="line2d_18">
      <g>
       <use xlink:href="#me292e48aad" x="33.2875" y="16.539831" style="stroke: #000000; stroke-width: 0.8"/>
      </g>
     </g>
     <g id="text_18">
      <!-- 400 -->
      <g transform="translate(7.2 20.33905) scale(0.1 -0.1)">
       <defs>
        <path id="DejaVuSans-34" d="M 2419 4116 
L 825 1625 
L 2419 1625 
L 2419 4116 
z
M 2253 4666 
L 3047 4666 
L 3047 1625 
L 3713 1625 
L 3713 1100 
L 3047 1100 
L 3047 0 
L 2419 0 
L 2419 1100 
L 313 1100 
L 313 1709 
L 2253 4666 
z
" transform="scale(0.015625)"/>
       </defs>
       <use xlink:href="#DejaVuSans-34"/>
       <use xlink:href="#DejaVuSans-30" x="63.623047"/>
       <use xlink:href="#DejaVuSans-30" x="127.246094"/>
      </g>
     </g>
    </g>
   </g>
   <g id="line2d_19">
    <path d="M 49.520227 261.216 
L 53.598802 108.293394 
L 57.677377 52.036312 
L 61.755951 31.340488 
L 65.834526 23.726919 
L 69.913101 20.926044 
L 73.991675 19.89566 
L 78.07025 19.516602 
L 82.148825 19.377155 
L 86.227399 19.325855 
L 90.305974 19.306983 
L 94.384549 19.30004 
L 98.463124 19.297486 
L 102.541698 19.296547 
L 106.620273 19.296201 
L 110.698848 19.296074 
L 114.777422 19.296027 
L 118.855997 19.29601 
L 122.934572 19.296004 
L 127.013146 19.296001 
L 131.091721 19.296 
L 135.170296 19.296 
L 139.24887 19.296 
L 143.327445 19.296 
L 147.40602 19.296 
L 151.484595 19.296 
L 155.563169 19.296 
L 159.641744 19.296 
L 163.720319 19.296 
L 167.798893 19.296 
L 171.877468 19.296 
L 175.956043 19.296 
L 180.034617 19.296 
L 184.113192 19.296 
L 188.191767 19.296 
L 192.270341 19.296 
L 196.348916 19.296 
L 200.427491 19.296 
L 204.506066 19.296 
L 208.58464 19.296 
L 212.663215 19.296 
L 216.74179 19.296 
L 220.820364 19.296 
L 224.898939 19.296 
L 228.977514 19.296 
L 233.056088 19.296 
L 237.134663 19.296 
L 241.213238 19.296 
L 245.291812 19.296 
L 249.370387 19.296 
L 253.448962 19.296 
L 257.527537 19.296 
L 261.606111 19.296 
L 265.684686 19.296 
L 269.763261 19.296 
L 273.841835 19.296 
L 277.92041 19.296 
L 281.998985 19.296 
L 286.077559 19.296 
L 290.156134 19.296 
L 294.234709 19.296 
L 298.313283 19.296 
L 302.391858 19.296 
L 306.470433 19.296 
L 310.549008 19.296 
L 314.627582 19.296 
L 318.706157 19.296 
L 322.784732 19.296 
L 326.863306 19.296 
L 330.941881 19.296 
L 335.020456 19.296 
L 339.09903 19.296 
L 343.177605 19.296 
L 347.25618 19.296 
L 351.334754 19.296 
L 355.413329 19.296 
L 359.491904 19.296 
L 363.570479 19.296 
L 367.649053 19.296 
L 371.727628 19.296 
" clip-path="url(#pe27cb84536)" style="fill: none; stroke: #1f77b4; stroke-width: 1.5; stroke-linecap: square"/>
   </g>
   <g id="line2d_20">
    <path d="M 49.520227 261.216 
L 53.598802 261.216 
L 57.677377 164.550477 
L 61.755951 93.42796 
L 65.834526 54.181192 
L 69.913101 34.93042 
L 73.991675 26.077966 
L 78.07025 22.170003 
L 82.148825 20.492734 
L 86.227399 19.787554 
L 90.305974 19.495705 
L 94.384549 19.37641 
L 98.463124 19.328135 
L 102.541698 19.308761 
L 106.620273 19.30104 
L 110.698848 19.297981 
L 114.777422 19.296776 
L 118.855997 19.296303 
L 122.934572 19.296118 
L 127.013146 19.296046 
L 131.091721 19.296018 
L 135.170296 19.296007 
L 139.24887 19.296003 
L 143.327445 19.296001 
L 147.40602 19.296 
L 151.484595 19.296 
L 155.563169 19.296 
L 159.641744 19.296 
L 163.720319 19.296 
L 167.798893 19.296 
L 171.877468 19.296 
L 175.956043 19.296 
L 180.034617 19.296 
L 184.113192 19.296 
L 188.191767 19.296 
L 192.270341 19.296 
L 196.348916 19.296 
L 200.427491 19.296 
L 204.506066 19.296 
L 208.58464 19.296 
L 212.663215 19.296 
L 216.74179 19.296 
L 220.820364 19.296 
L 224.898939 19.296 
L 228.977514 19.296 
L 233.056088 19.296 
L 237.134663 19.296 
L 241.213238 19.296 
L 245.291812 19.296 
L 249.370387 19.296 
L 253.448962 19.296 
L 257.527537 19.296 
L 261.606111 19.296 
L 265.684686 19.296 
L 269.763261 19.296 
L 273.841835 19.296 
L 277.92041 19.296 
L 281.998985 19.296 
L 286.077559 19.296 
L 290.156134 19.296 
L 294.234709 19.296 
L 298.313283 19.296 
L 302.391858 19.296 
L 306.470433 19.296 
L 310.549008 19.296 
L 314.627582 19.296 
L 318.706157 19.296 
L 322.784732 19.296 
L 326.863306 19.296 
L 330.941881 19.296 
L 335.020456 19.296 
L 339.09903 19.296 
L 343.177605 19.296 
L 347.25618 19.296 
L 351.334754 19.296 
L 355.413329 19.296 
L 359.491904 19.296 
L 363.570479 19.296 
L 367.649053 19.296 
L 371.727628 19.296 
" clip-path="url(#pe27cb84536)" style="fill: none; stroke: #ff7f0e; stroke-width: 1.5; stroke-linecap: square"/>
   </g>
   <g id="line2d_21">
    <path d="M 49.520227 261.216 
L 51.151657 209.222314 
L 52.783087 181.084555 
L 54.414517 159.67539 
L 56.045947 148.053272 
L 57.677377 132.149321 
L 59.308807 127.867488 
L 60.940236 122.973965 
L 64.203096 111.963537 
L 65.834526 111.351847 
L 67.465956 115.633679 
L 69.097386 104.623252 
L 70.728816 102.17649 
L 72.360246 94.836205 
L 73.991675 96.059586 
L 75.623105 100.341419 
L 77.254535 94.836205 
L 78.885965 104.623252 
L 80.517395 111.963537 
L 82.148825 116.24537 
L 83.780255 110.128466 
L 85.411685 108.293394 
L 87.043114 107.070014 
L 88.674544 112.575227 
L 90.305974 113.186918 
L 91.937404 112.575227 
L 93.568834 115.021989 
L 95.200264 114.410299 
L 96.831694 117.468751 
L 98.463124 111.351847 
L 100.094553 109.516775 
L 101.725983 107.070014 
L 103.357413 108.905085 
L 104.988843 105.234942 
L 108.251703 100.341419 
L 109.883133 107.681704 
L 111.514563 104.623252 
L 113.145992 109.516775 
L 114.777422 111.963537 
L 116.408852 103.399871 
L 118.040282 103.399871 
L 119.671712 100.953109 
L 121.303142 110.128466 
L 122.934572 109.516775 
L 124.566002 114.410299 
L 126.197431 115.021989 
L 127.828861 108.293394 
L 129.460291 99.729728 
L 132.723151 103.399871 
L 134.354581 106.458323 
L 135.986011 106.458323 
L 137.617441 109.516775 
L 139.24887 103.399871 
L 140.8803 102.17649 
L 142.51173 95.447896 
L 144.14316 107.070014 
L 145.77459 102.17649 
L 147.40602 105.846633 
L 149.03745 100.341419 
L 150.66888 107.681704 
L 152.30031 106.458323 
L 153.931739 104.011561 
L 155.563169 116.24537 
L 157.194599 120.527203 
L 158.826029 116.85706 
L 160.457459 110.128466 
L 162.088889 105.846633 
L 163.720319 108.293394 
L 165.351749 109.516775 
L 166.983178 107.070014 
L 168.614608 103.399871 
L 170.246038 104.623252 
L 171.877468 108.293394 
L 173.508898 107.681704 
L 176.771758 100.341419 
L 178.403188 107.070014 
L 180.034617 97.282967 
L 181.666047 99.729728 
L 183.297477 98.506348 
L 184.928907 106.458323 
L 188.191767 102.788181 
L 189.823197 102.17649 
L 191.454627 105.234942 
L 193.086056 110.128466 
L 194.717486 111.963537 
L 196.348916 111.351847 
L 197.980346 104.011561 
L 199.611776 113.186918 
L 201.243206 112.575227 
L 202.874636 122.973965 
L 204.506066 119.303822 
L 206.137495 116.85706 
L 207.768925 116.24537 
L 209.400355 111.963537 
L 211.031785 111.963537 
L 212.663215 107.681704 
L 214.294645 110.128466 
L 215.926075 110.128466 
L 217.557505 110.740156 
L 219.188934 113.186918 
L 220.820364 114.410299 
L 222.451794 110.740156 
L 224.083224 106.458323 
L 225.714654 107.070014 
L 227.346084 98.506348 
L 228.977514 100.953109 
L 230.608944 99.729728 
L 232.240373 108.293394 
L 233.871803 96.059586 
L 235.503233 88.10761 
L 237.134663 95.447896 
L 238.766093 100.953109 
L 240.397523 104.011561 
L 242.028953 102.788181 
L 243.660383 99.118038 
L 245.291812 107.681704 
L 246.923242 105.234942 
L 250.186102 115.021989 
L 251.817532 113.798608 
L 253.448962 107.681704 
L 255.080392 99.729728 
L 256.711822 105.846633 
L 258.343251 108.293394 
L 259.974681 107.681704 
L 261.606111 107.681704 
L 263.237541 105.234942 
L 264.868971 108.905085 
L 266.500401 96.059586 
L 268.131831 94.836205 
L 269.763261 94.224515 
L 271.39469 97.894657 
L 273.02612 104.623252 
L 274.65755 104.623252 
L 276.28898 103.399871 
L 277.92041 107.070014 
L 279.55184 108.905085 
L 281.18327 95.447896 
L 282.8147 94.836205 
L 284.44613 98.506348 
L 286.077559 107.070014 
L 287.708989 114.410299 
L 289.340419 111.351847 
L 290.971849 109.516775 
L 292.603279 113.186918 
L 294.234709 107.070014 
L 295.866139 111.351847 
L 297.497569 113.186918 
L 299.128998 117.468751 
L 300.760428 122.362274 
L 302.391858 121.750584 
L 304.023288 117.468751 
L 305.654718 121.750584 
L 307.286148 124.809036 
L 308.917578 122.973965 
L 310.549008 120.527203 
L 312.180437 109.516775 
L 313.811867 113.186918 
L 315.443297 109.516775 
L 317.074727 110.740156 
L 318.706157 116.24537 
L 320.337587 108.293394 
L 321.969017 107.070014 
L 323.600447 103.399871 
L 325.231876 113.798608 
L 326.863306 113.186918 
L 328.494736 117.468751 
L 330.126166 111.963537 
L 331.757596 102.788181 
L 333.389026 108.293394 
L 335.020456 107.070014 
L 336.651886 113.186918 
L 338.283315 109.516775 
L 339.914745 108.905085 
L 341.546175 106.458323 
L 343.177605 108.905085 
L 344.809035 109.516775 
L 346.440465 107.070014 
L 348.071895 106.458323 
L 349.703325 104.623252 
L 351.334754 108.293394 
L 352.966184 110.740156 
L 354.597614 112.575227 
L 356.229044 107.070014 
L 357.860474 115.021989 
L 359.491904 108.905085 
L 361.123334 105.234942 
L 362.754764 104.011561 
L 364.386193 96.671276 
L 366.017623 107.681704 
L 367.649053 106.458323 
L 369.280483 108.905085 
L 370.911913 107.070014 
L 372.543343 118.692132 
L 374.174773 110.740156 
L 374.174773 110.740156 
" clip-path="url(#pe27cb84536)" style="fill: none; stroke: #2ca02c; stroke-width: 1.5; stroke-linecap: square"/>
   </g>
   <g id="line2d_22">
    <path d="M 49.520227 261.216 
L 51.151657 253.264025 
L 52.783087 226.349646 
L 54.414517 205.552172 
L 56.045947 179.861174 
L 57.677377 169.462437 
L 59.308807 155.393557 
L 60.940236 143.159748 
L 62.571666 145.60651 
L 64.203096 133.984392 
L 65.834526 126.644107 
L 67.465956 123.585655 
L 69.097386 127.867488 
L 70.728816 121.750584 
L 72.360246 124.809036 
L 73.991675 126.644107 
L 75.623105 111.963537 
L 77.254535 110.740156 
L 78.885965 102.17649 
L 80.517395 94.836205 
L 82.148825 96.671276 
L 83.780255 103.399871 
L 85.411685 98.506348 
L 87.043114 94.836205 
L 88.674544 99.729728 
L 90.305974 99.118038 
L 93.568834 94.224515 
L 95.200264 91.166063 
L 96.831694 109.516775 
L 100.094553 131.53763 
L 101.725983 133.984392 
L 103.357413 124.809036 
L 104.988843 121.750584 
L 106.620273 116.24537 
L 108.251703 109.516775 
L 109.883133 103.399871 
L 111.514563 99.118038 
L 113.145992 112.575227 
L 114.777422 110.740156 
L 116.408852 123.585655 
L 118.040282 119.915512 
L 119.671712 119.915512 
L 121.303142 104.623252 
L 122.934572 116.24537 
L 124.566002 108.905085 
L 126.197431 118.692132 
L 127.828861 119.303822 
L 129.460291 122.973965 
L 131.091721 106.458323 
L 132.723151 94.836205 
L 135.986011 113.798608 
L 137.617441 106.458323 
L 139.24887 113.798608 
L 140.8803 111.963537 
L 142.51173 120.527203 
L 144.14316 105.234942 
L 145.77459 111.963537 
L 147.40602 107.681704 
L 149.03745 113.186918 
L 150.66888 95.447896 
L 152.30031 107.070014 
L 153.931739 113.186918 
L 155.563169 107.681704 
L 157.194599 97.282967 
L 158.826029 107.681704 
L 160.457459 110.740156 
L 162.088889 120.527203 
L 163.720319 110.128466 
L 165.351749 107.070014 
L 166.983178 115.633679 
L 168.614608 112.575227 
L 170.246038 110.740156 
L 171.877468 120.527203 
L 173.508898 117.468751 
L 175.140328 112.575227 
L 176.771758 109.516775 
L 178.403188 105.234942 
L 180.034617 115.633679 
L 181.666047 114.410299 
L 183.297477 115.633679 
L 184.928907 107.070014 
L 186.560337 102.17649 
L 188.191767 107.070014 
L 189.823197 97.894657 
L 193.086056 97.894657 
L 194.717486 100.341419 
L 196.348916 107.070014 
L 197.980346 115.633679 
L 199.611776 107.070014 
L 201.243206 104.623252 
L 202.874636 96.671276 
L 204.506066 106.458323 
L 206.137495 102.788181 
L 207.768925 104.011561 
L 209.400355 111.963537 
L 211.031785 111.963537 
L 212.663215 114.410299 
L 214.294645 108.293394 
L 215.926075 115.021989 
L 217.557505 119.303822 
L 219.188934 117.468751 
L 220.820364 116.24537 
L 222.451794 109.516775 
L 224.083224 106.458323 
L 225.714654 108.293394 
L 227.346084 105.846633 
L 228.977514 107.681704 
L 230.608944 106.458323 
L 232.240373 100.341419 
L 233.871803 110.128466 
L 235.503233 124.197345 
L 237.134663 122.362274 
L 238.766093 114.410299 
L 240.397523 108.905085 
L 242.028953 113.186918 
L 243.660383 119.303822 
L 245.291812 111.963537 
L 246.923242 112.575227 
L 248.554672 107.681704 
L 250.186102 105.846633 
L 251.817532 111.963537 
L 253.448962 117.468751 
L 255.080392 122.362274 
L 256.711822 112.575227 
L 258.343251 118.080441 
L 259.974681 111.963537 
L 261.606111 111.351847 
L 263.237541 122.362274 
L 264.868971 99.118038 
L 266.500401 119.303822 
L 268.131831 115.021989 
L 269.763261 117.468751 
L 271.39469 99.118038 
L 273.02612 89.942682 
L 274.65755 96.671276 
L 276.28898 105.846633 
L 277.92041 105.846633 
L 279.55184 107.070014 
L 281.18327 113.186918 
L 282.8147 121.138893 
L 286.077559 99.729728 
L 287.708989 95.447896 
L 289.340419 106.458323 
L 290.971849 107.070014 
L 292.603279 105.234942 
L 294.234709 115.633679 
L 295.866139 104.623252 
L 297.497569 103.399871 
L 299.128998 116.24537 
L 300.760428 107.681704 
L 302.391858 110.740156 
L 304.023288 112.575227 
L 305.654718 98.506348 
L 307.286148 102.17649 
L 308.917578 106.458323 
L 310.549008 100.341419 
L 312.180437 110.128466 
L 313.811867 111.351847 
L 315.443297 105.846633 
L 317.074727 110.128466 
L 318.706157 103.399871 
L 320.337587 115.021989 
L 323.600447 116.24537 
L 325.231876 102.788181 
L 326.863306 101.5648 
L 328.494736 97.894657 
L 330.126166 101.5648 
L 331.757596 116.85706 
L 333.389026 104.011561 
L 335.020456 104.011561 
L 336.651886 100.341419 
L 338.283315 99.118038 
L 339.914745 100.953109 
L 341.546175 94.836205 
L 343.177605 90.554372 
L 344.809035 94.836205 
L 346.440465 93.612824 
L 348.071895 94.836205 
L 349.703325 116.24537 
L 351.334754 118.080441 
L 352.966184 108.293394 
L 354.597614 107.070014 
L 356.229044 115.021989 
L 357.860474 105.234942 
L 359.491904 111.351847 
L 361.123334 115.021989 
L 362.754764 108.293394 
L 364.386193 108.905085 
L 366.017623 100.341419 
L 367.649053 112.575227 
L 369.280483 116.85706 
L 370.911913 114.410299 
L 372.543343 100.341419 
L 374.174773 110.740156 
L 374.174773 110.740156 
" clip-path="url(#pe27cb84536)" style="fill: none; stroke: #d62728; stroke-width: 1.5; stroke-linecap: square"/>
   </g>
   <g id="patch_3">
    <path d="M 33.2875 273.312 
L 33.2875 7.2 
" style="fill: none; stroke: #000000; stroke-width: 0.8; stroke-linejoin: miter; stroke-linecap: square"/>
   </g>
   <g id="patch_4">
    <path d="M 390.4075 273.312 
L 390.4075 7.2 
" style="fill: none; stroke: #000000; stroke-width: 0.8; stroke-linejoin: miter; stroke-linecap: square"/>
   </g>
   <g id="patch_5">
    <path d="M 33.2875 273.312 
L 390.4075 273.312 
" style="fill: none; stroke: #000000; stroke-width: 0.8; stroke-linejoin: miter; stroke-linecap: square"/>
   </g>
   <g id="patch_6">
    <path d="M 33.2875 7.2 
L 390.4075 7.2 
" style="fill: none; stroke: #000000; stroke-width: 0.8; stroke-linejoin: miter; stroke-linecap: square"/>
   </g>
  </g>
 </g>
 <defs>
  <clipPath id="pe27cb84536">
   <rect x="33.2875" y="7.2" width="357.12" height="266.112"/>
  </clipPath>
 </defs>
</svg>
