<?xml version="1.0" encoding="utf-8" standalone="no"?>
<!DOCTYPE svg PUBLIC "-//W3C//DTD SVG 1.1//EN"
  "http://www.w3.org/Graphics/SVG/1.1/DTD/svg11.dtd">
<svg xmlns:xlink="http://www.w3.org/1999/xlink" width="403.97pt" height="297.190125pt" viewBox="0 0 403.97 297.190125" xmlns="http://www.w3.org/2000/svg" version="1.1">
 <metadata>
  <rdf:RDF xmlns:dc="http://purl.org/dc/elements/1.1/" xmlns:cc="http://creativecommons.org/ns#" xmlns:rdf="http://www.w3.org/1999/02/22-rdf-syntax-ns#">
   <cc:Work>
    <dc:type rdf:resource="http://purl.org/dc/dcmitype/StillImage"/>
    <dc:date>2024-09-04T22:46:36.208027</dc:date>
    <dc:format>image/svg+xml</dc:format>
    <dc:creator>
     <cc:Agent>
      <dc:title>Matplotlib v3.9.2, https://matplotlib.org/</dc:title>
     </cc:Agent>
    </dc:creator>
   </cc:Work>
  </rdf:RDF>
 </metadata>
 <defs>
  <style type="text/css">*{stroke-linejoin: round; stroke-linecap: butt}</style>
 </defs>
 <g id="figure_1">
  <g id="patch_1">
   <path d="M 0 297.190125 
L 403.97 297.190125 
L 403.97 0 
L 0 0 
z
" style="fill: #ffffff"/>
  </g>
  <g id="axes_1">
   <g id="patch_2">
    <path d="M 39.65 273.312 
L 396.77 273.312 
L 396.77 7.2 
L 39.65 7.2 
z
" style="fill: #ffffff"/>
   </g>
   <g id="matplotlib.axis_1">
    <g id="xtick_1">
     <g id="line2d_1">
      <defs>
       <path id="m6ae5aff754" d="M 0 0 
L 0 3.5 
" style="stroke: #000000; stroke-width: 0.8"/>
      </defs>
      <g>
       <use xlink:href="#m6ae5aff754" x="55.882727" y="273.312" style="stroke: #000000; stroke-width: 0.8"/>
      </g>
     </g>
     <g id="text_1">
      <!-- 0.0 -->
      <g transform="translate(47.931165 287.910437) scale(0.1 -0.1)">
       <defs>
        <path id="DejaVuSans-30" d="M 2034 4250 
Q 1547 4250 1301 3770 
Q 1056 3291 1056 2328 
Q 1056 1369 1301 889 
Q 1547 409 2034 409 
Q 2525 409 2770 889 
Q 3016 1369 3016 2328 
Q 3016 3291 2770 3770 
Q 2525 4250 2034 4250 
z
M 2034 4750 
Q 2819 4750 3233 4129 
Q 3647 3509 3647 2328 
Q 3647 1150 3233 529 
Q 2819 -91 2034 -91 
Q 1250 -91 836 529 
Q 422 1150 422 2328 
Q 422 3509 836 4129 
Q 1250 4750 2034 4750 
z
" transform="scale(0.015625)"/>
        <path id="DejaVuSans-2e" d="M 684 794 
L 1344 794 
L 1344 0 
L 684 0 
L 684 794 
z
" transform="scale(0.015625)"/>
       </defs>
       <use xlink:href="#DejaVuSans-30"/>
       <use xlink:href="#DejaVuSans-2e" x="63.623047"/>
       <use xlink:href="#DejaVuSans-30" x="95.410156"/>
      </g>
     </g>
    </g>
    <g id="xtick_2">
     <g id="line2d_2">
      <g>
       <use xlink:href="#m6ae5aff754" x="96.668474" y="273.312" style="stroke: #000000; stroke-width: 0.8"/>
      </g>
     </g>
     <g id="text_2">
      <!-- 2.5 -->
      <g transform="translate(88.716912 287.910437) scale(0.1 -0.1)">
       <defs>
        <path id="DejaVuSans-32" d="M 1228 531 
L 3431 531 
L 3431 0 
L 469 0 
L 469 531 
Q 828 903 1448 1529 
Q 2069 2156 2228 2338 
Q 2531 2678 2651 2914 
Q 2772 3150 2772 3378 
Q 2772 3750 2511 3984 
Q 2250 4219 1831 4219 
Q 1534 4219 1204 4116 
Q 875 4013 500 3803 
L 500 4441 
Q 881 4594 1212 4672 
Q 1544 4750 1819 4750 
Q 2544 4750 2975 4387 
Q 3406 4025 3406 3419 
Q 3406 3131 3298 2873 
Q 3191 2616 2906 2266 
Q 2828 2175 2409 1742 
Q 1991 1309 1228 531 
z
" transform="scale(0.015625)"/>
        <path id="DejaVuSans-35" d="M 691 4666 
L 3169 4666 
L 3169 4134 
L 1269 4134 
L 1269 2991 
Q 1406 3038 1543 3061 
Q 1681 3084 1819 3084 
Q 2600 3084 3056 2656 
Q 3513 2228 3513 1497 
Q 3513 744 3044 326 
Q 2575 -91 1722 -91 
Q 1428 -91 1123 -41 
Q 819 9 494 109 
L 494 744 
Q 775 591 1075 516 
Q 1375 441 1709 441 
Q 2250 441 2565 725 
Q 2881 1009 2881 1497 
Q 2881 1984 2565 2268 
Q 2250 2553 1709 2553 
Q 1456 2553 1204 2497 
Q 953 2441 691 2322 
L 691 4666 
z
" transform="scale(0.015625)"/>
       </defs>
       <use xlink:href="#DejaVuSans-32"/>
       <use xlink:href="#DejaVuSans-2e" x="63.623047"/>
       <use xlink:href="#DejaVuSans-35" x="95.410156"/>
      </g>
     </g>
    </g>
    <g id="xtick_3">
     <g id="line2d_3">
      <g>
       <use xlink:href="#m6ae5aff754" x="137.454221" y="273.312" style="stroke: #000000; stroke-width: 0.8"/>
      </g>
     </g>
     <g id="text_3">
      <!-- 5.0 -->
      <g transform="translate(129.502659 287.910437) scale(0.1 -0.1)">
       <use xlink:href="#DejaVuSans-35"/>
       <use xlink:href="#DejaVuSans-2e" x="63.623047"/>
       <use xlink:href="#DejaVuSans-30" x="95.410156"/>
      </g>
     </g>
    </g>
    <g id="xtick_4">
     <g id="line2d_4">
      <g>
       <use xlink:href="#m6ae5aff754" x="178.239968" y="273.312" style="stroke: #000000; stroke-width: 0.8"/>
      </g>
     </g>
     <g id="text_4">
      <!-- 7.5 -->
      <g transform="translate(170.288406 287.910437) scale(0.1 -0.1)">
       <defs>
        <path id="DejaVuSans-37" d="M 525 4666 
L 3525 4666 
L 3525 4397 
L 1831 0 
L 1172 0 
L 2766 4134 
L 525 4134 
L 525 4666 
z
" transform="scale(0.015625)"/>
       </defs>
       <use xlink:href="#DejaVuSans-37"/>
       <use xlink:href="#DejaVuSans-2e" x="63.623047"/>
       <use xlink:href="#DejaVuSans-35" x="95.410156"/>
      </g>
     </g>
    </g>
    <g id="xtick_5">
     <g id="line2d_5">
      <g>
       <use xlink:href="#m6ae5aff754" x="219.025715" y="273.312" style="stroke: #000000; stroke-width: 0.8"/>
      </g>
     </g>
     <g id="text_5">
      <!-- 10.0 -->
      <g transform="translate(207.892902 287.910437) scale(0.1 -0.1)">
       <defs>
        <path id="DejaVuSans-31" d="M 794 531 
L 1825 531 
L 1825 4091 
L 703 3866 
L 703 4441 
L 1819 4666 
L 2450 4666 
L 2450 531 
L 3481 531 
L 3481 0 
L 794 0 
L 794 531 
z
" transform="scale(0.015625)"/>
       </defs>
       <use xlink:href="#DejaVuSans-31"/>
       <use xlink:href="#DejaVuSans-30" x="63.623047"/>
       <use xlink:href="#DejaVuSans-2e" x="127.246094"/>
       <use xlink:href="#DejaVuSans-30" x="159.033203"/>
      </g>
     </g>
    </g>
    <g id="xtick_6">
     <g id="line2d_6">
      <g>
       <use xlink:href="#m6ae5aff754" x="259.811462" y="273.312" style="stroke: #000000; stroke-width: 0.8"/>
      </g>
     </g>
     <g id="text_6">
      <!-- 12.5 -->
      <g transform="translate(248.678649 287.910437) scale(0.1 -0.1)">
       <use xlink:href="#DejaVuSans-31"/>
       <use xlink:href="#DejaVuSans-32" x="63.623047"/>
       <use xlink:href="#DejaVuSans-2e" x="127.246094"/>
       <use xlink:href="#DejaVuSans-35" x="159.033203"/>
      </g>
     </g>
    </g>
    <g id="xtick_7">
     <g id="line2d_7">
      <g>
       <use xlink:href="#m6ae5aff754" x="300.597209" y="273.312" style="stroke: #000000; stroke-width: 0.8"/>
      </g>
     </g>
     <g id="text_7">
      <!-- 15.0 -->
      <g transform="translate(289.464396 287.910437) scale(0.1 -0.1)">
       <use xlink:href="#DejaVuSans-31"/>
       <use xlink:href="#DejaVuSans-35" x="63.623047"/>
       <use xlink:href="#DejaVuSans-2e" x="127.246094"/>
       <use xlink:href="#DejaVuSans-30" x="159.033203"/>
      </g>
     </g>
    </g>
    <g id="xtick_8">
     <g id="line2d_8">
      <g>
       <use xlink:href="#m6ae5aff754" x="341.382956" y="273.312" style="stroke: #000000; stroke-width: 0.8"/>
      </g>
     </g>
     <g id="text_8">
      <!-- 17.5 -->
      <g transform="translate(330.250143 287.910437) scale(0.1 -0.1)">
       <use xlink:href="#DejaVuSans-31"/>
       <use xlink:href="#DejaVuSans-37" x="63.623047"/>
       <use xlink:href="#DejaVuSans-2e" x="127.246094"/>
       <use xlink:href="#DejaVuSans-35" x="159.033203"/>
      </g>
     </g>
    </g>
    <g id="xtick_9">
     <g id="line2d_9">
      <g>
       <use xlink:href="#m6ae5aff754" x="382.168703" y="273.312" style="stroke: #000000; stroke-width: 0.8"/>
      </g>
     </g>
     <g id="text_9">
      <!-- 20.0 -->
      <g transform="translate(371.03589 287.910437) scale(0.1 -0.1)">
       <use xlink:href="#DejaVuSans-32"/>
       <use xlink:href="#DejaVuSans-30" x="63.623047"/>
       <use xlink:href="#DejaVuSans-2e" x="127.246094"/>
       <use xlink:href="#DejaVuSans-30" x="159.033203"/>
      </g>
     </g>
    </g>
   </g>
   <g id="matplotlib.axis_2">
    <g id="ytick_1">
     <g id="line2d_10">
      <defs>
       <path id="ma7084a9836" d="M 0 0 
L -3.5 0 
" style="stroke: #000000; stroke-width: 0.8"/>
      </defs>
      <g>
       <use xlink:href="#ma7084a9836" x="39.65" y="261.216" style="stroke: #000000; stroke-width: 0.8"/>
      </g>
     </g>
     <g id="text_10">
      <!-- 0 -->
      <g transform="translate(26.2875 265.015219) scale(0.1 -0.1)">
       <use xlink:href="#DejaVuSans-30"/>
      </g>
     </g>
    </g>
    <g id="ytick_2">
     <g id="line2d_11">
      <g>
       <use xlink:href="#ma7084a9836" x="39.65" y="221.725305" style="stroke: #000000; stroke-width: 0.8"/>
      </g>
     </g>
     <g id="text_11">
      <!-- 500 -->
      <g transform="translate(13.5625 225.524523) scale(0.1 -0.1)">
       <use xlink:href="#DejaVuSans-35"/>
       <use xlink:href="#DejaVuSans-30" x="63.623047"/>
       <use xlink:href="#DejaVuSans-30" x="127.246094"/>
      </g>
     </g>
    </g>
    <g id="ytick_3">
     <g id="line2d_12">
      <g>
       <use xlink:href="#ma7084a9836" x="39.65" y="182.234609" style="stroke: #000000; stroke-width: 0.8"/>
      </g>
     </g>
     <g id="text_12">
      <!-- 1000 -->
      <g transform="translate(7.2 186.033828) scale(0.1 -0.1)">
       <use xlink:href="#DejaVuSans-31"/>
       <use xlink:href="#DejaVuSans-30" x="63.623047"/>
       <use xlink:href="#DejaVuSans-30" x="127.246094"/>
       <use xlink:href="#DejaVuSans-30" x="190.869141"/>
      </g>
     </g>
    </g>
    <g id="ytick_4">
     <g id="line2d_13">
      <g>
       <use xlink:href="#ma7084a9836" x="39.65" y="142.743914" style="stroke: #000000; stroke-width: 0.8"/>
      </g>
     </g>
     <g id="text_13">
      <!-- 1500 -->
      <g transform="translate(7.2 146.543133) scale(0.1 -0.1)">
       <use xlink:href="#DejaVuSans-31"/>
       <use xlink:href="#DejaVuSans-35" x="63.623047"/>
       <use xlink:href="#DejaVuSans-30" x="127.246094"/>
       <use xlink:href="#DejaVuSans-30" x="190.869141"/>
      </g>
     </g>
    </g>
    <g id="ytick_5">
     <g id="line2d_14">
      <g>
       <use xlink:href="#ma7084a9836" x="39.65" y="103.253218" style="stroke: #000000; stroke-width: 0.8"/>
      </g>
     </g>
     <g id="text_14">
      <!-- 2000 -->
      <g transform="translate(7.2 107.052437) scale(0.1 -0.1)">
       <use xlink:href="#DejaVuSans-32"/>
       <use xlink:href="#DejaVuSans-30" x="63.623047"/>
       <use xlink:href="#DejaVuSans-30" x="127.246094"/>
       <use xlink:href="#DejaVuSans-30" x="190.869141"/>
      </g>
     </g>
    </g>
    <g id="ytick_6">
     <g id="line2d_15">
      <g>
       <use xlink:href="#ma7084a9836" x="39.65" y="63.762523" style="stroke: #000000; stroke-width: 0.8"/>
      </g>
     </g>
     <g id="text_15">
      <!-- 2500 -->
      <g transform="translate(7.2 67.561742) scale(0.1 -0.1)">
       <use xlink:href="#DejaVuSans-32"/>
       <use xlink:href="#DejaVuSans-35" x="63.623047"/>
       <use xlink:href="#DejaVuSans-30" x="127.246094"/>
       <use xlink:href="#DejaVuSans-30" x="190.869141"/>
      </g>
     </g>
    </g>
    <g id="ytick_7">
     <g id="line2d_16">
      <g>
       <use xlink:href="#ma7084a9836" x="39.65" y="24.271828" style="stroke: #000000; stroke-width: 0.8"/>
      </g>
     </g>
     <g id="text_16">
      <!-- 3000 -->
      <g transform="translate(7.2 28.071046) scale(0.1 -0.1)">
       <defs>
        <path id="DejaVuSans-33" d="M 2597 2516 
Q 3050 2419 3304 2112 
Q 3559 1806 3559 1356 
Q 3559 666 3084 287 
Q 2609 -91 1734 -91 
Q 1441 -91 1130 -33 
Q 819 25 488 141 
L 488 750 
Q 750 597 1062 519 
Q 1375 441 1716 441 
Q 2309 441 2620 675 
Q 2931 909 2931 1356 
Q 2931 1769 2642 2001 
Q 2353 2234 1838 2234 
L 1294 2234 
L 1294 2753 
L 1863 2753 
Q 2328 2753 2575 2939 
Q 2822 3125 2822 3475 
Q 2822 3834 2567 4026 
Q 2313 4219 1838 4219 
Q 1578 4219 1281 4162 
Q 984 4106 628 3988 
L 628 4550 
Q 988 4650 1302 4700 
Q 1616 4750 1894 4750 
Q 2613 4750 3031 4423 
Q 3450 4097 3450 3541 
Q 3450 3153 3228 2886 
Q 3006 2619 2597 2516 
z
" transform="scale(0.015625)"/>
       </defs>
       <use xlink:href="#DejaVuSans-33"/>
       <use xlink:href="#DejaVuSans-30" x="63.623047"/>
       <use xlink:href="#DejaVuSans-30" x="127.246094"/>
       <use xlink:href="#DejaVuSans-30" x="190.869141"/>
      </g>
     </g>
    </g>
   </g>
   <g id="line2d_17">
    <path d="M 55.882727 261.216 
L 59.961302 241.470652 
L 64.039877 223.628756 
L 68.118451 207.506819 
L 72.197026 192.939036 
L 76.275601 179.775588 
L 80.354175 167.881096 
L 84.43275 157.133233 
L 88.511325 147.421464 
L 92.589899 138.645909 
L 96.668474 130.716319 
L 100.747049 123.55114 
L 104.825624 117.076685 
L 108.904198 111.226367 
L 112.982773 105.94002 
L 117.061348 101.163277 
L 121.139922 96.847012 
L 125.218497 92.946834 
L 129.297072 89.422634 
L 133.375646 86.238167 
L 137.454221 83.360682 
L 141.532796 80.760587 
L 145.61137 78.411141 
L 149.689945 76.288182 
L 153.76852 74.369876 
L 157.847095 72.636495 
L 161.925669 71.070211 
L 166.004244 69.654918 
L 170.082819 68.376058 
L 174.161393 67.220481 
L 178.239968 66.176301 
L 182.318543 65.232781 
L 186.397117 64.380215 
L 190.475692 63.609837 
L 194.554267 62.913724 
L 198.632841 62.284715 
L 202.711416 61.716343 
L 206.789991 61.202763 
L 210.868566 60.738691 
L 214.94714 60.319356 
L 219.025715 59.940445 
L 223.10429 59.598061 
L 227.182864 59.288682 
L 231.261439 59.009128 
L 235.340014 58.756523 
L 239.418588 58.528269 
L 243.497163 58.322018 
L 247.575738 58.13565 
L 251.654312 57.967248 
L 255.732887 57.81508 
L 259.811462 57.677581 
L 263.890037 57.553337 
L 267.968611 57.44107 
L 272.047186 57.339626 
L 276.125761 57.24796 
L 280.204335 57.165132 
L 284.28291 57.090288 
L 288.361485 57.022659 
L 292.440059 56.961549 
L 296.518634 56.906331 
L 300.597209 56.856435 
L 304.675783 56.811349 
L 308.754358 56.77061 
L 312.832933 56.733798 
L 316.911508 56.700534 
L 320.990082 56.670478 
L 325.068657 56.643318 
L 329.147232 56.618777 
L 333.225806 56.596602 
L 337.304381 56.576564 
L 341.382956 56.558458 
L 345.46153 56.542097 
L 349.540105 56.527314 
L 353.61868 56.513955 
L 357.697254 56.501885 
L 361.775829 56.490978 
L 365.854404 56.481122 
L 369.932979 56.472217 
L 374.011553 56.46417 
L 378.090128 56.456899 
" clip-path="url(#pc544351fdc)" style="fill: none; stroke: #1f77b4; stroke-width: 1.5; stroke-linecap: square"/>
   </g>
   <g id="line2d_18">
    <path d="M 55.882727 261.216 
L 59.961302 261.216 
L 64.039877 259.312548 
L 68.118451 256.146347 
L 72.197026 252.186513 
L 76.275601 247.773496 
L 80.354175 243.15153 
L 84.43275 238.493131 
L 88.511325 233.917585 
L 92.589899 229.504871 
L 96.668474 225.306128 
L 100.747049 221.35151 
L 104.825624 217.656068 
L 108.904198 214.224134 
L 112.982773 211.052579 
L 117.061348 208.133228 
L 121.139922 205.454628 
L 125.218497 203.003339 
L 129.297072 200.764872 
L 133.375646 198.724353 
L 137.454221 196.866983 
L 141.532796 195.178365 
L 145.61137 193.644703 
L 149.689945 192.25294 
L 153.76852 190.990825 
L 157.847095 189.846946 
L 161.925669 188.810728 
L 166.004244 187.872421 
L 170.082819 187.02306 
L 174.161393 186.254434 
L 178.239968 185.559034 
L 182.318543 184.93001 
L 186.397117 184.361123 
L 190.475692 183.846695 
L 194.554267 183.381568 
L 198.632841 182.961059 
L 202.711416 182.58092 
L 206.789991 182.237299 
L 210.868566 181.926707 
L 214.94714 181.645983 
L 219.025715 181.392264 
L 223.10429 181.162962 
L 227.182864 180.955732 
L 231.261439 180.768455 
L 235.340014 180.599213 
L 239.418588 180.446272 
L 243.497163 180.308063 
L 247.575738 180.18317 
L 251.654312 180.07031 
L 255.732887 179.968325 
L 259.811462 179.876168 
L 263.890037 179.792892 
L 267.968611 179.717642 
L 272.047186 179.649644 
L 276.125761 179.5882 
L 280.204335 179.532679 
L 284.28291 179.482509 
L 288.361485 179.437175 
L 292.440059 179.396211 
L 296.518634 179.359195 
L 300.597209 179.325747 
L 304.675783 179.295524 
L 308.754358 179.268214 
L 312.832933 179.243537 
L 316.911508 179.221238 
L 320.990082 179.201089 
L 325.068657 179.182882 
L 329.147232 179.166431 
L 333.225806 179.151565 
L 337.304381 179.138132 
L 341.382956 179.125994 
L 345.46153 179.115027 
L 349.540105 179.105116 
L 353.61868 179.096161 
L 357.697254 179.088069 
L 361.775829 179.080758 
L 365.854404 179.074151 
L 369.932979 179.068181 
L 374.011553 179.062786 
L 378.090128 179.057912 
" clip-path="url(#pc544351fdc)" style="fill: none; stroke: #ff7f0e; stroke-width: 1.5; stroke-linecap: square"/>
   </g>
   <g id="line2d_19">
    <path d="M 55.882727 261.216 
L 57.514157 252.922954 
L 59.145587 245.498703 
L 60.777017 239.022229 
L 62.408447 231.12409 
L 65.671307 217.381328 
L 67.302736 211.615687 
L 68.934166 205.139213 
L 70.565596 200.242366 
L 73.828456 188.711083 
L 75.459886 183.498311 
L 77.091316 178.838409 
L 78.722746 172.756842 
L 81.985605 161.541485 
L 85.248465 152.221681 
L 86.879895 148.904462 
L 88.511325 143.454746 
L 90.142755 139.979565 
L 91.774185 136.899291 
L 93.405614 131.923463 
L 95.037044 128.448282 
L 96.668474 125.920878 
L 98.299904 123.946343 
L 99.931334 120.313199 
L 101.562764 119.049497 
L 103.194194 114.468576 
L 104.825624 108.939879 
L 106.457053 107.281269 
L 108.088483 104.043032 
L 109.719913 102.22646 
L 111.351343 100.725814 
L 112.982773 97.250633 
L 114.614203 94.091377 
L 116.245633 91.95888 
L 117.877063 91.484991 
L 119.508492 87.693884 
L 121.139922 85.245461 
L 122.771352 84.534629 
L 124.402782 82.481113 
L 126.034212 79.005931 
L 129.297072 75.688713 
L 130.928502 72.371495 
L 134.191361 70.238997 
L 135.822791 67.079741 
L 137.454221 67.711593 
L 139.085651 65.263169 
L 140.717081 64.315393 
L 142.348511 64.394374 
L 143.979941 63.683542 
L 145.61137 60.050398 
L 147.2428 60.20836 
L 148.87423 59.339565 
L 150.50566 59.734472 
L 152.13709 58.47077 
L 153.76852 58.233826 
L 155.39995 58.233826 
L 157.03138 57.838919 
L 158.66281 54.837626 
L 160.294239 52.942072 
L 161.925669 50.651612 
L 163.557099 49.861798 
L 165.188529 47.887263 
L 166.819959 47.492357 
L 168.451389 46.149673 
L 170.082819 43.14838 
L 171.714249 42.121622 
L 174.977108 44.333101 
L 176.608538 43.14838 
L 178.239968 40.778938 
L 181.502828 39.120329 
L 183.134258 37.777645 
L 184.765688 37.777645 
L 186.397117 39.120329 
L 188.028547 40.068106 
L 189.659977 38.804404 
L 191.291407 37.777645 
L 192.922837 37.540701 
L 194.554267 36.829869 
L 196.185697 35.882092 
L 197.817127 37.540701 
L 199.448556 37.066813 
L 202.711416 37.303757 
L 204.342846 38.409497 
L 205.974276 39.357273 
L 207.605706 38.488478 
L 209.237136 38.093571 
L 210.868566 38.093571 
L 214.131425 36.434962 
L 217.394285 34.302464 
L 219.025715 32.959781 
L 220.657145 33.907557 
L 222.288575 34.381446 
L 223.920005 35.013297 
L 227.182864 33.986539 
L 228.814294 32.012004 
L 230.445724 31.933023 
L 232.077154 30.748302 
L 233.708584 30.66932 
L 235.340014 28.37886 
L 236.971444 29.405618 
L 238.602873 31.143209 
L 240.234303 32.012004 
L 241.865733 31.854041 
L 243.497163 32.880799 
L 245.128593 31.854041 
L 246.760023 32.880799 
L 248.391453 34.855334 
L 250.022883 33.670613 
L 251.654312 31.933023 
L 253.285742 31.22219 
L 254.917172 32.643855 
L 256.548602 35.882092 
L 258.180032 36.592925 
L 259.811462 35.645148 
L 261.442892 35.803111 
L 263.074322 35.013297 
L 264.705751 35.250241 
L 266.337181 33.354688 
L 267.968611 32.959781 
L 269.600041 33.51265 
L 271.231471 34.934315 
L 272.862901 33.670613 
L 274.494331 32.090985 
L 276.125761 32.090985 
L 277.75719 32.485892 
L 279.38862 32.090985 
L 281.02005 30.432376 
L 282.65148 31.933023 
L 284.28291 30.66932 
L 285.91434 30.590339 
L 287.54577 30.906264 
L 289.1772 29.958488 
L 290.80863 30.116451 
L 292.440059 30.590339 
L 294.071489 30.037469 
L 295.702919 29.089692 
L 297.334349 26.009418 
L 298.965779 24.587753 
L 300.597209 24.666735 
L 302.228639 25.456548 
L 303.860069 27.904972 
L 305.491498 27.431083 
L 307.122928 26.009418 
L 308.754358 26.483307 
L 310.385788 27.510065 
L 312.017218 26.325344 
L 313.648648 23.797939 
L 315.280078 24.192846 
L 316.911508 22.929144 
L 318.542937 22.6922 
L 320.174367 22.218311 
L 321.805797 20.796646 
L 325.068657 20.085814 
L 328.331517 21.112572 
L 329.962947 20.401739 
L 331.594376 21.270535 
L 333.225806 20.638684 
L 334.857236 19.690907 
L 338.120096 23.008125 
L 339.751526 22.850163 
L 341.382956 24.745716 
L 343.014386 23.797939 
L 344.645815 26.009418 
L 346.277245 23.955902 
L 347.908675 22.534237 
L 349.540105 23.166088 
L 351.171535 23.324051 
L 352.802965 22.534237 
L 354.434395 23.560995 
L 356.065825 24.98266 
L 357.697254 24.42979 
L 359.328684 23.560995 
L 360.960114 23.166088 
L 362.591544 22.297293 
L 364.222974 22.13933 
L 365.854404 22.771181 
L 367.485834 22.13933 
L 369.117264 20.401739 
L 370.748693 20.164795 
L 372.380123 20.717665 
L 374.011553 19.296 
L 375.642983 19.296 
L 378.905843 22.218311 
L 380.537273 21.902386 
L 380.537273 21.902386 
" clip-path="url(#pc544351fdc)" style="fill: none; stroke: #2ca02c; stroke-width: 1.5; stroke-linecap: square"/>
   </g>
   <g id="line2d_20">
    <path d="M 55.882727 261.216 
L 57.514157 261.216 
L 59.145587 261.058037 
L 60.777017 260.584149 
L 62.408447 259.794335 
L 64.039877 259.399428 
L 65.671307 258.214707 
L 72.197026 251.343326 
L 73.828456 249.763698 
L 77.091316 245.419722 
L 80.354175 242.655373 
L 83.617035 238.469359 
L 85.248465 236.731769 
L 86.879895 234.441309 
L 88.511325 233.098625 
L 90.142755 230.966127 
L 91.774185 227.569928 
L 95.037044 223.383914 
L 96.668474 221.409379 
L 98.299904 218.092161 
L 99.931334 217.618272 
L 101.562764 215.643738 
L 103.194194 214.143091 
L 104.825624 213.906147 
L 106.457053 212.326519 
L 108.088483 211.141798 
L 109.719913 209.483189 
L 111.351343 207.587636 
L 112.982773 206.008008 
L 114.614203 205.376157 
L 116.245633 203.87551 
L 117.877063 201.111162 
L 119.508492 199.768478 
L 122.771352 197.63598 
L 124.402782 195.740427 
L 126.034212 195.424501 
L 130.928502 192.660153 
L 132.559931 191.475432 
L 134.191361 189.816823 
L 135.822791 188.395158 
L 137.454221 186.736548 
L 139.085651 186.894511 
L 140.717081 185.314883 
L 142.348511 184.919976 
L 143.979941 183.340349 
L 145.61137 182.708498 
L 147.2428 181.839702 
L 148.87423 179.154335 
L 150.50566 175.837117 
L 152.13709 174.652396 
L 153.76852 173.941563 
L 155.39995 171.888047 
L 157.03138 170.545363 
L 158.66281 169.992494 
L 160.294239 169.123698 
L 163.557099 168.017959 
L 165.188529 166.596294 
L 168.451389 164.068889 
L 171.714249 160.356764 
L 174.977108 158.461211 
L 176.608538 158.224266 
L 179.871398 157.197508 
L 181.502828 157.513434 
L 183.134258 158.303248 
L 184.765688 158.698155 
L 186.397117 158.698155 
L 188.028547 156.486676 
L 191.291407 155.933806 
L 192.922837 155.065011 
L 194.554267 155.854825 
L 196.185697 156.17075 
L 197.817127 154.591122 
L 199.448556 154.117234 
L 201.079986 153.801309 
L 202.711416 153.643346 
L 204.342846 155.380936 
L 205.974276 154.354178 
L 207.605706 156.407694 
L 209.237136 156.17075 
L 210.868566 154.43316 
L 212.499995 153.801309 
L 214.131425 151.984737 
L 215.762855 152.695569 
L 217.394285 152.695569 
L 219.025715 152.932513 
L 220.657145 151.826774 
L 222.288575 151.03696 
L 223.920005 149.852239 
L 225.551434 150.326127 
L 227.182864 149.773258 
L 228.814294 150.010202 
L 230.445724 149.141406 
L 232.077154 148.509555 
L 233.708584 149.457332 
L 235.340014 149.694276 
L 236.971444 149.299369 
L 238.602873 148.430574 
L 240.234303 146.929928 
L 241.865733 147.324834 
L 243.497163 147.324834 
L 246.760023 147.561779 
L 248.391453 145.429281 
L 250.022883 145.587244 
L 251.654312 144.007616 
L 253.285742 145.666225 
L 254.917172 145.113356 
L 256.548602 143.770672 
L 258.180032 145.034374 
L 259.811462 145.429281 
L 261.442892 144.718449 
L 263.074322 146.219095 
L 266.337181 147.64076 
L 267.968611 147.324834 
L 269.600041 145.508262 
L 271.231471 143.217802 
L 272.862901 145.745207 
L 274.494331 147.166872 
L 276.125761 147.64076 
L 277.75719 146.456039 
L 279.38862 146.219095 
L 281.02005 146.219095 
L 282.65148 144.955393 
L 284.28291 145.271318 
L 285.91434 144.876411 
L 287.54577 144.086597 
L 289.1772 144.323542 
L 290.80863 142.980858 
L 292.440059 142.822895 
L 294.071489 142.191044 
L 295.702919 140.84836 
L 297.334349 141.164286 
L 298.965779 142.664932 
L 300.597209 142.349007 
L 302.228639 140.769379 
L 303.860069 139.505677 
L 305.491498 141.322249 
L 307.122928 144.165579 
L 308.754358 144.165579 
L 310.385788 143.138821 
L 312.017218 142.50697 
L 313.648648 143.928635 
L 315.280078 142.980858 
L 316.911508 142.585951 
L 318.542937 143.928635 
L 320.174367 145.429281 
L 321.805797 146.219095 
L 323.437227 145.429281 
L 325.068657 143.296784 
L 326.700087 143.059839 
L 328.331517 142.585951 
L 329.962947 142.822895 
L 333.225806 142.50697 
L 334.857236 142.901877 
L 336.488666 142.349007 
L 338.120096 140.532435 
L 339.751526 141.40123 
L 341.382956 140.295491 
L 343.014386 140.927342 
L 344.645815 142.033081 
L 346.277245 143.928635 
L 347.908675 144.24456 
L 349.540105 143.928635 
L 351.171535 142.822895 
L 352.802965 143.217802 
L 354.434395 141.9541 
L 356.065825 141.164286 
L 357.697254 140.927342 
L 359.328684 141.006323 
L 360.960114 140.216509 
L 362.591544 140.84836 
L 364.222974 141.243267 
L 365.854404 141.40123 
L 367.485834 141.717156 
L 369.117264 141.875119 
L 370.748693 142.822895 
L 372.380123 143.138821 
L 374.011553 142.112063 
L 375.642983 143.296784 
L 377.274413 143.296784 
L 378.905843 142.743914 
L 380.537273 143.138821 
L 380.537273 143.138821 
" clip-path="url(#pc544351fdc)" style="fill: none; stroke: #d62728; stroke-width: 1.5; stroke-linecap: square"/>
   </g>
   <g id="patch_3">
    <path d="M 39.65 273.312 
L 39.65 7.2 
" style="fill: none; stroke: #000000; stroke-width: 0.8; stroke-linejoin: miter; stroke-linecap: square"/>
   </g>
   <g id="patch_4">
    <path d="M 396.77 273.312 
L 396.77 7.2 
" style="fill: none; stroke: #000000; stroke-width: 0.8; stroke-linejoin: miter; stroke-linecap: square"/>
   </g>
   <g id="patch_5">
    <path d="M 39.65 273.312 
L 396.77 273.312 
" style="fill: none; stroke: #000000; stroke-width: 0.8; stroke-linejoin: miter; stroke-linecap: square"/>
   </g>
   <g id="patch_6">
    <path d="M 39.65 7.2 
L 396.77 7.2 
" style="fill: none; stroke: #000000; stroke-width: 0.8; stroke-linejoin: miter; stroke-linecap: square"/>
   </g>
  </g>
 </g>
 <defs>
  <clipPath id="pc544351fdc">
   <rect x="39.65" y="7.2" width="357.12" height="266.112"/>
  </clipPath>
 </defs>
</svg>
