<?xml version="1.0" encoding="utf-8" standalone="no"?>
<!DOCTYPE svg PUBLIC "-//W3C//DTD SVG 1.1//EN"
  "http://www.w3.org/Graphics/SVG/1.1/DTD/svg11.dtd">
<svg xmlns:xlink="http://www.w3.org/1999/xlink" width="403.97pt" height="297.190125pt" viewBox="0 0 403.97 297.190125" xmlns="http://www.w3.org/2000/svg" version="1.1">
 <metadata>
  <rdf:RDF xmlns:dc="http://purl.org/dc/elements/1.1/" xmlns:cc="http://creativecommons.org/ns#" xmlns:rdf="http://www.w3.org/1999/02/22-rdf-syntax-ns#">
   <cc:Work>
    <dc:type rdf:resource="http://purl.org/dc/dcmitype/StillImage"/>
    <dc:date>2024-10-14T20:31:24.974648</dc:date>
    <dc:format>image/svg+xml</dc:format>
    <dc:creator>
     <cc:Agent>
      <dc:title>Matplotlib v3.9.2, https://matplotlib.org/</dc:title>
     </cc:Agent>
    </dc:creator>
   </cc:Work>
  </rdf:RDF>
 </metadata>
 <defs>
  <style type="text/css">*{stroke-linejoin: round; stroke-linecap: butt}</style>
 </defs>
 <g id="figure_1">
  <g id="patch_1">
   <path d="M 0 297.190125 
L 403.97 297.190125 
L 403.97 0 
L 0 0 
z
" style="fill: #ffffff"/>
  </g>
  <g id="axes_1">
   <g id="patch_2">
    <path d="M 39.65 273.312 
L 396.77 273.312 
L 396.77 7.2 
L 39.65 7.2 
z
" style="fill: #ffffff"/>
   </g>
   <g id="matplotlib.axis_1">
    <g id="xtick_1">
     <g id="line2d_1">
      <defs>
       <path id="m40929878bd" d="M 0 0 
L 0 3.5 
" style="stroke: #000000; stroke-width: 0.8"/>
      </defs>
      <g>
       <use xlink:href="#m40929878bd" x="55.882727" y="273.312" style="stroke: #000000; stroke-width: 0.8"/>
      </g>
     </g>
     <g id="text_1">
      <!-- 0.0 -->
      <g transform="translate(47.931165 287.910437) scale(0.1 -0.1)">
       <defs>
        <path id="DejaVuSans-30" d="M 2034 4250 
Q 1547 4250 1301 3770 
Q 1056 3291 1056 2328 
Q 1056 1369 1301 889 
Q 1547 409 2034 409 
Q 2525 409 2770 889 
Q 3016 1369 3016 2328 
Q 3016 3291 2770 3770 
Q 2525 4250 2034 4250 
z
M 2034 4750 
Q 2819 4750 3233 4129 
Q 3647 3509 3647 2328 
Q 3647 1150 3233 529 
Q 2819 -91 2034 -91 
Q 1250 -91 836 529 
Q 422 1150 422 2328 
Q 422 3509 836 4129 
Q 1250 4750 2034 4750 
z
" transform="scale(0.015625)"/>
        <path id="DejaVuSans-2e" d="M 684 794 
L 1344 794 
L 1344 0 
L 684 0 
L 684 794 
z
" transform="scale(0.015625)"/>
       </defs>
       <use xlink:href="#DejaVuSans-30"/>
       <use xlink:href="#DejaVuSans-2e" x="63.623047"/>
       <use xlink:href="#DejaVuSans-30" x="95.410156"/>
      </g>
     </g>
    </g>
    <g id="xtick_2">
     <g id="line2d_2">
      <g>
       <use xlink:href="#m40929878bd" x="96.668474" y="273.312" style="stroke: #000000; stroke-width: 0.8"/>
      </g>
     </g>
     <g id="text_2">
      <!-- 2.5 -->
      <g transform="translate(88.716912 287.910437) scale(0.1 -0.1)">
       <defs>
        <path id="DejaVuSans-32" d="M 1228 531 
L 3431 531 
L 3431 0 
L 469 0 
L 469 531 
Q 828 903 1448 1529 
Q 2069 2156 2228 2338 
Q 2531 2678 2651 2914 
Q 2772 3150 2772 3378 
Q 2772 3750 2511 3984 
Q 2250 4219 1831 4219 
Q 1534 4219 1204 4116 
Q 875 4013 500 3803 
L 500 4441 
Q 881 4594 1212 4672 
Q 1544 4750 1819 4750 
Q 2544 4750 2975 4387 
Q 3406 4025 3406 3419 
Q 3406 3131 3298 2873 
Q 3191 2616 2906 2266 
Q 2828 2175 2409 1742 
Q 1991 1309 1228 531 
z
" transform="scale(0.015625)"/>
        <path id="DejaVuSans-35" d="M 691 4666 
L 3169 4666 
L 3169 4134 
L 1269 4134 
L 1269 2991 
Q 1406 3038 1543 3061 
Q 1681 3084 1819 3084 
Q 2600 3084 3056 2656 
Q 3513 2228 3513 1497 
Q 3513 744 3044 326 
Q 2575 -91 1722 -91 
Q 1428 -91 1123 -41 
Q 819 9 494 109 
L 494 744 
Q 775 591 1075 516 
Q 1375 441 1709 441 
Q 2250 441 2565 725 
Q 2881 1009 2881 1497 
Q 2881 1984 2565 2268 
Q 2250 2553 1709 2553 
Q 1456 2553 1204 2497 
Q 953 2441 691 2322 
L 691 4666 
z
" transform="scale(0.015625)"/>
       </defs>
       <use xlink:href="#DejaVuSans-32"/>
       <use xlink:href="#DejaVuSans-2e" x="63.623047"/>
       <use xlink:href="#DejaVuSans-35" x="95.410156"/>
      </g>
     </g>
    </g>
    <g id="xtick_3">
     <g id="line2d_3">
      <g>
       <use xlink:href="#m40929878bd" x="137.454221" y="273.312" style="stroke: #000000; stroke-width: 0.8"/>
      </g>
     </g>
     <g id="text_3">
      <!-- 5.0 -->
      <g transform="translate(129.502659 287.910437) scale(0.1 -0.1)">
       <use xlink:href="#DejaVuSans-35"/>
       <use xlink:href="#DejaVuSans-2e" x="63.623047"/>
       <use xlink:href="#DejaVuSans-30" x="95.410156"/>
      </g>
     </g>
    </g>
    <g id="xtick_4">
     <g id="line2d_4">
      <g>
       <use xlink:href="#m40929878bd" x="178.239968" y="273.312" style="stroke: #000000; stroke-width: 0.8"/>
      </g>
     </g>
     <g id="text_4">
      <!-- 7.5 -->
      <g transform="translate(170.288406 287.910437) scale(0.1 -0.1)">
       <defs>
        <path id="DejaVuSans-37" d="M 525 4666 
L 3525 4666 
L 3525 4397 
L 1831 0 
L 1172 0 
L 2766 4134 
L 525 4134 
L 525 4666 
z
" transform="scale(0.015625)"/>
       </defs>
       <use xlink:href="#DejaVuSans-37"/>
       <use xlink:href="#DejaVuSans-2e" x="63.623047"/>
       <use xlink:href="#DejaVuSans-35" x="95.410156"/>
      </g>
     </g>
    </g>
    <g id="xtick_5">
     <g id="line2d_5">
      <g>
       <use xlink:href="#m40929878bd" x="219.025715" y="273.312" style="stroke: #000000; stroke-width: 0.8"/>
      </g>
     </g>
     <g id="text_5">
      <!-- 10.0 -->
      <g transform="translate(207.892902 287.910437) scale(0.1 -0.1)">
       <defs>
        <path id="DejaVuSans-31" d="M 794 531 
L 1825 531 
L 1825 4091 
L 703 3866 
L 703 4441 
L 1819 4666 
L 2450 4666 
L 2450 531 
L 3481 531 
L 3481 0 
L 794 0 
L 794 531 
z
" transform="scale(0.015625)"/>
       </defs>
       <use xlink:href="#DejaVuSans-31"/>
       <use xlink:href="#DejaVuSans-30" x="63.623047"/>
       <use xlink:href="#DejaVuSans-2e" x="127.246094"/>
       <use xlink:href="#DejaVuSans-30" x="159.033203"/>
      </g>
     </g>
    </g>
    <g id="xtick_6">
     <g id="line2d_6">
      <g>
       <use xlink:href="#m40929878bd" x="259.811462" y="273.312" style="stroke: #000000; stroke-width: 0.8"/>
      </g>
     </g>
     <g id="text_6">
      <!-- 12.5 -->
      <g transform="translate(248.678649 287.910437) scale(0.1 -0.1)">
       <use xlink:href="#DejaVuSans-31"/>
       <use xlink:href="#DejaVuSans-32" x="63.623047"/>
       <use xlink:href="#DejaVuSans-2e" x="127.246094"/>
       <use xlink:href="#DejaVuSans-35" x="159.033203"/>
      </g>
     </g>
    </g>
    <g id="xtick_7">
     <g id="line2d_7">
      <g>
       <use xlink:href="#m40929878bd" x="300.597209" y="273.312" style="stroke: #000000; stroke-width: 0.8"/>
      </g>
     </g>
     <g id="text_7">
      <!-- 15.0 -->
      <g transform="translate(289.464396 287.910437) scale(0.1 -0.1)">
       <use xlink:href="#DejaVuSans-31"/>
       <use xlink:href="#DejaVuSans-35" x="63.623047"/>
       <use xlink:href="#DejaVuSans-2e" x="127.246094"/>
       <use xlink:href="#DejaVuSans-30" x="159.033203"/>
      </g>
     </g>
    </g>
    <g id="xtick_8">
     <g id="line2d_8">
      <g>
       <use xlink:href="#m40929878bd" x="341.382956" y="273.312" style="stroke: #000000; stroke-width: 0.8"/>
      </g>
     </g>
     <g id="text_8">
      <!-- 17.5 -->
      <g transform="translate(330.250143 287.910437) scale(0.1 -0.1)">
       <use xlink:href="#DejaVuSans-31"/>
       <use xlink:href="#DejaVuSans-37" x="63.623047"/>
       <use xlink:href="#DejaVuSans-2e" x="127.246094"/>
       <use xlink:href="#DejaVuSans-35" x="159.033203"/>
      </g>
     </g>
    </g>
    <g id="xtick_9">
     <g id="line2d_9">
      <g>
       <use xlink:href="#m40929878bd" x="382.168703" y="273.312" style="stroke: #000000; stroke-width: 0.8"/>
      </g>
     </g>
     <g id="text_9">
      <!-- 20.0 -->
      <g transform="translate(371.03589 287.910437) scale(0.1 -0.1)">
       <use xlink:href="#DejaVuSans-32"/>
       <use xlink:href="#DejaVuSans-30" x="63.623047"/>
       <use xlink:href="#DejaVuSans-2e" x="127.246094"/>
       <use xlink:href="#DejaVuSans-30" x="159.033203"/>
      </g>
     </g>
    </g>
   </g>
   <g id="matplotlib.axis_2">
    <g id="ytick_1">
     <g id="line2d_10">
      <defs>
       <path id="m89236386b8" d="M 0 0 
L -3.5 0 
" style="stroke: #000000; stroke-width: 0.8"/>
      </defs>
      <g>
       <use xlink:href="#m89236386b8" x="39.65" y="261.216" style="stroke: #000000; stroke-width: 0.8"/>
      </g>
     </g>
     <g id="text_10">
      <!-- 0 -->
      <g transform="translate(26.2875 265.015219) scale(0.1 -0.1)">
       <use xlink:href="#DejaVuSans-30"/>
      </g>
     </g>
    </g>
    <g id="ytick_2">
     <g id="line2d_11">
      <g>
       <use xlink:href="#m89236386b8" x="39.65" y="226.862876" style="stroke: #000000; stroke-width: 0.8"/>
      </g>
     </g>
     <g id="text_11">
      <!-- 500 -->
      <g transform="translate(13.5625 230.662095) scale(0.1 -0.1)">
       <use xlink:href="#DejaVuSans-35"/>
       <use xlink:href="#DejaVuSans-30" x="63.623047"/>
       <use xlink:href="#DejaVuSans-30" x="127.246094"/>
      </g>
     </g>
    </g>
    <g id="ytick_3">
     <g id="line2d_12">
      <g>
       <use xlink:href="#m89236386b8" x="39.65" y="192.509752" style="stroke: #000000; stroke-width: 0.8"/>
      </g>
     </g>
     <g id="text_12">
      <!-- 1000 -->
      <g transform="translate(7.2 196.308971) scale(0.1 -0.1)">
       <use xlink:href="#DejaVuSans-31"/>
       <use xlink:href="#DejaVuSans-30" x="63.623047"/>
       <use xlink:href="#DejaVuSans-30" x="127.246094"/>
       <use xlink:href="#DejaVuSans-30" x="190.869141"/>
      </g>
     </g>
    </g>
    <g id="ytick_4">
     <g id="line2d_13">
      <g>
       <use xlink:href="#m89236386b8" x="39.65" y="158.156628" style="stroke: #000000; stroke-width: 0.8"/>
      </g>
     </g>
     <g id="text_13">
      <!-- 1500 -->
      <g transform="translate(7.2 161.955847) scale(0.1 -0.1)">
       <use xlink:href="#DejaVuSans-31"/>
       <use xlink:href="#DejaVuSans-35" x="63.623047"/>
       <use xlink:href="#DejaVuSans-30" x="127.246094"/>
       <use xlink:href="#DejaVuSans-30" x="190.869141"/>
      </g>
     </g>
    </g>
    <g id="ytick_5">
     <g id="line2d_14">
      <g>
       <use xlink:href="#m89236386b8" x="39.65" y="123.803504" style="stroke: #000000; stroke-width: 0.8"/>
      </g>
     </g>
     <g id="text_14">
      <!-- 2000 -->
      <g transform="translate(7.2 127.602722) scale(0.1 -0.1)">
       <use xlink:href="#DejaVuSans-32"/>
       <use xlink:href="#DejaVuSans-30" x="63.623047"/>
       <use xlink:href="#DejaVuSans-30" x="127.246094"/>
       <use xlink:href="#DejaVuSans-30" x="190.869141"/>
      </g>
     </g>
    </g>
    <g id="ytick_6">
     <g id="line2d_15">
      <g>
       <use xlink:href="#m89236386b8" x="39.65" y="89.45038" style="stroke: #000000; stroke-width: 0.8"/>
      </g>
     </g>
     <g id="text_15">
      <!-- 2500 -->
      <g transform="translate(7.2 93.249598) scale(0.1 -0.1)">
       <use xlink:href="#DejaVuSans-32"/>
       <use xlink:href="#DejaVuSans-35" x="63.623047"/>
       <use xlink:href="#DejaVuSans-30" x="127.246094"/>
       <use xlink:href="#DejaVuSans-30" x="190.869141"/>
      </g>
     </g>
    </g>
    <g id="ytick_7">
     <g id="line2d_16">
      <g>
       <use xlink:href="#m89236386b8" x="39.65" y="55.097256" style="stroke: #000000; stroke-width: 0.8"/>
      </g>
     </g>
     <g id="text_16">
      <!-- 3000 -->
      <g transform="translate(7.2 58.896474) scale(0.1 -0.1)">
       <defs>
        <path id="DejaVuSans-33" d="M 2597 2516 
Q 3050 2419 3304 2112 
Q 3559 1806 3559 1356 
Q 3559 666 3084 287 
Q 2609 -91 1734 -91 
Q 1441 -91 1130 -33 
Q 819 25 488 141 
L 488 750 
Q 750 597 1062 519 
Q 1375 441 1716 441 
Q 2309 441 2620 675 
Q 2931 909 2931 1356 
Q 2931 1769 2642 2001 
Q 2353 2234 1838 2234 
L 1294 2234 
L 1294 2753 
L 1863 2753 
Q 2328 2753 2575 2939 
Q 2822 3125 2822 3475 
Q 2822 3834 2567 4026 
Q 2313 4219 1838 4219 
Q 1578 4219 1281 4162 
Q 984 4106 628 3988 
L 628 4550 
Q 988 4650 1302 4700 
Q 1616 4750 1894 4750 
Q 2613 4750 3031 4423 
Q 3450 4097 3450 3541 
Q 3450 3153 3228 2886 
Q 3006 2619 2597 2516 
z
" transform="scale(0.015625)"/>
       </defs>
       <use xlink:href="#DejaVuSans-33"/>
       <use xlink:href="#DejaVuSans-30" x="63.623047"/>
       <use xlink:href="#DejaVuSans-30" x="127.246094"/>
       <use xlink:href="#DejaVuSans-30" x="190.869141"/>
      </g>
     </g>
    </g>
    <g id="ytick_8">
     <g id="line2d_17">
      <g>
       <use xlink:href="#m89236386b8" x="39.65" y="20.744132" style="stroke: #000000; stroke-width: 0.8"/>
      </g>
     </g>
     <g id="text_17">
      <!-- 3500 -->
      <g transform="translate(7.2 24.54335) scale(0.1 -0.1)">
       <use xlink:href="#DejaVuSans-33"/>
       <use xlink:href="#DejaVuSans-35" x="63.623047"/>
       <use xlink:href="#DejaVuSans-30" x="127.246094"/>
       <use xlink:href="#DejaVuSans-30" x="190.869141"/>
      </g>
     </g>
    </g>
   </g>
   <g id="line2d_18">
    <path d="M 55.882727 261.216 
L 72.197026 192.509752 
L 88.511325 143.281725 
L 104.825624 108.009844 
L 121.139922 82.737541 
L 137.454221 64.629936 
L 153.76852 51.655837 
L 170.082819 42.359895 
L 186.397117 35.699353 
L 202.711416 30.927074 
L 219.025715 27.507736 
L 235.340014 25.057781 
L 251.654312 23.302388 
L 267.968611 22.044649 
L 284.28291 21.143479 
L 300.597209 20.49779 
L 316.911508 20.035155 
L 333.225806 19.703676 
L 349.540105 19.466172 
L 365.854404 19.296 
" clip-path="url(#pfb244cef68)" style="fill: none; stroke: #1f77b4; stroke-width: 1.5; stroke-linecap: square"/>
   </g>
   <g id="line2d_19">
    <path d="M 55.882727 261.216 
L 72.197026 261.216 
L 88.511325 238.313917 
L 104.825624 210.146646 
L 121.139922 183.928275 
L 137.454221 162.043662 
L 153.76852 144.772234 
L 170.082819 131.580383 
L 186.397117 121.709039 
L 202.711416 114.420911 
L 219.025715 109.088426 
L 235.340014 105.210949 
L 251.654312 102.4036 
L 267.968611 100.377177 
L 284.28291 98.917564 
L 300.597209 97.867809 
L 316.911508 97.113636 
L 333.225806 96.572231 
L 349.540105 96.183781 
L 365.854404 95.905183 
" clip-path="url(#pfb244cef68)" style="fill: none; stroke: #ff7f0e; stroke-width: 1.5; stroke-linecap: square"/>
   </g>
   <g id="line2d_20">
    <path d="M 55.882727 261.216 
L 57.514157 254.551494 
L 59.145587 249.329819 
L 60.777017 243.421082 
L 64.039877 232.977732 
L 67.302736 221.366376 
L 68.934166 216.763057 
L 72.197026 206.182295 
L 73.828456 200.685795 
L 75.459886 196.426008 
L 77.091316 192.578458 
L 78.722746 187.700314 
L 80.354175 183.921471 
L 85.248465 173.821652 
L 86.879895 168.531271 
L 88.511325 164.615015 
L 90.142755 160.355228 
L 91.774185 157.19474 
L 93.405614 154.652609 
L 95.037044 151.286003 
L 96.668474 146.613978 
L 99.931334 140.36171 
L 103.194194 135.689685 
L 104.825624 132.872728 
L 106.457053 129.574829 
L 108.088483 128.063291 
L 109.719913 125.315041 
L 111.351343 122.910323 
L 112.982773 121.467491 
L 116.245633 115.902285 
L 121.139922 110.886729 
L 122.771352 108.138479 
L 124.402782 105.802467 
L 126.034212 104.428342 
L 129.297072 100.580792 
L 130.928502 98.588311 
L 132.559931 97.969954 
L 134.191361 98.176073 
L 135.822791 96.870654 
L 137.454221 97.008067 
L 139.085651 96.046179 
L 142.348511 93.160517 
L 143.979941 92.19863 
L 145.61137 92.336042 
L 150.50566 89.244261 
L 153.76852 86.221186 
L 155.39995 84.297411 
L 157.03138 84.366117 
L 158.66281 83.266817 
L 160.294239 82.991992 
L 165.188529 81.686574 
L 166.819959 81.20563 
L 168.451389 78.800911 
L 170.082819 78.663499 
L 171.714249 77.426786 
L 173.345678 76.80843 
L 174.977108 75.365599 
L 178.239968 73.51053 
L 179.871398 73.029586 
L 181.502828 73.785355 
L 183.134258 74.678536 
L 186.397117 75.296893 
L 188.028547 74.541124 
L 189.659977 73.029586 
L 191.291407 72.754761 
L 192.922837 75.365599 
L 194.554267 75.022068 
L 196.185697 72.686055 
L 197.817127 71.449343 
L 199.448556 71.037105 
L 201.079986 70.830986 
L 202.711416 72.686055 
L 204.342846 71.655461 
L 207.605706 72.686055 
L 210.868566 72.754761 
L 212.499995 71.586755 
L 214.131425 70.556161 
L 215.762855 66.983437 
L 217.394285 63.822949 
L 219.025715 62.448824 
L 220.657145 61.486937 
L 222.288575 62.380118 
L 223.920005 60.525049 
L 225.551434 59.76928 
L 227.182864 59.975399 
L 228.814294 57.982918 
L 230.445724 58.532568 
L 232.077154 59.357043 
L 233.708584 56.814912 
L 235.340014 56.746206 
L 236.971444 57.501974 
L 238.602873 58.738687 
L 240.234303 59.563162 
L 241.865733 59.76928 
L 243.497163 60.456343 
L 245.128593 60.181518 
L 246.760023 60.799874 
L 248.391453 60.937287 
L 250.022883 61.555643 
L 251.654312 60.181518 
L 253.285742 60.31893 
L 254.917172 58.738687 
L 256.548602 59.700574 
L 258.180032 59.425749 
L 259.811462 60.593755 
L 261.442892 62.311412 
L 263.074322 60.112812 
L 264.705751 58.463862 
L 266.337181 58.120331 
L 267.968611 58.66998 
L 269.600041 57.227149 
L 271.231471 55.578199 
L 272.862901 55.921731 
L 274.494331 55.097256 
L 276.125761 55.234668 
L 277.75719 54.410193 
L 279.38862 55.990437 
L 281.02005 56.196556 
L 282.65148 56.677499 
L 284.28291 56.471381 
L 285.91434 57.845506 
L 287.54577 57.021031 
L 289.1772 57.158443 
L 290.80863 56.746206 
L 292.440059 54.685018 
L 294.071489 55.646906 
L 295.702919 56.471381 
L 297.334349 55.853024 
L 298.965779 55.646906 
L 300.597209 54.959843 
L 302.228639 55.165962 
L 303.860069 54.135368 
L 305.491498 54.959843 
L 307.122928 53.860543 
L 308.754358 53.448306 
L 310.385788 52.898656 
L 312.017218 53.860543 
L 313.648648 53.929249 
L 315.280078 55.509493 
L 316.911508 58.120331 
L 320.174367 56.952324 
L 321.805797 57.708093 
L 323.437227 54.822431 
L 325.068657 54.891137 
L 326.700087 54.341487 
L 328.331517 54.204074 
L 331.594376 54.410193 
L 333.225806 54.066662 
L 334.857236 52.761243 
L 336.488666 53.585718 
L 338.120096 53.310893 
L 339.751526 54.341487 
L 341.382956 53.585718 
L 343.014386 53.654424 
L 344.645815 53.929249 
L 346.277245 53.791837 
L 347.908675 52.967362 
L 349.540105 54.478899 
L 351.171535 55.234668 
L 352.802965 53.860543 
L 354.434395 53.379599 
L 356.065825 54.753724 
L 357.697254 53.723131 
L 359.328684 52.967362 
L 360.960114 54.341487 
L 362.591544 52.280299 
L 364.222974 51.249706 
L 365.854404 53.242187 
L 367.485834 54.135368 
L 369.117264 55.165962 
L 370.748693 54.685018 
L 372.380123 54.822431 
L 374.011553 53.654424 
L 375.642983 52.967362 
L 377.274413 53.448306 
L 378.905843 52.692537 
L 380.537273 53.448306 
L 380.537273 53.448306 
" clip-path="url(#pfb244cef68)" style="fill: none; stroke: #2ca02c; stroke-width: 1.5; stroke-linecap: square"/>
   </g>
   <g id="line2d_21">
    <path d="M 55.882727 261.216 
L 57.514157 261.147294 
L 59.145587 260.872469 
L 60.777017 260.254113 
L 62.408447 259.429638 
L 64.039877 257.849394 
L 65.671307 256.8188 
L 67.302736 255.375969 
L 70.565596 253.795725 
L 72.197026 252.490306 
L 75.459886 250.497825 
L 78.722746 247.337338 
L 80.354175 245.688388 
L 81.985605 243.6272 
L 83.617035 241.153776 
L 85.248465 239.092588 
L 86.879895 238.336819 
L 88.511325 236.481751 
L 90.142755 234.901507 
L 91.774185 233.939619 
L 93.405614 231.466195 
L 95.037044 229.748538 
L 96.668474 228.580532 
L 98.299904 226.725463 
L 99.931334 226.175813 
L 101.562764 225.282632 
L 103.194194 222.259557 
L 104.825624 220.885432 
L 106.457053 218.755539 
L 108.088483 217.587532 
L 109.719913 216.90047 
L 112.982773 212.709389 
L 116.245633 210.85432 
L 117.877063 209.411489 
L 119.508492 206.663239 
L 121.139922 206.251001 
L 122.771352 205.976176 
L 124.402782 205.289114 
L 127.665642 202.128627 
L 129.297072 201.372858 
L 130.928502 200.823208 
L 132.559931 199.242964 
L 134.191361 198.281077 
L 135.822791 196.563421 
L 139.085651 194.089996 
L 140.717081 193.265521 
L 143.979941 192.509752 
L 145.61137 190.929508 
L 147.2428 191.204333 
L 148.87423 190.448564 
L 150.50566 188.937027 
L 152.13709 188.181258 
L 153.76852 187.837727 
L 155.39995 186.944546 
L 157.03138 184.333708 
L 158.66281 184.058883 
L 160.294239 183.02829 
L 161.925669 182.135108 
L 163.557099 182.272521 
L 165.188529 180.28004 
L 166.819959 179.592977 
L 168.451389 179.73039 
L 170.082819 178.218852 
L 171.714249 177.188259 
L 173.345678 175.951546 
L 174.977108 176.363784 
L 176.608538 175.058365 
L 178.239968 176.157665 
L 179.871398 175.264484 
L 181.502828 174.23389 
L 183.134258 173.546827 
L 184.765688 172.997177 
L 186.397117 173.615534 
L 188.028547 172.997177 
L 189.659977 172.58494 
L 191.291407 171.829171 
L 192.922837 168.462565 
L 194.554267 166.882321 
L 196.185697 167.225853 
L 197.817127 168.18774 
L 199.448556 168.806096 
L 201.079986 168.119034 
L 202.711416 167.706796 
L 204.342846 166.882321 
L 205.974276 164.271484 
L 207.605706 164.615015 
L 209.237136 164.271484 
L 210.868566 164.683721 
L 214.131425 165.851728 
L 215.762855 168.050328 
L 217.394285 168.874803 
L 219.025715 170.317634 
L 220.657145 170.317634 
L 222.288575 169.767984 
L 223.920005 170.248927 
L 225.551434 169.699277 
L 227.182864 167.912915 
L 228.814294 168.325153 
L 230.445724 167.019734 
L 232.077154 166.676203 
L 233.708584 168.393859 
L 235.340014 169.424452 
L 236.971444 169.012215 
L 238.602873 167.225853 
L 240.234303 166.470084 
L 241.865733 166.126553 
L 243.497163 165.920434 
L 245.128593 164.615015 
L 246.760023 165.095959 
L 248.391453 164.34019 
L 250.022883 164.752428 
L 251.654312 164.202778 
L 253.285742 165.302078 
L 254.917172 166.057846 
L 256.548602 166.263965 
L 258.180032 165.370784 
L 259.811462 164.134071 
L 261.442892 163.378303 
L 263.074322 164.065365 
L 266.337181 164.134071 
L 267.968611 163.309596 
L 269.600041 163.447009 
L 271.231471 164.958546 
L 272.862901 164.202778 
L 274.494331 164.821134 
L 276.125761 164.134071 
L 277.75719 163.24089 
L 279.38862 163.447009 
L 281.02005 163.034771 
L 282.65148 160.767465 
L 284.28291 161.179703 
L 285.91434 159.94299 
L 287.54577 159.462047 
L 289.1772 159.255928 
L 290.80863 159.187222 
L 292.440059 158.362747 
L 294.071489 159.324634 
L 295.702919 158.637572 
L 297.334349 160.080403 
L 298.965779 159.255928 
L 300.597209 159.462047 
L 302.228639 159.805578 
L 303.860069 159.874284 
L 305.491498 158.706278 
L 307.122928 160.149109 
L 308.754358 160.011696 
L 310.385788 160.149109 
L 312.017218 159.599459 
L 313.648648 159.255928 
L 315.280078 158.29404 
L 316.911508 155.889322 
L 318.542937 156.370265 
L 320.174367 154.034253 
L 321.805797 155.820615 
L 323.437227 156.438972 
L 325.068657 158.156628 
L 326.700087 157.950509 
L 328.331517 159.187222 
L 329.962947 158.84369 
L 333.225806 158.431453 
L 334.857236 159.049809 
L 336.488666 158.225334 
L 338.120096 157.538272 
L 339.751526 156.988622 
L 341.382956 155.751909 
L 343.014386 156.64509 
L 344.645815 155.202259 
L 346.277245 155.614497 
L 347.908675 156.438972 
L 349.540105 155.339672 
L 351.171535 155.270965 
L 352.802965 156.713797 
L 354.434395 156.64509 
L 356.065825 154.99614 
L 357.697254 156.026734 
L 359.328684 156.370265 
L 360.960114 155.683203 
L 362.591544 155.683203 
L 364.222974 155.202259 
L 365.854404 155.958028 
L 367.485834 155.202259 
L 369.117264 154.858728 
L 370.748693 155.54579 
L 372.380123 154.858728 
L 374.011553 156.301559 
L 375.642983 157.057328 
L 377.274413 156.301559 
L 378.905843 157.469565 
L 380.537273 157.881803 
L 380.537273 157.881803 
" clip-path="url(#pfb244cef68)" style="fill: none; stroke: #d62728; stroke-width: 1.5; stroke-linecap: square"/>
   </g>
   <g id="patch_3">
    <path d="M 39.65 273.312 
L 39.65 7.2 
" style="fill: none; stroke: #000000; stroke-width: 0.8; stroke-linejoin: miter; stroke-linecap: square"/>
   </g>
   <g id="patch_4">
    <path d="M 396.77 273.312 
L 396.77 7.2 
" style="fill: none; stroke: #000000; stroke-width: 0.8; stroke-linejoin: miter; stroke-linecap: square"/>
   </g>
   <g id="patch_5">
    <path d="M 39.65 273.312 
L 396.77 273.312 
" style="fill: none; stroke: #000000; stroke-width: 0.8; stroke-linejoin: miter; stroke-linecap: square"/>
   </g>
   <g id="patch_6">
    <path d="M 39.65 7.2 
L 396.77 7.2 
" style="fill: none; stroke: #000000; stroke-width: 0.8; stroke-linejoin: miter; stroke-linecap: square"/>
   </g>
  </g>
 </g>
 <defs>
  <clipPath id="pfb244cef68">
   <rect x="39.65" y="7.2" width="357.12" height="266.112"/>
  </clipPath>
 </defs>
</svg>
