<?xml version="1.0" encoding="utf-8" standalone="no"?>
<!DOCTYPE svg PUBLIC "-//W3C//DTD SVG 1.1//EN"
  "http://www.w3.org/Graphics/SVG/1.1/DTD/svg11.dtd">
<svg xmlns:xlink="http://www.w3.org/1999/xlink" width="403.97pt" height="297.190125pt" viewBox="0 0 403.97 297.190125" xmlns="http://www.w3.org/2000/svg" version="1.1">
 <metadata>
  <rdf:RDF xmlns:dc="http://purl.org/dc/elements/1.1/" xmlns:cc="http://creativecommons.org/ns#" xmlns:rdf="http://www.w3.org/1999/02/22-rdf-syntax-ns#">
   <cc:Work>
    <dc:type rdf:resource="http://purl.org/dc/dcmitype/StillImage"/>
    <dc:date>2024-08-20T14:51:04.210302</dc:date>
    <dc:format>image/svg+xml</dc:format>
    <dc:creator>
     <cc:Agent>
      <dc:title>Matplotlib v3.9.2, https://matplotlib.org/</dc:title>
     </cc:Agent>
    </dc:creator>
   </cc:Work>
  </rdf:RDF>
 </metadata>
 <defs>
  <style type="text/css">*{stroke-linejoin: round; stroke-linecap: butt}</style>
 </defs>
 <g id="figure_1">
  <g id="patch_1">
   <path d="M 0 297.190125 
L 403.97 297.190125 
L 403.97 0 
L 0 0 
z
" style="fill: #ffffff"/>
  </g>
  <g id="axes_1">
   <g id="patch_2">
    <path d="M 39.65 273.312 
L 396.77 273.312 
L 396.77 7.2 
L 39.65 7.2 
z
" style="fill: #ffffff"/>
   </g>
   <g id="matplotlib.axis_1">
    <g id="xtick_1">
     <g id="line2d_1">
      <defs>
       <path id="m117a57e94e" d="M 0 0 
L 0 3.5 
" style="stroke: #000000; stroke-width: 0.8"/>
      </defs>
      <g>
       <use xlink:href="#m117a57e94e" x="55.882727" y="273.312" style="stroke: #000000; stroke-width: 0.8"/>
      </g>
     </g>
     <g id="text_1">
      <!-- 0.0 -->
      <g transform="translate(47.931165 287.910437) scale(0.1 -0.1)">
       <defs>
        <path id="DejaVuSans-30" d="M 2034 4250 
Q 1547 4250 1301 3770 
Q 1056 3291 1056 2328 
Q 1056 1369 1301 889 
Q 1547 409 2034 409 
Q 2525 409 2770 889 
Q 3016 1369 3016 2328 
Q 3016 3291 2770 3770 
Q 2525 4250 2034 4250 
z
M 2034 4750 
Q 2819 4750 3233 4129 
Q 3647 3509 3647 2328 
Q 3647 1150 3233 529 
Q 2819 -91 2034 -91 
Q 1250 -91 836 529 
Q 422 1150 422 2328 
Q 422 3509 836 4129 
Q 1250 4750 2034 4750 
z
" transform="scale(0.015625)"/>
        <path id="DejaVuSans-2e" d="M 684 794 
L 1344 794 
L 1344 0 
L 684 0 
L 684 794 
z
" transform="scale(0.015625)"/>
       </defs>
       <use xlink:href="#DejaVuSans-30"/>
       <use xlink:href="#DejaVuSans-2e" x="63.623047"/>
       <use xlink:href="#DejaVuSans-30" x="95.410156"/>
      </g>
     </g>
    </g>
    <g id="xtick_2">
     <g id="line2d_2">
      <g>
       <use xlink:href="#m117a57e94e" x="96.668474" y="273.312" style="stroke: #000000; stroke-width: 0.8"/>
      </g>
     </g>
     <g id="text_2">
      <!-- 2.5 -->
      <g transform="translate(88.716912 287.910437) scale(0.1 -0.1)">
       <defs>
        <path id="DejaVuSans-32" d="M 1228 531 
L 3431 531 
L 3431 0 
L 469 0 
L 469 531 
Q 828 903 1448 1529 
Q 2069 2156 2228 2338 
Q 2531 2678 2651 2914 
Q 2772 3150 2772 3378 
Q 2772 3750 2511 3984 
Q 2250 4219 1831 4219 
Q 1534 4219 1204 4116 
Q 875 4013 500 3803 
L 500 4441 
Q 881 4594 1212 4672 
Q 1544 4750 1819 4750 
Q 2544 4750 2975 4387 
Q 3406 4025 3406 3419 
Q 3406 3131 3298 2873 
Q 3191 2616 2906 2266 
Q 2828 2175 2409 1742 
Q 1991 1309 1228 531 
z
" transform="scale(0.015625)"/>
        <path id="DejaVuSans-35" d="M 691 4666 
L 3169 4666 
L 3169 4134 
L 1269 4134 
L 1269 2991 
Q 1406 3038 1543 3061 
Q 1681 3084 1819 3084 
Q 2600 3084 3056 2656 
Q 3513 2228 3513 1497 
Q 3513 744 3044 326 
Q 2575 -91 1722 -91 
Q 1428 -91 1123 -41 
Q 819 9 494 109 
L 494 744 
Q 775 591 1075 516 
Q 1375 441 1709 441 
Q 2250 441 2565 725 
Q 2881 1009 2881 1497 
Q 2881 1984 2565 2268 
Q 2250 2553 1709 2553 
Q 1456 2553 1204 2497 
Q 953 2441 691 2322 
L 691 4666 
z
" transform="scale(0.015625)"/>
       </defs>
       <use xlink:href="#DejaVuSans-32"/>
       <use xlink:href="#DejaVuSans-2e" x="63.623047"/>
       <use xlink:href="#DejaVuSans-35" x="95.410156"/>
      </g>
     </g>
    </g>
    <g id="xtick_3">
     <g id="line2d_3">
      <g>
       <use xlink:href="#m117a57e94e" x="137.454221" y="273.312" style="stroke: #000000; stroke-width: 0.8"/>
      </g>
     </g>
     <g id="text_3">
      <!-- 5.0 -->
      <g transform="translate(129.502659 287.910437) scale(0.1 -0.1)">
       <use xlink:href="#DejaVuSans-35"/>
       <use xlink:href="#DejaVuSans-2e" x="63.623047"/>
       <use xlink:href="#DejaVuSans-30" x="95.410156"/>
      </g>
     </g>
    </g>
    <g id="xtick_4">
     <g id="line2d_4">
      <g>
       <use xlink:href="#m117a57e94e" x="178.239968" y="273.312" style="stroke: #000000; stroke-width: 0.8"/>
      </g>
     </g>
     <g id="text_4">
      <!-- 7.5 -->
      <g transform="translate(170.288406 287.910437) scale(0.1 -0.1)">
       <defs>
        <path id="DejaVuSans-37" d="M 525 4666 
L 3525 4666 
L 3525 4397 
L 1831 0 
L 1172 0 
L 2766 4134 
L 525 4134 
L 525 4666 
z
" transform="scale(0.015625)"/>
       </defs>
       <use xlink:href="#DejaVuSans-37"/>
       <use xlink:href="#DejaVuSans-2e" x="63.623047"/>
       <use xlink:href="#DejaVuSans-35" x="95.410156"/>
      </g>
     </g>
    </g>
    <g id="xtick_5">
     <g id="line2d_5">
      <g>
       <use xlink:href="#m117a57e94e" x="219.025715" y="273.312" style="stroke: #000000; stroke-width: 0.8"/>
      </g>
     </g>
     <g id="text_5">
      <!-- 10.0 -->
      <g transform="translate(207.892902 287.910437) scale(0.1 -0.1)">
       <defs>
        <path id="DejaVuSans-31" d="M 794 531 
L 1825 531 
L 1825 4091 
L 703 3866 
L 703 4441 
L 1819 4666 
L 2450 4666 
L 2450 531 
L 3481 531 
L 3481 0 
L 794 0 
L 794 531 
z
" transform="scale(0.015625)"/>
       </defs>
       <use xlink:href="#DejaVuSans-31"/>
       <use xlink:href="#DejaVuSans-30" x="63.623047"/>
       <use xlink:href="#DejaVuSans-2e" x="127.246094"/>
       <use xlink:href="#DejaVuSans-30" x="159.033203"/>
      </g>
     </g>
    </g>
    <g id="xtick_6">
     <g id="line2d_6">
      <g>
       <use xlink:href="#m117a57e94e" x="259.811462" y="273.312" style="stroke: #000000; stroke-width: 0.8"/>
      </g>
     </g>
     <g id="text_6">
      <!-- 12.5 -->
      <g transform="translate(248.678649 287.910437) scale(0.1 -0.1)">
       <use xlink:href="#DejaVuSans-31"/>
       <use xlink:href="#DejaVuSans-32" x="63.623047"/>
       <use xlink:href="#DejaVuSans-2e" x="127.246094"/>
       <use xlink:href="#DejaVuSans-35" x="159.033203"/>
      </g>
     </g>
    </g>
    <g id="xtick_7">
     <g id="line2d_7">
      <g>
       <use xlink:href="#m117a57e94e" x="300.597209" y="273.312" style="stroke: #000000; stroke-width: 0.8"/>
      </g>
     </g>
     <g id="text_7">
      <!-- 15.0 -->
      <g transform="translate(289.464396 287.910437) scale(0.1 -0.1)">
       <use xlink:href="#DejaVuSans-31"/>
       <use xlink:href="#DejaVuSans-35" x="63.623047"/>
       <use xlink:href="#DejaVuSans-2e" x="127.246094"/>
       <use xlink:href="#DejaVuSans-30" x="159.033203"/>
      </g>
     </g>
    </g>
    <g id="xtick_8">
     <g id="line2d_8">
      <g>
       <use xlink:href="#m117a57e94e" x="341.382956" y="273.312" style="stroke: #000000; stroke-width: 0.8"/>
      </g>
     </g>
     <g id="text_8">
      <!-- 17.5 -->
      <g transform="translate(330.250143 287.910437) scale(0.1 -0.1)">
       <use xlink:href="#DejaVuSans-31"/>
       <use xlink:href="#DejaVuSans-37" x="63.623047"/>
       <use xlink:href="#DejaVuSans-2e" x="127.246094"/>
       <use xlink:href="#DejaVuSans-35" x="159.033203"/>
      </g>
     </g>
    </g>
    <g id="xtick_9">
     <g id="line2d_9">
      <g>
       <use xlink:href="#m117a57e94e" x="382.168703" y="273.312" style="stroke: #000000; stroke-width: 0.8"/>
      </g>
     </g>
     <g id="text_9">
      <!-- 20.0 -->
      <g transform="translate(371.03589 287.910437) scale(0.1 -0.1)">
       <use xlink:href="#DejaVuSans-32"/>
       <use xlink:href="#DejaVuSans-30" x="63.623047"/>
       <use xlink:href="#DejaVuSans-2e" x="127.246094"/>
       <use xlink:href="#DejaVuSans-30" x="159.033203"/>
      </g>
     </g>
    </g>
   </g>
   <g id="matplotlib.axis_2">
    <g id="ytick_1">
     <g id="line2d_10">
      <defs>
       <path id="mb4b79f7ef0" d="M 0 0 
L -3.5 0 
" style="stroke: #000000; stroke-width: 0.8"/>
      </defs>
      <g>
       <use xlink:href="#mb4b79f7ef0" x="39.65" y="261.216" style="stroke: #000000; stroke-width: 0.8"/>
      </g>
     </g>
     <g id="text_10">
      <!-- 0 -->
      <g transform="translate(26.2875 265.015219) scale(0.1 -0.1)">
       <use xlink:href="#DejaVuSans-30"/>
      </g>
     </g>
    </g>
    <g id="ytick_2">
     <g id="line2d_11">
      <g>
       <use xlink:href="#mb4b79f7ef0" x="39.65" y="222.455389" style="stroke: #000000; stroke-width: 0.8"/>
      </g>
     </g>
     <g id="text_11">
      <!-- 500 -->
      <g transform="translate(13.5625 226.254608) scale(0.1 -0.1)">
       <use xlink:href="#DejaVuSans-35"/>
       <use xlink:href="#DejaVuSans-30" x="63.623047"/>
       <use xlink:href="#DejaVuSans-30" x="127.246094"/>
      </g>
     </g>
    </g>
    <g id="ytick_3">
     <g id="line2d_12">
      <g>
       <use xlink:href="#mb4b79f7ef0" x="39.65" y="183.694778" style="stroke: #000000; stroke-width: 0.8"/>
      </g>
     </g>
     <g id="text_12">
      <!-- 1000 -->
      <g transform="translate(7.2 187.493997) scale(0.1 -0.1)">
       <use xlink:href="#DejaVuSans-31"/>
       <use xlink:href="#DejaVuSans-30" x="63.623047"/>
       <use xlink:href="#DejaVuSans-30" x="127.246094"/>
       <use xlink:href="#DejaVuSans-30" x="190.869141"/>
      </g>
     </g>
    </g>
    <g id="ytick_4">
     <g id="line2d_13">
      <g>
       <use xlink:href="#mb4b79f7ef0" x="39.65" y="144.934168" style="stroke: #000000; stroke-width: 0.8"/>
      </g>
     </g>
     <g id="text_13">
      <!-- 1500 -->
      <g transform="translate(7.2 148.733386) scale(0.1 -0.1)">
       <use xlink:href="#DejaVuSans-31"/>
       <use xlink:href="#DejaVuSans-35" x="63.623047"/>
       <use xlink:href="#DejaVuSans-30" x="127.246094"/>
       <use xlink:href="#DejaVuSans-30" x="190.869141"/>
      </g>
     </g>
    </g>
    <g id="ytick_5">
     <g id="line2d_14">
      <g>
       <use xlink:href="#mb4b79f7ef0" x="39.65" y="106.173557" style="stroke: #000000; stroke-width: 0.8"/>
      </g>
     </g>
     <g id="text_14">
      <!-- 2000 -->
      <g transform="translate(7.2 109.972776) scale(0.1 -0.1)">
       <use xlink:href="#DejaVuSans-32"/>
       <use xlink:href="#DejaVuSans-30" x="63.623047"/>
       <use xlink:href="#DejaVuSans-30" x="127.246094"/>
       <use xlink:href="#DejaVuSans-30" x="190.869141"/>
      </g>
     </g>
    </g>
    <g id="ytick_6">
     <g id="line2d_15">
      <g>
       <use xlink:href="#mb4b79f7ef0" x="39.65" y="67.412946" style="stroke: #000000; stroke-width: 0.8"/>
      </g>
     </g>
     <g id="text_15">
      <!-- 2500 -->
      <g transform="translate(7.2 71.212165) scale(0.1 -0.1)">
       <use xlink:href="#DejaVuSans-32"/>
       <use xlink:href="#DejaVuSans-35" x="63.623047"/>
       <use xlink:href="#DejaVuSans-30" x="127.246094"/>
       <use xlink:href="#DejaVuSans-30" x="190.869141"/>
      </g>
     </g>
    </g>
    <g id="ytick_7">
     <g id="line2d_16">
      <g>
       <use xlink:href="#mb4b79f7ef0" x="39.65" y="28.652335" style="stroke: #000000; stroke-width: 0.8"/>
      </g>
     </g>
     <g id="text_16">
      <!-- 3000 -->
      <g transform="translate(7.2 32.451554) scale(0.1 -0.1)">
       <defs>
        <path id="DejaVuSans-33" d="M 2597 2516 
Q 3050 2419 3304 2112 
Q 3559 1806 3559 1356 
Q 3559 666 3084 287 
Q 2609 -91 1734 -91 
Q 1441 -91 1130 -33 
Q 819 25 488 141 
L 488 750 
Q 750 597 1062 519 
Q 1375 441 1716 441 
Q 2309 441 2620 675 
Q 2931 909 2931 1356 
Q 2931 1769 2642 2001 
Q 2353 2234 1838 2234 
L 1294 2234 
L 1294 2753 
L 1863 2753 
Q 2328 2753 2575 2939 
Q 2822 3125 2822 3475 
Q 2822 3834 2567 4026 
Q 2313 4219 1838 4219 
Q 1578 4219 1281 4162 
Q 984 4106 628 3988 
L 628 4550 
Q 988 4650 1302 4700 
Q 1616 4750 1894 4750 
Q 2613 4750 3031 4423 
Q 3450 4097 3450 3541 
Q 3450 3153 3228 2886 
Q 3006 2619 2597 2516 
z
" transform="scale(0.015625)"/>
       </defs>
       <use xlink:href="#DejaVuSans-33"/>
       <use xlink:href="#DejaVuSans-30" x="63.623047"/>
       <use xlink:href="#DejaVuSans-30" x="127.246094"/>
       <use xlink:href="#DejaVuSans-30" x="190.869141"/>
      </g>
     </g>
    </g>
   </g>
   <g id="line2d_17">
    <path d="M 55.882727 261.216 
L 59.961302 241.835695 
L 64.039877 224.005814 
L 68.118451 207.602323 
L 72.197026 192.511112 
L 76.275601 178.627198 
L 80.354175 165.853996 
L 84.43275 154.102651 
L 88.511325 143.291414 
L 92.589899 133.345075 
L 96.668474 124.194444 
L 100.747049 115.775863 
L 104.825624 108.030769 
L 108.904198 100.905282 
L 112.982773 94.349834 
L 117.061348 88.318822 
L 121.139922 82.770291 
L 125.218497 77.665642 
L 129.297072 72.969365 
L 133.375646 68.648791 
L 137.454221 64.673862 
L 141.532796 61.016928 
L 145.61137 57.652548 
L 149.689945 54.557319 
L 153.76852 51.709708 
L 157.847095 49.089906 
L 161.925669 46.679688 
L 166.004244 44.462288 
L 170.082819 42.422279 
L 174.161393 40.545471 
L 178.239968 38.818808 
L 182.318543 37.230278 
L 186.397117 35.768831 
L 190.475692 34.424299 
L 194.554267 33.187329 
L 198.632841 32.049318 
L 202.711416 31.002347 
L 206.789991 30.039134 
L 210.868566 29.152978 
L 214.94714 28.337714 
L 219.025715 27.587672 
L 223.10429 26.897632 
L 227.182864 26.262796 
L 231.261439 25.678747 
L 235.340014 25.141422 
L 239.418588 24.647083 
L 243.497163 24.192291 
L 247.575738 23.773882 
L 251.654312 23.388946 
L 255.732887 23.034805 
L 259.811462 22.708995 
L 263.890037 22.40925 
L 267.968611 22.133485 
L 272.047186 21.879781 
L 276.125761 21.646373 
L 280.204335 21.431638 
L 284.28291 21.234081 
L 288.361485 21.052329 
L 292.440059 20.885118 
L 296.518634 20.731283 
L 300.597209 20.589755 
L 304.675783 20.459549 
L 308.754358 20.33976 
L 312.832933 20.229554 
L 316.911508 20.128164 
L 320.990082 20.034885 
L 325.068657 19.949069 
L 329.147232 19.870118 
L 333.225806 19.797483 
L 337.304381 19.730659 
L 341.382956 19.669181 
L 345.46153 19.612621 
L 349.540105 19.560586 
L 353.61868 19.512714 
L 357.697254 19.468671 
L 361.775829 19.428152 
L 365.854404 19.390875 
L 369.932979 19.356579 
L 374.011553 19.325028 
L 378.090128 19.296 
" clip-path="url(#p40173d6945)" style="fill: none; stroke: #1f77b4; stroke-width: 1.5; stroke-linecap: square"/>
   </g>
   <g id="line2d_18">
    <path d="M 55.882727 261.216 
L 59.961302 261.216 
L 64.039877 259.665576 
L 68.118451 256.926751 
L 72.197026 253.296056 
L 76.275601 249.015377 
L 80.354175 244.281068 
L 84.43275 239.25162 
L 88.511325 234.054084 
L 92.589899 228.789472 
L 96.668474 223.53727 
L 100.747049 218.35923 
L 104.825624 213.302533 
L 108.904198 208.402432 
L 112.982773 203.684457 
L 117.061348 199.166256 
L 121.139922 194.859117 
L 125.218497 190.769242 
L 129.297072 186.898791 
L 133.375646 183.246752 
L 137.454221 179.809654 
L 141.532796 176.582157 
L 145.61137 173.557526 
L 149.689945 170.728026 
L 153.76852 168.085235 
L 157.847095 165.620304 
L 161.925669 163.324156 
L 166.004244 161.187649 
L 170.082819 159.201704 
L 174.161393 157.357401 
L 178.239968 155.646054 
L 182.318543 154.059265 
L 186.397117 152.588966 
L 190.475692 151.227442 
L 194.554267 149.96735 
L 198.632841 148.801724 
L 202.711416 147.723981 
L 206.789991 146.727913 
L 210.868566 145.807685 
L 214.94714 144.95782 
L 219.025715 144.173188 
L 223.10429 143.448993 
L 227.182864 142.780759 
L 231.261439 142.164312 
L 235.340014 141.595766 
L 239.418588 141.071506 
L 243.497163 140.588172 
L 247.575738 140.142647 
L 251.654312 139.732037 
L 255.732887 139.353661 
L 259.811462 139.005035 
L 263.890037 138.683858 
L 267.968611 138.388001 
L 272.047186 138.115498 
L 276.125761 137.864528 
L 280.204335 137.633408 
L 284.28291 137.420587 
L 288.361485 137.22463 
L 292.440059 137.044211 
L 296.518634 136.87811 
L 300.597209 136.725199 
L 304.675783 136.584437 
L 308.754358 136.454866 
L 312.832933 136.335601 
L 316.911508 136.225826 
L 320.990082 136.124791 
L 325.068657 136.031803 
L 329.147232 135.946222 
L 333.225806 135.867463 
L 337.304381 135.794982 
L 341.382956 135.728281 
L 345.46153 135.6669 
L 349.540105 135.610417 
L 353.61868 135.558441 
L 357.697254 135.510613 
L 361.775829 135.466604 
L 365.854404 135.426108 
L 369.932979 135.388847 
L 374.011553 135.354561 
L 378.090128 135.323014 
" clip-path="url(#p40173d6945)" style="fill: none; stroke: #ff7f0e; stroke-width: 1.5; stroke-linecap: square"/>
   </g>
   <g id="line2d_19">
    <path d="M 55.882727 261.216 
L 57.514157 254.316611 
L 59.145587 246.797053 
L 60.777017 240.595355 
L 62.408447 232.378106 
L 64.039877 225.633759 
L 67.302736 213.075321 
L 70.565596 199.819193 
L 72.197026 195.633047 
L 73.828456 192.06707 
L 75.459886 185.942894 
L 77.091316 180.748972 
L 78.722746 174.93488 
L 80.354175 170.361128 
L 81.985605 163.926867 
L 83.617035 159.6632 
L 88.511325 144.779125 
L 90.142755 142.065882 
L 91.774185 137.337088 
L 93.405614 134.158718 
L 95.037044 132.608293 
L 96.668474 128.344626 
L 98.299904 125.553862 
L 99.931334 122.297971 
L 101.562764 117.879261 
L 103.194194 114.468328 
L 104.825624 109.351927 
L 106.457053 106.948769 
L 108.088483 104.002963 
L 109.719913 101.987411 
L 111.351343 99.739295 
L 112.982773 98.73152 
L 114.614203 96.948531 
L 116.245633 94.235289 
L 117.877063 90.281706 
L 119.508492 88.111112 
L 121.139922 86.250603 
L 122.771352 85.010263 
L 124.402782 82.607105 
L 126.034212 81.676851 
L 127.665642 78.808566 
L 129.297072 78.343438 
L 130.928502 76.56045 
L 132.559931 74.312335 
L 134.191361 74.079771 
L 135.822791 72.451825 
L 137.454221 72.064219 
L 139.085651 70.978922 
L 140.717081 70.358752 
L 142.348511 68.498243 
L 143.979941 68.033116 
L 145.61137 66.560213 
L 147.2428 64.699703 
L 148.87423 65.474916 
L 150.50566 63.071758 
L 152.13709 62.141503 
L 153.76852 60.823642 
L 155.39995 59.118175 
L 157.03138 57.955357 
L 158.66281 59.505781 
L 160.294239 58.80809 
L 161.925669 56.947581 
L 163.557099 55.707242 
L 165.188529 55.087072 
L 166.819959 54.079296 
L 168.451389 52.606393 
L 170.082819 52.373829 
L 171.714249 52.296308 
L 173.345678 52.063744 
L 174.977108 52.063744 
L 176.608538 50.745883 
L 178.239968 49.27298 
L 179.871398 50.125714 
L 183.134258 50.203235 
L 184.765688 48.420247 
L 186.397117 44.699228 
L 188.028547 43.924016 
L 189.659977 44.001537 
L 191.291407 42.063507 
L 192.922837 41.908464 
L 194.554267 42.91624 
L 196.185697 40.202997 
L 197.817127 38.962658 
L 199.448556 37.489755 
L 201.079986 36.249415 
L 202.711416 36.869585 
L 204.342846 36.326936 
L 205.974276 37.877361 
L 207.605706 41.133252 
L 209.237136 39.73787 
L 212.499995 40.513082 
L 214.131425 42.218549 
L 215.762855 41.133252 
L 217.394285 41.520858 
L 219.025715 39.815391 
L 220.657145 38.575052 
L 222.288575 38.730094 
L 223.920005 37.489755 
L 225.551434 36.869585 
L 227.182864 35.474203 
L 230.445724 35.551724 
L 232.077154 34.854033 
L 233.708584 33.148566 
L 235.340014 33.536172 
L 236.971444 33.38113 
L 238.602873 34.233863 
L 240.234303 35.241639 
L 241.865733 37.412233 
L 243.497163 37.954882 
L 245.128593 38.730094 
L 246.760023 38.807615 
L 248.391453 38.264967 
L 250.022883 39.505306 
L 251.654312 41.753422 
L 254.917172 41.055731 
L 256.548602 40.435561 
L 258.180032 39.195221 
L 259.811462 39.195221 
L 261.442892 39.505306 
L 263.074322 39.427785 
L 264.705751 39.815391 
L 266.337181 39.427785 
L 267.968611 40.125476 
L 271.231471 40.202997 
L 272.862901 40.590603 
L 274.494331 39.815391 
L 276.125761 39.272743 
L 277.75719 40.202997 
L 279.38862 39.195221 
L 281.02005 39.505306 
L 282.65148 39.350264 
L 284.28291 37.644797 
L 285.91434 37.024627 
L 287.54577 37.489755 
L 289.1772 36.792064 
L 290.80863 36.404457 
L 292.440059 35.241639 
L 294.071489 35.551724 
L 295.702919 34.698991 
L 297.334349 35.629245 
L 298.965779 35.551724 
L 302.228639 34.311384 
L 303.860069 31.52062 
L 307.122928 30.900451 
L 308.754358 30.822929 
L 310.385788 33.38113 
L 312.017218 32.218311 
L 313.648648 34.698991 
L 315.280078 34.698991 
L 316.911508 34.854033 
L 318.542937 34.078821 
L 320.174367 31.52062 
L 321.805797 32.063269 
L 323.437227 31.443099 
L 328.331517 31.52062 
L 329.962947 30.20276 
L 331.594376 31.210536 
L 334.857236 32.373354 
L 336.488666 33.691215 
L 338.120096 34.466427 
L 339.751526 35.93933 
L 341.382956 35.241639 
L 343.014386 33.458651 
L 346.277245 32.76096 
L 347.908675 33.148566 
L 349.540105 34.388906 
L 351.171535 34.311384 
L 352.802965 35.241639 
L 354.434395 35.086597 
L 356.065825 33.148566 
L 357.697254 34.776512 
L 359.328684 33.768736 
L 360.960114 32.528396 
L 362.591544 35.93933 
L 364.222974 35.629245 
L 365.854404 36.404457 
L 367.485834 36.5595 
L 369.117264 37.567276 
L 370.748693 36.792064 
L 372.380123 37.954882 
L 374.011553 37.567276 
L 375.642983 36.637021 
L 377.274413 37.024627 
L 378.905843 36.947106 
L 380.537273 38.109924 
L 380.537273 38.109924 
" clip-path="url(#p40173d6945)" style="fill: none; stroke: #2ca02c; stroke-width: 1.5; stroke-linecap: square"/>
   </g>
   <g id="line2d_20">
    <path d="M 55.882727 261.216 
L 57.514157 261.060958 
L 60.777017 260.208224 
L 62.408447 259.510533 
L 64.039877 258.580278 
L 65.671307 257.029854 
L 67.302736 255.711993 
L 68.934166 255.014302 
L 70.565596 254.084048 
L 72.197026 252.30106 
L 75.459886 248.269956 
L 77.091316 246.486968 
L 78.722746 245.634234 
L 80.354175 243.696204 
L 81.985605 242.688428 
L 83.617035 240.595355 
L 85.248465 238.734846 
L 86.879895 236.176645 
L 88.511325 235.013827 
L 93.405614 227.959396 
L 95.037044 224.703505 
L 98.299904 221.990262 
L 99.931334 219.897189 
L 101.562764 218.114201 
L 103.194194 216.641298 
L 104.825624 216.17617 
L 106.457053 212.37763 
L 108.088483 210.362079 
L 109.719913 208.811654 
L 111.351343 206.330975 
L 112.982773 204.470466 
L 114.614203 202.377393 
L 116.245633 201.524659 
L 117.877063 200.516884 
L 121.139922 197.10595 
L 122.771352 195.633047 
L 124.402782 194.315186 
L 126.034212 191.679464 
L 127.665642 191.601943 
L 129.297072 189.663912 
L 130.928502 188.268531 
L 132.559931 188.191009 
L 134.191361 186.718106 
L 135.822791 184.547512 
L 137.454221 181.989312 
L 139.085651 181.446663 
L 140.717081 180.361366 
L 142.348511 180.981536 
L 143.979941 179.276069 
L 145.61137 178.035729 
L 147.2428 177.958208 
L 148.87423 177.493081 
L 150.50566 175.865135 
L 152.13709 175.55505 
L 153.76852 173.927105 
L 155.39995 173.384456 
L 157.03138 172.609244 
L 158.66281 170.43865 
L 160.294239 170.903777 
L 161.925669 171.136341 
L 163.557099 169.896001 
L 165.188529 167.492843 
L 166.819959 167.027716 
L 171.714249 163.074133 
L 173.345678 163.306697 
L 174.977108 163.306697 
L 176.608538 162.376442 
L 178.239968 160.826018 
L 179.871398 159.120551 
L 181.502828 157.880212 
L 183.134258 157.957733 
L 184.765688 158.577903 
L 186.397117 160.28337 
L 188.028547 159.895763 
L 189.659977 158.887988 
L 191.291407 158.500381 
L 192.922837 158.965509 
L 194.554267 158.267818 
L 196.185697 158.42286 
L 197.817127 156.48483 
L 199.448556 158.267818 
L 201.079986 158.655424 
L 202.711416 156.407308 
L 204.342846 156.794915 
L 205.974276 156.639872 
L 207.605706 155.399533 
L 209.237136 154.701842 
L 212.499995 151.058344 
L 214.131425 151.213387 
L 215.762855 151.213387 
L 217.394285 149.740483 
L 219.025715 149.50792 
L 220.657145 150.050568 
L 222.288575 149.585441 
L 223.920005 150.360653 
L 225.551434 152.531247 
L 227.182864 152.221162 
L 228.814294 152.143641 
L 230.445724 151.600993 
L 232.077154 151.600993 
L 233.708584 151.44595 
L 236.971444 151.368429 
L 238.602873 151.756035 
L 240.234303 150.128089 
L 241.865733 148.190059 
L 243.497163 148.422623 
L 245.128593 148.88775 
L 246.760023 148.655186 
L 248.391453 148.810229 
L 251.654312 144.624083 
L 253.285742 145.011689 
L 254.917172 143.538786 
L 258.180032 146.174507 
L 259.811462 144.779125 
L 261.442892 144.236477 
L 263.074322 145.244253 
L 264.705751 145.244253 
L 266.337181 146.717156 
L 267.968611 146.949719 
L 269.600041 148.035017 
L 271.231471 148.422623 
L 272.862901 148.345101 
L 276.125761 150.438174 
L 277.75719 149.352877 
L 279.38862 148.655186 
L 281.02005 149.662962 
L 282.65148 150.205611 
L 284.28291 149.120314 
L 285.91434 150.360653 
L 287.54577 148.965271 
L 289.1772 148.422623 
L 290.80863 148.577665 
L 292.440059 148.190059 
L 294.071489 148.655186 
L 295.702919 147.337326 
L 297.334349 145.476816 
L 298.965779 144.701604 
L 300.597209 144.236477 
L 302.228639 146.32955 
L 303.860069 148.732707 
L 305.491498 147.569889 
L 307.122928 148.577665 
L 308.754358 150.128089 
L 310.385788 147.724932 
L 312.017218 148.655186 
L 315.280078 146.407071 
L 316.911508 146.872198 
L 318.542937 147.879974 
L 321.805797 148.26758 
L 323.437227 149.662962 
L 325.068657 149.585441 
L 326.700087 150.438174 
L 329.962947 150.515696 
L 331.594376 149.895526 
L 333.225806 149.740483 
L 334.857236 148.810229 
L 338.120096 145.554337 
L 339.751526 145.011689 
L 341.382956 145.476816 
L 343.014386 147.569889 
L 344.645815 147.182283 
L 346.277245 147.724932 
L 347.908675 146.794677 
L 349.540105 145.166731 
L 351.171535 146.717156 
L 352.802965 145.70938 
L 354.434395 145.786901 
L 356.065825 146.872198 
L 357.697254 144.779125 
L 359.328684 145.554337 
L 360.960114 147.569889 
L 362.591544 145.786901 
L 364.222974 144.779125 
L 365.854404 145.166731 
L 367.485834 146.484592 
L 369.117264 145.399295 
L 370.748693 146.872198 
L 372.380123 146.407071 
L 374.011553 148.190059 
L 375.642983 148.035017 
L 377.274413 146.562113 
L 378.905843 146.096986 
L 380.537273 144.158955 
L 380.537273 144.158955 
" clip-path="url(#p40173d6945)" style="fill: none; stroke: #d62728; stroke-width: 1.5; stroke-linecap: square"/>
   </g>
   <g id="patch_3">
    <path d="M 39.65 273.312 
L 39.65 7.2 
" style="fill: none; stroke: #000000; stroke-width: 0.8; stroke-linejoin: miter; stroke-linecap: square"/>
   </g>
   <g id="patch_4">
    <path d="M 396.77 273.312 
L 396.77 7.2 
" style="fill: none; stroke: #000000; stroke-width: 0.8; stroke-linejoin: miter; stroke-linecap: square"/>
   </g>
   <g id="patch_5">
    <path d="M 39.65 273.312 
L 396.77 273.312 
" style="fill: none; stroke: #000000; stroke-width: 0.8; stroke-linejoin: miter; stroke-linecap: square"/>
   </g>
   <g id="patch_6">
    <path d="M 39.65 7.2 
L 396.77 7.2 
" style="fill: none; stroke: #000000; stroke-width: 0.8; stroke-linejoin: miter; stroke-linecap: square"/>
   </g>
  </g>
 </g>
 <defs>
  <clipPath id="p40173d6945">
   <rect x="39.65" y="7.2" width="357.12" height="266.112"/>
  </clipPath>
 </defs>
</svg>
