<?xml version="1.0" encoding="utf-8" standalone="no"?>
<!DOCTYPE svg PUBLIC "-//W3C//DTD SVG 1.1//EN"
  "http://www.w3.org/Graphics/SVG/1.1/DTD/svg11.dtd">
<svg xmlns:xlink="http://www.w3.org/1999/xlink" width="397.6075pt" height="297.190125pt" viewBox="0 0 397.6075 297.190125" xmlns="http://www.w3.org/2000/svg" version="1.1">
 <metadata>
  <rdf:RDF xmlns:dc="http://purl.org/dc/elements/1.1/" xmlns:cc="http://creativecommons.org/ns#" xmlns:rdf="http://www.w3.org/1999/02/22-rdf-syntax-ns#">
   <cc:Work>
    <dc:type rdf:resource="http://purl.org/dc/dcmitype/StillImage"/>
    <dc:date>2024-08-19T12:12:44.975792</dc:date>
    <dc:format>image/svg+xml</dc:format>
    <dc:creator>
     <cc:Agent>
      <dc:title>Matplotlib v3.9.2, https://matplotlib.org/</dc:title>
     </cc:Agent>
    </dc:creator>
   </cc:Work>
  </rdf:RDF>
 </metadata>
 <defs>
  <style type="text/css">*{stroke-linejoin: round; stroke-linecap: butt}</style>
 </defs>
 <g id="figure_1">
  <g id="patch_1">
   <path d="M 0 297.190125 
L 397.6075 297.190125 
L 397.6075 0 
L 0 0 
z
" style="fill: #ffffff"/>
  </g>
  <g id="axes_1">
   <g id="patch_2">
    <path d="M 33.2875 273.312 
L 390.4075 273.312 
L 390.4075 7.2 
L 33.2875 7.2 
z
" style="fill: #ffffff"/>
   </g>
   <g id="matplotlib.axis_1">
    <g id="xtick_1">
     <g id="line2d_1">
      <defs>
       <path id="me557277074" d="M 0 0 
L 0 3.5 
" style="stroke: #000000; stroke-width: 0.8"/>
      </defs>
      <g>
       <use xlink:href="#me557277074" x="49.520227" y="273.312" style="stroke: #000000; stroke-width: 0.8"/>
      </g>
     </g>
     <g id="text_1">
      <!-- 0.0 -->
      <g transform="translate(41.568665 287.910437) scale(0.1 -0.1)">
       <defs>
        <path id="DejaVuSans-30" d="M 2034 4250 
Q 1547 4250 1301 3770 
Q 1056 3291 1056 2328 
Q 1056 1369 1301 889 
Q 1547 409 2034 409 
Q 2525 409 2770 889 
Q 3016 1369 3016 2328 
Q 3016 3291 2770 3770 
Q 2525 4250 2034 4250 
z
M 2034 4750 
Q 2819 4750 3233 4129 
Q 3647 3509 3647 2328 
Q 3647 1150 3233 529 
Q 2819 -91 2034 -91 
Q 1250 -91 836 529 
Q 422 1150 422 2328 
Q 422 3509 836 4129 
Q 1250 4750 2034 4750 
z
" transform="scale(0.015625)"/>
        <path id="DejaVuSans-2e" d="M 684 794 
L 1344 794 
L 1344 0 
L 684 0 
L 684 794 
z
" transform="scale(0.015625)"/>
       </defs>
       <use xlink:href="#DejaVuSans-30"/>
       <use xlink:href="#DejaVuSans-2e" x="63.623047"/>
       <use xlink:href="#DejaVuSans-30" x="95.410156"/>
      </g>
     </g>
    </g>
    <g id="xtick_2">
     <g id="line2d_2">
      <g>
       <use xlink:href="#me557277074" x="90.305974" y="273.312" style="stroke: #000000; stroke-width: 0.8"/>
      </g>
     </g>
     <g id="text_2">
      <!-- 2.5 -->
      <g transform="translate(82.354412 287.910437) scale(0.1 -0.1)">
       <defs>
        <path id="DejaVuSans-32" d="M 1228 531 
L 3431 531 
L 3431 0 
L 469 0 
L 469 531 
Q 828 903 1448 1529 
Q 2069 2156 2228 2338 
Q 2531 2678 2651 2914 
Q 2772 3150 2772 3378 
Q 2772 3750 2511 3984 
Q 2250 4219 1831 4219 
Q 1534 4219 1204 4116 
Q 875 4013 500 3803 
L 500 4441 
Q 881 4594 1212 4672 
Q 1544 4750 1819 4750 
Q 2544 4750 2975 4387 
Q 3406 4025 3406 3419 
Q 3406 3131 3298 2873 
Q 3191 2616 2906 2266 
Q 2828 2175 2409 1742 
Q 1991 1309 1228 531 
z
" transform="scale(0.015625)"/>
        <path id="DejaVuSans-35" d="M 691 4666 
L 3169 4666 
L 3169 4134 
L 1269 4134 
L 1269 2991 
Q 1406 3038 1543 3061 
Q 1681 3084 1819 3084 
Q 2600 3084 3056 2656 
Q 3513 2228 3513 1497 
Q 3513 744 3044 326 
Q 2575 -91 1722 -91 
Q 1428 -91 1123 -41 
Q 819 9 494 109 
L 494 744 
Q 775 591 1075 516 
Q 1375 441 1709 441 
Q 2250 441 2565 725 
Q 2881 1009 2881 1497 
Q 2881 1984 2565 2268 
Q 2250 2553 1709 2553 
Q 1456 2553 1204 2497 
Q 953 2441 691 2322 
L 691 4666 
z
" transform="scale(0.015625)"/>
       </defs>
       <use xlink:href="#DejaVuSans-32"/>
       <use xlink:href="#DejaVuSans-2e" x="63.623047"/>
       <use xlink:href="#DejaVuSans-35" x="95.410156"/>
      </g>
     </g>
    </g>
    <g id="xtick_3">
     <g id="line2d_3">
      <g>
       <use xlink:href="#me557277074" x="131.091721" y="273.312" style="stroke: #000000; stroke-width: 0.8"/>
      </g>
     </g>
     <g id="text_3">
      <!-- 5.0 -->
      <g transform="translate(123.140159 287.910437) scale(0.1 -0.1)">
       <use xlink:href="#DejaVuSans-35"/>
       <use xlink:href="#DejaVuSans-2e" x="63.623047"/>
       <use xlink:href="#DejaVuSans-30" x="95.410156"/>
      </g>
     </g>
    </g>
    <g id="xtick_4">
     <g id="line2d_4">
      <g>
       <use xlink:href="#me557277074" x="171.877468" y="273.312" style="stroke: #000000; stroke-width: 0.8"/>
      </g>
     </g>
     <g id="text_4">
      <!-- 7.5 -->
      <g transform="translate(163.925906 287.910437) scale(0.1 -0.1)">
       <defs>
        <path id="DejaVuSans-37" d="M 525 4666 
L 3525 4666 
L 3525 4397 
L 1831 0 
L 1172 0 
L 2766 4134 
L 525 4134 
L 525 4666 
z
" transform="scale(0.015625)"/>
       </defs>
       <use xlink:href="#DejaVuSans-37"/>
       <use xlink:href="#DejaVuSans-2e" x="63.623047"/>
       <use xlink:href="#DejaVuSans-35" x="95.410156"/>
      </g>
     </g>
    </g>
    <g id="xtick_5">
     <g id="line2d_5">
      <g>
       <use xlink:href="#me557277074" x="212.663215" y="273.312" style="stroke: #000000; stroke-width: 0.8"/>
      </g>
     </g>
     <g id="text_5">
      <!-- 10.0 -->
      <g transform="translate(201.530402 287.910437) scale(0.1 -0.1)">
       <defs>
        <path id="DejaVuSans-31" d="M 794 531 
L 1825 531 
L 1825 4091 
L 703 3866 
L 703 4441 
L 1819 4666 
L 2450 4666 
L 2450 531 
L 3481 531 
L 3481 0 
L 794 0 
L 794 531 
z
" transform="scale(0.015625)"/>
       </defs>
       <use xlink:href="#DejaVuSans-31"/>
       <use xlink:href="#DejaVuSans-30" x="63.623047"/>
       <use xlink:href="#DejaVuSans-2e" x="127.246094"/>
       <use xlink:href="#DejaVuSans-30" x="159.033203"/>
      </g>
     </g>
    </g>
    <g id="xtick_6">
     <g id="line2d_6">
      <g>
       <use xlink:href="#me557277074" x="253.448962" y="273.312" style="stroke: #000000; stroke-width: 0.8"/>
      </g>
     </g>
     <g id="text_6">
      <!-- 12.5 -->
      <g transform="translate(242.316149 287.910437) scale(0.1 -0.1)">
       <use xlink:href="#DejaVuSans-31"/>
       <use xlink:href="#DejaVuSans-32" x="63.623047"/>
       <use xlink:href="#DejaVuSans-2e" x="127.246094"/>
       <use xlink:href="#DejaVuSans-35" x="159.033203"/>
      </g>
     </g>
    </g>
    <g id="xtick_7">
     <g id="line2d_7">
      <g>
       <use xlink:href="#me557277074" x="294.234709" y="273.312" style="stroke: #000000; stroke-width: 0.8"/>
      </g>
     </g>
     <g id="text_7">
      <!-- 15.0 -->
      <g transform="translate(283.101896 287.910437) scale(0.1 -0.1)">
       <use xlink:href="#DejaVuSans-31"/>
       <use xlink:href="#DejaVuSans-35" x="63.623047"/>
       <use xlink:href="#DejaVuSans-2e" x="127.246094"/>
       <use xlink:href="#DejaVuSans-30" x="159.033203"/>
      </g>
     </g>
    </g>
    <g id="xtick_8">
     <g id="line2d_8">
      <g>
       <use xlink:href="#me557277074" x="335.020456" y="273.312" style="stroke: #000000; stroke-width: 0.8"/>
      </g>
     </g>
     <g id="text_8">
      <!-- 17.5 -->
      <g transform="translate(323.887643 287.910437) scale(0.1 -0.1)">
       <use xlink:href="#DejaVuSans-31"/>
       <use xlink:href="#DejaVuSans-37" x="63.623047"/>
       <use xlink:href="#DejaVuSans-2e" x="127.246094"/>
       <use xlink:href="#DejaVuSans-35" x="159.033203"/>
      </g>
     </g>
    </g>
    <g id="xtick_9">
     <g id="line2d_9">
      <g>
       <use xlink:href="#me557277074" x="375.806203" y="273.312" style="stroke: #000000; stroke-width: 0.8"/>
      </g>
     </g>
     <g id="text_9">
      <!-- 20.0 -->
      <g transform="translate(364.67339 287.910437) scale(0.1 -0.1)">
       <use xlink:href="#DejaVuSans-32"/>
       <use xlink:href="#DejaVuSans-30" x="63.623047"/>
       <use xlink:href="#DejaVuSans-2e" x="127.246094"/>
       <use xlink:href="#DejaVuSans-30" x="159.033203"/>
      </g>
     </g>
    </g>
   </g>
   <g id="matplotlib.axis_2">
    <g id="ytick_1">
     <g id="line2d_10">
      <defs>
       <path id="m838815ce3b" d="M 0 0 
L -3.5 0 
" style="stroke: #000000; stroke-width: 0.8"/>
      </defs>
      <g>
       <use xlink:href="#m838815ce3b" x="33.2875" y="261.216" style="stroke: #000000; stroke-width: 0.8"/>
      </g>
     </g>
     <g id="text_10">
      <!-- 0 -->
      <g transform="translate(19.925 265.015219) scale(0.1 -0.1)">
       <use xlink:href="#DejaVuSans-30"/>
      </g>
     </g>
    </g>
    <g id="ytick_2">
     <g id="line2d_11">
      <g>
       <use xlink:href="#m838815ce3b" x="33.2875" y="218.322383" style="stroke: #000000; stroke-width: 0.8"/>
      </g>
     </g>
     <g id="text_11">
      <!-- 50 -->
      <g transform="translate(13.5625 222.121602) scale(0.1 -0.1)">
       <use xlink:href="#DejaVuSans-35"/>
       <use xlink:href="#DejaVuSans-30" x="63.623047"/>
      </g>
     </g>
    </g>
    <g id="ytick_3">
     <g id="line2d_12">
      <g>
       <use xlink:href="#m838815ce3b" x="33.2875" y="175.428766" style="stroke: #000000; stroke-width: 0.8"/>
      </g>
     </g>
     <g id="text_12">
      <!-- 100 -->
      <g transform="translate(7.2 179.227985) scale(0.1 -0.1)">
       <use xlink:href="#DejaVuSans-31"/>
       <use xlink:href="#DejaVuSans-30" x="63.623047"/>
       <use xlink:href="#DejaVuSans-30" x="127.246094"/>
      </g>
     </g>
    </g>
    <g id="ytick_4">
     <g id="line2d_13">
      <g>
       <use xlink:href="#m838815ce3b" x="33.2875" y="132.535149" style="stroke: #000000; stroke-width: 0.8"/>
      </g>
     </g>
     <g id="text_13">
      <!-- 150 -->
      <g transform="translate(7.2 136.334368) scale(0.1 -0.1)">
       <use xlink:href="#DejaVuSans-31"/>
       <use xlink:href="#DejaVuSans-35" x="63.623047"/>
       <use xlink:href="#DejaVuSans-30" x="127.246094"/>
      </g>
     </g>
    </g>
    <g id="ytick_5">
     <g id="line2d_14">
      <g>
       <use xlink:href="#m838815ce3b" x="33.2875" y="89.641532" style="stroke: #000000; stroke-width: 0.8"/>
      </g>
     </g>
     <g id="text_14">
      <!-- 200 -->
      <g transform="translate(7.2 93.440751) scale(0.1 -0.1)">
       <use xlink:href="#DejaVuSans-32"/>
       <use xlink:href="#DejaVuSans-30" x="63.623047"/>
       <use xlink:href="#DejaVuSans-30" x="127.246094"/>
      </g>
     </g>
    </g>
    <g id="ytick_6">
     <g id="line2d_15">
      <g>
       <use xlink:href="#m838815ce3b" x="33.2875" y="46.747915" style="stroke: #000000; stroke-width: 0.8"/>
      </g>
     </g>
     <g id="text_15">
      <!-- 250 -->
      <g transform="translate(7.2 50.547134) scale(0.1 -0.1)">
       <use xlink:href="#DejaVuSans-32"/>
       <use xlink:href="#DejaVuSans-35" x="63.623047"/>
       <use xlink:href="#DejaVuSans-30" x="127.246094"/>
      </g>
     </g>
    </g>
   </g>
   <g id="line2d_16">
    <path d="M 49.520227 261.216 
L 53.598802 46.747915 
L 57.677377 46.747915 
L 61.755951 46.747915 
L 65.834526 46.747915 
L 69.913101 46.747915 
L 73.991675 46.747915 
L 78.07025 46.747915 
L 82.148825 46.747915 
L 86.227399 46.747915 
L 90.305974 46.747915 
L 94.384549 46.747915 
L 98.463124 46.747915 
L 102.541698 46.747915 
L 106.620273 46.747915 
L 110.698848 46.747915 
L 114.777422 46.747915 
L 118.855997 46.747915 
L 122.934572 46.747915 
L 127.013146 46.747915 
L 131.091721 46.747915 
L 135.170296 46.747915 
L 139.24887 46.747915 
L 143.327445 46.747915 
L 147.40602 46.747915 
L 151.484595 46.747915 
L 155.563169 46.747915 
L 159.641744 46.747915 
L 163.720319 46.747915 
L 167.798893 46.747915 
L 171.877468 46.747915 
L 175.956043 46.747915 
L 180.034617 46.747915 
L 184.113192 46.747915 
L 188.191767 46.747915 
L 192.270341 46.747915 
L 196.348916 46.747915 
L 200.427491 46.747915 
L 204.506066 46.747915 
L 208.58464 46.747915 
L 212.663215 46.747915 
L 216.74179 46.747915 
L 220.820364 46.747915 
L 224.898939 46.747915 
L 228.977514 46.747915 
L 233.056088 46.747915 
L 237.134663 46.747915 
L 241.213238 46.747915 
L 245.291812 46.747915 
L 249.370387 46.747915 
L 253.448962 46.747915 
L 257.527537 46.747915 
L 261.606111 46.747915 
L 265.684686 46.747915 
L 269.763261 46.747915 
L 273.841835 46.747915 
L 277.92041 46.747915 
L 281.998985 46.747915 
L 286.077559 46.747915 
L 290.156134 46.747915 
L 294.234709 46.747915 
L 298.313283 46.747915 
L 302.391858 46.747915 
L 306.470433 46.747915 
L 310.549008 46.747915 
L 314.627582 46.747915 
L 318.706157 46.747915 
L 322.784732 46.747915 
L 326.863306 46.747915 
L 330.941881 46.747915 
L 335.020456 46.747915 
L 339.09903 46.747915 
L 343.177605 46.747915 
L 347.25618 46.747915 
L 351.334754 46.747915 
L 355.413329 46.747915 
L 359.491904 46.747915 
L 363.570479 46.747915 
L 367.649053 46.747915 
L 371.727628 46.747915 
" clip-path="url(#p2e29b76caf)" style="fill: none; stroke: #1f77b4; stroke-width: 1.5; stroke-linecap: square"/>
   </g>
   <g id="line2d_17">
    <path d="M 49.520227 261.216 
L 53.598802 261.216 
L 57.677377 46.747915 
L 61.755951 46.747915 
L 65.834526 46.747915 
L 69.913101 46.747915 
L 73.991675 46.747915 
L 78.07025 46.747915 
L 82.148825 46.747915 
L 86.227399 46.747915 
L 90.305974 46.747915 
L 94.384549 46.747915 
L 98.463124 46.747915 
L 102.541698 46.747915 
L 106.620273 46.747915 
L 110.698848 46.747915 
L 114.777422 46.747915 
L 118.855997 46.747915 
L 122.934572 46.747915 
L 127.013146 46.747915 
L 131.091721 46.747915 
L 135.170296 46.747915 
L 139.24887 46.747915 
L 143.327445 46.747915 
L 147.40602 46.747915 
L 151.484595 46.747915 
L 155.563169 46.747915 
L 159.641744 46.747915 
L 163.720319 46.747915 
L 167.798893 46.747915 
L 171.877468 46.747915 
L 175.956043 46.747915 
L 180.034617 46.747915 
L 184.113192 46.747915 
L 188.191767 46.747915 
L 192.270341 46.747915 
L 196.348916 46.747915 
L 200.427491 46.747915 
L 204.506066 46.747915 
L 208.58464 46.747915 
L 212.663215 46.747915 
L 216.74179 46.747915 
L 220.820364 46.747915 
L 224.898939 46.747915 
L 228.977514 46.747915 
L 233.056088 46.747915 
L 237.134663 46.747915 
L 241.213238 46.747915 
L 245.291812 46.747915 
L 249.370387 46.747915 
L 253.448962 46.747915 
L 257.527537 46.747915 
L 261.606111 46.747915 
L 265.684686 46.747915 
L 269.763261 46.747915 
L 273.841835 46.747915 
L 277.92041 46.747915 
L 281.998985 46.747915 
L 286.077559 46.747915 
L 290.156134 46.747915 
L 294.234709 46.747915 
L 298.313283 46.747915 
L 302.391858 46.747915 
L 306.470433 46.747915 
L 310.549008 46.747915 
L 314.627582 46.747915 
L 318.706157 46.747915 
L 322.784732 46.747915 
L 326.863306 46.747915 
L 330.941881 46.747915 
L 335.020456 46.747915 
L 339.09903 46.747915 
L 343.177605 46.747915 
L 347.25618 46.747915 
L 351.334754 46.747915 
L 355.413329 46.747915 
L 359.491904 46.747915 
L 363.570479 46.747915 
L 367.649053 46.747915 
L 371.727628 46.747915 
" clip-path="url(#p2e29b76caf)" style="fill: none; stroke: #ff7f0e; stroke-width: 1.5; stroke-linecap: square"/>
   </g>
   <g id="line2d_18">
    <path d="M 49.520227 261.216 
L 51.151657 197.733447 
L 52.783087 141.971745 
L 54.414517 112.804085 
L 56.045947 98.220255 
L 57.677377 99.078128 
L 59.308807 83.636426 
L 60.940236 73.341957 
L 62.571666 65.621106 
L 64.203096 51.895149 
L 65.834526 54.468766 
L 67.465956 51.895149 
L 69.097386 45.03217 
L 70.728816 57.900255 
L 72.360246 53.610894 
L 73.991675 57.042383 
L 75.623105 51.895149 
L 77.254535 45.03217 
L 78.885965 47.605787 
L 80.517395 42.458553 
L 82.148825 43.316426 
L 83.780255 43.316426 
L 85.411685 38.169191 
L 87.043114 34.737702 
L 88.674544 50.179404 
L 90.305974 61.331745 
L 91.937404 66.478979 
L 93.568834 54.468766 
L 95.200264 66.478979 
L 96.831694 69.052596 
L 98.463124 72.484085 
L 100.094553 66.478979 
L 101.725983 55.326638 
L 103.357413 57.900255 
L 104.988843 63.905362 
L 106.620273 68.194723 
L 108.251703 64.763234 
L 109.883133 57.900255 
L 111.514563 57.900255 
L 113.145992 45.03217 
L 114.777422 53.610894 
L 116.408852 54.468766 
L 118.040282 57.042383 
L 119.671712 65.621106 
L 121.303142 71.626213 
L 122.934572 62.189617 
L 124.566002 55.326638 
L 126.197431 52.753021 
L 127.828861 51.037277 
L 129.460291 41.600681 
L 131.091721 45.890043 
L 132.723151 43.316426 
L 134.354581 51.895149 
L 135.986011 55.326638 
L 137.617441 56.184511 
L 140.8803 54.468766 
L 144.14316 51.037277 
L 145.77459 48.46366 
L 147.40602 31.306213 
L 149.03745 40.742809 
L 150.66888 46.747915 
L 152.30031 57.042383 
L 153.931739 53.610894 
L 155.563169 63.905362 
L 157.194599 45.890043 
L 158.826029 38.169191 
L 160.457459 39.027064 
L 162.088889 36.453447 
L 163.720319 36.453447 
L 165.351749 52.753021 
L 166.983178 51.037277 
L 168.614608 55.326638 
L 170.246038 48.46366 
L 171.877468 46.747915 
L 173.508898 44.174298 
L 175.140328 50.179404 
L 176.771758 45.03217 
L 178.403188 46.747915 
L 180.034617 41.600681 
L 181.666047 52.753021 
L 184.928907 54.468766 
L 186.560337 53.610894 
L 188.191767 44.174298 
L 189.823197 50.179404 
L 191.454627 45.03217 
L 193.086056 48.46366 
L 194.717486 54.468766 
L 196.348916 50.179404 
L 197.980346 57.042383 
L 199.611776 62.189617 
L 201.243206 51.037277 
L 202.874636 57.900255 
L 204.506066 74.19983 
L 206.137495 69.052596 
L 207.768925 48.46366 
L 209.400355 54.468766 
L 211.031785 53.610894 
L 212.663215 57.042383 
L 214.294645 50.179404 
L 215.926075 51.895149 
L 217.557505 58.758128 
L 219.188934 59.616 
L 220.820364 69.052596 
L 222.451794 57.042383 
L 224.083224 60.473872 
L 225.714654 61.331745 
L 227.346084 57.042383 
L 228.977514 66.478979 
L 230.608944 57.900255 
L 232.240373 59.616 
L 233.871803 53.610894 
L 235.503233 50.179404 
L 237.134663 39.884936 
L 238.766093 35.595574 
L 240.397523 27.874723 
L 242.028953 35.595574 
L 243.660383 32.164085 
L 245.291812 32.164085 
L 246.923242 24.443234 
L 248.554672 41.600681 
L 250.186102 37.311319 
L 251.817532 39.884936 
L 253.448962 53.610894 
L 255.080392 44.174298 
L 256.711822 42.458553 
L 258.343251 37.311319 
L 259.974681 33.87983 
L 261.606111 48.46366 
L 263.237541 46.747915 
L 264.868971 35.595574 
L 266.500401 33.87983 
L 268.131831 45.890043 
L 269.763261 33.021957 
L 271.39469 40.742809 
L 274.65755 30.44834 
L 276.28898 33.021957 
L 277.92041 32.164085 
L 279.55184 40.742809 
L 281.18327 37.311319 
L 282.8147 37.311319 
L 284.44613 19.296 
L 286.077559 30.44834 
L 287.708989 31.306213 
L 289.340419 39.027064 
L 290.971849 47.605787 
L 292.603279 39.027064 
L 294.234709 38.169191 
L 295.866139 39.027064 
L 297.497569 51.037277 
L 299.128998 54.468766 
L 300.760428 63.047489 
L 302.391858 57.042383 
L 304.023288 57.042383 
L 305.654718 47.605787 
L 307.286148 52.753021 
L 308.917578 57.042383 
L 310.549008 62.189617 
L 313.811867 38.169191 
L 315.443297 39.027064 
L 317.074727 36.453447 
L 318.706157 33.021957 
L 320.337587 35.595574 
L 321.969017 33.87983 
L 325.231876 45.890043 
L 326.863306 52.753021 
L 328.494736 51.895149 
L 330.126166 51.895149 
L 331.757596 35.595574 
L 333.389026 38.169191 
L 335.020456 36.453447 
L 336.651886 35.595574 
L 338.283315 46.747915 
L 339.914745 52.753021 
L 341.546175 43.316426 
L 343.177605 36.453447 
L 344.809035 38.169191 
L 346.440465 48.46366 
L 348.071895 53.610894 
L 349.703325 48.46366 
L 351.334754 60.473872 
L 352.966184 52.753021 
L 354.597614 56.184511 
L 356.229044 47.605787 
L 357.860474 49.321532 
L 359.491904 62.189617 
L 361.123334 49.321532 
L 362.754764 44.174298 
L 364.386193 51.037277 
L 366.017623 43.316426 
L 367.649053 40.742809 
L 369.280483 47.605787 
L 370.911913 48.46366 
L 372.543343 53.610894 
L 374.174773 46.747915 
L 374.174773 46.747915 
" clip-path="url(#p2e29b76caf)" style="fill: none; stroke: #2ca02c; stroke-width: 1.5; stroke-linecap: square"/>
   </g>
   <g id="line2d_19">
    <path d="M 49.520227 261.216 
L 51.151657 240.627064 
L 52.783087 225.185362 
L 54.414517 188.296851 
L 57.677377 119.667064 
L 59.308807 111.08834 
L 60.940236 96.504511 
L 62.571666 93.930894 
L 64.203096 104.225362 
L 65.834526 96.504511 
L 67.465956 82.778553 
L 69.097386 67.336851 
L 70.728816 35.595574 
L 72.360246 39.027064 
L 73.991675 50.179404 
L 75.623105 58.758128 
L 77.254535 68.194723 
L 78.885965 54.468766 
L 80.517395 69.052596 
L 82.148825 63.905362 
L 83.780255 44.174298 
L 85.411685 46.747915 
L 87.043114 44.174298 
L 88.674544 47.605787 
L 91.937404 33.87983 
L 93.568834 49.321532 
L 95.200264 44.174298 
L 96.831694 45.03217 
L 98.463124 36.453447 
L 100.094553 51.895149 
L 101.725983 53.610894 
L 103.357413 37.311319 
L 104.988843 29.590468 
L 106.620273 33.021957 
L 108.251703 31.306213 
L 109.883133 40.742809 
L 111.514563 38.169191 
L 113.145992 51.037277 
L 114.777422 39.884936 
L 116.408852 47.605787 
L 118.040282 45.890043 
L 119.671712 38.169191 
L 121.303142 27.874723 
L 122.934572 39.884936 
L 124.566002 45.03217 
L 126.197431 39.884936 
L 127.828861 51.895149 
L 129.460291 53.610894 
L 131.091721 49.321532 
L 132.723151 62.189617 
L 134.354581 45.890043 
L 135.986011 38.169191 
L 137.617441 46.747915 
L 139.24887 37.311319 
L 140.8803 41.600681 
L 142.51173 41.600681 
L 144.14316 38.169191 
L 147.40602 62.189617 
L 149.03745 40.742809 
L 150.66888 36.453447 
L 152.30031 31.306213 
L 153.931739 33.87983 
L 155.563169 33.021957 
L 157.194599 55.326638 
L 158.826029 63.905362 
L 160.457459 62.189617 
L 162.088889 51.037277 
L 163.720319 47.605787 
L 165.351749 39.884936 
L 166.983178 47.605787 
L 168.614608 44.174298 
L 170.246038 62.189617 
L 171.877468 75.057702 
L 173.508898 68.194723 
L 175.140328 54.468766 
L 176.771758 59.616 
L 178.403188 45.890043 
L 180.034617 45.890043 
L 181.666047 43.316426 
L 183.297477 42.458553 
L 184.928907 33.87983 
L 186.560337 36.453447 
L 188.191767 51.037277 
L 189.823197 46.747915 
L 191.454627 52.753021 
L 193.086056 56.184511 
L 194.717486 55.326638 
L 196.348916 63.905362 
L 197.980346 51.895149 
L 199.611776 50.179404 
L 201.243206 62.189617 
L 202.874636 48.46366 
L 204.506066 45.03217 
L 206.137495 46.747915 
L 207.768925 61.331745 
L 209.400355 53.610894 
L 211.031785 57.042383 
L 212.663215 54.468766 
L 214.294645 44.174298 
L 215.926075 55.326638 
L 217.557505 45.03217 
L 219.188934 33.87983 
L 220.820364 36.453447 
L 222.451794 40.742809 
L 224.083224 30.44834 
L 225.714654 42.458553 
L 227.346084 39.884936 
L 228.977514 26.158979 
L 230.608944 42.458553 
L 232.240373 66.478979 
L 233.871803 60.473872 
L 235.503233 61.331745 
L 237.134663 59.616 
L 238.766093 51.037277 
L 240.397523 46.747915 
L 242.028953 38.169191 
L 243.660383 36.453447 
L 245.291812 40.742809 
L 246.923242 44.174298 
L 248.554672 33.021957 
L 250.186102 37.311319 
L 251.817532 28.732596 
L 253.448962 19.296 
L 255.080392 33.87983 
L 256.711822 41.600681 
L 258.343251 48.46366 
L 259.974681 54.468766 
L 261.606111 38.169191 
L 264.868971 43.316426 
L 266.500401 54.468766 
L 268.131831 45.890043 
L 269.763261 57.042383 
L 271.39469 49.321532 
L 273.02612 42.458553 
L 276.28898 45.890043 
L 277.92041 45.03217 
L 279.55184 21.011745 
L 281.18327 45.03217 
L 282.8147 38.169191 
L 284.44613 45.03217 
L 286.077559 45.03217 
L 287.708989 52.753021 
L 289.340419 39.884936 
L 290.971849 45.890043 
L 292.603279 55.326638 
L 294.234709 46.747915 
L 295.866139 45.03217 
L 297.497569 32.164085 
L 299.128998 35.595574 
L 300.760428 52.753021 
L 302.391858 51.895149 
L 304.023288 54.468766 
L 305.654718 58.758128 
L 307.286148 45.890043 
L 308.917578 36.453447 
L 310.549008 33.87983 
L 312.180437 42.458553 
L 313.811867 62.189617 
L 315.443297 57.900255 
L 317.074727 62.189617 
L 318.706157 54.468766 
L 320.337587 54.468766 
L 321.969017 50.179404 
L 323.600447 35.595574 
L 325.231876 29.590468 
L 326.863306 34.737702 
L 328.494736 44.174298 
L 330.126166 52.753021 
L 331.757596 65.621106 
L 333.389026 66.478979 
L 335.020456 68.194723 
L 336.651886 63.905362 
L 338.283315 51.037277 
L 339.914745 43.316426 
L 341.546175 34.737702 
L 343.177605 31.306213 
L 344.809035 36.453447 
L 346.440465 38.169191 
L 348.071895 40.742809 
L 349.703325 45.890043 
L 351.334754 33.87983 
L 352.966184 35.595574 
L 354.597614 42.458553 
L 356.229044 48.46366 
L 357.860474 45.03217 
L 359.491904 43.316426 
L 361.123334 48.46366 
L 362.754764 51.895149 
L 366.017623 39.884936 
L 367.649053 64.763234 
L 369.280483 64.763234 
L 370.911913 72.484085 
L 372.543343 67.336851 
L 374.174773 64.763234 
L 374.174773 64.763234 
" clip-path="url(#p2e29b76caf)" style="fill: none; stroke: #d62728; stroke-width: 1.5; stroke-linecap: square"/>
   </g>
   <g id="patch_3">
    <path d="M 33.2875 273.312 
L 33.2875 7.2 
" style="fill: none; stroke: #000000; stroke-width: 0.8; stroke-linejoin: miter; stroke-linecap: square"/>
   </g>
   <g id="patch_4">
    <path d="M 390.4075 273.312 
L 390.4075 7.2 
" style="fill: none; stroke: #000000; stroke-width: 0.8; stroke-linejoin: miter; stroke-linecap: square"/>
   </g>
   <g id="patch_5">
    <path d="M 33.2875 273.312 
L 390.4075 273.312 
" style="fill: none; stroke: #000000; stroke-width: 0.8; stroke-linejoin: miter; stroke-linecap: square"/>
   </g>
   <g id="patch_6">
    <path d="M 33.2875 7.2 
L 390.4075 7.2 
" style="fill: none; stroke: #000000; stroke-width: 0.8; stroke-linejoin: miter; stroke-linecap: square"/>
   </g>
  </g>
 </g>
 <defs>
  <clipPath id="p2e29b76caf">
   <rect x="33.2875" y="7.2" width="357.12" height="266.112"/>
  </clipPath>
 </defs>
</svg>
