<?xml version="1.0" encoding="utf-8" standalone="no"?>
<!DOCTYPE svg PUBLIC "-//W3C//DTD SVG 1.1//EN"
  "http://www.w3.org/Graphics/SVG/1.1/DTD/svg11.dtd">
<svg xmlns:xlink="http://www.w3.org/1999/xlink" width="403.97pt" height="297.190125pt" viewBox="0 0 403.97 297.190125" xmlns="http://www.w3.org/2000/svg" version="1.1">
 <metadata>
  <rdf:RDF xmlns:dc="http://purl.org/dc/elements/1.1/" xmlns:cc="http://creativecommons.org/ns#" xmlns:rdf="http://www.w3.org/1999/02/22-rdf-syntax-ns#">
   <cc:Work>
    <dc:type rdf:resource="http://purl.org/dc/dcmitype/StillImage"/>
    <dc:date>2024-09-23T15:09:02.707659</dc:date>
    <dc:format>image/svg+xml</dc:format>
    <dc:creator>
     <cc:Agent>
      <dc:title>Matplotlib v3.9.2, https://matplotlib.org/</dc:title>
     </cc:Agent>
    </dc:creator>
   </cc:Work>
  </rdf:RDF>
 </metadata>
 <defs>
  <style type="text/css">*{stroke-linejoin: round; stroke-linecap: butt}</style>
 </defs>
 <g id="figure_1">
  <g id="patch_1">
   <path d="M 0 297.190125 
L 403.97 297.190125 
L 403.97 0 
L 0 0 
z
" style="fill: #ffffff"/>
  </g>
  <g id="axes_1">
   <g id="patch_2">
    <path d="M 39.65 273.312 
L 396.77 273.312 
L 396.77 7.2 
L 39.65 7.2 
z
" style="fill: #ffffff"/>
   </g>
   <g id="matplotlib.axis_1">
    <g id="xtick_1">
     <g id="line2d_1">
      <defs>
       <path id="mf27f724afe" d="M 0 0 
L 0 3.5 
" style="stroke: #000000; stroke-width: 0.8"/>
      </defs>
      <g>
       <use xlink:href="#mf27f724afe" x="55.882727" y="273.312" style="stroke: #000000; stroke-width: 0.8"/>
      </g>
     </g>
     <g id="text_1">
      <!-- 0.0 -->
      <g transform="translate(47.931165 287.910437) scale(0.1 -0.1)">
       <defs>
        <path id="DejaVuSans-30" d="M 2034 4250 
Q 1547 4250 1301 3770 
Q 1056 3291 1056 2328 
Q 1056 1369 1301 889 
Q 1547 409 2034 409 
Q 2525 409 2770 889 
Q 3016 1369 3016 2328 
Q 3016 3291 2770 3770 
Q 2525 4250 2034 4250 
z
M 2034 4750 
Q 2819 4750 3233 4129 
Q 3647 3509 3647 2328 
Q 3647 1150 3233 529 
Q 2819 -91 2034 -91 
Q 1250 -91 836 529 
Q 422 1150 422 2328 
Q 422 3509 836 4129 
Q 1250 4750 2034 4750 
z
" transform="scale(0.015625)"/>
        <path id="DejaVuSans-2e" d="M 684 794 
L 1344 794 
L 1344 0 
L 684 0 
L 684 794 
z
" transform="scale(0.015625)"/>
       </defs>
       <use xlink:href="#DejaVuSans-30"/>
       <use xlink:href="#DejaVuSans-2e" x="63.623047"/>
       <use xlink:href="#DejaVuSans-30" x="95.410156"/>
      </g>
     </g>
    </g>
    <g id="xtick_2">
     <g id="line2d_2">
      <g>
       <use xlink:href="#mf27f724afe" x="96.668474" y="273.312" style="stroke: #000000; stroke-width: 0.8"/>
      </g>
     </g>
     <g id="text_2">
      <!-- 2.5 -->
      <g transform="translate(88.716912 287.910437) scale(0.1 -0.1)">
       <defs>
        <path id="DejaVuSans-32" d="M 1228 531 
L 3431 531 
L 3431 0 
L 469 0 
L 469 531 
Q 828 903 1448 1529 
Q 2069 2156 2228 2338 
Q 2531 2678 2651 2914 
Q 2772 3150 2772 3378 
Q 2772 3750 2511 3984 
Q 2250 4219 1831 4219 
Q 1534 4219 1204 4116 
Q 875 4013 500 3803 
L 500 4441 
Q 881 4594 1212 4672 
Q 1544 4750 1819 4750 
Q 2544 4750 2975 4387 
Q 3406 4025 3406 3419 
Q 3406 3131 3298 2873 
Q 3191 2616 2906 2266 
Q 2828 2175 2409 1742 
Q 1991 1309 1228 531 
z
" transform="scale(0.015625)"/>
        <path id="DejaVuSans-35" d="M 691 4666 
L 3169 4666 
L 3169 4134 
L 1269 4134 
L 1269 2991 
Q 1406 3038 1543 3061 
Q 1681 3084 1819 3084 
Q 2600 3084 3056 2656 
Q 3513 2228 3513 1497 
Q 3513 744 3044 326 
Q 2575 -91 1722 -91 
Q 1428 -91 1123 -41 
Q 819 9 494 109 
L 494 744 
Q 775 591 1075 516 
Q 1375 441 1709 441 
Q 2250 441 2565 725 
Q 2881 1009 2881 1497 
Q 2881 1984 2565 2268 
Q 2250 2553 1709 2553 
Q 1456 2553 1204 2497 
Q 953 2441 691 2322 
L 691 4666 
z
" transform="scale(0.015625)"/>
       </defs>
       <use xlink:href="#DejaVuSans-32"/>
       <use xlink:href="#DejaVuSans-2e" x="63.623047"/>
       <use xlink:href="#DejaVuSans-35" x="95.410156"/>
      </g>
     </g>
    </g>
    <g id="xtick_3">
     <g id="line2d_3">
      <g>
       <use xlink:href="#mf27f724afe" x="137.454221" y="273.312" style="stroke: #000000; stroke-width: 0.8"/>
      </g>
     </g>
     <g id="text_3">
      <!-- 5.0 -->
      <g transform="translate(129.502659 287.910437) scale(0.1 -0.1)">
       <use xlink:href="#DejaVuSans-35"/>
       <use xlink:href="#DejaVuSans-2e" x="63.623047"/>
       <use xlink:href="#DejaVuSans-30" x="95.410156"/>
      </g>
     </g>
    </g>
    <g id="xtick_4">
     <g id="line2d_4">
      <g>
       <use xlink:href="#mf27f724afe" x="178.239968" y="273.312" style="stroke: #000000; stroke-width: 0.8"/>
      </g>
     </g>
     <g id="text_4">
      <!-- 7.5 -->
      <g transform="translate(170.288406 287.910437) scale(0.1 -0.1)">
       <defs>
        <path id="DejaVuSans-37" d="M 525 4666 
L 3525 4666 
L 3525 4397 
L 1831 0 
L 1172 0 
L 2766 4134 
L 525 4134 
L 525 4666 
z
" transform="scale(0.015625)"/>
       </defs>
       <use xlink:href="#DejaVuSans-37"/>
       <use xlink:href="#DejaVuSans-2e" x="63.623047"/>
       <use xlink:href="#DejaVuSans-35" x="95.410156"/>
      </g>
     </g>
    </g>
    <g id="xtick_5">
     <g id="line2d_5">
      <g>
       <use xlink:href="#mf27f724afe" x="219.025715" y="273.312" style="stroke: #000000; stroke-width: 0.8"/>
      </g>
     </g>
     <g id="text_5">
      <!-- 10.0 -->
      <g transform="translate(207.892902 287.910437) scale(0.1 -0.1)">
       <defs>
        <path id="DejaVuSans-31" d="M 794 531 
L 1825 531 
L 1825 4091 
L 703 3866 
L 703 4441 
L 1819 4666 
L 2450 4666 
L 2450 531 
L 3481 531 
L 3481 0 
L 794 0 
L 794 531 
z
" transform="scale(0.015625)"/>
       </defs>
       <use xlink:href="#DejaVuSans-31"/>
       <use xlink:href="#DejaVuSans-30" x="63.623047"/>
       <use xlink:href="#DejaVuSans-2e" x="127.246094"/>
       <use xlink:href="#DejaVuSans-30" x="159.033203"/>
      </g>
     </g>
    </g>
    <g id="xtick_6">
     <g id="line2d_6">
      <g>
       <use xlink:href="#mf27f724afe" x="259.811462" y="273.312" style="stroke: #000000; stroke-width: 0.8"/>
      </g>
     </g>
     <g id="text_6">
      <!-- 12.5 -->
      <g transform="translate(248.678649 287.910437) scale(0.1 -0.1)">
       <use xlink:href="#DejaVuSans-31"/>
       <use xlink:href="#DejaVuSans-32" x="63.623047"/>
       <use xlink:href="#DejaVuSans-2e" x="127.246094"/>
       <use xlink:href="#DejaVuSans-35" x="159.033203"/>
      </g>
     </g>
    </g>
    <g id="xtick_7">
     <g id="line2d_7">
      <g>
       <use xlink:href="#mf27f724afe" x="300.597209" y="273.312" style="stroke: #000000; stroke-width: 0.8"/>
      </g>
     </g>
     <g id="text_7">
      <!-- 15.0 -->
      <g transform="translate(289.464396 287.910437) scale(0.1 -0.1)">
       <use xlink:href="#DejaVuSans-31"/>
       <use xlink:href="#DejaVuSans-35" x="63.623047"/>
       <use xlink:href="#DejaVuSans-2e" x="127.246094"/>
       <use xlink:href="#DejaVuSans-30" x="159.033203"/>
      </g>
     </g>
    </g>
    <g id="xtick_8">
     <g id="line2d_8">
      <g>
       <use xlink:href="#mf27f724afe" x="341.382956" y="273.312" style="stroke: #000000; stroke-width: 0.8"/>
      </g>
     </g>
     <g id="text_8">
      <!-- 17.5 -->
      <g transform="translate(330.250143 287.910437) scale(0.1 -0.1)">
       <use xlink:href="#DejaVuSans-31"/>
       <use xlink:href="#DejaVuSans-37" x="63.623047"/>
       <use xlink:href="#DejaVuSans-2e" x="127.246094"/>
       <use xlink:href="#DejaVuSans-35" x="159.033203"/>
      </g>
     </g>
    </g>
    <g id="xtick_9">
     <g id="line2d_9">
      <g>
       <use xlink:href="#mf27f724afe" x="382.168703" y="273.312" style="stroke: #000000; stroke-width: 0.8"/>
      </g>
     </g>
     <g id="text_9">
      <!-- 20.0 -->
      <g transform="translate(371.03589 287.910437) scale(0.1 -0.1)">
       <use xlink:href="#DejaVuSans-32"/>
       <use xlink:href="#DejaVuSans-30" x="63.623047"/>
       <use xlink:href="#DejaVuSans-2e" x="127.246094"/>
       <use xlink:href="#DejaVuSans-30" x="159.033203"/>
      </g>
     </g>
    </g>
   </g>
   <g id="matplotlib.axis_2">
    <g id="ytick_1">
     <g id="line2d_10">
      <defs>
       <path id="m225adaf231" d="M 0 0 
L -3.5 0 
" style="stroke: #000000; stroke-width: 0.8"/>
      </defs>
      <g>
       <use xlink:href="#m225adaf231" x="39.65" y="261.216" style="stroke: #000000; stroke-width: 0.8"/>
      </g>
     </g>
     <g id="text_10">
      <!-- 0 -->
      <g transform="translate(26.2875 265.015219) scale(0.1 -0.1)">
       <use xlink:href="#DejaVuSans-30"/>
      </g>
     </g>
    </g>
    <g id="ytick_2">
     <g id="line2d_11">
      <g>
       <use xlink:href="#m225adaf231" x="39.65" y="221.347839" style="stroke: #000000; stroke-width: 0.8"/>
      </g>
     </g>
     <g id="text_11">
      <!-- 500 -->
      <g transform="translate(13.5625 225.147058) scale(0.1 -0.1)">
       <use xlink:href="#DejaVuSans-35"/>
       <use xlink:href="#DejaVuSans-30" x="63.623047"/>
       <use xlink:href="#DejaVuSans-30" x="127.246094"/>
      </g>
     </g>
    </g>
    <g id="ytick_3">
     <g id="line2d_12">
      <g>
       <use xlink:href="#m225adaf231" x="39.65" y="181.479678" style="stroke: #000000; stroke-width: 0.8"/>
      </g>
     </g>
     <g id="text_12">
      <!-- 1000 -->
      <g transform="translate(7.2 185.278897) scale(0.1 -0.1)">
       <use xlink:href="#DejaVuSans-31"/>
       <use xlink:href="#DejaVuSans-30" x="63.623047"/>
       <use xlink:href="#DejaVuSans-30" x="127.246094"/>
       <use xlink:href="#DejaVuSans-30" x="190.869141"/>
      </g>
     </g>
    </g>
    <g id="ytick_4">
     <g id="line2d_13">
      <g>
       <use xlink:href="#m225adaf231" x="39.65" y="141.611517" style="stroke: #000000; stroke-width: 0.8"/>
      </g>
     </g>
     <g id="text_13">
      <!-- 1500 -->
      <g transform="translate(7.2 145.410736) scale(0.1 -0.1)">
       <use xlink:href="#DejaVuSans-31"/>
       <use xlink:href="#DejaVuSans-35" x="63.623047"/>
       <use xlink:href="#DejaVuSans-30" x="127.246094"/>
       <use xlink:href="#DejaVuSans-30" x="190.869141"/>
      </g>
     </g>
    </g>
    <g id="ytick_5">
     <g id="line2d_14">
      <g>
       <use xlink:href="#m225adaf231" x="39.65" y="101.743357" style="stroke: #000000; stroke-width: 0.8"/>
      </g>
     </g>
     <g id="text_14">
      <!-- 2000 -->
      <g transform="translate(7.2 105.542575) scale(0.1 -0.1)">
       <use xlink:href="#DejaVuSans-32"/>
       <use xlink:href="#DejaVuSans-30" x="63.623047"/>
       <use xlink:href="#DejaVuSans-30" x="127.246094"/>
       <use xlink:href="#DejaVuSans-30" x="190.869141"/>
      </g>
     </g>
    </g>
    <g id="ytick_6">
     <g id="line2d_15">
      <g>
       <use xlink:href="#m225adaf231" x="39.65" y="61.875196" style="stroke: #000000; stroke-width: 0.8"/>
      </g>
     </g>
     <g id="text_15">
      <!-- 2500 -->
      <g transform="translate(7.2 65.674415) scale(0.1 -0.1)">
       <use xlink:href="#DejaVuSans-32"/>
       <use xlink:href="#DejaVuSans-35" x="63.623047"/>
       <use xlink:href="#DejaVuSans-30" x="127.246094"/>
       <use xlink:href="#DejaVuSans-30" x="190.869141"/>
      </g>
     </g>
    </g>
    <g id="ytick_7">
     <g id="line2d_16">
      <g>
       <use xlink:href="#m225adaf231" x="39.65" y="22.007035" style="stroke: #000000; stroke-width: 0.8"/>
      </g>
     </g>
     <g id="text_16">
      <!-- 3000 -->
      <g transform="translate(7.2 25.806254) scale(0.1 -0.1)">
       <defs>
        <path id="DejaVuSans-33" d="M 2597 2516 
Q 3050 2419 3304 2112 
Q 3559 1806 3559 1356 
Q 3559 666 3084 287 
Q 2609 -91 1734 -91 
Q 1441 -91 1130 -33 
Q 819 25 488 141 
L 488 750 
Q 750 597 1062 519 
Q 1375 441 1716 441 
Q 2309 441 2620 675 
Q 2931 909 2931 1356 
Q 2931 1769 2642 2001 
Q 2353 2234 1838 2234 
L 1294 2234 
L 1294 2753 
L 1863 2753 
Q 2328 2753 2575 2939 
Q 2822 3125 2822 3475 
Q 2822 3834 2567 4026 
Q 2313 4219 1838 4219 
Q 1578 4219 1281 4162 
Q 984 4106 628 3988 
L 628 4550 
Q 988 4650 1302 4700 
Q 1616 4750 1894 4750 
Q 2613 4750 3031 4423 
Q 3450 4097 3450 3541 
Q 3450 3153 3228 2886 
Q 3006 2619 2597 2516 
z
" transform="scale(0.015625)"/>
       </defs>
       <use xlink:href="#DejaVuSans-33"/>
       <use xlink:href="#DejaVuSans-30" x="63.623047"/>
       <use xlink:href="#DejaVuSans-30" x="127.246094"/>
       <use xlink:href="#DejaVuSans-30" x="190.869141"/>
      </g>
     </g>
    </g>
   </g>
   <g id="line2d_17">
    <path d="M 55.882727 261.216 
L 59.961302 241.28192 
L 64.039877 223.269485 
L 68.118451 206.993448 
L 72.197026 192.286422 
L 76.275601 178.997153 
L 80.354175 166.988969 
L 84.43275 156.138374 
L 88.511325 146.333777 
L 92.589899 137.474343 
L 96.668474 129.468958 
L 100.747049 122.235293 
L 104.825624 115.698952 
L 108.904198 109.792715 
L 112.982773 104.45584 
L 117.061348 99.633439 
L 121.139922 95.275917 
L 125.218497 91.338461 
L 129.297072 87.780575 
L 133.375646 84.56567 
L 137.454221 81.660681 
L 141.532796 79.035733 
L 145.61137 76.663831 
L 149.689945 74.520579 
L 153.76852 72.583937 
L 157.847095 70.833988 
L 161.925669 69.252733 
L 166.004244 67.823912 
L 170.082819 66.532829 
L 174.161393 65.366206 
L 178.239968 64.312046 
L 182.318543 63.359507 
L 186.397117 62.498792 
L 190.475692 61.721051 
L 194.554267 61.018283 
L 198.632841 60.383263 
L 202.711416 59.809458 
L 206.789991 59.290968 
L 210.868566 58.822461 
L 214.94714 58.399118 
L 219.025715 58.016585 
L 223.10429 57.670928 
L 227.182864 57.358592 
L 231.261439 57.076366 
L 235.340014 56.821346 
L 239.418588 56.590911 
L 243.497163 56.382689 
L 247.575738 56.19454 
L 251.654312 56.024528 
L 255.732887 55.870905 
L 259.811462 55.732092 
L 263.890037 55.60666 
L 267.968611 55.49332 
L 272.047186 55.390906 
L 276.125761 55.298365 
L 280.204335 55.214744 
L 284.28291 55.139185 
L 288.361485 55.07091 
L 292.440059 55.009216 
L 296.518634 54.953469 
L 300.597209 54.903097 
L 304.675783 54.85758 
L 308.754358 54.816452 
L 312.832933 54.779288 
L 316.911508 54.745706 
L 320.990082 54.715362 
L 325.068657 54.687943 
L 329.147232 54.663168 
L 333.225806 54.64078 
L 337.304381 54.620551 
L 341.382956 54.602272 
L 345.46153 54.585755 
L 349.540105 54.57083 
L 353.61868 54.557344 
L 357.697254 54.545158 
L 361.775829 54.534147 
L 365.854404 54.524197 
L 369.932979 54.515206 
L 374.011553 54.507082 
L 378.090128 54.499742 
" clip-path="url(#pb32338d911)" style="fill: none; stroke: #1f77b4; stroke-width: 1.5; stroke-linecap: square"/>
   </g>
   <g id="line2d_18">
    <path d="M 55.882727 261.216 
L 59.961302 261.216 
L 64.039877 259.294355 
L 68.118451 256.09789 
L 72.197026 252.100206 
L 76.275601 247.645008 
L 80.354175 242.978864 
L 84.43275 238.275938 
L 88.511325 233.656658 
L 92.589899 229.201766 
L 96.668474 224.962889 
L 100.747049 220.970471 
L 104.825624 217.239707 
L 108.904198 213.774969 
L 112.982773 210.5731 
L 117.061348 207.625845 
L 121.139922 204.921642 
L 125.218497 202.446922 
L 129.297072 200.18706 
L 133.375646 198.127037 
L 137.454221 196.251914 
L 141.532796 194.547154 
L 145.61137 192.998833 
L 149.689945 191.593768 
L 153.76852 190.319589 
L 157.847095 189.164776 
L 161.925669 188.118654 
L 166.004244 187.171378 
L 170.082819 186.313899 
L 174.161393 185.537926 
L 178.239968 184.835879 
L 182.318543 184.200843 
L 186.397117 183.626518 
L 190.475692 183.107173 
L 194.554267 182.6376 
L 198.632841 182.213072 
L 202.711416 181.829299 
L 206.789991 181.482394 
L 210.868566 181.168833 
L 214.94714 180.885425 
L 219.025715 180.629282 
L 223.10429 180.397788 
L 227.182864 180.188578 
L 231.261439 179.99951 
L 235.340014 179.82865 
L 239.418588 179.674247 
L 243.497163 179.534718 
L 247.575738 179.40863 
L 251.654312 179.294692 
L 255.732887 179.191732 
L 259.811462 179.098694 
L 263.890037 179.014622 
L 267.968611 178.938653 
L 272.047186 178.870005 
L 276.125761 178.807974 
L 280.204335 178.751922 
L 284.28291 178.701272 
L 288.361485 178.655505 
L 292.440059 178.614149 
L 296.518634 178.57678 
L 300.597209 178.543013 
L 304.675783 178.5125 
L 308.754358 178.484929 
L 312.832933 178.460016 
L 316.911508 178.437504 
L 320.990082 178.417163 
L 325.068657 178.398782 
L 329.147232 178.382173 
L 333.225806 178.367165 
L 337.304381 178.353604 
L 341.382956 178.34135 
L 345.46153 178.330278 
L 349.540105 178.320273 
L 353.61868 178.311232 
L 357.697254 178.303063 
L 361.775829 178.295681 
L 365.854404 178.289011 
L 369.932979 178.282984 
L 374.011553 178.277538 
L 378.090128 178.272617 
" clip-path="url(#pb32338d911)" style="fill: none; stroke: #ff7f0e; stroke-width: 1.5; stroke-linecap: square"/>
   </g>
   <g id="line2d_19">
    <path d="M 55.882727 261.216 
L 59.145587 247.34188 
L 62.408447 230.517516 
L 64.039877 223.739929 
L 65.671307 218.158386 
L 68.934166 205.08163 
L 70.565596 199.579823 
L 73.828456 186.104385 
L 77.091316 177.732071 
L 78.722746 172.54921 
L 80.354175 168.482658 
L 83.617035 158.834563 
L 85.248465 153.25302 
L 86.879895 149.904095 
L 88.511325 145.119916 
L 90.142755 142.727826 
L 91.774185 139.857318 
L 93.405614 135.471821 
L 95.037044 130.607905 
L 96.668474 126.780562 
L 98.299904 125.185835 
L 99.931334 121.039546 
L 101.562764 117.850094 
L 103.194194 114.102486 
L 106.457053 109.238571 
L 108.088483 106.527536 
L 109.719913 103.019138 
L 111.351343 98.394431 
L 112.982773 94.327879 
L 114.614203 92.733152 
L 116.245633 90.261326 
L 117.877063 87.15161 
L 119.508492 84.679784 
L 124.402782 81.251122 
L 126.034212 78.221142 
L 129.297072 74.234326 
L 130.928502 72.799072 
L 134.191361 70.327246 
L 135.822791 66.579639 
L 137.454221 65.862012 
L 139.085651 65.543067 
L 140.717081 64.82544 
L 142.348511 63.230713 
L 143.979941 61.954932 
L 145.61137 59.881788 
L 147.2428 59.323633 
L 148.87423 57.649171 
L 150.50566 56.692335 
L 152.13709 54.778663 
L 153.76852 52.227101 
L 155.39995 51.110792 
L 157.03138 49.276857 
L 158.66281 47.921339 
L 160.294239 46.007668 
L 161.925669 45.369777 
L 163.557099 45.130568 
L 165.188529 44.65215 
L 166.819959 45.848195 
L 168.451389 45.52925 
L 171.714249 45.768459 
L 173.345678 44.173732 
L 174.977108 44.333205 
L 176.608538 44.333205 
L 178.239968 44.01426 
L 179.871398 43.456105 
L 181.502828 42.100588 
L 183.134258 41.064016 
L 184.765688 37.71509 
L 186.397117 37.316409 
L 188.028547 36.678518 
L 189.659977 36.279837 
L 191.291407 35.004055 
L 192.922837 35.243264 
L 194.554267 34.445901 
L 196.185697 35.960891 
L 197.817127 35.243264 
L 199.448556 34.764846 
L 201.079986 33.808011 
L 202.711416 35.323001 
L 204.342846 35.721682 
L 205.974276 34.445901 
L 207.605706 34.286428 
L 209.237136 35.402737 
L 210.868566 36.040628 
L 212.499995 35.881155 
L 214.131425 33.808011 
L 215.762855 35.004055 
L 219.025715 35.243264 
L 220.657145 34.525637 
L 222.288575 33.648538 
L 223.920005 32.053811 
L 225.551434 33.010647 
L 227.182864 32.851175 
L 228.814294 30.219876 
L 230.445724 28.62515 
L 232.077154 29.821194 
L 233.708584 29.502249 
L 235.340014 32.532229 
L 236.971444 33.489065 
L 238.602873 31.814603 
L 240.234303 30.459085 
L 241.865733 30.219876 
L 243.497163 30.857767 
L 245.128593 32.611966 
L 246.760023 31.336185 
L 248.391453 30.857767 
L 250.022883 30.77803 
L 251.654312 30.857767 
L 253.285742 27.668314 
L 254.917172 26.472269 
L 256.548602 26.711478 
L 258.180032 27.74805 
L 259.811462 27.74805 
L 261.442892 27.269632 
L 263.074322 26.392533 
L 264.705751 24.71807 
L 266.337181 27.429105 
L 267.968611 26.631742 
L 271.231471 27.668314 
L 272.862901 27.349368 
L 274.494331 27.189896 
L 276.125761 27.588577 
L 277.75719 28.62515 
L 279.38862 28.864359 
L 281.02005 28.704886 
L 284.28291 30.538821 
L 285.91434 27.349368 
L 287.54577 29.581985 
L 289.1772 28.545413 
L 290.80863 29.103568 
L 292.440059 29.342777 
L 294.071489 30.060403 
L 295.702919 28.226468 
L 297.334349 28.306204 
L 298.965779 28.066995 
L 300.597209 26.153324 
L 302.228639 26.472269 
L 303.860069 25.754642 
L 305.491498 25.276224 
L 307.122928 24.159916 
L 308.754358 25.196488 
L 310.385788 24.638334 
L 312.017218 26.552005 
L 313.648648 25.35596 
L 315.280078 23.123343 
L 316.911508 22.246244 
L 318.542937 23.123343 
L 321.805797 24.399125 
L 323.437227 23.362552 
L 325.068657 21.68809 
L 326.700087 23.282816 
L 328.331517 22.724662 
L 329.962947 22.007035 
L 331.594376 22.804398 
L 333.225806 24.080179 
L 334.857236 25.674906 
L 336.488666 24.797806 
L 338.120096 24.319388 
L 339.751526 22.007035 
L 341.382956 24.877543 
L 343.014386 24.159916 
L 344.645815 22.884134 
L 346.277245 22.804398 
L 349.540105 23.681498 
L 351.171535 24.558597 
L 352.802965 25.276224 
L 354.434395 26.23306 
L 356.065825 25.35596 
L 357.697254 25.674906 
L 359.328684 23.442289 
L 360.960114 23.282816 
L 362.591544 25.276224 
L 364.222974 24.159916 
L 365.854404 23.282816 
L 367.485834 23.442289 
L 369.117264 25.037015 
L 370.748693 24.080179 
L 372.380123 21.927299 
L 374.011553 23.920707 
L 377.274413 19.296 
L 378.905843 20.013627 
L 380.537273 20.412309 
L 380.537273 20.412309 
" clip-path="url(#pb32338d911)" style="fill: none; stroke: #2ca02c; stroke-width: 1.5; stroke-linecap: square"/>
   </g>
   <g id="line2d_20">
    <path d="M 55.882727 261.216 
L 57.514157 261.216 
L 60.777017 260.019955 
L 62.408447 258.903647 
L 64.039877 257.627866 
L 65.671307 256.112875 
L 67.302736 255.15604 
L 68.934166 253.800522 
L 73.828456 250.611069 
L 77.091316 245.747154 
L 78.722746 244.471372 
L 80.354175 242.79691 
L 81.985605 241.521129 
L 83.617035 238.88983 
L 85.248465 237.614049 
L 86.879895 236.178795 
L 88.511325 234.424596 
L 90.142755 231.793297 
L 91.774185 229.56068 
L 95.037044 223.102038 
L 96.668474 221.507312 
L 98.299904 218.397595 
L 99.931334 216.802869 
L 101.562764 213.772889 
L 103.194194 213.613416 
L 104.825624 210.26449 
L 106.457053 209.148182 
L 108.088483 208.350819 
L 111.351343 209.068446 
L 116.245633 202.769276 
L 117.877063 201.81244 
L 119.508492 201.254286 
L 122.771352 198.224306 
L 124.402782 195.034853 
L 126.034212 194.23749 
L 127.665642 192.563027 
L 129.297072 189.692519 
L 130.928502 188.416738 
L 132.559931 187.858584 
L 134.191361 186.981485 
L 135.822791 185.386758 
L 137.454221 183.632559 
L 139.085651 181.080997 
L 140.717081 179.566007 
L 142.348511 179.884952 
L 143.979941 179.406534 
L 145.61137 178.529434 
L 147.2428 178.84838 
L 148.87423 179.326798 
L 150.50566 178.130753 
L 152.13709 178.449698 
L 153.76852 178.609171 
L 155.39995 176.536026 
L 157.03138 176.854972 
L 158.66281 174.861564 
L 160.294239 174.303409 
L 161.925669 171.91132 
L 163.557099 170.236857 
L 166.819959 164.416105 
L 168.451389 164.336369 
L 170.082819 162.901115 
L 171.714249 162.58217 
L 173.345678 162.980852 
L 174.977108 161.545598 
L 176.608538 159.711662 
L 178.239968 158.276409 
L 179.871398 159.472454 
L 181.502828 159.153508 
L 183.134258 158.116936 
L 186.397117 157.399309 
L 188.028547 156.203264 
L 189.659977 155.64511 
L 191.291407 157.319573 
L 192.922837 157.000628 
L 194.554267 157.638518 
L 196.185697 156.123528 
L 197.817127 156.123528 
L 199.448556 155.64511 
L 202.711416 154.369329 
L 204.342846 154.050384 
L 205.974276 156.52221 
L 207.605706 155.565374 
L 209.237136 152.934075 
L 210.868566 152.774603 
L 212.499995 151.259612 
L 214.131425 152.455657 
L 215.762855 150.541985 
L 219.025715 148.468841 
L 220.657145 147.990423 
L 222.288575 147.671478 
L 223.920005 150.063568 
L 225.551434 149.106732 
L 227.182864 149.58515 
L 228.814294 150.382513 
L 230.445724 151.658294 
L 232.077154 150.302777 
L 233.708584 149.824359 
L 235.340014 147.352533 
L 236.971444 146.395697 
L 238.602873 146.794378 
L 240.234303 147.910687 
L 241.865733 147.990423 
L 243.497163 147.19306 
L 245.128593 147.591742 
L 246.760023 147.671478 
L 248.391453 148.149896 
L 250.022883 147.19306 
L 251.654312 146.953851 
L 253.285742 149.664886 
L 254.917172 149.824359 
L 256.548602 148.787786 
L 258.180032 148.309368 
L 259.811462 147.113324 
L 261.442892 145.598334 
L 263.074322 143.206244 
L 264.705751 144.402289 
L 266.337181 141.611517 
L 267.968611 141.531781 
L 269.600041 142.169672 
L 271.231471 141.850726 
L 272.862901 142.568353 
L 274.494331 141.930463 
L 276.125761 142.329144 
L 277.75719 140.335736 
L 279.38862 139.777582 
L 281.02005 139.937055 
L 284.28291 142.010199 
L 285.91434 143.28598 
L 287.54577 144.16308 
L 289.1772 144.80097 
L 290.80863 144.322552 
L 294.071489 143.764398 
L 295.702919 145.438861 
L 297.334349 144.003607 
L 298.965779 143.28598 
L 300.597209 144.561761 
L 302.228639 144.083343 
L 303.860069 143.445453 
L 305.491498 144.083343 
L 307.122928 144.960443 
L 308.754358 144.561761 
L 310.385788 146.236224 
L 312.017218 144.322552 
L 313.648648 145.119916 
L 315.280078 144.641498 
L 316.911508 145.279388 
L 318.542937 143.764398 
L 320.174367 143.923871 
L 321.805797 143.365717 
L 323.437227 145.997015 
L 325.068657 148.07016 
L 326.700087 147.352533 
L 328.331517 147.671478 
L 329.962947 149.186468 
L 331.594376 149.345941 
L 333.225806 148.389105 
L 336.488666 145.438861 
L 338.120096 145.518597 
L 339.751526 147.830951 
L 341.382956 147.272796 
L 343.014386 147.272796 
L 344.645815 147.910687 
L 346.277245 146.953851 
L 347.908675 146.714642 
L 349.540105 145.997015 
L 351.171535 146.714642 
L 352.802965 145.997015 
L 354.434395 146.236224 
L 356.065825 147.751214 
L 357.697254 149.425677 
L 359.328684 150.621722 
L 360.960114 149.983831 
L 362.591544 148.867523 
L 364.222974 149.58515 
L 365.854404 149.425677 
L 367.485834 148.628314 
L 369.117264 146.714642 
L 370.748693 145.917279 
L 372.380123 145.518597 
L 374.011553 144.322552 
L 377.274413 146.475433 
L 378.905843 144.402289 
L 380.537273 143.764398 
L 380.537273 143.764398 
" clip-path="url(#pb32338d911)" style="fill: none; stroke: #d62728; stroke-width: 1.5; stroke-linecap: square"/>
   </g>
   <g id="patch_3">
    <path d="M 39.65 273.312 
L 39.65 7.2 
" style="fill: none; stroke: #000000; stroke-width: 0.8; stroke-linejoin: miter; stroke-linecap: square"/>
   </g>
   <g id="patch_4">
    <path d="M 396.77 273.312 
L 396.77 7.2 
" style="fill: none; stroke: #000000; stroke-width: 0.8; stroke-linejoin: miter; stroke-linecap: square"/>
   </g>
   <g id="patch_5">
    <path d="M 39.65 273.312 
L 396.77 273.312 
" style="fill: none; stroke: #000000; stroke-width: 0.8; stroke-linejoin: miter; stroke-linecap: square"/>
   </g>
   <g id="patch_6">
    <path d="M 39.65 7.2 
L 396.77 7.2 
" style="fill: none; stroke: #000000; stroke-width: 0.8; stroke-linejoin: miter; stroke-linecap: square"/>
   </g>
  </g>
 </g>
 <defs>
  <clipPath id="pb32338d911">
   <rect x="39.65" y="7.2" width="357.12" height="266.112"/>
  </clipPath>
 </defs>
</svg>
