<?xml version="1.0" encoding="utf-8" standalone="no"?>
<!DOCTYPE svg PUBLIC "-//W3C//DTD SVG 1.1//EN"
  "http://www.w3.org/Graphics/SVG/1.1/DTD/svg11.dtd">
<svg xmlns:xlink="http://www.w3.org/1999/xlink" width="926.85864pt" height="392.514375pt" viewBox="0 0 926.85864 392.514375" xmlns="http://www.w3.org/2000/svg" version="1.1">
 <metadata>
  <rdf:RDF xmlns:dc="http://purl.org/dc/elements/1.1/" xmlns:cc="http://creativecommons.org/ns#" xmlns:rdf="http://www.w3.org/1999/02/22-rdf-syntax-ns#">
   <cc:Work>
    <dc:type rdf:resource="http://purl.org/dc/dcmitype/StillImage"/>
    <dc:date>2026-01-28T01:13:17.381747</dc:date>
    <dc:format>image/svg+xml</dc:format>
    <dc:creator>
     <cc:Agent>
      <dc:title>Matplotlib v3.10.8, https://matplotlib.org/</dc:title>
     </cc:Agent>
    </dc:creator>
   </cc:Work>
  </rdf:RDF>
 </metadata>
 <defs>
  <style type="text/css">*{stroke-linejoin: round; stroke-linecap: butt}</style>
 </defs>
 <g id="figure_1">
  <g id="patch_1">
   <path d="M 0 392.514375 
L 926.85864 392.514375 
L 926.85864 0 
L 0 0 
L 0 392.514375 
z
" style="fill: none; opacity: 0"/>
  </g>
  <g id="axes_1">
   <g id="patch_2">
    <path d="M 49.385938 173.518125 
L 246.327114 173.518125 
L 246.327114 22.318125 
L 49.385938 22.318125 
L 49.385938 173.518125 
z
" style="fill: none; opacity: 0"/>
   </g>
   <g id="PathCollection_1">
    <defs>
     <path id="C0_0_a3d316d407" d="M 0 3.162278 
C 0.838646 3.162278 1.643056 2.82908 2.236068 2.236068 
C 2.82908 1.643056 3.162278 0.838646 3.162278 -0 
C 3.162278 -0.838646 2.82908 -1.643056 2.236068 -2.236068 
C 1.643056 -2.82908 0.838646 -3.162278 0 -3.162278 
C -0.838646 -3.162278 -1.643056 -2.82908 -2.236068 -2.236068 
C -2.82908 -1.643056 -3.162278 -0.838646 -3.162278 0 
C -3.162278 0.838646 -2.82908 1.643056 -2.236068 2.236068 
C -1.643056 2.82908 -0.838646 3.162278 0 3.162278 
z
"/>
    </defs>
    <g clip-path="url(#p3024180e24)">
     <use xlink:href="#C0_0_a3d316d407" x="49.385937" y="38.193922" style="fill: none; stroke: #377eb8; stroke-width: 3"/>
    </g>
    <g clip-path="url(#p3024180e24)">
     <use xlink:href="#C0_0_a3d316d407" x="55.012828" y="38.870543" style="fill: none; stroke: #377eb8; stroke-width: 3"/>
    </g>
    <g clip-path="url(#p3024180e24)">
     <use xlink:href="#C0_0_a3d316d407" x="60.639719" y="39.547164" style="fill: none; stroke: #377eb8; stroke-width: 3"/>
    </g>
    <g clip-path="url(#p3024180e24)">
     <use xlink:href="#C0_0_a3d316d407" x="66.26661" y="40.223785" style="fill: none; stroke: #377eb8; stroke-width: 3"/>
    </g>
    <g clip-path="url(#p3024180e24)">
     <use xlink:href="#C0_0_a3d316d407" x="71.893501" y="41.03573" style="fill: none; stroke: #377eb8; stroke-width: 3"/>
    </g>
    <g clip-path="url(#p3024180e24)">
     <use xlink:href="#C0_0_a3d316d407" x="77.520391" y="41.847676" style="fill: none; stroke: #377eb8; stroke-width: 3"/>
    </g>
    <g clip-path="url(#p3024180e24)">
     <use xlink:href="#C0_0_a3d316d407" x="83.147282" y="42.659621" style="fill: none; stroke: #377eb8; stroke-width: 3"/>
    </g>
    <g clip-path="url(#p3024180e24)">
     <use xlink:href="#C0_0_a3d316d407" x="88.774173" y="43.742214" style="fill: none; stroke: #377eb8; stroke-width: 3"/>
    </g>
    <g clip-path="url(#p3024180e24)">
     <use xlink:href="#C0_0_a3d316d407" x="94.401064" y="45.230781" style="fill: none; stroke: #377eb8; stroke-width: 3"/>
    </g>
    <g clip-path="url(#p3024180e24)">
     <use xlink:href="#C0_0_a3d316d407" x="100.027954" y="46.989995" style="fill: none; stroke: #377eb8; stroke-width: 3"/>
    </g>
    <g clip-path="url(#p3024180e24)">
     <use xlink:href="#C0_0_a3d316d407" x="105.654845" y="48.884534" style="fill: none; stroke: #377eb8; stroke-width: 3"/>
    </g>
    <g clip-path="url(#p3024180e24)">
     <use xlink:href="#C0_0_a3d316d407" x="111.281736" y="50.643749" style="fill: none; stroke: #377eb8; stroke-width: 3"/>
    </g>
    <g clip-path="url(#p3024180e24)">
     <use xlink:href="#C0_0_a3d316d407" x="116.908627" y="52.267639" style="fill: none; stroke: #377eb8; stroke-width: 3"/>
    </g>
    <g clip-path="url(#p3024180e24)">
     <use xlink:href="#C0_0_a3d316d407" x="122.535517" y="53.756205" style="fill: none; stroke: #377eb8; stroke-width: 3"/>
    </g>
    <g clip-path="url(#p3024180e24)">
     <use xlink:href="#C0_0_a3d316d407" x="128.162408" y="55.109447" style="fill: none; stroke: #377eb8; stroke-width: 3"/>
    </g>
    <g clip-path="url(#p3024180e24)">
     <use xlink:href="#C0_0_a3d316d407" x="133.789299" y="56.462689" style="fill: none; stroke: #377eb8; stroke-width: 3"/>
    </g>
    <g clip-path="url(#p3024180e24)">
     <use xlink:href="#C0_0_a3d316d407" x="139.41619" y="57.815932" style="fill: none; stroke: #377eb8; stroke-width: 3"/>
    </g>
    <g clip-path="url(#p3024180e24)">
     <use xlink:href="#C0_0_a3d316d407" x="145.04308" y="59.169174" style="fill: none; stroke: #377eb8; stroke-width: 3"/>
    </g>
   </g>
   <g id="PathCollection_2">
    <defs>
     <path id="C1_0_335c0b1d03" d="M 0 3.162278 
C 0.838646 3.162278 1.643056 2.82908 2.236068 2.236068 
C 2.82908 1.643056 3.162278 0.838646 3.162278 -0 
C 3.162278 -0.838646 2.82908 -1.643056 2.236068 -2.236068 
C 1.643056 -2.82908 0.838646 -3.162278 0 -3.162278 
C -0.838646 -3.162278 -1.643056 -2.82908 -2.236068 -2.236068 
C -2.82908 -1.643056 -3.162278 -0.838646 -3.162278 0 
C -3.162278 0.838646 -2.82908 1.643056 -2.236068 2.236068 
C -1.643056 2.82908 -0.838646 3.162278 0 3.162278 
z
"/>
    </defs>
    <g clip-path="url(#p3024180e24)">
     <use xlink:href="#C1_0_335c0b1d03" x="49.385937" y="145.100042" style="fill: none; stroke: #e41a1c; stroke-width: 3"/>
    </g>
    <g clip-path="url(#p3024180e24)">
     <use xlink:href="#C1_0_335c0b1d03" x="55.012828" y="145.370691" style="fill: none; stroke: #e41a1c; stroke-width: 3"/>
    </g>
    <g clip-path="url(#p3024180e24)">
     <use xlink:href="#C1_0_335c0b1d03" x="60.639719" y="145.641339" style="fill: none; stroke: #e41a1c; stroke-width: 3"/>
    </g>
    <g clip-path="url(#p3024180e24)">
     <use xlink:href="#C1_0_335c0b1d03" x="66.26661" y="145.911988" style="fill: none; stroke: #e41a1c; stroke-width: 3"/>
    </g>
    <g clip-path="url(#p3024180e24)">
     <use xlink:href="#C1_0_335c0b1d03" x="71.893501" y="146.182636" style="fill: none; stroke: #e41a1c; stroke-width: 3"/>
    </g>
    <g clip-path="url(#p3024180e24)">
     <use xlink:href="#C1_0_335c0b1d03" x="77.520391" y="146.453284" style="fill: none; stroke: #e41a1c; stroke-width: 3"/>
    </g>
    <g clip-path="url(#p3024180e24)">
     <use xlink:href="#C1_0_335c0b1d03" x="83.147282" y="146.723933" style="fill: none; stroke: #e41a1c; stroke-width: 3"/>
    </g>
    <g clip-path="url(#p3024180e24)">
     <use xlink:href="#C1_0_335c0b1d03" x="88.774173" y="146.994581" style="fill: none; stroke: #e41a1c; stroke-width: 3"/>
    </g>
    <g clip-path="url(#p3024180e24)">
     <use xlink:href="#C1_0_335c0b1d03" x="94.401064" y="147.26523" style="fill: none; stroke: #e41a1c; stroke-width: 3"/>
    </g>
    <g clip-path="url(#p3024180e24)">
     <use xlink:href="#C1_0_335c0b1d03" x="100.027954" y="147.535878" style="fill: none; stroke: #e41a1c; stroke-width: 3"/>
    </g>
    <g clip-path="url(#p3024180e24)">
     <use xlink:href="#C1_0_335c0b1d03" x="105.654845" y="147.806526" style="fill: none; stroke: #e41a1c; stroke-width: 3"/>
    </g>
    <g clip-path="url(#p3024180e24)">
     <use xlink:href="#C1_0_335c0b1d03" x="111.281736" y="148.077175" style="fill: none; stroke: #e41a1c; stroke-width: 3"/>
    </g>
    <g clip-path="url(#p3024180e24)">
     <use xlink:href="#C1_0_335c0b1d03" x="116.908627" y="148.347823" style="fill: none; stroke: #e41a1c; stroke-width: 3"/>
    </g>
    <g clip-path="url(#p3024180e24)">
     <use xlink:href="#C1_0_335c0b1d03" x="122.535517" y="148.618472" style="fill: none; stroke: #e41a1c; stroke-width: 3"/>
    </g>
    <g clip-path="url(#p3024180e24)">
     <use xlink:href="#C1_0_335c0b1d03" x="128.162408" y="148.88912" style="fill: none; stroke: #e41a1c; stroke-width: 3"/>
    </g>
    <g clip-path="url(#p3024180e24)">
     <use xlink:href="#C1_0_335c0b1d03" x="133.789299" y="149.159768" style="fill: none; stroke: #e41a1c; stroke-width: 3"/>
    </g>
    <g clip-path="url(#p3024180e24)">
     <use xlink:href="#C1_0_335c0b1d03" x="139.41619" y="149.430417" style="fill: none; stroke: #e41a1c; stroke-width: 3"/>
    </g>
    <g clip-path="url(#p3024180e24)">
     <use xlink:href="#C1_0_335c0b1d03" x="145.04308" y="149.701065" style="fill: none; stroke: #e41a1c; stroke-width: 3"/>
    </g>
   </g>
   <g id="matplotlib.axis_1">
    <g id="xtick_1">
     <g id="line2d_1">
      <defs>
       <path id="m1df02b94ca" d="M 0 0 
L 0 3.5 
" style="stroke: #000000; stroke-width: 0.8"/>
      </defs>
      <g>
       <use xlink:href="#m1df02b94ca" x="49.385937" y="173.518125" style="stroke: #000000; stroke-width: 0.8"/>
      </g>
     </g>
     <g id="text_1">
      <!-- 2000 -->
      <g transform="translate(36.660937 188.116562) scale(0.1 -0.1)">
       <defs>
        <path id="DejaVuSans-32" d="M 1228 531 
L 3431 531 
L 3431 0 
L 469 0 
L 469 531 
Q 828 903 1448 1529 
Q 2069 2156 2228 2338 
Q 2531 2678 2651 2914 
Q 2772 3150 2772 3378 
Q 2772 3750 2511 3984 
Q 2250 4219 1831 4219 
Q 1534 4219 1204 4116 
Q 875 4013 500 3803 
L 500 4441 
Q 881 4594 1212 4672 
Q 1544 4750 1819 4750 
Q 2544 4750 2975 4387 
Q 3406 4025 3406 3419 
Q 3406 3131 3298 2873 
Q 3191 2616 2906 2266 
Q 2828 2175 2409 1742 
Q 1991 1309 1228 531 
z
" transform="scale(0.015625)"/>
        <path id="DejaVuSans-30" d="M 2034 4250 
Q 1547 4250 1301 3770 
Q 1056 3291 1056 2328 
Q 1056 1369 1301 889 
Q 1547 409 2034 409 
Q 2525 409 2770 889 
Q 3016 1369 3016 2328 
Q 3016 3291 2770 3770 
Q 2525 4250 2034 4250 
z
M 2034 4750 
Q 2819 4750 3233 4129 
Q 3647 3509 3647 2328 
Q 3647 1150 3233 529 
Q 2819 -91 2034 -91 
Q 1250 -91 836 529 
Q 422 1150 422 2328 
Q 422 3509 836 4129 
Q 1250 4750 2034 4750 
z
" transform="scale(0.015625)"/>
       </defs>
       <use xlink:href="#DejaVuSans-32"/>
       <use xlink:href="#DejaVuSans-30" transform="translate(63.623047 0)"/>
       <use xlink:href="#DejaVuSans-30" transform="translate(127.246094 0)"/>
       <use xlink:href="#DejaVuSans-30" transform="translate(190.869141 0)"/>
      </g>
     </g>
    </g>
    <g id="xtick_2">
     <g id="line2d_2">
      <g>
       <use xlink:href="#m1df02b94ca" x="105.654845" y="173.518125" style="stroke: #000000; stroke-width: 0.8"/>
      </g>
     </g>
     <g id="text_2">
      <!-- 2010 -->
      <g transform="translate(92.929845 188.116562) scale(0.1 -0.1)">
       <defs>
        <path id="DejaVuSans-31" d="M 794 531 
L 1825 531 
L 1825 4091 
L 703 3866 
L 703 4441 
L 1819 4666 
L 2450 4666 
L 2450 531 
L 3481 531 
L 3481 0 
L 794 0 
L 794 531 
z
" transform="scale(0.015625)"/>
       </defs>
       <use xlink:href="#DejaVuSans-32"/>
       <use xlink:href="#DejaVuSans-30" transform="translate(63.623047 0)"/>
       <use xlink:href="#DejaVuSans-31" transform="translate(127.246094 0)"/>
       <use xlink:href="#DejaVuSans-30" transform="translate(190.869141 0)"/>
      </g>
     </g>
    </g>
    <g id="xtick_3">
     <g id="line2d_3">
      <g>
       <use xlink:href="#m1df02b94ca" x="161.923753" y="173.518125" style="stroke: #000000; stroke-width: 0.8"/>
      </g>
     </g>
     <g id="text_3">
      <!-- 2020 -->
      <g transform="translate(149.198753 188.116562) scale(0.1 -0.1)">
       <use xlink:href="#DejaVuSans-32"/>
       <use xlink:href="#DejaVuSans-30" transform="translate(63.623047 0)"/>
       <use xlink:href="#DejaVuSans-32" transform="translate(127.246094 0)"/>
       <use xlink:href="#DejaVuSans-30" transform="translate(190.869141 0)"/>
      </g>
     </g>
    </g>
    <g id="xtick_4">
     <g id="line2d_4">
      <g>
       <use xlink:href="#m1df02b94ca" x="218.19266" y="173.518125" style="stroke: #000000; stroke-width: 0.8"/>
      </g>
     </g>
     <g id="text_4">
      <!-- 2030 -->
      <g transform="translate(205.46766 188.116562) scale(0.1 -0.1)">
       <defs>
        <path id="DejaVuSans-33" d="M 2597 2516 
Q 3050 2419 3304 2112 
Q 3559 1806 3559 1356 
Q 3559 666 3084 287 
Q 2609 -91 1734 -91 
Q 1441 -91 1130 -33 
Q 819 25 488 141 
L 488 750 
Q 750 597 1062 519 
Q 1375 441 1716 441 
Q 2309 441 2620 675 
Q 2931 909 2931 1356 
Q 2931 1769 2642 2001 
Q 2353 2234 1838 2234 
L 1294 2234 
L 1294 2753 
L 1863 2753 
Q 2328 2753 2575 2939 
Q 2822 3125 2822 3475 
Q 2822 3834 2567 4026 
Q 2313 4219 1838 4219 
Q 1578 4219 1281 4162 
Q 984 4106 628 3988 
L 628 4550 
Q 988 4650 1302 4700 
Q 1616 4750 1894 4750 
Q 2613 4750 3031 4423 
Q 3450 4097 3450 3541 
Q 3450 3153 3228 2886 
Q 3006 2619 2597 2516 
z
" transform="scale(0.015625)"/>
       </defs>
       <use xlink:href="#DejaVuSans-32"/>
       <use xlink:href="#DejaVuSans-30" transform="translate(63.623047 0)"/>
       <use xlink:href="#DejaVuSans-33" transform="translate(127.246094 0)"/>
       <use xlink:href="#DejaVuSans-30" transform="translate(190.869141 0)"/>
      </g>
     </g>
    </g>
    <g id="text_5">
     <!-- Year -->
     <g transform="translate(137.269026 201.794687) scale(0.1 -0.1)">
      <defs>
       <path id="DejaVuSans-59" d="M -13 4666 
L 666 4666 
L 1959 2747 
L 3244 4666 
L 3922 4666 
L 2272 2222 
L 2272 0 
L 1638 0 
L 1638 2222 
L -13 4666 
z
" transform="scale(0.015625)"/>
       <path id="DejaVuSans-65" d="M 3597 1894 
L 3597 1613 
L 953 1613 
Q 991 1019 1311 708 
Q 1631 397 2203 397 
Q 2534 397 2845 478 
Q 3156 559 3463 722 
L 3463 178 
Q 3153 47 2828 -22 
Q 2503 -91 2169 -91 
Q 1331 -91 842 396 
Q 353 884 353 1716 
Q 353 2575 817 3079 
Q 1281 3584 2069 3584 
Q 2775 3584 3186 3129 
Q 3597 2675 3597 1894 
z
M 3022 2063 
Q 3016 2534 2758 2815 
Q 2500 3097 2075 3097 
Q 1594 3097 1305 2825 
Q 1016 2553 972 2059 
L 3022 2063 
z
" transform="scale(0.015625)"/>
       <path id="DejaVuSans-61" d="M 2194 1759 
Q 1497 1759 1228 1600 
Q 959 1441 959 1056 
Q 959 750 1161 570 
Q 1363 391 1709 391 
Q 2188 391 2477 730 
Q 2766 1069 2766 1631 
L 2766 1759 
L 2194 1759 
z
M 3341 1997 
L 3341 0 
L 2766 0 
L 2766 531 
Q 2569 213 2275 61 
Q 1981 -91 1556 -91 
Q 1019 -91 701 211 
Q 384 513 384 1019 
Q 384 1609 779 1909 
Q 1175 2209 1959 2209 
L 2766 2209 
L 2766 2266 
Q 2766 2663 2505 2880 
Q 2244 3097 1772 3097 
Q 1472 3097 1187 3025 
Q 903 2953 641 2809 
L 641 3341 
Q 956 3463 1253 3523 
Q 1550 3584 1831 3584 
Q 2591 3584 2966 3190 
Q 3341 2797 3341 1997 
z
" transform="scale(0.015625)"/>
       <path id="DejaVuSans-72" d="M 2631 2963 
Q 2534 3019 2420 3045 
Q 2306 3072 2169 3072 
Q 1681 3072 1420 2755 
Q 1159 2438 1159 1844 
L 1159 0 
L 581 0 
L 581 3500 
L 1159 3500 
L 1159 2956 
Q 1341 3275 1631 3429 
Q 1922 3584 2338 3584 
Q 2397 3584 2469 3576 
Q 2541 3569 2628 3553 
L 2631 2963 
z
" transform="scale(0.015625)"/>
      </defs>
      <use xlink:href="#DejaVuSans-59"/>
      <use xlink:href="#DejaVuSans-65" transform="translate(47.833984 0)"/>
      <use xlink:href="#DejaVuSans-61" transform="translate(109.357422 0)"/>
      <use xlink:href="#DejaVuSans-72" transform="translate(170.636719 0)"/>
     </g>
    </g>
   </g>
   <g id="matplotlib.axis_2">
    <g id="ytick_1">
     <g id="line2d_5">
      <defs>
       <path id="m845e9a96b7" d="M 0 0 
L -3.5 0 
" style="stroke: #000000; stroke-width: 0.8"/>
      </defs>
      <g>
       <use xlink:href="#m845e9a96b7" x="49.385938" y="173.518125" style="stroke: #000000; stroke-width: 0.8"/>
      </g>
     </g>
     <g id="text_6">
      <!-- 0 -->
      <g transform="translate(36.023438 177.317344) scale(0.1 -0.1)">
       <use xlink:href="#DejaVuSans-30"/>
      </g>
     </g>
    </g>
    <g id="ytick_2">
     <g id="line2d_6">
      <g>
       <use xlink:href="#m845e9a96b7" x="49.385938" y="150.964091" style="stroke: #000000; stroke-width: 0.8"/>
      </g>
     </g>
     <g id="text_7">
      <!-- 250.0K -->
      <g transform="translate(7.2 154.76331) scale(0.1 -0.1)">
       <defs>
        <path id="DejaVuSans-35" d="M 691 4666 
L 3169 4666 
L 3169 4134 
L 1269 4134 
L 1269 2991 
Q 1406 3038 1543 3061 
Q 1681 3084 1819 3084 
Q 2600 3084 3056 2656 
Q 3513 2228 3513 1497 
Q 3513 744 3044 326 
Q 2575 -91 1722 -91 
Q 1428 -91 1123 -41 
Q 819 9 494 109 
L 494 744 
Q 775 591 1075 516 
Q 1375 441 1709 441 
Q 2250 441 2565 725 
Q 2881 1009 2881 1497 
Q 2881 1984 2565 2268 
Q 2250 2553 1709 2553 
Q 1456 2553 1204 2497 
Q 953 2441 691 2322 
L 691 4666 
z
" transform="scale(0.015625)"/>
        <path id="DejaVuSans-2e" d="M 684 794 
L 1344 794 
L 1344 0 
L 684 0 
L 684 794 
z
" transform="scale(0.015625)"/>
        <path id="DejaVuSans-4b" d="M 628 4666 
L 1259 4666 
L 1259 2694 
L 3353 4666 
L 4166 4666 
L 1850 2491 
L 4331 0 
L 3500 0 
L 1259 2247 
L 1259 0 
L 628 0 
L 628 4666 
z
" transform="scale(0.015625)"/>
       </defs>
       <use xlink:href="#DejaVuSans-32"/>
       <use xlink:href="#DejaVuSans-35" transform="translate(63.623047 0)"/>
       <use xlink:href="#DejaVuSans-30" transform="translate(127.246094 0)"/>
       <use xlink:href="#DejaVuSans-2e" transform="translate(190.869141 0)"/>
       <use xlink:href="#DejaVuSans-30" transform="translate(222.65625 0)"/>
       <use xlink:href="#DejaVuSans-4b" transform="translate(286.279297 0)"/>
      </g>
     </g>
    </g>
    <g id="ytick_3">
     <g id="line2d_7">
      <g>
       <use xlink:href="#m845e9a96b7" x="49.385938" y="128.410057" style="stroke: #000000; stroke-width: 0.8"/>
      </g>
     </g>
     <g id="text_8">
      <!-- 500.0K -->
      <g transform="translate(7.2 132.209276) scale(0.1 -0.1)">
       <use xlink:href="#DejaVuSans-35"/>
       <use xlink:href="#DejaVuSans-30" transform="translate(63.623047 0)"/>
       <use xlink:href="#DejaVuSans-30" transform="translate(127.246094 0)"/>
       <use xlink:href="#DejaVuSans-2e" transform="translate(190.869141 0)"/>
       <use xlink:href="#DejaVuSans-30" transform="translate(222.65625 0)"/>
       <use xlink:href="#DejaVuSans-4b" transform="translate(286.279297 0)"/>
      </g>
     </g>
    </g>
    <g id="ytick_4">
     <g id="line2d_8">
      <g>
       <use xlink:href="#m845e9a96b7" x="49.385938" y="105.856024" style="stroke: #000000; stroke-width: 0.8"/>
      </g>
     </g>
     <g id="text_9">
      <!-- 750.0K -->
      <g transform="translate(7.2 109.655242) scale(0.1 -0.1)">
       <defs>
        <path id="DejaVuSans-37" d="M 525 4666 
L 3525 4666 
L 3525 4397 
L 1831 0 
L 1172 0 
L 2766 4134 
L 525 4134 
L 525 4666 
z
" transform="scale(0.015625)"/>
       </defs>
       <use xlink:href="#DejaVuSans-37"/>
       <use xlink:href="#DejaVuSans-35" transform="translate(63.623047 0)"/>
       <use xlink:href="#DejaVuSans-30" transform="translate(127.246094 0)"/>
       <use xlink:href="#DejaVuSans-2e" transform="translate(190.869141 0)"/>
       <use xlink:href="#DejaVuSans-30" transform="translate(222.65625 0)"/>
       <use xlink:href="#DejaVuSans-4b" transform="translate(286.279297 0)"/>
      </g>
     </g>
    </g>
    <g id="ytick_5">
     <g id="line2d_9">
      <g>
       <use xlink:href="#m845e9a96b7" x="49.385938" y="83.30199" style="stroke: #000000; stroke-width: 0.8"/>
      </g>
     </g>
     <g id="text_10">
      <!-- 1.0M -->
      <g transform="translate(17.854688 87.101208) scale(0.1 -0.1)">
       <defs>
        <path id="DejaVuSans-4d" d="M 628 4666 
L 1569 4666 
L 2759 1491 
L 3956 4666 
L 4897 4666 
L 4897 0 
L 4281 0 
L 4281 4097 
L 3078 897 
L 2444 897 
L 1241 4097 
L 1241 0 
L 628 0 
L 628 4666 
z
" transform="scale(0.015625)"/>
       </defs>
       <use xlink:href="#DejaVuSans-31"/>
       <use xlink:href="#DejaVuSans-2e" transform="translate(63.623047 0)"/>
       <use xlink:href="#DejaVuSans-30" transform="translate(95.410156 0)"/>
       <use xlink:href="#DejaVuSans-4d" transform="translate(159.033203 0)"/>
      </g>
     </g>
    </g>
    <g id="ytick_6">
     <g id="line2d_10">
      <g>
       <use xlink:href="#m845e9a96b7" x="49.385938" y="60.747956" style="stroke: #000000; stroke-width: 0.8"/>
      </g>
     </g>
     <g id="text_11">
      <!-- 1.25M -->
      <g transform="translate(11.492188 64.547175) scale(0.1 -0.1)">
       <use xlink:href="#DejaVuSans-31"/>
       <use xlink:href="#DejaVuSans-2e" transform="translate(63.623047 0)"/>
       <use xlink:href="#DejaVuSans-32" transform="translate(95.410156 0)"/>
       <use xlink:href="#DejaVuSans-35" transform="translate(159.033203 0)"/>
       <use xlink:href="#DejaVuSans-4d" transform="translate(222.65625 0)"/>
      </g>
     </g>
    </g>
    <g id="ytick_7">
     <g id="line2d_11">
      <g>
       <use xlink:href="#m845e9a96b7" x="49.385938" y="38.193922" style="stroke: #000000; stroke-width: 0.8"/>
      </g>
     </g>
     <g id="text_12">
      <!-- 1.5M -->
      <g transform="translate(17.854688 41.993141) scale(0.1 -0.1)">
       <use xlink:href="#DejaVuSans-31"/>
       <use xlink:href="#DejaVuSans-2e" transform="translate(63.623047 0)"/>
       <use xlink:href="#DejaVuSans-35" transform="translate(95.410156 0)"/>
       <use xlink:href="#DejaVuSans-4d" transform="translate(159.033203 0)"/>
      </g>
     </g>
    </g>
   </g>
   <g id="line2d_12">
    <path d="M 49.385937 38.193922 
L 52.199383 37.463038 
L 55.012828 36.857075 
L 57.826274 36.364439 
L 60.639719 35.974181 
L 63.453164 35.676358 
L 66.26661 35.461965 
L 69.080055 35.322795 
L 71.893501 35.251452 
L 74.706946 35.241122 
L 77.520391 35.285816 
L 80.333837 35.380028 
L 83.147282 35.5877 
L 85.960727 35.897457 
L 88.774173 36.298915 
L 91.587618 36.782418 
L 94.401064 37.339453 
L 97.214509 37.96202 
L 100.027954 38.642907 
L 102.8414 39.375771 
L 105.654845 40.154651 
L 108.46829 40.974311 
L 111.281736 41.763754 
L 114.095181 42.52614 
L 116.908627 43.264303 
L 119.722072 43.980888 
L 122.535517 44.678372 
L 125.348963 45.358753 
L 128.162408 46.023737 
L 130.975853 46.67523 
L 133.789299 47.314959 
L 136.602744 47.944022 
L 139.41619 48.577027 
L 142.229635 49.213728 
L 145.04308 49.853921 
L 147.856526 50.497045 
L 150.669971 51.075009 
L 153.483416 51.594505 
L 156.296862 52.06145 
L 159.110307 52.481147 
L 161.923753 52.858366 
L 164.737198 53.197398 
L 167.550643 53.502105 
L 170.364089 53.775955 
L 173.177534 54.022071 
L 175.99098 54.243259 
L 178.804425 54.442042 
L 181.61787 54.62069 
L 184.431316 54.781242 
L 187.244761 54.925531 
L 190.058206 55.055206 
L 192.871652 55.171748 
L 195.685097 55.27649 
L 198.498543 55.370628 
L 201.311988 55.455238 
L 204.125433 55.531287 
L 206.938879 55.599645 
L 209.752324 55.661091 
L 212.565769 55.716329 
L 215.379215 55.765987 
L 218.19266 55.810634 
L 221.006106 55.850777 
L 223.819551 55.886874 
L 226.632996 55.919335 
L 229.446442 55.94853 
L 232.259887 55.97479 
L 235.073332 55.998412 
L 237.886778 56.019665 
L 240.700223 56.038787 
L 243.513669 56.055996 
L 246.327114 56.071484 
" clip-path="url(#p3024180e24)" style="fill: none; stroke: #377eb8; stroke-width: 3; stroke-linecap: square"/>
   </g>
   <g id="line2d_13">
    <path d="M 49.385937 145.100042 
L 52.199383 145.235367 
L 55.012828 145.370691 
L 57.826274 145.506015 
L 60.639719 145.641339 
L 63.453164 145.776663 
L 66.26661 145.911988 
L 69.080055 146.047312 
L 71.893501 146.182636 
L 74.706946 146.31796 
L 77.520391 146.453284 
L 80.333837 146.588609 
L 83.147282 146.723933 
L 85.960727 146.859257 
L 88.774173 146.994581 
L 91.587618 147.129905 
L 94.401064 147.26523 
L 97.214509 147.400554 
L 100.027954 147.535878 
L 102.8414 147.671202 
L 105.654845 147.806526 
L 108.46829 147.941851 
L 111.281736 148.077175 
L 114.095181 148.212499 
L 116.908627 148.347823 
L 119.722072 148.483147 
L 122.535517 148.618472 
L 125.348963 148.753796 
L 128.162408 148.88912 
L 130.975853 149.024444 
L 133.789299 149.159768 
L 136.602744 149.295093 
L 139.41619 149.430417 
L 142.229635 149.565741 
L 145.04308 149.701065 
L 147.856526 149.701065 
L 150.669971 149.701065 
L 153.483416 149.701065 
L 156.296862 149.701065 
L 159.110307 149.701065 
L 161.923753 149.701065 
L 164.737198 149.701065 
L 167.550643 149.701065 
L 170.364089 149.701065 
L 173.177534 149.701065 
L 175.99098 149.701065 
L 178.804425 149.701065 
L 181.61787 149.701065 
L 184.431316 149.701065 
L 187.244761 149.701065 
L 190.058206 149.701065 
L 192.871652 149.701065 
L 195.685097 149.701065 
L 198.498543 149.701065 
L 201.311988 149.701065 
L 204.125433 149.701065 
L 206.938879 149.701065 
L 209.752324 149.701065 
L 212.565769 149.701065 
L 215.379215 149.701065 
L 218.19266 149.701065 
L 221.006106 149.701065 
L 223.819551 149.701065 
L 226.632996 149.701065 
L 229.446442 149.701065 
L 232.259887 149.701065 
L 235.073332 149.701065 
L 237.886778 149.701065 
L 240.700223 149.701065 
L 243.513669 149.701065 
L 246.327114 149.701065 
" clip-path="url(#p3024180e24)" style="fill: none; stroke: #e41a1c; stroke-width: 3; stroke-linecap: square"/>
   </g>
   <g id="patch_3">
    <path d="M 49.385938 173.518125 
L 49.385938 22.318125 
" style="fill: none; stroke: #000000; stroke-width: 0.8; stroke-linejoin: miter; stroke-linecap: square"/>
   </g>
   <g id="patch_4">
    <path d="M 246.327114 173.518125 
L 246.327114 22.318125 
" style="fill: none"/>
   </g>
   <g id="patch_5">
    <path d="M 49.385937 173.518125 
L 246.327114 173.518125 
" style="fill: none; stroke: #000000; stroke-width: 0.8; stroke-linejoin: miter; stroke-linecap: square"/>
   </g>
   <g id="patch_6">
    <path d="M 49.385937 22.318125 
L 246.327114 22.318125 
" style="fill: none"/>
   </g>
   <g id="text_13">
    <!-- Baseline-0-4 -->
    <g transform="translate(110.453088 16.318125) scale(0.12 -0.12)">
     <defs>
      <path id="DejaVuSans-42" d="M 1259 2228 
L 1259 519 
L 2272 519 
Q 2781 519 3026 730 
Q 3272 941 3272 1375 
Q 3272 1813 3026 2020 
Q 2781 2228 2272 2228 
L 1259 2228 
z
M 1259 4147 
L 1259 2741 
L 2194 2741 
Q 2656 2741 2882 2914 
Q 3109 3088 3109 3444 
Q 3109 3797 2882 3972 
Q 2656 4147 2194 4147 
L 1259 4147 
z
M 628 4666 
L 2241 4666 
Q 2963 4666 3353 4366 
Q 3744 4066 3744 3513 
Q 3744 3084 3544 2831 
Q 3344 2578 2956 2516 
Q 3422 2416 3680 2098 
Q 3938 1781 3938 1306 
Q 3938 681 3513 340 
Q 3088 0 2303 0 
L 628 0 
L 628 4666 
z
" transform="scale(0.015625)"/>
      <path id="DejaVuSans-73" d="M 2834 3397 
L 2834 2853 
Q 2591 2978 2328 3040 
Q 2066 3103 1784 3103 
Q 1356 3103 1142 2972 
Q 928 2841 928 2578 
Q 928 2378 1081 2264 
Q 1234 2150 1697 2047 
L 1894 2003 
Q 2506 1872 2764 1633 
Q 3022 1394 3022 966 
Q 3022 478 2636 193 
Q 2250 -91 1575 -91 
Q 1294 -91 989 -36 
Q 684 19 347 128 
L 347 722 
Q 666 556 975 473 
Q 1284 391 1588 391 
Q 1994 391 2212 530 
Q 2431 669 2431 922 
Q 2431 1156 2273 1281 
Q 2116 1406 1581 1522 
L 1381 1569 
Q 847 1681 609 1914 
Q 372 2147 372 2553 
Q 372 3047 722 3315 
Q 1072 3584 1716 3584 
Q 2034 3584 2315 3537 
Q 2597 3491 2834 3397 
z
" transform="scale(0.015625)"/>
      <path id="DejaVuSans-6c" d="M 603 4863 
L 1178 4863 
L 1178 0 
L 603 0 
L 603 4863 
z
" transform="scale(0.015625)"/>
      <path id="DejaVuSans-69" d="M 603 3500 
L 1178 3500 
L 1178 0 
L 603 0 
L 603 3500 
z
M 603 4863 
L 1178 4863 
L 1178 4134 
L 603 4134 
L 603 4863 
z
" transform="scale(0.015625)"/>
      <path id="DejaVuSans-6e" d="M 3513 2113 
L 3513 0 
L 2938 0 
L 2938 2094 
Q 2938 2591 2744 2837 
Q 2550 3084 2163 3084 
Q 1697 3084 1428 2787 
Q 1159 2491 1159 1978 
L 1159 0 
L 581 0 
L 581 3500 
L 1159 3500 
L 1159 2956 
Q 1366 3272 1645 3428 
Q 1925 3584 2291 3584 
Q 2894 3584 3203 3211 
Q 3513 2838 3513 2113 
z
" transform="scale(0.015625)"/>
      <path id="DejaVuSans-2d" d="M 313 2009 
L 1997 2009 
L 1997 1497 
L 313 1497 
L 313 2009 
z
" transform="scale(0.015625)"/>
      <path id="DejaVuSans-34" d="M 2419 4116 
L 825 1625 
L 2419 1625 
L 2419 4116 
z
M 2253 4666 
L 3047 4666 
L 3047 1625 
L 3713 1625 
L 3713 1100 
L 3047 1100 
L 3047 0 
L 2419 0 
L 2419 1100 
L 313 1100 
L 313 1709 
L 2253 4666 
z
" transform="scale(0.015625)"/>
     </defs>
     <use xlink:href="#DejaVuSans-42"/>
     <use xlink:href="#DejaVuSans-61" transform="translate(68.603516 0)"/>
     <use xlink:href="#DejaVuSans-73" transform="translate(129.882812 0)"/>
     <use xlink:href="#DejaVuSans-65" transform="translate(181.982422 0)"/>
     <use xlink:href="#DejaVuSans-6c" transform="translate(243.505859 0)"/>
     <use xlink:href="#DejaVuSans-69" transform="translate(271.289062 0)"/>
     <use xlink:href="#DejaVuSans-6e" transform="translate(299.072266 0)"/>
     <use xlink:href="#DejaVuSans-65" transform="translate(362.451172 0)"/>
     <use xlink:href="#DejaVuSans-2d" transform="translate(423.974609 0)"/>
     <use xlink:href="#DejaVuSans-30" transform="translate(460.058594 0)"/>
     <use xlink:href="#DejaVuSans-2d" transform="translate(523.681641 0)"/>
     <use xlink:href="#DejaVuSans-34" transform="translate(559.765625 0)"/>
    </g>
   </g>
   <g id="legend_1">
    <g id="patch_7">
     <path d="M 263.174173 114.235312 
L 326.83511 114.235312 
Q 328.83511 114.235312 328.83511 112.235312 
L 328.83511 83.600937 
Q 328.83511 81.600937 326.83511 81.600937 
L 263.174173 81.600937 
Q 261.174173 81.600937 261.174173 83.600937 
L 261.174173 112.235312 
Q 261.174173 114.235312 263.174173 114.235312 
L 263.174173 114.235312 
z
" style="fill: none; opacity: 0"/>
    </g>
    <g id="line2d_14">
     <path d="M 265.174173 89.699375 
L 275.174173 89.699375 
L 285.174173 89.699375 
" style="fill: none; stroke: #377eb8; stroke-width: 3; stroke-linecap: square"/>
    </g>
    <g id="text_14">
     <!-- alive -->
     <g transform="translate(293.174173 93.199375) scale(0.1 -0.1)">
      <defs>
       <path id="DejaVuSans-76" d="M 191 3500 
L 800 3500 
L 1894 563 
L 2988 3500 
L 3597 3500 
L 2284 0 
L 1503 0 
L 191 3500 
z
" transform="scale(0.015625)"/>
      </defs>
      <use xlink:href="#DejaVuSans-61"/>
      <use xlink:href="#DejaVuSans-6c" transform="translate(61.279297 0)"/>
      <use xlink:href="#DejaVuSans-69" transform="translate(89.0625 0)"/>
      <use xlink:href="#DejaVuSans-76" transform="translate(116.845703 0)"/>
      <use xlink:href="#DejaVuSans-65" transform="translate(176.025391 0)"/>
     </g>
    </g>
    <g id="line2d_15">
     <path d="M 265.174173 104.3775 
L 275.174173 104.3775 
L 285.174173 104.3775 
" style="fill: none; stroke: #e41a1c; stroke-width: 3; stroke-linecap: square"/>
    </g>
    <g id="text_15">
     <!-- b_rate -->
     <g transform="translate(293.174173 107.8775) scale(0.1 -0.1)">
      <defs>
       <path id="DejaVuSans-62" d="M 3116 1747 
Q 3116 2381 2855 2742 
Q 2594 3103 2138 3103 
Q 1681 3103 1420 2742 
Q 1159 2381 1159 1747 
Q 1159 1113 1420 752 
Q 1681 391 2138 391 
Q 2594 391 2855 752 
Q 3116 1113 3116 1747 
z
M 1159 2969 
Q 1341 3281 1617 3432 
Q 1894 3584 2278 3584 
Q 2916 3584 3314 3078 
Q 3713 2572 3713 1747 
Q 3713 922 3314 415 
Q 2916 -91 2278 -91 
Q 1894 -91 1617 61 
Q 1341 213 1159 525 
L 1159 0 
L 581 0 
L 581 4863 
L 1159 4863 
L 1159 2969 
z
" transform="scale(0.015625)"/>
       <path id="DejaVuSans-5f" d="M 3263 -1063 
L 3263 -1509 
L -63 -1509 
L -63 -1063 
L 3263 -1063 
z
" transform="scale(0.015625)"/>
       <path id="DejaVuSans-74" d="M 1172 4494 
L 1172 3500 
L 2356 3500 
L 2356 3053 
L 1172 3053 
L 1172 1153 
Q 1172 725 1289 603 
Q 1406 481 1766 481 
L 2356 481 
L 2356 0 
L 1766 0 
Q 1100 0 847 248 
Q 594 497 594 1153 
L 594 3053 
L 172 3053 
L 172 3500 
L 594 3500 
L 594 4494 
L 1172 4494 
z
" transform="scale(0.015625)"/>
      </defs>
      <use xlink:href="#DejaVuSans-62"/>
      <use xlink:href="#DejaVuSans-5f" transform="translate(63.476562 0)"/>
      <use xlink:href="#DejaVuSans-72" transform="translate(113.476562 0)"/>
      <use xlink:href="#DejaVuSans-61" transform="translate(154.589844 0)"/>
      <use xlink:href="#DejaVuSans-74" transform="translate(215.869141 0)"/>
      <use xlink:href="#DejaVuSans-65" transform="translate(255.078125 0)"/>
     </g>
    </g>
   </g>
  </g>
  <g id="axes_2">
   <g id="patch_8">
    <path d="M 344.797702 173.518125 
L 541.738879 173.518125 
L 541.738879 22.318125 
L 344.797702 22.318125 
L 344.797702 173.518125 
z
" style="fill: none; opacity: 0"/>
   </g>
   <g id="PathCollection_3">
    <defs>
     <path id="C2_0_8043e1d374" d="M 0 3.162278 
C 0.838646 3.162278 1.643056 2.82908 2.236068 2.236068 
C 2.82908 1.643056 3.162278 0.838646 3.162278 -0 
C 3.162278 -0.838646 2.82908 -1.643056 2.236068 -2.236068 
C 1.643056 -2.82908 0.838646 -3.162278 0 -3.162278 
C -0.838646 -3.162278 -1.643056 -2.82908 -2.236068 -2.236068 
C -2.82908 -1.643056 -3.162278 -0.838646 -3.162278 0 
C -3.162278 0.838646 -2.82908 1.643056 -2.236068 2.236068 
C -1.643056 2.82908 -0.838646 3.162278 0 3.162278 
z
"/>
    </defs>
    <g clip-path="url(#p393b3f2cd8)">
     <use xlink:href="#C2_0_8043e1d374" x="344.797702" y="36.375268" style="fill: none; stroke: #377eb8; stroke-width: 3"/>
    </g>
    <g clip-path="url(#p393b3f2cd8)">
     <use xlink:href="#C2_0_8043e1d374" x="350.424593" y="38.158125" style="fill: none; stroke: #377eb8; stroke-width: 3"/>
    </g>
    <g clip-path="url(#p393b3f2cd8)">
     <use xlink:href="#C2_0_8043e1d374" x="356.051484" y="39.666696" style="fill: none; stroke: #377eb8; stroke-width: 3"/>
    </g>
    <g clip-path="url(#p393b3f2cd8)">
     <use xlink:href="#C2_0_8043e1d374" x="361.678374" y="41.038125" style="fill: none; stroke: #377eb8; stroke-width: 3"/>
    </g>
    <g clip-path="url(#p393b3f2cd8)">
     <use xlink:href="#C2_0_8043e1d374" x="367.305265" y="42.203839" style="fill: none; stroke: #377eb8; stroke-width: 3"/>
    </g>
    <g clip-path="url(#p393b3f2cd8)">
     <use xlink:href="#C2_0_8043e1d374" x="372.932156" y="43.163839" style="fill: none; stroke: #377eb8; stroke-width: 3"/>
    </g>
    <g clip-path="url(#p393b3f2cd8)">
     <use xlink:href="#C2_0_8043e1d374" x="378.559047" y="44.055268" style="fill: none; stroke: #377eb8; stroke-width: 3"/>
    </g>
    <g clip-path="url(#p393b3f2cd8)">
     <use xlink:href="#C2_0_8043e1d374" x="384.185938" y="44.603839" style="fill: none; stroke: #377eb8; stroke-width: 3"/>
    </g>
    <g clip-path="url(#p393b3f2cd8)">
     <use xlink:href="#C2_0_8043e1d374" x="389.812828" y="44.946696" style="fill: none; stroke: #377eb8; stroke-width: 3"/>
    </g>
    <g clip-path="url(#p393b3f2cd8)">
     <use xlink:href="#C2_0_8043e1d374" x="395.439719" y="45.152411" style="fill: none; stroke: #377eb8; stroke-width: 3"/>
    </g>
    <g clip-path="url(#p393b3f2cd8)">
     <use xlink:href="#C2_0_8043e1d374" x="401.06661" y="45.220982" style="fill: none; stroke: #377eb8; stroke-width: 3"/>
    </g>
    <g clip-path="url(#p393b3f2cd8)">
     <use xlink:href="#C2_0_8043e1d374" x="406.693501" y="45.358125" style="fill: none; stroke: #377eb8; stroke-width: 3"/>
    </g>
    <g clip-path="url(#p393b3f2cd8)">
     <use xlink:href="#C2_0_8043e1d374" x="412.320391" y="45.563839" style="fill: none; stroke: #377eb8; stroke-width: 3"/>
    </g>
    <g clip-path="url(#p393b3f2cd8)">
     <use xlink:href="#C2_0_8043e1d374" x="417.947282" y="45.838125" style="fill: none; stroke: #377eb8; stroke-width: 3"/>
    </g>
    <g clip-path="url(#p393b3f2cd8)">
     <use xlink:href="#C2_0_8043e1d374" x="423.574173" y="46.249554" style="fill: none; stroke: #377eb8; stroke-width: 3"/>
    </g>
    <g clip-path="url(#p393b3f2cd8)">
     <use xlink:href="#C2_0_8043e1d374" x="429.201064" y="46.729554" style="fill: none; stroke: #377eb8; stroke-width: 3"/>
    </g>
    <g clip-path="url(#p393b3f2cd8)">
     <use xlink:href="#C2_0_8043e1d374" x="434.827954" y="47.278125" style="fill: none; stroke: #377eb8; stroke-width: 3"/>
    </g>
    <g clip-path="url(#p393b3f2cd8)">
     <use xlink:href="#C2_0_8043e1d374" x="440.454845" y="47.895268" style="fill: none; stroke: #377eb8; stroke-width: 3"/>
    </g>
   </g>
   <g id="matplotlib.axis_3">
    <g id="xtick_5">
     <g id="line2d_16">
      <g>
       <use xlink:href="#m1df02b94ca" x="344.797702" y="173.518125" style="stroke: #000000; stroke-width: 0.8"/>
      </g>
     </g>
     <g id="text_16">
      <!-- 2000 -->
      <g transform="translate(332.072702 188.116562) scale(0.1 -0.1)">
       <use xlink:href="#DejaVuSans-32"/>
       <use xlink:href="#DejaVuSans-30" transform="translate(63.623047 0)"/>
       <use xlink:href="#DejaVuSans-30" transform="translate(127.246094 0)"/>
       <use xlink:href="#DejaVuSans-30" transform="translate(190.869141 0)"/>
      </g>
     </g>
    </g>
    <g id="xtick_6">
     <g id="line2d_17">
      <g>
       <use xlink:href="#m1df02b94ca" x="401.06661" y="173.518125" style="stroke: #000000; stroke-width: 0.8"/>
      </g>
     </g>
     <g id="text_17">
      <!-- 2010 -->
      <g transform="translate(388.34161 188.116562) scale(0.1 -0.1)">
       <use xlink:href="#DejaVuSans-32"/>
       <use xlink:href="#DejaVuSans-30" transform="translate(63.623047 0)"/>
       <use xlink:href="#DejaVuSans-31" transform="translate(127.246094 0)"/>
       <use xlink:href="#DejaVuSans-30" transform="translate(190.869141 0)"/>
      </g>
     </g>
    </g>
    <g id="xtick_7">
     <g id="line2d_18">
      <g>
       <use xlink:href="#m1df02b94ca" x="457.335517" y="173.518125" style="stroke: #000000; stroke-width: 0.8"/>
      </g>
     </g>
     <g id="text_18">
      <!-- 2020 -->
      <g transform="translate(444.610517 188.116562) scale(0.1 -0.1)">
       <use xlink:href="#DejaVuSans-32"/>
       <use xlink:href="#DejaVuSans-30" transform="translate(63.623047 0)"/>
       <use xlink:href="#DejaVuSans-32" transform="translate(127.246094 0)"/>
       <use xlink:href="#DejaVuSans-30" transform="translate(190.869141 0)"/>
      </g>
     </g>
    </g>
    <g id="xtick_8">
     <g id="line2d_19">
      <g>
       <use xlink:href="#m1df02b94ca" x="513.604425" y="173.518125" style="stroke: #000000; stroke-width: 0.8"/>
      </g>
     </g>
     <g id="text_19">
      <!-- 2030 -->
      <g transform="translate(500.879425 188.116562) scale(0.1 -0.1)">
       <use xlink:href="#DejaVuSans-32"/>
       <use xlink:href="#DejaVuSans-30" transform="translate(63.623047 0)"/>
       <use xlink:href="#DejaVuSans-33" transform="translate(127.246094 0)"/>
       <use xlink:href="#DejaVuSans-30" transform="translate(190.869141 0)"/>
      </g>
     </g>
    </g>
    <g id="text_20">
     <!-- Year -->
     <g transform="translate(432.68079 201.794687) scale(0.1 -0.1)">
      <use xlink:href="#DejaVuSans-59"/>
      <use xlink:href="#DejaVuSans-65" transform="translate(47.833984 0)"/>
      <use xlink:href="#DejaVuSans-61" transform="translate(109.357422 0)"/>
      <use xlink:href="#DejaVuSans-72" transform="translate(170.636719 0)"/>
     </g>
    </g>
   </g>
   <g id="matplotlib.axis_4">
    <g id="ytick_8">
     <g id="line2d_20">
      <g>
       <use xlink:href="#m845e9a96b7" x="344.797702" y="173.518125" style="stroke: #000000; stroke-width: 0.8"/>
      </g>
     </g>
     <g id="text_21">
      <!-- 0 -->
      <g transform="translate(331.435202 177.317344) scale(0.1 -0.1)">
       <use xlink:href="#DejaVuSans-30"/>
      </g>
     </g>
    </g>
    <g id="ytick_9">
     <g id="line2d_21">
      <g>
       <use xlink:href="#m845e9a96b7" x="344.797702" y="150.660982" style="stroke: #000000; stroke-width: 0.8"/>
      </g>
     </g>
     <g id="text_22">
      <!-- 500.0K -->
      <g transform="translate(302.611765 154.460201) scale(0.1 -0.1)">
       <use xlink:href="#DejaVuSans-35"/>
       <use xlink:href="#DejaVuSans-30" transform="translate(63.623047 0)"/>
       <use xlink:href="#DejaVuSans-30" transform="translate(127.246094 0)"/>
       <use xlink:href="#DejaVuSans-2e" transform="translate(190.869141 0)"/>
       <use xlink:href="#DejaVuSans-30" transform="translate(222.65625 0)"/>
       <use xlink:href="#DejaVuSans-4b" transform="translate(286.279297 0)"/>
      </g>
     </g>
    </g>
    <g id="ytick_10">
     <g id="line2d_22">
      <g>
       <use xlink:href="#m845e9a96b7" x="344.797702" y="127.803839" style="stroke: #000000; stroke-width: 0.8"/>
      </g>
     </g>
     <g id="text_23">
      <!-- 1.0M -->
      <g transform="translate(313.266452 131.603058) scale(0.1 -0.1)">
       <use xlink:href="#DejaVuSans-31"/>
       <use xlink:href="#DejaVuSans-2e" transform="translate(63.623047 0)"/>
       <use xlink:href="#DejaVuSans-30" transform="translate(95.410156 0)"/>
       <use xlink:href="#DejaVuSans-4d" transform="translate(159.033203 0)"/>
      </g>
     </g>
    </g>
    <g id="ytick_11">
     <g id="line2d_23">
      <g>
       <use xlink:href="#m845e9a96b7" x="344.797702" y="104.946696" style="stroke: #000000; stroke-width: 0.8"/>
      </g>
     </g>
     <g id="text_24">
      <!-- 1.5M -->
      <g transform="translate(313.266452 108.745915) scale(0.1 -0.1)">
       <use xlink:href="#DejaVuSans-31"/>
       <use xlink:href="#DejaVuSans-2e" transform="translate(63.623047 0)"/>
       <use xlink:href="#DejaVuSans-35" transform="translate(95.410156 0)"/>
       <use xlink:href="#DejaVuSans-4d" transform="translate(159.033203 0)"/>
      </g>
     </g>
    </g>
    <g id="ytick_12">
     <g id="line2d_24">
      <g>
       <use xlink:href="#m845e9a96b7" x="344.797702" y="82.089554" style="stroke: #000000; stroke-width: 0.8"/>
      </g>
     </g>
     <g id="text_25">
      <!-- 2.0M -->
      <g transform="translate(313.266452 85.888772) scale(0.1 -0.1)">
       <use xlink:href="#DejaVuSans-32"/>
       <use xlink:href="#DejaVuSans-2e" transform="translate(63.623047 0)"/>
       <use xlink:href="#DejaVuSans-30" transform="translate(95.410156 0)"/>
       <use xlink:href="#DejaVuSans-4d" transform="translate(159.033203 0)"/>
      </g>
     </g>
    </g>
    <g id="ytick_13">
     <g id="line2d_25">
      <g>
       <use xlink:href="#m845e9a96b7" x="344.797702" y="59.232411" style="stroke: #000000; stroke-width: 0.8"/>
      </g>
     </g>
     <g id="text_26">
      <!-- 2.5M -->
      <g transform="translate(313.266452 63.031629) scale(0.1 -0.1)">
       <use xlink:href="#DejaVuSans-32"/>
       <use xlink:href="#DejaVuSans-2e" transform="translate(63.623047 0)"/>
       <use xlink:href="#DejaVuSans-35" transform="translate(95.410156 0)"/>
       <use xlink:href="#DejaVuSans-4d" transform="translate(159.033203 0)"/>
      </g>
     </g>
    </g>
    <g id="ytick_14">
     <g id="line2d_26">
      <g>
       <use xlink:href="#m845e9a96b7" x="344.797702" y="36.375268" style="stroke: #000000; stroke-width: 0.8"/>
      </g>
     </g>
     <g id="text_27">
      <!-- 3.0M -->
      <g transform="translate(313.266452 40.174487) scale(0.1 -0.1)">
       <use xlink:href="#DejaVuSans-33"/>
       <use xlink:href="#DejaVuSans-2e" transform="translate(63.623047 0)"/>
       <use xlink:href="#DejaVuSans-30" transform="translate(95.410156 0)"/>
       <use xlink:href="#DejaVuSans-4d" transform="translate(159.033203 0)"/>
      </g>
     </g>
    </g>
   </g>
   <g id="line2d_27">
    <path d="M 344.797702 36.375268 
L 347.611148 37.491634 
L 350.424593 38.489396 
L 353.238038 39.382518 
L 356.051484 40.181968 
L 358.864929 40.897723 
L 361.678374 41.538907 
L 364.49182 42.11374 
L 367.305265 42.629632 
L 370.118711 43.093238 
L 372.932156 43.510501 
L 375.745601 43.886761 
L 378.559047 44.191845 
L 381.372492 44.435318 
L 384.185938 44.625595 
L 386.999383 44.77027 
L 389.812828 44.875949 
L 392.626274 44.948616 
L 395.439719 44.993648 
L 398.253164 45.015749 
L 401.06661 45.019185 
L 403.880055 45.007637 
L 406.693501 45.017955 
L 409.506946 45.047537 
L 412.320391 45.094012 
L 415.133837 45.155259 
L 417.947282 45.229387 
L 420.760727 45.314683 
L 423.574173 45.409999 
L 426.387618 45.513877 
L 429.201064 45.625032 
L 432.014509 45.742733 
L 434.827954 45.886853 
L 437.6414 46.056047 
L 440.454845 46.249061 
L 443.26829 46.465004 
L 446.081736 46.702905 
L 448.895181 46.95824 
L 451.708627 47.227144 
L 454.522072 47.506254 
L 457.335517 47.792641 
L 460.148963 48.083768 
L 462.962408 48.377447 
L 465.775853 48.671796 
L 468.589299 48.965206 
L 471.402744 49.256308 
L 474.21619 49.543946 
L 477.029635 49.827152 
L 479.84308 50.105123 
L 482.656526 50.3772 
L 485.469971 50.642851 
L 488.283416 50.901657 
L 491.096862 51.153295 
L 493.910307 51.397525 
L 496.723753 51.634183 
L 499.537198 51.863166 
L 502.350643 52.084429 
L 505.164089 52.297969 
L 507.977534 52.503827 
L 510.79098 52.702077 
L 513.604425 52.89282 
L 516.41787 53.076182 
L 519.231316 53.252308 
L 522.044761 53.421359 
L 524.858206 53.583511 
L 527.671652 53.738946 
L 530.485097 53.887856 
L 533.298543 54.030438 
L 536.111988 54.166893 
L 538.925433 54.297423 
L 541.738879 54.422232 
" clip-path="url(#p393b3f2cd8)" style="fill: none; stroke: #377eb8; stroke-width: 3; stroke-linecap: square"/>
   </g>
   <g id="line2d_28">
    <path d="M 344.797702 173.518125 
L 347.611148 173.518125 
L 350.424593 173.518125 
L 353.238038 173.518125 
L 356.051484 173.518125 
L 358.864929 173.518125 
L 361.678374 173.518125 
L 364.49182 173.518125 
L 367.305265 173.518125 
L 370.118711 173.518125 
L 372.932156 173.518125 
L 375.745601 173.518125 
L 378.559047 173.518125 
L 381.372492 173.518125 
L 384.185938 173.518125 
L 386.999383 173.518125 
L 389.812828 173.518125 
L 392.626274 173.518125 
L 395.439719 173.518125 
L 398.253164 173.518125 
L 401.06661 173.518125 
L 403.880055 173.518125 
L 406.693501 173.518125 
L 409.506946 173.518125 
L 412.320391 173.518125 
L 415.133837 173.518125 
L 417.947282 173.518125 
L 420.760727 173.518125 
L 423.574173 173.518125 
L 426.387618 173.518125 
L 429.201064 173.518125 
L 432.014509 173.518125 
L 434.827954 173.518125 
L 437.6414 173.518125 
L 440.454845 173.518125 
L 443.26829 173.518125 
L 446.081736 173.518125 
L 448.895181 173.518125 
L 451.708627 173.518125 
L 454.522072 173.518125 
L 457.335517 173.518125 
L 460.148963 173.518125 
L 462.962408 173.518125 
L 465.775853 173.518125 
L 468.589299 173.518125 
L 471.402744 173.518125 
L 474.21619 173.518125 
L 477.029635 173.518125 
L 479.84308 173.518125 
L 482.656526 173.518125 
L 485.469971 173.518125 
L 488.283416 173.518125 
L 491.096862 173.518125 
L 493.910307 173.518125 
L 496.723753 173.518125 
L 499.537198 173.518125 
L 502.350643 173.518125 
L 505.164089 173.518125 
L 507.977534 173.518125 
L 510.79098 173.518125 
L 513.604425 173.518125 
L 516.41787 173.518125 
L 519.231316 173.518125 
L 522.044761 173.518125 
L 524.858206 173.518125 
L 527.671652 173.518125 
L 530.485097 173.518125 
L 533.298543 173.518125 
L 536.111988 173.518125 
L 538.925433 173.518125 
L 541.738879 173.518125 
" clip-path="url(#p393b3f2cd8)" style="fill: none; stroke: #e41a1c; stroke-width: 3; stroke-linecap: square"/>
   </g>
   <g id="patch_9">
    <path d="M 344.797702 173.518125 
L 344.797702 22.318125 
" style="fill: none; stroke: #000000; stroke-width: 0.8; stroke-linejoin: miter; stroke-linecap: square"/>
   </g>
   <g id="patch_10">
    <path d="M 541.738879 173.518125 
L 541.738879 22.318125 
" style="fill: none"/>
   </g>
   <g id="patch_11">
    <path d="M 344.797702 173.518125 
L 541.738879 173.518125 
" style="fill: none; stroke: #000000; stroke-width: 0.8; stroke-linejoin: miter; stroke-linecap: square"/>
   </g>
   <g id="patch_12">
    <path d="M 344.797702 22.318125 
L 541.738879 22.318125 
" style="fill: none"/>
   </g>
   <g id="text_28">
    <!-- Baseline-5-14 -->
    <g transform="translate(402.047353 16.318125) scale(0.12 -0.12)">
     <use xlink:href="#DejaVuSans-42"/>
     <use xlink:href="#DejaVuSans-61" transform="translate(68.603516 0)"/>
     <use xlink:href="#DejaVuSans-73" transform="translate(129.882812 0)"/>
     <use xlink:href="#DejaVuSans-65" transform="translate(181.982422 0)"/>
     <use xlink:href="#DejaVuSans-6c" transform="translate(243.505859 0)"/>
     <use xlink:href="#DejaVuSans-69" transform="translate(271.289062 0)"/>
     <use xlink:href="#DejaVuSans-6e" transform="translate(299.072266 0)"/>
     <use xlink:href="#DejaVuSans-65" transform="translate(362.451172 0)"/>
     <use xlink:href="#DejaVuSans-2d" transform="translate(423.974609 0)"/>
     <use xlink:href="#DejaVuSans-35" transform="translate(460.058594 0)"/>
     <use xlink:href="#DejaVuSans-2d" transform="translate(523.681641 0)"/>
     <use xlink:href="#DejaVuSans-31" transform="translate(559.765625 0)"/>
     <use xlink:href="#DejaVuSans-34" transform="translate(623.388672 0)"/>
    </g>
   </g>
   <g id="legend_2">
    <g id="patch_13">
     <path d="M 558.585938 114.235312 
L 622.246875 114.235312 
Q 624.246875 114.235312 624.246875 112.235312 
L 624.246875 83.600937 
Q 624.246875 81.600937 622.246875 81.600937 
L 558.585938 81.600937 
Q 556.585938 81.600937 556.585938 83.600937 
L 556.585938 112.235312 
Q 556.585938 114.235312 558.585938 114.235312 
L 558.585938 114.235312 
z
" style="fill: none; opacity: 0"/>
    </g>
    <g id="line2d_29">
     <path d="M 560.585938 89.699375 
L 570.585938 89.699375 
L 580.585938 89.699375 
" style="fill: none; stroke: #377eb8; stroke-width: 3; stroke-linecap: square"/>
    </g>
    <g id="text_29">
     <!-- alive -->
     <g transform="translate(588.585938 93.199375) scale(0.1 -0.1)">
      <use xlink:href="#DejaVuSans-61"/>
      <use xlink:href="#DejaVuSans-6c" transform="translate(61.279297 0)"/>
      <use xlink:href="#DejaVuSans-69" transform="translate(89.0625 0)"/>
      <use xlink:href="#DejaVuSans-76" transform="translate(116.845703 0)"/>
      <use xlink:href="#DejaVuSans-65" transform="translate(176.025391 0)"/>
     </g>
    </g>
    <g id="line2d_30">
     <path d="M 560.585938 104.3775 
L 570.585938 104.3775 
L 580.585938 104.3775 
" style="fill: none; stroke: #e41a1c; stroke-width: 3; stroke-linecap: square"/>
    </g>
    <g id="text_30">
     <!-- b_rate -->
     <g transform="translate(588.585938 107.8775) scale(0.1 -0.1)">
      <use xlink:href="#DejaVuSans-62"/>
      <use xlink:href="#DejaVuSans-5f" transform="translate(63.476562 0)"/>
      <use xlink:href="#DejaVuSans-72" transform="translate(113.476562 0)"/>
      <use xlink:href="#DejaVuSans-61" transform="translate(154.589844 0)"/>
      <use xlink:href="#DejaVuSans-74" transform="translate(215.869141 0)"/>
      <use xlink:href="#DejaVuSans-65" transform="translate(255.078125 0)"/>
     </g>
    </g>
   </g>
  </g>
  <g id="axes_3">
   <g id="patch_14">
    <path d="M 640.209467 173.518125 
L 837.150643 173.518125 
L 837.150643 22.318125 
L 640.209467 22.318125 
L 640.209467 173.518125 
z
" style="fill: none; opacity: 0"/>
   </g>
   <g id="PathCollection_4">
    <defs>
     <path id="C3_0_99fccdd7bb" d="M 0 3.162278 
C 0.838646 3.162278 1.643056 2.82908 2.236068 2.236068 
C 2.82908 1.643056 3.162278 0.838646 3.162278 -0 
C 3.162278 -0.838646 2.82908 -1.643056 2.236068 -2.236068 
C 1.643056 -2.82908 0.838646 -3.162278 0 -3.162278 
C -0.838646 -3.162278 -1.643056 -2.82908 -2.236068 -2.236068 
C -2.82908 -1.643056 -3.162278 -0.838646 -3.162278 0 
C -3.162278 0.838646 -2.82908 1.643056 -2.236068 2.236068 
C -1.643056 2.82908 -0.838646 3.162278 0 3.162278 
z
"/>
    </defs>
    <g clip-path="url(#pcc07e1482a)">
     <use xlink:href="#C3_0_99fccdd7bb" x="640.209467" y="38.081766" style="fill: none; stroke: #377eb8; stroke-width: 3"/>
    </g>
    <g clip-path="url(#pcc07e1482a)">
     <use xlink:href="#C3_0_99fccdd7bb" x="645.836358" y="37.540021" style="fill: none; stroke: #377eb8; stroke-width: 3"/>
    </g>
    <g clip-path="url(#pcc07e1482a)">
     <use xlink:href="#C3_0_99fccdd7bb" x="651.463248" y="37.120168" style="fill: none; stroke: #377eb8; stroke-width: 3"/>
    </g>
    <g clip-path="url(#pcc07e1482a)">
     <use xlink:href="#C3_0_99fccdd7bb" x="657.090139" y="36.795121" style="fill: none; stroke: #377eb8; stroke-width: 3"/>
    </g>
    <g clip-path="url(#pcc07e1482a)">
     <use xlink:href="#C3_0_99fccdd7bb" x="662.71703" y="36.578422" style="fill: none; stroke: #377eb8; stroke-width: 3"/>
    </g>
    <g clip-path="url(#pcc07e1482a)">
     <use xlink:href="#C3_0_99fccdd7bb" x="668.343921" y="36.429442" style="fill: none; stroke: #377eb8; stroke-width: 3"/>
    </g>
    <g clip-path="url(#pcc07e1482a)">
     <use xlink:href="#C3_0_99fccdd7bb" x="673.970811" y="36.375268" style="fill: none; stroke: #377eb8; stroke-width: 3"/>
    </g>
    <g clip-path="url(#pcc07e1482a)">
     <use xlink:href="#C3_0_99fccdd7bb" x="679.597702" y="36.402355" style="fill: none; stroke: #377eb8; stroke-width: 3"/>
    </g>
    <g clip-path="url(#pcc07e1482a)">
     <use xlink:href="#C3_0_99fccdd7bb" x="685.224593" y="36.497161" style="fill: none; stroke: #377eb8; stroke-width: 3"/>
    </g>
    <g clip-path="url(#pcc07e1482a)">
     <use xlink:href="#C3_0_99fccdd7bb" x="690.851484" y="36.646141" style="fill: none; stroke: #377eb8; stroke-width: 3"/>
    </g>
    <g clip-path="url(#pcc07e1482a)">
     <use xlink:href="#C3_0_99fccdd7bb" x="696.478374" y="36.862839" style="fill: none; stroke: #377eb8; stroke-width: 3"/>
    </g>
    <g clip-path="url(#pcc07e1482a)">
     <use xlink:href="#C3_0_99fccdd7bb" x="702.105265" y="37.106624" style="fill: none; stroke: #377eb8; stroke-width: 3"/>
    </g>
    <g clip-path="url(#pcc07e1482a)">
     <use xlink:href="#C3_0_99fccdd7bb" x="707.732156" y="37.391041" style="fill: none; stroke: #377eb8; stroke-width: 3"/>
    </g>
    <g clip-path="url(#pcc07e1482a)">
     <use xlink:href="#C3_0_99fccdd7bb" x="713.359047" y="37.716088" style="fill: none; stroke: #377eb8; stroke-width: 3"/>
    </g>
    <g clip-path="url(#pcc07e1482a)">
     <use xlink:href="#C3_0_99fccdd7bb" x="718.985937" y="38.054679" style="fill: none; stroke: #377eb8; stroke-width: 3"/>
    </g>
    <g clip-path="url(#pcc07e1482a)">
     <use xlink:href="#C3_0_99fccdd7bb" x="724.612828" y="38.406813" style="fill: none; stroke: #377eb8; stroke-width: 3"/>
    </g>
    <g clip-path="url(#pcc07e1482a)">
     <use xlink:href="#C3_0_99fccdd7bb" x="730.239719" y="38.758948" style="fill: none; stroke: #377eb8; stroke-width: 3"/>
    </g>
    <g clip-path="url(#pcc07e1482a)">
     <use xlink:href="#C3_0_99fccdd7bb" x="735.86661" y="39.124626" style="fill: none; stroke: #377eb8; stroke-width: 3"/>
    </g>
   </g>
   <g id="matplotlib.axis_5">
    <g id="xtick_9">
     <g id="line2d_31">
      <g>
       <use xlink:href="#m1df02b94ca" x="640.209467" y="173.518125" style="stroke: #000000; stroke-width: 0.8"/>
      </g>
     </g>
     <g id="text_31">
      <!-- 2000 -->
      <g transform="translate(627.484467 188.116562) scale(0.1 -0.1)">
       <use xlink:href="#DejaVuSans-32"/>
       <use xlink:href="#DejaVuSans-30" transform="translate(63.623047 0)"/>
       <use xlink:href="#DejaVuSans-30" transform="translate(127.246094 0)"/>
       <use xlink:href="#DejaVuSans-30" transform="translate(190.869141 0)"/>
      </g>
     </g>
    </g>
    <g id="xtick_10">
     <g id="line2d_32">
      <g>
       <use xlink:href="#m1df02b94ca" x="696.478374" y="173.518125" style="stroke: #000000; stroke-width: 0.8"/>
      </g>
     </g>
     <g id="text_32">
      <!-- 2010 -->
      <g transform="translate(683.753374 188.116562) scale(0.1 -0.1)">
       <use xlink:href="#DejaVuSans-32"/>
       <use xlink:href="#DejaVuSans-30" transform="translate(63.623047 0)"/>
       <use xlink:href="#DejaVuSans-31" transform="translate(127.246094 0)"/>
       <use xlink:href="#DejaVuSans-30" transform="translate(190.869141 0)"/>
      </g>
     </g>
    </g>
    <g id="xtick_11">
     <g id="line2d_33">
      <g>
       <use xlink:href="#m1df02b94ca" x="752.747282" y="173.518125" style="stroke: #000000; stroke-width: 0.8"/>
      </g>
     </g>
     <g id="text_33">
      <!-- 2020 -->
      <g transform="translate(740.022282 188.116562) scale(0.1 -0.1)">
       <use xlink:href="#DejaVuSans-32"/>
       <use xlink:href="#DejaVuSans-30" transform="translate(63.623047 0)"/>
       <use xlink:href="#DejaVuSans-32" transform="translate(127.246094 0)"/>
       <use xlink:href="#DejaVuSans-30" transform="translate(190.869141 0)"/>
      </g>
     </g>
    </g>
    <g id="xtick_12">
     <g id="line2d_34">
      <g>
       <use xlink:href="#m1df02b94ca" x="809.01619" y="173.518125" style="stroke: #000000; stroke-width: 0.8"/>
      </g>
     </g>
     <g id="text_34">
      <!-- 2030 -->
      <g transform="translate(796.29119 188.116562) scale(0.1 -0.1)">
       <use xlink:href="#DejaVuSans-32"/>
       <use xlink:href="#DejaVuSans-30" transform="translate(63.623047 0)"/>
       <use xlink:href="#DejaVuSans-33" transform="translate(127.246094 0)"/>
       <use xlink:href="#DejaVuSans-30" transform="translate(190.869141 0)"/>
      </g>
     </g>
    </g>
    <g id="text_35">
     <!-- Year -->
     <g transform="translate(728.092555 201.794687) scale(0.1 -0.1)">
      <use xlink:href="#DejaVuSans-59"/>
      <use xlink:href="#DejaVuSans-65" transform="translate(47.833984 0)"/>
      <use xlink:href="#DejaVuSans-61" transform="translate(109.357422 0)"/>
      <use xlink:href="#DejaVuSans-72" transform="translate(170.636719 0)"/>
     </g>
    </g>
   </g>
   <g id="matplotlib.axis_6">
    <g id="ytick_15">
     <g id="line2d_35">
      <g>
       <use xlink:href="#m845e9a96b7" x="640.209467" y="173.518125" style="stroke: #000000; stroke-width: 0.8"/>
      </g>
     </g>
     <g id="text_36">
      <!-- 0 -->
      <g transform="translate(626.846967 177.317344) scale(0.1 -0.1)">
       <use xlink:href="#DejaVuSans-30"/>
      </g>
     </g>
    </g>
    <g id="ytick_16">
     <g id="line2d_36">
      <g>
       <use xlink:href="#m845e9a96b7" x="640.209467" y="150.945398" style="stroke: #000000; stroke-width: 0.8"/>
      </g>
     </g>
     <g id="text_37">
      <!-- 2.5M -->
      <g transform="translate(608.678217 154.744617) scale(0.1 -0.1)">
       <use xlink:href="#DejaVuSans-32"/>
       <use xlink:href="#DejaVuSans-2e" transform="translate(63.623047 0)"/>
       <use xlink:href="#DejaVuSans-35" transform="translate(95.410156 0)"/>
       <use xlink:href="#DejaVuSans-4d" transform="translate(159.033203 0)"/>
      </g>
     </g>
    </g>
    <g id="ytick_17">
     <g id="line2d_37">
      <g>
       <use xlink:href="#m845e9a96b7" x="640.209467" y="128.372672" style="stroke: #000000; stroke-width: 0.8"/>
      </g>
     </g>
     <g id="text_38">
      <!-- 5.0M -->
      <g transform="translate(608.678217 132.171891) scale(0.1 -0.1)">
       <use xlink:href="#DejaVuSans-35"/>
       <use xlink:href="#DejaVuSans-2e" transform="translate(63.623047 0)"/>
       <use xlink:href="#DejaVuSans-30" transform="translate(95.410156 0)"/>
       <use xlink:href="#DejaVuSans-4d" transform="translate(159.033203 0)"/>
      </g>
     </g>
    </g>
    <g id="ytick_18">
     <g id="line2d_38">
      <g>
       <use xlink:href="#m845e9a96b7" x="640.209467" y="105.799945" style="stroke: #000000; stroke-width: 0.8"/>
      </g>
     </g>
     <g id="text_39">
      <!-- 7.5M -->
      <g transform="translate(608.678217 109.599164) scale(0.1 -0.1)">
       <use xlink:href="#DejaVuSans-37"/>
       <use xlink:href="#DejaVuSans-2e" transform="translate(63.623047 0)"/>
       <use xlink:href="#DejaVuSans-35" transform="translate(95.410156 0)"/>
       <use xlink:href="#DejaVuSans-4d" transform="translate(159.033203 0)"/>
      </g>
     </g>
    </g>
    <g id="ytick_19">
     <g id="line2d_39">
      <g>
       <use xlink:href="#m845e9a96b7" x="640.209467" y="83.227219" style="stroke: #000000; stroke-width: 0.8"/>
      </g>
     </g>
     <g id="text_40">
      <!-- 10.0M -->
      <g transform="translate(602.315717 87.026438) scale(0.1 -0.1)">
       <use xlink:href="#DejaVuSans-31"/>
       <use xlink:href="#DejaVuSans-30" transform="translate(63.623047 0)"/>
       <use xlink:href="#DejaVuSans-2e" transform="translate(127.246094 0)"/>
       <use xlink:href="#DejaVuSans-30" transform="translate(159.033203 0)"/>
       <use xlink:href="#DejaVuSans-4d" transform="translate(222.65625 0)"/>
      </g>
     </g>
    </g>
    <g id="ytick_20">
     <g id="line2d_40">
      <g>
       <use xlink:href="#m845e9a96b7" x="640.209467" y="60.654492" style="stroke: #000000; stroke-width: 0.8"/>
      </g>
     </g>
     <g id="text_41">
      <!-- 12.5M -->
      <g transform="translate(602.315717 64.453711) scale(0.1 -0.1)">
       <use xlink:href="#DejaVuSans-31"/>
       <use xlink:href="#DejaVuSans-32" transform="translate(63.623047 0)"/>
       <use xlink:href="#DejaVuSans-2e" transform="translate(127.246094 0)"/>
       <use xlink:href="#DejaVuSans-35" transform="translate(159.033203 0)"/>
       <use xlink:href="#DejaVuSans-4d" transform="translate(222.65625 0)"/>
      </g>
     </g>
    </g>
    <g id="ytick_21">
     <g id="line2d_41">
      <g>
       <use xlink:href="#m845e9a96b7" x="640.209467" y="38.081766" style="stroke: #000000; stroke-width: 0.8"/>
      </g>
     </g>
     <g id="text_42">
      <!-- 15.0M -->
      <g transform="translate(602.315717 41.880985) scale(0.1 -0.1)">
       <use xlink:href="#DejaVuSans-31"/>
       <use xlink:href="#DejaVuSans-35" transform="translate(63.623047 0)"/>
       <use xlink:href="#DejaVuSans-2e" transform="translate(127.246094 0)"/>
       <use xlink:href="#DejaVuSans-30" transform="translate(159.033203 0)"/>
       <use xlink:href="#DejaVuSans-4d" transform="translate(222.65625 0)"/>
      </g>
     </g>
    </g>
   </g>
   <g id="line2d_42">
    <path d="M 640.209467 38.081766 
L 643.022912 37.867187 
L 645.836358 37.6783 
L 648.649803 37.512331 
L 651.463248 37.368055 
L 654.276694 37.2445 
L 657.090139 37.140528 
L 659.903585 37.055057 
L 662.71703 36.987229 
L 665.530475 36.936461 
L 668.343921 36.901737 
L 671.157366 36.882061 
L 673.970811 36.876938 
L 676.784257 36.885334 
L 679.597702 36.90674 
L 682.411148 36.940624 
L 685.224593 36.986669 
L 688.038038 37.04478 
L 690.851484 37.114552 
L 693.664929 37.195692 
L 696.478374 37.287844 
L 699.29182 37.390678 
L 702.105265 37.503948 
L 704.918711 37.627887 
L 707.732156 37.762355 
L 710.545601 37.907112 
L 713.359047 38.062381 
L 716.172492 38.228251 
L 718.985937 38.40483 
L 721.799383 38.592379 
L 724.612828 38.79072 
L 727.426274 38.999496 
L 730.239719 39.206909 
L 733.053164 39.413317 
L 735.86661 39.619073 
L 738.680055 39.824411 
L 741.493501 40.02955 
L 744.306946 40.2348 
L 747.120391 40.440371 
L 749.933837 40.646386 
L 752.747282 40.852937 
L 755.560727 41.060087 
L 758.374173 41.267875 
L 761.187618 41.476319 
L 764.001064 41.685418 
L 766.814509 41.895156 
L 769.627954 42.105503 
L 772.4414 42.316419 
L 775.254845 42.527852 
L 778.06829 42.739745 
L 780.881736 42.952035 
L 783.695181 43.164653 
L 786.508627 43.377527 
L 789.322072 43.590583 
L 792.135517 43.803744 
L 794.948963 44.016934 
L 797.762408 44.230075 
L 800.575853 44.44309 
L 803.389299 44.655903 
L 806.202744 44.868438 
L 809.01619 45.080624 
L 811.829635 45.292386 
L 814.64308 45.503657 
L 817.456526 45.714368 
L 820.269971 45.924454 
L 823.083416 46.133852 
L 825.896862 46.342501 
L 828.710307 46.550345 
L 831.523753 46.757328 
L 834.337198 46.963396 
L 837.150643 47.168501 
" clip-path="url(#pcc07e1482a)" style="fill: none; stroke: #377eb8; stroke-width: 3; stroke-linecap: square"/>
   </g>
   <g id="line2d_43">
    <path d="M 640.209467 173.518125 
L 643.022912 173.518125 
L 645.836358 173.518125 
L 648.649803 173.518125 
L 651.463248 173.518125 
L 654.276694 173.518125 
L 657.090139 173.518125 
L 659.903585 173.518125 
L 662.71703 173.518125 
L 665.530475 173.518125 
L 668.343921 173.518125 
L 671.157366 173.518125 
L 673.970811 173.518125 
L 676.784257 173.518125 
L 679.597702 173.518125 
L 682.411148 173.518125 
L 685.224593 173.518125 
L 688.038038 173.518125 
L 690.851484 173.518125 
L 693.664929 173.518125 
L 696.478374 173.518125 
L 699.29182 173.518125 
L 702.105265 173.518125 
L 704.918711 173.518125 
L 707.732156 173.518125 
L 710.545601 173.518125 
L 713.359047 173.518125 
L 716.172492 173.518125 
L 718.985937 173.518125 
L 721.799383 173.518125 
L 724.612828 173.518125 
L 727.426274 173.518125 
L 730.239719 173.518125 
L 733.053164 173.518125 
L 735.86661 173.518125 
L 738.680055 173.518125 
L 741.493501 173.518125 
L 744.306946 173.518125 
L 747.120391 173.518125 
L 749.933837 173.518125 
L 752.747282 173.518125 
L 755.560727 173.518125 
L 758.374173 173.518125 
L 761.187618 173.518125 
L 764.001064 173.518125 
L 766.814509 173.518125 
L 769.627954 173.518125 
L 772.4414 173.518125 
L 775.254845 173.518125 
L 778.06829 173.518125 
L 780.881736 173.518125 
L 783.695181 173.518125 
L 786.508627 173.518125 
L 789.322072 173.518125 
L 792.135517 173.518125 
L 794.948963 173.518125 
L 797.762408 173.518125 
L 800.575853 173.518125 
L 803.389299 173.518125 
L 806.202744 173.518125 
L 809.01619 173.518125 
L 811.829635 173.518125 
L 814.64308 173.518125 
L 817.456526 173.518125 
L 820.269971 173.518125 
L 823.083416 173.518125 
L 825.896862 173.518125 
L 828.710307 173.518125 
L 831.523753 173.518125 
L 834.337198 173.518125 
L 837.150643 173.518125 
" clip-path="url(#pcc07e1482a)" style="fill: none; stroke: #e41a1c; stroke-width: 3; stroke-linecap: square"/>
   </g>
   <g id="patch_15">
    <path d="M 640.209467 173.518125 
L 640.209467 22.318125 
" style="fill: none; stroke: #000000; stroke-width: 0.8; stroke-linejoin: miter; stroke-linecap: square"/>
   </g>
   <g id="patch_16">
    <path d="M 837.150643 173.518125 
L 837.150643 22.318125 
" style="fill: none"/>
   </g>
   <g id="patch_17">
    <path d="M 640.209467 173.518125 
L 837.150643 173.518125 
" style="fill: none; stroke: #000000; stroke-width: 0.8; stroke-linejoin: miter; stroke-linecap: square"/>
   </g>
   <g id="patch_18">
    <path d="M 640.209467 22.318125 
L 837.150643 22.318125 
" style="fill: none"/>
   </g>
   <g id="text_43">
    <!-- Baseline-15-64 -->
    <g transform="translate(693.641618 16.318125) scale(0.12 -0.12)">
     <defs>
      <path id="DejaVuSans-36" d="M 2113 2584 
Q 1688 2584 1439 2293 
Q 1191 2003 1191 1497 
Q 1191 994 1439 701 
Q 1688 409 2113 409 
Q 2538 409 2786 701 
Q 3034 994 3034 1497 
Q 3034 2003 2786 2293 
Q 2538 2584 2113 2584 
z
M 3366 4563 
L 3366 3988 
Q 3128 4100 2886 4159 
Q 2644 4219 2406 4219 
Q 1781 4219 1451 3797 
Q 1122 3375 1075 2522 
Q 1259 2794 1537 2939 
Q 1816 3084 2150 3084 
Q 2853 3084 3261 2657 
Q 3669 2231 3669 1497 
Q 3669 778 3244 343 
Q 2819 -91 2113 -91 
Q 1303 -91 875 529 
Q 447 1150 447 2328 
Q 447 3434 972 4092 
Q 1497 4750 2381 4750 
Q 2619 4750 2861 4703 
Q 3103 4656 3366 4563 
z
" transform="scale(0.015625)"/>
     </defs>
     <use xlink:href="#DejaVuSans-42"/>
     <use xlink:href="#DejaVuSans-61" transform="translate(68.603516 0)"/>
     <use xlink:href="#DejaVuSans-73" transform="translate(129.882812 0)"/>
     <use xlink:href="#DejaVuSans-65" transform="translate(181.982422 0)"/>
     <use xlink:href="#DejaVuSans-6c" transform="translate(243.505859 0)"/>
     <use xlink:href="#DejaVuSans-69" transform="translate(271.289062 0)"/>
     <use xlink:href="#DejaVuSans-6e" transform="translate(299.072266 0)"/>
     <use xlink:href="#DejaVuSans-65" transform="translate(362.451172 0)"/>
     <use xlink:href="#DejaVuSans-2d" transform="translate(423.974609 0)"/>
     <use xlink:href="#DejaVuSans-31" transform="translate(460.058594 0)"/>
     <use xlink:href="#DejaVuSans-35" transform="translate(523.681641 0)"/>
     <use xlink:href="#DejaVuSans-2d" transform="translate(587.304688 0)"/>
     <use xlink:href="#DejaVuSans-36" transform="translate(623.388672 0)"/>
     <use xlink:href="#DejaVuSans-34" transform="translate(687.011719 0)"/>
    </g>
   </g>
   <g id="legend_3">
    <g id="patch_19">
     <path d="M 853.997702 114.235312 
L 917.65864 114.235312 
Q 919.65864 114.235312 919.65864 112.235312 
L 919.65864 83.600937 
Q 919.65864 81.600937 917.65864 81.600937 
L 853.997702 81.600937 
Q 851.997702 81.600937 851.997702 83.600937 
L 851.997702 112.235312 
Q 851.997702 114.235312 853.997702 114.235312 
L 853.997702 114.235312 
z
" style="fill: none; opacity: 0"/>
    </g>
    <g id="line2d_44">
     <path d="M 855.997702 89.699375 
L 865.997702 89.699375 
L 875.997702 89.699375 
" style="fill: none; stroke: #377eb8; stroke-width: 3; stroke-linecap: square"/>
    </g>
    <g id="text_44">
     <!-- alive -->
     <g transform="translate(883.997702 93.199375) scale(0.1 -0.1)">
      <use xlink:href="#DejaVuSans-61"/>
      <use xlink:href="#DejaVuSans-6c" transform="translate(61.279297 0)"/>
      <use xlink:href="#DejaVuSans-69" transform="translate(89.0625 0)"/>
      <use xlink:href="#DejaVuSans-76" transform="translate(116.845703 0)"/>
      <use xlink:href="#DejaVuSans-65" transform="translate(176.025391 0)"/>
     </g>
    </g>
    <g id="line2d_45">
     <path d="M 855.997702 104.3775 
L 865.997702 104.3775 
L 875.997702 104.3775 
" style="fill: none; stroke: #e41a1c; stroke-width: 3; stroke-linecap: square"/>
    </g>
    <g id="text_45">
     <!-- b_rate -->
     <g transform="translate(883.997702 107.8775) scale(0.1 -0.1)">
      <use xlink:href="#DejaVuSans-62"/>
      <use xlink:href="#DejaVuSans-5f" transform="translate(63.476562 0)"/>
      <use xlink:href="#DejaVuSans-72" transform="translate(113.476562 0)"/>
      <use xlink:href="#DejaVuSans-61" transform="translate(154.589844 0)"/>
      <use xlink:href="#DejaVuSans-74" transform="translate(215.869141 0)"/>
      <use xlink:href="#DejaVuSans-65" transform="translate(255.078125 0)"/>
     </g>
    </g>
   </g>
  </g>
  <g id="axes_4">
   <g id="patch_20">
    <path d="M 49.385938 354.958125 
L 246.327114 354.958125 
L 246.327114 203.758125 
L 49.385938 203.758125 
L 49.385938 354.958125 
z
" style="fill: none; opacity: 0"/>
   </g>
   <g id="PathCollection_5">
    <defs>
     <path id="C4_0_946bb136fc" d="M 0 3.162278 
C 0.838646 3.162278 1.643056 2.82908 2.236068 2.236068 
C 2.82908 1.643056 3.162278 0.838646 3.162278 -0 
C 3.162278 -0.838646 2.82908 -1.643056 2.236068 -2.236068 
C 1.643056 -2.82908 0.838646 -3.162278 0 -3.162278 
C -0.838646 -3.162278 -1.643056 -2.82908 -2.236068 -2.236068 
C -2.82908 -1.643056 -3.162278 -0.838646 -3.162278 0 
C -3.162278 0.838646 -2.82908 1.643056 -2.236068 2.236068 
C -1.643056 2.82908 -0.838646 3.162278 0 3.162278 
z
"/>
    </defs>
    <g clip-path="url(#pf869aa5dcf)">
     <use xlink:href="#C4_0_946bb136fc" x="49.385937" y="243.967751" style="fill: none; stroke: #377eb8; stroke-width: 3"/>
    </g>
    <g clip-path="url(#pf869aa5dcf)">
     <use xlink:href="#C4_0_946bb136fc" x="55.012828" y="244.522703" style="fill: none; stroke: #377eb8; stroke-width: 3"/>
    </g>
    <g clip-path="url(#pf869aa5dcf)">
     <use xlink:href="#C4_0_946bb136fc" x="60.639719" y="244.76054" style="fill: none; stroke: #377eb8; stroke-width: 3"/>
    </g>
    <g clip-path="url(#pf869aa5dcf)">
     <use xlink:href="#C4_0_946bb136fc" x="66.26661" y="244.681261" style="fill: none; stroke: #377eb8; stroke-width: 3"/>
    </g>
    <g clip-path="url(#pf869aa5dcf)">
     <use xlink:href="#C4_0_946bb136fc" x="71.893501" y="244.364145" style="fill: none; stroke: #377eb8; stroke-width: 3"/>
    </g>
    <g clip-path="url(#pf869aa5dcf)">
     <use xlink:href="#C4_0_946bb136fc" x="77.520391" y="243.809193" style="fill: none; stroke: #377eb8; stroke-width: 3"/>
    </g>
    <g clip-path="url(#pf869aa5dcf)">
     <use xlink:href="#C4_0_946bb136fc" x="83.147282" y="242.937126" style="fill: none; stroke: #377eb8; stroke-width: 3"/>
    </g>
    <g clip-path="url(#pf869aa5dcf)">
     <use xlink:href="#C4_0_946bb136fc" x="88.774173" y="241.906501" style="fill: none; stroke: #377eb8; stroke-width: 3"/>
    </g>
    <g clip-path="url(#pf869aa5dcf)">
     <use xlink:href="#C4_0_946bb136fc" x="94.401064" y="240.63804" style="fill: none; stroke: #377eb8; stroke-width: 3"/>
    </g>
    <g clip-path="url(#pf869aa5dcf)">
     <use xlink:href="#C4_0_946bb136fc" x="100.027954" y="239.2903" style="fill: none; stroke: #377eb8; stroke-width: 3"/>
    </g>
    <g clip-path="url(#pf869aa5dcf)">
     <use xlink:href="#C4_0_946bb136fc" x="105.654845" y="237.784002" style="fill: none; stroke: #377eb8; stroke-width: 3"/>
    </g>
    <g clip-path="url(#pf869aa5dcf)">
     <use xlink:href="#C4_0_946bb136fc" x="111.281736" y="236.198425" style="fill: none; stroke: #377eb8; stroke-width: 3"/>
    </g>
    <g clip-path="url(#pf869aa5dcf)">
     <use xlink:href="#C4_0_946bb136fc" x="116.908627" y="234.533569" style="fill: none; stroke: #377eb8; stroke-width: 3"/>
    </g>
    <g clip-path="url(#pf869aa5dcf)">
     <use xlink:href="#C4_0_946bb136fc" x="122.535517" y="232.947993" style="fill: none; stroke: #377eb8; stroke-width: 3"/>
    </g>
    <g clip-path="url(#pf869aa5dcf)">
     <use xlink:href="#C4_0_946bb136fc" x="128.162408" y="231.362416" style="fill: none; stroke: #377eb8; stroke-width: 3"/>
    </g>
    <g clip-path="url(#pf869aa5dcf)">
     <use xlink:href="#C4_0_946bb136fc" x="133.789299" y="229.856118" style="fill: none; stroke: #377eb8; stroke-width: 3"/>
    </g>
    <g clip-path="url(#pf869aa5dcf)">
     <use xlink:href="#C4_0_946bb136fc" x="139.41619" y="228.508378" style="fill: none; stroke: #377eb8; stroke-width: 3"/>
    </g>
    <g clip-path="url(#pf869aa5dcf)">
     <use xlink:href="#C4_0_946bb136fc" x="145.04308" y="227.239916" style="fill: none; stroke: #377eb8; stroke-width: 3"/>
    </g>
   </g>
   <g id="matplotlib.axis_7">
    <g id="xtick_13">
     <g id="line2d_46">
      <g>
       <use xlink:href="#m1df02b94ca" x="49.385937" y="354.958125" style="stroke: #000000; stroke-width: 0.8"/>
      </g>
     </g>
     <g id="text_46">
      <!-- 2000 -->
      <g transform="translate(36.660937 369.556562) scale(0.1 -0.1)">
       <use xlink:href="#DejaVuSans-32"/>
       <use xlink:href="#DejaVuSans-30" transform="translate(63.623047 0)"/>
       <use xlink:href="#DejaVuSans-30" transform="translate(127.246094 0)"/>
       <use xlink:href="#DejaVuSans-30" transform="translate(190.869141 0)"/>
      </g>
     </g>
    </g>
    <g id="xtick_14">
     <g id="line2d_47">
      <g>
       <use xlink:href="#m1df02b94ca" x="105.654845" y="354.958125" style="stroke: #000000; stroke-width: 0.8"/>
      </g>
     </g>
     <g id="text_47">
      <!-- 2010 -->
      <g transform="translate(92.929845 369.556562) scale(0.1 -0.1)">
       <use xlink:href="#DejaVuSans-32"/>
       <use xlink:href="#DejaVuSans-30" transform="translate(63.623047 0)"/>
       <use xlink:href="#DejaVuSans-31" transform="translate(127.246094 0)"/>
       <use xlink:href="#DejaVuSans-30" transform="translate(190.869141 0)"/>
      </g>
     </g>
    </g>
    <g id="xtick_15">
     <g id="line2d_48">
      <g>
       <use xlink:href="#m1df02b94ca" x="161.923753" y="354.958125" style="stroke: #000000; stroke-width: 0.8"/>
      </g>
     </g>
     <g id="text_48">
      <!-- 2020 -->
      <g transform="translate(149.198753 369.556562) scale(0.1 -0.1)">
       <use xlink:href="#DejaVuSans-32"/>
       <use xlink:href="#DejaVuSans-30" transform="translate(63.623047 0)"/>
       <use xlink:href="#DejaVuSans-32" transform="translate(127.246094 0)"/>
       <use xlink:href="#DejaVuSans-30" transform="translate(190.869141 0)"/>
      </g>
     </g>
    </g>
    <g id="xtick_16">
     <g id="line2d_49">
      <g>
       <use xlink:href="#m1df02b94ca" x="218.19266" y="354.958125" style="stroke: #000000; stroke-width: 0.8"/>
      </g>
     </g>
     <g id="text_49">
      <!-- 2030 -->
      <g transform="translate(205.46766 369.556562) scale(0.1 -0.1)">
       <use xlink:href="#DejaVuSans-32"/>
       <use xlink:href="#DejaVuSans-30" transform="translate(63.623047 0)"/>
       <use xlink:href="#DejaVuSans-33" transform="translate(127.246094 0)"/>
       <use xlink:href="#DejaVuSans-30" transform="translate(190.869141 0)"/>
      </g>
     </g>
    </g>
    <g id="text_50">
     <!-- Year -->
     <g transform="translate(137.269026 383.234687) scale(0.1 -0.1)">
      <use xlink:href="#DejaVuSans-59"/>
      <use xlink:href="#DejaVuSans-65" transform="translate(47.833984 0)"/>
      <use xlink:href="#DejaVuSans-61" transform="translate(109.357422 0)"/>
      <use xlink:href="#DejaVuSans-72" transform="translate(170.636719 0)"/>
     </g>
    </g>
   </g>
   <g id="matplotlib.axis_8">
    <g id="ytick_22">
     <g id="line2d_50">
      <g>
       <use xlink:href="#m845e9a96b7" x="49.385938" y="354.958125" style="stroke: #000000; stroke-width: 0.8"/>
      </g>
     </g>
     <g id="text_51">
      <!-- 0 -->
      <g transform="translate(36.023438 358.757344) scale(0.1 -0.1)">
       <use xlink:href="#DejaVuSans-30"/>
      </g>
     </g>
    </g>
    <g id="ytick_23">
     <g id="line2d_51">
      <g>
       <use xlink:href="#m845e9a96b7" x="49.385938" y="328.531846" style="stroke: #000000; stroke-width: 0.8"/>
      </g>
     </g>
     <g id="text_52">
      <!-- 500.0K -->
      <g transform="translate(7.2 332.331064) scale(0.1 -0.1)">
       <use xlink:href="#DejaVuSans-35"/>
       <use xlink:href="#DejaVuSans-30" transform="translate(63.623047 0)"/>
       <use xlink:href="#DejaVuSans-30" transform="translate(127.246094 0)"/>
       <use xlink:href="#DejaVuSans-2e" transform="translate(190.869141 0)"/>
       <use xlink:href="#DejaVuSans-30" transform="translate(222.65625 0)"/>
       <use xlink:href="#DejaVuSans-4b" transform="translate(286.279297 0)"/>
      </g>
     </g>
    </g>
    <g id="ytick_24">
     <g id="line2d_52">
      <g>
       <use xlink:href="#m845e9a96b7" x="49.385938" y="302.105566" style="stroke: #000000; stroke-width: 0.8"/>
      </g>
     </g>
     <g id="text_53">
      <!-- 1.0M -->
      <g transform="translate(17.854688 305.904785) scale(0.1 -0.1)">
       <use xlink:href="#DejaVuSans-31"/>
       <use xlink:href="#DejaVuSans-2e" transform="translate(63.623047 0)"/>
       <use xlink:href="#DejaVuSans-30" transform="translate(95.410156 0)"/>
       <use xlink:href="#DejaVuSans-4d" transform="translate(159.033203 0)"/>
      </g>
     </g>
    </g>
    <g id="ytick_25">
     <g id="line2d_53">
      <g>
       <use xlink:href="#m845e9a96b7" x="49.385938" y="275.679287" style="stroke: #000000; stroke-width: 0.8"/>
      </g>
     </g>
     <g id="text_54">
      <!-- 1.5M -->
      <g transform="translate(17.854688 279.478505) scale(0.1 -0.1)">
       <use xlink:href="#DejaVuSans-31"/>
       <use xlink:href="#DejaVuSans-2e" transform="translate(63.623047 0)"/>
       <use xlink:href="#DejaVuSans-35" transform="translate(95.410156 0)"/>
       <use xlink:href="#DejaVuSans-4d" transform="translate(159.033203 0)"/>
      </g>
     </g>
    </g>
    <g id="ytick_26">
     <g id="line2d_54">
      <g>
       <use xlink:href="#m845e9a96b7" x="49.385938" y="249.253007" style="stroke: #000000; stroke-width: 0.8"/>
      </g>
     </g>
     <g id="text_55">
      <!-- 2.0M -->
      <g transform="translate(17.854688 253.052226) scale(0.1 -0.1)">
       <use xlink:href="#DejaVuSans-32"/>
       <use xlink:href="#DejaVuSans-2e" transform="translate(63.623047 0)"/>
       <use xlink:href="#DejaVuSans-30" transform="translate(95.410156 0)"/>
       <use xlink:href="#DejaVuSans-4d" transform="translate(159.033203 0)"/>
      </g>
     </g>
    </g>
    <g id="ytick_27">
     <g id="line2d_55">
      <g>
       <use xlink:href="#m845e9a96b7" x="49.385938" y="222.826728" style="stroke: #000000; stroke-width: 0.8"/>
      </g>
     </g>
     <g id="text_56">
      <!-- 2.5M -->
      <g transform="translate(17.854688 226.625946) scale(0.1 -0.1)">
       <use xlink:href="#DejaVuSans-32"/>
       <use xlink:href="#DejaVuSans-2e" transform="translate(63.623047 0)"/>
       <use xlink:href="#DejaVuSans-35" transform="translate(95.410156 0)"/>
       <use xlink:href="#DejaVuSans-4d" transform="translate(159.033203 0)"/>
      </g>
     </g>
    </g>
   </g>
   <g id="line2d_56">
    <path d="M 49.385937 243.967751 
L 52.199383 244.185741 
L 55.012828 244.337143 
L 57.826274 244.424267 
L 60.639719 244.450223 
L 63.453164 244.417966 
L 66.26661 244.330247 
L 69.080055 244.189739 
L 71.893501 243.998864 
L 74.706946 243.759827 
L 77.520391 243.475064 
L 80.333837 243.147108 
L 83.147282 242.77778 
L 85.960727 242.368601 
L 88.774173 241.921726 
L 91.587618 241.439254 
L 94.401064 240.922879 
L 97.214509 240.374277 
L 100.027954 239.795166 
L 102.8414 239.187291 
L 105.654845 238.552075 
L 108.46829 237.890912 
L 111.281736 237.205315 
L 114.095181 236.496696 
L 116.908627 235.766566 
L 119.722072 235.016285 
L 122.535517 234.247138 
L 125.348963 233.460418 
L 128.162408 232.657228 
L 130.975853 231.838691 
L 133.789299 231.005755 
L 136.602744 230.159848 
L 139.41619 229.354439 
L 142.229635 228.588041 
L 145.04308 227.85954 
L 147.856526 227.166923 
L 150.669971 226.508528 
L 153.483416 225.88347 
L 156.296862 225.290632 
L 159.110307 224.728791 
L 161.923753 224.196779 
L 164.737198 223.693477 
L 167.550643 223.217815 
L 170.364089 222.768768 
L 173.177534 222.345352 
L 175.99098 221.946619 
L 178.804425 221.57166 
L 181.61787 221.219596 
L 184.431316 220.889584 
L 187.244761 220.580806 
L 190.058206 220.292477 
L 192.871652 220.023837 
L 195.685097 219.774151 
L 198.498543 219.542712 
L 201.311988 219.328833 
L 204.125433 219.131853 
L 206.938879 218.951131 
L 209.752324 218.786048 
L 212.565769 218.636005 
L 215.379215 218.500422 
L 218.19266 218.378738 
L 221.006106 218.27041 
L 223.819551 218.174915 
L 226.632996 218.091743 
L 229.446442 218.020404 
L 232.259887 217.960421 
L 235.073332 217.911335 
L 237.886778 217.872701 
L 240.700223 217.844087 
L 243.513669 217.825077 
L 246.327114 217.815268 
" clip-path="url(#pf869aa5dcf)" style="fill: none; stroke: #377eb8; stroke-width: 3; stroke-linecap: square"/>
   </g>
   <g id="line2d_57">
    <path d="M 49.385937 354.958125 
L 52.199383 354.958125 
L 55.012828 354.958125 
L 57.826274 354.958125 
L 60.639719 354.958125 
L 63.453164 354.958125 
L 66.26661 354.958125 
L 69.080055 354.958125 
L 71.893501 354.958125 
L 74.706946 354.958125 
L 77.520391 354.958125 
L 80.333837 354.958125 
L 83.147282 354.958125 
L 85.960727 354.958125 
L 88.774173 354.958125 
L 91.587618 354.958125 
L 94.401064 354.958125 
L 97.214509 354.958125 
L 100.027954 354.958125 
L 102.8414 354.958125 
L 105.654845 354.958125 
L 108.46829 354.958125 
L 111.281736 354.958125 
L 114.095181 354.958125 
L 116.908627 354.958125 
L 119.722072 354.958125 
L 122.535517 354.958125 
L 125.348963 354.958125 
L 128.162408 354.958125 
L 130.975853 354.958125 
L 133.789299 354.958125 
L 136.602744 354.958125 
L 139.41619 354.958125 
L 142.229635 354.958125 
L 145.04308 354.958125 
L 147.856526 354.958125 
L 150.669971 354.958125 
L 153.483416 354.958125 
L 156.296862 354.958125 
L 159.110307 354.958125 
L 161.923753 354.958125 
L 164.737198 354.958125 
L 167.550643 354.958125 
L 170.364089 354.958125 
L 173.177534 354.958125 
L 175.99098 354.958125 
L 178.804425 354.958125 
L 181.61787 354.958125 
L 184.431316 354.958125 
L 187.244761 354.958125 
L 190.058206 354.958125 
L 192.871652 354.958125 
L 195.685097 354.958125 
L 198.498543 354.958125 
L 201.311988 354.958125 
L 204.125433 354.958125 
L 206.938879 354.958125 
L 209.752324 354.958125 
L 212.565769 354.958125 
L 215.379215 354.958125 
L 218.19266 354.958125 
L 221.006106 354.958125 
L 223.819551 354.958125 
L 226.632996 354.958125 
L 229.446442 354.958125 
L 232.259887 354.958125 
L 235.073332 354.958125 
L 237.886778 354.958125 
L 240.700223 354.958125 
L 243.513669 354.958125 
L 246.327114 354.958125 
" clip-path="url(#pf869aa5dcf)" style="fill: none; stroke: #e41a1c; stroke-width: 3; stroke-linecap: square"/>
   </g>
   <g id="patch_21">
    <path d="M 49.385938 354.958125 
L 49.385938 203.758125 
" style="fill: none; stroke: #000000; stroke-width: 0.8; stroke-linejoin: miter; stroke-linecap: square"/>
   </g>
   <g id="patch_22">
    <path d="M 246.327114 354.958125 
L 246.327114 203.758125 
" style="fill: none"/>
   </g>
   <g id="patch_23">
    <path d="M 49.385937 354.958125 
L 246.327114 354.958125 
" style="fill: none; stroke: #000000; stroke-width: 0.8; stroke-linejoin: miter; stroke-linecap: square"/>
   </g>
   <g id="patch_24">
    <path d="M 49.385937 203.758125 
L 246.327114 203.758125 
" style="fill: none"/>
   </g>
   <g id="text_57">
    <!-- Baseline-65+ -->
    <g transform="translate(107.589963 197.758125) scale(0.12 -0.12)">
     <defs>
      <path id="DejaVuSans-2b" d="M 2944 4013 
L 2944 2272 
L 4684 2272 
L 4684 1741 
L 2944 1741 
L 2944 0 
L 2419 0 
L 2419 1741 
L 678 1741 
L 678 2272 
L 2419 2272 
L 2419 4013 
L 2944 4013 
z
" transform="scale(0.015625)"/>
     </defs>
     <use xlink:href="#DejaVuSans-42"/>
     <use xlink:href="#DejaVuSans-61" transform="translate(68.603516 0)"/>
     <use xlink:href="#DejaVuSans-73" transform="translate(129.882812 0)"/>
     <use xlink:href="#DejaVuSans-65" transform="translate(181.982422 0)"/>
     <use xlink:href="#DejaVuSans-6c" transform="translate(243.505859 0)"/>
     <use xlink:href="#DejaVuSans-69" transform="translate(271.289062 0)"/>
     <use xlink:href="#DejaVuSans-6e" transform="translate(299.072266 0)"/>
     <use xlink:href="#DejaVuSans-65" transform="translate(362.451172 0)"/>
     <use xlink:href="#DejaVuSans-2d" transform="translate(423.974609 0)"/>
     <use xlink:href="#DejaVuSans-36" transform="translate(460.058594 0)"/>
     <use xlink:href="#DejaVuSans-35" transform="translate(523.681641 0)"/>
     <use xlink:href="#DejaVuSans-2b" transform="translate(587.304688 0)"/>
    </g>
   </g>
   <g id="legend_4">
    <g id="patch_25">
     <path d="M 263.174173 295.675312 
L 326.83511 295.675312 
Q 328.83511 295.675312 328.83511 293.675312 
L 328.83511 265.040937 
Q 328.83511 263.040937 326.83511 263.040937 
L 263.174173 263.040937 
Q 261.174173 263.040937 261.174173 265.040937 
L 261.174173 293.675312 
Q 261.174173 295.675312 263.174173 295.675312 
L 263.174173 295.675312 
z
" style="fill: none; opacity: 0"/>
    </g>
    <g id="line2d_58">
     <path d="M 265.174173 271.139375 
L 275.174173 271.139375 
L 285.174173 271.139375 
" style="fill: none; stroke: #377eb8; stroke-width: 3; stroke-linecap: square"/>
    </g>
    <g id="text_58">
     <!-- alive -->
     <g transform="translate(293.174173 274.639375) scale(0.1 -0.1)">
      <use xlink:href="#DejaVuSans-61"/>
      <use xlink:href="#DejaVuSans-6c" transform="translate(61.279297 0)"/>
      <use xlink:href="#DejaVuSans-69" transform="translate(89.0625 0)"/>
      <use xlink:href="#DejaVuSans-76" transform="translate(116.845703 0)"/>
      <use xlink:href="#DejaVuSans-65" transform="translate(176.025391 0)"/>
     </g>
    </g>
    <g id="line2d_59">
     <path d="M 265.174173 285.8175 
L 275.174173 285.8175 
L 285.174173 285.8175 
" style="fill: none; stroke: #e41a1c; stroke-width: 3; stroke-linecap: square"/>
    </g>
    <g id="text_59">
     <!-- b_rate -->
     <g transform="translate(293.174173 289.3175) scale(0.1 -0.1)">
      <use xlink:href="#DejaVuSans-62"/>
      <use xlink:href="#DejaVuSans-5f" transform="translate(63.476562 0)"/>
      <use xlink:href="#DejaVuSans-72" transform="translate(113.476562 0)"/>
      <use xlink:href="#DejaVuSans-61" transform="translate(154.589844 0)"/>
      <use xlink:href="#DejaVuSans-74" transform="translate(215.869141 0)"/>
      <use xlink:href="#DejaVuSans-65" transform="translate(255.078125 0)"/>
     </g>
    </g>
   </g>
  </g>
 </g>
 <defs>
  <clipPath id="p3024180e24">
   <rect x="49.385938" y="22.318125" width="196.941176" height="151.2"/>
  </clipPath>
  <clipPath id="p393b3f2cd8">
   <rect x="344.797702" y="22.318125" width="196.941176" height="151.2"/>
  </clipPath>
  <clipPath id="pcc07e1482a">
   <rect x="640.209467" y="22.318125" width="196.941176" height="151.2"/>
  </clipPath>
  <clipPath id="pf869aa5dcf">
   <rect x="49.385938" y="203.758125" width="196.941176" height="151.2"/>
  </clipPath>
 </defs>
</svg>
