<?xml version="1.0" encoding="utf-8" standalone="no"?>
<!DOCTYPE svg PUBLIC "-//W3C//DTD SVG 1.1//EN"
  "http://www.w3.org/Graphics/SVG/1.1/DTD/svg11.dtd">
<svg xmlns:xlink="http://www.w3.org/1999/xlink" width="516.700331pt" height="326.630125pt" viewBox="0 0 516.700331 326.630125" xmlns="http://www.w3.org/2000/svg" version="1.1">
 <metadata>
  <rdf:RDF xmlns:dc="http://purl.org/dc/elements/1.1/" xmlns:cc="http://creativecommons.org/ns#" xmlns:rdf="http://www.w3.org/1999/02/22-rdf-syntax-ns#">
   <cc:Work>
    <dc:type rdf:resource="http://purl.org/dc/dcmitype/StillImage"/>
    <dc:date>2026-09-01T01:12:09.933034</dc:date>
    <dc:format>image/svg+xml</dc:format>
    <dc:creator>
     <cc:Agent>
      <dc:title>Matplotlib v3.11.1, https://matplotlib.org/</dc:title>
     </cc:Agent>
    </dc:creator>
   </cc:Work>
  </rdf:RDF>
 </metadata>
 <defs>
  <style type="text/css">*{stroke-linejoin: round; stroke-linecap: butt}</style>
 </defs>
 <g id="figure_1">
  <g id="patch_1">
   <path d="M 0 326.630125 
L 516.700331 326.630125 
L 516.700331 0 
L 0 0 
L 0 326.630125 
z
" style="fill: none; opacity: 0"/>
  </g>
  <g id="axes_1">
   <g id="patch_2">
    <path d="M 40.925781 288.430125 
L 326.621781 288.430125 
L 326.621781 22.318125 
L 40.925781 22.318125 
L 40.925781 288.430125 
z
" style="fill: none; opacity: 0"/>
   </g>
   <g id="PathCollection_1">
    <defs>
     <path id="C0_0_2185a14d26" d="M 0 3.162278 
C 0.838646 3.162278 1.643056 2.82908 2.236068 2.236068 
C 2.82908 1.643056 3.162278 0.838646 3.162278 -0 
C 3.162278 -0.838646 2.82908 -1.643056 2.236068 -2.236068 
C 1.643056 -2.82908 0.838646 -3.162278 0 -3.162278 
C -0.838646 -3.162278 -1.643056 -2.82908 -2.236068 -2.236068 
C -2.82908 -1.643056 -3.162278 -0.838646 -3.162278 0 
C -3.162278 0.838646 -2.82908 1.643056 -2.236068 2.236068 
C -1.643056 2.82908 -0.838646 3.162278 0 3.162278 
z
"/>
    </defs>
    <g clip-path="url(#p162ec8d379)">
     <use xlink:href="#C0_0_2185a14d26" x="40.925781" y="95.332982" style="fill: none; stroke: #377eb8; stroke-width: 3"/>
    </g>
    <g clip-path="url(#p162ec8d379)">
     <use xlink:href="#C0_0_2185a14d26" x="155.204181" y="240.155839" style="fill: none; stroke: #377eb8; stroke-width: 3"/>
    </g>
   </g>
   <g id="matplotlib.axis_1">
    <g id="xtick_1">
     <g id="line2d_1">
      <defs>
       <path id="mfec48b4b45" d="M 0 0 
L 0 3.5 
" style="stroke: #000000; stroke-width: 0.8"/>
      </defs>
      <g>
       <use xlink:href="#mfec48b4b45" x="40.925781" y="288.430125" style="stroke: #000000; stroke-width: 0.8"/>
      </g>
     </g>
     <g id="text_1">
      <!-- 2010 -->
      <g transform="translate(28.200781 303.027781) scale(0.1 -0.1)">
       <defs>
        <path id="DejaVuSans-15" d="M 1228 531 
L 3431 531 
L 3431 0 
L 469 0 
L 469 531 
Q 828 903 1448 1529 
Q 2069 2156 2228 2338 
Q 2531 2678 2651 2914 
Q 2772 3150 2772 3378 
Q 2772 3750 2511 3984 
Q 2250 4219 1831 4219 
Q 1534 4219 1204 4116 
Q 875 4013 500 3803 
L 500 4441 
Q 881 4594 1212 4672 
Q 1544 4750 1819 4750 
Q 2544 4750 2975 4387 
Q 3406 4025 3406 3419 
Q 3406 3131 3298 2873 
Q 3191 2616 2906 2266 
Q 2828 2175 2409 1742 
Q 1991 1309 1228 531 
z
" transform="scale(0.015625)"/>
        <path id="DejaVuSans-13" d="M 2034 4250 
Q 1547 4250 1301 3770 
Q 1056 3291 1056 2328 
Q 1056 1369 1301 889 
Q 1547 409 2034 409 
Q 2525 409 2770 889 
Q 3016 1369 3016 2328 
Q 3016 3291 2770 3770 
Q 2525 4250 2034 4250 
z
M 2034 4750 
Q 2819 4750 3233 4129 
Q 3647 3509 3647 2328 
Q 3647 1150 3233 529 
Q 2819 -91 2034 -91 
Q 1250 -91 836 529 
Q 422 1150 422 2328 
Q 422 3509 836 4129 
Q 1250 4750 2034 4750 
z
" transform="scale(0.015625)"/>
        <path id="DejaVuSans-14" d="M 794 531 
L 1825 531 
L 1825 4091 
L 703 3866 
L 703 4441 
L 1819 4666 
L 2450 4666 
L 2450 531 
L 3481 531 
L 3481 0 
L 794 0 
L 794 531 
z
" transform="scale(0.015625)"/>
       </defs>
       <use xlink:href="#DejaVuSans-15"/>
       <use xlink:href="#DejaVuSans-13" transform="translate(63.625 0)"/>
       <use xlink:href="#DejaVuSans-14" transform="translate(127.25 0)"/>
       <use xlink:href="#DejaVuSans-13" transform="translate(190.875 0)"/>
      </g>
     </g>
    </g>
    <g id="xtick_2">
     <g id="line2d_2">
      <g>
       <use xlink:href="#mfec48b4b45" x="98.064981" y="288.430125" style="stroke: #000000; stroke-width: 0.8"/>
      </g>
     </g>
     <g id="text_2">
      <!-- 2015 -->
      <g transform="translate(85.339981 303.027781) scale(0.1 -0.1)">
       <defs>
        <path id="DejaVuSans-18" d="M 691 4666 
L 3169 4666 
L 3169 4134 
L 1269 4134 
L 1269 2991 
Q 1406 3038 1543 3061 
Q 1681 3084 1819 3084 
Q 2600 3084 3056 2656 
Q 3513 2228 3513 1497 
Q 3513 744 3044 326 
Q 2575 -91 1722 -91 
Q 1428 -91 1123 -41 
Q 819 9 494 109 
L 494 744 
Q 775 591 1075 516 
Q 1375 441 1709 441 
Q 2250 441 2565 725 
Q 2881 1009 2881 1497 
Q 2881 1984 2565 2268 
Q 2250 2553 1709 2553 
Q 1456 2553 1204 2497 
Q 953 2441 691 2322 
L 691 4666 
z
" transform="scale(0.015625)"/>
       </defs>
       <use xlink:href="#DejaVuSans-15"/>
       <use xlink:href="#DejaVuSans-13" transform="translate(63.625 0)"/>
       <use xlink:href="#DejaVuSans-14" transform="translate(127.25 0)"/>
       <use xlink:href="#DejaVuSans-18" transform="translate(190.875 0)"/>
      </g>
     </g>
    </g>
    <g id="xtick_3">
     <g id="line2d_3">
      <g>
       <use xlink:href="#mfec48b4b45" x="155.204181" y="288.430125" style="stroke: #000000; stroke-width: 0.8"/>
      </g>
     </g>
     <g id="text_3">
      <!-- 2020 -->
      <g transform="translate(142.479181 303.027781) scale(0.1 -0.1)">
       <use xlink:href="#DejaVuSans-15"/>
       <use xlink:href="#DejaVuSans-13" transform="translate(63.625 0)"/>
       <use xlink:href="#DejaVuSans-15" transform="translate(127.25 0)"/>
       <use xlink:href="#DejaVuSans-13" transform="translate(190.875 0)"/>
      </g>
     </g>
    </g>
    <g id="xtick_4">
     <g id="line2d_4">
      <g>
       <use xlink:href="#mfec48b4b45" x="212.343381" y="288.430125" style="stroke: #000000; stroke-width: 0.8"/>
      </g>
     </g>
     <g id="text_4">
      <!-- 2025 -->
      <g transform="translate(199.618381 303.027781) scale(0.1 -0.1)">
       <use xlink:href="#DejaVuSans-15"/>
       <use xlink:href="#DejaVuSans-13" transform="translate(63.625 0)"/>
       <use xlink:href="#DejaVuSans-15" transform="translate(127.25 0)"/>
       <use xlink:href="#DejaVuSans-18" transform="translate(190.875 0)"/>
      </g>
     </g>
    </g>
    <g id="xtick_5">
     <g id="line2d_5">
      <g>
       <use xlink:href="#mfec48b4b45" x="269.482581" y="288.430125" style="stroke: #000000; stroke-width: 0.8"/>
      </g>
     </g>
     <g id="text_5">
      <!-- 2030 -->
      <g transform="translate(256.757581 303.027781) scale(0.1 -0.1)">
       <defs>
        <path id="DejaVuSans-16" d="M 2597 2516 
Q 3050 2419 3304 2112 
Q 3559 1806 3559 1356 
Q 3559 666 3084 287 
Q 2609 -91 1734 -91 
Q 1441 -91 1130 -33 
Q 819 25 488 141 
L 488 750 
Q 750 597 1062 519 
Q 1375 441 1716 441 
Q 2309 441 2620 675 
Q 2931 909 2931 1356 
Q 2931 1769 2642 2001 
Q 2353 2234 1838 2234 
L 1294 2234 
L 1294 2753 
L 1863 2753 
Q 2328 2753 2575 2939 
Q 2822 3125 2822 3475 
Q 2822 3834 2567 4026 
Q 2313 4219 1838 4219 
Q 1578 4219 1281 4162 
Q 984 4106 628 3988 
L 628 4550 
Q 988 4650 1302 4700 
Q 1616 4750 1894 4750 
Q 2613 4750 3031 4423 
Q 3450 4097 3450 3541 
Q 3450 3153 3228 2886 
Q 3006 2619 2597 2516 
z
" transform="scale(0.015625)"/>
       </defs>
       <use xlink:href="#DejaVuSans-15"/>
       <use xlink:href="#DejaVuSans-13" transform="translate(63.625 0)"/>
       <use xlink:href="#DejaVuSans-16" transform="translate(127.25 0)"/>
       <use xlink:href="#DejaVuSans-13" transform="translate(190.875 0)"/>
      </g>
     </g>
    </g>
    <g id="xtick_6">
     <g id="line2d_6">
      <g>
       <use xlink:href="#mfec48b4b45" x="326.621781" y="288.430125" style="stroke: #000000; stroke-width: 0.8"/>
      </g>
     </g>
     <g id="text_6">
      <!-- 2035 -->
      <g transform="translate(313.896781 303.027781) scale(0.1 -0.1)">
       <use xlink:href="#DejaVuSans-15"/>
       <use xlink:href="#DejaVuSans-13" transform="translate(63.625 0)"/>
       <use xlink:href="#DejaVuSans-16" transform="translate(127.25 0)"/>
       <use xlink:href="#DejaVuSans-18" transform="translate(190.875 0)"/>
      </g>
     </g>
    </g>
    <g id="text_7">
     <!-- Year -->
     <g transform="translate(173.187844 317.027781) scale(0.1 -0.1)">
      <defs>
       <path id="DejaVuSans-3c" d="M -13 4666 
L 666 4666 
L 1959 2747 
L 3244 4666 
L 3922 4666 
L 2272 2222 
L 2272 0 
L 1638 0 
L 1638 2222 
L -13 4666 
z
" transform="scale(0.015625)"/>
       <path id="DejaVuSans-48" d="M 3597 1894 
L 3597 1613 
L 953 1613 
Q 991 1019 1311 708 
Q 1631 397 2203 397 
Q 2534 397 2845 478 
Q 3156 559 3463 722 
L 3463 178 
Q 3153 47 2828 -22 
Q 2503 -91 2169 -91 
Q 1331 -91 842 396 
Q 353 884 353 1716 
Q 353 2575 817 3079 
Q 1281 3584 2069 3584 
Q 2775 3584 3186 3129 
Q 3597 2675 3597 1894 
z
M 3022 2063 
Q 3016 2534 2758 2815 
Q 2500 3097 2075 3097 
Q 1594 3097 1305 2825 
Q 1016 2553 972 2059 
L 3022 2063 
z
" transform="scale(0.015625)"/>
       <path id="DejaVuSans-44" d="M 2194 1759 
Q 1497 1759 1228 1600 
Q 959 1441 959 1056 
Q 959 750 1161 570 
Q 1363 391 1709 391 
Q 2188 391 2477 730 
Q 2766 1069 2766 1631 
L 2766 1759 
L 2194 1759 
z
M 3341 1997 
L 3341 0 
L 2766 0 
L 2766 531 
Q 2569 213 2275 61 
Q 1981 -91 1556 -91 
Q 1019 -91 701 211 
Q 384 513 384 1019 
Q 384 1609 779 1909 
Q 1175 2209 1959 2209 
L 2766 2209 
L 2766 2266 
Q 2766 2663 2505 2880 
Q 2244 3097 1772 3097 
Q 1472 3097 1187 3025 
Q 903 2953 641 2809 
L 641 3341 
Q 956 3463 1253 3523 
Q 1550 3584 1831 3584 
Q 2591 3584 2966 3190 
Q 3341 2797 3341 1997 
z
" transform="scale(0.015625)"/>
       <path id="DejaVuSans-55" d="M 2631 2963 
Q 2534 3019 2420 3045 
Q 2306 3072 2169 3072 
Q 1681 3072 1420 2755 
Q 1159 2438 1159 1844 
L 1159 0 
L 581 0 
L 581 3500 
L 1159 3500 
L 1159 2956 
Q 1341 3275 1631 3429 
Q 1922 3584 2338 3584 
Q 2397 3584 2469 3576 
Q 2541 3569 2628 3553 
L 2631 2963 
z
" transform="scale(0.015625)"/>
      </defs>
      <use xlink:href="#DejaVuSans-3c"/>
      <use xlink:href="#DejaVuSans-48" transform="translate(47.796875 0)"/>
      <use xlink:href="#DejaVuSans-44" transform="translate(109.328125 0)"/>
      <use xlink:href="#DejaVuSans-55" transform="translate(170.609375 0)"/>
     </g>
    </g>
   </g>
   <g id="matplotlib.axis_2">
    <g id="ytick_1">
     <g id="line2d_7">
      <defs>
       <path id="m51a51f0bc1" d="M 0 0 
L -3.5 0 
" style="stroke: #000000; stroke-width: 0.8"/>
      </defs>
      <g>
       <use xlink:href="#m51a51f0bc1" x="40.925781" y="288.430125" style="stroke: #000000; stroke-width: 0.8"/>
      </g>
     </g>
     <g id="text_8">
      <!-- 0 -->
      <g transform="translate(27.563281 292.228953) scale(0.1 -0.1)">
       <use xlink:href="#DejaVuSans-13"/>
      </g>
     </g>
    </g>
    <g id="ytick_2">
     <g id="line2d_8">
      <g>
       <use xlink:href="#m51a51f0bc1" x="40.925781" y="240.155839" style="stroke: #000000; stroke-width: 0.8"/>
      </g>
     </g>
     <g id="text_9">
      <!-- 10 -->
      <g transform="translate(21.200781 243.954667) scale(0.1 -0.1)">
       <use xlink:href="#DejaVuSans-14"/>
       <use xlink:href="#DejaVuSans-13" transform="translate(63.625 0)"/>
      </g>
     </g>
    </g>
    <g id="ytick_3">
     <g id="line2d_9">
      <g>
       <use xlink:href="#m51a51f0bc1" x="40.925781" y="191.881554" style="stroke: #000000; stroke-width: 0.8"/>
      </g>
     </g>
     <g id="text_10">
      <!-- 20 -->
      <g transform="translate(21.200781 195.680382) scale(0.1 -0.1)">
       <use xlink:href="#DejaVuSans-15"/>
       <use xlink:href="#DejaVuSans-13" transform="translate(63.625 0)"/>
      </g>
     </g>
    </g>
    <g id="ytick_4">
     <g id="line2d_10">
      <g>
       <use xlink:href="#m51a51f0bc1" x="40.925781" y="143.607268" style="stroke: #000000; stroke-width: 0.8"/>
      </g>
     </g>
     <g id="text_11">
      <!-- 30 -->
      <g transform="translate(21.200781 147.406096) scale(0.1 -0.1)">
       <use xlink:href="#DejaVuSans-16"/>
       <use xlink:href="#DejaVuSans-13" transform="translate(63.625 0)"/>
      </g>
     </g>
    </g>
    <g id="ytick_5">
     <g id="line2d_11">
      <g>
       <use xlink:href="#m51a51f0bc1" x="40.925781" y="95.332982" style="stroke: #000000; stroke-width: 0.8"/>
      </g>
     </g>
     <g id="text_12">
      <!-- 40 -->
      <g transform="translate(21.200781 99.13181) scale(0.1 -0.1)">
       <defs>
        <path id="DejaVuSans-17" d="M 2419 4116 
L 825 1625 
L 2419 1625 
L 2419 4116 
z
M 2253 4666 
L 3047 4666 
L 3047 1625 
L 3713 1625 
L 3713 1100 
L 3047 1100 
L 3047 0 
L 2419 0 
L 2419 1100 
L 313 1100 
L 313 1709 
L 2253 4666 
z
" transform="scale(0.015625)"/>
       </defs>
       <use xlink:href="#DejaVuSans-17"/>
       <use xlink:href="#DejaVuSans-13" transform="translate(63.625 0)"/>
      </g>
     </g>
    </g>
    <g id="ytick_6">
     <g id="line2d_12">
      <g>
       <use xlink:href="#m51a51f0bc1" x="40.925781" y="47.058696" style="stroke: #000000; stroke-width: 0.8"/>
      </g>
     </g>
     <g id="text_13">
      <!-- 50 -->
      <g transform="translate(21.200781 50.857525) scale(0.1 -0.1)">
       <use xlink:href="#DejaVuSans-18"/>
       <use xlink:href="#DejaVuSans-13" transform="translate(63.625 0)"/>
      </g>
     </g>
    </g>
    <g id="text_14">
     <!-- Number of deaths due to disease (number per year) -->
     <g transform="translate(14.798438 286.346781) rotate(-90) scale(0.1 -0.1)">
      <defs>
       <path id="DejaVuSans-31" d="M 628 4666 
L 1478 4666 
L 3547 763 
L 3547 4666 
L 4159 4666 
L 4159 0 
L 3309 0 
L 1241 3903 
L 1241 0 
L 628 0 
L 628 4666 
z
" transform="scale(0.015625)"/>
       <path id="DejaVuSans-58" d="M 544 1381 
L 544 3500 
L 1119 3500 
L 1119 1403 
Q 1119 906 1312 657 
Q 1506 409 1894 409 
Q 2359 409 2629 706 
Q 2900 1003 2900 1516 
L 2900 3500 
L 3475 3500 
L 3475 0 
L 2900 0 
L 2900 538 
Q 2691 219 2414 64 
Q 2138 -91 1772 -91 
Q 1169 -91 856 284 
Q 544 659 544 1381 
z
M 1991 3584 
L 1991 3584 
z
" transform="scale(0.015625)"/>
       <path id="DejaVuSans-50" d="M 3328 2828 
Q 3544 3216 3844 3400 
Q 4144 3584 4550 3584 
Q 5097 3584 5394 3201 
Q 5691 2819 5691 2113 
L 5691 0 
L 5113 0 
L 5113 2094 
Q 5113 2597 4934 2840 
Q 4756 3084 4391 3084 
Q 3944 3084 3684 2787 
Q 3425 2491 3425 1978 
L 3425 0 
L 2847 0 
L 2847 2094 
Q 2847 2600 2669 2842 
Q 2491 3084 2119 3084 
Q 1678 3084 1418 2786 
Q 1159 2488 1159 1978 
L 1159 0 
L 581 0 
L 581 3500 
L 1159 3500 
L 1159 2956 
Q 1356 3278 1631 3431 
Q 1906 3584 2284 3584 
Q 2666 3584 2933 3390 
Q 3200 3197 3328 2828 
z
" transform="scale(0.015625)"/>
       <path id="DejaVuSans-45" d="M 3116 1747 
Q 3116 2381 2855 2742 
Q 2594 3103 2138 3103 
Q 1681 3103 1420 2742 
Q 1159 2381 1159 1747 
Q 1159 1113 1420 752 
Q 1681 391 2138 391 
Q 2594 391 2855 752 
Q 3116 1113 3116 1747 
z
M 1159 2969 
Q 1341 3281 1617 3432 
Q 1894 3584 2278 3584 
Q 2916 3584 3314 3078 
Q 3713 2572 3713 1747 
Q 3713 922 3314 415 
Q 2916 -91 2278 -91 
Q 1894 -91 1617 61 
Q 1341 213 1159 525 
L 1159 0 
L 581 0 
L 581 4863 
L 1159 4863 
L 1159 2969 
z
" transform="scale(0.015625)"/>
       <path id="DejaVuSans-3" transform="scale(0.015625)"/>
       <path id="DejaVuSans-52" d="M 1959 3097 
Q 1497 3097 1228 2736 
Q 959 2375 959 1747 
Q 959 1119 1226 758 
Q 1494 397 1959 397 
Q 2419 397 2687 759 
Q 2956 1122 2956 1747 
Q 2956 2369 2687 2733 
Q 2419 3097 1959 3097 
z
M 1959 3584 
Q 2709 3584 3137 3096 
Q 3566 2609 3566 1747 
Q 3566 888 3137 398 
Q 2709 -91 1959 -91 
Q 1206 -91 779 398 
Q 353 888 353 1747 
Q 353 2609 779 3096 
Q 1206 3584 1959 3584 
z
" transform="scale(0.015625)"/>
       <path id="DejaVuSans-49" d="M 2375 4863 
L 2375 4384 
L 1825 4384 
Q 1516 4384 1395 4259 
Q 1275 4134 1275 3809 
L 1275 3500 
L 2222 3500 
L 2222 3053 
L 1275 3053 
L 1275 0 
L 697 0 
L 697 3053 
L 147 3053 
L 147 3500 
L 697 3500 
L 697 3744 
Q 697 4328 969 4595 
Q 1241 4863 1831 4863 
L 2375 4863 
z
" transform="scale(0.015625)"/>
       <path id="DejaVuSans-47" d="M 2906 2969 
L 2906 4863 
L 3481 4863 
L 3481 0 
L 2906 0 
L 2906 525 
Q 2725 213 2448 61 
Q 2172 -91 1784 -91 
Q 1150 -91 751 415 
Q 353 922 353 1747 
Q 353 2572 751 3078 
Q 1150 3584 1784 3584 
Q 2172 3584 2448 3432 
Q 2725 3281 2906 2969 
z
M 947 1747 
Q 947 1113 1208 752 
Q 1469 391 1925 391 
Q 2381 391 2643 752 
Q 2906 1113 2906 1747 
Q 2906 2381 2643 2742 
Q 2381 3103 1925 3103 
Q 1469 3103 1208 2742 
Q 947 2381 947 1747 
z
" transform="scale(0.015625)"/>
       <path id="DejaVuSans-57" d="M 1172 4494 
L 1172 3500 
L 2356 3500 
L 2356 3053 
L 1172 3053 
L 1172 1153 
Q 1172 725 1289 603 
Q 1406 481 1766 481 
L 2356 481 
L 2356 0 
L 1766 0 
Q 1100 0 847 248 
Q 594 497 594 1153 
L 594 3053 
L 172 3053 
L 172 3500 
L 594 3500 
L 594 4494 
L 1172 4494 
z
" transform="scale(0.015625)"/>
       <path id="DejaVuSans-4b" d="M 3513 2113 
L 3513 0 
L 2938 0 
L 2938 2094 
Q 2938 2591 2744 2837 
Q 2550 3084 2163 3084 
Q 1697 3084 1428 2787 
Q 1159 2491 1159 1978 
L 1159 0 
L 581 0 
L 581 4863 
L 1159 4863 
L 1159 2956 
Q 1366 3272 1645 3428 
Q 1925 3584 2291 3584 
Q 2894 3584 3203 3211 
Q 3513 2838 3513 2113 
z
" transform="scale(0.015625)"/>
       <path id="DejaVuSans-56" d="M 2834 3397 
L 2834 2853 
Q 2591 2978 2328 3040 
Q 2066 3103 1784 3103 
Q 1356 3103 1142 2972 
Q 928 2841 928 2578 
Q 928 2378 1081 2264 
Q 1234 2150 1697 2047 
L 1894 2003 
Q 2506 1872 2764 1633 
Q 3022 1394 3022 966 
Q 3022 478 2636 193 
Q 2250 -91 1575 -91 
Q 1294 -91 989 -36 
Q 684 19 347 128 
L 347 722 
Q 666 556 975 473 
Q 1284 391 1588 391 
Q 1994 391 2212 530 
Q 2431 669 2431 922 
Q 2431 1156 2273 1281 
Q 2116 1406 1581 1522 
L 1381 1569 
Q 847 1681 609 1914 
Q 372 2147 372 2553 
Q 372 3047 722 3315 
Q 1072 3584 1716 3584 
Q 2034 3584 2315 3537 
Q 2597 3491 2834 3397 
z
" transform="scale(0.015625)"/>
       <path id="DejaVuSans-4c" d="M 603 3500 
L 1178 3500 
L 1178 0 
L 603 0 
L 603 3500 
z
M 603 4863 
L 1178 4863 
L 1178 4134 
L 603 4134 
L 603 4863 
z
" transform="scale(0.015625)"/>
       <path id="DejaVuSans-b" d="M 1984 4856 
Q 1566 4138 1362 3434 
Q 1159 2731 1159 2009 
Q 1159 1288 1364 580 
Q 1569 -128 1984 -844 
L 1484 -844 
Q 1016 -109 783 600 
Q 550 1309 550 2009 
Q 550 2706 781 3412 
Q 1013 4119 1484 4856 
L 1984 4856 
z
" transform="scale(0.015625)"/>
       <path id="DejaVuSans-51" d="M 3513 2113 
L 3513 0 
L 2938 0 
L 2938 2094 
Q 2938 2591 2744 2837 
Q 2550 3084 2163 3084 
Q 1697 3084 1428 2787 
Q 1159 2491 1159 1978 
L 1159 0 
L 581 0 
L 581 3500 
L 1159 3500 
L 1159 2956 
Q 1366 3272 1645 3428 
Q 1925 3584 2291 3584 
Q 2894 3584 3203 3211 
Q 3513 2838 3513 2113 
z
" transform="scale(0.015625)"/>
       <path id="DejaVuSans-53" d="M 1159 525 
L 1159 -1331 
L 581 -1331 
L 581 3500 
L 1159 3500 
L 1159 2969 
Q 1341 3281 1617 3432 
Q 1894 3584 2278 3584 
Q 2916 3584 3314 3078 
Q 3713 2572 3713 1747 
Q 3713 922 3314 415 
Q 2916 -91 2278 -91 
Q 1894 -91 1617 61 
Q 1341 213 1159 525 
z
M 3116 1747 
Q 3116 2381 2855 2742 
Q 2594 3103 2138 3103 
Q 1681 3103 1420 2742 
Q 1159 2381 1159 1747 
Q 1159 1113 1420 752 
Q 1681 391 2138 391 
Q 2594 391 2855 752 
Q 3116 1113 3116 1747 
z
" transform="scale(0.015625)"/>
       <path id="DejaVuSans-5c" d="M 2059 -325 
Q 1816 -950 1584 -1140 
Q 1353 -1331 966 -1331 
L 506 -1331 
L 506 -850 
L 844 -850 
Q 1081 -850 1212 -737 
Q 1344 -625 1503 -206 
L 1606 56 
L 191 3500 
L 800 3500 
L 1894 763 
L 2988 3500 
L 3597 3500 
L 2059 -325 
z
" transform="scale(0.015625)"/>
       <path id="DejaVuSans-c" d="M 513 4856 
L 1013 4856 
Q 1481 4119 1714 3412 
Q 1947 2706 1947 2009 
Q 1947 1309 1714 600 
Q 1481 -109 1013 -844 
L 513 -844 
Q 928 -128 1133 580 
Q 1338 1288 1338 2009 
Q 1338 2731 1133 3434 
Q 928 4138 513 4856 
z
" transform="scale(0.015625)"/>
      </defs>
      <use xlink:href="#DejaVuSans-31"/>
      <use xlink:href="#DejaVuSans-58" transform="translate(74.8125 0)"/>
      <use xlink:href="#DejaVuSans-50" transform="translate(138.1875 0)"/>
      <use xlink:href="#DejaVuSans-45" transform="translate(235.59375 0)"/>
      <use xlink:href="#DejaVuSans-48" transform="translate(299.078125 0)"/>
      <use xlink:href="#DejaVuSans-55" transform="translate(360.609375 0)"/>
      <use xlink:href="#DejaVuSans-3" transform="translate(401.71875 0)"/>
      <use xlink:href="#DejaVuSans-52" transform="translate(433.5 0)"/>
      <use xlink:href="#DejaVuSans-49" transform="translate(494.6875 0)"/>
      <use xlink:href="#DejaVuSans-3" transform="translate(529.890625 0)"/>
      <use xlink:href="#DejaVuSans-47" transform="translate(561.671875 0)"/>
      <use xlink:href="#DejaVuSans-48" transform="translate(625.15625 0)"/>
      <use xlink:href="#DejaVuSans-44" transform="translate(686.6875 0)"/>
      <use xlink:href="#DejaVuSans-57" transform="translate(747.96875 0)"/>
      <use xlink:href="#DejaVuSans-4b" transform="translate(787.171875 0)"/>
      <use xlink:href="#DejaVuSans-56" transform="translate(850.546875 0)"/>
      <use xlink:href="#DejaVuSans-3" transform="translate(902.640625 0)"/>
      <use xlink:href="#DejaVuSans-47" transform="translate(934.421875 0)"/>
      <use xlink:href="#DejaVuSans-58" transform="translate(997.90625 0)"/>
      <use xlink:href="#DejaVuSans-48" transform="translate(1061.28125 0)"/>
      <use xlink:href="#DejaVuSans-3" transform="translate(1122.8125 0)"/>
      <use xlink:href="#DejaVuSans-57" transform="translate(1154.59375 0)"/>
      <use xlink:href="#DejaVuSans-52" transform="translate(1193.796875 0)"/>
      <use xlink:href="#DejaVuSans-3" transform="translate(1254.984375 0)"/>
      <use xlink:href="#DejaVuSans-47" transform="translate(1286.765625 0)"/>
      <use xlink:href="#DejaVuSans-4c" transform="translate(1350.25 0)"/>
      <use xlink:href="#DejaVuSans-56" transform="translate(1378.03125 0)"/>
      <use xlink:href="#DejaVuSans-48" transform="translate(1430.125 0)"/>
      <use xlink:href="#DejaVuSans-44" transform="translate(1491.65625 0)"/>
      <use xlink:href="#DejaVuSans-56" transform="translate(1552.9375 0)"/>
      <use xlink:href="#DejaVuSans-48" transform="translate(1605.03125 0)"/>
      <use xlink:href="#DejaVuSans-3" transform="translate(1666.5625 0)"/>
      <use xlink:href="#DejaVuSans-b" transform="translate(1698.34375 0)"/>
      <use xlink:href="#DejaVuSans-51" transform="translate(1737.359375 0)"/>
      <use xlink:href="#DejaVuSans-58" transform="translate(1800.734375 0)"/>
      <use xlink:href="#DejaVuSans-50" transform="translate(1864.109375 0)"/>
      <use xlink:href="#DejaVuSans-45" transform="translate(1961.515625 0)"/>
      <use xlink:href="#DejaVuSans-48" transform="translate(2025 0)"/>
      <use xlink:href="#DejaVuSans-55" transform="translate(2086.53125 0)"/>
      <use xlink:href="#DejaVuSans-3" transform="translate(2127.640625 0)"/>
      <use xlink:href="#DejaVuSans-53" transform="translate(2159.421875 0)"/>
      <use xlink:href="#DejaVuSans-48" transform="translate(2222.90625 0)"/>
      <use xlink:href="#DejaVuSans-55" transform="translate(2284.4375 0)"/>
      <use xlink:href="#DejaVuSans-3" transform="translate(2325.546875 0)"/>
      <use xlink:href="#DejaVuSans-5c" transform="translate(2357.328125 0)"/>
      <use xlink:href="#DejaVuSans-48" transform="translate(2416.515625 0)"/>
      <use xlink:href="#DejaVuSans-44" transform="translate(2478.046875 0)"/>
      <use xlink:href="#DejaVuSans-55" transform="translate(2539.328125 0)"/>
      <use xlink:href="#DejaVuSans-c" transform="translate(2580.4375 0)"/>
     </g>
    </g>
   </g>
   <g id="line2d_13">
    <path d="M 40.925781 47.058696 
L 43.782741 87.287268 
L 46.639701 121.383776 
L 49.496661 150.170278 
L 52.353621 174.38131 
L 55.210581 194.668215 
L 58.067541 211.604629 
L 60.924501 225.692613 
L 63.781461 237.369071 
L 66.638421 247.012173 
L 69.495381 254.818175 
L 72.352341 261.140156 
L 75.209301 266.262784 
L 78.066261 270.415647 
L 80.923221 273.783993 
L 83.780181 276.517356 
L 86.637141 278.736502 
L 89.494101 280.539017 
L 92.351061 282.003791 
L 95.208021 283.194643 
L 98.064981 284.163218 
L 100.921941 284.951341 
L 103.778901 285.592893 
L 106.635861 286.115343 
L 109.492821 286.540965 
L 112.349781 286.887835 
L 115.206741 287.170628 
L 118.063701 287.40126 
L 120.920661 287.589417 
L 123.777621 287.742973 
L 126.634581 287.868329 
L 129.491541 287.970697 
L 132.348501 288.054316 
L 135.205461 288.122641 
L 138.062421 288.178484 
L 140.919381 288.224137 
L 143.776341 288.261471 
L 146.633301 288.292009 
L 149.490261 288.316993 
L 152.347221 288.337439 
L 155.204181 288.354175 
L 158.061141 288.367878 
L 160.918101 288.379099 
L 163.775061 288.388289 
L 166.632021 288.395819 
L 169.488981 288.401988 
L 172.345941 288.407044 
L 175.202901 288.411189 
L 178.059861 288.414587 
L 180.916821 288.417374 
L 183.773781 288.419659 
L 186.630741 288.421533 
L 189.487701 288.423071 
L 192.344661 288.424333 
L 195.201621 288.425368 
L 198.058581 288.426218 
L 200.915541 288.426916 
L 203.772501 288.427489 
L 206.629461 288.427959 
L 209.486421 288.428345 
L 212.343381 288.428662 
L 215.200341 288.428923 
L 218.057301 288.429137 
L 220.914261 288.429313 
L 223.771221 288.429457 
L 226.628181 288.429576 
L 229.485141 288.429673 
L 232.342101 288.429754 
L 235.199061 288.42982 
L 238.056021 288.429874 
L 240.912981 288.429918 
L 243.769941 288.429955 
L 246.626901 288.429985 
L 249.483861 288.43001 
L 252.340821 288.43003 
L 255.197781 288.430047 
L 258.054741 288.430061 
L 260.911701 288.430072 
L 263.768661 288.430082 
L 266.625621 288.430089 
L 269.482581 288.430096 
L 272.339541 288.430101 
L 275.196501 288.430105 
L 278.053461 288.430109 
L 280.910421 288.430111 
L 283.767381 288.430114 
L 286.624341 288.430116 
L 289.481301 288.430117 
L 292.338261 288.430119 
L 295.195221 288.43012 
L 298.052181 288.430121 
L 300.909141 288.430122 
L 303.766101 288.430122 
L 306.623061 288.430123 
L 309.480021 288.430123 
L 312.336981 288.430123 
L 315.193941 288.430124 
L 318.050901 288.430124 
L 320.907861 288.430124 
L 323.764821 288.430124 
L 326.621781 288.430124 
" clip-path="url(#p162ec8d379)" style="fill: none; stroke: #377eb8; stroke-width: 3; stroke-linecap: square"/>
   </g>
   <g id="line2d_14">
    <path d="M 40.925781 258.352861 
L 43.782741 258.101276 
L 46.639701 257.830476 
L 49.496661 257.542121 
L 52.353621 257.237608 
L 55.210581 256.918122 
L 58.067541 256.584681 
L 60.924501 256.238163 
L 63.781461 255.879329 
L 66.638421 255.508852 
L 69.495381 255.127323 
L 72.352341 254.735267 
L 75.209301 254.333158 
L 78.066261 253.92142 
L 80.923221 253.50044 
L 83.780181 253.070571 
L 86.637141 252.632138 
L 89.494101 252.185443 
L 92.351061 251.730766 
L 95.208021 251.26837 
L 98.064981 250.798504 
L 100.921941 250.321404 
L 103.778901 249.837295 
L 106.635861 249.346393 
L 109.492821 248.848908 
L 112.349781 248.34504 
L 115.206741 247.834987 
L 118.063701 247.318941 
L 120.920661 246.797091 
L 123.777621 246.269624 
L 126.634581 245.736723 
L 129.491541 245.19857 
L 132.348501 244.655347 
L 135.205461 244.107233 
L 138.062421 243.554407 
L 140.919381 242.997051 
L 143.776341 242.435342 
L 146.633301 241.869461 
L 149.490261 241.299588 
L 152.347221 240.725904 
L 155.204181 240.14859 
L 158.061141 239.56783 
L 160.918101 238.983805 
L 163.775061 238.396701 
L 166.632021 237.806702 
L 169.488981 237.213995 
L 172.345941 236.618766 
L 175.202901 236.021203 
L 178.059861 235.421495 
L 180.916821 234.81983 
L 183.773781 234.2164 
L 186.630741 233.611393 
L 189.487701 233.005002 
L 192.344661 232.397418 
L 195.201621 231.788831 
L 198.058581 231.179434 
L 200.915541 230.569419 
L 203.772501 229.958976 
L 206.629461 229.348297 
L 209.486421 228.737573 
L 212.343381 228.126993 
L 215.200341 227.516747 
L 218.057301 226.907022 
L 220.914261 226.298007 
L 223.771221 225.689886 
L 226.628181 225.082845 
L 229.485141 224.477066 
L 232.342101 223.87273 
L 235.199061 223.270016 
L 238.056021 222.669101 
L 240.912981 222.070159 
L 243.769941 221.473364 
L 246.626901 220.878884 
L 249.483861 220.286886 
L 252.340821 219.697535 
L 255.197781 219.110991 
L 258.054741 218.527413 
L 260.911701 217.946955 
L 263.768661 217.369767 
L 266.625621 216.795998 
L 269.482581 216.22579 
L 272.339541 215.659286 
L 275.196501 215.09662 
L 278.053461 214.537925 
L 280.910421 213.983328 
L 283.767381 213.432955 
L 286.624341 212.886925 
L 289.481301 212.345353 
L 292.338261 211.808351 
L 295.195221 211.276025 
L 298.052181 210.748478 
L 300.909141 210.225807 
L 303.766101 209.708106 
L 306.623061 209.195464 
L 309.480021 208.687965 
L 312.336981 208.185689 
L 315.193941 207.688711 
L 318.050901 207.197101 
L 320.907861 206.710926 
L 323.764821 206.230247 
L 326.621781 205.755121 
" clip-path="url(#p162ec8d379)" style="fill: none; stroke: #e41a1c; stroke-width: 3; stroke-linecap: square"/>
   </g>
   <g id="patch_3">
    <path d="M 40.925781 288.430125 
L 40.925781 22.318125 
" style="fill: none; stroke: #000000; stroke-width: 0.8; stroke-linejoin: miter; stroke-linecap: square"/>
   </g>
   <g id="patch_4">
    <path d="M 326.621781 288.430125 
L 326.621781 22.318125 
" style="fill: none"/>
   </g>
   <g id="patch_5">
    <path d="M 40.925781 288.430125 
L 326.621781 288.430125 
" style="fill: none; stroke: #000000; stroke-width: 0.8; stroke-linejoin: miter; stroke-linecap: square"/>
   </g>
   <g id="patch_6">
    <path d="M 40.925781 22.318125 
L 326.621781 22.318125 
" style="fill: none"/>
   </g>
   <g id="text_15">
    <!-- Adults -->
    <g transform="translate(165.018156 16.318125) scale(0.12 -0.12)">
     <defs>
      <path id="DejaVuSans-24" d="M 2188 4044 
L 1331 1722 
L 3047 1722 
L 2188 4044 
z
M 1831 4666 
L 2547 4666 
L 4325 0 
L 3669 0 
L 3244 1197 
L 1141 1197 
L 716 0 
L 50 0 
L 1831 4666 
z
" transform="scale(0.015625)"/>
      <path id="DejaVuSans-4f" d="M 603 4863 
L 1178 4863 
L 1178 0 
L 603 0 
L 603 4863 
z
" transform="scale(0.015625)"/>
     </defs>
     <use xlink:href="#DejaVuSans-24"/>
     <use xlink:href="#DejaVuSans-47" transform="translate(66.65625 0)"/>
     <use xlink:href="#DejaVuSans-58" transform="translate(130.140625 0)"/>
     <use xlink:href="#DejaVuSans-4f" transform="translate(193.515625 0)"/>
     <use xlink:href="#DejaVuSans-57" transform="translate(221.296875 0)"/>
     <use xlink:href="#DejaVuSans-56" transform="translate(260.5 0)"/>
    </g>
   </g>
   <g id="legend_1">
    <g id="patch_7">
     <path d="M 347.906581 171.874906 
L 507.500331 171.874906 
Q 509.500331 171.874906 509.500331 169.874906 
L 509.500331 140.873344 
Q 509.500331 138.873344 507.500331 138.873344 
L 347.906581 138.873344 
Q 345.906581 138.873344 345.906581 140.873344 
L 345.906581 169.874906 
Q 345.906581 171.874906 347.906581 171.874906 
L 347.906581 171.874906 
z
" style="fill: none; opacity: 0"/>
    </g>
    <g id="line2d_15">
     <path d="M 349.906581 146.971781 
L 359.906581 146.971781 
L 369.906581 146.971781 
" style="fill: none; stroke: #377eb8; stroke-width: 3; stroke-linecap: square"/>
    </g>
    <g id="text_16">
     <!-- parset_default -->
     <g transform="translate(377.906581 150.471781) scale(0.1 -0.1)">
      <defs>
       <path id="DejaVuSans-42" d="M 3263 -1063 
L 3263 -1509 
L -63 -1509 
L -63 -1063 
L 3263 -1063 
z
" transform="scale(0.015625)"/>
      </defs>
      <use xlink:href="#DejaVuSans-53"/>
      <use xlink:href="#DejaVuSans-44" transform="translate(63.484375 0)"/>
      <use xlink:href="#DejaVuSans-55" transform="translate(124.765625 0)"/>
      <use xlink:href="#DejaVuSans-56" transform="translate(165.875 0)"/>
      <use xlink:href="#DejaVuSans-48" transform="translate(217.96875 0)"/>
      <use xlink:href="#DejaVuSans-57" transform="translate(279.5 0)"/>
      <use xlink:href="#DejaVuSans-42" transform="translate(318.703125 0)"/>
      <use xlink:href="#DejaVuSans-47" transform="translate(368.703125 0)"/>
      <use xlink:href="#DejaVuSans-48" transform="translate(432.1875 0)"/>
      <use xlink:href="#DejaVuSans-49" transform="translate(493.71875 0)"/>
      <use xlink:href="#DejaVuSans-44" transform="translate(528.921875 0)"/>
      <use xlink:href="#DejaVuSans-58" transform="translate(590.203125 0)"/>
      <use xlink:href="#DejaVuSans-4f" transform="translate(653.578125 0)"/>
      <use xlink:href="#DejaVuSans-57" transform="translate(681.359375 0)"/>
     </g>
    </g>
    <g id="line2d_16">
     <path d="M 349.906581 161.972562 
L 359.906581 161.972562 
L 369.906581 161.972562 
" style="fill: none; stroke: #e41a1c; stroke-width: 3; stroke-linecap: square"/>
    </g>
    <g id="text_17">
     <!-- Auto calibration repeated -->
     <g transform="translate(377.906581 165.472562) scale(0.1 -0.1)">
      <defs>
       <path id="DejaVuSans-46" d="M 3122 3366 
L 3122 2828 
Q 2878 2963 2633 3030 
Q 2388 3097 2138 3097 
Q 1578 3097 1268 2742 
Q 959 2388 959 1747 
Q 959 1106 1268 751 
Q 1578 397 2138 397 
Q 2388 397 2633 464 
Q 2878 531 3122 666 
L 3122 134 
Q 2881 22 2623 -34 
Q 2366 -91 2075 -91 
Q 1284 -91 818 406 
Q 353 903 353 1747 
Q 353 2603 823 3093 
Q 1294 3584 2113 3584 
Q 2378 3584 2631 3529 
Q 2884 3475 3122 3366 
z
" transform="scale(0.015625)"/>
      </defs>
      <use xlink:href="#DejaVuSans-24"/>
      <use xlink:href="#DejaVuSans-58" transform="translate(68.40625 0)"/>
      <use xlink:href="#DejaVuSans-57" transform="translate(131.78125 0)"/>
      <use xlink:href="#DejaVuSans-52" transform="translate(170.984375 0)"/>
      <use xlink:href="#DejaVuSans-3" transform="translate(232.171875 0)"/>
      <use xlink:href="#DejaVuSans-46" transform="translate(263.953125 0)"/>
      <use xlink:href="#DejaVuSans-44" transform="translate(318.9375 0)"/>
      <use xlink:href="#DejaVuSans-4f" transform="translate(380.21875 0)"/>
      <use xlink:href="#DejaVuSans-4c" transform="translate(408 0)"/>
      <use xlink:href="#DejaVuSans-45" transform="translate(435.78125 0)"/>
      <use xlink:href="#DejaVuSans-55" transform="translate(499.265625 0)"/>
      <use xlink:href="#DejaVuSans-44" transform="translate(540.375 0)"/>
      <use xlink:href="#DejaVuSans-57" transform="translate(601.65625 0)"/>
      <use xlink:href="#DejaVuSans-4c" transform="translate(640.859375 0)"/>
      <use xlink:href="#DejaVuSans-52" transform="translate(668.640625 0)"/>
      <use xlink:href="#DejaVuSans-51" transform="translate(729.828125 0)"/>
      <use xlink:href="#DejaVuSans-3" transform="translate(793.203125 0)"/>
      <use xlink:href="#DejaVuSans-55" transform="translate(824.984375 0)"/>
      <use xlink:href="#DejaVuSans-48" transform="translate(863.890625 0)"/>
      <use xlink:href="#DejaVuSans-53" transform="translate(925.421875 0)"/>
      <use xlink:href="#DejaVuSans-48" transform="translate(988.90625 0)"/>
      <use xlink:href="#DejaVuSans-44" transform="translate(1050.4375 0)"/>
      <use xlink:href="#DejaVuSans-57" transform="translate(1111.71875 0)"/>
      <use xlink:href="#DejaVuSans-48" transform="translate(1150.921875 0)"/>
      <use xlink:href="#DejaVuSans-47" transform="translate(1212.453125 0)"/>
     </g>
    </g>
   </g>
  </g>
 </g>
 <defs>
  <clipPath id="p162ec8d379">
   <rect x="40.925781" y="22.318125" width="285.696" height="266.112"/>
  </clipPath>
 </defs>
</svg>
