<?xml version="1.0" encoding="utf-8" standalone="no"?>
<!DOCTYPE svg PUBLIC "-//W3C//DTD SVG 1.1//EN"
  "http://www.w3.org/Graphics/SVG/1.1/DTD/svg11.dtd">
<svg xmlns:xlink="http://www.w3.org/1999/xlink" width="532.276113pt" height="325.986375pt" viewBox="0 0 532.276113 325.986375" xmlns="http://www.w3.org/2000/svg" version="1.1">
 <metadata>
  <rdf:RDF xmlns:dc="http://purl.org/dc/elements/1.1/" xmlns:cc="http://creativecommons.org/ns#" xmlns:rdf="http://www.w3.org/1999/02/22-rdf-syntax-ns#">
   <cc:Work>
    <dc:type rdf:resource="http://purl.org/dc/dcmitype/StillImage"/>
    <dc:date>2026-01-28T01:11:45.071671</dc:date>
    <dc:format>image/svg+xml</dc:format>
    <dc:creator>
     <cc:Agent>
      <dc:title>Matplotlib v3.10.8, https://matplotlib.org/</dc:title>
     </cc:Agent>
    </dc:creator>
   </cc:Work>
  </rdf:RDF>
 </metadata>
 <defs>
  <style type="text/css">*{stroke-linejoin: round; stroke-linecap: butt}</style>
 </defs>
 <g id="figure_1">
  <g id="patch_1">
   <path d="M 0 325.986375 
L 532.276113 325.986375 
L 532.276113 0 
L 0 0 
L 0 325.986375 
z
" style="fill: none; opacity: 0"/>
  </g>
  <g id="axes_1">
   <g id="patch_2">
    <path d="M 56.50625 288.430125 
L 342.20225 288.430125 
L 342.20225 22.318125 
L 56.50625 22.318125 
L 56.50625 288.430125 
z
" style="fill: none; opacity: 0"/>
   </g>
   <g id="PathCollection_1">
    <defs>
     <path id="C0_0_edf1764dd4" d="M 0 3.162278 
C 0.838646 3.162278 1.643056 2.82908 2.236068 2.236068 
C 2.82908 1.643056 3.162278 0.838646 3.162278 -0 
C 3.162278 -0.838646 2.82908 -1.643056 2.236068 -2.236068 
C 1.643056 -2.82908 0.838646 -3.162278 0 -3.162278 
C -0.838646 -3.162278 -1.643056 -2.82908 -2.236068 -2.236068 
C -2.82908 -1.643056 -3.162278 -0.838646 -3.162278 0 
C -3.162278 0.838646 -2.82908 1.643056 -2.236068 2.236068 
C -1.643056 2.82908 -0.838646 3.162278 0 3.162278 
z
"/>
    </defs>
    <g clip-path="url(#pabebc12fac)">
     <use xlink:href="#C0_0_edf1764dd4" x="56.50625" y="104.767678" style="fill: none; stroke: #377eb8; stroke-width: 3"/>
    </g>
    <g clip-path="url(#pabebc12fac)">
     <use xlink:href="#C0_0_edf1764dd4" x="170.78465" y="68.035188" style="fill: none; stroke: #377eb8; stroke-width: 3"/>
    </g>
   </g>
   <g id="matplotlib.axis_1">
    <g id="xtick_1">
     <g id="line2d_1">
      <defs>
       <path id="m0872e7e1e0" d="M 0 0 
L 0 3.5 
" style="stroke: #000000; stroke-width: 0.8"/>
      </defs>
      <g>
       <use xlink:href="#m0872e7e1e0" x="56.50625" y="288.430125" style="stroke: #000000; stroke-width: 0.8"/>
      </g>
     </g>
     <g id="text_1">
      <!-- 2010 -->
      <g transform="translate(43.78125 303.028562) scale(0.1 -0.1)">
       <defs>
        <path id="DejaVuSans-32" d="M 1228 531 
L 3431 531 
L 3431 0 
L 469 0 
L 469 531 
Q 828 903 1448 1529 
Q 2069 2156 2228 2338 
Q 2531 2678 2651 2914 
Q 2772 3150 2772 3378 
Q 2772 3750 2511 3984 
Q 2250 4219 1831 4219 
Q 1534 4219 1204 4116 
Q 875 4013 500 3803 
L 500 4441 
Q 881 4594 1212 4672 
Q 1544 4750 1819 4750 
Q 2544 4750 2975 4387 
Q 3406 4025 3406 3419 
Q 3406 3131 3298 2873 
Q 3191 2616 2906 2266 
Q 2828 2175 2409 1742 
Q 1991 1309 1228 531 
z
" transform="scale(0.015625)"/>
        <path id="DejaVuSans-30" d="M 2034 4250 
Q 1547 4250 1301 3770 
Q 1056 3291 1056 2328 
Q 1056 1369 1301 889 
Q 1547 409 2034 409 
Q 2525 409 2770 889 
Q 3016 1369 3016 2328 
Q 3016 3291 2770 3770 
Q 2525 4250 2034 4250 
z
M 2034 4750 
Q 2819 4750 3233 4129 
Q 3647 3509 3647 2328 
Q 3647 1150 3233 529 
Q 2819 -91 2034 -91 
Q 1250 -91 836 529 
Q 422 1150 422 2328 
Q 422 3509 836 4129 
Q 1250 4750 2034 4750 
z
" transform="scale(0.015625)"/>
        <path id="DejaVuSans-31" d="M 794 531 
L 1825 531 
L 1825 4091 
L 703 3866 
L 703 4441 
L 1819 4666 
L 2450 4666 
L 2450 531 
L 3481 531 
L 3481 0 
L 794 0 
L 794 531 
z
" transform="scale(0.015625)"/>
       </defs>
       <use xlink:href="#DejaVuSans-32"/>
       <use xlink:href="#DejaVuSans-30" transform="translate(63.623047 0)"/>
       <use xlink:href="#DejaVuSans-31" transform="translate(127.246094 0)"/>
       <use xlink:href="#DejaVuSans-30" transform="translate(190.869141 0)"/>
      </g>
     </g>
    </g>
    <g id="xtick_2">
     <g id="line2d_2">
      <g>
       <use xlink:href="#m0872e7e1e0" x="113.64545" y="288.430125" style="stroke: #000000; stroke-width: 0.8"/>
      </g>
     </g>
     <g id="text_2">
      <!-- 2015 -->
      <g transform="translate(100.92045 303.028562) scale(0.1 -0.1)">
       <defs>
        <path id="DejaVuSans-35" d="M 691 4666 
L 3169 4666 
L 3169 4134 
L 1269 4134 
L 1269 2991 
Q 1406 3038 1543 3061 
Q 1681 3084 1819 3084 
Q 2600 3084 3056 2656 
Q 3513 2228 3513 1497 
Q 3513 744 3044 326 
Q 2575 -91 1722 -91 
Q 1428 -91 1123 -41 
Q 819 9 494 109 
L 494 744 
Q 775 591 1075 516 
Q 1375 441 1709 441 
Q 2250 441 2565 725 
Q 2881 1009 2881 1497 
Q 2881 1984 2565 2268 
Q 2250 2553 1709 2553 
Q 1456 2553 1204 2497 
Q 953 2441 691 2322 
L 691 4666 
z
" transform="scale(0.015625)"/>
       </defs>
       <use xlink:href="#DejaVuSans-32"/>
       <use xlink:href="#DejaVuSans-30" transform="translate(63.623047 0)"/>
       <use xlink:href="#DejaVuSans-31" transform="translate(127.246094 0)"/>
       <use xlink:href="#DejaVuSans-35" transform="translate(190.869141 0)"/>
      </g>
     </g>
    </g>
    <g id="xtick_3">
     <g id="line2d_3">
      <g>
       <use xlink:href="#m0872e7e1e0" x="170.78465" y="288.430125" style="stroke: #000000; stroke-width: 0.8"/>
      </g>
     </g>
     <g id="text_3">
      <!-- 2020 -->
      <g transform="translate(158.05965 303.028562) scale(0.1 -0.1)">
       <use xlink:href="#DejaVuSans-32"/>
       <use xlink:href="#DejaVuSans-30" transform="translate(63.623047 0)"/>
       <use xlink:href="#DejaVuSans-32" transform="translate(127.246094 0)"/>
       <use xlink:href="#DejaVuSans-30" transform="translate(190.869141 0)"/>
      </g>
     </g>
    </g>
    <g id="xtick_4">
     <g id="line2d_4">
      <g>
       <use xlink:href="#m0872e7e1e0" x="227.92385" y="288.430125" style="stroke: #000000; stroke-width: 0.8"/>
      </g>
     </g>
     <g id="text_4">
      <!-- 2025 -->
      <g transform="translate(215.19885 303.028562) scale(0.1 -0.1)">
       <use xlink:href="#DejaVuSans-32"/>
       <use xlink:href="#DejaVuSans-30" transform="translate(63.623047 0)"/>
       <use xlink:href="#DejaVuSans-32" transform="translate(127.246094 0)"/>
       <use xlink:href="#DejaVuSans-35" transform="translate(190.869141 0)"/>
      </g>
     </g>
    </g>
    <g id="xtick_5">
     <g id="line2d_5">
      <g>
       <use xlink:href="#m0872e7e1e0" x="285.06305" y="288.430125" style="stroke: #000000; stroke-width: 0.8"/>
      </g>
     </g>
     <g id="text_5">
      <!-- 2030 -->
      <g transform="translate(272.33805 303.028562) scale(0.1 -0.1)">
       <defs>
        <path id="DejaVuSans-33" d="M 2597 2516 
Q 3050 2419 3304 2112 
Q 3559 1806 3559 1356 
Q 3559 666 3084 287 
Q 2609 -91 1734 -91 
Q 1441 -91 1130 -33 
Q 819 25 488 141 
L 488 750 
Q 750 597 1062 519 
Q 1375 441 1716 441 
Q 2309 441 2620 675 
Q 2931 909 2931 1356 
Q 2931 1769 2642 2001 
Q 2353 2234 1838 2234 
L 1294 2234 
L 1294 2753 
L 1863 2753 
Q 2328 2753 2575 2939 
Q 2822 3125 2822 3475 
Q 2822 3834 2567 4026 
Q 2313 4219 1838 4219 
Q 1578 4219 1281 4162 
Q 984 4106 628 3988 
L 628 4550 
Q 988 4650 1302 4700 
Q 1616 4750 1894 4750 
Q 2613 4750 3031 4423 
Q 3450 4097 3450 3541 
Q 3450 3153 3228 2886 
Q 3006 2619 2597 2516 
z
" transform="scale(0.015625)"/>
       </defs>
       <use xlink:href="#DejaVuSans-32"/>
       <use xlink:href="#DejaVuSans-30" transform="translate(63.623047 0)"/>
       <use xlink:href="#DejaVuSans-33" transform="translate(127.246094 0)"/>
       <use xlink:href="#DejaVuSans-30" transform="translate(190.869141 0)"/>
      </g>
     </g>
    </g>
    <g id="xtick_6">
     <g id="line2d_6">
      <g>
       <use xlink:href="#m0872e7e1e0" x="342.20225" y="288.430125" style="stroke: #000000; stroke-width: 0.8"/>
      </g>
     </g>
     <g id="text_6">
      <!-- 2035 -->
      <g transform="translate(329.47725 303.028562) scale(0.1 -0.1)">
       <use xlink:href="#DejaVuSans-32"/>
       <use xlink:href="#DejaVuSans-30" transform="translate(63.623047 0)"/>
       <use xlink:href="#DejaVuSans-33" transform="translate(127.246094 0)"/>
       <use xlink:href="#DejaVuSans-35" transform="translate(190.869141 0)"/>
      </g>
     </g>
    </g>
    <g id="text_7">
     <!-- Year -->
     <g transform="translate(188.76675 316.706687) scale(0.1 -0.1)">
      <defs>
       <path id="DejaVuSans-59" d="M -13 4666 
L 666 4666 
L 1959 2747 
L 3244 4666 
L 3922 4666 
L 2272 2222 
L 2272 0 
L 1638 0 
L 1638 2222 
L -13 4666 
z
" transform="scale(0.015625)"/>
       <path id="DejaVuSans-65" d="M 3597 1894 
L 3597 1613 
L 953 1613 
Q 991 1019 1311 708 
Q 1631 397 2203 397 
Q 2534 397 2845 478 
Q 3156 559 3463 722 
L 3463 178 
Q 3153 47 2828 -22 
Q 2503 -91 2169 -91 
Q 1331 -91 842 396 
Q 353 884 353 1716 
Q 353 2575 817 3079 
Q 1281 3584 2069 3584 
Q 2775 3584 3186 3129 
Q 3597 2675 3597 1894 
z
M 3022 2063 
Q 3016 2534 2758 2815 
Q 2500 3097 2075 3097 
Q 1594 3097 1305 2825 
Q 1016 2553 972 2059 
L 3022 2063 
z
" transform="scale(0.015625)"/>
       <path id="DejaVuSans-61" d="M 2194 1759 
Q 1497 1759 1228 1600 
Q 959 1441 959 1056 
Q 959 750 1161 570 
Q 1363 391 1709 391 
Q 2188 391 2477 730 
Q 2766 1069 2766 1631 
L 2766 1759 
L 2194 1759 
z
M 3341 1997 
L 3341 0 
L 2766 0 
L 2766 531 
Q 2569 213 2275 61 
Q 1981 -91 1556 -91 
Q 1019 -91 701 211 
Q 384 513 384 1019 
Q 384 1609 779 1909 
Q 1175 2209 1959 2209 
L 2766 2209 
L 2766 2266 
Q 2766 2663 2505 2880 
Q 2244 3097 1772 3097 
Q 1472 3097 1187 3025 
Q 903 2953 641 2809 
L 641 3341 
Q 956 3463 1253 3523 
Q 1550 3584 1831 3584 
Q 2591 3584 2966 3190 
Q 3341 2797 3341 1997 
z
" transform="scale(0.015625)"/>
       <path id="DejaVuSans-72" d="M 2631 2963 
Q 2534 3019 2420 3045 
Q 2306 3072 2169 3072 
Q 1681 3072 1420 2755 
Q 1159 2438 1159 1844 
L 1159 0 
L 581 0 
L 581 3500 
L 1159 3500 
L 1159 2956 
Q 1341 3275 1631 3429 
Q 1922 3584 2338 3584 
Q 2397 3584 2469 3576 
Q 2541 3569 2628 3553 
L 2631 2963 
z
" transform="scale(0.015625)"/>
      </defs>
      <use xlink:href="#DejaVuSans-59"/>
      <use xlink:href="#DejaVuSans-65" transform="translate(47.833984 0)"/>
      <use xlink:href="#DejaVuSans-61" transform="translate(109.357422 0)"/>
      <use xlink:href="#DejaVuSans-72" transform="translate(170.636719 0)"/>
     </g>
    </g>
   </g>
   <g id="matplotlib.axis_2">
    <g id="ytick_1">
     <g id="line2d_7">
      <defs>
       <path id="m280d134d39" d="M 0 0 
L -3.5 0 
" style="stroke: #000000; stroke-width: 0.8"/>
      </defs>
      <g>
       <use xlink:href="#m280d134d39" x="56.50625" y="288.430125" style="stroke: #000000; stroke-width: 0.8"/>
      </g>
     </g>
     <g id="text_8">
      <!-- 0 -->
      <g transform="translate(43.14375 292.229344) scale(0.1 -0.1)">
       <use xlink:href="#DejaVuSans-30"/>
      </g>
     </g>
    </g>
    <g id="ytick_2">
     <g id="line2d_8">
      <g>
       <use xlink:href="#m280d134d39" x="56.50625" y="251.697636" style="stroke: #000000; stroke-width: 0.8"/>
      </g>
     </g>
     <g id="text_9">
      <!-- 20.0 -->
      <g transform="translate(27.240625 255.496854) scale(0.1 -0.1)">
       <defs>
        <path id="DejaVuSans-2e" d="M 684 794 
L 1344 794 
L 1344 0 
L 684 0 
L 684 794 
z
" transform="scale(0.015625)"/>
       </defs>
       <use xlink:href="#DejaVuSans-32"/>
       <use xlink:href="#DejaVuSans-30" transform="translate(63.623047 0)"/>
       <use xlink:href="#DejaVuSans-2e" transform="translate(127.246094 0)"/>
       <use xlink:href="#DejaVuSans-30" transform="translate(159.033203 0)"/>
      </g>
     </g>
    </g>
    <g id="ytick_3">
     <g id="line2d_9">
      <g>
       <use xlink:href="#m280d134d39" x="56.50625" y="214.965146" style="stroke: #000000; stroke-width: 0.8"/>
      </g>
     </g>
     <g id="text_10">
      <!-- 40.0 -->
      <g transform="translate(27.240625 218.764365) scale(0.1 -0.1)">
       <defs>
        <path id="DejaVuSans-34" d="M 2419 4116 
L 825 1625 
L 2419 1625 
L 2419 4116 
z
M 2253 4666 
L 3047 4666 
L 3047 1625 
L 3713 1625 
L 3713 1100 
L 3047 1100 
L 3047 0 
L 2419 0 
L 2419 1100 
L 313 1100 
L 313 1709 
L 2253 4666 
z
" transform="scale(0.015625)"/>
       </defs>
       <use xlink:href="#DejaVuSans-34"/>
       <use xlink:href="#DejaVuSans-30" transform="translate(63.623047 0)"/>
       <use xlink:href="#DejaVuSans-2e" transform="translate(127.246094 0)"/>
       <use xlink:href="#DejaVuSans-30" transform="translate(159.033203 0)"/>
      </g>
     </g>
    </g>
    <g id="ytick_4">
     <g id="line2d_10">
      <g>
       <use xlink:href="#m280d134d39" x="56.50625" y="178.232657" style="stroke: #000000; stroke-width: 0.8"/>
      </g>
     </g>
     <g id="text_11">
      <!-- 60.0 -->
      <g transform="translate(27.240625 182.031875) scale(0.1 -0.1)">
       <defs>
        <path id="DejaVuSans-36" d="M 2113 2584 
Q 1688 2584 1439 2293 
Q 1191 2003 1191 1497 
Q 1191 994 1439 701 
Q 1688 409 2113 409 
Q 2538 409 2786 701 
Q 3034 994 3034 1497 
Q 3034 2003 2786 2293 
Q 2538 2584 2113 2584 
z
M 3366 4563 
L 3366 3988 
Q 3128 4100 2886 4159 
Q 2644 4219 2406 4219 
Q 1781 4219 1451 3797 
Q 1122 3375 1075 2522 
Q 1259 2794 1537 2939 
Q 1816 3084 2150 3084 
Q 2853 3084 3261 2657 
Q 3669 2231 3669 1497 
Q 3669 778 3244 343 
Q 2819 -91 2113 -91 
Q 1303 -91 875 529 
Q 447 1150 447 2328 
Q 447 3434 972 4092 
Q 1497 4750 2381 4750 
Q 2619 4750 2861 4703 
Q 3103 4656 3366 4563 
z
" transform="scale(0.015625)"/>
       </defs>
       <use xlink:href="#DejaVuSans-36"/>
       <use xlink:href="#DejaVuSans-30" transform="translate(63.623047 0)"/>
       <use xlink:href="#DejaVuSans-2e" transform="translate(127.246094 0)"/>
       <use xlink:href="#DejaVuSans-30" transform="translate(159.033203 0)"/>
      </g>
     </g>
    </g>
    <g id="ytick_5">
     <g id="line2d_11">
      <g>
       <use xlink:href="#m280d134d39" x="56.50625" y="141.500167" style="stroke: #000000; stroke-width: 0.8"/>
      </g>
     </g>
     <g id="text_12">
      <!-- 80.0 -->
      <g transform="translate(27.240625 145.299386) scale(0.1 -0.1)">
       <defs>
        <path id="DejaVuSans-38" d="M 2034 2216 
Q 1584 2216 1326 1975 
Q 1069 1734 1069 1313 
Q 1069 891 1326 650 
Q 1584 409 2034 409 
Q 2484 409 2743 651 
Q 3003 894 3003 1313 
Q 3003 1734 2745 1975 
Q 2488 2216 2034 2216 
z
M 1403 2484 
Q 997 2584 770 2862 
Q 544 3141 544 3541 
Q 544 4100 942 4425 
Q 1341 4750 2034 4750 
Q 2731 4750 3128 4425 
Q 3525 4100 3525 3541 
Q 3525 3141 3298 2862 
Q 3072 2584 2669 2484 
Q 3125 2378 3379 2068 
Q 3634 1759 3634 1313 
Q 3634 634 3220 271 
Q 2806 -91 2034 -91 
Q 1263 -91 848 271 
Q 434 634 434 1313 
Q 434 1759 690 2068 
Q 947 2378 1403 2484 
z
M 1172 3481 
Q 1172 3119 1398 2916 
Q 1625 2713 2034 2713 
Q 2441 2713 2670 2916 
Q 2900 3119 2900 3481 
Q 2900 3844 2670 4047 
Q 2441 4250 2034 4250 
Q 1625 4250 1398 4047 
Q 1172 3844 1172 3481 
z
" transform="scale(0.015625)"/>
       </defs>
       <use xlink:href="#DejaVuSans-38"/>
       <use xlink:href="#DejaVuSans-30" transform="translate(63.623047 0)"/>
       <use xlink:href="#DejaVuSans-2e" transform="translate(127.246094 0)"/>
       <use xlink:href="#DejaVuSans-30" transform="translate(159.033203 0)"/>
      </g>
     </g>
    </g>
    <g id="ytick_6">
     <g id="line2d_12">
      <g>
       <use xlink:href="#m280d134d39" x="56.50625" y="104.767678" style="stroke: #000000; stroke-width: 0.8"/>
      </g>
     </g>
     <g id="text_13">
      <!-- 100.0 -->
      <g transform="translate(20.878125 108.566897) scale(0.1 -0.1)">
       <use xlink:href="#DejaVuSans-31"/>
       <use xlink:href="#DejaVuSans-30" transform="translate(63.623047 0)"/>
       <use xlink:href="#DejaVuSans-30" transform="translate(127.246094 0)"/>
       <use xlink:href="#DejaVuSans-2e" transform="translate(190.869141 0)"/>
       <use xlink:href="#DejaVuSans-30" transform="translate(222.65625 0)"/>
      </g>
     </g>
    </g>
    <g id="ytick_7">
     <g id="line2d_13">
      <g>
       <use xlink:href="#m280d134d39" x="56.50625" y="68.035188" style="stroke: #000000; stroke-width: 0.8"/>
      </g>
     </g>
     <g id="text_14">
      <!-- 120.0 -->
      <g transform="translate(20.878125 71.834407) scale(0.1 -0.1)">
       <use xlink:href="#DejaVuSans-31"/>
       <use xlink:href="#DejaVuSans-32" transform="translate(63.623047 0)"/>
       <use xlink:href="#DejaVuSans-30" transform="translate(127.246094 0)"/>
       <use xlink:href="#DejaVuSans-2e" transform="translate(190.869141 0)"/>
       <use xlink:href="#DejaVuSans-30" transform="translate(222.65625 0)"/>
      </g>
     </g>
    </g>
    <g id="ytick_8">
     <g id="line2d_14">
      <g>
       <use xlink:href="#m280d134d39" x="56.50625" y="31.302699" style="stroke: #000000; stroke-width: 0.8"/>
      </g>
     </g>
     <g id="text_15">
      <!-- 140.0 -->
      <g transform="translate(20.878125 35.101918) scale(0.1 -0.1)">
       <use xlink:href="#DejaVuSans-31"/>
       <use xlink:href="#DejaVuSans-34" transform="translate(63.623047 0)"/>
       <use xlink:href="#DejaVuSans-30" transform="translate(127.246094 0)"/>
       <use xlink:href="#DejaVuSans-2e" transform="translate(190.869141 0)"/>
       <use xlink:href="#DejaVuSans-30" transform="translate(222.65625 0)"/>
      </g>
     </g>
    </g>
    <g id="text_16">
     <!-- Number of new infections (number per year) -->
     <g transform="translate(14.798438 267.351469) rotate(-90) scale(0.1 -0.1)">
      <defs>
       <path id="DejaVuSans-4e" d="M 628 4666 
L 1478 4666 
L 3547 763 
L 3547 4666 
L 4159 4666 
L 4159 0 
L 3309 0 
L 1241 3903 
L 1241 0 
L 628 0 
L 628 4666 
z
" transform="scale(0.015625)"/>
       <path id="DejaVuSans-75" d="M 544 1381 
L 544 3500 
L 1119 3500 
L 1119 1403 
Q 1119 906 1312 657 
Q 1506 409 1894 409 
Q 2359 409 2629 706 
Q 2900 1003 2900 1516 
L 2900 3500 
L 3475 3500 
L 3475 0 
L 2900 0 
L 2900 538 
Q 2691 219 2414 64 
Q 2138 -91 1772 -91 
Q 1169 -91 856 284 
Q 544 659 544 1381 
z
M 1991 3584 
L 1991 3584 
z
" transform="scale(0.015625)"/>
       <path id="DejaVuSans-6d" d="M 3328 2828 
Q 3544 3216 3844 3400 
Q 4144 3584 4550 3584 
Q 5097 3584 5394 3201 
Q 5691 2819 5691 2113 
L 5691 0 
L 5113 0 
L 5113 2094 
Q 5113 2597 4934 2840 
Q 4756 3084 4391 3084 
Q 3944 3084 3684 2787 
Q 3425 2491 3425 1978 
L 3425 0 
L 2847 0 
L 2847 2094 
Q 2847 2600 2669 2842 
Q 2491 3084 2119 3084 
Q 1678 3084 1418 2786 
Q 1159 2488 1159 1978 
L 1159 0 
L 581 0 
L 581 3500 
L 1159 3500 
L 1159 2956 
Q 1356 3278 1631 3431 
Q 1906 3584 2284 3584 
Q 2666 3584 2933 3390 
Q 3200 3197 3328 2828 
z
" transform="scale(0.015625)"/>
       <path id="DejaVuSans-62" d="M 3116 1747 
Q 3116 2381 2855 2742 
Q 2594 3103 2138 3103 
Q 1681 3103 1420 2742 
Q 1159 2381 1159 1747 
Q 1159 1113 1420 752 
Q 1681 391 2138 391 
Q 2594 391 2855 752 
Q 3116 1113 3116 1747 
z
M 1159 2969 
Q 1341 3281 1617 3432 
Q 1894 3584 2278 3584 
Q 2916 3584 3314 3078 
Q 3713 2572 3713 1747 
Q 3713 922 3314 415 
Q 2916 -91 2278 -91 
Q 1894 -91 1617 61 
Q 1341 213 1159 525 
L 1159 0 
L 581 0 
L 581 4863 
L 1159 4863 
L 1159 2969 
z
" transform="scale(0.015625)"/>
       <path id="DejaVuSans-20" transform="scale(0.015625)"/>
       <path id="DejaVuSans-6f" d="M 1959 3097 
Q 1497 3097 1228 2736 
Q 959 2375 959 1747 
Q 959 1119 1226 758 
Q 1494 397 1959 397 
Q 2419 397 2687 759 
Q 2956 1122 2956 1747 
Q 2956 2369 2687 2733 
Q 2419 3097 1959 3097 
z
M 1959 3584 
Q 2709 3584 3137 3096 
Q 3566 2609 3566 1747 
Q 3566 888 3137 398 
Q 2709 -91 1959 -91 
Q 1206 -91 779 398 
Q 353 888 353 1747 
Q 353 2609 779 3096 
Q 1206 3584 1959 3584 
z
" transform="scale(0.015625)"/>
       <path id="DejaVuSans-66" d="M 2375 4863 
L 2375 4384 
L 1825 4384 
Q 1516 4384 1395 4259 
Q 1275 4134 1275 3809 
L 1275 3500 
L 2222 3500 
L 2222 3053 
L 1275 3053 
L 1275 0 
L 697 0 
L 697 3053 
L 147 3053 
L 147 3500 
L 697 3500 
L 697 3744 
Q 697 4328 969 4595 
Q 1241 4863 1831 4863 
L 2375 4863 
z
" transform="scale(0.015625)"/>
       <path id="DejaVuSans-6e" d="M 3513 2113 
L 3513 0 
L 2938 0 
L 2938 2094 
Q 2938 2591 2744 2837 
Q 2550 3084 2163 3084 
Q 1697 3084 1428 2787 
Q 1159 2491 1159 1978 
L 1159 0 
L 581 0 
L 581 3500 
L 1159 3500 
L 1159 2956 
Q 1366 3272 1645 3428 
Q 1925 3584 2291 3584 
Q 2894 3584 3203 3211 
Q 3513 2838 3513 2113 
z
" transform="scale(0.015625)"/>
       <path id="DejaVuSans-77" d="M 269 3500 
L 844 3500 
L 1563 769 
L 2278 3500 
L 2956 3500 
L 3675 769 
L 4391 3500 
L 4966 3500 
L 4050 0 
L 3372 0 
L 2619 2869 
L 1863 0 
L 1184 0 
L 269 3500 
z
" transform="scale(0.015625)"/>
       <path id="DejaVuSans-69" d="M 603 3500 
L 1178 3500 
L 1178 0 
L 603 0 
L 603 3500 
z
M 603 4863 
L 1178 4863 
L 1178 4134 
L 603 4134 
L 603 4863 
z
" transform="scale(0.015625)"/>
       <path id="DejaVuSans-63" d="M 3122 3366 
L 3122 2828 
Q 2878 2963 2633 3030 
Q 2388 3097 2138 3097 
Q 1578 3097 1268 2742 
Q 959 2388 959 1747 
Q 959 1106 1268 751 
Q 1578 397 2138 397 
Q 2388 397 2633 464 
Q 2878 531 3122 666 
L 3122 134 
Q 2881 22 2623 -34 
Q 2366 -91 2075 -91 
Q 1284 -91 818 406 
Q 353 903 353 1747 
Q 353 2603 823 3093 
Q 1294 3584 2113 3584 
Q 2378 3584 2631 3529 
Q 2884 3475 3122 3366 
z
" transform="scale(0.015625)"/>
       <path id="DejaVuSans-74" d="M 1172 4494 
L 1172 3500 
L 2356 3500 
L 2356 3053 
L 1172 3053 
L 1172 1153 
Q 1172 725 1289 603 
Q 1406 481 1766 481 
L 2356 481 
L 2356 0 
L 1766 0 
Q 1100 0 847 248 
Q 594 497 594 1153 
L 594 3053 
L 172 3053 
L 172 3500 
L 594 3500 
L 594 4494 
L 1172 4494 
z
" transform="scale(0.015625)"/>
       <path id="DejaVuSans-73" d="M 2834 3397 
L 2834 2853 
Q 2591 2978 2328 3040 
Q 2066 3103 1784 3103 
Q 1356 3103 1142 2972 
Q 928 2841 928 2578 
Q 928 2378 1081 2264 
Q 1234 2150 1697 2047 
L 1894 2003 
Q 2506 1872 2764 1633 
Q 3022 1394 3022 966 
Q 3022 478 2636 193 
Q 2250 -91 1575 -91 
Q 1294 -91 989 -36 
Q 684 19 347 128 
L 347 722 
Q 666 556 975 473 
Q 1284 391 1588 391 
Q 1994 391 2212 530 
Q 2431 669 2431 922 
Q 2431 1156 2273 1281 
Q 2116 1406 1581 1522 
L 1381 1569 
Q 847 1681 609 1914 
Q 372 2147 372 2553 
Q 372 3047 722 3315 
Q 1072 3584 1716 3584 
Q 2034 3584 2315 3537 
Q 2597 3491 2834 3397 
z
" transform="scale(0.015625)"/>
       <path id="DejaVuSans-28" d="M 1984 4856 
Q 1566 4138 1362 3434 
Q 1159 2731 1159 2009 
Q 1159 1288 1364 580 
Q 1569 -128 1984 -844 
L 1484 -844 
Q 1016 -109 783 600 
Q 550 1309 550 2009 
Q 550 2706 781 3412 
Q 1013 4119 1484 4856 
L 1984 4856 
z
" transform="scale(0.015625)"/>
       <path id="DejaVuSans-70" d="M 1159 525 
L 1159 -1331 
L 581 -1331 
L 581 3500 
L 1159 3500 
L 1159 2969 
Q 1341 3281 1617 3432 
Q 1894 3584 2278 3584 
Q 2916 3584 3314 3078 
Q 3713 2572 3713 1747 
Q 3713 922 3314 415 
Q 2916 -91 2278 -91 
Q 1894 -91 1617 61 
Q 1341 213 1159 525 
z
M 3116 1747 
Q 3116 2381 2855 2742 
Q 2594 3103 2138 3103 
Q 1681 3103 1420 2742 
Q 1159 2381 1159 1747 
Q 1159 1113 1420 752 
Q 1681 391 2138 391 
Q 2594 391 2855 752 
Q 3116 1113 3116 1747 
z
" transform="scale(0.015625)"/>
       <path id="DejaVuSans-79" d="M 2059 -325 
Q 1816 -950 1584 -1140 
Q 1353 -1331 966 -1331 
L 506 -1331 
L 506 -850 
L 844 -850 
Q 1081 -850 1212 -737 
Q 1344 -625 1503 -206 
L 1606 56 
L 191 3500 
L 800 3500 
L 1894 763 
L 2988 3500 
L 3597 3500 
L 2059 -325 
z
" transform="scale(0.015625)"/>
       <path id="DejaVuSans-29" d="M 513 4856 
L 1013 4856 
Q 1481 4119 1714 3412 
Q 1947 2706 1947 2009 
Q 1947 1309 1714 600 
Q 1481 -109 1013 -844 
L 513 -844 
Q 928 -128 1133 580 
Q 1338 1288 1338 2009 
Q 1338 2731 1133 3434 
Q 928 4138 513 4856 
z
" transform="scale(0.015625)"/>
      </defs>
      <use xlink:href="#DejaVuSans-4e"/>
      <use xlink:href="#DejaVuSans-75" transform="translate(74.804688 0)"/>
      <use xlink:href="#DejaVuSans-6d" transform="translate(138.183594 0)"/>
      <use xlink:href="#DejaVuSans-62" transform="translate(235.595703 0)"/>
      <use xlink:href="#DejaVuSans-65" transform="translate(299.072266 0)"/>
      <use xlink:href="#DejaVuSans-72" transform="translate(360.595703 0)"/>
      <use xlink:href="#DejaVuSans-20" transform="translate(401.708984 0)"/>
      <use xlink:href="#DejaVuSans-6f" transform="translate(433.496094 0)"/>
      <use xlink:href="#DejaVuSans-66" transform="translate(494.677734 0)"/>
      <use xlink:href="#DejaVuSans-20" transform="translate(529.882812 0)"/>
      <use xlink:href="#DejaVuSans-6e" transform="translate(561.669922 0)"/>
      <use xlink:href="#DejaVuSans-65" transform="translate(625.048828 0)"/>
      <use xlink:href="#DejaVuSans-77" transform="translate(686.572266 0)"/>
      <use xlink:href="#DejaVuSans-20" transform="translate(768.359375 0)"/>
      <use xlink:href="#DejaVuSans-69" transform="translate(800.146484 0)"/>
      <use xlink:href="#DejaVuSans-6e" transform="translate(827.929688 0)"/>
      <use xlink:href="#DejaVuSans-66" transform="translate(891.308594 0)"/>
      <use xlink:href="#DejaVuSans-65" transform="translate(926.513672 0)"/>
      <use xlink:href="#DejaVuSans-63" transform="translate(988.037109 0)"/>
      <use xlink:href="#DejaVuSans-74" transform="translate(1043.017578 0)"/>
      <use xlink:href="#DejaVuSans-69" transform="translate(1082.226562 0)"/>
      <use xlink:href="#DejaVuSans-6f" transform="translate(1110.009766 0)"/>
      <use xlink:href="#DejaVuSans-6e" transform="translate(1171.191406 0)"/>
      <use xlink:href="#DejaVuSans-73" transform="translate(1234.570312 0)"/>
      <use xlink:href="#DejaVuSans-20" transform="translate(1286.669922 0)"/>
      <use xlink:href="#DejaVuSans-28" transform="translate(1318.457031 0)"/>
      <use xlink:href="#DejaVuSans-6e" transform="translate(1357.470703 0)"/>
      <use xlink:href="#DejaVuSans-75" transform="translate(1420.849609 0)"/>
      <use xlink:href="#DejaVuSans-6d" transform="translate(1484.228516 0)"/>
      <use xlink:href="#DejaVuSans-62" transform="translate(1581.640625 0)"/>
      <use xlink:href="#DejaVuSans-65" transform="translate(1645.117188 0)"/>
      <use xlink:href="#DejaVuSans-72" transform="translate(1706.640625 0)"/>
      <use xlink:href="#DejaVuSans-20" transform="translate(1747.753906 0)"/>
      <use xlink:href="#DejaVuSans-70" transform="translate(1779.541016 0)"/>
      <use xlink:href="#DejaVuSans-65" transform="translate(1843.017578 0)"/>
      <use xlink:href="#DejaVuSans-72" transform="translate(1904.541016 0)"/>
      <use xlink:href="#DejaVuSans-20" transform="translate(1945.654297 0)"/>
      <use xlink:href="#DejaVuSans-79" transform="translate(1977.441406 0)"/>
      <use xlink:href="#DejaVuSans-65" transform="translate(2036.621094 0)"/>
      <use xlink:href="#DejaVuSans-61" transform="translate(2098.144531 0)"/>
      <use xlink:href="#DejaVuSans-72" transform="translate(2159.423828 0)"/>
      <use xlink:href="#DejaVuSans-29" transform="translate(2200.537109 0)"/>
     </g>
    </g>
   </g>
   <g id="line2d_15">
    <path d="M 56.50625 165.988494 
L 59.36321 185.545143 
L 62.22017 202.191276 
L 65.07713 216.339426 
L 67.93409 228.341382 
L 70.79105 238.499105 
L 73.64801 247.073136 
L 76.50497 254.289098 
L 79.36193 260.342808 
L 82.21889 265.404359 
L 85.07585 269.548735 
L 87.93281 272.943803 
L 90.78977 275.726118 
L 93.64673 278.006975 
L 96.50369 279.877214 
L 99.36065 281.411066 
L 102.21761 282.669246 
L 105.07457 283.701444 
L 107.93153 284.548352 
L 110.78849 285.243306 
L 113.64545 285.813626 
L 116.50241 286.281707 
L 119.35937 286.66591 
L 122.21633 286.981292 
L 125.07329 287.2402 
L 127.93025 287.452765 
L 130.78721 287.627295 
L 133.64417 287.770608 
L 136.50113 287.888295 
L 139.35809 287.984947 
L 142.21505 288.06433 
L 145.07201 288.129534 
L 147.92897 288.183097 
L 150.78593 288.227099 
L 153.64289 288.263251 
L 156.49985 288.292955 
L 159.35681 288.317363 
L 162.21377 288.337421 
L 165.07073 288.353905 
L 167.92769 288.367454 
L 170.78465 288.378591 
L 173.64161 288.387745 
L 176.49857 288.395271 
L 179.35553 288.401459 
L 182.21249 288.406546 
L 185.06945 288.410729 
L 187.92641 288.41417 
L 190.78337 288.416999 
L 193.64033 288.419325 
L 196.49729 288.421239 
L 199.35425 288.422813 
L 202.21121 288.424108 
L 205.06817 288.425174 
L 207.92513 288.42605 
L 210.78209 288.426771 
L 213.63905 288.427364 
L 216.49601 288.427853 
L 219.35297 288.428255 
L 222.20993 288.428585 
L 225.06689 288.428857 
L 227.92385 288.429081 
L 230.78081 288.429266 
L 233.63777 288.429417 
L 236.49473 288.429542 
L 239.35169 288.429645 
L 242.20865 288.42973 
L 245.06561 288.4298 
L 247.92257 288.429857 
L 250.77953 288.429904 
L 253.63649 288.429943 
L 256.49345 288.429975 
L 259.35041 288.430002 
L 262.20737 288.430023 
L 265.06433 288.430041 
L 267.92129 288.430056 
L 270.77825 288.430068 
L 273.63521 288.430078 
L 276.49217 288.430086 
L 279.34913 288.430093 
L 282.20609 288.430099 
L 285.06305 288.430103 
L 287.92001 288.430107 
L 290.77697 288.43011 
L 293.63393 288.430113 
L 296.49089 288.430115 
L 299.34785 288.430117 
L 302.20481 288.430118 
L 305.06177 288.430119 
L 307.91873 288.43012 
L 310.77569 288.430121 
L 313.63265 288.430122 
L 316.48961 288.430122 
L 319.34657 288.430123 
L 322.20353 288.430123 
L 325.06049 288.430124 
L 327.91745 288.430124 
L 330.77441 288.430124 
L 333.63137 288.430124 
L 336.48833 288.430124 
L 339.34529 288.430124 
L 342.20225 288.430125 
" clip-path="url(#pabebc12fac)" style="fill: none; stroke: #377eb8; stroke-width: 3; stroke-linecap: square"/>
   </g>
   <g id="line2d_16">
    <path d="M 56.50625 104.78403 
L 59.36321 102.314449 
L 62.22017 99.950632 
L 65.07713 97.695639 
L 67.93409 95.552194 
L 70.79105 93.522687 
L 73.64801 91.609168 
L 76.50497 89.813358 
L 79.36193 88.13665 
L 82.21889 86.580117 
L 85.07585 85.054198 
L 87.93281 83.55939 
L 90.78977 82.096126 
L 93.64673 80.664775 
L 96.50369 79.265649 
L 99.36065 77.899008 
L 102.21761 76.565056 
L 105.07457 75.263951 
L 107.93153 73.995804 
L 110.78849 72.760681 
L 113.64545 71.558609 
L 116.50241 70.389573 
L 119.35937 69.253521 
L 122.21633 68.150365 
L 125.07329 67.079984 
L 127.93025 66.042226 
L 130.78721 65.036905 
L 133.64417 64.063811 
L 136.50113 63.122704 
L 139.35809 62.21332 
L 142.21505 61.335371 
L 145.07201 60.488545 
L 147.92897 59.672511 
L 150.78593 58.886919 
L 153.64289 58.131398 
L 156.49985 57.405562 
L 159.35681 56.70901 
L 162.21377 56.041326 
L 165.07073 55.40208 
L 167.92769 54.790831 
L 170.78465 54.207128 
L 173.64161 53.650508 
L 176.49857 53.120503 
L 179.35553 52.616633 
L 182.21249 52.138414 
L 185.06945 51.685356 
L 187.92641 51.256964 
L 190.78337 50.852739 
L 193.64033 50.472179 
L 196.49729 50.11478 
L 199.35425 49.780035 
L 202.21121 49.467438 
L 205.06817 49.176481 
L 207.92513 48.906659 
L 210.78209 48.657466 
L 213.63905 48.428397 
L 216.49601 48.218953 
L 219.35297 48.028633 
L 222.20993 47.856942 
L 225.06689 47.703388 
L 227.92385 47.567483 
L 230.78081 47.448745 
L 233.63777 47.346693 
L 236.49473 47.260856 
L 239.35169 47.190763 
L 242.20865 47.135955 
L 245.06561 47.095973 
L 247.92257 47.070368 
L 250.77953 47.058696 
L 253.63649 47.060521 
L 256.49345 47.075411 
L 259.35041 47.102944 
L 262.20737 47.142704 
L 265.06433 47.19428 
L 267.92129 47.257272 
L 270.77825 47.331284 
L 273.63521 47.41593 
L 276.49217 47.51083 
L 279.34913 47.615612 
L 282.20609 47.729911 
L 285.06305 47.85337 
L 287.92001 47.985639 
L 290.77697 48.126376 
L 293.63393 48.275246 
L 296.49089 48.431923 
L 299.34785 48.596085 
L 302.20481 48.767422 
L 305.06177 48.945626 
L 307.91873 49.130401 
L 310.77569 49.321455 
L 313.63265 49.518505 
L 316.48961 49.721274 
L 319.34657 49.929492 
L 322.20353 50.142896 
L 325.06049 50.36123 
L 327.91745 50.584244 
L 330.77441 50.811695 
L 333.63137 51.043347 
L 336.48833 51.278969 
L 339.34529 51.518336 
L 342.20225 51.761232 
" clip-path="url(#pabebc12fac)" style="fill: none; stroke: #e41a1c; stroke-width: 3; stroke-linecap: square"/>
   </g>
   <g id="patch_3">
    <path d="M 56.50625 288.430125 
L 56.50625 22.318125 
" style="fill: none; stroke: #000000; stroke-width: 0.8; stroke-linejoin: miter; stroke-linecap: square"/>
   </g>
   <g id="patch_4">
    <path d="M 342.20225 288.430125 
L 342.20225 22.318125 
" style="fill: none"/>
   </g>
   <g id="patch_5">
    <path d="M 56.50625 288.430125 
L 342.20225 288.430125 
" style="fill: none; stroke: #000000; stroke-width: 0.8; stroke-linejoin: miter; stroke-linecap: square"/>
   </g>
   <g id="patch_6">
    <path d="M 56.50625 22.318125 
L 342.20225 22.318125 
" style="fill: none"/>
   </g>
   <g id="text_17">
    <!-- Adults -->
    <g transform="translate(180.598625 16.318125) scale(0.12 -0.12)">
     <defs>
      <path id="DejaVuSans-41" d="M 2188 4044 
L 1331 1722 
L 3047 1722 
L 2188 4044 
z
M 1831 4666 
L 2547 4666 
L 4325 0 
L 3669 0 
L 3244 1197 
L 1141 1197 
L 716 0 
L 50 0 
L 1831 4666 
z
" transform="scale(0.015625)"/>
      <path id="DejaVuSans-64" d="M 2906 2969 
L 2906 4863 
L 3481 4863 
L 3481 0 
L 2906 0 
L 2906 525 
Q 2725 213 2448 61 
Q 2172 -91 1784 -91 
Q 1150 -91 751 415 
Q 353 922 353 1747 
Q 353 2572 751 3078 
Q 1150 3584 1784 3584 
Q 2172 3584 2448 3432 
Q 2725 3281 2906 2969 
z
M 947 1747 
Q 947 1113 1208 752 
Q 1469 391 1925 391 
Q 2381 391 2643 752 
Q 2906 1113 2906 1747 
Q 2906 2381 2643 2742 
Q 2381 3103 1925 3103 
Q 1469 3103 1208 2742 
Q 947 2381 947 1747 
z
" transform="scale(0.015625)"/>
      <path id="DejaVuSans-6c" d="M 603 4863 
L 1178 4863 
L 1178 0 
L 603 0 
L 603 4863 
z
" transform="scale(0.015625)"/>
     </defs>
     <use xlink:href="#DejaVuSans-41"/>
     <use xlink:href="#DejaVuSans-64" transform="translate(66.658203 0)"/>
     <use xlink:href="#DejaVuSans-75" transform="translate(130.134766 0)"/>
     <use xlink:href="#DejaVuSans-6c" transform="translate(193.513672 0)"/>
     <use xlink:href="#DejaVuSans-74" transform="translate(221.296875 0)"/>
     <use xlink:href="#DejaVuSans-73" transform="translate(260.505859 0)"/>
    </g>
   </g>
   <g id="legend_1">
    <g id="patch_7">
     <path d="M 363.48705 171.691312 
L 523.076113 171.691312 
Q 525.076113 171.691312 525.076113 169.691312 
L 525.076113 141.056938 
Q 525.076113 139.056938 523.076113 139.056938 
L 363.48705 139.056938 
Q 361.48705 139.056938 361.48705 141.056938 
L 361.48705 169.691312 
Q 361.48705 171.691312 363.48705 171.691312 
L 363.48705 171.691312 
z
" style="fill: none; opacity: 0"/>
    </g>
    <g id="line2d_17">
     <path d="M 365.48705 147.155375 
L 375.48705 147.155375 
L 385.48705 147.155375 
" style="fill: none; stroke: #377eb8; stroke-width: 3; stroke-linecap: square"/>
    </g>
    <g id="text_18">
     <!-- parset_default -->
     <g transform="translate(393.48705 150.655375) scale(0.1 -0.1)">
      <defs>
       <path id="DejaVuSans-5f" d="M 3263 -1063 
L 3263 -1509 
L -63 -1509 
L -63 -1063 
L 3263 -1063 
z
" transform="scale(0.015625)"/>
      </defs>
      <use xlink:href="#DejaVuSans-70"/>
      <use xlink:href="#DejaVuSans-61" transform="translate(63.476562 0)"/>
      <use xlink:href="#DejaVuSans-72" transform="translate(124.755859 0)"/>
      <use xlink:href="#DejaVuSans-73" transform="translate(165.869141 0)"/>
      <use xlink:href="#DejaVuSans-65" transform="translate(217.96875 0)"/>
      <use xlink:href="#DejaVuSans-74" transform="translate(279.492188 0)"/>
      <use xlink:href="#DejaVuSans-5f" transform="translate(318.701172 0)"/>
      <use xlink:href="#DejaVuSans-64" transform="translate(368.701172 0)"/>
      <use xlink:href="#DejaVuSans-65" transform="translate(432.177734 0)"/>
      <use xlink:href="#DejaVuSans-66" transform="translate(493.701172 0)"/>
      <use xlink:href="#DejaVuSans-61" transform="translate(528.90625 0)"/>
      <use xlink:href="#DejaVuSans-75" transform="translate(590.185547 0)"/>
      <use xlink:href="#DejaVuSans-6c" transform="translate(653.564453 0)"/>
      <use xlink:href="#DejaVuSans-74" transform="translate(681.347656 0)"/>
     </g>
    </g>
    <g id="line2d_18">
     <path d="M 365.48705 162.111625 
L 375.48705 162.111625 
L 385.48705 162.111625 
" style="fill: none; stroke: #e41a1c; stroke-width: 3; stroke-linecap: square"/>
    </g>
    <g id="text_19">
     <!-- Auto calibration repeated -->
     <g transform="translate(393.48705 165.611625) scale(0.1 -0.1)">
      <use xlink:href="#DejaVuSans-41"/>
      <use xlink:href="#DejaVuSans-75" transform="translate(68.408203 0)"/>
      <use xlink:href="#DejaVuSans-74" transform="translate(131.787109 0)"/>
      <use xlink:href="#DejaVuSans-6f" transform="translate(170.996094 0)"/>
      <use xlink:href="#DejaVuSans-20" transform="translate(232.177734 0)"/>
      <use xlink:href="#DejaVuSans-63" transform="translate(263.964844 0)"/>
      <use xlink:href="#DejaVuSans-61" transform="translate(318.945312 0)"/>
      <use xlink:href="#DejaVuSans-6c" transform="translate(380.224609 0)"/>
      <use xlink:href="#DejaVuSans-69" transform="translate(408.007812 0)"/>
      <use xlink:href="#DejaVuSans-62" transform="translate(435.791016 0)"/>
      <use xlink:href="#DejaVuSans-72" transform="translate(499.267578 0)"/>
      <use xlink:href="#DejaVuSans-61" transform="translate(540.380859 0)"/>
      <use xlink:href="#DejaVuSans-74" transform="translate(601.660156 0)"/>
      <use xlink:href="#DejaVuSans-69" transform="translate(640.869141 0)"/>
      <use xlink:href="#DejaVuSans-6f" transform="translate(668.652344 0)"/>
      <use xlink:href="#DejaVuSans-6e" transform="translate(729.833984 0)"/>
      <use xlink:href="#DejaVuSans-20" transform="translate(793.212891 0)"/>
      <use xlink:href="#DejaVuSans-72" transform="translate(825 0)"/>
      <use xlink:href="#DejaVuSans-65" transform="translate(863.863281 0)"/>
      <use xlink:href="#DejaVuSans-70" transform="translate(925.386719 0)"/>
      <use xlink:href="#DejaVuSans-65" transform="translate(988.863281 0)"/>
      <use xlink:href="#DejaVuSans-61" transform="translate(1050.386719 0)"/>
      <use xlink:href="#DejaVuSans-74" transform="translate(1111.666016 0)"/>
      <use xlink:href="#DejaVuSans-65" transform="translate(1150.875 0)"/>
      <use xlink:href="#DejaVuSans-64" transform="translate(1212.398438 0)"/>
     </g>
    </g>
   </g>
  </g>
 </g>
 <defs>
  <clipPath id="pabebc12fac">
   <rect x="56.50625" y="22.318125" width="285.696" height="266.112"/>
  </clipPath>
 </defs>
</svg>
