<?xml version="1.0" encoding="utf-8" standalone="no"?>
<!DOCTYPE svg PUBLIC "-//W3C//DTD SVG 1.1//EN"
  "http://www.w3.org/Graphics/SVG/1.1/DTD/svg11.dtd">
<!-- Created with matplotlib (https://matplotlib.org/) -->
<svg height="297.190125pt" version="1.1" viewBox="0 0 403.97 297.190125" width="403.97pt" xmlns="http://www.w3.org/2000/svg" xmlns:xlink="http://www.w3.org/1999/xlink">
 <metadata>
  <rdf:RDF xmlns:cc="http://creativecommons.org/ns#" xmlns:dc="http://purl.org/dc/elements/1.1/" xmlns:rdf="http://www.w3.org/1999/02/22-rdf-syntax-ns#">
   <cc:Work>
    <dc:type rdf:resource="http://purl.org/dc/dcmitype/StillImage"/>
    <dc:date>2021-03-14T00:05:02.787020</dc:date>
    <dc:format>image/svg+xml</dc:format>
    <dc:creator>
     <cc:Agent>
      <dc:title>Matplotlib v3.3.4, https://matplotlib.org/</dc:title>
     </cc:Agent>
    </dc:creator>
   </cc:Work>
  </rdf:RDF>
 </metadata>
 <defs>
  <style type="text/css">*{stroke-linecap:butt;stroke-linejoin:round;}</style>
 </defs>
 <g id="figure_1">
  <g id="patch_1">
   <path d="M 0 297.190125 
L 403.97 297.190125 
L 403.97 0 
L 0 0 
z
" style="fill:#ffffff;"/>
  </g>
  <g id="axes_1">
   <g id="patch_2">
    <path d="M 39.65 273.312 
L 396.77 273.312 
L 396.77 7.2 
L 39.65 7.2 
z
" style="fill:#ffffff;"/>
   </g>
   <g id="matplotlib.axis_1">
    <g id="xtick_1">
     <g id="line2d_1">
      <defs>
       <path d="M 0 0 
L 0 3.5 
" id="mdf91edca73" style="stroke:#000000;stroke-width:0.8;"/>
      </defs>
      <g>
       <use style="stroke:#000000;stroke-width:0.8;" x="55.882727" xlink:href="#mdf91edca73" y="273.312"/>
      </g>
     </g>
     <g id="text_1">
      <!-- 0.0 -->
      <g transform="translate(47.931165 287.910437)scale(0.1 -0.1)">
       <defs>
        <path d="M 31.78125 66.40625 
Q 24.171875 66.40625 20.328125 58.90625 
Q 16.5 51.421875 16.5 36.375 
Q 16.5 21.390625 20.328125 13.890625 
Q 24.171875 6.390625 31.78125 6.390625 
Q 39.453125 6.390625 43.28125 13.890625 
Q 47.125 21.390625 47.125 36.375 
Q 47.125 51.421875 43.28125 58.90625 
Q 39.453125 66.40625 31.78125 66.40625 
z
M 31.78125 74.21875 
Q 44.046875 74.21875 50.515625 64.515625 
Q 56.984375 54.828125 56.984375 36.375 
Q 56.984375 17.96875 50.515625 8.265625 
Q 44.046875 -1.421875 31.78125 -1.421875 
Q 19.53125 -1.421875 13.0625 8.265625 
Q 6.59375 17.96875 6.59375 36.375 
Q 6.59375 54.828125 13.0625 64.515625 
Q 19.53125 74.21875 31.78125 74.21875 
z
" id="DejaVuSans-48"/>
        <path d="M 10.6875 12.40625 
L 21 12.40625 
L 21 0 
L 10.6875 0 
z
" id="DejaVuSans-46"/>
       </defs>
       <use xlink:href="#DejaVuSans-48"/>
       <use x="63.623047" xlink:href="#DejaVuSans-46"/>
       <use x="95.410156" xlink:href="#DejaVuSans-48"/>
      </g>
     </g>
    </g>
    <g id="xtick_2">
     <g id="line2d_2">
      <g>
       <use style="stroke:#000000;stroke-width:0.8;" x="96.668474" xlink:href="#mdf91edca73" y="273.312"/>
      </g>
     </g>
     <g id="text_2">
      <!-- 2.5 -->
      <g transform="translate(88.716912 287.910437)scale(0.1 -0.1)">
       <defs>
        <path d="M 19.1875 8.296875 
L 53.609375 8.296875 
L 53.609375 0 
L 7.328125 0 
L 7.328125 8.296875 
Q 12.9375 14.109375 22.625 23.890625 
Q 32.328125 33.6875 34.8125 36.53125 
Q 39.546875 41.84375 41.421875 45.53125 
Q 43.3125 49.21875 43.3125 52.78125 
Q 43.3125 58.59375 39.234375 62.25 
Q 35.15625 65.921875 28.609375 65.921875 
Q 23.96875 65.921875 18.8125 64.3125 
Q 13.671875 62.703125 7.8125 59.421875 
L 7.8125 69.390625 
Q 13.765625 71.78125 18.9375 73 
Q 24.125 74.21875 28.421875 74.21875 
Q 39.75 74.21875 46.484375 68.546875 
Q 53.21875 62.890625 53.21875 53.421875 
Q 53.21875 48.921875 51.53125 44.890625 
Q 49.859375 40.875 45.40625 35.40625 
Q 44.1875 33.984375 37.640625 27.21875 
Q 31.109375 20.453125 19.1875 8.296875 
z
" id="DejaVuSans-50"/>
        <path d="M 10.796875 72.90625 
L 49.515625 72.90625 
L 49.515625 64.59375 
L 19.828125 64.59375 
L 19.828125 46.734375 
Q 21.96875 47.46875 24.109375 47.828125 
Q 26.265625 48.1875 28.421875 48.1875 
Q 40.625 48.1875 47.75 41.5 
Q 54.890625 34.8125 54.890625 23.390625 
Q 54.890625 11.625 47.5625 5.09375 
Q 40.234375 -1.421875 26.90625 -1.421875 
Q 22.3125 -1.421875 17.546875 -0.640625 
Q 12.796875 0.140625 7.71875 1.703125 
L 7.71875 11.625 
Q 12.109375 9.234375 16.796875 8.0625 
Q 21.484375 6.890625 26.703125 6.890625 
Q 35.15625 6.890625 40.078125 11.328125 
Q 45.015625 15.765625 45.015625 23.390625 
Q 45.015625 31 40.078125 35.4375 
Q 35.15625 39.890625 26.703125 39.890625 
Q 22.75 39.890625 18.8125 39.015625 
Q 14.890625 38.140625 10.796875 36.28125 
z
" id="DejaVuSans-53"/>
       </defs>
       <use xlink:href="#DejaVuSans-50"/>
       <use x="63.623047" xlink:href="#DejaVuSans-46"/>
       <use x="95.410156" xlink:href="#DejaVuSans-53"/>
      </g>
     </g>
    </g>
    <g id="xtick_3">
     <g id="line2d_3">
      <g>
       <use style="stroke:#000000;stroke-width:0.8;" x="137.454221" xlink:href="#mdf91edca73" y="273.312"/>
      </g>
     </g>
     <g id="text_3">
      <!-- 5.0 -->
      <g transform="translate(129.502659 287.910437)scale(0.1 -0.1)">
       <use xlink:href="#DejaVuSans-53"/>
       <use x="63.623047" xlink:href="#DejaVuSans-46"/>
       <use x="95.410156" xlink:href="#DejaVuSans-48"/>
      </g>
     </g>
    </g>
    <g id="xtick_4">
     <g id="line2d_4">
      <g>
       <use style="stroke:#000000;stroke-width:0.8;" x="178.239968" xlink:href="#mdf91edca73" y="273.312"/>
      </g>
     </g>
     <g id="text_4">
      <!-- 7.5 -->
      <g transform="translate(170.288406 287.910437)scale(0.1 -0.1)">
       <defs>
        <path d="M 8.203125 72.90625 
L 55.078125 72.90625 
L 55.078125 68.703125 
L 28.609375 0 
L 18.3125 0 
L 43.21875 64.59375 
L 8.203125 64.59375 
z
" id="DejaVuSans-55"/>
       </defs>
       <use xlink:href="#DejaVuSans-55"/>
       <use x="63.623047" xlink:href="#DejaVuSans-46"/>
       <use x="95.410156" xlink:href="#DejaVuSans-53"/>
      </g>
     </g>
    </g>
    <g id="xtick_5">
     <g id="line2d_5">
      <g>
       <use style="stroke:#000000;stroke-width:0.8;" x="219.025715" xlink:href="#mdf91edca73" y="273.312"/>
      </g>
     </g>
     <g id="text_5">
      <!-- 10.0 -->
      <g transform="translate(207.892902 287.910437)scale(0.1 -0.1)">
       <defs>
        <path d="M 12.40625 8.296875 
L 28.515625 8.296875 
L 28.515625 63.921875 
L 10.984375 60.40625 
L 10.984375 69.390625 
L 28.421875 72.90625 
L 38.28125 72.90625 
L 38.28125 8.296875 
L 54.390625 8.296875 
L 54.390625 0 
L 12.40625 0 
z
" id="DejaVuSans-49"/>
       </defs>
       <use xlink:href="#DejaVuSans-49"/>
       <use x="63.623047" xlink:href="#DejaVuSans-48"/>
       <use x="127.246094" xlink:href="#DejaVuSans-46"/>
       <use x="159.033203" xlink:href="#DejaVuSans-48"/>
      </g>
     </g>
    </g>
    <g id="xtick_6">
     <g id="line2d_6">
      <g>
       <use style="stroke:#000000;stroke-width:0.8;" x="259.811462" xlink:href="#mdf91edca73" y="273.312"/>
      </g>
     </g>
     <g id="text_6">
      <!-- 12.5 -->
      <g transform="translate(248.678649 287.910437)scale(0.1 -0.1)">
       <use xlink:href="#DejaVuSans-49"/>
       <use x="63.623047" xlink:href="#DejaVuSans-50"/>
       <use x="127.246094" xlink:href="#DejaVuSans-46"/>
       <use x="159.033203" xlink:href="#DejaVuSans-53"/>
      </g>
     </g>
    </g>
    <g id="xtick_7">
     <g id="line2d_7">
      <g>
       <use style="stroke:#000000;stroke-width:0.8;" x="300.597209" xlink:href="#mdf91edca73" y="273.312"/>
      </g>
     </g>
     <g id="text_7">
      <!-- 15.0 -->
      <g transform="translate(289.464396 287.910437)scale(0.1 -0.1)">
       <use xlink:href="#DejaVuSans-49"/>
       <use x="63.623047" xlink:href="#DejaVuSans-53"/>
       <use x="127.246094" xlink:href="#DejaVuSans-46"/>
       <use x="159.033203" xlink:href="#DejaVuSans-48"/>
      </g>
     </g>
    </g>
    <g id="xtick_8">
     <g id="line2d_8">
      <g>
       <use style="stroke:#000000;stroke-width:0.8;" x="341.382956" xlink:href="#mdf91edca73" y="273.312"/>
      </g>
     </g>
     <g id="text_8">
      <!-- 17.5 -->
      <g transform="translate(330.250143 287.910437)scale(0.1 -0.1)">
       <use xlink:href="#DejaVuSans-49"/>
       <use x="63.623047" xlink:href="#DejaVuSans-55"/>
       <use x="127.246094" xlink:href="#DejaVuSans-46"/>
       <use x="159.033203" xlink:href="#DejaVuSans-53"/>
      </g>
     </g>
    </g>
    <g id="xtick_9">
     <g id="line2d_9">
      <g>
       <use style="stroke:#000000;stroke-width:0.8;" x="382.168703" xlink:href="#mdf91edca73" y="273.312"/>
      </g>
     </g>
     <g id="text_9">
      <!-- 20.0 -->
      <g transform="translate(371.03589 287.910437)scale(0.1 -0.1)">
       <use xlink:href="#DejaVuSans-50"/>
       <use x="63.623047" xlink:href="#DejaVuSans-48"/>
       <use x="127.246094" xlink:href="#DejaVuSans-46"/>
       <use x="159.033203" xlink:href="#DejaVuSans-48"/>
      </g>
     </g>
    </g>
   </g>
   <g id="matplotlib.axis_2">
    <g id="ytick_1">
     <g id="line2d_10">
      <defs>
       <path d="M 0 0 
L -3.5 0 
" id="m936b2b8dc5" style="stroke:#000000;stroke-width:0.8;"/>
      </defs>
      <g>
       <use style="stroke:#000000;stroke-width:0.8;" x="39.65" xlink:href="#m936b2b8dc5" y="261.216"/>
      </g>
     </g>
     <g id="text_10">
      <!-- 0 -->
      <g transform="translate(26.2875 265.015219)scale(0.1 -0.1)">
       <use xlink:href="#DejaVuSans-48"/>
      </g>
     </g>
    </g>
    <g id="ytick_2">
     <g id="line2d_11">
      <g>
       <use style="stroke:#000000;stroke-width:0.8;" x="39.65" xlink:href="#m936b2b8dc5" y="226.862876"/>
      </g>
     </g>
     <g id="text_11">
      <!-- 500 -->
      <g transform="translate(13.5625 230.662095)scale(0.1 -0.1)">
       <use xlink:href="#DejaVuSans-53"/>
       <use x="63.623047" xlink:href="#DejaVuSans-48"/>
       <use x="127.246094" xlink:href="#DejaVuSans-48"/>
      </g>
     </g>
    </g>
    <g id="ytick_3">
     <g id="line2d_12">
      <g>
       <use style="stroke:#000000;stroke-width:0.8;" x="39.65" xlink:href="#m936b2b8dc5" y="192.509752"/>
      </g>
     </g>
     <g id="text_12">
      <!-- 1000 -->
      <g transform="translate(7.2 196.308971)scale(0.1 -0.1)">
       <use xlink:href="#DejaVuSans-49"/>
       <use x="63.623047" xlink:href="#DejaVuSans-48"/>
       <use x="127.246094" xlink:href="#DejaVuSans-48"/>
       <use x="190.869141" xlink:href="#DejaVuSans-48"/>
      </g>
     </g>
    </g>
    <g id="ytick_4">
     <g id="line2d_13">
      <g>
       <use style="stroke:#000000;stroke-width:0.8;" x="39.65" xlink:href="#m936b2b8dc5" y="158.156628"/>
      </g>
     </g>
     <g id="text_13">
      <!-- 1500 -->
      <g transform="translate(7.2 161.955847)scale(0.1 -0.1)">
       <use xlink:href="#DejaVuSans-49"/>
       <use x="63.623047" xlink:href="#DejaVuSans-53"/>
       <use x="127.246094" xlink:href="#DejaVuSans-48"/>
       <use x="190.869141" xlink:href="#DejaVuSans-48"/>
      </g>
     </g>
    </g>
    <g id="ytick_5">
     <g id="line2d_14">
      <g>
       <use style="stroke:#000000;stroke-width:0.8;" x="39.65" xlink:href="#m936b2b8dc5" y="123.803504"/>
      </g>
     </g>
     <g id="text_14">
      <!-- 2000 -->
      <g transform="translate(7.2 127.602722)scale(0.1 -0.1)">
       <use xlink:href="#DejaVuSans-50"/>
       <use x="63.623047" xlink:href="#DejaVuSans-48"/>
       <use x="127.246094" xlink:href="#DejaVuSans-48"/>
       <use x="190.869141" xlink:href="#DejaVuSans-48"/>
      </g>
     </g>
    </g>
    <g id="ytick_6">
     <g id="line2d_15">
      <g>
       <use style="stroke:#000000;stroke-width:0.8;" x="39.65" xlink:href="#m936b2b8dc5" y="89.45038"/>
      </g>
     </g>
     <g id="text_15">
      <!-- 2500 -->
      <g transform="translate(7.2 93.249598)scale(0.1 -0.1)">
       <use xlink:href="#DejaVuSans-50"/>
       <use x="63.623047" xlink:href="#DejaVuSans-53"/>
       <use x="127.246094" xlink:href="#DejaVuSans-48"/>
       <use x="190.869141" xlink:href="#DejaVuSans-48"/>
      </g>
     </g>
    </g>
    <g id="ytick_7">
     <g id="line2d_16">
      <g>
       <use style="stroke:#000000;stroke-width:0.8;" x="39.65" xlink:href="#m936b2b8dc5" y="55.097256"/>
      </g>
     </g>
     <g id="text_16">
      <!-- 3000 -->
      <g transform="translate(7.2 58.896474)scale(0.1 -0.1)">
       <defs>
        <path d="M 40.578125 39.3125 
Q 47.65625 37.796875 51.625 33 
Q 55.609375 28.21875 55.609375 21.1875 
Q 55.609375 10.40625 48.1875 4.484375 
Q 40.765625 -1.421875 27.09375 -1.421875 
Q 22.515625 -1.421875 17.65625 -0.515625 
Q 12.796875 0.390625 7.625 2.203125 
L 7.625 11.71875 
Q 11.71875 9.328125 16.59375 8.109375 
Q 21.484375 6.890625 26.8125 6.890625 
Q 36.078125 6.890625 40.9375 10.546875 
Q 45.796875 14.203125 45.796875 21.1875 
Q 45.796875 27.640625 41.28125 31.265625 
Q 36.765625 34.90625 28.71875 34.90625 
L 20.21875 34.90625 
L 20.21875 43.015625 
L 29.109375 43.015625 
Q 36.375 43.015625 40.234375 45.921875 
Q 44.09375 48.828125 44.09375 54.296875 
Q 44.09375 59.90625 40.109375 62.90625 
Q 36.140625 65.921875 28.71875 65.921875 
Q 24.65625 65.921875 20.015625 65.03125 
Q 15.375 64.15625 9.8125 62.3125 
L 9.8125 71.09375 
Q 15.4375 72.65625 20.34375 73.4375 
Q 25.25 74.21875 29.59375 74.21875 
Q 40.828125 74.21875 47.359375 69.109375 
Q 53.90625 64.015625 53.90625 55.328125 
Q 53.90625 49.265625 50.4375 45.09375 
Q 46.96875 40.921875 40.578125 39.3125 
z
" id="DejaVuSans-51"/>
       </defs>
       <use xlink:href="#DejaVuSans-51"/>
       <use x="63.623047" xlink:href="#DejaVuSans-48"/>
       <use x="127.246094" xlink:href="#DejaVuSans-48"/>
       <use x="190.869141" xlink:href="#DejaVuSans-48"/>
      </g>
     </g>
    </g>
    <g id="ytick_8">
     <g id="line2d_17">
      <g>
       <use style="stroke:#000000;stroke-width:0.8;" x="39.65" xlink:href="#m936b2b8dc5" y="20.744132"/>
      </g>
     </g>
     <g id="text_17">
      <!-- 3500 -->
      <g transform="translate(7.2 24.54335)scale(0.1 -0.1)">
       <use xlink:href="#DejaVuSans-51"/>
       <use x="63.623047" xlink:href="#DejaVuSans-53"/>
       <use x="127.246094" xlink:href="#DejaVuSans-48"/>
       <use x="190.869141" xlink:href="#DejaVuSans-48"/>
      </g>
     </g>
    </g>
   </g>
   <g id="line2d_18">
    <path clip-path="url(#p67d9a53d66)" d="M 55.882727 261.216 
L 72.197026 192.509752 
L 88.511325 143.281725 
L 104.825624 108.009844 
L 121.139922 82.737541 
L 137.454221 64.629936 
L 153.76852 51.655837 
L 170.082819 42.359895 
L 186.397117 35.699353 
L 202.711416 30.927074 
L 219.025715 27.507736 
L 235.340014 25.057781 
L 251.654312 23.302388 
L 267.968611 22.044649 
L 284.28291 21.143479 
L 300.597209 20.49779 
L 316.911508 20.035155 
L 333.225806 19.703676 
L 349.540105 19.466172 
L 365.854404 19.296 
" style="fill:none;stroke:#1f77b4;stroke-linecap:square;stroke-width:1.5;"/>
   </g>
   <g id="line2d_19">
    <path clip-path="url(#p67d9a53d66)" d="M 55.882727 261.216 
L 72.197026 261.216 
L 88.511325 238.313917 
L 104.825624 210.146646 
L 121.139922 183.928275 
L 137.454221 162.043662 
L 153.76852 144.772234 
L 170.082819 131.580383 
L 186.397117 121.709039 
L 202.711416 114.420911 
L 219.025715 109.088426 
L 235.340014 105.210949 
L 251.654312 102.4036 
L 267.968611 100.377177 
L 284.28291 98.917564 
L 300.597209 97.867809 
L 316.911508 97.113636 
L 333.225806 96.572231 
L 349.540105 96.183781 
L 365.854404 95.905183 
" style="fill:none;stroke:#ff7f0e;stroke-linecap:square;stroke-width:1.5;"/>
   </g>
   <g id="line2d_20">
    <path clip-path="url(#p67d9a53d66)" d="M 55.882727 261.216 
L 59.145587 246.37545 
L 60.777017 240.741538 
L 62.408447 234.489269 
L 64.039877 227.549938 
L 65.671307 222.053439 
L 67.302736 215.80117 
L 70.565596 206.319708 
L 72.197026 201.922508 
L 73.828456 196.151183 
L 75.459886 190.929508 
L 77.091316 185.22689 
L 78.722746 180.554865 
L 80.354175 177.53179 
L 85.248465 166.126553 
L 86.879895 161.59194 
L 88.511325 157.606978 
L 90.142755 154.034253 
L 91.774185 151.079884 
L 93.405614 147.094922 
L 95.037044 144.758909 
L 96.668474 142.216778 
L 98.299904 139.124997 
L 99.931334 135.552272 
L 101.562764 133.559791 
L 103.194194 133.010141 
L 104.825624 130.811541 
L 106.457053 129.780947 
L 108.088483 127.444935 
L 109.719913 125.52116 
L 111.351343 123.940916 
L 112.982773 120.917841 
L 114.614203 118.719241 
L 116.245633 118.856654 
L 117.877063 115.283929 
L 119.508492 114.115923 
L 121.139922 112.604385 
L 122.771352 109.718723 
L 124.402782 108.825542 
L 126.034212 106.83306 
L 127.665642 105.458935 
L 129.297072 104.565754 
L 130.928502 101.061736 
L 132.559931 100.305967 
L 134.191361 99.206667 
L 135.822791 96.939361 
L 140.717081 91.923805 
L 142.348511 89.45038 
L 143.979941 88.90073 
L 145.61137 87.870136 
L 147.2428 85.465417 
L 148.87423 82.85458 
L 150.50566 81.823986 
L 152.13709 81.274336 
L 153.76852 80.381155 
L 155.39995 78.594792 
L 157.03138 78.869617 
L 160.294239 77.151961 
L 161.925669 75.296893 
L 163.557099 77.220667 
L 165.188529 77.839024 
L 166.819959 77.495492 
L 168.451389 76.945843 
L 170.082819 75.296893 
L 171.714249 76.121368 
L 173.345678 74.884655 
L 174.977108 74.403711 
L 176.608538 73.579236 
L 178.239968 74.678536 
L 179.871398 74.60983 
L 181.502828 72.892174 
L 183.134258 71.792874 
L 184.765688 70.075218 
L 186.397117 69.250743 
L 188.028547 67.945324 
L 189.659977 67.601793 
L 191.291407 67.395674 
L 192.922837 67.395674 
L 194.554267 67.533087 
L 196.185697 67.189555 
L 197.817127 64.990955 
L 199.448556 64.303893 
L 202.711416 64.71613 
L 204.342846 63.342005 
L 205.974276 61.761762 
L 207.605706 61.555643 
L 209.237136 61.555643 
L 210.868566 60.799874 
L 212.499995 59.150924 
L 214.131425 59.494455 
L 215.762855 58.66998 
L 217.394285 59.975399 
L 219.025715 59.631868 
L 220.657145 61.693055 
L 222.288575 63.06718 
L 223.920005 62.586237 
L 225.551434 61.280818 
L 227.182864 58.120331 
L 228.814294 57.570681 
L 230.445724 58.807393 
L 232.077154 60.525049 
L 233.708584 61.143405 
L 235.340014 59.013512 
L 236.971444 60.456343 
L 238.602873 58.120331 
L 240.234303 58.326449 
L 241.865733 58.807393 
L 245.128593 58.463862 
L 248.391453 59.631868 
L 250.022883 59.013512 
L 251.654312 59.906693 
L 253.285742 58.876099 
L 254.917172 59.425749 
L 256.548602 59.563162 
L 258.180032 57.982918 
L 259.811462 58.051624 
L 261.442892 57.158443 
L 263.074322 56.677499 
L 264.705751 55.578199 
L 267.968611 54.753724 
L 269.600041 54.616312 
L 271.231471 54.959843 
L 272.862901 54.959843 
L 274.494331 55.097256 
L 276.125761 56.540087 
L 277.75719 56.608793 
L 279.38862 58.395156 
L 281.02005 58.738687 
L 282.65148 59.357043 
L 284.28291 57.639387 
L 285.91434 56.471381 
L 289.1772 59.21963 
L 290.80863 58.601274 
L 292.440059 58.532568 
L 294.071489 59.013512 
L 295.702919 58.807393 
L 297.334349 58.051624 
L 298.965779 59.21963 
L 300.597209 59.357043 
L 302.228639 60.31893 
L 303.860069 59.906693 
L 305.491498 60.387637 
L 307.122928 61.41823 
L 308.754358 61.349524 
L 310.385788 60.525049 
L 312.017218 61.074699 
L 313.648648 61.143405 
L 315.280078 62.448824 
L 316.911508 63.410712 
L 318.542937 64.510012 
L 320.174367 65.403193 
L 321.805797 64.029068 
L 323.437227 63.342005 
L 325.068657 64.16648 
L 326.700087 62.998474 
L 328.331517 63.960362 
L 329.962947 62.51753 
L 331.594376 61.41823 
L 333.225806 62.036587 
L 334.857236 63.135887 
L 336.488666 63.135887 
L 338.120096 62.448824 
L 339.751526 61.41823 
L 341.382956 60.250224 
L 343.014386 60.937287 
L 344.645815 60.731168 
L 346.277245 61.624349 
L 347.908675 59.357043 
L 349.540105 60.112812 
L 351.171535 60.044105 
L 352.802965 59.150924 
L 354.434395 61.280818 
L 356.065825 60.456343 
L 357.697254 59.013512 
L 359.328684 57.845506 
L 360.960114 57.639387 
L 362.591544 58.120331 
L 364.222974 58.876099 
L 365.854404 59.288337 
L 367.485834 58.807393 
L 369.117264 59.082218 
L 370.748693 60.662462 
L 372.380123 60.456343 
L 374.011553 59.21963 
L 375.642983 59.975399 
L 377.274413 59.425749 
L 378.905843 57.158443 
L 380.537273 58.463862 
L 380.537273 58.463862 
" style="fill:none;stroke:#2ca02c;stroke-linecap:square;stroke-width:1.5;"/>
   </g>
   <g id="line2d_21">
    <path clip-path="url(#p67d9a53d66)" d="M 55.882727 261.216 
L 57.514157 261.216 
L 59.145587 261.009881 
L 60.777017 260.460231 
L 65.671307 257.849394 
L 68.934166 255.101144 
L 70.565596 253.727019 
L 72.197026 252.146775 
L 73.828456 251.665832 
L 75.459886 250.566532 
L 77.091316 249.329819 
L 78.722746 247.886988 
L 80.354175 245.27615 
L 81.985605 244.795207 
L 83.617035 242.321782 
L 85.248465 241.153776 
L 86.879895 239.092588 
L 90.142755 234.489269 
L 91.774185 232.634201 
L 93.405614 231.534901 
L 95.037044 229.611126 
L 96.668474 227.34382 
L 98.299904 224.732982 
L 99.931334 223.221445 
L 101.562764 219.923545 
L 103.194194 217.862357 
L 104.825624 216.694351 
L 106.457053 214.083514 
L 108.088483 213.259039 
L 109.719913 212.022326 
L 111.351343 209.342783 
L 112.982773 208.037364 
L 114.614203 206.113589 
L 116.245633 204.945583 
L 117.877063 204.327227 
L 119.508492 201.991214 
L 121.139922 199.998733 
L 122.771352 199.655202 
L 124.402782 198.487195 
L 126.034212 198.21237 
L 127.665642 197.800133 
L 129.297072 196.838245 
L 130.928502 197.594014 
L 132.559931 195.670239 
L 134.191361 194.983177 
L 135.822791 193.815171 
L 137.454221 193.334227 
L 139.085651 192.097514 
L 140.717081 190.654683 
L 142.348511 190.517271 
L 143.979941 189.005733 
L 145.61137 188.181258 
L 147.2428 187.562902 
L 148.87423 187.356783 
L 150.50566 186.944546 
L 152.13709 185.639127 
L 153.76852 184.952065 
L 155.39995 184.952065 
L 157.03138 183.509233 
L 158.66281 182.822171 
L 160.294239 182.272521 
L 161.925669 180.898396 
L 163.557099 178.905915 
L 165.188529 179.318152 
L 166.819959 178.218852 
L 168.451389 176.98214 
L 170.082819 175.470602 
L 171.714249 174.714834 
L 173.345678 174.165184 
L 174.977108 175.127071 
L 176.608538 174.714834 
L 178.239968 173.272002 
L 179.871398 172.928471 
L 181.502828 172.859765 
L 183.134258 172.997177 
L 184.765688 172.103996 
L 186.397117 170.592459 
L 188.028547 170.798577 
L 189.659977 172.241409 
L 191.291407 171.829171 
L 192.922837 171.142109 
L 194.554267 171.073402 
L 196.185697 168.531271 
L 197.817127 169.28704 
L 199.448556 169.699277 
L 201.079986 169.149627 
L 202.711416 169.149627 
L 204.342846 167.63809 
L 205.974276 168.73739 
L 207.605706 167.569384 
L 209.237136 166.744909 
L 210.868566 168.050328 
L 212.499995 168.18774 
L 214.131425 166.951028 
L 215.762855 167.844209 
L 217.394285 166.951028 
L 219.025715 166.332671 
L 220.657145 165.370784 
L 222.288575 165.233371 
L 223.920005 165.233371 
L 225.551434 163.584421 
L 227.182864 165.302078 
L 228.814294 166.057846 
L 230.445724 165.920434 
L 232.077154 163.034771 
L 233.708584 161.59194 
L 235.340014 161.729353 
L 236.971444 160.973584 
L 238.602873 162.828653 
L 240.234303 163.172184 
L 241.865733 161.454528 
L 243.497163 162.072884 
L 245.128593 163.447009 
L 246.760023 162.14159 
L 248.391453 161.110996 
L 250.022883 161.248409 
L 251.654312 160.630053 
L 253.285742 160.49264 
L 254.917172 159.324634 
L 256.548602 158.912397 
L 258.180032 158.912397 
L 259.811462 158.087922 
L 261.442892 158.637572 
L 263.074322 159.324634 
L 264.705751 160.49264 
L 266.337181 161.317115 
L 269.600041 161.798059 
L 271.231471 160.836171 
L 272.862901 162.347709 
L 276.125761 161.523234 
L 277.75719 161.935471 
L 279.38862 160.286521 
L 281.02005 159.736872 
L 282.65148 159.94299 
L 284.28291 161.179703 
L 285.91434 161.385821 
L 287.54577 160.286521 
L 289.1772 161.454528 
L 290.80863 162.004178 
L 292.440059 161.523234 
L 294.071489 160.561346 
L 295.702919 160.698759 
L 297.334349 162.279003 
L 298.965779 160.355228 
L 300.597209 160.011696 
L 302.228639 159.94299 
L 303.860069 159.324634 
L 307.122928 157.19474 
L 308.754358 156.713797 
L 310.385788 156.026734 
L 312.017218 155.751909 
L 313.648648 154.858728 
L 315.280078 153.278484 
L 316.911508 153.415897 
L 318.542937 152.728834 
L 320.174367 153.415897 
L 321.805797 154.309078 
L 323.437227 154.927434 
L 325.068657 153.89684 
L 326.700087 155.614497 
L 328.331517 154.790022 
L 329.962947 154.927434 
L 331.594376 154.858728 
L 334.857236 154.515197 
L 336.488666 155.408378 
L 338.120096 156.09544 
L 339.751526 157.332153 
L 341.382956 157.606978 
L 343.014386 157.263447 
L 344.645815 158.568865 
L 346.277245 156.851209 
L 347.908675 157.263447 
L 349.540105 158.019215 
L 351.171535 157.057328 
L 352.802965 157.469565 
L 354.434395 156.09544 
L 356.065825 157.263447 
L 357.697254 159.530753 
L 359.328684 159.118515 
L 360.960114 159.39334 
L 362.591544 159.187222 
L 364.222974 158.156628 
L 365.854404 157.263447 
L 367.485834 156.919915 
L 369.117264 156.438972 
L 370.748693 156.301559 
L 372.380123 156.301559 
L 374.011553 157.881803 
L 375.642983 158.981103 
L 377.274413 158.774984 
L 378.905843 159.599459 
L 380.537273 158.431453 
L 380.537273 158.431453 
" style="fill:none;stroke:#d62728;stroke-linecap:square;stroke-width:1.5;"/>
   </g>
   <g id="patch_3">
    <path d="M 39.65 273.312 
L 39.65 7.2 
" style="fill:none;stroke:#000000;stroke-linecap:square;stroke-linejoin:miter;stroke-width:0.8;"/>
   </g>
   <g id="patch_4">
    <path d="M 396.77 273.312 
L 396.77 7.2 
" style="fill:none;stroke:#000000;stroke-linecap:square;stroke-linejoin:miter;stroke-width:0.8;"/>
   </g>
   <g id="patch_5">
    <path d="M 39.65 273.312 
L 396.77 273.312 
" style="fill:none;stroke:#000000;stroke-linecap:square;stroke-linejoin:miter;stroke-width:0.8;"/>
   </g>
   <g id="patch_6">
    <path d="M 39.65 7.2 
L 396.77 7.2 
" style="fill:none;stroke:#000000;stroke-linecap:square;stroke-linejoin:miter;stroke-width:0.8;"/>
   </g>
  </g>
 </g>
 <defs>
  <clipPath id="p67d9a53d66">
   <rect height="266.112" width="357.12" x="39.65" y="7.2"/>
  </clipPath>
 </defs>
</svg>
