<?xml version="1.0" encoding="utf-8" standalone="no"?>
<!DOCTYPE svg PUBLIC "-//W3C//DTD SVG 1.1//EN"
  "http://www.w3.org/Graphics/SVG/1.1/DTD/svg11.dtd">
<!-- Created with matplotlib (https://matplotlib.org/) -->
<svg height="297.190125pt" version="1.1" viewBox="0 0 403.97 297.190125" width="403.97pt" xmlns="http://www.w3.org/2000/svg" xmlns:xlink="http://www.w3.org/1999/xlink">
 <metadata>
  <rdf:RDF xmlns:cc="http://creativecommons.org/ns#" xmlns:dc="http://purl.org/dc/elements/1.1/" xmlns:rdf="http://www.w3.org/1999/02/22-rdf-syntax-ns#">
   <cc:Work>
    <dc:type rdf:resource="http://purl.org/dc/dcmitype/StillImage"/>
    <dc:date>2021-03-16T00:04:33.723798</dc:date>
    <dc:format>image/svg+xml</dc:format>
    <dc:creator>
     <cc:Agent>
      <dc:title>Matplotlib v3.3.4, https://matplotlib.org/</dc:title>
     </cc:Agent>
    </dc:creator>
   </cc:Work>
  </rdf:RDF>
 </metadata>
 <defs>
  <style type="text/css">*{stroke-linecap:butt;stroke-linejoin:round;}</style>
 </defs>
 <g id="figure_1">
  <g id="patch_1">
   <path d="M 0 297.190125 
L 403.97 297.190125 
L 403.97 0 
L 0 0 
z
" style="fill:#ffffff;"/>
  </g>
  <g id="axes_1">
   <g id="patch_2">
    <path d="M 39.65 273.312 
L 396.77 273.312 
L 396.77 7.2 
L 39.65 7.2 
z
" style="fill:#ffffff;"/>
   </g>
   <g id="matplotlib.axis_1">
    <g id="xtick_1">
     <g id="line2d_1">
      <defs>
       <path d="M 0 0 
L 0 3.5 
" id="m95da502e27" style="stroke:#000000;stroke-width:0.8;"/>
      </defs>
      <g>
       <use style="stroke:#000000;stroke-width:0.8;" x="55.882727" xlink:href="#m95da502e27" y="273.312"/>
      </g>
     </g>
     <g id="text_1">
      <!-- 0.0 -->
      <g transform="translate(47.931165 287.910437)scale(0.1 -0.1)">
       <defs>
        <path d="M 31.78125 66.40625 
Q 24.171875 66.40625 20.328125 58.90625 
Q 16.5 51.421875 16.5 36.375 
Q 16.5 21.390625 20.328125 13.890625 
Q 24.171875 6.390625 31.78125 6.390625 
Q 39.453125 6.390625 43.28125 13.890625 
Q 47.125 21.390625 47.125 36.375 
Q 47.125 51.421875 43.28125 58.90625 
Q 39.453125 66.40625 31.78125 66.40625 
z
M 31.78125 74.21875 
Q 44.046875 74.21875 50.515625 64.515625 
Q 56.984375 54.828125 56.984375 36.375 
Q 56.984375 17.96875 50.515625 8.265625 
Q 44.046875 -1.421875 31.78125 -1.421875 
Q 19.53125 -1.421875 13.0625 8.265625 
Q 6.59375 17.96875 6.59375 36.375 
Q 6.59375 54.828125 13.0625 64.515625 
Q 19.53125 74.21875 31.78125 74.21875 
z
" id="DejaVuSans-48"/>
        <path d="M 10.6875 12.40625 
L 21 12.40625 
L 21 0 
L 10.6875 0 
z
" id="DejaVuSans-46"/>
       </defs>
       <use xlink:href="#DejaVuSans-48"/>
       <use x="63.623047" xlink:href="#DejaVuSans-46"/>
       <use x="95.410156" xlink:href="#DejaVuSans-48"/>
      </g>
     </g>
    </g>
    <g id="xtick_2">
     <g id="line2d_2">
      <g>
       <use style="stroke:#000000;stroke-width:0.8;" x="96.668474" xlink:href="#m95da502e27" y="273.312"/>
      </g>
     </g>
     <g id="text_2">
      <!-- 2.5 -->
      <g transform="translate(88.716912 287.910437)scale(0.1 -0.1)">
       <defs>
        <path d="M 19.1875 8.296875 
L 53.609375 8.296875 
L 53.609375 0 
L 7.328125 0 
L 7.328125 8.296875 
Q 12.9375 14.109375 22.625 23.890625 
Q 32.328125 33.6875 34.8125 36.53125 
Q 39.546875 41.84375 41.421875 45.53125 
Q 43.3125 49.21875 43.3125 52.78125 
Q 43.3125 58.59375 39.234375 62.25 
Q 35.15625 65.921875 28.609375 65.921875 
Q 23.96875 65.921875 18.8125 64.3125 
Q 13.671875 62.703125 7.8125 59.421875 
L 7.8125 69.390625 
Q 13.765625 71.78125 18.9375 73 
Q 24.125 74.21875 28.421875 74.21875 
Q 39.75 74.21875 46.484375 68.546875 
Q 53.21875 62.890625 53.21875 53.421875 
Q 53.21875 48.921875 51.53125 44.890625 
Q 49.859375 40.875 45.40625 35.40625 
Q 44.1875 33.984375 37.640625 27.21875 
Q 31.109375 20.453125 19.1875 8.296875 
z
" id="DejaVuSans-50"/>
        <path d="M 10.796875 72.90625 
L 49.515625 72.90625 
L 49.515625 64.59375 
L 19.828125 64.59375 
L 19.828125 46.734375 
Q 21.96875 47.46875 24.109375 47.828125 
Q 26.265625 48.1875 28.421875 48.1875 
Q 40.625 48.1875 47.75 41.5 
Q 54.890625 34.8125 54.890625 23.390625 
Q 54.890625 11.625 47.5625 5.09375 
Q 40.234375 -1.421875 26.90625 -1.421875 
Q 22.3125 -1.421875 17.546875 -0.640625 
Q 12.796875 0.140625 7.71875 1.703125 
L 7.71875 11.625 
Q 12.109375 9.234375 16.796875 8.0625 
Q 21.484375 6.890625 26.703125 6.890625 
Q 35.15625 6.890625 40.078125 11.328125 
Q 45.015625 15.765625 45.015625 23.390625 
Q 45.015625 31 40.078125 35.4375 
Q 35.15625 39.890625 26.703125 39.890625 
Q 22.75 39.890625 18.8125 39.015625 
Q 14.890625 38.140625 10.796875 36.28125 
z
" id="DejaVuSans-53"/>
       </defs>
       <use xlink:href="#DejaVuSans-50"/>
       <use x="63.623047" xlink:href="#DejaVuSans-46"/>
       <use x="95.410156" xlink:href="#DejaVuSans-53"/>
      </g>
     </g>
    </g>
    <g id="xtick_3">
     <g id="line2d_3">
      <g>
       <use style="stroke:#000000;stroke-width:0.8;" x="137.454221" xlink:href="#m95da502e27" y="273.312"/>
      </g>
     </g>
     <g id="text_3">
      <!-- 5.0 -->
      <g transform="translate(129.502659 287.910437)scale(0.1 -0.1)">
       <use xlink:href="#DejaVuSans-53"/>
       <use x="63.623047" xlink:href="#DejaVuSans-46"/>
       <use x="95.410156" xlink:href="#DejaVuSans-48"/>
      </g>
     </g>
    </g>
    <g id="xtick_4">
     <g id="line2d_4">
      <g>
       <use style="stroke:#000000;stroke-width:0.8;" x="178.239968" xlink:href="#m95da502e27" y="273.312"/>
      </g>
     </g>
     <g id="text_4">
      <!-- 7.5 -->
      <g transform="translate(170.288406 287.910437)scale(0.1 -0.1)">
       <defs>
        <path d="M 8.203125 72.90625 
L 55.078125 72.90625 
L 55.078125 68.703125 
L 28.609375 0 
L 18.3125 0 
L 43.21875 64.59375 
L 8.203125 64.59375 
z
" id="DejaVuSans-55"/>
       </defs>
       <use xlink:href="#DejaVuSans-55"/>
       <use x="63.623047" xlink:href="#DejaVuSans-46"/>
       <use x="95.410156" xlink:href="#DejaVuSans-53"/>
      </g>
     </g>
    </g>
    <g id="xtick_5">
     <g id="line2d_5">
      <g>
       <use style="stroke:#000000;stroke-width:0.8;" x="219.025715" xlink:href="#m95da502e27" y="273.312"/>
      </g>
     </g>
     <g id="text_5">
      <!-- 10.0 -->
      <g transform="translate(207.892902 287.910437)scale(0.1 -0.1)">
       <defs>
        <path d="M 12.40625 8.296875 
L 28.515625 8.296875 
L 28.515625 63.921875 
L 10.984375 60.40625 
L 10.984375 69.390625 
L 28.421875 72.90625 
L 38.28125 72.90625 
L 38.28125 8.296875 
L 54.390625 8.296875 
L 54.390625 0 
L 12.40625 0 
z
" id="DejaVuSans-49"/>
       </defs>
       <use xlink:href="#DejaVuSans-49"/>
       <use x="63.623047" xlink:href="#DejaVuSans-48"/>
       <use x="127.246094" xlink:href="#DejaVuSans-46"/>
       <use x="159.033203" xlink:href="#DejaVuSans-48"/>
      </g>
     </g>
    </g>
    <g id="xtick_6">
     <g id="line2d_6">
      <g>
       <use style="stroke:#000000;stroke-width:0.8;" x="259.811462" xlink:href="#m95da502e27" y="273.312"/>
      </g>
     </g>
     <g id="text_6">
      <!-- 12.5 -->
      <g transform="translate(248.678649 287.910437)scale(0.1 -0.1)">
       <use xlink:href="#DejaVuSans-49"/>
       <use x="63.623047" xlink:href="#DejaVuSans-50"/>
       <use x="127.246094" xlink:href="#DejaVuSans-46"/>
       <use x="159.033203" xlink:href="#DejaVuSans-53"/>
      </g>
     </g>
    </g>
    <g id="xtick_7">
     <g id="line2d_7">
      <g>
       <use style="stroke:#000000;stroke-width:0.8;" x="300.597209" xlink:href="#m95da502e27" y="273.312"/>
      </g>
     </g>
     <g id="text_7">
      <!-- 15.0 -->
      <g transform="translate(289.464396 287.910437)scale(0.1 -0.1)">
       <use xlink:href="#DejaVuSans-49"/>
       <use x="63.623047" xlink:href="#DejaVuSans-53"/>
       <use x="127.246094" xlink:href="#DejaVuSans-46"/>
       <use x="159.033203" xlink:href="#DejaVuSans-48"/>
      </g>
     </g>
    </g>
    <g id="xtick_8">
     <g id="line2d_8">
      <g>
       <use style="stroke:#000000;stroke-width:0.8;" x="341.382956" xlink:href="#m95da502e27" y="273.312"/>
      </g>
     </g>
     <g id="text_8">
      <!-- 17.5 -->
      <g transform="translate(330.250143 287.910437)scale(0.1 -0.1)">
       <use xlink:href="#DejaVuSans-49"/>
       <use x="63.623047" xlink:href="#DejaVuSans-55"/>
       <use x="127.246094" xlink:href="#DejaVuSans-46"/>
       <use x="159.033203" xlink:href="#DejaVuSans-53"/>
      </g>
     </g>
    </g>
    <g id="xtick_9">
     <g id="line2d_9">
      <g>
       <use style="stroke:#000000;stroke-width:0.8;" x="382.168703" xlink:href="#m95da502e27" y="273.312"/>
      </g>
     </g>
     <g id="text_9">
      <!-- 20.0 -->
      <g transform="translate(371.03589 287.910437)scale(0.1 -0.1)">
       <use xlink:href="#DejaVuSans-50"/>
       <use x="63.623047" xlink:href="#DejaVuSans-48"/>
       <use x="127.246094" xlink:href="#DejaVuSans-46"/>
       <use x="159.033203" xlink:href="#DejaVuSans-48"/>
      </g>
     </g>
    </g>
   </g>
   <g id="matplotlib.axis_2">
    <g id="ytick_1">
     <g id="line2d_10">
      <defs>
       <path d="M 0 0 
L -3.5 0 
" id="m52adfe1d18" style="stroke:#000000;stroke-width:0.8;"/>
      </defs>
      <g>
       <use style="stroke:#000000;stroke-width:0.8;" x="39.65" xlink:href="#m52adfe1d18" y="261.216"/>
      </g>
     </g>
     <g id="text_10">
      <!-- 0 -->
      <g transform="translate(26.2875 265.015219)scale(0.1 -0.1)">
       <use xlink:href="#DejaVuSans-48"/>
      </g>
     </g>
    </g>
    <g id="ytick_2">
     <g id="line2d_11">
      <g>
       <use style="stroke:#000000;stroke-width:0.8;" x="39.65" xlink:href="#m52adfe1d18" y="222.209228"/>
      </g>
     </g>
     <g id="text_11">
      <!-- 500 -->
      <g transform="translate(13.5625 226.008447)scale(0.1 -0.1)">
       <use xlink:href="#DejaVuSans-53"/>
       <use x="63.623047" xlink:href="#DejaVuSans-48"/>
       <use x="127.246094" xlink:href="#DejaVuSans-48"/>
      </g>
     </g>
    </g>
    <g id="ytick_3">
     <g id="line2d_12">
      <g>
       <use style="stroke:#000000;stroke-width:0.8;" x="39.65" xlink:href="#m52adfe1d18" y="183.202456"/>
      </g>
     </g>
     <g id="text_12">
      <!-- 1000 -->
      <g transform="translate(7.2 187.001675)scale(0.1 -0.1)">
       <use xlink:href="#DejaVuSans-49"/>
       <use x="63.623047" xlink:href="#DejaVuSans-48"/>
       <use x="127.246094" xlink:href="#DejaVuSans-48"/>
       <use x="190.869141" xlink:href="#DejaVuSans-48"/>
      </g>
     </g>
    </g>
    <g id="ytick_4">
     <g id="line2d_13">
      <g>
       <use style="stroke:#000000;stroke-width:0.8;" x="39.65" xlink:href="#m52adfe1d18" y="144.195684"/>
      </g>
     </g>
     <g id="text_13">
      <!-- 1500 -->
      <g transform="translate(7.2 147.994903)scale(0.1 -0.1)">
       <use xlink:href="#DejaVuSans-49"/>
       <use x="63.623047" xlink:href="#DejaVuSans-53"/>
       <use x="127.246094" xlink:href="#DejaVuSans-48"/>
       <use x="190.869141" xlink:href="#DejaVuSans-48"/>
      </g>
     </g>
    </g>
    <g id="ytick_5">
     <g id="line2d_14">
      <g>
       <use style="stroke:#000000;stroke-width:0.8;" x="39.65" xlink:href="#m52adfe1d18" y="105.188912"/>
      </g>
     </g>
     <g id="text_14">
      <!-- 2000 -->
      <g transform="translate(7.2 108.988131)scale(0.1 -0.1)">
       <use xlink:href="#DejaVuSans-50"/>
       <use x="63.623047" xlink:href="#DejaVuSans-48"/>
       <use x="127.246094" xlink:href="#DejaVuSans-48"/>
       <use x="190.869141" xlink:href="#DejaVuSans-48"/>
      </g>
     </g>
    </g>
    <g id="ytick_6">
     <g id="line2d_15">
      <g>
       <use style="stroke:#000000;stroke-width:0.8;" x="39.65" xlink:href="#m52adfe1d18" y="66.18214"/>
      </g>
     </g>
     <g id="text_15">
      <!-- 2500 -->
      <g transform="translate(7.2 69.981359)scale(0.1 -0.1)">
       <use xlink:href="#DejaVuSans-50"/>
       <use x="63.623047" xlink:href="#DejaVuSans-53"/>
       <use x="127.246094" xlink:href="#DejaVuSans-48"/>
       <use x="190.869141" xlink:href="#DejaVuSans-48"/>
      </g>
     </g>
    </g>
    <g id="ytick_7">
     <g id="line2d_16">
      <g>
       <use style="stroke:#000000;stroke-width:0.8;" x="39.65" xlink:href="#m52adfe1d18" y="27.175368"/>
      </g>
     </g>
     <g id="text_16">
      <!-- 3000 -->
      <g transform="translate(7.2 30.974587)scale(0.1 -0.1)">
       <defs>
        <path d="M 40.578125 39.3125 
Q 47.65625 37.796875 51.625 33 
Q 55.609375 28.21875 55.609375 21.1875 
Q 55.609375 10.40625 48.1875 4.484375 
Q 40.765625 -1.421875 27.09375 -1.421875 
Q 22.515625 -1.421875 17.65625 -0.515625 
Q 12.796875 0.390625 7.625 2.203125 
L 7.625 11.71875 
Q 11.71875 9.328125 16.59375 8.109375 
Q 21.484375 6.890625 26.8125 6.890625 
Q 36.078125 6.890625 40.9375 10.546875 
Q 45.796875 14.203125 45.796875 21.1875 
Q 45.796875 27.640625 41.28125 31.265625 
Q 36.765625 34.90625 28.71875 34.90625 
L 20.21875 34.90625 
L 20.21875 43.015625 
L 29.109375 43.015625 
Q 36.375 43.015625 40.234375 45.921875 
Q 44.09375 48.828125 44.09375 54.296875 
Q 44.09375 59.90625 40.109375 62.90625 
Q 36.140625 65.921875 28.71875 65.921875 
Q 24.65625 65.921875 20.015625 65.03125 
Q 15.375 64.15625 9.8125 62.3125 
L 9.8125 71.09375 
Q 15.4375 72.65625 20.34375 73.4375 
Q 25.25 74.21875 29.59375 74.21875 
Q 40.828125 74.21875 47.359375 69.109375 
Q 53.90625 64.015625 53.90625 55.328125 
Q 53.90625 49.265625 50.4375 45.09375 
Q 46.96875 40.921875 40.578125 39.3125 
z
" id="DejaVuSans-51"/>
       </defs>
       <use xlink:href="#DejaVuSans-51"/>
       <use x="63.623047" xlink:href="#DejaVuSans-48"/>
       <use x="127.246094" xlink:href="#DejaVuSans-48"/>
       <use x="190.869141" xlink:href="#DejaVuSans-48"/>
      </g>
     </g>
    </g>
   </g>
   <g id="line2d_17">
    <path clip-path="url(#pc8608f5e55)" d="M 55.882727 261.216 
L 59.961302 241.712614 
L 64.039877 223.83386 
L 68.118451 207.444406 
L 72.197026 192.420194 
L 76.275601 178.647499 
L 80.354175 166.022069 
L 84.43275 154.448337 
L 88.511325 143.838698 
L 92.589899 134.112841 
L 96.668474 125.197148 
L 100.747049 117.024132 
L 104.825624 109.531929 
L 108.904198 102.663826 
L 112.982773 96.367836 
L 117.061348 90.596302 
L 121.139922 85.305537 
L 125.218497 80.455493 
L 129.297072 76.009457 
L 133.375646 71.933776 
L 137.454221 68.197599 
L 141.532796 64.772646 
L 145.61137 61.632991 
L 149.689945 58.75487 
L 153.76852 56.116496 
L 157.847095 53.697899 
L 161.925669 51.480771 
L 166.004244 49.448329 
L 170.082819 47.58519 
L 174.161393 45.877251 
L 178.239968 44.311582 
L 182.318543 42.876334 
L 186.397117 41.560643 
L 190.475692 40.354548 
L 194.554267 39.248921 
L 198.632841 38.235392 
L 202.711416 37.306291 
L 206.789991 36.454584 
L 210.868566 35.673824 
L 214.94714 34.958101 
L 219.025715 34.301998 
L 223.10429 33.700548 
L 227.182864 33.1492 
L 231.261439 32.643778 
L 235.340014 32.180458 
L 239.418588 31.755733 
L 243.497163 31.366387 
L 247.575738 31.009474 
L 251.654312 30.682291 
L 255.732887 30.382363 
L 259.811462 30.107419 
L 263.890037 29.855378 
L 267.968611 29.624332 
L 272.047186 29.412532 
L 276.125761 29.218375 
L 280.204335 29.040391 
L 284.28291 28.877233 
L 288.361485 28.727666 
L 292.440059 28.590559 
L 296.518634 28.464872 
L 300.597209 28.349655 
L 304.675783 28.244035 
L 308.754358 28.147214 
L 312.832933 28.058458 
L 316.911508 27.977095 
L 320.990082 27.90251 
L 325.068657 27.834138 
L 329.147232 27.771461 
L 333.225806 27.714005 
L 337.304381 27.661335 
L 341.382956 27.613053 
L 345.46153 27.568792 
L 349.540105 27.528219 
L 353.61868 27.491025 
L 357.697254 27.456929 
L 361.775829 27.425674 
L 365.854404 27.397022 
L 369.932979 27.370757 
L 374.011553 27.34668 
L 378.090128 27.324608 
" style="fill:none;stroke:#1f77b4;stroke-linecap:square;stroke-width:1.5;"/>
   </g>
   <g id="line2d_18">
    <path clip-path="url(#pc8608f5e55)" d="M 55.882727 261.216 
L 59.961302 261.216 
L 64.039877 259.591368 
L 68.118451 256.748262 
L 72.197026 253.01386 
L 76.275601 248.650466 
L 80.354175 243.867184 
L 84.43275 238.829578 
L 88.511325 233.667648 
L 92.589899 228.482429 
L 96.668474 223.351422 
L 100.747049 218.333077 
L 104.825624 213.470478 
L 108.904198 208.794373 
L 112.982773 204.325662 
L 117.061348 200.077429 
L 121.139922 196.056608 
L 125.218497 192.265337 
L 129.297072 188.702063 
L 133.375646 185.362431 
L 137.454221 182.240012 
L 141.532796 179.326876 
L 145.61137 176.614062 
L 149.689945 174.09194 
L 153.76852 171.750509 
L 157.847095 169.579617 
L 161.925669 167.569145 
L 166.004244 165.709131 
L 170.082819 163.989879 
L 174.161393 162.402027 
L 178.239968 160.936598 
L 182.318543 159.585037 
L 186.397117 158.339224 
L 190.475692 157.191491 
L 194.554267 156.134618 
L 198.632841 155.161827 
L 202.711416 154.266773 
L 206.789991 153.44353 
L 210.868566 152.686575 
L 214.94714 151.990767 
L 219.025715 151.35133 
L 223.10429 150.763834 
L 227.182864 150.224173 
L 231.261439 149.728546 
L 235.340014 149.273439 
L 239.418588 148.855603 
L 243.497163 148.472041 
L 247.575738 148.119986 
L 251.654312 147.796888 
L 255.732887 147.500396 
L 259.811462 147.228345 
L 263.890037 146.978743 
L 267.968611 146.749754 
L 272.047186 146.539691 
L 276.125761 146.347003 
L 280.204335 146.170262 
L 284.28291 146.008159 
L 288.361485 145.859486 
L 292.440059 145.723139 
L 296.518634 145.5981 
L 300.597209 145.483435 
L 304.675783 145.378287 
L 308.754358 145.281869 
L 312.832933 145.193459 
L 316.911508 145.112393 
L 320.990082 145.038064 
L 325.068657 144.969912 
L 329.147232 144.907426 
L 333.225806 144.850135 
L 337.304381 144.797608 
L 341.382956 144.749451 
L 345.46153 144.705299 
L 349.540105 144.66482 
L 353.61868 144.62771 
L 357.697254 144.593687 
L 361.775829 144.562496 
L 365.854404 144.533901 
L 369.932979 144.507686 
L 374.011553 144.483653 
L 378.090128 144.461621 
" style="fill:none;stroke:#ff7f0e;stroke-linecap:square;stroke-width:1.5;"/>
   </g>
   <g id="line2d_19">
    <path clip-path="url(#pc8608f5e55)" d="M 55.882727 261.216 
L 57.514157 254.506835 
L 59.145587 247.095549 
L 60.777017 238.98214 
L 62.408447 231.882907 
L 64.039877 224.23758 
L 65.671307 217.138348 
L 67.302736 211.91144 
L 68.934166 203.876045 
L 70.565596 199.741327 
L 72.197026 192.017986 
L 73.828456 185.152795 
L 75.459886 179.457806 
L 77.091316 176.727332 
L 78.722746 173.138709 
L 80.354175 169.082005 
L 81.985605 164.479205 
L 83.617035 161.046609 
L 85.248465 157.301959 
L 86.879895 152.621147 
L 88.511325 148.408415 
L 90.142755 146.380063 
L 91.774185 141.075142 
L 93.405614 138.110628 
L 95.037044 134.678032 
L 96.668474 132.181598 
L 98.299904 128.202907 
L 99.931334 123.132027 
L 101.562764 120.635594 
L 103.194194 117.515052 
L 104.825624 115.018619 
L 106.457053 114.472524 
L 108.088483 111.820063 
L 111.351343 104.876858 
L 112.982773 101.522275 
L 114.614203 99.493923 
L 116.245633 96.373381 
L 117.877063 92.706745 
L 119.508492 90.444352 
L 121.139922 87.635865 
L 122.771352 87.635865 
L 124.402782 85.76354 
L 126.034212 83.657174 
L 127.665642 82.25293 
L 129.297072 81.316767 
L 130.928502 79.60047 
L 132.559931 78.274239 
L 134.191361 75.933833 
L 135.822791 74.76363 
L 137.454221 72.891305 
L 139.085651 69.380695 
L 140.717081 69.458709 
L 142.348511 67.820424 
L 143.979941 65.792072 
L 145.61137 63.997761 
L 147.2428 61.969409 
L 148.87423 59.238935 
L 150.50566 57.834691 
L 152.13709 57.444623 
L 153.76852 55.416271 
L 155.39995 54.246068 
L 157.03138 51.43758 
L 158.66281 50.579431 
L 160.294239 48.78512 
L 161.925669 47.848957 
L 163.557099 45.508551 
L 165.188529 45.04047 
L 166.819959 41.52986 
L 168.451389 40.281643 
L 170.082819 38.721372 
L 171.714249 36.849047 
L 173.345678 35.600831 
L 174.977108 36.927061 
L 176.608538 40.047603 
L 178.239968 40.20363 
L 179.871398 39.345481 
L 181.502828 39.033427 
L 183.134258 38.8774 
L 184.765688 37.005074 
L 186.397117 36.45898 
L 188.028547 37.473156 
L 189.659977 36.69302 
L 191.291407 37.473156 
L 192.922837 33.728506 
L 194.554267 34.586655 
L 196.185697 34.118573 
L 197.817127 35.600831 
L 199.448556 35.054736 
L 202.711416 33.260424 
L 204.342846 33.494465 
L 205.974276 33.884533 
L 207.605706 34.898709 
L 209.237136 33.572479 
L 210.868566 31.62214 
L 212.499995 30.061869 
L 214.131425 29.749815 
L 215.762855 31.700153 
L 217.394285 30.763991 
L 219.025715 29.593788 
L 220.657145 28.11153 
L 222.288575 28.189544 
L 223.920005 27.955503 
L 225.551434 28.657625 
L 228.814294 29.125707 
L 230.445724 30.52995 
L 233.708584 31.62214 
L 235.340014 32.792343 
L 236.971444 34.586655 
L 238.602873 33.884533 
L 240.234303 34.586655 
L 241.865733 33.806519 
L 243.497163 31.154059 
L 245.128593 31.466113 
L 246.760023 29.359747 
L 248.391453 30.29591 
L 250.022883 31.388099 
L 251.654312 32.324262 
L 253.285742 33.650492 
L 254.917172 30.920018 
L 256.548602 27.799476 
L 258.180032 26.473246 
L 261.442892 26.317219 
L 263.074322 27.721463 
L 264.705751 27.331395 
L 266.337181 27.721463 
L 267.968611 26.629273 
L 269.600041 28.267558 
L 271.231471 27.955503 
L 272.862901 27.175368 
L 274.494331 28.579612 
L 276.125761 29.671801 
L 277.75719 30.998032 
L 279.38862 30.842005 
L 281.02005 28.969679 
L 282.65148 29.515774 
L 284.28291 30.373923 
L 285.91434 29.671801 
L 287.54577 30.139883 
L 289.1772 30.061869 
L 290.80863 29.437761 
L 292.440059 29.749815 
L 294.071489 30.451937 
L 295.702919 30.842005 
L 297.334349 30.451937 
L 298.965779 29.827828 
L 300.597209 28.345571 
L 302.228639 27.331395 
L 303.860069 27.175368 
L 305.491498 25.849138 
L 307.122928 23.118664 
L 308.754358 25.45907 
L 310.385788 26.083178 
L 312.017218 26.395233 
L 313.648648 28.735639 
L 315.280078 29.125707 
L 316.911508 29.125707 
L 318.542937 27.721463 
L 320.174367 26.941327 
L 321.805797 24.13284 
L 323.437227 22.962637 
L 325.068657 22.728596 
L 326.700087 22.182501 
L 328.331517 22.104488 
L 329.962947 21.246339 
L 331.594376 22.962637 
L 333.225806 23.352704 
L 334.857236 23.976813 
L 336.488666 22.884623 
L 338.120096 22.182501 
L 339.751526 22.260515 
L 343.014386 22.728596 
L 344.645815 21.558393 
L 346.277245 20.62223 
L 347.908675 20.232163 
L 351.171535 20.310176 
L 352.802965 19.920108 
L 354.434395 19.296 
L 356.065825 21.324352 
L 357.697254 23.976813 
L 359.328684 22.572569 
L 360.960114 22.962637 
L 362.591544 22.572569 
L 364.222974 22.572569 
L 365.854404 21.090312 
L 367.485834 22.572569 
L 370.748693 21.792433 
L 372.380123 21.636406 
L 374.011553 20.778257 
L 375.642983 21.402366 
L 377.274413 21.090312 
L 378.905843 19.764081 
L 380.537273 23.898799 
L 380.537273 23.898799 
" style="fill:none;stroke:#2ca02c;stroke-linecap:square;stroke-width:1.5;"/>
   </g>
   <g id="line2d_20">
    <path clip-path="url(#pc8608f5e55)" d="M 55.882727 261.216 
L 59.145587 260.747919 
L 60.777017 260.669905 
L 64.039877 258.875594 
L 65.671307 258.173472 
L 67.302736 256.613201 
L 68.934166 255.442998 
L 70.565596 253.570673 
L 72.197026 252.166429 
L 73.828456 250.528144 
L 75.459886 248.421779 
L 77.091316 245.223223 
L 78.722746 242.72679 
L 80.354175 241.010492 
L 81.985605 237.811937 
L 83.617035 235.939612 
L 85.248465 234.847422 
L 86.879895 233.131124 
L 90.142755 228.450312 
L 91.774185 227.74819 
L 93.405614 225.32977 
L 95.037044 223.145391 
L 96.668474 221.663133 
L 98.299904 221.351079 
L 99.931334 220.648957 
L 101.562764 217.138348 
L 103.194194 215.890131 
L 106.457053 211.91144 
L 108.088483 209.415007 
L 109.719913 208.946926 
L 111.351343 207.308641 
L 112.982773 206.060424 
L 114.614203 203.017896 
L 116.245633 201.613652 
L 117.877063 201.379612 
L 119.508492 199.35126 
L 121.139922 198.25907 
L 122.771352 195.84065 
L 124.402782 195.216542 
L 126.034212 193.42223 
L 127.665642 191.237851 
L 129.297072 190.301688 
L 130.928502 188.507377 
L 132.559931 187.961282 
L 134.191361 186.791079 
L 135.822791 183.592524 
L 139.085651 182.110266 
L 140.717081 180.549995 
L 142.348511 180.315955 
L 143.979941 178.053562 
L 145.61137 177.039386 
L 147.2428 176.961372 
L 148.87423 176.571305 
L 150.50566 175.869183 
L 152.13709 174.308912 
L 153.76852 174.074871 
L 155.39995 173.216722 
L 157.03138 172.202546 
L 158.66281 170.876316 
L 160.294239 169.003991 
L 161.925669 170.408235 
L 163.557099 170.95433 
L 165.188529 169.316045 
L 166.819959 170.174194 
L 168.451389 168.457896 
L 170.082819 167.833788 
L 171.714249 165.571395 
L 173.345678 165.337354 
L 174.977108 163.543043 
L 176.608538 162.216813 
L 178.239968 159.408325 
L 179.871398 160.890582 
L 181.502828 161.28065 
L 183.134258 160.968596 
L 184.765688 161.514691 
L 186.397117 161.358664 
L 188.028547 160.500515 
L 189.659977 160.032433 
L 191.291407 159.252298 
L 192.922837 160.578528 
L 196.185697 159.564352 
L 197.817127 156.287783 
L 199.448556 157.223946 
L 201.079986 155.585661 
L 202.711416 154.805526 
L 204.342846 156.365797 
L 205.974276 156.833878 
L 207.605706 156.989905 
L 209.237136 157.301959 
L 210.868566 157.067919 
L 212.499995 156.131756 
L 214.131425 156.287783 
L 215.762855 154.337445 
L 217.394285 154.415458 
L 219.025715 152.777174 
L 220.657145 153.635323 
L 222.288575 152.855187 
L 223.920005 152.777174 
L 225.551434 151.684984 
L 227.182864 150.904849 
L 228.814294 150.670808 
L 230.445724 147.940334 
L 232.077154 148.018348 
L 233.708584 146.068009 
L 235.340014 145.755955 
L 236.971444 144.507738 
L 238.602873 144.741779 
L 240.234303 143.103494 
L 243.497163 142.401372 
L 245.128593 143.337535 
L 246.760023 145.443901 
L 248.391453 145.20986 
L 251.654312 145.911982 
L 253.285742 144.897806 
L 254.917172 145.989995 
L 256.548602 147.706293 
L 258.180032 148.486429 
L 259.811462 148.642456 
L 261.442892 148.486429 
L 263.074322 147.706293 
L 264.705751 149.890673 
L 267.968611 149.500605 
L 269.600041 148.564442 
L 271.231471 147.472253 
L 272.862901 147.62828 
L 274.494331 145.833968 
L 276.125761 144.819792 
L 277.75719 144.663765 
L 279.38862 144.741779 
L 281.02005 145.521914 
L 282.65148 145.20986 
L 284.28291 145.599928 
L 285.91434 147.394239 
L 287.54577 145.443901 
L 289.1772 146.146023 
L 290.80863 145.677941 
L 292.440059 144.507738 
L 294.071489 143.961643 
L 295.702919 142.869454 
L 298.965779 142.79144 
L 300.597209 145.287874 
L 302.228639 144.897806 
L 303.860069 145.365887 
L 305.491498 146.614104 
L 307.122928 147.238212 
L 308.754358 146.458077 
L 310.385788 144.975819 
L 312.017218 145.20986 
L 313.648648 143.649589 
L 315.280078 144.897806 
L 316.911508 144.273698 
L 318.542937 144.351711 
L 320.174367 144.11767 
L 321.805797 146.458077 
L 323.437227 145.053833 
L 325.068657 144.273698 
L 326.700087 142.947467 
L 328.331517 142.479386 
L 329.962947 142.713427 
L 331.594376 142.011305 
L 333.225806 142.089318 
L 334.857236 141.933291 
L 336.488666 142.5574 
L 338.120096 142.869454 
L 339.751526 143.961643 
L 341.382956 143.649589 
L 343.014386 144.11767 
L 344.645815 143.649589 
L 346.277245 143.88363 
L 347.908675 143.181508 
L 349.540105 144.585752 
L 351.171535 143.805616 
L 352.802965 145.287874 
L 354.434395 147.238212 
L 356.065825 145.287874 
L 357.697254 142.089318 
L 359.328684 143.103494 
L 360.960114 141.777264 
L 362.591544 142.167332 
L 364.222974 142.869454 
L 365.854404 143.181508 
L 367.485834 143.727603 
L 369.117264 143.103494 
L 372.380123 144.039657 
L 375.642983 142.323359 
L 377.274413 141.855278 
L 378.905843 142.401372 
L 380.537273 141.387196 
L 380.537273 141.387196 
" style="fill:none;stroke:#d62728;stroke-linecap:square;stroke-width:1.5;"/>
   </g>
   <g id="patch_3">
    <path d="M 39.65 273.312 
L 39.65 7.2 
" style="fill:none;stroke:#000000;stroke-linecap:square;stroke-linejoin:miter;stroke-width:0.8;"/>
   </g>
   <g id="patch_4">
    <path d="M 396.77 273.312 
L 396.77 7.2 
" style="fill:none;stroke:#000000;stroke-linecap:square;stroke-linejoin:miter;stroke-width:0.8;"/>
   </g>
   <g id="patch_5">
    <path d="M 39.65 273.312 
L 396.77 273.312 
" style="fill:none;stroke:#000000;stroke-linecap:square;stroke-linejoin:miter;stroke-width:0.8;"/>
   </g>
   <g id="patch_6">
    <path d="M 39.65 7.2 
L 396.77 7.2 
" style="fill:none;stroke:#000000;stroke-linecap:square;stroke-linejoin:miter;stroke-width:0.8;"/>
   </g>
  </g>
 </g>
 <defs>
  <clipPath id="pc8608f5e55">
   <rect height="266.112" width="357.12" x="39.65" y="7.2"/>
  </clipPath>
 </defs>
</svg>
