<?xml version="1.0" encoding="utf-8" standalone="no"?>
<!DOCTYPE svg PUBLIC "-//W3C//DTD SVG 1.1//EN"
  "http://www.w3.org/Graphics/SVG/1.1/DTD/svg11.dtd">
<svg xmlns:xlink="http://www.w3.org/1999/xlink" width="403.97pt" height="297.190125pt" viewBox="0 0 403.97 297.190125" xmlns="http://www.w3.org/2000/svg" version="1.1">
 <metadata>
  <rdf:RDF xmlns:dc="http://purl.org/dc/elements/1.1/" xmlns:cc="http://creativecommons.org/ns#" xmlns:rdf="http://www.w3.org/1999/02/22-rdf-syntax-ns#">
   <cc:Work>
    <dc:type rdf:resource="http://purl.org/dc/dcmitype/StillImage"/>
    <dc:date>2023-10-20T19:51:26.049820</dc:date>
    <dc:format>image/svg+xml</dc:format>
    <dc:creator>
     <cc:Agent>
      <dc:title>Matplotlib v3.8.0, https://matplotlib.org/</dc:title>
     </cc:Agent>
    </dc:creator>
   </cc:Work>
  </rdf:RDF>
 </metadata>
 <defs>
  <style type="text/css">*{stroke-linejoin: round; stroke-linecap: butt}</style>
 </defs>
 <g id="figure_1">
  <g id="patch_1">
   <path d="M 0 297.190125 
L 403.97 297.190125 
L 403.97 0 
L 0 0 
z
" style="fill: #ffffff"/>
  </g>
  <g id="axes_1">
   <g id="patch_2">
    <path d="M 39.65 273.312 
L 396.77 273.312 
L 396.77 7.2 
L 39.65 7.2 
z
" style="fill: #ffffff"/>
   </g>
   <g id="matplotlib.axis_1">
    <g id="xtick_1">
     <g id="line2d_1">
      <defs>
       <path id="meed14d7ddb" d="M 0 0 
L 0 3.5 
" style="stroke: #000000; stroke-width: 0.8"/>
      </defs>
      <g>
       <use xlink:href="#meed14d7ddb" x="55.882727" y="273.312" style="stroke: #000000; stroke-width: 0.8"/>
      </g>
     </g>
     <g id="text_1">
      <!-- 0.0 -->
      <g transform="translate(47.931165 287.910437) scale(0.1 -0.1)">
       <defs>
        <path id="DejaVuSans-30" d="M 2034 4250 
Q 1547 4250 1301 3770 
Q 1056 3291 1056 2328 
Q 1056 1369 1301 889 
Q 1547 409 2034 409 
Q 2525 409 2770 889 
Q 3016 1369 3016 2328 
Q 3016 3291 2770 3770 
Q 2525 4250 2034 4250 
z
M 2034 4750 
Q 2819 4750 3233 4129 
Q 3647 3509 3647 2328 
Q 3647 1150 3233 529 
Q 2819 -91 2034 -91 
Q 1250 -91 836 529 
Q 422 1150 422 2328 
Q 422 3509 836 4129 
Q 1250 4750 2034 4750 
z
" transform="scale(0.015625)"/>
        <path id="DejaVuSans-2e" d="M 684 794 
L 1344 794 
L 1344 0 
L 684 0 
L 684 794 
z
" transform="scale(0.015625)"/>
       </defs>
       <use xlink:href="#DejaVuSans-30"/>
       <use xlink:href="#DejaVuSans-2e" x="63.623047"/>
       <use xlink:href="#DejaVuSans-30" x="95.410156"/>
      </g>
     </g>
    </g>
    <g id="xtick_2">
     <g id="line2d_2">
      <g>
       <use xlink:href="#meed14d7ddb" x="96.668474" y="273.312" style="stroke: #000000; stroke-width: 0.8"/>
      </g>
     </g>
     <g id="text_2">
      <!-- 2.5 -->
      <g transform="translate(88.716912 287.910437) scale(0.1 -0.1)">
       <defs>
        <path id="DejaVuSans-32" d="M 1228 531 
L 3431 531 
L 3431 0 
L 469 0 
L 469 531 
Q 828 903 1448 1529 
Q 2069 2156 2228 2338 
Q 2531 2678 2651 2914 
Q 2772 3150 2772 3378 
Q 2772 3750 2511 3984 
Q 2250 4219 1831 4219 
Q 1534 4219 1204 4116 
Q 875 4013 500 3803 
L 500 4441 
Q 881 4594 1212 4672 
Q 1544 4750 1819 4750 
Q 2544 4750 2975 4387 
Q 3406 4025 3406 3419 
Q 3406 3131 3298 2873 
Q 3191 2616 2906 2266 
Q 2828 2175 2409 1742 
Q 1991 1309 1228 531 
z
" transform="scale(0.015625)"/>
        <path id="DejaVuSans-35" d="M 691 4666 
L 3169 4666 
L 3169 4134 
L 1269 4134 
L 1269 2991 
Q 1406 3038 1543 3061 
Q 1681 3084 1819 3084 
Q 2600 3084 3056 2656 
Q 3513 2228 3513 1497 
Q 3513 744 3044 326 
Q 2575 -91 1722 -91 
Q 1428 -91 1123 -41 
Q 819 9 494 109 
L 494 744 
Q 775 591 1075 516 
Q 1375 441 1709 441 
Q 2250 441 2565 725 
Q 2881 1009 2881 1497 
Q 2881 1984 2565 2268 
Q 2250 2553 1709 2553 
Q 1456 2553 1204 2497 
Q 953 2441 691 2322 
L 691 4666 
z
" transform="scale(0.015625)"/>
       </defs>
       <use xlink:href="#DejaVuSans-32"/>
       <use xlink:href="#DejaVuSans-2e" x="63.623047"/>
       <use xlink:href="#DejaVuSans-35" x="95.410156"/>
      </g>
     </g>
    </g>
    <g id="xtick_3">
     <g id="line2d_3">
      <g>
       <use xlink:href="#meed14d7ddb" x="137.454221" y="273.312" style="stroke: #000000; stroke-width: 0.8"/>
      </g>
     </g>
     <g id="text_3">
      <!-- 5.0 -->
      <g transform="translate(129.502659 287.910437) scale(0.1 -0.1)">
       <use xlink:href="#DejaVuSans-35"/>
       <use xlink:href="#DejaVuSans-2e" x="63.623047"/>
       <use xlink:href="#DejaVuSans-30" x="95.410156"/>
      </g>
     </g>
    </g>
    <g id="xtick_4">
     <g id="line2d_4">
      <g>
       <use xlink:href="#meed14d7ddb" x="178.239968" y="273.312" style="stroke: #000000; stroke-width: 0.8"/>
      </g>
     </g>
     <g id="text_4">
      <!-- 7.5 -->
      <g transform="translate(170.288406 287.910437) scale(0.1 -0.1)">
       <defs>
        <path id="DejaVuSans-37" d="M 525 4666 
L 3525 4666 
L 3525 4397 
L 1831 0 
L 1172 0 
L 2766 4134 
L 525 4134 
L 525 4666 
z
" transform="scale(0.015625)"/>
       </defs>
       <use xlink:href="#DejaVuSans-37"/>
       <use xlink:href="#DejaVuSans-2e" x="63.623047"/>
       <use xlink:href="#DejaVuSans-35" x="95.410156"/>
      </g>
     </g>
    </g>
    <g id="xtick_5">
     <g id="line2d_5">
      <g>
       <use xlink:href="#meed14d7ddb" x="219.025715" y="273.312" style="stroke: #000000; stroke-width: 0.8"/>
      </g>
     </g>
     <g id="text_5">
      <!-- 10.0 -->
      <g transform="translate(207.892902 287.910437) scale(0.1 -0.1)">
       <defs>
        <path id="DejaVuSans-31" d="M 794 531 
L 1825 531 
L 1825 4091 
L 703 3866 
L 703 4441 
L 1819 4666 
L 2450 4666 
L 2450 531 
L 3481 531 
L 3481 0 
L 794 0 
L 794 531 
z
" transform="scale(0.015625)"/>
       </defs>
       <use xlink:href="#DejaVuSans-31"/>
       <use xlink:href="#DejaVuSans-30" x="63.623047"/>
       <use xlink:href="#DejaVuSans-2e" x="127.246094"/>
       <use xlink:href="#DejaVuSans-30" x="159.033203"/>
      </g>
     </g>
    </g>
    <g id="xtick_6">
     <g id="line2d_6">
      <g>
       <use xlink:href="#meed14d7ddb" x="259.811462" y="273.312" style="stroke: #000000; stroke-width: 0.8"/>
      </g>
     </g>
     <g id="text_6">
      <!-- 12.5 -->
      <g transform="translate(248.678649 287.910437) scale(0.1 -0.1)">
       <use xlink:href="#DejaVuSans-31"/>
       <use xlink:href="#DejaVuSans-32" x="63.623047"/>
       <use xlink:href="#DejaVuSans-2e" x="127.246094"/>
       <use xlink:href="#DejaVuSans-35" x="159.033203"/>
      </g>
     </g>
    </g>
    <g id="xtick_7">
     <g id="line2d_7">
      <g>
       <use xlink:href="#meed14d7ddb" x="300.597209" y="273.312" style="stroke: #000000; stroke-width: 0.8"/>
      </g>
     </g>
     <g id="text_7">
      <!-- 15.0 -->
      <g transform="translate(289.464396 287.910437) scale(0.1 -0.1)">
       <use xlink:href="#DejaVuSans-31"/>
       <use xlink:href="#DejaVuSans-35" x="63.623047"/>
       <use xlink:href="#DejaVuSans-2e" x="127.246094"/>
       <use xlink:href="#DejaVuSans-30" x="159.033203"/>
      </g>
     </g>
    </g>
    <g id="xtick_8">
     <g id="line2d_8">
      <g>
       <use xlink:href="#meed14d7ddb" x="341.382956" y="273.312" style="stroke: #000000; stroke-width: 0.8"/>
      </g>
     </g>
     <g id="text_8">
      <!-- 17.5 -->
      <g transform="translate(330.250143 287.910437) scale(0.1 -0.1)">
       <use xlink:href="#DejaVuSans-31"/>
       <use xlink:href="#DejaVuSans-37" x="63.623047"/>
       <use xlink:href="#DejaVuSans-2e" x="127.246094"/>
       <use xlink:href="#DejaVuSans-35" x="159.033203"/>
      </g>
     </g>
    </g>
    <g id="xtick_9">
     <g id="line2d_9">
      <g>
       <use xlink:href="#meed14d7ddb" x="382.168703" y="273.312" style="stroke: #000000; stroke-width: 0.8"/>
      </g>
     </g>
     <g id="text_9">
      <!-- 20.0 -->
      <g transform="translate(371.03589 287.910437) scale(0.1 -0.1)">
       <use xlink:href="#DejaVuSans-32"/>
       <use xlink:href="#DejaVuSans-30" x="63.623047"/>
       <use xlink:href="#DejaVuSans-2e" x="127.246094"/>
       <use xlink:href="#DejaVuSans-30" x="159.033203"/>
      </g>
     </g>
    </g>
   </g>
   <g id="matplotlib.axis_2">
    <g id="ytick_1">
     <g id="line2d_10">
      <defs>
       <path id="m5d75a583dc" d="M 0 0 
L -3.5 0 
" style="stroke: #000000; stroke-width: 0.8"/>
      </defs>
      <g>
       <use xlink:href="#m5d75a583dc" x="39.65" y="261.216" style="stroke: #000000; stroke-width: 0.8"/>
      </g>
     </g>
     <g id="text_10">
      <!-- 0 -->
      <g transform="translate(26.2875 265.015219) scale(0.1 -0.1)">
       <use xlink:href="#DejaVuSans-30"/>
      </g>
     </g>
    </g>
    <g id="ytick_2">
     <g id="line2d_11">
      <g>
       <use xlink:href="#m5d75a583dc" x="39.65" y="226.862876" style="stroke: #000000; stroke-width: 0.8"/>
      </g>
     </g>
     <g id="text_11">
      <!-- 500 -->
      <g transform="translate(13.5625 230.662095) scale(0.1 -0.1)">
       <use xlink:href="#DejaVuSans-35"/>
       <use xlink:href="#DejaVuSans-30" x="63.623047"/>
       <use xlink:href="#DejaVuSans-30" x="127.246094"/>
      </g>
     </g>
    </g>
    <g id="ytick_3">
     <g id="line2d_12">
      <g>
       <use xlink:href="#m5d75a583dc" x="39.65" y="192.509752" style="stroke: #000000; stroke-width: 0.8"/>
      </g>
     </g>
     <g id="text_12">
      <!-- 1000 -->
      <g transform="translate(7.2 196.308971) scale(0.1 -0.1)">
       <use xlink:href="#DejaVuSans-31"/>
       <use xlink:href="#DejaVuSans-30" x="63.623047"/>
       <use xlink:href="#DejaVuSans-30" x="127.246094"/>
       <use xlink:href="#DejaVuSans-30" x="190.869141"/>
      </g>
     </g>
    </g>
    <g id="ytick_4">
     <g id="line2d_13">
      <g>
       <use xlink:href="#m5d75a583dc" x="39.65" y="158.156628" style="stroke: #000000; stroke-width: 0.8"/>
      </g>
     </g>
     <g id="text_13">
      <!-- 1500 -->
      <g transform="translate(7.2 161.955847) scale(0.1 -0.1)">
       <use xlink:href="#DejaVuSans-31"/>
       <use xlink:href="#DejaVuSans-35" x="63.623047"/>
       <use xlink:href="#DejaVuSans-30" x="127.246094"/>
       <use xlink:href="#DejaVuSans-30" x="190.869141"/>
      </g>
     </g>
    </g>
    <g id="ytick_5">
     <g id="line2d_14">
      <g>
       <use xlink:href="#m5d75a583dc" x="39.65" y="123.803504" style="stroke: #000000; stroke-width: 0.8"/>
      </g>
     </g>
     <g id="text_14">
      <!-- 2000 -->
      <g transform="translate(7.2 127.602722) scale(0.1 -0.1)">
       <use xlink:href="#DejaVuSans-32"/>
       <use xlink:href="#DejaVuSans-30" x="63.623047"/>
       <use xlink:href="#DejaVuSans-30" x="127.246094"/>
       <use xlink:href="#DejaVuSans-30" x="190.869141"/>
      </g>
     </g>
    </g>
    <g id="ytick_6">
     <g id="line2d_15">
      <g>
       <use xlink:href="#m5d75a583dc" x="39.65" y="89.45038" style="stroke: #000000; stroke-width: 0.8"/>
      </g>
     </g>
     <g id="text_15">
      <!-- 2500 -->
      <g transform="translate(7.2 93.249598) scale(0.1 -0.1)">
       <use xlink:href="#DejaVuSans-32"/>
       <use xlink:href="#DejaVuSans-35" x="63.623047"/>
       <use xlink:href="#DejaVuSans-30" x="127.246094"/>
       <use xlink:href="#DejaVuSans-30" x="190.869141"/>
      </g>
     </g>
    </g>
    <g id="ytick_7">
     <g id="line2d_16">
      <g>
       <use xlink:href="#m5d75a583dc" x="39.65" y="55.097256" style="stroke: #000000; stroke-width: 0.8"/>
      </g>
     </g>
     <g id="text_16">
      <!-- 3000 -->
      <g transform="translate(7.2 58.896474) scale(0.1 -0.1)">
       <defs>
        <path id="DejaVuSans-33" d="M 2597 2516 
Q 3050 2419 3304 2112 
Q 3559 1806 3559 1356 
Q 3559 666 3084 287 
Q 2609 -91 1734 -91 
Q 1441 -91 1130 -33 
Q 819 25 488 141 
L 488 750 
Q 750 597 1062 519 
Q 1375 441 1716 441 
Q 2309 441 2620 675 
Q 2931 909 2931 1356 
Q 2931 1769 2642 2001 
Q 2353 2234 1838 2234 
L 1294 2234 
L 1294 2753 
L 1863 2753 
Q 2328 2753 2575 2939 
Q 2822 3125 2822 3475 
Q 2822 3834 2567 4026 
Q 2313 4219 1838 4219 
Q 1578 4219 1281 4162 
Q 984 4106 628 3988 
L 628 4550 
Q 988 4650 1302 4700 
Q 1616 4750 1894 4750 
Q 2613 4750 3031 4423 
Q 3450 4097 3450 3541 
Q 3450 3153 3228 2886 
Q 3006 2619 2597 2516 
z
" transform="scale(0.015625)"/>
       </defs>
       <use xlink:href="#DejaVuSans-33"/>
       <use xlink:href="#DejaVuSans-30" x="63.623047"/>
       <use xlink:href="#DejaVuSans-30" x="127.246094"/>
       <use xlink:href="#DejaVuSans-30" x="190.869141"/>
      </g>
     </g>
    </g>
    <g id="ytick_8">
     <g id="line2d_17">
      <g>
       <use xlink:href="#m5d75a583dc" x="39.65" y="20.744132" style="stroke: #000000; stroke-width: 0.8"/>
      </g>
     </g>
     <g id="text_17">
      <!-- 3500 -->
      <g transform="translate(7.2 24.54335) scale(0.1 -0.1)">
       <use xlink:href="#DejaVuSans-33"/>
       <use xlink:href="#DejaVuSans-35" x="63.623047"/>
       <use xlink:href="#DejaVuSans-30" x="127.246094"/>
       <use xlink:href="#DejaVuSans-30" x="190.869141"/>
      </g>
     </g>
    </g>
   </g>
   <g id="line2d_18">
    <path d="M 55.882727 261.216 
L 72.197026 192.509752 
L 88.511325 143.281725 
L 104.825624 108.009844 
L 121.139922 82.737541 
L 137.454221 64.629936 
L 153.76852 51.655837 
L 170.082819 42.359895 
L 186.397117 35.699353 
L 202.711416 30.927074 
L 219.025715 27.507736 
L 235.340014 25.057781 
L 251.654312 23.302388 
L 267.968611 22.044649 
L 284.28291 21.143479 
L 300.597209 20.49779 
L 316.911508 20.035155 
L 333.225806 19.703676 
L 349.540105 19.466172 
L 365.854404 19.296 
" clip-path="url(#pf84c8bdad0)" style="fill: none; stroke: #1f77b4; stroke-width: 1.5; stroke-linecap: square"/>
   </g>
   <g id="line2d_19">
    <path d="M 55.882727 261.216 
L 72.197026 261.216 
L 88.511325 238.313917 
L 104.825624 210.146646 
L 121.139922 183.928275 
L 137.454221 162.043662 
L 153.76852 144.772234 
L 170.082819 131.580383 
L 186.397117 121.709039 
L 202.711416 114.420911 
L 219.025715 109.088426 
L 235.340014 105.210949 
L 251.654312 102.4036 
L 267.968611 100.377177 
L 284.28291 98.917564 
L 300.597209 97.867809 
L 316.911508 97.113636 
L 333.225806 96.572231 
L 349.540105 96.183781 
L 365.854404 95.905183 
" clip-path="url(#pf84c8bdad0)" style="fill: none; stroke: #ff7f0e; stroke-width: 1.5; stroke-linecap: square"/>
   </g>
   <g id="line2d_20">
    <path d="M 55.882727 261.216 
L 59.145587 246.650275 
L 60.777017 240.398007 
L 62.408447 235.313744 
L 64.039877 228.580532 
L 65.671307 222.809207 
L 72.197026 203.983695 
L 73.828456 198.624608 
L 75.459886 193.952583 
L 77.091316 189.967621 
L 78.722746 185.020771 
L 80.354175 181.516752 
L 83.617035 173.546827 
L 85.248465 168.256446 
L 88.511325 160.149109 
L 91.774185 153.34719 
L 93.405614 149.362228 
L 95.037044 145.720797 
L 96.668474 143.453491 
L 98.299904 140.91136 
L 99.931334 136.926397 
L 104.825624 130.605422 
L 106.457053 127.444935 
L 108.088483 125.864691 
L 109.719913 123.116441 
L 111.351343 121.192666 
L 112.982773 117.688648 
L 114.614203 115.558754 
L 117.877063 113.42886 
L 119.508492 111.161554 
L 121.139922 109.169073 
L 122.771352 108.619423 
L 127.665642 103.809986 
L 129.297072 103.535161 
L 130.928502 101.130442 
L 132.559931 98.519604 
L 134.191361 98.038661 
L 137.454221 95.702648 
L 139.085651 93.641461 
L 140.717081 92.74828 
L 143.979941 88.35108 
L 145.61137 89.106848 
L 147.2428 86.770836 
L 148.87423 84.640942 
L 150.50566 84.297411 
L 152.13709 83.472936 
L 153.76852 81.75528 
L 155.39995 80.999511 
L 157.03138 80.793392 
L 158.66281 80.037624 
L 160.294239 77.976436 
L 161.925669 75.434305 
L 163.557099 74.678536 
L 165.188529 73.029586 
L 166.819959 72.479936 
L 168.451389 71.174518 
L 171.714249 70.418749 
L 173.345678 69.869099 
L 174.977108 69.800393 
L 176.608538 68.975918 
L 178.239968 68.632386 
L 179.871398 69.319449 
L 181.502828 69.319449 
L 183.134258 67.807911 
L 184.765688 69.044624 
L 186.397117 68.220149 
L 188.028547 68.907211 
L 189.659977 68.907211 
L 191.291407 68.01403 
L 192.922837 68.357561 
L 194.554267 68.151443 
L 196.185697 68.426268 
L 197.817127 66.639905 
L 199.448556 66.433787 
L 202.711416 63.960362 
L 204.342846 64.097774 
L 205.974276 65.059662 
L 207.605706 64.029068 
L 209.237136 64.235187 
L 210.868566 63.342005 
L 212.499995 63.342005 
L 214.131425 62.036587 
L 215.762855 62.586237 
L 217.394285 62.792355 
L 219.025715 61.693055 
L 220.657145 63.06718 
L 222.288575 63.685537 
L 223.920005 63.135887 
L 227.182864 64.990955 
L 228.814294 64.510012 
L 230.445724 64.235187 
L 232.077154 64.510012 
L 233.708584 64.303893 
L 235.340014 62.861062 
L 236.971444 63.822949 
L 240.234303 62.792355 
L 241.865733 63.342005 
L 243.497163 63.273299 
L 245.128593 61.555643 
L 246.760023 60.593755 
L 248.391453 60.250224 
L 250.022883 60.593755 
L 251.654312 60.31893 
L 253.285742 62.173999 
L 254.917172 60.593755 
L 256.548602 61.899174 
L 258.180032 61.074699 
L 259.811462 62.173999 
L 261.442892 61.761762 
L 263.074322 62.654943 
L 264.705751 63.273299 
L 266.337181 62.929768 
L 269.600041 61.486937 
L 272.862901 62.036587 
L 274.494331 63.135887 
L 276.125761 62.929768 
L 277.75719 62.448824 
L 279.38862 62.448824 
L 281.02005 63.960362 
L 282.65148 63.891655 
L 284.28291 62.448824 
L 285.91434 63.273299 
L 287.54577 63.342005 
L 289.1772 62.242705 
L 290.80863 61.830468 
L 292.440059 60.937287 
L 294.071489 62.448824 
L 295.702919 61.143405 
L 297.334349 61.761762 
L 298.965779 61.624349 
L 300.597209 61.074699 
L 302.228639 59.975399 
L 303.860069 60.456343 
L 305.491498 60.456343 
L 307.122928 60.731168 
L 310.385788 61.005993 
L 312.017218 61.486937 
L 313.648648 61.624349 
L 315.280078 61.349524 
L 316.911508 60.456343 
L 318.542937 59.013512 
L 320.174367 59.837987 
L 321.805797 60.31893 
L 323.437227 60.250224 
L 325.068657 59.013512 
L 326.700087 60.250224 
L 328.331517 60.112812 
L 329.962947 60.31893 
L 331.594376 59.76928 
L 334.857236 57.776799 
L 336.488666 57.982918 
L 338.120096 58.807393 
L 339.751526 57.914212 
L 341.382956 58.051624 
L 343.014386 57.295856 
L 346.277245 56.746206 
L 347.908675 55.646906 
L 349.540105 54.891137 
L 351.171535 55.853024 
L 352.802965 55.097256 
L 354.434395 54.135368 
L 357.697254 55.028549 
L 359.328684 53.791837 
L 360.960114 54.272781 
L 362.591544 54.478899 
L 364.222974 55.028549 
L 365.854404 54.685018 
L 367.485834 54.891137 
L 369.117264 55.784318 
L 370.748693 57.227149 
L 372.380123 56.333968 
L 375.642983 55.715612 
L 377.274413 57.501974 
L 378.905843 57.158443 
L 380.537273 58.051624 
L 380.537273 58.051624 
" clip-path="url(#pf84c8bdad0)" style="fill: none; stroke: #2ca02c; stroke-width: 1.5; stroke-linecap: square"/>
   </g>
   <g id="line2d_21">
    <path d="M 55.882727 261.216 
L 57.514157 261.078588 
L 62.408447 259.773169 
L 64.039877 259.223519 
L 65.671307 258.261631 
L 67.302736 257.162331 
L 68.934166 255.925619 
L 72.197026 252.627719 
L 73.828456 251.047475 
L 75.459886 250.085588 
L 77.091316 248.367932 
L 78.722746 247.268632 
L 80.354175 245.001325 
L 81.985605 243.764613 
L 85.248465 240.741538 
L 86.879895 239.367413 
L 88.511325 237.168813 
L 90.142755 235.657276 
L 93.405614 231.947138 
L 95.037044 229.748538 
L 96.668474 227.824763 
L 98.299904 225.420045 
L 99.931334 225.626163 
L 101.562764 225.007807 
L 103.194194 222.877914 
L 104.825624 221.091551 
L 106.457053 220.816726 
L 108.088483 218.480714 
L 109.719913 218.068476 
L 111.351343 215.732464 
L 112.982773 214.770576 
L 114.614203 212.159739 
L 116.245633 210.098551 
L 117.877063 207.281595 
L 119.508492 206.182295 
L 121.139922 204.533345 
L 122.771352 202.05992 
L 124.402782 200.067439 
L 126.034212 199.105552 
L 127.665642 197.319189 
L 129.297072 196.151183 
L 132.559931 195.395414 
L 134.191361 193.128108 
L 135.822791 192.578458 
L 137.454221 193.059402 
L 139.085651 192.509752 
L 140.717081 191.273039 
L 142.348511 191.547864 
L 143.979941 191.960102 
L 145.61137 189.555383 
L 148.87423 188.593496 
L 150.50566 185.913952 
L 152.13709 185.364302 
L 153.76852 185.433008 
L 155.39995 185.295596 
L 157.03138 184.814652 
L 158.66281 183.371821 
L 160.294239 183.096996 
L 161.925669 182.959583 
L 163.557099 182.341227 
L 165.188529 181.310633 
L 166.819959 180.967102 
L 168.451389 181.241927 
L 170.082819 181.104515 
L 173.345678 180.211333 
L 174.977108 178.218852 
L 178.239968 176.43249 
L 179.871398 175.745427 
L 181.502828 174.714834 
L 183.134258 175.33319 
L 184.765688 173.065884 
L 186.397117 172.791059 
L 188.028547 171.210815 
L 189.659977 171.966584 
L 191.291407 171.966584 
L 192.922837 170.248927 
L 194.554267 169.28704 
L 196.185697 167.431971 
L 197.817127 167.500678 
L 199.448556 167.775503 
L 201.079986 168.73739 
L 202.711416 168.393859 
L 204.342846 166.951028 
L 205.974276 165.98914 
L 207.605706 164.683721 
L 209.237136 164.752428 
L 210.868566 166.882321 
L 212.499995 167.225853 
L 214.131425 167.775503 
L 215.762855 165.370784 
L 217.394285 165.233371 
L 219.025715 164.752428 
L 220.657145 164.615015 
L 222.288575 163.79054 
L 223.920005 164.408896 
L 225.551434 163.172184 
L 227.182864 161.385821 
L 228.814294 160.698759 
L 230.445724 160.286521 
L 232.077154 160.836171 
L 233.708584 161.04229 
L 235.340014 162.622534 
L 236.971444 161.729353 
L 238.602873 162.279003 
L 240.234303 162.004178 
L 241.865733 161.866765 
L 243.497163 161.385821 
L 245.128593 162.966065 
L 246.760023 162.897359 
L 248.391453 162.347709 
L 250.022883 162.279003 
L 251.654312 161.59194 
L 253.285742 160.286521 
L 254.917172 161.110996 
L 256.548602 160.630053 
L 259.811462 159.874284 
L 261.442892 160.836171 
L 263.074322 159.94299 
L 264.705751 160.286521 
L 266.337181 161.04229 
L 267.968611 161.04229 
L 269.600041 160.904878 
L 272.862901 160.011696 
L 274.494331 160.561346 
L 276.125761 162.004178 
L 277.75719 161.59194 
L 279.38862 161.866765 
L 281.02005 161.248409 
L 282.65148 162.553828 
L 284.28291 163.034771 
L 285.91434 162.416415 
L 287.54577 162.416415 
L 289.1772 162.966065 
L 290.80863 163.034771 
L 292.440059 163.79054 
L 294.071489 161.59194 
L 297.334349 160.561346 
L 298.965779 160.767465 
L 302.228639 163.172184 
L 303.860069 163.584421 
L 305.491498 163.515715 
L 307.122928 163.034771 
L 308.754358 163.103478 
L 310.385788 163.584421 
L 312.017218 162.485121 
L 316.911508 162.553828 
L 318.542937 161.798059 
L 320.174367 161.660646 
L 321.805797 161.935471 
L 323.437227 162.072884 
L 325.068657 162.553828 
L 326.700087 162.553828 
L 328.331517 163.515715 
L 329.962947 162.622534 
L 331.594376 162.416415 
L 333.225806 163.859246 
L 334.857236 164.546309 
L 336.488666 163.378303 
L 338.120096 163.447009 
L 339.751526 164.271484 
L 341.382956 164.271484 
L 343.014386 163.447009 
L 344.645815 163.103478 
L 346.277245 162.622534 
L 347.908675 162.828653 
L 349.540105 163.927953 
L 352.802965 162.210296 
L 354.434395 162.69124 
L 356.065825 162.759946 
L 357.697254 160.973584 
L 359.328684 160.561346 
L 360.960114 160.011696 
L 362.591544 160.217815 
L 364.222974 159.736872 
L 365.854404 160.423934 
L 367.485834 159.736872 
L 369.117264 158.156628 
L 370.748693 156.026734 
L 372.380123 156.919915 
L 374.011553 154.583903 
L 375.642983 156.301559 
L 377.274413 155.339672 
L 378.905843 157.606978 
L 380.537273 156.232853 
L 380.537273 156.232853 
" clip-path="url(#pf84c8bdad0)" style="fill: none; stroke: #d62728; stroke-width: 1.5; stroke-linecap: square"/>
   </g>
   <g id="patch_3">
    <path d="M 39.65 273.312 
L 39.65 7.2 
" style="fill: none; stroke: #000000; stroke-width: 0.8; stroke-linejoin: miter; stroke-linecap: square"/>
   </g>
   <g id="patch_4">
    <path d="M 396.77 273.312 
L 396.77 7.2 
" style="fill: none; stroke: #000000; stroke-width: 0.8; stroke-linejoin: miter; stroke-linecap: square"/>
   </g>
   <g id="patch_5">
    <path d="M 39.65 273.312 
L 396.77 273.312 
" style="fill: none; stroke: #000000; stroke-width: 0.8; stroke-linejoin: miter; stroke-linecap: square"/>
   </g>
   <g id="patch_6">
    <path d="M 39.65 7.2 
L 396.77 7.2 
" style="fill: none; stroke: #000000; stroke-width: 0.8; stroke-linejoin: miter; stroke-linecap: square"/>
   </g>
  </g>
 </g>
 <defs>
  <clipPath id="pf84c8bdad0">
   <rect x="39.65" y="7.2" width="357.12" height="266.112"/>
  </clipPath>
 </defs>
</svg>
