<?xml version="1.0" encoding="utf-8" standalone="no"?>
<!DOCTYPE svg PUBLIC "-//W3C//DTD SVG 1.1//EN"
  "http://www.w3.org/Graphics/SVG/1.1/DTD/svg11.dtd">
<svg xmlns:xlink="http://www.w3.org/1999/xlink" width="403.97pt" height="297.190125pt" viewBox="0 0 403.97 297.190125" xmlns="http://www.w3.org/2000/svg" version="1.1">
 <metadata>
  <rdf:RDF xmlns:dc="http://purl.org/dc/elements/1.1/" xmlns:cc="http://creativecommons.org/ns#" xmlns:rdf="http://www.w3.org/1999/02/22-rdf-syntax-ns#">
   <cc:Work>
    <dc:type rdf:resource="http://purl.org/dc/dcmitype/StillImage"/>
    <dc:date>2023-10-20T19:51:26.317963</dc:date>
    <dc:format>image/svg+xml</dc:format>
    <dc:creator>
     <cc:Agent>
      <dc:title>Matplotlib v3.8.0, https://matplotlib.org/</dc:title>
     </cc:Agent>
    </dc:creator>
   </cc:Work>
  </rdf:RDF>
 </metadata>
 <defs>
  <style type="text/css">*{stroke-linejoin: round; stroke-linecap: butt}</style>
 </defs>
 <g id="figure_1">
  <g id="patch_1">
   <path d="M 0 297.190125 
L 403.97 297.190125 
L 403.97 0 
L 0 0 
z
" style="fill: #ffffff"/>
  </g>
  <g id="axes_1">
   <g id="patch_2">
    <path d="M 39.65 273.312 
L 396.77 273.312 
L 396.77 7.2 
L 39.65 7.2 
z
" style="fill: #ffffff"/>
   </g>
   <g id="matplotlib.axis_1">
    <g id="xtick_1">
     <g id="line2d_1">
      <defs>
       <path id="med8c84a21a" d="M 0 0 
L 0 3.5 
" style="stroke: #000000; stroke-width: 0.8"/>
      </defs>
      <g>
       <use xlink:href="#med8c84a21a" x="55.882727" y="273.312" style="stroke: #000000; stroke-width: 0.8"/>
      </g>
     </g>
     <g id="text_1">
      <!-- 0.0 -->
      <g transform="translate(47.931165 287.910437) scale(0.1 -0.1)">
       <defs>
        <path id="DejaVuSans-30" d="M 2034 4250 
Q 1547 4250 1301 3770 
Q 1056 3291 1056 2328 
Q 1056 1369 1301 889 
Q 1547 409 2034 409 
Q 2525 409 2770 889 
Q 3016 1369 3016 2328 
Q 3016 3291 2770 3770 
Q 2525 4250 2034 4250 
z
M 2034 4750 
Q 2819 4750 3233 4129 
Q 3647 3509 3647 2328 
Q 3647 1150 3233 529 
Q 2819 -91 2034 -91 
Q 1250 -91 836 529 
Q 422 1150 422 2328 
Q 422 3509 836 4129 
Q 1250 4750 2034 4750 
z
" transform="scale(0.015625)"/>
        <path id="DejaVuSans-2e" d="M 684 794 
L 1344 794 
L 1344 0 
L 684 0 
L 684 794 
z
" transform="scale(0.015625)"/>
       </defs>
       <use xlink:href="#DejaVuSans-30"/>
       <use xlink:href="#DejaVuSans-2e" x="63.623047"/>
       <use xlink:href="#DejaVuSans-30" x="95.410156"/>
      </g>
     </g>
    </g>
    <g id="xtick_2">
     <g id="line2d_2">
      <g>
       <use xlink:href="#med8c84a21a" x="96.668474" y="273.312" style="stroke: #000000; stroke-width: 0.8"/>
      </g>
     </g>
     <g id="text_2">
      <!-- 2.5 -->
      <g transform="translate(88.716912 287.910437) scale(0.1 -0.1)">
       <defs>
        <path id="DejaVuSans-32" d="M 1228 531 
L 3431 531 
L 3431 0 
L 469 0 
L 469 531 
Q 828 903 1448 1529 
Q 2069 2156 2228 2338 
Q 2531 2678 2651 2914 
Q 2772 3150 2772 3378 
Q 2772 3750 2511 3984 
Q 2250 4219 1831 4219 
Q 1534 4219 1204 4116 
Q 875 4013 500 3803 
L 500 4441 
Q 881 4594 1212 4672 
Q 1544 4750 1819 4750 
Q 2544 4750 2975 4387 
Q 3406 4025 3406 3419 
Q 3406 3131 3298 2873 
Q 3191 2616 2906 2266 
Q 2828 2175 2409 1742 
Q 1991 1309 1228 531 
z
" transform="scale(0.015625)"/>
        <path id="DejaVuSans-35" d="M 691 4666 
L 3169 4666 
L 3169 4134 
L 1269 4134 
L 1269 2991 
Q 1406 3038 1543 3061 
Q 1681 3084 1819 3084 
Q 2600 3084 3056 2656 
Q 3513 2228 3513 1497 
Q 3513 744 3044 326 
Q 2575 -91 1722 -91 
Q 1428 -91 1123 -41 
Q 819 9 494 109 
L 494 744 
Q 775 591 1075 516 
Q 1375 441 1709 441 
Q 2250 441 2565 725 
Q 2881 1009 2881 1497 
Q 2881 1984 2565 2268 
Q 2250 2553 1709 2553 
Q 1456 2553 1204 2497 
Q 953 2441 691 2322 
L 691 4666 
z
" transform="scale(0.015625)"/>
       </defs>
       <use xlink:href="#DejaVuSans-32"/>
       <use xlink:href="#DejaVuSans-2e" x="63.623047"/>
       <use xlink:href="#DejaVuSans-35" x="95.410156"/>
      </g>
     </g>
    </g>
    <g id="xtick_3">
     <g id="line2d_3">
      <g>
       <use xlink:href="#med8c84a21a" x="137.454221" y="273.312" style="stroke: #000000; stroke-width: 0.8"/>
      </g>
     </g>
     <g id="text_3">
      <!-- 5.0 -->
      <g transform="translate(129.502659 287.910437) scale(0.1 -0.1)">
       <use xlink:href="#DejaVuSans-35"/>
       <use xlink:href="#DejaVuSans-2e" x="63.623047"/>
       <use xlink:href="#DejaVuSans-30" x="95.410156"/>
      </g>
     </g>
    </g>
    <g id="xtick_4">
     <g id="line2d_4">
      <g>
       <use xlink:href="#med8c84a21a" x="178.239968" y="273.312" style="stroke: #000000; stroke-width: 0.8"/>
      </g>
     </g>
     <g id="text_4">
      <!-- 7.5 -->
      <g transform="translate(170.288406 287.910437) scale(0.1 -0.1)">
       <defs>
        <path id="DejaVuSans-37" d="M 525 4666 
L 3525 4666 
L 3525 4397 
L 1831 0 
L 1172 0 
L 2766 4134 
L 525 4134 
L 525 4666 
z
" transform="scale(0.015625)"/>
       </defs>
       <use xlink:href="#DejaVuSans-37"/>
       <use xlink:href="#DejaVuSans-2e" x="63.623047"/>
       <use xlink:href="#DejaVuSans-35" x="95.410156"/>
      </g>
     </g>
    </g>
    <g id="xtick_5">
     <g id="line2d_5">
      <g>
       <use xlink:href="#med8c84a21a" x="219.025715" y="273.312" style="stroke: #000000; stroke-width: 0.8"/>
      </g>
     </g>
     <g id="text_5">
      <!-- 10.0 -->
      <g transform="translate(207.892902 287.910437) scale(0.1 -0.1)">
       <defs>
        <path id="DejaVuSans-31" d="M 794 531 
L 1825 531 
L 1825 4091 
L 703 3866 
L 703 4441 
L 1819 4666 
L 2450 4666 
L 2450 531 
L 3481 531 
L 3481 0 
L 794 0 
L 794 531 
z
" transform="scale(0.015625)"/>
       </defs>
       <use xlink:href="#DejaVuSans-31"/>
       <use xlink:href="#DejaVuSans-30" x="63.623047"/>
       <use xlink:href="#DejaVuSans-2e" x="127.246094"/>
       <use xlink:href="#DejaVuSans-30" x="159.033203"/>
      </g>
     </g>
    </g>
    <g id="xtick_6">
     <g id="line2d_6">
      <g>
       <use xlink:href="#med8c84a21a" x="259.811462" y="273.312" style="stroke: #000000; stroke-width: 0.8"/>
      </g>
     </g>
     <g id="text_6">
      <!-- 12.5 -->
      <g transform="translate(248.678649 287.910437) scale(0.1 -0.1)">
       <use xlink:href="#DejaVuSans-31"/>
       <use xlink:href="#DejaVuSans-32" x="63.623047"/>
       <use xlink:href="#DejaVuSans-2e" x="127.246094"/>
       <use xlink:href="#DejaVuSans-35" x="159.033203"/>
      </g>
     </g>
    </g>
    <g id="xtick_7">
     <g id="line2d_7">
      <g>
       <use xlink:href="#med8c84a21a" x="300.597209" y="273.312" style="stroke: #000000; stroke-width: 0.8"/>
      </g>
     </g>
     <g id="text_7">
      <!-- 15.0 -->
      <g transform="translate(289.464396 287.910437) scale(0.1 -0.1)">
       <use xlink:href="#DejaVuSans-31"/>
       <use xlink:href="#DejaVuSans-35" x="63.623047"/>
       <use xlink:href="#DejaVuSans-2e" x="127.246094"/>
       <use xlink:href="#DejaVuSans-30" x="159.033203"/>
      </g>
     </g>
    </g>
    <g id="xtick_8">
     <g id="line2d_8">
      <g>
       <use xlink:href="#med8c84a21a" x="341.382956" y="273.312" style="stroke: #000000; stroke-width: 0.8"/>
      </g>
     </g>
     <g id="text_8">
      <!-- 17.5 -->
      <g transform="translate(330.250143 287.910437) scale(0.1 -0.1)">
       <use xlink:href="#DejaVuSans-31"/>
       <use xlink:href="#DejaVuSans-37" x="63.623047"/>
       <use xlink:href="#DejaVuSans-2e" x="127.246094"/>
       <use xlink:href="#DejaVuSans-35" x="159.033203"/>
      </g>
     </g>
    </g>
    <g id="xtick_9">
     <g id="line2d_9">
      <g>
       <use xlink:href="#med8c84a21a" x="382.168703" y="273.312" style="stroke: #000000; stroke-width: 0.8"/>
      </g>
     </g>
     <g id="text_9">
      <!-- 20.0 -->
      <g transform="translate(371.03589 287.910437) scale(0.1 -0.1)">
       <use xlink:href="#DejaVuSans-32"/>
       <use xlink:href="#DejaVuSans-30" x="63.623047"/>
       <use xlink:href="#DejaVuSans-2e" x="127.246094"/>
       <use xlink:href="#DejaVuSans-30" x="159.033203"/>
      </g>
     </g>
    </g>
   </g>
   <g id="matplotlib.axis_2">
    <g id="ytick_1">
     <g id="line2d_10">
      <defs>
       <path id="md33314c991" d="M 0 0 
L -3.5 0 
" style="stroke: #000000; stroke-width: 0.8"/>
      </defs>
      <g>
       <use xlink:href="#md33314c991" x="39.65" y="261.216" style="stroke: #000000; stroke-width: 0.8"/>
      </g>
     </g>
     <g id="text_10">
      <!-- 0 -->
      <g transform="translate(26.2875 265.015219) scale(0.1 -0.1)">
       <use xlink:href="#DejaVuSans-30"/>
      </g>
     </g>
    </g>
    <g id="ytick_2">
     <g id="line2d_11">
      <g>
       <use xlink:href="#md33314c991" x="39.65" y="221.149753" style="stroke: #000000; stroke-width: 0.8"/>
      </g>
     </g>
     <g id="text_11">
      <!-- 500 -->
      <g transform="translate(13.5625 224.948972) scale(0.1 -0.1)">
       <use xlink:href="#DejaVuSans-35"/>
       <use xlink:href="#DejaVuSans-30" x="63.623047"/>
       <use xlink:href="#DejaVuSans-30" x="127.246094"/>
      </g>
     </g>
    </g>
    <g id="ytick_3">
     <g id="line2d_12">
      <g>
       <use xlink:href="#md33314c991" x="39.65" y="181.083506" style="stroke: #000000; stroke-width: 0.8"/>
      </g>
     </g>
     <g id="text_12">
      <!-- 1000 -->
      <g transform="translate(7.2 184.882725) scale(0.1 -0.1)">
       <use xlink:href="#DejaVuSans-31"/>
       <use xlink:href="#DejaVuSans-30" x="63.623047"/>
       <use xlink:href="#DejaVuSans-30" x="127.246094"/>
       <use xlink:href="#DejaVuSans-30" x="190.869141"/>
      </g>
     </g>
    </g>
    <g id="ytick_4">
     <g id="line2d_13">
      <g>
       <use xlink:href="#md33314c991" x="39.65" y="141.017259" style="stroke: #000000; stroke-width: 0.8"/>
      </g>
     </g>
     <g id="text_13">
      <!-- 1500 -->
      <g transform="translate(7.2 144.816477) scale(0.1 -0.1)">
       <use xlink:href="#DejaVuSans-31"/>
       <use xlink:href="#DejaVuSans-35" x="63.623047"/>
       <use xlink:href="#DejaVuSans-30" x="127.246094"/>
       <use xlink:href="#DejaVuSans-30" x="190.869141"/>
      </g>
     </g>
    </g>
    <g id="ytick_5">
     <g id="line2d_14">
      <g>
       <use xlink:href="#md33314c991" x="39.65" y="100.951012" style="stroke: #000000; stroke-width: 0.8"/>
      </g>
     </g>
     <g id="text_14">
      <!-- 2000 -->
      <g transform="translate(7.2 104.75023) scale(0.1 -0.1)">
       <use xlink:href="#DejaVuSans-32"/>
       <use xlink:href="#DejaVuSans-30" x="63.623047"/>
       <use xlink:href="#DejaVuSans-30" x="127.246094"/>
       <use xlink:href="#DejaVuSans-30" x="190.869141"/>
      </g>
     </g>
    </g>
    <g id="ytick_6">
     <g id="line2d_15">
      <g>
       <use xlink:href="#md33314c991" x="39.65" y="60.884764" style="stroke: #000000; stroke-width: 0.8"/>
      </g>
     </g>
     <g id="text_15">
      <!-- 2500 -->
      <g transform="translate(7.2 64.683983) scale(0.1 -0.1)">
       <use xlink:href="#DejaVuSans-32"/>
       <use xlink:href="#DejaVuSans-35" x="63.623047"/>
       <use xlink:href="#DejaVuSans-30" x="127.246094"/>
       <use xlink:href="#DejaVuSans-30" x="190.869141"/>
      </g>
     </g>
    </g>
    <g id="ytick_7">
     <g id="line2d_16">
      <g>
       <use xlink:href="#md33314c991" x="39.65" y="20.818517" style="stroke: #000000; stroke-width: 0.8"/>
      </g>
     </g>
     <g id="text_16">
      <!-- 3000 -->
      <g transform="translate(7.2 24.617736) scale(0.1 -0.1)">
       <defs>
        <path id="DejaVuSans-33" d="M 2597 2516 
Q 3050 2419 3304 2112 
Q 3559 1806 3559 1356 
Q 3559 666 3084 287 
Q 2609 -91 1734 -91 
Q 1441 -91 1130 -33 
Q 819 25 488 141 
L 488 750 
Q 750 597 1062 519 
Q 1375 441 1716 441 
Q 2309 441 2620 675 
Q 2931 909 2931 1356 
Q 2931 1769 2642 2001 
Q 2353 2234 1838 2234 
L 1294 2234 
L 1294 2753 
L 1863 2753 
Q 2328 2753 2575 2939 
Q 2822 3125 2822 3475 
Q 2822 3834 2567 4026 
Q 2313 4219 1838 4219 
Q 1578 4219 1281 4162 
Q 984 4106 628 3988 
L 628 4550 
Q 988 4650 1302 4700 
Q 1616 4750 1894 4750 
Q 2613 4750 3031 4423 
Q 3450 4097 3450 3541 
Q 3450 3153 3228 2886 
Q 3006 2619 2597 2516 
z
" transform="scale(0.015625)"/>
       </defs>
       <use xlink:href="#DejaVuSans-33"/>
       <use xlink:href="#DejaVuSans-30" x="63.623047"/>
       <use xlink:href="#DejaVuSans-30" x="127.246094"/>
       <use xlink:href="#DejaVuSans-30" x="190.869141"/>
      </g>
     </g>
    </g>
   </g>
   <g id="line2d_17">
    <path d="M 55.882727 261.216 
L 72.197026 181.083506 
L 88.511325 127.661843 
L 104.825624 92.047401 
L 121.139922 68.30444 
L 137.454221 52.475799 
L 153.76852 41.923372 
L 170.082819 34.88842 
L 186.397117 30.198453 
L 202.711416 27.071808 
L 219.025715 24.987378 
L 235.340014 23.597757 
L 251.654312 22.671344 
L 267.968611 22.053735 
L 284.28291 21.641996 
L 300.597209 21.367503 
L 316.911508 21.184508 
L 333.225806 21.062511 
L 349.540105 20.98118 
L 365.854404 20.926959 
" clip-path="url(#pf8b78850b1)" style="fill: none; stroke: #1f77b4; stroke-width: 1.5; stroke-linecap: square"/>
   </g>
   <g id="line2d_18">
    <path d="M 55.882727 261.216 
L 72.197026 261.216 
L 88.511325 234.505169 
L 104.825624 207.794337 
L 121.139922 187.019246 
L 137.454221 172.179895 
L 153.76852 161.957231 
L 170.082819 155.032201 
L 186.397117 150.378874 
L 202.711416 147.264442 
L 219.025715 145.184083 
L 235.340014 143.79582 
L 251.654312 142.869859 
L 267.968611 142.252401 
L 284.28291 141.840712 
L 300.597209 141.566236 
L 316.911508 141.383246 
L 333.225806 141.261251 
L 349.540105 141.179921 
L 365.854404 141.1257 
" clip-path="url(#pf8b78850b1)" style="fill: none; stroke: #ff7f0e; stroke-width: 1.5; stroke-linecap: square"/>
   </g>
   <g id="line2d_19">
    <path d="M 55.882727 261.216 
L 59.145587 244.227911 
L 60.777017 236.935854 
L 62.408447 231.00605 
L 64.039877 223.153065 
L 65.671307 216.421936 
L 72.197026 194.465632 
L 73.828456 188.215298 
L 75.459886 182.766288 
L 77.091316 178.118604 
L 78.722746 172.349064 
L 80.354175 168.262307 
L 83.617035 158.966937 
L 85.248465 152.796735 
L 88.511325 143.341101 
L 91.774185 135.407984 
L 93.405614 130.760299 
L 95.037044 126.513277 
L 96.668474 123.868905 
L 98.299904 120.904003 
L 99.931334 116.256318 
L 104.825624 108.884129 
L 106.457053 105.198034 
L 108.088483 103.354986 
L 109.719913 100.149687 
L 111.351343 97.905977 
L 112.982773 93.81922 
L 114.614203 91.335112 
L 117.877063 88.851005 
L 119.508492 86.206633 
L 121.139922 83.88279 
L 122.771352 83.24173 
L 127.665642 77.632456 
L 129.297072 77.311926 
L 130.928502 74.507289 
L 132.559931 71.462254 
L 134.191361 70.901326 
L 135.822791 69.458941 
L 137.454221 68.176821 
L 139.085651 65.772847 
L 140.717081 64.731124 
L 143.979941 59.602645 
L 145.61137 60.484102 
L 147.2428 57.759597 
L 148.87423 55.27549 
L 150.50566 54.874827 
L 152.13709 53.913237 
L 153.76852 51.909925 
L 155.39995 51.028468 
L 157.03138 50.78807 
L 158.66281 49.906613 
L 160.294239 47.502638 
L 161.925669 44.537736 
L 163.557099 43.656278 
L 165.188529 41.733098 
L 166.819959 41.092038 
L 168.451389 39.569521 
L 171.714249 38.688064 
L 173.345678 38.047004 
L 174.977108 37.966871 
L 176.608538 37.005281 
L 178.239968 36.604619 
L 179.871398 37.405944 
L 181.502828 37.405944 
L 183.134258 35.643029 
L 184.765688 37.085414 
L 186.397117 36.123824 
L 188.028547 36.925149 
L 189.659977 36.925149 
L 191.291407 35.883426 
L 192.922837 36.284089 
L 194.554267 36.043691 
L 196.185697 36.364221 
L 197.817127 34.280776 
L 199.448556 34.040379 
L 202.711416 31.155609 
L 204.342846 31.315874 
L 205.974276 32.437729 
L 207.605706 31.235742 
L 209.237136 31.476139 
L 210.868566 30.434417 
L 212.499995 30.434417 
L 214.131425 28.911899 
L 215.762855 29.552959 
L 217.394285 29.793357 
L 219.025715 28.511237 
L 220.657145 30.113887 
L 222.288575 30.835079 
L 223.920005 30.194019 
L 227.182864 32.357597 
L 228.814294 31.796669 
L 230.445724 31.476139 
L 232.077154 31.796669 
L 233.708584 31.556272 
L 235.340014 29.873489 
L 236.971444 30.995344 
L 240.234303 29.793357 
L 241.865733 30.434417 
L 243.497163 30.354284 
L 245.128593 28.350972 
L 246.760023 27.229117 
L 248.391453 26.828454 
L 250.022883 27.229117 
L 251.654312 26.908587 
L 253.285742 29.072164 
L 254.917172 27.229117 
L 256.548602 28.751634 
L 258.180032 27.790044 
L 259.811462 29.072164 
L 261.442892 28.591369 
L 263.074322 29.633092 
L 264.705751 30.354284 
L 266.337181 29.953622 
L 269.600041 28.270839 
L 272.862901 28.911899 
L 274.494331 30.194019 
L 276.125761 29.953622 
L 277.75719 29.392694 
L 279.38862 29.392694 
L 281.02005 31.155609 
L 282.65148 31.075477 
L 284.28291 29.392694 
L 285.91434 30.354284 
L 287.54577 30.434417 
L 289.1772 29.152297 
L 290.80863 28.671502 
L 292.440059 27.629779 
L 294.071489 29.392694 
L 295.702919 27.870177 
L 297.334349 28.591369 
L 298.965779 28.431104 
L 300.597209 27.790044 
L 302.228639 26.507924 
L 303.860069 27.068852 
L 305.491498 27.068852 
L 307.122928 27.389382 
L 310.385788 27.709912 
L 312.017218 28.270839 
L 313.648648 28.431104 
L 315.280078 28.110574 
L 316.911508 27.068852 
L 318.542937 25.38607 
L 320.174367 26.347659 
L 321.805797 26.908587 
L 323.437227 26.828454 
L 325.068657 25.38607 
L 326.700087 26.828454 
L 328.331517 26.668189 
L 329.962947 26.908587 
L 331.594376 26.267527 
L 334.857236 23.943685 
L 336.488666 24.184082 
L 338.120096 25.145672 
L 339.751526 24.10395 
L 341.382956 24.264215 
L 343.014386 23.382757 
L 346.277245 22.741697 
L 347.908675 21.459577 
L 349.540105 20.57812 
L 351.171535 21.699975 
L 352.802965 20.818517 
L 354.434395 19.696662 
L 357.697254 20.738385 
L 359.328684 19.296 
L 360.960114 19.856927 
L 362.591544 20.097325 
L 364.222974 20.738385 
L 365.854404 20.337722 
L 367.485834 20.57812 
L 369.117264 21.619842 
L 370.748693 23.302625 
L 372.380123 22.260902 
L 375.642983 21.53971 
L 377.274413 23.623155 
L 378.905843 23.222492 
L 380.537273 24.264215 
L 380.537273 24.264215 
" clip-path="url(#pf8b78850b1)" style="fill: none; stroke: #2ca02c; stroke-width: 1.5; stroke-linecap: square"/>
   </g>
   <g id="line2d_20">
    <path d="M 55.882727 261.216 
L 57.514157 261.055735 
L 62.408447 259.533218 
L 64.039877 258.892158 
L 65.671307 257.770303 
L 67.302736 256.488183 
L 68.934166 255.045798 
L 72.197026 251.199438 
L 73.828456 249.356391 
L 75.459886 248.234536 
L 77.091316 246.231224 
L 78.722746 244.949104 
L 80.354175 242.304731 
L 81.985605 240.862346 
L 85.248465 237.336517 
L 86.879895 235.733867 
L 88.511325 233.169627 
L 90.142755 231.406712 
L 93.405614 227.079557 
L 95.037044 224.515318 
L 96.668474 222.271608 
L 98.299904 219.466971 
L 99.931334 219.707368 
L 101.562764 218.986176 
L 103.194194 216.502068 
L 104.825624 214.418623 
L 106.457053 214.098093 
L 108.088483 211.373589 
L 109.719913 210.892794 
L 111.351343 208.168289 
L 112.982773 207.046434 
L 114.614203 204.001399 
L 116.245633 201.597424 
L 117.877063 198.311992 
L 119.508492 197.029872 
L 121.139922 195.106692 
L 122.771352 192.221922 
L 124.402782 189.89808 
L 126.034212 188.776225 
L 127.665642 186.69278 
L 129.297072 185.330528 
L 132.559931 184.449071 
L 134.191361 181.804698 
L 135.822791 181.163638 
L 137.454221 181.724566 
L 139.085651 181.083506 
L 140.717081 179.641121 
L 142.348511 179.961651 
L 143.979941 180.442446 
L 145.61137 177.637809 
L 148.87423 176.515954 
L 150.50566 173.390786 
L 152.13709 172.749726 
L 153.76852 172.829859 
L 155.39995 172.669594 
L 157.03138 172.108666 
L 158.66281 170.425884 
L 160.294239 170.105354 
L 161.925669 169.945089 
L 163.557099 169.223897 
L 165.188529 168.021909 
L 166.819959 167.621247 
L 168.451389 167.941777 
L 170.082819 167.781512 
L 173.345678 166.739789 
L 174.977108 164.415947 
L 178.239968 162.332502 
L 179.871398 161.531177 
L 181.502828 160.32919 
L 183.134258 161.050382 
L 184.765688 158.40601 
L 186.397117 158.08548 
L 188.028547 156.242433 
L 189.659977 157.12389 
L 191.291407 157.12389 
L 192.922837 155.120578 
L 194.554267 153.998723 
L 196.185697 151.835145 
L 197.817127 151.915278 
L 199.448556 152.235808 
L 201.079986 153.357663 
L 202.711416 152.957 
L 204.342846 151.274218 
L 205.974276 150.152363 
L 207.605706 148.629846 
L 209.237136 148.709978 
L 210.868566 151.194085 
L 212.499995 151.594748 
L 214.131425 152.235808 
L 215.762855 149.431171 
L 217.394285 149.270906 
L 219.025715 148.709978 
L 220.657145 148.549713 
L 222.288575 147.588123 
L 223.920005 148.309316 
L 225.551434 146.866931 
L 227.182864 144.783486 
L 228.814294 143.982161 
L 230.445724 143.501366 
L 232.077154 144.142426 
L 233.708584 144.382823 
L 235.340014 146.225871 
L 236.971444 145.184148 
L 238.602873 145.825208 
L 240.234303 145.504678 
L 241.865733 145.344413 
L 243.497163 144.783486 
L 245.128593 146.626533 
L 246.760023 146.546401 
L 248.391453 145.905341 
L 250.022883 145.825208 
L 251.654312 145.023883 
L 253.285742 143.501366 
L 254.917172 144.462956 
L 256.548602 143.902028 
L 259.811462 143.020571 
L 261.442892 144.142426 
L 263.074322 143.100704 
L 264.705751 143.501366 
L 266.337181 144.382823 
L 267.968611 144.382823 
L 269.600041 144.222558 
L 272.862901 143.180836 
L 274.494331 143.821896 
L 276.125761 145.504678 
L 277.75719 145.023883 
L 279.38862 145.344413 
L 281.02005 144.623221 
L 282.65148 146.145738 
L 284.28291 146.706666 
L 285.91434 145.985473 
L 287.54577 145.985473 
L 289.1772 146.626533 
L 290.80863 146.706666 
L 292.440059 147.588123 
L 294.071489 145.023883 
L 297.334349 143.821896 
L 298.965779 144.062293 
L 302.228639 146.866931 
L 303.860069 147.347726 
L 305.491498 147.267593 
L 307.122928 146.706666 
L 308.754358 146.786798 
L 310.385788 147.347726 
L 312.017218 146.065606 
L 316.911508 146.145738 
L 318.542937 145.264281 
L 320.174367 145.104016 
L 321.805797 145.424546 
L 323.437227 145.584811 
L 325.068657 146.145738 
L 326.700087 146.145738 
L 328.331517 147.267593 
L 329.962947 146.225871 
L 331.594376 145.985473 
L 333.225806 147.668256 
L 334.857236 148.469581 
L 336.488666 147.107328 
L 338.120096 147.187461 
L 339.751526 148.149051 
L 341.382956 148.149051 
L 343.014386 147.187461 
L 344.645815 146.786798 
L 346.277245 146.225871 
L 347.908675 146.466268 
L 349.540105 147.748388 
L 352.802965 145.745076 
L 354.434395 146.306003 
L 356.065825 146.386136 
L 357.697254 144.302691 
L 359.328684 143.821896 
L 360.960114 143.180836 
L 362.591544 143.421234 
L 364.222974 142.860306 
L 365.854404 143.661631 
L 367.485834 142.860306 
L 369.117264 141.017259 
L 370.748693 138.533151 
L 372.380123 139.574874 
L 374.011553 136.850369 
L 375.642983 138.853681 
L 377.274413 137.731826 
L 378.905843 140.376199 
L 380.537273 138.773549 
L 380.537273 138.773549 
" clip-path="url(#pf8b78850b1)" style="fill: none; stroke: #d62728; stroke-width: 1.5; stroke-linecap: square"/>
   </g>
   <g id="patch_3">
    <path d="M 39.65 273.312 
L 39.65 7.2 
" style="fill: none; stroke: #000000; stroke-width: 0.8; stroke-linejoin: miter; stroke-linecap: square"/>
   </g>
   <g id="patch_4">
    <path d="M 396.77 273.312 
L 396.77 7.2 
" style="fill: none; stroke: #000000; stroke-width: 0.8; stroke-linejoin: miter; stroke-linecap: square"/>
   </g>
   <g id="patch_5">
    <path d="M 39.65 273.312 
L 396.77 273.312 
" style="fill: none; stroke: #000000; stroke-width: 0.8; stroke-linejoin: miter; stroke-linecap: square"/>
   </g>
   <g id="patch_6">
    <path d="M 39.65 7.2 
L 396.77 7.2 
" style="fill: none; stroke: #000000; stroke-width: 0.8; stroke-linejoin: miter; stroke-linecap: square"/>
   </g>
  </g>
 </g>
 <defs>
  <clipPath id="pf8b78850b1">
   <rect x="39.65" y="7.2" width="357.12" height="266.112"/>
  </clipPath>
 </defs>
</svg>
