<?xml version="1.0" encoding="utf-8" standalone="no"?>
<!DOCTYPE svg PUBLIC "-//W3C//DTD SVG 1.1//EN"
  "http://www.w3.org/Graphics/SVG/1.1/DTD/svg11.dtd">
<!-- Created with matplotlib (https://matplotlib.org/) -->
<svg height="297.190125pt" version="1.1" viewBox="0 0 397.6075 297.190125" width="397.6075pt" xmlns="http://www.w3.org/2000/svg" xmlns:xlink="http://www.w3.org/1999/xlink">
 <metadata>
  <rdf:RDF xmlns:cc="http://creativecommons.org/ns#" xmlns:dc="http://purl.org/dc/elements/1.1/" xmlns:rdf="http://www.w3.org/1999/02/22-rdf-syntax-ns#">
   <cc:Work>
    <dc:type rdf:resource="http://purl.org/dc/dcmitype/StillImage"/>
    <dc:date>2021-03-12T00:05:05.613518</dc:date>
    <dc:format>image/svg+xml</dc:format>
    <dc:creator>
     <cc:Agent>
      <dc:title>Matplotlib v3.3.4, https://matplotlib.org/</dc:title>
     </cc:Agent>
    </dc:creator>
   </cc:Work>
  </rdf:RDF>
 </metadata>
 <defs>
  <style type="text/css">*{stroke-linecap:butt;stroke-linejoin:round;}</style>
 </defs>
 <g id="figure_1">
  <g id="patch_1">
   <path d="M 0 297.190125 
L 397.6075 297.190125 
L 397.6075 0 
L 0 0 
z
" style="fill:#ffffff;"/>
  </g>
  <g id="axes_1">
   <g id="patch_2">
    <path d="M 33.2875 273.312 
L 390.4075 273.312 
L 390.4075 7.2 
L 33.2875 7.2 
z
" style="fill:#ffffff;"/>
   </g>
   <g id="matplotlib.axis_1">
    <g id="xtick_1">
     <g id="line2d_1">
      <defs>
       <path d="M 0 0 
L 0 3.5 
" id="m9a576f3295" style="stroke:#000000;stroke-width:0.8;"/>
      </defs>
      <g>
       <use style="stroke:#000000;stroke-width:0.8;" x="49.520227" xlink:href="#m9a576f3295" y="273.312"/>
      </g>
     </g>
     <g id="text_1">
      <!-- 0.0 -->
      <g transform="translate(41.568665 287.910437)scale(0.1 -0.1)">
       <defs>
        <path d="M 31.78125 66.40625 
Q 24.171875 66.40625 20.328125 58.90625 
Q 16.5 51.421875 16.5 36.375 
Q 16.5 21.390625 20.328125 13.890625 
Q 24.171875 6.390625 31.78125 6.390625 
Q 39.453125 6.390625 43.28125 13.890625 
Q 47.125 21.390625 47.125 36.375 
Q 47.125 51.421875 43.28125 58.90625 
Q 39.453125 66.40625 31.78125 66.40625 
z
M 31.78125 74.21875 
Q 44.046875 74.21875 50.515625 64.515625 
Q 56.984375 54.828125 56.984375 36.375 
Q 56.984375 17.96875 50.515625 8.265625 
Q 44.046875 -1.421875 31.78125 -1.421875 
Q 19.53125 -1.421875 13.0625 8.265625 
Q 6.59375 17.96875 6.59375 36.375 
Q 6.59375 54.828125 13.0625 64.515625 
Q 19.53125 74.21875 31.78125 74.21875 
z
" id="DejaVuSans-48"/>
        <path d="M 10.6875 12.40625 
L 21 12.40625 
L 21 0 
L 10.6875 0 
z
" id="DejaVuSans-46"/>
       </defs>
       <use xlink:href="#DejaVuSans-48"/>
       <use x="63.623047" xlink:href="#DejaVuSans-46"/>
       <use x="95.410156" xlink:href="#DejaVuSans-48"/>
      </g>
     </g>
    </g>
    <g id="xtick_2">
     <g id="line2d_2">
      <g>
       <use style="stroke:#000000;stroke-width:0.8;" x="90.305974" xlink:href="#m9a576f3295" y="273.312"/>
      </g>
     </g>
     <g id="text_2">
      <!-- 2.5 -->
      <g transform="translate(82.354412 287.910437)scale(0.1 -0.1)">
       <defs>
        <path d="M 19.1875 8.296875 
L 53.609375 8.296875 
L 53.609375 0 
L 7.328125 0 
L 7.328125 8.296875 
Q 12.9375 14.109375 22.625 23.890625 
Q 32.328125 33.6875 34.8125 36.53125 
Q 39.546875 41.84375 41.421875 45.53125 
Q 43.3125 49.21875 43.3125 52.78125 
Q 43.3125 58.59375 39.234375 62.25 
Q 35.15625 65.921875 28.609375 65.921875 
Q 23.96875 65.921875 18.8125 64.3125 
Q 13.671875 62.703125 7.8125 59.421875 
L 7.8125 69.390625 
Q 13.765625 71.78125 18.9375 73 
Q 24.125 74.21875 28.421875 74.21875 
Q 39.75 74.21875 46.484375 68.546875 
Q 53.21875 62.890625 53.21875 53.421875 
Q 53.21875 48.921875 51.53125 44.890625 
Q 49.859375 40.875 45.40625 35.40625 
Q 44.1875 33.984375 37.640625 27.21875 
Q 31.109375 20.453125 19.1875 8.296875 
z
" id="DejaVuSans-50"/>
        <path d="M 10.796875 72.90625 
L 49.515625 72.90625 
L 49.515625 64.59375 
L 19.828125 64.59375 
L 19.828125 46.734375 
Q 21.96875 47.46875 24.109375 47.828125 
Q 26.265625 48.1875 28.421875 48.1875 
Q 40.625 48.1875 47.75 41.5 
Q 54.890625 34.8125 54.890625 23.390625 
Q 54.890625 11.625 47.5625 5.09375 
Q 40.234375 -1.421875 26.90625 -1.421875 
Q 22.3125 -1.421875 17.546875 -0.640625 
Q 12.796875 0.140625 7.71875 1.703125 
L 7.71875 11.625 
Q 12.109375 9.234375 16.796875 8.0625 
Q 21.484375 6.890625 26.703125 6.890625 
Q 35.15625 6.890625 40.078125 11.328125 
Q 45.015625 15.765625 45.015625 23.390625 
Q 45.015625 31 40.078125 35.4375 
Q 35.15625 39.890625 26.703125 39.890625 
Q 22.75 39.890625 18.8125 39.015625 
Q 14.890625 38.140625 10.796875 36.28125 
z
" id="DejaVuSans-53"/>
       </defs>
       <use xlink:href="#DejaVuSans-50"/>
       <use x="63.623047" xlink:href="#DejaVuSans-46"/>
       <use x="95.410156" xlink:href="#DejaVuSans-53"/>
      </g>
     </g>
    </g>
    <g id="xtick_3">
     <g id="line2d_3">
      <g>
       <use style="stroke:#000000;stroke-width:0.8;" x="131.091721" xlink:href="#m9a576f3295" y="273.312"/>
      </g>
     </g>
     <g id="text_3">
      <!-- 5.0 -->
      <g transform="translate(123.140159 287.910437)scale(0.1 -0.1)">
       <use xlink:href="#DejaVuSans-53"/>
       <use x="63.623047" xlink:href="#DejaVuSans-46"/>
       <use x="95.410156" xlink:href="#DejaVuSans-48"/>
      </g>
     </g>
    </g>
    <g id="xtick_4">
     <g id="line2d_4">
      <g>
       <use style="stroke:#000000;stroke-width:0.8;" x="171.877468" xlink:href="#m9a576f3295" y="273.312"/>
      </g>
     </g>
     <g id="text_4">
      <!-- 7.5 -->
      <g transform="translate(163.925906 287.910437)scale(0.1 -0.1)">
       <defs>
        <path d="M 8.203125 72.90625 
L 55.078125 72.90625 
L 55.078125 68.703125 
L 28.609375 0 
L 18.3125 0 
L 43.21875 64.59375 
L 8.203125 64.59375 
z
" id="DejaVuSans-55"/>
       </defs>
       <use xlink:href="#DejaVuSans-55"/>
       <use x="63.623047" xlink:href="#DejaVuSans-46"/>
       <use x="95.410156" xlink:href="#DejaVuSans-53"/>
      </g>
     </g>
    </g>
    <g id="xtick_5">
     <g id="line2d_5">
      <g>
       <use style="stroke:#000000;stroke-width:0.8;" x="212.663215" xlink:href="#m9a576f3295" y="273.312"/>
      </g>
     </g>
     <g id="text_5">
      <!-- 10.0 -->
      <g transform="translate(201.530402 287.910437)scale(0.1 -0.1)">
       <defs>
        <path d="M 12.40625 8.296875 
L 28.515625 8.296875 
L 28.515625 63.921875 
L 10.984375 60.40625 
L 10.984375 69.390625 
L 28.421875 72.90625 
L 38.28125 72.90625 
L 38.28125 8.296875 
L 54.390625 8.296875 
L 54.390625 0 
L 12.40625 0 
z
" id="DejaVuSans-49"/>
       </defs>
       <use xlink:href="#DejaVuSans-49"/>
       <use x="63.623047" xlink:href="#DejaVuSans-48"/>
       <use x="127.246094" xlink:href="#DejaVuSans-46"/>
       <use x="159.033203" xlink:href="#DejaVuSans-48"/>
      </g>
     </g>
    </g>
    <g id="xtick_6">
     <g id="line2d_6">
      <g>
       <use style="stroke:#000000;stroke-width:0.8;" x="253.448962" xlink:href="#m9a576f3295" y="273.312"/>
      </g>
     </g>
     <g id="text_6">
      <!-- 12.5 -->
      <g transform="translate(242.316149 287.910437)scale(0.1 -0.1)">
       <use xlink:href="#DejaVuSans-49"/>
       <use x="63.623047" xlink:href="#DejaVuSans-50"/>
       <use x="127.246094" xlink:href="#DejaVuSans-46"/>
       <use x="159.033203" xlink:href="#DejaVuSans-53"/>
      </g>
     </g>
    </g>
    <g id="xtick_7">
     <g id="line2d_7">
      <g>
       <use style="stroke:#000000;stroke-width:0.8;" x="294.234709" xlink:href="#m9a576f3295" y="273.312"/>
      </g>
     </g>
     <g id="text_7">
      <!-- 15.0 -->
      <g transform="translate(283.101896 287.910437)scale(0.1 -0.1)">
       <use xlink:href="#DejaVuSans-49"/>
       <use x="63.623047" xlink:href="#DejaVuSans-53"/>
       <use x="127.246094" xlink:href="#DejaVuSans-46"/>
       <use x="159.033203" xlink:href="#DejaVuSans-48"/>
      </g>
     </g>
    </g>
    <g id="xtick_8">
     <g id="line2d_8">
      <g>
       <use style="stroke:#000000;stroke-width:0.8;" x="335.020456" xlink:href="#m9a576f3295" y="273.312"/>
      </g>
     </g>
     <g id="text_8">
      <!-- 17.5 -->
      <g transform="translate(323.887643 287.910437)scale(0.1 -0.1)">
       <use xlink:href="#DejaVuSans-49"/>
       <use x="63.623047" xlink:href="#DejaVuSans-55"/>
       <use x="127.246094" xlink:href="#DejaVuSans-46"/>
       <use x="159.033203" xlink:href="#DejaVuSans-53"/>
      </g>
     </g>
    </g>
    <g id="xtick_9">
     <g id="line2d_9">
      <g>
       <use style="stroke:#000000;stroke-width:0.8;" x="375.806203" xlink:href="#m9a576f3295" y="273.312"/>
      </g>
     </g>
     <g id="text_9">
      <!-- 20.0 -->
      <g transform="translate(364.67339 287.910437)scale(0.1 -0.1)">
       <use xlink:href="#DejaVuSans-50"/>
       <use x="63.623047" xlink:href="#DejaVuSans-48"/>
       <use x="127.246094" xlink:href="#DejaVuSans-46"/>
       <use x="159.033203" xlink:href="#DejaVuSans-48"/>
      </g>
     </g>
    </g>
   </g>
   <g id="matplotlib.axis_2">
    <g id="ytick_1">
     <g id="line2d_10">
      <defs>
       <path d="M 0 0 
L -3.5 0 
" id="m6fcbd53a13" style="stroke:#000000;stroke-width:0.8;"/>
      </defs>
      <g>
       <use style="stroke:#000000;stroke-width:0.8;" x="33.2875" xlink:href="#m6fcbd53a13" y="261.216"/>
      </g>
     </g>
     <g id="text_10">
      <!-- 0 -->
      <g transform="translate(19.925 265.015219)scale(0.1 -0.1)">
       <use xlink:href="#DejaVuSans-48"/>
      </g>
     </g>
    </g>
    <g id="ytick_2">
     <g id="line2d_11">
      <g>
       <use style="stroke:#000000;stroke-width:0.8;" x="33.2875" xlink:href="#m6fcbd53a13" y="218.473951"/>
      </g>
     </g>
     <g id="text_11">
      <!-- 50 -->
      <g transform="translate(13.5625 222.273169)scale(0.1 -0.1)">
       <use xlink:href="#DejaVuSans-53"/>
       <use x="63.623047" xlink:href="#DejaVuSans-48"/>
      </g>
     </g>
    </g>
    <g id="ytick_3">
     <g id="line2d_12">
      <g>
       <use style="stroke:#000000;stroke-width:0.8;" x="33.2875" xlink:href="#m6fcbd53a13" y="175.731901"/>
      </g>
     </g>
     <g id="text_12">
      <!-- 100 -->
      <g transform="translate(7.2 179.53112)scale(0.1 -0.1)">
       <use xlink:href="#DejaVuSans-49"/>
       <use x="63.623047" xlink:href="#DejaVuSans-48"/>
       <use x="127.246094" xlink:href="#DejaVuSans-48"/>
      </g>
     </g>
    </g>
    <g id="ytick_4">
     <g id="line2d_13">
      <g>
       <use style="stroke:#000000;stroke-width:0.8;" x="33.2875" xlink:href="#m6fcbd53a13" y="132.989852"/>
      </g>
     </g>
     <g id="text_13">
      <!-- 150 -->
      <g transform="translate(7.2 136.78907)scale(0.1 -0.1)">
       <use xlink:href="#DejaVuSans-49"/>
       <use x="63.623047" xlink:href="#DejaVuSans-53"/>
       <use x="127.246094" xlink:href="#DejaVuSans-48"/>
      </g>
     </g>
    </g>
    <g id="ytick_5">
     <g id="line2d_14">
      <g>
       <use style="stroke:#000000;stroke-width:0.8;" x="33.2875" xlink:href="#m6fcbd53a13" y="90.247802"/>
      </g>
     </g>
     <g id="text_14">
      <!-- 200 -->
      <g transform="translate(7.2 94.047021)scale(0.1 -0.1)">
       <use xlink:href="#DejaVuSans-50"/>
       <use x="63.623047" xlink:href="#DejaVuSans-48"/>
       <use x="127.246094" xlink:href="#DejaVuSans-48"/>
      </g>
     </g>
    </g>
    <g id="ytick_6">
     <g id="line2d_15">
      <g>
       <use style="stroke:#000000;stroke-width:0.8;" x="33.2875" xlink:href="#m6fcbd53a13" y="47.505753"/>
      </g>
     </g>
     <g id="text_15">
      <!-- 250 -->
      <g transform="translate(7.2 51.304971)scale(0.1 -0.1)">
       <use xlink:href="#DejaVuSans-50"/>
       <use x="63.623047" xlink:href="#DejaVuSans-53"/>
       <use x="127.246094" xlink:href="#DejaVuSans-48"/>
      </g>
     </g>
    </g>
   </g>
   <g id="line2d_16">
    <path clip-path="url(#pf3a17d40f7)" d="M 49.520227 261.216 
L 51.151657 190.264198 
L 52.783087 146.667307 
L 54.414517 115.893032 
L 56.045947 97.08653 
L 57.677377 81.699392 
L 59.308807 73.150982 
L 60.940236 67.167095 
L 62.571666 70.586459 
L 64.203096 61.183208 
L 65.834526 55.199322 
L 67.465956 56.909004 
L 69.097386 62.89289 
L 70.728816 64.602572 
L 72.360246 68.021936 
L 73.991675 50.925117 
L 75.623105 55.199322 
L 77.254535 63.747731 
L 78.885965 50.070276 
L 80.517395 46.650912 
L 82.148825 42.376707 
L 83.780255 42.376707 
L 85.411685 35.537979 
L 87.043114 40.667025 
L 88.674544 32.973456 
L 90.305974 35.537979 
L 91.937404 35.537979 
L 93.568834 37.247661 
L 95.200264 49.215435 
L 96.831694 42.376707 
L 98.463124 40.667025 
L 100.094553 36.39282 
L 101.725983 36.39282 
L 103.357413 31.263774 
L 104.988843 33.828297 
L 106.620273 45.796071 
L 108.251703 46.650912 
L 109.883133 56.909004 
L 111.514563 47.505753 
L 113.145992 58.618686 
L 114.777422 61.183208 
L 116.408852 56.054163 
L 118.040282 51.779958 
L 119.671712 57.763845 
L 121.303142 49.215435 
L 122.934572 45.796071 
L 124.566002 34.683138 
L 126.197431 33.828297 
L 127.828861 26.989569 
L 129.460291 42.376707 
L 131.091721 39.812184 
L 132.723151 46.650912 
L 135.986011 53.48964 
L 137.617441 44.94123 
L 139.24887 34.683138 
L 140.8803 26.134728 
L 142.51173 32.118615 
L 144.14316 43.231548 
L 145.77459 28.699251 
L 147.40602 45.796071 
L 149.03745 47.505753 
L 150.66888 32.118615 
L 152.30031 37.247661 
L 153.931739 41.521866 
L 155.563169 50.925117 
L 157.194599 48.360594 
L 158.826029 62.89289 
L 160.457459 58.618686 
L 162.088889 65.457413 
L 163.720319 63.747731 
L 165.351749 61.183208 
L 166.983178 54.344481 
L 168.614608 48.360594 
L 170.246038 51.779958 
L 171.877468 54.344481 
L 173.508898 52.634799 
L 175.140328 56.909004 
L 176.771758 56.909004 
L 178.403188 49.215435 
L 180.034617 50.070276 
L 181.666047 56.909004 
L 183.297477 47.505753 
L 184.928907 56.054163 
L 186.560337 55.199322 
L 188.191767 65.457413 
L 189.823197 56.909004 
L 191.454627 56.054163 
L 193.086056 62.038049 
L 196.348916 53.48964 
L 197.980346 50.925117 
L 199.611776 46.650912 
L 201.243206 52.634799 
L 204.506066 49.215435 
L 206.137495 38.102502 
L 207.768925 35.537979 
L 209.400355 39.812184 
L 211.031785 47.505753 
L 212.663215 45.796071 
L 214.294645 50.070276 
L 215.926075 38.957343 
L 217.557505 45.796071 
L 219.188934 53.48964 
L 220.820364 53.48964 
L 222.451794 50.070276 
L 224.083224 55.199322 
L 225.714654 62.038049 
L 227.346084 44.94123 
L 228.977514 41.521866 
L 230.608944 56.054163 
L 232.240373 50.070276 
L 233.871803 37.247661 
L 235.503233 55.199322 
L 238.766093 56.909004 
L 240.397523 52.634799 
L 242.028953 37.247661 
L 245.291812 49.215435 
L 246.923242 46.650912 
L 250.186102 36.39282 
L 251.817532 50.070276 
L 253.448962 47.505753 
L 255.080392 50.925117 
L 256.711822 44.086389 
L 258.343251 61.183208 
L 259.974681 57.763845 
L 261.606111 50.925117 
L 263.237541 40.667025 
L 264.868971 38.957343 
L 266.500401 32.118615 
L 268.131831 44.94123 
L 269.763261 37.247661 
L 271.39469 31.263774 
L 273.02612 45.796071 
L 274.65755 50.925117 
L 276.28898 50.070276 
L 277.92041 56.909004 
L 279.55184 49.215435 
L 281.18327 47.505753 
L 282.8147 43.231548 
L 284.44613 43.231548 
L 286.077559 36.39282 
L 287.708989 36.39282 
L 289.340419 49.215435 
L 290.971849 58.618686 
L 292.603279 62.89289 
L 294.234709 58.618686 
L 295.866139 48.360594 
L 297.497569 41.521866 
L 299.128998 50.925117 
L 300.760428 34.683138 
L 302.391858 32.973456 
L 304.023288 42.376707 
L 305.654718 44.94123 
L 307.286148 40.667025 
L 308.917578 57.763845 
L 312.180437 61.183208 
L 313.811867 69.731618 
L 315.443297 49.215435 
L 317.074727 38.102502 
L 318.706157 36.39282 
L 320.337587 39.812184 
L 321.969017 31.263774 
L 323.600447 34.683138 
L 325.231876 29.554092 
L 328.494736 39.812184 
L 330.126166 45.796071 
L 331.757596 50.925117 
L 333.389026 47.505753 
L 335.020456 53.48964 
L 336.651886 58.618686 
L 338.283315 50.070276 
L 339.914745 48.360594 
L 341.546175 62.038049 
L 343.177605 62.89289 
L 344.809035 65.457413 
L 346.440465 50.925117 
L 348.071895 56.054163 
L 349.703325 47.505753 
L 351.334754 49.215435 
L 352.966184 35.537979 
L 354.597614 34.683138 
L 356.229044 55.199322 
L 357.860474 51.779958 
L 359.491904 61.183208 
L 361.123334 56.909004 
L 362.754764 54.344481 
L 364.386193 62.038049 
L 366.017623 62.038049 
L 367.649053 57.763845 
L 369.280483 45.796071 
L 370.911913 44.94123 
L 372.543343 50.070276 
L 374.174773 57.763845 
L 374.174773 57.763845 
" style="fill:none;stroke:#1f77b4;stroke-linecap:square;stroke-width:1.5;"/>
   </g>
   <g id="line2d_17">
    <path clip-path="url(#pf3a17d40f7)" d="M 49.520227 261.216 
L 51.151657 249.248226 
L 52.783087 216.764269 
L 54.414517 180.006106 
L 56.045947 150.086671 
L 57.677377 130.425329 
L 59.308807 106.489781 
L 60.940236 97.941371 
L 62.571666 84.263915 
L 65.834526 67.167095 
L 67.465956 56.054163 
L 69.097386 33.828297 
L 70.728816 49.215435 
L 72.360246 52.634799 
L 73.991675 62.038049 
L 75.623105 49.215435 
L 77.254535 26.989569 
L 78.885965 34.683138 
L 80.517395 36.39282 
L 82.148825 45.796071 
L 83.780255 40.667025 
L 85.411685 36.39282 
L 87.043114 40.667025 
L 88.674544 53.48964 
L 90.305974 25.279887 
L 91.937404 35.537979 
L 93.568834 43.231548 
L 95.200264 21.860523 
L 96.831694 31.263774 
L 98.463124 31.263774 
L 100.094553 50.070276 
L 101.725983 48.360594 
L 103.357413 56.909004 
L 104.988843 44.086389 
L 106.620273 50.070276 
L 108.251703 55.199322 
L 109.883133 43.231548 
L 111.514563 54.344481 
L 113.145992 39.812184 
L 114.777422 28.699251 
L 116.408852 40.667025 
L 118.040282 48.360594 
L 119.671712 38.957343 
L 121.303142 42.376707 
L 122.934572 41.521866 
L 124.566002 32.973456 
L 126.197431 43.231548 
L 127.828861 38.957343 
L 129.460291 29.554092 
L 131.091721 33.828297 
L 132.723151 21.860523 
L 134.354581 26.134728 
L 135.986011 22.715364 
L 137.617441 44.086389 
L 139.24887 50.925117 
L 140.8803 60.328367 
L 142.51173 52.634799 
L 144.14316 40.667025 
L 145.77459 41.521866 
L 147.40602 22.715364 
L 149.03745 34.683138 
L 150.66888 47.505753 
L 152.30031 42.376707 
L 153.931739 52.634799 
L 155.563169 43.231548 
L 157.194599 41.521866 
L 158.826029 20.150841 
L 160.457459 27.84441 
L 162.088889 19.296 
L 163.720319 41.521866 
L 165.351749 36.39282 
L 166.983178 37.247661 
L 168.614608 44.086389 
L 170.246038 41.521866 
L 171.877468 32.973456 
L 173.508898 45.796071 
L 175.140328 50.070276 
L 176.771758 56.054163 
L 178.403188 57.763845 
L 180.034617 34.683138 
L 181.666047 34.683138 
L 183.297477 41.521866 
L 184.928907 32.973456 
L 186.560337 41.521866 
L 188.191767 39.812184 
L 189.823197 53.48964 
L 191.454627 52.634799 
L 193.086056 40.667025 
L 194.717486 47.505753 
L 196.348916 48.360594 
L 197.980346 50.925117 
L 199.611776 57.763845 
L 201.243206 60.328367 
L 202.874636 55.199322 
L 204.506066 53.48964 
L 206.137495 63.747731 
L 207.768925 62.89289 
L 209.400355 59.473527 
L 211.031785 55.199322 
L 212.663215 60.328367 
L 214.294645 60.328367 
L 215.926075 58.618686 
L 217.557505 38.102502 
L 219.188934 37.247661 
L 220.820364 45.796071 
L 222.451794 62.89289 
L 224.083224 62.89289 
L 225.714654 61.183208 
L 227.346084 73.150982 
L 228.977514 77.425187 
L 230.608944 56.054163 
L 232.240373 41.521866 
L 233.871803 48.360594 
L 235.503233 32.118615 
L 237.134663 39.812184 
L 238.766093 40.667025 
L 240.397523 48.360594 
L 242.028953 50.925117 
L 243.660383 45.796071 
L 245.291812 30.408933 
L 246.923242 38.957343 
L 248.554672 35.537979 
L 250.186102 54.344481 
L 251.817532 36.39282 
L 253.448962 48.360594 
L 255.080392 33.828297 
L 256.711822 33.828297 
L 258.343251 27.84441 
L 259.974681 32.118615 
L 263.237541 60.328367 
L 264.868971 60.328367 
L 266.500401 67.167095 
L 268.131831 41.521866 
L 269.763261 58.618686 
L 271.39469 60.328367 
L 273.02612 40.667025 
L 274.65755 42.376707 
L 276.28898 51.779958 
L 277.92041 44.94123 
L 279.55184 54.344481 
L 281.18327 48.360594 
L 282.8147 45.796071 
L 284.44613 44.086389 
L 286.077559 58.618686 
L 287.708989 62.89289 
L 289.340419 46.650912 
L 290.971849 41.521866 
L 292.603279 47.505753 
L 295.866139 62.89289 
L 297.497569 51.779958 
L 299.128998 38.102502 
L 300.760428 44.94123 
L 302.391858 35.537979 
L 304.023288 26.989569 
L 305.654718 30.408933 
L 307.286148 45.796071 
L 308.917578 31.263774 
L 310.549008 38.102502 
L 313.811867 38.102502 
L 315.443297 50.070276 
L 317.074727 48.360594 
L 318.706157 50.925117 
L 320.337587 42.376707 
L 321.969017 67.167095 
L 323.600447 51.779958 
L 325.231876 62.89289 
L 326.863306 57.763845 
L 328.494736 62.89289 
L 330.126166 52.634799 
L 331.757596 45.796071 
L 333.389026 36.39282 
L 335.020456 38.102502 
L 336.651886 41.521866 
L 338.283315 48.360594 
L 339.914745 54.344481 
L 341.546175 45.796071 
L 343.177605 54.344481 
L 344.809035 56.054163 
L 346.440465 66.312254 
L 348.071895 63.747731 
L 349.703325 56.909004 
L 351.334754 50.925117 
L 352.966184 53.48964 
L 354.597614 45.796071 
L 356.229044 32.118615 
L 357.860474 36.39282 
L 359.491904 27.84441 
L 361.123334 31.263774 
L 362.754764 45.796071 
L 364.386193 44.086389 
L 366.017623 43.231548 
L 367.649053 44.94123 
L 369.280483 61.183208 
L 370.911913 59.473527 
L 372.543343 47.505753 
L 374.174773 47.505753 
L 374.174773 47.505753 
" style="fill:none;stroke:#ff7f0e;stroke-linecap:square;stroke-width:1.5;"/>
   </g>
   <g id="patch_3">
    <path d="M 33.2875 273.312 
L 33.2875 7.2 
" style="fill:none;stroke:#000000;stroke-linecap:square;stroke-linejoin:miter;stroke-width:0.8;"/>
   </g>
   <g id="patch_4">
    <path d="M 390.4075 273.312 
L 390.4075 7.2 
" style="fill:none;stroke:#000000;stroke-linecap:square;stroke-linejoin:miter;stroke-width:0.8;"/>
   </g>
   <g id="patch_5">
    <path d="M 33.2875 273.312 
L 390.4075 273.312 
" style="fill:none;stroke:#000000;stroke-linecap:square;stroke-linejoin:miter;stroke-width:0.8;"/>
   </g>
   <g id="patch_6">
    <path d="M 33.2875 7.2 
L 390.4075 7.2 
" style="fill:none;stroke:#000000;stroke-linecap:square;stroke-linejoin:miter;stroke-width:0.8;"/>
   </g>
  </g>
 </g>
 <defs>
  <clipPath id="pf3a17d40f7">
   <rect height="266.112" width="357.12" x="33.2875" y="7.2"/>
  </clipPath>
 </defs>
</svg>
