<?xml version="1.0" encoding="utf-8" standalone="no"?>
<!DOCTYPE svg PUBLIC "-//W3C//DTD SVG 1.1//EN"
  "http://www.w3.org/Graphics/SVG/1.1/DTD/svg11.dtd">
<svg xmlns:xlink="http://www.w3.org/1999/xlink" width="403.97pt" height="297.190125pt" viewBox="0 0 403.97 297.190125" xmlns="http://www.w3.org/2000/svg" version="1.1">
 <metadata>
  <rdf:RDF xmlns:dc="http://purl.org/dc/elements/1.1/" xmlns:cc="http://creativecommons.org/ns#" xmlns:rdf="http://www.w3.org/1999/02/22-rdf-syntax-ns#">
   <cc:Work>
    <dc:type rdf:resource="http://purl.org/dc/dcmitype/StillImage"/>
    <dc:date>2023-07-18T13:34:52.637751</dc:date>
    <dc:format>image/svg+xml</dc:format>
    <dc:creator>
     <cc:Agent>
      <dc:title>Matplotlib v3.7.2, https://matplotlib.org/</dc:title>
     </cc:Agent>
    </dc:creator>
   </cc:Work>
  </rdf:RDF>
 </metadata>
 <defs>
  <style type="text/css">*{stroke-linejoin: round; stroke-linecap: butt}</style>
 </defs>
 <g id="figure_1">
  <g id="patch_1">
   <path d="M 0 297.190125 
L 403.97 297.190125 
L 403.97 0 
L 0 0 
z
" style="fill: #ffffff"/>
  </g>
  <g id="axes_1">
   <g id="patch_2">
    <path d="M 39.65 273.312 
L 396.77 273.312 
L 396.77 7.2 
L 39.65 7.2 
z
" style="fill: #ffffff"/>
   </g>
   <g id="matplotlib.axis_1">
    <g id="xtick_1">
     <g id="line2d_1">
      <defs>
       <path id="m0daa2bb1bf" d="M 0 0 
L 0 3.5 
" style="stroke: #000000; stroke-width: 0.8"/>
      </defs>
      <g>
       <use xlink:href="#m0daa2bb1bf" x="55.882727" y="273.312" style="stroke: #000000; stroke-width: 0.8"/>
      </g>
     </g>
     <g id="text_1">
      <!-- 0.0 -->
      <g transform="translate(47.931165 287.910437) scale(0.1 -0.1)">
       <defs>
        <path id="DejaVuSans-30" d="M 2034 4250 
Q 1547 4250 1301 3770 
Q 1056 3291 1056 2328 
Q 1056 1369 1301 889 
Q 1547 409 2034 409 
Q 2525 409 2770 889 
Q 3016 1369 3016 2328 
Q 3016 3291 2770 3770 
Q 2525 4250 2034 4250 
z
M 2034 4750 
Q 2819 4750 3233 4129 
Q 3647 3509 3647 2328 
Q 3647 1150 3233 529 
Q 2819 -91 2034 -91 
Q 1250 -91 836 529 
Q 422 1150 422 2328 
Q 422 3509 836 4129 
Q 1250 4750 2034 4750 
z
" transform="scale(0.015625)"/>
        <path id="DejaVuSans-2e" d="M 684 794 
L 1344 794 
L 1344 0 
L 684 0 
L 684 794 
z
" transform="scale(0.015625)"/>
       </defs>
       <use xlink:href="#DejaVuSans-30"/>
       <use xlink:href="#DejaVuSans-2e" x="63.623047"/>
       <use xlink:href="#DejaVuSans-30" x="95.410156"/>
      </g>
     </g>
    </g>
    <g id="xtick_2">
     <g id="line2d_2">
      <g>
       <use xlink:href="#m0daa2bb1bf" x="96.668474" y="273.312" style="stroke: #000000; stroke-width: 0.8"/>
      </g>
     </g>
     <g id="text_2">
      <!-- 2.5 -->
      <g transform="translate(88.716912 287.910437) scale(0.1 -0.1)">
       <defs>
        <path id="DejaVuSans-32" d="M 1228 531 
L 3431 531 
L 3431 0 
L 469 0 
L 469 531 
Q 828 903 1448 1529 
Q 2069 2156 2228 2338 
Q 2531 2678 2651 2914 
Q 2772 3150 2772 3378 
Q 2772 3750 2511 3984 
Q 2250 4219 1831 4219 
Q 1534 4219 1204 4116 
Q 875 4013 500 3803 
L 500 4441 
Q 881 4594 1212 4672 
Q 1544 4750 1819 4750 
Q 2544 4750 2975 4387 
Q 3406 4025 3406 3419 
Q 3406 3131 3298 2873 
Q 3191 2616 2906 2266 
Q 2828 2175 2409 1742 
Q 1991 1309 1228 531 
z
" transform="scale(0.015625)"/>
        <path id="DejaVuSans-35" d="M 691 4666 
L 3169 4666 
L 3169 4134 
L 1269 4134 
L 1269 2991 
Q 1406 3038 1543 3061 
Q 1681 3084 1819 3084 
Q 2600 3084 3056 2656 
Q 3513 2228 3513 1497 
Q 3513 744 3044 326 
Q 2575 -91 1722 -91 
Q 1428 -91 1123 -41 
Q 819 9 494 109 
L 494 744 
Q 775 591 1075 516 
Q 1375 441 1709 441 
Q 2250 441 2565 725 
Q 2881 1009 2881 1497 
Q 2881 1984 2565 2268 
Q 2250 2553 1709 2553 
Q 1456 2553 1204 2497 
Q 953 2441 691 2322 
L 691 4666 
z
" transform="scale(0.015625)"/>
       </defs>
       <use xlink:href="#DejaVuSans-32"/>
       <use xlink:href="#DejaVuSans-2e" x="63.623047"/>
       <use xlink:href="#DejaVuSans-35" x="95.410156"/>
      </g>
     </g>
    </g>
    <g id="xtick_3">
     <g id="line2d_3">
      <g>
       <use xlink:href="#m0daa2bb1bf" x="137.454221" y="273.312" style="stroke: #000000; stroke-width: 0.8"/>
      </g>
     </g>
     <g id="text_3">
      <!-- 5.0 -->
      <g transform="translate(129.502659 287.910437) scale(0.1 -0.1)">
       <use xlink:href="#DejaVuSans-35"/>
       <use xlink:href="#DejaVuSans-2e" x="63.623047"/>
       <use xlink:href="#DejaVuSans-30" x="95.410156"/>
      </g>
     </g>
    </g>
    <g id="xtick_4">
     <g id="line2d_4">
      <g>
       <use xlink:href="#m0daa2bb1bf" x="178.239968" y="273.312" style="stroke: #000000; stroke-width: 0.8"/>
      </g>
     </g>
     <g id="text_4">
      <!-- 7.5 -->
      <g transform="translate(170.288406 287.910437) scale(0.1 -0.1)">
       <defs>
        <path id="DejaVuSans-37" d="M 525 4666 
L 3525 4666 
L 3525 4397 
L 1831 0 
L 1172 0 
L 2766 4134 
L 525 4134 
L 525 4666 
z
" transform="scale(0.015625)"/>
       </defs>
       <use xlink:href="#DejaVuSans-37"/>
       <use xlink:href="#DejaVuSans-2e" x="63.623047"/>
       <use xlink:href="#DejaVuSans-35" x="95.410156"/>
      </g>
     </g>
    </g>
    <g id="xtick_5">
     <g id="line2d_5">
      <g>
       <use xlink:href="#m0daa2bb1bf" x="219.025715" y="273.312" style="stroke: #000000; stroke-width: 0.8"/>
      </g>
     </g>
     <g id="text_5">
      <!-- 10.0 -->
      <g transform="translate(207.892902 287.910437) scale(0.1 -0.1)">
       <defs>
        <path id="DejaVuSans-31" d="M 794 531 
L 1825 531 
L 1825 4091 
L 703 3866 
L 703 4441 
L 1819 4666 
L 2450 4666 
L 2450 531 
L 3481 531 
L 3481 0 
L 794 0 
L 794 531 
z
" transform="scale(0.015625)"/>
       </defs>
       <use xlink:href="#DejaVuSans-31"/>
       <use xlink:href="#DejaVuSans-30" x="63.623047"/>
       <use xlink:href="#DejaVuSans-2e" x="127.246094"/>
       <use xlink:href="#DejaVuSans-30" x="159.033203"/>
      </g>
     </g>
    </g>
    <g id="xtick_6">
     <g id="line2d_6">
      <g>
       <use xlink:href="#m0daa2bb1bf" x="259.811462" y="273.312" style="stroke: #000000; stroke-width: 0.8"/>
      </g>
     </g>
     <g id="text_6">
      <!-- 12.5 -->
      <g transform="translate(248.678649 287.910437) scale(0.1 -0.1)">
       <use xlink:href="#DejaVuSans-31"/>
       <use xlink:href="#DejaVuSans-32" x="63.623047"/>
       <use xlink:href="#DejaVuSans-2e" x="127.246094"/>
       <use xlink:href="#DejaVuSans-35" x="159.033203"/>
      </g>
     </g>
    </g>
    <g id="xtick_7">
     <g id="line2d_7">
      <g>
       <use xlink:href="#m0daa2bb1bf" x="300.597209" y="273.312" style="stroke: #000000; stroke-width: 0.8"/>
      </g>
     </g>
     <g id="text_7">
      <!-- 15.0 -->
      <g transform="translate(289.464396 287.910437) scale(0.1 -0.1)">
       <use xlink:href="#DejaVuSans-31"/>
       <use xlink:href="#DejaVuSans-35" x="63.623047"/>
       <use xlink:href="#DejaVuSans-2e" x="127.246094"/>
       <use xlink:href="#DejaVuSans-30" x="159.033203"/>
      </g>
     </g>
    </g>
    <g id="xtick_8">
     <g id="line2d_8">
      <g>
       <use xlink:href="#m0daa2bb1bf" x="341.382956" y="273.312" style="stroke: #000000; stroke-width: 0.8"/>
      </g>
     </g>
     <g id="text_8">
      <!-- 17.5 -->
      <g transform="translate(330.250143 287.910437) scale(0.1 -0.1)">
       <use xlink:href="#DejaVuSans-31"/>
       <use xlink:href="#DejaVuSans-37" x="63.623047"/>
       <use xlink:href="#DejaVuSans-2e" x="127.246094"/>
       <use xlink:href="#DejaVuSans-35" x="159.033203"/>
      </g>
     </g>
    </g>
    <g id="xtick_9">
     <g id="line2d_9">
      <g>
       <use xlink:href="#m0daa2bb1bf" x="382.168703" y="273.312" style="stroke: #000000; stroke-width: 0.8"/>
      </g>
     </g>
     <g id="text_9">
      <!-- 20.0 -->
      <g transform="translate(371.03589 287.910437) scale(0.1 -0.1)">
       <use xlink:href="#DejaVuSans-32"/>
       <use xlink:href="#DejaVuSans-30" x="63.623047"/>
       <use xlink:href="#DejaVuSans-2e" x="127.246094"/>
       <use xlink:href="#DejaVuSans-30" x="159.033203"/>
      </g>
     </g>
    </g>
   </g>
   <g id="matplotlib.axis_2">
    <g id="ytick_1">
     <g id="line2d_10">
      <defs>
       <path id="m62985980fb" d="M 0 0 
L -3.5 0 
" style="stroke: #000000; stroke-width: 0.8"/>
      </defs>
      <g>
       <use xlink:href="#m62985980fb" x="39.65" y="261.216" style="stroke: #000000; stroke-width: 0.8"/>
      </g>
     </g>
     <g id="text_10">
      <!-- 0 -->
      <g transform="translate(26.2875 265.015219) scale(0.1 -0.1)">
       <use xlink:href="#DejaVuSans-30"/>
      </g>
     </g>
    </g>
    <g id="ytick_2">
     <g id="line2d_11">
      <g>
       <use xlink:href="#m62985980fb" x="39.65" y="221.789664" style="stroke: #000000; stroke-width: 0.8"/>
      </g>
     </g>
     <g id="text_11">
      <!-- 500 -->
      <g transform="translate(13.5625 225.588882) scale(0.1 -0.1)">
       <use xlink:href="#DejaVuSans-35"/>
       <use xlink:href="#DejaVuSans-30" x="63.623047"/>
       <use xlink:href="#DejaVuSans-30" x="127.246094"/>
      </g>
     </g>
    </g>
    <g id="ytick_3">
     <g id="line2d_12">
      <g>
       <use xlink:href="#m62985980fb" x="39.65" y="182.363327" style="stroke: #000000; stroke-width: 0.8"/>
      </g>
     </g>
     <g id="text_12">
      <!-- 1000 -->
      <g transform="translate(7.2 186.162546) scale(0.1 -0.1)">
       <use xlink:href="#DejaVuSans-31"/>
       <use xlink:href="#DejaVuSans-30" x="63.623047"/>
       <use xlink:href="#DejaVuSans-30" x="127.246094"/>
       <use xlink:href="#DejaVuSans-30" x="190.869141"/>
      </g>
     </g>
    </g>
    <g id="ytick_4">
     <g id="line2d_13">
      <g>
       <use xlink:href="#m62985980fb" x="39.65" y="142.936991" style="stroke: #000000; stroke-width: 0.8"/>
      </g>
     </g>
     <g id="text_13">
      <!-- 1500 -->
      <g transform="translate(7.2 146.73621) scale(0.1 -0.1)">
       <use xlink:href="#DejaVuSans-31"/>
       <use xlink:href="#DejaVuSans-35" x="63.623047"/>
       <use xlink:href="#DejaVuSans-30" x="127.246094"/>
       <use xlink:href="#DejaVuSans-30" x="190.869141"/>
      </g>
     </g>
    </g>
    <g id="ytick_5">
     <g id="line2d_14">
      <g>
       <use xlink:href="#m62985980fb" x="39.65" y="103.510654" style="stroke: #000000; stroke-width: 0.8"/>
      </g>
     </g>
     <g id="text_14">
      <!-- 2000 -->
      <g transform="translate(7.2 107.309873) scale(0.1 -0.1)">
       <use xlink:href="#DejaVuSans-32"/>
       <use xlink:href="#DejaVuSans-30" x="63.623047"/>
       <use xlink:href="#DejaVuSans-30" x="127.246094"/>
       <use xlink:href="#DejaVuSans-30" x="190.869141"/>
      </g>
     </g>
    </g>
    <g id="ytick_6">
     <g id="line2d_15">
      <g>
       <use xlink:href="#m62985980fb" x="39.65" y="64.084318" style="stroke: #000000; stroke-width: 0.8"/>
      </g>
     </g>
     <g id="text_15">
      <!-- 2500 -->
      <g transform="translate(7.2 67.883537) scale(0.1 -0.1)">
       <use xlink:href="#DejaVuSans-32"/>
       <use xlink:href="#DejaVuSans-35" x="63.623047"/>
       <use xlink:href="#DejaVuSans-30" x="127.246094"/>
       <use xlink:href="#DejaVuSans-30" x="190.869141"/>
      </g>
     </g>
    </g>
    <g id="ytick_7">
     <g id="line2d_16">
      <g>
       <use xlink:href="#m62985980fb" x="39.65" y="24.657982" style="stroke: #000000; stroke-width: 0.8"/>
      </g>
     </g>
     <g id="text_16">
      <!-- 3000 -->
      <g transform="translate(7.2 28.4572) scale(0.1 -0.1)">
       <defs>
        <path id="DejaVuSans-33" d="M 2597 2516 
Q 3050 2419 3304 2112 
Q 3559 1806 3559 1356 
Q 3559 666 3084 287 
Q 2609 -91 1734 -91 
Q 1441 -91 1130 -33 
Q 819 25 488 141 
L 488 750 
Q 750 597 1062 519 
Q 1375 441 1716 441 
Q 2309 441 2620 675 
Q 2931 909 2931 1356 
Q 2931 1769 2642 2001 
Q 2353 2234 1838 2234 
L 1294 2234 
L 1294 2753 
L 1863 2753 
Q 2328 2753 2575 2939 
Q 2822 3125 2822 3475 
Q 2822 3834 2567 4026 
Q 2313 4219 1838 4219 
Q 1578 4219 1281 4162 
Q 984 4106 628 3988 
L 628 4550 
Q 988 4650 1302 4700 
Q 1616 4750 1894 4750 
Q 2613 4750 3031 4423 
Q 3450 4097 3450 3541 
Q 3450 3153 3228 2886 
Q 3006 2619 2597 2516 
z
" transform="scale(0.015625)"/>
       </defs>
       <use xlink:href="#DejaVuSans-33"/>
       <use xlink:href="#DejaVuSans-30" x="63.623047"/>
       <use xlink:href="#DejaVuSans-30" x="127.246094"/>
       <use xlink:href="#DejaVuSans-30" x="190.869141"/>
      </g>
     </g>
    </g>
   </g>
   <g id="line2d_17">
    <path d="M 55.882727 261.216 
L 59.961302 241.502832 
L 64.039877 223.690013 
L 68.118451 207.59435 
L 72.197026 193.050309 
L 76.275601 179.908313 
L 80.354175 168.033206 
L 84.43275 157.302859 
L 88.511325 147.606918 
L 92.589899 138.845665 
L 96.668474 130.928997 
L 100.747049 123.775496 
L 104.825624 117.311593 
L 108.904198 111.470809 
L 112.982773 106.193077 
L 117.061348 101.424119 
L 121.139922 97.114888 
L 125.218497 93.221067 
L 129.297072 89.70261 
L 133.375646 86.523333 
L 137.454221 83.650538 
L 141.532796 81.05468 
L 145.61137 78.709063 
L 149.689945 76.589564 
L 153.76852 74.674384 
L 157.847095 72.943828 
L 161.925669 71.380097 
L 166.004244 69.96711 
L 170.082819 68.690335 
L 174.161393 67.536641 
L 178.239968 66.494163 
L 182.318543 65.55218 
L 186.397117 64.701004 
L 190.475692 63.931881 
L 194.554267 63.236902 
L 198.632841 62.608919 
L 202.711416 62.041473 
L 206.789991 61.528729 
L 210.868566 61.065414 
L 214.94714 60.646762 
L 219.025715 60.268469 
L 223.10429 59.926643 
L 227.182864 59.617768 
L 231.261439 59.33867 
L 235.340014 59.086476 
L 239.418588 58.858594 
L 243.497163 58.65268 
L 247.575738 58.466616 
L 251.654312 58.298488 
L 255.732887 58.146568 
L 259.811462 58.009293 
L 263.890037 57.885252 
L 267.968611 57.773168 
L 272.047186 57.671888 
L 276.125761 57.580373 
L 280.204335 57.497679 
L 284.28291 57.422957 
L 288.361485 57.355438 
L 292.440059 57.294428 
L 296.518634 57.239299 
L 300.597209 57.189485 
L 304.675783 57.144473 
L 308.754358 57.1038 
L 312.832933 57.067048 
L 316.911508 57.033839 
L 320.990082 57.003831 
L 325.068657 56.976716 
L 329.147232 56.952215 
L 333.225806 56.930075 
L 337.304381 56.91007 
L 341.382956 56.891994 
L 345.46153 56.87566 
L 349.540105 56.8609 
L 353.61868 56.847564 
L 357.697254 56.835513 
L 361.775829 56.824624 
L 365.854404 56.814784 
L 369.932979 56.805893 
L 374.011553 56.797859 
L 378.090128 56.7906 
" clip-path="url(#pa9a421d612)" style="fill: none; stroke: #1f77b4; stroke-width: 1.5; stroke-linecap: square"/>
   </g>
   <g id="line2d_18">
    <path d="M 55.882727 261.216 
L 59.961302 261.216 
L 64.039877 259.315651 
L 68.118451 256.154609 
L 72.197026 252.201228 
L 76.275601 247.795404 
L 80.354175 243.18097 
L 84.43275 238.530163 
L 88.511325 233.962074 
L 92.589899 229.556552 
L 96.668474 225.364651 
L 100.747049 221.416478 
L 104.825624 217.727059 
L 108.904198 214.300717 
L 112.982773 211.134332 
L 117.061348 208.219739 
L 121.139922 205.545503 
L 125.218497 203.09821 
L 129.297072 200.863391 
L 133.375646 198.826197 
L 137.454221 196.971855 
L 141.532796 195.285988 
L 145.61137 193.754826 
L 149.689945 192.365331 
L 153.76852 191.105273 
L 157.847095 189.963258 
L 161.925669 188.928729 
L 166.004244 187.991951 
L 170.082819 187.143974 
L 174.161393 186.376601 
L 178.239968 185.682334 
L 182.318543 185.054336 
L 186.397117 184.486375 
L 190.475692 183.972785 
L 194.554267 183.508416 
L 198.632841 183.088593 
L 202.711416 182.709074 
L 206.789991 182.366013 
L 210.868566 182.055927 
L 214.94714 181.77566 
L 219.025715 181.522355 
L 223.10429 181.293427 
L 227.182864 181.086535 
L 231.261439 180.899563 
L 235.340014 180.730596 
L 239.418588 180.577904 
L 243.497163 180.439921 
L 247.575738 180.315231 
L 251.654312 180.202555 
L 255.732887 180.100736 
L 259.811462 180.00873 
L 263.890037 179.925589 
L 267.968611 179.850462 
L 272.047186 179.782575 
L 276.125761 179.721231 
L 280.204335 179.6658 
L 284.28291 179.615712 
L 288.361485 179.570452 
L 292.440059 179.529554 
L 296.518634 179.492599 
L 300.597209 179.459206 
L 304.675783 179.429032 
L 308.754358 179.401766 
L 312.832933 179.377129 
L 316.911508 179.354867 
L 320.990082 179.334751 
L 325.068657 179.316574 
L 329.147232 179.300149 
L 333.225806 179.285307 
L 337.304381 179.271897 
L 341.382956 179.259779 
L 345.46153 179.248829 
L 349.540105 179.238935 
L 353.61868 179.229994 
L 357.697254 179.221915 
L 361.775829 179.214616 
L 365.854404 179.208019 
L 369.932979 179.202059 
L 374.011553 179.196673 
L 378.090128 179.191807 
" clip-path="url(#pa9a421d612)" style="fill: none; stroke: #ff7f0e; stroke-width: 1.5; stroke-linecap: square"/>
   </g>
   <g id="line2d_19">
    <path d="M 55.882727 261.216 
L 57.514157 254.671228 
L 59.145587 245.28776 
L 60.777017 238.979546 
L 64.039877 224.943771 
L 67.302736 210.986847 
L 70.565596 198.528125 
L 72.197026 191.431385 
L 75.459886 179.524631 
L 77.091316 174.162649 
L 78.722746 169.273784 
L 80.354175 164.936887 
L 83.617035 155.00145 
L 86.879895 148.772089 
L 88.511325 146.958477 
L 90.142755 144.119781 
L 91.774185 140.492558 
L 93.405614 136.234514 
L 95.037044 132.528438 
L 96.668474 130.084005 
L 98.299904 124.800876 
L 99.931334 123.223823 
L 101.562764 120.306274 
L 103.194194 116.757904 
L 104.825624 115.259703 
L 106.457053 113.130681 
L 111.351343 107.847551 
L 112.982773 103.66836 
L 114.614203 101.066222 
L 116.245633 96.335061 
L 117.877063 93.732923 
L 119.508492 92.313575 
L 122.771352 87.74012 
L 124.402782 85.768803 
L 126.034212 85.137982 
L 127.665642 83.00896 
L 129.297072 81.826169 
L 130.928502 80.485674 
L 132.559931 79.381737 
L 134.191361 78.514357 
L 135.822791 77.804683 
L 139.085651 73.86205 
L 140.717081 70.392532 
L 142.348511 67.632688 
L 143.979941 67.001867 
L 145.61137 64.320876 
L 147.2428 64.320876 
L 148.87423 62.66497 
L 150.50566 61.718738 
L 152.13709 60.457095 
L 155.39995 56.672167 
L 157.03138 55.252819 
L 158.66281 55.173966 
L 160.294239 52.729533 
L 161.925669 50.994774 
L 163.557099 48.865752 
L 165.188529 46.973288 
L 166.819959 46.73673 
L 168.451389 47.288699 
L 170.082819 45.790498 
L 171.714249 47.525257 
L 173.345678 48.392636 
L 174.977108 47.446404 
L 176.608538 45.869351 
L 179.871398 41.769012 
L 183.134258 42.636391 
L 184.765688 40.191958 
L 186.397117 39.561137 
L 188.028547 40.507369 
L 189.659977 39.876548 
L 191.291407 40.034253 
L 192.922837 36.40703 
L 194.554267 36.643588 
L 196.185697 35.776209 
L 197.817127 35.618503 
L 201.079986 36.328177 
L 202.711416 34.908829 
L 204.342846 36.880146 
L 205.974276 37.510967 
L 207.605706 36.958999 
L 210.868566 33.568334 
L 212.499995 30.019963 
L 215.762855 27.575531 
L 217.394285 27.733236 
L 219.025715 27.733236 
L 220.657145 26.156183 
L 222.288575 26.235035 
L 223.920005 25.052245 
L 225.551434 26.629299 
L 227.182864 27.417825 
L 228.814294 27.26012 
L 230.445724 26.471593 
L 232.077154 27.102415 
L 233.708584 29.231437 
L 236.971444 29.467995 
L 238.602873 28.916026 
L 240.234303 28.206352 
L 241.865733 27.969794 
L 243.497163 28.127499 
L 245.128593 26.865857 
L 246.760023 24.579129 
L 248.391453 25.20995 
L 250.022883 23.632897 
L 251.654312 21.188464 
L 253.285742 20.715348 
L 256.548602 21.267317 
L 258.180032 20.47879 
L 261.442892 21.503875 
L 263.074322 20.636495 
L 264.705751 20.47879 
L 266.337181 21.109611 
L 267.968611 23.632897 
L 269.600041 23.475192 
L 271.231471 25.367656 
L 272.862901 24.973392 
L 274.494331 25.20995 
L 277.75719 27.102415 
L 279.38862 25.446508 
L 281.02005 24.421424 
L 282.65148 26.07733 
L 284.28291 25.131098 
L 285.91434 26.708151 
L 287.54577 28.521763 
L 289.1772 28.44291 
L 290.80863 27.890941 
L 292.440059 25.683066 
L 294.071489 23.869455 
L 295.702919 24.89454 
L 297.334349 26.07733 
L 298.965779 25.20995 
L 300.597209 27.575531 
L 302.228639 26.944709 
L 303.860069 25.761919 
L 305.491498 25.367656 
L 307.122928 25.288803 
L 308.754358 25.446508 
L 310.385788 27.26012 
L 312.017218 26.07733 
L 313.648648 24.657982 
L 315.280078 22.52896 
L 316.911508 21.503875 
L 318.542937 21.188464 
L 320.174367 19.611411 
L 321.805797 19.296 
L 323.437227 19.769116 
L 325.068657 19.690263 
L 326.700087 19.296 
L 328.331517 21.740433 
L 329.962947 20.794201 
L 333.225806 20.951906 
L 334.857236 22.292402 
L 336.488666 22.450107 
L 338.120096 25.131098 
L 339.751526 25.840772 
L 341.382956 25.20995 
L 343.014386 23.790602 
L 344.645815 25.998477 
L 346.277245 24.500276 
L 347.908675 25.919625 
L 349.540105 25.761919 
L 351.171535 26.471593 
L 352.802965 28.048647 
L 354.434395 27.496678 
L 356.065825 28.206352 
L 357.697254 29.783405 
L 359.328684 29.152584 
L 362.591544 30.256522 
L 364.222974 29.152584 
L 365.854404 25.998477 
L 367.485834 26.550446 
L 369.117264 27.496678 
L 370.748693 29.073731 
L 372.380123 29.310289 
L 374.011553 29.231437 
L 375.642983 30.098816 
L 377.274413 29.862258 
L 378.905843 30.335374 
L 380.537273 32.070133 
L 380.537273 32.070133 
" clip-path="url(#pa9a421d612)" style="fill: none; stroke: #2ca02c; stroke-width: 1.5; stroke-linecap: square"/>
   </g>
   <g id="line2d_20">
    <path d="M 55.882727 261.216 
L 59.145587 260.821737 
L 60.777017 260.03321 
L 64.039877 257.904188 
L 65.671307 256.48484 
L 67.302736 256.011724 
L 72.197026 250.965153 
L 73.828456 249.388099 
L 77.091316 245.28776 
L 78.722746 242.92218 
L 80.354175 242.133653 
L 81.985605 240.635452 
L 83.617035 238.348725 
L 85.248465 236.298555 
L 86.879895 233.854123 
L 88.511325 230.700016 
L 90.142755 228.413288 
L 93.405614 224.786065 
L 95.037044 223.051306 
L 98.299904 220.054905 
L 103.194194 213.825544 
L 106.457053 211.144553 
L 108.088483 209.252089 
L 109.719913 208.148151 
L 111.351343 205.703718 
L 112.982773 205.46716 
L 114.614203 203.653549 
L 116.245633 202.943875 
L 117.877063 201.603379 
L 119.508492 200.026326 
L 121.139922 197.976156 
L 122.771352 195.295166 
L 124.402782 193.875817 
L 126.034212 192.929585 
L 127.665642 192.377617 
L 130.928502 188.119572 
L 132.559931 187.409898 
L 134.191361 186.305961 
L 135.822791 184.965465 
L 137.454221 182.836443 
L 139.085651 182.599885 
L 140.717081 182.205622 
L 142.348511 180.707421 
L 143.979941 177.632167 
L 145.61137 178.420694 
L 147.2428 176.764787 
L 148.87423 175.66085 
L 150.50566 175.581997 
L 152.13709 175.108881 
L 153.76852 175.030029 
L 155.39995 173.452975 
L 157.03138 172.822154 
L 158.66281 170.614279 
L 160.294239 171.166248 
L 161.925669 171.008542 
L 163.557099 169.7469 
L 165.188529 169.589194 
L 166.819959 168.327551 
L 168.451389 165.961971 
L 170.082819 165.094592 
L 171.714249 163.517538 
L 173.345678 162.807864 
L 174.977108 162.334748 
L 176.608538 162.492454 
L 178.239968 162.177043 
L 179.871398 162.255896 
L 181.502828 159.338347 
L 183.134258 158.944083 
L 184.765688 159.574905 
L 186.397117 158.234409 
L 188.028547 155.789977 
L 189.659977 155.789977 
L 191.291407 153.897512 
L 192.922837 155.00145 
L 194.554267 153.660954 
L 196.185697 152.714722 
L 199.448556 152.714722 
L 201.079986 151.216522 
L 202.711416 151.137669 
L 204.342846 149.954879 
L 205.974276 148.929794 
L 207.605706 149.087499 
L 209.237136 150.664553 
L 210.868566 151.76849 
L 212.499995 152.162754 
L 214.131425 151.76849 
L 215.762855 152.557017 
L 217.394285 150.901111 
L 219.025715 151.689638 
L 220.657145 151.76849 
L 222.288575 151.374227 
L 223.920005 151.76849 
L 227.182864 149.324057 
L 228.814294 147.510446 
L 230.445724 146.643066 
L 232.077154 146.327656 
L 233.708584 145.223718 
L 235.340014 145.144866 
L 236.971444 144.356339 
L 238.602873 143.252402 
L 240.234303 143.725518 
L 241.865733 143.410107 
L 243.497163 145.066013 
L 245.128593 145.85454 
L 246.760023 144.98716 
L 248.391453 145.223718 
L 250.022883 144.67175 
L 251.654312 146.248803 
L 253.285742 146.485361 
L 254.917172 144.908308 
L 256.548602 143.962076 
L 259.811462 144.277486 
L 261.442892 145.066013 
L 263.074322 145.381424 
L 264.705751 145.933392 
L 266.337181 147.116183 
L 267.968611 146.879625 
L 271.231471 145.85454 
L 272.862901 146.248803 
L 274.494331 146.16995 
L 276.125761 146.248803 
L 277.75719 145.933392 
L 279.38862 146.248803 
L 281.02005 145.460276 
L 282.65148 143.646665 
L 284.28291 143.962076 
L 285.91434 143.725518 
L 287.54577 146.16995 
L 289.1772 145.223718 
L 290.80863 144.750602 
L 292.440059 146.800772 
L 294.071489 144.829455 
L 295.702919 144.277486 
L 297.334349 143.962076 
L 298.965779 144.040928 
L 300.597209 141.833053 
L 302.228639 141.044527 
L 303.860069 142.148464 
L 305.491498 142.858138 
L 307.122928 140.729116 
L 308.754358 141.43879 
L 310.385788 140.413705 
L 312.017218 141.123379 
L 313.648648 141.990759 
L 315.280078 143.725518 
L 316.911508 142.62158 
L 318.542937 142.227317 
L 320.174367 140.334853 
L 321.805797 140.098295 
L 323.437227 139.07321 
L 325.068657 138.915505 
L 326.700087 140.650263 
L 328.331517 140.965674 
L 331.594376 141.281085 
L 333.225806 141.044527 
L 334.857236 140.571411 
L 336.488666 141.754201 
L 338.120096 140.019442 
L 339.751526 139.940589 
L 341.382956 139.152063 
L 343.014386 139.546326 
L 344.645815 137.732714 
L 346.277245 138.363536 
L 347.908675 137.101893 
L 349.540105 138.126978 
L 351.171535 136.786482 
L 352.802965 134.736313 
L 354.434395 135.288282 
L 356.065825 135.603692 
L 357.697254 135.367134 
L 359.328684 133.159259 
L 360.960114 132.370733 
L 362.591544 132.607291 
L 365.854404 135.84025 
L 367.485834 136.313366 
L 369.117264 135.52484 
L 370.748693 133.868934 
L 372.380123 133.080407 
L 374.011553 133.001554 
L 375.642983 133.790081 
L 377.274413 134.105492 
L 378.905843 134.736313 
L 380.537273 135.682545 
L 380.537273 135.682545 
" clip-path="url(#pa9a421d612)" style="fill: none; stroke: #d62728; stroke-width: 1.5; stroke-linecap: square"/>
   </g>
   <g id="patch_3">
    <path d="M 39.65 273.312 
L 39.65 7.2 
" style="fill: none; stroke: #000000; stroke-width: 0.8; stroke-linejoin: miter; stroke-linecap: square"/>
   </g>
   <g id="patch_4">
    <path d="M 396.77 273.312 
L 396.77 7.2 
" style="fill: none; stroke: #000000; stroke-width: 0.8; stroke-linejoin: miter; stroke-linecap: square"/>
   </g>
   <g id="patch_5">
    <path d="M 39.65 273.312 
L 396.77 273.312 
" style="fill: none; stroke: #000000; stroke-width: 0.8; stroke-linejoin: miter; stroke-linecap: square"/>
   </g>
   <g id="patch_6">
    <path d="M 39.65 7.2 
L 396.77 7.2 
" style="fill: none; stroke: #000000; stroke-width: 0.8; stroke-linejoin: miter; stroke-linecap: square"/>
   </g>
  </g>
 </g>
 <defs>
  <clipPath id="pa9a421d612">
   <rect x="39.65" y="7.2" width="357.12" height="266.112"/>
  </clipPath>
 </defs>
</svg>
