<?xml version="1.0" encoding="utf-8" standalone="no"?>
<!DOCTYPE svg PUBLIC "-//W3C//DTD SVG 1.1//EN"
  "http://www.w3.org/Graphics/SVG/1.1/DTD/svg11.dtd">
<!-- Created with matplotlib (https://matplotlib.org/) -->
<svg height="297.190125pt" version="1.1" viewBox="0 0 397.6075 297.190125" width="397.6075pt" xmlns="http://www.w3.org/2000/svg" xmlns:xlink="http://www.w3.org/1999/xlink">
 <metadata>
  <rdf:RDF xmlns:cc="http://creativecommons.org/ns#" xmlns:dc="http://purl.org/dc/elements/1.1/" xmlns:rdf="http://www.w3.org/1999/02/22-rdf-syntax-ns#">
   <cc:Work>
    <dc:type rdf:resource="http://purl.org/dc/dcmitype/StillImage"/>
    <dc:date>2021-03-18T00:04:43.719248</dc:date>
    <dc:format>image/svg+xml</dc:format>
    <dc:creator>
     <cc:Agent>
      <dc:title>Matplotlib v3.3.4, https://matplotlib.org/</dc:title>
     </cc:Agent>
    </dc:creator>
   </cc:Work>
  </rdf:RDF>
 </metadata>
 <defs>
  <style type="text/css">*{stroke-linecap:butt;stroke-linejoin:round;}</style>
 </defs>
 <g id="figure_1">
  <g id="patch_1">
   <path d="M 0 297.190125 
L 397.6075 297.190125 
L 397.6075 0 
L 0 0 
z
" style="fill:#ffffff;"/>
  </g>
  <g id="axes_1">
   <g id="patch_2">
    <path d="M 33.2875 273.312 
L 390.4075 273.312 
L 390.4075 7.2 
L 33.2875 7.2 
z
" style="fill:#ffffff;"/>
   </g>
   <g id="matplotlib.axis_1">
    <g id="xtick_1">
     <g id="line2d_1">
      <defs>
       <path d="M 0 0 
L 0 3.5 
" id="m0a8d568f19" style="stroke:#000000;stroke-width:0.8;"/>
      </defs>
      <g>
       <use style="stroke:#000000;stroke-width:0.8;" x="49.520227" xlink:href="#m0a8d568f19" y="273.312"/>
      </g>
     </g>
     <g id="text_1">
      <!-- 0.0 -->
      <g transform="translate(41.568665 287.910437)scale(0.1 -0.1)">
       <defs>
        <path d="M 31.78125 66.40625 
Q 24.171875 66.40625 20.328125 58.90625 
Q 16.5 51.421875 16.5 36.375 
Q 16.5 21.390625 20.328125 13.890625 
Q 24.171875 6.390625 31.78125 6.390625 
Q 39.453125 6.390625 43.28125 13.890625 
Q 47.125 21.390625 47.125 36.375 
Q 47.125 51.421875 43.28125 58.90625 
Q 39.453125 66.40625 31.78125 66.40625 
z
M 31.78125 74.21875 
Q 44.046875 74.21875 50.515625 64.515625 
Q 56.984375 54.828125 56.984375 36.375 
Q 56.984375 17.96875 50.515625 8.265625 
Q 44.046875 -1.421875 31.78125 -1.421875 
Q 19.53125 -1.421875 13.0625 8.265625 
Q 6.59375 17.96875 6.59375 36.375 
Q 6.59375 54.828125 13.0625 64.515625 
Q 19.53125 74.21875 31.78125 74.21875 
z
" id="DejaVuSans-48"/>
        <path d="M 10.6875 12.40625 
L 21 12.40625 
L 21 0 
L 10.6875 0 
z
" id="DejaVuSans-46"/>
       </defs>
       <use xlink:href="#DejaVuSans-48"/>
       <use x="63.623047" xlink:href="#DejaVuSans-46"/>
       <use x="95.410156" xlink:href="#DejaVuSans-48"/>
      </g>
     </g>
    </g>
    <g id="xtick_2">
     <g id="line2d_2">
      <g>
       <use style="stroke:#000000;stroke-width:0.8;" x="90.305974" xlink:href="#m0a8d568f19" y="273.312"/>
      </g>
     </g>
     <g id="text_2">
      <!-- 2.5 -->
      <g transform="translate(82.354412 287.910437)scale(0.1 -0.1)">
       <defs>
        <path d="M 19.1875 8.296875 
L 53.609375 8.296875 
L 53.609375 0 
L 7.328125 0 
L 7.328125 8.296875 
Q 12.9375 14.109375 22.625 23.890625 
Q 32.328125 33.6875 34.8125 36.53125 
Q 39.546875 41.84375 41.421875 45.53125 
Q 43.3125 49.21875 43.3125 52.78125 
Q 43.3125 58.59375 39.234375 62.25 
Q 35.15625 65.921875 28.609375 65.921875 
Q 23.96875 65.921875 18.8125 64.3125 
Q 13.671875 62.703125 7.8125 59.421875 
L 7.8125 69.390625 
Q 13.765625 71.78125 18.9375 73 
Q 24.125 74.21875 28.421875 74.21875 
Q 39.75 74.21875 46.484375 68.546875 
Q 53.21875 62.890625 53.21875 53.421875 
Q 53.21875 48.921875 51.53125 44.890625 
Q 49.859375 40.875 45.40625 35.40625 
Q 44.1875 33.984375 37.640625 27.21875 
Q 31.109375 20.453125 19.1875 8.296875 
z
" id="DejaVuSans-50"/>
        <path d="M 10.796875 72.90625 
L 49.515625 72.90625 
L 49.515625 64.59375 
L 19.828125 64.59375 
L 19.828125 46.734375 
Q 21.96875 47.46875 24.109375 47.828125 
Q 26.265625 48.1875 28.421875 48.1875 
Q 40.625 48.1875 47.75 41.5 
Q 54.890625 34.8125 54.890625 23.390625 
Q 54.890625 11.625 47.5625 5.09375 
Q 40.234375 -1.421875 26.90625 -1.421875 
Q 22.3125 -1.421875 17.546875 -0.640625 
Q 12.796875 0.140625 7.71875 1.703125 
L 7.71875 11.625 
Q 12.109375 9.234375 16.796875 8.0625 
Q 21.484375 6.890625 26.703125 6.890625 
Q 35.15625 6.890625 40.078125 11.328125 
Q 45.015625 15.765625 45.015625 23.390625 
Q 45.015625 31 40.078125 35.4375 
Q 35.15625 39.890625 26.703125 39.890625 
Q 22.75 39.890625 18.8125 39.015625 
Q 14.890625 38.140625 10.796875 36.28125 
z
" id="DejaVuSans-53"/>
       </defs>
       <use xlink:href="#DejaVuSans-50"/>
       <use x="63.623047" xlink:href="#DejaVuSans-46"/>
       <use x="95.410156" xlink:href="#DejaVuSans-53"/>
      </g>
     </g>
    </g>
    <g id="xtick_3">
     <g id="line2d_3">
      <g>
       <use style="stroke:#000000;stroke-width:0.8;" x="131.091721" xlink:href="#m0a8d568f19" y="273.312"/>
      </g>
     </g>
     <g id="text_3">
      <!-- 5.0 -->
      <g transform="translate(123.140159 287.910437)scale(0.1 -0.1)">
       <use xlink:href="#DejaVuSans-53"/>
       <use x="63.623047" xlink:href="#DejaVuSans-46"/>
       <use x="95.410156" xlink:href="#DejaVuSans-48"/>
      </g>
     </g>
    </g>
    <g id="xtick_4">
     <g id="line2d_4">
      <g>
       <use style="stroke:#000000;stroke-width:0.8;" x="171.877468" xlink:href="#m0a8d568f19" y="273.312"/>
      </g>
     </g>
     <g id="text_4">
      <!-- 7.5 -->
      <g transform="translate(163.925906 287.910437)scale(0.1 -0.1)">
       <defs>
        <path d="M 8.203125 72.90625 
L 55.078125 72.90625 
L 55.078125 68.703125 
L 28.609375 0 
L 18.3125 0 
L 43.21875 64.59375 
L 8.203125 64.59375 
z
" id="DejaVuSans-55"/>
       </defs>
       <use xlink:href="#DejaVuSans-55"/>
       <use x="63.623047" xlink:href="#DejaVuSans-46"/>
       <use x="95.410156" xlink:href="#DejaVuSans-53"/>
      </g>
     </g>
    </g>
    <g id="xtick_5">
     <g id="line2d_5">
      <g>
       <use style="stroke:#000000;stroke-width:0.8;" x="212.663215" xlink:href="#m0a8d568f19" y="273.312"/>
      </g>
     </g>
     <g id="text_5">
      <!-- 10.0 -->
      <g transform="translate(201.530402 287.910437)scale(0.1 -0.1)">
       <defs>
        <path d="M 12.40625 8.296875 
L 28.515625 8.296875 
L 28.515625 63.921875 
L 10.984375 60.40625 
L 10.984375 69.390625 
L 28.421875 72.90625 
L 38.28125 72.90625 
L 38.28125 8.296875 
L 54.390625 8.296875 
L 54.390625 0 
L 12.40625 0 
z
" id="DejaVuSans-49"/>
       </defs>
       <use xlink:href="#DejaVuSans-49"/>
       <use x="63.623047" xlink:href="#DejaVuSans-48"/>
       <use x="127.246094" xlink:href="#DejaVuSans-46"/>
       <use x="159.033203" xlink:href="#DejaVuSans-48"/>
      </g>
     </g>
    </g>
    <g id="xtick_6">
     <g id="line2d_6">
      <g>
       <use style="stroke:#000000;stroke-width:0.8;" x="253.448962" xlink:href="#m0a8d568f19" y="273.312"/>
      </g>
     </g>
     <g id="text_6">
      <!-- 12.5 -->
      <g transform="translate(242.316149 287.910437)scale(0.1 -0.1)">
       <use xlink:href="#DejaVuSans-49"/>
       <use x="63.623047" xlink:href="#DejaVuSans-50"/>
       <use x="127.246094" xlink:href="#DejaVuSans-46"/>
       <use x="159.033203" xlink:href="#DejaVuSans-53"/>
      </g>
     </g>
    </g>
    <g id="xtick_7">
     <g id="line2d_7">
      <g>
       <use style="stroke:#000000;stroke-width:0.8;" x="294.234709" xlink:href="#m0a8d568f19" y="273.312"/>
      </g>
     </g>
     <g id="text_7">
      <!-- 15.0 -->
      <g transform="translate(283.101896 287.910437)scale(0.1 -0.1)">
       <use xlink:href="#DejaVuSans-49"/>
       <use x="63.623047" xlink:href="#DejaVuSans-53"/>
       <use x="127.246094" xlink:href="#DejaVuSans-46"/>
       <use x="159.033203" xlink:href="#DejaVuSans-48"/>
      </g>
     </g>
    </g>
    <g id="xtick_8">
     <g id="line2d_8">
      <g>
       <use style="stroke:#000000;stroke-width:0.8;" x="335.020456" xlink:href="#m0a8d568f19" y="273.312"/>
      </g>
     </g>
     <g id="text_8">
      <!-- 17.5 -->
      <g transform="translate(323.887643 287.910437)scale(0.1 -0.1)">
       <use xlink:href="#DejaVuSans-49"/>
       <use x="63.623047" xlink:href="#DejaVuSans-55"/>
       <use x="127.246094" xlink:href="#DejaVuSans-46"/>
       <use x="159.033203" xlink:href="#DejaVuSans-53"/>
      </g>
     </g>
    </g>
    <g id="xtick_9">
     <g id="line2d_9">
      <g>
       <use style="stroke:#000000;stroke-width:0.8;" x="375.806203" xlink:href="#m0a8d568f19" y="273.312"/>
      </g>
     </g>
     <g id="text_9">
      <!-- 20.0 -->
      <g transform="translate(364.67339 287.910437)scale(0.1 -0.1)">
       <use xlink:href="#DejaVuSans-50"/>
       <use x="63.623047" xlink:href="#DejaVuSans-48"/>
       <use x="127.246094" xlink:href="#DejaVuSans-46"/>
       <use x="159.033203" xlink:href="#DejaVuSans-48"/>
      </g>
     </g>
    </g>
   </g>
   <g id="matplotlib.axis_2">
    <g id="ytick_1">
     <g id="line2d_10">
      <defs>
       <path d="M 0 0 
L -3.5 0 
" id="mb1fdaa2066" style="stroke:#000000;stroke-width:0.8;"/>
      </defs>
      <g>
       <use style="stroke:#000000;stroke-width:0.8;" x="33.2875" xlink:href="#mb1fdaa2066" y="261.216"/>
      </g>
     </g>
     <g id="text_10">
      <!-- 0 -->
      <g transform="translate(19.925 265.015219)scale(0.1 -0.1)">
       <use xlink:href="#DejaVuSans-48"/>
      </g>
     </g>
    </g>
    <g id="ytick_2">
     <g id="line2d_11">
      <g>
       <use style="stroke:#000000;stroke-width:0.8;" x="33.2875" xlink:href="#mb1fdaa2066" y="230.631479"/>
      </g>
     </g>
     <g id="text_11">
      <!-- 50 -->
      <g transform="translate(13.5625 234.430698)scale(0.1 -0.1)">
       <use xlink:href="#DejaVuSans-53"/>
       <use x="63.623047" xlink:href="#DejaVuSans-48"/>
      </g>
     </g>
    </g>
    <g id="ytick_3">
     <g id="line2d_12">
      <g>
       <use style="stroke:#000000;stroke-width:0.8;" x="33.2875" xlink:href="#mb1fdaa2066" y="200.046958"/>
      </g>
     </g>
     <g id="text_12">
      <!-- 100 -->
      <g transform="translate(7.2 203.846177)scale(0.1 -0.1)">
       <use xlink:href="#DejaVuSans-49"/>
       <use x="63.623047" xlink:href="#DejaVuSans-48"/>
       <use x="127.246094" xlink:href="#DejaVuSans-48"/>
      </g>
     </g>
    </g>
    <g id="ytick_4">
     <g id="line2d_13">
      <g>
       <use style="stroke:#000000;stroke-width:0.8;" x="33.2875" xlink:href="#mb1fdaa2066" y="169.462437"/>
      </g>
     </g>
     <g id="text_13">
      <!-- 150 -->
      <g transform="translate(7.2 173.261655)scale(0.1 -0.1)">
       <use xlink:href="#DejaVuSans-49"/>
       <use x="63.623047" xlink:href="#DejaVuSans-53"/>
       <use x="127.246094" xlink:href="#DejaVuSans-48"/>
      </g>
     </g>
    </g>
    <g id="ytick_5">
     <g id="line2d_14">
      <g>
       <use style="stroke:#000000;stroke-width:0.8;" x="33.2875" xlink:href="#mb1fdaa2066" y="138.877916"/>
      </g>
     </g>
     <g id="text_14">
      <!-- 200 -->
      <g transform="translate(7.2 142.677134)scale(0.1 -0.1)">
       <use xlink:href="#DejaVuSans-50"/>
       <use x="63.623047" xlink:href="#DejaVuSans-48"/>
       <use x="127.246094" xlink:href="#DejaVuSans-48"/>
      </g>
     </g>
    </g>
    <g id="ytick_6">
     <g id="line2d_15">
      <g>
       <use style="stroke:#000000;stroke-width:0.8;" x="33.2875" xlink:href="#mb1fdaa2066" y="108.293394"/>
      </g>
     </g>
     <g id="text_15">
      <!-- 250 -->
      <g transform="translate(7.2 112.092613)scale(0.1 -0.1)">
       <use xlink:href="#DejaVuSans-50"/>
       <use x="63.623047" xlink:href="#DejaVuSans-53"/>
       <use x="127.246094" xlink:href="#DejaVuSans-48"/>
      </g>
     </g>
    </g>
    <g id="ytick_7">
     <g id="line2d_16">
      <g>
       <use style="stroke:#000000;stroke-width:0.8;" x="33.2875" xlink:href="#mb1fdaa2066" y="77.708873"/>
      </g>
     </g>
     <g id="text_16">
      <!-- 300 -->
      <g transform="translate(7.2 81.508092)scale(0.1 -0.1)">
       <defs>
        <path d="M 40.578125 39.3125 
Q 47.65625 37.796875 51.625 33 
Q 55.609375 28.21875 55.609375 21.1875 
Q 55.609375 10.40625 48.1875 4.484375 
Q 40.765625 -1.421875 27.09375 -1.421875 
Q 22.515625 -1.421875 17.65625 -0.515625 
Q 12.796875 0.390625 7.625 2.203125 
L 7.625 11.71875 
Q 11.71875 9.328125 16.59375 8.109375 
Q 21.484375 6.890625 26.8125 6.890625 
Q 36.078125 6.890625 40.9375 10.546875 
Q 45.796875 14.203125 45.796875 21.1875 
Q 45.796875 27.640625 41.28125 31.265625 
Q 36.765625 34.90625 28.71875 34.90625 
L 20.21875 34.90625 
L 20.21875 43.015625 
L 29.109375 43.015625 
Q 36.375 43.015625 40.234375 45.921875 
Q 44.09375 48.828125 44.09375 54.296875 
Q 44.09375 59.90625 40.109375 62.90625 
Q 36.140625 65.921875 28.71875 65.921875 
Q 24.65625 65.921875 20.015625 65.03125 
Q 15.375 64.15625 9.8125 62.3125 
L 9.8125 71.09375 
Q 15.4375 72.65625 20.34375 73.4375 
Q 25.25 74.21875 29.59375 74.21875 
Q 40.828125 74.21875 47.359375 69.109375 
Q 53.90625 64.015625 53.90625 55.328125 
Q 53.90625 49.265625 50.4375 45.09375 
Q 46.96875 40.921875 40.578125 39.3125 
z
" id="DejaVuSans-51"/>
       </defs>
       <use xlink:href="#DejaVuSans-51"/>
       <use x="63.623047" xlink:href="#DejaVuSans-48"/>
       <use x="127.246094" xlink:href="#DejaVuSans-48"/>
      </g>
     </g>
    </g>
    <g id="ytick_8">
     <g id="line2d_17">
      <g>
       <use style="stroke:#000000;stroke-width:0.8;" x="33.2875" xlink:href="#mb1fdaa2066" y="47.124352"/>
      </g>
     </g>
     <g id="text_17">
      <!-- 350 -->
      <g transform="translate(7.2 50.923571)scale(0.1 -0.1)">
       <use xlink:href="#DejaVuSans-51"/>
       <use x="63.623047" xlink:href="#DejaVuSans-53"/>
       <use x="127.246094" xlink:href="#DejaVuSans-48"/>
      </g>
     </g>
    </g>
    <g id="ytick_9">
     <g id="line2d_18">
      <g>
       <use style="stroke:#000000;stroke-width:0.8;" x="33.2875" xlink:href="#mb1fdaa2066" y="16.539831"/>
      </g>
     </g>
     <g id="text_18">
      <!-- 400 -->
      <g transform="translate(7.2 20.33905)scale(0.1 -0.1)">
       <defs>
        <path d="M 37.796875 64.3125 
L 12.890625 25.390625 
L 37.796875 25.390625 
z
M 35.203125 72.90625 
L 47.609375 72.90625 
L 47.609375 25.390625 
L 58.015625 25.390625 
L 58.015625 17.1875 
L 47.609375 17.1875 
L 47.609375 0 
L 37.796875 0 
L 37.796875 17.1875 
L 4.890625 17.1875 
L 4.890625 26.703125 
z
" id="DejaVuSans-52"/>
       </defs>
       <use xlink:href="#DejaVuSans-52"/>
       <use x="63.623047" xlink:href="#DejaVuSans-48"/>
       <use x="127.246094" xlink:href="#DejaVuSans-48"/>
      </g>
     </g>
    </g>
   </g>
   <g id="line2d_19">
    <path clip-path="url(#p4408805fa4)" d="M 49.520227 261.216 
L 53.598802 108.293394 
L 57.677377 52.036312 
L 61.755951 31.340488 
L 65.834526 23.726919 
L 69.913101 20.926044 
L 73.991675 19.89566 
L 78.07025 19.516602 
L 82.148825 19.377155 
L 86.227399 19.325855 
L 90.305974 19.306983 
L 94.384549 19.30004 
L 98.463124 19.297486 
L 102.541698 19.296547 
L 106.620273 19.296201 
L 110.698848 19.296074 
L 114.777422 19.296027 
L 118.855997 19.29601 
L 122.934572 19.296004 
L 127.013146 19.296001 
L 131.091721 19.296 
L 135.170296 19.296 
L 139.24887 19.296 
L 143.327445 19.296 
L 147.40602 19.296 
L 151.484595 19.296 
L 155.563169 19.296 
L 159.641744 19.296 
L 163.720319 19.296 
L 167.798893 19.296 
L 171.877468 19.296 
L 175.956043 19.296 
L 180.034617 19.296 
L 184.113192 19.296 
L 188.191767 19.296 
L 192.270341 19.296 
L 196.348916 19.296 
L 200.427491 19.296 
L 204.506066 19.296 
L 208.58464 19.296 
L 212.663215 19.296 
L 216.74179 19.296 
L 220.820364 19.296 
L 224.898939 19.296 
L 228.977514 19.296 
L 233.056088 19.296 
L 237.134663 19.296 
L 241.213238 19.296 
L 245.291812 19.296 
L 249.370387 19.296 
L 253.448962 19.296 
L 257.527537 19.296 
L 261.606111 19.296 
L 265.684686 19.296 
L 269.763261 19.296 
L 273.841835 19.296 
L 277.92041 19.296 
L 281.998985 19.296 
L 286.077559 19.296 
L 290.156134 19.296 
L 294.234709 19.296 
L 298.313283 19.296 
L 302.391858 19.296 
L 306.470433 19.296 
L 310.549008 19.296 
L 314.627582 19.296 
L 318.706157 19.296 
L 322.784732 19.296 
L 326.863306 19.296 
L 330.941881 19.296 
L 335.020456 19.296 
L 339.09903 19.296 
L 343.177605 19.296 
L 347.25618 19.296 
L 351.334754 19.296 
L 355.413329 19.296 
L 359.491904 19.296 
L 363.570479 19.296 
L 367.649053 19.296 
L 371.727628 19.296 
" style="fill:none;stroke:#1f77b4;stroke-linecap:square;stroke-width:1.5;"/>
   </g>
   <g id="line2d_20">
    <path clip-path="url(#p4408805fa4)" d="M 49.520227 261.216 
L 53.598802 261.216 
L 57.677377 164.550477 
L 61.755951 93.42796 
L 65.834526 54.181192 
L 69.913101 34.93042 
L 73.991675 26.077966 
L 78.07025 22.170003 
L 82.148825 20.492734 
L 86.227399 19.787554 
L 90.305974 19.495705 
L 94.384549 19.37641 
L 98.463124 19.328135 
L 102.541698 19.308761 
L 106.620273 19.30104 
L 110.698848 19.297981 
L 114.777422 19.296776 
L 118.855997 19.296303 
L 122.934572 19.296118 
L 127.013146 19.296046 
L 131.091721 19.296018 
L 135.170296 19.296007 
L 139.24887 19.296003 
L 143.327445 19.296001 
L 147.40602 19.296 
L 151.484595 19.296 
L 155.563169 19.296 
L 159.641744 19.296 
L 163.720319 19.296 
L 167.798893 19.296 
L 171.877468 19.296 
L 175.956043 19.296 
L 180.034617 19.296 
L 184.113192 19.296 
L 188.191767 19.296 
L 192.270341 19.296 
L 196.348916 19.296 
L 200.427491 19.296 
L 204.506066 19.296 
L 208.58464 19.296 
L 212.663215 19.296 
L 216.74179 19.296 
L 220.820364 19.296 
L 224.898939 19.296 
L 228.977514 19.296 
L 233.056088 19.296 
L 237.134663 19.296 
L 241.213238 19.296 
L 245.291812 19.296 
L 249.370387 19.296 
L 253.448962 19.296 
L 257.527537 19.296 
L 261.606111 19.296 
L 265.684686 19.296 
L 269.763261 19.296 
L 273.841835 19.296 
L 277.92041 19.296 
L 281.998985 19.296 
L 286.077559 19.296 
L 290.156134 19.296 
L 294.234709 19.296 
L 298.313283 19.296 
L 302.391858 19.296 
L 306.470433 19.296 
L 310.549008 19.296 
L 314.627582 19.296 
L 318.706157 19.296 
L 322.784732 19.296 
L 326.863306 19.296 
L 330.941881 19.296 
L 335.020456 19.296 
L 339.09903 19.296 
L 343.177605 19.296 
L 347.25618 19.296 
L 351.334754 19.296 
L 355.413329 19.296 
L 359.491904 19.296 
L 363.570479 19.296 
L 367.649053 19.296 
L 371.727628 19.296 
" style="fill:none;stroke:#ff7f0e;stroke-linecap:square;stroke-width:1.5;"/>
   </g>
   <g id="line2d_21">
    <path clip-path="url(#p4408805fa4)" d="M 49.520227 261.216 
L 51.151657 211.057385 
L 52.783087 179.861174 
L 54.414517 151.723414 
L 56.045947 138.877916 
L 57.677377 130.31425 
L 59.308807 122.973965 
L 60.940236 117.468751 
L 62.571666 115.633679 
L 64.203096 111.351847 
L 65.834526 99.118038 
L 69.097386 93.001134 
L 70.728816 94.224515 
L 72.360246 105.846633 
L 73.991675 107.070014 
L 77.254535 115.633679 
L 78.885965 117.468751 
L 80.517395 111.351847 
L 82.148825 108.293394 
L 83.780255 119.303822 
L 85.411685 120.527203 
L 87.043114 117.468751 
L 88.674544 117.468751 
L 90.305974 121.750584 
L 91.937404 118.080441 
L 93.568834 121.750584 
L 95.200264 118.080441 
L 96.831694 119.915512 
L 98.463124 111.963537 
L 100.094553 115.633679 
L 101.725983 108.905085 
L 103.357413 107.681704 
L 104.988843 119.915512 
L 106.620273 115.021989 
L 108.251703 121.750584 
L 109.883133 116.24537 
L 111.514563 111.963537 
L 113.145992 119.303822 
L 114.777422 122.973965 
L 116.408852 109.516775 
L 118.040282 107.681704 
L 119.671712 110.740156 
L 121.303142 118.080441 
L 122.934572 119.915512 
L 124.566002 130.31425 
L 126.197431 119.303822 
L 127.828861 116.24537 
L 129.460291 116.85706 
L 131.091721 113.798608 
L 132.723151 108.293394 
L 134.354581 110.128466 
L 135.986011 111.351847 
L 137.617441 106.458323 
L 139.24887 107.681704 
L 140.8803 104.623252 
L 142.51173 100.953109 
L 144.14316 105.846633 
L 145.77459 101.5648 
L 147.40602 97.894657 
L 149.03745 106.458323 
L 150.66888 111.351847 
L 152.30031 113.186918 
L 153.931739 113.798608 
L 155.563169 108.293394 
L 157.194599 113.186918 
L 160.457459 109.516775 
L 162.088889 104.623252 
L 163.720319 104.623252 
L 165.351749 100.953109 
L 166.983178 103.399871 
L 168.614608 104.011561 
L 170.246038 105.846633 
L 171.877468 104.011561 
L 173.508898 95.447896 
L 175.140328 96.671276 
L 176.771758 101.5648 
L 178.403188 107.681704 
L 180.034617 110.740156 
L 181.666047 109.516775 
L 183.297477 108.905085 
L 184.928907 105.846633 
L 186.560337 119.915512 
L 188.191767 106.458323 
L 189.823197 110.128466 
L 191.454627 111.963537 
L 193.086056 107.070014 
L 194.717486 100.341419 
L 196.348916 106.458323 
L 199.611776 101.5648 
L 201.243206 100.341419 
L 202.874636 105.234942 
L 204.506066 103.399871 
L 206.137495 107.681704 
L 207.768925 109.516775 
L 209.400355 106.458323 
L 211.031785 104.011561 
L 214.294645 106.458323 
L 215.926075 112.575227 
L 217.557505 120.527203 
L 219.188934 116.85706 
L 220.820364 117.468751 
L 222.451794 112.575227 
L 224.083224 121.750584 
L 225.714654 123.585655 
L 227.346084 110.128466 
L 228.977514 108.905085 
L 230.608944 110.128466 
L 232.240373 110.128466 
L 233.871803 105.234942 
L 235.503233 112.575227 
L 237.134663 111.351847 
L 238.766093 102.788181 
L 240.397523 105.234942 
L 242.028953 113.798608 
L 243.660383 118.080441 
L 245.291812 115.021989 
L 246.923242 110.128466 
L 248.554672 105.846633 
L 250.186102 113.798608 
L 251.817532 112.575227 
L 253.448962 116.85706 
L 255.080392 115.021989 
L 256.711822 113.798608 
L 258.343251 117.468751 
L 259.974681 118.692132 
L 261.606111 117.468751 
L 263.237541 111.351847 
L 264.868971 102.17649 
L 266.500401 96.059586 
L 268.131831 100.953109 
L 269.763261 107.681704 
L 271.39469 119.915512 
L 273.02612 111.963537 
L 274.65755 117.468751 
L 276.28898 111.351847 
L 277.92041 109.516775 
L 279.55184 118.692132 
L 281.18327 115.021989 
L 282.8147 122.362274 
L 284.44613 119.915512 
L 286.077559 112.575227 
L 287.708989 114.410299 
L 289.340419 117.468751 
L 290.971849 104.623252 
L 292.603279 108.293394 
L 294.234709 103.399871 
L 295.866139 106.458323 
L 297.497569 111.963537 
L 299.128998 105.234942 
L 300.760428 105.846633 
L 302.391858 100.953109 
L 304.023288 98.506348 
L 305.654718 107.070014 
L 307.286148 107.070014 
L 310.549008 113.186918 
L 312.180437 118.080441 
L 313.811867 118.692132 
L 315.443297 110.740156 
L 317.074727 119.303822 
L 318.706157 117.468751 
L 320.337587 124.197345 
L 321.969017 112.575227 
L 323.600447 112.575227 
L 325.231876 107.681704 
L 326.863306 107.681704 
L 328.494736 108.293394 
L 330.126166 97.894657 
L 331.757596 102.788181 
L 333.389026 97.282967 
L 335.020456 102.17649 
L 336.651886 100.953109 
L 338.283315 109.516775 
L 339.914745 117.468751 
L 341.546175 110.740156 
L 343.177605 108.905085 
L 344.809035 108.293394 
L 346.440465 108.293394 
L 348.071895 100.953109 
L 349.703325 96.059586 
L 351.334754 115.021989 
L 352.966184 122.362274 
L 354.597614 113.186918 
L 356.229044 111.963537 
L 357.860474 111.963537 
L 359.491904 108.293394 
L 361.123334 113.798608 
L 362.754764 111.963537 
L 364.386193 118.080441 
L 366.017623 108.905085 
L 367.649053 107.681704 
L 369.280483 113.186918 
L 370.911913 126.032417 
L 372.543343 115.633679 
L 374.174773 110.740156 
L 374.174773 110.740156 
" style="fill:none;stroke:#2ca02c;stroke-linecap:square;stroke-width:1.5;"/>
   </g>
   <g id="line2d_22">
    <path clip-path="url(#p4408805fa4)" d="M 49.520227 261.216 
L 51.151657 250.817263 
L 52.783087 227.573027 
L 54.414517 212.892457 
L 56.045947 188.42484 
L 59.308807 152.335105 
L 60.940236 143.159748 
L 62.571666 132.761011 
L 64.203096 127.867488 
L 65.834526 127.255798 
L 67.465956 128.479178 
L 69.097386 118.080441 
L 70.728816 114.410299 
L 72.360246 107.681704 
L 73.991675 108.293394 
L 75.623105 107.070014 
L 77.254535 108.293394 
L 78.885965 111.351847 
L 80.517395 122.362274 
L 82.148825 117.468751 
L 83.780255 105.234942 
L 85.411685 96.059586 
L 87.043114 97.282967 
L 88.674544 95.447896 
L 90.305974 98.506348 
L 91.937404 105.234942 
L 93.568834 100.953109 
L 95.200264 107.681704 
L 96.831694 102.788181 
L 98.463124 102.788181 
L 100.094553 90.554372 
L 101.725983 99.729728 
L 103.357413 102.788181 
L 104.988843 100.341419 
L 106.620273 101.5648 
L 108.251703 86.272539 
L 109.883133 98.506348 
L 111.514563 94.224515 
L 114.777422 99.118038 
L 116.408852 108.905085 
L 118.040282 112.575227 
L 119.671712 109.516775 
L 121.303142 97.282967 
L 122.934572 98.506348 
L 124.566002 93.612824 
L 126.197431 108.293394 
L 127.828861 110.128466 
L 129.460291 106.458323 
L 132.723151 104.011561 
L 134.354581 108.905085 
L 135.986011 100.953109 
L 137.617441 99.118038 
L 140.8803 116.85706 
L 142.51173 124.197345 
L 144.14316 119.915512 
L 145.77459 123.585655 
L 147.40602 125.420726 
L 149.03745 102.17649 
L 150.66888 101.5648 
L 152.30031 97.282967 
L 153.931739 106.458323 
L 155.563169 107.681704 
L 157.194599 102.788181 
L 158.826029 115.633679 
L 160.457459 116.85706 
L 162.088889 118.692132 
L 163.720319 118.692132 
L 165.351749 111.963537 
L 166.983178 100.953109 
L 168.614608 91.777753 
L 170.246038 99.729728 
L 171.877468 104.623252 
L 173.508898 113.186918 
L 175.140328 111.963537 
L 176.771758 99.118038 
L 178.403188 94.836205 
L 180.034617 97.282967 
L 181.666047 93.001134 
L 183.297477 93.612824 
L 184.928907 111.963537 
L 186.560337 103.399871 
L 188.191767 118.692132 
L 189.823197 115.633679 
L 191.454627 103.399871 
L 193.086056 118.080441 
L 194.717486 116.85706 
L 196.348916 113.798608 
L 197.980346 113.798608 
L 199.611776 117.468751 
L 201.243206 112.575227 
L 202.874636 102.788181 
L 204.506066 98.506348 
L 206.137495 99.118038 
L 207.768925 106.458323 
L 209.400355 105.234942 
L 211.031785 99.118038 
L 212.663215 96.059586 
L 214.294645 97.894657 
L 215.926075 94.836205 
L 217.557505 93.001134 
L 219.188934 114.410299 
L 220.820364 116.85706 
L 222.451794 113.798608 
L 224.083224 106.458323 
L 225.714654 108.293394 
L 227.346084 119.303822 
L 228.977514 118.080441 
L 230.608944 112.575227 
L 232.240373 115.633679 
L 233.871803 110.128466 
L 235.503233 96.059586 
L 238.766093 118.692132 
L 240.397523 105.846633 
L 242.028953 107.681704 
L 243.660383 107.681704 
L 245.291812 108.293394 
L 246.923242 111.963537 
L 248.554672 108.905085 
L 250.186102 105.234942 
L 251.817532 103.399871 
L 253.448962 99.118038 
L 255.080392 104.011561 
L 256.711822 107.070014 
L 258.343251 102.788181 
L 259.974681 95.447896 
L 261.606111 100.341419 
L 263.237541 100.341419 
L 264.868971 108.293394 
L 266.500401 115.021989 
L 268.131831 112.575227 
L 269.763261 99.729728 
L 271.39469 91.166063 
L 273.02612 105.234942 
L 274.65755 102.788181 
L 276.28898 106.458323 
L 277.92041 100.953109 
L 279.55184 99.729728 
L 281.18327 94.836205 
L 282.8147 94.224515 
L 286.077559 120.527203 
L 287.708989 118.080441 
L 289.340419 113.798608 
L 290.971849 124.809036 
L 292.603279 119.303822 
L 294.234709 110.740156 
L 297.497569 99.729728 
L 299.128998 110.740156 
L 300.760428 102.788181 
L 302.391858 111.963537 
L 304.023288 104.011561 
L 305.654718 97.894657 
L 307.286148 104.623252 
L 308.917578 102.788181 
L 310.549008 103.399871 
L 312.180437 103.399871 
L 313.811867 105.234942 
L 315.443297 115.021989 
L 317.074727 104.623252 
L 318.706157 108.905085 
L 320.337587 107.681704 
L 321.969017 110.740156 
L 323.600447 114.410299 
L 325.231876 114.410299 
L 326.863306 108.293394 
L 328.494736 109.516775 
L 330.126166 119.303822 
L 331.757596 123.585655 
L 333.389026 116.85706 
L 335.020456 108.905085 
L 336.651886 99.729728 
L 338.283315 104.623252 
L 339.914745 104.011561 
L 341.546175 108.293394 
L 343.177605 114.410299 
L 344.809035 112.575227 
L 346.440465 118.080441 
L 348.071895 113.798608 
L 349.703325 126.644107 
L 351.334754 106.458323 
L 352.966184 111.351847 
L 354.597614 119.915512 
L 356.229044 119.915512 
L 357.860474 110.128466 
L 359.491904 120.527203 
L 361.123334 109.516775 
L 362.754764 110.740156 
L 364.386193 96.671276 
L 366.017623 105.846633 
L 367.649053 104.011561 
L 369.280483 97.282967 
L 370.911913 80.767325 
L 372.543343 103.399871 
L 374.174773 107.070014 
L 374.174773 107.070014 
" style="fill:none;stroke:#d62728;stroke-linecap:square;stroke-width:1.5;"/>
   </g>
   <g id="patch_3">
    <path d="M 33.2875 273.312 
L 33.2875 7.2 
" style="fill:none;stroke:#000000;stroke-linecap:square;stroke-linejoin:miter;stroke-width:0.8;"/>
   </g>
   <g id="patch_4">
    <path d="M 390.4075 273.312 
L 390.4075 7.2 
" style="fill:none;stroke:#000000;stroke-linecap:square;stroke-linejoin:miter;stroke-width:0.8;"/>
   </g>
   <g id="patch_5">
    <path d="M 33.2875 273.312 
L 390.4075 273.312 
" style="fill:none;stroke:#000000;stroke-linecap:square;stroke-linejoin:miter;stroke-width:0.8;"/>
   </g>
   <g id="patch_6">
    <path d="M 33.2875 7.2 
L 390.4075 7.2 
" style="fill:none;stroke:#000000;stroke-linecap:square;stroke-linejoin:miter;stroke-width:0.8;"/>
   </g>
  </g>
 </g>
 <defs>
  <clipPath id="p4408805fa4">
   <rect height="266.112" width="357.12" x="33.2875" y="7.2"/>
  </clipPath>
 </defs>
</svg>
