<?xml version="1.0" encoding="utf-8" standalone="no"?>
<!DOCTYPE svg PUBLIC "-//W3C//DTD SVG 1.1//EN"
  "http://www.w3.org/Graphics/SVG/1.1/DTD/svg11.dtd">
<!-- Created with matplotlib (https://matplotlib.org/) -->
<svg height="297.190125pt" version="1.1" viewBox="0 0 403.97 297.190125" width="403.97pt" xmlns="http://www.w3.org/2000/svg" xmlns:xlink="http://www.w3.org/1999/xlink">
 <metadata>
  <rdf:RDF xmlns:cc="http://creativecommons.org/ns#" xmlns:dc="http://purl.org/dc/elements/1.1/" xmlns:rdf="http://www.w3.org/1999/02/22-rdf-syntax-ns#">
   <cc:Work>
    <dc:type rdf:resource="http://purl.org/dc/dcmitype/StillImage"/>
    <dc:date>2020-09-11T08:46:05.252489</dc:date>
    <dc:format>image/svg+xml</dc:format>
    <dc:creator>
     <cc:Agent>
      <dc:title>Matplotlib v3.3.1, https://matplotlib.org/</dc:title>
     </cc:Agent>
    </dc:creator>
   </cc:Work>
  </rdf:RDF>
 </metadata>
 <defs>
  <style type="text/css">*{stroke-linecap:butt;stroke-linejoin:round;}</style>
 </defs>
 <g id="figure_1">
  <g id="patch_1">
   <path d="M 0 297.190125 
L 403.97 297.190125 
L 403.97 0 
L 0 0 
z
" style="fill:#ffffff;"/>
  </g>
  <g id="axes_1">
   <g id="patch_2">
    <path d="M 39.65 273.312 
L 396.77 273.312 
L 396.77 7.2 
L 39.65 7.2 
z
" style="fill:#ffffff;"/>
   </g>
   <g id="matplotlib.axis_1">
    <g id="xtick_1">
     <g id="line2d_1">
      <defs>
       <path d="M 0 0 
L 0 3.5 
" id="m4fe034289e" style="stroke:#000000;stroke-width:0.8;"/>
      </defs>
      <g>
       <use style="stroke:#000000;stroke-width:0.8;" x="55.882727" xlink:href="#m4fe034289e" y="273.312"/>
      </g>
     </g>
     <g id="text_1">
      <!-- 0.0 -->
      <g transform="translate(47.931165 287.910437)scale(0.1 -0.1)">
       <defs>
        <path d="M 31.78125 66.40625 
Q 24.171875 66.40625 20.328125 58.90625 
Q 16.5 51.421875 16.5 36.375 
Q 16.5 21.390625 20.328125 13.890625 
Q 24.171875 6.390625 31.78125 6.390625 
Q 39.453125 6.390625 43.28125 13.890625 
Q 47.125 21.390625 47.125 36.375 
Q 47.125 51.421875 43.28125 58.90625 
Q 39.453125 66.40625 31.78125 66.40625 
z
M 31.78125 74.21875 
Q 44.046875 74.21875 50.515625 64.515625 
Q 56.984375 54.828125 56.984375 36.375 
Q 56.984375 17.96875 50.515625 8.265625 
Q 44.046875 -1.421875 31.78125 -1.421875 
Q 19.53125 -1.421875 13.0625 8.265625 
Q 6.59375 17.96875 6.59375 36.375 
Q 6.59375 54.828125 13.0625 64.515625 
Q 19.53125 74.21875 31.78125 74.21875 
z
" id="DejaVuSans-48"/>
        <path d="M 10.6875 12.40625 
L 21 12.40625 
L 21 0 
L 10.6875 0 
z
" id="DejaVuSans-46"/>
       </defs>
       <use xlink:href="#DejaVuSans-48"/>
       <use x="63.623047" xlink:href="#DejaVuSans-46"/>
       <use x="95.410156" xlink:href="#DejaVuSans-48"/>
      </g>
     </g>
    </g>
    <g id="xtick_2">
     <g id="line2d_2">
      <g>
       <use style="stroke:#000000;stroke-width:0.8;" x="96.668474" xlink:href="#m4fe034289e" y="273.312"/>
      </g>
     </g>
     <g id="text_2">
      <!-- 2.5 -->
      <g transform="translate(88.716912 287.910437)scale(0.1 -0.1)">
       <defs>
        <path d="M 19.1875 8.296875 
L 53.609375 8.296875 
L 53.609375 0 
L 7.328125 0 
L 7.328125 8.296875 
Q 12.9375 14.109375 22.625 23.890625 
Q 32.328125 33.6875 34.8125 36.53125 
Q 39.546875 41.84375 41.421875 45.53125 
Q 43.3125 49.21875 43.3125 52.78125 
Q 43.3125 58.59375 39.234375 62.25 
Q 35.15625 65.921875 28.609375 65.921875 
Q 23.96875 65.921875 18.8125 64.3125 
Q 13.671875 62.703125 7.8125 59.421875 
L 7.8125 69.390625 
Q 13.765625 71.78125 18.9375 73 
Q 24.125 74.21875 28.421875 74.21875 
Q 39.75 74.21875 46.484375 68.546875 
Q 53.21875 62.890625 53.21875 53.421875 
Q 53.21875 48.921875 51.53125 44.890625 
Q 49.859375 40.875 45.40625 35.40625 
Q 44.1875 33.984375 37.640625 27.21875 
Q 31.109375 20.453125 19.1875 8.296875 
z
" id="DejaVuSans-50"/>
        <path d="M 10.796875 72.90625 
L 49.515625 72.90625 
L 49.515625 64.59375 
L 19.828125 64.59375 
L 19.828125 46.734375 
Q 21.96875 47.46875 24.109375 47.828125 
Q 26.265625 48.1875 28.421875 48.1875 
Q 40.625 48.1875 47.75 41.5 
Q 54.890625 34.8125 54.890625 23.390625 
Q 54.890625 11.625 47.5625 5.09375 
Q 40.234375 -1.421875 26.90625 -1.421875 
Q 22.3125 -1.421875 17.546875 -0.640625 
Q 12.796875 0.140625 7.71875 1.703125 
L 7.71875 11.625 
Q 12.109375 9.234375 16.796875 8.0625 
Q 21.484375 6.890625 26.703125 6.890625 
Q 35.15625 6.890625 40.078125 11.328125 
Q 45.015625 15.765625 45.015625 23.390625 
Q 45.015625 31 40.078125 35.4375 
Q 35.15625 39.890625 26.703125 39.890625 
Q 22.75 39.890625 18.8125 39.015625 
Q 14.890625 38.140625 10.796875 36.28125 
z
" id="DejaVuSans-53"/>
       </defs>
       <use xlink:href="#DejaVuSans-50"/>
       <use x="63.623047" xlink:href="#DejaVuSans-46"/>
       <use x="95.410156" xlink:href="#DejaVuSans-53"/>
      </g>
     </g>
    </g>
    <g id="xtick_3">
     <g id="line2d_3">
      <g>
       <use style="stroke:#000000;stroke-width:0.8;" x="137.454221" xlink:href="#m4fe034289e" y="273.312"/>
      </g>
     </g>
     <g id="text_3">
      <!-- 5.0 -->
      <g transform="translate(129.502659 287.910437)scale(0.1 -0.1)">
       <use xlink:href="#DejaVuSans-53"/>
       <use x="63.623047" xlink:href="#DejaVuSans-46"/>
       <use x="95.410156" xlink:href="#DejaVuSans-48"/>
      </g>
     </g>
    </g>
    <g id="xtick_4">
     <g id="line2d_4">
      <g>
       <use style="stroke:#000000;stroke-width:0.8;" x="178.239968" xlink:href="#m4fe034289e" y="273.312"/>
      </g>
     </g>
     <g id="text_4">
      <!-- 7.5 -->
      <g transform="translate(170.288406 287.910437)scale(0.1 -0.1)">
       <defs>
        <path d="M 8.203125 72.90625 
L 55.078125 72.90625 
L 55.078125 68.703125 
L 28.609375 0 
L 18.3125 0 
L 43.21875 64.59375 
L 8.203125 64.59375 
z
" id="DejaVuSans-55"/>
       </defs>
       <use xlink:href="#DejaVuSans-55"/>
       <use x="63.623047" xlink:href="#DejaVuSans-46"/>
       <use x="95.410156" xlink:href="#DejaVuSans-53"/>
      </g>
     </g>
    </g>
    <g id="xtick_5">
     <g id="line2d_5">
      <g>
       <use style="stroke:#000000;stroke-width:0.8;" x="219.025715" xlink:href="#m4fe034289e" y="273.312"/>
      </g>
     </g>
     <g id="text_5">
      <!-- 10.0 -->
      <g transform="translate(207.892902 287.910437)scale(0.1 -0.1)">
       <defs>
        <path d="M 12.40625 8.296875 
L 28.515625 8.296875 
L 28.515625 63.921875 
L 10.984375 60.40625 
L 10.984375 69.390625 
L 28.421875 72.90625 
L 38.28125 72.90625 
L 38.28125 8.296875 
L 54.390625 8.296875 
L 54.390625 0 
L 12.40625 0 
z
" id="DejaVuSans-49"/>
       </defs>
       <use xlink:href="#DejaVuSans-49"/>
       <use x="63.623047" xlink:href="#DejaVuSans-48"/>
       <use x="127.246094" xlink:href="#DejaVuSans-46"/>
       <use x="159.033203" xlink:href="#DejaVuSans-48"/>
      </g>
     </g>
    </g>
    <g id="xtick_6">
     <g id="line2d_6">
      <g>
       <use style="stroke:#000000;stroke-width:0.8;" x="259.811462" xlink:href="#m4fe034289e" y="273.312"/>
      </g>
     </g>
     <g id="text_6">
      <!-- 12.5 -->
      <g transform="translate(248.678649 287.910437)scale(0.1 -0.1)">
       <use xlink:href="#DejaVuSans-49"/>
       <use x="63.623047" xlink:href="#DejaVuSans-50"/>
       <use x="127.246094" xlink:href="#DejaVuSans-46"/>
       <use x="159.033203" xlink:href="#DejaVuSans-53"/>
      </g>
     </g>
    </g>
    <g id="xtick_7">
     <g id="line2d_7">
      <g>
       <use style="stroke:#000000;stroke-width:0.8;" x="300.597209" xlink:href="#m4fe034289e" y="273.312"/>
      </g>
     </g>
     <g id="text_7">
      <!-- 15.0 -->
      <g transform="translate(289.464396 287.910437)scale(0.1 -0.1)">
       <use xlink:href="#DejaVuSans-49"/>
       <use x="63.623047" xlink:href="#DejaVuSans-53"/>
       <use x="127.246094" xlink:href="#DejaVuSans-46"/>
       <use x="159.033203" xlink:href="#DejaVuSans-48"/>
      </g>
     </g>
    </g>
    <g id="xtick_8">
     <g id="line2d_8">
      <g>
       <use style="stroke:#000000;stroke-width:0.8;" x="341.382956" xlink:href="#m4fe034289e" y="273.312"/>
      </g>
     </g>
     <g id="text_8">
      <!-- 17.5 -->
      <g transform="translate(330.250143 287.910437)scale(0.1 -0.1)">
       <use xlink:href="#DejaVuSans-49"/>
       <use x="63.623047" xlink:href="#DejaVuSans-55"/>
       <use x="127.246094" xlink:href="#DejaVuSans-46"/>
       <use x="159.033203" xlink:href="#DejaVuSans-53"/>
      </g>
     </g>
    </g>
    <g id="xtick_9">
     <g id="line2d_9">
      <g>
       <use style="stroke:#000000;stroke-width:0.8;" x="382.168703" xlink:href="#m4fe034289e" y="273.312"/>
      </g>
     </g>
     <g id="text_9">
      <!-- 20.0 -->
      <g transform="translate(371.03589 287.910437)scale(0.1 -0.1)">
       <use xlink:href="#DejaVuSans-50"/>
       <use x="63.623047" xlink:href="#DejaVuSans-48"/>
       <use x="127.246094" xlink:href="#DejaVuSans-46"/>
       <use x="159.033203" xlink:href="#DejaVuSans-48"/>
      </g>
     </g>
    </g>
   </g>
   <g id="matplotlib.axis_2">
    <g id="ytick_1">
     <g id="line2d_10">
      <defs>
       <path d="M 0 0 
L -3.5 0 
" id="meedd641af4" style="stroke:#000000;stroke-width:0.8;"/>
      </defs>
      <g>
       <use style="stroke:#000000;stroke-width:0.8;" x="39.65" xlink:href="#meedd641af4" y="261.216"/>
      </g>
     </g>
     <g id="text_10">
      <!-- 0 -->
      <g transform="translate(26.2875 265.015219)scale(0.1 -0.1)">
       <use xlink:href="#DejaVuSans-48"/>
      </g>
     </g>
    </g>
    <g id="ytick_2">
     <g id="line2d_11">
      <g>
       <use style="stroke:#000000;stroke-width:0.8;" x="39.65" xlink:href="#meedd641af4" y="221.725305"/>
      </g>
     </g>
     <g id="text_11">
      <!-- 500 -->
      <g transform="translate(13.5625 225.524523)scale(0.1 -0.1)">
       <use xlink:href="#DejaVuSans-53"/>
       <use x="63.623047" xlink:href="#DejaVuSans-48"/>
       <use x="127.246094" xlink:href="#DejaVuSans-48"/>
      </g>
     </g>
    </g>
    <g id="ytick_3">
     <g id="line2d_12">
      <g>
       <use style="stroke:#000000;stroke-width:0.8;" x="39.65" xlink:href="#meedd641af4" y="182.234609"/>
      </g>
     </g>
     <g id="text_12">
      <!-- 1000 -->
      <g transform="translate(7.2 186.033828)scale(0.1 -0.1)">
       <use xlink:href="#DejaVuSans-49"/>
       <use x="63.623047" xlink:href="#DejaVuSans-48"/>
       <use x="127.246094" xlink:href="#DejaVuSans-48"/>
       <use x="190.869141" xlink:href="#DejaVuSans-48"/>
      </g>
     </g>
    </g>
    <g id="ytick_4">
     <g id="line2d_13">
      <g>
       <use style="stroke:#000000;stroke-width:0.8;" x="39.65" xlink:href="#meedd641af4" y="142.743914"/>
      </g>
     </g>
     <g id="text_13">
      <!-- 1500 -->
      <g transform="translate(7.2 146.543133)scale(0.1 -0.1)">
       <use xlink:href="#DejaVuSans-49"/>
       <use x="63.623047" xlink:href="#DejaVuSans-53"/>
       <use x="127.246094" xlink:href="#DejaVuSans-48"/>
       <use x="190.869141" xlink:href="#DejaVuSans-48"/>
      </g>
     </g>
    </g>
    <g id="ytick_5">
     <g id="line2d_14">
      <g>
       <use style="stroke:#000000;stroke-width:0.8;" x="39.65" xlink:href="#meedd641af4" y="103.253218"/>
      </g>
     </g>
     <g id="text_14">
      <!-- 2000 -->
      <g transform="translate(7.2 107.052437)scale(0.1 -0.1)">
       <use xlink:href="#DejaVuSans-50"/>
       <use x="63.623047" xlink:href="#DejaVuSans-48"/>
       <use x="127.246094" xlink:href="#DejaVuSans-48"/>
       <use x="190.869141" xlink:href="#DejaVuSans-48"/>
      </g>
     </g>
    </g>
    <g id="ytick_6">
     <g id="line2d_15">
      <g>
       <use style="stroke:#000000;stroke-width:0.8;" x="39.65" xlink:href="#meedd641af4" y="63.762523"/>
      </g>
     </g>
     <g id="text_15">
      <!-- 2500 -->
      <g transform="translate(7.2 67.561742)scale(0.1 -0.1)">
       <use xlink:href="#DejaVuSans-50"/>
       <use x="63.623047" xlink:href="#DejaVuSans-53"/>
       <use x="127.246094" xlink:href="#DejaVuSans-48"/>
       <use x="190.869141" xlink:href="#DejaVuSans-48"/>
      </g>
     </g>
    </g>
    <g id="ytick_7">
     <g id="line2d_16">
      <g>
       <use style="stroke:#000000;stroke-width:0.8;" x="39.65" xlink:href="#meedd641af4" y="24.271828"/>
      </g>
     </g>
     <g id="text_16">
      <!-- 3000 -->
      <g transform="translate(7.2 28.071046)scale(0.1 -0.1)">
       <defs>
        <path d="M 40.578125 39.3125 
Q 47.65625 37.796875 51.625 33 
Q 55.609375 28.21875 55.609375 21.1875 
Q 55.609375 10.40625 48.1875 4.484375 
Q 40.765625 -1.421875 27.09375 -1.421875 
Q 22.515625 -1.421875 17.65625 -0.515625 
Q 12.796875 0.390625 7.625 2.203125 
L 7.625 11.71875 
Q 11.71875 9.328125 16.59375 8.109375 
Q 21.484375 6.890625 26.8125 6.890625 
Q 36.078125 6.890625 40.9375 10.546875 
Q 45.796875 14.203125 45.796875 21.1875 
Q 45.796875 27.640625 41.28125 31.265625 
Q 36.765625 34.90625 28.71875 34.90625 
L 20.21875 34.90625 
L 20.21875 43.015625 
L 29.109375 43.015625 
Q 36.375 43.015625 40.234375 45.921875 
Q 44.09375 48.828125 44.09375 54.296875 
Q 44.09375 59.90625 40.109375 62.90625 
Q 36.140625 65.921875 28.71875 65.921875 
Q 24.65625 65.921875 20.015625 65.03125 
Q 15.375 64.15625 9.8125 62.3125 
L 9.8125 71.09375 
Q 15.4375 72.65625 20.34375 73.4375 
Q 25.25 74.21875 29.59375 74.21875 
Q 40.828125 74.21875 47.359375 69.109375 
Q 53.90625 64.015625 53.90625 55.328125 
Q 53.90625 49.265625 50.4375 45.09375 
Q 46.96875 40.921875 40.578125 39.3125 
z
" id="DejaVuSans-51"/>
       </defs>
       <use xlink:href="#DejaVuSans-51"/>
       <use x="63.623047" xlink:href="#DejaVuSans-48"/>
       <use x="127.246094" xlink:href="#DejaVuSans-48"/>
       <use x="190.869141" xlink:href="#DejaVuSans-48"/>
      </g>
     </g>
    </g>
   </g>
   <g id="line2d_17">
    <path clip-path="url(#pe7b483a2b6)" d="M 55.882727 261.216 
L 59.961302 241.470652 
L 64.039877 223.628756 
L 68.118451 207.506819 
L 72.197026 192.939036 
L 76.275601 179.775588 
L 80.354175 167.881096 
L 84.43275 157.133233 
L 88.511325 147.421464 
L 92.589899 138.645909 
L 96.668474 130.716319 
L 100.747049 123.55114 
L 104.825624 117.076685 
L 108.904198 111.226367 
L 112.982773 105.94002 
L 117.061348 101.163277 
L 121.139922 96.847012 
L 125.218497 92.946834 
L 129.297072 89.422634 
L 133.375646 86.238167 
L 137.454221 83.360682 
L 141.532796 80.760587 
L 145.61137 78.411141 
L 149.689945 76.288182 
L 153.76852 74.369876 
L 157.847095 72.636495 
L 161.925669 71.070211 
L 166.004244 69.654918 
L 170.082819 68.376058 
L 174.161393 67.220481 
L 178.239968 66.176301 
L 182.318543 65.232781 
L 186.397117 64.380215 
L 190.475692 63.609837 
L 194.554267 62.913724 
L 198.632841 62.284715 
L 202.711416 61.716343 
L 206.789991 61.202763 
L 210.868566 60.738691 
L 214.94714 60.319356 
L 219.025715 59.940445 
L 223.10429 59.598061 
L 227.182864 59.288682 
L 231.261439 59.009128 
L 235.340014 58.756523 
L 239.418588 58.528269 
L 243.497163 58.322018 
L 247.575738 58.13565 
L 251.654312 57.967248 
L 255.732887 57.81508 
L 259.811462 57.677581 
L 263.890037 57.553337 
L 267.968611 57.44107 
L 272.047186 57.339626 
L 276.125761 57.24796 
L 280.204335 57.165132 
L 284.28291 57.090288 
L 288.361485 57.022659 
L 292.440059 56.961549 
L 296.518634 56.906331 
L 300.597209 56.856435 
L 304.675783 56.811349 
L 308.754358 56.77061 
L 312.832933 56.733798 
L 316.911508 56.700534 
L 320.990082 56.670478 
L 325.068657 56.643318 
L 329.147232 56.618777 
L 333.225806 56.596602 
L 337.304381 56.576564 
L 341.382956 56.558458 
L 345.46153 56.542097 
L 349.540105 56.527314 
L 353.61868 56.513955 
L 357.697254 56.501885 
L 361.775829 56.490978 
L 365.854404 56.481122 
L 369.932979 56.472217 
L 374.011553 56.46417 
L 378.090128 56.456899 
" style="fill:none;stroke:#1f77b4;stroke-linecap:square;stroke-width:1.5;"/>
   </g>
   <g id="line2d_18">
    <path clip-path="url(#pe7b483a2b6)" d="M 55.882727 261.216 
L 59.961302 261.216 
L 64.039877 259.312548 
L 68.118451 256.146347 
L 72.197026 252.186513 
L 76.275601 247.773496 
L 80.354175 243.15153 
L 84.43275 238.493131 
L 88.511325 233.917585 
L 92.589899 229.504871 
L 96.668474 225.306128 
L 100.747049 221.35151 
L 104.825624 217.656068 
L 108.904198 214.224134 
L 112.982773 211.052579 
L 117.061348 208.133228 
L 121.139922 205.454628 
L 125.218497 203.003339 
L 129.297072 200.764872 
L 133.375646 198.724353 
L 137.454221 196.866983 
L 141.532796 195.178365 
L 145.61137 193.644703 
L 149.689945 192.25294 
L 153.76852 190.990825 
L 157.847095 189.846946 
L 161.925669 188.810728 
L 166.004244 187.872421 
L 170.082819 187.02306 
L 174.161393 186.254434 
L 178.239968 185.559034 
L 182.318543 184.93001 
L 186.397117 184.361123 
L 190.475692 183.846695 
L 194.554267 183.381568 
L 198.632841 182.961059 
L 202.711416 182.58092 
L 206.789991 182.237299 
L 210.868566 181.926707 
L 214.94714 181.645983 
L 219.025715 181.392264 
L 223.10429 181.162962 
L 227.182864 180.955732 
L 231.261439 180.768455 
L 235.340014 180.599213 
L 239.418588 180.446272 
L 243.497163 180.308063 
L 247.575738 180.18317 
L 251.654312 180.07031 
L 255.732887 179.968325 
L 259.811462 179.876168 
L 263.890037 179.792892 
L 267.968611 179.717642 
L 272.047186 179.649644 
L 276.125761 179.5882 
L 280.204335 179.532679 
L 284.28291 179.482509 
L 288.361485 179.437175 
L 292.440059 179.396211 
L 296.518634 179.359195 
L 300.597209 179.325747 
L 304.675783 179.295524 
L 308.754358 179.268214 
L 312.832933 179.243537 
L 316.911508 179.221238 
L 320.990082 179.201089 
L 325.068657 179.182882 
L 329.147232 179.166431 
L 333.225806 179.151565 
L 337.304381 179.138132 
L 341.382956 179.125994 
L 345.46153 179.115027 
L 349.540105 179.105116 
L 353.61868 179.096161 
L 357.697254 179.088069 
L 361.775829 179.080758 
L 365.854404 179.074151 
L 369.932979 179.068181 
L 374.011553 179.062786 
L 378.090128 179.057912 
" style="fill:none;stroke:#ff7f0e;stroke-linecap:square;stroke-width:1.5;"/>
   </g>
   <g id="line2d_19">
    <path clip-path="url(#pe7b483a2b6)" d="M 55.882727 261.216 
L 57.514157 253.949712 
L 60.777017 237.047694 
L 64.039877 222.831044 
L 65.671307 216.275589 
L 67.302736 211.22078 
L 68.934166 205.534119 
L 72.197026 190.606637 
L 73.828456 184.919976 
L 75.459886 177.653689 
L 77.091316 172.835824 
L 78.722746 169.123698 
L 80.354175 163.121113 
L 81.985605 158.777136 
L 83.617035 155.222974 
L 85.248465 149.93122 
L 86.879895 143.69169 
L 88.511325 139.979565 
L 90.142755 136.662347 
L 91.774185 134.766793 
L 93.405614 132.397352 
L 95.037044 129.790966 
L 96.668474 126.789673 
L 101.562764 114.468576 
L 103.194194 111.30932 
L 104.825624 106.965344 
L 106.457053 104.516921 
L 108.088483 103.016274 
L 109.719913 100.567851 
L 111.351343 97.329614 
L 112.982773 95.592024 
L 114.614203 92.195824 
L 116.245633 90.379252 
L 117.877063 90.063326 
L 119.508492 88.483698 
L 121.139922 85.877312 
L 126.034212 82.718057 
L 127.665642 77.821211 
L 130.928502 70.94983 
L 132.559931 70.081034 
L 134.191361 68.027518 
L 135.822791 64.631318 
L 137.454221 62.261877 
L 139.085651 60.20836 
L 140.717081 59.892435 
L 142.348511 61.86697 
L 143.979941 60.524286 
L 145.61137 59.576509 
L 147.2428 59.102621 
L 148.87423 57.838919 
L 150.50566 56.733179 
L 152.13709 57.207068 
L 153.76852 55.311514 
L 155.39995 54.837626 
L 157.03138 51.915314 
L 158.66281 51.441426 
L 160.294239 48.993003 
L 161.925669 49.861798 
L 163.557099 49.150966 
L 165.188529 46.860505 
L 166.819959 47.176431 
L 168.451389 47.09745 
L 170.082819 46.307636 
L 171.714249 43.385324 
L 173.345678 45.043933 
L 174.977108 41.726715 
L 176.608538 39.357273 
L 178.239968 37.777645 
L 179.871398 40.30505 
L 181.502828 39.75218 
L 183.134258 40.30505 
L 184.765688 40.463013 
L 186.397117 40.85792 
L 188.028547 41.410789 
L 189.659977 39.278292 
L 191.291407 39.19931 
L 192.922837 37.698664 
L 194.554267 37.777645 
L 196.185697 37.066813 
L 197.817127 37.935608 
L 199.448556 36.592925 
L 201.079986 34.934315 
L 202.711416 35.17126 
L 204.342846 35.013297 
L 205.974276 33.907557 
L 207.605706 33.591632 
L 209.237136 33.038762 
L 210.868566 33.828576 
L 212.499995 33.275706 
L 214.131425 31.617097 
L 215.762855 32.090985 
L 217.394285 33.196725 
L 219.025715 32.169967 
L 220.657145 32.327929 
L 222.288575 32.090985 
L 223.920005 32.880799 
L 225.551434 31.143209 
L 228.814294 28.457841 
L 230.445724 28.852748 
L 232.077154 29.879506 
L 233.708584 28.93173 
L 235.340014 29.326637 
L 236.971444 30.748302 
L 238.602873 30.827283 
L 240.234303 30.748302 
L 241.865733 30.827283 
L 243.497163 29.800525 
L 245.128593 30.353395 
L 246.760023 31.064227 
L 248.391453 30.590339 
L 250.022883 30.432376 
L 251.654312 31.459134 
L 254.917172 31.854041 
L 256.548602 30.274413 
L 258.180032 28.062934 
L 259.811462 29.326637 
L 261.442892 30.116451 
L 263.074322 30.116451 
L 264.705751 30.432376 
L 266.337181 32.564874 
L 267.968611 32.564874 
L 272.862901 29.089692 
L 276.125761 29.010711 
L 277.75719 29.247655 
L 281.02005 30.116451 
L 282.65148 29.326637 
L 284.28291 31.22219 
L 285.91434 31.301171 
L 287.54577 30.748302 
L 289.1772 29.010711 
L 290.80863 30.037469 
L 292.440059 31.854041 
L 294.071489 32.090985 
L 295.702919 31.22219 
L 297.334349 32.643855 
L 298.965779 31.380153 
L 300.597209 30.748302 
L 302.228639 31.380153 
L 303.860069 31.538116 
L 305.491498 32.012004 
L 307.122928 30.827283 
L 308.754358 29.010711 
L 310.385788 30.353395 
L 312.017218 30.274413 
L 313.648648 29.405618 
L 315.280078 28.773767 
L 316.911508 28.773767 
L 318.542937 29.089692 
L 320.174367 27.589046 
L 321.805797 26.799232 
L 323.437227 26.799232 
L 325.068657 26.009418 
L 326.700087 25.456548 
L 328.331517 25.298586 
L 329.962947 24.903679 
L 331.594376 25.851455 
L 333.225806 23.639976 
L 334.857236 24.745716 
L 336.488666 23.797939 
L 339.751526 21.665442 
L 341.382956 21.744423 
L 343.014386 22.929144 
L 344.645815 21.665442 
L 346.277245 22.376274 
L 347.908675 20.717665 
L 349.540105 19.532944 
L 351.171535 20.401739 
L 352.802965 21.981367 
L 354.434395 21.58646 
L 356.065825 19.769888 
L 357.697254 19.690907 
L 359.328684 19.296 
L 360.960114 21.270535 
L 362.591544 20.954609 
L 364.222974 22.534237 
L 365.854404 24.824697 
L 367.485834 26.562288 
L 370.748693 27.036176 
L 372.380123 27.82599 
L 374.011553 26.878214 
L 375.642983 27.747009 
L 378.905843 27.352102 
L 380.537273 27.747009 
L 380.537273 27.747009 
" style="fill:none;stroke:#2ca02c;stroke-linecap:square;stroke-width:1.5;"/>
   </g>
   <g id="line2d_20">
    <path clip-path="url(#pe7b483a2b6)" d="M 55.882727 261.216 
L 57.514157 261.216 
L 59.145587 260.900074 
L 60.777017 260.426186 
L 62.408447 259.636372 
L 64.039877 258.530633 
L 65.671307 257.582856 
L 68.934166 254.344619 
L 72.197026 251.738233 
L 73.828456 249.526754 
L 77.091316 245.89361 
L 78.722746 243.366206 
L 80.354175 242.260466 
L 85.248465 237.442601 
L 86.879895 236.494825 
L 90.142755 232.466774 
L 93.405614 227.648909 
L 95.037044 225.042523 
L 96.668474 223.778821 
L 98.299904 222.278174 
L 99.931334 219.908733 
L 101.562764 219.118919 
L 103.194194 217.223365 
L 104.825624 216.90744 
L 106.457053 213.985128 
L 109.719913 210.036059 
L 111.351343 208.298468 
L 112.982773 206.165971 
L 116.245633 202.690789 
L 117.877063 199.610515 
L 119.508492 197.478018 
L 121.139922 195.977371 
L 122.771352 194.002836 
L 124.402782 192.739134 
L 126.034212 190.764599 
L 127.665642 189.974786 
L 129.297072 188.55312 
L 130.928502 188.474139 
L 132.559931 186.736548 
L 134.191361 186.341642 
L 135.822791 186.26266 
L 137.454221 183.735256 
L 139.085651 183.9722 
L 140.717081 183.814237 
L 142.348511 179.786186 
L 143.979941 177.890633 
L 145.61137 177.574707 
L 147.2428 176.389986 
L 148.87423 175.995079 
L 150.50566 175.047303 
L 153.76852 170.624345 
L 155.39995 170.466382 
L 157.03138 171.019252 
L 158.66281 171.967028 
L 160.294239 171.888047 
L 161.925669 169.281661 
L 163.557099 167.149164 
L 166.819959 166.596294 
L 168.451389 164.147871 
L 170.082819 163.121113 
L 171.714249 163.831945 
L 173.345678 161.699448 
L 174.977108 161.462503 
L 176.608538 163.910927 
L 178.239968 164.779722 
L 179.871398 162.96315 
L 181.502828 161.462503 
L 183.134258 158.698155 
L 184.765688 158.935099 
L 186.397117 157.197508 
L 188.028547 156.17075 
L 189.659977 157.197508 
L 191.291407 157.671397 
L 192.922837 157.434452 
L 194.554267 156.802601 
L 196.185697 156.960564 
L 197.817127 155.933806 
L 199.448556 156.644639 
L 201.079986 156.960564 
L 202.711416 156.486676 
L 207.605706 153.406402 
L 209.237136 153.959271 
L 210.868566 152.063718 
L 212.499995 151.352885 
L 214.131425 152.853532 
L 215.762855 152.063718 
L 217.394285 151.431867 
L 219.025715 150.563071 
L 220.657145 150.642053 
L 222.288575 148.7465 
L 223.920005 147.324834 
L 225.551434 148.7465 
L 227.182864 148.588537 
L 228.814294 149.141406 
L 230.445724 148.7465 
L 232.077154 145.192337 
L 233.708584 146.771965 
L 235.340014 144.876411 
L 236.971444 144.007616 
L 238.602873 144.165579 
L 240.234303 144.560486 
L 241.865733 143.454746 
L 243.497163 145.429281 
L 245.128593 144.639467 
L 246.760023 142.901877 
L 248.391453 143.612709 
L 250.022883 142.349007 
L 251.654312 141.9541 
L 254.917172 144.007616 
L 256.548602 144.560486 
L 258.180032 144.876411 
L 259.811462 143.770672 
L 261.442892 145.034374 
L 263.074322 143.296784 
L 264.705751 142.980858 
L 266.337181 141.559193 
L 269.600041 142.112063 
L 271.231471 142.191044 
L 272.862901 142.822895 
L 274.494331 143.059839 
L 276.125761 143.059839 
L 277.75719 143.454746 
L 279.38862 143.69169 
L 281.02005 143.217802 
L 282.65148 144.007616 
L 284.28291 143.533728 
L 287.54577 144.481504 
L 290.80863 145.113356 
L 292.440059 145.271318 
L 294.071489 144.79743 
L 295.702919 147.561779 
L 297.334349 147.64076 
L 298.965779 147.403816 
L 300.597209 147.561779 
L 302.228639 147.166872 
L 303.860069 146.140114 
L 305.491498 145.745207 
L 307.122928 146.219095 
L 308.754358 147.245853 
L 310.385788 147.166872 
L 312.017218 147.482797 
L 313.648648 146.850946 
L 315.280078 146.377058 
L 316.911508 145.113356 
L 318.542937 144.24456 
L 320.174367 144.639467 
L 321.805797 144.24456 
L 323.437227 144.639467 
L 325.068657 144.086597 
L 326.700087 144.24456 
L 329.962947 145.192337 
L 331.594376 145.903169 
L 333.225806 146.298076 
L 334.857236 145.192337 
L 336.488666 146.298076 
L 338.120096 146.456039 
L 339.751526 147.166872 
L 341.382956 145.3503 
L 343.014386 144.79743 
L 344.645815 144.402523 
L 346.277245 144.165579 
L 347.908675 144.560486 
L 349.540105 147.008909 
L 351.171535 146.850946 
L 352.802965 146.061132 
L 354.434395 146.929928 
L 356.065825 147.324834 
L 357.697254 146.298076 
L 359.328684 146.377058 
L 360.960114 143.849653 
L 362.591544 144.560486 
L 365.854404 143.217802 
L 367.485834 141.40123 
L 369.117264 140.769379 
L 370.748693 140.84836 
L 372.380123 139.426695 
L 374.011553 140.216509 
L 375.642983 139.821602 
L 377.274413 138.5579 
L 378.905843 139.031788 
L 380.537273 137.768086 
L 380.537273 137.768086 
" style="fill:none;stroke:#d62728;stroke-linecap:square;stroke-width:1.5;"/>
   </g>
   <g id="patch_3">
    <path d="M 39.65 273.312 
L 39.65 7.2 
" style="fill:none;stroke:#000000;stroke-linecap:square;stroke-linejoin:miter;stroke-width:0.8;"/>
   </g>
   <g id="patch_4">
    <path d="M 396.77 273.312 
L 396.77 7.2 
" style="fill:none;stroke:#000000;stroke-linecap:square;stroke-linejoin:miter;stroke-width:0.8;"/>
   </g>
   <g id="patch_5">
    <path d="M 39.65 273.312 
L 396.77 273.312 
" style="fill:none;stroke:#000000;stroke-linecap:square;stroke-linejoin:miter;stroke-width:0.8;"/>
   </g>
   <g id="patch_6">
    <path d="M 39.65 7.2 
L 396.77 7.2 
" style="fill:none;stroke:#000000;stroke-linecap:square;stroke-linejoin:miter;stroke-width:0.8;"/>
   </g>
  </g>
 </g>
 <defs>
  <clipPath id="pe7b483a2b6">
   <rect height="266.112" width="357.12" x="39.65" y="7.2"/>
  </clipPath>
 </defs>
</svg>
