<?xml version="1.0" encoding="utf-8" standalone="no"?>
<!DOCTYPE svg PUBLIC "-//W3C//DTD SVG 1.1//EN"
  "http://www.w3.org/Graphics/SVG/1.1/DTD/svg11.dtd">
<!-- Created with matplotlib (https://matplotlib.org/) -->
<svg height="297.190125pt" version="1.1" viewBox="0 0 403.97 297.190125" width="403.97pt" xmlns="http://www.w3.org/2000/svg" xmlns:xlink="http://www.w3.org/1999/xlink">
 <metadata>
  <rdf:RDF xmlns:cc="http://creativecommons.org/ns#" xmlns:dc="http://purl.org/dc/elements/1.1/" xmlns:rdf="http://www.w3.org/1999/02/22-rdf-syntax-ns#">
   <cc:Work>
    <dc:type rdf:resource="http://purl.org/dc/dcmitype/StillImage"/>
    <dc:date>2021-05-24T20:33:16.471418</dc:date>
    <dc:format>image/svg+xml</dc:format>
    <dc:creator>
     <cc:Agent>
      <dc:title>Matplotlib v3.3.4, https://matplotlib.org/</dc:title>
     </cc:Agent>
    </dc:creator>
   </cc:Work>
  </rdf:RDF>
 </metadata>
 <defs>
  <style type="text/css">*{stroke-linecap:butt;stroke-linejoin:round;}</style>
 </defs>
 <g id="figure_1">
  <g id="patch_1">
   <path d="M 0 297.190125 
L 403.97 297.190125 
L 403.97 0 
L 0 0 
z
" style="fill:#ffffff;"/>
  </g>
  <g id="axes_1">
   <g id="patch_2">
    <path d="M 39.65 273.312 
L 396.77 273.312 
L 396.77 7.2 
L 39.65 7.2 
z
" style="fill:#ffffff;"/>
   </g>
   <g id="matplotlib.axis_1">
    <g id="xtick_1">
     <g id="line2d_1">
      <defs>
       <path d="M 0 0 
L 0 3.5 
" id="ma14cc5e6ad" style="stroke:#000000;stroke-width:0.8;"/>
      </defs>
      <g>
       <use style="stroke:#000000;stroke-width:0.8;" x="55.882727" xlink:href="#ma14cc5e6ad" y="273.312"/>
      </g>
     </g>
     <g id="text_1">
      <!-- 0.0 -->
      <g transform="translate(47.931165 287.910437)scale(0.1 -0.1)">
       <defs>
        <path d="M 31.78125 66.40625 
Q 24.171875 66.40625 20.328125 58.90625 
Q 16.5 51.421875 16.5 36.375 
Q 16.5 21.390625 20.328125 13.890625 
Q 24.171875 6.390625 31.78125 6.390625 
Q 39.453125 6.390625 43.28125 13.890625 
Q 47.125 21.390625 47.125 36.375 
Q 47.125 51.421875 43.28125 58.90625 
Q 39.453125 66.40625 31.78125 66.40625 
z
M 31.78125 74.21875 
Q 44.046875 74.21875 50.515625 64.515625 
Q 56.984375 54.828125 56.984375 36.375 
Q 56.984375 17.96875 50.515625 8.265625 
Q 44.046875 -1.421875 31.78125 -1.421875 
Q 19.53125 -1.421875 13.0625 8.265625 
Q 6.59375 17.96875 6.59375 36.375 
Q 6.59375 54.828125 13.0625 64.515625 
Q 19.53125 74.21875 31.78125 74.21875 
z
" id="DejaVuSans-48"/>
        <path d="M 10.6875 12.40625 
L 21 12.40625 
L 21 0 
L 10.6875 0 
z
" id="DejaVuSans-46"/>
       </defs>
       <use xlink:href="#DejaVuSans-48"/>
       <use x="63.623047" xlink:href="#DejaVuSans-46"/>
       <use x="95.410156" xlink:href="#DejaVuSans-48"/>
      </g>
     </g>
    </g>
    <g id="xtick_2">
     <g id="line2d_2">
      <g>
       <use style="stroke:#000000;stroke-width:0.8;" x="96.668474" xlink:href="#ma14cc5e6ad" y="273.312"/>
      </g>
     </g>
     <g id="text_2">
      <!-- 2.5 -->
      <g transform="translate(88.716912 287.910437)scale(0.1 -0.1)">
       <defs>
        <path d="M 19.1875 8.296875 
L 53.609375 8.296875 
L 53.609375 0 
L 7.328125 0 
L 7.328125 8.296875 
Q 12.9375 14.109375 22.625 23.890625 
Q 32.328125 33.6875 34.8125 36.53125 
Q 39.546875 41.84375 41.421875 45.53125 
Q 43.3125 49.21875 43.3125 52.78125 
Q 43.3125 58.59375 39.234375 62.25 
Q 35.15625 65.921875 28.609375 65.921875 
Q 23.96875 65.921875 18.8125 64.3125 
Q 13.671875 62.703125 7.8125 59.421875 
L 7.8125 69.390625 
Q 13.765625 71.78125 18.9375 73 
Q 24.125 74.21875 28.421875 74.21875 
Q 39.75 74.21875 46.484375 68.546875 
Q 53.21875 62.890625 53.21875 53.421875 
Q 53.21875 48.921875 51.53125 44.890625 
Q 49.859375 40.875 45.40625 35.40625 
Q 44.1875 33.984375 37.640625 27.21875 
Q 31.109375 20.453125 19.1875 8.296875 
z
" id="DejaVuSans-50"/>
        <path d="M 10.796875 72.90625 
L 49.515625 72.90625 
L 49.515625 64.59375 
L 19.828125 64.59375 
L 19.828125 46.734375 
Q 21.96875 47.46875 24.109375 47.828125 
Q 26.265625 48.1875 28.421875 48.1875 
Q 40.625 48.1875 47.75 41.5 
Q 54.890625 34.8125 54.890625 23.390625 
Q 54.890625 11.625 47.5625 5.09375 
Q 40.234375 -1.421875 26.90625 -1.421875 
Q 22.3125 -1.421875 17.546875 -0.640625 
Q 12.796875 0.140625 7.71875 1.703125 
L 7.71875 11.625 
Q 12.109375 9.234375 16.796875 8.0625 
Q 21.484375 6.890625 26.703125 6.890625 
Q 35.15625 6.890625 40.078125 11.328125 
Q 45.015625 15.765625 45.015625 23.390625 
Q 45.015625 31 40.078125 35.4375 
Q 35.15625 39.890625 26.703125 39.890625 
Q 22.75 39.890625 18.8125 39.015625 
Q 14.890625 38.140625 10.796875 36.28125 
z
" id="DejaVuSans-53"/>
       </defs>
       <use xlink:href="#DejaVuSans-50"/>
       <use x="63.623047" xlink:href="#DejaVuSans-46"/>
       <use x="95.410156" xlink:href="#DejaVuSans-53"/>
      </g>
     </g>
    </g>
    <g id="xtick_3">
     <g id="line2d_3">
      <g>
       <use style="stroke:#000000;stroke-width:0.8;" x="137.454221" xlink:href="#ma14cc5e6ad" y="273.312"/>
      </g>
     </g>
     <g id="text_3">
      <!-- 5.0 -->
      <g transform="translate(129.502659 287.910437)scale(0.1 -0.1)">
       <use xlink:href="#DejaVuSans-53"/>
       <use x="63.623047" xlink:href="#DejaVuSans-46"/>
       <use x="95.410156" xlink:href="#DejaVuSans-48"/>
      </g>
     </g>
    </g>
    <g id="xtick_4">
     <g id="line2d_4">
      <g>
       <use style="stroke:#000000;stroke-width:0.8;" x="178.239968" xlink:href="#ma14cc5e6ad" y="273.312"/>
      </g>
     </g>
     <g id="text_4">
      <!-- 7.5 -->
      <g transform="translate(170.288406 287.910437)scale(0.1 -0.1)">
       <defs>
        <path d="M 8.203125 72.90625 
L 55.078125 72.90625 
L 55.078125 68.703125 
L 28.609375 0 
L 18.3125 0 
L 43.21875 64.59375 
L 8.203125 64.59375 
z
" id="DejaVuSans-55"/>
       </defs>
       <use xlink:href="#DejaVuSans-55"/>
       <use x="63.623047" xlink:href="#DejaVuSans-46"/>
       <use x="95.410156" xlink:href="#DejaVuSans-53"/>
      </g>
     </g>
    </g>
    <g id="xtick_5">
     <g id="line2d_5">
      <g>
       <use style="stroke:#000000;stroke-width:0.8;" x="219.025715" xlink:href="#ma14cc5e6ad" y="273.312"/>
      </g>
     </g>
     <g id="text_5">
      <!-- 10.0 -->
      <g transform="translate(207.892902 287.910437)scale(0.1 -0.1)">
       <defs>
        <path d="M 12.40625 8.296875 
L 28.515625 8.296875 
L 28.515625 63.921875 
L 10.984375 60.40625 
L 10.984375 69.390625 
L 28.421875 72.90625 
L 38.28125 72.90625 
L 38.28125 8.296875 
L 54.390625 8.296875 
L 54.390625 0 
L 12.40625 0 
z
" id="DejaVuSans-49"/>
       </defs>
       <use xlink:href="#DejaVuSans-49"/>
       <use x="63.623047" xlink:href="#DejaVuSans-48"/>
       <use x="127.246094" xlink:href="#DejaVuSans-46"/>
       <use x="159.033203" xlink:href="#DejaVuSans-48"/>
      </g>
     </g>
    </g>
    <g id="xtick_6">
     <g id="line2d_6">
      <g>
       <use style="stroke:#000000;stroke-width:0.8;" x="259.811462" xlink:href="#ma14cc5e6ad" y="273.312"/>
      </g>
     </g>
     <g id="text_6">
      <!-- 12.5 -->
      <g transform="translate(248.678649 287.910437)scale(0.1 -0.1)">
       <use xlink:href="#DejaVuSans-49"/>
       <use x="63.623047" xlink:href="#DejaVuSans-50"/>
       <use x="127.246094" xlink:href="#DejaVuSans-46"/>
       <use x="159.033203" xlink:href="#DejaVuSans-53"/>
      </g>
     </g>
    </g>
    <g id="xtick_7">
     <g id="line2d_7">
      <g>
       <use style="stroke:#000000;stroke-width:0.8;" x="300.597209" xlink:href="#ma14cc5e6ad" y="273.312"/>
      </g>
     </g>
     <g id="text_7">
      <!-- 15.0 -->
      <g transform="translate(289.464396 287.910437)scale(0.1 -0.1)">
       <use xlink:href="#DejaVuSans-49"/>
       <use x="63.623047" xlink:href="#DejaVuSans-53"/>
       <use x="127.246094" xlink:href="#DejaVuSans-46"/>
       <use x="159.033203" xlink:href="#DejaVuSans-48"/>
      </g>
     </g>
    </g>
    <g id="xtick_8">
     <g id="line2d_8">
      <g>
       <use style="stroke:#000000;stroke-width:0.8;" x="341.382956" xlink:href="#ma14cc5e6ad" y="273.312"/>
      </g>
     </g>
     <g id="text_8">
      <!-- 17.5 -->
      <g transform="translate(330.250143 287.910437)scale(0.1 -0.1)">
       <use xlink:href="#DejaVuSans-49"/>
       <use x="63.623047" xlink:href="#DejaVuSans-55"/>
       <use x="127.246094" xlink:href="#DejaVuSans-46"/>
       <use x="159.033203" xlink:href="#DejaVuSans-53"/>
      </g>
     </g>
    </g>
    <g id="xtick_9">
     <g id="line2d_9">
      <g>
       <use style="stroke:#000000;stroke-width:0.8;" x="382.168703" xlink:href="#ma14cc5e6ad" y="273.312"/>
      </g>
     </g>
     <g id="text_9">
      <!-- 20.0 -->
      <g transform="translate(371.03589 287.910437)scale(0.1 -0.1)">
       <use xlink:href="#DejaVuSans-50"/>
       <use x="63.623047" xlink:href="#DejaVuSans-48"/>
       <use x="127.246094" xlink:href="#DejaVuSans-46"/>
       <use x="159.033203" xlink:href="#DejaVuSans-48"/>
      </g>
     </g>
    </g>
   </g>
   <g id="matplotlib.axis_2">
    <g id="ytick_1">
     <g id="line2d_10">
      <defs>
       <path d="M 0 0 
L -3.5 0 
" id="m60e7e8c932" style="stroke:#000000;stroke-width:0.8;"/>
      </defs>
      <g>
       <use style="stroke:#000000;stroke-width:0.8;" x="39.65" xlink:href="#m60e7e8c932" y="261.216"/>
      </g>
     </g>
     <g id="text_10">
      <!-- 0 -->
      <g transform="translate(26.2875 265.015219)scale(0.1 -0.1)">
       <use xlink:href="#DejaVuSans-48"/>
      </g>
     </g>
    </g>
    <g id="ytick_2">
     <g id="line2d_11">
      <g>
       <use style="stroke:#000000;stroke-width:0.8;" x="39.65" xlink:href="#m60e7e8c932" y="226.862876"/>
      </g>
     </g>
     <g id="text_11">
      <!-- 500 -->
      <g transform="translate(13.5625 230.662095)scale(0.1 -0.1)">
       <use xlink:href="#DejaVuSans-53"/>
       <use x="63.623047" xlink:href="#DejaVuSans-48"/>
       <use x="127.246094" xlink:href="#DejaVuSans-48"/>
      </g>
     </g>
    </g>
    <g id="ytick_3">
     <g id="line2d_12">
      <g>
       <use style="stroke:#000000;stroke-width:0.8;" x="39.65" xlink:href="#m60e7e8c932" y="192.509752"/>
      </g>
     </g>
     <g id="text_12">
      <!-- 1000 -->
      <g transform="translate(7.2 196.308971)scale(0.1 -0.1)">
       <use xlink:href="#DejaVuSans-49"/>
       <use x="63.623047" xlink:href="#DejaVuSans-48"/>
       <use x="127.246094" xlink:href="#DejaVuSans-48"/>
       <use x="190.869141" xlink:href="#DejaVuSans-48"/>
      </g>
     </g>
    </g>
    <g id="ytick_4">
     <g id="line2d_13">
      <g>
       <use style="stroke:#000000;stroke-width:0.8;" x="39.65" xlink:href="#m60e7e8c932" y="158.156628"/>
      </g>
     </g>
     <g id="text_13">
      <!-- 1500 -->
      <g transform="translate(7.2 161.955847)scale(0.1 -0.1)">
       <use xlink:href="#DejaVuSans-49"/>
       <use x="63.623047" xlink:href="#DejaVuSans-53"/>
       <use x="127.246094" xlink:href="#DejaVuSans-48"/>
       <use x="190.869141" xlink:href="#DejaVuSans-48"/>
      </g>
     </g>
    </g>
    <g id="ytick_5">
     <g id="line2d_14">
      <g>
       <use style="stroke:#000000;stroke-width:0.8;" x="39.65" xlink:href="#m60e7e8c932" y="123.803504"/>
      </g>
     </g>
     <g id="text_14">
      <!-- 2000 -->
      <g transform="translate(7.2 127.602722)scale(0.1 -0.1)">
       <use xlink:href="#DejaVuSans-50"/>
       <use x="63.623047" xlink:href="#DejaVuSans-48"/>
       <use x="127.246094" xlink:href="#DejaVuSans-48"/>
       <use x="190.869141" xlink:href="#DejaVuSans-48"/>
      </g>
     </g>
    </g>
    <g id="ytick_6">
     <g id="line2d_15">
      <g>
       <use style="stroke:#000000;stroke-width:0.8;" x="39.65" xlink:href="#m60e7e8c932" y="89.45038"/>
      </g>
     </g>
     <g id="text_15">
      <!-- 2500 -->
      <g transform="translate(7.2 93.249598)scale(0.1 -0.1)">
       <use xlink:href="#DejaVuSans-50"/>
       <use x="63.623047" xlink:href="#DejaVuSans-53"/>
       <use x="127.246094" xlink:href="#DejaVuSans-48"/>
       <use x="190.869141" xlink:href="#DejaVuSans-48"/>
      </g>
     </g>
    </g>
    <g id="ytick_7">
     <g id="line2d_16">
      <g>
       <use style="stroke:#000000;stroke-width:0.8;" x="39.65" xlink:href="#m60e7e8c932" y="55.097256"/>
      </g>
     </g>
     <g id="text_16">
      <!-- 3000 -->
      <g transform="translate(7.2 58.896474)scale(0.1 -0.1)">
       <defs>
        <path d="M 40.578125 39.3125 
Q 47.65625 37.796875 51.625 33 
Q 55.609375 28.21875 55.609375 21.1875 
Q 55.609375 10.40625 48.1875 4.484375 
Q 40.765625 -1.421875 27.09375 -1.421875 
Q 22.515625 -1.421875 17.65625 -0.515625 
Q 12.796875 0.390625 7.625 2.203125 
L 7.625 11.71875 
Q 11.71875 9.328125 16.59375 8.109375 
Q 21.484375 6.890625 26.8125 6.890625 
Q 36.078125 6.890625 40.9375 10.546875 
Q 45.796875 14.203125 45.796875 21.1875 
Q 45.796875 27.640625 41.28125 31.265625 
Q 36.765625 34.90625 28.71875 34.90625 
L 20.21875 34.90625 
L 20.21875 43.015625 
L 29.109375 43.015625 
Q 36.375 43.015625 40.234375 45.921875 
Q 44.09375 48.828125 44.09375 54.296875 
Q 44.09375 59.90625 40.109375 62.90625 
Q 36.140625 65.921875 28.71875 65.921875 
Q 24.65625 65.921875 20.015625 65.03125 
Q 15.375 64.15625 9.8125 62.3125 
L 9.8125 71.09375 
Q 15.4375 72.65625 20.34375 73.4375 
Q 25.25 74.21875 29.59375 74.21875 
Q 40.828125 74.21875 47.359375 69.109375 
Q 53.90625 64.015625 53.90625 55.328125 
Q 53.90625 49.265625 50.4375 45.09375 
Q 46.96875 40.921875 40.578125 39.3125 
z
" id="DejaVuSans-51"/>
       </defs>
       <use xlink:href="#DejaVuSans-51"/>
       <use x="63.623047" xlink:href="#DejaVuSans-48"/>
       <use x="127.246094" xlink:href="#DejaVuSans-48"/>
       <use x="190.869141" xlink:href="#DejaVuSans-48"/>
      </g>
     </g>
    </g>
    <g id="ytick_8">
     <g id="line2d_17">
      <g>
       <use style="stroke:#000000;stroke-width:0.8;" x="39.65" xlink:href="#m60e7e8c932" y="20.744132"/>
      </g>
     </g>
     <g id="text_17">
      <!-- 3500 -->
      <g transform="translate(7.2 24.54335)scale(0.1 -0.1)">
       <use xlink:href="#DejaVuSans-51"/>
       <use x="63.623047" xlink:href="#DejaVuSans-53"/>
       <use x="127.246094" xlink:href="#DejaVuSans-48"/>
       <use x="190.869141" xlink:href="#DejaVuSans-48"/>
      </g>
     </g>
    </g>
   </g>
   <g id="line2d_18">
    <path clip-path="url(#p5b2040885c)" d="M 55.882727 261.216 
L 72.197026 192.509752 
L 88.511325 143.281725 
L 104.825624 108.009844 
L 121.139922 82.737541 
L 137.454221 64.629936 
L 153.76852 51.655837 
L 170.082819 42.359895 
L 186.397117 35.699353 
L 202.711416 30.927074 
L 219.025715 27.507736 
L 235.340014 25.057781 
L 251.654312 23.302388 
L 267.968611 22.044649 
L 284.28291 21.143479 
L 300.597209 20.49779 
L 316.911508 20.035155 
L 333.225806 19.703676 
L 349.540105 19.466172 
L 365.854404 19.296 
" style="fill:none;stroke:#1f77b4;stroke-linecap:square;stroke-width:1.5;"/>
   </g>
   <g id="line2d_19">
    <path clip-path="url(#p5b2040885c)" d="M 55.882727 261.216 
L 72.197026 261.216 
L 88.511325 238.313917 
L 104.825624 210.146646 
L 121.139922 183.928275 
L 137.454221 162.043662 
L 153.76852 144.772234 
L 170.082819 131.580383 
L 186.397117 121.709039 
L 202.711416 114.420911 
L 219.025715 109.088426 
L 235.340014 105.210949 
L 251.654312 102.4036 
L 267.968611 100.377177 
L 284.28291 98.917564 
L 300.597209 97.867809 
L 316.911508 97.113636 
L 333.225806 96.572231 
L 349.540105 96.183781 
L 365.854404 95.905183 
" style="fill:none;stroke:#ff7f0e;stroke-linecap:square;stroke-width:1.5;"/>
   </g>
   <g id="line2d_20">
    <path clip-path="url(#p5b2040885c)" d="M 55.882727 261.216 
L 65.671307 221.641201 
L 67.302736 217.175295 
L 70.565596 206.251001 
L 72.197026 201.372858 
L 73.828456 198.006252 
L 83.617035 172.516234 
L 86.879895 165.43949 
L 88.511325 160.286521 
L 90.142755 157.469565 
L 91.774185 155.270965 
L 93.405614 152.728834 
L 95.037044 150.667647 
L 96.668474 147.988103 
L 103.194194 135.895803 
L 104.825624 132.048254 
L 106.457053 127.788466 
L 111.351343 119.955954 
L 112.982773 118.169591 
L 116.245633 113.634979 
L 117.877063 110.68061 
L 119.508492 109.100367 
L 121.139922 106.420823 
L 122.771352 104.840579 
L 124.402782 103.672573 
L 126.034212 100.580792 
L 127.665642 99.275373 
L 129.297072 99.756317 
L 130.928502 98.176073 
L 132.559931 96.114886 
L 134.191361 94.809467 
L 135.822791 94.39723 
L 137.454221 94.465936 
L 139.085651 94.122405 
L 140.717081 93.091811 
L 142.348511 90.068736 
L 143.979941 88.488492 
L 145.61137 88.076255 
L 147.2428 86.496011 
L 148.87423 84.091292 
L 150.50566 82.785874 
L 152.13709 83.40423 
L 153.76852 83.472936 
L 155.39995 83.129405 
L 157.03138 81.75528 
L 158.66281 81.411749 
L 160.294239 79.487974 
L 161.925669 79.281855 
L 163.557099 78.800911 
L 165.188529 78.045142 
L 166.819959 75.022068 
L 168.451389 74.953361 
L 170.082819 73.854061 
L 171.714249 73.785355 
L 173.345678 72.617349 
L 176.608538 70.899693 
L 178.239968 70.418749 
L 179.871398 68.769799 
L 181.502828 68.975918 
L 183.134258 68.975918 
L 184.765688 67.533087 
L 186.397117 65.81543 
L 188.028547 64.990955 
L 191.291407 60.799874 
L 192.922837 59.837987 
L 194.554267 59.357043 
L 197.817127 57.021031 
L 199.448556 57.364562 
L 201.079986 56.746206 
L 202.711416 57.501974 
L 204.342846 59.288337 
L 205.974276 60.112812 
L 207.605706 61.074699 
L 209.237136 62.792355 
L 212.499995 62.173999 
L 214.131425 62.036587 
L 215.762855 61.212112 
L 217.394285 62.173999 
L 219.025715 61.693055 
L 220.657145 60.799874 
L 222.288575 60.525049 
L 223.920005 59.975399 
L 225.551434 60.044105 
L 227.182864 59.288337 
L 228.814294 59.563162 
L 230.445724 61.486937 
L 232.077154 60.86858 
L 233.708584 61.486937 
L 235.340014 61.761762 
L 236.971444 63.548124 
L 240.234303 63.479418 
L 241.865733 63.410712 
L 243.497163 64.441305 
L 245.128593 63.479418 
L 248.391453 62.105293 
L 250.022883 62.723649 
L 251.654312 62.51753 
L 253.285742 61.693055 
L 254.917172 61.693055 
L 256.548602 61.280818 
L 258.180032 60.387637 
L 259.811462 59.700574 
L 261.442892 60.31893 
L 263.074322 59.494455 
L 264.705751 57.433268 
L 266.337181 57.433268 
L 269.600041 58.807393 
L 271.231471 59.150924 
L 272.862901 58.463862 
L 274.494331 58.189037 
L 276.125761 58.189037 
L 277.75719 57.158443 
L 279.38862 56.333968 
L 281.02005 56.952324 
L 282.65148 55.921731 
L 284.28291 55.578199 
L 285.91434 55.715612 
L 287.54577 55.303374 
L 289.1772 54.204074 
L 290.80863 52.005474 
L 292.440059 53.860543 
L 294.071489 53.104774 
L 295.702919 53.929249 
L 297.334349 54.066662 
L 298.965779 53.791837 
L 300.597209 54.616312 
L 302.228639 53.036068 
L 303.860069 52.761243 
L 305.491498 54.066662 
L 307.122928 53.310893 
L 308.754358 53.585718 
L 310.385788 52.349006 
L 312.017218 52.349006 
L 313.648648 51.661943 
L 315.280078 51.593237 
L 316.911508 50.562643 
L 318.542937 50.219112 
L 320.174367 49.532049 
L 321.805797 49.257225 
L 323.437227 49.669462 
L 328.331517 49.394637 
L 329.962947 49.738168 
L 331.594376 49.806874 
L 333.225806 48.43275 
L 334.857236 48.9824 
L 336.488666 49.669462 
L 338.120096 49.463343 
L 339.751526 48.913693 
L 341.382956 50.012993 
L 343.014386 49.051106 
L 344.645815 49.806874 
L 346.277245 50.150406 
L 347.908675 50.700056 
L 349.540105 52.074181 
L 351.171535 51.524531 
L 352.802965 52.555124 
L 354.434395 54.204074 
L 356.065825 53.448306 
L 357.697254 52.349006 
L 359.328684 51.387118 
L 360.960114 51.661943 
L 362.591544 52.142887 
L 364.222974 52.142887 
L 365.854404 50.493937 
L 367.485834 51.661943 
L 369.117264 50.631349 
L 370.748693 50.150406 
L 372.380123 49.806874 
L 374.011553 48.844987 
L 375.642983 47.608275 
L 377.274413 46.096737 
L 378.905843 46.646387 
L 380.537273 49.738168 
L 380.537273 49.738168 
" style="fill:none;stroke:#2ca02c;stroke-linecap:square;stroke-width:1.5;"/>
   </g>
   <g id="line2d_21">
    <path clip-path="url(#p5b2040885c)" d="M 55.882727 261.216 
L 57.514157 261.147294 
L 59.145587 260.803763 
L 60.777017 260.185406 
L 62.408447 259.704463 
L 64.039877 259.086106 
L 65.671307 257.849394 
L 67.302736 256.406563 
L 68.934166 255.16985 
L 70.565596 253.658313 
L 72.197026 252.559013 
L 75.459886 248.986288 
L 77.091316 247.131219 
L 78.722746 246.169332 
L 80.354175 243.970732 
L 81.985605 243.008844 
L 85.248465 240.054476 
L 86.879895 237.581051 
L 88.511325 235.725982 
L 90.142755 233.046438 
L 91.774185 230.916545 
L 93.405614 229.885951 
L 95.037044 227.549938 
L 96.668474 226.175813 
L 98.299904 226.175813 
L 99.931334 224.801688 
L 101.562764 222.740501 
L 103.194194 221.984732 
L 104.825624 221.435082 
L 106.457053 219.854839 
L 108.088483 218.892951 
L 109.719913 218.205889 
L 111.351343 216.969176 
L 112.982773 214.907989 
L 114.614203 212.365858 
L 117.877063 209.548901 
L 119.508492 206.663239 
L 121.139922 205.151702 
L 122.771352 202.884395 
L 124.402782 202.05992 
L 126.034212 200.273558 
L 127.665642 198.281077 
L 129.297072 195.395414 
L 130.928502 194.708352 
L 132.559931 193.540346 
L 134.191361 192.509752 
L 137.454221 188.799614 
L 139.085651 187.631608 
L 140.717081 186.601015 
L 142.348511 186.669721 
L 143.979941 186.463602 
L 145.61137 184.745946 
L 147.2428 184.608533 
L 148.87423 184.333708 
L 150.50566 184.608533 
L 152.13709 182.822171 
L 155.39995 181.997696 
L 157.03138 181.37934 
L 158.66281 180.348746 
L 160.294239 180.623571 
L 161.925669 180.417452 
L 163.557099 180.967102 
L 165.188529 180.554865 
L 166.819959 179.799096 
L 168.451389 178.493677 
L 170.082819 176.98214 
L 171.714249 176.363784 
L 173.345678 177.050846 
L 174.977108 177.875321 
L 176.608538 176.363784 
L 178.239968 176.98214 
L 181.502828 174.23389 
L 183.134258 174.027771 
L 184.765688 174.577421 
L 186.397117 174.646127 
L 188.028547 173.959065 
L 189.659977 174.027771 
L 191.291407 173.409415 
L 192.922837 173.409415 
L 194.554267 173.13459 
L 196.185697 174.78354 
L 197.817127 173.13459 
L 199.448556 171.760465 
L 201.079986 171.004696 
L 204.342846 166.470084 
L 205.974276 165.98914 
L 207.605706 166.057846 
L 209.237136 164.271484 
L 210.868566 164.752428 
L 215.762855 164.615015 
L 217.394285 162.416415 
L 219.025715 162.759946 
L 220.657145 160.904878 
L 222.288575 160.836171 
L 223.920005 161.660646 
L 225.551434 161.866765 
L 227.182864 161.729353 
L 228.814294 161.866765 
L 230.445724 161.317115 
L 232.077154 161.385821 
L 233.708584 161.935471 
L 235.340014 161.660646 
L 236.971444 160.080403 
L 238.602873 160.973584 
L 240.234303 161.385821 
L 241.865733 162.966065 
L 243.497163 163.378303 
L 245.128593 164.958546 
L 246.760023 165.851728 
L 248.391453 165.851728 
L 250.022883 166.126553 
L 251.654312 166.126553 
L 253.285742 164.683721 
L 254.917172 165.851728 
L 256.548602 166.470084 
L 258.180032 166.057846 
L 259.811462 165.370784 
L 261.442892 163.24089 
L 264.705751 164.34019 
L 266.337181 164.202778 
L 267.968611 163.79054 
L 269.600041 162.897359 
L 272.862901 162.279003 
L 274.494331 163.309596 
L 276.125761 163.378303 
L 277.75719 163.653128 
L 279.38862 162.966065 
L 281.02005 161.385821 
L 282.65148 162.347709 
L 284.28291 162.897359 
L 285.91434 164.065365 
L 287.54577 163.859246 
L 289.1772 164.615015 
L 290.80863 165.233371 
L 292.440059 164.202778 
L 294.071489 164.683721 
L 295.702919 164.408896 
L 297.334349 162.69124 
L 298.965779 162.966065 
L 300.597209 161.179703 
L 302.228639 161.729353 
L 303.860069 160.630053 
L 305.491498 158.431453 
L 307.122928 158.912397 
L 308.754358 157.606978 
L 310.385788 157.126034 
L 312.017218 158.156628 
L 313.648648 158.225334 
L 315.280078 157.950509 
L 316.911508 159.94299 
L 318.542937 159.324634 
L 320.174367 159.94299 
L 321.805797 160.767465 
L 323.437227 161.179703 
L 325.068657 160.355228 
L 326.700087 159.324634 
L 328.331517 159.118515 
L 329.962947 158.568865 
L 331.594376 159.187222 
L 333.225806 159.599459 
L 334.857236 160.49264 
L 336.488666 160.080403 
L 338.120096 159.049809 
L 339.751526 159.736872 
L 341.382956 158.706278 
L 343.014386 159.39334 
L 344.645815 158.637572 
L 346.277245 158.019215 
L 347.908675 157.538272 
L 349.540105 158.706278 
L 351.171535 158.912397 
L 352.802965 158.981103 
L 354.434395 158.29404 
L 356.065825 158.29404 
L 357.697254 158.981103 
L 359.328684 161.385821 
L 360.960114 161.729353 
L 362.591544 160.836171 
L 364.222974 160.49264 
L 365.854404 159.874284 
L 367.485834 159.118515 
L 369.117264 160.286521 
L 370.748693 160.217815 
L 372.380123 159.530753 
L 374.011553 160.080403 
L 375.642983 161.454528 
L 377.274413 160.836171 
L 378.905843 161.385821 
L 380.537273 160.904878 
L 380.537273 160.904878 
" style="fill:none;stroke:#d62728;stroke-linecap:square;stroke-width:1.5;"/>
   </g>
   <g id="patch_3">
    <path d="M 39.65 273.312 
L 39.65 7.2 
" style="fill:none;stroke:#000000;stroke-linecap:square;stroke-linejoin:miter;stroke-width:0.8;"/>
   </g>
   <g id="patch_4">
    <path d="M 396.77 273.312 
L 396.77 7.2 
" style="fill:none;stroke:#000000;stroke-linecap:square;stroke-linejoin:miter;stroke-width:0.8;"/>
   </g>
   <g id="patch_5">
    <path d="M 39.65 273.312 
L 396.77 273.312 
" style="fill:none;stroke:#000000;stroke-linecap:square;stroke-linejoin:miter;stroke-width:0.8;"/>
   </g>
   <g id="patch_6">
    <path d="M 39.65 7.2 
L 396.77 7.2 
" style="fill:none;stroke:#000000;stroke-linecap:square;stroke-linejoin:miter;stroke-width:0.8;"/>
   </g>
  </g>
 </g>
 <defs>
  <clipPath id="p5b2040885c">
   <rect height="266.112" width="357.12" x="39.65" y="7.2"/>
  </clipPath>
 </defs>
</svg>
