<?xml version="1.0" encoding="utf-8" standalone="no"?>
<!DOCTYPE svg PUBLIC "-//W3C//DTD SVG 1.1//EN"
  "http://www.w3.org/Graphics/SVG/1.1/DTD/svg11.dtd">
<!-- Created with matplotlib (https://matplotlib.org/) -->
<svg height="297.190125pt" version="1.1" viewBox="0 0 397.6075 297.190125" width="397.6075pt" xmlns="http://www.w3.org/2000/svg" xmlns:xlink="http://www.w3.org/1999/xlink">
 <metadata>
  <rdf:RDF xmlns:cc="http://creativecommons.org/ns#" xmlns:dc="http://purl.org/dc/elements/1.1/" xmlns:rdf="http://www.w3.org/1999/02/22-rdf-syntax-ns#">
   <cc:Work>
    <dc:type rdf:resource="http://purl.org/dc/dcmitype/StillImage"/>
    <dc:date>2021-03-13T00:04:57.339143</dc:date>
    <dc:format>image/svg+xml</dc:format>
    <dc:creator>
     <cc:Agent>
      <dc:title>Matplotlib v3.3.4, https://matplotlib.org/</dc:title>
     </cc:Agent>
    </dc:creator>
   </cc:Work>
  </rdf:RDF>
 </metadata>
 <defs>
  <style type="text/css">*{stroke-linecap:butt;stroke-linejoin:round;}</style>
 </defs>
 <g id="figure_1">
  <g id="patch_1">
   <path d="M 0 297.190125 
L 397.6075 297.190125 
L 397.6075 0 
L 0 0 
z
" style="fill:#ffffff;"/>
  </g>
  <g id="axes_1">
   <g id="patch_2">
    <path d="M 33.2875 273.312 
L 390.4075 273.312 
L 390.4075 7.2 
L 33.2875 7.2 
z
" style="fill:#ffffff;"/>
   </g>
   <g id="matplotlib.axis_1">
    <g id="xtick_1">
     <g id="line2d_1">
      <defs>
       <path d="M 0 0 
L 0 3.5 
" id="ma1941ffd4d" style="stroke:#000000;stroke-width:0.8;"/>
      </defs>
      <g>
       <use style="stroke:#000000;stroke-width:0.8;" x="49.520227" xlink:href="#ma1941ffd4d" y="273.312"/>
      </g>
     </g>
     <g id="text_1">
      <!-- 0.0 -->
      <g transform="translate(41.568665 287.910437)scale(0.1 -0.1)">
       <defs>
        <path d="M 31.78125 66.40625 
Q 24.171875 66.40625 20.328125 58.90625 
Q 16.5 51.421875 16.5 36.375 
Q 16.5 21.390625 20.328125 13.890625 
Q 24.171875 6.390625 31.78125 6.390625 
Q 39.453125 6.390625 43.28125 13.890625 
Q 47.125 21.390625 47.125 36.375 
Q 47.125 51.421875 43.28125 58.90625 
Q 39.453125 66.40625 31.78125 66.40625 
z
M 31.78125 74.21875 
Q 44.046875 74.21875 50.515625 64.515625 
Q 56.984375 54.828125 56.984375 36.375 
Q 56.984375 17.96875 50.515625 8.265625 
Q 44.046875 -1.421875 31.78125 -1.421875 
Q 19.53125 -1.421875 13.0625 8.265625 
Q 6.59375 17.96875 6.59375 36.375 
Q 6.59375 54.828125 13.0625 64.515625 
Q 19.53125 74.21875 31.78125 74.21875 
z
" id="DejaVuSans-48"/>
        <path d="M 10.6875 12.40625 
L 21 12.40625 
L 21 0 
L 10.6875 0 
z
" id="DejaVuSans-46"/>
       </defs>
       <use xlink:href="#DejaVuSans-48"/>
       <use x="63.623047" xlink:href="#DejaVuSans-46"/>
       <use x="95.410156" xlink:href="#DejaVuSans-48"/>
      </g>
     </g>
    </g>
    <g id="xtick_2">
     <g id="line2d_2">
      <g>
       <use style="stroke:#000000;stroke-width:0.8;" x="90.305974" xlink:href="#ma1941ffd4d" y="273.312"/>
      </g>
     </g>
     <g id="text_2">
      <!-- 2.5 -->
      <g transform="translate(82.354412 287.910437)scale(0.1 -0.1)">
       <defs>
        <path d="M 19.1875 8.296875 
L 53.609375 8.296875 
L 53.609375 0 
L 7.328125 0 
L 7.328125 8.296875 
Q 12.9375 14.109375 22.625 23.890625 
Q 32.328125 33.6875 34.8125 36.53125 
Q 39.546875 41.84375 41.421875 45.53125 
Q 43.3125 49.21875 43.3125 52.78125 
Q 43.3125 58.59375 39.234375 62.25 
Q 35.15625 65.921875 28.609375 65.921875 
Q 23.96875 65.921875 18.8125 64.3125 
Q 13.671875 62.703125 7.8125 59.421875 
L 7.8125 69.390625 
Q 13.765625 71.78125 18.9375 73 
Q 24.125 74.21875 28.421875 74.21875 
Q 39.75 74.21875 46.484375 68.546875 
Q 53.21875 62.890625 53.21875 53.421875 
Q 53.21875 48.921875 51.53125 44.890625 
Q 49.859375 40.875 45.40625 35.40625 
Q 44.1875 33.984375 37.640625 27.21875 
Q 31.109375 20.453125 19.1875 8.296875 
z
" id="DejaVuSans-50"/>
        <path d="M 10.796875 72.90625 
L 49.515625 72.90625 
L 49.515625 64.59375 
L 19.828125 64.59375 
L 19.828125 46.734375 
Q 21.96875 47.46875 24.109375 47.828125 
Q 26.265625 48.1875 28.421875 48.1875 
Q 40.625 48.1875 47.75 41.5 
Q 54.890625 34.8125 54.890625 23.390625 
Q 54.890625 11.625 47.5625 5.09375 
Q 40.234375 -1.421875 26.90625 -1.421875 
Q 22.3125 -1.421875 17.546875 -0.640625 
Q 12.796875 0.140625 7.71875 1.703125 
L 7.71875 11.625 
Q 12.109375 9.234375 16.796875 8.0625 
Q 21.484375 6.890625 26.703125 6.890625 
Q 35.15625 6.890625 40.078125 11.328125 
Q 45.015625 15.765625 45.015625 23.390625 
Q 45.015625 31 40.078125 35.4375 
Q 35.15625 39.890625 26.703125 39.890625 
Q 22.75 39.890625 18.8125 39.015625 
Q 14.890625 38.140625 10.796875 36.28125 
z
" id="DejaVuSans-53"/>
       </defs>
       <use xlink:href="#DejaVuSans-50"/>
       <use x="63.623047" xlink:href="#DejaVuSans-46"/>
       <use x="95.410156" xlink:href="#DejaVuSans-53"/>
      </g>
     </g>
    </g>
    <g id="xtick_3">
     <g id="line2d_3">
      <g>
       <use style="stroke:#000000;stroke-width:0.8;" x="131.091721" xlink:href="#ma1941ffd4d" y="273.312"/>
      </g>
     </g>
     <g id="text_3">
      <!-- 5.0 -->
      <g transform="translate(123.140159 287.910437)scale(0.1 -0.1)">
       <use xlink:href="#DejaVuSans-53"/>
       <use x="63.623047" xlink:href="#DejaVuSans-46"/>
       <use x="95.410156" xlink:href="#DejaVuSans-48"/>
      </g>
     </g>
    </g>
    <g id="xtick_4">
     <g id="line2d_4">
      <g>
       <use style="stroke:#000000;stroke-width:0.8;" x="171.877468" xlink:href="#ma1941ffd4d" y="273.312"/>
      </g>
     </g>
     <g id="text_4">
      <!-- 7.5 -->
      <g transform="translate(163.925906 287.910437)scale(0.1 -0.1)">
       <defs>
        <path d="M 8.203125 72.90625 
L 55.078125 72.90625 
L 55.078125 68.703125 
L 28.609375 0 
L 18.3125 0 
L 43.21875 64.59375 
L 8.203125 64.59375 
z
" id="DejaVuSans-55"/>
       </defs>
       <use xlink:href="#DejaVuSans-55"/>
       <use x="63.623047" xlink:href="#DejaVuSans-46"/>
       <use x="95.410156" xlink:href="#DejaVuSans-53"/>
      </g>
     </g>
    </g>
    <g id="xtick_5">
     <g id="line2d_5">
      <g>
       <use style="stroke:#000000;stroke-width:0.8;" x="212.663215" xlink:href="#ma1941ffd4d" y="273.312"/>
      </g>
     </g>
     <g id="text_5">
      <!-- 10.0 -->
      <g transform="translate(201.530402 287.910437)scale(0.1 -0.1)">
       <defs>
        <path d="M 12.40625 8.296875 
L 28.515625 8.296875 
L 28.515625 63.921875 
L 10.984375 60.40625 
L 10.984375 69.390625 
L 28.421875 72.90625 
L 38.28125 72.90625 
L 38.28125 8.296875 
L 54.390625 8.296875 
L 54.390625 0 
L 12.40625 0 
z
" id="DejaVuSans-49"/>
       </defs>
       <use xlink:href="#DejaVuSans-49"/>
       <use x="63.623047" xlink:href="#DejaVuSans-48"/>
       <use x="127.246094" xlink:href="#DejaVuSans-46"/>
       <use x="159.033203" xlink:href="#DejaVuSans-48"/>
      </g>
     </g>
    </g>
    <g id="xtick_6">
     <g id="line2d_6">
      <g>
       <use style="stroke:#000000;stroke-width:0.8;" x="253.448962" xlink:href="#ma1941ffd4d" y="273.312"/>
      </g>
     </g>
     <g id="text_6">
      <!-- 12.5 -->
      <g transform="translate(242.316149 287.910437)scale(0.1 -0.1)">
       <use xlink:href="#DejaVuSans-49"/>
       <use x="63.623047" xlink:href="#DejaVuSans-50"/>
       <use x="127.246094" xlink:href="#DejaVuSans-46"/>
       <use x="159.033203" xlink:href="#DejaVuSans-53"/>
      </g>
     </g>
    </g>
    <g id="xtick_7">
     <g id="line2d_7">
      <g>
       <use style="stroke:#000000;stroke-width:0.8;" x="294.234709" xlink:href="#ma1941ffd4d" y="273.312"/>
      </g>
     </g>
     <g id="text_7">
      <!-- 15.0 -->
      <g transform="translate(283.101896 287.910437)scale(0.1 -0.1)">
       <use xlink:href="#DejaVuSans-49"/>
       <use x="63.623047" xlink:href="#DejaVuSans-53"/>
       <use x="127.246094" xlink:href="#DejaVuSans-46"/>
       <use x="159.033203" xlink:href="#DejaVuSans-48"/>
      </g>
     </g>
    </g>
    <g id="xtick_8">
     <g id="line2d_8">
      <g>
       <use style="stroke:#000000;stroke-width:0.8;" x="335.020456" xlink:href="#ma1941ffd4d" y="273.312"/>
      </g>
     </g>
     <g id="text_8">
      <!-- 17.5 -->
      <g transform="translate(323.887643 287.910437)scale(0.1 -0.1)">
       <use xlink:href="#DejaVuSans-49"/>
       <use x="63.623047" xlink:href="#DejaVuSans-55"/>
       <use x="127.246094" xlink:href="#DejaVuSans-46"/>
       <use x="159.033203" xlink:href="#DejaVuSans-53"/>
      </g>
     </g>
    </g>
    <g id="xtick_9">
     <g id="line2d_9">
      <g>
       <use style="stroke:#000000;stroke-width:0.8;" x="375.806203" xlink:href="#ma1941ffd4d" y="273.312"/>
      </g>
     </g>
     <g id="text_9">
      <!-- 20.0 -->
      <g transform="translate(364.67339 287.910437)scale(0.1 -0.1)">
       <use xlink:href="#DejaVuSans-50"/>
       <use x="63.623047" xlink:href="#DejaVuSans-48"/>
       <use x="127.246094" xlink:href="#DejaVuSans-46"/>
       <use x="159.033203" xlink:href="#DejaVuSans-48"/>
      </g>
     </g>
    </g>
   </g>
   <g id="matplotlib.axis_2">
    <g id="ytick_1">
     <g id="line2d_10">
      <defs>
       <path d="M 0 0 
L -3.5 0 
" id="m5ec68e80fe" style="stroke:#000000;stroke-width:0.8;"/>
      </defs>
      <g>
       <use style="stroke:#000000;stroke-width:0.8;" x="33.2875" xlink:href="#m5ec68e80fe" y="261.216"/>
      </g>
     </g>
     <g id="text_10">
      <!-- 0 -->
      <g transform="translate(19.925 265.015219)scale(0.1 -0.1)">
       <use xlink:href="#DejaVuSans-48"/>
      </g>
     </g>
    </g>
    <g id="ytick_2">
     <g id="line2d_11">
      <g>
       <use style="stroke:#000000;stroke-width:0.8;" x="33.2875" xlink:href="#m5ec68e80fe" y="218.016"/>
      </g>
     </g>
     <g id="text_11">
      <!-- 50 -->
      <g transform="translate(13.5625 221.815219)scale(0.1 -0.1)">
       <use xlink:href="#DejaVuSans-53"/>
       <use x="63.623047" xlink:href="#DejaVuSans-48"/>
      </g>
     </g>
    </g>
    <g id="ytick_3">
     <g id="line2d_12">
      <g>
       <use style="stroke:#000000;stroke-width:0.8;" x="33.2875" xlink:href="#m5ec68e80fe" y="174.816"/>
      </g>
     </g>
     <g id="text_12">
      <!-- 100 -->
      <g transform="translate(7.2 178.615219)scale(0.1 -0.1)">
       <use xlink:href="#DejaVuSans-49"/>
       <use x="63.623047" xlink:href="#DejaVuSans-48"/>
       <use x="127.246094" xlink:href="#DejaVuSans-48"/>
      </g>
     </g>
    </g>
    <g id="ytick_4">
     <g id="line2d_13">
      <g>
       <use style="stroke:#000000;stroke-width:0.8;" x="33.2875" xlink:href="#m5ec68e80fe" y="131.616"/>
      </g>
     </g>
     <g id="text_13">
      <!-- 150 -->
      <g transform="translate(7.2 135.415219)scale(0.1 -0.1)">
       <use xlink:href="#DejaVuSans-49"/>
       <use x="63.623047" xlink:href="#DejaVuSans-53"/>
       <use x="127.246094" xlink:href="#DejaVuSans-48"/>
      </g>
     </g>
    </g>
    <g id="ytick_5">
     <g id="line2d_14">
      <g>
       <use style="stroke:#000000;stroke-width:0.8;" x="33.2875" xlink:href="#m5ec68e80fe" y="88.416"/>
      </g>
     </g>
     <g id="text_14">
      <!-- 200 -->
      <g transform="translate(7.2 92.215219)scale(0.1 -0.1)">
       <use xlink:href="#DejaVuSans-50"/>
       <use x="63.623047" xlink:href="#DejaVuSans-48"/>
       <use x="127.246094" xlink:href="#DejaVuSans-48"/>
      </g>
     </g>
    </g>
    <g id="ytick_6">
     <g id="line2d_15">
      <g>
       <use style="stroke:#000000;stroke-width:0.8;" x="33.2875" xlink:href="#m5ec68e80fe" y="45.216"/>
      </g>
     </g>
     <g id="text_15">
      <!-- 250 -->
      <g transform="translate(7.2 49.015219)scale(0.1 -0.1)">
       <use xlink:href="#DejaVuSans-50"/>
       <use x="63.623047" xlink:href="#DejaVuSans-53"/>
       <use x="127.246094" xlink:href="#DejaVuSans-48"/>
      </g>
     </g>
    </g>
   </g>
   <g id="line2d_16">
    <path clip-path="url(#pde5ff808a9)" d="M 49.520227 261.216 
L 53.598802 45.216 
L 57.677377 45.216 
L 61.755951 45.216 
L 65.834526 45.216 
L 69.913101 45.216 
L 73.991675 45.216 
L 78.07025 45.216 
L 82.148825 45.216 
L 86.227399 45.216 
L 90.305974 45.216 
L 94.384549 45.216 
L 98.463124 45.216 
L 102.541698 45.216 
L 106.620273 45.216 
L 110.698848 45.216 
L 114.777422 45.216 
L 118.855997 45.216 
L 122.934572 45.216 
L 127.013146 45.216 
L 131.091721 45.216 
L 135.170296 45.216 
L 139.24887 45.216 
L 143.327445 45.216 
L 147.40602 45.216 
L 151.484595 45.216 
L 155.563169 45.216 
L 159.641744 45.216 
L 163.720319 45.216 
L 167.798893 45.216 
L 171.877468 45.216 
L 175.956043 45.216 
L 180.034617 45.216 
L 184.113192 45.216 
L 188.191767 45.216 
L 192.270341 45.216 
L 196.348916 45.216 
L 200.427491 45.216 
L 204.506066 45.216 
L 208.58464 45.216 
L 212.663215 45.216 
L 216.74179 45.216 
L 220.820364 45.216 
L 224.898939 45.216 
L 228.977514 45.216 
L 233.056088 45.216 
L 237.134663 45.216 
L 241.213238 45.216 
L 245.291812 45.216 
L 249.370387 45.216 
L 253.448962 45.216 
L 257.527537 45.216 
L 261.606111 45.216 
L 265.684686 45.216 
L 269.763261 45.216 
L 273.841835 45.216 
L 277.92041 45.216 
L 281.998985 45.216 
L 286.077559 45.216 
L 290.156134 45.216 
L 294.234709 45.216 
L 298.313283 45.216 
L 302.391858 45.216 
L 306.470433 45.216 
L 310.549008 45.216 
L 314.627582 45.216 
L 318.706157 45.216 
L 322.784732 45.216 
L 326.863306 45.216 
L 330.941881 45.216 
L 335.020456 45.216 
L 339.09903 45.216 
L 343.177605 45.216 
L 347.25618 45.216 
L 351.334754 45.216 
L 355.413329 45.216 
L 359.491904 45.216 
L 363.570479 45.216 
L 367.649053 45.216 
L 371.727628 45.216 
" style="fill:none;stroke:#1f77b4;stroke-linecap:square;stroke-width:1.5;"/>
   </g>
   <g id="line2d_17">
    <path clip-path="url(#pde5ff808a9)" d="M 49.520227 261.216 
L 53.598802 261.216 
L 57.677377 45.216 
L 61.755951 45.216 
L 65.834526 45.216 
L 69.913101 45.216 
L 73.991675 45.216 
L 78.07025 45.216 
L 82.148825 45.216 
L 86.227399 45.216 
L 90.305974 45.216 
L 94.384549 45.216 
L 98.463124 45.216 
L 102.541698 45.216 
L 106.620273 45.216 
L 110.698848 45.216 
L 114.777422 45.216 
L 118.855997 45.216 
L 122.934572 45.216 
L 127.013146 45.216 
L 131.091721 45.216 
L 135.170296 45.216 
L 139.24887 45.216 
L 143.327445 45.216 
L 147.40602 45.216 
L 151.484595 45.216 
L 155.563169 45.216 
L 159.641744 45.216 
L 163.720319 45.216 
L 167.798893 45.216 
L 171.877468 45.216 
L 175.956043 45.216 
L 180.034617 45.216 
L 184.113192 45.216 
L 188.191767 45.216 
L 192.270341 45.216 
L 196.348916 45.216 
L 200.427491 45.216 
L 204.506066 45.216 
L 208.58464 45.216 
L 212.663215 45.216 
L 216.74179 45.216 
L 220.820364 45.216 
L 224.898939 45.216 
L 228.977514 45.216 
L 233.056088 45.216 
L 237.134663 45.216 
L 241.213238 45.216 
L 245.291812 45.216 
L 249.370387 45.216 
L 253.448962 45.216 
L 257.527537 45.216 
L 261.606111 45.216 
L 265.684686 45.216 
L 269.763261 45.216 
L 273.841835 45.216 
L 277.92041 45.216 
L 281.998985 45.216 
L 286.077559 45.216 
L 290.156134 45.216 
L 294.234709 45.216 
L 298.313283 45.216 
L 302.391858 45.216 
L 306.470433 45.216 
L 310.549008 45.216 
L 314.627582 45.216 
L 318.706157 45.216 
L 322.784732 45.216 
L 326.863306 45.216 
L 330.941881 45.216 
L 335.020456 45.216 
L 339.09903 45.216 
L 343.177605 45.216 
L 347.25618 45.216 
L 351.334754 45.216 
L 355.413329 45.216 
L 359.491904 45.216 
L 363.570479 45.216 
L 367.649053 45.216 
L 371.727628 45.216 
" style="fill:none;stroke:#ff7f0e;stroke-linecap:square;stroke-width:1.5;"/>
   </g>
   <g id="line2d_18">
    <path clip-path="url(#pde5ff808a9)" d="M 49.520227 261.216 
L 51.151657 196.416 
L 52.783087 154.08 
L 54.414517 103.104 
L 56.045947 83.232 
L 57.677377 78.048 
L 59.308807 57.312 
L 60.940236 52.992 
L 62.571666 57.312 
L 65.834526 48.672 
L 67.465956 51.264 
L 69.097386 46.08 
L 72.360246 44.352 
L 73.991675 48.672 
L 75.623105 46.08 
L 77.254535 56.448 
L 78.885965 49.536 
L 80.517395 49.536 
L 82.148825 46.08 
L 83.780255 40.032 
L 85.411685 44.352 
L 87.043114 51.264 
L 88.674544 47.808 
L 90.305974 50.4 
L 91.937404 55.584 
L 95.200264 40.032 
L 96.831694 50.4 
L 98.463124 48.672 
L 100.094553 50.4 
L 101.725983 50.4 
L 103.357413 43.488 
L 104.988843 43.488 
L 106.620273 42.624 
L 108.251703 50.4 
L 109.883133 37.44 
L 111.514563 43.488 
L 113.145992 56.448 
L 114.777422 48.672 
L 116.408852 36.576 
L 118.040282 33.12 
L 119.671712 19.296 
L 121.303142 29.664 
L 122.934572 41.76 
L 124.566002 46.08 
L 126.197431 51.264 
L 127.828861 37.44 
L 129.460291 47.808 
L 131.091721 49.536 
L 132.723151 59.04 
L 134.354581 50.4 
L 135.986011 47.808 
L 137.617441 49.536 
L 139.24887 42.624 
L 140.8803 37.44 
L 142.51173 44.352 
L 144.14316 52.128 
L 145.77459 50.4 
L 147.40602 45.216 
L 149.03745 46.08 
L 150.66888 41.76 
L 152.30031 48.672 
L 153.931739 44.352 
L 155.563169 42.624 
L 157.194599 40.032 
L 158.826029 46.944 
L 160.457459 46.08 
L 162.088889 41.76 
L 163.720319 41.76 
L 165.351749 38.304 
L 166.983178 40.896 
L 168.614608 46.08 
L 170.246038 43.488 
L 171.877468 41.76 
L 173.508898 42.624 
L 175.140328 48.672 
L 176.771758 48.672 
L 178.403188 47.808 
L 180.034617 51.264 
L 181.666047 52.992 
L 183.297477 28.8 
L 184.928907 40.032 
L 186.560337 50.4 
L 188.191767 38.304 
L 189.823197 38.304 
L 191.454627 39.168 
L 193.086056 24.48 
L 194.717486 35.712 
L 196.348916 45.216 
L 197.980346 30.528 
L 199.611776 33.12 
L 201.243206 39.168 
L 202.874636 39.168 
L 204.506066 37.44 
L 206.137495 40.032 
L 207.768925 53.856 
L 209.400355 54.72 
L 211.031785 43.488 
L 212.663215 52.128 
L 214.294645 61.632 
L 215.926075 69.408 
L 217.557505 59.04 
L 219.188934 56.448 
L 220.820364 55.584 
L 222.451794 57.312 
L 224.083224 57.312 
L 225.714654 71.136 
L 227.346084 65.088 
L 228.977514 38.304 
L 230.608944 35.712 
L 232.240373 43.488 
L 233.871803 33.984 
L 235.503233 35.712 
L 237.134663 34.848 
L 238.766093 50.4 
L 240.397523 40.032 
L 242.028953 38.304 
L 243.660383 38.304 
L 245.291812 52.128 
L 246.923242 48.672 
L 248.554672 33.984 
L 250.186102 40.032 
L 251.817532 36.576 
L 253.448962 54.72 
L 255.080392 49.536 
L 256.711822 52.128 
L 258.343251 62.496 
L 259.974681 41.76 
L 261.606111 51.264 
L 263.237541 36.576 
L 264.868971 44.352 
L 266.500401 46.944 
L 268.131831 45.216 
L 269.763261 54.72 
L 271.39469 43.488 
L 273.02612 38.304 
L 274.65755 42.624 
L 276.28898 46.08 
L 277.92041 40.032 
L 279.55184 39.168 
L 282.8147 58.176 
L 284.44613 60.768 
L 286.077559 51.264 
L 287.708989 65.088 
L 289.340419 60.768 
L 290.971849 52.992 
L 292.603279 56.448 
L 294.234709 51.264 
L 295.866139 45.216 
L 297.497569 44.352 
L 299.128998 40.032 
L 300.760428 48.672 
L 302.391858 49.536 
L 304.023288 39.168 
L 305.654718 41.76 
L 307.286148 40.896 
L 308.917578 28.8 
L 310.549008 39.168 
L 312.180437 34.848 
L 313.811867 46.944 
L 315.443297 39.168 
L 317.074727 33.12 
L 318.706157 35.712 
L 320.337587 40.032 
L 321.969017 37.44 
L 323.600447 31.392 
L 325.231876 33.12 
L 326.863306 29.664 
L 328.494736 30.528 
L 330.126166 38.304 
L 331.757596 56.448 
L 333.389026 59.904 
L 335.020456 50.4 
L 336.651886 52.128 
L 338.283315 54.72 
L 339.914745 64.224 
L 341.546175 71.136 
L 343.177605 59.04 
L 344.809035 72 
L 346.440465 47.808 
L 348.071895 49.536 
L 349.703325 46.08 
L 351.334754 55.584 
L 352.966184 57.312 
L 354.597614 47.808 
L 356.229044 49.536 
L 357.860474 46.944 
L 359.491904 40.896 
L 361.123334 42.624 
L 362.754764 52.128 
L 364.386193 46.944 
L 366.017623 46.944 
L 367.649053 51.264 
L 369.280483 49.536 
L 370.911913 46.08 
L 372.543343 56.448 
L 374.174773 53.856 
L 374.174773 53.856 
" style="fill:none;stroke:#2ca02c;stroke-linecap:square;stroke-width:1.5;"/>
   </g>
   <g id="line2d_19">
    <path clip-path="url(#pde5ff808a9)" d="M 49.520227 261.216 
L 51.151657 242.208 
L 52.783087 217.152 
L 54.414517 196.416 
L 56.045947 162.72 
L 57.677377 124.704 
L 59.308807 120.384 
L 60.940236 104.832 
L 62.571666 79.776 
L 64.203096 80.64 
L 65.834526 75.456 
L 67.465956 63.36 
L 69.097386 62.496 
L 70.728816 54.72 
L 72.360246 59.04 
L 73.991675 59.04 
L 75.623105 55.584 
L 77.254535 45.216 
L 78.885965 66.816 
L 80.517395 71.136 
L 82.148825 69.408 
L 83.780255 59.904 
L 85.411685 55.584 
L 87.043114 40.032 
L 88.674544 43.488 
L 90.305974 51.264 
L 91.937404 42.624 
L 93.568834 42.624 
L 95.200264 40.032 
L 96.831694 21.888 
L 98.463124 30.528 
L 100.094553 27.936 
L 101.725983 35.712 
L 104.988843 52.992 
L 106.620273 40.896 
L 108.251703 42.624 
L 109.883133 51.264 
L 111.514563 37.44 
L 113.145992 27.936 
L 114.777422 33.12 
L 116.408852 29.664 
L 118.040282 42.624 
L 119.671712 49.536 
L 121.303142 35.712 
L 122.934572 33.984 
L 124.566002 34.848 
L 126.197431 27.072 
L 127.828861 46.944 
L 129.460291 41.76 
L 131.091721 35.712 
L 132.723151 21.024 
L 134.354581 46.944 
L 135.986011 44.352 
L 137.617441 47.808 
L 139.24887 57.312 
L 140.8803 57.312 
L 142.51173 61.632 
L 144.14316 35.712 
L 145.77459 35.712 
L 147.40602 46.944 
L 149.03745 46.08 
L 150.66888 46.944 
L 152.30031 36.576 
L 153.931739 57.312 
L 155.563169 47.808 
L 157.194599 50.4 
L 158.826029 39.168 
L 160.457459 46.944 
L 162.088889 61.632 
L 165.351749 49.536 
L 166.983178 50.4 
L 168.614608 49.536 
L 170.246038 49.536 
L 173.508898 52.992 
L 175.140328 53.856 
L 176.771758 48.672 
L 178.403188 51.264 
L 180.034617 51.264 
L 181.666047 47.808 
L 183.297477 62.496 
L 184.928907 53.856 
L 186.560337 44.352 
L 189.823197 47.808 
L 191.454627 42.624 
L 193.086056 61.632 
L 194.717486 57.312 
L 196.348916 39.168 
L 197.980346 36.576 
L 199.611776 40.032 
L 201.243206 40.032 
L 202.874636 46.08 
L 204.506066 40.896 
L 206.137495 30.528 
L 207.768925 27.936 
L 209.400355 23.616 
L 211.031785 53.856 
L 212.663215 54.72 
L 214.294645 33.12 
L 215.926075 25.344 
L 217.557505 49.536 
L 219.188934 51.264 
L 220.820364 48.672 
L 222.451794 42.624 
L 224.083224 43.488 
L 225.714654 29.664 
L 227.346084 42.624 
L 228.977514 59.04 
L 230.608944 53.856 
L 232.240373 29.664 
L 233.871803 43.488 
L 235.503233 47.808 
L 237.134663 41.76 
L 238.766093 43.488 
L 240.397523 47.808 
L 242.028953 35.712 
L 243.660383 42.624 
L 245.291812 34.848 
L 246.923242 47.808 
L 248.554672 56.448 
L 251.817532 56.448 
L 253.448962 52.128 
L 255.080392 65.088 
L 256.711822 62.496 
L 258.343251 53.856 
L 259.974681 80.64 
L 261.606111 63.36 
L 263.237541 68.544 
L 264.868971 64.224 
L 266.500401 51.264 
L 268.131831 48.672 
L 269.763261 38.304 
L 271.39469 40.032 
L 273.02612 40.032 
L 274.65755 46.08 
L 276.28898 40.896 
L 277.92041 57.312 
L 279.55184 49.536 
L 281.18327 40.896 
L 282.8147 22.752 
L 284.44613 42.624 
L 286.077559 55.584 
L 287.708989 45.216 
L 289.340419 52.992 
L 290.971849 54.72 
L 292.603279 46.944 
L 294.234709 40.032 
L 295.866139 43.488 
L 297.497569 52.128 
L 299.128998 63.36 
L 300.760428 56.448 
L 302.391858 72.864 
L 304.023288 62.496 
L 305.654718 64.224 
L 307.286148 71.136 
L 308.917578 63.36 
L 310.549008 39.168 
L 312.180437 41.76 
L 313.811867 33.984 
L 315.443297 36.576 
L 317.074727 46.08 
L 318.706157 42.624 
L 320.337587 46.08 
L 321.969017 45.216 
L 323.600447 57.312 
L 325.231876 48.672 
L 326.863306 62.496 
L 328.494736 41.76 
L 330.126166 39.168 
L 331.757596 21.024 
L 333.389026 19.296 
L 335.020456 33.12 
L 336.651886 42.624 
L 338.283315 40.032 
L 339.914745 36.576 
L 341.546175 46.08 
L 343.177605 59.904 
L 344.809035 51.264 
L 346.440465 78.048 
L 348.071895 65.088 
L 349.703325 59.04 
L 351.334754 42.624 
L 352.966184 28.8 
L 354.597614 47.808 
L 356.229044 45.216 
L 357.860474 39.168 
L 359.491904 36.576 
L 361.123334 37.44 
L 362.754764 33.984 
L 364.386193 45.216 
L 366.017623 44.352 
L 367.649053 34.848 
L 369.280483 30.528 
L 370.911913 49.536 
L 372.543343 45.216 
L 374.174773 46.08 
L 374.174773 46.08 
" style="fill:none;stroke:#d62728;stroke-linecap:square;stroke-width:1.5;"/>
   </g>
   <g id="patch_3">
    <path d="M 33.2875 273.312 
L 33.2875 7.2 
" style="fill:none;stroke:#000000;stroke-linecap:square;stroke-linejoin:miter;stroke-width:0.8;"/>
   </g>
   <g id="patch_4">
    <path d="M 390.4075 273.312 
L 390.4075 7.2 
" style="fill:none;stroke:#000000;stroke-linecap:square;stroke-linejoin:miter;stroke-width:0.8;"/>
   </g>
   <g id="patch_5">
    <path d="M 33.2875 273.312 
L 390.4075 273.312 
" style="fill:none;stroke:#000000;stroke-linecap:square;stroke-linejoin:miter;stroke-width:0.8;"/>
   </g>
   <g id="patch_6">
    <path d="M 33.2875 7.2 
L 390.4075 7.2 
" style="fill:none;stroke:#000000;stroke-linecap:square;stroke-linejoin:miter;stroke-width:0.8;"/>
   </g>
  </g>
 </g>
 <defs>
  <clipPath id="pde5ff808a9">
   <rect height="266.112" width="357.12" x="33.2875" y="7.2"/>
  </clipPath>
 </defs>
</svg>
