<?xml version="1.0" encoding="utf-8" standalone="no"?>
<!DOCTYPE svg PUBLIC "-//W3C//DTD SVG 1.1//EN"
  "http://www.w3.org/Graphics/SVG/1.1/DTD/svg11.dtd">
<!-- Created with matplotlib (https://matplotlib.org/) -->
<svg height="300.735582pt" version="1.1" viewBox="0 0 397.6075 300.735582" width="397.6075pt" xmlns="http://www.w3.org/2000/svg" xmlns:xlink="http://www.w3.org/1999/xlink">
 <metadata>
  <rdf:RDF xmlns:cc="http://creativecommons.org/ns#" xmlns:dc="http://purl.org/dc/elements/1.1/" xmlns:rdf="http://www.w3.org/1999/02/22-rdf-syntax-ns#">
   <cc:Work>
    <dc:type rdf:resource="http://purl.org/dc/dcmitype/StillImage"/>
    <dc:date>2021-03-19T00:04:58.224812</dc:date>
    <dc:format>image/svg+xml</dc:format>
    <dc:creator>
     <cc:Agent>
      <dc:title>Matplotlib v3.3.4, https://matplotlib.org/</dc:title>
     </cc:Agent>
    </dc:creator>
   </cc:Work>
  </rdf:RDF>
 </metadata>
 <defs>
  <style type="text/css">*{stroke-linecap:butt;stroke-linejoin:round;}</style>
 </defs>
 <g id="figure_1">
  <g id="patch_1">
   <path d="M 0 300.735582 
L 397.6075 300.735582 
L 397.6075 0 
L 0 0 
z
" style="fill:#ffffff;"/>
  </g>
  <g id="axes_1">
   <g id="patch_2">
    <path d="M 33.2875 276.857457 
L 390.4075 276.857457 
L 390.4075 10.745457 
L 33.2875 10.745457 
z
" style="fill:#ffffff;"/>
   </g>
   <g id="matplotlib.axis_1">
    <g id="xtick_1">
     <g id="line2d_1">
      <defs>
       <path d="M 0 0 
L 0 3.5 
" id="m52343e7e48" style="stroke:#000000;stroke-width:0.8;"/>
      </defs>
      <g>
       <use style="stroke:#000000;stroke-width:0.8;" x="49.520227" xlink:href="#m52343e7e48" y="276.857457"/>
      </g>
     </g>
     <g id="text_1">
      <!-- 0.0 -->
      <g transform="translate(41.568665 291.455894)scale(0.1 -0.1)">
       <defs>
        <path d="M 31.78125 66.40625 
Q 24.171875 66.40625 20.328125 58.90625 
Q 16.5 51.421875 16.5 36.375 
Q 16.5 21.390625 20.328125 13.890625 
Q 24.171875 6.390625 31.78125 6.390625 
Q 39.453125 6.390625 43.28125 13.890625 
Q 47.125 21.390625 47.125 36.375 
Q 47.125 51.421875 43.28125 58.90625 
Q 39.453125 66.40625 31.78125 66.40625 
z
M 31.78125 74.21875 
Q 44.046875 74.21875 50.515625 64.515625 
Q 56.984375 54.828125 56.984375 36.375 
Q 56.984375 17.96875 50.515625 8.265625 
Q 44.046875 -1.421875 31.78125 -1.421875 
Q 19.53125 -1.421875 13.0625 8.265625 
Q 6.59375 17.96875 6.59375 36.375 
Q 6.59375 54.828125 13.0625 64.515625 
Q 19.53125 74.21875 31.78125 74.21875 
z
" id="DejaVuSans-48"/>
        <path d="M 10.6875 12.40625 
L 21 12.40625 
L 21 0 
L 10.6875 0 
z
" id="DejaVuSans-46"/>
       </defs>
       <use xlink:href="#DejaVuSans-48"/>
       <use x="63.623047" xlink:href="#DejaVuSans-46"/>
       <use x="95.410156" xlink:href="#DejaVuSans-48"/>
      </g>
     </g>
    </g>
    <g id="xtick_2">
     <g id="line2d_2">
      <g>
       <use style="stroke:#000000;stroke-width:0.8;" x="90.305974" xlink:href="#m52343e7e48" y="276.857457"/>
      </g>
     </g>
     <g id="text_2">
      <!-- 2.5 -->
      <g transform="translate(82.354412 291.455894)scale(0.1 -0.1)">
       <defs>
        <path d="M 19.1875 8.296875 
L 53.609375 8.296875 
L 53.609375 0 
L 7.328125 0 
L 7.328125 8.296875 
Q 12.9375 14.109375 22.625 23.890625 
Q 32.328125 33.6875 34.8125 36.53125 
Q 39.546875 41.84375 41.421875 45.53125 
Q 43.3125 49.21875 43.3125 52.78125 
Q 43.3125 58.59375 39.234375 62.25 
Q 35.15625 65.921875 28.609375 65.921875 
Q 23.96875 65.921875 18.8125 64.3125 
Q 13.671875 62.703125 7.8125 59.421875 
L 7.8125 69.390625 
Q 13.765625 71.78125 18.9375 73 
Q 24.125 74.21875 28.421875 74.21875 
Q 39.75 74.21875 46.484375 68.546875 
Q 53.21875 62.890625 53.21875 53.421875 
Q 53.21875 48.921875 51.53125 44.890625 
Q 49.859375 40.875 45.40625 35.40625 
Q 44.1875 33.984375 37.640625 27.21875 
Q 31.109375 20.453125 19.1875 8.296875 
z
" id="DejaVuSans-50"/>
        <path d="M 10.796875 72.90625 
L 49.515625 72.90625 
L 49.515625 64.59375 
L 19.828125 64.59375 
L 19.828125 46.734375 
Q 21.96875 47.46875 24.109375 47.828125 
Q 26.265625 48.1875 28.421875 48.1875 
Q 40.625 48.1875 47.75 41.5 
Q 54.890625 34.8125 54.890625 23.390625 
Q 54.890625 11.625 47.5625 5.09375 
Q 40.234375 -1.421875 26.90625 -1.421875 
Q 22.3125 -1.421875 17.546875 -0.640625 
Q 12.796875 0.140625 7.71875 1.703125 
L 7.71875 11.625 
Q 12.109375 9.234375 16.796875 8.0625 
Q 21.484375 6.890625 26.703125 6.890625 
Q 35.15625 6.890625 40.078125 11.328125 
Q 45.015625 15.765625 45.015625 23.390625 
Q 45.015625 31 40.078125 35.4375 
Q 35.15625 39.890625 26.703125 39.890625 
Q 22.75 39.890625 18.8125 39.015625 
Q 14.890625 38.140625 10.796875 36.28125 
z
" id="DejaVuSans-53"/>
       </defs>
       <use xlink:href="#DejaVuSans-50"/>
       <use x="63.623047" xlink:href="#DejaVuSans-46"/>
       <use x="95.410156" xlink:href="#DejaVuSans-53"/>
      </g>
     </g>
    </g>
    <g id="xtick_3">
     <g id="line2d_3">
      <g>
       <use style="stroke:#000000;stroke-width:0.8;" x="131.091721" xlink:href="#m52343e7e48" y="276.857457"/>
      </g>
     </g>
     <g id="text_3">
      <!-- 5.0 -->
      <g transform="translate(123.140159 291.455894)scale(0.1 -0.1)">
       <use xlink:href="#DejaVuSans-53"/>
       <use x="63.623047" xlink:href="#DejaVuSans-46"/>
       <use x="95.410156" xlink:href="#DejaVuSans-48"/>
      </g>
     </g>
    </g>
    <g id="xtick_4">
     <g id="line2d_4">
      <g>
       <use style="stroke:#000000;stroke-width:0.8;" x="171.877468" xlink:href="#m52343e7e48" y="276.857457"/>
      </g>
     </g>
     <g id="text_4">
      <!-- 7.5 -->
      <g transform="translate(163.925906 291.455894)scale(0.1 -0.1)">
       <defs>
        <path d="M 8.203125 72.90625 
L 55.078125 72.90625 
L 55.078125 68.703125 
L 28.609375 0 
L 18.3125 0 
L 43.21875 64.59375 
L 8.203125 64.59375 
z
" id="DejaVuSans-55"/>
       </defs>
       <use xlink:href="#DejaVuSans-55"/>
       <use x="63.623047" xlink:href="#DejaVuSans-46"/>
       <use x="95.410156" xlink:href="#DejaVuSans-53"/>
      </g>
     </g>
    </g>
    <g id="xtick_5">
     <g id="line2d_5">
      <g>
       <use style="stroke:#000000;stroke-width:0.8;" x="212.663215" xlink:href="#m52343e7e48" y="276.857457"/>
      </g>
     </g>
     <g id="text_5">
      <!-- 10.0 -->
      <g transform="translate(201.530402 291.455894)scale(0.1 -0.1)">
       <defs>
        <path d="M 12.40625 8.296875 
L 28.515625 8.296875 
L 28.515625 63.921875 
L 10.984375 60.40625 
L 10.984375 69.390625 
L 28.421875 72.90625 
L 38.28125 72.90625 
L 38.28125 8.296875 
L 54.390625 8.296875 
L 54.390625 0 
L 12.40625 0 
z
" id="DejaVuSans-49"/>
       </defs>
       <use xlink:href="#DejaVuSans-49"/>
       <use x="63.623047" xlink:href="#DejaVuSans-48"/>
       <use x="127.246094" xlink:href="#DejaVuSans-46"/>
       <use x="159.033203" xlink:href="#DejaVuSans-48"/>
      </g>
     </g>
    </g>
    <g id="xtick_6">
     <g id="line2d_6">
      <g>
       <use style="stroke:#000000;stroke-width:0.8;" x="253.448962" xlink:href="#m52343e7e48" y="276.857457"/>
      </g>
     </g>
     <g id="text_6">
      <!-- 12.5 -->
      <g transform="translate(242.316149 291.455894)scale(0.1 -0.1)">
       <use xlink:href="#DejaVuSans-49"/>
       <use x="63.623047" xlink:href="#DejaVuSans-50"/>
       <use x="127.246094" xlink:href="#DejaVuSans-46"/>
       <use x="159.033203" xlink:href="#DejaVuSans-53"/>
      </g>
     </g>
    </g>
    <g id="xtick_7">
     <g id="line2d_7">
      <g>
       <use style="stroke:#000000;stroke-width:0.8;" x="294.234709" xlink:href="#m52343e7e48" y="276.857457"/>
      </g>
     </g>
     <g id="text_7">
      <!-- 15.0 -->
      <g transform="translate(283.101896 291.455894)scale(0.1 -0.1)">
       <use xlink:href="#DejaVuSans-49"/>
       <use x="63.623047" xlink:href="#DejaVuSans-53"/>
       <use x="127.246094" xlink:href="#DejaVuSans-46"/>
       <use x="159.033203" xlink:href="#DejaVuSans-48"/>
      </g>
     </g>
    </g>
    <g id="xtick_8">
     <g id="line2d_8">
      <g>
       <use style="stroke:#000000;stroke-width:0.8;" x="335.020456" xlink:href="#m52343e7e48" y="276.857457"/>
      </g>
     </g>
     <g id="text_8">
      <!-- 17.5 -->
      <g transform="translate(323.887643 291.455894)scale(0.1 -0.1)">
       <use xlink:href="#DejaVuSans-49"/>
       <use x="63.623047" xlink:href="#DejaVuSans-55"/>
       <use x="127.246094" xlink:href="#DejaVuSans-46"/>
       <use x="159.033203" xlink:href="#DejaVuSans-53"/>
      </g>
     </g>
    </g>
    <g id="xtick_9">
     <g id="line2d_9">
      <g>
       <use style="stroke:#000000;stroke-width:0.8;" x="375.806203" xlink:href="#m52343e7e48" y="276.857457"/>
      </g>
     </g>
     <g id="text_9">
      <!-- 20.0 -->
      <g transform="translate(364.67339 291.455894)scale(0.1 -0.1)">
       <use xlink:href="#DejaVuSans-50"/>
       <use x="63.623047" xlink:href="#DejaVuSans-48"/>
       <use x="127.246094" xlink:href="#DejaVuSans-46"/>
       <use x="159.033203" xlink:href="#DejaVuSans-48"/>
      </g>
     </g>
    </g>
   </g>
   <g id="matplotlib.axis_2">
    <g id="ytick_1">
     <g id="line2d_10">
      <defs>
       <path d="M 0 0 
L -3.5 0 
" id="me4a1623150" style="stroke:#000000;stroke-width:0.8;"/>
      </defs>
      <g>
       <use style="stroke:#000000;stroke-width:0.8;" x="33.2875" xlink:href="#me4a1623150" y="264.761457"/>
      </g>
     </g>
     <g id="text_10">
      <!-- 0 -->
      <g transform="translate(19.925 268.560675)scale(0.1 -0.1)">
       <use xlink:href="#DejaVuSans-48"/>
      </g>
     </g>
    </g>
    <g id="ytick_2">
     <g id="line2d_11">
      <g>
       <use style="stroke:#000000;stroke-width:0.8;" x="33.2875" xlink:href="#me4a1623150" y="222.46775"/>
      </g>
     </g>
     <g id="text_11">
      <!-- 50 -->
      <g transform="translate(13.5625 226.266969)scale(0.1 -0.1)">
       <use xlink:href="#DejaVuSans-53"/>
       <use x="63.623047" xlink:href="#DejaVuSans-48"/>
      </g>
     </g>
    </g>
    <g id="ytick_3">
     <g id="line2d_12">
      <g>
       <use style="stroke:#000000;stroke-width:0.8;" x="33.2875" xlink:href="#me4a1623150" y="180.174044"/>
      </g>
     </g>
     <g id="text_12">
      <!-- 100 -->
      <g transform="translate(7.2 183.973263)scale(0.1 -0.1)">
       <use xlink:href="#DejaVuSans-49"/>
       <use x="63.623047" xlink:href="#DejaVuSans-48"/>
       <use x="127.246094" xlink:href="#DejaVuSans-48"/>
      </g>
     </g>
    </g>
    <g id="ytick_4">
     <g id="line2d_13">
      <g>
       <use style="stroke:#000000;stroke-width:0.8;" x="33.2875" xlink:href="#me4a1623150" y="137.880338"/>
      </g>
     </g>
     <g id="text_13">
      <!-- 150 -->
      <g transform="translate(7.2 141.679556)scale(0.1 -0.1)">
       <use xlink:href="#DejaVuSans-49"/>
       <use x="63.623047" xlink:href="#DejaVuSans-53"/>
       <use x="127.246094" xlink:href="#DejaVuSans-48"/>
      </g>
     </g>
    </g>
    <g id="ytick_5">
     <g id="line2d_14">
      <g>
       <use style="stroke:#000000;stroke-width:0.8;" x="33.2875" xlink:href="#me4a1623150" y="95.586631"/>
      </g>
     </g>
     <g id="text_14">
      <!-- 200 -->
      <g transform="translate(7.2 99.38585)scale(0.1 -0.1)">
       <use xlink:href="#DejaVuSans-50"/>
       <use x="63.623047" xlink:href="#DejaVuSans-48"/>
       <use x="127.246094" xlink:href="#DejaVuSans-48"/>
      </g>
     </g>
    </g>
    <g id="ytick_6">
     <g id="line2d_15">
      <g>
       <use style="stroke:#000000;stroke-width:0.8;" x="33.2875" xlink:href="#me4a1623150" y="53.292925"/>
      </g>
     </g>
     <g id="text_15">
      <!-- 250 -->
      <g transform="translate(7.2 57.092144)scale(0.1 -0.1)">
       <use xlink:href="#DejaVuSans-50"/>
       <use x="63.623047" xlink:href="#DejaVuSans-53"/>
       <use x="127.246094" xlink:href="#DejaVuSans-48"/>
      </g>
     </g>
    </g>
    <g id="ytick_7">
     <g id="line2d_16">
      <g>
       <use style="stroke:#000000;stroke-width:0.8;" x="33.2875" xlink:href="#me4a1623150" y="10.999219"/>
      </g>
     </g>
     <g id="text_16">
      <!-- 300 -->
      <g transform="translate(7.2 14.798437)scale(0.1 -0.1)">
       <defs>
        <path d="M 40.578125 39.3125 
Q 47.65625 37.796875 51.625 33 
Q 55.609375 28.21875 55.609375 21.1875 
Q 55.609375 10.40625 48.1875 4.484375 
Q 40.765625 -1.421875 27.09375 -1.421875 
Q 22.515625 -1.421875 17.65625 -0.515625 
Q 12.796875 0.390625 7.625 2.203125 
L 7.625 11.71875 
Q 11.71875 9.328125 16.59375 8.109375 
Q 21.484375 6.890625 26.8125 6.890625 
Q 36.078125 6.890625 40.9375 10.546875 
Q 45.796875 14.203125 45.796875 21.1875 
Q 45.796875 27.640625 41.28125 31.265625 
Q 36.765625 34.90625 28.71875 34.90625 
L 20.21875 34.90625 
L 20.21875 43.015625 
L 29.109375 43.015625 
Q 36.375 43.015625 40.234375 45.921875 
Q 44.09375 48.828125 44.09375 54.296875 
Q 44.09375 59.90625 40.109375 62.90625 
Q 36.140625 65.921875 28.71875 65.921875 
Q 24.65625 65.921875 20.015625 65.03125 
Q 15.375 64.15625 9.8125 62.3125 
L 9.8125 71.09375 
Q 15.4375 72.65625 20.34375 73.4375 
Q 25.25 74.21875 29.59375 74.21875 
Q 40.828125 74.21875 47.359375 69.109375 
Q 53.90625 64.015625 53.90625 55.328125 
Q 53.90625 49.265625 50.4375 45.09375 
Q 46.96875 40.921875 40.578125 39.3125 
z
" id="DejaVuSans-51"/>
       </defs>
       <use xlink:href="#DejaVuSans-51"/>
       <use x="63.623047" xlink:href="#DejaVuSans-48"/>
       <use x="127.246094" xlink:href="#DejaVuSans-48"/>
      </g>
     </g>
    </g>
   </g>
   <g id="line2d_17">
    <path clip-path="url(#p5b8773153a)" d="M 49.520227 264.761457 
L 51.151657 196.245652 
L 54.414517 109.120617 
L 56.045947 92.203135 
L 59.308807 65.135163 
L 60.940236 60.059918 
L 64.203096 70.210408 
L 65.834526 66.826911 
L 67.465956 62.59754 
L 69.097386 56.676422 
L 70.728816 54.984673 
L 72.360246 41.450687 
L 73.991675 32.991946 
L 75.623105 46.525932 
L 77.254535 45.680058 
L 78.885965 48.21768 
L 80.517395 55.830547 
L 82.148825 50.755303 
L 83.780255 46.525932 
L 85.411685 56.676422 
L 87.043114 60.905792 
L 88.674544 58.36817 
L 90.305974 45.680058 
L 91.937404 50.755303 
L 95.200264 64.289289 
L 96.831694 66.826911 
L 98.463124 56.676422 
L 100.094553 60.905792 
L 101.725983 49.063554 
L 103.357413 33.83782 
L 104.988843 37.221317 
L 106.620273 36.375443 
L 108.251703 32.991946 
L 109.883133 37.221317 
L 111.514563 51.601177 
L 113.145992 51.601177 
L 114.777422 59.214044 
L 116.408852 46.525932 
L 118.040282 50.755303 
L 119.671712 49.909429 
L 121.303142 64.289289 
L 122.934572 61.751666 
L 124.566002 60.059918 
L 126.197431 49.909429 
L 127.828861 54.984673 
L 129.460291 54.138799 
L 132.723151 65.981037 
L 134.354581 59.214044 
L 135.986011 60.905792 
L 137.617441 65.981037 
L 139.24887 58.36817 
L 140.8803 69.364533 
L 142.51173 70.210408 
L 144.14316 68.518659 
L 145.77459 70.210408 
L 147.40602 62.59754 
L 149.03745 74.439778 
L 150.66888 63.443415 
L 152.30031 68.518659 
L 153.931739 57.522296 
L 155.563169 51.601177 
L 157.194599 50.755303 
L 158.826029 51.601177 
L 160.457459 58.36817 
L 162.088889 60.905792 
L 163.720319 56.676422 
L 165.351749 49.063554 
L 166.983178 59.214044 
L 168.614608 68.518659 
L 170.246038 54.138799 
L 171.877468 48.21768 
L 173.508898 39.758939 
L 175.140328 37.221317 
L 176.771758 41.450687 
L 178.403188 52.447051 
L 180.034617 43.142436 
L 183.297477 44.834184 
L 184.928907 53.292925 
L 186.560337 52.447051 
L 188.191767 45.680058 
L 189.823197 43.142436 
L 191.454627 37.221317 
L 193.086056 50.755303 
L 196.348916 55.830547 
L 197.980346 45.680058 
L 199.611776 28.762575 
L 201.243206 37.221317 
L 202.874636 30.454324 
L 204.506066 27.070827 
L 206.137495 36.375443 
L 207.768925 43.98831 
L 209.400355 36.375443 
L 211.031785 56.676422 
L 212.663215 59.214044 
L 214.294645 53.292925 
L 215.926075 43.98831 
L 217.557505 47.371806 
L 219.188934 42.296561 
L 220.820364 38.913065 
L 222.451794 46.525932 
L 224.083224 49.063554 
L 225.714654 54.138799 
L 227.346084 65.135163 
L 228.977514 60.905792 
L 230.608944 49.909429 
L 232.240373 42.296561 
L 233.871803 46.525932 
L 235.503233 44.834184 
L 237.134663 51.601177 
L 238.766093 46.525932 
L 240.397523 49.909429 
L 242.028953 62.59754 
L 243.660383 71.902156 
L 245.291812 65.981037 
L 246.923242 61.751666 
L 248.554672 64.289289 
L 250.186102 82.052645 
L 251.817532 76.977401 
L 253.448962 76.131526 
L 255.080392 77.823275 
L 256.711822 65.135163 
L 258.343251 65.135163 
L 259.974681 55.830547 
L 261.606111 55.830547 
L 263.237541 44.834184 
L 264.868971 43.98831 
L 266.500401 40.604813 
L 268.131831 32.146072 
L 269.763261 41.450687 
L 271.39469 67.672785 
L 273.02612 61.751666 
L 276.28898 65.135163 
L 277.92041 60.059918 
L 279.55184 60.905792 
L 281.18327 66.826911 
L 282.8147 57.522296 
L 284.44613 56.676422 
L 286.077559 62.59754 
L 287.708989 63.443415 
L 289.340419 63.443415 
L 290.971849 55.830547 
L 292.603279 49.909429 
L 294.234709 40.604813 
L 295.866139 47.371806 
L 297.497569 56.676422 
L 299.128998 41.450687 
L 300.760428 34.683694 
L 302.391858 32.991946 
L 304.023288 48.21768 
L 305.654718 50.755303 
L 307.286148 52.447051 
L 308.917578 47.371806 
L 310.549008 54.138799 
L 312.180437 63.443415 
L 313.811867 60.905792 
L 315.443297 62.59754 
L 317.074727 54.984673 
L 318.706157 64.289289 
L 320.337587 51.601177 
L 321.969017 58.36817 
L 325.231876 41.450687 
L 326.863306 46.525932 
L 328.494736 55.830547 
L 330.126166 57.522296 
L 331.757596 51.601177 
L 333.389026 38.067191 
L 335.020456 54.138799 
L 336.651886 49.063554 
L 338.283315 54.138799 
L 339.914745 60.059918 
L 343.177605 60.059918 
L 344.809035 61.751666 
L 346.440465 76.977401 
L 348.071895 70.210408 
L 349.703325 55.830547 
L 351.334754 64.289289 
L 352.966184 53.292925 
L 354.597614 60.059918 
L 356.229044 59.214044 
L 357.860474 49.909429 
L 359.491904 55.830547 
L 361.123334 44.834184 
L 362.754764 34.683694 
L 364.386193 50.755303 
L 366.017623 65.135163 
L 367.649053 60.059918 
L 369.280483 58.36817 
L 370.911913 65.981037 
L 372.543343 65.981037 
L 374.174773 52.447051 
L 374.174773 52.447051 
" style="fill:none;stroke:#1f77b4;stroke-linecap:square;stroke-width:1.5;"/>
   </g>
   <g id="line2d_18">
    <path clip-path="url(#p5b8773153a)" d="M 49.520227 264.761457 
L 51.151657 252.073345 
L 54.414517 200.475023 
L 56.045947 166.640058 
L 57.677377 142.109708 
L 59.308807 115.88761 
L 60.940236 98.124254 
L 62.571666 84.590268 
L 64.203096 65.135163 
L 65.834526 57.522296 
L 67.465956 71.056282 
L 69.097386 71.056282 
L 70.728816 71.902156 
L 72.360246 97.27838 
L 73.991675 103.199498 
L 75.623105 63.443415 
L 77.254535 51.601177 
L 78.885965 46.525932 
L 80.517395 38.067191 
L 82.148825 40.604813 
L 83.780255 40.604813 
L 85.411685 38.067191 
L 87.043114 36.375443 
L 88.674544 54.984673 
L 90.305974 71.902156 
L 91.937404 54.138799 
L 93.568834 51.601177 
L 95.200264 60.059918 
L 96.831694 60.905792 
L 98.463124 68.518659 
L 100.094553 70.210408 
L 101.725983 81.206771 
L 103.357413 91.357261 
L 106.620273 64.289289 
L 108.251703 54.984673 
L 109.883133 42.296561 
L 111.514563 33.83782 
L 113.145992 43.142436 
L 114.777422 49.063554 
L 116.408852 77.823275 
L 118.040282 71.056282 
L 119.671712 71.902156 
L 121.303142 55.830547 
L 122.934572 69.364533 
L 124.566002 60.059918 
L 127.828861 70.210408 
L 129.460291 50.755303 
L 131.091721 44.834184 
L 132.723151 46.525932 
L 134.354581 55.830547 
L 135.986011 60.059918 
L 137.617441 41.450687 
L 139.24887 50.755303 
L 140.8803 32.991946 
L 142.51173 35.529568 
L 144.14316 39.758939 
L 145.77459 49.909429 
L 147.40602 62.59754 
L 149.03745 45.680058 
L 150.66888 56.676422 
L 152.30031 49.909429 
L 153.931739 60.059918 
L 155.563169 64.289289 
L 157.194599 55.830547 
L 160.457459 49.063554 
L 162.088889 50.755303 
L 163.720319 45.680058 
L 165.351749 50.755303 
L 166.983178 54.138799 
L 168.614608 43.98831 
L 170.246038 54.984673 
L 171.877468 60.905792 
L 175.140328 71.056282 
L 176.771758 54.984673 
L 178.403188 41.450687 
L 180.034617 52.447051 
L 181.666047 41.450687 
L 183.297477 38.067191 
L 184.928907 41.450687 
L 186.560337 49.063554 
L 188.191767 52.447051 
L 189.823197 58.36817 
L 191.454627 60.905792 
L 193.086056 48.21768 
L 196.348916 39.758939 
L 197.980346 62.59754 
L 199.611776 80.360897 
L 201.243206 54.138799 
L 202.874636 59.214044 
L 204.506066 60.905792 
L 206.137495 57.522296 
L 207.768925 46.525932 
L 209.400355 64.289289 
L 211.031785 40.604813 
L 212.663215 49.063554 
L 214.294645 61.751666 
L 215.926075 80.360897 
L 217.557505 59.214044 
L 219.188934 61.751666 
L 220.820364 49.063554 
L 224.083224 43.98831 
L 225.714654 39.758939 
L 227.346084 44.834184 
L 228.977514 41.450687 
L 230.608944 53.292925 
L 232.240373 65.981037 
L 233.871803 71.902156 
L 235.503233 75.285652 
L 237.134663 49.909429 
L 238.766093 67.672785 
L 240.397523 54.138799 
L 242.028953 42.296561 
L 243.660383 49.909429 
L 245.291812 47.371806 
L 246.923242 41.450687 
L 250.186102 22.841457 
L 251.817532 42.296561 
L 253.448962 47.371806 
L 255.080392 44.834184 
L 256.711822 60.059918 
L 258.343251 59.214044 
L 259.974681 71.056282 
L 261.606111 72.74803 
L 263.237541 77.823275 
L 264.868971 77.823275 
L 266.500401 82.052645 
L 268.131831 77.823275 
L 269.763261 61.751666 
L 271.39469 26.224953 
L 273.02612 53.292925 
L 274.65755 63.443415 
L 276.28898 55.830547 
L 277.92041 52.447051 
L 279.55184 54.138799 
L 281.18327 40.604813 
L 282.8147 51.601177 
L 284.44613 51.601177 
L 286.077559 40.604813 
L 287.708989 38.067191 
L 289.340419 29.60845 
L 290.971849 59.214044 
L 292.603279 51.601177 
L 294.234709 64.289289 
L 295.866139 48.21768 
L 297.497569 43.142436 
L 299.128998 54.138799 
L 300.760428 58.36817 
L 302.391858 58.36817 
L 304.023288 54.984673 
L 305.654718 65.135163 
L 307.286148 70.210408 
L 308.917578 66.826911 
L 310.549008 44.834184 
L 312.180437 27.916701 
L 313.811867 33.83782 
L 315.443297 32.146072 
L 317.074727 46.525932 
L 318.706157 41.450687 
L 320.337587 61.751666 
L 321.969017 52.447051 
L 323.600447 41.450687 
L 325.231876 52.447051 
L 326.863306 48.21768 
L 328.494736 44.834184 
L 330.126166 48.21768 
L 331.757596 73.593904 
L 333.389026 72.74803 
L 335.020456 57.522296 
L 336.651886 58.36817 
L 338.283315 55.830547 
L 339.914745 51.601177 
L 341.546175 73.593904 
L 343.177605 71.902156 
L 344.809035 54.138799 
L 346.440465 49.063554 
L 348.071895 51.601177 
L 349.703325 62.59754 
L 351.334754 49.909429 
L 352.966184 53.292925 
L 354.597614 43.98831 
L 356.229044 47.371806 
L 357.860474 54.984673 
L 359.491904 54.984673 
L 361.123334 65.981037 
L 362.754764 56.676422 
L 364.386193 41.450687 
L 366.017623 39.758939 
L 367.649053 48.21768 
L 369.280483 51.601177 
L 370.911913 41.450687 
L 372.543343 43.142436 
L 374.174773 58.36817 
L 374.174773 58.36817 
" style="fill:none;stroke:#ff7f0e;stroke-linecap:square;stroke-width:1.5;"/>
   </g>
   <g id="patch_3">
    <path d="M 33.2875 276.857457 
L 33.2875 10.745457 
" style="fill:none;stroke:#000000;stroke-linecap:square;stroke-linejoin:miter;stroke-width:0.8;"/>
   </g>
   <g id="patch_4">
    <path d="M 390.4075 276.857457 
L 390.4075 10.745457 
" style="fill:none;stroke:#000000;stroke-linecap:square;stroke-linejoin:miter;stroke-width:0.8;"/>
   </g>
   <g id="patch_5">
    <path d="M 33.2875 276.857457 
L 390.4075 276.857457 
" style="fill:none;stroke:#000000;stroke-linecap:square;stroke-linejoin:miter;stroke-width:0.8;"/>
   </g>
   <g id="patch_6">
    <path d="M 33.2875 10.745457 
L 390.4075 10.745457 
" style="fill:none;stroke:#000000;stroke-linecap:square;stroke-linejoin:miter;stroke-width:0.8;"/>
   </g>
  </g>
 </g>
 <defs>
  <clipPath id="p5b8773153a">
   <rect height="266.112" width="357.12" x="33.2875" y="10.745457"/>
  </clipPath>
 </defs>
</svg>
