<?xml version="1.0" encoding="utf-8" standalone="no"?>
<!DOCTYPE svg PUBLIC "-//W3C//DTD SVG 1.1//EN"
  "http://www.w3.org/Graphics/SVG/1.1/DTD/svg11.dtd">
<!-- Created with matplotlib (https://matplotlib.org/) -->
<svg height="297.190125pt" version="1.1" viewBox="0 0 403.97 297.190125" width="403.97pt" xmlns="http://www.w3.org/2000/svg" xmlns:xlink="http://www.w3.org/1999/xlink">
 <metadata>
  <rdf:RDF xmlns:cc="http://creativecommons.org/ns#" xmlns:dc="http://purl.org/dc/elements/1.1/" xmlns:rdf="http://www.w3.org/1999/02/22-rdf-syntax-ns#">
   <cc:Work>
    <dc:type rdf:resource="http://purl.org/dc/dcmitype/StillImage"/>
    <dc:date>2021-06-03T06:47:04.937474</dc:date>
    <dc:format>image/svg+xml</dc:format>
    <dc:creator>
     <cc:Agent>
      <dc:title>Matplotlib v3.3.4, https://matplotlib.org/</dc:title>
     </cc:Agent>
    </dc:creator>
   </cc:Work>
  </rdf:RDF>
 </metadata>
 <defs>
  <style type="text/css">*{stroke-linecap:butt;stroke-linejoin:round;}</style>
 </defs>
 <g id="figure_1">
  <g id="patch_1">
   <path d="M 0 297.190125 
L 403.97 297.190125 
L 403.97 0 
L 0 0 
z
" style="fill:#ffffff;"/>
  </g>
  <g id="axes_1">
   <g id="patch_2">
    <path d="M 39.65 273.312 
L 396.77 273.312 
L 396.77 7.2 
L 39.65 7.2 
z
" style="fill:#ffffff;"/>
   </g>
   <g id="matplotlib.axis_1">
    <g id="xtick_1">
     <g id="line2d_1">
      <defs>
       <path d="M 0 0 
L 0 3.5 
" id="mea00673c53" style="stroke:#000000;stroke-width:0.8;"/>
      </defs>
      <g>
       <use style="stroke:#000000;stroke-width:0.8;" x="55.882727" xlink:href="#mea00673c53" y="273.312"/>
      </g>
     </g>
     <g id="text_1">
      <!-- 0.0 -->
      <g transform="translate(47.931165 287.910437)scale(0.1 -0.1)">
       <defs>
        <path d="M 31.78125 66.40625 
Q 24.171875 66.40625 20.328125 58.90625 
Q 16.5 51.421875 16.5 36.375 
Q 16.5 21.390625 20.328125 13.890625 
Q 24.171875 6.390625 31.78125 6.390625 
Q 39.453125 6.390625 43.28125 13.890625 
Q 47.125 21.390625 47.125 36.375 
Q 47.125 51.421875 43.28125 58.90625 
Q 39.453125 66.40625 31.78125 66.40625 
z
M 31.78125 74.21875 
Q 44.046875 74.21875 50.515625 64.515625 
Q 56.984375 54.828125 56.984375 36.375 
Q 56.984375 17.96875 50.515625 8.265625 
Q 44.046875 -1.421875 31.78125 -1.421875 
Q 19.53125 -1.421875 13.0625 8.265625 
Q 6.59375 17.96875 6.59375 36.375 
Q 6.59375 54.828125 13.0625 64.515625 
Q 19.53125 74.21875 31.78125 74.21875 
z
" id="DejaVuSans-48"/>
        <path d="M 10.6875 12.40625 
L 21 12.40625 
L 21 0 
L 10.6875 0 
z
" id="DejaVuSans-46"/>
       </defs>
       <use xlink:href="#DejaVuSans-48"/>
       <use x="63.623047" xlink:href="#DejaVuSans-46"/>
       <use x="95.410156" xlink:href="#DejaVuSans-48"/>
      </g>
     </g>
    </g>
    <g id="xtick_2">
     <g id="line2d_2">
      <g>
       <use style="stroke:#000000;stroke-width:0.8;" x="96.668474" xlink:href="#mea00673c53" y="273.312"/>
      </g>
     </g>
     <g id="text_2">
      <!-- 2.5 -->
      <g transform="translate(88.716912 287.910437)scale(0.1 -0.1)">
       <defs>
        <path d="M 19.1875 8.296875 
L 53.609375 8.296875 
L 53.609375 0 
L 7.328125 0 
L 7.328125 8.296875 
Q 12.9375 14.109375 22.625 23.890625 
Q 32.328125 33.6875 34.8125 36.53125 
Q 39.546875 41.84375 41.421875 45.53125 
Q 43.3125 49.21875 43.3125 52.78125 
Q 43.3125 58.59375 39.234375 62.25 
Q 35.15625 65.921875 28.609375 65.921875 
Q 23.96875 65.921875 18.8125 64.3125 
Q 13.671875 62.703125 7.8125 59.421875 
L 7.8125 69.390625 
Q 13.765625 71.78125 18.9375 73 
Q 24.125 74.21875 28.421875 74.21875 
Q 39.75 74.21875 46.484375 68.546875 
Q 53.21875 62.890625 53.21875 53.421875 
Q 53.21875 48.921875 51.53125 44.890625 
Q 49.859375 40.875 45.40625 35.40625 
Q 44.1875 33.984375 37.640625 27.21875 
Q 31.109375 20.453125 19.1875 8.296875 
z
" id="DejaVuSans-50"/>
        <path d="M 10.796875 72.90625 
L 49.515625 72.90625 
L 49.515625 64.59375 
L 19.828125 64.59375 
L 19.828125 46.734375 
Q 21.96875 47.46875 24.109375 47.828125 
Q 26.265625 48.1875 28.421875 48.1875 
Q 40.625 48.1875 47.75 41.5 
Q 54.890625 34.8125 54.890625 23.390625 
Q 54.890625 11.625 47.5625 5.09375 
Q 40.234375 -1.421875 26.90625 -1.421875 
Q 22.3125 -1.421875 17.546875 -0.640625 
Q 12.796875 0.140625 7.71875 1.703125 
L 7.71875 11.625 
Q 12.109375 9.234375 16.796875 8.0625 
Q 21.484375 6.890625 26.703125 6.890625 
Q 35.15625 6.890625 40.078125 11.328125 
Q 45.015625 15.765625 45.015625 23.390625 
Q 45.015625 31 40.078125 35.4375 
Q 35.15625 39.890625 26.703125 39.890625 
Q 22.75 39.890625 18.8125 39.015625 
Q 14.890625 38.140625 10.796875 36.28125 
z
" id="DejaVuSans-53"/>
       </defs>
       <use xlink:href="#DejaVuSans-50"/>
       <use x="63.623047" xlink:href="#DejaVuSans-46"/>
       <use x="95.410156" xlink:href="#DejaVuSans-53"/>
      </g>
     </g>
    </g>
    <g id="xtick_3">
     <g id="line2d_3">
      <g>
       <use style="stroke:#000000;stroke-width:0.8;" x="137.454221" xlink:href="#mea00673c53" y="273.312"/>
      </g>
     </g>
     <g id="text_3">
      <!-- 5.0 -->
      <g transform="translate(129.502659 287.910437)scale(0.1 -0.1)">
       <use xlink:href="#DejaVuSans-53"/>
       <use x="63.623047" xlink:href="#DejaVuSans-46"/>
       <use x="95.410156" xlink:href="#DejaVuSans-48"/>
      </g>
     </g>
    </g>
    <g id="xtick_4">
     <g id="line2d_4">
      <g>
       <use style="stroke:#000000;stroke-width:0.8;" x="178.239968" xlink:href="#mea00673c53" y="273.312"/>
      </g>
     </g>
     <g id="text_4">
      <!-- 7.5 -->
      <g transform="translate(170.288406 287.910437)scale(0.1 -0.1)">
       <defs>
        <path d="M 8.203125 72.90625 
L 55.078125 72.90625 
L 55.078125 68.703125 
L 28.609375 0 
L 18.3125 0 
L 43.21875 64.59375 
L 8.203125 64.59375 
z
" id="DejaVuSans-55"/>
       </defs>
       <use xlink:href="#DejaVuSans-55"/>
       <use x="63.623047" xlink:href="#DejaVuSans-46"/>
       <use x="95.410156" xlink:href="#DejaVuSans-53"/>
      </g>
     </g>
    </g>
    <g id="xtick_5">
     <g id="line2d_5">
      <g>
       <use style="stroke:#000000;stroke-width:0.8;" x="219.025715" xlink:href="#mea00673c53" y="273.312"/>
      </g>
     </g>
     <g id="text_5">
      <!-- 10.0 -->
      <g transform="translate(207.892902 287.910437)scale(0.1 -0.1)">
       <defs>
        <path d="M 12.40625 8.296875 
L 28.515625 8.296875 
L 28.515625 63.921875 
L 10.984375 60.40625 
L 10.984375 69.390625 
L 28.421875 72.90625 
L 38.28125 72.90625 
L 38.28125 8.296875 
L 54.390625 8.296875 
L 54.390625 0 
L 12.40625 0 
z
" id="DejaVuSans-49"/>
       </defs>
       <use xlink:href="#DejaVuSans-49"/>
       <use x="63.623047" xlink:href="#DejaVuSans-48"/>
       <use x="127.246094" xlink:href="#DejaVuSans-46"/>
       <use x="159.033203" xlink:href="#DejaVuSans-48"/>
      </g>
     </g>
    </g>
    <g id="xtick_6">
     <g id="line2d_6">
      <g>
       <use style="stroke:#000000;stroke-width:0.8;" x="259.811462" xlink:href="#mea00673c53" y="273.312"/>
      </g>
     </g>
     <g id="text_6">
      <!-- 12.5 -->
      <g transform="translate(248.678649 287.910437)scale(0.1 -0.1)">
       <use xlink:href="#DejaVuSans-49"/>
       <use x="63.623047" xlink:href="#DejaVuSans-50"/>
       <use x="127.246094" xlink:href="#DejaVuSans-46"/>
       <use x="159.033203" xlink:href="#DejaVuSans-53"/>
      </g>
     </g>
    </g>
    <g id="xtick_7">
     <g id="line2d_7">
      <g>
       <use style="stroke:#000000;stroke-width:0.8;" x="300.597209" xlink:href="#mea00673c53" y="273.312"/>
      </g>
     </g>
     <g id="text_7">
      <!-- 15.0 -->
      <g transform="translate(289.464396 287.910437)scale(0.1 -0.1)">
       <use xlink:href="#DejaVuSans-49"/>
       <use x="63.623047" xlink:href="#DejaVuSans-53"/>
       <use x="127.246094" xlink:href="#DejaVuSans-46"/>
       <use x="159.033203" xlink:href="#DejaVuSans-48"/>
      </g>
     </g>
    </g>
    <g id="xtick_8">
     <g id="line2d_8">
      <g>
       <use style="stroke:#000000;stroke-width:0.8;" x="341.382956" xlink:href="#mea00673c53" y="273.312"/>
      </g>
     </g>
     <g id="text_8">
      <!-- 17.5 -->
      <g transform="translate(330.250143 287.910437)scale(0.1 -0.1)">
       <use xlink:href="#DejaVuSans-49"/>
       <use x="63.623047" xlink:href="#DejaVuSans-55"/>
       <use x="127.246094" xlink:href="#DejaVuSans-46"/>
       <use x="159.033203" xlink:href="#DejaVuSans-53"/>
      </g>
     </g>
    </g>
    <g id="xtick_9">
     <g id="line2d_9">
      <g>
       <use style="stroke:#000000;stroke-width:0.8;" x="382.168703" xlink:href="#mea00673c53" y="273.312"/>
      </g>
     </g>
     <g id="text_9">
      <!-- 20.0 -->
      <g transform="translate(371.03589 287.910437)scale(0.1 -0.1)">
       <use xlink:href="#DejaVuSans-50"/>
       <use x="63.623047" xlink:href="#DejaVuSans-48"/>
       <use x="127.246094" xlink:href="#DejaVuSans-46"/>
       <use x="159.033203" xlink:href="#DejaVuSans-48"/>
      </g>
     </g>
    </g>
   </g>
   <g id="matplotlib.axis_2">
    <g id="ytick_1">
     <g id="line2d_10">
      <defs>
       <path d="M 0 0 
L -3.5 0 
" id="m21a018f1d6" style="stroke:#000000;stroke-width:0.8;"/>
      </defs>
      <g>
       <use style="stroke:#000000;stroke-width:0.8;" x="39.65" xlink:href="#m21a018f1d6" y="261.216"/>
      </g>
     </g>
     <g id="text_10">
      <!-- 0 -->
      <g transform="translate(26.2875 265.015219)scale(0.1 -0.1)">
       <use xlink:href="#DejaVuSans-48"/>
      </g>
     </g>
    </g>
    <g id="ytick_2">
     <g id="line2d_11">
      <g>
       <use style="stroke:#000000;stroke-width:0.8;" x="39.65" xlink:href="#m21a018f1d6" y="221.968758"/>
      </g>
     </g>
     <g id="text_11">
      <!-- 500 -->
      <g transform="translate(13.5625 225.767977)scale(0.1 -0.1)">
       <use xlink:href="#DejaVuSans-53"/>
       <use x="63.623047" xlink:href="#DejaVuSans-48"/>
       <use x="127.246094" xlink:href="#DejaVuSans-48"/>
      </g>
     </g>
    </g>
    <g id="ytick_3">
     <g id="line2d_12">
      <g>
       <use style="stroke:#000000;stroke-width:0.8;" x="39.65" xlink:href="#m21a018f1d6" y="182.721516"/>
      </g>
     </g>
     <g id="text_12">
      <!-- 1000 -->
      <g transform="translate(7.2 186.520735)scale(0.1 -0.1)">
       <use xlink:href="#DejaVuSans-49"/>
       <use x="63.623047" xlink:href="#DejaVuSans-48"/>
       <use x="127.246094" xlink:href="#DejaVuSans-48"/>
       <use x="190.869141" xlink:href="#DejaVuSans-48"/>
      </g>
     </g>
    </g>
    <g id="ytick_4">
     <g id="line2d_13">
      <g>
       <use style="stroke:#000000;stroke-width:0.8;" x="39.65" xlink:href="#m21a018f1d6" y="143.474274"/>
      </g>
     </g>
     <g id="text_13">
      <!-- 1500 -->
      <g transform="translate(7.2 147.273493)scale(0.1 -0.1)">
       <use xlink:href="#DejaVuSans-49"/>
       <use x="63.623047" xlink:href="#DejaVuSans-53"/>
       <use x="127.246094" xlink:href="#DejaVuSans-48"/>
       <use x="190.869141" xlink:href="#DejaVuSans-48"/>
      </g>
     </g>
    </g>
    <g id="ytick_5">
     <g id="line2d_14">
      <g>
       <use style="stroke:#000000;stroke-width:0.8;" x="39.65" xlink:href="#m21a018f1d6" y="104.227032"/>
      </g>
     </g>
     <g id="text_14">
      <!-- 2000 -->
      <g transform="translate(7.2 108.026251)scale(0.1 -0.1)">
       <use xlink:href="#DejaVuSans-50"/>
       <use x="63.623047" xlink:href="#DejaVuSans-48"/>
       <use x="127.246094" xlink:href="#DejaVuSans-48"/>
       <use x="190.869141" xlink:href="#DejaVuSans-48"/>
      </g>
     </g>
    </g>
    <g id="ytick_6">
     <g id="line2d_15">
      <g>
       <use style="stroke:#000000;stroke-width:0.8;" x="39.65" xlink:href="#m21a018f1d6" y="64.97979"/>
      </g>
     </g>
     <g id="text_15">
      <!-- 2500 -->
      <g transform="translate(7.2 68.779008)scale(0.1 -0.1)">
       <use xlink:href="#DejaVuSans-50"/>
       <use x="63.623047" xlink:href="#DejaVuSans-53"/>
       <use x="127.246094" xlink:href="#DejaVuSans-48"/>
       <use x="190.869141" xlink:href="#DejaVuSans-48"/>
      </g>
     </g>
    </g>
    <g id="ytick_7">
     <g id="line2d_16">
      <g>
       <use style="stroke:#000000;stroke-width:0.8;" x="39.65" xlink:href="#m21a018f1d6" y="25.732548"/>
      </g>
     </g>
     <g id="text_16">
      <!-- 3000 -->
      <g transform="translate(7.2 29.531766)scale(0.1 -0.1)">
       <defs>
        <path d="M 40.578125 39.3125 
Q 47.65625 37.796875 51.625 33 
Q 55.609375 28.21875 55.609375 21.1875 
Q 55.609375 10.40625 48.1875 4.484375 
Q 40.765625 -1.421875 27.09375 -1.421875 
Q 22.515625 -1.421875 17.65625 -0.515625 
Q 12.796875 0.390625 7.625 2.203125 
L 7.625 11.71875 
Q 11.71875 9.328125 16.59375 8.109375 
Q 21.484375 6.890625 26.8125 6.890625 
Q 36.078125 6.890625 40.9375 10.546875 
Q 45.796875 14.203125 45.796875 21.1875 
Q 45.796875 27.640625 41.28125 31.265625 
Q 36.765625 34.90625 28.71875 34.90625 
L 20.21875 34.90625 
L 20.21875 43.015625 
L 29.109375 43.015625 
Q 36.375 43.015625 40.234375 45.921875 
Q 44.09375 48.828125 44.09375 54.296875 
Q 44.09375 59.90625 40.109375 62.90625 
Q 36.140625 65.921875 28.71875 65.921875 
Q 24.65625 65.921875 20.015625 65.03125 
Q 15.375 64.15625 9.8125 62.3125 
L 9.8125 71.09375 
Q 15.4375 72.65625 20.34375 73.4375 
Q 25.25 74.21875 29.59375 74.21875 
Q 40.828125 74.21875 47.359375 69.109375 
Q 53.90625 64.015625 53.90625 55.328125 
Q 53.90625 49.265625 50.4375 45.09375 
Q 46.96875 40.921875 40.578125 39.3125 
z
" id="DejaVuSans-51"/>
       </defs>
       <use xlink:href="#DejaVuSans-51"/>
       <use x="63.623047" xlink:href="#DejaVuSans-48"/>
       <use x="127.246094" xlink:href="#DejaVuSans-48"/>
       <use x="190.869141" xlink:href="#DejaVuSans-48"/>
      </g>
     </g>
    </g>
   </g>
   <g id="line2d_17">
    <path clip-path="url(#p5831512622)" d="M 55.882727 261.216 
L 59.961302 241.592379 
L 64.039877 223.603406 
L 68.118451 207.112914 
L 72.197026 191.99608 
L 76.275601 178.138478 
L 80.354175 165.435215 
L 84.43275 153.790133 
L 88.511325 143.115087 
L 92.589899 133.329272 
L 96.668474 124.358615 
L 100.747049 116.135214 
L 104.825624 108.596823 
L 108.904198 101.686379 
L 112.982773 95.351576 
L 117.061348 89.544461 
L 121.139922 84.221079 
L 125.218497 79.341135 
L 129.297072 74.86769 
L 133.375646 70.766884 
L 137.454221 67.007674 
L 141.532796 63.561606 
L 145.61137 60.402596 
L 149.689945 57.506732 
L 153.76852 54.852093 
L 157.847095 52.418585 
L 161.925669 50.187789 
L 166.004244 48.142818 
L 170.082819 46.268193 
L 174.161393 44.549724 
L 178.239968 42.974404 
L 182.318543 41.530308 
L 186.397117 40.206505 
L 190.475692 38.992975 
L 194.554267 37.880532 
L 198.632841 36.860755 
L 202.711416 35.925926 
L 206.789991 35.068968 
L 210.868566 34.283395 
L 214.94714 33.56326 
L 219.025715 32.903112 
L 223.10429 32.297955 
L 227.182864 31.743207 
L 231.261439 31.23467 
L 235.340014 30.768493 
L 239.418588 30.34115 
L 243.497163 29.949404 
L 247.575738 29.59029 
L 251.654312 29.261091 
L 255.732887 28.959314 
L 259.811462 28.682675 
L 263.890037 28.42908 
L 267.968611 28.196609 
L 272.047186 27.983503 
L 276.125761 27.788149 
L 280.204335 27.609068 
L 284.28291 27.444905 
L 288.361485 27.294416 
L 292.440059 27.156463 
L 296.518634 27.030001 
L 300.597209 26.914074 
L 304.675783 26.807803 
L 308.754358 26.710385 
L 312.832933 26.621082 
L 316.911508 26.539217 
L 320.990082 26.464172 
L 325.068657 26.395379 
L 329.147232 26.332315 
L 333.225806 26.274505 
L 337.304381 26.221511 
L 341.382956 26.172931 
L 345.46153 26.128397 
L 349.540105 26.087574 
L 353.61868 26.05015 
L 357.697254 26.015845 
L 361.775829 25.984397 
L 365.854404 25.955568 
L 369.932979 25.929141 
L 374.011553 25.904915 
L 378.090128 25.882708 
" style="fill:none;stroke:#1f77b4;stroke-linecap:square;stroke-width:1.5;"/>
   </g>
   <g id="line2d_18">
    <path clip-path="url(#p5831512622)" d="M 55.882727 261.216 
L 59.961302 261.216 
L 64.039877 259.581352 
L 68.118451 256.720719 
L 72.197026 252.963295 
L 76.275601 248.573002 
L 80.354175 243.760232 
L 84.43275 238.691569 
L 88.511325 233.497817 
L 92.589899 228.280632 
L 96.668474 223.117993 
L 100.747049 218.068711 
L 104.825624 213.176135 
L 108.904198 208.471203 
L 112.982773 203.974943 
L 117.061348 199.700521 
L 121.139922 195.654912 
L 125.218497 191.840268 
L 129.297072 188.255027 
L 133.375646 184.894807 
L 137.454221 181.753138 
L 141.532796 178.822044 
L 145.61137 176.092505 
L 149.689945 173.554835 
L 153.76852 171.198969 
L 157.847095 169.014695 
L 161.925669 166.991828 
L 166.004244 165.120347 
L 170.082819 163.390497 
L 174.161393 161.792856 
L 178.239968 160.318393 
L 182.318543 158.958499 
L 186.397117 157.705006 
L 190.475692 156.550198 
L 194.554267 155.486809 
L 198.632841 154.508021 
L 202.711416 153.607449 
L 206.789991 152.779131 
L 210.868566 152.01751 
L 214.94714 151.317412 
L 219.025715 150.674033 
L 223.10429 150.082916 
L 227.182864 149.539928 
L 231.261439 149.041245 
L 235.340014 148.583332 
L 239.418588 148.16292 
L 243.497163 147.776994 
L 247.575738 147.422769 
L 251.654312 147.097679 
L 255.732887 146.799359 
L 259.811462 146.525631 
L 263.890037 146.27449 
L 267.968611 146.044089 
L 272.047186 145.832731 
L 276.125761 145.638855 
L 280.204335 145.461025 
L 284.28291 145.297922 
L 288.361485 145.148333 
L 292.440059 145.011145 
L 296.518634 144.885335 
L 300.597209 144.769963 
L 304.675783 144.664167 
L 308.754358 144.567155 
L 312.832933 144.4782 
L 316.911508 144.396634 
L 320.990082 144.321847 
L 325.068657 144.253275 
L 329.147232 144.190403 
L 333.225806 144.132759 
L 337.304381 144.079909 
L 341.382956 144.031454 
L 345.46153 143.98703 
L 349.540105 143.946302 
L 353.61868 143.908963 
L 357.697254 143.874731 
L 361.775829 143.843347 
L 365.854404 143.814576 
L 369.932979 143.788199 
L 374.011553 143.764018 
L 378.090128 143.74185 
" style="fill:none;stroke:#ff7f0e;stroke-linecap:square;stroke-width:1.5;"/>
   </g>
   <g id="line2d_19">
    <path clip-path="url(#p5831512622)" d="M 55.882727 261.216 
L 57.514157 252.346123 
L 60.777017 239.708511 
L 62.408447 232.565513 
L 64.039877 224.402087 
L 67.302736 211.999958 
L 68.934166 207.447278 
L 70.565596 200.147291 
L 73.828456 189.786019 
L 75.459886 185.233339 
L 77.091316 177.776363 
L 80.354175 168.43552 
L 81.985605 164.824774 
L 83.617035 160.03661 
L 85.248465 153.992535 
L 86.879895 148.419426 
L 88.511325 144.573197 
L 90.142755 140.020517 
L 91.774185 137.430199 
L 96.668474 127.225916 
L 98.299904 124.32162 
L 99.931334 121.966785 
L 101.562764 119.219478 
L 104.825624 114.117337 
L 106.457053 110.192613 
L 109.719913 103.206604 
L 111.351343 99.98833 
L 114.614203 92.688343 
L 116.245633 93.787265 
L 117.877063 90.961464 
L 121.139922 86.408784 
L 122.771352 84.603411 
L 124.402782 81.463631 
L 126.034212 80.286214 
L 127.665642 79.422775 
L 129.297072 77.381918 
L 130.928502 77.146435 
L 132.559931 77.224929 
L 134.191361 76.36149 
L 135.822791 76.989446 
L 137.454221 74.948589 
L 139.085651 71.573326 
L 140.717081 68.983008 
L 142.348511 68.904514 
L 143.979941 68.041075 
L 150.50566 64.037856 
L 152.13709 62.389472 
L 153.76852 62.310977 
L 155.39995 59.877648 
L 157.03138 56.816363 
L 158.66281 54.147551 
L 161.925669 51.871211 
L 163.557099 48.417454 
L 165.188529 48.417454 
L 166.819959 47.47552 
L 168.451389 47.004553 
L 170.082819 45.19918 
L 171.714249 44.257246 
L 173.345678 44.178751 
L 174.977108 42.373378 
L 176.608538 43.158323 
L 178.239968 42.216389 
L 179.871398 43.001334 
L 181.502828 44.885202 
L 183.134258 44.728213 
L 184.765688 46.141114 
L 186.397117 45.748641 
L 188.028547 46.61208 
L 189.659977 43.943268 
L 191.291407 41.509939 
L 192.922837 39.312093 
L 194.554267 38.919621 
L 196.185697 38.919621 
L 197.817127 39.469082 
L 199.448556 37.820698 
L 201.079986 36.878764 
L 202.711416 37.663709 
L 204.342846 37.585215 
L 205.974276 36.486292 
L 207.605706 35.858336 
L 209.237136 34.052963 
L 210.868566 32.483073 
L 212.499995 31.855117 
L 214.131425 31.54114 
L 215.762855 30.834689 
L 217.394285 29.97125 
L 219.025715 28.872327 
L 220.657145 28.950822 
L 222.288575 30.128239 
L 223.920005 31.855117 
L 225.551434 33.111029 
L 227.182864 33.895974 
L 230.445724 31.148667 
L 232.077154 30.049744 
L 233.708584 30.6777 
L 235.340014 32.012106 
L 236.971444 34.602424 
L 240.234303 32.640062 
L 241.865733 32.875546 
L 243.497163 32.718557 
L 245.128593 31.148667 
L 246.760023 29.343294 
L 248.391453 28.479855 
L 250.022883 26.282009 
L 251.654312 26.282009 
L 253.285742 27.69491 
L 254.917172 27.537921 
L 256.548602 26.988459 
L 258.180032 26.83147 
L 259.811462 27.302437 
L 261.442892 27.930393 
L 263.074322 27.616415 
L 264.705751 27.616415 
L 266.337181 27.066954 
L 267.968611 28.715338 
L 271.231471 24.241152 
L 272.862901 25.732548 
L 274.494331 24.869108 
L 276.125761 25.575559 
L 277.75719 26.988459 
L 279.38862 25.811042 
L 281.02005 25.811042 
L 282.65148 24.633625 
L 284.28291 26.360504 
L 285.91434 24.633625 
L 287.54577 24.712119 
L 289.1772 24.319647 
L 290.80863 22.043307 
L 292.440059 22.121801 
L 294.071489 22.435779 
L 295.702919 24.633625 
L 297.334349 24.476636 
L 298.965779 24.712119 
L 300.597209 23.299219 
L 302.228639 23.770186 
L 303.860069 23.534702 
L 305.491498 24.712119 
L 307.122928 23.691691 
L 308.754358 23.770186 
L 310.385788 23.534702 
L 312.017218 24.005669 
L 313.648648 23.534702 
L 315.280078 19.296 
L 316.911508 19.452989 
L 318.542937 22.749757 
L 320.174367 24.55513 
L 321.805797 23.377713 
L 323.437227 24.55513 
L 325.068657 24.55513 
L 326.700087 25.026097 
L 328.331517 25.968031 
L 329.962947 26.752976 
L 331.594376 25.497064 
L 333.225806 25.575559 
L 334.857236 24.084164 
L 336.488666 23.220724 
L 338.120096 21.650835 
L 339.751526 22.357285 
L 341.382956 21.964812 
L 343.014386 22.671263 
L 344.645815 23.534702 
L 346.277245 24.005669 
L 347.908675 22.906746 
L 349.540105 22.906746 
L 351.171535 23.299219 
L 354.434395 21.336857 
L 356.065825 22.200296 
L 357.697254 22.27879 
L 359.328684 23.377713 
L 360.960114 23.770186 
L 362.591544 24.398141 
L 364.222974 25.41857 
L 365.854404 25.575559 
L 367.485834 26.282009 
L 369.117264 24.162658 
L 370.748693 24.398141 
L 372.380123 26.12502 
L 375.642983 24.162658 
L 377.274413 24.712119 
L 378.905843 26.12502 
L 380.537273 23.84868 
L 380.537273 23.84868 
" style="fill:none;stroke:#2ca02c;stroke-linecap:square;stroke-width:1.5;"/>
   </g>
   <g id="line2d_20">
    <path clip-path="url(#p5831512622)" d="M 55.882727 261.216 
L 57.514157 261.059011 
L 59.145587 260.50955 
L 60.777017 260.195572 
L 62.408447 259.489121 
L 64.039877 258.468693 
L 65.671307 256.584825 
L 67.302736 255.642892 
L 68.934166 253.759024 
L 70.565596 252.895585 
L 73.828456 249.991289 
L 77.091316 246.930004 
L 80.354175 242.377324 
L 85.248465 238.531094 
L 86.879895 236.961204 
L 88.511325 234.998842 
L 90.142755 233.507447 
L 91.774185 231.309602 
L 93.405614 228.797778 
L 95.037044 225.579504 
L 96.668474 222.753703 
L 98.299904 221.340802 
L 99.931334 219.613923 
L 103.194194 214.590276 
L 104.825624 214.276299 
L 106.457053 213.25587 
L 108.088483 211.450497 
L 109.719913 209.331146 
L 111.351343 207.761256 
L 112.982773 206.348356 
L 114.614203 206.505345 
L 116.245633 203.287071 
L 117.877063 203.287071 
L 119.508492 202.109653 
L 121.139922 201.246214 
L 122.771352 198.498907 
L 124.402782 196.536545 
L 126.034212 195.123644 
L 127.665642 192.140854 
L 129.297072 190.413975 
L 130.928502 189.550536 
L 132.559931 187.666668 
L 134.191361 186.64624 
L 135.822791 184.3699 
L 139.085651 183.035494 
L 140.717081 184.134417 
L 143.979941 179.974209 
L 145.61137 178.325825 
L 148.87423 177.462385 
L 150.50566 177.305396 
L 152.13709 177.383891 
L 153.76852 176.127979 
L 155.39995 176.127979 
L 157.03138 176.677441 
L 158.66281 176.83443 
L 160.294239 174.322606 
L 161.925669 173.616156 
L 163.557099 174.950562 
L 166.819959 172.517233 
L 168.451389 172.438738 
L 170.082819 170.868849 
L 171.714249 170.947343 
L 173.345678 171.575299 
L 174.977108 170.083904 
L 176.608538 167.650575 
L 178.239968 167.336597 
L 179.871398 166.15918 
L 181.502828 163.804345 
L 184.765688 164.118323 
L 186.397117 163.804345 
L 188.028547 163.097895 
L 189.659977 163.333378 
L 191.291407 162.940906 
L 192.922837 164.196818 
L 194.554267 162.077467 
L 196.185697 161.684994 
L 197.817127 160.350588 
L 201.079986 160.115104 
L 202.711416 158.859193 
L 204.342846 158.702204 
L 205.974276 157.681775 
L 207.605706 158.388226 
L 209.237136 158.937687 
L 214.131425 158.309731 
L 215.762855 158.152742 
L 217.394285 157.838764 
L 219.025715 156.896831 
L 220.657145 155.091457 
L 222.288575 153.992535 
L 223.920005 153.600062 
L 227.182864 149.596844 
L 228.814294 149.439855 
L 230.445724 151.6377 
L 232.077154 151.794689 
L 233.708584 149.518349 
L 235.340014 148.026954 
L 236.971444 145.986097 
L 238.602873 147.948459 
L 240.234303 148.026954 
L 241.865733 148.419426 
L 243.497163 148.340932 
L 245.128593 147.712976 
L 246.760023 147.555987 
L 248.391453 149.125877 
L 250.022883 150.852755 
L 251.654312 150.303294 
L 253.285742 149.047382 
L 254.917172 149.675338 
L 256.548602 149.439855 
L 259.811462 151.245228 
L 261.442892 149.989316 
L 263.074322 149.753833 
L 264.705751 149.753833 
L 266.337181 149.125877 
L 267.968611 147.006526 
L 269.600041 148.105448 
L 271.231471 148.968888 
L 272.862901 147.869965 
L 274.494331 148.262437 
L 276.125761 149.125877 
L 277.75719 147.948459 
L 279.38862 147.712976 
L 281.02005 148.105448 
L 282.65148 147.79147 
L 284.28291 147.08502 
L 285.91434 148.183943 
L 287.54577 146.37857 
L 289.1772 146.614053 
L 290.80863 146.614053 
L 292.440059 147.634482 
L 294.071489 147.634482 
L 295.702919 148.890393 
L 297.334349 147.477493 
L 298.965779 148.026954 
L 300.597209 147.948459 
L 302.228639 148.65491 
L 303.860069 148.183943 
L 305.491498 146.221581 
L 307.122928 148.576415 
L 308.754358 147.555987 
L 312.017218 146.064592 
L 313.648648 147.163515 
L 315.280078 149.989316 
L 316.911508 149.989316 
L 318.542937 147.163515 
L 320.174367 145.750614 
L 321.805797 148.497921 
L 323.437227 148.183943 
L 325.068657 148.733404 
L 326.700087 147.320504 
L 328.331517 145.044164 
L 329.962947 145.122658 
L 331.594376 143.160296 
L 333.225806 142.375351 
L 336.488666 142.846318 
L 338.120096 142.139868 
L 339.751526 140.569978 
L 341.382956 141.197934 
L 343.014386 140.020517 
L 344.645815 141.040945 
L 346.277245 140.726967 
L 347.908675 141.668901 
L 349.540105 140.256 
L 351.171535 141.197934 
L 352.802965 140.648472 
L 354.434395 141.040945 
L 356.065825 139.863528 
L 357.697254 138.293638 
L 359.328684 137.27321 
L 360.960114 136.566759 
L 362.591544 137.587188 
L 364.222974 139.000088 
L 365.854404 139.471055 
L 367.485834 138.136649 
L 369.117264 138.843099 
L 370.748693 139.392561 
L 372.380123 137.901165 
L 374.011553 138.450627 
L 375.642983 138.136649 
L 377.274413 136.645254 
L 378.905843 136.566759 
L 380.537273 139.863528 
L 380.537273 139.863528 
" style="fill:none;stroke:#d62728;stroke-linecap:square;stroke-width:1.5;"/>
   </g>
   <g id="patch_3">
    <path d="M 39.65 273.312 
L 39.65 7.2 
" style="fill:none;stroke:#000000;stroke-linecap:square;stroke-linejoin:miter;stroke-width:0.8;"/>
   </g>
   <g id="patch_4">
    <path d="M 396.77 273.312 
L 396.77 7.2 
" style="fill:none;stroke:#000000;stroke-linecap:square;stroke-linejoin:miter;stroke-width:0.8;"/>
   </g>
   <g id="patch_5">
    <path d="M 39.65 273.312 
L 396.77 273.312 
" style="fill:none;stroke:#000000;stroke-linecap:square;stroke-linejoin:miter;stroke-width:0.8;"/>
   </g>
   <g id="patch_6">
    <path d="M 39.65 7.2 
L 396.77 7.2 
" style="fill:none;stroke:#000000;stroke-linecap:square;stroke-linejoin:miter;stroke-width:0.8;"/>
   </g>
  </g>
 </g>
 <defs>
  <clipPath id="p5831512622">
   <rect height="266.112" width="357.12" x="39.65" y="7.2"/>
  </clipPath>
 </defs>
</svg>
