<?xml version="1.0" encoding="utf-8" standalone="no"?>
<!DOCTYPE svg PUBLIC "-//W3C//DTD SVG 1.1//EN"
  "http://www.w3.org/Graphics/SVG/1.1/DTD/svg11.dtd">
<!-- Created with matplotlib (https://matplotlib.org/) -->
<svg height="297.190125pt" version="1.1" viewBox="0 0 403.97 297.190125" width="403.97pt" xmlns="http://www.w3.org/2000/svg" xmlns:xlink="http://www.w3.org/1999/xlink">
 <metadata>
  <rdf:RDF xmlns:cc="http://creativecommons.org/ns#" xmlns:dc="http://purl.org/dc/elements/1.1/" xmlns:rdf="http://www.w3.org/1999/02/22-rdf-syntax-ns#">
   <cc:Work>
    <dc:type rdf:resource="http://purl.org/dc/dcmitype/StillImage"/>
    <dc:date>2021-03-14T00:05:04.225751</dc:date>
    <dc:format>image/svg+xml</dc:format>
    <dc:creator>
     <cc:Agent>
      <dc:title>Matplotlib v3.3.4, https://matplotlib.org/</dc:title>
     </cc:Agent>
    </dc:creator>
   </cc:Work>
  </rdf:RDF>
 </metadata>
 <defs>
  <style type="text/css">*{stroke-linecap:butt;stroke-linejoin:round;}</style>
 </defs>
 <g id="figure_1">
  <g id="patch_1">
   <path d="M 0 297.190125 
L 403.97 297.190125 
L 403.97 0 
L 0 0 
z
" style="fill:#ffffff;"/>
  </g>
  <g id="axes_1">
   <g id="patch_2">
    <path d="M 39.65 273.312 
L 396.77 273.312 
L 396.77 7.2 
L 39.65 7.2 
z
" style="fill:#ffffff;"/>
   </g>
   <g id="matplotlib.axis_1">
    <g id="xtick_1">
     <g id="line2d_1">
      <defs>
       <path d="M 0 0 
L 0 3.5 
" id="mf21c5d377f" style="stroke:#000000;stroke-width:0.8;"/>
      </defs>
      <g>
       <use style="stroke:#000000;stroke-width:0.8;" x="55.882727" xlink:href="#mf21c5d377f" y="273.312"/>
      </g>
     </g>
     <g id="text_1">
      <!-- 0.0 -->
      <g transform="translate(47.931165 287.910437)scale(0.1 -0.1)">
       <defs>
        <path d="M 31.78125 66.40625 
Q 24.171875 66.40625 20.328125 58.90625 
Q 16.5 51.421875 16.5 36.375 
Q 16.5 21.390625 20.328125 13.890625 
Q 24.171875 6.390625 31.78125 6.390625 
Q 39.453125 6.390625 43.28125 13.890625 
Q 47.125 21.390625 47.125 36.375 
Q 47.125 51.421875 43.28125 58.90625 
Q 39.453125 66.40625 31.78125 66.40625 
z
M 31.78125 74.21875 
Q 44.046875 74.21875 50.515625 64.515625 
Q 56.984375 54.828125 56.984375 36.375 
Q 56.984375 17.96875 50.515625 8.265625 
Q 44.046875 -1.421875 31.78125 -1.421875 
Q 19.53125 -1.421875 13.0625 8.265625 
Q 6.59375 17.96875 6.59375 36.375 
Q 6.59375 54.828125 13.0625 64.515625 
Q 19.53125 74.21875 31.78125 74.21875 
z
" id="DejaVuSans-48"/>
        <path d="M 10.6875 12.40625 
L 21 12.40625 
L 21 0 
L 10.6875 0 
z
" id="DejaVuSans-46"/>
       </defs>
       <use xlink:href="#DejaVuSans-48"/>
       <use x="63.623047" xlink:href="#DejaVuSans-46"/>
       <use x="95.410156" xlink:href="#DejaVuSans-48"/>
      </g>
     </g>
    </g>
    <g id="xtick_2">
     <g id="line2d_2">
      <g>
       <use style="stroke:#000000;stroke-width:0.8;" x="96.668474" xlink:href="#mf21c5d377f" y="273.312"/>
      </g>
     </g>
     <g id="text_2">
      <!-- 2.5 -->
      <g transform="translate(88.716912 287.910437)scale(0.1 -0.1)">
       <defs>
        <path d="M 19.1875 8.296875 
L 53.609375 8.296875 
L 53.609375 0 
L 7.328125 0 
L 7.328125 8.296875 
Q 12.9375 14.109375 22.625 23.890625 
Q 32.328125 33.6875 34.8125 36.53125 
Q 39.546875 41.84375 41.421875 45.53125 
Q 43.3125 49.21875 43.3125 52.78125 
Q 43.3125 58.59375 39.234375 62.25 
Q 35.15625 65.921875 28.609375 65.921875 
Q 23.96875 65.921875 18.8125 64.3125 
Q 13.671875 62.703125 7.8125 59.421875 
L 7.8125 69.390625 
Q 13.765625 71.78125 18.9375 73 
Q 24.125 74.21875 28.421875 74.21875 
Q 39.75 74.21875 46.484375 68.546875 
Q 53.21875 62.890625 53.21875 53.421875 
Q 53.21875 48.921875 51.53125 44.890625 
Q 49.859375 40.875 45.40625 35.40625 
Q 44.1875 33.984375 37.640625 27.21875 
Q 31.109375 20.453125 19.1875 8.296875 
z
" id="DejaVuSans-50"/>
        <path d="M 10.796875 72.90625 
L 49.515625 72.90625 
L 49.515625 64.59375 
L 19.828125 64.59375 
L 19.828125 46.734375 
Q 21.96875 47.46875 24.109375 47.828125 
Q 26.265625 48.1875 28.421875 48.1875 
Q 40.625 48.1875 47.75 41.5 
Q 54.890625 34.8125 54.890625 23.390625 
Q 54.890625 11.625 47.5625 5.09375 
Q 40.234375 -1.421875 26.90625 -1.421875 
Q 22.3125 -1.421875 17.546875 -0.640625 
Q 12.796875 0.140625 7.71875 1.703125 
L 7.71875 11.625 
Q 12.109375 9.234375 16.796875 8.0625 
Q 21.484375 6.890625 26.703125 6.890625 
Q 35.15625 6.890625 40.078125 11.328125 
Q 45.015625 15.765625 45.015625 23.390625 
Q 45.015625 31 40.078125 35.4375 
Q 35.15625 39.890625 26.703125 39.890625 
Q 22.75 39.890625 18.8125 39.015625 
Q 14.890625 38.140625 10.796875 36.28125 
z
" id="DejaVuSans-53"/>
       </defs>
       <use xlink:href="#DejaVuSans-50"/>
       <use x="63.623047" xlink:href="#DejaVuSans-46"/>
       <use x="95.410156" xlink:href="#DejaVuSans-53"/>
      </g>
     </g>
    </g>
    <g id="xtick_3">
     <g id="line2d_3">
      <g>
       <use style="stroke:#000000;stroke-width:0.8;" x="137.454221" xlink:href="#mf21c5d377f" y="273.312"/>
      </g>
     </g>
     <g id="text_3">
      <!-- 5.0 -->
      <g transform="translate(129.502659 287.910437)scale(0.1 -0.1)">
       <use xlink:href="#DejaVuSans-53"/>
       <use x="63.623047" xlink:href="#DejaVuSans-46"/>
       <use x="95.410156" xlink:href="#DejaVuSans-48"/>
      </g>
     </g>
    </g>
    <g id="xtick_4">
     <g id="line2d_4">
      <g>
       <use style="stroke:#000000;stroke-width:0.8;" x="178.239968" xlink:href="#mf21c5d377f" y="273.312"/>
      </g>
     </g>
     <g id="text_4">
      <!-- 7.5 -->
      <g transform="translate(170.288406 287.910437)scale(0.1 -0.1)">
       <defs>
        <path d="M 8.203125 72.90625 
L 55.078125 72.90625 
L 55.078125 68.703125 
L 28.609375 0 
L 18.3125 0 
L 43.21875 64.59375 
L 8.203125 64.59375 
z
" id="DejaVuSans-55"/>
       </defs>
       <use xlink:href="#DejaVuSans-55"/>
       <use x="63.623047" xlink:href="#DejaVuSans-46"/>
       <use x="95.410156" xlink:href="#DejaVuSans-53"/>
      </g>
     </g>
    </g>
    <g id="xtick_5">
     <g id="line2d_5">
      <g>
       <use style="stroke:#000000;stroke-width:0.8;" x="219.025715" xlink:href="#mf21c5d377f" y="273.312"/>
      </g>
     </g>
     <g id="text_5">
      <!-- 10.0 -->
      <g transform="translate(207.892902 287.910437)scale(0.1 -0.1)">
       <defs>
        <path d="M 12.40625 8.296875 
L 28.515625 8.296875 
L 28.515625 63.921875 
L 10.984375 60.40625 
L 10.984375 69.390625 
L 28.421875 72.90625 
L 38.28125 72.90625 
L 38.28125 8.296875 
L 54.390625 8.296875 
L 54.390625 0 
L 12.40625 0 
z
" id="DejaVuSans-49"/>
       </defs>
       <use xlink:href="#DejaVuSans-49"/>
       <use x="63.623047" xlink:href="#DejaVuSans-48"/>
       <use x="127.246094" xlink:href="#DejaVuSans-46"/>
       <use x="159.033203" xlink:href="#DejaVuSans-48"/>
      </g>
     </g>
    </g>
    <g id="xtick_6">
     <g id="line2d_6">
      <g>
       <use style="stroke:#000000;stroke-width:0.8;" x="259.811462" xlink:href="#mf21c5d377f" y="273.312"/>
      </g>
     </g>
     <g id="text_6">
      <!-- 12.5 -->
      <g transform="translate(248.678649 287.910437)scale(0.1 -0.1)">
       <use xlink:href="#DejaVuSans-49"/>
       <use x="63.623047" xlink:href="#DejaVuSans-50"/>
       <use x="127.246094" xlink:href="#DejaVuSans-46"/>
       <use x="159.033203" xlink:href="#DejaVuSans-53"/>
      </g>
     </g>
    </g>
    <g id="xtick_7">
     <g id="line2d_7">
      <g>
       <use style="stroke:#000000;stroke-width:0.8;" x="300.597209" xlink:href="#mf21c5d377f" y="273.312"/>
      </g>
     </g>
     <g id="text_7">
      <!-- 15.0 -->
      <g transform="translate(289.464396 287.910437)scale(0.1 -0.1)">
       <use xlink:href="#DejaVuSans-49"/>
       <use x="63.623047" xlink:href="#DejaVuSans-53"/>
       <use x="127.246094" xlink:href="#DejaVuSans-46"/>
       <use x="159.033203" xlink:href="#DejaVuSans-48"/>
      </g>
     </g>
    </g>
    <g id="xtick_8">
     <g id="line2d_8">
      <g>
       <use style="stroke:#000000;stroke-width:0.8;" x="341.382956" xlink:href="#mf21c5d377f" y="273.312"/>
      </g>
     </g>
     <g id="text_8">
      <!-- 17.5 -->
      <g transform="translate(330.250143 287.910437)scale(0.1 -0.1)">
       <use xlink:href="#DejaVuSans-49"/>
       <use x="63.623047" xlink:href="#DejaVuSans-55"/>
       <use x="127.246094" xlink:href="#DejaVuSans-46"/>
       <use x="159.033203" xlink:href="#DejaVuSans-53"/>
      </g>
     </g>
    </g>
    <g id="xtick_9">
     <g id="line2d_9">
      <g>
       <use style="stroke:#000000;stroke-width:0.8;" x="382.168703" xlink:href="#mf21c5d377f" y="273.312"/>
      </g>
     </g>
     <g id="text_9">
      <!-- 20.0 -->
      <g transform="translate(371.03589 287.910437)scale(0.1 -0.1)">
       <use xlink:href="#DejaVuSans-50"/>
       <use x="63.623047" xlink:href="#DejaVuSans-48"/>
       <use x="127.246094" xlink:href="#DejaVuSans-46"/>
       <use x="159.033203" xlink:href="#DejaVuSans-48"/>
      </g>
     </g>
    </g>
   </g>
   <g id="matplotlib.axis_2">
    <g id="ytick_1">
     <g id="line2d_10">
      <defs>
       <path d="M 0 0 
L -3.5 0 
" id="m03c81cd1f4" style="stroke:#000000;stroke-width:0.8;"/>
      </defs>
      <g>
       <use style="stroke:#000000;stroke-width:0.8;" x="39.65" xlink:href="#m03c81cd1f4" y="261.216"/>
      </g>
     </g>
     <g id="text_10">
      <!-- 0 -->
      <g transform="translate(26.2875 265.015219)scale(0.1 -0.1)">
       <use xlink:href="#DejaVuSans-48"/>
      </g>
     </g>
    </g>
    <g id="ytick_2">
     <g id="line2d_11">
      <g>
       <use style="stroke:#000000;stroke-width:0.8;" x="39.65" xlink:href="#m03c81cd1f4" y="220.989861"/>
      </g>
     </g>
     <g id="text_11">
      <!-- 500 -->
      <g transform="translate(13.5625 224.78908)scale(0.1 -0.1)">
       <use xlink:href="#DejaVuSans-53"/>
       <use x="63.623047" xlink:href="#DejaVuSans-48"/>
       <use x="127.246094" xlink:href="#DejaVuSans-48"/>
      </g>
     </g>
    </g>
    <g id="ytick_3">
     <g id="line2d_12">
      <g>
       <use style="stroke:#000000;stroke-width:0.8;" x="39.65" xlink:href="#m03c81cd1f4" y="180.763722"/>
      </g>
     </g>
     <g id="text_12">
      <!-- 1000 -->
      <g transform="translate(7.2 184.562941)scale(0.1 -0.1)">
       <use xlink:href="#DejaVuSans-49"/>
       <use x="63.623047" xlink:href="#DejaVuSans-48"/>
       <use x="127.246094" xlink:href="#DejaVuSans-48"/>
       <use x="190.869141" xlink:href="#DejaVuSans-48"/>
      </g>
     </g>
    </g>
    <g id="ytick_4">
     <g id="line2d_13">
      <g>
       <use style="stroke:#000000;stroke-width:0.8;" x="39.65" xlink:href="#m03c81cd1f4" y="140.537583"/>
      </g>
     </g>
     <g id="text_13">
      <!-- 1500 -->
      <g transform="translate(7.2 144.336802)scale(0.1 -0.1)">
       <use xlink:href="#DejaVuSans-49"/>
       <use x="63.623047" xlink:href="#DejaVuSans-53"/>
       <use x="127.246094" xlink:href="#DejaVuSans-48"/>
       <use x="190.869141" xlink:href="#DejaVuSans-48"/>
      </g>
     </g>
    </g>
    <g id="ytick_5">
     <g id="line2d_14">
      <g>
       <use style="stroke:#000000;stroke-width:0.8;" x="39.65" xlink:href="#m03c81cd1f4" y="100.311444"/>
      </g>
     </g>
     <g id="text_14">
      <!-- 2000 -->
      <g transform="translate(7.2 104.110663)scale(0.1 -0.1)">
       <use xlink:href="#DejaVuSans-50"/>
       <use x="63.623047" xlink:href="#DejaVuSans-48"/>
       <use x="127.246094" xlink:href="#DejaVuSans-48"/>
       <use x="190.869141" xlink:href="#DejaVuSans-48"/>
      </g>
     </g>
    </g>
    <g id="ytick_6">
     <g id="line2d_15">
      <g>
       <use style="stroke:#000000;stroke-width:0.8;" x="39.65" xlink:href="#m03c81cd1f4" y="60.085305"/>
      </g>
     </g>
     <g id="text_15">
      <!-- 2500 -->
      <g transform="translate(7.2 63.884524)scale(0.1 -0.1)">
       <use xlink:href="#DejaVuSans-50"/>
       <use x="63.623047" xlink:href="#DejaVuSans-53"/>
       <use x="127.246094" xlink:href="#DejaVuSans-48"/>
       <use x="190.869141" xlink:href="#DejaVuSans-48"/>
      </g>
     </g>
    </g>
    <g id="ytick_7">
     <g id="line2d_16">
      <g>
       <use style="stroke:#000000;stroke-width:0.8;" x="39.65" xlink:href="#m03c81cd1f4" y="19.859166"/>
      </g>
     </g>
     <g id="text_16">
      <!-- 3000 -->
      <g transform="translate(7.2 23.658385)scale(0.1 -0.1)">
       <defs>
        <path d="M 40.578125 39.3125 
Q 47.65625 37.796875 51.625 33 
Q 55.609375 28.21875 55.609375 21.1875 
Q 55.609375 10.40625 48.1875 4.484375 
Q 40.765625 -1.421875 27.09375 -1.421875 
Q 22.515625 -1.421875 17.65625 -0.515625 
Q 12.796875 0.390625 7.625 2.203125 
L 7.625 11.71875 
Q 11.71875 9.328125 16.59375 8.109375 
Q 21.484375 6.890625 26.8125 6.890625 
Q 36.078125 6.890625 40.9375 10.546875 
Q 45.796875 14.203125 45.796875 21.1875 
Q 45.796875 27.640625 41.28125 31.265625 
Q 36.765625 34.90625 28.71875 34.90625 
L 20.21875 34.90625 
L 20.21875 43.015625 
L 29.109375 43.015625 
Q 36.375 43.015625 40.234375 45.921875 
Q 44.09375 48.828125 44.09375 54.296875 
Q 44.09375 59.90625 40.109375 62.90625 
Q 36.140625 65.921875 28.71875 65.921875 
Q 24.65625 65.921875 20.015625 65.03125 
Q 15.375 64.15625 9.8125 62.3125 
L 9.8125 71.09375 
Q 15.4375 72.65625 20.34375 73.4375 
Q 25.25 74.21875 29.59375 74.21875 
Q 40.828125 74.21875 47.359375 69.109375 
Q 53.90625 64.015625 53.90625 55.328125 
Q 53.90625 49.265625 50.4375 45.09375 
Q 46.96875 40.921875 40.578125 39.3125 
z
" id="DejaVuSans-51"/>
       </defs>
       <use xlink:href="#DejaVuSans-51"/>
       <use x="63.623047" xlink:href="#DejaVuSans-48"/>
       <use x="127.246094" xlink:href="#DejaVuSans-48"/>
       <use x="190.869141" xlink:href="#DejaVuSans-48"/>
      </g>
     </g>
    </g>
   </g>
   <g id="line2d_17">
    <path clip-path="url(#p72b2c31fa2)" d="M 55.882727 261.216 
L 59.961302 241.10293 
L 64.039877 222.66528 
L 68.118451 205.763485 
L 72.197026 190.26961 
L 76.275601 176.066375 
L 80.354175 163.046269 
L 84.43275 151.110738 
L 88.511325 140.169437 
L 92.589899 130.139546 
L 96.668474 120.945145 
L 100.747049 112.516638 
L 104.825624 104.790225 
L 108.904198 97.707423 
L 112.982773 91.214618 
L 117.061348 85.262663 
L 121.139922 79.806507 
L 125.218497 74.804848 
L 129.297072 70.219828 
L 133.375646 66.016739 
L 137.454221 62.163768 
L 141.532796 58.63175 
L 145.61137 55.393948 
L 149.689945 52.425856 
L 153.76852 49.705005 
L 157.847095 47.210801 
L 161.925669 44.924365 
L 166.004244 42.828389 
L 170.082819 40.907007 
L 174.161393 39.145677 
L 178.239968 37.531065 
L 182.318543 36.050951 
L 186.397117 34.69413 
L 190.475692 33.450332 
L 194.554267 32.310143 
L 198.632841 31.264931 
L 202.711416 30.306786 
L 206.789991 29.428454 
L 210.868566 28.623287 
L 214.94714 27.88519 
L 219.025715 27.208577 
L 223.10429 26.588326 
L 227.182864 26.019742 
L 231.261439 25.498521 
L 235.340014 25.020717 
L 239.418588 24.582715 
L 243.497163 24.181198 
L 247.575738 23.813127 
L 251.654312 23.475717 
L 255.732887 23.166413 
L 259.811462 22.882874 
L 263.890037 22.622954 
L 267.968611 22.384685 
L 272.047186 22.166264 
L 276.125761 21.966038 
L 280.204335 21.78249 
L 284.28291 21.614232 
L 288.361485 21.45999 
L 292.440059 21.318596 
L 296.518634 21.18898 
L 300.597209 21.070161 
L 304.675783 20.96124 
L 308.754358 20.861392 
L 312.832933 20.769862 
L 316.911508 20.685955 
L 320.990082 20.609039 
L 325.068657 20.538529 
L 329.147232 20.473893 
L 333.225806 20.414641 
L 337.304381 20.360325 
L 341.382956 20.310533 
L 345.46153 20.264889 
L 349.540105 20.223047 
L 353.61868 20.18469 
L 357.697254 20.149529 
L 361.775829 20.117296 
L 365.854404 20.087749 
L 369.932979 20.060663 
L 374.011553 20.035833 
L 378.090128 20.013071 
" style="fill:none;stroke:#1f77b4;stroke-linecap:square;stroke-width:1.5;"/>
   </g>
   <g id="line2d_18">
    <path clip-path="url(#p72b2c31fa2)" d="M 55.882727 261.216 
L 59.961302 261.216 
L 64.039877 259.540581 
L 68.118451 256.608599 
L 72.197026 252.757458 
L 76.275601 248.257663 
L 80.354175 243.324854 
L 84.43275 238.129769 
L 88.511325 232.806476 
L 92.589899 227.459165 
L 96.668474 222.16776 
L 100.747049 216.99254 
L 104.825624 211.977934 
L 108.904198 207.155652 
L 112.982773 202.547248 
L 117.061348 198.166214 
L 121.139922 194.0197 
L 125.218497 190.109913 
L 129.297072 186.435248 
L 133.375646 182.991219 
L 137.454221 179.771191 
L 141.532796 176.76699 
L 145.61137 173.969372 
L 149.689945 171.368408 
L 153.76852 168.953782 
L 157.847095 166.715028 
L 161.925669 164.641707 
L 166.004244 162.723549 
L 170.082819 160.950552 
L 174.161393 159.313063 
L 178.239968 157.801825 
L 182.318543 156.408013 
L 186.397117 155.123256 
L 190.475692 153.939644 
L 194.554267 152.849733 
L 198.632841 151.846532 
L 202.711416 150.923498 
L 206.789991 150.07452 
L 210.868566 149.293903 
L 214.94714 148.576343 
L 219.025715 147.916918 
L 223.10429 147.311056 
L 227.182864 146.754525 
L 231.261439 146.243405 
L 235.340014 145.77407 
L 239.418588 145.343173 
L 243.497163 144.947621 
L 247.575738 144.58456 
L 251.654312 144.251362 
L 255.732887 143.945602 
L 259.811462 143.665046 
L 263.890037 143.407641 
L 267.968611 143.171494 
L 272.047186 142.954864 
L 276.125761 142.756153 
L 280.204335 142.573887 
L 284.28291 142.406716 
L 288.361485 142.253397 
L 292.440059 142.112787 
L 296.518634 141.983839 
L 300.597209 141.865589 
L 304.675783 141.757154 
L 308.754358 141.657723 
L 312.832933 141.566549 
L 316.911508 141.482949 
L 320.990082 141.406296 
L 325.068657 141.336014 
L 329.147232 141.271574 
L 333.225806 141.212492 
L 337.304381 141.158324 
L 341.382956 141.108661 
L 345.46153 141.063129 
L 349.540105 141.021385 
L 353.61868 140.983114 
L 357.697254 140.948028 
L 361.775829 140.915862 
L 365.854404 140.886373 
L 369.932979 140.859338 
L 374.011553 140.834554 
L 378.090128 140.811833 
" style="fill:none;stroke:#ff7f0e;stroke-linecap:square;stroke-width:1.5;"/>
   </g>
   <g id="line2d_19">
    <path clip-path="url(#p72b2c31fa2)" d="M 55.882727 261.216 
L 59.145587 243.838308 
L 60.777017 237.241221 
L 62.408447 229.920064 
L 64.039877 221.794384 
L 65.671307 215.358202 
L 67.302736 208.037044 
L 70.565596 196.93463 
L 72.197026 191.785684 
L 73.828456 185.027693 
L 75.459886 178.91332 
L 77.091316 172.235781 
L 78.722746 166.765026 
L 80.354175 163.225125 
L 85.248465 149.870047 
L 86.879895 144.560197 
L 88.511325 139.893965 
L 90.142755 135.710446 
L 91.774185 132.250998 
L 93.405614 127.584766 
L 95.037044 124.849389 
L 96.668474 121.872654 
L 98.299904 118.252302 
L 99.931334 114.068784 
L 101.562764 111.735667 
L 103.194194 111.092049 
L 104.825624 108.517576 
L 106.457053 107.310792 
L 108.088483 104.575415 
L 109.719913 102.322751 
L 111.351343 100.472349 
L 112.982773 96.932448 
L 114.614203 94.357975 
L 116.245633 94.51888 
L 117.877063 90.335361 
L 119.508492 88.967673 
L 121.139922 87.197723 
L 122.771352 83.818727 
L 124.402782 82.772847 
L 126.034212 80.439731 
L 127.665642 78.830686 
L 129.297072 77.784806 
L 130.928502 73.68174 
L 132.559931 72.796765 
L 134.191361 71.509528 
L 135.822791 68.854603 
L 140.717081 62.981587 
L 142.348511 60.085305 
L 143.979941 59.441687 
L 145.61137 58.234903 
L 147.2428 55.419073 
L 148.87423 52.361886 
L 150.50566 51.155102 
L 152.13709 50.511484 
L 153.76852 49.465604 
L 155.39995 47.373845 
L 157.03138 47.695654 
L 160.294239 45.684347 
L 161.925669 43.512136 
L 163.557099 45.764799 
L 165.188529 46.48887 
L 166.819959 46.086609 
L 168.451389 45.44299 
L 170.082819 43.512136 
L 171.714249 44.477563 
L 173.345678 43.029422 
L 174.977108 42.466256 
L 176.608538 41.500829 
L 178.239968 42.788065 
L 179.871398 42.707613 
L 181.502828 40.696306 
L 183.134258 39.40907 
L 184.765688 37.397763 
L 186.397117 36.432335 
L 188.028547 34.903742 
L 189.659977 34.501481 
L 191.291407 34.260124 
L 192.922837 34.260124 
L 194.554267 34.421028 
L 196.185697 34.018767 
L 197.817127 31.444294 
L 199.448556 30.639771 
L 202.711416 31.122485 
L 204.342846 29.513439 
L 205.974276 27.663037 
L 207.605706 27.42168 
L 209.237136 27.42168 
L 210.868566 26.536705 
L 212.499995 24.60585 
L 214.131425 25.008112 
L 215.762855 24.042684 
L 217.394285 25.571278 
L 219.025715 25.169016 
L 220.657145 27.582585 
L 222.288575 29.19163 
L 223.920005 28.628464 
L 225.551434 27.099871 
L 227.182864 23.399066 
L 228.814294 22.755448 
L 230.445724 24.203589 
L 232.077154 26.214896 
L 233.708584 26.938966 
L 235.340014 24.444946 
L 236.971444 26.134444 
L 238.602873 23.399066 
L 240.234303 23.640423 
L 241.865733 24.203589 
L 245.128593 23.801328 
L 248.391453 25.169016 
L 250.022883 24.444946 
L 251.654312 25.490825 
L 253.285742 24.284041 
L 254.917172 24.927659 
L 256.548602 25.088564 
L 258.180032 23.238162 
L 259.811462 23.318614 
L 261.442892 22.272734 
L 263.074322 21.709568 
L 264.705751 20.422332 
L 267.968611 19.456905 
L 269.600041 19.296 
L 271.231471 19.698261 
L 272.862901 19.698261 
L 274.494331 19.859166 
L 276.125761 21.548664 
L 277.75719 21.629116 
L 279.38862 23.720875 
L 281.02005 24.123137 
L 282.65148 24.847207 
L 284.28291 22.8359 
L 285.91434 21.468212 
L 289.1772 24.686303 
L 290.80863 23.962232 
L 292.440059 23.88178 
L 294.071489 24.444946 
L 295.702919 24.203589 
L 297.334349 23.318614 
L 298.965779 24.686303 
L 300.597209 24.847207 
L 302.228639 25.973539 
L 303.860069 25.490825 
L 305.491498 26.053991 
L 307.122928 27.260776 
L 308.754358 27.180323 
L 310.385788 26.214896 
L 312.017218 26.858514 
L 313.648648 26.938966 
L 315.280078 28.46756 
L 316.911508 29.593892 
L 318.542937 30.881128 
L 320.174367 31.927008 
L 321.805797 30.317962 
L 323.437227 29.513439 
L 325.068657 30.478867 
L 326.700087 29.111178 
L 328.331517 30.23751 
L 329.962947 28.548012 
L 331.594376 27.260776 
L 333.225806 27.984846 
L 334.857236 29.272082 
L 336.488666 29.272082 
L 338.120096 28.46756 
L 339.751526 27.260776 
L 341.382956 25.893087 
L 343.014386 26.69761 
L 344.645815 26.456253 
L 346.277245 27.502132 
L 347.908675 24.847207 
L 349.540105 25.732182 
L 351.171535 25.65173 
L 352.802965 24.60585 
L 354.434395 27.099871 
L 356.065825 26.134444 
L 357.697254 24.444946 
L 359.328684 23.077257 
L 360.960114 22.8359 
L 362.591544 23.399066 
L 364.222974 24.284041 
L 365.854404 24.766755 
L 367.485834 24.203589 
L 369.117264 24.525398 
L 370.748693 26.3758 
L 372.380123 26.134444 
L 374.011553 24.686303 
L 375.642983 25.571278 
L 377.274413 24.927659 
L 378.905843 22.272734 
L 380.537273 23.801328 
L 380.537273 23.801328 
" style="fill:none;stroke:#2ca02c;stroke-linecap:square;stroke-width:1.5;"/>
   </g>
   <g id="line2d_20">
    <path clip-path="url(#p72b2c31fa2)" d="M 55.882727 261.216 
L 57.514157 261.216 
L 59.145587 260.974643 
L 60.777017 260.331025 
L 65.671307 257.273838 
L 67.302736 255.584341 
L 70.565596 252.446702 
L 72.197026 250.596299 
L 73.828456 250.033133 
L 75.459886 248.745897 
L 77.091316 247.297756 
L 78.722746 245.608258 
L 80.354175 242.551071 
L 81.985605 241.987906 
L 83.617035 239.091624 
L 85.248465 237.723935 
L 86.879895 235.310366 
L 90.142755 229.920064 
L 91.774185 227.747852 
L 93.405614 226.460616 
L 95.037044 224.207952 
L 96.668474 221.553027 
L 98.299904 218.49584 
L 99.931334 216.72589 
L 101.562764 212.864181 
L 103.194194 210.450613 
L 104.825624 209.082924 
L 106.457053 206.025737 
L 108.088483 205.06031 
L 109.719913 203.612169 
L 111.351343 200.47453 
L 112.982773 198.945937 
L 114.614203 196.693273 
L 116.245633 195.325584 
L 117.877063 194.601514 
L 119.508492 191.866136 
L 121.139922 189.53302 
L 122.771352 189.130759 
L 124.402782 187.76307 
L 126.034212 187.441261 
L 127.665642 186.958547 
L 129.297072 185.832215 
L 130.928502 186.717191 
L 132.559931 184.464527 
L 134.191361 183.660004 
L 135.822791 182.292315 
L 137.454221 181.729149 
L 139.085651 180.281008 
L 140.717081 178.59151 
L 142.348511 178.430606 
L 143.979941 176.660656 
L 145.61137 175.695228 
L 147.2428 174.971158 
L 148.87423 174.729801 
L 150.50566 174.247087 
L 152.13709 172.718494 
L 153.76852 171.913971 
L 155.39995 171.913971 
L 157.03138 170.224474 
L 158.66281 169.419951 
L 160.294239 168.776333 
L 161.925669 167.167287 
L 163.557099 164.834171 
L 165.188529 165.316885 
L 166.819959 164.029648 
L 168.451389 162.581507 
L 170.082819 160.811557 
L 171.714249 159.926582 
L 173.345678 159.282964 
L 174.977108 160.409296 
L 176.608538 159.926582 
L 178.239968 158.237084 
L 179.871398 157.834823 
L 181.502828 157.75437 
L 183.134258 157.915275 
L 184.765688 156.869395 
L 186.397117 155.099445 
L 188.028547 155.340802 
L 189.659977 157.0303 
L 191.291407 156.547586 
L 192.922837 155.743064 
L 194.554267 155.662611 
L 196.185697 152.685877 
L 197.817127 153.570852 
L 199.448556 154.053566 
L 201.079986 153.409947 
L 202.711416 153.409947 
L 204.342846 151.639997 
L 205.974276 152.927234 
L 207.605706 151.559545 
L 209.237136 150.594118 
L 210.868566 152.122711 
L 212.499995 152.283616 
L 214.131425 150.835475 
L 215.762855 151.881354 
L 217.394285 150.835475 
L 219.025715 150.111404 
L 220.657145 148.985072 
L 222.288575 148.824168 
L 223.920005 148.824168 
L 225.551434 146.893313 
L 227.182864 148.90462 
L 228.814294 149.789595 
L 230.445724 149.62869 
L 232.077154 146.249695 
L 233.708584 144.560197 
L 235.340014 144.721101 
L 236.971444 143.836126 
L 238.602873 146.008338 
L 240.234303 146.410599 
L 241.865733 144.399292 
L 243.497163 145.123363 
L 245.128593 146.732408 
L 246.760023 145.203815 
L 248.391453 143.997031 
L 250.022883 144.157935 
L 251.654312 143.433865 
L 253.285742 143.27296 
L 254.917172 141.905272 
L 256.548602 141.422558 
L 258.180032 141.422558 
L 259.811462 140.457131 
L 261.442892 141.100749 
L 263.074322 141.905272 
L 264.705751 143.27296 
L 266.337181 144.238388 
L 269.600041 144.801554 
L 271.231471 143.675222 
L 272.862901 145.445172 
L 276.125761 144.479745 
L 277.75719 144.962458 
L 279.38862 143.031604 
L 281.02005 142.387985 
L 282.65148 142.629342 
L 284.28291 144.077483 
L 285.91434 144.31884 
L 287.54577 143.031604 
L 289.1772 144.399292 
L 290.80863 145.042911 
L 292.440059 144.479745 
L 294.071489 143.353413 
L 295.702919 143.514317 
L 297.334349 145.36472 
L 298.965779 143.112056 
L 300.597209 142.709794 
L 302.228639 142.629342 
L 303.860069 141.905272 
L 307.122928 139.411251 
L 308.754358 138.848085 
L 310.385788 138.043562 
L 312.017218 137.721753 
L 313.648648 136.675874 
L 315.280078 134.825471 
L 316.911508 134.986376 
L 318.542937 134.181853 
L 320.174367 134.986376 
L 321.805797 136.032255 
L 323.437227 136.756326 
L 325.068657 135.549542 
L 326.700087 137.560849 
L 328.331517 136.595421 
L 329.962947 136.756326 
L 331.594376 136.675874 
L 334.857236 136.273612 
L 336.488666 137.319492 
L 338.120096 138.124015 
L 339.751526 139.572156 
L 341.382956 139.893965 
L 343.014386 139.491703 
L 344.645815 141.020297 
L 346.277245 139.00899 
L 347.908675 139.491703 
L 349.540105 140.376678 
L 351.171535 139.250347 
L 352.802965 139.73306 
L 354.434395 138.124015 
L 356.065825 139.491703 
L 357.697254 142.146629 
L 359.328684 141.663915 
L 360.960114 141.985724 
L 362.591544 141.744367 
L 364.222974 140.537583 
L 365.854404 139.491703 
L 367.485834 139.089442 
L 369.117264 138.526276 
L 370.748693 138.365371 
L 372.380123 138.365371 
L 374.011553 140.215774 
L 375.642983 141.50301 
L 377.274413 141.261653 
L 378.905843 142.227081 
L 380.537273 140.859392 
L 380.537273 140.859392 
" style="fill:none;stroke:#d62728;stroke-linecap:square;stroke-width:1.5;"/>
   </g>
   <g id="patch_3">
    <path d="M 39.65 273.312 
L 39.65 7.2 
" style="fill:none;stroke:#000000;stroke-linecap:square;stroke-linejoin:miter;stroke-width:0.8;"/>
   </g>
   <g id="patch_4">
    <path d="M 396.77 273.312 
L 396.77 7.2 
" style="fill:none;stroke:#000000;stroke-linecap:square;stroke-linejoin:miter;stroke-width:0.8;"/>
   </g>
   <g id="patch_5">
    <path d="M 39.65 273.312 
L 396.77 273.312 
" style="fill:none;stroke:#000000;stroke-linecap:square;stroke-linejoin:miter;stroke-width:0.8;"/>
   </g>
   <g id="patch_6">
    <path d="M 39.65 7.2 
L 396.77 7.2 
" style="fill:none;stroke:#000000;stroke-linecap:square;stroke-linejoin:miter;stroke-width:0.8;"/>
   </g>
  </g>
 </g>
 <defs>
  <clipPath id="p72b2c31fa2">
   <rect height="266.112" width="357.12" x="39.65" y="7.2"/>
  </clipPath>
 </defs>
</svg>
