<?xml version="1.0" encoding="utf-8" standalone="no"?>
<!DOCTYPE svg PUBLIC "-//W3C//DTD SVG 1.1//EN"
  "http://www.w3.org/Graphics/SVG/1.1/DTD/svg11.dtd">
<!-- Created with matplotlib (https://matplotlib.org/) -->
<svg height="297.190125pt" version="1.1" viewBox="0 0 403.97 297.190125" width="403.97pt" xmlns="http://www.w3.org/2000/svg" xmlns:xlink="http://www.w3.org/1999/xlink">
 <metadata>
  <rdf:RDF xmlns:cc="http://creativecommons.org/ns#" xmlns:dc="http://purl.org/dc/elements/1.1/" xmlns:rdf="http://www.w3.org/1999/02/22-rdf-syntax-ns#">
   <cc:Work>
    <dc:type rdf:resource="http://purl.org/dc/dcmitype/StillImage"/>
    <dc:date>2021-03-12T00:04:46.996742</dc:date>
    <dc:format>image/svg+xml</dc:format>
    <dc:creator>
     <cc:Agent>
      <dc:title>Matplotlib v3.3.4, https://matplotlib.org/</dc:title>
     </cc:Agent>
    </dc:creator>
   </cc:Work>
  </rdf:RDF>
 </metadata>
 <defs>
  <style type="text/css">*{stroke-linecap:butt;stroke-linejoin:round;}</style>
 </defs>
 <g id="figure_1">
  <g id="patch_1">
   <path d="M 0 297.190125 
L 403.97 297.190125 
L 403.97 0 
L 0 0 
z
" style="fill:#ffffff;"/>
  </g>
  <g id="axes_1">
   <g id="patch_2">
    <path d="M 39.65 273.312 
L 396.77 273.312 
L 396.77 7.2 
L 39.65 7.2 
z
" style="fill:#ffffff;"/>
   </g>
   <g id="matplotlib.axis_1">
    <g id="xtick_1">
     <g id="line2d_1">
      <defs>
       <path d="M 0 0 
L 0 3.5 
" id="m5fd77367c6" style="stroke:#000000;stroke-width:0.8;"/>
      </defs>
      <g>
       <use style="stroke:#000000;stroke-width:0.8;" x="55.882727" xlink:href="#m5fd77367c6" y="273.312"/>
      </g>
     </g>
     <g id="text_1">
      <!-- 0.0 -->
      <g transform="translate(47.931165 287.910437)scale(0.1 -0.1)">
       <defs>
        <path d="M 31.78125 66.40625 
Q 24.171875 66.40625 20.328125 58.90625 
Q 16.5 51.421875 16.5 36.375 
Q 16.5 21.390625 20.328125 13.890625 
Q 24.171875 6.390625 31.78125 6.390625 
Q 39.453125 6.390625 43.28125 13.890625 
Q 47.125 21.390625 47.125 36.375 
Q 47.125 51.421875 43.28125 58.90625 
Q 39.453125 66.40625 31.78125 66.40625 
z
M 31.78125 74.21875 
Q 44.046875 74.21875 50.515625 64.515625 
Q 56.984375 54.828125 56.984375 36.375 
Q 56.984375 17.96875 50.515625 8.265625 
Q 44.046875 -1.421875 31.78125 -1.421875 
Q 19.53125 -1.421875 13.0625 8.265625 
Q 6.59375 17.96875 6.59375 36.375 
Q 6.59375 54.828125 13.0625 64.515625 
Q 19.53125 74.21875 31.78125 74.21875 
z
" id="DejaVuSans-48"/>
        <path d="M 10.6875 12.40625 
L 21 12.40625 
L 21 0 
L 10.6875 0 
z
" id="DejaVuSans-46"/>
       </defs>
       <use xlink:href="#DejaVuSans-48"/>
       <use x="63.623047" xlink:href="#DejaVuSans-46"/>
       <use x="95.410156" xlink:href="#DejaVuSans-48"/>
      </g>
     </g>
    </g>
    <g id="xtick_2">
     <g id="line2d_2">
      <g>
       <use style="stroke:#000000;stroke-width:0.8;" x="96.668474" xlink:href="#m5fd77367c6" y="273.312"/>
      </g>
     </g>
     <g id="text_2">
      <!-- 2.5 -->
      <g transform="translate(88.716912 287.910437)scale(0.1 -0.1)">
       <defs>
        <path d="M 19.1875 8.296875 
L 53.609375 8.296875 
L 53.609375 0 
L 7.328125 0 
L 7.328125 8.296875 
Q 12.9375 14.109375 22.625 23.890625 
Q 32.328125 33.6875 34.8125 36.53125 
Q 39.546875 41.84375 41.421875 45.53125 
Q 43.3125 49.21875 43.3125 52.78125 
Q 43.3125 58.59375 39.234375 62.25 
Q 35.15625 65.921875 28.609375 65.921875 
Q 23.96875 65.921875 18.8125 64.3125 
Q 13.671875 62.703125 7.8125 59.421875 
L 7.8125 69.390625 
Q 13.765625 71.78125 18.9375 73 
Q 24.125 74.21875 28.421875 74.21875 
Q 39.75 74.21875 46.484375 68.546875 
Q 53.21875 62.890625 53.21875 53.421875 
Q 53.21875 48.921875 51.53125 44.890625 
Q 49.859375 40.875 45.40625 35.40625 
Q 44.1875 33.984375 37.640625 27.21875 
Q 31.109375 20.453125 19.1875 8.296875 
z
" id="DejaVuSans-50"/>
        <path d="M 10.796875 72.90625 
L 49.515625 72.90625 
L 49.515625 64.59375 
L 19.828125 64.59375 
L 19.828125 46.734375 
Q 21.96875 47.46875 24.109375 47.828125 
Q 26.265625 48.1875 28.421875 48.1875 
Q 40.625 48.1875 47.75 41.5 
Q 54.890625 34.8125 54.890625 23.390625 
Q 54.890625 11.625 47.5625 5.09375 
Q 40.234375 -1.421875 26.90625 -1.421875 
Q 22.3125 -1.421875 17.546875 -0.640625 
Q 12.796875 0.140625 7.71875 1.703125 
L 7.71875 11.625 
Q 12.109375 9.234375 16.796875 8.0625 
Q 21.484375 6.890625 26.703125 6.890625 
Q 35.15625 6.890625 40.078125 11.328125 
Q 45.015625 15.765625 45.015625 23.390625 
Q 45.015625 31 40.078125 35.4375 
Q 35.15625 39.890625 26.703125 39.890625 
Q 22.75 39.890625 18.8125 39.015625 
Q 14.890625 38.140625 10.796875 36.28125 
z
" id="DejaVuSans-53"/>
       </defs>
       <use xlink:href="#DejaVuSans-50"/>
       <use x="63.623047" xlink:href="#DejaVuSans-46"/>
       <use x="95.410156" xlink:href="#DejaVuSans-53"/>
      </g>
     </g>
    </g>
    <g id="xtick_3">
     <g id="line2d_3">
      <g>
       <use style="stroke:#000000;stroke-width:0.8;" x="137.454221" xlink:href="#m5fd77367c6" y="273.312"/>
      </g>
     </g>
     <g id="text_3">
      <!-- 5.0 -->
      <g transform="translate(129.502659 287.910437)scale(0.1 -0.1)">
       <use xlink:href="#DejaVuSans-53"/>
       <use x="63.623047" xlink:href="#DejaVuSans-46"/>
       <use x="95.410156" xlink:href="#DejaVuSans-48"/>
      </g>
     </g>
    </g>
    <g id="xtick_4">
     <g id="line2d_4">
      <g>
       <use style="stroke:#000000;stroke-width:0.8;" x="178.239968" xlink:href="#m5fd77367c6" y="273.312"/>
      </g>
     </g>
     <g id="text_4">
      <!-- 7.5 -->
      <g transform="translate(170.288406 287.910437)scale(0.1 -0.1)">
       <defs>
        <path d="M 8.203125 72.90625 
L 55.078125 72.90625 
L 55.078125 68.703125 
L 28.609375 0 
L 18.3125 0 
L 43.21875 64.59375 
L 8.203125 64.59375 
z
" id="DejaVuSans-55"/>
       </defs>
       <use xlink:href="#DejaVuSans-55"/>
       <use x="63.623047" xlink:href="#DejaVuSans-46"/>
       <use x="95.410156" xlink:href="#DejaVuSans-53"/>
      </g>
     </g>
    </g>
    <g id="xtick_5">
     <g id="line2d_5">
      <g>
       <use style="stroke:#000000;stroke-width:0.8;" x="219.025715" xlink:href="#m5fd77367c6" y="273.312"/>
      </g>
     </g>
     <g id="text_5">
      <!-- 10.0 -->
      <g transform="translate(207.892902 287.910437)scale(0.1 -0.1)">
       <defs>
        <path d="M 12.40625 8.296875 
L 28.515625 8.296875 
L 28.515625 63.921875 
L 10.984375 60.40625 
L 10.984375 69.390625 
L 28.421875 72.90625 
L 38.28125 72.90625 
L 38.28125 8.296875 
L 54.390625 8.296875 
L 54.390625 0 
L 12.40625 0 
z
" id="DejaVuSans-49"/>
       </defs>
       <use xlink:href="#DejaVuSans-49"/>
       <use x="63.623047" xlink:href="#DejaVuSans-48"/>
       <use x="127.246094" xlink:href="#DejaVuSans-46"/>
       <use x="159.033203" xlink:href="#DejaVuSans-48"/>
      </g>
     </g>
    </g>
    <g id="xtick_6">
     <g id="line2d_6">
      <g>
       <use style="stroke:#000000;stroke-width:0.8;" x="259.811462" xlink:href="#m5fd77367c6" y="273.312"/>
      </g>
     </g>
     <g id="text_6">
      <!-- 12.5 -->
      <g transform="translate(248.678649 287.910437)scale(0.1 -0.1)">
       <use xlink:href="#DejaVuSans-49"/>
       <use x="63.623047" xlink:href="#DejaVuSans-50"/>
       <use x="127.246094" xlink:href="#DejaVuSans-46"/>
       <use x="159.033203" xlink:href="#DejaVuSans-53"/>
      </g>
     </g>
    </g>
    <g id="xtick_7">
     <g id="line2d_7">
      <g>
       <use style="stroke:#000000;stroke-width:0.8;" x="300.597209" xlink:href="#m5fd77367c6" y="273.312"/>
      </g>
     </g>
     <g id="text_7">
      <!-- 15.0 -->
      <g transform="translate(289.464396 287.910437)scale(0.1 -0.1)">
       <use xlink:href="#DejaVuSans-49"/>
       <use x="63.623047" xlink:href="#DejaVuSans-53"/>
       <use x="127.246094" xlink:href="#DejaVuSans-46"/>
       <use x="159.033203" xlink:href="#DejaVuSans-48"/>
      </g>
     </g>
    </g>
    <g id="xtick_8">
     <g id="line2d_8">
      <g>
       <use style="stroke:#000000;stroke-width:0.8;" x="341.382956" xlink:href="#m5fd77367c6" y="273.312"/>
      </g>
     </g>
     <g id="text_8">
      <!-- 17.5 -->
      <g transform="translate(330.250143 287.910437)scale(0.1 -0.1)">
       <use xlink:href="#DejaVuSans-49"/>
       <use x="63.623047" xlink:href="#DejaVuSans-55"/>
       <use x="127.246094" xlink:href="#DejaVuSans-46"/>
       <use x="159.033203" xlink:href="#DejaVuSans-53"/>
      </g>
     </g>
    </g>
    <g id="xtick_9">
     <g id="line2d_9">
      <g>
       <use style="stroke:#000000;stroke-width:0.8;" x="382.168703" xlink:href="#m5fd77367c6" y="273.312"/>
      </g>
     </g>
     <g id="text_9">
      <!-- 20.0 -->
      <g transform="translate(371.03589 287.910437)scale(0.1 -0.1)">
       <use xlink:href="#DejaVuSans-50"/>
       <use x="63.623047" xlink:href="#DejaVuSans-48"/>
       <use x="127.246094" xlink:href="#DejaVuSans-46"/>
       <use x="159.033203" xlink:href="#DejaVuSans-48"/>
      </g>
     </g>
    </g>
   </g>
   <g id="matplotlib.axis_2">
    <g id="ytick_1">
     <g id="line2d_10">
      <defs>
       <path d="M 0 0 
L -3.5 0 
" id="m0f829a5fc2" style="stroke:#000000;stroke-width:0.8;"/>
      </defs>
      <g>
       <use style="stroke:#000000;stroke-width:0.8;" x="39.65" xlink:href="#m0f829a5fc2" y="261.216"/>
      </g>
     </g>
     <g id="text_10">
      <!-- 0 -->
      <g transform="translate(26.2875 265.015219)scale(0.1 -0.1)">
       <use xlink:href="#DejaVuSans-48"/>
      </g>
     </g>
    </g>
    <g id="ytick_2">
     <g id="line2d_11">
      <g>
       <use style="stroke:#000000;stroke-width:0.8;" x="39.65" xlink:href="#m0f829a5fc2" y="222.545923"/>
      </g>
     </g>
     <g id="text_11">
      <!-- 500 -->
      <g transform="translate(13.5625 226.345142)scale(0.1 -0.1)">
       <use xlink:href="#DejaVuSans-53"/>
       <use x="63.623047" xlink:href="#DejaVuSans-48"/>
       <use x="127.246094" xlink:href="#DejaVuSans-48"/>
      </g>
     </g>
    </g>
    <g id="ytick_3">
     <g id="line2d_12">
      <g>
       <use style="stroke:#000000;stroke-width:0.8;" x="39.65" xlink:href="#m0f829a5fc2" y="183.875847"/>
      </g>
     </g>
     <g id="text_12">
      <!-- 1000 -->
      <g transform="translate(7.2 187.675065)scale(0.1 -0.1)">
       <use xlink:href="#DejaVuSans-49"/>
       <use x="63.623047" xlink:href="#DejaVuSans-48"/>
       <use x="127.246094" xlink:href="#DejaVuSans-48"/>
       <use x="190.869141" xlink:href="#DejaVuSans-48"/>
      </g>
     </g>
    </g>
    <g id="ytick_4">
     <g id="line2d_13">
      <g>
       <use style="stroke:#000000;stroke-width:0.8;" x="39.65" xlink:href="#m0f829a5fc2" y="145.20577"/>
      </g>
     </g>
     <g id="text_13">
      <!-- 1500 -->
      <g transform="translate(7.2 149.004989)scale(0.1 -0.1)">
       <use xlink:href="#DejaVuSans-49"/>
       <use x="63.623047" xlink:href="#DejaVuSans-53"/>
       <use x="127.246094" xlink:href="#DejaVuSans-48"/>
       <use x="190.869141" xlink:href="#DejaVuSans-48"/>
      </g>
     </g>
    </g>
    <g id="ytick_5">
     <g id="line2d_14">
      <g>
       <use style="stroke:#000000;stroke-width:0.8;" x="39.65" xlink:href="#m0f829a5fc2" y="106.535693"/>
      </g>
     </g>
     <g id="text_14">
      <!-- 2000 -->
      <g transform="translate(7.2 110.334912)scale(0.1 -0.1)">
       <use xlink:href="#DejaVuSans-50"/>
       <use x="63.623047" xlink:href="#DejaVuSans-48"/>
       <use x="127.246094" xlink:href="#DejaVuSans-48"/>
       <use x="190.869141" xlink:href="#DejaVuSans-48"/>
      </g>
     </g>
    </g>
    <g id="ytick_6">
     <g id="line2d_15">
      <g>
       <use style="stroke:#000000;stroke-width:0.8;" x="39.65" xlink:href="#m0f829a5fc2" y="67.865616"/>
      </g>
     </g>
     <g id="text_15">
      <!-- 2500 -->
      <g transform="translate(7.2 71.664835)scale(0.1 -0.1)">
       <use xlink:href="#DejaVuSans-50"/>
       <use x="63.623047" xlink:href="#DejaVuSans-53"/>
       <use x="127.246094" xlink:href="#DejaVuSans-48"/>
       <use x="190.869141" xlink:href="#DejaVuSans-48"/>
      </g>
     </g>
    </g>
    <g id="ytick_7">
     <g id="line2d_16">
      <g>
       <use style="stroke:#000000;stroke-width:0.8;" x="39.65" xlink:href="#m0f829a5fc2" y="29.19554"/>
      </g>
     </g>
     <g id="text_16">
      <!-- 3000 -->
      <g transform="translate(7.2 32.994758)scale(0.1 -0.1)">
       <defs>
        <path d="M 40.578125 39.3125 
Q 47.65625 37.796875 51.625 33 
Q 55.609375 28.21875 55.609375 21.1875 
Q 55.609375 10.40625 48.1875 4.484375 
Q 40.765625 -1.421875 27.09375 -1.421875 
Q 22.515625 -1.421875 17.65625 -0.515625 
Q 12.796875 0.390625 7.625 2.203125 
L 7.625 11.71875 
Q 11.71875 9.328125 16.59375 8.109375 
Q 21.484375 6.890625 26.8125 6.890625 
Q 36.078125 6.890625 40.9375 10.546875 
Q 45.796875 14.203125 45.796875 21.1875 
Q 45.796875 27.640625 41.28125 31.265625 
Q 36.765625 34.90625 28.71875 34.90625 
L 20.21875 34.90625 
L 20.21875 43.015625 
L 29.109375 43.015625 
Q 36.375 43.015625 40.234375 45.921875 
Q 44.09375 48.828125 44.09375 54.296875 
Q 44.09375 59.90625 40.109375 62.90625 
Q 36.140625 65.921875 28.71875 65.921875 
Q 24.65625 65.921875 20.015625 65.03125 
Q 15.375 64.15625 9.8125 62.3125 
L 9.8125 71.09375 
Q 15.4375 72.65625 20.34375 73.4375 
Q 25.25 74.21875 29.59375 74.21875 
Q 40.828125 74.21875 47.359375 69.109375 
Q 53.90625 64.015625 53.90625 55.328125 
Q 53.90625 49.265625 50.4375 45.09375 
Q 46.96875 40.921875 40.578125 39.3125 
z
" id="DejaVuSans-51"/>
       </defs>
       <use xlink:href="#DejaVuSans-51"/>
       <use x="63.623047" xlink:href="#DejaVuSans-48"/>
       <use x="127.246094" xlink:href="#DejaVuSans-48"/>
       <use x="190.869141" xlink:href="#DejaVuSans-48"/>
      </g>
     </g>
    </g>
   </g>
   <g id="line2d_17">
    <path clip-path="url(#p507b542925)" d="M 55.882727 261.216 
L 59.961302 241.880962 
L 64.039877 224.092726 
L 68.118451 207.72755 
L 72.197026 192.671588 
L 76.275601 178.820102 
L 80.354175 166.076736 
L 84.43275 154.352838 
L 88.511325 143.566853 
L 92.589899 133.643746 
L 96.668474 124.514488 
L 100.747049 116.115571 
L 104.825624 108.388567 
L 108.904198 101.279723 
L 112.982773 94.739587 
L 117.061348 88.722662 
L 121.139922 83.18709 
L 125.218497 78.094365 
L 129.297072 73.409057 
L 133.375646 69.098574 
L 137.454221 65.13293 
L 141.532796 61.484537 
L 145.61137 58.128016 
L 149.689945 55.040016 
L 153.76852 52.199057 
L 157.847095 49.585374 
L 161.925669 47.180785 
L 166.004244 44.968564 
L 170.082819 42.933321 
L 174.161393 41.060897 
L 178.239968 39.338267 
L 182.318543 37.753447 
L 186.397117 36.295413 
L 190.475692 34.954021 
L 194.554267 33.719941 
L 198.632841 32.584588 
L 202.711416 31.540062 
L 206.789991 30.579099 
L 210.868566 29.695013 
L 214.94714 28.881653 
L 219.025715 28.133363 
L 223.10429 27.444935 
L 227.182864 26.811582 
L 231.261439 26.228897 
L 235.340014 25.692827 
L 239.418588 25.199643 
L 243.497163 24.745913 
L 247.575738 24.328481 
L 251.654312 23.944444 
L 255.732887 23.591131 
L 259.811462 23.266082 
L 263.890037 22.967037 
L 267.968611 22.691916 
L 272.047186 22.438804 
L 276.125761 22.205941 
L 280.204335 21.991708 
L 284.28291 21.794613 
L 288.361485 21.613285 
L 292.440059 21.446464 
L 296.518634 21.292989 
L 300.597209 21.151791 
L 304.675783 21.021889 
L 308.754358 20.90238 
L 312.832933 20.792431 
L 316.911508 20.691278 
L 320.990082 20.598218 
L 325.068657 20.512602 
L 329.147232 20.433835 
L 333.225806 20.36137 
L 337.304381 20.294702 
L 341.382956 20.233368 
L 345.46153 20.17694 
L 349.540105 20.125026 
L 353.61868 20.077266 
L 357.697254 20.033326 
L 361.775829 19.992902 
L 365.854404 19.955711 
L 369.932979 19.921496 
L 374.011553 19.890018 
L 378.090128 19.861058 
" style="fill:none;stroke:#1f77b4;stroke-linecap:square;stroke-width:1.5;"/>
   </g>
   <g id="line2d_18">
    <path clip-path="url(#p507b542925)" d="M 55.882727 261.216 
L 59.961302 261.216 
L 64.039877 259.669197 
L 68.118451 256.936769 
L 72.197026 253.314555 
L 76.275601 249.043874 
L 80.354175 244.320624 
L 84.43275 239.302923 
L 88.511325 234.117527 
L 92.589899 228.865211 
L 96.668474 223.625277 
L 100.747049 218.459332 
L 104.825624 213.414446 
L 108.904198 208.52579 
L 112.982773 203.818835 
L 117.061348 199.311187 
L 121.139922 195.014109 
L 125.218497 190.933786 
L 129.297072 187.072375 
L 133.375646 183.428866 
L 137.454221 179.999797 
L 141.532796 176.779839 
L 145.61137 173.762272 
L 149.689945 170.939381 
L 153.76852 168.302763 
L 157.847095 165.84359 
L 161.925669 163.552804 
L 166.004244 161.421288 
L 170.082819 159.439981 
L 174.161393 157.599986 
L 178.239968 155.892636 
L 182.318543 154.309553 
L 186.397117 152.842689 
L 190.475692 151.484345 
L 194.554267 150.227196 
L 198.632841 149.064293 
L 202.711416 147.989067 
L 206.789991 146.995326 
L 210.868566 146.077247 
L 214.94714 145.229367 
L 219.025715 144.446567 
L 223.10429 143.724064 
L 227.182864 143.057391 
L 231.261439 142.442384 
L 235.340014 141.875166 
L 239.418588 141.35213 
L 243.497163 140.869926 
L 247.575738 140.425441 
L 251.654312 140.01579 
L 255.732887 139.638298 
L 259.811462 139.290486 
L 263.890037 138.970059 
L 267.968611 138.674894 
L 272.047186 138.403027 
L 276.125761 138.152642 
L 280.204335 137.922063 
L 284.28291 137.709739 
L 288.361485 137.514239 
L 292.440059 137.334242 
L 296.518634 137.168529 
L 300.597209 137.015975 
L 304.675783 136.875542 
L 308.754358 136.746274 
L 312.832933 136.627287 
L 316.911508 136.517769 
L 320.990082 136.41697 
L 325.068657 136.324198 
L 329.147232 136.238818 
L 333.225806 136.160242 
L 337.304381 136.087931 
L 341.382956 136.021385 
L 345.46153 135.960148 
L 349.540105 135.903797 
L 353.61868 135.851942 
L 357.697254 135.804226 
L 361.775829 135.76032 
L 365.854404 135.719919 
L 369.932979 135.682744 
L 374.011553 135.648539 
L 378.090128 135.617065 
" style="fill:none;stroke:#ff7f0e;stroke-linecap:square;stroke-width:1.5;"/>
   </g>
   <g id="line2d_19">
    <path clip-path="url(#p507b542925)" d="M 55.882727 261.216 
L 57.514157 254.719427 
L 60.777017 237.008532 
L 64.039877 221.849862 
L 65.671307 215.89467 
L 67.302736 209.475437 
L 70.565596 195.55421 
L 73.828456 183.643826 
L 75.459886 179.080757 
L 78.722746 167.170373 
L 80.354175 162.297944 
L 81.985605 157.812215 
L 83.617035 152.553084 
L 85.248465 146.907253 
L 86.879895 142.266844 
L 90.142755 134.99687 
L 91.774185 132.367304 
L 93.405614 128.964338 
L 95.037044 122.699785 
L 98.299904 116.280552 
L 101.562764 110.24802 
L 103.194194 108.778558 
L 104.825624 106.845054 
L 106.457053 105.530271 
L 108.088483 104.679529 
L 109.719913 102.049964 
L 111.351343 97.486895 
L 114.614203 91.686384 
L 116.245633 91.067662 
L 117.877063 89.443519 
L 121.139922 85.112471 
L 122.771352 83.797688 
L 124.402782 81.322803 
L 126.034212 80.317381 
L 129.297072 77.146435 
L 130.928502 74.130169 
L 132.559931 73.434107 
L 134.191361 72.274005 
L 135.822791 70.417841 
L 139.085651 69.257739 
L 140.717081 68.252317 
L 142.348511 65.777432 
L 143.979941 66.705514 
L 145.61137 65.236051 
L 147.2428 63.534568 
L 148.87423 60.595642 
L 150.50566 59.7449 
L 152.13709 59.43554 
L 153.76852 59.43554 
L 155.39995 58.739478 
L 157.03138 58.971499 
L 158.66281 56.187253 
L 160.294239 56.651294 
L 161.925669 55.955233 
L 163.557099 53.867049 
L 165.188529 52.088225 
L 166.819959 51.392164 
L 168.451389 50.000041 
L 170.082819 50.386742 
L 171.714249 50.464082 
L 173.345678 51.546844 
L 174.977108 51.314824 
L 176.608538 51.778864 
L 178.239968 52.629606 
L 179.871398 52.474926 
L 183.134258 52.784286 
L 184.765688 51.933545 
L 186.397117 50.618762 
L 188.028547 50.232061 
L 189.659977 51.005463 
L 191.291407 49.45866 
L 192.922837 49.071959 
L 194.554267 47.138455 
L 196.185697 46.597074 
L 197.817127 46.983775 
L 199.448556 45.746332 
L 201.079986 46.906435 
L 204.342846 42.730066 
L 205.974276 40.951243 
L 207.605706 40.796563 
L 209.237136 43.426128 
L 210.868566 42.343366 
L 212.499995 42.652726 
L 214.131425 41.801985 
L 215.762855 41.724645 
L 217.394285 41.337944 
L 219.025715 39.945821 
L 220.657145 38.863059 
L 222.288575 39.868481 
L 223.920005 39.3271 
L 227.182864 37.548276 
L 228.814294 36.156153 
L 230.445724 36.001473 
L 232.077154 35.228072 
L 233.708584 34.22265 
L 235.340014 34.145309 
L 236.971444 33.913289 
L 238.602873 32.289146 
L 240.234303 30.974363 
L 241.865733 30.742343 
L 243.497163 29.118199 
L 245.128593 30.200962 
L 246.760023 29.736921 
L 248.391453 28.886179 
L 250.022883 27.726077 
L 251.654312 26.411294 
L 253.285742 26.565974 
L 254.917172 27.648737 
L 256.548602 28.499478 
L 258.180032 29.040859 
L 259.811462 29.891601 
L 261.442892 27.803417 
L 263.074322 29.5049 
L 264.705751 29.968941 
L 266.337181 29.814261 
L 267.968611 31.361064 
L 269.600041 32.443826 
L 271.231471 32.598506 
L 272.862901 29.968941 
L 274.494331 29.19554 
L 276.125761 29.35022 
L 279.38862 27.571396 
L 281.02005 26.565974 
L 282.65148 26.565974 
L 284.28291 26.179274 
L 285.91434 26.333954 
L 287.54577 26.101934 
L 289.1772 25.637893 
L 290.80863 26.720655 
L 294.071489 26.024593 
L 295.702919 25.251192 
L 297.334349 23.859069 
L 300.597209 25.096512 
L 302.228639 23.704389 
L 303.860069 24.24577 
L 305.491498 23.704389 
L 307.122928 24.632471 
L 310.385788 23.163008 
L 313.648648 24.16843 
L 315.280078 23.781729 
L 316.911508 25.405872 
L 318.542937 26.643315 
L 320.174367 27.262036 
L 321.805797 26.411294 
L 323.437227 27.416716 
L 325.068657 27.571396 
L 326.700087 28.267458 
L 328.331517 28.576818 
L 329.962947 27.107355 
L 331.594376 26.952675 
L 333.225806 27.803417 
L 334.857236 27.030015 
L 336.488666 27.339376 
L 338.120096 27.107355 
L 339.751526 27.803417 
L 341.382956 26.411294 
L 343.014386 25.947253 
L 346.277245 25.637893 
L 347.908675 25.637893 
L 351.171535 24.632471 
L 352.802965 25.173852 
L 354.434395 24.09109 
L 356.065825 23.395028 
L 357.697254 22.544286 
L 359.328684 21.461524 
L 360.960114 22.698967 
L 362.591544 23.317688 
L 365.854404 21.229504 
L 367.485834 20.146742 
L 369.117264 19.296 
L 370.748693 21.229504 
L 372.380123 21.848225 
L 374.011553 22.621627 
L 375.642983 22.853647 
L 377.274413 21.152164 
L 378.905843 23.549708 
L 380.537273 28.499478 
L 380.537273 28.499478 
" style="fill:none;stroke:#2ca02c;stroke-linecap:square;stroke-width:1.5;"/>
   </g>
   <g id="line2d_20">
    <path clip-path="url(#p507b542925)" d="M 55.882727 261.216 
L 57.514157 261.216 
L 60.777017 260.519939 
L 64.039877 259.205156 
L 65.671307 258.663775 
L 67.302736 257.813033 
L 72.197026 254.332726 
L 73.828456 251.935182 
L 77.091316 247.913494 
L 78.722746 246.05733 
L 80.354175 243.427765 
L 83.617035 239.792777 
L 85.248465 237.240552 
L 86.879895 235.77109 
L 90.142755 230.74398 
L 91.774185 229.970578 
L 93.405614 228.037074 
L 96.668474 224.634107 
L 98.299904 222.236563 
L 99.931334 219.142957 
L 106.457053 210.480859 
L 108.088483 208.702036 
L 109.719913 207.541934 
L 111.351343 207.773954 
L 112.982773 205.91779 
L 114.614203 203.597586 
L 116.245633 202.205463 
L 117.877063 202.050783 
L 119.508492 199.575898 
L 121.139922 197.874414 
L 122.771352 196.791652 
L 124.402782 194.935488 
L 126.034212 193.388685 
L 127.665642 192.924645 
L 129.297072 191.919223 
L 130.928502 190.372419 
L 135.822791 185.42265 
L 137.454221 184.030527 
L 139.085651 181.478302 
L 140.717081 180.39554 
L 142.348511 180.008839 
L 143.979941 177.920655 
L 145.61137 177.765974 
L 147.2428 176.451192 
L 148.87423 176.605872 
L 150.50566 175.059069 
L 152.13709 173.280246 
L 153.76852 172.584184 
L 155.39995 169.954619 
L 157.03138 169.799939 
L 158.66281 170.109299 
L 160.294239 169.181217 
L 161.925669 167.866435 
L 163.557099 168.717176 
L 165.188529 170.805361 
L 166.819959 170.57334 
L 168.451389 169.490578 
L 170.082819 167.557074 
L 171.714249 165.159529 
L 173.345678 164.386128 
L 174.977108 164.540808 
L 176.608538 163.535386 
L 178.239968 162.839325 
L 179.871398 162.452624 
L 181.502828 162.452624 
L 183.134258 162.607304 
L 184.765688 162.375284 
L 186.397117 163.148685 
L 188.028547 164.076767 
L 189.659977 162.452624 
L 191.291407 162.684645 
L 192.922837 162.684645 
L 194.554267 163.844747 
L 196.185697 163.767407 
L 197.817127 162.065923 
L 199.448556 162.607304 
L 201.079986 160.59646 
L 202.711416 161.060501 
L 204.342846 162.839325 
L 205.974276 162.297944 
L 207.605706 159.900399 
L 209.237136 158.508276 
L 210.868566 157.425514 
L 212.499995 154.099887 
L 214.131425 152.939785 
L 215.762855 152.398404 
L 217.394285 152.321064 
L 219.025715 151.470322 
L 220.657145 151.006281 
L 222.288575 151.083621 
L 223.920005 150.31022 
L 225.551434 151.779683 
L 227.182864 152.166384 
L 228.814294 153.017125 
L 232.077154 151.547662 
L 233.708584 151.934363 
L 235.340014 152.939785 
L 236.971444 151.857023 
L 238.602873 153.713187 
L 240.234303 152.630425 
L 241.865733 152.630425 
L 243.497163 153.403826 
L 245.128593 153.171806 
L 246.760023 152.475744 
L 248.391453 153.171806 
L 250.022883 152.089043 
L 251.654312 152.089043 
L 253.285742 151.779683 
L 254.917172 150.078199 
L 256.548602 149.150118 
L 258.180032 149.227458 
L 259.811462 148.763417 
L 261.442892 148.454056 
L 263.074322 149.072777 
L 264.705751 147.757995 
L 266.337181 148.686077 
L 267.968611 147.448634 
L 269.600041 146.597893 
L 271.231471 147.061934 
L 272.862901 147.912675 
L 274.494331 146.211192 
L 276.125761 146.829913 
L 277.75719 147.139274 
L 279.38862 146.597893 
L 281.02005 148.067355 
L 284.28291 147.525974 
L 285.91434 146.829913 
L 287.54577 147.139274 
L 289.1772 147.990015 
L 290.80863 145.901831 
L 292.440059 146.520552 
L 294.071489 146.984593 
L 295.702919 147.216614 
L 297.334349 147.603315 
L 298.965779 146.907253 
L 302.228639 148.376716 
L 303.860069 147.835335 
L 305.491498 147.757995 
L 307.122928 147.139274 
L 308.754358 147.912675 
L 310.385788 149.382138 
L 312.017218 148.454056 
L 313.648648 148.763417 
L 315.280078 148.608737 
L 316.911508 147.603315 
L 318.542937 146.752573 
L 320.174367 147.680655 
L 321.805797 146.984593 
L 323.437227 145.747151 
L 325.068657 146.056512 
L 326.700087 145.592471 
L 328.331517 145.51513 
L 329.962947 145.824491 
L 333.225806 144.973749 
L 334.857236 146.597893 
L 336.488666 147.525974 
L 338.120096 146.752573 
L 339.751526 146.133852 
L 343.014386 145.51513 
L 344.645815 146.288532 
L 346.277245 144.741729 
L 347.908675 143.813647 
L 349.540105 144.045668 
L 351.171535 143.813647 
L 352.802965 141.570783 
L 354.434395 142.808225 
L 356.065825 143.504286 
L 357.697254 144.587049 
L 359.328684 144.741729 
L 360.960114 144.123008 
L 362.591544 144.664389 
L 364.222974 143.272266 
L 365.854404 143.349606 
L 367.485834 142.034824 
L 369.117264 142.498864 
L 370.748693 141.029402 
L 372.380123 141.106742 
L 374.011553 142.189504 
L 375.642983 141.106742 
L 377.274413 143.890987 
L 378.905843 143.426946 
L 380.537273 142.344184 
L 380.537273 142.344184 
" style="fill:none;stroke:#d62728;stroke-linecap:square;stroke-width:1.5;"/>
   </g>
   <g id="patch_3">
    <path d="M 39.65 273.312 
L 39.65 7.2 
" style="fill:none;stroke:#000000;stroke-linecap:square;stroke-linejoin:miter;stroke-width:0.8;"/>
   </g>
   <g id="patch_4">
    <path d="M 396.77 273.312 
L 396.77 7.2 
" style="fill:none;stroke:#000000;stroke-linecap:square;stroke-linejoin:miter;stroke-width:0.8;"/>
   </g>
   <g id="patch_5">
    <path d="M 39.65 273.312 
L 396.77 273.312 
" style="fill:none;stroke:#000000;stroke-linecap:square;stroke-linejoin:miter;stroke-width:0.8;"/>
   </g>
   <g id="patch_6">
    <path d="M 39.65 7.2 
L 396.77 7.2 
" style="fill:none;stroke:#000000;stroke-linecap:square;stroke-linejoin:miter;stroke-width:0.8;"/>
   </g>
  </g>
 </g>
 <defs>
  <clipPath id="p507b542925">
   <rect height="266.112" width="357.12" x="39.65" y="7.2"/>
  </clipPath>
 </defs>
</svg>
