<?xml version="1.0" encoding="utf-8" standalone="no"?>
<!DOCTYPE svg PUBLIC "-//W3C//DTD SVG 1.1//EN"
  "http://www.w3.org/Graphics/SVG/1.1/DTD/svg11.dtd">
<!-- Created with matplotlib (https://matplotlib.org/) -->
<svg height="297.190125pt" version="1.1" viewBox="0 0 403.97 297.190125" width="403.97pt" xmlns="http://www.w3.org/2000/svg" xmlns:xlink="http://www.w3.org/1999/xlink">
 <metadata>
  <rdf:RDF xmlns:cc="http://creativecommons.org/ns#" xmlns:dc="http://purl.org/dc/elements/1.1/" xmlns:rdf="http://www.w3.org/1999/02/22-rdf-syntax-ns#">
   <cc:Work>
    <dc:type rdf:resource="http://purl.org/dc/dcmitype/StillImage"/>
    <dc:date>2021-03-23T00:04:55.630007</dc:date>
    <dc:format>image/svg+xml</dc:format>
    <dc:creator>
     <cc:Agent>
      <dc:title>Matplotlib v3.3.4, https://matplotlib.org/</dc:title>
     </cc:Agent>
    </dc:creator>
   </cc:Work>
  </rdf:RDF>
 </metadata>
 <defs>
  <style type="text/css">*{stroke-linecap:butt;stroke-linejoin:round;}</style>
 </defs>
 <g id="figure_1">
  <g id="patch_1">
   <path d="M 0 297.190125 
L 403.97 297.190125 
L 403.97 0 
L 0 0 
z
" style="fill:#ffffff;"/>
  </g>
  <g id="axes_1">
   <g id="patch_2">
    <path d="M 39.65 273.312 
L 396.77 273.312 
L 396.77 7.2 
L 39.65 7.2 
z
" style="fill:#ffffff;"/>
   </g>
   <g id="matplotlib.axis_1">
    <g id="xtick_1">
     <g id="line2d_1">
      <defs>
       <path d="M 0 0 
L 0 3.5 
" id="m6f30a0529b" style="stroke:#000000;stroke-width:0.8;"/>
      </defs>
      <g>
       <use style="stroke:#000000;stroke-width:0.8;" x="55.882727" xlink:href="#m6f30a0529b" y="273.312"/>
      </g>
     </g>
     <g id="text_1">
      <!-- 0.0 -->
      <g transform="translate(47.931165 287.910437)scale(0.1 -0.1)">
       <defs>
        <path d="M 31.78125 66.40625 
Q 24.171875 66.40625 20.328125 58.90625 
Q 16.5 51.421875 16.5 36.375 
Q 16.5 21.390625 20.328125 13.890625 
Q 24.171875 6.390625 31.78125 6.390625 
Q 39.453125 6.390625 43.28125 13.890625 
Q 47.125 21.390625 47.125 36.375 
Q 47.125 51.421875 43.28125 58.90625 
Q 39.453125 66.40625 31.78125 66.40625 
z
M 31.78125 74.21875 
Q 44.046875 74.21875 50.515625 64.515625 
Q 56.984375 54.828125 56.984375 36.375 
Q 56.984375 17.96875 50.515625 8.265625 
Q 44.046875 -1.421875 31.78125 -1.421875 
Q 19.53125 -1.421875 13.0625 8.265625 
Q 6.59375 17.96875 6.59375 36.375 
Q 6.59375 54.828125 13.0625 64.515625 
Q 19.53125 74.21875 31.78125 74.21875 
z
" id="DejaVuSans-48"/>
        <path d="M 10.6875 12.40625 
L 21 12.40625 
L 21 0 
L 10.6875 0 
z
" id="DejaVuSans-46"/>
       </defs>
       <use xlink:href="#DejaVuSans-48"/>
       <use x="63.623047" xlink:href="#DejaVuSans-46"/>
       <use x="95.410156" xlink:href="#DejaVuSans-48"/>
      </g>
     </g>
    </g>
    <g id="xtick_2">
     <g id="line2d_2">
      <g>
       <use style="stroke:#000000;stroke-width:0.8;" x="96.668474" xlink:href="#m6f30a0529b" y="273.312"/>
      </g>
     </g>
     <g id="text_2">
      <!-- 2.5 -->
      <g transform="translate(88.716912 287.910437)scale(0.1 -0.1)">
       <defs>
        <path d="M 19.1875 8.296875 
L 53.609375 8.296875 
L 53.609375 0 
L 7.328125 0 
L 7.328125 8.296875 
Q 12.9375 14.109375 22.625 23.890625 
Q 32.328125 33.6875 34.8125 36.53125 
Q 39.546875 41.84375 41.421875 45.53125 
Q 43.3125 49.21875 43.3125 52.78125 
Q 43.3125 58.59375 39.234375 62.25 
Q 35.15625 65.921875 28.609375 65.921875 
Q 23.96875 65.921875 18.8125 64.3125 
Q 13.671875 62.703125 7.8125 59.421875 
L 7.8125 69.390625 
Q 13.765625 71.78125 18.9375 73 
Q 24.125 74.21875 28.421875 74.21875 
Q 39.75 74.21875 46.484375 68.546875 
Q 53.21875 62.890625 53.21875 53.421875 
Q 53.21875 48.921875 51.53125 44.890625 
Q 49.859375 40.875 45.40625 35.40625 
Q 44.1875 33.984375 37.640625 27.21875 
Q 31.109375 20.453125 19.1875 8.296875 
z
" id="DejaVuSans-50"/>
        <path d="M 10.796875 72.90625 
L 49.515625 72.90625 
L 49.515625 64.59375 
L 19.828125 64.59375 
L 19.828125 46.734375 
Q 21.96875 47.46875 24.109375 47.828125 
Q 26.265625 48.1875 28.421875 48.1875 
Q 40.625 48.1875 47.75 41.5 
Q 54.890625 34.8125 54.890625 23.390625 
Q 54.890625 11.625 47.5625 5.09375 
Q 40.234375 -1.421875 26.90625 -1.421875 
Q 22.3125 -1.421875 17.546875 -0.640625 
Q 12.796875 0.140625 7.71875 1.703125 
L 7.71875 11.625 
Q 12.109375 9.234375 16.796875 8.0625 
Q 21.484375 6.890625 26.703125 6.890625 
Q 35.15625 6.890625 40.078125 11.328125 
Q 45.015625 15.765625 45.015625 23.390625 
Q 45.015625 31 40.078125 35.4375 
Q 35.15625 39.890625 26.703125 39.890625 
Q 22.75 39.890625 18.8125 39.015625 
Q 14.890625 38.140625 10.796875 36.28125 
z
" id="DejaVuSans-53"/>
       </defs>
       <use xlink:href="#DejaVuSans-50"/>
       <use x="63.623047" xlink:href="#DejaVuSans-46"/>
       <use x="95.410156" xlink:href="#DejaVuSans-53"/>
      </g>
     </g>
    </g>
    <g id="xtick_3">
     <g id="line2d_3">
      <g>
       <use style="stroke:#000000;stroke-width:0.8;" x="137.454221" xlink:href="#m6f30a0529b" y="273.312"/>
      </g>
     </g>
     <g id="text_3">
      <!-- 5.0 -->
      <g transform="translate(129.502659 287.910437)scale(0.1 -0.1)">
       <use xlink:href="#DejaVuSans-53"/>
       <use x="63.623047" xlink:href="#DejaVuSans-46"/>
       <use x="95.410156" xlink:href="#DejaVuSans-48"/>
      </g>
     </g>
    </g>
    <g id="xtick_4">
     <g id="line2d_4">
      <g>
       <use style="stroke:#000000;stroke-width:0.8;" x="178.239968" xlink:href="#m6f30a0529b" y="273.312"/>
      </g>
     </g>
     <g id="text_4">
      <!-- 7.5 -->
      <g transform="translate(170.288406 287.910437)scale(0.1 -0.1)">
       <defs>
        <path d="M 8.203125 72.90625 
L 55.078125 72.90625 
L 55.078125 68.703125 
L 28.609375 0 
L 18.3125 0 
L 43.21875 64.59375 
L 8.203125 64.59375 
z
" id="DejaVuSans-55"/>
       </defs>
       <use xlink:href="#DejaVuSans-55"/>
       <use x="63.623047" xlink:href="#DejaVuSans-46"/>
       <use x="95.410156" xlink:href="#DejaVuSans-53"/>
      </g>
     </g>
    </g>
    <g id="xtick_5">
     <g id="line2d_5">
      <g>
       <use style="stroke:#000000;stroke-width:0.8;" x="219.025715" xlink:href="#m6f30a0529b" y="273.312"/>
      </g>
     </g>
     <g id="text_5">
      <!-- 10.0 -->
      <g transform="translate(207.892902 287.910437)scale(0.1 -0.1)">
       <defs>
        <path d="M 12.40625 8.296875 
L 28.515625 8.296875 
L 28.515625 63.921875 
L 10.984375 60.40625 
L 10.984375 69.390625 
L 28.421875 72.90625 
L 38.28125 72.90625 
L 38.28125 8.296875 
L 54.390625 8.296875 
L 54.390625 0 
L 12.40625 0 
z
" id="DejaVuSans-49"/>
       </defs>
       <use xlink:href="#DejaVuSans-49"/>
       <use x="63.623047" xlink:href="#DejaVuSans-48"/>
       <use x="127.246094" xlink:href="#DejaVuSans-46"/>
       <use x="159.033203" xlink:href="#DejaVuSans-48"/>
      </g>
     </g>
    </g>
    <g id="xtick_6">
     <g id="line2d_6">
      <g>
       <use style="stroke:#000000;stroke-width:0.8;" x="259.811462" xlink:href="#m6f30a0529b" y="273.312"/>
      </g>
     </g>
     <g id="text_6">
      <!-- 12.5 -->
      <g transform="translate(248.678649 287.910437)scale(0.1 -0.1)">
       <use xlink:href="#DejaVuSans-49"/>
       <use x="63.623047" xlink:href="#DejaVuSans-50"/>
       <use x="127.246094" xlink:href="#DejaVuSans-46"/>
       <use x="159.033203" xlink:href="#DejaVuSans-53"/>
      </g>
     </g>
    </g>
    <g id="xtick_7">
     <g id="line2d_7">
      <g>
       <use style="stroke:#000000;stroke-width:0.8;" x="300.597209" xlink:href="#m6f30a0529b" y="273.312"/>
      </g>
     </g>
     <g id="text_7">
      <!-- 15.0 -->
      <g transform="translate(289.464396 287.910437)scale(0.1 -0.1)">
       <use xlink:href="#DejaVuSans-49"/>
       <use x="63.623047" xlink:href="#DejaVuSans-53"/>
       <use x="127.246094" xlink:href="#DejaVuSans-46"/>
       <use x="159.033203" xlink:href="#DejaVuSans-48"/>
      </g>
     </g>
    </g>
    <g id="xtick_8">
     <g id="line2d_8">
      <g>
       <use style="stroke:#000000;stroke-width:0.8;" x="341.382956" xlink:href="#m6f30a0529b" y="273.312"/>
      </g>
     </g>
     <g id="text_8">
      <!-- 17.5 -->
      <g transform="translate(330.250143 287.910437)scale(0.1 -0.1)">
       <use xlink:href="#DejaVuSans-49"/>
       <use x="63.623047" xlink:href="#DejaVuSans-55"/>
       <use x="127.246094" xlink:href="#DejaVuSans-46"/>
       <use x="159.033203" xlink:href="#DejaVuSans-53"/>
      </g>
     </g>
    </g>
    <g id="xtick_9">
     <g id="line2d_9">
      <g>
       <use style="stroke:#000000;stroke-width:0.8;" x="382.168703" xlink:href="#m6f30a0529b" y="273.312"/>
      </g>
     </g>
     <g id="text_9">
      <!-- 20.0 -->
      <g transform="translate(371.03589 287.910437)scale(0.1 -0.1)">
       <use xlink:href="#DejaVuSans-50"/>
       <use x="63.623047" xlink:href="#DejaVuSans-48"/>
       <use x="127.246094" xlink:href="#DejaVuSans-46"/>
       <use x="159.033203" xlink:href="#DejaVuSans-48"/>
      </g>
     </g>
    </g>
   </g>
   <g id="matplotlib.axis_2">
    <g id="ytick_1">
     <g id="line2d_10">
      <defs>
       <path d="M 0 0 
L -3.5 0 
" id="m1b0035eba4" style="stroke:#000000;stroke-width:0.8;"/>
      </defs>
      <g>
       <use style="stroke:#000000;stroke-width:0.8;" x="39.65" xlink:href="#m1b0035eba4" y="261.216"/>
      </g>
     </g>
     <g id="text_10">
      <!-- 0 -->
      <g transform="translate(26.2875 265.015219)scale(0.1 -0.1)">
       <use xlink:href="#DejaVuSans-48"/>
      </g>
     </g>
    </g>
    <g id="ytick_2">
     <g id="line2d_11">
      <g>
       <use style="stroke:#000000;stroke-width:0.8;" x="39.65" xlink:href="#m1b0035eba4" y="226.862876"/>
      </g>
     </g>
     <g id="text_11">
      <!-- 500 -->
      <g transform="translate(13.5625 230.662095)scale(0.1 -0.1)">
       <use xlink:href="#DejaVuSans-53"/>
       <use x="63.623047" xlink:href="#DejaVuSans-48"/>
       <use x="127.246094" xlink:href="#DejaVuSans-48"/>
      </g>
     </g>
    </g>
    <g id="ytick_3">
     <g id="line2d_12">
      <g>
       <use style="stroke:#000000;stroke-width:0.8;" x="39.65" xlink:href="#m1b0035eba4" y="192.509752"/>
      </g>
     </g>
     <g id="text_12">
      <!-- 1000 -->
      <g transform="translate(7.2 196.308971)scale(0.1 -0.1)">
       <use xlink:href="#DejaVuSans-49"/>
       <use x="63.623047" xlink:href="#DejaVuSans-48"/>
       <use x="127.246094" xlink:href="#DejaVuSans-48"/>
       <use x="190.869141" xlink:href="#DejaVuSans-48"/>
      </g>
     </g>
    </g>
    <g id="ytick_4">
     <g id="line2d_13">
      <g>
       <use style="stroke:#000000;stroke-width:0.8;" x="39.65" xlink:href="#m1b0035eba4" y="158.156628"/>
      </g>
     </g>
     <g id="text_13">
      <!-- 1500 -->
      <g transform="translate(7.2 161.955847)scale(0.1 -0.1)">
       <use xlink:href="#DejaVuSans-49"/>
       <use x="63.623047" xlink:href="#DejaVuSans-53"/>
       <use x="127.246094" xlink:href="#DejaVuSans-48"/>
       <use x="190.869141" xlink:href="#DejaVuSans-48"/>
      </g>
     </g>
    </g>
    <g id="ytick_5">
     <g id="line2d_14">
      <g>
       <use style="stroke:#000000;stroke-width:0.8;" x="39.65" xlink:href="#m1b0035eba4" y="123.803504"/>
      </g>
     </g>
     <g id="text_14">
      <!-- 2000 -->
      <g transform="translate(7.2 127.602722)scale(0.1 -0.1)">
       <use xlink:href="#DejaVuSans-50"/>
       <use x="63.623047" xlink:href="#DejaVuSans-48"/>
       <use x="127.246094" xlink:href="#DejaVuSans-48"/>
       <use x="190.869141" xlink:href="#DejaVuSans-48"/>
      </g>
     </g>
    </g>
    <g id="ytick_6">
     <g id="line2d_15">
      <g>
       <use style="stroke:#000000;stroke-width:0.8;" x="39.65" xlink:href="#m1b0035eba4" y="89.45038"/>
      </g>
     </g>
     <g id="text_15">
      <!-- 2500 -->
      <g transform="translate(7.2 93.249598)scale(0.1 -0.1)">
       <use xlink:href="#DejaVuSans-50"/>
       <use x="63.623047" xlink:href="#DejaVuSans-53"/>
       <use x="127.246094" xlink:href="#DejaVuSans-48"/>
       <use x="190.869141" xlink:href="#DejaVuSans-48"/>
      </g>
     </g>
    </g>
    <g id="ytick_7">
     <g id="line2d_16">
      <g>
       <use style="stroke:#000000;stroke-width:0.8;" x="39.65" xlink:href="#m1b0035eba4" y="55.097256"/>
      </g>
     </g>
     <g id="text_16">
      <!-- 3000 -->
      <g transform="translate(7.2 58.896474)scale(0.1 -0.1)">
       <defs>
        <path d="M 40.578125 39.3125 
Q 47.65625 37.796875 51.625 33 
Q 55.609375 28.21875 55.609375 21.1875 
Q 55.609375 10.40625 48.1875 4.484375 
Q 40.765625 -1.421875 27.09375 -1.421875 
Q 22.515625 -1.421875 17.65625 -0.515625 
Q 12.796875 0.390625 7.625 2.203125 
L 7.625 11.71875 
Q 11.71875 9.328125 16.59375 8.109375 
Q 21.484375 6.890625 26.8125 6.890625 
Q 36.078125 6.890625 40.9375 10.546875 
Q 45.796875 14.203125 45.796875 21.1875 
Q 45.796875 27.640625 41.28125 31.265625 
Q 36.765625 34.90625 28.71875 34.90625 
L 20.21875 34.90625 
L 20.21875 43.015625 
L 29.109375 43.015625 
Q 36.375 43.015625 40.234375 45.921875 
Q 44.09375 48.828125 44.09375 54.296875 
Q 44.09375 59.90625 40.109375 62.90625 
Q 36.140625 65.921875 28.71875 65.921875 
Q 24.65625 65.921875 20.015625 65.03125 
Q 15.375 64.15625 9.8125 62.3125 
L 9.8125 71.09375 
Q 15.4375 72.65625 20.34375 73.4375 
Q 25.25 74.21875 29.59375 74.21875 
Q 40.828125 74.21875 47.359375 69.109375 
Q 53.90625 64.015625 53.90625 55.328125 
Q 53.90625 49.265625 50.4375 45.09375 
Q 46.96875 40.921875 40.578125 39.3125 
z
" id="DejaVuSans-51"/>
       </defs>
       <use xlink:href="#DejaVuSans-51"/>
       <use x="63.623047" xlink:href="#DejaVuSans-48"/>
       <use x="127.246094" xlink:href="#DejaVuSans-48"/>
       <use x="190.869141" xlink:href="#DejaVuSans-48"/>
      </g>
     </g>
    </g>
    <g id="ytick_8">
     <g id="line2d_17">
      <g>
       <use style="stroke:#000000;stroke-width:0.8;" x="39.65" xlink:href="#m1b0035eba4" y="20.744132"/>
      </g>
     </g>
     <g id="text_17">
      <!-- 3500 -->
      <g transform="translate(7.2 24.54335)scale(0.1 -0.1)">
       <use xlink:href="#DejaVuSans-51"/>
       <use x="63.623047" xlink:href="#DejaVuSans-53"/>
       <use x="127.246094" xlink:href="#DejaVuSans-48"/>
       <use x="190.869141" xlink:href="#DejaVuSans-48"/>
      </g>
     </g>
    </g>
   </g>
   <g id="line2d_18">
    <path clip-path="url(#pa088a6ef39)" d="M 55.882727 261.216 
L 72.197026 192.509752 
L 88.511325 143.281725 
L 104.825624 108.009844 
L 121.139922 82.737541 
L 137.454221 64.629936 
L 153.76852 51.655837 
L 170.082819 42.359895 
L 186.397117 35.699353 
L 202.711416 30.927074 
L 219.025715 27.507736 
L 235.340014 25.057781 
L 251.654312 23.302388 
L 267.968611 22.044649 
L 284.28291 21.143479 
L 300.597209 20.49779 
L 316.911508 20.035155 
L 333.225806 19.703676 
L 349.540105 19.466172 
L 365.854404 19.296 
" style="fill:none;stroke:#1f77b4;stroke-linecap:square;stroke-width:1.5;"/>
   </g>
   <g id="line2d_19">
    <path clip-path="url(#pa088a6ef39)" d="M 55.882727 261.216 
L 72.197026 261.216 
L 88.511325 238.313917 
L 104.825624 210.146646 
L 121.139922 183.928275 
L 137.454221 162.043662 
L 153.76852 144.772234 
L 170.082819 131.580383 
L 186.397117 121.709039 
L 202.711416 114.420911 
L 219.025715 109.088426 
L 235.340014 105.210949 
L 251.654312 102.4036 
L 267.968611 100.377177 
L 284.28291 98.917564 
L 300.597209 97.867809 
L 316.911508 97.113636 
L 333.225806 96.572231 
L 349.540105 96.183781 
L 365.854404 95.905183 
" style="fill:none;stroke:#ff7f0e;stroke-linecap:square;stroke-width:1.5;"/>
   </g>
   <g id="line2d_20">
    <path clip-path="url(#pa088a6ef39)" d="M 55.882727 261.216 
L 59.145587 248.367932 
L 60.777017 242.802725 
L 62.408447 236.000807 
L 64.039877 230.366895 
L 65.671307 226.038401 
L 68.934166 215.938582 
L 70.565596 210.373376 
L 72.197026 206.45712 
L 73.828456 201.166739 
L 77.091316 191.547864 
L 80.354175 185.089477 
L 81.985605 180.211333 
L 83.617035 176.363784 
L 85.248465 172.172702 
L 86.879895 167.431971 
L 88.511325 164.202778 
L 90.142755 161.248409 
L 91.774185 156.370265 
L 93.405614 152.522715 
L 95.037044 150.392822 
L 96.668474 146.476566 
L 98.299904 143.934434 
L 99.931334 141.186185 
L 101.562764 137.132516 
L 103.194194 134.659091 
L 106.457053 130.536716 
L 108.088483 128.887766 
L 109.719913 125.108922 
L 111.351343 123.253854 
L 112.982773 119.955954 
L 114.614203 117.963473 
L 116.245633 115.146516 
L 117.877063 111.573792 
L 119.508492 109.924842 
L 121.139922 107.93236 
L 122.771352 107.520123 
L 124.402782 106.352117 
L 126.034212 105.390229 
L 127.665642 103.329042 
L 129.297072 100.993029 
L 130.928502 101.267854 
L 132.559931 99.687611 
L 134.191361 98.313486 
L 135.822791 96.046179 
L 139.085651 90.961917 
L 140.717081 90.274855 
L 142.348511 89.244261 
L 143.979941 88.832023 
L 145.61137 88.213667 
L 148.87423 84.297411 
L 150.50566 83.129405 
L 152.13709 81.136924 
L 153.76852 79.762799 
L 155.39995 78.938324 
L 157.03138 77.564199 
L 158.66281 76.80843 
L 160.294239 74.884655 
L 161.925669 73.922768 
L 163.557099 73.373118 
L 165.188529 72.617349 
L 166.819959 70.830986 
L 168.451389 70.143924 
L 170.082819 68.357561 
L 171.714249 69.182036 
L 173.345678 69.044624 
L 174.977108 67.258262 
L 176.608538 66.021549 
L 178.239968 67.120849 
L 179.871398 67.670499 
L 181.502828 67.189555 
L 183.134258 67.326968 
L 184.765688 65.678018 
L 186.397117 64.71613 
L 188.028547 63.960362 
L 189.659977 64.097774 
L 191.291407 62.448824 
L 192.922837 62.036587 
L 194.554267 62.448824 
L 196.185697 62.723649 
L 197.817127 60.593755 
L 199.448556 62.036587 
L 201.079986 62.036587 
L 202.711416 60.86858 
L 205.974276 60.112812 
L 207.605706 61.280818 
L 209.237136 60.662462 
L 210.868566 59.494455 
L 214.131425 59.288337 
L 215.762855 59.563162 
L 217.394285 59.563162 
L 219.025715 57.845506 
L 222.288575 59.082218 
L 223.920005 57.639387 
L 225.551434 56.677499 
L 227.182864 56.127849 
L 228.814294 56.402674 
L 230.445724 57.227149 
L 232.077154 56.059143 
L 233.708584 56.196556 
L 235.340014 55.578199 
L 236.971444 56.333968 
L 238.602873 57.501974 
L 240.234303 58.120331 
L 241.865733 57.914212 
L 243.497163 59.76928 
L 245.128593 60.044105 
L 246.760023 57.982918 
L 248.391453 57.708093 
L 250.022883 59.082218 
L 251.654312 59.837987 
L 253.285742 59.21963 
L 254.917172 59.288337 
L 256.548602 57.501974 
L 258.180032 55.372081 
L 259.811462 54.272781 
L 261.442892 54.135368 
L 263.074322 53.791837 
L 264.705751 54.685018 
L 266.337181 56.608793 
L 267.968611 56.677499 
L 271.231471 57.021031 
L 272.862901 56.540087 
L 274.494331 56.746206 
L 277.75719 57.364562 
L 279.38862 56.608793 
L 281.02005 56.127849 
L 282.65148 55.097256 
L 284.28291 54.410193 
L 285.91434 53.929249 
L 287.54577 54.135368 
L 289.1772 54.891137 
L 290.80863 54.204074 
L 292.440059 54.135368 
L 297.334349 57.433268 
L 298.965779 56.746206 
L 300.597209 55.853024 
L 302.228639 56.265262 
L 303.860069 57.982918 
L 305.491498 56.677499 
L 307.122928 56.265262 
L 308.754358 55.578199 
L 310.385788 57.295856 
L 312.017218 56.677499 
L 315.280078 55.921731 
L 316.911508 55.028549 
L 318.542937 53.929249 
L 320.174367 56.677499 
L 321.805797 54.822431 
L 323.437227 54.753724 
L 325.068657 54.066662 
L 326.700087 53.929249 
L 328.331517 53.997956 
L 329.962947 54.959843 
L 331.594376 53.585718 
L 333.225806 54.822431 
L 334.857236 55.028549 
L 336.488666 57.089737 
L 338.120096 55.372081 
L 341.382956 56.402674 
L 343.014386 55.921731 
L 344.645815 55.646906 
L 347.908675 55.509493 
L 349.540105 55.165962 
L 351.171535 53.860543 
L 352.802965 54.822431 
L 354.434395 54.891137 
L 356.065825 54.204074 
L 357.697254 54.135368 
L 359.328684 53.310893 
L 360.960114 53.791837 
L 362.591544 52.761243 
L 364.222974 54.685018 
L 365.854404 54.959843 
L 367.485834 55.097256 
L 369.117264 56.471381 
L 370.748693 56.540087 
L 372.380123 55.715612 
L 374.011553 56.471381 
L 375.642983 57.501974 
L 377.274413 57.021031 
L 378.905843 58.738687 
L 380.537273 58.326449 
L 380.537273 58.326449 
" style="fill:none;stroke:#2ca02c;stroke-linecap:square;stroke-width:1.5;"/>
   </g>
   <g id="line2d_21">
    <path clip-path="url(#pa088a6ef39)" d="M 55.882727 261.216 
L 57.514157 261.078588 
L 59.145587 260.597644 
L 60.777017 259.979288 
L 64.039877 258.46775 
L 65.671307 257.574569 
L 68.934166 255.101144 
L 73.828456 250.360413 
L 77.091316 246.718982 
L 78.722746 245.27615 
L 81.985605 240.947657 
L 83.617035 239.779651 
L 85.248465 237.924582 
L 86.879895 237.374932 
L 90.142755 234.214444 
L 93.405614 232.428082 
L 95.037044 229.405007 
L 96.668474 228.511826 
L 99.931334 224.320745 
L 101.562764 222.94662 
L 103.194194 221.160257 
L 104.825624 219.580014 
L 106.457053 218.343301 
L 108.088483 217.931064 
L 109.719913 217.381414 
L 111.351343 216.144701 
L 112.982773 213.808689 
L 114.614203 211.678795 
L 116.245633 210.442083 
L 117.877063 210.235964 
L 119.508492 207.831245 
L 121.139922 206.113589 
L 122.771352 205.495233 
L 124.402782 204.464639 
L 126.034212 202.953102 
L 127.665642 202.403452 
L 129.297072 202.403452 
L 130.928502 199.86132 
L 132.559931 200.067439 
L 134.191361 198.899433 
L 135.822791 198.349783 
L 137.454221 197.456602 
L 139.085651 195.945064 
L 140.717081 195.464121 
L 142.348511 194.021289 
L 143.979941 192.166221 
L 145.61137 191.135627 
L 147.2428 190.723389 
L 148.87423 190.105033 
L 150.50566 188.249964 
L 152.13709 188.662202 
L 153.76852 188.593496 
L 155.39995 186.257483 
L 157.03138 185.913952 
L 158.66281 184.539827 
L 160.294239 183.990177 
L 161.925669 183.303115 
L 163.557099 181.722871 
L 165.188529 181.997696 
L 166.819959 181.791577 
L 168.451389 182.135108 
L 170.082819 181.997696 
L 171.714249 180.417452 
L 173.345678 178.150146 
L 174.977108 177.53179 
L 176.608538 177.944027 
L 178.239968 176.157665 
L 179.871398 175.539309 
L 181.502828 174.508715 
L 183.134258 174.096477 
L 184.765688 174.852246 
L 186.397117 172.997177 
L 188.028547 172.928471 
L 189.659977 171.210815 
L 192.922837 171.142109 
L 194.554267 169.699277 
L 196.185697 169.218334 
L 197.817127 168.325153 
L 199.448556 165.783021 
L 201.079986 164.88984 
L 202.711416 166.332671 
L 204.342846 166.53879 
L 205.974276 165.645609 
L 209.237136 165.98914 
L 212.499995 165.095959 
L 214.131425 165.302078 
L 215.762855 164.202778 
L 217.394285 162.897359 
L 219.025715 163.859246 
L 220.657145 164.34019 
L 222.288575 163.927953 
L 223.920005 164.752428 
L 225.551434 163.996659 
L 227.182864 163.584421 
L 228.814294 161.110996 
L 230.445724 159.39334 
L 232.077154 159.530753 
L 233.708584 159.874284 
L 235.340014 158.84369 
L 236.971444 159.049809 
L 238.602873 158.29404 
L 240.234303 158.362747 
L 241.865733 157.950509 
L 243.497163 157.263447 
L 245.128593 157.332153 
L 246.760023 158.431453 
L 248.391453 158.156628 
L 250.022883 158.225334 
L 251.654312 159.255928 
L 253.285742 159.599459 
L 254.917172 158.156628 
L 256.548602 158.706278 
L 258.180032 158.84369 
L 259.811462 161.248409 
L 261.442892 161.935471 
L 263.074322 161.660646 
L 264.705751 162.553828 
L 266.337181 160.286521 
L 267.968611 160.630053 
L 269.600041 160.630053 
L 271.231471 158.568865 
L 272.862901 159.187222 
L 274.494331 159.668165 
L 276.125761 159.874284 
L 277.75719 158.912397 
L 279.38862 161.110996 
L 281.02005 161.04229 
L 284.28291 160.698759 
L 285.91434 161.523234 
L 287.54577 160.49264 
L 289.1772 159.874284 
L 290.80863 159.049809 
L 292.440059 160.767465 
L 294.071489 159.255928 
L 295.702919 158.362747 
L 297.334349 158.568865 
L 298.965779 158.431453 
L 300.597209 159.736872 
L 302.228639 160.011696 
L 303.860069 158.087922 
L 305.491498 159.39334 
L 307.122928 160.011696 
L 308.754358 160.836171 
L 310.385788 160.49264 
L 312.017218 159.462047 
L 313.648648 159.049809 
L 315.280078 159.530753 
L 318.542937 160.904878 
L 320.174367 158.019215 
L 321.805797 159.805578 
L 323.437227 157.950509 
L 325.068657 158.087922 
L 328.331517 158.84369 
L 329.962947 158.225334 
L 331.594376 159.324634 
L 333.225806 157.813097 
L 334.857236 158.156628 
L 336.488666 157.950509 
L 338.120096 158.981103 
L 339.751526 157.881803 
L 341.382956 157.126034 
L 343.014386 157.950509 
L 344.645815 156.919915 
L 346.277245 157.538272 
L 347.908675 157.606978 
L 349.540105 158.29404 
L 351.171535 159.599459 
L 352.802965 159.668165 
L 356.065825 160.217815 
L 357.697254 160.080403 
L 359.328684 158.431453 
L 360.960114 157.813097 
L 362.591544 157.538272 
L 364.222974 156.782503 
L 367.485834 156.576384 
L 369.117264 155.751909 
L 370.748693 155.408378 
L 372.380123 155.339672 
L 374.011553 155.54579 
L 375.642983 155.477084 
L 377.274413 154.858728 
L 380.537273 155.408378 
L 380.537273 155.408378 
" style="fill:none;stroke:#d62728;stroke-linecap:square;stroke-width:1.5;"/>
   </g>
   <g id="patch_3">
    <path d="M 39.65 273.312 
L 39.65 7.2 
" style="fill:none;stroke:#000000;stroke-linecap:square;stroke-linejoin:miter;stroke-width:0.8;"/>
   </g>
   <g id="patch_4">
    <path d="M 396.77 273.312 
L 396.77 7.2 
" style="fill:none;stroke:#000000;stroke-linecap:square;stroke-linejoin:miter;stroke-width:0.8;"/>
   </g>
   <g id="patch_5">
    <path d="M 39.65 273.312 
L 396.77 273.312 
" style="fill:none;stroke:#000000;stroke-linecap:square;stroke-linejoin:miter;stroke-width:0.8;"/>
   </g>
   <g id="patch_6">
    <path d="M 39.65 7.2 
L 396.77 7.2 
" style="fill:none;stroke:#000000;stroke-linecap:square;stroke-linejoin:miter;stroke-width:0.8;"/>
   </g>
  </g>
 </g>
 <defs>
  <clipPath id="pa088a6ef39">
   <rect height="266.112" width="357.12" x="39.65" y="7.2"/>
  </clipPath>
 </defs>
</svg>
