<?xml version="1.0" encoding="utf-8" standalone="no"?>
<!DOCTYPE svg PUBLIC "-//W3C//DTD SVG 1.1//EN"
  "http://www.w3.org/Graphics/SVG/1.1/DTD/svg11.dtd">
<svg xmlns:xlink="http://www.w3.org/1999/xlink" width="403.97pt" height="297.190125pt" viewBox="0 0 403.97 297.190125" xmlns="http://www.w3.org/2000/svg" version="1.1">
 <metadata>
  <rdf:RDF xmlns:dc="http://purl.org/dc/elements/1.1/" xmlns:cc="http://creativecommons.org/ns#" xmlns:rdf="http://www.w3.org/1999/02/22-rdf-syntax-ns#">
   <cc:Work>
    <dc:type rdf:resource="http://purl.org/dc/dcmitype/StillImage"/>
    <dc:date>2025-07-08T20:31:51.035897</dc:date>
    <dc:format>image/svg+xml</dc:format>
    <dc:creator>
     <cc:Agent>
      <dc:title>Matplotlib v3.10.3, https://matplotlib.org/</dc:title>
     </cc:Agent>
    </dc:creator>
   </cc:Work>
  </rdf:RDF>
 </metadata>
 <defs>
  <style type="text/css">*{stroke-linejoin: round; stroke-linecap: butt}</style>
 </defs>
 <g id="figure_1">
  <g id="patch_1">
   <path d="M 0 297.190125 
L 403.97 297.190125 
L 403.97 0 
L 0 0 
z
" style="fill: #ffffff"/>
  </g>
  <g id="axes_1">
   <g id="patch_2">
    <path d="M 39.65 273.312 
L 396.77 273.312 
L 396.77 7.2 
L 39.65 7.2 
z
" style="fill: #ffffff"/>
   </g>
   <g id="matplotlib.axis_1">
    <g id="xtick_1">
     <g id="line2d_1">
      <defs>
       <path id="mad4a669237" d="M 0 0 
L 0 3.5 
" style="stroke: #000000; stroke-width: 0.8"/>
      </defs>
      <g>
       <use xlink:href="#mad4a669237" x="55.882727" y="273.312" style="stroke: #000000; stroke-width: 0.8"/>
      </g>
     </g>
     <g id="text_1">
      <!-- 0.0 -->
      <g transform="translate(47.931165 287.910437) scale(0.1 -0.1)">
       <defs>
        <path id="DejaVuSans-30" d="M 2034 4250 
Q 1547 4250 1301 3770 
Q 1056 3291 1056 2328 
Q 1056 1369 1301 889 
Q 1547 409 2034 409 
Q 2525 409 2770 889 
Q 3016 1369 3016 2328 
Q 3016 3291 2770 3770 
Q 2525 4250 2034 4250 
z
M 2034 4750 
Q 2819 4750 3233 4129 
Q 3647 3509 3647 2328 
Q 3647 1150 3233 529 
Q 2819 -91 2034 -91 
Q 1250 -91 836 529 
Q 422 1150 422 2328 
Q 422 3509 836 4129 
Q 1250 4750 2034 4750 
z
" transform="scale(0.015625)"/>
        <path id="DejaVuSans-2e" d="M 684 794 
L 1344 794 
L 1344 0 
L 684 0 
L 684 794 
z
" transform="scale(0.015625)"/>
       </defs>
       <use xlink:href="#DejaVuSans-30"/>
       <use xlink:href="#DejaVuSans-2e" transform="translate(63.623047 0)"/>
       <use xlink:href="#DejaVuSans-30" transform="translate(95.410156 0)"/>
      </g>
     </g>
    </g>
    <g id="xtick_2">
     <g id="line2d_2">
      <g>
       <use xlink:href="#mad4a669237" x="96.668474" y="273.312" style="stroke: #000000; stroke-width: 0.8"/>
      </g>
     </g>
     <g id="text_2">
      <!-- 2.5 -->
      <g transform="translate(88.716912 287.910437) scale(0.1 -0.1)">
       <defs>
        <path id="DejaVuSans-32" d="M 1228 531 
L 3431 531 
L 3431 0 
L 469 0 
L 469 531 
Q 828 903 1448 1529 
Q 2069 2156 2228 2338 
Q 2531 2678 2651 2914 
Q 2772 3150 2772 3378 
Q 2772 3750 2511 3984 
Q 2250 4219 1831 4219 
Q 1534 4219 1204 4116 
Q 875 4013 500 3803 
L 500 4441 
Q 881 4594 1212 4672 
Q 1544 4750 1819 4750 
Q 2544 4750 2975 4387 
Q 3406 4025 3406 3419 
Q 3406 3131 3298 2873 
Q 3191 2616 2906 2266 
Q 2828 2175 2409 1742 
Q 1991 1309 1228 531 
z
" transform="scale(0.015625)"/>
        <path id="DejaVuSans-35" d="M 691 4666 
L 3169 4666 
L 3169 4134 
L 1269 4134 
L 1269 2991 
Q 1406 3038 1543 3061 
Q 1681 3084 1819 3084 
Q 2600 3084 3056 2656 
Q 3513 2228 3513 1497 
Q 3513 744 3044 326 
Q 2575 -91 1722 -91 
Q 1428 -91 1123 -41 
Q 819 9 494 109 
L 494 744 
Q 775 591 1075 516 
Q 1375 441 1709 441 
Q 2250 441 2565 725 
Q 2881 1009 2881 1497 
Q 2881 1984 2565 2268 
Q 2250 2553 1709 2553 
Q 1456 2553 1204 2497 
Q 953 2441 691 2322 
L 691 4666 
z
" transform="scale(0.015625)"/>
       </defs>
       <use xlink:href="#DejaVuSans-32"/>
       <use xlink:href="#DejaVuSans-2e" transform="translate(63.623047 0)"/>
       <use xlink:href="#DejaVuSans-35" transform="translate(95.410156 0)"/>
      </g>
     </g>
    </g>
    <g id="xtick_3">
     <g id="line2d_3">
      <g>
       <use xlink:href="#mad4a669237" x="137.454221" y="273.312" style="stroke: #000000; stroke-width: 0.8"/>
      </g>
     </g>
     <g id="text_3">
      <!-- 5.0 -->
      <g transform="translate(129.502659 287.910437) scale(0.1 -0.1)">
       <use xlink:href="#DejaVuSans-35"/>
       <use xlink:href="#DejaVuSans-2e" transform="translate(63.623047 0)"/>
       <use xlink:href="#DejaVuSans-30" transform="translate(95.410156 0)"/>
      </g>
     </g>
    </g>
    <g id="xtick_4">
     <g id="line2d_4">
      <g>
       <use xlink:href="#mad4a669237" x="178.239968" y="273.312" style="stroke: #000000; stroke-width: 0.8"/>
      </g>
     </g>
     <g id="text_4">
      <!-- 7.5 -->
      <g transform="translate(170.288406 287.910437) scale(0.1 -0.1)">
       <defs>
        <path id="DejaVuSans-37" d="M 525 4666 
L 3525 4666 
L 3525 4397 
L 1831 0 
L 1172 0 
L 2766 4134 
L 525 4134 
L 525 4666 
z
" transform="scale(0.015625)"/>
       </defs>
       <use xlink:href="#DejaVuSans-37"/>
       <use xlink:href="#DejaVuSans-2e" transform="translate(63.623047 0)"/>
       <use xlink:href="#DejaVuSans-35" transform="translate(95.410156 0)"/>
      </g>
     </g>
    </g>
    <g id="xtick_5">
     <g id="line2d_5">
      <g>
       <use xlink:href="#mad4a669237" x="219.025715" y="273.312" style="stroke: #000000; stroke-width: 0.8"/>
      </g>
     </g>
     <g id="text_5">
      <!-- 10.0 -->
      <g transform="translate(207.892902 287.910437) scale(0.1 -0.1)">
       <defs>
        <path id="DejaVuSans-31" d="M 794 531 
L 1825 531 
L 1825 4091 
L 703 3866 
L 703 4441 
L 1819 4666 
L 2450 4666 
L 2450 531 
L 3481 531 
L 3481 0 
L 794 0 
L 794 531 
z
" transform="scale(0.015625)"/>
       </defs>
       <use xlink:href="#DejaVuSans-31"/>
       <use xlink:href="#DejaVuSans-30" transform="translate(63.623047 0)"/>
       <use xlink:href="#DejaVuSans-2e" transform="translate(127.246094 0)"/>
       <use xlink:href="#DejaVuSans-30" transform="translate(159.033203 0)"/>
      </g>
     </g>
    </g>
    <g id="xtick_6">
     <g id="line2d_6">
      <g>
       <use xlink:href="#mad4a669237" x="259.811462" y="273.312" style="stroke: #000000; stroke-width: 0.8"/>
      </g>
     </g>
     <g id="text_6">
      <!-- 12.5 -->
      <g transform="translate(248.678649 287.910437) scale(0.1 -0.1)">
       <use xlink:href="#DejaVuSans-31"/>
       <use xlink:href="#DejaVuSans-32" transform="translate(63.623047 0)"/>
       <use xlink:href="#DejaVuSans-2e" transform="translate(127.246094 0)"/>
       <use xlink:href="#DejaVuSans-35" transform="translate(159.033203 0)"/>
      </g>
     </g>
    </g>
    <g id="xtick_7">
     <g id="line2d_7">
      <g>
       <use xlink:href="#mad4a669237" x="300.597209" y="273.312" style="stroke: #000000; stroke-width: 0.8"/>
      </g>
     </g>
     <g id="text_7">
      <!-- 15.0 -->
      <g transform="translate(289.464396 287.910437) scale(0.1 -0.1)">
       <use xlink:href="#DejaVuSans-31"/>
       <use xlink:href="#DejaVuSans-35" transform="translate(63.623047 0)"/>
       <use xlink:href="#DejaVuSans-2e" transform="translate(127.246094 0)"/>
       <use xlink:href="#DejaVuSans-30" transform="translate(159.033203 0)"/>
      </g>
     </g>
    </g>
    <g id="xtick_8">
     <g id="line2d_8">
      <g>
       <use xlink:href="#mad4a669237" x="341.382956" y="273.312" style="stroke: #000000; stroke-width: 0.8"/>
      </g>
     </g>
     <g id="text_8">
      <!-- 17.5 -->
      <g transform="translate(330.250143 287.910437) scale(0.1 -0.1)">
       <use xlink:href="#DejaVuSans-31"/>
       <use xlink:href="#DejaVuSans-37" transform="translate(63.623047 0)"/>
       <use xlink:href="#DejaVuSans-2e" transform="translate(127.246094 0)"/>
       <use xlink:href="#DejaVuSans-35" transform="translate(159.033203 0)"/>
      </g>
     </g>
    </g>
    <g id="xtick_9">
     <g id="line2d_9">
      <g>
       <use xlink:href="#mad4a669237" x="382.168703" y="273.312" style="stroke: #000000; stroke-width: 0.8"/>
      </g>
     </g>
     <g id="text_9">
      <!-- 20.0 -->
      <g transform="translate(371.03589 287.910437) scale(0.1 -0.1)">
       <use xlink:href="#DejaVuSans-32"/>
       <use xlink:href="#DejaVuSans-30" transform="translate(63.623047 0)"/>
       <use xlink:href="#DejaVuSans-2e" transform="translate(127.246094 0)"/>
       <use xlink:href="#DejaVuSans-30" transform="translate(159.033203 0)"/>
      </g>
     </g>
    </g>
   </g>
   <g id="matplotlib.axis_2">
    <g id="ytick_1">
     <g id="line2d_10">
      <defs>
       <path id="mb030600625" d="M 0 0 
L -3.5 0 
" style="stroke: #000000; stroke-width: 0.8"/>
      </defs>
      <g>
       <use xlink:href="#mb030600625" x="39.65" y="261.216" style="stroke: #000000; stroke-width: 0.8"/>
      </g>
     </g>
     <g id="text_10">
      <!-- 0 -->
      <g transform="translate(26.2875 265.015219) scale(0.1 -0.1)">
       <use xlink:href="#DejaVuSans-30"/>
      </g>
     </g>
    </g>
    <g id="ytick_2">
     <g id="line2d_11">
      <g>
       <use xlink:href="#mb030600625" x="39.65" y="221.347839" style="stroke: #000000; stroke-width: 0.8"/>
      </g>
     </g>
     <g id="text_11">
      <!-- 500 -->
      <g transform="translate(13.5625 225.147058) scale(0.1 -0.1)">
       <use xlink:href="#DejaVuSans-35"/>
       <use xlink:href="#DejaVuSans-30" transform="translate(63.623047 0)"/>
       <use xlink:href="#DejaVuSans-30" transform="translate(127.246094 0)"/>
      </g>
     </g>
    </g>
    <g id="ytick_3">
     <g id="line2d_12">
      <g>
       <use xlink:href="#mb030600625" x="39.65" y="181.479678" style="stroke: #000000; stroke-width: 0.8"/>
      </g>
     </g>
     <g id="text_12">
      <!-- 1000 -->
      <g transform="translate(7.2 185.278897) scale(0.1 -0.1)">
       <use xlink:href="#DejaVuSans-31"/>
       <use xlink:href="#DejaVuSans-30" transform="translate(63.623047 0)"/>
       <use xlink:href="#DejaVuSans-30" transform="translate(127.246094 0)"/>
       <use xlink:href="#DejaVuSans-30" transform="translate(190.869141 0)"/>
      </g>
     </g>
    </g>
    <g id="ytick_4">
     <g id="line2d_13">
      <g>
       <use xlink:href="#mb030600625" x="39.65" y="141.611517" style="stroke: #000000; stroke-width: 0.8"/>
      </g>
     </g>
     <g id="text_13">
      <!-- 1500 -->
      <g transform="translate(7.2 145.410736) scale(0.1 -0.1)">
       <use xlink:href="#DejaVuSans-31"/>
       <use xlink:href="#DejaVuSans-35" transform="translate(63.623047 0)"/>
       <use xlink:href="#DejaVuSans-30" transform="translate(127.246094 0)"/>
       <use xlink:href="#DejaVuSans-30" transform="translate(190.869141 0)"/>
      </g>
     </g>
    </g>
    <g id="ytick_5">
     <g id="line2d_14">
      <g>
       <use xlink:href="#mb030600625" x="39.65" y="101.743357" style="stroke: #000000; stroke-width: 0.8"/>
      </g>
     </g>
     <g id="text_14">
      <!-- 2000 -->
      <g transform="translate(7.2 105.542575) scale(0.1 -0.1)">
       <use xlink:href="#DejaVuSans-32"/>
       <use xlink:href="#DejaVuSans-30" transform="translate(63.623047 0)"/>
       <use xlink:href="#DejaVuSans-30" transform="translate(127.246094 0)"/>
       <use xlink:href="#DejaVuSans-30" transform="translate(190.869141 0)"/>
      </g>
     </g>
    </g>
    <g id="ytick_6">
     <g id="line2d_15">
      <g>
       <use xlink:href="#mb030600625" x="39.65" y="61.875196" style="stroke: #000000; stroke-width: 0.8"/>
      </g>
     </g>
     <g id="text_15">
      <!-- 2500 -->
      <g transform="translate(7.2 65.674415) scale(0.1 -0.1)">
       <use xlink:href="#DejaVuSans-32"/>
       <use xlink:href="#DejaVuSans-35" transform="translate(63.623047 0)"/>
       <use xlink:href="#DejaVuSans-30" transform="translate(127.246094 0)"/>
       <use xlink:href="#DejaVuSans-30" transform="translate(190.869141 0)"/>
      </g>
     </g>
    </g>
    <g id="ytick_7">
     <g id="line2d_16">
      <g>
       <use xlink:href="#mb030600625" x="39.65" y="22.007035" style="stroke: #000000; stroke-width: 0.8"/>
      </g>
     </g>
     <g id="text_16">
      <!-- 3000 -->
      <g transform="translate(7.2 25.806254) scale(0.1 -0.1)">
       <defs>
        <path id="DejaVuSans-33" d="M 2597 2516 
Q 3050 2419 3304 2112 
Q 3559 1806 3559 1356 
Q 3559 666 3084 287 
Q 2609 -91 1734 -91 
Q 1441 -91 1130 -33 
Q 819 25 488 141 
L 488 750 
Q 750 597 1062 519 
Q 1375 441 1716 441 
Q 2309 441 2620 675 
Q 2931 909 2931 1356 
Q 2931 1769 2642 2001 
Q 2353 2234 1838 2234 
L 1294 2234 
L 1294 2753 
L 1863 2753 
Q 2328 2753 2575 2939 
Q 2822 3125 2822 3475 
Q 2822 3834 2567 4026 
Q 2313 4219 1838 4219 
Q 1578 4219 1281 4162 
Q 984 4106 628 3988 
L 628 4550 
Q 988 4650 1302 4700 
Q 1616 4750 1894 4750 
Q 2613 4750 3031 4423 
Q 3450 4097 3450 3541 
Q 3450 3153 3228 2886 
Q 3006 2619 2597 2516 
z
" transform="scale(0.015625)"/>
       </defs>
       <use xlink:href="#DejaVuSans-33"/>
       <use xlink:href="#DejaVuSans-30" transform="translate(63.623047 0)"/>
       <use xlink:href="#DejaVuSans-30" transform="translate(127.246094 0)"/>
       <use xlink:href="#DejaVuSans-30" transform="translate(190.869141 0)"/>
      </g>
     </g>
    </g>
   </g>
   <g id="line2d_17">
    <path d="M 55.882727 261.216 
L 72.197026 181.479678 
L 88.511325 128.322131 
L 104.825624 92.883765 
L 121.139922 69.258189 
L 137.454221 53.507804 
L 153.76852 43.007548 
L 170.082819 36.007377 
L 186.397117 31.340596 
L 202.711416 28.229409 
L 219.025715 26.155284 
L 235.340014 24.772535 
L 251.654312 23.850701 
L 267.968611 23.236146 
L 284.28291 22.826442 
L 300.597209 22.553306 
L 316.911508 22.371216 
L 333.225806 22.249822 
L 349.540105 22.168893 
L 365.854404 22.11494 
" clip-path="url(#p2b2870e526)" style="fill: none; stroke: #1f77b4; stroke-width: 1.5; stroke-linecap: square"/>
   </g>
   <g id="line2d_18">
    <path d="M 55.882727 261.216 
L 72.197026 261.216 
L 88.511325 234.637226 
L 104.825624 208.058452 
L 121.139922 187.386073 
L 137.454221 172.620087 
L 153.76852 162.447964 
L 170.082819 155.55717 
L 186.397117 150.926849 
L 202.711416 147.827815 
L 219.025715 145.757741 
L 235.340014 144.376342 
L 251.654312 143.454959 
L 267.968611 142.840553 
L 284.28291 142.4309 
L 300.597209 142.157781 
L 316.911508 141.975696 
L 333.225806 141.854304 
L 349.540105 141.773375 
L 365.854404 141.719423 
" clip-path="url(#p2b2870e526)" style="fill: none; stroke: #ff7f0e; stroke-width: 1.5; stroke-linecap: square"/>
   </g>
   <g id="line2d_19">
    <path d="M 55.882727 261.216 
L 59.145587 243.913218 
L 62.408447 228.763317 
L 64.039877 222.862829 
L 65.671307 215.527088 
L 67.302736 209.6266 
L 70.565596 196.868788 
L 72.197026 191.526455 
L 73.828456 187.699111 
L 77.091316 176.934708 
L 78.722746 171.592374 
L 80.354175 167.286613 
L 81.985605 161.226653 
L 83.617035 154.369329 
L 85.248465 151.259612 
L 86.879895 145.837543 
L 90.142755 136.189448 
L 91.774185 131.883686 
L 93.405614 129.730806 
L 95.037044 127.817134 
L 98.299904 121.916646 
L 99.931334 118.248775 
L 101.562764 116.175631 
L 103.194194 112.667233 
L 104.825624 109.796725 
L 106.457053 108.201999 
L 108.088483 105.172018 
L 109.719913 101.504148 
L 111.351343 99.829685 
L 112.982773 99.431003 
L 114.614203 96.321287 
L 116.245633 94.168406 
L 117.877063 93.052098 
L 119.508492 90.580272 
L 121.139922 89.224754 
L 122.771352 84.679784 
L 124.402782 82.207958 
L 126.034212 79.33745 
L 127.665642 77.981933 
L 129.297072 75.749316 
L 130.928502 73.197753 
L 132.559931 72.958544 
L 134.191361 71.363818 
L 135.822791 69.210937 
L 137.454221 68.732519 
L 140.717081 64.984912 
L 142.348511 64.82544 
L 145.61137 60.838624 
L 147.2428 59.084425 
L 148.87423 58.127589 
L 150.50566 54.778663 
L 152.13709 52.625782 
L 153.76852 52.067628 
L 155.39995 51.668947 
L 157.03138 52.227101 
L 158.66281 51.987892 
L 160.294239 50.07422 
L 161.925669 48.957912 
L 163.557099 48.240285 
L 165.188529 46.964504 
L 166.819959 46.087404 
L 168.451389 45.449514 
L 170.082819 44.412941 
L 171.714249 43.615578 
L 173.345678 45.050832 
L 174.977108 42.897951 
L 176.608538 44.492678 
L 181.502828 41.941115 
L 183.134258 39.947707 
L 184.765688 39.628762 
L 186.397117 41.941115 
L 188.028547 43.296633 
L 189.659977 44.253469 
L 191.291407 43.13716 
L 192.922837 42.579006 
L 194.554267 42.738479 
L 196.185697 43.13716 
L 197.817127 42.738479 
L 199.448556 41.143752 
L 201.079986 41.143752 
L 202.711416 38.59219 
L 204.342846 38.59219 
L 205.974276 37.555618 
L 207.605706 35.881155 
L 209.237136 37.475881 
L 210.868566 37.236672 
L 212.499995 36.120364 
L 214.131425 38.193508 
L 215.762855 37.156936 
L 217.394285 38.671926 
L 219.025715 38.113772 
L 220.657145 37.954299 
L 222.288575 36.359573 
L 225.551434 35.323001 
L 227.182864 32.611966 
L 228.814294 33.090384 
L 230.445724 32.611966 
L 232.077154 32.532229 
L 233.708584 31.096976 
L 235.340014 31.974075 
L 236.971444 31.65513 
L 238.602873 29.900931 
L 240.234303 29.502249 
L 241.865733 28.62515 
L 243.497163 29.183304 
L 245.128593 28.385941 
L 246.760023 27.907523 
L 248.391453 26.711478 
L 250.022883 26.472269 
L 251.654312 25.674906 
L 253.285742 26.23306 
L 254.917172 25.196488 
L 256.548602 26.711478 
L 258.180032 26.23306 
L 259.811462 27.907523 
L 261.442892 27.429105 
L 263.074322 25.595169 
L 264.705751 25.037015 
L 266.337181 24.957279 
L 267.968611 24.000443 
L 269.600041 22.804398 
L 271.231471 21.767826 
L 272.862901 23.123343 
L 274.494331 22.804398 
L 276.125761 24.159916 
L 277.75719 24.877543 
L 279.38862 25.993851 
L 281.02005 25.35596 
L 284.28291 27.987259 
L 285.91434 28.226468 
L 287.54577 28.066995 
L 289.1772 29.342777 
L 290.80863 31.256448 
L 292.440059 30.937503 
L 294.071489 29.103568 
L 295.702919 27.987259 
L 297.334349 26.073587 
L 298.965779 23.84097 
L 300.597209 25.037015 
L 302.228639 24.239652 
L 303.860069 26.472269 
L 305.491498 24.478861 
L 307.122928 25.037015 
L 308.754358 25.116751 
L 310.385788 27.269632 
L 312.017218 27.668314 
L 313.648648 27.74805 
L 315.280078 29.183304 
L 316.911508 28.784622 
L 318.542937 27.11016 
L 320.174367 24.558597 
L 321.805797 21.608353 
L 323.437227 20.571781 
L 325.068657 20.890726 
L 328.331517 21.927299 
L 329.962947 21.68809 
L 331.594376 23.522025 
L 333.225806 23.20308 
L 334.857236 23.761234 
L 336.488666 26.392533 
L 338.120096 24.319388 
L 341.382956 24.957279 
L 343.014386 25.595169 
L 344.645815 24.957279 
L 346.277245 23.20308 
L 347.908675 22.884134 
L 349.540105 20.970463 
L 351.171535 22.565189 
L 352.802965 22.32598 
L 354.434395 22.963871 
L 356.065825 23.282816 
L 357.697254 23.282816 
L 359.328684 23.123343 
L 360.960114 22.007035 
L 362.591544 19.854154 
L 364.222974 19.296 
L 365.854404 19.455473 
L 367.485834 20.890726 
L 369.117264 21.608353 
L 370.748693 21.209672 
L 372.380123 21.369144 
L 374.011553 20.1731 
L 375.642983 20.412309 
L 377.274413 20.970463 
L 378.905843 20.651517 
L 380.537273 21.209672 
L 380.537273 21.209672 
" clip-path="url(#p2b2870e526)" style="fill: none; stroke: #2ca02c; stroke-width: 1.5; stroke-linecap: square"/>
   </g>
   <g id="line2d_20">
    <path d="M 55.882727 261.216 
L 59.145587 260.817318 
L 62.408447 259.302328 
L 64.039877 257.787338 
L 65.671307 256.67103 
L 67.302736 255.15604 
L 68.934166 253.959995 
L 70.565596 251.966587 
L 72.197026 251.24896 
L 73.828456 248.697397 
L 75.459886 246.46478 
L 77.091316 245.268736 
L 78.722746 243.913218 
L 80.354175 241.521129 
L 81.985605 240.085875 
L 83.617035 238.810094 
L 86.879895 234.185387 
L 88.511325 231.235143 
L 90.142755 229.321471 
L 91.774185 227.806481 
L 93.405614 225.733337 
L 95.037044 222.62362 
L 98.299904 218.796277 
L 101.562764 216.005506 
L 103.194194 215.208142 
L 104.825624 213.932361 
L 106.457053 210.982117 
L 108.088483 208.510291 
L 109.719913 206.995301 
L 111.351343 205.878993 
L 112.982773 204.124794 
L 114.614203 203.167958 
L 116.245633 201.652968 
L 117.877063 199.978505 
L 119.508492 198.463515 
L 121.139922 196.151162 
L 122.771352 195.593007 
L 124.402782 193.440127 
L 126.034212 192.483291 
L 127.665642 190.170937 
L 129.297072 188.337002 
L 130.928502 185.705703 
L 132.559931 183.632559 
L 135.822791 182.51625 
L 137.454221 181.559415 
L 139.085651 179.48627 
L 140.717081 178.210489 
L 142.348511 178.290225 
L 145.61137 177.33339 
L 147.2428 176.217081 
L 148.87423 175.260245 
L 150.50566 176.137345 
L 152.13709 175.180509 
L 153.76852 173.266837 
L 155.39995 172.54921 
L 158.66281 170.236857 
L 160.294239 170.077384 
L 161.925669 170.635539 
L 163.557099 169.359757 
L 165.188529 168.243449 
L 166.819959 166.887931 
L 168.451389 164.814787 
L 170.082819 163.299797 
L 171.714249 163.539006 
L 173.345678 161.226653 
L 174.977108 162.103752 
L 176.608538 159.153508 
L 179.871398 158.994036 
L 181.502828 159.153508 
L 183.134258 159.711662 
L 184.765688 158.356145 
L 186.397117 156.362737 
L 188.028547 154.768011 
L 189.659977 154.050384 
L 191.291407 153.651702 
L 192.922837 153.811175 
L 194.554267 153.571966 
L 196.185697 151.498821 
L 197.817127 151.977239 
L 199.448556 154.528802 
L 201.079986 153.970647 
L 202.711416 155.565374 
L 204.342846 153.332757 
L 205.974276 153.412493 
L 207.605706 153.093548 
L 209.237136 152.934075 
L 210.868566 151.10014 
L 212.499995 150.701458 
L 214.131425 149.266204 
L 215.762855 150.860931 
L 217.394285 151.578558 
L 219.025715 151.419085 
L 220.657145 152.375921 
L 223.920005 150.621722 
L 225.551434 149.58515 
L 227.182864 152.61513 
L 228.814294 149.904095 
L 230.445724 149.744622 
L 232.077154 149.266204 
L 233.708584 148.229632 
L 235.340014 148.229632 
L 236.971444 149.026995 
L 238.602873 150.063568 
L 240.234303 149.026995 
L 241.865733 149.026995 
L 243.497163 146.714642 
L 245.128593 147.113324 
L 246.760023 144.880707 
L 248.391453 144.16308 
L 250.022883 144.641498 
L 251.654312 145.757806 
L 253.285742 145.199652 
L 254.917172 146.555169 
L 256.548602 147.033587 
L 258.180032 146.714642 
L 259.811462 145.837543 
L 263.074322 147.751214 
L 264.705751 146.156488 
L 267.968611 145.119916 
L 269.600041 146.076751 
L 271.231471 146.395697 
L 272.862901 145.279388 
L 274.494331 145.757806 
L 276.125761 145.438861 
L 279.38862 143.764398 
L 281.02005 144.960443 
L 282.65148 142.488617 
L 284.28291 143.046771 
L 285.91434 141.77099 
L 287.54577 143.046771 
L 289.1772 142.249408 
L 290.80863 140.893891 
L 292.440059 140.016791 
L 294.071489 142.010199 
L 295.702919 142.967035 
L 297.334349 142.64809 
L 298.965779 141.77099 
L 300.597209 141.77099 
L 302.228639 142.249408 
L 303.860069 142.249408 
L 305.491498 142.807562 
L 307.122928 142.887299 
L 308.754358 141.930463 
L 310.385788 140.176264 
L 312.017218 140.256 
L 313.648648 141.1331 
L 315.280078 140.335736 
L 316.911508 140.814154 
L 318.542937 142.329144 
L 320.174367 143.206244 
L 321.805797 144.561761 
L 323.437227 144.16308 
L 325.068657 145.518597 
L 326.700087 143.923871 
L 328.331517 143.923871 
L 329.962947 144.242816 
L 331.594376 143.923871 
L 333.225806 144.721234 
L 334.857236 144.083343 
L 336.488666 141.212836 
L 338.120096 142.727826 
L 339.751526 141.531781 
L 341.382956 139.857318 
L 343.014386 140.415473 
L 344.645815 142.010199 
L 346.277245 140.893891 
L 347.908675 138.74101 
L 349.540105 138.980219 
L 351.171535 137.704438 
L 352.802965 136.269184 
L 356.065825 136.34892 
L 357.697254 136.827338 
L 359.328684 136.508393 
L 360.960114 137.943647 
L 362.591544 138.980219 
L 364.222974 140.176264 
L 365.854404 140.016791 
L 367.485834 139.458637 
L 369.117264 139.299164 
L 370.748693 139.3789 
L 372.380123 138.74101 
L 374.011553 138.581537 
L 375.642983 138.262592 
L 377.274413 138.581537 
L 378.905843 136.667866 
L 380.537273 137.624701 
L 380.537273 137.624701 
" clip-path="url(#p2b2870e526)" style="fill: none; stroke: #d62728; stroke-width: 1.5; stroke-linecap: square"/>
   </g>
   <g id="patch_3">
    <path d="M 39.65 273.312 
L 39.65 7.2 
" style="fill: none; stroke: #000000; stroke-width: 0.8; stroke-linejoin: miter; stroke-linecap: square"/>
   </g>
   <g id="patch_4">
    <path d="M 396.77 273.312 
L 396.77 7.2 
" style="fill: none; stroke: #000000; stroke-width: 0.8; stroke-linejoin: miter; stroke-linecap: square"/>
   </g>
   <g id="patch_5">
    <path d="M 39.65 273.312 
L 396.77 273.312 
" style="fill: none; stroke: #000000; stroke-width: 0.8; stroke-linejoin: miter; stroke-linecap: square"/>
   </g>
   <g id="patch_6">
    <path d="M 39.65 7.2 
L 396.77 7.2 
" style="fill: none; stroke: #000000; stroke-width: 0.8; stroke-linejoin: miter; stroke-linecap: square"/>
   </g>
  </g>
 </g>
 <defs>
  <clipPath id="p2b2870e526">
   <rect x="39.65" y="7.2" width="357.12" height="266.112"/>
  </clipPath>
 </defs>
</svg>
