<?xml version="1.0" encoding="utf-8" standalone="no"?>
<!DOCTYPE svg PUBLIC "-//W3C//DTD SVG 1.1//EN"
  "http://www.w3.org/Graphics/SVG/1.1/DTD/svg11.dtd">
<svg xmlns:xlink="http://www.w3.org/1999/xlink" width="403.97pt" height="297.190125pt" viewBox="0 0 403.97 297.190125" xmlns="http://www.w3.org/2000/svg" version="1.1">
 <metadata>
  <rdf:RDF xmlns:dc="http://purl.org/dc/elements/1.1/" xmlns:cc="http://creativecommons.org/ns#" xmlns:rdf="http://www.w3.org/1999/02/22-rdf-syntax-ns#">
   <cc:Work>
    <dc:type rdf:resource="http://purl.org/dc/dcmitype/StillImage"/>
    <dc:date>2025-07-21T07:02:39.981198</dc:date>
    <dc:format>image/svg+xml</dc:format>
    <dc:creator>
     <cc:Agent>
      <dc:title>Matplotlib v3.10.3, https://matplotlib.org/</dc:title>
     </cc:Agent>
    </dc:creator>
   </cc:Work>
  </rdf:RDF>
 </metadata>
 <defs>
  <style type="text/css">*{stroke-linejoin: round; stroke-linecap: butt}</style>
 </defs>
 <g id="figure_1">
  <g id="patch_1">
   <path d="M 0 297.190125 
L 403.97 297.190125 
L 403.97 0 
L 0 0 
z
" style="fill: #ffffff"/>
  </g>
  <g id="axes_1">
   <g id="patch_2">
    <path d="M 39.65 273.312 
L 396.77 273.312 
L 396.77 7.2 
L 39.65 7.2 
z
" style="fill: #ffffff"/>
   </g>
   <g id="matplotlib.axis_1">
    <g id="xtick_1">
     <g id="line2d_1">
      <defs>
       <path id="me07335f6ee" d="M 0 0 
L 0 3.5 
" style="stroke: #000000; stroke-width: 0.8"/>
      </defs>
      <g>
       <use xlink:href="#me07335f6ee" x="55.882727" y="273.312" style="stroke: #000000; stroke-width: 0.8"/>
      </g>
     </g>
     <g id="text_1">
      <!-- 0.0 -->
      <g transform="translate(47.931165 287.910437) scale(0.1 -0.1)">
       <defs>
        <path id="DejaVuSans-30" d="M 2034 4250 
Q 1547 4250 1301 3770 
Q 1056 3291 1056 2328 
Q 1056 1369 1301 889 
Q 1547 409 2034 409 
Q 2525 409 2770 889 
Q 3016 1369 3016 2328 
Q 3016 3291 2770 3770 
Q 2525 4250 2034 4250 
z
M 2034 4750 
Q 2819 4750 3233 4129 
Q 3647 3509 3647 2328 
Q 3647 1150 3233 529 
Q 2819 -91 2034 -91 
Q 1250 -91 836 529 
Q 422 1150 422 2328 
Q 422 3509 836 4129 
Q 1250 4750 2034 4750 
z
" transform="scale(0.015625)"/>
        <path id="DejaVuSans-2e" d="M 684 794 
L 1344 794 
L 1344 0 
L 684 0 
L 684 794 
z
" transform="scale(0.015625)"/>
       </defs>
       <use xlink:href="#DejaVuSans-30"/>
       <use xlink:href="#DejaVuSans-2e" transform="translate(63.623047 0)"/>
       <use xlink:href="#DejaVuSans-30" transform="translate(95.410156 0)"/>
      </g>
     </g>
    </g>
    <g id="xtick_2">
     <g id="line2d_2">
      <g>
       <use xlink:href="#me07335f6ee" x="96.668474" y="273.312" style="stroke: #000000; stroke-width: 0.8"/>
      </g>
     </g>
     <g id="text_2">
      <!-- 2.5 -->
      <g transform="translate(88.716912 287.910437) scale(0.1 -0.1)">
       <defs>
        <path id="DejaVuSans-32" d="M 1228 531 
L 3431 531 
L 3431 0 
L 469 0 
L 469 531 
Q 828 903 1448 1529 
Q 2069 2156 2228 2338 
Q 2531 2678 2651 2914 
Q 2772 3150 2772 3378 
Q 2772 3750 2511 3984 
Q 2250 4219 1831 4219 
Q 1534 4219 1204 4116 
Q 875 4013 500 3803 
L 500 4441 
Q 881 4594 1212 4672 
Q 1544 4750 1819 4750 
Q 2544 4750 2975 4387 
Q 3406 4025 3406 3419 
Q 3406 3131 3298 2873 
Q 3191 2616 2906 2266 
Q 2828 2175 2409 1742 
Q 1991 1309 1228 531 
z
" transform="scale(0.015625)"/>
        <path id="DejaVuSans-35" d="M 691 4666 
L 3169 4666 
L 3169 4134 
L 1269 4134 
L 1269 2991 
Q 1406 3038 1543 3061 
Q 1681 3084 1819 3084 
Q 2600 3084 3056 2656 
Q 3513 2228 3513 1497 
Q 3513 744 3044 326 
Q 2575 -91 1722 -91 
Q 1428 -91 1123 -41 
Q 819 9 494 109 
L 494 744 
Q 775 591 1075 516 
Q 1375 441 1709 441 
Q 2250 441 2565 725 
Q 2881 1009 2881 1497 
Q 2881 1984 2565 2268 
Q 2250 2553 1709 2553 
Q 1456 2553 1204 2497 
Q 953 2441 691 2322 
L 691 4666 
z
" transform="scale(0.015625)"/>
       </defs>
       <use xlink:href="#DejaVuSans-32"/>
       <use xlink:href="#DejaVuSans-2e" transform="translate(63.623047 0)"/>
       <use xlink:href="#DejaVuSans-35" transform="translate(95.410156 0)"/>
      </g>
     </g>
    </g>
    <g id="xtick_3">
     <g id="line2d_3">
      <g>
       <use xlink:href="#me07335f6ee" x="137.454221" y="273.312" style="stroke: #000000; stroke-width: 0.8"/>
      </g>
     </g>
     <g id="text_3">
      <!-- 5.0 -->
      <g transform="translate(129.502659 287.910437) scale(0.1 -0.1)">
       <use xlink:href="#DejaVuSans-35"/>
       <use xlink:href="#DejaVuSans-2e" transform="translate(63.623047 0)"/>
       <use xlink:href="#DejaVuSans-30" transform="translate(95.410156 0)"/>
      </g>
     </g>
    </g>
    <g id="xtick_4">
     <g id="line2d_4">
      <g>
       <use xlink:href="#me07335f6ee" x="178.239968" y="273.312" style="stroke: #000000; stroke-width: 0.8"/>
      </g>
     </g>
     <g id="text_4">
      <!-- 7.5 -->
      <g transform="translate(170.288406 287.910437) scale(0.1 -0.1)">
       <defs>
        <path id="DejaVuSans-37" d="M 525 4666 
L 3525 4666 
L 3525 4397 
L 1831 0 
L 1172 0 
L 2766 4134 
L 525 4134 
L 525 4666 
z
" transform="scale(0.015625)"/>
       </defs>
       <use xlink:href="#DejaVuSans-37"/>
       <use xlink:href="#DejaVuSans-2e" transform="translate(63.623047 0)"/>
       <use xlink:href="#DejaVuSans-35" transform="translate(95.410156 0)"/>
      </g>
     </g>
    </g>
    <g id="xtick_5">
     <g id="line2d_5">
      <g>
       <use xlink:href="#me07335f6ee" x="219.025715" y="273.312" style="stroke: #000000; stroke-width: 0.8"/>
      </g>
     </g>
     <g id="text_5">
      <!-- 10.0 -->
      <g transform="translate(207.892902 287.910437) scale(0.1 -0.1)">
       <defs>
        <path id="DejaVuSans-31" d="M 794 531 
L 1825 531 
L 1825 4091 
L 703 3866 
L 703 4441 
L 1819 4666 
L 2450 4666 
L 2450 531 
L 3481 531 
L 3481 0 
L 794 0 
L 794 531 
z
" transform="scale(0.015625)"/>
       </defs>
       <use xlink:href="#DejaVuSans-31"/>
       <use xlink:href="#DejaVuSans-30" transform="translate(63.623047 0)"/>
       <use xlink:href="#DejaVuSans-2e" transform="translate(127.246094 0)"/>
       <use xlink:href="#DejaVuSans-30" transform="translate(159.033203 0)"/>
      </g>
     </g>
    </g>
    <g id="xtick_6">
     <g id="line2d_6">
      <g>
       <use xlink:href="#me07335f6ee" x="259.811462" y="273.312" style="stroke: #000000; stroke-width: 0.8"/>
      </g>
     </g>
     <g id="text_6">
      <!-- 12.5 -->
      <g transform="translate(248.678649 287.910437) scale(0.1 -0.1)">
       <use xlink:href="#DejaVuSans-31"/>
       <use xlink:href="#DejaVuSans-32" transform="translate(63.623047 0)"/>
       <use xlink:href="#DejaVuSans-2e" transform="translate(127.246094 0)"/>
       <use xlink:href="#DejaVuSans-35" transform="translate(159.033203 0)"/>
      </g>
     </g>
    </g>
    <g id="xtick_7">
     <g id="line2d_7">
      <g>
       <use xlink:href="#me07335f6ee" x="300.597209" y="273.312" style="stroke: #000000; stroke-width: 0.8"/>
      </g>
     </g>
     <g id="text_7">
      <!-- 15.0 -->
      <g transform="translate(289.464396 287.910437) scale(0.1 -0.1)">
       <use xlink:href="#DejaVuSans-31"/>
       <use xlink:href="#DejaVuSans-35" transform="translate(63.623047 0)"/>
       <use xlink:href="#DejaVuSans-2e" transform="translate(127.246094 0)"/>
       <use xlink:href="#DejaVuSans-30" transform="translate(159.033203 0)"/>
      </g>
     </g>
    </g>
    <g id="xtick_8">
     <g id="line2d_8">
      <g>
       <use xlink:href="#me07335f6ee" x="341.382956" y="273.312" style="stroke: #000000; stroke-width: 0.8"/>
      </g>
     </g>
     <g id="text_8">
      <!-- 17.5 -->
      <g transform="translate(330.250143 287.910437) scale(0.1 -0.1)">
       <use xlink:href="#DejaVuSans-31"/>
       <use xlink:href="#DejaVuSans-37" transform="translate(63.623047 0)"/>
       <use xlink:href="#DejaVuSans-2e" transform="translate(127.246094 0)"/>
       <use xlink:href="#DejaVuSans-35" transform="translate(159.033203 0)"/>
      </g>
     </g>
    </g>
    <g id="xtick_9">
     <g id="line2d_9">
      <g>
       <use xlink:href="#me07335f6ee" x="382.168703" y="273.312" style="stroke: #000000; stroke-width: 0.8"/>
      </g>
     </g>
     <g id="text_9">
      <!-- 20.0 -->
      <g transform="translate(371.03589 287.910437) scale(0.1 -0.1)">
       <use xlink:href="#DejaVuSans-32"/>
       <use xlink:href="#DejaVuSans-30" transform="translate(63.623047 0)"/>
       <use xlink:href="#DejaVuSans-2e" transform="translate(127.246094 0)"/>
       <use xlink:href="#DejaVuSans-30" transform="translate(159.033203 0)"/>
      </g>
     </g>
    </g>
   </g>
   <g id="matplotlib.axis_2">
    <g id="ytick_1">
     <g id="line2d_10">
      <defs>
       <path id="meb37ffb967" d="M 0 0 
L -3.5 0 
" style="stroke: #000000; stroke-width: 0.8"/>
      </defs>
      <g>
       <use xlink:href="#meb37ffb967" x="39.65" y="261.216" style="stroke: #000000; stroke-width: 0.8"/>
      </g>
     </g>
     <g id="text_10">
      <!-- 0 -->
      <g transform="translate(26.2875 265.015219) scale(0.1 -0.1)">
       <use xlink:href="#DejaVuSans-30"/>
      </g>
     </g>
    </g>
    <g id="ytick_2">
     <g id="line2d_11">
      <g>
       <use xlink:href="#meb37ffb967" x="39.65" y="222.120977" style="stroke: #000000; stroke-width: 0.8"/>
      </g>
     </g>
     <g id="text_11">
      <!-- 500 -->
      <g transform="translate(13.5625 225.920196) scale(0.1 -0.1)">
       <use xlink:href="#DejaVuSans-35"/>
       <use xlink:href="#DejaVuSans-30" transform="translate(63.623047 0)"/>
       <use xlink:href="#DejaVuSans-30" transform="translate(127.246094 0)"/>
      </g>
     </g>
    </g>
    <g id="ytick_3">
     <g id="line2d_12">
      <g>
       <use xlink:href="#meb37ffb967" x="39.65" y="183.025955" style="stroke: #000000; stroke-width: 0.8"/>
      </g>
     </g>
     <g id="text_12">
      <!-- 1000 -->
      <g transform="translate(7.2 186.825174) scale(0.1 -0.1)">
       <use xlink:href="#DejaVuSans-31"/>
       <use xlink:href="#DejaVuSans-30" transform="translate(63.623047 0)"/>
       <use xlink:href="#DejaVuSans-30" transform="translate(127.246094 0)"/>
       <use xlink:href="#DejaVuSans-30" transform="translate(190.869141 0)"/>
      </g>
     </g>
    </g>
    <g id="ytick_4">
     <g id="line2d_13">
      <g>
       <use xlink:href="#meb37ffb967" x="39.65" y="143.930932" style="stroke: #000000; stroke-width: 0.8"/>
      </g>
     </g>
     <g id="text_13">
      <!-- 1500 -->
      <g transform="translate(7.2 147.730151) scale(0.1 -0.1)">
       <use xlink:href="#DejaVuSans-31"/>
       <use xlink:href="#DejaVuSans-35" transform="translate(63.623047 0)"/>
       <use xlink:href="#DejaVuSans-30" transform="translate(127.246094 0)"/>
       <use xlink:href="#DejaVuSans-30" transform="translate(190.869141 0)"/>
      </g>
     </g>
    </g>
    <g id="ytick_5">
     <g id="line2d_14">
      <g>
       <use xlink:href="#meb37ffb967" x="39.65" y="104.83591" style="stroke: #000000; stroke-width: 0.8"/>
      </g>
     </g>
     <g id="text_14">
      <!-- 2000 -->
      <g transform="translate(7.2 108.635128) scale(0.1 -0.1)">
       <use xlink:href="#DejaVuSans-32"/>
       <use xlink:href="#DejaVuSans-30" transform="translate(63.623047 0)"/>
       <use xlink:href="#DejaVuSans-30" transform="translate(127.246094 0)"/>
       <use xlink:href="#DejaVuSans-30" transform="translate(190.869141 0)"/>
      </g>
     </g>
    </g>
    <g id="ytick_6">
     <g id="line2d_15">
      <g>
       <use xlink:href="#meb37ffb967" x="39.65" y="65.740887" style="stroke: #000000; stroke-width: 0.8"/>
      </g>
     </g>
     <g id="text_15">
      <!-- 2500 -->
      <g transform="translate(7.2 69.540106) scale(0.1 -0.1)">
       <use xlink:href="#DejaVuSans-32"/>
       <use xlink:href="#DejaVuSans-35" transform="translate(63.623047 0)"/>
       <use xlink:href="#DejaVuSans-30" transform="translate(127.246094 0)"/>
       <use xlink:href="#DejaVuSans-30" transform="translate(190.869141 0)"/>
      </g>
     </g>
    </g>
    <g id="ytick_7">
     <g id="line2d_16">
      <g>
       <use xlink:href="#meb37ffb967" x="39.65" y="26.645864" style="stroke: #000000; stroke-width: 0.8"/>
      </g>
     </g>
     <g id="text_16">
      <!-- 3000 -->
      <g transform="translate(7.2 30.445083) scale(0.1 -0.1)">
       <defs>
        <path id="DejaVuSans-33" d="M 2597 2516 
Q 3050 2419 3304 2112 
Q 3559 1806 3559 1356 
Q 3559 666 3084 287 
Q 2609 -91 1734 -91 
Q 1441 -91 1130 -33 
Q 819 25 488 141 
L 488 750 
Q 750 597 1062 519 
Q 1375 441 1716 441 
Q 2309 441 2620 675 
Q 2931 909 2931 1356 
Q 2931 1769 2642 2001 
Q 2353 2234 1838 2234 
L 1294 2234 
L 1294 2753 
L 1863 2753 
Q 2328 2753 2575 2939 
Q 2822 3125 2822 3475 
Q 2822 3834 2567 4026 
Q 2313 4219 1838 4219 
Q 1578 4219 1281 4162 
Q 984 4106 628 3988 
L 628 4550 
Q 988 4650 1302 4700 
Q 1616 4750 1894 4750 
Q 2613 4750 3031 4423 
Q 3450 4097 3450 3541 
Q 3450 3153 3228 2886 
Q 3006 2619 2597 2516 
z
" transform="scale(0.015625)"/>
       </defs>
       <use xlink:href="#DejaVuSans-33"/>
       <use xlink:href="#DejaVuSans-30" transform="translate(63.623047 0)"/>
       <use xlink:href="#DejaVuSans-30" transform="translate(127.246094 0)"/>
       <use xlink:href="#DejaVuSans-30" transform="translate(190.869141 0)"/>
      </g>
     </g>
    </g>
   </g>
   <g id="line2d_17">
    <path d="M 55.882727 261.216 
L 59.961302 241.668489 
L 64.039877 223.749285 
L 68.118451 207.322751 
L 72.197026 192.264547 
L 76.275601 178.460692 
L 80.354175 165.806698 
L 84.43275 154.206781 
L 88.511325 143.573138 
L 92.589899 133.825277 
L 96.668474 124.889413 
L 100.747049 116.697906 
L 104.825624 109.188752 
L 108.904198 102.305111 
L 112.982773 95.994877 
L 117.061348 90.210285 
L 121.139922 84.90755 
L 125.218497 80.046532 
L 129.297072 75.590438 
L 133.375646 71.505536 
L 137.454221 67.760906 
L 141.532796 64.328204 
L 145.61137 61.181446 
L 149.689945 58.296813 
L 153.76852 55.65247 
L 157.847095 53.228401 
L 161.925669 51.006256 
L 166.004244 48.969217 
L 170.082819 47.101863 
L 174.161393 45.390059 
L 178.239968 43.820848 
L 182.318543 42.382353 
L 186.397117 41.063685 
L 190.475692 39.854861 
L 194.554267 38.746733 
L 198.632841 37.730911 
L 202.711416 36.799708 
L 206.789991 35.946074 
L 210.868566 35.163547 
L 214.94714 34.446205 
L 219.025715 33.788618 
L 223.10429 33.185808 
L 227.182864 32.633211 
L 231.261439 32.126646 
L 235.340014 31.662278 
L 239.418588 31.236592 
L 243.497163 30.846365 
L 247.575738 30.488644 
L 251.654312 30.160722 
L 255.732887 29.860115 
L 259.811462 29.584549 
L 263.890037 29.331938 
L 267.968611 29.100369 
L 272.047186 28.88809 
L 276.125761 28.693493 
L 280.204335 28.515107 
L 284.28291 28.35158 
L 288.361485 28.201675 
L 292.440059 28.064257 
L 296.518634 27.938286 
L 300.597209 27.822808 
L 304.675783 27.716949 
L 308.754358 27.619909 
L 312.832933 27.530952 
L 316.911508 27.449405 
L 320.990082 27.374651 
L 325.068657 27.306124 
L 329.147232 27.243306 
L 333.225806 27.18572 
L 337.304381 27.132931 
L 341.382956 27.084539 
L 345.46153 27.040179 
L 349.540105 26.999513 
L 353.61868 26.962235 
L 357.697254 26.928063 
L 361.775829 26.896736 
L 365.854404 26.86802 
L 369.932979 26.841695 
L 374.011553 26.817563 
L 378.090128 26.795442 
" clip-path="url(#p6750db6bfa)" style="fill: none; stroke: #1f77b4; stroke-width: 1.5; stroke-linecap: square"/>
   </g>
   <g id="line2d_18">
    <path d="M 55.882727 261.216 
L 59.961302 261.216 
L 64.039877 259.587692 
L 68.118451 256.738154 
L 72.197026 252.995303 
L 76.275601 248.622037 
L 80.354175 243.827934 
L 84.43275 238.77893 
L 88.511325 233.605321 
L 92.589899 228.408371 
L 96.668474 223.265756 
L 100.747049 218.236057 
L 104.825624 213.362456 
L 108.904198 208.675772 
L 112.982773 204.196951 
L 117.061348 199.939107 
L 121.139922 195.909189 
L 125.218497 192.10934 
L 129.297072 188.538004 
L 133.375646 185.190816 
L 137.454221 182.061333 
L 141.532796 179.141607 
L 145.61137 176.422655 
L 149.689945 173.894827 
L 153.76852 171.548098 
L 157.847095 169.372295 
L 161.925669 167.357274 
L 166.004244 165.493052 
L 170.082819 163.76991 
L 174.161393 162.178466 
L 178.239968 160.709722 
L 182.318543 159.355102 
L 186.397117 158.106471 
L 190.475692 156.956142 
L 194.554267 155.896877 
L 198.632841 154.921885 
L 202.711416 154.024806 
L 206.789991 153.199701 
L 210.868566 152.441033 
L 214.94714 151.743651 
L 219.025715 151.102768 
L 223.10429 150.513943 
L 227.182864 149.97306 
L 231.261439 149.476312 
L 235.340014 149.020175 
L 239.418588 148.601394 
L 243.497163 148.216964 
L 247.575738 147.864113 
L 251.654312 147.540284 
L 255.732887 147.243121 
L 259.811462 146.970455 
L 263.890037 146.720287 
L 267.968611 146.49078 
L 272.047186 146.280242 
L 276.125761 146.087118 
L 280.204335 145.909978 
L 284.28291 145.747507 
L 288.361485 145.598499 
L 292.440059 145.461843 
L 296.518634 145.336521 
L 300.597209 145.221596 
L 304.675783 145.116211 
L 308.754358 145.019575 
L 312.832933 144.930964 
L 316.911508 144.849715 
L 320.990082 144.775218 
L 325.068657 144.706912 
L 329.147232 144.644284 
L 333.225806 144.586864 
L 337.304381 144.534218 
L 341.382956 144.485952 
L 345.46153 144.4417 
L 349.540105 144.40113 
L 353.61868 144.363935 
L 357.697254 144.329836 
L 361.775829 144.298574 
L 365.854404 144.269915 
L 369.932979 144.24364 
L 374.011553 144.219553 
L 378.090128 144.197471 
" clip-path="url(#p6750db6bfa)" style="fill: none; stroke: #ff7f0e; stroke-width: 1.5; stroke-linecap: square"/>
   </g>
   <g id="line2d_19">
    <path d="M 55.882727 261.216 
L 62.408447 231.894733 
L 64.039877 224.779439 
L 65.671307 219.071566 
L 68.934166 205.075548 
L 72.197026 195.458172 
L 75.459886 184.511566 
L 78.722746 175.5979 
L 81.985605 163.087493 
L 85.248465 153.548308 
L 86.879895 149.951566 
L 88.511325 145.963873 
L 90.142755 140.95971 
L 91.774185 138.614009 
L 93.405614 135.720977 
L 95.037044 131.029575 
L 96.668474 126.963692 
L 98.299904 123.52333 
L 99.931334 121.412199 
L 101.562764 117.268127 
L 103.194194 113.749575 
L 104.825624 110.700163 
L 106.457053 109.683692 
L 108.088483 106.634281 
L 109.719913 103.272109 
L 111.351343 100.300887 
L 112.982773 99.206226 
L 114.614203 96.469575 
L 116.245633 93.263783 
L 117.877063 91.778172 
L 119.508492 89.588851 
L 121.139922 87.94686 
L 122.771352 87.399529 
L 124.402782 84.506498 
L 126.034212 81.222516 
L 127.665642 80.440615 
L 129.297072 77.625774 
L 130.928502 76.531113 
L 134.191361 71.52695 
L 135.822791 69.650389 
L 137.454221 67.304688 
L 139.085651 67.304688 
L 140.717081 65.271747 
L 142.348511 65.271747 
L 143.979941 63.942516 
L 145.61137 62.378715 
L 148.87423 57.296362 
L 150.50566 57.139982 
L 152.13709 56.514462 
L 153.76852 54.71609 
L 155.39995 54.16876 
L 157.03138 53.856 
L 158.66281 52.370389 
L 160.294239 49.946498 
L 161.925669 48.382697 
L 163.557099 48.695457 
L 165.188529 46.115186 
L 166.819959 44.785955 
L 168.451389 43.613104 
L 170.082819 41.814733 
L 171.714249 41.580163 
L 173.345678 39.781792 
L 174.977108 38.530751 
L 176.608538 38.687131 
L 178.239968 36.73238 
L 179.871398 35.71591 
L 181.502828 35.95048 
L 183.134258 35.637719 
L 184.765688 36.34143 
L 186.397117 36.41962 
L 188.028547 36.18505 
L 189.659977 34.073919 
L 191.291407 34.386679 
L 194.554267 32.744688 
L 196.185697 31.650027 
L 197.817127 34.230299 
L 199.448556 35.559529 
L 201.079986 37.04514 
L 202.711416 36.34143 
L 204.342846 37.905231 
L 205.974276 36.02867 
L 207.605706 36.73238 
L 209.237136 34.855819 
L 210.868566 36.34143 
L 214.131425 35.637719 
L 215.762855 35.168579 
L 219.025715 35.71591 
L 220.657145 35.168579 
L 222.288575 33.604778 
L 223.920005 33.057448 
L 225.551434 32.666498 
L 227.182864 32.822878 
L 228.814294 31.024507 
L 232.077154 26.176724 
L 233.708584 26.958624 
L 235.340014 25.942154 
L 236.971444 27.896905 
L 240.234303 27.349575 
L 241.865733 28.131475 
L 243.497163 28.053285 
L 245.128593 28.366045 
L 248.391453 24.534733 
L 250.022883 25.551204 
L 251.654312 23.987403 
L 253.285742 25.707584 
L 254.917172 23.440072 
L 256.548602 23.127312 
L 258.180032 20.547041 
L 259.811462 20.859801 
L 261.442892 21.876271 
L 263.074322 22.501792 
L 264.705751 22.345412 
L 266.337181 22.892742 
L 267.968611 21.876271 
L 269.600041 24.300163 
L 271.231471 23.283692 
L 272.862901 22.501792 
L 274.494331 21.172561 
L 276.125761 20.547041 
L 277.75719 19.296 
L 279.38862 20.234281 
L 281.02005 19.92152 
L 282.65148 20.625231 
L 284.28291 19.84333 
L 287.54577 19.45238 
L 289.1772 19.76514 
L 290.80863 19.53057 
L 292.440059 19.45238 
L 294.071489 21.798081 
L 295.702919 21.798081 
L 297.334349 20.703421 
L 298.965779 19.99971 
L 300.597209 21.641701 
L 302.228639 22.892742 
L 303.860069 21.954462 
L 305.491498 23.518262 
L 307.122928 23.361882 
L 308.754358 24.221973 
L 310.385788 26.489484 
L 312.017218 25.082063 
L 313.648648 22.267222 
L 315.280078 22.970932 
L 316.911508 21.485321 
L 318.542937 21.876271 
L 320.174367 22.423602 
L 321.805797 23.361882 
L 323.437227 23.361882 
L 325.068657 21.328941 
L 326.700087 21.954462 
L 328.331517 22.110842 
L 329.962947 21.798081 
L 331.594376 22.189032 
L 333.225806 22.345412 
L 334.857236 19.84333 
L 336.488666 21.250751 
L 339.751526 22.110842 
L 341.382956 22.267222 
L 343.014386 22.267222 
L 344.645815 22.658172 
L 346.277245 21.719891 
L 347.908675 22.189032 
L 349.540105 22.423602 
L 351.171535 22.970932 
L 352.802965 25.160253 
L 354.434395 25.003873 
L 356.065825 25.473014 
L 357.697254 23.987403 
L 359.328684 22.814552 
L 360.960114 24.456543 
L 362.591544 24.378353 
L 364.222974 25.785774 
L 365.854404 26.958624 
L 367.485834 26.333104 
L 369.117264 25.394824 
L 370.748693 22.970932 
L 372.380123 23.518262 
L 374.011553 25.785774 
L 375.642983 24.456543 
L 377.274413 29.382516 
L 378.905843 36.02867 
L 380.537273 42.127493 
L 380.537273 42.127493 
" clip-path="url(#p6750db6bfa)" style="fill: none; stroke: #2ca02c; stroke-width: 1.5; stroke-linecap: square"/>
   </g>
   <g id="line2d_20">
    <path d="M 55.882727 261.216 
L 57.514157 260.98143 
L 60.777017 260.199529 
L 62.408447 259.652199 
L 64.039877 258.948489 
L 65.671307 257.697448 
L 67.302736 256.759167 
L 68.934166 255.977267 
L 72.197026 251.598624 
L 73.828456 250.191204 
L 77.091316 245.656181 
L 78.722746 243.07591 
L 80.354175 242.372199 
L 81.985605 239.948308 
L 83.617035 237.758986 
L 85.248465 235.804235 
L 86.879895 234.084054 
L 88.511325 232.129303 
L 90.142755 230.800072 
L 91.774185 228.532561 
L 95.037044 225.092199 
L 96.668474 223.684778 
L 98.299904 220.948127 
L 99.931334 218.524235 
L 101.562764 216.413104 
L 103.194194 214.927493 
L 104.825624 213.754643 
L 106.457053 210.627041 
L 108.088483 209.92333 
L 109.719913 207.264869 
L 111.351343 206.092018 
L 114.614203 202.026136 
L 116.245633 200.931475 
L 117.877063 197.882063 
L 119.508492 196.005502 
L 121.139922 193.737991 
L 122.771352 192.01781 
L 124.402782 191.86143 
L 126.034212 190.610389 
L 127.665642 189.124778 
L 129.297072 189.046588 
L 130.928502 187.873738 
L 132.559931 186.544507 
L 134.191361 185.606226 
L 135.822791 184.120615 
L 137.454221 183.025955 
L 139.085651 180.680253 
L 140.717081 179.194643 
L 143.979941 175.5979 
L 145.61137 173.799529 
L 147.2428 174.50324 
L 148.87423 173.799529 
L 152.13709 173.408579 
L 153.76852 172.313919 
L 155.39995 170.828308 
L 157.03138 169.577267 
L 158.66281 169.108127 
L 160.294239 167.309756 
L 161.925669 166.684235 
L 163.557099 165.198624 
L 165.188529 165.667765 
L 166.819959 164.103964 
L 168.451389 163.634824 
L 170.082819 163.634824 
L 171.714249 161.132742 
L 173.345678 161.680072 
L 174.977108 162.071023 
L 176.608538 159.725321 
L 178.239968 159.803511 
L 179.871398 161.132742 
L 181.502828 160.976362 
L 183.134258 159.803511 
L 184.765688 159.099801 
L 188.028547 159.803511 
L 189.659977 161.210932 
L 191.291407 160.585412 
L 192.922837 158.552471 
L 194.554267 159.725321 
L 196.185697 159.334371 
L 197.817127 157.22324 
L 199.448556 157.14505 
L 201.079986 156.597719 
L 202.711416 155.033919 
L 204.342846 154.486588 
L 205.974276 155.581249 
L 207.605706 153.000977 
L 209.237136 153.079167 
L 210.868566 152.610027 
L 212.499995 150.577086 
L 214.131425 148.935095 
L 215.762855 149.247855 
L 217.394285 147.684054 
L 219.025715 147.918624 
L 220.657145 148.544145 
L 222.288575 150.264326 
L 223.920005 148.935095 
L 225.551434 150.029756 
L 227.182864 150.420706 
L 228.814294 149.404235 
L 230.445724 149.560615 
L 232.077154 149.482425 
L 235.340014 147.996814 
L 236.971444 147.058534 
L 238.602873 150.264326 
L 240.234303 151.046226 
L 241.865733 149.795186 
L 243.497163 149.169665 
L 245.128593 148.935095 
L 246.760023 149.482425 
L 250.022883 148.622335 
L 251.654312 149.482425 
L 253.285742 146.589394 
L 254.917172 148.622335 
L 256.548602 148.309575 
L 259.811462 148.544145 
L 261.442892 148.700525 
L 263.074322 148.700525 
L 264.705751 147.293104 
L 266.337181 147.527674 
L 267.968611 147.527674 
L 269.600041 145.103783 
L 271.231471 145.729303 
L 274.494331 144.243692 
L 276.125761 144.165502 
L 277.75719 143.539982 
L 279.38862 140.80333 
L 281.02005 141.0379 
L 282.65148 142.523511 
L 285.91434 144.165502 
L 287.54577 143.539982 
L 289.1772 141.350661 
L 290.80863 139.94324 
L 292.440059 139.55229 
L 294.071489 136.659258 
L 295.702919 135.408217 
L 300.597209 136.033738 
L 302.228639 136.033738 
L 303.860069 136.424688 
L 305.491498 137.597538 
L 308.754358 139.317719 
L 310.385788 138.770389 
L 312.017218 139.94324 
L 313.648648 139.004959 
L 315.280078 139.39591 
L 316.911508 139.55229 
L 318.542937 139.94324 
L 320.174367 141.11609 
L 321.805797 140.88152 
L 323.437227 140.80333 
L 325.068657 141.0379 
L 326.700087 140.09962 
L 328.331517 139.004959 
L 331.594376 137.753919 
L 333.225806 138.770389 
L 334.857236 139.63048 
L 336.488666 138.614009 
L 338.120096 136.893828 
L 339.751526 137.284778 
L 341.382956 136.737448 
L 343.014386 135.720977 
L 344.645815 136.502878 
L 346.277245 137.050208 
L 349.540105 137.675729 
L 351.171535 138.223059 
L 352.802965 136.111928 
L 354.434395 136.346498 
L 356.065825 137.441158 
L 357.697254 139.239529 
L 359.328684 140.49057 
L 360.960114 139.239529 
L 362.591544 136.737448 
L 365.854404 136.659258 
L 369.117264 141.585231 
L 370.748693 142.210751 
L 372.380123 140.02143 
L 374.011553 140.02143 
L 375.642983 140.64695 
L 377.274413 139.78686 
L 378.905843 141.194281 
L 380.537273 142.288941 
L 380.537273 142.288941 
" clip-path="url(#p6750db6bfa)" style="fill: none; stroke: #d62728; stroke-width: 1.5; stroke-linecap: square"/>
   </g>
   <g id="patch_3">
    <path d="M 39.65 273.312 
L 39.65 7.2 
" style="fill: none; stroke: #000000; stroke-width: 0.8; stroke-linejoin: miter; stroke-linecap: square"/>
   </g>
   <g id="patch_4">
    <path d="M 396.77 273.312 
L 396.77 7.2 
" style="fill: none; stroke: #000000; stroke-width: 0.8; stroke-linejoin: miter; stroke-linecap: square"/>
   </g>
   <g id="patch_5">
    <path d="M 39.65 273.312 
L 396.77 273.312 
" style="fill: none; stroke: #000000; stroke-width: 0.8; stroke-linejoin: miter; stroke-linecap: square"/>
   </g>
   <g id="patch_6">
    <path d="M 39.65 7.2 
L 396.77 7.2 
" style="fill: none; stroke: #000000; stroke-width: 0.8; stroke-linejoin: miter; stroke-linecap: square"/>
   </g>
  </g>
 </g>
 <defs>
  <clipPath id="p6750db6bfa">
   <rect x="39.65" y="7.2" width="357.12" height="266.112"/>
  </clipPath>
 </defs>
</svg>
