<?xml version="1.0" encoding="utf-8" standalone="no"?>
<!DOCTYPE svg PUBLIC "-//W3C//DTD SVG 1.1//EN"
  "http://www.w3.org/Graphics/SVG/1.1/DTD/svg11.dtd">
<svg xmlns:xlink="http://www.w3.org/1999/xlink" width="403.97pt" height="297.190125pt" viewBox="0 0 403.97 297.190125" xmlns="http://www.w3.org/2000/svg" version="1.1">
 <metadata>
  <rdf:RDF xmlns:dc="http://purl.org/dc/elements/1.1/" xmlns:cc="http://creativecommons.org/ns#" xmlns:rdf="http://www.w3.org/1999/02/22-rdf-syntax-ns#">
   <cc:Work>
    <dc:type rdf:resource="http://purl.org/dc/dcmitype/StillImage"/>
    <dc:date>2025-06-27T07:27:16.035452</dc:date>
    <dc:format>image/svg+xml</dc:format>
    <dc:creator>
     <cc:Agent>
      <dc:title>Matplotlib v3.10.3, https://matplotlib.org/</dc:title>
     </cc:Agent>
    </dc:creator>
   </cc:Work>
  </rdf:RDF>
 </metadata>
 <defs>
  <style type="text/css">*{stroke-linejoin: round; stroke-linecap: butt}</style>
 </defs>
 <g id="figure_1">
  <g id="patch_1">
   <path d="M 0 297.190125 
L 403.97 297.190125 
L 403.97 0 
L 0 0 
z
" style="fill: #ffffff"/>
  </g>
  <g id="axes_1">
   <g id="patch_2">
    <path d="M 39.65 273.312 
L 396.77 273.312 
L 396.77 7.2 
L 39.65 7.2 
z
" style="fill: #ffffff"/>
   </g>
   <g id="matplotlib.axis_1">
    <g id="xtick_1">
     <g id="line2d_1">
      <defs>
       <path id="ma4408fcbb8" d="M 0 0 
L 0 3.5 
" style="stroke: #000000; stroke-width: 0.8"/>
      </defs>
      <g>
       <use xlink:href="#ma4408fcbb8" x="55.882727" y="273.312" style="stroke: #000000; stroke-width: 0.8"/>
      </g>
     </g>
     <g id="text_1">
      <!-- 0.0 -->
      <g transform="translate(47.931165 287.910437) scale(0.1 -0.1)">
       <defs>
        <path id="DejaVuSans-30" d="M 2034 4250 
Q 1547 4250 1301 3770 
Q 1056 3291 1056 2328 
Q 1056 1369 1301 889 
Q 1547 409 2034 409 
Q 2525 409 2770 889 
Q 3016 1369 3016 2328 
Q 3016 3291 2770 3770 
Q 2525 4250 2034 4250 
z
M 2034 4750 
Q 2819 4750 3233 4129 
Q 3647 3509 3647 2328 
Q 3647 1150 3233 529 
Q 2819 -91 2034 -91 
Q 1250 -91 836 529 
Q 422 1150 422 2328 
Q 422 3509 836 4129 
Q 1250 4750 2034 4750 
z
" transform="scale(0.015625)"/>
        <path id="DejaVuSans-2e" d="M 684 794 
L 1344 794 
L 1344 0 
L 684 0 
L 684 794 
z
" transform="scale(0.015625)"/>
       </defs>
       <use xlink:href="#DejaVuSans-30"/>
       <use xlink:href="#DejaVuSans-2e" transform="translate(63.623047 0)"/>
       <use xlink:href="#DejaVuSans-30" transform="translate(95.410156 0)"/>
      </g>
     </g>
    </g>
    <g id="xtick_2">
     <g id="line2d_2">
      <g>
       <use xlink:href="#ma4408fcbb8" x="96.668474" y="273.312" style="stroke: #000000; stroke-width: 0.8"/>
      </g>
     </g>
     <g id="text_2">
      <!-- 2.5 -->
      <g transform="translate(88.716912 287.910437) scale(0.1 -0.1)">
       <defs>
        <path id="DejaVuSans-32" d="M 1228 531 
L 3431 531 
L 3431 0 
L 469 0 
L 469 531 
Q 828 903 1448 1529 
Q 2069 2156 2228 2338 
Q 2531 2678 2651 2914 
Q 2772 3150 2772 3378 
Q 2772 3750 2511 3984 
Q 2250 4219 1831 4219 
Q 1534 4219 1204 4116 
Q 875 4013 500 3803 
L 500 4441 
Q 881 4594 1212 4672 
Q 1544 4750 1819 4750 
Q 2544 4750 2975 4387 
Q 3406 4025 3406 3419 
Q 3406 3131 3298 2873 
Q 3191 2616 2906 2266 
Q 2828 2175 2409 1742 
Q 1991 1309 1228 531 
z
" transform="scale(0.015625)"/>
        <path id="DejaVuSans-35" d="M 691 4666 
L 3169 4666 
L 3169 4134 
L 1269 4134 
L 1269 2991 
Q 1406 3038 1543 3061 
Q 1681 3084 1819 3084 
Q 2600 3084 3056 2656 
Q 3513 2228 3513 1497 
Q 3513 744 3044 326 
Q 2575 -91 1722 -91 
Q 1428 -91 1123 -41 
Q 819 9 494 109 
L 494 744 
Q 775 591 1075 516 
Q 1375 441 1709 441 
Q 2250 441 2565 725 
Q 2881 1009 2881 1497 
Q 2881 1984 2565 2268 
Q 2250 2553 1709 2553 
Q 1456 2553 1204 2497 
Q 953 2441 691 2322 
L 691 4666 
z
" transform="scale(0.015625)"/>
       </defs>
       <use xlink:href="#DejaVuSans-32"/>
       <use xlink:href="#DejaVuSans-2e" transform="translate(63.623047 0)"/>
       <use xlink:href="#DejaVuSans-35" transform="translate(95.410156 0)"/>
      </g>
     </g>
    </g>
    <g id="xtick_3">
     <g id="line2d_3">
      <g>
       <use xlink:href="#ma4408fcbb8" x="137.454221" y="273.312" style="stroke: #000000; stroke-width: 0.8"/>
      </g>
     </g>
     <g id="text_3">
      <!-- 5.0 -->
      <g transform="translate(129.502659 287.910437) scale(0.1 -0.1)">
       <use xlink:href="#DejaVuSans-35"/>
       <use xlink:href="#DejaVuSans-2e" transform="translate(63.623047 0)"/>
       <use xlink:href="#DejaVuSans-30" transform="translate(95.410156 0)"/>
      </g>
     </g>
    </g>
    <g id="xtick_4">
     <g id="line2d_4">
      <g>
       <use xlink:href="#ma4408fcbb8" x="178.239968" y="273.312" style="stroke: #000000; stroke-width: 0.8"/>
      </g>
     </g>
     <g id="text_4">
      <!-- 7.5 -->
      <g transform="translate(170.288406 287.910437) scale(0.1 -0.1)">
       <defs>
        <path id="DejaVuSans-37" d="M 525 4666 
L 3525 4666 
L 3525 4397 
L 1831 0 
L 1172 0 
L 2766 4134 
L 525 4134 
L 525 4666 
z
" transform="scale(0.015625)"/>
       </defs>
       <use xlink:href="#DejaVuSans-37"/>
       <use xlink:href="#DejaVuSans-2e" transform="translate(63.623047 0)"/>
       <use xlink:href="#DejaVuSans-35" transform="translate(95.410156 0)"/>
      </g>
     </g>
    </g>
    <g id="xtick_5">
     <g id="line2d_5">
      <g>
       <use xlink:href="#ma4408fcbb8" x="219.025715" y="273.312" style="stroke: #000000; stroke-width: 0.8"/>
      </g>
     </g>
     <g id="text_5">
      <!-- 10.0 -->
      <g transform="translate(207.892902 287.910437) scale(0.1 -0.1)">
       <defs>
        <path id="DejaVuSans-31" d="M 794 531 
L 1825 531 
L 1825 4091 
L 703 3866 
L 703 4441 
L 1819 4666 
L 2450 4666 
L 2450 531 
L 3481 531 
L 3481 0 
L 794 0 
L 794 531 
z
" transform="scale(0.015625)"/>
       </defs>
       <use xlink:href="#DejaVuSans-31"/>
       <use xlink:href="#DejaVuSans-30" transform="translate(63.623047 0)"/>
       <use xlink:href="#DejaVuSans-2e" transform="translate(127.246094 0)"/>
       <use xlink:href="#DejaVuSans-30" transform="translate(159.033203 0)"/>
      </g>
     </g>
    </g>
    <g id="xtick_6">
     <g id="line2d_6">
      <g>
       <use xlink:href="#ma4408fcbb8" x="259.811462" y="273.312" style="stroke: #000000; stroke-width: 0.8"/>
      </g>
     </g>
     <g id="text_6">
      <!-- 12.5 -->
      <g transform="translate(248.678649 287.910437) scale(0.1 -0.1)">
       <use xlink:href="#DejaVuSans-31"/>
       <use xlink:href="#DejaVuSans-32" transform="translate(63.623047 0)"/>
       <use xlink:href="#DejaVuSans-2e" transform="translate(127.246094 0)"/>
       <use xlink:href="#DejaVuSans-35" transform="translate(159.033203 0)"/>
      </g>
     </g>
    </g>
    <g id="xtick_7">
     <g id="line2d_7">
      <g>
       <use xlink:href="#ma4408fcbb8" x="300.597209" y="273.312" style="stroke: #000000; stroke-width: 0.8"/>
      </g>
     </g>
     <g id="text_7">
      <!-- 15.0 -->
      <g transform="translate(289.464396 287.910437) scale(0.1 -0.1)">
       <use xlink:href="#DejaVuSans-31"/>
       <use xlink:href="#DejaVuSans-35" transform="translate(63.623047 0)"/>
       <use xlink:href="#DejaVuSans-2e" transform="translate(127.246094 0)"/>
       <use xlink:href="#DejaVuSans-30" transform="translate(159.033203 0)"/>
      </g>
     </g>
    </g>
    <g id="xtick_8">
     <g id="line2d_8">
      <g>
       <use xlink:href="#ma4408fcbb8" x="341.382956" y="273.312" style="stroke: #000000; stroke-width: 0.8"/>
      </g>
     </g>
     <g id="text_8">
      <!-- 17.5 -->
      <g transform="translate(330.250143 287.910437) scale(0.1 -0.1)">
       <use xlink:href="#DejaVuSans-31"/>
       <use xlink:href="#DejaVuSans-37" transform="translate(63.623047 0)"/>
       <use xlink:href="#DejaVuSans-2e" transform="translate(127.246094 0)"/>
       <use xlink:href="#DejaVuSans-35" transform="translate(159.033203 0)"/>
      </g>
     </g>
    </g>
    <g id="xtick_9">
     <g id="line2d_9">
      <g>
       <use xlink:href="#ma4408fcbb8" x="382.168703" y="273.312" style="stroke: #000000; stroke-width: 0.8"/>
      </g>
     </g>
     <g id="text_9">
      <!-- 20.0 -->
      <g transform="translate(371.03589 287.910437) scale(0.1 -0.1)">
       <use xlink:href="#DejaVuSans-32"/>
       <use xlink:href="#DejaVuSans-30" transform="translate(63.623047 0)"/>
       <use xlink:href="#DejaVuSans-2e" transform="translate(127.246094 0)"/>
       <use xlink:href="#DejaVuSans-30" transform="translate(159.033203 0)"/>
      </g>
     </g>
    </g>
   </g>
   <g id="matplotlib.axis_2">
    <g id="ytick_1">
     <g id="line2d_10">
      <defs>
       <path id="m2d7f71af60" d="M 0 0 
L -3.5 0 
" style="stroke: #000000; stroke-width: 0.8"/>
      </defs>
      <g>
       <use xlink:href="#m2d7f71af60" x="39.65" y="261.216" style="stroke: #000000; stroke-width: 0.8"/>
      </g>
     </g>
     <g id="text_10">
      <!-- 0 -->
      <g transform="translate(26.2875 265.015219) scale(0.1 -0.1)">
       <use xlink:href="#DejaVuSans-30"/>
      </g>
     </g>
    </g>
    <g id="ytick_2">
     <g id="line2d_11">
      <g>
       <use xlink:href="#m2d7f71af60" x="39.65" y="220.922862" style="stroke: #000000; stroke-width: 0.8"/>
      </g>
     </g>
     <g id="text_11">
      <!-- 500 -->
      <g transform="translate(13.5625 224.722081) scale(0.1 -0.1)">
       <use xlink:href="#DejaVuSans-35"/>
       <use xlink:href="#DejaVuSans-30" transform="translate(63.623047 0)"/>
       <use xlink:href="#DejaVuSans-30" transform="translate(127.246094 0)"/>
      </g>
     </g>
    </g>
    <g id="ytick_3">
     <g id="line2d_12">
      <g>
       <use xlink:href="#m2d7f71af60" x="39.65" y="180.629724" style="stroke: #000000; stroke-width: 0.8"/>
      </g>
     </g>
     <g id="text_12">
      <!-- 1000 -->
      <g transform="translate(7.2 184.428943) scale(0.1 -0.1)">
       <use xlink:href="#DejaVuSans-31"/>
       <use xlink:href="#DejaVuSans-30" transform="translate(63.623047 0)"/>
       <use xlink:href="#DejaVuSans-30" transform="translate(127.246094 0)"/>
       <use xlink:href="#DejaVuSans-30" transform="translate(190.869141 0)"/>
      </g>
     </g>
    </g>
    <g id="ytick_4">
     <g id="line2d_13">
      <g>
       <use xlink:href="#m2d7f71af60" x="39.65" y="140.336586" style="stroke: #000000; stroke-width: 0.8"/>
      </g>
     </g>
     <g id="text_13">
      <!-- 1500 -->
      <g transform="translate(7.2 144.135805) scale(0.1 -0.1)">
       <use xlink:href="#DejaVuSans-31"/>
       <use xlink:href="#DejaVuSans-35" transform="translate(63.623047 0)"/>
       <use xlink:href="#DejaVuSans-30" transform="translate(127.246094 0)"/>
       <use xlink:href="#DejaVuSans-30" transform="translate(190.869141 0)"/>
      </g>
     </g>
    </g>
    <g id="ytick_5">
     <g id="line2d_14">
      <g>
       <use xlink:href="#m2d7f71af60" x="39.65" y="100.043448" style="stroke: #000000; stroke-width: 0.8"/>
      </g>
     </g>
     <g id="text_14">
      <!-- 2000 -->
      <g transform="translate(7.2 103.842667) scale(0.1 -0.1)">
       <use xlink:href="#DejaVuSans-32"/>
       <use xlink:href="#DejaVuSans-30" transform="translate(63.623047 0)"/>
       <use xlink:href="#DejaVuSans-30" transform="translate(127.246094 0)"/>
       <use xlink:href="#DejaVuSans-30" transform="translate(190.869141 0)"/>
      </g>
     </g>
    </g>
    <g id="ytick_6">
     <g id="line2d_15">
      <g>
       <use xlink:href="#m2d7f71af60" x="39.65" y="59.75031" style="stroke: #000000; stroke-width: 0.8"/>
      </g>
     </g>
     <g id="text_15">
      <!-- 2500 -->
      <g transform="translate(7.2 63.549529) scale(0.1 -0.1)">
       <use xlink:href="#DejaVuSans-32"/>
       <use xlink:href="#DejaVuSans-35" transform="translate(63.623047 0)"/>
       <use xlink:href="#DejaVuSans-30" transform="translate(127.246094 0)"/>
       <use xlink:href="#DejaVuSans-30" transform="translate(190.869141 0)"/>
      </g>
     </g>
    </g>
    <g id="ytick_7">
     <g id="line2d_16">
      <g>
       <use xlink:href="#m2d7f71af60" x="39.65" y="19.457173" style="stroke: #000000; stroke-width: 0.8"/>
      </g>
     </g>
     <g id="text_16">
      <!-- 3000 -->
      <g transform="translate(7.2 23.256391) scale(0.1 -0.1)">
       <defs>
        <path id="DejaVuSans-33" d="M 2597 2516 
Q 3050 2419 3304 2112 
Q 3559 1806 3559 1356 
Q 3559 666 3084 287 
Q 2609 -91 1734 -91 
Q 1441 -91 1130 -33 
Q 819 25 488 141 
L 488 750 
Q 750 597 1062 519 
Q 1375 441 1716 441 
Q 2309 441 2620 675 
Q 2931 909 2931 1356 
Q 2931 1769 2642 2001 
Q 2353 2234 1838 2234 
L 1294 2234 
L 1294 2753 
L 1863 2753 
Q 2328 2753 2575 2939 
Q 2822 3125 2822 3475 
Q 2822 3834 2567 4026 
Q 2313 4219 1838 4219 
Q 1578 4219 1281 4162 
Q 984 4106 628 3988 
L 628 4550 
Q 988 4650 1302 4700 
Q 1616 4750 1894 4750 
Q 2613 4750 3031 4423 
Q 3450 4097 3450 3541 
Q 3450 3153 3228 2886 
Q 3006 2619 2597 2516 
z
" transform="scale(0.015625)"/>
       </defs>
       <use xlink:href="#DejaVuSans-33"/>
       <use xlink:href="#DejaVuSans-30" transform="translate(63.623047 0)"/>
       <use xlink:href="#DejaVuSans-30" transform="translate(127.246094 0)"/>
       <use xlink:href="#DejaVuSans-30" transform="translate(190.869141 0)"/>
      </g>
     </g>
    </g>
   </g>
   <g id="line2d_17">
    <path d="M 55.882727 261.216 
L 59.961302 241.069431 
L 64.039877 222.864991 
L 68.118451 206.41546 
L 72.197026 191.551663 
L 76.275601 178.120736 
L 80.354175 165.98455 
L 84.43275 155.018293 
L 88.511325 145.109183 
L 92.589899 136.155311 
L 96.668474 128.064593 
L 100.747049 120.75382 
L 104.825624 114.147805 
L 108.904198 108.17861 
L 112.982773 102.784845 
L 117.061348 97.91104 
L 121.139922 93.507069 
L 125.218497 89.527641 
L 129.297072 85.93183 
L 133.375646 82.682655 
L 137.454221 79.7467 
L 141.532796 77.093772 
L 145.61137 74.696586 
L 149.689945 72.530488 
L 153.76852 70.573203 
L 157.847095 68.804599 
L 161.925669 67.206489 
L 166.004244 65.762437 
L 170.082819 64.457592 
L 174.161393 63.278533 
L 178.239968 62.213136 
L 182.318543 61.250443 
L 186.397117 60.380554 
L 190.475692 59.594522 
L 194.554267 58.884264 
L 198.632841 58.242474 
L 202.711416 57.662553 
L 206.789991 57.138536 
L 210.868566 56.665035 
L 214.94714 56.237179 
L 219.025715 55.850568 
L 223.10429 55.501227 
L 227.182864 55.185562 
L 231.261439 54.900327 
L 235.340014 54.642589 
L 239.418588 54.409697 
L 243.497163 54.199256 
L 247.575738 54.009101 
L 251.654312 53.837277 
L 255.732887 53.682017 
L 259.811462 53.541724 
L 263.890037 53.414955 
L 267.968611 53.300407 
L 272.047186 53.196901 
L 276.125761 53.103373 
L 280.204335 53.018862 
L 284.28291 52.942497 
L 288.361485 52.873494 
L 292.440059 52.811142 
L 296.518634 52.754802 
L 300.597209 52.703892 
L 304.675783 52.65789 
L 308.754358 52.616323 
L 312.832933 52.578763 
L 316.911508 52.544824 
L 320.990082 52.514156 
L 325.068657 52.486445 
L 329.147232 52.461405 
L 333.225806 52.438779 
L 337.304381 52.418334 
L 341.382956 52.39986 
L 345.46153 52.383167 
L 349.540105 52.368083 
L 353.61868 52.354454 
L 357.697254 52.342138 
L 361.775829 52.331009 
L 365.854404 52.320953 
L 369.932979 52.311867 
L 374.011553 52.303656 
L 378.090128 52.296237 
" clip-path="url(#pc7da573392)" style="fill: none; stroke: #1f77b4; stroke-width: 1.5; stroke-linecap: square"/>
   </g>
   <g id="line2d_18">
    <path d="M 55.882727 261.216 
L 59.961302 261.216 
L 64.039877 259.273871 
L 68.118451 256.043333 
L 72.197026 252.003035 
L 76.275601 247.500347 
L 80.354175 242.784464 
L 84.43275 238.031407 
L 88.511325 233.362887 
L 92.589899 228.860508 
L 96.668474 224.576447 
L 100.747049 220.541472 
L 104.825624 216.770939 
L 108.904198 213.269269 
L 112.982773 210.033269 
L 117.061348 207.054598 
L 121.139922 204.321568 
L 125.218497 201.82047 
L 129.297072 199.536518 
L 133.375646 197.454536 
L 137.454221 195.559425 
L 141.532796 193.836494 
L 145.61137 192.271668 
L 149.689945 190.851625 
L 153.76852 189.563865 
L 157.847095 188.396742 
L 161.925669 187.339469 
L 166.004244 186.382095 
L 170.082819 185.515475 
L 174.161393 184.731231 
L 178.239968 184.021701 
L 182.318543 183.379895 
L 186.397117 182.799448 
L 190.475692 182.274567 
L 194.554267 181.799989 
L 198.632841 181.370935 
L 202.711416 180.983072 
L 206.789991 180.632469 
L 210.868566 180.315566 
L 214.94714 180.029137 
L 219.025715 179.770263 
L 223.10429 179.536301 
L 227.182864 179.324861 
L 231.261439 179.133778 
L 235.340014 178.961097 
L 239.418588 178.805048 
L 243.497163 178.664031 
L 247.575738 178.5366 
L 251.654312 178.421447 
L 255.732887 178.31739 
L 259.811462 178.22336 
L 263.890037 178.138392 
L 267.968611 178.061613 
L 272.047186 177.992233 
L 276.125761 177.929541 
L 280.204335 177.872891 
L 284.28291 177.821702 
L 288.361485 177.775447 
L 292.440059 177.73365 
L 296.518634 177.695882 
L 300.597209 177.661755 
L 304.675783 177.630917 
L 308.754358 177.603052 
L 312.832933 177.577874 
L 316.911508 177.555122 
L 320.990082 177.534563 
L 325.068657 177.515987 
L 329.147232 177.499201 
L 333.225806 177.484033 
L 337.304381 177.470327 
L 341.382956 177.457943 
L 345.46153 177.446752 
L 349.540105 177.436641 
L 353.61868 177.427504 
L 357.697254 177.419247 
L 361.775829 177.411787 
L 365.854404 177.405046 
L 369.932979 177.398955 
L 374.011553 177.39345 
L 378.090128 177.388477 
" clip-path="url(#pc7da573392)" style="fill: none; stroke: #ff7f0e; stroke-width: 1.5; stroke-linecap: square"/>
   </g>
   <g id="line2d_19">
    <path d="M 55.882727 261.216 
L 57.514157 252.512682 
L 60.777017 238.248911 
L 62.408447 232.124354 
L 64.039877 224.146313 
L 65.671307 217.779997 
L 67.302736 209.640783 
L 68.934166 203.596813 
L 70.565596 198.68105 
L 73.828456 187.963075 
L 75.459886 181.113242 
L 80.354175 166.930057 
L 81.985605 160.402569 
L 83.617035 155.809151 
L 85.248465 152.263355 
L 86.879895 149.039904 
L 88.511325 146.138798 
L 90.142755 141.061863 
L 91.774185 137.032549 
L 93.405614 133.32558 
L 95.037044 129.135094 
L 96.668474 125.347539 
L 98.299904 122.607606 
L 99.931334 119.061809 
L 101.562764 114.629564 
L 103.194194 111.164354 
L 104.825624 106.49035 
L 106.457053 104.072762 
L 108.088483 101.09107 
L 109.719913 97.706446 
L 111.351343 95.369444 
L 112.982773 92.629511 
L 114.614203 90.937199 
L 117.877063 86.504954 
L 119.508492 83.281503 
L 121.139922 79.574534 
L 122.771352 78.688085 
L 124.402782 77.318119 
L 126.034212 74.658771 
L 129.297072 70.226526 
L 130.928502 69.259491 
L 132.559931 66.277799 
L 134.191361 64.263142 
L 135.822791 64.263142 
L 137.454221 62.973761 
L 139.085651 62.812589 
L 140.717081 60.959105 
L 142.348511 59.830897 
L 143.979941 58.944448 
L 147.2428 54.753961 
L 148.87423 54.109271 
L 150.50566 51.852855 
L 152.13709 49.999371 
L 153.76852 48.387646 
L 155.39995 47.742955 
L 157.03138 48.226473 
L 158.66281 49.112922 
L 160.294239 49.032336 
L 161.925669 48.307059 
L 163.557099 47.904128 
L 165.188529 48.387646 
L 166.819959 48.709991 
L 168.451389 47.662369 
L 170.082819 47.017679 
L 171.714249 45.083608 
L 173.345678 45.48654 
L 174.977108 45.325367 
L 176.608538 45.808885 
L 178.239968 47.904128 
L 179.871398 45.889471 
L 181.502828 44.841849 
L 183.134258 44.035987 
L 184.765688 44.922436 
L 186.397117 42.263089 
L 188.028547 42.263089 
L 189.659977 43.068951 
L 191.291407 42.585434 
L 192.922837 42.263089 
L 194.554267 41.618398 
L 196.185697 41.457226 
L 197.817127 41.054294 
L 199.448556 41.215467 
L 201.079986 41.860157 
L 202.711416 39.039638 
L 204.342846 37.508498 
L 205.974276 36.541463 
L 207.605706 37.750257 
L 209.237136 37.508498 
L 210.868566 37.750257 
L 212.499995 36.863808 
L 214.131425 37.427912 
L 215.762855 35.413255 
L 217.394285 34.607392 
L 219.025715 33.640357 
L 220.657145 33.962702 
L 222.288575 32.753908 
L 223.920005 32.109218 
L 225.551434 31.222769 
L 227.182864 28.885767 
L 228.814294 27.918732 
L 230.445724 29.449871 
L 232.077154 27.676973 
L 233.708584 28.482835 
L 235.340014 28.724594 
L 236.971444 29.852802 
L 238.602873 29.288698 
L 240.234303 29.772216 
L 241.865733 28.241077 
L 243.497163 28.16049 
L 245.128593 27.032282 
L 246.760023 27.435214 
L 248.391453 25.58173 
L 250.022883 25.58173 
L 251.654312 26.307006 
L 253.285742 25.178798 
L 254.917172 25.662316 
L 256.548602 24.775867 
L 258.180032 25.904075 
L 259.811462 25.339971 
L 261.442892 23.808831 
L 263.074322 23.889418 
L 264.705751 23.083555 
L 266.337181 23.486486 
L 267.968611 22.76121 
L 269.600041 21.713588 
L 271.231471 23.083555 
L 272.862901 22.438865 
L 274.494331 22.680624 
L 276.125761 21.552416 
L 277.75719 20.665967 
L 279.38862 21.471829 
L 281.02005 22.11652 
L 282.65148 21.310657 
L 284.28291 21.955347 
L 285.91434 21.471829 
L 287.54577 20.021276 
L 289.1772 21.552416 
L 290.80863 20.343622 
L 292.440059 21.955347 
L 294.071489 21.955347 
L 295.702919 22.841796 
L 297.334349 23.486486 
L 298.965779 21.391243 
L 300.597209 20.504794 
L 305.491498 22.438865 
L 307.122928 21.713588 
L 308.754358 21.230071 
L 310.385788 20.263035 
L 312.017218 22.680624 
L 313.648648 22.600037 
L 315.280078 23.244728 
L 316.911508 21.713588 
L 318.542937 22.922382 
L 320.174367 21.391243 
L 321.805797 22.358278 
L 323.437227 22.76121 
L 325.068657 22.600037 
L 326.700087 20.988312 
L 328.331517 21.391243 
L 329.962947 21.310657 
L 331.594376 22.680624 
L 333.225806 23.728245 
L 334.857236 24.614694 
L 338.120096 25.984661 
L 339.751526 26.790524 
L 341.382956 25.259384 
L 343.014386 25.017626 
L 344.645815 27.112869 
L 346.277245 27.274041 
L 347.908675 25.904075 
L 349.540105 26.387592 
L 354.434395 23.083555 
L 356.065825 23.002969 
L 357.697254 21.471829 
L 359.328684 21.633002 
L 360.960114 22.519451 
L 362.591544 23.808831 
L 364.222974 23.486486 
L 365.854404 22.922382 
L 367.485834 23.325314 
L 369.117264 24.614694 
L 370.748693 23.164141 
L 372.380123 21.149484 
L 374.011553 21.068898 
L 375.642983 19.376586 
L 378.905843 19.296 
L 380.537273 21.552416 
L 380.537273 21.552416 
" clip-path="url(#pc7da573392)" style="fill: none; stroke: #2ca02c; stroke-width: 1.5; stroke-linecap: square"/>
   </g>
   <g id="line2d_20">
    <path d="M 55.882727 261.216 
L 57.514157 261.135414 
L 60.777017 260.007206 
L 64.039877 258.476067 
L 67.302736 256.380823 
L 68.934166 254.849684 
L 70.565596 252.9962 
L 72.197026 251.465061 
L 73.828456 249.369817 
L 75.459886 247.516333 
L 77.091316 245.904608 
L 78.722746 244.051123 
L 80.354175 241.633535 
L 83.617035 238.087739 
L 88.511325 230.27087 
L 90.142755 229.062076 
L 91.774185 226.725074 
L 93.405614 223.421037 
L 95.037044 221.809311 
L 96.668474 220.600517 
L 98.299904 217.94117 
L 99.931334 216.571203 
L 103.194194 212.864235 
L 104.825624 211.736027 
L 106.457053 210.043715 
L 109.719913 206.25616 
L 111.351343 205.047366 
L 112.982773 203.43564 
L 114.614203 202.14626 
L 116.245633 200.453948 
L 117.877063 198.358705 
L 119.508492 197.875187 
L 121.139922 196.988738 
L 122.771352 195.618771 
L 124.402782 192.556493 
L 126.034212 189.897146 
L 127.665642 188.366007 
L 129.297072 187.157213 
L 130.928502 185.061969 
L 132.559931 184.497865 
L 134.191361 183.127899 
L 135.822791 179.904448 
L 137.454221 179.501516 
L 139.085651 177.970377 
L 140.717081 176.761583 
L 142.348511 175.069271 
L 143.979941 172.732269 
L 145.61137 172.006993 
L 147.2428 171.604061 
L 148.87423 170.717612 
L 150.50566 170.072922 
L 152.13709 168.864128 
L 153.76852 168.461197 
L 155.39995 167.010644 
L 157.03138 165.076573 
L 158.66281 162.417226 
L 160.294239 162.175467 
L 161.925669 162.094881 
L 163.557099 161.530777 
L 165.188529 160.563742 
L 166.819959 161.450191 
L 168.451389 162.094881 
L 170.082819 160.402569 
L 171.714249 159.354947 
L 173.345678 158.790843 
L 174.977108 157.259704 
L 176.608538 155.970324 
L 178.239968 153.875081 
L 179.871398 154.197426 
L 181.502828 153.552736 
L 183.134258 154.519771 
L 184.765688 153.23039 
L 186.397117 153.069218 
L 188.028547 152.424528 
L 189.659977 152.5857 
L 191.291407 152.5857 
L 192.922837 153.149804 
L 194.554267 153.472149 
L 197.817127 155.647979 
L 199.448556 154.278012 
L 201.079986 153.794494 
L 202.711416 154.358598 
L 204.342846 153.472149 
L 205.974276 153.23039 
L 207.605706 151.94101 
L 209.237136 152.343941 
L 210.868566 153.149804 
L 212.499995 154.680943 
L 214.131425 154.600357 
L 217.394285 153.23039 
L 219.025715 153.875081 
L 220.657145 152.988632 
L 222.288575 152.263355 
L 223.920005 151.860424 
L 225.551434 150.168112 
L 227.182864 152.021596 
L 228.814294 150.812802 
L 230.445724 149.845767 
L 232.077154 150.732216 
L 233.708584 148.959318 
L 235.340014 148.556386 
L 236.971444 148.314628 
L 238.602873 148.556386 
L 240.234303 150.490457 
L 241.865733 151.054561 
L 243.497163 152.343941 
L 245.128593 151.054561 
L 248.391453 151.699251 
L 250.022883 149.765181 
L 251.654312 149.442835 
L 253.285742 149.604008 
L 254.917172 148.153455 
L 256.548602 147.83111 
L 259.811462 146.461143 
L 261.442892 147.750524 
L 263.074322 147.025247 
L 264.705751 146.622316 
L 266.337181 146.54173 
L 267.968611 147.18642 
L 269.600041 147.589351 
L 271.231471 146.299971 
L 272.862901 147.105833 
L 274.494331 145.332935 
L 276.125761 145.816453 
L 277.75719 146.058212 
L 279.38862 144.930004 
L 281.02005 145.494108 
L 282.65148 145.171763 
L 284.28291 145.01059 
L 285.91434 147.18642 
L 287.54577 148.153455 
L 289.1772 146.864075 
L 290.80863 148.798145 
L 292.440059 148.234041 
L 294.071489 148.395214 
L 295.702919 146.864075 
L 297.334349 144.930004 
L 298.965779 146.299971 
L 300.597209 147.347592 
L 302.228639 147.025247 
L 303.860069 147.267006 
L 305.491498 145.977626 
L 307.122928 147.18642 
L 308.754358 146.461143 
L 310.385788 146.219384 
L 312.017218 144.204728 
L 313.648648 143.962969 
L 315.280078 144.527073 
L 316.911508 145.332935 
L 318.542937 145.332935 
L 320.174367 146.54173 
L 321.805797 145.735867 
L 323.437227 145.816453 
L 325.068657 145.735867 
L 326.700087 145.01059 
L 328.331517 144.043555 
L 329.962947 143.237692 
L 331.594376 143.640624 
L 333.225806 142.593002 
L 334.857236 142.512416 
L 336.488666 143.318278 
L 338.120096 144.768831 
L 339.751526 141.867726 
L 341.382956 143.157106 
L 343.014386 142.834761 
L 344.645815 141.061863 
L 346.277245 141.54538 
L 347.908675 143.882382 
L 349.540105 143.318278 
L 351.171535 142.915347 
L 352.802965 142.190071 
L 354.434395 143.398865 
L 356.065825 141.384208 
L 357.697254 140.820104 
L 359.328684 140.497759 
L 360.960114 139.772482 
L 362.591544 140.336586 
L 364.222974 141.787139 
L 365.854404 141.061863 
L 369.117264 138.563688 
L 370.748693 139.047206 
L 372.380123 140.094827 
L 374.011553 140.014241 
L 375.642983 142.109484 
L 377.274413 141.948312 
L 378.905843 144.3659 
L 380.537273 143.237692 
L 380.537273 143.237692 
" clip-path="url(#pc7da573392)" style="fill: none; stroke: #d62728; stroke-width: 1.5; stroke-linecap: square"/>
   </g>
   <g id="patch_3">
    <path d="M 39.65 273.312 
L 39.65 7.2 
" style="fill: none; stroke: #000000; stroke-width: 0.8; stroke-linejoin: miter; stroke-linecap: square"/>
   </g>
   <g id="patch_4">
    <path d="M 396.77 273.312 
L 396.77 7.2 
" style="fill: none; stroke: #000000; stroke-width: 0.8; stroke-linejoin: miter; stroke-linecap: square"/>
   </g>
   <g id="patch_5">
    <path d="M 39.65 273.312 
L 396.77 273.312 
" style="fill: none; stroke: #000000; stroke-width: 0.8; stroke-linejoin: miter; stroke-linecap: square"/>
   </g>
   <g id="patch_6">
    <path d="M 39.65 7.2 
L 396.77 7.2 
" style="fill: none; stroke: #000000; stroke-width: 0.8; stroke-linejoin: miter; stroke-linecap: square"/>
   </g>
  </g>
 </g>
 <defs>
  <clipPath id="pc7da573392">
   <rect x="39.65" y="7.2" width="357.12" height="266.112"/>
  </clipPath>
 </defs>
</svg>
