<?xml version="1.0" encoding="utf-8" standalone="no"?>
<!DOCTYPE svg PUBLIC "-//W3C//DTD SVG 1.1//EN"
  "http://www.w3.org/Graphics/SVG/1.1/DTD/svg11.dtd">
<svg xmlns:xlink="http://www.w3.org/1999/xlink" width="403.97pt" height="297.190125pt" viewBox="0 0 403.97 297.190125" xmlns="http://www.w3.org/2000/svg" version="1.1">
 <metadata>
  <rdf:RDF xmlns:dc="http://purl.org/dc/elements/1.1/" xmlns:cc="http://creativecommons.org/ns#" xmlns:rdf="http://www.w3.org/1999/02/22-rdf-syntax-ns#">
   <cc:Work>
    <dc:type rdf:resource="http://purl.org/dc/dcmitype/StillImage"/>
    <dc:date>2025-07-07T21:49:08.986211</dc:date>
    <dc:format>image/svg+xml</dc:format>
    <dc:creator>
     <cc:Agent>
      <dc:title>Matplotlib v3.10.3, https://matplotlib.org/</dc:title>
     </cc:Agent>
    </dc:creator>
   </cc:Work>
  </rdf:RDF>
 </metadata>
 <defs>
  <style type="text/css">*{stroke-linejoin: round; stroke-linecap: butt}</style>
 </defs>
 <g id="figure_1">
  <g id="patch_1">
   <path d="M 0 297.190125 
L 403.97 297.190125 
L 403.97 0 
L 0 0 
z
" style="fill: #ffffff"/>
  </g>
  <g id="axes_1">
   <g id="patch_2">
    <path d="M 39.65 273.312 
L 396.77 273.312 
L 396.77 7.2 
L 39.65 7.2 
z
" style="fill: #ffffff"/>
   </g>
   <g id="matplotlib.axis_1">
    <g id="xtick_1">
     <g id="line2d_1">
      <defs>
       <path id="mce1c2d67e3" d="M 0 0 
L 0 3.5 
" style="stroke: #000000; stroke-width: 0.8"/>
      </defs>
      <g>
       <use xlink:href="#mce1c2d67e3" x="55.882727" y="273.312" style="stroke: #000000; stroke-width: 0.8"/>
      </g>
     </g>
     <g id="text_1">
      <!-- 0.0 -->
      <g transform="translate(47.931165 287.910437) scale(0.1 -0.1)">
       <defs>
        <path id="DejaVuSans-30" d="M 2034 4250 
Q 1547 4250 1301 3770 
Q 1056 3291 1056 2328 
Q 1056 1369 1301 889 
Q 1547 409 2034 409 
Q 2525 409 2770 889 
Q 3016 1369 3016 2328 
Q 3016 3291 2770 3770 
Q 2525 4250 2034 4250 
z
M 2034 4750 
Q 2819 4750 3233 4129 
Q 3647 3509 3647 2328 
Q 3647 1150 3233 529 
Q 2819 -91 2034 -91 
Q 1250 -91 836 529 
Q 422 1150 422 2328 
Q 422 3509 836 4129 
Q 1250 4750 2034 4750 
z
" transform="scale(0.015625)"/>
        <path id="DejaVuSans-2e" d="M 684 794 
L 1344 794 
L 1344 0 
L 684 0 
L 684 794 
z
" transform="scale(0.015625)"/>
       </defs>
       <use xlink:href="#DejaVuSans-30"/>
       <use xlink:href="#DejaVuSans-2e" transform="translate(63.623047 0)"/>
       <use xlink:href="#DejaVuSans-30" transform="translate(95.410156 0)"/>
      </g>
     </g>
    </g>
    <g id="xtick_2">
     <g id="line2d_2">
      <g>
       <use xlink:href="#mce1c2d67e3" x="96.668474" y="273.312" style="stroke: #000000; stroke-width: 0.8"/>
      </g>
     </g>
     <g id="text_2">
      <!-- 2.5 -->
      <g transform="translate(88.716912 287.910437) scale(0.1 -0.1)">
       <defs>
        <path id="DejaVuSans-32" d="M 1228 531 
L 3431 531 
L 3431 0 
L 469 0 
L 469 531 
Q 828 903 1448 1529 
Q 2069 2156 2228 2338 
Q 2531 2678 2651 2914 
Q 2772 3150 2772 3378 
Q 2772 3750 2511 3984 
Q 2250 4219 1831 4219 
Q 1534 4219 1204 4116 
Q 875 4013 500 3803 
L 500 4441 
Q 881 4594 1212 4672 
Q 1544 4750 1819 4750 
Q 2544 4750 2975 4387 
Q 3406 4025 3406 3419 
Q 3406 3131 3298 2873 
Q 3191 2616 2906 2266 
Q 2828 2175 2409 1742 
Q 1991 1309 1228 531 
z
" transform="scale(0.015625)"/>
        <path id="DejaVuSans-35" d="M 691 4666 
L 3169 4666 
L 3169 4134 
L 1269 4134 
L 1269 2991 
Q 1406 3038 1543 3061 
Q 1681 3084 1819 3084 
Q 2600 3084 3056 2656 
Q 3513 2228 3513 1497 
Q 3513 744 3044 326 
Q 2575 -91 1722 -91 
Q 1428 -91 1123 -41 
Q 819 9 494 109 
L 494 744 
Q 775 591 1075 516 
Q 1375 441 1709 441 
Q 2250 441 2565 725 
Q 2881 1009 2881 1497 
Q 2881 1984 2565 2268 
Q 2250 2553 1709 2553 
Q 1456 2553 1204 2497 
Q 953 2441 691 2322 
L 691 4666 
z
" transform="scale(0.015625)"/>
       </defs>
       <use xlink:href="#DejaVuSans-32"/>
       <use xlink:href="#DejaVuSans-2e" transform="translate(63.623047 0)"/>
       <use xlink:href="#DejaVuSans-35" transform="translate(95.410156 0)"/>
      </g>
     </g>
    </g>
    <g id="xtick_3">
     <g id="line2d_3">
      <g>
       <use xlink:href="#mce1c2d67e3" x="137.454221" y="273.312" style="stroke: #000000; stroke-width: 0.8"/>
      </g>
     </g>
     <g id="text_3">
      <!-- 5.0 -->
      <g transform="translate(129.502659 287.910437) scale(0.1 -0.1)">
       <use xlink:href="#DejaVuSans-35"/>
       <use xlink:href="#DejaVuSans-2e" transform="translate(63.623047 0)"/>
       <use xlink:href="#DejaVuSans-30" transform="translate(95.410156 0)"/>
      </g>
     </g>
    </g>
    <g id="xtick_4">
     <g id="line2d_4">
      <g>
       <use xlink:href="#mce1c2d67e3" x="178.239968" y="273.312" style="stroke: #000000; stroke-width: 0.8"/>
      </g>
     </g>
     <g id="text_4">
      <!-- 7.5 -->
      <g transform="translate(170.288406 287.910437) scale(0.1 -0.1)">
       <defs>
        <path id="DejaVuSans-37" d="M 525 4666 
L 3525 4666 
L 3525 4397 
L 1831 0 
L 1172 0 
L 2766 4134 
L 525 4134 
L 525 4666 
z
" transform="scale(0.015625)"/>
       </defs>
       <use xlink:href="#DejaVuSans-37"/>
       <use xlink:href="#DejaVuSans-2e" transform="translate(63.623047 0)"/>
       <use xlink:href="#DejaVuSans-35" transform="translate(95.410156 0)"/>
      </g>
     </g>
    </g>
    <g id="xtick_5">
     <g id="line2d_5">
      <g>
       <use xlink:href="#mce1c2d67e3" x="219.025715" y="273.312" style="stroke: #000000; stroke-width: 0.8"/>
      </g>
     </g>
     <g id="text_5">
      <!-- 10.0 -->
      <g transform="translate(207.892902 287.910437) scale(0.1 -0.1)">
       <defs>
        <path id="DejaVuSans-31" d="M 794 531 
L 1825 531 
L 1825 4091 
L 703 3866 
L 703 4441 
L 1819 4666 
L 2450 4666 
L 2450 531 
L 3481 531 
L 3481 0 
L 794 0 
L 794 531 
z
" transform="scale(0.015625)"/>
       </defs>
       <use xlink:href="#DejaVuSans-31"/>
       <use xlink:href="#DejaVuSans-30" transform="translate(63.623047 0)"/>
       <use xlink:href="#DejaVuSans-2e" transform="translate(127.246094 0)"/>
       <use xlink:href="#DejaVuSans-30" transform="translate(159.033203 0)"/>
      </g>
     </g>
    </g>
    <g id="xtick_6">
     <g id="line2d_6">
      <g>
       <use xlink:href="#mce1c2d67e3" x="259.811462" y="273.312" style="stroke: #000000; stroke-width: 0.8"/>
      </g>
     </g>
     <g id="text_6">
      <!-- 12.5 -->
      <g transform="translate(248.678649 287.910437) scale(0.1 -0.1)">
       <use xlink:href="#DejaVuSans-31"/>
       <use xlink:href="#DejaVuSans-32" transform="translate(63.623047 0)"/>
       <use xlink:href="#DejaVuSans-2e" transform="translate(127.246094 0)"/>
       <use xlink:href="#DejaVuSans-35" transform="translate(159.033203 0)"/>
      </g>
     </g>
    </g>
    <g id="xtick_7">
     <g id="line2d_7">
      <g>
       <use xlink:href="#mce1c2d67e3" x="300.597209" y="273.312" style="stroke: #000000; stroke-width: 0.8"/>
      </g>
     </g>
     <g id="text_7">
      <!-- 15.0 -->
      <g transform="translate(289.464396 287.910437) scale(0.1 -0.1)">
       <use xlink:href="#DejaVuSans-31"/>
       <use xlink:href="#DejaVuSans-35" transform="translate(63.623047 0)"/>
       <use xlink:href="#DejaVuSans-2e" transform="translate(127.246094 0)"/>
       <use xlink:href="#DejaVuSans-30" transform="translate(159.033203 0)"/>
      </g>
     </g>
    </g>
    <g id="xtick_8">
     <g id="line2d_8">
      <g>
       <use xlink:href="#mce1c2d67e3" x="341.382956" y="273.312" style="stroke: #000000; stroke-width: 0.8"/>
      </g>
     </g>
     <g id="text_8">
      <!-- 17.5 -->
      <g transform="translate(330.250143 287.910437) scale(0.1 -0.1)">
       <use xlink:href="#DejaVuSans-31"/>
       <use xlink:href="#DejaVuSans-37" transform="translate(63.623047 0)"/>
       <use xlink:href="#DejaVuSans-2e" transform="translate(127.246094 0)"/>
       <use xlink:href="#DejaVuSans-35" transform="translate(159.033203 0)"/>
      </g>
     </g>
    </g>
    <g id="xtick_9">
     <g id="line2d_9">
      <g>
       <use xlink:href="#mce1c2d67e3" x="382.168703" y="273.312" style="stroke: #000000; stroke-width: 0.8"/>
      </g>
     </g>
     <g id="text_9">
      <!-- 20.0 -->
      <g transform="translate(371.03589 287.910437) scale(0.1 -0.1)">
       <use xlink:href="#DejaVuSans-32"/>
       <use xlink:href="#DejaVuSans-30" transform="translate(63.623047 0)"/>
       <use xlink:href="#DejaVuSans-2e" transform="translate(127.246094 0)"/>
       <use xlink:href="#DejaVuSans-30" transform="translate(159.033203 0)"/>
      </g>
     </g>
    </g>
   </g>
   <g id="matplotlib.axis_2">
    <g id="ytick_1">
     <g id="line2d_10">
      <defs>
       <path id="m34717258c3" d="M 0 0 
L -3.5 0 
" style="stroke: #000000; stroke-width: 0.8"/>
      </defs>
      <g>
       <use xlink:href="#m34717258c3" x="39.65" y="261.216" style="stroke: #000000; stroke-width: 0.8"/>
      </g>
     </g>
     <g id="text_10">
      <!-- 0 -->
      <g transform="translate(26.2875 265.015219) scale(0.1 -0.1)">
       <use xlink:href="#DejaVuSans-30"/>
      </g>
     </g>
    </g>
    <g id="ytick_2">
     <g id="line2d_11">
      <g>
       <use xlink:href="#m34717258c3" x="39.65" y="220.378728" style="stroke: #000000; stroke-width: 0.8"/>
      </g>
     </g>
     <g id="text_11">
      <!-- 500 -->
      <g transform="translate(13.5625 224.177947) scale(0.1 -0.1)">
       <use xlink:href="#DejaVuSans-35"/>
       <use xlink:href="#DejaVuSans-30" transform="translate(63.623047 0)"/>
       <use xlink:href="#DejaVuSans-30" transform="translate(127.246094 0)"/>
      </g>
     </g>
    </g>
    <g id="ytick_3">
     <g id="line2d_12">
      <g>
       <use xlink:href="#m34717258c3" x="39.65" y="179.541456" style="stroke: #000000; stroke-width: 0.8"/>
      </g>
     </g>
     <g id="text_12">
      <!-- 1000 -->
      <g transform="translate(7.2 183.340675) scale(0.1 -0.1)">
       <use xlink:href="#DejaVuSans-31"/>
       <use xlink:href="#DejaVuSans-30" transform="translate(63.623047 0)"/>
       <use xlink:href="#DejaVuSans-30" transform="translate(127.246094 0)"/>
       <use xlink:href="#DejaVuSans-30" transform="translate(190.869141 0)"/>
      </g>
     </g>
    </g>
    <g id="ytick_4">
     <g id="line2d_13">
      <g>
       <use xlink:href="#m34717258c3" x="39.65" y="138.704184" style="stroke: #000000; stroke-width: 0.8"/>
      </g>
     </g>
     <g id="text_13">
      <!-- 1500 -->
      <g transform="translate(7.2 142.503402) scale(0.1 -0.1)">
       <use xlink:href="#DejaVuSans-31"/>
       <use xlink:href="#DejaVuSans-35" transform="translate(63.623047 0)"/>
       <use xlink:href="#DejaVuSans-30" transform="translate(127.246094 0)"/>
       <use xlink:href="#DejaVuSans-30" transform="translate(190.869141 0)"/>
      </g>
     </g>
    </g>
    <g id="ytick_5">
     <g id="line2d_14">
      <g>
       <use xlink:href="#m34717258c3" x="39.65" y="97.866912" style="stroke: #000000; stroke-width: 0.8"/>
      </g>
     </g>
     <g id="text_14">
      <!-- 2000 -->
      <g transform="translate(7.2 101.66613) scale(0.1 -0.1)">
       <use xlink:href="#DejaVuSans-32"/>
       <use xlink:href="#DejaVuSans-30" transform="translate(63.623047 0)"/>
       <use xlink:href="#DejaVuSans-30" transform="translate(127.246094 0)"/>
       <use xlink:href="#DejaVuSans-30" transform="translate(190.869141 0)"/>
      </g>
     </g>
    </g>
    <g id="ytick_6">
     <g id="line2d_15">
      <g>
       <use xlink:href="#m34717258c3" x="39.65" y="57.029639" style="stroke: #000000; stroke-width: 0.8"/>
      </g>
     </g>
     <g id="text_15">
      <!-- 2500 -->
      <g transform="translate(7.2 60.828858) scale(0.1 -0.1)">
       <use xlink:href="#DejaVuSans-32"/>
       <use xlink:href="#DejaVuSans-35" transform="translate(63.623047 0)"/>
       <use xlink:href="#DejaVuSans-30" transform="translate(127.246094 0)"/>
       <use xlink:href="#DejaVuSans-30" transform="translate(190.869141 0)"/>
      </g>
     </g>
    </g>
    <g id="ytick_7">
     <g id="line2d_16">
      <g>
       <use xlink:href="#m34717258c3" x="39.65" y="16.192367" style="stroke: #000000; stroke-width: 0.8"/>
      </g>
     </g>
     <g id="text_16">
      <!-- 3000 -->
      <g transform="translate(7.2 19.991586) scale(0.1 -0.1)">
       <defs>
        <path id="DejaVuSans-33" d="M 2597 2516 
Q 3050 2419 3304 2112 
Q 3559 1806 3559 1356 
Q 3559 666 3084 287 
Q 2609 -91 1734 -91 
Q 1441 -91 1130 -33 
Q 819 25 488 141 
L 488 750 
Q 750 597 1062 519 
Q 1375 441 1716 441 
Q 2309 441 2620 675 
Q 2931 909 2931 1356 
Q 2931 1769 2642 2001 
Q 2353 2234 1838 2234 
L 1294 2234 
L 1294 2753 
L 1863 2753 
Q 2328 2753 2575 2939 
Q 2822 3125 2822 3475 
Q 2822 3834 2567 4026 
Q 2313 4219 1838 4219 
Q 1578 4219 1281 4162 
Q 984 4106 628 3988 
L 628 4550 
Q 988 4650 1302 4700 
Q 1616 4750 1894 4750 
Q 2613 4750 3031 4423 
Q 3450 4097 3450 3541 
Q 3450 3153 3228 2886 
Q 3006 2619 2597 2516 
z
" transform="scale(0.015625)"/>
       </defs>
       <use xlink:href="#DejaVuSans-33"/>
       <use xlink:href="#DejaVuSans-30" transform="translate(63.623047 0)"/>
       <use xlink:href="#DejaVuSans-30" transform="translate(127.246094 0)"/>
       <use xlink:href="#DejaVuSans-30" transform="translate(190.869141 0)"/>
      </g>
     </g>
    </g>
   </g>
   <g id="line2d_17">
    <path d="M 55.882727 261.216 
L 59.961302 240.797364 
L 64.039877 222.347084 
L 68.118451 205.675412 
L 72.197026 190.610888 
L 76.275601 176.998585 
L 80.354175 164.698508 
L 84.43275 153.584158 
L 88.511325 143.541232 
L 92.589899 134.466443 
L 96.668474 126.266464 
L 100.747049 118.856964 
L 104.825624 112.161739 
L 108.904198 106.111933 
L 112.982773 100.645329 
L 117.061348 95.705706 
L 121.139922 91.242262 
L 125.218497 87.209094 
L 129.297072 83.564724 
L 133.375646 80.271671 
L 137.454221 77.296068 
L 141.532796 74.607314 
L 145.61137 72.177755 
L 149.689945 69.982406 
L 153.76852 67.998688 
L 157.847095 66.206201 
L 161.925669 64.58651 
L 166.004244 63.122956 
L 170.082819 61.80049 
L 174.161393 60.605509 
L 178.239968 59.525724 
L 182.318543 58.550031 
L 186.397117 57.668394 
L 190.475692 56.871747 
L 194.554267 56.151897 
L 198.632841 55.501441 
L 202.711416 54.913688 
L 206.789991 54.382595 
L 210.868566 53.902699 
L 214.94714 53.469065 
L 219.025715 53.077234 
L 223.10429 52.723175 
L 227.182864 52.403247 
L 231.261439 52.11416 
L 235.340014 51.852942 
L 239.418588 51.616904 
L 243.497163 51.403621 
L 247.575738 51.210898 
L 251.654312 51.036754 
L 255.732887 50.879397 
L 259.811462 50.73721 
L 263.890037 50.608729 
L 267.968611 50.492634 
L 272.047186 50.38773 
L 276.125761 50.29294 
L 280.204335 50.207287 
L 284.28291 50.12989 
L 288.361485 50.059955 
L 292.440059 49.996762 
L 296.518634 49.93966 
L 300.597209 49.888064 
L 304.675783 49.841441 
L 308.754358 49.799312 
L 312.832933 49.761245 
L 316.911508 49.726847 
L 320.990082 49.695765 
L 325.068657 49.66768 
L 329.147232 49.642302 
L 333.225806 49.61937 
L 337.304381 49.598649 
L 341.382956 49.579926 
L 345.46153 49.563007 
L 349.540105 49.54772 
L 353.61868 49.533906 
L 357.697254 49.521424 
L 361.775829 49.510145 
L 365.854404 49.499953 
L 369.932979 49.490744 
L 374.011553 49.482423 
L 378.090128 49.474904 
" clip-path="url(#pcbab9834ff)" style="fill: none; stroke: #1f77b4; stroke-width: 1.5; stroke-linecap: square"/>
   </g>
   <g id="line2d_18">
    <path d="M 55.882727 261.216 
L 59.961302 261.216 
L 64.039877 259.247643 
L 68.118451 255.973479 
L 72.197026 251.87862 
L 76.275601 247.315126 
L 80.354175 242.535557 
L 84.43275 237.718313 
L 88.511325 232.986748 
L 92.589899 228.423567 
L 96.668474 224.081652 
L 100.747049 219.992187 
L 104.825624 216.170736 
L 108.904198 212.621777 
L 112.982773 209.342078 
L 117.061348 206.323181 
L 121.139922 203.553244 
L 125.218497 201.01837 
L 129.297072 198.703575 
L 133.375646 196.593476 
L 137.454221 194.672773 
L 141.532796 192.926575 
L 145.61137 191.340617 
L 149.689945 189.901397 
L 153.76852 188.596247 
L 157.847095 187.413362 
L 161.925669 186.341811 
L 166.004244 185.371509 
L 170.082819 184.493186 
L 174.161393 183.698351 
L 178.239968 182.979239 
L 182.318543 182.328766 
L 186.397117 181.74048 
L 190.475692 181.208511 
L 194.554267 180.727524 
L 198.632841 180.292676 
L 202.711416 179.899575 
L 206.789991 179.544238 
L 210.868566 179.223055 
L 214.94714 178.932758 
L 219.025715 178.670388 
L 223.10429 178.433267 
L 227.182864 178.218971 
L 231.261439 178.025308 
L 235.340014 177.850295 
L 239.418588 177.692138 
L 243.497163 177.549217 
L 247.575738 177.420065 
L 251.654312 177.303357 
L 255.732887 177.197894 
L 259.811462 177.102595 
L 263.890037 177.016479 
L 267.968611 176.938663 
L 272.047186 176.868347 
L 276.125761 176.804808 
L 280.204335 176.747393 
L 284.28291 176.695513 
L 288.361485 176.648633 
L 292.440059 176.606272 
L 296.518634 176.567994 
L 300.597209 176.533406 
L 304.675783 176.502152 
L 308.754358 176.473911 
L 312.832933 176.448392 
L 316.911508 176.425333 
L 320.990082 176.404497 
L 325.068657 176.385669 
L 329.147232 176.368657 
L 333.225806 176.353284 
L 337.304381 176.339393 
L 341.382956 176.326842 
L 345.46153 176.3155 
L 349.540105 176.305252 
L 353.61868 176.295991 
L 357.697254 176.287623 
L 361.775829 176.280062 
L 365.854404 176.27323 
L 369.932979 176.267057 
L 374.011553 176.261478 
L 378.090128 176.256437 
" clip-path="url(#pcbab9834ff)" style="fill: none; stroke: #ff7f0e; stroke-width: 1.5; stroke-linecap: square"/>
   </g>
   <g id="line2d_19">
    <path d="M 55.882727 261.216 
L 59.145587 246.187884 
L 62.408447 230.996419 
L 64.039877 224.54413 
L 65.671307 218.663562 
L 68.934166 205.350612 
L 70.565596 201.348559 
L 73.828456 187.627236 
L 80.354175 163.288221 
L 81.985605 158.061051 
L 83.617035 154.140673 
L 85.248465 150.628667 
L 86.879895 144.666425 
L 88.511325 141.807816 
L 90.142755 138.295811 
L 91.774185 133.640362 
L 96.668474 122.205926 
L 98.299904 117.958849 
L 99.931334 115.181915 
L 101.562764 111.261537 
L 103.194194 106.116041 
L 104.825624 103.665804 
L 106.457053 100.562172 
L 111.351343 93.538161 
L 112.982773 93.70151 
L 114.614203 92.149693 
L 116.245633 89.127735 
L 117.877063 86.432475 
L 121.139922 82.103725 
L 122.771352 80.306885 
L 124.402782 78.183346 
L 126.034212 76.304832 
L 127.665642 74.83469 
L 129.297072 74.262968 
L 130.928502 70.669288 
L 132.559931 68.954123 
L 134.191361 67.483981 
L 135.822791 65.85049 
L 137.454221 64.625372 
L 139.085651 62.828532 
L 140.717081 59.969923 
L 142.348511 57.519687 
L 143.979941 56.212894 
L 145.61137 54.089356 
L 147.2428 53.517634 
L 148.87423 49.923954 
L 150.50566 49.84228 
L 152.13709 49.107209 
L 153.76852 48.94386 
L 155.39995 45.921901 
L 157.03138 45.921901 
L 158.66281 47.88209 
L 160.294239 47.88209 
L 161.925669 47.392043 
L 163.557099 45.268505 
L 165.188529 45.023481 
L 166.819959 44.125061 
L 168.451389 46.003576 
L 170.082819 46.575298 
L 171.714249 44.125061 
L 173.345678 40.449707 
L 174.977108 39.469612 
L 176.608538 37.019376 
L 178.239968 37.182725 
L 179.871398 34.650814 
L 181.502828 33.425696 
L 183.134258 32.037229 
L 184.765688 32.363927 
L 186.397117 31.955554 
L 188.028547 30.97546 
L 189.659977 31.547182 
L 191.291407 30.403738 
L 192.922837 29.505318 
L 194.554267 27.300105 
L 196.185697 28.933596 
L 197.817127 27.708478 
L 199.448556 28.606898 
L 201.079986 26.728384 
L 202.711416 25.748289 
L 204.342846 26.810058 
L 205.974276 25.829964 
L 207.605706 24.278147 
L 209.237136 22.562982 
L 210.868566 23.134704 
L 212.499995 24.196473 
L 214.131425 24.114798 
L 219.025715 20.602793 
L 220.657145 20.439444 
L 222.288575 21.256189 
L 223.920005 23.869774 
L 225.551434 25.013218 
L 227.182864 24.68652 
L 228.814294 24.523171 
L 230.445724 25.176567 
L 232.077154 26.074987 
L 233.708584 26.320011 
L 235.340014 27.300105 
L 236.971444 26.48336 
L 238.602873 26.810058 
L 240.234303 24.768194 
L 241.865733 24.359822 
L 243.497163 23.134704 
L 245.128593 23.461402 
L 246.760023 21.582887 
L 248.391453 21.746236 
L 250.022883 20.684467 
L 251.654312 21.174515 
L 253.285742 21.011165 
L 254.917172 22.644656 
L 256.548602 21.174515 
L 258.180032 23.298053 
L 259.811462 21.664562 
L 261.442892 19.296 
L 263.074322 22.072935 
L 264.705751 22.88968 
L 266.337181 22.88968 
L 267.968611 23.134704 
L 269.600041 24.196473 
L 271.231471 23.951449 
L 272.862901 23.869774 
L 274.494331 24.604845 
L 276.125761 25.911638 
L 277.75719 25.911638 
L 279.38862 26.156662 
L 281.02005 25.094893 
L 282.65148 24.931544 
L 284.28291 22.88968 
L 285.91434 22.236284 
L 287.54577 23.053029 
L 289.1772 21.746236 
L 290.80863 21.337864 
L 292.440059 21.827911 
L 294.071489 22.481307 
L 297.334349 23.216378 
L 298.965779 20.929491 
L 300.597209 21.746236 
L 302.228639 23.461402 
L 303.860069 23.869774 
L 305.491498 23.053029 
L 307.122928 22.399633 
L 308.754358 22.236284 
L 310.385788 23.134704 
L 312.017218 22.154609 
L 313.648648 23.216378 
L 315.280078 24.033124 
L 316.911508 23.951449 
L 318.542937 23.053029 
L 321.805797 22.562982 
L 325.068657 22.562982 
L 326.700087 21.909585 
L 328.331517 21.011165 
L 329.962947 21.827911 
L 331.594376 21.827911 
L 333.225806 23.053029 
L 334.857236 23.543076 
L 336.488666 22.481307 
L 338.120096 22.562982 
L 339.751526 21.09284 
L 341.382956 22.808005 
L 343.014386 22.481307 
L 344.645815 22.317958 
L 346.277245 24.441496 
L 347.908675 24.359822 
L 349.540105 25.993313 
L 351.171535 25.911638 
L 354.434395 26.565034 
L 356.065825 27.300105 
L 359.328684 25.911638 
L 360.960114 25.503265 
L 362.591544 24.68652 
L 364.222974 24.523171 
L 365.854404 25.339916 
L 367.485834 25.911638 
L 369.117264 25.339916 
L 370.748693 25.421591 
L 372.380123 25.829964 
L 374.011553 26.074987 
L 375.642983 24.768194 
L 377.274413 22.971354 
L 378.905843 20.602793 
L 380.537273 20.19442 
L 380.537273 20.19442 
" clip-path="url(#pcbab9834ff)" style="fill: none; stroke: #2ca02c; stroke-width: 1.5; stroke-linecap: square"/>
   </g>
   <g id="line2d_20">
    <path d="M 55.882727 261.216 
L 59.145587 260.644278 
L 60.777017 260.072556 
L 62.408447 259.337485 
L 64.039877 258.357391 
L 65.671307 257.213947 
L 67.302736 255.580456 
L 68.934166 254.600362 
L 70.565596 252.640173 
L 72.197026 251.415055 
L 73.828456 249.781564 
L 75.459886 248.719795 
L 78.722746 245.534488 
L 80.354175 244.472718 
L 81.985605 242.757553 
L 85.248465 237.612057 
L 86.879895 236.386939 
L 88.511325 235.488519 
L 90.142755 232.548235 
L 91.774185 230.751395 
L 93.405614 228.546182 
L 95.037044 226.831017 
L 96.668474 224.299106 
L 98.299904 222.992313 
L 99.931334 219.480308 
L 101.562764 217.030072 
L 104.825624 213.681415 
L 106.457053 210.741132 
L 108.088483 209.107641 
L 111.351343 205.513961 
L 114.614203 199.633394 
L 116.245633 199.633394 
L 117.877063 198.898323 
L 119.508492 197.183157 
L 122.771352 193.99785 
L 124.402782 191.955986 
L 126.034212 191.139241 
L 127.665642 188.689005 
L 129.297072 186.565467 
L 130.928502 185.258674 
L 132.559931 183.135136 
L 134.191361 181.746668 
L 135.822791 180.031503 
L 137.454221 177.581267 
L 139.085651 177.662941 
L 140.717081 177.907965 
L 142.348511 176.846196 
L 143.979941 175.294379 
L 145.61137 175.376054 
L 147.2428 174.886007 
L 148.87423 175.702752 
L 150.50566 176.192799 
L 152.13709 174.395959 
L 155.39995 171.864049 
L 157.03138 169.00544 
L 158.66281 166.636878 
L 160.294239 165.493434 
L 161.925669 164.023292 
L 163.557099 162.7165 
L 165.188529 161.981429 
L 166.819959 161.981429 
L 168.451389 160.02124 
L 170.082819 159.041145 
L 171.714249 158.387749 
L 173.345678 160.674636 
L 174.977108 158.632772 
L 176.608538 157.652678 
L 178.239968 156.509234 
L 181.502828 155.447465 
L 184.765688 154.957418 
L 186.397117 153.405602 
L 188.028547 152.343833 
L 189.659977 150.056945 
L 191.291407 149.158525 
L 192.922837 148.015082 
L 194.554267 148.260105 
L 196.185697 148.096756 
L 197.817127 149.893596 
L 199.448556 148.423454 
L 201.079986 148.096756 
L 202.711416 148.34178 
L 205.974276 145.074798 
L 207.605706 145.64652 
L 209.237136 146.626614 
L 210.868566 144.911449 
L 212.499995 142.95126 
L 214.131425 144.421402 
L 215.762855 145.728194 
L 217.394285 146.54494 
L 219.025715 144.911449 
L 220.657145 144.339727 
L 222.288575 143.114609 
L 223.920005 140.256 
L 225.551434 138.949207 
L 227.182864 139.439255 
L 228.814294 141.726142 
L 230.445724 142.706236 
L 232.077154 143.441307 
L 233.708584 141.889491 
L 235.340014 142.461213 
L 236.971444 142.706236 
L 238.602873 141.236095 
L 240.234303 140.664373 
L 241.865733 140.909396 
L 243.497163 142.134515 
L 246.760023 140.582698 
L 248.391453 138.540835 
L 250.022883 138.622509 
L 251.654312 137.315716 
L 253.285742 138.377485 
L 254.917172 136.825669 
L 256.548602 137.805764 
L 258.180032 136.335622 
L 259.811462 139.194231 
L 261.442892 139.194231 
L 263.074322 138.050787 
L 264.705751 137.969113 
L 266.337181 138.867533 
L 269.600041 136.090598 
L 271.231471 135.600551 
L 272.862901 135.273853 
L 274.494331 133.477013 
L 276.125761 132.905291 
L 277.75719 133.640362 
L 282.65148 134.947155 
L 284.28291 137.397391 
L 285.91434 138.132462 
L 287.54577 138.050787 
L 289.1772 139.439255 
L 290.80863 138.785858 
L 292.440059 141.726142 
L 294.071489 139.765953 
L 295.702919 139.847627 
L 297.334349 141.15442 
L 298.965779 142.297864 
L 300.597209 142.869585 
L 302.228639 141.481118 
L 303.860069 138.785858 
L 305.491498 138.132462 
L 307.122928 138.050787 
L 308.754358 140.419349 
L 312.017218 143.359633 
L 313.648648 144.258053 
L 315.280078 143.84968 
L 316.911508 144.7481 
L 318.542937 143.768005 
L 320.174367 144.666425 
L 321.805797 143.686331 
L 323.437227 143.84968 
L 325.068657 144.584751 
L 326.700087 144.339727 
L 328.331517 143.84968 
L 329.962947 141.726142 
L 331.594376 141.072745 
L 333.225806 140.092651 
L 334.857236 140.501024 
L 336.488666 140.501024 
L 338.120096 139.602604 
L 339.751526 140.501024 
L 341.382956 139.520929 
L 343.014386 139.765953 
L 344.645815 140.582698 
L 346.277245 139.929302 
L 347.908675 139.030882 
L 349.540105 137.397391 
L 351.171535 138.050787 
L 352.802965 138.377485 
L 354.434395 135.845575 
L 356.065825 136.090598 
L 357.697254 135.600551 
L 359.328684 137.724089 
L 362.591544 138.704184 
L 364.222974 138.214136 
L 365.854404 138.214136 
L 367.485834 139.602604 
L 369.117264 138.704184 
L 370.748693 137.56074 
L 372.380123 139.194231 
L 374.011553 139.35758 
L 375.642983 139.847627 
L 377.274413 139.765953 
L 378.905843 139.929302 
L 380.537273 138.949207 
L 380.537273 138.949207 
" clip-path="url(#pcbab9834ff)" style="fill: none; stroke: #d62728; stroke-width: 1.5; stroke-linecap: square"/>
   </g>
   <g id="patch_3">
    <path d="M 39.65 273.312 
L 39.65 7.2 
" style="fill: none; stroke: #000000; stroke-width: 0.8; stroke-linejoin: miter; stroke-linecap: square"/>
   </g>
   <g id="patch_4">
    <path d="M 396.77 273.312 
L 396.77 7.2 
" style="fill: none; stroke: #000000; stroke-width: 0.8; stroke-linejoin: miter; stroke-linecap: square"/>
   </g>
   <g id="patch_5">
    <path d="M 39.65 273.312 
L 396.77 273.312 
" style="fill: none; stroke: #000000; stroke-width: 0.8; stroke-linejoin: miter; stroke-linecap: square"/>
   </g>
   <g id="patch_6">
    <path d="M 39.65 7.2 
L 396.77 7.2 
" style="fill: none; stroke: #000000; stroke-width: 0.8; stroke-linejoin: miter; stroke-linecap: square"/>
   </g>
  </g>
 </g>
 <defs>
  <clipPath id="pcbab9834ff">
   <rect x="39.65" y="7.2" width="357.12" height="266.112"/>
  </clipPath>
 </defs>
</svg>
