<?xml version="1.0" encoding="utf-8" standalone="no"?>
<!DOCTYPE svg PUBLIC "-//W3C//DTD SVG 1.1//EN"
  "http://www.w3.org/Graphics/SVG/1.1/DTD/svg11.dtd">
<svg xmlns:xlink="http://www.w3.org/1999/xlink" width="397.6075pt" height="299.851393pt" viewBox="0 0 397.6075 299.851393" xmlns="http://www.w3.org/2000/svg" version="1.1">
 <metadata>
  <rdf:RDF xmlns:dc="http://purl.org/dc/elements/1.1/" xmlns:cc="http://creativecommons.org/ns#" xmlns:rdf="http://www.w3.org/1999/02/22-rdf-syntax-ns#">
   <cc:Work>
    <dc:type rdf:resource="http://purl.org/dc/dcmitype/StillImage"/>
    <dc:date>2025-05-30T20:03:36.186528</dc:date>
    <dc:format>image/svg+xml</dc:format>
    <dc:creator>
     <cc:Agent>
      <dc:title>Matplotlib v3.10.3, https://matplotlib.org/</dc:title>
     </cc:Agent>
    </dc:creator>
   </cc:Work>
  </rdf:RDF>
 </metadata>
 <defs>
  <style type="text/css">*{stroke-linejoin: round; stroke-linecap: butt}</style>
 </defs>
 <g id="figure_1">
  <g id="patch_1">
   <path d="M 0 299.851393 
L 397.6075 299.851393 
L 397.6075 0 
L 0 0 
z
" style="fill: #ffffff"/>
  </g>
  <g id="axes_1">
   <g id="patch_2">
    <path d="M 33.2875 275.973268 
L 390.4075 275.973268 
L 390.4075 9.861268 
L 33.2875 9.861268 
z
" style="fill: #ffffff"/>
   </g>
   <g id="matplotlib.axis_1">
    <g id="xtick_1">
     <g id="line2d_1">
      <defs>
       <path id="mf8d021a72e" d="M 0 0 
L 0 3.5 
" style="stroke: #000000; stroke-width: 0.8"/>
      </defs>
      <g>
       <use xlink:href="#mf8d021a72e" x="49.520227" y="275.973268" style="stroke: #000000; stroke-width: 0.8"/>
      </g>
     </g>
     <g id="text_1">
      <!-- 0.0 -->
      <g transform="translate(41.568665 290.571705) scale(0.1 -0.1)">
       <defs>
        <path id="DejaVuSans-30" d="M 2034 4250 
Q 1547 4250 1301 3770 
Q 1056 3291 1056 2328 
Q 1056 1369 1301 889 
Q 1547 409 2034 409 
Q 2525 409 2770 889 
Q 3016 1369 3016 2328 
Q 3016 3291 2770 3770 
Q 2525 4250 2034 4250 
z
M 2034 4750 
Q 2819 4750 3233 4129 
Q 3647 3509 3647 2328 
Q 3647 1150 3233 529 
Q 2819 -91 2034 -91 
Q 1250 -91 836 529 
Q 422 1150 422 2328 
Q 422 3509 836 4129 
Q 1250 4750 2034 4750 
z
" transform="scale(0.015625)"/>
        <path id="DejaVuSans-2e" d="M 684 794 
L 1344 794 
L 1344 0 
L 684 0 
L 684 794 
z
" transform="scale(0.015625)"/>
       </defs>
       <use xlink:href="#DejaVuSans-30"/>
       <use xlink:href="#DejaVuSans-2e" transform="translate(63.623047 0)"/>
       <use xlink:href="#DejaVuSans-30" transform="translate(95.410156 0)"/>
      </g>
     </g>
    </g>
    <g id="xtick_2">
     <g id="line2d_2">
      <g>
       <use xlink:href="#mf8d021a72e" x="90.305974" y="275.973268" style="stroke: #000000; stroke-width: 0.8"/>
      </g>
     </g>
     <g id="text_2">
      <!-- 2.5 -->
      <g transform="translate(82.354412 290.571705) scale(0.1 -0.1)">
       <defs>
        <path id="DejaVuSans-32" d="M 1228 531 
L 3431 531 
L 3431 0 
L 469 0 
L 469 531 
Q 828 903 1448 1529 
Q 2069 2156 2228 2338 
Q 2531 2678 2651 2914 
Q 2772 3150 2772 3378 
Q 2772 3750 2511 3984 
Q 2250 4219 1831 4219 
Q 1534 4219 1204 4116 
Q 875 4013 500 3803 
L 500 4441 
Q 881 4594 1212 4672 
Q 1544 4750 1819 4750 
Q 2544 4750 2975 4387 
Q 3406 4025 3406 3419 
Q 3406 3131 3298 2873 
Q 3191 2616 2906 2266 
Q 2828 2175 2409 1742 
Q 1991 1309 1228 531 
z
" transform="scale(0.015625)"/>
        <path id="DejaVuSans-35" d="M 691 4666 
L 3169 4666 
L 3169 4134 
L 1269 4134 
L 1269 2991 
Q 1406 3038 1543 3061 
Q 1681 3084 1819 3084 
Q 2600 3084 3056 2656 
Q 3513 2228 3513 1497 
Q 3513 744 3044 326 
Q 2575 -91 1722 -91 
Q 1428 -91 1123 -41 
Q 819 9 494 109 
L 494 744 
Q 775 591 1075 516 
Q 1375 441 1709 441 
Q 2250 441 2565 725 
Q 2881 1009 2881 1497 
Q 2881 1984 2565 2268 
Q 2250 2553 1709 2553 
Q 1456 2553 1204 2497 
Q 953 2441 691 2322 
L 691 4666 
z
" transform="scale(0.015625)"/>
       </defs>
       <use xlink:href="#DejaVuSans-32"/>
       <use xlink:href="#DejaVuSans-2e" transform="translate(63.623047 0)"/>
       <use xlink:href="#DejaVuSans-35" transform="translate(95.410156 0)"/>
      </g>
     </g>
    </g>
    <g id="xtick_3">
     <g id="line2d_3">
      <g>
       <use xlink:href="#mf8d021a72e" x="131.091721" y="275.973268" style="stroke: #000000; stroke-width: 0.8"/>
      </g>
     </g>
     <g id="text_3">
      <!-- 5.0 -->
      <g transform="translate(123.140159 290.571705) scale(0.1 -0.1)">
       <use xlink:href="#DejaVuSans-35"/>
       <use xlink:href="#DejaVuSans-2e" transform="translate(63.623047 0)"/>
       <use xlink:href="#DejaVuSans-30" transform="translate(95.410156 0)"/>
      </g>
     </g>
    </g>
    <g id="xtick_4">
     <g id="line2d_4">
      <g>
       <use xlink:href="#mf8d021a72e" x="171.877468" y="275.973268" style="stroke: #000000; stroke-width: 0.8"/>
      </g>
     </g>
     <g id="text_4">
      <!-- 7.5 -->
      <g transform="translate(163.925906 290.571705) scale(0.1 -0.1)">
       <defs>
        <path id="DejaVuSans-37" d="M 525 4666 
L 3525 4666 
L 3525 4397 
L 1831 0 
L 1172 0 
L 2766 4134 
L 525 4134 
L 525 4666 
z
" transform="scale(0.015625)"/>
       </defs>
       <use xlink:href="#DejaVuSans-37"/>
       <use xlink:href="#DejaVuSans-2e" transform="translate(63.623047 0)"/>
       <use xlink:href="#DejaVuSans-35" transform="translate(95.410156 0)"/>
      </g>
     </g>
    </g>
    <g id="xtick_5">
     <g id="line2d_5">
      <g>
       <use xlink:href="#mf8d021a72e" x="212.663215" y="275.973268" style="stroke: #000000; stroke-width: 0.8"/>
      </g>
     </g>
     <g id="text_5">
      <!-- 10.0 -->
      <g transform="translate(201.530402 290.571705) scale(0.1 -0.1)">
       <defs>
        <path id="DejaVuSans-31" d="M 794 531 
L 1825 531 
L 1825 4091 
L 703 3866 
L 703 4441 
L 1819 4666 
L 2450 4666 
L 2450 531 
L 3481 531 
L 3481 0 
L 794 0 
L 794 531 
z
" transform="scale(0.015625)"/>
       </defs>
       <use xlink:href="#DejaVuSans-31"/>
       <use xlink:href="#DejaVuSans-30" transform="translate(63.623047 0)"/>
       <use xlink:href="#DejaVuSans-2e" transform="translate(127.246094 0)"/>
       <use xlink:href="#DejaVuSans-30" transform="translate(159.033203 0)"/>
      </g>
     </g>
    </g>
    <g id="xtick_6">
     <g id="line2d_6">
      <g>
       <use xlink:href="#mf8d021a72e" x="253.448962" y="275.973268" style="stroke: #000000; stroke-width: 0.8"/>
      </g>
     </g>
     <g id="text_6">
      <!-- 12.5 -->
      <g transform="translate(242.316149 290.571705) scale(0.1 -0.1)">
       <use xlink:href="#DejaVuSans-31"/>
       <use xlink:href="#DejaVuSans-32" transform="translate(63.623047 0)"/>
       <use xlink:href="#DejaVuSans-2e" transform="translate(127.246094 0)"/>
       <use xlink:href="#DejaVuSans-35" transform="translate(159.033203 0)"/>
      </g>
     </g>
    </g>
    <g id="xtick_7">
     <g id="line2d_7">
      <g>
       <use xlink:href="#mf8d021a72e" x="294.234709" y="275.973268" style="stroke: #000000; stroke-width: 0.8"/>
      </g>
     </g>
     <g id="text_7">
      <!-- 15.0 -->
      <g transform="translate(283.101896 290.571705) scale(0.1 -0.1)">
       <use xlink:href="#DejaVuSans-31"/>
       <use xlink:href="#DejaVuSans-35" transform="translate(63.623047 0)"/>
       <use xlink:href="#DejaVuSans-2e" transform="translate(127.246094 0)"/>
       <use xlink:href="#DejaVuSans-30" transform="translate(159.033203 0)"/>
      </g>
     </g>
    </g>
    <g id="xtick_8">
     <g id="line2d_8">
      <g>
       <use xlink:href="#mf8d021a72e" x="335.020456" y="275.973268" style="stroke: #000000; stroke-width: 0.8"/>
      </g>
     </g>
     <g id="text_8">
      <!-- 17.5 -->
      <g transform="translate(323.887643 290.571705) scale(0.1 -0.1)">
       <use xlink:href="#DejaVuSans-31"/>
       <use xlink:href="#DejaVuSans-37" transform="translate(63.623047 0)"/>
       <use xlink:href="#DejaVuSans-2e" transform="translate(127.246094 0)"/>
       <use xlink:href="#DejaVuSans-35" transform="translate(159.033203 0)"/>
      </g>
     </g>
    </g>
    <g id="xtick_9">
     <g id="line2d_9">
      <g>
       <use xlink:href="#mf8d021a72e" x="375.806203" y="275.973268" style="stroke: #000000; stroke-width: 0.8"/>
      </g>
     </g>
     <g id="text_9">
      <!-- 20.0 -->
      <g transform="translate(364.67339 290.571705) scale(0.1 -0.1)">
       <use xlink:href="#DejaVuSans-32"/>
       <use xlink:href="#DejaVuSans-30" transform="translate(63.623047 0)"/>
       <use xlink:href="#DejaVuSans-2e" transform="translate(127.246094 0)"/>
       <use xlink:href="#DejaVuSans-30" transform="translate(159.033203 0)"/>
      </g>
     </g>
    </g>
   </g>
   <g id="matplotlib.axis_2">
    <g id="ytick_1">
     <g id="line2d_10">
      <defs>
       <path id="mbd79987010" d="M 0 0 
L -3.5 0 
" style="stroke: #000000; stroke-width: 0.8"/>
      </defs>
      <g>
       <use xlink:href="#mbd79987010" x="33.2875" y="263.877268" style="stroke: #000000; stroke-width: 0.8"/>
      </g>
     </g>
     <g id="text_10">
      <!-- 0 -->
      <g transform="translate(19.925 267.676486) scale(0.1 -0.1)">
       <use xlink:href="#DejaVuSans-30"/>
      </g>
     </g>
    </g>
    <g id="ytick_2">
     <g id="line2d_11">
      <g>
       <use xlink:href="#mbd79987010" x="33.2875" y="221.730926" style="stroke: #000000; stroke-width: 0.8"/>
      </g>
     </g>
     <g id="text_11">
      <!-- 50 -->
      <g transform="translate(13.5625 225.530145) scale(0.1 -0.1)">
       <use xlink:href="#DejaVuSans-35"/>
       <use xlink:href="#DejaVuSans-30" transform="translate(63.623047 0)"/>
      </g>
     </g>
    </g>
    <g id="ytick_3">
     <g id="line2d_12">
      <g>
       <use xlink:href="#mbd79987010" x="33.2875" y="179.584585" style="stroke: #000000; stroke-width: 0.8"/>
      </g>
     </g>
     <g id="text_12">
      <!-- 100 -->
      <g transform="translate(7.2 183.383803) scale(0.1 -0.1)">
       <use xlink:href="#DejaVuSans-31"/>
       <use xlink:href="#DejaVuSans-30" transform="translate(63.623047 0)"/>
       <use xlink:href="#DejaVuSans-30" transform="translate(127.246094 0)"/>
      </g>
     </g>
    </g>
    <g id="ytick_4">
     <g id="line2d_13">
      <g>
       <use xlink:href="#mbd79987010" x="33.2875" y="137.438243" style="stroke: #000000; stroke-width: 0.8"/>
      </g>
     </g>
     <g id="text_13">
      <!-- 150 -->
      <g transform="translate(7.2 141.237462) scale(0.1 -0.1)">
       <use xlink:href="#DejaVuSans-31"/>
       <use xlink:href="#DejaVuSans-35" transform="translate(63.623047 0)"/>
       <use xlink:href="#DejaVuSans-30" transform="translate(127.246094 0)"/>
      </g>
     </g>
    </g>
    <g id="ytick_5">
     <g id="line2d_14">
      <g>
       <use xlink:href="#mbd79987010" x="33.2875" y="95.291902" style="stroke: #000000; stroke-width: 0.8"/>
      </g>
     </g>
     <g id="text_14">
      <!-- 200 -->
      <g transform="translate(7.2 99.09112) scale(0.1 -0.1)">
       <use xlink:href="#DejaVuSans-32"/>
       <use xlink:href="#DejaVuSans-30" transform="translate(63.623047 0)"/>
       <use xlink:href="#DejaVuSans-30" transform="translate(127.246094 0)"/>
      </g>
     </g>
    </g>
    <g id="ytick_6">
     <g id="line2d_15">
      <g>
       <use xlink:href="#mbd79987010" x="33.2875" y="53.14556" style="stroke: #000000; stroke-width: 0.8"/>
      </g>
     </g>
     <g id="text_15">
      <!-- 250 -->
      <g transform="translate(7.2 56.944779) scale(0.1 -0.1)">
       <use xlink:href="#DejaVuSans-32"/>
       <use xlink:href="#DejaVuSans-35" transform="translate(63.623047 0)"/>
       <use xlink:href="#DejaVuSans-30" transform="translate(127.246094 0)"/>
      </g>
     </g>
    </g>
    <g id="ytick_7">
     <g id="line2d_16">
      <g>
       <use xlink:href="#mbd79987010" x="33.2875" y="10.999219" style="stroke: #000000; stroke-width: 0.8"/>
      </g>
     </g>
     <g id="text_16">
      <!-- 300 -->
      <g transform="translate(7.2 14.798438) scale(0.1 -0.1)">
       <defs>
        <path id="DejaVuSans-33" d="M 2597 2516 
Q 3050 2419 3304 2112 
Q 3559 1806 3559 1356 
Q 3559 666 3084 287 
Q 2609 -91 1734 -91 
Q 1441 -91 1130 -33 
Q 819 25 488 141 
L 488 750 
Q 750 597 1062 519 
Q 1375 441 1716 441 
Q 2309 441 2620 675 
Q 2931 909 2931 1356 
Q 2931 1769 2642 2001 
Q 2353 2234 1838 2234 
L 1294 2234 
L 1294 2753 
L 1863 2753 
Q 2328 2753 2575 2939 
Q 2822 3125 2822 3475 
Q 2822 3834 2567 4026 
Q 2313 4219 1838 4219 
Q 1578 4219 1281 4162 
Q 984 4106 628 3988 
L 628 4550 
Q 988 4650 1302 4700 
Q 1616 4750 1894 4750 
Q 2613 4750 3031 4423 
Q 3450 4097 3450 3541 
Q 3450 3153 3228 2886 
Q 3006 2619 2597 2516 
z
" transform="scale(0.015625)"/>
       </defs>
       <use xlink:href="#DejaVuSans-33"/>
       <use xlink:href="#DejaVuSans-30" transform="translate(63.623047 0)"/>
       <use xlink:href="#DejaVuSans-30" transform="translate(127.246094 0)"/>
      </g>
     </g>
    </g>
   </g>
   <g id="line2d_17">
    <path d="M 49.520227 263.877268 
L 51.151657 195.600194 
L 52.783087 150.925072 
L 54.414517 109.621658 
L 56.045947 97.820682 
L 57.677377 79.276292 
L 59.308807 73.375804 
L 60.940236 63.260682 
L 62.571666 48.930926 
L 64.203096 32.915316 
L 65.834526 39.658731 
L 67.465956 48.087999 
L 69.097386 54.831414 
L 70.728816 50.61678 
L 72.360246 59.046048 
L 73.991675 58.203121 
L 75.623105 51.459707 
L 77.254535 56.517268 
L 78.885965 53.988487 
L 80.517395 53.988487 
L 82.148825 50.61678 
L 83.780255 44.716292 
L 85.411685 44.716292 
L 87.043114 51.459707 
L 88.674544 59.046048 
L 90.305974 54.831414 
L 91.937404 49.773853 
L 93.568834 53.988487 
L 95.200264 45.559219 
L 96.831694 47.245072 
L 98.463124 52.302633 
L 100.094553 48.930926 
L 101.725983 43.873365 
L 103.357413 44.716292 
L 104.988843 48.930926 
L 106.620273 39.658731 
L 108.251703 49.773853 
L 109.883133 51.459707 
L 113.145992 73.375804 
L 114.777422 74.218731 
L 116.408852 71.68995 
L 118.040282 59.888975 
L 119.671712 51.459707 
L 121.303142 48.087999 
L 122.934572 46.402146 
L 124.566002 46.402146 
L 126.197431 36.287024 
L 127.828861 37.12995 
L 129.460291 39.658731 
L 131.091721 34.60117 
L 132.723151 39.658731 
L 134.354581 45.559219 
L 135.986011 59.888975 
L 137.617441 72.532877 
L 139.24887 75.061658 
L 140.8803 57.360194 
L 142.51173 60.731902 
L 144.14316 48.930926 
L 145.77459 51.459707 
L 147.40602 38.815804 
L 149.03745 57.360194 
L 150.66888 59.888975 
L 152.30031 69.16117 
L 153.931739 77.590438 
L 157.194599 91.077268 
L 158.826029 75.061658 
L 160.457459 68.318243 
L 162.088889 60.731902 
L 165.351749 60.731902 
L 166.983178 58.203121 
L 168.614608 56.517268 
L 170.246038 59.888975 
L 171.877468 67.475316 
L 175.140328 57.360194 
L 176.771758 61.574829 
L 178.403188 49.773853 
L 180.034617 53.988487 
L 181.666047 70.004097 
L 183.297477 71.68995 
L 184.928907 77.590438 
L 186.560337 72.532877 
L 188.191767 70.004097 
L 189.823197 71.68995 
L 191.454627 72.532877 
L 193.086056 70.004097 
L 194.717486 66.632389 
L 196.348916 66.632389 
L 197.980346 67.475316 
L 199.611776 63.260682 
L 201.243206 57.360194 
L 202.874636 63.260682 
L 204.506066 51.459707 
L 206.137495 43.030438 
L 207.768925 44.716292 
L 209.400355 49.773853 
L 211.031785 59.046048 
L 212.663215 58.203121 
L 214.294645 53.14556 
L 215.926075 43.873365 
L 217.557505 33.758243 
L 219.188934 35.444097 
L 220.820364 48.930926 
L 222.451794 48.087999 
L 224.083224 34.60117 
L 225.714654 40.501658 
L 227.346084 50.61678 
L 228.977514 56.517268 
L 230.608944 45.559219 
L 232.240373 37.972877 
L 233.871803 41.344585 
L 235.503233 43.030438 
L 237.134663 54.831414 
L 238.766093 35.444097 
L 240.397523 40.501658 
L 242.028953 43.030438 
L 243.660383 34.60117 
L 245.291812 37.12995 
L 246.923242 42.187511 
L 248.554672 42.187511 
L 250.186102 59.046048 
L 251.817532 54.831414 
L 253.448962 55.674341 
L 255.080392 70.004097 
L 256.711822 60.731902 
L 258.343251 70.004097 
L 259.974681 62.417755 
L 261.606111 64.103609 
L 263.237541 64.103609 
L 264.868971 64.946536 
L 266.500401 53.988487 
L 268.131831 53.988487 
L 269.763261 67.475316 
L 271.39469 60.731902 
L 273.02612 43.873365 
L 274.65755 42.187511 
L 276.28898 32.072389 
L 277.92041 41.344585 
L 279.55184 36.287024 
L 281.18327 26.171902 
L 282.8147 21.957268 
L 284.44613 33.758243 
L 286.077559 58.203121 
L 287.708989 60.731902 
L 289.340419 70.004097 
L 290.971849 66.632389 
L 292.603279 65.789463 
L 294.234709 66.632389 
L 295.866139 70.004097 
L 297.497569 69.16117 
L 300.760428 72.532877 
L 302.391858 70.004097 
L 304.023288 56.517268 
L 305.654718 64.103609 
L 307.286148 44.716292 
L 308.917578 37.972877 
L 310.549008 34.60117 
L 312.180437 53.988487 
L 313.811867 54.831414 
L 315.443297 58.203121 
L 317.074727 64.103609 
L 318.706157 54.831414 
L 320.337587 55.674341 
L 321.969017 48.930926 
L 323.600447 46.402146 
L 325.231876 48.087999 
L 326.863306 61.574829 
L 328.494736 62.417755 
L 330.126166 61.574829 
L 331.757596 50.61678 
L 333.389026 47.245072 
L 335.020456 36.287024 
L 336.651886 34.60117 
L 338.283315 40.501658 
L 339.914745 39.658731 
L 341.546175 33.758243 
L 343.177605 47.245072 
L 344.809035 37.12995 
L 346.440465 52.302633 
L 348.071895 31.229463 
L 349.703325 39.658731 
L 351.334754 46.402146 
L 352.966184 39.658731 
L 354.597614 48.087999 
L 356.229044 49.773853 
L 357.860474 38.815804 
L 359.491904 42.187511 
L 361.123334 50.61678 
L 362.754764 33.758243 
L 364.386193 59.888975 
L 366.017623 59.888975 
L 367.649053 58.203121 
L 369.280483 53.14556 
L 370.911913 46.402146 
L 372.543343 48.087999 
L 374.174773 53.988487 
L 374.174773 53.988487 
" clip-path="url(#peecf289efd)" style="fill: none; stroke: #1f77b4; stroke-width: 1.5; stroke-linecap: square"/>
   </g>
   <g id="line2d_18">
    <path d="M 49.520227 263.877268 
L 51.151657 249.547511 
L 52.783087 219.202146 
L 54.414517 193.914341 
L 56.045947 158.511414 
L 57.677377 145.867511 
L 59.308807 120.579707 
L 60.940236 112.150438 
L 62.571666 101.192389 
L 64.203096 96.977755 
L 65.834526 79.276292 
L 67.465956 64.103609 
L 69.097386 65.789463 
L 70.728816 65.789463 
L 72.360246 59.046048 
L 73.991675 65.789463 
L 75.623105 66.632389 
L 77.254535 52.302633 
L 78.885965 50.61678 
L 80.517395 43.873365 
L 82.148825 48.087999 
L 83.780255 53.14556 
L 85.411685 45.559219 
L 87.043114 48.930926 
L 88.674544 34.60117 
L 90.305974 38.815804 
L 91.937404 44.716292 
L 93.568834 49.773853 
L 95.200264 61.574829 
L 96.831694 54.831414 
L 98.463124 50.61678 
L 100.094553 60.731902 
L 101.725983 53.988487 
L 103.357413 53.988487 
L 104.988843 59.888975 
L 106.620273 66.632389 
L 108.251703 45.559219 
L 109.883133 47.245072 
L 111.514563 36.287024 
L 113.145992 29.543609 
L 114.777422 42.187511 
L 116.408852 51.459707 
L 118.040282 73.375804 
L 119.671712 76.747511 
L 121.303142 64.946536 
L 122.934572 70.004097 
L 124.566002 68.318243 
L 126.197431 72.532877 
L 127.828861 60.731902 
L 129.460291 53.14556 
L 131.091721 48.930926 
L 132.723151 38.815804 
L 134.354581 39.658731 
L 135.986011 27.857755 
L 137.617441 28.700682 
L 139.24887 42.187511 
L 140.8803 60.731902 
L 142.51173 56.517268 
L 144.14316 80.119219 
L 145.77459 76.747511 
L 147.40602 69.16117 
L 149.03745 64.946536 
L 150.66888 67.475316 
L 152.30031 49.773853 
L 153.931739 39.658731 
L 155.563169 46.402146 
L 157.194599 34.60117 
L 158.826029 53.988487 
L 160.457459 62.417755 
L 162.088889 64.103609 
L 163.720319 64.103609 
L 165.351749 56.517268 
L 166.983178 67.475316 
L 168.614608 70.847024 
L 170.246038 59.046048 
L 171.877468 53.988487 
L 173.508898 54.831414 
L 175.140328 53.988487 
L 176.771758 45.559219 
L 178.403188 61.574829 
L 180.034617 58.203121 
L 181.666047 51.459707 
L 183.297477 61.574829 
L 184.928907 51.459707 
L 186.560337 49.773853 
L 188.191767 39.658731 
L 189.823197 35.444097 
L 191.454627 40.501658 
L 193.086056 58.203121 
L 194.717486 61.574829 
L 196.348916 59.046048 
L 197.980346 53.988487 
L 199.611776 55.674341 
L 201.243206 69.16117 
L 202.874636 62.417755 
L 204.506066 70.004097 
L 206.137495 66.632389 
L 207.768925 69.16117 
L 209.400355 70.004097 
L 211.031785 48.930926 
L 212.663215 58.203121 
L 214.294645 71.68995 
L 215.926075 72.532877 
L 217.557505 89.391414 
L 219.188934 77.590438 
L 220.820364 70.004097 
L 222.451794 59.888975 
L 224.083224 66.632389 
L 225.714654 67.475316 
L 227.346084 52.302633 
L 230.608944 52.302633 
L 232.240373 67.475316 
L 233.871803 61.574829 
L 235.503233 59.046048 
L 237.134663 52.302633 
L 238.766093 70.847024 
L 240.397523 68.318243 
L 243.660383 61.574829 
L 245.291812 55.674341 
L 246.923242 46.402146 
L 248.554672 55.674341 
L 250.186102 44.716292 
L 251.817532 52.302633 
L 253.448962 36.287024 
L 255.080392 29.543609 
L 256.711822 40.501658 
L 258.343251 34.60117 
L 259.974681 35.444097 
L 261.606111 37.972877 
L 263.237541 38.815804 
L 264.868971 53.14556 
L 266.500401 57.360194 
L 268.131831 65.789463 
L 269.763261 38.815804 
L 271.39469 55.674341 
L 273.02612 65.789463 
L 274.65755 59.888975 
L 276.28898 61.574829 
L 277.92041 53.988487 
L 279.55184 53.988487 
L 281.18327 58.203121 
L 282.8147 59.046048 
L 284.44613 48.087999 
L 286.077559 35.444097 
L 287.708989 40.501658 
L 289.340419 44.716292 
L 290.971849 47.245072 
L 292.603279 33.758243 
L 294.234709 47.245072 
L 295.866139 45.559219 
L 297.497569 54.831414 
L 299.128998 43.873365 
L 300.760428 50.61678 
L 302.391858 53.14556 
L 304.023288 54.831414 
L 305.654718 61.574829 
L 307.286148 86.019707 
L 308.917578 84.333853 
L 310.549008 77.590438 
L 312.180437 62.417755 
L 313.811867 59.046048 
L 315.443297 61.574829 
L 317.074727 51.459707 
L 318.706157 52.302633 
L 320.337587 59.046048 
L 321.969017 75.904585 
L 323.600447 69.16117 
L 325.231876 54.831414 
L 326.863306 44.716292 
L 328.494736 47.245072 
L 330.126166 50.61678 
L 331.757596 57.360194 
L 333.389026 69.16117 
L 335.020456 70.847024 
L 336.651886 50.61678 
L 338.283315 32.915316 
L 339.914745 25.328975 
L 341.546175 37.12995 
L 343.177605 35.444097 
L 344.809035 55.674341 
L 346.440465 40.501658 
L 348.071895 64.946536 
L 349.703325 41.344585 
L 351.334754 46.402146 
L 352.966184 55.674341 
L 354.597614 50.61678 
L 356.229044 43.873365 
L 357.860474 56.517268 
L 359.491904 67.475316 
L 361.123334 46.402146 
L 362.754764 78.433365 
L 364.386193 45.559219 
L 366.017623 42.187511 
L 367.649053 39.658731 
L 369.280483 41.344585 
L 370.911913 40.501658 
L 372.543343 47.245072 
L 374.174773 43.873365 
L 374.174773 43.873365 
" clip-path="url(#peecf289efd)" style="fill: none; stroke: #ff7f0e; stroke-width: 1.5; stroke-linecap: square"/>
   </g>
   <g id="patch_3">
    <path d="M 33.2875 275.973268 
L 33.2875 9.861268 
" style="fill: none; stroke: #000000; stroke-width: 0.8; stroke-linejoin: miter; stroke-linecap: square"/>
   </g>
   <g id="patch_4">
    <path d="M 390.4075 275.973268 
L 390.4075 9.861268 
" style="fill: none; stroke: #000000; stroke-width: 0.8; stroke-linejoin: miter; stroke-linecap: square"/>
   </g>
   <g id="patch_5">
    <path d="M 33.2875 275.973268 
L 390.4075 275.973268 
" style="fill: none; stroke: #000000; stroke-width: 0.8; stroke-linejoin: miter; stroke-linecap: square"/>
   </g>
   <g id="patch_6">
    <path d="M 33.2875 9.861268 
L 390.4075 9.861268 
" style="fill: none; stroke: #000000; stroke-width: 0.8; stroke-linejoin: miter; stroke-linecap: square"/>
   </g>
  </g>
 </g>
 <defs>
  <clipPath id="peecf289efd">
   <rect x="33.2875" y="9.861268" width="357.12" height="266.112"/>
  </clipPath>
 </defs>
</svg>
