<?xml version="1.0" encoding="utf-8" standalone="no"?>
<!DOCTYPE svg PUBLIC "-//W3C//DTD SVG 1.1//EN"
  "http://www.w3.org/Graphics/SVG/1.1/DTD/svg11.dtd">
<svg xmlns:xlink="http://www.w3.org/1999/xlink" width="403.97pt" height="297.190125pt" viewBox="0 0 403.97 297.190125" xmlns="http://www.w3.org/2000/svg" version="1.1">
 <metadata>
  <rdf:RDF xmlns:dc="http://purl.org/dc/elements/1.1/" xmlns:cc="http://creativecommons.org/ns#" xmlns:rdf="http://www.w3.org/1999/02/22-rdf-syntax-ns#">
   <cc:Work>
    <dc:type rdf:resource="http://purl.org/dc/dcmitype/StillImage"/>
    <dc:date>2024-04-19T02:58:35.906664</dc:date>
    <dc:format>image/svg+xml</dc:format>
    <dc:creator>
     <cc:Agent>
      <dc:title>Matplotlib v3.8.4, https://matplotlib.org/</dc:title>
     </cc:Agent>
    </dc:creator>
   </cc:Work>
  </rdf:RDF>
 </metadata>
 <defs>
  <style type="text/css">*{stroke-linejoin: round; stroke-linecap: butt}</style>
 </defs>
 <g id="figure_1">
  <g id="patch_1">
   <path d="M 0 297.190125 
L 403.97 297.190125 
L 403.97 0 
L 0 0 
z
" style="fill: #ffffff"/>
  </g>
  <g id="axes_1">
   <g id="patch_2">
    <path d="M 39.65 273.312 
L 396.77 273.312 
L 396.77 7.2 
L 39.65 7.2 
z
" style="fill: #ffffff"/>
   </g>
   <g id="matplotlib.axis_1">
    <g id="xtick_1">
     <g id="line2d_1">
      <defs>
       <path id="m80e0230b5a" d="M 0 0 
L 0 3.5 
" style="stroke: #000000; stroke-width: 0.8"/>
      </defs>
      <g>
       <use xlink:href="#m80e0230b5a" x="55.882727" y="273.312" style="stroke: #000000; stroke-width: 0.8"/>
      </g>
     </g>
     <g id="text_1">
      <!-- 0.0 -->
      <g transform="translate(47.931165 287.910437) scale(0.1 -0.1)">
       <defs>
        <path id="DejaVuSans-30" d="M 2034 4250 
Q 1547 4250 1301 3770 
Q 1056 3291 1056 2328 
Q 1056 1369 1301 889 
Q 1547 409 2034 409 
Q 2525 409 2770 889 
Q 3016 1369 3016 2328 
Q 3016 3291 2770 3770 
Q 2525 4250 2034 4250 
z
M 2034 4750 
Q 2819 4750 3233 4129 
Q 3647 3509 3647 2328 
Q 3647 1150 3233 529 
Q 2819 -91 2034 -91 
Q 1250 -91 836 529 
Q 422 1150 422 2328 
Q 422 3509 836 4129 
Q 1250 4750 2034 4750 
z
" transform="scale(0.015625)"/>
        <path id="DejaVuSans-2e" d="M 684 794 
L 1344 794 
L 1344 0 
L 684 0 
L 684 794 
z
" transform="scale(0.015625)"/>
       </defs>
       <use xlink:href="#DejaVuSans-30"/>
       <use xlink:href="#DejaVuSans-2e" x="63.623047"/>
       <use xlink:href="#DejaVuSans-30" x="95.410156"/>
      </g>
     </g>
    </g>
    <g id="xtick_2">
     <g id="line2d_2">
      <g>
       <use xlink:href="#m80e0230b5a" x="96.668474" y="273.312" style="stroke: #000000; stroke-width: 0.8"/>
      </g>
     </g>
     <g id="text_2">
      <!-- 2.5 -->
      <g transform="translate(88.716912 287.910437) scale(0.1 -0.1)">
       <defs>
        <path id="DejaVuSans-32" d="M 1228 531 
L 3431 531 
L 3431 0 
L 469 0 
L 469 531 
Q 828 903 1448 1529 
Q 2069 2156 2228 2338 
Q 2531 2678 2651 2914 
Q 2772 3150 2772 3378 
Q 2772 3750 2511 3984 
Q 2250 4219 1831 4219 
Q 1534 4219 1204 4116 
Q 875 4013 500 3803 
L 500 4441 
Q 881 4594 1212 4672 
Q 1544 4750 1819 4750 
Q 2544 4750 2975 4387 
Q 3406 4025 3406 3419 
Q 3406 3131 3298 2873 
Q 3191 2616 2906 2266 
Q 2828 2175 2409 1742 
Q 1991 1309 1228 531 
z
" transform="scale(0.015625)"/>
        <path id="DejaVuSans-35" d="M 691 4666 
L 3169 4666 
L 3169 4134 
L 1269 4134 
L 1269 2991 
Q 1406 3038 1543 3061 
Q 1681 3084 1819 3084 
Q 2600 3084 3056 2656 
Q 3513 2228 3513 1497 
Q 3513 744 3044 326 
Q 2575 -91 1722 -91 
Q 1428 -91 1123 -41 
Q 819 9 494 109 
L 494 744 
Q 775 591 1075 516 
Q 1375 441 1709 441 
Q 2250 441 2565 725 
Q 2881 1009 2881 1497 
Q 2881 1984 2565 2268 
Q 2250 2553 1709 2553 
Q 1456 2553 1204 2497 
Q 953 2441 691 2322 
L 691 4666 
z
" transform="scale(0.015625)"/>
       </defs>
       <use xlink:href="#DejaVuSans-32"/>
       <use xlink:href="#DejaVuSans-2e" x="63.623047"/>
       <use xlink:href="#DejaVuSans-35" x="95.410156"/>
      </g>
     </g>
    </g>
    <g id="xtick_3">
     <g id="line2d_3">
      <g>
       <use xlink:href="#m80e0230b5a" x="137.454221" y="273.312" style="stroke: #000000; stroke-width: 0.8"/>
      </g>
     </g>
     <g id="text_3">
      <!-- 5.0 -->
      <g transform="translate(129.502659 287.910437) scale(0.1 -0.1)">
       <use xlink:href="#DejaVuSans-35"/>
       <use xlink:href="#DejaVuSans-2e" x="63.623047"/>
       <use xlink:href="#DejaVuSans-30" x="95.410156"/>
      </g>
     </g>
    </g>
    <g id="xtick_4">
     <g id="line2d_4">
      <g>
       <use xlink:href="#m80e0230b5a" x="178.239968" y="273.312" style="stroke: #000000; stroke-width: 0.8"/>
      </g>
     </g>
     <g id="text_4">
      <!-- 7.5 -->
      <g transform="translate(170.288406 287.910437) scale(0.1 -0.1)">
       <defs>
        <path id="DejaVuSans-37" d="M 525 4666 
L 3525 4666 
L 3525 4397 
L 1831 0 
L 1172 0 
L 2766 4134 
L 525 4134 
L 525 4666 
z
" transform="scale(0.015625)"/>
       </defs>
       <use xlink:href="#DejaVuSans-37"/>
       <use xlink:href="#DejaVuSans-2e" x="63.623047"/>
       <use xlink:href="#DejaVuSans-35" x="95.410156"/>
      </g>
     </g>
    </g>
    <g id="xtick_5">
     <g id="line2d_5">
      <g>
       <use xlink:href="#m80e0230b5a" x="219.025715" y="273.312" style="stroke: #000000; stroke-width: 0.8"/>
      </g>
     </g>
     <g id="text_5">
      <!-- 10.0 -->
      <g transform="translate(207.892902 287.910437) scale(0.1 -0.1)">
       <defs>
        <path id="DejaVuSans-31" d="M 794 531 
L 1825 531 
L 1825 4091 
L 703 3866 
L 703 4441 
L 1819 4666 
L 2450 4666 
L 2450 531 
L 3481 531 
L 3481 0 
L 794 0 
L 794 531 
z
" transform="scale(0.015625)"/>
       </defs>
       <use xlink:href="#DejaVuSans-31"/>
       <use xlink:href="#DejaVuSans-30" x="63.623047"/>
       <use xlink:href="#DejaVuSans-2e" x="127.246094"/>
       <use xlink:href="#DejaVuSans-30" x="159.033203"/>
      </g>
     </g>
    </g>
    <g id="xtick_6">
     <g id="line2d_6">
      <g>
       <use xlink:href="#m80e0230b5a" x="259.811462" y="273.312" style="stroke: #000000; stroke-width: 0.8"/>
      </g>
     </g>
     <g id="text_6">
      <!-- 12.5 -->
      <g transform="translate(248.678649 287.910437) scale(0.1 -0.1)">
       <use xlink:href="#DejaVuSans-31"/>
       <use xlink:href="#DejaVuSans-32" x="63.623047"/>
       <use xlink:href="#DejaVuSans-2e" x="127.246094"/>
       <use xlink:href="#DejaVuSans-35" x="159.033203"/>
      </g>
     </g>
    </g>
    <g id="xtick_7">
     <g id="line2d_7">
      <g>
       <use xlink:href="#m80e0230b5a" x="300.597209" y="273.312" style="stroke: #000000; stroke-width: 0.8"/>
      </g>
     </g>
     <g id="text_7">
      <!-- 15.0 -->
      <g transform="translate(289.464396 287.910437) scale(0.1 -0.1)">
       <use xlink:href="#DejaVuSans-31"/>
       <use xlink:href="#DejaVuSans-35" x="63.623047"/>
       <use xlink:href="#DejaVuSans-2e" x="127.246094"/>
       <use xlink:href="#DejaVuSans-30" x="159.033203"/>
      </g>
     </g>
    </g>
    <g id="xtick_8">
     <g id="line2d_8">
      <g>
       <use xlink:href="#m80e0230b5a" x="341.382956" y="273.312" style="stroke: #000000; stroke-width: 0.8"/>
      </g>
     </g>
     <g id="text_8">
      <!-- 17.5 -->
      <g transform="translate(330.250143 287.910437) scale(0.1 -0.1)">
       <use xlink:href="#DejaVuSans-31"/>
       <use xlink:href="#DejaVuSans-37" x="63.623047"/>
       <use xlink:href="#DejaVuSans-2e" x="127.246094"/>
       <use xlink:href="#DejaVuSans-35" x="159.033203"/>
      </g>
     </g>
    </g>
    <g id="xtick_9">
     <g id="line2d_9">
      <g>
       <use xlink:href="#m80e0230b5a" x="382.168703" y="273.312" style="stroke: #000000; stroke-width: 0.8"/>
      </g>
     </g>
     <g id="text_9">
      <!-- 20.0 -->
      <g transform="translate(371.03589 287.910437) scale(0.1 -0.1)">
       <use xlink:href="#DejaVuSans-32"/>
       <use xlink:href="#DejaVuSans-30" x="63.623047"/>
       <use xlink:href="#DejaVuSans-2e" x="127.246094"/>
       <use xlink:href="#DejaVuSans-30" x="159.033203"/>
      </g>
     </g>
    </g>
   </g>
   <g id="matplotlib.axis_2">
    <g id="ytick_1">
     <g id="line2d_10">
      <defs>
       <path id="m185b052f38" d="M 0 0 
L -3.5 0 
" style="stroke: #000000; stroke-width: 0.8"/>
      </defs>
      <g>
       <use xlink:href="#m185b052f38" x="39.65" y="261.216" style="stroke: #000000; stroke-width: 0.8"/>
      </g>
     </g>
     <g id="text_10">
      <!-- 0 -->
      <g transform="translate(26.2875 265.015219) scale(0.1 -0.1)">
       <use xlink:href="#DejaVuSans-30"/>
      </g>
     </g>
    </g>
    <g id="ytick_2">
     <g id="line2d_11">
      <g>
       <use xlink:href="#m185b052f38" x="39.65" y="220.877804" style="stroke: #000000; stroke-width: 0.8"/>
      </g>
     </g>
     <g id="text_11">
      <!-- 500 -->
      <g transform="translate(13.5625 224.677022) scale(0.1 -0.1)">
       <use xlink:href="#DejaVuSans-35"/>
       <use xlink:href="#DejaVuSans-30" x="63.623047"/>
       <use xlink:href="#DejaVuSans-30" x="127.246094"/>
      </g>
     </g>
    </g>
    <g id="ytick_3">
     <g id="line2d_12">
      <g>
       <use xlink:href="#m185b052f38" x="39.65" y="180.539607" style="stroke: #000000; stroke-width: 0.8"/>
      </g>
     </g>
     <g id="text_12">
      <!-- 1000 -->
      <g transform="translate(7.2 184.338826) scale(0.1 -0.1)">
       <use xlink:href="#DejaVuSans-31"/>
       <use xlink:href="#DejaVuSans-30" x="63.623047"/>
       <use xlink:href="#DejaVuSans-30" x="127.246094"/>
       <use xlink:href="#DejaVuSans-30" x="190.869141"/>
      </g>
     </g>
    </g>
    <g id="ytick_4">
     <g id="line2d_13">
      <g>
       <use xlink:href="#m185b052f38" x="39.65" y="140.201411" style="stroke: #000000; stroke-width: 0.8"/>
      </g>
     </g>
     <g id="text_13">
      <!-- 1500 -->
      <g transform="translate(7.2 144.00063) scale(0.1 -0.1)">
       <use xlink:href="#DejaVuSans-31"/>
       <use xlink:href="#DejaVuSans-35" x="63.623047"/>
       <use xlink:href="#DejaVuSans-30" x="127.246094"/>
       <use xlink:href="#DejaVuSans-30" x="190.869141"/>
      </g>
     </g>
    </g>
    <g id="ytick_5">
     <g id="line2d_14">
      <g>
       <use xlink:href="#m185b052f38" x="39.65" y="99.863215" style="stroke: #000000; stroke-width: 0.8"/>
      </g>
     </g>
     <g id="text_14">
      <!-- 2000 -->
      <g transform="translate(7.2 103.662434) scale(0.1 -0.1)">
       <use xlink:href="#DejaVuSans-32"/>
       <use xlink:href="#DejaVuSans-30" x="63.623047"/>
       <use xlink:href="#DejaVuSans-30" x="127.246094"/>
       <use xlink:href="#DejaVuSans-30" x="190.869141"/>
      </g>
     </g>
    </g>
    <g id="ytick_6">
     <g id="line2d_15">
      <g>
       <use xlink:href="#m185b052f38" x="39.65" y="59.525019" style="stroke: #000000; stroke-width: 0.8"/>
      </g>
     </g>
     <g id="text_15">
      <!-- 2500 -->
      <g transform="translate(7.2 63.324237) scale(0.1 -0.1)">
       <use xlink:href="#DejaVuSans-32"/>
       <use xlink:href="#DejaVuSans-35" x="63.623047"/>
       <use xlink:href="#DejaVuSans-30" x="127.246094"/>
       <use xlink:href="#DejaVuSans-30" x="190.869141"/>
      </g>
     </g>
    </g>
    <g id="ytick_7">
     <g id="line2d_16">
      <g>
       <use xlink:href="#m185b052f38" x="39.65" y="19.186822" style="stroke: #000000; stroke-width: 0.8"/>
      </g>
     </g>
     <g id="text_16">
      <!-- 3000 -->
      <g transform="translate(7.2 22.986041) scale(0.1 -0.1)">
       <defs>
        <path id="DejaVuSans-33" d="M 2597 2516 
Q 3050 2419 3304 2112 
Q 3559 1806 3559 1356 
Q 3559 666 3084 287 
Q 2609 -91 1734 -91 
Q 1441 -91 1130 -33 
Q 819 25 488 141 
L 488 750 
Q 750 597 1062 519 
Q 1375 441 1716 441 
Q 2309 441 2620 675 
Q 2931 909 2931 1356 
Q 2931 1769 2642 2001 
Q 2353 2234 1838 2234 
L 1294 2234 
L 1294 2753 
L 1863 2753 
Q 2328 2753 2575 2939 
Q 2822 3125 2822 3475 
Q 2822 3834 2567 4026 
Q 2313 4219 1838 4219 
Q 1578 4219 1281 4162 
Q 984 4106 628 3988 
L 628 4550 
Q 988 4650 1302 4700 
Q 1616 4750 1894 4750 
Q 2613 4750 3031 4423 
Q 3450 4097 3450 3541 
Q 3450 3153 3228 2886 
Q 3006 2619 2597 2516 
z
" transform="scale(0.015625)"/>
       </defs>
       <use xlink:href="#DejaVuSans-33"/>
       <use xlink:href="#DejaVuSans-30" x="63.623047"/>
       <use xlink:href="#DejaVuSans-30" x="127.246094"/>
       <use xlink:href="#DejaVuSans-30" x="190.869141"/>
      </g>
     </g>
    </g>
   </g>
   <g id="line2d_17">
    <path d="M 55.882727 261.216 
L 72.197026 180.539607 
L 88.511325 126.755346 
L 104.825624 90.899171 
L 121.139922 66.995055 
L 137.454221 51.058977 
L 153.76852 40.434926 
L 170.082819 33.352225 
L 186.397117 28.630424 
L 202.711416 25.482557 
L 219.025715 23.383979 
L 235.340014 21.984926 
L 251.654312 21.052225 
L 267.968611 20.430424 
L 284.28291 20.01589 
L 300.597209 19.739534 
L 316.911508 19.555297 
L 333.225806 19.432472 
L 349.540105 19.350589 
L 365.854404 19.296 
" clip-path="url(#p4822f16a7e)" style="fill: none; stroke: #1f77b4; stroke-width: 1.5; stroke-linecap: square"/>
   </g>
   <g id="line2d_18">
    <path d="M 55.882727 261.216 
L 72.197026 261.216 
L 88.511325 234.323869 
L 104.825624 207.431738 
L 121.139922 186.515637 
L 137.454221 171.575564 
L 153.76852 161.283514 
L 170.082819 154.31148 
L 186.397117 149.626568 
L 202.711416 146.490997 
L 219.025715 144.396518 
L 235.340014 142.998832 
L 251.654312 142.066586 
L 267.968611 141.444937 
L 284.28291 141.030454 
L 300.597209 140.754115 
L 316.911508 140.569883 
L 333.225806 140.44706 
L 349.540105 140.365177 
L 365.854404 140.310589 
" clip-path="url(#p4822f16a7e)" style="fill: none; stroke: #ff7f0e; stroke-width: 1.5; stroke-linecap: square"/>
   </g>
   <g id="line2d_19">
    <path d="M 55.882727 261.216 
L 59.145587 246.774926 
L 64.039877 223.217419 
L 65.671307 216.521279 
L 67.302736 210.309196 
L 70.565596 199.256531 
L 72.197026 192.318361 
L 73.828456 187.558454 
L 75.459886 181.023666 
L 81.985605 159.079687 
L 83.617035 154.31978 
L 85.248465 151.334753 
L 86.879895 147.542963 
L 88.511325 145.687406 
L 90.142755 140.604793 
L 93.405614 133.263241 
L 95.037044 130.681597 
L 96.668474 125.276279 
L 98.299904 121.726517 
L 99.931334 117.85405 
L 101.562764 114.788348 
L 103.194194 111.15791 
L 104.825624 108.495589 
L 106.457053 104.542446 
L 108.088483 102.20283 
L 109.719913 97.039541 
L 111.351343 95.587366 
L 112.982773 92.844369 
L 114.614203 91.069488 
L 116.245633 88.003785 
L 117.877063 85.986875 
L 119.508492 84.5347 
L 121.139922 82.437114 
L 122.771352 83.889289 
L 124.402782 82.840496 
L 126.034212 82.75982 
L 127.665642 81.711027 
L 129.297072 79.048706 
L 130.928502 77.354501 
L 132.559931 75.498944 
L 134.191361 73.159329 
L 135.822791 69.448215 
L 137.454221 66.86657 
L 139.085651 64.607631 
L 140.717081 63.96222 
L 142.348511 61.622605 
L 143.979941 58.879607 
L 145.61137 58.15352 
L 147.2428 54.039024 
L 148.87423 52.748202 
L 152.13709 51.134674 
L 153.76852 50.166557 
L 155.39995 50.569939 
L 157.03138 49.601822 
L 158.66281 48.795058 
L 160.294239 47.584913 
L 161.925669 46.536119 
L 163.557099 45.729355 
L 165.188529 45.729355 
L 166.819959 44.761239 
L 168.451389 43.38974 
L 171.714249 40.243361 
L 173.345678 41.37283 
L 174.977108 39.194568 
L 176.608538 38.629833 
L 178.239968 36.290218 
L 179.871398 35.806159 
L 181.502828 34.111955 
L 183.134258 35.725483 
L 184.765688 35.483454 
L 186.397117 34.918719 
L 188.028547 35.160748 
L 189.659977 33.627897 
L 191.291407 32.901809 
L 192.922837 34.67669 
L 194.554267 34.192631 
L 196.185697 33.950602 
L 197.817127 32.579103 
L 199.448556 32.256398 
L 201.079986 31.691663 
L 202.711416 30.884899 
L 204.342846 31.046252 
L 205.974276 30.804223 
L 207.605706 29.594077 
L 209.237136 30.64287 
L 210.868566 30.884899 
L 212.499995 30.239488 
L 214.131425 30.078135 
L 215.762855 31.77234 
L 219.025715 33.466544 
L 220.657145 33.224515 
L 222.288575 30.884899 
L 223.920005 30.723546 
L 225.551434 28.383931 
L 227.182864 27.335138 
L 228.814294 27.335138 
L 230.445724 28.222578 
L 232.077154 28.383931 
L 233.708584 27.657844 
L 235.340014 27.899873 
L 236.971444 27.173785 
L 238.602873 27.819196 
L 240.234303 27.73852 
L 241.865733 27.899873 
L 243.497163 25.076199 
L 245.128593 24.350111 
L 246.760023 24.753493 
L 248.391453 26.770403 
L 250.022883 25.72161 
L 251.654312 26.60905 
L 253.285742 26.205668 
L 256.548602 26.770403 
L 258.180032 26.124992 
L 259.811462 26.85108 
L 261.442892 26.528374 
L 263.074322 26.770403 
L 264.705751 27.980549 
L 266.337181 29.997459 
L 267.968611 29.997459 
L 269.600041 30.804223 
L 271.231471 30.723546 
L 272.862901 33.143838 
L 274.494331 32.821133 
L 276.125761 32.821133 
L 277.75719 31.449634 
L 279.38862 31.853016 
L 281.02005 31.368958 
L 282.65148 29.110019 
L 284.28291 27.254462 
L 285.91434 28.787313 
L 287.54577 27.73852 
L 289.1772 27.173785 
L 290.80863 26.931756 
L 292.440059 26.447698 
L 294.071489 25.640934 
L 295.702919 23.301318 
L 297.334349 23.624024 
L 298.965779 22.978613 
L 300.597209 23.785377 
L 302.228639 22.897936 
L 303.860069 22.81726 
L 305.491498 23.543348 
L 307.122928 25.963639 
L 308.754358 25.560257 
L 310.385788 23.946729 
L 312.017218 25.237552 
L 313.648648 25.398905 
L 315.280078 25.802287 
L 316.911508 25.156875 
L 318.542937 25.076199 
L 320.174367 24.592141 
L 321.805797 25.560257 
L 323.437227 25.72161 
L 325.068657 27.899873 
L 326.700087 28.383931 
L 328.331517 28.464607 
L 329.962947 28.141902 
L 331.594376 25.882963 
L 333.225806 24.188759 
L 334.857236 24.269435 
L 336.488666 24.672817 
L 338.120096 24.83417 
L 339.751526 23.624024 
L 341.382956 23.381995 
L 343.014386 25.72161 
L 344.645815 25.076199 
L 346.277245 27.657844 
L 347.908675 27.899873 
L 349.540105 26.85108 
L 351.171535 27.577167 
L 352.802965 25.882963 
L 354.434395 26.367021 
L 356.065825 24.995523 
L 357.697254 24.511464 
L 359.328684 25.882963 
L 360.960114 27.657844 
L 362.591544 27.73852 
L 364.222974 27.012432 
L 365.854404 26.689727 
L 367.485834 25.560257 
L 369.117264 25.882963 
L 370.748693 23.785377 
L 372.380123 23.624024 
L 374.011553 22.897936 
L 375.642983 23.139966 
L 377.274413 21.768467 
L 378.905843 24.511464 
L 380.537273 25.318228 
L 380.537273 25.318228 
" clip-path="url(#p4822f16a7e)" style="fill: none; stroke: #2ca02c; stroke-width: 1.5; stroke-linecap: square"/>
   </g>
   <g id="line2d_20">
    <path d="M 55.882727 261.216 
L 59.145587 260.973971 
L 62.408447 259.279767 
L 64.039877 258.31165 
L 65.671307 256.698122 
L 67.302736 255.4073 
L 70.565596 253.229037 
L 72.197026 251.938215 
L 75.459886 247.420337 
L 78.722746 243.870576 
L 80.354175 242.499077 
L 83.617035 238.142552 
L 85.248465 234.754143 
L 88.511325 229.429501 
L 90.142755 227.89665 
L 91.774185 225.718387 
L 93.405614 224.024183 
L 95.037044 220.635775 
L 96.668474 219.829011 
L 98.299904 217.973454 
L 99.931334 217.489395 
L 101.562764 214.907751 
L 103.194194 214.26234 
L 104.825624 211.438666 
L 106.457053 209.583109 
L 108.088483 208.372963 
L 109.719913 207.727552 
L 111.351343 206.598082 
L 112.982773 206.114024 
L 114.614203 204.500496 
L 117.877063 202.644939 
L 119.508492 201.999528 
L 121.139922 198.530443 
L 122.771352 196.190828 
L 124.402782 194.254594 
L 126.034212 191.43092 
L 127.665642 188.849276 
L 129.297072 190.624157 
L 130.928502 189.817393 
L 132.559931 186.75169 
L 134.191361 186.913042 
L 135.822791 186.106279 
L 137.454221 185.783573 
L 139.085651 184.412074 
L 140.717081 182.072459 
L 142.348511 181.83043 
L 143.979941 181.104342 
L 145.61137 181.185019 
L 147.2428 180.539607 
L 150.50566 176.344435 
L 152.13709 175.618347 
L 153.76852 173.036703 
L 155.39995 170.132353 
L 157.03138 169.809647 
L 158.66281 167.712061 
L 160.294239 167.95409 
L 161.925669 167.792737 
L 163.557099 166.017857 
L 165.188529 165.453122 
L 166.819959 164.646358 
L 168.451389 165.211093 
L 171.714249 164.323653 
L 173.345678 162.14539 
L 174.977108 162.387419 
L 176.608538 160.370509 
L 178.239968 160.531862 
L 179.871398 159.725098 
L 181.502828 160.289833 
L 183.134258 159.321716 
L 184.765688 158.999011 
L 186.397117 158.837658 
L 188.028547 157.546836 
L 189.659977 157.143454 
L 191.291407 158.030894 
L 192.922837 156.740072 
L 194.554267 155.933308 
L 196.185697 154.239103 
L 197.817127 156.498042 
L 199.448556 155.691279 
L 201.079986 153.593692 
L 202.711416 152.786928 
L 204.342846 150.931371 
L 205.974276 151.496106 
L 207.605706 151.576783 
L 209.237136 151.980164 
L 210.868566 152.625576 
L 212.499995 154.239103 
L 214.131425 154.31978 
L 215.762855 153.916398 
L 217.394285 152.141517 
L 219.025715 151.173401 
L 220.657145 151.738135 
L 222.288575 151.657459 
L 223.920005 150.608666 
L 225.551434 151.738135 
L 227.182864 150.689342 
L 230.445724 147.865668 
L 232.077154 147.462286 
L 235.340014 145.929435 
L 236.971444 144.47726 
L 238.602873 144.154554 
L 240.234303 143.670496 
L 241.865733 144.154554 
L 243.497163 146.171464 
L 245.128593 145.526053 
L 246.760023 143.670496 
L 248.391453 143.751172 
L 250.022883 144.961318 
L 251.654312 145.284024 
L 253.285742 144.799966 
L 254.917172 145.3647 
L 256.548602 144.47726 
L 258.180032 145.041995 
L 259.811462 144.880642 
L 261.442892 145.526053 
L 263.074322 144.073878 
L 266.337181 140.282088 
L 269.600041 140.927499 
L 271.231471 143.105761 
L 272.862901 140.766146 
L 274.494331 141.492233 
L 276.125761 141.411557 
L 279.38862 143.751172 
L 281.02005 143.993202 
L 282.65148 145.203348 
L 284.28291 144.154554 
L 285.91434 142.783056 
L 289.1772 143.025085 
L 290.80863 142.218321 
L 292.440059 143.34779 
L 295.702919 144.719289 
L 297.334349 145.687406 
L 298.965779 145.122671 
L 300.597209 144.396584 
L 302.228639 145.606729 
L 303.860069 145.687406 
L 305.491498 145.526053 
L 308.754358 144.719289 
L 310.385788 145.203348 
L 312.017218 143.267114 
L 313.648648 143.670496 
L 315.280078 144.719289 
L 316.911508 145.526053 
L 318.542937 146.574846 
L 320.174367 145.606729 
L 321.805797 145.929435 
L 323.437227 145.526053 
L 325.068657 145.284024 
L 326.700087 146.574846 
L 328.331517 148.188374 
L 329.962947 148.107698 
L 331.594376 148.995138 
L 333.225806 149.640549 
L 334.857236 149.39852 
L 336.488666 147.300934 
L 338.120096 146.171464 
L 341.382956 147.865668 
L 343.014386 147.462286 
L 344.645815 147.704316 
L 346.277245 147.139581 
L 347.908675 147.058905 
L 349.540105 147.704316 
L 351.171535 147.220257 
L 352.802965 148.430403 
L 354.434395 150.043931 
L 356.065825 151.334753 
L 357.697254 150.043931 
L 359.328684 148.430403 
L 360.960114 147.139581 
L 362.591544 145.526053 
L 364.222974 145.526053 
L 365.854404 145.122671 
L 367.485834 145.122671 
L 369.117264 144.961318 
L 370.748693 146.010111 
L 372.380123 146.252141 
L 375.642983 145.3647 
L 377.274413 147.300934 
L 378.905843 144.880642 
L 380.537273 144.557936 
L 380.537273 144.557936 
" clip-path="url(#p4822f16a7e)" style="fill: none; stroke: #d62728; stroke-width: 1.5; stroke-linecap: square"/>
   </g>
   <g id="patch_3">
    <path d="M 39.65 273.312 
L 39.65 7.2 
" style="fill: none; stroke: #000000; stroke-width: 0.8; stroke-linejoin: miter; stroke-linecap: square"/>
   </g>
   <g id="patch_4">
    <path d="M 396.77 273.312 
L 396.77 7.2 
" style="fill: none; stroke: #000000; stroke-width: 0.8; stroke-linejoin: miter; stroke-linecap: square"/>
   </g>
   <g id="patch_5">
    <path d="M 39.65 273.312 
L 396.77 273.312 
" style="fill: none; stroke: #000000; stroke-width: 0.8; stroke-linejoin: miter; stroke-linecap: square"/>
   </g>
   <g id="patch_6">
    <path d="M 39.65 7.2 
L 396.77 7.2 
" style="fill: none; stroke: #000000; stroke-width: 0.8; stroke-linejoin: miter; stroke-linecap: square"/>
   </g>
  </g>
 </g>
 <defs>
  <clipPath id="p4822f16a7e">
   <rect x="39.65" y="7.2" width="357.12" height="266.112"/>
  </clipPath>
 </defs>
</svg>
