<?xml version="1.0" encoding="utf-8" standalone="no"?>
<!DOCTYPE svg PUBLIC "-//W3C//DTD SVG 1.1//EN"
  "http://www.w3.org/Graphics/SVG/1.1/DTD/svg11.dtd">
<!-- Created with matplotlib (https://matplotlib.org/) -->
<svg height="297.190125pt" version="1.1" viewBox="0 0 397.6075 297.190125" width="397.6075pt" xmlns="http://www.w3.org/2000/svg" xmlns:xlink="http://www.w3.org/1999/xlink">
 <metadata>
  <rdf:RDF xmlns:cc="http://creativecommons.org/ns#" xmlns:dc="http://purl.org/dc/elements/1.1/" xmlns:rdf="http://www.w3.org/1999/02/22-rdf-syntax-ns#">
   <cc:Work>
    <dc:type rdf:resource="http://purl.org/dc/dcmitype/StillImage"/>
    <dc:date>2021-03-01T04:46:54.067917</dc:date>
    <dc:format>image/svg+xml</dc:format>
    <dc:creator>
     <cc:Agent>
      <dc:title>Matplotlib v3.3.4, https://matplotlib.org/</dc:title>
     </cc:Agent>
    </dc:creator>
   </cc:Work>
  </rdf:RDF>
 </metadata>
 <defs>
  <style type="text/css">*{stroke-linecap:butt;stroke-linejoin:round;}</style>
 </defs>
 <g id="figure_1">
  <g id="patch_1">
   <path d="M 0 297.190125 
L 397.6075 297.190125 
L 397.6075 0 
L 0 0 
z
" style="fill:#ffffff;"/>
  </g>
  <g id="axes_1">
   <g id="patch_2">
    <path d="M 33.2875 273.312 
L 390.4075 273.312 
L 390.4075 7.2 
L 33.2875 7.2 
z
" style="fill:#ffffff;"/>
   </g>
   <g id="matplotlib.axis_1">
    <g id="xtick_1">
     <g id="line2d_1">
      <defs>
       <path d="M 0 0 
L 0 3.5 
" id="m9129430bbb" style="stroke:#000000;stroke-width:0.8;"/>
      </defs>
      <g>
       <use style="stroke:#000000;stroke-width:0.8;" x="49.520227" xlink:href="#m9129430bbb" y="273.312"/>
      </g>
     </g>
     <g id="text_1">
      <!-- 0.0 -->
      <g transform="translate(41.568665 287.910437)scale(0.1 -0.1)">
       <defs>
        <path d="M 31.78125 66.40625 
Q 24.171875 66.40625 20.328125 58.90625 
Q 16.5 51.421875 16.5 36.375 
Q 16.5 21.390625 20.328125 13.890625 
Q 24.171875 6.390625 31.78125 6.390625 
Q 39.453125 6.390625 43.28125 13.890625 
Q 47.125 21.390625 47.125 36.375 
Q 47.125 51.421875 43.28125 58.90625 
Q 39.453125 66.40625 31.78125 66.40625 
z
M 31.78125 74.21875 
Q 44.046875 74.21875 50.515625 64.515625 
Q 56.984375 54.828125 56.984375 36.375 
Q 56.984375 17.96875 50.515625 8.265625 
Q 44.046875 -1.421875 31.78125 -1.421875 
Q 19.53125 -1.421875 13.0625 8.265625 
Q 6.59375 17.96875 6.59375 36.375 
Q 6.59375 54.828125 13.0625 64.515625 
Q 19.53125 74.21875 31.78125 74.21875 
z
" id="DejaVuSans-48"/>
        <path d="M 10.6875 12.40625 
L 21 12.40625 
L 21 0 
L 10.6875 0 
z
" id="DejaVuSans-46"/>
       </defs>
       <use xlink:href="#DejaVuSans-48"/>
       <use x="63.623047" xlink:href="#DejaVuSans-46"/>
       <use x="95.410156" xlink:href="#DejaVuSans-48"/>
      </g>
     </g>
    </g>
    <g id="xtick_2">
     <g id="line2d_2">
      <g>
       <use style="stroke:#000000;stroke-width:0.8;" x="90.305974" xlink:href="#m9129430bbb" y="273.312"/>
      </g>
     </g>
     <g id="text_2">
      <!-- 2.5 -->
      <g transform="translate(82.354412 287.910437)scale(0.1 -0.1)">
       <defs>
        <path d="M 19.1875 8.296875 
L 53.609375 8.296875 
L 53.609375 0 
L 7.328125 0 
L 7.328125 8.296875 
Q 12.9375 14.109375 22.625 23.890625 
Q 32.328125 33.6875 34.8125 36.53125 
Q 39.546875 41.84375 41.421875 45.53125 
Q 43.3125 49.21875 43.3125 52.78125 
Q 43.3125 58.59375 39.234375 62.25 
Q 35.15625 65.921875 28.609375 65.921875 
Q 23.96875 65.921875 18.8125 64.3125 
Q 13.671875 62.703125 7.8125 59.421875 
L 7.8125 69.390625 
Q 13.765625 71.78125 18.9375 73 
Q 24.125 74.21875 28.421875 74.21875 
Q 39.75 74.21875 46.484375 68.546875 
Q 53.21875 62.890625 53.21875 53.421875 
Q 53.21875 48.921875 51.53125 44.890625 
Q 49.859375 40.875 45.40625 35.40625 
Q 44.1875 33.984375 37.640625 27.21875 
Q 31.109375 20.453125 19.1875 8.296875 
z
" id="DejaVuSans-50"/>
        <path d="M 10.796875 72.90625 
L 49.515625 72.90625 
L 49.515625 64.59375 
L 19.828125 64.59375 
L 19.828125 46.734375 
Q 21.96875 47.46875 24.109375 47.828125 
Q 26.265625 48.1875 28.421875 48.1875 
Q 40.625 48.1875 47.75 41.5 
Q 54.890625 34.8125 54.890625 23.390625 
Q 54.890625 11.625 47.5625 5.09375 
Q 40.234375 -1.421875 26.90625 -1.421875 
Q 22.3125 -1.421875 17.546875 -0.640625 
Q 12.796875 0.140625 7.71875 1.703125 
L 7.71875 11.625 
Q 12.109375 9.234375 16.796875 8.0625 
Q 21.484375 6.890625 26.703125 6.890625 
Q 35.15625 6.890625 40.078125 11.328125 
Q 45.015625 15.765625 45.015625 23.390625 
Q 45.015625 31 40.078125 35.4375 
Q 35.15625 39.890625 26.703125 39.890625 
Q 22.75 39.890625 18.8125 39.015625 
Q 14.890625 38.140625 10.796875 36.28125 
z
" id="DejaVuSans-53"/>
       </defs>
       <use xlink:href="#DejaVuSans-50"/>
       <use x="63.623047" xlink:href="#DejaVuSans-46"/>
       <use x="95.410156" xlink:href="#DejaVuSans-53"/>
      </g>
     </g>
    </g>
    <g id="xtick_3">
     <g id="line2d_3">
      <g>
       <use style="stroke:#000000;stroke-width:0.8;" x="131.091721" xlink:href="#m9129430bbb" y="273.312"/>
      </g>
     </g>
     <g id="text_3">
      <!-- 5.0 -->
      <g transform="translate(123.140159 287.910437)scale(0.1 -0.1)">
       <use xlink:href="#DejaVuSans-53"/>
       <use x="63.623047" xlink:href="#DejaVuSans-46"/>
       <use x="95.410156" xlink:href="#DejaVuSans-48"/>
      </g>
     </g>
    </g>
    <g id="xtick_4">
     <g id="line2d_4">
      <g>
       <use style="stroke:#000000;stroke-width:0.8;" x="171.877468" xlink:href="#m9129430bbb" y="273.312"/>
      </g>
     </g>
     <g id="text_4">
      <!-- 7.5 -->
      <g transform="translate(163.925906 287.910437)scale(0.1 -0.1)">
       <defs>
        <path d="M 8.203125 72.90625 
L 55.078125 72.90625 
L 55.078125 68.703125 
L 28.609375 0 
L 18.3125 0 
L 43.21875 64.59375 
L 8.203125 64.59375 
z
" id="DejaVuSans-55"/>
       </defs>
       <use xlink:href="#DejaVuSans-55"/>
       <use x="63.623047" xlink:href="#DejaVuSans-46"/>
       <use x="95.410156" xlink:href="#DejaVuSans-53"/>
      </g>
     </g>
    </g>
    <g id="xtick_5">
     <g id="line2d_5">
      <g>
       <use style="stroke:#000000;stroke-width:0.8;" x="212.663215" xlink:href="#m9129430bbb" y="273.312"/>
      </g>
     </g>
     <g id="text_5">
      <!-- 10.0 -->
      <g transform="translate(201.530402 287.910437)scale(0.1 -0.1)">
       <defs>
        <path d="M 12.40625 8.296875 
L 28.515625 8.296875 
L 28.515625 63.921875 
L 10.984375 60.40625 
L 10.984375 69.390625 
L 28.421875 72.90625 
L 38.28125 72.90625 
L 38.28125 8.296875 
L 54.390625 8.296875 
L 54.390625 0 
L 12.40625 0 
z
" id="DejaVuSans-49"/>
       </defs>
       <use xlink:href="#DejaVuSans-49"/>
       <use x="63.623047" xlink:href="#DejaVuSans-48"/>
       <use x="127.246094" xlink:href="#DejaVuSans-46"/>
       <use x="159.033203" xlink:href="#DejaVuSans-48"/>
      </g>
     </g>
    </g>
    <g id="xtick_6">
     <g id="line2d_6">
      <g>
       <use style="stroke:#000000;stroke-width:0.8;" x="253.448962" xlink:href="#m9129430bbb" y="273.312"/>
      </g>
     </g>
     <g id="text_6">
      <!-- 12.5 -->
      <g transform="translate(242.316149 287.910437)scale(0.1 -0.1)">
       <use xlink:href="#DejaVuSans-49"/>
       <use x="63.623047" xlink:href="#DejaVuSans-50"/>
       <use x="127.246094" xlink:href="#DejaVuSans-46"/>
       <use x="159.033203" xlink:href="#DejaVuSans-53"/>
      </g>
     </g>
    </g>
    <g id="xtick_7">
     <g id="line2d_7">
      <g>
       <use style="stroke:#000000;stroke-width:0.8;" x="294.234709" xlink:href="#m9129430bbb" y="273.312"/>
      </g>
     </g>
     <g id="text_7">
      <!-- 15.0 -->
      <g transform="translate(283.101896 287.910437)scale(0.1 -0.1)">
       <use xlink:href="#DejaVuSans-49"/>
       <use x="63.623047" xlink:href="#DejaVuSans-53"/>
       <use x="127.246094" xlink:href="#DejaVuSans-46"/>
       <use x="159.033203" xlink:href="#DejaVuSans-48"/>
      </g>
     </g>
    </g>
    <g id="xtick_8">
     <g id="line2d_8">
      <g>
       <use style="stroke:#000000;stroke-width:0.8;" x="335.020456" xlink:href="#m9129430bbb" y="273.312"/>
      </g>
     </g>
     <g id="text_8">
      <!-- 17.5 -->
      <g transform="translate(323.887643 287.910437)scale(0.1 -0.1)">
       <use xlink:href="#DejaVuSans-49"/>
       <use x="63.623047" xlink:href="#DejaVuSans-55"/>
       <use x="127.246094" xlink:href="#DejaVuSans-46"/>
       <use x="159.033203" xlink:href="#DejaVuSans-53"/>
      </g>
     </g>
    </g>
    <g id="xtick_9">
     <g id="line2d_9">
      <g>
       <use style="stroke:#000000;stroke-width:0.8;" x="375.806203" xlink:href="#m9129430bbb" y="273.312"/>
      </g>
     </g>
     <g id="text_9">
      <!-- 20.0 -->
      <g transform="translate(364.67339 287.910437)scale(0.1 -0.1)">
       <use xlink:href="#DejaVuSans-50"/>
       <use x="63.623047" xlink:href="#DejaVuSans-48"/>
       <use x="127.246094" xlink:href="#DejaVuSans-46"/>
       <use x="159.033203" xlink:href="#DejaVuSans-48"/>
      </g>
     </g>
    </g>
   </g>
   <g id="matplotlib.axis_2">
    <g id="ytick_1">
     <g id="line2d_10">
      <defs>
       <path d="M 0 0 
L -3.5 0 
" id="ma3d948cd1e" style="stroke:#000000;stroke-width:0.8;"/>
      </defs>
      <g>
       <use style="stroke:#000000;stroke-width:0.8;" x="33.2875" xlink:href="#ma3d948cd1e" y="261.216"/>
      </g>
     </g>
     <g id="text_10">
      <!-- 0 -->
      <g transform="translate(19.925 265.015219)scale(0.1 -0.1)">
       <use xlink:href="#DejaVuSans-48"/>
      </g>
     </g>
    </g>
    <g id="ytick_2">
     <g id="line2d_11">
      <g>
       <use style="stroke:#000000;stroke-width:0.8;" x="33.2875" xlink:href="#ma3d948cd1e" y="219.791342"/>
      </g>
     </g>
     <g id="text_11">
      <!-- 50 -->
      <g transform="translate(13.5625 223.590561)scale(0.1 -0.1)">
       <use xlink:href="#DejaVuSans-53"/>
       <use x="63.623047" xlink:href="#DejaVuSans-48"/>
      </g>
     </g>
    </g>
    <g id="ytick_3">
     <g id="line2d_12">
      <g>
       <use style="stroke:#000000;stroke-width:0.8;" x="33.2875" xlink:href="#ma3d948cd1e" y="178.366685"/>
      </g>
     </g>
     <g id="text_12">
      <!-- 100 -->
      <g transform="translate(7.2 182.165904)scale(0.1 -0.1)">
       <use xlink:href="#DejaVuSans-49"/>
       <use x="63.623047" xlink:href="#DejaVuSans-48"/>
       <use x="127.246094" xlink:href="#DejaVuSans-48"/>
      </g>
     </g>
    </g>
    <g id="ytick_4">
     <g id="line2d_13">
      <g>
       <use style="stroke:#000000;stroke-width:0.8;" x="33.2875" xlink:href="#ma3d948cd1e" y="136.942027"/>
      </g>
     </g>
     <g id="text_13">
      <!-- 150 -->
      <g transform="translate(7.2 140.741246)scale(0.1 -0.1)">
       <use xlink:href="#DejaVuSans-49"/>
       <use x="63.623047" xlink:href="#DejaVuSans-53"/>
       <use x="127.246094" xlink:href="#DejaVuSans-48"/>
      </g>
     </g>
    </g>
    <g id="ytick_5">
     <g id="line2d_14">
      <g>
       <use style="stroke:#000000;stroke-width:0.8;" x="33.2875" xlink:href="#ma3d948cd1e" y="95.51737"/>
      </g>
     </g>
     <g id="text_14">
      <!-- 200 -->
      <g transform="translate(7.2 99.316589)scale(0.1 -0.1)">
       <use xlink:href="#DejaVuSans-50"/>
       <use x="63.623047" xlink:href="#DejaVuSans-48"/>
       <use x="127.246094" xlink:href="#DejaVuSans-48"/>
      </g>
     </g>
    </g>
    <g id="ytick_6">
     <g id="line2d_15">
      <g>
       <use style="stroke:#000000;stroke-width:0.8;" x="33.2875" xlink:href="#ma3d948cd1e" y="54.092712"/>
      </g>
     </g>
     <g id="text_15">
      <!-- 250 -->
      <g transform="translate(7.2 57.891931)scale(0.1 -0.1)">
       <use xlink:href="#DejaVuSans-50"/>
       <use x="63.623047" xlink:href="#DejaVuSans-53"/>
       <use x="127.246094" xlink:href="#DejaVuSans-48"/>
      </g>
     </g>
    </g>
    <g id="ytick_7">
     <g id="line2d_16">
      <g>
       <use style="stroke:#000000;stroke-width:0.8;" x="33.2875" xlink:href="#ma3d948cd1e" y="12.668055"/>
      </g>
     </g>
     <g id="text_16">
      <!-- 300 -->
      <g transform="translate(7.2 16.467274)scale(0.1 -0.1)">
       <defs>
        <path d="M 40.578125 39.3125 
Q 47.65625 37.796875 51.625 33 
Q 55.609375 28.21875 55.609375 21.1875 
Q 55.609375 10.40625 48.1875 4.484375 
Q 40.765625 -1.421875 27.09375 -1.421875 
Q 22.515625 -1.421875 17.65625 -0.515625 
Q 12.796875 0.390625 7.625 2.203125 
L 7.625 11.71875 
Q 11.71875 9.328125 16.59375 8.109375 
Q 21.484375 6.890625 26.8125 6.890625 
Q 36.078125 6.890625 40.9375 10.546875 
Q 45.796875 14.203125 45.796875 21.1875 
Q 45.796875 27.640625 41.28125 31.265625 
Q 36.765625 34.90625 28.71875 34.90625 
L 20.21875 34.90625 
L 20.21875 43.015625 
L 29.109375 43.015625 
Q 36.375 43.015625 40.234375 45.921875 
Q 44.09375 48.828125 44.09375 54.296875 
Q 44.09375 59.90625 40.109375 62.90625 
Q 36.140625 65.921875 28.71875 65.921875 
Q 24.65625 65.921875 20.015625 65.03125 
Q 15.375 64.15625 9.8125 62.3125 
L 9.8125 71.09375 
Q 15.4375 72.65625 20.34375 73.4375 
Q 25.25 74.21875 29.59375 74.21875 
Q 40.828125 74.21875 47.359375 69.109375 
Q 53.90625 64.015625 53.90625 55.328125 
Q 53.90625 49.265625 50.4375 45.09375 
Q 46.96875 40.921875 40.578125 39.3125 
z
" id="DejaVuSans-51"/>
       </defs>
       <use xlink:href="#DejaVuSans-51"/>
       <use x="63.623047" xlink:href="#DejaVuSans-48"/>
       <use x="127.246094" xlink:href="#DejaVuSans-48"/>
      </g>
     </g>
    </g>
   </g>
   <g id="line2d_17">
    <path clip-path="url(#p257520d9a7)" d="M 49.520227 261.216 
L 53.598802 54.092712 
L 57.677377 54.092712 
L 61.755951 54.092712 
L 65.834526 54.092712 
L 69.913101 54.092712 
L 73.991675 54.092712 
L 78.07025 54.092712 
L 82.148825 54.092712 
L 86.227399 54.092712 
L 90.305974 54.092712 
L 94.384549 54.092712 
L 98.463124 54.092712 
L 102.541698 54.092712 
L 106.620273 54.092712 
L 110.698848 54.092712 
L 114.777422 54.092712 
L 118.855997 54.092712 
L 122.934572 54.092712 
L 127.013146 54.092712 
L 131.091721 54.092712 
L 135.170296 54.092712 
L 139.24887 54.092712 
L 143.327445 54.092712 
L 147.40602 54.092712 
L 151.484595 54.092712 
L 155.563169 54.092712 
L 159.641744 54.092712 
L 163.720319 54.092712 
L 167.798893 54.092712 
L 171.877468 54.092712 
L 175.956043 54.092712 
L 180.034617 54.092712 
L 184.113192 54.092712 
L 188.191767 54.092712 
L 192.270341 54.092712 
L 196.348916 54.092712 
L 200.427491 54.092712 
L 204.506066 54.092712 
L 208.58464 54.092712 
L 212.663215 54.092712 
L 216.74179 54.092712 
L 220.820364 54.092712 
L 224.898939 54.092712 
L 228.977514 54.092712 
L 233.056088 54.092712 
L 237.134663 54.092712 
L 241.213238 54.092712 
L 245.291812 54.092712 
L 249.370387 54.092712 
L 253.448962 54.092712 
L 257.527537 54.092712 
L 261.606111 54.092712 
L 265.684686 54.092712 
L 269.763261 54.092712 
L 273.841835 54.092712 
L 277.92041 54.092712 
L 281.998985 54.092712 
L 286.077559 54.092712 
L 290.156134 54.092712 
L 294.234709 54.092712 
L 298.313283 54.092712 
L 302.391858 54.092712 
L 306.470433 54.092712 
L 310.549008 54.092712 
L 314.627582 54.092712 
L 318.706157 54.092712 
L 322.784732 54.092712 
L 326.863306 54.092712 
L 330.941881 54.092712 
L 335.020456 54.092712 
L 339.09903 54.092712 
L 343.177605 54.092712 
L 347.25618 54.092712 
L 351.334754 54.092712 
L 355.413329 54.092712 
L 359.491904 54.092712 
L 363.570479 54.092712 
L 367.649053 54.092712 
L 371.727628 54.092712 
" style="fill:none;stroke:#1f77b4;stroke-linecap:square;stroke-width:1.5;"/>
   </g>
   <g id="line2d_18">
    <path clip-path="url(#p257520d9a7)" d="M 49.520227 261.216 
L 53.598802 261.216 
L 57.677377 54.092712 
L 61.755951 54.092712 
L 65.834526 54.092712 
L 69.913101 54.092712 
L 73.991675 54.092712 
L 78.07025 54.092712 
L 82.148825 54.092712 
L 86.227399 54.092712 
L 90.305974 54.092712 
L 94.384549 54.092712 
L 98.463124 54.092712 
L 102.541698 54.092712 
L 106.620273 54.092712 
L 110.698848 54.092712 
L 114.777422 54.092712 
L 118.855997 54.092712 
L 122.934572 54.092712 
L 127.013146 54.092712 
L 131.091721 54.092712 
L 135.170296 54.092712 
L 139.24887 54.092712 
L 143.327445 54.092712 
L 147.40602 54.092712 
L 151.484595 54.092712 
L 155.563169 54.092712 
L 159.641744 54.092712 
L 163.720319 54.092712 
L 167.798893 54.092712 
L 171.877468 54.092712 
L 175.956043 54.092712 
L 180.034617 54.092712 
L 184.113192 54.092712 
L 188.191767 54.092712 
L 192.270341 54.092712 
L 196.348916 54.092712 
L 200.427491 54.092712 
L 204.506066 54.092712 
L 208.58464 54.092712 
L 212.663215 54.092712 
L 216.74179 54.092712 
L 220.820364 54.092712 
L 224.898939 54.092712 
L 228.977514 54.092712 
L 233.056088 54.092712 
L 237.134663 54.092712 
L 241.213238 54.092712 
L 245.291812 54.092712 
L 249.370387 54.092712 
L 253.448962 54.092712 
L 257.527537 54.092712 
L 261.606111 54.092712 
L 265.684686 54.092712 
L 269.763261 54.092712 
L 273.841835 54.092712 
L 277.92041 54.092712 
L 281.998985 54.092712 
L 286.077559 54.092712 
L 290.156134 54.092712 
L 294.234709 54.092712 
L 298.313283 54.092712 
L 302.391858 54.092712 
L 306.470433 54.092712 
L 310.549008 54.092712 
L 314.627582 54.092712 
L 318.706157 54.092712 
L 322.784732 54.092712 
L 326.863306 54.092712 
L 330.941881 54.092712 
L 335.020456 54.092712 
L 339.09903 54.092712 
L 343.177605 54.092712 
L 347.25618 54.092712 
L 351.334754 54.092712 
L 355.413329 54.092712 
L 359.491904 54.092712 
L 363.570479 54.092712 
L 367.649053 54.092712 
L 371.727628 54.092712 
" style="fill:none;stroke:#ff7f0e;stroke-linecap:square;stroke-width:1.5;"/>
   </g>
   <g id="line2d_19">
    <path clip-path="url(#p257520d9a7)" d="M 49.520227 261.216 
L 51.151657 193.279562 
L 52.783087 146.883945 
L 54.414517 119.543671 
L 56.045947 89.717918 
L 57.677377 85.575452 
L 59.308807 76.462027 
L 60.940236 66.52011 
L 62.571666 68.177096 
L 64.203096 64.03463 
L 65.834526 62.377644 
L 67.465956 61.549151 
L 69.097386 51.607233 
L 70.728816 42.493808 
L 72.360246 41.665315 
L 73.991675 52.435726 
L 75.623105 47.464767 
L 77.254535 41.665315 
L 80.517395 49.950247 
L 82.148825 49.121753 
L 83.780255 44.150795 
L 85.411685 49.121753 
L 87.043114 52.435726 
L 88.674544 54.921205 
L 91.937404 68.177096 
L 93.568834 63.206137 
L 95.200264 64.03463 
L 96.831694 47.464767 
L 98.463124 54.921205 
L 100.094553 55.749699 
L 101.725983 59.063671 
L 103.357413 54.921205 
L 104.988843 46.636274 
L 106.620273 54.921205 
L 108.251703 53.264219 
L 109.883133 52.435726 
L 111.514563 42.493808 
L 113.145992 47.464767 
L 114.777422 51.607233 
L 116.408852 51.607233 
L 118.040282 59.063671 
L 119.671712 59.063671 
L 121.303142 64.03463 
L 122.934572 61.549151 
L 124.566002 60.720658 
L 126.197431 59.063671 
L 127.828861 59.892164 
L 129.460291 51.607233 
L 131.091721 57.406685 
L 132.723151 59.063671 
L 134.354581 48.29326 
L 135.986011 44.150795 
L 137.617441 52.435726 
L 139.24887 57.406685 
L 140.8803 67.348603 
L 142.51173 64.03463 
L 144.14316 55.749699 
L 145.77459 54.092712 
L 147.40602 54.921205 
L 149.03745 60.720658 
L 150.66888 57.406685 
L 152.30031 60.720658 
L 153.931739 60.720658 
L 155.563169 54.921205 
L 157.194599 69.005589 
L 158.826029 69.005589 
L 160.457459 58.235178 
L 162.088889 52.435726 
L 163.720319 53.264219 
L 165.351749 59.063671 
L 166.983178 59.063671 
L 168.614608 47.464767 
L 170.246038 40.008329 
L 171.877468 44.150795 
L 173.508898 58.235178 
L 175.140328 60.720658 
L 176.771758 56.578192 
L 178.403188 61.549151 
L 180.034617 54.092712 
L 181.666047 40.008329 
L 183.297477 54.092712 
L 184.928907 58.235178 
L 186.560337 49.121753 
L 188.191767 50.77874 
L 189.823197 47.464767 
L 191.454627 36.694356 
L 194.717486 60.720658 
L 196.348916 52.435726 
L 197.980346 57.406685 
L 199.611776 47.464767 
L 201.243206 49.950247 
L 202.874636 42.493808 
L 204.506066 42.493808 
L 206.137495 39.179836 
L 207.768925 37.522849 
L 209.400355 48.29326 
L 211.031785 48.29326 
L 212.663215 62.377644 
L 214.294645 67.348603 
L 215.926075 61.549151 
L 217.557505 59.063671 
L 219.188934 61.549151 
L 220.820364 60.720658 
L 222.451794 65.691616 
L 224.083224 59.063671 
L 225.714654 50.77874 
L 227.346084 52.435726 
L 228.977514 55.749699 
L 230.608944 52.435726 
L 232.240373 62.377644 
L 233.871803 55.749699 
L 235.503233 44.150795 
L 237.134663 52.435726 
L 238.766093 54.921205 
L 240.397523 66.52011 
L 242.028953 80.604493 
L 243.660383 74.805041 
L 245.291812 73.976548 
L 246.923242 77.290521 
L 248.554672 79.776 
L 250.186102 76.462027 
L 251.817532 83.089973 
L 253.448962 74.805041 
L 255.080392 71.491068 
L 256.711822 55.749699 
L 258.343251 56.578192 
L 259.974681 50.77874 
L 261.606111 57.406685 
L 263.237541 49.121753 
L 264.868971 62.377644 
L 266.500401 65.691616 
L 268.131831 66.52011 
L 269.763261 54.921205 
L 271.39469 69.834082 
L 273.02612 67.348603 
L 274.65755 68.177096 
L 276.28898 53.264219 
L 277.92041 54.092712 
L 279.55184 54.092712 
L 281.18327 68.177096 
L 282.8147 71.491068 
L 284.44613 58.235178 
L 286.077559 56.578192 
L 287.708989 40.836822 
L 289.340419 35.865863 
L 290.971849 44.150795 
L 292.603279 45.807781 
L 294.234709 44.150795 
L 295.866139 30.894904 
L 297.497569 40.836822 
L 299.128998 45.807781 
L 300.760428 58.235178 
L 302.391858 61.549151 
L 304.023288 58.235178 
L 305.654718 47.464767 
L 307.286148 39.179836 
L 308.917578 48.29326 
L 310.549008 50.77874 
L 312.180437 39.179836 
L 313.811867 47.464767 
L 315.443297 43.322301 
L 317.074727 52.435726 
L 318.706157 51.607233 
L 320.337587 44.979288 
L 321.969017 46.636274 
L 323.600447 45.807781 
L 325.231876 49.950247 
L 326.863306 43.322301 
L 328.494736 49.121753 
L 330.126166 42.493808 
L 331.757596 54.092712 
L 333.389026 36.694356 
L 335.020456 42.493808 
L 336.651886 58.235178 
L 338.283315 51.607233 
L 339.914745 51.607233 
L 343.177605 61.549151 
L 344.809035 64.03463 
L 346.440465 65.691616 
L 348.071895 66.52011 
L 349.703325 71.491068 
L 351.334754 53.264219 
L 352.966184 50.77874 
L 354.597614 46.636274 
L 356.229044 57.406685 
L 357.860474 53.264219 
L 359.491904 58.235178 
L 361.123334 60.720658 
L 362.754764 58.235178 
L 364.386193 53.264219 
L 366.017623 49.121753 
L 367.649053 55.749699 
L 369.280483 51.607233 
L 370.911913 64.03463 
L 372.543343 64.863123 
L 374.174773 54.921205 
L 374.174773 54.921205 
" style="fill:none;stroke:#2ca02c;stroke-linecap:square;stroke-width:1.5;"/>
   </g>
   <g id="line2d_20">
    <path clip-path="url(#p257520d9a7)" d="M 49.520227 261.216 
L 51.151657 246.303123 
L 54.414517 189.965589 
L 56.045947 175.052712 
L 57.677377 145.226959 
L 59.308807 117.886685 
L 62.571666 92.203397 
L 64.203096 97.174356 
L 65.834526 88.060932 
L 67.465956 76.462027 
L 69.097386 68.177096 
L 70.728816 73.148055 
L 72.360246 62.377644 
L 73.991675 60.720658 
L 75.623105 70.662575 
L 77.254535 62.377644 
L 78.885965 62.377644 
L 80.517395 58.235178 
L 82.148825 49.950247 
L 83.780255 55.749699 
L 85.411685 47.464767 
L 87.043114 51.607233 
L 88.674544 41.665315 
L 90.305974 32.55189 
L 91.937404 36.694356 
L 93.568834 50.77874 
L 95.200264 46.636274 
L 96.831694 64.03463 
L 98.463124 55.749699 
L 100.094553 45.807781 
L 101.725983 53.264219 
L 103.357413 66.52011 
L 104.988843 70.662575 
L 106.620273 56.578192 
L 108.251703 57.406685 
L 109.883133 53.264219 
L 111.514563 59.063671 
L 113.145992 54.921205 
L 114.777422 48.29326 
L 116.408852 60.720658 
L 118.040282 44.979288 
L 119.671712 46.636274 
L 121.303142 40.836822 
L 122.934572 55.749699 
L 124.566002 50.77874 
L 126.197431 52.435726 
L 127.828861 50.77874 
L 129.460291 54.092712 
L 132.723151 39.179836 
L 134.354581 62.377644 
L 135.986011 64.863123 
L 137.617441 63.206137 
L 139.24887 45.807781 
L 140.8803 32.55189 
L 142.51173 51.607233 
L 144.14316 63.206137 
L 145.77459 64.863123 
L 147.40602 73.976548 
L 149.03745 74.805041 
L 150.66888 66.52011 
L 152.30031 54.092712 
L 153.931739 44.979288 
L 155.563169 31.723397 
L 157.194599 22.609973 
L 158.826029 19.296 
L 160.457459 35.03737 
L 162.088889 39.179836 
L 163.720319 36.694356 
L 165.351749 40.008329 
L 166.983178 52.435726 
L 168.614608 49.121753 
L 170.246038 68.177096 
L 171.877468 48.29326 
L 173.508898 40.836822 
L 175.140328 36.694356 
L 176.771758 44.150795 
L 178.403188 43.322301 
L 180.034617 52.435726 
L 181.666047 55.749699 
L 183.297477 36.694356 
L 184.928907 27.580932 
L 186.560337 32.55189 
L 188.191767 45.807781 
L 189.823197 54.092712 
L 191.454627 63.206137 
L 193.086056 62.377644 
L 194.717486 37.522849 
L 196.348916 39.179836 
L 197.980346 30.066411 
L 199.611776 39.179836 
L 201.243206 35.03737 
L 202.874636 45.807781 
L 204.506066 42.493808 
L 206.137495 43.322301 
L 207.768925 41.665315 
L 209.400355 36.694356 
L 211.031785 44.979288 
L 212.663215 32.55189 
L 214.294645 30.894904 
L 215.926075 37.522849 
L 217.557505 50.77874 
L 219.188934 50.77874 
L 220.820364 66.52011 
L 222.451794 59.892164 
L 224.083224 63.206137 
L 225.714654 78.947507 
L 227.346084 66.52011 
L 228.977514 58.235178 
L 230.608944 72.319562 
L 232.240373 64.863123 
L 233.871803 65.691616 
L 235.503233 65.691616 
L 237.134663 51.607233 
L 238.766093 39.179836 
L 240.397523 40.008329 
L 242.028953 26.752438 
L 243.660383 36.694356 
L 245.291812 35.865863 
L 246.923242 34.208877 
L 248.554672 33.380384 
L 250.186102 40.836822 
L 253.448962 47.464767 
L 255.080392 43.322301 
L 256.711822 44.150795 
L 258.343251 47.464767 
L 259.974681 54.921205 
L 261.606111 51.607233 
L 263.237541 56.578192 
L 264.868971 43.322301 
L 266.500401 40.008329 
L 269.763261 64.03463 
L 271.39469 46.636274 
L 273.02612 56.578192 
L 274.65755 45.807781 
L 276.28898 56.578192 
L 277.92041 57.406685 
L 279.55184 49.121753 
L 281.18327 35.865863 
L 282.8147 37.522849 
L 284.44613 52.435726 
L 286.077559 54.092712 
L 287.708989 66.52011 
L 289.340419 67.348603 
L 290.971849 51.607233 
L 292.603279 48.29326 
L 294.234709 45.807781 
L 295.866139 59.892164 
L 297.497569 54.921205 
L 299.128998 64.863123 
L 300.760428 57.406685 
L 302.391858 54.092712 
L 304.023288 54.921205 
L 305.654718 59.063671 
L 307.286148 54.092712 
L 308.917578 49.950247 
L 310.549008 54.921205 
L 312.180437 57.406685 
L 313.811867 58.235178 
L 315.443297 55.749699 
L 317.074727 64.863123 
L 318.706157 59.892164 
L 320.337587 76.462027 
L 321.969017 74.805041 
L 323.600447 64.03463 
L 325.231876 46.636274 
L 326.863306 40.836822 
L 328.494736 47.464767 
L 330.126166 50.77874 
L 331.757596 41.665315 
L 333.389026 47.464767 
L 335.020456 30.894904 
L 336.651886 20.952986 
L 338.283315 32.55189 
L 339.914745 38.351342 
L 341.546175 38.351342 
L 343.177605 35.865863 
L 344.809035 34.208877 
L 346.440465 46.636274 
L 348.071895 35.865863 
L 349.703325 41.665315 
L 351.334754 65.691616 
L 352.966184 49.950247 
L 354.597614 42.493808 
L 356.229044 31.723397 
L 357.860474 44.979288 
L 359.491904 44.150795 
L 361.123334 44.979288 
L 362.754764 48.29326 
L 364.386193 65.691616 
L 366.017623 61.549151 
L 367.649053 46.636274 
L 369.280483 35.03737 
L 370.911913 35.03737 
L 372.543343 46.636274 
L 374.174773 55.749699 
L 374.174773 55.749699 
" style="fill:none;stroke:#d62728;stroke-linecap:square;stroke-width:1.5;"/>
   </g>
   <g id="patch_3">
    <path d="M 33.2875 273.312 
L 33.2875 7.2 
" style="fill:none;stroke:#000000;stroke-linecap:square;stroke-linejoin:miter;stroke-width:0.8;"/>
   </g>
   <g id="patch_4">
    <path d="M 390.4075 273.312 
L 390.4075 7.2 
" style="fill:none;stroke:#000000;stroke-linecap:square;stroke-linejoin:miter;stroke-width:0.8;"/>
   </g>
   <g id="patch_5">
    <path d="M 33.2875 273.312 
L 390.4075 273.312 
" style="fill:none;stroke:#000000;stroke-linecap:square;stroke-linejoin:miter;stroke-width:0.8;"/>
   </g>
   <g id="patch_6">
    <path d="M 33.2875 7.2 
L 390.4075 7.2 
" style="fill:none;stroke:#000000;stroke-linecap:square;stroke-linejoin:miter;stroke-width:0.8;"/>
   </g>
  </g>
 </g>
 <defs>
  <clipPath id="p257520d9a7">
   <rect height="266.112" width="357.12" x="33.2875" y="7.2"/>
  </clipPath>
 </defs>
</svg>
