<?xml version="1.0" encoding="utf-8" standalone="no"?>
<!DOCTYPE svg PUBLIC "-//W3C//DTD SVG 1.1//EN"
  "http://www.w3.org/Graphics/SVG/1.1/DTD/svg11.dtd">
<svg xmlns:xlink="http://www.w3.org/1999/xlink" width="403.97pt" height="297.190125pt" viewBox="0 0 403.97 297.190125" xmlns="http://www.w3.org/2000/svg" version="1.1">
 <metadata>
  <rdf:RDF xmlns:dc="http://purl.org/dc/elements/1.1/" xmlns:cc="http://creativecommons.org/ns#" xmlns:rdf="http://www.w3.org/1999/02/22-rdf-syntax-ns#">
   <cc:Work>
    <dc:type rdf:resource="http://purl.org/dc/dcmitype/StillImage"/>
    <dc:date>2026-05-25T13:01:36.124654</dc:date>
    <dc:format>image/svg+xml</dc:format>
    <dc:creator>
     <cc:Agent>
      <dc:title>Matplotlib v3.10.9, https://matplotlib.org/</dc:title>
     </cc:Agent>
    </dc:creator>
   </cc:Work>
  </rdf:RDF>
 </metadata>
 <defs>
  <style type="text/css">*{stroke-linejoin: round; stroke-linecap: butt}</style>
 </defs>
 <g id="figure_1">
  <g id="patch_1">
   <path d="M 0 297.190125 
L 403.97 297.190125 
L 403.97 0 
L 0 0 
z
" style="fill: #ffffff"/>
  </g>
  <g id="axes_1">
   <g id="patch_2">
    <path d="M 39.65 273.312 
L 396.77 273.312 
L 396.77 7.2 
L 39.65 7.2 
z
" style="fill: #ffffff"/>
   </g>
   <g id="matplotlib.axis_1">
    <g id="xtick_1">
     <g id="line2d_1">
      <defs>
       <path id="me2fa18cd11" d="M 0 0 
L 0 3.5 
" style="stroke: #000000; stroke-width: 0.8"/>
      </defs>
      <g>
       <use xlink:href="#me2fa18cd11" x="55.882727" y="273.312" style="stroke: #000000; stroke-width: 0.8"/>
      </g>
     </g>
     <g id="text_1">
      <!-- 0.0 -->
      <g transform="translate(47.931165 287.910437) scale(0.1 -0.1)">
       <defs>
        <path id="DejaVuSans-30" d="M 2034 4250 
Q 1547 4250 1301 3770 
Q 1056 3291 1056 2328 
Q 1056 1369 1301 889 
Q 1547 409 2034 409 
Q 2525 409 2770 889 
Q 3016 1369 3016 2328 
Q 3016 3291 2770 3770 
Q 2525 4250 2034 4250 
z
M 2034 4750 
Q 2819 4750 3233 4129 
Q 3647 3509 3647 2328 
Q 3647 1150 3233 529 
Q 2819 -91 2034 -91 
Q 1250 -91 836 529 
Q 422 1150 422 2328 
Q 422 3509 836 4129 
Q 1250 4750 2034 4750 
z
" transform="scale(0.015625)"/>
        <path id="DejaVuSans-2e" d="M 684 794 
L 1344 794 
L 1344 0 
L 684 0 
L 684 794 
z
" transform="scale(0.015625)"/>
       </defs>
       <use xlink:href="#DejaVuSans-30"/>
       <use xlink:href="#DejaVuSans-2e" transform="translate(63.623047 0)"/>
       <use xlink:href="#DejaVuSans-30" transform="translate(95.410156 0)"/>
      </g>
     </g>
    </g>
    <g id="xtick_2">
     <g id="line2d_2">
      <g>
       <use xlink:href="#me2fa18cd11" x="96.668474" y="273.312" style="stroke: #000000; stroke-width: 0.8"/>
      </g>
     </g>
     <g id="text_2">
      <!-- 2.5 -->
      <g transform="translate(88.716912 287.910437) scale(0.1 -0.1)">
       <defs>
        <path id="DejaVuSans-32" d="M 1228 531 
L 3431 531 
L 3431 0 
L 469 0 
L 469 531 
Q 828 903 1448 1529 
Q 2069 2156 2228 2338 
Q 2531 2678 2651 2914 
Q 2772 3150 2772 3378 
Q 2772 3750 2511 3984 
Q 2250 4219 1831 4219 
Q 1534 4219 1204 4116 
Q 875 4013 500 3803 
L 500 4441 
Q 881 4594 1212 4672 
Q 1544 4750 1819 4750 
Q 2544 4750 2975 4387 
Q 3406 4025 3406 3419 
Q 3406 3131 3298 2873 
Q 3191 2616 2906 2266 
Q 2828 2175 2409 1742 
Q 1991 1309 1228 531 
z
" transform="scale(0.015625)"/>
        <path id="DejaVuSans-35" d="M 691 4666 
L 3169 4666 
L 3169 4134 
L 1269 4134 
L 1269 2991 
Q 1406 3038 1543 3061 
Q 1681 3084 1819 3084 
Q 2600 3084 3056 2656 
Q 3513 2228 3513 1497 
Q 3513 744 3044 326 
Q 2575 -91 1722 -91 
Q 1428 -91 1123 -41 
Q 819 9 494 109 
L 494 744 
Q 775 591 1075 516 
Q 1375 441 1709 441 
Q 2250 441 2565 725 
Q 2881 1009 2881 1497 
Q 2881 1984 2565 2268 
Q 2250 2553 1709 2553 
Q 1456 2553 1204 2497 
Q 953 2441 691 2322 
L 691 4666 
z
" transform="scale(0.015625)"/>
       </defs>
       <use xlink:href="#DejaVuSans-32"/>
       <use xlink:href="#DejaVuSans-2e" transform="translate(63.623047 0)"/>
       <use xlink:href="#DejaVuSans-35" transform="translate(95.410156 0)"/>
      </g>
     </g>
    </g>
    <g id="xtick_3">
     <g id="line2d_3">
      <g>
       <use xlink:href="#me2fa18cd11" x="137.454221" y="273.312" style="stroke: #000000; stroke-width: 0.8"/>
      </g>
     </g>
     <g id="text_3">
      <!-- 5.0 -->
      <g transform="translate(129.502659 287.910437) scale(0.1 -0.1)">
       <use xlink:href="#DejaVuSans-35"/>
       <use xlink:href="#DejaVuSans-2e" transform="translate(63.623047 0)"/>
       <use xlink:href="#DejaVuSans-30" transform="translate(95.410156 0)"/>
      </g>
     </g>
    </g>
    <g id="xtick_4">
     <g id="line2d_4">
      <g>
       <use xlink:href="#me2fa18cd11" x="178.239968" y="273.312" style="stroke: #000000; stroke-width: 0.8"/>
      </g>
     </g>
     <g id="text_4">
      <!-- 7.5 -->
      <g transform="translate(170.288406 287.910437) scale(0.1 -0.1)">
       <defs>
        <path id="DejaVuSans-37" d="M 525 4666 
L 3525 4666 
L 3525 4397 
L 1831 0 
L 1172 0 
L 2766 4134 
L 525 4134 
L 525 4666 
z
" transform="scale(0.015625)"/>
       </defs>
       <use xlink:href="#DejaVuSans-37"/>
       <use xlink:href="#DejaVuSans-2e" transform="translate(63.623047 0)"/>
       <use xlink:href="#DejaVuSans-35" transform="translate(95.410156 0)"/>
      </g>
     </g>
    </g>
    <g id="xtick_5">
     <g id="line2d_5">
      <g>
       <use xlink:href="#me2fa18cd11" x="219.025715" y="273.312" style="stroke: #000000; stroke-width: 0.8"/>
      </g>
     </g>
     <g id="text_5">
      <!-- 10.0 -->
      <g transform="translate(207.892902 287.910437) scale(0.1 -0.1)">
       <defs>
        <path id="DejaVuSans-31" d="M 794 531 
L 1825 531 
L 1825 4091 
L 703 3866 
L 703 4441 
L 1819 4666 
L 2450 4666 
L 2450 531 
L 3481 531 
L 3481 0 
L 794 0 
L 794 531 
z
" transform="scale(0.015625)"/>
       </defs>
       <use xlink:href="#DejaVuSans-31"/>
       <use xlink:href="#DejaVuSans-30" transform="translate(63.623047 0)"/>
       <use xlink:href="#DejaVuSans-2e" transform="translate(127.246094 0)"/>
       <use xlink:href="#DejaVuSans-30" transform="translate(159.033203 0)"/>
      </g>
     </g>
    </g>
    <g id="xtick_6">
     <g id="line2d_6">
      <g>
       <use xlink:href="#me2fa18cd11" x="259.811462" y="273.312" style="stroke: #000000; stroke-width: 0.8"/>
      </g>
     </g>
     <g id="text_6">
      <!-- 12.5 -->
      <g transform="translate(248.678649 287.910437) scale(0.1 -0.1)">
       <use xlink:href="#DejaVuSans-31"/>
       <use xlink:href="#DejaVuSans-32" transform="translate(63.623047 0)"/>
       <use xlink:href="#DejaVuSans-2e" transform="translate(127.246094 0)"/>
       <use xlink:href="#DejaVuSans-35" transform="translate(159.033203 0)"/>
      </g>
     </g>
    </g>
    <g id="xtick_7">
     <g id="line2d_7">
      <g>
       <use xlink:href="#me2fa18cd11" x="300.597209" y="273.312" style="stroke: #000000; stroke-width: 0.8"/>
      </g>
     </g>
     <g id="text_7">
      <!-- 15.0 -->
      <g transform="translate(289.464396 287.910437) scale(0.1 -0.1)">
       <use xlink:href="#DejaVuSans-31"/>
       <use xlink:href="#DejaVuSans-35" transform="translate(63.623047 0)"/>
       <use xlink:href="#DejaVuSans-2e" transform="translate(127.246094 0)"/>
       <use xlink:href="#DejaVuSans-30" transform="translate(159.033203 0)"/>
      </g>
     </g>
    </g>
    <g id="xtick_8">
     <g id="line2d_8">
      <g>
       <use xlink:href="#me2fa18cd11" x="341.382956" y="273.312" style="stroke: #000000; stroke-width: 0.8"/>
      </g>
     </g>
     <g id="text_8">
      <!-- 17.5 -->
      <g transform="translate(330.250143 287.910437) scale(0.1 -0.1)">
       <use xlink:href="#DejaVuSans-31"/>
       <use xlink:href="#DejaVuSans-37" transform="translate(63.623047 0)"/>
       <use xlink:href="#DejaVuSans-2e" transform="translate(127.246094 0)"/>
       <use xlink:href="#DejaVuSans-35" transform="translate(159.033203 0)"/>
      </g>
     </g>
    </g>
    <g id="xtick_9">
     <g id="line2d_9">
      <g>
       <use xlink:href="#me2fa18cd11" x="382.168703" y="273.312" style="stroke: #000000; stroke-width: 0.8"/>
      </g>
     </g>
     <g id="text_9">
      <!-- 20.0 -->
      <g transform="translate(371.03589 287.910437) scale(0.1 -0.1)">
       <use xlink:href="#DejaVuSans-32"/>
       <use xlink:href="#DejaVuSans-30" transform="translate(63.623047 0)"/>
       <use xlink:href="#DejaVuSans-2e" transform="translate(127.246094 0)"/>
       <use xlink:href="#DejaVuSans-30" transform="translate(159.033203 0)"/>
      </g>
     </g>
    </g>
   </g>
   <g id="matplotlib.axis_2">
    <g id="ytick_1">
     <g id="line2d_10">
      <defs>
       <path id="m17c33cf9fa" d="M 0 0 
L -3.5 0 
" style="stroke: #000000; stroke-width: 0.8"/>
      </defs>
      <g>
       <use xlink:href="#m17c33cf9fa" x="39.65" y="261.216" style="stroke: #000000; stroke-width: 0.8"/>
      </g>
     </g>
     <g id="text_10">
      <!-- 0 -->
      <g transform="translate(26.2875 265.015219) scale(0.1 -0.1)">
       <use xlink:href="#DejaVuSans-30"/>
      </g>
     </g>
    </g>
    <g id="ytick_2">
     <g id="line2d_11">
      <g>
       <use xlink:href="#m17c33cf9fa" x="39.65" y="222.455389" style="stroke: #000000; stroke-width: 0.8"/>
      </g>
     </g>
     <g id="text_11">
      <!-- 500 -->
      <g transform="translate(13.5625 226.254608) scale(0.1 -0.1)">
       <use xlink:href="#DejaVuSans-35"/>
       <use xlink:href="#DejaVuSans-30" transform="translate(63.623047 0)"/>
       <use xlink:href="#DejaVuSans-30" transform="translate(127.246094 0)"/>
      </g>
     </g>
    </g>
    <g id="ytick_3">
     <g id="line2d_12">
      <g>
       <use xlink:href="#m17c33cf9fa" x="39.65" y="183.694778" style="stroke: #000000; stroke-width: 0.8"/>
      </g>
     </g>
     <g id="text_12">
      <!-- 1000 -->
      <g transform="translate(7.2 187.493997) scale(0.1 -0.1)">
       <use xlink:href="#DejaVuSans-31"/>
       <use xlink:href="#DejaVuSans-30" transform="translate(63.623047 0)"/>
       <use xlink:href="#DejaVuSans-30" transform="translate(127.246094 0)"/>
       <use xlink:href="#DejaVuSans-30" transform="translate(190.869141 0)"/>
      </g>
     </g>
    </g>
    <g id="ytick_4">
     <g id="line2d_13">
      <g>
       <use xlink:href="#m17c33cf9fa" x="39.65" y="144.934168" style="stroke: #000000; stroke-width: 0.8"/>
      </g>
     </g>
     <g id="text_13">
      <!-- 1500 -->
      <g transform="translate(7.2 148.733386) scale(0.1 -0.1)">
       <use xlink:href="#DejaVuSans-31"/>
       <use xlink:href="#DejaVuSans-35" transform="translate(63.623047 0)"/>
       <use xlink:href="#DejaVuSans-30" transform="translate(127.246094 0)"/>
       <use xlink:href="#DejaVuSans-30" transform="translate(190.869141 0)"/>
      </g>
     </g>
    </g>
    <g id="ytick_5">
     <g id="line2d_14">
      <g>
       <use xlink:href="#m17c33cf9fa" x="39.65" y="106.173557" style="stroke: #000000; stroke-width: 0.8"/>
      </g>
     </g>
     <g id="text_14">
      <!-- 2000 -->
      <g transform="translate(7.2 109.972776) scale(0.1 -0.1)">
       <use xlink:href="#DejaVuSans-32"/>
       <use xlink:href="#DejaVuSans-30" transform="translate(63.623047 0)"/>
       <use xlink:href="#DejaVuSans-30" transform="translate(127.246094 0)"/>
       <use xlink:href="#DejaVuSans-30" transform="translate(190.869141 0)"/>
      </g>
     </g>
    </g>
    <g id="ytick_6">
     <g id="line2d_15">
      <g>
       <use xlink:href="#m17c33cf9fa" x="39.65" y="67.412946" style="stroke: #000000; stroke-width: 0.8"/>
      </g>
     </g>
     <g id="text_15">
      <!-- 2500 -->
      <g transform="translate(7.2 71.212165) scale(0.1 -0.1)">
       <use xlink:href="#DejaVuSans-32"/>
       <use xlink:href="#DejaVuSans-35" transform="translate(63.623047 0)"/>
       <use xlink:href="#DejaVuSans-30" transform="translate(127.246094 0)"/>
       <use xlink:href="#DejaVuSans-30" transform="translate(190.869141 0)"/>
      </g>
     </g>
    </g>
    <g id="ytick_7">
     <g id="line2d_16">
      <g>
       <use xlink:href="#m17c33cf9fa" x="39.65" y="28.652335" style="stroke: #000000; stroke-width: 0.8"/>
      </g>
     </g>
     <g id="text_16">
      <!-- 3000 -->
      <g transform="translate(7.2 32.451554) scale(0.1 -0.1)">
       <defs>
        <path id="DejaVuSans-33" d="M 2597 2516 
Q 3050 2419 3304 2112 
Q 3559 1806 3559 1356 
Q 3559 666 3084 287 
Q 2609 -91 1734 -91 
Q 1441 -91 1130 -33 
Q 819 25 488 141 
L 488 750 
Q 750 597 1062 519 
Q 1375 441 1716 441 
Q 2309 441 2620 675 
Q 2931 909 2931 1356 
Q 2931 1769 2642 2001 
Q 2353 2234 1838 2234 
L 1294 2234 
L 1294 2753 
L 1863 2753 
Q 2328 2753 2575 2939 
Q 2822 3125 2822 3475 
Q 2822 3834 2567 4026 
Q 2313 4219 1838 4219 
Q 1578 4219 1281 4162 
Q 984 4106 628 3988 
L 628 4550 
Q 988 4650 1302 4700 
Q 1616 4750 1894 4750 
Q 2613 4750 3031 4423 
Q 3450 4097 3450 3541 
Q 3450 3153 3228 2886 
Q 3006 2619 2597 2516 
z
" transform="scale(0.015625)"/>
       </defs>
       <use xlink:href="#DejaVuSans-33"/>
       <use xlink:href="#DejaVuSans-30" transform="translate(63.623047 0)"/>
       <use xlink:href="#DejaVuSans-30" transform="translate(127.246094 0)"/>
       <use xlink:href="#DejaVuSans-30" transform="translate(190.869141 0)"/>
      </g>
     </g>
    </g>
   </g>
   <g id="line2d_17">
    <path d="M 55.882727 261.216 
L 59.961302 241.835695 
L 64.039877 224.005814 
L 68.118451 207.602323 
L 72.197026 192.511112 
L 76.275601 178.627198 
L 80.354175 165.853996 
L 84.43275 154.102651 
L 88.511325 143.291414 
L 92.589899 133.345075 
L 96.668474 124.194444 
L 100.747049 115.775863 
L 104.825624 108.030769 
L 108.904198 100.905282 
L 112.982773 94.349834 
L 117.061348 88.318822 
L 121.139922 82.770291 
L 125.218497 77.665642 
L 129.297072 72.969365 
L 133.375646 68.648791 
L 137.454221 64.673862 
L 141.532796 61.016928 
L 145.61137 57.652548 
L 149.689945 54.557319 
L 153.76852 51.709708 
L 157.847095 49.089906 
L 161.925669 46.679688 
L 166.004244 44.462288 
L 170.082819 42.422279 
L 174.161393 40.545471 
L 178.239968 38.818808 
L 182.318543 37.230278 
L 186.397117 35.768831 
L 190.475692 34.424299 
L 194.554267 33.187329 
L 198.632841 32.049318 
L 202.711416 31.002347 
L 206.789991 30.039134 
L 210.868566 29.152978 
L 214.94714 28.337714 
L 219.025715 27.587672 
L 223.10429 26.897632 
L 227.182864 26.262796 
L 231.261439 25.678747 
L 235.340014 25.141422 
L 239.418588 24.647083 
L 243.497163 24.192291 
L 247.575738 23.773882 
L 251.654312 23.388946 
L 255.732887 23.034805 
L 259.811462 22.708995 
L 263.890037 22.40925 
L 267.968611 22.133485 
L 272.047186 21.879781 
L 276.125761 21.646373 
L 280.204335 21.431638 
L 284.28291 21.234081 
L 288.361485 21.052329 
L 292.440059 20.885118 
L 296.518634 20.731283 
L 300.597209 20.589755 
L 304.675783 20.459549 
L 308.754358 20.33976 
L 312.832933 20.229554 
L 316.911508 20.128164 
L 320.990082 20.034885 
L 325.068657 19.949069 
L 329.147232 19.870118 
L 333.225806 19.797483 
L 337.304381 19.730659 
L 341.382956 19.669181 
L 345.46153 19.612621 
L 349.540105 19.560586 
L 353.61868 19.512714 
L 357.697254 19.468671 
L 361.775829 19.428152 
L 365.854404 19.390875 
L 369.932979 19.356579 
L 374.011553 19.325028 
L 378.090128 19.296 
" clip-path="url(#p3f0efbdebd)" style="fill: none; stroke: #1f77b4; stroke-width: 1.5; stroke-linecap: square"/>
   </g>
   <g id="line2d_18">
    <path d="M 55.882727 261.216 
L 59.961302 261.216 
L 64.039877 259.665576 
L 68.118451 256.926751 
L 72.197026 253.296056 
L 76.275601 249.015377 
L 80.354175 244.281068 
L 84.43275 239.25162 
L 88.511325 234.054084 
L 92.589899 228.789472 
L 96.668474 223.53727 
L 100.747049 218.35923 
L 104.825624 213.302533 
L 108.904198 208.402432 
L 112.982773 203.684457 
L 117.061348 199.166256 
L 121.139922 194.859117 
L 125.218497 190.769242 
L 129.297072 186.898791 
L 133.375646 183.246752 
L 137.454221 179.809654 
L 141.532796 176.582157 
L 145.61137 173.557526 
L 149.689945 170.728026 
L 153.76852 168.085235 
L 157.847095 165.620304 
L 161.925669 163.324156 
L 166.004244 161.187649 
L 170.082819 159.201704 
L 174.161393 157.357401 
L 178.239968 155.646054 
L 182.318543 154.059265 
L 186.397117 152.588966 
L 190.475692 151.227442 
L 194.554267 149.96735 
L 198.632841 148.801724 
L 202.711416 147.723981 
L 206.789991 146.727913 
L 210.868566 145.807685 
L 214.94714 144.95782 
L 219.025715 144.173188 
L 223.10429 143.448993 
L 227.182864 142.780759 
L 231.261439 142.164312 
L 235.340014 141.595766 
L 239.418588 141.071506 
L 243.497163 140.588172 
L 247.575738 140.142647 
L 251.654312 139.732037 
L 255.732887 139.353661 
L 259.811462 139.005035 
L 263.890037 138.683858 
L 267.968611 138.388001 
L 272.047186 138.115498 
L 276.125761 137.864528 
L 280.204335 137.633408 
L 284.28291 137.420587 
L 288.361485 137.22463 
L 292.440059 137.044211 
L 296.518634 136.87811 
L 300.597209 136.725199 
L 304.675783 136.584437 
L 308.754358 136.454866 
L 312.832933 136.335601 
L 316.911508 136.225826 
L 320.990082 136.124791 
L 325.068657 136.031803 
L 329.147232 135.946222 
L 333.225806 135.867463 
L 337.304381 135.794982 
L 341.382956 135.728281 
L 345.46153 135.6669 
L 349.540105 135.610417 
L 353.61868 135.558441 
L 357.697254 135.510613 
L 361.775829 135.466604 
L 365.854404 135.426108 
L 369.932979 135.388847 
L 374.011553 135.354561 
L 378.090128 135.323014 
" clip-path="url(#p3f0efbdebd)" style="fill: none; stroke: #ff7f0e; stroke-width: 1.5; stroke-linecap: square"/>
   </g>
   <g id="line2d_19">
    <path d="M 55.882727 261.216 
L 57.514157 252.843708 
L 59.145587 245.711756 
L 60.777017 239.199973 
L 62.408447 232.145542 
L 64.039877 226.098887 
L 65.671307 218.966934 
L 72.197026 194.857834 
L 73.828456 190.904252 
L 80.354175 170.128565 
L 81.985605 165.864897 
L 83.617035 162.298921 
L 85.248465 157.647648 
L 86.879895 153.771587 
L 88.511325 150.593217 
L 90.142755 146.872198 
L 91.774185 144.158955 
L 93.405614 141.135628 
L 96.668474 133.150942 
L 98.299904 131.057869 
L 101.562764 122.530535 
L 103.194194 119.894813 
L 104.825624 117.026528 
L 106.457053 112.530297 
L 108.088483 109.739533 
L 109.719913 108.964321 
L 111.351343 107.413896 
L 112.982773 105.320823 
L 114.614203 102.064932 
L 116.245633 97.723744 
L 117.877063 95.785713 
L 119.508492 92.374779 
L 121.139922 90.436749 
L 122.771352 89.273931 
L 124.402782 87.413421 
L 126.034212 83.304796 
L 127.665642 83.072233 
L 129.297072 81.211724 
L 130.928502 78.033353 
L 132.559931 76.250365 
L 134.191361 74.777462 
L 135.822791 70.901401 
L 137.454221 69.040892 
L 139.085651 67.955595 
L 140.717081 66.095085 
L 142.348511 63.381843 
L 143.979941 63.149279 
L 145.61137 62.374067 
L 147.2428 59.118175 
L 148.87423 57.567751 
L 150.50566 55.164593 
L 152.13709 52.993999 
L 153.76852 51.288532 
L 155.39995 51.211011 
L 157.03138 50.203235 
L 158.66281 49.815629 
L 160.294239 48.885374 
L 161.925669 48.807853 
L 163.557099 47.877598 
L 166.819959 44.699228 
L 168.451389 44.544186 
L 170.082819 44.544186 
L 171.714249 44.776749 
L 173.345678 44.311622 
L 174.977108 44.544186 
L 176.608538 44.079058 
L 178.239968 41.443337 
L 179.871398 40.590603 
L 181.502828 39.582828 
L 183.134258 39.195221 
L 184.765688 40.125476 
L 189.659977 38.575052 
L 191.291407 37.17967 
L 192.922837 37.17967 
L 194.554267 35.474203 
L 197.817127 33.691215 
L 199.448556 34.311384 
L 202.711416 31.288057 
L 204.342846 32.528396 
L 205.974276 32.218311 
L 207.605706 30.512845 
L 209.237136 29.194984 
L 210.868566 28.884899 
L 212.499995 30.047717 
L 214.131425 32.14079 
L 215.762855 31.753184 
L 217.394285 31.830705 
L 219.025715 31.598142 
L 220.657145 30.822929 
L 222.288575 31.675663 
L 223.920005 32.295833 
L 225.551434 30.745408 
L 227.182864 32.063269 
L 228.814294 31.52062 
L 230.445724 31.288057 
L 233.708584 31.52062 
L 235.340014 29.427547 
L 236.971444 29.815154 
L 238.602873 30.745408 
L 240.234303 30.977972 
L 241.865733 31.365578 
L 243.497163 31.055493 
L 246.760023 29.427547 
L 248.391453 29.117463 
L 250.022883 31.830705 
L 251.654312 30.667887 
L 253.285742 32.76096 
L 254.917172 34.233863 
L 256.548602 33.768736 
L 258.180032 35.009075 
L 259.811462 34.698991 
L 261.442892 33.691215 
L 263.074322 32.838481 
L 264.705751 31.365578 
L 267.968611 30.667887 
L 269.600041 30.667887 
L 271.231471 28.96242 
L 272.862901 28.419772 
L 274.494331 29.58259 
L 276.125761 27.799602 
L 277.75719 30.125238 
L 279.38862 30.512845 
L 281.02005 30.280281 
L 282.65148 32.528396 
L 284.28291 31.908227 
L 285.91434 33.458651 
L 287.54577 33.458651 
L 289.1772 31.753184 
L 290.80863 31.52062 
L 292.440059 30.047717 
L 295.702919 30.900451 
L 297.334349 32.683439 
L 298.965779 31.055493 
L 300.597209 34.078821 
L 302.228639 34.621469 
L 305.491498 32.14079 
L 307.122928 32.528396 
L 308.754358 32.450875 
L 310.385788 34.621469 
L 312.017218 33.458651 
L 313.648648 33.923778 
L 315.280078 34.233863 
L 316.911508 32.838481 
L 318.542937 32.14079 
L 321.805797 30.357802 
L 323.437227 28.34225 
L 325.068657 27.954644 
L 326.700087 26.094135 
L 328.331517 25.78405 
L 329.962947 25.861571 
L 331.594376 26.249177 
L 333.225806 26.869347 
L 334.857236 28.032166 
L 336.488666 29.350026 
L 338.120096 29.427547 
L 339.751526 30.357802 
L 341.382956 30.357802 
L 343.014386 29.815154 
L 344.645815 31.365578 
L 346.277245 29.350026 
L 347.908675 29.117463 
L 351.171535 25.78405 
L 352.802965 24.543711 
L 354.434395 23.070807 
L 356.065825 22.140553 
L 357.697254 23.613456 
L 359.328684 23.148329 
L 360.960114 27.02439 
L 364.222974 27.954644 
L 365.854404 25.396444 
L 367.485834 25.086359 
L 369.117264 25.396444 
L 370.748693 24.698753 
L 372.380123 25.086359 
L 374.011553 25.861571 
L 375.642983 26.791826 
L 377.274413 30.977972 
L 378.905843 37.334712 
L 380.537273 44.15658 
L 380.537273 44.15658 
" clip-path="url(#p3f0efbdebd)" style="fill: none; stroke: #2ca02c; stroke-width: 1.5; stroke-linecap: square"/>
   </g>
   <g id="line2d_20">
    <path d="M 55.882727 261.216 
L 57.514157 261.138479 
L 59.145587 260.59583 
L 62.408447 259.200448 
L 64.039877 258.192672 
L 65.671307 256.719769 
L 67.302736 255.789514 
L 68.934166 254.161569 
L 70.565596 252.766187 
L 72.197026 252.223538 
L 73.828456 250.44055 
L 75.459886 249.742859 
L 77.091316 247.88235 
L 78.722746 245.634234 
L 80.354175 244.08381 
L 81.985605 241.835695 
L 83.617035 239.277494 
L 85.248465 237.184421 
L 90.142755 227.959396 
L 91.774185 225.323674 
L 93.405614 223.385644 
L 95.037044 221.990262 
L 96.668474 219.742146 
L 98.299904 219.35454 
L 99.931334 217.804116 
L 101.562764 216.486255 
L 103.194194 214.315661 
L 104.825624 213.152843 
L 106.457053 212.765237 
L 108.088483 210.129515 
L 109.719913 209.121739 
L 111.351343 206.330975 
L 112.982773 203.850296 
L 114.614203 203.927817 
L 116.245633 202.997563 
L 117.877063 200.206799 
L 119.508492 198.578853 
L 121.139922 197.183471 
L 122.771352 196.48578 
L 124.402782 194.392707 
L 126.034212 193.850058 
L 129.297072 189.896476 
L 130.928502 189.586391 
L 132.559931 188.811179 
L 134.191361 187.415797 
L 137.454221 186.408021 
L 139.085651 185.167682 
L 140.717081 184.159906 
L 142.348511 183.849821 
L 143.979941 181.059057 
L 145.61137 179.121026 
L 147.2428 178.345814 
L 148.87423 177.725644 
L 152.13709 179.043505 
L 153.76852 179.508632 
L 155.39995 178.578378 
L 157.03138 176.562826 
L 158.66281 173.927105 
L 160.294239 172.221638 
L 161.925669 169.740959 
L 163.557099 169.275831 
L 165.188529 167.182758 
L 166.819959 168.190534 
L 168.451389 167.570364 
L 170.082819 164.934643 
L 171.714249 163.926867 
L 173.345678 162.609006 
L 174.977108 162.066358 
L 176.608538 162.531485 
L 178.239968 160.903539 
L 179.871398 160.981061 
L 181.502828 160.438412 
L 183.134258 160.360891 
L 184.765688 158.190297 
L 186.397117 158.190297 
L 188.028547 155.942181 
L 189.659977 154.159193 
L 191.291407 154.469278 
L 192.922837 153.926629 
L 194.554267 154.391757 
L 196.185697 154.314235 
L 197.817127 154.469278 
L 199.448556 153.926629 
L 201.079986 153.771587 
L 202.711416 155.24449 
L 204.342846 153.771587 
L 205.974276 152.841332 
L 207.605706 155.166969 
L 209.237136 154.62432 
L 210.868566 153.539023 
L 212.499995 151.523471 
L 214.131425 151.135865 
L 215.762855 151.44595 
L 217.394285 150.670738 
L 219.025715 149.120314 
L 220.657145 149.662962 
L 222.288575 148.655186 
L 223.920005 147.104762 
L 225.551434 148.732707 
L 227.182864 147.957495 
L 228.814294 146.096986 
L 230.445724 146.174507 
L 232.077154 148.422623 
L 233.708584 148.345101 
L 235.340014 148.88775 
L 236.971444 149.662962 
L 238.602873 148.422623 
L 240.234303 149.197835 
L 241.865733 148.190059 
L 243.497163 148.500144 
L 245.128593 148.112538 
L 246.760023 147.104762 
L 248.391453 148.26758 
L 250.022883 147.569889 
L 251.654312 149.042792 
L 253.285742 146.717156 
L 254.917172 147.569889 
L 256.548602 149.275356 
L 258.180032 148.112538 
L 259.811462 149.585441 
L 261.442892 148.88775 
L 264.705751 149.042792 
L 266.337181 149.585441 
L 267.968611 150.438174 
L 269.600041 152.298684 
L 272.862901 150.050568 
L 274.494331 147.182283 
L 276.125761 148.88775 
L 277.75719 147.104762 
L 279.38862 148.26758 
L 281.02005 147.802453 
L 282.65148 146.794677 
L 284.28291 146.562113 
L 285.91434 146.484592 
L 287.54577 145.166731 
L 289.1772 144.46904 
L 290.80863 145.011689 
L 292.440059 146.639635 
L 295.702919 143.228701 
L 297.334349 143.771349 
L 298.965779 145.941944 
L 300.597209 145.244253 
L 302.228639 146.019465 
L 303.860069 145.941944 
L 305.491498 144.701604 
L 308.754358 146.639635 
L 310.385788 145.476816 
L 312.017218 146.484592 
L 313.648648 145.08921 
L 315.280078 144.158955 
L 316.911508 145.321774 
L 318.542937 146.32955 
L 321.805797 147.182283 
L 323.437227 148.112538 
L 325.068657 147.957495 
L 326.700087 149.275356 
L 328.331517 150.050568 
L 329.962947 150.050568 
L 331.594376 148.500144 
L 333.225806 148.88775 
L 334.857236 148.190059 
L 336.488666 144.934168 
L 338.120096 143.693828 
L 341.382956 142.996137 
L 343.014386 143.073658 
L 344.645815 141.91084 
L 346.277245 141.445713 
L 347.908675 142.065882 
L 349.540105 143.461264 
L 351.171535 143.616307 
L 352.802965 145.399295 
L 354.434395 145.08921 
L 356.065825 144.081434 
L 357.697254 143.228701 
L 359.328684 144.003913 
L 360.960114 141.755798 
L 362.591544 140.6705 
L 364.222974 140.360416 
L 365.854404 141.213149 
L 367.485834 139.507682 
L 369.117264 141.678276 
L 370.748693 141.368191 
L 372.380123 140.515458 
L 374.011553 140.360416 
L 375.642983 139.895288 
L 377.274413 136.871961 
L 378.905843 139.275118 
L 380.537273 141.368191 
L 380.537273 141.368191 
" clip-path="url(#p3f0efbdebd)" style="fill: none; stroke: #d62728; stroke-width: 1.5; stroke-linecap: square"/>
   </g>
   <g id="patch_3">
    <path d="M 39.65 273.312 
L 39.65 7.2 
" style="fill: none; stroke: #000000; stroke-width: 0.8; stroke-linejoin: miter; stroke-linecap: square"/>
   </g>
   <g id="patch_4">
    <path d="M 396.77 273.312 
L 396.77 7.2 
" style="fill: none; stroke: #000000; stroke-width: 0.8; stroke-linejoin: miter; stroke-linecap: square"/>
   </g>
   <g id="patch_5">
    <path d="M 39.65 273.312 
L 396.77 273.312 
" style="fill: none; stroke: #000000; stroke-width: 0.8; stroke-linejoin: miter; stroke-linecap: square"/>
   </g>
   <g id="patch_6">
    <path d="M 39.65 7.2 
L 396.77 7.2 
" style="fill: none; stroke: #000000; stroke-width: 0.8; stroke-linejoin: miter; stroke-linecap: square"/>
   </g>
  </g>
 </g>
 <defs>
  <clipPath id="p3f0efbdebd">
   <rect x="39.65" y="7.2" width="357.12" height="266.112"/>
  </clipPath>
 </defs>
</svg>
