<?xml version="1.0" encoding="utf-8" standalone="no"?>
<!DOCTYPE svg PUBLIC "-//W3C//DTD SVG 1.1//EN"
  "http://www.w3.org/Graphics/SVG/1.1/DTD/svg11.dtd">
<svg xmlns:xlink="http://www.w3.org/1999/xlink" width="403.97pt" height="297.190125pt" viewBox="0 0 403.97 297.190125" xmlns="http://www.w3.org/2000/svg" version="1.1">
 <metadata>
  <rdf:RDF xmlns:dc="http://purl.org/dc/elements/1.1/" xmlns:cc="http://creativecommons.org/ns#" xmlns:rdf="http://www.w3.org/1999/02/22-rdf-syntax-ns#">
   <cc:Work>
    <dc:type rdf:resource="http://purl.org/dc/dcmitype/StillImage"/>
    <dc:date>2026-05-26T00:27:49.926445</dc:date>
    <dc:format>image/svg+xml</dc:format>
    <dc:creator>
     <cc:Agent>
      <dc:title>Matplotlib v3.10.9, https://matplotlib.org/</dc:title>
     </cc:Agent>
    </dc:creator>
   </cc:Work>
  </rdf:RDF>
 </metadata>
 <defs>
  <style type="text/css">*{stroke-linejoin: round; stroke-linecap: butt}</style>
 </defs>
 <g id="figure_1">
  <g id="patch_1">
   <path d="M 0 297.190125 
L 403.97 297.190125 
L 403.97 0 
L 0 0 
z
" style="fill: #ffffff"/>
  </g>
  <g id="axes_1">
   <g id="patch_2">
    <path d="M 39.65 273.312 
L 396.77 273.312 
L 396.77 7.2 
L 39.65 7.2 
z
" style="fill: #ffffff"/>
   </g>
   <g id="matplotlib.axis_1">
    <g id="xtick_1">
     <g id="line2d_1">
      <defs>
       <path id="m2cfcc78325" d="M 0 0 
L 0 3.5 
" style="stroke: #000000; stroke-width: 0.8"/>
      </defs>
      <g>
       <use xlink:href="#m2cfcc78325" x="55.882727" y="273.312" style="stroke: #000000; stroke-width: 0.8"/>
      </g>
     </g>
     <g id="text_1">
      <!-- 0.0 -->
      <g transform="translate(47.931165 287.910437) scale(0.1 -0.1)">
       <defs>
        <path id="DejaVuSans-30" d="M 2034 4250 
Q 1547 4250 1301 3770 
Q 1056 3291 1056 2328 
Q 1056 1369 1301 889 
Q 1547 409 2034 409 
Q 2525 409 2770 889 
Q 3016 1369 3016 2328 
Q 3016 3291 2770 3770 
Q 2525 4250 2034 4250 
z
M 2034 4750 
Q 2819 4750 3233 4129 
Q 3647 3509 3647 2328 
Q 3647 1150 3233 529 
Q 2819 -91 2034 -91 
Q 1250 -91 836 529 
Q 422 1150 422 2328 
Q 422 3509 836 4129 
Q 1250 4750 2034 4750 
z
" transform="scale(0.015625)"/>
        <path id="DejaVuSans-2e" d="M 684 794 
L 1344 794 
L 1344 0 
L 684 0 
L 684 794 
z
" transform="scale(0.015625)"/>
       </defs>
       <use xlink:href="#DejaVuSans-30"/>
       <use xlink:href="#DejaVuSans-2e" transform="translate(63.623047 0)"/>
       <use xlink:href="#DejaVuSans-30" transform="translate(95.410156 0)"/>
      </g>
     </g>
    </g>
    <g id="xtick_2">
     <g id="line2d_2">
      <g>
       <use xlink:href="#m2cfcc78325" x="96.668474" y="273.312" style="stroke: #000000; stroke-width: 0.8"/>
      </g>
     </g>
     <g id="text_2">
      <!-- 2.5 -->
      <g transform="translate(88.716912 287.910437) scale(0.1 -0.1)">
       <defs>
        <path id="DejaVuSans-32" d="M 1228 531 
L 3431 531 
L 3431 0 
L 469 0 
L 469 531 
Q 828 903 1448 1529 
Q 2069 2156 2228 2338 
Q 2531 2678 2651 2914 
Q 2772 3150 2772 3378 
Q 2772 3750 2511 3984 
Q 2250 4219 1831 4219 
Q 1534 4219 1204 4116 
Q 875 4013 500 3803 
L 500 4441 
Q 881 4594 1212 4672 
Q 1544 4750 1819 4750 
Q 2544 4750 2975 4387 
Q 3406 4025 3406 3419 
Q 3406 3131 3298 2873 
Q 3191 2616 2906 2266 
Q 2828 2175 2409 1742 
Q 1991 1309 1228 531 
z
" transform="scale(0.015625)"/>
        <path id="DejaVuSans-35" d="M 691 4666 
L 3169 4666 
L 3169 4134 
L 1269 4134 
L 1269 2991 
Q 1406 3038 1543 3061 
Q 1681 3084 1819 3084 
Q 2600 3084 3056 2656 
Q 3513 2228 3513 1497 
Q 3513 744 3044 326 
Q 2575 -91 1722 -91 
Q 1428 -91 1123 -41 
Q 819 9 494 109 
L 494 744 
Q 775 591 1075 516 
Q 1375 441 1709 441 
Q 2250 441 2565 725 
Q 2881 1009 2881 1497 
Q 2881 1984 2565 2268 
Q 2250 2553 1709 2553 
Q 1456 2553 1204 2497 
Q 953 2441 691 2322 
L 691 4666 
z
" transform="scale(0.015625)"/>
       </defs>
       <use xlink:href="#DejaVuSans-32"/>
       <use xlink:href="#DejaVuSans-2e" transform="translate(63.623047 0)"/>
       <use xlink:href="#DejaVuSans-35" transform="translate(95.410156 0)"/>
      </g>
     </g>
    </g>
    <g id="xtick_3">
     <g id="line2d_3">
      <g>
       <use xlink:href="#m2cfcc78325" x="137.454221" y="273.312" style="stroke: #000000; stroke-width: 0.8"/>
      </g>
     </g>
     <g id="text_3">
      <!-- 5.0 -->
      <g transform="translate(129.502659 287.910437) scale(0.1 -0.1)">
       <use xlink:href="#DejaVuSans-35"/>
       <use xlink:href="#DejaVuSans-2e" transform="translate(63.623047 0)"/>
       <use xlink:href="#DejaVuSans-30" transform="translate(95.410156 0)"/>
      </g>
     </g>
    </g>
    <g id="xtick_4">
     <g id="line2d_4">
      <g>
       <use xlink:href="#m2cfcc78325" x="178.239968" y="273.312" style="stroke: #000000; stroke-width: 0.8"/>
      </g>
     </g>
     <g id="text_4">
      <!-- 7.5 -->
      <g transform="translate(170.288406 287.910437) scale(0.1 -0.1)">
       <defs>
        <path id="DejaVuSans-37" d="M 525 4666 
L 3525 4666 
L 3525 4397 
L 1831 0 
L 1172 0 
L 2766 4134 
L 525 4134 
L 525 4666 
z
" transform="scale(0.015625)"/>
       </defs>
       <use xlink:href="#DejaVuSans-37"/>
       <use xlink:href="#DejaVuSans-2e" transform="translate(63.623047 0)"/>
       <use xlink:href="#DejaVuSans-35" transform="translate(95.410156 0)"/>
      </g>
     </g>
    </g>
    <g id="xtick_5">
     <g id="line2d_5">
      <g>
       <use xlink:href="#m2cfcc78325" x="219.025715" y="273.312" style="stroke: #000000; stroke-width: 0.8"/>
      </g>
     </g>
     <g id="text_5">
      <!-- 10.0 -->
      <g transform="translate(207.892902 287.910437) scale(0.1 -0.1)">
       <defs>
        <path id="DejaVuSans-31" d="M 794 531 
L 1825 531 
L 1825 4091 
L 703 3866 
L 703 4441 
L 1819 4666 
L 2450 4666 
L 2450 531 
L 3481 531 
L 3481 0 
L 794 0 
L 794 531 
z
" transform="scale(0.015625)"/>
       </defs>
       <use xlink:href="#DejaVuSans-31"/>
       <use xlink:href="#DejaVuSans-30" transform="translate(63.623047 0)"/>
       <use xlink:href="#DejaVuSans-2e" transform="translate(127.246094 0)"/>
       <use xlink:href="#DejaVuSans-30" transform="translate(159.033203 0)"/>
      </g>
     </g>
    </g>
    <g id="xtick_6">
     <g id="line2d_6">
      <g>
       <use xlink:href="#m2cfcc78325" x="259.811462" y="273.312" style="stroke: #000000; stroke-width: 0.8"/>
      </g>
     </g>
     <g id="text_6">
      <!-- 12.5 -->
      <g transform="translate(248.678649 287.910437) scale(0.1 -0.1)">
       <use xlink:href="#DejaVuSans-31"/>
       <use xlink:href="#DejaVuSans-32" transform="translate(63.623047 0)"/>
       <use xlink:href="#DejaVuSans-2e" transform="translate(127.246094 0)"/>
       <use xlink:href="#DejaVuSans-35" transform="translate(159.033203 0)"/>
      </g>
     </g>
    </g>
    <g id="xtick_7">
     <g id="line2d_7">
      <g>
       <use xlink:href="#m2cfcc78325" x="300.597209" y="273.312" style="stroke: #000000; stroke-width: 0.8"/>
      </g>
     </g>
     <g id="text_7">
      <!-- 15.0 -->
      <g transform="translate(289.464396 287.910437) scale(0.1 -0.1)">
       <use xlink:href="#DejaVuSans-31"/>
       <use xlink:href="#DejaVuSans-35" transform="translate(63.623047 0)"/>
       <use xlink:href="#DejaVuSans-2e" transform="translate(127.246094 0)"/>
       <use xlink:href="#DejaVuSans-30" transform="translate(159.033203 0)"/>
      </g>
     </g>
    </g>
    <g id="xtick_8">
     <g id="line2d_8">
      <g>
       <use xlink:href="#m2cfcc78325" x="341.382956" y="273.312" style="stroke: #000000; stroke-width: 0.8"/>
      </g>
     </g>
     <g id="text_8">
      <!-- 17.5 -->
      <g transform="translate(330.250143 287.910437) scale(0.1 -0.1)">
       <use xlink:href="#DejaVuSans-31"/>
       <use xlink:href="#DejaVuSans-37" transform="translate(63.623047 0)"/>
       <use xlink:href="#DejaVuSans-2e" transform="translate(127.246094 0)"/>
       <use xlink:href="#DejaVuSans-35" transform="translate(159.033203 0)"/>
      </g>
     </g>
    </g>
    <g id="xtick_9">
     <g id="line2d_9">
      <g>
       <use xlink:href="#m2cfcc78325" x="382.168703" y="273.312" style="stroke: #000000; stroke-width: 0.8"/>
      </g>
     </g>
     <g id="text_9">
      <!-- 20.0 -->
      <g transform="translate(371.03589 287.910437) scale(0.1 -0.1)">
       <use xlink:href="#DejaVuSans-32"/>
       <use xlink:href="#DejaVuSans-30" transform="translate(63.623047 0)"/>
       <use xlink:href="#DejaVuSans-2e" transform="translate(127.246094 0)"/>
       <use xlink:href="#DejaVuSans-30" transform="translate(159.033203 0)"/>
      </g>
     </g>
    </g>
   </g>
   <g id="matplotlib.axis_2">
    <g id="ytick_1">
     <g id="line2d_10">
      <defs>
       <path id="m54c88c7b51" d="M 0 0 
L -3.5 0 
" style="stroke: #000000; stroke-width: 0.8"/>
      </defs>
      <g>
       <use xlink:href="#m54c88c7b51" x="39.65" y="261.216" style="stroke: #000000; stroke-width: 0.8"/>
      </g>
     </g>
     <g id="text_10">
      <!-- 0 -->
      <g transform="translate(26.2875 265.015219) scale(0.1 -0.1)">
       <use xlink:href="#DejaVuSans-30"/>
      </g>
     </g>
    </g>
    <g id="ytick_2">
     <g id="line2d_11">
      <g>
       <use xlink:href="#m54c88c7b51" x="39.65" y="221.789664" style="stroke: #000000; stroke-width: 0.8"/>
      </g>
     </g>
     <g id="text_11">
      <!-- 500 -->
      <g transform="translate(13.5625 225.588882) scale(0.1 -0.1)">
       <use xlink:href="#DejaVuSans-35"/>
       <use xlink:href="#DejaVuSans-30" transform="translate(63.623047 0)"/>
       <use xlink:href="#DejaVuSans-30" transform="translate(127.246094 0)"/>
      </g>
     </g>
    </g>
    <g id="ytick_3">
     <g id="line2d_12">
      <g>
       <use xlink:href="#m54c88c7b51" x="39.65" y="182.363327" style="stroke: #000000; stroke-width: 0.8"/>
      </g>
     </g>
     <g id="text_12">
      <!-- 1000 -->
      <g transform="translate(7.2 186.162546) scale(0.1 -0.1)">
       <use xlink:href="#DejaVuSans-31"/>
       <use xlink:href="#DejaVuSans-30" transform="translate(63.623047 0)"/>
       <use xlink:href="#DejaVuSans-30" transform="translate(127.246094 0)"/>
       <use xlink:href="#DejaVuSans-30" transform="translate(190.869141 0)"/>
      </g>
     </g>
    </g>
    <g id="ytick_4">
     <g id="line2d_13">
      <g>
       <use xlink:href="#m54c88c7b51" x="39.65" y="142.936991" style="stroke: #000000; stroke-width: 0.8"/>
      </g>
     </g>
     <g id="text_13">
      <!-- 1500 -->
      <g transform="translate(7.2 146.73621) scale(0.1 -0.1)">
       <use xlink:href="#DejaVuSans-31"/>
       <use xlink:href="#DejaVuSans-35" transform="translate(63.623047 0)"/>
       <use xlink:href="#DejaVuSans-30" transform="translate(127.246094 0)"/>
       <use xlink:href="#DejaVuSans-30" transform="translate(190.869141 0)"/>
      </g>
     </g>
    </g>
    <g id="ytick_5">
     <g id="line2d_14">
      <g>
       <use xlink:href="#m54c88c7b51" x="39.65" y="103.510654" style="stroke: #000000; stroke-width: 0.8"/>
      </g>
     </g>
     <g id="text_14">
      <!-- 2000 -->
      <g transform="translate(7.2 107.309873) scale(0.1 -0.1)">
       <use xlink:href="#DejaVuSans-32"/>
       <use xlink:href="#DejaVuSans-30" transform="translate(63.623047 0)"/>
       <use xlink:href="#DejaVuSans-30" transform="translate(127.246094 0)"/>
       <use xlink:href="#DejaVuSans-30" transform="translate(190.869141 0)"/>
      </g>
     </g>
    </g>
    <g id="ytick_6">
     <g id="line2d_15">
      <g>
       <use xlink:href="#m54c88c7b51" x="39.65" y="64.084318" style="stroke: #000000; stroke-width: 0.8"/>
      </g>
     </g>
     <g id="text_15">
      <!-- 2500 -->
      <g transform="translate(7.2 67.883537) scale(0.1 -0.1)">
       <use xlink:href="#DejaVuSans-32"/>
       <use xlink:href="#DejaVuSans-35" transform="translate(63.623047 0)"/>
       <use xlink:href="#DejaVuSans-30" transform="translate(127.246094 0)"/>
       <use xlink:href="#DejaVuSans-30" transform="translate(190.869141 0)"/>
      </g>
     </g>
    </g>
    <g id="ytick_7">
     <g id="line2d_16">
      <g>
       <use xlink:href="#m54c88c7b51" x="39.65" y="24.657982" style="stroke: #000000; stroke-width: 0.8"/>
      </g>
     </g>
     <g id="text_16">
      <!-- 3000 -->
      <g transform="translate(7.2 28.4572) scale(0.1 -0.1)">
       <defs>
        <path id="DejaVuSans-33" d="M 2597 2516 
Q 3050 2419 3304 2112 
Q 3559 1806 3559 1356 
Q 3559 666 3084 287 
Q 2609 -91 1734 -91 
Q 1441 -91 1130 -33 
Q 819 25 488 141 
L 488 750 
Q 750 597 1062 519 
Q 1375 441 1716 441 
Q 2309 441 2620 675 
Q 2931 909 2931 1356 
Q 2931 1769 2642 2001 
Q 2353 2234 1838 2234 
L 1294 2234 
L 1294 2753 
L 1863 2753 
Q 2328 2753 2575 2939 
Q 2822 3125 2822 3475 
Q 2822 3834 2567 4026 
Q 2313 4219 1838 4219 
Q 1578 4219 1281 4162 
Q 984 4106 628 3988 
L 628 4550 
Q 988 4650 1302 4700 
Q 1616 4750 1894 4750 
Q 2613 4750 3031 4423 
Q 3450 4097 3450 3541 
Q 3450 3153 3228 2886 
Q 3006 2619 2597 2516 
z
" transform="scale(0.015625)"/>
       </defs>
       <use xlink:href="#DejaVuSans-33"/>
       <use xlink:href="#DejaVuSans-30" transform="translate(63.623047 0)"/>
       <use xlink:href="#DejaVuSans-30" transform="translate(127.246094 0)"/>
       <use xlink:href="#DejaVuSans-30" transform="translate(190.869141 0)"/>
      </g>
     </g>
    </g>
   </g>
   <g id="line2d_17">
    <path d="M 55.882727 261.216 
L 59.961302 241.502832 
L 64.039877 223.690013 
L 68.118451 207.59435 
L 72.197026 193.050309 
L 76.275601 179.908313 
L 80.354175 168.033206 
L 84.43275 157.302859 
L 88.511325 147.606918 
L 92.589899 138.845665 
L 96.668474 130.928997 
L 100.747049 123.775496 
L 104.825624 117.311593 
L 108.904198 111.470809 
L 112.982773 106.193077 
L 117.061348 101.424119 
L 121.139922 97.114888 
L 125.218497 93.221067 
L 129.297072 89.70261 
L 133.375646 86.523333 
L 137.454221 83.650538 
L 141.532796 81.05468 
L 145.61137 78.709063 
L 149.689945 76.589564 
L 153.76852 74.674384 
L 157.847095 72.943828 
L 161.925669 71.380097 
L 166.004244 69.96711 
L 170.082819 68.690335 
L 174.161393 67.536641 
L 178.239968 66.494163 
L 182.318543 65.55218 
L 186.397117 64.701004 
L 190.475692 63.931881 
L 194.554267 63.236902 
L 198.632841 62.608919 
L 202.711416 62.041473 
L 206.789991 61.528729 
L 210.868566 61.065414 
L 214.94714 60.646762 
L 219.025715 60.268469 
L 223.10429 59.926643 
L 227.182864 59.617768 
L 231.261439 59.33867 
L 235.340014 59.086476 
L 239.418588 58.858594 
L 243.497163 58.65268 
L 247.575738 58.466616 
L 251.654312 58.298488 
L 255.732887 58.146568 
L 259.811462 58.009293 
L 263.890037 57.885252 
L 267.968611 57.773168 
L 272.047186 57.671888 
L 276.125761 57.580373 
L 280.204335 57.497679 
L 284.28291 57.422957 
L 288.361485 57.355438 
L 292.440059 57.294428 
L 296.518634 57.239299 
L 300.597209 57.189485 
L 304.675783 57.144473 
L 308.754358 57.1038 
L 312.832933 57.067048 
L 316.911508 57.033839 
L 320.990082 57.003831 
L 325.068657 56.976716 
L 329.147232 56.952215 
L 333.225806 56.930075 
L 337.304381 56.91007 
L 341.382956 56.891994 
L 345.46153 56.87566 
L 349.540105 56.8609 
L 353.61868 56.847564 
L 357.697254 56.835513 
L 361.775829 56.824624 
L 365.854404 56.814784 
L 369.932979 56.805893 
L 374.011553 56.797859 
L 378.090128 56.7906 
" clip-path="url(#p0b4d7cbc6b)" style="fill: none; stroke: #1f77b4; stroke-width: 1.5; stroke-linecap: square"/>
   </g>
   <g id="line2d_18">
    <path d="M 55.882727 261.216 
L 59.961302 261.216 
L 64.039877 259.315651 
L 68.118451 256.154609 
L 72.197026 252.201228 
L 76.275601 247.795404 
L 80.354175 243.18097 
L 84.43275 238.530163 
L 88.511325 233.962074 
L 92.589899 229.556552 
L 96.668474 225.364651 
L 100.747049 221.416478 
L 104.825624 217.727059 
L 108.904198 214.300717 
L 112.982773 211.134332 
L 117.061348 208.219739 
L 121.139922 205.545503 
L 125.218497 203.09821 
L 129.297072 200.863391 
L 133.375646 198.826197 
L 137.454221 196.971855 
L 141.532796 195.285988 
L 145.61137 193.754826 
L 149.689945 192.365331 
L 153.76852 191.105273 
L 157.847095 189.963258 
L 161.925669 188.928729 
L 166.004244 187.991951 
L 170.082819 187.143974 
L 174.161393 186.376601 
L 178.239968 185.682334 
L 182.318543 185.054336 
L 186.397117 184.486375 
L 190.475692 183.972785 
L 194.554267 183.508416 
L 198.632841 183.088593 
L 202.711416 182.709074 
L 206.789991 182.366013 
L 210.868566 182.055927 
L 214.94714 181.77566 
L 219.025715 181.522355 
L 223.10429 181.293427 
L 227.182864 181.086535 
L 231.261439 180.899563 
L 235.340014 180.730596 
L 239.418588 180.577904 
L 243.497163 180.439921 
L 247.575738 180.315231 
L 251.654312 180.202555 
L 255.732887 180.100736 
L 259.811462 180.00873 
L 263.890037 179.925589 
L 267.968611 179.850462 
L 272.047186 179.782575 
L 276.125761 179.721231 
L 280.204335 179.6658 
L 284.28291 179.615712 
L 288.361485 179.570452 
L 292.440059 179.529554 
L 296.518634 179.492599 
L 300.597209 179.459206 
L 304.675783 179.429032 
L 308.754358 179.401766 
L 312.832933 179.377129 
L 316.911508 179.354867 
L 320.990082 179.334751 
L 325.068657 179.316574 
L 329.147232 179.300149 
L 333.225806 179.285307 
L 337.304381 179.271897 
L 341.382956 179.259779 
L 345.46153 179.248829 
L 349.540105 179.238935 
L 353.61868 179.229994 
L 357.697254 179.221915 
L 361.775829 179.214616 
L 365.854404 179.208019 
L 369.932979 179.202059 
L 374.011553 179.196673 
L 378.090128 179.191807 
" clip-path="url(#p0b4d7cbc6b)" style="fill: none; stroke: #ff7f0e; stroke-width: 1.5; stroke-linecap: square"/>
   </g>
   <g id="line2d_19">
    <path d="M 55.882727 261.216 
L 57.514157 254.513523 
L 59.145587 246.707108 
L 64.039877 226.678529 
L 67.302736 212.721606 
L 68.934166 206.413392 
L 72.197026 194.585492 
L 73.828456 190.090889 
L 75.459886 184.019233 
L 77.091316 179.682336 
L 78.722746 174.399207 
L 80.354175 170.771984 
L 81.985605 164.384918 
L 85.248465 156.972767 
L 88.511325 148.693236 
L 90.142755 146.16995 
L 91.774185 141.281085 
L 93.405614 136.944188 
L 95.037044 133.711228 
L 96.668474 128.74351 
L 98.299904 126.220224 
L 99.931334 123.381528 
L 103.194194 116.994462 
L 104.825624 113.051828 
L 106.457053 110.607395 
L 108.088483 106.349351 
L 109.719913 104.693445 
L 111.351343 102.327864 
L 112.982773 100.593106 
L 116.245633 93.023249 
L 119.508492 89.790289 
L 121.139922 86.715035 
L 122.771352 85.453392 
L 124.402782 82.772402 
L 126.034212 82.062728 
L 127.665642 80.406821 
L 129.297072 77.489272 
L 130.928502 76.621893 
L 132.559931 75.517956 
L 134.191361 74.729429 
L 135.822791 72.836965 
L 137.454221 71.733027 
L 139.085651 67.553836 
L 140.717081 64.872845 
L 143.979941 63.216939 
L 147.2428 58.880042 
L 148.87423 55.489377 
L 150.50566 54.464292 
L 152.13709 52.33527 
L 153.76852 51.625596 
L 155.39995 50.048542 
L 157.03138 48.944605 
L 160.294239 46.421319 
L 161.925669 44.765413 
L 163.557099 42.872949 
L 165.188529 41.690159 
L 166.819959 39.088021 
L 168.451389 39.009168 
L 170.082819 38.77261 
L 171.714249 39.245726 
L 173.345678 39.245726 
L 174.977108 38.851463 
L 176.608538 39.718842 
L 178.239968 38.457199 
L 179.871398 37.984083 
L 183.134258 39.63999 
L 184.765688 38.77261 
L 186.397117 39.9554 
L 188.028547 40.980485 
L 189.659977 38.536052 
L 191.291407 40.665074 
L 192.922837 39.088021 
L 194.554267 40.507369 
L 196.185697 40.113106 
L 197.817127 38.930316 
L 199.448556 39.403432 
L 201.079986 38.378347 
L 202.711416 36.091619 
L 205.974276 36.485883 
L 207.605706 34.435713 
L 209.237136 32.148986 
L 210.868566 32.937512 
L 212.499995 32.070133 
L 214.131425 32.306691 
L 215.762855 31.439312 
L 217.394285 30.887343 
L 219.025715 29.6257 
L 220.657145 27.338973 
L 222.288575 27.023562 
L 223.920005 26.392741 
L 225.551434 25.525361 
L 227.182864 26.313888 
L 228.814294 23.790602 
L 230.445724 23.317486 
L 232.077154 23.869455 
L 235.340014 22.450107 
L 236.971444 22.371254 
L 238.602873 23.632897 
L 240.234303 25.683066 
L 241.865733 24.815687 
L 245.128593 24.421424 
L 246.760023 25.525361 
L 248.391453 24.342571 
L 250.022883 25.761919 
L 251.654312 25.288803 
L 253.285742 26.550446 
L 254.917172 27.496678 
L 256.548602 26.471593 
L 258.180032 25.683066 
L 259.811462 26.550446 
L 261.442892 24.500276 
L 263.074322 25.288803 
L 264.705751 26.235035 
L 266.337181 25.052245 
L 267.968611 26.550446 
L 269.600041 26.865857 
L 271.231471 25.131098 
L 272.862901 24.89454 
L 274.494331 25.446508 
L 276.125761 26.156183 
L 279.38862 28.44291 
L 281.02005 27.102415 
L 282.65148 26.156183 
L 284.28291 25.683066 
L 285.91434 24.657982 
L 287.54577 24.02716 
L 289.1772 22.371254 
L 290.80863 23.002076 
L 292.440059 22.450107 
L 294.071489 24.657982 
L 295.702919 23.869455 
L 297.334349 24.579129 
L 298.965779 23.869455 
L 300.597209 23.869455 
L 302.228639 24.89454 
L 303.860069 24.89454 
L 305.491498 24.500276 
L 307.122928 22.84437 
L 308.754358 20.873053 
L 310.385788 21.109611 
L 312.017218 22.213549 
L 313.648648 23.080928 
L 315.280078 23.238634 
L 316.911508 24.657982 
L 318.542937 23.869455 
L 320.174367 22.765518 
L 321.805797 24.02716 
L 323.437227 24.500276 
L 325.068657 26.629299 
L 326.700087 25.052245 
L 328.331517 24.263718 
L 329.962947 23.159781 
L 331.594376 24.106013 
L 333.225806 22.213549 
L 334.857236 21.109611 
L 336.488666 21.819286 
L 338.120096 21.188464 
L 339.751526 20.951906 
L 341.382956 21.740433 
L 343.014386 19.769116 
L 344.645815 19.296 
L 346.277245 21.740433 
L 347.908675 21.66158 
L 349.540105 22.52896 
L 351.171535 24.815687 
L 354.434395 25.604214 
L 356.065825 25.20995 
L 357.697254 24.500276 
L 359.328684 24.736834 
L 360.960114 25.131098 
L 362.591544 26.313888 
L 364.222974 26.471593 
L 365.854404 26.235035 
L 367.485834 27.496678 
L 369.117264 25.052245 
L 370.748693 26.07733 
L 372.380123 24.973392 
L 374.011553 25.288803 
L 375.642983 25.20995 
L 377.274413 26.156183 
L 380.537273 26.313888 
L 380.537273 26.313888 
" clip-path="url(#p0b4d7cbc6b)" style="fill: none; stroke: #2ca02c; stroke-width: 1.5; stroke-linecap: square"/>
   </g>
   <g id="line2d_20">
    <path d="M 55.882727 261.216 
L 59.145587 261.058295 
L 60.777017 260.664031 
L 62.408447 259.875505 
L 64.039877 258.377304 
L 65.671307 257.431072 
L 67.302736 256.090576 
L 68.934166 255.144344 
L 70.565596 253.724996 
L 73.828456 250.334331 
L 75.459886 249.151541 
L 78.722746 245.997434 
L 80.354175 243.158738 
L 81.985605 241.502832 
L 83.617035 239.37381 
L 85.248465 238.348725 
L 86.879895 236.456261 
L 88.511325 234.090681 
L 91.774185 231.803953 
L 93.405614 230.148047 
L 95.037044 227.703614 
L 96.668474 225.968855 
L 98.299904 223.76098 
L 99.931334 222.105074 
L 103.194194 217.768177 
L 104.825624 216.427682 
L 106.457053 214.29866 
L 109.719913 209.567499 
L 111.351343 207.596183 
L 112.982773 206.097982 
L 114.614203 206.019129 
L 116.245633 204.363223 
L 117.877063 201.682232 
L 122.771352 197.108777 
L 126.034212 193.087291 
L 127.665642 191.194827 
L 129.297072 191.983353 
L 130.928502 191.510237 
L 132.559931 189.775478 
L 134.191361 189.53892 
L 135.822791 187.961867 
L 137.454221 186.936782 
L 139.085651 186.621372 
L 140.717081 186.621372 
L 142.348511 185.044318 
L 143.979941 183.703823 
L 145.61137 183.861528 
L 147.2428 183.151854 
L 148.87423 181.811359 
L 150.50566 182.205622 
L 152.13709 181.25939 
L 153.76852 179.682336 
L 155.39995 177.868725 
L 157.03138 177.159051 
L 158.66281 174.556913 
L 160.294239 172.822154 
L 161.925669 173.531828 
L 163.557099 172.11248 
L 165.188529 171.087395 
L 166.819959 170.92969 
L 168.451389 169.7469 
L 170.082819 168.721815 
L 171.714249 166.51394 
L 173.345678 163.911802 
L 174.977108 163.517538 
L 176.608538 161.546222 
L 178.239968 160.363432 
L 179.871398 158.786378 
L 181.502828 156.420798 
L 183.134258 155.868829 
L 184.765688 155.553419 
L 186.397117 153.739807 
L 189.659977 155.00145 
L 191.291407 152.872428 
L 192.922837 153.266691 
L 194.554267 151.295374 
L 196.185697 150.191437 
L 197.817127 150.901111 
L 199.448556 151.137669 
L 201.079986 151.847343 
L 202.711416 153.81866 
L 204.342846 154.686039 
L 205.974276 153.660954 
L 207.605706 154.212923 
L 209.237136 153.976365 
L 210.868566 153.187838 
L 212.499995 153.108986 
L 215.762855 151.45308 
L 217.394285 151.531932 
L 219.025715 150.349142 
L 220.657145 150.901111 
L 223.920005 151.137669 
L 225.551434 150.822258 
L 227.182864 150.112584 
L 228.814294 151.45308 
L 230.445724 152.399312 
L 232.077154 151.216522 
L 233.708584 150.191437 
L 235.340014 149.718321 
L 236.971444 148.772089 
L 238.602873 147.03733 
L 240.234303 146.958477 
L 241.865733 146.721919 
L 243.497163 146.721919 
L 245.128593 147.983562 
L 246.760023 146.564214 
L 248.391453 147.825857 
L 250.022883 148.377825 
L 251.654312 147.589299 
L 253.285742 147.904709 
L 254.917172 145.775687 
L 256.548602 146.327656 
L 258.180032 146.643066 
L 259.811462 147.431593 
L 261.442892 150.033731 
L 263.074322 149.481763 
L 264.705751 146.643066 
L 266.337181 148.062415 
L 267.968611 147.195035 
L 269.600041 147.352741 
L 272.862901 146.958477 
L 274.494331 147.668151 
L 276.125761 147.273888 
L 277.75719 144.908308 
L 279.38862 144.829455 
L 281.02005 146.564214 
L 282.65148 144.98716 
L 285.91434 145.381424 
L 287.54577 144.750602 
L 289.1772 145.223718 
L 290.80863 145.381424 
L 292.440059 144.514044 
L 294.071489 143.410107 
L 295.702919 143.410107 
L 297.334349 143.252402 
L 298.965779 143.48896 
L 300.597209 144.67175 
L 302.228639 142.148464 
L 303.860069 143.331254 
L 305.491498 143.80437 
L 307.122928 145.85454 
L 308.754358 144.592897 
L 310.385788 144.356339 
L 312.017218 143.725518 
L 313.648648 142.936991 
L 315.280078 142.700433 
L 316.911508 141.754201 
L 318.542937 142.62158 
L 320.174367 143.646665 
L 321.805797 141.596495 
L 323.437227 143.173549 
L 325.068657 142.542728 
L 326.700087 142.463875 
L 328.331517 142.700433 
L 329.962947 143.883223 
L 331.594376 144.119781 
L 333.225806 145.066013 
L 334.857236 144.592897 
L 336.488666 145.302571 
L 339.751526 144.356339 
L 341.382956 140.807969 
L 343.014386 141.202232 
L 344.645815 142.385022 
L 346.277245 141.359937 
L 347.908675 141.990759 
L 349.540105 143.48896 
L 351.171535 142.463875 
L 352.802965 142.463875 
L 354.434395 142.069611 
L 356.065825 142.069611 
L 357.697254 142.306169 
L 359.328684 143.883223 
L 360.960114 143.173549 
L 362.591544 143.725518 
L 364.222974 144.514044 
L 365.854404 146.327656 
L 367.485834 145.85454 
L 369.117264 146.564214 
L 370.748693 146.16995 
L 372.380123 148.377825 
L 374.011553 149.718321 
L 375.642983 148.929794 
L 377.274413 146.327656 
L 378.905843 147.825857 
L 380.537273 147.352741 
L 380.537273 147.352741 
" clip-path="url(#p0b4d7cbc6b)" style="fill: none; stroke: #d62728; stroke-width: 1.5; stroke-linecap: square"/>
   </g>
   <g id="patch_3">
    <path d="M 39.65 273.312 
L 39.65 7.2 
" style="fill: none; stroke: #000000; stroke-width: 0.8; stroke-linejoin: miter; stroke-linecap: square"/>
   </g>
   <g id="patch_4">
    <path d="M 396.77 273.312 
L 396.77 7.2 
" style="fill: none; stroke: #000000; stroke-width: 0.8; stroke-linejoin: miter; stroke-linecap: square"/>
   </g>
   <g id="patch_5">
    <path d="M 39.65 273.312 
L 396.77 273.312 
" style="fill: none; stroke: #000000; stroke-width: 0.8; stroke-linejoin: miter; stroke-linecap: square"/>
   </g>
   <g id="patch_6">
    <path d="M 39.65 7.2 
L 396.77 7.2 
" style="fill: none; stroke: #000000; stroke-width: 0.8; stroke-linejoin: miter; stroke-linecap: square"/>
   </g>
  </g>
 </g>
 <defs>
  <clipPath id="p0b4d7cbc6b">
   <rect x="39.65" y="7.2" width="357.12" height="266.112"/>
  </clipPath>
 </defs>
</svg>
