<?xml version="1.0" encoding="utf-8" standalone="no"?>
<!DOCTYPE svg PUBLIC "-//W3C//DTD SVG 1.1//EN"
  "http://www.w3.org/Graphics/SVG/1.1/DTD/svg11.dtd">
<svg xmlns:xlink="http://www.w3.org/1999/xlink" width="403.97pt" height="297.190125pt" viewBox="0 0 403.97 297.190125" xmlns="http://www.w3.org/2000/svg" version="1.1">
 <metadata>
  <rdf:RDF xmlns:dc="http://purl.org/dc/elements/1.1/" xmlns:cc="http://creativecommons.org/ns#" xmlns:rdf="http://www.w3.org/1999/02/22-rdf-syntax-ns#">
   <cc:Work>
    <dc:type rdf:resource="http://purl.org/dc/dcmitype/StillImage"/>
    <dc:date>2026-05-25T13:01:35.561842</dc:date>
    <dc:format>image/svg+xml</dc:format>
    <dc:creator>
     <cc:Agent>
      <dc:title>Matplotlib v3.10.9, https://matplotlib.org/</dc:title>
     </cc:Agent>
    </dc:creator>
   </cc:Work>
  </rdf:RDF>
 </metadata>
 <defs>
  <style type="text/css">*{stroke-linejoin: round; stroke-linecap: butt}</style>
 </defs>
 <g id="figure_1">
  <g id="patch_1">
   <path d="M 0 297.190125 
L 403.97 297.190125 
L 403.97 0 
L 0 0 
z
" style="fill: #ffffff"/>
  </g>
  <g id="axes_1">
   <g id="patch_2">
    <path d="M 39.65 273.312 
L 396.77 273.312 
L 396.77 7.2 
L 39.65 7.2 
z
" style="fill: #ffffff"/>
   </g>
   <g id="matplotlib.axis_1">
    <g id="xtick_1">
     <g id="line2d_1">
      <defs>
       <path id="m5d35b8f7c8" d="M 0 0 
L 0 3.5 
" style="stroke: #000000; stroke-width: 0.8"/>
      </defs>
      <g>
       <use xlink:href="#m5d35b8f7c8" x="55.882727" y="273.312" style="stroke: #000000; stroke-width: 0.8"/>
      </g>
     </g>
     <g id="text_1">
      <!-- 0.0 -->
      <g transform="translate(47.931165 287.910437) scale(0.1 -0.1)">
       <defs>
        <path id="DejaVuSans-30" d="M 2034 4250 
Q 1547 4250 1301 3770 
Q 1056 3291 1056 2328 
Q 1056 1369 1301 889 
Q 1547 409 2034 409 
Q 2525 409 2770 889 
Q 3016 1369 3016 2328 
Q 3016 3291 2770 3770 
Q 2525 4250 2034 4250 
z
M 2034 4750 
Q 2819 4750 3233 4129 
Q 3647 3509 3647 2328 
Q 3647 1150 3233 529 
Q 2819 -91 2034 -91 
Q 1250 -91 836 529 
Q 422 1150 422 2328 
Q 422 3509 836 4129 
Q 1250 4750 2034 4750 
z
" transform="scale(0.015625)"/>
        <path id="DejaVuSans-2e" d="M 684 794 
L 1344 794 
L 1344 0 
L 684 0 
L 684 794 
z
" transform="scale(0.015625)"/>
       </defs>
       <use xlink:href="#DejaVuSans-30"/>
       <use xlink:href="#DejaVuSans-2e" transform="translate(63.623047 0)"/>
       <use xlink:href="#DejaVuSans-30" transform="translate(95.410156 0)"/>
      </g>
     </g>
    </g>
    <g id="xtick_2">
     <g id="line2d_2">
      <g>
       <use xlink:href="#m5d35b8f7c8" x="96.668474" y="273.312" style="stroke: #000000; stroke-width: 0.8"/>
      </g>
     </g>
     <g id="text_2">
      <!-- 2.5 -->
      <g transform="translate(88.716912 287.910437) scale(0.1 -0.1)">
       <defs>
        <path id="DejaVuSans-32" d="M 1228 531 
L 3431 531 
L 3431 0 
L 469 0 
L 469 531 
Q 828 903 1448 1529 
Q 2069 2156 2228 2338 
Q 2531 2678 2651 2914 
Q 2772 3150 2772 3378 
Q 2772 3750 2511 3984 
Q 2250 4219 1831 4219 
Q 1534 4219 1204 4116 
Q 875 4013 500 3803 
L 500 4441 
Q 881 4594 1212 4672 
Q 1544 4750 1819 4750 
Q 2544 4750 2975 4387 
Q 3406 4025 3406 3419 
Q 3406 3131 3298 2873 
Q 3191 2616 2906 2266 
Q 2828 2175 2409 1742 
Q 1991 1309 1228 531 
z
" transform="scale(0.015625)"/>
        <path id="DejaVuSans-35" d="M 691 4666 
L 3169 4666 
L 3169 4134 
L 1269 4134 
L 1269 2991 
Q 1406 3038 1543 3061 
Q 1681 3084 1819 3084 
Q 2600 3084 3056 2656 
Q 3513 2228 3513 1497 
Q 3513 744 3044 326 
Q 2575 -91 1722 -91 
Q 1428 -91 1123 -41 
Q 819 9 494 109 
L 494 744 
Q 775 591 1075 516 
Q 1375 441 1709 441 
Q 2250 441 2565 725 
Q 2881 1009 2881 1497 
Q 2881 1984 2565 2268 
Q 2250 2553 1709 2553 
Q 1456 2553 1204 2497 
Q 953 2441 691 2322 
L 691 4666 
z
" transform="scale(0.015625)"/>
       </defs>
       <use xlink:href="#DejaVuSans-32"/>
       <use xlink:href="#DejaVuSans-2e" transform="translate(63.623047 0)"/>
       <use xlink:href="#DejaVuSans-35" transform="translate(95.410156 0)"/>
      </g>
     </g>
    </g>
    <g id="xtick_3">
     <g id="line2d_3">
      <g>
       <use xlink:href="#m5d35b8f7c8" x="137.454221" y="273.312" style="stroke: #000000; stroke-width: 0.8"/>
      </g>
     </g>
     <g id="text_3">
      <!-- 5.0 -->
      <g transform="translate(129.502659 287.910437) scale(0.1 -0.1)">
       <use xlink:href="#DejaVuSans-35"/>
       <use xlink:href="#DejaVuSans-2e" transform="translate(63.623047 0)"/>
       <use xlink:href="#DejaVuSans-30" transform="translate(95.410156 0)"/>
      </g>
     </g>
    </g>
    <g id="xtick_4">
     <g id="line2d_4">
      <g>
       <use xlink:href="#m5d35b8f7c8" x="178.239968" y="273.312" style="stroke: #000000; stroke-width: 0.8"/>
      </g>
     </g>
     <g id="text_4">
      <!-- 7.5 -->
      <g transform="translate(170.288406 287.910437) scale(0.1 -0.1)">
       <defs>
        <path id="DejaVuSans-37" d="M 525 4666 
L 3525 4666 
L 3525 4397 
L 1831 0 
L 1172 0 
L 2766 4134 
L 525 4134 
L 525 4666 
z
" transform="scale(0.015625)"/>
       </defs>
       <use xlink:href="#DejaVuSans-37"/>
       <use xlink:href="#DejaVuSans-2e" transform="translate(63.623047 0)"/>
       <use xlink:href="#DejaVuSans-35" transform="translate(95.410156 0)"/>
      </g>
     </g>
    </g>
    <g id="xtick_5">
     <g id="line2d_5">
      <g>
       <use xlink:href="#m5d35b8f7c8" x="219.025715" y="273.312" style="stroke: #000000; stroke-width: 0.8"/>
      </g>
     </g>
     <g id="text_5">
      <!-- 10.0 -->
      <g transform="translate(207.892902 287.910437) scale(0.1 -0.1)">
       <defs>
        <path id="DejaVuSans-31" d="M 794 531 
L 1825 531 
L 1825 4091 
L 703 3866 
L 703 4441 
L 1819 4666 
L 2450 4666 
L 2450 531 
L 3481 531 
L 3481 0 
L 794 0 
L 794 531 
z
" transform="scale(0.015625)"/>
       </defs>
       <use xlink:href="#DejaVuSans-31"/>
       <use xlink:href="#DejaVuSans-30" transform="translate(63.623047 0)"/>
       <use xlink:href="#DejaVuSans-2e" transform="translate(127.246094 0)"/>
       <use xlink:href="#DejaVuSans-30" transform="translate(159.033203 0)"/>
      </g>
     </g>
    </g>
    <g id="xtick_6">
     <g id="line2d_6">
      <g>
       <use xlink:href="#m5d35b8f7c8" x="259.811462" y="273.312" style="stroke: #000000; stroke-width: 0.8"/>
      </g>
     </g>
     <g id="text_6">
      <!-- 12.5 -->
      <g transform="translate(248.678649 287.910437) scale(0.1 -0.1)">
       <use xlink:href="#DejaVuSans-31"/>
       <use xlink:href="#DejaVuSans-32" transform="translate(63.623047 0)"/>
       <use xlink:href="#DejaVuSans-2e" transform="translate(127.246094 0)"/>
       <use xlink:href="#DejaVuSans-35" transform="translate(159.033203 0)"/>
      </g>
     </g>
    </g>
    <g id="xtick_7">
     <g id="line2d_7">
      <g>
       <use xlink:href="#m5d35b8f7c8" x="300.597209" y="273.312" style="stroke: #000000; stroke-width: 0.8"/>
      </g>
     </g>
     <g id="text_7">
      <!-- 15.0 -->
      <g transform="translate(289.464396 287.910437) scale(0.1 -0.1)">
       <use xlink:href="#DejaVuSans-31"/>
       <use xlink:href="#DejaVuSans-35" transform="translate(63.623047 0)"/>
       <use xlink:href="#DejaVuSans-2e" transform="translate(127.246094 0)"/>
       <use xlink:href="#DejaVuSans-30" transform="translate(159.033203 0)"/>
      </g>
     </g>
    </g>
    <g id="xtick_8">
     <g id="line2d_8">
      <g>
       <use xlink:href="#m5d35b8f7c8" x="341.382956" y="273.312" style="stroke: #000000; stroke-width: 0.8"/>
      </g>
     </g>
     <g id="text_8">
      <!-- 17.5 -->
      <g transform="translate(330.250143 287.910437) scale(0.1 -0.1)">
       <use xlink:href="#DejaVuSans-31"/>
       <use xlink:href="#DejaVuSans-37" transform="translate(63.623047 0)"/>
       <use xlink:href="#DejaVuSans-2e" transform="translate(127.246094 0)"/>
       <use xlink:href="#DejaVuSans-35" transform="translate(159.033203 0)"/>
      </g>
     </g>
    </g>
    <g id="xtick_9">
     <g id="line2d_9">
      <g>
       <use xlink:href="#m5d35b8f7c8" x="382.168703" y="273.312" style="stroke: #000000; stroke-width: 0.8"/>
      </g>
     </g>
     <g id="text_9">
      <!-- 20.0 -->
      <g transform="translate(371.03589 287.910437) scale(0.1 -0.1)">
       <use xlink:href="#DejaVuSans-32"/>
       <use xlink:href="#DejaVuSans-30" transform="translate(63.623047 0)"/>
       <use xlink:href="#DejaVuSans-2e" transform="translate(127.246094 0)"/>
       <use xlink:href="#DejaVuSans-30" transform="translate(159.033203 0)"/>
      </g>
     </g>
    </g>
   </g>
   <g id="matplotlib.axis_2">
    <g id="ytick_1">
     <g id="line2d_10">
      <defs>
       <path id="m889166769f" d="M 0 0 
L -3.5 0 
" style="stroke: #000000; stroke-width: 0.8"/>
      </defs>
      <g>
       <use xlink:href="#m889166769f" x="39.65" y="261.216" style="stroke: #000000; stroke-width: 0.8"/>
      </g>
     </g>
     <g id="text_10">
      <!-- 0 -->
      <g transform="translate(26.2875 265.015219) scale(0.1 -0.1)">
       <use xlink:href="#DejaVuSans-30"/>
      </g>
     </g>
    </g>
    <g id="ytick_2">
     <g id="line2d_11">
      <g>
       <use xlink:href="#m889166769f" x="39.65" y="226.862876" style="stroke: #000000; stroke-width: 0.8"/>
      </g>
     </g>
     <g id="text_11">
      <!-- 500 -->
      <g transform="translate(13.5625 230.662095) scale(0.1 -0.1)">
       <use xlink:href="#DejaVuSans-35"/>
       <use xlink:href="#DejaVuSans-30" transform="translate(63.623047 0)"/>
       <use xlink:href="#DejaVuSans-30" transform="translate(127.246094 0)"/>
      </g>
     </g>
    </g>
    <g id="ytick_3">
     <g id="line2d_12">
      <g>
       <use xlink:href="#m889166769f" x="39.65" y="192.509752" style="stroke: #000000; stroke-width: 0.8"/>
      </g>
     </g>
     <g id="text_12">
      <!-- 1000 -->
      <g transform="translate(7.2 196.308971) scale(0.1 -0.1)">
       <use xlink:href="#DejaVuSans-31"/>
       <use xlink:href="#DejaVuSans-30" transform="translate(63.623047 0)"/>
       <use xlink:href="#DejaVuSans-30" transform="translate(127.246094 0)"/>
       <use xlink:href="#DejaVuSans-30" transform="translate(190.869141 0)"/>
      </g>
     </g>
    </g>
    <g id="ytick_4">
     <g id="line2d_13">
      <g>
       <use xlink:href="#m889166769f" x="39.65" y="158.156628" style="stroke: #000000; stroke-width: 0.8"/>
      </g>
     </g>
     <g id="text_13">
      <!-- 1500 -->
      <g transform="translate(7.2 161.955847) scale(0.1 -0.1)">
       <use xlink:href="#DejaVuSans-31"/>
       <use xlink:href="#DejaVuSans-35" transform="translate(63.623047 0)"/>
       <use xlink:href="#DejaVuSans-30" transform="translate(127.246094 0)"/>
       <use xlink:href="#DejaVuSans-30" transform="translate(190.869141 0)"/>
      </g>
     </g>
    </g>
    <g id="ytick_5">
     <g id="line2d_14">
      <g>
       <use xlink:href="#m889166769f" x="39.65" y="123.803504" style="stroke: #000000; stroke-width: 0.8"/>
      </g>
     </g>
     <g id="text_14">
      <!-- 2000 -->
      <g transform="translate(7.2 127.602722) scale(0.1 -0.1)">
       <use xlink:href="#DejaVuSans-32"/>
       <use xlink:href="#DejaVuSans-30" transform="translate(63.623047 0)"/>
       <use xlink:href="#DejaVuSans-30" transform="translate(127.246094 0)"/>
       <use xlink:href="#DejaVuSans-30" transform="translate(190.869141 0)"/>
      </g>
     </g>
    </g>
    <g id="ytick_6">
     <g id="line2d_15">
      <g>
       <use xlink:href="#m889166769f" x="39.65" y="89.45038" style="stroke: #000000; stroke-width: 0.8"/>
      </g>
     </g>
     <g id="text_15">
      <!-- 2500 -->
      <g transform="translate(7.2 93.249598) scale(0.1 -0.1)">
       <use xlink:href="#DejaVuSans-32"/>
       <use xlink:href="#DejaVuSans-35" transform="translate(63.623047 0)"/>
       <use xlink:href="#DejaVuSans-30" transform="translate(127.246094 0)"/>
       <use xlink:href="#DejaVuSans-30" transform="translate(190.869141 0)"/>
      </g>
     </g>
    </g>
    <g id="ytick_7">
     <g id="line2d_16">
      <g>
       <use xlink:href="#m889166769f" x="39.65" y="55.097256" style="stroke: #000000; stroke-width: 0.8"/>
      </g>
     </g>
     <g id="text_16">
      <!-- 3000 -->
      <g transform="translate(7.2 58.896474) scale(0.1 -0.1)">
       <defs>
        <path id="DejaVuSans-33" d="M 2597 2516 
Q 3050 2419 3304 2112 
Q 3559 1806 3559 1356 
Q 3559 666 3084 287 
Q 2609 -91 1734 -91 
Q 1441 -91 1130 -33 
Q 819 25 488 141 
L 488 750 
Q 750 597 1062 519 
Q 1375 441 1716 441 
Q 2309 441 2620 675 
Q 2931 909 2931 1356 
Q 2931 1769 2642 2001 
Q 2353 2234 1838 2234 
L 1294 2234 
L 1294 2753 
L 1863 2753 
Q 2328 2753 2575 2939 
Q 2822 3125 2822 3475 
Q 2822 3834 2567 4026 
Q 2313 4219 1838 4219 
Q 1578 4219 1281 4162 
Q 984 4106 628 3988 
L 628 4550 
Q 988 4650 1302 4700 
Q 1616 4750 1894 4750 
Q 2613 4750 3031 4423 
Q 3450 4097 3450 3541 
Q 3450 3153 3228 2886 
Q 3006 2619 2597 2516 
z
" transform="scale(0.015625)"/>
       </defs>
       <use xlink:href="#DejaVuSans-33"/>
       <use xlink:href="#DejaVuSans-30" transform="translate(63.623047 0)"/>
       <use xlink:href="#DejaVuSans-30" transform="translate(127.246094 0)"/>
       <use xlink:href="#DejaVuSans-30" transform="translate(190.869141 0)"/>
      </g>
     </g>
    </g>
    <g id="ytick_8">
     <g id="line2d_17">
      <g>
       <use xlink:href="#m889166769f" x="39.65" y="20.744132" style="stroke: #000000; stroke-width: 0.8"/>
      </g>
     </g>
     <g id="text_17">
      <!-- 3500 -->
      <g transform="translate(7.2 24.54335) scale(0.1 -0.1)">
       <use xlink:href="#DejaVuSans-33"/>
       <use xlink:href="#DejaVuSans-35" transform="translate(63.623047 0)"/>
       <use xlink:href="#DejaVuSans-30" transform="translate(127.246094 0)"/>
       <use xlink:href="#DejaVuSans-30" transform="translate(190.869141 0)"/>
      </g>
     </g>
    </g>
   </g>
   <g id="line2d_18">
    <path d="M 55.882727 261.216 
L 72.197026 192.509752 
L 88.511325 143.281725 
L 104.825624 108.009844 
L 121.139922 82.737541 
L 137.454221 64.629936 
L 153.76852 51.655837 
L 170.082819 42.359895 
L 186.397117 35.699353 
L 202.711416 30.927074 
L 219.025715 27.507736 
L 235.340014 25.057781 
L 251.654312 23.302388 
L 267.968611 22.044649 
L 284.28291 21.143479 
L 300.597209 20.49779 
L 316.911508 20.035155 
L 333.225806 19.703676 
L 349.540105 19.466172 
L 365.854404 19.296 
" clip-path="url(#peb2ae75727)" style="fill: none; stroke: #1f77b4; stroke-width: 1.5; stroke-linecap: square"/>
   </g>
   <g id="line2d_19">
    <path d="M 55.882727 261.216 
L 72.197026 261.216 
L 88.511325 238.313917 
L 104.825624 210.146646 
L 121.139922 183.928275 
L 137.454221 162.043662 
L 153.76852 144.772234 
L 170.082819 131.580383 
L 186.397117 121.709039 
L 202.711416 114.420911 
L 219.025715 109.088426 
L 235.340014 105.210949 
L 251.654312 102.4036 
L 267.968611 100.377177 
L 284.28291 98.917564 
L 300.597209 97.867809 
L 316.911508 97.113636 
L 333.225806 96.572231 
L 349.540105 96.183781 
L 365.854404 95.905183 
" clip-path="url(#peb2ae75727)" style="fill: none; stroke: #ff7f0e; stroke-width: 1.5; stroke-linecap: square"/>
   </g>
   <g id="line2d_20">
    <path d="M 55.882727 261.216 
L 57.514157 253.795725 
L 59.145587 247.47475 
L 60.777017 241.703426 
L 62.408447 235.451157 
L 64.039877 230.09207 
L 65.671307 223.771095 
L 72.197026 202.403452 
L 73.828456 198.899433 
L 80.354175 180.486158 
L 81.985605 176.707315 
L 83.617035 173.546827 
L 85.248465 169.424452 
L 86.879895 165.98914 
L 88.511325 163.172184 
L 90.142755 159.874284 
L 91.774185 157.469565 
L 93.405614 154.790022 
L 96.668474 147.713278 
L 98.299904 145.858209 
L 101.562764 138.300522 
L 103.194194 135.96451 
L 104.825624 133.422378 
L 106.457053 129.437416 
L 108.088483 126.963991 
L 109.719913 126.276929 
L 111.351343 124.902804 
L 112.982773 123.047735 
L 114.614203 120.162073 
L 116.245633 116.314523 
L 117.877063 114.596866 
L 119.508492 111.573792 
L 121.139922 109.856135 
L 122.771352 108.825542 
L 124.402782 107.176592 
L 126.034212 103.535161 
L 127.665642 103.329042 
L 129.297072 101.680092 
L 130.928502 98.863136 
L 132.559931 97.282892 
L 134.191361 95.977473 
L 135.822791 92.542161 
L 137.454221 90.893211 
L 139.085651 89.931323 
L 140.717081 88.282373 
L 142.348511 85.877655 
L 143.979941 85.671536 
L 145.61137 84.984474 
L 147.2428 82.098811 
L 148.87423 80.724686 
L 150.50566 78.594792 
L 152.13709 76.671018 
L 153.76852 75.15948 
L 155.39995 75.090774 
L 157.03138 74.197593 
L 158.66281 73.854061 
L 160.294239 73.029586 
L 161.925669 72.96088 
L 163.557099 72.136405 
L 166.819959 69.319449 
L 168.451389 69.182036 
L 170.082819 69.182036 
L 171.714249 69.388155 
L 173.345678 68.975918 
L 174.977108 69.182036 
L 176.608538 68.769799 
L 178.239968 66.433787 
L 179.871398 65.678018 
L 181.502828 64.784837 
L 183.134258 64.441305 
L 184.765688 65.26578 
L 189.659977 63.891655 
L 191.291407 62.654943 
L 192.922837 62.654943 
L 194.554267 61.143405 
L 197.817127 59.563162 
L 199.448556 60.112812 
L 202.711416 57.433268 
L 204.342846 58.532568 
L 205.974276 58.257743 
L 207.605706 56.746206 
L 209.237136 55.578199 
L 210.868566 55.303374 
L 212.499995 56.333968 
L 214.131425 58.189037 
L 215.762855 57.845506 
L 217.394285 57.914212 
L 219.025715 57.708093 
L 220.657145 57.021031 
L 222.288575 57.776799 
L 223.920005 58.326449 
L 225.551434 56.952324 
L 227.182864 58.120331 
L 228.814294 57.639387 
L 230.445724 57.433268 
L 233.708584 57.639387 
L 235.340014 55.784318 
L 236.971444 56.127849 
L 238.602873 56.952324 
L 240.234303 57.158443 
L 241.865733 57.501974 
L 243.497163 57.227149 
L 246.760023 55.784318 
L 248.391453 55.509493 
L 250.022883 57.914212 
L 251.654312 56.883618 
L 253.285742 58.738687 
L 254.917172 60.044105 
L 256.548602 59.631868 
L 258.180032 60.731168 
L 259.811462 60.456343 
L 261.442892 59.563162 
L 263.074322 58.807393 
L 264.705751 57.501974 
L 267.968611 56.883618 
L 269.600041 56.883618 
L 271.231471 55.372081 
L 272.862901 54.891137 
L 274.494331 55.921731 
L 276.125761 54.341487 
L 277.75719 56.402674 
L 279.38862 56.746206 
L 281.02005 56.540087 
L 282.65148 58.532568 
L 284.28291 57.982918 
L 285.91434 59.357043 
L 287.54577 59.357043 
L 289.1772 57.845506 
L 290.80863 57.639387 
L 292.440059 56.333968 
L 295.702919 57.089737 
L 297.334349 58.66998 
L 298.965779 57.227149 
L 300.597209 59.906693 
L 302.228639 60.387637 
L 305.491498 58.189037 
L 307.122928 58.532568 
L 308.754358 58.463862 
L 310.385788 60.387637 
L 312.017218 59.357043 
L 313.648648 59.76928 
L 315.280078 60.044105 
L 316.911508 58.807393 
L 318.542937 58.189037 
L 321.805797 56.608793 
L 323.437227 54.822431 
L 325.068657 54.478899 
L 326.700087 52.829949 
L 328.331517 52.555124 
L 329.962947 52.623831 
L 331.594376 52.967362 
L 333.225806 53.517012 
L 334.857236 54.547606 
L 336.488666 55.715612 
L 338.120096 55.784318 
L 339.751526 56.608793 
L 341.382956 56.608793 
L 343.014386 56.127849 
L 344.645815 57.501974 
L 346.277245 55.715612 
L 347.908675 55.509493 
L 351.171535 52.555124 
L 352.802965 51.455824 
L 354.434395 50.150406 
L 356.065825 49.325931 
L 357.697254 50.631349 
L 359.328684 50.219112 
L 360.960114 53.654424 
L 364.222974 54.478899 
L 365.854404 52.211593 
L 367.485834 51.936768 
L 369.117264 52.211593 
L 370.748693 51.593237 
L 372.380123 51.936768 
L 374.011553 52.623831 
L 375.642983 53.448306 
L 377.274413 57.158443 
L 378.905843 62.792355 
L 380.537273 68.838505 
L 380.537273 68.838505 
" clip-path="url(#peb2ae75727)" style="fill: none; stroke: #2ca02c; stroke-width: 1.5; stroke-linecap: square"/>
   </g>
   <g id="line2d_21">
    <path d="M 55.882727 261.216 
L 57.514157 261.147294 
L 59.145587 260.66635 
L 62.408447 259.429638 
L 64.039877 258.536456 
L 65.671307 257.231038 
L 67.302736 256.406563 
L 68.934166 254.963731 
L 70.565596 253.727019 
L 72.197026 253.246075 
L 73.828456 251.665832 
L 75.459886 251.047475 
L 77.091316 249.398525 
L 78.722746 247.406044 
L 80.354175 246.031919 
L 81.985605 244.039438 
L 83.617035 241.772132 
L 85.248465 239.917063 
L 90.142755 231.74102 
L 91.774185 229.405007 
L 93.405614 227.687351 
L 95.037044 226.450638 
L 96.668474 224.458157 
L 98.299904 224.114626 
L 99.931334 222.740501 
L 101.562764 221.572495 
L 103.194194 219.64872 
L 104.825624 218.618126 
L 106.457053 218.274595 
L 108.088483 215.938582 
L 109.719913 215.045401 
L 111.351343 212.571976 
L 112.982773 210.373376 
L 114.614203 210.442083 
L 116.245633 209.617608 
L 117.877063 207.144183 
L 119.508492 205.701352 
L 121.139922 204.464639 
L 122.771352 203.846283 
L 124.402782 201.991214 
L 126.034212 201.51027 
L 129.297072 198.006252 
L 130.928502 197.731427 
L 132.559931 197.044364 
L 134.191361 195.807652 
L 137.454221 194.914471 
L 139.085651 193.815171 
L 140.717081 192.921989 
L 142.348511 192.647164 
L 143.979941 190.173739 
L 145.61137 188.456083 
L 147.2428 187.769021 
L 148.87423 187.219371 
L 152.13709 188.387377 
L 153.76852 188.799614 
L 155.39995 187.975139 
L 157.03138 186.188777 
L 158.66281 183.852765 
L 160.294239 182.341227 
L 161.925669 180.142627 
L 163.557099 179.73039 
L 165.188529 177.875321 
L 166.819959 178.768502 
L 168.451389 178.218852 
L 170.082819 175.88284 
L 171.714249 174.989659 
L 173.345678 173.821652 
L 174.977108 173.340709 
L 176.608538 173.752946 
L 178.239968 172.310115 
L 179.871398 172.378821 
L 181.502828 171.897877 
L 183.134258 171.829171 
L 184.765688 169.905396 
L 186.397117 169.905396 
L 188.028547 167.912915 
L 189.659977 166.332671 
L 191.291407 166.607496 
L 192.922837 166.126553 
L 194.554267 166.53879 
L 196.185697 166.470084 
L 197.817127 166.607496 
L 199.448556 166.126553 
L 201.079986 165.98914 
L 202.711416 167.294559 
L 204.342846 165.98914 
L 205.974276 165.164665 
L 207.605706 167.225853 
L 209.237136 166.744909 
L 210.868566 165.783021 
L 212.499995 163.996659 
L 214.131425 163.653128 
L 215.762855 163.927953 
L 217.394285 163.24089 
L 219.025715 161.866765 
L 220.657145 162.347709 
L 222.288575 161.454528 
L 223.920005 160.080403 
L 225.551434 161.523234 
L 227.182864 160.836171 
L 228.814294 159.187222 
L 230.445724 159.255928 
L 232.077154 161.248409 
L 233.708584 161.179703 
L 235.340014 161.660646 
L 236.971444 162.347709 
L 238.602873 161.248409 
L 240.234303 161.935471 
L 241.865733 161.04229 
L 243.497163 161.317115 
L 245.128593 160.973584 
L 246.760023 160.080403 
L 248.391453 161.110996 
L 250.022883 160.49264 
L 251.654312 161.798059 
L 253.285742 159.736872 
L 254.917172 160.49264 
L 256.548602 162.004178 
L 258.180032 160.973584 
L 259.811462 162.279003 
L 261.442892 161.660646 
L 264.705751 161.798059 
L 266.337181 162.279003 
L 267.968611 163.034771 
L 269.600041 164.683721 
L 272.862901 162.69124 
L 274.494331 160.149109 
L 276.125761 161.660646 
L 277.75719 160.080403 
L 279.38862 161.110996 
L 281.02005 160.698759 
L 282.65148 159.805578 
L 284.28291 159.599459 
L 285.91434 159.530753 
L 287.54577 158.362747 
L 289.1772 157.74439 
L 290.80863 158.225334 
L 292.440059 159.668165 
L 295.702919 156.64509 
L 297.334349 157.126034 
L 298.965779 159.049809 
L 300.597209 158.431453 
L 302.228639 159.118515 
L 303.860069 159.049809 
L 305.491498 157.950509 
L 308.754358 159.668165 
L 310.385788 158.637572 
L 312.017218 159.530753 
L 313.648648 158.29404 
L 315.280078 157.469565 
L 316.911508 158.500159 
L 318.542937 159.39334 
L 321.805797 160.149109 
L 323.437227 160.973584 
L 325.068657 160.836171 
L 326.700087 162.004178 
L 328.331517 162.69124 
L 329.962947 162.69124 
L 331.594376 161.317115 
L 333.225806 161.660646 
L 334.857236 161.04229 
L 336.488666 158.156628 
L 338.120096 157.057328 
L 341.382956 156.438972 
L 343.014386 156.507678 
L 344.645815 155.477084 
L 346.277245 155.064847 
L 347.908675 155.614497 
L 349.540105 156.851209 
L 351.171535 156.988622 
L 352.802965 158.568865 
L 354.434395 158.29404 
L 356.065825 157.400859 
L 357.697254 156.64509 
L 359.328684 157.332153 
L 360.960114 155.339672 
L 362.591544 154.377784 
L 364.222974 154.102959 
L 365.854404 154.858728 
L 367.485834 153.34719 
L 369.117264 155.270965 
L 370.748693 154.99614 
L 372.380123 154.240372 
L 374.011553 154.102959 
L 375.642983 153.690722 
L 377.274413 151.011178 
L 378.905843 153.141072 
L 380.537273 154.99614 
L 380.537273 154.99614 
" clip-path="url(#peb2ae75727)" style="fill: none; stroke: #d62728; stroke-width: 1.5; stroke-linecap: square"/>
   </g>
   <g id="patch_3">
    <path d="M 39.65 273.312 
L 39.65 7.2 
" style="fill: none; stroke: #000000; stroke-width: 0.8; stroke-linejoin: miter; stroke-linecap: square"/>
   </g>
   <g id="patch_4">
    <path d="M 396.77 273.312 
L 396.77 7.2 
" style="fill: none; stroke: #000000; stroke-width: 0.8; stroke-linejoin: miter; stroke-linecap: square"/>
   </g>
   <g id="patch_5">
    <path d="M 39.65 273.312 
L 396.77 273.312 
" style="fill: none; stroke: #000000; stroke-width: 0.8; stroke-linejoin: miter; stroke-linecap: square"/>
   </g>
   <g id="patch_6">
    <path d="M 39.65 7.2 
L 396.77 7.2 
" style="fill: none; stroke: #000000; stroke-width: 0.8; stroke-linejoin: miter; stroke-linecap: square"/>
   </g>
  </g>
 </g>
 <defs>
  <clipPath id="peb2ae75727">
   <rect x="39.65" y="7.2" width="357.12" height="266.112"/>
  </clipPath>
 </defs>
</svg>
