<?xml version="1.0" encoding="utf-8" standalone="no"?>
<!DOCTYPE svg PUBLIC "-//W3C//DTD SVG 1.1//EN"
  "http://www.w3.org/Graphics/SVG/1.1/DTD/svg11.dtd">
<svg xmlns:xlink="http://www.w3.org/1999/xlink" width="403.97pt" height="297.190125pt" viewBox="0 0 403.97 297.190125" xmlns="http://www.w3.org/2000/svg" version="1.1">
 <metadata>
  <rdf:RDF xmlns:dc="http://purl.org/dc/elements/1.1/" xmlns:cc="http://creativecommons.org/ns#" xmlns:rdf="http://www.w3.org/1999/02/22-rdf-syntax-ns#">
   <cc:Work>
    <dc:type rdf:resource="http://purl.org/dc/dcmitype/StillImage"/>
    <dc:date>2026-05-25T23:49:01.223958</dc:date>
    <dc:format>image/svg+xml</dc:format>
    <dc:creator>
     <cc:Agent>
      <dc:title>Matplotlib v3.10.9, https://matplotlib.org/</dc:title>
     </cc:Agent>
    </dc:creator>
   </cc:Work>
  </rdf:RDF>
 </metadata>
 <defs>
  <style type="text/css">*{stroke-linejoin: round; stroke-linecap: butt}</style>
 </defs>
 <g id="figure_1">
  <g id="patch_1">
   <path d="M 0 297.190125 
L 403.97 297.190125 
L 403.97 0 
L 0 0 
z
" style="fill: #ffffff"/>
  </g>
  <g id="axes_1">
   <g id="patch_2">
    <path d="M 39.65 273.312 
L 396.77 273.312 
L 396.77 7.2 
L 39.65 7.2 
z
" style="fill: #ffffff"/>
   </g>
   <g id="matplotlib.axis_1">
    <g id="xtick_1">
     <g id="line2d_1">
      <defs>
       <path id="m4871e1173c" d="M 0 0 
L 0 3.5 
" style="stroke: #000000; stroke-width: 0.8"/>
      </defs>
      <g>
       <use xlink:href="#m4871e1173c" x="55.882727" y="273.312" style="stroke: #000000; stroke-width: 0.8"/>
      </g>
     </g>
     <g id="text_1">
      <!-- 0.0 -->
      <g transform="translate(47.931165 287.910437) scale(0.1 -0.1)">
       <defs>
        <path id="DejaVuSans-30" d="M 2034 4250 
Q 1547 4250 1301 3770 
Q 1056 3291 1056 2328 
Q 1056 1369 1301 889 
Q 1547 409 2034 409 
Q 2525 409 2770 889 
Q 3016 1369 3016 2328 
Q 3016 3291 2770 3770 
Q 2525 4250 2034 4250 
z
M 2034 4750 
Q 2819 4750 3233 4129 
Q 3647 3509 3647 2328 
Q 3647 1150 3233 529 
Q 2819 -91 2034 -91 
Q 1250 -91 836 529 
Q 422 1150 422 2328 
Q 422 3509 836 4129 
Q 1250 4750 2034 4750 
z
" transform="scale(0.015625)"/>
        <path id="DejaVuSans-2e" d="M 684 794 
L 1344 794 
L 1344 0 
L 684 0 
L 684 794 
z
" transform="scale(0.015625)"/>
       </defs>
       <use xlink:href="#DejaVuSans-30"/>
       <use xlink:href="#DejaVuSans-2e" transform="translate(63.623047 0)"/>
       <use xlink:href="#DejaVuSans-30" transform="translate(95.410156 0)"/>
      </g>
     </g>
    </g>
    <g id="xtick_2">
     <g id="line2d_2">
      <g>
       <use xlink:href="#m4871e1173c" x="96.668474" y="273.312" style="stroke: #000000; stroke-width: 0.8"/>
      </g>
     </g>
     <g id="text_2">
      <!-- 2.5 -->
      <g transform="translate(88.716912 287.910437) scale(0.1 -0.1)">
       <defs>
        <path id="DejaVuSans-32" d="M 1228 531 
L 3431 531 
L 3431 0 
L 469 0 
L 469 531 
Q 828 903 1448 1529 
Q 2069 2156 2228 2338 
Q 2531 2678 2651 2914 
Q 2772 3150 2772 3378 
Q 2772 3750 2511 3984 
Q 2250 4219 1831 4219 
Q 1534 4219 1204 4116 
Q 875 4013 500 3803 
L 500 4441 
Q 881 4594 1212 4672 
Q 1544 4750 1819 4750 
Q 2544 4750 2975 4387 
Q 3406 4025 3406 3419 
Q 3406 3131 3298 2873 
Q 3191 2616 2906 2266 
Q 2828 2175 2409 1742 
Q 1991 1309 1228 531 
z
" transform="scale(0.015625)"/>
        <path id="DejaVuSans-35" d="M 691 4666 
L 3169 4666 
L 3169 4134 
L 1269 4134 
L 1269 2991 
Q 1406 3038 1543 3061 
Q 1681 3084 1819 3084 
Q 2600 3084 3056 2656 
Q 3513 2228 3513 1497 
Q 3513 744 3044 326 
Q 2575 -91 1722 -91 
Q 1428 -91 1123 -41 
Q 819 9 494 109 
L 494 744 
Q 775 591 1075 516 
Q 1375 441 1709 441 
Q 2250 441 2565 725 
Q 2881 1009 2881 1497 
Q 2881 1984 2565 2268 
Q 2250 2553 1709 2553 
Q 1456 2553 1204 2497 
Q 953 2441 691 2322 
L 691 4666 
z
" transform="scale(0.015625)"/>
       </defs>
       <use xlink:href="#DejaVuSans-32"/>
       <use xlink:href="#DejaVuSans-2e" transform="translate(63.623047 0)"/>
       <use xlink:href="#DejaVuSans-35" transform="translate(95.410156 0)"/>
      </g>
     </g>
    </g>
    <g id="xtick_3">
     <g id="line2d_3">
      <g>
       <use xlink:href="#m4871e1173c" x="137.454221" y="273.312" style="stroke: #000000; stroke-width: 0.8"/>
      </g>
     </g>
     <g id="text_3">
      <!-- 5.0 -->
      <g transform="translate(129.502659 287.910437) scale(0.1 -0.1)">
       <use xlink:href="#DejaVuSans-35"/>
       <use xlink:href="#DejaVuSans-2e" transform="translate(63.623047 0)"/>
       <use xlink:href="#DejaVuSans-30" transform="translate(95.410156 0)"/>
      </g>
     </g>
    </g>
    <g id="xtick_4">
     <g id="line2d_4">
      <g>
       <use xlink:href="#m4871e1173c" x="178.239968" y="273.312" style="stroke: #000000; stroke-width: 0.8"/>
      </g>
     </g>
     <g id="text_4">
      <!-- 7.5 -->
      <g transform="translate(170.288406 287.910437) scale(0.1 -0.1)">
       <defs>
        <path id="DejaVuSans-37" d="M 525 4666 
L 3525 4666 
L 3525 4397 
L 1831 0 
L 1172 0 
L 2766 4134 
L 525 4134 
L 525 4666 
z
" transform="scale(0.015625)"/>
       </defs>
       <use xlink:href="#DejaVuSans-37"/>
       <use xlink:href="#DejaVuSans-2e" transform="translate(63.623047 0)"/>
       <use xlink:href="#DejaVuSans-35" transform="translate(95.410156 0)"/>
      </g>
     </g>
    </g>
    <g id="xtick_5">
     <g id="line2d_5">
      <g>
       <use xlink:href="#m4871e1173c" x="219.025715" y="273.312" style="stroke: #000000; stroke-width: 0.8"/>
      </g>
     </g>
     <g id="text_5">
      <!-- 10.0 -->
      <g transform="translate(207.892902 287.910437) scale(0.1 -0.1)">
       <defs>
        <path id="DejaVuSans-31" d="M 794 531 
L 1825 531 
L 1825 4091 
L 703 3866 
L 703 4441 
L 1819 4666 
L 2450 4666 
L 2450 531 
L 3481 531 
L 3481 0 
L 794 0 
L 794 531 
z
" transform="scale(0.015625)"/>
       </defs>
       <use xlink:href="#DejaVuSans-31"/>
       <use xlink:href="#DejaVuSans-30" transform="translate(63.623047 0)"/>
       <use xlink:href="#DejaVuSans-2e" transform="translate(127.246094 0)"/>
       <use xlink:href="#DejaVuSans-30" transform="translate(159.033203 0)"/>
      </g>
     </g>
    </g>
    <g id="xtick_6">
     <g id="line2d_6">
      <g>
       <use xlink:href="#m4871e1173c" x="259.811462" y="273.312" style="stroke: #000000; stroke-width: 0.8"/>
      </g>
     </g>
     <g id="text_6">
      <!-- 12.5 -->
      <g transform="translate(248.678649 287.910437) scale(0.1 -0.1)">
       <use xlink:href="#DejaVuSans-31"/>
       <use xlink:href="#DejaVuSans-32" transform="translate(63.623047 0)"/>
       <use xlink:href="#DejaVuSans-2e" transform="translate(127.246094 0)"/>
       <use xlink:href="#DejaVuSans-35" transform="translate(159.033203 0)"/>
      </g>
     </g>
    </g>
    <g id="xtick_7">
     <g id="line2d_7">
      <g>
       <use xlink:href="#m4871e1173c" x="300.597209" y="273.312" style="stroke: #000000; stroke-width: 0.8"/>
      </g>
     </g>
     <g id="text_7">
      <!-- 15.0 -->
      <g transform="translate(289.464396 287.910437) scale(0.1 -0.1)">
       <use xlink:href="#DejaVuSans-31"/>
       <use xlink:href="#DejaVuSans-35" transform="translate(63.623047 0)"/>
       <use xlink:href="#DejaVuSans-2e" transform="translate(127.246094 0)"/>
       <use xlink:href="#DejaVuSans-30" transform="translate(159.033203 0)"/>
      </g>
     </g>
    </g>
    <g id="xtick_8">
     <g id="line2d_8">
      <g>
       <use xlink:href="#m4871e1173c" x="341.382956" y="273.312" style="stroke: #000000; stroke-width: 0.8"/>
      </g>
     </g>
     <g id="text_8">
      <!-- 17.5 -->
      <g transform="translate(330.250143 287.910437) scale(0.1 -0.1)">
       <use xlink:href="#DejaVuSans-31"/>
       <use xlink:href="#DejaVuSans-37" transform="translate(63.623047 0)"/>
       <use xlink:href="#DejaVuSans-2e" transform="translate(127.246094 0)"/>
       <use xlink:href="#DejaVuSans-35" transform="translate(159.033203 0)"/>
      </g>
     </g>
    </g>
    <g id="xtick_9">
     <g id="line2d_9">
      <g>
       <use xlink:href="#m4871e1173c" x="382.168703" y="273.312" style="stroke: #000000; stroke-width: 0.8"/>
      </g>
     </g>
     <g id="text_9">
      <!-- 20.0 -->
      <g transform="translate(371.03589 287.910437) scale(0.1 -0.1)">
       <use xlink:href="#DejaVuSans-32"/>
       <use xlink:href="#DejaVuSans-30" transform="translate(63.623047 0)"/>
       <use xlink:href="#DejaVuSans-2e" transform="translate(127.246094 0)"/>
       <use xlink:href="#DejaVuSans-30" transform="translate(159.033203 0)"/>
      </g>
     </g>
    </g>
   </g>
   <g id="matplotlib.axis_2">
    <g id="ytick_1">
     <g id="line2d_10">
      <defs>
       <path id="m48666fa6bf" d="M 0 0 
L -3.5 0 
" style="stroke: #000000; stroke-width: 0.8"/>
      </defs>
      <g>
       <use xlink:href="#m48666fa6bf" x="39.65" y="261.216" style="stroke: #000000; stroke-width: 0.8"/>
      </g>
     </g>
     <g id="text_10">
      <!-- 0 -->
      <g transform="translate(26.2875 265.015219) scale(0.1 -0.1)">
       <use xlink:href="#DejaVuSans-30"/>
      </g>
     </g>
    </g>
    <g id="ytick_2">
     <g id="line2d_11">
      <g>
       <use xlink:href="#m48666fa6bf" x="39.65" y="226.862876" style="stroke: #000000; stroke-width: 0.8"/>
      </g>
     </g>
     <g id="text_11">
      <!-- 500 -->
      <g transform="translate(13.5625 230.662095) scale(0.1 -0.1)">
       <use xlink:href="#DejaVuSans-35"/>
       <use xlink:href="#DejaVuSans-30" transform="translate(63.623047 0)"/>
       <use xlink:href="#DejaVuSans-30" transform="translate(127.246094 0)"/>
      </g>
     </g>
    </g>
    <g id="ytick_3">
     <g id="line2d_12">
      <g>
       <use xlink:href="#m48666fa6bf" x="39.65" y="192.509752" style="stroke: #000000; stroke-width: 0.8"/>
      </g>
     </g>
     <g id="text_12">
      <!-- 1000 -->
      <g transform="translate(7.2 196.308971) scale(0.1 -0.1)">
       <use xlink:href="#DejaVuSans-31"/>
       <use xlink:href="#DejaVuSans-30" transform="translate(63.623047 0)"/>
       <use xlink:href="#DejaVuSans-30" transform="translate(127.246094 0)"/>
       <use xlink:href="#DejaVuSans-30" transform="translate(190.869141 0)"/>
      </g>
     </g>
    </g>
    <g id="ytick_4">
     <g id="line2d_13">
      <g>
       <use xlink:href="#m48666fa6bf" x="39.65" y="158.156628" style="stroke: #000000; stroke-width: 0.8"/>
      </g>
     </g>
     <g id="text_13">
      <!-- 1500 -->
      <g transform="translate(7.2 161.955847) scale(0.1 -0.1)">
       <use xlink:href="#DejaVuSans-31"/>
       <use xlink:href="#DejaVuSans-35" transform="translate(63.623047 0)"/>
       <use xlink:href="#DejaVuSans-30" transform="translate(127.246094 0)"/>
       <use xlink:href="#DejaVuSans-30" transform="translate(190.869141 0)"/>
      </g>
     </g>
    </g>
    <g id="ytick_5">
     <g id="line2d_14">
      <g>
       <use xlink:href="#m48666fa6bf" x="39.65" y="123.803504" style="stroke: #000000; stroke-width: 0.8"/>
      </g>
     </g>
     <g id="text_14">
      <!-- 2000 -->
      <g transform="translate(7.2 127.602722) scale(0.1 -0.1)">
       <use xlink:href="#DejaVuSans-32"/>
       <use xlink:href="#DejaVuSans-30" transform="translate(63.623047 0)"/>
       <use xlink:href="#DejaVuSans-30" transform="translate(127.246094 0)"/>
       <use xlink:href="#DejaVuSans-30" transform="translate(190.869141 0)"/>
      </g>
     </g>
    </g>
    <g id="ytick_6">
     <g id="line2d_15">
      <g>
       <use xlink:href="#m48666fa6bf" x="39.65" y="89.45038" style="stroke: #000000; stroke-width: 0.8"/>
      </g>
     </g>
     <g id="text_15">
      <!-- 2500 -->
      <g transform="translate(7.2 93.249598) scale(0.1 -0.1)">
       <use xlink:href="#DejaVuSans-32"/>
       <use xlink:href="#DejaVuSans-35" transform="translate(63.623047 0)"/>
       <use xlink:href="#DejaVuSans-30" transform="translate(127.246094 0)"/>
       <use xlink:href="#DejaVuSans-30" transform="translate(190.869141 0)"/>
      </g>
     </g>
    </g>
    <g id="ytick_7">
     <g id="line2d_16">
      <g>
       <use xlink:href="#m48666fa6bf" x="39.65" y="55.097256" style="stroke: #000000; stroke-width: 0.8"/>
      </g>
     </g>
     <g id="text_16">
      <!-- 3000 -->
      <g transform="translate(7.2 58.896474) scale(0.1 -0.1)">
       <defs>
        <path id="DejaVuSans-33" d="M 2597 2516 
Q 3050 2419 3304 2112 
Q 3559 1806 3559 1356 
Q 3559 666 3084 287 
Q 2609 -91 1734 -91 
Q 1441 -91 1130 -33 
Q 819 25 488 141 
L 488 750 
Q 750 597 1062 519 
Q 1375 441 1716 441 
Q 2309 441 2620 675 
Q 2931 909 2931 1356 
Q 2931 1769 2642 2001 
Q 2353 2234 1838 2234 
L 1294 2234 
L 1294 2753 
L 1863 2753 
Q 2328 2753 2575 2939 
Q 2822 3125 2822 3475 
Q 2822 3834 2567 4026 
Q 2313 4219 1838 4219 
Q 1578 4219 1281 4162 
Q 984 4106 628 3988 
L 628 4550 
Q 988 4650 1302 4700 
Q 1616 4750 1894 4750 
Q 2613 4750 3031 4423 
Q 3450 4097 3450 3541 
Q 3450 3153 3228 2886 
Q 3006 2619 2597 2516 
z
" transform="scale(0.015625)"/>
       </defs>
       <use xlink:href="#DejaVuSans-33"/>
       <use xlink:href="#DejaVuSans-30" transform="translate(63.623047 0)"/>
       <use xlink:href="#DejaVuSans-30" transform="translate(127.246094 0)"/>
       <use xlink:href="#DejaVuSans-30" transform="translate(190.869141 0)"/>
      </g>
     </g>
    </g>
    <g id="ytick_8">
     <g id="line2d_17">
      <g>
       <use xlink:href="#m48666fa6bf" x="39.65" y="20.744132" style="stroke: #000000; stroke-width: 0.8"/>
      </g>
     </g>
     <g id="text_17">
      <!-- 3500 -->
      <g transform="translate(7.2 24.54335) scale(0.1 -0.1)">
       <use xlink:href="#DejaVuSans-33"/>
       <use xlink:href="#DejaVuSans-35" transform="translate(63.623047 0)"/>
       <use xlink:href="#DejaVuSans-30" transform="translate(127.246094 0)"/>
       <use xlink:href="#DejaVuSans-30" transform="translate(190.869141 0)"/>
      </g>
     </g>
    </g>
   </g>
   <g id="line2d_18">
    <path d="M 55.882727 261.216 
L 72.197026 192.509752 
L 88.511325 143.281725 
L 104.825624 108.009844 
L 121.139922 82.737541 
L 137.454221 64.629936 
L 153.76852 51.655837 
L 170.082819 42.359895 
L 186.397117 35.699353 
L 202.711416 30.927074 
L 219.025715 27.507736 
L 235.340014 25.057781 
L 251.654312 23.302388 
L 267.968611 22.044649 
L 284.28291 21.143479 
L 300.597209 20.49779 
L 316.911508 20.035155 
L 333.225806 19.703676 
L 349.540105 19.466172 
L 365.854404 19.296 
" clip-path="url(#p974a35a6ad)" style="fill: none; stroke: #1f77b4; stroke-width: 1.5; stroke-linecap: square"/>
   </g>
   <g id="line2d_19">
    <path d="M 55.882727 261.216 
L 72.197026 261.216 
L 88.511325 238.313917 
L 104.825624 210.146646 
L 121.139922 183.928275 
L 137.454221 162.043662 
L 153.76852 144.772234 
L 170.082819 131.580383 
L 186.397117 121.709039 
L 202.711416 114.420911 
L 219.025715 109.088426 
L 235.340014 105.210949 
L 251.654312 102.4036 
L 267.968611 100.377177 
L 284.28291 98.917564 
L 300.597209 97.867809 
L 316.911508 97.113636 
L 333.225806 96.572231 
L 349.540105 96.183781 
L 365.854404 95.905183 
" clip-path="url(#p974a35a6ad)" style="fill: none; stroke: #ff7f0e; stroke-width: 1.5; stroke-linecap: square"/>
   </g>
   <g id="line2d_20">
    <path d="M 55.882727 261.216 
L 57.514157 254.963731 
L 59.145587 249.329819 
L 60.777017 242.802725 
L 64.039877 230.64172 
L 70.565596 205.220408 
L 72.197026 199.517789 
L 73.828456 194.914471 
L 75.459886 190.998214 
L 77.091316 185.982658 
L 78.722746 181.585458 
L 80.354175 176.707315 
L 81.985605 172.791059 
L 85.248465 166.744909 
L 86.879895 163.172184 
L 88.511325 158.156628 
L 90.142755 154.99614 
L 93.405614 149.362228 
L 95.037044 145.995622 
L 96.668474 143.590903 
L 98.299904 140.636535 
L 99.931334 138.437935 
L 101.562764 134.933916 
L 103.194194 131.842135 
L 104.825624 129.643535 
L 106.457053 128.81906 
L 108.088483 127.857172 
L 109.719913 126.62046 
L 111.351343 124.627979 
L 112.982773 124.009622 
L 114.614203 122.77291 
L 116.245633 122.017141 
L 117.877063 120.093366 
L 119.508492 117.345116 
L 121.139922 116.795466 
L 122.771352 114.871691 
L 124.402782 112.466973 
L 126.034212 111.917323 
L 127.665642 107.451417 
L 129.297072 106.214704 
L 130.928502 105.665054 
L 132.559931 104.359636 
L 134.191361 103.260336 
L 135.822791 100.993029 
L 137.454221 99.481492 
L 139.085651 97.695129 
L 140.717081 94.465936 
L 142.348511 93.023105 
L 143.979941 92.885692 
L 147.2428 89.656498 
L 148.87423 88.488492 
L 150.50566 88.213667 
L 152.13709 87.25178 
L 153.76852 86.976955 
L 155.39995 87.114367 
L 157.03138 85.396711 
L 158.66281 84.297411 
L 160.294239 84.847061 
L 161.925669 83.335524 
L 163.557099 82.923286 
L 165.188529 82.167517 
L 166.819959 81.75528 
L 168.451389 80.999511 
L 170.082819 80.793392 
L 171.714249 80.724686 
L 173.345678 79.487974 
L 174.977108 79.55668 
L 176.608538 80.381155 
L 178.239968 79.419267 
L 179.871398 78.113849 
L 181.502828 75.777836 
L 183.134258 74.953361 
L 184.765688 73.373118 
L 186.397117 72.342524 
L 188.028547 72.479936 
L 189.659977 72.273818 
L 191.291407 71.724168 
L 192.922837 72.136405 
L 194.554267 70.830986 
L 196.185697 71.586755 
L 197.817127 71.586755 
L 199.448556 73.098293 
L 201.079986 71.792874 
L 202.711416 72.342524 
L 204.342846 73.166999 
L 205.974276 73.579236 
L 207.605706 74.197593 
L 209.237136 74.472418 
L 210.868566 73.579236 
L 214.131425 72.617349 
L 215.762855 70.693574 
L 217.394285 69.731686 
L 219.025715 68.288855 
L 220.657145 67.876618 
L 222.288575 68.56368 
L 225.551434 65.471899 
L 227.182864 66.777318 
L 228.814294 65.403193 
L 230.445724 63.61683 
L 232.077154 65.197074 
L 233.708584 65.471899 
L 236.971444 65.540605 
L 238.602873 66.158962 
L 240.234303 64.853543 
L 241.865733 64.578718 
L 243.497163 64.853543 
L 245.128593 66.090255 
L 248.391453 64.16648 
L 250.022883 64.578718 
L 251.654312 63.06718 
L 253.285742 61.280818 
L 254.917172 62.105293 
L 256.548602 61.143405 
L 258.180032 60.937287 
L 261.442892 57.501974 
L 263.074322 57.021031 
L 264.705751 56.814912 
L 266.337181 56.059143 
L 269.600041 53.585718 
L 271.231471 54.204074 
L 272.862901 54.410193 
L 274.494331 53.242187 
L 276.125761 54.341487 
L 277.75719 56.265262 
L 281.02005 55.578199 
L 282.65148 54.822431 
L 284.28291 55.921731 
L 285.91434 57.295856 
L 287.54577 57.982918 
L 289.1772 58.876099 
L 290.80863 57.708093 
L 292.440059 57.639387 
L 294.071489 57.845506 
L 295.702919 58.189037 
L 297.334349 58.326449 
L 298.965779 56.746206 
L 300.597209 57.158443 
L 302.228639 58.051624 
L 303.860069 57.639387 
L 305.491498 58.601274 
L 307.122928 59.357043 
L 308.754358 59.150924 
L 310.385788 60.31893 
L 312.017218 60.112812 
L 313.648648 59.150924 
L 315.280078 59.906693 
L 316.911508 59.700574 
L 318.542937 60.31893 
L 320.174367 59.700574 
L 321.805797 58.66998 
L 323.437227 58.66998 
L 325.068657 59.288337 
L 326.700087 59.357043 
L 328.331517 59.082218 
L 329.962947 58.532568 
L 331.594376 59.082218 
L 333.225806 60.044105 
L 334.857236 59.563162 
L 336.488666 59.357043 
L 338.120096 60.731168 
L 339.751526 59.837987 
L 341.382956 59.21963 
L 343.014386 58.738687 
L 344.645815 57.982918 
L 346.277245 56.814912 
L 347.908675 56.746206 
L 349.540105 57.227149 
L 351.171535 55.165962 
L 352.802965 56.059143 
L 354.434395 57.089737 
L 356.065825 56.952324 
L 357.697254 55.509493 
L 359.328684 56.265262 
L 360.960114 55.784318 
L 362.591544 56.883618 
L 364.222974 57.158443 
L 365.854404 56.952324 
L 367.485834 55.715612 
L 369.117264 54.891137 
L 370.748693 55.234668 
L 372.380123 54.272781 
L 374.011553 53.517012 
L 375.642983 56.402674 
L 377.274413 55.028549 
L 378.905843 54.959843 
L 380.537273 54.547606 
L 380.537273 54.547606 
" clip-path="url(#p974a35a6ad)" style="fill: none; stroke: #2ca02c; stroke-width: 1.5; stroke-linecap: square"/>
   </g>
   <g id="line2d_21">
    <path d="M 55.882727 261.216 
L 57.514157 261.216 
L 59.145587 261.009881 
L 62.408447 260.254113 
L 64.039877 258.948694 
L 65.671307 258.055513 
L 67.302736 256.750094 
L 68.934166 255.788206 
L 70.565596 254.482788 
L 72.197026 252.902544 
L 75.459886 250.154294 
L 77.091316 248.642757 
L 78.722746 246.9251 
L 80.354175 245.619682 
L 81.985605 243.352375 
L 83.617035 241.359894 
L 86.879895 237.993288 
L 88.511325 236.687869 
L 90.142755 234.832801 
L 91.774185 232.771613 
L 93.405614 230.435601 
L 95.037044 228.717945 
L 96.668474 226.450638 
L 98.299904 224.870395 
L 99.931334 223.908507 
L 103.194194 220.816726 
L 106.457053 216.694351 
L 109.719913 213.946101 
L 111.351343 212.915508 
L 112.982773 210.373376 
L 114.614203 208.037364 
L 116.245633 206.594533 
L 117.877063 205.426527 
L 119.508492 204.533345 
L 122.771352 201.098033 
L 124.402782 200.067439 
L 126.034212 197.937545 
L 127.665642 198.624608 
L 130.928502 193.883877 
L 132.559931 193.059402 
L 134.191361 191.960102 
L 135.822791 192.441046 
L 137.454221 191.135627 
L 139.085651 191.685277 
L 140.717081 192.441046 
L 142.348511 190.585977 
L 143.979941 190.036327 
L 145.61137 189.005733 
L 147.2428 187.288077 
L 148.87423 187.013252 
L 150.50566 185.364302 
L 152.13709 185.364302 
L 155.39995 184.745946 
L 157.03138 183.303115 
L 158.66281 183.371821 
L 160.294239 180.82969 
L 161.925669 180.142627 
L 163.557099 179.249446 
L 165.188529 178.218852 
L 166.819959 178.424971 
L 168.451389 177.256965 
L 170.082819 175.127071 
L 171.714249 174.096477 
L 173.345678 174.440009 
L 174.977108 172.722352 
L 176.608538 170.523752 
L 178.239968 170.523752 
L 179.871398 170.867284 
L 181.502828 169.905396 
L 183.134258 169.767984 
L 184.765688 170.798577 
L 186.397117 170.798577 
L 189.659977 171.004696 
L 191.291407 170.042809 
L 192.922837 169.424452 
L 194.554267 169.355746 
L 196.185697 168.599978 
L 197.817127 167.706796 
L 199.448556 167.706796 
L 201.079986 166.951028 
L 202.711416 166.401378 
L 204.342846 166.332671 
L 205.974276 165.027253 
L 207.605706 164.477603 
L 209.237136 163.378303 
L 210.868566 164.134071 
L 212.499995 164.408896 
L 214.131425 164.34019 
L 215.762855 165.576903 
L 217.394285 165.98914 
L 219.025715 167.019734 
L 220.657145 166.813615 
L 222.288575 166.882321 
L 223.920005 167.225853 
L 225.551434 167.706796 
L 227.182864 165.98914 
L 228.814294 166.744909 
L 230.445724 167.294559 
L 232.077154 166.951028 
L 233.708584 167.019734 
L 235.340014 166.53879 
L 236.971444 166.813615 
L 238.602873 165.370784 
L 240.234303 166.470084 
L 241.865733 166.607496 
L 243.497163 166.332671 
L 245.128593 166.882321 
L 246.760023 167.019734 
L 248.391453 166.607496 
L 250.022883 166.332671 
L 251.654312 165.302078 
L 253.285742 165.920434 
L 254.917172 166.676203 
L 256.548602 167.08844 
L 258.180032 166.057846 
L 259.811462 167.63809 
L 261.442892 166.744909 
L 263.074322 165.095959 
L 264.705751 165.233371 
L 266.337181 164.34019 
L 267.968611 163.996659 
L 269.600041 165.095959 
L 271.231471 165.370784 
L 272.862901 165.783021 
L 274.494331 164.821134 
L 276.125761 163.584421 
L 277.75719 161.248409 
L 279.38862 160.973584 
L 281.02005 160.080403 
L 282.65148 160.217815 
L 284.28291 158.706278 
L 285.91434 158.774984 
L 287.54577 156.919915 
L 289.1772 156.507678 
L 290.80863 157.606978 
L 292.440059 157.469565 
L 294.071489 157.19474 
L 295.702919 157.400859 
L 297.334349 156.851209 
L 298.965779 157.263447 
L 300.597209 157.813097 
L 302.228639 157.19474 
L 303.860069 156.919915 
L 307.122928 156.782503 
L 308.754358 157.057328 
L 310.385788 157.126034 
L 312.017218 156.713797 
L 313.648648 156.164147 
L 315.280078 156.988622 
L 316.911508 157.126034 
L 318.542937 157.057328 
L 320.174367 158.29404 
L 321.805797 160.080403 
L 323.437227 160.286521 
L 325.068657 160.217815 
L 329.962947 160.561346 
L 331.594376 158.362747 
L 333.225806 157.057328 
L 334.857236 158.156628 
L 336.488666 158.637572 
L 339.751526 157.881803 
L 341.382956 158.087922 
L 343.014386 159.39334 
L 344.645815 159.599459 
L 346.277245 159.187222 
L 347.908675 160.561346 
L 349.540105 160.355228 
L 351.171535 160.561346 
L 352.802965 159.805578 
L 354.434395 159.94299 
L 356.065825 159.049809 
L 357.697254 160.011696 
L 359.328684 159.255928 
L 360.960114 157.950509 
L 364.222974 157.126034 
L 365.854404 156.438972 
L 372.380123 161.59194 
L 374.011553 161.04229 
L 375.642983 158.774984 
L 377.274413 159.874284 
L 378.905843 159.324634 
L 380.537273 158.431453 
L 380.537273 158.431453 
" clip-path="url(#p974a35a6ad)" style="fill: none; stroke: #d62728; stroke-width: 1.5; stroke-linecap: square"/>
   </g>
   <g id="patch_3">
    <path d="M 39.65 273.312 
L 39.65 7.2 
" style="fill: none; stroke: #000000; stroke-width: 0.8; stroke-linejoin: miter; stroke-linecap: square"/>
   </g>
   <g id="patch_4">
    <path d="M 396.77 273.312 
L 396.77 7.2 
" style="fill: none; stroke: #000000; stroke-width: 0.8; stroke-linejoin: miter; stroke-linecap: square"/>
   </g>
   <g id="patch_5">
    <path d="M 39.65 273.312 
L 396.77 273.312 
" style="fill: none; stroke: #000000; stroke-width: 0.8; stroke-linejoin: miter; stroke-linecap: square"/>
   </g>
   <g id="patch_6">
    <path d="M 39.65 7.2 
L 396.77 7.2 
" style="fill: none; stroke: #000000; stroke-width: 0.8; stroke-linejoin: miter; stroke-linecap: square"/>
   </g>
  </g>
 </g>
 <defs>
  <clipPath id="p974a35a6ad">
   <rect x="39.65" y="7.2" width="357.12" height="266.112"/>
  </clipPath>
 </defs>
</svg>
