<?xml version="1.0" encoding="utf-8" standalone="no"?>
<!DOCTYPE svg PUBLIC "-//W3C//DTD SVG 1.1//EN"
  "http://www.w3.org/Graphics/SVG/1.1/DTD/svg11.dtd">
<svg xmlns:xlink="http://www.w3.org/1999/xlink" width="403.97pt" height="297.190125pt" viewBox="0 0 403.97 297.190125" xmlns="http://www.w3.org/2000/svg" version="1.1">
 <metadata>
  <rdf:RDF xmlns:dc="http://purl.org/dc/elements/1.1/" xmlns:cc="http://creativecommons.org/ns#" xmlns:rdf="http://www.w3.org/1999/02/22-rdf-syntax-ns#">
   <cc:Work>
    <dc:type rdf:resource="http://purl.org/dc/dcmitype/StillImage"/>
    <dc:date>2026-05-26T00:00:33.303056</dc:date>
    <dc:format>image/svg+xml</dc:format>
    <dc:creator>
     <cc:Agent>
      <dc:title>Matplotlib v3.10.9, https://matplotlib.org/</dc:title>
     </cc:Agent>
    </dc:creator>
   </cc:Work>
  </rdf:RDF>
 </metadata>
 <defs>
  <style type="text/css">*{stroke-linejoin: round; stroke-linecap: butt}</style>
 </defs>
 <g id="figure_1">
  <g id="patch_1">
   <path d="M 0 297.190125 
L 403.97 297.190125 
L 403.97 0 
L 0 0 
z
" style="fill: #ffffff"/>
  </g>
  <g id="axes_1">
   <g id="patch_2">
    <path d="M 39.65 273.312 
L 396.77 273.312 
L 396.77 7.2 
L 39.65 7.2 
z
" style="fill: #ffffff"/>
   </g>
   <g id="matplotlib.axis_1">
    <g id="xtick_1">
     <g id="line2d_1">
      <defs>
       <path id="mabf2177f95" d="M 0 0 
L 0 3.5 
" style="stroke: #000000; stroke-width: 0.8"/>
      </defs>
      <g>
       <use xlink:href="#mabf2177f95" x="55.882727" y="273.312" style="stroke: #000000; stroke-width: 0.8"/>
      </g>
     </g>
     <g id="text_1">
      <!-- 0.0 -->
      <g transform="translate(47.931165 287.910437) scale(0.1 -0.1)">
       <defs>
        <path id="DejaVuSans-30" d="M 2034 4250 
Q 1547 4250 1301 3770 
Q 1056 3291 1056 2328 
Q 1056 1369 1301 889 
Q 1547 409 2034 409 
Q 2525 409 2770 889 
Q 3016 1369 3016 2328 
Q 3016 3291 2770 3770 
Q 2525 4250 2034 4250 
z
M 2034 4750 
Q 2819 4750 3233 4129 
Q 3647 3509 3647 2328 
Q 3647 1150 3233 529 
Q 2819 -91 2034 -91 
Q 1250 -91 836 529 
Q 422 1150 422 2328 
Q 422 3509 836 4129 
Q 1250 4750 2034 4750 
z
" transform="scale(0.015625)"/>
        <path id="DejaVuSans-2e" d="M 684 794 
L 1344 794 
L 1344 0 
L 684 0 
L 684 794 
z
" transform="scale(0.015625)"/>
       </defs>
       <use xlink:href="#DejaVuSans-30"/>
       <use xlink:href="#DejaVuSans-2e" transform="translate(63.623047 0)"/>
       <use xlink:href="#DejaVuSans-30" transform="translate(95.410156 0)"/>
      </g>
     </g>
    </g>
    <g id="xtick_2">
     <g id="line2d_2">
      <g>
       <use xlink:href="#mabf2177f95" x="96.668474" y="273.312" style="stroke: #000000; stroke-width: 0.8"/>
      </g>
     </g>
     <g id="text_2">
      <!-- 2.5 -->
      <g transform="translate(88.716912 287.910437) scale(0.1 -0.1)">
       <defs>
        <path id="DejaVuSans-32" d="M 1228 531 
L 3431 531 
L 3431 0 
L 469 0 
L 469 531 
Q 828 903 1448 1529 
Q 2069 2156 2228 2338 
Q 2531 2678 2651 2914 
Q 2772 3150 2772 3378 
Q 2772 3750 2511 3984 
Q 2250 4219 1831 4219 
Q 1534 4219 1204 4116 
Q 875 4013 500 3803 
L 500 4441 
Q 881 4594 1212 4672 
Q 1544 4750 1819 4750 
Q 2544 4750 2975 4387 
Q 3406 4025 3406 3419 
Q 3406 3131 3298 2873 
Q 3191 2616 2906 2266 
Q 2828 2175 2409 1742 
Q 1991 1309 1228 531 
z
" transform="scale(0.015625)"/>
        <path id="DejaVuSans-35" d="M 691 4666 
L 3169 4666 
L 3169 4134 
L 1269 4134 
L 1269 2991 
Q 1406 3038 1543 3061 
Q 1681 3084 1819 3084 
Q 2600 3084 3056 2656 
Q 3513 2228 3513 1497 
Q 3513 744 3044 326 
Q 2575 -91 1722 -91 
Q 1428 -91 1123 -41 
Q 819 9 494 109 
L 494 744 
Q 775 591 1075 516 
Q 1375 441 1709 441 
Q 2250 441 2565 725 
Q 2881 1009 2881 1497 
Q 2881 1984 2565 2268 
Q 2250 2553 1709 2553 
Q 1456 2553 1204 2497 
Q 953 2441 691 2322 
L 691 4666 
z
" transform="scale(0.015625)"/>
       </defs>
       <use xlink:href="#DejaVuSans-32"/>
       <use xlink:href="#DejaVuSans-2e" transform="translate(63.623047 0)"/>
       <use xlink:href="#DejaVuSans-35" transform="translate(95.410156 0)"/>
      </g>
     </g>
    </g>
    <g id="xtick_3">
     <g id="line2d_3">
      <g>
       <use xlink:href="#mabf2177f95" x="137.454221" y="273.312" style="stroke: #000000; stroke-width: 0.8"/>
      </g>
     </g>
     <g id="text_3">
      <!-- 5.0 -->
      <g transform="translate(129.502659 287.910437) scale(0.1 -0.1)">
       <use xlink:href="#DejaVuSans-35"/>
       <use xlink:href="#DejaVuSans-2e" transform="translate(63.623047 0)"/>
       <use xlink:href="#DejaVuSans-30" transform="translate(95.410156 0)"/>
      </g>
     </g>
    </g>
    <g id="xtick_4">
     <g id="line2d_4">
      <g>
       <use xlink:href="#mabf2177f95" x="178.239968" y="273.312" style="stroke: #000000; stroke-width: 0.8"/>
      </g>
     </g>
     <g id="text_4">
      <!-- 7.5 -->
      <g transform="translate(170.288406 287.910437) scale(0.1 -0.1)">
       <defs>
        <path id="DejaVuSans-37" d="M 525 4666 
L 3525 4666 
L 3525 4397 
L 1831 0 
L 1172 0 
L 2766 4134 
L 525 4134 
L 525 4666 
z
" transform="scale(0.015625)"/>
       </defs>
       <use xlink:href="#DejaVuSans-37"/>
       <use xlink:href="#DejaVuSans-2e" transform="translate(63.623047 0)"/>
       <use xlink:href="#DejaVuSans-35" transform="translate(95.410156 0)"/>
      </g>
     </g>
    </g>
    <g id="xtick_5">
     <g id="line2d_5">
      <g>
       <use xlink:href="#mabf2177f95" x="219.025715" y="273.312" style="stroke: #000000; stroke-width: 0.8"/>
      </g>
     </g>
     <g id="text_5">
      <!-- 10.0 -->
      <g transform="translate(207.892902 287.910437) scale(0.1 -0.1)">
       <defs>
        <path id="DejaVuSans-31" d="M 794 531 
L 1825 531 
L 1825 4091 
L 703 3866 
L 703 4441 
L 1819 4666 
L 2450 4666 
L 2450 531 
L 3481 531 
L 3481 0 
L 794 0 
L 794 531 
z
" transform="scale(0.015625)"/>
       </defs>
       <use xlink:href="#DejaVuSans-31"/>
       <use xlink:href="#DejaVuSans-30" transform="translate(63.623047 0)"/>
       <use xlink:href="#DejaVuSans-2e" transform="translate(127.246094 0)"/>
       <use xlink:href="#DejaVuSans-30" transform="translate(159.033203 0)"/>
      </g>
     </g>
    </g>
    <g id="xtick_6">
     <g id="line2d_6">
      <g>
       <use xlink:href="#mabf2177f95" x="259.811462" y="273.312" style="stroke: #000000; stroke-width: 0.8"/>
      </g>
     </g>
     <g id="text_6">
      <!-- 12.5 -->
      <g transform="translate(248.678649 287.910437) scale(0.1 -0.1)">
       <use xlink:href="#DejaVuSans-31"/>
       <use xlink:href="#DejaVuSans-32" transform="translate(63.623047 0)"/>
       <use xlink:href="#DejaVuSans-2e" transform="translate(127.246094 0)"/>
       <use xlink:href="#DejaVuSans-35" transform="translate(159.033203 0)"/>
      </g>
     </g>
    </g>
    <g id="xtick_7">
     <g id="line2d_7">
      <g>
       <use xlink:href="#mabf2177f95" x="300.597209" y="273.312" style="stroke: #000000; stroke-width: 0.8"/>
      </g>
     </g>
     <g id="text_7">
      <!-- 15.0 -->
      <g transform="translate(289.464396 287.910437) scale(0.1 -0.1)">
       <use xlink:href="#DejaVuSans-31"/>
       <use xlink:href="#DejaVuSans-35" transform="translate(63.623047 0)"/>
       <use xlink:href="#DejaVuSans-2e" transform="translate(127.246094 0)"/>
       <use xlink:href="#DejaVuSans-30" transform="translate(159.033203 0)"/>
      </g>
     </g>
    </g>
    <g id="xtick_8">
     <g id="line2d_8">
      <g>
       <use xlink:href="#mabf2177f95" x="341.382956" y="273.312" style="stroke: #000000; stroke-width: 0.8"/>
      </g>
     </g>
     <g id="text_8">
      <!-- 17.5 -->
      <g transform="translate(330.250143 287.910437) scale(0.1 -0.1)">
       <use xlink:href="#DejaVuSans-31"/>
       <use xlink:href="#DejaVuSans-37" transform="translate(63.623047 0)"/>
       <use xlink:href="#DejaVuSans-2e" transform="translate(127.246094 0)"/>
       <use xlink:href="#DejaVuSans-35" transform="translate(159.033203 0)"/>
      </g>
     </g>
    </g>
    <g id="xtick_9">
     <g id="line2d_9">
      <g>
       <use xlink:href="#mabf2177f95" x="382.168703" y="273.312" style="stroke: #000000; stroke-width: 0.8"/>
      </g>
     </g>
     <g id="text_9">
      <!-- 20.0 -->
      <g transform="translate(371.03589 287.910437) scale(0.1 -0.1)">
       <use xlink:href="#DejaVuSans-32"/>
       <use xlink:href="#DejaVuSans-30" transform="translate(63.623047 0)"/>
       <use xlink:href="#DejaVuSans-2e" transform="translate(127.246094 0)"/>
       <use xlink:href="#DejaVuSans-30" transform="translate(159.033203 0)"/>
      </g>
     </g>
    </g>
   </g>
   <g id="matplotlib.axis_2">
    <g id="ytick_1">
     <g id="line2d_10">
      <defs>
       <path id="mebb6e51751" d="M 0 0 
L -3.5 0 
" style="stroke: #000000; stroke-width: 0.8"/>
      </defs>
      <g>
       <use xlink:href="#mebb6e51751" x="39.65" y="261.216" style="stroke: #000000; stroke-width: 0.8"/>
      </g>
     </g>
     <g id="text_10">
      <!-- 0 -->
      <g transform="translate(26.2875 265.015219) scale(0.1 -0.1)">
       <use xlink:href="#DejaVuSans-30"/>
      </g>
     </g>
    </g>
    <g id="ytick_2">
     <g id="line2d_11">
      <g>
       <use xlink:href="#mebb6e51751" x="39.65" y="226.862876" style="stroke: #000000; stroke-width: 0.8"/>
      </g>
     </g>
     <g id="text_11">
      <!-- 500 -->
      <g transform="translate(13.5625 230.662095) scale(0.1 -0.1)">
       <use xlink:href="#DejaVuSans-35"/>
       <use xlink:href="#DejaVuSans-30" transform="translate(63.623047 0)"/>
       <use xlink:href="#DejaVuSans-30" transform="translate(127.246094 0)"/>
      </g>
     </g>
    </g>
    <g id="ytick_3">
     <g id="line2d_12">
      <g>
       <use xlink:href="#mebb6e51751" x="39.65" y="192.509752" style="stroke: #000000; stroke-width: 0.8"/>
      </g>
     </g>
     <g id="text_12">
      <!-- 1000 -->
      <g transform="translate(7.2 196.308971) scale(0.1 -0.1)">
       <use xlink:href="#DejaVuSans-31"/>
       <use xlink:href="#DejaVuSans-30" transform="translate(63.623047 0)"/>
       <use xlink:href="#DejaVuSans-30" transform="translate(127.246094 0)"/>
       <use xlink:href="#DejaVuSans-30" transform="translate(190.869141 0)"/>
      </g>
     </g>
    </g>
    <g id="ytick_4">
     <g id="line2d_13">
      <g>
       <use xlink:href="#mebb6e51751" x="39.65" y="158.156628" style="stroke: #000000; stroke-width: 0.8"/>
      </g>
     </g>
     <g id="text_13">
      <!-- 1500 -->
      <g transform="translate(7.2 161.955847) scale(0.1 -0.1)">
       <use xlink:href="#DejaVuSans-31"/>
       <use xlink:href="#DejaVuSans-35" transform="translate(63.623047 0)"/>
       <use xlink:href="#DejaVuSans-30" transform="translate(127.246094 0)"/>
       <use xlink:href="#DejaVuSans-30" transform="translate(190.869141 0)"/>
      </g>
     </g>
    </g>
    <g id="ytick_5">
     <g id="line2d_14">
      <g>
       <use xlink:href="#mebb6e51751" x="39.65" y="123.803504" style="stroke: #000000; stroke-width: 0.8"/>
      </g>
     </g>
     <g id="text_14">
      <!-- 2000 -->
      <g transform="translate(7.2 127.602722) scale(0.1 -0.1)">
       <use xlink:href="#DejaVuSans-32"/>
       <use xlink:href="#DejaVuSans-30" transform="translate(63.623047 0)"/>
       <use xlink:href="#DejaVuSans-30" transform="translate(127.246094 0)"/>
       <use xlink:href="#DejaVuSans-30" transform="translate(190.869141 0)"/>
      </g>
     </g>
    </g>
    <g id="ytick_6">
     <g id="line2d_15">
      <g>
       <use xlink:href="#mebb6e51751" x="39.65" y="89.45038" style="stroke: #000000; stroke-width: 0.8"/>
      </g>
     </g>
     <g id="text_15">
      <!-- 2500 -->
      <g transform="translate(7.2 93.249598) scale(0.1 -0.1)">
       <use xlink:href="#DejaVuSans-32"/>
       <use xlink:href="#DejaVuSans-35" transform="translate(63.623047 0)"/>
       <use xlink:href="#DejaVuSans-30" transform="translate(127.246094 0)"/>
       <use xlink:href="#DejaVuSans-30" transform="translate(190.869141 0)"/>
      </g>
     </g>
    </g>
    <g id="ytick_7">
     <g id="line2d_16">
      <g>
       <use xlink:href="#mebb6e51751" x="39.65" y="55.097256" style="stroke: #000000; stroke-width: 0.8"/>
      </g>
     </g>
     <g id="text_16">
      <!-- 3000 -->
      <g transform="translate(7.2 58.896474) scale(0.1 -0.1)">
       <defs>
        <path id="DejaVuSans-33" d="M 2597 2516 
Q 3050 2419 3304 2112 
Q 3559 1806 3559 1356 
Q 3559 666 3084 287 
Q 2609 -91 1734 -91 
Q 1441 -91 1130 -33 
Q 819 25 488 141 
L 488 750 
Q 750 597 1062 519 
Q 1375 441 1716 441 
Q 2309 441 2620 675 
Q 2931 909 2931 1356 
Q 2931 1769 2642 2001 
Q 2353 2234 1838 2234 
L 1294 2234 
L 1294 2753 
L 1863 2753 
Q 2328 2753 2575 2939 
Q 2822 3125 2822 3475 
Q 2822 3834 2567 4026 
Q 2313 4219 1838 4219 
Q 1578 4219 1281 4162 
Q 984 4106 628 3988 
L 628 4550 
Q 988 4650 1302 4700 
Q 1616 4750 1894 4750 
Q 2613 4750 3031 4423 
Q 3450 4097 3450 3541 
Q 3450 3153 3228 2886 
Q 3006 2619 2597 2516 
z
" transform="scale(0.015625)"/>
       </defs>
       <use xlink:href="#DejaVuSans-33"/>
       <use xlink:href="#DejaVuSans-30" transform="translate(63.623047 0)"/>
       <use xlink:href="#DejaVuSans-30" transform="translate(127.246094 0)"/>
       <use xlink:href="#DejaVuSans-30" transform="translate(190.869141 0)"/>
      </g>
     </g>
    </g>
    <g id="ytick_8">
     <g id="line2d_17">
      <g>
       <use xlink:href="#mebb6e51751" x="39.65" y="20.744132" style="stroke: #000000; stroke-width: 0.8"/>
      </g>
     </g>
     <g id="text_17">
      <!-- 3500 -->
      <g transform="translate(7.2 24.54335) scale(0.1 -0.1)">
       <use xlink:href="#DejaVuSans-33"/>
       <use xlink:href="#DejaVuSans-35" transform="translate(63.623047 0)"/>
       <use xlink:href="#DejaVuSans-30" transform="translate(127.246094 0)"/>
       <use xlink:href="#DejaVuSans-30" transform="translate(190.869141 0)"/>
      </g>
     </g>
    </g>
   </g>
   <g id="line2d_18">
    <path d="M 55.882727 261.216 
L 72.197026 192.509752 
L 88.511325 143.281725 
L 104.825624 108.009844 
L 121.139922 82.737541 
L 137.454221 64.629936 
L 153.76852 51.655837 
L 170.082819 42.359895 
L 186.397117 35.699353 
L 202.711416 30.927074 
L 219.025715 27.507736 
L 235.340014 25.057781 
L 251.654312 23.302388 
L 267.968611 22.044649 
L 284.28291 21.143479 
L 300.597209 20.49779 
L 316.911508 20.035155 
L 333.225806 19.703676 
L 349.540105 19.466172 
L 365.854404 19.296 
" clip-path="url(#p68637f4008)" style="fill: none; stroke: #1f77b4; stroke-width: 1.5; stroke-linecap: square"/>
   </g>
   <g id="line2d_19">
    <path d="M 55.882727 261.216 
L 72.197026 261.216 
L 88.511325 238.313917 
L 104.825624 210.146646 
L 121.139922 183.928275 
L 137.454221 162.043662 
L 153.76852 144.772234 
L 170.082819 131.580383 
L 186.397117 121.709039 
L 202.711416 114.420911 
L 219.025715 109.088426 
L 235.340014 105.210949 
L 251.654312 102.4036 
L 267.968611 100.377177 
L 284.28291 98.917564 
L 300.597209 97.867809 
L 316.911508 97.113636 
L 333.225806 96.572231 
L 349.540105 96.183781 
L 365.854404 95.905183 
" clip-path="url(#p68637f4008)" style="fill: none; stroke: #ff7f0e; stroke-width: 1.5; stroke-linecap: square"/>
   </g>
   <g id="line2d_20">
    <path d="M 55.882727 261.216 
L 60.777017 241.909544 
L 62.408447 236.825282 
L 65.671307 225.351338 
L 67.302736 219.786132 
L 68.934166 213.190333 
L 70.565596 207.831245 
L 72.197026 204.121108 
L 73.828456 199.449083 
L 75.459886 193.265521 
L 78.722746 182.547346 
L 80.354175 176.295077 
L 81.985605 173.546827 
L 83.617035 168.668684 
L 85.248465 165.370784 
L 86.879895 162.69124 
L 88.511325 160.767465 
L 90.142755 158.362747 
L 93.405614 149.637053 
L 95.037044 148.194222 
L 96.668474 144.621497 
L 98.299904 140.36171 
L 104.825624 129.780947 
L 106.457053 127.994585 
L 108.088483 125.040216 
L 109.719913 121.192666 
L 111.351343 119.818541 
L 114.614203 116.039698 
L 116.245633 113.909804 
L 117.877063 112.947917 
L 119.508492 110.886729 
L 121.139922 107.588829 
L 122.771352 106.077292 
L 124.402782 105.115404 
L 126.034212 103.741279 
L 127.665642 102.023623 
L 130.928502 99.069254 
L 132.559931 98.313486 
L 134.191361 96.458417 
L 135.822791 95.908767 
L 137.454221 94.259817 
L 139.085651 93.160517 
L 140.717081 92.404748 
L 142.348511 90.824505 
L 143.979941 90.412267 
L 145.61137 88.488492 
L 147.2428 87.045661 
L 148.87423 87.25178 
L 150.50566 85.946361 
L 152.13709 85.190592 
L 153.76852 83.95388 
L 155.39995 84.709649 
L 157.03138 82.579755 
L 158.66281 81.686574 
L 160.294239 79.694092 
L 161.925669 77.976436 
L 163.557099 78.182555 
L 165.188529 77.839024 
L 166.819959 78.388674 
L 168.451389 78.113849 
L 170.082819 76.602311 
L 171.714249 75.434305 
L 173.345678 75.915249 
L 174.977108 74.541124 
L 176.608538 73.991474 
L 178.239968 75.296893 
L 179.871398 74.472418 
L 183.134258 74.472418 
L 184.765688 74.747243 
L 186.397117 74.197593 
L 188.028547 72.823468 
L 189.659977 70.624868 
L 191.291407 69.11333 
L 192.922837 69.731686 
L 194.554267 68.769799 
L 196.185697 69.456861 
L 197.817127 70.281336 
L 199.448556 69.594274 
L 201.079986 66.91473 
L 202.711416 64.990955 
L 204.342846 66.021549 
L 207.605706 65.952843 
L 209.237136 63.685537 
L 210.868566 62.311412 
L 212.499995 61.693055 
L 214.131425 61.41823 
L 215.762855 60.799874 
L 217.394285 61.005993 
L 219.025715 60.044105 
L 220.657145 60.799874 
L 222.288575 58.876099 
L 223.920005 60.387637 
L 225.551434 61.624349 
L 227.182864 60.937287 
L 228.814294 59.425749 
L 232.077154 61.96788 
L 233.708584 63.822949 
L 235.340014 64.71613 
L 236.971444 64.235187 
L 238.602873 64.784837 
L 240.234303 62.173999 
L 241.865733 63.135887 
L 243.497163 63.822949 
L 245.128593 63.342005 
L 246.760023 61.761762 
L 248.391453 60.86858 
L 250.022883 61.486937 
L 251.654312 61.005993 
L 253.285742 61.899174 
L 254.917172 61.212112 
L 256.548602 62.036587 
L 258.180032 63.754243 
L 259.811462 63.135887 
L 261.442892 61.280818 
L 263.074322 60.181518 
L 264.705751 60.731168 
L 266.337181 60.387637 
L 267.968611 59.357043 
L 269.600041 59.425749 
L 271.231471 59.288337 
L 272.862901 58.257743 
L 274.494331 57.364562 
L 276.125761 57.982918 
L 277.75719 56.471381 
L 279.38862 55.165962 
L 281.02005 54.341487 
L 282.65148 54.822431 
L 284.28291 54.753724 
L 285.91434 57.433268 
L 287.54577 58.326449 
L 289.1772 59.975399 
L 290.80863 60.456343 
L 292.440059 60.525049 
L 294.071489 60.112812 
L 295.702919 59.425749 
L 297.334349 59.21963 
L 298.965779 57.914212 
L 300.597209 57.021031 
L 302.228639 56.333968 
L 305.491498 57.364562 
L 307.122928 58.463862 
L 308.754358 58.120331 
L 310.385788 57.295856 
L 312.017218 57.158443 
L 313.648648 57.295856 
L 315.280078 58.120331 
L 316.911508 57.776799 
L 318.542937 58.532568 
L 320.174367 58.944805 
L 321.805797 57.845506 
L 323.437227 58.738687 
L 326.700087 57.295856 
L 328.331517 57.021031 
L 329.962947 57.021031 
L 331.594376 57.776799 
L 333.225806 58.66998 
L 334.857236 58.66998 
L 336.488666 57.021031 
L 338.120096 55.165962 
L 341.382956 53.173481 
L 343.014386 54.204074 
L 344.645815 54.135368 
L 346.277245 54.272781 
L 347.908675 51.936768 
L 349.540105 50.631349 
L 351.171535 50.493937 
L 352.802965 51.455824 
L 354.434395 51.524531 
L 356.065825 51.868062 
L 357.697254 50.837468 
L 359.328684 51.043587 
L 360.960114 49.257225 
L 362.591544 50.700056 
L 364.222974 50.219112 
L 365.854404 49.325931 
L 367.485834 48.913693 
L 369.117264 48.913693 
L 370.748693 48.020512 
L 372.380123 48.501456 
L 375.642983 46.440268 
L 377.274413 46.096737 
L 378.905843 45.066143 
L 380.537273 45.890618 
L 380.537273 45.890618 
" clip-path="url(#p68637f4008)" style="fill: none; stroke: #2ca02c; stroke-width: 1.5; stroke-linecap: square"/>
   </g>
   <g id="line2d_21">
    <path d="M 55.882727 261.216 
L 57.514157 261.147294 
L 60.777017 260.391525 
L 62.408447 259.56705 
L 64.039877 258.330338 
L 65.671307 257.437156 
L 67.302736 256.406563 
L 68.934166 254.963731 
L 70.565596 253.246075 
L 72.197026 251.940657 
L 73.828456 250.429119 
L 75.459886 249.742057 
L 77.091316 248.848875 
L 78.722746 247.47475 
L 80.354175 246.581569 
L 81.985605 244.7265 
L 83.617035 243.146257 
L 85.248465 241.840838 
L 86.879895 239.504826 
L 88.511325 236.962694 
L 90.142755 234.901507 
L 93.405614 232.771613 
L 96.668474 229.198888 
L 99.931334 227.206407 
L 101.562764 225.969695 
L 104.825624 221.572495 
L 106.457053 220.267076 
L 108.088483 217.656239 
L 109.719913 216.35082 
L 111.351343 215.663757 
L 112.982773 213.327745 
L 114.614203 212.022326 
L 116.245633 209.75502 
L 117.877063 206.869358 
L 119.508492 206.182295 
L 121.139922 206.319708 
L 126.034212 201.785095 
L 127.665642 200.548383 
L 130.928502 196.563421 
L 137.454221 191.616571 
L 139.085651 190.173739 
L 140.717081 188.937027 
L 142.348511 189.624089 
L 143.979941 189.074439 
L 145.61137 189.555383 
L 147.2428 187.219371 
L 148.87423 184.402415 
L 152.13709 182.616052 
L 155.39995 181.173221 
L 157.03138 180.692277 
L 158.66281 179.73039 
L 160.294239 179.73039 
L 161.925669 180.486158 
L 163.557099 180.142627 
L 165.188529 180.005215 
L 166.819959 178.974621 
L 168.451389 179.455565 
L 170.082819 177.325671 
L 171.714249 176.98214 
L 173.345678 176.501196 
L 174.977108 175.745427 
L 176.608538 176.088959 
L 178.239968 174.920952 
L 179.871398 175.058365 
L 181.502828 172.241409 
L 183.134258 172.172702 
L 184.765688 170.455046 
L 186.397117 170.38634 
L 188.028547 170.523752 
L 189.659977 171.004696 
L 191.291407 171.210815 
L 192.922837 169.767984 
L 194.554267 169.699277 
L 196.185697 168.256446 
L 199.448556 166.263965 
L 201.079986 167.500678 
L 202.711416 168.050328 
L 204.342846 167.912915 
L 205.974276 167.294559 
L 207.605706 167.294559 
L 209.237136 168.943509 
L 210.868566 168.943509 
L 212.499995 167.844209 
L 214.131425 169.012215 
L 215.762855 170.317634 
L 219.025715 170.111515 
L 220.657145 168.325153 
L 222.288575 169.974102 
L 223.920005 168.599978 
L 225.551434 167.775503 
L 227.182864 168.325153 
L 228.814294 167.019734 
L 230.445724 166.263965 
L 232.077154 164.271484 
L 233.708584 163.034771 
L 235.340014 160.973584 
L 236.971444 159.805578 
L 238.602873 159.805578 
L 240.234303 161.660646 
L 243.497163 158.500159 
L 245.128593 159.39334 
L 246.760023 159.874284 
L 248.391453 160.217815 
L 250.022883 159.736872 
L 251.654312 159.736872 
L 253.285742 160.080403 
L 254.917172 160.561346 
L 256.548602 160.836171 
L 258.180032 160.904878 
L 259.811462 161.798059 
L 261.442892 164.34019 
L 263.074322 165.233371 
L 264.705751 163.927953 
L 266.337181 162.416415 
L 267.968611 164.683721 
L 269.600041 164.752428 
L 271.231471 164.202778 
L 272.862901 163.996659 
L 274.494331 165.302078 
L 276.125761 164.615015 
L 277.75719 164.34019 
L 279.38862 165.164665 
L 281.02005 166.126553 
L 282.65148 166.401378 
L 284.28291 165.302078 
L 285.91434 162.347709 
L 287.54577 160.561346 
L 289.1772 159.599459 
L 290.80863 159.599459 
L 292.440059 158.706278 
L 294.071489 158.019215 
L 295.702919 157.538272 
L 297.334349 157.881803 
L 298.965779 159.324634 
L 300.597209 161.660646 
L 307.122928 160.904878 
L 308.754358 161.317115 
L 310.385788 160.011696 
L 312.017218 160.49264 
L 313.648648 160.423934 
L 316.911508 156.576384 
L 318.542937 157.606978 
L 320.174367 157.74439 
L 321.805797 159.530753 
L 323.437227 159.324634 
L 325.068657 158.981103 
L 326.700087 156.851209 
L 328.331517 156.919915 
L 329.962947 156.370265 
L 331.594376 155.477084 
L 334.857236 155.54579 
L 336.488666 154.858728 
L 338.120096 156.851209 
L 339.751526 158.431453 
L 341.382956 159.187222 
L 343.014386 158.774984 
L 344.645815 158.568865 
L 346.277245 157.74439 
L 347.908675 158.29404 
L 349.540105 159.255928 
L 351.171535 159.805578 
L 352.802965 159.187222 
L 354.434395 158.019215 
L 356.065825 157.400859 
L 357.697254 157.057328 
L 359.328684 156.507678 
L 360.960114 157.675684 
L 362.591544 156.713797 
L 364.222974 157.881803 
L 365.854404 158.225334 
L 367.485834 157.74439 
L 369.117264 157.881803 
L 370.748693 157.332153 
L 372.380123 157.675684 
L 374.011553 156.370265 
L 375.642983 156.919915 
L 378.905843 157.74439 
L 380.537273 157.469565 
L 380.537273 157.469565 
" clip-path="url(#p68637f4008)" style="fill: none; stroke: #d62728; stroke-width: 1.5; stroke-linecap: square"/>
   </g>
   <g id="patch_3">
    <path d="M 39.65 273.312 
L 39.65 7.2 
" style="fill: none; stroke: #000000; stroke-width: 0.8; stroke-linejoin: miter; stroke-linecap: square"/>
   </g>
   <g id="patch_4">
    <path d="M 396.77 273.312 
L 396.77 7.2 
" style="fill: none; stroke: #000000; stroke-width: 0.8; stroke-linejoin: miter; stroke-linecap: square"/>
   </g>
   <g id="patch_5">
    <path d="M 39.65 273.312 
L 396.77 273.312 
" style="fill: none; stroke: #000000; stroke-width: 0.8; stroke-linejoin: miter; stroke-linecap: square"/>
   </g>
   <g id="patch_6">
    <path d="M 39.65 7.2 
L 396.77 7.2 
" style="fill: none; stroke: #000000; stroke-width: 0.8; stroke-linejoin: miter; stroke-linecap: square"/>
   </g>
  </g>
 </g>
 <defs>
  <clipPath id="p68637f4008">
   <rect x="39.65" y="7.2" width="357.12" height="266.112"/>
  </clipPath>
 </defs>
</svg>
