<?xml version="1.0" encoding="utf-8" standalone="no"?>
<!DOCTYPE svg PUBLIC "-//W3C//DTD SVG 1.1//EN"
  "http://www.w3.org/Graphics/SVG/1.1/DTD/svg11.dtd">
<svg xmlns:xlink="http://www.w3.org/1999/xlink" width="1439.223113pt" height="208.148437pt" viewBox="0 0 1439.223113 208.148437" xmlns="http://www.w3.org/2000/svg" version="1.1">
 <metadata>
  <rdf:RDF xmlns:dc="http://purl.org/dc/elements/1.1/" xmlns:cc="http://creativecommons.org/ns#" xmlns:rdf="http://www.w3.org/1999/02/22-rdf-syntax-ns#">
   <cc:Work>
    <dc:type rdf:resource="http://purl.org/dc/dcmitype/StillImage"/>
    <dc:date>2026-09-04T05:56:34.008178</dc:date>
    <dc:format>image/svg+xml</dc:format>
    <dc:creator>
     <cc:Agent>
      <dc:title>Matplotlib v3.11.1, https://matplotlib.org/</dc:title>
     </cc:Agent>
    </dc:creator>
   </cc:Work>
  </rdf:RDF>
 </metadata>
 <defs>
  <style type="text/css">*{stroke-linejoin: round; stroke-linecap: butt}</style>
 </defs>
 <g id="figure_1">
  <g id="patch_1">
   <path d="M 0 208.148437 
L 1439.223113 208.148437 
L 1439.223113 0 
L 0 0 
L 0 208.148437 
z
" style="fill: none; opacity: 0"/>
  </g>
  <g id="axes_1">
   <g id="patch_2">
    <path d="M 49.553906 161.442578 
L 1303.968031 161.442578 
L 1303.968031 17.200781 
L 49.553906 17.200781 
L 49.553906 161.442578 
z
" style="fill: none; opacity: 0"/>
   </g>
   <g id="PatchCollection_1">
    <path d="M 62.224756 161.442578 
L 125.579005 161.442578 
L 125.579005 101.617295 
L 62.224756 101.617295 
z
" clip-path="url(#p9ce9567950)" style="fill: #377eb8"/>
    <path d="M 201.604103 161.442578 
L 264.958352 161.442578 
L 264.958352 54.952133 
L 201.604103 54.952133 
z
" clip-path="url(#p9ce9567950)" style="fill: #377eb8"/>
    <path d="M 721.108943 161.442578 
L 784.463192 161.442578 
L 784.463192 139.904279 
L 721.108943 139.904279 
z
" clip-path="url(#p9ce9567950)" style="fill: #377eb8"/>
    <path d="M 860.48829 161.442578 
L 923.842539 161.442578 
L 923.842539 89.145313 
L 860.48829 89.145313 
z
" clip-path="url(#p9ce9567950)" style="fill: #377eb8"/>
    <path d="M 366.32515 161.442578 
L 429.679399 161.442578 
L 429.679399 118.127541 
L 366.32515 118.127541 
z
" clip-path="url(#p9ce9567950)" style="fill: #377eb8"/>
    <path d="M 505.704497 161.442578 
L 569.058746 161.442578 
L 569.058746 67.084993 
L 505.704497 67.084993 
z
" clip-path="url(#p9ce9567950)" style="fill: #377eb8"/>
    <path d="M 1025.209337 161.442578 
L 1088.563586 161.442578 
L 1088.563586 147.719302 
L 1025.209337 147.719302 
z
" clip-path="url(#p9ce9567950)" style="fill: #377eb8"/>
    <path d="M 1164.588684 161.442578 
L 1227.942933 161.442578 
L 1227.942933 124.470852 
L 1164.588684 124.470852 
z
" clip-path="url(#p9ce9567950)" style="fill: #377eb8"/>
   </g>
   <g id="PatchCollection_2">
    <path d="M 62.224756 101.617295 
L 125.579005 101.617295 
L 125.579005 90.943513 
L 62.224756 90.943513 
z
" clip-path="url(#p9ce9567950)" style="fill: #4daf4a"/>
    <path d="M 131.91443 104.064123 
L 195.268678 104.064123 
L 195.268678 93.390341 
L 131.91443 93.390341 
z
" clip-path="url(#p9ce9567950)" style="fill: #4daf4a"/>
    <path d="M 201.604103 54.952133 
L 264.958352 54.952133 
L 264.958352 35.019532 
L 201.604103 35.019532 
z
" clip-path="url(#p9ce9567950)" style="fill: #4daf4a"/>
    <path d="M 271.293777 44.60487 
L 334.648026 44.60487 
L 334.648026 24.672268 
L 271.293777 24.672268 
z
" clip-path="url(#p9ce9567950)" style="fill: #4daf4a"/>
    <path d="M 721.108943 139.904279 
L 784.463192 139.904279 
L 784.463192 138.224915 
L 721.108943 138.224915 
z
" clip-path="url(#p9ce9567950)" style="fill: #4daf4a"/>
    <path d="M 790.798616 140.673434 
L 854.152865 140.673434 
L 854.152865 138.99407 
L 790.798616 138.99407 
z
" clip-path="url(#p9ce9567950)" style="fill: #4daf4a"/>
    <path d="M 860.48829 89.145313 
L 923.842539 89.145313 
L 923.842539 76.524844 
L 860.48829 76.524844 
z
" clip-path="url(#p9ce9567950)" style="fill: #4daf4a"/>
    <path d="M 930.177964 75.534276 
L 993.532212 75.534276 
L 993.532212 62.913807 
L 930.177964 62.913807 
z
" clip-path="url(#p9ce9567950)" style="fill: #4daf4a"/>
    <path d="M 366.32515 118.127541 
L 429.679399 118.127541 
L 429.679399 106.072959 
L 366.32515 106.072959 
z
" clip-path="url(#p9ce9567950)" style="fill: #4daf4a"/>
    <path d="M 436.014824 102.741835 
L 499.369072 102.741835 
L 499.369072 90.687254 
L 436.014824 90.687254 
z
" clip-path="url(#p9ce9567950)" style="fill: #4daf4a"/>
    <path d="M 505.704497 67.084993 
L 569.058746 67.084993 
L 569.058746 43.14289 
L 505.704497 43.14289 
z
" clip-path="url(#p9ce9567950)" style="fill: #4daf4a"/>
    <path d="M 575.394171 48.011541 
L 638.74842 48.011541 
L 638.74842 24.069438 
L 575.394171 24.069438 
z
" clip-path="url(#p9ce9567950)" style="fill: #4daf4a"/>
    <path d="M 1025.209337 147.719302 
L 1088.563586 147.719302 
L 1088.563586 146.928066 
L 1025.209337 146.928066 
z
" clip-path="url(#p9ce9567950)" style="fill: #4daf4a"/>
    <path d="M 1094.89901 143.267439 
L 1158.253259 143.267439 
L 1158.253259 142.476203 
L 1094.89901 142.476203 
z
" clip-path="url(#p9ce9567950)" style="fill: #4daf4a"/>
    <path d="M 1164.588684 124.470852 
L 1227.942933 124.470852 
L 1227.942933 119.674347 
L 1164.588684 119.674347 
z
" clip-path="url(#p9ce9567950)" style="fill: #4daf4a"/>
    <path d="M 1234.278358 116.190454 
L 1297.632606 116.190454 
L 1297.632606 111.393949 
L 1234.278358 111.393949 
z
" clip-path="url(#p9ce9567950)" style="fill: #4daf4a"/>
   </g>
   <g id="PatchCollection_3">
    <path d="M 131.91443 161.442578 
L 195.268678 161.442578 
L 195.268678 104.064123 
L 131.91443 104.064123 
z
" clip-path="url(#p9ce9567950)" style="fill: #e41a1c"/>
    <path d="M 271.293777 161.442578 
L 334.648026 161.442578 
L 334.648026 44.60487 
L 271.293777 44.60487 
z
" clip-path="url(#p9ce9567950)" style="fill: #e41a1c"/>
    <path d="M 790.798616 161.442578 
L 854.152865 161.442578 
L 854.152865 140.673434 
L 790.798616 140.673434 
z
" clip-path="url(#p9ce9567950)" style="fill: #e41a1c"/>
    <path d="M 930.177964 161.442578 
L 993.532212 161.442578 
L 993.532212 75.534276 
L 930.177964 75.534276 
z
" clip-path="url(#p9ce9567950)" style="fill: #e41a1c"/>
    <path d="M 436.014824 161.442578 
L 499.369072 161.442578 
L 499.369072 102.741835 
L 436.014824 102.741835 
z
" clip-path="url(#p9ce9567950)" style="fill: #e41a1c"/>
    <path d="M 575.394171 161.442578 
L 638.74842 161.442578 
L 638.74842 48.011541 
L 575.394171 48.011541 
z
" clip-path="url(#p9ce9567950)" style="fill: #e41a1c"/>
    <path d="M 1094.89901 161.442578 
L 1158.253259 161.442578 
L 1158.253259 143.267439 
L 1094.89901 143.267439 
z
" clip-path="url(#p9ce9567950)" style="fill: #e41a1c"/>
    <path d="M 1234.278358 161.442578 
L 1297.632606 161.442578 
L 1297.632606 116.190454 
L 1234.278358 116.190454 
z
" clip-path="url(#p9ce9567950)" style="fill: #e41a1c"/>
   </g>
   <g id="matplotlib.axis_1">
    <g id="xtick_1">
     <g id="line2d_1">
      <defs>
       <path id="m77e5738767" d="M 0 0 
L 0 3.5 
" style="stroke: #000000; stroke-width: 0.8"/>
      </defs>
      <g>
       <use xlink:href="#m77e5738767" x="93.90188" y="161.442578" style="stroke: #000000; stroke-width: 0.8"/>
      </g>
     </g>
     <g id="text_1">
      <!-- 0-4 -->
      <g transform="translate(85.735474 176.040234) scale(0.1 -0.1)">
       <defs>
        <path id="DejaVuSans-13" d="M 2034 4250 
Q 1547 4250 1301 3770 
Q 1056 3291 1056 2328 
Q 1056 1369 1301 889 
Q 1547 409 2034 409 
Q 2525 409 2770 889 
Q 3016 1369 3016 2328 
Q 3016 3291 2770 3770 
Q 2525 4250 2034 4250 
z
M 2034 4750 
Q 2819 4750 3233 4129 
Q 3647 3509 3647 2328 
Q 3647 1150 3233 529 
Q 2819 -91 2034 -91 
Q 1250 -91 836 529 
Q 422 1150 422 2328 
Q 422 3509 836 4129 
Q 1250 4750 2034 4750 
z
" transform="scale(0.015625)"/>
        <path id="DejaVuSans-10" d="M 313 2009 
L 1997 2009 
L 1997 1497 
L 313 1497 
L 313 2009 
z
" transform="scale(0.015625)"/>
        <path id="DejaVuSans-17" d="M 2419 4116 
L 825 1625 
L 2419 1625 
L 2419 4116 
z
M 2253 4666 
L 3047 4666 
L 3047 1625 
L 3713 1625 
L 3713 1100 
L 3047 1100 
L 3047 0 
L 2419 0 
L 2419 1100 
L 313 1100 
L 313 1709 
L 2253 4666 
z
" transform="scale(0.015625)"/>
       </defs>
       <use xlink:href="#DejaVuSans-13"/>
       <use xlink:href="#DejaVuSans-10" transform="translate(63.625 0)"/>
       <use xlink:href="#DejaVuSans-17" transform="translate(99.703125 0)"/>
      </g>
     </g>
    </g>
    <g id="xtick_2">
     <g id="line2d_2">
      <g>
       <use xlink:href="#m77e5738767" x="163.591554" y="161.442578" style="stroke: #000000; stroke-width: 0.8"/>
      </g>
     </g>
     <g id="text_2">
      <!-- 0-4 -->
      <g transform="translate(155.425148 176.040234) scale(0.1 -0.1)">
       <use xlink:href="#DejaVuSans-13"/>
       <use xlink:href="#DejaVuSans-10" transform="translate(63.625 0)"/>
       <use xlink:href="#DejaVuSans-17" transform="translate(99.703125 0)"/>
      </g>
     </g>
    </g>
    <g id="xtick_3">
     <g id="line2d_3">
      <g>
       <use xlink:href="#m77e5738767" x="233.281228" y="161.442578" style="stroke: #000000; stroke-width: 0.8"/>
      </g>
     </g>
     <g id="text_3">
      <!-- 5-14 -->
      <g transform="translate(221.933571 176.040234) scale(0.1 -0.1)">
       <defs>
        <path id="DejaVuSans-18" d="M 691 4666 
L 3169 4666 
L 3169 4134 
L 1269 4134 
L 1269 2991 
Q 1406 3038 1543 3061 
Q 1681 3084 1819 3084 
Q 2600 3084 3056 2656 
Q 3513 2228 3513 1497 
Q 3513 744 3044 326 
Q 2575 -91 1722 -91 
Q 1428 -91 1123 -41 
Q 819 9 494 109 
L 494 744 
Q 775 591 1075 516 
Q 1375 441 1709 441 
Q 2250 441 2565 725 
Q 2881 1009 2881 1497 
Q 2881 1984 2565 2268 
Q 2250 2553 1709 2553 
Q 1456 2553 1204 2497 
Q 953 2441 691 2322 
L 691 4666 
z
" transform="scale(0.015625)"/>
        <path id="DejaVuSans-14" d="M 794 531 
L 1825 531 
L 1825 4091 
L 703 3866 
L 703 4441 
L 1819 4666 
L 2450 4666 
L 2450 531 
L 3481 531 
L 3481 0 
L 794 0 
L 794 531 
z
" transform="scale(0.015625)"/>
       </defs>
       <use xlink:href="#DejaVuSans-18"/>
       <use xlink:href="#DejaVuSans-10" transform="translate(63.625 0)"/>
       <use xlink:href="#DejaVuSans-14" transform="translate(99.703125 0)"/>
       <use xlink:href="#DejaVuSans-17" transform="translate(163.328125 0)"/>
      </g>
     </g>
    </g>
    <g id="xtick_4">
     <g id="line2d_4">
      <g>
       <use xlink:href="#m77e5738767" x="302.970901" y="161.442578" style="stroke: #000000; stroke-width: 0.8"/>
      </g>
     </g>
     <g id="text_4">
      <!-- 5-14 -->
      <g transform="translate(291.623245 176.040234) scale(0.1 -0.1)">
       <use xlink:href="#DejaVuSans-18"/>
       <use xlink:href="#DejaVuSans-10" transform="translate(63.625 0)"/>
       <use xlink:href="#DejaVuSans-14" transform="translate(99.703125 0)"/>
       <use xlink:href="#DejaVuSans-17" transform="translate(163.328125 0)"/>
      </g>
     </g>
    </g>
    <g id="xtick_5">
     <g id="line2d_5">
      <g>
       <use xlink:href="#m77e5738767" x="398.002274" y="161.442578" style="stroke: #000000; stroke-width: 0.8"/>
      </g>
     </g>
     <g id="text_5">
      <!-- 0-4 -->
      <g transform="translate(389.835868 176.040234) scale(0.1 -0.1)">
       <use xlink:href="#DejaVuSans-13"/>
       <use xlink:href="#DejaVuSans-10" transform="translate(63.625 0)"/>
       <use xlink:href="#DejaVuSans-17" transform="translate(99.703125 0)"/>
      </g>
     </g>
    </g>
    <g id="xtick_6">
     <g id="line2d_6">
      <g>
       <use xlink:href="#m77e5738767" x="467.691948" y="161.442578" style="stroke: #000000; stroke-width: 0.8"/>
      </g>
     </g>
     <g id="text_6">
      <!-- 0-4 -->
      <g transform="translate(459.525542 176.040234) scale(0.1 -0.1)">
       <use xlink:href="#DejaVuSans-13"/>
       <use xlink:href="#DejaVuSans-10" transform="translate(63.625 0)"/>
       <use xlink:href="#DejaVuSans-17" transform="translate(99.703125 0)"/>
      </g>
     </g>
    </g>
    <g id="xtick_7">
     <g id="line2d_7">
      <g>
       <use xlink:href="#m77e5738767" x="537.381622" y="161.442578" style="stroke: #000000; stroke-width: 0.8"/>
      </g>
     </g>
     <g id="text_7">
      <!-- 5-14 -->
      <g transform="translate(526.033965 176.040234) scale(0.1 -0.1)">
       <use xlink:href="#DejaVuSans-18"/>
       <use xlink:href="#DejaVuSans-10" transform="translate(63.625 0)"/>
       <use xlink:href="#DejaVuSans-14" transform="translate(99.703125 0)"/>
       <use xlink:href="#DejaVuSans-17" transform="translate(163.328125 0)"/>
      </g>
     </g>
    </g>
    <g id="xtick_8">
     <g id="line2d_8">
      <g>
       <use xlink:href="#m77e5738767" x="607.071295" y="161.442578" style="stroke: #000000; stroke-width: 0.8"/>
      </g>
     </g>
     <g id="text_8">
      <!-- 5-14 -->
      <g transform="translate(595.723639 176.040234) scale(0.1 -0.1)">
       <use xlink:href="#DejaVuSans-18"/>
       <use xlink:href="#DejaVuSans-10" transform="translate(63.625 0)"/>
       <use xlink:href="#DejaVuSans-14" transform="translate(99.703125 0)"/>
       <use xlink:href="#DejaVuSans-17" transform="translate(163.328125 0)"/>
      </g>
     </g>
    </g>
    <g id="xtick_9">
     <g id="line2d_9">
      <g>
       <use xlink:href="#m77e5738767" x="752.786067" y="161.442578" style="stroke: #000000; stroke-width: 0.8"/>
      </g>
     </g>
     <g id="text_9">
      <!-- 0-4 -->
      <g transform="translate(744.619661 176.040234) scale(0.1 -0.1)">
       <use xlink:href="#DejaVuSans-13"/>
       <use xlink:href="#DejaVuSans-10" transform="translate(63.625 0)"/>
       <use xlink:href="#DejaVuSans-17" transform="translate(99.703125 0)"/>
      </g>
     </g>
    </g>
    <g id="xtick_10">
     <g id="line2d_10">
      <g>
       <use xlink:href="#m77e5738767" x="822.475741" y="161.442578" style="stroke: #000000; stroke-width: 0.8"/>
      </g>
     </g>
     <g id="text_10">
      <!-- 0-4 -->
      <g transform="translate(814.309335 176.040234) scale(0.1 -0.1)">
       <use xlink:href="#DejaVuSans-13"/>
       <use xlink:href="#DejaVuSans-10" transform="translate(63.625 0)"/>
       <use xlink:href="#DejaVuSans-17" transform="translate(99.703125 0)"/>
      </g>
     </g>
    </g>
    <g id="xtick_11">
     <g id="line2d_11">
      <g>
       <use xlink:href="#m77e5738767" x="892.165414" y="161.442578" style="stroke: #000000; stroke-width: 0.8"/>
      </g>
     </g>
     <g id="text_11">
      <!-- 5-14 -->
      <g transform="translate(880.817758 176.040234) scale(0.1 -0.1)">
       <use xlink:href="#DejaVuSans-18"/>
       <use xlink:href="#DejaVuSans-10" transform="translate(63.625 0)"/>
       <use xlink:href="#DejaVuSans-14" transform="translate(99.703125 0)"/>
       <use xlink:href="#DejaVuSans-17" transform="translate(163.328125 0)"/>
      </g>
     </g>
    </g>
    <g id="xtick_12">
     <g id="line2d_12">
      <g>
       <use xlink:href="#m77e5738767" x="961.855088" y="161.442578" style="stroke: #000000; stroke-width: 0.8"/>
      </g>
     </g>
     <g id="text_12">
      <!-- 5-14 -->
      <g transform="translate(950.507432 176.040234) scale(0.1 -0.1)">
       <use xlink:href="#DejaVuSans-18"/>
       <use xlink:href="#DejaVuSans-10" transform="translate(63.625 0)"/>
       <use xlink:href="#DejaVuSans-14" transform="translate(99.703125 0)"/>
       <use xlink:href="#DejaVuSans-17" transform="translate(163.328125 0)"/>
      </g>
     </g>
    </g>
    <g id="xtick_13">
     <g id="line2d_13">
      <g>
       <use xlink:href="#m77e5738767" x="1056.886461" y="161.442578" style="stroke: #000000; stroke-width: 0.8"/>
      </g>
     </g>
     <g id="text_13">
      <!-- 0-4 -->
      <g transform="translate(1048.720055 176.040234) scale(0.1 -0.1)">
       <use xlink:href="#DejaVuSans-13"/>
       <use xlink:href="#DejaVuSans-10" transform="translate(63.625 0)"/>
       <use xlink:href="#DejaVuSans-17" transform="translate(99.703125 0)"/>
      </g>
     </g>
    </g>
    <g id="xtick_14">
     <g id="line2d_14">
      <g>
       <use xlink:href="#m77e5738767" x="1126.576135" y="161.442578" style="stroke: #000000; stroke-width: 0.8"/>
      </g>
     </g>
     <g id="text_14">
      <!-- 0-4 -->
      <g transform="translate(1118.409729 176.040234) scale(0.1 -0.1)">
       <use xlink:href="#DejaVuSans-13"/>
       <use xlink:href="#DejaVuSans-10" transform="translate(63.625 0)"/>
       <use xlink:href="#DejaVuSans-17" transform="translate(99.703125 0)"/>
      </g>
     </g>
    </g>
    <g id="xtick_15">
     <g id="line2d_15">
      <g>
       <use xlink:href="#m77e5738767" x="1196.265808" y="161.442578" style="stroke: #000000; stroke-width: 0.8"/>
      </g>
     </g>
     <g id="text_15">
      <!-- 5-14 -->
      <g transform="translate(1184.918152 176.040234) scale(0.1 -0.1)">
       <use xlink:href="#DejaVuSans-18"/>
       <use xlink:href="#DejaVuSans-10" transform="translate(63.625 0)"/>
       <use xlink:href="#DejaVuSans-14" transform="translate(99.703125 0)"/>
       <use xlink:href="#DejaVuSans-17" transform="translate(163.328125 0)"/>
      </g>
     </g>
    </g>
    <g id="xtick_16">
     <g id="line2d_16">
      <g>
       <use xlink:href="#m77e5738767" x="1265.955482" y="161.442578" style="stroke: #000000; stroke-width: 0.8"/>
      </g>
     </g>
     <g id="text_16">
      <!-- 5-14 -->
      <g transform="translate(1254.607826 176.040234) scale(0.1 -0.1)">
       <use xlink:href="#DejaVuSans-18"/>
       <use xlink:href="#DejaVuSans-10" transform="translate(63.625 0)"/>
       <use xlink:href="#DejaVuSans-14" transform="translate(99.703125 0)"/>
       <use xlink:href="#DejaVuSans-17" transform="translate(163.328125 0)"/>
      </g>
     </g>
    </g>
   </g>
   <g id="matplotlib.axis_2">
    <g id="ytick_1">
     <g id="line2d_17">
      <defs>
       <path id="m106ee24cc4" d="M 0 0 
L -3.5 0 
" style="stroke: #000000; stroke-width: 0.8"/>
      </defs>
      <g>
       <use xlink:href="#m106ee24cc4" x="49.553906" y="161.442578" style="stroke: #000000; stroke-width: 0.8"/>
      </g>
     </g>
     <g id="text_17">
      <!-- 0 -->
      <g transform="translate(36.191406 165.241406) scale(0.1 -0.1)">
       <use xlink:href="#DejaVuSans-13"/>
      </g>
     </g>
    </g>
    <g id="ytick_2">
     <g id="line2d_18">
      <g>
       <use xlink:href="#m106ee24cc4" x="49.553906" y="132.662876" style="stroke: #000000; stroke-width: 0.8"/>
      </g>
     </g>
     <g id="text_18">
      <!-- 5M -->
      <g transform="translate(27.563281 136.461704) scale(0.1 -0.1)">
       <defs>
        <path id="DejaVuSans-30" d="M 628 4666 
L 1569 4666 
L 2759 1491 
L 3956 4666 
L 4897 4666 
L 4897 0 
L 4281 0 
L 4281 4097 
L 3078 897 
L 2444 897 
L 1241 4097 
L 1241 0 
L 628 0 
L 628 4666 
z
" transform="scale(0.015625)"/>
       </defs>
       <use xlink:href="#DejaVuSans-18"/>
       <use xlink:href="#DejaVuSans-30" transform="translate(63.625 0)"/>
      </g>
     </g>
    </g>
    <g id="ytick_3">
     <g id="line2d_19">
      <g>
       <use xlink:href="#m106ee24cc4" x="49.553906" y="103.883174" style="stroke: #000000; stroke-width: 0.8"/>
      </g>
     </g>
     <g id="text_19">
      <!-- 10M -->
      <g transform="translate(21.200781 107.682003) scale(0.1 -0.1)">
       <use xlink:href="#DejaVuSans-14"/>
       <use xlink:href="#DejaVuSans-13" transform="translate(63.625 0)"/>
       <use xlink:href="#DejaVuSans-30" transform="translate(127.25 0)"/>
      </g>
     </g>
    </g>
    <g id="ytick_4">
     <g id="line2d_20">
      <g>
       <use xlink:href="#m106ee24cc4" x="49.553906" y="75.103473" style="stroke: #000000; stroke-width: 0.8"/>
      </g>
     </g>
     <g id="text_20">
      <!-- 15M -->
      <g transform="translate(21.200781 78.902301) scale(0.1 -0.1)">
       <use xlink:href="#DejaVuSans-14"/>
       <use xlink:href="#DejaVuSans-18" transform="translate(63.625 0)"/>
       <use xlink:href="#DejaVuSans-30" transform="translate(127.25 0)"/>
      </g>
     </g>
    </g>
    <g id="ytick_5">
     <g id="line2d_21">
      <g>
       <use xlink:href="#m106ee24cc4" x="49.553906" y="46.323771" style="stroke: #000000; stroke-width: 0.8"/>
      </g>
     </g>
     <g id="text_21">
      <!-- 20M -->
      <g transform="translate(21.200781 50.122599) scale(0.1 -0.1)">
       <defs>
        <path id="DejaVuSans-15" d="M 1228 531 
L 3431 531 
L 3431 0 
L 469 0 
L 469 531 
Q 828 903 1448 1529 
Q 2069 2156 2228 2338 
Q 2531 2678 2651 2914 
Q 2772 3150 2772 3378 
Q 2772 3750 2511 3984 
Q 2250 4219 1831 4219 
Q 1534 4219 1204 4116 
Q 875 4013 500 3803 
L 500 4441 
Q 881 4594 1212 4672 
Q 1544 4750 1819 4750 
Q 2544 4750 2975 4387 
Q 3406 4025 3406 3419 
Q 3406 3131 3298 2873 
Q 3191 2616 2906 2266 
Q 2828 2175 2409 1742 
Q 1991 1309 1228 531 
z
" transform="scale(0.015625)"/>
       </defs>
       <use xlink:href="#DejaVuSans-15"/>
       <use xlink:href="#DejaVuSans-13" transform="translate(63.625 0)"/>
       <use xlink:href="#DejaVuSans-30" transform="translate(127.25 0)"/>
      </g>
     </g>
    </g>
    <g id="ytick_6">
     <g id="line2d_22">
      <g>
       <use xlink:href="#m106ee24cc4" x="49.553906" y="17.544069" style="stroke: #000000; stroke-width: 0.8"/>
      </g>
     </g>
     <g id="text_22">
      <!-- 25M -->
      <g transform="translate(21.200781 21.342897) scale(0.1 -0.1)">
       <use xlink:href="#DejaVuSans-15"/>
       <use xlink:href="#DejaVuSans-18" transform="translate(63.625 0)"/>
       <use xlink:href="#DejaVuSans-30" transform="translate(127.25 0)"/>
      </g>
     </g>
    </g>
    <g id="text_23">
     <!-- Number of person-years -->
     <g transform="translate(14.798438 150.020898) rotate(-90) scale(0.1 -0.1)">
      <defs>
       <path id="DejaVuSans-31" d="M 628 4666 
L 1478 4666 
L 3547 763 
L 3547 4666 
L 4159 4666 
L 4159 0 
L 3309 0 
L 1241 3903 
L 1241 0 
L 628 0 
L 628 4666 
z
" transform="scale(0.015625)"/>
       <path id="DejaVuSans-58" d="M 544 1381 
L 544 3500 
L 1119 3500 
L 1119 1403 
Q 1119 906 1312 657 
Q 1506 409 1894 409 
Q 2359 409 2629 706 
Q 2900 1003 2900 1516 
L 2900 3500 
L 3475 3500 
L 3475 0 
L 2900 0 
L 2900 538 
Q 2691 219 2414 64 
Q 2138 -91 1772 -91 
Q 1169 -91 856 284 
Q 544 659 544 1381 
z
M 1991 3584 
L 1991 3584 
z
" transform="scale(0.015625)"/>
       <path id="DejaVuSans-50" d="M 3328 2828 
Q 3544 3216 3844 3400 
Q 4144 3584 4550 3584 
Q 5097 3584 5394 3201 
Q 5691 2819 5691 2113 
L 5691 0 
L 5113 0 
L 5113 2094 
Q 5113 2597 4934 2840 
Q 4756 3084 4391 3084 
Q 3944 3084 3684 2787 
Q 3425 2491 3425 1978 
L 3425 0 
L 2847 0 
L 2847 2094 
Q 2847 2600 2669 2842 
Q 2491 3084 2119 3084 
Q 1678 3084 1418 2786 
Q 1159 2488 1159 1978 
L 1159 0 
L 581 0 
L 581 3500 
L 1159 3500 
L 1159 2956 
Q 1356 3278 1631 3431 
Q 1906 3584 2284 3584 
Q 2666 3584 2933 3390 
Q 3200 3197 3328 2828 
z
" transform="scale(0.015625)"/>
       <path id="DejaVuSans-45" d="M 3116 1747 
Q 3116 2381 2855 2742 
Q 2594 3103 2138 3103 
Q 1681 3103 1420 2742 
Q 1159 2381 1159 1747 
Q 1159 1113 1420 752 
Q 1681 391 2138 391 
Q 2594 391 2855 752 
Q 3116 1113 3116 1747 
z
M 1159 2969 
Q 1341 3281 1617 3432 
Q 1894 3584 2278 3584 
Q 2916 3584 3314 3078 
Q 3713 2572 3713 1747 
Q 3713 922 3314 415 
Q 2916 -91 2278 -91 
Q 1894 -91 1617 61 
Q 1341 213 1159 525 
L 1159 0 
L 581 0 
L 581 4863 
L 1159 4863 
L 1159 2969 
z
" transform="scale(0.015625)"/>
       <path id="DejaVuSans-48" d="M 3597 1894 
L 3597 1613 
L 953 1613 
Q 991 1019 1311 708 
Q 1631 397 2203 397 
Q 2534 397 2845 478 
Q 3156 559 3463 722 
L 3463 178 
Q 3153 47 2828 -22 
Q 2503 -91 2169 -91 
Q 1331 -91 842 396 
Q 353 884 353 1716 
Q 353 2575 817 3079 
Q 1281 3584 2069 3584 
Q 2775 3584 3186 3129 
Q 3597 2675 3597 1894 
z
M 3022 2063 
Q 3016 2534 2758 2815 
Q 2500 3097 2075 3097 
Q 1594 3097 1305 2825 
Q 1016 2553 972 2059 
L 3022 2063 
z
" transform="scale(0.015625)"/>
       <path id="DejaVuSans-55" d="M 2631 2963 
Q 2534 3019 2420 3045 
Q 2306 3072 2169 3072 
Q 1681 3072 1420 2755 
Q 1159 2438 1159 1844 
L 1159 0 
L 581 0 
L 581 3500 
L 1159 3500 
L 1159 2956 
Q 1341 3275 1631 3429 
Q 1922 3584 2338 3584 
Q 2397 3584 2469 3576 
Q 2541 3569 2628 3553 
L 2631 2963 
z
" transform="scale(0.015625)"/>
       <path id="DejaVuSans-3" transform="scale(0.015625)"/>
       <path id="DejaVuSans-52" d="M 1959 3097 
Q 1497 3097 1228 2736 
Q 959 2375 959 1747 
Q 959 1119 1226 758 
Q 1494 397 1959 397 
Q 2419 397 2687 759 
Q 2956 1122 2956 1747 
Q 2956 2369 2687 2733 
Q 2419 3097 1959 3097 
z
M 1959 3584 
Q 2709 3584 3137 3096 
Q 3566 2609 3566 1747 
Q 3566 888 3137 398 
Q 2709 -91 1959 -91 
Q 1206 -91 779 398 
Q 353 888 353 1747 
Q 353 2609 779 3096 
Q 1206 3584 1959 3584 
z
" transform="scale(0.015625)"/>
       <path id="DejaVuSans-49" d="M 2375 4863 
L 2375 4384 
L 1825 4384 
Q 1516 4384 1395 4259 
Q 1275 4134 1275 3809 
L 1275 3500 
L 2222 3500 
L 2222 3053 
L 1275 3053 
L 1275 0 
L 697 0 
L 697 3053 
L 147 3053 
L 147 3500 
L 697 3500 
L 697 3744 
Q 697 4328 969 4595 
Q 1241 4863 1831 4863 
L 2375 4863 
z
" transform="scale(0.015625)"/>
       <path id="DejaVuSans-53" d="M 1159 525 
L 1159 -1331 
L 581 -1331 
L 581 3500 
L 1159 3500 
L 1159 2969 
Q 1341 3281 1617 3432 
Q 1894 3584 2278 3584 
Q 2916 3584 3314 3078 
Q 3713 2572 3713 1747 
Q 3713 922 3314 415 
Q 2916 -91 2278 -91 
Q 1894 -91 1617 61 
Q 1341 213 1159 525 
z
M 3116 1747 
Q 3116 2381 2855 2742 
Q 2594 3103 2138 3103 
Q 1681 3103 1420 2742 
Q 1159 2381 1159 1747 
Q 1159 1113 1420 752 
Q 1681 391 2138 391 
Q 2594 391 2855 752 
Q 3116 1113 3116 1747 
z
" transform="scale(0.015625)"/>
       <path id="DejaVuSans-56" d="M 2834 3397 
L 2834 2853 
Q 2591 2978 2328 3040 
Q 2066 3103 1784 3103 
Q 1356 3103 1142 2972 
Q 928 2841 928 2578 
Q 928 2378 1081 2264 
Q 1234 2150 1697 2047 
L 1894 2003 
Q 2506 1872 2764 1633 
Q 3022 1394 3022 966 
Q 3022 478 2636 193 
Q 2250 -91 1575 -91 
Q 1294 -91 989 -36 
Q 684 19 347 128 
L 347 722 
Q 666 556 975 473 
Q 1284 391 1588 391 
Q 1994 391 2212 530 
Q 2431 669 2431 922 
Q 2431 1156 2273 1281 
Q 2116 1406 1581 1522 
L 1381 1569 
Q 847 1681 609 1914 
Q 372 2147 372 2553 
Q 372 3047 722 3315 
Q 1072 3584 1716 3584 
Q 2034 3584 2315 3537 
Q 2597 3491 2834 3397 
z
" transform="scale(0.015625)"/>
       <path id="DejaVuSans-51" d="M 3513 2113 
L 3513 0 
L 2938 0 
L 2938 2094 
Q 2938 2591 2744 2837 
Q 2550 3084 2163 3084 
Q 1697 3084 1428 2787 
Q 1159 2491 1159 1978 
L 1159 0 
L 581 0 
L 581 3500 
L 1159 3500 
L 1159 2956 
Q 1366 3272 1645 3428 
Q 1925 3584 2291 3584 
Q 2894 3584 3203 3211 
Q 3513 2838 3513 2113 
z
" transform="scale(0.015625)"/>
       <path id="DejaVuSans-5c" d="M 2059 -325 
Q 1816 -950 1584 -1140 
Q 1353 -1331 966 -1331 
L 506 -1331 
L 506 -850 
L 844 -850 
Q 1081 -850 1212 -737 
Q 1344 -625 1503 -206 
L 1606 56 
L 191 3500 
L 800 3500 
L 1894 763 
L 2988 3500 
L 3597 3500 
L 2059 -325 
z
" transform="scale(0.015625)"/>
       <path id="DejaVuSans-44" d="M 2194 1759 
Q 1497 1759 1228 1600 
Q 959 1441 959 1056 
Q 959 750 1161 570 
Q 1363 391 1709 391 
Q 2188 391 2477 730 
Q 2766 1069 2766 1631 
L 2766 1759 
L 2194 1759 
z
M 3341 1997 
L 3341 0 
L 2766 0 
L 2766 531 
Q 2569 213 2275 61 
Q 1981 -91 1556 -91 
Q 1019 -91 701 211 
Q 384 513 384 1019 
Q 384 1609 779 1909 
Q 1175 2209 1959 2209 
L 2766 2209 
L 2766 2266 
Q 2766 2663 2505 2880 
Q 2244 3097 1772 3097 
Q 1472 3097 1187 3025 
Q 903 2953 641 2809 
L 641 3341 
Q 956 3463 1253 3523 
Q 1550 3584 1831 3584 
Q 2591 3584 2966 3190 
Q 3341 2797 3341 1997 
z
" transform="scale(0.015625)"/>
      </defs>
      <use xlink:href="#DejaVuSans-31"/>
      <use xlink:href="#DejaVuSans-58" transform="translate(74.8125 0)"/>
      <use xlink:href="#DejaVuSans-50" transform="translate(138.1875 0)"/>
      <use xlink:href="#DejaVuSans-45" transform="translate(235.59375 0)"/>
      <use xlink:href="#DejaVuSans-48" transform="translate(299.078125 0)"/>
      <use xlink:href="#DejaVuSans-55" transform="translate(360.609375 0)"/>
      <use xlink:href="#DejaVuSans-3" transform="translate(401.71875 0)"/>
      <use xlink:href="#DejaVuSans-52" transform="translate(433.5 0)"/>
      <use xlink:href="#DejaVuSans-49" transform="translate(494.6875 0)"/>
      <use xlink:href="#DejaVuSans-3" transform="translate(529.890625 0)"/>
      <use xlink:href="#DejaVuSans-53" transform="translate(561.671875 0)"/>
      <use xlink:href="#DejaVuSans-48" transform="translate(625.15625 0)"/>
      <use xlink:href="#DejaVuSans-55" transform="translate(686.6875 0)"/>
      <use xlink:href="#DejaVuSans-56" transform="translate(727.796875 0)"/>
      <use xlink:href="#DejaVuSans-52" transform="translate(779.890625 0)"/>
      <use xlink:href="#DejaVuSans-51" transform="translate(841.078125 0)"/>
      <use xlink:href="#DejaVuSans-10" transform="translate(904.453125 0)"/>
      <use xlink:href="#DejaVuSans-5c" transform="translate(938.78125 0)"/>
      <use xlink:href="#DejaVuSans-48" transform="translate(997.96875 0)"/>
      <use xlink:href="#DejaVuSans-44" transform="translate(1059.5 0)"/>
      <use xlink:href="#DejaVuSans-55" transform="translate(1120.78125 0)"/>
      <use xlink:href="#DejaVuSans-56" transform="translate(1161.890625 0)"/>
     </g>
    </g>
   </g>
   <g id="patch_3">
    <path d="M 49.553906 161.442578 
L 49.553906 17.200781 
" style="fill: none; stroke: #000000; stroke-width: 0.8; stroke-linejoin: miter; stroke-linecap: square"/>
   </g>
   <g id="patch_4">
    <path d="M 1303.968031 161.442578 
L 1303.968031 17.200781 
" style="fill: none"/>
   </g>
   <g id="patch_5">
    <path d="M 49.553906 161.442578 
L 1303.968031 161.442578 
" style="fill: none; stroke: #000000; stroke-width: 0.8; stroke-linejoin: miter; stroke-linecap: square"/>
   </g>
   <g id="patch_6">
    <path d="M 49.553906 17.200781 
L 1303.968031 17.200781 
" style="fill: none"/>
   </g>
   <g id="text_24">
    <!-- Baseline -->
    <g transform="translate(332.455081 14.798438) scale(0.1 -0.1)">
     <defs>
      <path id="DejaVuSans-25" d="M 1259 2228 
L 1259 519 
L 2272 519 
Q 2781 519 3026 730 
Q 3272 941 3272 1375 
Q 3272 1813 3026 2020 
Q 2781 2228 2272 2228 
L 1259 2228 
z
M 1259 4147 
L 1259 2741 
L 2194 2741 
Q 2656 2741 2882 2914 
Q 3109 3088 3109 3444 
Q 3109 3797 2882 3972 
Q 2656 4147 2194 4147 
L 1259 4147 
z
M 628 4666 
L 2241 4666 
Q 2963 4666 3353 4366 
Q 3744 4066 3744 3513 
Q 3744 3084 3544 2831 
Q 3344 2578 2956 2516 
Q 3422 2416 3680 2098 
Q 3938 1781 3938 1306 
Q 3938 681 3513 340 
Q 3088 0 2303 0 
L 628 0 
L 628 4666 
z
" transform="scale(0.015625)"/>
      <path id="DejaVuSans-4f" d="M 603 4863 
L 1178 4863 
L 1178 0 
L 603 0 
L 603 4863 
z
" transform="scale(0.015625)"/>
      <path id="DejaVuSans-4c" d="M 603 3500 
L 1178 3500 
L 1178 0 
L 603 0 
L 603 3500 
z
M 603 4863 
L 1178 4863 
L 1178 4134 
L 603 4134 
L 603 4863 
z
" transform="scale(0.015625)"/>
     </defs>
     <use xlink:href="#DejaVuSans-25"/>
     <use xlink:href="#DejaVuSans-44" transform="translate(68.609375 0)"/>
     <use xlink:href="#DejaVuSans-56" transform="translate(129.890625 0)"/>
     <use xlink:href="#DejaVuSans-48" transform="translate(181.984375 0)"/>
     <use xlink:href="#DejaVuSans-4f" transform="translate(243.515625 0)"/>
     <use xlink:href="#DejaVuSans-4c" transform="translate(271.296875 0)"/>
     <use xlink:href="#DejaVuSans-51" transform="translate(299.078125 0)"/>
     <use xlink:href="#DejaVuSans-48" transform="translate(362.453125 0)"/>
    </g>
   </g>
   <g id="text_25">
    <!-- Scenario -->
    <g transform="translate(990.801768 14.798438) scale(0.1 -0.1)">
     <defs>
      <path id="DejaVuSans-36" d="M 3425 4513 
L 3425 3897 
Q 3066 4069 2747 4153 
Q 2428 4238 2131 4238 
Q 1616 4238 1336 4038 
Q 1056 3838 1056 3469 
Q 1056 3159 1242 3001 
Q 1428 2844 1947 2747 
L 2328 2669 
Q 3034 2534 3370 2195 
Q 3706 1856 3706 1288 
Q 3706 609 3251 259 
Q 2797 -91 1919 -91 
Q 1588 -91 1214 -16 
Q 841 59 441 206 
L 441 856 
Q 825 641 1194 531 
Q 1563 422 1919 422 
Q 2459 422 2753 634 
Q 3047 847 3047 1241 
Q 3047 1584 2836 1778 
Q 2625 1972 2144 2069 
L 1759 2144 
Q 1053 2284 737 2584 
Q 422 2884 422 3419 
Q 422 4038 858 4394 
Q 1294 4750 2059 4750 
Q 2388 4750 2728 4690 
Q 3069 4631 3425 4513 
z
" transform="scale(0.015625)"/>
      <path id="DejaVuSans-46" d="M 3122 3366 
L 3122 2828 
Q 2878 2963 2633 3030 
Q 2388 3097 2138 3097 
Q 1578 3097 1268 2742 
Q 959 2388 959 1747 
Q 959 1106 1268 751 
Q 1578 397 2138 397 
Q 2388 397 2633 464 
Q 2878 531 3122 666 
L 3122 134 
Q 2881 22 2623 -34 
Q 2366 -91 2075 -91 
Q 1284 -91 818 406 
Q 353 903 353 1747 
Q 353 2603 823 3093 
Q 1294 3584 2113 3584 
Q 2378 3584 2631 3529 
Q 2884 3475 3122 3366 
z
" transform="scale(0.015625)"/>
     </defs>
     <use xlink:href="#DejaVuSans-36"/>
     <use xlink:href="#DejaVuSans-46" transform="translate(63.484375 0)"/>
     <use xlink:href="#DejaVuSans-48" transform="translate(118.46875 0)"/>
     <use xlink:href="#DejaVuSans-51" transform="translate(180 0)"/>
     <use xlink:href="#DejaVuSans-44" transform="translate(243.375 0)"/>
     <use xlink:href="#DejaVuSans-55" transform="translate(304.65625 0)"/>
     <use xlink:href="#DejaVuSans-4c" transform="translate(345.765625 0)"/>
     <use xlink:href="#DejaVuSans-52" transform="translate(373.546875 0)"/>
    </g>
   </g>
   <g id="legend_1">
    <g id="patch_7">
     <path d="M 1373.688738 113.322852 
L 1430.023113 113.322852 
Q 1432.023113 113.322852 1432.023113 111.322852 
L 1432.023113 67.320508 
Q 1432.023113 65.320508 1430.023113 65.320508 
L 1373.688738 65.320508 
Q 1371.688738 65.320508 1371.688738 67.320508 
L 1371.688738 111.322852 
Q 1371.688738 113.322852 1373.688738 113.322852 
L 1373.688738 113.322852 
z
" style="fill: none; opacity: 0"/>
    </g>
    <g id="patch_8">
     <path d="M 1375.688738 76.918945 
L 1395.688738 76.918945 
L 1395.688738 69.918945 
L 1375.688738 69.918945 
z
" style="fill: #e41a1c"/>
    </g>
    <g id="text_26">
     <!-- vac -->
     <g transform="translate(1403.688738 76.918945) scale(0.1 -0.1)">
      <defs>
       <path id="DejaVuSans-59" d="M 191 3500 
L 800 3500 
L 1894 563 
L 2988 3500 
L 3597 3500 
L 2284 0 
L 1503 0 
L 191 3500 
z
" transform="scale(0.015625)"/>
      </defs>
      <use xlink:href="#DejaVuSans-59"/>
      <use xlink:href="#DejaVuSans-44" transform="translate(59.1875 0)"/>
      <use xlink:href="#DejaVuSans-46" transform="translate(120.46875 0)"/>
     </g>
    </g>
    <g id="patch_9">
     <path d="M 1375.688738 91.919727 
L 1395.688738 91.919727 
L 1395.688738 84.919727 
L 1375.688738 84.919727 
z
" style="fill: #4daf4a"/>
    </g>
    <g id="text_27">
     <!-- lt_inf -->
     <g transform="translate(1403.688738 91.919727) scale(0.1 -0.1)">
      <defs>
       <path id="DejaVuSans-57" d="M 1172 4494 
L 1172 3500 
L 2356 3500 
L 2356 3053 
L 1172 3053 
L 1172 1153 
Q 1172 725 1289 603 
Q 1406 481 1766 481 
L 2356 481 
L 2356 0 
L 1766 0 
Q 1100 0 847 248 
Q 594 497 594 1153 
L 594 3053 
L 172 3053 
L 172 3500 
L 594 3500 
L 594 4494 
L 1172 4494 
z
" transform="scale(0.015625)"/>
       <path id="DejaVuSans-42" d="M 3263 -1063 
L 3263 -1509 
L -63 -1509 
L -63 -1063 
L 3263 -1063 
z
" transform="scale(0.015625)"/>
      </defs>
      <use xlink:href="#DejaVuSans-4f"/>
      <use xlink:href="#DejaVuSans-57" transform="translate(27.78125 0)"/>
      <use xlink:href="#DejaVuSans-42" transform="translate(66.984375 0)"/>
      <use xlink:href="#DejaVuSans-4c" transform="translate(116.984375 0)"/>
      <use xlink:href="#DejaVuSans-51" transform="translate(144.765625 0)"/>
      <use xlink:href="#DejaVuSans-49" transform="translate(208.140625 0)"/>
     </g>
    </g>
    <g id="patch_10">
     <path d="M 1375.688738 106.920508 
L 1395.688738 106.920508 
L 1395.688738 99.920508 
L 1375.688738 99.920508 
z
" style="fill: #377eb8"/>
    </g>
    <g id="text_28">
     <!-- sus -->
     <g transform="translate(1403.688738 106.920508) scale(0.1 -0.1)">
      <use xlink:href="#DejaVuSans-56"/>
      <use xlink:href="#DejaVuSans-58" transform="translate(52.09375 0)"/>
      <use xlink:href="#DejaVuSans-56" transform="translate(115.46875 0)"/>
     </g>
    </g>
   </g>
  </g>
  <g id="axes_2">
   <g id="matplotlib.axis_3">
    <g id="xtick_17">
     <g id="line2d_23"/>
     <g id="text_29">
      <!--  -->
      <g transform="translate(201.604103 173.541211) scale(0.1 -0.1)"/>
      <!--  -->
      <g transform="translate(201.604103 185.543164) scale(0.1 -0.1)"/>
      <!-- 2000-2015 -->
      <g transform="translate(174.350197 197.545117) scale(0.1 -0.1)">
       <use xlink:href="#DejaVuSans-15"/>
       <use xlink:href="#DejaVuSans-13" transform="translate(63.625 0)"/>
       <use xlink:href="#DejaVuSans-13" transform="translate(127.25 0)"/>
       <use xlink:href="#DejaVuSans-13" transform="translate(190.875 0)"/>
       <use xlink:href="#DejaVuSans-10" transform="translate(254.5 0)"/>
       <use xlink:href="#DejaVuSans-15" transform="translate(290.578125 0)"/>
       <use xlink:href="#DejaVuSans-13" transform="translate(354.203125 0)"/>
       <use xlink:href="#DejaVuSans-14" transform="translate(417.828125 0)"/>
       <use xlink:href="#DejaVuSans-18" transform="translate(481.453125 0)"/>
      </g>
     </g>
    </g>
    <g id="xtick_18">
     <g id="line2d_24"/>
     <g id="text_30">
      <!--  -->
      <g transform="translate(860.48829 173.541211) scale(0.1 -0.1)"/>
      <!--  -->
      <g transform="translate(860.48829 185.543164) scale(0.1 -0.1)"/>
      <!-- 2000-2015 -->
      <g transform="translate(833.234384 197.545117) scale(0.1 -0.1)">
       <use xlink:href="#DejaVuSans-15"/>
       <use xlink:href="#DejaVuSans-13" transform="translate(63.625 0)"/>
       <use xlink:href="#DejaVuSans-13" transform="translate(127.25 0)"/>
       <use xlink:href="#DejaVuSans-13" transform="translate(190.875 0)"/>
       <use xlink:href="#DejaVuSans-10" transform="translate(254.5 0)"/>
       <use xlink:href="#DejaVuSans-15" transform="translate(290.578125 0)"/>
       <use xlink:href="#DejaVuSans-13" transform="translate(354.203125 0)"/>
       <use xlink:href="#DejaVuSans-14" transform="translate(417.828125 0)"/>
       <use xlink:href="#DejaVuSans-18" transform="translate(481.453125 0)"/>
      </g>
     </g>
    </g>
    <g id="xtick_19">
     <g id="line2d_25"/>
     <g id="text_31">
      <!--  -->
      <g transform="translate(505.704497 173.541211) scale(0.1 -0.1)"/>
      <!--  -->
      <g transform="translate(505.704497 185.543164) scale(0.1 -0.1)"/>
      <!-- 2015-2030 -->
      <g transform="translate(478.450591 197.545117) scale(0.1 -0.1)">
       <defs>
        <path id="DejaVuSans-16" d="M 2597 2516 
Q 3050 2419 3304 2112 
Q 3559 1806 3559 1356 
Q 3559 666 3084 287 
Q 2609 -91 1734 -91 
Q 1441 -91 1130 -33 
Q 819 25 488 141 
L 488 750 
Q 750 597 1062 519 
Q 1375 441 1716 441 
Q 2309 441 2620 675 
Q 2931 909 2931 1356 
Q 2931 1769 2642 2001 
Q 2353 2234 1838 2234 
L 1294 2234 
L 1294 2753 
L 1863 2753 
Q 2328 2753 2575 2939 
Q 2822 3125 2822 3475 
Q 2822 3834 2567 4026 
Q 2313 4219 1838 4219 
Q 1578 4219 1281 4162 
Q 984 4106 628 3988 
L 628 4550 
Q 988 4650 1302 4700 
Q 1616 4750 1894 4750 
Q 2613 4750 3031 4423 
Q 3450 4097 3450 3541 
Q 3450 3153 3228 2886 
Q 3006 2619 2597 2516 
z
" transform="scale(0.015625)"/>
       </defs>
       <use xlink:href="#DejaVuSans-15"/>
       <use xlink:href="#DejaVuSans-13" transform="translate(63.625 0)"/>
       <use xlink:href="#DejaVuSans-14" transform="translate(127.25 0)"/>
       <use xlink:href="#DejaVuSans-18" transform="translate(190.875 0)"/>
       <use xlink:href="#DejaVuSans-10" transform="translate(254.5 0)"/>
       <use xlink:href="#DejaVuSans-15" transform="translate(290.578125 0)"/>
       <use xlink:href="#DejaVuSans-13" transform="translate(354.203125 0)"/>
       <use xlink:href="#DejaVuSans-16" transform="translate(417.828125 0)"/>
       <use xlink:href="#DejaVuSans-13" transform="translate(481.453125 0)"/>
      </g>
     </g>
    </g>
    <g id="xtick_20">
     <g id="line2d_26"/>
     <g id="text_32">
      <!--  -->
      <g transform="translate(1164.588684 173.541211) scale(0.1 -0.1)"/>
      <!--  -->
      <g transform="translate(1164.588684 185.543164) scale(0.1 -0.1)"/>
      <!-- 2015-2030 -->
      <g transform="translate(1137.334778 197.545117) scale(0.1 -0.1)">
       <use xlink:href="#DejaVuSans-15"/>
       <use xlink:href="#DejaVuSans-13" transform="translate(63.625 0)"/>
       <use xlink:href="#DejaVuSans-14" transform="translate(127.25 0)"/>
       <use xlink:href="#DejaVuSans-18" transform="translate(190.875 0)"/>
       <use xlink:href="#DejaVuSans-10" transform="translate(254.5 0)"/>
       <use xlink:href="#DejaVuSans-15" transform="translate(290.578125 0)"/>
       <use xlink:href="#DejaVuSans-13" transform="translate(354.203125 0)"/>
       <use xlink:href="#DejaVuSans-16" transform="translate(417.828125 0)"/>
       <use xlink:href="#DejaVuSans-13" transform="translate(481.453125 0)"/>
      </g>
     </g>
    </g>
   </g>
  </g>
 </g>
 <defs>
  <clipPath id="p9ce9567950">
   <rect x="49.553906" y="17.200781" width="1254.414125" height="144.241797"/>
  </clipPath>
 </defs>
</svg>
