<?xml version="1.0" encoding="utf-8" standalone="no"?>
<!DOCTYPE svg PUBLIC "-//W3C//DTD SVG 1.1//EN"
  "http://www.w3.org/Graphics/SVG/1.1/DTD/svg11.dtd">
<svg xmlns:xlink="http://www.w3.org/1999/xlink" width="403.97pt" height="297.190125pt" viewBox="0 0 403.97 297.190125" xmlns="http://www.w3.org/2000/svg" version="1.1">
 <metadata>
  <rdf:RDF xmlns:dc="http://purl.org/dc/elements/1.1/" xmlns:cc="http://creativecommons.org/ns#" xmlns:rdf="http://www.w3.org/1999/02/22-rdf-syntax-ns#">
   <cc:Work>
    <dc:type rdf:resource="http://purl.org/dc/dcmitype/StillImage"/>
    <dc:date>2026-05-21T21:20:17.761703</dc:date>
    <dc:format>image/svg+xml</dc:format>
    <dc:creator>
     <cc:Agent>
      <dc:title>Matplotlib v3.10.9, https://matplotlib.org/</dc:title>
     </cc:Agent>
    </dc:creator>
   </cc:Work>
  </rdf:RDF>
 </metadata>
 <defs>
  <style type="text/css">*{stroke-linejoin: round; stroke-linecap: butt}</style>
 </defs>
 <g id="figure_1">
  <g id="patch_1">
   <path d="M 0 297.190125 
L 403.97 297.190125 
L 403.97 0 
L 0 0 
z
" style="fill: #ffffff"/>
  </g>
  <g id="axes_1">
   <g id="patch_2">
    <path d="M 39.65 273.312 
L 396.77 273.312 
L 396.77 7.2 
L 39.65 7.2 
z
" style="fill: #ffffff"/>
   </g>
   <g id="matplotlib.axis_1">
    <g id="xtick_1">
     <g id="line2d_1">
      <defs>
       <path id="m95e686a4b8" d="M 0 0 
L 0 3.5 
" style="stroke: #000000; stroke-width: 0.8"/>
      </defs>
      <g>
       <use xlink:href="#m95e686a4b8" x="55.882727" y="273.312" style="stroke: #000000; stroke-width: 0.8"/>
      </g>
     </g>
     <g id="text_1">
      <!-- 0.0 -->
      <g transform="translate(47.931165 287.910437) scale(0.1 -0.1)">
       <defs>
        <path id="DejaVuSans-30" d="M 2034 4250 
Q 1547 4250 1301 3770 
Q 1056 3291 1056 2328 
Q 1056 1369 1301 889 
Q 1547 409 2034 409 
Q 2525 409 2770 889 
Q 3016 1369 3016 2328 
Q 3016 3291 2770 3770 
Q 2525 4250 2034 4250 
z
M 2034 4750 
Q 2819 4750 3233 4129 
Q 3647 3509 3647 2328 
Q 3647 1150 3233 529 
Q 2819 -91 2034 -91 
Q 1250 -91 836 529 
Q 422 1150 422 2328 
Q 422 3509 836 4129 
Q 1250 4750 2034 4750 
z
" transform="scale(0.015625)"/>
        <path id="DejaVuSans-2e" d="M 684 794 
L 1344 794 
L 1344 0 
L 684 0 
L 684 794 
z
" transform="scale(0.015625)"/>
       </defs>
       <use xlink:href="#DejaVuSans-30"/>
       <use xlink:href="#DejaVuSans-2e" transform="translate(63.623047 0)"/>
       <use xlink:href="#DejaVuSans-30" transform="translate(95.410156 0)"/>
      </g>
     </g>
    </g>
    <g id="xtick_2">
     <g id="line2d_2">
      <g>
       <use xlink:href="#m95e686a4b8" x="96.668474" y="273.312" style="stroke: #000000; stroke-width: 0.8"/>
      </g>
     </g>
     <g id="text_2">
      <!-- 2.5 -->
      <g transform="translate(88.716912 287.910437) scale(0.1 -0.1)">
       <defs>
        <path id="DejaVuSans-32" d="M 1228 531 
L 3431 531 
L 3431 0 
L 469 0 
L 469 531 
Q 828 903 1448 1529 
Q 2069 2156 2228 2338 
Q 2531 2678 2651 2914 
Q 2772 3150 2772 3378 
Q 2772 3750 2511 3984 
Q 2250 4219 1831 4219 
Q 1534 4219 1204 4116 
Q 875 4013 500 3803 
L 500 4441 
Q 881 4594 1212 4672 
Q 1544 4750 1819 4750 
Q 2544 4750 2975 4387 
Q 3406 4025 3406 3419 
Q 3406 3131 3298 2873 
Q 3191 2616 2906 2266 
Q 2828 2175 2409 1742 
Q 1991 1309 1228 531 
z
" transform="scale(0.015625)"/>
        <path id="DejaVuSans-35" d="M 691 4666 
L 3169 4666 
L 3169 4134 
L 1269 4134 
L 1269 2991 
Q 1406 3038 1543 3061 
Q 1681 3084 1819 3084 
Q 2600 3084 3056 2656 
Q 3513 2228 3513 1497 
Q 3513 744 3044 326 
Q 2575 -91 1722 -91 
Q 1428 -91 1123 -41 
Q 819 9 494 109 
L 494 744 
Q 775 591 1075 516 
Q 1375 441 1709 441 
Q 2250 441 2565 725 
Q 2881 1009 2881 1497 
Q 2881 1984 2565 2268 
Q 2250 2553 1709 2553 
Q 1456 2553 1204 2497 
Q 953 2441 691 2322 
L 691 4666 
z
" transform="scale(0.015625)"/>
       </defs>
       <use xlink:href="#DejaVuSans-32"/>
       <use xlink:href="#DejaVuSans-2e" transform="translate(63.623047 0)"/>
       <use xlink:href="#DejaVuSans-35" transform="translate(95.410156 0)"/>
      </g>
     </g>
    </g>
    <g id="xtick_3">
     <g id="line2d_3">
      <g>
       <use xlink:href="#m95e686a4b8" x="137.454221" y="273.312" style="stroke: #000000; stroke-width: 0.8"/>
      </g>
     </g>
     <g id="text_3">
      <!-- 5.0 -->
      <g transform="translate(129.502659 287.910437) scale(0.1 -0.1)">
       <use xlink:href="#DejaVuSans-35"/>
       <use xlink:href="#DejaVuSans-2e" transform="translate(63.623047 0)"/>
       <use xlink:href="#DejaVuSans-30" transform="translate(95.410156 0)"/>
      </g>
     </g>
    </g>
    <g id="xtick_4">
     <g id="line2d_4">
      <g>
       <use xlink:href="#m95e686a4b8" x="178.239968" y="273.312" style="stroke: #000000; stroke-width: 0.8"/>
      </g>
     </g>
     <g id="text_4">
      <!-- 7.5 -->
      <g transform="translate(170.288406 287.910437) scale(0.1 -0.1)">
       <defs>
        <path id="DejaVuSans-37" d="M 525 4666 
L 3525 4666 
L 3525 4397 
L 1831 0 
L 1172 0 
L 2766 4134 
L 525 4134 
L 525 4666 
z
" transform="scale(0.015625)"/>
       </defs>
       <use xlink:href="#DejaVuSans-37"/>
       <use xlink:href="#DejaVuSans-2e" transform="translate(63.623047 0)"/>
       <use xlink:href="#DejaVuSans-35" transform="translate(95.410156 0)"/>
      </g>
     </g>
    </g>
    <g id="xtick_5">
     <g id="line2d_5">
      <g>
       <use xlink:href="#m95e686a4b8" x="219.025715" y="273.312" style="stroke: #000000; stroke-width: 0.8"/>
      </g>
     </g>
     <g id="text_5">
      <!-- 10.0 -->
      <g transform="translate(207.892902 287.910437) scale(0.1 -0.1)">
       <defs>
        <path id="DejaVuSans-31" d="M 794 531 
L 1825 531 
L 1825 4091 
L 703 3866 
L 703 4441 
L 1819 4666 
L 2450 4666 
L 2450 531 
L 3481 531 
L 3481 0 
L 794 0 
L 794 531 
z
" transform="scale(0.015625)"/>
       </defs>
       <use xlink:href="#DejaVuSans-31"/>
       <use xlink:href="#DejaVuSans-30" transform="translate(63.623047 0)"/>
       <use xlink:href="#DejaVuSans-2e" transform="translate(127.246094 0)"/>
       <use xlink:href="#DejaVuSans-30" transform="translate(159.033203 0)"/>
      </g>
     </g>
    </g>
    <g id="xtick_6">
     <g id="line2d_6">
      <g>
       <use xlink:href="#m95e686a4b8" x="259.811462" y="273.312" style="stroke: #000000; stroke-width: 0.8"/>
      </g>
     </g>
     <g id="text_6">
      <!-- 12.5 -->
      <g transform="translate(248.678649 287.910437) scale(0.1 -0.1)">
       <use xlink:href="#DejaVuSans-31"/>
       <use xlink:href="#DejaVuSans-32" transform="translate(63.623047 0)"/>
       <use xlink:href="#DejaVuSans-2e" transform="translate(127.246094 0)"/>
       <use xlink:href="#DejaVuSans-35" transform="translate(159.033203 0)"/>
      </g>
     </g>
    </g>
    <g id="xtick_7">
     <g id="line2d_7">
      <g>
       <use xlink:href="#m95e686a4b8" x="300.597209" y="273.312" style="stroke: #000000; stroke-width: 0.8"/>
      </g>
     </g>
     <g id="text_7">
      <!-- 15.0 -->
      <g transform="translate(289.464396 287.910437) scale(0.1 -0.1)">
       <use xlink:href="#DejaVuSans-31"/>
       <use xlink:href="#DejaVuSans-35" transform="translate(63.623047 0)"/>
       <use xlink:href="#DejaVuSans-2e" transform="translate(127.246094 0)"/>
       <use xlink:href="#DejaVuSans-30" transform="translate(159.033203 0)"/>
      </g>
     </g>
    </g>
    <g id="xtick_8">
     <g id="line2d_8">
      <g>
       <use xlink:href="#m95e686a4b8" x="341.382956" y="273.312" style="stroke: #000000; stroke-width: 0.8"/>
      </g>
     </g>
     <g id="text_8">
      <!-- 17.5 -->
      <g transform="translate(330.250143 287.910437) scale(0.1 -0.1)">
       <use xlink:href="#DejaVuSans-31"/>
       <use xlink:href="#DejaVuSans-37" transform="translate(63.623047 0)"/>
       <use xlink:href="#DejaVuSans-2e" transform="translate(127.246094 0)"/>
       <use xlink:href="#DejaVuSans-35" transform="translate(159.033203 0)"/>
      </g>
     </g>
    </g>
    <g id="xtick_9">
     <g id="line2d_9">
      <g>
       <use xlink:href="#m95e686a4b8" x="382.168703" y="273.312" style="stroke: #000000; stroke-width: 0.8"/>
      </g>
     </g>
     <g id="text_9">
      <!-- 20.0 -->
      <g transform="translate(371.03589 287.910437) scale(0.1 -0.1)">
       <use xlink:href="#DejaVuSans-32"/>
       <use xlink:href="#DejaVuSans-30" transform="translate(63.623047 0)"/>
       <use xlink:href="#DejaVuSans-2e" transform="translate(127.246094 0)"/>
       <use xlink:href="#DejaVuSans-30" transform="translate(159.033203 0)"/>
      </g>
     </g>
    </g>
   </g>
   <g id="matplotlib.axis_2">
    <g id="ytick_1">
     <g id="line2d_10">
      <defs>
       <path id="m0fc7783050" d="M 0 0 
L -3.5 0 
" style="stroke: #000000; stroke-width: 0.8"/>
      </defs>
      <g>
       <use xlink:href="#m0fc7783050" x="39.65" y="261.216" style="stroke: #000000; stroke-width: 0.8"/>
      </g>
     </g>
     <g id="text_10">
      <!-- 0 -->
      <g transform="translate(26.2875 265.015219) scale(0.1 -0.1)">
       <use xlink:href="#DejaVuSans-30"/>
      </g>
     </g>
    </g>
    <g id="ytick_2">
     <g id="line2d_11">
      <g>
       <use xlink:href="#m0fc7783050" x="39.65" y="222.455389" style="stroke: #000000; stroke-width: 0.8"/>
      </g>
     </g>
     <g id="text_11">
      <!-- 500 -->
      <g transform="translate(13.5625 226.254608) scale(0.1 -0.1)">
       <use xlink:href="#DejaVuSans-35"/>
       <use xlink:href="#DejaVuSans-30" transform="translate(63.623047 0)"/>
       <use xlink:href="#DejaVuSans-30" transform="translate(127.246094 0)"/>
      </g>
     </g>
    </g>
    <g id="ytick_3">
     <g id="line2d_12">
      <g>
       <use xlink:href="#m0fc7783050" x="39.65" y="183.694778" style="stroke: #000000; stroke-width: 0.8"/>
      </g>
     </g>
     <g id="text_12">
      <!-- 1000 -->
      <g transform="translate(7.2 187.493997) scale(0.1 -0.1)">
       <use xlink:href="#DejaVuSans-31"/>
       <use xlink:href="#DejaVuSans-30" transform="translate(63.623047 0)"/>
       <use xlink:href="#DejaVuSans-30" transform="translate(127.246094 0)"/>
       <use xlink:href="#DejaVuSans-30" transform="translate(190.869141 0)"/>
      </g>
     </g>
    </g>
    <g id="ytick_4">
     <g id="line2d_13">
      <g>
       <use xlink:href="#m0fc7783050" x="39.65" y="144.934168" style="stroke: #000000; stroke-width: 0.8"/>
      </g>
     </g>
     <g id="text_13">
      <!-- 1500 -->
      <g transform="translate(7.2 148.733386) scale(0.1 -0.1)">
       <use xlink:href="#DejaVuSans-31"/>
       <use xlink:href="#DejaVuSans-35" transform="translate(63.623047 0)"/>
       <use xlink:href="#DejaVuSans-30" transform="translate(127.246094 0)"/>
       <use xlink:href="#DejaVuSans-30" transform="translate(190.869141 0)"/>
      </g>
     </g>
    </g>
    <g id="ytick_5">
     <g id="line2d_14">
      <g>
       <use xlink:href="#m0fc7783050" x="39.65" y="106.173557" style="stroke: #000000; stroke-width: 0.8"/>
      </g>
     </g>
     <g id="text_14">
      <!-- 2000 -->
      <g transform="translate(7.2 109.972776) scale(0.1 -0.1)">
       <use xlink:href="#DejaVuSans-32"/>
       <use xlink:href="#DejaVuSans-30" transform="translate(63.623047 0)"/>
       <use xlink:href="#DejaVuSans-30" transform="translate(127.246094 0)"/>
       <use xlink:href="#DejaVuSans-30" transform="translate(190.869141 0)"/>
      </g>
     </g>
    </g>
    <g id="ytick_6">
     <g id="line2d_15">
      <g>
       <use xlink:href="#m0fc7783050" x="39.65" y="67.412946" style="stroke: #000000; stroke-width: 0.8"/>
      </g>
     </g>
     <g id="text_15">
      <!-- 2500 -->
      <g transform="translate(7.2 71.212165) scale(0.1 -0.1)">
       <use xlink:href="#DejaVuSans-32"/>
       <use xlink:href="#DejaVuSans-35" transform="translate(63.623047 0)"/>
       <use xlink:href="#DejaVuSans-30" transform="translate(127.246094 0)"/>
       <use xlink:href="#DejaVuSans-30" transform="translate(190.869141 0)"/>
      </g>
     </g>
    </g>
    <g id="ytick_7">
     <g id="line2d_16">
      <g>
       <use xlink:href="#m0fc7783050" x="39.65" y="28.652335" style="stroke: #000000; stroke-width: 0.8"/>
      </g>
     </g>
     <g id="text_16">
      <!-- 3000 -->
      <g transform="translate(7.2 32.451554) scale(0.1 -0.1)">
       <defs>
        <path id="DejaVuSans-33" d="M 2597 2516 
Q 3050 2419 3304 2112 
Q 3559 1806 3559 1356 
Q 3559 666 3084 287 
Q 2609 -91 1734 -91 
Q 1441 -91 1130 -33 
Q 819 25 488 141 
L 488 750 
Q 750 597 1062 519 
Q 1375 441 1716 441 
Q 2309 441 2620 675 
Q 2931 909 2931 1356 
Q 2931 1769 2642 2001 
Q 2353 2234 1838 2234 
L 1294 2234 
L 1294 2753 
L 1863 2753 
Q 2328 2753 2575 2939 
Q 2822 3125 2822 3475 
Q 2822 3834 2567 4026 
Q 2313 4219 1838 4219 
Q 1578 4219 1281 4162 
Q 984 4106 628 3988 
L 628 4550 
Q 988 4650 1302 4700 
Q 1616 4750 1894 4750 
Q 2613 4750 3031 4423 
Q 3450 4097 3450 3541 
Q 3450 3153 3228 2886 
Q 3006 2619 2597 2516 
z
" transform="scale(0.015625)"/>
       </defs>
       <use xlink:href="#DejaVuSans-33"/>
       <use xlink:href="#DejaVuSans-30" transform="translate(63.623047 0)"/>
       <use xlink:href="#DejaVuSans-30" transform="translate(127.246094 0)"/>
       <use xlink:href="#DejaVuSans-30" transform="translate(190.869141 0)"/>
      </g>
     </g>
    </g>
   </g>
   <g id="line2d_17">
    <path d="M 55.882727 261.216 
L 59.961302 241.835695 
L 64.039877 224.005814 
L 68.118451 207.602323 
L 72.197026 192.511112 
L 76.275601 178.627198 
L 80.354175 165.853996 
L 84.43275 154.102651 
L 88.511325 143.291414 
L 92.589899 133.345075 
L 96.668474 124.194444 
L 100.747049 115.775863 
L 104.825624 108.030769 
L 108.904198 100.905282 
L 112.982773 94.349834 
L 117.061348 88.318822 
L 121.139922 82.770291 
L 125.218497 77.665642 
L 129.297072 72.969365 
L 133.375646 68.648791 
L 137.454221 64.673862 
L 141.532796 61.016928 
L 145.61137 57.652548 
L 149.689945 54.557319 
L 153.76852 51.709708 
L 157.847095 49.089906 
L 161.925669 46.679688 
L 166.004244 44.462288 
L 170.082819 42.422279 
L 174.161393 40.545471 
L 178.239968 38.818808 
L 182.318543 37.230278 
L 186.397117 35.768831 
L 190.475692 34.424299 
L 194.554267 33.187329 
L 198.632841 32.049318 
L 202.711416 31.002347 
L 206.789991 30.039134 
L 210.868566 29.152978 
L 214.94714 28.337714 
L 219.025715 27.587672 
L 223.10429 26.897632 
L 227.182864 26.262796 
L 231.261439 25.678747 
L 235.340014 25.141422 
L 239.418588 24.647083 
L 243.497163 24.192291 
L 247.575738 23.773882 
L 251.654312 23.388946 
L 255.732887 23.034805 
L 259.811462 22.708995 
L 263.890037 22.40925 
L 267.968611 22.133485 
L 272.047186 21.879781 
L 276.125761 21.646373 
L 280.204335 21.431638 
L 284.28291 21.234081 
L 288.361485 21.052329 
L 292.440059 20.885118 
L 296.518634 20.731283 
L 300.597209 20.589755 
L 304.675783 20.459549 
L 308.754358 20.33976 
L 312.832933 20.229554 
L 316.911508 20.128164 
L 320.990082 20.034885 
L 325.068657 19.949069 
L 329.147232 19.870118 
L 333.225806 19.797483 
L 337.304381 19.730659 
L 341.382956 19.669181 
L 345.46153 19.612621 
L 349.540105 19.560586 
L 353.61868 19.512714 
L 357.697254 19.468671 
L 361.775829 19.428152 
L 365.854404 19.390875 
L 369.932979 19.356579 
L 374.011553 19.325028 
L 378.090128 19.296 
" clip-path="url(#p5aa2311d59)" style="fill: none; stroke: #1f77b4; stroke-width: 1.5; stroke-linecap: square"/>
   </g>
   <g id="line2d_18">
    <path d="M 55.882727 261.216 
L 59.961302 261.216 
L 64.039877 259.665576 
L 68.118451 256.926751 
L 72.197026 253.296056 
L 76.275601 249.015377 
L 80.354175 244.281068 
L 84.43275 239.25162 
L 88.511325 234.054084 
L 92.589899 228.789472 
L 96.668474 223.53727 
L 100.747049 218.35923 
L 104.825624 213.302533 
L 108.904198 208.402432 
L 112.982773 203.684457 
L 117.061348 199.166256 
L 121.139922 194.859117 
L 125.218497 190.769242 
L 129.297072 186.898791 
L 133.375646 183.246752 
L 137.454221 179.809654 
L 141.532796 176.582157 
L 145.61137 173.557526 
L 149.689945 170.728026 
L 153.76852 168.085235 
L 157.847095 165.620304 
L 161.925669 163.324156 
L 166.004244 161.187649 
L 170.082819 159.201704 
L 174.161393 157.357401 
L 178.239968 155.646054 
L 182.318543 154.059265 
L 186.397117 152.588966 
L 190.475692 151.227442 
L 194.554267 149.96735 
L 198.632841 148.801724 
L 202.711416 147.723981 
L 206.789991 146.727913 
L 210.868566 145.807685 
L 214.94714 144.95782 
L 219.025715 144.173188 
L 223.10429 143.448993 
L 227.182864 142.780759 
L 231.261439 142.164312 
L 235.340014 141.595766 
L 239.418588 141.071506 
L 243.497163 140.588172 
L 247.575738 140.142647 
L 251.654312 139.732037 
L 255.732887 139.353661 
L 259.811462 139.005035 
L 263.890037 138.683858 
L 267.968611 138.388001 
L 272.047186 138.115498 
L 276.125761 137.864528 
L 280.204335 137.633408 
L 284.28291 137.420587 
L 288.361485 137.22463 
L 292.440059 137.044211 
L 296.518634 136.87811 
L 300.597209 136.725199 
L 304.675783 136.584437 
L 308.754358 136.454866 
L 312.832933 136.335601 
L 316.911508 136.225826 
L 320.990082 136.124791 
L 325.068657 136.031803 
L 329.147232 135.946222 
L 333.225806 135.867463 
L 337.304381 135.794982 
L 341.382956 135.728281 
L 345.46153 135.6669 
L 349.540105 135.610417 
L 353.61868 135.558441 
L 357.697254 135.510613 
L 361.775829 135.466604 
L 365.854404 135.426108 
L 369.932979 135.388847 
L 374.011553 135.354561 
L 378.090128 135.323014 
" clip-path="url(#p5aa2311d59)" style="fill: none; stroke: #ff7f0e; stroke-width: 1.5; stroke-linecap: square"/>
   </g>
   <g id="line2d_19">
    <path d="M 55.882727 261.216 
L 57.514157 251.990975 
L 60.777017 238.037155 
L 62.408447 229.354778 
L 64.039877 221.680177 
L 68.934166 202.532435 
L 70.565596 197.803641 
L 72.197026 191.291858 
L 73.828456 185.632809 
L 75.459886 181.136578 
L 77.091316 175.710093 
L 78.722746 171.834032 
L 80.354175 168.57814 
L 81.985605 164.547037 
L 83.617035 159.973285 
L 85.248465 156.174745 
L 88.511325 146.407071 
L 90.142755 143.383743 
L 91.774185 137.802215 
L 93.405614 132.918378 
L 95.037044 130.51522 
L 96.668474 127.026765 
L 98.299904 122.530535 
L 101.562764 115.786188 
L 104.825624 112.762861 
L 106.457053 110.20466 
L 109.719913 107.02629 
L 111.351343 102.142453 
L 114.614203 97.646222 
L 116.245633 95.010501 
L 117.877063 94.157768 
L 119.508492 91.909652 
L 121.139922 89.428973 
L 122.771352 87.878549 
L 126.034212 83.382318 
L 127.665642 82.839669 
L 129.297072 81.211724 
L 130.928502 79.351214 
L 132.559931 78.576002 
L 134.191361 75.94028 
L 135.822791 73.924729 
L 137.454221 73.071995 
L 139.085651 71.133965 
L 140.717081 69.738583 
L 142.348511 68.653286 
L 143.979941 65.087309 
L 145.61137 64.699703 
L 147.2428 61.366291 
L 148.87423 59.893388 
L 150.50566 60.436036 
L 153.76852 58.187921 
L 155.39995 54.234338 
L 157.03138 53.381605 
L 158.66281 52.838956 
L 160.294239 53.226563 
L 161.925669 53.07152 
L 163.557099 54.621945 
L 165.188529 52.683914 
L 166.819959 51.676138 
L 168.451389 52.218787 
L 170.082819 50.435799 
L 171.714249 50.900926 
L 173.345678 49.660586 
L 174.977108 50.435799 
L 176.608538 49.117938 
L 178.239968 48.497768 
L 179.871398 46.404695 
L 181.502828 44.931792 
L 183.134258 44.234101 
L 184.765688 42.993761 
L 186.397117 42.761198 
L 189.659977 42.063507 
L 191.291407 41.830943 
L 192.922837 41.443337 
L 194.554267 40.590603 
L 197.817127 38.187446 
L 199.448556 38.652573 
L 201.079986 37.334712 
L 202.711416 37.17967 
L 204.342846 36.714542 
L 205.974276 36.714542 
L 209.237136 37.412233 
L 210.868566 36.404457 
L 212.499995 37.567276 
L 215.762855 34.156342 
L 217.394285 33.536172 
L 219.025715 33.226087 
L 220.657145 34.233863 
L 222.288575 33.691215 
L 223.920005 34.0013 
L 225.551434 33.768736 
L 227.182864 34.698991 
L 228.814294 34.543948 
L 232.077154 32.916002 
L 233.708584 32.295833 
L 235.340014 32.528396 
L 236.971444 33.38113 
L 238.602873 35.396682 
L 240.234303 34.931554 
L 243.497163 32.838481 
L 245.128593 31.288057 
L 246.760023 31.675663 
L 248.391453 30.822929 
L 250.022883 30.745408 
L 251.654312 31.598142 
L 253.285742 32.063269 
L 254.917172 34.233863 
L 258.180032 33.691215 
L 259.811462 34.233863 
L 261.442892 33.458651 
L 263.074322 32.993524 
L 264.705751 31.753184 
L 266.337181 32.373354 
L 267.968611 30.977972 
L 271.231471 29.660111 
L 272.862901 29.58259 
L 274.494331 31.52062 
L 276.125761 30.900451 
L 277.75719 30.900451 
L 279.38862 30.590366 
L 281.02005 29.427547 
L 282.65148 29.505069 
L 284.28291 27.877123 
L 285.91434 30.125238 
L 287.54577 31.598142 
L 289.1772 32.063269 
L 290.80863 31.52062 
L 292.440059 29.892675 
L 294.071489 28.729857 
L 298.965779 29.427547 
L 300.597209 29.117463 
L 302.228639 28.34225 
L 305.491498 28.264729 
L 307.122928 28.187208 
L 308.754358 28.497293 
L 310.385788 30.280281 
L 312.017218 29.427547 
L 313.648648 29.892675 
L 315.280078 30.900451 
L 316.911508 31.288057 
L 318.542937 31.830705 
L 320.174367 31.598142 
L 321.805797 31.133014 
L 323.437227 31.985748 
L 325.068657 31.443099 
L 326.700087 31.365578 
L 328.331517 30.900451 
L 329.962947 32.373354 
L 331.594376 31.133014 
L 333.225806 31.365578 
L 334.857236 33.846257 
L 336.488666 33.846257 
L 339.751526 33.38113 
L 341.382956 33.613693 
L 343.014386 33.303609 
L 344.645815 32.14079 
L 346.277245 32.218311 
L 347.908675 32.528396 
L 349.540105 32.605918 
L 351.171535 32.838481 
L 352.802965 35.474203 
L 354.434395 34.854033 
L 356.065825 33.691215 
L 357.697254 33.536172 
L 359.328684 32.916002 
L 360.960114 36.404457 
L 362.591544 36.481979 
L 364.222974 36.404457 
L 365.854404 35.31916 
L 367.485834 35.31916 
L 369.117264 35.474203 
L 370.748693 35.93933 
L 372.380123 34.466427 
L 374.011553 35.086597 
L 377.274413 35.009075 
L 378.905843 34.466427 
L 380.537273 33.613693 
L 380.537273 33.613693 
" clip-path="url(#p5aa2311d59)" style="fill: none; stroke: #2ca02c; stroke-width: 1.5; stroke-linecap: square"/>
   </g>
   <g id="line2d_20">
    <path d="M 55.882727 261.216 
L 59.145587 260.285745 
L 60.777017 260.208224 
L 62.408447 259.510533 
L 64.039877 258.03763 
L 65.671307 257.572503 
L 67.302736 256.177121 
L 72.197026 251.448326 
L 73.828456 249.975423 
L 75.459886 247.572265 
L 77.091316 246.331925 
L 78.722746 243.618683 
L 80.354175 241.835695 
L 83.617035 237.494506 
L 85.248465 235.944082 
L 86.879895 234.5487 
L 88.511325 232.920754 
L 90.142755 231.060245 
L 91.774185 229.974948 
L 93.405614 228.502044 
L 96.668474 224.548462 
L 98.299904 223.15308 
L 99.931334 220.749922 
L 101.562764 220.129753 
L 103.194194 217.261467 
L 104.825624 214.780788 
L 106.457053 212.610194 
L 108.088483 211.214812 
L 109.719913 207.571315 
L 111.351343 206.951145 
L 112.982773 204.315423 
L 114.614203 202.920041 
L 116.245633 201.834744 
L 121.139922 196.718344 
L 122.771352 193.539974 
L 124.402782 193.695016 
L 126.034212 191.834507 
L 127.665642 190.981773 
L 129.297072 190.671688 
L 130.928502 190.206561 
L 132.559931 188.578615 
L 134.191361 189.973997 
L 135.822791 188.268531 
L 137.454221 184.857597 
L 139.085651 183.539736 
L 140.717081 180.981536 
L 142.348511 179.818717 
L 143.979941 179.663675 
L 145.61137 178.345814 
L 148.87423 177.958208 
L 150.50566 176.872911 
L 152.13709 176.097699 
L 153.76852 175.477529 
L 155.39995 177.105475 
L 157.03138 175.787614 
L 158.66281 175.167444 
L 160.294239 173.849583 
L 161.925669 173.384456 
L 163.557099 171.058819 
L 165.188529 169.740959 
L 166.819959 169.740959 
L 168.451389 167.647886 
L 170.082819 167.492843 
L 171.714249 165.632334 
L 173.345678 165.709855 
L 174.977108 163.616782 
L 176.608538 163.074133 
L 178.239968 162.2214 
L 179.871398 161.911315 
L 181.502828 162.919091 
L 184.765688 160.28337 
L 186.397117 158.035254 
L 188.028547 156.949957 
L 189.659977 156.794915 
L 191.291407 157.027478 
L 192.922837 156.252266 
L 194.554267 155.166969 
L 197.817127 157.725169 
L 199.448556 157.80269 
L 201.079986 156.872436 
L 204.342846 155.24449 
L 205.974276 154.856884 
L 207.605706 154.701842 
L 209.237136 153.30646 
L 210.868566 153.073896 
L 212.499995 151.44595 
L 214.131425 150.980823 
L 215.762855 150.903302 
L 217.394285 151.290908 
L 219.025715 150.128089 
L 220.657145 149.662962 
L 222.288575 150.593217 
L 223.920005 149.662962 
L 225.551434 148.112538 
L 227.182864 147.259804 
L 230.445724 147.259804 
L 232.077154 146.32955 
L 233.708584 145.631859 
L 235.340014 145.244253 
L 236.971444 145.554337 
L 238.602873 144.701604 
L 240.234303 144.391519 
L 241.865733 145.011689 
L 243.497163 145.399295 
L 245.128593 143.461264 
L 246.760023 143.693828 
L 248.391453 143.461264 
L 250.022883 142.608531 
L 251.654312 141.91084 
L 254.917172 143.073658 
L 256.548602 144.158955 
L 258.180032 143.461264 
L 259.811462 144.003913 
L 261.442892 144.236477 
L 263.074322 145.864422 
L 264.705751 147.879974 
L 266.337181 147.569889 
L 267.968611 149.352877 
L 269.600041 149.275356 
L 271.231471 149.740483 
L 272.862901 148.965271 
L 274.494331 148.577665 
L 276.125761 149.740483 
L 277.75719 149.585441 
L 279.38862 148.26758 
L 281.02005 149.50792 
L 282.65148 149.430398 
L 284.28291 148.190059 
L 285.91434 146.019465 
L 287.54577 144.391519 
L 290.80863 142.763573 
L 292.440059 144.236477 
L 294.071489 147.027241 
L 295.702919 147.802453 
L 297.334349 146.562113 
L 300.597209 144.856646 
L 302.228639 144.46904 
L 303.860069 142.841095 
L 305.491498 143.228701 
L 307.122928 142.763573 
L 308.754358 142.53101 
L 310.385788 140.437937 
L 312.017218 140.825543 
L 313.648648 140.592979 
L 315.280078 142.453489 
L 316.911508 142.763573 
L 320.174367 144.856646 
L 321.805797 144.779125 
L 323.437227 145.321774 
L 325.068657 147.337326 
L 326.700087 145.786901 
L 328.331517 145.631859 
L 329.962947 145.011689 
L 331.594376 145.166731 
L 333.225806 143.306222 
L 336.488666 143.538786 
L 338.120096 142.298446 
L 339.751526 143.616307 
L 341.382956 142.763573 
L 343.014386 141.523234 
L 344.645815 143.228701 
L 346.277245 142.065882 
L 347.908675 143.538786 
L 352.802965 141.833319 
L 354.434395 142.375967 
L 356.065825 144.701604 
L 357.697254 143.15118 
L 359.328684 144.158955 
L 360.960114 142.453489 
L 362.591544 142.065882 
L 365.854404 141.988361 
L 367.485834 143.15118 
L 369.117264 143.771349 
L 370.748693 144.081434 
L 372.380123 145.08921 
L 374.011553 145.476816 
L 375.642983 146.407071 
L 377.274413 146.949719 
L 378.905843 148.810229 
L 380.537273 148.732707 
L 380.537273 148.732707 
" clip-path="url(#p5aa2311d59)" style="fill: none; stroke: #d62728; stroke-width: 1.5; stroke-linecap: square"/>
   </g>
   <g id="patch_3">
    <path d="M 39.65 273.312 
L 39.65 7.2 
" style="fill: none; stroke: #000000; stroke-width: 0.8; stroke-linejoin: miter; stroke-linecap: square"/>
   </g>
   <g id="patch_4">
    <path d="M 396.77 273.312 
L 396.77 7.2 
" style="fill: none; stroke: #000000; stroke-width: 0.8; stroke-linejoin: miter; stroke-linecap: square"/>
   </g>
   <g id="patch_5">
    <path d="M 39.65 273.312 
L 396.77 273.312 
" style="fill: none; stroke: #000000; stroke-width: 0.8; stroke-linejoin: miter; stroke-linecap: square"/>
   </g>
   <g id="patch_6">
    <path d="M 39.65 7.2 
L 396.77 7.2 
" style="fill: none; stroke: #000000; stroke-width: 0.8; stroke-linejoin: miter; stroke-linecap: square"/>
   </g>
  </g>
 </g>
 <defs>
  <clipPath id="p5aa2311d59">
   <rect x="39.65" y="7.2" width="357.12" height="266.112"/>
  </clipPath>
 </defs>
</svg>
