<?xml version="1.0" encoding="utf-8" standalone="no"?>
<!DOCTYPE svg PUBLIC "-//W3C//DTD SVG 1.1//EN"
  "http://www.w3.org/Graphics/SVG/1.1/DTD/svg11.dtd">
<svg xmlns:xlink="http://www.w3.org/1999/xlink" width="417.648125pt" height="310.86825pt" viewBox="0 0 417.648125 310.86825" xmlns="http://www.w3.org/2000/svg" version="1.1">
 <metadata>
  <rdf:RDF xmlns:dc="http://purl.org/dc/elements/1.1/" xmlns:cc="http://creativecommons.org/ns#" xmlns:rdf="http://www.w3.org/1999/02/22-rdf-syntax-ns#">
   <cc:Work>
    <dc:type rdf:resource="http://purl.org/dc/dcmitype/StillImage"/>
    <dc:date>2024-07-05T04:34:47.073619</dc:date>
    <dc:format>image/svg+xml</dc:format>
    <dc:creator>
     <cc:Agent>
      <dc:title>Matplotlib v3.9.1, https://matplotlib.org/</dc:title>
     </cc:Agent>
    </dc:creator>
   </cc:Work>
  </rdf:RDF>
 </metadata>
 <defs>
  <style type="text/css">*{stroke-linejoin: round; stroke-linecap: butt}</style>
 </defs>
 <g id="figure_1">
  <g id="patch_1">
   <path d="M 0 310.86825 
L 417.648125 310.86825 
L 417.648125 0 
L 0 0 
z
" style="fill: #ffffff"/>
  </g>
  <g id="axes_1">
   <g id="patch_2">
    <path d="M 53.328125 273.312 
L 410.448125 273.312 
L 410.448125 7.2 
L 53.328125 7.2 
z
" style="fill: #ffffff"/>
   </g>
   <g id="matplotlib.axis_1">
    <g id="xtick_1">
     <g id="line2d_1">
      <defs>
       <path id="me3488c0f4e" d="M 0 0 
L 0 3.5 
" style="stroke: #000000; stroke-width: 0.8"/>
      </defs>
      <g>
       <use xlink:href="#me3488c0f4e" x="69.560852" y="273.312" style="stroke: #000000; stroke-width: 0.8"/>
      </g>
     </g>
     <g id="text_1">
      <!-- 0.0 -->
      <g transform="translate(61.60929 287.910437) scale(0.1 -0.1)">
       <defs>
        <path id="DejaVuSans-30" d="M 2034 4250 
Q 1547 4250 1301 3770 
Q 1056 3291 1056 2328 
Q 1056 1369 1301 889 
Q 1547 409 2034 409 
Q 2525 409 2770 889 
Q 3016 1369 3016 2328 
Q 3016 3291 2770 3770 
Q 2525 4250 2034 4250 
z
M 2034 4750 
Q 2819 4750 3233 4129 
Q 3647 3509 3647 2328 
Q 3647 1150 3233 529 
Q 2819 -91 2034 -91 
Q 1250 -91 836 529 
Q 422 1150 422 2328 
Q 422 3509 836 4129 
Q 1250 4750 2034 4750 
z
" transform="scale(0.015625)"/>
        <path id="DejaVuSans-2e" d="M 684 794 
L 1344 794 
L 1344 0 
L 684 0 
L 684 794 
z
" transform="scale(0.015625)"/>
       </defs>
       <use xlink:href="#DejaVuSans-30"/>
       <use xlink:href="#DejaVuSans-2e" x="63.623047"/>
       <use xlink:href="#DejaVuSans-30" x="95.410156"/>
      </g>
     </g>
    </g>
    <g id="xtick_2">
     <g id="line2d_2">
      <g>
       <use xlink:href="#me3488c0f4e" x="110.346599" y="273.312" style="stroke: #000000; stroke-width: 0.8"/>
      </g>
     </g>
     <g id="text_2">
      <!-- 2.5 -->
      <g transform="translate(102.395037 287.910437) scale(0.1 -0.1)">
       <defs>
        <path id="DejaVuSans-32" d="M 1228 531 
L 3431 531 
L 3431 0 
L 469 0 
L 469 531 
Q 828 903 1448 1529 
Q 2069 2156 2228 2338 
Q 2531 2678 2651 2914 
Q 2772 3150 2772 3378 
Q 2772 3750 2511 3984 
Q 2250 4219 1831 4219 
Q 1534 4219 1204 4116 
Q 875 4013 500 3803 
L 500 4441 
Q 881 4594 1212 4672 
Q 1544 4750 1819 4750 
Q 2544 4750 2975 4387 
Q 3406 4025 3406 3419 
Q 3406 3131 3298 2873 
Q 3191 2616 2906 2266 
Q 2828 2175 2409 1742 
Q 1991 1309 1228 531 
z
" transform="scale(0.015625)"/>
        <path id="DejaVuSans-35" d="M 691 4666 
L 3169 4666 
L 3169 4134 
L 1269 4134 
L 1269 2991 
Q 1406 3038 1543 3061 
Q 1681 3084 1819 3084 
Q 2600 3084 3056 2656 
Q 3513 2228 3513 1497 
Q 3513 744 3044 326 
Q 2575 -91 1722 -91 
Q 1428 -91 1123 -41 
Q 819 9 494 109 
L 494 744 
Q 775 591 1075 516 
Q 1375 441 1709 441 
Q 2250 441 2565 725 
Q 2881 1009 2881 1497 
Q 2881 1984 2565 2268 
Q 2250 2553 1709 2553 
Q 1456 2553 1204 2497 
Q 953 2441 691 2322 
L 691 4666 
z
" transform="scale(0.015625)"/>
       </defs>
       <use xlink:href="#DejaVuSans-32"/>
       <use xlink:href="#DejaVuSans-2e" x="63.623047"/>
       <use xlink:href="#DejaVuSans-35" x="95.410156"/>
      </g>
     </g>
    </g>
    <g id="xtick_3">
     <g id="line2d_3">
      <g>
       <use xlink:href="#me3488c0f4e" x="151.132346" y="273.312" style="stroke: #000000; stroke-width: 0.8"/>
      </g>
     </g>
     <g id="text_3">
      <!-- 5.0 -->
      <g transform="translate(143.180784 287.910437) scale(0.1 -0.1)">
       <use xlink:href="#DejaVuSans-35"/>
       <use xlink:href="#DejaVuSans-2e" x="63.623047"/>
       <use xlink:href="#DejaVuSans-30" x="95.410156"/>
      </g>
     </g>
    </g>
    <g id="xtick_4">
     <g id="line2d_4">
      <g>
       <use xlink:href="#me3488c0f4e" x="191.918093" y="273.312" style="stroke: #000000; stroke-width: 0.8"/>
      </g>
     </g>
     <g id="text_4">
      <!-- 7.5 -->
      <g transform="translate(183.966531 287.910437) scale(0.1 -0.1)">
       <defs>
        <path id="DejaVuSans-37" d="M 525 4666 
L 3525 4666 
L 3525 4397 
L 1831 0 
L 1172 0 
L 2766 4134 
L 525 4134 
L 525 4666 
z
" transform="scale(0.015625)"/>
       </defs>
       <use xlink:href="#DejaVuSans-37"/>
       <use xlink:href="#DejaVuSans-2e" x="63.623047"/>
       <use xlink:href="#DejaVuSans-35" x="95.410156"/>
      </g>
     </g>
    </g>
    <g id="xtick_5">
     <g id="line2d_5">
      <g>
       <use xlink:href="#me3488c0f4e" x="232.70384" y="273.312" style="stroke: #000000; stroke-width: 0.8"/>
      </g>
     </g>
     <g id="text_5">
      <!-- 10.0 -->
      <g transform="translate(221.571027 287.910437) scale(0.1 -0.1)">
       <defs>
        <path id="DejaVuSans-31" d="M 794 531 
L 1825 531 
L 1825 4091 
L 703 3866 
L 703 4441 
L 1819 4666 
L 2450 4666 
L 2450 531 
L 3481 531 
L 3481 0 
L 794 0 
L 794 531 
z
" transform="scale(0.015625)"/>
       </defs>
       <use xlink:href="#DejaVuSans-31"/>
       <use xlink:href="#DejaVuSans-30" x="63.623047"/>
       <use xlink:href="#DejaVuSans-2e" x="127.246094"/>
       <use xlink:href="#DejaVuSans-30" x="159.033203"/>
      </g>
     </g>
    </g>
    <g id="xtick_6">
     <g id="line2d_6">
      <g>
       <use xlink:href="#me3488c0f4e" x="273.489587" y="273.312" style="stroke: #000000; stroke-width: 0.8"/>
      </g>
     </g>
     <g id="text_6">
      <!-- 12.5 -->
      <g transform="translate(262.356774 287.910437) scale(0.1 -0.1)">
       <use xlink:href="#DejaVuSans-31"/>
       <use xlink:href="#DejaVuSans-32" x="63.623047"/>
       <use xlink:href="#DejaVuSans-2e" x="127.246094"/>
       <use xlink:href="#DejaVuSans-35" x="159.033203"/>
      </g>
     </g>
    </g>
    <g id="xtick_7">
     <g id="line2d_7">
      <g>
       <use xlink:href="#me3488c0f4e" x="314.275334" y="273.312" style="stroke: #000000; stroke-width: 0.8"/>
      </g>
     </g>
     <g id="text_7">
      <!-- 15.0 -->
      <g transform="translate(303.142521 287.910437) scale(0.1 -0.1)">
       <use xlink:href="#DejaVuSans-31"/>
       <use xlink:href="#DejaVuSans-35" x="63.623047"/>
       <use xlink:href="#DejaVuSans-2e" x="127.246094"/>
       <use xlink:href="#DejaVuSans-30" x="159.033203"/>
      </g>
     </g>
    </g>
    <g id="xtick_8">
     <g id="line2d_8">
      <g>
       <use xlink:href="#me3488c0f4e" x="355.061081" y="273.312" style="stroke: #000000; stroke-width: 0.8"/>
      </g>
     </g>
     <g id="text_8">
      <!-- 17.5 -->
      <g transform="translate(343.928268 287.910437) scale(0.1 -0.1)">
       <use xlink:href="#DejaVuSans-31"/>
       <use xlink:href="#DejaVuSans-37" x="63.623047"/>
       <use xlink:href="#DejaVuSans-2e" x="127.246094"/>
       <use xlink:href="#DejaVuSans-35" x="159.033203"/>
      </g>
     </g>
    </g>
    <g id="xtick_9">
     <g id="line2d_9">
      <g>
       <use xlink:href="#me3488c0f4e" x="395.846828" y="273.312" style="stroke: #000000; stroke-width: 0.8"/>
      </g>
     </g>
     <g id="text_9">
      <!-- 20.0 -->
      <g transform="translate(384.714015 287.910437) scale(0.1 -0.1)">
       <use xlink:href="#DejaVuSans-32"/>
       <use xlink:href="#DejaVuSans-30" x="63.623047"/>
       <use xlink:href="#DejaVuSans-2e" x="127.246094"/>
       <use xlink:href="#DejaVuSans-30" x="159.033203"/>
      </g>
     </g>
    </g>
    <g id="text_10">
     <!-- Time -->
     <g transform="translate(219.654531 301.588562) scale(0.1 -0.1)">
      <defs>
       <path id="DejaVuSans-54" d="M -19 4666 
L 3928 4666 
L 3928 4134 
L 2272 4134 
L 2272 0 
L 1638 0 
L 1638 4134 
L -19 4134 
L -19 4666 
z
" transform="scale(0.015625)"/>
       <path id="DejaVuSans-69" d="M 603 3500 
L 1178 3500 
L 1178 0 
L 603 0 
L 603 3500 
z
M 603 4863 
L 1178 4863 
L 1178 4134 
L 603 4134 
L 603 4863 
z
" transform="scale(0.015625)"/>
       <path id="DejaVuSans-6d" d="M 3328 2828 
Q 3544 3216 3844 3400 
Q 4144 3584 4550 3584 
Q 5097 3584 5394 3201 
Q 5691 2819 5691 2113 
L 5691 0 
L 5113 0 
L 5113 2094 
Q 5113 2597 4934 2840 
Q 4756 3084 4391 3084 
Q 3944 3084 3684 2787 
Q 3425 2491 3425 1978 
L 3425 0 
L 2847 0 
L 2847 2094 
Q 2847 2600 2669 2842 
Q 2491 3084 2119 3084 
Q 1678 3084 1418 2786 
Q 1159 2488 1159 1978 
L 1159 0 
L 581 0 
L 581 3500 
L 1159 3500 
L 1159 2956 
Q 1356 3278 1631 3431 
Q 1906 3584 2284 3584 
Q 2666 3584 2933 3390 
Q 3200 3197 3328 2828 
z
" transform="scale(0.015625)"/>
       <path id="DejaVuSans-65" d="M 3597 1894 
L 3597 1613 
L 953 1613 
Q 991 1019 1311 708 
Q 1631 397 2203 397 
Q 2534 397 2845 478 
Q 3156 559 3463 722 
L 3463 178 
Q 3153 47 2828 -22 
Q 2503 -91 2169 -91 
Q 1331 -91 842 396 
Q 353 884 353 1716 
Q 353 2575 817 3079 
Q 1281 3584 2069 3584 
Q 2775 3584 3186 3129 
Q 3597 2675 3597 1894 
z
M 3022 2063 
Q 3016 2534 2758 2815 
Q 2500 3097 2075 3097 
Q 1594 3097 1305 2825 
Q 1016 2553 972 2059 
L 3022 2063 
z
" transform="scale(0.015625)"/>
      </defs>
      <use xlink:href="#DejaVuSans-54"/>
      <use xlink:href="#DejaVuSans-69" x="57.958984"/>
      <use xlink:href="#DejaVuSans-6d" x="85.742188"/>
      <use xlink:href="#DejaVuSans-65" x="183.154297"/>
     </g>
    </g>
   </g>
   <g id="matplotlib.axis_2">
    <g id="ytick_1">
     <g id="line2d_10">
      <defs>
       <path id="m4457bb7361" d="M 0 0 
L -3.5 0 
" style="stroke: #000000; stroke-width: 0.8"/>
      </defs>
      <g>
       <use xlink:href="#m4457bb7361" x="53.328125" y="261.216" style="stroke: #000000; stroke-width: 0.8"/>
      </g>
     </g>
     <g id="text_11">
      <!-- 0 -->
      <g transform="translate(39.965625 265.015219) scale(0.1 -0.1)">
       <use xlink:href="#DejaVuSans-30"/>
      </g>
     </g>
    </g>
    <g id="ytick_2">
     <g id="line2d_11">
      <g>
       <use xlink:href="#m4457bb7361" x="53.328125" y="221.981488" style="stroke: #000000; stroke-width: 0.8"/>
      </g>
     </g>
     <g id="text_12">
      <!-- 500 -->
      <g transform="translate(27.240625 225.780707) scale(0.1 -0.1)">
       <use xlink:href="#DejaVuSans-35"/>
       <use xlink:href="#DejaVuSans-30" x="63.623047"/>
       <use xlink:href="#DejaVuSans-30" x="127.246094"/>
      </g>
     </g>
    </g>
    <g id="ytick_3">
     <g id="line2d_12">
      <g>
       <use xlink:href="#m4457bb7361" x="53.328125" y="182.746976" style="stroke: #000000; stroke-width: 0.8"/>
      </g>
     </g>
     <g id="text_13">
      <!-- 1000 -->
      <g transform="translate(20.878125 186.546195) scale(0.1 -0.1)">
       <use xlink:href="#DejaVuSans-31"/>
       <use xlink:href="#DejaVuSans-30" x="63.623047"/>
       <use xlink:href="#DejaVuSans-30" x="127.246094"/>
       <use xlink:href="#DejaVuSans-30" x="190.869141"/>
      </g>
     </g>
    </g>
    <g id="ytick_4">
     <g id="line2d_13">
      <g>
       <use xlink:href="#m4457bb7361" x="53.328125" y="143.512464" style="stroke: #000000; stroke-width: 0.8"/>
      </g>
     </g>
     <g id="text_14">
      <!-- 1500 -->
      <g transform="translate(20.878125 147.311683) scale(0.1 -0.1)">
       <use xlink:href="#DejaVuSans-31"/>
       <use xlink:href="#DejaVuSans-35" x="63.623047"/>
       <use xlink:href="#DejaVuSans-30" x="127.246094"/>
       <use xlink:href="#DejaVuSans-30" x="190.869141"/>
      </g>
     </g>
    </g>
    <g id="ytick_5">
     <g id="line2d_14">
      <g>
       <use xlink:href="#m4457bb7361" x="53.328125" y="104.277953" style="stroke: #000000; stroke-width: 0.8"/>
      </g>
     </g>
     <g id="text_15">
      <!-- 2000 -->
      <g transform="translate(20.878125 108.077171) scale(0.1 -0.1)">
       <use xlink:href="#DejaVuSans-32"/>
       <use xlink:href="#DejaVuSans-30" x="63.623047"/>
       <use xlink:href="#DejaVuSans-30" x="127.246094"/>
       <use xlink:href="#DejaVuSans-30" x="190.869141"/>
      </g>
     </g>
    </g>
    <g id="ytick_6">
     <g id="line2d_15">
      <g>
       <use xlink:href="#m4457bb7361" x="53.328125" y="65.043441" style="stroke: #000000; stroke-width: 0.8"/>
      </g>
     </g>
     <g id="text_16">
      <!-- 2500 -->
      <g transform="translate(20.878125 68.84266) scale(0.1 -0.1)">
       <use xlink:href="#DejaVuSans-32"/>
       <use xlink:href="#DejaVuSans-35" x="63.623047"/>
       <use xlink:href="#DejaVuSans-30" x="127.246094"/>
       <use xlink:href="#DejaVuSans-30" x="190.869141"/>
      </g>
     </g>
    </g>
    <g id="ytick_7">
     <g id="line2d_16">
      <g>
       <use xlink:href="#m4457bb7361" x="53.328125" y="25.808929" style="stroke: #000000; stroke-width: 0.8"/>
      </g>
     </g>
     <g id="text_17">
      <!-- 3000 -->
      <g transform="translate(20.878125 29.608148) scale(0.1 -0.1)">
       <defs>
        <path id="DejaVuSans-33" d="M 2597 2516 
Q 3050 2419 3304 2112 
Q 3559 1806 3559 1356 
Q 3559 666 3084 287 
Q 2609 -91 1734 -91 
Q 1441 -91 1130 -33 
Q 819 25 488 141 
L 488 750 
Q 750 597 1062 519 
Q 1375 441 1716 441 
Q 2309 441 2620 675 
Q 2931 909 2931 1356 
Q 2931 1769 2642 2001 
Q 2353 2234 1838 2234 
L 1294 2234 
L 1294 2753 
L 1863 2753 
Q 2328 2753 2575 2939 
Q 2822 3125 2822 3475 
Q 2822 3834 2567 4026 
Q 2313 4219 1838 4219 
Q 1578 4219 1281 4162 
Q 984 4106 628 3988 
L 628 4550 
Q 988 4650 1302 4700 
Q 1616 4750 1894 4750 
Q 2613 4750 3031 4423 
Q 3450 4097 3450 3541 
Q 3450 3153 3228 2886 
Q 3006 2619 2597 2516 
z
" transform="scale(0.015625)"/>
       </defs>
       <use xlink:href="#DejaVuSans-33"/>
       <use xlink:href="#DejaVuSans-30" x="63.623047"/>
       <use xlink:href="#DejaVuSans-30" x="127.246094"/>
       <use xlink:href="#DejaVuSans-30" x="190.869141"/>
      </g>
     </g>
    </g>
    <g id="text_18">
     <!-- Number of entities in each compartment -->
     <g transform="translate(14.798438 242.356781) rotate(-90) scale(0.1 -0.1)">
      <defs>
       <path id="DejaVuSans-4e" d="M 628 4666 
L 1478 4666 
L 3547 763 
L 3547 4666 
L 4159 4666 
L 4159 0 
L 3309 0 
L 1241 3903 
L 1241 0 
L 628 0 
L 628 4666 
z
" transform="scale(0.015625)"/>
       <path id="DejaVuSans-75" d="M 544 1381 
L 544 3500 
L 1119 3500 
L 1119 1403 
Q 1119 906 1312 657 
Q 1506 409 1894 409 
Q 2359 409 2629 706 
Q 2900 1003 2900 1516 
L 2900 3500 
L 3475 3500 
L 3475 0 
L 2900 0 
L 2900 538 
Q 2691 219 2414 64 
Q 2138 -91 1772 -91 
Q 1169 -91 856 284 
Q 544 659 544 1381 
z
M 1991 3584 
L 1991 3584 
z
" transform="scale(0.015625)"/>
       <path id="DejaVuSans-62" d="M 3116 1747 
Q 3116 2381 2855 2742 
Q 2594 3103 2138 3103 
Q 1681 3103 1420 2742 
Q 1159 2381 1159 1747 
Q 1159 1113 1420 752 
Q 1681 391 2138 391 
Q 2594 391 2855 752 
Q 3116 1113 3116 1747 
z
M 1159 2969 
Q 1341 3281 1617 3432 
Q 1894 3584 2278 3584 
Q 2916 3584 3314 3078 
Q 3713 2572 3713 1747 
Q 3713 922 3314 415 
Q 2916 -91 2278 -91 
Q 1894 -91 1617 61 
Q 1341 213 1159 525 
L 1159 0 
L 581 0 
L 581 4863 
L 1159 4863 
L 1159 2969 
z
" transform="scale(0.015625)"/>
       <path id="DejaVuSans-72" d="M 2631 2963 
Q 2534 3019 2420 3045 
Q 2306 3072 2169 3072 
Q 1681 3072 1420 2755 
Q 1159 2438 1159 1844 
L 1159 0 
L 581 0 
L 581 3500 
L 1159 3500 
L 1159 2956 
Q 1341 3275 1631 3429 
Q 1922 3584 2338 3584 
Q 2397 3584 2469 3576 
Q 2541 3569 2628 3553 
L 2631 2963 
z
" transform="scale(0.015625)"/>
       <path id="DejaVuSans-20" transform="scale(0.015625)"/>
       <path id="DejaVuSans-6f" d="M 1959 3097 
Q 1497 3097 1228 2736 
Q 959 2375 959 1747 
Q 959 1119 1226 758 
Q 1494 397 1959 397 
Q 2419 397 2687 759 
Q 2956 1122 2956 1747 
Q 2956 2369 2687 2733 
Q 2419 3097 1959 3097 
z
M 1959 3584 
Q 2709 3584 3137 3096 
Q 3566 2609 3566 1747 
Q 3566 888 3137 398 
Q 2709 -91 1959 -91 
Q 1206 -91 779 398 
Q 353 888 353 1747 
Q 353 2609 779 3096 
Q 1206 3584 1959 3584 
z
" transform="scale(0.015625)"/>
       <path id="DejaVuSans-66" d="M 2375 4863 
L 2375 4384 
L 1825 4384 
Q 1516 4384 1395 4259 
Q 1275 4134 1275 3809 
L 1275 3500 
L 2222 3500 
L 2222 3053 
L 1275 3053 
L 1275 0 
L 697 0 
L 697 3053 
L 147 3053 
L 147 3500 
L 697 3500 
L 697 3744 
Q 697 4328 969 4595 
Q 1241 4863 1831 4863 
L 2375 4863 
z
" transform="scale(0.015625)"/>
       <path id="DejaVuSans-6e" d="M 3513 2113 
L 3513 0 
L 2938 0 
L 2938 2094 
Q 2938 2591 2744 2837 
Q 2550 3084 2163 3084 
Q 1697 3084 1428 2787 
Q 1159 2491 1159 1978 
L 1159 0 
L 581 0 
L 581 3500 
L 1159 3500 
L 1159 2956 
Q 1366 3272 1645 3428 
Q 1925 3584 2291 3584 
Q 2894 3584 3203 3211 
Q 3513 2838 3513 2113 
z
" transform="scale(0.015625)"/>
       <path id="DejaVuSans-74" d="M 1172 4494 
L 1172 3500 
L 2356 3500 
L 2356 3053 
L 1172 3053 
L 1172 1153 
Q 1172 725 1289 603 
Q 1406 481 1766 481 
L 2356 481 
L 2356 0 
L 1766 0 
Q 1100 0 847 248 
Q 594 497 594 1153 
L 594 3053 
L 172 3053 
L 172 3500 
L 594 3500 
L 594 4494 
L 1172 4494 
z
" transform="scale(0.015625)"/>
       <path id="DejaVuSans-73" d="M 2834 3397 
L 2834 2853 
Q 2591 2978 2328 3040 
Q 2066 3103 1784 3103 
Q 1356 3103 1142 2972 
Q 928 2841 928 2578 
Q 928 2378 1081 2264 
Q 1234 2150 1697 2047 
L 1894 2003 
Q 2506 1872 2764 1633 
Q 3022 1394 3022 966 
Q 3022 478 2636 193 
Q 2250 -91 1575 -91 
Q 1294 -91 989 -36 
Q 684 19 347 128 
L 347 722 
Q 666 556 975 473 
Q 1284 391 1588 391 
Q 1994 391 2212 530 
Q 2431 669 2431 922 
Q 2431 1156 2273 1281 
Q 2116 1406 1581 1522 
L 1381 1569 
Q 847 1681 609 1914 
Q 372 2147 372 2553 
Q 372 3047 722 3315 
Q 1072 3584 1716 3584 
Q 2034 3584 2315 3537 
Q 2597 3491 2834 3397 
z
" transform="scale(0.015625)"/>
       <path id="DejaVuSans-61" d="M 2194 1759 
Q 1497 1759 1228 1600 
Q 959 1441 959 1056 
Q 959 750 1161 570 
Q 1363 391 1709 391 
Q 2188 391 2477 730 
Q 2766 1069 2766 1631 
L 2766 1759 
L 2194 1759 
z
M 3341 1997 
L 3341 0 
L 2766 0 
L 2766 531 
Q 2569 213 2275 61 
Q 1981 -91 1556 -91 
Q 1019 -91 701 211 
Q 384 513 384 1019 
Q 384 1609 779 1909 
Q 1175 2209 1959 2209 
L 2766 2209 
L 2766 2266 
Q 2766 2663 2505 2880 
Q 2244 3097 1772 3097 
Q 1472 3097 1187 3025 
Q 903 2953 641 2809 
L 641 3341 
Q 956 3463 1253 3523 
Q 1550 3584 1831 3584 
Q 2591 3584 2966 3190 
Q 3341 2797 3341 1997 
z
" transform="scale(0.015625)"/>
       <path id="DejaVuSans-63" d="M 3122 3366 
L 3122 2828 
Q 2878 2963 2633 3030 
Q 2388 3097 2138 3097 
Q 1578 3097 1268 2742 
Q 959 2388 959 1747 
Q 959 1106 1268 751 
Q 1578 397 2138 397 
Q 2388 397 2633 464 
Q 2878 531 3122 666 
L 3122 134 
Q 2881 22 2623 -34 
Q 2366 -91 2075 -91 
Q 1284 -91 818 406 
Q 353 903 353 1747 
Q 353 2603 823 3093 
Q 1294 3584 2113 3584 
Q 2378 3584 2631 3529 
Q 2884 3475 3122 3366 
z
" transform="scale(0.015625)"/>
       <path id="DejaVuSans-68" d="M 3513 2113 
L 3513 0 
L 2938 0 
L 2938 2094 
Q 2938 2591 2744 2837 
Q 2550 3084 2163 3084 
Q 1697 3084 1428 2787 
Q 1159 2491 1159 1978 
L 1159 0 
L 581 0 
L 581 4863 
L 1159 4863 
L 1159 2956 
Q 1366 3272 1645 3428 
Q 1925 3584 2291 3584 
Q 2894 3584 3203 3211 
Q 3513 2838 3513 2113 
z
" transform="scale(0.015625)"/>
       <path id="DejaVuSans-70" d="M 1159 525 
L 1159 -1331 
L 581 -1331 
L 581 3500 
L 1159 3500 
L 1159 2969 
Q 1341 3281 1617 3432 
Q 1894 3584 2278 3584 
Q 2916 3584 3314 3078 
Q 3713 2572 3713 1747 
Q 3713 922 3314 415 
Q 2916 -91 2278 -91 
Q 1894 -91 1617 61 
Q 1341 213 1159 525 
z
M 3116 1747 
Q 3116 2381 2855 2742 
Q 2594 3103 2138 3103 
Q 1681 3103 1420 2742 
Q 1159 2381 1159 1747 
Q 1159 1113 1420 752 
Q 1681 391 2138 391 
Q 2594 391 2855 752 
Q 3116 1113 3116 1747 
z
" transform="scale(0.015625)"/>
      </defs>
      <use xlink:href="#DejaVuSans-4e"/>
      <use xlink:href="#DejaVuSans-75" x="74.804688"/>
      <use xlink:href="#DejaVuSans-6d" x="138.183594"/>
      <use xlink:href="#DejaVuSans-62" x="235.595703"/>
      <use xlink:href="#DejaVuSans-65" x="299.072266"/>
      <use xlink:href="#DejaVuSans-72" x="360.595703"/>
      <use xlink:href="#DejaVuSans-20" x="401.708984"/>
      <use xlink:href="#DejaVuSans-6f" x="433.496094"/>
      <use xlink:href="#DejaVuSans-66" x="494.677734"/>
      <use xlink:href="#DejaVuSans-20" x="529.882812"/>
      <use xlink:href="#DejaVuSans-65" x="561.669922"/>
      <use xlink:href="#DejaVuSans-6e" x="623.193359"/>
      <use xlink:href="#DejaVuSans-74" x="686.572266"/>
      <use xlink:href="#DejaVuSans-69" x="725.78125"/>
      <use xlink:href="#DejaVuSans-74" x="753.564453"/>
      <use xlink:href="#DejaVuSans-69" x="792.773438"/>
      <use xlink:href="#DejaVuSans-65" x="820.556641"/>
      <use xlink:href="#DejaVuSans-73" x="882.080078"/>
      <use xlink:href="#DejaVuSans-20" x="934.179688"/>
      <use xlink:href="#DejaVuSans-69" x="965.966797"/>
      <use xlink:href="#DejaVuSans-6e" x="993.75"/>
      <use xlink:href="#DejaVuSans-20" x="1057.128906"/>
      <use xlink:href="#DejaVuSans-65" x="1088.916016"/>
      <use xlink:href="#DejaVuSans-61" x="1150.439453"/>
      <use xlink:href="#DejaVuSans-63" x="1211.71875"/>
      <use xlink:href="#DejaVuSans-68" x="1266.699219"/>
      <use xlink:href="#DejaVuSans-20" x="1330.078125"/>
      <use xlink:href="#DejaVuSans-63" x="1361.865234"/>
      <use xlink:href="#DejaVuSans-6f" x="1416.845703"/>
      <use xlink:href="#DejaVuSans-6d" x="1478.027344"/>
      <use xlink:href="#DejaVuSans-70" x="1575.439453"/>
      <use xlink:href="#DejaVuSans-61" x="1638.916016"/>
      <use xlink:href="#DejaVuSans-72" x="1700.195312"/>
      <use xlink:href="#DejaVuSans-74" x="1741.308594"/>
      <use xlink:href="#DejaVuSans-6d" x="1780.517578"/>
      <use xlink:href="#DejaVuSans-65" x="1877.929688"/>
      <use xlink:href="#DejaVuSans-6e" x="1939.453125"/>
      <use xlink:href="#DejaVuSans-74" x="2002.832031"/>
     </g>
    </g>
   </g>
   <g id="line2d_17">
    <path d="M 69.560852 261.216 
L 71.192282 252.584407 
L 72.823712 245.836071 
L 74.455142 240.814054 
L 76.086572 232.888682 
L 77.718002 226.846568 
L 79.349432 219.39201 
L 80.980861 214.526931 
L 82.612291 208.641754 
L 85.875151 194.203454 
L 87.506581 187.768994 
L 90.769441 178.352711 
L 94.0323 170.898154 
L 95.66373 165.876136 
L 97.29516 161.952685 
L 98.92659 156.067508 
L 102.18945 145.866535 
L 103.82088 142.963181 
L 107.083739 134.174651 
L 108.715169 131.192828 
L 110.346599 126.17081 
L 113.609459 116.754527 
L 116.872319 110.94782 
L 118.503749 107.338245 
L 121.766608 101.610006 
L 123.398038 101.217661 
L 126.660898 97.137271 
L 128.292328 93.21382 
L 129.923758 91.330564 
L 131.555188 88.898024 
L 133.186617 87.720989 
L 136.449477 82.463564 
L 138.080907 79.56021 
L 139.712337 77.99083 
L 141.343767 77.206139 
L 142.975197 74.302786 
L 144.606627 72.105653 
L 149.500916 63.552529 
L 151.132346 62.297025 
L 152.763776 61.276928 
L 154.395206 61.198459 
L 156.026636 59.001326 
L 157.658066 57.510415 
L 159.289495 56.411848 
L 160.920925 56.411848 
L 162.552355 56.725724 
L 164.183785 54.920937 
L 165.815215 54.293185 
L 167.446645 52.723804 
L 169.078075 50.448202 
L 170.709505 50.683609 
L 172.340935 49.428105 
L 173.972364 47.544849 
L 175.603794 46.446282 
L 177.235224 47.074034 
L 178.866654 45.896999 
L 180.498084 46.446282 
L 182.129514 46.838627 
L 185.392374 49.428105 
L 187.023803 49.349636 
L 188.655233 48.015663 
L 190.286663 47.38791 
L 191.918093 45.190778 
L 193.549523 45.583123 
L 195.180953 46.446282 
L 196.812383 45.269247 
L 198.443813 44.327619 
L 200.075242 43.072114 
L 201.706672 41.502734 
L 203.338102 40.247229 
L 204.969532 40.325698 
L 206.600962 40.16876 
L 208.232392 37.893159 
L 209.863822 38.207035 
L 211.495252 39.227132 
L 213.126681 38.913256 
L 216.389541 36.716123 
L 218.020971 36.009902 
L 219.652401 34.832867 
L 221.283831 35.068274 
L 222.915261 33.812769 
L 224.546691 32.16492 
L 227.80955 31.615637 
L 229.44098 31.537168 
L 231.07241 32.557265 
L 232.70384 31.694106 
L 234.33527 33.028079 
L 235.9667 32.321858 
L 237.59813 32.243389 
L 239.229559 33.498893 
L 240.860989 32.243389 
L 242.492419 31.615637 
L 244.123849 30.830946 
L 245.755279 31.458699 
L 247.386709 30.438601 
L 249.018139 31.458699 
L 250.649569 29.653911 
L 252.280998 28.790752 
L 253.912428 28.476876 
L 255.543858 29.653911 
L 257.175288 29.104628 
L 258.806718 27.221371 
L 260.438148 25.651991 
L 262.069578 25.102708 
L 263.701008 26.51515 
L 265.332437 29.73238 
L 266.963867 30.51707 
L 268.595297 28.633814 
L 270.226727 28.633814 
L 271.858157 29.810849 
L 273.489587 28.319938 
L 275.121017 27.613717 
L 276.752447 27.535247 
L 278.383876 28.084531 
L 281.646736 28.712283 
L 283.278166 28.869221 
L 284.909596 27.927593 
L 286.541026 27.29984 
L 288.172456 27.770655 
L 289.803886 28.476876 
L 291.435315 27.378309 
L 293.066745 27.29984 
L 294.698175 26.829026 
L 296.329605 26.51515 
L 297.961035 25.808929 
L 299.592465 25.73046 
L 301.223895 25.808929 
L 302.855325 24.788832 
L 304.486755 25.024239 
L 306.118184 26.279743 
L 307.749614 26.044336 
L 312.643904 27.692186 
L 314.275334 26.593619 
L 315.906764 24.867301 
L 317.538194 26.51515 
L 319.169623 26.829026 
L 322.432483 26.907495 
L 324.063913 26.201274 
L 325.695343 25.338115 
L 327.326773 23.29792 
L 328.958203 22.042416 
L 330.589633 22.356292 
L 332.221062 23.454858 
L 333.852492 22.277823 
L 335.483922 21.963947 
L 337.115352 23.376389 
L 338.746782 22.827106 
L 340.378212 23.219451 
L 342.009642 22.827106 
L 343.641072 24.161079 
L 345.272501 24.867301 
L 346.903931 25.73046 
L 348.535361 27.378309 
L 350.166791 28.476876 
L 353.429651 26.201274 
L 355.061081 27.378309 
L 356.692511 28.241469 
L 358.32394 26.829026 
L 359.95537 23.925672 
L 361.5868 21.72854 
L 363.21823 22.827106 
L 364.84966 24.239548 
L 366.48109 22.905575 
L 368.11252 20.786911 
L 369.74395 20.316097 
L 371.375379 20.708442 
L 373.006809 20.551504 
L 374.638239 21.100788 
L 376.269669 24.004141 
L 377.901099 23.533327 
L 379.532529 22.199354 
L 381.163959 20.629973 
L 382.795389 20.08069 
L 384.426818 20.316097 
L 386.058248 19.296 
L 387.689678 20.316097 
L 389.321108 21.493133 
L 390.952538 20.002221 
L 392.583968 20.551504 
L 394.215398 20.551504 
L 394.215398 20.551504 
" clip-path="url(#p882cc482cf)" style="fill: none; stroke: #1f77b4; stroke-width: 1.5; stroke-linecap: square"/>
   </g>
   <g id="line2d_18">
    <path d="M 69.560852 261.216 
L 72.823712 260.823655 
L 74.455142 260.195903 
L 76.086572 259.332743 
L 77.718002 258.234177 
L 79.349432 257.292549 
L 80.980861 256.193982 
L 82.612291 254.938478 
L 85.875151 253.369098 
L 87.506581 251.878186 
L 89.138011 249.681054 
L 90.769441 247.719328 
L 92.400871 245.051381 
L 94.0323 242.69731 
L 95.66373 242.226496 
L 97.29516 240.578647 
L 98.92659 238.381514 
L 100.55802 235.948974 
L 102.18945 233.751842 
L 103.82088 230.926957 
L 107.083739 226.375753 
L 108.715169 223.707807 
L 110.346599 222.295364 
L 111.978029 220.176701 
L 113.609459 218.921196 
L 115.240889 216.17478 
L 116.872319 215.233152 
L 118.503749 212.879081 
L 120.135178 211.231232 
L 121.766608 209.034099 
L 123.398038 206.60156 
L 125.029468 205.424524 
L 126.660898 203.227392 
L 128.292328 202.599639 
L 129.923758 200.088631 
L 131.555188 197.028339 
L 133.186617 194.988144 
L 134.818047 194.831206 
L 136.449477 193.968047 
L 138.080907 193.497233 
L 139.712337 193.73264 
L 141.343767 192.398666 
L 142.975197 191.535507 
L 144.606627 189.338374 
L 147.869486 188.710622 
L 149.500916 186.43502 
L 154.395206 181.413003 
L 156.026636 181.099127 
L 157.658066 181.883817 
L 159.289495 180.235968 
L 160.920925 177.803428 
L 162.552355 176.155578 
L 164.183785 175.606295 
L 165.815215 173.723039 
L 167.446645 172.546003 
L 169.078075 172.075189 
L 170.709505 170.034994 
L 172.340935 170.113464 
L 173.972364 169.485711 
L 175.603794 168.622552 
L 177.235224 167.367048 
L 178.866654 166.974703 
L 180.498084 164.306756 
L 182.129514 163.051251 
L 183.760944 160.854119 
L 185.392374 160.932588 
L 187.023803 159.677083 
L 188.655233 160.540243 
L 190.286663 159.834021 
L 193.549523 159.990959 
L 195.180953 158.34311 
L 196.812383 158.421579 
L 198.443813 159.441676 
L 200.075242 158.656986 
L 201.706672 159.520145 
L 203.338102 159.598614 
L 204.969532 158.892393 
L 206.600962 159.91249 
L 208.232392 161.246464 
L 209.863822 159.284738 
L 211.495252 157.872296 
L 213.126681 158.107703 
L 214.758111 157.009137 
L 216.389541 157.087606 
L 218.020971 158.500048 
L 219.652401 155.832101 
L 221.283831 155.361287 
L 222.915261 157.479951 
L 224.546691 155.675163 
L 226.17812 156.616791 
L 227.80955 157.401482 
L 229.44098 154.34119 
L 231.07241 154.027314 
L 232.70384 154.262721 
L 234.33527 153.085685 
L 235.9667 153.870376 
L 237.59813 154.34119 
L 239.229559 153.5565 
L 240.860989 152.144057 
L 244.123849 152.850278 
L 245.755279 152.222526 
L 247.386709 154.184252 
L 249.018139 152.300995 
L 250.649569 151.594774 
L 252.280998 150.33927 
L 253.912428 148.456013 
L 255.543858 147.435916 
L 257.175288 148.299075 
L 258.806718 148.063668 
L 262.069578 147.278978 
L 263.701008 147.514385 
L 265.332437 144.846438 
L 266.963867 143.590934 
L 268.595297 145.395721 
L 270.226727 146.180411 
L 271.858157 146.180411 
L 273.489587 145.709597 
L 275.121017 146.886633 
L 276.752447 145.47419 
L 278.383876 144.767969 
L 281.646736 145.866535 
L 283.278166 143.669403 
L 284.909596 144.454093 
L 286.541026 145.709597 
L 288.172456 146.494287 
L 289.803886 145.866535 
L 291.435315 146.023473 
L 293.066745 147.200509 
L 294.698175 148.142137 
L 296.329605 148.848358 
L 297.961035 149.083765 
L 299.592465 148.534482 
L 301.223895 147.357447 
L 302.855325 149.319172 
L 304.486755 148.063668 
L 306.118184 147.12204 
L 307.749614 147.90673 
L 309.381044 147.671323 
L 314.275334 148.377544 
L 315.906764 147.749792 
L 317.538194 146.180411 
L 319.169623 145.160314 
L 320.801053 147.278978 
L 322.432483 146.25888 
L 324.063913 147.043571 
L 325.695343 147.357447 
L 327.326773 148.299075 
L 328.958203 147.671323 
L 330.589633 147.90673 
L 332.221062 146.337349 
L 333.852492 147.200509 
L 335.483922 146.180411 
L 337.115352 144.218686 
L 338.746782 144.140217 
L 340.378212 143.747872 
L 342.009642 145.081845 
L 345.272501 144.767969 
L 346.903931 146.337349 
L 348.535361 145.47419 
L 350.166791 145.003376 
L 351.798221 144.6895 
L 355.061081 144.297155 
L 356.692511 145.003376 
L 358.32394 145.552659 
L 359.95537 146.729694 
L 361.5868 146.886633 
L 363.21823 146.729694 
L 364.84966 147.043571 
L 366.48109 146.101942 
L 368.11252 145.47419 
L 369.74395 145.317252 
L 371.375379 144.375624 
L 373.006809 144.6895 
L 374.638239 143.590934 
L 376.269669 143.198588 
L 377.901099 144.218686 
L 379.532529 144.375624 
L 381.163959 145.081845 
L 382.795389 145.317252 
L 384.426818 146.808163 
L 386.058248 146.651225 
L 387.689678 145.631128 
L 389.321108 144.218686 
L 390.952538 144.532562 
L 392.583968 143.590934 
L 394.215398 143.512464 
L 394.215398 143.512464 
" clip-path="url(#p882cc482cf)" style="fill: none; stroke: #ff7f0e; stroke-width: 1.5; stroke-linecap: square"/>
   </g>
   <g id="patch_3">
    <path d="M 53.328125 273.312 
L 53.328125 7.2 
" style="fill: none; stroke: #000000; stroke-width: 0.8; stroke-linejoin: miter; stroke-linecap: square"/>
   </g>
   <g id="patch_4">
    <path d="M 410.448125 273.312 
L 410.448125 7.2 
" style="fill: none; stroke: #000000; stroke-width: 0.8; stroke-linejoin: miter; stroke-linecap: square"/>
   </g>
   <g id="patch_5">
    <path d="M 53.328125 273.312 
L 410.448125 273.312 
" style="fill: none; stroke: #000000; stroke-width: 0.8; stroke-linejoin: miter; stroke-linecap: square"/>
   </g>
   <g id="patch_6">
    <path d="M 53.328125 7.2 
L 410.448125 7.2 
" style="fill: none; stroke: #000000; stroke-width: 0.8; stroke-linejoin: miter; stroke-linecap: square"/>
   </g>
  </g>
 </g>
 <defs>
  <clipPath id="p882cc482cf">
   <rect x="53.328125" y="7.2" width="357.12" height="266.112"/>
  </clipPath>
 </defs>
</svg>
