<?xml version="1.0" encoding="utf-8" standalone="no"?>
<!DOCTYPE svg PUBLIC "-//W3C//DTD SVG 1.1//EN"
  "http://www.w3.org/Graphics/SVG/1.1/DTD/svg11.dtd">
<svg xmlns:xlink="http://www.w3.org/1999/xlink" width="403.97pt" height="297.190125pt" viewBox="0 0 403.97 297.190125" xmlns="http://www.w3.org/2000/svg" version="1.1">
 <metadata>
  <rdf:RDF xmlns:dc="http://purl.org/dc/elements/1.1/" xmlns:cc="http://creativecommons.org/ns#" xmlns:rdf="http://www.w3.org/1999/02/22-rdf-syntax-ns#">
   <cc:Work>
    <dc:type rdf:resource="http://purl.org/dc/dcmitype/StillImage"/>
    <dc:date>2024-07-12T03:04:07.848394</dc:date>
    <dc:format>image/svg+xml</dc:format>
    <dc:creator>
     <cc:Agent>
      <dc:title>Matplotlib v3.9.1, https://matplotlib.org/</dc:title>
     </cc:Agent>
    </dc:creator>
   </cc:Work>
  </rdf:RDF>
 </metadata>
 <defs>
  <style type="text/css">*{stroke-linejoin: round; stroke-linecap: butt}</style>
 </defs>
 <g id="figure_1">
  <g id="patch_1">
   <path d="M 0 297.190125 
L 403.97 297.190125 
L 403.97 0 
L 0 0 
z
" style="fill: #ffffff"/>
  </g>
  <g id="axes_1">
   <g id="patch_2">
    <path d="M 39.65 273.312 
L 396.77 273.312 
L 396.77 7.2 
L 39.65 7.2 
z
" style="fill: #ffffff"/>
   </g>
   <g id="matplotlib.axis_1">
    <g id="xtick_1">
     <g id="line2d_1">
      <defs>
       <path id="me50c1ac32c" d="M 0 0 
L 0 3.5 
" style="stroke: #000000; stroke-width: 0.8"/>
      </defs>
      <g>
       <use xlink:href="#me50c1ac32c" x="55.882727" y="273.312" style="stroke: #000000; stroke-width: 0.8"/>
      </g>
     </g>
     <g id="text_1">
      <!-- 0.0 -->
      <g transform="translate(47.931165 287.910437) scale(0.1 -0.1)">
       <defs>
        <path id="DejaVuSans-30" d="M 2034 4250 
Q 1547 4250 1301 3770 
Q 1056 3291 1056 2328 
Q 1056 1369 1301 889 
Q 1547 409 2034 409 
Q 2525 409 2770 889 
Q 3016 1369 3016 2328 
Q 3016 3291 2770 3770 
Q 2525 4250 2034 4250 
z
M 2034 4750 
Q 2819 4750 3233 4129 
Q 3647 3509 3647 2328 
Q 3647 1150 3233 529 
Q 2819 -91 2034 -91 
Q 1250 -91 836 529 
Q 422 1150 422 2328 
Q 422 3509 836 4129 
Q 1250 4750 2034 4750 
z
" transform="scale(0.015625)"/>
        <path id="DejaVuSans-2e" d="M 684 794 
L 1344 794 
L 1344 0 
L 684 0 
L 684 794 
z
" transform="scale(0.015625)"/>
       </defs>
       <use xlink:href="#DejaVuSans-30"/>
       <use xlink:href="#DejaVuSans-2e" x="63.623047"/>
       <use xlink:href="#DejaVuSans-30" x="95.410156"/>
      </g>
     </g>
    </g>
    <g id="xtick_2">
     <g id="line2d_2">
      <g>
       <use xlink:href="#me50c1ac32c" x="96.668474" y="273.312" style="stroke: #000000; stroke-width: 0.8"/>
      </g>
     </g>
     <g id="text_2">
      <!-- 2.5 -->
      <g transform="translate(88.716912 287.910437) scale(0.1 -0.1)">
       <defs>
        <path id="DejaVuSans-32" d="M 1228 531 
L 3431 531 
L 3431 0 
L 469 0 
L 469 531 
Q 828 903 1448 1529 
Q 2069 2156 2228 2338 
Q 2531 2678 2651 2914 
Q 2772 3150 2772 3378 
Q 2772 3750 2511 3984 
Q 2250 4219 1831 4219 
Q 1534 4219 1204 4116 
Q 875 4013 500 3803 
L 500 4441 
Q 881 4594 1212 4672 
Q 1544 4750 1819 4750 
Q 2544 4750 2975 4387 
Q 3406 4025 3406 3419 
Q 3406 3131 3298 2873 
Q 3191 2616 2906 2266 
Q 2828 2175 2409 1742 
Q 1991 1309 1228 531 
z
" transform="scale(0.015625)"/>
        <path id="DejaVuSans-35" d="M 691 4666 
L 3169 4666 
L 3169 4134 
L 1269 4134 
L 1269 2991 
Q 1406 3038 1543 3061 
Q 1681 3084 1819 3084 
Q 2600 3084 3056 2656 
Q 3513 2228 3513 1497 
Q 3513 744 3044 326 
Q 2575 -91 1722 -91 
Q 1428 -91 1123 -41 
Q 819 9 494 109 
L 494 744 
Q 775 591 1075 516 
Q 1375 441 1709 441 
Q 2250 441 2565 725 
Q 2881 1009 2881 1497 
Q 2881 1984 2565 2268 
Q 2250 2553 1709 2553 
Q 1456 2553 1204 2497 
Q 953 2441 691 2322 
L 691 4666 
z
" transform="scale(0.015625)"/>
       </defs>
       <use xlink:href="#DejaVuSans-32"/>
       <use xlink:href="#DejaVuSans-2e" x="63.623047"/>
       <use xlink:href="#DejaVuSans-35" x="95.410156"/>
      </g>
     </g>
    </g>
    <g id="xtick_3">
     <g id="line2d_3">
      <g>
       <use xlink:href="#me50c1ac32c" x="137.454221" y="273.312" style="stroke: #000000; stroke-width: 0.8"/>
      </g>
     </g>
     <g id="text_3">
      <!-- 5.0 -->
      <g transform="translate(129.502659 287.910437) scale(0.1 -0.1)">
       <use xlink:href="#DejaVuSans-35"/>
       <use xlink:href="#DejaVuSans-2e" x="63.623047"/>
       <use xlink:href="#DejaVuSans-30" x="95.410156"/>
      </g>
     </g>
    </g>
    <g id="xtick_4">
     <g id="line2d_4">
      <g>
       <use xlink:href="#me50c1ac32c" x="178.239968" y="273.312" style="stroke: #000000; stroke-width: 0.8"/>
      </g>
     </g>
     <g id="text_4">
      <!-- 7.5 -->
      <g transform="translate(170.288406 287.910437) scale(0.1 -0.1)">
       <defs>
        <path id="DejaVuSans-37" d="M 525 4666 
L 3525 4666 
L 3525 4397 
L 1831 0 
L 1172 0 
L 2766 4134 
L 525 4134 
L 525 4666 
z
" transform="scale(0.015625)"/>
       </defs>
       <use xlink:href="#DejaVuSans-37"/>
       <use xlink:href="#DejaVuSans-2e" x="63.623047"/>
       <use xlink:href="#DejaVuSans-35" x="95.410156"/>
      </g>
     </g>
    </g>
    <g id="xtick_5">
     <g id="line2d_5">
      <g>
       <use xlink:href="#me50c1ac32c" x="219.025715" y="273.312" style="stroke: #000000; stroke-width: 0.8"/>
      </g>
     </g>
     <g id="text_5">
      <!-- 10.0 -->
      <g transform="translate(207.892902 287.910437) scale(0.1 -0.1)">
       <defs>
        <path id="DejaVuSans-31" d="M 794 531 
L 1825 531 
L 1825 4091 
L 703 3866 
L 703 4441 
L 1819 4666 
L 2450 4666 
L 2450 531 
L 3481 531 
L 3481 0 
L 794 0 
L 794 531 
z
" transform="scale(0.015625)"/>
       </defs>
       <use xlink:href="#DejaVuSans-31"/>
       <use xlink:href="#DejaVuSans-30" x="63.623047"/>
       <use xlink:href="#DejaVuSans-2e" x="127.246094"/>
       <use xlink:href="#DejaVuSans-30" x="159.033203"/>
      </g>
     </g>
    </g>
    <g id="xtick_6">
     <g id="line2d_6">
      <g>
       <use xlink:href="#me50c1ac32c" x="259.811462" y="273.312" style="stroke: #000000; stroke-width: 0.8"/>
      </g>
     </g>
     <g id="text_6">
      <!-- 12.5 -->
      <g transform="translate(248.678649 287.910437) scale(0.1 -0.1)">
       <use xlink:href="#DejaVuSans-31"/>
       <use xlink:href="#DejaVuSans-32" x="63.623047"/>
       <use xlink:href="#DejaVuSans-2e" x="127.246094"/>
       <use xlink:href="#DejaVuSans-35" x="159.033203"/>
      </g>
     </g>
    </g>
    <g id="xtick_7">
     <g id="line2d_7">
      <g>
       <use xlink:href="#me50c1ac32c" x="300.597209" y="273.312" style="stroke: #000000; stroke-width: 0.8"/>
      </g>
     </g>
     <g id="text_7">
      <!-- 15.0 -->
      <g transform="translate(289.464396 287.910437) scale(0.1 -0.1)">
       <use xlink:href="#DejaVuSans-31"/>
       <use xlink:href="#DejaVuSans-35" x="63.623047"/>
       <use xlink:href="#DejaVuSans-2e" x="127.246094"/>
       <use xlink:href="#DejaVuSans-30" x="159.033203"/>
      </g>
     </g>
    </g>
    <g id="xtick_8">
     <g id="line2d_8">
      <g>
       <use xlink:href="#me50c1ac32c" x="341.382956" y="273.312" style="stroke: #000000; stroke-width: 0.8"/>
      </g>
     </g>
     <g id="text_8">
      <!-- 17.5 -->
      <g transform="translate(330.250143 287.910437) scale(0.1 -0.1)">
       <use xlink:href="#DejaVuSans-31"/>
       <use xlink:href="#DejaVuSans-37" x="63.623047"/>
       <use xlink:href="#DejaVuSans-2e" x="127.246094"/>
       <use xlink:href="#DejaVuSans-35" x="159.033203"/>
      </g>
     </g>
    </g>
    <g id="xtick_9">
     <g id="line2d_9">
      <g>
       <use xlink:href="#me50c1ac32c" x="382.168703" y="273.312" style="stroke: #000000; stroke-width: 0.8"/>
      </g>
     </g>
     <g id="text_9">
      <!-- 20.0 -->
      <g transform="translate(371.03589 287.910437) scale(0.1 -0.1)">
       <use xlink:href="#DejaVuSans-32"/>
       <use xlink:href="#DejaVuSans-30" x="63.623047"/>
       <use xlink:href="#DejaVuSans-2e" x="127.246094"/>
       <use xlink:href="#DejaVuSans-30" x="159.033203"/>
      </g>
     </g>
    </g>
   </g>
   <g id="matplotlib.axis_2">
    <g id="ytick_1">
     <g id="line2d_10">
      <defs>
       <path id="md17942e2b5" d="M 0 0 
L -3.5 0 
" style="stroke: #000000; stroke-width: 0.8"/>
      </defs>
      <g>
       <use xlink:href="#md17942e2b5" x="39.65" y="261.216" style="stroke: #000000; stroke-width: 0.8"/>
      </g>
     </g>
     <g id="text_10">
      <!-- 0 -->
      <g transform="translate(26.2875 265.015219) scale(0.1 -0.1)">
       <use xlink:href="#DejaVuSans-30"/>
      </g>
     </g>
    </g>
    <g id="ytick_2">
     <g id="line2d_11">
      <g>
       <use xlink:href="#md17942e2b5" x="39.65" y="226.862876" style="stroke: #000000; stroke-width: 0.8"/>
      </g>
     </g>
     <g id="text_11">
      <!-- 500 -->
      <g transform="translate(13.5625 230.662095) scale(0.1 -0.1)">
       <use xlink:href="#DejaVuSans-35"/>
       <use xlink:href="#DejaVuSans-30" x="63.623047"/>
       <use xlink:href="#DejaVuSans-30" x="127.246094"/>
      </g>
     </g>
    </g>
    <g id="ytick_3">
     <g id="line2d_12">
      <g>
       <use xlink:href="#md17942e2b5" x="39.65" y="192.509752" style="stroke: #000000; stroke-width: 0.8"/>
      </g>
     </g>
     <g id="text_12">
      <!-- 1000 -->
      <g transform="translate(7.2 196.308971) scale(0.1 -0.1)">
       <use xlink:href="#DejaVuSans-31"/>
       <use xlink:href="#DejaVuSans-30" x="63.623047"/>
       <use xlink:href="#DejaVuSans-30" x="127.246094"/>
       <use xlink:href="#DejaVuSans-30" x="190.869141"/>
      </g>
     </g>
    </g>
    <g id="ytick_4">
     <g id="line2d_13">
      <g>
       <use xlink:href="#md17942e2b5" x="39.65" y="158.156628" style="stroke: #000000; stroke-width: 0.8"/>
      </g>
     </g>
     <g id="text_13">
      <!-- 1500 -->
      <g transform="translate(7.2 161.955847) scale(0.1 -0.1)">
       <use xlink:href="#DejaVuSans-31"/>
       <use xlink:href="#DejaVuSans-35" x="63.623047"/>
       <use xlink:href="#DejaVuSans-30" x="127.246094"/>
       <use xlink:href="#DejaVuSans-30" x="190.869141"/>
      </g>
     </g>
    </g>
    <g id="ytick_5">
     <g id="line2d_14">
      <g>
       <use xlink:href="#md17942e2b5" x="39.65" y="123.803504" style="stroke: #000000; stroke-width: 0.8"/>
      </g>
     </g>
     <g id="text_14">
      <!-- 2000 -->
      <g transform="translate(7.2 127.602722) scale(0.1 -0.1)">
       <use xlink:href="#DejaVuSans-32"/>
       <use xlink:href="#DejaVuSans-30" x="63.623047"/>
       <use xlink:href="#DejaVuSans-30" x="127.246094"/>
       <use xlink:href="#DejaVuSans-30" x="190.869141"/>
      </g>
     </g>
    </g>
    <g id="ytick_6">
     <g id="line2d_15">
      <g>
       <use xlink:href="#md17942e2b5" x="39.65" y="89.45038" style="stroke: #000000; stroke-width: 0.8"/>
      </g>
     </g>
     <g id="text_15">
      <!-- 2500 -->
      <g transform="translate(7.2 93.249598) scale(0.1 -0.1)">
       <use xlink:href="#DejaVuSans-32"/>
       <use xlink:href="#DejaVuSans-35" x="63.623047"/>
       <use xlink:href="#DejaVuSans-30" x="127.246094"/>
       <use xlink:href="#DejaVuSans-30" x="190.869141"/>
      </g>
     </g>
    </g>
    <g id="ytick_7">
     <g id="line2d_16">
      <g>
       <use xlink:href="#md17942e2b5" x="39.65" y="55.097256" style="stroke: #000000; stroke-width: 0.8"/>
      </g>
     </g>
     <g id="text_16">
      <!-- 3000 -->
      <g transform="translate(7.2 58.896474) scale(0.1 -0.1)">
       <defs>
        <path id="DejaVuSans-33" d="M 2597 2516 
Q 3050 2419 3304 2112 
Q 3559 1806 3559 1356 
Q 3559 666 3084 287 
Q 2609 -91 1734 -91 
Q 1441 -91 1130 -33 
Q 819 25 488 141 
L 488 750 
Q 750 597 1062 519 
Q 1375 441 1716 441 
Q 2309 441 2620 675 
Q 2931 909 2931 1356 
Q 2931 1769 2642 2001 
Q 2353 2234 1838 2234 
L 1294 2234 
L 1294 2753 
L 1863 2753 
Q 2328 2753 2575 2939 
Q 2822 3125 2822 3475 
Q 2822 3834 2567 4026 
Q 2313 4219 1838 4219 
Q 1578 4219 1281 4162 
Q 984 4106 628 3988 
L 628 4550 
Q 988 4650 1302 4700 
Q 1616 4750 1894 4750 
Q 2613 4750 3031 4423 
Q 3450 4097 3450 3541 
Q 3450 3153 3228 2886 
Q 3006 2619 2597 2516 
z
" transform="scale(0.015625)"/>
       </defs>
       <use xlink:href="#DejaVuSans-33"/>
       <use xlink:href="#DejaVuSans-30" x="63.623047"/>
       <use xlink:href="#DejaVuSans-30" x="127.246094"/>
       <use xlink:href="#DejaVuSans-30" x="190.869141"/>
      </g>
     </g>
    </g>
    <g id="ytick_8">
     <g id="line2d_17">
      <g>
       <use xlink:href="#md17942e2b5" x="39.65" y="20.744132" style="stroke: #000000; stroke-width: 0.8"/>
      </g>
     </g>
     <g id="text_17">
      <!-- 3500 -->
      <g transform="translate(7.2 24.54335) scale(0.1 -0.1)">
       <use xlink:href="#DejaVuSans-33"/>
       <use xlink:href="#DejaVuSans-35" x="63.623047"/>
       <use xlink:href="#DejaVuSans-30" x="127.246094"/>
       <use xlink:href="#DejaVuSans-30" x="190.869141"/>
      </g>
     </g>
    </g>
   </g>
   <g id="line2d_18">
    <path d="M 55.882727 261.216 
L 72.197026 192.509752 
L 88.511325 143.281725 
L 104.825624 108.009844 
L 121.139922 82.737541 
L 137.454221 64.629936 
L 153.76852 51.655837 
L 170.082819 42.359895 
L 186.397117 35.699353 
L 202.711416 30.927074 
L 219.025715 27.507736 
L 235.340014 25.057781 
L 251.654312 23.302388 
L 267.968611 22.044649 
L 284.28291 21.143479 
L 300.597209 20.49779 
L 316.911508 20.035155 
L 333.225806 19.703676 
L 349.540105 19.466172 
L 365.854404 19.296 
" clip-path="url(#p46a449950b)" style="fill: none; stroke: #1f77b4; stroke-width: 1.5; stroke-linecap: square"/>
   </g>
   <g id="line2d_19">
    <path d="M 55.882727 261.216 
L 72.197026 261.216 
L 88.511325 238.313917 
L 104.825624 210.146646 
L 121.139922 183.928275 
L 137.454221 162.043662 
L 153.76852 144.772234 
L 170.082819 131.580383 
L 186.397117 121.709039 
L 202.711416 114.420911 
L 219.025715 109.088426 
L 235.340014 105.210949 
L 251.654312 102.4036 
L 267.968611 100.377177 
L 284.28291 98.917564 
L 300.597209 97.867809 
L 316.911508 97.113636 
L 333.225806 96.572231 
L 349.540105 96.183781 
L 365.854404 95.905183 
" clip-path="url(#p46a449950b)" style="fill: none; stroke: #ff7f0e; stroke-width: 1.5; stroke-linecap: square"/>
   </g>
   <g id="line2d_20">
    <path d="M 55.882727 261.216 
L 57.514157 254.207963 
L 59.145587 247.818282 
L 60.777017 240.398007 
L 62.408447 234.008326 
L 65.671307 223.771095 
L 67.302736 219.236482 
L 68.934166 213.533864 
L 70.565596 209.411489 
L 72.197026 204.533345 
L 73.828456 198.968139 
L 75.459886 193.883877 
L 78.722746 187.219371 
L 81.985605 180.967102 
L 83.617035 176.707315 
L 85.248465 171.829171 
L 86.879895 169.149627 
L 88.511325 164.615015 
L 90.142755 162.897359 
L 91.774185 160.080403 
L 93.405614 155.820615 
L 96.668474 147.988103 
L 98.299904 145.239853 
L 99.931334 141.735834 
L 101.562764 138.575347 
L 103.194194 136.376747 
L 104.825624 133.697203 
L 106.457053 131.979547 
L 109.719913 127.513641 
L 111.351343 124.696685 
L 114.614203 121.67361 
L 116.245633 121.192666 
L 117.877063 118.581829 
L 119.508492 117.207704 
L 121.139922 115.146516 
L 124.402782 113.222742 
L 126.034212 111.161554 
L 127.665642 107.726242 
L 129.297072 105.73376 
L 130.928502 104.290929 
L 132.559931 103.535161 
L 134.191361 100.649498 
L 135.822791 100.237261 
L 137.454221 100.168554 
L 139.085651 99.000548 
L 140.717081 96.389711 
L 142.348511 94.603348 
L 143.979941 91.511567 
L 145.61137 90.618386 
L 148.87423 88.488492 
L 150.50566 87.80143 
L 152.13709 85.259299 
L 153.76852 83.335524 
L 155.39995 82.236224 
L 157.03138 80.312449 
L 158.66281 80.10633 
L 160.294239 79.419267 
L 161.925669 77.632905 
L 163.557099 75.15948 
L 165.188529 75.915249 
L 166.819959 74.747243 
L 168.451389 74.128886 
L 170.082819 72.823468 
L 171.714249 71.174518 
L 173.345678 71.518049 
L 174.977108 72.205111 
L 176.608538 71.105811 
L 179.871398 70.143924 
L 181.502828 70.624868 
L 183.134258 69.731686 
L 184.765688 69.594274 
L 186.397117 68.01403 
L 188.028547 67.670499 
L 189.659977 66.708612 
L 192.922837 64.578718 
L 194.554267 63.891655 
L 196.185697 63.754243 
L 197.817127 64.647424 
L 199.448556 64.578718 
L 201.079986 63.479418 
L 202.711416 63.685537 
L 204.342846 63.754243 
L 205.974276 63.135887 
L 207.605706 63.135887 
L 209.237136 64.029068 
L 210.868566 63.342005 
L 212.499995 61.761762 
L 215.762855 62.173999 
L 217.394285 61.486937 
L 219.025715 61.280818 
L 220.657145 60.86858 
L 222.288575 61.212112 
L 223.920005 60.044105 
L 225.551434 60.387637 
L 227.182864 58.876099 
L 228.814294 59.288337 
L 230.445724 59.563162 
L 232.077154 59.563162 
L 233.708584 59.700574 
L 235.340014 59.975399 
L 236.971444 61.074699 
L 238.602873 60.044105 
L 241.865733 58.876099 
L 243.497163 59.76928 
L 245.128593 62.586237 
L 246.760023 62.242705 
L 248.391453 63.754243 
L 250.022883 63.61683 
L 251.654312 62.51753 
L 253.285742 61.624349 
L 254.917172 61.624349 
L 256.548602 60.250224 
L 258.180032 60.387637 
L 259.811462 60.112812 
L 261.442892 59.21963 
L 263.074322 59.013512 
L 264.705751 59.357043 
L 266.337181 58.944805 
L 267.968611 57.364562 
L 269.600041 57.708093 
L 271.231471 57.227149 
L 272.862901 57.364562 
L 274.494331 57.021031 
L 276.125761 56.127849 
L 277.75719 56.814912 
L 279.38862 56.746206 
L 281.02005 55.990437 
L 282.65148 56.471381 
L 284.28291 56.059143 
L 285.91434 56.540087 
L 287.54577 54.341487 
L 289.1772 54.135368 
L 290.80863 55.440787 
L 292.440059 55.440787 
L 294.071489 56.333968 
L 295.702919 53.517012 
L 297.334349 54.616312 
L 298.965779 53.585718 
L 300.597209 53.860543 
L 302.228639 54.616312 
L 303.860069 55.028549 
L 305.491498 53.997956 
L 307.122928 53.654424 
L 308.754358 54.272781 
L 310.385788 53.723131 
L 312.017218 53.036068 
L 313.648648 53.104774 
L 315.280078 51.936768 
L 316.911508 52.280299 
L 318.542937 51.455824 
L 323.437227 53.310893 
L 325.068657 54.066662 
L 326.700087 54.204074 
L 328.331517 55.715612 
L 329.962947 57.570681 
L 333.225806 56.059143 
L 334.857236 55.165962 
L 336.488666 56.059143 
L 338.120096 58.257743 
L 339.751526 57.914212 
L 341.382956 57.295856 
L 343.014386 58.120331 
L 344.645815 59.76928 
L 346.277245 59.357043 
L 347.908675 59.288337 
L 349.540105 59.082218 
L 351.171535 60.112812 
L 352.802965 59.150924 
L 354.434395 60.112812 
L 356.065825 58.463862 
L 357.697254 58.876099 
L 362.591544 58.66998 
L 364.222974 57.295856 
L 365.854404 57.433268 
L 367.485834 56.883618 
L 369.117264 54.478899 
L 370.748693 54.204074 
L 372.380123 53.585718 
L 375.642983 57.158443 
L 377.274413 57.708093 
L 378.905843 56.402674 
L 380.537273 56.608793 
L 380.537273 56.608793 
" clip-path="url(#p46a449950b)" style="fill: none; stroke: #2ca02c; stroke-width: 1.5; stroke-linecap: square"/>
   </g>
   <g id="line2d_21">
    <path d="M 55.882727 261.216 
L 59.145587 260.872469 
L 62.408447 259.360931 
L 64.039877 258.811281 
L 65.671307 258.055513 
L 67.302736 256.8188 
L 68.934166 255.375969 
L 70.565596 253.5209 
L 72.197026 252.352894 
L 73.828456 251.3223 
L 75.459886 249.948175 
L 77.091316 248.848875 
L 78.722746 247.47475 
L 80.354175 245.070032 
L 81.985605 243.902025 
L 83.617035 243.146257 
L 85.248465 241.634719 
L 86.879895 239.230001 
L 88.511325 237.443638 
L 90.142755 235.245038 
L 93.405614 232.428082 
L 95.037044 230.366895 
L 96.668474 228.580532 
L 98.299904 225.626163 
L 99.931334 224.183332 
L 101.562764 223.358857 
L 103.194194 221.709907 
L 104.825624 219.717426 
L 108.088483 214.907989 
L 109.719913 212.846801 
L 111.351343 211.816208 
L 112.982773 211.266558 
L 114.614203 209.136664 
L 117.877063 205.701352 
L 121.139922 202.815689 
L 122.771352 201.441564 
L 124.402782 199.723908 
L 126.034212 200.136145 
L 127.665642 199.998733 
L 129.297072 199.380377 
L 130.928502 197.594014 
L 132.559931 196.151183 
L 134.191361 196.563421 
L 135.822791 195.945064 
L 137.454221 194.708352 
L 139.085651 193.677758 
L 140.717081 193.059402 
L 143.979941 192.097514 
L 147.2428 188.799614 
L 148.87423 188.799614 
L 150.50566 187.837727 
L 152.13709 186.738427 
L 153.76852 186.051365 
L 155.39995 184.67724 
L 157.03138 184.12759 
L 158.66281 182.890877 
L 160.294239 180.692277 
L 161.925669 179.73039 
L 163.557099 179.386858 
L 165.188529 178.493677 
L 166.819959 178.012734 
L 168.451389 176.98214 
L 170.082819 176.707315 
L 171.714249 176.295077 
L 173.345678 173.959065 
L 174.977108 174.027771 
L 176.608538 174.78354 
L 178.239968 175.195777 
L 179.871398 174.096477 
L 181.502828 173.546827 
L 183.134258 173.890359 
L 184.765688 171.897877 
L 186.397117 172.03529 
L 188.028547 171.966584 
L 191.291407 172.58494 
L 192.922837 171.210815 
L 194.554267 172.103996 
L 196.185697 170.248927 
L 197.817127 168.943509 
L 199.448556 168.874803 
L 201.079986 168.462565 
L 202.711416 167.912915 
L 204.342846 168.943509 
L 205.974276 167.775503 
L 207.605706 166.401378 
L 209.237136 166.332671 
L 210.868566 166.607496 
L 212.499995 167.63809 
L 214.131425 165.98914 
L 215.762855 165.370784 
L 217.394285 165.095959 
L 219.025715 164.615015 
L 220.657145 163.378303 
L 222.288575 162.759946 
L 223.920005 161.179703 
L 225.551434 161.729353 
L 227.182864 163.172184 
L 228.814294 162.210296 
L 230.445724 161.798059 
L 232.077154 162.14159 
L 233.708584 161.729353 
L 235.340014 160.355228 
L 236.971444 159.599459 
L 238.602873 159.530753 
L 240.234303 160.286521 
L 243.497163 160.355228 
L 245.128593 158.706278 
L 246.760023 159.530753 
L 248.391453 159.255928 
L 250.022883 160.080403 
L 251.654312 159.805578 
L 253.285742 160.630053 
L 254.917172 159.94299 
L 256.548602 160.217815 
L 258.180032 159.94299 
L 259.811462 160.217815 
L 263.074322 160.355228 
L 264.705751 160.973584 
L 266.337181 160.217815 
L 267.968611 161.110996 
L 269.600041 160.011696 
L 271.231471 160.561346 
L 272.862901 160.217815 
L 274.494331 160.355228 
L 277.75719 159.187222 
L 279.38862 157.881803 
L 281.02005 159.255928 
L 282.65148 159.874284 
L 285.91434 160.286521 
L 289.1772 161.454528 
L 290.80863 161.179703 
L 292.440059 161.660646 
L 294.071489 159.736872 
L 295.702919 160.630053 
L 297.334349 161.04229 
L 300.597209 159.874284 
L 302.228639 160.080403 
L 303.860069 159.668165 
L 305.491498 160.49264 
L 307.122928 160.561346 
L 308.754358 159.94299 
L 310.385788 160.149109 
L 312.017218 160.149109 
L 315.280078 161.729353 
L 316.911508 161.385821 
L 318.542937 161.454528 
L 320.174367 161.248409 
L 321.805797 159.805578 
L 323.437227 159.94299 
L 325.068657 159.324634 
L 326.700087 159.255928 
L 328.331517 158.362747 
L 329.962947 156.301559 
L 331.594376 158.019215 
L 333.225806 158.362747 
L 334.857236 158.431453 
L 336.488666 157.400859 
L 338.120096 156.576384 
L 339.751526 157.469565 
L 341.382956 157.538272 
L 343.014386 158.156628 
L 344.645815 158.019215 
L 347.908675 159.324634 
L 349.540105 158.981103 
L 351.171535 158.981103 
L 352.802965 160.561346 
L 354.434395 159.599459 
L 356.065825 160.698759 
L 357.697254 162.072884 
L 359.328684 162.966065 
L 360.960114 161.523234 
L 362.591544 162.279003 
L 364.222974 162.210296 
L 365.854404 161.523234 
L 367.485834 161.935471 
L 369.117264 163.515715 
L 370.748693 163.996659 
L 372.380123 164.134071 
L 374.011553 162.828653 
L 375.642983 160.973584 
L 377.274413 160.973584 
L 378.905843 162.279003 
L 380.537273 163.172184 
L 380.537273 163.172184 
" clip-path="url(#p46a449950b)" style="fill: none; stroke: #d62728; stroke-width: 1.5; stroke-linecap: square"/>
   </g>
   <g id="patch_3">
    <path d="M 39.65 273.312 
L 39.65 7.2 
" style="fill: none; stroke: #000000; stroke-width: 0.8; stroke-linejoin: miter; stroke-linecap: square"/>
   </g>
   <g id="patch_4">
    <path d="M 396.77 273.312 
L 396.77 7.2 
" style="fill: none; stroke: #000000; stroke-width: 0.8; stroke-linejoin: miter; stroke-linecap: square"/>
   </g>
   <g id="patch_5">
    <path d="M 39.65 273.312 
L 396.77 273.312 
" style="fill: none; stroke: #000000; stroke-width: 0.8; stroke-linejoin: miter; stroke-linecap: square"/>
   </g>
   <g id="patch_6">
    <path d="M 39.65 7.2 
L 396.77 7.2 
" style="fill: none; stroke: #000000; stroke-width: 0.8; stroke-linejoin: miter; stroke-linecap: square"/>
   </g>
  </g>
 </g>
 <defs>
  <clipPath id="p46a449950b">
   <rect x="39.65" y="7.2" width="357.12" height="266.112"/>
  </clipPath>
 </defs>
</svg>
