<?xml version="1.0" encoding="utf-8" standalone="no"?>
<!DOCTYPE svg PUBLIC "-//W3C//DTD SVG 1.1//EN"
  "http://www.w3.org/Graphics/SVG/1.1/DTD/svg11.dtd">
<svg xmlns:xlink="http://www.w3.org/1999/xlink" width="397.6075pt" height="297.190125pt" viewBox="0 0 397.6075 297.190125" xmlns="http://www.w3.org/2000/svg" version="1.1">
 <metadata>
  <rdf:RDF xmlns:dc="http://purl.org/dc/elements/1.1/" xmlns:cc="http://creativecommons.org/ns#" xmlns:rdf="http://www.w3.org/1999/02/22-rdf-syntax-ns#">
   <cc:Work>
    <dc:type rdf:resource="http://purl.org/dc/dcmitype/StillImage"/>
    <dc:date>2024-07-12T03:04:10.392090</dc:date>
    <dc:format>image/svg+xml</dc:format>
    <dc:creator>
     <cc:Agent>
      <dc:title>Matplotlib v3.9.1, https://matplotlib.org/</dc:title>
     </cc:Agent>
    </dc:creator>
   </cc:Work>
  </rdf:RDF>
 </metadata>
 <defs>
  <style type="text/css">*{stroke-linejoin: round; stroke-linecap: butt}</style>
 </defs>
 <g id="figure_1">
  <g id="patch_1">
   <path d="M 0 297.190125 
L 397.6075 297.190125 
L 397.6075 0 
L 0 0 
z
" style="fill: #ffffff"/>
  </g>
  <g id="axes_1">
   <g id="patch_2">
    <path d="M 33.2875 273.312 
L 390.4075 273.312 
L 390.4075 7.2 
L 33.2875 7.2 
z
" style="fill: #ffffff"/>
   </g>
   <g id="matplotlib.axis_1">
    <g id="xtick_1">
     <g id="line2d_1">
      <defs>
       <path id="ma8ea08a576" d="M 0 0 
L 0 3.5 
" style="stroke: #000000; stroke-width: 0.8"/>
      </defs>
      <g>
       <use xlink:href="#ma8ea08a576" x="49.520227" y="273.312" style="stroke: #000000; stroke-width: 0.8"/>
      </g>
     </g>
     <g id="text_1">
      <!-- 0.0 -->
      <g transform="translate(41.568665 287.910437) scale(0.1 -0.1)">
       <defs>
        <path id="DejaVuSans-30" d="M 2034 4250 
Q 1547 4250 1301 3770 
Q 1056 3291 1056 2328 
Q 1056 1369 1301 889 
Q 1547 409 2034 409 
Q 2525 409 2770 889 
Q 3016 1369 3016 2328 
Q 3016 3291 2770 3770 
Q 2525 4250 2034 4250 
z
M 2034 4750 
Q 2819 4750 3233 4129 
Q 3647 3509 3647 2328 
Q 3647 1150 3233 529 
Q 2819 -91 2034 -91 
Q 1250 -91 836 529 
Q 422 1150 422 2328 
Q 422 3509 836 4129 
Q 1250 4750 2034 4750 
z
" transform="scale(0.015625)"/>
        <path id="DejaVuSans-2e" d="M 684 794 
L 1344 794 
L 1344 0 
L 684 0 
L 684 794 
z
" transform="scale(0.015625)"/>
       </defs>
       <use xlink:href="#DejaVuSans-30"/>
       <use xlink:href="#DejaVuSans-2e" x="63.623047"/>
       <use xlink:href="#DejaVuSans-30" x="95.410156"/>
      </g>
     </g>
    </g>
    <g id="xtick_2">
     <g id="line2d_2">
      <g>
       <use xlink:href="#ma8ea08a576" x="90.305974" y="273.312" style="stroke: #000000; stroke-width: 0.8"/>
      </g>
     </g>
     <g id="text_2">
      <!-- 2.5 -->
      <g transform="translate(82.354412 287.910437) scale(0.1 -0.1)">
       <defs>
        <path id="DejaVuSans-32" d="M 1228 531 
L 3431 531 
L 3431 0 
L 469 0 
L 469 531 
Q 828 903 1448 1529 
Q 2069 2156 2228 2338 
Q 2531 2678 2651 2914 
Q 2772 3150 2772 3378 
Q 2772 3750 2511 3984 
Q 2250 4219 1831 4219 
Q 1534 4219 1204 4116 
Q 875 4013 500 3803 
L 500 4441 
Q 881 4594 1212 4672 
Q 1544 4750 1819 4750 
Q 2544 4750 2975 4387 
Q 3406 4025 3406 3419 
Q 3406 3131 3298 2873 
Q 3191 2616 2906 2266 
Q 2828 2175 2409 1742 
Q 1991 1309 1228 531 
z
" transform="scale(0.015625)"/>
        <path id="DejaVuSans-35" d="M 691 4666 
L 3169 4666 
L 3169 4134 
L 1269 4134 
L 1269 2991 
Q 1406 3038 1543 3061 
Q 1681 3084 1819 3084 
Q 2600 3084 3056 2656 
Q 3513 2228 3513 1497 
Q 3513 744 3044 326 
Q 2575 -91 1722 -91 
Q 1428 -91 1123 -41 
Q 819 9 494 109 
L 494 744 
Q 775 591 1075 516 
Q 1375 441 1709 441 
Q 2250 441 2565 725 
Q 2881 1009 2881 1497 
Q 2881 1984 2565 2268 
Q 2250 2553 1709 2553 
Q 1456 2553 1204 2497 
Q 953 2441 691 2322 
L 691 4666 
z
" transform="scale(0.015625)"/>
       </defs>
       <use xlink:href="#DejaVuSans-32"/>
       <use xlink:href="#DejaVuSans-2e" x="63.623047"/>
       <use xlink:href="#DejaVuSans-35" x="95.410156"/>
      </g>
     </g>
    </g>
    <g id="xtick_3">
     <g id="line2d_3">
      <g>
       <use xlink:href="#ma8ea08a576" x="131.091721" y="273.312" style="stroke: #000000; stroke-width: 0.8"/>
      </g>
     </g>
     <g id="text_3">
      <!-- 5.0 -->
      <g transform="translate(123.140159 287.910437) scale(0.1 -0.1)">
       <use xlink:href="#DejaVuSans-35"/>
       <use xlink:href="#DejaVuSans-2e" x="63.623047"/>
       <use xlink:href="#DejaVuSans-30" x="95.410156"/>
      </g>
     </g>
    </g>
    <g id="xtick_4">
     <g id="line2d_4">
      <g>
       <use xlink:href="#ma8ea08a576" x="171.877468" y="273.312" style="stroke: #000000; stroke-width: 0.8"/>
      </g>
     </g>
     <g id="text_4">
      <!-- 7.5 -->
      <g transform="translate(163.925906 287.910437) scale(0.1 -0.1)">
       <defs>
        <path id="DejaVuSans-37" d="M 525 4666 
L 3525 4666 
L 3525 4397 
L 1831 0 
L 1172 0 
L 2766 4134 
L 525 4134 
L 525 4666 
z
" transform="scale(0.015625)"/>
       </defs>
       <use xlink:href="#DejaVuSans-37"/>
       <use xlink:href="#DejaVuSans-2e" x="63.623047"/>
       <use xlink:href="#DejaVuSans-35" x="95.410156"/>
      </g>
     </g>
    </g>
    <g id="xtick_5">
     <g id="line2d_5">
      <g>
       <use xlink:href="#ma8ea08a576" x="212.663215" y="273.312" style="stroke: #000000; stroke-width: 0.8"/>
      </g>
     </g>
     <g id="text_5">
      <!-- 10.0 -->
      <g transform="translate(201.530402 287.910437) scale(0.1 -0.1)">
       <defs>
        <path id="DejaVuSans-31" d="M 794 531 
L 1825 531 
L 1825 4091 
L 703 3866 
L 703 4441 
L 1819 4666 
L 2450 4666 
L 2450 531 
L 3481 531 
L 3481 0 
L 794 0 
L 794 531 
z
" transform="scale(0.015625)"/>
       </defs>
       <use xlink:href="#DejaVuSans-31"/>
       <use xlink:href="#DejaVuSans-30" x="63.623047"/>
       <use xlink:href="#DejaVuSans-2e" x="127.246094"/>
       <use xlink:href="#DejaVuSans-30" x="159.033203"/>
      </g>
     </g>
    </g>
    <g id="xtick_6">
     <g id="line2d_6">
      <g>
       <use xlink:href="#ma8ea08a576" x="253.448962" y="273.312" style="stroke: #000000; stroke-width: 0.8"/>
      </g>
     </g>
     <g id="text_6">
      <!-- 12.5 -->
      <g transform="translate(242.316149 287.910437) scale(0.1 -0.1)">
       <use xlink:href="#DejaVuSans-31"/>
       <use xlink:href="#DejaVuSans-32" x="63.623047"/>
       <use xlink:href="#DejaVuSans-2e" x="127.246094"/>
       <use xlink:href="#DejaVuSans-35" x="159.033203"/>
      </g>
     </g>
    </g>
    <g id="xtick_7">
     <g id="line2d_7">
      <g>
       <use xlink:href="#ma8ea08a576" x="294.234709" y="273.312" style="stroke: #000000; stroke-width: 0.8"/>
      </g>
     </g>
     <g id="text_7">
      <!-- 15.0 -->
      <g transform="translate(283.101896 287.910437) scale(0.1 -0.1)">
       <use xlink:href="#DejaVuSans-31"/>
       <use xlink:href="#DejaVuSans-35" x="63.623047"/>
       <use xlink:href="#DejaVuSans-2e" x="127.246094"/>
       <use xlink:href="#DejaVuSans-30" x="159.033203"/>
      </g>
     </g>
    </g>
    <g id="xtick_8">
     <g id="line2d_8">
      <g>
       <use xlink:href="#ma8ea08a576" x="335.020456" y="273.312" style="stroke: #000000; stroke-width: 0.8"/>
      </g>
     </g>
     <g id="text_8">
      <!-- 17.5 -->
      <g transform="translate(323.887643 287.910437) scale(0.1 -0.1)">
       <use xlink:href="#DejaVuSans-31"/>
       <use xlink:href="#DejaVuSans-37" x="63.623047"/>
       <use xlink:href="#DejaVuSans-2e" x="127.246094"/>
       <use xlink:href="#DejaVuSans-35" x="159.033203"/>
      </g>
     </g>
    </g>
    <g id="xtick_9">
     <g id="line2d_9">
      <g>
       <use xlink:href="#ma8ea08a576" x="375.806203" y="273.312" style="stroke: #000000; stroke-width: 0.8"/>
      </g>
     </g>
     <g id="text_9">
      <!-- 20.0 -->
      <g transform="translate(364.67339 287.910437) scale(0.1 -0.1)">
       <use xlink:href="#DejaVuSans-32"/>
       <use xlink:href="#DejaVuSans-30" x="63.623047"/>
       <use xlink:href="#DejaVuSans-2e" x="127.246094"/>
       <use xlink:href="#DejaVuSans-30" x="159.033203"/>
      </g>
     </g>
    </g>
   </g>
   <g id="matplotlib.axis_2">
    <g id="ytick_1">
     <g id="line2d_10">
      <defs>
       <path id="m8c0a213769" d="M 0 0 
L -3.5 0 
" style="stroke: #000000; stroke-width: 0.8"/>
      </defs>
      <g>
       <use xlink:href="#m8c0a213769" x="33.2875" y="261.216" style="stroke: #000000; stroke-width: 0.8"/>
      </g>
     </g>
     <g id="text_10">
      <!-- 0 -->
      <g transform="translate(19.925 265.015219) scale(0.1 -0.1)">
       <use xlink:href="#DejaVuSans-30"/>
      </g>
     </g>
    </g>
    <g id="ytick_2">
     <g id="line2d_11">
      <g>
       <use xlink:href="#m8c0a213769" x="33.2875" y="219.64899" style="stroke: #000000; stroke-width: 0.8"/>
      </g>
     </g>
     <g id="text_11">
      <!-- 50 -->
      <g transform="translate(13.5625 223.448208) scale(0.1 -0.1)">
       <use xlink:href="#DejaVuSans-35"/>
       <use xlink:href="#DejaVuSans-30" x="63.623047"/>
      </g>
     </g>
    </g>
    <g id="ytick_3">
     <g id="line2d_12">
      <g>
       <use xlink:href="#m8c0a213769" x="33.2875" y="178.081979" style="stroke: #000000; stroke-width: 0.8"/>
      </g>
     </g>
     <g id="text_12">
      <!-- 100 -->
      <g transform="translate(7.2 181.881198) scale(0.1 -0.1)">
       <use xlink:href="#DejaVuSans-31"/>
       <use xlink:href="#DejaVuSans-30" x="63.623047"/>
       <use xlink:href="#DejaVuSans-30" x="127.246094"/>
      </g>
     </g>
    </g>
    <g id="ytick_4">
     <g id="line2d_13">
      <g>
       <use xlink:href="#m8c0a213769" x="33.2875" y="136.514969" style="stroke: #000000; stroke-width: 0.8"/>
      </g>
     </g>
     <g id="text_13">
      <!-- 150 -->
      <g transform="translate(7.2 140.314188) scale(0.1 -0.1)">
       <use xlink:href="#DejaVuSans-31"/>
       <use xlink:href="#DejaVuSans-35" x="63.623047"/>
       <use xlink:href="#DejaVuSans-30" x="127.246094"/>
      </g>
     </g>
    </g>
    <g id="ytick_5">
     <g id="line2d_14">
      <g>
       <use xlink:href="#m8c0a213769" x="33.2875" y="94.947959" style="stroke: #000000; stroke-width: 0.8"/>
      </g>
     </g>
     <g id="text_14">
      <!-- 200 -->
      <g transform="translate(7.2 98.747178) scale(0.1 -0.1)">
       <use xlink:href="#DejaVuSans-32"/>
       <use xlink:href="#DejaVuSans-30" x="63.623047"/>
       <use xlink:href="#DejaVuSans-30" x="127.246094"/>
      </g>
     </g>
    </g>
    <g id="ytick_6">
     <g id="line2d_15">
      <g>
       <use xlink:href="#m8c0a213769" x="33.2875" y="53.380948" style="stroke: #000000; stroke-width: 0.8"/>
      </g>
     </g>
     <g id="text_15">
      <!-- 250 -->
      <g transform="translate(7.2 57.180167) scale(0.1 -0.1)">
       <use xlink:href="#DejaVuSans-32"/>
       <use xlink:href="#DejaVuSans-35" x="63.623047"/>
       <use xlink:href="#DejaVuSans-30" x="127.246094"/>
      </g>
     </g>
    </g>
    <g id="ytick_7">
     <g id="line2d_16">
      <g>
       <use xlink:href="#m8c0a213769" x="33.2875" y="11.813938" style="stroke: #000000; stroke-width: 0.8"/>
      </g>
     </g>
     <g id="text_16">
      <!-- 300 -->
      <g transform="translate(7.2 15.613157) scale(0.1 -0.1)">
       <defs>
        <path id="DejaVuSans-33" d="M 2597 2516 
Q 3050 2419 3304 2112 
Q 3559 1806 3559 1356 
Q 3559 666 3084 287 
Q 2609 -91 1734 -91 
Q 1441 -91 1130 -33 
Q 819 25 488 141 
L 488 750 
Q 750 597 1062 519 
Q 1375 441 1716 441 
Q 2309 441 2620 675 
Q 2931 909 2931 1356 
Q 2931 1769 2642 2001 
Q 2353 2234 1838 2234 
L 1294 2234 
L 1294 2753 
L 1863 2753 
Q 2328 2753 2575 2939 
Q 2822 3125 2822 3475 
Q 2822 3834 2567 4026 
Q 2313 4219 1838 4219 
Q 1578 4219 1281 4162 
Q 984 4106 628 3988 
L 628 4550 
Q 988 4650 1302 4700 
Q 1616 4750 1894 4750 
Q 2613 4750 3031 4423 
Q 3450 4097 3450 3541 
Q 3450 3153 3228 2886 
Q 3006 2619 2597 2516 
z
" transform="scale(0.015625)"/>
       </defs>
       <use xlink:href="#DejaVuSans-33"/>
       <use xlink:href="#DejaVuSans-30" x="63.623047"/>
       <use xlink:href="#DejaVuSans-30" x="127.246094"/>
      </g>
     </g>
    </g>
   </g>
   <g id="line2d_17">
    <path d="M 49.520227 261.216 
L 51.151657 193.046103 
L 52.783087 151.479093 
L 54.414517 116.562804 
L 56.045947 93.285278 
L 57.677377 84.971876 
L 59.308807 74.995794 
L 60.940236 63.357031 
L 62.571666 59.20033 
L 64.203096 60.03167 
L 65.834526 60.03167 
L 67.465956 55.043629 
L 69.097386 60.86301 
L 70.728816 65.019711 
L 72.360246 52.549608 
L 73.991675 54.212289 
L 75.623105 62.525691 
L 77.254535 42.573526 
L 78.885965 44.236206 
L 80.517395 40.079505 
L 82.148825 44.236206 
L 83.780255 62.525691 
L 85.411685 59.20033 
L 87.043114 65.019711 
L 88.674544 65.019711 
L 90.305974 62.525691 
L 95.200264 65.019711 
L 96.831694 59.20033 
L 98.463124 68.345072 
L 100.094553 63.357031 
L 101.725983 50.055588 
L 104.988843 53.380948 
L 106.620273 47.561567 
L 108.251703 35.922804 
L 109.883133 49.224247 
L 111.514563 49.224247 
L 113.145992 35.922804 
L 114.777422 46.730227 
L 116.408852 51.718268 
L 118.040282 45.067546 
L 119.671712 45.898887 
L 121.303142 48.392907 
L 122.934572 48.392907 
L 124.566002 49.224247 
L 126.197431 59.20033 
L 127.828861 54.212289 
L 129.460291 60.86301 
L 131.091721 53.380948 
L 132.723151 44.236206 
L 134.354581 38.416825 
L 135.986011 55.043629 
L 137.617441 62.525691 
L 139.24887 48.392907 
L 140.8803 46.730227 
L 142.51173 54.212289 
L 144.14316 62.525691 
L 145.77459 58.36899 
L 147.40602 51.718268 
L 149.03745 62.525691 
L 150.66888 55.874969 
L 152.30031 59.20033 
L 153.931739 58.36899 
L 155.563169 68.345072 
L 157.194599 64.188371 
L 158.826029 59.20033 
L 160.457459 47.561567 
L 162.088889 60.03167 
L 163.720319 67.513732 
L 165.351749 60.86301 
L 166.983178 61.694351 
L 168.614608 66.682392 
L 170.246038 58.36899 
L 171.877468 42.573526 
L 173.508898 50.055588 
L 175.140328 45.898887 
L 176.771758 43.404866 
L 178.403188 61.694351 
L 180.034617 64.188371 
L 181.666047 55.043629 
L 183.297477 50.055588 
L 184.928907 55.043629 
L 186.560337 50.055588 
L 188.191767 59.20033 
L 189.823197 52.549608 
L 191.454627 40.910845 
L 193.086056 43.404866 
L 194.717486 58.36899 
L 196.348916 69.176412 
L 197.980346 74.995794 
L 199.611776 79.152495 
L 201.243206 70.007753 
L 202.874636 63.357031 
L 204.506066 53.380948 
L 206.137495 60.03167 
L 207.768925 53.380948 
L 209.400355 47.561567 
L 211.031785 58.36899 
L 212.663215 55.874969 
L 214.294645 60.86301 
L 215.926075 50.055588 
L 217.557505 56.706309 
L 219.188934 62.525691 
L 220.820364 79.983835 
L 222.451794 70.839093 
L 224.083224 62.525691 
L 225.714654 68.345072 
L 227.346084 74.995794 
L 228.977514 74.164454 
L 230.608944 70.839093 
L 232.240373 73.333113 
L 233.871803 57.537649 
L 235.503233 56.706309 
L 237.134663 52.549608 
L 238.766093 56.706309 
L 240.397523 51.718268 
L 242.028953 50.886928 
L 243.660383 56.706309 
L 245.291812 56.706309 
L 246.923242 60.03167 
L 248.554672 60.86301 
L 250.186102 51.718268 
L 251.817532 53.380948 
L 253.448962 39.248165 
L 255.080392 40.910845 
L 256.711822 40.079505 
L 258.343251 49.224247 
L 259.974681 47.561567 
L 261.606111 43.404866 
L 263.237541 40.079505 
L 264.868971 34.260124 
L 266.500401 40.079505 
L 268.131831 42.573526 
L 269.763261 50.055588 
L 271.39469 60.86301 
L 273.02612 54.212289 
L 274.65755 50.886928 
L 276.28898 45.067546 
L 277.92041 53.380948 
L 279.55184 63.357031 
L 281.18327 61.694351 
L 282.8147 69.176412 
L 284.44613 71.670433 
L 286.077559 73.333113 
L 287.708989 76.658474 
L 289.340419 69.176412 
L 290.971849 69.176412 
L 292.603279 58.36899 
L 294.234709 62.525691 
L 295.866139 59.20033 
L 297.497569 65.851052 
L 299.128998 58.36899 
L 300.760428 56.706309 
L 302.391858 55.874969 
L 304.023288 50.055588 
L 305.654718 35.091464 
L 307.286148 58.36899 
L 308.917578 30.103423 
L 310.549008 45.898887 
L 312.180437 56.706309 
L 313.811867 59.20033 
L 315.443297 58.36899 
L 317.074727 50.055588 
L 318.706157 55.043629 
L 320.337587 61.694351 
L 321.969017 59.20033 
L 323.600447 63.357031 
L 325.231876 66.682392 
L 326.863306 77.489814 
L 328.494736 69.176412 
L 330.126166 57.537649 
L 331.757596 54.212289 
L 333.389026 51.718268 
L 335.020456 55.874969 
L 336.651886 54.212289 
L 338.283315 55.043629 
L 339.914745 57.537649 
L 341.546175 57.537649 
L 343.177605 68.345072 
L 344.809035 55.043629 
L 348.071895 65.019711 
L 349.703325 65.019711 
L 351.334754 62.525691 
L 352.966184 71.670433 
L 354.597614 62.525691 
L 356.229044 62.525691 
L 357.860474 56.706309 
L 359.491904 55.874969 
L 361.123334 38.416825 
L 362.754764 36.754144 
L 364.386193 42.573526 
L 366.017623 50.886928 
L 367.649053 53.380948 
L 369.280483 50.886928 
L 370.911913 65.851052 
L 372.543343 79.152495 
L 374.174773 72.501773 
L 374.174773 72.501773 
" clip-path="url(#p82dfb177fc)" style="fill: none; stroke: #1f77b4; stroke-width: 1.5; stroke-linecap: square"/>
   </g>
   <g id="line2d_18">
    <path d="M 49.520227 261.216 
L 51.151657 247.914557 
L 54.414517 188.058062 
L 56.045947 163.949196 
L 57.677377 138.177649 
L 62.571666 92.453938 
L 64.203096 79.983835 
L 65.834526 74.164454 
L 67.465956 75.827134 
L 69.097386 60.03167 
L 70.728816 50.055588 
L 72.360246 55.874969 
L 75.623105 44.236206 
L 77.254535 62.525691 
L 78.885965 52.549608 
L 80.517395 47.561567 
L 82.148825 45.067546 
L 83.780255 31.766103 
L 85.411685 36.754144 
L 87.043114 39.248165 
L 88.674544 50.055588 
L 90.305974 54.212289 
L 91.937404 51.718268 
L 93.568834 46.730227 
L 95.200264 51.718268 
L 96.831694 45.067546 
L 98.463124 19.296 
L 100.094553 30.103423 
L 101.725983 48.392907 
L 103.357413 40.079505 
L 104.988843 45.067546 
L 106.620273 60.86301 
L 108.251703 65.019711 
L 109.883133 44.236206 
L 111.514563 48.392907 
L 113.145992 62.525691 
L 114.777422 50.055588 
L 116.408852 40.910845 
L 118.040282 52.549608 
L 119.671712 65.019711 
L 121.303142 55.874969 
L 122.934572 56.706309 
L 124.566002 52.549608 
L 126.197431 35.922804 
L 127.828861 43.404866 
L 129.460291 32.597443 
L 131.091721 46.730227 
L 132.723151 58.36899 
L 134.354581 64.188371 
L 135.986011 55.874969 
L 137.617441 54.212289 
L 139.24887 62.525691 
L 140.8803 65.019711 
L 142.51173 51.718268 
L 144.14316 55.043629 
L 145.77459 50.886928 
L 147.40602 51.718268 
L 149.03745 44.236206 
L 150.66888 53.380948 
L 152.30031 50.886928 
L 153.931739 46.730227 
L 155.563169 33.428784 
L 157.194599 47.561567 
L 158.826029 47.561567 
L 160.457459 66.682392 
L 162.088889 41.742186 
L 163.720319 46.730227 
L 165.351749 53.380948 
L 166.983178 58.36899 
L 168.614608 56.706309 
L 170.246038 52.549608 
L 171.877468 63.357031 
L 173.508898 51.718268 
L 175.140328 55.874969 
L 176.771758 60.86301 
L 178.403188 43.404866 
L 180.034617 45.067546 
L 181.666047 59.20033 
L 183.297477 62.525691 
L 184.928907 45.898887 
L 186.560337 42.573526 
L 188.191767 33.428784 
L 189.823197 35.091464 
L 191.454627 59.20033 
L 193.086056 55.874969 
L 194.717486 40.079505 
L 196.348916 42.573526 
L 197.980346 44.236206 
L 199.611776 54.212289 
L 201.243206 61.694351 
L 202.874636 74.164454 
L 204.506066 67.513732 
L 206.137495 55.874969 
L 207.768925 67.513732 
L 209.400355 62.525691 
L 211.031785 43.404866 
L 212.663215 49.224247 
L 214.294645 44.236206 
L 215.926075 51.718268 
L 217.557505 44.236206 
L 219.188934 32.597443 
L 220.820364 19.296 
L 222.451794 35.091464 
L 224.083224 43.404866 
L 225.714654 32.597443 
L 227.346084 27.609402 
L 228.977514 59.20033 
L 230.608944 71.670433 
L 232.240373 67.513732 
L 233.871803 79.983835 
L 235.503233 65.851052 
L 237.134663 67.513732 
L 238.766093 57.537649 
L 240.397523 62.525691 
L 242.028953 58.36899 
L 243.660383 66.682392 
L 245.291812 76.658474 
L 246.923242 60.86301 
L 248.554672 51.718268 
L 250.186102 72.501773 
L 251.817532 49.224247 
L 253.448962 65.851052 
L 255.080392 69.176412 
L 258.343251 64.188371 
L 259.974681 62.525691 
L 261.606111 55.874969 
L 263.237541 50.886928 
L 264.868971 49.224247 
L 266.500401 36.754144 
L 268.131831 34.260124 
L 269.763261 36.754144 
L 271.39469 27.609402 
L 273.02612 48.392907 
L 274.65755 55.043629 
L 276.28898 60.03167 
L 277.92041 54.212289 
L 279.55184 43.404866 
L 281.18327 47.561567 
L 282.8147 40.910845 
L 284.44613 50.886928 
L 286.077559 50.055588 
L 287.708989 48.392907 
L 289.340419 60.03167 
L 290.971849 44.236206 
L 292.603279 56.706309 
L 294.234709 38.416825 
L 295.866139 51.718268 
L 297.497569 57.537649 
L 299.128998 70.007753 
L 300.760428 57.537649 
L 302.391858 58.36899 
L 304.023288 49.224247 
L 305.654718 61.694351 
L 307.286148 42.573526 
L 308.917578 71.670433 
L 310.549008 60.86301 
L 312.180437 38.416825 
L 313.811867 39.248165 
L 315.443297 43.404866 
L 317.074727 55.874969 
L 320.337587 44.236206 
L 321.969017 52.549608 
L 323.600447 49.224247 
L 325.231876 40.079505 
L 326.863306 39.248165 
L 328.494736 43.404866 
L 330.126166 57.537649 
L 331.757596 45.067546 
L 333.389026 47.561567 
L 335.020456 42.573526 
L 336.651886 60.03167 
L 338.283315 50.886928 
L 339.914745 43.404866 
L 341.546175 43.404866 
L 343.177605 32.597443 
L 346.440465 42.573526 
L 348.071895 35.091464 
L 349.703325 45.898887 
L 351.334754 45.067546 
L 352.966184 29.272082 
L 354.597614 22.621361 
L 356.229044 50.055588 
L 357.860474 60.86301 
L 359.491904 63.357031 
L 361.123334 83.309196 
L 364.386193 68.345072 
L 366.017623 63.357031 
L 367.649053 55.874969 
L 369.280483 57.537649 
L 372.543343 28.440742 
L 374.174773 43.404866 
L 374.174773 43.404866 
" clip-path="url(#p82dfb177fc)" style="fill: none; stroke: #ff7f0e; stroke-width: 1.5; stroke-linecap: square"/>
   </g>
   <g id="patch_3">
    <path d="M 33.2875 273.312 
L 33.2875 7.2 
" style="fill: none; stroke: #000000; stroke-width: 0.8; stroke-linejoin: miter; stroke-linecap: square"/>
   </g>
   <g id="patch_4">
    <path d="M 390.4075 273.312 
L 390.4075 7.2 
" style="fill: none; stroke: #000000; stroke-width: 0.8; stroke-linejoin: miter; stroke-linecap: square"/>
   </g>
   <g id="patch_5">
    <path d="M 33.2875 273.312 
L 390.4075 273.312 
" style="fill: none; stroke: #000000; stroke-width: 0.8; stroke-linejoin: miter; stroke-linecap: square"/>
   </g>
   <g id="patch_6">
    <path d="M 33.2875 7.2 
L 390.4075 7.2 
" style="fill: none; stroke: #000000; stroke-width: 0.8; stroke-linejoin: miter; stroke-linecap: square"/>
   </g>
  </g>
 </g>
 <defs>
  <clipPath id="p82dfb177fc">
   <rect x="33.2875" y="7.2" width="357.12" height="266.112"/>
  </clipPath>
 </defs>
</svg>
