<?xml version="1.0" encoding="utf-8" standalone="no"?>
<!DOCTYPE svg PUBLIC "-//W3C//DTD SVG 1.1//EN"
  "http://www.w3.org/Graphics/SVG/1.1/DTD/svg11.dtd">
<svg xmlns:xlink="http://www.w3.org/1999/xlink" width="417.648125pt" height="310.86825pt" viewBox="0 0 417.648125 310.86825" xmlns="http://www.w3.org/2000/svg" version="1.1">
 <metadata>
  <rdf:RDF xmlns:dc="http://purl.org/dc/elements/1.1/" xmlns:cc="http://creativecommons.org/ns#" xmlns:rdf="http://www.w3.org/1999/02/22-rdf-syntax-ns#">
   <cc:Work>
    <dc:type rdf:resource="http://purl.org/dc/dcmitype/StillImage"/>
    <dc:date>2026-01-28T00:00:13.072314</dc:date>
    <dc:format>image/svg+xml</dc:format>
    <dc:creator>
     <cc:Agent>
      <dc:title>Matplotlib v3.10.8, https://matplotlib.org/</dc:title>
     </cc:Agent>
    </dc:creator>
   </cc:Work>
  </rdf:RDF>
 </metadata>
 <defs>
  <style type="text/css">*{stroke-linejoin: round; stroke-linecap: butt}</style>
 </defs>
 <g id="figure_1">
  <g id="patch_1">
   <path d="M 0 310.86825 
L 417.648125 310.86825 
L 417.648125 0 
L 0 0 
z
" style="fill: #ffffff"/>
  </g>
  <g id="axes_1">
   <g id="patch_2">
    <path d="M 53.328125 273.312 
L 410.448125 273.312 
L 410.448125 7.2 
L 53.328125 7.2 
z
" style="fill: #ffffff"/>
   </g>
   <g id="matplotlib.axis_1">
    <g id="xtick_1">
     <g id="line2d_1">
      <defs>
       <path id="m70e6dca171" d="M 0 0 
L 0 3.5 
" style="stroke: #000000; stroke-width: 0.8"/>
      </defs>
      <g>
       <use xlink:href="#m70e6dca171" x="69.560852" y="273.312" style="stroke: #000000; stroke-width: 0.8"/>
      </g>
     </g>
     <g id="text_1">
      <!-- 0.0 -->
      <g transform="translate(61.60929 287.910437) scale(0.1 -0.1)">
       <defs>
        <path id="DejaVuSans-30" d="M 2034 4250 
Q 1547 4250 1301 3770 
Q 1056 3291 1056 2328 
Q 1056 1369 1301 889 
Q 1547 409 2034 409 
Q 2525 409 2770 889 
Q 3016 1369 3016 2328 
Q 3016 3291 2770 3770 
Q 2525 4250 2034 4250 
z
M 2034 4750 
Q 2819 4750 3233 4129 
Q 3647 3509 3647 2328 
Q 3647 1150 3233 529 
Q 2819 -91 2034 -91 
Q 1250 -91 836 529 
Q 422 1150 422 2328 
Q 422 3509 836 4129 
Q 1250 4750 2034 4750 
z
" transform="scale(0.015625)"/>
        <path id="DejaVuSans-2e" d="M 684 794 
L 1344 794 
L 1344 0 
L 684 0 
L 684 794 
z
" transform="scale(0.015625)"/>
       </defs>
       <use xlink:href="#DejaVuSans-30"/>
       <use xlink:href="#DejaVuSans-2e" transform="translate(63.623047 0)"/>
       <use xlink:href="#DejaVuSans-30" transform="translate(95.410156 0)"/>
      </g>
     </g>
    </g>
    <g id="xtick_2">
     <g id="line2d_2">
      <g>
       <use xlink:href="#m70e6dca171" x="110.346599" y="273.312" style="stroke: #000000; stroke-width: 0.8"/>
      </g>
     </g>
     <g id="text_2">
      <!-- 2.5 -->
      <g transform="translate(102.395037 287.910437) scale(0.1 -0.1)">
       <defs>
        <path id="DejaVuSans-32" d="M 1228 531 
L 3431 531 
L 3431 0 
L 469 0 
L 469 531 
Q 828 903 1448 1529 
Q 2069 2156 2228 2338 
Q 2531 2678 2651 2914 
Q 2772 3150 2772 3378 
Q 2772 3750 2511 3984 
Q 2250 4219 1831 4219 
Q 1534 4219 1204 4116 
Q 875 4013 500 3803 
L 500 4441 
Q 881 4594 1212 4672 
Q 1544 4750 1819 4750 
Q 2544 4750 2975 4387 
Q 3406 4025 3406 3419 
Q 3406 3131 3298 2873 
Q 3191 2616 2906 2266 
Q 2828 2175 2409 1742 
Q 1991 1309 1228 531 
z
" transform="scale(0.015625)"/>
        <path id="DejaVuSans-35" d="M 691 4666 
L 3169 4666 
L 3169 4134 
L 1269 4134 
L 1269 2991 
Q 1406 3038 1543 3061 
Q 1681 3084 1819 3084 
Q 2600 3084 3056 2656 
Q 3513 2228 3513 1497 
Q 3513 744 3044 326 
Q 2575 -91 1722 -91 
Q 1428 -91 1123 -41 
Q 819 9 494 109 
L 494 744 
Q 775 591 1075 516 
Q 1375 441 1709 441 
Q 2250 441 2565 725 
Q 2881 1009 2881 1497 
Q 2881 1984 2565 2268 
Q 2250 2553 1709 2553 
Q 1456 2553 1204 2497 
Q 953 2441 691 2322 
L 691 4666 
z
" transform="scale(0.015625)"/>
       </defs>
       <use xlink:href="#DejaVuSans-32"/>
       <use xlink:href="#DejaVuSans-2e" transform="translate(63.623047 0)"/>
       <use xlink:href="#DejaVuSans-35" transform="translate(95.410156 0)"/>
      </g>
     </g>
    </g>
    <g id="xtick_3">
     <g id="line2d_3">
      <g>
       <use xlink:href="#m70e6dca171" x="151.132346" y="273.312" style="stroke: #000000; stroke-width: 0.8"/>
      </g>
     </g>
     <g id="text_3">
      <!-- 5.0 -->
      <g transform="translate(143.180784 287.910437) scale(0.1 -0.1)">
       <use xlink:href="#DejaVuSans-35"/>
       <use xlink:href="#DejaVuSans-2e" transform="translate(63.623047 0)"/>
       <use xlink:href="#DejaVuSans-30" transform="translate(95.410156 0)"/>
      </g>
     </g>
    </g>
    <g id="xtick_4">
     <g id="line2d_4">
      <g>
       <use xlink:href="#m70e6dca171" x="191.918093" y="273.312" style="stroke: #000000; stroke-width: 0.8"/>
      </g>
     </g>
     <g id="text_4">
      <!-- 7.5 -->
      <g transform="translate(183.966531 287.910437) scale(0.1 -0.1)">
       <defs>
        <path id="DejaVuSans-37" d="M 525 4666 
L 3525 4666 
L 3525 4397 
L 1831 0 
L 1172 0 
L 2766 4134 
L 525 4134 
L 525 4666 
z
" transform="scale(0.015625)"/>
       </defs>
       <use xlink:href="#DejaVuSans-37"/>
       <use xlink:href="#DejaVuSans-2e" transform="translate(63.623047 0)"/>
       <use xlink:href="#DejaVuSans-35" transform="translate(95.410156 0)"/>
      </g>
     </g>
    </g>
    <g id="xtick_5">
     <g id="line2d_5">
      <g>
       <use xlink:href="#m70e6dca171" x="232.70384" y="273.312" style="stroke: #000000; stroke-width: 0.8"/>
      </g>
     </g>
     <g id="text_5">
      <!-- 10.0 -->
      <g transform="translate(221.571027 287.910437) scale(0.1 -0.1)">
       <defs>
        <path id="DejaVuSans-31" d="M 794 531 
L 1825 531 
L 1825 4091 
L 703 3866 
L 703 4441 
L 1819 4666 
L 2450 4666 
L 2450 531 
L 3481 531 
L 3481 0 
L 794 0 
L 794 531 
z
" transform="scale(0.015625)"/>
       </defs>
       <use xlink:href="#DejaVuSans-31"/>
       <use xlink:href="#DejaVuSans-30" transform="translate(63.623047 0)"/>
       <use xlink:href="#DejaVuSans-2e" transform="translate(127.246094 0)"/>
       <use xlink:href="#DejaVuSans-30" transform="translate(159.033203 0)"/>
      </g>
     </g>
    </g>
    <g id="xtick_6">
     <g id="line2d_6">
      <g>
       <use xlink:href="#m70e6dca171" x="273.489587" y="273.312" style="stroke: #000000; stroke-width: 0.8"/>
      </g>
     </g>
     <g id="text_6">
      <!-- 12.5 -->
      <g transform="translate(262.356774 287.910437) scale(0.1 -0.1)">
       <use xlink:href="#DejaVuSans-31"/>
       <use xlink:href="#DejaVuSans-32" transform="translate(63.623047 0)"/>
       <use xlink:href="#DejaVuSans-2e" transform="translate(127.246094 0)"/>
       <use xlink:href="#DejaVuSans-35" transform="translate(159.033203 0)"/>
      </g>
     </g>
    </g>
    <g id="xtick_7">
     <g id="line2d_7">
      <g>
       <use xlink:href="#m70e6dca171" x="314.275334" y="273.312" style="stroke: #000000; stroke-width: 0.8"/>
      </g>
     </g>
     <g id="text_7">
      <!-- 15.0 -->
      <g transform="translate(303.142521 287.910437) scale(0.1 -0.1)">
       <use xlink:href="#DejaVuSans-31"/>
       <use xlink:href="#DejaVuSans-35" transform="translate(63.623047 0)"/>
       <use xlink:href="#DejaVuSans-2e" transform="translate(127.246094 0)"/>
       <use xlink:href="#DejaVuSans-30" transform="translate(159.033203 0)"/>
      </g>
     </g>
    </g>
    <g id="xtick_8">
     <g id="line2d_8">
      <g>
       <use xlink:href="#m70e6dca171" x="355.061081" y="273.312" style="stroke: #000000; stroke-width: 0.8"/>
      </g>
     </g>
     <g id="text_8">
      <!-- 17.5 -->
      <g transform="translate(343.928268 287.910437) scale(0.1 -0.1)">
       <use xlink:href="#DejaVuSans-31"/>
       <use xlink:href="#DejaVuSans-37" transform="translate(63.623047 0)"/>
       <use xlink:href="#DejaVuSans-2e" transform="translate(127.246094 0)"/>
       <use xlink:href="#DejaVuSans-35" transform="translate(159.033203 0)"/>
      </g>
     </g>
    </g>
    <g id="xtick_9">
     <g id="line2d_9">
      <g>
       <use xlink:href="#m70e6dca171" x="395.846828" y="273.312" style="stroke: #000000; stroke-width: 0.8"/>
      </g>
     </g>
     <g id="text_9">
      <!-- 20.0 -->
      <g transform="translate(384.714015 287.910437) scale(0.1 -0.1)">
       <use xlink:href="#DejaVuSans-32"/>
       <use xlink:href="#DejaVuSans-30" transform="translate(63.623047 0)"/>
       <use xlink:href="#DejaVuSans-2e" transform="translate(127.246094 0)"/>
       <use xlink:href="#DejaVuSans-30" transform="translate(159.033203 0)"/>
      </g>
     </g>
    </g>
    <g id="text_10">
     <!-- Time -->
     <g transform="translate(219.654531 301.588562) scale(0.1 -0.1)">
      <defs>
       <path id="DejaVuSans-54" d="M -19 4666 
L 3928 4666 
L 3928 4134 
L 2272 4134 
L 2272 0 
L 1638 0 
L 1638 4134 
L -19 4134 
L -19 4666 
z
" transform="scale(0.015625)"/>
       <path id="DejaVuSans-69" d="M 603 3500 
L 1178 3500 
L 1178 0 
L 603 0 
L 603 3500 
z
M 603 4863 
L 1178 4863 
L 1178 4134 
L 603 4134 
L 603 4863 
z
" transform="scale(0.015625)"/>
       <path id="DejaVuSans-6d" d="M 3328 2828 
Q 3544 3216 3844 3400 
Q 4144 3584 4550 3584 
Q 5097 3584 5394 3201 
Q 5691 2819 5691 2113 
L 5691 0 
L 5113 0 
L 5113 2094 
Q 5113 2597 4934 2840 
Q 4756 3084 4391 3084 
Q 3944 3084 3684 2787 
Q 3425 2491 3425 1978 
L 3425 0 
L 2847 0 
L 2847 2094 
Q 2847 2600 2669 2842 
Q 2491 3084 2119 3084 
Q 1678 3084 1418 2786 
Q 1159 2488 1159 1978 
L 1159 0 
L 581 0 
L 581 3500 
L 1159 3500 
L 1159 2956 
Q 1356 3278 1631 3431 
Q 1906 3584 2284 3584 
Q 2666 3584 2933 3390 
Q 3200 3197 3328 2828 
z
" transform="scale(0.015625)"/>
       <path id="DejaVuSans-65" d="M 3597 1894 
L 3597 1613 
L 953 1613 
Q 991 1019 1311 708 
Q 1631 397 2203 397 
Q 2534 397 2845 478 
Q 3156 559 3463 722 
L 3463 178 
Q 3153 47 2828 -22 
Q 2503 -91 2169 -91 
Q 1331 -91 842 396 
Q 353 884 353 1716 
Q 353 2575 817 3079 
Q 1281 3584 2069 3584 
Q 2775 3584 3186 3129 
Q 3597 2675 3597 1894 
z
M 3022 2063 
Q 3016 2534 2758 2815 
Q 2500 3097 2075 3097 
Q 1594 3097 1305 2825 
Q 1016 2553 972 2059 
L 3022 2063 
z
" transform="scale(0.015625)"/>
      </defs>
      <use xlink:href="#DejaVuSans-54"/>
      <use xlink:href="#DejaVuSans-69" transform="translate(57.958984 0)"/>
      <use xlink:href="#DejaVuSans-6d" transform="translate(85.742188 0)"/>
      <use xlink:href="#DejaVuSans-65" transform="translate(183.154297 0)"/>
     </g>
    </g>
   </g>
   <g id="matplotlib.axis_2">
    <g id="ytick_1">
     <g id="line2d_10">
      <defs>
       <path id="m91affdad4b" d="M 0 0 
L -3.5 0 
" style="stroke: #000000; stroke-width: 0.8"/>
      </defs>
      <g>
       <use xlink:href="#m91affdad4b" x="53.328125" y="261.216" style="stroke: #000000; stroke-width: 0.8"/>
      </g>
     </g>
     <g id="text_11">
      <!-- 0 -->
      <g transform="translate(39.965625 265.015219) scale(0.1 -0.1)">
       <use xlink:href="#DejaVuSans-30"/>
      </g>
     </g>
    </g>
    <g id="ytick_2">
     <g id="line2d_11">
      <g>
       <use xlink:href="#m91affdad4b" x="53.328125" y="222.019629" style="stroke: #000000; stroke-width: 0.8"/>
      </g>
     </g>
     <g id="text_12">
      <!-- 500 -->
      <g transform="translate(27.240625 225.818848) scale(0.1 -0.1)">
       <use xlink:href="#DejaVuSans-35"/>
       <use xlink:href="#DejaVuSans-30" transform="translate(63.623047 0)"/>
       <use xlink:href="#DejaVuSans-30" transform="translate(127.246094 0)"/>
      </g>
     </g>
    </g>
    <g id="ytick_3">
     <g id="line2d_12">
      <g>
       <use xlink:href="#m91affdad4b" x="53.328125" y="182.823259" style="stroke: #000000; stroke-width: 0.8"/>
      </g>
     </g>
     <g id="text_13">
      <!-- 1000 -->
      <g transform="translate(20.878125 186.622477) scale(0.1 -0.1)">
       <use xlink:href="#DejaVuSans-31"/>
       <use xlink:href="#DejaVuSans-30" transform="translate(63.623047 0)"/>
       <use xlink:href="#DejaVuSans-30" transform="translate(127.246094 0)"/>
       <use xlink:href="#DejaVuSans-30" transform="translate(190.869141 0)"/>
      </g>
     </g>
    </g>
    <g id="ytick_4">
     <g id="line2d_13">
      <g>
       <use xlink:href="#m91affdad4b" x="53.328125" y="143.626888" style="stroke: #000000; stroke-width: 0.8"/>
      </g>
     </g>
     <g id="text_14">
      <!-- 1500 -->
      <g transform="translate(20.878125 147.426107) scale(0.1 -0.1)">
       <use xlink:href="#DejaVuSans-31"/>
       <use xlink:href="#DejaVuSans-35" transform="translate(63.623047 0)"/>
       <use xlink:href="#DejaVuSans-30" transform="translate(127.246094 0)"/>
       <use xlink:href="#DejaVuSans-30" transform="translate(190.869141 0)"/>
      </g>
     </g>
    </g>
    <g id="ytick_5">
     <g id="line2d_14">
      <g>
       <use xlink:href="#m91affdad4b" x="53.328125" y="104.430517" style="stroke: #000000; stroke-width: 0.8"/>
      </g>
     </g>
     <g id="text_15">
      <!-- 2000 -->
      <g transform="translate(20.878125 108.229736) scale(0.1 -0.1)">
       <use xlink:href="#DejaVuSans-32"/>
       <use xlink:href="#DejaVuSans-30" transform="translate(63.623047 0)"/>
       <use xlink:href="#DejaVuSans-30" transform="translate(127.246094 0)"/>
       <use xlink:href="#DejaVuSans-30" transform="translate(190.869141 0)"/>
      </g>
     </g>
    </g>
    <g id="ytick_6">
     <g id="line2d_15">
      <g>
       <use xlink:href="#m91affdad4b" x="53.328125" y="65.234146" style="stroke: #000000; stroke-width: 0.8"/>
      </g>
     </g>
     <g id="text_16">
      <!-- 2500 -->
      <g transform="translate(20.878125 69.033365) scale(0.1 -0.1)">
       <use xlink:href="#DejaVuSans-32"/>
       <use xlink:href="#DejaVuSans-35" transform="translate(63.623047 0)"/>
       <use xlink:href="#DejaVuSans-30" transform="translate(127.246094 0)"/>
       <use xlink:href="#DejaVuSans-30" transform="translate(190.869141 0)"/>
      </g>
     </g>
    </g>
    <g id="ytick_7">
     <g id="line2d_16">
      <g>
       <use xlink:href="#m91affdad4b" x="53.328125" y="26.037776" style="stroke: #000000; stroke-width: 0.8"/>
      </g>
     </g>
     <g id="text_17">
      <!-- 3000 -->
      <g transform="translate(20.878125 29.836995) scale(0.1 -0.1)">
       <defs>
        <path id="DejaVuSans-33" d="M 2597 2516 
Q 3050 2419 3304 2112 
Q 3559 1806 3559 1356 
Q 3559 666 3084 287 
Q 2609 -91 1734 -91 
Q 1441 -91 1130 -33 
Q 819 25 488 141 
L 488 750 
Q 750 597 1062 519 
Q 1375 441 1716 441 
Q 2309 441 2620 675 
Q 2931 909 2931 1356 
Q 2931 1769 2642 2001 
Q 2353 2234 1838 2234 
L 1294 2234 
L 1294 2753 
L 1863 2753 
Q 2328 2753 2575 2939 
Q 2822 3125 2822 3475 
Q 2822 3834 2567 4026 
Q 2313 4219 1838 4219 
Q 1578 4219 1281 4162 
Q 984 4106 628 3988 
L 628 4550 
Q 988 4650 1302 4700 
Q 1616 4750 1894 4750 
Q 2613 4750 3031 4423 
Q 3450 4097 3450 3541 
Q 3450 3153 3228 2886 
Q 3006 2619 2597 2516 
z
" transform="scale(0.015625)"/>
       </defs>
       <use xlink:href="#DejaVuSans-33"/>
       <use xlink:href="#DejaVuSans-30" transform="translate(63.623047 0)"/>
       <use xlink:href="#DejaVuSans-30" transform="translate(127.246094 0)"/>
       <use xlink:href="#DejaVuSans-30" transform="translate(190.869141 0)"/>
      </g>
     </g>
    </g>
    <g id="text_18">
     <!-- Number of entities in each compartment -->
     <g transform="translate(14.798438 242.356781) rotate(-90) scale(0.1 -0.1)">
      <defs>
       <path id="DejaVuSans-4e" d="M 628 4666 
L 1478 4666 
L 3547 763 
L 3547 4666 
L 4159 4666 
L 4159 0 
L 3309 0 
L 1241 3903 
L 1241 0 
L 628 0 
L 628 4666 
z
" transform="scale(0.015625)"/>
       <path id="DejaVuSans-75" d="M 544 1381 
L 544 3500 
L 1119 3500 
L 1119 1403 
Q 1119 906 1312 657 
Q 1506 409 1894 409 
Q 2359 409 2629 706 
Q 2900 1003 2900 1516 
L 2900 3500 
L 3475 3500 
L 3475 0 
L 2900 0 
L 2900 538 
Q 2691 219 2414 64 
Q 2138 -91 1772 -91 
Q 1169 -91 856 284 
Q 544 659 544 1381 
z
M 1991 3584 
L 1991 3584 
z
" transform="scale(0.015625)"/>
       <path id="DejaVuSans-62" d="M 3116 1747 
Q 3116 2381 2855 2742 
Q 2594 3103 2138 3103 
Q 1681 3103 1420 2742 
Q 1159 2381 1159 1747 
Q 1159 1113 1420 752 
Q 1681 391 2138 391 
Q 2594 391 2855 752 
Q 3116 1113 3116 1747 
z
M 1159 2969 
Q 1341 3281 1617 3432 
Q 1894 3584 2278 3584 
Q 2916 3584 3314 3078 
Q 3713 2572 3713 1747 
Q 3713 922 3314 415 
Q 2916 -91 2278 -91 
Q 1894 -91 1617 61 
Q 1341 213 1159 525 
L 1159 0 
L 581 0 
L 581 4863 
L 1159 4863 
L 1159 2969 
z
" transform="scale(0.015625)"/>
       <path id="DejaVuSans-72" d="M 2631 2963 
Q 2534 3019 2420 3045 
Q 2306 3072 2169 3072 
Q 1681 3072 1420 2755 
Q 1159 2438 1159 1844 
L 1159 0 
L 581 0 
L 581 3500 
L 1159 3500 
L 1159 2956 
Q 1341 3275 1631 3429 
Q 1922 3584 2338 3584 
Q 2397 3584 2469 3576 
Q 2541 3569 2628 3553 
L 2631 2963 
z
" transform="scale(0.015625)"/>
       <path id="DejaVuSans-20" transform="scale(0.015625)"/>
       <path id="DejaVuSans-6f" d="M 1959 3097 
Q 1497 3097 1228 2736 
Q 959 2375 959 1747 
Q 959 1119 1226 758 
Q 1494 397 1959 397 
Q 2419 397 2687 759 
Q 2956 1122 2956 1747 
Q 2956 2369 2687 2733 
Q 2419 3097 1959 3097 
z
M 1959 3584 
Q 2709 3584 3137 3096 
Q 3566 2609 3566 1747 
Q 3566 888 3137 398 
Q 2709 -91 1959 -91 
Q 1206 -91 779 398 
Q 353 888 353 1747 
Q 353 2609 779 3096 
Q 1206 3584 1959 3584 
z
" transform="scale(0.015625)"/>
       <path id="DejaVuSans-66" d="M 2375 4863 
L 2375 4384 
L 1825 4384 
Q 1516 4384 1395 4259 
Q 1275 4134 1275 3809 
L 1275 3500 
L 2222 3500 
L 2222 3053 
L 1275 3053 
L 1275 0 
L 697 0 
L 697 3053 
L 147 3053 
L 147 3500 
L 697 3500 
L 697 3744 
Q 697 4328 969 4595 
Q 1241 4863 1831 4863 
L 2375 4863 
z
" transform="scale(0.015625)"/>
       <path id="DejaVuSans-6e" d="M 3513 2113 
L 3513 0 
L 2938 0 
L 2938 2094 
Q 2938 2591 2744 2837 
Q 2550 3084 2163 3084 
Q 1697 3084 1428 2787 
Q 1159 2491 1159 1978 
L 1159 0 
L 581 0 
L 581 3500 
L 1159 3500 
L 1159 2956 
Q 1366 3272 1645 3428 
Q 1925 3584 2291 3584 
Q 2894 3584 3203 3211 
Q 3513 2838 3513 2113 
z
" transform="scale(0.015625)"/>
       <path id="DejaVuSans-74" d="M 1172 4494 
L 1172 3500 
L 2356 3500 
L 2356 3053 
L 1172 3053 
L 1172 1153 
Q 1172 725 1289 603 
Q 1406 481 1766 481 
L 2356 481 
L 2356 0 
L 1766 0 
Q 1100 0 847 248 
Q 594 497 594 1153 
L 594 3053 
L 172 3053 
L 172 3500 
L 594 3500 
L 594 4494 
L 1172 4494 
z
" transform="scale(0.015625)"/>
       <path id="DejaVuSans-73" d="M 2834 3397 
L 2834 2853 
Q 2591 2978 2328 3040 
Q 2066 3103 1784 3103 
Q 1356 3103 1142 2972 
Q 928 2841 928 2578 
Q 928 2378 1081 2264 
Q 1234 2150 1697 2047 
L 1894 2003 
Q 2506 1872 2764 1633 
Q 3022 1394 3022 966 
Q 3022 478 2636 193 
Q 2250 -91 1575 -91 
Q 1294 -91 989 -36 
Q 684 19 347 128 
L 347 722 
Q 666 556 975 473 
Q 1284 391 1588 391 
Q 1994 391 2212 530 
Q 2431 669 2431 922 
Q 2431 1156 2273 1281 
Q 2116 1406 1581 1522 
L 1381 1569 
Q 847 1681 609 1914 
Q 372 2147 372 2553 
Q 372 3047 722 3315 
Q 1072 3584 1716 3584 
Q 2034 3584 2315 3537 
Q 2597 3491 2834 3397 
z
" transform="scale(0.015625)"/>
       <path id="DejaVuSans-61" d="M 2194 1759 
Q 1497 1759 1228 1600 
Q 959 1441 959 1056 
Q 959 750 1161 570 
Q 1363 391 1709 391 
Q 2188 391 2477 730 
Q 2766 1069 2766 1631 
L 2766 1759 
L 2194 1759 
z
M 3341 1997 
L 3341 0 
L 2766 0 
L 2766 531 
Q 2569 213 2275 61 
Q 1981 -91 1556 -91 
Q 1019 -91 701 211 
Q 384 513 384 1019 
Q 384 1609 779 1909 
Q 1175 2209 1959 2209 
L 2766 2209 
L 2766 2266 
Q 2766 2663 2505 2880 
Q 2244 3097 1772 3097 
Q 1472 3097 1187 3025 
Q 903 2953 641 2809 
L 641 3341 
Q 956 3463 1253 3523 
Q 1550 3584 1831 3584 
Q 2591 3584 2966 3190 
Q 3341 2797 3341 1997 
z
" transform="scale(0.015625)"/>
       <path id="DejaVuSans-63" d="M 3122 3366 
L 3122 2828 
Q 2878 2963 2633 3030 
Q 2388 3097 2138 3097 
Q 1578 3097 1268 2742 
Q 959 2388 959 1747 
Q 959 1106 1268 751 
Q 1578 397 2138 397 
Q 2388 397 2633 464 
Q 2878 531 3122 666 
L 3122 134 
Q 2881 22 2623 -34 
Q 2366 -91 2075 -91 
Q 1284 -91 818 406 
Q 353 903 353 1747 
Q 353 2603 823 3093 
Q 1294 3584 2113 3584 
Q 2378 3584 2631 3529 
Q 2884 3475 3122 3366 
z
" transform="scale(0.015625)"/>
       <path id="DejaVuSans-68" d="M 3513 2113 
L 3513 0 
L 2938 0 
L 2938 2094 
Q 2938 2591 2744 2837 
Q 2550 3084 2163 3084 
Q 1697 3084 1428 2787 
Q 1159 2491 1159 1978 
L 1159 0 
L 581 0 
L 581 4863 
L 1159 4863 
L 1159 2956 
Q 1366 3272 1645 3428 
Q 1925 3584 2291 3584 
Q 2894 3584 3203 3211 
Q 3513 2838 3513 2113 
z
" transform="scale(0.015625)"/>
       <path id="DejaVuSans-70" d="M 1159 525 
L 1159 -1331 
L 581 -1331 
L 581 3500 
L 1159 3500 
L 1159 2969 
Q 1341 3281 1617 3432 
Q 1894 3584 2278 3584 
Q 2916 3584 3314 3078 
Q 3713 2572 3713 1747 
Q 3713 922 3314 415 
Q 2916 -91 2278 -91 
Q 1894 -91 1617 61 
Q 1341 213 1159 525 
z
M 3116 1747 
Q 3116 2381 2855 2742 
Q 2594 3103 2138 3103 
Q 1681 3103 1420 2742 
Q 1159 2381 1159 1747 
Q 1159 1113 1420 752 
Q 1681 391 2138 391 
Q 2594 391 2855 752 
Q 3116 1113 3116 1747 
z
" transform="scale(0.015625)"/>
      </defs>
      <use xlink:href="#DejaVuSans-4e"/>
      <use xlink:href="#DejaVuSans-75" transform="translate(74.804688 0)"/>
      <use xlink:href="#DejaVuSans-6d" transform="translate(138.183594 0)"/>
      <use xlink:href="#DejaVuSans-62" transform="translate(235.595703 0)"/>
      <use xlink:href="#DejaVuSans-65" transform="translate(299.072266 0)"/>
      <use xlink:href="#DejaVuSans-72" transform="translate(360.595703 0)"/>
      <use xlink:href="#DejaVuSans-20" transform="translate(401.708984 0)"/>
      <use xlink:href="#DejaVuSans-6f" transform="translate(433.496094 0)"/>
      <use xlink:href="#DejaVuSans-66" transform="translate(494.677734 0)"/>
      <use xlink:href="#DejaVuSans-20" transform="translate(529.882812 0)"/>
      <use xlink:href="#DejaVuSans-65" transform="translate(561.669922 0)"/>
      <use xlink:href="#DejaVuSans-6e" transform="translate(623.193359 0)"/>
      <use xlink:href="#DejaVuSans-74" transform="translate(686.572266 0)"/>
      <use xlink:href="#DejaVuSans-69" transform="translate(725.78125 0)"/>
      <use xlink:href="#DejaVuSans-74" transform="translate(753.564453 0)"/>
      <use xlink:href="#DejaVuSans-69" transform="translate(792.773438 0)"/>
      <use xlink:href="#DejaVuSans-65" transform="translate(820.556641 0)"/>
      <use xlink:href="#DejaVuSans-73" transform="translate(882.080078 0)"/>
      <use xlink:href="#DejaVuSans-20" transform="translate(934.179688 0)"/>
      <use xlink:href="#DejaVuSans-69" transform="translate(965.966797 0)"/>
      <use xlink:href="#DejaVuSans-6e" transform="translate(993.75 0)"/>
      <use xlink:href="#DejaVuSans-20" transform="translate(1057.128906 0)"/>
      <use xlink:href="#DejaVuSans-65" transform="translate(1088.916016 0)"/>
      <use xlink:href="#DejaVuSans-61" transform="translate(1150.439453 0)"/>
      <use xlink:href="#DejaVuSans-63" transform="translate(1211.71875 0)"/>
      <use xlink:href="#DejaVuSans-68" transform="translate(1266.699219 0)"/>
      <use xlink:href="#DejaVuSans-20" transform="translate(1330.078125 0)"/>
      <use xlink:href="#DejaVuSans-63" transform="translate(1361.865234 0)"/>
      <use xlink:href="#DejaVuSans-6f" transform="translate(1416.845703 0)"/>
      <use xlink:href="#DejaVuSans-6d" transform="translate(1478.027344 0)"/>
      <use xlink:href="#DejaVuSans-70" transform="translate(1575.439453 0)"/>
      <use xlink:href="#DejaVuSans-61" transform="translate(1638.916016 0)"/>
      <use xlink:href="#DejaVuSans-72" transform="translate(1700.195312 0)"/>
      <use xlink:href="#DejaVuSans-74" transform="translate(1741.308594 0)"/>
      <use xlink:href="#DejaVuSans-6d" transform="translate(1780.517578 0)"/>
      <use xlink:href="#DejaVuSans-65" transform="translate(1877.929688 0)"/>
      <use xlink:href="#DejaVuSans-6e" transform="translate(1939.453125 0)"/>
      <use xlink:href="#DejaVuSans-74" transform="translate(2002.832031 0)"/>
     </g>
    </g>
   </g>
   <g id="line2d_17">
    <path d="M 69.560852 261.216 
L 72.823712 245.145488 
L 74.455142 236.91425 
L 76.086572 229.388547 
L 79.349432 212.377322 
L 80.980861 204.146084 
L 84.243721 189.956998 
L 85.875151 181.960938 
L 87.506581 173.024166 
L 90.769441 159.148651 
L 92.400871 150.995806 
L 95.66373 137.433861 
L 97.29516 131.162442 
L 98.92659 123.95031 
L 100.55802 117.36532 
L 102.18945 112.034613 
L 103.82088 103.960161 
L 107.083739 91.966071 
L 108.715169 85.145903 
L 110.346599 80.834302 
L 111.978029 76.130738 
L 113.609459 70.878424 
L 115.240889 65.077361 
L 118.503749 59.276298 
L 120.135178 55.591839 
L 121.766608 54.337555 
L 123.398038 49.633991 
L 125.029468 46.18471 
L 126.660898 42.108288 
L 128.292328 39.521327 
L 129.923758 39.207756 
L 131.555188 37.796687 
L 133.186617 37.01276 
L 134.818047 35.680083 
L 136.449477 34.033835 
L 138.080907 33.955443 
L 139.712337 32.074017 
L 141.343767 31.525268 
L 142.975197 30.74134 
L 144.606627 31.525268 
L 146.238056 29.487056 
L 147.869486 28.15438 
L 149.500916 29.251878 
L 152.763776 26.351347 
L 154.395206 23.999564 
L 156.026636 25.175456 
L 157.658066 25.097063 
L 159.289495 25.802598 
L 160.920925 27.135274 
L 162.552355 25.645812 
L 164.183785 24.940277 
L 165.815215 25.332241 
L 167.446645 26.429739 
L 169.078075 26.900096 
L 170.709505 26.272954 
L 172.340935 26.194561 
L 173.972364 26.508132 
L 175.603794 25.097063 
L 177.235224 25.802598 
L 178.866654 26.272954 
L 180.498084 26.429739 
L 182.129514 26.194561 
L 183.760944 27.135274 
L 185.392374 25.410634 
L 187.023803 26.900096 
L 190.286663 28.546343 
L 191.918093 28.624736 
L 193.549523 27.527238 
L 195.180953 28.624736 
L 196.812383 28.075987 
L 198.443813 28.781522 
L 200.075242 28.389558 
L 201.706672 27.213667 
L 203.338102 27.762416 
L 204.969532 27.762416 
L 206.600962 27.370452 
L 208.232392 25.88099 
L 209.863822 25.959383 
L 211.495252 26.351347 
L 213.126681 27.135274 
L 214.758111 27.527238 
L 216.389541 26.978489 
L 218.020971 27.997594 
L 219.652401 27.527238 
L 221.283831 27.840809 
L 222.915261 27.605631 
L 224.546691 28.15438 
L 226.17812 29.330271 
L 229.44098 29.643842 
L 231.07241 29.565449 
L 232.70384 31.133304 
L 234.33527 31.054911 
L 235.9667 31.525268 
L 237.59813 30.74134 
L 239.229559 28.938307 
L 240.860989 27.919202 
L 242.492419 26.194561 
L 244.123849 26.508132 
L 245.755279 25.959383 
L 247.386709 27.919202 
L 249.018139 28.624736 
L 250.649569 29.487056 
L 252.280998 28.938307 
L 253.912428 27.919202 
L 257.175288 29.095093 
L 258.806718 29.565449 
L 260.438148 31.446875 
L 262.069578 32.230802 
L 263.701008 32.074017 
L 265.332437 33.798657 
L 266.963867 33.641872 
L 268.595297 33.87705 
L 270.226727 32.779552 
L 271.858157 30.662948 
L 273.489587 31.054911 
L 275.121017 32.309195 
L 276.752447 32.387588 
L 278.383876 34.033835 
L 280.015306 33.955443 
L 281.646736 33.01473 
L 283.278166 34.033835 
L 284.909596 34.112228 
L 286.541026 32.857944 
L 288.172456 32.701159 
L 291.435315 29.173485 
L 293.066745 28.938307 
L 294.698175 29.173485 
L 296.329605 27.919202 
L 297.961035 25.01867 
L 299.592465 24.861885 
L 301.223895 24.15635 
L 302.855325 24.940277 
L 304.486755 25.097063 
L 306.118184 23.764386 
L 307.749614 23.215637 
L 309.381044 24.313135 
L 311.012474 22.980459 
L 312.643904 21.177426 
L 314.275334 20.236713 
L 317.538194 22.510102 
L 319.169623 23.372423 
L 320.801053 21.490997 
L 322.432483 21.099033 
L 324.063913 21.961353 
L 325.695343 23.450815 
L 327.326773 22.745281 
L 328.958203 22.902066 
L 330.589633 23.215637 
L 332.221062 21.726175 
L 333.852492 20.001535 
L 335.483922 20.550284 
L 337.115352 21.647782 
L 338.746782 22.43171 
L 342.009642 22.510102 
L 343.641072 20.315106 
L 345.272501 19.296 
L 346.903931 20.001535 
L 348.535361 20.236713 
L 350.166791 21.099033 
L 351.798221 20.785462 
L 353.429651 20.942248 
L 355.061081 22.353317 
L 356.692511 21.490997 
L 358.32394 20.471891 
L 359.95537 21.88296 
L 361.5868 20.315106 
L 363.21823 20.942248 
L 364.84966 21.804568 
L 366.48109 23.921172 
L 368.11252 22.196531 
L 369.74395 23.29403 
L 371.375379 24.234743 
L 373.006809 23.450815 
L 374.638239 23.372423 
L 376.269669 24.391528 
L 377.901099 24.861885 
L 379.532529 26.508132 
L 381.163959 27.370452 
L 382.795389 27.370452 
L 384.426818 28.389558 
L 386.058248 28.938307 
L 387.689678 29.0167 
L 389.321108 30.427769 
L 390.952538 30.192591 
L 392.583968 31.446875 
L 394.215398 29.722235 
L 394.215398 29.722235 
" clip-path="url(#pb522d598d2)" style="fill: none; stroke: #1f77b4; stroke-width: 1.5; stroke-linecap: square"/>
   </g>
   <g id="line2d_18">
    <path d="M 69.560852 261.216 
L 77.718002 261.137607 
L 82.612291 260.902429 
L 84.243721 260.588858 
L 90.769441 259.883323 
L 92.400871 259.569752 
L 95.66373 258.393861 
L 97.29516 258.08029 
L 100.55802 256.826006 
L 102.18945 254.944581 
L 103.82088 253.298333 
L 107.083739 251.338515 
L 108.715169 250.084231 
L 110.346599 248.046019 
L 111.978029 245.694237 
L 113.609459 243.028884 
L 115.240889 240.677102 
L 116.872319 237.619785 
L 118.503749 235.346395 
L 120.135178 232.0539 
L 121.766608 227.585514 
L 123.398038 225.625695 
L 125.029468 222.254808 
L 126.660898 219.589454 
L 128.292328 216.375352 
L 133.186617 203.518942 
L 134.818047 199.991269 
L 136.449477 197.16913 
L 139.712337 189.486642 
L 144.606627 179.452371 
L 146.238056 177.335767 
L 147.869486 174.748806 
L 149.500916 171.299526 
L 151.132346 168.634172 
L 152.763776 167.615067 
L 154.395206 167.379889 
L 156.026636 165.263285 
L 157.658066 162.362753 
L 159.289495 160.167756 
L 160.920925 157.345618 
L 164.183785 153.97473 
L 165.815215 152.798839 
L 167.446645 150.603842 
L 169.078075 149.349558 
L 170.709505 149.427951 
L 172.340935 150.133485 
L 173.972364 148.957594 
L 175.603794 148.722416 
L 177.235224 147.154561 
L 178.866654 145.11635 
L 180.498084 143.548495 
L 182.129514 142.52939 
L 183.760944 140.804749 
L 185.392374 141.588677 
L 187.023803 141.902248 
L 188.655233 142.84296 
L 190.286663 141.823855 
L 191.918093 141.902248 
L 193.549523 141.588677 
L 195.180953 141.039927 
L 196.812383 141.196713 
L 198.443813 142.059033 
L 200.075242 142.607782 
L 201.706672 142.999746 
L 204.969532 143.39171 
L 206.600962 142.999746 
L 208.232392 144.332423 
L 209.863822 145.97867 
L 211.495252 145.429921 
L 213.126681 145.429921 
L 214.758111 145.11635 
L 216.389541 143.39171 
L 218.020971 141.902248 
L 219.652401 141.510284 
L 221.283831 142.372604 
L 222.915261 142.764568 
L 224.546691 141.275106 
L 226.17812 140.256 
L 227.80955 140.804749 
L 229.44098 141.196713 
L 231.07241 142.294211 
L 234.33527 140.256 
L 235.9667 141.745462 
L 237.59813 141.275106 
L 239.229559 142.450997 
L 240.860989 143.078139 
L 242.492419 143.470102 
L 244.123849 142.294211 
L 245.755279 142.294211 
L 247.386709 139.942429 
L 249.018139 138.609752 
L 250.649569 139.080109 
L 252.280998 140.099215 
L 253.912428 140.726356 
L 255.543858 141.039927 
L 258.806718 139.39368 
L 260.438148 138.139396 
L 262.069578 137.904218 
L 265.332437 138.844931 
L 270.226727 138.688145 
L 271.858157 139.628858 
L 273.489587 138.766538 
L 275.121017 139.942429 
L 276.752447 141.902248 
L 278.383876 139.001716 
L 280.015306 138.609752 
L 281.646736 140.177607 
L 283.278166 139.315287 
L 284.909596 139.315287 
L 286.541026 139.942429 
L 288.172456 140.726356 
L 289.803886 141.98064 
L 291.435315 143.626888 
L 293.066745 142.294211 
L 294.698175 142.52939 
L 296.329605 141.902248 
L 297.961035 141.745462 
L 299.592465 141.902248 
L 301.223895 142.999746 
L 302.855325 142.215819 
L 304.486755 141.745462 
L 306.118184 142.607782 
L 307.749614 142.215819 
L 311.012474 141.745462 
L 312.643904 141.902248 
L 314.275334 143.705281 
L 315.906764 143.39171 
L 317.538194 143.705281 
L 319.169623 143.313317 
L 320.801053 143.470102 
L 322.432483 143.156531 
L 324.063913 142.450997 
L 325.695343 141.98064 
L 327.326773 141.823855 
L 328.958203 140.647964 
L 330.589633 140.569571 
L 332.221062 141.745462 
L 333.852492 142.059033 
L 335.483922 141.11832 
L 337.115352 139.864036 
L 338.746782 140.099215 
L 340.378212 141.11832 
L 342.009642 140.491178 
L 343.641072 141.823855 
L 345.272501 141.902248 
L 346.903931 140.647964 
L 348.535361 140.569571 
L 350.166791 140.256 
L 351.798221 141.823855 
L 353.429651 142.764568 
L 355.061081 140.726356 
L 358.32394 142.137426 
L 359.95537 141.275106 
L 361.5868 141.510284 
L 363.21823 139.472073 
L 364.84966 138.53136 
L 368.11252 139.001716 
L 371.375379 137.98261 
L 373.006809 136.963505 
L 374.638239 136.885112 
L 376.269669 136.336363 
L 377.901099 135.630828 
L 379.532529 136.179577 
L 381.163959 137.277076 
L 382.795389 137.590647 
L 384.426818 135.709221 
L 386.058248 135.630828 
L 387.689678 134.925294 
L 389.321108 133.592617 
L 390.952538 135.003686 
L 392.583968 133.357439 
L 394.215398 136.101185 
L 394.215398 136.101185 
" clip-path="url(#pb522d598d2)" style="fill: none; stroke: #ff7f0e; stroke-width: 1.5; stroke-linecap: square"/>
   </g>
   <g id="patch_3">
    <path d="M 53.328125 273.312 
L 53.328125 7.2 
" style="fill: none; stroke: #000000; stroke-width: 0.8; stroke-linejoin: miter; stroke-linecap: square"/>
   </g>
   <g id="patch_4">
    <path d="M 410.448125 273.312 
L 410.448125 7.2 
" style="fill: none; stroke: #000000; stroke-width: 0.8; stroke-linejoin: miter; stroke-linecap: square"/>
   </g>
   <g id="patch_5">
    <path d="M 53.328125 273.312 
L 410.448125 273.312 
" style="fill: none; stroke: #000000; stroke-width: 0.8; stroke-linejoin: miter; stroke-linecap: square"/>
   </g>
   <g id="patch_6">
    <path d="M 53.328125 7.2 
L 410.448125 7.2 
" style="fill: none; stroke: #000000; stroke-width: 0.8; stroke-linejoin: miter; stroke-linecap: square"/>
   </g>
  </g>
 </g>
 <defs>
  <clipPath id="pb522d598d2">
   <rect x="53.328125" y="7.2" width="357.12" height="266.112"/>
  </clipPath>
 </defs>
</svg>
