<?xml version="1.0" encoding="utf-8" standalone="no"?>
<!DOCTYPE svg PUBLIC "-//W3C//DTD SVG 1.1//EN"
  "http://www.w3.org/Graphics/SVG/1.1/DTD/svg11.dtd">
<!-- Created with matplotlib (https://matplotlib.org/) -->
<svg height="297.190125pt" version="1.1" viewBox="0 0 397.6075 297.190125" width="397.6075pt" xmlns="http://www.w3.org/2000/svg" xmlns:xlink="http://www.w3.org/1999/xlink">
 <metadata>
  <rdf:RDF xmlns:cc="http://creativecommons.org/ns#" xmlns:dc="http://purl.org/dc/elements/1.1/" xmlns:rdf="http://www.w3.org/1999/02/22-rdf-syntax-ns#">
   <cc:Work>
    <dc:type rdf:resource="http://purl.org/dc/dcmitype/StillImage"/>
    <dc:date>2021-04-29T16:30:30.770758</dc:date>
    <dc:format>image/svg+xml</dc:format>
    <dc:creator>
     <cc:Agent>
      <dc:title>Matplotlib v3.3.4, https://matplotlib.org/</dc:title>
     </cc:Agent>
    </dc:creator>
   </cc:Work>
  </rdf:RDF>
 </metadata>
 <defs>
  <style type="text/css">*{stroke-linecap:butt;stroke-linejoin:round;}</style>
 </defs>
 <g id="figure_1">
  <g id="patch_1">
   <path d="M 0 297.190125 
L 397.6075 297.190125 
L 397.6075 0 
L 0 0 
z
" style="fill:#ffffff;"/>
  </g>
  <g id="axes_1">
   <g id="patch_2">
    <path d="M 33.2875 273.312 
L 390.4075 273.312 
L 390.4075 7.2 
L 33.2875 7.2 
z
" style="fill:#ffffff;"/>
   </g>
   <g id="matplotlib.axis_1">
    <g id="xtick_1">
     <g id="line2d_1">
      <defs>
       <path d="M 0 0 
L 0 3.5 
" id="m7eae499385" style="stroke:#000000;stroke-width:0.8;"/>
      </defs>
      <g>
       <use style="stroke:#000000;stroke-width:0.8;" x="49.520227" xlink:href="#m7eae499385" y="273.312"/>
      </g>
     </g>
     <g id="text_1">
      <!-- 0.0 -->
      <g transform="translate(41.568665 287.910437)scale(0.1 -0.1)">
       <defs>
        <path d="M 31.78125 66.40625 
Q 24.171875 66.40625 20.328125 58.90625 
Q 16.5 51.421875 16.5 36.375 
Q 16.5 21.390625 20.328125 13.890625 
Q 24.171875 6.390625 31.78125 6.390625 
Q 39.453125 6.390625 43.28125 13.890625 
Q 47.125 21.390625 47.125 36.375 
Q 47.125 51.421875 43.28125 58.90625 
Q 39.453125 66.40625 31.78125 66.40625 
z
M 31.78125 74.21875 
Q 44.046875 74.21875 50.515625 64.515625 
Q 56.984375 54.828125 56.984375 36.375 
Q 56.984375 17.96875 50.515625 8.265625 
Q 44.046875 -1.421875 31.78125 -1.421875 
Q 19.53125 -1.421875 13.0625 8.265625 
Q 6.59375 17.96875 6.59375 36.375 
Q 6.59375 54.828125 13.0625 64.515625 
Q 19.53125 74.21875 31.78125 74.21875 
z
" id="DejaVuSans-48"/>
        <path d="M 10.6875 12.40625 
L 21 12.40625 
L 21 0 
L 10.6875 0 
z
" id="DejaVuSans-46"/>
       </defs>
       <use xlink:href="#DejaVuSans-48"/>
       <use x="63.623047" xlink:href="#DejaVuSans-46"/>
       <use x="95.410156" xlink:href="#DejaVuSans-48"/>
      </g>
     </g>
    </g>
    <g id="xtick_2">
     <g id="line2d_2">
      <g>
       <use style="stroke:#000000;stroke-width:0.8;" x="90.305974" xlink:href="#m7eae499385" y="273.312"/>
      </g>
     </g>
     <g id="text_2">
      <!-- 2.5 -->
      <g transform="translate(82.354412 287.910437)scale(0.1 -0.1)">
       <defs>
        <path d="M 19.1875 8.296875 
L 53.609375 8.296875 
L 53.609375 0 
L 7.328125 0 
L 7.328125 8.296875 
Q 12.9375 14.109375 22.625 23.890625 
Q 32.328125 33.6875 34.8125 36.53125 
Q 39.546875 41.84375 41.421875 45.53125 
Q 43.3125 49.21875 43.3125 52.78125 
Q 43.3125 58.59375 39.234375 62.25 
Q 35.15625 65.921875 28.609375 65.921875 
Q 23.96875 65.921875 18.8125 64.3125 
Q 13.671875 62.703125 7.8125 59.421875 
L 7.8125 69.390625 
Q 13.765625 71.78125 18.9375 73 
Q 24.125 74.21875 28.421875 74.21875 
Q 39.75 74.21875 46.484375 68.546875 
Q 53.21875 62.890625 53.21875 53.421875 
Q 53.21875 48.921875 51.53125 44.890625 
Q 49.859375 40.875 45.40625 35.40625 
Q 44.1875 33.984375 37.640625 27.21875 
Q 31.109375 20.453125 19.1875 8.296875 
z
" id="DejaVuSans-50"/>
        <path d="M 10.796875 72.90625 
L 49.515625 72.90625 
L 49.515625 64.59375 
L 19.828125 64.59375 
L 19.828125 46.734375 
Q 21.96875 47.46875 24.109375 47.828125 
Q 26.265625 48.1875 28.421875 48.1875 
Q 40.625 48.1875 47.75 41.5 
Q 54.890625 34.8125 54.890625 23.390625 
Q 54.890625 11.625 47.5625 5.09375 
Q 40.234375 -1.421875 26.90625 -1.421875 
Q 22.3125 -1.421875 17.546875 -0.640625 
Q 12.796875 0.140625 7.71875 1.703125 
L 7.71875 11.625 
Q 12.109375 9.234375 16.796875 8.0625 
Q 21.484375 6.890625 26.703125 6.890625 
Q 35.15625 6.890625 40.078125 11.328125 
Q 45.015625 15.765625 45.015625 23.390625 
Q 45.015625 31 40.078125 35.4375 
Q 35.15625 39.890625 26.703125 39.890625 
Q 22.75 39.890625 18.8125 39.015625 
Q 14.890625 38.140625 10.796875 36.28125 
z
" id="DejaVuSans-53"/>
       </defs>
       <use xlink:href="#DejaVuSans-50"/>
       <use x="63.623047" xlink:href="#DejaVuSans-46"/>
       <use x="95.410156" xlink:href="#DejaVuSans-53"/>
      </g>
     </g>
    </g>
    <g id="xtick_3">
     <g id="line2d_3">
      <g>
       <use style="stroke:#000000;stroke-width:0.8;" x="131.091721" xlink:href="#m7eae499385" y="273.312"/>
      </g>
     </g>
     <g id="text_3">
      <!-- 5.0 -->
      <g transform="translate(123.140159 287.910437)scale(0.1 -0.1)">
       <use xlink:href="#DejaVuSans-53"/>
       <use x="63.623047" xlink:href="#DejaVuSans-46"/>
       <use x="95.410156" xlink:href="#DejaVuSans-48"/>
      </g>
     </g>
    </g>
    <g id="xtick_4">
     <g id="line2d_4">
      <g>
       <use style="stroke:#000000;stroke-width:0.8;" x="171.877468" xlink:href="#m7eae499385" y="273.312"/>
      </g>
     </g>
     <g id="text_4">
      <!-- 7.5 -->
      <g transform="translate(163.925906 287.910437)scale(0.1 -0.1)">
       <defs>
        <path d="M 8.203125 72.90625 
L 55.078125 72.90625 
L 55.078125 68.703125 
L 28.609375 0 
L 18.3125 0 
L 43.21875 64.59375 
L 8.203125 64.59375 
z
" id="DejaVuSans-55"/>
       </defs>
       <use xlink:href="#DejaVuSans-55"/>
       <use x="63.623047" xlink:href="#DejaVuSans-46"/>
       <use x="95.410156" xlink:href="#DejaVuSans-53"/>
      </g>
     </g>
    </g>
    <g id="xtick_5">
     <g id="line2d_5">
      <g>
       <use style="stroke:#000000;stroke-width:0.8;" x="212.663215" xlink:href="#m7eae499385" y="273.312"/>
      </g>
     </g>
     <g id="text_5">
      <!-- 10.0 -->
      <g transform="translate(201.530402 287.910437)scale(0.1 -0.1)">
       <defs>
        <path d="M 12.40625 8.296875 
L 28.515625 8.296875 
L 28.515625 63.921875 
L 10.984375 60.40625 
L 10.984375 69.390625 
L 28.421875 72.90625 
L 38.28125 72.90625 
L 38.28125 8.296875 
L 54.390625 8.296875 
L 54.390625 0 
L 12.40625 0 
z
" id="DejaVuSans-49"/>
       </defs>
       <use xlink:href="#DejaVuSans-49"/>
       <use x="63.623047" xlink:href="#DejaVuSans-48"/>
       <use x="127.246094" xlink:href="#DejaVuSans-46"/>
       <use x="159.033203" xlink:href="#DejaVuSans-48"/>
      </g>
     </g>
    </g>
    <g id="xtick_6">
     <g id="line2d_6">
      <g>
       <use style="stroke:#000000;stroke-width:0.8;" x="253.448962" xlink:href="#m7eae499385" y="273.312"/>
      </g>
     </g>
     <g id="text_6">
      <!-- 12.5 -->
      <g transform="translate(242.316149 287.910437)scale(0.1 -0.1)">
       <use xlink:href="#DejaVuSans-49"/>
       <use x="63.623047" xlink:href="#DejaVuSans-50"/>
       <use x="127.246094" xlink:href="#DejaVuSans-46"/>
       <use x="159.033203" xlink:href="#DejaVuSans-53"/>
      </g>
     </g>
    </g>
    <g id="xtick_7">
     <g id="line2d_7">
      <g>
       <use style="stroke:#000000;stroke-width:0.8;" x="294.234709" xlink:href="#m7eae499385" y="273.312"/>
      </g>
     </g>
     <g id="text_7">
      <!-- 15.0 -->
      <g transform="translate(283.101896 287.910437)scale(0.1 -0.1)">
       <use xlink:href="#DejaVuSans-49"/>
       <use x="63.623047" xlink:href="#DejaVuSans-53"/>
       <use x="127.246094" xlink:href="#DejaVuSans-46"/>
       <use x="159.033203" xlink:href="#DejaVuSans-48"/>
      </g>
     </g>
    </g>
    <g id="xtick_8">
     <g id="line2d_8">
      <g>
       <use style="stroke:#000000;stroke-width:0.8;" x="335.020456" xlink:href="#m7eae499385" y="273.312"/>
      </g>
     </g>
     <g id="text_8">
      <!-- 17.5 -->
      <g transform="translate(323.887643 287.910437)scale(0.1 -0.1)">
       <use xlink:href="#DejaVuSans-49"/>
       <use x="63.623047" xlink:href="#DejaVuSans-55"/>
       <use x="127.246094" xlink:href="#DejaVuSans-46"/>
       <use x="159.033203" xlink:href="#DejaVuSans-53"/>
      </g>
     </g>
    </g>
    <g id="xtick_9">
     <g id="line2d_9">
      <g>
       <use style="stroke:#000000;stroke-width:0.8;" x="375.806203" xlink:href="#m7eae499385" y="273.312"/>
      </g>
     </g>
     <g id="text_9">
      <!-- 20.0 -->
      <g transform="translate(364.67339 287.910437)scale(0.1 -0.1)">
       <use xlink:href="#DejaVuSans-50"/>
       <use x="63.623047" xlink:href="#DejaVuSans-48"/>
       <use x="127.246094" xlink:href="#DejaVuSans-46"/>
       <use x="159.033203" xlink:href="#DejaVuSans-48"/>
      </g>
     </g>
    </g>
   </g>
   <g id="matplotlib.axis_2">
    <g id="ytick_1">
     <g id="line2d_10">
      <defs>
       <path d="M 0 0 
L -3.5 0 
" id="md954bbe0d7" style="stroke:#000000;stroke-width:0.8;"/>
      </defs>
      <g>
       <use style="stroke:#000000;stroke-width:0.8;" x="33.2875" xlink:href="#md954bbe0d7" y="261.216"/>
      </g>
     </g>
     <g id="text_10">
      <!-- 0 -->
      <g transform="translate(19.925 265.015219)scale(0.1 -0.1)">
       <use xlink:href="#DejaVuSans-48"/>
      </g>
     </g>
    </g>
    <g id="ytick_2">
     <g id="line2d_11">
      <g>
       <use style="stroke:#000000;stroke-width:0.8;" x="33.2875" xlink:href="#md954bbe0d7" y="221.426526"/>
      </g>
     </g>
     <g id="text_11">
      <!-- 50 -->
      <g transform="translate(13.5625 225.225745)scale(0.1 -0.1)">
       <use xlink:href="#DejaVuSans-53"/>
       <use x="63.623047" xlink:href="#DejaVuSans-48"/>
      </g>
     </g>
    </g>
    <g id="ytick_3">
     <g id="line2d_12">
      <g>
       <use style="stroke:#000000;stroke-width:0.8;" x="33.2875" xlink:href="#md954bbe0d7" y="181.637053"/>
      </g>
     </g>
     <g id="text_12">
      <!-- 100 -->
      <g transform="translate(7.2 185.436271)scale(0.1 -0.1)">
       <use xlink:href="#DejaVuSans-49"/>
       <use x="63.623047" xlink:href="#DejaVuSans-48"/>
       <use x="127.246094" xlink:href="#DejaVuSans-48"/>
      </g>
     </g>
    </g>
    <g id="ytick_4">
     <g id="line2d_13">
      <g>
       <use style="stroke:#000000;stroke-width:0.8;" x="33.2875" xlink:href="#md954bbe0d7" y="141.847579"/>
      </g>
     </g>
     <g id="text_13">
      <!-- 150 -->
      <g transform="translate(7.2 145.646798)scale(0.1 -0.1)">
       <use xlink:href="#DejaVuSans-49"/>
       <use x="63.623047" xlink:href="#DejaVuSans-53"/>
       <use x="127.246094" xlink:href="#DejaVuSans-48"/>
      </g>
     </g>
    </g>
    <g id="ytick_5">
     <g id="line2d_14">
      <g>
       <use style="stroke:#000000;stroke-width:0.8;" x="33.2875" xlink:href="#md954bbe0d7" y="102.058105"/>
      </g>
     </g>
     <g id="text_14">
      <!-- 200 -->
      <g transform="translate(7.2 105.857324)scale(0.1 -0.1)">
       <use xlink:href="#DejaVuSans-50"/>
       <use x="63.623047" xlink:href="#DejaVuSans-48"/>
       <use x="127.246094" xlink:href="#DejaVuSans-48"/>
      </g>
     </g>
    </g>
    <g id="ytick_6">
     <g id="line2d_15">
      <g>
       <use style="stroke:#000000;stroke-width:0.8;" x="33.2875" xlink:href="#md954bbe0d7" y="62.268632"/>
      </g>
     </g>
     <g id="text_15">
      <!-- 250 -->
      <g transform="translate(7.2 66.06785)scale(0.1 -0.1)">
       <use xlink:href="#DejaVuSans-50"/>
       <use x="63.623047" xlink:href="#DejaVuSans-53"/>
       <use x="127.246094" xlink:href="#DejaVuSans-48"/>
      </g>
     </g>
    </g>
    <g id="ytick_7">
     <g id="line2d_16">
      <g>
       <use style="stroke:#000000;stroke-width:0.8;" x="33.2875" xlink:href="#md954bbe0d7" y="22.479158"/>
      </g>
     </g>
     <g id="text_16">
      <!-- 300 -->
      <g transform="translate(7.2 26.278377)scale(0.1 -0.1)">
       <defs>
        <path d="M 40.578125 39.3125 
Q 47.65625 37.796875 51.625 33 
Q 55.609375 28.21875 55.609375 21.1875 
Q 55.609375 10.40625 48.1875 4.484375 
Q 40.765625 -1.421875 27.09375 -1.421875 
Q 22.515625 -1.421875 17.65625 -0.515625 
Q 12.796875 0.390625 7.625 2.203125 
L 7.625 11.71875 
Q 11.71875 9.328125 16.59375 8.109375 
Q 21.484375 6.890625 26.8125 6.890625 
Q 36.078125 6.890625 40.9375 10.546875 
Q 45.796875 14.203125 45.796875 21.1875 
Q 45.796875 27.640625 41.28125 31.265625 
Q 36.765625 34.90625 28.71875 34.90625 
L 20.21875 34.90625 
L 20.21875 43.015625 
L 29.109375 43.015625 
Q 36.375 43.015625 40.234375 45.921875 
Q 44.09375 48.828125 44.09375 54.296875 
Q 44.09375 59.90625 40.109375 62.90625 
Q 36.140625 65.921875 28.71875 65.921875 
Q 24.65625 65.921875 20.015625 65.03125 
Q 15.375 64.15625 9.8125 62.3125 
L 9.8125 71.09375 
Q 15.4375 72.65625 20.34375 73.4375 
Q 25.25 74.21875 29.59375 74.21875 
Q 40.828125 74.21875 47.359375 69.109375 
Q 53.90625 64.015625 53.90625 55.328125 
Q 53.90625 49.265625 50.4375 45.09375 
Q 46.96875 40.921875 40.578125 39.3125 
z
" id="DejaVuSans-51"/>
       </defs>
       <use xlink:href="#DejaVuSans-51"/>
       <use x="63.623047" xlink:href="#DejaVuSans-48"/>
       <use x="127.246094" xlink:href="#DejaVuSans-48"/>
      </g>
     </g>
    </g>
   </g>
   <g id="line2d_17">
    <path clip-path="url(#pfec6a3fc11)" d="M 49.520227 261.216 
L 51.151657 191.982316 
L 52.783087 147.418105 
L 54.414517 124.340211 
L 56.045947 106.832842 
L 57.677377 86.142316 
L 59.308807 78.184421 
L 60.940236 75.797053 
L 62.571666 76.592842 
L 64.203096 67.839158 
L 65.834526 69.430737 
L 67.465956 68.634947 
L 69.097386 53.514947 
L 70.728816 62.268632 
L 72.360246 64.656 
L 73.991675 61.472842 
L 75.623105 67.839158 
L 77.254535 57.493895 
L 78.885965 63.064421 
L 80.517395 78.980211 
L 82.148825 85.346526 
L 83.780255 75.001263 
L 85.411685 60.677053 
L 87.043114 75.001263 
L 88.674544 63.064421 
L 90.305974 59.881263 
L 91.937404 55.106526 
L 93.568834 57.493895 
L 95.200264 55.106526 
L 96.831694 53.514947 
L 98.463124 62.268632 
L 100.094553 65.451789 
L 101.725983 63.064421 
L 103.357413 62.268632 
L 106.620273 71.818105 
L 108.251703 62.268632 
L 109.883133 63.064421 
L 111.514563 47.148632 
L 113.145992 47.944421 
L 114.777422 43.965474 
L 116.408852 55.106526 
L 118.040282 67.839158 
L 119.671712 78.980211 
L 121.303142 71.022316 
L 122.934572 71.818105 
L 124.566002 68.634947 
L 126.197431 62.268632 
L 127.828861 56.698105 
L 129.460291 62.268632 
L 131.091721 43.965474 
L 132.723151 51.127579 
L 134.354581 51.127579 
L 135.986011 54.310737 
L 137.617441 58.289684 
L 139.24887 60.677053 
L 140.8803 51.127579 
L 142.51173 55.106526 
L 144.14316 55.902316 
L 145.77459 64.656 
L 147.40602 69.430737 
L 149.03745 58.289684 
L 150.66888 55.902316 
L 152.30031 48.740211 
L 153.931739 47.148632 
L 155.563169 44.761263 
L 157.194599 52.719158 
L 158.826029 63.064421 
L 160.457459 48.740211 
L 162.088889 47.148632 
L 163.720319 55.106526 
L 165.351749 59.881263 
L 166.983178 63.064421 
L 168.614608 59.881263 
L 170.246038 51.923368 
L 171.877468 59.881263 
L 173.508898 57.493895 
L 175.140328 58.289684 
L 176.771758 57.493895 
L 178.403188 67.043368 
L 180.034617 58.289684 
L 181.666047 41.578105 
L 183.297477 39.190737 
L 184.928907 39.190737 
L 186.560337 47.148632 
L 188.191767 58.289684 
L 189.823197 55.106526 
L 191.454627 66.247579 
L 193.086056 75.797053 
L 194.717486 60.677053 
L 196.348916 55.106526 
L 197.980346 47.148632 
L 199.611776 44.761263 
L 201.243206 47.944421 
L 202.874636 47.944421 
L 204.506066 50.331789 
L 206.137495 43.169684 
L 207.768925 47.944421 
L 209.400355 57.493895 
L 211.031785 68.634947 
L 212.663215 64.656 
L 214.294645 51.923368 
L 215.926075 55.902316 
L 217.557505 72.613895 
L 219.188934 63.064421 
L 220.820364 66.247579 
L 222.451794 52.719158 
L 224.083224 51.923368 
L 225.714654 56.698105 
L 227.346084 51.923368 
L 228.977514 47.944421 
L 230.608944 54.310737 
L 232.240373 67.043368 
L 233.871803 65.451789 
L 235.503233 63.064421 
L 237.134663 51.923368 
L 238.766093 47.944421 
L 240.397523 54.310737 
L 242.028953 59.881263 
L 243.660383 52.719158 
L 245.291812 38.394947 
L 246.923242 43.169684 
L 248.554672 42.373895 
L 250.186102 55.902316 
L 251.817532 61.472842 
L 253.448962 69.430737 
L 255.080392 73.409684 
L 258.343251 57.493895 
L 259.974681 59.085474 
L 261.606111 45.557053 
L 263.237541 54.310737 
L 264.868971 59.085474 
L 266.500401 60.677053 
L 268.131831 56.698105 
L 269.763261 55.106526 
L 271.39469 49.536 
L 273.02612 60.677053 
L 274.65755 62.268632 
L 276.28898 62.268632 
L 277.92041 67.839158 
L 279.55184 65.451789 
L 281.18327 71.022316 
L 282.8147 62.268632 
L 284.44613 68.634947 
L 286.077559 74.205474 
L 287.708989 70.226526 
L 289.340419 78.184421 
L 290.971849 68.634947 
L 292.603279 72.613895 
L 294.234709 71.818105 
L 295.866139 69.430737 
L 297.497569 59.881263 
L 299.128998 58.289684 
L 300.760428 57.493895 
L 302.391858 55.106526 
L 304.023288 59.085474 
L 305.654718 62.268632 
L 307.286148 55.106526 
L 308.917578 51.923368 
L 310.549008 47.148632 
L 312.180437 51.127579 
L 313.811867 59.881263 
L 315.443297 63.064421 
L 317.074727 54.310737 
L 318.706157 57.493895 
L 320.337587 55.106526 
L 321.969017 70.226526 
L 323.600447 73.409684 
L 325.231876 79.776 
L 326.863306 79.776 
L 328.494736 65.451789 
L 330.126166 67.839158 
L 331.757596 65.451789 
L 335.020456 62.268632 
L 336.651886 69.430737 
L 338.283315 67.043368 
L 339.914745 48.740211 
L 341.546175 44.761263 
L 343.177605 55.902316 
L 344.809035 55.902316 
L 346.440465 51.127579 
L 348.071895 63.064421 
L 349.703325 63.064421 
L 351.334754 67.839158 
L 352.966184 70.226526 
L 354.597614 66.247579 
L 356.229044 74.205474 
L 357.860474 80.571789 
L 359.491904 77.388632 
L 361.123334 71.022316 
L 362.754764 60.677053 
L 364.386193 55.106526 
L 366.017623 60.677053 
L 367.649053 58.289684 
L 369.280483 63.860211 
L 370.911913 46.352842 
L 372.543343 50.331789 
L 374.174773 51.127579 
L 374.174773 51.127579 
" style="fill:none;stroke:#1f77b4;stroke-linecap:square;stroke-width:1.5;"/>
   </g>
   <g id="line2d_18">
    <path clip-path="url(#pfec6a3fc11)" d="M 49.520227 261.216 
L 51.151657 253.258105 
L 52.783087 229.384421 
L 54.414517 196.757053 
L 56.045947 166.517053 
L 59.308807 132.298105 
L 60.940236 122.748632 
L 62.571666 99.670737 
L 64.203096 98.874947 
L 65.834526 78.980211 
L 67.465956 74.205474 
L 69.097386 78.980211 
L 70.728816 67.839158 
L 72.360246 64.656 
L 73.991675 67.839158 
L 75.623105 52.719158 
L 77.254535 60.677053 
L 78.885965 53.514947 
L 80.517395 47.148632 
L 82.148825 47.148632 
L 85.411685 79.776 
L 87.043114 70.226526 
L 88.674544 81.367579 
L 90.305974 82.163368 
L 91.937404 85.346526 
L 93.568834 78.184421 
L 95.200264 87.733895 
L 96.831694 78.980211 
L 98.463124 79.776 
L 100.094553 69.430737 
L 101.725983 72.613895 
L 103.357413 67.839158 
L 104.988843 55.106526 
L 106.620273 57.493895 
L 108.251703 64.656 
L 109.883133 63.860211 
L 111.514563 80.571789 
L 113.145992 73.409684 
L 114.777422 71.022316 
L 116.408852 52.719158 
L 118.040282 32.028632 
L 119.671712 32.824421 
L 121.303142 48.740211 
L 122.934572 44.761263 
L 124.566002 47.148632 
L 126.197431 56.698105 
L 127.828861 63.860211 
L 129.460291 54.310737 
L 131.091721 74.205474 
L 132.723151 59.881263 
L 134.354581 59.085474 
L 135.986011 63.860211 
L 137.617441 65.451789 
L 139.24887 60.677053 
L 142.51173 55.902316 
L 144.14316 60.677053 
L 145.77459 50.331789 
L 147.40602 43.965474 
L 149.03745 62.268632 
L 152.30031 67.043368 
L 153.931739 67.043368 
L 155.563169 59.881263 
L 157.194599 68.634947 
L 158.826029 60.677053 
L 160.457459 73.409684 
L 162.088889 71.022316 
L 163.720319 66.247579 
L 165.351749 44.761263 
L 166.983178 39.190737 
L 168.614608 46.352842 
L 170.246038 58.289684 
L 171.877468 56.698105 
L 173.508898 71.022316 
L 175.140328 51.923368 
L 176.771758 54.310737 
L 178.403188 51.127579 
L 180.034617 58.289684 
L 181.666047 75.797053 
L 183.297477 76.592842 
L 184.928907 78.184421 
L 186.560337 74.205474 
L 188.191767 54.310737 
L 191.454627 35.211789 
L 193.086056 19.296 
L 194.717486 58.289684 
L 196.348916 61.472842 
L 197.980346 54.310737 
L 199.611776 62.268632 
L 201.243206 72.613895 
L 202.874636 71.022316 
L 204.506066 59.085474 
L 206.137495 63.860211 
L 207.768925 59.085474 
L 209.400355 71.818105 
L 211.031785 53.514947 
L 212.663215 66.247579 
L 214.294645 65.451789 
L 215.926075 42.373895 
L 217.557505 33.620211 
L 219.188934 59.881263 
L 220.820364 63.064421 
L 222.451794 73.409684 
L 225.714654 73.409684 
L 227.346084 64.656 
L 228.977514 56.698105 
L 230.608944 54.310737 
L 232.240373 58.289684 
L 233.871803 58.289684 
L 235.503233 59.881263 
L 237.134663 73.409684 
L 238.766093 75.001263 
L 240.397523 71.818105 
L 242.028953 61.472842 
L 243.660383 63.860211 
L 245.291812 92.508632 
L 246.923242 89.325474 
L 248.554672 77.388632 
L 250.186102 58.289684 
L 251.817532 47.148632 
L 253.448962 39.190737 
L 255.080392 39.190737 
L 256.711822 59.881263 
L 258.343251 71.022316 
L 259.974681 56.698105 
L 261.606111 62.268632 
L 263.237541 61.472842 
L 264.868971 49.536 
L 266.500401 64.656 
L 268.131831 69.430737 
L 269.763261 66.247579 
L 271.39469 75.797053 
L 273.02612 58.289684 
L 274.65755 56.698105 
L 276.28898 42.373895 
L 277.92041 43.965474 
L 279.55184 51.923368 
L 281.18327 48.740211 
L 282.8147 67.043368 
L 284.44613 60.677053 
L 286.077559 47.944421 
L 287.708989 48.740211 
L 289.340419 51.127579 
L 290.971849 59.881263 
L 292.603279 53.514947 
L 294.234709 49.536 
L 295.866139 58.289684 
L 297.497569 64.656 
L 299.128998 69.430737 
L 300.760428 68.634947 
L 302.391858 66.247579 
L 304.023288 54.310737 
L 305.654718 54.310737 
L 307.286148 57.493895 
L 308.917578 63.064421 
L 310.549008 60.677053 
L 312.180437 52.719158 
L 313.811867 63.064421 
L 315.443297 69.430737 
L 317.074727 84.550737 
L 318.706157 71.022316 
L 320.337587 64.656 
L 321.969017 52.719158 
L 323.600447 44.761263 
L 325.231876 35.211789 
L 326.863306 42.373895 
L 328.494736 57.493895 
L 330.126166 63.064421 
L 331.757596 55.902316 
L 333.389026 68.634947 
L 336.651886 67.043368 
L 338.283315 69.430737 
L 339.914745 76.592842 
L 341.546175 76.592842 
L 343.177605 71.818105 
L 344.809035 64.656 
L 346.440465 71.022316 
L 348.071895 62.268632 
L 349.703325 66.247579 
L 351.334754 66.247579 
L 352.966184 69.430737 
L 354.597614 63.860211 
L 356.229044 48.740211 
L 357.860474 45.557053 
L 359.491904 53.514947 
L 361.123334 47.944421 
L 362.754764 58.289684 
L 364.386193 64.656 
L 366.017623 67.839158 
L 367.649053 67.043368 
L 369.280483 68.634947 
L 370.911913 84.550737 
L 372.543343 73.409684 
L 374.174773 65.451789 
L 374.174773 65.451789 
" style="fill:none;stroke:#ff7f0e;stroke-linecap:square;stroke-width:1.5;"/>
   </g>
   <g id="patch_3">
    <path d="M 33.2875 273.312 
L 33.2875 7.2 
" style="fill:none;stroke:#000000;stroke-linecap:square;stroke-linejoin:miter;stroke-width:0.8;"/>
   </g>
   <g id="patch_4">
    <path d="M 390.4075 273.312 
L 390.4075 7.2 
" style="fill:none;stroke:#000000;stroke-linecap:square;stroke-linejoin:miter;stroke-width:0.8;"/>
   </g>
   <g id="patch_5">
    <path d="M 33.2875 273.312 
L 390.4075 273.312 
" style="fill:none;stroke:#000000;stroke-linecap:square;stroke-linejoin:miter;stroke-width:0.8;"/>
   </g>
   <g id="patch_6">
    <path d="M 33.2875 7.2 
L 390.4075 7.2 
" style="fill:none;stroke:#000000;stroke-linecap:square;stroke-linejoin:miter;stroke-width:0.8;"/>
   </g>
  </g>
 </g>
 <defs>
  <clipPath id="pfec6a3fc11">
   <rect height="266.112" width="357.12" x="33.2875" y="7.2"/>
  </clipPath>
 </defs>
</svg>
