<?xml version="1.0" encoding="utf-8" standalone="no"?>
<!DOCTYPE svg PUBLIC "-//W3C//DTD SVG 1.1//EN"
  "http://www.w3.org/Graphics/SVG/1.1/DTD/svg11.dtd">
<svg xmlns:xlink="http://www.w3.org/1999/xlink" width="403.97pt" height="297.190125pt" viewBox="0 0 403.97 297.190125" xmlns="http://www.w3.org/2000/svg" version="1.1">
 <metadata>
  <rdf:RDF xmlns:dc="http://purl.org/dc/elements/1.1/" xmlns:cc="http://creativecommons.org/ns#" xmlns:rdf="http://www.w3.org/1999/02/22-rdf-syntax-ns#">
   <cc:Work>
    <dc:type rdf:resource="http://purl.org/dc/dcmitype/StillImage"/>
    <dc:date>2024-07-05T06:53:33.402431</dc:date>
    <dc:format>image/svg+xml</dc:format>
    <dc:creator>
     <cc:Agent>
      <dc:title>Matplotlib v3.9.1, https://matplotlib.org/</dc:title>
     </cc:Agent>
    </dc:creator>
   </cc:Work>
  </rdf:RDF>
 </metadata>
 <defs>
  <style type="text/css">*{stroke-linejoin: round; stroke-linecap: butt}</style>
 </defs>
 <g id="figure_1">
  <g id="patch_1">
   <path d="M 0 297.190125 
L 403.97 297.190125 
L 403.97 0 
L 0 0 
z
" style="fill: #ffffff"/>
  </g>
  <g id="axes_1">
   <g id="patch_2">
    <path d="M 39.65 273.312 
L 396.77 273.312 
L 396.77 7.2 
L 39.65 7.2 
z
" style="fill: #ffffff"/>
   </g>
   <g id="matplotlib.axis_1">
    <g id="xtick_1">
     <g id="line2d_1">
      <defs>
       <path id="m051c92218c" d="M 0 0 
L 0 3.5 
" style="stroke: #000000; stroke-width: 0.8"/>
      </defs>
      <g>
       <use xlink:href="#m051c92218c" x="55.882727" y="273.312" style="stroke: #000000; stroke-width: 0.8"/>
      </g>
     </g>
     <g id="text_1">
      <!-- 0.0 -->
      <g transform="translate(47.931165 287.910437) scale(0.1 -0.1)">
       <defs>
        <path id="DejaVuSans-30" d="M 2034 4250 
Q 1547 4250 1301 3770 
Q 1056 3291 1056 2328 
Q 1056 1369 1301 889 
Q 1547 409 2034 409 
Q 2525 409 2770 889 
Q 3016 1369 3016 2328 
Q 3016 3291 2770 3770 
Q 2525 4250 2034 4250 
z
M 2034 4750 
Q 2819 4750 3233 4129 
Q 3647 3509 3647 2328 
Q 3647 1150 3233 529 
Q 2819 -91 2034 -91 
Q 1250 -91 836 529 
Q 422 1150 422 2328 
Q 422 3509 836 4129 
Q 1250 4750 2034 4750 
z
" transform="scale(0.015625)"/>
        <path id="DejaVuSans-2e" d="M 684 794 
L 1344 794 
L 1344 0 
L 684 0 
L 684 794 
z
" transform="scale(0.015625)"/>
       </defs>
       <use xlink:href="#DejaVuSans-30"/>
       <use xlink:href="#DejaVuSans-2e" x="63.623047"/>
       <use xlink:href="#DejaVuSans-30" x="95.410156"/>
      </g>
     </g>
    </g>
    <g id="xtick_2">
     <g id="line2d_2">
      <g>
       <use xlink:href="#m051c92218c" x="96.668474" y="273.312" style="stroke: #000000; stroke-width: 0.8"/>
      </g>
     </g>
     <g id="text_2">
      <!-- 2.5 -->
      <g transform="translate(88.716912 287.910437) scale(0.1 -0.1)">
       <defs>
        <path id="DejaVuSans-32" d="M 1228 531 
L 3431 531 
L 3431 0 
L 469 0 
L 469 531 
Q 828 903 1448 1529 
Q 2069 2156 2228 2338 
Q 2531 2678 2651 2914 
Q 2772 3150 2772 3378 
Q 2772 3750 2511 3984 
Q 2250 4219 1831 4219 
Q 1534 4219 1204 4116 
Q 875 4013 500 3803 
L 500 4441 
Q 881 4594 1212 4672 
Q 1544 4750 1819 4750 
Q 2544 4750 2975 4387 
Q 3406 4025 3406 3419 
Q 3406 3131 3298 2873 
Q 3191 2616 2906 2266 
Q 2828 2175 2409 1742 
Q 1991 1309 1228 531 
z
" transform="scale(0.015625)"/>
        <path id="DejaVuSans-35" d="M 691 4666 
L 3169 4666 
L 3169 4134 
L 1269 4134 
L 1269 2991 
Q 1406 3038 1543 3061 
Q 1681 3084 1819 3084 
Q 2600 3084 3056 2656 
Q 3513 2228 3513 1497 
Q 3513 744 3044 326 
Q 2575 -91 1722 -91 
Q 1428 -91 1123 -41 
Q 819 9 494 109 
L 494 744 
Q 775 591 1075 516 
Q 1375 441 1709 441 
Q 2250 441 2565 725 
Q 2881 1009 2881 1497 
Q 2881 1984 2565 2268 
Q 2250 2553 1709 2553 
Q 1456 2553 1204 2497 
Q 953 2441 691 2322 
L 691 4666 
z
" transform="scale(0.015625)"/>
       </defs>
       <use xlink:href="#DejaVuSans-32"/>
       <use xlink:href="#DejaVuSans-2e" x="63.623047"/>
       <use xlink:href="#DejaVuSans-35" x="95.410156"/>
      </g>
     </g>
    </g>
    <g id="xtick_3">
     <g id="line2d_3">
      <g>
       <use xlink:href="#m051c92218c" x="137.454221" y="273.312" style="stroke: #000000; stroke-width: 0.8"/>
      </g>
     </g>
     <g id="text_3">
      <!-- 5.0 -->
      <g transform="translate(129.502659 287.910437) scale(0.1 -0.1)">
       <use xlink:href="#DejaVuSans-35"/>
       <use xlink:href="#DejaVuSans-2e" x="63.623047"/>
       <use xlink:href="#DejaVuSans-30" x="95.410156"/>
      </g>
     </g>
    </g>
    <g id="xtick_4">
     <g id="line2d_4">
      <g>
       <use xlink:href="#m051c92218c" x="178.239968" y="273.312" style="stroke: #000000; stroke-width: 0.8"/>
      </g>
     </g>
     <g id="text_4">
      <!-- 7.5 -->
      <g transform="translate(170.288406 287.910437) scale(0.1 -0.1)">
       <defs>
        <path id="DejaVuSans-37" d="M 525 4666 
L 3525 4666 
L 3525 4397 
L 1831 0 
L 1172 0 
L 2766 4134 
L 525 4134 
L 525 4666 
z
" transform="scale(0.015625)"/>
       </defs>
       <use xlink:href="#DejaVuSans-37"/>
       <use xlink:href="#DejaVuSans-2e" x="63.623047"/>
       <use xlink:href="#DejaVuSans-35" x="95.410156"/>
      </g>
     </g>
    </g>
    <g id="xtick_5">
     <g id="line2d_5">
      <g>
       <use xlink:href="#m051c92218c" x="219.025715" y="273.312" style="stroke: #000000; stroke-width: 0.8"/>
      </g>
     </g>
     <g id="text_5">
      <!-- 10.0 -->
      <g transform="translate(207.892902 287.910437) scale(0.1 -0.1)">
       <defs>
        <path id="DejaVuSans-31" d="M 794 531 
L 1825 531 
L 1825 4091 
L 703 3866 
L 703 4441 
L 1819 4666 
L 2450 4666 
L 2450 531 
L 3481 531 
L 3481 0 
L 794 0 
L 794 531 
z
" transform="scale(0.015625)"/>
       </defs>
       <use xlink:href="#DejaVuSans-31"/>
       <use xlink:href="#DejaVuSans-30" x="63.623047"/>
       <use xlink:href="#DejaVuSans-2e" x="127.246094"/>
       <use xlink:href="#DejaVuSans-30" x="159.033203"/>
      </g>
     </g>
    </g>
    <g id="xtick_6">
     <g id="line2d_6">
      <g>
       <use xlink:href="#m051c92218c" x="259.811462" y="273.312" style="stroke: #000000; stroke-width: 0.8"/>
      </g>
     </g>
     <g id="text_6">
      <!-- 12.5 -->
      <g transform="translate(248.678649 287.910437) scale(0.1 -0.1)">
       <use xlink:href="#DejaVuSans-31"/>
       <use xlink:href="#DejaVuSans-32" x="63.623047"/>
       <use xlink:href="#DejaVuSans-2e" x="127.246094"/>
       <use xlink:href="#DejaVuSans-35" x="159.033203"/>
      </g>
     </g>
    </g>
    <g id="xtick_7">
     <g id="line2d_7">
      <g>
       <use xlink:href="#m051c92218c" x="300.597209" y="273.312" style="stroke: #000000; stroke-width: 0.8"/>
      </g>
     </g>
     <g id="text_7">
      <!-- 15.0 -->
      <g transform="translate(289.464396 287.910437) scale(0.1 -0.1)">
       <use xlink:href="#DejaVuSans-31"/>
       <use xlink:href="#DejaVuSans-35" x="63.623047"/>
       <use xlink:href="#DejaVuSans-2e" x="127.246094"/>
       <use xlink:href="#DejaVuSans-30" x="159.033203"/>
      </g>
     </g>
    </g>
    <g id="xtick_8">
     <g id="line2d_8">
      <g>
       <use xlink:href="#m051c92218c" x="341.382956" y="273.312" style="stroke: #000000; stroke-width: 0.8"/>
      </g>
     </g>
     <g id="text_8">
      <!-- 17.5 -->
      <g transform="translate(330.250143 287.910437) scale(0.1 -0.1)">
       <use xlink:href="#DejaVuSans-31"/>
       <use xlink:href="#DejaVuSans-37" x="63.623047"/>
       <use xlink:href="#DejaVuSans-2e" x="127.246094"/>
       <use xlink:href="#DejaVuSans-35" x="159.033203"/>
      </g>
     </g>
    </g>
    <g id="xtick_9">
     <g id="line2d_9">
      <g>
       <use xlink:href="#m051c92218c" x="382.168703" y="273.312" style="stroke: #000000; stroke-width: 0.8"/>
      </g>
     </g>
     <g id="text_9">
      <!-- 20.0 -->
      <g transform="translate(371.03589 287.910437) scale(0.1 -0.1)">
       <use xlink:href="#DejaVuSans-32"/>
       <use xlink:href="#DejaVuSans-30" x="63.623047"/>
       <use xlink:href="#DejaVuSans-2e" x="127.246094"/>
       <use xlink:href="#DejaVuSans-30" x="159.033203"/>
      </g>
     </g>
    </g>
   </g>
   <g id="matplotlib.axis_2">
    <g id="ytick_1">
     <g id="line2d_10">
      <defs>
       <path id="mdcbbc3206b" d="M 0 0 
L -3.5 0 
" style="stroke: #000000; stroke-width: 0.8"/>
      </defs>
      <g>
       <use xlink:href="#mdcbbc3206b" x="39.65" y="261.216" style="stroke: #000000; stroke-width: 0.8"/>
      </g>
     </g>
     <g id="text_10">
      <!-- 0 -->
      <g transform="translate(26.2875 265.015219) scale(0.1 -0.1)">
       <use xlink:href="#DejaVuSans-30"/>
      </g>
     </g>
    </g>
    <g id="ytick_2">
     <g id="line2d_11">
      <g>
       <use xlink:href="#mdcbbc3206b" x="39.65" y="223.237978" style="stroke: #000000; stroke-width: 0.8"/>
      </g>
     </g>
     <g id="text_11">
      <!-- 500 -->
      <g transform="translate(13.5625 227.037197) scale(0.1 -0.1)">
       <use xlink:href="#DejaVuSans-35"/>
       <use xlink:href="#DejaVuSans-30" x="63.623047"/>
       <use xlink:href="#DejaVuSans-30" x="127.246094"/>
      </g>
     </g>
    </g>
    <g id="ytick_3">
     <g id="line2d_12">
      <g>
       <use xlink:href="#mdcbbc3206b" x="39.65" y="185.259956" style="stroke: #000000; stroke-width: 0.8"/>
      </g>
     </g>
     <g id="text_12">
      <!-- 1000 -->
      <g transform="translate(7.2 189.059175) scale(0.1 -0.1)">
       <use xlink:href="#DejaVuSans-31"/>
       <use xlink:href="#DejaVuSans-30" x="63.623047"/>
       <use xlink:href="#DejaVuSans-30" x="127.246094"/>
       <use xlink:href="#DejaVuSans-30" x="190.869141"/>
      </g>
     </g>
    </g>
    <g id="ytick_4">
     <g id="line2d_13">
      <g>
       <use xlink:href="#mdcbbc3206b" x="39.65" y="147.281934" style="stroke: #000000; stroke-width: 0.8"/>
      </g>
     </g>
     <g id="text_13">
      <!-- 1500 -->
      <g transform="translate(7.2 151.081153) scale(0.1 -0.1)">
       <use xlink:href="#DejaVuSans-31"/>
       <use xlink:href="#DejaVuSans-35" x="63.623047"/>
       <use xlink:href="#DejaVuSans-30" x="127.246094"/>
       <use xlink:href="#DejaVuSans-30" x="190.869141"/>
      </g>
     </g>
    </g>
    <g id="ytick_5">
     <g id="line2d_14">
      <g>
       <use xlink:href="#mdcbbc3206b" x="39.65" y="109.303912" style="stroke: #000000; stroke-width: 0.8"/>
      </g>
     </g>
     <g id="text_14">
      <!-- 2000 -->
      <g transform="translate(7.2 113.103131) scale(0.1 -0.1)">
       <use xlink:href="#DejaVuSans-32"/>
       <use xlink:href="#DejaVuSans-30" x="63.623047"/>
       <use xlink:href="#DejaVuSans-30" x="127.246094"/>
       <use xlink:href="#DejaVuSans-30" x="190.869141"/>
      </g>
     </g>
    </g>
    <g id="ytick_6">
     <g id="line2d_15">
      <g>
       <use xlink:href="#mdcbbc3206b" x="39.65" y="71.32589" style="stroke: #000000; stroke-width: 0.8"/>
      </g>
     </g>
     <g id="text_15">
      <!-- 2500 -->
      <g transform="translate(7.2 75.125109) scale(0.1 -0.1)">
       <use xlink:href="#DejaVuSans-32"/>
       <use xlink:href="#DejaVuSans-35" x="63.623047"/>
       <use xlink:href="#DejaVuSans-30" x="127.246094"/>
       <use xlink:href="#DejaVuSans-30" x="190.869141"/>
      </g>
     </g>
    </g>
    <g id="ytick_7">
     <g id="line2d_16">
      <g>
       <use xlink:href="#mdcbbc3206b" x="39.65" y="33.347868" style="stroke: #000000; stroke-width: 0.8"/>
      </g>
     </g>
     <g id="text_16">
      <!-- 3000 -->
      <g transform="translate(7.2 37.147087) scale(0.1 -0.1)">
       <defs>
        <path id="DejaVuSans-33" d="M 2597 2516 
Q 3050 2419 3304 2112 
Q 3559 1806 3559 1356 
Q 3559 666 3084 287 
Q 2609 -91 1734 -91 
Q 1441 -91 1130 -33 
Q 819 25 488 141 
L 488 750 
Q 750 597 1062 519 
Q 1375 441 1716 441 
Q 2309 441 2620 675 
Q 2931 909 2931 1356 
Q 2931 1769 2642 2001 
Q 2353 2234 1838 2234 
L 1294 2234 
L 1294 2753 
L 1863 2753 
Q 2328 2753 2575 2939 
Q 2822 3125 2822 3475 
Q 2822 3834 2567 4026 
Q 2313 4219 1838 4219 
Q 1578 4219 1281 4162 
Q 984 4106 628 3988 
L 628 4550 
Q 988 4650 1302 4700 
Q 1616 4750 1894 4750 
Q 2613 4750 3031 4423 
Q 3450 4097 3450 3541 
Q 3450 3153 3228 2886 
Q 3006 2619 2597 2516 
z
" transform="scale(0.015625)"/>
       </defs>
       <use xlink:href="#DejaVuSans-33"/>
       <use xlink:href="#DejaVuSans-30" x="63.623047"/>
       <use xlink:href="#DejaVuSans-30" x="127.246094"/>
       <use xlink:href="#DejaVuSans-30" x="190.869141"/>
      </g>
     </g>
    </g>
   </g>
   <g id="line2d_17">
    <path d="M 55.882727 261.216 
L 72.197026 185.259956 
L 88.511325 134.622593 
L 104.825624 100.864352 
L 121.139922 78.358857 
L 137.454221 63.355194 
L 153.76852 53.352752 
L 170.082819 46.684457 
L 186.397117 42.238928 
L 202.711416 39.275241 
L 219.025715 37.29945 
L 235.340014 35.982256 
L 251.654312 35.104127 
L 267.968611 34.518707 
L 284.28291 34.128428 
L 300.597209 33.868241 
L 316.911508 33.694783 
L 333.225806 33.579145 
L 349.540105 33.502053 
L 365.854404 33.450658 
" clip-path="url(#p60c7d94c5d)" style="fill: none; stroke: #1f77b4; stroke-width: 1.5; stroke-linecap: square"/>
   </g>
   <g id="line2d_18">
    <path d="M 55.882727 261.216 
L 72.197026 261.216 
L 88.511325 235.897319 
L 104.825624 210.578637 
L 121.139922 190.88633 
L 137.454221 176.820396 
L 153.76852 167.13053 
L 170.082819 160.566427 
L 186.397117 156.155628 
L 202.711416 153.203519 
L 219.025715 151.231587 
L 235.340014 149.915679 
L 251.654312 149.037978 
L 267.968611 148.452702 
L 284.28291 148.06247 
L 300.597209 147.802299 
L 316.911508 147.628847 
L 333.225806 147.51321 
L 349.540105 147.436118 
L 365.854404 147.384724 
" clip-path="url(#p60c7d94c5d)" style="fill: none; stroke: #ff7f0e; stroke-width: 1.5; stroke-linecap: square"/>
   </g>
   <g id="line2d_19">
    <path d="M 55.882727 261.216 
L 59.145587 245.872879 
L 62.408447 230.30189 
L 65.671307 217.237451 
L 73.828456 189.057758 
L 77.091316 181.310242 
L 78.722746 175.689495 
L 80.354175 171.967648 
L 83.617035 163.916308 
L 85.248465 160.346374 
L 86.879895 156.016879 
L 88.511325 152.370989 
L 90.142755 147.889582 
L 95.037044 135.584703 
L 98.299904 127.989099 
L 101.562764 122.444308 
L 103.194194 121.456879 
L 104.825624 118.114813 
L 106.457053 115.380396 
L 108.088483 111.430681 
L 111.351343 105.582066 
L 112.982773 103.986989 
L 114.614203 102.088088 
L 116.245633 101.252571 
L 117.877063 99.581538 
L 119.508492 98.821978 
L 121.139922 95.935648 
L 122.771352 93.505055 
L 124.402782 92.44167 
L 126.034212 89.707253 
L 127.665642 87.732396 
L 129.297072 86.820923 
L 130.928502 84.466286 
L 132.559931 81.579956 
L 134.191361 77.706198 
L 135.822791 74.288176 
L 137.454221 71.70567 
L 139.085651 71.022066 
L 142.348511 67.907868 
L 143.979941 67.376176 
L 145.61137 66.388747 
L 147.2428 65.097495 
L 148.87423 63.198593 
L 150.50566 63.730286 
L 152.13709 60.919912 
L 153.76852 60.00844 
L 155.39995 59.248879 
L 157.03138 58.109538 
L 158.66281 56.058725 
L 161.925669 53.172396 
L 163.557099 52.033055 
L 166.819959 51.045626 
L 168.451389 52.412835 
L 170.082819 52.488791 
L 171.714249 49.602462 
L 173.345678 49.678418 
L 174.977108 47.855473 
L 176.608538 48.463121 
L 178.239968 48.615033 
L 179.871398 46.792088 
L 181.502828 47.019956 
L 183.134258 47.475692 
L 184.765688 44.513407 
L 186.397117 43.829802 
L 188.028547 43.829802 
L 189.659977 43.67789 
L 191.291407 42.310681 
L 192.922837 41.475165 
L 194.554267 39.956044 
L 196.185697 38.209055 
L 197.817127 39.044571 
L 199.448556 39.120527 
L 201.079986 37.601407 
L 202.711416 36.38611 
L 204.342846 36.76589 
L 205.974276 36.76589 
L 207.605706 37.525451 
L 209.237136 35.626549 
L 212.499995 37.829275 
L 214.131425 38.664791 
L 215.762855 38.133099 
L 217.394285 37.905231 
L 219.025715 38.133099 
L 220.657145 36.917802 
L 222.288575 38.209055 
L 223.920005 36.917802 
L 227.182864 37.449495 
L 228.814294 35.322725 
L 230.445724 35.550593 
L 232.077154 35.930374 
L 233.708584 37.677363 
L 235.340014 37.753319 
L 236.971444 37.981187 
L 238.602873 37.449495 
L 240.234303 37.525451 
L 241.865733 36.917802 
L 243.497163 35.322725 
L 245.128593 32.664264 
L 246.760023 31.448967 
L 248.391453 29.47411 
L 250.022883 30.081758 
L 251.654312 30.841319 
L 253.285742 30.917275 
L 256.548602 30.23367 
L 258.180032 30.385582 
L 259.811462 31.069187 
L 261.442892 28.638593 
L 263.074322 27.803077 
L 264.705751 27.651165 
L 266.337181 27.727121 
L 269.600041 27.651165 
L 271.231471 26.359912 
L 272.862901 26.132044 
L 274.494331 25.752264 
L 276.125761 26.208 
L 277.75719 26.132044 
L 279.38862 25.372484 
L 281.02005 22.865934 
L 282.65148 23.701451 
L 284.28291 22.18233 
L 285.91434 21.802549 
L 289.1772 21.802549 
L 290.80863 21.954462 
L 292.440059 22.258286 
L 294.071489 21.726593 
L 295.702919 22.410198 
L 297.334349 23.777407 
L 298.965779 23.397626 
L 300.597209 25.068659 
L 302.228639 25.752264 
L 303.860069 24.916747 
L 305.491498 25.296527 
L 307.122928 23.929319 
L 308.754358 24.992703 
L 310.385788 25.44844 
L 312.017218 27.043516 
L 313.648648 29.777934 
L 315.280078 30.23367 
L 316.911508 27.499253 
L 318.542937 28.258813 
L 320.174367 27.043516 
L 321.805797 27.423297 
L 323.437227 26.58778 
L 325.068657 25.372484 
L 328.331517 21.726593 
L 329.962947 20.891077 
L 333.225806 19.751736 
L 334.857236 19.447912 
L 336.488666 20.359385 
L 338.120096 20.511297 
L 339.751526 20.435341 
L 341.382956 19.296 
L 343.014386 20.283429 
L 346.277245 22.789978 
L 347.908675 23.017846 
L 349.540105 23.701451 
L 351.171535 22.94189 
L 352.802965 23.397626 
L 354.434395 22.789978 
L 356.065825 24.385055 
L 357.697254 24.309099 
L 359.328684 22.789978 
L 362.591544 23.929319 
L 364.222974 25.068659 
L 365.854404 25.220571 
L 367.485834 26.056088 
L 369.117264 24.916747 
L 370.748693 26.435868 
L 372.380123 26.58778 
L 374.011553 27.499253 
L 375.642983 28.866462 
L 377.274413 28.334769 
L 378.905843 30.993231 
L 380.537273 39.044571 
L 380.537273 39.044571 
" clip-path="url(#p60c7d94c5d)" style="fill: none; stroke: #2ca02c; stroke-width: 1.5; stroke-linecap: square"/>
   </g>
   <g id="line2d_20">
    <path d="M 55.882727 261.216 
L 59.145587 260.988132 
L 62.408447 259.544967 
L 64.039877 259.013275 
L 65.671307 257.722022 
L 67.302736 256.126945 
L 68.934166 254.835692 
L 72.197026 251.493626 
L 73.828456 249.822593 
L 75.459886 247.392 
L 77.091316 246.100747 
L 80.354175 242.682725 
L 81.985605 240.48 
L 83.617035 239.188747 
L 85.248465 236.83411 
L 88.511325 233.643956 
L 91.774185 229.770198 
L 93.405614 228.782769 
L 95.037044 227.03578 
L 99.931334 220.579516 
L 101.562764 219.136352 
L 103.194194 216.250022 
L 104.825624 214.806857 
L 106.457053 212.832 
L 108.088483 211.768615 
L 111.351343 210.173538 
L 112.982773 208.654418 
L 114.614203 206.67956 
L 116.245633 204.324923 
L 117.877063 203.261538 
L 119.508492 200.603077 
L 121.139922 198.400352 
L 122.771352 197.564835 
L 126.034212 194.526593 
L 127.665642 193.387253 
L 129.297072 192.47578 
L 130.928502 190.880703 
L 132.559931 190.956659 
L 134.191361 191.488352 
L 135.822791 191.032615 
L 137.454221 191.412396 
L 139.085651 189.133714 
L 140.717081 189.361582 
L 142.348511 187.538637 
L 143.979941 184.728264 
L 147.2428 182.069802 
L 148.87423 179.563253 
L 152.13709 177.360527 
L 153.76852 176.752879 
L 157.03138 172.499341 
L 158.66281 172.11956 
L 161.925669 170.752352 
L 163.557099 169.309187 
L 165.188529 168.701538 
L 166.819959 167.562198 
L 168.451389 166.574769 
L 170.082819 166.346901 
L 171.714249 166.878593 
L 173.345678 165.20756 
L 174.977108 165.815209 
L 178.239968 165.283516 
L 179.871398 164.296088 
L 181.502828 163.992264 
L 183.134258 163.308659 
L 184.765688 162.776967 
L 186.397117 162.017407 
L 188.028547 160.118505 
L 189.659977 159.966593 
L 192.922837 159.282989 
L 194.554267 159.814681 
L 196.185697 160.80211 
L 197.817127 158.599385 
L 199.448556 157.91578 
L 201.079986 157.991736 
L 202.711416 158.371516 
L 204.342846 157.611956 
L 205.974276 155.864967 
L 207.605706 155.029451 
L 209.237136 155.029451 
L 210.868566 153.814154 
L 212.499995 153.130549 
L 214.131425 150.851868 
L 215.762855 150.472088 
L 217.394285 150.775912 
L 219.025715 151.307604 
L 220.657145 150.927824 
L 222.288575 149.332747 
L 223.920005 150.699956 
L 225.551434 150.092308 
L 227.182864 149.940396 
L 228.814294 151.155692 
L 230.445724 149.940396 
L 232.077154 149.712527 
L 233.708584 150.320176 
L 235.340014 150.320176 
L 236.971444 148.952967 
L 238.602873 149.636571 
L 240.234303 150.092308 
L 241.865733 150.24422 
L 245.128593 152.143121 
L 246.760023 153.434374 
L 248.391453 154.877538 
L 250.022883 154.345846 
L 251.654312 153.51033 
L 253.285742 153.130549 
L 254.917172 154.345846 
L 256.548602 155.789011 
L 258.180032 155.485187 
L 259.811462 154.345846 
L 261.442892 154.953495 
L 264.705751 153.434374 
L 266.337181 151.991209 
L 267.968611 152.067165 
L 269.600041 151.231648 
L 271.231471 151.839297 
L 272.862901 151.38356 
L 274.494331 150.320176 
L 276.125761 151.079736 
L 277.75719 152.067165 
L 279.38862 152.826725 
L 281.02005 153.282462 
L 282.65148 151.763341 
L 284.28291 151.839297 
L 285.91434 151.38356 
L 287.54577 151.155692 
L 289.1772 150.548044 
L 292.440059 150.472088 
L 294.071489 149.180835 
L 295.702919 148.573187 
L 298.965779 146.522374 
L 300.597209 145.990681 
L 302.228639 145.155165 
L 303.860069 147.281934 
L 305.491498 146.826198 
L 307.122928 146.826198 
L 308.754358 145.458989 
L 310.385788 147.35789 
L 312.017218 145.458989 
L 313.648648 142.95244 
L 315.280078 143.33222 
L 316.911508 145.155165 
L 318.542937 143.939868 
L 320.174367 143.787956 
L 321.805797 142.800527 
L 323.437227 142.344791 
L 325.068657 142.420747 
L 326.700087 144.623473 
L 328.331517 144.319648 
L 329.962947 144.547516 
L 331.594376 143.104352 
L 333.225806 143.939868 
L 334.857236 145.079209 
L 336.488666 144.395604 
L 338.120096 144.015824 
L 339.751526 143.256264 
L 341.382956 142.268835 
L 343.014386 140.597802 
L 344.645815 137.939341 
L 346.277245 139.458462 
L 349.540105 139.306549 
L 351.171535 141.053538 
L 352.802965 141.053538 
L 354.434395 140.82567 
L 356.065825 140.218022 
L 357.697254 140.673758 
L 359.328684 140.977582 
L 360.960114 142.192879 
L 362.591544 141.737143 
L 364.222974 142.876484 
L 365.854404 143.256264 
L 367.485834 142.040967 
L 369.117264 142.572659 
L 370.748693 141.509275 
L 372.380123 141.509275 
L 374.011553 140.142066 
L 375.642983 139.838242 
L 377.274413 139.914198 
L 378.905843 141.053538 
L 380.537273 140.521846 
L 380.537273 140.521846 
" clip-path="url(#p60c7d94c5d)" style="fill: none; stroke: #d62728; stroke-width: 1.5; stroke-linecap: square"/>
   </g>
   <g id="patch_3">
    <path d="M 39.65 273.312 
L 39.65 7.2 
" style="fill: none; stroke: #000000; stroke-width: 0.8; stroke-linejoin: miter; stroke-linecap: square"/>
   </g>
   <g id="patch_4">
    <path d="M 396.77 273.312 
L 396.77 7.2 
" style="fill: none; stroke: #000000; stroke-width: 0.8; stroke-linejoin: miter; stroke-linecap: square"/>
   </g>
   <g id="patch_5">
    <path d="M 39.65 273.312 
L 396.77 273.312 
" style="fill: none; stroke: #000000; stroke-width: 0.8; stroke-linejoin: miter; stroke-linecap: square"/>
   </g>
   <g id="patch_6">
    <path d="M 39.65 7.2 
L 396.77 7.2 
" style="fill: none; stroke: #000000; stroke-width: 0.8; stroke-linejoin: miter; stroke-linecap: square"/>
   </g>
  </g>
 </g>
 <defs>
  <clipPath id="p60c7d94c5d">
   <rect x="39.65" y="7.2" width="357.12" height="266.112"/>
  </clipPath>
 </defs>
</svg>
