<?xml version="1.0" encoding="utf-8" standalone="no"?>
<!DOCTYPE svg PUBLIC "-//W3C//DTD SVG 1.1//EN"
  "http://www.w3.org/Graphics/SVG/1.1/DTD/svg11.dtd">
<svg xmlns:xlink="http://www.w3.org/1999/xlink" width="403.97pt" height="297.190125pt" viewBox="0 0 403.97 297.190125" xmlns="http://www.w3.org/2000/svg" version="1.1">
 <metadata>
  <rdf:RDF xmlns:dc="http://purl.org/dc/elements/1.1/" xmlns:cc="http://creativecommons.org/ns#" xmlns:rdf="http://www.w3.org/1999/02/22-rdf-syntax-ns#">
   <cc:Work>
    <dc:type rdf:resource="http://purl.org/dc/dcmitype/StillImage"/>
    <dc:date>2024-02-05T07:56:08.977920</dc:date>
    <dc:format>image/svg+xml</dc:format>
    <dc:creator>
     <cc:Agent>
      <dc:title>Matplotlib v3.8.2, https://matplotlib.org/</dc:title>
     </cc:Agent>
    </dc:creator>
   </cc:Work>
  </rdf:RDF>
 </metadata>
 <defs>
  <style type="text/css">*{stroke-linejoin: round; stroke-linecap: butt}</style>
 </defs>
 <g id="figure_1">
  <g id="patch_1">
   <path d="M 0 297.190125 
L 403.97 297.190125 
L 403.97 0 
L 0 0 
z
" style="fill: #ffffff"/>
  </g>
  <g id="axes_1">
   <g id="patch_2">
    <path d="M 39.65 273.312 
L 396.77 273.312 
L 396.77 7.2 
L 39.65 7.2 
z
" style="fill: #ffffff"/>
   </g>
   <g id="matplotlib.axis_1">
    <g id="xtick_1">
     <g id="line2d_1">
      <defs>
       <path id="m28a4685946" d="M 0 0 
L 0 3.5 
" style="stroke: #000000; stroke-width: 0.8"/>
      </defs>
      <g>
       <use xlink:href="#m28a4685946" x="55.882727" y="273.312" style="stroke: #000000; stroke-width: 0.8"/>
      </g>
     </g>
     <g id="text_1">
      <!-- 0.0 -->
      <g transform="translate(47.931165 287.910437) scale(0.1 -0.1)">
       <defs>
        <path id="DejaVuSans-30" d="M 2034 4250 
Q 1547 4250 1301 3770 
Q 1056 3291 1056 2328 
Q 1056 1369 1301 889 
Q 1547 409 2034 409 
Q 2525 409 2770 889 
Q 3016 1369 3016 2328 
Q 3016 3291 2770 3770 
Q 2525 4250 2034 4250 
z
M 2034 4750 
Q 2819 4750 3233 4129 
Q 3647 3509 3647 2328 
Q 3647 1150 3233 529 
Q 2819 -91 2034 -91 
Q 1250 -91 836 529 
Q 422 1150 422 2328 
Q 422 3509 836 4129 
Q 1250 4750 2034 4750 
z
" transform="scale(0.015625)"/>
        <path id="DejaVuSans-2e" d="M 684 794 
L 1344 794 
L 1344 0 
L 684 0 
L 684 794 
z
" transform="scale(0.015625)"/>
       </defs>
       <use xlink:href="#DejaVuSans-30"/>
       <use xlink:href="#DejaVuSans-2e" x="63.623047"/>
       <use xlink:href="#DejaVuSans-30" x="95.410156"/>
      </g>
     </g>
    </g>
    <g id="xtick_2">
     <g id="line2d_2">
      <g>
       <use xlink:href="#m28a4685946" x="96.668474" y="273.312" style="stroke: #000000; stroke-width: 0.8"/>
      </g>
     </g>
     <g id="text_2">
      <!-- 2.5 -->
      <g transform="translate(88.716912 287.910437) scale(0.1 -0.1)">
       <defs>
        <path id="DejaVuSans-32" d="M 1228 531 
L 3431 531 
L 3431 0 
L 469 0 
L 469 531 
Q 828 903 1448 1529 
Q 2069 2156 2228 2338 
Q 2531 2678 2651 2914 
Q 2772 3150 2772 3378 
Q 2772 3750 2511 3984 
Q 2250 4219 1831 4219 
Q 1534 4219 1204 4116 
Q 875 4013 500 3803 
L 500 4441 
Q 881 4594 1212 4672 
Q 1544 4750 1819 4750 
Q 2544 4750 2975 4387 
Q 3406 4025 3406 3419 
Q 3406 3131 3298 2873 
Q 3191 2616 2906 2266 
Q 2828 2175 2409 1742 
Q 1991 1309 1228 531 
z
" transform="scale(0.015625)"/>
        <path id="DejaVuSans-35" d="M 691 4666 
L 3169 4666 
L 3169 4134 
L 1269 4134 
L 1269 2991 
Q 1406 3038 1543 3061 
Q 1681 3084 1819 3084 
Q 2600 3084 3056 2656 
Q 3513 2228 3513 1497 
Q 3513 744 3044 326 
Q 2575 -91 1722 -91 
Q 1428 -91 1123 -41 
Q 819 9 494 109 
L 494 744 
Q 775 591 1075 516 
Q 1375 441 1709 441 
Q 2250 441 2565 725 
Q 2881 1009 2881 1497 
Q 2881 1984 2565 2268 
Q 2250 2553 1709 2553 
Q 1456 2553 1204 2497 
Q 953 2441 691 2322 
L 691 4666 
z
" transform="scale(0.015625)"/>
       </defs>
       <use xlink:href="#DejaVuSans-32"/>
       <use xlink:href="#DejaVuSans-2e" x="63.623047"/>
       <use xlink:href="#DejaVuSans-35" x="95.410156"/>
      </g>
     </g>
    </g>
    <g id="xtick_3">
     <g id="line2d_3">
      <g>
       <use xlink:href="#m28a4685946" x="137.454221" y="273.312" style="stroke: #000000; stroke-width: 0.8"/>
      </g>
     </g>
     <g id="text_3">
      <!-- 5.0 -->
      <g transform="translate(129.502659 287.910437) scale(0.1 -0.1)">
       <use xlink:href="#DejaVuSans-35"/>
       <use xlink:href="#DejaVuSans-2e" x="63.623047"/>
       <use xlink:href="#DejaVuSans-30" x="95.410156"/>
      </g>
     </g>
    </g>
    <g id="xtick_4">
     <g id="line2d_4">
      <g>
       <use xlink:href="#m28a4685946" x="178.239968" y="273.312" style="stroke: #000000; stroke-width: 0.8"/>
      </g>
     </g>
     <g id="text_4">
      <!-- 7.5 -->
      <g transform="translate(170.288406 287.910437) scale(0.1 -0.1)">
       <defs>
        <path id="DejaVuSans-37" d="M 525 4666 
L 3525 4666 
L 3525 4397 
L 1831 0 
L 1172 0 
L 2766 4134 
L 525 4134 
L 525 4666 
z
" transform="scale(0.015625)"/>
       </defs>
       <use xlink:href="#DejaVuSans-37"/>
       <use xlink:href="#DejaVuSans-2e" x="63.623047"/>
       <use xlink:href="#DejaVuSans-35" x="95.410156"/>
      </g>
     </g>
    </g>
    <g id="xtick_5">
     <g id="line2d_5">
      <g>
       <use xlink:href="#m28a4685946" x="219.025715" y="273.312" style="stroke: #000000; stroke-width: 0.8"/>
      </g>
     </g>
     <g id="text_5">
      <!-- 10.0 -->
      <g transform="translate(207.892902 287.910437) scale(0.1 -0.1)">
       <defs>
        <path id="DejaVuSans-31" d="M 794 531 
L 1825 531 
L 1825 4091 
L 703 3866 
L 703 4441 
L 1819 4666 
L 2450 4666 
L 2450 531 
L 3481 531 
L 3481 0 
L 794 0 
L 794 531 
z
" transform="scale(0.015625)"/>
       </defs>
       <use xlink:href="#DejaVuSans-31"/>
       <use xlink:href="#DejaVuSans-30" x="63.623047"/>
       <use xlink:href="#DejaVuSans-2e" x="127.246094"/>
       <use xlink:href="#DejaVuSans-30" x="159.033203"/>
      </g>
     </g>
    </g>
    <g id="xtick_6">
     <g id="line2d_6">
      <g>
       <use xlink:href="#m28a4685946" x="259.811462" y="273.312" style="stroke: #000000; stroke-width: 0.8"/>
      </g>
     </g>
     <g id="text_6">
      <!-- 12.5 -->
      <g transform="translate(248.678649 287.910437) scale(0.1 -0.1)">
       <use xlink:href="#DejaVuSans-31"/>
       <use xlink:href="#DejaVuSans-32" x="63.623047"/>
       <use xlink:href="#DejaVuSans-2e" x="127.246094"/>
       <use xlink:href="#DejaVuSans-35" x="159.033203"/>
      </g>
     </g>
    </g>
    <g id="xtick_7">
     <g id="line2d_7">
      <g>
       <use xlink:href="#m28a4685946" x="300.597209" y="273.312" style="stroke: #000000; stroke-width: 0.8"/>
      </g>
     </g>
     <g id="text_7">
      <!-- 15.0 -->
      <g transform="translate(289.464396 287.910437) scale(0.1 -0.1)">
       <use xlink:href="#DejaVuSans-31"/>
       <use xlink:href="#DejaVuSans-35" x="63.623047"/>
       <use xlink:href="#DejaVuSans-2e" x="127.246094"/>
       <use xlink:href="#DejaVuSans-30" x="159.033203"/>
      </g>
     </g>
    </g>
    <g id="xtick_8">
     <g id="line2d_8">
      <g>
       <use xlink:href="#m28a4685946" x="341.382956" y="273.312" style="stroke: #000000; stroke-width: 0.8"/>
      </g>
     </g>
     <g id="text_8">
      <!-- 17.5 -->
      <g transform="translate(330.250143 287.910437) scale(0.1 -0.1)">
       <use xlink:href="#DejaVuSans-31"/>
       <use xlink:href="#DejaVuSans-37" x="63.623047"/>
       <use xlink:href="#DejaVuSans-2e" x="127.246094"/>
       <use xlink:href="#DejaVuSans-35" x="159.033203"/>
      </g>
     </g>
    </g>
    <g id="xtick_9">
     <g id="line2d_9">
      <g>
       <use xlink:href="#m28a4685946" x="382.168703" y="273.312" style="stroke: #000000; stroke-width: 0.8"/>
      </g>
     </g>
     <g id="text_9">
      <!-- 20.0 -->
      <g transform="translate(371.03589 287.910437) scale(0.1 -0.1)">
       <use xlink:href="#DejaVuSans-32"/>
       <use xlink:href="#DejaVuSans-30" x="63.623047"/>
       <use xlink:href="#DejaVuSans-2e" x="127.246094"/>
       <use xlink:href="#DejaVuSans-30" x="159.033203"/>
      </g>
     </g>
    </g>
   </g>
   <g id="matplotlib.axis_2">
    <g id="ytick_1">
     <g id="line2d_10">
      <defs>
       <path id="m3e4821c930" d="M 0 0 
L -3.5 0 
" style="stroke: #000000; stroke-width: 0.8"/>
      </defs>
      <g>
       <use xlink:href="#m3e4821c930" x="39.65" y="261.216" style="stroke: #000000; stroke-width: 0.8"/>
      </g>
     </g>
     <g id="text_10">
      <!-- 0 -->
      <g transform="translate(26.2875 265.015219) scale(0.1 -0.1)">
       <use xlink:href="#DejaVuSans-30"/>
      </g>
     </g>
    </g>
    <g id="ytick_2">
     <g id="line2d_11">
      <g>
       <use xlink:href="#m3e4821c930" x="39.65" y="222.455389" style="stroke: #000000; stroke-width: 0.8"/>
      </g>
     </g>
     <g id="text_11">
      <!-- 500 -->
      <g transform="translate(13.5625 226.254608) scale(0.1 -0.1)">
       <use xlink:href="#DejaVuSans-35"/>
       <use xlink:href="#DejaVuSans-30" x="63.623047"/>
       <use xlink:href="#DejaVuSans-30" x="127.246094"/>
      </g>
     </g>
    </g>
    <g id="ytick_3">
     <g id="line2d_12">
      <g>
       <use xlink:href="#m3e4821c930" x="39.65" y="183.694778" style="stroke: #000000; stroke-width: 0.8"/>
      </g>
     </g>
     <g id="text_12">
      <!-- 1000 -->
      <g transform="translate(7.2 187.493997) scale(0.1 -0.1)">
       <use xlink:href="#DejaVuSans-31"/>
       <use xlink:href="#DejaVuSans-30" x="63.623047"/>
       <use xlink:href="#DejaVuSans-30" x="127.246094"/>
       <use xlink:href="#DejaVuSans-30" x="190.869141"/>
      </g>
     </g>
    </g>
    <g id="ytick_4">
     <g id="line2d_13">
      <g>
       <use xlink:href="#m3e4821c930" x="39.65" y="144.934168" style="stroke: #000000; stroke-width: 0.8"/>
      </g>
     </g>
     <g id="text_13">
      <!-- 1500 -->
      <g transform="translate(7.2 148.733386) scale(0.1 -0.1)">
       <use xlink:href="#DejaVuSans-31"/>
       <use xlink:href="#DejaVuSans-35" x="63.623047"/>
       <use xlink:href="#DejaVuSans-30" x="127.246094"/>
       <use xlink:href="#DejaVuSans-30" x="190.869141"/>
      </g>
     </g>
    </g>
    <g id="ytick_5">
     <g id="line2d_14">
      <g>
       <use xlink:href="#m3e4821c930" x="39.65" y="106.173557" style="stroke: #000000; stroke-width: 0.8"/>
      </g>
     </g>
     <g id="text_14">
      <!-- 2000 -->
      <g transform="translate(7.2 109.972776) scale(0.1 -0.1)">
       <use xlink:href="#DejaVuSans-32"/>
       <use xlink:href="#DejaVuSans-30" x="63.623047"/>
       <use xlink:href="#DejaVuSans-30" x="127.246094"/>
       <use xlink:href="#DejaVuSans-30" x="190.869141"/>
      </g>
     </g>
    </g>
    <g id="ytick_6">
     <g id="line2d_15">
      <g>
       <use xlink:href="#m3e4821c930" x="39.65" y="67.412946" style="stroke: #000000; stroke-width: 0.8"/>
      </g>
     </g>
     <g id="text_15">
      <!-- 2500 -->
      <g transform="translate(7.2 71.212165) scale(0.1 -0.1)">
       <use xlink:href="#DejaVuSans-32"/>
       <use xlink:href="#DejaVuSans-35" x="63.623047"/>
       <use xlink:href="#DejaVuSans-30" x="127.246094"/>
       <use xlink:href="#DejaVuSans-30" x="190.869141"/>
      </g>
     </g>
    </g>
    <g id="ytick_7">
     <g id="line2d_16">
      <g>
       <use xlink:href="#m3e4821c930" x="39.65" y="28.652335" style="stroke: #000000; stroke-width: 0.8"/>
      </g>
     </g>
     <g id="text_16">
      <!-- 3000 -->
      <g transform="translate(7.2 32.451554) scale(0.1 -0.1)">
       <defs>
        <path id="DejaVuSans-33" d="M 2597 2516 
Q 3050 2419 3304 2112 
Q 3559 1806 3559 1356 
Q 3559 666 3084 287 
Q 2609 -91 1734 -91 
Q 1441 -91 1130 -33 
Q 819 25 488 141 
L 488 750 
Q 750 597 1062 519 
Q 1375 441 1716 441 
Q 2309 441 2620 675 
Q 2931 909 2931 1356 
Q 2931 1769 2642 2001 
Q 2353 2234 1838 2234 
L 1294 2234 
L 1294 2753 
L 1863 2753 
Q 2328 2753 2575 2939 
Q 2822 3125 2822 3475 
Q 2822 3834 2567 4026 
Q 2313 4219 1838 4219 
Q 1578 4219 1281 4162 
Q 984 4106 628 3988 
L 628 4550 
Q 988 4650 1302 4700 
Q 1616 4750 1894 4750 
Q 2613 4750 3031 4423 
Q 3450 4097 3450 3541 
Q 3450 3153 3228 2886 
Q 3006 2619 2597 2516 
z
" transform="scale(0.015625)"/>
       </defs>
       <use xlink:href="#DejaVuSans-33"/>
       <use xlink:href="#DejaVuSans-30" x="63.623047"/>
       <use xlink:href="#DejaVuSans-30" x="127.246094"/>
       <use xlink:href="#DejaVuSans-30" x="190.869141"/>
      </g>
     </g>
    </g>
   </g>
   <g id="line2d_17">
    <path d="M 55.882727 261.216 
L 59.961302 241.835695 
L 64.039877 224.005814 
L 68.118451 207.602323 
L 72.197026 192.511112 
L 76.275601 178.627198 
L 80.354175 165.853996 
L 84.43275 154.102651 
L 88.511325 143.291414 
L 92.589899 133.345075 
L 96.668474 124.194444 
L 100.747049 115.775863 
L 104.825624 108.030769 
L 108.904198 100.905282 
L 112.982773 94.349834 
L 117.061348 88.318822 
L 121.139922 82.770291 
L 125.218497 77.665642 
L 129.297072 72.969365 
L 133.375646 68.648791 
L 137.454221 64.673862 
L 141.532796 61.016928 
L 145.61137 57.652548 
L 149.689945 54.557319 
L 153.76852 51.709708 
L 157.847095 49.089906 
L 161.925669 46.679688 
L 166.004244 44.462288 
L 170.082819 42.422279 
L 174.161393 40.545471 
L 178.239968 38.818808 
L 182.318543 37.230278 
L 186.397117 35.768831 
L 190.475692 34.424299 
L 194.554267 33.187329 
L 198.632841 32.049318 
L 202.711416 31.002347 
L 206.789991 30.039134 
L 210.868566 29.152978 
L 214.94714 28.337714 
L 219.025715 27.587672 
L 223.10429 26.897632 
L 227.182864 26.262796 
L 231.261439 25.678747 
L 235.340014 25.141422 
L 239.418588 24.647083 
L 243.497163 24.192291 
L 247.575738 23.773882 
L 251.654312 23.388946 
L 255.732887 23.034805 
L 259.811462 22.708995 
L 263.890037 22.40925 
L 267.968611 22.133485 
L 272.047186 21.879781 
L 276.125761 21.646373 
L 280.204335 21.431638 
L 284.28291 21.234081 
L 288.361485 21.052329 
L 292.440059 20.885118 
L 296.518634 20.731283 
L 300.597209 20.589755 
L 304.675783 20.459549 
L 308.754358 20.33976 
L 312.832933 20.229554 
L 316.911508 20.128164 
L 320.990082 20.034885 
L 325.068657 19.949069 
L 329.147232 19.870118 
L 333.225806 19.797483 
L 337.304381 19.730659 
L 341.382956 19.669181 
L 345.46153 19.612621 
L 349.540105 19.560586 
L 353.61868 19.512714 
L 357.697254 19.468671 
L 361.775829 19.428152 
L 365.854404 19.390875 
L 369.932979 19.356579 
L 374.011553 19.325028 
L 378.090128 19.296 
" clip-path="url(#pf4197eb26c)" style="fill: none; stroke: #1f77b4; stroke-width: 1.5; stroke-linecap: square"/>
   </g>
   <g id="line2d_18">
    <path d="M 55.882727 261.216 
L 59.961302 261.216 
L 64.039877 259.665576 
L 68.118451 256.926751 
L 72.197026 253.296056 
L 76.275601 249.015377 
L 80.354175 244.281068 
L 84.43275 239.25162 
L 88.511325 234.054084 
L 92.589899 228.789472 
L 96.668474 223.53727 
L 100.747049 218.35923 
L 104.825624 213.302533 
L 108.904198 208.402432 
L 112.982773 203.684457 
L 117.061348 199.166256 
L 121.139922 194.859117 
L 125.218497 190.769242 
L 129.297072 186.898791 
L 133.375646 183.246752 
L 137.454221 179.809654 
L 141.532796 176.582157 
L 145.61137 173.557526 
L 149.689945 170.728026 
L 153.76852 168.085235 
L 157.847095 165.620304 
L 161.925669 163.324156 
L 166.004244 161.187649 
L 170.082819 159.201704 
L 174.161393 157.357401 
L 178.239968 155.646054 
L 182.318543 154.059265 
L 186.397117 152.588966 
L 190.475692 151.227442 
L 194.554267 149.96735 
L 198.632841 148.801724 
L 202.711416 147.723981 
L 206.789991 146.727913 
L 210.868566 145.807685 
L 214.94714 144.95782 
L 219.025715 144.173188 
L 223.10429 143.448993 
L 227.182864 142.780759 
L 231.261439 142.164312 
L 235.340014 141.595766 
L 239.418588 141.071506 
L 243.497163 140.588172 
L 247.575738 140.142647 
L 251.654312 139.732037 
L 255.732887 139.353661 
L 259.811462 139.005035 
L 263.890037 138.683858 
L 267.968611 138.388001 
L 272.047186 138.115498 
L 276.125761 137.864528 
L 280.204335 137.633408 
L 284.28291 137.420587 
L 288.361485 137.22463 
L 292.440059 137.044211 
L 296.518634 136.87811 
L 300.597209 136.725199 
L 304.675783 136.584437 
L 308.754358 136.454866 
L 312.832933 136.335601 
L 316.911508 136.225826 
L 320.990082 136.124791 
L 325.068657 136.031803 
L 329.147232 135.946222 
L 333.225806 135.867463 
L 337.304381 135.794982 
L 341.382956 135.728281 
L 345.46153 135.6669 
L 349.540105 135.610417 
L 353.61868 135.558441 
L 357.697254 135.510613 
L 361.775829 135.466604 
L 365.854404 135.426108 
L 369.932979 135.388847 
L 374.011553 135.354561 
L 378.090128 135.323014 
" clip-path="url(#pf4197eb26c)" style="fill: none; stroke: #ff7f0e; stroke-width: 1.5; stroke-linecap: square"/>
   </g>
   <g id="line2d_19">
    <path d="M 55.882727 261.216 
L 59.145587 245.634234 
L 60.777017 239.432537 
L 62.408447 231.602893 
L 64.039877 225.401196 
L 65.671307 218.346764 
L 67.302736 213.773012 
L 68.934166 208.734133 
L 70.565596 201.059532 
L 72.197026 195.322962 
L 73.828456 190.361603 
L 75.459886 186.485542 
L 77.091316 182.221875 
L 78.722746 175.865135 
L 80.354175 171.213862 
L 81.985605 168.345577 
L 83.617035 165.244728 
L 85.248465 159.818242 
L 86.879895 155.399533 
L 90.142755 148.112538 
L 91.774185 141.755798 
L 93.405614 137.802215 
L 95.037044 135.5541 
L 96.668474 132.453251 
L 98.299904 127.724456 
L 99.931334 124.003438 
L 101.562764 121.910365 
L 103.194194 118.189346 
L 104.825624 115.631146 
L 106.457053 113.770637 
L 108.088483 112.142691 
L 109.719913 111.755085 
L 111.351343 108.499194 
L 117.877063 98.343913 
L 119.508492 97.026053 
L 121.139922 93.460077 
L 122.771352 92.684864 
L 124.402782 88.963846 
L 127.665642 84.080009 
L 129.297072 84.15753 
L 130.928502 83.847445 
L 132.559931 82.452063 
L 134.191361 80.824117 
L 135.822791 82.141978 
L 137.454221 81.754372 
L 139.085651 78.886087 
L 140.717081 76.715493 
L 142.348511 74.854983 
L 143.979941 74.157292 
L 145.61137 73.071995 
L 147.2428 72.529347 
L 148.87423 73.459601 
L 150.50566 70.978922 
L 152.13709 69.428498 
L 153.76852 67.567989 
L 155.39995 66.40517 
L 157.03138 68.110637 
L 158.66281 66.560213 
L 160.294239 65.164831 
L 161.925669 64.622182 
L 163.557099 61.986461 
L 165.188529 59.118175 
L 166.819959 58.110399 
L 168.451389 56.482454 
L 170.082819 56.327411 
L 171.714249 54.466902 
L 174.977108 54.389381 
L 176.608538 53.846732 
L 178.239968 51.908702 
L 179.871398 50.978447 
L 181.502828 51.13349 
L 183.134258 51.676138 
L 184.765688 50.125714 
L 186.397117 49.350501 
L 188.028547 47.645035 
L 189.659977 46.172131 
L 191.291407 47.489992 
L 192.922837 48.342726 
L 194.554267 46.404695 
L 196.185697 48.032641 
L 197.817127 46.482216 
L 199.448556 45.319398 
L 201.079986 43.381367 
L 202.711416 43.303846 
L 204.342846 42.761198 
L 205.974276 43.768973 
L 207.605706 43.458889 
L 209.237136 42.606155 
L 210.868566 42.141028 
L 212.499995 40.668125 
L 214.131425 39.892912 
L 215.762855 38.109924 
L 217.394285 39.660349 
L 219.025715 38.652573 
L 220.657145 39.660349 
L 222.288575 38.962658 
L 225.551434 35.93933 
L 227.182864 36.947106 
L 228.814294 36.947106 
L 230.445724 37.489755 
L 232.077154 37.644797 
L 233.708584 36.404457 
L 235.340014 35.706766 
L 236.971444 34.698991 
L 238.602873 35.551724 
L 240.234303 34.466427 
L 241.865733 34.931554 
L 243.497163 32.76096 
L 245.128593 32.76096 
L 248.391453 30.667887 
L 250.022883 31.288057 
L 251.654312 29.039941 
L 253.285742 27.954644 
L 254.917172 27.179432 
L 256.548602 26.016614 
L 258.180032 24.078583 
L 259.811462 25.086359 
L 261.442892 25.086359 
L 263.074322 26.481741 
L 264.705751 27.256953 
L 266.337181 28.419772 
L 267.968611 27.799602 
L 269.600041 26.636784 
L 271.231471 28.419772 
L 272.862901 29.892675 
L 274.494331 29.505069 
L 276.125761 29.505069 
L 277.75719 30.977972 
L 279.38862 30.125238 
L 281.02005 30.977972 
L 282.65148 30.280281 
L 284.28291 30.435323 
L 287.54577 28.807378 
L 289.1772 27.101911 
L 290.80863 27.644559 
L 292.440059 28.419772 
L 294.071489 28.419772 
L 295.702919 31.52062 
L 297.334349 30.822929 
L 298.965779 30.590366 
L 300.597209 28.884899 
L 302.228639 28.574814 
L 305.491498 30.512845 
L 307.122928 27.799602 
L 308.754358 26.636784 
L 310.385788 26.016614 
L 312.017218 25.939093 
L 315.280078 26.40422 
L 316.911508 25.396444 
L 318.542937 26.171656 
L 320.174367 27.334475 
L 321.805797 28.187208 
L 323.437227 27.101911 
L 325.068657 26.326699 
L 326.700087 26.40422 
L 328.331517 27.799602 
L 329.962947 26.559262 
L 331.594376 26.171656 
L 333.225806 27.567038 
L 334.857236 27.799602 
L 336.488666 26.326699 
L 338.120096 27.489517 
L 339.751526 27.256953 
L 341.382956 25.086359 
L 343.014386 23.458413 
L 344.645815 21.597904 
L 346.277245 22.140553 
L 349.540105 22.063031 
L 351.171535 20.357565 
L 352.802965 22.528159 
L 354.434395 22.915765 
L 356.065825 22.915765 
L 357.697254 22.683201 
L 359.328684 22.915765 
L 360.960114 23.458413 
L 362.591544 24.233626 
L 364.222974 25.939093 
L 365.854404 27.877123 
L 367.485834 27.799602 
L 369.117264 28.109687 
L 370.748693 28.574814 
L 372.380123 28.807378 
L 374.011553 29.737632 
L 375.642983 29.350026 
L 377.274413 28.187208 
L 378.905843 27.954644 
L 380.537273 26.791826 
L 380.537273 26.791826 
" clip-path="url(#pf4197eb26c)" style="fill: none; stroke: #2ca02c; stroke-width: 1.5; stroke-linecap: square"/>
   </g>
   <g id="line2d_20">
    <path d="M 55.882727 261.216 
L 57.514157 261.216 
L 59.145587 260.285745 
L 60.777017 259.898139 
L 62.408447 259.355491 
L 64.039877 258.580278 
L 65.671307 257.960109 
L 67.302736 256.564727 
L 68.934166 254.781739 
L 70.565596 254.471654 
L 72.197026 252.921229 
L 73.828456 250.595593 
L 75.459886 248.967647 
L 77.091316 246.486968 
L 78.722746 245.32415 
L 80.354175 243.541161 
L 81.985605 240.672876 
L 83.617035 238.812367 
L 85.248465 237.416985 
L 86.879895 235.401433 
L 90.142755 232.145542 
L 91.774185 231.137766 
L 93.405614 229.432299 
L 95.037044 227.339226 
L 96.668474 226.098887 
L 98.299904 225.711281 
L 99.931334 223.928292 
L 101.562764 222.455389 
L 103.194194 218.889413 
L 104.825624 217.028904 
L 106.457053 214.23814 
L 111.351343 207.648836 
L 114.614203 203.927817 
L 116.245633 203.46269 
L 117.877063 202.144829 
L 119.508492 201.524659 
L 121.139922 199.121502 
L 122.771352 197.10595 
L 124.402782 196.020653 
L 126.034212 194.392707 
L 127.665642 193.384931 
L 129.297072 189.818955 
L 130.928502 188.035967 
L 132.559931 188.268531 
L 134.191361 187.260755 
L 135.822791 183.539736 
L 137.454221 181.756748 
L 139.085651 182.066833 
L 140.717081 180.981536 
L 142.348511 179.586154 
L 143.979941 179.35359 
L 145.61137 178.578378 
L 147.2428 177.648123 
L 148.87423 175.167444 
L 150.50566 174.624796 
L 152.13709 173.306935 
L 153.76852 173.539498 
L 155.39995 172.609244 
L 157.03138 171.834032 
L 158.66281 172.764286 
L 160.294239 173.384456 
L 161.925669 172.531723 
L 163.557099 172.919329 
L 165.188529 172.144116 
L 166.819959 170.981298 
L 168.451389 171.213862 
L 170.082819 169.508395 
L 171.714249 169.043268 
L 173.345678 168.268055 
L 174.977108 167.95797 
L 176.608538 166.407546 
L 178.239968 165.709855 
L 179.871398 165.167206 
L 181.502828 164.469515 
L 183.134258 162.2214 
L 184.765688 162.686527 
L 188.028547 162.686527 
L 189.659977 163.384218 
L 191.291407 161.988836 
L 192.922837 161.291145 
L 194.554267 162.2214 
L 196.185697 160.438412 
L 197.817127 161.058582 
L 199.448556 160.360891 
L 202.711416 159.275594 
L 204.342846 159.275594 
L 205.974276 158.887988 
L 207.605706 158.267818 
L 209.237136 157.880212 
L 210.868566 158.732945 
L 212.499995 157.957733 
L 214.131425 157.415084 
L 215.762855 157.957733 
L 217.394285 156.407308 
L 219.025715 157.492606 
L 220.657145 155.709617 
L 222.288575 156.407308 
L 223.920005 156.48483 
L 225.551434 157.957733 
L 227.182864 156.252266 
L 228.814294 156.639872 
L 230.445724 155.011926 
L 232.077154 154.856884 
L 233.708584 155.322011 
L 235.340014 153.771587 
L 236.971444 155.166969 
L 238.602873 154.314235 
L 240.234303 155.166969 
L 241.865733 154.081672 
L 243.497163 153.694066 
L 245.128593 151.988599 
L 246.760023 153.383981 
L 248.391453 152.68629 
L 250.022883 153.461502 
L 251.654312 153.616544 
L 253.285742 152.143641 
L 254.917172 153.073896 
L 256.548602 152.298684 
L 258.180032 151.058344 
L 259.811462 148.965271 
L 261.442892 148.88775 
L 263.074322 146.872198 
L 264.705751 145.941944 
L 267.968611 147.879974 
L 269.600041 148.500144 
L 271.231471 148.26758 
L 272.862901 149.662962 
L 274.494331 150.050568 
L 276.125761 148.965271 
L 277.75719 147.64741 
L 279.38862 147.104762 
L 281.02005 147.337326 
L 282.65148 146.096986 
L 284.28291 145.399295 
L 285.91434 143.538786 
L 287.54577 144.158955 
L 289.1772 144.158955 
L 290.80863 143.15118 
L 292.440059 141.600755 
L 294.071489 140.437937 
L 295.702919 138.73247 
L 297.334349 139.507682 
L 298.965779 139.662725 
L 300.597209 139.430161 
L 302.228639 142.996137 
L 303.860069 141.213149 
L 305.491498 140.748022 
L 307.122928 141.523234 
L 308.754358 143.306222 
L 310.385788 143.538786 
L 312.017218 142.686052 
L 313.648648 142.065882 
L 315.280078 143.073658 
L 316.911508 143.771349 
L 318.542937 144.624083 
L 320.174367 143.616307 
L 321.805797 141.988361 
L 323.437227 142.686052 
L 325.068657 142.143404 
L 326.700087 144.313998 
L 328.331517 141.445713 
L 329.962947 141.213149 
L 331.594376 140.6705 
L 333.225806 140.282894 
L 334.857236 141.368191 
L 336.488666 141.988361 
L 338.120096 141.445713 
L 339.751526 141.600755 
L 341.382956 143.383743 
L 343.014386 143.693828 
L 344.645815 145.011689 
L 346.277245 143.693828 
L 347.908675 142.918616 
L 349.540105 143.616307 
L 351.171535 144.624083 
L 352.802965 144.701604 
L 354.434395 144.624083 
L 356.065825 145.321774 
L 357.697254 144.779125 
L 359.328684 145.476816 
L 360.960114 143.383743 
L 362.591544 141.678276 
L 364.222974 142.220925 
L 365.854404 142.608531 
L 367.485834 142.686052 
L 369.117264 142.298446 
L 370.748693 143.538786 
L 372.380123 143.693828 
L 374.011553 142.298446 
L 375.642983 142.375967 
L 377.274413 141.755798 
L 378.905843 141.833319 
L 380.537273 142.763573 
L 380.537273 142.763573 
" clip-path="url(#pf4197eb26c)" style="fill: none; stroke: #d62728; stroke-width: 1.5; stroke-linecap: square"/>
   </g>
   <g id="patch_3">
    <path d="M 39.65 273.312 
L 39.65 7.2 
" style="fill: none; stroke: #000000; stroke-width: 0.8; stroke-linejoin: miter; stroke-linecap: square"/>
   </g>
   <g id="patch_4">
    <path d="M 396.77 273.312 
L 396.77 7.2 
" style="fill: none; stroke: #000000; stroke-width: 0.8; stroke-linejoin: miter; stroke-linecap: square"/>
   </g>
   <g id="patch_5">
    <path d="M 39.65 273.312 
L 396.77 273.312 
" style="fill: none; stroke: #000000; stroke-width: 0.8; stroke-linejoin: miter; stroke-linecap: square"/>
   </g>
   <g id="patch_6">
    <path d="M 39.65 7.2 
L 396.77 7.2 
" style="fill: none; stroke: #000000; stroke-width: 0.8; stroke-linejoin: miter; stroke-linecap: square"/>
   </g>
  </g>
 </g>
 <defs>
  <clipPath id="pf4197eb26c">
   <rect x="39.65" y="7.2" width="357.12" height="266.112"/>
  </clipPath>
 </defs>
</svg>
