<?xml version="1.0" encoding="utf-8" standalone="no"?>
<!DOCTYPE svg PUBLIC "-//W3C//DTD SVG 1.1//EN"
  "http://www.w3.org/Graphics/SVG/1.1/DTD/svg11.dtd">
<svg xmlns:xlink="http://www.w3.org/1999/xlink" width="403.97pt" height="297.190125pt" viewBox="0 0 403.97 297.190125" xmlns="http://www.w3.org/2000/svg" version="1.1">
 <metadata>
  <rdf:RDF xmlns:dc="http://purl.org/dc/elements/1.1/" xmlns:cc="http://creativecommons.org/ns#" xmlns:rdf="http://www.w3.org/1999/02/22-rdf-syntax-ns#">
   <cc:Work>
    <dc:type rdf:resource="http://purl.org/dc/dcmitype/StillImage"/>
    <dc:date>2024-02-05T07:56:09.313055</dc:date>
    <dc:format>image/svg+xml</dc:format>
    <dc:creator>
     <cc:Agent>
      <dc:title>Matplotlib v3.8.2, https://matplotlib.org/</dc:title>
     </cc:Agent>
    </dc:creator>
   </cc:Work>
  </rdf:RDF>
 </metadata>
 <defs>
  <style type="text/css">*{stroke-linejoin: round; stroke-linecap: butt}</style>
 </defs>
 <g id="figure_1">
  <g id="patch_1">
   <path d="M 0 297.190125 
L 403.97 297.190125 
L 403.97 0 
L 0 0 
z
" style="fill: #ffffff"/>
  </g>
  <g id="axes_1">
   <g id="patch_2">
    <path d="M 39.65 273.312 
L 396.77 273.312 
L 396.77 7.2 
L 39.65 7.2 
z
" style="fill: #ffffff"/>
   </g>
   <g id="matplotlib.axis_1">
    <g id="xtick_1">
     <g id="line2d_1">
      <defs>
       <path id="m02adf6fa83" d="M 0 0 
L 0 3.5 
" style="stroke: #000000; stroke-width: 0.8"/>
      </defs>
      <g>
       <use xlink:href="#m02adf6fa83" x="55.882727" y="273.312" style="stroke: #000000; stroke-width: 0.8"/>
      </g>
     </g>
     <g id="text_1">
      <!-- 0.0 -->
      <g transform="translate(47.931165 287.910437) scale(0.1 -0.1)">
       <defs>
        <path id="DejaVuSans-30" d="M 2034 4250 
Q 1547 4250 1301 3770 
Q 1056 3291 1056 2328 
Q 1056 1369 1301 889 
Q 1547 409 2034 409 
Q 2525 409 2770 889 
Q 3016 1369 3016 2328 
Q 3016 3291 2770 3770 
Q 2525 4250 2034 4250 
z
M 2034 4750 
Q 2819 4750 3233 4129 
Q 3647 3509 3647 2328 
Q 3647 1150 3233 529 
Q 2819 -91 2034 -91 
Q 1250 -91 836 529 
Q 422 1150 422 2328 
Q 422 3509 836 4129 
Q 1250 4750 2034 4750 
z
" transform="scale(0.015625)"/>
        <path id="DejaVuSans-2e" d="M 684 794 
L 1344 794 
L 1344 0 
L 684 0 
L 684 794 
z
" transform="scale(0.015625)"/>
       </defs>
       <use xlink:href="#DejaVuSans-30"/>
       <use xlink:href="#DejaVuSans-2e" x="63.623047"/>
       <use xlink:href="#DejaVuSans-30" x="95.410156"/>
      </g>
     </g>
    </g>
    <g id="xtick_2">
     <g id="line2d_2">
      <g>
       <use xlink:href="#m02adf6fa83" x="96.668474" y="273.312" style="stroke: #000000; stroke-width: 0.8"/>
      </g>
     </g>
     <g id="text_2">
      <!-- 2.5 -->
      <g transform="translate(88.716912 287.910437) scale(0.1 -0.1)">
       <defs>
        <path id="DejaVuSans-32" d="M 1228 531 
L 3431 531 
L 3431 0 
L 469 0 
L 469 531 
Q 828 903 1448 1529 
Q 2069 2156 2228 2338 
Q 2531 2678 2651 2914 
Q 2772 3150 2772 3378 
Q 2772 3750 2511 3984 
Q 2250 4219 1831 4219 
Q 1534 4219 1204 4116 
Q 875 4013 500 3803 
L 500 4441 
Q 881 4594 1212 4672 
Q 1544 4750 1819 4750 
Q 2544 4750 2975 4387 
Q 3406 4025 3406 3419 
Q 3406 3131 3298 2873 
Q 3191 2616 2906 2266 
Q 2828 2175 2409 1742 
Q 1991 1309 1228 531 
z
" transform="scale(0.015625)"/>
        <path id="DejaVuSans-35" d="M 691 4666 
L 3169 4666 
L 3169 4134 
L 1269 4134 
L 1269 2991 
Q 1406 3038 1543 3061 
Q 1681 3084 1819 3084 
Q 2600 3084 3056 2656 
Q 3513 2228 3513 1497 
Q 3513 744 3044 326 
Q 2575 -91 1722 -91 
Q 1428 -91 1123 -41 
Q 819 9 494 109 
L 494 744 
Q 775 591 1075 516 
Q 1375 441 1709 441 
Q 2250 441 2565 725 
Q 2881 1009 2881 1497 
Q 2881 1984 2565 2268 
Q 2250 2553 1709 2553 
Q 1456 2553 1204 2497 
Q 953 2441 691 2322 
L 691 4666 
z
" transform="scale(0.015625)"/>
       </defs>
       <use xlink:href="#DejaVuSans-32"/>
       <use xlink:href="#DejaVuSans-2e" x="63.623047"/>
       <use xlink:href="#DejaVuSans-35" x="95.410156"/>
      </g>
     </g>
    </g>
    <g id="xtick_3">
     <g id="line2d_3">
      <g>
       <use xlink:href="#m02adf6fa83" x="137.454221" y="273.312" style="stroke: #000000; stroke-width: 0.8"/>
      </g>
     </g>
     <g id="text_3">
      <!-- 5.0 -->
      <g transform="translate(129.502659 287.910437) scale(0.1 -0.1)">
       <use xlink:href="#DejaVuSans-35"/>
       <use xlink:href="#DejaVuSans-2e" x="63.623047"/>
       <use xlink:href="#DejaVuSans-30" x="95.410156"/>
      </g>
     </g>
    </g>
    <g id="xtick_4">
     <g id="line2d_4">
      <g>
       <use xlink:href="#m02adf6fa83" x="178.239968" y="273.312" style="stroke: #000000; stroke-width: 0.8"/>
      </g>
     </g>
     <g id="text_4">
      <!-- 7.5 -->
      <g transform="translate(170.288406 287.910437) scale(0.1 -0.1)">
       <defs>
        <path id="DejaVuSans-37" d="M 525 4666 
L 3525 4666 
L 3525 4397 
L 1831 0 
L 1172 0 
L 2766 4134 
L 525 4134 
L 525 4666 
z
" transform="scale(0.015625)"/>
       </defs>
       <use xlink:href="#DejaVuSans-37"/>
       <use xlink:href="#DejaVuSans-2e" x="63.623047"/>
       <use xlink:href="#DejaVuSans-35" x="95.410156"/>
      </g>
     </g>
    </g>
    <g id="xtick_5">
     <g id="line2d_5">
      <g>
       <use xlink:href="#m02adf6fa83" x="219.025715" y="273.312" style="stroke: #000000; stroke-width: 0.8"/>
      </g>
     </g>
     <g id="text_5">
      <!-- 10.0 -->
      <g transform="translate(207.892902 287.910437) scale(0.1 -0.1)">
       <defs>
        <path id="DejaVuSans-31" d="M 794 531 
L 1825 531 
L 1825 4091 
L 703 3866 
L 703 4441 
L 1819 4666 
L 2450 4666 
L 2450 531 
L 3481 531 
L 3481 0 
L 794 0 
L 794 531 
z
" transform="scale(0.015625)"/>
       </defs>
       <use xlink:href="#DejaVuSans-31"/>
       <use xlink:href="#DejaVuSans-30" x="63.623047"/>
       <use xlink:href="#DejaVuSans-2e" x="127.246094"/>
       <use xlink:href="#DejaVuSans-30" x="159.033203"/>
      </g>
     </g>
    </g>
    <g id="xtick_6">
     <g id="line2d_6">
      <g>
       <use xlink:href="#m02adf6fa83" x="259.811462" y="273.312" style="stroke: #000000; stroke-width: 0.8"/>
      </g>
     </g>
     <g id="text_6">
      <!-- 12.5 -->
      <g transform="translate(248.678649 287.910437) scale(0.1 -0.1)">
       <use xlink:href="#DejaVuSans-31"/>
       <use xlink:href="#DejaVuSans-32" x="63.623047"/>
       <use xlink:href="#DejaVuSans-2e" x="127.246094"/>
       <use xlink:href="#DejaVuSans-35" x="159.033203"/>
      </g>
     </g>
    </g>
    <g id="xtick_7">
     <g id="line2d_7">
      <g>
       <use xlink:href="#m02adf6fa83" x="300.597209" y="273.312" style="stroke: #000000; stroke-width: 0.8"/>
      </g>
     </g>
     <g id="text_7">
      <!-- 15.0 -->
      <g transform="translate(289.464396 287.910437) scale(0.1 -0.1)">
       <use xlink:href="#DejaVuSans-31"/>
       <use xlink:href="#DejaVuSans-35" x="63.623047"/>
       <use xlink:href="#DejaVuSans-2e" x="127.246094"/>
       <use xlink:href="#DejaVuSans-30" x="159.033203"/>
      </g>
     </g>
    </g>
    <g id="xtick_8">
     <g id="line2d_8">
      <g>
       <use xlink:href="#m02adf6fa83" x="341.382956" y="273.312" style="stroke: #000000; stroke-width: 0.8"/>
      </g>
     </g>
     <g id="text_8">
      <!-- 17.5 -->
      <g transform="translate(330.250143 287.910437) scale(0.1 -0.1)">
       <use xlink:href="#DejaVuSans-31"/>
       <use xlink:href="#DejaVuSans-37" x="63.623047"/>
       <use xlink:href="#DejaVuSans-2e" x="127.246094"/>
       <use xlink:href="#DejaVuSans-35" x="159.033203"/>
      </g>
     </g>
    </g>
    <g id="xtick_9">
     <g id="line2d_9">
      <g>
       <use xlink:href="#m02adf6fa83" x="382.168703" y="273.312" style="stroke: #000000; stroke-width: 0.8"/>
      </g>
     </g>
     <g id="text_9">
      <!-- 20.0 -->
      <g transform="translate(371.03589 287.910437) scale(0.1 -0.1)">
       <use xlink:href="#DejaVuSans-32"/>
       <use xlink:href="#DejaVuSans-30" x="63.623047"/>
       <use xlink:href="#DejaVuSans-2e" x="127.246094"/>
       <use xlink:href="#DejaVuSans-30" x="159.033203"/>
      </g>
     </g>
    </g>
   </g>
   <g id="matplotlib.axis_2">
    <g id="ytick_1">
     <g id="line2d_10">
      <defs>
       <path id="mf22ffa1f21" d="M 0 0 
L -3.5 0 
" style="stroke: #000000; stroke-width: 0.8"/>
      </defs>
      <g>
       <use xlink:href="#mf22ffa1f21" x="39.65" y="261.216" style="stroke: #000000; stroke-width: 0.8"/>
      </g>
     </g>
     <g id="text_10">
      <!-- 0 -->
      <g transform="translate(26.2875 265.015219) scale(0.1 -0.1)">
       <use xlink:href="#DejaVuSans-30"/>
      </g>
     </g>
    </g>
    <g id="ytick_2">
     <g id="line2d_11">
      <g>
       <use xlink:href="#mf22ffa1f21" x="39.65" y="222.284555" style="stroke: #000000; stroke-width: 0.8"/>
      </g>
     </g>
     <g id="text_11">
      <!-- 500 -->
      <g transform="translate(13.5625 226.083774) scale(0.1 -0.1)">
       <use xlink:href="#DejaVuSans-35"/>
       <use xlink:href="#DejaVuSans-30" x="63.623047"/>
       <use xlink:href="#DejaVuSans-30" x="127.246094"/>
      </g>
     </g>
    </g>
    <g id="ytick_3">
     <g id="line2d_12">
      <g>
       <use xlink:href="#mf22ffa1f21" x="39.65" y="183.35311" style="stroke: #000000; stroke-width: 0.8"/>
      </g>
     </g>
     <g id="text_12">
      <!-- 1000 -->
      <g transform="translate(7.2 187.152329) scale(0.1 -0.1)">
       <use xlink:href="#DejaVuSans-31"/>
       <use xlink:href="#DejaVuSans-30" x="63.623047"/>
       <use xlink:href="#DejaVuSans-30" x="127.246094"/>
       <use xlink:href="#DejaVuSans-30" x="190.869141"/>
      </g>
     </g>
    </g>
    <g id="ytick_4">
     <g id="line2d_13">
      <g>
       <use xlink:href="#mf22ffa1f21" x="39.65" y="144.421665" style="stroke: #000000; stroke-width: 0.8"/>
      </g>
     </g>
     <g id="text_13">
      <!-- 1500 -->
      <g transform="translate(7.2 148.220883) scale(0.1 -0.1)">
       <use xlink:href="#DejaVuSans-31"/>
       <use xlink:href="#DejaVuSans-35" x="63.623047"/>
       <use xlink:href="#DejaVuSans-30" x="127.246094"/>
       <use xlink:href="#DejaVuSans-30" x="190.869141"/>
      </g>
     </g>
    </g>
    <g id="ytick_5">
     <g id="line2d_14">
      <g>
       <use xlink:href="#mf22ffa1f21" x="39.65" y="105.49022" style="stroke: #000000; stroke-width: 0.8"/>
      </g>
     </g>
     <g id="text_14">
      <!-- 2000 -->
      <g transform="translate(7.2 109.289438) scale(0.1 -0.1)">
       <use xlink:href="#DejaVuSans-32"/>
       <use xlink:href="#DejaVuSans-30" x="63.623047"/>
       <use xlink:href="#DejaVuSans-30" x="127.246094"/>
       <use xlink:href="#DejaVuSans-30" x="190.869141"/>
      </g>
     </g>
    </g>
    <g id="ytick_6">
     <g id="line2d_15">
      <g>
       <use xlink:href="#mf22ffa1f21" x="39.65" y="66.558774" style="stroke: #000000; stroke-width: 0.8"/>
      </g>
     </g>
     <g id="text_15">
      <!-- 2500 -->
      <g transform="translate(7.2 70.357993) scale(0.1 -0.1)">
       <use xlink:href="#DejaVuSans-32"/>
       <use xlink:href="#DejaVuSans-35" x="63.623047"/>
       <use xlink:href="#DejaVuSans-30" x="127.246094"/>
       <use xlink:href="#DejaVuSans-30" x="190.869141"/>
      </g>
     </g>
    </g>
    <g id="ytick_7">
     <g id="line2d_16">
      <g>
       <use xlink:href="#mf22ffa1f21" x="39.65" y="27.627329" style="stroke: #000000; stroke-width: 0.8"/>
      </g>
     </g>
     <g id="text_16">
      <!-- 3000 -->
      <g transform="translate(7.2 31.426548) scale(0.1 -0.1)">
       <defs>
        <path id="DejaVuSans-33" d="M 2597 2516 
Q 3050 2419 3304 2112 
Q 3559 1806 3559 1356 
Q 3559 666 3084 287 
Q 2609 -91 1734 -91 
Q 1441 -91 1130 -33 
Q 819 25 488 141 
L 488 750 
Q 750 597 1062 519 
Q 1375 441 1716 441 
Q 2309 441 2620 675 
Q 2931 909 2931 1356 
Q 2931 1769 2642 2001 
Q 2353 2234 1838 2234 
L 1294 2234 
L 1294 2753 
L 1863 2753 
Q 2328 2753 2575 2939 
Q 2822 3125 2822 3475 
Q 2822 3834 2567 4026 
Q 2313 4219 1838 4219 
Q 1578 4219 1281 4162 
Q 984 4106 628 3988 
L 628 4550 
Q 988 4650 1302 4700 
Q 1616 4750 1894 4750 
Q 2613 4750 3031 4423 
Q 3450 4097 3450 3541 
Q 3450 3153 3228 2886 
Q 3006 2619 2597 2516 
z
" transform="scale(0.015625)"/>
       </defs>
       <use xlink:href="#DejaVuSans-33"/>
       <use xlink:href="#DejaVuSans-30" x="63.623047"/>
       <use xlink:href="#DejaVuSans-30" x="127.246094"/>
       <use xlink:href="#DejaVuSans-30" x="190.869141"/>
      </g>
     </g>
    </g>
   </g>
   <g id="line2d_17">
    <path d="M 55.882727 261.216 
L 59.961302 241.750277 
L 64.039877 224.161051 
L 68.118451 208.267425 
L 72.197026 193.905945 
L 76.275601 180.928912 
L 80.354175 169.202865 
L 84.43275 158.607208 
L 88.511325 149.032973 
L 92.589899 140.381694 
L 96.668474 132.564399 
L 100.747049 125.500691 
L 104.825624 119.117924 
L 108.904198 113.350456 
L 112.982773 108.138972 
L 117.061348 103.429875 
L 121.139922 99.174735 
L 125.218497 95.32979 
L 129.297072 91.855498 
L 133.375646 88.716128 
L 137.454221 85.879393 
L 141.532796 83.316119 
L 145.61137 80.999945 
L 149.689945 78.90705 
L 153.76852 77.015911 
L 157.847095 75.307077 
L 161.925669 73.762974 
L 166.004244 72.367723 
L 170.082819 71.106975 
L 174.161393 69.967762 
L 178.239968 68.93837 
L 182.318543 68.008211 
L 186.397117 67.167719 
L 190.475692 66.408251 
L 194.554267 65.721995 
L 198.632841 65.101895 
L 202.711416 64.541572 
L 206.789991 64.035264 
L 210.868566 63.577765 
L 214.94714 63.164368 
L 219.025715 62.790823 
L 223.10429 62.453287 
L 227.182864 62.14829 
L 231.261439 61.872695 
L 235.340014 61.623667 
L 239.418588 61.398645 
L 243.497163 61.195316 
L 247.575738 61.011587 
L 251.654312 60.84557 
L 255.732887 60.695557 
L 259.811462 60.560005 
L 263.890037 60.43752 
L 267.968611 60.326843 
L 272.047186 60.226835 
L 276.125761 60.136468 
L 280.204335 60.054813 
L 284.28291 59.981028 
L 288.361485 59.914357 
L 292.440059 59.854113 
L 296.518634 59.799676 
L 300.597209 59.750487 
L 304.675783 59.70604 
L 308.754358 59.665878 
L 312.832933 59.629587 
L 316.911508 59.596795 
L 320.990082 59.567163 
L 325.068657 59.540389 
L 329.147232 59.516195 
L 333.225806 59.494334 
L 337.304381 59.47458 
L 341.382956 59.45673 
L 345.46153 59.440601 
L 349.540105 59.426027 
L 353.61868 59.412858 
L 357.697254 59.400958 
L 361.775829 59.390206 
L 365.854404 59.38049 
L 369.932979 59.37171 
L 374.011553 59.363777 
L 378.090128 59.356609 
" clip-path="url(#p90993b5045)" style="fill: none; stroke: #1f77b4; stroke-width: 1.5; stroke-linecap: square"/>
   </g>
   <g id="line2d_18">
    <path d="M 55.882727 261.216 
L 59.961302 261.216 
L 64.039877 259.339504 
L 68.118451 256.218141 
L 72.197026 252.314384 
L 76.275601 247.963863 
L 80.354175 243.407351 
L 84.43275 238.814922 
L 88.511325 234.304174 
L 92.589899 229.953951 
L 96.668474 225.814668 
L 100.747049 221.916053 
L 104.825624 218.272945 
L 108.904198 214.889612 
L 112.982773 211.762972 
L 117.061348 208.884964 
L 121.139922 206.244296 
L 125.218497 203.827722 
L 129.297072 201.620955 
L 133.375646 199.609333 
L 137.454221 197.778267 
L 141.532796 196.113561 
L 145.61137 194.601619 
L 149.689945 193.229565 
L 153.76852 191.985324 
L 157.847095 190.857644 
L 161.925669 189.836101 
L 166.004244 188.911081 
L 170.082819 188.073749 
L 174.161393 187.316007 
L 178.239968 186.630455 
L 182.318543 186.01034 
L 186.397117 185.449508 
L 190.475692 184.942365 
L 194.554267 184.483825 
L 198.632841 184.069272 
L 202.711416 183.694516 
L 206.789991 183.355762 
L 210.868566 183.049568 
L 214.94714 182.772819 
L 219.025715 182.522694 
L 223.10429 182.296639 
L 227.182864 182.092344 
L 231.261439 181.907719 
L 235.340014 181.740873 
L 239.418588 181.590098 
L 243.497163 181.453847 
L 247.575738 181.330722 
L 251.654312 181.21946 
L 255.732887 181.11892 
L 259.811462 181.028068 
L 263.890037 180.945971 
L 267.968611 180.871787 
L 272.047186 180.804752 
L 276.125761 180.744178 
L 280.204335 180.689443 
L 284.28291 180.639984 
L 288.361485 180.595291 
L 292.440059 180.554907 
L 296.518634 180.518416 
L 300.597209 180.485442 
L 304.675783 180.455647 
L 308.754358 180.428723 
L 312.832933 180.404395 
L 316.911508 180.382413 
L 320.990082 180.362549 
L 325.068657 180.3446 
L 329.147232 180.328381 
L 333.225806 180.313726 
L 337.304381 180.300484 
L 341.382956 180.288518 
L 345.46153 180.277705 
L 349.540105 180.267935 
L 353.61868 180.259107 
L 357.697254 180.25113 
L 361.775829 180.243922 
L 365.854404 180.237408 
L 369.932979 180.231523 
L 374.011553 180.226205 
L 378.090128 180.221399 
" clip-path="url(#p90993b5045)" style="fill: none; stroke: #ff7f0e; stroke-width: 1.5; stroke-linecap: square"/>
   </g>
   <g id="line2d_19">
    <path d="M 55.882727 261.216 
L 59.145587 245.565559 
L 60.777017 239.336528 
L 62.408447 231.472376 
L 64.039877 225.243345 
L 65.671307 218.157822 
L 67.302736 213.563911 
L 68.934166 208.502823 
L 70.565596 200.794397 
L 72.197026 195.032543 
L 73.828456 190.049318 
L 75.459886 186.156174 
L 77.091316 181.873715 
L 78.722746 175.488958 
L 80.354175 170.817184 
L 81.985605 167.936257 
L 83.617035 164.821742 
L 85.248465 159.37134 
L 86.879895 154.933155 
L 90.142755 147.614043 
L 91.774185 141.229286 
L 93.405614 137.258279 
L 95.037044 135.000255 
L 96.668474 131.885739 
L 98.299904 127.136103 
L 99.931334 123.398684 
L 101.562764 121.296386 
L 103.194194 117.558967 
L 104.825624 114.989492 
L 106.457053 113.120783 
L 108.088483 111.485662 
L 109.719913 111.096348 
L 111.351343 107.826106 
L 117.877063 97.626068 
L 119.508492 96.302398 
L 121.139922 92.720706 
L 122.771352 91.942077 
L 124.402782 88.204658 
L 127.665642 83.299296 
L 129.297072 83.377159 
L 130.928502 83.065707 
L 132.559931 81.664175 
L 134.191361 80.029054 
L 135.822791 81.352724 
L 137.454221 80.963409 
L 139.085651 78.082482 
L 140.717081 75.902321 
L 142.348511 74.033612 
L 143.979941 73.332846 
L 145.61137 72.242765 
L 147.2428 71.697725 
L 148.87423 72.63208 
L 150.50566 70.140467 
L 152.13709 68.58321 
L 153.76852 66.7145 
L 155.39995 65.546557 
L 157.03138 67.25954 
L 158.66281 65.702283 
L 160.294239 64.300751 
L 161.925669 63.75571 
L 163.557099 61.108372 
L 165.188529 58.227445 
L 166.819959 57.215228 
L 168.451389 55.580107 
L 170.082819 55.424381 
L 171.714249 53.555672 
L 174.977108 53.477809 
L 176.608538 52.932769 
L 178.239968 50.986196 
L 179.871398 50.051842 
L 181.502828 50.207567 
L 183.134258 50.752608 
L 184.765688 49.19535 
L 186.397117 48.416721 
L 188.028547 46.703737 
L 189.659977 45.224342 
L 191.291407 46.548012 
L 192.922837 47.404503 
L 194.554267 45.457931 
L 196.185697 47.093052 
L 197.817127 45.535794 
L 199.448556 44.367851 
L 201.079986 42.421278 
L 202.711416 42.343416 
L 204.342846 41.798375 
L 205.974276 42.810593 
L 207.605706 42.499141 
L 209.237136 41.64265 
L 210.868566 41.175472 
L 212.499995 39.696077 
L 214.131425 38.917448 
L 215.762855 37.126602 
L 217.394285 38.68386 
L 219.025715 37.671642 
L 220.657145 38.68386 
L 222.288575 37.983094 
L 225.551434 34.946441 
L 227.182864 35.958659 
L 228.814294 35.958659 
L 230.445724 36.503699 
L 232.077154 36.659425 
L 233.708584 35.413618 
L 235.340014 34.712852 
L 236.971444 33.700635 
L 238.602873 34.557126 
L 240.234303 33.467046 
L 241.865733 33.934223 
L 243.497163 31.754062 
L 245.128593 31.754062 
L 248.391453 29.651764 
L 250.022883 30.274668 
L 251.654312 28.016644 
L 253.285742 26.926563 
L 254.917172 26.147934 
L 256.548602 24.979991 
L 258.180032 23.033419 
L 259.811462 24.045636 
L 261.442892 24.045636 
L 263.074322 25.447168 
L 264.705751 26.225797 
L 266.337181 27.393741 
L 267.968611 26.770837 
L 269.600041 25.602894 
L 271.231471 27.393741 
L 272.862901 28.873136 
L 274.494331 28.483821 
L 276.125761 28.483821 
L 277.75719 29.963216 
L 279.38862 29.106724 
L 281.02005 29.963216 
L 282.65148 29.26245 
L 284.28291 29.418176 
L 287.54577 27.783055 
L 289.1772 26.070071 
L 290.80863 26.615112 
L 292.440059 27.393741 
L 294.071489 27.393741 
L 295.702919 30.508256 
L 297.334349 29.80749 
L 298.965779 29.573902 
L 300.597209 27.860918 
L 302.228639 27.549466 
L 305.491498 29.496039 
L 307.122928 26.770837 
L 308.754358 25.602894 
L 310.385788 24.979991 
L 312.017218 24.902128 
L 315.280078 25.369305 
L 316.911508 24.357088 
L 318.542937 25.135717 
L 320.174367 26.30366 
L 321.805797 27.160152 
L 323.437227 26.070071 
L 325.068657 25.291443 
L 326.700087 25.369305 
L 328.331517 26.770837 
L 329.962947 25.525031 
L 331.594376 25.135717 
L 333.225806 26.537249 
L 334.857236 26.770837 
L 336.488666 25.291443 
L 338.120096 26.459386 
L 339.751526 26.225797 
L 341.382956 24.045636 
L 343.014386 22.410516 
L 344.645815 20.541806 
L 346.277245 21.086846 
L 349.540105 21.008984 
L 351.171535 19.296 
L 352.802965 21.476161 
L 354.434395 21.865475 
L 356.065825 21.865475 
L 357.697254 21.631887 
L 359.328684 21.865475 
L 360.960114 22.410516 
L 362.591544 23.189145 
L 364.222974 24.902128 
L 365.854404 26.8487 
L 367.485834 26.770837 
L 369.117264 27.082289 
L 370.748693 27.549466 
L 372.380123 27.783055 
L 374.011553 28.71741 
L 375.642983 28.328095 
L 377.274413 27.160152 
L 378.905843 26.926563 
L 380.537273 25.75862 
L 380.537273 25.75862 
" clip-path="url(#p90993b5045)" style="fill: none; stroke: #2ca02c; stroke-width: 1.5; stroke-linecap: square"/>
   </g>
   <g id="line2d_20">
    <path d="M 55.882727 261.216 
L 57.514157 261.216 
L 59.145587 260.281645 
L 60.777017 259.892331 
L 62.408447 259.347291 
L 64.039877 258.568662 
L 65.671307 257.945759 
L 67.302736 256.544227 
L 68.934166 254.75338 
L 70.565596 254.441929 
L 72.197026 252.884671 
L 73.828456 250.548784 
L 75.459886 248.913663 
L 77.091316 246.422051 
L 78.722746 245.254107 
L 80.354175 243.463261 
L 81.985605 240.582334 
L 83.617035 238.713625 
L 85.248465 237.312093 
L 86.879895 235.287658 
L 90.142755 232.017416 
L 91.774185 231.005199 
L 93.405614 229.292215 
L 95.037044 227.189917 
L 96.668474 225.944111 
L 98.299904 225.554796 
L 99.931334 223.76395 
L 101.562764 222.284555 
L 103.194194 218.702862 
L 104.825624 216.834153 
L 106.457053 214.031089 
L 111.351343 207.412743 
L 114.614203 203.675324 
L 116.245633 203.208147 
L 117.877063 201.884478 
L 119.508492 201.261575 
L 121.139922 198.847825 
L 122.771352 196.82339 
L 124.402782 195.733309 
L 126.034212 194.098189 
L 127.665642 193.085971 
L 129.297072 189.504278 
L 130.928502 187.713432 
L 132.559931 187.94702 
L 134.191361 186.934803 
L 135.822791 183.197384 
L 137.454221 181.406537 
L 139.085651 181.717989 
L 140.717081 180.627909 
L 142.348511 179.226377 
L 143.979941 178.992788 
L 145.61137 178.214159 
L 147.2428 177.279804 
L 148.87423 174.788192 
L 150.50566 174.243152 
L 152.13709 172.919482 
L 153.76852 173.153071 
L 155.39995 172.218716 
L 157.03138 171.440088 
L 158.66281 172.374442 
L 160.294239 172.997345 
L 161.925669 172.140854 
L 163.557099 172.530168 
L 165.188529 171.751539 
L 166.819959 170.583596 
L 168.451389 170.817184 
L 170.082819 169.104201 
L 171.714249 168.637023 
L 173.345678 167.858395 
L 174.977108 167.546943 
L 176.608538 165.989685 
L 178.239968 165.288919 
L 179.871398 164.743879 
L 181.502828 164.043113 
L 183.134258 161.785089 
L 184.765688 162.252266 
L 188.028547 162.252266 
L 189.659977 162.953033 
L 191.291407 161.5515 
L 192.922837 160.850734 
L 194.554267 161.785089 
L 196.185697 159.994243 
L 197.817127 160.617146 
L 199.448556 159.91638 
L 202.711416 158.826299 
L 204.342846 158.826299 
L 205.974276 158.436985 
L 207.605706 157.814082 
L 209.237136 157.424767 
L 210.868566 158.281259 
L 212.499995 157.50263 
L 214.131425 156.95759 
L 215.762855 157.50263 
L 217.394285 155.945372 
L 219.025715 157.035453 
L 220.657145 155.244606 
L 222.288575 155.945372 
L 223.920005 156.023235 
L 225.551434 157.50263 
L 227.182864 155.789647 
L 228.814294 156.178961 
L 230.445724 154.54384 
L 232.077154 154.388115 
L 233.708584 154.855292 
L 235.340014 153.298034 
L 236.971444 154.699566 
L 238.602873 153.843074 
L 240.234303 154.699566 
L 241.865733 153.609486 
L 243.497163 153.220171 
L 245.128593 151.507188 
L 246.760023 152.90872 
L 248.391453 152.207954 
L 250.022883 152.986583 
L 251.654312 153.142308 
L 253.285742 151.662913 
L 254.917172 152.597268 
L 256.548602 151.818639 
L 258.180032 150.572833 
L 259.811462 148.470535 
L 261.442892 148.392672 
L 263.074322 146.368237 
L 264.705751 145.433882 
L 267.968611 147.380454 
L 269.600041 148.003358 
L 271.231471 147.769769 
L 272.862901 149.171301 
L 274.494331 149.560615 
L 276.125761 148.470535 
L 277.75719 147.146866 
L 279.38862 146.601826 
L 281.02005 146.835414 
L 282.65148 145.589608 
L 284.28291 144.888842 
L 285.91434 143.020133 
L 287.54577 143.643036 
L 289.1772 143.643036 
L 290.80863 142.630818 
L 292.440059 141.07356 
L 294.071489 139.905617 
L 295.702919 138.192633 
L 297.334349 138.971262 
L 298.965779 139.126988 
L 300.597209 138.893399 
L 302.228639 142.475092 
L 303.860069 140.684246 
L 305.491498 140.217069 
L 307.122928 140.995697 
L 308.754358 142.786544 
L 310.385788 143.020133 
L 312.017218 142.163641 
L 313.648648 141.540738 
L 315.280078 142.552955 
L 316.911508 143.253721 
L 318.542937 144.110213 
L 320.174367 143.097995 
L 321.805797 141.462875 
L 323.437227 142.163641 
L 325.068657 141.618601 
L 326.700087 143.798762 
L 328.331517 140.917835 
L 329.962947 140.684246 
L 331.594376 140.139206 
L 333.225806 139.749891 
L 334.857236 140.839972 
L 336.488666 141.462875 
L 338.120096 140.917835 
L 339.751526 141.07356 
L 341.382956 142.864407 
L 343.014386 143.175858 
L 344.645815 144.499528 
L 346.277245 143.175858 
L 347.908675 142.397229 
L 349.540105 143.097995 
L 351.171535 144.110213 
L 352.802965 144.188076 
L 354.434395 144.110213 
L 356.065825 144.810979 
L 357.697254 144.265939 
L 359.328684 144.966705 
L 360.960114 142.864407 
L 362.591544 141.151423 
L 364.222974 141.696463 
L 365.854404 142.085778 
L 367.485834 142.163641 
L 369.117264 141.774326 
L 370.748693 143.020133 
L 372.380123 143.175858 
L 374.011553 141.774326 
L 375.642983 141.852189 
L 377.274413 141.229286 
L 378.905843 141.307149 
L 380.537273 142.241504 
L 380.537273 142.241504 
" clip-path="url(#p90993b5045)" style="fill: none; stroke: #d62728; stroke-width: 1.5; stroke-linecap: square"/>
   </g>
   <g id="patch_3">
    <path d="M 39.65 273.312 
L 39.65 7.2 
" style="fill: none; stroke: #000000; stroke-width: 0.8; stroke-linejoin: miter; stroke-linecap: square"/>
   </g>
   <g id="patch_4">
    <path d="M 396.77 273.312 
L 396.77 7.2 
" style="fill: none; stroke: #000000; stroke-width: 0.8; stroke-linejoin: miter; stroke-linecap: square"/>
   </g>
   <g id="patch_5">
    <path d="M 39.65 273.312 
L 396.77 273.312 
" style="fill: none; stroke: #000000; stroke-width: 0.8; stroke-linejoin: miter; stroke-linecap: square"/>
   </g>
   <g id="patch_6">
    <path d="M 39.65 7.2 
L 396.77 7.2 
" style="fill: none; stroke: #000000; stroke-width: 0.8; stroke-linejoin: miter; stroke-linecap: square"/>
   </g>
  </g>
 </g>
 <defs>
  <clipPath id="p90993b5045">
   <rect x="39.65" y="7.2" width="357.12" height="266.112"/>
  </clipPath>
 </defs>
</svg>
