<?xml version="1.0" encoding="utf-8" standalone="no"?>
<!DOCTYPE svg PUBLIC "-//W3C//DTD SVG 1.1//EN"
  "http://www.w3.org/Graphics/SVG/1.1/DTD/svg11.dtd">
<svg xmlns:xlink="http://www.w3.org/1999/xlink" width="397.6075pt" height="297.190125pt" viewBox="0 0 397.6075 297.190125" xmlns="http://www.w3.org/2000/svg" version="1.1">
 <metadata>
  <rdf:RDF xmlns:dc="http://purl.org/dc/elements/1.1/" xmlns:cc="http://creativecommons.org/ns#" xmlns:rdf="http://www.w3.org/1999/02/22-rdf-syntax-ns#">
   <cc:Work>
    <dc:type rdf:resource="http://purl.org/dc/dcmitype/StillImage"/>
    <dc:date>2025-09-30T06:34:03.002779</dc:date>
    <dc:format>image/svg+xml</dc:format>
    <dc:creator>
     <cc:Agent>
      <dc:title>Matplotlib v3.10.6, https://matplotlib.org/</dc:title>
     </cc:Agent>
    </dc:creator>
   </cc:Work>
  </rdf:RDF>
 </metadata>
 <defs>
  <style type="text/css">*{stroke-linejoin: round; stroke-linecap: butt}</style>
 </defs>
 <g id="figure_1">
  <g id="patch_1">
   <path d="M 0 297.190125 
L 397.6075 297.190125 
L 397.6075 0 
L 0 0 
z
" style="fill: #ffffff"/>
  </g>
  <g id="axes_1">
   <g id="patch_2">
    <path d="M 33.2875 273.312 
L 390.4075 273.312 
L 390.4075 7.2 
L 33.2875 7.2 
z
" style="fill: #ffffff"/>
   </g>
   <g id="matplotlib.axis_1">
    <g id="xtick_1">
     <g id="line2d_1">
      <defs>
       <path id="md7f5a922c6" d="M 0 0 
L 0 3.5 
" style="stroke: #000000; stroke-width: 0.8"/>
      </defs>
      <g>
       <use xlink:href="#md7f5a922c6" x="49.520227" y="273.312" style="stroke: #000000; stroke-width: 0.8"/>
      </g>
     </g>
     <g id="text_1">
      <!-- 0.0 -->
      <g transform="translate(41.568665 287.910437) scale(0.1 -0.1)">
       <defs>
        <path id="DejaVuSans-30" d="M 2034 4250 
Q 1547 4250 1301 3770 
Q 1056 3291 1056 2328 
Q 1056 1369 1301 889 
Q 1547 409 2034 409 
Q 2525 409 2770 889 
Q 3016 1369 3016 2328 
Q 3016 3291 2770 3770 
Q 2525 4250 2034 4250 
z
M 2034 4750 
Q 2819 4750 3233 4129 
Q 3647 3509 3647 2328 
Q 3647 1150 3233 529 
Q 2819 -91 2034 -91 
Q 1250 -91 836 529 
Q 422 1150 422 2328 
Q 422 3509 836 4129 
Q 1250 4750 2034 4750 
z
" transform="scale(0.015625)"/>
        <path id="DejaVuSans-2e" d="M 684 794 
L 1344 794 
L 1344 0 
L 684 0 
L 684 794 
z
" transform="scale(0.015625)"/>
       </defs>
       <use xlink:href="#DejaVuSans-30"/>
       <use xlink:href="#DejaVuSans-2e" transform="translate(63.623047 0)"/>
       <use xlink:href="#DejaVuSans-30" transform="translate(95.410156 0)"/>
      </g>
     </g>
    </g>
    <g id="xtick_2">
     <g id="line2d_2">
      <g>
       <use xlink:href="#md7f5a922c6" x="90.305974" y="273.312" style="stroke: #000000; stroke-width: 0.8"/>
      </g>
     </g>
     <g id="text_2">
      <!-- 2.5 -->
      <g transform="translate(82.354412 287.910437) scale(0.1 -0.1)">
       <defs>
        <path id="DejaVuSans-32" d="M 1228 531 
L 3431 531 
L 3431 0 
L 469 0 
L 469 531 
Q 828 903 1448 1529 
Q 2069 2156 2228 2338 
Q 2531 2678 2651 2914 
Q 2772 3150 2772 3378 
Q 2772 3750 2511 3984 
Q 2250 4219 1831 4219 
Q 1534 4219 1204 4116 
Q 875 4013 500 3803 
L 500 4441 
Q 881 4594 1212 4672 
Q 1544 4750 1819 4750 
Q 2544 4750 2975 4387 
Q 3406 4025 3406 3419 
Q 3406 3131 3298 2873 
Q 3191 2616 2906 2266 
Q 2828 2175 2409 1742 
Q 1991 1309 1228 531 
z
" transform="scale(0.015625)"/>
        <path id="DejaVuSans-35" d="M 691 4666 
L 3169 4666 
L 3169 4134 
L 1269 4134 
L 1269 2991 
Q 1406 3038 1543 3061 
Q 1681 3084 1819 3084 
Q 2600 3084 3056 2656 
Q 3513 2228 3513 1497 
Q 3513 744 3044 326 
Q 2575 -91 1722 -91 
Q 1428 -91 1123 -41 
Q 819 9 494 109 
L 494 744 
Q 775 591 1075 516 
Q 1375 441 1709 441 
Q 2250 441 2565 725 
Q 2881 1009 2881 1497 
Q 2881 1984 2565 2268 
Q 2250 2553 1709 2553 
Q 1456 2553 1204 2497 
Q 953 2441 691 2322 
L 691 4666 
z
" transform="scale(0.015625)"/>
       </defs>
       <use xlink:href="#DejaVuSans-32"/>
       <use xlink:href="#DejaVuSans-2e" transform="translate(63.623047 0)"/>
       <use xlink:href="#DejaVuSans-35" transform="translate(95.410156 0)"/>
      </g>
     </g>
    </g>
    <g id="xtick_3">
     <g id="line2d_3">
      <g>
       <use xlink:href="#md7f5a922c6" x="131.091721" y="273.312" style="stroke: #000000; stroke-width: 0.8"/>
      </g>
     </g>
     <g id="text_3">
      <!-- 5.0 -->
      <g transform="translate(123.140159 287.910437) scale(0.1 -0.1)">
       <use xlink:href="#DejaVuSans-35"/>
       <use xlink:href="#DejaVuSans-2e" transform="translate(63.623047 0)"/>
       <use xlink:href="#DejaVuSans-30" transform="translate(95.410156 0)"/>
      </g>
     </g>
    </g>
    <g id="xtick_4">
     <g id="line2d_4">
      <g>
       <use xlink:href="#md7f5a922c6" x="171.877468" y="273.312" style="stroke: #000000; stroke-width: 0.8"/>
      </g>
     </g>
     <g id="text_4">
      <!-- 7.5 -->
      <g transform="translate(163.925906 287.910437) scale(0.1 -0.1)">
       <defs>
        <path id="DejaVuSans-37" d="M 525 4666 
L 3525 4666 
L 3525 4397 
L 1831 0 
L 1172 0 
L 2766 4134 
L 525 4134 
L 525 4666 
z
" transform="scale(0.015625)"/>
       </defs>
       <use xlink:href="#DejaVuSans-37"/>
       <use xlink:href="#DejaVuSans-2e" transform="translate(63.623047 0)"/>
       <use xlink:href="#DejaVuSans-35" transform="translate(95.410156 0)"/>
      </g>
     </g>
    </g>
    <g id="xtick_5">
     <g id="line2d_5">
      <g>
       <use xlink:href="#md7f5a922c6" x="212.663215" y="273.312" style="stroke: #000000; stroke-width: 0.8"/>
      </g>
     </g>
     <g id="text_5">
      <!-- 10.0 -->
      <g transform="translate(201.530402 287.910437) scale(0.1 -0.1)">
       <defs>
        <path id="DejaVuSans-31" d="M 794 531 
L 1825 531 
L 1825 4091 
L 703 3866 
L 703 4441 
L 1819 4666 
L 2450 4666 
L 2450 531 
L 3481 531 
L 3481 0 
L 794 0 
L 794 531 
z
" transform="scale(0.015625)"/>
       </defs>
       <use xlink:href="#DejaVuSans-31"/>
       <use xlink:href="#DejaVuSans-30" transform="translate(63.623047 0)"/>
       <use xlink:href="#DejaVuSans-2e" transform="translate(127.246094 0)"/>
       <use xlink:href="#DejaVuSans-30" transform="translate(159.033203 0)"/>
      </g>
     </g>
    </g>
    <g id="xtick_6">
     <g id="line2d_6">
      <g>
       <use xlink:href="#md7f5a922c6" x="253.448962" y="273.312" style="stroke: #000000; stroke-width: 0.8"/>
      </g>
     </g>
     <g id="text_6">
      <!-- 12.5 -->
      <g transform="translate(242.316149 287.910437) scale(0.1 -0.1)">
       <use xlink:href="#DejaVuSans-31"/>
       <use xlink:href="#DejaVuSans-32" transform="translate(63.623047 0)"/>
       <use xlink:href="#DejaVuSans-2e" transform="translate(127.246094 0)"/>
       <use xlink:href="#DejaVuSans-35" transform="translate(159.033203 0)"/>
      </g>
     </g>
    </g>
    <g id="xtick_7">
     <g id="line2d_7">
      <g>
       <use xlink:href="#md7f5a922c6" x="294.234709" y="273.312" style="stroke: #000000; stroke-width: 0.8"/>
      </g>
     </g>
     <g id="text_7">
      <!-- 15.0 -->
      <g transform="translate(283.101896 287.910437) scale(0.1 -0.1)">
       <use xlink:href="#DejaVuSans-31"/>
       <use xlink:href="#DejaVuSans-35" transform="translate(63.623047 0)"/>
       <use xlink:href="#DejaVuSans-2e" transform="translate(127.246094 0)"/>
       <use xlink:href="#DejaVuSans-30" transform="translate(159.033203 0)"/>
      </g>
     </g>
    </g>
    <g id="xtick_8">
     <g id="line2d_8">
      <g>
       <use xlink:href="#md7f5a922c6" x="335.020456" y="273.312" style="stroke: #000000; stroke-width: 0.8"/>
      </g>
     </g>
     <g id="text_8">
      <!-- 17.5 -->
      <g transform="translate(323.887643 287.910437) scale(0.1 -0.1)">
       <use xlink:href="#DejaVuSans-31"/>
       <use xlink:href="#DejaVuSans-37" transform="translate(63.623047 0)"/>
       <use xlink:href="#DejaVuSans-2e" transform="translate(127.246094 0)"/>
       <use xlink:href="#DejaVuSans-35" transform="translate(159.033203 0)"/>
      </g>
     </g>
    </g>
    <g id="xtick_9">
     <g id="line2d_9">
      <g>
       <use xlink:href="#md7f5a922c6" x="375.806203" y="273.312" style="stroke: #000000; stroke-width: 0.8"/>
      </g>
     </g>
     <g id="text_9">
      <!-- 20.0 -->
      <g transform="translate(364.67339 287.910437) scale(0.1 -0.1)">
       <use xlink:href="#DejaVuSans-32"/>
       <use xlink:href="#DejaVuSans-30" transform="translate(63.623047 0)"/>
       <use xlink:href="#DejaVuSans-2e" transform="translate(127.246094 0)"/>
       <use xlink:href="#DejaVuSans-30" transform="translate(159.033203 0)"/>
      </g>
     </g>
    </g>
   </g>
   <g id="matplotlib.axis_2">
    <g id="ytick_1">
     <g id="line2d_10">
      <defs>
       <path id="ma7ff369a6a" d="M 0 0 
L -3.5 0 
" style="stroke: #000000; stroke-width: 0.8"/>
      </defs>
      <g>
       <use xlink:href="#ma7ff369a6a" x="33.2875" y="261.216" style="stroke: #000000; stroke-width: 0.8"/>
      </g>
     </g>
     <g id="text_10">
      <!-- 0 -->
      <g transform="translate(19.925 265.015219) scale(0.1 -0.1)">
       <use xlink:href="#DejaVuSans-30"/>
      </g>
     </g>
    </g>
    <g id="ytick_2">
     <g id="line2d_11">
      <g>
       <use xlink:href="#ma7ff369a6a" x="33.2875" y="221.16302" style="stroke: #000000; stroke-width: 0.8"/>
      </g>
     </g>
     <g id="text_11">
      <!-- 50 -->
      <g transform="translate(13.5625 224.962239) scale(0.1 -0.1)">
       <use xlink:href="#DejaVuSans-35"/>
       <use xlink:href="#DejaVuSans-30" transform="translate(63.623047 0)"/>
      </g>
     </g>
    </g>
    <g id="ytick_3">
     <g id="line2d_12">
      <g>
       <use xlink:href="#ma7ff369a6a" x="33.2875" y="181.11004" style="stroke: #000000; stroke-width: 0.8"/>
      </g>
     </g>
     <g id="text_12">
      <!-- 100 -->
      <g transform="translate(7.2 184.909258) scale(0.1 -0.1)">
       <use xlink:href="#DejaVuSans-31"/>
       <use xlink:href="#DejaVuSans-30" transform="translate(63.623047 0)"/>
       <use xlink:href="#DejaVuSans-30" transform="translate(127.246094 0)"/>
      </g>
     </g>
    </g>
    <g id="ytick_4">
     <g id="line2d_13">
      <g>
       <use xlink:href="#ma7ff369a6a" x="33.2875" y="141.05706" style="stroke: #000000; stroke-width: 0.8"/>
      </g>
     </g>
     <g id="text_13">
      <!-- 150 -->
      <g transform="translate(7.2 144.856278) scale(0.1 -0.1)">
       <use xlink:href="#DejaVuSans-31"/>
       <use xlink:href="#DejaVuSans-35" transform="translate(63.623047 0)"/>
       <use xlink:href="#DejaVuSans-30" transform="translate(127.246094 0)"/>
      </g>
     </g>
    </g>
    <g id="ytick_5">
     <g id="line2d_14">
      <g>
       <use xlink:href="#ma7ff369a6a" x="33.2875" y="101.004079" style="stroke: #000000; stroke-width: 0.8"/>
      </g>
     </g>
     <g id="text_14">
      <!-- 200 -->
      <g transform="translate(7.2 104.803298) scale(0.1 -0.1)">
       <use xlink:href="#DejaVuSans-32"/>
       <use xlink:href="#DejaVuSans-30" transform="translate(63.623047 0)"/>
       <use xlink:href="#DejaVuSans-30" transform="translate(127.246094 0)"/>
      </g>
     </g>
    </g>
    <g id="ytick_6">
     <g id="line2d_15">
      <g>
       <use xlink:href="#ma7ff369a6a" x="33.2875" y="60.951099" style="stroke: #000000; stroke-width: 0.8"/>
      </g>
     </g>
     <g id="text_15">
      <!-- 250 -->
      <g transform="translate(7.2 64.750318) scale(0.1 -0.1)">
       <use xlink:href="#DejaVuSans-32"/>
       <use xlink:href="#DejaVuSans-35" transform="translate(63.623047 0)"/>
       <use xlink:href="#DejaVuSans-30" transform="translate(127.246094 0)"/>
      </g>
     </g>
    </g>
    <g id="ytick_7">
     <g id="line2d_16">
      <g>
       <use xlink:href="#ma7ff369a6a" x="33.2875" y="20.898119" style="stroke: #000000; stroke-width: 0.8"/>
      </g>
     </g>
     <g id="text_16">
      <!-- 300 -->
      <g transform="translate(7.2 24.697338) scale(0.1 -0.1)">
       <defs>
        <path id="DejaVuSans-33" d="M 2597 2516 
Q 3050 2419 3304 2112 
Q 3559 1806 3559 1356 
Q 3559 666 3084 287 
Q 2609 -91 1734 -91 
Q 1441 -91 1130 -33 
Q 819 25 488 141 
L 488 750 
Q 750 597 1062 519 
Q 1375 441 1716 441 
Q 2309 441 2620 675 
Q 2931 909 2931 1356 
Q 2931 1769 2642 2001 
Q 2353 2234 1838 2234 
L 1294 2234 
L 1294 2753 
L 1863 2753 
Q 2328 2753 2575 2939 
Q 2822 3125 2822 3475 
Q 2822 3834 2567 4026 
Q 2313 4219 1838 4219 
Q 1578 4219 1281 4162 
Q 984 4106 628 3988 
L 628 4550 
Q 988 4650 1302 4700 
Q 1616 4750 1894 4750 
Q 2613 4750 3031 4423 
Q 3450 4097 3450 3541 
Q 3450 3153 3228 2886 
Q 3006 2619 2597 2516 
z
" transform="scale(0.015625)"/>
       </defs>
       <use xlink:href="#DejaVuSans-33"/>
       <use xlink:href="#DejaVuSans-30" transform="translate(63.623047 0)"/>
       <use xlink:href="#DejaVuSans-30" transform="translate(127.246094 0)"/>
      </g>
     </g>
    </g>
   </g>
   <g id="line2d_17">
    <path d="M 49.520227 261.216 
L 51.151657 192.324874 
L 52.783087 143.460238 
L 54.414517 121.03057 
L 56.045947 105.810437 
L 57.677377 86.585007 
L 59.308807 68.961695 
L 60.940236 73.768053 
L 64.203096 67.359576 
L 65.834526 61.752159 
L 67.465956 70.563815 
L 69.097386 74.569113 
L 70.728816 75.370172 
L 72.360246 72.966993 
L 73.991675 75.370172 
L 75.623105 76.972291 
L 77.254535 71.364874 
L 78.885965 63.354278 
L 80.517395 62.553219 
L 82.148825 67.359576 
L 83.780255 59.34898 
L 85.411685 52.940503 
L 87.043114 48.134146 
L 88.674544 48.935205 
L 91.937404 52.139444 
L 93.568834 43.327788 
L 96.831694 54.542623 
L 98.463124 61.752159 
L 100.094553 60.951099 
L 101.725983 55.343682 
L 103.357413 60.15004 
L 104.988843 61.752159 
L 106.620273 66.558517 
L 108.251703 60.951099 
L 109.883133 49.736265 
L 111.514563 51.338384 
L 113.145992 59.34898 
L 114.777422 68.160636 
L 116.408852 62.553219 
L 118.040282 64.956397 
L 119.671712 60.15004 
L 121.303142 66.558517 
L 124.566002 60.15004 
L 126.197431 51.338384 
L 127.828861 57.746861 
L 129.460291 67.359576 
L 131.091721 71.364874 
L 132.723151 64.956397 
L 134.354581 76.972291 
L 135.986011 68.961695 
L 137.617441 68.961695 
L 139.24887 61.752159 
L 140.8803 57.746861 
L 142.51173 64.155338 
L 144.14316 62.553219 
L 145.77459 56.144742 
L 147.40602 52.139444 
L 149.03745 53.741563 
L 150.66888 60.15004 
L 152.30031 52.940503 
L 153.931739 58.547921 
L 155.563169 50.537325 
L 157.194599 55.343682 
L 158.826029 52.139444 
L 160.457459 56.945801 
L 162.088889 60.951099 
L 163.720319 72.165934 
L 165.351749 60.951099 
L 166.983178 64.155338 
L 168.614608 66.558517 
L 170.246038 64.956397 
L 171.877468 64.155338 
L 173.508898 59.34898 
L 175.140328 49.736265 
L 176.771758 52.940503 
L 180.034617 64.155338 
L 181.666047 60.951099 
L 183.297477 65.757457 
L 184.928907 62.553219 
L 186.560337 53.741563 
L 188.191767 60.15004 
L 189.823197 68.961695 
L 191.454627 60.951099 
L 193.086056 60.15004 
L 194.717486 56.144742 
L 196.348916 47.333086 
L 197.980346 48.935205 
L 199.611776 44.128848 
L 201.243206 56.945801 
L 202.874636 52.940503 
L 204.506066 67.359576 
L 206.137495 66.558517 
L 207.768925 68.961695 
L 209.400355 73.768053 
L 211.031785 71.364874 
L 212.663215 74.569113 
L 214.294645 56.144742 
L 217.557505 67.359576 
L 219.188934 65.757457 
L 220.820364 65.757457 
L 222.451794 63.354278 
L 224.083224 56.945801 
L 227.346084 58.547921 
L 228.977514 52.139444 
L 230.608944 47.333086 
L 232.240373 44.128848 
L 233.871803 42.526728 
L 235.503233 58.547921 
L 237.134663 62.553219 
L 238.766093 57.746861 
L 240.397523 79.37547 
L 242.028953 57.746861 
L 243.660383 72.966993 
L 245.291812 71.364874 
L 248.554672 63.354278 
L 250.186102 60.15004 
L 251.817532 54.542623 
L 253.448962 58.547921 
L 255.080392 53.741563 
L 256.711822 41.725669 
L 258.343251 43.327788 
L 259.974681 36.919311 
L 261.606111 44.929907 
L 263.237541 56.945801 
L 264.868971 62.553219 
L 266.500401 68.961695 
L 268.131831 67.359576 
L 269.763261 57.746861 
L 271.39469 56.144742 
L 273.02612 63.354278 
L 274.65755 59.34898 
L 276.28898 66.558517 
L 277.92041 72.966993 
L 279.55184 60.951099 
L 281.18327 65.757457 
L 282.8147 60.951099 
L 284.44613 64.155338 
L 286.077559 60.951099 
L 287.708989 64.155338 
L 289.340419 63.354278 
L 290.971849 72.966993 
L 292.603279 64.956397 
L 294.234709 64.956397 
L 295.866139 60.15004 
L 297.497569 45.730967 
L 299.128998 55.343682 
L 300.760428 63.354278 
L 302.391858 62.553219 
L 304.023288 51.338384 
L 305.654718 49.736265 
L 307.286148 52.940503 
L 308.917578 53.741563 
L 310.549008 56.144742 
L 312.180437 62.553219 
L 313.811867 72.966993 
L 315.443297 72.165934 
L 317.074727 67.359576 
L 318.706157 73.768053 
L 320.337587 63.354278 
L 321.969017 57.746861 
L 323.600447 57.746861 
L 325.231876 71.364874 
L 326.863306 62.553219 
L 328.494736 59.34898 
L 330.126166 76.972291 
L 331.757596 82.579709 
L 333.389026 71.364874 
L 335.020456 68.160636 
L 336.651886 67.359576 
L 338.283315 65.757457 
L 339.914745 69.762755 
L 341.546175 72.966993 
L 343.177605 72.966993 
L 344.809035 64.956397 
L 346.440465 66.558517 
L 348.071895 65.757457 
L 349.703325 60.15004 
L 351.334754 67.359576 
L 352.966184 68.961695 
L 354.597614 60.15004 
L 356.229044 71.364874 
L 357.860474 69.762755 
L 359.491904 78.574411 
L 361.123334 76.171232 
L 362.754764 67.359576 
L 364.386193 68.160636 
L 366.017623 62.553219 
L 367.649053 69.762755 
L 369.280483 59.34898 
L 370.911913 59.34898 
L 372.543343 66.558517 
L 374.174773 74.569113 
L 374.174773 74.569113 
" clip-path="url(#p25c670540f)" style="fill: none; stroke: #1f77b4; stroke-width: 1.5; stroke-linecap: square"/>
   </g>
   <g id="line2d_18">
    <path d="M 49.520227 261.216 
L 51.151657 250.802225 
L 52.783087 228.372556 
L 54.414517 183.513219 
L 56.045947 159.48143 
L 57.677377 143.460238 
L 59.308807 133.847523 
L 60.940236 114.622093 
L 62.571666 98.600901 
L 64.203096 96.998781 
L 65.834526 91.391364 
L 67.465956 76.972291 
L 69.097386 56.945801 
L 70.728816 55.343682 
L 72.360246 61.752159 
L 73.991675 60.951099 
L 75.623105 61.752159 
L 77.254535 54.542623 
L 78.885965 56.144742 
L 80.517395 46.532026 
L 82.148825 36.118252 
L 83.780255 54.542623 
L 85.411685 61.752159 
L 87.043114 58.547921 
L 88.674544 56.144742 
L 90.305974 66.558517 
L 91.937404 63.354278 
L 93.568834 69.762755 
L 95.200264 70.563815 
L 96.831694 66.558517 
L 98.463124 74.569113 
L 100.094553 71.364874 
L 101.725983 71.364874 
L 103.357413 64.956397 
L 104.988843 60.15004 
L 106.620273 54.542623 
L 108.251703 46.532026 
L 109.883133 64.956397 
L 111.514563 65.757457 
L 113.145992 64.155338 
L 114.777422 43.327788 
L 116.408852 41.725669 
L 118.040282 39.32249 
L 119.671712 52.940503 
L 121.303142 57.746861 
L 122.934572 50.537325 
L 124.566002 52.940503 
L 126.197431 70.563815 
L 127.828861 52.940503 
L 129.460291 43.327788 
L 131.091721 48.134146 
L 132.723151 53.741563 
L 134.354581 36.919311 
L 135.986011 58.547921 
L 137.617441 52.940503 
L 139.24887 72.165934 
L 140.8803 74.569113 
L 142.51173 61.752159 
L 144.14316 64.956397 
L 145.77459 53.741563 
L 147.40602 65.757457 
L 150.66888 52.940503 
L 152.30031 70.563815 
L 153.931739 50.537325 
L 155.563169 57.746861 
L 157.194599 56.144742 
L 158.826029 59.34898 
L 160.457459 52.940503 
L 162.088889 49.736265 
L 163.720319 48.935205 
L 165.351749 65.757457 
L 166.983178 72.966993 
L 168.614608 66.558517 
L 170.246038 81.778649 
L 171.877468 78.574411 
L 173.508898 83.380768 
L 175.140328 84.181828 
L 176.771758 66.558517 
L 178.403188 67.359576 
L 180.034617 55.343682 
L 181.666047 51.338384 
L 183.297477 43.327788 
L 184.928907 54.542623 
L 186.560337 67.359576 
L 188.191767 48.134146 
L 189.823197 44.929907 
L 191.454627 51.338384 
L 193.086056 52.940503 
L 194.717486 62.553219 
L 196.348916 58.547921 
L 197.980346 63.354278 
L 199.611776 70.563815 
L 201.243206 35.317192 
L 202.874636 51.338384 
L 204.506066 41.725669 
L 206.137495 42.526728 
L 207.768925 49.736265 
L 209.400355 62.553219 
L 211.031785 68.961695 
L 212.663215 72.165934 
L 214.294645 76.972291 
L 215.926075 62.553219 
L 217.557505 52.139444 
L 219.188934 63.354278 
L 220.820364 58.547921 
L 222.451794 63.354278 
L 224.083224 72.165934 
L 225.714654 63.354278 
L 227.346084 50.537325 
L 228.977514 53.741563 
L 230.608944 51.338384 
L 232.240373 54.542623 
L 233.871803 61.752159 
L 235.503233 51.338384 
L 237.134663 38.52143 
L 238.766093 47.333086 
L 240.397523 19.296 
L 242.028953 60.15004 
L 243.660383 53.741563 
L 245.291812 40.12355 
L 246.923242 46.532026 
L 248.554672 60.15004 
L 250.186102 67.359576 
L 251.817532 71.364874 
L 253.448962 65.757457 
L 255.080392 86.585007 
L 256.711822 88.187126 
L 258.343251 81.778649 
L 259.974681 87.386066 
L 261.606111 72.165934 
L 263.237541 54.542623 
L 264.868971 52.139444 
L 266.500401 54.542623 
L 268.131831 52.940503 
L 269.763261 62.553219 
L 271.39469 56.144742 
L 273.02612 56.144742 
L 274.65755 65.757457 
L 276.28898 57.746861 
L 277.92041 52.139444 
L 279.55184 60.15004 
L 281.18327 48.134146 
L 282.8147 64.155338 
L 284.44613 62.553219 
L 286.077559 76.171232 
L 287.708989 85.783947 
L 289.340419 78.574411 
L 290.971849 68.961695 
L 292.603279 76.972291 
L 294.234709 68.961695 
L 295.866139 76.972291 
L 297.497569 77.773351 
L 299.128998 67.359576 
L 300.760428 50.537325 
L 302.391858 49.736265 
L 304.023288 56.144742 
L 305.654718 63.354278 
L 307.286148 60.951099 
L 308.917578 65.757457 
L 310.549008 68.160636 
L 312.180437 72.165934 
L 313.811867 59.34898 
L 315.443297 71.364874 
L 317.074727 70.563815 
L 318.706157 81.778649 
L 320.337587 87.386066 
L 321.969017 80.17653 
L 323.600447 71.364874 
L 325.231876 55.343682 
L 326.863306 60.15004 
L 328.494736 61.752159 
L 330.126166 48.935205 
L 331.757596 40.12355 
L 333.389026 60.951099 
L 335.020456 59.34898 
L 336.651886 60.15004 
L 338.283315 67.359576 
L 339.914745 60.15004 
L 341.546175 62.553219 
L 343.177605 57.746861 
L 346.440465 60.951099 
L 348.071895 61.752159 
L 349.703325 60.15004 
L 351.334754 48.935205 
L 352.966184 48.935205 
L 354.597614 52.940503 
L 356.229044 48.134146 
L 357.860474 51.338384 
L 359.491904 60.15004 
L 361.123334 66.558517 
L 362.754764 74.569113 
L 364.386193 62.553219 
L 366.017623 77.773351 
L 367.649053 75.370172 
L 369.280483 78.574411 
L 370.911913 76.171232 
L 372.543343 67.359576 
L 374.174773 56.144742 
L 374.174773 56.144742 
" clip-path="url(#p25c670540f)" style="fill: none; stroke: #ff7f0e; stroke-width: 1.5; stroke-linecap: square"/>
   </g>
   <g id="patch_3">
    <path d="M 33.2875 273.312 
L 33.2875 7.2 
" style="fill: none; stroke: #000000; stroke-width: 0.8; stroke-linejoin: miter; stroke-linecap: square"/>
   </g>
   <g id="patch_4">
    <path d="M 390.4075 273.312 
L 390.4075 7.2 
" style="fill: none; stroke: #000000; stroke-width: 0.8; stroke-linejoin: miter; stroke-linecap: square"/>
   </g>
   <g id="patch_5">
    <path d="M 33.2875 273.312 
L 390.4075 273.312 
" style="fill: none; stroke: #000000; stroke-width: 0.8; stroke-linejoin: miter; stroke-linecap: square"/>
   </g>
   <g id="patch_6">
    <path d="M 33.2875 7.2 
L 390.4075 7.2 
" style="fill: none; stroke: #000000; stroke-width: 0.8; stroke-linejoin: miter; stroke-linecap: square"/>
   </g>
  </g>
 </g>
 <defs>
  <clipPath id="p25c670540f">
   <rect x="33.2875" y="7.2" width="357.12" height="266.112"/>
  </clipPath>
 </defs>
</svg>
