<?xml version="1.0" encoding="utf-8" standalone="no"?>
<!DOCTYPE svg PUBLIC "-//W3C//DTD SVG 1.1//EN"
  "http://www.w3.org/Graphics/SVG/1.1/DTD/svg11.dtd">
<svg xmlns:xlink="http://www.w3.org/1999/xlink" width="397.6075pt" height="297.190125pt" viewBox="0 0 397.6075 297.190125" xmlns="http://www.w3.org/2000/svg" version="1.1">
 <metadata>
  <rdf:RDF xmlns:dc="http://purl.org/dc/elements/1.1/" xmlns:cc="http://creativecommons.org/ns#" xmlns:rdf="http://www.w3.org/1999/02/22-rdf-syntax-ns#">
   <cc:Work>
    <dc:type rdf:resource="http://purl.org/dc/dcmitype/StillImage"/>
    <dc:date>2026-05-25T23:49:04.105901</dc:date>
    <dc:format>image/svg+xml</dc:format>
    <dc:creator>
     <cc:Agent>
      <dc:title>Matplotlib v3.10.9, https://matplotlib.org/</dc:title>
     </cc:Agent>
    </dc:creator>
   </cc:Work>
  </rdf:RDF>
 </metadata>
 <defs>
  <style type="text/css">*{stroke-linejoin: round; stroke-linecap: butt}</style>
 </defs>
 <g id="figure_1">
  <g id="patch_1">
   <path d="M 0 297.190125 
L 397.6075 297.190125 
L 397.6075 0 
L 0 0 
z
" style="fill: #ffffff"/>
  </g>
  <g id="axes_1">
   <g id="patch_2">
    <path d="M 33.2875 273.312 
L 390.4075 273.312 
L 390.4075 7.2 
L 33.2875 7.2 
z
" style="fill: #ffffff"/>
   </g>
   <g id="matplotlib.axis_1">
    <g id="xtick_1">
     <g id="line2d_1">
      <defs>
       <path id="m4af9024a90" d="M 0 0 
L 0 3.5 
" style="stroke: #000000; stroke-width: 0.8"/>
      </defs>
      <g>
       <use xlink:href="#m4af9024a90" x="49.520227" y="273.312" style="stroke: #000000; stroke-width: 0.8"/>
      </g>
     </g>
     <g id="text_1">
      <!-- 0.0 -->
      <g transform="translate(41.568665 287.910437) scale(0.1 -0.1)">
       <defs>
        <path id="DejaVuSans-30" d="M 2034 4250 
Q 1547 4250 1301 3770 
Q 1056 3291 1056 2328 
Q 1056 1369 1301 889 
Q 1547 409 2034 409 
Q 2525 409 2770 889 
Q 3016 1369 3016 2328 
Q 3016 3291 2770 3770 
Q 2525 4250 2034 4250 
z
M 2034 4750 
Q 2819 4750 3233 4129 
Q 3647 3509 3647 2328 
Q 3647 1150 3233 529 
Q 2819 -91 2034 -91 
Q 1250 -91 836 529 
Q 422 1150 422 2328 
Q 422 3509 836 4129 
Q 1250 4750 2034 4750 
z
" transform="scale(0.015625)"/>
        <path id="DejaVuSans-2e" d="M 684 794 
L 1344 794 
L 1344 0 
L 684 0 
L 684 794 
z
" transform="scale(0.015625)"/>
       </defs>
       <use xlink:href="#DejaVuSans-30"/>
       <use xlink:href="#DejaVuSans-2e" transform="translate(63.623047 0)"/>
       <use xlink:href="#DejaVuSans-30" transform="translate(95.410156 0)"/>
      </g>
     </g>
    </g>
    <g id="xtick_2">
     <g id="line2d_2">
      <g>
       <use xlink:href="#m4af9024a90" x="90.305974" y="273.312" style="stroke: #000000; stroke-width: 0.8"/>
      </g>
     </g>
     <g id="text_2">
      <!-- 2.5 -->
      <g transform="translate(82.354412 287.910437) scale(0.1 -0.1)">
       <defs>
        <path id="DejaVuSans-32" d="M 1228 531 
L 3431 531 
L 3431 0 
L 469 0 
L 469 531 
Q 828 903 1448 1529 
Q 2069 2156 2228 2338 
Q 2531 2678 2651 2914 
Q 2772 3150 2772 3378 
Q 2772 3750 2511 3984 
Q 2250 4219 1831 4219 
Q 1534 4219 1204 4116 
Q 875 4013 500 3803 
L 500 4441 
Q 881 4594 1212 4672 
Q 1544 4750 1819 4750 
Q 2544 4750 2975 4387 
Q 3406 4025 3406 3419 
Q 3406 3131 3298 2873 
Q 3191 2616 2906 2266 
Q 2828 2175 2409 1742 
Q 1991 1309 1228 531 
z
" transform="scale(0.015625)"/>
        <path id="DejaVuSans-35" d="M 691 4666 
L 3169 4666 
L 3169 4134 
L 1269 4134 
L 1269 2991 
Q 1406 3038 1543 3061 
Q 1681 3084 1819 3084 
Q 2600 3084 3056 2656 
Q 3513 2228 3513 1497 
Q 3513 744 3044 326 
Q 2575 -91 1722 -91 
Q 1428 -91 1123 -41 
Q 819 9 494 109 
L 494 744 
Q 775 591 1075 516 
Q 1375 441 1709 441 
Q 2250 441 2565 725 
Q 2881 1009 2881 1497 
Q 2881 1984 2565 2268 
Q 2250 2553 1709 2553 
Q 1456 2553 1204 2497 
Q 953 2441 691 2322 
L 691 4666 
z
" transform="scale(0.015625)"/>
       </defs>
       <use xlink:href="#DejaVuSans-32"/>
       <use xlink:href="#DejaVuSans-2e" transform="translate(63.623047 0)"/>
       <use xlink:href="#DejaVuSans-35" transform="translate(95.410156 0)"/>
      </g>
     </g>
    </g>
    <g id="xtick_3">
     <g id="line2d_3">
      <g>
       <use xlink:href="#m4af9024a90" x="131.091721" y="273.312" style="stroke: #000000; stroke-width: 0.8"/>
      </g>
     </g>
     <g id="text_3">
      <!-- 5.0 -->
      <g transform="translate(123.140159 287.910437) scale(0.1 -0.1)">
       <use xlink:href="#DejaVuSans-35"/>
       <use xlink:href="#DejaVuSans-2e" transform="translate(63.623047 0)"/>
       <use xlink:href="#DejaVuSans-30" transform="translate(95.410156 0)"/>
      </g>
     </g>
    </g>
    <g id="xtick_4">
     <g id="line2d_4">
      <g>
       <use xlink:href="#m4af9024a90" x="171.877468" y="273.312" style="stroke: #000000; stroke-width: 0.8"/>
      </g>
     </g>
     <g id="text_4">
      <!-- 7.5 -->
      <g transform="translate(163.925906 287.910437) scale(0.1 -0.1)">
       <defs>
        <path id="DejaVuSans-37" d="M 525 4666 
L 3525 4666 
L 3525 4397 
L 1831 0 
L 1172 0 
L 2766 4134 
L 525 4134 
L 525 4666 
z
" transform="scale(0.015625)"/>
       </defs>
       <use xlink:href="#DejaVuSans-37"/>
       <use xlink:href="#DejaVuSans-2e" transform="translate(63.623047 0)"/>
       <use xlink:href="#DejaVuSans-35" transform="translate(95.410156 0)"/>
      </g>
     </g>
    </g>
    <g id="xtick_5">
     <g id="line2d_5">
      <g>
       <use xlink:href="#m4af9024a90" x="212.663215" y="273.312" style="stroke: #000000; stroke-width: 0.8"/>
      </g>
     </g>
     <g id="text_5">
      <!-- 10.0 -->
      <g transform="translate(201.530402 287.910437) scale(0.1 -0.1)">
       <defs>
        <path id="DejaVuSans-31" d="M 794 531 
L 1825 531 
L 1825 4091 
L 703 3866 
L 703 4441 
L 1819 4666 
L 2450 4666 
L 2450 531 
L 3481 531 
L 3481 0 
L 794 0 
L 794 531 
z
" transform="scale(0.015625)"/>
       </defs>
       <use xlink:href="#DejaVuSans-31"/>
       <use xlink:href="#DejaVuSans-30" transform="translate(63.623047 0)"/>
       <use xlink:href="#DejaVuSans-2e" transform="translate(127.246094 0)"/>
       <use xlink:href="#DejaVuSans-30" transform="translate(159.033203 0)"/>
      </g>
     </g>
    </g>
    <g id="xtick_6">
     <g id="line2d_6">
      <g>
       <use xlink:href="#m4af9024a90" x="253.448962" y="273.312" style="stroke: #000000; stroke-width: 0.8"/>
      </g>
     </g>
     <g id="text_6">
      <!-- 12.5 -->
      <g transform="translate(242.316149 287.910437) scale(0.1 -0.1)">
       <use xlink:href="#DejaVuSans-31"/>
       <use xlink:href="#DejaVuSans-32" transform="translate(63.623047 0)"/>
       <use xlink:href="#DejaVuSans-2e" transform="translate(127.246094 0)"/>
       <use xlink:href="#DejaVuSans-35" transform="translate(159.033203 0)"/>
      </g>
     </g>
    </g>
    <g id="xtick_7">
     <g id="line2d_7">
      <g>
       <use xlink:href="#m4af9024a90" x="294.234709" y="273.312" style="stroke: #000000; stroke-width: 0.8"/>
      </g>
     </g>
     <g id="text_7">
      <!-- 15.0 -->
      <g transform="translate(283.101896 287.910437) scale(0.1 -0.1)">
       <use xlink:href="#DejaVuSans-31"/>
       <use xlink:href="#DejaVuSans-35" transform="translate(63.623047 0)"/>
       <use xlink:href="#DejaVuSans-2e" transform="translate(127.246094 0)"/>
       <use xlink:href="#DejaVuSans-30" transform="translate(159.033203 0)"/>
      </g>
     </g>
    </g>
    <g id="xtick_8">
     <g id="line2d_8">
      <g>
       <use xlink:href="#m4af9024a90" x="335.020456" y="273.312" style="stroke: #000000; stroke-width: 0.8"/>
      </g>
     </g>
     <g id="text_8">
      <!-- 17.5 -->
      <g transform="translate(323.887643 287.910437) scale(0.1 -0.1)">
       <use xlink:href="#DejaVuSans-31"/>
       <use xlink:href="#DejaVuSans-37" transform="translate(63.623047 0)"/>
       <use xlink:href="#DejaVuSans-2e" transform="translate(127.246094 0)"/>
       <use xlink:href="#DejaVuSans-35" transform="translate(159.033203 0)"/>
      </g>
     </g>
    </g>
    <g id="xtick_9">
     <g id="line2d_9">
      <g>
       <use xlink:href="#m4af9024a90" x="375.806203" y="273.312" style="stroke: #000000; stroke-width: 0.8"/>
      </g>
     </g>
     <g id="text_9">
      <!-- 20.0 -->
      <g transform="translate(364.67339 287.910437) scale(0.1 -0.1)">
       <use xlink:href="#DejaVuSans-32"/>
       <use xlink:href="#DejaVuSans-30" transform="translate(63.623047 0)"/>
       <use xlink:href="#DejaVuSans-2e" transform="translate(127.246094 0)"/>
       <use xlink:href="#DejaVuSans-30" transform="translate(159.033203 0)"/>
      </g>
     </g>
    </g>
   </g>
   <g id="matplotlib.axis_2">
    <g id="ytick_1">
     <g id="line2d_10">
      <defs>
       <path id="m009a23f9e5" d="M 0 0 
L -3.5 0 
" style="stroke: #000000; stroke-width: 0.8"/>
      </defs>
      <g>
       <use xlink:href="#m009a23f9e5" x="33.2875" y="261.216" style="stroke: #000000; stroke-width: 0.8"/>
      </g>
     </g>
     <g id="text_10">
      <!-- 0 -->
      <g transform="translate(19.925 265.015219) scale(0.1 -0.1)">
       <use xlink:href="#DejaVuSans-30"/>
      </g>
     </g>
    </g>
    <g id="ytick_2">
     <g id="line2d_11">
      <g>
       <use xlink:href="#m009a23f9e5" x="33.2875" y="220.21261" style="stroke: #000000; stroke-width: 0.8"/>
      </g>
     </g>
     <g id="text_11">
      <!-- 50 -->
      <g transform="translate(13.5625 224.011829) scale(0.1 -0.1)">
       <use xlink:href="#DejaVuSans-35"/>
       <use xlink:href="#DejaVuSans-30" transform="translate(63.623047 0)"/>
      </g>
     </g>
    </g>
    <g id="ytick_3">
     <g id="line2d_12">
      <g>
       <use xlink:href="#m009a23f9e5" x="33.2875" y="179.20922" style="stroke: #000000; stroke-width: 0.8"/>
      </g>
     </g>
     <g id="text_12">
      <!-- 100 -->
      <g transform="translate(7.2 183.008439) scale(0.1 -0.1)">
       <use xlink:href="#DejaVuSans-31"/>
       <use xlink:href="#DejaVuSans-30" transform="translate(63.623047 0)"/>
       <use xlink:href="#DejaVuSans-30" transform="translate(127.246094 0)"/>
      </g>
     </g>
    </g>
    <g id="ytick_4">
     <g id="line2d_13">
      <g>
       <use xlink:href="#m009a23f9e5" x="33.2875" y="138.205831" style="stroke: #000000; stroke-width: 0.8"/>
      </g>
     </g>
     <g id="text_13">
      <!-- 150 -->
      <g transform="translate(7.2 142.005049) scale(0.1 -0.1)">
       <use xlink:href="#DejaVuSans-31"/>
       <use xlink:href="#DejaVuSans-35" transform="translate(63.623047 0)"/>
       <use xlink:href="#DejaVuSans-30" transform="translate(127.246094 0)"/>
      </g>
     </g>
    </g>
    <g id="ytick_5">
     <g id="line2d_14">
      <g>
       <use xlink:href="#m009a23f9e5" x="33.2875" y="97.202441" style="stroke: #000000; stroke-width: 0.8"/>
      </g>
     </g>
     <g id="text_14">
      <!-- 200 -->
      <g transform="translate(7.2 101.001659) scale(0.1 -0.1)">
       <use xlink:href="#DejaVuSans-32"/>
       <use xlink:href="#DejaVuSans-30" transform="translate(63.623047 0)"/>
       <use xlink:href="#DejaVuSans-30" transform="translate(127.246094 0)"/>
      </g>
     </g>
    </g>
    <g id="ytick_6">
     <g id="line2d_15">
      <g>
       <use xlink:href="#m009a23f9e5" x="33.2875" y="56.199051" style="stroke: #000000; stroke-width: 0.8"/>
      </g>
     </g>
     <g id="text_15">
      <!-- 250 -->
      <g transform="translate(7.2 59.99827) scale(0.1 -0.1)">
       <use xlink:href="#DejaVuSans-32"/>
       <use xlink:href="#DejaVuSans-35" transform="translate(63.623047 0)"/>
       <use xlink:href="#DejaVuSans-30" transform="translate(127.246094 0)"/>
      </g>
     </g>
    </g>
    <g id="ytick_7">
     <g id="line2d_16">
      <g>
       <use xlink:href="#m009a23f9e5" x="33.2875" y="15.195661" style="stroke: #000000; stroke-width: 0.8"/>
      </g>
     </g>
     <g id="text_16">
      <!-- 300 -->
      <g transform="translate(7.2 18.99488) scale(0.1 -0.1)">
       <defs>
        <path id="DejaVuSans-33" d="M 2597 2516 
Q 3050 2419 3304 2112 
Q 3559 1806 3559 1356 
Q 3559 666 3084 287 
Q 2609 -91 1734 -91 
Q 1441 -91 1130 -33 
Q 819 25 488 141 
L 488 750 
Q 750 597 1062 519 
Q 1375 441 1716 441 
Q 2309 441 2620 675 
Q 2931 909 2931 1356 
Q 2931 1769 2642 2001 
Q 2353 2234 1838 2234 
L 1294 2234 
L 1294 2753 
L 1863 2753 
Q 2328 2753 2575 2939 
Q 2822 3125 2822 3475 
Q 2822 3834 2567 4026 
Q 2313 4219 1838 4219 
Q 1578 4219 1281 4162 
Q 984 4106 628 3988 
L 628 4550 
Q 988 4650 1302 4700 
Q 1616 4750 1894 4750 
Q 2613 4750 3031 4423 
Q 3450 4097 3450 3541 
Q 3450 3153 3228 2886 
Q 3006 2619 2597 2516 
z
" transform="scale(0.015625)"/>
       </defs>
       <use xlink:href="#DejaVuSans-33"/>
       <use xlink:href="#DejaVuSans-30" transform="translate(63.623047 0)"/>
       <use xlink:href="#DejaVuSans-30" transform="translate(127.246094 0)"/>
      </g>
     </g>
    </g>
   </g>
   <g id="line2d_17">
    <path d="M 49.520227 261.216 
L 53.598802 56.199051 
L 57.677377 56.199051 
L 61.755951 56.199051 
L 65.834526 56.199051 
L 69.913101 56.199051 
L 73.991675 56.199051 
L 78.07025 56.199051 
L 82.148825 56.199051 
L 86.227399 56.199051 
L 90.305974 56.199051 
L 94.384549 56.199051 
L 98.463124 56.199051 
L 102.541698 56.199051 
L 106.620273 56.199051 
L 110.698848 56.199051 
L 114.777422 56.199051 
L 118.855997 56.199051 
L 122.934572 56.199051 
L 127.013146 56.199051 
L 131.091721 56.199051 
L 135.170296 56.199051 
L 139.24887 56.199051 
L 143.327445 56.199051 
L 147.40602 56.199051 
L 151.484595 56.199051 
L 155.563169 56.199051 
L 159.641744 56.199051 
L 163.720319 56.199051 
L 167.798893 56.199051 
L 171.877468 56.199051 
L 175.956043 56.199051 
L 180.034617 56.199051 
L 184.113192 56.199051 
L 188.191767 56.199051 
L 192.270341 56.199051 
L 196.348916 56.199051 
L 200.427491 56.199051 
L 204.506066 56.199051 
L 208.58464 56.199051 
L 212.663215 56.199051 
L 216.74179 56.199051 
L 220.820364 56.199051 
L 224.898939 56.199051 
L 228.977514 56.199051 
L 233.056088 56.199051 
L 237.134663 56.199051 
L 241.213238 56.199051 
L 245.291812 56.199051 
L 249.370387 56.199051 
L 253.448962 56.199051 
L 257.527537 56.199051 
L 261.606111 56.199051 
L 265.684686 56.199051 
L 269.763261 56.199051 
L 273.841835 56.199051 
L 277.92041 56.199051 
L 281.998985 56.199051 
L 286.077559 56.199051 
L 290.156134 56.199051 
L 294.234709 56.199051 
L 298.313283 56.199051 
L 302.391858 56.199051 
L 306.470433 56.199051 
L 310.549008 56.199051 
L 314.627582 56.199051 
L 318.706157 56.199051 
L 322.784732 56.199051 
L 326.863306 56.199051 
L 330.941881 56.199051 
L 335.020456 56.199051 
L 339.09903 56.199051 
L 343.177605 56.199051 
L 347.25618 56.199051 
L 351.334754 56.199051 
L 355.413329 56.199051 
L 359.491904 56.199051 
L 363.570479 56.199051 
L 367.649053 56.199051 
L 371.727628 56.199051 
" clip-path="url(#p7f58961200)" style="fill: none; stroke: #1f77b4; stroke-width: 1.5; stroke-linecap: square"/>
   </g>
   <g id="line2d_18">
    <path d="M 49.520227 261.216 
L 53.598802 261.216 
L 57.677377 56.199051 
L 61.755951 56.199051 
L 65.834526 56.199051 
L 69.913101 56.199051 
L 73.991675 56.199051 
L 78.07025 56.199051 
L 82.148825 56.199051 
L 86.227399 56.199051 
L 90.305974 56.199051 
L 94.384549 56.199051 
L 98.463124 56.199051 
L 102.541698 56.199051 
L 106.620273 56.199051 
L 110.698848 56.199051 
L 114.777422 56.199051 
L 118.855997 56.199051 
L 122.934572 56.199051 
L 127.013146 56.199051 
L 131.091721 56.199051 
L 135.170296 56.199051 
L 139.24887 56.199051 
L 143.327445 56.199051 
L 147.40602 56.199051 
L 151.484595 56.199051 
L 155.563169 56.199051 
L 159.641744 56.199051 
L 163.720319 56.199051 
L 167.798893 56.199051 
L 171.877468 56.199051 
L 175.956043 56.199051 
L 180.034617 56.199051 
L 184.113192 56.199051 
L 188.191767 56.199051 
L 192.270341 56.199051 
L 196.348916 56.199051 
L 200.427491 56.199051 
L 204.506066 56.199051 
L 208.58464 56.199051 
L 212.663215 56.199051 
L 216.74179 56.199051 
L 220.820364 56.199051 
L 224.898939 56.199051 
L 228.977514 56.199051 
L 233.056088 56.199051 
L 237.134663 56.199051 
L 241.213238 56.199051 
L 245.291812 56.199051 
L 249.370387 56.199051 
L 253.448962 56.199051 
L 257.527537 56.199051 
L 261.606111 56.199051 
L 265.684686 56.199051 
L 269.763261 56.199051 
L 273.841835 56.199051 
L 277.92041 56.199051 
L 281.998985 56.199051 
L 286.077559 56.199051 
L 290.156134 56.199051 
L 294.234709 56.199051 
L 298.313283 56.199051 
L 302.391858 56.199051 
L 306.470433 56.199051 
L 310.549008 56.199051 
L 314.627582 56.199051 
L 318.706157 56.199051 
L 322.784732 56.199051 
L 326.863306 56.199051 
L 330.941881 56.199051 
L 335.020456 56.199051 
L 339.09903 56.199051 
L 343.177605 56.199051 
L 347.25618 56.199051 
L 351.334754 56.199051 
L 355.413329 56.199051 
L 359.491904 56.199051 
L 363.570479 56.199051 
L 367.649053 56.199051 
L 371.727628 56.199051 
" clip-path="url(#p7f58961200)" style="fill: none; stroke: #ff7f0e; stroke-width: 1.5; stroke-linecap: square"/>
   </g>
   <g id="line2d_19">
    <path d="M 49.520227 261.216 
L 51.151657 198.07078 
L 52.783087 150.506847 
L 54.414517 118.524203 
L 56.045947 108.68339 
L 57.677377 84.081356 
L 59.308807 77.520814 
L 60.940236 72.600407 
L 62.571666 72.600407 
L 64.203096 75.880678 
L 65.834526 54.558915 
L 67.465956 47.178305 
L 69.097386 43.077966 
L 70.728816 47.178305 
L 72.360246 47.998373 
L 73.991675 52.91878 
L 75.623105 55.378983 
L 77.254535 68.500068 
L 78.885965 61.939525 
L 80.517395 62.759593 
L 82.148825 52.098712 
L 83.780255 55.378983 
L 85.411685 48.818441 
L 87.043114 47.998373 
L 88.674544 45.538169 
L 90.305974 45.538169 
L 91.937404 55.378983 
L 93.568834 60.29939 
L 95.200264 62.759593 
L 96.831694 57.019119 
L 98.463124 56.199051 
L 100.094553 60.29939 
L 101.725983 54.558915 
L 103.357413 51.278644 
L 104.988843 48.818441 
L 106.620273 43.077966 
L 108.251703 48.818441 
L 109.883133 46.358237 
L 111.514563 38.977627 
L 113.145992 49.638508 
L 114.777422 47.998373 
L 116.408852 59.479322 
L 118.040282 61.939525 
L 119.671712 74.240542 
L 121.303142 70.960271 
L 122.934572 66.859932 
L 124.566002 53.738847 
L 126.197431 49.638508 
L 127.828861 47.998373 
L 129.460291 52.098712 
L 131.091721 52.91878 
L 132.723151 46.358237 
L 134.354581 49.638508 
L 135.986011 59.479322 
L 137.617441 61.939525 
L 139.24887 54.558915 
L 140.8803 64.399729 
L 142.51173 52.91878 
L 144.14316 43.898034 
L 145.77459 53.738847 
L 147.40602 56.199051 
L 149.03745 47.178305 
L 150.66888 47.178305 
L 152.30031 43.077966 
L 153.931739 49.638508 
L 155.563169 55.378983 
L 157.194599 60.29939 
L 158.826029 69.320136 
L 160.457459 61.119458 
L 162.088889 63.579661 
L 163.720319 63.579661 
L 165.351749 57.019119 
L 166.983178 57.019119 
L 168.614608 60.29939 
L 170.246038 52.91878 
L 173.508898 62.759593 
L 175.140328 50.458576 
L 176.771758 56.199051 
L 178.403188 58.659254 
L 180.034617 62.759593 
L 181.666047 56.199051 
L 183.297477 54.558915 
L 184.928907 68.500068 
L 186.560337 57.019119 
L 188.191767 61.119458 
L 189.823197 59.479322 
L 191.454627 58.659254 
L 193.086056 71.780339 
L 194.717486 67.68 
L 196.348916 70.140203 
L 197.980346 75.06061 
L 199.611776 68.500068 
L 201.243206 52.91878 
L 202.874636 61.119458 
L 204.506066 62.759593 
L 206.137495 53.738847 
L 207.768925 54.558915 
L 209.400355 61.939525 
L 211.031785 62.759593 
L 212.663215 55.378983 
L 214.294645 53.738847 
L 215.926075 53.738847 
L 217.557505 52.91878 
L 219.188934 51.278644 
L 220.820364 53.738847 
L 222.451794 57.019119 
L 224.083224 61.939525 
L 225.714654 61.119458 
L 227.346084 53.738847 
L 228.977514 50.458576 
L 230.608944 45.538169 
L 232.240373 54.558915 
L 233.871803 52.91878 
L 235.503233 58.659254 
L 237.134663 56.199051 
L 238.766093 60.29939 
L 240.397523 56.199051 
L 242.028953 56.199051 
L 245.291812 66.039864 
L 246.923242 66.859932 
L 248.554672 56.199051 
L 250.186102 46.358237 
L 251.817532 50.458576 
L 253.448962 63.579661 
L 255.080392 59.479322 
L 256.711822 53.738847 
L 258.343251 56.199051 
L 259.974681 43.077966 
L 261.606111 52.098712 
L 263.237541 60.29939 
L 264.868971 46.358237 
L 266.500401 50.458576 
L 268.131831 47.178305 
L 269.763261 61.119458 
L 271.39469 57.019119 
L 273.02612 49.638508 
L 274.65755 46.358237 
L 276.28898 46.358237 
L 277.92041 48.818441 
L 279.55184 47.178305 
L 281.18327 41.437831 
L 282.8147 45.538169 
L 284.44613 45.538169 
L 286.077559 49.638508 
L 287.708989 47.178305 
L 289.340419 49.638508 
L 290.971849 57.839186 
L 292.603279 57.839186 
L 294.234709 52.098712 
L 295.866139 54.558915 
L 297.497569 52.098712 
L 299.128998 44.718102 
L 300.760428 36.517424 
L 302.391858 38.977627 
L 304.023288 50.458576 
L 305.654718 52.098712 
L 307.286148 69.320136 
L 308.917578 62.759593 
L 310.549008 75.06061 
L 312.180437 66.859932 
L 313.811867 50.458576 
L 315.443297 43.077966 
L 317.074727 47.178305 
L 318.706157 48.818441 
L 320.337587 43.898034 
L 321.969017 43.898034 
L 323.600447 56.199051 
L 325.231876 66.039864 
L 326.863306 73.420475 
L 328.494736 70.960271 
L 330.126166 71.780339 
L 331.757596 68.500068 
L 333.389026 58.659254 
L 335.020456 65.219797 
L 336.651886 66.859932 
L 338.283315 56.199051 
L 339.914745 53.738847 
L 341.546175 47.178305 
L 343.177605 47.998373 
L 344.809035 63.579661 
L 346.440465 60.29939 
L 348.071895 62.759593 
L 349.703325 56.199051 
L 351.334754 52.91878 
L 354.597614 57.839186 
L 356.229044 63.579661 
L 357.860474 57.019119 
L 359.491904 62.759593 
L 361.123334 58.659254 
L 362.754764 56.199051 
L 364.386193 62.759593 
L 366.017623 59.479322 
L 367.649053 59.479322 
L 369.280483 67.68 
L 370.911913 64.399729 
L 372.543343 61.939525 
L 374.174773 61.939525 
L 374.174773 61.939525 
" clip-path="url(#p7f58961200)" style="fill: none; stroke: #2ca02c; stroke-width: 1.5; stroke-linecap: square"/>
   </g>
   <g id="line2d_20">
    <path d="M 49.520227 261.216 
L 51.151657 243.174508 
L 52.783087 221.032678 
L 54.414517 194.790508 
L 56.045947 157.06739 
L 57.677377 154.607186 
L 59.308807 134.105492 
L 60.940236 111.143593 
L 62.571666 85.721492 
L 64.203096 69.320136 
L 65.834526 80.801085 
L 67.465956 70.140203 
L 69.097386 72.600407 
L 70.728816 64.399729 
L 72.360246 71.780339 
L 73.991675 58.659254 
L 75.623105 53.738847 
L 77.254535 47.178305 
L 78.885965 60.29939 
L 80.517395 53.738847 
L 82.148825 52.91878 
L 83.780255 54.558915 
L 85.411685 61.939525 
L 87.043114 62.759593 
L 88.674544 77.520814 
L 90.305974 84.081356 
L 91.937404 62.759593 
L 93.568834 46.358237 
L 95.200264 56.199051 
L 98.463124 54.558915 
L 100.094553 48.818441 
L 101.725983 58.659254 
L 103.357413 63.579661 
L 104.988843 61.939525 
L 108.251703 66.859932 
L 109.883133 61.119458 
L 111.514563 62.759593 
L 113.145992 42.257898 
L 114.777422 46.358237 
L 116.408852 39.797695 
L 118.040282 51.278644 
L 119.671712 29.136814 
L 121.303142 36.517424 
L 122.934572 41.437831 
L 124.566002 42.257898 
L 126.197431 52.098712 
L 127.828861 52.098712 
L 129.460291 63.579661 
L 131.091721 57.839186 
L 132.723151 54.558915 
L 134.354581 56.199051 
L 135.986011 46.358237 
L 137.617441 50.458576 
L 139.24887 59.479322 
L 140.8803 37.337492 
L 142.51173 47.178305 
L 144.14316 59.479322 
L 145.77459 51.278644 
L 147.40602 53.738847 
L 149.03745 67.68 
L 150.66888 70.140203 
L 152.30031 73.420475 
L 153.931739 71.780339 
L 157.194599 66.859932 
L 158.826029 49.638508 
L 160.457459 52.91878 
L 162.088889 49.638508 
L 163.720319 52.098712 
L 165.351749 46.358237 
L 166.983178 58.659254 
L 168.614608 49.638508 
L 170.246038 51.278644 
L 171.877468 42.257898 
L 173.508898 28.316746 
L 175.140328 57.839186 
L 176.771758 34.05722 
L 178.403188 44.718102 
L 180.034617 46.358237 
L 181.666047 54.558915 
L 183.297477 39.797695 
L 184.928907 19.296 
L 186.560337 38.157559 
L 188.191767 40.617763 
L 189.823197 50.458576 
L 191.454627 38.977627 
L 193.086056 47.998373 
L 194.717486 52.91878 
L 196.348916 56.199051 
L 197.980346 50.458576 
L 199.611776 47.998373 
L 201.243206 61.119458 
L 202.874636 42.257898 
L 204.506066 50.458576 
L 206.137495 51.278644 
L 207.768925 49.638508 
L 209.400355 47.178305 
L 211.031785 50.458576 
L 212.663215 55.378983 
L 215.926075 40.617763 
L 217.557505 42.257898 
L 219.188934 47.998373 
L 220.820364 62.759593 
L 222.451794 57.019119 
L 224.083224 43.077966 
L 225.714654 37.337492 
L 227.346084 52.91878 
L 228.977514 53.738847 
L 230.608944 55.378983 
L 232.240373 38.157559 
L 233.871803 39.797695 
L 235.503233 40.617763 
L 237.134663 48.818441 
L 238.766093 54.558915 
L 240.397523 59.479322 
L 242.028953 62.759593 
L 243.660383 57.019119 
L 245.291812 46.358237 
L 246.923242 48.818441 
L 248.554672 57.019119 
L 250.186102 64.399729 
L 251.817532 63.579661 
L 253.448962 47.178305 
L 255.080392 52.098712 
L 256.711822 60.29939 
L 258.343251 48.818441 
L 259.974681 82.44122 
L 261.606111 68.500068 
L 263.237541 59.479322 
L 264.868971 81.621153 
L 266.500401 68.500068 
L 268.131831 62.759593 
L 269.763261 52.91878 
L 271.39469 57.019119 
L 273.02612 58.659254 
L 274.65755 50.458576 
L 276.28898 48.818441 
L 277.92041 44.718102 
L 279.55184 48.818441 
L 281.18327 46.358237 
L 282.8147 70.140203 
L 284.44613 68.500068 
L 286.077559 62.759593 
L 287.708989 61.939525 
L 289.340419 57.019119 
L 290.971849 43.898034 
L 292.603279 51.278644 
L 294.234709 62.759593 
L 295.866139 58.659254 
L 299.128998 55.378983 
L 300.760428 63.579661 
L 302.391858 66.039864 
L 304.023288 61.119458 
L 305.654718 57.019119 
L 307.286148 47.178305 
L 308.917578 52.91878 
L 310.549008 44.718102 
L 312.180437 52.098712 
L 313.811867 68.500068 
L 315.443297 75.880678 
L 317.074727 74.240542 
L 318.706157 64.399729 
L 320.337587 60.29939 
L 321.969017 63.579661 
L 323.600447 53.738847 
L 325.231876 40.617763 
L 326.863306 29.136814 
L 328.494736 43.898034 
L 330.126166 54.558915 
L 331.757596 57.019119 
L 333.389026 52.91878 
L 335.020456 45.538169 
L 336.651886 46.358237 
L 338.283315 47.998373 
L 339.914745 51.278644 
L 341.546175 53.738847 
L 344.809035 48.818441 
L 346.440465 58.659254 
L 348.071895 52.098712 
L 349.703325 57.839186 
L 351.334754 57.019119 
L 352.966184 52.098712 
L 354.597614 52.91878 
L 356.229044 60.29939 
L 357.860474 57.839186 
L 359.491904 61.939525 
L 361.123334 59.479322 
L 362.754764 52.91878 
L 364.386193 36.517424 
L 366.017623 41.437831 
L 367.649053 43.077966 
L 369.280483 31.597017 
L 370.911913 35.697356 
L 372.543343 31.597017 
L 374.174773 42.257898 
L 374.174773 42.257898 
" clip-path="url(#p7f58961200)" style="fill: none; stroke: #d62728; stroke-width: 1.5; stroke-linecap: square"/>
   </g>
   <g id="patch_3">
    <path d="M 33.2875 273.312 
L 33.2875 7.2 
" style="fill: none; stroke: #000000; stroke-width: 0.8; stroke-linejoin: miter; stroke-linecap: square"/>
   </g>
   <g id="patch_4">
    <path d="M 390.4075 273.312 
L 390.4075 7.2 
" style="fill: none; stroke: #000000; stroke-width: 0.8; stroke-linejoin: miter; stroke-linecap: square"/>
   </g>
   <g id="patch_5">
    <path d="M 33.2875 273.312 
L 390.4075 273.312 
" style="fill: none; stroke: #000000; stroke-width: 0.8; stroke-linejoin: miter; stroke-linecap: square"/>
   </g>
   <g id="patch_6">
    <path d="M 33.2875 7.2 
L 390.4075 7.2 
" style="fill: none; stroke: #000000; stroke-width: 0.8; stroke-linejoin: miter; stroke-linecap: square"/>
   </g>
  </g>
 </g>
 <defs>
  <clipPath id="p7f58961200">
   <rect x="33.2875" y="7.2" width="357.12" height="266.112"/>
  </clipPath>
 </defs>
</svg>
