<?xml version="1.0" encoding="utf-8" standalone="no"?>
<!DOCTYPE svg PUBLIC "-//W3C//DTD SVG 1.1//EN"
  "http://www.w3.org/Graphics/SVG/1.1/DTD/svg11.dtd">
<svg xmlns:xlink="http://www.w3.org/1999/xlink" width="403.97pt" height="297.190125pt" viewBox="0 0 403.97 297.190125" xmlns="http://www.w3.org/2000/svg" version="1.1">
 <metadata>
  <rdf:RDF xmlns:dc="http://purl.org/dc/elements/1.1/" xmlns:cc="http://creativecommons.org/ns#" xmlns:rdf="http://www.w3.org/1999/02/22-rdf-syntax-ns#">
   <cc:Work>
    <dc:type rdf:resource="http://purl.org/dc/dcmitype/StillImage"/>
    <dc:date>2026-05-25T12:59:16.444427</dc:date>
    <dc:format>image/svg+xml</dc:format>
    <dc:creator>
     <cc:Agent>
      <dc:title>Matplotlib v3.10.9, https://matplotlib.org/</dc:title>
     </cc:Agent>
    </dc:creator>
   </cc:Work>
  </rdf:RDF>
 </metadata>
 <defs>
  <style type="text/css">*{stroke-linejoin: round; stroke-linecap: butt}</style>
 </defs>
 <g id="figure_1">
  <g id="patch_1">
   <path d="M 0 297.190125 
L 403.97 297.190125 
L 403.97 0 
L 0 0 
z
" style="fill: #ffffff"/>
  </g>
  <g id="axes_1">
   <g id="patch_2">
    <path d="M 39.65 273.312 
L 396.77 273.312 
L 396.77 7.2 
L 39.65 7.2 
z
" style="fill: #ffffff"/>
   </g>
   <g id="matplotlib.axis_1">
    <g id="xtick_1">
     <g id="line2d_1">
      <defs>
       <path id="ma77a8c6d8c" d="M 0 0 
L 0 3.5 
" style="stroke: #000000; stroke-width: 0.8"/>
      </defs>
      <g>
       <use xlink:href="#ma77a8c6d8c" x="55.882727" y="273.312" style="stroke: #000000; stroke-width: 0.8"/>
      </g>
     </g>
     <g id="text_1">
      <!-- 0.0 -->
      <g transform="translate(47.931165 287.910437) scale(0.1 -0.1)">
       <defs>
        <path id="DejaVuSans-30" d="M 2034 4250 
Q 1547 4250 1301 3770 
Q 1056 3291 1056 2328 
Q 1056 1369 1301 889 
Q 1547 409 2034 409 
Q 2525 409 2770 889 
Q 3016 1369 3016 2328 
Q 3016 3291 2770 3770 
Q 2525 4250 2034 4250 
z
M 2034 4750 
Q 2819 4750 3233 4129 
Q 3647 3509 3647 2328 
Q 3647 1150 3233 529 
Q 2819 -91 2034 -91 
Q 1250 -91 836 529 
Q 422 1150 422 2328 
Q 422 3509 836 4129 
Q 1250 4750 2034 4750 
z
" transform="scale(0.015625)"/>
        <path id="DejaVuSans-2e" d="M 684 794 
L 1344 794 
L 1344 0 
L 684 0 
L 684 794 
z
" transform="scale(0.015625)"/>
       </defs>
       <use xlink:href="#DejaVuSans-30"/>
       <use xlink:href="#DejaVuSans-2e" transform="translate(63.623047 0)"/>
       <use xlink:href="#DejaVuSans-30" transform="translate(95.410156 0)"/>
      </g>
     </g>
    </g>
    <g id="xtick_2">
     <g id="line2d_2">
      <g>
       <use xlink:href="#ma77a8c6d8c" x="96.668474" y="273.312" style="stroke: #000000; stroke-width: 0.8"/>
      </g>
     </g>
     <g id="text_2">
      <!-- 2.5 -->
      <g transform="translate(88.716912 287.910437) scale(0.1 -0.1)">
       <defs>
        <path id="DejaVuSans-32" d="M 1228 531 
L 3431 531 
L 3431 0 
L 469 0 
L 469 531 
Q 828 903 1448 1529 
Q 2069 2156 2228 2338 
Q 2531 2678 2651 2914 
Q 2772 3150 2772 3378 
Q 2772 3750 2511 3984 
Q 2250 4219 1831 4219 
Q 1534 4219 1204 4116 
Q 875 4013 500 3803 
L 500 4441 
Q 881 4594 1212 4672 
Q 1544 4750 1819 4750 
Q 2544 4750 2975 4387 
Q 3406 4025 3406 3419 
Q 3406 3131 3298 2873 
Q 3191 2616 2906 2266 
Q 2828 2175 2409 1742 
Q 1991 1309 1228 531 
z
" transform="scale(0.015625)"/>
        <path id="DejaVuSans-35" d="M 691 4666 
L 3169 4666 
L 3169 4134 
L 1269 4134 
L 1269 2991 
Q 1406 3038 1543 3061 
Q 1681 3084 1819 3084 
Q 2600 3084 3056 2656 
Q 3513 2228 3513 1497 
Q 3513 744 3044 326 
Q 2575 -91 1722 -91 
Q 1428 -91 1123 -41 
Q 819 9 494 109 
L 494 744 
Q 775 591 1075 516 
Q 1375 441 1709 441 
Q 2250 441 2565 725 
Q 2881 1009 2881 1497 
Q 2881 1984 2565 2268 
Q 2250 2553 1709 2553 
Q 1456 2553 1204 2497 
Q 953 2441 691 2322 
L 691 4666 
z
" transform="scale(0.015625)"/>
       </defs>
       <use xlink:href="#DejaVuSans-32"/>
       <use xlink:href="#DejaVuSans-2e" transform="translate(63.623047 0)"/>
       <use xlink:href="#DejaVuSans-35" transform="translate(95.410156 0)"/>
      </g>
     </g>
    </g>
    <g id="xtick_3">
     <g id="line2d_3">
      <g>
       <use xlink:href="#ma77a8c6d8c" x="137.454221" y="273.312" style="stroke: #000000; stroke-width: 0.8"/>
      </g>
     </g>
     <g id="text_3">
      <!-- 5.0 -->
      <g transform="translate(129.502659 287.910437) scale(0.1 -0.1)">
       <use xlink:href="#DejaVuSans-35"/>
       <use xlink:href="#DejaVuSans-2e" transform="translate(63.623047 0)"/>
       <use xlink:href="#DejaVuSans-30" transform="translate(95.410156 0)"/>
      </g>
     </g>
    </g>
    <g id="xtick_4">
     <g id="line2d_4">
      <g>
       <use xlink:href="#ma77a8c6d8c" x="178.239968" y="273.312" style="stroke: #000000; stroke-width: 0.8"/>
      </g>
     </g>
     <g id="text_4">
      <!-- 7.5 -->
      <g transform="translate(170.288406 287.910437) scale(0.1 -0.1)">
       <defs>
        <path id="DejaVuSans-37" d="M 525 4666 
L 3525 4666 
L 3525 4397 
L 1831 0 
L 1172 0 
L 2766 4134 
L 525 4134 
L 525 4666 
z
" transform="scale(0.015625)"/>
       </defs>
       <use xlink:href="#DejaVuSans-37"/>
       <use xlink:href="#DejaVuSans-2e" transform="translate(63.623047 0)"/>
       <use xlink:href="#DejaVuSans-35" transform="translate(95.410156 0)"/>
      </g>
     </g>
    </g>
    <g id="xtick_5">
     <g id="line2d_5">
      <g>
       <use xlink:href="#ma77a8c6d8c" x="219.025715" y="273.312" style="stroke: #000000; stroke-width: 0.8"/>
      </g>
     </g>
     <g id="text_5">
      <!-- 10.0 -->
      <g transform="translate(207.892902 287.910437) scale(0.1 -0.1)">
       <defs>
        <path id="DejaVuSans-31" d="M 794 531 
L 1825 531 
L 1825 4091 
L 703 3866 
L 703 4441 
L 1819 4666 
L 2450 4666 
L 2450 531 
L 3481 531 
L 3481 0 
L 794 0 
L 794 531 
z
" transform="scale(0.015625)"/>
       </defs>
       <use xlink:href="#DejaVuSans-31"/>
       <use xlink:href="#DejaVuSans-30" transform="translate(63.623047 0)"/>
       <use xlink:href="#DejaVuSans-2e" transform="translate(127.246094 0)"/>
       <use xlink:href="#DejaVuSans-30" transform="translate(159.033203 0)"/>
      </g>
     </g>
    </g>
    <g id="xtick_6">
     <g id="line2d_6">
      <g>
       <use xlink:href="#ma77a8c6d8c" x="259.811462" y="273.312" style="stroke: #000000; stroke-width: 0.8"/>
      </g>
     </g>
     <g id="text_6">
      <!-- 12.5 -->
      <g transform="translate(248.678649 287.910437) scale(0.1 -0.1)">
       <use xlink:href="#DejaVuSans-31"/>
       <use xlink:href="#DejaVuSans-32" transform="translate(63.623047 0)"/>
       <use xlink:href="#DejaVuSans-2e" transform="translate(127.246094 0)"/>
       <use xlink:href="#DejaVuSans-35" transform="translate(159.033203 0)"/>
      </g>
     </g>
    </g>
    <g id="xtick_7">
     <g id="line2d_7">
      <g>
       <use xlink:href="#ma77a8c6d8c" x="300.597209" y="273.312" style="stroke: #000000; stroke-width: 0.8"/>
      </g>
     </g>
     <g id="text_7">
      <!-- 15.0 -->
      <g transform="translate(289.464396 287.910437) scale(0.1 -0.1)">
       <use xlink:href="#DejaVuSans-31"/>
       <use xlink:href="#DejaVuSans-35" transform="translate(63.623047 0)"/>
       <use xlink:href="#DejaVuSans-2e" transform="translate(127.246094 0)"/>
       <use xlink:href="#DejaVuSans-30" transform="translate(159.033203 0)"/>
      </g>
     </g>
    </g>
    <g id="xtick_8">
     <g id="line2d_8">
      <g>
       <use xlink:href="#ma77a8c6d8c" x="341.382956" y="273.312" style="stroke: #000000; stroke-width: 0.8"/>
      </g>
     </g>
     <g id="text_8">
      <!-- 17.5 -->
      <g transform="translate(330.250143 287.910437) scale(0.1 -0.1)">
       <use xlink:href="#DejaVuSans-31"/>
       <use xlink:href="#DejaVuSans-37" transform="translate(63.623047 0)"/>
       <use xlink:href="#DejaVuSans-2e" transform="translate(127.246094 0)"/>
       <use xlink:href="#DejaVuSans-35" transform="translate(159.033203 0)"/>
      </g>
     </g>
    </g>
    <g id="xtick_9">
     <g id="line2d_9">
      <g>
       <use xlink:href="#ma77a8c6d8c" x="382.168703" y="273.312" style="stroke: #000000; stroke-width: 0.8"/>
      </g>
     </g>
     <g id="text_9">
      <!-- 20.0 -->
      <g transform="translate(371.03589 287.910437) scale(0.1 -0.1)">
       <use xlink:href="#DejaVuSans-32"/>
       <use xlink:href="#DejaVuSans-30" transform="translate(63.623047 0)"/>
       <use xlink:href="#DejaVuSans-2e" transform="translate(127.246094 0)"/>
       <use xlink:href="#DejaVuSans-30" transform="translate(159.033203 0)"/>
      </g>
     </g>
    </g>
   </g>
   <g id="matplotlib.axis_2">
    <g id="ytick_1">
     <g id="line2d_10">
      <defs>
       <path id="md38d63259f" d="M 0 0 
L -3.5 0 
" style="stroke: #000000; stroke-width: 0.8"/>
      </defs>
      <g>
       <use xlink:href="#md38d63259f" x="39.65" y="261.216" style="stroke: #000000; stroke-width: 0.8"/>
      </g>
     </g>
     <g id="text_10">
      <!-- 0 -->
      <g transform="translate(26.2875 265.015219) scale(0.1 -0.1)">
       <use xlink:href="#DejaVuSans-30"/>
      </g>
     </g>
    </g>
    <g id="ytick_2">
     <g id="line2d_11">
      <g>
       <use xlink:href="#md38d63259f" x="39.65" y="226.862876" style="stroke: #000000; stroke-width: 0.8"/>
      </g>
     </g>
     <g id="text_11">
      <!-- 500 -->
      <g transform="translate(13.5625 230.662095) scale(0.1 -0.1)">
       <use xlink:href="#DejaVuSans-35"/>
       <use xlink:href="#DejaVuSans-30" transform="translate(63.623047 0)"/>
       <use xlink:href="#DejaVuSans-30" transform="translate(127.246094 0)"/>
      </g>
     </g>
    </g>
    <g id="ytick_3">
     <g id="line2d_12">
      <g>
       <use xlink:href="#md38d63259f" x="39.65" y="192.509752" style="stroke: #000000; stroke-width: 0.8"/>
      </g>
     </g>
     <g id="text_12">
      <!-- 1000 -->
      <g transform="translate(7.2 196.308971) scale(0.1 -0.1)">
       <use xlink:href="#DejaVuSans-31"/>
       <use xlink:href="#DejaVuSans-30" transform="translate(63.623047 0)"/>
       <use xlink:href="#DejaVuSans-30" transform="translate(127.246094 0)"/>
       <use xlink:href="#DejaVuSans-30" transform="translate(190.869141 0)"/>
      </g>
     </g>
    </g>
    <g id="ytick_4">
     <g id="line2d_13">
      <g>
       <use xlink:href="#md38d63259f" x="39.65" y="158.156628" style="stroke: #000000; stroke-width: 0.8"/>
      </g>
     </g>
     <g id="text_13">
      <!-- 1500 -->
      <g transform="translate(7.2 161.955847) scale(0.1 -0.1)">
       <use xlink:href="#DejaVuSans-31"/>
       <use xlink:href="#DejaVuSans-35" transform="translate(63.623047 0)"/>
       <use xlink:href="#DejaVuSans-30" transform="translate(127.246094 0)"/>
       <use xlink:href="#DejaVuSans-30" transform="translate(190.869141 0)"/>
      </g>
     </g>
    </g>
    <g id="ytick_5">
     <g id="line2d_14">
      <g>
       <use xlink:href="#md38d63259f" x="39.65" y="123.803504" style="stroke: #000000; stroke-width: 0.8"/>
      </g>
     </g>
     <g id="text_14">
      <!-- 2000 -->
      <g transform="translate(7.2 127.602722) scale(0.1 -0.1)">
       <use xlink:href="#DejaVuSans-32"/>
       <use xlink:href="#DejaVuSans-30" transform="translate(63.623047 0)"/>
       <use xlink:href="#DejaVuSans-30" transform="translate(127.246094 0)"/>
       <use xlink:href="#DejaVuSans-30" transform="translate(190.869141 0)"/>
      </g>
     </g>
    </g>
    <g id="ytick_6">
     <g id="line2d_15">
      <g>
       <use xlink:href="#md38d63259f" x="39.65" y="89.45038" style="stroke: #000000; stroke-width: 0.8"/>
      </g>
     </g>
     <g id="text_15">
      <!-- 2500 -->
      <g transform="translate(7.2 93.249598) scale(0.1 -0.1)">
       <use xlink:href="#DejaVuSans-32"/>
       <use xlink:href="#DejaVuSans-35" transform="translate(63.623047 0)"/>
       <use xlink:href="#DejaVuSans-30" transform="translate(127.246094 0)"/>
       <use xlink:href="#DejaVuSans-30" transform="translate(190.869141 0)"/>
      </g>
     </g>
    </g>
    <g id="ytick_7">
     <g id="line2d_16">
      <g>
       <use xlink:href="#md38d63259f" x="39.65" y="55.097256" style="stroke: #000000; stroke-width: 0.8"/>
      </g>
     </g>
     <g id="text_16">
      <!-- 3000 -->
      <g transform="translate(7.2 58.896474) scale(0.1 -0.1)">
       <defs>
        <path id="DejaVuSans-33" d="M 2597 2516 
Q 3050 2419 3304 2112 
Q 3559 1806 3559 1356 
Q 3559 666 3084 287 
Q 2609 -91 1734 -91 
Q 1441 -91 1130 -33 
Q 819 25 488 141 
L 488 750 
Q 750 597 1062 519 
Q 1375 441 1716 441 
Q 2309 441 2620 675 
Q 2931 909 2931 1356 
Q 2931 1769 2642 2001 
Q 2353 2234 1838 2234 
L 1294 2234 
L 1294 2753 
L 1863 2753 
Q 2328 2753 2575 2939 
Q 2822 3125 2822 3475 
Q 2822 3834 2567 4026 
Q 2313 4219 1838 4219 
Q 1578 4219 1281 4162 
Q 984 4106 628 3988 
L 628 4550 
Q 988 4650 1302 4700 
Q 1616 4750 1894 4750 
Q 2613 4750 3031 4423 
Q 3450 4097 3450 3541 
Q 3450 3153 3228 2886 
Q 3006 2619 2597 2516 
z
" transform="scale(0.015625)"/>
       </defs>
       <use xlink:href="#DejaVuSans-33"/>
       <use xlink:href="#DejaVuSans-30" transform="translate(63.623047 0)"/>
       <use xlink:href="#DejaVuSans-30" transform="translate(127.246094 0)"/>
       <use xlink:href="#DejaVuSans-30" transform="translate(190.869141 0)"/>
      </g>
     </g>
    </g>
    <g id="ytick_8">
     <g id="line2d_17">
      <g>
       <use xlink:href="#md38d63259f" x="39.65" y="20.744132" style="stroke: #000000; stroke-width: 0.8"/>
      </g>
     </g>
     <g id="text_17">
      <!-- 3500 -->
      <g transform="translate(7.2 24.54335) scale(0.1 -0.1)">
       <use xlink:href="#DejaVuSans-33"/>
       <use xlink:href="#DejaVuSans-35" transform="translate(63.623047 0)"/>
       <use xlink:href="#DejaVuSans-30" transform="translate(127.246094 0)"/>
       <use xlink:href="#DejaVuSans-30" transform="translate(190.869141 0)"/>
      </g>
     </g>
    </g>
   </g>
   <g id="line2d_18">
    <path d="M 55.882727 261.216 
L 72.197026 192.509752 
L 88.511325 143.281725 
L 104.825624 108.009844 
L 121.139922 82.737541 
L 137.454221 64.629936 
L 153.76852 51.655837 
L 170.082819 42.359895 
L 186.397117 35.699353 
L 202.711416 30.927074 
L 219.025715 27.507736 
L 235.340014 25.057781 
L 251.654312 23.302388 
L 267.968611 22.044649 
L 284.28291 21.143479 
L 300.597209 20.49779 
L 316.911508 20.035155 
L 333.225806 19.703676 
L 349.540105 19.466172 
L 365.854404 19.296 
" clip-path="url(#p5bcfbb4989)" style="fill: none; stroke: #1f77b4; stroke-width: 1.5; stroke-linecap: square"/>
   </g>
   <g id="line2d_19">
    <path d="M 55.882727 261.216 
L 72.197026 261.216 
L 88.511325 238.313917 
L 104.825624 210.146646 
L 121.139922 183.928275 
L 137.454221 162.043662 
L 153.76852 144.772234 
L 170.082819 131.580383 
L 186.397117 121.709039 
L 202.711416 114.420911 
L 219.025715 109.088426 
L 235.340014 105.210949 
L 251.654312 102.4036 
L 267.968611 100.377177 
L 284.28291 98.917564 
L 300.597209 97.867809 
L 316.911508 97.113636 
L 333.225806 96.572231 
L 349.540105 96.183781 
L 365.854404 95.905183 
" clip-path="url(#p5bcfbb4989)" style="fill: none; stroke: #ff7f0e; stroke-width: 1.5; stroke-linecap: square"/>
   </g>
   <g id="line2d_20">
    <path d="M 55.882727 261.216 
L 57.514157 254.757613 
L 59.145587 247.268632 
L 64.039877 228.099588 
L 65.671307 221.366376 
L 68.934166 210.785614 
L 70.565596 204.327227 
L 72.197026 200.617089 
L 73.828456 195.601533 
L 75.459886 189.624089 
L 77.091316 186.807133 
L 78.722746 183.096996 
L 81.985605 176.707315 
L 83.617035 170.592459 
L 85.248465 167.019734 
L 86.879895 163.721834 
L 88.511325 159.324634 
L 90.142755 155.751909 
L 91.774185 153.003659 
L 93.405614 148.949991 
L 95.037044 147.369747 
L 96.668474 144.484084 
L 98.299904 142.560309 
L 99.931334 140.224297 
L 103.194194 133.284966 
L 104.825624 133.353672 
L 106.457053 132.529197 
L 108.088483 130.055772 
L 109.719913 127.925879 
L 111.351343 126.345635 
L 112.982773 122.498085 
L 116.245633 116.795466 
L 117.877063 117.070291 
L 119.508492 115.283929 
L 121.139922 113.085329 
L 122.771352 110.474492 
L 124.402782 110.268373 
L 126.034212 108.413304 
L 127.665642 108.001067 
L 130.928502 105.115404 
L 132.559931 103.329042 
L 134.191361 102.435861 
L 135.822791 101.817504 
L 137.454221 98.588311 
L 140.717081 94.809467 
L 142.348511 94.053698 
L 143.979941 94.603348 
L 145.61137 91.923805 
L 147.2428 91.030623 
L 148.87423 89.106848 
L 150.50566 89.175555 
L 152.13709 87.114367 
L 153.76852 83.610349 
L 155.39995 83.95388 
L 157.03138 81.686574 
L 158.66281 79.762799 
L 160.294239 78.113849 
L 161.925669 77.083255 
L 163.557099 76.877136 
L 165.188529 77.083255 
L 166.819959 76.25878 
L 168.451389 74.953361 
L 170.082819 74.197593 
L 171.714249 71.380636 
L 173.345678 71.998993 
L 174.977108 72.067699 
L 176.608538 71.243224 
L 178.239968 70.899693 
L 179.871398 69.182036 
L 181.502828 68.426268 
L 183.134258 68.769799 
L 184.765688 67.601793 
L 186.397117 68.082736 
L 188.028547 68.082736 
L 189.659977 68.357561 
L 191.291407 67.46438 
L 192.922837 66.777318 
L 194.554267 66.296374 
L 196.185697 64.853543 
L 197.817127 65.471899 
L 199.448556 65.678018 
L 201.079986 64.853543 
L 202.711416 64.303893 
L 204.342846 65.197074 
L 207.605706 65.609312 
L 209.237136 65.059662 
L 210.868566 63.410712 
L 212.499995 63.342005 
L 215.762855 62.723649 
L 217.394285 63.685537 
L 219.025715 62.998474 
L 220.657145 63.891655 
L 222.288575 62.173999 
L 223.920005 62.654943 
L 225.551434 62.380118 
L 227.182864 61.830468 
L 228.814294 62.380118 
L 230.445724 63.479418 
L 232.077154 63.61683 
L 233.708584 63.479418 
L 235.340014 65.059662 
L 236.971444 65.128368 
L 238.602873 64.16648 
L 240.234303 64.029068 
L 241.865733 64.235187 
L 243.497163 62.723649 
L 245.128593 62.173999 
L 246.760023 62.792355 
L 248.391453 63.06718 
L 250.022883 62.723649 
L 251.654312 63.822949 
L 253.285742 63.754243 
L 254.917172 63.891655 
L 256.548602 61.624349 
L 258.180032 61.212112 
L 259.811462 60.525049 
L 261.442892 60.799874 
L 264.705751 59.76928 
L 266.337181 59.357043 
L 267.968611 58.807393 
L 269.600041 57.914212 
L 271.231471 58.601274 
L 272.862901 58.807393 
L 274.494331 57.639387 
L 276.125761 58.051624 
L 277.75719 58.944805 
L 279.38862 58.395156 
L 281.02005 58.257743 
L 282.65148 57.158443 
L 284.28291 57.708093 
L 285.91434 58.601274 
L 287.54577 57.708093 
L 289.1772 57.776799 
L 290.80863 58.257743 
L 292.440059 57.364562 
L 294.071489 56.677499 
L 295.702919 56.952324 
L 297.334349 55.028549 
L 298.965779 55.853024 
L 300.597209 57.501974 
L 302.228639 57.845506 
L 303.860069 56.952324 
L 305.491498 58.807393 
L 307.122928 58.051624 
L 308.754358 58.66998 
L 310.385788 58.532568 
L 312.017218 57.776799 
L 313.648648 58.807393 
L 315.280078 59.288337 
L 316.911508 57.639387 
L 318.542937 55.646906 
L 320.174367 54.959843 
L 321.805797 54.410193 
L 323.437227 53.585718 
L 325.068657 55.028549 
L 326.700087 55.028549 
L 328.331517 54.616312 
L 329.962947 53.791837 
L 331.594376 54.272781 
L 333.225806 55.234668 
L 334.857236 53.448306 
L 336.488666 53.585718 
L 338.120096 54.135368 
L 339.751526 53.860543 
L 343.014386 53.517012 
L 344.645815 52.829949 
L 346.277245 54.135368 
L 347.908675 54.478899 
L 349.540105 55.097256 
L 351.171535 54.410193 
L 352.802965 54.822431 
L 354.434395 53.791837 
L 356.065825 53.379599 
L 357.697254 54.410193 
L 359.328684 54.616312 
L 360.960114 55.028549 
L 362.591544 55.234668 
L 364.222974 53.379599 
L 365.854404 51.318412 
L 367.485834 51.593237 
L 369.117264 52.211593 
L 370.748693 53.242187 
L 372.380123 52.555124 
L 374.011553 52.555124 
L 375.642983 52.898656 
L 377.274413 53.654424 
L 378.905843 54.547606 
L 380.537273 53.997956 
L 380.537273 53.997956 
" clip-path="url(#p5bcfbb4989)" style="fill: none; stroke: #2ca02c; stroke-width: 1.5; stroke-linecap: square"/>
   </g>
   <g id="line2d_21">
    <path d="M 55.882727 261.216 
L 57.514157 261.216 
L 59.145587 260.803763 
L 60.777017 260.1167 
L 64.039877 259.223519 
L 67.302736 256.8188 
L 72.197026 252.833838 
L 73.828456 251.803244 
L 75.459886 250.429119 
L 77.091316 248.0244 
L 78.722746 246.512863 
L 80.354175 244.795207 
L 81.985605 242.871432 
L 83.617035 241.566013 
L 86.879895 238.268113 
L 88.511325 236.344338 
L 90.142755 235.107626 
L 91.774185 232.565495 
L 95.037044 228.511826 
L 96.668474 227.618645 
L 98.299904 226.175813 
L 99.931334 223.702389 
L 101.562764 221.916026 
L 103.194194 219.923545 
L 104.825624 215.938582 
L 106.457053 214.15222 
L 108.088483 212.984214 
L 109.719913 212.159739 
L 111.351343 209.617608 
L 112.982773 209.136664 
L 116.245633 206.388414 
L 117.877063 203.227927 
L 119.508492 202.128627 
L 122.771352 201.51027 
L 124.402782 199.930027 
L 126.034212 199.449083 
L 127.665642 199.242964 
L 129.297072 198.487195 
L 130.928502 198.899433 
L 132.559931 197.937545 
L 134.191361 196.494714 
L 135.822791 193.952583 
L 137.454221 194.364821 
L 139.085651 193.609052 
L 140.717081 192.990696 
L 142.348511 190.929508 
L 143.979941 189.280558 
L 145.61137 189.417971 
L 147.2428 187.562902 
L 150.50566 185.22689 
L 152.13709 182.959583 
L 153.76852 184.745946 
L 155.39995 184.058883 
L 157.03138 184.402415 
L 158.66281 183.921471 
L 160.294239 181.173221 
L 161.925669 180.073921 
L 163.557099 178.356265 
L 165.188529 176.226371 
L 168.451389 175.608015 
L 170.082819 174.989659 
L 171.714249 176.43249 
L 173.345678 174.371302 
L 174.977108 173.821652 
L 176.608538 174.302596 
L 178.239968 174.371302 
L 179.871398 174.302596 
L 181.502828 175.608015 
L 183.134258 176.363784 
L 184.765688 174.920952 
L 186.397117 173.13459 
L 188.028547 172.997177 
L 189.659977 172.516234 
L 191.291407 172.653646 
L 192.922837 172.653646 
L 194.554267 172.859765 
L 196.185697 172.03529 
L 197.817127 172.172702 
L 201.079986 170.867284 
L 202.711416 170.455046 
L 204.342846 168.73739 
L 205.974276 168.599978 
L 209.237136 167.981621 
L 210.868566 168.73739 
L 212.499995 167.569384 
L 214.131425 167.225853 
L 215.762855 167.500678 
L 217.394285 165.98914 
L 219.025715 166.607496 
L 220.657145 164.683721 
L 222.288575 164.408896 
L 223.920005 164.958546 
L 225.551434 167.294559 
L 227.182864 165.920434 
L 228.814294 166.195259 
L 230.445724 165.783021 
L 232.077154 164.477603 
L 235.340014 161.179703 
L 236.971444 161.179703 
L 238.602873 160.698759 
L 240.234303 160.561346 
L 243.497163 160.080403 
L 245.128593 160.973584 
L 246.760023 161.454528 
L 248.391453 161.317115 
L 250.022883 162.485121 
L 253.285742 161.179703 
L 254.917172 161.385821 
L 259.811462 163.996659 
L 263.074322 164.958546 
L 264.705751 164.821134 
L 266.337181 165.783021 
L 267.968611 164.821134 
L 269.600041 164.134071 
L 271.231471 163.103478 
L 272.862901 162.210296 
L 274.494331 162.14159 
L 276.125761 160.630053 
L 277.75719 160.423934 
L 279.38862 160.011696 
L 281.02005 160.423934 
L 282.65148 161.729353 
L 285.91434 160.973584 
L 287.54577 162.14159 
L 289.1772 162.966065 
L 290.80863 161.866765 
L 294.071489 162.210296 
L 295.702919 162.622534 
L 297.334349 163.172184 
L 298.965779 161.59194 
L 300.597209 158.637572 
L 302.228639 159.187222 
L 303.860069 160.49264 
L 305.491498 158.981103 
L 307.122928 159.255928 
L 308.754358 158.774984 
L 310.385788 159.530753 
L 312.017218 160.49264 
L 313.648648 159.118515 
L 315.280078 158.637572 
L 316.911508 159.94299 
L 318.542937 161.660646 
L 320.174367 161.454528 
L 321.805797 162.347709 
L 323.437227 164.477603 
L 326.700087 162.210296 
L 328.331517 163.309596 
L 329.962947 162.966065 
L 333.225806 160.355228 
L 334.857236 159.736872 
L 336.488666 159.805578 
L 338.120096 159.118515 
L 339.751526 159.462047 
L 341.382956 160.561346 
L 343.014386 162.14159 
L 344.645815 162.072884 
L 346.277245 161.248409 
L 347.908675 162.14159 
L 349.540105 161.660646 
L 351.171535 162.622534 
L 352.802965 161.729353 
L 354.434395 162.072884 
L 356.065825 161.660646 
L 357.697254 160.286521 
L 359.328684 160.355228 
L 360.960114 160.149109 
L 362.591544 159.805578 
L 364.222974 162.622534 
L 365.854404 163.721834 
L 367.485834 161.04229 
L 369.117264 161.798059 
L 370.748693 160.836171 
L 372.380123 160.904878 
L 374.011553 160.217815 
L 378.905843 156.370265 
L 380.537273 157.332153 
L 380.537273 157.332153 
" clip-path="url(#p5bcfbb4989)" style="fill: none; stroke: #d62728; stroke-width: 1.5; stroke-linecap: square"/>
   </g>
   <g id="patch_3">
    <path d="M 39.65 273.312 
L 39.65 7.2 
" style="fill: none; stroke: #000000; stroke-width: 0.8; stroke-linejoin: miter; stroke-linecap: square"/>
   </g>
   <g id="patch_4">
    <path d="M 396.77 273.312 
L 396.77 7.2 
" style="fill: none; stroke: #000000; stroke-width: 0.8; stroke-linejoin: miter; stroke-linecap: square"/>
   </g>
   <g id="patch_5">
    <path d="M 39.65 273.312 
L 396.77 273.312 
" style="fill: none; stroke: #000000; stroke-width: 0.8; stroke-linejoin: miter; stroke-linecap: square"/>
   </g>
   <g id="patch_6">
    <path d="M 39.65 7.2 
L 396.77 7.2 
" style="fill: none; stroke: #000000; stroke-width: 0.8; stroke-linejoin: miter; stroke-linecap: square"/>
   </g>
  </g>
 </g>
 <defs>
  <clipPath id="p5bcfbb4989">
   <rect x="39.65" y="7.2" width="357.12" height="266.112"/>
  </clipPath>
 </defs>
</svg>
