<?xml version="1.0" encoding="utf-8" standalone="no"?>
<!DOCTYPE svg PUBLIC "-//W3C//DTD SVG 1.1//EN"
  "http://www.w3.org/Graphics/SVG/1.1/DTD/svg11.dtd">
<svg xmlns:xlink="http://www.w3.org/1999/xlink" width="403.97pt" height="297.190125pt" viewBox="0 0 403.97 297.190125" xmlns="http://www.w3.org/2000/svg" version="1.1">
 <metadata>
  <rdf:RDF xmlns:dc="http://purl.org/dc/elements/1.1/" xmlns:cc="http://creativecommons.org/ns#" xmlns:rdf="http://www.w3.org/1999/02/22-rdf-syntax-ns#">
   <cc:Work>
    <dc:type rdf:resource="http://purl.org/dc/dcmitype/StillImage"/>
    <dc:date>2026-05-26T00:15:18.523012</dc:date>
    <dc:format>image/svg+xml</dc:format>
    <dc:creator>
     <cc:Agent>
      <dc:title>Matplotlib v3.10.9, https://matplotlib.org/</dc:title>
     </cc:Agent>
    </dc:creator>
   </cc:Work>
  </rdf:RDF>
 </metadata>
 <defs>
  <style type="text/css">*{stroke-linejoin: round; stroke-linecap: butt}</style>
 </defs>
 <g id="figure_1">
  <g id="patch_1">
   <path d="M 0 297.190125 
L 403.97 297.190125 
L 403.97 0 
L 0 0 
z
" style="fill: #ffffff"/>
  </g>
  <g id="axes_1">
   <g id="patch_2">
    <path d="M 39.65 273.312 
L 396.77 273.312 
L 396.77 7.2 
L 39.65 7.2 
z
" style="fill: #ffffff"/>
   </g>
   <g id="matplotlib.axis_1">
    <g id="xtick_1">
     <g id="line2d_1">
      <defs>
       <path id="mbf69f98490" d="M 0 0 
L 0 3.5 
" style="stroke: #000000; stroke-width: 0.8"/>
      </defs>
      <g>
       <use xlink:href="#mbf69f98490" x="55.882727" y="273.312" style="stroke: #000000; stroke-width: 0.8"/>
      </g>
     </g>
     <g id="text_1">
      <!-- 0.0 -->
      <g transform="translate(47.931165 287.910437) scale(0.1 -0.1)">
       <defs>
        <path id="DejaVuSans-30" d="M 2034 4250 
Q 1547 4250 1301 3770 
Q 1056 3291 1056 2328 
Q 1056 1369 1301 889 
Q 1547 409 2034 409 
Q 2525 409 2770 889 
Q 3016 1369 3016 2328 
Q 3016 3291 2770 3770 
Q 2525 4250 2034 4250 
z
M 2034 4750 
Q 2819 4750 3233 4129 
Q 3647 3509 3647 2328 
Q 3647 1150 3233 529 
Q 2819 -91 2034 -91 
Q 1250 -91 836 529 
Q 422 1150 422 2328 
Q 422 3509 836 4129 
Q 1250 4750 2034 4750 
z
" transform="scale(0.015625)"/>
        <path id="DejaVuSans-2e" d="M 684 794 
L 1344 794 
L 1344 0 
L 684 0 
L 684 794 
z
" transform="scale(0.015625)"/>
       </defs>
       <use xlink:href="#DejaVuSans-30"/>
       <use xlink:href="#DejaVuSans-2e" transform="translate(63.623047 0)"/>
       <use xlink:href="#DejaVuSans-30" transform="translate(95.410156 0)"/>
      </g>
     </g>
    </g>
    <g id="xtick_2">
     <g id="line2d_2">
      <g>
       <use xlink:href="#mbf69f98490" x="96.668474" y="273.312" style="stroke: #000000; stroke-width: 0.8"/>
      </g>
     </g>
     <g id="text_2">
      <!-- 2.5 -->
      <g transform="translate(88.716912 287.910437) scale(0.1 -0.1)">
       <defs>
        <path id="DejaVuSans-32" d="M 1228 531 
L 3431 531 
L 3431 0 
L 469 0 
L 469 531 
Q 828 903 1448 1529 
Q 2069 2156 2228 2338 
Q 2531 2678 2651 2914 
Q 2772 3150 2772 3378 
Q 2772 3750 2511 3984 
Q 2250 4219 1831 4219 
Q 1534 4219 1204 4116 
Q 875 4013 500 3803 
L 500 4441 
Q 881 4594 1212 4672 
Q 1544 4750 1819 4750 
Q 2544 4750 2975 4387 
Q 3406 4025 3406 3419 
Q 3406 3131 3298 2873 
Q 3191 2616 2906 2266 
Q 2828 2175 2409 1742 
Q 1991 1309 1228 531 
z
" transform="scale(0.015625)"/>
        <path id="DejaVuSans-35" d="M 691 4666 
L 3169 4666 
L 3169 4134 
L 1269 4134 
L 1269 2991 
Q 1406 3038 1543 3061 
Q 1681 3084 1819 3084 
Q 2600 3084 3056 2656 
Q 3513 2228 3513 1497 
Q 3513 744 3044 326 
Q 2575 -91 1722 -91 
Q 1428 -91 1123 -41 
Q 819 9 494 109 
L 494 744 
Q 775 591 1075 516 
Q 1375 441 1709 441 
Q 2250 441 2565 725 
Q 2881 1009 2881 1497 
Q 2881 1984 2565 2268 
Q 2250 2553 1709 2553 
Q 1456 2553 1204 2497 
Q 953 2441 691 2322 
L 691 4666 
z
" transform="scale(0.015625)"/>
       </defs>
       <use xlink:href="#DejaVuSans-32"/>
       <use xlink:href="#DejaVuSans-2e" transform="translate(63.623047 0)"/>
       <use xlink:href="#DejaVuSans-35" transform="translate(95.410156 0)"/>
      </g>
     </g>
    </g>
    <g id="xtick_3">
     <g id="line2d_3">
      <g>
       <use xlink:href="#mbf69f98490" x="137.454221" y="273.312" style="stroke: #000000; stroke-width: 0.8"/>
      </g>
     </g>
     <g id="text_3">
      <!-- 5.0 -->
      <g transform="translate(129.502659 287.910437) scale(0.1 -0.1)">
       <use xlink:href="#DejaVuSans-35"/>
       <use xlink:href="#DejaVuSans-2e" transform="translate(63.623047 0)"/>
       <use xlink:href="#DejaVuSans-30" transform="translate(95.410156 0)"/>
      </g>
     </g>
    </g>
    <g id="xtick_4">
     <g id="line2d_4">
      <g>
       <use xlink:href="#mbf69f98490" x="178.239968" y="273.312" style="stroke: #000000; stroke-width: 0.8"/>
      </g>
     </g>
     <g id="text_4">
      <!-- 7.5 -->
      <g transform="translate(170.288406 287.910437) scale(0.1 -0.1)">
       <defs>
        <path id="DejaVuSans-37" d="M 525 4666 
L 3525 4666 
L 3525 4397 
L 1831 0 
L 1172 0 
L 2766 4134 
L 525 4134 
L 525 4666 
z
" transform="scale(0.015625)"/>
       </defs>
       <use xlink:href="#DejaVuSans-37"/>
       <use xlink:href="#DejaVuSans-2e" transform="translate(63.623047 0)"/>
       <use xlink:href="#DejaVuSans-35" transform="translate(95.410156 0)"/>
      </g>
     </g>
    </g>
    <g id="xtick_5">
     <g id="line2d_5">
      <g>
       <use xlink:href="#mbf69f98490" x="219.025715" y="273.312" style="stroke: #000000; stroke-width: 0.8"/>
      </g>
     </g>
     <g id="text_5">
      <!-- 10.0 -->
      <g transform="translate(207.892902 287.910437) scale(0.1 -0.1)">
       <defs>
        <path id="DejaVuSans-31" d="M 794 531 
L 1825 531 
L 1825 4091 
L 703 3866 
L 703 4441 
L 1819 4666 
L 2450 4666 
L 2450 531 
L 3481 531 
L 3481 0 
L 794 0 
L 794 531 
z
" transform="scale(0.015625)"/>
       </defs>
       <use xlink:href="#DejaVuSans-31"/>
       <use xlink:href="#DejaVuSans-30" transform="translate(63.623047 0)"/>
       <use xlink:href="#DejaVuSans-2e" transform="translate(127.246094 0)"/>
       <use xlink:href="#DejaVuSans-30" transform="translate(159.033203 0)"/>
      </g>
     </g>
    </g>
    <g id="xtick_6">
     <g id="line2d_6">
      <g>
       <use xlink:href="#mbf69f98490" x="259.811462" y="273.312" style="stroke: #000000; stroke-width: 0.8"/>
      </g>
     </g>
     <g id="text_6">
      <!-- 12.5 -->
      <g transform="translate(248.678649 287.910437) scale(0.1 -0.1)">
       <use xlink:href="#DejaVuSans-31"/>
       <use xlink:href="#DejaVuSans-32" transform="translate(63.623047 0)"/>
       <use xlink:href="#DejaVuSans-2e" transform="translate(127.246094 0)"/>
       <use xlink:href="#DejaVuSans-35" transform="translate(159.033203 0)"/>
      </g>
     </g>
    </g>
    <g id="xtick_7">
     <g id="line2d_7">
      <g>
       <use xlink:href="#mbf69f98490" x="300.597209" y="273.312" style="stroke: #000000; stroke-width: 0.8"/>
      </g>
     </g>
     <g id="text_7">
      <!-- 15.0 -->
      <g transform="translate(289.464396 287.910437) scale(0.1 -0.1)">
       <use xlink:href="#DejaVuSans-31"/>
       <use xlink:href="#DejaVuSans-35" transform="translate(63.623047 0)"/>
       <use xlink:href="#DejaVuSans-2e" transform="translate(127.246094 0)"/>
       <use xlink:href="#DejaVuSans-30" transform="translate(159.033203 0)"/>
      </g>
     </g>
    </g>
    <g id="xtick_8">
     <g id="line2d_8">
      <g>
       <use xlink:href="#mbf69f98490" x="341.382956" y="273.312" style="stroke: #000000; stroke-width: 0.8"/>
      </g>
     </g>
     <g id="text_8">
      <!-- 17.5 -->
      <g transform="translate(330.250143 287.910437) scale(0.1 -0.1)">
       <use xlink:href="#DejaVuSans-31"/>
       <use xlink:href="#DejaVuSans-37" transform="translate(63.623047 0)"/>
       <use xlink:href="#DejaVuSans-2e" transform="translate(127.246094 0)"/>
       <use xlink:href="#DejaVuSans-35" transform="translate(159.033203 0)"/>
      </g>
     </g>
    </g>
    <g id="xtick_9">
     <g id="line2d_9">
      <g>
       <use xlink:href="#mbf69f98490" x="382.168703" y="273.312" style="stroke: #000000; stroke-width: 0.8"/>
      </g>
     </g>
     <g id="text_9">
      <!-- 20.0 -->
      <g transform="translate(371.03589 287.910437) scale(0.1 -0.1)">
       <use xlink:href="#DejaVuSans-32"/>
       <use xlink:href="#DejaVuSans-30" transform="translate(63.623047 0)"/>
       <use xlink:href="#DejaVuSans-2e" transform="translate(127.246094 0)"/>
       <use xlink:href="#DejaVuSans-30" transform="translate(159.033203 0)"/>
      </g>
     </g>
    </g>
   </g>
   <g id="matplotlib.axis_2">
    <g id="ytick_1">
     <g id="line2d_10">
      <defs>
       <path id="maf3da43d72" d="M 0 0 
L -3.5 0 
" style="stroke: #000000; stroke-width: 0.8"/>
      </defs>
      <g>
       <use xlink:href="#maf3da43d72" x="39.65" y="261.216" style="stroke: #000000; stroke-width: 0.8"/>
      </g>
     </g>
     <g id="text_10">
      <!-- 0 -->
      <g transform="translate(26.2875 265.015219) scale(0.1 -0.1)">
       <use xlink:href="#DejaVuSans-30"/>
      </g>
     </g>
    </g>
    <g id="ytick_2">
     <g id="line2d_11">
      <g>
       <use xlink:href="#maf3da43d72" x="39.65" y="222.455389" style="stroke: #000000; stroke-width: 0.8"/>
      </g>
     </g>
     <g id="text_11">
      <!-- 500 -->
      <g transform="translate(13.5625 226.254608) scale(0.1 -0.1)">
       <use xlink:href="#DejaVuSans-35"/>
       <use xlink:href="#DejaVuSans-30" transform="translate(63.623047 0)"/>
       <use xlink:href="#DejaVuSans-30" transform="translate(127.246094 0)"/>
      </g>
     </g>
    </g>
    <g id="ytick_3">
     <g id="line2d_12">
      <g>
       <use xlink:href="#maf3da43d72" x="39.65" y="183.694778" style="stroke: #000000; stroke-width: 0.8"/>
      </g>
     </g>
     <g id="text_12">
      <!-- 1000 -->
      <g transform="translate(7.2 187.493997) scale(0.1 -0.1)">
       <use xlink:href="#DejaVuSans-31"/>
       <use xlink:href="#DejaVuSans-30" transform="translate(63.623047 0)"/>
       <use xlink:href="#DejaVuSans-30" transform="translate(127.246094 0)"/>
       <use xlink:href="#DejaVuSans-30" transform="translate(190.869141 0)"/>
      </g>
     </g>
    </g>
    <g id="ytick_4">
     <g id="line2d_13">
      <g>
       <use xlink:href="#maf3da43d72" x="39.65" y="144.934168" style="stroke: #000000; stroke-width: 0.8"/>
      </g>
     </g>
     <g id="text_13">
      <!-- 1500 -->
      <g transform="translate(7.2 148.733386) scale(0.1 -0.1)">
       <use xlink:href="#DejaVuSans-31"/>
       <use xlink:href="#DejaVuSans-35" transform="translate(63.623047 0)"/>
       <use xlink:href="#DejaVuSans-30" transform="translate(127.246094 0)"/>
       <use xlink:href="#DejaVuSans-30" transform="translate(190.869141 0)"/>
      </g>
     </g>
    </g>
    <g id="ytick_5">
     <g id="line2d_14">
      <g>
       <use xlink:href="#maf3da43d72" x="39.65" y="106.173557" style="stroke: #000000; stroke-width: 0.8"/>
      </g>
     </g>
     <g id="text_14">
      <!-- 2000 -->
      <g transform="translate(7.2 109.972776) scale(0.1 -0.1)">
       <use xlink:href="#DejaVuSans-32"/>
       <use xlink:href="#DejaVuSans-30" transform="translate(63.623047 0)"/>
       <use xlink:href="#DejaVuSans-30" transform="translate(127.246094 0)"/>
       <use xlink:href="#DejaVuSans-30" transform="translate(190.869141 0)"/>
      </g>
     </g>
    </g>
    <g id="ytick_6">
     <g id="line2d_15">
      <g>
       <use xlink:href="#maf3da43d72" x="39.65" y="67.412946" style="stroke: #000000; stroke-width: 0.8"/>
      </g>
     </g>
     <g id="text_15">
      <!-- 2500 -->
      <g transform="translate(7.2 71.212165) scale(0.1 -0.1)">
       <use xlink:href="#DejaVuSans-32"/>
       <use xlink:href="#DejaVuSans-35" transform="translate(63.623047 0)"/>
       <use xlink:href="#DejaVuSans-30" transform="translate(127.246094 0)"/>
       <use xlink:href="#DejaVuSans-30" transform="translate(190.869141 0)"/>
      </g>
     </g>
    </g>
    <g id="ytick_7">
     <g id="line2d_16">
      <g>
       <use xlink:href="#maf3da43d72" x="39.65" y="28.652335" style="stroke: #000000; stroke-width: 0.8"/>
      </g>
     </g>
     <g id="text_16">
      <!-- 3000 -->
      <g transform="translate(7.2 32.451554) scale(0.1 -0.1)">
       <defs>
        <path id="DejaVuSans-33" d="M 2597 2516 
Q 3050 2419 3304 2112 
Q 3559 1806 3559 1356 
Q 3559 666 3084 287 
Q 2609 -91 1734 -91 
Q 1441 -91 1130 -33 
Q 819 25 488 141 
L 488 750 
Q 750 597 1062 519 
Q 1375 441 1716 441 
Q 2309 441 2620 675 
Q 2931 909 2931 1356 
Q 2931 1769 2642 2001 
Q 2353 2234 1838 2234 
L 1294 2234 
L 1294 2753 
L 1863 2753 
Q 2328 2753 2575 2939 
Q 2822 3125 2822 3475 
Q 2822 3834 2567 4026 
Q 2313 4219 1838 4219 
Q 1578 4219 1281 4162 
Q 984 4106 628 3988 
L 628 4550 
Q 988 4650 1302 4700 
Q 1616 4750 1894 4750 
Q 2613 4750 3031 4423 
Q 3450 4097 3450 3541 
Q 3450 3153 3228 2886 
Q 3006 2619 2597 2516 
z
" transform="scale(0.015625)"/>
       </defs>
       <use xlink:href="#DejaVuSans-33"/>
       <use xlink:href="#DejaVuSans-30" transform="translate(63.623047 0)"/>
       <use xlink:href="#DejaVuSans-30" transform="translate(127.246094 0)"/>
       <use xlink:href="#DejaVuSans-30" transform="translate(190.869141 0)"/>
      </g>
     </g>
    </g>
   </g>
   <g id="line2d_17">
    <path d="M 55.882727 261.216 
L 59.961302 241.835695 
L 64.039877 224.005814 
L 68.118451 207.602323 
L 72.197026 192.511112 
L 76.275601 178.627198 
L 80.354175 165.853996 
L 84.43275 154.102651 
L 88.511325 143.291414 
L 92.589899 133.345075 
L 96.668474 124.194444 
L 100.747049 115.775863 
L 104.825624 108.030769 
L 108.904198 100.905282 
L 112.982773 94.349834 
L 117.061348 88.318822 
L 121.139922 82.770291 
L 125.218497 77.665642 
L 129.297072 72.969365 
L 133.375646 68.648791 
L 137.454221 64.673862 
L 141.532796 61.016928 
L 145.61137 57.652548 
L 149.689945 54.557319 
L 153.76852 51.709708 
L 157.847095 49.089906 
L 161.925669 46.679688 
L 166.004244 44.462288 
L 170.082819 42.422279 
L 174.161393 40.545471 
L 178.239968 38.818808 
L 182.318543 37.230278 
L 186.397117 35.768831 
L 190.475692 34.424299 
L 194.554267 33.187329 
L 198.632841 32.049318 
L 202.711416 31.002347 
L 206.789991 30.039134 
L 210.868566 29.152978 
L 214.94714 28.337714 
L 219.025715 27.587672 
L 223.10429 26.897632 
L 227.182864 26.262796 
L 231.261439 25.678747 
L 235.340014 25.141422 
L 239.418588 24.647083 
L 243.497163 24.192291 
L 247.575738 23.773882 
L 251.654312 23.388946 
L 255.732887 23.034805 
L 259.811462 22.708995 
L 263.890037 22.40925 
L 267.968611 22.133485 
L 272.047186 21.879781 
L 276.125761 21.646373 
L 280.204335 21.431638 
L 284.28291 21.234081 
L 288.361485 21.052329 
L 292.440059 20.885118 
L 296.518634 20.731283 
L 300.597209 20.589755 
L 304.675783 20.459549 
L 308.754358 20.33976 
L 312.832933 20.229554 
L 316.911508 20.128164 
L 320.990082 20.034885 
L 325.068657 19.949069 
L 329.147232 19.870118 
L 333.225806 19.797483 
L 337.304381 19.730659 
L 341.382956 19.669181 
L 345.46153 19.612621 
L 349.540105 19.560586 
L 353.61868 19.512714 
L 357.697254 19.468671 
L 361.775829 19.428152 
L 365.854404 19.390875 
L 369.932979 19.356579 
L 374.011553 19.325028 
L 378.090128 19.296 
" clip-path="url(#pa23ea7fafc)" style="fill: none; stroke: #1f77b4; stroke-width: 1.5; stroke-linecap: square"/>
   </g>
   <g id="line2d_18">
    <path d="M 55.882727 261.216 
L 59.961302 261.216 
L 64.039877 259.665576 
L 68.118451 256.926751 
L 72.197026 253.296056 
L 76.275601 249.015377 
L 80.354175 244.281068 
L 84.43275 239.25162 
L 88.511325 234.054084 
L 92.589899 228.789472 
L 96.668474 223.53727 
L 100.747049 218.35923 
L 104.825624 213.302533 
L 108.904198 208.402432 
L 112.982773 203.684457 
L 117.061348 199.166256 
L 121.139922 194.859117 
L 125.218497 190.769242 
L 129.297072 186.898791 
L 133.375646 183.246752 
L 137.454221 179.809654 
L 141.532796 176.582157 
L 145.61137 173.557526 
L 149.689945 170.728026 
L 153.76852 168.085235 
L 157.847095 165.620304 
L 161.925669 163.324156 
L 166.004244 161.187649 
L 170.082819 159.201704 
L 174.161393 157.357401 
L 178.239968 155.646054 
L 182.318543 154.059265 
L 186.397117 152.588966 
L 190.475692 151.227442 
L 194.554267 149.96735 
L 198.632841 148.801724 
L 202.711416 147.723981 
L 206.789991 146.727913 
L 210.868566 145.807685 
L 214.94714 144.95782 
L 219.025715 144.173188 
L 223.10429 143.448993 
L 227.182864 142.780759 
L 231.261439 142.164312 
L 235.340014 141.595766 
L 239.418588 141.071506 
L 243.497163 140.588172 
L 247.575738 140.142647 
L 251.654312 139.732037 
L 255.732887 139.353661 
L 259.811462 139.005035 
L 263.890037 138.683858 
L 267.968611 138.388001 
L 272.047186 138.115498 
L 276.125761 137.864528 
L 280.204335 137.633408 
L 284.28291 137.420587 
L 288.361485 137.22463 
L 292.440059 137.044211 
L 296.518634 136.87811 
L 300.597209 136.725199 
L 304.675783 136.584437 
L 308.754358 136.454866 
L 312.832933 136.335601 
L 316.911508 136.225826 
L 320.990082 136.124791 
L 325.068657 136.031803 
L 329.147232 135.946222 
L 333.225806 135.867463 
L 337.304381 135.794982 
L 341.382956 135.728281 
L 345.46153 135.6669 
L 349.540105 135.610417 
L 353.61868 135.558441 
L 357.697254 135.510613 
L 361.775829 135.466604 
L 365.854404 135.426108 
L 369.932979 135.388847 
L 374.011553 135.354561 
L 378.090128 135.323014 
" clip-path="url(#pa23ea7fafc)" style="fill: none; stroke: #ff7f0e; stroke-width: 1.5; stroke-linecap: square"/>
   </g>
   <g id="line2d_19">
    <path d="M 55.882727 261.216 
L 57.514157 253.153793 
L 59.145587 246.099362 
L 60.777017 236.951858 
L 62.408447 230.517596 
L 67.302736 208.734133 
L 68.934166 203.075084 
L 70.565596 195.943131 
L 72.197026 190.516646 
L 73.828456 183.617257 
L 75.459886 179.198548 
L 77.091316 174.237189 
L 78.722746 170.361128 
L 80.354175 165.554813 
L 81.985605 161.833794 
L 86.879895 149.818005 
L 91.774185 138.965034 
L 93.405614 136.17427 
L 95.037044 132.918378 
L 96.668474 129.352402 
L 98.299904 128.422147 
L 99.931334 124.468565 
L 101.562764 121.522759 
L 103.194194 117.569176 
L 104.825624 115.708667 
L 106.457053 111.600042 
L 108.088483 107.801503 
L 109.719913 104.855696 
L 111.351343 102.917666 
L 112.982773 98.964083 
L 114.614203 94.700416 
L 116.245633 92.607343 
L 117.877063 88.808803 
L 119.508492 88.57624 
L 121.139922 86.405645 
L 122.771352 84.7777 
L 124.402782 82.839669 
L 126.034212 82.994712 
L 127.665642 81.366766 
L 129.297072 79.273693 
L 130.928502 77.723269 
L 132.559931 75.630196 
L 134.191361 74.544898 
L 135.822791 72.219262 
L 137.454221 70.436274 
L 139.085651 69.506019 
L 140.717081 69.118413 
L 142.348511 67.180382 
L 143.979941 65.785 
L 147.2428 62.60663 
L 148.87423 62.684152 
L 150.50566 61.28877 
L 152.13709 60.358515 
L 153.76852 60.746121 
L 155.39995 58.885612 
L 157.03138 56.559975 
L 158.66281 56.017326 
L 160.294239 54.156817 
L 161.925669 52.838956 
L 163.557099 54.156817 
L 165.188529 53.536647 
L 166.819959 51.598617 
L 168.451389 50.125714 
L 171.714249 45.551962 
L 173.345678 43.148804 
L 174.977108 42.373592 
L 176.608538 42.29607 
L 178.239968 42.838719 
L 179.871398 42.838719 
L 181.502828 42.451113 
L 183.134258 42.218549 
L 184.765688 41.520858 
L 186.397117 41.908464 
L 188.028547 41.133252 
L 189.659977 40.745646 
L 191.291407 39.970434 
L 192.922837 38.730094 
L 194.554267 35.784288 
L 196.185697 37.024627 
L 197.817127 38.962658 
L 199.448556 39.040179 
L 201.079986 38.730094 
L 202.711416 38.730094 
L 204.342846 37.567276 
L 205.974276 35.93933 
L 207.605706 34.776512 
L 209.237136 36.481979 
L 210.868566 35.861809 
L 212.499995 34.621469 
L 214.131425 32.993524 
L 215.762855 33.148566 
L 217.394285 32.373354 
L 219.025715 32.063269 
L 220.657145 32.76096 
L 222.288575 33.226087 
L 223.920005 31.985748 
L 225.551434 31.598142 
L 227.182864 31.365578 
L 228.814294 29.892675 
L 230.445724 29.737632 
L 232.077154 30.512845 
L 233.708584 28.96242 
L 235.340014 27.179432 
L 236.971444 27.567038 
L 238.602873 27.334475 
L 241.865733 25.706529 
L 243.497163 26.016614 
L 245.128593 27.179432 
L 246.760023 27.411996 
L 248.391453 26.249177 
L 250.022883 26.869347 
L 251.654312 27.179432 
L 253.285742 26.714305 
L 254.917172 26.016614 
L 256.548602 23.613456 
L 258.180032 24.156104 
L 259.811462 24.543711 
L 261.442892 25.939093 
L 263.074322 28.497293 
L 264.705751 27.644559 
L 266.337181 27.256953 
L 267.968611 25.629008 
L 269.600041 24.466189 
L 271.231471 22.915765 
L 272.862901 24.466189 
L 274.494331 23.923541 
L 276.125761 26.094135 
L 277.75719 26.714305 
L 279.38862 25.241402 
L 281.02005 24.698753 
L 282.65148 24.543711 
L 284.28291 27.489517 
L 285.91434 28.652335 
L 287.54577 27.877123 
L 289.1772 28.652335 
L 290.80863 29.272505 
L 292.440059 28.34225 
L 294.071489 26.094135 
L 295.702919 25.706529 
L 297.334349 26.249177 
L 298.965779 26.481741 
L 300.597209 26.559262 
L 302.228639 26.249177 
L 303.860069 25.396444 
L 305.491498 26.016614 
L 307.122928 25.473965 
L 308.754358 26.791826 
L 310.385788 27.101911 
L 312.017218 26.016614 
L 313.648648 24.233626 
L 315.280078 24.776274 
L 316.911508 26.946868 
L 318.542937 26.249177 
L 320.174367 27.644559 
L 321.805797 28.884899 
L 323.437227 27.954644 
L 325.068657 27.256953 
L 326.700087 27.334475 
L 328.331517 28.032166 
L 329.962947 27.489517 
L 331.594376 27.954644 
L 333.225806 27.179432 
L 334.857236 27.411996 
L 336.488666 26.016614 
L 338.120096 25.396444 
L 339.751526 27.334475 
L 341.382956 27.567038 
L 343.014386 29.194984 
L 344.645815 30.047717 
L 346.277245 30.047717 
L 347.908675 29.505069 
L 349.540105 29.350026 
L 351.171535 28.807378 
L 352.802965 27.179432 
L 354.434395 27.799602 
L 356.065825 27.644559 
L 357.697254 26.791826 
L 359.328684 25.008838 
L 360.960114 26.946868 
L 362.591544 28.109687 
L 364.222974 26.946868 
L 365.854404 24.776274 
L 367.485834 22.915765 
L 369.117264 21.752947 
L 370.748693 21.597904 
L 372.380123 23.22585 
L 374.011553 24.001062 
L 375.642983 24.156104 
L 377.274413 24.543711 
L 378.905843 25.706529 
L 380.537273 29.039941 
L 380.537273 29.039941 
" clip-path="url(#pa23ea7fafc)" style="fill: none; stroke: #2ca02c; stroke-width: 1.5; stroke-linecap: square"/>
   </g>
   <g id="line2d_20">
    <path d="M 55.882727 261.216 
L 57.514157 261.138479 
L 59.145587 260.905915 
L 60.777017 260.518309 
L 64.039877 258.580278 
L 65.671307 257.262418 
L 67.302736 255.711993 
L 68.934166 253.773963 
L 70.565596 252.378581 
L 73.828456 250.130465 
L 77.091316 246.176883 
L 78.722746 243.773725 
L 80.354175 241.913216 
L 81.985605 240.362791 
L 83.617035 239.044931 
L 88.511325 233.153318 
L 91.774185 230.595117 
L 93.405614 228.424523 
L 95.037044 225.943844 
L 98.299904 221.757698 
L 99.931334 218.889413 
L 101.562764 217.261467 
L 103.194194 216.408734 
L 104.825624 214.548225 
L 108.088483 211.369855 
L 109.719913 208.889175 
L 111.351343 207.571315 
L 112.982773 205.788327 
L 114.614203 205.090636 
L 116.245633 203.152605 
L 117.877063 201.757223 
L 119.508492 198.346289 
L 121.139922 197.028429 
L 122.771352 196.330738 
L 124.402782 196.020653 
L 126.034212 193.074846 
L 127.665642 192.06707 
L 129.297072 191.214337 
L 130.928502 191.059294 
L 132.559931 190.361603 
L 134.191361 187.725882 
L 135.822791 186.795627 
L 137.454221 185.012639 
L 139.085651 182.53196 
L 140.717081 181.291621 
L 142.348511 181.136578 
L 143.979941 179.896239 
L 145.61137 178.500857 
L 147.2428 178.035729 
L 148.87423 175.865135 
L 150.50566 175.322486 
L 152.13709 175.244965 
L 153.76852 172.919329 
L 155.39995 172.686765 
L 157.03138 172.841807 
L 158.66281 172.221638 
L 160.294239 171.446425 
L 161.925669 171.058819 
L 163.557099 169.120789 
L 166.819959 169.19831 
L 168.451389 168.190534 
L 170.082819 168.500619 
L 171.714249 167.647886 
L 173.345678 167.492843 
L 174.977108 167.492843 
L 176.608538 166.562588 
L 178.239968 165.322249 
L 179.871398 164.702079 
L 181.502828 163.074133 
L 183.134258 162.2214 
L 184.765688 161.988836 
L 186.397117 161.291145 
L 188.028547 161.291145 
L 189.659977 160.981061 
L 191.291407 160.128327 
L 192.922837 159.04303 
L 194.554267 158.732945 
L 196.185697 157.337563 
L 197.817127 154.546799 
L 199.448556 152.918853 
L 201.079986 152.918853 
L 202.711416 153.383981 
L 204.342846 155.011926 
L 205.974276 154.62432 
L 207.605706 155.011926 
L 209.237136 152.918853 
L 210.868566 152.918853 
L 212.499995 152.298684 
L 214.131425 153.849108 
L 215.762855 153.228938 
L 217.394285 151.911078 
L 219.025715 150.903302 
L 222.288575 149.585441 
L 223.920005 150.980823 
L 225.551434 151.600993 
L 227.182864 150.748259 
L 228.814294 151.058344 
L 232.077154 148.965271 
L 233.708584 148.190059 
L 235.340014 150.670738 
L 236.971444 149.120314 
L 238.602873 149.352877 
L 240.234303 148.500144 
L 241.865733 146.872198 
L 243.497163 147.027241 
L 245.128593 146.639635 
L 246.760023 146.096986 
L 248.391453 149.662962 
L 250.022883 148.500144 
L 251.654312 147.104762 
L 253.285742 147.259804 
L 254.917172 146.794677 
L 256.548602 147.104762 
L 258.180032 148.112538 
L 259.811462 146.794677 
L 261.442892 147.414847 
L 263.074322 145.70938 
L 264.705751 147.104762 
L 266.337181 147.414847 
L 267.968611 146.949719 
L 269.600041 147.259804 
L 271.231471 149.042792 
L 272.862901 147.64741 
L 274.494331 148.500144 
L 276.125761 147.414847 
L 277.75719 147.027241 
L 279.38862 148.732707 
L 281.02005 149.275356 
L 282.65148 149.50792 
L 284.28291 147.879974 
L 285.91434 146.639635 
L 287.54577 146.562113 
L 289.1772 146.949719 
L 292.440059 148.26758 
L 294.071489 150.360653 
L 295.702919 150.980823 
L 297.334349 151.911078 
L 300.597209 151.058344 
L 302.228639 151.213387 
L 303.860069 150.438174 
L 305.491498 147.957495 
L 307.122928 147.027241 
L 308.754358 146.639635 
L 310.385788 145.08921 
L 312.017218 145.166731 
L 313.648648 147.027241 
L 315.280078 146.949719 
L 316.911508 146.639635 
L 320.174367 144.856646 
L 321.805797 142.918616 
L 323.437227 141.600755 
L 325.068657 142.763573 
L 326.700087 142.996137 
L 328.331517 142.608531 
L 329.962947 144.081434 
L 331.594376 143.693828 
L 333.225806 144.081434 
L 334.857236 144.779125 
L 336.488666 145.244253 
L 338.120096 146.484592 
L 341.382956 145.244253 
L 343.014386 143.073658 
L 344.645815 142.143404 
L 346.277245 143.306222 
L 347.908675 144.856646 
L 349.540105 144.624083 
L 352.802965 144.856646 
L 354.434395 145.321774 
L 356.065825 146.32955 
L 357.697254 145.864422 
L 359.328684 146.872198 
L 360.960114 145.941944 
L 362.591544 142.841095 
L 364.222974 142.841095 
L 365.854404 144.546562 
L 367.485834 144.934168 
L 369.117264 143.848871 
L 370.748693 144.546562 
L 372.380123 144.701604 
L 374.011553 143.771349 
L 375.642983 145.166731 
L 378.905843 143.926392 
L 380.537273 142.996137 
L 380.537273 142.996137 
" clip-path="url(#pa23ea7fafc)" style="fill: none; stroke: #d62728; stroke-width: 1.5; stroke-linecap: square"/>
   </g>
   <g id="patch_3">
    <path d="M 39.65 273.312 
L 39.65 7.2 
" style="fill: none; stroke: #000000; stroke-width: 0.8; stroke-linejoin: miter; stroke-linecap: square"/>
   </g>
   <g id="patch_4">
    <path d="M 396.77 273.312 
L 396.77 7.2 
" style="fill: none; stroke: #000000; stroke-width: 0.8; stroke-linejoin: miter; stroke-linecap: square"/>
   </g>
   <g id="patch_5">
    <path d="M 39.65 273.312 
L 396.77 273.312 
" style="fill: none; stroke: #000000; stroke-width: 0.8; stroke-linejoin: miter; stroke-linecap: square"/>
   </g>
   <g id="patch_6">
    <path d="M 39.65 7.2 
L 396.77 7.2 
" style="fill: none; stroke: #000000; stroke-width: 0.8; stroke-linejoin: miter; stroke-linecap: square"/>
   </g>
  </g>
 </g>
 <defs>
  <clipPath id="pa23ea7fafc">
   <rect x="39.65" y="7.2" width="357.12" height="266.112"/>
  </clipPath>
 </defs>
</svg>
