<?xml version="1.0" encoding="utf-8" standalone="no"?>
<!DOCTYPE svg PUBLIC "-//W3C//DTD SVG 1.1//EN"
  "http://www.w3.org/Graphics/SVG/1.1/DTD/svg11.dtd">
<svg xmlns:xlink="http://www.w3.org/1999/xlink" width="922.566452pt" height="392.514375pt" viewBox="0 0 922.566452 392.514375" xmlns="http://www.w3.org/2000/svg" version="1.1">
 <metadata>
  <rdf:RDF xmlns:dc="http://purl.org/dc/elements/1.1/" xmlns:cc="http://creativecommons.org/ns#" xmlns:rdf="http://www.w3.org/1999/02/22-rdf-syntax-ns#">
   <cc:Work>
    <dc:type rdf:resource="http://purl.org/dc/dcmitype/StillImage"/>
    <dc:date>2026-05-25T13:00:51.381740</dc:date>
    <dc:format>image/svg+xml</dc:format>
    <dc:creator>
     <cc:Agent>
      <dc:title>Matplotlib v3.10.9, https://matplotlib.org/</dc:title>
     </cc:Agent>
    </dc:creator>
   </cc:Work>
  </rdf:RDF>
 </metadata>
 <defs>
  <style type="text/css">*{stroke-linejoin: round; stroke-linecap: butt}</style>
 </defs>
 <g id="figure_1">
  <g id="patch_1">
   <path d="M 0 392.514375 
L 922.566452 392.514375 
L 922.566452 0 
L 0 0 
L 0 392.514375 
z
" style="fill: none; opacity: 0"/>
  </g>
  <g id="axes_1">
   <g id="patch_2">
    <path d="M 45.09375 173.518125 
L 242.034926 173.518125 
L 242.034926 22.318125 
L 45.09375 22.318125 
L 45.09375 173.518125 
z
" style="fill: none; opacity: 0"/>
   </g>
   <g id="PathCollection_1">
    <defs>
     <path id="C0_0_a66fdda789" d="M 0 3.162278 
C 0.838646 3.162278 1.643056 2.82908 2.236068 2.236068 
C 2.82908 1.643056 3.162278 0.838646 3.162278 -0 
C 3.162278 -0.838646 2.82908 -1.643056 2.236068 -2.236068 
C 1.643056 -2.82908 0.838646 -3.162278 0 -3.162278 
C -0.838646 -3.162278 -1.643056 -2.82908 -2.236068 -2.236068 
C -2.82908 -1.643056 -3.162278 -0.838646 -3.162278 0 
C -3.162278 0.838646 -2.82908 1.643056 -2.236068 2.236068 
C -1.643056 2.82908 -0.838646 3.162278 0 3.162278 
z
"/>
    </defs>
    <g clip-path="url(#p64432afcb6)">
     <use xlink:href="#C0_0_a66fdda789" x="45.09375" y="38.193922" style="fill: none; stroke: #377eb8; stroke-width: 3"/>
    </g>
    <g clip-path="url(#p64432afcb6)">
     <use xlink:href="#C0_0_a66fdda789" x="50.720641" y="38.870543" style="fill: none; stroke: #377eb8; stroke-width: 3"/>
    </g>
    <g clip-path="url(#p64432afcb6)">
     <use xlink:href="#C0_0_a66fdda789" x="56.347532" y="39.547164" style="fill: none; stroke: #377eb8; stroke-width: 3"/>
    </g>
    <g clip-path="url(#p64432afcb6)">
     <use xlink:href="#C0_0_a66fdda789" x="61.974422" y="40.223785" style="fill: none; stroke: #377eb8; stroke-width: 3"/>
    </g>
    <g clip-path="url(#p64432afcb6)">
     <use xlink:href="#C0_0_a66fdda789" x="67.601313" y="41.03573" style="fill: none; stroke: #377eb8; stroke-width: 3"/>
    </g>
    <g clip-path="url(#p64432afcb6)">
     <use xlink:href="#C0_0_a66fdda789" x="73.228204" y="41.847676" style="fill: none; stroke: #377eb8; stroke-width: 3"/>
    </g>
    <g clip-path="url(#p64432afcb6)">
     <use xlink:href="#C0_0_a66fdda789" x="78.855095" y="42.659621" style="fill: none; stroke: #377eb8; stroke-width: 3"/>
    </g>
    <g clip-path="url(#p64432afcb6)">
     <use xlink:href="#C0_0_a66fdda789" x="84.481985" y="43.742214" style="fill: none; stroke: #377eb8; stroke-width: 3"/>
    </g>
    <g clip-path="url(#p64432afcb6)">
     <use xlink:href="#C0_0_a66fdda789" x="90.108876" y="45.230781" style="fill: none; stroke: #377eb8; stroke-width: 3"/>
    </g>
    <g clip-path="url(#p64432afcb6)">
     <use xlink:href="#C0_0_a66fdda789" x="95.735767" y="46.989995" style="fill: none; stroke: #377eb8; stroke-width: 3"/>
    </g>
    <g clip-path="url(#p64432afcb6)">
     <use xlink:href="#C0_0_a66fdda789" x="101.362658" y="48.884534" style="fill: none; stroke: #377eb8; stroke-width: 3"/>
    </g>
    <g clip-path="url(#p64432afcb6)">
     <use xlink:href="#C0_0_a66fdda789" x="106.989548" y="50.643749" style="fill: none; stroke: #377eb8; stroke-width: 3"/>
    </g>
    <g clip-path="url(#p64432afcb6)">
     <use xlink:href="#C0_0_a66fdda789" x="112.616439" y="52.267639" style="fill: none; stroke: #377eb8; stroke-width: 3"/>
    </g>
    <g clip-path="url(#p64432afcb6)">
     <use xlink:href="#C0_0_a66fdda789" x="118.24333" y="53.756205" style="fill: none; stroke: #377eb8; stroke-width: 3"/>
    </g>
    <g clip-path="url(#p64432afcb6)">
     <use xlink:href="#C0_0_a66fdda789" x="123.870221" y="55.109447" style="fill: none; stroke: #377eb8; stroke-width: 3"/>
    </g>
    <g clip-path="url(#p64432afcb6)">
     <use xlink:href="#C0_0_a66fdda789" x="129.497111" y="56.462689" style="fill: none; stroke: #377eb8; stroke-width: 3"/>
    </g>
    <g clip-path="url(#p64432afcb6)">
     <use xlink:href="#C0_0_a66fdda789" x="135.124002" y="57.815932" style="fill: none; stroke: #377eb8; stroke-width: 3"/>
    </g>
    <g clip-path="url(#p64432afcb6)">
     <use xlink:href="#C0_0_a66fdda789" x="140.750893" y="59.169174" style="fill: none; stroke: #377eb8; stroke-width: 3"/>
    </g>
   </g>
   <g id="PathCollection_2">
    <defs>
     <path id="C1_0_34cdc9ada6" d="M 0 3.162278 
C 0.838646 3.162278 1.643056 2.82908 2.236068 2.236068 
C 2.82908 1.643056 3.162278 0.838646 3.162278 -0 
C 3.162278 -0.838646 2.82908 -1.643056 2.236068 -2.236068 
C 1.643056 -2.82908 0.838646 -3.162278 0 -3.162278 
C -0.838646 -3.162278 -1.643056 -2.82908 -2.236068 -2.236068 
C -2.82908 -1.643056 -3.162278 -0.838646 -3.162278 0 
C -3.162278 0.838646 -2.82908 1.643056 -2.236068 2.236068 
C -1.643056 2.82908 -0.838646 3.162278 0 3.162278 
z
"/>
    </defs>
    <g clip-path="url(#p64432afcb6)">
     <use xlink:href="#C1_0_34cdc9ada6" x="45.09375" y="145.100042" style="fill: none; stroke: #e41a1c; stroke-width: 3"/>
    </g>
    <g clip-path="url(#p64432afcb6)">
     <use xlink:href="#C1_0_34cdc9ada6" x="50.720641" y="145.370691" style="fill: none; stroke: #e41a1c; stroke-width: 3"/>
    </g>
    <g clip-path="url(#p64432afcb6)">
     <use xlink:href="#C1_0_34cdc9ada6" x="56.347532" y="145.641339" style="fill: none; stroke: #e41a1c; stroke-width: 3"/>
    </g>
    <g clip-path="url(#p64432afcb6)">
     <use xlink:href="#C1_0_34cdc9ada6" x="61.974422" y="145.911988" style="fill: none; stroke: #e41a1c; stroke-width: 3"/>
    </g>
    <g clip-path="url(#p64432afcb6)">
     <use xlink:href="#C1_0_34cdc9ada6" x="67.601313" y="146.182636" style="fill: none; stroke: #e41a1c; stroke-width: 3"/>
    </g>
    <g clip-path="url(#p64432afcb6)">
     <use xlink:href="#C1_0_34cdc9ada6" x="73.228204" y="146.453284" style="fill: none; stroke: #e41a1c; stroke-width: 3"/>
    </g>
    <g clip-path="url(#p64432afcb6)">
     <use xlink:href="#C1_0_34cdc9ada6" x="78.855095" y="146.723933" style="fill: none; stroke: #e41a1c; stroke-width: 3"/>
    </g>
    <g clip-path="url(#p64432afcb6)">
     <use xlink:href="#C1_0_34cdc9ada6" x="84.481985" y="146.994581" style="fill: none; stroke: #e41a1c; stroke-width: 3"/>
    </g>
    <g clip-path="url(#p64432afcb6)">
     <use xlink:href="#C1_0_34cdc9ada6" x="90.108876" y="147.26523" style="fill: none; stroke: #e41a1c; stroke-width: 3"/>
    </g>
    <g clip-path="url(#p64432afcb6)">
     <use xlink:href="#C1_0_34cdc9ada6" x="95.735767" y="147.535878" style="fill: none; stroke: #e41a1c; stroke-width: 3"/>
    </g>
    <g clip-path="url(#p64432afcb6)">
     <use xlink:href="#C1_0_34cdc9ada6" x="101.362658" y="147.806526" style="fill: none; stroke: #e41a1c; stroke-width: 3"/>
    </g>
    <g clip-path="url(#p64432afcb6)">
     <use xlink:href="#C1_0_34cdc9ada6" x="106.989548" y="148.077175" style="fill: none; stroke: #e41a1c; stroke-width: 3"/>
    </g>
    <g clip-path="url(#p64432afcb6)">
     <use xlink:href="#C1_0_34cdc9ada6" x="112.616439" y="148.347823" style="fill: none; stroke: #e41a1c; stroke-width: 3"/>
    </g>
    <g clip-path="url(#p64432afcb6)">
     <use xlink:href="#C1_0_34cdc9ada6" x="118.24333" y="148.618472" style="fill: none; stroke: #e41a1c; stroke-width: 3"/>
    </g>
    <g clip-path="url(#p64432afcb6)">
     <use xlink:href="#C1_0_34cdc9ada6" x="123.870221" y="148.88912" style="fill: none; stroke: #e41a1c; stroke-width: 3"/>
    </g>
    <g clip-path="url(#p64432afcb6)">
     <use xlink:href="#C1_0_34cdc9ada6" x="129.497111" y="149.159768" style="fill: none; stroke: #e41a1c; stroke-width: 3"/>
    </g>
    <g clip-path="url(#p64432afcb6)">
     <use xlink:href="#C1_0_34cdc9ada6" x="135.124002" y="149.430417" style="fill: none; stroke: #e41a1c; stroke-width: 3"/>
    </g>
    <g clip-path="url(#p64432afcb6)">
     <use xlink:href="#C1_0_34cdc9ada6" x="140.750893" y="149.701065" style="fill: none; stroke: #e41a1c; stroke-width: 3"/>
    </g>
   </g>
   <g id="matplotlib.axis_1">
    <g id="xtick_1">
     <g id="line2d_1">
      <defs>
       <path id="meed06e1bba" d="M 0 0 
L 0 3.5 
" style="stroke: #000000; stroke-width: 0.8"/>
      </defs>
      <g>
       <use xlink:href="#meed06e1bba" x="45.09375" y="173.518125" style="stroke: #000000; stroke-width: 0.8"/>
      </g>
     </g>
     <g id="text_1">
      <!-- 2000 -->
      <g transform="translate(32.36875 188.116562) scale(0.1 -0.1)">
       <defs>
        <path id="DejaVuSans-32" d="M 1228 531 
L 3431 531 
L 3431 0 
L 469 0 
L 469 531 
Q 828 903 1448 1529 
Q 2069 2156 2228 2338 
Q 2531 2678 2651 2914 
Q 2772 3150 2772 3378 
Q 2772 3750 2511 3984 
Q 2250 4219 1831 4219 
Q 1534 4219 1204 4116 
Q 875 4013 500 3803 
L 500 4441 
Q 881 4594 1212 4672 
Q 1544 4750 1819 4750 
Q 2544 4750 2975 4387 
Q 3406 4025 3406 3419 
Q 3406 3131 3298 2873 
Q 3191 2616 2906 2266 
Q 2828 2175 2409 1742 
Q 1991 1309 1228 531 
z
" transform="scale(0.015625)"/>
        <path id="DejaVuSans-30" d="M 2034 4250 
Q 1547 4250 1301 3770 
Q 1056 3291 1056 2328 
Q 1056 1369 1301 889 
Q 1547 409 2034 409 
Q 2525 409 2770 889 
Q 3016 1369 3016 2328 
Q 3016 3291 2770 3770 
Q 2525 4250 2034 4250 
z
M 2034 4750 
Q 2819 4750 3233 4129 
Q 3647 3509 3647 2328 
Q 3647 1150 3233 529 
Q 2819 -91 2034 -91 
Q 1250 -91 836 529 
Q 422 1150 422 2328 
Q 422 3509 836 4129 
Q 1250 4750 2034 4750 
z
" transform="scale(0.015625)"/>
       </defs>
       <use xlink:href="#DejaVuSans-32"/>
       <use xlink:href="#DejaVuSans-30" transform="translate(63.623047 0)"/>
       <use xlink:href="#DejaVuSans-30" transform="translate(127.246094 0)"/>
       <use xlink:href="#DejaVuSans-30" transform="translate(190.869141 0)"/>
      </g>
     </g>
    </g>
    <g id="xtick_2">
     <g id="line2d_2">
      <g>
       <use xlink:href="#meed06e1bba" x="101.362658" y="173.518125" style="stroke: #000000; stroke-width: 0.8"/>
      </g>
     </g>
     <g id="text_2">
      <!-- 2010 -->
      <g transform="translate(88.637658 188.116562) scale(0.1 -0.1)">
       <defs>
        <path id="DejaVuSans-31" d="M 794 531 
L 1825 531 
L 1825 4091 
L 703 3866 
L 703 4441 
L 1819 4666 
L 2450 4666 
L 2450 531 
L 3481 531 
L 3481 0 
L 794 0 
L 794 531 
z
" transform="scale(0.015625)"/>
       </defs>
       <use xlink:href="#DejaVuSans-32"/>
       <use xlink:href="#DejaVuSans-30" transform="translate(63.623047 0)"/>
       <use xlink:href="#DejaVuSans-31" transform="translate(127.246094 0)"/>
       <use xlink:href="#DejaVuSans-30" transform="translate(190.869141 0)"/>
      </g>
     </g>
    </g>
    <g id="xtick_3">
     <g id="line2d_3">
      <g>
       <use xlink:href="#meed06e1bba" x="157.631565" y="173.518125" style="stroke: #000000; stroke-width: 0.8"/>
      </g>
     </g>
     <g id="text_3">
      <!-- 2020 -->
      <g transform="translate(144.906565 188.116562) scale(0.1 -0.1)">
       <use xlink:href="#DejaVuSans-32"/>
       <use xlink:href="#DejaVuSans-30" transform="translate(63.623047 0)"/>
       <use xlink:href="#DejaVuSans-32" transform="translate(127.246094 0)"/>
       <use xlink:href="#DejaVuSans-30" transform="translate(190.869141 0)"/>
      </g>
     </g>
    </g>
    <g id="xtick_4">
     <g id="line2d_4">
      <g>
       <use xlink:href="#meed06e1bba" x="213.900473" y="173.518125" style="stroke: #000000; stroke-width: 0.8"/>
      </g>
     </g>
     <g id="text_4">
      <!-- 2030 -->
      <g transform="translate(201.175473 188.116562) scale(0.1 -0.1)">
       <defs>
        <path id="DejaVuSans-33" d="M 2597 2516 
Q 3050 2419 3304 2112 
Q 3559 1806 3559 1356 
Q 3559 666 3084 287 
Q 2609 -91 1734 -91 
Q 1441 -91 1130 -33 
Q 819 25 488 141 
L 488 750 
Q 750 597 1062 519 
Q 1375 441 1716 441 
Q 2309 441 2620 675 
Q 2931 909 2931 1356 
Q 2931 1769 2642 2001 
Q 2353 2234 1838 2234 
L 1294 2234 
L 1294 2753 
L 1863 2753 
Q 2328 2753 2575 2939 
Q 2822 3125 2822 3475 
Q 2822 3834 2567 4026 
Q 2313 4219 1838 4219 
Q 1578 4219 1281 4162 
Q 984 4106 628 3988 
L 628 4550 
Q 988 4650 1302 4700 
Q 1616 4750 1894 4750 
Q 2613 4750 3031 4423 
Q 3450 4097 3450 3541 
Q 3450 3153 3228 2886 
Q 3006 2619 2597 2516 
z
" transform="scale(0.015625)"/>
       </defs>
       <use xlink:href="#DejaVuSans-32"/>
       <use xlink:href="#DejaVuSans-30" transform="translate(63.623047 0)"/>
       <use xlink:href="#DejaVuSans-33" transform="translate(127.246094 0)"/>
       <use xlink:href="#DejaVuSans-30" transform="translate(190.869141 0)"/>
      </g>
     </g>
    </g>
    <g id="text_5">
     <!-- Year -->
     <g transform="translate(132.976838 201.794687) scale(0.1 -0.1)">
      <defs>
       <path id="DejaVuSans-59" d="M -13 4666 
L 666 4666 
L 1959 2747 
L 3244 4666 
L 3922 4666 
L 2272 2222 
L 2272 0 
L 1638 0 
L 1638 2222 
L -13 4666 
z
" transform="scale(0.015625)"/>
       <path id="DejaVuSans-65" d="M 3597 1894 
L 3597 1613 
L 953 1613 
Q 991 1019 1311 708 
Q 1631 397 2203 397 
Q 2534 397 2845 478 
Q 3156 559 3463 722 
L 3463 178 
Q 3153 47 2828 -22 
Q 2503 -91 2169 -91 
Q 1331 -91 842 396 
Q 353 884 353 1716 
Q 353 2575 817 3079 
Q 1281 3584 2069 3584 
Q 2775 3584 3186 3129 
Q 3597 2675 3597 1894 
z
M 3022 2063 
Q 3016 2534 2758 2815 
Q 2500 3097 2075 3097 
Q 1594 3097 1305 2825 
Q 1016 2553 972 2059 
L 3022 2063 
z
" transform="scale(0.015625)"/>
       <path id="DejaVuSans-61" d="M 2194 1759 
Q 1497 1759 1228 1600 
Q 959 1441 959 1056 
Q 959 750 1161 570 
Q 1363 391 1709 391 
Q 2188 391 2477 730 
Q 2766 1069 2766 1631 
L 2766 1759 
L 2194 1759 
z
M 3341 1997 
L 3341 0 
L 2766 0 
L 2766 531 
Q 2569 213 2275 61 
Q 1981 -91 1556 -91 
Q 1019 -91 701 211 
Q 384 513 384 1019 
Q 384 1609 779 1909 
Q 1175 2209 1959 2209 
L 2766 2209 
L 2766 2266 
Q 2766 2663 2505 2880 
Q 2244 3097 1772 3097 
Q 1472 3097 1187 3025 
Q 903 2953 641 2809 
L 641 3341 
Q 956 3463 1253 3523 
Q 1550 3584 1831 3584 
Q 2591 3584 2966 3190 
Q 3341 2797 3341 1997 
z
" transform="scale(0.015625)"/>
       <path id="DejaVuSans-72" d="M 2631 2963 
Q 2534 3019 2420 3045 
Q 2306 3072 2169 3072 
Q 1681 3072 1420 2755 
Q 1159 2438 1159 1844 
L 1159 0 
L 581 0 
L 581 3500 
L 1159 3500 
L 1159 2956 
Q 1341 3275 1631 3429 
Q 1922 3584 2338 3584 
Q 2397 3584 2469 3576 
Q 2541 3569 2628 3553 
L 2631 2963 
z
" transform="scale(0.015625)"/>
      </defs>
      <use xlink:href="#DejaVuSans-59"/>
      <use xlink:href="#DejaVuSans-65" transform="translate(47.833984 0)"/>
      <use xlink:href="#DejaVuSans-61" transform="translate(109.357422 0)"/>
      <use xlink:href="#DejaVuSans-72" transform="translate(170.636719 0)"/>
     </g>
    </g>
   </g>
   <g id="matplotlib.axis_2">
    <g id="ytick_1">
     <g id="line2d_5">
      <defs>
       <path id="ma8a7f90cbf" d="M 0 0 
L -3.5 0 
" style="stroke: #000000; stroke-width: 0.8"/>
      </defs>
      <g>
       <use xlink:href="#ma8a7f90cbf" x="45.09375" y="173.518125" style="stroke: #000000; stroke-width: 0.8"/>
      </g>
     </g>
     <g id="text_6">
      <!-- 0 -->
      <g transform="translate(31.73125 177.317344) scale(0.1 -0.1)">
       <use xlink:href="#DejaVuSans-30"/>
      </g>
     </g>
    </g>
    <g id="ytick_2">
     <g id="line2d_6">
      <g>
       <use xlink:href="#ma8a7f90cbf" x="45.09375" y="150.964091" style="stroke: #000000; stroke-width: 0.8"/>
      </g>
     </g>
     <g id="text_7">
      <!-- 250K -->
      <g transform="translate(12.448438 154.76331) scale(0.1 -0.1)">
       <defs>
        <path id="DejaVuSans-35" d="M 691 4666 
L 3169 4666 
L 3169 4134 
L 1269 4134 
L 1269 2991 
Q 1406 3038 1543 3061 
Q 1681 3084 1819 3084 
Q 2600 3084 3056 2656 
Q 3513 2228 3513 1497 
Q 3513 744 3044 326 
Q 2575 -91 1722 -91 
Q 1428 -91 1123 -41 
Q 819 9 494 109 
L 494 744 
Q 775 591 1075 516 
Q 1375 441 1709 441 
Q 2250 441 2565 725 
Q 2881 1009 2881 1497 
Q 2881 1984 2565 2268 
Q 2250 2553 1709 2553 
Q 1456 2553 1204 2497 
Q 953 2441 691 2322 
L 691 4666 
z
" transform="scale(0.015625)"/>
        <path id="DejaVuSans-4b" d="M 628 4666 
L 1259 4666 
L 1259 2694 
L 3353 4666 
L 4166 4666 
L 1850 2491 
L 4331 0 
L 3500 0 
L 1259 2247 
L 1259 0 
L 628 0 
L 628 4666 
z
" transform="scale(0.015625)"/>
       </defs>
       <use xlink:href="#DejaVuSans-32"/>
       <use xlink:href="#DejaVuSans-35" transform="translate(63.623047 0)"/>
       <use xlink:href="#DejaVuSans-30" transform="translate(127.246094 0)"/>
       <use xlink:href="#DejaVuSans-4b" transform="translate(190.869141 0)"/>
      </g>
     </g>
    </g>
    <g id="ytick_3">
     <g id="line2d_7">
      <g>
       <use xlink:href="#ma8a7f90cbf" x="45.09375" y="128.410057" style="stroke: #000000; stroke-width: 0.8"/>
      </g>
     </g>
     <g id="text_8">
      <!-- 500K -->
      <g transform="translate(12.448438 132.209276) scale(0.1 -0.1)">
       <use xlink:href="#DejaVuSans-35"/>
       <use xlink:href="#DejaVuSans-30" transform="translate(63.623047 0)"/>
       <use xlink:href="#DejaVuSans-30" transform="translate(127.246094 0)"/>
       <use xlink:href="#DejaVuSans-4b" transform="translate(190.869141 0)"/>
      </g>
     </g>
    </g>
    <g id="ytick_4">
     <g id="line2d_8">
      <g>
       <use xlink:href="#ma8a7f90cbf" x="45.09375" y="105.856024" style="stroke: #000000; stroke-width: 0.8"/>
      </g>
     </g>
     <g id="text_9">
      <!-- 750K -->
      <g transform="translate(12.448438 109.655242) scale(0.1 -0.1)">
       <defs>
        <path id="DejaVuSans-37" d="M 525 4666 
L 3525 4666 
L 3525 4397 
L 1831 0 
L 1172 0 
L 2766 4134 
L 525 4134 
L 525 4666 
z
" transform="scale(0.015625)"/>
       </defs>
       <use xlink:href="#DejaVuSans-37"/>
       <use xlink:href="#DejaVuSans-35" transform="translate(63.623047 0)"/>
       <use xlink:href="#DejaVuSans-30" transform="translate(127.246094 0)"/>
       <use xlink:href="#DejaVuSans-4b" transform="translate(190.869141 0)"/>
      </g>
     </g>
    </g>
    <g id="ytick_5">
     <g id="line2d_9">
      <g>
       <use xlink:href="#ma8a7f90cbf" x="45.09375" y="83.30199" style="stroke: #000000; stroke-width: 0.8"/>
      </g>
     </g>
     <g id="text_10">
      <!-- 1M -->
      <g transform="translate(23.103125 87.101208) scale(0.1 -0.1)">
       <defs>
        <path id="DejaVuSans-4d" d="M 628 4666 
L 1569 4666 
L 2759 1491 
L 3956 4666 
L 4897 4666 
L 4897 0 
L 4281 0 
L 4281 4097 
L 3078 897 
L 2444 897 
L 1241 4097 
L 1241 0 
L 628 0 
L 628 4666 
z
" transform="scale(0.015625)"/>
       </defs>
       <use xlink:href="#DejaVuSans-31"/>
       <use xlink:href="#DejaVuSans-4d" transform="translate(63.623047 0)"/>
      </g>
     </g>
    </g>
    <g id="ytick_6">
     <g id="line2d_10">
      <g>
       <use xlink:href="#ma8a7f90cbf" x="45.09375" y="60.747956" style="stroke: #000000; stroke-width: 0.8"/>
      </g>
     </g>
     <g id="text_11">
      <!-- 1.25M -->
      <g transform="translate(7.2 64.547175) scale(0.1 -0.1)">
       <defs>
        <path id="DejaVuSans-2e" d="M 684 794 
L 1344 794 
L 1344 0 
L 684 0 
L 684 794 
z
" transform="scale(0.015625)"/>
       </defs>
       <use xlink:href="#DejaVuSans-31"/>
       <use xlink:href="#DejaVuSans-2e" transform="translate(63.623047 0)"/>
       <use xlink:href="#DejaVuSans-32" transform="translate(95.410156 0)"/>
       <use xlink:href="#DejaVuSans-35" transform="translate(159.033203 0)"/>
       <use xlink:href="#DejaVuSans-4d" transform="translate(222.65625 0)"/>
      </g>
     </g>
    </g>
    <g id="ytick_7">
     <g id="line2d_11">
      <g>
       <use xlink:href="#ma8a7f90cbf" x="45.09375" y="38.193922" style="stroke: #000000; stroke-width: 0.8"/>
      </g>
     </g>
     <g id="text_12">
      <!-- 1.5M -->
      <g transform="translate(13.5625 41.993141) scale(0.1 -0.1)">
       <use xlink:href="#DejaVuSans-31"/>
       <use xlink:href="#DejaVuSans-2e" transform="translate(63.623047 0)"/>
       <use xlink:href="#DejaVuSans-35" transform="translate(95.410156 0)"/>
       <use xlink:href="#DejaVuSans-4d" transform="translate(159.033203 0)"/>
      </g>
     </g>
    </g>
   </g>
   <g id="line2d_12">
    <path d="M 45.09375 38.193922 
L 47.907195 37.463038 
L 50.720641 36.857075 
L 53.534086 36.364439 
L 56.347532 35.974181 
L 59.160977 35.676358 
L 61.974422 35.461965 
L 64.787868 35.322795 
L 67.601313 35.251452 
L 70.414758 35.241122 
L 73.228204 35.285816 
L 76.041649 35.380028 
L 78.855095 35.5877 
L 81.66854 35.897457 
L 84.481985 36.298915 
L 87.295431 36.782418 
L 90.108876 37.339453 
L 92.922321 37.96202 
L 95.735767 38.642907 
L 98.549212 39.375771 
L 101.362658 40.154651 
L 104.176103 40.974311 
L 106.989548 41.763754 
L 109.802994 42.52614 
L 112.616439 43.264303 
L 115.429884 43.980888 
L 118.24333 44.678372 
L 121.056775 45.358753 
L 123.870221 46.023737 
L 126.683666 46.67523 
L 129.497111 47.314959 
L 132.310557 47.944022 
L 135.124002 48.577027 
L 137.937447 49.213728 
L 140.750893 49.853921 
L 143.564338 50.497045 
L 146.377784 51.075009 
L 149.191229 51.594505 
L 152.004674 52.06145 
L 154.81812 52.481147 
L 157.631565 52.858366 
L 160.445011 53.197398 
L 163.258456 53.502105 
L 166.071901 53.775955 
L 168.885347 54.022071 
L 171.698792 54.243259 
L 174.512237 54.442042 
L 177.325683 54.62069 
L 180.139128 54.781242 
L 182.952574 54.925531 
L 185.766019 55.055206 
L 188.579464 55.171748 
L 191.39291 55.27649 
L 194.206355 55.370628 
L 197.0198 55.455238 
L 199.833246 55.531287 
L 202.646691 55.599645 
L 205.460137 55.661091 
L 208.273582 55.716329 
L 211.087027 55.765987 
L 213.900473 55.810634 
L 216.713918 55.850777 
L 219.527363 55.886874 
L 222.340809 55.919335 
L 225.154254 55.94853 
L 227.9677 55.97479 
L 230.781145 55.998412 
L 233.59459 56.019665 
L 236.408036 56.038787 
L 239.221481 56.055996 
L 242.034926 56.071484 
" clip-path="url(#p64432afcb6)" style="fill: none; stroke: #377eb8; stroke-width: 3; stroke-linecap: square"/>
   </g>
   <g id="line2d_13">
    <path d="M 45.09375 145.100042 
L 47.907195 145.235367 
L 50.720641 145.370691 
L 53.534086 145.506015 
L 56.347532 145.641339 
L 59.160977 145.776663 
L 61.974422 145.911988 
L 64.787868 146.047312 
L 67.601313 146.182636 
L 70.414758 146.31796 
L 73.228204 146.453284 
L 76.041649 146.588609 
L 78.855095 146.723933 
L 81.66854 146.859257 
L 84.481985 146.994581 
L 87.295431 147.129905 
L 90.108876 147.26523 
L 92.922321 147.400554 
L 95.735767 147.535878 
L 98.549212 147.671202 
L 101.362658 147.806526 
L 104.176103 147.941851 
L 106.989548 148.077175 
L 109.802994 148.212499 
L 112.616439 148.347823 
L 115.429884 148.483147 
L 118.24333 148.618472 
L 121.056775 148.753796 
L 123.870221 148.88912 
L 126.683666 149.024444 
L 129.497111 149.159768 
L 132.310557 149.295093 
L 135.124002 149.430417 
L 137.937447 149.565741 
L 140.750893 149.701065 
L 143.564338 149.701065 
L 146.377784 149.701065 
L 149.191229 149.701065 
L 152.004674 149.701065 
L 154.81812 149.701065 
L 157.631565 149.701065 
L 160.445011 149.701065 
L 163.258456 149.701065 
L 166.071901 149.701065 
L 168.885347 149.701065 
L 171.698792 149.701065 
L 174.512237 149.701065 
L 177.325683 149.701065 
L 180.139128 149.701065 
L 182.952574 149.701065 
L 185.766019 149.701065 
L 188.579464 149.701065 
L 191.39291 149.701065 
L 194.206355 149.701065 
L 197.0198 149.701065 
L 199.833246 149.701065 
L 202.646691 149.701065 
L 205.460137 149.701065 
L 208.273582 149.701065 
L 211.087027 149.701065 
L 213.900473 149.701065 
L 216.713918 149.701065 
L 219.527363 149.701065 
L 222.340809 149.701065 
L 225.154254 149.701065 
L 227.9677 149.701065 
L 230.781145 149.701065 
L 233.59459 149.701065 
L 236.408036 149.701065 
L 239.221481 149.701065 
L 242.034926 149.701065 
" clip-path="url(#p64432afcb6)" style="fill: none; stroke: #e41a1c; stroke-width: 3; stroke-linecap: square"/>
   </g>
   <g id="patch_3">
    <path d="M 45.09375 173.518125 
L 45.09375 22.318125 
" style="fill: none; stroke: #000000; stroke-width: 0.8; stroke-linejoin: miter; stroke-linecap: square"/>
   </g>
   <g id="patch_4">
    <path d="M 242.034926 173.518125 
L 242.034926 22.318125 
" style="fill: none"/>
   </g>
   <g id="patch_5">
    <path d="M 45.09375 173.518125 
L 242.034926 173.518125 
" style="fill: none; stroke: #000000; stroke-width: 0.8; stroke-linejoin: miter; stroke-linecap: square"/>
   </g>
   <g id="patch_6">
    <path d="M 45.09375 22.318125 
L 242.034926 22.318125 
" style="fill: none"/>
   </g>
   <g id="text_13">
    <!-- Baseline-0-4 -->
    <g transform="translate(106.160901 16.318125) scale(0.12 -0.12)">
     <defs>
      <path id="DejaVuSans-42" d="M 1259 2228 
L 1259 519 
L 2272 519 
Q 2781 519 3026 730 
Q 3272 941 3272 1375 
Q 3272 1813 3026 2020 
Q 2781 2228 2272 2228 
L 1259 2228 
z
M 1259 4147 
L 1259 2741 
L 2194 2741 
Q 2656 2741 2882 2914 
Q 3109 3088 3109 3444 
Q 3109 3797 2882 3972 
Q 2656 4147 2194 4147 
L 1259 4147 
z
M 628 4666 
L 2241 4666 
Q 2963 4666 3353 4366 
Q 3744 4066 3744 3513 
Q 3744 3084 3544 2831 
Q 3344 2578 2956 2516 
Q 3422 2416 3680 2098 
Q 3938 1781 3938 1306 
Q 3938 681 3513 340 
Q 3088 0 2303 0 
L 628 0 
L 628 4666 
z
" transform="scale(0.015625)"/>
      <path id="DejaVuSans-73" d="M 2834 3397 
L 2834 2853 
Q 2591 2978 2328 3040 
Q 2066 3103 1784 3103 
Q 1356 3103 1142 2972 
Q 928 2841 928 2578 
Q 928 2378 1081 2264 
Q 1234 2150 1697 2047 
L 1894 2003 
Q 2506 1872 2764 1633 
Q 3022 1394 3022 966 
Q 3022 478 2636 193 
Q 2250 -91 1575 -91 
Q 1294 -91 989 -36 
Q 684 19 347 128 
L 347 722 
Q 666 556 975 473 
Q 1284 391 1588 391 
Q 1994 391 2212 530 
Q 2431 669 2431 922 
Q 2431 1156 2273 1281 
Q 2116 1406 1581 1522 
L 1381 1569 
Q 847 1681 609 1914 
Q 372 2147 372 2553 
Q 372 3047 722 3315 
Q 1072 3584 1716 3584 
Q 2034 3584 2315 3537 
Q 2597 3491 2834 3397 
z
" transform="scale(0.015625)"/>
      <path id="DejaVuSans-6c" d="M 603 4863 
L 1178 4863 
L 1178 0 
L 603 0 
L 603 4863 
z
" transform="scale(0.015625)"/>
      <path id="DejaVuSans-69" d="M 603 3500 
L 1178 3500 
L 1178 0 
L 603 0 
L 603 3500 
z
M 603 4863 
L 1178 4863 
L 1178 4134 
L 603 4134 
L 603 4863 
z
" transform="scale(0.015625)"/>
      <path id="DejaVuSans-6e" d="M 3513 2113 
L 3513 0 
L 2938 0 
L 2938 2094 
Q 2938 2591 2744 2837 
Q 2550 3084 2163 3084 
Q 1697 3084 1428 2787 
Q 1159 2491 1159 1978 
L 1159 0 
L 581 0 
L 581 3500 
L 1159 3500 
L 1159 2956 
Q 1366 3272 1645 3428 
Q 1925 3584 2291 3584 
Q 2894 3584 3203 3211 
Q 3513 2838 3513 2113 
z
" transform="scale(0.015625)"/>
      <path id="DejaVuSans-2d" d="M 313 2009 
L 1997 2009 
L 1997 1497 
L 313 1497 
L 313 2009 
z
" transform="scale(0.015625)"/>
      <path id="DejaVuSans-34" d="M 2419 4116 
L 825 1625 
L 2419 1625 
L 2419 4116 
z
M 2253 4666 
L 3047 4666 
L 3047 1625 
L 3713 1625 
L 3713 1100 
L 3047 1100 
L 3047 0 
L 2419 0 
L 2419 1100 
L 313 1100 
L 313 1709 
L 2253 4666 
z
" transform="scale(0.015625)"/>
     </defs>
     <use xlink:href="#DejaVuSans-42"/>
     <use xlink:href="#DejaVuSans-61" transform="translate(68.603516 0)"/>
     <use xlink:href="#DejaVuSans-73" transform="translate(129.882812 0)"/>
     <use xlink:href="#DejaVuSans-65" transform="translate(181.982422 0)"/>
     <use xlink:href="#DejaVuSans-6c" transform="translate(243.505859 0)"/>
     <use xlink:href="#DejaVuSans-69" transform="translate(271.289062 0)"/>
     <use xlink:href="#DejaVuSans-6e" transform="translate(299.072266 0)"/>
     <use xlink:href="#DejaVuSans-65" transform="translate(362.451172 0)"/>
     <use xlink:href="#DejaVuSans-2d" transform="translate(423.974609 0)"/>
     <use xlink:href="#DejaVuSans-30" transform="translate(460.058594 0)"/>
     <use xlink:href="#DejaVuSans-2d" transform="translate(523.681641 0)"/>
     <use xlink:href="#DejaVuSans-34" transform="translate(559.765625 0)"/>
    </g>
   </g>
   <g id="legend_1">
    <g id="patch_7">
     <path d="M 258.881985 114.235312 
L 322.542923 114.235312 
Q 324.542923 114.235312 324.542923 112.235312 
L 324.542923 83.600937 
Q 324.542923 81.600937 322.542923 81.600937 
L 258.881985 81.600937 
Q 256.881985 81.600937 256.881985 83.600937 
L 256.881985 112.235312 
Q 256.881985 114.235312 258.881985 114.235312 
L 258.881985 114.235312 
z
" style="fill: none; opacity: 0"/>
    </g>
    <g id="line2d_14">
     <path d="M 260.881985 89.699375 
L 270.881985 89.699375 
L 280.881985 89.699375 
" style="fill: none; stroke: #377eb8; stroke-width: 3; stroke-linecap: square"/>
    </g>
    <g id="text_14">
     <!-- alive -->
     <g transform="translate(288.881985 93.199375) scale(0.1 -0.1)">
      <defs>
       <path id="DejaVuSans-76" d="M 191 3500 
L 800 3500 
L 1894 563 
L 2988 3500 
L 3597 3500 
L 2284 0 
L 1503 0 
L 191 3500 
z
" transform="scale(0.015625)"/>
      </defs>
      <use xlink:href="#DejaVuSans-61"/>
      <use xlink:href="#DejaVuSans-6c" transform="translate(61.279297 0)"/>
      <use xlink:href="#DejaVuSans-69" transform="translate(89.0625 0)"/>
      <use xlink:href="#DejaVuSans-76" transform="translate(116.845703 0)"/>
      <use xlink:href="#DejaVuSans-65" transform="translate(176.025391 0)"/>
     </g>
    </g>
    <g id="line2d_15">
     <path d="M 260.881985 104.3775 
L 270.881985 104.3775 
L 280.881985 104.3775 
" style="fill: none; stroke: #e41a1c; stroke-width: 3; stroke-linecap: square"/>
    </g>
    <g id="text_15">
     <!-- b_rate -->
     <g transform="translate(288.881985 107.8775) scale(0.1 -0.1)">
      <defs>
       <path id="DejaVuSans-62" d="M 3116 1747 
Q 3116 2381 2855 2742 
Q 2594 3103 2138 3103 
Q 1681 3103 1420 2742 
Q 1159 2381 1159 1747 
Q 1159 1113 1420 752 
Q 1681 391 2138 391 
Q 2594 391 2855 752 
Q 3116 1113 3116 1747 
z
M 1159 2969 
Q 1341 3281 1617 3432 
Q 1894 3584 2278 3584 
Q 2916 3584 3314 3078 
Q 3713 2572 3713 1747 
Q 3713 922 3314 415 
Q 2916 -91 2278 -91 
Q 1894 -91 1617 61 
Q 1341 213 1159 525 
L 1159 0 
L 581 0 
L 581 4863 
L 1159 4863 
L 1159 2969 
z
" transform="scale(0.015625)"/>
       <path id="DejaVuSans-5f" d="M 3263 -1063 
L 3263 -1509 
L -63 -1509 
L -63 -1063 
L 3263 -1063 
z
" transform="scale(0.015625)"/>
       <path id="DejaVuSans-74" d="M 1172 4494 
L 1172 3500 
L 2356 3500 
L 2356 3053 
L 1172 3053 
L 1172 1153 
Q 1172 725 1289 603 
Q 1406 481 1766 481 
L 2356 481 
L 2356 0 
L 1766 0 
Q 1100 0 847 248 
Q 594 497 594 1153 
L 594 3053 
L 172 3053 
L 172 3500 
L 594 3500 
L 594 4494 
L 1172 4494 
z
" transform="scale(0.015625)"/>
      </defs>
      <use xlink:href="#DejaVuSans-62"/>
      <use xlink:href="#DejaVuSans-5f" transform="translate(63.476562 0)"/>
      <use xlink:href="#DejaVuSans-72" transform="translate(113.476562 0)"/>
      <use xlink:href="#DejaVuSans-61" transform="translate(154.589844 0)"/>
      <use xlink:href="#DejaVuSans-74" transform="translate(215.869141 0)"/>
      <use xlink:href="#DejaVuSans-65" transform="translate(255.078125 0)"/>
     </g>
    </g>
   </g>
  </g>
  <g id="axes_2">
   <g id="patch_8">
    <path d="M 340.505515 173.518125 
L 537.446691 173.518125 
L 537.446691 22.318125 
L 340.505515 22.318125 
L 340.505515 173.518125 
z
" style="fill: none; opacity: 0"/>
   </g>
   <g id="PathCollection_3">
    <defs>
     <path id="C2_0_9d2970d2f8" d="M 0 3.162278 
C 0.838646 3.162278 1.643056 2.82908 2.236068 2.236068 
C 2.82908 1.643056 3.162278 0.838646 3.162278 -0 
C 3.162278 -0.838646 2.82908 -1.643056 2.236068 -2.236068 
C 1.643056 -2.82908 0.838646 -3.162278 0 -3.162278 
C -0.838646 -3.162278 -1.643056 -2.82908 -2.236068 -2.236068 
C -2.82908 -1.643056 -3.162278 -0.838646 -3.162278 0 
C -3.162278 0.838646 -2.82908 1.643056 -2.236068 2.236068 
C -1.643056 2.82908 -0.838646 3.162278 0 3.162278 
z
"/>
    </defs>
    <g clip-path="url(#p5b669616a7)">
     <use xlink:href="#C2_0_9d2970d2f8" x="340.505515" y="36.375268" style="fill: none; stroke: #377eb8; stroke-width: 3"/>
    </g>
    <g clip-path="url(#p5b669616a7)">
     <use xlink:href="#C2_0_9d2970d2f8" x="346.132405" y="38.158125" style="fill: none; stroke: #377eb8; stroke-width: 3"/>
    </g>
    <g clip-path="url(#p5b669616a7)">
     <use xlink:href="#C2_0_9d2970d2f8" x="351.759296" y="39.666696" style="fill: none; stroke: #377eb8; stroke-width: 3"/>
    </g>
    <g clip-path="url(#p5b669616a7)">
     <use xlink:href="#C2_0_9d2970d2f8" x="357.386187" y="41.038125" style="fill: none; stroke: #377eb8; stroke-width: 3"/>
    </g>
    <g clip-path="url(#p5b669616a7)">
     <use xlink:href="#C2_0_9d2970d2f8" x="363.013078" y="42.203839" style="fill: none; stroke: #377eb8; stroke-width: 3"/>
    </g>
    <g clip-path="url(#p5b669616a7)">
     <use xlink:href="#C2_0_9d2970d2f8" x="368.639968" y="43.163839" style="fill: none; stroke: #377eb8; stroke-width: 3"/>
    </g>
    <g clip-path="url(#p5b669616a7)">
     <use xlink:href="#C2_0_9d2970d2f8" x="374.266859" y="44.055268" style="fill: none; stroke: #377eb8; stroke-width: 3"/>
    </g>
    <g clip-path="url(#p5b669616a7)">
     <use xlink:href="#C2_0_9d2970d2f8" x="379.89375" y="44.603839" style="fill: none; stroke: #377eb8; stroke-width: 3"/>
    </g>
    <g clip-path="url(#p5b669616a7)">
     <use xlink:href="#C2_0_9d2970d2f8" x="385.520641" y="44.946696" style="fill: none; stroke: #377eb8; stroke-width: 3"/>
    </g>
    <g clip-path="url(#p5b669616a7)">
     <use xlink:href="#C2_0_9d2970d2f8" x="391.147532" y="45.152411" style="fill: none; stroke: #377eb8; stroke-width: 3"/>
    </g>
    <g clip-path="url(#p5b669616a7)">
     <use xlink:href="#C2_0_9d2970d2f8" x="396.774422" y="45.220982" style="fill: none; stroke: #377eb8; stroke-width: 3"/>
    </g>
    <g clip-path="url(#p5b669616a7)">
     <use xlink:href="#C2_0_9d2970d2f8" x="402.401313" y="45.358125" style="fill: none; stroke: #377eb8; stroke-width: 3"/>
    </g>
    <g clip-path="url(#p5b669616a7)">
     <use xlink:href="#C2_0_9d2970d2f8" x="408.028204" y="45.563839" style="fill: none; stroke: #377eb8; stroke-width: 3"/>
    </g>
    <g clip-path="url(#p5b669616a7)">
     <use xlink:href="#C2_0_9d2970d2f8" x="413.655095" y="45.838125" style="fill: none; stroke: #377eb8; stroke-width: 3"/>
    </g>
    <g clip-path="url(#p5b669616a7)">
     <use xlink:href="#C2_0_9d2970d2f8" x="419.281985" y="46.249554" style="fill: none; stroke: #377eb8; stroke-width: 3"/>
    </g>
    <g clip-path="url(#p5b669616a7)">
     <use xlink:href="#C2_0_9d2970d2f8" x="424.908876" y="46.729554" style="fill: none; stroke: #377eb8; stroke-width: 3"/>
    </g>
    <g clip-path="url(#p5b669616a7)">
     <use xlink:href="#C2_0_9d2970d2f8" x="430.535767" y="47.278125" style="fill: none; stroke: #377eb8; stroke-width: 3"/>
    </g>
    <g clip-path="url(#p5b669616a7)">
     <use xlink:href="#C2_0_9d2970d2f8" x="436.162658" y="47.895268" style="fill: none; stroke: #377eb8; stroke-width: 3"/>
    </g>
   </g>
   <g id="matplotlib.axis_3">
    <g id="xtick_5">
     <g id="line2d_16">
      <g>
       <use xlink:href="#meed06e1bba" x="340.505515" y="173.518125" style="stroke: #000000; stroke-width: 0.8"/>
      </g>
     </g>
     <g id="text_16">
      <!-- 2000 -->
      <g transform="translate(327.780515 188.116562) scale(0.1 -0.1)">
       <use xlink:href="#DejaVuSans-32"/>
       <use xlink:href="#DejaVuSans-30" transform="translate(63.623047 0)"/>
       <use xlink:href="#DejaVuSans-30" transform="translate(127.246094 0)"/>
       <use xlink:href="#DejaVuSans-30" transform="translate(190.869141 0)"/>
      </g>
     </g>
    </g>
    <g id="xtick_6">
     <g id="line2d_17">
      <g>
       <use xlink:href="#meed06e1bba" x="396.774422" y="173.518125" style="stroke: #000000; stroke-width: 0.8"/>
      </g>
     </g>
     <g id="text_17">
      <!-- 2010 -->
      <g transform="translate(384.049422 188.116562) scale(0.1 -0.1)">
       <use xlink:href="#DejaVuSans-32"/>
       <use xlink:href="#DejaVuSans-30" transform="translate(63.623047 0)"/>
       <use xlink:href="#DejaVuSans-31" transform="translate(127.246094 0)"/>
       <use xlink:href="#DejaVuSans-30" transform="translate(190.869141 0)"/>
      </g>
     </g>
    </g>
    <g id="xtick_7">
     <g id="line2d_18">
      <g>
       <use xlink:href="#meed06e1bba" x="453.04333" y="173.518125" style="stroke: #000000; stroke-width: 0.8"/>
      </g>
     </g>
     <g id="text_18">
      <!-- 2020 -->
      <g transform="translate(440.31833 188.116562) scale(0.1 -0.1)">
       <use xlink:href="#DejaVuSans-32"/>
       <use xlink:href="#DejaVuSans-30" transform="translate(63.623047 0)"/>
       <use xlink:href="#DejaVuSans-32" transform="translate(127.246094 0)"/>
       <use xlink:href="#DejaVuSans-30" transform="translate(190.869141 0)"/>
      </g>
     </g>
    </g>
    <g id="xtick_8">
     <g id="line2d_19">
      <g>
       <use xlink:href="#meed06e1bba" x="509.312237" y="173.518125" style="stroke: #000000; stroke-width: 0.8"/>
      </g>
     </g>
     <g id="text_19">
      <!-- 2030 -->
      <g transform="translate(496.587237 188.116562) scale(0.1 -0.1)">
       <use xlink:href="#DejaVuSans-32"/>
       <use xlink:href="#DejaVuSans-30" transform="translate(63.623047 0)"/>
       <use xlink:href="#DejaVuSans-33" transform="translate(127.246094 0)"/>
       <use xlink:href="#DejaVuSans-30" transform="translate(190.869141 0)"/>
      </g>
     </g>
    </g>
    <g id="text_20">
     <!-- Year -->
     <g transform="translate(428.388603 201.794687) scale(0.1 -0.1)">
      <use xlink:href="#DejaVuSans-59"/>
      <use xlink:href="#DejaVuSans-65" transform="translate(47.833984 0)"/>
      <use xlink:href="#DejaVuSans-61" transform="translate(109.357422 0)"/>
      <use xlink:href="#DejaVuSans-72" transform="translate(170.636719 0)"/>
     </g>
    </g>
   </g>
   <g id="matplotlib.axis_4">
    <g id="ytick_8">
     <g id="line2d_20">
      <g>
       <use xlink:href="#ma8a7f90cbf" x="340.505515" y="173.518125" style="stroke: #000000; stroke-width: 0.8"/>
      </g>
     </g>
     <g id="text_21">
      <!-- 0 -->
      <g transform="translate(327.143015 177.317344) scale(0.1 -0.1)">
       <use xlink:href="#DejaVuSans-30"/>
      </g>
     </g>
    </g>
    <g id="ytick_9">
     <g id="line2d_21">
      <g>
       <use xlink:href="#ma8a7f90cbf" x="340.505515" y="150.660982" style="stroke: #000000; stroke-width: 0.8"/>
      </g>
     </g>
     <g id="text_22">
      <!-- 500K -->
      <g transform="translate(307.860202 154.460201) scale(0.1 -0.1)">
       <use xlink:href="#DejaVuSans-35"/>
       <use xlink:href="#DejaVuSans-30" transform="translate(63.623047 0)"/>
       <use xlink:href="#DejaVuSans-30" transform="translate(127.246094 0)"/>
       <use xlink:href="#DejaVuSans-4b" transform="translate(190.869141 0)"/>
      </g>
     </g>
    </g>
    <g id="ytick_10">
     <g id="line2d_22">
      <g>
       <use xlink:href="#ma8a7f90cbf" x="340.505515" y="127.803839" style="stroke: #000000; stroke-width: 0.8"/>
      </g>
     </g>
     <g id="text_23">
      <!-- 1M -->
      <g transform="translate(318.51489 131.603058) scale(0.1 -0.1)">
       <use xlink:href="#DejaVuSans-31"/>
       <use xlink:href="#DejaVuSans-4d" transform="translate(63.623047 0)"/>
      </g>
     </g>
    </g>
    <g id="ytick_11">
     <g id="line2d_23">
      <g>
       <use xlink:href="#ma8a7f90cbf" x="340.505515" y="104.946696" style="stroke: #000000; stroke-width: 0.8"/>
      </g>
     </g>
     <g id="text_24">
      <!-- 1.5M -->
      <g transform="translate(308.974265 108.745915) scale(0.1 -0.1)">
       <use xlink:href="#DejaVuSans-31"/>
       <use xlink:href="#DejaVuSans-2e" transform="translate(63.623047 0)"/>
       <use xlink:href="#DejaVuSans-35" transform="translate(95.410156 0)"/>
       <use xlink:href="#DejaVuSans-4d" transform="translate(159.033203 0)"/>
      </g>
     </g>
    </g>
    <g id="ytick_12">
     <g id="line2d_24">
      <g>
       <use xlink:href="#ma8a7f90cbf" x="340.505515" y="82.089554" style="stroke: #000000; stroke-width: 0.8"/>
      </g>
     </g>
     <g id="text_25">
      <!-- 2M -->
      <g transform="translate(318.51489 85.888772) scale(0.1 -0.1)">
       <use xlink:href="#DejaVuSans-32"/>
       <use xlink:href="#DejaVuSans-4d" transform="translate(63.623047 0)"/>
      </g>
     </g>
    </g>
    <g id="ytick_13">
     <g id="line2d_25">
      <g>
       <use xlink:href="#ma8a7f90cbf" x="340.505515" y="59.232411" style="stroke: #000000; stroke-width: 0.8"/>
      </g>
     </g>
     <g id="text_26">
      <!-- 2.5M -->
      <g transform="translate(308.974265 63.031629) scale(0.1 -0.1)">
       <use xlink:href="#DejaVuSans-32"/>
       <use xlink:href="#DejaVuSans-2e" transform="translate(63.623047 0)"/>
       <use xlink:href="#DejaVuSans-35" transform="translate(95.410156 0)"/>
       <use xlink:href="#DejaVuSans-4d" transform="translate(159.033203 0)"/>
      </g>
     </g>
    </g>
    <g id="ytick_14">
     <g id="line2d_26">
      <g>
       <use xlink:href="#ma8a7f90cbf" x="340.505515" y="36.375268" style="stroke: #000000; stroke-width: 0.8"/>
      </g>
     </g>
     <g id="text_27">
      <!-- 3M -->
      <g transform="translate(318.51489 40.174487) scale(0.1 -0.1)">
       <use xlink:href="#DejaVuSans-33"/>
       <use xlink:href="#DejaVuSans-4d" transform="translate(63.623047 0)"/>
      </g>
     </g>
    </g>
   </g>
   <g id="line2d_27">
    <path d="M 340.505515 36.375268 
L 343.31896 37.491634 
L 346.132405 38.489396 
L 348.945851 39.382518 
L 351.759296 40.181968 
L 354.572742 40.897723 
L 357.386187 41.538907 
L 360.199632 42.11374 
L 363.013078 42.629632 
L 365.826523 43.093238 
L 368.639968 43.510501 
L 371.453414 43.886761 
L 374.266859 44.191845 
L 377.080305 44.435318 
L 379.89375 44.625595 
L 382.707195 44.77027 
L 385.520641 44.875949 
L 388.334086 44.948616 
L 391.147532 44.993648 
L 393.960977 45.015749 
L 396.774422 45.019185 
L 399.587868 45.007637 
L 402.401313 45.017955 
L 405.214758 45.047537 
L 408.028204 45.094012 
L 410.841649 45.155259 
L 413.655095 45.229387 
L 416.46854 45.314683 
L 419.281985 45.409999 
L 422.095431 45.513877 
L 424.908876 45.625032 
L 427.722321 45.742733 
L 430.535767 45.886853 
L 433.349212 46.056047 
L 436.162658 46.249061 
L 438.976103 46.465004 
L 441.789548 46.702905 
L 444.602994 46.95824 
L 447.416439 47.227144 
L 450.229884 47.506254 
L 453.04333 47.792641 
L 455.856775 48.083768 
L 458.670221 48.377447 
L 461.483666 48.671796 
L 464.297111 48.965206 
L 467.110557 49.256308 
L 469.924002 49.543946 
L 472.737447 49.827152 
L 475.550893 50.105123 
L 478.364338 50.3772 
L 481.177784 50.642851 
L 483.991229 50.901657 
L 486.804674 51.153295 
L 489.61812 51.397525 
L 492.431565 51.634183 
L 495.245011 51.863166 
L 498.058456 52.084429 
L 500.871901 52.297969 
L 503.685347 52.503827 
L 506.498792 52.702077 
L 509.312237 52.89282 
L 512.125683 53.076182 
L 514.939128 53.252308 
L 517.752574 53.421359 
L 520.566019 53.583511 
L 523.379464 53.738946 
L 526.19291 53.887856 
L 529.006355 54.030438 
L 531.8198 54.166893 
L 534.633246 54.297423 
L 537.446691 54.422232 
" clip-path="url(#p5b669616a7)" style="fill: none; stroke: #377eb8; stroke-width: 3; stroke-linecap: square"/>
   </g>
   <g id="line2d_28">
    <path d="M 340.505515 173.518125 
L 343.31896 173.518125 
L 346.132405 173.518125 
L 348.945851 173.518125 
L 351.759296 173.518125 
L 354.572742 173.518125 
L 357.386187 173.518125 
L 360.199632 173.518125 
L 363.013078 173.518125 
L 365.826523 173.518125 
L 368.639968 173.518125 
L 371.453414 173.518125 
L 374.266859 173.518125 
L 377.080305 173.518125 
L 379.89375 173.518125 
L 382.707195 173.518125 
L 385.520641 173.518125 
L 388.334086 173.518125 
L 391.147532 173.518125 
L 393.960977 173.518125 
L 396.774422 173.518125 
L 399.587868 173.518125 
L 402.401313 173.518125 
L 405.214758 173.518125 
L 408.028204 173.518125 
L 410.841649 173.518125 
L 413.655095 173.518125 
L 416.46854 173.518125 
L 419.281985 173.518125 
L 422.095431 173.518125 
L 424.908876 173.518125 
L 427.722321 173.518125 
L 430.535767 173.518125 
L 433.349212 173.518125 
L 436.162658 173.518125 
L 438.976103 173.518125 
L 441.789548 173.518125 
L 444.602994 173.518125 
L 447.416439 173.518125 
L 450.229884 173.518125 
L 453.04333 173.518125 
L 455.856775 173.518125 
L 458.670221 173.518125 
L 461.483666 173.518125 
L 464.297111 173.518125 
L 467.110557 173.518125 
L 469.924002 173.518125 
L 472.737447 173.518125 
L 475.550893 173.518125 
L 478.364338 173.518125 
L 481.177784 173.518125 
L 483.991229 173.518125 
L 486.804674 173.518125 
L 489.61812 173.518125 
L 492.431565 173.518125 
L 495.245011 173.518125 
L 498.058456 173.518125 
L 500.871901 173.518125 
L 503.685347 173.518125 
L 506.498792 173.518125 
L 509.312237 173.518125 
L 512.125683 173.518125 
L 514.939128 173.518125 
L 517.752574 173.518125 
L 520.566019 173.518125 
L 523.379464 173.518125 
L 526.19291 173.518125 
L 529.006355 173.518125 
L 531.8198 173.518125 
L 534.633246 173.518125 
L 537.446691 173.518125 
" clip-path="url(#p5b669616a7)" style="fill: none; stroke: #e41a1c; stroke-width: 3; stroke-linecap: square"/>
   </g>
   <g id="patch_9">
    <path d="M 340.505515 173.518125 
L 340.505515 22.318125 
" style="fill: none; stroke: #000000; stroke-width: 0.8; stroke-linejoin: miter; stroke-linecap: square"/>
   </g>
   <g id="patch_10">
    <path d="M 537.446691 173.518125 
L 537.446691 22.318125 
" style="fill: none"/>
   </g>
   <g id="patch_11">
    <path d="M 340.505515 173.518125 
L 537.446691 173.518125 
" style="fill: none; stroke: #000000; stroke-width: 0.8; stroke-linejoin: miter; stroke-linecap: square"/>
   </g>
   <g id="patch_12">
    <path d="M 340.505515 22.318125 
L 537.446691 22.318125 
" style="fill: none"/>
   </g>
   <g id="text_28">
    <!-- Baseline-5-14 -->
    <g transform="translate(397.755165 16.318125) scale(0.12 -0.12)">
     <use xlink:href="#DejaVuSans-42"/>
     <use xlink:href="#DejaVuSans-61" transform="translate(68.603516 0)"/>
     <use xlink:href="#DejaVuSans-73" transform="translate(129.882812 0)"/>
     <use xlink:href="#DejaVuSans-65" transform="translate(181.982422 0)"/>
     <use xlink:href="#DejaVuSans-6c" transform="translate(243.505859 0)"/>
     <use xlink:href="#DejaVuSans-69" transform="translate(271.289062 0)"/>
     <use xlink:href="#DejaVuSans-6e" transform="translate(299.072266 0)"/>
     <use xlink:href="#DejaVuSans-65" transform="translate(362.451172 0)"/>
     <use xlink:href="#DejaVuSans-2d" transform="translate(423.974609 0)"/>
     <use xlink:href="#DejaVuSans-35" transform="translate(460.058594 0)"/>
     <use xlink:href="#DejaVuSans-2d" transform="translate(523.681641 0)"/>
     <use xlink:href="#DejaVuSans-31" transform="translate(559.765625 0)"/>
     <use xlink:href="#DejaVuSans-34" transform="translate(623.388672 0)"/>
    </g>
   </g>
   <g id="legend_2">
    <g id="patch_13">
     <path d="M 554.29375 114.235312 
L 617.954688 114.235312 
Q 619.954688 114.235312 619.954688 112.235312 
L 619.954688 83.600937 
Q 619.954688 81.600937 617.954688 81.600937 
L 554.29375 81.600937 
Q 552.29375 81.600937 552.29375 83.600937 
L 552.29375 112.235312 
Q 552.29375 114.235312 554.29375 114.235312 
L 554.29375 114.235312 
z
" style="fill: none; opacity: 0"/>
    </g>
    <g id="line2d_29">
     <path d="M 556.29375 89.699375 
L 566.29375 89.699375 
L 576.29375 89.699375 
" style="fill: none; stroke: #377eb8; stroke-width: 3; stroke-linecap: square"/>
    </g>
    <g id="text_29">
     <!-- alive -->
     <g transform="translate(584.29375 93.199375) scale(0.1 -0.1)">
      <use xlink:href="#DejaVuSans-61"/>
      <use xlink:href="#DejaVuSans-6c" transform="translate(61.279297 0)"/>
      <use xlink:href="#DejaVuSans-69" transform="translate(89.0625 0)"/>
      <use xlink:href="#DejaVuSans-76" transform="translate(116.845703 0)"/>
      <use xlink:href="#DejaVuSans-65" transform="translate(176.025391 0)"/>
     </g>
    </g>
    <g id="line2d_30">
     <path d="M 556.29375 104.3775 
L 566.29375 104.3775 
L 576.29375 104.3775 
" style="fill: none; stroke: #e41a1c; stroke-width: 3; stroke-linecap: square"/>
    </g>
    <g id="text_30">
     <!-- b_rate -->
     <g transform="translate(584.29375 107.8775) scale(0.1 -0.1)">
      <use xlink:href="#DejaVuSans-62"/>
      <use xlink:href="#DejaVuSans-5f" transform="translate(63.476562 0)"/>
      <use xlink:href="#DejaVuSans-72" transform="translate(113.476562 0)"/>
      <use xlink:href="#DejaVuSans-61" transform="translate(154.589844 0)"/>
      <use xlink:href="#DejaVuSans-74" transform="translate(215.869141 0)"/>
      <use xlink:href="#DejaVuSans-65" transform="translate(255.078125 0)"/>
     </g>
    </g>
   </g>
  </g>
  <g id="axes_3">
   <g id="patch_14">
    <path d="M 635.917279 173.518125 
L 832.858456 173.518125 
L 832.858456 22.318125 
L 635.917279 22.318125 
L 635.917279 173.518125 
z
" style="fill: none; opacity: 0"/>
   </g>
   <g id="PathCollection_4">
    <defs>
     <path id="C3_0_4b39e36067" d="M 0 3.162278 
C 0.838646 3.162278 1.643056 2.82908 2.236068 2.236068 
C 2.82908 1.643056 3.162278 0.838646 3.162278 -0 
C 3.162278 -0.838646 2.82908 -1.643056 2.236068 -2.236068 
C 1.643056 -2.82908 0.838646 -3.162278 0 -3.162278 
C -0.838646 -3.162278 -1.643056 -2.82908 -2.236068 -2.236068 
C -2.82908 -1.643056 -3.162278 -0.838646 -3.162278 0 
C -3.162278 0.838646 -2.82908 1.643056 -2.236068 2.236068 
C -1.643056 2.82908 -0.838646 3.162278 0 3.162278 
z
"/>
    </defs>
    <g clip-path="url(#p850d714807)">
     <use xlink:href="#C3_0_4b39e36067" x="635.917279" y="38.081766" style="fill: none; stroke: #377eb8; stroke-width: 3"/>
    </g>
    <g clip-path="url(#p850d714807)">
     <use xlink:href="#C3_0_4b39e36067" x="641.54417" y="37.540021" style="fill: none; stroke: #377eb8; stroke-width: 3"/>
    </g>
    <g clip-path="url(#p850d714807)">
     <use xlink:href="#C3_0_4b39e36067" x="647.171061" y="37.120168" style="fill: none; stroke: #377eb8; stroke-width: 3"/>
    </g>
    <g clip-path="url(#p850d714807)">
     <use xlink:href="#C3_0_4b39e36067" x="652.797952" y="36.795121" style="fill: none; stroke: #377eb8; stroke-width: 3"/>
    </g>
    <g clip-path="url(#p850d714807)">
     <use xlink:href="#C3_0_4b39e36067" x="658.424842" y="36.578422" style="fill: none; stroke: #377eb8; stroke-width: 3"/>
    </g>
    <g clip-path="url(#p850d714807)">
     <use xlink:href="#C3_0_4b39e36067" x="664.051733" y="36.429442" style="fill: none; stroke: #377eb8; stroke-width: 3"/>
    </g>
    <g clip-path="url(#p850d714807)">
     <use xlink:href="#C3_0_4b39e36067" x="669.678624" y="36.375268" style="fill: none; stroke: #377eb8; stroke-width: 3"/>
    </g>
    <g clip-path="url(#p850d714807)">
     <use xlink:href="#C3_0_4b39e36067" x="675.305515" y="36.402355" style="fill: none; stroke: #377eb8; stroke-width: 3"/>
    </g>
    <g clip-path="url(#p850d714807)">
     <use xlink:href="#C3_0_4b39e36067" x="680.932405" y="36.497161" style="fill: none; stroke: #377eb8; stroke-width: 3"/>
    </g>
    <g clip-path="url(#p850d714807)">
     <use xlink:href="#C3_0_4b39e36067" x="686.559296" y="36.646141" style="fill: none; stroke: #377eb8; stroke-width: 3"/>
    </g>
    <g clip-path="url(#p850d714807)">
     <use xlink:href="#C3_0_4b39e36067" x="692.186187" y="36.862839" style="fill: none; stroke: #377eb8; stroke-width: 3"/>
    </g>
    <g clip-path="url(#p850d714807)">
     <use xlink:href="#C3_0_4b39e36067" x="697.813078" y="37.106624" style="fill: none; stroke: #377eb8; stroke-width: 3"/>
    </g>
    <g clip-path="url(#p850d714807)">
     <use xlink:href="#C3_0_4b39e36067" x="703.439968" y="37.391041" style="fill: none; stroke: #377eb8; stroke-width: 3"/>
    </g>
    <g clip-path="url(#p850d714807)">
     <use xlink:href="#C3_0_4b39e36067" x="709.066859" y="37.716088" style="fill: none; stroke: #377eb8; stroke-width: 3"/>
    </g>
    <g clip-path="url(#p850d714807)">
     <use xlink:href="#C3_0_4b39e36067" x="714.69375" y="38.054679" style="fill: none; stroke: #377eb8; stroke-width: 3"/>
    </g>
    <g clip-path="url(#p850d714807)">
     <use xlink:href="#C3_0_4b39e36067" x="720.320641" y="38.406813" style="fill: none; stroke: #377eb8; stroke-width: 3"/>
    </g>
    <g clip-path="url(#p850d714807)">
     <use xlink:href="#C3_0_4b39e36067" x="725.947532" y="38.758948" style="fill: none; stroke: #377eb8; stroke-width: 3"/>
    </g>
    <g clip-path="url(#p850d714807)">
     <use xlink:href="#C3_0_4b39e36067" x="731.574422" y="39.124626" style="fill: none; stroke: #377eb8; stroke-width: 3"/>
    </g>
   </g>
   <g id="matplotlib.axis_5">
    <g id="xtick_9">
     <g id="line2d_31">
      <g>
       <use xlink:href="#meed06e1bba" x="635.917279" y="173.518125" style="stroke: #000000; stroke-width: 0.8"/>
      </g>
     </g>
     <g id="text_31">
      <!-- 2000 -->
      <g transform="translate(623.192279 188.116562) scale(0.1 -0.1)">
       <use xlink:href="#DejaVuSans-32"/>
       <use xlink:href="#DejaVuSans-30" transform="translate(63.623047 0)"/>
       <use xlink:href="#DejaVuSans-30" transform="translate(127.246094 0)"/>
       <use xlink:href="#DejaVuSans-30" transform="translate(190.869141 0)"/>
      </g>
     </g>
    </g>
    <g id="xtick_10">
     <g id="line2d_32">
      <g>
       <use xlink:href="#meed06e1bba" x="692.186187" y="173.518125" style="stroke: #000000; stroke-width: 0.8"/>
      </g>
     </g>
     <g id="text_32">
      <!-- 2010 -->
      <g transform="translate(679.461187 188.116562) scale(0.1 -0.1)">
       <use xlink:href="#DejaVuSans-32"/>
       <use xlink:href="#DejaVuSans-30" transform="translate(63.623047 0)"/>
       <use xlink:href="#DejaVuSans-31" transform="translate(127.246094 0)"/>
       <use xlink:href="#DejaVuSans-30" transform="translate(190.869141 0)"/>
      </g>
     </g>
    </g>
    <g id="xtick_11">
     <g id="line2d_33">
      <g>
       <use xlink:href="#meed06e1bba" x="748.455095" y="173.518125" style="stroke: #000000; stroke-width: 0.8"/>
      </g>
     </g>
     <g id="text_33">
      <!-- 2020 -->
      <g transform="translate(735.730095 188.116562) scale(0.1 -0.1)">
       <use xlink:href="#DejaVuSans-32"/>
       <use xlink:href="#DejaVuSans-30" transform="translate(63.623047 0)"/>
       <use xlink:href="#DejaVuSans-32" transform="translate(127.246094 0)"/>
       <use xlink:href="#DejaVuSans-30" transform="translate(190.869141 0)"/>
      </g>
     </g>
    </g>
    <g id="xtick_12">
     <g id="line2d_34">
      <g>
       <use xlink:href="#meed06e1bba" x="804.724002" y="173.518125" style="stroke: #000000; stroke-width: 0.8"/>
      </g>
     </g>
     <g id="text_34">
      <!-- 2030 -->
      <g transform="translate(791.999002 188.116562) scale(0.1 -0.1)">
       <use xlink:href="#DejaVuSans-32"/>
       <use xlink:href="#DejaVuSans-30" transform="translate(63.623047 0)"/>
       <use xlink:href="#DejaVuSans-33" transform="translate(127.246094 0)"/>
       <use xlink:href="#DejaVuSans-30" transform="translate(190.869141 0)"/>
      </g>
     </g>
    </g>
    <g id="text_35">
     <!-- Year -->
     <g transform="translate(723.800368 201.794687) scale(0.1 -0.1)">
      <use xlink:href="#DejaVuSans-59"/>
      <use xlink:href="#DejaVuSans-65" transform="translate(47.833984 0)"/>
      <use xlink:href="#DejaVuSans-61" transform="translate(109.357422 0)"/>
      <use xlink:href="#DejaVuSans-72" transform="translate(170.636719 0)"/>
     </g>
    </g>
   </g>
   <g id="matplotlib.axis_6">
    <g id="ytick_15">
     <g id="line2d_35">
      <g>
       <use xlink:href="#ma8a7f90cbf" x="635.917279" y="173.518125" style="stroke: #000000; stroke-width: 0.8"/>
      </g>
     </g>
     <g id="text_36">
      <!-- 0 -->
      <g transform="translate(622.554779 177.317344) scale(0.1 -0.1)">
       <use xlink:href="#DejaVuSans-30"/>
      </g>
     </g>
    </g>
    <g id="ytick_16">
     <g id="line2d_36">
      <g>
       <use xlink:href="#ma8a7f90cbf" x="635.917279" y="150.945398" style="stroke: #000000; stroke-width: 0.8"/>
      </g>
     </g>
     <g id="text_37">
      <!-- 2.5M -->
      <g transform="translate(604.386029 154.744617) scale(0.1 -0.1)">
       <use xlink:href="#DejaVuSans-32"/>
       <use xlink:href="#DejaVuSans-2e" transform="translate(63.623047 0)"/>
       <use xlink:href="#DejaVuSans-35" transform="translate(95.410156 0)"/>
       <use xlink:href="#DejaVuSans-4d" transform="translate(159.033203 0)"/>
      </g>
     </g>
    </g>
    <g id="ytick_17">
     <g id="line2d_37">
      <g>
       <use xlink:href="#ma8a7f90cbf" x="635.917279" y="128.372672" style="stroke: #000000; stroke-width: 0.8"/>
      </g>
     </g>
     <g id="text_38">
      <!-- 5M -->
      <g transform="translate(613.926654 132.171891) scale(0.1 -0.1)">
       <use xlink:href="#DejaVuSans-35"/>
       <use xlink:href="#DejaVuSans-4d" transform="translate(63.623047 0)"/>
      </g>
     </g>
    </g>
    <g id="ytick_18">
     <g id="line2d_38">
      <g>
       <use xlink:href="#ma8a7f90cbf" x="635.917279" y="105.799945" style="stroke: #000000; stroke-width: 0.8"/>
      </g>
     </g>
     <g id="text_39">
      <!-- 7.5M -->
      <g transform="translate(604.386029 109.599164) scale(0.1 -0.1)">
       <use xlink:href="#DejaVuSans-37"/>
       <use xlink:href="#DejaVuSans-2e" transform="translate(63.623047 0)"/>
       <use xlink:href="#DejaVuSans-35" transform="translate(95.410156 0)"/>
       <use xlink:href="#DejaVuSans-4d" transform="translate(159.033203 0)"/>
      </g>
     </g>
    </g>
    <g id="ytick_19">
     <g id="line2d_39">
      <g>
       <use xlink:href="#ma8a7f90cbf" x="635.917279" y="83.227219" style="stroke: #000000; stroke-width: 0.8"/>
      </g>
     </g>
     <g id="text_40">
      <!-- 10M -->
      <g transform="translate(607.564154 87.026438) scale(0.1 -0.1)">
       <use xlink:href="#DejaVuSans-31"/>
       <use xlink:href="#DejaVuSans-30" transform="translate(63.623047 0)"/>
       <use xlink:href="#DejaVuSans-4d" transform="translate(127.246094 0)"/>
      </g>
     </g>
    </g>
    <g id="ytick_20">
     <g id="line2d_40">
      <g>
       <use xlink:href="#ma8a7f90cbf" x="635.917279" y="60.654492" style="stroke: #000000; stroke-width: 0.8"/>
      </g>
     </g>
     <g id="text_41">
      <!-- 12.5M -->
      <g transform="translate(598.023529 64.453711) scale(0.1 -0.1)">
       <use xlink:href="#DejaVuSans-31"/>
       <use xlink:href="#DejaVuSans-32" transform="translate(63.623047 0)"/>
       <use xlink:href="#DejaVuSans-2e" transform="translate(127.246094 0)"/>
       <use xlink:href="#DejaVuSans-35" transform="translate(159.033203 0)"/>
       <use xlink:href="#DejaVuSans-4d" transform="translate(222.65625 0)"/>
      </g>
     </g>
    </g>
    <g id="ytick_21">
     <g id="line2d_41">
      <g>
       <use xlink:href="#ma8a7f90cbf" x="635.917279" y="38.081766" style="stroke: #000000; stroke-width: 0.8"/>
      </g>
     </g>
     <g id="text_42">
      <!-- 15M -->
      <g transform="translate(607.564154 41.880985) scale(0.1 -0.1)">
       <use xlink:href="#DejaVuSans-31"/>
       <use xlink:href="#DejaVuSans-35" transform="translate(63.623047 0)"/>
       <use xlink:href="#DejaVuSans-4d" transform="translate(127.246094 0)"/>
      </g>
     </g>
    </g>
   </g>
   <g id="line2d_42">
    <path d="M 635.917279 38.081766 
L 638.730725 37.867187 
L 641.54417 37.6783 
L 644.357616 37.512331 
L 647.171061 37.368055 
L 649.984506 37.2445 
L 652.797952 37.140528 
L 655.611397 37.055057 
L 658.424842 36.987229 
L 661.238288 36.936461 
L 664.051733 36.901737 
L 666.865179 36.882061 
L 669.678624 36.876938 
L 672.492069 36.885334 
L 675.305515 36.90674 
L 678.11896 36.940624 
L 680.932405 36.986669 
L 683.745851 37.04478 
L 686.559296 37.114552 
L 689.372742 37.195692 
L 692.186187 37.287844 
L 694.999632 37.390678 
L 697.813078 37.503948 
L 700.626523 37.627887 
L 703.439968 37.762355 
L 706.253414 37.907112 
L 709.066859 38.062381 
L 711.880305 38.228251 
L 714.69375 38.40483 
L 717.507195 38.592379 
L 720.320641 38.79072 
L 723.134086 38.999496 
L 725.947532 39.206909 
L 728.760977 39.413317 
L 731.574422 39.619073 
L 734.387868 39.824411 
L 737.201313 40.02955 
L 740.014758 40.2348 
L 742.828204 40.440371 
L 745.641649 40.646386 
L 748.455095 40.852937 
L 751.26854 41.060087 
L 754.081985 41.267875 
L 756.895431 41.476319 
L 759.708876 41.685418 
L 762.522321 41.895156 
L 765.335767 42.105503 
L 768.149212 42.316419 
L 770.962658 42.527852 
L 773.776103 42.739745 
L 776.589548 42.952035 
L 779.402994 43.164653 
L 782.216439 43.377527 
L 785.029884 43.590583 
L 787.84333 43.803744 
L 790.656775 44.016934 
L 793.470221 44.230075 
L 796.283666 44.44309 
L 799.097111 44.655903 
L 801.910557 44.868438 
L 804.724002 45.080624 
L 807.537447 45.292386 
L 810.350893 45.503657 
L 813.164338 45.714368 
L 815.977784 45.924454 
L 818.791229 46.133852 
L 821.604674 46.342501 
L 824.41812 46.550345 
L 827.231565 46.757328 
L 830.045011 46.963396 
L 832.858456 47.168501 
" clip-path="url(#p850d714807)" style="fill: none; stroke: #377eb8; stroke-width: 3; stroke-linecap: square"/>
   </g>
   <g id="line2d_43">
    <path d="M 635.917279 173.518125 
L 638.730725 173.518125 
L 641.54417 173.518125 
L 644.357616 173.518125 
L 647.171061 173.518125 
L 649.984506 173.518125 
L 652.797952 173.518125 
L 655.611397 173.518125 
L 658.424842 173.518125 
L 661.238288 173.518125 
L 664.051733 173.518125 
L 666.865179 173.518125 
L 669.678624 173.518125 
L 672.492069 173.518125 
L 675.305515 173.518125 
L 678.11896 173.518125 
L 680.932405 173.518125 
L 683.745851 173.518125 
L 686.559296 173.518125 
L 689.372742 173.518125 
L 692.186187 173.518125 
L 694.999632 173.518125 
L 697.813078 173.518125 
L 700.626523 173.518125 
L 703.439968 173.518125 
L 706.253414 173.518125 
L 709.066859 173.518125 
L 711.880305 173.518125 
L 714.69375 173.518125 
L 717.507195 173.518125 
L 720.320641 173.518125 
L 723.134086 173.518125 
L 725.947532 173.518125 
L 728.760977 173.518125 
L 731.574422 173.518125 
L 734.387868 173.518125 
L 737.201313 173.518125 
L 740.014758 173.518125 
L 742.828204 173.518125 
L 745.641649 173.518125 
L 748.455095 173.518125 
L 751.26854 173.518125 
L 754.081985 173.518125 
L 756.895431 173.518125 
L 759.708876 173.518125 
L 762.522321 173.518125 
L 765.335767 173.518125 
L 768.149212 173.518125 
L 770.962658 173.518125 
L 773.776103 173.518125 
L 776.589548 173.518125 
L 779.402994 173.518125 
L 782.216439 173.518125 
L 785.029884 173.518125 
L 787.84333 173.518125 
L 790.656775 173.518125 
L 793.470221 173.518125 
L 796.283666 173.518125 
L 799.097111 173.518125 
L 801.910557 173.518125 
L 804.724002 173.518125 
L 807.537447 173.518125 
L 810.350893 173.518125 
L 813.164338 173.518125 
L 815.977784 173.518125 
L 818.791229 173.518125 
L 821.604674 173.518125 
L 824.41812 173.518125 
L 827.231565 173.518125 
L 830.045011 173.518125 
L 832.858456 173.518125 
" clip-path="url(#p850d714807)" style="fill: none; stroke: #e41a1c; stroke-width: 3; stroke-linecap: square"/>
   </g>
   <g id="patch_15">
    <path d="M 635.917279 173.518125 
L 635.917279 22.318125 
" style="fill: none; stroke: #000000; stroke-width: 0.8; stroke-linejoin: miter; stroke-linecap: square"/>
   </g>
   <g id="patch_16">
    <path d="M 832.858456 173.518125 
L 832.858456 22.318125 
" style="fill: none"/>
   </g>
   <g id="patch_17">
    <path d="M 635.917279 173.518125 
L 832.858456 173.518125 
" style="fill: none; stroke: #000000; stroke-width: 0.8; stroke-linejoin: miter; stroke-linecap: square"/>
   </g>
   <g id="patch_18">
    <path d="M 635.917279 22.318125 
L 832.858456 22.318125 
" style="fill: none"/>
   </g>
   <g id="text_43">
    <!-- Baseline-15-64 -->
    <g transform="translate(689.34943 16.318125) scale(0.12 -0.12)">
     <defs>
      <path id="DejaVuSans-36" d="M 2113 2584 
Q 1688 2584 1439 2293 
Q 1191 2003 1191 1497 
Q 1191 994 1439 701 
Q 1688 409 2113 409 
Q 2538 409 2786 701 
Q 3034 994 3034 1497 
Q 3034 2003 2786 2293 
Q 2538 2584 2113 2584 
z
M 3366 4563 
L 3366 3988 
Q 3128 4100 2886 4159 
Q 2644 4219 2406 4219 
Q 1781 4219 1451 3797 
Q 1122 3375 1075 2522 
Q 1259 2794 1537 2939 
Q 1816 3084 2150 3084 
Q 2853 3084 3261 2657 
Q 3669 2231 3669 1497 
Q 3669 778 3244 343 
Q 2819 -91 2113 -91 
Q 1303 -91 875 529 
Q 447 1150 447 2328 
Q 447 3434 972 4092 
Q 1497 4750 2381 4750 
Q 2619 4750 2861 4703 
Q 3103 4656 3366 4563 
z
" transform="scale(0.015625)"/>
     </defs>
     <use xlink:href="#DejaVuSans-42"/>
     <use xlink:href="#DejaVuSans-61" transform="translate(68.603516 0)"/>
     <use xlink:href="#DejaVuSans-73" transform="translate(129.882812 0)"/>
     <use xlink:href="#DejaVuSans-65" transform="translate(181.982422 0)"/>
     <use xlink:href="#DejaVuSans-6c" transform="translate(243.505859 0)"/>
     <use xlink:href="#DejaVuSans-69" transform="translate(271.289062 0)"/>
     <use xlink:href="#DejaVuSans-6e" transform="translate(299.072266 0)"/>
     <use xlink:href="#DejaVuSans-65" transform="translate(362.451172 0)"/>
     <use xlink:href="#DejaVuSans-2d" transform="translate(423.974609 0)"/>
     <use xlink:href="#DejaVuSans-31" transform="translate(460.058594 0)"/>
     <use xlink:href="#DejaVuSans-35" transform="translate(523.681641 0)"/>
     <use xlink:href="#DejaVuSans-2d" transform="translate(587.304688 0)"/>
     <use xlink:href="#DejaVuSans-36" transform="translate(623.388672 0)"/>
     <use xlink:href="#DejaVuSans-34" transform="translate(687.011719 0)"/>
    </g>
   </g>
   <g id="legend_3">
    <g id="patch_19">
     <path d="M 849.705515 114.235312 
L 913.366452 114.235312 
Q 915.366452 114.235312 915.366452 112.235312 
L 915.366452 83.600937 
Q 915.366452 81.600937 913.366452 81.600937 
L 849.705515 81.600937 
Q 847.705515 81.600937 847.705515 83.600937 
L 847.705515 112.235312 
Q 847.705515 114.235312 849.705515 114.235312 
L 849.705515 114.235312 
z
" style="fill: none; opacity: 0"/>
    </g>
    <g id="line2d_44">
     <path d="M 851.705515 89.699375 
L 861.705515 89.699375 
L 871.705515 89.699375 
" style="fill: none; stroke: #377eb8; stroke-width: 3; stroke-linecap: square"/>
    </g>
    <g id="text_44">
     <!-- alive -->
     <g transform="translate(879.705515 93.199375) scale(0.1 -0.1)">
      <use xlink:href="#DejaVuSans-61"/>
      <use xlink:href="#DejaVuSans-6c" transform="translate(61.279297 0)"/>
      <use xlink:href="#DejaVuSans-69" transform="translate(89.0625 0)"/>
      <use xlink:href="#DejaVuSans-76" transform="translate(116.845703 0)"/>
      <use xlink:href="#DejaVuSans-65" transform="translate(176.025391 0)"/>
     </g>
    </g>
    <g id="line2d_45">
     <path d="M 851.705515 104.3775 
L 861.705515 104.3775 
L 871.705515 104.3775 
" style="fill: none; stroke: #e41a1c; stroke-width: 3; stroke-linecap: square"/>
    </g>
    <g id="text_45">
     <!-- b_rate -->
     <g transform="translate(879.705515 107.8775) scale(0.1 -0.1)">
      <use xlink:href="#DejaVuSans-62"/>
      <use xlink:href="#DejaVuSans-5f" transform="translate(63.476562 0)"/>
      <use xlink:href="#DejaVuSans-72" transform="translate(113.476562 0)"/>
      <use xlink:href="#DejaVuSans-61" transform="translate(154.589844 0)"/>
      <use xlink:href="#DejaVuSans-74" transform="translate(215.869141 0)"/>
      <use xlink:href="#DejaVuSans-65" transform="translate(255.078125 0)"/>
     </g>
    </g>
   </g>
  </g>
  <g id="axes_4">
   <g id="patch_20">
    <path d="M 45.09375 354.958125 
L 242.034926 354.958125 
L 242.034926 203.758125 
L 45.09375 203.758125 
L 45.09375 354.958125 
z
" style="fill: none; opacity: 0"/>
   </g>
   <g id="PathCollection_5">
    <defs>
     <path id="C4_0_85f8f49d6f" d="M 0 3.162278 
C 0.838646 3.162278 1.643056 2.82908 2.236068 2.236068 
C 2.82908 1.643056 3.162278 0.838646 3.162278 -0 
C 3.162278 -0.838646 2.82908 -1.643056 2.236068 -2.236068 
C 1.643056 -2.82908 0.838646 -3.162278 0 -3.162278 
C -0.838646 -3.162278 -1.643056 -2.82908 -2.236068 -2.236068 
C -2.82908 -1.643056 -3.162278 -0.838646 -3.162278 0 
C -3.162278 0.838646 -2.82908 1.643056 -2.236068 2.236068 
C -1.643056 2.82908 -0.838646 3.162278 0 3.162278 
z
"/>
    </defs>
    <g clip-path="url(#p4a542d62de)">
     <use xlink:href="#C4_0_85f8f49d6f" x="45.09375" y="243.967751" style="fill: none; stroke: #377eb8; stroke-width: 3"/>
    </g>
    <g clip-path="url(#p4a542d62de)">
     <use xlink:href="#C4_0_85f8f49d6f" x="50.720641" y="244.522703" style="fill: none; stroke: #377eb8; stroke-width: 3"/>
    </g>
    <g clip-path="url(#p4a542d62de)">
     <use xlink:href="#C4_0_85f8f49d6f" x="56.347532" y="244.76054" style="fill: none; stroke: #377eb8; stroke-width: 3"/>
    </g>
    <g clip-path="url(#p4a542d62de)">
     <use xlink:href="#C4_0_85f8f49d6f" x="61.974422" y="244.681261" style="fill: none; stroke: #377eb8; stroke-width: 3"/>
    </g>
    <g clip-path="url(#p4a542d62de)">
     <use xlink:href="#C4_0_85f8f49d6f" x="67.601313" y="244.364145" style="fill: none; stroke: #377eb8; stroke-width: 3"/>
    </g>
    <g clip-path="url(#p4a542d62de)">
     <use xlink:href="#C4_0_85f8f49d6f" x="73.228204" y="243.809193" style="fill: none; stroke: #377eb8; stroke-width: 3"/>
    </g>
    <g clip-path="url(#p4a542d62de)">
     <use xlink:href="#C4_0_85f8f49d6f" x="78.855095" y="242.937126" style="fill: none; stroke: #377eb8; stroke-width: 3"/>
    </g>
    <g clip-path="url(#p4a542d62de)">
     <use xlink:href="#C4_0_85f8f49d6f" x="84.481985" y="241.906501" style="fill: none; stroke: #377eb8; stroke-width: 3"/>
    </g>
    <g clip-path="url(#p4a542d62de)">
     <use xlink:href="#C4_0_85f8f49d6f" x="90.108876" y="240.63804" style="fill: none; stroke: #377eb8; stroke-width: 3"/>
    </g>
    <g clip-path="url(#p4a542d62de)">
     <use xlink:href="#C4_0_85f8f49d6f" x="95.735767" y="239.2903" style="fill: none; stroke: #377eb8; stroke-width: 3"/>
    </g>
    <g clip-path="url(#p4a542d62de)">
     <use xlink:href="#C4_0_85f8f49d6f" x="101.362658" y="237.784002" style="fill: none; stroke: #377eb8; stroke-width: 3"/>
    </g>
    <g clip-path="url(#p4a542d62de)">
     <use xlink:href="#C4_0_85f8f49d6f" x="106.989548" y="236.198425" style="fill: none; stroke: #377eb8; stroke-width: 3"/>
    </g>
    <g clip-path="url(#p4a542d62de)">
     <use xlink:href="#C4_0_85f8f49d6f" x="112.616439" y="234.533569" style="fill: none; stroke: #377eb8; stroke-width: 3"/>
    </g>
    <g clip-path="url(#p4a542d62de)">
     <use xlink:href="#C4_0_85f8f49d6f" x="118.24333" y="232.947993" style="fill: none; stroke: #377eb8; stroke-width: 3"/>
    </g>
    <g clip-path="url(#p4a542d62de)">
     <use xlink:href="#C4_0_85f8f49d6f" x="123.870221" y="231.362416" style="fill: none; stroke: #377eb8; stroke-width: 3"/>
    </g>
    <g clip-path="url(#p4a542d62de)">
     <use xlink:href="#C4_0_85f8f49d6f" x="129.497111" y="229.856118" style="fill: none; stroke: #377eb8; stroke-width: 3"/>
    </g>
    <g clip-path="url(#p4a542d62de)">
     <use xlink:href="#C4_0_85f8f49d6f" x="135.124002" y="228.508378" style="fill: none; stroke: #377eb8; stroke-width: 3"/>
    </g>
    <g clip-path="url(#p4a542d62de)">
     <use xlink:href="#C4_0_85f8f49d6f" x="140.750893" y="227.239916" style="fill: none; stroke: #377eb8; stroke-width: 3"/>
    </g>
   </g>
   <g id="matplotlib.axis_7">
    <g id="xtick_13">
     <g id="line2d_46">
      <g>
       <use xlink:href="#meed06e1bba" x="45.09375" y="354.958125" style="stroke: #000000; stroke-width: 0.8"/>
      </g>
     </g>
     <g id="text_46">
      <!-- 2000 -->
      <g transform="translate(32.36875 369.556562) scale(0.1 -0.1)">
       <use xlink:href="#DejaVuSans-32"/>
       <use xlink:href="#DejaVuSans-30" transform="translate(63.623047 0)"/>
       <use xlink:href="#DejaVuSans-30" transform="translate(127.246094 0)"/>
       <use xlink:href="#DejaVuSans-30" transform="translate(190.869141 0)"/>
      </g>
     </g>
    </g>
    <g id="xtick_14">
     <g id="line2d_47">
      <g>
       <use xlink:href="#meed06e1bba" x="101.362658" y="354.958125" style="stroke: #000000; stroke-width: 0.8"/>
      </g>
     </g>
     <g id="text_47">
      <!-- 2010 -->
      <g transform="translate(88.637658 369.556562) scale(0.1 -0.1)">
       <use xlink:href="#DejaVuSans-32"/>
       <use xlink:href="#DejaVuSans-30" transform="translate(63.623047 0)"/>
       <use xlink:href="#DejaVuSans-31" transform="translate(127.246094 0)"/>
       <use xlink:href="#DejaVuSans-30" transform="translate(190.869141 0)"/>
      </g>
     </g>
    </g>
    <g id="xtick_15">
     <g id="line2d_48">
      <g>
       <use xlink:href="#meed06e1bba" x="157.631565" y="354.958125" style="stroke: #000000; stroke-width: 0.8"/>
      </g>
     </g>
     <g id="text_48">
      <!-- 2020 -->
      <g transform="translate(144.906565 369.556562) scale(0.1 -0.1)">
       <use xlink:href="#DejaVuSans-32"/>
       <use xlink:href="#DejaVuSans-30" transform="translate(63.623047 0)"/>
       <use xlink:href="#DejaVuSans-32" transform="translate(127.246094 0)"/>
       <use xlink:href="#DejaVuSans-30" transform="translate(190.869141 0)"/>
      </g>
     </g>
    </g>
    <g id="xtick_16">
     <g id="line2d_49">
      <g>
       <use xlink:href="#meed06e1bba" x="213.900473" y="354.958125" style="stroke: #000000; stroke-width: 0.8"/>
      </g>
     </g>
     <g id="text_49">
      <!-- 2030 -->
      <g transform="translate(201.175473 369.556562) scale(0.1 -0.1)">
       <use xlink:href="#DejaVuSans-32"/>
       <use xlink:href="#DejaVuSans-30" transform="translate(63.623047 0)"/>
       <use xlink:href="#DejaVuSans-33" transform="translate(127.246094 0)"/>
       <use xlink:href="#DejaVuSans-30" transform="translate(190.869141 0)"/>
      </g>
     </g>
    </g>
    <g id="text_50">
     <!-- Year -->
     <g transform="translate(132.976838 383.234687) scale(0.1 -0.1)">
      <use xlink:href="#DejaVuSans-59"/>
      <use xlink:href="#DejaVuSans-65" transform="translate(47.833984 0)"/>
      <use xlink:href="#DejaVuSans-61" transform="translate(109.357422 0)"/>
      <use xlink:href="#DejaVuSans-72" transform="translate(170.636719 0)"/>
     </g>
    </g>
   </g>
   <g id="matplotlib.axis_8">
    <g id="ytick_22">
     <g id="line2d_50">
      <g>
       <use xlink:href="#ma8a7f90cbf" x="45.09375" y="354.958125" style="stroke: #000000; stroke-width: 0.8"/>
      </g>
     </g>
     <g id="text_51">
      <!-- 0 -->
      <g transform="translate(31.73125 358.757344) scale(0.1 -0.1)">
       <use xlink:href="#DejaVuSans-30"/>
      </g>
     </g>
    </g>
    <g id="ytick_23">
     <g id="line2d_51">
      <g>
       <use xlink:href="#ma8a7f90cbf" x="45.09375" y="328.531846" style="stroke: #000000; stroke-width: 0.8"/>
      </g>
     </g>
     <g id="text_52">
      <!-- 500K -->
      <g transform="translate(12.448438 332.331064) scale(0.1 -0.1)">
       <use xlink:href="#DejaVuSans-35"/>
       <use xlink:href="#DejaVuSans-30" transform="translate(63.623047 0)"/>
       <use xlink:href="#DejaVuSans-30" transform="translate(127.246094 0)"/>
       <use xlink:href="#DejaVuSans-4b" transform="translate(190.869141 0)"/>
      </g>
     </g>
    </g>
    <g id="ytick_24">
     <g id="line2d_52">
      <g>
       <use xlink:href="#ma8a7f90cbf" x="45.09375" y="302.105566" style="stroke: #000000; stroke-width: 0.8"/>
      </g>
     </g>
     <g id="text_53">
      <!-- 1M -->
      <g transform="translate(23.103125 305.904785) scale(0.1 -0.1)">
       <use xlink:href="#DejaVuSans-31"/>
       <use xlink:href="#DejaVuSans-4d" transform="translate(63.623047 0)"/>
      </g>
     </g>
    </g>
    <g id="ytick_25">
     <g id="line2d_53">
      <g>
       <use xlink:href="#ma8a7f90cbf" x="45.09375" y="275.679287" style="stroke: #000000; stroke-width: 0.8"/>
      </g>
     </g>
     <g id="text_54">
      <!-- 1.5M -->
      <g transform="translate(13.5625 279.478505) scale(0.1 -0.1)">
       <use xlink:href="#DejaVuSans-31"/>
       <use xlink:href="#DejaVuSans-2e" transform="translate(63.623047 0)"/>
       <use xlink:href="#DejaVuSans-35" transform="translate(95.410156 0)"/>
       <use xlink:href="#DejaVuSans-4d" transform="translate(159.033203 0)"/>
      </g>
     </g>
    </g>
    <g id="ytick_26">
     <g id="line2d_54">
      <g>
       <use xlink:href="#ma8a7f90cbf" x="45.09375" y="249.253007" style="stroke: #000000; stroke-width: 0.8"/>
      </g>
     </g>
     <g id="text_55">
      <!-- 2M -->
      <g transform="translate(23.103125 253.052226) scale(0.1 -0.1)">
       <use xlink:href="#DejaVuSans-32"/>
       <use xlink:href="#DejaVuSans-4d" transform="translate(63.623047 0)"/>
      </g>
     </g>
    </g>
    <g id="ytick_27">
     <g id="line2d_55">
      <g>
       <use xlink:href="#ma8a7f90cbf" x="45.09375" y="222.826728" style="stroke: #000000; stroke-width: 0.8"/>
      </g>
     </g>
     <g id="text_56">
      <!-- 2.5M -->
      <g transform="translate(13.5625 226.625946) scale(0.1 -0.1)">
       <use xlink:href="#DejaVuSans-32"/>
       <use xlink:href="#DejaVuSans-2e" transform="translate(63.623047 0)"/>
       <use xlink:href="#DejaVuSans-35" transform="translate(95.410156 0)"/>
       <use xlink:href="#DejaVuSans-4d" transform="translate(159.033203 0)"/>
      </g>
     </g>
    </g>
   </g>
   <g id="line2d_56">
    <path d="M 45.09375 243.967751 
L 47.907195 244.185741 
L 50.720641 244.337143 
L 53.534086 244.424267 
L 56.347532 244.450223 
L 59.160977 244.417966 
L 61.974422 244.330247 
L 64.787868 244.189739 
L 67.601313 243.998864 
L 70.414758 243.759827 
L 73.228204 243.475064 
L 76.041649 243.147108 
L 78.855095 242.77778 
L 81.66854 242.368601 
L 84.481985 241.921726 
L 87.295431 241.439254 
L 90.108876 240.922879 
L 92.922321 240.374277 
L 95.735767 239.795166 
L 98.549212 239.187291 
L 101.362658 238.552075 
L 104.176103 237.890912 
L 106.989548 237.205315 
L 109.802994 236.496696 
L 112.616439 235.766566 
L 115.429884 235.016285 
L 118.24333 234.247138 
L 121.056775 233.460418 
L 123.870221 232.657228 
L 126.683666 231.838691 
L 129.497111 231.005755 
L 132.310557 230.159848 
L 135.124002 229.354439 
L 137.937447 228.588041 
L 140.750893 227.85954 
L 143.564338 227.166923 
L 146.377784 226.508528 
L 149.191229 225.88347 
L 152.004674 225.290632 
L 154.81812 224.728791 
L 157.631565 224.196779 
L 160.445011 223.693477 
L 163.258456 223.217815 
L 166.071901 222.768768 
L 168.885347 222.345352 
L 171.698792 221.946619 
L 174.512237 221.57166 
L 177.325683 221.219596 
L 180.139128 220.889584 
L 182.952574 220.580806 
L 185.766019 220.292477 
L 188.579464 220.023837 
L 191.39291 219.774151 
L 194.206355 219.542712 
L 197.0198 219.328833 
L 199.833246 219.131853 
L 202.646691 218.951131 
L 205.460137 218.786048 
L 208.273582 218.636005 
L 211.087027 218.500422 
L 213.900473 218.378738 
L 216.713918 218.27041 
L 219.527363 218.174915 
L 222.340809 218.091743 
L 225.154254 218.020404 
L 227.9677 217.960421 
L 230.781145 217.911335 
L 233.59459 217.872701 
L 236.408036 217.844087 
L 239.221481 217.825077 
L 242.034926 217.815268 
" clip-path="url(#p4a542d62de)" style="fill: none; stroke: #377eb8; stroke-width: 3; stroke-linecap: square"/>
   </g>
   <g id="line2d_57">
    <path d="M 45.09375 354.958125 
L 47.907195 354.958125 
L 50.720641 354.958125 
L 53.534086 354.958125 
L 56.347532 354.958125 
L 59.160977 354.958125 
L 61.974422 354.958125 
L 64.787868 354.958125 
L 67.601313 354.958125 
L 70.414758 354.958125 
L 73.228204 354.958125 
L 76.041649 354.958125 
L 78.855095 354.958125 
L 81.66854 354.958125 
L 84.481985 354.958125 
L 87.295431 354.958125 
L 90.108876 354.958125 
L 92.922321 354.958125 
L 95.735767 354.958125 
L 98.549212 354.958125 
L 101.362658 354.958125 
L 104.176103 354.958125 
L 106.989548 354.958125 
L 109.802994 354.958125 
L 112.616439 354.958125 
L 115.429884 354.958125 
L 118.24333 354.958125 
L 121.056775 354.958125 
L 123.870221 354.958125 
L 126.683666 354.958125 
L 129.497111 354.958125 
L 132.310557 354.958125 
L 135.124002 354.958125 
L 137.937447 354.958125 
L 140.750893 354.958125 
L 143.564338 354.958125 
L 146.377784 354.958125 
L 149.191229 354.958125 
L 152.004674 354.958125 
L 154.81812 354.958125 
L 157.631565 354.958125 
L 160.445011 354.958125 
L 163.258456 354.958125 
L 166.071901 354.958125 
L 168.885347 354.958125 
L 171.698792 354.958125 
L 174.512237 354.958125 
L 177.325683 354.958125 
L 180.139128 354.958125 
L 182.952574 354.958125 
L 185.766019 354.958125 
L 188.579464 354.958125 
L 191.39291 354.958125 
L 194.206355 354.958125 
L 197.0198 354.958125 
L 199.833246 354.958125 
L 202.646691 354.958125 
L 205.460137 354.958125 
L 208.273582 354.958125 
L 211.087027 354.958125 
L 213.900473 354.958125 
L 216.713918 354.958125 
L 219.527363 354.958125 
L 222.340809 354.958125 
L 225.154254 354.958125 
L 227.9677 354.958125 
L 230.781145 354.958125 
L 233.59459 354.958125 
L 236.408036 354.958125 
L 239.221481 354.958125 
L 242.034926 354.958125 
" clip-path="url(#p4a542d62de)" style="fill: none; stroke: #e41a1c; stroke-width: 3; stroke-linecap: square"/>
   </g>
   <g id="patch_21">
    <path d="M 45.09375 354.958125 
L 45.09375 203.758125 
" style="fill: none; stroke: #000000; stroke-width: 0.8; stroke-linejoin: miter; stroke-linecap: square"/>
   </g>
   <g id="patch_22">
    <path d="M 242.034926 354.958125 
L 242.034926 203.758125 
" style="fill: none"/>
   </g>
   <g id="patch_23">
    <path d="M 45.09375 354.958125 
L 242.034926 354.958125 
" style="fill: none; stroke: #000000; stroke-width: 0.8; stroke-linejoin: miter; stroke-linecap: square"/>
   </g>
   <g id="patch_24">
    <path d="M 45.09375 203.758125 
L 242.034926 203.758125 
" style="fill: none"/>
   </g>
   <g id="text_57">
    <!-- Baseline-65+ -->
    <g transform="translate(103.297776 197.758125) scale(0.12 -0.12)">
     <defs>
      <path id="DejaVuSans-2b" d="M 2944 4013 
L 2944 2272 
L 4684 2272 
L 4684 1741 
L 2944 1741 
L 2944 0 
L 2419 0 
L 2419 1741 
L 678 1741 
L 678 2272 
L 2419 2272 
L 2419 4013 
L 2944 4013 
z
" transform="scale(0.015625)"/>
     </defs>
     <use xlink:href="#DejaVuSans-42"/>
     <use xlink:href="#DejaVuSans-61" transform="translate(68.603516 0)"/>
     <use xlink:href="#DejaVuSans-73" transform="translate(129.882812 0)"/>
     <use xlink:href="#DejaVuSans-65" transform="translate(181.982422 0)"/>
     <use xlink:href="#DejaVuSans-6c" transform="translate(243.505859 0)"/>
     <use xlink:href="#DejaVuSans-69" transform="translate(271.289062 0)"/>
     <use xlink:href="#DejaVuSans-6e" transform="translate(299.072266 0)"/>
     <use xlink:href="#DejaVuSans-65" transform="translate(362.451172 0)"/>
     <use xlink:href="#DejaVuSans-2d" transform="translate(423.974609 0)"/>
     <use xlink:href="#DejaVuSans-36" transform="translate(460.058594 0)"/>
     <use xlink:href="#DejaVuSans-35" transform="translate(523.681641 0)"/>
     <use xlink:href="#DejaVuSans-2b" transform="translate(587.304688 0)"/>
    </g>
   </g>
   <g id="legend_4">
    <g id="patch_25">
     <path d="M 258.881985 295.675312 
L 322.542923 295.675312 
Q 324.542923 295.675312 324.542923 293.675312 
L 324.542923 265.040937 
Q 324.542923 263.040937 322.542923 263.040937 
L 258.881985 263.040937 
Q 256.881985 263.040937 256.881985 265.040937 
L 256.881985 293.675312 
Q 256.881985 295.675312 258.881985 295.675312 
L 258.881985 295.675312 
z
" style="fill: none; opacity: 0"/>
    </g>
    <g id="line2d_58">
     <path d="M 260.881985 271.139375 
L 270.881985 271.139375 
L 280.881985 271.139375 
" style="fill: none; stroke: #377eb8; stroke-width: 3; stroke-linecap: square"/>
    </g>
    <g id="text_58">
     <!-- alive -->
     <g transform="translate(288.881985 274.639375) scale(0.1 -0.1)">
      <use xlink:href="#DejaVuSans-61"/>
      <use xlink:href="#DejaVuSans-6c" transform="translate(61.279297 0)"/>
      <use xlink:href="#DejaVuSans-69" transform="translate(89.0625 0)"/>
      <use xlink:href="#DejaVuSans-76" transform="translate(116.845703 0)"/>
      <use xlink:href="#DejaVuSans-65" transform="translate(176.025391 0)"/>
     </g>
    </g>
    <g id="line2d_59">
     <path d="M 260.881985 285.8175 
L 270.881985 285.8175 
L 280.881985 285.8175 
" style="fill: none; stroke: #e41a1c; stroke-width: 3; stroke-linecap: square"/>
    </g>
    <g id="text_59">
     <!-- b_rate -->
     <g transform="translate(288.881985 289.3175) scale(0.1 -0.1)">
      <use xlink:href="#DejaVuSans-62"/>
      <use xlink:href="#DejaVuSans-5f" transform="translate(63.476562 0)"/>
      <use xlink:href="#DejaVuSans-72" transform="translate(113.476562 0)"/>
      <use xlink:href="#DejaVuSans-61" transform="translate(154.589844 0)"/>
      <use xlink:href="#DejaVuSans-74" transform="translate(215.869141 0)"/>
      <use xlink:href="#DejaVuSans-65" transform="translate(255.078125 0)"/>
     </g>
    </g>
   </g>
  </g>
 </g>
 <defs>
  <clipPath id="p64432afcb6">
   <rect x="45.09375" y="22.318125" width="196.941176" height="151.2"/>
  </clipPath>
  <clipPath id="p5b669616a7">
   <rect x="340.505515" y="22.318125" width="196.941176" height="151.2"/>
  </clipPath>
  <clipPath id="p850d714807">
   <rect x="635.917279" y="22.318125" width="196.941176" height="151.2"/>
  </clipPath>
  <clipPath id="p4a542d62de">
   <rect x="45.09375" y="203.758125" width="196.941176" height="151.2"/>
  </clipPath>
 </defs>
</svg>
