<?xml version="1.0" encoding="utf-8" standalone="no"?>
<!DOCTYPE svg PUBLIC "-//W3C//DTD SVG 1.1//EN"
  "http://www.w3.org/Graphics/SVG/1.1/DTD/svg11.dtd">
<svg xmlns:xlink="http://www.w3.org/1999/xlink" width="403.97pt" height="297.190125pt" viewBox="0 0 403.97 297.190125" xmlns="http://www.w3.org/2000/svg" version="1.1">
 <metadata>
  <rdf:RDF xmlns:dc="http://purl.org/dc/elements/1.1/" xmlns:cc="http://creativecommons.org/ns#" xmlns:rdf="http://www.w3.org/1999/02/22-rdf-syntax-ns#">
   <cc:Work>
    <dc:type rdf:resource="http://purl.org/dc/dcmitype/StillImage"/>
    <dc:date>2026-05-21T03:26:13.329722</dc:date>
    <dc:format>image/svg+xml</dc:format>
    <dc:creator>
     <cc:Agent>
      <dc:title>Matplotlib v3.10.9, https://matplotlib.org/</dc:title>
     </cc:Agent>
    </dc:creator>
   </cc:Work>
  </rdf:RDF>
 </metadata>
 <defs>
  <style type="text/css">*{stroke-linejoin: round; stroke-linecap: butt}</style>
 </defs>
 <g id="figure_1">
  <g id="patch_1">
   <path d="M 0 297.190125 
L 403.97 297.190125 
L 403.97 0 
L 0 0 
z
" style="fill: #ffffff"/>
  </g>
  <g id="axes_1">
   <g id="patch_2">
    <path d="M 39.65 273.312 
L 396.77 273.312 
L 396.77 7.2 
L 39.65 7.2 
z
" style="fill: #ffffff"/>
   </g>
   <g id="matplotlib.axis_1">
    <g id="xtick_1">
     <g id="line2d_1">
      <defs>
       <path id="mf64afd3706" d="M 0 0 
L 0 3.5 
" style="stroke: #000000; stroke-width: 0.8"/>
      </defs>
      <g>
       <use xlink:href="#mf64afd3706" x="55.882727" y="273.312" style="stroke: #000000; stroke-width: 0.8"/>
      </g>
     </g>
     <g id="text_1">
      <!-- 0.0 -->
      <g transform="translate(47.931165 287.910437) scale(0.1 -0.1)">
       <defs>
        <path id="DejaVuSans-30" d="M 2034 4250 
Q 1547 4250 1301 3770 
Q 1056 3291 1056 2328 
Q 1056 1369 1301 889 
Q 1547 409 2034 409 
Q 2525 409 2770 889 
Q 3016 1369 3016 2328 
Q 3016 3291 2770 3770 
Q 2525 4250 2034 4250 
z
M 2034 4750 
Q 2819 4750 3233 4129 
Q 3647 3509 3647 2328 
Q 3647 1150 3233 529 
Q 2819 -91 2034 -91 
Q 1250 -91 836 529 
Q 422 1150 422 2328 
Q 422 3509 836 4129 
Q 1250 4750 2034 4750 
z
" transform="scale(0.015625)"/>
        <path id="DejaVuSans-2e" d="M 684 794 
L 1344 794 
L 1344 0 
L 684 0 
L 684 794 
z
" transform="scale(0.015625)"/>
       </defs>
       <use xlink:href="#DejaVuSans-30"/>
       <use xlink:href="#DejaVuSans-2e" transform="translate(63.623047 0)"/>
       <use xlink:href="#DejaVuSans-30" transform="translate(95.410156 0)"/>
      </g>
     </g>
    </g>
    <g id="xtick_2">
     <g id="line2d_2">
      <g>
       <use xlink:href="#mf64afd3706" x="96.668474" y="273.312" style="stroke: #000000; stroke-width: 0.8"/>
      </g>
     </g>
     <g id="text_2">
      <!-- 2.5 -->
      <g transform="translate(88.716912 287.910437) scale(0.1 -0.1)">
       <defs>
        <path id="DejaVuSans-32" d="M 1228 531 
L 3431 531 
L 3431 0 
L 469 0 
L 469 531 
Q 828 903 1448 1529 
Q 2069 2156 2228 2338 
Q 2531 2678 2651 2914 
Q 2772 3150 2772 3378 
Q 2772 3750 2511 3984 
Q 2250 4219 1831 4219 
Q 1534 4219 1204 4116 
Q 875 4013 500 3803 
L 500 4441 
Q 881 4594 1212 4672 
Q 1544 4750 1819 4750 
Q 2544 4750 2975 4387 
Q 3406 4025 3406 3419 
Q 3406 3131 3298 2873 
Q 3191 2616 2906 2266 
Q 2828 2175 2409 1742 
Q 1991 1309 1228 531 
z
" transform="scale(0.015625)"/>
        <path id="DejaVuSans-35" d="M 691 4666 
L 3169 4666 
L 3169 4134 
L 1269 4134 
L 1269 2991 
Q 1406 3038 1543 3061 
Q 1681 3084 1819 3084 
Q 2600 3084 3056 2656 
Q 3513 2228 3513 1497 
Q 3513 744 3044 326 
Q 2575 -91 1722 -91 
Q 1428 -91 1123 -41 
Q 819 9 494 109 
L 494 744 
Q 775 591 1075 516 
Q 1375 441 1709 441 
Q 2250 441 2565 725 
Q 2881 1009 2881 1497 
Q 2881 1984 2565 2268 
Q 2250 2553 1709 2553 
Q 1456 2553 1204 2497 
Q 953 2441 691 2322 
L 691 4666 
z
" transform="scale(0.015625)"/>
       </defs>
       <use xlink:href="#DejaVuSans-32"/>
       <use xlink:href="#DejaVuSans-2e" transform="translate(63.623047 0)"/>
       <use xlink:href="#DejaVuSans-35" transform="translate(95.410156 0)"/>
      </g>
     </g>
    </g>
    <g id="xtick_3">
     <g id="line2d_3">
      <g>
       <use xlink:href="#mf64afd3706" x="137.454221" y="273.312" style="stroke: #000000; stroke-width: 0.8"/>
      </g>
     </g>
     <g id="text_3">
      <!-- 5.0 -->
      <g transform="translate(129.502659 287.910437) scale(0.1 -0.1)">
       <use xlink:href="#DejaVuSans-35"/>
       <use xlink:href="#DejaVuSans-2e" transform="translate(63.623047 0)"/>
       <use xlink:href="#DejaVuSans-30" transform="translate(95.410156 0)"/>
      </g>
     </g>
    </g>
    <g id="xtick_4">
     <g id="line2d_4">
      <g>
       <use xlink:href="#mf64afd3706" x="178.239968" y="273.312" style="stroke: #000000; stroke-width: 0.8"/>
      </g>
     </g>
     <g id="text_4">
      <!-- 7.5 -->
      <g transform="translate(170.288406 287.910437) scale(0.1 -0.1)">
       <defs>
        <path id="DejaVuSans-37" d="M 525 4666 
L 3525 4666 
L 3525 4397 
L 1831 0 
L 1172 0 
L 2766 4134 
L 525 4134 
L 525 4666 
z
" transform="scale(0.015625)"/>
       </defs>
       <use xlink:href="#DejaVuSans-37"/>
       <use xlink:href="#DejaVuSans-2e" transform="translate(63.623047 0)"/>
       <use xlink:href="#DejaVuSans-35" transform="translate(95.410156 0)"/>
      </g>
     </g>
    </g>
    <g id="xtick_5">
     <g id="line2d_5">
      <g>
       <use xlink:href="#mf64afd3706" x="219.025715" y="273.312" style="stroke: #000000; stroke-width: 0.8"/>
      </g>
     </g>
     <g id="text_5">
      <!-- 10.0 -->
      <g transform="translate(207.892902 287.910437) scale(0.1 -0.1)">
       <defs>
        <path id="DejaVuSans-31" d="M 794 531 
L 1825 531 
L 1825 4091 
L 703 3866 
L 703 4441 
L 1819 4666 
L 2450 4666 
L 2450 531 
L 3481 531 
L 3481 0 
L 794 0 
L 794 531 
z
" transform="scale(0.015625)"/>
       </defs>
       <use xlink:href="#DejaVuSans-31"/>
       <use xlink:href="#DejaVuSans-30" transform="translate(63.623047 0)"/>
       <use xlink:href="#DejaVuSans-2e" transform="translate(127.246094 0)"/>
       <use xlink:href="#DejaVuSans-30" transform="translate(159.033203 0)"/>
      </g>
     </g>
    </g>
    <g id="xtick_6">
     <g id="line2d_6">
      <g>
       <use xlink:href="#mf64afd3706" x="259.811462" y="273.312" style="stroke: #000000; stroke-width: 0.8"/>
      </g>
     </g>
     <g id="text_6">
      <!-- 12.5 -->
      <g transform="translate(248.678649 287.910437) scale(0.1 -0.1)">
       <use xlink:href="#DejaVuSans-31"/>
       <use xlink:href="#DejaVuSans-32" transform="translate(63.623047 0)"/>
       <use xlink:href="#DejaVuSans-2e" transform="translate(127.246094 0)"/>
       <use xlink:href="#DejaVuSans-35" transform="translate(159.033203 0)"/>
      </g>
     </g>
    </g>
    <g id="xtick_7">
     <g id="line2d_7">
      <g>
       <use xlink:href="#mf64afd3706" x="300.597209" y="273.312" style="stroke: #000000; stroke-width: 0.8"/>
      </g>
     </g>
     <g id="text_7">
      <!-- 15.0 -->
      <g transform="translate(289.464396 287.910437) scale(0.1 -0.1)">
       <use xlink:href="#DejaVuSans-31"/>
       <use xlink:href="#DejaVuSans-35" transform="translate(63.623047 0)"/>
       <use xlink:href="#DejaVuSans-2e" transform="translate(127.246094 0)"/>
       <use xlink:href="#DejaVuSans-30" transform="translate(159.033203 0)"/>
      </g>
     </g>
    </g>
    <g id="xtick_8">
     <g id="line2d_8">
      <g>
       <use xlink:href="#mf64afd3706" x="341.382956" y="273.312" style="stroke: #000000; stroke-width: 0.8"/>
      </g>
     </g>
     <g id="text_8">
      <!-- 17.5 -->
      <g transform="translate(330.250143 287.910437) scale(0.1 -0.1)">
       <use xlink:href="#DejaVuSans-31"/>
       <use xlink:href="#DejaVuSans-37" transform="translate(63.623047 0)"/>
       <use xlink:href="#DejaVuSans-2e" transform="translate(127.246094 0)"/>
       <use xlink:href="#DejaVuSans-35" transform="translate(159.033203 0)"/>
      </g>
     </g>
    </g>
    <g id="xtick_9">
     <g id="line2d_9">
      <g>
       <use xlink:href="#mf64afd3706" x="382.168703" y="273.312" style="stroke: #000000; stroke-width: 0.8"/>
      </g>
     </g>
     <g id="text_9">
      <!-- 20.0 -->
      <g transform="translate(371.03589 287.910437) scale(0.1 -0.1)">
       <use xlink:href="#DejaVuSans-32"/>
       <use xlink:href="#DejaVuSans-30" transform="translate(63.623047 0)"/>
       <use xlink:href="#DejaVuSans-2e" transform="translate(127.246094 0)"/>
       <use xlink:href="#DejaVuSans-30" transform="translate(159.033203 0)"/>
      </g>
     </g>
    </g>
   </g>
   <g id="matplotlib.axis_2">
    <g id="ytick_1">
     <g id="line2d_10">
      <defs>
       <path id="m37aa438cb7" d="M 0 0 
L -3.5 0 
" style="stroke: #000000; stroke-width: 0.8"/>
      </defs>
      <g>
       <use xlink:href="#m37aa438cb7" x="39.65" y="261.216" style="stroke: #000000; stroke-width: 0.8"/>
      </g>
     </g>
     <g id="text_10">
      <!-- 0 -->
      <g transform="translate(26.2875 265.015219) scale(0.1 -0.1)">
       <use xlink:href="#DejaVuSans-30"/>
      </g>
     </g>
    </g>
    <g id="ytick_2">
     <g id="line2d_11">
      <g>
       <use xlink:href="#m37aa438cb7" x="39.65" y="221.582972" style="stroke: #000000; stroke-width: 0.8"/>
      </g>
     </g>
     <g id="text_11">
      <!-- 500 -->
      <g transform="translate(13.5625 225.382191) scale(0.1 -0.1)">
       <use xlink:href="#DejaVuSans-35"/>
       <use xlink:href="#DejaVuSans-30" transform="translate(63.623047 0)"/>
       <use xlink:href="#DejaVuSans-30" transform="translate(127.246094 0)"/>
      </g>
     </g>
    </g>
    <g id="ytick_3">
     <g id="line2d_12">
      <g>
       <use xlink:href="#m37aa438cb7" x="39.65" y="181.949945" style="stroke: #000000; stroke-width: 0.8"/>
      </g>
     </g>
     <g id="text_12">
      <!-- 1000 -->
      <g transform="translate(7.2 185.749164) scale(0.1 -0.1)">
       <use xlink:href="#DejaVuSans-31"/>
       <use xlink:href="#DejaVuSans-30" transform="translate(63.623047 0)"/>
       <use xlink:href="#DejaVuSans-30" transform="translate(127.246094 0)"/>
       <use xlink:href="#DejaVuSans-30" transform="translate(190.869141 0)"/>
      </g>
     </g>
    </g>
    <g id="ytick_4">
     <g id="line2d_13">
      <g>
       <use xlink:href="#m37aa438cb7" x="39.65" y="142.316917" style="stroke: #000000; stroke-width: 0.8"/>
      </g>
     </g>
     <g id="text_13">
      <!-- 1500 -->
      <g transform="translate(7.2 146.116136) scale(0.1 -0.1)">
       <use xlink:href="#DejaVuSans-31"/>
       <use xlink:href="#DejaVuSans-35" transform="translate(63.623047 0)"/>
       <use xlink:href="#DejaVuSans-30" transform="translate(127.246094 0)"/>
       <use xlink:href="#DejaVuSans-30" transform="translate(190.869141 0)"/>
      </g>
     </g>
    </g>
    <g id="ytick_5">
     <g id="line2d_14">
      <g>
       <use xlink:href="#m37aa438cb7" x="39.65" y="102.68389" style="stroke: #000000; stroke-width: 0.8"/>
      </g>
     </g>
     <g id="text_14">
      <!-- 2000 -->
      <g transform="translate(7.2 106.483109) scale(0.1 -0.1)">
       <use xlink:href="#DejaVuSans-32"/>
       <use xlink:href="#DejaVuSans-30" transform="translate(63.623047 0)"/>
       <use xlink:href="#DejaVuSans-30" transform="translate(127.246094 0)"/>
       <use xlink:href="#DejaVuSans-30" transform="translate(190.869141 0)"/>
      </g>
     </g>
    </g>
    <g id="ytick_6">
     <g id="line2d_15">
      <g>
       <use xlink:href="#m37aa438cb7" x="39.65" y="63.050862" style="stroke: #000000; stroke-width: 0.8"/>
      </g>
     </g>
     <g id="text_15">
      <!-- 2500 -->
      <g transform="translate(7.2 66.850081) scale(0.1 -0.1)">
       <use xlink:href="#DejaVuSans-32"/>
       <use xlink:href="#DejaVuSans-35" transform="translate(63.623047 0)"/>
       <use xlink:href="#DejaVuSans-30" transform="translate(127.246094 0)"/>
       <use xlink:href="#DejaVuSans-30" transform="translate(190.869141 0)"/>
      </g>
     </g>
    </g>
    <g id="ytick_7">
     <g id="line2d_16">
      <g>
       <use xlink:href="#m37aa438cb7" x="39.65" y="23.417835" style="stroke: #000000; stroke-width: 0.8"/>
      </g>
     </g>
     <g id="text_16">
      <!-- 3000 -->
      <g transform="translate(7.2 27.217054) scale(0.1 -0.1)">
       <defs>
        <path id="DejaVuSans-33" d="M 2597 2516 
Q 3050 2419 3304 2112 
Q 3559 1806 3559 1356 
Q 3559 666 3084 287 
Q 2609 -91 1734 -91 
Q 1441 -91 1130 -33 
Q 819 25 488 141 
L 488 750 
Q 750 597 1062 519 
Q 1375 441 1716 441 
Q 2309 441 2620 675 
Q 2931 909 2931 1356 
Q 2931 1769 2642 2001 
Q 2353 2234 1838 2234 
L 1294 2234 
L 1294 2753 
L 1863 2753 
Q 2328 2753 2575 2939 
Q 2822 3125 2822 3475 
Q 2822 3834 2567 4026 
Q 2313 4219 1838 4219 
Q 1578 4219 1281 4162 
Q 984 4106 628 3988 
L 628 4550 
Q 988 4650 1302 4700 
Q 1616 4750 1894 4750 
Q 2613 4750 3031 4423 
Q 3450 4097 3450 3541 
Q 3450 3153 3228 2886 
Q 3006 2619 2597 2516 
z
" transform="scale(0.015625)"/>
       </defs>
       <use xlink:href="#DejaVuSans-33"/>
       <use xlink:href="#DejaVuSans-30" transform="translate(63.623047 0)"/>
       <use xlink:href="#DejaVuSans-30" transform="translate(127.246094 0)"/>
       <use xlink:href="#DejaVuSans-30" transform="translate(190.869141 0)"/>
      </g>
     </g>
    </g>
   </g>
   <g id="line2d_17">
    <path d="M 55.882727 261.216 
L 72.197026 181.949945 
L 88.511325 129.105908 
L 104.825624 93.87655 
L 121.139922 70.390312 
L 137.454221 54.73282 
L 153.76852 44.294491 
L 170.082819 37.335606 
L 186.397117 32.696349 
L 202.711416 29.603511 
L 219.025715 27.541619 
L 235.340014 26.167024 
L 251.654312 25.250628 
L 267.968611 24.639697 
L 284.28291 24.232409 
L 300.597209 23.960885 
L 316.911508 23.779868 
L 333.225806 23.65919 
L 349.540105 23.578738 
L 365.854404 23.525104 
" clip-path="url(#p9cc6e1dd84)" style="fill: none; stroke: #1f77b4; stroke-width: 1.5; stroke-linecap: square"/>
   </g>
   <g id="line2d_18">
    <path d="M 55.882727 261.216 
L 72.197026 261.216 
L 88.511325 234.793982 
L 104.825624 208.371963 
L 121.139922 187.821505 
L 137.454221 173.142606 
L 153.76852 163.030475 
L 170.082819 156.180322 
L 186.397117 151.577309 
L 202.711416 148.496553 
L 219.025715 146.438688 
L 235.340014 145.065436 
L 251.654312 144.149487 
L 267.968611 143.538705 
L 284.28291 143.131467 
L 300.597209 142.859959 
L 316.911508 142.678948 
L 333.225806 142.558272 
L 349.540105 142.477821 
L 365.854404 142.424186 
" clip-path="url(#p9cc6e1dd84)" style="fill: none; stroke: #ff7f0e; stroke-width: 1.5; stroke-linecap: square"/>
   </g>
   <g id="line2d_19">
    <path d="M 55.882727 261.216 
L 57.514157 254.399119 
L 59.145587 246.94811 
L 60.777017 241.003156 
L 62.408447 233.710679 
L 64.039877 225.149945 
L 65.671307 218.887927 
L 67.302736 211.674716 
L 73.828456 188.608294 
L 75.459886 183.773064 
L 77.091316 180.681688 
L 78.722746 175.687927 
L 80.354175 169.58444 
L 81.985605 166.57233 
L 83.617035 161.974899 
L 85.248465 159.200587 
L 86.879895 155.633615 
L 88.511325 151.273982 
L 90.142755 147.389945 
L 91.774185 143.981505 
L 93.405614 140.176734 
L 95.037044 137.719486 
L 98.299904 130.506275 
L 99.931334 125.829578 
L 101.562764 122.421138 
L 103.194194 118.061505 
L 104.825624 116.238385 
L 106.457053 113.305541 
L 108.088483 110.055633 
L 109.719913 107.202055 
L 111.351343 103.714349 
L 112.982773 102.208294 
L 114.614203 99.751046 
L 116.245633 99.433982 
L 117.877063 96.025541 
L 119.508492 93.330495 
L 122.771352 89.525725 
L 124.402782 87.385541 
L 126.034212 86.672147 
L 127.665642 85.166092 
L 129.297072 82.153982 
L 130.928502 78.904073 
L 132.559931 76.843156 
L 134.191361 75.812697 
L 135.822791 73.989578 
L 137.454221 71.453064 
L 139.085651 67.331229 
L 143.979941 61.307009 
L 145.61137 59.563156 
L 147.2428 59.008294 
L 148.87423 57.26444 
L 150.50566 56.947376 
L 152.13709 55.837651 
L 153.76852 54.093798 
L 155.39995 55.044991 
L 157.03138 53.697468 
L 158.66281 53.45967 
L 160.294239 52.904807 
L 161.925669 53.380404 
L 163.557099 52.508477 
L 165.188529 50.209761 
L 166.819959 48.22811 
L 168.451389 48.148844 
L 170.082819 46.246459 
L 171.714249 46.563523 
L 173.345678 46.722055 
L 174.977108 45.61233 
L 176.608538 43.709945 
L 178.239968 43.155083 
L 179.871398 44.264807 
L 181.502828 43.789211 
L 183.134258 44.027009 
L 184.765688 43.709945 
L 186.397117 44.740404 
L 188.028547 46.087927 
L 189.659977 44.264807 
L 191.291407 45.216 
L 192.922837 47.593982 
L 194.554267 48.22811 
L 196.185697 50.685358 
L 197.817127 50.923156 
L 199.448556 47.673248 
L 201.079986 47.197651 
L 202.711416 45.136734 
L 204.342846 43.472147 
L 205.974276 42.520954 
L 207.605706 43.472147 
L 209.237136 43.075817 
L 210.868566 39.508844 
L 212.499995 39.905174 
L 214.131425 39.825908 
L 215.762855 38.082055 
L 217.394285 37.527193 
L 219.025715 40.222239 
L 220.657145 40.697835 
L 223.920005 38.636917 
L 225.551434 38.319853 
L 227.182864 37.210128 
L 230.445724 36.338202 
L 232.077154 34.118752 
L 233.708584 34.911413 
L 235.340014 35.149211 
L 236.971444 34.198018 
L 238.602873 33.405358 
L 240.234303 33.722422 
L 241.865733 34.198018 
L 243.497163 32.533431 
L 245.128593 33.246826 
L 246.760023 32.454165 
L 248.391453 29.996917 
L 250.022883 29.124991 
L 251.654312 30.631046 
L 254.917172 31.502972 
L 256.548602 30.94811 
L 258.180032 33.009028 
L 259.811462 33.96022 
L 261.442892 34.35655 
L 263.074322 34.198018 
L 264.705751 31.978569 
L 266.337181 32.057835 
L 267.968611 31.423706 
L 269.600041 31.502972 
L 271.231471 32.057835 
L 272.862901 31.661505 
L 274.494331 30.710312 
L 276.125761 30.789578 
L 277.75719 32.057835 
L 279.38862 29.679853 
L 281.02005 31.582239 
L 282.65148 33.722422 
L 284.28291 33.405358 
L 287.54577 30.076183 
L 289.1772 29.124991 
L 292.440059 26.984807 
L 294.071489 24.369028 
L 295.702919 24.051963 
L 297.334349 24.289761 
L 298.965779 24.051963 
L 300.597209 25.161688 
L 302.228639 24.210495 
L 303.860069 26.192147 
L 305.491498 25.795817 
L 307.122928 25.71655 
L 308.754358 24.844624 
L 310.385788 24.686092 
L 312.017218 26.112881 
L 313.648648 25.478752 
L 315.280078 26.271413 
L 316.911508 25.32022 
L 318.542937 23.497101 
L 320.174367 24.369028 
L 321.805797 24.92389 
L 323.437227 25.875083 
L 325.068657 24.369028 
L 326.700087 23.734899 
L 328.331517 24.765358 
L 329.962947 23.021505 
L 331.594376 24.369028 
L 333.225806 22.625174 
L 334.857236 22.149578 
L 336.488666 19.69233 
L 338.120096 19.296 
L 339.751526 21.039853 
L 341.382956 21.832514 
L 343.014386 21.277651 
L 344.645815 23.497101 
L 346.277245 23.576367 
L 351.171535 24.210495 
L 352.802965 23.021505 
L 354.434395 22.387376 
L 356.065825 23.972697 
L 357.697254 23.417835 
L 359.328684 21.51545 
L 360.960114 22.387376 
L 362.591544 22.942239 
L 364.222974 23.338569 
L 365.854404 21.991046 
L 367.485834 21.673982 
L 369.117264 21.991046 
L 370.748693 21.277651 
L 372.380123 22.228844 
L 374.011553 21.277651 
L 378.905843 21.039853 
L 380.537273 20.326459 
L 380.537273 20.326459 
" clip-path="url(#p9cc6e1dd84)" style="fill: none; stroke: #2ca02c; stroke-width: 1.5; stroke-linecap: square"/>
   </g>
   <g id="line2d_20">
    <path d="M 55.882727 261.216 
L 57.514157 261.057468 
L 59.145587 260.740404 
L 60.777017 259.709945 
L 62.408447 259.392881 
L 64.039877 258.679486 
L 65.671307 257.411229 
L 67.302736 255.905174 
L 68.934166 254.874716 
L 70.565596 252.97233 
L 72.197026 251.545541 
L 75.459886 248.057835 
L 77.091316 245.679853 
L 80.354175 242.112881 
L 83.617035 238.228844 
L 86.879895 233.789945 
L 88.511325 232.521688 
L 90.142755 229.747376 
L 93.405614 226.338936 
L 95.037044 223.168294 
L 99.931334 217.064807 
L 101.562764 216.351413 
L 103.194194 214.052697 
L 104.825624 211.516183 
L 106.457053 210.089394 
L 109.719913 209.296734 
L 111.351343 208.345541 
L 112.982773 205.571229 
L 114.614203 204.620037 
L 116.245633 203.034716 
L 117.877063 202.242055 
L 119.508492 201.211596 
L 121.139922 200.418936 
L 122.771352 198.040954 
L 124.402782 196.059303 
L 126.034212 193.760587 
L 127.665642 193.284991 
L 132.559931 188.925358 
L 134.191361 187.894899 
L 135.822791 186.07178 
L 137.454221 184.565725 
L 139.085651 183.297468 
L 142.348511 182.821872 
L 143.979941 181.712147 
L 145.61137 181.474349 
L 147.2428 180.919486 
L 148.87423 179.889028 
L 150.50566 178.22444 
L 152.13709 177.03545 
L 153.76852 176.480587 
L 155.39995 173.547743 
L 157.03138 172.041688 
L 160.294239 169.346642 
L 161.925669 169.742972 
L 163.557099 167.682055 
L 165.188529 167.206459 
L 166.819959 165.145541 
L 168.451389 165.224807 
L 170.082819 164.907743 
L 171.714249 165.145541 
L 173.345678 165.858936 
L 174.977108 164.669945 
L 176.608538 164.273615 
L 178.239968 163.639486 
L 179.871398 162.450495 
L 181.502828 161.657835 
L 183.134258 160.627376 
L 184.765688 160.310312 
L 188.028547 157.853064 
L 189.659977 158.645725 
L 191.291407 158.566459 
L 192.922837 155.475083 
L 194.554267 155.712881 
L 196.185697 153.572697 
L 197.817127 153.493431 
L 199.448556 155.475083 
L 201.079986 155.792147 
L 202.711416 156.584807 
L 204.342846 158.090862 
L 205.974276 158.249394 
L 207.605706 156.822606 
L 209.237136 157.298202 
L 210.868566 158.883523 
L 212.499995 158.724991 
L 214.131425 156.822606 
L 215.762855 156.664073 
L 217.394285 156.822606 
L 219.025715 155.475083 
L 220.657145 154.999486 
L 222.288575 155.31655 
L 223.920005 156.347009 
L 225.551434 155.158018 
L 227.182864 155.475083 
L 228.814294 154.92022 
L 230.445724 154.52389 
L 232.077154 157.456734 
L 233.708584 157.13967 
L 235.340014 157.218936 
L 236.971444 157.536 
L 238.602873 158.090862 
L 240.234303 157.060404 
L 241.865733 155.712881 
L 243.497163 154.682422 
L 245.128593 154.682422 
L 246.760023 155.633615 
L 248.391453 157.93233 
L 250.022883 157.93233 
L 251.654312 154.840954 
L 253.285742 155.554349 
L 256.548602 153.731229 
L 258.180032 152.700771 
L 259.811462 152.462972 
L 261.442892 151.51178 
L 263.074322 150.798385 
L 264.705751 152.938569 
L 266.337181 153.969028 
L 267.968611 153.810495 
L 269.600041 151.90811 
L 271.231471 152.225174 
L 272.862901 149.609394 
L 274.494331 149.767927 
L 276.125761 150.084991 
L 277.75719 148.182606 
L 279.38862 148.816734 
L 281.02005 149.054532 
L 282.65148 147.707009 
L 285.91434 146.518018 
L 289.1772 147.865541 
L 290.80863 148.024073 
L 292.440059 146.597284 
L 295.702919 147.389945 
L 297.334349 146.914349 
L 298.965779 146.993615 
L 300.597209 146.835083 
L 302.228639 146.438752 
L 303.860069 146.914349 
L 305.491498 148.103339 
L 307.122928 147.944807 
L 308.754358 149.054532 
L 310.385788 148.49967 
L 312.017218 146.597284 
L 313.648648 146.518018 
L 315.280078 145.804624 
L 316.911508 146.835083 
L 318.542937 146.914349 
L 320.174367 145.408294 
L 321.805797 145.646092 
L 323.437227 143.822972 
L 325.068657 145.249761 
L 326.700087 146.042422 
L 328.331517 145.804624 
L 329.962947 145.408294 
L 331.594376 143.66444 
L 333.225806 144.774165 
L 334.857236 145.566826 
L 336.488666 146.914349 
L 338.120096 147.152147 
L 339.751526 144.694899 
L 341.382956 144.298569 
L 343.014386 144.774165 
L 344.645815 142.713248 
L 346.277245 142.47545 
L 347.908675 142.554716 
L 349.540105 142.237651 
L 351.171535 141.444991 
L 352.802965 142.396183 
L 354.434395 141.603523 
L 357.697254 142.633982 
L 359.328684 143.505908 
L 360.960114 142.396183 
L 364.222974 142.316917 
L 365.854404 142.713248 
L 367.485834 142.47545 
L 369.117264 141.682789 
L 370.748693 141.048661 
L 372.380123 142.633982 
L 374.011553 142.633982 
L 375.642983 142.237651 
L 377.274413 141.524257 
L 378.905843 141.365725 
L 380.537273 142.47545 
L 380.537273 142.47545 
" clip-path="url(#p9cc6e1dd84)" style="fill: none; stroke: #d62728; stroke-width: 1.5; stroke-linecap: square"/>
   </g>
   <g id="patch_3">
    <path d="M 39.65 273.312 
L 39.65 7.2 
" style="fill: none; stroke: #000000; stroke-width: 0.8; stroke-linejoin: miter; stroke-linecap: square"/>
   </g>
   <g id="patch_4">
    <path d="M 396.77 273.312 
L 396.77 7.2 
" style="fill: none; stroke: #000000; stroke-width: 0.8; stroke-linejoin: miter; stroke-linecap: square"/>
   </g>
   <g id="patch_5">
    <path d="M 39.65 273.312 
L 396.77 273.312 
" style="fill: none; stroke: #000000; stroke-width: 0.8; stroke-linejoin: miter; stroke-linecap: square"/>
   </g>
   <g id="patch_6">
    <path d="M 39.65 7.2 
L 396.77 7.2 
" style="fill: none; stroke: #000000; stroke-width: 0.8; stroke-linejoin: miter; stroke-linecap: square"/>
   </g>
  </g>
 </g>
 <defs>
  <clipPath id="p9cc6e1dd84">
   <rect x="39.65" y="7.2" width="357.12" height="266.112"/>
  </clipPath>
 </defs>
</svg>
