<?xml version="1.0" encoding="utf-8" standalone="no"?>
<!DOCTYPE svg PUBLIC "-//W3C//DTD SVG 1.1//EN"
  "http://www.w3.org/Graphics/SVG/1.1/DTD/svg11.dtd">
<svg xmlns:xlink="http://www.w3.org/1999/xlink" width="403.97pt" height="297.190125pt" viewBox="0 0 403.97 297.190125" xmlns="http://www.w3.org/2000/svg" version="1.1">
 <metadata>
  <rdf:RDF xmlns:dc="http://purl.org/dc/elements/1.1/" xmlns:cc="http://creativecommons.org/ns#" xmlns:rdf="http://www.w3.org/1999/02/22-rdf-syntax-ns#">
   <cc:Work>
    <dc:type rdf:resource="http://purl.org/dc/dcmitype/StillImage"/>
    <dc:date>2025-02-17T13:18:09.877650</dc:date>
    <dc:format>image/svg+xml</dc:format>
    <dc:creator>
     <cc:Agent>
      <dc:title>Matplotlib v3.10.0, https://matplotlib.org/</dc:title>
     </cc:Agent>
    </dc:creator>
   </cc:Work>
  </rdf:RDF>
 </metadata>
 <defs>
  <style type="text/css">*{stroke-linejoin: round; stroke-linecap: butt}</style>
 </defs>
 <g id="figure_1">
  <g id="patch_1">
   <path d="M 0 297.190125 
L 403.97 297.190125 
L 403.97 0 
L 0 0 
z
" style="fill: #ffffff"/>
  </g>
  <g id="axes_1">
   <g id="patch_2">
    <path d="M 39.65 273.312 
L 396.77 273.312 
L 396.77 7.2 
L 39.65 7.2 
z
" style="fill: #ffffff"/>
   </g>
   <g id="matplotlib.axis_1">
    <g id="xtick_1">
     <g id="line2d_1">
      <defs>
       <path id="m18bb531f17" d="M 0 0 
L 0 3.5 
" style="stroke: #000000; stroke-width: 0.8"/>
      </defs>
      <g>
       <use xlink:href="#m18bb531f17" x="55.882727" y="273.312" style="stroke: #000000; stroke-width: 0.8"/>
      </g>
     </g>
     <g id="text_1">
      <!-- 0.0 -->
      <g transform="translate(47.931165 287.910437) scale(0.1 -0.1)">
       <defs>
        <path id="DejaVuSans-30" d="M 2034 4250 
Q 1547 4250 1301 3770 
Q 1056 3291 1056 2328 
Q 1056 1369 1301 889 
Q 1547 409 2034 409 
Q 2525 409 2770 889 
Q 3016 1369 3016 2328 
Q 3016 3291 2770 3770 
Q 2525 4250 2034 4250 
z
M 2034 4750 
Q 2819 4750 3233 4129 
Q 3647 3509 3647 2328 
Q 3647 1150 3233 529 
Q 2819 -91 2034 -91 
Q 1250 -91 836 529 
Q 422 1150 422 2328 
Q 422 3509 836 4129 
Q 1250 4750 2034 4750 
z
" transform="scale(0.015625)"/>
        <path id="DejaVuSans-2e" d="M 684 794 
L 1344 794 
L 1344 0 
L 684 0 
L 684 794 
z
" transform="scale(0.015625)"/>
       </defs>
       <use xlink:href="#DejaVuSans-30"/>
       <use xlink:href="#DejaVuSans-2e" transform="translate(63.623047 0)"/>
       <use xlink:href="#DejaVuSans-30" transform="translate(95.410156 0)"/>
      </g>
     </g>
    </g>
    <g id="xtick_2">
     <g id="line2d_2">
      <g>
       <use xlink:href="#m18bb531f17" x="96.668474" y="273.312" style="stroke: #000000; stroke-width: 0.8"/>
      </g>
     </g>
     <g id="text_2">
      <!-- 2.5 -->
      <g transform="translate(88.716912 287.910437) scale(0.1 -0.1)">
       <defs>
        <path id="DejaVuSans-32" d="M 1228 531 
L 3431 531 
L 3431 0 
L 469 0 
L 469 531 
Q 828 903 1448 1529 
Q 2069 2156 2228 2338 
Q 2531 2678 2651 2914 
Q 2772 3150 2772 3378 
Q 2772 3750 2511 3984 
Q 2250 4219 1831 4219 
Q 1534 4219 1204 4116 
Q 875 4013 500 3803 
L 500 4441 
Q 881 4594 1212 4672 
Q 1544 4750 1819 4750 
Q 2544 4750 2975 4387 
Q 3406 4025 3406 3419 
Q 3406 3131 3298 2873 
Q 3191 2616 2906 2266 
Q 2828 2175 2409 1742 
Q 1991 1309 1228 531 
z
" transform="scale(0.015625)"/>
        <path id="DejaVuSans-35" d="M 691 4666 
L 3169 4666 
L 3169 4134 
L 1269 4134 
L 1269 2991 
Q 1406 3038 1543 3061 
Q 1681 3084 1819 3084 
Q 2600 3084 3056 2656 
Q 3513 2228 3513 1497 
Q 3513 744 3044 326 
Q 2575 -91 1722 -91 
Q 1428 -91 1123 -41 
Q 819 9 494 109 
L 494 744 
Q 775 591 1075 516 
Q 1375 441 1709 441 
Q 2250 441 2565 725 
Q 2881 1009 2881 1497 
Q 2881 1984 2565 2268 
Q 2250 2553 1709 2553 
Q 1456 2553 1204 2497 
Q 953 2441 691 2322 
L 691 4666 
z
" transform="scale(0.015625)"/>
       </defs>
       <use xlink:href="#DejaVuSans-32"/>
       <use xlink:href="#DejaVuSans-2e" transform="translate(63.623047 0)"/>
       <use xlink:href="#DejaVuSans-35" transform="translate(95.410156 0)"/>
      </g>
     </g>
    </g>
    <g id="xtick_3">
     <g id="line2d_3">
      <g>
       <use xlink:href="#m18bb531f17" x="137.454221" y="273.312" style="stroke: #000000; stroke-width: 0.8"/>
      </g>
     </g>
     <g id="text_3">
      <!-- 5.0 -->
      <g transform="translate(129.502659 287.910437) scale(0.1 -0.1)">
       <use xlink:href="#DejaVuSans-35"/>
       <use xlink:href="#DejaVuSans-2e" transform="translate(63.623047 0)"/>
       <use xlink:href="#DejaVuSans-30" transform="translate(95.410156 0)"/>
      </g>
     </g>
    </g>
    <g id="xtick_4">
     <g id="line2d_4">
      <g>
       <use xlink:href="#m18bb531f17" x="178.239968" y="273.312" style="stroke: #000000; stroke-width: 0.8"/>
      </g>
     </g>
     <g id="text_4">
      <!-- 7.5 -->
      <g transform="translate(170.288406 287.910437) scale(0.1 -0.1)">
       <defs>
        <path id="DejaVuSans-37" d="M 525 4666 
L 3525 4666 
L 3525 4397 
L 1831 0 
L 1172 0 
L 2766 4134 
L 525 4134 
L 525 4666 
z
" transform="scale(0.015625)"/>
       </defs>
       <use xlink:href="#DejaVuSans-37"/>
       <use xlink:href="#DejaVuSans-2e" transform="translate(63.623047 0)"/>
       <use xlink:href="#DejaVuSans-35" transform="translate(95.410156 0)"/>
      </g>
     </g>
    </g>
    <g id="xtick_5">
     <g id="line2d_5">
      <g>
       <use xlink:href="#m18bb531f17" x="219.025715" y="273.312" style="stroke: #000000; stroke-width: 0.8"/>
      </g>
     </g>
     <g id="text_5">
      <!-- 10.0 -->
      <g transform="translate(207.892902 287.910437) scale(0.1 -0.1)">
       <defs>
        <path id="DejaVuSans-31" d="M 794 531 
L 1825 531 
L 1825 4091 
L 703 3866 
L 703 4441 
L 1819 4666 
L 2450 4666 
L 2450 531 
L 3481 531 
L 3481 0 
L 794 0 
L 794 531 
z
" transform="scale(0.015625)"/>
       </defs>
       <use xlink:href="#DejaVuSans-31"/>
       <use xlink:href="#DejaVuSans-30" transform="translate(63.623047 0)"/>
       <use xlink:href="#DejaVuSans-2e" transform="translate(127.246094 0)"/>
       <use xlink:href="#DejaVuSans-30" transform="translate(159.033203 0)"/>
      </g>
     </g>
    </g>
    <g id="xtick_6">
     <g id="line2d_6">
      <g>
       <use xlink:href="#m18bb531f17" x="259.811462" y="273.312" style="stroke: #000000; stroke-width: 0.8"/>
      </g>
     </g>
     <g id="text_6">
      <!-- 12.5 -->
      <g transform="translate(248.678649 287.910437) scale(0.1 -0.1)">
       <use xlink:href="#DejaVuSans-31"/>
       <use xlink:href="#DejaVuSans-32" transform="translate(63.623047 0)"/>
       <use xlink:href="#DejaVuSans-2e" transform="translate(127.246094 0)"/>
       <use xlink:href="#DejaVuSans-35" transform="translate(159.033203 0)"/>
      </g>
     </g>
    </g>
    <g id="xtick_7">
     <g id="line2d_7">
      <g>
       <use xlink:href="#m18bb531f17" x="300.597209" y="273.312" style="stroke: #000000; stroke-width: 0.8"/>
      </g>
     </g>
     <g id="text_7">
      <!-- 15.0 -->
      <g transform="translate(289.464396 287.910437) scale(0.1 -0.1)">
       <use xlink:href="#DejaVuSans-31"/>
       <use xlink:href="#DejaVuSans-35" transform="translate(63.623047 0)"/>
       <use xlink:href="#DejaVuSans-2e" transform="translate(127.246094 0)"/>
       <use xlink:href="#DejaVuSans-30" transform="translate(159.033203 0)"/>
      </g>
     </g>
    </g>
    <g id="xtick_8">
     <g id="line2d_8">
      <g>
       <use xlink:href="#m18bb531f17" x="341.382956" y="273.312" style="stroke: #000000; stroke-width: 0.8"/>
      </g>
     </g>
     <g id="text_8">
      <!-- 17.5 -->
      <g transform="translate(330.250143 287.910437) scale(0.1 -0.1)">
       <use xlink:href="#DejaVuSans-31"/>
       <use xlink:href="#DejaVuSans-37" transform="translate(63.623047 0)"/>
       <use xlink:href="#DejaVuSans-2e" transform="translate(127.246094 0)"/>
       <use xlink:href="#DejaVuSans-35" transform="translate(159.033203 0)"/>
      </g>
     </g>
    </g>
    <g id="xtick_9">
     <g id="line2d_9">
      <g>
       <use xlink:href="#m18bb531f17" x="382.168703" y="273.312" style="stroke: #000000; stroke-width: 0.8"/>
      </g>
     </g>
     <g id="text_9">
      <!-- 20.0 -->
      <g transform="translate(371.03589 287.910437) scale(0.1 -0.1)">
       <use xlink:href="#DejaVuSans-32"/>
       <use xlink:href="#DejaVuSans-30" transform="translate(63.623047 0)"/>
       <use xlink:href="#DejaVuSans-2e" transform="translate(127.246094 0)"/>
       <use xlink:href="#DejaVuSans-30" transform="translate(159.033203 0)"/>
      </g>
     </g>
    </g>
   </g>
   <g id="matplotlib.axis_2">
    <g id="ytick_1">
     <g id="line2d_10">
      <defs>
       <path id="m688034229f" d="M 0 0 
L -3.5 0 
" style="stroke: #000000; stroke-width: 0.8"/>
      </defs>
      <g>
       <use xlink:href="#m688034229f" x="39.65" y="261.216" style="stroke: #000000; stroke-width: 0.8"/>
      </g>
     </g>
     <g id="text_10">
      <!-- 0 -->
      <g transform="translate(26.2875 265.015219) scale(0.1 -0.1)">
       <use xlink:href="#DejaVuSans-30"/>
      </g>
     </g>
    </g>
    <g id="ytick_2">
     <g id="line2d_11">
      <g>
       <use xlink:href="#m688034229f" x="39.65" y="222.455389" style="stroke: #000000; stroke-width: 0.8"/>
      </g>
     </g>
     <g id="text_11">
      <!-- 500 -->
      <g transform="translate(13.5625 226.254608) scale(0.1 -0.1)">
       <use xlink:href="#DejaVuSans-35"/>
       <use xlink:href="#DejaVuSans-30" transform="translate(63.623047 0)"/>
       <use xlink:href="#DejaVuSans-30" transform="translate(127.246094 0)"/>
      </g>
     </g>
    </g>
    <g id="ytick_3">
     <g id="line2d_12">
      <g>
       <use xlink:href="#m688034229f" x="39.65" y="183.694778" style="stroke: #000000; stroke-width: 0.8"/>
      </g>
     </g>
     <g id="text_12">
      <!-- 1000 -->
      <g transform="translate(7.2 187.493997) scale(0.1 -0.1)">
       <use xlink:href="#DejaVuSans-31"/>
       <use xlink:href="#DejaVuSans-30" transform="translate(63.623047 0)"/>
       <use xlink:href="#DejaVuSans-30" transform="translate(127.246094 0)"/>
       <use xlink:href="#DejaVuSans-30" transform="translate(190.869141 0)"/>
      </g>
     </g>
    </g>
    <g id="ytick_4">
     <g id="line2d_13">
      <g>
       <use xlink:href="#m688034229f" x="39.65" y="144.934168" style="stroke: #000000; stroke-width: 0.8"/>
      </g>
     </g>
     <g id="text_13">
      <!-- 1500 -->
      <g transform="translate(7.2 148.733386) scale(0.1 -0.1)">
       <use xlink:href="#DejaVuSans-31"/>
       <use xlink:href="#DejaVuSans-35" transform="translate(63.623047 0)"/>
       <use xlink:href="#DejaVuSans-30" transform="translate(127.246094 0)"/>
       <use xlink:href="#DejaVuSans-30" transform="translate(190.869141 0)"/>
      </g>
     </g>
    </g>
    <g id="ytick_5">
     <g id="line2d_14">
      <g>
       <use xlink:href="#m688034229f" x="39.65" y="106.173557" style="stroke: #000000; stroke-width: 0.8"/>
      </g>
     </g>
     <g id="text_14">
      <!-- 2000 -->
      <g transform="translate(7.2 109.972776) scale(0.1 -0.1)">
       <use xlink:href="#DejaVuSans-32"/>
       <use xlink:href="#DejaVuSans-30" transform="translate(63.623047 0)"/>
       <use xlink:href="#DejaVuSans-30" transform="translate(127.246094 0)"/>
       <use xlink:href="#DejaVuSans-30" transform="translate(190.869141 0)"/>
      </g>
     </g>
    </g>
    <g id="ytick_6">
     <g id="line2d_15">
      <g>
       <use xlink:href="#m688034229f" x="39.65" y="67.412946" style="stroke: #000000; stroke-width: 0.8"/>
      </g>
     </g>
     <g id="text_15">
      <!-- 2500 -->
      <g transform="translate(7.2 71.212165) scale(0.1 -0.1)">
       <use xlink:href="#DejaVuSans-32"/>
       <use xlink:href="#DejaVuSans-35" transform="translate(63.623047 0)"/>
       <use xlink:href="#DejaVuSans-30" transform="translate(127.246094 0)"/>
       <use xlink:href="#DejaVuSans-30" transform="translate(190.869141 0)"/>
      </g>
     </g>
    </g>
    <g id="ytick_7">
     <g id="line2d_16">
      <g>
       <use xlink:href="#m688034229f" x="39.65" y="28.652335" style="stroke: #000000; stroke-width: 0.8"/>
      </g>
     </g>
     <g id="text_16">
      <!-- 3000 -->
      <g transform="translate(7.2 32.451554) scale(0.1 -0.1)">
       <defs>
        <path id="DejaVuSans-33" d="M 2597 2516 
Q 3050 2419 3304 2112 
Q 3559 1806 3559 1356 
Q 3559 666 3084 287 
Q 2609 -91 1734 -91 
Q 1441 -91 1130 -33 
Q 819 25 488 141 
L 488 750 
Q 750 597 1062 519 
Q 1375 441 1716 441 
Q 2309 441 2620 675 
Q 2931 909 2931 1356 
Q 2931 1769 2642 2001 
Q 2353 2234 1838 2234 
L 1294 2234 
L 1294 2753 
L 1863 2753 
Q 2328 2753 2575 2939 
Q 2822 3125 2822 3475 
Q 2822 3834 2567 4026 
Q 2313 4219 1838 4219 
Q 1578 4219 1281 4162 
Q 984 4106 628 3988 
L 628 4550 
Q 988 4650 1302 4700 
Q 1616 4750 1894 4750 
Q 2613 4750 3031 4423 
Q 3450 4097 3450 3541 
Q 3450 3153 3228 2886 
Q 3006 2619 2597 2516 
z
" transform="scale(0.015625)"/>
       </defs>
       <use xlink:href="#DejaVuSans-33"/>
       <use xlink:href="#DejaVuSans-30" transform="translate(63.623047 0)"/>
       <use xlink:href="#DejaVuSans-30" transform="translate(127.246094 0)"/>
       <use xlink:href="#DejaVuSans-30" transform="translate(190.869141 0)"/>
      </g>
     </g>
    </g>
   </g>
   <g id="line2d_17">
    <path d="M 55.882727 261.216 
L 59.961302 241.835695 
L 64.039877 224.005814 
L 68.118451 207.602323 
L 72.197026 192.511112 
L 76.275601 178.627198 
L 80.354175 165.853996 
L 84.43275 154.102651 
L 88.511325 143.291414 
L 92.589899 133.345075 
L 96.668474 124.194444 
L 100.747049 115.775863 
L 104.825624 108.030769 
L 108.904198 100.905282 
L 112.982773 94.349834 
L 117.061348 88.318822 
L 121.139922 82.770291 
L 125.218497 77.665642 
L 129.297072 72.969365 
L 133.375646 68.648791 
L 137.454221 64.673862 
L 141.532796 61.016928 
L 145.61137 57.652548 
L 149.689945 54.557319 
L 153.76852 51.709708 
L 157.847095 49.089906 
L 161.925669 46.679688 
L 166.004244 44.462288 
L 170.082819 42.422279 
L 174.161393 40.545471 
L 178.239968 38.818808 
L 182.318543 37.230278 
L 186.397117 35.768831 
L 190.475692 34.424299 
L 194.554267 33.187329 
L 198.632841 32.049318 
L 202.711416 31.002347 
L 206.789991 30.039134 
L 210.868566 29.152978 
L 214.94714 28.337714 
L 219.025715 27.587672 
L 223.10429 26.897632 
L 227.182864 26.262796 
L 231.261439 25.678747 
L 235.340014 25.141422 
L 239.418588 24.647083 
L 243.497163 24.192291 
L 247.575738 23.773882 
L 251.654312 23.388946 
L 255.732887 23.034805 
L 259.811462 22.708995 
L 263.890037 22.40925 
L 267.968611 22.133485 
L 272.047186 21.879781 
L 276.125761 21.646373 
L 280.204335 21.431638 
L 284.28291 21.234081 
L 288.361485 21.052329 
L 292.440059 20.885118 
L 296.518634 20.731283 
L 300.597209 20.589755 
L 304.675783 20.459549 
L 308.754358 20.33976 
L 312.832933 20.229554 
L 316.911508 20.128164 
L 320.990082 20.034885 
L 325.068657 19.949069 
L 329.147232 19.870118 
L 333.225806 19.797483 
L 337.304381 19.730659 
L 341.382956 19.669181 
L 345.46153 19.612621 
L 349.540105 19.560586 
L 353.61868 19.512714 
L 357.697254 19.468671 
L 361.775829 19.428152 
L 365.854404 19.390875 
L 369.932979 19.356579 
L 374.011553 19.325028 
L 378.090128 19.296 
" clip-path="url(#p82c20c659a)" style="fill: none; stroke: #1f77b4; stroke-width: 1.5; stroke-linecap: square"/>
   </g>
   <g id="line2d_18">
    <path d="M 55.882727 261.216 
L 59.961302 261.216 
L 64.039877 259.665576 
L 68.118451 256.926751 
L 72.197026 253.296056 
L 76.275601 249.015377 
L 80.354175 244.281068 
L 84.43275 239.25162 
L 88.511325 234.054084 
L 92.589899 228.789472 
L 96.668474 223.53727 
L 100.747049 218.35923 
L 104.825624 213.302533 
L 108.904198 208.402432 
L 112.982773 203.684457 
L 117.061348 199.166256 
L 121.139922 194.859117 
L 125.218497 190.769242 
L 129.297072 186.898791 
L 133.375646 183.246752 
L 137.454221 179.809654 
L 141.532796 176.582157 
L 145.61137 173.557526 
L 149.689945 170.728026 
L 153.76852 168.085235 
L 157.847095 165.620304 
L 161.925669 163.324156 
L 166.004244 161.187649 
L 170.082819 159.201704 
L 174.161393 157.357401 
L 178.239968 155.646054 
L 182.318543 154.059265 
L 186.397117 152.588966 
L 190.475692 151.227442 
L 194.554267 149.96735 
L 198.632841 148.801724 
L 202.711416 147.723981 
L 206.789991 146.727913 
L 210.868566 145.807685 
L 214.94714 144.95782 
L 219.025715 144.173188 
L 223.10429 143.448993 
L 227.182864 142.780759 
L 231.261439 142.164312 
L 235.340014 141.595766 
L 239.418588 141.071506 
L 243.497163 140.588172 
L 247.575738 140.142647 
L 251.654312 139.732037 
L 255.732887 139.353661 
L 259.811462 139.005035 
L 263.890037 138.683858 
L 267.968611 138.388001 
L 272.047186 138.115498 
L 276.125761 137.864528 
L 280.204335 137.633408 
L 284.28291 137.420587 
L 288.361485 137.22463 
L 292.440059 137.044211 
L 296.518634 136.87811 
L 300.597209 136.725199 
L 304.675783 136.584437 
L 308.754358 136.454866 
L 312.832933 136.335601 
L 316.911508 136.225826 
L 320.990082 136.124791 
L 325.068657 136.031803 
L 329.147232 135.946222 
L 333.225806 135.867463 
L 337.304381 135.794982 
L 341.382956 135.728281 
L 345.46153 135.6669 
L 349.540105 135.610417 
L 353.61868 135.558441 
L 357.697254 135.510613 
L 361.775829 135.466604 
L 365.854404 135.426108 
L 369.932979 135.388847 
L 374.011553 135.354561 
L 378.090128 135.323014 
" clip-path="url(#p82c20c659a)" style="fill: none; stroke: #ff7f0e; stroke-width: 1.5; stroke-linecap: square"/>
   </g>
   <g id="line2d_19">
    <path d="M 55.882727 261.216 
L 57.514157 252.146017 
L 59.145587 244.859022 
L 60.777017 236.719294 
L 62.408447 231.060245 
L 64.039877 224.238377 
L 65.671307 218.269243 
L 67.302736 210.749685 
L 68.934166 205.013114 
L 72.197026 191.679464 
L 75.459886 181.834269 
L 78.722746 170.516171 
L 80.354175 166.252504 
L 81.985605 162.84157 
L 83.617035 158.577903 
L 85.248465 152.298684 
L 86.879895 148.422623 
L 88.511325 142.841095 
L 90.142755 140.205373 
L 91.774185 136.794439 
L 93.405614 133.073421 
L 95.037044 128.964796 
L 96.668474 124.236001 
L 98.299904 121.057631 
L 99.931334 118.576952 
L 101.562764 116.793964 
L 104.825624 111.910127 
L 106.457053 107.801503 
L 108.088483 104.46809 
L 109.719913 104.002963 
L 111.351343 102.219975 
L 112.982773 99.661774 
L 114.614203 98.033829 
L 116.245633 95.785713 
L 117.877063 93.149992 
L 119.508492 90.746834 
L 121.139922 89.971622 
L 122.771352 87.801027 
L 124.402782 86.483167 
L 126.034212 84.390094 
L 127.665642 81.444287 
L 129.297072 78.808566 
L 130.928502 78.033353 
L 132.559931 74.699941 
L 134.191361 72.684389 
L 135.822791 69.661061 
L 137.454221 68.110637 
L 139.085651 67.257904 
L 140.717081 67.412946 
L 142.348511 67.102861 
L 143.979941 66.017564 
L 145.61137 64.234576 
L 147.2428 63.2268 
L 148.87423 64.312097 
L 150.50566 63.924491 
L 152.13709 63.2268 
L 155.39995 63.459364 
L 157.03138 62.063982 
L 158.66281 60.436036 
L 160.294239 59.815866 
L 161.925669 58.575527 
L 163.557099 56.87006 
L 165.188529 55.62972 
L 168.451389 55.862284 
L 170.082819 54.156817 
L 171.714249 52.761435 
L 174.977108 53.614169 
L 176.608538 51.831181 
L 178.239968 51.211011 
L 179.871398 49.89315 
L 181.502828 49.040417 
L 183.134258 48.730332 
L 184.765688 47.33495 
L 186.397117 45.707004 
L 188.028547 43.691452 
L 189.659977 44.854271 
L 191.291407 43.458889 
L 192.922837 40.202997 
L 194.554267 40.513082 
L 196.185697 40.35804 
L 197.817127 38.109924 
L 199.448556 37.644797 
L 201.079986 39.1177 
L 202.711416 40.97821 
L 204.342846 40.900688 
L 205.974276 40.202997 
L 207.605706 40.513082 
L 209.237136 41.055731 
L 210.868566 39.040179 
L 212.499995 39.427785 
L 214.131425 38.342488 
L 215.762855 39.582828 
L 217.394285 41.288294 
L 219.025715 42.141028 
L 220.657145 42.063507 
L 222.288575 43.226325 
L 223.920005 42.683676 
L 227.182864 42.993761 
L 228.814294 43.613931 
L 230.445724 45.396919 
L 232.077154 44.776749 
L 233.708584 47.102386 
L 235.340014 47.33495 
L 236.971444 47.722556 
L 238.602873 46.172131 
L 240.234303 44.931792 
L 241.865733 44.311622 
L 243.497163 41.598379 
L 246.760023 41.520858 
L 248.391453 42.451113 
L 250.022883 41.753422 
L 251.654312 41.908464 
L 253.285742 41.520858 
L 254.917172 38.264967 
L 256.548602 39.970434 
L 258.180032 37.722318 
L 259.811462 36.637021 
L 261.442892 37.644797 
L 263.074322 35.784288 
L 264.705751 34.621469 
L 266.337181 34.621469 
L 267.968611 33.691215 
L 269.600041 33.148566 
L 271.231471 34.466427 
L 272.862901 34.621469 
L 274.494331 35.164118 
L 276.125761 35.009075 
L 277.75719 33.536172 
L 279.38862 31.365578 
L 282.65148 30.667887 
L 284.28291 29.815154 
L 285.91434 30.900451 
L 289.1772 32.218311 
L 290.80863 30.20276 
L 292.440059 29.815154 
L 294.071489 28.032166 
L 295.702919 29.737632 
L 297.334349 30.357802 
L 298.965779 28.574814 
L 300.597209 28.497293 
L 302.228639 29.892675 
L 303.860069 29.815154 
L 307.122928 31.133014 
L 308.754358 30.435323 
L 310.385788 31.753184 
L 312.017218 31.52062 
L 313.648648 29.58259 
L 315.280078 31.52062 
L 316.911508 32.295833 
L 318.542937 30.900451 
L 320.174367 30.667887 
L 321.805797 31.985748 
L 323.437227 31.52062 
L 325.068657 30.357802 
L 326.700087 29.660111 
L 328.331517 29.815154 
L 329.962947 30.900451 
L 331.594376 31.753184 
L 333.225806 32.063269 
L 334.857236 33.768736 
L 338.120096 35.164118 
L 339.751526 35.474203 
L 341.382956 33.071045 
L 343.014386 31.908227 
L 344.645815 31.288057 
L 346.277245 31.675663 
L 347.908675 31.52062 
L 349.540105 31.675663 
L 351.171535 29.970196 
L 352.802965 30.435323 
L 354.434395 31.598142 
L 356.065825 33.38113 
L 357.697254 33.691215 
L 359.328684 32.916002 
L 360.960114 32.838481 
L 362.591544 31.908227 
L 364.222974 32.373354 
L 365.854404 32.295833 
L 367.485834 32.993524 
L 369.117264 32.063269 
L 370.748693 32.373354 
L 372.380123 32.450875 
L 374.011553 33.226087 
L 375.642983 33.071045 
L 377.274413 33.071045 
L 378.905843 31.598142 
L 380.537273 30.667887 
L 380.537273 30.667887 
" clip-path="url(#p82c20c659a)" style="fill: none; stroke: #2ca02c; stroke-width: 1.5; stroke-linecap: square"/>
   </g>
   <g id="line2d_20">
    <path d="M 55.882727 261.216 
L 57.514157 261.216 
L 59.145587 260.905915 
L 62.408447 259.97566 
L 64.039877 259.277969 
L 65.671307 258.270194 
L 67.302736 257.41746 
L 68.934166 256.409684 
L 75.459886 248.890126 
L 77.091316 247.494744 
L 78.722746 246.254404 
L 80.354175 244.548937 
L 81.985605 241.52561 
L 83.617035 239.742622 
L 85.248465 239.122452 
L 88.511325 235.866561 
L 91.774185 230.440075 
L 93.405614 227.416747 
L 95.037044 225.246153 
L 96.668474 224.083335 
L 98.299904 221.525135 
L 101.562764 218.656849 
L 103.194194 216.098649 
L 104.825624 213.850534 
L 106.457053 212.532673 
L 108.088483 210.904727 
L 109.719913 208.734133 
L 111.351343 207.416272 
L 112.982773 205.865848 
L 114.614203 203.927817 
L 117.877063 201.292096 
L 119.508492 198.811417 
L 121.139922 196.563301 
L 122.771352 193.92758 
L 124.402782 193.229889 
L 127.665642 190.206561 
L 129.297072 189.896476 
L 130.928502 187.183233 
L 132.559931 187.028191 
L 134.191361 185.400245 
L 135.822791 184.780076 
L 137.454221 182.454439 
L 139.085651 181.834269 
L 140.717081 179.896239 
L 142.348511 179.198548 
L 143.979941 176.717868 
L 145.61137 176.097699 
L 147.2428 175.787614 
L 148.87423 174.314711 
L 150.50566 173.384456 
L 152.13709 174.237189 
L 153.76852 172.764286 
L 157.03138 171.75651 
L 158.66281 170.361128 
L 160.294239 169.81848 
L 161.925669 169.973522 
L 163.557099 171.213862 
L 165.188529 171.058819 
L 166.819959 168.965746 
L 168.451389 165.942419 
L 170.082819 166.407546 
L 171.714249 166.097461 
L 173.345678 166.174982 
L 174.977108 165.244728 
L 176.608538 165.167206 
L 178.239968 164.547037 
L 179.871398 162.764049 
L 181.502828 163.074133 
L 183.134258 164.702079 
L 184.765688 164.547037 
L 188.028547 161.058582 
L 189.659977 159.6632 
L 191.291407 159.895763 
L 192.922837 160.28337 
L 194.554267 157.725169 
L 196.185697 156.329787 
L 197.817127 156.794915 
L 199.448556 157.880212 
L 201.079986 155.322011 
L 202.711416 153.539023 
L 204.342846 153.539023 
L 205.974276 154.62432 
L 207.605706 152.608769 
L 209.237136 151.756035 
L 210.868566 152.918853 
L 212.499995 151.988599 
L 214.131425 152.376205 
L 215.762855 151.756035 
L 217.394285 150.283132 
L 219.025715 149.352877 
L 222.288575 150.670738 
L 223.920005 150.128089 
L 225.551434 150.438174 
L 227.182864 149.973047 
L 228.814294 150.515696 
L 230.445724 149.895526 
L 232.077154 150.980823 
L 233.708584 148.655186 
L 235.340014 149.430398 
L 236.971444 150.360653 
L 238.602873 152.06612 
L 240.234303 152.453726 
L 241.865733 153.228938 
L 243.497163 155.089448 
L 245.128593 153.30646 
L 246.760023 154.546799 
L 248.391453 153.073896 
L 250.022883 152.918853 
L 253.285742 153.30646 
L 254.917172 154.081672 
L 256.548602 152.531247 
L 258.180032 153.616544 
L 259.811462 153.926629 
L 261.442892 153.616544 
L 263.074322 153.771587 
L 264.705751 154.934405 
L 266.337181 153.539023 
L 267.968611 154.004151 
L 269.600041 153.30646 
L 271.231471 151.911078 
L 272.862901 150.283132 
L 274.494331 149.662962 
L 276.125761 151.058344 
L 277.75719 151.523471 
L 279.38862 151.600993 
L 281.02005 153.461502 
L 282.65148 153.30646 
L 284.28291 154.314235 
L 285.91434 153.151417 
L 287.54577 152.841332 
L 289.1772 151.523471 
L 292.440059 151.911078 
L 294.071489 152.06612 
L 295.702919 151.523471 
L 297.334349 151.523471 
L 298.965779 151.756035 
L 302.228639 148.345101 
L 303.860069 148.577665 
L 307.122928 148.655186 
L 308.754358 147.879974 
L 310.385788 146.096986 
L 312.017218 146.407071 
L 313.648648 146.562113 
L 315.280078 146.949719 
L 316.911508 144.779125 
L 318.542937 144.391519 
L 320.174367 145.244253 
L 321.805797 145.011689 
L 323.437227 145.70938 
L 326.700087 146.252028 
L 328.331517 146.252028 
L 329.962947 144.391519 
L 331.594376 145.08921 
L 333.225806 145.166731 
L 334.857236 145.08921 
L 336.488666 145.166731 
L 338.120096 143.15118 
L 339.751526 144.081434 
L 341.382956 145.70938 
L 343.014386 146.639635 
L 344.645815 147.337326 
L 346.277245 146.019465 
L 347.908675 145.864422 
L 349.540105 147.569889 
L 351.171535 148.810229 
L 352.802965 149.120314 
L 356.065825 145.786901 
L 357.697254 144.934168 
L 359.328684 146.252028 
L 360.960114 146.096986 
L 362.591544 147.259804 
L 364.222974 145.631859 
L 365.854404 146.407071 
L 367.485834 146.252028 
L 369.117264 145.554337 
L 370.748693 144.624083 
L 372.380123 144.003913 
L 374.011553 143.848871 
L 375.642983 143.848871 
L 377.274413 144.46904 
L 378.905843 145.786901 
L 380.537273 147.957495 
L 380.537273 147.957495 
" clip-path="url(#p82c20c659a)" style="fill: none; stroke: #d62728; stroke-width: 1.5; stroke-linecap: square"/>
   </g>
   <g id="patch_3">
    <path d="M 39.65 273.312 
L 39.65 7.2 
" style="fill: none; stroke: #000000; stroke-width: 0.8; stroke-linejoin: miter; stroke-linecap: square"/>
   </g>
   <g id="patch_4">
    <path d="M 396.77 273.312 
L 396.77 7.2 
" style="fill: none; stroke: #000000; stroke-width: 0.8; stroke-linejoin: miter; stroke-linecap: square"/>
   </g>
   <g id="patch_5">
    <path d="M 39.65 273.312 
L 396.77 273.312 
" style="fill: none; stroke: #000000; stroke-width: 0.8; stroke-linejoin: miter; stroke-linecap: square"/>
   </g>
   <g id="patch_6">
    <path d="M 39.65 7.2 
L 396.77 7.2 
" style="fill: none; stroke: #000000; stroke-width: 0.8; stroke-linejoin: miter; stroke-linecap: square"/>
   </g>
  </g>
 </g>
 <defs>
  <clipPath id="p82c20c659a">
   <rect x="39.65" y="7.2" width="357.12" height="266.112"/>
  </clipPath>
 </defs>
</svg>
