<?xml version="1.0" encoding="utf-8" standalone="no"?>
<!DOCTYPE svg PUBLIC "-//W3C//DTD SVG 1.1//EN"
  "http://www.w3.org/Graphics/SVG/1.1/DTD/svg11.dtd">
<svg xmlns:xlink="http://www.w3.org/1999/xlink" width="403.97pt" height="297.190125pt" viewBox="0 0 403.97 297.190125" xmlns="http://www.w3.org/2000/svg" version="1.1">
 <metadata>
  <rdf:RDF xmlns:dc="http://purl.org/dc/elements/1.1/" xmlns:cc="http://creativecommons.org/ns#" xmlns:rdf="http://www.w3.org/1999/02/22-rdf-syntax-ns#">
   <cc:Work>
    <dc:type rdf:resource="http://purl.org/dc/dcmitype/StillImage"/>
    <dc:date>2024-05-28T04:20:58.673381</dc:date>
    <dc:format>image/svg+xml</dc:format>
    <dc:creator>
     <cc:Agent>
      <dc:title>Matplotlib v3.9.0, https://matplotlib.org/</dc:title>
     </cc:Agent>
    </dc:creator>
   </cc:Work>
  </rdf:RDF>
 </metadata>
 <defs>
  <style type="text/css">*{stroke-linejoin: round; stroke-linecap: butt}</style>
 </defs>
 <g id="figure_1">
  <g id="patch_1">
   <path d="M 0 297.190125 
L 403.97 297.190125 
L 403.97 0 
L 0 0 
z
" style="fill: #ffffff"/>
  </g>
  <g id="axes_1">
   <g id="patch_2">
    <path d="M 39.65 273.312 
L 396.77 273.312 
L 396.77 7.2 
L 39.65 7.2 
z
" style="fill: #ffffff"/>
   </g>
   <g id="matplotlib.axis_1">
    <g id="xtick_1">
     <g id="line2d_1">
      <defs>
       <path id="mb705fe3bcc" d="M 0 0 
L 0 3.5 
" style="stroke: #000000; stroke-width: 0.8"/>
      </defs>
      <g>
       <use xlink:href="#mb705fe3bcc" x="55.882727" y="273.312" style="stroke: #000000; stroke-width: 0.8"/>
      </g>
     </g>
     <g id="text_1">
      <!-- 0.0 -->
      <g transform="translate(47.931165 287.910437) scale(0.1 -0.1)">
       <defs>
        <path id="DejaVuSans-30" d="M 2034 4250 
Q 1547 4250 1301 3770 
Q 1056 3291 1056 2328 
Q 1056 1369 1301 889 
Q 1547 409 2034 409 
Q 2525 409 2770 889 
Q 3016 1369 3016 2328 
Q 3016 3291 2770 3770 
Q 2525 4250 2034 4250 
z
M 2034 4750 
Q 2819 4750 3233 4129 
Q 3647 3509 3647 2328 
Q 3647 1150 3233 529 
Q 2819 -91 2034 -91 
Q 1250 -91 836 529 
Q 422 1150 422 2328 
Q 422 3509 836 4129 
Q 1250 4750 2034 4750 
z
" transform="scale(0.015625)"/>
        <path id="DejaVuSans-2e" d="M 684 794 
L 1344 794 
L 1344 0 
L 684 0 
L 684 794 
z
" transform="scale(0.015625)"/>
       </defs>
       <use xlink:href="#DejaVuSans-30"/>
       <use xlink:href="#DejaVuSans-2e" x="63.623047"/>
       <use xlink:href="#DejaVuSans-30" x="95.410156"/>
      </g>
     </g>
    </g>
    <g id="xtick_2">
     <g id="line2d_2">
      <g>
       <use xlink:href="#mb705fe3bcc" x="96.668474" y="273.312" style="stroke: #000000; stroke-width: 0.8"/>
      </g>
     </g>
     <g id="text_2">
      <!-- 2.5 -->
      <g transform="translate(88.716912 287.910437) scale(0.1 -0.1)">
       <defs>
        <path id="DejaVuSans-32" d="M 1228 531 
L 3431 531 
L 3431 0 
L 469 0 
L 469 531 
Q 828 903 1448 1529 
Q 2069 2156 2228 2338 
Q 2531 2678 2651 2914 
Q 2772 3150 2772 3378 
Q 2772 3750 2511 3984 
Q 2250 4219 1831 4219 
Q 1534 4219 1204 4116 
Q 875 4013 500 3803 
L 500 4441 
Q 881 4594 1212 4672 
Q 1544 4750 1819 4750 
Q 2544 4750 2975 4387 
Q 3406 4025 3406 3419 
Q 3406 3131 3298 2873 
Q 3191 2616 2906 2266 
Q 2828 2175 2409 1742 
Q 1991 1309 1228 531 
z
" transform="scale(0.015625)"/>
        <path id="DejaVuSans-35" d="M 691 4666 
L 3169 4666 
L 3169 4134 
L 1269 4134 
L 1269 2991 
Q 1406 3038 1543 3061 
Q 1681 3084 1819 3084 
Q 2600 3084 3056 2656 
Q 3513 2228 3513 1497 
Q 3513 744 3044 326 
Q 2575 -91 1722 -91 
Q 1428 -91 1123 -41 
Q 819 9 494 109 
L 494 744 
Q 775 591 1075 516 
Q 1375 441 1709 441 
Q 2250 441 2565 725 
Q 2881 1009 2881 1497 
Q 2881 1984 2565 2268 
Q 2250 2553 1709 2553 
Q 1456 2553 1204 2497 
Q 953 2441 691 2322 
L 691 4666 
z
" transform="scale(0.015625)"/>
       </defs>
       <use xlink:href="#DejaVuSans-32"/>
       <use xlink:href="#DejaVuSans-2e" x="63.623047"/>
       <use xlink:href="#DejaVuSans-35" x="95.410156"/>
      </g>
     </g>
    </g>
    <g id="xtick_3">
     <g id="line2d_3">
      <g>
       <use xlink:href="#mb705fe3bcc" x="137.454221" y="273.312" style="stroke: #000000; stroke-width: 0.8"/>
      </g>
     </g>
     <g id="text_3">
      <!-- 5.0 -->
      <g transform="translate(129.502659 287.910437) scale(0.1 -0.1)">
       <use xlink:href="#DejaVuSans-35"/>
       <use xlink:href="#DejaVuSans-2e" x="63.623047"/>
       <use xlink:href="#DejaVuSans-30" x="95.410156"/>
      </g>
     </g>
    </g>
    <g id="xtick_4">
     <g id="line2d_4">
      <g>
       <use xlink:href="#mb705fe3bcc" x="178.239968" y="273.312" style="stroke: #000000; stroke-width: 0.8"/>
      </g>
     </g>
     <g id="text_4">
      <!-- 7.5 -->
      <g transform="translate(170.288406 287.910437) scale(0.1 -0.1)">
       <defs>
        <path id="DejaVuSans-37" d="M 525 4666 
L 3525 4666 
L 3525 4397 
L 1831 0 
L 1172 0 
L 2766 4134 
L 525 4134 
L 525 4666 
z
" transform="scale(0.015625)"/>
       </defs>
       <use xlink:href="#DejaVuSans-37"/>
       <use xlink:href="#DejaVuSans-2e" x="63.623047"/>
       <use xlink:href="#DejaVuSans-35" x="95.410156"/>
      </g>
     </g>
    </g>
    <g id="xtick_5">
     <g id="line2d_5">
      <g>
       <use xlink:href="#mb705fe3bcc" x="219.025715" y="273.312" style="stroke: #000000; stroke-width: 0.8"/>
      </g>
     </g>
     <g id="text_5">
      <!-- 10.0 -->
      <g transform="translate(207.892902 287.910437) scale(0.1 -0.1)">
       <defs>
        <path id="DejaVuSans-31" d="M 794 531 
L 1825 531 
L 1825 4091 
L 703 3866 
L 703 4441 
L 1819 4666 
L 2450 4666 
L 2450 531 
L 3481 531 
L 3481 0 
L 794 0 
L 794 531 
z
" transform="scale(0.015625)"/>
       </defs>
       <use xlink:href="#DejaVuSans-31"/>
       <use xlink:href="#DejaVuSans-30" x="63.623047"/>
       <use xlink:href="#DejaVuSans-2e" x="127.246094"/>
       <use xlink:href="#DejaVuSans-30" x="159.033203"/>
      </g>
     </g>
    </g>
    <g id="xtick_6">
     <g id="line2d_6">
      <g>
       <use xlink:href="#mb705fe3bcc" x="259.811462" y="273.312" style="stroke: #000000; stroke-width: 0.8"/>
      </g>
     </g>
     <g id="text_6">
      <!-- 12.5 -->
      <g transform="translate(248.678649 287.910437) scale(0.1 -0.1)">
       <use xlink:href="#DejaVuSans-31"/>
       <use xlink:href="#DejaVuSans-32" x="63.623047"/>
       <use xlink:href="#DejaVuSans-2e" x="127.246094"/>
       <use xlink:href="#DejaVuSans-35" x="159.033203"/>
      </g>
     </g>
    </g>
    <g id="xtick_7">
     <g id="line2d_7">
      <g>
       <use xlink:href="#mb705fe3bcc" x="300.597209" y="273.312" style="stroke: #000000; stroke-width: 0.8"/>
      </g>
     </g>
     <g id="text_7">
      <!-- 15.0 -->
      <g transform="translate(289.464396 287.910437) scale(0.1 -0.1)">
       <use xlink:href="#DejaVuSans-31"/>
       <use xlink:href="#DejaVuSans-35" x="63.623047"/>
       <use xlink:href="#DejaVuSans-2e" x="127.246094"/>
       <use xlink:href="#DejaVuSans-30" x="159.033203"/>
      </g>
     </g>
    </g>
    <g id="xtick_8">
     <g id="line2d_8">
      <g>
       <use xlink:href="#mb705fe3bcc" x="341.382956" y="273.312" style="stroke: #000000; stroke-width: 0.8"/>
      </g>
     </g>
     <g id="text_8">
      <!-- 17.5 -->
      <g transform="translate(330.250143 287.910437) scale(0.1 -0.1)">
       <use xlink:href="#DejaVuSans-31"/>
       <use xlink:href="#DejaVuSans-37" x="63.623047"/>
       <use xlink:href="#DejaVuSans-2e" x="127.246094"/>
       <use xlink:href="#DejaVuSans-35" x="159.033203"/>
      </g>
     </g>
    </g>
    <g id="xtick_9">
     <g id="line2d_9">
      <g>
       <use xlink:href="#mb705fe3bcc" x="382.168703" y="273.312" style="stroke: #000000; stroke-width: 0.8"/>
      </g>
     </g>
     <g id="text_9">
      <!-- 20.0 -->
      <g transform="translate(371.03589 287.910437) scale(0.1 -0.1)">
       <use xlink:href="#DejaVuSans-32"/>
       <use xlink:href="#DejaVuSans-30" x="63.623047"/>
       <use xlink:href="#DejaVuSans-2e" x="127.246094"/>
       <use xlink:href="#DejaVuSans-30" x="159.033203"/>
      </g>
     </g>
    </g>
   </g>
   <g id="matplotlib.axis_2">
    <g id="ytick_1">
     <g id="line2d_10">
      <defs>
       <path id="ma599386c90" d="M 0 0 
L -3.5 0 
" style="stroke: #000000; stroke-width: 0.8"/>
      </defs>
      <g>
       <use xlink:href="#ma599386c90" x="39.65" y="261.216" style="stroke: #000000; stroke-width: 0.8"/>
      </g>
     </g>
     <g id="text_10">
      <!-- 0 -->
      <g transform="translate(26.2875 265.015219) scale(0.1 -0.1)">
       <use xlink:href="#DejaVuSans-30"/>
      </g>
     </g>
    </g>
    <g id="ytick_2">
     <g id="line2d_11">
      <g>
       <use xlink:href="#ma599386c90" x="39.65" y="222.070369" style="stroke: #000000; stroke-width: 0.8"/>
      </g>
     </g>
     <g id="text_11">
      <!-- 500 -->
      <g transform="translate(13.5625 225.869588) scale(0.1 -0.1)">
       <use xlink:href="#DejaVuSans-35"/>
       <use xlink:href="#DejaVuSans-30" x="63.623047"/>
       <use xlink:href="#DejaVuSans-30" x="127.246094"/>
      </g>
     </g>
    </g>
    <g id="ytick_3">
     <g id="line2d_12">
      <g>
       <use xlink:href="#ma599386c90" x="39.65" y="182.924738" style="stroke: #000000; stroke-width: 0.8"/>
      </g>
     </g>
     <g id="text_12">
      <!-- 1000 -->
      <g transform="translate(7.2 186.723957) scale(0.1 -0.1)">
       <use xlink:href="#DejaVuSans-31"/>
       <use xlink:href="#DejaVuSans-30" x="63.623047"/>
       <use xlink:href="#DejaVuSans-30" x="127.246094"/>
       <use xlink:href="#DejaVuSans-30" x="190.869141"/>
      </g>
     </g>
    </g>
    <g id="ytick_4">
     <g id="line2d_13">
      <g>
       <use xlink:href="#ma599386c90" x="39.65" y="143.779107" style="stroke: #000000; stroke-width: 0.8"/>
      </g>
     </g>
     <g id="text_13">
      <!-- 1500 -->
      <g transform="translate(7.2 147.578326) scale(0.1 -0.1)">
       <use xlink:href="#DejaVuSans-31"/>
       <use xlink:href="#DejaVuSans-35" x="63.623047"/>
       <use xlink:href="#DejaVuSans-30" x="127.246094"/>
       <use xlink:href="#DejaVuSans-30" x="190.869141"/>
      </g>
     </g>
    </g>
    <g id="ytick_5">
     <g id="line2d_14">
      <g>
       <use xlink:href="#ma599386c90" x="39.65" y="104.633476" style="stroke: #000000; stroke-width: 0.8"/>
      </g>
     </g>
     <g id="text_14">
      <!-- 2000 -->
      <g transform="translate(7.2 108.432694) scale(0.1 -0.1)">
       <use xlink:href="#DejaVuSans-32"/>
       <use xlink:href="#DejaVuSans-30" x="63.623047"/>
       <use xlink:href="#DejaVuSans-30" x="127.246094"/>
       <use xlink:href="#DejaVuSans-30" x="190.869141"/>
      </g>
     </g>
    </g>
    <g id="ytick_6">
     <g id="line2d_15">
      <g>
       <use xlink:href="#ma599386c90" x="39.65" y="65.487845" style="stroke: #000000; stroke-width: 0.8"/>
      </g>
     </g>
     <g id="text_15">
      <!-- 2500 -->
      <g transform="translate(7.2 69.287063) scale(0.1 -0.1)">
       <use xlink:href="#DejaVuSans-32"/>
       <use xlink:href="#DejaVuSans-35" x="63.623047"/>
       <use xlink:href="#DejaVuSans-30" x="127.246094"/>
       <use xlink:href="#DejaVuSans-30" x="190.869141"/>
      </g>
     </g>
    </g>
    <g id="ytick_7">
     <g id="line2d_16">
      <g>
       <use xlink:href="#ma599386c90" x="39.65" y="26.342214" style="stroke: #000000; stroke-width: 0.8"/>
      </g>
     </g>
     <g id="text_16">
      <!-- 3000 -->
      <g transform="translate(7.2 30.141432) scale(0.1 -0.1)">
       <defs>
        <path id="DejaVuSans-33" d="M 2597 2516 
Q 3050 2419 3304 2112 
Q 3559 1806 3559 1356 
Q 3559 666 3084 287 
Q 2609 -91 1734 -91 
Q 1441 -91 1130 -33 
Q 819 25 488 141 
L 488 750 
Q 750 597 1062 519 
Q 1375 441 1716 441 
Q 2309 441 2620 675 
Q 2931 909 2931 1356 
Q 2931 1769 2642 2001 
Q 2353 2234 1838 2234 
L 1294 2234 
L 1294 2753 
L 1863 2753 
Q 2328 2753 2575 2939 
Q 2822 3125 2822 3475 
Q 2822 3834 2567 4026 
Q 2313 4219 1838 4219 
Q 1578 4219 1281 4162 
Q 984 4106 628 3988 
L 628 4550 
Q 988 4650 1302 4700 
Q 1616 4750 1894 4750 
Q 2613 4750 3031 4423 
Q 3450 4097 3450 3541 
Q 3450 3153 3228 2886 
Q 3006 2619 2597 2516 
z
" transform="scale(0.015625)"/>
       </defs>
       <use xlink:href="#DejaVuSans-33"/>
       <use xlink:href="#DejaVuSans-30" x="63.623047"/>
       <use xlink:href="#DejaVuSans-30" x="127.246094"/>
       <use xlink:href="#DejaVuSans-30" x="190.869141"/>
      </g>
     </g>
    </g>
   </g>
   <g id="line2d_17">
    <path d="M 55.882727 261.216 
L 72.197026 182.924738 
L 88.511325 130.730563 
L 104.825624 95.934447 
L 121.139922 72.737036 
L 137.454221 57.272095 
L 153.76852 46.962134 
L 170.082819 40.088828 
L 186.397117 35.506623 
L 202.711416 32.45182 
L 219.025715 30.415284 
L 235.340014 29.057594 
L 251.654312 28.152467 
L 267.968611 27.549049 
L 284.28291 27.146771 
L 300.597209 26.878585 
L 316.911508 26.699795 
L 333.225806 26.580601 
L 349.540105 26.501138 
L 365.854404 26.448164 
" clip-path="url(#p73e427c4fd)" style="fill: none; stroke: #1f77b4; stroke-width: 1.5; stroke-linecap: square"/>
   </g>
   <g id="line2d_18">
    <path d="M 55.882727 261.216 
L 72.197026 261.216 
L 88.511325 235.118913 
L 104.825624 209.021825 
L 121.139922 188.724091 
L 137.454221 174.225709 
L 153.76852 164.237935 
L 170.082819 157.472023 
L 186.397117 152.925617 
L 202.711416 149.882747 
L 219.025715 147.850189 
L 235.340014 146.493824 
L 251.654312 145.58914 
L 267.968611 144.985869 
L 284.28291 144.583639 
L 300.597209 144.31547 
L 316.911508 144.136685 
L 333.225806 144.017493 
L 349.540105 143.938031 
L 365.854404 143.885057 
" clip-path="url(#p73e427c4fd)" style="fill: none; stroke: #ff7f0e; stroke-width: 1.5; stroke-linecap: square"/>
   </g>
   <g id="line2d_19">
    <path d="M 55.882727 261.216 
L 57.514157 252.917126 
L 60.777017 235.066718 
L 64.039877 220.582835 
L 65.671307 213.693204 
L 67.302736 207.89965 
L 68.934166 201.088311 
L 70.565596 196.07767 
L 72.197026 189.814369 
L 73.828456 185.743223 
L 75.459886 179.166757 
L 77.091316 174.704155 
L 80.354175 166.718447 
L 81.985605 164.448 
L 83.617035 161.707806 
L 86.879895 150.355573 
L 88.511325 146.519301 
L 90.142755 142.213282 
L 91.774185 136.967767 
L 93.405614 132.661748 
L 95.037044 129.451806 
L 98.299904 124.441165 
L 99.931334 120.448311 
L 103.194194 114.889631 
L 104.825624 110.661903 
L 106.457053 108.234874 
L 111.351343 98.918214 
L 112.982773 95.473398 
L 114.614203 94.533903 
L 116.245633 91.24567 
L 117.877063 88.662058 
L 119.508492 87.644272 
L 121.139922 84.904078 
L 122.771352 83.338252 
L 124.402782 82.55534 
L 126.034212 81.146097 
L 127.665642 80.050019 
L 129.297072 80.128311 
L 130.928502 76.683495 
L 134.191361 73.943301 
L 137.454221 68.619495 
L 140.717081 67.131961 
L 142.348511 65.17468 
L 143.979941 64.54835 
L 145.61137 64.313476 
L 147.2428 63.060816 
L 148.87423 60.477204 
L 150.50566 59.067961 
L 152.13709 59.381126 
L 153.76852 57.11068 
L 157.03138 57.032388 
L 158.66281 55.858019 
L 160.294239 57.345553 
L 161.925669 57.11068 
L 163.557099 55.779728 
L 165.188529 56.249476 
L 166.819959 54.918524 
L 168.451389 56.249476 
L 170.082819 55.231689 
L 173.345678 50.847379 
L 174.977108 50.221049 
L 176.608538 49.438136 
L 178.239968 48.890097 
L 179.871398 47.559146 
L 181.502828 48.185476 
L 183.134258 47.872311 
L 184.765688 45.915029 
L 186.397117 46.071612 
L 188.028547 45.99332 
L 189.659977 47.245981 
L 191.291407 48.028893 
L 194.554267 46.149903 
L 196.185697 45.758447 
L 197.817127 44.975534 
L 199.448556 44.427495 
L 201.079986 44.427495 
L 202.711416 45.288699 
L 205.974276 43.174835 
L 207.605706 43.957748 
L 209.237136 42.157049 
L 210.868566 41.843883 
L 212.499995 41.139262 
L 214.131425 40.826097 
L 215.762855 40.121476 
L 217.394285 39.103689 
L 219.025715 38.790524 
L 220.657145 39.260272 
L 222.288575 40.199767 
L 223.920005 39.730019 
L 225.551434 38.55565 
L 227.182864 38.399068 
L 228.814294 37.30299 
L 230.445724 37.616155 
L 232.077154 37.694447 
L 233.708584 37.92932 
L 235.340014 38.320777 
L 236.971444 35.658874 
L 238.602873 35.110835 
L 240.234303 37.92932 
L 241.865733 38.633942 
L 243.497163 36.520078 
L 246.760023 32.996971 
L 248.391453 33.310136 
L 250.022883 34.093049 
L 251.654312 34.327922 
L 253.285742 33.779883 
L 254.917172 32.683806 
L 256.548602 32.448932 
L 258.180032 31.900893 
L 259.811462 32.370641 
L 261.442892 33.466718 
L 263.074322 33.310136 
L 264.705751 32.91868 
L 266.337181 31.900893 
L 267.968611 30.648233 
L 269.600041 29.630447 
L 271.231471 28.221204 
L 272.862901 28.925825 
L 274.494331 26.342214 
L 277.75719 28.847534 
L 279.38862 28.534369 
L 281.02005 27.203417 
L 284.28291 25.559301 
L 285.91434 25.872466 
L 287.54577 25.402718 
L 289.1772 24.306641 
L 290.80863 25.246136 
L 292.440059 26.029049 
L 294.071489 24.463223 
L 295.702919 24.384932 
L 297.334349 26.968544 
L 298.965779 27.125126 
L 300.597209 28.456078 
L 302.228639 29.395573 
L 303.860069 29.317282 
L 307.122928 27.203417 
L 308.754358 29.552155 
L 312.017218 31.431146 
L 313.648648 29.943612 
L 315.280078 29.160699 
L 316.911508 29.23899 
L 318.542937 30.021903 
L 320.174367 30.178485 
L 321.805797 28.769243 
L 323.437227 28.690951 
L 325.068657 29.630447 
L 326.700087 28.064621 
L 329.962947 25.246136 
L 331.594376 26.029049 
L 333.225806 24.619806 
L 334.857236 23.602019 
L 336.488666 25.950757 
L 338.120096 24.463223 
L 339.751526 23.915184 
L 341.382956 23.680311 
L 343.014386 23.053981 
L 344.645815 23.523728 
L 346.277245 22.505942 
L 347.908675 21.018408 
L 349.540105 21.879612 
L 351.171535 21.018408 
L 352.802965 19.844039 
L 354.434395 19.452583 
L 356.065825 19.452583 
L 357.697254 20.940117 
L 359.328684 19.296 
L 360.960114 21.096699 
L 362.591544 21.723029 
L 364.222974 21.018408 
L 367.485834 20.54866 
L 369.117264 20.940117 
L 370.748693 22.192777 
L 372.380123 21.096699 
L 374.011553 20.54866 
L 375.642983 19.765748 
L 377.274413 19.92233 
L 378.905843 20.235495 
L 380.537273 23.210563 
L 380.537273 23.210563 
" clip-path="url(#p73e427c4fd)" style="fill: none; stroke: #2ca02c; stroke-width: 1.5; stroke-linecap: square"/>
   </g>
   <g id="line2d_20">
    <path d="M 55.882727 261.216 
L 59.145587 260.667961 
L 60.777017 260.041631 
L 62.408447 259.258718 
L 64.039877 258.162641 
L 68.934166 254.091495 
L 70.565596 252.369087 
L 73.828456 249.785476 
L 75.459886 247.828194 
L 77.091316 245.401165 
L 78.722746 243.365592 
L 83.617035 236.710835 
L 85.248465 235.301592 
L 86.879895 234.127223 
L 90.142755 231.46532 
L 91.774185 230.682408 
L 93.405614 228.411961 
L 95.037044 227.237592 
L 96.668474 224.732272 
L 98.299904 221.992078 
L 99.931334 221.287456 
L 101.562764 219.330175 
L 103.194194 217.920932 
L 106.457053 213.223456 
L 108.088483 212.049087 
L 109.719913 208.917437 
L 111.351343 206.490408 
L 112.982773 204.846291 
L 114.614203 202.027806 
L 116.245633 201.949515 
L 117.877063 201.323184 
L 119.508492 199.757359 
L 121.139922 197.878369 
L 122.771352 195.607922 
L 124.402782 194.355262 
L 126.034212 192.084816 
L 127.665642 189.188039 
L 129.297072 186.995883 
L 130.928502 187.152466 
L 134.191361 183.70765 
L 135.822791 182.924738 
L 137.454221 181.437204 
L 139.085651 179.793087 
L 140.717081 178.931883 
L 142.348511 179.088466 
L 145.61137 176.348272 
L 147.2428 173.921243 
L 148.87423 174.704155 
L 150.50566 172.590291 
L 152.13709 171.415922 
L 155.39995 170.398136 
L 157.03138 168.675728 
L 158.66281 168.049398 
L 160.294239 165.857243 
L 163.557099 163.273631 
L 165.188529 161.629515 
L 166.819959 160.298563 
L 170.082819 158.811029 
L 171.714249 159.593942 
L 173.345678 159.828816 
L 174.977108 159.202485 
L 176.608538 159.907107 
L 178.239968 159.280777 
L 179.871398 160.298563 
L 181.502828 158.419573 
L 183.134258 158.419573 
L 186.397117 156.070835 
L 188.028547 155.444505 
L 189.659977 153.408932 
L 191.291407 153.87868 
L 192.922837 154.661592 
L 194.554267 154.348427 
L 196.185697 154.974757 
L 197.817127 154.583301 
L 202.711416 155.679379 
L 204.342846 155.835961 
L 205.974276 154.426718 
L 207.605706 154.035262 
L 209.237136 156.149126 
L 210.868566 155.444505 
L 212.499995 156.697165 
L 214.131425 156.775456 
L 215.762855 155.053049 
L 217.394285 154.583301 
L 219.025715 154.739883 
L 220.657145 153.408932 
L 222.288575 154.191845 
L 223.920005 152.469437 
L 225.551434 151.45165 
L 227.182864 152.469437 
L 228.814294 152.469437 
L 230.445724 151.764816 
L 232.077154 149.416078 
L 233.708584 149.181204 
L 235.340014 149.57266 
L 236.971444 150.512155 
L 238.602873 149.494369 
L 240.234303 147.458796 
L 241.865733 147.850252 
L 243.497163 147.615379 
L 245.128593 148.633165 
L 246.760023 149.964117 
L 248.391453 149.650951 
L 250.022883 148.241709 
L 251.654312 148.94633 
L 253.285742 148.94633 
L 254.917172 150.747029 
L 256.548602 151.45165 
L 258.180032 151.999689 
L 259.811462 150.981903 
L 261.442892 149.337786 
L 263.074322 148.868039 
L 264.705751 147.928544 
L 266.337181 149.181204 
L 267.968611 148.868039 
L 269.600041 149.102913 
L 271.231471 148.633165 
L 272.862901 147.615379 
L 274.494331 150.19899 
L 276.125761 149.650951 
L 277.75719 148.085126 
L 279.38862 148.633165 
L 281.02005 146.519301 
L 282.65148 146.832466 
L 284.28291 148.398291 
L 285.91434 145.736388 
L 287.54577 144.640311 
L 289.1772 145.18835 
L 290.80863 145.423223 
L 292.440059 145.81468 
L 294.071489 147.145631 
L 295.702919 147.771961 
L 297.334349 145.423223 
L 298.965779 146.127845 
L 300.597209 146.049553 
L 302.228639 144.170563 
L 303.860069 145.266641 
L 305.491498 146.675883 
L 307.122928 146.910757 
L 308.754358 145.81468 
L 310.385788 146.910757 
L 312.017218 144.483728 
L 313.648648 145.18835 
L 315.280078 144.248854 
L 316.911508 144.013981 
L 318.542937 142.291573 
L 320.174367 142.056699 
L 321.805797 142.604738 
L 323.437227 142.448155 
L 325.068657 140.88233 
L 326.700087 141.038913 
L 328.331517 141.665243 
L 329.962947 142.917903 
L 331.594376 143.074485 
L 336.488666 141.665243 
L 338.120096 142.369864 
L 339.751526 142.917903 
L 341.382956 143.152777 
L 344.645815 142.213282 
L 346.277245 143.544233 
L 347.908675 142.917903 
L 349.540105 141.821825 
L 351.171535 142.291573 
L 352.802965 144.953476 
L 354.434395 145.81468 
L 356.065825 144.718602 
L 357.697254 142.917903 
L 359.328684 143.935689 
L 360.960114 141.273786 
L 362.591544 140.334291 
L 364.222974 140.88233 
L 365.854404 141.038913 
L 367.485834 142.526447 
L 369.117264 143.857398 
L 370.748693 144.092272 
L 372.380123 145.031767 
L 374.011553 146.206136 
L 375.642983 146.44101 
L 377.274413 148.241709 
L 378.905843 146.910757 
L 380.537273 146.597592 
L 380.537273 146.597592 
" clip-path="url(#p73e427c4fd)" style="fill: none; stroke: #d62728; stroke-width: 1.5; stroke-linecap: square"/>
   </g>
   <g id="patch_3">
    <path d="M 39.65 273.312 
L 39.65 7.2 
" style="fill: none; stroke: #000000; stroke-width: 0.8; stroke-linejoin: miter; stroke-linecap: square"/>
   </g>
   <g id="patch_4">
    <path d="M 396.77 273.312 
L 396.77 7.2 
" style="fill: none; stroke: #000000; stroke-width: 0.8; stroke-linejoin: miter; stroke-linecap: square"/>
   </g>
   <g id="patch_5">
    <path d="M 39.65 273.312 
L 396.77 273.312 
" style="fill: none; stroke: #000000; stroke-width: 0.8; stroke-linejoin: miter; stroke-linecap: square"/>
   </g>
   <g id="patch_6">
    <path d="M 39.65 7.2 
L 396.77 7.2 
" style="fill: none; stroke: #000000; stroke-width: 0.8; stroke-linejoin: miter; stroke-linecap: square"/>
   </g>
  </g>
 </g>
 <defs>
  <clipPath id="p73e427c4fd">
   <rect x="39.65" y="7.2" width="357.12" height="266.112"/>
  </clipPath>
 </defs>
</svg>
