<?xml version="1.0" encoding="utf-8" standalone="no"?>
<!DOCTYPE svg PUBLIC "-//W3C//DTD SVG 1.1//EN"
  "http://www.w3.org/Graphics/SVG/1.1/DTD/svg11.dtd">
<svg xmlns:xlink="http://www.w3.org/1999/xlink" width="403.97pt" height="297.190125pt" viewBox="0 0 403.97 297.190125" xmlns="http://www.w3.org/2000/svg" version="1.1">
 <metadata>
  <rdf:RDF xmlns:dc="http://purl.org/dc/elements/1.1/" xmlns:cc="http://creativecommons.org/ns#" xmlns:rdf="http://www.w3.org/1999/02/22-rdf-syntax-ns#">
   <cc:Work>
    <dc:type rdf:resource="http://purl.org/dc/dcmitype/StillImage"/>
    <dc:date>2026-05-26T00:41:04.669929</dc:date>
    <dc:format>image/svg+xml</dc:format>
    <dc:creator>
     <cc:Agent>
      <dc:title>Matplotlib v3.10.9, https://matplotlib.org/</dc:title>
     </cc:Agent>
    </dc:creator>
   </cc:Work>
  </rdf:RDF>
 </metadata>
 <defs>
  <style type="text/css">*{stroke-linejoin: round; stroke-linecap: butt}</style>
 </defs>
 <g id="figure_1">
  <g id="patch_1">
   <path d="M 0 297.190125 
L 403.97 297.190125 
L 403.97 0 
L 0 0 
z
" style="fill: #ffffff"/>
  </g>
  <g id="axes_1">
   <g id="patch_2">
    <path d="M 39.65 273.312 
L 396.77 273.312 
L 396.77 7.2 
L 39.65 7.2 
z
" style="fill: #ffffff"/>
   </g>
   <g id="matplotlib.axis_1">
    <g id="xtick_1">
     <g id="line2d_1">
      <defs>
       <path id="m4bf92328ca" d="M 0 0 
L 0 3.5 
" style="stroke: #000000; stroke-width: 0.8"/>
      </defs>
      <g>
       <use xlink:href="#m4bf92328ca" x="55.882727" y="273.312" style="stroke: #000000; stroke-width: 0.8"/>
      </g>
     </g>
     <g id="text_1">
      <!-- 0.0 -->
      <g transform="translate(47.931165 287.910437) scale(0.1 -0.1)">
       <defs>
        <path id="DejaVuSans-30" d="M 2034 4250 
Q 1547 4250 1301 3770 
Q 1056 3291 1056 2328 
Q 1056 1369 1301 889 
Q 1547 409 2034 409 
Q 2525 409 2770 889 
Q 3016 1369 3016 2328 
Q 3016 3291 2770 3770 
Q 2525 4250 2034 4250 
z
M 2034 4750 
Q 2819 4750 3233 4129 
Q 3647 3509 3647 2328 
Q 3647 1150 3233 529 
Q 2819 -91 2034 -91 
Q 1250 -91 836 529 
Q 422 1150 422 2328 
Q 422 3509 836 4129 
Q 1250 4750 2034 4750 
z
" transform="scale(0.015625)"/>
        <path id="DejaVuSans-2e" d="M 684 794 
L 1344 794 
L 1344 0 
L 684 0 
L 684 794 
z
" transform="scale(0.015625)"/>
       </defs>
       <use xlink:href="#DejaVuSans-30"/>
       <use xlink:href="#DejaVuSans-2e" transform="translate(63.623047 0)"/>
       <use xlink:href="#DejaVuSans-30" transform="translate(95.410156 0)"/>
      </g>
     </g>
    </g>
    <g id="xtick_2">
     <g id="line2d_2">
      <g>
       <use xlink:href="#m4bf92328ca" x="96.668474" y="273.312" style="stroke: #000000; stroke-width: 0.8"/>
      </g>
     </g>
     <g id="text_2">
      <!-- 2.5 -->
      <g transform="translate(88.716912 287.910437) scale(0.1 -0.1)">
       <defs>
        <path id="DejaVuSans-32" d="M 1228 531 
L 3431 531 
L 3431 0 
L 469 0 
L 469 531 
Q 828 903 1448 1529 
Q 2069 2156 2228 2338 
Q 2531 2678 2651 2914 
Q 2772 3150 2772 3378 
Q 2772 3750 2511 3984 
Q 2250 4219 1831 4219 
Q 1534 4219 1204 4116 
Q 875 4013 500 3803 
L 500 4441 
Q 881 4594 1212 4672 
Q 1544 4750 1819 4750 
Q 2544 4750 2975 4387 
Q 3406 4025 3406 3419 
Q 3406 3131 3298 2873 
Q 3191 2616 2906 2266 
Q 2828 2175 2409 1742 
Q 1991 1309 1228 531 
z
" transform="scale(0.015625)"/>
        <path id="DejaVuSans-35" d="M 691 4666 
L 3169 4666 
L 3169 4134 
L 1269 4134 
L 1269 2991 
Q 1406 3038 1543 3061 
Q 1681 3084 1819 3084 
Q 2600 3084 3056 2656 
Q 3513 2228 3513 1497 
Q 3513 744 3044 326 
Q 2575 -91 1722 -91 
Q 1428 -91 1123 -41 
Q 819 9 494 109 
L 494 744 
Q 775 591 1075 516 
Q 1375 441 1709 441 
Q 2250 441 2565 725 
Q 2881 1009 2881 1497 
Q 2881 1984 2565 2268 
Q 2250 2553 1709 2553 
Q 1456 2553 1204 2497 
Q 953 2441 691 2322 
L 691 4666 
z
" transform="scale(0.015625)"/>
       </defs>
       <use xlink:href="#DejaVuSans-32"/>
       <use xlink:href="#DejaVuSans-2e" transform="translate(63.623047 0)"/>
       <use xlink:href="#DejaVuSans-35" transform="translate(95.410156 0)"/>
      </g>
     </g>
    </g>
    <g id="xtick_3">
     <g id="line2d_3">
      <g>
       <use xlink:href="#m4bf92328ca" x="137.454221" y="273.312" style="stroke: #000000; stroke-width: 0.8"/>
      </g>
     </g>
     <g id="text_3">
      <!-- 5.0 -->
      <g transform="translate(129.502659 287.910437) scale(0.1 -0.1)">
       <use xlink:href="#DejaVuSans-35"/>
       <use xlink:href="#DejaVuSans-2e" transform="translate(63.623047 0)"/>
       <use xlink:href="#DejaVuSans-30" transform="translate(95.410156 0)"/>
      </g>
     </g>
    </g>
    <g id="xtick_4">
     <g id="line2d_4">
      <g>
       <use xlink:href="#m4bf92328ca" x="178.239968" y="273.312" style="stroke: #000000; stroke-width: 0.8"/>
      </g>
     </g>
     <g id="text_4">
      <!-- 7.5 -->
      <g transform="translate(170.288406 287.910437) scale(0.1 -0.1)">
       <defs>
        <path id="DejaVuSans-37" d="M 525 4666 
L 3525 4666 
L 3525 4397 
L 1831 0 
L 1172 0 
L 2766 4134 
L 525 4134 
L 525 4666 
z
" transform="scale(0.015625)"/>
       </defs>
       <use xlink:href="#DejaVuSans-37"/>
       <use xlink:href="#DejaVuSans-2e" transform="translate(63.623047 0)"/>
       <use xlink:href="#DejaVuSans-35" transform="translate(95.410156 0)"/>
      </g>
     </g>
    </g>
    <g id="xtick_5">
     <g id="line2d_5">
      <g>
       <use xlink:href="#m4bf92328ca" x="219.025715" y="273.312" style="stroke: #000000; stroke-width: 0.8"/>
      </g>
     </g>
     <g id="text_5">
      <!-- 10.0 -->
      <g transform="translate(207.892902 287.910437) scale(0.1 -0.1)">
       <defs>
        <path id="DejaVuSans-31" d="M 794 531 
L 1825 531 
L 1825 4091 
L 703 3866 
L 703 4441 
L 1819 4666 
L 2450 4666 
L 2450 531 
L 3481 531 
L 3481 0 
L 794 0 
L 794 531 
z
" transform="scale(0.015625)"/>
       </defs>
       <use xlink:href="#DejaVuSans-31"/>
       <use xlink:href="#DejaVuSans-30" transform="translate(63.623047 0)"/>
       <use xlink:href="#DejaVuSans-2e" transform="translate(127.246094 0)"/>
       <use xlink:href="#DejaVuSans-30" transform="translate(159.033203 0)"/>
      </g>
     </g>
    </g>
    <g id="xtick_6">
     <g id="line2d_6">
      <g>
       <use xlink:href="#m4bf92328ca" x="259.811462" y="273.312" style="stroke: #000000; stroke-width: 0.8"/>
      </g>
     </g>
     <g id="text_6">
      <!-- 12.5 -->
      <g transform="translate(248.678649 287.910437) scale(0.1 -0.1)">
       <use xlink:href="#DejaVuSans-31"/>
       <use xlink:href="#DejaVuSans-32" transform="translate(63.623047 0)"/>
       <use xlink:href="#DejaVuSans-2e" transform="translate(127.246094 0)"/>
       <use xlink:href="#DejaVuSans-35" transform="translate(159.033203 0)"/>
      </g>
     </g>
    </g>
    <g id="xtick_7">
     <g id="line2d_7">
      <g>
       <use xlink:href="#m4bf92328ca" x="300.597209" y="273.312" style="stroke: #000000; stroke-width: 0.8"/>
      </g>
     </g>
     <g id="text_7">
      <!-- 15.0 -->
      <g transform="translate(289.464396 287.910437) scale(0.1 -0.1)">
       <use xlink:href="#DejaVuSans-31"/>
       <use xlink:href="#DejaVuSans-35" transform="translate(63.623047 0)"/>
       <use xlink:href="#DejaVuSans-2e" transform="translate(127.246094 0)"/>
       <use xlink:href="#DejaVuSans-30" transform="translate(159.033203 0)"/>
      </g>
     </g>
    </g>
    <g id="xtick_8">
     <g id="line2d_8">
      <g>
       <use xlink:href="#m4bf92328ca" x="341.382956" y="273.312" style="stroke: #000000; stroke-width: 0.8"/>
      </g>
     </g>
     <g id="text_8">
      <!-- 17.5 -->
      <g transform="translate(330.250143 287.910437) scale(0.1 -0.1)">
       <use xlink:href="#DejaVuSans-31"/>
       <use xlink:href="#DejaVuSans-37" transform="translate(63.623047 0)"/>
       <use xlink:href="#DejaVuSans-2e" transform="translate(127.246094 0)"/>
       <use xlink:href="#DejaVuSans-35" transform="translate(159.033203 0)"/>
      </g>
     </g>
    </g>
    <g id="xtick_9">
     <g id="line2d_9">
      <g>
       <use xlink:href="#m4bf92328ca" x="382.168703" y="273.312" style="stroke: #000000; stroke-width: 0.8"/>
      </g>
     </g>
     <g id="text_9">
      <!-- 20.0 -->
      <g transform="translate(371.03589 287.910437) scale(0.1 -0.1)">
       <use xlink:href="#DejaVuSans-32"/>
       <use xlink:href="#DejaVuSans-30" transform="translate(63.623047 0)"/>
       <use xlink:href="#DejaVuSans-2e" transform="translate(127.246094 0)"/>
       <use xlink:href="#DejaVuSans-30" transform="translate(159.033203 0)"/>
      </g>
     </g>
    </g>
   </g>
   <g id="matplotlib.axis_2">
    <g id="ytick_1">
     <g id="line2d_10">
      <defs>
       <path id="m090690ba7f" d="M 0 0 
L -3.5 0 
" style="stroke: #000000; stroke-width: 0.8"/>
      </defs>
      <g>
       <use xlink:href="#m090690ba7f" x="39.65" y="261.216" style="stroke: #000000; stroke-width: 0.8"/>
      </g>
     </g>
     <g id="text_10">
      <!-- 0 -->
      <g transform="translate(26.2875 265.015219) scale(0.1 -0.1)">
       <use xlink:href="#DejaVuSans-30"/>
      </g>
     </g>
    </g>
    <g id="ytick_2">
     <g id="line2d_11">
      <g>
       <use xlink:href="#m090690ba7f" x="39.65" y="222.196645" style="stroke: #000000; stroke-width: 0.8"/>
      </g>
     </g>
     <g id="text_11">
      <!-- 500 -->
      <g transform="translate(13.5625 225.995864) scale(0.1 -0.1)">
       <use xlink:href="#DejaVuSans-35"/>
       <use xlink:href="#DejaVuSans-30" transform="translate(63.623047 0)"/>
       <use xlink:href="#DejaVuSans-30" transform="translate(127.246094 0)"/>
      </g>
     </g>
    </g>
    <g id="ytick_3">
     <g id="line2d_12">
      <g>
       <use xlink:href="#m090690ba7f" x="39.65" y="183.17729" style="stroke: #000000; stroke-width: 0.8"/>
      </g>
     </g>
     <g id="text_12">
      <!-- 1000 -->
      <g transform="translate(7.2 186.976509) scale(0.1 -0.1)">
       <use xlink:href="#DejaVuSans-31"/>
       <use xlink:href="#DejaVuSans-30" transform="translate(63.623047 0)"/>
       <use xlink:href="#DejaVuSans-30" transform="translate(127.246094 0)"/>
       <use xlink:href="#DejaVuSans-30" transform="translate(190.869141 0)"/>
      </g>
     </g>
    </g>
    <g id="ytick_4">
     <g id="line2d_13">
      <g>
       <use xlink:href="#m090690ba7f" x="39.65" y="144.157935" style="stroke: #000000; stroke-width: 0.8"/>
      </g>
     </g>
     <g id="text_13">
      <!-- 1500 -->
      <g transform="translate(7.2 147.957154) scale(0.1 -0.1)">
       <use xlink:href="#DejaVuSans-31"/>
       <use xlink:href="#DejaVuSans-35" transform="translate(63.623047 0)"/>
       <use xlink:href="#DejaVuSans-30" transform="translate(127.246094 0)"/>
       <use xlink:href="#DejaVuSans-30" transform="translate(190.869141 0)"/>
      </g>
     </g>
    </g>
    <g id="ytick_5">
     <g id="line2d_14">
      <g>
       <use xlink:href="#m090690ba7f" x="39.65" y="105.138581" style="stroke: #000000; stroke-width: 0.8"/>
      </g>
     </g>
     <g id="text_14">
      <!-- 2000 -->
      <g transform="translate(7.2 108.937799) scale(0.1 -0.1)">
       <use xlink:href="#DejaVuSans-32"/>
       <use xlink:href="#DejaVuSans-30" transform="translate(63.623047 0)"/>
       <use xlink:href="#DejaVuSans-30" transform="translate(127.246094 0)"/>
       <use xlink:href="#DejaVuSans-30" transform="translate(190.869141 0)"/>
      </g>
     </g>
    </g>
    <g id="ytick_6">
     <g id="line2d_15">
      <g>
       <use xlink:href="#m090690ba7f" x="39.65" y="66.119226" style="stroke: #000000; stroke-width: 0.8"/>
      </g>
     </g>
     <g id="text_15">
      <!-- 2500 -->
      <g transform="translate(7.2 69.918445) scale(0.1 -0.1)">
       <use xlink:href="#DejaVuSans-32"/>
       <use xlink:href="#DejaVuSans-35" transform="translate(63.623047 0)"/>
       <use xlink:href="#DejaVuSans-30" transform="translate(127.246094 0)"/>
       <use xlink:href="#DejaVuSans-30" transform="translate(190.869141 0)"/>
      </g>
     </g>
    </g>
    <g id="ytick_7">
     <g id="line2d_16">
      <g>
       <use xlink:href="#m090690ba7f" x="39.65" y="27.099871" style="stroke: #000000; stroke-width: 0.8"/>
      </g>
     </g>
     <g id="text_16">
      <!-- 3000 -->
      <g transform="translate(7.2 30.89909) scale(0.1 -0.1)">
       <defs>
        <path id="DejaVuSans-33" d="M 2597 2516 
Q 3050 2419 3304 2112 
Q 3559 1806 3559 1356 
Q 3559 666 3084 287 
Q 2609 -91 1734 -91 
Q 1441 -91 1130 -33 
Q 819 25 488 141 
L 488 750 
Q 750 597 1062 519 
Q 1375 441 1716 441 
Q 2309 441 2620 675 
Q 2931 909 2931 1356 
Q 2931 1769 2642 2001 
Q 2353 2234 1838 2234 
L 1294 2234 
L 1294 2753 
L 1863 2753 
Q 2328 2753 2575 2939 
Q 2822 3125 2822 3475 
Q 2822 3834 2567 4026 
Q 2313 4219 1838 4219 
Q 1578 4219 1281 4162 
Q 984 4106 628 3988 
L 628 4550 
Q 988 4650 1302 4700 
Q 1616 4750 1894 4750 
Q 2613 4750 3031 4423 
Q 3450 4097 3450 3541 
Q 3450 3153 3228 2886 
Q 3006 2619 2597 2516 
z
" transform="scale(0.015625)"/>
       </defs>
       <use xlink:href="#DejaVuSans-33"/>
       <use xlink:href="#DejaVuSans-30" transform="translate(63.623047 0)"/>
       <use xlink:href="#DejaVuSans-30" transform="translate(127.246094 0)"/>
       <use xlink:href="#DejaVuSans-30" transform="translate(190.869141 0)"/>
      </g>
     </g>
    </g>
   </g>
   <g id="line2d_17">
    <path d="M 55.882727 261.216 
L 59.961302 241.706323 
L 64.039877 224.077378 
L 68.118451 208.147864 
L 72.197026 193.753955 
L 76.275601 180.747618 
L 80.354175 168.995093 
L 84.43275 158.375511 
L 88.511325 148.779657 
L 92.589899 140.108843 
L 96.668474 132.273895 
L 100.747049 125.194237 
L 104.825624 118.797057 
L 108.904198 113.016566 
L 112.982773 107.793314 
L 117.061348 103.073584 
L 121.139922 98.808835 
L 125.218497 94.955208 
L 129.297072 91.473071 
L 133.375646 88.326612 
L 137.454221 85.483472 
L 141.532796 82.91441 
L 145.61137 80.593006 
L 149.689945 78.495385 
L 153.76852 76.599975 
L 157.847095 74.887282 
L 161.925669 73.339693 
L 166.004244 71.941292 
L 170.082819 70.677696 
L 174.161393 69.535911 
L 178.239968 68.504194 
L 182.318543 67.571935 
L 186.397117 66.729546 
L 190.475692 65.968362 
L 194.554267 65.280557 
L 198.632841 64.659056 
L 202.711416 64.097468 
L 206.789991 63.590017 
L 210.868566 63.131485 
L 214.94714 62.717155 
L 219.025715 62.342766 
L 223.10429 62.004468 
L 227.182864 61.698782 
L 231.261439 61.422565 
L 235.340014 61.172975 
L 239.418588 60.947445 
L 243.497163 60.743656 
L 247.575738 60.559513 
L 251.654312 60.393121 
L 255.732887 60.242769 
L 259.811462 60.106911 
L 263.890037 59.98415 
L 267.968611 59.873223 
L 272.047186 59.772989 
L 276.125761 59.682418 
L 280.204335 59.600578 
L 284.28291 59.526627 
L 288.361485 59.459805 
L 292.440059 59.399425 
L 296.518634 59.344865 
L 300.597209 59.295565 
L 304.675783 59.251018 
L 308.754358 59.210765 
L 312.832933 59.174392 
L 316.911508 59.141525 
L 320.990082 59.111827 
L 325.068657 59.084992 
L 329.147232 59.060744 
L 333.225806 59.038833 
L 337.304381 59.019035 
L 341.382956 59.001145 
L 345.46153 58.984979 
L 349.540105 58.970372 
L 353.61868 58.957173 
L 357.697254 58.945247 
L 361.775829 58.93447 
L 365.854404 58.924732 
L 369.932979 58.915933 
L 374.011553 58.907982 
L 378.090128 58.900797 
" clip-path="url(#pcf9857addc)" style="fill: none; stroke: #1f77b4; stroke-width: 1.5; stroke-linecap: square"/>
   </g>
   <g id="line2d_18">
    <path d="M 55.882727 261.216 
L 59.961302 261.216 
L 64.039877 259.335267 
L 68.118451 256.206856 
L 72.197026 252.294284 
L 76.275601 247.933939 
L 80.354175 243.367138 
L 84.43275 238.764339 
L 88.511325 234.243405 
L 92.589899 229.883359 
L 96.668474 225.734729 
L 100.747049 221.827312 
L 104.825624 218.175977 
L 108.904198 214.785004 
L 112.982773 211.651304 
L 117.061348 208.766797 
L 121.139922 206.120167 
L 125.218497 203.698135 
L 129.297072 201.486386 
L 133.375646 199.470221 
L 137.454221 197.63502 
L 141.532796 195.966556 
L 145.61137 194.451199 
L 149.689945 193.076048 
L 153.76852 191.828997 
L 157.847095 190.69877 
L 161.925669 189.67492 
L 166.004244 188.747812 
L 170.082819 187.908589 
L 174.161393 187.149136 
L 178.239968 186.462037 
L 182.318543 185.84052 
L 186.397117 185.278423 
L 190.475692 184.770135 
L 194.554267 184.310559 
L 198.632841 183.895069 
L 202.711416 183.519468 
L 206.789991 183.179948 
L 210.868566 182.873063 
L 214.94714 182.595689 
L 219.025715 182.344999 
L 223.10429 182.118434 
L 227.182864 181.913678 
L 231.261439 181.728636 
L 235.340014 181.561413 
L 239.418588 181.410297 
L 243.497163 181.273738 
L 247.575738 181.150336 
L 251.654312 181.038823 
L 255.732887 180.938055 
L 259.811462 180.846998 
L 263.890037 180.764716 
L 267.968611 180.690364 
L 272.047186 180.623178 
L 276.125761 180.562468 
L 280.204335 180.507609 
L 284.28291 180.458038 
L 288.361485 180.413245 
L 292.440059 180.372769 
L 296.518634 180.336195 
L 300.597209 180.303147 
L 304.675783 180.273284 
L 308.754358 180.2463 
L 312.832933 180.221918 
L 316.911508 180.199885 
L 320.990082 180.179977 
L 325.068657 180.161987 
L 329.147232 180.145732 
L 333.225806 180.131044 
L 337.304381 180.117771 
L 341.382956 180.105778 
L 345.46153 180.094942 
L 349.540105 180.085149 
L 353.61868 180.076301 
L 357.697254 180.068306 
L 361.775829 180.061081 
L 365.854404 180.054553 
L 369.932979 180.048655 
L 374.011553 180.043325 
L 378.090128 180.038508 
" clip-path="url(#pcf9857addc)" style="fill: none; stroke: #ff7f0e; stroke-width: 1.5; stroke-linecap: square"/>
   </g>
   <g id="line2d_19">
    <path d="M 55.882727 261.216 
L 57.514157 253.099974 
L 60.777017 237.960465 
L 62.408447 232.029523 
L 65.671307 218.216671 
L 67.302736 211.817497 
L 70.565596 201.672465 
L 72.197026 194.805058 
L 73.828456 189.888619 
L 75.459886 182.709058 
L 77.091316 177.480465 
L 78.722746 173.344413 
L 80.354175 168.037781 
L 81.985605 163.433497 
L 83.617035 160.311948 
L 85.248465 156.175897 
L 86.879895 152.97631 
L 88.511325 149.464568 
L 90.142755 145.172439 
L 91.774185 139.553652 
L 93.405614 136.354065 
L 96.668474 130.891355 
L 98.299904 128.628232 
L 99.931334 125.896877 
L 101.562764 122.151019 
L 103.194194 121.292594 
L 104.825624 116.922426 
L 106.457053 114.26911 
L 108.088483 110.133058 
L 109.719913 108.18209 
L 111.351343 104.514271 
L 112.982773 103.34369 
L 114.614203 99.988026 
L 116.245633 97.568826 
L 117.877063 94.603355 
L 119.508492 92.418271 
L 121.139922 90.935535 
L 122.771352 88.594374 
L 124.402782 87.111639 
L 126.034212 86.799484 
L 127.665642 83.443819 
L 129.297072 80.556387 
L 130.928502 78.137187 
L 132.559931 77.278761 
L 134.191361 75.171716 
L 135.822791 70.879587 
L 137.454221 69.552929 
L 139.085651 69.240774 
L 140.717081 67.992155 
L 142.348511 67.367845 
L 143.979941 66.977652 
L 145.61137 64.948645 
L 148.87423 61.202787 
L 150.50566 61.905135 
L 152.13709 61.671019 
L 153.76852 59.876129 
L 155.39995 58.315355 
L 157.03138 57.144774 
L 158.66281 56.130271 
L 160.294239 55.740077 
L 161.925669 53.867148 
L 163.557099 51.291871 
L 165.188529 49.184826 
L 166.819959 48.872671 
L 168.451389 47.858168 
L 170.082819 46.453471 
L 171.714249 44.892697 
L 173.345678 43.644077 
L 174.977108 42.083303 
L 176.608538 41.927226 
L 178.239968 41.302916 
L 179.871398 41.0688 
L 181.502828 40.600568 
L 183.134258 38.883716 
L 184.765688 38.259406 
L 186.397117 37.244903 
L 188.028547 37.322942 
L 189.659977 36.85471 
L 191.291407 35.684129 
L 192.922837 36.542555 
L 194.554267 34.279432 
L 196.185697 33.264929 
L 197.817127 35.059819 
L 199.448556 36.074323 
L 201.079986 36.85471 
L 202.711416 35.215897 
L 204.342846 35.137858 
L 205.974276 34.591587 
L 207.605706 33.030813 
L 210.868566 33.889239 
L 212.499995 34.747665 
L 214.131425 33.264929 
L 215.762855 34.981781 
L 217.394285 34.591587 
L 219.025715 32.406503 
L 220.657145 29.59711 
L 222.288575 29.284955 
L 223.920005 30.377497 
L 225.551434 29.362994 
L 227.182864 31.470039 
L 228.814294 30.299458 
L 230.445724 29.441032 
L 232.077154 29.753187 
L 233.708584 28.582606 
L 235.340014 28.270452 
L 236.971444 29.519071 
L 238.602873 30.221419 
L 240.234303 31.938271 
L 241.865733 31.392 
L 243.497163 31.860232 
L 245.128593 31.235923 
L 246.760023 30.923768 
L 248.391453 31.860232 
L 250.022883 32.094348 
L 251.654312 31.157884 
L 253.285742 32.328465 
L 254.917172 30.689652 
L 256.548602 29.59711 
L 258.180032 29.519071 
L 259.811462 29.128877 
L 261.442892 29.675148 
L 263.074322 29.59711 
L 264.705751 29.206916 
L 266.337181 30.299458 
L 267.968611 31.001806 
L 269.600041 29.675148 
L 271.231471 28.738684 
L 272.862901 26.241445 
L 274.494331 25.461058 
L 276.125761 25.304981 
L 279.38862 24.056361 
L 281.02005 23.822245 
L 282.65148 23.275974 
L 284.28291 21.012852 
L 285.91434 22.417548 
L 289.1772 20.934813 
L 290.80863 21.168929 
L 292.440059 20.856774 
L 294.071489 23.744206 
L 295.702919 22.261471 
L 297.334349 22.105394 
L 298.965779 20.388542 
L 300.597209 19.296 
L 302.228639 20.154426 
L 303.860069 21.325006 
L 305.491498 20.310503 
L 307.122928 20.232465 
L 308.754358 21.949316 
L 310.385788 23.197935 
L 312.017218 23.744206 
L 313.648648 22.651665 
L 315.280078 24.524594 
L 316.911508 24.1344 
L 318.542937 22.573626 
L 321.805797 28.036335 
L 323.437227 25.773213 
L 325.068657 25.695174 
L 326.700087 25.461058 
L 328.331517 23.432052 
L 329.962947 23.666168 
L 331.594376 22.573626 
L 333.225806 24.524594 
L 334.857236 25.383019 
L 336.488666 26.5536 
L 338.120096 27.099871 
L 339.751526 25.773213 
L 341.382956 26.163406 
L 343.014386 25.851252 
L 344.645815 26.5536 
L 346.277245 28.036335 
L 347.908675 25.539097 
L 349.540105 23.588129 
L 351.171535 25.695174 
L 352.802965 22.807742 
L 354.434395 25.383019 
L 356.065825 25.617135 
L 357.697254 26.475561 
L 359.328684 26.5536 
L 360.960114 27.412026 
L 362.591544 27.021832 
L 364.222974 27.880258 
L 365.854404 26.631639 
L 367.485834 24.1344 
L 369.117264 23.51009 
L 370.748693 23.275974 
L 372.380123 24.836748 
L 375.642983 22.417548 
L 377.274413 22.729703 
L 378.905843 23.51009 
L 380.537273 23.275974 
L 380.537273 23.275974 
" clip-path="url(#pcf9857addc)" style="fill: none; stroke: #2ca02c; stroke-width: 1.5; stroke-linecap: square"/>
   </g>
   <g id="line2d_20">
    <path d="M 55.882727 261.216 
L 57.514157 261.059923 
L 59.145587 260.747768 
L 60.777017 260.123458 
L 62.408447 259.265032 
L 64.039877 258.17249 
L 65.671307 257.548181 
L 67.302736 255.75329 
L 68.934166 254.504671 
L 72.197026 251.695277 
L 73.828456 249.510194 
L 75.459886 248.49569 
L 77.091316 246.466684 
L 80.354175 241.628284 
L 85.248465 235.931458 
L 86.879895 234.448723 
L 88.511325 232.341677 
L 90.142755 230.702865 
L 91.774185 228.751897 
L 93.405614 226.410735 
L 95.037044 223.289187 
L 96.668474 221.338219 
L 98.299904 219.075097 
L 99.931334 217.982555 
L 101.562764 217.514323 
L 103.194194 215.2512 
L 104.825624 212.753961 
L 106.457053 211.349265 
L 108.088483 210.568877 
L 109.719913 209.944568 
L 111.351343 209.164181 
L 112.982773 206.510865 
L 114.614203 205.262245 
L 116.245633 202.843045 
L 117.877063 201.36031 
L 121.139922 197.614452 
L 122.771352 197.224258 
L 124.402782 195.27329 
L 126.034212 193.634477 
L 129.297072 190.903123 
L 130.928502 190.200774 
L 132.559931 188.327845 
L 134.191361 185.518452 
L 135.822791 185.59649 
L 137.454221 184.035716 
L 139.085651 180.602013 
L 140.717081 178.9632 
L 142.348511 178.416929 
L 143.979941 177.16831 
L 145.61137 177.16831 
L 147.2428 175.373419 
L 148.87423 174.983226 
L 150.50566 173.422452 
L 152.13709 170.691097 
L 153.76852 171.159329 
L 155.39995 170.925213 
L 157.03138 169.2864 
L 158.66281 168.896206 
L 160.294239 167.49151 
L 161.925669 167.023277 
L 165.188529 167.335432 
L 166.819959 166.789161 
L 168.451389 166.086813 
L 170.082819 165.774658 
L 171.714249 164.526039 
L 173.345678 164.994271 
L 174.977108 163.745652 
L 176.608538 163.199381 
L 178.239968 162.965265 
L 179.871398 161.560568 
L 181.502828 160.389987 
L 183.134258 159.999794 
L 184.765688 160.311948 
L 186.397117 159.375484 
L 188.028547 159.375484 
L 189.659977 158.829213 
L 191.291407 159.141368 
L 192.922837 158.439019 
L 194.554267 159.297445 
L 196.185697 158.829213 
L 197.817127 157.502555 
L 199.448556 156.878245 
L 201.079986 154.7712 
L 202.711416 155.161394 
L 204.342846 155.161394 
L 205.974276 154.615123 
L 207.605706 154.459045 
L 209.237136 156.331974 
L 210.868566 155.473548 
L 212.499995 156.175897 
L 214.131425 157.736671 
L 215.762855 156.175897 
L 217.394285 155.005316 
L 219.025715 155.005316 
L 220.657145 156.410013 
L 222.288575 156.722168 
L 223.920005 156.019819 
L 225.551434 157.580594 
L 228.814294 157.658632 
L 230.445724 155.473548 
L 232.077154 155.005316 
L 233.708584 155.863742 
L 235.340014 155.551587 
L 236.971444 154.381006 
L 238.602873 153.678658 
L 240.234303 152.508077 
L 241.865733 151.805729 
L 243.497163 151.493574 
L 245.128593 151.805729 
L 248.391453 151.259458 
L 250.022883 149.9328 
L 251.654312 150.244955 
L 253.285742 149.542606 
L 254.917172 149.620645 
L 256.548602 151.259458 
L 258.180032 150.791226 
L 259.811462 151.649652 
L 261.442892 151.72769 
L 263.074322 150.713187 
L 264.705751 152.508077 
L 266.337181 152.039845 
L 267.968611 151.103381 
L 271.231471 152.195923 
L 272.862901 153.210426 
L 274.494331 152.195923 
L 276.125761 150.166916 
L 277.75719 150.401032 
L 279.38862 149.464568 
L 281.02005 146.733213 
L 284.28291 148.684181 
L 285.91434 147.357523 
L 287.54577 147.981832 
L 289.1772 146.499097 
L 290.80863 146.108903 
L 292.440059 146.88929 
L 294.071489 146.343019 
L 295.702919 148.762219 
L 297.334349 148.13791 
L 298.965779 149.620645 
L 302.228639 151.337497 
L 303.860069 151.493574 
L 305.491498 152.195923 
L 307.122928 151.883768 
L 308.754358 149.698684 
L 310.385788 149.620645 
L 312.017218 148.528103 
L 313.648648 148.13791 
L 315.280078 146.577135 
L 316.911508 145.562632 
L 318.542937 147.5136 
L 320.174367 146.967329 
L 321.805797 144.938323 
L 323.437227 146.030865 
L 325.068657 144.548129 
L 326.700087 145.250477 
L 328.331517 144.704206 
L 329.962947 144.626168 
L 331.594376 145.250477 
L 333.225806 143.689703 
L 334.857236 142.987355 
L 336.488666 142.6752 
L 338.120096 141.972852 
L 339.751526 142.831277 
L 341.382956 141.894813 
L 343.014386 143.29951 
L 344.645815 142.597161 
L 346.277245 141.426581 
L 347.908675 142.128929 
L 349.540105 144.704206 
L 351.171535 142.753239 
L 352.802965 143.533626 
L 354.434395 143.221471 
L 356.065825 143.845781 
L 357.697254 143.611665 
L 359.328684 144.392052 
L 360.960114 144.47009 
L 362.591544 146.108903 
L 364.222974 146.108903 
L 365.854404 147.5136 
L 367.485834 148.293987 
L 369.117264 148.13791 
L 370.748693 149.074374 
L 374.011553 147.825755 
L 375.642983 147.747716 
L 377.274413 147.903794 
L 378.905843 146.108903 
L 380.537273 145.406555 
L 380.537273 145.406555 
" clip-path="url(#pcf9857addc)" style="fill: none; stroke: #d62728; stroke-width: 1.5; stroke-linecap: square"/>
   </g>
   <g id="patch_3">
    <path d="M 39.65 273.312 
L 39.65 7.2 
" style="fill: none; stroke: #000000; stroke-width: 0.8; stroke-linejoin: miter; stroke-linecap: square"/>
   </g>
   <g id="patch_4">
    <path d="M 396.77 273.312 
L 396.77 7.2 
" style="fill: none; stroke: #000000; stroke-width: 0.8; stroke-linejoin: miter; stroke-linecap: square"/>
   </g>
   <g id="patch_5">
    <path d="M 39.65 273.312 
L 396.77 273.312 
" style="fill: none; stroke: #000000; stroke-width: 0.8; stroke-linejoin: miter; stroke-linecap: square"/>
   </g>
   <g id="patch_6">
    <path d="M 39.65 7.2 
L 396.77 7.2 
" style="fill: none; stroke: #000000; stroke-width: 0.8; stroke-linejoin: miter; stroke-linecap: square"/>
   </g>
  </g>
 </g>
 <defs>
  <clipPath id="pcf9857addc">
   <rect x="39.65" y="7.2" width="357.12" height="266.112"/>
  </clipPath>
 </defs>
</svg>
