<?xml version="1.0" encoding="utf-8" standalone="no"?>
<!DOCTYPE svg PUBLIC "-//W3C//DTD SVG 1.1//EN"
  "http://www.w3.org/Graphics/SVG/1.1/DTD/svg11.dtd">
<!-- Created with matplotlib (https://matplotlib.org/) -->
<svg height="297.190125pt" version="1.1" viewBox="0 0 403.97 297.190125" width="403.97pt" xmlns="http://www.w3.org/2000/svg" xmlns:xlink="http://www.w3.org/1999/xlink">
 <metadata>
  <rdf:RDF xmlns:cc="http://creativecommons.org/ns#" xmlns:dc="http://purl.org/dc/elements/1.1/" xmlns:rdf="http://www.w3.org/1999/02/22-rdf-syntax-ns#">
   <cc:Work>
    <dc:type rdf:resource="http://purl.org/dc/dcmitype/StillImage"/>
    <dc:date>2021-06-30T11:45:31.846382</dc:date>
    <dc:format>image/svg+xml</dc:format>
    <dc:creator>
     <cc:Agent>
      <dc:title>Matplotlib v3.3.4, https://matplotlib.org/</dc:title>
     </cc:Agent>
    </dc:creator>
   </cc:Work>
  </rdf:RDF>
 </metadata>
 <defs>
  <style type="text/css">*{stroke-linecap:butt;stroke-linejoin:round;}</style>
 </defs>
 <g id="figure_1">
  <g id="patch_1">
   <path d="M 0 297.190125 
L 403.97 297.190125 
L 403.97 0 
L 0 0 
z
" style="fill:#ffffff;"/>
  </g>
  <g id="axes_1">
   <g id="patch_2">
    <path d="M 39.65 273.312 
L 396.77 273.312 
L 396.77 7.2 
L 39.65 7.2 
z
" style="fill:#ffffff;"/>
   </g>
   <g id="matplotlib.axis_1">
    <g id="xtick_1">
     <g id="line2d_1">
      <defs>
       <path d="M 0 0 
L 0 3.5 
" id="m8e19ffdcd0" style="stroke:#000000;stroke-width:0.8;"/>
      </defs>
      <g>
       <use style="stroke:#000000;stroke-width:0.8;" x="55.882727" xlink:href="#m8e19ffdcd0" y="273.312"/>
      </g>
     </g>
     <g id="text_1">
      <!-- 0.0 -->
      <g transform="translate(47.931165 287.910437)scale(0.1 -0.1)">
       <defs>
        <path d="M 31.78125 66.40625 
Q 24.171875 66.40625 20.328125 58.90625 
Q 16.5 51.421875 16.5 36.375 
Q 16.5 21.390625 20.328125 13.890625 
Q 24.171875 6.390625 31.78125 6.390625 
Q 39.453125 6.390625 43.28125 13.890625 
Q 47.125 21.390625 47.125 36.375 
Q 47.125 51.421875 43.28125 58.90625 
Q 39.453125 66.40625 31.78125 66.40625 
z
M 31.78125 74.21875 
Q 44.046875 74.21875 50.515625 64.515625 
Q 56.984375 54.828125 56.984375 36.375 
Q 56.984375 17.96875 50.515625 8.265625 
Q 44.046875 -1.421875 31.78125 -1.421875 
Q 19.53125 -1.421875 13.0625 8.265625 
Q 6.59375 17.96875 6.59375 36.375 
Q 6.59375 54.828125 13.0625 64.515625 
Q 19.53125 74.21875 31.78125 74.21875 
z
" id="DejaVuSans-48"/>
        <path d="M 10.6875 12.40625 
L 21 12.40625 
L 21 0 
L 10.6875 0 
z
" id="DejaVuSans-46"/>
       </defs>
       <use xlink:href="#DejaVuSans-48"/>
       <use x="63.623047" xlink:href="#DejaVuSans-46"/>
       <use x="95.410156" xlink:href="#DejaVuSans-48"/>
      </g>
     </g>
    </g>
    <g id="xtick_2">
     <g id="line2d_2">
      <g>
       <use style="stroke:#000000;stroke-width:0.8;" x="96.668474" xlink:href="#m8e19ffdcd0" y="273.312"/>
      </g>
     </g>
     <g id="text_2">
      <!-- 2.5 -->
      <g transform="translate(88.716912 287.910437)scale(0.1 -0.1)">
       <defs>
        <path d="M 19.1875 8.296875 
L 53.609375 8.296875 
L 53.609375 0 
L 7.328125 0 
L 7.328125 8.296875 
Q 12.9375 14.109375 22.625 23.890625 
Q 32.328125 33.6875 34.8125 36.53125 
Q 39.546875 41.84375 41.421875 45.53125 
Q 43.3125 49.21875 43.3125 52.78125 
Q 43.3125 58.59375 39.234375 62.25 
Q 35.15625 65.921875 28.609375 65.921875 
Q 23.96875 65.921875 18.8125 64.3125 
Q 13.671875 62.703125 7.8125 59.421875 
L 7.8125 69.390625 
Q 13.765625 71.78125 18.9375 73 
Q 24.125 74.21875 28.421875 74.21875 
Q 39.75 74.21875 46.484375 68.546875 
Q 53.21875 62.890625 53.21875 53.421875 
Q 53.21875 48.921875 51.53125 44.890625 
Q 49.859375 40.875 45.40625 35.40625 
Q 44.1875 33.984375 37.640625 27.21875 
Q 31.109375 20.453125 19.1875 8.296875 
z
" id="DejaVuSans-50"/>
        <path d="M 10.796875 72.90625 
L 49.515625 72.90625 
L 49.515625 64.59375 
L 19.828125 64.59375 
L 19.828125 46.734375 
Q 21.96875 47.46875 24.109375 47.828125 
Q 26.265625 48.1875 28.421875 48.1875 
Q 40.625 48.1875 47.75 41.5 
Q 54.890625 34.8125 54.890625 23.390625 
Q 54.890625 11.625 47.5625 5.09375 
Q 40.234375 -1.421875 26.90625 -1.421875 
Q 22.3125 -1.421875 17.546875 -0.640625 
Q 12.796875 0.140625 7.71875 1.703125 
L 7.71875 11.625 
Q 12.109375 9.234375 16.796875 8.0625 
Q 21.484375 6.890625 26.703125 6.890625 
Q 35.15625 6.890625 40.078125 11.328125 
Q 45.015625 15.765625 45.015625 23.390625 
Q 45.015625 31 40.078125 35.4375 
Q 35.15625 39.890625 26.703125 39.890625 
Q 22.75 39.890625 18.8125 39.015625 
Q 14.890625 38.140625 10.796875 36.28125 
z
" id="DejaVuSans-53"/>
       </defs>
       <use xlink:href="#DejaVuSans-50"/>
       <use x="63.623047" xlink:href="#DejaVuSans-46"/>
       <use x="95.410156" xlink:href="#DejaVuSans-53"/>
      </g>
     </g>
    </g>
    <g id="xtick_3">
     <g id="line2d_3">
      <g>
       <use style="stroke:#000000;stroke-width:0.8;" x="137.454221" xlink:href="#m8e19ffdcd0" y="273.312"/>
      </g>
     </g>
     <g id="text_3">
      <!-- 5.0 -->
      <g transform="translate(129.502659 287.910437)scale(0.1 -0.1)">
       <use xlink:href="#DejaVuSans-53"/>
       <use x="63.623047" xlink:href="#DejaVuSans-46"/>
       <use x="95.410156" xlink:href="#DejaVuSans-48"/>
      </g>
     </g>
    </g>
    <g id="xtick_4">
     <g id="line2d_4">
      <g>
       <use style="stroke:#000000;stroke-width:0.8;" x="178.239968" xlink:href="#m8e19ffdcd0" y="273.312"/>
      </g>
     </g>
     <g id="text_4">
      <!-- 7.5 -->
      <g transform="translate(170.288406 287.910437)scale(0.1 -0.1)">
       <defs>
        <path d="M 8.203125 72.90625 
L 55.078125 72.90625 
L 55.078125 68.703125 
L 28.609375 0 
L 18.3125 0 
L 43.21875 64.59375 
L 8.203125 64.59375 
z
" id="DejaVuSans-55"/>
       </defs>
       <use xlink:href="#DejaVuSans-55"/>
       <use x="63.623047" xlink:href="#DejaVuSans-46"/>
       <use x="95.410156" xlink:href="#DejaVuSans-53"/>
      </g>
     </g>
    </g>
    <g id="xtick_5">
     <g id="line2d_5">
      <g>
       <use style="stroke:#000000;stroke-width:0.8;" x="219.025715" xlink:href="#m8e19ffdcd0" y="273.312"/>
      </g>
     </g>
     <g id="text_5">
      <!-- 10.0 -->
      <g transform="translate(207.892902 287.910437)scale(0.1 -0.1)">
       <defs>
        <path d="M 12.40625 8.296875 
L 28.515625 8.296875 
L 28.515625 63.921875 
L 10.984375 60.40625 
L 10.984375 69.390625 
L 28.421875 72.90625 
L 38.28125 72.90625 
L 38.28125 8.296875 
L 54.390625 8.296875 
L 54.390625 0 
L 12.40625 0 
z
" id="DejaVuSans-49"/>
       </defs>
       <use xlink:href="#DejaVuSans-49"/>
       <use x="63.623047" xlink:href="#DejaVuSans-48"/>
       <use x="127.246094" xlink:href="#DejaVuSans-46"/>
       <use x="159.033203" xlink:href="#DejaVuSans-48"/>
      </g>
     </g>
    </g>
    <g id="xtick_6">
     <g id="line2d_6">
      <g>
       <use style="stroke:#000000;stroke-width:0.8;" x="259.811462" xlink:href="#m8e19ffdcd0" y="273.312"/>
      </g>
     </g>
     <g id="text_6">
      <!-- 12.5 -->
      <g transform="translate(248.678649 287.910437)scale(0.1 -0.1)">
       <use xlink:href="#DejaVuSans-49"/>
       <use x="63.623047" xlink:href="#DejaVuSans-50"/>
       <use x="127.246094" xlink:href="#DejaVuSans-46"/>
       <use x="159.033203" xlink:href="#DejaVuSans-53"/>
      </g>
     </g>
    </g>
    <g id="xtick_7">
     <g id="line2d_7">
      <g>
       <use style="stroke:#000000;stroke-width:0.8;" x="300.597209" xlink:href="#m8e19ffdcd0" y="273.312"/>
      </g>
     </g>
     <g id="text_7">
      <!-- 15.0 -->
      <g transform="translate(289.464396 287.910437)scale(0.1 -0.1)">
       <use xlink:href="#DejaVuSans-49"/>
       <use x="63.623047" xlink:href="#DejaVuSans-53"/>
       <use x="127.246094" xlink:href="#DejaVuSans-46"/>
       <use x="159.033203" xlink:href="#DejaVuSans-48"/>
      </g>
     </g>
    </g>
    <g id="xtick_8">
     <g id="line2d_8">
      <g>
       <use style="stroke:#000000;stroke-width:0.8;" x="341.382956" xlink:href="#m8e19ffdcd0" y="273.312"/>
      </g>
     </g>
     <g id="text_8">
      <!-- 17.5 -->
      <g transform="translate(330.250143 287.910437)scale(0.1 -0.1)">
       <use xlink:href="#DejaVuSans-49"/>
       <use x="63.623047" xlink:href="#DejaVuSans-55"/>
       <use x="127.246094" xlink:href="#DejaVuSans-46"/>
       <use x="159.033203" xlink:href="#DejaVuSans-53"/>
      </g>
     </g>
    </g>
    <g id="xtick_9">
     <g id="line2d_9">
      <g>
       <use style="stroke:#000000;stroke-width:0.8;" x="382.168703" xlink:href="#m8e19ffdcd0" y="273.312"/>
      </g>
     </g>
     <g id="text_9">
      <!-- 20.0 -->
      <g transform="translate(371.03589 287.910437)scale(0.1 -0.1)">
       <use xlink:href="#DejaVuSans-50"/>
       <use x="63.623047" xlink:href="#DejaVuSans-48"/>
       <use x="127.246094" xlink:href="#DejaVuSans-46"/>
       <use x="159.033203" xlink:href="#DejaVuSans-48"/>
      </g>
     </g>
    </g>
   </g>
   <g id="matplotlib.axis_2">
    <g id="ytick_1">
     <g id="line2d_10">
      <defs>
       <path d="M 0 0 
L -3.5 0 
" id="m2babf423c0" style="stroke:#000000;stroke-width:0.8;"/>
      </defs>
      <g>
       <use style="stroke:#000000;stroke-width:0.8;" x="39.65" xlink:href="#m2babf423c0" y="261.216"/>
      </g>
     </g>
     <g id="text_10">
      <!-- 0 -->
      <g transform="translate(26.2875 265.015219)scale(0.1 -0.1)">
       <use xlink:href="#DejaVuSans-48"/>
      </g>
     </g>
    </g>
    <g id="ytick_2">
     <g id="line2d_11">
      <g>
       <use style="stroke:#000000;stroke-width:0.8;" x="39.65" xlink:href="#m2babf423c0" y="222.455389"/>
      </g>
     </g>
     <g id="text_11">
      <!-- 500 -->
      <g transform="translate(13.5625 226.254608)scale(0.1 -0.1)">
       <use xlink:href="#DejaVuSans-53"/>
       <use x="63.623047" xlink:href="#DejaVuSans-48"/>
       <use x="127.246094" xlink:href="#DejaVuSans-48"/>
      </g>
     </g>
    </g>
    <g id="ytick_3">
     <g id="line2d_12">
      <g>
       <use style="stroke:#000000;stroke-width:0.8;" x="39.65" xlink:href="#m2babf423c0" y="183.694778"/>
      </g>
     </g>
     <g id="text_12">
      <!-- 1000 -->
      <g transform="translate(7.2 187.493997)scale(0.1 -0.1)">
       <use xlink:href="#DejaVuSans-49"/>
       <use x="63.623047" xlink:href="#DejaVuSans-48"/>
       <use x="127.246094" xlink:href="#DejaVuSans-48"/>
       <use x="190.869141" xlink:href="#DejaVuSans-48"/>
      </g>
     </g>
    </g>
    <g id="ytick_4">
     <g id="line2d_13">
      <g>
       <use style="stroke:#000000;stroke-width:0.8;" x="39.65" xlink:href="#m2babf423c0" y="144.934168"/>
      </g>
     </g>
     <g id="text_13">
      <!-- 1500 -->
      <g transform="translate(7.2 148.733386)scale(0.1 -0.1)">
       <use xlink:href="#DejaVuSans-49"/>
       <use x="63.623047" xlink:href="#DejaVuSans-53"/>
       <use x="127.246094" xlink:href="#DejaVuSans-48"/>
       <use x="190.869141" xlink:href="#DejaVuSans-48"/>
      </g>
     </g>
    </g>
    <g id="ytick_5">
     <g id="line2d_14">
      <g>
       <use style="stroke:#000000;stroke-width:0.8;" x="39.65" xlink:href="#m2babf423c0" y="106.173557"/>
      </g>
     </g>
     <g id="text_14">
      <!-- 2000 -->
      <g transform="translate(7.2 109.972776)scale(0.1 -0.1)">
       <use xlink:href="#DejaVuSans-50"/>
       <use x="63.623047" xlink:href="#DejaVuSans-48"/>
       <use x="127.246094" xlink:href="#DejaVuSans-48"/>
       <use x="190.869141" xlink:href="#DejaVuSans-48"/>
      </g>
     </g>
    </g>
    <g id="ytick_6">
     <g id="line2d_15">
      <g>
       <use style="stroke:#000000;stroke-width:0.8;" x="39.65" xlink:href="#m2babf423c0" y="67.412946"/>
      </g>
     </g>
     <g id="text_15">
      <!-- 2500 -->
      <g transform="translate(7.2 71.212165)scale(0.1 -0.1)">
       <use xlink:href="#DejaVuSans-50"/>
       <use x="63.623047" xlink:href="#DejaVuSans-53"/>
       <use x="127.246094" xlink:href="#DejaVuSans-48"/>
       <use x="190.869141" xlink:href="#DejaVuSans-48"/>
      </g>
     </g>
    </g>
    <g id="ytick_7">
     <g id="line2d_16">
      <g>
       <use style="stroke:#000000;stroke-width:0.8;" x="39.65" xlink:href="#m2babf423c0" y="28.652335"/>
      </g>
     </g>
     <g id="text_16">
      <!-- 3000 -->
      <g transform="translate(7.2 32.451554)scale(0.1 -0.1)">
       <defs>
        <path d="M 40.578125 39.3125 
Q 47.65625 37.796875 51.625 33 
Q 55.609375 28.21875 55.609375 21.1875 
Q 55.609375 10.40625 48.1875 4.484375 
Q 40.765625 -1.421875 27.09375 -1.421875 
Q 22.515625 -1.421875 17.65625 -0.515625 
Q 12.796875 0.390625 7.625 2.203125 
L 7.625 11.71875 
Q 11.71875 9.328125 16.59375 8.109375 
Q 21.484375 6.890625 26.8125 6.890625 
Q 36.078125 6.890625 40.9375 10.546875 
Q 45.796875 14.203125 45.796875 21.1875 
Q 45.796875 27.640625 41.28125 31.265625 
Q 36.765625 34.90625 28.71875 34.90625 
L 20.21875 34.90625 
L 20.21875 43.015625 
L 29.109375 43.015625 
Q 36.375 43.015625 40.234375 45.921875 
Q 44.09375 48.828125 44.09375 54.296875 
Q 44.09375 59.90625 40.109375 62.90625 
Q 36.140625 65.921875 28.71875 65.921875 
Q 24.65625 65.921875 20.015625 65.03125 
Q 15.375 64.15625 9.8125 62.3125 
L 9.8125 71.09375 
Q 15.4375 72.65625 20.34375 73.4375 
Q 25.25 74.21875 29.59375 74.21875 
Q 40.828125 74.21875 47.359375 69.109375 
Q 53.90625 64.015625 53.90625 55.328125 
Q 53.90625 49.265625 50.4375 45.09375 
Q 46.96875 40.921875 40.578125 39.3125 
z
" id="DejaVuSans-51"/>
       </defs>
       <use xlink:href="#DejaVuSans-51"/>
       <use x="63.623047" xlink:href="#DejaVuSans-48"/>
       <use x="127.246094" xlink:href="#DejaVuSans-48"/>
       <use x="190.869141" xlink:href="#DejaVuSans-48"/>
      </g>
     </g>
    </g>
   </g>
   <g id="line2d_17">
    <path clip-path="url(#p51eb1ea432)" d="M 55.882727 261.216 
L 59.961302 241.835695 
L 64.039877 224.005814 
L 68.118451 207.602323 
L 72.197026 192.511112 
L 76.275601 178.627198 
L 80.354175 165.853996 
L 84.43275 154.102651 
L 88.511325 143.291414 
L 92.589899 133.345075 
L 96.668474 124.194444 
L 100.747049 115.775863 
L 104.825624 108.030769 
L 108.904198 100.905282 
L 112.982773 94.349834 
L 117.061348 88.318822 
L 121.139922 82.770291 
L 125.218497 77.665642 
L 129.297072 72.969365 
L 133.375646 68.648791 
L 137.454221 64.673862 
L 141.532796 61.016928 
L 145.61137 57.652548 
L 149.689945 54.557319 
L 153.76852 51.709708 
L 157.847095 49.089906 
L 161.925669 46.679688 
L 166.004244 44.462288 
L 170.082819 42.422279 
L 174.161393 40.545471 
L 178.239968 38.818808 
L 182.318543 37.230278 
L 186.397117 35.768831 
L 190.475692 34.424299 
L 194.554267 33.187329 
L 198.632841 32.049318 
L 202.711416 31.002347 
L 206.789991 30.039134 
L 210.868566 29.152978 
L 214.94714 28.337714 
L 219.025715 27.587672 
L 223.10429 26.897632 
L 227.182864 26.262796 
L 231.261439 25.678747 
L 235.340014 25.141422 
L 239.418588 24.647083 
L 243.497163 24.192291 
L 247.575738 23.773882 
L 251.654312 23.388946 
L 255.732887 23.034805 
L 259.811462 22.708995 
L 263.890037 22.40925 
L 267.968611 22.133485 
L 272.047186 21.879781 
L 276.125761 21.646373 
L 280.204335 21.431638 
L 284.28291 21.234081 
L 288.361485 21.052329 
L 292.440059 20.885118 
L 296.518634 20.731283 
L 300.597209 20.589755 
L 304.675783 20.459549 
L 308.754358 20.33976 
L 312.832933 20.229554 
L 316.911508 20.128164 
L 320.990082 20.034885 
L 325.068657 19.949069 
L 329.147232 19.870118 
L 333.225806 19.797483 
L 337.304381 19.730659 
L 341.382956 19.669181 
L 345.46153 19.612621 
L 349.540105 19.560586 
L 353.61868 19.512714 
L 357.697254 19.468671 
L 361.775829 19.428152 
L 365.854404 19.390875 
L 369.932979 19.356579 
L 374.011553 19.325028 
L 378.090128 19.296 
" style="fill:none;stroke:#1f77b4;stroke-linecap:square;stroke-width:1.5;"/>
   </g>
   <g id="line2d_18">
    <path clip-path="url(#p51eb1ea432)" d="M 55.882727 261.216 
L 59.961302 261.216 
L 64.039877 259.665576 
L 68.118451 256.926751 
L 72.197026 253.296056 
L 76.275601 249.015377 
L 80.354175 244.281068 
L 84.43275 239.25162 
L 88.511325 234.054084 
L 92.589899 228.789472 
L 96.668474 223.53727 
L 100.747049 218.35923 
L 104.825624 213.302533 
L 108.904198 208.402432 
L 112.982773 203.684457 
L 117.061348 199.166256 
L 121.139922 194.859117 
L 125.218497 190.769242 
L 129.297072 186.898791 
L 133.375646 183.246752 
L 137.454221 179.809654 
L 141.532796 176.582157 
L 145.61137 173.557526 
L 149.689945 170.728026 
L 153.76852 168.085235 
L 157.847095 165.620304 
L 161.925669 163.324156 
L 166.004244 161.187649 
L 170.082819 159.201704 
L 174.161393 157.357401 
L 178.239968 155.646054 
L 182.318543 154.059265 
L 186.397117 152.588966 
L 190.475692 151.227442 
L 194.554267 149.96735 
L 198.632841 148.801724 
L 202.711416 147.723981 
L 206.789991 146.727913 
L 210.868566 145.807685 
L 214.94714 144.95782 
L 219.025715 144.173188 
L 223.10429 143.448993 
L 227.182864 142.780759 
L 231.261439 142.164312 
L 235.340014 141.595766 
L 239.418588 141.071506 
L 243.497163 140.588172 
L 247.575738 140.142647 
L 251.654312 139.732037 
L 255.732887 139.353661 
L 259.811462 139.005035 
L 263.890037 138.683858 
L 267.968611 138.388001 
L 272.047186 138.115498 
L 276.125761 137.864528 
L 280.204335 137.633408 
L 284.28291 137.420587 
L 288.361485 137.22463 
L 292.440059 137.044211 
L 296.518634 136.87811 
L 300.597209 136.725199 
L 304.675783 136.584437 
L 308.754358 136.454866 
L 312.832933 136.335601 
L 316.911508 136.225826 
L 320.990082 136.124791 
L 325.068657 136.031803 
L 329.147232 135.946222 
L 333.225806 135.867463 
L 337.304381 135.794982 
L 341.382956 135.728281 
L 345.46153 135.6669 
L 349.540105 135.610417 
L 353.61868 135.558441 
L 357.697254 135.510613 
L 361.775829 135.466604 
L 365.854404 135.426108 
L 369.932979 135.388847 
L 374.011553 135.354561 
L 378.090128 135.323014 
" style="fill:none;stroke:#ff7f0e;stroke-linecap:square;stroke-width:1.5;"/>
   </g>
   <g id="line2d_19">
    <path clip-path="url(#p51eb1ea432)" d="M 55.882727 261.216 
L 57.514157 254.549175 
L 60.777017 238.657325 
L 62.408447 232.920754 
L 64.039877 226.719056 
L 67.302736 212.455152 
L 68.934166 206.951145 
L 72.197026 194.470228 
L 73.828456 187.57084 
L 75.459886 183.927342 
L 80.354175 167.182758 
L 83.617035 156.717393 
L 85.248465 151.911078 
L 86.879895 147.957495 
L 88.511325 143.383743 
L 90.142755 138.267343 
L 91.774185 135.166494 
L 93.405614 131.290433 
L 95.037044 128.57719 
L 96.668474 126.794202 
L 99.931334 122.142928 
L 101.562764 118.189346 
L 103.194194 116.949007 
L 104.825624 115.010976 
L 109.719913 106.793727 
L 112.982773 102.607581 
L 114.614203 99.274168 
L 116.245633 98.343913 
L 117.877063 96.638447 
L 119.508492 93.770161 
L 121.139922 93.770161 
L 122.771352 93.460077 
L 124.402782 91.13444 
L 126.034212 90.669313 
L 127.665642 88.111112 
L 129.297072 87.801027 
L 134.191361 80.97916 
L 135.822791 78.42096 
L 137.454221 77.413184 
L 139.085651 76.017802 
L 140.717081 73.071995 
L 142.348511 70.591316 
L 145.61137 63.84697 
L 147.2428 62.60663 
L 148.87423 60.358515 
L 150.50566 60.513557 
L 152.13709 61.056206 
L 153.76852 60.203472 
L 155.39995 58.885612 
L 157.03138 57.877836 
L 158.66281 57.102624 
L 160.294239 56.947581 
L 161.925669 55.552199 
L 163.557099 55.784763 
L 165.188529 54.932029 
L 166.819959 54.544423 
L 168.451389 52.063744 
L 171.714249 49.350501 
L 173.345678 49.428023 
L 174.977108 48.342726 
L 176.608538 46.637259 
L 178.239968 45.241877 
L 179.871398 44.544186 
L 181.502828 43.071282 
L 183.134258 43.071282 
L 184.765688 41.985985 
L 186.397117 42.218549 
L 188.028547 41.210773 
L 189.659977 41.675901 
L 191.291407 40.900688 
L 192.922837 40.35804 
L 196.185697 38.342488 
L 197.817127 36.947106 
L 199.448556 39.195221 
L 201.079986 39.815391 
L 202.711416 41.210773 
L 204.342846 41.598379 
L 205.974276 41.210773 
L 207.605706 37.567276 
L 209.237136 36.094373 
L 210.868566 36.481979 
L 214.131425 35.474203 
L 215.762855 30.977972 
L 217.394285 30.512845 
L 219.025715 31.830705 
L 220.657145 31.830705 
L 222.288575 31.52062 
L 223.920005 31.52062 
L 225.551434 31.675663 
L 227.182864 32.373354 
L 228.814294 31.133014 
L 230.445724 30.822929 
L 232.077154 31.675663 
L 233.708584 31.443099 
L 235.340014 30.125238 
L 236.971444 32.373354 
L 238.602873 30.357802 
L 240.234303 30.125238 
L 241.865733 30.357802 
L 243.497163 29.58259 
L 245.128593 31.210536 
L 246.760023 31.830705 
L 248.391453 31.908227 
L 250.022883 34.156342 
L 251.654312 36.016851 
L 253.285742 34.698991 
L 254.917172 35.31916 
L 256.548602 35.31916 
L 258.180032 34.078821 
L 259.811462 34.078821 
L 261.442892 33.691215 
L 264.705751 34.466427 
L 266.337181 35.009075 
L 267.968611 35.396682 
L 269.600041 35.164118 
L 271.231471 33.38113 
L 272.862901 35.164118 
L 274.494331 34.698991 
L 276.125761 34.698991 
L 277.75719 35.629245 
L 279.38862 35.009075 
L 281.02005 33.691215 
L 284.28291 34.078821 
L 285.91434 32.683439 
L 287.54577 32.916002 
L 289.1772 32.993524 
L 290.80863 32.838481 
L 292.440059 34.543948 
L 294.071489 34.156342 
L 295.702919 33.071045 
L 297.334349 33.303609 
L 298.965779 33.148566 
L 300.597209 32.295833 
L 302.228639 32.838481 
L 303.860069 31.52062 
L 305.491498 31.908227 
L 308.754358 33.071045 
L 310.385788 34.0013 
L 312.017218 34.078821 
L 313.648648 34.698991 
L 315.280078 35.629245 
L 316.911508 36.714542 
L 320.174367 36.947106 
L 321.805797 38.342488 
L 323.437227 38.807615 
L 325.068657 38.420009 
L 326.700087 39.73787 
L 328.331517 39.505306 
L 329.962947 38.652573 
L 331.594376 40.590603 
L 333.225806 40.97821 
L 334.857236 40.202997 
L 336.488666 40.668125 
L 338.120096 40.35804 
L 339.751526 40.202997 
L 341.382956 38.420009 
L 343.014386 36.869585 
L 344.645815 36.947106 
L 346.277245 35.551724 
L 347.908675 37.334712 
L 351.171535 37.877361 
L 352.802965 38.807615 
L 354.434395 39.892912 
L 356.065825 40.202997 
L 357.697254 37.877361 
L 360.960114 39.040179 
L 362.591544 39.350264 
L 364.222974 39.505306 
L 365.854404 39.427785 
L 367.485834 40.513082 
L 369.117264 42.838719 
L 370.748693 39.73787 
L 372.380123 39.272743 
L 374.011553 37.644797 
L 375.642983 38.109924 
L 377.274413 38.342488 
L 378.905843 36.714542 
L 380.537273 38.730094 
L 380.537273 38.730094 
" style="fill:none;stroke:#2ca02c;stroke-linecap:square;stroke-width:1.5;"/>
   </g>
   <g id="line2d_20">
    <path clip-path="url(#p51eb1ea432)" d="M 55.882727 261.216 
L 57.514157 261.138479 
L 60.777017 260.285745 
L 62.408447 259.510533 
L 64.039877 258.502757 
L 65.671307 257.727545 
L 67.302736 256.564727 
L 68.934166 254.626696 
L 72.197026 252.223538 
L 73.828456 251.06072 
L 75.459886 248.657562 
L 77.091316 246.486968 
L 78.722746 245.479192 
L 80.354175 243.46364 
L 81.985605 242.068258 
L 85.248465 238.192197 
L 86.879895 235.556476 
L 88.511325 233.92853 
L 90.142755 232.920754 
L 91.774185 229.587342 
L 93.405614 228.269481 
L 95.037044 224.625983 
L 96.668474 222.53291 
L 98.299904 220.052231 
L 99.931334 217.106425 
L 101.562764 215.788564 
L 103.194194 213.61797 
L 104.825624 211.912503 
L 106.457053 211.05977 
L 108.088483 209.121739 
L 109.719913 208.036442 
L 111.351343 205.478242 
L 112.982773 204.703029 
L 114.614203 204.547987 
L 116.245633 202.920041 
L 117.877063 200.361841 
L 119.508492 199.896714 
L 121.139922 198.268768 
L 122.771352 196.175695 
L 124.402782 195.555525 
L 126.034212 193.229889 
L 127.665642 191.601943 
L 129.297072 188.578615 
L 130.928502 188.346052 
L 132.559931 187.648361 
L 134.191361 186.408021 
L 135.822791 185.71033 
L 137.454221 184.625033 
L 139.085651 183.307172 
L 140.717081 184.082385 
L 142.348511 183.617257 
L 143.979941 182.53196 
L 145.61137 182.454439 
L 147.2428 181.059057 
L 148.87423 180.748972 
L 150.50566 179.121026 
L 152.13709 178.345814 
L 153.76852 176.407784 
L 155.39995 176.252741 
L 157.03138 176.485305 
L 158.66281 173.61702 
L 160.294239 171.989074 
L 163.557099 173.151892 
L 165.188529 173.151892 
L 166.819959 171.213862 
L 168.451389 171.136341 
L 170.082819 170.283607 
L 171.714249 169.19831 
L 173.345678 166.950195 
L 174.977108 165.244728 
L 176.608538 165.554813 
L 178.239968 164.236952 
L 179.871398 163.771824 
L 181.502828 164.081909 
L 183.134258 163.771824 
L 184.765688 162.2214 
L 186.397117 162.531485 
L 188.028547 161.523709 
L 189.659977 159.353115 
L 191.291407 157.570127 
L 192.922837 156.717393 
L 194.554267 156.872436 
L 196.185697 157.880212 
L 197.817127 157.337563 
L 199.448556 156.407308 
L 201.079986 155.86466 
L 202.711416 155.787139 
L 204.342846 154.779363 
L 205.974276 155.24449 
L 207.605706 155.554575 
L 209.237136 154.701842 
L 210.868566 154.701842 
L 212.499995 153.228938 
L 214.131425 152.763811 
L 215.762855 153.461502 
L 217.394285 153.151417 
L 219.025715 151.135865 
L 220.657145 150.748259 
L 222.288575 149.430398 
L 223.920005 150.360653 
L 225.551434 149.120314 
L 227.182864 148.190059 
L 228.814294 147.64741 
L 230.445724 145.70938 
L 232.077154 146.096986 
L 233.708584 146.174507 
L 235.340014 148.88775 
L 236.971444 148.190059 
L 238.602873 149.042792 
L 240.234303 150.205611 
L 241.865733 150.205611 
L 243.497163 151.213387 
L 245.128593 149.197835 
L 246.760023 148.732707 
L 248.391453 149.197835 
L 250.022883 148.26758 
L 251.654312 145.864422 
L 253.285742 145.941944 
L 254.917172 145.08921 
L 256.548602 144.934168 
L 258.180032 146.252028 
L 259.811462 146.717156 
L 261.442892 146.562113 
L 263.074322 147.64741 
L 264.705751 147.259804 
L 266.337181 146.484592 
L 267.968611 145.011689 
L 269.600041 144.701604 
L 271.231471 145.011689 
L 272.862901 143.538786 
L 274.494331 143.693828 
L 276.125761 143.306222 
L 277.75719 142.53101 
L 279.38862 143.926392 
L 281.02005 143.073658 
L 282.65148 142.453489 
L 284.28291 142.220925 
L 285.91434 145.011689 
L 287.54577 143.771349 
L 289.1772 142.763573 
L 290.80863 143.771349 
L 292.440059 142.996137 
L 294.071489 140.748022 
L 295.702919 142.375967 
L 297.334349 142.375967 
L 298.965779 144.701604 
L 300.597209 146.562113 
L 302.228639 147.182283 
L 303.860069 148.965271 
L 305.491498 148.035017 
L 307.122928 147.492368 
L 308.754358 147.802453 
L 310.385788 146.717156 
L 312.017218 146.484592 
L 313.648648 146.562113 
L 315.280078 145.786901 
L 316.911508 146.32955 
L 318.542937 147.492368 
L 320.174367 147.569889 
L 321.805797 147.182283 
L 323.437227 147.182283 
L 325.068657 147.569889 
L 326.700087 145.476816 
L 329.962947 146.019465 
L 331.594376 145.70938 
L 333.225806 145.08921 
L 334.857236 145.011689 
L 336.488666 143.383743 
L 338.120096 143.228701 
L 339.751526 141.600755 
L 341.382956 143.848871 
L 343.014386 142.996137 
L 344.645815 142.996137 
L 346.277245 142.220925 
L 347.908675 141.135628 
L 349.540105 141.445713 
L 351.171535 143.383743 
L 352.802965 141.368191 
L 354.434395 140.6705 
L 356.065825 141.368191 
L 357.697254 143.848871 
L 359.328684 145.244253 
L 362.591544 143.693828 
L 365.854404 143.926392 
L 367.485834 143.771349 
L 369.117264 142.996137 
L 370.748693 144.701604 
L 372.380123 144.934168 
L 374.011553 146.407071 
L 375.642983 145.011689 
L 377.274413 143.926392 
L 378.905843 145.166731 
L 380.537273 143.461264 
L 380.537273 143.461264 
" style="fill:none;stroke:#d62728;stroke-linecap:square;stroke-width:1.5;"/>
   </g>
   <g id="patch_3">
    <path d="M 39.65 273.312 
L 39.65 7.2 
" style="fill:none;stroke:#000000;stroke-linecap:square;stroke-linejoin:miter;stroke-width:0.8;"/>
   </g>
   <g id="patch_4">
    <path d="M 396.77 273.312 
L 396.77 7.2 
" style="fill:none;stroke:#000000;stroke-linecap:square;stroke-linejoin:miter;stroke-width:0.8;"/>
   </g>
   <g id="patch_5">
    <path d="M 39.65 273.312 
L 396.77 273.312 
" style="fill:none;stroke:#000000;stroke-linecap:square;stroke-linejoin:miter;stroke-width:0.8;"/>
   </g>
   <g id="patch_6">
    <path d="M 39.65 7.2 
L 396.77 7.2 
" style="fill:none;stroke:#000000;stroke-linecap:square;stroke-linejoin:miter;stroke-width:0.8;"/>
   </g>
  </g>
 </g>
 <defs>
  <clipPath id="p51eb1ea432">
   <rect height="266.112" width="357.12" x="39.65" y="7.2"/>
  </clipPath>
 </defs>
</svg>
