<?xml version="1.0" encoding="utf-8" standalone="no"?>
<!DOCTYPE svg PUBLIC "-//W3C//DTD SVG 1.1//EN"
  "http://www.w3.org/Graphics/SVG/1.1/DTD/svg11.dtd">
<svg xmlns:xlink="http://www.w3.org/1999/xlink" width="403.97pt" height="297.190125pt" viewBox="0 0 403.97 297.190125" xmlns="http://www.w3.org/2000/svg" version="1.1">
 <metadata>
  <rdf:RDF xmlns:dc="http://purl.org/dc/elements/1.1/" xmlns:cc="http://creativecommons.org/ns#" xmlns:rdf="http://www.w3.org/1999/02/22-rdf-syntax-ns#">
   <cc:Work>
    <dc:type rdf:resource="http://purl.org/dc/dcmitype/StillImage"/>
    <dc:date>2026-01-28T01:54:46.591887</dc:date>
    <dc:format>image/svg+xml</dc:format>
    <dc:creator>
     <cc:Agent>
      <dc:title>Matplotlib v3.10.8, https://matplotlib.org/</dc:title>
     </cc:Agent>
    </dc:creator>
   </cc:Work>
  </rdf:RDF>
 </metadata>
 <defs>
  <style type="text/css">*{stroke-linejoin: round; stroke-linecap: butt}</style>
 </defs>
 <g id="figure_1">
  <g id="patch_1">
   <path d="M 0 297.190125 
L 403.97 297.190125 
L 403.97 0 
L 0 0 
z
" style="fill: #ffffff"/>
  </g>
  <g id="axes_1">
   <g id="patch_2">
    <path d="M 39.65 273.312 
L 396.77 273.312 
L 396.77 7.2 
L 39.65 7.2 
z
" style="fill: #ffffff"/>
   </g>
   <g id="matplotlib.axis_1">
    <g id="xtick_1">
     <g id="line2d_1">
      <defs>
       <path id="m06f3ee4306" d="M 0 0 
L 0 3.5 
" style="stroke: #000000; stroke-width: 0.8"/>
      </defs>
      <g>
       <use xlink:href="#m06f3ee4306" x="55.882727" y="273.312" style="stroke: #000000; stroke-width: 0.8"/>
      </g>
     </g>
     <g id="text_1">
      <!-- 0.0 -->
      <g transform="translate(47.931165 287.910437) scale(0.1 -0.1)">
       <defs>
        <path id="DejaVuSans-30" d="M 2034 4250 
Q 1547 4250 1301 3770 
Q 1056 3291 1056 2328 
Q 1056 1369 1301 889 
Q 1547 409 2034 409 
Q 2525 409 2770 889 
Q 3016 1369 3016 2328 
Q 3016 3291 2770 3770 
Q 2525 4250 2034 4250 
z
M 2034 4750 
Q 2819 4750 3233 4129 
Q 3647 3509 3647 2328 
Q 3647 1150 3233 529 
Q 2819 -91 2034 -91 
Q 1250 -91 836 529 
Q 422 1150 422 2328 
Q 422 3509 836 4129 
Q 1250 4750 2034 4750 
z
" transform="scale(0.015625)"/>
        <path id="DejaVuSans-2e" d="M 684 794 
L 1344 794 
L 1344 0 
L 684 0 
L 684 794 
z
" transform="scale(0.015625)"/>
       </defs>
       <use xlink:href="#DejaVuSans-30"/>
       <use xlink:href="#DejaVuSans-2e" transform="translate(63.623047 0)"/>
       <use xlink:href="#DejaVuSans-30" transform="translate(95.410156 0)"/>
      </g>
     </g>
    </g>
    <g id="xtick_2">
     <g id="line2d_2">
      <g>
       <use xlink:href="#m06f3ee4306" x="96.668474" y="273.312" style="stroke: #000000; stroke-width: 0.8"/>
      </g>
     </g>
     <g id="text_2">
      <!-- 2.5 -->
      <g transform="translate(88.716912 287.910437) scale(0.1 -0.1)">
       <defs>
        <path id="DejaVuSans-32" d="M 1228 531 
L 3431 531 
L 3431 0 
L 469 0 
L 469 531 
Q 828 903 1448 1529 
Q 2069 2156 2228 2338 
Q 2531 2678 2651 2914 
Q 2772 3150 2772 3378 
Q 2772 3750 2511 3984 
Q 2250 4219 1831 4219 
Q 1534 4219 1204 4116 
Q 875 4013 500 3803 
L 500 4441 
Q 881 4594 1212 4672 
Q 1544 4750 1819 4750 
Q 2544 4750 2975 4387 
Q 3406 4025 3406 3419 
Q 3406 3131 3298 2873 
Q 3191 2616 2906 2266 
Q 2828 2175 2409 1742 
Q 1991 1309 1228 531 
z
" transform="scale(0.015625)"/>
        <path id="DejaVuSans-35" d="M 691 4666 
L 3169 4666 
L 3169 4134 
L 1269 4134 
L 1269 2991 
Q 1406 3038 1543 3061 
Q 1681 3084 1819 3084 
Q 2600 3084 3056 2656 
Q 3513 2228 3513 1497 
Q 3513 744 3044 326 
Q 2575 -91 1722 -91 
Q 1428 -91 1123 -41 
Q 819 9 494 109 
L 494 744 
Q 775 591 1075 516 
Q 1375 441 1709 441 
Q 2250 441 2565 725 
Q 2881 1009 2881 1497 
Q 2881 1984 2565 2268 
Q 2250 2553 1709 2553 
Q 1456 2553 1204 2497 
Q 953 2441 691 2322 
L 691 4666 
z
" transform="scale(0.015625)"/>
       </defs>
       <use xlink:href="#DejaVuSans-32"/>
       <use xlink:href="#DejaVuSans-2e" transform="translate(63.623047 0)"/>
       <use xlink:href="#DejaVuSans-35" transform="translate(95.410156 0)"/>
      </g>
     </g>
    </g>
    <g id="xtick_3">
     <g id="line2d_3">
      <g>
       <use xlink:href="#m06f3ee4306" x="137.454221" y="273.312" style="stroke: #000000; stroke-width: 0.8"/>
      </g>
     </g>
     <g id="text_3">
      <!-- 5.0 -->
      <g transform="translate(129.502659 287.910437) scale(0.1 -0.1)">
       <use xlink:href="#DejaVuSans-35"/>
       <use xlink:href="#DejaVuSans-2e" transform="translate(63.623047 0)"/>
       <use xlink:href="#DejaVuSans-30" transform="translate(95.410156 0)"/>
      </g>
     </g>
    </g>
    <g id="xtick_4">
     <g id="line2d_4">
      <g>
       <use xlink:href="#m06f3ee4306" x="178.239968" y="273.312" style="stroke: #000000; stroke-width: 0.8"/>
      </g>
     </g>
     <g id="text_4">
      <!-- 7.5 -->
      <g transform="translate(170.288406 287.910437) scale(0.1 -0.1)">
       <defs>
        <path id="DejaVuSans-37" d="M 525 4666 
L 3525 4666 
L 3525 4397 
L 1831 0 
L 1172 0 
L 2766 4134 
L 525 4134 
L 525 4666 
z
" transform="scale(0.015625)"/>
       </defs>
       <use xlink:href="#DejaVuSans-37"/>
       <use xlink:href="#DejaVuSans-2e" transform="translate(63.623047 0)"/>
       <use xlink:href="#DejaVuSans-35" transform="translate(95.410156 0)"/>
      </g>
     </g>
    </g>
    <g id="xtick_5">
     <g id="line2d_5">
      <g>
       <use xlink:href="#m06f3ee4306" x="219.025715" y="273.312" style="stroke: #000000; stroke-width: 0.8"/>
      </g>
     </g>
     <g id="text_5">
      <!-- 10.0 -->
      <g transform="translate(207.892902 287.910437) scale(0.1 -0.1)">
       <defs>
        <path id="DejaVuSans-31" d="M 794 531 
L 1825 531 
L 1825 4091 
L 703 3866 
L 703 4441 
L 1819 4666 
L 2450 4666 
L 2450 531 
L 3481 531 
L 3481 0 
L 794 0 
L 794 531 
z
" transform="scale(0.015625)"/>
       </defs>
       <use xlink:href="#DejaVuSans-31"/>
       <use xlink:href="#DejaVuSans-30" transform="translate(63.623047 0)"/>
       <use xlink:href="#DejaVuSans-2e" transform="translate(127.246094 0)"/>
       <use xlink:href="#DejaVuSans-30" transform="translate(159.033203 0)"/>
      </g>
     </g>
    </g>
    <g id="xtick_6">
     <g id="line2d_6">
      <g>
       <use xlink:href="#m06f3ee4306" x="259.811462" y="273.312" style="stroke: #000000; stroke-width: 0.8"/>
      </g>
     </g>
     <g id="text_6">
      <!-- 12.5 -->
      <g transform="translate(248.678649 287.910437) scale(0.1 -0.1)">
       <use xlink:href="#DejaVuSans-31"/>
       <use xlink:href="#DejaVuSans-32" transform="translate(63.623047 0)"/>
       <use xlink:href="#DejaVuSans-2e" transform="translate(127.246094 0)"/>
       <use xlink:href="#DejaVuSans-35" transform="translate(159.033203 0)"/>
      </g>
     </g>
    </g>
    <g id="xtick_7">
     <g id="line2d_7">
      <g>
       <use xlink:href="#m06f3ee4306" x="300.597209" y="273.312" style="stroke: #000000; stroke-width: 0.8"/>
      </g>
     </g>
     <g id="text_7">
      <!-- 15.0 -->
      <g transform="translate(289.464396 287.910437) scale(0.1 -0.1)">
       <use xlink:href="#DejaVuSans-31"/>
       <use xlink:href="#DejaVuSans-35" transform="translate(63.623047 0)"/>
       <use xlink:href="#DejaVuSans-2e" transform="translate(127.246094 0)"/>
       <use xlink:href="#DejaVuSans-30" transform="translate(159.033203 0)"/>
      </g>
     </g>
    </g>
    <g id="xtick_8">
     <g id="line2d_8">
      <g>
       <use xlink:href="#m06f3ee4306" x="341.382956" y="273.312" style="stroke: #000000; stroke-width: 0.8"/>
      </g>
     </g>
     <g id="text_8">
      <!-- 17.5 -->
      <g transform="translate(330.250143 287.910437) scale(0.1 -0.1)">
       <use xlink:href="#DejaVuSans-31"/>
       <use xlink:href="#DejaVuSans-37" transform="translate(63.623047 0)"/>
       <use xlink:href="#DejaVuSans-2e" transform="translate(127.246094 0)"/>
       <use xlink:href="#DejaVuSans-35" transform="translate(159.033203 0)"/>
      </g>
     </g>
    </g>
    <g id="xtick_9">
     <g id="line2d_9">
      <g>
       <use xlink:href="#m06f3ee4306" x="382.168703" y="273.312" style="stroke: #000000; stroke-width: 0.8"/>
      </g>
     </g>
     <g id="text_9">
      <!-- 20.0 -->
      <g transform="translate(371.03589 287.910437) scale(0.1 -0.1)">
       <use xlink:href="#DejaVuSans-32"/>
       <use xlink:href="#DejaVuSans-30" transform="translate(63.623047 0)"/>
       <use xlink:href="#DejaVuSans-2e" transform="translate(127.246094 0)"/>
       <use xlink:href="#DejaVuSans-30" transform="translate(159.033203 0)"/>
      </g>
     </g>
    </g>
   </g>
   <g id="matplotlib.axis_2">
    <g id="ytick_1">
     <g id="line2d_10">
      <defs>
       <path id="m319aa07c8b" d="M 0 0 
L -3.5 0 
" style="stroke: #000000; stroke-width: 0.8"/>
      </defs>
      <g>
       <use xlink:href="#m319aa07c8b" x="39.65" y="261.216" style="stroke: #000000; stroke-width: 0.8"/>
      </g>
     </g>
     <g id="text_10">
      <!-- 0 -->
      <g transform="translate(26.2875 265.015219) scale(0.1 -0.1)">
       <use xlink:href="#DejaVuSans-30"/>
      </g>
     </g>
    </g>
    <g id="ytick_2">
     <g id="line2d_11">
      <g>
       <use xlink:href="#m319aa07c8b" x="39.65" y="220.870273" style="stroke: #000000; stroke-width: 0.8"/>
      </g>
     </g>
     <g id="text_11">
      <!-- 500 -->
      <g transform="translate(13.5625 224.669492) scale(0.1 -0.1)">
       <use xlink:href="#DejaVuSans-35"/>
       <use xlink:href="#DejaVuSans-30" transform="translate(63.623047 0)"/>
       <use xlink:href="#DejaVuSans-30" transform="translate(127.246094 0)"/>
      </g>
     </g>
    </g>
    <g id="ytick_3">
     <g id="line2d_12">
      <g>
       <use xlink:href="#m319aa07c8b" x="39.65" y="180.524546" style="stroke: #000000; stroke-width: 0.8"/>
      </g>
     </g>
     <g id="text_12">
      <!-- 1000 -->
      <g transform="translate(7.2 184.323764) scale(0.1 -0.1)">
       <use xlink:href="#DejaVuSans-31"/>
       <use xlink:href="#DejaVuSans-30" transform="translate(63.623047 0)"/>
       <use xlink:href="#DejaVuSans-30" transform="translate(127.246094 0)"/>
       <use xlink:href="#DejaVuSans-30" transform="translate(190.869141 0)"/>
      </g>
     </g>
    </g>
    <g id="ytick_4">
     <g id="line2d_13">
      <g>
       <use xlink:href="#m319aa07c8b" x="39.65" y="140.178819" style="stroke: #000000; stroke-width: 0.8"/>
      </g>
     </g>
     <g id="text_13">
      <!-- 1500 -->
      <g transform="translate(7.2 143.978037) scale(0.1 -0.1)">
       <use xlink:href="#DejaVuSans-31"/>
       <use xlink:href="#DejaVuSans-35" transform="translate(63.623047 0)"/>
       <use xlink:href="#DejaVuSans-30" transform="translate(127.246094 0)"/>
       <use xlink:href="#DejaVuSans-30" transform="translate(190.869141 0)"/>
      </g>
     </g>
    </g>
    <g id="ytick_5">
     <g id="line2d_14">
      <g>
       <use xlink:href="#m319aa07c8b" x="39.65" y="99.833091" style="stroke: #000000; stroke-width: 0.8"/>
      </g>
     </g>
     <g id="text_14">
      <!-- 2000 -->
      <g transform="translate(7.2 103.63231) scale(0.1 -0.1)">
       <use xlink:href="#DejaVuSans-32"/>
       <use xlink:href="#DejaVuSans-30" transform="translate(63.623047 0)"/>
       <use xlink:href="#DejaVuSans-30" transform="translate(127.246094 0)"/>
       <use xlink:href="#DejaVuSans-30" transform="translate(190.869141 0)"/>
      </g>
     </g>
    </g>
    <g id="ytick_6">
     <g id="line2d_15">
      <g>
       <use xlink:href="#m319aa07c8b" x="39.65" y="59.487364" style="stroke: #000000; stroke-width: 0.8"/>
      </g>
     </g>
     <g id="text_15">
      <!-- 2500 -->
      <g transform="translate(7.2 63.286583) scale(0.1 -0.1)">
       <use xlink:href="#DejaVuSans-32"/>
       <use xlink:href="#DejaVuSans-35" transform="translate(63.623047 0)"/>
       <use xlink:href="#DejaVuSans-30" transform="translate(127.246094 0)"/>
       <use xlink:href="#DejaVuSans-30" transform="translate(190.869141 0)"/>
      </g>
     </g>
    </g>
    <g id="ytick_7">
     <g id="line2d_16">
      <g>
       <use xlink:href="#m319aa07c8b" x="39.65" y="19.141637" style="stroke: #000000; stroke-width: 0.8"/>
      </g>
     </g>
     <g id="text_16">
      <!-- 3000 -->
      <g transform="translate(7.2 22.940856) scale(0.1 -0.1)">
       <defs>
        <path id="DejaVuSans-33" d="M 2597 2516 
Q 3050 2419 3304 2112 
Q 3559 1806 3559 1356 
Q 3559 666 3084 287 
Q 2609 -91 1734 -91 
Q 1441 -91 1130 -33 
Q 819 25 488 141 
L 488 750 
Q 750 597 1062 519 
Q 1375 441 1716 441 
Q 2309 441 2620 675 
Q 2931 909 2931 1356 
Q 2931 1769 2642 2001 
Q 2353 2234 1838 2234 
L 1294 2234 
L 1294 2753 
L 1863 2753 
Q 2328 2753 2575 2939 
Q 2822 3125 2822 3475 
Q 2822 3834 2567 4026 
Q 2313 4219 1838 4219 
Q 1578 4219 1281 4162 
Q 984 4106 628 3988 
L 628 4550 
Q 988 4650 1302 4700 
Q 1616 4750 1894 4750 
Q 2613 4750 3031 4423 
Q 3450 4097 3450 3541 
Q 3450 3153 3228 2886 
Q 3006 2619 2597 2516 
z
" transform="scale(0.015625)"/>
       </defs>
       <use xlink:href="#DejaVuSans-33"/>
       <use xlink:href="#DejaVuSans-30" transform="translate(63.623047 0)"/>
       <use xlink:href="#DejaVuSans-30" transform="translate(127.246094 0)"/>
       <use xlink:href="#DejaVuSans-30" transform="translate(190.869141 0)"/>
      </g>
     </g>
    </g>
   </g>
   <g id="line2d_17">
    <path d="M 55.882727 261.216 
L 59.961302 241.043136 
L 64.039877 222.550672 
L 68.118451 205.598631 
L 72.197026 190.058694 
L 76.275601 175.813234 
L 80.354175 162.754421 
L 84.43275 150.783407 
L 88.511325 139.809578 
L 92.589899 129.74987 
L 96.668474 120.528135 
L 100.747049 112.07457 
L 104.825624 104.325188 
L 108.904198 97.221329 
L 112.982773 90.709221 
L 117.061348 84.739573 
L 121.139922 79.267195 
L 125.218497 74.250667 
L 129.297072 69.652016 
L 133.375646 65.436432 
L 137.454221 61.572007 
L 141.532796 58.029488 
L 145.61137 54.782061 
L 149.689945 51.805144 
L 153.76852 49.076205 
L 157.847095 46.574586 
L 161.925669 44.281352 
L 166.004244 42.179145 
L 170.082819 40.252051 
L 174.161393 38.485485 
L 178.239968 36.866073 
L 182.318543 35.381558 
L 186.397117 34.020704 
L 190.475692 32.773208 
L 194.554267 31.629629 
L 198.632841 30.581311 
L 202.711416 29.620317 
L 206.789991 28.739373 
L 210.868566 27.931813 
L 214.94714 27.191522 
L 219.025715 26.512898 
L 223.10429 25.890802 
L 227.182864 25.320528 
L 231.261439 24.797757 
L 235.340014 24.318533 
L 239.418588 23.879229 
L 243.497163 23.476518 
L 247.575738 23.107353 
L 251.654312 22.76894 
L 255.732887 22.458717 
L 259.811462 22.174335 
L 263.890037 21.913642 
L 267.968611 21.674665 
L 272.047186 21.455594 
L 276.125761 21.254773 
L 280.204335 21.070679 
L 284.28291 20.901921 
L 288.361485 20.74722 
L 292.440059 20.605406 
L 296.518634 20.475405 
L 300.597209 20.356233 
L 304.675783 20.246988 
L 308.754358 20.146843 
L 312.832933 20.05504 
L 316.911508 19.970885 
L 320.990082 19.893739 
L 325.068657 19.82302 
L 329.147232 19.758192 
L 333.225806 19.698763 
L 337.304381 19.644286 
L 341.382956 19.594346 
L 345.46153 19.548566 
L 349.540105 19.5066 
L 353.61868 19.468129 
L 357.697254 19.432863 
L 361.775829 19.400535 
L 365.854404 19.3709 
L 369.932979 19.343733 
L 374.011553 19.318829 
L 378.090128 19.296 
" clip-path="url(#p60d99e6780)" style="fill: none; stroke: #1f77b4; stroke-width: 1.5; stroke-linecap: square"/>
   </g>
   <g id="line2d_18">
    <path d="M 55.882727 261.216 
L 59.961302 261.216 
L 64.039877 259.5356 
L 68.118451 256.594901 
L 72.197026 252.732312 
L 76.275601 248.219139 
L 80.354175 243.271665 
L 84.43275 238.061136 
L 88.511325 232.722017 
L 92.589899 227.358809 
L 96.668474 222.051674 
L 100.747049 216.861068 
L 104.825624 211.831554 
L 108.904198 206.994937 
L 112.982773 202.372832 
L 117.061348 197.978773 
L 121.139922 193.819933 
L 125.218497 189.898522 
L 129.297072 186.212933 
L 133.375646 182.758664 
L 137.454221 179.529064 
L 141.532796 176.515932 
L 145.61137 173.709997 
L 149.689945 171.1013 
L 153.76852 168.679496 
L 157.847095 166.434087 
L 161.925669 164.354602 
L 166.004244 162.430741 
L 170.082819 160.652473 
L 174.161393 159.010116 
L 178.239968 157.494385 
L 182.318543 156.09643 
L 186.397117 154.807853 
L 190.475692 153.620723 
L 194.554267 152.527571 
L 198.632841 151.521388 
L 202.711416 150.59561 
L 206.789991 149.744108 
L 210.868566 148.96117 
L 214.94714 148.241477 
L 219.025715 147.580091 
L 223.10429 146.972429 
L 227.182864 146.414243 
L 231.261439 145.901603 
L 235.340014 145.430873 
L 239.418588 144.998695 
L 243.497163 144.601967 
L 247.575738 144.237827 
L 251.654312 143.903638 
L 255.732887 143.596969 
L 259.811462 143.31558 
L 263.890037 143.057409 
L 267.968611 142.82056 
L 272.047186 142.603286 
L 276.125761 142.403984 
L 280.204335 142.221177 
L 284.28291 142.053509 
L 288.361485 141.899733 
L 292.440059 141.758705 
L 296.518634 141.629374 
L 300.597209 141.510773 
L 304.675783 141.402016 
L 308.754358 141.302288 
L 312.832933 141.210843 
L 316.911508 141.126995 
L 320.990082 141.050114 
L 325.068657 140.979623 
L 329.147232 140.914992 
L 333.225806 140.855734 
L 337.304381 140.801405 
L 341.382956 140.751594 
L 345.46153 140.705927 
L 349.540105 140.664059 
L 353.61868 140.625674 
L 357.697254 140.590484 
L 361.775829 140.558222 
L 365.854404 140.528645 
L 369.932979 140.501531 
L 374.011553 140.476673 
L 378.090128 140.453884 
" clip-path="url(#p60d99e6780)" style="fill: none; stroke: #ff7f0e; stroke-width: 1.5; stroke-linecap: square"/>
   </g>
   <g id="line2d_19">
    <path d="M 55.882727 261.216 
L 57.514157 254.437918 
L 60.777017 238.138244 
L 62.408447 231.521545 
L 64.039877 224.097931 
L 65.671307 217.239157 
L 75.459886 179.717631 
L 77.091316 175.602367 
L 78.722746 170.115348 
L 80.354175 163.57934 
L 81.985605 158.173013 
L 83.617035 153.170143 
L 85.248465 150.023176 
L 88.511325 141.469882 
L 90.142755 137.516001 
L 91.774185 133.077971 
L 93.405614 129.366164 
L 95.037044 126.219197 
L 96.668474 123.314305 
L 98.299904 117.907977 
L 99.931334 115.245159 
L 101.562764 113.308564 
L 103.194194 110.242289 
L 104.825624 108.951226 
L 106.457053 105.965642 
L 108.088483 104.19043 
L 111.351343 99.994474 
L 112.982773 94.668838 
L 114.614203 92.893626 
L 116.245633 91.844637 
L 117.877063 89.101128 
L 119.508492 88.536288 
L 121.139922 86.519001 
L 122.771352 83.775492 
L 129.297072 71.106934 
L 130.928502 68.766882 
L 132.559931 68.040658 
L 134.191361 67.798584 
L 135.822791 66.830287 
L 137.454221 66.346138 
L 139.085651 64.490234 
L 140.717081 62.069491 
L 143.979941 58.357684 
L 145.61137 56.743855 
L 147.2428 56.098323 
L 148.87423 54.565186 
L 150.50566 51.579602 
L 152.13709 51.660293 
L 153.76852 51.983059 
L 155.39995 48.916784 
L 157.03138 47.787103 
L 158.66281 48.029178 
L 160.294239 46.092583 
L 161.925669 43.429765 
L 163.557099 43.026308 
L 165.188529 42.380776 
L 166.819959 41.896627 
L 168.451389 42.62285 
L 170.082819 41.573861 
L 171.714249 39.717958 
L 173.345678 38.346203 
L 174.977108 37.458597 
L 176.608538 38.023437 
L 178.239968 37.297214 
L 179.871398 35.360619 
L 181.502828 34.473013 
L 183.134258 34.392322 
L 184.765688 31.729504 
L 186.397117 30.922589 
L 188.028547 31.003281 
L 189.659977 28.74392 
L 191.291407 28.74392 
L 192.922837 28.17908 
L 194.554267 27.775623 
L 196.185697 28.340463 
L 197.817127 26.403868 
L 199.448556 26.161794 
L 201.079986 27.0494 
L 202.711416 28.501846 
L 204.342846 28.582537 
L 205.974276 28.421154 
L 209.237136 26.645942 
L 210.868566 26.968708 
L 212.499995 25.032113 
L 214.131425 25.516262 
L 215.762855 25.677645 
L 217.394285 25.596953 
L 220.657145 23.256901 
L 222.288575 21.643072 
L 225.551434 24.628656 
L 227.182864 26.242485 
L 228.814294 26.726634 
L 230.445724 27.61424 
L 232.077154 27.775623 
L 233.708584 26.403868 
L 235.340014 25.516262 
L 236.971444 26.000411 
L 238.602873 24.87073 
L 240.234303 23.014827 
L 241.865733 25.032113 
L 243.497163 25.919719 
L 245.128593 24.709347 
L 248.391453 24.467273 
L 250.022883 23.579667 
L 251.654312 23.579667 
L 253.285742 23.902433 
L 254.917172 23.902433 
L 256.548602 25.516262 
L 258.180032 24.709347 
L 259.811462 22.530678 
L 261.442892 22.772753 
L 263.074322 24.144507 
L 264.705751 23.983124 
L 266.337181 25.193496 
L 267.968611 26.081102 
L 269.600041 25.354879 
L 271.231471 25.596953 
L 272.862901 22.692061 
L 274.494331 24.30589 
L 276.125761 27.210783 
L 277.75719 26.565251 
L 279.38862 26.484559 
L 281.02005 27.291474 
L 282.65148 26.645942 
L 284.28291 27.452857 
L 285.91434 27.61424 
L 287.54577 26.000411 
L 289.1772 25.677645 
L 290.80863 25.919719 
L 292.440059 25.839028 
L 294.071489 25.919719 
L 295.702919 26.565251 
L 297.334349 27.61424 
L 298.965779 26.888017 
L 300.597209 25.193496 
L 302.228639 26.807325 
L 303.860069 28.663229 
L 305.491498 26.888017 
L 308.754358 25.032113 
L 310.385788 25.193496 
L 312.017218 23.821741 
L 313.648648 24.547965 
L 315.280078 23.983124 
L 316.911508 23.095518 
L 318.542937 24.628656 
L 320.174367 23.418284 
L 321.805797 22.853444 
L 323.437227 23.17621 
L 325.068657 22.046529 
L 326.700087 21.320306 
L 328.331517 21.965838 
L 329.962947 20.271318 
L 331.594376 22.046529 
L 333.225806 20.836158 
L 334.857236 21.804455 
L 336.488666 20.190626 
L 338.120096 21.643072 
L 339.751526 21.804455 
L 341.382956 23.337593 
L 343.014386 24.467273 
L 344.645815 24.144507 
L 346.277245 24.386582 
L 347.908675 26.000411 
L 349.540105 26.161794 
L 351.171535 26.484559 
L 352.802965 27.130091 
L 354.434395 25.758336 
L 356.065825 26.565251 
L 357.697254 25.516262 
L 359.328684 24.30589 
L 360.960114 24.467273 
L 364.222974 25.596953 
L 365.854404 26.323177 
L 367.485834 27.291474 
L 369.117264 26.323177 
L 370.748693 25.677645 
L 372.380123 26.000411 
L 374.011553 23.014827 
L 375.642983 24.709347 
L 377.274413 23.821741 
L 378.905843 21.320306 
L 380.537273 21.320306 
L 380.537273 21.320306 
" clip-path="url(#p60d99e6780)" style="fill: none; stroke: #2ca02c; stroke-width: 1.5; stroke-linecap: square"/>
   </g>
   <g id="line2d_20">
    <path d="M 55.882727 261.216 
L 59.145587 260.893234 
L 60.777017 260.489777 
L 62.408447 259.682862 
L 64.039877 259.279405 
L 67.302736 256.858661 
L 68.934166 255.325524 
L 72.197026 252.824089 
L 73.828456 250.484037 
L 75.459886 248.870207 
L 77.091316 246.368772 
L 78.722746 245.319784 
L 80.354175 244.109412 
L 81.985605 241.930742 
L 83.617035 239.02585 
L 85.248465 237.573404 
L 86.879895 234.58782 
L 88.511325 232.570534 
L 90.142755 230.069099 
L 91.774185 227.164206 
L 93.405614 223.855857 
L 95.037044 222.080645 
L 96.668474 219.659901 
L 98.299904 218.933678 
L 99.931334 215.786711 
L 101.562764 214.172882 
L 103.194194 212.155596 
L 104.825624 209.654161 
L 108.088483 206.023045 
L 109.719913 204.005759 
L 111.351343 202.39193 
L 112.982773 201.585015 
L 114.614203 199.567729 
L 116.245633 196.904911 
L 117.877063 195.855922 
L 119.508492 193.596561 
L 121.139922 191.982732 
L 122.771352 191.740658 
L 124.402782 189.965446 
L 126.034212 188.513 
L 127.665642 187.867468 
L 129.297072 186.979862 
L 130.928502 185.76949 
L 134.191361 180.76662 
L 135.822791 179.0721 
L 137.454221 178.587951 
L 139.085651 177.216196 
L 140.717081 176.32859 
L 143.979941 176.812739 
L 145.61137 176.167207 
L 148.87423 175.279601 
L 150.50566 174.553378 
L 152.13709 173.181623 
L 153.76852 170.115348 
L 155.39995 168.904976 
L 157.03138 169.227742 
L 158.66281 168.340136 
L 160.294239 168.501519 
L 161.925669 168.178753 
L 163.557099 168.824285 
L 166.819959 167.694604 
L 168.451389 166.403541 
L 170.082819 165.515935 
L 173.345678 163.175883 
L 176.608538 159.786842 
L 179.871398 159.706151 
L 183.134258 157.043333 
L 184.765688 157.366098 
L 186.397117 157.204715 
L 188.028547 155.994344 
L 189.659977 155.510195 
L 191.291407 154.380515 
L 192.922837 151.798388 
L 194.554267 152.524611 
L 196.185697 150.830091 
L 197.817127 151.152856 
L 199.448556 149.619719 
L 201.079986 148.974187 
L 202.711416 148.812804 
L 204.342846 147.763815 
L 205.974276 148.651421 
L 207.605706 148.00589 
L 210.868566 144.69754 
L 212.499995 145.100997 
L 214.131425 144.536157 
L 215.762855 144.294083 
L 219.025715 145.82722 
L 220.657145 145.665837 
L 222.288575 146.149986 
L 223.920005 144.536157 
L 225.551434 141.792648 
L 227.182864 141.227807 
L 228.814294 140.25951 
L 230.445724 139.613978 
L 232.077154 140.82435 
L 233.708584 140.743659 
L 235.340014 141.873339 
L 238.602873 141.792648 
L 240.234303 142.760945 
L 243.497163 143.003019 
L 245.128593 142.034722 
L 246.760023 141.550573 
L 248.391453 141.631265 
L 250.022883 140.905042 
L 251.654312 140.420893 
L 253.285742 138.968447 
L 254.917172 138.726372 
L 256.548602 137.677383 
L 258.180032 137.273926 
L 259.811462 137.273926 
L 263.074322 136.709086 
L 264.705751 137.516001 
L 266.337181 136.38632 
L 267.968611 136.305629 
L 269.600041 136.063554 
L 271.231471 135.175948 
L 272.862901 137.354618 
L 274.494331 136.789777 
L 276.125761 137.435309 
L 277.75719 137.273926 
L 279.38862 137.677383 
L 281.02005 139.12983 
L 282.65148 139.049138 
L 284.28291 139.452595 
L 285.91434 139.69467 
L 287.54577 138.968447 
L 289.1772 138.403607 
L 290.80863 138.242224 
L 292.440059 138.968447 
L 294.071489 139.533287 
L 295.702919 138.564989 
L 297.334349 138.080841 
L 298.965779 139.210521 
L 300.597209 138.080841 
L 302.228639 138.968447 
L 303.860069 139.210521 
L 305.491498 138.403607 
L 307.122928 138.645681 
L 308.754358 137.677383 
L 310.385788 137.516001 
L 312.017218 137.031852 
L 313.648648 136.224937 
L 315.280078 137.112543 
L 316.911508 137.354618 
L 318.542937 135.498714 
L 320.174367 136.789777 
L 321.805797 137.273926 
L 323.437227 136.467012 
L 326.700087 138.322915 
L 328.331517 138.968447 
L 329.962947 139.775361 
L 331.594376 139.371904 
L 333.225806 140.098127 
L 334.857236 139.371904 
L 336.488666 140.743659 
L 338.120096 139.533287 
L 339.751526 138.968447 
L 341.382956 140.017436 
L 343.014386 137.919458 
L 344.645815 138.807064 
L 346.277245 138.887755 
L 347.908675 138.484298 
L 349.540105 139.049138 
L 351.171535 138.726372 
L 352.802965 139.049138 
L 354.434395 141.631265 
L 356.065825 140.82435 
L 359.328684 142.599562 
L 360.960114 141.711956 
L 362.591544 141.550573 
L 364.222974 144.294083 
L 365.854404 144.1327 
L 367.485834 143.487168 
L 369.117264 144.778231 
L 370.748693 144.778231 
L 372.380123 144.052008 
L 374.011553 144.1327 
L 377.274413 142.357488 
L 378.905843 144.858923 
L 380.537273 144.374774 
L 380.537273 144.374774 
" clip-path="url(#p60d99e6780)" style="fill: none; stroke: #d62728; stroke-width: 1.5; stroke-linecap: square"/>
   </g>
   <g id="patch_3">
    <path d="M 39.65 273.312 
L 39.65 7.2 
" style="fill: none; stroke: #000000; stroke-width: 0.8; stroke-linejoin: miter; stroke-linecap: square"/>
   </g>
   <g id="patch_4">
    <path d="M 396.77 273.312 
L 396.77 7.2 
" style="fill: none; stroke: #000000; stroke-width: 0.8; stroke-linejoin: miter; stroke-linecap: square"/>
   </g>
   <g id="patch_5">
    <path d="M 39.65 273.312 
L 396.77 273.312 
" style="fill: none; stroke: #000000; stroke-width: 0.8; stroke-linejoin: miter; stroke-linecap: square"/>
   </g>
   <g id="patch_6">
    <path d="M 39.65 7.2 
L 396.77 7.2 
" style="fill: none; stroke: #000000; stroke-width: 0.8; stroke-linejoin: miter; stroke-linecap: square"/>
   </g>
  </g>
 </g>
 <defs>
  <clipPath id="p60d99e6780">
   <rect x="39.65" y="7.2" width="357.12" height="266.112"/>
  </clipPath>
 </defs>
</svg>
