<?xml version="1.0" encoding="utf-8" standalone="no"?>
<!DOCTYPE svg PUBLIC "-//W3C//DTD SVG 1.1//EN"
  "http://www.w3.org/Graphics/SVG/1.1/DTD/svg11.dtd">
<svg xmlns:xlink="http://www.w3.org/1999/xlink" width="403.97pt" height="297.190125pt" viewBox="0 0 403.97 297.190125" xmlns="http://www.w3.org/2000/svg" version="1.1">
 <metadata>
  <rdf:RDF xmlns:dc="http://purl.org/dc/elements/1.1/" xmlns:cc="http://creativecommons.org/ns#" xmlns:rdf="http://www.w3.org/1999/02/22-rdf-syntax-ns#">
   <cc:Work>
    <dc:type rdf:resource="http://purl.org/dc/dcmitype/StillImage"/>
    <dc:date>2024-05-16T03:28:31.643138</dc:date>
    <dc:format>image/svg+xml</dc:format>
    <dc:creator>
     <cc:Agent>
      <dc:title>Matplotlib v3.9.0, https://matplotlib.org/</dc:title>
     </cc:Agent>
    </dc:creator>
   </cc:Work>
  </rdf:RDF>
 </metadata>
 <defs>
  <style type="text/css">*{stroke-linejoin: round; stroke-linecap: butt}</style>
 </defs>
 <g id="figure_1">
  <g id="patch_1">
   <path d="M 0 297.190125 
L 403.97 297.190125 
L 403.97 0 
L 0 0 
z
" style="fill: #ffffff"/>
  </g>
  <g id="axes_1">
   <g id="patch_2">
    <path d="M 39.65 273.312 
L 396.77 273.312 
L 396.77 7.2 
L 39.65 7.2 
z
" style="fill: #ffffff"/>
   </g>
   <g id="matplotlib.axis_1">
    <g id="xtick_1">
     <g id="line2d_1">
      <defs>
       <path id="m8245de0c5e" d="M 0 0 
L 0 3.5 
" style="stroke: #000000; stroke-width: 0.8"/>
      </defs>
      <g>
       <use xlink:href="#m8245de0c5e" x="55.882727" y="273.312" style="stroke: #000000; stroke-width: 0.8"/>
      </g>
     </g>
     <g id="text_1">
      <!-- 0.0 -->
      <g transform="translate(47.931165 287.910437) scale(0.1 -0.1)">
       <defs>
        <path id="DejaVuSans-30" d="M 2034 4250 
Q 1547 4250 1301 3770 
Q 1056 3291 1056 2328 
Q 1056 1369 1301 889 
Q 1547 409 2034 409 
Q 2525 409 2770 889 
Q 3016 1369 3016 2328 
Q 3016 3291 2770 3770 
Q 2525 4250 2034 4250 
z
M 2034 4750 
Q 2819 4750 3233 4129 
Q 3647 3509 3647 2328 
Q 3647 1150 3233 529 
Q 2819 -91 2034 -91 
Q 1250 -91 836 529 
Q 422 1150 422 2328 
Q 422 3509 836 4129 
Q 1250 4750 2034 4750 
z
" transform="scale(0.015625)"/>
        <path id="DejaVuSans-2e" d="M 684 794 
L 1344 794 
L 1344 0 
L 684 0 
L 684 794 
z
" transform="scale(0.015625)"/>
       </defs>
       <use xlink:href="#DejaVuSans-30"/>
       <use xlink:href="#DejaVuSans-2e" x="63.623047"/>
       <use xlink:href="#DejaVuSans-30" x="95.410156"/>
      </g>
     </g>
    </g>
    <g id="xtick_2">
     <g id="line2d_2">
      <g>
       <use xlink:href="#m8245de0c5e" x="96.668474" y="273.312" style="stroke: #000000; stroke-width: 0.8"/>
      </g>
     </g>
     <g id="text_2">
      <!-- 2.5 -->
      <g transform="translate(88.716912 287.910437) scale(0.1 -0.1)">
       <defs>
        <path id="DejaVuSans-32" d="M 1228 531 
L 3431 531 
L 3431 0 
L 469 0 
L 469 531 
Q 828 903 1448 1529 
Q 2069 2156 2228 2338 
Q 2531 2678 2651 2914 
Q 2772 3150 2772 3378 
Q 2772 3750 2511 3984 
Q 2250 4219 1831 4219 
Q 1534 4219 1204 4116 
Q 875 4013 500 3803 
L 500 4441 
Q 881 4594 1212 4672 
Q 1544 4750 1819 4750 
Q 2544 4750 2975 4387 
Q 3406 4025 3406 3419 
Q 3406 3131 3298 2873 
Q 3191 2616 2906 2266 
Q 2828 2175 2409 1742 
Q 1991 1309 1228 531 
z
" transform="scale(0.015625)"/>
        <path id="DejaVuSans-35" d="M 691 4666 
L 3169 4666 
L 3169 4134 
L 1269 4134 
L 1269 2991 
Q 1406 3038 1543 3061 
Q 1681 3084 1819 3084 
Q 2600 3084 3056 2656 
Q 3513 2228 3513 1497 
Q 3513 744 3044 326 
Q 2575 -91 1722 -91 
Q 1428 -91 1123 -41 
Q 819 9 494 109 
L 494 744 
Q 775 591 1075 516 
Q 1375 441 1709 441 
Q 2250 441 2565 725 
Q 2881 1009 2881 1497 
Q 2881 1984 2565 2268 
Q 2250 2553 1709 2553 
Q 1456 2553 1204 2497 
Q 953 2441 691 2322 
L 691 4666 
z
" transform="scale(0.015625)"/>
       </defs>
       <use xlink:href="#DejaVuSans-32"/>
       <use xlink:href="#DejaVuSans-2e" x="63.623047"/>
       <use xlink:href="#DejaVuSans-35" x="95.410156"/>
      </g>
     </g>
    </g>
    <g id="xtick_3">
     <g id="line2d_3">
      <g>
       <use xlink:href="#m8245de0c5e" x="137.454221" y="273.312" style="stroke: #000000; stroke-width: 0.8"/>
      </g>
     </g>
     <g id="text_3">
      <!-- 5.0 -->
      <g transform="translate(129.502659 287.910437) scale(0.1 -0.1)">
       <use xlink:href="#DejaVuSans-35"/>
       <use xlink:href="#DejaVuSans-2e" x="63.623047"/>
       <use xlink:href="#DejaVuSans-30" x="95.410156"/>
      </g>
     </g>
    </g>
    <g id="xtick_4">
     <g id="line2d_4">
      <g>
       <use xlink:href="#m8245de0c5e" x="178.239968" y="273.312" style="stroke: #000000; stroke-width: 0.8"/>
      </g>
     </g>
     <g id="text_4">
      <!-- 7.5 -->
      <g transform="translate(170.288406 287.910437) scale(0.1 -0.1)">
       <defs>
        <path id="DejaVuSans-37" d="M 525 4666 
L 3525 4666 
L 3525 4397 
L 1831 0 
L 1172 0 
L 2766 4134 
L 525 4134 
L 525 4666 
z
" transform="scale(0.015625)"/>
       </defs>
       <use xlink:href="#DejaVuSans-37"/>
       <use xlink:href="#DejaVuSans-2e" x="63.623047"/>
       <use xlink:href="#DejaVuSans-35" x="95.410156"/>
      </g>
     </g>
    </g>
    <g id="xtick_5">
     <g id="line2d_5">
      <g>
       <use xlink:href="#m8245de0c5e" x="219.025715" y="273.312" style="stroke: #000000; stroke-width: 0.8"/>
      </g>
     </g>
     <g id="text_5">
      <!-- 10.0 -->
      <g transform="translate(207.892902 287.910437) scale(0.1 -0.1)">
       <defs>
        <path id="DejaVuSans-31" d="M 794 531 
L 1825 531 
L 1825 4091 
L 703 3866 
L 703 4441 
L 1819 4666 
L 2450 4666 
L 2450 531 
L 3481 531 
L 3481 0 
L 794 0 
L 794 531 
z
" transform="scale(0.015625)"/>
       </defs>
       <use xlink:href="#DejaVuSans-31"/>
       <use xlink:href="#DejaVuSans-30" x="63.623047"/>
       <use xlink:href="#DejaVuSans-2e" x="127.246094"/>
       <use xlink:href="#DejaVuSans-30" x="159.033203"/>
      </g>
     </g>
    </g>
    <g id="xtick_6">
     <g id="line2d_6">
      <g>
       <use xlink:href="#m8245de0c5e" x="259.811462" y="273.312" style="stroke: #000000; stroke-width: 0.8"/>
      </g>
     </g>
     <g id="text_6">
      <!-- 12.5 -->
      <g transform="translate(248.678649 287.910437) scale(0.1 -0.1)">
       <use xlink:href="#DejaVuSans-31"/>
       <use xlink:href="#DejaVuSans-32" x="63.623047"/>
       <use xlink:href="#DejaVuSans-2e" x="127.246094"/>
       <use xlink:href="#DejaVuSans-35" x="159.033203"/>
      </g>
     </g>
    </g>
    <g id="xtick_7">
     <g id="line2d_7">
      <g>
       <use xlink:href="#m8245de0c5e" x="300.597209" y="273.312" style="stroke: #000000; stroke-width: 0.8"/>
      </g>
     </g>
     <g id="text_7">
      <!-- 15.0 -->
      <g transform="translate(289.464396 287.910437) scale(0.1 -0.1)">
       <use xlink:href="#DejaVuSans-31"/>
       <use xlink:href="#DejaVuSans-35" x="63.623047"/>
       <use xlink:href="#DejaVuSans-2e" x="127.246094"/>
       <use xlink:href="#DejaVuSans-30" x="159.033203"/>
      </g>
     </g>
    </g>
    <g id="xtick_8">
     <g id="line2d_8">
      <g>
       <use xlink:href="#m8245de0c5e" x="341.382956" y="273.312" style="stroke: #000000; stroke-width: 0.8"/>
      </g>
     </g>
     <g id="text_8">
      <!-- 17.5 -->
      <g transform="translate(330.250143 287.910437) scale(0.1 -0.1)">
       <use xlink:href="#DejaVuSans-31"/>
       <use xlink:href="#DejaVuSans-37" x="63.623047"/>
       <use xlink:href="#DejaVuSans-2e" x="127.246094"/>
       <use xlink:href="#DejaVuSans-35" x="159.033203"/>
      </g>
     </g>
    </g>
    <g id="xtick_9">
     <g id="line2d_9">
      <g>
       <use xlink:href="#m8245de0c5e" x="382.168703" y="273.312" style="stroke: #000000; stroke-width: 0.8"/>
      </g>
     </g>
     <g id="text_9">
      <!-- 20.0 -->
      <g transform="translate(371.03589 287.910437) scale(0.1 -0.1)">
       <use xlink:href="#DejaVuSans-32"/>
       <use xlink:href="#DejaVuSans-30" x="63.623047"/>
       <use xlink:href="#DejaVuSans-2e" x="127.246094"/>
       <use xlink:href="#DejaVuSans-30" x="159.033203"/>
      </g>
     </g>
    </g>
   </g>
   <g id="matplotlib.axis_2">
    <g id="ytick_1">
     <g id="line2d_10">
      <defs>
       <path id="mc7f582a7aa" d="M 0 0 
L -3.5 0 
" style="stroke: #000000; stroke-width: 0.8"/>
      </defs>
      <g>
       <use xlink:href="#mc7f582a7aa" x="39.65" y="261.216" style="stroke: #000000; stroke-width: 0.8"/>
      </g>
     </g>
     <g id="text_10">
      <!-- 0 -->
      <g transform="translate(26.2875 265.015219) scale(0.1 -0.1)">
       <use xlink:href="#DejaVuSans-30"/>
      </g>
     </g>
    </g>
    <g id="ytick_2">
     <g id="line2d_11">
      <g>
       <use xlink:href="#mc7f582a7aa" x="39.65" y="221.956019" style="stroke: #000000; stroke-width: 0.8"/>
      </g>
     </g>
     <g id="text_11">
      <!-- 500 -->
      <g transform="translate(13.5625 225.755238) scale(0.1 -0.1)">
       <use xlink:href="#DejaVuSans-35"/>
       <use xlink:href="#DejaVuSans-30" x="63.623047"/>
       <use xlink:href="#DejaVuSans-30" x="127.246094"/>
      </g>
     </g>
    </g>
    <g id="ytick_3">
     <g id="line2d_12">
      <g>
       <use xlink:href="#mc7f582a7aa" x="39.65" y="182.696039" style="stroke: #000000; stroke-width: 0.8"/>
      </g>
     </g>
     <g id="text_12">
      <!-- 1000 -->
      <g transform="translate(7.2 186.495258) scale(0.1 -0.1)">
       <use xlink:href="#DejaVuSans-31"/>
       <use xlink:href="#DejaVuSans-30" x="63.623047"/>
       <use xlink:href="#DejaVuSans-30" x="127.246094"/>
       <use xlink:href="#DejaVuSans-30" x="190.869141"/>
      </g>
     </g>
    </g>
    <g id="ytick_4">
     <g id="line2d_13">
      <g>
       <use xlink:href="#mc7f582a7aa" x="39.65" y="143.436058" style="stroke: #000000; stroke-width: 0.8"/>
      </g>
     </g>
     <g id="text_13">
      <!-- 1500 -->
      <g transform="translate(7.2 147.235277) scale(0.1 -0.1)">
       <use xlink:href="#DejaVuSans-31"/>
       <use xlink:href="#DejaVuSans-35" x="63.623047"/>
       <use xlink:href="#DejaVuSans-30" x="127.246094"/>
       <use xlink:href="#DejaVuSans-30" x="190.869141"/>
      </g>
     </g>
    </g>
    <g id="ytick_5">
     <g id="line2d_14">
      <g>
       <use xlink:href="#mc7f582a7aa" x="39.65" y="104.176078" style="stroke: #000000; stroke-width: 0.8"/>
      </g>
     </g>
     <g id="text_14">
      <!-- 2000 -->
      <g transform="translate(7.2 107.975297) scale(0.1 -0.1)">
       <use xlink:href="#DejaVuSans-32"/>
       <use xlink:href="#DejaVuSans-30" x="63.623047"/>
       <use xlink:href="#DejaVuSans-30" x="127.246094"/>
       <use xlink:href="#DejaVuSans-30" x="190.869141"/>
      </g>
     </g>
    </g>
    <g id="ytick_6">
     <g id="line2d_15">
      <g>
       <use xlink:href="#mc7f582a7aa" x="39.65" y="64.916097" style="stroke: #000000; stroke-width: 0.8"/>
      </g>
     </g>
     <g id="text_15">
      <!-- 2500 -->
      <g transform="translate(7.2 68.715316) scale(0.1 -0.1)">
       <use xlink:href="#DejaVuSans-32"/>
       <use xlink:href="#DejaVuSans-35" x="63.623047"/>
       <use xlink:href="#DejaVuSans-30" x="127.246094"/>
       <use xlink:href="#DejaVuSans-30" x="190.869141"/>
      </g>
     </g>
    </g>
    <g id="ytick_7">
     <g id="line2d_16">
      <g>
       <use xlink:href="#mc7f582a7aa" x="39.65" y="25.656117" style="stroke: #000000; stroke-width: 0.8"/>
      </g>
     </g>
     <g id="text_16">
      <!-- 3000 -->
      <g transform="translate(7.2 29.455336) scale(0.1 -0.1)">
       <defs>
        <path id="DejaVuSans-33" d="M 2597 2516 
Q 3050 2419 3304 2112 
Q 3559 1806 3559 1356 
Q 3559 666 3084 287 
Q 2609 -91 1734 -91 
Q 1441 -91 1130 -33 
Q 819 25 488 141 
L 488 750 
Q 750 597 1062 519 
Q 1375 441 1716 441 
Q 2309 441 2620 675 
Q 2931 909 2931 1356 
Q 2931 1769 2642 2001 
Q 2353 2234 1838 2234 
L 1294 2234 
L 1294 2753 
L 1863 2753 
Q 2328 2753 2575 2939 
Q 2822 3125 2822 3475 
Q 2822 3834 2567 4026 
Q 2313 4219 1838 4219 
Q 1578 4219 1281 4162 
Q 984 4106 628 3988 
L 628 4550 
Q 988 4650 1302 4700 
Q 1616 4750 1894 4750 
Q 2613 4750 3031 4423 
Q 3450 4097 3450 3541 
Q 3450 3153 3228 2886 
Q 3006 2619 2597 2516 
z
" transform="scale(0.015625)"/>
       </defs>
       <use xlink:href="#DejaVuSans-33"/>
       <use xlink:href="#DejaVuSans-30" x="63.623047"/>
       <use xlink:href="#DejaVuSans-30" x="127.246094"/>
       <use xlink:href="#DejaVuSans-30" x="190.869141"/>
      </g>
     </g>
    </g>
   </g>
   <g id="line2d_17">
    <path d="M 55.882727 261.216 
L 72.197026 182.696039 
L 88.511325 130.349398 
L 104.825624 95.451638 
L 121.139922 72.186464 
L 137.454221 56.676348 
L 153.76852 46.336271 
L 170.082819 39.442886 
L 186.397117 34.847297 
L 202.711416 31.78357 
L 219.025715 29.741086 
L 235.340014 28.379429 
L 251.654312 27.471659 
L 267.968611 26.866478 
L 284.28291 26.463024 
L 300.597209 26.194055 
L 316.911508 26.014742 
L 333.225806 25.895201 
L 349.540105 25.815506 
L 365.854404 25.762376 
" clip-path="url(#p43edcdd5d9)" style="fill: none; stroke: #1f77b4; stroke-width: 1.5; stroke-linecap: square"/>
   </g>
   <g id="line2d_18">
    <path d="M 55.882727 261.216 
L 72.197026 261.216 
L 88.511325 235.04268 
L 104.825624 208.869359 
L 121.139922 188.512332 
L 137.454221 173.971599 
L 153.76852 163.954649 
L 170.082819 157.168973 
L 186.397117 152.609287 
L 202.711416 149.557528 
L 219.025715 147.519033 
L 235.340014 146.158706 
L 251.654312 145.251378 
L 267.968611 144.646346 
L 284.28291 144.242941 
L 300.597209 143.973988 
L 316.911508 143.794681 
L 333.225806 143.675141 
L 349.540105 143.595447 
L 365.854404 143.542318 
" clip-path="url(#p43edcdd5d9)" style="fill: none; stroke: #ff7f0e; stroke-width: 1.5; stroke-linecap: square"/>
   </g>
   <g id="line2d_19">
    <path d="M 55.882727 261.216 
L 59.145587 247.396487 
L 60.777017 239.780051 
L 62.408447 234.126613 
L 70.565596 200.75563 
L 72.197026 195.023673 
L 73.828456 190.233955 
L 75.459886 184.737558 
L 77.091316 179.86932 
L 78.722746 175.472203 
L 80.354175 169.583205 
L 81.985605 165.029048 
L 83.617035 158.668931 
L 86.879895 148.932456 
L 93.405614 134.013663 
L 95.037044 131.658064 
L 96.668474 128.360226 
L 98.299904 123.256428 
L 99.931334 119.48747 
L 101.562764 114.540713 
L 103.194194 112.263634 
L 104.825624 110.536195 
L 106.457053 108.180596 
L 109.719913 102.762719 
L 111.351343 101.820479 
L 114.614203 96.245562 
L 116.245633 94.989242 
L 117.877063 93.026243 
L 121.139922 90.042485 
L 122.771352 86.901686 
L 124.402782 85.252767 
L 126.034212 83.132728 
L 127.665642 82.033449 
L 129.297072 80.07045 
L 132.559931 77.322251 
L 134.191361 74.731093 
L 137.454221 72.925133 
L 139.085651 71.511774 
L 140.717081 70.569535 
L 142.348511 71.276214 
L 143.979941 69.627295 
L 145.61137 69.705815 
L 147.2428 67.742816 
L 148.87423 64.130898 
L 152.13709 59.73378 
L 153.76852 58.555981 
L 155.39995 56.750021 
L 157.03138 54.080343 
L 158.66281 53.059583 
L 160.294239 53.923303 
L 161.925669 54.551463 
L 163.557099 53.216623 
L 165.188529 51.567704 
L 166.819959 49.604705 
L 168.451389 49.055065 
L 170.082819 50.939544 
L 171.714249 49.526185 
L 173.345678 50.232865 
L 174.977108 48.426906 
L 176.608538 48.819505 
L 178.239968 48.034306 
L 179.871398 44.814987 
L 181.502828 44.186828 
L 183.134258 42.066789 
L 184.765688 40.810469 
L 186.397117 41.517149 
L 188.028547 40.496389 
L 189.659977 40.18231 
L 191.291407 40.574909 
L 192.922837 39.39711 
L 194.554267 40.18231 
L 196.185697 40.496389 
L 197.817127 41.752709 
L 199.448556 40.33935 
L 201.079986 40.653429 
L 202.711416 41.438629 
L 204.342846 40.653429 
L 205.974276 40.26083 
L 207.605706 37.669671 
L 209.237136 36.177792 
L 210.868566 35.863712 
L 212.499995 36.177792 
L 214.131425 35.863712 
L 215.762855 35.157032 
L 217.394285 34.607392 
L 220.657145 37.355591 
L 222.288575 34.607392 
L 223.920005 36.020752 
L 225.551434 35.235552 
L 227.182864 34.293313 
L 228.814294 34.764432 
L 230.445724 34.999992 
L 232.077154 36.334832 
L 233.708584 38.062271 
L 235.340014 36.570391 
L 238.602873 35.392592 
L 240.234303 36.413352 
L 241.865733 34.764432 
L 243.497163 35.314072 
L 245.128593 34.528872 
L 246.760023 35.471112 
L 248.391453 36.177792 
L 250.022883 36.099272 
L 251.654312 35.314072 
L 254.917172 33.429593 
L 256.548602 33.115513 
L 258.180032 33.979233 
L 259.811462 32.330314 
L 261.442892 30.916954 
L 263.074322 30.288795 
L 264.705751 30.131755 
L 266.337181 27.933196 
L 269.600041 27.697636 
L 271.231471 27.305036 
L 272.862901 27.933196 
L 274.494331 28.404315 
L 276.125761 27.933196 
L 277.75719 29.425075 
L 279.38862 29.582115 
L 281.02005 31.309554 
L 282.65148 30.288795 
L 284.28291 30.367315 
L 285.91434 29.503595 
L 287.54577 29.817675 
L 289.1772 30.602874 
L 290.80863 28.482835 
L 292.440059 27.619116 
L 294.071489 27.147996 
L 295.702919 26.990956 
L 297.334349 27.069476 
L 298.965779 28.796915 
L 300.597209 29.974715 
L 302.228639 29.582115 
L 303.860069 28.090236 
L 305.491498 28.482835 
L 307.122928 29.189515 
L 310.385788 28.561355 
L 312.017218 26.990956 
L 313.648648 27.147996 
L 315.280078 25.184997 
L 316.911508 25.342037 
L 318.542937 25.184997 
L 320.174367 24.242758 
L 321.805797 24.242758 
L 323.437227 24.556837 
L 325.068657 23.850158 
L 326.700087 24.713877 
L 328.331517 25.027957 
L 329.962947 24.870917 
L 331.594376 25.106477 
L 333.225806 26.205757 
L 334.857236 26.441316 
L 336.488666 26.127237 
L 338.120096 26.676876 
L 339.751526 26.441316 
L 341.382956 25.027957 
L 343.014386 25.813157 
L 344.645815 26.441316 
L 346.277245 24.556837 
L 347.908675 23.064958 
L 349.540105 22.829398 
L 351.171535 21.808639 
L 352.802965 21.416039 
L 354.434395 22.436798 
L 356.065825 19.92416 
L 357.697254 19.84564 
L 359.328684 19.296 
L 362.591544 20.473799 
L 364.222974 22.593838 
L 365.854404 22.436798 
L 367.485834 22.044199 
L 369.117264 23.064958 
L 370.748693 21.887159 
L 372.380123 21.573079 
L 374.011553 20.395279 
L 375.642983 21.965679 
L 377.274413 23.771638 
L 378.905843 23.143478 
L 380.537273 21.651599 
L 380.537273 21.651599 
" clip-path="url(#p43edcdd5d9)" style="fill: none; stroke: #2ca02c; stroke-width: 1.5; stroke-linecap: square"/>
   </g>
   <g id="line2d_20">
    <path d="M 55.882727 261.216 
L 59.145587 260.98044 
L 60.777017 260.35228 
L 64.039877 258.467801 
L 65.671307 257.054442 
L 67.302736 256.190722 
L 68.934166 254.541803 
L 70.565596 253.835124 
L 72.197026 252.264724 
L 75.459886 248.024647 
L 77.091316 246.611287 
L 78.722746 244.648288 
L 80.354175 243.156409 
L 81.985605 241.19341 
L 83.617035 241.42897 
L 88.511325 236.011093 
L 91.774185 231.064335 
L 96.668474 222.270099 
L 98.299904 220.62118 
L 101.562764 218.736701 
L 104.825624 213.711424 
L 106.457053 212.376584 
L 108.088483 210.649145 
L 109.719913 209.706906 
L 111.351343 207.665387 
L 112.982773 204.838668 
L 114.614203 202.954189 
L 116.245633 200.20599 
L 117.877063 199.028191 
L 119.508492 198.007431 
L 121.139922 196.279992 
L 122.771352 193.531794 
L 126.034212 190.390995 
L 127.665642 189.134676 
L 129.297072 187.250197 
L 130.928502 187.799836 
L 132.559931 185.836837 
L 134.191361 185.051638 
L 135.822791 185.051638 
L 137.454221 183.481239 
L 139.085651 181.675279 
L 140.717081 178.927081 
L 142.348511 177.278162 
L 143.979941 177.435202 
L 145.61137 174.765523 
L 147.2428 175.236643 
L 148.87423 175.158123 
L 150.50566 175.315163 
L 152.13709 174.687003 
L 155.39995 171.703244 
L 157.03138 171.153605 
L 158.66281 168.326886 
L 160.294239 166.677967 
L 161.925669 165.892767 
L 163.557099 167.855766 
L 165.188529 167.855766 
L 166.819959 167.541686 
L 168.451389 168.169846 
L 170.082819 166.285367 
L 171.714249 165.578687 
L 173.345678 164.165328 
L 174.977108 163.537168 
L 176.608538 162.280849 
L 178.239968 161.966769 
L 179.871398 162.909009 
L 181.502828 162.280849 
L 183.134258 163.301609 
L 184.765688 162.909009 
L 186.397117 160.47489 
L 188.028547 159.53265 
L 189.659977 158.276331 
L 191.291407 158.119291 
L 192.922837 157.412611 
L 194.554267 156.862972 
L 196.185697 157.020012 
L 197.817127 155.214053 
L 199.448556 154.978493 
L 201.079986 153.957733 
L 202.711416 151.445094 
L 204.342846 151.445094 
L 205.974276 151.994734 
L 207.605706 151.916214 
L 209.237136 152.701414 
L 210.868566 151.288055 
L 212.499995 149.560615 
L 214.131425 149.796175 
L 217.394285 150.031735 
L 219.025715 150.267295 
L 220.657145 148.461336 
L 222.288575 150.188775 
L 223.920005 149.796175 
L 225.551434 149.874695 
L 227.182864 150.345815 
L 228.814294 152.151774 
L 230.445724 152.701414 
L 232.077154 149.874695 
L 233.708584 147.990216 
L 235.340014 146.498337 
L 236.971444 146.105737 
L 238.602873 146.812417 
L 240.234303 146.969457 
L 241.865733 148.539856 
L 243.497163 149.796175 
L 245.128593 148.932456 
L 246.760023 146.341297 
L 248.391453 144.692378 
L 250.022883 145.870177 
L 251.654312 146.419817 
L 253.285742 148.932456 
L 254.917172 150.659895 
L 256.548602 150.502855 
L 258.180032 147.990216 
L 259.811462 147.990216 
L 263.074322 149.168016 
L 266.337181 148.539856 
L 269.600041 146.576857 
L 271.231471 147.205017 
L 272.862901 146.890937 
L 274.494331 147.205017 
L 277.75719 146.812417 
L 279.38862 146.105737 
L 281.02005 143.514578 
L 284.28291 143.514578 
L 285.91434 145.791657 
L 287.54577 145.163498 
L 290.80863 145.634617 
L 292.440059 146.733897 
L 294.071489 146.890937 
L 295.702919 146.733897 
L 297.334349 147.597616 
L 298.965779 146.812417 
L 300.597209 145.634617 
L 302.228639 146.341297 
L 303.860069 146.576857 
L 305.491498 145.713137 
L 307.122928 146.812417 
L 308.754358 145.634617 
L 310.385788 145.556097 
L 313.648648 146.419817 
L 315.280078 147.283537 
L 316.911508 146.969457 
L 318.542937 146.341297 
L 320.174367 147.126497 
L 321.805797 147.597616 
L 323.437227 146.576857 
L 325.068657 145.870177 
L 326.700087 145.477577 
L 328.331517 145.870177 
L 329.962947 145.870177 
L 331.594376 146.812417 
L 333.225806 147.283537 
L 334.857236 146.890937 
L 336.488666 147.440576 
L 338.120096 147.597616 
L 339.751526 146.341297 
L 341.382956 147.362056 
L 343.014386 147.990216 
L 344.645815 146.890937 
L 346.277245 147.754656 
L 347.908675 147.597616 
L 349.540105 146.105737 
L 351.171535 145.006458 
L 352.802965 145.477577 
L 354.434395 144.535338 
L 356.065825 147.126497 
L 357.697254 147.754656 
L 359.328684 147.833176 
L 360.960114 148.147256 
L 362.591544 147.597616 
L 364.222974 146.419817 
L 365.854404 145.556097 
L 367.485834 146.105737 
L 369.117264 145.791657 
L 370.748693 146.262777 
L 372.380123 146.105737 
L 374.011553 145.320537 
L 375.642983 143.514578 
L 377.274413 142.101219 
L 378.905843 142.179739 
L 380.537273 144.221258 
L 380.537273 144.221258 
" clip-path="url(#p43edcdd5d9)" style="fill: none; stroke: #d62728; stroke-width: 1.5; stroke-linecap: square"/>
   </g>
   <g id="patch_3">
    <path d="M 39.65 273.312 
L 39.65 7.2 
" style="fill: none; stroke: #000000; stroke-width: 0.8; stroke-linejoin: miter; stroke-linecap: square"/>
   </g>
   <g id="patch_4">
    <path d="M 396.77 273.312 
L 396.77 7.2 
" style="fill: none; stroke: #000000; stroke-width: 0.8; stroke-linejoin: miter; stroke-linecap: square"/>
   </g>
   <g id="patch_5">
    <path d="M 39.65 273.312 
L 396.77 273.312 
" style="fill: none; stroke: #000000; stroke-width: 0.8; stroke-linejoin: miter; stroke-linecap: square"/>
   </g>
   <g id="patch_6">
    <path d="M 39.65 7.2 
L 396.77 7.2 
" style="fill: none; stroke: #000000; stroke-width: 0.8; stroke-linejoin: miter; stroke-linecap: square"/>
   </g>
  </g>
 </g>
 <defs>
  <clipPath id="p43edcdd5d9">
   <rect x="39.65" y="7.2" width="357.12" height="266.112"/>
  </clipPath>
 </defs>
</svg>
