<?xml version="1.0" encoding="utf-8" standalone="no"?>
<!DOCTYPE svg PUBLIC "-//W3C//DTD SVG 1.1//EN"
  "http://www.w3.org/Graphics/SVG/1.1/DTD/svg11.dtd">
<!-- Created with matplotlib (https://matplotlib.org/) -->
<svg height="297.190125pt" version="1.1" viewBox="0 0 397.6075 297.190125" width="397.6075pt" xmlns="http://www.w3.org/2000/svg" xmlns:xlink="http://www.w3.org/1999/xlink">
 <metadata>
  <rdf:RDF xmlns:cc="http://creativecommons.org/ns#" xmlns:dc="http://purl.org/dc/elements/1.1/" xmlns:rdf="http://www.w3.org/1999/02/22-rdf-syntax-ns#">
   <cc:Work>
    <dc:type rdf:resource="http://purl.org/dc/dcmitype/StillImage"/>
    <dc:date>2020-11-10T04:04:39.819491</dc:date>
    <dc:format>image/svg+xml</dc:format>
    <dc:creator>
     <cc:Agent>
      <dc:title>Matplotlib v3.3.2, https://matplotlib.org/</dc:title>
     </cc:Agent>
    </dc:creator>
   </cc:Work>
  </rdf:RDF>
 </metadata>
 <defs>
  <style type="text/css">*{stroke-linecap:butt;stroke-linejoin:round;}</style>
 </defs>
 <g id="figure_1">
  <g id="patch_1">
   <path d="M 0 297.190125 
L 397.6075 297.190125 
L 397.6075 0 
L 0 0 
z
" style="fill:#ffffff;"/>
  </g>
  <g id="axes_1">
   <g id="patch_2">
    <path d="M 33.2875 273.312 
L 390.4075 273.312 
L 390.4075 7.2 
L 33.2875 7.2 
z
" style="fill:#ffffff;"/>
   </g>
   <g id="matplotlib.axis_1">
    <g id="xtick_1">
     <g id="line2d_1">
      <defs>
       <path d="M 0 0 
L 0 3.5 
" id="m7d3c9ea16d" style="stroke:#000000;stroke-width:0.8;"/>
      </defs>
      <g>
       <use style="stroke:#000000;stroke-width:0.8;" x="49.520227" xlink:href="#m7d3c9ea16d" y="273.312"/>
      </g>
     </g>
     <g id="text_1">
      <!-- 0.0 -->
      <g transform="translate(41.568665 287.910437)scale(0.1 -0.1)">
       <defs>
        <path d="M 31.78125 66.40625 
Q 24.171875 66.40625 20.328125 58.90625 
Q 16.5 51.421875 16.5 36.375 
Q 16.5 21.390625 20.328125 13.890625 
Q 24.171875 6.390625 31.78125 6.390625 
Q 39.453125 6.390625 43.28125 13.890625 
Q 47.125 21.390625 47.125 36.375 
Q 47.125 51.421875 43.28125 58.90625 
Q 39.453125 66.40625 31.78125 66.40625 
z
M 31.78125 74.21875 
Q 44.046875 74.21875 50.515625 64.515625 
Q 56.984375 54.828125 56.984375 36.375 
Q 56.984375 17.96875 50.515625 8.265625 
Q 44.046875 -1.421875 31.78125 -1.421875 
Q 19.53125 -1.421875 13.0625 8.265625 
Q 6.59375 17.96875 6.59375 36.375 
Q 6.59375 54.828125 13.0625 64.515625 
Q 19.53125 74.21875 31.78125 74.21875 
z
" id="DejaVuSans-48"/>
        <path d="M 10.6875 12.40625 
L 21 12.40625 
L 21 0 
L 10.6875 0 
z
" id="DejaVuSans-46"/>
       </defs>
       <use xlink:href="#DejaVuSans-48"/>
       <use x="63.623047" xlink:href="#DejaVuSans-46"/>
       <use x="95.410156" xlink:href="#DejaVuSans-48"/>
      </g>
     </g>
    </g>
    <g id="xtick_2">
     <g id="line2d_2">
      <g>
       <use style="stroke:#000000;stroke-width:0.8;" x="90.305974" xlink:href="#m7d3c9ea16d" y="273.312"/>
      </g>
     </g>
     <g id="text_2">
      <!-- 2.5 -->
      <g transform="translate(82.354412 287.910437)scale(0.1 -0.1)">
       <defs>
        <path d="M 19.1875 8.296875 
L 53.609375 8.296875 
L 53.609375 0 
L 7.328125 0 
L 7.328125 8.296875 
Q 12.9375 14.109375 22.625 23.890625 
Q 32.328125 33.6875 34.8125 36.53125 
Q 39.546875 41.84375 41.421875 45.53125 
Q 43.3125 49.21875 43.3125 52.78125 
Q 43.3125 58.59375 39.234375 62.25 
Q 35.15625 65.921875 28.609375 65.921875 
Q 23.96875 65.921875 18.8125 64.3125 
Q 13.671875 62.703125 7.8125 59.421875 
L 7.8125 69.390625 
Q 13.765625 71.78125 18.9375 73 
Q 24.125 74.21875 28.421875 74.21875 
Q 39.75 74.21875 46.484375 68.546875 
Q 53.21875 62.890625 53.21875 53.421875 
Q 53.21875 48.921875 51.53125 44.890625 
Q 49.859375 40.875 45.40625 35.40625 
Q 44.1875 33.984375 37.640625 27.21875 
Q 31.109375 20.453125 19.1875 8.296875 
z
" id="DejaVuSans-50"/>
        <path d="M 10.796875 72.90625 
L 49.515625 72.90625 
L 49.515625 64.59375 
L 19.828125 64.59375 
L 19.828125 46.734375 
Q 21.96875 47.46875 24.109375 47.828125 
Q 26.265625 48.1875 28.421875 48.1875 
Q 40.625 48.1875 47.75 41.5 
Q 54.890625 34.8125 54.890625 23.390625 
Q 54.890625 11.625 47.5625 5.09375 
Q 40.234375 -1.421875 26.90625 -1.421875 
Q 22.3125 -1.421875 17.546875 -0.640625 
Q 12.796875 0.140625 7.71875 1.703125 
L 7.71875 11.625 
Q 12.109375 9.234375 16.796875 8.0625 
Q 21.484375 6.890625 26.703125 6.890625 
Q 35.15625 6.890625 40.078125 11.328125 
Q 45.015625 15.765625 45.015625 23.390625 
Q 45.015625 31 40.078125 35.4375 
Q 35.15625 39.890625 26.703125 39.890625 
Q 22.75 39.890625 18.8125 39.015625 
Q 14.890625 38.140625 10.796875 36.28125 
z
" id="DejaVuSans-53"/>
       </defs>
       <use xlink:href="#DejaVuSans-50"/>
       <use x="63.623047" xlink:href="#DejaVuSans-46"/>
       <use x="95.410156" xlink:href="#DejaVuSans-53"/>
      </g>
     </g>
    </g>
    <g id="xtick_3">
     <g id="line2d_3">
      <g>
       <use style="stroke:#000000;stroke-width:0.8;" x="131.091721" xlink:href="#m7d3c9ea16d" y="273.312"/>
      </g>
     </g>
     <g id="text_3">
      <!-- 5.0 -->
      <g transform="translate(123.140159 287.910437)scale(0.1 -0.1)">
       <use xlink:href="#DejaVuSans-53"/>
       <use x="63.623047" xlink:href="#DejaVuSans-46"/>
       <use x="95.410156" xlink:href="#DejaVuSans-48"/>
      </g>
     </g>
    </g>
    <g id="xtick_4">
     <g id="line2d_4">
      <g>
       <use style="stroke:#000000;stroke-width:0.8;" x="171.877468" xlink:href="#m7d3c9ea16d" y="273.312"/>
      </g>
     </g>
     <g id="text_4">
      <!-- 7.5 -->
      <g transform="translate(163.925906 287.910437)scale(0.1 -0.1)">
       <defs>
        <path d="M 8.203125 72.90625 
L 55.078125 72.90625 
L 55.078125 68.703125 
L 28.609375 0 
L 18.3125 0 
L 43.21875 64.59375 
L 8.203125 64.59375 
z
" id="DejaVuSans-55"/>
       </defs>
       <use xlink:href="#DejaVuSans-55"/>
       <use x="63.623047" xlink:href="#DejaVuSans-46"/>
       <use x="95.410156" xlink:href="#DejaVuSans-53"/>
      </g>
     </g>
    </g>
    <g id="xtick_5">
     <g id="line2d_5">
      <g>
       <use style="stroke:#000000;stroke-width:0.8;" x="212.663215" xlink:href="#m7d3c9ea16d" y="273.312"/>
      </g>
     </g>
     <g id="text_5">
      <!-- 10.0 -->
      <g transform="translate(201.530402 287.910437)scale(0.1 -0.1)">
       <defs>
        <path d="M 12.40625 8.296875 
L 28.515625 8.296875 
L 28.515625 63.921875 
L 10.984375 60.40625 
L 10.984375 69.390625 
L 28.421875 72.90625 
L 38.28125 72.90625 
L 38.28125 8.296875 
L 54.390625 8.296875 
L 54.390625 0 
L 12.40625 0 
z
" id="DejaVuSans-49"/>
       </defs>
       <use xlink:href="#DejaVuSans-49"/>
       <use x="63.623047" xlink:href="#DejaVuSans-48"/>
       <use x="127.246094" xlink:href="#DejaVuSans-46"/>
       <use x="159.033203" xlink:href="#DejaVuSans-48"/>
      </g>
     </g>
    </g>
    <g id="xtick_6">
     <g id="line2d_6">
      <g>
       <use style="stroke:#000000;stroke-width:0.8;" x="253.448962" xlink:href="#m7d3c9ea16d" y="273.312"/>
      </g>
     </g>
     <g id="text_6">
      <!-- 12.5 -->
      <g transform="translate(242.316149 287.910437)scale(0.1 -0.1)">
       <use xlink:href="#DejaVuSans-49"/>
       <use x="63.623047" xlink:href="#DejaVuSans-50"/>
       <use x="127.246094" xlink:href="#DejaVuSans-46"/>
       <use x="159.033203" xlink:href="#DejaVuSans-53"/>
      </g>
     </g>
    </g>
    <g id="xtick_7">
     <g id="line2d_7">
      <g>
       <use style="stroke:#000000;stroke-width:0.8;" x="294.234709" xlink:href="#m7d3c9ea16d" y="273.312"/>
      </g>
     </g>
     <g id="text_7">
      <!-- 15.0 -->
      <g transform="translate(283.101896 287.910437)scale(0.1 -0.1)">
       <use xlink:href="#DejaVuSans-49"/>
       <use x="63.623047" xlink:href="#DejaVuSans-53"/>
       <use x="127.246094" xlink:href="#DejaVuSans-46"/>
       <use x="159.033203" xlink:href="#DejaVuSans-48"/>
      </g>
     </g>
    </g>
    <g id="xtick_8">
     <g id="line2d_8">
      <g>
       <use style="stroke:#000000;stroke-width:0.8;" x="335.020456" xlink:href="#m7d3c9ea16d" y="273.312"/>
      </g>
     </g>
     <g id="text_8">
      <!-- 17.5 -->
      <g transform="translate(323.887643 287.910437)scale(0.1 -0.1)">
       <use xlink:href="#DejaVuSans-49"/>
       <use x="63.623047" xlink:href="#DejaVuSans-55"/>
       <use x="127.246094" xlink:href="#DejaVuSans-46"/>
       <use x="159.033203" xlink:href="#DejaVuSans-53"/>
      </g>
     </g>
    </g>
    <g id="xtick_9">
     <g id="line2d_9">
      <g>
       <use style="stroke:#000000;stroke-width:0.8;" x="375.806203" xlink:href="#m7d3c9ea16d" y="273.312"/>
      </g>
     </g>
     <g id="text_9">
      <!-- 20.0 -->
      <g transform="translate(364.67339 287.910437)scale(0.1 -0.1)">
       <use xlink:href="#DejaVuSans-50"/>
       <use x="63.623047" xlink:href="#DejaVuSans-48"/>
       <use x="127.246094" xlink:href="#DejaVuSans-46"/>
       <use x="159.033203" xlink:href="#DejaVuSans-48"/>
      </g>
     </g>
    </g>
   </g>
   <g id="matplotlib.axis_2">
    <g id="ytick_1">
     <g id="line2d_10">
      <defs>
       <path d="M 0 0 
L -3.5 0 
" id="m0fd3a469f4" style="stroke:#000000;stroke-width:0.8;"/>
      </defs>
      <g>
       <use style="stroke:#000000;stroke-width:0.8;" x="33.2875" xlink:href="#m0fd3a469f4" y="261.216"/>
      </g>
     </g>
     <g id="text_10">
      <!-- 0 -->
      <g transform="translate(19.925 265.015219)scale(0.1 -0.1)">
       <use xlink:href="#DejaVuSans-48"/>
      </g>
     </g>
    </g>
    <g id="ytick_2">
     <g id="line2d_11">
      <g>
       <use style="stroke:#000000;stroke-width:0.8;" x="33.2875" xlink:href="#m0fd3a469f4" y="218.473951"/>
      </g>
     </g>
     <g id="text_11">
      <!-- 50 -->
      <g transform="translate(13.5625 222.273169)scale(0.1 -0.1)">
       <use xlink:href="#DejaVuSans-53"/>
       <use x="63.623047" xlink:href="#DejaVuSans-48"/>
      </g>
     </g>
    </g>
    <g id="ytick_3">
     <g id="line2d_12">
      <g>
       <use style="stroke:#000000;stroke-width:0.8;" x="33.2875" xlink:href="#m0fd3a469f4" y="175.731901"/>
      </g>
     </g>
     <g id="text_12">
      <!-- 100 -->
      <g transform="translate(7.2 179.53112)scale(0.1 -0.1)">
       <use xlink:href="#DejaVuSans-49"/>
       <use x="63.623047" xlink:href="#DejaVuSans-48"/>
       <use x="127.246094" xlink:href="#DejaVuSans-48"/>
      </g>
     </g>
    </g>
    <g id="ytick_4">
     <g id="line2d_13">
      <g>
       <use style="stroke:#000000;stroke-width:0.8;" x="33.2875" xlink:href="#m0fd3a469f4" y="132.989852"/>
      </g>
     </g>
     <g id="text_13">
      <!-- 150 -->
      <g transform="translate(7.2 136.78907)scale(0.1 -0.1)">
       <use xlink:href="#DejaVuSans-49"/>
       <use x="63.623047" xlink:href="#DejaVuSans-53"/>
       <use x="127.246094" xlink:href="#DejaVuSans-48"/>
      </g>
     </g>
    </g>
    <g id="ytick_5">
     <g id="line2d_14">
      <g>
       <use style="stroke:#000000;stroke-width:0.8;" x="33.2875" xlink:href="#m0fd3a469f4" y="90.247802"/>
      </g>
     </g>
     <g id="text_14">
      <!-- 200 -->
      <g transform="translate(7.2 94.047021)scale(0.1 -0.1)">
       <use xlink:href="#DejaVuSans-50"/>
       <use x="63.623047" xlink:href="#DejaVuSans-48"/>
       <use x="127.246094" xlink:href="#DejaVuSans-48"/>
      </g>
     </g>
    </g>
    <g id="ytick_6">
     <g id="line2d_15">
      <g>
       <use style="stroke:#000000;stroke-width:0.8;" x="33.2875" xlink:href="#m0fd3a469f4" y="47.505753"/>
      </g>
     </g>
     <g id="text_15">
      <!-- 250 -->
      <g transform="translate(7.2 51.304971)scale(0.1 -0.1)">
       <use xlink:href="#DejaVuSans-50"/>
       <use x="63.623047" xlink:href="#DejaVuSans-53"/>
       <use x="127.246094" xlink:href="#DejaVuSans-48"/>
      </g>
     </g>
    </g>
   </g>
   <g id="line2d_16">
    <path clip-path="url(#pdb976ac961)" d="M 49.520227 261.216 
L 51.151657 187.699675 
L 52.783087 142.393102 
L 54.414517 105.63494 
L 56.045947 74.005823 
L 57.677377 62.038049 
L 59.308807 39.812184 
L 60.940236 34.683138 
L 62.571666 31.263774 
L 64.203096 43.231548 
L 65.834526 44.94123 
L 67.465956 41.521866 
L 69.097386 47.505753 
L 70.728816 36.39282 
L 72.360246 29.554092 
L 73.991675 44.94123 
L 75.623105 48.360594 
L 77.254535 64.602572 
L 78.885965 49.215435 
L 80.517395 56.909004 
L 82.148825 52.634799 
L 83.780255 44.94123 
L 85.411685 59.473527 
L 87.043114 50.925117 
L 88.674544 56.909004 
L 90.305974 69.731618 
L 91.937404 66.312254 
L 93.568834 65.457413 
L 95.200264 65.457413 
L 96.831694 50.070276 
L 98.463124 44.086389 
L 100.094553 59.473527 
L 101.725983 40.667025 
L 103.357413 41.521866 
L 106.620273 44.94123 
L 108.251703 42.376707 
L 109.883133 36.39282 
L 111.514563 37.247661 
L 113.145992 38.957343 
L 114.777422 48.360594 
L 116.408852 48.360594 
L 118.040282 51.779958 
L 119.671712 50.070276 
L 121.303142 50.070276 
L 122.934572 60.328367 
L 124.566002 49.215435 
L 126.197431 43.231548 
L 127.828861 36.39282 
L 129.460291 44.086389 
L 131.091721 49.215435 
L 132.723151 50.925117 
L 135.986011 61.183208 
L 137.617441 50.070276 
L 139.24887 49.215435 
L 140.8803 44.94123 
L 142.51173 48.360594 
L 144.14316 38.957343 
L 145.77459 44.086389 
L 147.40602 43.231548 
L 149.03745 43.231548 
L 150.66888 44.086389 
L 152.30031 49.215435 
L 153.931739 50.925117 
L 155.563169 55.199322 
L 157.194599 55.199322 
L 158.826029 48.360594 
L 160.457459 64.602572 
L 162.088889 53.48964 
L 163.720319 55.199322 
L 165.351749 46.650912 
L 166.983178 55.199322 
L 168.614608 47.505753 
L 170.246038 35.537979 
L 171.877468 41.521866 
L 173.508898 48.360594 
L 175.140328 58.618686 
L 176.771758 58.618686 
L 178.403188 68.876777 
L 180.034617 66.312254 
L 181.666047 55.199322 
L 183.297477 56.054163 
L 184.928907 68.021936 
L 186.560337 61.183208 
L 188.191767 63.747731 
L 189.823197 52.634799 
L 191.454627 44.086389 
L 193.086056 29.554092 
L 194.717486 39.812184 
L 196.348916 38.102502 
L 197.980346 47.505753 
L 199.611776 46.650912 
L 201.243206 55.199322 
L 202.874636 50.925117 
L 204.506066 53.48964 
L 206.137495 61.183208 
L 207.768925 56.054163 
L 209.400355 53.48964 
L 211.031785 53.48964 
L 212.663215 47.505753 
L 214.294645 42.376707 
L 215.926075 55.199322 
L 217.557505 57.763845 
L 219.188934 56.909004 
L 220.820364 61.183208 
L 222.451794 50.925117 
L 224.083224 50.925117 
L 225.714654 49.215435 
L 227.346084 50.925117 
L 228.977514 54.344481 
L 230.608944 48.360594 
L 232.240373 50.070276 
L 233.871803 49.215435 
L 235.503233 56.054163 
L 237.134663 57.763845 
L 238.766093 46.650912 
L 240.397523 53.48964 
L 242.028953 57.763845 
L 243.660383 53.48964 
L 245.291812 56.054163 
L 246.923242 51.779958 
L 248.554672 44.94123 
L 250.186102 22.715364 
L 251.817532 23.570205 
L 253.448962 38.102502 
L 255.080392 38.957343 
L 256.711822 54.344481 
L 258.343251 58.618686 
L 259.974681 55.199322 
L 261.606111 53.48964 
L 264.868971 63.747731 
L 266.500401 72.296141 
L 268.131831 75.715505 
L 269.763261 68.021936 
L 271.39469 50.925117 
L 273.02612 53.48964 
L 274.65755 46.650912 
L 276.28898 50.070276 
L 277.92041 61.183208 
L 279.55184 44.086389 
L 281.18327 41.521866 
L 282.8147 42.376707 
L 284.44613 39.812184 
L 286.077559 56.909004 
L 287.708989 62.038049 
L 289.340419 61.183208 
L 290.971849 44.94123 
L 292.603279 39.812184 
L 294.234709 38.957343 
L 295.866139 50.070276 
L 297.497569 54.344481 
L 299.128998 61.183208 
L 300.760428 71.4413 
L 302.391858 79.134869 
L 304.023288 62.89289 
L 305.654718 49.215435 
L 307.286148 52.634799 
L 308.917578 58.618686 
L 310.549008 48.360594 
L 312.180437 47.505753 
L 313.811867 40.667025 
L 315.443297 25.279887 
L 317.074727 26.134728 
L 318.706157 31.263774 
L 320.337587 33.828297 
L 321.969017 34.683138 
L 323.600447 41.521866 
L 325.231876 33.828297 
L 326.863306 36.39282 
L 328.494736 52.634799 
L 330.126166 45.796071 
L 331.757596 45.796071 
L 335.020456 50.925117 
L 336.651886 56.054163 
L 338.283315 60.328367 
L 339.914745 48.360594 
L 341.546175 52.634799 
L 343.177605 49.215435 
L 344.809035 55.199322 
L 346.440465 57.763845 
L 348.071895 62.038049 
L 349.703325 53.48964 
L 351.334754 56.909004 
L 352.966184 49.215435 
L 354.597614 60.328367 
L 356.229044 62.038049 
L 357.860474 46.650912 
L 359.491904 40.667025 
L 361.123334 42.376707 
L 362.754764 35.537979 
L 364.386193 27.84441 
L 367.649053 32.973456 
L 369.280483 36.39282 
L 370.911913 45.796071 
L 372.543343 44.94123 
L 374.174773 31.263774 
L 374.174773 31.263774 
" style="fill:none;stroke:#1f77b4;stroke-linecap:square;stroke-width:1.5;"/>
   </g>
   <g id="line2d_17">
    <path clip-path="url(#pdb976ac961)" d="M 49.520227 261.216 
L 51.151657 249.248226 
L 52.783087 218.473951 
L 54.414517 182.570629 
L 56.045947 165.473809 
L 57.677377 142.393102 
L 59.308807 127.005965 
L 60.940236 97.08653 
L 62.571666 85.118756 
L 64.203096 49.215435 
L 65.834526 43.231548 
L 67.465956 38.957343 
L 69.097386 44.94123 
L 70.728816 59.473527 
L 72.360246 62.038049 
L 73.991675 43.231548 
L 75.623105 38.957343 
L 77.254535 35.537979 
L 78.885965 48.360594 
L 80.517395 34.683138 
L 82.148825 51.779958 
L 83.780255 56.054163 
L 85.411685 34.683138 
L 87.043114 50.070276 
L 88.674544 54.344481 
L 90.305974 39.812184 
L 91.937404 42.376707 
L 93.568834 34.683138 
L 95.200264 33.828297 
L 96.831694 54.344481 
L 98.463124 61.183208 
L 100.094553 41.521866 
L 101.725983 58.618686 
L 103.357413 54.344481 
L 104.988843 45.796071 
L 106.620273 48.360594 
L 108.251703 43.231548 
L 109.883133 57.763845 
L 111.514563 50.925117 
L 113.145992 50.925117 
L 114.777422 42.376707 
L 116.408852 50.925117 
L 118.040282 45.796071 
L 119.671712 50.070276 
L 121.303142 38.102502 
L 122.934572 29.554092 
L 126.197431 39.812184 
L 127.828861 42.376707 
L 129.460291 48.360594 
L 131.091721 51.779958 
L 132.723151 57.763845 
L 134.354581 48.360594 
L 135.986011 50.925117 
L 137.617441 56.054163 
L 139.24887 60.328367 
L 140.8803 57.763845 
L 142.51173 53.48964 
L 144.14316 64.602572 
L 145.77459 60.328367 
L 147.40602 57.763845 
L 149.03745 50.070276 
L 150.66888 49.215435 
L 152.30031 56.054163 
L 153.931739 49.215435 
L 155.563169 58.618686 
L 157.194599 56.909004 
L 158.826029 52.634799 
L 160.457459 23.570205 
L 162.088889 35.537979 
L 163.720319 44.94123 
L 165.351749 57.763845 
L 166.983178 46.650912 
L 168.614608 54.344481 
L 170.246038 56.909004 
L 171.877468 53.48964 
L 173.508898 36.39282 
L 175.140328 37.247661 
L 176.771758 42.376707 
L 178.403188 42.376707 
L 180.034617 43.231548 
L 181.666047 59.473527 
L 183.297477 48.360594 
L 184.928907 49.215435 
L 186.560337 56.909004 
L 188.191767 53.48964 
L 189.823197 54.344481 
L 191.454627 63.747731 
L 193.086056 68.021936 
L 194.717486 49.215435 
L 196.348916 58.618686 
L 197.980346 51.779958 
L 199.611776 49.215435 
L 201.243206 45.796071 
L 202.874636 50.070276 
L 204.506066 50.070276 
L 206.137495 42.376707 
L 207.768925 54.344481 
L 209.400355 44.086389 
L 211.031785 50.070276 
L 212.663215 50.925117 
L 214.294645 37.247661 
L 215.926075 25.279887 
L 217.557505 31.263774 
L 219.188934 39.812184 
L 220.820364 36.39282 
L 222.451794 63.747731 
L 224.083224 67.167095 
L 225.714654 61.183208 
L 227.346084 61.183208 
L 228.977514 47.505753 
L 230.608944 50.070276 
L 232.240373 49.215435 
L 233.871803 47.505753 
L 235.503233 33.828297 
L 237.134663 32.118615 
L 238.766093 47.505753 
L 240.397523 40.667025 
L 242.028953 36.39282 
L 243.660383 37.247661 
L 245.291812 40.667025 
L 248.554672 45.796071 
L 250.186102 68.021936 
L 251.817532 62.038049 
L 253.448962 63.747731 
L 255.080392 62.038049 
L 256.711822 53.48964 
L 258.343251 58.618686 
L 259.974681 65.457413 
L 261.606111 62.89289 
L 263.237541 42.376707 
L 264.868971 38.102502 
L 266.500401 45.796071 
L 268.131831 27.84441 
L 269.763261 38.957343 
L 271.39469 47.505753 
L 273.02612 51.779958 
L 274.65755 48.360594 
L 276.28898 49.215435 
L 277.92041 38.102502 
L 279.55184 54.344481 
L 281.18327 47.505753 
L 282.8147 43.231548 
L 284.44613 41.521866 
L 286.077559 26.989569 
L 287.708989 19.296 
L 290.971849 51.779958 
L 292.603279 61.183208 
L 294.234709 58.618686 
L 295.866139 37.247661 
L 297.497569 25.279887 
L 299.128998 33.828297 
L 300.760428 25.279887 
L 302.391858 21.005682 
L 304.023288 42.376707 
L 305.654718 46.650912 
L 308.917578 51.779958 
L 310.549008 63.747731 
L 312.180437 52.634799 
L 313.811867 58.618686 
L 315.443297 56.054163 
L 317.074727 59.473527 
L 318.706157 56.054163 
L 320.337587 56.909004 
L 321.969017 62.89289 
L 323.600447 44.94123 
L 325.231876 50.925117 
L 326.863306 55.199322 
L 328.494736 39.812184 
L 330.126166 38.102502 
L 331.757596 39.812184 
L 335.020456 46.650912 
L 336.651886 51.779958 
L 338.283315 56.054163 
L 339.914745 58.618686 
L 341.546175 55.199322 
L 343.177605 54.344481 
L 344.809035 39.812184 
L 346.440465 38.957343 
L 348.071895 37.247661 
L 349.703325 48.360594 
L 351.334754 31.263774 
L 352.966184 36.39282 
L 356.229044 29.554092 
L 357.860474 46.650912 
L 359.491904 68.021936 
L 361.123334 50.070276 
L 362.754764 38.957343 
L 364.386193 50.925117 
L 366.017623 41.521866 
L 367.649053 37.247661 
L 369.280483 25.279887 
L 370.911913 26.134728 
L 372.543343 51.779958 
L 374.174773 68.876777 
L 374.174773 68.876777 
" style="fill:none;stroke:#ff7f0e;stroke-linecap:square;stroke-width:1.5;"/>
   </g>
   <g id="patch_3">
    <path d="M 33.2875 273.312 
L 33.2875 7.2 
" style="fill:none;stroke:#000000;stroke-linecap:square;stroke-linejoin:miter;stroke-width:0.8;"/>
   </g>
   <g id="patch_4">
    <path d="M 390.4075 273.312 
L 390.4075 7.2 
" style="fill:none;stroke:#000000;stroke-linecap:square;stroke-linejoin:miter;stroke-width:0.8;"/>
   </g>
   <g id="patch_5">
    <path d="M 33.2875 273.312 
L 390.4075 273.312 
" style="fill:none;stroke:#000000;stroke-linecap:square;stroke-linejoin:miter;stroke-width:0.8;"/>
   </g>
   <g id="patch_6">
    <path d="M 33.2875 7.2 
L 390.4075 7.2 
" style="fill:none;stroke:#000000;stroke-linecap:square;stroke-linejoin:miter;stroke-width:0.8;"/>
   </g>
  </g>
 </g>
 <defs>
  <clipPath id="pdb976ac961">
   <rect height="266.112" width="357.12" x="33.2875" y="7.2"/>
  </clipPath>
 </defs>
</svg>
