<?xml version="1.0" encoding="utf-8" standalone="no"?>
<!DOCTYPE svg PUBLIC "-//W3C//DTD SVG 1.1//EN"
  "http://www.w3.org/Graphics/SVG/1.1/DTD/svg11.dtd">
<!-- Created with matplotlib (https://matplotlib.org/) -->
<svg height="297.190125pt" version="1.1" viewBox="0 0 403.97 297.190125" width="403.97pt" xmlns="http://www.w3.org/2000/svg" xmlns:xlink="http://www.w3.org/1999/xlink">
 <metadata>
  <rdf:RDF xmlns:cc="http://creativecommons.org/ns#" xmlns:dc="http://purl.org/dc/elements/1.1/" xmlns:rdf="http://www.w3.org/1999/02/22-rdf-syntax-ns#">
   <cc:Work>
    <dc:type rdf:resource="http://purl.org/dc/dcmitype/StillImage"/>
    <dc:date>2020-10-22T07:08:57.314836</dc:date>
    <dc:format>image/svg+xml</dc:format>
    <dc:creator>
     <cc:Agent>
      <dc:title>Matplotlib v3.3.2, https://matplotlib.org/</dc:title>
     </cc:Agent>
    </dc:creator>
   </cc:Work>
  </rdf:RDF>
 </metadata>
 <defs>
  <style type="text/css">*{stroke-linecap:butt;stroke-linejoin:round;}</style>
 </defs>
 <g id="figure_1">
  <g id="patch_1">
   <path d="M 0 297.190125 
L 403.97 297.190125 
L 403.97 0 
L 0 0 
z
" style="fill:#ffffff;"/>
  </g>
  <g id="axes_1">
   <g id="patch_2">
    <path d="M 39.65 273.312 
L 396.77 273.312 
L 396.77 7.2 
L 39.65 7.2 
z
" style="fill:#ffffff;"/>
   </g>
   <g id="matplotlib.axis_1">
    <g id="xtick_1">
     <g id="line2d_1">
      <defs>
       <path d="M 0 0 
L 0 3.5 
" id="m159cf75744" style="stroke:#000000;stroke-width:0.8;"/>
      </defs>
      <g>
       <use style="stroke:#000000;stroke-width:0.8;" x="55.882727" xlink:href="#m159cf75744" y="273.312"/>
      </g>
     </g>
     <g id="text_1">
      <!-- 0.0 -->
      <g transform="translate(47.931165 287.910437)scale(0.1 -0.1)">
       <defs>
        <path d="M 31.78125 66.40625 
Q 24.171875 66.40625 20.328125 58.90625 
Q 16.5 51.421875 16.5 36.375 
Q 16.5 21.390625 20.328125 13.890625 
Q 24.171875 6.390625 31.78125 6.390625 
Q 39.453125 6.390625 43.28125 13.890625 
Q 47.125 21.390625 47.125 36.375 
Q 47.125 51.421875 43.28125 58.90625 
Q 39.453125 66.40625 31.78125 66.40625 
z
M 31.78125 74.21875 
Q 44.046875 74.21875 50.515625 64.515625 
Q 56.984375 54.828125 56.984375 36.375 
Q 56.984375 17.96875 50.515625 8.265625 
Q 44.046875 -1.421875 31.78125 -1.421875 
Q 19.53125 -1.421875 13.0625 8.265625 
Q 6.59375 17.96875 6.59375 36.375 
Q 6.59375 54.828125 13.0625 64.515625 
Q 19.53125 74.21875 31.78125 74.21875 
z
" id="DejaVuSans-48"/>
        <path d="M 10.6875 12.40625 
L 21 12.40625 
L 21 0 
L 10.6875 0 
z
" id="DejaVuSans-46"/>
       </defs>
       <use xlink:href="#DejaVuSans-48"/>
       <use x="63.623047" xlink:href="#DejaVuSans-46"/>
       <use x="95.410156" xlink:href="#DejaVuSans-48"/>
      </g>
     </g>
    </g>
    <g id="xtick_2">
     <g id="line2d_2">
      <g>
       <use style="stroke:#000000;stroke-width:0.8;" x="96.668474" xlink:href="#m159cf75744" y="273.312"/>
      </g>
     </g>
     <g id="text_2">
      <!-- 2.5 -->
      <g transform="translate(88.716912 287.910437)scale(0.1 -0.1)">
       <defs>
        <path d="M 19.1875 8.296875 
L 53.609375 8.296875 
L 53.609375 0 
L 7.328125 0 
L 7.328125 8.296875 
Q 12.9375 14.109375 22.625 23.890625 
Q 32.328125 33.6875 34.8125 36.53125 
Q 39.546875 41.84375 41.421875 45.53125 
Q 43.3125 49.21875 43.3125 52.78125 
Q 43.3125 58.59375 39.234375 62.25 
Q 35.15625 65.921875 28.609375 65.921875 
Q 23.96875 65.921875 18.8125 64.3125 
Q 13.671875 62.703125 7.8125 59.421875 
L 7.8125 69.390625 
Q 13.765625 71.78125 18.9375 73 
Q 24.125 74.21875 28.421875 74.21875 
Q 39.75 74.21875 46.484375 68.546875 
Q 53.21875 62.890625 53.21875 53.421875 
Q 53.21875 48.921875 51.53125 44.890625 
Q 49.859375 40.875 45.40625 35.40625 
Q 44.1875 33.984375 37.640625 27.21875 
Q 31.109375 20.453125 19.1875 8.296875 
z
" id="DejaVuSans-50"/>
        <path d="M 10.796875 72.90625 
L 49.515625 72.90625 
L 49.515625 64.59375 
L 19.828125 64.59375 
L 19.828125 46.734375 
Q 21.96875 47.46875 24.109375 47.828125 
Q 26.265625 48.1875 28.421875 48.1875 
Q 40.625 48.1875 47.75 41.5 
Q 54.890625 34.8125 54.890625 23.390625 
Q 54.890625 11.625 47.5625 5.09375 
Q 40.234375 -1.421875 26.90625 -1.421875 
Q 22.3125 -1.421875 17.546875 -0.640625 
Q 12.796875 0.140625 7.71875 1.703125 
L 7.71875 11.625 
Q 12.109375 9.234375 16.796875 8.0625 
Q 21.484375 6.890625 26.703125 6.890625 
Q 35.15625 6.890625 40.078125 11.328125 
Q 45.015625 15.765625 45.015625 23.390625 
Q 45.015625 31 40.078125 35.4375 
Q 35.15625 39.890625 26.703125 39.890625 
Q 22.75 39.890625 18.8125 39.015625 
Q 14.890625 38.140625 10.796875 36.28125 
z
" id="DejaVuSans-53"/>
       </defs>
       <use xlink:href="#DejaVuSans-50"/>
       <use x="63.623047" xlink:href="#DejaVuSans-46"/>
       <use x="95.410156" xlink:href="#DejaVuSans-53"/>
      </g>
     </g>
    </g>
    <g id="xtick_3">
     <g id="line2d_3">
      <g>
       <use style="stroke:#000000;stroke-width:0.8;" x="137.454221" xlink:href="#m159cf75744" y="273.312"/>
      </g>
     </g>
     <g id="text_3">
      <!-- 5.0 -->
      <g transform="translate(129.502659 287.910437)scale(0.1 -0.1)">
       <use xlink:href="#DejaVuSans-53"/>
       <use x="63.623047" xlink:href="#DejaVuSans-46"/>
       <use x="95.410156" xlink:href="#DejaVuSans-48"/>
      </g>
     </g>
    </g>
    <g id="xtick_4">
     <g id="line2d_4">
      <g>
       <use style="stroke:#000000;stroke-width:0.8;" x="178.239968" xlink:href="#m159cf75744" y="273.312"/>
      </g>
     </g>
     <g id="text_4">
      <!-- 7.5 -->
      <g transform="translate(170.288406 287.910437)scale(0.1 -0.1)">
       <defs>
        <path d="M 8.203125 72.90625 
L 55.078125 72.90625 
L 55.078125 68.703125 
L 28.609375 0 
L 18.3125 0 
L 43.21875 64.59375 
L 8.203125 64.59375 
z
" id="DejaVuSans-55"/>
       </defs>
       <use xlink:href="#DejaVuSans-55"/>
       <use x="63.623047" xlink:href="#DejaVuSans-46"/>
       <use x="95.410156" xlink:href="#DejaVuSans-53"/>
      </g>
     </g>
    </g>
    <g id="xtick_5">
     <g id="line2d_5">
      <g>
       <use style="stroke:#000000;stroke-width:0.8;" x="219.025715" xlink:href="#m159cf75744" y="273.312"/>
      </g>
     </g>
     <g id="text_5">
      <!-- 10.0 -->
      <g transform="translate(207.892902 287.910437)scale(0.1 -0.1)">
       <defs>
        <path d="M 12.40625 8.296875 
L 28.515625 8.296875 
L 28.515625 63.921875 
L 10.984375 60.40625 
L 10.984375 69.390625 
L 28.421875 72.90625 
L 38.28125 72.90625 
L 38.28125 8.296875 
L 54.390625 8.296875 
L 54.390625 0 
L 12.40625 0 
z
" id="DejaVuSans-49"/>
       </defs>
       <use xlink:href="#DejaVuSans-49"/>
       <use x="63.623047" xlink:href="#DejaVuSans-48"/>
       <use x="127.246094" xlink:href="#DejaVuSans-46"/>
       <use x="159.033203" xlink:href="#DejaVuSans-48"/>
      </g>
     </g>
    </g>
    <g id="xtick_6">
     <g id="line2d_6">
      <g>
       <use style="stroke:#000000;stroke-width:0.8;" x="259.811462" xlink:href="#m159cf75744" y="273.312"/>
      </g>
     </g>
     <g id="text_6">
      <!-- 12.5 -->
      <g transform="translate(248.678649 287.910437)scale(0.1 -0.1)">
       <use xlink:href="#DejaVuSans-49"/>
       <use x="63.623047" xlink:href="#DejaVuSans-50"/>
       <use x="127.246094" xlink:href="#DejaVuSans-46"/>
       <use x="159.033203" xlink:href="#DejaVuSans-53"/>
      </g>
     </g>
    </g>
    <g id="xtick_7">
     <g id="line2d_7">
      <g>
       <use style="stroke:#000000;stroke-width:0.8;" x="300.597209" xlink:href="#m159cf75744" y="273.312"/>
      </g>
     </g>
     <g id="text_7">
      <!-- 15.0 -->
      <g transform="translate(289.464396 287.910437)scale(0.1 -0.1)">
       <use xlink:href="#DejaVuSans-49"/>
       <use x="63.623047" xlink:href="#DejaVuSans-53"/>
       <use x="127.246094" xlink:href="#DejaVuSans-46"/>
       <use x="159.033203" xlink:href="#DejaVuSans-48"/>
      </g>
     </g>
    </g>
    <g id="xtick_8">
     <g id="line2d_8">
      <g>
       <use style="stroke:#000000;stroke-width:0.8;" x="341.382956" xlink:href="#m159cf75744" y="273.312"/>
      </g>
     </g>
     <g id="text_8">
      <!-- 17.5 -->
      <g transform="translate(330.250143 287.910437)scale(0.1 -0.1)">
       <use xlink:href="#DejaVuSans-49"/>
       <use x="63.623047" xlink:href="#DejaVuSans-55"/>
       <use x="127.246094" xlink:href="#DejaVuSans-46"/>
       <use x="159.033203" xlink:href="#DejaVuSans-53"/>
      </g>
     </g>
    </g>
    <g id="xtick_9">
     <g id="line2d_9">
      <g>
       <use style="stroke:#000000;stroke-width:0.8;" x="382.168703" xlink:href="#m159cf75744" y="273.312"/>
      </g>
     </g>
     <g id="text_9">
      <!-- 20.0 -->
      <g transform="translate(371.03589 287.910437)scale(0.1 -0.1)">
       <use xlink:href="#DejaVuSans-50"/>
       <use x="63.623047" xlink:href="#DejaVuSans-48"/>
       <use x="127.246094" xlink:href="#DejaVuSans-46"/>
       <use x="159.033203" xlink:href="#DejaVuSans-48"/>
      </g>
     </g>
    </g>
   </g>
   <g id="matplotlib.axis_2">
    <g id="ytick_1">
     <g id="line2d_10">
      <defs>
       <path d="M 0 0 
L -3.5 0 
" id="mc766646d74" style="stroke:#000000;stroke-width:0.8;"/>
      </defs>
      <g>
       <use style="stroke:#000000;stroke-width:0.8;" x="39.65" xlink:href="#mc766646d74" y="261.216"/>
      </g>
     </g>
     <g id="text_10">
      <!-- 0 -->
      <g transform="translate(26.2875 265.015219)scale(0.1 -0.1)">
       <use xlink:href="#DejaVuSans-48"/>
      </g>
     </g>
    </g>
    <g id="ytick_2">
     <g id="line2d_11">
      <g>
       <use style="stroke:#000000;stroke-width:0.8;" x="39.65" xlink:href="#mc766646d74" y="226.862876"/>
      </g>
     </g>
     <g id="text_11">
      <!-- 500 -->
      <g transform="translate(13.5625 230.662095)scale(0.1 -0.1)">
       <use xlink:href="#DejaVuSans-53"/>
       <use x="63.623047" xlink:href="#DejaVuSans-48"/>
       <use x="127.246094" xlink:href="#DejaVuSans-48"/>
      </g>
     </g>
    </g>
    <g id="ytick_3">
     <g id="line2d_12">
      <g>
       <use style="stroke:#000000;stroke-width:0.8;" x="39.65" xlink:href="#mc766646d74" y="192.509752"/>
      </g>
     </g>
     <g id="text_12">
      <!-- 1000 -->
      <g transform="translate(7.2 196.308971)scale(0.1 -0.1)">
       <use xlink:href="#DejaVuSans-49"/>
       <use x="63.623047" xlink:href="#DejaVuSans-48"/>
       <use x="127.246094" xlink:href="#DejaVuSans-48"/>
       <use x="190.869141" xlink:href="#DejaVuSans-48"/>
      </g>
     </g>
    </g>
    <g id="ytick_4">
     <g id="line2d_13">
      <g>
       <use style="stroke:#000000;stroke-width:0.8;" x="39.65" xlink:href="#mc766646d74" y="158.156628"/>
      </g>
     </g>
     <g id="text_13">
      <!-- 1500 -->
      <g transform="translate(7.2 161.955847)scale(0.1 -0.1)">
       <use xlink:href="#DejaVuSans-49"/>
       <use x="63.623047" xlink:href="#DejaVuSans-53"/>
       <use x="127.246094" xlink:href="#DejaVuSans-48"/>
       <use x="190.869141" xlink:href="#DejaVuSans-48"/>
      </g>
     </g>
    </g>
    <g id="ytick_5">
     <g id="line2d_14">
      <g>
       <use style="stroke:#000000;stroke-width:0.8;" x="39.65" xlink:href="#mc766646d74" y="123.803504"/>
      </g>
     </g>
     <g id="text_14">
      <!-- 2000 -->
      <g transform="translate(7.2 127.602722)scale(0.1 -0.1)">
       <use xlink:href="#DejaVuSans-50"/>
       <use x="63.623047" xlink:href="#DejaVuSans-48"/>
       <use x="127.246094" xlink:href="#DejaVuSans-48"/>
       <use x="190.869141" xlink:href="#DejaVuSans-48"/>
      </g>
     </g>
    </g>
    <g id="ytick_6">
     <g id="line2d_15">
      <g>
       <use style="stroke:#000000;stroke-width:0.8;" x="39.65" xlink:href="#mc766646d74" y="89.45038"/>
      </g>
     </g>
     <g id="text_15">
      <!-- 2500 -->
      <g transform="translate(7.2 93.249598)scale(0.1 -0.1)">
       <use xlink:href="#DejaVuSans-50"/>
       <use x="63.623047" xlink:href="#DejaVuSans-53"/>
       <use x="127.246094" xlink:href="#DejaVuSans-48"/>
       <use x="190.869141" xlink:href="#DejaVuSans-48"/>
      </g>
     </g>
    </g>
    <g id="ytick_7">
     <g id="line2d_16">
      <g>
       <use style="stroke:#000000;stroke-width:0.8;" x="39.65" xlink:href="#mc766646d74" y="55.097256"/>
      </g>
     </g>
     <g id="text_16">
      <!-- 3000 -->
      <g transform="translate(7.2 58.896474)scale(0.1 -0.1)">
       <defs>
        <path d="M 40.578125 39.3125 
Q 47.65625 37.796875 51.625 33 
Q 55.609375 28.21875 55.609375 21.1875 
Q 55.609375 10.40625 48.1875 4.484375 
Q 40.765625 -1.421875 27.09375 -1.421875 
Q 22.515625 -1.421875 17.65625 -0.515625 
Q 12.796875 0.390625 7.625 2.203125 
L 7.625 11.71875 
Q 11.71875 9.328125 16.59375 8.109375 
Q 21.484375 6.890625 26.8125 6.890625 
Q 36.078125 6.890625 40.9375 10.546875 
Q 45.796875 14.203125 45.796875 21.1875 
Q 45.796875 27.640625 41.28125 31.265625 
Q 36.765625 34.90625 28.71875 34.90625 
L 20.21875 34.90625 
L 20.21875 43.015625 
L 29.109375 43.015625 
Q 36.375 43.015625 40.234375 45.921875 
Q 44.09375 48.828125 44.09375 54.296875 
Q 44.09375 59.90625 40.109375 62.90625 
Q 36.140625 65.921875 28.71875 65.921875 
Q 24.65625 65.921875 20.015625 65.03125 
Q 15.375 64.15625 9.8125 62.3125 
L 9.8125 71.09375 
Q 15.4375 72.65625 20.34375 73.4375 
Q 25.25 74.21875 29.59375 74.21875 
Q 40.828125 74.21875 47.359375 69.109375 
Q 53.90625 64.015625 53.90625 55.328125 
Q 53.90625 49.265625 50.4375 45.09375 
Q 46.96875 40.921875 40.578125 39.3125 
z
" id="DejaVuSans-51"/>
       </defs>
       <use xlink:href="#DejaVuSans-51"/>
       <use x="63.623047" xlink:href="#DejaVuSans-48"/>
       <use x="127.246094" xlink:href="#DejaVuSans-48"/>
       <use x="190.869141" xlink:href="#DejaVuSans-48"/>
      </g>
     </g>
    </g>
    <g id="ytick_8">
     <g id="line2d_17">
      <g>
       <use style="stroke:#000000;stroke-width:0.8;" x="39.65" xlink:href="#mc766646d74" y="20.744132"/>
      </g>
     </g>
     <g id="text_17">
      <!-- 3500 -->
      <g transform="translate(7.2 24.54335)scale(0.1 -0.1)">
       <use xlink:href="#DejaVuSans-51"/>
       <use x="63.623047" xlink:href="#DejaVuSans-53"/>
       <use x="127.246094" xlink:href="#DejaVuSans-48"/>
       <use x="190.869141" xlink:href="#DejaVuSans-48"/>
      </g>
     </g>
    </g>
   </g>
   <g id="line2d_18">
    <path clip-path="url(#p9c5b0807ec)" d="M 55.882727 261.216 
L 72.197026 192.509752 
L 88.511325 143.281725 
L 104.825624 108.009844 
L 121.139922 82.737541 
L 137.454221 64.629936 
L 153.76852 51.655837 
L 170.082819 42.359895 
L 186.397117 35.699353 
L 202.711416 30.927074 
L 219.025715 27.507736 
L 235.340014 25.057781 
L 251.654312 23.302388 
L 267.968611 22.044649 
L 284.28291 21.143479 
L 300.597209 20.49779 
L 316.911508 20.035155 
L 333.225806 19.703676 
L 349.540105 19.466172 
L 365.854404 19.296 
" style="fill:none;stroke:#1f77b4;stroke-linecap:square;stroke-width:1.5;"/>
   </g>
   <g id="line2d_19">
    <path clip-path="url(#p9c5b0807ec)" d="M 55.882727 261.216 
L 72.197026 261.216 
L 88.511325 238.313917 
L 104.825624 210.146646 
L 121.139922 183.928275 
L 137.454221 162.043662 
L 153.76852 144.772234 
L 170.082819 131.580383 
L 186.397117 121.709039 
L 202.711416 114.420911 
L 219.025715 109.088426 
L 235.340014 105.210949 
L 251.654312 102.4036 
L 267.968611 100.377177 
L 284.28291 98.917564 
L 300.597209 97.867809 
L 316.911508 97.113636 
L 333.225806 96.572231 
L 349.540105 96.183781 
L 365.854404 95.905183 
" style="fill:none;stroke:#ff7f0e;stroke-linecap:square;stroke-width:1.5;"/>
   </g>
   <g id="line2d_20">
    <path clip-path="url(#p9c5b0807ec)" d="M 55.882727 261.216 
L 59.145587 250.154294 
L 60.777017 243.6272 
L 64.039877 231.74102 
L 67.302736 222.39697 
L 70.565596 213.808689 
L 72.197026 207.55642 
L 77.091316 191.891396 
L 78.722746 188.249964 
L 80.354175 182.135108 
L 81.985605 176.98214 
L 86.879895 166.332671 
L 88.511325 161.866765 
L 91.774185 153.828134 
L 93.405614 151.354709 
L 95.037044 148.606459 
L 96.668474 144.965028 
L 99.931334 138.850172 
L 101.562764 137.61346 
L 103.194194 134.796503 
L 104.825624 130.46801 
L 106.457053 128.200704 
L 108.088483 126.483047 
L 109.719913 124.147035 
L 112.982773 118.856654 
L 116.245633 115.352635 
L 117.877063 113.42886 
L 119.508492 111.917323 
L 121.139922 109.924842 
L 122.771352 109.100367 
L 126.034212 106.558235 
L 127.665642 103.878692 
L 129.297072 102.641979 
L 130.928502 101.748798 
L 132.559931 99.618904 
L 134.191361 98.863136 
L 135.822791 97.008067 
L 137.454221 97.626423 
L 139.085651 95.840061 
L 140.717081 93.710167 
L 142.348511 92.336042 
L 143.979941 89.862617 
L 145.61137 88.694611 
L 147.2428 86.496011 
L 148.87423 84.984474 
L 150.50566 84.640942 
L 152.13709 82.511049 
L 153.76852 82.785874 
L 155.39995 80.930805 
L 157.03138 79.487974 
L 158.66281 77.564199 
L 160.294239 77.495492 
L 161.925669 75.15948 
L 163.557099 74.541124 
L 165.188529 73.51053 
L 166.819959 72.205111 
L 168.451389 72.754761 
L 170.082819 73.785355 
L 171.714249 72.686055 
L 173.345678 72.686055 
L 174.977108 72.205111 
L 176.608538 72.136405 
L 178.239968 70.006511 
L 179.871398 68.838505 
L 181.502828 67.395674 
L 183.134258 67.739205 
L 184.765688 67.945324 
L 186.397117 67.601793 
L 188.028547 69.388155 
L 189.659977 68.151443 
L 191.291407 66.296374 
L 194.554267 66.708612 
L 196.185697 66.433787 
L 197.817127 65.746724 
L 199.448556 65.471899 
L 201.079986 64.372599 
L 202.711416 64.441305 
L 204.342846 63.822949 
L 205.974276 63.685537 
L 207.605706 62.586237 
L 209.237136 63.410712 
L 210.868566 62.51753 
L 212.499995 60.937287 
L 214.131425 59.082218 
L 215.762855 59.494455 
L 217.394285 58.395156 
L 219.025715 59.082218 
L 220.657145 58.66998 
L 222.288575 57.982918 
L 223.920005 56.471381 
L 227.182864 59.631868 
L 228.814294 61.212112 
L 230.445724 61.624349 
L 232.077154 60.937287 
L 233.708584 61.830468 
L 235.340014 59.906693 
L 236.971444 59.837987 
L 238.602873 59.906693 
L 240.234303 60.181518 
L 241.865733 58.944805 
L 243.497163 57.227149 
L 245.128593 56.059143 
L 246.760023 57.089737 
L 248.391453 57.227149 
L 250.022883 56.883618 
L 251.654312 56.333968 
L 253.285742 56.814912 
L 254.917172 57.089737 
L 256.548602 57.982918 
L 258.180032 57.570681 
L 259.811462 57.982918 
L 261.442892 56.402674 
L 263.074322 57.845506 
L 264.705751 57.227149 
L 266.337181 57.089737 
L 269.600041 57.570681 
L 271.231471 57.021031 
L 272.862901 56.952324 
L 274.494331 59.21963 
L 276.125761 58.257743 
L 277.75719 58.395156 
L 279.38862 58.807393 
L 281.02005 57.914212 
L 282.65148 56.540087 
L 284.28291 55.990437 
L 285.91434 55.578199 
L 287.54577 56.402674 
L 289.1772 56.059143 
L 290.80863 57.776799 
L 292.440059 57.501974 
L 294.071489 56.677499 
L 295.702919 54.204074 
L 297.334349 54.272781 
L 298.965779 54.753724 
L 302.228639 52.417712 
L 303.860069 51.799356 
L 305.491498 52.211593 
L 307.122928 52.211593 
L 308.754358 51.799356 
L 310.385788 53.310893 
L 312.017218 54.547606 
L 313.648648 54.959843 
L 315.280078 53.585718 
L 316.911508 53.723131 
L 318.542937 55.303374 
L 320.174367 52.898656 
L 321.805797 52.967362 
L 323.437227 52.486418 
L 325.068657 52.623831 
L 326.700087 52.211593 
L 328.331517 54.410193 
L 331.594376 53.997956 
L 333.225806 53.104774 
L 334.857236 53.929249 
L 336.488666 55.303374 
L 338.120096 54.547606 
L 339.751526 54.959843 
L 341.382956 54.478899 
L 343.014386 55.921731 
L 344.645815 54.753724 
L 346.277245 56.471381 
L 347.908675 56.883618 
L 349.540105 55.578199 
L 351.171535 55.165962 
L 352.802965 52.692537 
L 356.065825 51.387118 
L 357.697254 51.112293 
L 359.328684 50.287818 
L 360.960114 50.012993 
L 362.591544 49.325931 
L 364.222974 49.944287 
L 367.485834 48.707575 
L 369.117264 48.9824 
L 370.748693 49.051106 
L 372.380123 50.631349 
L 374.011553 50.012993 
L 375.642983 49.944287 
L 377.274413 50.150406 
L 378.905843 50.631349 
L 380.537273 52.349006 
L 380.537273 52.349006 
" style="fill:none;stroke:#2ca02c;stroke-linecap:square;stroke-width:1.5;"/>
   </g>
   <g id="line2d_21">
    <path clip-path="url(#p9c5b0807ec)" d="M 55.882727 261.216 
L 57.514157 261.009881 
L 59.145587 260.66635 
L 60.777017 260.460231 
L 62.408447 260.047994 
L 64.039877 259.360931 
L 65.671307 258.055513 
L 67.302736 256.543975 
L 70.565596 254.207963 
L 72.197026 253.658313 
L 73.828456 252.146775 
L 77.091316 249.879469 
L 81.985605 245.413563 
L 83.617035 243.352375 
L 85.248465 241.566013 
L 86.879895 239.504826 
L 88.511325 236.619163 
L 90.142755 235.588569 
L 95.037044 230.710426 
L 96.668474 228.237001 
L 98.299904 227.206407 
L 99.931334 225.763576 
L 101.562764 223.427564 
L 103.194194 222.190851 
L 104.825624 221.160257 
L 106.457053 218.412007 
L 108.088483 216.694351 
L 109.719913 215.526345 
L 112.982773 214.427045 
L 114.614203 212.778095 
L 116.245633 210.30467 
L 117.877063 208.10607 
L 119.508492 206.251001 
L 121.139922 205.082995 
L 122.771352 203.296633 
L 124.402782 202.953102 
L 126.034212 202.05992 
L 127.665642 201.785095 
L 129.297072 199.586495 
L 130.928502 198.418489 
L 134.191361 195.876358 
L 135.822791 195.258002 
L 137.454221 193.196814 
L 139.085651 192.853283 
L 140.717081 192.372339 
L 142.348511 190.654683 
L 143.979941 190.723389 
L 145.61137 190.173739 
L 147.2428 190.792096 
L 148.87423 189.280558 
L 150.50566 187.288077 
L 152.13709 186.532308 
L 153.76852 185.295596 
L 155.39995 185.020771 
L 157.03138 183.990177 
L 158.66281 184.333708 
L 160.294239 182.959583 
L 161.925669 182.822171 
L 163.557099 182.547346 
L 165.188529 181.791577 
L 166.819959 181.173221 
L 168.451389 179.867802 
L 170.082819 177.737909 
L 171.714249 178.08144 
L 173.345678 177.806615 
L 174.977108 177.394377 
L 176.608538 175.608015 
L 178.239968 174.78354 
L 179.871398 174.23389 
L 181.502828 174.920952 
L 183.134258 174.302596 
L 184.765688 174.989659 
L 186.397117 172.928471 
L 188.028547 171.416934 
L 189.659977 172.03529 
L 191.291407 172.859765 
L 192.922837 172.653646 
L 194.554267 171.760465 
L 196.185697 171.897877 
L 197.817127 171.623052 
L 199.448556 170.111515 
L 201.079986 171.210815 
L 202.711416 171.48564 
L 204.342846 169.561865 
L 205.974276 169.355746 
L 207.605706 168.599978 
L 209.237136 167.363265 
L 214.131425 168.943509 
L 215.762855 168.668684 
L 217.394285 168.599978 
L 219.025715 167.569384 
L 220.657145 167.431971 
L 222.288575 165.164665 
L 223.920005 165.302078 
L 225.551434 164.134071 
L 227.182864 162.622534 
L 228.814294 162.072884 
L 230.445724 162.210296 
L 232.077154 161.729353 
L 233.708584 160.561346 
L 235.340014 162.966065 
L 236.971444 163.103478 
L 238.602873 161.523234 
L 240.234303 163.378303 
L 241.865733 165.027253 
L 245.128593 165.027253 
L 246.760023 163.79054 
L 248.391453 161.729353 
L 250.022883 162.004178 
L 251.654312 160.904878 
L 253.285742 160.49264 
L 254.917172 158.774984 
L 256.548602 158.225334 
L 258.180032 158.568865 
L 259.811462 156.782503 
L 261.442892 157.675684 
L 263.074322 156.713797 
L 264.705751 156.988622 
L 266.337181 156.782503 
L 267.968611 157.057328 
L 269.600041 156.64509 
L 271.231471 156.026734 
L 274.494331 153.622015 
L 276.125761 153.072365 
L 277.75719 154.309078 
L 281.02005 152.454009 
L 282.65148 153.89684 
L 284.28291 154.102959 
L 285.91434 153.965547 
L 287.54577 154.377784 
L 289.1772 154.583903 
L 290.80863 154.99614 
L 292.440059 156.64509 
L 294.071489 157.19474 
L 295.702919 160.149109 
L 297.334349 161.317115 
L 298.965779 159.805578 
L 300.597209 160.973584 
L 302.228639 162.553828 
L 303.860069 162.004178 
L 305.491498 162.69124 
L 307.122928 163.24089 
L 308.754358 164.202778 
L 312.017218 161.385821 
L 313.648648 160.355228 
L 315.280078 160.080403 
L 316.911508 159.94299 
L 318.542937 160.217815 
L 320.174367 161.454528 
L 321.805797 160.767465 
L 323.437227 160.286521 
L 325.068657 161.729353 
L 326.700087 162.416415 
L 328.331517 161.660646 
L 329.962947 161.454528 
L 331.594376 162.14159 
L 333.225806 161.179703 
L 336.488666 161.866765 
L 338.120096 162.622534 
L 339.751526 162.485121 
L 341.382956 162.828653 
L 343.014386 162.004178 
L 344.645815 162.004178 
L 346.277245 160.767465 
L 347.908675 161.04229 
L 349.540105 160.217815 
L 351.171535 160.973584 
L 352.802965 162.210296 
L 354.434395 162.072884 
L 356.065825 163.447009 
L 357.697254 161.935471 
L 359.328684 161.523234 
L 360.960114 160.836171 
L 362.591544 160.698759 
L 364.222974 159.255928 
L 367.485834 157.950509 
L 369.117264 157.19474 
L 370.748693 157.057328 
L 372.380123 157.126034 
L 374.011553 155.958028 
L 375.642983 157.675684 
L 377.274413 157.400859 
L 378.905843 156.988622 
L 380.537273 155.133553 
L 380.537273 155.133553 
" style="fill:none;stroke:#d62728;stroke-linecap:square;stroke-width:1.5;"/>
   </g>
   <g id="patch_3">
    <path d="M 39.65 273.312 
L 39.65 7.2 
" style="fill:none;stroke:#000000;stroke-linecap:square;stroke-linejoin:miter;stroke-width:0.8;"/>
   </g>
   <g id="patch_4">
    <path d="M 396.77 273.312 
L 396.77 7.2 
" style="fill:none;stroke:#000000;stroke-linecap:square;stroke-linejoin:miter;stroke-width:0.8;"/>
   </g>
   <g id="patch_5">
    <path d="M 39.65 273.312 
L 396.77 273.312 
" style="fill:none;stroke:#000000;stroke-linecap:square;stroke-linejoin:miter;stroke-width:0.8;"/>
   </g>
   <g id="patch_6">
    <path d="M 39.65 7.2 
L 396.77 7.2 
" style="fill:none;stroke:#000000;stroke-linecap:square;stroke-linejoin:miter;stroke-width:0.8;"/>
   </g>
  </g>
 </g>
 <defs>
  <clipPath id="p9c5b0807ec">
   <rect height="266.112" width="357.12" x="39.65" y="7.2"/>
  </clipPath>
 </defs>
</svg>
