<?xml version="1.0" encoding="utf-8" standalone="no"?>
<!DOCTYPE svg PUBLIC "-//W3C//DTD SVG 1.1//EN"
  "http://www.w3.org/Graphics/SVG/1.1/DTD/svg11.dtd">
<svg xmlns:xlink="http://www.w3.org/1999/xlink" width="403.97pt" height="297.190125pt" viewBox="0 0 403.97 297.190125" xmlns="http://www.w3.org/2000/svg" version="1.1">
 <metadata>
  <rdf:RDF xmlns:dc="http://purl.org/dc/elements/1.1/" xmlns:cc="http://creativecommons.org/ns#" xmlns:rdf="http://www.w3.org/1999/02/22-rdf-syntax-ns#">
   <cc:Work>
    <dc:type rdf:resource="http://purl.org/dc/dcmitype/StillImage"/>
    <dc:date>2024-02-05T12:28:49.619730</dc:date>
    <dc:format>image/svg+xml</dc:format>
    <dc:creator>
     <cc:Agent>
      <dc:title>Matplotlib v3.8.2, https://matplotlib.org/</dc:title>
     </cc:Agent>
    </dc:creator>
   </cc:Work>
  </rdf:RDF>
 </metadata>
 <defs>
  <style type="text/css">*{stroke-linejoin: round; stroke-linecap: butt}</style>
 </defs>
 <g id="figure_1">
  <g id="patch_1">
   <path d="M 0 297.190125 
L 403.97 297.190125 
L 403.97 0 
L 0 0 
z
" style="fill: #ffffff"/>
  </g>
  <g id="axes_1">
   <g id="patch_2">
    <path d="M 39.65 273.312 
L 396.77 273.312 
L 396.77 7.2 
L 39.65 7.2 
z
" style="fill: #ffffff"/>
   </g>
   <g id="matplotlib.axis_1">
    <g id="xtick_1">
     <g id="line2d_1">
      <defs>
       <path id="mcd488445f2" d="M 0 0 
L 0 3.5 
" style="stroke: #000000; stroke-width: 0.8"/>
      </defs>
      <g>
       <use xlink:href="#mcd488445f2" x="55.882727" y="273.312" style="stroke: #000000; stroke-width: 0.8"/>
      </g>
     </g>
     <g id="text_1">
      <!-- 0.0 -->
      <g transform="translate(47.931165 287.910437) scale(0.1 -0.1)">
       <defs>
        <path id="DejaVuSans-30" d="M 2034 4250 
Q 1547 4250 1301 3770 
Q 1056 3291 1056 2328 
Q 1056 1369 1301 889 
Q 1547 409 2034 409 
Q 2525 409 2770 889 
Q 3016 1369 3016 2328 
Q 3016 3291 2770 3770 
Q 2525 4250 2034 4250 
z
M 2034 4750 
Q 2819 4750 3233 4129 
Q 3647 3509 3647 2328 
Q 3647 1150 3233 529 
Q 2819 -91 2034 -91 
Q 1250 -91 836 529 
Q 422 1150 422 2328 
Q 422 3509 836 4129 
Q 1250 4750 2034 4750 
z
" transform="scale(0.015625)"/>
        <path id="DejaVuSans-2e" d="M 684 794 
L 1344 794 
L 1344 0 
L 684 0 
L 684 794 
z
" transform="scale(0.015625)"/>
       </defs>
       <use xlink:href="#DejaVuSans-30"/>
       <use xlink:href="#DejaVuSans-2e" x="63.623047"/>
       <use xlink:href="#DejaVuSans-30" x="95.410156"/>
      </g>
     </g>
    </g>
    <g id="xtick_2">
     <g id="line2d_2">
      <g>
       <use xlink:href="#mcd488445f2" x="96.668474" y="273.312" style="stroke: #000000; stroke-width: 0.8"/>
      </g>
     </g>
     <g id="text_2">
      <!-- 2.5 -->
      <g transform="translate(88.716912 287.910437) scale(0.1 -0.1)">
       <defs>
        <path id="DejaVuSans-32" d="M 1228 531 
L 3431 531 
L 3431 0 
L 469 0 
L 469 531 
Q 828 903 1448 1529 
Q 2069 2156 2228 2338 
Q 2531 2678 2651 2914 
Q 2772 3150 2772 3378 
Q 2772 3750 2511 3984 
Q 2250 4219 1831 4219 
Q 1534 4219 1204 4116 
Q 875 4013 500 3803 
L 500 4441 
Q 881 4594 1212 4672 
Q 1544 4750 1819 4750 
Q 2544 4750 2975 4387 
Q 3406 4025 3406 3419 
Q 3406 3131 3298 2873 
Q 3191 2616 2906 2266 
Q 2828 2175 2409 1742 
Q 1991 1309 1228 531 
z
" transform="scale(0.015625)"/>
        <path id="DejaVuSans-35" d="M 691 4666 
L 3169 4666 
L 3169 4134 
L 1269 4134 
L 1269 2991 
Q 1406 3038 1543 3061 
Q 1681 3084 1819 3084 
Q 2600 3084 3056 2656 
Q 3513 2228 3513 1497 
Q 3513 744 3044 326 
Q 2575 -91 1722 -91 
Q 1428 -91 1123 -41 
Q 819 9 494 109 
L 494 744 
Q 775 591 1075 516 
Q 1375 441 1709 441 
Q 2250 441 2565 725 
Q 2881 1009 2881 1497 
Q 2881 1984 2565 2268 
Q 2250 2553 1709 2553 
Q 1456 2553 1204 2497 
Q 953 2441 691 2322 
L 691 4666 
z
" transform="scale(0.015625)"/>
       </defs>
       <use xlink:href="#DejaVuSans-32"/>
       <use xlink:href="#DejaVuSans-2e" x="63.623047"/>
       <use xlink:href="#DejaVuSans-35" x="95.410156"/>
      </g>
     </g>
    </g>
    <g id="xtick_3">
     <g id="line2d_3">
      <g>
       <use xlink:href="#mcd488445f2" x="137.454221" y="273.312" style="stroke: #000000; stroke-width: 0.8"/>
      </g>
     </g>
     <g id="text_3">
      <!-- 5.0 -->
      <g transform="translate(129.502659 287.910437) scale(0.1 -0.1)">
       <use xlink:href="#DejaVuSans-35"/>
       <use xlink:href="#DejaVuSans-2e" x="63.623047"/>
       <use xlink:href="#DejaVuSans-30" x="95.410156"/>
      </g>
     </g>
    </g>
    <g id="xtick_4">
     <g id="line2d_4">
      <g>
       <use xlink:href="#mcd488445f2" x="178.239968" y="273.312" style="stroke: #000000; stroke-width: 0.8"/>
      </g>
     </g>
     <g id="text_4">
      <!-- 7.5 -->
      <g transform="translate(170.288406 287.910437) scale(0.1 -0.1)">
       <defs>
        <path id="DejaVuSans-37" d="M 525 4666 
L 3525 4666 
L 3525 4397 
L 1831 0 
L 1172 0 
L 2766 4134 
L 525 4134 
L 525 4666 
z
" transform="scale(0.015625)"/>
       </defs>
       <use xlink:href="#DejaVuSans-37"/>
       <use xlink:href="#DejaVuSans-2e" x="63.623047"/>
       <use xlink:href="#DejaVuSans-35" x="95.410156"/>
      </g>
     </g>
    </g>
    <g id="xtick_5">
     <g id="line2d_5">
      <g>
       <use xlink:href="#mcd488445f2" x="219.025715" y="273.312" style="stroke: #000000; stroke-width: 0.8"/>
      </g>
     </g>
     <g id="text_5">
      <!-- 10.0 -->
      <g transform="translate(207.892902 287.910437) scale(0.1 -0.1)">
       <defs>
        <path id="DejaVuSans-31" d="M 794 531 
L 1825 531 
L 1825 4091 
L 703 3866 
L 703 4441 
L 1819 4666 
L 2450 4666 
L 2450 531 
L 3481 531 
L 3481 0 
L 794 0 
L 794 531 
z
" transform="scale(0.015625)"/>
       </defs>
       <use xlink:href="#DejaVuSans-31"/>
       <use xlink:href="#DejaVuSans-30" x="63.623047"/>
       <use xlink:href="#DejaVuSans-2e" x="127.246094"/>
       <use xlink:href="#DejaVuSans-30" x="159.033203"/>
      </g>
     </g>
    </g>
    <g id="xtick_6">
     <g id="line2d_6">
      <g>
       <use xlink:href="#mcd488445f2" x="259.811462" y="273.312" style="stroke: #000000; stroke-width: 0.8"/>
      </g>
     </g>
     <g id="text_6">
      <!-- 12.5 -->
      <g transform="translate(248.678649 287.910437) scale(0.1 -0.1)">
       <use xlink:href="#DejaVuSans-31"/>
       <use xlink:href="#DejaVuSans-32" x="63.623047"/>
       <use xlink:href="#DejaVuSans-2e" x="127.246094"/>
       <use xlink:href="#DejaVuSans-35" x="159.033203"/>
      </g>
     </g>
    </g>
    <g id="xtick_7">
     <g id="line2d_7">
      <g>
       <use xlink:href="#mcd488445f2" x="300.597209" y="273.312" style="stroke: #000000; stroke-width: 0.8"/>
      </g>
     </g>
     <g id="text_7">
      <!-- 15.0 -->
      <g transform="translate(289.464396 287.910437) scale(0.1 -0.1)">
       <use xlink:href="#DejaVuSans-31"/>
       <use xlink:href="#DejaVuSans-35" x="63.623047"/>
       <use xlink:href="#DejaVuSans-2e" x="127.246094"/>
       <use xlink:href="#DejaVuSans-30" x="159.033203"/>
      </g>
     </g>
    </g>
    <g id="xtick_8">
     <g id="line2d_8">
      <g>
       <use xlink:href="#mcd488445f2" x="341.382956" y="273.312" style="stroke: #000000; stroke-width: 0.8"/>
      </g>
     </g>
     <g id="text_8">
      <!-- 17.5 -->
      <g transform="translate(330.250143 287.910437) scale(0.1 -0.1)">
       <use xlink:href="#DejaVuSans-31"/>
       <use xlink:href="#DejaVuSans-37" x="63.623047"/>
       <use xlink:href="#DejaVuSans-2e" x="127.246094"/>
       <use xlink:href="#DejaVuSans-35" x="159.033203"/>
      </g>
     </g>
    </g>
    <g id="xtick_9">
     <g id="line2d_9">
      <g>
       <use xlink:href="#mcd488445f2" x="382.168703" y="273.312" style="stroke: #000000; stroke-width: 0.8"/>
      </g>
     </g>
     <g id="text_9">
      <!-- 20.0 -->
      <g transform="translate(371.03589 287.910437) scale(0.1 -0.1)">
       <use xlink:href="#DejaVuSans-32"/>
       <use xlink:href="#DejaVuSans-30" x="63.623047"/>
       <use xlink:href="#DejaVuSans-2e" x="127.246094"/>
       <use xlink:href="#DejaVuSans-30" x="159.033203"/>
      </g>
     </g>
    </g>
   </g>
   <g id="matplotlib.axis_2">
    <g id="ytick_1">
     <g id="line2d_10">
      <defs>
       <path id="m28d1f23f4d" d="M 0 0 
L -3.5 0 
" style="stroke: #000000; stroke-width: 0.8"/>
      </defs>
      <g>
       <use xlink:href="#m28d1f23f4d" x="39.65" y="261.216" style="stroke: #000000; stroke-width: 0.8"/>
      </g>
     </g>
     <g id="text_10">
      <!-- 0 -->
      <g transform="translate(26.2875 265.015219) scale(0.1 -0.1)">
       <use xlink:href="#DejaVuSans-30"/>
      </g>
     </g>
    </g>
    <g id="ytick_2">
     <g id="line2d_11">
      <g>
       <use xlink:href="#m28d1f23f4d" x="39.65" y="226.862876" style="stroke: #000000; stroke-width: 0.8"/>
      </g>
     </g>
     <g id="text_11">
      <!-- 500 -->
      <g transform="translate(13.5625 230.662095) scale(0.1 -0.1)">
       <use xlink:href="#DejaVuSans-35"/>
       <use xlink:href="#DejaVuSans-30" x="63.623047"/>
       <use xlink:href="#DejaVuSans-30" x="127.246094"/>
      </g>
     </g>
    </g>
    <g id="ytick_3">
     <g id="line2d_12">
      <g>
       <use xlink:href="#m28d1f23f4d" x="39.65" y="192.509752" style="stroke: #000000; stroke-width: 0.8"/>
      </g>
     </g>
     <g id="text_12">
      <!-- 1000 -->
      <g transform="translate(7.2 196.308971) scale(0.1 -0.1)">
       <use xlink:href="#DejaVuSans-31"/>
       <use xlink:href="#DejaVuSans-30" x="63.623047"/>
       <use xlink:href="#DejaVuSans-30" x="127.246094"/>
       <use xlink:href="#DejaVuSans-30" x="190.869141"/>
      </g>
     </g>
    </g>
    <g id="ytick_4">
     <g id="line2d_13">
      <g>
       <use xlink:href="#m28d1f23f4d" x="39.65" y="158.156628" style="stroke: #000000; stroke-width: 0.8"/>
      </g>
     </g>
     <g id="text_13">
      <!-- 1500 -->
      <g transform="translate(7.2 161.955847) scale(0.1 -0.1)">
       <use xlink:href="#DejaVuSans-31"/>
       <use xlink:href="#DejaVuSans-35" x="63.623047"/>
       <use xlink:href="#DejaVuSans-30" x="127.246094"/>
       <use xlink:href="#DejaVuSans-30" x="190.869141"/>
      </g>
     </g>
    </g>
    <g id="ytick_5">
     <g id="line2d_14">
      <g>
       <use xlink:href="#m28d1f23f4d" x="39.65" y="123.803504" style="stroke: #000000; stroke-width: 0.8"/>
      </g>
     </g>
     <g id="text_14">
      <!-- 2000 -->
      <g transform="translate(7.2 127.602722) scale(0.1 -0.1)">
       <use xlink:href="#DejaVuSans-32"/>
       <use xlink:href="#DejaVuSans-30" x="63.623047"/>
       <use xlink:href="#DejaVuSans-30" x="127.246094"/>
       <use xlink:href="#DejaVuSans-30" x="190.869141"/>
      </g>
     </g>
    </g>
    <g id="ytick_6">
     <g id="line2d_15">
      <g>
       <use xlink:href="#m28d1f23f4d" x="39.65" y="89.45038" style="stroke: #000000; stroke-width: 0.8"/>
      </g>
     </g>
     <g id="text_15">
      <!-- 2500 -->
      <g transform="translate(7.2 93.249598) scale(0.1 -0.1)">
       <use xlink:href="#DejaVuSans-32"/>
       <use xlink:href="#DejaVuSans-35" x="63.623047"/>
       <use xlink:href="#DejaVuSans-30" x="127.246094"/>
       <use xlink:href="#DejaVuSans-30" x="190.869141"/>
      </g>
     </g>
    </g>
    <g id="ytick_7">
     <g id="line2d_16">
      <g>
       <use xlink:href="#m28d1f23f4d" x="39.65" y="55.097256" style="stroke: #000000; stroke-width: 0.8"/>
      </g>
     </g>
     <g id="text_16">
      <!-- 3000 -->
      <g transform="translate(7.2 58.896474) scale(0.1 -0.1)">
       <defs>
        <path id="DejaVuSans-33" d="M 2597 2516 
Q 3050 2419 3304 2112 
Q 3559 1806 3559 1356 
Q 3559 666 3084 287 
Q 2609 -91 1734 -91 
Q 1441 -91 1130 -33 
Q 819 25 488 141 
L 488 750 
Q 750 597 1062 519 
Q 1375 441 1716 441 
Q 2309 441 2620 675 
Q 2931 909 2931 1356 
Q 2931 1769 2642 2001 
Q 2353 2234 1838 2234 
L 1294 2234 
L 1294 2753 
L 1863 2753 
Q 2328 2753 2575 2939 
Q 2822 3125 2822 3475 
Q 2822 3834 2567 4026 
Q 2313 4219 1838 4219 
Q 1578 4219 1281 4162 
Q 984 4106 628 3988 
L 628 4550 
Q 988 4650 1302 4700 
Q 1616 4750 1894 4750 
Q 2613 4750 3031 4423 
Q 3450 4097 3450 3541 
Q 3450 3153 3228 2886 
Q 3006 2619 2597 2516 
z
" transform="scale(0.015625)"/>
       </defs>
       <use xlink:href="#DejaVuSans-33"/>
       <use xlink:href="#DejaVuSans-30" x="63.623047"/>
       <use xlink:href="#DejaVuSans-30" x="127.246094"/>
       <use xlink:href="#DejaVuSans-30" x="190.869141"/>
      </g>
     </g>
    </g>
    <g id="ytick_8">
     <g id="line2d_17">
      <g>
       <use xlink:href="#m28d1f23f4d" x="39.65" y="20.744132" style="stroke: #000000; stroke-width: 0.8"/>
      </g>
     </g>
     <g id="text_17">
      <!-- 3500 -->
      <g transform="translate(7.2 24.54335) scale(0.1 -0.1)">
       <use xlink:href="#DejaVuSans-33"/>
       <use xlink:href="#DejaVuSans-35" x="63.623047"/>
       <use xlink:href="#DejaVuSans-30" x="127.246094"/>
       <use xlink:href="#DejaVuSans-30" x="190.869141"/>
      </g>
     </g>
    </g>
   </g>
   <g id="line2d_18">
    <path d="M 55.882727 261.216 
L 72.197026 192.509752 
L 88.511325 143.281725 
L 104.825624 108.009844 
L 121.139922 82.737541 
L 137.454221 64.629936 
L 153.76852 51.655837 
L 170.082819 42.359895 
L 186.397117 35.699353 
L 202.711416 30.927074 
L 219.025715 27.507736 
L 235.340014 25.057781 
L 251.654312 23.302388 
L 267.968611 22.044649 
L 284.28291 21.143479 
L 300.597209 20.49779 
L 316.911508 20.035155 
L 333.225806 19.703676 
L 349.540105 19.466172 
L 365.854404 19.296 
" clip-path="url(#pa055b92f33)" style="fill: none; stroke: #1f77b4; stroke-width: 1.5; stroke-linecap: square"/>
   </g>
   <g id="line2d_19">
    <path d="M 55.882727 261.216 
L 72.197026 261.216 
L 88.511325 238.313917 
L 104.825624 210.146646 
L 121.139922 183.928275 
L 137.454221 162.043662 
L 153.76852 144.772234 
L 170.082819 131.580383 
L 186.397117 121.709039 
L 202.711416 114.420911 
L 219.025715 109.088426 
L 235.340014 105.210949 
L 251.654312 102.4036 
L 267.968611 100.377177 
L 284.28291 98.917564 
L 300.597209 97.867809 
L 316.911508 97.113636 
L 333.225806 96.572231 
L 349.540105 96.183781 
L 365.854404 95.905183 
" clip-path="url(#pa055b92f33)" style="fill: none; stroke: #ff7f0e; stroke-width: 1.5; stroke-linecap: square"/>
   </g>
   <g id="line2d_20">
    <path d="M 55.882727 261.216 
L 59.145587 249.1237 
L 60.777017 243.489788 
L 62.408447 236.893988 
L 65.671307 224.939101 
L 68.934166 214.907989 
L 70.565596 210.373376 
L 72.197026 205.426527 
L 73.828456 202.266039 
L 75.459886 198.76202 
L 78.722746 190.379858 
L 81.985605 180.82969 
L 83.617035 177.463084 
L 85.248465 172.172702 
L 86.879895 169.149627 
L 88.511325 165.851728 
L 90.142755 161.866765 
L 91.774185 159.94299 
L 93.405614 155.270965 
L 95.037044 152.522715 
L 96.668474 149.224816 
L 98.299904 146.682684 
L 101.562764 141.117478 
L 103.194194 139.331116 
L 104.825624 136.308041 
L 106.457053 134.109441 
L 108.088483 131.429897 
L 109.719913 129.300004 
L 111.351343 126.139516 
L 112.982773 123.87221 
L 116.245633 120.299485 
L 117.877063 119.131479 
L 119.508492 116.795466 
L 121.139922 113.772392 
L 122.771352 112.604385 
L 124.402782 111.711204 
L 127.665642 108.207185 
L 129.297072 107.38271 
L 130.928502 105.73376 
L 132.559931 103.809986 
L 134.191361 101.611386 
L 135.822791 100.993029 
L 139.085651 96.801948 
L 140.717081 95.633942 
L 142.348511 93.572755 
L 143.979941 93.229223 
L 145.61137 91.992511 
L 148.87423 86.289892 
L 150.50566 86.015067 
L 152.13709 85.328005 
L 153.76852 84.022586 
L 155.39995 82.991992 
L 157.03138 82.579755 
L 158.66281 81.686574 
L 160.294239 80.930805 
L 161.925669 81.136924 
L 163.557099 78.869617 
L 165.188529 78.113849 
L 166.819959 77.770317 
L 170.082819 75.503011 
L 171.714249 74.06018 
L 173.345678 72.273818 
L 174.977108 70.899693 
L 176.608538 71.037105 
L 178.239968 70.830986 
L 179.871398 70.899693 
L 181.502828 69.800393 
L 183.134258 69.66298 
L 184.765688 70.006511 
L 186.397117 69.66298 
L 188.028547 69.044624 
L 189.659977 68.701093 
L 191.291407 68.975918 
L 192.922837 69.66298 
L 194.554267 69.250743 
L 196.185697 69.319449 
L 197.817127 68.632386 
L 199.448556 68.769799 
L 201.079986 67.807911 
L 202.711416 66.158962 
L 204.342846 66.639905 
L 205.974276 67.876618 
L 207.605706 66.846024 
L 209.237136 65.952843 
L 212.499995 67.533087 
L 214.131425 66.502493 
L 215.762855 66.777318 
L 217.394285 68.494974 
L 219.025715 68.769799 
L 220.657145 68.01403 
L 222.288575 67.945324 
L 223.920005 67.601793 
L 225.551434 66.983437 
L 227.182864 64.029068 
L 228.814294 63.135887 
L 230.445724 63.135887 
L 232.077154 61.624349 
L 233.708584 61.41823 
L 235.340014 62.998474 
L 236.971444 62.586237 
L 238.602873 61.830468 
L 240.234303 62.242705 
L 241.865733 62.792355 
L 243.497163 61.693055 
L 245.128593 61.074699 
L 246.760023 59.357043 
L 248.391453 60.456343 
L 250.022883 61.212112 
L 251.654312 61.693055 
L 253.285742 60.937287 
L 254.917172 61.280818 
L 258.180032 61.143405 
L 259.811462 61.830468 
L 261.442892 61.486937 
L 263.074322 60.799874 
L 266.337181 60.799874 
L 267.968611 59.837987 
L 269.600041 59.631868 
L 271.231471 57.845506 
L 272.862901 59.288337 
L 274.494331 59.837987 
L 276.125761 59.082218 
L 277.75719 57.433268 
L 279.38862 57.227149 
L 281.02005 57.501974 
L 282.65148 56.883618 
L 284.28291 55.509493 
L 285.91434 56.127849 
L 287.54577 57.639387 
L 289.1772 58.120331 
L 290.80863 56.127849 
L 292.440059 55.440787 
L 294.071489 56.402674 
L 295.702919 57.776799 
L 297.334349 58.326449 
L 298.965779 57.914212 
L 300.597209 56.883618 
L 302.228639 55.578199 
L 303.860069 56.265262 
L 305.491498 56.814912 
L 307.122928 56.471381 
L 308.754358 55.646906 
L 310.385788 55.440787 
L 312.017218 55.646906 
L 313.648648 56.540087 
L 315.280078 55.303374 
L 316.911508 55.784318 
L 318.542937 58.051624 
L 320.174367 59.357043 
L 321.805797 61.349524 
L 323.437227 60.387637 
L 325.068657 59.906693 
L 326.700087 58.944805 
L 328.331517 59.631868 
L 331.594376 58.257743 
L 333.225806 58.051624 
L 334.857236 58.463862 
L 336.488666 58.66998 
L 338.120096 59.494455 
L 339.751526 59.563162 
L 341.382956 59.76928 
L 343.014386 59.563162 
L 344.645815 60.181518 
L 347.908675 62.448824 
L 349.540105 61.624349 
L 351.171535 59.837987 
L 352.802965 58.876099 
L 354.434395 56.814912 
L 356.065825 57.433268 
L 357.697254 57.639387 
L 359.328684 57.021031 
L 360.960114 57.089737 
L 362.591544 57.364562 
L 364.222974 56.333968 
L 367.485834 54.685018 
L 369.117264 54.204074 
L 370.748693 54.685018 
L 372.380123 56.196556 
L 374.011553 55.303374 
L 375.642983 55.028549 
L 377.274413 55.234668 
L 378.905843 54.891137 
L 380.537273 55.165962 
L 380.537273 55.165962 
" clip-path="url(#pa055b92f33)" style="fill: none; stroke: #2ca02c; stroke-width: 1.5; stroke-linecap: square"/>
   </g>
   <g id="line2d_21">
    <path d="M 55.882727 261.216 
L 59.145587 261.009881 
L 60.777017 260.66635 
L 62.408447 260.185406 
L 64.039877 259.0174 
L 67.302736 256.956213 
L 68.934166 255.650794 
L 72.197026 253.452194 
L 73.828456 251.459713 
L 75.459886 249.67335 
L 77.091316 248.711463 
L 78.722746 246.9251 
L 80.354175 244.932619 
L 83.617035 242.321782 
L 86.879895 238.749057 
L 88.511325 237.237519 
L 90.142755 234.970213 
L 91.774185 233.046438 
L 93.405614 231.397488 
L 95.037044 230.09207 
L 96.668474 228.237001 
L 103.194194 222.671795 
L 106.457053 218.892951 
L 108.088483 217.656239 
L 109.719913 215.388932 
L 111.351343 214.427045 
L 112.982773 212.365858 
L 114.614203 212.297151 
L 116.245633 211.472676 
L 117.877063 210.029845 
L 119.508492 209.480195 
L 121.139922 208.793133 
L 122.771352 206.731945 
L 124.402782 204.121108 
L 127.665642 202.678277 
L 129.297072 201.716389 
L 130.928502 200.41097 
L 134.191361 200.067439 
L 135.822791 196.700833 
L 137.454221 196.563421 
L 139.085651 195.945064 
L 140.717081 193.883877 
L 142.348511 193.540346 
L 143.979941 192.784577 
L 145.61137 190.379858 
L 147.2428 188.799614 
L 148.87423 189.211852 
L 150.50566 187.219371 
L 152.13709 184.883358 
L 153.76852 184.952065 
L 155.39995 183.371821 
L 157.03138 183.303115 
L 158.66281 181.035808 
L 160.294239 181.310633 
L 161.925669 179.18074 
L 163.557099 180.142627 
L 165.188529 181.722871 
L 166.819959 181.035808 
L 168.451389 180.142627 
L 170.082819 177.600496 
L 171.714249 178.562383 
L 173.345678 176.776021 
L 174.977108 176.569902 
L 176.608538 174.302596 
L 179.871398 173.272002 
L 181.502828 172.447527 
L 183.134258 173.272002 
L 184.765688 171.416934 
L 186.397117 171.348227 
L 188.028547 170.867284 
L 189.659977 170.867284 
L 191.291407 169.424452 
L 192.922837 169.080921 
L 194.554267 169.83669 
L 196.185697 169.561865 
L 197.817127 168.462565 
L 199.448556 168.531271 
L 201.079986 167.775503 
L 202.711416 167.63809 
L 204.342846 167.363265 
L 205.974276 167.500678 
L 207.605706 166.744909 
L 209.237136 166.332671 
L 212.499995 164.752428 
L 214.131425 165.370784 
L 215.762855 165.714315 
L 217.394285 164.546309 
L 219.025715 165.370784 
L 220.657145 165.851728 
L 222.288575 164.88984 
L 223.920005 167.019734 
L 225.551434 167.500678 
L 227.182864 167.63809 
L 228.814294 167.431971 
L 230.445724 167.08844 
L 232.077154 168.73739 
L 233.708584 167.981621 
L 235.340014 168.73739 
L 236.971444 168.599978 
L 238.602873 168.73739 
L 240.234303 167.844209 
L 241.865733 165.714315 
L 245.128593 165.095959 
L 246.760023 165.576903 
L 248.391453 165.027253 
L 250.022883 163.859246 
L 251.654312 162.828653 
L 253.285742 163.721834 
L 254.917172 163.378303 
L 256.548602 164.202778 
L 258.180032 164.821134 
L 259.811462 164.408896 
L 261.442892 165.164665 
L 263.074322 164.34019 
L 264.705751 164.202778 
L 266.337181 162.828653 
L 267.968611 164.683721 
L 269.600041 165.164665 
L 271.231471 165.233371 
L 272.862901 163.996659 
L 274.494331 164.271484 
L 276.125761 165.302078 
L 277.75719 166.126553 
L 279.38862 165.851728 
L 281.02005 165.851728 
L 282.65148 164.821134 
L 284.28291 164.477603 
L 285.91434 163.378303 
L 287.54577 161.798059 
L 289.1772 161.248409 
L 290.80863 162.14159 
L 294.071489 158.706278 
L 295.702919 157.813097 
L 297.334349 158.637572 
L 298.965779 158.500159 
L 300.597209 157.950509 
L 302.228639 159.324634 
L 303.860069 158.29404 
L 305.491498 157.881803 
L 307.122928 158.568865 
L 308.754358 160.011696 
L 310.385788 159.668165 
L 312.017218 159.668165 
L 313.648648 158.225334 
L 315.280078 158.225334 
L 316.911508 158.431453 
L 318.542937 156.782503 
L 320.174367 156.09544 
L 321.805797 154.927434 
L 323.437227 155.54579 
L 325.068657 156.782503 
L 326.700087 157.19474 
L 328.331517 155.889322 
L 329.962947 156.232853 
L 331.594376 156.164147 
L 333.225806 158.29404 
L 334.857236 157.881803 
L 336.488666 156.713797 
L 338.120096 156.713797 
L 339.751526 156.851209 
L 341.382956 155.820615 
L 343.014386 156.919915 
L 344.645815 155.820615 
L 346.277245 156.09544 
L 347.908675 155.477084 
L 351.171535 159.118515 
L 352.802965 159.94299 
L 354.434395 161.04229 
L 356.065825 162.759946 
L 357.697254 162.622534 
L 359.328684 162.210296 
L 360.960114 162.347709 
L 362.591544 160.973584 
L 364.222974 162.14159 
L 367.485834 160.286521 
L 369.117264 160.011696 
L 372.380123 158.84369 
L 374.011553 160.561346 
L 377.274413 160.973584 
L 378.905843 162.072884 
L 380.537273 161.317115 
L 380.537273 161.317115 
" clip-path="url(#pa055b92f33)" style="fill: none; stroke: #d62728; stroke-width: 1.5; stroke-linecap: square"/>
   </g>
   <g id="patch_3">
    <path d="M 39.65 273.312 
L 39.65 7.2 
" style="fill: none; stroke: #000000; stroke-width: 0.8; stroke-linejoin: miter; stroke-linecap: square"/>
   </g>
   <g id="patch_4">
    <path d="M 396.77 273.312 
L 396.77 7.2 
" style="fill: none; stroke: #000000; stroke-width: 0.8; stroke-linejoin: miter; stroke-linecap: square"/>
   </g>
   <g id="patch_5">
    <path d="M 39.65 273.312 
L 396.77 273.312 
" style="fill: none; stroke: #000000; stroke-width: 0.8; stroke-linejoin: miter; stroke-linecap: square"/>
   </g>
   <g id="patch_6">
    <path d="M 39.65 7.2 
L 396.77 7.2 
" style="fill: none; stroke: #000000; stroke-width: 0.8; stroke-linejoin: miter; stroke-linecap: square"/>
   </g>
  </g>
 </g>
 <defs>
  <clipPath id="pa055b92f33">
   <rect x="39.65" y="7.2" width="357.12" height="266.112"/>
  </clipPath>
 </defs>
</svg>
