<?xml version="1.0" encoding="utf-8" standalone="no"?>
<!DOCTYPE svg PUBLIC "-//W3C//DTD SVG 1.1//EN"
  "http://www.w3.org/Graphics/SVG/1.1/DTD/svg11.dtd">
<svg xmlns:xlink="http://www.w3.org/1999/xlink" width="646.665057pt" height="392.514375pt" viewBox="0 0 646.665057 392.514375" xmlns="http://www.w3.org/2000/svg" version="1.1">
 <metadata>
  <rdf:RDF xmlns:dc="http://purl.org/dc/elements/1.1/" xmlns:cc="http://creativecommons.org/ns#" xmlns:rdf="http://www.w3.org/1999/02/22-rdf-syntax-ns#">
   <cc:Work>
    <dc:type rdf:resource="http://purl.org/dc/dcmitype/StillImage"/>
    <dc:date>2026-01-28T01:53:57.902793</dc:date>
    <dc:format>image/svg+xml</dc:format>
    <dc:creator>
     <cc:Agent>
      <dc:title>Matplotlib v3.10.8, https://matplotlib.org/</dc:title>
     </cc:Agent>
    </dc:creator>
   </cc:Work>
  </rdf:RDF>
 </metadata>
 <defs>
  <style type="text/css">*{stroke-linejoin: round; stroke-linecap: butt}</style>
 </defs>
 <g id="figure_1">
  <g id="patch_1">
   <path d="M 0 392.514375 
L 646.665057 392.514375 
L 646.665057 0 
L 0 0 
L 0 392.514375 
z
" style="fill: none; opacity: 0"/>
  </g>
  <g id="axes_1">
   <g id="patch_2">
    <path d="M 49.385938 173.518125 
L 252.295028 173.518125 
L 252.295028 22.318125 
L 49.385938 22.318125 
L 49.385938 173.518125 
z
" style="fill: none; opacity: 0"/>
   </g>
   <g id="PathCollection_1">
    <defs>
     <path id="C0_0_80e73adfa4" d="M 0 3.162278 
C 0.838646 3.162278 1.643056 2.82908 2.236068 2.236068 
C 2.82908 1.643056 3.162278 0.838646 3.162278 -0 
C 3.162278 -0.838646 2.82908 -1.643056 2.236068 -2.236068 
C 1.643056 -2.82908 0.838646 -3.162278 0 -3.162278 
C -0.838646 -3.162278 -1.643056 -2.82908 -2.236068 -2.236068 
C -2.82908 -1.643056 -3.162278 -0.838646 -3.162278 0 
C -3.162278 0.838646 -2.82908 1.643056 -2.236068 2.236068 
C -1.643056 2.82908 -0.838646 3.162278 0 3.162278 
z
"/>
    </defs>
    <g clip-path="url(#p54d7c68151)">
     <use xlink:href="#C0_0_80e73adfa4" x="49.385937" y="38.193922" style="fill: none; stroke: #377eb8; stroke-width: 3"/>
    </g>
    <g clip-path="url(#p54d7c68151)">
     <use xlink:href="#C0_0_80e73adfa4" x="55.18334" y="38.870543" style="fill: none; stroke: #377eb8; stroke-width: 3"/>
    </g>
    <g clip-path="url(#p54d7c68151)">
     <use xlink:href="#C0_0_80e73adfa4" x="60.980743" y="39.547164" style="fill: none; stroke: #377eb8; stroke-width: 3"/>
    </g>
    <g clip-path="url(#p54d7c68151)">
     <use xlink:href="#C0_0_80e73adfa4" x="66.778145" y="40.223785" style="fill: none; stroke: #377eb8; stroke-width: 3"/>
    </g>
    <g clip-path="url(#p54d7c68151)">
     <use xlink:href="#C0_0_80e73adfa4" x="72.575548" y="41.03573" style="fill: none; stroke: #377eb8; stroke-width: 3"/>
    </g>
    <g clip-path="url(#p54d7c68151)">
     <use xlink:href="#C0_0_80e73adfa4" x="78.37295" y="41.847676" style="fill: none; stroke: #377eb8; stroke-width: 3"/>
    </g>
    <g clip-path="url(#p54d7c68151)">
     <use xlink:href="#C0_0_80e73adfa4" x="84.170353" y="42.659621" style="fill: none; stroke: #377eb8; stroke-width: 3"/>
    </g>
    <g clip-path="url(#p54d7c68151)">
     <use xlink:href="#C0_0_80e73adfa4" x="89.967756" y="43.742214" style="fill: none; stroke: #377eb8; stroke-width: 3"/>
    </g>
    <g clip-path="url(#p54d7c68151)">
     <use xlink:href="#C0_0_80e73adfa4" x="95.765158" y="45.230781" style="fill: none; stroke: #377eb8; stroke-width: 3"/>
    </g>
    <g clip-path="url(#p54d7c68151)">
     <use xlink:href="#C0_0_80e73adfa4" x="101.562561" y="46.989995" style="fill: none; stroke: #377eb8; stroke-width: 3"/>
    </g>
    <g clip-path="url(#p54d7c68151)">
     <use xlink:href="#C0_0_80e73adfa4" x="107.359963" y="48.884534" style="fill: none; stroke: #377eb8; stroke-width: 3"/>
    </g>
    <g clip-path="url(#p54d7c68151)">
     <use xlink:href="#C0_0_80e73adfa4" x="113.157366" y="50.643749" style="fill: none; stroke: #377eb8; stroke-width: 3"/>
    </g>
    <g clip-path="url(#p54d7c68151)">
     <use xlink:href="#C0_0_80e73adfa4" x="118.954769" y="52.267639" style="fill: none; stroke: #377eb8; stroke-width: 3"/>
    </g>
    <g clip-path="url(#p54d7c68151)">
     <use xlink:href="#C0_0_80e73adfa4" x="124.752171" y="53.756205" style="fill: none; stroke: #377eb8; stroke-width: 3"/>
    </g>
    <g clip-path="url(#p54d7c68151)">
     <use xlink:href="#C0_0_80e73adfa4" x="130.549574" y="55.109447" style="fill: none; stroke: #377eb8; stroke-width: 3"/>
    </g>
    <g clip-path="url(#p54d7c68151)">
     <use xlink:href="#C0_0_80e73adfa4" x="136.346976" y="56.462689" style="fill: none; stroke: #377eb8; stroke-width: 3"/>
    </g>
    <g clip-path="url(#p54d7c68151)">
     <use xlink:href="#C0_0_80e73adfa4" x="142.144379" y="57.815932" style="fill: none; stroke: #377eb8; stroke-width: 3"/>
    </g>
    <g clip-path="url(#p54d7c68151)">
     <use xlink:href="#C0_0_80e73adfa4" x="147.941782" y="59.169174" style="fill: none; stroke: #377eb8; stroke-width: 3"/>
    </g>
   </g>
   <g id="PathCollection_2">
    <defs>
     <path id="C1_0_296bd6dde5" d="M 0 3.162278 
C 0.838646 3.162278 1.643056 2.82908 2.236068 2.236068 
C 2.82908 1.643056 3.162278 0.838646 3.162278 -0 
C 3.162278 -0.838646 2.82908 -1.643056 2.236068 -2.236068 
C 1.643056 -2.82908 0.838646 -3.162278 0 -3.162278 
C -0.838646 -3.162278 -1.643056 -2.82908 -2.236068 -2.236068 
C -2.82908 -1.643056 -3.162278 -0.838646 -3.162278 0 
C -3.162278 0.838646 -2.82908 1.643056 -2.236068 2.236068 
C -1.643056 2.82908 -0.838646 3.162278 0 3.162278 
z
"/>
    </defs>
    <g clip-path="url(#p54d7c68151)">
     <use xlink:href="#C1_0_296bd6dde5" x="49.385937" y="145.100042" style="fill: none; stroke: #e41a1c; stroke-width: 3"/>
    </g>
    <g clip-path="url(#p54d7c68151)">
     <use xlink:href="#C1_0_296bd6dde5" x="55.18334" y="145.370691" style="fill: none; stroke: #e41a1c; stroke-width: 3"/>
    </g>
    <g clip-path="url(#p54d7c68151)">
     <use xlink:href="#C1_0_296bd6dde5" x="60.980743" y="145.641339" style="fill: none; stroke: #e41a1c; stroke-width: 3"/>
    </g>
    <g clip-path="url(#p54d7c68151)">
     <use xlink:href="#C1_0_296bd6dde5" x="66.778145" y="145.911988" style="fill: none; stroke: #e41a1c; stroke-width: 3"/>
    </g>
    <g clip-path="url(#p54d7c68151)">
     <use xlink:href="#C1_0_296bd6dde5" x="72.575548" y="146.182636" style="fill: none; stroke: #e41a1c; stroke-width: 3"/>
    </g>
    <g clip-path="url(#p54d7c68151)">
     <use xlink:href="#C1_0_296bd6dde5" x="78.37295" y="146.453284" style="fill: none; stroke: #e41a1c; stroke-width: 3"/>
    </g>
    <g clip-path="url(#p54d7c68151)">
     <use xlink:href="#C1_0_296bd6dde5" x="84.170353" y="146.723933" style="fill: none; stroke: #e41a1c; stroke-width: 3"/>
    </g>
    <g clip-path="url(#p54d7c68151)">
     <use xlink:href="#C1_0_296bd6dde5" x="89.967756" y="146.994581" style="fill: none; stroke: #e41a1c; stroke-width: 3"/>
    </g>
    <g clip-path="url(#p54d7c68151)">
     <use xlink:href="#C1_0_296bd6dde5" x="95.765158" y="147.26523" style="fill: none; stroke: #e41a1c; stroke-width: 3"/>
    </g>
    <g clip-path="url(#p54d7c68151)">
     <use xlink:href="#C1_0_296bd6dde5" x="101.562561" y="147.535878" style="fill: none; stroke: #e41a1c; stroke-width: 3"/>
    </g>
    <g clip-path="url(#p54d7c68151)">
     <use xlink:href="#C1_0_296bd6dde5" x="107.359963" y="147.806526" style="fill: none; stroke: #e41a1c; stroke-width: 3"/>
    </g>
    <g clip-path="url(#p54d7c68151)">
     <use xlink:href="#C1_0_296bd6dde5" x="113.157366" y="148.077175" style="fill: none; stroke: #e41a1c; stroke-width: 3"/>
    </g>
    <g clip-path="url(#p54d7c68151)">
     <use xlink:href="#C1_0_296bd6dde5" x="118.954769" y="148.347823" style="fill: none; stroke: #e41a1c; stroke-width: 3"/>
    </g>
    <g clip-path="url(#p54d7c68151)">
     <use xlink:href="#C1_0_296bd6dde5" x="124.752171" y="148.618472" style="fill: none; stroke: #e41a1c; stroke-width: 3"/>
    </g>
    <g clip-path="url(#p54d7c68151)">
     <use xlink:href="#C1_0_296bd6dde5" x="130.549574" y="148.88912" style="fill: none; stroke: #e41a1c; stroke-width: 3"/>
    </g>
    <g clip-path="url(#p54d7c68151)">
     <use xlink:href="#C1_0_296bd6dde5" x="136.346976" y="149.159768" style="fill: none; stroke: #e41a1c; stroke-width: 3"/>
    </g>
    <g clip-path="url(#p54d7c68151)">
     <use xlink:href="#C1_0_296bd6dde5" x="142.144379" y="149.430417" style="fill: none; stroke: #e41a1c; stroke-width: 3"/>
    </g>
    <g clip-path="url(#p54d7c68151)">
     <use xlink:href="#C1_0_296bd6dde5" x="147.941782" y="149.701065" style="fill: none; stroke: #e41a1c; stroke-width: 3"/>
    </g>
   </g>
   <g id="matplotlib.axis_1">
    <g id="xtick_1">
     <g id="line2d_1">
      <defs>
       <path id="m40e66387a3" d="M 0 0 
L 0 3.5 
" style="stroke: #000000; stroke-width: 0.8"/>
      </defs>
      <g>
       <use xlink:href="#m40e66387a3" x="49.385937" y="173.518125" style="stroke: #000000; stroke-width: 0.8"/>
      </g>
     </g>
     <g id="text_1">
      <!-- 2000 -->
      <g transform="translate(36.660937 188.116562) scale(0.1 -0.1)">
       <defs>
        <path id="DejaVuSans-32" d="M 1228 531 
L 3431 531 
L 3431 0 
L 469 0 
L 469 531 
Q 828 903 1448 1529 
Q 2069 2156 2228 2338 
Q 2531 2678 2651 2914 
Q 2772 3150 2772 3378 
Q 2772 3750 2511 3984 
Q 2250 4219 1831 4219 
Q 1534 4219 1204 4116 
Q 875 4013 500 3803 
L 500 4441 
Q 881 4594 1212 4672 
Q 1544 4750 1819 4750 
Q 2544 4750 2975 4387 
Q 3406 4025 3406 3419 
Q 3406 3131 3298 2873 
Q 3191 2616 2906 2266 
Q 2828 2175 2409 1742 
Q 1991 1309 1228 531 
z
" transform="scale(0.015625)"/>
        <path id="DejaVuSans-30" d="M 2034 4250 
Q 1547 4250 1301 3770 
Q 1056 3291 1056 2328 
Q 1056 1369 1301 889 
Q 1547 409 2034 409 
Q 2525 409 2770 889 
Q 3016 1369 3016 2328 
Q 3016 3291 2770 3770 
Q 2525 4250 2034 4250 
z
M 2034 4750 
Q 2819 4750 3233 4129 
Q 3647 3509 3647 2328 
Q 3647 1150 3233 529 
Q 2819 -91 2034 -91 
Q 1250 -91 836 529 
Q 422 1150 422 2328 
Q 422 3509 836 4129 
Q 1250 4750 2034 4750 
z
" transform="scale(0.015625)"/>
       </defs>
       <use xlink:href="#DejaVuSans-32"/>
       <use xlink:href="#DejaVuSans-30" transform="translate(63.623047 0)"/>
       <use xlink:href="#DejaVuSans-30" transform="translate(127.246094 0)"/>
       <use xlink:href="#DejaVuSans-30" transform="translate(190.869141 0)"/>
      </g>
     </g>
    </g>
    <g id="xtick_2">
     <g id="line2d_2">
      <g>
       <use xlink:href="#m40e66387a3" x="107.359963" y="173.518125" style="stroke: #000000; stroke-width: 0.8"/>
      </g>
     </g>
     <g id="text_2">
      <!-- 2010 -->
      <g transform="translate(94.634963 188.116562) scale(0.1 -0.1)">
       <defs>
        <path id="DejaVuSans-31" d="M 794 531 
L 1825 531 
L 1825 4091 
L 703 3866 
L 703 4441 
L 1819 4666 
L 2450 4666 
L 2450 531 
L 3481 531 
L 3481 0 
L 794 0 
L 794 531 
z
" transform="scale(0.015625)"/>
       </defs>
       <use xlink:href="#DejaVuSans-32"/>
       <use xlink:href="#DejaVuSans-30" transform="translate(63.623047 0)"/>
       <use xlink:href="#DejaVuSans-31" transform="translate(127.246094 0)"/>
       <use xlink:href="#DejaVuSans-30" transform="translate(190.869141 0)"/>
      </g>
     </g>
    </g>
    <g id="xtick_3">
     <g id="line2d_3">
      <g>
       <use xlink:href="#m40e66387a3" x="165.333989" y="173.518125" style="stroke: #000000; stroke-width: 0.8"/>
      </g>
     </g>
     <g id="text_3">
      <!-- 2020 -->
      <g transform="translate(152.608989 188.116562) scale(0.1 -0.1)">
       <use xlink:href="#DejaVuSans-32"/>
       <use xlink:href="#DejaVuSans-30" transform="translate(63.623047 0)"/>
       <use xlink:href="#DejaVuSans-32" transform="translate(127.246094 0)"/>
       <use xlink:href="#DejaVuSans-30" transform="translate(190.869141 0)"/>
      </g>
     </g>
    </g>
    <g id="xtick_4">
     <g id="line2d_4">
      <g>
       <use xlink:href="#m40e66387a3" x="223.308015" y="173.518125" style="stroke: #000000; stroke-width: 0.8"/>
      </g>
     </g>
     <g id="text_4">
      <!-- 2030 -->
      <g transform="translate(210.583015 188.116562) scale(0.1 -0.1)">
       <defs>
        <path id="DejaVuSans-33" d="M 2597 2516 
Q 3050 2419 3304 2112 
Q 3559 1806 3559 1356 
Q 3559 666 3084 287 
Q 2609 -91 1734 -91 
Q 1441 -91 1130 -33 
Q 819 25 488 141 
L 488 750 
Q 750 597 1062 519 
Q 1375 441 1716 441 
Q 2309 441 2620 675 
Q 2931 909 2931 1356 
Q 2931 1769 2642 2001 
Q 2353 2234 1838 2234 
L 1294 2234 
L 1294 2753 
L 1863 2753 
Q 2328 2753 2575 2939 
Q 2822 3125 2822 3475 
Q 2822 3834 2567 4026 
Q 2313 4219 1838 4219 
Q 1578 4219 1281 4162 
Q 984 4106 628 3988 
L 628 4550 
Q 988 4650 1302 4700 
Q 1616 4750 1894 4750 
Q 2613 4750 3031 4423 
Q 3450 4097 3450 3541 
Q 3450 3153 3228 2886 
Q 3006 2619 2597 2516 
z
" transform="scale(0.015625)"/>
       </defs>
       <use xlink:href="#DejaVuSans-32"/>
       <use xlink:href="#DejaVuSans-30" transform="translate(63.623047 0)"/>
       <use xlink:href="#DejaVuSans-33" transform="translate(127.246094 0)"/>
       <use xlink:href="#DejaVuSans-30" transform="translate(190.869141 0)"/>
      </g>
     </g>
    </g>
    <g id="text_5">
     <!-- Year -->
     <g transform="translate(140.252983 201.794687) scale(0.1 -0.1)">
      <defs>
       <path id="DejaVuSans-59" d="M -13 4666 
L 666 4666 
L 1959 2747 
L 3244 4666 
L 3922 4666 
L 2272 2222 
L 2272 0 
L 1638 0 
L 1638 2222 
L -13 4666 
z
" transform="scale(0.015625)"/>
       <path id="DejaVuSans-65" d="M 3597 1894 
L 3597 1613 
L 953 1613 
Q 991 1019 1311 708 
Q 1631 397 2203 397 
Q 2534 397 2845 478 
Q 3156 559 3463 722 
L 3463 178 
Q 3153 47 2828 -22 
Q 2503 -91 2169 -91 
Q 1331 -91 842 396 
Q 353 884 353 1716 
Q 353 2575 817 3079 
Q 1281 3584 2069 3584 
Q 2775 3584 3186 3129 
Q 3597 2675 3597 1894 
z
M 3022 2063 
Q 3016 2534 2758 2815 
Q 2500 3097 2075 3097 
Q 1594 3097 1305 2825 
Q 1016 2553 972 2059 
L 3022 2063 
z
" transform="scale(0.015625)"/>
       <path id="DejaVuSans-61" d="M 2194 1759 
Q 1497 1759 1228 1600 
Q 959 1441 959 1056 
Q 959 750 1161 570 
Q 1363 391 1709 391 
Q 2188 391 2477 730 
Q 2766 1069 2766 1631 
L 2766 1759 
L 2194 1759 
z
M 3341 1997 
L 3341 0 
L 2766 0 
L 2766 531 
Q 2569 213 2275 61 
Q 1981 -91 1556 -91 
Q 1019 -91 701 211 
Q 384 513 384 1019 
Q 384 1609 779 1909 
Q 1175 2209 1959 2209 
L 2766 2209 
L 2766 2266 
Q 2766 2663 2505 2880 
Q 2244 3097 1772 3097 
Q 1472 3097 1187 3025 
Q 903 2953 641 2809 
L 641 3341 
Q 956 3463 1253 3523 
Q 1550 3584 1831 3584 
Q 2591 3584 2966 3190 
Q 3341 2797 3341 1997 
z
" transform="scale(0.015625)"/>
       <path id="DejaVuSans-72" d="M 2631 2963 
Q 2534 3019 2420 3045 
Q 2306 3072 2169 3072 
Q 1681 3072 1420 2755 
Q 1159 2438 1159 1844 
L 1159 0 
L 581 0 
L 581 3500 
L 1159 3500 
L 1159 2956 
Q 1341 3275 1631 3429 
Q 1922 3584 2338 3584 
Q 2397 3584 2469 3576 
Q 2541 3569 2628 3553 
L 2631 2963 
z
" transform="scale(0.015625)"/>
      </defs>
      <use xlink:href="#DejaVuSans-59"/>
      <use xlink:href="#DejaVuSans-65" transform="translate(47.833984 0)"/>
      <use xlink:href="#DejaVuSans-61" transform="translate(109.357422 0)"/>
      <use xlink:href="#DejaVuSans-72" transform="translate(170.636719 0)"/>
     </g>
    </g>
   </g>
   <g id="matplotlib.axis_2">
    <g id="ytick_1">
     <g id="line2d_5">
      <defs>
       <path id="m0496a6f31e" d="M 0 0 
L -3.5 0 
" style="stroke: #000000; stroke-width: 0.8"/>
      </defs>
      <g>
       <use xlink:href="#m0496a6f31e" x="49.385938" y="173.518125" style="stroke: #000000; stroke-width: 0.8"/>
      </g>
     </g>
     <g id="text_6">
      <!-- 0 -->
      <g transform="translate(36.023438 177.317344) scale(0.1 -0.1)">
       <use xlink:href="#DejaVuSans-30"/>
      </g>
     </g>
    </g>
    <g id="ytick_2">
     <g id="line2d_6">
      <g>
       <use xlink:href="#m0496a6f31e" x="49.385938" y="150.964091" style="stroke: #000000; stroke-width: 0.8"/>
      </g>
     </g>
     <g id="text_7">
      <!-- 250.0K -->
      <g transform="translate(7.2 154.76331) scale(0.1 -0.1)">
       <defs>
        <path id="DejaVuSans-35" d="M 691 4666 
L 3169 4666 
L 3169 4134 
L 1269 4134 
L 1269 2991 
Q 1406 3038 1543 3061 
Q 1681 3084 1819 3084 
Q 2600 3084 3056 2656 
Q 3513 2228 3513 1497 
Q 3513 744 3044 326 
Q 2575 -91 1722 -91 
Q 1428 -91 1123 -41 
Q 819 9 494 109 
L 494 744 
Q 775 591 1075 516 
Q 1375 441 1709 441 
Q 2250 441 2565 725 
Q 2881 1009 2881 1497 
Q 2881 1984 2565 2268 
Q 2250 2553 1709 2553 
Q 1456 2553 1204 2497 
Q 953 2441 691 2322 
L 691 4666 
z
" transform="scale(0.015625)"/>
        <path id="DejaVuSans-2e" d="M 684 794 
L 1344 794 
L 1344 0 
L 684 0 
L 684 794 
z
" transform="scale(0.015625)"/>
        <path id="DejaVuSans-4b" d="M 628 4666 
L 1259 4666 
L 1259 2694 
L 3353 4666 
L 4166 4666 
L 1850 2491 
L 4331 0 
L 3500 0 
L 1259 2247 
L 1259 0 
L 628 0 
L 628 4666 
z
" transform="scale(0.015625)"/>
       </defs>
       <use xlink:href="#DejaVuSans-32"/>
       <use xlink:href="#DejaVuSans-35" transform="translate(63.623047 0)"/>
       <use xlink:href="#DejaVuSans-30" transform="translate(127.246094 0)"/>
       <use xlink:href="#DejaVuSans-2e" transform="translate(190.869141 0)"/>
       <use xlink:href="#DejaVuSans-30" transform="translate(222.65625 0)"/>
       <use xlink:href="#DejaVuSans-4b" transform="translate(286.279297 0)"/>
      </g>
     </g>
    </g>
    <g id="ytick_3">
     <g id="line2d_7">
      <g>
       <use xlink:href="#m0496a6f31e" x="49.385938" y="128.410057" style="stroke: #000000; stroke-width: 0.8"/>
      </g>
     </g>
     <g id="text_8">
      <!-- 500.0K -->
      <g transform="translate(7.2 132.209276) scale(0.1 -0.1)">
       <use xlink:href="#DejaVuSans-35"/>
       <use xlink:href="#DejaVuSans-30" transform="translate(63.623047 0)"/>
       <use xlink:href="#DejaVuSans-30" transform="translate(127.246094 0)"/>
       <use xlink:href="#DejaVuSans-2e" transform="translate(190.869141 0)"/>
       <use xlink:href="#DejaVuSans-30" transform="translate(222.65625 0)"/>
       <use xlink:href="#DejaVuSans-4b" transform="translate(286.279297 0)"/>
      </g>
     </g>
    </g>
    <g id="ytick_4">
     <g id="line2d_8">
      <g>
       <use xlink:href="#m0496a6f31e" x="49.385938" y="105.856024" style="stroke: #000000; stroke-width: 0.8"/>
      </g>
     </g>
     <g id="text_9">
      <!-- 750.0K -->
      <g transform="translate(7.2 109.655242) scale(0.1 -0.1)">
       <defs>
        <path id="DejaVuSans-37" d="M 525 4666 
L 3525 4666 
L 3525 4397 
L 1831 0 
L 1172 0 
L 2766 4134 
L 525 4134 
L 525 4666 
z
" transform="scale(0.015625)"/>
       </defs>
       <use xlink:href="#DejaVuSans-37"/>
       <use xlink:href="#DejaVuSans-35" transform="translate(63.623047 0)"/>
       <use xlink:href="#DejaVuSans-30" transform="translate(127.246094 0)"/>
       <use xlink:href="#DejaVuSans-2e" transform="translate(190.869141 0)"/>
       <use xlink:href="#DejaVuSans-30" transform="translate(222.65625 0)"/>
       <use xlink:href="#DejaVuSans-4b" transform="translate(286.279297 0)"/>
      </g>
     </g>
    </g>
    <g id="ytick_5">
     <g id="line2d_9">
      <g>
       <use xlink:href="#m0496a6f31e" x="49.385938" y="83.30199" style="stroke: #000000; stroke-width: 0.8"/>
      </g>
     </g>
     <g id="text_10">
      <!-- 1.0M -->
      <g transform="translate(17.854688 87.101208) scale(0.1 -0.1)">
       <defs>
        <path id="DejaVuSans-4d" d="M 628 4666 
L 1569 4666 
L 2759 1491 
L 3956 4666 
L 4897 4666 
L 4897 0 
L 4281 0 
L 4281 4097 
L 3078 897 
L 2444 897 
L 1241 4097 
L 1241 0 
L 628 0 
L 628 4666 
z
" transform="scale(0.015625)"/>
       </defs>
       <use xlink:href="#DejaVuSans-31"/>
       <use xlink:href="#DejaVuSans-2e" transform="translate(63.623047 0)"/>
       <use xlink:href="#DejaVuSans-30" transform="translate(95.410156 0)"/>
       <use xlink:href="#DejaVuSans-4d" transform="translate(159.033203 0)"/>
      </g>
     </g>
    </g>
    <g id="ytick_6">
     <g id="line2d_10">
      <g>
       <use xlink:href="#m0496a6f31e" x="49.385938" y="60.747956" style="stroke: #000000; stroke-width: 0.8"/>
      </g>
     </g>
     <g id="text_11">
      <!-- 1.25M -->
      <g transform="translate(11.492188 64.547175) scale(0.1 -0.1)">
       <use xlink:href="#DejaVuSans-31"/>
       <use xlink:href="#DejaVuSans-2e" transform="translate(63.623047 0)"/>
       <use xlink:href="#DejaVuSans-32" transform="translate(95.410156 0)"/>
       <use xlink:href="#DejaVuSans-35" transform="translate(159.033203 0)"/>
       <use xlink:href="#DejaVuSans-4d" transform="translate(222.65625 0)"/>
      </g>
     </g>
    </g>
    <g id="ytick_7">
     <g id="line2d_11">
      <g>
       <use xlink:href="#m0496a6f31e" x="49.385938" y="38.193922" style="stroke: #000000; stroke-width: 0.8"/>
      </g>
     </g>
     <g id="text_12">
      <!-- 1.5M -->
      <g transform="translate(17.854688 41.993141) scale(0.1 -0.1)">
       <use xlink:href="#DejaVuSans-31"/>
       <use xlink:href="#DejaVuSans-2e" transform="translate(63.623047 0)"/>
       <use xlink:href="#DejaVuSans-35" transform="translate(95.410156 0)"/>
       <use xlink:href="#DejaVuSans-4d" transform="translate(159.033203 0)"/>
      </g>
     </g>
    </g>
   </g>
   <g id="line2d_12">
    <path d="M 49.385937 38.193922 
L 52.284639 37.463038 
L 55.18334 36.857075 
L 58.082041 36.364439 
L 60.980743 35.974181 
L 63.879444 35.676358 
L 66.778145 35.461965 
L 69.676847 35.322795 
L 72.575548 35.251452 
L 75.474249 35.241122 
L 78.37295 35.285816 
L 81.271652 35.380028 
L 84.170353 35.5877 
L 87.069054 35.897457 
L 89.967756 36.298915 
L 92.866457 36.782418 
L 95.765158 37.339453 
L 98.66386 37.96202 
L 101.562561 38.642907 
L 104.461262 39.375771 
L 107.359963 40.154651 
L 110.258665 40.974311 
L 113.157366 41.763754 
L 116.056067 42.52614 
L 118.954769 43.264303 
L 121.85347 43.980888 
L 124.752171 44.678372 
L 127.650873 45.358753 
L 130.549574 46.023737 
L 133.448275 46.67523 
L 136.346976 47.314959 
L 139.245678 47.944022 
L 142.144379 48.577027 
L 145.04308 49.213728 
L 147.941782 49.853921 
L 150.840483 50.497045 
L 153.739184 51.075009 
L 156.637886 51.594505 
L 159.536587 52.06145 
L 162.435288 52.481147 
L 165.333989 52.858366 
L 168.232691 53.197398 
L 171.131392 53.502105 
L 174.030093 53.775955 
L 176.928795 54.022071 
L 179.827496 54.243259 
L 182.726197 54.442042 
L 185.624899 54.62069 
L 188.5236 54.781242 
L 191.422301 54.925531 
L 194.321002 55.055206 
L 197.219704 55.171748 
L 200.118405 55.27649 
L 203.017106 55.370628 
L 205.915808 55.455238 
L 208.814509 55.531287 
L 211.71321 55.599645 
L 214.611912 55.661091 
L 217.510613 55.716329 
L 220.409314 55.765987 
L 223.308015 55.810634 
L 226.206717 55.850777 
L 229.105418 55.886874 
L 232.004119 55.919335 
L 234.902821 55.94853 
L 237.801522 55.97479 
L 240.700223 55.998412 
L 243.598925 56.019665 
L 246.497626 56.038787 
L 249.396327 56.055996 
L 252.295028 56.071484 
" clip-path="url(#p54d7c68151)" style="fill: none; stroke: #377eb8; stroke-width: 3; stroke-linecap: square"/>
   </g>
   <g id="line2d_13">
    <path d="M 49.385937 145.100042 
L 52.284639 145.235367 
L 55.18334 145.370691 
L 58.082041 145.506015 
L 60.980743 145.641339 
L 63.879444 145.776663 
L 66.778145 145.911988 
L 69.676847 146.047312 
L 72.575548 146.182636 
L 75.474249 146.31796 
L 78.37295 146.453284 
L 81.271652 146.588609 
L 84.170353 146.723933 
L 87.069054 146.859257 
L 89.967756 146.994581 
L 92.866457 147.129905 
L 95.765158 147.26523 
L 98.66386 147.400554 
L 101.562561 147.535878 
L 104.461262 147.671202 
L 107.359963 147.806526 
L 110.258665 147.941851 
L 113.157366 148.077175 
L 116.056067 148.212499 
L 118.954769 148.347823 
L 121.85347 148.483147 
L 124.752171 148.618472 
L 127.650873 148.753796 
L 130.549574 148.88912 
L 133.448275 149.024444 
L 136.346976 149.159768 
L 139.245678 149.295093 
L 142.144379 149.430417 
L 145.04308 149.565741 
L 147.941782 149.701065 
L 150.840483 149.701065 
L 153.739184 149.701065 
L 156.637886 149.701065 
L 159.536587 149.701065 
L 162.435288 149.701065 
L 165.333989 149.701065 
L 168.232691 149.701065 
L 171.131392 149.701065 
L 174.030093 149.701065 
L 176.928795 149.701065 
L 179.827496 149.701065 
L 182.726197 149.701065 
L 185.624899 149.701065 
L 188.5236 149.701065 
L 191.422301 149.701065 
L 194.321002 149.701065 
L 197.219704 149.701065 
L 200.118405 149.701065 
L 203.017106 149.701065 
L 205.915808 149.701065 
L 208.814509 149.701065 
L 211.71321 149.701065 
L 214.611912 149.701065 
L 217.510613 149.701065 
L 220.409314 149.701065 
L 223.308015 149.701065 
L 226.206717 149.701065 
L 229.105418 149.701065 
L 232.004119 149.701065 
L 234.902821 149.701065 
L 237.801522 149.701065 
L 240.700223 149.701065 
L 243.598925 149.701065 
L 246.497626 149.701065 
L 249.396327 149.701065 
L 252.295028 149.701065 
" clip-path="url(#p54d7c68151)" style="fill: none; stroke: #e41a1c; stroke-width: 3; stroke-linecap: square"/>
   </g>
   <g id="patch_3">
    <path d="M 49.385938 173.518125 
L 49.385938 22.318125 
" style="fill: none; stroke: #000000; stroke-width: 0.8; stroke-linejoin: miter; stroke-linecap: square"/>
   </g>
   <g id="patch_4">
    <path d="M 252.295028 173.518125 
L 252.295028 22.318125 
" style="fill: none"/>
   </g>
   <g id="patch_5">
    <path d="M 49.385937 173.518125 
L 252.295028 173.518125 
" style="fill: none; stroke: #000000; stroke-width: 0.8; stroke-linejoin: miter; stroke-linecap: square"/>
   </g>
   <g id="patch_6">
    <path d="M 49.385937 22.318125 
L 252.295028 22.318125 
" style="fill: none"/>
   </g>
   <g id="text_13">
    <!-- Baseline-0-4 -->
    <g transform="translate(113.437045 16.318125) scale(0.12 -0.12)">
     <defs>
      <path id="DejaVuSans-42" d="M 1259 2228 
L 1259 519 
L 2272 519 
Q 2781 519 3026 730 
Q 3272 941 3272 1375 
Q 3272 1813 3026 2020 
Q 2781 2228 2272 2228 
L 1259 2228 
z
M 1259 4147 
L 1259 2741 
L 2194 2741 
Q 2656 2741 2882 2914 
Q 3109 3088 3109 3444 
Q 3109 3797 2882 3972 
Q 2656 4147 2194 4147 
L 1259 4147 
z
M 628 4666 
L 2241 4666 
Q 2963 4666 3353 4366 
Q 3744 4066 3744 3513 
Q 3744 3084 3544 2831 
Q 3344 2578 2956 2516 
Q 3422 2416 3680 2098 
Q 3938 1781 3938 1306 
Q 3938 681 3513 340 
Q 3088 0 2303 0 
L 628 0 
L 628 4666 
z
" transform="scale(0.015625)"/>
      <path id="DejaVuSans-73" d="M 2834 3397 
L 2834 2853 
Q 2591 2978 2328 3040 
Q 2066 3103 1784 3103 
Q 1356 3103 1142 2972 
Q 928 2841 928 2578 
Q 928 2378 1081 2264 
Q 1234 2150 1697 2047 
L 1894 2003 
Q 2506 1872 2764 1633 
Q 3022 1394 3022 966 
Q 3022 478 2636 193 
Q 2250 -91 1575 -91 
Q 1294 -91 989 -36 
Q 684 19 347 128 
L 347 722 
Q 666 556 975 473 
Q 1284 391 1588 391 
Q 1994 391 2212 530 
Q 2431 669 2431 922 
Q 2431 1156 2273 1281 
Q 2116 1406 1581 1522 
L 1381 1569 
Q 847 1681 609 1914 
Q 372 2147 372 2553 
Q 372 3047 722 3315 
Q 1072 3584 1716 3584 
Q 2034 3584 2315 3537 
Q 2597 3491 2834 3397 
z
" transform="scale(0.015625)"/>
      <path id="DejaVuSans-6c" d="M 603 4863 
L 1178 4863 
L 1178 0 
L 603 0 
L 603 4863 
z
" transform="scale(0.015625)"/>
      <path id="DejaVuSans-69" d="M 603 3500 
L 1178 3500 
L 1178 0 
L 603 0 
L 603 3500 
z
M 603 4863 
L 1178 4863 
L 1178 4134 
L 603 4134 
L 603 4863 
z
" transform="scale(0.015625)"/>
      <path id="DejaVuSans-6e" d="M 3513 2113 
L 3513 0 
L 2938 0 
L 2938 2094 
Q 2938 2591 2744 2837 
Q 2550 3084 2163 3084 
Q 1697 3084 1428 2787 
Q 1159 2491 1159 1978 
L 1159 0 
L 581 0 
L 581 3500 
L 1159 3500 
L 1159 2956 
Q 1366 3272 1645 3428 
Q 1925 3584 2291 3584 
Q 2894 3584 3203 3211 
Q 3513 2838 3513 2113 
z
" transform="scale(0.015625)"/>
      <path id="DejaVuSans-2d" d="M 313 2009 
L 1997 2009 
L 1997 1497 
L 313 1497 
L 313 2009 
z
" transform="scale(0.015625)"/>
      <path id="DejaVuSans-34" d="M 2419 4116 
L 825 1625 
L 2419 1625 
L 2419 4116 
z
M 2253 4666 
L 3047 4666 
L 3047 1625 
L 3713 1625 
L 3713 1100 
L 3047 1100 
L 3047 0 
L 2419 0 
L 2419 1100 
L 313 1100 
L 313 1709 
L 2253 4666 
z
" transform="scale(0.015625)"/>
     </defs>
     <use xlink:href="#DejaVuSans-42"/>
     <use xlink:href="#DejaVuSans-61" transform="translate(68.603516 0)"/>
     <use xlink:href="#DejaVuSans-73" transform="translate(129.882812 0)"/>
     <use xlink:href="#DejaVuSans-65" transform="translate(181.982422 0)"/>
     <use xlink:href="#DejaVuSans-6c" transform="translate(243.505859 0)"/>
     <use xlink:href="#DejaVuSans-69" transform="translate(271.289062 0)"/>
     <use xlink:href="#DejaVuSans-6e" transform="translate(299.072266 0)"/>
     <use xlink:href="#DejaVuSans-65" transform="translate(362.451172 0)"/>
     <use xlink:href="#DejaVuSans-2d" transform="translate(423.974609 0)"/>
     <use xlink:href="#DejaVuSans-30" transform="translate(460.058594 0)"/>
     <use xlink:href="#DejaVuSans-2d" transform="translate(523.681641 0)"/>
     <use xlink:href="#DejaVuSans-34" transform="translate(559.765625 0)"/>
    </g>
   </g>
   <g id="legend_1">
    <g id="patch_7">
     <path d="M 269.440483 114.235312 
L 333.10142 114.235312 
Q 335.10142 114.235312 335.10142 112.235312 
L 335.10142 83.600937 
Q 335.10142 81.600937 333.10142 81.600937 
L 269.440483 81.600937 
Q 267.440483 81.600937 267.440483 83.600937 
L 267.440483 112.235312 
Q 267.440483 114.235312 269.440483 114.235312 
L 269.440483 114.235312 
z
" style="fill: none; opacity: 0"/>
    </g>
    <g id="line2d_14">
     <path d="M 271.440483 89.699375 
L 281.440483 89.699375 
L 291.440483 89.699375 
" style="fill: none; stroke: #377eb8; stroke-width: 3; stroke-linecap: square"/>
    </g>
    <g id="text_14">
     <!-- alive -->
     <g transform="translate(299.440483 93.199375) scale(0.1 -0.1)">
      <defs>
       <path id="DejaVuSans-76" d="M 191 3500 
L 800 3500 
L 1894 563 
L 2988 3500 
L 3597 3500 
L 2284 0 
L 1503 0 
L 191 3500 
z
" transform="scale(0.015625)"/>
      </defs>
      <use xlink:href="#DejaVuSans-61"/>
      <use xlink:href="#DejaVuSans-6c" transform="translate(61.279297 0)"/>
      <use xlink:href="#DejaVuSans-69" transform="translate(89.0625 0)"/>
      <use xlink:href="#DejaVuSans-76" transform="translate(116.845703 0)"/>
      <use xlink:href="#DejaVuSans-65" transform="translate(176.025391 0)"/>
     </g>
    </g>
    <g id="line2d_15">
     <path d="M 271.440483 104.3775 
L 281.440483 104.3775 
L 291.440483 104.3775 
" style="fill: none; stroke: #e41a1c; stroke-width: 3; stroke-linecap: square"/>
    </g>
    <g id="text_15">
     <!-- b_rate -->
     <g transform="translate(299.440483 107.8775) scale(0.1 -0.1)">
      <defs>
       <path id="DejaVuSans-62" d="M 3116 1747 
Q 3116 2381 2855 2742 
Q 2594 3103 2138 3103 
Q 1681 3103 1420 2742 
Q 1159 2381 1159 1747 
Q 1159 1113 1420 752 
Q 1681 391 2138 391 
Q 2594 391 2855 752 
Q 3116 1113 3116 1747 
z
M 1159 2969 
Q 1341 3281 1617 3432 
Q 1894 3584 2278 3584 
Q 2916 3584 3314 3078 
Q 3713 2572 3713 1747 
Q 3713 922 3314 415 
Q 2916 -91 2278 -91 
Q 1894 -91 1617 61 
Q 1341 213 1159 525 
L 1159 0 
L 581 0 
L 581 4863 
L 1159 4863 
L 1159 2969 
z
" transform="scale(0.015625)"/>
       <path id="DejaVuSans-5f" d="M 3263 -1063 
L 3263 -1509 
L -63 -1509 
L -63 -1063 
L 3263 -1063 
z
" transform="scale(0.015625)"/>
       <path id="DejaVuSans-74" d="M 1172 4494 
L 1172 3500 
L 2356 3500 
L 2356 3053 
L 1172 3053 
L 1172 1153 
Q 1172 725 1289 603 
Q 1406 481 1766 481 
L 2356 481 
L 2356 0 
L 1766 0 
Q 1100 0 847 248 
Q 594 497 594 1153 
L 594 3053 
L 172 3053 
L 172 3500 
L 594 3500 
L 594 4494 
L 1172 4494 
z
" transform="scale(0.015625)"/>
      </defs>
      <use xlink:href="#DejaVuSans-62"/>
      <use xlink:href="#DejaVuSans-5f" transform="translate(63.476562 0)"/>
      <use xlink:href="#DejaVuSans-72" transform="translate(113.476562 0)"/>
      <use xlink:href="#DejaVuSans-61" transform="translate(154.589844 0)"/>
      <use xlink:href="#DejaVuSans-74" transform="translate(215.869141 0)"/>
      <use xlink:href="#DejaVuSans-65" transform="translate(255.078125 0)"/>
     </g>
    </g>
   </g>
  </g>
  <g id="axes_2">
   <g id="patch_8">
    <path d="M 353.749574 173.518125 
L 556.658665 173.518125 
L 556.658665 22.318125 
L 353.749574 22.318125 
L 353.749574 173.518125 
z
" style="fill: none; opacity: 0"/>
   </g>
   <g id="PathCollection_3">
    <defs>
     <path id="C2_0_8ac2d65e56" d="M 0 3.162278 
C 0.838646 3.162278 1.643056 2.82908 2.236068 2.236068 
C 2.82908 1.643056 3.162278 0.838646 3.162278 -0 
C 3.162278 -0.838646 2.82908 -1.643056 2.236068 -2.236068 
C 1.643056 -2.82908 0.838646 -3.162278 0 -3.162278 
C -0.838646 -3.162278 -1.643056 -2.82908 -2.236068 -2.236068 
C -2.82908 -1.643056 -3.162278 -0.838646 -3.162278 0 
C -3.162278 0.838646 -2.82908 1.643056 -2.236068 2.236068 
C -1.643056 2.82908 -0.838646 3.162278 0 3.162278 
z
"/>
    </defs>
    <g clip-path="url(#p285fab1ed5)">
     <use xlink:href="#C2_0_8ac2d65e56" x="353.749574" y="36.375268" style="fill: none; stroke: #377eb8; stroke-width: 3"/>
    </g>
    <g clip-path="url(#p285fab1ed5)">
     <use xlink:href="#C2_0_8ac2d65e56" x="359.546976" y="38.158125" style="fill: none; stroke: #377eb8; stroke-width: 3"/>
    </g>
    <g clip-path="url(#p285fab1ed5)">
     <use xlink:href="#C2_0_8ac2d65e56" x="365.344379" y="39.666696" style="fill: none; stroke: #377eb8; stroke-width: 3"/>
    </g>
    <g clip-path="url(#p285fab1ed5)">
     <use xlink:href="#C2_0_8ac2d65e56" x="371.141782" y="41.038125" style="fill: none; stroke: #377eb8; stroke-width: 3"/>
    </g>
    <g clip-path="url(#p285fab1ed5)">
     <use xlink:href="#C2_0_8ac2d65e56" x="376.939184" y="42.203839" style="fill: none; stroke: #377eb8; stroke-width: 3"/>
    </g>
    <g clip-path="url(#p285fab1ed5)">
     <use xlink:href="#C2_0_8ac2d65e56" x="382.736587" y="43.163839" style="fill: none; stroke: #377eb8; stroke-width: 3"/>
    </g>
    <g clip-path="url(#p285fab1ed5)">
     <use xlink:href="#C2_0_8ac2d65e56" x="388.533989" y="44.055268" style="fill: none; stroke: #377eb8; stroke-width: 3"/>
    </g>
    <g clip-path="url(#p285fab1ed5)">
     <use xlink:href="#C2_0_8ac2d65e56" x="394.331392" y="44.603839" style="fill: none; stroke: #377eb8; stroke-width: 3"/>
    </g>
    <g clip-path="url(#p285fab1ed5)">
     <use xlink:href="#C2_0_8ac2d65e56" x="400.128795" y="44.946696" style="fill: none; stroke: #377eb8; stroke-width: 3"/>
    </g>
    <g clip-path="url(#p285fab1ed5)">
     <use xlink:href="#C2_0_8ac2d65e56" x="405.926197" y="45.152411" style="fill: none; stroke: #377eb8; stroke-width: 3"/>
    </g>
    <g clip-path="url(#p285fab1ed5)">
     <use xlink:href="#C2_0_8ac2d65e56" x="411.7236" y="45.220982" style="fill: none; stroke: #377eb8; stroke-width: 3"/>
    </g>
    <g clip-path="url(#p285fab1ed5)">
     <use xlink:href="#C2_0_8ac2d65e56" x="417.521002" y="45.358125" style="fill: none; stroke: #377eb8; stroke-width: 3"/>
    </g>
    <g clip-path="url(#p285fab1ed5)">
     <use xlink:href="#C2_0_8ac2d65e56" x="423.318405" y="45.563839" style="fill: none; stroke: #377eb8; stroke-width: 3"/>
    </g>
    <g clip-path="url(#p285fab1ed5)">
     <use xlink:href="#C2_0_8ac2d65e56" x="429.115808" y="45.838125" style="fill: none; stroke: #377eb8; stroke-width: 3"/>
    </g>
    <g clip-path="url(#p285fab1ed5)">
     <use xlink:href="#C2_0_8ac2d65e56" x="434.91321" y="46.249554" style="fill: none; stroke: #377eb8; stroke-width: 3"/>
    </g>
    <g clip-path="url(#p285fab1ed5)">
     <use xlink:href="#C2_0_8ac2d65e56" x="440.710613" y="46.729554" style="fill: none; stroke: #377eb8; stroke-width: 3"/>
    </g>
    <g clip-path="url(#p285fab1ed5)">
     <use xlink:href="#C2_0_8ac2d65e56" x="446.508015" y="47.278125" style="fill: none; stroke: #377eb8; stroke-width: 3"/>
    </g>
    <g clip-path="url(#p285fab1ed5)">
     <use xlink:href="#C2_0_8ac2d65e56" x="452.305418" y="47.895268" style="fill: none; stroke: #377eb8; stroke-width: 3"/>
    </g>
   </g>
   <g id="matplotlib.axis_3">
    <g id="xtick_5">
     <g id="line2d_16">
      <g>
       <use xlink:href="#m40e66387a3" x="353.749574" y="173.518125" style="stroke: #000000; stroke-width: 0.8"/>
      </g>
     </g>
     <g id="text_16">
      <!-- 2000 -->
      <g transform="translate(341.024574 188.116562) scale(0.1 -0.1)">
       <use xlink:href="#DejaVuSans-32"/>
       <use xlink:href="#DejaVuSans-30" transform="translate(63.623047 0)"/>
       <use xlink:href="#DejaVuSans-30" transform="translate(127.246094 0)"/>
       <use xlink:href="#DejaVuSans-30" transform="translate(190.869141 0)"/>
      </g>
     </g>
    </g>
    <g id="xtick_6">
     <g id="line2d_17">
      <g>
       <use xlink:href="#m40e66387a3" x="411.7236" y="173.518125" style="stroke: #000000; stroke-width: 0.8"/>
      </g>
     </g>
     <g id="text_17">
      <!-- 2010 -->
      <g transform="translate(398.9986 188.116562) scale(0.1 -0.1)">
       <use xlink:href="#DejaVuSans-32"/>
       <use xlink:href="#DejaVuSans-30" transform="translate(63.623047 0)"/>
       <use xlink:href="#DejaVuSans-31" transform="translate(127.246094 0)"/>
       <use xlink:href="#DejaVuSans-30" transform="translate(190.869141 0)"/>
      </g>
     </g>
    </g>
    <g id="xtick_7">
     <g id="line2d_18">
      <g>
       <use xlink:href="#m40e66387a3" x="469.697626" y="173.518125" style="stroke: #000000; stroke-width: 0.8"/>
      </g>
     </g>
     <g id="text_18">
      <!-- 2020 -->
      <g transform="translate(456.972626 188.116562) scale(0.1 -0.1)">
       <use xlink:href="#DejaVuSans-32"/>
       <use xlink:href="#DejaVuSans-30" transform="translate(63.623047 0)"/>
       <use xlink:href="#DejaVuSans-32" transform="translate(127.246094 0)"/>
       <use xlink:href="#DejaVuSans-30" transform="translate(190.869141 0)"/>
      </g>
     </g>
    </g>
    <g id="xtick_8">
     <g id="line2d_19">
      <g>
       <use xlink:href="#m40e66387a3" x="527.671652" y="173.518125" style="stroke: #000000; stroke-width: 0.8"/>
      </g>
     </g>
     <g id="text_19">
      <!-- 2030 -->
      <g transform="translate(514.946652 188.116562) scale(0.1 -0.1)">
       <use xlink:href="#DejaVuSans-32"/>
       <use xlink:href="#DejaVuSans-30" transform="translate(63.623047 0)"/>
       <use xlink:href="#DejaVuSans-33" transform="translate(127.246094 0)"/>
       <use xlink:href="#DejaVuSans-30" transform="translate(190.869141 0)"/>
      </g>
     </g>
    </g>
    <g id="text_20">
     <!-- Year -->
     <g transform="translate(444.616619 201.794687) scale(0.1 -0.1)">
      <use xlink:href="#DejaVuSans-59"/>
      <use xlink:href="#DejaVuSans-65" transform="translate(47.833984 0)"/>
      <use xlink:href="#DejaVuSans-61" transform="translate(109.357422 0)"/>
      <use xlink:href="#DejaVuSans-72" transform="translate(170.636719 0)"/>
     </g>
    </g>
   </g>
   <g id="matplotlib.axis_4">
    <g id="ytick_8">
     <g id="line2d_20">
      <g>
       <use xlink:href="#m0496a6f31e" x="353.749574" y="173.518125" style="stroke: #000000; stroke-width: 0.8"/>
      </g>
     </g>
     <g id="text_21">
      <!-- 0 -->
      <g transform="translate(340.387074 177.317344) scale(0.1 -0.1)">
       <use xlink:href="#DejaVuSans-30"/>
      </g>
     </g>
    </g>
    <g id="ytick_9">
     <g id="line2d_21">
      <g>
       <use xlink:href="#m0496a6f31e" x="353.749574" y="150.660982" style="stroke: #000000; stroke-width: 0.8"/>
      </g>
     </g>
     <g id="text_22">
      <!-- 500.0K -->
      <g transform="translate(311.563636 154.460201) scale(0.1 -0.1)">
       <use xlink:href="#DejaVuSans-35"/>
       <use xlink:href="#DejaVuSans-30" transform="translate(63.623047 0)"/>
       <use xlink:href="#DejaVuSans-30" transform="translate(127.246094 0)"/>
       <use xlink:href="#DejaVuSans-2e" transform="translate(190.869141 0)"/>
       <use xlink:href="#DejaVuSans-30" transform="translate(222.65625 0)"/>
       <use xlink:href="#DejaVuSans-4b" transform="translate(286.279297 0)"/>
      </g>
     </g>
    </g>
    <g id="ytick_10">
     <g id="line2d_22">
      <g>
       <use xlink:href="#m0496a6f31e" x="353.749574" y="127.803839" style="stroke: #000000; stroke-width: 0.8"/>
      </g>
     </g>
     <g id="text_23">
      <!-- 1.0M -->
      <g transform="translate(322.218324 131.603058) scale(0.1 -0.1)">
       <use xlink:href="#DejaVuSans-31"/>
       <use xlink:href="#DejaVuSans-2e" transform="translate(63.623047 0)"/>
       <use xlink:href="#DejaVuSans-30" transform="translate(95.410156 0)"/>
       <use xlink:href="#DejaVuSans-4d" transform="translate(159.033203 0)"/>
      </g>
     </g>
    </g>
    <g id="ytick_11">
     <g id="line2d_23">
      <g>
       <use xlink:href="#m0496a6f31e" x="353.749574" y="104.946696" style="stroke: #000000; stroke-width: 0.8"/>
      </g>
     </g>
     <g id="text_24">
      <!-- 1.5M -->
      <g transform="translate(322.218324 108.745915) scale(0.1 -0.1)">
       <use xlink:href="#DejaVuSans-31"/>
       <use xlink:href="#DejaVuSans-2e" transform="translate(63.623047 0)"/>
       <use xlink:href="#DejaVuSans-35" transform="translate(95.410156 0)"/>
       <use xlink:href="#DejaVuSans-4d" transform="translate(159.033203 0)"/>
      </g>
     </g>
    </g>
    <g id="ytick_12">
     <g id="line2d_24">
      <g>
       <use xlink:href="#m0496a6f31e" x="353.749574" y="82.089554" style="stroke: #000000; stroke-width: 0.8"/>
      </g>
     </g>
     <g id="text_25">
      <!-- 2.0M -->
      <g transform="translate(322.218324 85.888772) scale(0.1 -0.1)">
       <use xlink:href="#DejaVuSans-32"/>
       <use xlink:href="#DejaVuSans-2e" transform="translate(63.623047 0)"/>
       <use xlink:href="#DejaVuSans-30" transform="translate(95.410156 0)"/>
       <use xlink:href="#DejaVuSans-4d" transform="translate(159.033203 0)"/>
      </g>
     </g>
    </g>
    <g id="ytick_13">
     <g id="line2d_25">
      <g>
       <use xlink:href="#m0496a6f31e" x="353.749574" y="59.232411" style="stroke: #000000; stroke-width: 0.8"/>
      </g>
     </g>
     <g id="text_26">
      <!-- 2.5M -->
      <g transform="translate(322.218324 63.031629) scale(0.1 -0.1)">
       <use xlink:href="#DejaVuSans-32"/>
       <use xlink:href="#DejaVuSans-2e" transform="translate(63.623047 0)"/>
       <use xlink:href="#DejaVuSans-35" transform="translate(95.410156 0)"/>
       <use xlink:href="#DejaVuSans-4d" transform="translate(159.033203 0)"/>
      </g>
     </g>
    </g>
    <g id="ytick_14">
     <g id="line2d_26">
      <g>
       <use xlink:href="#m0496a6f31e" x="353.749574" y="36.375268" style="stroke: #000000; stroke-width: 0.8"/>
      </g>
     </g>
     <g id="text_27">
      <!-- 3.0M -->
      <g transform="translate(322.218324 40.174487) scale(0.1 -0.1)">
       <use xlink:href="#DejaVuSans-33"/>
       <use xlink:href="#DejaVuSans-2e" transform="translate(63.623047 0)"/>
       <use xlink:href="#DejaVuSans-30" transform="translate(95.410156 0)"/>
       <use xlink:href="#DejaVuSans-4d" transform="translate(159.033203 0)"/>
      </g>
     </g>
    </g>
   </g>
   <g id="line2d_27">
    <path d="M 353.749574 36.375268 
L 356.648275 37.491634 
L 359.546976 38.489396 
L 362.445678 39.382518 
L 365.344379 40.181968 
L 368.24308 40.897723 
L 371.141782 41.538907 
L 374.040483 42.11374 
L 376.939184 42.629632 
L 379.837886 43.093238 
L 382.736587 43.510501 
L 385.635288 43.886761 
L 388.533989 44.191845 
L 391.432691 44.435318 
L 394.331392 44.625595 
L 397.230093 44.77027 
L 400.128795 44.875949 
L 403.027496 44.948616 
L 405.926197 44.993648 
L 408.824899 45.015749 
L 411.7236 45.019185 
L 414.622301 45.007637 
L 417.521002 45.017955 
L 420.419704 45.047537 
L 423.318405 45.094012 
L 426.217106 45.155259 
L 429.115808 45.229387 
L 432.014509 45.314683 
L 434.91321 45.409999 
L 437.811912 45.513877 
L 440.710613 45.625032 
L 443.609314 45.742733 
L 446.508015 45.886853 
L 449.406717 46.056047 
L 452.305418 46.249061 
L 455.204119 46.465004 
L 458.102821 46.702905 
L 461.001522 46.95824 
L 463.900223 47.227144 
L 466.798925 47.506254 
L 469.697626 47.792641 
L 472.596327 48.083768 
L 475.495028 48.377447 
L 478.39373 48.671796 
L 481.292431 48.965206 
L 484.191132 49.256308 
L 487.089834 49.543946 
L 489.988535 49.827152 
L 492.887236 50.105123 
L 495.785937 50.3772 
L 498.684639 50.642851 
L 501.58334 50.901657 
L 504.482041 51.153295 
L 507.380743 51.397525 
L 510.279444 51.634183 
L 513.178145 51.863166 
L 516.076847 52.084429 
L 518.975548 52.297969 
L 521.874249 52.503827 
L 524.77295 52.702077 
L 527.671652 52.89282 
L 530.570353 53.076182 
L 533.469054 53.252308 
L 536.367756 53.421359 
L 539.266457 53.583511 
L 542.165158 53.738946 
L 545.06386 53.887856 
L 547.962561 54.030438 
L 550.861262 54.166893 
L 553.759963 54.297423 
L 556.658665 54.422232 
" clip-path="url(#p285fab1ed5)" style="fill: none; stroke: #377eb8; stroke-width: 3; stroke-linecap: square"/>
   </g>
   <g id="line2d_28">
    <path d="M 353.749574 173.518125 
L 356.648275 173.518125 
L 359.546976 173.518125 
L 362.445678 173.518125 
L 365.344379 173.518125 
L 368.24308 173.518125 
L 371.141782 173.518125 
L 374.040483 173.518125 
L 376.939184 173.518125 
L 379.837886 173.518125 
L 382.736587 173.518125 
L 385.635288 173.518125 
L 388.533989 173.518125 
L 391.432691 173.518125 
L 394.331392 173.518125 
L 397.230093 173.518125 
L 400.128795 173.518125 
L 403.027496 173.518125 
L 405.926197 173.518125 
L 408.824899 173.518125 
L 411.7236 173.518125 
L 414.622301 173.518125 
L 417.521002 173.518125 
L 420.419704 173.518125 
L 423.318405 173.518125 
L 426.217106 173.518125 
L 429.115808 173.518125 
L 432.014509 173.518125 
L 434.91321 173.518125 
L 437.811912 173.518125 
L 440.710613 173.518125 
L 443.609314 173.518125 
L 446.508015 173.518125 
L 449.406717 173.518125 
L 452.305418 173.518125 
L 455.204119 173.518125 
L 458.102821 173.518125 
L 461.001522 173.518125 
L 463.900223 173.518125 
L 466.798925 173.518125 
L 469.697626 173.518125 
L 472.596327 173.518125 
L 475.495028 173.518125 
L 478.39373 173.518125 
L 481.292431 173.518125 
L 484.191132 173.518125 
L 487.089834 173.518125 
L 489.988535 173.518125 
L 492.887236 173.518125 
L 495.785937 173.518125 
L 498.684639 173.518125 
L 501.58334 173.518125 
L 504.482041 173.518125 
L 507.380743 173.518125 
L 510.279444 173.518125 
L 513.178145 173.518125 
L 516.076847 173.518125 
L 518.975548 173.518125 
L 521.874249 173.518125 
L 524.77295 173.518125 
L 527.671652 173.518125 
L 530.570353 173.518125 
L 533.469054 173.518125 
L 536.367756 173.518125 
L 539.266457 173.518125 
L 542.165158 173.518125 
L 545.06386 173.518125 
L 547.962561 173.518125 
L 550.861262 173.518125 
L 553.759963 173.518125 
L 556.658665 173.518125 
" clip-path="url(#p285fab1ed5)" style="fill: none; stroke: #e41a1c; stroke-width: 3; stroke-linecap: square"/>
   </g>
   <g id="patch_9">
    <path d="M 353.749574 173.518125 
L 353.749574 22.318125 
" style="fill: none; stroke: #000000; stroke-width: 0.8; stroke-linejoin: miter; stroke-linecap: square"/>
   </g>
   <g id="patch_10">
    <path d="M 556.658665 173.518125 
L 556.658665 22.318125 
" style="fill: none"/>
   </g>
   <g id="patch_11">
    <path d="M 353.749574 173.518125 
L 556.658665 173.518125 
" style="fill: none; stroke: #000000; stroke-width: 0.8; stroke-linejoin: miter; stroke-linecap: square"/>
   </g>
   <g id="patch_12">
    <path d="M 353.749574 22.318125 
L 556.658665 22.318125 
" style="fill: none"/>
   </g>
   <g id="text_28">
    <!-- Baseline-5-14 -->
    <g transform="translate(413.983182 16.318125) scale(0.12 -0.12)">
     <use xlink:href="#DejaVuSans-42"/>
     <use xlink:href="#DejaVuSans-61" transform="translate(68.603516 0)"/>
     <use xlink:href="#DejaVuSans-73" transform="translate(129.882812 0)"/>
     <use xlink:href="#DejaVuSans-65" transform="translate(181.982422 0)"/>
     <use xlink:href="#DejaVuSans-6c" transform="translate(243.505859 0)"/>
     <use xlink:href="#DejaVuSans-69" transform="translate(271.289062 0)"/>
     <use xlink:href="#DejaVuSans-6e" transform="translate(299.072266 0)"/>
     <use xlink:href="#DejaVuSans-65" transform="translate(362.451172 0)"/>
     <use xlink:href="#DejaVuSans-2d" transform="translate(423.974609 0)"/>
     <use xlink:href="#DejaVuSans-35" transform="translate(460.058594 0)"/>
     <use xlink:href="#DejaVuSans-2d" transform="translate(523.681641 0)"/>
     <use xlink:href="#DejaVuSans-31" transform="translate(559.765625 0)"/>
     <use xlink:href="#DejaVuSans-34" transform="translate(623.388672 0)"/>
    </g>
   </g>
   <g id="legend_2">
    <g id="patch_13">
     <path d="M 573.804119 114.235312 
L 637.465057 114.235312 
Q 639.465057 114.235312 639.465057 112.235312 
L 639.465057 83.600937 
Q 639.465057 81.600937 637.465057 81.600937 
L 573.804119 81.600937 
Q 571.804119 81.600937 571.804119 83.600937 
L 571.804119 112.235312 
Q 571.804119 114.235312 573.804119 114.235312 
L 573.804119 114.235312 
z
" style="fill: none; opacity: 0"/>
    </g>
    <g id="line2d_29">
     <path d="M 575.804119 89.699375 
L 585.804119 89.699375 
L 595.804119 89.699375 
" style="fill: none; stroke: #377eb8; stroke-width: 3; stroke-linecap: square"/>
    </g>
    <g id="text_29">
     <!-- alive -->
     <g transform="translate(603.804119 93.199375) scale(0.1 -0.1)">
      <use xlink:href="#DejaVuSans-61"/>
      <use xlink:href="#DejaVuSans-6c" transform="translate(61.279297 0)"/>
      <use xlink:href="#DejaVuSans-69" transform="translate(89.0625 0)"/>
      <use xlink:href="#DejaVuSans-76" transform="translate(116.845703 0)"/>
      <use xlink:href="#DejaVuSans-65" transform="translate(176.025391 0)"/>
     </g>
    </g>
    <g id="line2d_30">
     <path d="M 575.804119 104.3775 
L 585.804119 104.3775 
L 595.804119 104.3775 
" style="fill: none; stroke: #e41a1c; stroke-width: 3; stroke-linecap: square"/>
    </g>
    <g id="text_30">
     <!-- b_rate -->
     <g transform="translate(603.804119 107.8775) scale(0.1 -0.1)">
      <use xlink:href="#DejaVuSans-62"/>
      <use xlink:href="#DejaVuSans-5f" transform="translate(63.476562 0)"/>
      <use xlink:href="#DejaVuSans-72" transform="translate(113.476562 0)"/>
      <use xlink:href="#DejaVuSans-61" transform="translate(154.589844 0)"/>
      <use xlink:href="#DejaVuSans-74" transform="translate(215.869141 0)"/>
      <use xlink:href="#DejaVuSans-65" transform="translate(255.078125 0)"/>
     </g>
    </g>
   </g>
  </g>
  <g id="axes_3">
   <g id="patch_14">
    <path d="M 49.385938 354.958125 
L 252.295028 354.958125 
L 252.295028 203.758125 
L 49.385938 203.758125 
L 49.385938 354.958125 
z
" style="fill: none; opacity: 0"/>
   </g>
   <g id="PathCollection_4">
    <defs>
     <path id="C3_0_516247cc2b" d="M 0 3.162278 
C 0.838646 3.162278 1.643056 2.82908 2.236068 2.236068 
C 2.82908 1.643056 3.162278 0.838646 3.162278 -0 
C 3.162278 -0.838646 2.82908 -1.643056 2.236068 -2.236068 
C 1.643056 -2.82908 0.838646 -3.162278 0 -3.162278 
C -0.838646 -3.162278 -1.643056 -2.82908 -2.236068 -2.236068 
C -2.82908 -1.643056 -3.162278 -0.838646 -3.162278 0 
C -3.162278 0.838646 -2.82908 1.643056 -2.236068 2.236068 
C -1.643056 2.82908 -0.838646 3.162278 0 3.162278 
z
"/>
    </defs>
    <g clip-path="url(#p713cd8ce32)">
     <use xlink:href="#C3_0_516247cc2b" x="49.385937" y="219.521766" style="fill: none; stroke: #377eb8; stroke-width: 3"/>
    </g>
    <g clip-path="url(#p713cd8ce32)">
     <use xlink:href="#C3_0_516247cc2b" x="55.18334" y="218.980021" style="fill: none; stroke: #377eb8; stroke-width: 3"/>
    </g>
    <g clip-path="url(#p713cd8ce32)">
     <use xlink:href="#C3_0_516247cc2b" x="60.980743" y="218.560168" style="fill: none; stroke: #377eb8; stroke-width: 3"/>
    </g>
    <g clip-path="url(#p713cd8ce32)">
     <use xlink:href="#C3_0_516247cc2b" x="66.778145" y="218.235121" style="fill: none; stroke: #377eb8; stroke-width: 3"/>
    </g>
    <g clip-path="url(#p713cd8ce32)">
     <use xlink:href="#C3_0_516247cc2b" x="72.575548" y="218.018422" style="fill: none; stroke: #377eb8; stroke-width: 3"/>
    </g>
    <g clip-path="url(#p713cd8ce32)">
     <use xlink:href="#C3_0_516247cc2b" x="78.37295" y="217.869442" style="fill: none; stroke: #377eb8; stroke-width: 3"/>
    </g>
    <g clip-path="url(#p713cd8ce32)">
     <use xlink:href="#C3_0_516247cc2b" x="84.170353" y="217.815268" style="fill: none; stroke: #377eb8; stroke-width: 3"/>
    </g>
    <g clip-path="url(#p713cd8ce32)">
     <use xlink:href="#C3_0_516247cc2b" x="89.967756" y="217.842355" style="fill: none; stroke: #377eb8; stroke-width: 3"/>
    </g>
    <g clip-path="url(#p713cd8ce32)">
     <use xlink:href="#C3_0_516247cc2b" x="95.765158" y="217.937161" style="fill: none; stroke: #377eb8; stroke-width: 3"/>
    </g>
    <g clip-path="url(#p713cd8ce32)">
     <use xlink:href="#C3_0_516247cc2b" x="101.562561" y="218.086141" style="fill: none; stroke: #377eb8; stroke-width: 3"/>
    </g>
    <g clip-path="url(#p713cd8ce32)">
     <use xlink:href="#C3_0_516247cc2b" x="107.359963" y="218.302839" style="fill: none; stroke: #377eb8; stroke-width: 3"/>
    </g>
    <g clip-path="url(#p713cd8ce32)">
     <use xlink:href="#C3_0_516247cc2b" x="113.157366" y="218.546624" style="fill: none; stroke: #377eb8; stroke-width: 3"/>
    </g>
    <g clip-path="url(#p713cd8ce32)">
     <use xlink:href="#C3_0_516247cc2b" x="118.954769" y="218.831041" style="fill: none; stroke: #377eb8; stroke-width: 3"/>
    </g>
    <g clip-path="url(#p713cd8ce32)">
     <use xlink:href="#C3_0_516247cc2b" x="124.752171" y="219.156088" style="fill: none; stroke: #377eb8; stroke-width: 3"/>
    </g>
    <g clip-path="url(#p713cd8ce32)">
     <use xlink:href="#C3_0_516247cc2b" x="130.549574" y="219.494679" style="fill: none; stroke: #377eb8; stroke-width: 3"/>
    </g>
    <g clip-path="url(#p713cd8ce32)">
     <use xlink:href="#C3_0_516247cc2b" x="136.346976" y="219.846813" style="fill: none; stroke: #377eb8; stroke-width: 3"/>
    </g>
    <g clip-path="url(#p713cd8ce32)">
     <use xlink:href="#C3_0_516247cc2b" x="142.144379" y="220.198948" style="fill: none; stroke: #377eb8; stroke-width: 3"/>
    </g>
    <g clip-path="url(#p713cd8ce32)">
     <use xlink:href="#C3_0_516247cc2b" x="147.941782" y="220.564626" style="fill: none; stroke: #377eb8; stroke-width: 3"/>
    </g>
   </g>
   <g id="matplotlib.axis_5">
    <g id="xtick_9">
     <g id="line2d_31">
      <g>
       <use xlink:href="#m40e66387a3" x="49.385937" y="354.958125" style="stroke: #000000; stroke-width: 0.8"/>
      </g>
     </g>
     <g id="text_31">
      <!-- 2000 -->
      <g transform="translate(36.660937 369.556562) scale(0.1 -0.1)">
       <use xlink:href="#DejaVuSans-32"/>
       <use xlink:href="#DejaVuSans-30" transform="translate(63.623047 0)"/>
       <use xlink:href="#DejaVuSans-30" transform="translate(127.246094 0)"/>
       <use xlink:href="#DejaVuSans-30" transform="translate(190.869141 0)"/>
      </g>
     </g>
    </g>
    <g id="xtick_10">
     <g id="line2d_32">
      <g>
       <use xlink:href="#m40e66387a3" x="107.359963" y="354.958125" style="stroke: #000000; stroke-width: 0.8"/>
      </g>
     </g>
     <g id="text_32">
      <!-- 2010 -->
      <g transform="translate(94.634963 369.556562) scale(0.1 -0.1)">
       <use xlink:href="#DejaVuSans-32"/>
       <use xlink:href="#DejaVuSans-30" transform="translate(63.623047 0)"/>
       <use xlink:href="#DejaVuSans-31" transform="translate(127.246094 0)"/>
       <use xlink:href="#DejaVuSans-30" transform="translate(190.869141 0)"/>
      </g>
     </g>
    </g>
    <g id="xtick_11">
     <g id="line2d_33">
      <g>
       <use xlink:href="#m40e66387a3" x="165.333989" y="354.958125" style="stroke: #000000; stroke-width: 0.8"/>
      </g>
     </g>
     <g id="text_33">
      <!-- 2020 -->
      <g transform="translate(152.608989 369.556562) scale(0.1 -0.1)">
       <use xlink:href="#DejaVuSans-32"/>
       <use xlink:href="#DejaVuSans-30" transform="translate(63.623047 0)"/>
       <use xlink:href="#DejaVuSans-32" transform="translate(127.246094 0)"/>
       <use xlink:href="#DejaVuSans-30" transform="translate(190.869141 0)"/>
      </g>
     </g>
    </g>
    <g id="xtick_12">
     <g id="line2d_34">
      <g>
       <use xlink:href="#m40e66387a3" x="223.308015" y="354.958125" style="stroke: #000000; stroke-width: 0.8"/>
      </g>
     </g>
     <g id="text_34">
      <!-- 2030 -->
      <g transform="translate(210.583015 369.556562) scale(0.1 -0.1)">
       <use xlink:href="#DejaVuSans-32"/>
       <use xlink:href="#DejaVuSans-30" transform="translate(63.623047 0)"/>
       <use xlink:href="#DejaVuSans-33" transform="translate(127.246094 0)"/>
       <use xlink:href="#DejaVuSans-30" transform="translate(190.869141 0)"/>
      </g>
     </g>
    </g>
    <g id="text_35">
     <!-- Year -->
     <g transform="translate(140.252983 383.234687) scale(0.1 -0.1)">
      <use xlink:href="#DejaVuSans-59"/>
      <use xlink:href="#DejaVuSans-65" transform="translate(47.833984 0)"/>
      <use xlink:href="#DejaVuSans-61" transform="translate(109.357422 0)"/>
      <use xlink:href="#DejaVuSans-72" transform="translate(170.636719 0)"/>
     </g>
    </g>
   </g>
   <g id="matplotlib.axis_6">
    <g id="ytick_15">
     <g id="line2d_35">
      <g>
       <use xlink:href="#m0496a6f31e" x="49.385938" y="354.958125" style="stroke: #000000; stroke-width: 0.8"/>
      </g>
     </g>
     <g id="text_36">
      <!-- 0 -->
      <g transform="translate(36.023438 358.757344) scale(0.1 -0.1)">
       <use xlink:href="#DejaVuSans-30"/>
      </g>
     </g>
    </g>
    <g id="ytick_16">
     <g id="line2d_36">
      <g>
       <use xlink:href="#m0496a6f31e" x="49.385938" y="332.385398" style="stroke: #000000; stroke-width: 0.8"/>
      </g>
     </g>
     <g id="text_37">
      <!-- 2.5M -->
      <g transform="translate(17.854688 336.184617) scale(0.1 -0.1)">
       <use xlink:href="#DejaVuSans-32"/>
       <use xlink:href="#DejaVuSans-2e" transform="translate(63.623047 0)"/>
       <use xlink:href="#DejaVuSans-35" transform="translate(95.410156 0)"/>
       <use xlink:href="#DejaVuSans-4d" transform="translate(159.033203 0)"/>
      </g>
     </g>
    </g>
    <g id="ytick_17">
     <g id="line2d_37">
      <g>
       <use xlink:href="#m0496a6f31e" x="49.385938" y="309.812672" style="stroke: #000000; stroke-width: 0.8"/>
      </g>
     </g>
     <g id="text_38">
      <!-- 5.0M -->
      <g transform="translate(17.854688 313.611891) scale(0.1 -0.1)">
       <use xlink:href="#DejaVuSans-35"/>
       <use xlink:href="#DejaVuSans-2e" transform="translate(63.623047 0)"/>
       <use xlink:href="#DejaVuSans-30" transform="translate(95.410156 0)"/>
       <use xlink:href="#DejaVuSans-4d" transform="translate(159.033203 0)"/>
      </g>
     </g>
    </g>
    <g id="ytick_18">
     <g id="line2d_38">
      <g>
       <use xlink:href="#m0496a6f31e" x="49.385938" y="287.239945" style="stroke: #000000; stroke-width: 0.8"/>
      </g>
     </g>
     <g id="text_39">
      <!-- 7.5M -->
      <g transform="translate(17.854688 291.039164) scale(0.1 -0.1)">
       <use xlink:href="#DejaVuSans-37"/>
       <use xlink:href="#DejaVuSans-2e" transform="translate(63.623047 0)"/>
       <use xlink:href="#DejaVuSans-35" transform="translate(95.410156 0)"/>
       <use xlink:href="#DejaVuSans-4d" transform="translate(159.033203 0)"/>
      </g>
     </g>
    </g>
    <g id="ytick_19">
     <g id="line2d_39">
      <g>
       <use xlink:href="#m0496a6f31e" x="49.385938" y="264.667219" style="stroke: #000000; stroke-width: 0.8"/>
      </g>
     </g>
     <g id="text_40">
      <!-- 10.0M -->
      <g transform="translate(11.492188 268.466438) scale(0.1 -0.1)">
       <use xlink:href="#DejaVuSans-31"/>
       <use xlink:href="#DejaVuSans-30" transform="translate(63.623047 0)"/>
       <use xlink:href="#DejaVuSans-2e" transform="translate(127.246094 0)"/>
       <use xlink:href="#DejaVuSans-30" transform="translate(159.033203 0)"/>
       <use xlink:href="#DejaVuSans-4d" transform="translate(222.65625 0)"/>
      </g>
     </g>
    </g>
    <g id="ytick_20">
     <g id="line2d_40">
      <g>
       <use xlink:href="#m0496a6f31e" x="49.385938" y="242.094492" style="stroke: #000000; stroke-width: 0.8"/>
      </g>
     </g>
     <g id="text_41">
      <!-- 12.5M -->
      <g transform="translate(11.492188 245.893711) scale(0.1 -0.1)">
       <use xlink:href="#DejaVuSans-31"/>
       <use xlink:href="#DejaVuSans-32" transform="translate(63.623047 0)"/>
       <use xlink:href="#DejaVuSans-2e" transform="translate(127.246094 0)"/>
       <use xlink:href="#DejaVuSans-35" transform="translate(159.033203 0)"/>
       <use xlink:href="#DejaVuSans-4d" transform="translate(222.65625 0)"/>
      </g>
     </g>
    </g>
    <g id="ytick_21">
     <g id="line2d_41">
      <g>
       <use xlink:href="#m0496a6f31e" x="49.385938" y="219.521766" style="stroke: #000000; stroke-width: 0.8"/>
      </g>
     </g>
     <g id="text_42">
      <!-- 15.0M -->
      <g transform="translate(11.492188 223.320985) scale(0.1 -0.1)">
       <use xlink:href="#DejaVuSans-31"/>
       <use xlink:href="#DejaVuSans-35" transform="translate(63.623047 0)"/>
       <use xlink:href="#DejaVuSans-2e" transform="translate(127.246094 0)"/>
       <use xlink:href="#DejaVuSans-30" transform="translate(159.033203 0)"/>
       <use xlink:href="#DejaVuSans-4d" transform="translate(222.65625 0)"/>
      </g>
     </g>
    </g>
   </g>
   <g id="line2d_42">
    <path d="M 49.385937 219.521766 
L 52.284639 219.307187 
L 55.18334 219.1183 
L 58.082041 218.952331 
L 60.980743 218.808055 
L 63.879444 218.6845 
L 66.778145 218.580528 
L 69.676847 218.495057 
L 72.575548 218.427229 
L 75.474249 218.376461 
L 78.37295 218.341737 
L 81.271652 218.322061 
L 84.170353 218.316938 
L 87.069054 218.325334 
L 89.967756 218.34674 
L 92.866457 218.380624 
L 95.765158 218.426669 
L 98.66386 218.48478 
L 101.562561 218.554552 
L 104.461262 218.635692 
L 107.359963 218.727844 
L 110.258665 218.830678 
L 113.157366 218.943948 
L 116.056067 219.067887 
L 118.954769 219.202355 
L 121.85347 219.347112 
L 124.752171 219.502381 
L 127.650873 219.668251 
L 130.549574 219.84483 
L 133.448275 220.032379 
L 136.346976 220.23072 
L 139.245678 220.439496 
L 142.144379 220.646909 
L 145.04308 220.853317 
L 147.941782 221.059073 
L 150.840483 221.264411 
L 153.739184 221.46955 
L 156.637886 221.6748 
L 159.536587 221.880371 
L 162.435288 222.086386 
L 165.333989 222.292937 
L 168.232691 222.500087 
L 171.131392 222.707875 
L 174.030093 222.916319 
L 176.928795 223.125418 
L 179.827496 223.335156 
L 182.726197 223.545503 
L 185.624899 223.756419 
L 188.5236 223.967852 
L 191.422301 224.179745 
L 194.321002 224.392035 
L 197.219704 224.604653 
L 200.118405 224.817527 
L 203.017106 225.030583 
L 205.915808 225.243744 
L 208.814509 225.456934 
L 211.71321 225.670075 
L 214.611912 225.88309 
L 217.510613 226.095903 
L 220.409314 226.308438 
L 223.308015 226.520624 
L 226.206717 226.732386 
L 229.105418 226.943657 
L 232.004119 227.154368 
L 234.902821 227.364454 
L 237.801522 227.573852 
L 240.700223 227.782501 
L 243.598925 227.990345 
L 246.497626 228.197328 
L 249.396327 228.403396 
L 252.295028 228.608501 
" clip-path="url(#p713cd8ce32)" style="fill: none; stroke: #377eb8; stroke-width: 3; stroke-linecap: square"/>
   </g>
   <g id="line2d_43">
    <path d="M 49.385937 354.958125 
L 52.284639 354.958125 
L 55.18334 354.958125 
L 58.082041 354.958125 
L 60.980743 354.958125 
L 63.879444 354.958125 
L 66.778145 354.958125 
L 69.676847 354.958125 
L 72.575548 354.958125 
L 75.474249 354.958125 
L 78.37295 354.958125 
L 81.271652 354.958125 
L 84.170353 354.958125 
L 87.069054 354.958125 
L 89.967756 354.958125 
L 92.866457 354.958125 
L 95.765158 354.958125 
L 98.66386 354.958125 
L 101.562561 354.958125 
L 104.461262 354.958125 
L 107.359963 354.958125 
L 110.258665 354.958125 
L 113.157366 354.958125 
L 116.056067 354.958125 
L 118.954769 354.958125 
L 121.85347 354.958125 
L 124.752171 354.958125 
L 127.650873 354.958125 
L 130.549574 354.958125 
L 133.448275 354.958125 
L 136.346976 354.958125 
L 139.245678 354.958125 
L 142.144379 354.958125 
L 145.04308 354.958125 
L 147.941782 354.958125 
L 150.840483 354.958125 
L 153.739184 354.958125 
L 156.637886 354.958125 
L 159.536587 354.958125 
L 162.435288 354.958125 
L 165.333989 354.958125 
L 168.232691 354.958125 
L 171.131392 354.958125 
L 174.030093 354.958125 
L 176.928795 354.958125 
L 179.827496 354.958125 
L 182.726197 354.958125 
L 185.624899 354.958125 
L 188.5236 354.958125 
L 191.422301 354.958125 
L 194.321002 354.958125 
L 197.219704 354.958125 
L 200.118405 354.958125 
L 203.017106 354.958125 
L 205.915808 354.958125 
L 208.814509 354.958125 
L 211.71321 354.958125 
L 214.611912 354.958125 
L 217.510613 354.958125 
L 220.409314 354.958125 
L 223.308015 354.958125 
L 226.206717 354.958125 
L 229.105418 354.958125 
L 232.004119 354.958125 
L 234.902821 354.958125 
L 237.801522 354.958125 
L 240.700223 354.958125 
L 243.598925 354.958125 
L 246.497626 354.958125 
L 249.396327 354.958125 
L 252.295028 354.958125 
" clip-path="url(#p713cd8ce32)" style="fill: none; stroke: #e41a1c; stroke-width: 3; stroke-linecap: square"/>
   </g>
   <g id="patch_15">
    <path d="M 49.385938 354.958125 
L 49.385938 203.758125 
" style="fill: none; stroke: #000000; stroke-width: 0.8; stroke-linejoin: miter; stroke-linecap: square"/>
   </g>
   <g id="patch_16">
    <path d="M 252.295028 354.958125 
L 252.295028 203.758125 
" style="fill: none"/>
   </g>
   <g id="patch_17">
    <path d="M 49.385937 354.958125 
L 252.295028 354.958125 
" style="fill: none; stroke: #000000; stroke-width: 0.8; stroke-linejoin: miter; stroke-linecap: square"/>
   </g>
   <g id="patch_18">
    <path d="M 49.385937 203.758125 
L 252.295028 203.758125 
" style="fill: none"/>
   </g>
   <g id="text_43">
    <!-- Baseline-15-64 -->
    <g transform="translate(105.802045 197.758125) scale(0.12 -0.12)">
     <defs>
      <path id="DejaVuSans-36" d="M 2113 2584 
Q 1688 2584 1439 2293 
Q 1191 2003 1191 1497 
Q 1191 994 1439 701 
Q 1688 409 2113 409 
Q 2538 409 2786 701 
Q 3034 994 3034 1497 
Q 3034 2003 2786 2293 
Q 2538 2584 2113 2584 
z
M 3366 4563 
L 3366 3988 
Q 3128 4100 2886 4159 
Q 2644 4219 2406 4219 
Q 1781 4219 1451 3797 
Q 1122 3375 1075 2522 
Q 1259 2794 1537 2939 
Q 1816 3084 2150 3084 
Q 2853 3084 3261 2657 
Q 3669 2231 3669 1497 
Q 3669 778 3244 343 
Q 2819 -91 2113 -91 
Q 1303 -91 875 529 
Q 447 1150 447 2328 
Q 447 3434 972 4092 
Q 1497 4750 2381 4750 
Q 2619 4750 2861 4703 
Q 3103 4656 3366 4563 
z
" transform="scale(0.015625)"/>
     </defs>
     <use xlink:href="#DejaVuSans-42"/>
     <use xlink:href="#DejaVuSans-61" transform="translate(68.603516 0)"/>
     <use xlink:href="#DejaVuSans-73" transform="translate(129.882812 0)"/>
     <use xlink:href="#DejaVuSans-65" transform="translate(181.982422 0)"/>
     <use xlink:href="#DejaVuSans-6c" transform="translate(243.505859 0)"/>
     <use xlink:href="#DejaVuSans-69" transform="translate(271.289062 0)"/>
     <use xlink:href="#DejaVuSans-6e" transform="translate(299.072266 0)"/>
     <use xlink:href="#DejaVuSans-65" transform="translate(362.451172 0)"/>
     <use xlink:href="#DejaVuSans-2d" transform="translate(423.974609 0)"/>
     <use xlink:href="#DejaVuSans-31" transform="translate(460.058594 0)"/>
     <use xlink:href="#DejaVuSans-35" transform="translate(523.681641 0)"/>
     <use xlink:href="#DejaVuSans-2d" transform="translate(587.304688 0)"/>
     <use xlink:href="#DejaVuSans-36" transform="translate(623.388672 0)"/>
     <use xlink:href="#DejaVuSans-34" transform="translate(687.011719 0)"/>
    </g>
   </g>
   <g id="legend_3">
    <g id="patch_19">
     <path d="M 269.440483 295.675312 
L 333.10142 295.675312 
Q 335.10142 295.675312 335.10142 293.675312 
L 335.10142 265.040937 
Q 335.10142 263.040937 333.10142 263.040937 
L 269.440483 263.040937 
Q 267.440483 263.040937 267.440483 265.040937 
L 267.440483 293.675312 
Q 267.440483 295.675312 269.440483 295.675312 
L 269.440483 295.675312 
z
" style="fill: none; opacity: 0"/>
    </g>
    <g id="line2d_44">
     <path d="M 271.440483 271.139375 
L 281.440483 271.139375 
L 291.440483 271.139375 
" style="fill: none; stroke: #377eb8; stroke-width: 3; stroke-linecap: square"/>
    </g>
    <g id="text_44">
     <!-- alive -->
     <g transform="translate(299.440483 274.639375) scale(0.1 -0.1)">
      <use xlink:href="#DejaVuSans-61"/>
      <use xlink:href="#DejaVuSans-6c" transform="translate(61.279297 0)"/>
      <use xlink:href="#DejaVuSans-69" transform="translate(89.0625 0)"/>
      <use xlink:href="#DejaVuSans-76" transform="translate(116.845703 0)"/>
      <use xlink:href="#DejaVuSans-65" transform="translate(176.025391 0)"/>
     </g>
    </g>
    <g id="line2d_45">
     <path d="M 271.440483 285.8175 
L 281.440483 285.8175 
L 291.440483 285.8175 
" style="fill: none; stroke: #e41a1c; stroke-width: 3; stroke-linecap: square"/>
    </g>
    <g id="text_45">
     <!-- b_rate -->
     <g transform="translate(299.440483 289.3175) scale(0.1 -0.1)">
      <use xlink:href="#DejaVuSans-62"/>
      <use xlink:href="#DejaVuSans-5f" transform="translate(63.476562 0)"/>
      <use xlink:href="#DejaVuSans-72" transform="translate(113.476562 0)"/>
      <use xlink:href="#DejaVuSans-61" transform="translate(154.589844 0)"/>
      <use xlink:href="#DejaVuSans-74" transform="translate(215.869141 0)"/>
      <use xlink:href="#DejaVuSans-65" transform="translate(255.078125 0)"/>
     </g>
    </g>
   </g>
  </g>
  <g id="axes_4">
   <g id="patch_20">
    <path d="M 353.749574 354.958125 
L 556.658665 354.958125 
L 556.658665 203.758125 
L 353.749574 203.758125 
L 353.749574 354.958125 
z
" style="fill: none; opacity: 0"/>
   </g>
   <g id="PathCollection_5">
    <defs>
     <path id="C4_0_42335d51ce" d="M 0 3.162278 
C 0.838646 3.162278 1.643056 2.82908 2.236068 2.236068 
C 2.82908 1.643056 3.162278 0.838646 3.162278 -0 
C 3.162278 -0.838646 2.82908 -1.643056 2.236068 -2.236068 
C 1.643056 -2.82908 0.838646 -3.162278 0 -3.162278 
C -0.838646 -3.162278 -1.643056 -2.82908 -2.236068 -2.236068 
C -2.82908 -1.643056 -3.162278 -0.838646 -3.162278 0 
C -3.162278 0.838646 -2.82908 1.643056 -2.236068 2.236068 
C -1.643056 2.82908 -0.838646 3.162278 0 3.162278 
z
"/>
    </defs>
    <g clip-path="url(#p38d2dce8bc)">
     <use xlink:href="#C4_0_42335d51ce" x="353.749574" y="243.967751" style="fill: none; stroke: #377eb8; stroke-width: 3"/>
    </g>
    <g clip-path="url(#p38d2dce8bc)">
     <use xlink:href="#C4_0_42335d51ce" x="359.546976" y="244.522703" style="fill: none; stroke: #377eb8; stroke-width: 3"/>
    </g>
    <g clip-path="url(#p38d2dce8bc)">
     <use xlink:href="#C4_0_42335d51ce" x="365.344379" y="244.76054" style="fill: none; stroke: #377eb8; stroke-width: 3"/>
    </g>
    <g clip-path="url(#p38d2dce8bc)">
     <use xlink:href="#C4_0_42335d51ce" x="371.141782" y="244.681261" style="fill: none; stroke: #377eb8; stroke-width: 3"/>
    </g>
    <g clip-path="url(#p38d2dce8bc)">
     <use xlink:href="#C4_0_42335d51ce" x="376.939184" y="244.364145" style="fill: none; stroke: #377eb8; stroke-width: 3"/>
    </g>
    <g clip-path="url(#p38d2dce8bc)">
     <use xlink:href="#C4_0_42335d51ce" x="382.736587" y="243.809193" style="fill: none; stroke: #377eb8; stroke-width: 3"/>
    </g>
    <g clip-path="url(#p38d2dce8bc)">
     <use xlink:href="#C4_0_42335d51ce" x="388.533989" y="242.937126" style="fill: none; stroke: #377eb8; stroke-width: 3"/>
    </g>
    <g clip-path="url(#p38d2dce8bc)">
     <use xlink:href="#C4_0_42335d51ce" x="394.331392" y="241.906501" style="fill: none; stroke: #377eb8; stroke-width: 3"/>
    </g>
    <g clip-path="url(#p38d2dce8bc)">
     <use xlink:href="#C4_0_42335d51ce" x="400.128795" y="240.63804" style="fill: none; stroke: #377eb8; stroke-width: 3"/>
    </g>
    <g clip-path="url(#p38d2dce8bc)">
     <use xlink:href="#C4_0_42335d51ce" x="405.926197" y="239.2903" style="fill: none; stroke: #377eb8; stroke-width: 3"/>
    </g>
    <g clip-path="url(#p38d2dce8bc)">
     <use xlink:href="#C4_0_42335d51ce" x="411.7236" y="237.784002" style="fill: none; stroke: #377eb8; stroke-width: 3"/>
    </g>
    <g clip-path="url(#p38d2dce8bc)">
     <use xlink:href="#C4_0_42335d51ce" x="417.521002" y="236.198425" style="fill: none; stroke: #377eb8; stroke-width: 3"/>
    </g>
    <g clip-path="url(#p38d2dce8bc)">
     <use xlink:href="#C4_0_42335d51ce" x="423.318405" y="234.533569" style="fill: none; stroke: #377eb8; stroke-width: 3"/>
    </g>
    <g clip-path="url(#p38d2dce8bc)">
     <use xlink:href="#C4_0_42335d51ce" x="429.115808" y="232.947993" style="fill: none; stroke: #377eb8; stroke-width: 3"/>
    </g>
    <g clip-path="url(#p38d2dce8bc)">
     <use xlink:href="#C4_0_42335d51ce" x="434.91321" y="231.362416" style="fill: none; stroke: #377eb8; stroke-width: 3"/>
    </g>
    <g clip-path="url(#p38d2dce8bc)">
     <use xlink:href="#C4_0_42335d51ce" x="440.710613" y="229.856118" style="fill: none; stroke: #377eb8; stroke-width: 3"/>
    </g>
    <g clip-path="url(#p38d2dce8bc)">
     <use xlink:href="#C4_0_42335d51ce" x="446.508015" y="228.508378" style="fill: none; stroke: #377eb8; stroke-width: 3"/>
    </g>
    <g clip-path="url(#p38d2dce8bc)">
     <use xlink:href="#C4_0_42335d51ce" x="452.305418" y="227.239916" style="fill: none; stroke: #377eb8; stroke-width: 3"/>
    </g>
   </g>
   <g id="matplotlib.axis_7">
    <g id="xtick_13">
     <g id="line2d_46">
      <g>
       <use xlink:href="#m40e66387a3" x="353.749574" y="354.958125" style="stroke: #000000; stroke-width: 0.8"/>
      </g>
     </g>
     <g id="text_46">
      <!-- 2000 -->
      <g transform="translate(341.024574 369.556562) scale(0.1 -0.1)">
       <use xlink:href="#DejaVuSans-32"/>
       <use xlink:href="#DejaVuSans-30" transform="translate(63.623047 0)"/>
       <use xlink:href="#DejaVuSans-30" transform="translate(127.246094 0)"/>
       <use xlink:href="#DejaVuSans-30" transform="translate(190.869141 0)"/>
      </g>
     </g>
    </g>
    <g id="xtick_14">
     <g id="line2d_47">
      <g>
       <use xlink:href="#m40e66387a3" x="411.7236" y="354.958125" style="stroke: #000000; stroke-width: 0.8"/>
      </g>
     </g>
     <g id="text_47">
      <!-- 2010 -->
      <g transform="translate(398.9986 369.556562) scale(0.1 -0.1)">
       <use xlink:href="#DejaVuSans-32"/>
       <use xlink:href="#DejaVuSans-30" transform="translate(63.623047 0)"/>
       <use xlink:href="#DejaVuSans-31" transform="translate(127.246094 0)"/>
       <use xlink:href="#DejaVuSans-30" transform="translate(190.869141 0)"/>
      </g>
     </g>
    </g>
    <g id="xtick_15">
     <g id="line2d_48">
      <g>
       <use xlink:href="#m40e66387a3" x="469.697626" y="354.958125" style="stroke: #000000; stroke-width: 0.8"/>
      </g>
     </g>
     <g id="text_48">
      <!-- 2020 -->
      <g transform="translate(456.972626 369.556562) scale(0.1 -0.1)">
       <use xlink:href="#DejaVuSans-32"/>
       <use xlink:href="#DejaVuSans-30" transform="translate(63.623047 0)"/>
       <use xlink:href="#DejaVuSans-32" transform="translate(127.246094 0)"/>
       <use xlink:href="#DejaVuSans-30" transform="translate(190.869141 0)"/>
      </g>
     </g>
    </g>
    <g id="xtick_16">
     <g id="line2d_49">
      <g>
       <use xlink:href="#m40e66387a3" x="527.671652" y="354.958125" style="stroke: #000000; stroke-width: 0.8"/>
      </g>
     </g>
     <g id="text_49">
      <!-- 2030 -->
      <g transform="translate(514.946652 369.556562) scale(0.1 -0.1)">
       <use xlink:href="#DejaVuSans-32"/>
       <use xlink:href="#DejaVuSans-30" transform="translate(63.623047 0)"/>
       <use xlink:href="#DejaVuSans-33" transform="translate(127.246094 0)"/>
       <use xlink:href="#DejaVuSans-30" transform="translate(190.869141 0)"/>
      </g>
     </g>
    </g>
    <g id="text_50">
     <!-- Year -->
     <g transform="translate(444.616619 383.234687) scale(0.1 -0.1)">
      <use xlink:href="#DejaVuSans-59"/>
      <use xlink:href="#DejaVuSans-65" transform="translate(47.833984 0)"/>
      <use xlink:href="#DejaVuSans-61" transform="translate(109.357422 0)"/>
      <use xlink:href="#DejaVuSans-72" transform="translate(170.636719 0)"/>
     </g>
    </g>
   </g>
   <g id="matplotlib.axis_8">
    <g id="ytick_22">
     <g id="line2d_50">
      <g>
       <use xlink:href="#m0496a6f31e" x="353.749574" y="354.958125" style="stroke: #000000; stroke-width: 0.8"/>
      </g>
     </g>
     <g id="text_51">
      <!-- 0 -->
      <g transform="translate(340.387074 358.757344) scale(0.1 -0.1)">
       <use xlink:href="#DejaVuSans-30"/>
      </g>
     </g>
    </g>
    <g id="ytick_23">
     <g id="line2d_51">
      <g>
       <use xlink:href="#m0496a6f31e" x="353.749574" y="328.531846" style="stroke: #000000; stroke-width: 0.8"/>
      </g>
     </g>
     <g id="text_52">
      <!-- 500.0K -->
      <g transform="translate(311.563636 332.331064) scale(0.1 -0.1)">
       <use xlink:href="#DejaVuSans-35"/>
       <use xlink:href="#DejaVuSans-30" transform="translate(63.623047 0)"/>
       <use xlink:href="#DejaVuSans-30" transform="translate(127.246094 0)"/>
       <use xlink:href="#DejaVuSans-2e" transform="translate(190.869141 0)"/>
       <use xlink:href="#DejaVuSans-30" transform="translate(222.65625 0)"/>
       <use xlink:href="#DejaVuSans-4b" transform="translate(286.279297 0)"/>
      </g>
     </g>
    </g>
    <g id="ytick_24">
     <g id="line2d_52">
      <g>
       <use xlink:href="#m0496a6f31e" x="353.749574" y="302.105566" style="stroke: #000000; stroke-width: 0.8"/>
      </g>
     </g>
     <g id="text_53">
      <!-- 1.0M -->
      <g transform="translate(322.218324 305.904785) scale(0.1 -0.1)">
       <use xlink:href="#DejaVuSans-31"/>
       <use xlink:href="#DejaVuSans-2e" transform="translate(63.623047 0)"/>
       <use xlink:href="#DejaVuSans-30" transform="translate(95.410156 0)"/>
       <use xlink:href="#DejaVuSans-4d" transform="translate(159.033203 0)"/>
      </g>
     </g>
    </g>
    <g id="ytick_25">
     <g id="line2d_53">
      <g>
       <use xlink:href="#m0496a6f31e" x="353.749574" y="275.679287" style="stroke: #000000; stroke-width: 0.8"/>
      </g>
     </g>
     <g id="text_54">
      <!-- 1.5M -->
      <g transform="translate(322.218324 279.478505) scale(0.1 -0.1)">
       <use xlink:href="#DejaVuSans-31"/>
       <use xlink:href="#DejaVuSans-2e" transform="translate(63.623047 0)"/>
       <use xlink:href="#DejaVuSans-35" transform="translate(95.410156 0)"/>
       <use xlink:href="#DejaVuSans-4d" transform="translate(159.033203 0)"/>
      </g>
     </g>
    </g>
    <g id="ytick_26">
     <g id="line2d_54">
      <g>
       <use xlink:href="#m0496a6f31e" x="353.749574" y="249.253007" style="stroke: #000000; stroke-width: 0.8"/>
      </g>
     </g>
     <g id="text_55">
      <!-- 2.0M -->
      <g transform="translate(322.218324 253.052226) scale(0.1 -0.1)">
       <use xlink:href="#DejaVuSans-32"/>
       <use xlink:href="#DejaVuSans-2e" transform="translate(63.623047 0)"/>
       <use xlink:href="#DejaVuSans-30" transform="translate(95.410156 0)"/>
       <use xlink:href="#DejaVuSans-4d" transform="translate(159.033203 0)"/>
      </g>
     </g>
    </g>
    <g id="ytick_27">
     <g id="line2d_55">
      <g>
       <use xlink:href="#m0496a6f31e" x="353.749574" y="222.826728" style="stroke: #000000; stroke-width: 0.8"/>
      </g>
     </g>
     <g id="text_56">
      <!-- 2.5M -->
      <g transform="translate(322.218324 226.625946) scale(0.1 -0.1)">
       <use xlink:href="#DejaVuSans-32"/>
       <use xlink:href="#DejaVuSans-2e" transform="translate(63.623047 0)"/>
       <use xlink:href="#DejaVuSans-35" transform="translate(95.410156 0)"/>
       <use xlink:href="#DejaVuSans-4d" transform="translate(159.033203 0)"/>
      </g>
     </g>
    </g>
   </g>
   <g id="line2d_56">
    <path d="M 353.749574 243.967751 
L 356.648275 244.185741 
L 359.546976 244.337143 
L 362.445678 244.424267 
L 365.344379 244.450223 
L 368.24308 244.417966 
L 371.141782 244.330247 
L 374.040483 244.189739 
L 376.939184 243.998864 
L 379.837886 243.759827 
L 382.736587 243.475064 
L 385.635288 243.147108 
L 388.533989 242.77778 
L 391.432691 242.368601 
L 394.331392 241.921726 
L 397.230093 241.439254 
L 400.128795 240.922879 
L 403.027496 240.374277 
L 405.926197 239.795166 
L 408.824899 239.187291 
L 411.7236 238.552075 
L 414.622301 237.890912 
L 417.521002 237.205315 
L 420.419704 236.496696 
L 423.318405 235.766566 
L 426.217106 235.016285 
L 429.115808 234.247138 
L 432.014509 233.460418 
L 434.91321 232.657228 
L 437.811912 231.838691 
L 440.710613 231.005755 
L 443.609314 230.159848 
L 446.508015 229.354439 
L 449.406717 228.588041 
L 452.305418 227.85954 
L 455.204119 227.166923 
L 458.102821 226.508528 
L 461.001522 225.88347 
L 463.900223 225.290632 
L 466.798925 224.728791 
L 469.697626 224.196779 
L 472.596327 223.693477 
L 475.495028 223.217815 
L 478.39373 222.768768 
L 481.292431 222.345352 
L 484.191132 221.946619 
L 487.089834 221.57166 
L 489.988535 221.219596 
L 492.887236 220.889584 
L 495.785937 220.580806 
L 498.684639 220.292477 
L 501.58334 220.023837 
L 504.482041 219.774151 
L 507.380743 219.542712 
L 510.279444 219.328833 
L 513.178145 219.131853 
L 516.076847 218.951131 
L 518.975548 218.786048 
L 521.874249 218.636005 
L 524.77295 218.500422 
L 527.671652 218.378738 
L 530.570353 218.27041 
L 533.469054 218.174915 
L 536.367756 218.091743 
L 539.266457 218.020404 
L 542.165158 217.960421 
L 545.06386 217.911335 
L 547.962561 217.872701 
L 550.861262 217.844087 
L 553.759963 217.825077 
L 556.658665 217.815268 
" clip-path="url(#p38d2dce8bc)" style="fill: none; stroke: #377eb8; stroke-width: 3; stroke-linecap: square"/>
   </g>
   <g id="line2d_57">
    <path d="M 353.749574 354.958125 
L 356.648275 354.958125 
L 359.546976 354.958125 
L 362.445678 354.958125 
L 365.344379 354.958125 
L 368.24308 354.958125 
L 371.141782 354.958125 
L 374.040483 354.958125 
L 376.939184 354.958125 
L 379.837886 354.958125 
L 382.736587 354.958125 
L 385.635288 354.958125 
L 388.533989 354.958125 
L 391.432691 354.958125 
L 394.331392 354.958125 
L 397.230093 354.958125 
L 400.128795 354.958125 
L 403.027496 354.958125 
L 405.926197 354.958125 
L 408.824899 354.958125 
L 411.7236 354.958125 
L 414.622301 354.958125 
L 417.521002 354.958125 
L 420.419704 354.958125 
L 423.318405 354.958125 
L 426.217106 354.958125 
L 429.115808 354.958125 
L 432.014509 354.958125 
L 434.91321 354.958125 
L 437.811912 354.958125 
L 440.710613 354.958125 
L 443.609314 354.958125 
L 446.508015 354.958125 
L 449.406717 354.958125 
L 452.305418 354.958125 
L 455.204119 354.958125 
L 458.102821 354.958125 
L 461.001522 354.958125 
L 463.900223 354.958125 
L 466.798925 354.958125 
L 469.697626 354.958125 
L 472.596327 354.958125 
L 475.495028 354.958125 
L 478.39373 354.958125 
L 481.292431 354.958125 
L 484.191132 354.958125 
L 487.089834 354.958125 
L 489.988535 354.958125 
L 492.887236 354.958125 
L 495.785937 354.958125 
L 498.684639 354.958125 
L 501.58334 354.958125 
L 504.482041 354.958125 
L 507.380743 354.958125 
L 510.279444 354.958125 
L 513.178145 354.958125 
L 516.076847 354.958125 
L 518.975548 354.958125 
L 521.874249 354.958125 
L 524.77295 354.958125 
L 527.671652 354.958125 
L 530.570353 354.958125 
L 533.469054 354.958125 
L 536.367756 354.958125 
L 539.266457 354.958125 
L 542.165158 354.958125 
L 545.06386 354.958125 
L 547.962561 354.958125 
L 550.861262 354.958125 
L 553.759963 354.958125 
L 556.658665 354.958125 
" clip-path="url(#p38d2dce8bc)" style="fill: none; stroke: #e41a1c; stroke-width: 3; stroke-linecap: square"/>
   </g>
   <g id="patch_21">
    <path d="M 353.749574 354.958125 
L 353.749574 203.758125 
" style="fill: none; stroke: #000000; stroke-width: 0.8; stroke-linejoin: miter; stroke-linecap: square"/>
   </g>
   <g id="patch_22">
    <path d="M 556.658665 354.958125 
L 556.658665 203.758125 
" style="fill: none"/>
   </g>
   <g id="patch_23">
    <path d="M 353.749574 354.958125 
L 556.658665 354.958125 
" style="fill: none; stroke: #000000; stroke-width: 0.8; stroke-linejoin: miter; stroke-linecap: square"/>
   </g>
   <g id="patch_24">
    <path d="M 353.749574 203.758125 
L 556.658665 203.758125 
" style="fill: none"/>
   </g>
   <g id="text_57">
    <!-- Baseline-65+ -->
    <g transform="translate(414.937557 197.758125) scale(0.12 -0.12)">
     <defs>
      <path id="DejaVuSans-2b" d="M 2944 4013 
L 2944 2272 
L 4684 2272 
L 4684 1741 
L 2944 1741 
L 2944 0 
L 2419 0 
L 2419 1741 
L 678 1741 
L 678 2272 
L 2419 2272 
L 2419 4013 
L 2944 4013 
z
" transform="scale(0.015625)"/>
     </defs>
     <use xlink:href="#DejaVuSans-42"/>
     <use xlink:href="#DejaVuSans-61" transform="translate(68.603516 0)"/>
     <use xlink:href="#DejaVuSans-73" transform="translate(129.882812 0)"/>
     <use xlink:href="#DejaVuSans-65" transform="translate(181.982422 0)"/>
     <use xlink:href="#DejaVuSans-6c" transform="translate(243.505859 0)"/>
     <use xlink:href="#DejaVuSans-69" transform="translate(271.289062 0)"/>
     <use xlink:href="#DejaVuSans-6e" transform="translate(299.072266 0)"/>
     <use xlink:href="#DejaVuSans-65" transform="translate(362.451172 0)"/>
     <use xlink:href="#DejaVuSans-2d" transform="translate(423.974609 0)"/>
     <use xlink:href="#DejaVuSans-36" transform="translate(460.058594 0)"/>
     <use xlink:href="#DejaVuSans-35" transform="translate(523.681641 0)"/>
     <use xlink:href="#DejaVuSans-2b" transform="translate(587.304688 0)"/>
    </g>
   </g>
   <g id="legend_4">
    <g id="patch_25">
     <path d="M 573.804119 295.675312 
L 637.465057 295.675312 
Q 639.465057 295.675312 639.465057 293.675312 
L 639.465057 265.040937 
Q 639.465057 263.040937 637.465057 263.040937 
L 573.804119 263.040937 
Q 571.804119 263.040937 571.804119 265.040937 
L 571.804119 293.675312 
Q 571.804119 295.675312 573.804119 295.675312 
L 573.804119 295.675312 
z
" style="fill: none; opacity: 0"/>
    </g>
    <g id="line2d_58">
     <path d="M 575.804119 271.139375 
L 585.804119 271.139375 
L 595.804119 271.139375 
" style="fill: none; stroke: #377eb8; stroke-width: 3; stroke-linecap: square"/>
    </g>
    <g id="text_58">
     <!-- alive -->
     <g transform="translate(603.804119 274.639375) scale(0.1 -0.1)">
      <use xlink:href="#DejaVuSans-61"/>
      <use xlink:href="#DejaVuSans-6c" transform="translate(61.279297 0)"/>
      <use xlink:href="#DejaVuSans-69" transform="translate(89.0625 0)"/>
      <use xlink:href="#DejaVuSans-76" transform="translate(116.845703 0)"/>
      <use xlink:href="#DejaVuSans-65" transform="translate(176.025391 0)"/>
     </g>
    </g>
    <g id="line2d_59">
     <path d="M 575.804119 285.8175 
L 585.804119 285.8175 
L 595.804119 285.8175 
" style="fill: none; stroke: #e41a1c; stroke-width: 3; stroke-linecap: square"/>
    </g>
    <g id="text_59">
     <!-- b_rate -->
     <g transform="translate(603.804119 289.3175) scale(0.1 -0.1)">
      <use xlink:href="#DejaVuSans-62"/>
      <use xlink:href="#DejaVuSans-5f" transform="translate(63.476562 0)"/>
      <use xlink:href="#DejaVuSans-72" transform="translate(113.476562 0)"/>
      <use xlink:href="#DejaVuSans-61" transform="translate(154.589844 0)"/>
      <use xlink:href="#DejaVuSans-74" transform="translate(215.869141 0)"/>
      <use xlink:href="#DejaVuSans-65" transform="translate(255.078125 0)"/>
     </g>
    </g>
   </g>
  </g>
 </g>
 <defs>
  <clipPath id="p54d7c68151">
   <rect x="49.385938" y="22.318125" width="202.909091" height="151.2"/>
  </clipPath>
  <clipPath id="p285fab1ed5">
   <rect x="353.749574" y="22.318125" width="202.909091" height="151.2"/>
  </clipPath>
  <clipPath id="p713cd8ce32">
   <rect x="49.385938" y="203.758125" width="202.909091" height="151.2"/>
  </clipPath>
  <clipPath id="p38d2dce8bc">
   <rect x="353.749574" y="203.758125" width="202.909091" height="151.2"/>
  </clipPath>
 </defs>
</svg>
