<?xml version="1.0" encoding="utf-8" standalone="no"?>
<!DOCTYPE svg PUBLIC "-//W3C//DTD SVG 1.1//EN"
  "http://www.w3.org/Graphics/SVG/1.1/DTD/svg11.dtd">
<!-- Created with matplotlib (https://matplotlib.org/) -->
<svg height="298.101371pt" version="1.1" viewBox="0 0 397.6075 298.101371" width="397.6075pt" xmlns="http://www.w3.org/2000/svg" xmlns:xlink="http://www.w3.org/1999/xlink">
 <metadata>
  <rdf:RDF xmlns:cc="http://creativecommons.org/ns#" xmlns:dc="http://purl.org/dc/elements/1.1/" xmlns:rdf="http://www.w3.org/1999/02/22-rdf-syntax-ns#">
   <cc:Work>
    <dc:type rdf:resource="http://purl.org/dc/dcmitype/StillImage"/>
    <dc:date>2021-06-03T04:24:47.234529</dc:date>
    <dc:format>image/svg+xml</dc:format>
    <dc:creator>
     <cc:Agent>
      <dc:title>Matplotlib v3.3.4, https://matplotlib.org/</dc:title>
     </cc:Agent>
    </dc:creator>
   </cc:Work>
  </rdf:RDF>
 </metadata>
 <defs>
  <style type="text/css">*{stroke-linecap:butt;stroke-linejoin:round;}</style>
 </defs>
 <g id="figure_1">
  <g id="patch_1">
   <path d="M 0 298.101371 
L 397.6075 298.101371 
L 397.6075 0 
L 0 0 
z
" style="fill:#ffffff;"/>
  </g>
  <g id="axes_1">
   <g id="patch_2">
    <path d="M 33.2875 274.223246 
L 390.4075 274.223246 
L 390.4075 8.111246 
L 33.2875 8.111246 
z
" style="fill:#ffffff;"/>
   </g>
   <g id="matplotlib.axis_1">
    <g id="xtick_1">
     <g id="line2d_1">
      <defs>
       <path d="M 0 0 
L 0 3.5 
" id="mf808d18323" style="stroke:#000000;stroke-width:0.8;"/>
      </defs>
      <g>
       <use style="stroke:#000000;stroke-width:0.8;" x="49.520227" xlink:href="#mf808d18323" y="274.223246"/>
      </g>
     </g>
     <g id="text_1">
      <!-- 0.0 -->
      <g transform="translate(41.568665 288.821684)scale(0.1 -0.1)">
       <defs>
        <path d="M 31.78125 66.40625 
Q 24.171875 66.40625 20.328125 58.90625 
Q 16.5 51.421875 16.5 36.375 
Q 16.5 21.390625 20.328125 13.890625 
Q 24.171875 6.390625 31.78125 6.390625 
Q 39.453125 6.390625 43.28125 13.890625 
Q 47.125 21.390625 47.125 36.375 
Q 47.125 51.421875 43.28125 58.90625 
Q 39.453125 66.40625 31.78125 66.40625 
z
M 31.78125 74.21875 
Q 44.046875 74.21875 50.515625 64.515625 
Q 56.984375 54.828125 56.984375 36.375 
Q 56.984375 17.96875 50.515625 8.265625 
Q 44.046875 -1.421875 31.78125 -1.421875 
Q 19.53125 -1.421875 13.0625 8.265625 
Q 6.59375 17.96875 6.59375 36.375 
Q 6.59375 54.828125 13.0625 64.515625 
Q 19.53125 74.21875 31.78125 74.21875 
z
" id="DejaVuSans-48"/>
        <path d="M 10.6875 12.40625 
L 21 12.40625 
L 21 0 
L 10.6875 0 
z
" id="DejaVuSans-46"/>
       </defs>
       <use xlink:href="#DejaVuSans-48"/>
       <use x="63.623047" xlink:href="#DejaVuSans-46"/>
       <use x="95.410156" xlink:href="#DejaVuSans-48"/>
      </g>
     </g>
    </g>
    <g id="xtick_2">
     <g id="line2d_2">
      <g>
       <use style="stroke:#000000;stroke-width:0.8;" x="90.305974" xlink:href="#mf808d18323" y="274.223246"/>
      </g>
     </g>
     <g id="text_2">
      <!-- 2.5 -->
      <g transform="translate(82.354412 288.821684)scale(0.1 -0.1)">
       <defs>
        <path d="M 19.1875 8.296875 
L 53.609375 8.296875 
L 53.609375 0 
L 7.328125 0 
L 7.328125 8.296875 
Q 12.9375 14.109375 22.625 23.890625 
Q 32.328125 33.6875 34.8125 36.53125 
Q 39.546875 41.84375 41.421875 45.53125 
Q 43.3125 49.21875 43.3125 52.78125 
Q 43.3125 58.59375 39.234375 62.25 
Q 35.15625 65.921875 28.609375 65.921875 
Q 23.96875 65.921875 18.8125 64.3125 
Q 13.671875 62.703125 7.8125 59.421875 
L 7.8125 69.390625 
Q 13.765625 71.78125 18.9375 73 
Q 24.125 74.21875 28.421875 74.21875 
Q 39.75 74.21875 46.484375 68.546875 
Q 53.21875 62.890625 53.21875 53.421875 
Q 53.21875 48.921875 51.53125 44.890625 
Q 49.859375 40.875 45.40625 35.40625 
Q 44.1875 33.984375 37.640625 27.21875 
Q 31.109375 20.453125 19.1875 8.296875 
z
" id="DejaVuSans-50"/>
        <path d="M 10.796875 72.90625 
L 49.515625 72.90625 
L 49.515625 64.59375 
L 19.828125 64.59375 
L 19.828125 46.734375 
Q 21.96875 47.46875 24.109375 47.828125 
Q 26.265625 48.1875 28.421875 48.1875 
Q 40.625 48.1875 47.75 41.5 
Q 54.890625 34.8125 54.890625 23.390625 
Q 54.890625 11.625 47.5625 5.09375 
Q 40.234375 -1.421875 26.90625 -1.421875 
Q 22.3125 -1.421875 17.546875 -0.640625 
Q 12.796875 0.140625 7.71875 1.703125 
L 7.71875 11.625 
Q 12.109375 9.234375 16.796875 8.0625 
Q 21.484375 6.890625 26.703125 6.890625 
Q 35.15625 6.890625 40.078125 11.328125 
Q 45.015625 15.765625 45.015625 23.390625 
Q 45.015625 31 40.078125 35.4375 
Q 35.15625 39.890625 26.703125 39.890625 
Q 22.75 39.890625 18.8125 39.015625 
Q 14.890625 38.140625 10.796875 36.28125 
z
" id="DejaVuSans-53"/>
       </defs>
       <use xlink:href="#DejaVuSans-50"/>
       <use x="63.623047" xlink:href="#DejaVuSans-46"/>
       <use x="95.410156" xlink:href="#DejaVuSans-53"/>
      </g>
     </g>
    </g>
    <g id="xtick_3">
     <g id="line2d_3">
      <g>
       <use style="stroke:#000000;stroke-width:0.8;" x="131.091721" xlink:href="#mf808d18323" y="274.223246"/>
      </g>
     </g>
     <g id="text_3">
      <!-- 5.0 -->
      <g transform="translate(123.140159 288.821684)scale(0.1 -0.1)">
       <use xlink:href="#DejaVuSans-53"/>
       <use x="63.623047" xlink:href="#DejaVuSans-46"/>
       <use x="95.410156" xlink:href="#DejaVuSans-48"/>
      </g>
     </g>
    </g>
    <g id="xtick_4">
     <g id="line2d_4">
      <g>
       <use style="stroke:#000000;stroke-width:0.8;" x="171.877468" xlink:href="#mf808d18323" y="274.223246"/>
      </g>
     </g>
     <g id="text_4">
      <!-- 7.5 -->
      <g transform="translate(163.925906 288.821684)scale(0.1 -0.1)">
       <defs>
        <path d="M 8.203125 72.90625 
L 55.078125 72.90625 
L 55.078125 68.703125 
L 28.609375 0 
L 18.3125 0 
L 43.21875 64.59375 
L 8.203125 64.59375 
z
" id="DejaVuSans-55"/>
       </defs>
       <use xlink:href="#DejaVuSans-55"/>
       <use x="63.623047" xlink:href="#DejaVuSans-46"/>
       <use x="95.410156" xlink:href="#DejaVuSans-53"/>
      </g>
     </g>
    </g>
    <g id="xtick_5">
     <g id="line2d_5">
      <g>
       <use style="stroke:#000000;stroke-width:0.8;" x="212.663215" xlink:href="#mf808d18323" y="274.223246"/>
      </g>
     </g>
     <g id="text_5">
      <!-- 10.0 -->
      <g transform="translate(201.530402 288.821684)scale(0.1 -0.1)">
       <defs>
        <path d="M 12.40625 8.296875 
L 28.515625 8.296875 
L 28.515625 63.921875 
L 10.984375 60.40625 
L 10.984375 69.390625 
L 28.421875 72.90625 
L 38.28125 72.90625 
L 38.28125 8.296875 
L 54.390625 8.296875 
L 54.390625 0 
L 12.40625 0 
z
" id="DejaVuSans-49"/>
       </defs>
       <use xlink:href="#DejaVuSans-49"/>
       <use x="63.623047" xlink:href="#DejaVuSans-48"/>
       <use x="127.246094" xlink:href="#DejaVuSans-46"/>
       <use x="159.033203" xlink:href="#DejaVuSans-48"/>
      </g>
     </g>
    </g>
    <g id="xtick_6">
     <g id="line2d_6">
      <g>
       <use style="stroke:#000000;stroke-width:0.8;" x="253.448962" xlink:href="#mf808d18323" y="274.223246"/>
      </g>
     </g>
     <g id="text_6">
      <!-- 12.5 -->
      <g transform="translate(242.316149 288.821684)scale(0.1 -0.1)">
       <use xlink:href="#DejaVuSans-49"/>
       <use x="63.623047" xlink:href="#DejaVuSans-50"/>
       <use x="127.246094" xlink:href="#DejaVuSans-46"/>
       <use x="159.033203" xlink:href="#DejaVuSans-53"/>
      </g>
     </g>
    </g>
    <g id="xtick_7">
     <g id="line2d_7">
      <g>
       <use style="stroke:#000000;stroke-width:0.8;" x="294.234709" xlink:href="#mf808d18323" y="274.223246"/>
      </g>
     </g>
     <g id="text_7">
      <!-- 15.0 -->
      <g transform="translate(283.101896 288.821684)scale(0.1 -0.1)">
       <use xlink:href="#DejaVuSans-49"/>
       <use x="63.623047" xlink:href="#DejaVuSans-53"/>
       <use x="127.246094" xlink:href="#DejaVuSans-46"/>
       <use x="159.033203" xlink:href="#DejaVuSans-48"/>
      </g>
     </g>
    </g>
    <g id="xtick_8">
     <g id="line2d_8">
      <g>
       <use style="stroke:#000000;stroke-width:0.8;" x="335.020456" xlink:href="#mf808d18323" y="274.223246"/>
      </g>
     </g>
     <g id="text_8">
      <!-- 17.5 -->
      <g transform="translate(323.887643 288.821684)scale(0.1 -0.1)">
       <use xlink:href="#DejaVuSans-49"/>
       <use x="63.623047" xlink:href="#DejaVuSans-55"/>
       <use x="127.246094" xlink:href="#DejaVuSans-46"/>
       <use x="159.033203" xlink:href="#DejaVuSans-53"/>
      </g>
     </g>
    </g>
    <g id="xtick_9">
     <g id="line2d_9">
      <g>
       <use style="stroke:#000000;stroke-width:0.8;" x="375.806203" xlink:href="#mf808d18323" y="274.223246"/>
      </g>
     </g>
     <g id="text_9">
      <!-- 20.0 -->
      <g transform="translate(364.67339 288.821684)scale(0.1 -0.1)">
       <use xlink:href="#DejaVuSans-50"/>
       <use x="63.623047" xlink:href="#DejaVuSans-48"/>
       <use x="127.246094" xlink:href="#DejaVuSans-46"/>
       <use x="159.033203" xlink:href="#DejaVuSans-48"/>
      </g>
     </g>
    </g>
   </g>
   <g id="matplotlib.axis_2">
    <g id="ytick_1">
     <g id="line2d_10">
      <defs>
       <path d="M 0 0 
L -3.5 0 
" id="me1c7b5469e" style="stroke:#000000;stroke-width:0.8;"/>
      </defs>
      <g>
       <use style="stroke:#000000;stroke-width:0.8;" x="33.2875" xlink:href="#me1c7b5469e" y="262.127246"/>
      </g>
     </g>
     <g id="text_10">
      <!-- 0 -->
      <g transform="translate(19.925 265.926465)scale(0.1 -0.1)">
       <use xlink:href="#DejaVuSans-48"/>
      </g>
     </g>
    </g>
    <g id="ytick_2">
     <g id="line2d_11">
      <g>
       <use style="stroke:#000000;stroke-width:0.8;" x="33.2875" xlink:href="#me1c7b5469e" y="220.272575"/>
      </g>
     </g>
     <g id="text_11">
      <!-- 50 -->
      <g transform="translate(13.5625 224.071794)scale(0.1 -0.1)">
       <use xlink:href="#DejaVuSans-53"/>
       <use x="63.623047" xlink:href="#DejaVuSans-48"/>
      </g>
     </g>
    </g>
    <g id="ytick_3">
     <g id="line2d_12">
      <g>
       <use style="stroke:#000000;stroke-width:0.8;" x="33.2875" xlink:href="#me1c7b5469e" y="178.417904"/>
      </g>
     </g>
     <g id="text_12">
      <!-- 100 -->
      <g transform="translate(7.2 182.217123)scale(0.1 -0.1)">
       <use xlink:href="#DejaVuSans-49"/>
       <use x="63.623047" xlink:href="#DejaVuSans-48"/>
       <use x="127.246094" xlink:href="#DejaVuSans-48"/>
      </g>
     </g>
    </g>
    <g id="ytick_4">
     <g id="line2d_13">
      <g>
       <use style="stroke:#000000;stroke-width:0.8;" x="33.2875" xlink:href="#me1c7b5469e" y="136.563233"/>
      </g>
     </g>
     <g id="text_13">
      <!-- 150 -->
      <g transform="translate(7.2 140.362451)scale(0.1 -0.1)">
       <use xlink:href="#DejaVuSans-49"/>
       <use x="63.623047" xlink:href="#DejaVuSans-53"/>
       <use x="127.246094" xlink:href="#DejaVuSans-48"/>
      </g>
     </g>
    </g>
    <g id="ytick_5">
     <g id="line2d_14">
      <g>
       <use style="stroke:#000000;stroke-width:0.8;" x="33.2875" xlink:href="#me1c7b5469e" y="94.708561"/>
      </g>
     </g>
     <g id="text_14">
      <!-- 200 -->
      <g transform="translate(7.2 98.50778)scale(0.1 -0.1)">
       <use xlink:href="#DejaVuSans-50"/>
       <use x="63.623047" xlink:href="#DejaVuSans-48"/>
       <use x="127.246094" xlink:href="#DejaVuSans-48"/>
      </g>
     </g>
    </g>
    <g id="ytick_6">
     <g id="line2d_15">
      <g>
       <use style="stroke:#000000;stroke-width:0.8;" x="33.2875" xlink:href="#me1c7b5469e" y="52.85389"/>
      </g>
     </g>
     <g id="text_15">
      <!-- 250 -->
      <g transform="translate(7.2 56.653109)scale(0.1 -0.1)">
       <use xlink:href="#DejaVuSans-50"/>
       <use x="63.623047" xlink:href="#DejaVuSans-53"/>
       <use x="127.246094" xlink:href="#DejaVuSans-48"/>
      </g>
     </g>
    </g>
    <g id="ytick_7">
     <g id="line2d_16">
      <g>
       <use style="stroke:#000000;stroke-width:0.8;" x="33.2875" xlink:href="#me1c7b5469e" y="10.999219"/>
      </g>
     </g>
     <g id="text_16">
      <!-- 300 -->
      <g transform="translate(7.2 14.798437)scale(0.1 -0.1)">
       <defs>
        <path d="M 40.578125 39.3125 
Q 47.65625 37.796875 51.625 33 
Q 55.609375 28.21875 55.609375 21.1875 
Q 55.609375 10.40625 48.1875 4.484375 
Q 40.765625 -1.421875 27.09375 -1.421875 
Q 22.515625 -1.421875 17.65625 -0.515625 
Q 12.796875 0.390625 7.625 2.203125 
L 7.625 11.71875 
Q 11.71875 9.328125 16.59375 8.109375 
Q 21.484375 6.890625 26.8125 6.890625 
Q 36.078125 6.890625 40.9375 10.546875 
Q 45.796875 14.203125 45.796875 21.1875 
Q 45.796875 27.640625 41.28125 31.265625 
Q 36.765625 34.90625 28.71875 34.90625 
L 20.21875 34.90625 
L 20.21875 43.015625 
L 29.109375 43.015625 
Q 36.375 43.015625 40.234375 45.921875 
Q 44.09375 48.828125 44.09375 54.296875 
Q 44.09375 59.90625 40.109375 62.90625 
Q 36.140625 65.921875 28.71875 65.921875 
Q 24.65625 65.921875 20.015625 65.03125 
Q 15.375 64.15625 9.8125 62.3125 
L 9.8125 71.09375 
Q 15.4375 72.65625 20.34375 73.4375 
Q 25.25 74.21875 29.59375 74.21875 
Q 40.828125 74.21875 47.359375 69.109375 
Q 53.90625 64.015625 53.90625 55.328125 
Q 53.90625 49.265625 50.4375 45.09375 
Q 46.96875 40.921875 40.578125 39.3125 
z
" id="DejaVuSans-51"/>
       </defs>
       <use xlink:href="#DejaVuSans-51"/>
       <use x="63.623047" xlink:href="#DejaVuSans-48"/>
       <use x="127.246094" xlink:href="#DejaVuSans-48"/>
      </g>
     </g>
    </g>
   </g>
   <g id="line2d_17">
    <path clip-path="url(#p29ba596975)" d="M 49.520227 262.127246 
L 51.151657 197.671053 
L 52.783087 144.097073 
L 54.414517 110.613336 
L 57.677377 72.944132 
L 59.308807 71.269945 
L 60.940236 64.573198 
L 62.571666 57.039357 
L 64.203096 62.899011 
L 65.834526 50.34261 
L 67.465956 41.134582 
L 69.097386 49.505516 
L 70.728816 57.039357 
L 72.360246 63.736105 
L 73.991675 60.387731 
L 75.623105 53.690983 
L 77.254535 57.039357 
L 78.885965 59.550637 
L 80.517395 57.039357 
L 82.148825 63.736105 
L 83.780255 59.550637 
L 85.411685 57.039357 
L 87.043114 44.482956 
L 88.674544 52.85389 
L 90.305974 59.550637 
L 91.937404 61.224824 
L 93.568834 70.432852 
L 95.200264 52.016797 
L 96.831694 57.039357 
L 98.463124 51.179703 
L 100.094553 64.573198 
L 101.725983 63.736105 
L 103.357413 59.550637 
L 104.988843 62.061918 
L 106.620273 52.016797 
L 108.251703 55.36517 
L 109.883133 59.550637 
L 111.514563 54.528077 
L 113.145992 57.876451 
L 114.777422 66.247385 
L 116.408852 64.573198 
L 118.040282 47.831329 
L 119.671712 56.202264 
L 121.303142 57.039357 
L 122.934572 59.550637 
L 124.566002 66.247385 
L 126.197431 66.247385 
L 127.828861 62.061918 
L 129.460291 48.668423 
L 131.091721 67.921572 
L 132.723151 61.224824 
L 134.354581 59.550637 
L 135.986011 48.668423 
L 137.617441 48.668423 
L 139.24887 64.573198 
L 140.8803 60.387731 
L 142.51173 62.061918 
L 144.14316 57.876451 
L 145.77459 46.157143 
L 147.40602 40.297489 
L 149.03745 39.460395 
L 150.66888 51.179703 
L 152.30031 47.831329 
L 153.931739 58.713544 
L 155.563169 52.016797 
L 157.194599 57.876451 
L 158.826029 66.247385 
L 160.457459 52.016797 
L 162.088889 44.482956 
L 163.720319 44.482956 
L 165.351749 56.202264 
L 166.983178 62.061918 
L 168.614608 56.202264 
L 170.246038 53.690983 
L 171.877468 57.876451 
L 173.508898 57.876451 
L 175.140328 52.016797 
L 176.771758 45.320049 
L 178.403188 61.224824 
L 180.034617 63.736105 
L 181.666047 51.179703 
L 183.297477 49.505516 
L 184.928907 62.061918 
L 186.560337 57.039357 
L 188.191767 60.387731 
L 189.823197 66.247385 
L 191.454627 52.85389 
L 193.086056 57.039357 
L 194.717486 49.505516 
L 196.348916 57.039357 
L 197.980346 57.876451 
L 199.611776 51.179703 
L 201.243206 52.85389 
L 202.874636 51.179703 
L 204.506066 52.016797 
L 206.137495 60.387731 
L 207.768925 44.482956 
L 209.400355 49.505516 
L 211.031785 57.039357 
L 212.663215 72.944132 
L 214.294645 61.224824 
L 217.557505 59.550637 
L 219.188934 63.736105 
L 222.451794 45.320049 
L 224.083224 52.85389 
L 225.714654 53.690983 
L 227.346084 60.387731 
L 228.977514 69.595759 
L 230.608944 61.224824 
L 232.240373 59.550637 
L 233.871803 50.34261 
L 235.503233 46.157143 
L 237.134663 61.224824 
L 238.766093 71.269945 
L 240.397523 64.573198 
L 242.028953 56.202264 
L 243.660383 57.039357 
L 245.291812 47.831329 
L 246.923242 49.505516 
L 248.554672 57.876451 
L 250.186102 52.016797 
L 251.817532 42.808769 
L 253.448962 49.505516 
L 255.080392 46.994236 
L 256.711822 53.690983 
L 258.343251 41.134582 
L 261.606111 37.786208 
L 263.237541 43.645862 
L 264.868971 39.460395 
L 266.500401 44.482956 
L 268.131831 47.831329 
L 269.763261 55.36517 
L 271.39469 63.736105 
L 273.02612 62.899011 
L 274.65755 59.550637 
L 277.92041 54.528077 
L 281.18327 44.482956 
L 282.8147 52.016797 
L 284.44613 48.668423 
L 286.077559 49.505516 
L 287.708989 52.85389 
L 289.340419 42.808769 
L 290.971849 52.85389 
L 292.603279 42.808769 
L 294.234709 52.85389 
L 295.866139 47.831329 
L 297.497569 58.713544 
L 299.128998 59.550637 
L 300.760428 56.202264 
L 302.391858 49.505516 
L 304.023288 56.202264 
L 305.654718 49.505516 
L 307.286148 50.34261 
L 308.917578 46.994236 
L 310.549008 47.831329 
L 312.180437 57.876451 
L 313.811867 61.224824 
L 315.443297 62.061918 
L 317.074727 57.039357 
L 318.706157 64.573198 
L 320.337587 59.550637 
L 321.969017 45.320049 
L 323.600447 47.831329 
L 325.231876 48.668423 
L 326.863306 69.595759 
L 328.494736 61.224824 
L 330.126166 61.224824 
L 331.757596 43.645862 
L 333.389026 53.690983 
L 335.020456 56.202264 
L 336.651886 61.224824 
L 338.283315 41.134582 
L 339.914745 46.994236 
L 341.546175 35.274928 
L 343.177605 44.482956 
L 344.809035 55.36517 
L 346.440465 51.179703 
L 348.071895 40.297489 
L 349.703325 42.808769 
L 351.334754 55.36517 
L 352.966184 64.573198 
L 354.597614 76.292506 
L 356.229044 67.921572 
L 357.860474 61.224824 
L 359.491904 64.573198 
L 361.123334 67.084478 
L 362.754764 55.36517 
L 364.386193 60.387731 
L 366.017623 57.039357 
L 367.649053 56.202264 
L 369.280483 57.876451 
L 370.911913 62.061918 
L 372.543343 55.36517 
L 374.174773 62.061918 
L 374.174773 62.061918 
" style="fill:none;stroke:#1f77b4;stroke-linecap:square;stroke-width:1.5;"/>
   </g>
   <g id="line2d_18">
    <path clip-path="url(#p29ba596975)" d="M 49.520227 262.127246 
L 52.783087 227.806416 
L 54.414517 198.508146 
L 56.045947 164.187316 
L 57.677377 143.25998 
L 59.308807 105.590776 
L 60.940236 97.219842 
L 62.571666 81.315067 
L 64.203096 68.758665 
L 65.834526 63.736105 
L 67.465956 67.084478 
L 69.097386 53.690983 
L 70.728816 43.645862 
L 72.360246 40.297489 
L 73.991675 43.645862 
L 75.623105 49.505516 
L 77.254535 46.994236 
L 78.885965 45.320049 
L 80.517395 39.460395 
L 82.148825 44.482956 
L 83.780255 52.016797 
L 85.411685 61.224824 
L 87.043114 76.292506 
L 88.674544 57.876451 
L 90.305974 48.668423 
L 91.937404 50.34261 
L 93.568834 57.039357 
L 95.200264 53.690983 
L 96.831694 53.690983 
L 98.463124 59.550637 
L 100.094553 49.505516 
L 101.725983 52.85389 
L 103.357413 55.36517 
L 104.988843 45.320049 
L 106.620273 69.595759 
L 108.251703 64.573198 
L 109.883133 52.016797 
L 111.514563 60.387731 
L 113.145992 52.85389 
L 114.777422 47.831329 
L 116.408852 58.713544 
L 118.040282 67.084478 
L 119.671712 57.039357 
L 121.303142 53.690983 
L 122.934572 63.736105 
L 124.566002 42.808769 
L 126.197431 56.202264 
L 127.828861 46.994236 
L 129.460291 60.387731 
L 131.091721 36.112022 
L 132.723151 64.573198 
L 134.354581 63.736105 
L 135.986011 63.736105 
L 137.617441 58.713544 
L 139.24887 45.320049 
L 140.8803 63.736105 
L 142.51173 60.387731 
L 144.14316 65.410291 
L 145.77459 68.758665 
L 147.40602 77.966693 
L 149.03745 72.944132 
L 150.66888 63.736105 
L 152.30031 64.573198 
L 153.931739 41.134582 
L 155.563169 57.039357 
L 157.194599 57.876451 
L 158.826029 48.668423 
L 160.457459 63.736105 
L 162.088889 80.477973 
L 165.351749 63.736105 
L 166.983178 53.690983 
L 168.614608 53.690983 
L 170.246038 59.550637 
L 171.877468 61.224824 
L 173.508898 57.876451 
L 175.140328 55.36517 
L 176.771758 50.34261 
L 178.403188 34.437835 
L 180.034617 34.437835 
L 181.666047 45.320049 
L 183.297477 40.297489 
L 184.928907 34.437835 
L 186.560337 46.157143 
L 188.191767 37.786208 
L 189.823197 39.460395 
L 191.454627 59.550637 
L 193.086056 43.645862 
L 194.717486 63.736105 
L 196.348916 49.505516 
L 197.980346 49.505516 
L 199.611776 54.528077 
L 201.243206 55.36517 
L 202.874636 48.668423 
L 204.506066 57.039357 
L 206.137495 50.34261 
L 207.768925 67.921572 
L 209.400355 52.016797 
L 211.031785 46.994236 
L 212.663215 38.623302 
L 214.294645 52.016797 
L 215.926075 56.202264 
L 217.557505 56.202264 
L 219.188934 62.061918 
L 220.820364 64.573198 
L 222.451794 54.528077 
L 224.083224 61.224824 
L 225.714654 56.202264 
L 227.346084 50.34261 
L 228.977514 52.016797 
L 230.608944 57.039357 
L 232.240373 57.876451 
L 233.871803 64.573198 
L 235.503233 63.736105 
L 237.134663 49.505516 
L 238.766093 32.763648 
L 240.397523 54.528077 
L 242.028953 59.550637 
L 243.660383 54.528077 
L 245.291812 62.899011 
L 246.923242 67.921572 
L 248.554672 57.876451 
L 250.186102 57.876451 
L 251.817532 58.713544 
L 253.448962 44.482956 
L 255.080392 48.668423 
L 256.711822 57.039357 
L 258.343251 64.573198 
L 259.974681 56.202264 
L 261.606111 54.528077 
L 263.237541 54.528077 
L 264.868971 57.039357 
L 266.500401 62.899011 
L 268.131831 57.039357 
L 269.763261 53.690983 
L 271.39469 32.763648 
L 273.02612 39.460395 
L 274.65755 45.320049 
L 277.92041 46.994236 
L 279.55184 49.505516 
L 281.18327 51.179703 
L 282.8147 35.274928 
L 284.44613 42.808769 
L 286.077559 55.36517 
L 287.708989 56.202264 
L 289.340419 65.410291 
L 290.971849 42.808769 
L 292.603279 50.34261 
L 294.234709 51.179703 
L 295.866139 47.831329 
L 297.497569 32.763648 
L 299.128998 32.763648 
L 300.760428 40.297489 
L 302.391858 49.505516 
L 304.023288 41.134582 
L 305.654718 36.112022 
L 307.286148 32.763648 
L 308.917578 41.971675 
L 310.549008 36.949115 
L 312.180437 26.903994 
L 313.811867 20.207246 
L 315.443297 38.623302 
L 317.074727 48.668423 
L 318.706157 41.134582 
L 320.337587 57.039357 
L 321.969017 71.269945 
L 323.600447 66.247385 
L 325.231876 62.061918 
L 326.863306 41.134582 
L 328.494736 56.202264 
L 330.126166 57.876451 
L 331.757596 81.315067 
L 333.389026 72.944132 
L 335.020456 77.129599 
L 336.651886 61.224824 
L 338.283315 66.247385 
L 339.914745 59.550637 
L 341.546175 61.224824 
L 343.177605 43.645862 
L 344.809035 38.623302 
L 346.440465 51.179703 
L 348.071895 61.224824 
L 349.703325 52.85389 
L 351.334754 46.994236 
L 352.966184 56.202264 
L 354.597614 52.016797 
L 356.229044 60.387731 
L 357.860474 54.528077 
L 359.491904 65.410291 
L 361.123334 56.202264 
L 362.754764 54.528077 
L 364.386193 57.876451 
L 366.017623 52.85389 
L 367.649053 44.482956 
L 369.280483 51.179703 
L 370.911913 57.039357 
L 372.543343 62.061918 
L 374.174773 62.061918 
L 374.174773 62.061918 
" style="fill:none;stroke:#ff7f0e;stroke-linecap:square;stroke-width:1.5;"/>
   </g>
   <g id="patch_3">
    <path d="M 33.2875 274.223246 
L 33.2875 8.111246 
" style="fill:none;stroke:#000000;stroke-linecap:square;stroke-linejoin:miter;stroke-width:0.8;"/>
   </g>
   <g id="patch_4">
    <path d="M 390.4075 274.223246 
L 390.4075 8.111246 
" style="fill:none;stroke:#000000;stroke-linecap:square;stroke-linejoin:miter;stroke-width:0.8;"/>
   </g>
   <g id="patch_5">
    <path d="M 33.2875 274.223246 
L 390.4075 274.223246 
" style="fill:none;stroke:#000000;stroke-linecap:square;stroke-linejoin:miter;stroke-width:0.8;"/>
   </g>
   <g id="patch_6">
    <path d="M 33.2875 8.111246 
L 390.4075 8.111246 
" style="fill:none;stroke:#000000;stroke-linecap:square;stroke-linejoin:miter;stroke-width:0.8;"/>
   </g>
  </g>
 </g>
 <defs>
  <clipPath id="p29ba596975">
   <rect height="266.112" width="357.12" x="33.2875" y="8.111246"/>
  </clipPath>
 </defs>
</svg>
