<?xml version="1.0" encoding="utf-8" standalone="no"?>
<!DOCTYPE svg PUBLIC "-//W3C//DTD SVG 1.1//EN"
  "http://www.w3.org/Graphics/SVG/1.1/DTD/svg11.dtd">
<!-- Created with matplotlib (https://matplotlib.org/) -->
<svg height="297.190125pt" version="1.1" viewBox="0 0 403.97 297.190125" width="403.97pt" xmlns="http://www.w3.org/2000/svg" xmlns:xlink="http://www.w3.org/1999/xlink">
 <metadata>
  <rdf:RDF xmlns:cc="http://creativecommons.org/ns#" xmlns:dc="http://purl.org/dc/elements/1.1/" xmlns:rdf="http://www.w3.org/1999/02/22-rdf-syntax-ns#">
   <cc:Work>
    <dc:type rdf:resource="http://purl.org/dc/dcmitype/StillImage"/>
    <dc:date>2021-05-26T02:18:04.204092</dc:date>
    <dc:format>image/svg+xml</dc:format>
    <dc:creator>
     <cc:Agent>
      <dc:title>Matplotlib v3.3.4, https://matplotlib.org/</dc:title>
     </cc:Agent>
    </dc:creator>
   </cc:Work>
  </rdf:RDF>
 </metadata>
 <defs>
  <style type="text/css">*{stroke-linecap:butt;stroke-linejoin:round;}</style>
 </defs>
 <g id="figure_1">
  <g id="patch_1">
   <path d="M 0 297.190125 
L 403.97 297.190125 
L 403.97 0 
L 0 0 
z
" style="fill:#ffffff;"/>
  </g>
  <g id="axes_1">
   <g id="patch_2">
    <path d="M 39.65 273.312 
L 396.77 273.312 
L 396.77 7.2 
L 39.65 7.2 
z
" style="fill:#ffffff;"/>
   </g>
   <g id="matplotlib.axis_1">
    <g id="xtick_1">
     <g id="line2d_1">
      <defs>
       <path d="M 0 0 
L 0 3.5 
" id="m0f4dd4d2ed" style="stroke:#000000;stroke-width:0.8;"/>
      </defs>
      <g>
       <use style="stroke:#000000;stroke-width:0.8;" x="55.882727" xlink:href="#m0f4dd4d2ed" y="273.312"/>
      </g>
     </g>
     <g id="text_1">
      <!-- 0.0 -->
      <g transform="translate(47.931165 287.910437)scale(0.1 -0.1)">
       <defs>
        <path d="M 31.78125 66.40625 
Q 24.171875 66.40625 20.328125 58.90625 
Q 16.5 51.421875 16.5 36.375 
Q 16.5 21.390625 20.328125 13.890625 
Q 24.171875 6.390625 31.78125 6.390625 
Q 39.453125 6.390625 43.28125 13.890625 
Q 47.125 21.390625 47.125 36.375 
Q 47.125 51.421875 43.28125 58.90625 
Q 39.453125 66.40625 31.78125 66.40625 
z
M 31.78125 74.21875 
Q 44.046875 74.21875 50.515625 64.515625 
Q 56.984375 54.828125 56.984375 36.375 
Q 56.984375 17.96875 50.515625 8.265625 
Q 44.046875 -1.421875 31.78125 -1.421875 
Q 19.53125 -1.421875 13.0625 8.265625 
Q 6.59375 17.96875 6.59375 36.375 
Q 6.59375 54.828125 13.0625 64.515625 
Q 19.53125 74.21875 31.78125 74.21875 
z
" id="DejaVuSans-48"/>
        <path d="M 10.6875 12.40625 
L 21 12.40625 
L 21 0 
L 10.6875 0 
z
" id="DejaVuSans-46"/>
       </defs>
       <use xlink:href="#DejaVuSans-48"/>
       <use x="63.623047" xlink:href="#DejaVuSans-46"/>
       <use x="95.410156" xlink:href="#DejaVuSans-48"/>
      </g>
     </g>
    </g>
    <g id="xtick_2">
     <g id="line2d_2">
      <g>
       <use style="stroke:#000000;stroke-width:0.8;" x="96.668474" xlink:href="#m0f4dd4d2ed" y="273.312"/>
      </g>
     </g>
     <g id="text_2">
      <!-- 2.5 -->
      <g transform="translate(88.716912 287.910437)scale(0.1 -0.1)">
       <defs>
        <path d="M 19.1875 8.296875 
L 53.609375 8.296875 
L 53.609375 0 
L 7.328125 0 
L 7.328125 8.296875 
Q 12.9375 14.109375 22.625 23.890625 
Q 32.328125 33.6875 34.8125 36.53125 
Q 39.546875 41.84375 41.421875 45.53125 
Q 43.3125 49.21875 43.3125 52.78125 
Q 43.3125 58.59375 39.234375 62.25 
Q 35.15625 65.921875 28.609375 65.921875 
Q 23.96875 65.921875 18.8125 64.3125 
Q 13.671875 62.703125 7.8125 59.421875 
L 7.8125 69.390625 
Q 13.765625 71.78125 18.9375 73 
Q 24.125 74.21875 28.421875 74.21875 
Q 39.75 74.21875 46.484375 68.546875 
Q 53.21875 62.890625 53.21875 53.421875 
Q 53.21875 48.921875 51.53125 44.890625 
Q 49.859375 40.875 45.40625 35.40625 
Q 44.1875 33.984375 37.640625 27.21875 
Q 31.109375 20.453125 19.1875 8.296875 
z
" id="DejaVuSans-50"/>
        <path d="M 10.796875 72.90625 
L 49.515625 72.90625 
L 49.515625 64.59375 
L 19.828125 64.59375 
L 19.828125 46.734375 
Q 21.96875 47.46875 24.109375 47.828125 
Q 26.265625 48.1875 28.421875 48.1875 
Q 40.625 48.1875 47.75 41.5 
Q 54.890625 34.8125 54.890625 23.390625 
Q 54.890625 11.625 47.5625 5.09375 
Q 40.234375 -1.421875 26.90625 -1.421875 
Q 22.3125 -1.421875 17.546875 -0.640625 
Q 12.796875 0.140625 7.71875 1.703125 
L 7.71875 11.625 
Q 12.109375 9.234375 16.796875 8.0625 
Q 21.484375 6.890625 26.703125 6.890625 
Q 35.15625 6.890625 40.078125 11.328125 
Q 45.015625 15.765625 45.015625 23.390625 
Q 45.015625 31 40.078125 35.4375 
Q 35.15625 39.890625 26.703125 39.890625 
Q 22.75 39.890625 18.8125 39.015625 
Q 14.890625 38.140625 10.796875 36.28125 
z
" id="DejaVuSans-53"/>
       </defs>
       <use xlink:href="#DejaVuSans-50"/>
       <use x="63.623047" xlink:href="#DejaVuSans-46"/>
       <use x="95.410156" xlink:href="#DejaVuSans-53"/>
      </g>
     </g>
    </g>
    <g id="xtick_3">
     <g id="line2d_3">
      <g>
       <use style="stroke:#000000;stroke-width:0.8;" x="137.454221" xlink:href="#m0f4dd4d2ed" y="273.312"/>
      </g>
     </g>
     <g id="text_3">
      <!-- 5.0 -->
      <g transform="translate(129.502659 287.910437)scale(0.1 -0.1)">
       <use xlink:href="#DejaVuSans-53"/>
       <use x="63.623047" xlink:href="#DejaVuSans-46"/>
       <use x="95.410156" xlink:href="#DejaVuSans-48"/>
      </g>
     </g>
    </g>
    <g id="xtick_4">
     <g id="line2d_4">
      <g>
       <use style="stroke:#000000;stroke-width:0.8;" x="178.239968" xlink:href="#m0f4dd4d2ed" y="273.312"/>
      </g>
     </g>
     <g id="text_4">
      <!-- 7.5 -->
      <g transform="translate(170.288406 287.910437)scale(0.1 -0.1)">
       <defs>
        <path d="M 8.203125 72.90625 
L 55.078125 72.90625 
L 55.078125 68.703125 
L 28.609375 0 
L 18.3125 0 
L 43.21875 64.59375 
L 8.203125 64.59375 
z
" id="DejaVuSans-55"/>
       </defs>
       <use xlink:href="#DejaVuSans-55"/>
       <use x="63.623047" xlink:href="#DejaVuSans-46"/>
       <use x="95.410156" xlink:href="#DejaVuSans-53"/>
      </g>
     </g>
    </g>
    <g id="xtick_5">
     <g id="line2d_5">
      <g>
       <use style="stroke:#000000;stroke-width:0.8;" x="219.025715" xlink:href="#m0f4dd4d2ed" y="273.312"/>
      </g>
     </g>
     <g id="text_5">
      <!-- 10.0 -->
      <g transform="translate(207.892902 287.910437)scale(0.1 -0.1)">
       <defs>
        <path d="M 12.40625 8.296875 
L 28.515625 8.296875 
L 28.515625 63.921875 
L 10.984375 60.40625 
L 10.984375 69.390625 
L 28.421875 72.90625 
L 38.28125 72.90625 
L 38.28125 8.296875 
L 54.390625 8.296875 
L 54.390625 0 
L 12.40625 0 
z
" id="DejaVuSans-49"/>
       </defs>
       <use xlink:href="#DejaVuSans-49"/>
       <use x="63.623047" xlink:href="#DejaVuSans-48"/>
       <use x="127.246094" xlink:href="#DejaVuSans-46"/>
       <use x="159.033203" xlink:href="#DejaVuSans-48"/>
      </g>
     </g>
    </g>
    <g id="xtick_6">
     <g id="line2d_6">
      <g>
       <use style="stroke:#000000;stroke-width:0.8;" x="259.811462" xlink:href="#m0f4dd4d2ed" y="273.312"/>
      </g>
     </g>
     <g id="text_6">
      <!-- 12.5 -->
      <g transform="translate(248.678649 287.910437)scale(0.1 -0.1)">
       <use xlink:href="#DejaVuSans-49"/>
       <use x="63.623047" xlink:href="#DejaVuSans-50"/>
       <use x="127.246094" xlink:href="#DejaVuSans-46"/>
       <use x="159.033203" xlink:href="#DejaVuSans-53"/>
      </g>
     </g>
    </g>
    <g id="xtick_7">
     <g id="line2d_7">
      <g>
       <use style="stroke:#000000;stroke-width:0.8;" x="300.597209" xlink:href="#m0f4dd4d2ed" y="273.312"/>
      </g>
     </g>
     <g id="text_7">
      <!-- 15.0 -->
      <g transform="translate(289.464396 287.910437)scale(0.1 -0.1)">
       <use xlink:href="#DejaVuSans-49"/>
       <use x="63.623047" xlink:href="#DejaVuSans-53"/>
       <use x="127.246094" xlink:href="#DejaVuSans-46"/>
       <use x="159.033203" xlink:href="#DejaVuSans-48"/>
      </g>
     </g>
    </g>
    <g id="xtick_8">
     <g id="line2d_8">
      <g>
       <use style="stroke:#000000;stroke-width:0.8;" x="341.382956" xlink:href="#m0f4dd4d2ed" y="273.312"/>
      </g>
     </g>
     <g id="text_8">
      <!-- 17.5 -->
      <g transform="translate(330.250143 287.910437)scale(0.1 -0.1)">
       <use xlink:href="#DejaVuSans-49"/>
       <use x="63.623047" xlink:href="#DejaVuSans-55"/>
       <use x="127.246094" xlink:href="#DejaVuSans-46"/>
       <use x="159.033203" xlink:href="#DejaVuSans-53"/>
      </g>
     </g>
    </g>
    <g id="xtick_9">
     <g id="line2d_9">
      <g>
       <use style="stroke:#000000;stroke-width:0.8;" x="382.168703" xlink:href="#m0f4dd4d2ed" y="273.312"/>
      </g>
     </g>
     <g id="text_9">
      <!-- 20.0 -->
      <g transform="translate(371.03589 287.910437)scale(0.1 -0.1)">
       <use xlink:href="#DejaVuSans-50"/>
       <use x="63.623047" xlink:href="#DejaVuSans-48"/>
       <use x="127.246094" xlink:href="#DejaVuSans-46"/>
       <use x="159.033203" xlink:href="#DejaVuSans-48"/>
      </g>
     </g>
    </g>
   </g>
   <g id="matplotlib.axis_2">
    <g id="ytick_1">
     <g id="line2d_10">
      <defs>
       <path d="M 0 0 
L -3.5 0 
" id="m16643a76e2" style="stroke:#000000;stroke-width:0.8;"/>
      </defs>
      <g>
       <use style="stroke:#000000;stroke-width:0.8;" x="39.65" xlink:href="#m16643a76e2" y="261.216"/>
      </g>
     </g>
     <g id="text_10">
      <!-- 0 -->
      <g transform="translate(26.2875 265.015219)scale(0.1 -0.1)">
       <use xlink:href="#DejaVuSans-48"/>
      </g>
     </g>
    </g>
    <g id="ytick_2">
     <g id="line2d_11">
      <g>
       <use style="stroke:#000000;stroke-width:0.8;" x="39.65" xlink:href="#m16643a76e2" y="220.570839"/>
      </g>
     </g>
     <g id="text_11">
      <!-- 500 -->
      <g transform="translate(13.5625 224.370057)scale(0.1 -0.1)">
       <use xlink:href="#DejaVuSans-53"/>
       <use x="63.623047" xlink:href="#DejaVuSans-48"/>
       <use x="127.246094" xlink:href="#DejaVuSans-48"/>
      </g>
     </g>
    </g>
    <g id="ytick_3">
     <g id="line2d_12">
      <g>
       <use style="stroke:#000000;stroke-width:0.8;" x="39.65" xlink:href="#m16643a76e2" y="179.925677"/>
      </g>
     </g>
     <g id="text_12">
      <!-- 1000 -->
      <g transform="translate(7.2 183.724896)scale(0.1 -0.1)">
       <use xlink:href="#DejaVuSans-49"/>
       <use x="63.623047" xlink:href="#DejaVuSans-48"/>
       <use x="127.246094" xlink:href="#DejaVuSans-48"/>
       <use x="190.869141" xlink:href="#DejaVuSans-48"/>
      </g>
     </g>
    </g>
    <g id="ytick_4">
     <g id="line2d_13">
      <g>
       <use style="stroke:#000000;stroke-width:0.8;" x="39.65" xlink:href="#m16643a76e2" y="139.280516"/>
      </g>
     </g>
     <g id="text_13">
      <!-- 1500 -->
      <g transform="translate(7.2 143.079735)scale(0.1 -0.1)">
       <use xlink:href="#DejaVuSans-49"/>
       <use x="63.623047" xlink:href="#DejaVuSans-53"/>
       <use x="127.246094" xlink:href="#DejaVuSans-48"/>
       <use x="190.869141" xlink:href="#DejaVuSans-48"/>
      </g>
     </g>
    </g>
    <g id="ytick_5">
     <g id="line2d_14">
      <g>
       <use style="stroke:#000000;stroke-width:0.8;" x="39.65" xlink:href="#m16643a76e2" y="98.635355"/>
      </g>
     </g>
     <g id="text_14">
      <!-- 2000 -->
      <g transform="translate(7.2 102.434574)scale(0.1 -0.1)">
       <use xlink:href="#DejaVuSans-50"/>
       <use x="63.623047" xlink:href="#DejaVuSans-48"/>
       <use x="127.246094" xlink:href="#DejaVuSans-48"/>
       <use x="190.869141" xlink:href="#DejaVuSans-48"/>
      </g>
     </g>
    </g>
    <g id="ytick_6">
     <g id="line2d_15">
      <g>
       <use style="stroke:#000000;stroke-width:0.8;" x="39.65" xlink:href="#m16643a76e2" y="57.990194"/>
      </g>
     </g>
     <g id="text_15">
      <!-- 2500 -->
      <g transform="translate(7.2 61.789412)scale(0.1 -0.1)">
       <use xlink:href="#DejaVuSans-50"/>
       <use x="63.623047" xlink:href="#DejaVuSans-53"/>
       <use x="127.246094" xlink:href="#DejaVuSans-48"/>
       <use x="190.869141" xlink:href="#DejaVuSans-48"/>
      </g>
     </g>
    </g>
    <g id="ytick_7">
     <g id="line2d_16">
      <g>
       <use style="stroke:#000000;stroke-width:0.8;" x="39.65" xlink:href="#m16643a76e2" y="17.345032"/>
      </g>
     </g>
     <g id="text_16">
      <!-- 3000 -->
      <g transform="translate(7.2 21.144251)scale(0.1 -0.1)">
       <defs>
        <path d="M 40.578125 39.3125 
Q 47.65625 37.796875 51.625 33 
Q 55.609375 28.21875 55.609375 21.1875 
Q 55.609375 10.40625 48.1875 4.484375 
Q 40.765625 -1.421875 27.09375 -1.421875 
Q 22.515625 -1.421875 17.65625 -0.515625 
Q 12.796875 0.390625 7.625 2.203125 
L 7.625 11.71875 
Q 11.71875 9.328125 16.59375 8.109375 
Q 21.484375 6.890625 26.8125 6.890625 
Q 36.078125 6.890625 40.9375 10.546875 
Q 45.796875 14.203125 45.796875 21.1875 
Q 45.796875 27.640625 41.28125 31.265625 
Q 36.765625 34.90625 28.71875 34.90625 
L 20.21875 34.90625 
L 20.21875 43.015625 
L 29.109375 43.015625 
Q 36.375 43.015625 40.234375 45.921875 
Q 44.09375 48.828125 44.09375 54.296875 
Q 44.09375 59.90625 40.109375 62.90625 
Q 36.140625 65.921875 28.71875 65.921875 
Q 24.65625 65.921875 20.015625 65.03125 
Q 15.375 64.15625 9.8125 62.3125 
L 9.8125 71.09375 
Q 15.4375 72.65625 20.34375 73.4375 
Q 25.25 74.21875 29.59375 74.21875 
Q 40.828125 74.21875 47.359375 69.109375 
Q 53.90625 64.015625 53.90625 55.328125 
Q 53.90625 49.265625 50.4375 45.09375 
Q 46.96875 40.921875 40.578125 39.3125 
z
" id="DejaVuSans-51"/>
       </defs>
       <use xlink:href="#DejaVuSans-51"/>
       <use x="63.623047" xlink:href="#DejaVuSans-48"/>
       <use x="127.246094" xlink:href="#DejaVuSans-48"/>
       <use x="190.869141" xlink:href="#DejaVuSans-48"/>
      </g>
     </g>
    </g>
   </g>
   <g id="line2d_17">
    <path clip-path="url(#p87dbc9ba3b)" d="M 55.882727 261.216 
L 59.961302 240.893419 
L 64.039877 222.529935 
L 68.118451 205.936691 
L 72.197026 190.943036 
L 76.275601 177.394769 
L 80.354175 165.152555 
L 84.43275 154.090491 
L 88.511325 144.094809 
L 92.589899 135.062711 
L 96.668474 126.901308 
L 100.747049 119.526663 
L 104.825624 112.862935 
L 108.904198 106.84159 
L 112.982773 101.400702 
L 117.061348 96.484316 
L 121.139922 92.04187 
L 125.218497 88.027675 
L 129.297072 84.400449 
L 133.375646 81.122888 
L 137.454221 78.161283 
L 141.532796 75.485177 
L 145.61137 73.067048 
L 149.689945 70.882026 
L 153.76852 68.907641 
L 157.847095 67.123586 
L 161.925669 65.511514 
L 166.004244 64.054846 
L 170.082819 62.7386 
L 174.161393 61.549241 
L 178.239968 60.474536 
L 182.318543 59.503432 
L 186.397117 58.625943 
L 190.475692 57.833044 
L 194.554267 57.11658 
L 198.632841 56.469184 
L 202.711416 55.884196 
L 206.789991 55.355601 
L 210.868566 54.877963 
L 214.94714 54.446369 
L 219.025715 54.056381 
L 223.10429 53.703988 
L 227.182864 53.385565 
L 231.261439 53.097838 
L 235.340014 52.837848 
L 239.418588 52.602922 
L 243.497163 52.390642 
L 247.575738 52.198826 
L 251.654312 52.025501 
L 255.732887 51.868884 
L 259.811462 51.727365 
L 263.890037 51.599489 
L 267.968611 51.48394 
L 272.047186 51.37953 
L 276.125761 51.285185 
L 280.204335 51.199935 
L 284.28291 51.122903 
L 288.361485 51.053297 
L 292.440059 50.990401 
L 296.518634 50.933568 
L 300.597209 50.882214 
L 304.675783 50.83581 
L 308.754358 50.79388 
L 312.832933 50.755992 
L 316.911508 50.721756 
L 320.990082 50.69082 
L 325.068657 50.662867 
L 329.147232 50.637608 
L 333.225806 50.614785 
L 337.304381 50.594161 
L 341.382956 50.575526 
L 345.46153 50.558687 
L 349.540105 50.543471 
L 353.61868 50.529722 
L 357.697254 50.517299 
L 361.775829 50.506073 
L 365.854404 50.495929 
L 369.932979 50.486763 
L 374.011553 50.478481 
L 378.090128 50.470997 
" style="fill:none;stroke:#1f77b4;stroke-linecap:square;stroke-width:1.5;"/>
   </g>
   <g id="line2d_18">
    <path clip-path="url(#p87dbc9ba3b)" d="M 55.882727 261.216 
L 59.961302 261.216 
L 64.039877 259.256903 
L 68.118451 255.998142 
L 72.197026 251.922546 
L 76.275601 247.38052 
L 80.354175 242.623436 
L 84.43275 237.828853 
L 88.511325 233.119547 
L 92.589899 228.577832 
L 96.668474 224.256343 
L 100.747049 220.186116 
L 104.825624 216.382642 
L 108.904198 212.850379 
L 112.982773 209.586108 
L 117.061348 206.581414 
L 121.139922 203.824507 
L 125.218497 201.301557 
L 129.297072 198.997652 
L 133.375646 196.89748 
L 137.454221 194.985813 
L 141.532796 193.247829 
L 145.61137 191.669332 
L 149.689945 190.236883 
L 153.76852 188.937872 
L 157.847095 187.760552 
L 161.925669 186.694042 
L 166.004244 185.728304 
L 170.082819 184.854113 
L 174.161393 184.063017 
L 178.239968 183.347288 
L 182.318543 182.699876 
L 186.397117 182.114357 
L 190.475692 181.58489 
L 194.554267 181.106166 
L 198.632841 180.673364 
L 202.711416 180.282112 
L 206.789991 179.928446 
L 210.868566 179.608774 
L 214.94714 179.319843 
L 219.025715 179.058708 
L 223.10429 178.822702 
L 227.182864 178.609414 
L 231.261439 178.416662 
L 235.340014 178.242472 
L 239.418588 178.08506 
L 243.497163 177.942811 
L 247.575738 177.814266 
L 251.654312 177.698107 
L 255.732887 177.593141 
L 259.811462 177.49829 
L 263.890037 177.412579 
L 267.968611 177.335129 
L 272.047186 177.265144 
L 276.125761 177.201904 
L 280.204335 177.144759 
L 284.28291 177.093123 
L 288.361485 177.046463 
L 292.440059 177.004301 
L 296.518634 176.966204 
L 300.597209 176.931778 
L 304.675783 176.900671 
L 308.754358 176.872563 
L 312.832933 176.847164 
L 316.911508 176.824214 
L 320.990082 176.803476 
L 325.068657 176.784737 
L 329.147232 176.767804 
L 333.225806 176.752504 
L 337.304381 176.738678 
L 341.382956 176.726186 
L 345.46153 176.714897 
L 349.540105 176.704697 
L 353.61868 176.69548 
L 357.697254 176.687152 
L 361.775829 176.679627 
L 365.854404 176.672826 
L 369.932979 176.666682 
L 374.011553 176.66113 
L 378.090128 176.656113 
" style="fill:none;stroke:#ff7f0e;stroke-linecap:square;stroke-width:1.5;"/>
   </g>
   <g id="line2d_19">
    <path clip-path="url(#p87dbc9ba3b)" d="M 55.882727 261.216 
L 59.145587 245.770839 
L 65.671307 217.075355 
L 67.302736 211.954065 
L 68.934166 205.369548 
L 70.565596 199.923097 
L 72.197026 193.988903 
L 77.091316 173.828903 
L 78.722746 169.764387 
L 80.354175 165.049548 
L 85.248465 152.124387 
L 86.879895 146.352774 
L 88.511325 143.995355 
L 90.142755 138.630194 
L 91.774185 134.646968 
L 95.037044 128.306323 
L 96.668474 124.485677 
L 98.299904 120.339871 
L 99.931334 118.632774 
L 101.562764 117.332129 
L 103.194194 114.568258 
L 104.825624 112.698581 
L 106.457053 107.41471 
L 108.088483 105.138581 
L 109.719913 102.456 
L 111.351343 100.179871 
L 112.982773 99.041806 
L 114.614203 96.277935 
L 116.245633 94.570839 
L 117.877063 91.481806 
L 119.508492 89.124387 
L 121.139922 86.116645 
L 122.771352 83.434065 
L 124.402782 82.37729 
L 126.034212 81.726968 
L 127.665642 79.369548 
L 129.297072 77.33729 
L 130.928502 74.573419 
L 132.559931 73.923097 
L 134.191361 72.541161 
L 135.822791 68.801806 
L 137.454221 67.09471 
L 139.085651 64.412129 
L 140.717081 62.705032 
L 142.348511 61.323097 
L 143.979941 60.266323 
L 147.2428 57.746323 
L 148.87423 58.234065 
L 150.50566 56.770839 
L 152.13709 54.65729 
L 153.76852 51.893419 
L 155.39995 48.235355 
L 157.03138 46.040516 
L 158.66281 45.471484 
L 160.294239 43.520516 
L 161.925669 41.976 
L 163.557099 40.594065 
L 165.188529 40.756645 
L 166.819959 38.724387 
L 168.451389 37.748903 
L 170.082819 37.261161 
L 171.714249 38.968258 
L 173.345678 37.748903 
L 174.977108 35.635355 
L 176.608538 34.985032 
L 178.239968 34.822452 
L 179.871398 35.147613 
L 181.502828 33.196645 
L 183.134258 34.822452 
L 184.765688 32.871484 
L 186.397117 32.302452 
L 188.028547 30.676645 
L 189.659977 31.001806 
L 191.291407 30.026323 
L 192.922837 29.538581 
L 194.554267 30.839226 
L 196.185697 31.97729 
L 197.817127 31.733419 
L 199.448556 32.302452 
L 201.079986 30.595355 
L 202.711416 32.627613 
L 204.342846 33.196645 
L 205.974276 31.81471 
L 207.605706 30.757935 
L 209.237136 29.050839 
L 210.868566 30.839226 
L 212.499995 30.514065 
L 214.131425 29.701161 
L 215.762855 29.45729 
L 217.394285 27.912774 
L 219.025715 27.018581 
L 220.657145 25.717935 
L 222.288575 24.823742 
L 223.920005 24.661161 
L 225.551434 22.628903 
L 227.182864 22.872774 
L 228.814294 24.579871 
L 230.445724 24.579871 
L 232.077154 23.116645 
L 233.708584 23.197935 
L 235.340014 23.035355 
L 236.971444 22.466323 
L 238.602873 22.222452 
L 240.234303 23.035355 
L 241.865733 22.628903 
L 243.497163 24.173419 
L 245.128593 23.360516 
L 246.760023 23.685677 
L 248.391453 23.279226 
L 250.022883 22.628903 
L 253.285742 21.816 
L 254.917172 21.165677 
L 256.548602 22.628903 
L 258.180032 21.816 
L 259.811462 21.89729 
L 261.442892 23.360516 
L 263.074322 24.661161 
L 264.705751 25.067613 
L 266.337181 24.336 
L 267.968611 24.092129 
L 269.600041 20.840516 
L 271.231471 21.246968 
L 272.862901 23.685677 
L 274.494331 23.035355 
L 276.125761 21.165677 
L 277.75719 21.73471 
L 279.38862 21.084387 
L 284.28291 22.385032 
L 285.91434 23.197935 
L 287.54577 24.336 
L 289.1772 24.41729 
L 292.440059 25.392774 
L 294.071489 25.392774 
L 295.702919 23.523097 
L 297.334349 24.742452 
L 298.965779 23.604387 
L 300.597209 25.799226 
L 302.228639 25.230194 
L 305.491498 25.148903 
L 307.122928 25.230194 
L 308.754358 27.587613 
L 310.385788 26.77471 
L 312.017218 26.530839 
L 313.648648 27.750194 
L 315.280078 27.668903 
L 316.911508 26.530839 
L 318.542937 27.750194 
L 320.174367 26.286968 
L 321.805797 25.067613 
L 323.437227 25.474065 
L 325.068657 25.392774 
L 326.700087 28.156645 
L 328.331517 28.563097 
L 329.962947 29.376 
L 331.594376 31.326968 
L 333.225806 30.757935 
L 334.857236 31.896 
L 336.488666 29.701161 
L 338.120096 29.619871 
L 339.751526 27.587613 
L 341.382956 26.530839 
L 343.014386 25.717935 
L 344.645815 27.831484 
L 346.277245 27.425032 
L 347.908675 26.530839 
L 349.540105 26.449548 
L 351.171535 25.555355 
L 354.434395 25.717935 
L 356.065825 24.742452 
L 359.328684 23.604387 
L 360.960114 23.604387 
L 362.591544 24.742452 
L 364.222974 24.742452 
L 365.854404 25.230194 
L 367.485834 24.986323 
L 369.117264 23.116645 
L 370.748693 23.116645 
L 372.380123 21.409548 
L 374.011553 22.710194 
L 375.642983 22.872774 
L 378.905843 19.296 
L 380.537273 21.89729 
L 380.537273 21.89729 
" style="fill:none;stroke:#2ca02c;stroke-linecap:square;stroke-width:1.5;"/>
   </g>
   <g id="line2d_20">
    <path clip-path="url(#p87dbc9ba3b)" d="M 55.882727 261.216 
L 59.145587 260.809548 
L 64.039877 258.61471 
L 65.671307 257.557935 
L 67.302736 256.25729 
L 68.934166 254.387613 
L 70.565596 252.030194 
L 72.197026 250.241806 
L 73.828456 248.778581 
L 75.459886 246.990194 
L 77.091316 246.01471 
L 78.722746 243.413419 
L 80.354175 241.787613 
L 81.985605 239.917935 
L 83.617035 237.560516 
L 85.248465 235.853419 
L 86.879895 233.983742 
L 88.511325 231.05729 
L 90.142755 230.244387 
L 91.774185 227.886968 
L 93.405614 225.123097 
L 95.037044 222.115355 
L 98.299904 220.001806 
L 99.931334 218.29471 
L 101.562764 215.856 
L 103.194194 214.555355 
L 104.825624 211.466323 
L 106.457053 209.840516 
L 108.088483 206.914065 
L 109.719913 205.69471 
L 111.351343 203.825032 
L 112.982773 202.524387 
L 114.614203 201.630194 
L 116.245633 199.760516 
L 117.877063 198.459871 
L 119.508492 195.208258 
L 121.139922 194.151484 
L 122.771352 194.151484 
L 124.402782 191.794065 
L 127.665642 188.542452 
L 129.297072 187.241806 
L 130.928502 185.290839 
L 132.559931 184.396645 
L 134.191361 182.283097 
L 135.822791 182.526968 
L 137.454221 181.063742 
L 139.085651 181.714065 
L 140.717081 181.795355 
L 142.348511 181.226323 
L 143.979941 180.088258 
L 145.61137 176.917935 
L 148.87423 174.641806 
L 150.50566 173.259871 
L 152.13709 173.828903 
L 153.76852 173.178581 
L 155.39995 173.09729 
L 158.66281 170.170839 
L 160.294239 168.870194 
L 161.925669 166.350194 
L 163.557099 164.968258 
L 165.188529 163.01729 
L 166.819959 162.204387 
L 168.451389 160.578581 
L 170.082819 161.066323 
L 171.714249 158.221161 
L 173.345678 157.896 
L 174.977108 156.920516 
L 176.608538 156.595355 
L 178.239968 155.863742 
L 181.502828 153.831484 
L 183.134258 152.530839 
L 184.765688 153.181161 
L 186.397117 152.043097 
L 188.028547 152.124387 
L 189.659977 151.148903 
L 192.922837 150.905032 
L 194.554267 149.035355 
L 196.185697 149.360516 
L 197.817127 151.392774 
L 199.448556 150.661161 
L 201.079986 152.286968 
L 202.711416 151.961806 
L 204.342846 152.124387 
L 205.974276 152.043097 
L 207.605706 152.124387 
L 209.237136 153.262452 
L 210.868566 152.286968 
L 212.499995 153.425032 
L 214.131425 153.099871 
L 215.762855 152.124387 
L 217.394285 152.856 
L 219.025715 153.994065 
L 220.657145 154.319226 
L 222.288575 153.343742 
L 225.551434 153.343742 
L 227.182864 152.449548 
L 228.814294 149.685677 
L 230.445724 146.677935 
L 232.077154 146.515355 
L 233.708584 145.539871 
L 235.340014 143.670194 
L 238.602873 144.808258 
L 240.234303 143.182452 
L 241.865733 141.881806 
L 243.497163 139.849548 
L 245.128593 142.613419 
L 246.760023 144.239226 
L 248.391453 144.320516 
L 250.022883 141.963097 
L 251.654312 142.532129 
L 253.285742 143.426323 
L 254.917172 141.881806 
L 256.548602 141.637935 
L 258.180032 142.288258 
L 259.811462 141.150194 
L 261.442892 142.776 
L 264.705751 141.068903 
L 266.337181 141.556645 
L 267.968611 142.69471 
L 269.600041 144.239226 
L 271.231471 145.052129 
L 272.862901 141.881806 
L 276.125761 145.052129 
L 277.75719 144.808258 
L 279.38862 145.539871 
L 281.02005 146.108903 
L 284.28291 143.101161 
L 285.91434 143.507613 
L 287.54577 140.581161 
L 289.1772 141.231484 
L 290.80863 141.150194 
L 292.440059 140.825032 
L 294.071489 142.288258 
L 295.702919 143.995355 
L 297.334349 142.69471 
L 298.965779 144.483097 
L 300.597209 142.450839 
L 302.228639 142.532129 
L 303.860069 141.719226 
L 305.491498 141.800516 
L 307.122928 142.613419 
L 308.754358 142.85729 
L 310.385788 141.231484 
L 313.648648 138.305032 
L 315.280078 138.061161 
L 316.911508 139.605677 
L 318.542937 140.012129 
L 320.174367 139.849548 
L 321.805797 141.637935 
L 323.437227 140.581161 
L 325.068657 141.068903 
L 326.700087 139.199226 
L 328.331517 138.874065 
L 329.962947 139.605677 
L 331.594376 140.093419 
L 333.225806 139.930839 
L 334.857236 139.605677 
L 336.488666 141.800516 
L 339.751526 143.101161 
L 341.382956 142.532129 
L 343.014386 144.157935 
L 344.645815 142.450839 
L 346.277245 142.776 
L 347.908675 143.914065 
L 349.540105 142.938581 
L 351.171535 143.670194 
L 352.802965 144.157935 
L 354.434395 145.946323 
L 356.065825 145.133419 
L 357.697254 145.37729 
L 359.328684 143.263742 
L 364.222974 138.386323 
L 367.485834 138.061161 
L 369.117264 138.874065 
L 370.748693 138.061161 
L 372.380123 138.955355 
L 374.011553 140.581161 
L 375.642983 141.881806 
L 377.274413 142.69471 
L 378.905843 142.69471 
L 380.537273 140.825032 
L 380.537273 140.825032 
" style="fill:none;stroke:#d62728;stroke-linecap:square;stroke-width:1.5;"/>
   </g>
   <g id="patch_3">
    <path d="M 39.65 273.312 
L 39.65 7.2 
" style="fill:none;stroke:#000000;stroke-linecap:square;stroke-linejoin:miter;stroke-width:0.8;"/>
   </g>
   <g id="patch_4">
    <path d="M 396.77 273.312 
L 396.77 7.2 
" style="fill:none;stroke:#000000;stroke-linecap:square;stroke-linejoin:miter;stroke-width:0.8;"/>
   </g>
   <g id="patch_5">
    <path d="M 39.65 273.312 
L 396.77 273.312 
" style="fill:none;stroke:#000000;stroke-linecap:square;stroke-linejoin:miter;stroke-width:0.8;"/>
   </g>
   <g id="patch_6">
    <path d="M 39.65 7.2 
L 396.77 7.2 
" style="fill:none;stroke:#000000;stroke-linecap:square;stroke-linejoin:miter;stroke-width:0.8;"/>
   </g>
  </g>
 </g>
 <defs>
  <clipPath id="p87dbc9ba3b">
   <rect height="266.112" width="357.12" x="39.65" y="7.2"/>
  </clipPath>
 </defs>
</svg>
