<?xml version="1.0" encoding="utf-8" standalone="no"?>
<!DOCTYPE svg PUBLIC "-//W3C//DTD SVG 1.1//EN"
  "http://www.w3.org/Graphics/SVG/1.1/DTD/svg11.dtd">
<!-- Created with matplotlib (https://matplotlib.org/) -->
<svg height="297.190125pt" version="1.1" viewBox="0 0 403.97 297.190125" width="403.97pt" xmlns="http://www.w3.org/2000/svg" xmlns:xlink="http://www.w3.org/1999/xlink">
 <metadata>
  <rdf:RDF xmlns:cc="http://creativecommons.org/ns#" xmlns:dc="http://purl.org/dc/elements/1.1/" xmlns:rdf="http://www.w3.org/1999/02/22-rdf-syntax-ns#">
   <cc:Work>
    <dc:type rdf:resource="http://purl.org/dc/dcmitype/StillImage"/>
    <dc:date>2021-03-23T04:08:41.003396</dc:date>
    <dc:format>image/svg+xml</dc:format>
    <dc:creator>
     <cc:Agent>
      <dc:title>Matplotlib v3.3.4, https://matplotlib.org/</dc:title>
     </cc:Agent>
    </dc:creator>
   </cc:Work>
  </rdf:RDF>
 </metadata>
 <defs>
  <style type="text/css">*{stroke-linecap:butt;stroke-linejoin:round;}</style>
 </defs>
 <g id="figure_1">
  <g id="patch_1">
   <path d="M 0 297.190125 
L 403.97 297.190125 
L 403.97 0 
L 0 0 
z
" style="fill:#ffffff;"/>
  </g>
  <g id="axes_1">
   <g id="patch_2">
    <path d="M 39.65 273.312 
L 396.77 273.312 
L 396.77 7.2 
L 39.65 7.2 
z
" style="fill:#ffffff;"/>
   </g>
   <g id="matplotlib.axis_1">
    <g id="xtick_1">
     <g id="line2d_1">
      <defs>
       <path d="M 0 0 
L 0 3.5 
" id="m603097c0ae" style="stroke:#000000;stroke-width:0.8;"/>
      </defs>
      <g>
       <use style="stroke:#000000;stroke-width:0.8;" x="55.882727" xlink:href="#m603097c0ae" y="273.312"/>
      </g>
     </g>
     <g id="text_1">
      <!-- 0.0 -->
      <g transform="translate(47.931165 287.910437)scale(0.1 -0.1)">
       <defs>
        <path d="M 31.78125 66.40625 
Q 24.171875 66.40625 20.328125 58.90625 
Q 16.5 51.421875 16.5 36.375 
Q 16.5 21.390625 20.328125 13.890625 
Q 24.171875 6.390625 31.78125 6.390625 
Q 39.453125 6.390625 43.28125 13.890625 
Q 47.125 21.390625 47.125 36.375 
Q 47.125 51.421875 43.28125 58.90625 
Q 39.453125 66.40625 31.78125 66.40625 
z
M 31.78125 74.21875 
Q 44.046875 74.21875 50.515625 64.515625 
Q 56.984375 54.828125 56.984375 36.375 
Q 56.984375 17.96875 50.515625 8.265625 
Q 44.046875 -1.421875 31.78125 -1.421875 
Q 19.53125 -1.421875 13.0625 8.265625 
Q 6.59375 17.96875 6.59375 36.375 
Q 6.59375 54.828125 13.0625 64.515625 
Q 19.53125 74.21875 31.78125 74.21875 
z
" id="DejaVuSans-48"/>
        <path d="M 10.6875 12.40625 
L 21 12.40625 
L 21 0 
L 10.6875 0 
z
" id="DejaVuSans-46"/>
       </defs>
       <use xlink:href="#DejaVuSans-48"/>
       <use x="63.623047" xlink:href="#DejaVuSans-46"/>
       <use x="95.410156" xlink:href="#DejaVuSans-48"/>
      </g>
     </g>
    </g>
    <g id="xtick_2">
     <g id="line2d_2">
      <g>
       <use style="stroke:#000000;stroke-width:0.8;" x="96.668474" xlink:href="#m603097c0ae" y="273.312"/>
      </g>
     </g>
     <g id="text_2">
      <!-- 2.5 -->
      <g transform="translate(88.716912 287.910437)scale(0.1 -0.1)">
       <defs>
        <path d="M 19.1875 8.296875 
L 53.609375 8.296875 
L 53.609375 0 
L 7.328125 0 
L 7.328125 8.296875 
Q 12.9375 14.109375 22.625 23.890625 
Q 32.328125 33.6875 34.8125 36.53125 
Q 39.546875 41.84375 41.421875 45.53125 
Q 43.3125 49.21875 43.3125 52.78125 
Q 43.3125 58.59375 39.234375 62.25 
Q 35.15625 65.921875 28.609375 65.921875 
Q 23.96875 65.921875 18.8125 64.3125 
Q 13.671875 62.703125 7.8125 59.421875 
L 7.8125 69.390625 
Q 13.765625 71.78125 18.9375 73 
Q 24.125 74.21875 28.421875 74.21875 
Q 39.75 74.21875 46.484375 68.546875 
Q 53.21875 62.890625 53.21875 53.421875 
Q 53.21875 48.921875 51.53125 44.890625 
Q 49.859375 40.875 45.40625 35.40625 
Q 44.1875 33.984375 37.640625 27.21875 
Q 31.109375 20.453125 19.1875 8.296875 
z
" id="DejaVuSans-50"/>
        <path d="M 10.796875 72.90625 
L 49.515625 72.90625 
L 49.515625 64.59375 
L 19.828125 64.59375 
L 19.828125 46.734375 
Q 21.96875 47.46875 24.109375 47.828125 
Q 26.265625 48.1875 28.421875 48.1875 
Q 40.625 48.1875 47.75 41.5 
Q 54.890625 34.8125 54.890625 23.390625 
Q 54.890625 11.625 47.5625 5.09375 
Q 40.234375 -1.421875 26.90625 -1.421875 
Q 22.3125 -1.421875 17.546875 -0.640625 
Q 12.796875 0.140625 7.71875 1.703125 
L 7.71875 11.625 
Q 12.109375 9.234375 16.796875 8.0625 
Q 21.484375 6.890625 26.703125 6.890625 
Q 35.15625 6.890625 40.078125 11.328125 
Q 45.015625 15.765625 45.015625 23.390625 
Q 45.015625 31 40.078125 35.4375 
Q 35.15625 39.890625 26.703125 39.890625 
Q 22.75 39.890625 18.8125 39.015625 
Q 14.890625 38.140625 10.796875 36.28125 
z
" id="DejaVuSans-53"/>
       </defs>
       <use xlink:href="#DejaVuSans-50"/>
       <use x="63.623047" xlink:href="#DejaVuSans-46"/>
       <use x="95.410156" xlink:href="#DejaVuSans-53"/>
      </g>
     </g>
    </g>
    <g id="xtick_3">
     <g id="line2d_3">
      <g>
       <use style="stroke:#000000;stroke-width:0.8;" x="137.454221" xlink:href="#m603097c0ae" y="273.312"/>
      </g>
     </g>
     <g id="text_3">
      <!-- 5.0 -->
      <g transform="translate(129.502659 287.910437)scale(0.1 -0.1)">
       <use xlink:href="#DejaVuSans-53"/>
       <use x="63.623047" xlink:href="#DejaVuSans-46"/>
       <use x="95.410156" xlink:href="#DejaVuSans-48"/>
      </g>
     </g>
    </g>
    <g id="xtick_4">
     <g id="line2d_4">
      <g>
       <use style="stroke:#000000;stroke-width:0.8;" x="178.239968" xlink:href="#m603097c0ae" y="273.312"/>
      </g>
     </g>
     <g id="text_4">
      <!-- 7.5 -->
      <g transform="translate(170.288406 287.910437)scale(0.1 -0.1)">
       <defs>
        <path d="M 8.203125 72.90625 
L 55.078125 72.90625 
L 55.078125 68.703125 
L 28.609375 0 
L 18.3125 0 
L 43.21875 64.59375 
L 8.203125 64.59375 
z
" id="DejaVuSans-55"/>
       </defs>
       <use xlink:href="#DejaVuSans-55"/>
       <use x="63.623047" xlink:href="#DejaVuSans-46"/>
       <use x="95.410156" xlink:href="#DejaVuSans-53"/>
      </g>
     </g>
    </g>
    <g id="xtick_5">
     <g id="line2d_5">
      <g>
       <use style="stroke:#000000;stroke-width:0.8;" x="219.025715" xlink:href="#m603097c0ae" y="273.312"/>
      </g>
     </g>
     <g id="text_5">
      <!-- 10.0 -->
      <g transform="translate(207.892902 287.910437)scale(0.1 -0.1)">
       <defs>
        <path d="M 12.40625 8.296875 
L 28.515625 8.296875 
L 28.515625 63.921875 
L 10.984375 60.40625 
L 10.984375 69.390625 
L 28.421875 72.90625 
L 38.28125 72.90625 
L 38.28125 8.296875 
L 54.390625 8.296875 
L 54.390625 0 
L 12.40625 0 
z
" id="DejaVuSans-49"/>
       </defs>
       <use xlink:href="#DejaVuSans-49"/>
       <use x="63.623047" xlink:href="#DejaVuSans-48"/>
       <use x="127.246094" xlink:href="#DejaVuSans-46"/>
       <use x="159.033203" xlink:href="#DejaVuSans-48"/>
      </g>
     </g>
    </g>
    <g id="xtick_6">
     <g id="line2d_6">
      <g>
       <use style="stroke:#000000;stroke-width:0.8;" x="259.811462" xlink:href="#m603097c0ae" y="273.312"/>
      </g>
     </g>
     <g id="text_6">
      <!-- 12.5 -->
      <g transform="translate(248.678649 287.910437)scale(0.1 -0.1)">
       <use xlink:href="#DejaVuSans-49"/>
       <use x="63.623047" xlink:href="#DejaVuSans-50"/>
       <use x="127.246094" xlink:href="#DejaVuSans-46"/>
       <use x="159.033203" xlink:href="#DejaVuSans-53"/>
      </g>
     </g>
    </g>
    <g id="xtick_7">
     <g id="line2d_7">
      <g>
       <use style="stroke:#000000;stroke-width:0.8;" x="300.597209" xlink:href="#m603097c0ae" y="273.312"/>
      </g>
     </g>
     <g id="text_7">
      <!-- 15.0 -->
      <g transform="translate(289.464396 287.910437)scale(0.1 -0.1)">
       <use xlink:href="#DejaVuSans-49"/>
       <use x="63.623047" xlink:href="#DejaVuSans-53"/>
       <use x="127.246094" xlink:href="#DejaVuSans-46"/>
       <use x="159.033203" xlink:href="#DejaVuSans-48"/>
      </g>
     </g>
    </g>
    <g id="xtick_8">
     <g id="line2d_8">
      <g>
       <use style="stroke:#000000;stroke-width:0.8;" x="341.382956" xlink:href="#m603097c0ae" y="273.312"/>
      </g>
     </g>
     <g id="text_8">
      <!-- 17.5 -->
      <g transform="translate(330.250143 287.910437)scale(0.1 -0.1)">
       <use xlink:href="#DejaVuSans-49"/>
       <use x="63.623047" xlink:href="#DejaVuSans-55"/>
       <use x="127.246094" xlink:href="#DejaVuSans-46"/>
       <use x="159.033203" xlink:href="#DejaVuSans-53"/>
      </g>
     </g>
    </g>
    <g id="xtick_9">
     <g id="line2d_9">
      <g>
       <use style="stroke:#000000;stroke-width:0.8;" x="382.168703" xlink:href="#m603097c0ae" y="273.312"/>
      </g>
     </g>
     <g id="text_9">
      <!-- 20.0 -->
      <g transform="translate(371.03589 287.910437)scale(0.1 -0.1)">
       <use xlink:href="#DejaVuSans-50"/>
       <use x="63.623047" xlink:href="#DejaVuSans-48"/>
       <use x="127.246094" xlink:href="#DejaVuSans-46"/>
       <use x="159.033203" xlink:href="#DejaVuSans-48"/>
      </g>
     </g>
    </g>
   </g>
   <g id="matplotlib.axis_2">
    <g id="ytick_1">
     <g id="line2d_10">
      <defs>
       <path d="M 0 0 
L -3.5 0 
" id="m8d6c59a750" style="stroke:#000000;stroke-width:0.8;"/>
      </defs>
      <g>
       <use style="stroke:#000000;stroke-width:0.8;" x="39.65" xlink:href="#m8d6c59a750" y="261.216"/>
      </g>
     </g>
     <g id="text_10">
      <!-- 0 -->
      <g transform="translate(26.2875 265.015219)scale(0.1 -0.1)">
       <use xlink:href="#DejaVuSans-48"/>
      </g>
     </g>
    </g>
    <g id="ytick_2">
     <g id="line2d_11">
      <g>
       <use style="stroke:#000000;stroke-width:0.8;" x="39.65" xlink:href="#m8d6c59a750" y="220.815198"/>
      </g>
     </g>
     <g id="text_11">
      <!-- 500 -->
      <g transform="translate(13.5625 224.614417)scale(0.1 -0.1)">
       <use xlink:href="#DejaVuSans-53"/>
       <use x="63.623047" xlink:href="#DejaVuSans-48"/>
       <use x="127.246094" xlink:href="#DejaVuSans-48"/>
      </g>
     </g>
    </g>
    <g id="ytick_3">
     <g id="line2d_12">
      <g>
       <use style="stroke:#000000;stroke-width:0.8;" x="39.65" xlink:href="#m8d6c59a750" y="180.414397"/>
      </g>
     </g>
     <g id="text_12">
      <!-- 1000 -->
      <g transform="translate(7.2 184.213616)scale(0.1 -0.1)">
       <use xlink:href="#DejaVuSans-49"/>
       <use x="63.623047" xlink:href="#DejaVuSans-48"/>
       <use x="127.246094" xlink:href="#DejaVuSans-48"/>
       <use x="190.869141" xlink:href="#DejaVuSans-48"/>
      </g>
     </g>
    </g>
    <g id="ytick_4">
     <g id="line2d_13">
      <g>
       <use style="stroke:#000000;stroke-width:0.8;" x="39.65" xlink:href="#m8d6c59a750" y="140.013595"/>
      </g>
     </g>
     <g id="text_13">
      <!-- 1500 -->
      <g transform="translate(7.2 143.812814)scale(0.1 -0.1)">
       <use xlink:href="#DejaVuSans-49"/>
       <use x="63.623047" xlink:href="#DejaVuSans-53"/>
       <use x="127.246094" xlink:href="#DejaVuSans-48"/>
       <use x="190.869141" xlink:href="#DejaVuSans-48"/>
      </g>
     </g>
    </g>
    <g id="ytick_5">
     <g id="line2d_14">
      <g>
       <use style="stroke:#000000;stroke-width:0.8;" x="39.65" xlink:href="#m8d6c59a750" y="99.612794"/>
      </g>
     </g>
     <g id="text_14">
      <!-- 2000 -->
      <g transform="translate(7.2 103.412012)scale(0.1 -0.1)">
       <use xlink:href="#DejaVuSans-50"/>
       <use x="63.623047" xlink:href="#DejaVuSans-48"/>
       <use x="127.246094" xlink:href="#DejaVuSans-48"/>
       <use x="190.869141" xlink:href="#DejaVuSans-48"/>
      </g>
     </g>
    </g>
    <g id="ytick_6">
     <g id="line2d_15">
      <g>
       <use style="stroke:#000000;stroke-width:0.8;" x="39.65" xlink:href="#m8d6c59a750" y="59.211992"/>
      </g>
     </g>
     <g id="text_15">
      <!-- 2500 -->
      <g transform="translate(7.2 63.011211)scale(0.1 -0.1)">
       <use xlink:href="#DejaVuSans-50"/>
       <use x="63.623047" xlink:href="#DejaVuSans-53"/>
       <use x="127.246094" xlink:href="#DejaVuSans-48"/>
       <use x="190.869141" xlink:href="#DejaVuSans-48"/>
      </g>
     </g>
    </g>
    <g id="ytick_7">
     <g id="line2d_16">
      <g>
       <use style="stroke:#000000;stroke-width:0.8;" x="39.65" xlink:href="#m8d6c59a750" y="18.81119"/>
      </g>
     </g>
     <g id="text_16">
      <!-- 3000 -->
      <g transform="translate(7.2 22.610409)scale(0.1 -0.1)">
       <defs>
        <path d="M 40.578125 39.3125 
Q 47.65625 37.796875 51.625 33 
Q 55.609375 28.21875 55.609375 21.1875 
Q 55.609375 10.40625 48.1875 4.484375 
Q 40.765625 -1.421875 27.09375 -1.421875 
Q 22.515625 -1.421875 17.65625 -0.515625 
Q 12.796875 0.390625 7.625 2.203125 
L 7.625 11.71875 
Q 11.71875 9.328125 16.59375 8.109375 
Q 21.484375 6.890625 26.8125 6.890625 
Q 36.078125 6.890625 40.9375 10.546875 
Q 45.796875 14.203125 45.796875 21.1875 
Q 45.796875 27.640625 41.28125 31.265625 
Q 36.765625 34.90625 28.71875 34.90625 
L 20.21875 34.90625 
L 20.21875 43.015625 
L 29.109375 43.015625 
Q 36.375 43.015625 40.234375 45.921875 
Q 44.09375 48.828125 44.09375 54.296875 
Q 44.09375 59.90625 40.109375 62.90625 
Q 36.140625 65.921875 28.71875 65.921875 
Q 24.65625 65.921875 20.015625 65.03125 
Q 15.375 64.15625 9.8125 62.3125 
L 9.8125 71.09375 
Q 15.4375 72.65625 20.34375 73.4375 
Q 25.25 74.21875 29.59375 74.21875 
Q 40.828125 74.21875 47.359375 69.109375 
Q 53.90625 64.015625 53.90625 55.328125 
Q 53.90625 49.265625 50.4375 45.09375 
Q 46.96875 40.921875 40.578125 39.3125 
z
" id="DejaVuSans-51"/>
       </defs>
       <use xlink:href="#DejaVuSans-51"/>
       <use x="63.623047" xlink:href="#DejaVuSans-48"/>
       <use x="127.246094" xlink:href="#DejaVuSans-48"/>
       <use x="190.869141" xlink:href="#DejaVuSans-48"/>
      </g>
     </g>
    </g>
   </g>
   <g id="line2d_17">
    <path clip-path="url(#p93c407323f)" d="M 55.882727 261.216 
L 59.961302 241.015599 
L 64.039877 222.762517 
L 68.118451 206.269032 
L 72.197026 191.365519 
L 76.275601 177.898704 
L 80.354175 165.730091 
L 84.43275 154.734532 
L 88.511325 144.798945 
L 92.589899 135.821148 
L 96.668474 127.708811 
L 100.747049 120.378503 
L 104.825624 113.754837 
L 108.904198 107.769692 
L 112.982773 102.361516 
L 117.061348 97.474687 
L 121.139922 93.058949 
L 125.218497 89.068888 
L 129.297072 85.463469 
L 133.375646 82.205612 
L 137.454221 79.261812 
L 141.532796 76.601795 
L 145.61137 74.198204 
L 149.689945 72.026319 
L 153.76852 70.063803 
L 157.847095 68.290474 
L 161.925669 66.688094 
L 166.004244 65.240183 
L 170.082819 63.931851 
L 174.161393 62.749642 
L 178.239968 61.681398 
L 182.318543 60.716133 
L 186.397117 59.84392 
L 190.475692 59.055787 
L 194.554267 58.343631 
L 198.632841 57.700127 
L 202.711416 57.118656 
L 206.789991 56.593239 
L 210.868566 56.118472 
L 214.94714 55.689473 
L 219.025715 55.30183 
L 223.10429 54.951555 
L 227.182864 54.635047 
L 231.261439 54.34905 
L 235.340014 54.090623 
L 239.418588 53.857108 
L 243.497163 53.646105 
L 247.575738 53.455442 
L 251.654312 53.283159 
L 255.732887 53.127484 
L 259.811462 52.986816 
L 263.890037 52.859709 
L 267.968611 52.744854 
L 272.047186 52.641072 
L 276.125761 52.547294 
L 280.204335 52.462557 
L 284.28291 52.385988 
L 288.361485 52.3168 
L 292.440059 52.254282 
L 296.518634 52.197791 
L 300.597209 52.146746 
L 304.675783 52.100621 
L 308.754358 52.058943 
L 312.832933 52.021282 
L 316.911508 51.987252 
L 320.990082 51.956503 
L 325.068657 51.928717 
L 329.147232 51.903611 
L 333.225806 51.880924 
L 337.304381 51.860425 
L 341.382956 51.841901 
L 345.46153 51.825164 
L 349.540105 51.810039 
L 353.61868 51.796373 
L 357.697254 51.784024 
L 361.775829 51.772866 
L 365.854404 51.762783 
L 369.932979 51.753673 
L 374.011553 51.74544 
L 378.090128 51.738001 
" style="fill:none;stroke:#1f77b4;stroke-linecap:square;stroke-width:1.5;"/>
   </g>
   <g id="line2d_18">
    <path clip-path="url(#p93c407323f)" d="M 55.882727 261.216 
L 59.961302 261.216 
L 64.039877 259.268681 
L 68.118451 256.029512 
L 72.197026 251.978418 
L 76.275601 247.463699 
L 80.354175 242.735214 
L 84.43275 237.969458 
L 88.511325 233.288463 
L 92.589899 228.774054 
L 96.668474 224.478545 
L 100.747049 220.432789 
L 104.825624 216.652182 
L 108.904198 213.141155 
L 112.982773 209.896508 
L 117.061348 206.909878 
L 121.139922 204.169546 
L 125.218497 201.661764 
L 129.297072 199.37171 
L 133.375646 197.284165 
L 137.454221 195.38399 
L 141.532796 193.656455 
L 145.61137 192.087448 
L 149.689945 190.663611 
L 153.76852 189.37241 
L 157.847095 188.202168 
L 161.925669 187.14207 
L 166.004244 186.182138 
L 170.082819 185.313203 
L 174.161393 184.526863 
L 178.239968 183.815437 
L 182.318543 183.171916 
L 186.397117 182.589918 
L 190.475692 182.063634 
L 194.554267 181.587788 
L 198.632841 181.157588 
L 202.711416 180.768689 
L 206.789991 180.417149 
L 210.868566 180.099399 
L 214.94714 179.812205 
L 219.025715 179.552639 
L 223.10429 179.318052 
L 227.182864 179.106047 
L 231.261439 178.914454 
L 235.340014 178.741311 
L 239.418588 178.584845 
L 243.497163 178.443451 
L 247.575738 178.31568 
L 251.654312 178.200219 
L 255.732887 178.095884 
L 259.811462 178.001603 
L 263.890037 177.916408 
L 267.968611 177.839423 
L 272.047186 177.769858 
L 276.125761 177.706999 
L 280.204335 177.650198 
L 284.28291 177.598871 
L 288.361485 177.552492 
L 292.440059 177.510584 
L 296.518634 177.472715 
L 300.597209 177.438497 
L 304.675783 177.407577 
L 308.754358 177.379638 
L 312.832933 177.354392 
L 316.911508 177.331579 
L 320.990082 177.310966 
L 325.068657 177.292339 
L 329.147232 177.275509 
L 333.225806 177.2603 
L 337.304381 177.246558 
L 341.382956 177.234141 
L 345.46153 177.22292 
L 349.540105 177.212781 
L 353.61868 177.20362 
L 357.697254 177.195342 
L 361.775829 177.187861 
L 365.854404 177.181102 
L 369.932979 177.174994 
L 374.011553 177.169476 
L 378.090128 177.164489 
" style="fill:none;stroke:#ff7f0e;stroke-linecap:square;stroke-width:1.5;"/>
   </g>
   <g id="line2d_19">
    <path clip-path="url(#p93c407323f)" d="M 55.882727 261.216 
L 57.514157 253.378244 
L 59.145587 244.57087 
L 64.039877 222.108024 
L 65.671307 214.270269 
L 67.302736 207.725339 
L 68.934166 200.614798 
L 70.565596 195.362693 
L 72.197026 188.494557 
L 73.828456 182.757643 
L 75.459886 177.828745 
L 77.091316 173.950269 
L 78.722746 169.263776 
L 81.985605 158.436361 
L 83.617035 155.769908 
L 88.511325 143.164858 
L 90.142755 139.367182 
L 91.774185 136.619928 
L 93.405614 131.933435 
L 95.037044 128.943776 
L 96.668474 123.368465 
L 98.299904 118.924377 
L 99.931334 115.611511 
L 101.562764 111.652232 
L 103.194194 109.147383 
L 104.825624 105.672914 
L 106.457053 103.491271 
L 111.351343 92.340649 
L 112.982773 90.320609 
L 114.614203 87.088545 
L 116.245633 85.391711 
L 117.877063 82.159647 
L 119.508492 78.604377 
L 121.139922 75.776321 
L 122.771352 74.564297 
L 124.402782 72.059447 
L 126.034212 71.493836 
L 127.665642 72.867463 
L 129.297072 71.978645 
L 130.928502 70.120208 
L 132.559931 67.776962 
L 134.191361 68.18097 
L 135.822791 66.080128 
L 137.454221 65.595319 
L 139.085651 65.514517 
L 140.717081 64.302493 
L 142.348511 61.312834 
L 143.979941 58.646381 
L 145.61137 55.414317 
L 147.2428 54.929507 
L 148.87423 53.232673 
L 150.50566 52.909467 
L 152.13709 51.939848 
L 153.76852 49.354196 
L 155.39995 49.354196 
L 157.03138 47.01095 
L 158.66281 45.960529 
L 160.294239 45.718124 
L 163.557099 41.839647 
L 165.188529 39.900409 
L 166.819959 37.314758 
L 168.451389 39.334798 
L 170.082819 40.062012 
L 171.714249 41.031631 
L 173.345678 40.223615 
L 174.977108 38.203575 
L 176.608538 38.041972 
L 178.239968 37.233956 
L 179.871398 36.910749 
L 183.134258 37.476361 
L 184.765688 38.203575 
L 186.397117 36.42594 
L 188.028547 36.506741 
L 189.659977 34.567503 
L 191.291407 34.163495 
L 192.922837 30.689026 
L 194.554267 29.719407 
L 196.185697 28.507383 
L 197.817127 28.668986 
L 199.448556 27.618565 
L 201.079986 26.972152 
L 202.711416 27.456962 
L 204.342846 28.426581 
L 205.974276 28.911391 
L 207.605706 31.820248 
L 209.237136 32.38586 
L 210.868566 30.527423 
L 212.499995 29.638605 
L 214.131425 30.042613 
L 215.762855 30.850629 
L 217.394285 29.88101 
L 219.025715 30.769828 
L 220.657145 30.123415 
L 222.288575 29.638605 
L 223.920005 29.3962 
L 225.551434 28.184176 
L 227.182864 30.527423 
L 228.814294 31.820248 
L 230.445724 32.143455 
L 232.077154 30.042613 
L 233.708584 29.557804 
L 235.340014 28.34578 
L 236.971444 28.830589 
L 238.602873 27.941772 
L 240.234303 26.083335 
L 241.865733 27.699367 
L 243.497163 28.022573 
L 245.128593 28.588184 
L 246.760023 28.022573 
L 248.391453 28.830589 
L 250.022883 28.668986 
L 251.654312 28.992192 
L 253.285742 29.153796 
L 254.917172 29.477002 
L 256.548602 27.295359 
L 258.180032 28.103375 
L 259.811462 29.88101 
L 261.442892 29.638605 
L 263.074322 28.992192 
L 264.705751 28.507383 
L 267.968611 26.487343 
L 269.600041 26.002533 
L 271.231471 25.113715 
L 276.125761 27.618565 
L 277.75719 28.749788 
L 279.38862 27.37616 
L 281.02005 27.133756 
L 282.65148 26.164136 
L 284.28291 29.234597 
L 285.91434 28.830589 
L 287.54577 27.780168 
L 289.1772 26.891351 
L 290.80863 23.578485 
L 292.440059 22.204858 
L 295.702919 22.204858 
L 297.334349 20.588826 
L 298.965779 19.296 
L 300.597209 20.427222 
L 303.860069 23.82089 
L 305.491498 23.012874 
L 308.754358 20.750429 
L 310.385788 20.83123 
L 312.017218 19.942413 
L 313.648648 20.508024 
L 315.280078 20.83123 
L 316.911508 22.770469 
L 318.542937 24.305699 
L 321.805797 26.729747 
L 323.437227 25.760128 
L 325.068657 25.275319 
L 326.700087 22.608866 
L 328.331517 23.174477 
L 329.962947 21.558445 
L 331.594376 21.962453 
L 333.225806 22.528064 
L 334.857236 20.669627 
L 336.488666 22.285659 
L 338.120096 23.255279 
L 339.751526 22.124056 
L 341.382956 20.83123 
L 343.014386 20.104016 
L 344.645815 20.750429 
L 346.277245 21.154437 
L 347.908675 22.608866 
L 349.540105 23.497683 
L 351.171535 22.528064 
L 352.802965 23.416882 
L 354.434395 21.962453 
L 356.065825 21.396842 
L 357.697254 22.124056 
L 359.328684 21.962453 
L 360.960114 20.265619 
L 362.591544 19.700008 
L 364.222974 20.992834 
L 365.854404 21.235238 
L 367.485834 22.447263 
L 369.117264 21.80085 
L 370.748693 20.669627 
L 372.380123 20.346421 
L 374.011553 20.992834 
L 375.642983 21.154437 
L 377.274413 21.639246 
L 378.905843 20.265619 
L 380.537273 19.861611 
L 380.537273 19.861611 
" style="fill:none;stroke:#2ca02c;stroke-linecap:square;stroke-width:1.5;"/>
   </g>
   <g id="line2d_20">
    <path clip-path="url(#p93c407323f)" d="M 55.882727 261.216 
L 57.514157 261.135198 
L 60.777017 260.407984 
L 64.039877 258.791952 
L 65.671307 257.014317 
L 67.302736 255.559888 
L 68.934166 254.590269 
L 70.565596 253.378244 
L 72.197026 251.843014 
L 73.828456 249.822974 
L 75.459886 248.206942 
L 78.722746 243.520449 
L 80.354175 242.227623 
L 81.985605 240.449988 
L 83.617035 238.187543 
L 85.248465 235.036281 
L 86.879895 232.289026 
L 93.405614 223.885659 
L 95.037044 220.653595 
L 96.668474 218.310349 
L 98.299904 216.694317 
L 99.931334 214.755078 
L 101.562764 213.139046 
L 103.194194 209.422172 
L 104.825624 209.341371 
L 106.457053 207.886942 
L 108.088483 205.382092 
L 109.719913 204.170068 
L 111.351343 202.634838 
L 112.982773 201.503615 
L 114.614203 200.695599 
L 116.245633 197.544337 
L 117.877063 195.605098 
L 121.139922 193.261852 
L 122.771352 191.484216 
L 124.402782 191.16101 
L 126.034212 189.464176 
L 127.665642 186.070509 
L 129.297072 184.292874 
L 130.928502 181.707222 
L 132.559931 180.414397 
L 134.191361 178.313555 
L 135.822791 177.424737 
L 137.454221 175.808705 
L 139.085651 174.839086 
L 140.717081 173.223054 
L 142.348511 172.172633 
L 143.979941 172.172633 
L 145.61137 171.203014 
L 147.2428 171.607022 
L 148.87423 172.334236 
L 150.50566 170.4758 
L 152.13709 169.344577 
L 153.76852 169.50618 
L 155.39995 168.940569 
L 157.03138 168.940569 
L 158.66281 167.405339 
L 161.925669 166.031711 
L 165.188529 165.95091 
L 166.819959 166.678124 
L 168.451389 164.577283 
L 170.082819 162.799647 
L 171.714249 160.133194 
L 173.345678 160.698806 
L 174.977108 160.94121 
L 176.608538 159.729186 
L 178.239968 158.113154 
L 179.871398 155.931511 
L 181.502828 156.416321 
L 183.134258 154.315479 
L 184.765688 154.315479 
L 186.397117 155.3659 
L 188.028547 154.88109 
L 189.659977 154.638685 
L 191.291407 153.507463 
L 192.922837 153.34586 
L 194.554267 152.618645 
L 196.185697 151.649026 
L 199.448556 150.437002 
L 201.079986 150.517804 
L 202.711416 150.760208 
L 204.342846 149.628986 
L 205.974276 149.548184 
L 209.237136 146.639327 
L 210.868566 147.608946 
L 212.499995 149.063375 
L 214.131425 146.962533 
L 215.762855 145.669707 
L 217.394285 144.215279 
L 219.025715 144.538485 
L 220.657145 144.700088 
L 222.288575 144.538485 
L 223.920005 144.78089 
L 225.551434 147.204938 
L 227.182864 146.80093 
L 228.814294 144.942493 
L 230.445724 145.669707 
L 232.077154 144.942493 
L 233.708584 144.619287 
L 235.340014 145.992914 
L 236.971444 145.750509 
L 240.234303 148.82097 
L 241.865733 146.720128 
L 243.497163 146.477723 
L 245.128593 147.204938 
L 248.391453 147.608946 
L 250.022883 147.043335 
L 251.654312 146.720128 
L 253.285742 148.497764 
L 254.917172 149.548184 
L 256.548602 151.164216 
L 258.180032 150.517804 
L 259.811462 147.770549 
L 261.442892 147.851351 
L 264.705751 145.992914 
L 266.337181 145.750509 
L 267.968611 146.073715 
L 269.600041 144.619287 
L 271.231471 145.023295 
L 272.862901 146.154517 
L 274.494331 145.346501 
L 277.75719 142.195238 
L 279.38862 144.700088 
L 281.02005 146.31612 
L 282.65148 148.578565 
L 284.28291 146.073715 
L 285.91434 144.29608 
L 287.54577 145.427303 
L 289.1772 145.588906 
L 290.80863 147.689747 
L 294.071489 146.720128 
L 295.702919 147.204938 
L 297.334349 148.255359 
L 302.228639 146.073715 
L 303.860069 145.023295 
L 307.122928 149.144176 
L 308.754358 148.578565 
L 310.385788 147.366541 
L 312.017218 146.962533 
L 313.648648 146.235319 
L 315.280078 146.962533 
L 316.911508 145.912112 
L 318.542937 144.134477 
L 320.174367 143.407263 
L 321.805797 142.195238 
L 323.437227 142.356842 
L 325.068657 142.356842 
L 326.700087 143.488064 
L 328.331517 143.649667 
L 331.594376 148.497764 
L 333.225806 148.012954 
L 334.857236 146.396922 
L 336.488666 144.29608 
L 338.120096 145.104096 
L 339.751526 145.265699 
L 341.382956 143.326461 
L 343.014386 143.003255 
L 344.645815 142.033635 
L 347.908675 139.690389 
L 349.540105 141.064016 
L 351.171535 142.114437 
L 352.802965 141.387222 
L 354.434395 142.437643 
L 356.065825 142.27604 
L 359.328684 141.387222 
L 360.960114 141.79123 
L 362.591544 141.79123 
L 364.222974 141.629627 
L 365.854404 142.195238 
L 367.485834 141.144818 
L 369.117264 141.387222 
L 370.748693 141.468024 
L 372.380123 140.821611 
L 374.011553 140.579206 
L 375.642983 141.629627 
L 377.274413 143.649667 
L 378.905843 143.568866 
L 380.537273 144.538485 
L 380.537273 144.538485 
" style="fill:none;stroke:#d62728;stroke-linecap:square;stroke-width:1.5;"/>
   </g>
   <g id="patch_3">
    <path d="M 39.65 273.312 
L 39.65 7.2 
" style="fill:none;stroke:#000000;stroke-linecap:square;stroke-linejoin:miter;stroke-width:0.8;"/>
   </g>
   <g id="patch_4">
    <path d="M 396.77 273.312 
L 396.77 7.2 
" style="fill:none;stroke:#000000;stroke-linecap:square;stroke-linejoin:miter;stroke-width:0.8;"/>
   </g>
   <g id="patch_5">
    <path d="M 39.65 273.312 
L 396.77 273.312 
" style="fill:none;stroke:#000000;stroke-linecap:square;stroke-linejoin:miter;stroke-width:0.8;"/>
   </g>
   <g id="patch_6">
    <path d="M 39.65 7.2 
L 396.77 7.2 
" style="fill:none;stroke:#000000;stroke-linecap:square;stroke-linejoin:miter;stroke-width:0.8;"/>
   </g>
  </g>
 </g>
 <defs>
  <clipPath id="p93c407323f">
   <rect height="266.112" width="357.12" x="39.65" y="7.2"/>
  </clipPath>
 </defs>
</svg>
