<?xml version="1.0" encoding="utf-8" standalone="no"?>
<!DOCTYPE svg PUBLIC "-//W3C//DTD SVG 1.1//EN"
  "http://www.w3.org/Graphics/SVG/1.1/DTD/svg11.dtd">
<!-- Created with matplotlib (https://matplotlib.org/) -->
<svg height="297.190125pt" version="1.1" viewBox="0 0 403.97 297.190125" width="403.97pt" xmlns="http://www.w3.org/2000/svg" xmlns:xlink="http://www.w3.org/1999/xlink">
 <metadata>
  <rdf:RDF xmlns:cc="http://creativecommons.org/ns#" xmlns:dc="http://purl.org/dc/elements/1.1/" xmlns:rdf="http://www.w3.org/1999/02/22-rdf-syntax-ns#">
   <cc:Work>
    <dc:type rdf:resource="http://purl.org/dc/dcmitype/StillImage"/>
    <dc:date>2021-05-06T21:49:04.723856</dc:date>
    <dc:format>image/svg+xml</dc:format>
    <dc:creator>
     <cc:Agent>
      <dc:title>Matplotlib v3.3.4, https://matplotlib.org/</dc:title>
     </cc:Agent>
    </dc:creator>
   </cc:Work>
  </rdf:RDF>
 </metadata>
 <defs>
  <style type="text/css">*{stroke-linecap:butt;stroke-linejoin:round;}</style>
 </defs>
 <g id="figure_1">
  <g id="patch_1">
   <path d="M 0 297.190125 
L 403.97 297.190125 
L 403.97 0 
L 0 0 
z
" style="fill:#ffffff;"/>
  </g>
  <g id="axes_1">
   <g id="patch_2">
    <path d="M 39.65 273.312 
L 396.77 273.312 
L 396.77 7.2 
L 39.65 7.2 
z
" style="fill:#ffffff;"/>
   </g>
   <g id="matplotlib.axis_1">
    <g id="xtick_1">
     <g id="line2d_1">
      <defs>
       <path d="M 0 0 
L 0 3.5 
" id="mfd85b666c4" style="stroke:#000000;stroke-width:0.8;"/>
      </defs>
      <g>
       <use style="stroke:#000000;stroke-width:0.8;" x="55.882727" xlink:href="#mfd85b666c4" y="273.312"/>
      </g>
     </g>
     <g id="text_1">
      <!-- 0.0 -->
      <g transform="translate(47.931165 287.910437)scale(0.1 -0.1)">
       <defs>
        <path d="M 31.78125 66.40625 
Q 24.171875 66.40625 20.328125 58.90625 
Q 16.5 51.421875 16.5 36.375 
Q 16.5 21.390625 20.328125 13.890625 
Q 24.171875 6.390625 31.78125 6.390625 
Q 39.453125 6.390625 43.28125 13.890625 
Q 47.125 21.390625 47.125 36.375 
Q 47.125 51.421875 43.28125 58.90625 
Q 39.453125 66.40625 31.78125 66.40625 
z
M 31.78125 74.21875 
Q 44.046875 74.21875 50.515625 64.515625 
Q 56.984375 54.828125 56.984375 36.375 
Q 56.984375 17.96875 50.515625 8.265625 
Q 44.046875 -1.421875 31.78125 -1.421875 
Q 19.53125 -1.421875 13.0625 8.265625 
Q 6.59375 17.96875 6.59375 36.375 
Q 6.59375 54.828125 13.0625 64.515625 
Q 19.53125 74.21875 31.78125 74.21875 
z
" id="DejaVuSans-48"/>
        <path d="M 10.6875 12.40625 
L 21 12.40625 
L 21 0 
L 10.6875 0 
z
" id="DejaVuSans-46"/>
       </defs>
       <use xlink:href="#DejaVuSans-48"/>
       <use x="63.623047" xlink:href="#DejaVuSans-46"/>
       <use x="95.410156" xlink:href="#DejaVuSans-48"/>
      </g>
     </g>
    </g>
    <g id="xtick_2">
     <g id="line2d_2">
      <g>
       <use style="stroke:#000000;stroke-width:0.8;" x="96.668474" xlink:href="#mfd85b666c4" y="273.312"/>
      </g>
     </g>
     <g id="text_2">
      <!-- 2.5 -->
      <g transform="translate(88.716912 287.910437)scale(0.1 -0.1)">
       <defs>
        <path d="M 19.1875 8.296875 
L 53.609375 8.296875 
L 53.609375 0 
L 7.328125 0 
L 7.328125 8.296875 
Q 12.9375 14.109375 22.625 23.890625 
Q 32.328125 33.6875 34.8125 36.53125 
Q 39.546875 41.84375 41.421875 45.53125 
Q 43.3125 49.21875 43.3125 52.78125 
Q 43.3125 58.59375 39.234375 62.25 
Q 35.15625 65.921875 28.609375 65.921875 
Q 23.96875 65.921875 18.8125 64.3125 
Q 13.671875 62.703125 7.8125 59.421875 
L 7.8125 69.390625 
Q 13.765625 71.78125 18.9375 73 
Q 24.125 74.21875 28.421875 74.21875 
Q 39.75 74.21875 46.484375 68.546875 
Q 53.21875 62.890625 53.21875 53.421875 
Q 53.21875 48.921875 51.53125 44.890625 
Q 49.859375 40.875 45.40625 35.40625 
Q 44.1875 33.984375 37.640625 27.21875 
Q 31.109375 20.453125 19.1875 8.296875 
z
" id="DejaVuSans-50"/>
        <path d="M 10.796875 72.90625 
L 49.515625 72.90625 
L 49.515625 64.59375 
L 19.828125 64.59375 
L 19.828125 46.734375 
Q 21.96875 47.46875 24.109375 47.828125 
Q 26.265625 48.1875 28.421875 48.1875 
Q 40.625 48.1875 47.75 41.5 
Q 54.890625 34.8125 54.890625 23.390625 
Q 54.890625 11.625 47.5625 5.09375 
Q 40.234375 -1.421875 26.90625 -1.421875 
Q 22.3125 -1.421875 17.546875 -0.640625 
Q 12.796875 0.140625 7.71875 1.703125 
L 7.71875 11.625 
Q 12.109375 9.234375 16.796875 8.0625 
Q 21.484375 6.890625 26.703125 6.890625 
Q 35.15625 6.890625 40.078125 11.328125 
Q 45.015625 15.765625 45.015625 23.390625 
Q 45.015625 31 40.078125 35.4375 
Q 35.15625 39.890625 26.703125 39.890625 
Q 22.75 39.890625 18.8125 39.015625 
Q 14.890625 38.140625 10.796875 36.28125 
z
" id="DejaVuSans-53"/>
       </defs>
       <use xlink:href="#DejaVuSans-50"/>
       <use x="63.623047" xlink:href="#DejaVuSans-46"/>
       <use x="95.410156" xlink:href="#DejaVuSans-53"/>
      </g>
     </g>
    </g>
    <g id="xtick_3">
     <g id="line2d_3">
      <g>
       <use style="stroke:#000000;stroke-width:0.8;" x="137.454221" xlink:href="#mfd85b666c4" y="273.312"/>
      </g>
     </g>
     <g id="text_3">
      <!-- 5.0 -->
      <g transform="translate(129.502659 287.910437)scale(0.1 -0.1)">
       <use xlink:href="#DejaVuSans-53"/>
       <use x="63.623047" xlink:href="#DejaVuSans-46"/>
       <use x="95.410156" xlink:href="#DejaVuSans-48"/>
      </g>
     </g>
    </g>
    <g id="xtick_4">
     <g id="line2d_4">
      <g>
       <use style="stroke:#000000;stroke-width:0.8;" x="178.239968" xlink:href="#mfd85b666c4" y="273.312"/>
      </g>
     </g>
     <g id="text_4">
      <!-- 7.5 -->
      <g transform="translate(170.288406 287.910437)scale(0.1 -0.1)">
       <defs>
        <path d="M 8.203125 72.90625 
L 55.078125 72.90625 
L 55.078125 68.703125 
L 28.609375 0 
L 18.3125 0 
L 43.21875 64.59375 
L 8.203125 64.59375 
z
" id="DejaVuSans-55"/>
       </defs>
       <use xlink:href="#DejaVuSans-55"/>
       <use x="63.623047" xlink:href="#DejaVuSans-46"/>
       <use x="95.410156" xlink:href="#DejaVuSans-53"/>
      </g>
     </g>
    </g>
    <g id="xtick_5">
     <g id="line2d_5">
      <g>
       <use style="stroke:#000000;stroke-width:0.8;" x="219.025715" xlink:href="#mfd85b666c4" y="273.312"/>
      </g>
     </g>
     <g id="text_5">
      <!-- 10.0 -->
      <g transform="translate(207.892902 287.910437)scale(0.1 -0.1)">
       <defs>
        <path d="M 12.40625 8.296875 
L 28.515625 8.296875 
L 28.515625 63.921875 
L 10.984375 60.40625 
L 10.984375 69.390625 
L 28.421875 72.90625 
L 38.28125 72.90625 
L 38.28125 8.296875 
L 54.390625 8.296875 
L 54.390625 0 
L 12.40625 0 
z
" id="DejaVuSans-49"/>
       </defs>
       <use xlink:href="#DejaVuSans-49"/>
       <use x="63.623047" xlink:href="#DejaVuSans-48"/>
       <use x="127.246094" xlink:href="#DejaVuSans-46"/>
       <use x="159.033203" xlink:href="#DejaVuSans-48"/>
      </g>
     </g>
    </g>
    <g id="xtick_6">
     <g id="line2d_6">
      <g>
       <use style="stroke:#000000;stroke-width:0.8;" x="259.811462" xlink:href="#mfd85b666c4" y="273.312"/>
      </g>
     </g>
     <g id="text_6">
      <!-- 12.5 -->
      <g transform="translate(248.678649 287.910437)scale(0.1 -0.1)">
       <use xlink:href="#DejaVuSans-49"/>
       <use x="63.623047" xlink:href="#DejaVuSans-50"/>
       <use x="127.246094" xlink:href="#DejaVuSans-46"/>
       <use x="159.033203" xlink:href="#DejaVuSans-53"/>
      </g>
     </g>
    </g>
    <g id="xtick_7">
     <g id="line2d_7">
      <g>
       <use style="stroke:#000000;stroke-width:0.8;" x="300.597209" xlink:href="#mfd85b666c4" y="273.312"/>
      </g>
     </g>
     <g id="text_7">
      <!-- 15.0 -->
      <g transform="translate(289.464396 287.910437)scale(0.1 -0.1)">
       <use xlink:href="#DejaVuSans-49"/>
       <use x="63.623047" xlink:href="#DejaVuSans-53"/>
       <use x="127.246094" xlink:href="#DejaVuSans-46"/>
       <use x="159.033203" xlink:href="#DejaVuSans-48"/>
      </g>
     </g>
    </g>
    <g id="xtick_8">
     <g id="line2d_8">
      <g>
       <use style="stroke:#000000;stroke-width:0.8;" x="341.382956" xlink:href="#mfd85b666c4" y="273.312"/>
      </g>
     </g>
     <g id="text_8">
      <!-- 17.5 -->
      <g transform="translate(330.250143 287.910437)scale(0.1 -0.1)">
       <use xlink:href="#DejaVuSans-49"/>
       <use x="63.623047" xlink:href="#DejaVuSans-55"/>
       <use x="127.246094" xlink:href="#DejaVuSans-46"/>
       <use x="159.033203" xlink:href="#DejaVuSans-53"/>
      </g>
     </g>
    </g>
    <g id="xtick_9">
     <g id="line2d_9">
      <g>
       <use style="stroke:#000000;stroke-width:0.8;" x="382.168703" xlink:href="#mfd85b666c4" y="273.312"/>
      </g>
     </g>
     <g id="text_9">
      <!-- 20.0 -->
      <g transform="translate(371.03589 287.910437)scale(0.1 -0.1)">
       <use xlink:href="#DejaVuSans-50"/>
       <use x="63.623047" xlink:href="#DejaVuSans-48"/>
       <use x="127.246094" xlink:href="#DejaVuSans-46"/>
       <use x="159.033203" xlink:href="#DejaVuSans-48"/>
      </g>
     </g>
    </g>
   </g>
   <g id="matplotlib.axis_2">
    <g id="ytick_1">
     <g id="line2d_10">
      <defs>
       <path d="M 0 0 
L -3.5 0 
" id="mc7290eb90a" style="stroke:#000000;stroke-width:0.8;"/>
      </defs>
      <g>
       <use style="stroke:#000000;stroke-width:0.8;" x="39.65" xlink:href="#mc7290eb90a" y="261.216"/>
      </g>
     </g>
     <g id="text_10">
      <!-- 0 -->
      <g transform="translate(26.2875 265.015219)scale(0.1 -0.1)">
       <use xlink:href="#DejaVuSans-48"/>
      </g>
     </g>
    </g>
    <g id="ytick_2">
     <g id="line2d_11">
      <g>
       <use style="stroke:#000000;stroke-width:0.8;" x="39.65" xlink:href="#mc7290eb90a" y="221.478812"/>
      </g>
     </g>
     <g id="text_11">
      <!-- 500 -->
      <g transform="translate(13.5625 225.278031)scale(0.1 -0.1)">
       <use xlink:href="#DejaVuSans-53"/>
       <use x="63.623047" xlink:href="#DejaVuSans-48"/>
       <use x="127.246094" xlink:href="#DejaVuSans-48"/>
      </g>
     </g>
    </g>
    <g id="ytick_3">
     <g id="line2d_12">
      <g>
       <use style="stroke:#000000;stroke-width:0.8;" x="39.65" xlink:href="#mc7290eb90a" y="181.741624"/>
      </g>
     </g>
     <g id="text_12">
      <!-- 1000 -->
      <g transform="translate(7.2 185.540843)scale(0.1 -0.1)">
       <use xlink:href="#DejaVuSans-49"/>
       <use x="63.623047" xlink:href="#DejaVuSans-48"/>
       <use x="127.246094" xlink:href="#DejaVuSans-48"/>
       <use x="190.869141" xlink:href="#DejaVuSans-48"/>
      </g>
     </g>
    </g>
    <g id="ytick_4">
     <g id="line2d_13">
      <g>
       <use style="stroke:#000000;stroke-width:0.8;" x="39.65" xlink:href="#mc7290eb90a" y="142.004436"/>
      </g>
     </g>
     <g id="text_13">
      <!-- 1500 -->
      <g transform="translate(7.2 145.803655)scale(0.1 -0.1)">
       <use xlink:href="#DejaVuSans-49"/>
       <use x="63.623047" xlink:href="#DejaVuSans-53"/>
       <use x="127.246094" xlink:href="#DejaVuSans-48"/>
       <use x="190.869141" xlink:href="#DejaVuSans-48"/>
      </g>
     </g>
    </g>
    <g id="ytick_5">
     <g id="line2d_14">
      <g>
       <use style="stroke:#000000;stroke-width:0.8;" x="39.65" xlink:href="#mc7290eb90a" y="102.267248"/>
      </g>
     </g>
     <g id="text_14">
      <!-- 2000 -->
      <g transform="translate(7.2 106.066467)scale(0.1 -0.1)">
       <use xlink:href="#DejaVuSans-50"/>
       <use x="63.623047" xlink:href="#DejaVuSans-48"/>
       <use x="127.246094" xlink:href="#DejaVuSans-48"/>
       <use x="190.869141" xlink:href="#DejaVuSans-48"/>
      </g>
     </g>
    </g>
    <g id="ytick_6">
     <g id="line2d_15">
      <g>
       <use style="stroke:#000000;stroke-width:0.8;" x="39.65" xlink:href="#mc7290eb90a" y="62.53006"/>
      </g>
     </g>
     <g id="text_15">
      <!-- 2500 -->
      <g transform="translate(7.2 66.329279)scale(0.1 -0.1)">
       <use xlink:href="#DejaVuSans-50"/>
       <use x="63.623047" xlink:href="#DejaVuSans-53"/>
       <use x="127.246094" xlink:href="#DejaVuSans-48"/>
       <use x="190.869141" xlink:href="#DejaVuSans-48"/>
      </g>
     </g>
    </g>
    <g id="ytick_7">
     <g id="line2d_16">
      <g>
       <use style="stroke:#000000;stroke-width:0.8;" x="39.65" xlink:href="#mc7290eb90a" y="22.792873"/>
      </g>
     </g>
     <g id="text_16">
      <!-- 3000 -->
      <g transform="translate(7.2 26.592091)scale(0.1 -0.1)">
       <defs>
        <path d="M 40.578125 39.3125 
Q 47.65625 37.796875 51.625 33 
Q 55.609375 28.21875 55.609375 21.1875 
Q 55.609375 10.40625 48.1875 4.484375 
Q 40.765625 -1.421875 27.09375 -1.421875 
Q 22.515625 -1.421875 17.65625 -0.515625 
Q 12.796875 0.390625 7.625 2.203125 
L 7.625 11.71875 
Q 11.71875 9.328125 16.59375 8.109375 
Q 21.484375 6.890625 26.8125 6.890625 
Q 36.078125 6.890625 40.9375 10.546875 
Q 45.796875 14.203125 45.796875 21.1875 
Q 45.796875 27.640625 41.28125 31.265625 
Q 36.765625 34.90625 28.71875 34.90625 
L 20.21875 34.90625 
L 20.21875 43.015625 
L 29.109375 43.015625 
Q 36.375 43.015625 40.234375 45.921875 
Q 44.09375 48.828125 44.09375 54.296875 
Q 44.09375 59.90625 40.109375 62.90625 
Q 36.140625 65.921875 28.71875 65.921875 
Q 24.65625 65.921875 20.015625 65.03125 
Q 15.375 64.15625 9.8125 62.3125 
L 9.8125 71.09375 
Q 15.4375 72.65625 20.34375 73.4375 
Q 25.25 74.21875 29.59375 74.21875 
Q 40.828125 74.21875 47.359375 69.109375 
Q 53.90625 64.015625 53.90625 55.328125 
Q 53.90625 49.265625 50.4375 45.09375 
Q 46.96875 40.921875 40.578125 39.3125 
z
" id="DejaVuSans-51"/>
       </defs>
       <use xlink:href="#DejaVuSans-51"/>
       <use x="63.623047" xlink:href="#DejaVuSans-48"/>
       <use x="127.246094" xlink:href="#DejaVuSans-48"/>
       <use x="190.869141" xlink:href="#DejaVuSans-48"/>
      </g>
     </g>
    </g>
   </g>
   <g id="line2d_17">
    <path clip-path="url(#p0e018743b0)" d="M 55.882727 261.216 
L 72.197026 181.741624 
L 88.511325 128.758707 
L 104.825624 93.436762 
L 121.139922 69.888799 
L 137.454221 54.190157 
L 153.76852 43.724395 
L 170.082819 36.747221 
L 186.397117 32.095772 
L 202.711416 28.994805 
L 219.025715 26.927494 
L 235.340014 25.549287 
L 251.654312 24.630482 
L 267.968611 24.017946 
L 284.28291 23.609588 
L 300.597209 23.337349 
L 316.911508 23.155857 
L 333.225806 23.034862 
L 349.540105 22.954199 
L 365.854404 22.900424 
" style="fill:none;stroke:#1f77b4;stroke-linecap:square;stroke-width:1.5;"/>
   </g>
   <g id="line2d_18">
    <path clip-path="url(#p0e018743b0)" d="M 55.882727 261.216 
L 72.197026 261.216 
L 88.511325 234.724541 
L 104.825624 208.233083 
L 121.139922 187.628615 
L 137.454221 172.911138 
L 153.76852 162.772432 
L 170.082819 155.904276 
L 186.397117 151.289166 
L 202.711416 148.200312 
L 219.025715 146.137039 
L 235.340014 144.760178 
L 251.654312 143.841822 
L 267.968611 143.229435 
L 284.28291 142.821127 
L 300.597209 142.548905 
L 316.911508 142.367418 
L 333.225806 142.246425 
L 349.540105 142.165762 
L 365.854404 142.111987 
" style="fill:none;stroke:#ff7f0e;stroke-linecap:square;stroke-width:1.5;"/>
   </g>
   <g id="line2d_19">
    <path clip-path="url(#p0e018743b0)" d="M 55.882727 261.216 
L 57.514157 253.268562 
L 64.039877 224.975685 
L 65.671307 219.174055 
L 67.302736 211.941887 
L 70.565596 199.543884 
L 72.197026 195.331742 
L 73.828456 188.894318 
L 75.459886 184.443753 
L 77.091316 177.688431 
L 80.354175 169.740993 
L 83.617035 158.853004 
L 85.248465 154.005067 
L 86.879895 148.441861 
L 88.511325 145.103937 
L 90.142755 140.891795 
L 93.405614 133.500678 
L 95.037044 131.672767 
L 96.668474 129.368011 
L 99.931334 119.433714 
L 101.562764 116.572636 
L 103.194194 112.360494 
L 104.825624 110.850481 
L 106.457053 108.068878 
L 108.088483 106.717813 
L 109.719913 103.697787 
L 111.351343 101.949351 
L 112.982773 99.962491 
L 114.614203 98.531953 
L 116.245633 94.637708 
L 117.877063 92.889272 
L 119.508492 91.93558 
L 121.139922 88.756604 
L 122.771352 86.690271 
L 124.402782 86.531322 
L 126.034212 84.385514 
L 127.665642 81.127064 
L 129.297072 79.617051 
L 130.928502 77.630192 
L 132.559931 76.676499 
L 134.191361 77.073871 
L 135.822791 75.563858 
L 137.454221 74.530691 
L 139.085651 73.735947 
L 140.717081 72.14646 
L 142.348511 71.431191 
L 143.979941 69.921177 
L 145.61137 66.265356 
L 147.2428 65.550087 
L 148.87423 64.51692 
L 150.50566 63.324804 
L 152.13709 62.609535 
L 153.76852 62.291637 
L 155.39995 62.212163 
L 157.03138 59.907406 
L 158.66281 58.874239 
L 160.294239 56.88738 
L 161.925669 55.138943 
L 163.557099 54.026302 
L 165.188529 51.959968 
L 166.819959 50.688378 
L 168.451389 48.304147 
L 170.082819 46.635185 
L 171.714249 44.648326 
L 173.345678 44.489377 
L 174.977108 45.125172 
L 176.608538 44.886749 
L 178.239968 43.694633 
L 181.502828 42.661466 
L 183.134258 43.45621 
L 184.765688 42.820415 
L 186.397117 42.343569 
L 188.028547 43.217787 
L 189.659977 42.343569 
L 191.291407 42.89989 
L 192.922837 42.105146 
L 194.554267 42.025671 
L 196.185697 42.502518 
L 197.817127 44.966223 
L 199.448556 45.99939 
L 201.079986 46.635185 
L 202.711416 46.078865 
L 204.342846 43.853582 
L 205.974276 42.581992 
L 207.605706 44.092005 
L 209.237136 43.853582 
L 210.868566 43.933057 
L 212.499995 42.105146 
L 215.762855 40.277235 
L 217.394285 40.595133 
L 219.025715 42.343569 
L 220.657145 42.661466 
L 222.288575 40.35671 
L 223.920005 39.482491 
L 225.551434 38.051953 
L 227.182864 37.018786 
L 228.814294 37.177735 
L 230.445724 35.906145 
L 232.077154 35.747196 
L 233.708584 34.872978 
L 235.340014 34.793503 
L 236.971444 34.237183 
L 238.602873 34.872978 
L 240.234303 35.111401 
L 241.865733 34.634555 
L 243.497163 35.111401 
L 245.128593 37.257209 
L 246.760023 35.349824 
L 248.391453 35.429298 
L 250.022883 34.634555 
L 251.654312 34.157708 
L 253.285742 33.362965 
L 254.917172 31.058208 
L 256.548602 29.786618 
L 258.180032 30.025041 
L 259.811462 31.694003 
L 261.442892 30.978733 
L 263.074322 29.786618 
L 264.705751 30.660836 
L 266.337181 30.899259 
L 267.968611 32.170849 
L 269.600041 32.488746 
L 271.231471 34.55508 
L 272.862901 33.919285 
L 274.494331 32.409272 
L 276.125761 31.614528 
L 277.75719 30.183989 
L 279.38862 30.183989 
L 281.02005 29.786618 
L 282.65148 30.025041 
L 285.91434 28.832925 
L 287.54577 30.819784 
L 289.1772 29.230297 
L 290.80863 30.501887 
L 292.440059 30.422413 
L 294.071489 29.945566 
L 295.702919 28.19713 
L 297.334349 29.071348 
L 298.965779 29.389246 
L 300.597209 27.402386 
L 302.228639 27.402386 
L 303.860069 27.163963 
L 305.491498 25.256578 
L 307.122928 24.38236 
L 308.754358 24.302886 
L 310.385788 23.349193 
L 312.017218 24.302886 
L 313.648648 22.633924 
L 315.280078 24.541309 
L 316.911508 25.018155 
L 318.542937 24.938681 
L 320.174367 26.448694 
L 321.805797 26.687117 
L 323.437227 27.481861 
L 325.068657 28.515028 
L 326.700087 28.276604 
L 328.331517 28.832925 
L 329.962947 27.084489 
L 331.594376 27.640809 
L 333.225806 27.243438 
L 334.857236 25.971848 
L 336.488666 25.097629 
L 339.751526 21.441808 
L 341.382956 20.170218 
L 343.014386 19.296 
L 344.645815 19.613898 
L 346.277245 20.885488 
L 349.540105 21.759706 
L 351.171535 21.680231 
L 352.802965 22.077603 
L 354.434395 20.726539 
L 356.065825 20.806013 
L 357.697254 21.521283 
L 359.328684 21.123911 
L 360.960114 22.236552 
L 362.591544 22.157078 
L 364.222974 22.316026 
L 365.854404 23.587616 
L 367.485834 22.713398 
L 369.117264 22.077603 
L 370.748693 24.461834 
L 372.380123 25.495001 
L 374.011553 24.779732 
L 375.642983 27.561335 
L 377.274413 24.620783 
L 380.537273 25.65395 
L 380.537273 25.65395 
" style="fill:none;stroke:#2ca02c;stroke-linecap:square;stroke-width:1.5;"/>
   </g>
   <g id="line2d_20">
    <path clip-path="url(#p0e018743b0)" d="M 55.882727 261.216 
L 57.514157 260.898102 
L 60.777017 259.626512 
L 62.408447 258.195974 
L 64.039877 257.40123 
L 65.671307 255.811742 
L 67.302736 254.619627 
L 68.934166 253.745409 
L 70.565596 251.917498 
L 72.197026 250.407485 
L 73.828456 248.420625 
L 75.459886 246.751664 
L 77.091316 245.797971 
L 78.722746 243.493214 
L 80.354175 241.506355 
L 81.985605 240.473188 
L 83.617035 239.281072 
L 85.248465 237.294213 
L 86.879895 236.261046 
L 88.511325 233.876815 
L 90.142755 231.96943 
L 91.774185 230.69784 
L 93.405614 228.869929 
L 95.037044 225.055159 
L 101.562764 218.458786 
L 103.194194 217.505093 
L 104.825624 214.564541 
L 106.457053 212.339259 
L 108.088483 209.716604 
L 109.719913 208.683438 
L 111.351343 206.299206 
L 112.982773 203.676552 
L 114.614203 202.563911 
L 116.245633 201.610218 
L 117.877063 199.46441 
L 119.508492 197.000704 
L 124.402782 190.483806 
L 126.034212 188.894318 
L 127.665642 188.258523 
L 129.297072 186.589561 
L 130.928502 186.589561 
L 132.559931 185.47692 
L 134.191361 183.728484 
L 137.454221 181.741624 
L 139.085651 180.311085 
L 140.717081 180.549509 
L 142.348511 179.436867 
L 143.979941 178.880547 
L 145.61137 179.595816 
L 147.2428 179.595816 
L 148.87423 178.244752 
L 150.50566 177.688431 
L 152.13709 176.416841 
L 153.76852 174.986302 
L 155.39995 173.237866 
L 157.03138 173.714712 
L 158.66281 172.999443 
L 161.925669 172.919968 
L 163.557099 172.284173 
L 165.188529 172.284173 
L 166.819959 172.04575 
L 168.451389 171.251007 
L 171.714249 170.535737 
L 173.345678 168.787301 
L 174.977108 169.582045 
L 176.608538 167.197813 
L 178.239968 166.323595 
L 179.871398 163.939364 
L 181.502828 162.508825 
L 183.134258 162.111453 
L 184.765688 161.157761 
L 188.028547 160.204068 
L 189.659977 158.614581 
L 191.291407 157.342991 
L 192.922837 157.184042 
L 196.185697 155.832978 
L 197.817127 152.892426 
L 199.448556 152.018208 
L 201.079986 151.302938 
L 202.711416 151.382413 
L 204.342846 152.177156 
L 205.974276 151.620836 
L 207.605706 150.905566 
L 209.237136 151.859259 
L 210.868566 153.369272 
L 214.131425 156.548247 
L 215.762855 156.23035 
L 217.394285 156.150875 
L 219.025715 153.68717 
L 220.657145 151.70031 
L 222.288575 153.051375 
L 223.920005 152.336105 
L 225.551434 153.289798 
L 227.182864 152.41558 
L 228.814294 151.143989 
L 230.445724 151.461887 
L 232.077154 152.018208 
L 235.340014 152.733477 
L 236.971444 153.448746 
L 240.234303 150.508194 
L 241.865733 149.713451 
L 243.497163 150.746618 
L 245.128593 146.931848 
L 248.391453 146.455001 
L 250.022883 147.488168 
L 251.654312 147.806066 
L 253.285742 149.316079 
L 254.917172 149.395553 
L 256.548602 148.759758 
L 258.180032 147.965014 
L 259.811462 146.852373 
L 261.442892 147.806066 
L 263.074322 149.077656 
L 264.705751 148.680284 
L 266.337181 148.441861 
L 267.968611 146.772899 
L 269.600041 148.441861 
L 271.231471 146.61395 
L 272.862901 147.249745 
L 274.494331 147.647117 
L 276.125761 147.806066 
L 277.75719 147.488168 
L 279.38862 148.282912 
L 281.02005 150.826092 
L 282.65148 149.395553 
L 284.28291 149.395553 
L 285.91434 149.792925 
L 287.54577 148.521335 
L 289.1772 150.190297 
L 290.80863 148.839233 
L 292.440059 148.441861 
L 294.071489 148.282912 
L 295.702919 147.567643 
L 297.334349 148.680284 
L 298.965779 148.044489 
L 300.597209 148.759758 
L 302.228639 150.508194 
L 303.860069 149.236604 
L 305.491498 150.349246 
L 307.122928 150.110823 
L 308.754358 148.680284 
L 310.385788 148.918707 
L 313.648648 148.044489 
L 315.280078 146.852373 
L 316.911508 144.07077 
L 318.542937 143.355501 
L 320.174367 142.163385 
L 321.805797 141.52759 
L 323.437227 140.653372 
L 325.068657 140.256 
L 326.700087 140.971269 
L 328.331517 140.653372 
L 329.962947 142.878654 
L 331.594376 142.322334 
L 333.225806 143.117078 
L 334.857236 143.752873 
L 336.488666 143.832347 
L 338.120096 143.514449 
L 339.751526 144.627091 
L 343.014386 146.534476 
L 344.645815 145.739732 
L 346.277245 144.786039 
L 347.908675 142.878654 
L 349.540105 143.434975 
L 351.171535 143.355501 
L 352.802965 143.752873 
L 356.065825 143.673398 
L 357.697254 144.468142 
L 359.328684 142.958129 
L 360.960114 140.653372 
L 362.591544 141.368641 
L 365.854404 139.381782 
L 367.485834 140.732846 
L 369.117264 141.050744 
L 370.748693 140.414949 
L 372.380123 140.653372 
L 374.011553 141.448116 
L 375.642983 140.573898 
L 377.274413 140.971269 
L 378.905843 140.414949 
L 380.537273 141.050744 
L 380.537273 141.050744 
" style="fill:none;stroke:#d62728;stroke-linecap:square;stroke-width:1.5;"/>
   </g>
   <g id="patch_3">
    <path d="M 39.65 273.312 
L 39.65 7.2 
" style="fill:none;stroke:#000000;stroke-linecap:square;stroke-linejoin:miter;stroke-width:0.8;"/>
   </g>
   <g id="patch_4">
    <path d="M 396.77 273.312 
L 396.77 7.2 
" style="fill:none;stroke:#000000;stroke-linecap:square;stroke-linejoin:miter;stroke-width:0.8;"/>
   </g>
   <g id="patch_5">
    <path d="M 39.65 273.312 
L 396.77 273.312 
" style="fill:none;stroke:#000000;stroke-linecap:square;stroke-linejoin:miter;stroke-width:0.8;"/>
   </g>
   <g id="patch_6">
    <path d="M 39.65 7.2 
L 396.77 7.2 
" style="fill:none;stroke:#000000;stroke-linecap:square;stroke-linejoin:miter;stroke-width:0.8;"/>
   </g>
  </g>
 </g>
 <defs>
  <clipPath id="p0e018743b0">
   <rect height="266.112" width="357.12" x="39.65" y="7.2"/>
  </clipPath>
 </defs>
</svg>
