<?xml version="1.0" encoding="utf-8" standalone="no"?>
<!DOCTYPE svg PUBLIC "-//W3C//DTD SVG 1.1//EN"
  "http://www.w3.org/Graphics/SVG/1.1/DTD/svg11.dtd">
<svg xmlns:xlink="http://www.w3.org/1999/xlink" width="403.97pt" height="297.190125pt" viewBox="0 0 403.97 297.190125" xmlns="http://www.w3.org/2000/svg" version="1.1">
 <metadata>
  <rdf:RDF xmlns:dc="http://purl.org/dc/elements/1.1/" xmlns:cc="http://creativecommons.org/ns#" xmlns:rdf="http://www.w3.org/1999/02/22-rdf-syntax-ns#">
   <cc:Work>
    <dc:type rdf:resource="http://purl.org/dc/dcmitype/StillImage"/>
    <dc:date>2024-08-30T01:00:51.828964</dc:date>
    <dc:format>image/svg+xml</dc:format>
    <dc:creator>
     <cc:Agent>
      <dc:title>Matplotlib v3.9.2, https://matplotlib.org/</dc:title>
     </cc:Agent>
    </dc:creator>
   </cc:Work>
  </rdf:RDF>
 </metadata>
 <defs>
  <style type="text/css">*{stroke-linejoin: round; stroke-linecap: butt}</style>
 </defs>
 <g id="figure_1">
  <g id="patch_1">
   <path d="M 0 297.190125 
L 403.97 297.190125 
L 403.97 0 
L 0 0 
z
" style="fill: #ffffff"/>
  </g>
  <g id="axes_1">
   <g id="patch_2">
    <path d="M 39.65 273.312 
L 396.77 273.312 
L 396.77 7.2 
L 39.65 7.2 
z
" style="fill: #ffffff"/>
   </g>
   <g id="matplotlib.axis_1">
    <g id="xtick_1">
     <g id="line2d_1">
      <defs>
       <path id="m4ffea28f11" d="M 0 0 
L 0 3.5 
" style="stroke: #000000; stroke-width: 0.8"/>
      </defs>
      <g>
       <use xlink:href="#m4ffea28f11" x="55.882727" y="273.312" style="stroke: #000000; stroke-width: 0.8"/>
      </g>
     </g>
     <g id="text_1">
      <!-- 0.0 -->
      <g transform="translate(47.931165 287.910437) scale(0.1 -0.1)">
       <defs>
        <path id="DejaVuSans-30" d="M 2034 4250 
Q 1547 4250 1301 3770 
Q 1056 3291 1056 2328 
Q 1056 1369 1301 889 
Q 1547 409 2034 409 
Q 2525 409 2770 889 
Q 3016 1369 3016 2328 
Q 3016 3291 2770 3770 
Q 2525 4250 2034 4250 
z
M 2034 4750 
Q 2819 4750 3233 4129 
Q 3647 3509 3647 2328 
Q 3647 1150 3233 529 
Q 2819 -91 2034 -91 
Q 1250 -91 836 529 
Q 422 1150 422 2328 
Q 422 3509 836 4129 
Q 1250 4750 2034 4750 
z
" transform="scale(0.015625)"/>
        <path id="DejaVuSans-2e" d="M 684 794 
L 1344 794 
L 1344 0 
L 684 0 
L 684 794 
z
" transform="scale(0.015625)"/>
       </defs>
       <use xlink:href="#DejaVuSans-30"/>
       <use xlink:href="#DejaVuSans-2e" x="63.623047"/>
       <use xlink:href="#DejaVuSans-30" x="95.410156"/>
      </g>
     </g>
    </g>
    <g id="xtick_2">
     <g id="line2d_2">
      <g>
       <use xlink:href="#m4ffea28f11" x="96.668474" y="273.312" style="stroke: #000000; stroke-width: 0.8"/>
      </g>
     </g>
     <g id="text_2">
      <!-- 2.5 -->
      <g transform="translate(88.716912 287.910437) scale(0.1 -0.1)">
       <defs>
        <path id="DejaVuSans-32" d="M 1228 531 
L 3431 531 
L 3431 0 
L 469 0 
L 469 531 
Q 828 903 1448 1529 
Q 2069 2156 2228 2338 
Q 2531 2678 2651 2914 
Q 2772 3150 2772 3378 
Q 2772 3750 2511 3984 
Q 2250 4219 1831 4219 
Q 1534 4219 1204 4116 
Q 875 4013 500 3803 
L 500 4441 
Q 881 4594 1212 4672 
Q 1544 4750 1819 4750 
Q 2544 4750 2975 4387 
Q 3406 4025 3406 3419 
Q 3406 3131 3298 2873 
Q 3191 2616 2906 2266 
Q 2828 2175 2409 1742 
Q 1991 1309 1228 531 
z
" transform="scale(0.015625)"/>
        <path id="DejaVuSans-35" d="M 691 4666 
L 3169 4666 
L 3169 4134 
L 1269 4134 
L 1269 2991 
Q 1406 3038 1543 3061 
Q 1681 3084 1819 3084 
Q 2600 3084 3056 2656 
Q 3513 2228 3513 1497 
Q 3513 744 3044 326 
Q 2575 -91 1722 -91 
Q 1428 -91 1123 -41 
Q 819 9 494 109 
L 494 744 
Q 775 591 1075 516 
Q 1375 441 1709 441 
Q 2250 441 2565 725 
Q 2881 1009 2881 1497 
Q 2881 1984 2565 2268 
Q 2250 2553 1709 2553 
Q 1456 2553 1204 2497 
Q 953 2441 691 2322 
L 691 4666 
z
" transform="scale(0.015625)"/>
       </defs>
       <use xlink:href="#DejaVuSans-32"/>
       <use xlink:href="#DejaVuSans-2e" x="63.623047"/>
       <use xlink:href="#DejaVuSans-35" x="95.410156"/>
      </g>
     </g>
    </g>
    <g id="xtick_3">
     <g id="line2d_3">
      <g>
       <use xlink:href="#m4ffea28f11" x="137.454221" y="273.312" style="stroke: #000000; stroke-width: 0.8"/>
      </g>
     </g>
     <g id="text_3">
      <!-- 5.0 -->
      <g transform="translate(129.502659 287.910437) scale(0.1 -0.1)">
       <use xlink:href="#DejaVuSans-35"/>
       <use xlink:href="#DejaVuSans-2e" x="63.623047"/>
       <use xlink:href="#DejaVuSans-30" x="95.410156"/>
      </g>
     </g>
    </g>
    <g id="xtick_4">
     <g id="line2d_4">
      <g>
       <use xlink:href="#m4ffea28f11" x="178.239968" y="273.312" style="stroke: #000000; stroke-width: 0.8"/>
      </g>
     </g>
     <g id="text_4">
      <!-- 7.5 -->
      <g transform="translate(170.288406 287.910437) scale(0.1 -0.1)">
       <defs>
        <path id="DejaVuSans-37" d="M 525 4666 
L 3525 4666 
L 3525 4397 
L 1831 0 
L 1172 0 
L 2766 4134 
L 525 4134 
L 525 4666 
z
" transform="scale(0.015625)"/>
       </defs>
       <use xlink:href="#DejaVuSans-37"/>
       <use xlink:href="#DejaVuSans-2e" x="63.623047"/>
       <use xlink:href="#DejaVuSans-35" x="95.410156"/>
      </g>
     </g>
    </g>
    <g id="xtick_5">
     <g id="line2d_5">
      <g>
       <use xlink:href="#m4ffea28f11" x="219.025715" y="273.312" style="stroke: #000000; stroke-width: 0.8"/>
      </g>
     </g>
     <g id="text_5">
      <!-- 10.0 -->
      <g transform="translate(207.892902 287.910437) scale(0.1 -0.1)">
       <defs>
        <path id="DejaVuSans-31" d="M 794 531 
L 1825 531 
L 1825 4091 
L 703 3866 
L 703 4441 
L 1819 4666 
L 2450 4666 
L 2450 531 
L 3481 531 
L 3481 0 
L 794 0 
L 794 531 
z
" transform="scale(0.015625)"/>
       </defs>
       <use xlink:href="#DejaVuSans-31"/>
       <use xlink:href="#DejaVuSans-30" x="63.623047"/>
       <use xlink:href="#DejaVuSans-2e" x="127.246094"/>
       <use xlink:href="#DejaVuSans-30" x="159.033203"/>
      </g>
     </g>
    </g>
    <g id="xtick_6">
     <g id="line2d_6">
      <g>
       <use xlink:href="#m4ffea28f11" x="259.811462" y="273.312" style="stroke: #000000; stroke-width: 0.8"/>
      </g>
     </g>
     <g id="text_6">
      <!-- 12.5 -->
      <g transform="translate(248.678649 287.910437) scale(0.1 -0.1)">
       <use xlink:href="#DejaVuSans-31"/>
       <use xlink:href="#DejaVuSans-32" x="63.623047"/>
       <use xlink:href="#DejaVuSans-2e" x="127.246094"/>
       <use xlink:href="#DejaVuSans-35" x="159.033203"/>
      </g>
     </g>
    </g>
    <g id="xtick_7">
     <g id="line2d_7">
      <g>
       <use xlink:href="#m4ffea28f11" x="300.597209" y="273.312" style="stroke: #000000; stroke-width: 0.8"/>
      </g>
     </g>
     <g id="text_7">
      <!-- 15.0 -->
      <g transform="translate(289.464396 287.910437) scale(0.1 -0.1)">
       <use xlink:href="#DejaVuSans-31"/>
       <use xlink:href="#DejaVuSans-35" x="63.623047"/>
       <use xlink:href="#DejaVuSans-2e" x="127.246094"/>
       <use xlink:href="#DejaVuSans-30" x="159.033203"/>
      </g>
     </g>
    </g>
    <g id="xtick_8">
     <g id="line2d_8">
      <g>
       <use xlink:href="#m4ffea28f11" x="341.382956" y="273.312" style="stroke: #000000; stroke-width: 0.8"/>
      </g>
     </g>
     <g id="text_8">
      <!-- 17.5 -->
      <g transform="translate(330.250143 287.910437) scale(0.1 -0.1)">
       <use xlink:href="#DejaVuSans-31"/>
       <use xlink:href="#DejaVuSans-37" x="63.623047"/>
       <use xlink:href="#DejaVuSans-2e" x="127.246094"/>
       <use xlink:href="#DejaVuSans-35" x="159.033203"/>
      </g>
     </g>
    </g>
    <g id="xtick_9">
     <g id="line2d_9">
      <g>
       <use xlink:href="#m4ffea28f11" x="382.168703" y="273.312" style="stroke: #000000; stroke-width: 0.8"/>
      </g>
     </g>
     <g id="text_9">
      <!-- 20.0 -->
      <g transform="translate(371.03589 287.910437) scale(0.1 -0.1)">
       <use xlink:href="#DejaVuSans-32"/>
       <use xlink:href="#DejaVuSans-30" x="63.623047"/>
       <use xlink:href="#DejaVuSans-2e" x="127.246094"/>
       <use xlink:href="#DejaVuSans-30" x="159.033203"/>
      </g>
     </g>
    </g>
   </g>
   <g id="matplotlib.axis_2">
    <g id="ytick_1">
     <g id="line2d_10">
      <defs>
       <path id="mfc8df37133" d="M 0 0 
L -3.5 0 
" style="stroke: #000000; stroke-width: 0.8"/>
      </defs>
      <g>
       <use xlink:href="#mfc8df37133" x="39.65" y="261.216" style="stroke: #000000; stroke-width: 0.8"/>
      </g>
     </g>
     <g id="text_10">
      <!-- 0 -->
      <g transform="translate(26.2875 265.015219) scale(0.1 -0.1)">
       <use xlink:href="#DejaVuSans-30"/>
      </g>
     </g>
    </g>
    <g id="ytick_2">
     <g id="line2d_11">
      <g>
       <use xlink:href="#mfc8df37133" x="39.65" y="222.359591" style="stroke: #000000; stroke-width: 0.8"/>
      </g>
     </g>
     <g id="text_11">
      <!-- 500 -->
      <g transform="translate(13.5625 226.15881) scale(0.1 -0.1)">
       <use xlink:href="#DejaVuSans-35"/>
       <use xlink:href="#DejaVuSans-30" x="63.623047"/>
       <use xlink:href="#DejaVuSans-30" x="127.246094"/>
      </g>
     </g>
    </g>
    <g id="ytick_3">
     <g id="line2d_12">
      <g>
       <use xlink:href="#mfc8df37133" x="39.65" y="183.503183" style="stroke: #000000; stroke-width: 0.8"/>
      </g>
     </g>
     <g id="text_12">
      <!-- 1000 -->
      <g transform="translate(7.2 187.302402) scale(0.1 -0.1)">
       <use xlink:href="#DejaVuSans-31"/>
       <use xlink:href="#DejaVuSans-30" x="63.623047"/>
       <use xlink:href="#DejaVuSans-30" x="127.246094"/>
       <use xlink:href="#DejaVuSans-30" x="190.869141"/>
      </g>
     </g>
    </g>
    <g id="ytick_4">
     <g id="line2d_13">
      <g>
       <use xlink:href="#mfc8df37133" x="39.65" y="144.646774" style="stroke: #000000; stroke-width: 0.8"/>
      </g>
     </g>
     <g id="text_13">
      <!-- 1500 -->
      <g transform="translate(7.2 148.445993) scale(0.1 -0.1)">
       <use xlink:href="#DejaVuSans-31"/>
       <use xlink:href="#DejaVuSans-35" x="63.623047"/>
       <use xlink:href="#DejaVuSans-30" x="127.246094"/>
       <use xlink:href="#DejaVuSans-30" x="190.869141"/>
      </g>
     </g>
    </g>
    <g id="ytick_5">
     <g id="line2d_14">
      <g>
       <use xlink:href="#mfc8df37133" x="39.65" y="105.790366" style="stroke: #000000; stroke-width: 0.8"/>
      </g>
     </g>
     <g id="text_14">
      <!-- 2000 -->
      <g transform="translate(7.2 109.589584) scale(0.1 -0.1)">
       <use xlink:href="#DejaVuSans-32"/>
       <use xlink:href="#DejaVuSans-30" x="63.623047"/>
       <use xlink:href="#DejaVuSans-30" x="127.246094"/>
       <use xlink:href="#DejaVuSans-30" x="190.869141"/>
      </g>
     </g>
    </g>
    <g id="ytick_6">
     <g id="line2d_15">
      <g>
       <use xlink:href="#mfc8df37133" x="39.65" y="66.933957" style="stroke: #000000; stroke-width: 0.8"/>
      </g>
     </g>
     <g id="text_15">
      <!-- 2500 -->
      <g transform="translate(7.2 70.733176) scale(0.1 -0.1)">
       <use xlink:href="#DejaVuSans-32"/>
       <use xlink:href="#DejaVuSans-35" x="63.623047"/>
       <use xlink:href="#DejaVuSans-30" x="127.246094"/>
       <use xlink:href="#DejaVuSans-30" x="190.869141"/>
      </g>
     </g>
    </g>
    <g id="ytick_7">
     <g id="line2d_16">
      <g>
       <use xlink:href="#mfc8df37133" x="39.65" y="28.077548" style="stroke: #000000; stroke-width: 0.8"/>
      </g>
     </g>
     <g id="text_16">
      <!-- 3000 -->
      <g transform="translate(7.2 31.876767) scale(0.1 -0.1)">
       <defs>
        <path id="DejaVuSans-33" d="M 2597 2516 
Q 3050 2419 3304 2112 
Q 3559 1806 3559 1356 
Q 3559 666 3084 287 
Q 2609 -91 1734 -91 
Q 1441 -91 1130 -33 
Q 819 25 488 141 
L 488 750 
Q 750 597 1062 519 
Q 1375 441 1716 441 
Q 2309 441 2620 675 
Q 2931 909 2931 1356 
Q 2931 1769 2642 2001 
Q 2353 2234 1838 2234 
L 1294 2234 
L 1294 2753 
L 1863 2753 
Q 2328 2753 2575 2939 
Q 2822 3125 2822 3475 
Q 2822 3834 2567 4026 
Q 2313 4219 1838 4219 
Q 1578 4219 1281 4162 
Q 984 4106 628 3988 
L 628 4550 
Q 988 4650 1302 4700 
Q 1616 4750 1894 4750 
Q 2613 4750 3031 4423 
Q 3450 4097 3450 3541 
Q 3450 3153 3228 2886 
Q 3006 2619 2597 2516 
z
" transform="scale(0.015625)"/>
       </defs>
       <use xlink:href="#DejaVuSans-33"/>
       <use xlink:href="#DejaVuSans-30" x="63.623047"/>
       <use xlink:href="#DejaVuSans-30" x="127.246094"/>
       <use xlink:href="#DejaVuSans-30" x="190.869141"/>
      </g>
     </g>
    </g>
   </g>
   <g id="line2d_17">
    <path d="M 55.882727 261.216 
L 59.961302 241.787796 
L 64.039877 224.23247 
L 68.118451 208.369478 
L 72.197026 194.035679 
L 76.275601 181.083657 
L 80.354175 169.380211 
L 84.43275 158.804977 
L 88.511325 149.249195 
L 92.589899 140.614591 
L 96.668474 132.812362 
L 100.747049 125.762269 
L 104.825624 119.391804 
L 108.904198 113.635452 
L 112.982773 108.434013 
L 117.061348 103.733992 
L 121.139922 99.487053 
L 125.218497 95.649519 
L 129.297072 92.181924 
L 133.375646 89.048604 
L 137.454221 86.217337 
L 141.532796 83.659004 
L 145.61137 81.347294 
L 149.689945 79.258433 
L 153.76852 77.370938 
L 157.847095 75.665398 
L 161.925669 74.124272 
L 166.004244 72.73171 
L 170.082819 71.473391 
L 174.161393 70.336374 
L 178.239968 69.308966 
L 182.318543 68.3806 
L 186.397117 67.541728 
L 190.475692 66.783724 
L 194.554267 66.098791 
L 198.632841 65.479885 
L 202.711416 64.920642 
L 206.789991 64.415311 
L 210.868566 63.958693 
L 214.94714 63.546093 
L 219.025715 63.173268 
L 223.10429 62.836383 
L 227.182864 62.531974 
L 231.261439 62.256909 
L 235.340014 62.008361 
L 239.418588 61.783773 
L 243.497163 61.580836 
L 247.575738 61.397461 
L 251.654312 61.231764 
L 255.732887 61.08204 
L 259.811462 60.94675 
L 263.890037 60.824501 
L 267.968611 60.714037 
L 272.047186 60.614222 
L 276.125761 60.524029 
L 280.204335 60.442531 
L 284.28291 60.368889 
L 288.361485 60.302346 
L 292.440059 60.242218 
L 296.518634 60.187886 
L 300.597209 60.138792 
L 304.675783 60.094431 
L 308.754358 60.054346 
L 312.832933 60.018125 
L 316.911508 59.985396 
L 320.990082 59.955822 
L 325.068657 59.929099 
L 329.147232 59.904952 
L 333.225806 59.883132 
L 337.304381 59.863416 
L 341.382956 59.845601 
L 345.46153 59.829503 
L 349.540105 59.814957 
L 353.61868 59.801814 
L 357.697254 59.789937 
L 361.775829 59.779205 
L 365.854404 59.769508 
L 369.932979 59.760745 
L 374.011553 59.752828 
L 378.090128 59.745673 
" clip-path="url(#pea1386aa59)" style="fill: none; stroke: #1f77b4; stroke-width: 1.5; stroke-linecap: square"/>
   </g>
   <g id="line2d_18">
    <path d="M 55.882727 261.216 
L 59.961302 261.216 
L 64.039877 259.343121 
L 68.118451 256.227774 
L 72.197026 252.331541 
L 76.275601 247.989405 
L 80.354175 243.441676 
L 84.43275 238.858098 
L 88.511325 234.356044 
L 92.589899 230.014205 
L 96.668474 225.8829 
L 100.747049 221.9918 
L 104.825624 218.355713 
L 108.904198 214.978902 
L 112.982773 211.858288 
L 117.061348 208.985827 
L 121.139922 206.350249 
L 125.218497 203.938332 
L 129.297072 201.735819 
L 133.375646 199.728073 
L 137.454221 197.900537 
L 141.532796 196.23904 
L 145.61137 194.730011 
L 149.689945 193.360602 
L 153.76852 192.118759 
L 157.847095 190.993253 
L 161.925669 189.973679 
L 166.004244 189.050442 
L 170.082819 188.214723 
L 174.161393 187.458442 
L 178.239968 186.774212 
L 182.318543 186.155291 
L 186.397117 185.595541 
L 190.475692 185.089375 
L 194.554267 184.631719 
L 198.632841 184.217964 
L 202.711416 183.843931 
L 206.789991 183.50583 
L 210.868566 183.200226 
L 214.94714 182.924011 
L 219.025715 182.674367 
L 223.10429 182.448748 
L 227.182864 182.244847 
L 231.261439 182.060578 
L 235.340014 181.894054 
L 239.418588 181.743569 
L 243.497163 181.60758 
L 247.575738 181.484693 
L 251.654312 181.373646 
L 255.732887 181.273299 
L 259.811462 181.182622 
L 263.890037 181.100684 
L 267.968611 181.026642 
L 272.047186 180.959737 
L 276.125761 180.89928 
L 280.204335 180.84465 
L 284.28291 180.795286 
L 288.361485 180.75068 
L 292.440059 180.710374 
L 296.518634 180.673952 
L 300.597209 180.641042 
L 304.675783 180.611304 
L 308.754358 180.584433 
L 312.832933 180.560152 
L 316.911508 180.538211 
L 320.990082 180.518386 
L 325.068657 180.500472 
L 329.147232 180.484284 
L 333.225806 180.469657 
L 337.304381 180.45644 
L 341.382956 180.444498 
L 345.46153 180.433706 
L 349.540105 180.423955 
L 353.61868 180.415144 
L 357.697254 180.407182 
L 361.775829 180.399987 
L 365.854404 180.393487 
L 369.932979 180.387612 
L 374.011553 180.382305 
L 378.090128 180.377508 
" clip-path="url(#pea1386aa59)" style="fill: none; stroke: #ff7f0e; stroke-width: 1.5; stroke-linecap: square"/>
   </g>
   <g id="line2d_19">
    <path d="M 55.882727 261.216 
L 60.777017 241.63237 
L 62.408447 234.016514 
L 64.039877 227.333212 
L 65.671307 222.281879 
L 68.934166 209.148412 
L 70.565596 205.573623 
L 72.197026 200.056013 
L 73.828456 196.092659 
L 75.459886 189.253931 
L 77.091316 184.124885 
L 78.722746 179.772968 
L 80.354175 174.410783 
L 83.617035 166.561789 
L 86.879895 157.080825 
L 88.511325 152.029492 
L 90.142755 149.154118 
L 91.774185 145.113051 
L 93.405614 142.31539 
L 95.037044 138.662887 
L 96.668474 136.25379 
L 99.931334 129.337349 
L 101.562764 124.441442 
L 103.194194 123.353462 
L 104.825624 120.866652 
L 106.457053 118.068991 
L 108.088483 114.882765 
L 109.719913 112.318242 
L 111.351343 108.66574 
L 112.982773 104.624673 
L 114.614203 101.516161 
L 116.245633 99.02935 
L 117.877063 99.02935 
L 119.508492 98.329935 
L 121.139922 96.620253 
L 122.771352 94.59972 
L 124.402782 92.812325 
L 126.034212 91.879771 
L 127.665642 90.247802 
L 135.822791 78.979444 
L 137.454221 79.134869 
L 139.085651 78.202315 
L 140.717081 75.093803 
L 142.348511 74.4721 
L 143.979941 72.840131 
L 145.61137 69.49848 
L 147.2428 69.032203 
L 148.87423 67.711085 
L 152.13709 65.768265 
L 153.76852 64.680285 
L 155.39995 64.291721 
L 157.03138 65.690552 
L 158.66281 65.845978 
L 160.294239 62.89289 
L 161.925669 62.038049 
L 163.557099 59.939803 
L 165.188529 60.172942 
L 166.819959 58.074696 
L 168.451389 54.810757 
L 170.082819 55.121609 
L 171.714249 54.111342 
L 173.345678 54.655332 
L 174.977108 53.722778 
L 176.608538 51.702245 
L 178.239968 51.85767 
L 179.871398 50.225701 
L 181.502828 49.837137 
L 183.134258 49.293147 
L 184.765688 50.147988 
L 186.397117 48.671445 
L 188.028547 46.961763 
L 189.659977 47.661178 
L 191.291407 47.42804 
L 192.922837 46.961763 
L 194.554267 44.863517 
L 196.185697 45.407507 
L 197.817127 44.708091 
L 199.448556 46.34006 
L 202.711416 47.97203 
L 204.342846 47.42804 
L 205.974276 46.184635 
L 207.605706 47.42804 
L 209.237136 45.873783 
L 210.868566 46.029209 
L 212.499995 44.552666 
L 214.131425 44.863517 
L 215.762855 43.930963 
L 217.394285 44.785804 
L 219.025715 44.474953 
L 220.657145 43.775537 
L 222.288575 44.39724 
L 223.920005 44.630378 
L 225.551434 45.407507 
L 227.182864 44.708091 
L 228.814294 45.252081 
L 230.445724 43.076122 
L 232.077154 41.211014 
L 233.708584 40.123035 
L 235.340014 39.889897 
L 236.971444 39.190481 
L 238.602873 39.190481 
L 240.234303 39.035056 
L 241.865733 39.112768 
L 243.497163 38.491066 
L 245.128593 36.781384 
L 246.760023 34.760851 
L 248.391453 33.672871 
L 250.022883 31.652338 
L 251.654312 30.719784 
L 253.285742 30.564358 
L 254.917172 31.108348 
L 256.548602 30.797497 
L 259.811462 29.476379 
L 261.442892 33.206594 
L 263.074322 33.750584 
L 264.705751 31.263774 
L 266.337181 31.807764 
L 267.968611 30.952923 
L 269.600041 28.699251 
L 271.231471 29.78723 
L 272.862901 29.709518 
L 274.494331 27.999836 
L 276.125761 28.621538 
L 277.75719 27.766697 
L 279.38862 26.057015 
L 281.02005 24.969036 
L 282.65148 25.668451 
L 284.28291 23.958769 
L 285.91434 24.347333 
L 287.54577 24.502759 
L 289.1772 24.502759 
L 290.80863 24.036482 
L 292.440059 25.746164 
L 294.071489 25.979302 
L 295.702919 26.445579 
L 297.334349 25.901589 
L 298.965779 23.958769 
L 300.597209 24.191907 
L 303.860069 22.87079 
L 305.491498 21.316533 
L 307.122928 21.23882 
L 308.754358 20.694831 
L 310.385788 22.249087 
L 312.017218 21.549672 
L 313.648648 22.793077 
L 315.280078 23.103928 
L 316.911508 23.181641 
L 318.542937 23.026215 
L 320.174367 23.414779 
L 323.437227 21.394246 
L 325.068657 19.373713 
L 326.700087 19.762277 
L 328.331517 19.296 
L 329.962947 21.083395 
L 331.594376 22.249087 
L 333.225806 24.036482 
L 334.857236 22.948502 
L 336.488666 22.87079 
L 338.120096 24.114195 
L 339.751526 22.559938 
L 341.382956 23.492492 
L 343.014386 23.803343 
L 344.645815 23.259354 
L 346.277245 24.191907 
L 347.908675 23.337066 
L 349.540105 23.414779 
L 351.171535 21.938236 
L 352.802965 23.337066 
L 354.434395 23.259354 
L 356.065825 22.948502 
L 357.697254 24.580472 
L 359.328684 25.746164 
L 362.591544 27.688984 
L 364.222974 27.922123 
L 365.854404 28.621538 
L 367.485834 28.699251 
L 369.117264 28.621538 
L 370.748693 28.932389 
L 372.380123 30.797497 
L 374.011553 29.320953 
L 375.642983 28.077548 
L 377.274413 28.932389 
L 378.905843 28.854677 
L 380.537273 28.3884 
L 380.537273 28.3884 
" clip-path="url(#pea1386aa59)" style="fill: none; stroke: #2ca02c; stroke-width: 1.5; stroke-linecap: square"/>
   </g>
   <g id="line2d_20">
    <path d="M 55.882727 261.216 
L 59.145587 260.982862 
L 60.777017 260.283446 
L 62.408447 259.428605 
L 64.039877 258.107487 
L 65.671307 257.252646 
L 67.302736 255.69839 
L 68.934166 254.765836 
L 72.197026 251.268759 
L 73.828456 248.859662 
L 75.459886 247.771683 
L 77.091316 246.139713 
L 78.722746 243.808329 
L 80.354175 242.098647 
L 81.985605 239.223273 
L 83.617035 238.446145 
L 86.879895 235.57077 
L 88.511325 235.259919 
L 90.142755 233.861088 
L 91.774185 232.850822 
L 93.405614 230.985714 
L 95.037044 229.742309 
L 96.668474 227.488637 
L 99.931334 222.359591 
L 101.562764 221.582463 
L 103.194194 218.707089 
L 104.825624 217.696822 
L 108.088483 212.567776 
L 109.719913 210.314105 
L 111.351343 210.158679 
L 112.982773 208.682136 
L 114.614203 207.594156 
L 116.245633 206.273038 
L 117.877063 203.786228 
L 119.508492 200.988567 
L 122.771352 198.424044 
L 124.402782 197.49149 
L 126.034212 195.237818 
L 127.665642 193.450423 
L 129.297072 192.207018 
L 130.928502 191.119039 
L 132.559931 190.8859 
L 134.191361 189.253931 
L 137.454221 187.155685 
L 139.085651 186.45627 
L 140.717081 186.611695 
L 142.348511 184.746588 
L 143.979941 183.347757 
L 145.61137 182.88148 
L 147.2428 182.182065 
L 148.87423 180.93866 
L 150.50566 179.151265 
L 152.13709 178.374137 
L 153.76852 176.198178 
L 155.39995 175.343337 
L 157.03138 173.711368 
L 158.66281 173.400517 
L 160.294239 174.799347 
L 161.925669 173.711368 
L 163.557099 173.944506 
L 165.188529 172.39025 
L 166.819959 170.680568 
L 168.451389 170.525142 
L 170.082819 168.271471 
L 171.714249 168.426896 
L 173.345678 165.940086 
L 174.977108 166.406363 
L 176.608538 166.017799 
L 178.239968 164.774394 
L 179.871398 165.318384 
L 181.502828 163.608702 
L 183.134258 163.919553 
L 184.765688 162.365296 
L 186.397117 162.676148 
L 189.659977 159.800774 
L 191.291407 158.86822 
L 192.922837 158.557368 
L 194.554267 159.723061 
L 196.185697 158.479656 
L 197.817127 156.847686 
L 199.448556 155.526569 
L 201.079986 155.371143 
L 202.711416 156.148271 
L 204.342846 156.148271 
L 205.974276 155.448856 
L 207.605706 154.205451 
L 209.237136 155.83742 
L 210.868566 156.459122 
L 214.131425 156.225984 
L 215.762855 156.847686 
L 217.394285 157.313963 
L 219.025715 157.469389 
L 220.657145 158.635081 
L 222.288575 156.692261 
L 223.920005 155.371143 
L 225.551434 154.205451 
L 227.182864 154.205451 
L 228.814294 153.039758 
L 230.445724 154.205451 
L 232.077154 154.360876 
L 233.708584 155.138004 
L 235.340014 154.74944 
L 236.971444 153.816887 
L 238.602873 155.604281 
L 240.234303 155.759707 
L 241.865733 156.614548 
L 243.497163 155.915133 
L 245.128593 157.003112 
L 246.760023 157.313963 
L 248.391453 155.604281 
L 250.022883 156.614548 
L 251.654312 156.225984 
L 253.285742 155.448856 
L 254.917172 154.360876 
L 258.180032 152.884333 
L 259.811462 153.739174 
L 261.442892 151.485502 
L 263.074322 148.998692 
L 264.705751 149.23183 
L 266.337181 148.454702 
L 269.600041 148.998692 
L 271.231471 147.055872 
L 272.862901 146.123318 
L 274.494331 147.055872 
L 276.125761 147.444436 
L 277.75719 148.610128 
L 281.02005 149.387256 
L 282.65148 147.833 
L 284.28291 149.154118 
L 285.91434 148.998692 
L 287.54577 148.532415 
L 289.1772 148.843266 
L 290.80863 148.998692 
L 292.440059 147.988425 
L 294.071489 147.677574 
L 295.702919 146.434169 
L 297.334349 146.822733 
L 298.965779 148.299277 
L 300.597209 149.23183 
L 302.228639 150.475235 
L 303.860069 150.8638 
L 305.491498 150.31981 
L 307.122928 150.552948 
L 308.754358 150.086671 
L 310.385788 148.687841 
L 313.648648 148.454702 
L 315.280078 148.765553 
L 318.542937 148.998692 
L 320.174367 148.998692 
L 321.805797 148.299277 
L 323.437227 148.532415 
L 325.068657 149.154118 
L 328.331517 148.843266 
L 329.962947 146.900446 
L 331.594376 147.28901 
L 333.225806 146.900446 
L 334.857236 147.599861 
L 336.488666 146.978159 
L 338.120096 146.201031 
L 339.751526 147.833 
L 341.382956 147.444436 
L 343.014386 146.511882 
L 346.277245 146.123318 
L 347.908675 147.599861 
L 349.540105 147.28901 
L 351.171535 147.28901 
L 352.802965 145.657041 
L 354.434395 146.123318 
L 357.697254 144.8022 
L 359.328684 143.092518 
L 360.960114 142.703954 
L 362.591544 142.703954 
L 364.222974 143.791933 
L 365.854404 143.403369 
L 367.485834 143.947359 
L 369.117264 145.190764 
L 370.748693 143.092518 
L 372.380123 143.791933 
L 374.011553 145.657041 
L 375.642983 146.356456 
L 377.274413 145.268477 
L 378.905843 145.423902 
L 380.537273 145.190764 
L 380.537273 145.190764 
" clip-path="url(#pea1386aa59)" style="fill: none; stroke: #d62728; stroke-width: 1.5; stroke-linecap: square"/>
   </g>
   <g id="patch_3">
    <path d="M 39.65 273.312 
L 39.65 7.2 
" style="fill: none; stroke: #000000; stroke-width: 0.8; stroke-linejoin: miter; stroke-linecap: square"/>
   </g>
   <g id="patch_4">
    <path d="M 396.77 273.312 
L 396.77 7.2 
" style="fill: none; stroke: #000000; stroke-width: 0.8; stroke-linejoin: miter; stroke-linecap: square"/>
   </g>
   <g id="patch_5">
    <path d="M 39.65 273.312 
L 396.77 273.312 
" style="fill: none; stroke: #000000; stroke-width: 0.8; stroke-linejoin: miter; stroke-linecap: square"/>
   </g>
   <g id="patch_6">
    <path d="M 39.65 7.2 
L 396.77 7.2 
" style="fill: none; stroke: #000000; stroke-width: 0.8; stroke-linejoin: miter; stroke-linecap: square"/>
   </g>
  </g>
 </g>
 <defs>
  <clipPath id="pea1386aa59">
   <rect x="39.65" y="7.2" width="357.12" height="266.112"/>
  </clipPath>
 </defs>
</svg>
