<?xml version="1.0" encoding="utf-8" standalone="no"?>
<!DOCTYPE svg PUBLIC "-//W3C//DTD SVG 1.1//EN"
  "http://www.w3.org/Graphics/SVG/1.1/DTD/svg11.dtd">
<svg xmlns:xlink="http://www.w3.org/1999/xlink" width="403.97pt" height="297.190125pt" viewBox="0 0 403.97 297.190125" xmlns="http://www.w3.org/2000/svg" version="1.1">
 <metadata>
  <rdf:RDF xmlns:dc="http://purl.org/dc/elements/1.1/" xmlns:cc="http://creativecommons.org/ns#" xmlns:rdf="http://www.w3.org/1999/02/22-rdf-syntax-ns#">
   <cc:Work>
    <dc:type rdf:resource="http://purl.org/dc/dcmitype/StillImage"/>
    <dc:date>2023-12-04T06:54:13.067998</dc:date>
    <dc:format>image/svg+xml</dc:format>
    <dc:creator>
     <cc:Agent>
      <dc:title>Matplotlib v3.8.2, https://matplotlib.org/</dc:title>
     </cc:Agent>
    </dc:creator>
   </cc:Work>
  </rdf:RDF>
 </metadata>
 <defs>
  <style type="text/css">*{stroke-linejoin: round; stroke-linecap: butt}</style>
 </defs>
 <g id="figure_1">
  <g id="patch_1">
   <path d="M 0 297.190125 
L 403.97 297.190125 
L 403.97 0 
L 0 0 
z
" style="fill: #ffffff"/>
  </g>
  <g id="axes_1">
   <g id="patch_2">
    <path d="M 39.65 273.312 
L 396.77 273.312 
L 396.77 7.2 
L 39.65 7.2 
z
" style="fill: #ffffff"/>
   </g>
   <g id="matplotlib.axis_1">
    <g id="xtick_1">
     <g id="line2d_1">
      <defs>
       <path id="ma23e4892c8" d="M 0 0 
L 0 3.5 
" style="stroke: #000000; stroke-width: 0.8"/>
      </defs>
      <g>
       <use xlink:href="#ma23e4892c8" x="55.882727" y="273.312" style="stroke: #000000; stroke-width: 0.8"/>
      </g>
     </g>
     <g id="text_1">
      <!-- 0.0 -->
      <g transform="translate(47.931165 287.910437) scale(0.1 -0.1)">
       <defs>
        <path id="DejaVuSans-30" d="M 2034 4250 
Q 1547 4250 1301 3770 
Q 1056 3291 1056 2328 
Q 1056 1369 1301 889 
Q 1547 409 2034 409 
Q 2525 409 2770 889 
Q 3016 1369 3016 2328 
Q 3016 3291 2770 3770 
Q 2525 4250 2034 4250 
z
M 2034 4750 
Q 2819 4750 3233 4129 
Q 3647 3509 3647 2328 
Q 3647 1150 3233 529 
Q 2819 -91 2034 -91 
Q 1250 -91 836 529 
Q 422 1150 422 2328 
Q 422 3509 836 4129 
Q 1250 4750 2034 4750 
z
" transform="scale(0.015625)"/>
        <path id="DejaVuSans-2e" d="M 684 794 
L 1344 794 
L 1344 0 
L 684 0 
L 684 794 
z
" transform="scale(0.015625)"/>
       </defs>
       <use xlink:href="#DejaVuSans-30"/>
       <use xlink:href="#DejaVuSans-2e" x="63.623047"/>
       <use xlink:href="#DejaVuSans-30" x="95.410156"/>
      </g>
     </g>
    </g>
    <g id="xtick_2">
     <g id="line2d_2">
      <g>
       <use xlink:href="#ma23e4892c8" x="96.668474" y="273.312" style="stroke: #000000; stroke-width: 0.8"/>
      </g>
     </g>
     <g id="text_2">
      <!-- 2.5 -->
      <g transform="translate(88.716912 287.910437) scale(0.1 -0.1)">
       <defs>
        <path id="DejaVuSans-32" d="M 1228 531 
L 3431 531 
L 3431 0 
L 469 0 
L 469 531 
Q 828 903 1448 1529 
Q 2069 2156 2228 2338 
Q 2531 2678 2651 2914 
Q 2772 3150 2772 3378 
Q 2772 3750 2511 3984 
Q 2250 4219 1831 4219 
Q 1534 4219 1204 4116 
Q 875 4013 500 3803 
L 500 4441 
Q 881 4594 1212 4672 
Q 1544 4750 1819 4750 
Q 2544 4750 2975 4387 
Q 3406 4025 3406 3419 
Q 3406 3131 3298 2873 
Q 3191 2616 2906 2266 
Q 2828 2175 2409 1742 
Q 1991 1309 1228 531 
z
" transform="scale(0.015625)"/>
        <path id="DejaVuSans-35" d="M 691 4666 
L 3169 4666 
L 3169 4134 
L 1269 4134 
L 1269 2991 
Q 1406 3038 1543 3061 
Q 1681 3084 1819 3084 
Q 2600 3084 3056 2656 
Q 3513 2228 3513 1497 
Q 3513 744 3044 326 
Q 2575 -91 1722 -91 
Q 1428 -91 1123 -41 
Q 819 9 494 109 
L 494 744 
Q 775 591 1075 516 
Q 1375 441 1709 441 
Q 2250 441 2565 725 
Q 2881 1009 2881 1497 
Q 2881 1984 2565 2268 
Q 2250 2553 1709 2553 
Q 1456 2553 1204 2497 
Q 953 2441 691 2322 
L 691 4666 
z
" transform="scale(0.015625)"/>
       </defs>
       <use xlink:href="#DejaVuSans-32"/>
       <use xlink:href="#DejaVuSans-2e" x="63.623047"/>
       <use xlink:href="#DejaVuSans-35" x="95.410156"/>
      </g>
     </g>
    </g>
    <g id="xtick_3">
     <g id="line2d_3">
      <g>
       <use xlink:href="#ma23e4892c8" x="137.454221" y="273.312" style="stroke: #000000; stroke-width: 0.8"/>
      </g>
     </g>
     <g id="text_3">
      <!-- 5.0 -->
      <g transform="translate(129.502659 287.910437) scale(0.1 -0.1)">
       <use xlink:href="#DejaVuSans-35"/>
       <use xlink:href="#DejaVuSans-2e" x="63.623047"/>
       <use xlink:href="#DejaVuSans-30" x="95.410156"/>
      </g>
     </g>
    </g>
    <g id="xtick_4">
     <g id="line2d_4">
      <g>
       <use xlink:href="#ma23e4892c8" x="178.239968" y="273.312" style="stroke: #000000; stroke-width: 0.8"/>
      </g>
     </g>
     <g id="text_4">
      <!-- 7.5 -->
      <g transform="translate(170.288406 287.910437) scale(0.1 -0.1)">
       <defs>
        <path id="DejaVuSans-37" d="M 525 4666 
L 3525 4666 
L 3525 4397 
L 1831 0 
L 1172 0 
L 2766 4134 
L 525 4134 
L 525 4666 
z
" transform="scale(0.015625)"/>
       </defs>
       <use xlink:href="#DejaVuSans-37"/>
       <use xlink:href="#DejaVuSans-2e" x="63.623047"/>
       <use xlink:href="#DejaVuSans-35" x="95.410156"/>
      </g>
     </g>
    </g>
    <g id="xtick_5">
     <g id="line2d_5">
      <g>
       <use xlink:href="#ma23e4892c8" x="219.025715" y="273.312" style="stroke: #000000; stroke-width: 0.8"/>
      </g>
     </g>
     <g id="text_5">
      <!-- 10.0 -->
      <g transform="translate(207.892902 287.910437) scale(0.1 -0.1)">
       <defs>
        <path id="DejaVuSans-31" d="M 794 531 
L 1825 531 
L 1825 4091 
L 703 3866 
L 703 4441 
L 1819 4666 
L 2450 4666 
L 2450 531 
L 3481 531 
L 3481 0 
L 794 0 
L 794 531 
z
" transform="scale(0.015625)"/>
       </defs>
       <use xlink:href="#DejaVuSans-31"/>
       <use xlink:href="#DejaVuSans-30" x="63.623047"/>
       <use xlink:href="#DejaVuSans-2e" x="127.246094"/>
       <use xlink:href="#DejaVuSans-30" x="159.033203"/>
      </g>
     </g>
    </g>
    <g id="xtick_6">
     <g id="line2d_6">
      <g>
       <use xlink:href="#ma23e4892c8" x="259.811462" y="273.312" style="stroke: #000000; stroke-width: 0.8"/>
      </g>
     </g>
     <g id="text_6">
      <!-- 12.5 -->
      <g transform="translate(248.678649 287.910437) scale(0.1 -0.1)">
       <use xlink:href="#DejaVuSans-31"/>
       <use xlink:href="#DejaVuSans-32" x="63.623047"/>
       <use xlink:href="#DejaVuSans-2e" x="127.246094"/>
       <use xlink:href="#DejaVuSans-35" x="159.033203"/>
      </g>
     </g>
    </g>
    <g id="xtick_7">
     <g id="line2d_7">
      <g>
       <use xlink:href="#ma23e4892c8" x="300.597209" y="273.312" style="stroke: #000000; stroke-width: 0.8"/>
      </g>
     </g>
     <g id="text_7">
      <!-- 15.0 -->
      <g transform="translate(289.464396 287.910437) scale(0.1 -0.1)">
       <use xlink:href="#DejaVuSans-31"/>
       <use xlink:href="#DejaVuSans-35" x="63.623047"/>
       <use xlink:href="#DejaVuSans-2e" x="127.246094"/>
       <use xlink:href="#DejaVuSans-30" x="159.033203"/>
      </g>
     </g>
    </g>
    <g id="xtick_8">
     <g id="line2d_8">
      <g>
       <use xlink:href="#ma23e4892c8" x="341.382956" y="273.312" style="stroke: #000000; stroke-width: 0.8"/>
      </g>
     </g>
     <g id="text_8">
      <!-- 17.5 -->
      <g transform="translate(330.250143 287.910437) scale(0.1 -0.1)">
       <use xlink:href="#DejaVuSans-31"/>
       <use xlink:href="#DejaVuSans-37" x="63.623047"/>
       <use xlink:href="#DejaVuSans-2e" x="127.246094"/>
       <use xlink:href="#DejaVuSans-35" x="159.033203"/>
      </g>
     </g>
    </g>
    <g id="xtick_9">
     <g id="line2d_9">
      <g>
       <use xlink:href="#ma23e4892c8" x="382.168703" y="273.312" style="stroke: #000000; stroke-width: 0.8"/>
      </g>
     </g>
     <g id="text_9">
      <!-- 20.0 -->
      <g transform="translate(371.03589 287.910437) scale(0.1 -0.1)">
       <use xlink:href="#DejaVuSans-32"/>
       <use xlink:href="#DejaVuSans-30" x="63.623047"/>
       <use xlink:href="#DejaVuSans-2e" x="127.246094"/>
       <use xlink:href="#DejaVuSans-30" x="159.033203"/>
      </g>
     </g>
    </g>
   </g>
   <g id="matplotlib.axis_2">
    <g id="ytick_1">
     <g id="line2d_10">
      <defs>
       <path id="m3129329f69" d="M 0 0 
L -3.5 0 
" style="stroke: #000000; stroke-width: 0.8"/>
      </defs>
      <g>
       <use xlink:href="#m3129329f69" x="39.65" y="261.216" style="stroke: #000000; stroke-width: 0.8"/>
      </g>
     </g>
     <g id="text_10">
      <!-- 0 -->
      <g transform="translate(26.2875 265.015219) scale(0.1 -0.1)">
       <use xlink:href="#DejaVuSans-30"/>
      </g>
     </g>
    </g>
    <g id="ytick_2">
     <g id="line2d_11">
      <g>
       <use xlink:href="#m3129329f69" x="39.65" y="221.917754" style="stroke: #000000; stroke-width: 0.8"/>
      </g>
     </g>
     <g id="text_11">
      <!-- 500 -->
      <g transform="translate(13.5625 225.716973) scale(0.1 -0.1)">
       <use xlink:href="#DejaVuSans-35"/>
       <use xlink:href="#DejaVuSans-30" x="63.623047"/>
       <use xlink:href="#DejaVuSans-30" x="127.246094"/>
      </g>
     </g>
    </g>
    <g id="ytick_3">
     <g id="line2d_12">
      <g>
       <use xlink:href="#m3129329f69" x="39.65" y="182.619509" style="stroke: #000000; stroke-width: 0.8"/>
      </g>
     </g>
     <g id="text_12">
      <!-- 1000 -->
      <g transform="translate(7.2 186.418728) scale(0.1 -0.1)">
       <use xlink:href="#DejaVuSans-31"/>
       <use xlink:href="#DejaVuSans-30" x="63.623047"/>
       <use xlink:href="#DejaVuSans-30" x="127.246094"/>
       <use xlink:href="#DejaVuSans-30" x="190.869141"/>
      </g>
     </g>
    </g>
    <g id="ytick_4">
     <g id="line2d_13">
      <g>
       <use xlink:href="#m3129329f69" x="39.65" y="143.321263" style="stroke: #000000; stroke-width: 0.8"/>
      </g>
     </g>
     <g id="text_13">
      <!-- 1500 -->
      <g transform="translate(7.2 147.120482) scale(0.1 -0.1)">
       <use xlink:href="#DejaVuSans-31"/>
       <use xlink:href="#DejaVuSans-35" x="63.623047"/>
       <use xlink:href="#DejaVuSans-30" x="127.246094"/>
       <use xlink:href="#DejaVuSans-30" x="190.869141"/>
      </g>
     </g>
    </g>
    <g id="ytick_5">
     <g id="line2d_14">
      <g>
       <use xlink:href="#m3129329f69" x="39.65" y="104.023018" style="stroke: #000000; stroke-width: 0.8"/>
      </g>
     </g>
     <g id="text_14">
      <!-- 2000 -->
      <g transform="translate(7.2 107.822236) scale(0.1 -0.1)">
       <use xlink:href="#DejaVuSans-32"/>
       <use xlink:href="#DejaVuSans-30" x="63.623047"/>
       <use xlink:href="#DejaVuSans-30" x="127.246094"/>
       <use xlink:href="#DejaVuSans-30" x="190.869141"/>
      </g>
     </g>
    </g>
    <g id="ytick_6">
     <g id="line2d_15">
      <g>
       <use xlink:href="#m3129329f69" x="39.65" y="64.724772" style="stroke: #000000; stroke-width: 0.8"/>
      </g>
     </g>
     <g id="text_15">
      <!-- 2500 -->
      <g transform="translate(7.2 68.523991) scale(0.1 -0.1)">
       <use xlink:href="#DejaVuSans-32"/>
       <use xlink:href="#DejaVuSans-35" x="63.623047"/>
       <use xlink:href="#DejaVuSans-30" x="127.246094"/>
       <use xlink:href="#DejaVuSans-30" x="190.869141"/>
      </g>
     </g>
    </g>
    <g id="ytick_7">
     <g id="line2d_16">
      <g>
       <use xlink:href="#m3129329f69" x="39.65" y="25.426526" style="stroke: #000000; stroke-width: 0.8"/>
      </g>
     </g>
     <g id="text_16">
      <!-- 3000 -->
      <g transform="translate(7.2 29.225745) scale(0.1 -0.1)">
       <defs>
        <path id="DejaVuSans-33" d="M 2597 2516 
Q 3050 2419 3304 2112 
Q 3559 1806 3559 1356 
Q 3559 666 3084 287 
Q 2609 -91 1734 -91 
Q 1441 -91 1130 -33 
Q 819 25 488 141 
L 488 750 
Q 750 597 1062 519 
Q 1375 441 1716 441 
Q 2309 441 2620 675 
Q 2931 909 2931 1356 
Q 2931 1769 2642 2001 
Q 2353 2234 1838 2234 
L 1294 2234 
L 1294 2753 
L 1863 2753 
Q 2328 2753 2575 2939 
Q 2822 3125 2822 3475 
Q 2822 3834 2567 4026 
Q 2313 4219 1838 4219 
Q 1578 4219 1281 4162 
Q 984 4106 628 3988 
L 628 4550 
Q 988 4650 1302 4700 
Q 1616 4750 1894 4750 
Q 2613 4750 3031 4423 
Q 3450 4097 3450 3541 
Q 3450 3153 3228 2886 
Q 3006 2619 2597 2516 
z
" transform="scale(0.015625)"/>
       </defs>
       <use xlink:href="#DejaVuSans-33"/>
       <use xlink:href="#DejaVuSans-30" x="63.623047"/>
       <use xlink:href="#DejaVuSans-30" x="127.246094"/>
       <use xlink:href="#DejaVuSans-30" x="190.869141"/>
      </g>
     </g>
    </g>
   </g>
   <g id="line2d_17">
    <path d="M 55.882727 261.216 
L 72.197026 182.619509 
L 88.511325 130.221848 
L 104.825624 95.290074 
L 121.139922 72.002225 
L 137.454221 56.476992 
L 153.76852 46.126837 
L 170.082819 39.226733 
L 186.397117 34.626664 
L 202.711416 31.559952 
L 219.025715 29.515477 
L 235.340014 28.152493 
L 251.654312 27.243838 
L 267.968611 26.638067 
L 284.28291 26.23422 
L 300.597209 25.964989 
L 316.911508 25.785501 
L 333.225806 25.665843 
L 349.540105 25.586071 
L 365.854404 25.532889 
" clip-path="url(#paf1e12b31e)" style="fill: none; stroke: #1f77b4; stroke-width: 1.5; stroke-linecap: square"/>
   </g>
   <g id="line2d_18">
    <path d="M 55.882727 261.216 
L 72.197026 261.216 
L 88.511325 235.01717 
L 104.825624 208.818339 
L 121.139922 188.441471 
L 137.454221 173.886565 
L 153.76852 163.859852 
L 170.082819 157.067563 
L 186.397117 152.503432 
L 202.711416 149.448699 
L 219.025715 147.408217 
L 235.340014 146.046564 
L 251.654312 145.138353 
L 267.968611 144.53273 
L 284.28291 144.128932 
L 300.597209 143.859718 
L 316.911508 143.680235 
L 333.225806 143.560579 
L 349.540105 143.480807 
L 365.854404 143.427626 
" clip-path="url(#paf1e12b31e)" style="fill: none; stroke: #ff7f0e; stroke-width: 1.5; stroke-linecap: square"/>
   </g>
   <g id="line2d_19">
    <path d="M 55.882727 261.216 
L 57.514157 254.299509 
L 59.145587 246.754246 
L 60.777017 238.423018 
L 62.408447 232.056702 
L 64.039877 223.646877 
L 65.671307 217.123368 
L 67.302736 209.420912 
L 72.197026 189.693193 
L 73.828456 185.213193 
L 77.091316 172.794947 
L 80.354175 162.813193 
L 81.985605 160.848281 
L 83.617035 156.368281 
L 85.248465 150.866526 
L 88.511325 141.59214 
L 90.142755 138.212491 
L 91.774185 135.147228 
L 93.405614 132.474947 
L 95.037044 129.252491 
L 96.668474 125.322667 
L 98.299904 122.021614 
L 99.931334 118.013193 
L 103.194194 110.546526 
L 104.825624 107.638456 
L 106.457053 105.437754 
L 108.088483 103.787228 
L 109.719913 100.564772 
L 111.351343 98.835649 
L 112.982773 95.927579 
L 114.614203 93.648281 
L 116.245633 92.076351 
L 117.877063 88.303719 
L 121.139922 85.002667 
L 122.771352 82.016 
L 124.402782 81.544421 
L 126.034212 79.893895 
L 127.665642 78.950737 
L 129.297072 76.121263 
L 130.928502 75.806877 
L 132.559931 74.785123 
L 134.191361 72.270035 
L 137.454221 67.711439 
L 139.085651 64.567579 
L 140.717081 64.410386 
L 142.348511 62.131088 
L 143.979941 59.458807 
L 145.61137 58.27986 
L 147.2428 56.079158 
L 148.87423 55.764772 
L 150.50566 54.585825 
L 153.76852 51.206175 
L 155.39995 51.756351 
L 157.03138 50.891789 
L 158.66281 48.140912 
L 160.294239 47.983719 
L 161.925669 47.276351 
L 163.557099 47.74793 
L 165.188529 49.31986 
L 166.819959 50.341614 
L 170.082819 48.691088 
L 171.714249 47.040561 
L 173.345678 45.783018 
L 174.977108 46.490386 
L 176.608538 45.704421 
L 178.239968 46.333193 
L 179.871398 45.940211 
L 181.502828 42.953544 
L 183.134258 44.761263 
L 184.765688 43.818105 
L 186.397117 43.975298 
L 188.028547 41.853193 
L 189.659977 40.831439 
L 191.291407 41.381614 
L 192.922837 41.067228 
L 194.554267 40.202667 
L 197.817127 38.866526 
L 199.448556 39.495298 
L 201.079986 40.517053 
L 202.711416 40.438456 
L 205.974276 40.831439 
L 207.605706 39.652491 
L 210.868566 38.78793 
L 215.762855 36.508632 
L 217.394285 36.272842 
L 219.025715 35.093895 
L 220.657145 33.443368 
L 222.288575 33.679158 
L 223.920005 33.364772 
L 225.551434 34.386526 
L 227.182864 32.814596 
L 228.814294 33.207579 
L 230.445724 32.736 
L 232.077154 33.286175 
L 233.708584 35.722667 
L 235.340014 34.30793 
L 236.971444 32.421614 
L 238.602873 32.185825 
L 240.234303 31.39986 
L 241.865733 31.478456 
L 243.497163 30.928281 
L 246.760023 34.858105 
L 248.391453 34.229333 
L 250.022883 34.543719 
L 251.654312 31.871439 
L 253.285742 30.378105 
L 254.917172 30.220912 
L 256.548602 30.299509 
L 258.180032 30.142316 
L 261.442892 31.950035 
L 263.074322 32.578807 
L 264.705751 32.736 
L 266.337181 30.692491 
L 267.968611 28.963368 
L 269.600041 28.648982 
L 271.231471 27.234246 
L 272.862901 26.212491 
L 274.494331 24.011789 
L 276.125761 24.247579 
L 277.75719 21.889684 
L 279.38862 22.20407 
L 281.02005 21.575298 
L 282.65148 23.697404 
L 287.54577 22.125474 
L 289.1772 22.754246 
L 290.80863 22.282667 
L 292.440059 23.068632 
L 294.071489 25.11214 
L 295.702919 26.212491 
L 297.334349 27.077053 
L 298.965779 27.470035 
L 300.597209 25.11214 
L 302.228639 26.055298 
L 303.860069 26.841263 
L 305.491498 25.190737 
L 307.122928 24.404772 
L 308.754358 24.404772 
L 312.017218 23.304421 
L 313.648648 21.418105 
L 315.280078 20.239158 
L 316.911508 20.474947 
L 318.542937 20.553544 
L 320.174367 20.003368 
L 321.805797 21.575298 
L 323.437227 21.339509 
L 325.068657 20.396351 
L 326.700087 19.296 
L 328.331517 20.710737 
L 329.962947 20.160561 
L 331.594376 21.103719 
L 333.225806 22.832842 
L 334.857236 23.461614 
L 336.488666 23.383018 
L 338.120096 24.640561 
L 339.751526 25.033544 
L 341.382956 27.155649 
L 343.014386 27.391439 
L 344.645815 28.648982 
L 347.908675 25.34793 
L 349.540105 24.247579 
L 351.171535 23.618807 
L 352.802965 22.832842 
L 354.434395 23.776 
L 356.065825 23.304421 
L 357.697254 21.496702 
L 359.328684 23.933193 
L 360.960114 23.854596 
L 362.591544 22.046877 
L 364.222974 22.282667 
L 365.854404 20.396351 
L 367.485834 21.496702 
L 369.117264 21.496702 
L 370.748693 22.046877 
L 372.380123 21.103719 
L 374.011553 21.732491 
L 375.642983 22.518456 
L 377.274413 22.911439 
L 380.537273 21.811088 
L 380.537273 21.811088 
" clip-path="url(#paf1e12b31e)" style="fill: none; stroke: #2ca02c; stroke-width: 1.5; stroke-linecap: square"/>
   </g>
   <g id="line2d_20">
    <path d="M 55.882727 261.216 
L 57.514157 260.980211 
L 59.145587 260.901614 
L 60.777017 260.351439 
L 62.408447 259.64407 
L 64.039877 259.172491 
L 65.671307 258.07214 
L 67.302736 256.736 
L 68.934166 255.085474 
L 70.565596 253.670737 
L 73.828456 250.448281 
L 75.459886 248.011789 
L 77.091316 246.20407 
L 78.722746 243.688982 
L 80.354175 242.588632 
L 81.985605 239.444772 
L 83.617035 237.008281 
L 85.248465 235.043368 
L 86.879895 234.021614 
L 88.511325 230.799158 
L 90.142755 228.126877 
L 91.774185 226.633544 
L 93.405614 223.961263 
L 95.037044 222.074947 
L 96.668474 221.681965 
L 98.299904 219.717053 
L 99.931334 216.573193 
L 104.825624 211.543018 
L 106.457053 209.02793 
L 108.088483 207.141614 
L 109.719913 206.748632 
L 111.351343 204.705123 
L 112.982773 201.482667 
L 114.614203 199.439158 
L 116.245633 196.216702 
L 117.877063 195.666526 
L 119.508492 194.644772 
L 121.139922 192.129684 
L 122.771352 191.265123 
L 124.402782 188.435649 
L 126.034212 188.121263 
L 127.665642 184.505825 
L 129.297072 184.270035 
L 130.928502 182.776702 
L 132.559931 181.047579 
L 134.191361 179.632842 
L 135.822791 180.340211 
L 137.454221 179.868632 
L 139.085651 179.161263 
L 140.717081 176.410386 
L 142.348511 175.231439 
L 143.979941 175.074246 
L 145.61137 173.659509 
L 147.2428 174.288281 
L 148.87423 173.580912 
L 150.50566 173.345123 
L 152.13709 171.458807 
L 153.76852 169.808281 
L 155.39995 168.550737 
L 157.03138 167.450386 
L 158.66281 168.629333 
L 160.294239 169.022316 
L 161.925669 167.686175 
L 163.557099 165.328281 
L 165.188529 162.656 
L 168.451389 162.105825 
L 170.082819 160.612491 
L 171.714249 161.08407 
L 173.345678 160.691088 
L 174.977108 159.74793 
L 178.239968 158.726175 
L 179.871398 158.961965 
L 181.502828 158.726175 
L 183.134258 157.311439 
L 184.765688 158.254596 
L 186.397117 156.525474 
L 188.028547 155.346526 
L 189.659977 155.503719 
L 191.291407 155.03214 
L 192.922837 154.953544 
L 194.554267 155.818105 
L 196.185697 155.425123 
L 197.817127 154.874947 
L 199.448556 155.03214 
L 201.079986 154.324772 
L 202.711416 156.289684 
L 204.342846 155.660912 
L 205.974276 157.075649 
L 207.605706 156.997053 
L 209.237136 155.818105 
L 210.868566 156.053895 
L 212.499995 156.525474 
L 214.131425 157.861614 
L 215.762855 157.861614 
L 217.394285 157.232842 
L 219.025715 157.232842 
L 220.657145 157.704421 
L 222.288575 157.154246 
L 223.920005 155.739509 
L 225.551434 155.189333 
L 227.182864 155.975298 
L 228.814294 155.110737 
L 230.445724 153.617404 
L 232.077154 153.774596 
L 233.708584 150.630737 
L 235.340014 151.259509 
L 236.971444 151.731088 
L 238.602873 151.416702 
L 240.234303 152.595649 
L 241.865733 151.966877 
L 243.497163 152.045474 
L 245.128593 152.35986 
L 246.760023 150.080561 
L 248.391453 149.923368 
L 250.022883 151.102316 
L 251.654312 153.145825 
L 253.285742 154.403368 
L 254.917172 154.246175 
L 256.548602 155.346526 
L 258.180032 154.481965 
L 259.811462 152.438456 
L 261.442892 152.045474 
L 264.705751 152.752842 
L 266.337181 152.831439 
L 267.968611 151.180912 
L 271.231471 151.416702 
L 272.862901 152.438456 
L 274.494331 153.696 
L 276.125761 155.818105 
L 277.75719 156.132491 
L 279.38862 155.582316 
L 281.02005 153.538807 
L 282.65148 151.259509 
L 284.28291 151.180912 
L 285.91434 150.866526 
L 287.54577 151.888281 
L 289.1772 150.630737 
L 290.80863 150.709333 
L 292.440059 148.115649 
L 294.071489 147.093895 
L 295.702919 147.251088 
L 297.334349 145.993544 
L 298.965779 147.958456 
L 300.597209 150.159158 
L 302.228639 149.058807 
L 303.860069 149.530386 
L 305.491498 148.115649 
L 307.122928 149.373193 
L 308.754358 149.766175 
L 310.385788 150.78793 
L 312.017218 150.394947 
L 313.648648 151.966877 
L 315.280078 152.35986 
L 316.911508 152.595649 
L 318.542937 153.145825 
L 320.174367 152.910035 
L 321.805797 151.809684 
L 323.437227 151.338105 
L 325.068657 151.180912 
L 326.700087 152.045474 
L 328.331517 149.844772 
L 329.962947 151.731088 
L 331.594376 151.338105 
L 333.225806 149.923368 
L 334.857236 148.115649 
L 336.488666 148.508632 
L 338.120096 147.87986 
L 339.751526 145.914947 
L 341.382956 144.421614 
L 343.014386 144.971789 
L 344.645815 143.635649 
L 346.277245 145.128982 
L 347.908675 145.993544 
L 349.540105 147.64407 
L 351.171535 148.272842 
L 352.802965 149.137404 
L 354.434395 147.172491 
L 356.065825 147.015298 
L 357.697254 147.172491 
L 359.328684 144.893193 
L 360.960114 144.578807 
L 362.591544 145.836351 
L 364.222974 146.30793 
L 365.854404 146.386526 
L 369.117264 144.657404 
L 370.748693 144.343018 
L 372.380123 144.971789 
L 374.011553 144.264421 
L 375.642983 144.578807 
L 377.274413 145.207579 
L 378.905843 145.128982 
L 380.537273 145.836351 
L 380.537273 145.836351 
" clip-path="url(#paf1e12b31e)" style="fill: none; stroke: #d62728; stroke-width: 1.5; stroke-linecap: square"/>
   </g>
   <g id="patch_3">
    <path d="M 39.65 273.312 
L 39.65 7.2 
" style="fill: none; stroke: #000000; stroke-width: 0.8; stroke-linejoin: miter; stroke-linecap: square"/>
   </g>
   <g id="patch_4">
    <path d="M 396.77 273.312 
L 396.77 7.2 
" style="fill: none; stroke: #000000; stroke-width: 0.8; stroke-linejoin: miter; stroke-linecap: square"/>
   </g>
   <g id="patch_5">
    <path d="M 39.65 273.312 
L 396.77 273.312 
" style="fill: none; stroke: #000000; stroke-width: 0.8; stroke-linejoin: miter; stroke-linecap: square"/>
   </g>
   <g id="patch_6">
    <path d="M 39.65 7.2 
L 396.77 7.2 
" style="fill: none; stroke: #000000; stroke-width: 0.8; stroke-linejoin: miter; stroke-linecap: square"/>
   </g>
  </g>
 </g>
 <defs>
  <clipPath id="paf1e12b31e">
   <rect x="39.65" y="7.2" width="357.12" height="266.112"/>
  </clipPath>
 </defs>
</svg>
