<?xml version="1.0" encoding="utf-8" standalone="no"?>
<!DOCTYPE svg PUBLIC "-//W3C//DTD SVG 1.1//EN"
  "http://www.w3.org/Graphics/SVG/1.1/DTD/svg11.dtd">
<svg xmlns:xlink="http://www.w3.org/1999/xlink" width="403.97pt" height="297.190125pt" viewBox="0 0 403.97 297.190125" xmlns="http://www.w3.org/2000/svg" version="1.1">
 <metadata>
  <rdf:RDF xmlns:dc="http://purl.org/dc/elements/1.1/" xmlns:cc="http://creativecommons.org/ns#" xmlns:rdf="http://www.w3.org/1999/02/22-rdf-syntax-ns#">
   <cc:Work>
    <dc:type rdf:resource="http://purl.org/dc/dcmitype/StillImage"/>
    <dc:date>2025-06-25T23:19:41.355753</dc:date>
    <dc:format>image/svg+xml</dc:format>
    <dc:creator>
     <cc:Agent>
      <dc:title>Matplotlib v3.10.3, https://matplotlib.org/</dc:title>
     </cc:Agent>
    </dc:creator>
   </cc:Work>
  </rdf:RDF>
 </metadata>
 <defs>
  <style type="text/css">*{stroke-linejoin: round; stroke-linecap: butt}</style>
 </defs>
 <g id="figure_1">
  <g id="patch_1">
   <path d="M 0 297.190125 
L 403.97 297.190125 
L 403.97 0 
L 0 0 
z
" style="fill: #ffffff"/>
  </g>
  <g id="axes_1">
   <g id="patch_2">
    <path d="M 39.65 273.312 
L 396.77 273.312 
L 396.77 7.2 
L 39.65 7.2 
z
" style="fill: #ffffff"/>
   </g>
   <g id="matplotlib.axis_1">
    <g id="xtick_1">
     <g id="line2d_1">
      <defs>
       <path id="m7b95507918" d="M 0 0 
L 0 3.5 
" style="stroke: #000000; stroke-width: 0.8"/>
      </defs>
      <g>
       <use xlink:href="#m7b95507918" x="55.882727" y="273.312" style="stroke: #000000; stroke-width: 0.8"/>
      </g>
     </g>
     <g id="text_1">
      <!-- 0.0 -->
      <g transform="translate(47.931165 287.910437) scale(0.1 -0.1)">
       <defs>
        <path id="DejaVuSans-30" d="M 2034 4250 
Q 1547 4250 1301 3770 
Q 1056 3291 1056 2328 
Q 1056 1369 1301 889 
Q 1547 409 2034 409 
Q 2525 409 2770 889 
Q 3016 1369 3016 2328 
Q 3016 3291 2770 3770 
Q 2525 4250 2034 4250 
z
M 2034 4750 
Q 2819 4750 3233 4129 
Q 3647 3509 3647 2328 
Q 3647 1150 3233 529 
Q 2819 -91 2034 -91 
Q 1250 -91 836 529 
Q 422 1150 422 2328 
Q 422 3509 836 4129 
Q 1250 4750 2034 4750 
z
" transform="scale(0.015625)"/>
        <path id="DejaVuSans-2e" d="M 684 794 
L 1344 794 
L 1344 0 
L 684 0 
L 684 794 
z
" transform="scale(0.015625)"/>
       </defs>
       <use xlink:href="#DejaVuSans-30"/>
       <use xlink:href="#DejaVuSans-2e" transform="translate(63.623047 0)"/>
       <use xlink:href="#DejaVuSans-30" transform="translate(95.410156 0)"/>
      </g>
     </g>
    </g>
    <g id="xtick_2">
     <g id="line2d_2">
      <g>
       <use xlink:href="#m7b95507918" x="96.668474" y="273.312" style="stroke: #000000; stroke-width: 0.8"/>
      </g>
     </g>
     <g id="text_2">
      <!-- 2.5 -->
      <g transform="translate(88.716912 287.910437) scale(0.1 -0.1)">
       <defs>
        <path id="DejaVuSans-32" d="M 1228 531 
L 3431 531 
L 3431 0 
L 469 0 
L 469 531 
Q 828 903 1448 1529 
Q 2069 2156 2228 2338 
Q 2531 2678 2651 2914 
Q 2772 3150 2772 3378 
Q 2772 3750 2511 3984 
Q 2250 4219 1831 4219 
Q 1534 4219 1204 4116 
Q 875 4013 500 3803 
L 500 4441 
Q 881 4594 1212 4672 
Q 1544 4750 1819 4750 
Q 2544 4750 2975 4387 
Q 3406 4025 3406 3419 
Q 3406 3131 3298 2873 
Q 3191 2616 2906 2266 
Q 2828 2175 2409 1742 
Q 1991 1309 1228 531 
z
" transform="scale(0.015625)"/>
        <path id="DejaVuSans-35" d="M 691 4666 
L 3169 4666 
L 3169 4134 
L 1269 4134 
L 1269 2991 
Q 1406 3038 1543 3061 
Q 1681 3084 1819 3084 
Q 2600 3084 3056 2656 
Q 3513 2228 3513 1497 
Q 3513 744 3044 326 
Q 2575 -91 1722 -91 
Q 1428 -91 1123 -41 
Q 819 9 494 109 
L 494 744 
Q 775 591 1075 516 
Q 1375 441 1709 441 
Q 2250 441 2565 725 
Q 2881 1009 2881 1497 
Q 2881 1984 2565 2268 
Q 2250 2553 1709 2553 
Q 1456 2553 1204 2497 
Q 953 2441 691 2322 
L 691 4666 
z
" transform="scale(0.015625)"/>
       </defs>
       <use xlink:href="#DejaVuSans-32"/>
       <use xlink:href="#DejaVuSans-2e" transform="translate(63.623047 0)"/>
       <use xlink:href="#DejaVuSans-35" transform="translate(95.410156 0)"/>
      </g>
     </g>
    </g>
    <g id="xtick_3">
     <g id="line2d_3">
      <g>
       <use xlink:href="#m7b95507918" x="137.454221" y="273.312" style="stroke: #000000; stroke-width: 0.8"/>
      </g>
     </g>
     <g id="text_3">
      <!-- 5.0 -->
      <g transform="translate(129.502659 287.910437) scale(0.1 -0.1)">
       <use xlink:href="#DejaVuSans-35"/>
       <use xlink:href="#DejaVuSans-2e" transform="translate(63.623047 0)"/>
       <use xlink:href="#DejaVuSans-30" transform="translate(95.410156 0)"/>
      </g>
     </g>
    </g>
    <g id="xtick_4">
     <g id="line2d_4">
      <g>
       <use xlink:href="#m7b95507918" x="178.239968" y="273.312" style="stroke: #000000; stroke-width: 0.8"/>
      </g>
     </g>
     <g id="text_4">
      <!-- 7.5 -->
      <g transform="translate(170.288406 287.910437) scale(0.1 -0.1)">
       <defs>
        <path id="DejaVuSans-37" d="M 525 4666 
L 3525 4666 
L 3525 4397 
L 1831 0 
L 1172 0 
L 2766 4134 
L 525 4134 
L 525 4666 
z
" transform="scale(0.015625)"/>
       </defs>
       <use xlink:href="#DejaVuSans-37"/>
       <use xlink:href="#DejaVuSans-2e" transform="translate(63.623047 0)"/>
       <use xlink:href="#DejaVuSans-35" transform="translate(95.410156 0)"/>
      </g>
     </g>
    </g>
    <g id="xtick_5">
     <g id="line2d_5">
      <g>
       <use xlink:href="#m7b95507918" x="219.025715" y="273.312" style="stroke: #000000; stroke-width: 0.8"/>
      </g>
     </g>
     <g id="text_5">
      <!-- 10.0 -->
      <g transform="translate(207.892902 287.910437) scale(0.1 -0.1)">
       <defs>
        <path id="DejaVuSans-31" d="M 794 531 
L 1825 531 
L 1825 4091 
L 703 3866 
L 703 4441 
L 1819 4666 
L 2450 4666 
L 2450 531 
L 3481 531 
L 3481 0 
L 794 0 
L 794 531 
z
" transform="scale(0.015625)"/>
       </defs>
       <use xlink:href="#DejaVuSans-31"/>
       <use xlink:href="#DejaVuSans-30" transform="translate(63.623047 0)"/>
       <use xlink:href="#DejaVuSans-2e" transform="translate(127.246094 0)"/>
       <use xlink:href="#DejaVuSans-30" transform="translate(159.033203 0)"/>
      </g>
     </g>
    </g>
    <g id="xtick_6">
     <g id="line2d_6">
      <g>
       <use xlink:href="#m7b95507918" x="259.811462" y="273.312" style="stroke: #000000; stroke-width: 0.8"/>
      </g>
     </g>
     <g id="text_6">
      <!-- 12.5 -->
      <g transform="translate(248.678649 287.910437) scale(0.1 -0.1)">
       <use xlink:href="#DejaVuSans-31"/>
       <use xlink:href="#DejaVuSans-32" transform="translate(63.623047 0)"/>
       <use xlink:href="#DejaVuSans-2e" transform="translate(127.246094 0)"/>
       <use xlink:href="#DejaVuSans-35" transform="translate(159.033203 0)"/>
      </g>
     </g>
    </g>
    <g id="xtick_7">
     <g id="line2d_7">
      <g>
       <use xlink:href="#m7b95507918" x="300.597209" y="273.312" style="stroke: #000000; stroke-width: 0.8"/>
      </g>
     </g>
     <g id="text_7">
      <!-- 15.0 -->
      <g transform="translate(289.464396 287.910437) scale(0.1 -0.1)">
       <use xlink:href="#DejaVuSans-31"/>
       <use xlink:href="#DejaVuSans-35" transform="translate(63.623047 0)"/>
       <use xlink:href="#DejaVuSans-2e" transform="translate(127.246094 0)"/>
       <use xlink:href="#DejaVuSans-30" transform="translate(159.033203 0)"/>
      </g>
     </g>
    </g>
    <g id="xtick_8">
     <g id="line2d_8">
      <g>
       <use xlink:href="#m7b95507918" x="341.382956" y="273.312" style="stroke: #000000; stroke-width: 0.8"/>
      </g>
     </g>
     <g id="text_8">
      <!-- 17.5 -->
      <g transform="translate(330.250143 287.910437) scale(0.1 -0.1)">
       <use xlink:href="#DejaVuSans-31"/>
       <use xlink:href="#DejaVuSans-37" transform="translate(63.623047 0)"/>
       <use xlink:href="#DejaVuSans-2e" transform="translate(127.246094 0)"/>
       <use xlink:href="#DejaVuSans-35" transform="translate(159.033203 0)"/>
      </g>
     </g>
    </g>
    <g id="xtick_9">
     <g id="line2d_9">
      <g>
       <use xlink:href="#m7b95507918" x="382.168703" y="273.312" style="stroke: #000000; stroke-width: 0.8"/>
      </g>
     </g>
     <g id="text_9">
      <!-- 20.0 -->
      <g transform="translate(371.03589 287.910437) scale(0.1 -0.1)">
       <use xlink:href="#DejaVuSans-32"/>
       <use xlink:href="#DejaVuSans-30" transform="translate(63.623047 0)"/>
       <use xlink:href="#DejaVuSans-2e" transform="translate(127.246094 0)"/>
       <use xlink:href="#DejaVuSans-30" transform="translate(159.033203 0)"/>
      </g>
     </g>
    </g>
   </g>
   <g id="matplotlib.axis_2">
    <g id="ytick_1">
     <g id="line2d_10">
      <defs>
       <path id="mc7fd796c82" d="M 0 0 
L -3.5 0 
" style="stroke: #000000; stroke-width: 0.8"/>
      </defs>
      <g>
       <use xlink:href="#mc7fd796c82" x="39.65" y="261.216" style="stroke: #000000; stroke-width: 0.8"/>
      </g>
     </g>
     <g id="text_10">
      <!-- 0 -->
      <g transform="translate(26.2875 265.015219) scale(0.1 -0.1)">
       <use xlink:href="#DejaVuSans-30"/>
      </g>
     </g>
    </g>
    <g id="ytick_2">
     <g id="line2d_11">
      <g>
       <use xlink:href="#mc7fd796c82" x="39.65" y="222.259478" style="stroke: #000000; stroke-width: 0.8"/>
      </g>
     </g>
     <g id="text_11">
      <!-- 500 -->
      <g transform="translate(13.5625 226.058697) scale(0.1 -0.1)">
       <use xlink:href="#DejaVuSans-35"/>
       <use xlink:href="#DejaVuSans-30" transform="translate(63.623047 0)"/>
       <use xlink:href="#DejaVuSans-30" transform="translate(127.246094 0)"/>
      </g>
     </g>
    </g>
    <g id="ytick_3">
     <g id="line2d_12">
      <g>
       <use xlink:href="#mc7fd796c82" x="39.65" y="183.302957" style="stroke: #000000; stroke-width: 0.8"/>
      </g>
     </g>
     <g id="text_12">
      <!-- 1000 -->
      <g transform="translate(7.2 187.102175) scale(0.1 -0.1)">
       <use xlink:href="#DejaVuSans-31"/>
       <use xlink:href="#DejaVuSans-30" transform="translate(63.623047 0)"/>
       <use xlink:href="#DejaVuSans-30" transform="translate(127.246094 0)"/>
       <use xlink:href="#DejaVuSans-30" transform="translate(190.869141 0)"/>
      </g>
     </g>
    </g>
    <g id="ytick_4">
     <g id="line2d_13">
      <g>
       <use xlink:href="#mc7fd796c82" x="39.65" y="144.346435" style="stroke: #000000; stroke-width: 0.8"/>
      </g>
     </g>
     <g id="text_13">
      <!-- 1500 -->
      <g transform="translate(7.2 148.145654) scale(0.1 -0.1)">
       <use xlink:href="#DejaVuSans-31"/>
       <use xlink:href="#DejaVuSans-35" transform="translate(63.623047 0)"/>
       <use xlink:href="#DejaVuSans-30" transform="translate(127.246094 0)"/>
       <use xlink:href="#DejaVuSans-30" transform="translate(190.869141 0)"/>
      </g>
     </g>
    </g>
    <g id="ytick_5">
     <g id="line2d_14">
      <g>
       <use xlink:href="#mc7fd796c82" x="39.65" y="105.389913" style="stroke: #000000; stroke-width: 0.8"/>
      </g>
     </g>
     <g id="text_14">
      <!-- 2000 -->
      <g transform="translate(7.2 109.189132) scale(0.1 -0.1)">
       <use xlink:href="#DejaVuSans-32"/>
       <use xlink:href="#DejaVuSans-30" transform="translate(63.623047 0)"/>
       <use xlink:href="#DejaVuSans-30" transform="translate(127.246094 0)"/>
       <use xlink:href="#DejaVuSans-30" transform="translate(190.869141 0)"/>
      </g>
     </g>
    </g>
    <g id="ytick_6">
     <g id="line2d_15">
      <g>
       <use xlink:href="#mc7fd796c82" x="39.65" y="66.433391" style="stroke: #000000; stroke-width: 0.8"/>
      </g>
     </g>
     <g id="text_15">
      <!-- 2500 -->
      <g transform="translate(7.2 70.23261) scale(0.1 -0.1)">
       <use xlink:href="#DejaVuSans-32"/>
       <use xlink:href="#DejaVuSans-35" transform="translate(63.623047 0)"/>
       <use xlink:href="#DejaVuSans-30" transform="translate(127.246094 0)"/>
       <use xlink:href="#DejaVuSans-30" transform="translate(190.869141 0)"/>
      </g>
     </g>
    </g>
    <g id="ytick_7">
     <g id="line2d_16">
      <g>
       <use xlink:href="#mc7fd796c82" x="39.65" y="27.47687" style="stroke: #000000; stroke-width: 0.8"/>
      </g>
     </g>
     <g id="text_16">
      <!-- 3000 -->
      <g transform="translate(7.2 31.276088) scale(0.1 -0.1)">
       <defs>
        <path id="DejaVuSans-33" d="M 2597 2516 
Q 3050 2419 3304 2112 
Q 3559 1806 3559 1356 
Q 3559 666 3084 287 
Q 2609 -91 1734 -91 
Q 1441 -91 1130 -33 
Q 819 25 488 141 
L 488 750 
Q 750 597 1062 519 
Q 1375 441 1716 441 
Q 2309 441 2620 675 
Q 2931 909 2931 1356 
Q 2931 1769 2642 2001 
Q 2353 2234 1838 2234 
L 1294 2234 
L 1294 2753 
L 1863 2753 
Q 2328 2753 2575 2939 
Q 2822 3125 2822 3475 
Q 2822 3834 2567 4026 
Q 2313 4219 1838 4219 
Q 1578 4219 1281 4162 
Q 984 4106 628 3988 
L 628 4550 
Q 988 4650 1302 4700 
Q 1616 4750 1894 4750 
Q 2613 4750 3031 4423 
Q 3450 4097 3450 3541 
Q 3450 3153 3228 2886 
Q 3006 2619 2597 2516 
z
" transform="scale(0.015625)"/>
       </defs>
       <use xlink:href="#DejaVuSans-33"/>
       <use xlink:href="#DejaVuSans-30" transform="translate(63.623047 0)"/>
       <use xlink:href="#DejaVuSans-30" transform="translate(127.246094 0)"/>
       <use xlink:href="#DejaVuSans-30" transform="translate(190.869141 0)"/>
      </g>
     </g>
    </g>
   </g>
   <g id="line2d_17">
    <path d="M 55.882727 261.216 
L 72.197026 183.302957 
L 88.511325 131.360928 
L 104.825624 96.732908 
L 121.139922 73.647562 
L 137.454221 58.257331 
L 153.76852 47.997177 
L 170.082819 41.157075 
L 186.397117 36.597006 
L 202.711416 33.556961 
L 219.025715 31.530264 
L 235.340014 30.179132 
L 251.654312 29.278378 
L 267.968611 28.677875 
L 284.28291 28.27754 
L 300.597209 28.01065 
L 316.911508 27.832723 
L 333.225806 27.714105 
L 349.540105 27.635027 
L 365.854404 27.582308 
" clip-path="url(#pb5e9295412)" style="fill: none; stroke: #1f77b4; stroke-width: 1.5; stroke-linecap: square"/>
   </g>
   <g id="line2d_18">
    <path d="M 55.882727 261.216 
L 72.197026 261.216 
L 88.511325 235.244986 
L 104.825624 209.273971 
L 121.139922 189.074293 
L 137.454221 174.645952 
L 153.76852 164.706428 
L 170.082819 157.973202 
L 186.397117 153.448759 
L 202.711416 150.420588 
L 219.025715 148.39785 
L 235.340014 147.048038 
L 251.654312 146.147723 
L 267.968611 145.547367 
L 284.28291 145.147081 
L 300.597209 144.880207 
L 316.911508 144.702286 
L 333.225806 144.58367 
L 349.540105 144.504592 
L 365.854404 144.451873 
" clip-path="url(#pb5e9295412)" style="fill: none; stroke: #ff7f0e; stroke-width: 1.5; stroke-linecap: square"/>
   </g>
   <g id="line2d_19">
    <path d="M 55.882727 261.216 
L 57.514157 253.736348 
L 59.145587 247.89287 
L 60.777017 239.400348 
L 62.408447 233.790609 
L 64.039877 226.077217 
L 65.671307 219.22087 
L 67.302736 213.766957 
L 68.934166 207.533913 
L 70.565596 202.313739 
L 72.197026 196.392348 
L 75.459886 186.107826 
L 77.091316 180.264348 
L 80.354175 171.382261 
L 85.248465 160.474435 
L 86.879895 157.124174 
L 88.511325 152.137739 
L 90.142755 147.930435 
L 91.774185 144.658087 
L 93.405614 139.983304 
L 96.668474 134.529391 
L 98.299904 128.530087 
L 99.931334 125.024 
L 101.562764 122.686609 
L 103.194194 118.557217 
L 104.825624 114.038261 
L 106.457053 110.610087 
L 108.088483 106.013217 
L 109.719913 102.585043 
L 111.351343 100.870957 
L 112.982773 96.663652 
L 114.614203 95.261217 
L 116.245633 93.469217 
L 117.877063 91.98887 
L 119.508492 87.392 
L 121.139922 87.392 
L 122.771352 85.6 
L 124.402782 84.119652 
L 126.034212 82.79513 
L 127.665642 82.016 
L 129.297072 79.133217 
L 130.928502 76.717913 
L 132.559931 73.289739 
L 135.822791 72.27687 
L 137.454221 71.264 
L 139.085651 69.549913 
L 140.717081 68.303304 
L 142.348511 66.66713 
L 143.979941 64.485565 
L 145.61137 64.87513 
L 147.2428 64.797217 
L 148.87423 64.485565 
L 150.50566 62.693565 
L 152.13709 59.654957 
L 153.76852 58.252522 
L 155.39995 56.616348 
L 157.03138 55.525565 
L 158.66281 55.291826 
L 160.294239 52.019478 
L 161.925669 51.707826 
L 163.557099 49.915826 
L 165.188529 50.617043 
L 166.819959 48.669217 
L 168.451389 49.837913 
L 170.082819 47.968 
L 171.714249 46.487652 
L 173.345678 45.942261 
L 174.977108 44.773565 
L 176.608538 45.241043 
L 178.239968 44.851478 
L 179.871398 44.851478 
L 181.502828 43.293217 
L 183.134258 41.345391 
L 184.765688 40.410435 
L 186.397117 38.384696 
L 188.028547 37.449739 
L 191.291407 37.605565 
L 192.922837 36.592696 
L 194.554267 37.138087 
L 196.185697 35.813565 
L 197.817127 35.346087 
L 199.448556 35.579826 
L 201.079986 34.021565 
L 202.711416 33.086609 
L 204.342846 32.85287 
L 205.974276 31.84 
L 207.605706 32.61913 
L 209.237136 33.632 
L 210.868566 34.021565 
L 212.499995 32.774957 
L 214.131425 31.372522 
L 215.762855 31.372522 
L 217.394285 30.905043 
L 219.025715 33.164522 
L 220.657145 31.138783 
L 222.288575 31.294609 
L 223.920005 31.06087 
L 225.551434 29.190957 
L 228.814294 28.022261 
L 230.445724 29.346783 
L 232.077154 30.203826 
L 233.708584 32.151652 
L 235.340014 31.138783 
L 236.971444 31.917913 
L 238.602873 31.606261 
L 240.234303 31.606261 
L 241.865733 30.515478 
L 243.497163 29.03513 
L 246.760023 30.593391 
L 248.391453 29.970087 
L 250.022883 30.749217 
L 251.654312 30.048 
L 253.285742 28.489739 
L 254.917172 28.489739 
L 256.548602 28.645565 
L 259.811462 28.723478 
L 261.442892 29.892174 
L 263.074322 30.359652 
L 264.705751 27.866435 
L 266.337181 28.333913 
L 267.968611 26.775652 
L 269.600041 29.736348 
L 271.231471 27.24313 
L 272.862901 26.775652 
L 274.494331 28.178087 
L 276.125761 27.24313 
L 277.75719 24.827826 
L 279.38862 25.217391 
L 281.02005 23.89287 
L 282.65148 23.814957 
L 284.28291 22.88 
L 285.91434 22.490435 
L 287.54577 20.620522 
L 289.1772 19.296 
L 290.80863 21.321739 
L 294.071489 22.022957 
L 295.702919 23.035826 
L 297.334349 23.89287 
L 298.965779 24.516174 
L 302.228639 25.139478 
L 303.860069 24.516174 
L 305.491498 25.295304 
L 307.122928 24.594087 
L 310.385788 25.918609 
L 312.017218 25.918609 
L 313.648648 26.308174 
L 316.911508 27.866435 
L 318.542937 26.230261 
L 320.174367 25.918609 
L 321.805797 25.45113 
L 323.437227 25.529043 
L 325.068657 27.47687 
L 326.700087 26.775652 
L 328.331517 28.801391 
L 329.962947 27.321043 
L 331.594376 28.178087 
L 333.225806 27.398957 
L 334.857236 28.645565 
L 336.488666 27.165217 
L 338.120096 27.632696 
L 339.751526 27.710609 
L 341.382956 27.944348 
L 343.014386 29.970087 
L 344.645815 29.580522 
L 346.277245 28.801391 
L 347.908675 29.424696 
L 349.540105 30.515478 
L 352.802965 29.814261 
L 354.434395 31.762087 
L 356.065825 33.242435 
L 357.697254 33.787826 
L 359.328684 33.709913 
L 360.960114 36.514783 
L 362.591544 36.514783 
L 364.222974 36.982261 
L 365.854404 36.047304 
L 367.485834 35.268174 
L 369.117264 34.878609 
L 370.748693 35.891478 
L 372.380123 35.735652 
L 374.011553 35.735652 
L 375.642983 36.670609 
L 377.274413 37.293913 
L 378.905843 36.125217 
L 380.537273 35.268174 
L 380.537273 35.268174 
" clip-path="url(#pb5e9295412)" style="fill: none; stroke: #2ca02c; stroke-width: 1.5; stroke-linecap: square"/>
   </g>
   <g id="line2d_20">
    <path d="M 55.882727 261.216 
L 57.514157 261.216 
L 59.145587 260.670609 
L 60.777017 259.891478 
L 62.408447 258.41113 
L 64.039877 257.554087 
L 65.671307 256.85287 
L 68.934166 254.359652 
L 70.565596 252.333913 
L 72.197026 250.541913 
L 73.828456 249.918609 
L 75.459886 248.983652 
L 77.091316 247.503304 
L 78.722746 245.789217 
L 80.354175 243.763478 
L 81.985605 242.28313 
L 83.617035 240.257391 
L 85.248465 238.621217 
L 86.879895 235.972174 
L 88.511325 234.180174 
L 90.142755 231.842783 
L 91.774185 230.440348 
L 95.037044 226.934261 
L 96.668474 224.441043 
L 98.299904 223.973565 
L 99.931334 221.168696 
L 101.562764 219.376696 
L 103.194194 217.974261 
L 104.825624 216.727652 
L 106.457053 213.84487 
L 108.088483 212.286609 
L 109.719913 211.273739 
L 111.351343 209.403826 
L 112.982773 208.001391 
L 114.614203 205.586087 
L 117.877063 204.65113 
L 119.508492 203.482435 
L 121.139922 200.599652 
L 122.771352 199.50887 
L 124.402782 196.236522 
L 126.034212 194.13287 
L 127.665642 193.275826 
L 129.297072 192.574609 
L 130.928502 191.561739 
L 132.559931 190.081391 
L 134.191361 188.055652 
L 135.822791 185.640348 
L 137.454221 182.835478 
L 139.085651 182.991304 
L 142.348511 180.576 
L 143.979941 180.186435 
L 145.61137 177.615304 
L 148.87423 174.265043 
L 150.50566 174.732522 
L 153.76852 172.62887 
L 155.39995 172.940522 
L 157.03138 170.291478 
L 158.66281 168.265739 
L 160.294239 166.941217 
L 161.925669 165.772522 
L 163.557099 165.538783 
L 165.188529 164.136348 
L 166.819959 164.214261 
L 168.451389 162.967652 
L 171.714249 160.864 
L 173.345678 160.941913 
L 174.977108 161.409391 
L 176.608538 161.565217 
L 178.239968 160.552348 
L 179.871398 161.019826 
L 181.502828 161.331478 
L 183.134258 162.889739 
L 184.765688 163.123478 
L 186.397117 162.811826 
L 188.028547 161.409391 
L 189.659977 160.708174 
L 191.291407 159.305739 
L 192.922837 159.617391 
L 194.554267 156.890435 
L 196.185697 157.591652 
L 197.817127 156.656696 
L 199.448556 154.864696 
L 201.079986 155.488 
L 202.711416 156.578783 
L 204.342846 155.721739 
L 205.974276 156.890435 
L 207.605706 156.422957 
L 209.237136 154.553043 
L 210.868566 154.319304 
L 212.499995 155.799652 
L 214.131425 155.877565 
L 219.025715 153.384348 
L 220.657145 154.553043 
L 222.288575 152.91687 
L 223.920005 152.761043 
L 225.551434 153.228522 
L 228.814294 153.929739 
L 230.445724 153.696 
L 232.077154 152.91687 
L 233.708584 150.813217 
L 235.340014 150.423652 
L 236.971444 149.177043 
L 238.602873 148.32 
L 240.234303 149.644522 
L 243.497163 149.254957 
L 245.128593 148.164174 
L 246.760023 147.30713 
L 248.391453 147.54087 
L 250.022883 146.060522 
L 251.654312 146.216348 
L 253.285742 147.229217 
L 254.917172 144.969739 
L 256.548602 144.034783 
L 259.811462 144.268522 
L 261.442892 143.099826 
L 263.074322 142.866087 
L 264.705751 146.138435 
L 266.337181 144.813913 
L 267.968611 145.670957 
L 269.600041 142.242783 
L 271.231471 144.580174 
L 272.862901 145.904696 
L 274.494331 144.813913 
L 276.125761 145.047652 
L 277.75719 146.995478 
L 279.38862 146.138435 
L 281.02005 146.372174 
L 282.65148 146.839652 
L 284.28291 146.372174 
L 285.91434 146.450087 
L 287.54577 148.008348 
L 289.1772 147.930435 
L 290.80863 145.125565 
L 292.440059 142.944 
L 294.071489 142.788174 
L 295.702919 140.528696 
L 297.334349 140.37287 
L 298.965779 139.905391 
L 302.228639 141.93113 
L 303.860069 142.710261 
L 305.491498 140.996174 
L 307.122928 143.645217 
L 308.754358 142.476522 
L 310.385788 140.762435 
L 312.017218 141.152 
L 313.648648 140.217043 
L 315.280078 139.827478 
L 316.911508 137.957565 
L 318.542937 139.515826 
L 320.174367 139.126261 
L 321.805797 140.996174 
L 323.437227 141.463652 
L 325.068657 140.684522 
L 326.700087 142.086957 
L 328.331517 143.099826 
L 329.962947 144.658087 
L 331.594376 143.95687 
L 333.225806 144.658087 
L 334.857236 143.099826 
L 336.488666 143.567304 
L 338.120096 143.177739 
L 339.751526 143.72313 
L 341.382956 143.72313 
L 343.014386 142.398609 
L 344.645815 141.619478 
L 346.277245 142.632348 
L 347.908675 142.788174 
L 349.540105 141.541565 
L 351.171535 142.009043 
L 352.802965 142.242783 
L 354.434395 140.996174 
L 356.065825 138.814609 
L 357.697254 137.645913 
L 359.328684 140.528696 
L 362.591544 139.983304 
L 364.222974 140.061217 
L 365.854404 140.684522 
L 367.485834 141.619478 
L 370.748693 143.099826 
L 372.380123 143.099826 
L 374.011553 141.152 
L 375.642983 143.333565 
L 377.274413 143.801043 
L 380.537273 143.567304 
L 380.537273 143.567304 
" clip-path="url(#pb5e9295412)" style="fill: none; stroke: #d62728; stroke-width: 1.5; stroke-linecap: square"/>
   </g>
   <g id="patch_3">
    <path d="M 39.65 273.312 
L 39.65 7.2 
" style="fill: none; stroke: #000000; stroke-width: 0.8; stroke-linejoin: miter; stroke-linecap: square"/>
   </g>
   <g id="patch_4">
    <path d="M 396.77 273.312 
L 396.77 7.2 
" style="fill: none; stroke: #000000; stroke-width: 0.8; stroke-linejoin: miter; stroke-linecap: square"/>
   </g>
   <g id="patch_5">
    <path d="M 39.65 273.312 
L 396.77 273.312 
" style="fill: none; stroke: #000000; stroke-width: 0.8; stroke-linejoin: miter; stroke-linecap: square"/>
   </g>
   <g id="patch_6">
    <path d="M 39.65 7.2 
L 396.77 7.2 
" style="fill: none; stroke: #000000; stroke-width: 0.8; stroke-linejoin: miter; stroke-linecap: square"/>
   </g>
  </g>
 </g>
 <defs>
  <clipPath id="pb5e9295412">
   <rect x="39.65" y="7.2" width="357.12" height="266.112"/>
  </clipPath>
 </defs>
</svg>
