<?xml version="1.0" encoding="utf-8" standalone="no"?>
<!DOCTYPE svg PUBLIC "-//W3C//DTD SVG 1.1//EN"
  "http://www.w3.org/Graphics/SVG/1.1/DTD/svg11.dtd">
<svg xmlns:xlink="http://www.w3.org/1999/xlink" width="403.97pt" height="297.190125pt" viewBox="0 0 403.97 297.190125" xmlns="http://www.w3.org/2000/svg" version="1.1">
 <metadata>
  <rdf:RDF xmlns:dc="http://purl.org/dc/elements/1.1/" xmlns:cc="http://creativecommons.org/ns#" xmlns:rdf="http://www.w3.org/1999/02/22-rdf-syntax-ns#">
   <cc:Work>
    <dc:type rdf:resource="http://purl.org/dc/dcmitype/StillImage"/>
    <dc:date>2024-04-02T22:05:05.438802</dc:date>
    <dc:format>image/svg+xml</dc:format>
    <dc:creator>
     <cc:Agent>
      <dc:title>Matplotlib v3.8.3, https://matplotlib.org/</dc:title>
     </cc:Agent>
    </dc:creator>
   </cc:Work>
  </rdf:RDF>
 </metadata>
 <defs>
  <style type="text/css">*{stroke-linejoin: round; stroke-linecap: butt}</style>
 </defs>
 <g id="figure_1">
  <g id="patch_1">
   <path d="M 0 297.190125 
L 403.97 297.190125 
L 403.97 0 
L 0 0 
z
" style="fill: #ffffff"/>
  </g>
  <g id="axes_1">
   <g id="patch_2">
    <path d="M 39.65 273.312 
L 396.77 273.312 
L 396.77 7.2 
L 39.65 7.2 
z
" style="fill: #ffffff"/>
   </g>
   <g id="matplotlib.axis_1">
    <g id="xtick_1">
     <g id="line2d_1">
      <defs>
       <path id="m9f3562835e" d="M 0 0 
L 0 3.5 
" style="stroke: #000000; stroke-width: 0.8"/>
      </defs>
      <g>
       <use xlink:href="#m9f3562835e" x="55.882727" y="273.312" style="stroke: #000000; stroke-width: 0.8"/>
      </g>
     </g>
     <g id="text_1">
      <!-- 0.0 -->
      <g transform="translate(47.931165 287.910437) scale(0.1 -0.1)">
       <defs>
        <path id="DejaVuSans-30" d="M 2034 4250 
Q 1547 4250 1301 3770 
Q 1056 3291 1056 2328 
Q 1056 1369 1301 889 
Q 1547 409 2034 409 
Q 2525 409 2770 889 
Q 3016 1369 3016 2328 
Q 3016 3291 2770 3770 
Q 2525 4250 2034 4250 
z
M 2034 4750 
Q 2819 4750 3233 4129 
Q 3647 3509 3647 2328 
Q 3647 1150 3233 529 
Q 2819 -91 2034 -91 
Q 1250 -91 836 529 
Q 422 1150 422 2328 
Q 422 3509 836 4129 
Q 1250 4750 2034 4750 
z
" transform="scale(0.015625)"/>
        <path id="DejaVuSans-2e" d="M 684 794 
L 1344 794 
L 1344 0 
L 684 0 
L 684 794 
z
" transform="scale(0.015625)"/>
       </defs>
       <use xlink:href="#DejaVuSans-30"/>
       <use xlink:href="#DejaVuSans-2e" x="63.623047"/>
       <use xlink:href="#DejaVuSans-30" x="95.410156"/>
      </g>
     </g>
    </g>
    <g id="xtick_2">
     <g id="line2d_2">
      <g>
       <use xlink:href="#m9f3562835e" x="96.668474" y="273.312" style="stroke: #000000; stroke-width: 0.8"/>
      </g>
     </g>
     <g id="text_2">
      <!-- 2.5 -->
      <g transform="translate(88.716912 287.910437) scale(0.1 -0.1)">
       <defs>
        <path id="DejaVuSans-32" d="M 1228 531 
L 3431 531 
L 3431 0 
L 469 0 
L 469 531 
Q 828 903 1448 1529 
Q 2069 2156 2228 2338 
Q 2531 2678 2651 2914 
Q 2772 3150 2772 3378 
Q 2772 3750 2511 3984 
Q 2250 4219 1831 4219 
Q 1534 4219 1204 4116 
Q 875 4013 500 3803 
L 500 4441 
Q 881 4594 1212 4672 
Q 1544 4750 1819 4750 
Q 2544 4750 2975 4387 
Q 3406 4025 3406 3419 
Q 3406 3131 3298 2873 
Q 3191 2616 2906 2266 
Q 2828 2175 2409 1742 
Q 1991 1309 1228 531 
z
" transform="scale(0.015625)"/>
        <path id="DejaVuSans-35" d="M 691 4666 
L 3169 4666 
L 3169 4134 
L 1269 4134 
L 1269 2991 
Q 1406 3038 1543 3061 
Q 1681 3084 1819 3084 
Q 2600 3084 3056 2656 
Q 3513 2228 3513 1497 
Q 3513 744 3044 326 
Q 2575 -91 1722 -91 
Q 1428 -91 1123 -41 
Q 819 9 494 109 
L 494 744 
Q 775 591 1075 516 
Q 1375 441 1709 441 
Q 2250 441 2565 725 
Q 2881 1009 2881 1497 
Q 2881 1984 2565 2268 
Q 2250 2553 1709 2553 
Q 1456 2553 1204 2497 
Q 953 2441 691 2322 
L 691 4666 
z
" transform="scale(0.015625)"/>
       </defs>
       <use xlink:href="#DejaVuSans-32"/>
       <use xlink:href="#DejaVuSans-2e" x="63.623047"/>
       <use xlink:href="#DejaVuSans-35" x="95.410156"/>
      </g>
     </g>
    </g>
    <g id="xtick_3">
     <g id="line2d_3">
      <g>
       <use xlink:href="#m9f3562835e" x="137.454221" y="273.312" style="stroke: #000000; stroke-width: 0.8"/>
      </g>
     </g>
     <g id="text_3">
      <!-- 5.0 -->
      <g transform="translate(129.502659 287.910437) scale(0.1 -0.1)">
       <use xlink:href="#DejaVuSans-35"/>
       <use xlink:href="#DejaVuSans-2e" x="63.623047"/>
       <use xlink:href="#DejaVuSans-30" x="95.410156"/>
      </g>
     </g>
    </g>
    <g id="xtick_4">
     <g id="line2d_4">
      <g>
       <use xlink:href="#m9f3562835e" x="178.239968" y="273.312" style="stroke: #000000; stroke-width: 0.8"/>
      </g>
     </g>
     <g id="text_4">
      <!-- 7.5 -->
      <g transform="translate(170.288406 287.910437) scale(0.1 -0.1)">
       <defs>
        <path id="DejaVuSans-37" d="M 525 4666 
L 3525 4666 
L 3525 4397 
L 1831 0 
L 1172 0 
L 2766 4134 
L 525 4134 
L 525 4666 
z
" transform="scale(0.015625)"/>
       </defs>
       <use xlink:href="#DejaVuSans-37"/>
       <use xlink:href="#DejaVuSans-2e" x="63.623047"/>
       <use xlink:href="#DejaVuSans-35" x="95.410156"/>
      </g>
     </g>
    </g>
    <g id="xtick_5">
     <g id="line2d_5">
      <g>
       <use xlink:href="#m9f3562835e" x="219.025715" y="273.312" style="stroke: #000000; stroke-width: 0.8"/>
      </g>
     </g>
     <g id="text_5">
      <!-- 10.0 -->
      <g transform="translate(207.892902 287.910437) scale(0.1 -0.1)">
       <defs>
        <path id="DejaVuSans-31" d="M 794 531 
L 1825 531 
L 1825 4091 
L 703 3866 
L 703 4441 
L 1819 4666 
L 2450 4666 
L 2450 531 
L 3481 531 
L 3481 0 
L 794 0 
L 794 531 
z
" transform="scale(0.015625)"/>
       </defs>
       <use xlink:href="#DejaVuSans-31"/>
       <use xlink:href="#DejaVuSans-30" x="63.623047"/>
       <use xlink:href="#DejaVuSans-2e" x="127.246094"/>
       <use xlink:href="#DejaVuSans-30" x="159.033203"/>
      </g>
     </g>
    </g>
    <g id="xtick_6">
     <g id="line2d_6">
      <g>
       <use xlink:href="#m9f3562835e" x="259.811462" y="273.312" style="stroke: #000000; stroke-width: 0.8"/>
      </g>
     </g>
     <g id="text_6">
      <!-- 12.5 -->
      <g transform="translate(248.678649 287.910437) scale(0.1 -0.1)">
       <use xlink:href="#DejaVuSans-31"/>
       <use xlink:href="#DejaVuSans-32" x="63.623047"/>
       <use xlink:href="#DejaVuSans-2e" x="127.246094"/>
       <use xlink:href="#DejaVuSans-35" x="159.033203"/>
      </g>
     </g>
    </g>
    <g id="xtick_7">
     <g id="line2d_7">
      <g>
       <use xlink:href="#m9f3562835e" x="300.597209" y="273.312" style="stroke: #000000; stroke-width: 0.8"/>
      </g>
     </g>
     <g id="text_7">
      <!-- 15.0 -->
      <g transform="translate(289.464396 287.910437) scale(0.1 -0.1)">
       <use xlink:href="#DejaVuSans-31"/>
       <use xlink:href="#DejaVuSans-35" x="63.623047"/>
       <use xlink:href="#DejaVuSans-2e" x="127.246094"/>
       <use xlink:href="#DejaVuSans-30" x="159.033203"/>
      </g>
     </g>
    </g>
    <g id="xtick_8">
     <g id="line2d_8">
      <g>
       <use xlink:href="#m9f3562835e" x="341.382956" y="273.312" style="stroke: #000000; stroke-width: 0.8"/>
      </g>
     </g>
     <g id="text_8">
      <!-- 17.5 -->
      <g transform="translate(330.250143 287.910437) scale(0.1 -0.1)">
       <use xlink:href="#DejaVuSans-31"/>
       <use xlink:href="#DejaVuSans-37" x="63.623047"/>
       <use xlink:href="#DejaVuSans-2e" x="127.246094"/>
       <use xlink:href="#DejaVuSans-35" x="159.033203"/>
      </g>
     </g>
    </g>
    <g id="xtick_9">
     <g id="line2d_9">
      <g>
       <use xlink:href="#m9f3562835e" x="382.168703" y="273.312" style="stroke: #000000; stroke-width: 0.8"/>
      </g>
     </g>
     <g id="text_9">
      <!-- 20.0 -->
      <g transform="translate(371.03589 287.910437) scale(0.1 -0.1)">
       <use xlink:href="#DejaVuSans-32"/>
       <use xlink:href="#DejaVuSans-30" x="63.623047"/>
       <use xlink:href="#DejaVuSans-2e" x="127.246094"/>
       <use xlink:href="#DejaVuSans-30" x="159.033203"/>
      </g>
     </g>
    </g>
   </g>
   <g id="matplotlib.axis_2">
    <g id="ytick_1">
     <g id="line2d_10">
      <defs>
       <path id="m58da46b22a" d="M 0 0 
L -3.5 0 
" style="stroke: #000000; stroke-width: 0.8"/>
      </defs>
      <g>
       <use xlink:href="#m58da46b22a" x="39.65" y="261.216" style="stroke: #000000; stroke-width: 0.8"/>
      </g>
     </g>
     <g id="text_10">
      <!-- 0 -->
      <g transform="translate(26.2875 265.015219) scale(0.1 -0.1)">
       <use xlink:href="#DejaVuSans-30"/>
      </g>
     </g>
    </g>
    <g id="ytick_2">
     <g id="line2d_11">
      <g>
       <use xlink:href="#m58da46b22a" x="39.65" y="222.455389" style="stroke: #000000; stroke-width: 0.8"/>
      </g>
     </g>
     <g id="text_11">
      <!-- 500 -->
      <g transform="translate(13.5625 226.254608) scale(0.1 -0.1)">
       <use xlink:href="#DejaVuSans-35"/>
       <use xlink:href="#DejaVuSans-30" x="63.623047"/>
       <use xlink:href="#DejaVuSans-30" x="127.246094"/>
      </g>
     </g>
    </g>
    <g id="ytick_3">
     <g id="line2d_12">
      <g>
       <use xlink:href="#m58da46b22a" x="39.65" y="183.694778" style="stroke: #000000; stroke-width: 0.8"/>
      </g>
     </g>
     <g id="text_12">
      <!-- 1000 -->
      <g transform="translate(7.2 187.493997) scale(0.1 -0.1)">
       <use xlink:href="#DejaVuSans-31"/>
       <use xlink:href="#DejaVuSans-30" x="63.623047"/>
       <use xlink:href="#DejaVuSans-30" x="127.246094"/>
       <use xlink:href="#DejaVuSans-30" x="190.869141"/>
      </g>
     </g>
    </g>
    <g id="ytick_4">
     <g id="line2d_13">
      <g>
       <use xlink:href="#m58da46b22a" x="39.65" y="144.934168" style="stroke: #000000; stroke-width: 0.8"/>
      </g>
     </g>
     <g id="text_13">
      <!-- 1500 -->
      <g transform="translate(7.2 148.733386) scale(0.1 -0.1)">
       <use xlink:href="#DejaVuSans-31"/>
       <use xlink:href="#DejaVuSans-35" x="63.623047"/>
       <use xlink:href="#DejaVuSans-30" x="127.246094"/>
       <use xlink:href="#DejaVuSans-30" x="190.869141"/>
      </g>
     </g>
    </g>
    <g id="ytick_5">
     <g id="line2d_14">
      <g>
       <use xlink:href="#m58da46b22a" x="39.65" y="106.173557" style="stroke: #000000; stroke-width: 0.8"/>
      </g>
     </g>
     <g id="text_14">
      <!-- 2000 -->
      <g transform="translate(7.2 109.972776) scale(0.1 -0.1)">
       <use xlink:href="#DejaVuSans-32"/>
       <use xlink:href="#DejaVuSans-30" x="63.623047"/>
       <use xlink:href="#DejaVuSans-30" x="127.246094"/>
       <use xlink:href="#DejaVuSans-30" x="190.869141"/>
      </g>
     </g>
    </g>
    <g id="ytick_6">
     <g id="line2d_15">
      <g>
       <use xlink:href="#m58da46b22a" x="39.65" y="67.412946" style="stroke: #000000; stroke-width: 0.8"/>
      </g>
     </g>
     <g id="text_15">
      <!-- 2500 -->
      <g transform="translate(7.2 71.212165) scale(0.1 -0.1)">
       <use xlink:href="#DejaVuSans-32"/>
       <use xlink:href="#DejaVuSans-35" x="63.623047"/>
       <use xlink:href="#DejaVuSans-30" x="127.246094"/>
       <use xlink:href="#DejaVuSans-30" x="190.869141"/>
      </g>
     </g>
    </g>
    <g id="ytick_7">
     <g id="line2d_16">
      <g>
       <use xlink:href="#m58da46b22a" x="39.65" y="28.652335" style="stroke: #000000; stroke-width: 0.8"/>
      </g>
     </g>
     <g id="text_16">
      <!-- 3000 -->
      <g transform="translate(7.2 32.451554) scale(0.1 -0.1)">
       <defs>
        <path id="DejaVuSans-33" d="M 2597 2516 
Q 3050 2419 3304 2112 
Q 3559 1806 3559 1356 
Q 3559 666 3084 287 
Q 2609 -91 1734 -91 
Q 1441 -91 1130 -33 
Q 819 25 488 141 
L 488 750 
Q 750 597 1062 519 
Q 1375 441 1716 441 
Q 2309 441 2620 675 
Q 2931 909 2931 1356 
Q 2931 1769 2642 2001 
Q 2353 2234 1838 2234 
L 1294 2234 
L 1294 2753 
L 1863 2753 
Q 2328 2753 2575 2939 
Q 2822 3125 2822 3475 
Q 2822 3834 2567 4026 
Q 2313 4219 1838 4219 
Q 1578 4219 1281 4162 
Q 984 4106 628 3988 
L 628 4550 
Q 988 4650 1302 4700 
Q 1616 4750 1894 4750 
Q 2613 4750 3031 4423 
Q 3450 4097 3450 3541 
Q 3450 3153 3228 2886 
Q 3006 2619 2597 2516 
z
" transform="scale(0.015625)"/>
       </defs>
       <use xlink:href="#DejaVuSans-33"/>
       <use xlink:href="#DejaVuSans-30" x="63.623047"/>
       <use xlink:href="#DejaVuSans-30" x="127.246094"/>
       <use xlink:href="#DejaVuSans-30" x="190.869141"/>
      </g>
     </g>
    </g>
   </g>
   <g id="line2d_17">
    <path d="M 55.882727 261.216 
L 59.961302 241.835695 
L 64.039877 224.005814 
L 68.118451 207.602323 
L 72.197026 192.511112 
L 76.275601 178.627198 
L 80.354175 165.853996 
L 84.43275 154.102651 
L 88.511325 143.291414 
L 92.589899 133.345075 
L 96.668474 124.194444 
L 100.747049 115.775863 
L 104.825624 108.030769 
L 108.904198 100.905282 
L 112.982773 94.349834 
L 117.061348 88.318822 
L 121.139922 82.770291 
L 125.218497 77.665642 
L 129.297072 72.969365 
L 133.375646 68.648791 
L 137.454221 64.673862 
L 141.532796 61.016928 
L 145.61137 57.652548 
L 149.689945 54.557319 
L 153.76852 51.709708 
L 157.847095 49.089906 
L 161.925669 46.679688 
L 166.004244 44.462288 
L 170.082819 42.422279 
L 174.161393 40.545471 
L 178.239968 38.818808 
L 182.318543 37.230278 
L 186.397117 35.768831 
L 190.475692 34.424299 
L 194.554267 33.187329 
L 198.632841 32.049318 
L 202.711416 31.002347 
L 206.789991 30.039134 
L 210.868566 29.152978 
L 214.94714 28.337714 
L 219.025715 27.587672 
L 223.10429 26.897632 
L 227.182864 26.262796 
L 231.261439 25.678747 
L 235.340014 25.141422 
L 239.418588 24.647083 
L 243.497163 24.192291 
L 247.575738 23.773882 
L 251.654312 23.388946 
L 255.732887 23.034805 
L 259.811462 22.708995 
L 263.890037 22.40925 
L 267.968611 22.133485 
L 272.047186 21.879781 
L 276.125761 21.646373 
L 280.204335 21.431638 
L 284.28291 21.234081 
L 288.361485 21.052329 
L 292.440059 20.885118 
L 296.518634 20.731283 
L 300.597209 20.589755 
L 304.675783 20.459549 
L 308.754358 20.33976 
L 312.832933 20.229554 
L 316.911508 20.128164 
L 320.990082 20.034885 
L 325.068657 19.949069 
L 329.147232 19.870118 
L 333.225806 19.797483 
L 337.304381 19.730659 
L 341.382956 19.669181 
L 345.46153 19.612621 
L 349.540105 19.560586 
L 353.61868 19.512714 
L 357.697254 19.468671 
L 361.775829 19.428152 
L 365.854404 19.390875 
L 369.932979 19.356579 
L 374.011553 19.325028 
L 378.090128 19.296 
" clip-path="url(#p23443508cb)" style="fill: none; stroke: #1f77b4; stroke-width: 1.5; stroke-linecap: square"/>
   </g>
   <g id="line2d_18">
    <path d="M 55.882727 261.216 
L 59.961302 261.216 
L 64.039877 259.665576 
L 68.118451 256.926751 
L 72.197026 253.296056 
L 76.275601 249.015377 
L 80.354175 244.281068 
L 84.43275 239.25162 
L 88.511325 234.054084 
L 92.589899 228.789472 
L 96.668474 223.53727 
L 100.747049 218.35923 
L 104.825624 213.302533 
L 108.904198 208.402432 
L 112.982773 203.684457 
L 117.061348 199.166256 
L 121.139922 194.859117 
L 125.218497 190.769242 
L 129.297072 186.898791 
L 133.375646 183.246752 
L 137.454221 179.809654 
L 141.532796 176.582157 
L 145.61137 173.557526 
L 149.689945 170.728026 
L 153.76852 168.085235 
L 157.847095 165.620304 
L 161.925669 163.324156 
L 166.004244 161.187649 
L 170.082819 159.201704 
L 174.161393 157.357401 
L 178.239968 155.646054 
L 182.318543 154.059265 
L 186.397117 152.588966 
L 190.475692 151.227442 
L 194.554267 149.96735 
L 198.632841 148.801724 
L 202.711416 147.723981 
L 206.789991 146.727913 
L 210.868566 145.807685 
L 214.94714 144.95782 
L 219.025715 144.173188 
L 223.10429 143.448993 
L 227.182864 142.780759 
L 231.261439 142.164312 
L 235.340014 141.595766 
L 239.418588 141.071506 
L 243.497163 140.588172 
L 247.575738 140.142647 
L 251.654312 139.732037 
L 255.732887 139.353661 
L 259.811462 139.005035 
L 263.890037 138.683858 
L 267.968611 138.388001 
L 272.047186 138.115498 
L 276.125761 137.864528 
L 280.204335 137.633408 
L 284.28291 137.420587 
L 288.361485 137.22463 
L 292.440059 137.044211 
L 296.518634 136.87811 
L 300.597209 136.725199 
L 304.675783 136.584437 
L 308.754358 136.454866 
L 312.832933 136.335601 
L 316.911508 136.225826 
L 320.990082 136.124791 
L 325.068657 136.031803 
L 329.147232 135.946222 
L 333.225806 135.867463 
L 337.304381 135.794982 
L 341.382956 135.728281 
L 345.46153 135.6669 
L 349.540105 135.610417 
L 353.61868 135.558441 
L 357.697254 135.510613 
L 361.775829 135.466604 
L 365.854404 135.426108 
L 369.932979 135.388847 
L 374.011553 135.354561 
L 378.090128 135.323014 
" clip-path="url(#p23443508cb)" style="fill: none; stroke: #ff7f0e; stroke-width: 1.5; stroke-linecap: square"/>
   </g>
   <g id="line2d_19">
    <path d="M 55.882727 261.216 
L 57.514157 252.456102 
L 60.777017 238.734846 
L 62.408447 234.083572 
L 64.039877 226.564014 
L 67.302736 214.858309 
L 70.565596 204.005338 
L 73.828456 189.818955 
L 77.091316 178.810941 
L 78.722746 173.772062 
L 80.354175 168.268055 
L 81.985605 163.616782 
L 83.617035 161.136103 
L 85.248465 157.415084 
L 86.879895 153.383981 
L 88.511325 149.042792 
L 90.142755 145.244253 
L 91.774185 140.903064 
L 98.299904 126.716681 
L 99.931334 124.391044 
L 103.194194 117.80174 
L 104.825624 112.995424 
L 106.457053 110.514745 
L 108.088483 105.70843 
L 111.351343 100.126902 
L 112.982773 96.560925 
L 114.614203 94.777937 
L 116.245633 93.847683 
L 117.877063 93.460077 
L 119.508492 91.987173 
L 121.139922 88.963846 
L 122.771352 85.475391 
L 124.402782 84.545136 
L 126.034212 82.994712 
L 127.665642 81.59933 
L 129.297072 81.831893 
L 130.928502 80.436511 
L 132.559931 79.506257 
L 134.191361 78.886087 
L 135.822791 77.80079 
L 137.454221 76.327887 
L 140.717081 72.606868 
L 142.348511 71.44405 
L 143.979941 72.529347 
L 145.61137 69.893625 
L 147.2428 67.955595 
L 148.87423 66.40517 
L 150.50566 65.087309 
L 153.76852 60.591079 
L 155.39995 59.815866 
L 158.66281 61.521333 
L 160.294239 60.358515 
L 161.925669 58.187921 
L 163.557099 54.932029 
L 165.188529 54.001775 
L 166.819959 52.218787 
L 168.451389 51.055968 
L 170.082819 50.823405 
L 171.714249 52.683914 
L 173.345678 51.908702 
L 174.977108 51.366053 
L 176.608538 52.373829 
L 178.239968 51.986223 
L 179.871398 52.838956 
L 181.502828 51.521096 
L 183.134258 50.048192 
L 184.765688 48.807853 
L 186.397117 50.048192 
L 188.028547 50.668362 
L 189.659977 52.218787 
L 191.291407 51.288532 
L 192.922837 51.211011 
L 194.554267 51.443574 
L 196.185697 51.366053 
L 197.817127 50.125714 
L 199.448556 50.900926 
L 201.079986 49.195459 
L 202.711416 49.195459 
L 204.342846 48.962895 
L 205.974276 47.257428 
L 207.605706 46.404695 
L 209.237136 46.017089 
L 210.868566 44.699228 
L 212.499995 47.257428 
L 214.131425 46.09461 
L 215.762855 44.776749 
L 217.394285 44.079058 
L 219.025715 43.148804 
L 220.657145 43.071282 
L 222.288575 43.613931 
L 223.920005 42.528634 
L 225.551434 42.451113 
L 227.182864 43.071282 
L 228.814294 41.520858 
L 230.445724 43.303846 
L 232.077154 42.373592 
L 233.708584 40.513082 
L 235.340014 39.272743 
L 236.971444 39.1177 
L 238.602873 38.807615 
L 240.234303 40.590603 
L 241.865733 40.668125 
L 243.497163 41.520858 
L 245.128593 41.830943 
L 246.760023 40.668125 
L 248.391453 37.722318 
L 250.022883 37.412233 
L 251.654312 36.481979 
L 253.285742 36.792064 
L 254.917172 34.0013 
L 256.548602 34.466427 
L 259.811462 35.009075 
L 261.442892 34.156342 
L 263.074322 33.613693 
L 264.705751 34.621469 
L 266.337181 34.0013 
L 267.968611 31.133014 
L 269.600041 30.977972 
L 271.231471 32.373354 
L 272.862901 32.218311 
L 274.494331 31.598142 
L 276.125761 31.52062 
L 277.75719 30.900451 
L 279.38862 33.768736 
L 281.02005 35.009075 
L 282.65148 33.613693 
L 284.28291 34.621469 
L 285.91434 32.683439 
L 287.54577 34.233863 
L 289.1772 34.078821 
L 290.80863 32.993524 
L 292.440059 33.846257 
L 294.071489 32.295833 
L 295.702919 33.536172 
L 297.334349 33.923778 
L 298.965779 34.543948 
L 300.597209 34.931554 
L 302.228639 35.164118 
L 303.860069 35.164118 
L 305.491498 35.31916 
L 307.122928 36.094373 
L 308.754358 37.412233 
L 310.385788 37.799839 
L 312.017218 36.637021 
L 313.648648 36.171894 
L 315.280078 36.404457 
L 316.911508 37.489755 
L 318.542937 36.637021 
L 320.174367 37.257191 
L 321.805797 38.652573 
L 323.437227 38.962658 
L 325.068657 39.815391 
L 326.700087 39.970434 
L 328.331517 40.35804 
L 329.962947 40.590603 
L 331.594376 39.582828 
L 333.225806 39.427785 
L 334.857236 37.102148 
L 336.488666 38.187446 
L 338.120096 38.342488 
L 339.751526 37.722318 
L 341.382956 38.652573 
L 343.014386 38.342488 
L 344.645815 37.644797 
L 346.277245 35.861809 
L 347.908675 36.947106 
L 349.540105 36.792064 
L 351.171535 37.877361 
L 352.802965 37.877361 
L 354.434395 38.962658 
L 356.065825 38.807615 
L 357.697254 39.195221 
L 359.328684 38.885137 
L 364.222974 35.474203 
L 367.485834 36.171894 
L 369.117264 35.396682 
L 370.748693 32.605918 
L 372.380123 33.613693 
L 374.011553 34.078821 
L 375.642983 35.396682 
L 377.274413 35.474203 
L 378.905843 34.233863 
L 380.537273 34.311384 
L 380.537273 34.311384 
" clip-path="url(#p23443508cb)" style="fill: none; stroke: #2ca02c; stroke-width: 1.5; stroke-linecap: square"/>
   </g>
   <g id="line2d_20">
    <path d="M 55.882727 261.216 
L 57.514157 261.138479 
L 59.145587 260.59583 
L 60.777017 260.285745 
L 62.408447 258.812842 
L 64.039877 257.960109 
L 65.671307 256.79729 
L 67.302736 256.022078 
L 72.197026 251.138241 
L 73.828456 250.44055 
L 75.459886 249.200211 
L 77.091316 246.874574 
L 78.722746 244.781501 
L 80.354175 244.08381 
L 81.985605 242.223301 
L 83.617035 240.130228 
L 86.879895 236.719294 
L 88.511325 236.254167 
L 93.405614 230.517596 
L 96.668474 226.796578 
L 99.931334 222.067783 
L 103.194194 218.889413 
L 104.825624 218.346764 
L 106.457053 216.873861 
L 108.088483 216.17617 
L 109.719913 215.633522 
L 111.351343 213.850534 
L 112.982773 212.687715 
L 114.614203 209.664388 
L 116.245633 206.951145 
L 117.877063 204.547987 
L 119.508492 202.997563 
L 121.139922 202.764999 
L 124.402782 200.439362 
L 127.665642 196.020653 
L 129.297072 192.532198 
L 130.928502 190.594167 
L 134.191361 187.880924 
L 135.822791 185.400245 
L 137.454221 184.004863 
L 139.085651 183.307172 
L 140.717081 183.617257 
L 142.348511 184.159906 
L 143.979941 181.91179 
L 145.61137 181.291621 
L 147.2428 181.601705 
L 148.87423 180.904014 
L 150.50566 178.190772 
L 153.76852 178.345814 
L 155.39995 177.803166 
L 158.66281 173.384456 
L 160.294239 171.523947 
L 161.925669 169.896001 
L 163.557099 171.601468 
L 165.188529 172.144116 
L 166.819959 171.601468 
L 168.451389 169.043268 
L 170.082819 167.95797 
L 171.714249 166.097461 
L 173.345678 166.872673 
L 174.977108 166.174982 
L 176.608538 166.01994 
L 178.239968 165.012164 
L 179.871398 162.531485 
L 181.502828 161.368667 
L 183.134258 160.748497 
L 184.765688 160.903539 
L 186.397117 161.60123 
L 188.028547 160.826018 
L 189.659977 158.655424 
L 192.922837 158.345339 
L 194.554267 157.880212 
L 196.185697 157.80269 
L 197.817127 158.267818 
L 199.448556 156.019702 
L 201.079986 155.24449 
L 202.711416 156.407308 
L 204.342846 155.166969 
L 205.974276 155.166969 
L 207.605706 154.934405 
L 209.237136 154.391757 
L 210.868566 155.322011 
L 212.499995 152.531247 
L 214.131425 153.616544 
L 215.762855 153.616544 
L 217.394285 152.996375 
L 219.025715 152.841332 
L 220.657145 151.911078 
L 222.288575 151.833556 
L 225.551434 152.376205 
L 228.814294 152.918853 
L 230.445724 151.756035 
L 232.077154 151.44595 
L 233.708584 153.383981 
L 235.340014 152.221162 
L 236.971444 150.360653 
L 240.234303 150.283132 
L 241.865733 151.213387 
L 243.497163 149.352877 
L 245.128593 149.120314 
L 246.760023 150.205611 
L 248.391453 150.82578 
L 250.022883 149.973047 
L 251.654312 150.050568 
L 253.285742 149.120314 
L 254.917172 151.833556 
L 256.548602 150.050568 
L 258.180032 149.818005 
L 259.811462 148.500144 
L 261.442892 149.120314 
L 263.074322 151.756035 
L 264.705751 150.205611 
L 266.337181 151.213387 
L 267.968611 150.438174 
L 269.600041 149.50792 
L 271.231471 147.879974 
L 274.494331 148.112538 
L 276.125761 147.492368 
L 277.75719 148.345101 
L 279.38862 147.64741 
L 281.02005 145.321774 
L 282.65148 147.879974 
L 284.28291 146.949719 
L 287.54577 147.724932 
L 289.1772 147.027241 
L 290.80863 146.639635 
L 292.440059 145.554337 
L 294.071489 146.717156 
L 295.702919 145.70938 
L 297.334349 145.631859 
L 298.965779 146.949719 
L 300.597209 147.64741 
L 302.228639 147.879974 
L 305.491498 147.64741 
L 307.122928 146.096986 
L 308.754358 145.631859 
L 310.385788 146.407071 
L 313.648648 146.949719 
L 315.280078 146.32955 
L 316.911508 147.027241 
L 320.174367 145.08921 
L 321.805797 143.383743 
L 323.437227 144.081434 
L 325.068657 142.841095 
L 326.700087 140.980585 
L 328.331517 140.825543 
L 329.962947 140.825543 
L 331.594376 141.833319 
L 333.225806 144.081434 
L 334.857236 145.011689 
L 336.488666 143.461264 
L 338.120096 141.755798 
L 339.751526 142.763573 
L 344.645815 141.600755 
L 346.277245 145.011689 
L 347.908675 142.375967 
L 349.540105 142.298446 
L 351.171535 143.306222 
L 352.802965 143.848871 
L 354.434395 142.686052 
L 356.065825 142.763573 
L 357.697254 142.453489 
L 359.328684 143.383743 
L 360.960114 143.848871 
L 362.591544 145.941944 
L 364.222974 146.562113 
L 365.854404 146.252028 
L 367.485834 146.252028 
L 369.117264 146.949719 
L 370.748693 148.732707 
L 374.011553 146.484592 
L 375.642983 145.244253 
L 377.274413 144.934168 
L 378.905843 147.64741 
L 380.537273 147.957495 
L 380.537273 147.957495 
" clip-path="url(#p23443508cb)" style="fill: none; stroke: #d62728; stroke-width: 1.5; stroke-linecap: square"/>
   </g>
   <g id="patch_3">
    <path d="M 39.65 273.312 
L 39.65 7.2 
" style="fill: none; stroke: #000000; stroke-width: 0.8; stroke-linejoin: miter; stroke-linecap: square"/>
   </g>
   <g id="patch_4">
    <path d="M 396.77 273.312 
L 396.77 7.2 
" style="fill: none; stroke: #000000; stroke-width: 0.8; stroke-linejoin: miter; stroke-linecap: square"/>
   </g>
   <g id="patch_5">
    <path d="M 39.65 273.312 
L 396.77 273.312 
" style="fill: none; stroke: #000000; stroke-width: 0.8; stroke-linejoin: miter; stroke-linecap: square"/>
   </g>
   <g id="patch_6">
    <path d="M 39.65 7.2 
L 396.77 7.2 
" style="fill: none; stroke: #000000; stroke-width: 0.8; stroke-linejoin: miter; stroke-linecap: square"/>
   </g>
  </g>
 </g>
 <defs>
  <clipPath id="p23443508cb">
   <rect x="39.65" y="7.2" width="357.12" height="266.112"/>
  </clipPath>
 </defs>
</svg>
