<?xml version="1.0" encoding="utf-8" standalone="no"?>
<!DOCTYPE svg PUBLIC "-//W3C//DTD SVG 1.1//EN"
  "http://www.w3.org/Graphics/SVG/1.1/DTD/svg11.dtd">
<svg xmlns:xlink="http://www.w3.org/1999/xlink" width="397.6075pt" height="298.973344pt" viewBox="0 0 397.6075 298.973344" xmlns="http://www.w3.org/2000/svg" version="1.1">
 <metadata>
  <rdf:RDF xmlns:dc="http://purl.org/dc/elements/1.1/" xmlns:cc="http://creativecommons.org/ns#" xmlns:rdf="http://www.w3.org/1999/02/22-rdf-syntax-ns#">
   <cc:Work>
    <dc:type rdf:resource="http://purl.org/dc/dcmitype/StillImage"/>
    <dc:date>2024-04-02T21:56:47.727645</dc:date>
    <dc:format>image/svg+xml</dc:format>
    <dc:creator>
     <cc:Agent>
      <dc:title>Matplotlib v3.8.3, https://matplotlib.org/</dc:title>
     </cc:Agent>
    </dc:creator>
   </cc:Work>
  </rdf:RDF>
 </metadata>
 <defs>
  <style type="text/css">*{stroke-linejoin: round; stroke-linecap: butt}</style>
 </defs>
 <g id="figure_1">
  <g id="patch_1">
   <path d="M 0 298.973344 
L 397.6075 298.973344 
L 397.6075 0 
L 0 0 
z
" style="fill: #ffffff"/>
  </g>
  <g id="axes_1">
   <g id="patch_2">
    <path d="M 33.2875 275.095219 
L 390.4075 275.095219 
L 390.4075 8.983219 
L 33.2875 8.983219 
z
" style="fill: #ffffff"/>
   </g>
   <g id="matplotlib.axis_1">
    <g id="xtick_1">
     <g id="line2d_1">
      <defs>
       <path id="md42407fe46" d="M 0 0 
L 0 3.5 
" style="stroke: #000000; stroke-width: 0.8"/>
      </defs>
      <g>
       <use xlink:href="#md42407fe46" x="49.520227" y="275.095219" style="stroke: #000000; stroke-width: 0.8"/>
      </g>
     </g>
     <g id="text_1">
      <!-- 0.0 -->
      <g transform="translate(41.568665 289.693656) scale(0.1 -0.1)">
       <defs>
        <path id="DejaVuSans-30" d="M 2034 4250 
Q 1547 4250 1301 3770 
Q 1056 3291 1056 2328 
Q 1056 1369 1301 889 
Q 1547 409 2034 409 
Q 2525 409 2770 889 
Q 3016 1369 3016 2328 
Q 3016 3291 2770 3770 
Q 2525 4250 2034 4250 
z
M 2034 4750 
Q 2819 4750 3233 4129 
Q 3647 3509 3647 2328 
Q 3647 1150 3233 529 
Q 2819 -91 2034 -91 
Q 1250 -91 836 529 
Q 422 1150 422 2328 
Q 422 3509 836 4129 
Q 1250 4750 2034 4750 
z
" transform="scale(0.015625)"/>
        <path id="DejaVuSans-2e" d="M 684 794 
L 1344 794 
L 1344 0 
L 684 0 
L 684 794 
z
" transform="scale(0.015625)"/>
       </defs>
       <use xlink:href="#DejaVuSans-30"/>
       <use xlink:href="#DejaVuSans-2e" x="63.623047"/>
       <use xlink:href="#DejaVuSans-30" x="95.410156"/>
      </g>
     </g>
    </g>
    <g id="xtick_2">
     <g id="line2d_2">
      <g>
       <use xlink:href="#md42407fe46" x="90.305974" y="275.095219" style="stroke: #000000; stroke-width: 0.8"/>
      </g>
     </g>
     <g id="text_2">
      <!-- 2.5 -->
      <g transform="translate(82.354412 289.693656) scale(0.1 -0.1)">
       <defs>
        <path id="DejaVuSans-32" d="M 1228 531 
L 3431 531 
L 3431 0 
L 469 0 
L 469 531 
Q 828 903 1448 1529 
Q 2069 2156 2228 2338 
Q 2531 2678 2651 2914 
Q 2772 3150 2772 3378 
Q 2772 3750 2511 3984 
Q 2250 4219 1831 4219 
Q 1534 4219 1204 4116 
Q 875 4013 500 3803 
L 500 4441 
Q 881 4594 1212 4672 
Q 1544 4750 1819 4750 
Q 2544 4750 2975 4387 
Q 3406 4025 3406 3419 
Q 3406 3131 3298 2873 
Q 3191 2616 2906 2266 
Q 2828 2175 2409 1742 
Q 1991 1309 1228 531 
z
" transform="scale(0.015625)"/>
        <path id="DejaVuSans-35" d="M 691 4666 
L 3169 4666 
L 3169 4134 
L 1269 4134 
L 1269 2991 
Q 1406 3038 1543 3061 
Q 1681 3084 1819 3084 
Q 2600 3084 3056 2656 
Q 3513 2228 3513 1497 
Q 3513 744 3044 326 
Q 2575 -91 1722 -91 
Q 1428 -91 1123 -41 
Q 819 9 494 109 
L 494 744 
Q 775 591 1075 516 
Q 1375 441 1709 441 
Q 2250 441 2565 725 
Q 2881 1009 2881 1497 
Q 2881 1984 2565 2268 
Q 2250 2553 1709 2553 
Q 1456 2553 1204 2497 
Q 953 2441 691 2322 
L 691 4666 
z
" transform="scale(0.015625)"/>
       </defs>
       <use xlink:href="#DejaVuSans-32"/>
       <use xlink:href="#DejaVuSans-2e" x="63.623047"/>
       <use xlink:href="#DejaVuSans-35" x="95.410156"/>
      </g>
     </g>
    </g>
    <g id="xtick_3">
     <g id="line2d_3">
      <g>
       <use xlink:href="#md42407fe46" x="131.091721" y="275.095219" style="stroke: #000000; stroke-width: 0.8"/>
      </g>
     </g>
     <g id="text_3">
      <!-- 5.0 -->
      <g transform="translate(123.140159 289.693656) scale(0.1 -0.1)">
       <use xlink:href="#DejaVuSans-35"/>
       <use xlink:href="#DejaVuSans-2e" x="63.623047"/>
       <use xlink:href="#DejaVuSans-30" x="95.410156"/>
      </g>
     </g>
    </g>
    <g id="xtick_4">
     <g id="line2d_4">
      <g>
       <use xlink:href="#md42407fe46" x="171.877468" y="275.095219" style="stroke: #000000; stroke-width: 0.8"/>
      </g>
     </g>
     <g id="text_4">
      <!-- 7.5 -->
      <g transform="translate(163.925906 289.693656) scale(0.1 -0.1)">
       <defs>
        <path id="DejaVuSans-37" d="M 525 4666 
L 3525 4666 
L 3525 4397 
L 1831 0 
L 1172 0 
L 2766 4134 
L 525 4134 
L 525 4666 
z
" transform="scale(0.015625)"/>
       </defs>
       <use xlink:href="#DejaVuSans-37"/>
       <use xlink:href="#DejaVuSans-2e" x="63.623047"/>
       <use xlink:href="#DejaVuSans-35" x="95.410156"/>
      </g>
     </g>
    </g>
    <g id="xtick_5">
     <g id="line2d_5">
      <g>
       <use xlink:href="#md42407fe46" x="212.663215" y="275.095219" style="stroke: #000000; stroke-width: 0.8"/>
      </g>
     </g>
     <g id="text_5">
      <!-- 10.0 -->
      <g transform="translate(201.530402 289.693656) scale(0.1 -0.1)">
       <defs>
        <path id="DejaVuSans-31" d="M 794 531 
L 1825 531 
L 1825 4091 
L 703 3866 
L 703 4441 
L 1819 4666 
L 2450 4666 
L 2450 531 
L 3481 531 
L 3481 0 
L 794 0 
L 794 531 
z
" transform="scale(0.015625)"/>
       </defs>
       <use xlink:href="#DejaVuSans-31"/>
       <use xlink:href="#DejaVuSans-30" x="63.623047"/>
       <use xlink:href="#DejaVuSans-2e" x="127.246094"/>
       <use xlink:href="#DejaVuSans-30" x="159.033203"/>
      </g>
     </g>
    </g>
    <g id="xtick_6">
     <g id="line2d_6">
      <g>
       <use xlink:href="#md42407fe46" x="253.448962" y="275.095219" style="stroke: #000000; stroke-width: 0.8"/>
      </g>
     </g>
     <g id="text_6">
      <!-- 12.5 -->
      <g transform="translate(242.316149 289.693656) scale(0.1 -0.1)">
       <use xlink:href="#DejaVuSans-31"/>
       <use xlink:href="#DejaVuSans-32" x="63.623047"/>
       <use xlink:href="#DejaVuSans-2e" x="127.246094"/>
       <use xlink:href="#DejaVuSans-35" x="159.033203"/>
      </g>
     </g>
    </g>
    <g id="xtick_7">
     <g id="line2d_7">
      <g>
       <use xlink:href="#md42407fe46" x="294.234709" y="275.095219" style="stroke: #000000; stroke-width: 0.8"/>
      </g>
     </g>
     <g id="text_7">
      <!-- 15.0 -->
      <g transform="translate(283.101896 289.693656) scale(0.1 -0.1)">
       <use xlink:href="#DejaVuSans-31"/>
       <use xlink:href="#DejaVuSans-35" x="63.623047"/>
       <use xlink:href="#DejaVuSans-2e" x="127.246094"/>
       <use xlink:href="#DejaVuSans-30" x="159.033203"/>
      </g>
     </g>
    </g>
    <g id="xtick_8">
     <g id="line2d_8">
      <g>
       <use xlink:href="#md42407fe46" x="335.020456" y="275.095219" style="stroke: #000000; stroke-width: 0.8"/>
      </g>
     </g>
     <g id="text_8">
      <!-- 17.5 -->
      <g transform="translate(323.887643 289.693656) scale(0.1 -0.1)">
       <use xlink:href="#DejaVuSans-31"/>
       <use xlink:href="#DejaVuSans-37" x="63.623047"/>
       <use xlink:href="#DejaVuSans-2e" x="127.246094"/>
       <use xlink:href="#DejaVuSans-35" x="159.033203"/>
      </g>
     </g>
    </g>
    <g id="xtick_9">
     <g id="line2d_9">
      <g>
       <use xlink:href="#md42407fe46" x="375.806203" y="275.095219" style="stroke: #000000; stroke-width: 0.8"/>
      </g>
     </g>
     <g id="text_9">
      <!-- 20.0 -->
      <g transform="translate(364.67339 289.693656) scale(0.1 -0.1)">
       <use xlink:href="#DejaVuSans-32"/>
       <use xlink:href="#DejaVuSans-30" x="63.623047"/>
       <use xlink:href="#DejaVuSans-2e" x="127.246094"/>
       <use xlink:href="#DejaVuSans-30" x="159.033203"/>
      </g>
     </g>
    </g>
   </g>
   <g id="matplotlib.axis_2">
    <g id="ytick_1">
     <g id="line2d_10">
      <defs>
       <path id="md4a0e9c105" d="M 0 0 
L -3.5 0 
" style="stroke: #000000; stroke-width: 0.8"/>
      </defs>
      <g>
       <use xlink:href="#md4a0e9c105" x="33.2875" y="262.999219" style="stroke: #000000; stroke-width: 0.8"/>
      </g>
     </g>
     <g id="text_10">
      <!-- 0 -->
      <g transform="translate(19.925 266.798437) scale(0.1 -0.1)">
       <use xlink:href="#DejaVuSans-30"/>
      </g>
     </g>
    </g>
    <g id="ytick_2">
     <g id="line2d_11">
      <g>
       <use xlink:href="#md4a0e9c105" x="33.2875" y="220.999219" style="stroke: #000000; stroke-width: 0.8"/>
      </g>
     </g>
     <g id="text_11">
      <!-- 50 -->
      <g transform="translate(13.5625 224.798437) scale(0.1 -0.1)">
       <use xlink:href="#DejaVuSans-35"/>
       <use xlink:href="#DejaVuSans-30" x="63.623047"/>
      </g>
     </g>
    </g>
    <g id="ytick_3">
     <g id="line2d_12">
      <g>
       <use xlink:href="#md4a0e9c105" x="33.2875" y="178.999219" style="stroke: #000000; stroke-width: 0.8"/>
      </g>
     </g>
     <g id="text_12">
      <!-- 100 -->
      <g transform="translate(7.2 182.798437) scale(0.1 -0.1)">
       <use xlink:href="#DejaVuSans-31"/>
       <use xlink:href="#DejaVuSans-30" x="63.623047"/>
       <use xlink:href="#DejaVuSans-30" x="127.246094"/>
      </g>
     </g>
    </g>
    <g id="ytick_4">
     <g id="line2d_13">
      <g>
       <use xlink:href="#md4a0e9c105" x="33.2875" y="136.999219" style="stroke: #000000; stroke-width: 0.8"/>
      </g>
     </g>
     <g id="text_13">
      <!-- 150 -->
      <g transform="translate(7.2 140.798437) scale(0.1 -0.1)">
       <use xlink:href="#DejaVuSans-31"/>
       <use xlink:href="#DejaVuSans-35" x="63.623047"/>
       <use xlink:href="#DejaVuSans-30" x="127.246094"/>
      </g>
     </g>
    </g>
    <g id="ytick_5">
     <g id="line2d_14">
      <g>
       <use xlink:href="#md4a0e9c105" x="33.2875" y="94.999219" style="stroke: #000000; stroke-width: 0.8"/>
      </g>
     </g>
     <g id="text_14">
      <!-- 200 -->
      <g transform="translate(7.2 98.798437) scale(0.1 -0.1)">
       <use xlink:href="#DejaVuSans-32"/>
       <use xlink:href="#DejaVuSans-30" x="63.623047"/>
       <use xlink:href="#DejaVuSans-30" x="127.246094"/>
      </g>
     </g>
    </g>
    <g id="ytick_6">
     <g id="line2d_15">
      <g>
       <use xlink:href="#md4a0e9c105" x="33.2875" y="52.999219" style="stroke: #000000; stroke-width: 0.8"/>
      </g>
     </g>
     <g id="text_15">
      <!-- 250 -->
      <g transform="translate(7.2 56.798437) scale(0.1 -0.1)">
       <use xlink:href="#DejaVuSans-32"/>
       <use xlink:href="#DejaVuSans-35" x="63.623047"/>
       <use xlink:href="#DejaVuSans-30" x="127.246094"/>
      </g>
     </g>
    </g>
    <g id="ytick_7">
     <g id="line2d_16">
      <g>
       <use xlink:href="#md4a0e9c105" x="33.2875" y="10.999219" style="stroke: #000000; stroke-width: 0.8"/>
      </g>
     </g>
     <g id="text_16">
      <!-- 300 -->
      <g transform="translate(7.2 14.798437) scale(0.1 -0.1)">
       <defs>
        <path id="DejaVuSans-33" d="M 2597 2516 
Q 3050 2419 3304 2112 
Q 3559 1806 3559 1356 
Q 3559 666 3084 287 
Q 2609 -91 1734 -91 
Q 1441 -91 1130 -33 
Q 819 25 488 141 
L 488 750 
Q 750 597 1062 519 
Q 1375 441 1716 441 
Q 2309 441 2620 675 
Q 2931 909 2931 1356 
Q 2931 1769 2642 2001 
Q 2353 2234 1838 2234 
L 1294 2234 
L 1294 2753 
L 1863 2753 
Q 2328 2753 2575 2939 
Q 2822 3125 2822 3475 
Q 2822 3834 2567 4026 
Q 2313 4219 1838 4219 
Q 1578 4219 1281 4162 
Q 984 4106 628 3988 
L 628 4550 
Q 988 4650 1302 4700 
Q 1616 4750 1894 4750 
Q 2613 4750 3031 4423 
Q 3450 4097 3450 3541 
Q 3450 3153 3228 2886 
Q 3006 2619 2597 2516 
z
" transform="scale(0.015625)"/>
       </defs>
       <use xlink:href="#DejaVuSans-33"/>
       <use xlink:href="#DejaVuSans-30" x="63.623047"/>
       <use xlink:href="#DejaVuSans-30" x="127.246094"/>
      </g>
     </g>
    </g>
   </g>
   <g id="line2d_17">
    <path d="M 49.520227 262.999219 
L 51.151657 194.119219 
L 52.783087 154.639219 
L 54.414517 121.879219 
L 56.045947 99.199219 
L 57.677377 89.119219 
L 59.308807 72.319219 
L 60.940236 63.919219 
L 62.571666 61.399219 
L 64.203096 53.839219 
L 65.834526 55.519219 
L 67.465956 39.559219 
L 69.097386 47.119219 
L 70.728816 40.399219 
L 72.360246 42.919219 
L 73.991675 47.959219 
L 75.623105 54.679219 
L 77.254535 57.199219 
L 78.885965 49.639219 
L 80.517395 40.399219 
L 82.148825 34.519219 
L 83.780255 24.439219 
L 85.411685 38.719219 
L 87.043114 36.199219 
L 88.674544 40.399219 
L 90.305974 53.839219 
L 91.937404 51.319219 
L 96.831694 53.839219 
L 98.463124 47.119219 
L 100.094553 57.199219 
L 101.725983 60.559219 
L 103.357413 61.399219 
L 104.988843 69.799219 
L 106.620273 60.559219 
L 108.251703 63.919219 
L 109.883133 54.679219 
L 111.514563 46.279219 
L 113.145992 45.439219 
L 114.777422 54.679219 
L 116.408852 63.079219 
L 118.040282 62.239219 
L 119.671712 53.839219 
L 121.303142 52.999219 
L 122.934572 52.999219 
L 124.566002 47.959219 
L 126.197431 53.839219 
L 127.828861 45.439219 
L 129.460291 41.239219 
L 131.091721 48.799219 
L 132.723151 58.039219 
L 134.354581 53.839219 
L 135.986011 45.439219 
L 139.24887 62.239219 
L 140.8803 46.279219 
L 142.51173 53.839219 
L 144.14316 50.479219 
L 145.77459 48.799219 
L 147.40602 44.599219 
L 149.03745 47.959219 
L 150.66888 59.719219 
L 152.30031 68.959219 
L 153.931739 58.879219 
L 155.563169 42.919219 
L 157.194599 44.599219 
L 158.826029 48.799219 
L 160.457459 58.879219 
L 162.088889 57.199219 
L 163.720319 51.319219 
L 165.351749 51.319219 
L 166.983178 49.639219 
L 168.614608 52.999219 
L 170.246038 50.479219 
L 171.877468 50.479219 
L 173.508898 63.079219 
L 175.140328 59.719219 
L 176.771758 63.079219 
L 178.403188 56.359219 
L 180.034617 62.239219 
L 181.666047 55.519219 
L 184.928907 50.479219 
L 186.560337 51.319219 
L 188.191767 52.999219 
L 189.823197 58.039219 
L 191.454627 71.479219 
L 193.086056 59.719219 
L 194.717486 63.079219 
L 196.348916 63.919219 
L 197.980346 59.719219 
L 199.611776 61.399219 
L 201.243206 67.279219 
L 202.874636 57.199219 
L 204.506066 65.599219 
L 206.137495 58.039219 
L 207.768925 58.879219 
L 209.400355 69.799219 
L 211.031785 68.959219 
L 212.663215 55.519219 
L 214.294645 57.199219 
L 215.926075 58.039219 
L 217.557505 58.039219 
L 219.188934 43.759219 
L 220.820364 27.799219 
L 222.451794 45.439219 
L 224.083224 47.959219 
L 225.714654 47.119219 
L 227.346084 43.759219 
L 228.977514 47.959219 
L 230.608944 42.919219 
L 232.240373 58.879219 
L 233.871803 63.919219 
L 235.503233 65.599219 
L 237.134663 57.199219 
L 238.766093 50.479219 
L 242.028953 55.519219 
L 243.660383 49.639219 
L 245.291812 65.599219 
L 246.923242 48.799219 
L 248.554672 58.879219 
L 250.186102 51.319219 
L 251.817532 46.279219 
L 255.080392 56.359219 
L 256.711822 52.159219 
L 258.343251 60.559219 
L 259.974681 56.359219 
L 261.606111 52.999219 
L 263.237541 50.479219 
L 264.868971 54.679219 
L 266.500401 45.439219 
L 268.131831 49.639219 
L 269.763261 72.319219 
L 271.39469 79.039219 
L 273.02612 77.359219 
L 274.65755 71.479219 
L 276.28898 60.559219 
L 277.92041 60.559219 
L 279.55184 58.039219 
L 281.18327 67.279219 
L 282.8147 62.239219 
L 284.44613 68.119219 
L 286.077559 54.679219 
L 287.708989 42.919219 
L 289.340419 48.799219 
L 290.971849 42.079219 
L 292.603279 51.319219 
L 294.234709 51.319219 
L 295.866139 37.039219 
L 297.497569 37.879219 
L 299.128998 52.999219 
L 300.760428 49.639219 
L 302.391858 45.439219 
L 304.023288 47.959219 
L 305.654718 45.439219 
L 307.286148 57.199219 
L 308.917578 59.719219 
L 310.549008 56.359219 
L 312.180437 63.919219 
L 313.811867 59.719219 
L 315.443297 64.759219 
L 317.074727 52.999219 
L 318.706157 44.599219 
L 320.337587 50.479219 
L 321.969017 53.839219 
L 323.600447 44.599219 
L 325.231876 36.199219 
L 326.863306 34.519219 
L 328.494736 53.839219 
L 330.126166 44.599219 
L 331.757596 61.399219 
L 333.389026 58.039219 
L 335.020456 38.719219 
L 336.651886 37.879219 
L 338.283315 45.439219 
L 339.914745 44.599219 
L 341.546175 57.199219 
L 343.177605 61.399219 
L 344.809035 61.399219 
L 346.440465 58.039219 
L 348.071895 51.319219 
L 349.703325 55.519219 
L 351.334754 47.119219 
L 352.966184 43.759219 
L 354.597614 44.599219 
L 356.229044 35.359219 
L 357.860474 37.039219 
L 359.491904 50.479219 
L 361.123334 58.879219 
L 362.754764 49.639219 
L 364.386193 58.879219 
L 366.017623 57.199219 
L 367.649053 66.439219 
L 369.280483 69.799219 
L 370.911913 73.999219 
L 372.543343 68.119219 
L 374.174773 67.279219 
L 374.174773 67.279219 
" clip-path="url(#p2d04280123)" style="fill: none; stroke: #1f77b4; stroke-width: 1.5; stroke-linecap: square"/>
   </g>
   <g id="line2d_18">
    <path d="M 49.520227 262.999219 
L 51.151657 250.399219 
L 52.783087 214.279219 
L 54.414517 185.719219 
L 56.045947 159.679219 
L 57.677377 131.119219 
L 59.308807 121.879219 
L 60.940236 106.759219 
L 62.571666 107.599219 
L 64.203096 105.919219 
L 65.834526 89.959219 
L 67.465956 95.839219 
L 69.097386 75.679219 
L 70.728816 63.079219 
L 72.360246 59.719219 
L 73.991675 47.119219 
L 77.254535 37.039219 
L 78.885965 52.999219 
L 80.517395 44.599219 
L 82.148825 63.079219 
L 83.780255 68.119219 
L 85.411685 47.959219 
L 87.043114 51.319219 
L 88.674544 48.799219 
L 90.305974 37.039219 
L 91.937404 36.199219 
L 93.568834 33.679219 
L 95.200264 46.279219 
L 96.831694 64.759219 
L 98.463124 60.559219 
L 100.094553 50.479219 
L 103.357413 57.199219 
L 104.988843 47.959219 
L 106.620273 68.959219 
L 108.251703 66.439219 
L 109.883133 66.439219 
L 111.514563 79.879219 
L 116.408852 23.599219 
L 118.040282 33.679219 
L 119.671712 42.079219 
L 121.303142 36.199219 
L 122.934572 40.399219 
L 124.566002 50.479219 
L 126.197431 41.239219 
L 127.828861 48.799219 
L 129.460291 63.919219 
L 131.091721 61.399219 
L 132.723151 54.679219 
L 134.354581 70.639219 
L 135.986011 61.399219 
L 137.617441 45.439219 
L 139.24887 47.119219 
L 140.8803 58.039219 
L 142.51173 51.319219 
L 144.14316 49.639219 
L 145.77459 47.119219 
L 147.40602 45.439219 
L 149.03745 59.719219 
L 150.66888 52.159219 
L 152.30031 38.719219 
L 153.931739 45.439219 
L 155.563169 53.839219 
L 157.194599 47.959219 
L 158.826029 54.679219 
L 160.457459 50.479219 
L 162.088889 60.559219 
L 163.720319 75.679219 
L 165.351749 69.799219 
L 166.983178 70.639219 
L 168.614608 63.079219 
L 170.246038 65.599219 
L 171.877468 58.879219 
L 173.508898 37.879219 
L 175.140328 33.679219 
L 176.771758 42.079219 
L 178.403188 48.799219 
L 180.034617 45.439219 
L 181.666047 45.439219 
L 183.297477 40.399219 
L 184.928907 69.799219 
L 186.560337 63.919219 
L 188.191767 52.999219 
L 189.823197 58.039219 
L 191.454627 34.519219 
L 193.086056 56.359219 
L 194.717486 52.159219 
L 196.348916 52.999219 
L 197.980346 47.959219 
L 199.611776 50.479219 
L 201.243206 53.839219 
L 202.874636 59.719219 
L 206.137495 35.359219 
L 207.768925 33.679219 
L 209.400355 34.519219 
L 211.031785 45.439219 
L 212.663215 46.279219 
L 214.294645 44.599219 
L 215.926075 55.519219 
L 217.557505 58.879219 
L 219.188934 73.159219 
L 220.820364 69.799219 
L 222.451794 49.639219 
L 224.083224 44.599219 
L 225.714654 52.999219 
L 227.346084 72.319219 
L 228.977514 73.999219 
L 230.608944 63.919219 
L 232.240373 47.959219 
L 233.871803 63.079219 
L 235.503233 48.799219 
L 237.134663 67.279219 
L 238.766093 65.599219 
L 240.397523 73.159219 
L 242.028953 65.599219 
L 243.660383 73.999219 
L 245.291812 58.039219 
L 246.923242 70.639219 
L 248.554672 54.679219 
L 250.186102 62.239219 
L 251.817532 57.199219 
L 253.448962 44.599219 
L 256.711822 51.319219 
L 258.343251 51.319219 
L 259.974681 58.039219 
L 261.606111 52.159219 
L 263.237541 47.959219 
L 264.868971 28.639219 
L 266.500401 47.119219 
L 268.131831 26.119219 
L 269.763261 21.919219 
L 271.39469 21.079219 
L 273.02612 21.079219 
L 274.65755 26.959219 
L 276.28898 35.359219 
L 277.92041 52.999219 
L 279.55184 56.359219 
L 281.18327 47.959219 
L 282.8147 63.079219 
L 284.44613 56.359219 
L 286.077559 63.919219 
L 287.708989 68.119219 
L 289.340419 60.559219 
L 290.971849 58.879219 
L 292.603279 53.839219 
L 294.234709 58.039219 
L 295.866139 73.159219 
L 297.497569 67.279219 
L 299.128998 50.479219 
L 300.760428 55.519219 
L 302.391858 57.199219 
L 304.023288 62.239219 
L 305.654718 58.039219 
L 307.286148 47.959219 
L 308.917578 52.159219 
L 310.549008 64.759219 
L 312.180437 45.439219 
L 313.811867 53.839219 
L 315.443297 53.839219 
L 317.074727 68.959219 
L 318.706157 68.119219 
L 320.337587 55.519219 
L 321.969017 58.879219 
L 323.600447 75.679219 
L 325.231876 65.599219 
L 326.863306 67.279219 
L 328.494736 50.479219 
L 330.126166 50.479219 
L 331.757596 40.399219 
L 333.389026 46.279219 
L 335.020456 66.439219 
L 336.651886 65.599219 
L 338.283315 61.399219 
L 339.914745 65.599219 
L 341.546175 52.999219 
L 343.177605 54.679219 
L 344.809035 45.439219 
L 346.440465 56.359219 
L 348.071895 71.479219 
L 349.703325 60.559219 
L 351.334754 68.959219 
L 352.966184 65.599219 
L 354.597614 65.599219 
L 356.229044 70.639219 
L 357.860474 59.719219 
L 359.491904 55.519219 
L 361.123334 41.239219 
L 362.754764 57.199219 
L 364.386193 52.159219 
L 366.017623 54.679219 
L 367.649053 47.959219 
L 369.280483 49.639219 
L 370.911913 42.079219 
L 372.543343 50.479219 
L 374.174773 53.839219 
L 374.174773 53.839219 
" clip-path="url(#p2d04280123)" style="fill: none; stroke: #ff7f0e; stroke-width: 1.5; stroke-linecap: square"/>
   </g>
   <g id="patch_3">
    <path d="M 33.2875 275.095219 
L 33.2875 8.983219 
" style="fill: none; stroke: #000000; stroke-width: 0.8; stroke-linejoin: miter; stroke-linecap: square"/>
   </g>
   <g id="patch_4">
    <path d="M 390.4075 275.095219 
L 390.4075 8.983219 
" style="fill: none; stroke: #000000; stroke-width: 0.8; stroke-linejoin: miter; stroke-linecap: square"/>
   </g>
   <g id="patch_5">
    <path d="M 33.2875 275.095219 
L 390.4075 275.095219 
" style="fill: none; stroke: #000000; stroke-width: 0.8; stroke-linejoin: miter; stroke-linecap: square"/>
   </g>
   <g id="patch_6">
    <path d="M 33.2875 8.983219 
L 390.4075 8.983219 
" style="fill: none; stroke: #000000; stroke-width: 0.8; stroke-linejoin: miter; stroke-linecap: square"/>
   </g>
  </g>
 </g>
 <defs>
  <clipPath id="p2d04280123">
   <rect x="33.2875" y="8.983219" width="357.12" height="266.112"/>
  </clipPath>
 </defs>
</svg>
