<?xml version="1.0" encoding="utf-8" standalone="no"?>
<!DOCTYPE svg PUBLIC "-//W3C//DTD SVG 1.1//EN"
  "http://www.w3.org/Graphics/SVG/1.1/DTD/svg11.dtd">
<svg xmlns:xlink="http://www.w3.org/1999/xlink" width="403.97pt" height="297.190125pt" viewBox="0 0 403.97 297.190125" xmlns="http://www.w3.org/2000/svg" version="1.1">
 <metadata>
  <rdf:RDF xmlns:dc="http://purl.org/dc/elements/1.1/" xmlns:cc="http://creativecommons.org/ns#" xmlns:rdf="http://www.w3.org/1999/02/22-rdf-syntax-ns#">
   <cc:Work>
    <dc:type rdf:resource="http://purl.org/dc/dcmitype/StillImage"/>
    <dc:date>2024-05-16T02:12:29.784384</dc:date>
    <dc:format>image/svg+xml</dc:format>
    <dc:creator>
     <cc:Agent>
      <dc:title>Matplotlib v3.9.0, https://matplotlib.org/</dc:title>
     </cc:Agent>
    </dc:creator>
   </cc:Work>
  </rdf:RDF>
 </metadata>
 <defs>
  <style type="text/css">*{stroke-linejoin: round; stroke-linecap: butt}</style>
 </defs>
 <g id="figure_1">
  <g id="patch_1">
   <path d="M 0 297.190125 
L 403.97 297.190125 
L 403.97 0 
L 0 0 
z
" style="fill: #ffffff"/>
  </g>
  <g id="axes_1">
   <g id="patch_2">
    <path d="M 39.65 273.312 
L 396.77 273.312 
L 396.77 7.2 
L 39.65 7.2 
z
" style="fill: #ffffff"/>
   </g>
   <g id="matplotlib.axis_1">
    <g id="xtick_1">
     <g id="line2d_1">
      <defs>
       <path id="mcf175ab1a3" d="M 0 0 
L 0 3.5 
" style="stroke: #000000; stroke-width: 0.8"/>
      </defs>
      <g>
       <use xlink:href="#mcf175ab1a3" x="55.882727" y="273.312" style="stroke: #000000; stroke-width: 0.8"/>
      </g>
     </g>
     <g id="text_1">
      <!-- 0.0 -->
      <g transform="translate(47.931165 287.910437) scale(0.1 -0.1)">
       <defs>
        <path id="DejaVuSans-30" d="M 2034 4250 
Q 1547 4250 1301 3770 
Q 1056 3291 1056 2328 
Q 1056 1369 1301 889 
Q 1547 409 2034 409 
Q 2525 409 2770 889 
Q 3016 1369 3016 2328 
Q 3016 3291 2770 3770 
Q 2525 4250 2034 4250 
z
M 2034 4750 
Q 2819 4750 3233 4129 
Q 3647 3509 3647 2328 
Q 3647 1150 3233 529 
Q 2819 -91 2034 -91 
Q 1250 -91 836 529 
Q 422 1150 422 2328 
Q 422 3509 836 4129 
Q 1250 4750 2034 4750 
z
" transform="scale(0.015625)"/>
        <path id="DejaVuSans-2e" d="M 684 794 
L 1344 794 
L 1344 0 
L 684 0 
L 684 794 
z
" transform="scale(0.015625)"/>
       </defs>
       <use xlink:href="#DejaVuSans-30"/>
       <use xlink:href="#DejaVuSans-2e" x="63.623047"/>
       <use xlink:href="#DejaVuSans-30" x="95.410156"/>
      </g>
     </g>
    </g>
    <g id="xtick_2">
     <g id="line2d_2">
      <g>
       <use xlink:href="#mcf175ab1a3" x="96.668474" y="273.312" style="stroke: #000000; stroke-width: 0.8"/>
      </g>
     </g>
     <g id="text_2">
      <!-- 2.5 -->
      <g transform="translate(88.716912 287.910437) scale(0.1 -0.1)">
       <defs>
        <path id="DejaVuSans-32" d="M 1228 531 
L 3431 531 
L 3431 0 
L 469 0 
L 469 531 
Q 828 903 1448 1529 
Q 2069 2156 2228 2338 
Q 2531 2678 2651 2914 
Q 2772 3150 2772 3378 
Q 2772 3750 2511 3984 
Q 2250 4219 1831 4219 
Q 1534 4219 1204 4116 
Q 875 4013 500 3803 
L 500 4441 
Q 881 4594 1212 4672 
Q 1544 4750 1819 4750 
Q 2544 4750 2975 4387 
Q 3406 4025 3406 3419 
Q 3406 3131 3298 2873 
Q 3191 2616 2906 2266 
Q 2828 2175 2409 1742 
Q 1991 1309 1228 531 
z
" transform="scale(0.015625)"/>
        <path id="DejaVuSans-35" d="M 691 4666 
L 3169 4666 
L 3169 4134 
L 1269 4134 
L 1269 2991 
Q 1406 3038 1543 3061 
Q 1681 3084 1819 3084 
Q 2600 3084 3056 2656 
Q 3513 2228 3513 1497 
Q 3513 744 3044 326 
Q 2575 -91 1722 -91 
Q 1428 -91 1123 -41 
Q 819 9 494 109 
L 494 744 
Q 775 591 1075 516 
Q 1375 441 1709 441 
Q 2250 441 2565 725 
Q 2881 1009 2881 1497 
Q 2881 1984 2565 2268 
Q 2250 2553 1709 2553 
Q 1456 2553 1204 2497 
Q 953 2441 691 2322 
L 691 4666 
z
" transform="scale(0.015625)"/>
       </defs>
       <use xlink:href="#DejaVuSans-32"/>
       <use xlink:href="#DejaVuSans-2e" x="63.623047"/>
       <use xlink:href="#DejaVuSans-35" x="95.410156"/>
      </g>
     </g>
    </g>
    <g id="xtick_3">
     <g id="line2d_3">
      <g>
       <use xlink:href="#mcf175ab1a3" x="137.454221" y="273.312" style="stroke: #000000; stroke-width: 0.8"/>
      </g>
     </g>
     <g id="text_3">
      <!-- 5.0 -->
      <g transform="translate(129.502659 287.910437) scale(0.1 -0.1)">
       <use xlink:href="#DejaVuSans-35"/>
       <use xlink:href="#DejaVuSans-2e" x="63.623047"/>
       <use xlink:href="#DejaVuSans-30" x="95.410156"/>
      </g>
     </g>
    </g>
    <g id="xtick_4">
     <g id="line2d_4">
      <g>
       <use xlink:href="#mcf175ab1a3" x="178.239968" y="273.312" style="stroke: #000000; stroke-width: 0.8"/>
      </g>
     </g>
     <g id="text_4">
      <!-- 7.5 -->
      <g transform="translate(170.288406 287.910437) scale(0.1 -0.1)">
       <defs>
        <path id="DejaVuSans-37" d="M 525 4666 
L 3525 4666 
L 3525 4397 
L 1831 0 
L 1172 0 
L 2766 4134 
L 525 4134 
L 525 4666 
z
" transform="scale(0.015625)"/>
       </defs>
       <use xlink:href="#DejaVuSans-37"/>
       <use xlink:href="#DejaVuSans-2e" x="63.623047"/>
       <use xlink:href="#DejaVuSans-35" x="95.410156"/>
      </g>
     </g>
    </g>
    <g id="xtick_5">
     <g id="line2d_5">
      <g>
       <use xlink:href="#mcf175ab1a3" x="219.025715" y="273.312" style="stroke: #000000; stroke-width: 0.8"/>
      </g>
     </g>
     <g id="text_5">
      <!-- 10.0 -->
      <g transform="translate(207.892902 287.910437) scale(0.1 -0.1)">
       <defs>
        <path id="DejaVuSans-31" d="M 794 531 
L 1825 531 
L 1825 4091 
L 703 3866 
L 703 4441 
L 1819 4666 
L 2450 4666 
L 2450 531 
L 3481 531 
L 3481 0 
L 794 0 
L 794 531 
z
" transform="scale(0.015625)"/>
       </defs>
       <use xlink:href="#DejaVuSans-31"/>
       <use xlink:href="#DejaVuSans-30" x="63.623047"/>
       <use xlink:href="#DejaVuSans-2e" x="127.246094"/>
       <use xlink:href="#DejaVuSans-30" x="159.033203"/>
      </g>
     </g>
    </g>
    <g id="xtick_6">
     <g id="line2d_6">
      <g>
       <use xlink:href="#mcf175ab1a3" x="259.811462" y="273.312" style="stroke: #000000; stroke-width: 0.8"/>
      </g>
     </g>
     <g id="text_6">
      <!-- 12.5 -->
      <g transform="translate(248.678649 287.910437) scale(0.1 -0.1)">
       <use xlink:href="#DejaVuSans-31"/>
       <use xlink:href="#DejaVuSans-32" x="63.623047"/>
       <use xlink:href="#DejaVuSans-2e" x="127.246094"/>
       <use xlink:href="#DejaVuSans-35" x="159.033203"/>
      </g>
     </g>
    </g>
    <g id="xtick_7">
     <g id="line2d_7">
      <g>
       <use xlink:href="#mcf175ab1a3" x="300.597209" y="273.312" style="stroke: #000000; stroke-width: 0.8"/>
      </g>
     </g>
     <g id="text_7">
      <!-- 15.0 -->
      <g transform="translate(289.464396 287.910437) scale(0.1 -0.1)">
       <use xlink:href="#DejaVuSans-31"/>
       <use xlink:href="#DejaVuSans-35" x="63.623047"/>
       <use xlink:href="#DejaVuSans-2e" x="127.246094"/>
       <use xlink:href="#DejaVuSans-30" x="159.033203"/>
      </g>
     </g>
    </g>
    <g id="xtick_8">
     <g id="line2d_8">
      <g>
       <use xlink:href="#mcf175ab1a3" x="341.382956" y="273.312" style="stroke: #000000; stroke-width: 0.8"/>
      </g>
     </g>
     <g id="text_8">
      <!-- 17.5 -->
      <g transform="translate(330.250143 287.910437) scale(0.1 -0.1)">
       <use xlink:href="#DejaVuSans-31"/>
       <use xlink:href="#DejaVuSans-37" x="63.623047"/>
       <use xlink:href="#DejaVuSans-2e" x="127.246094"/>
       <use xlink:href="#DejaVuSans-35" x="159.033203"/>
      </g>
     </g>
    </g>
    <g id="xtick_9">
     <g id="line2d_9">
      <g>
       <use xlink:href="#mcf175ab1a3" x="382.168703" y="273.312" style="stroke: #000000; stroke-width: 0.8"/>
      </g>
     </g>
     <g id="text_9">
      <!-- 20.0 -->
      <g transform="translate(371.03589 287.910437) scale(0.1 -0.1)">
       <use xlink:href="#DejaVuSans-32"/>
       <use xlink:href="#DejaVuSans-30" x="63.623047"/>
       <use xlink:href="#DejaVuSans-2e" x="127.246094"/>
       <use xlink:href="#DejaVuSans-30" x="159.033203"/>
      </g>
     </g>
    </g>
   </g>
   <g id="matplotlib.axis_2">
    <g id="ytick_1">
     <g id="line2d_10">
      <defs>
       <path id="m44c0052830" d="M 0 0 
L -3.5 0 
" style="stroke: #000000; stroke-width: 0.8"/>
      </defs>
      <g>
       <use xlink:href="#m44c0052830" x="39.65" y="261.216" style="stroke: #000000; stroke-width: 0.8"/>
      </g>
     </g>
     <g id="text_10">
      <!-- 0 -->
      <g transform="translate(26.2875 265.015219) scale(0.1 -0.1)">
       <use xlink:href="#DejaVuSans-30"/>
      </g>
     </g>
    </g>
    <g id="ytick_2">
     <g id="line2d_11">
      <g>
       <use xlink:href="#m44c0052830" x="39.65" y="221.295208" style="stroke: #000000; stroke-width: 0.8"/>
      </g>
     </g>
     <g id="text_11">
      <!-- 500 -->
      <g transform="translate(13.5625 225.094427) scale(0.1 -0.1)">
       <use xlink:href="#DejaVuSans-35"/>
       <use xlink:href="#DejaVuSans-30" x="63.623047"/>
       <use xlink:href="#DejaVuSans-30" x="127.246094"/>
      </g>
     </g>
    </g>
    <g id="ytick_3">
     <g id="line2d_12">
      <g>
       <use xlink:href="#m44c0052830" x="39.65" y="181.374416" style="stroke: #000000; stroke-width: 0.8"/>
      </g>
     </g>
     <g id="text_12">
      <!-- 1000 -->
      <g transform="translate(7.2 185.173635) scale(0.1 -0.1)">
       <use xlink:href="#DejaVuSans-31"/>
       <use xlink:href="#DejaVuSans-30" x="63.623047"/>
       <use xlink:href="#DejaVuSans-30" x="127.246094"/>
       <use xlink:href="#DejaVuSans-30" x="190.869141"/>
      </g>
     </g>
    </g>
    <g id="ytick_4">
     <g id="line2d_13">
      <g>
       <use xlink:href="#m44c0052830" x="39.65" y="141.453624" style="stroke: #000000; stroke-width: 0.8"/>
      </g>
     </g>
     <g id="text_13">
      <!-- 1500 -->
      <g transform="translate(7.2 145.252843) scale(0.1 -0.1)">
       <use xlink:href="#DejaVuSans-31"/>
       <use xlink:href="#DejaVuSans-35" x="63.623047"/>
       <use xlink:href="#DejaVuSans-30" x="127.246094"/>
       <use xlink:href="#DejaVuSans-30" x="190.869141"/>
      </g>
     </g>
    </g>
    <g id="ytick_5">
     <g id="line2d_14">
      <g>
       <use xlink:href="#m44c0052830" x="39.65" y="101.532832" style="stroke: #000000; stroke-width: 0.8"/>
      </g>
     </g>
     <g id="text_14">
      <!-- 2000 -->
      <g transform="translate(7.2 105.33205) scale(0.1 -0.1)">
       <use xlink:href="#DejaVuSans-32"/>
       <use xlink:href="#DejaVuSans-30" x="63.623047"/>
       <use xlink:href="#DejaVuSans-30" x="127.246094"/>
       <use xlink:href="#DejaVuSans-30" x="190.869141"/>
      </g>
     </g>
    </g>
    <g id="ytick_6">
     <g id="line2d_15">
      <g>
       <use xlink:href="#m44c0052830" x="39.65" y="61.61204" style="stroke: #000000; stroke-width: 0.8"/>
      </g>
     </g>
     <g id="text_15">
      <!-- 2500 -->
      <g transform="translate(7.2 65.411258) scale(0.1 -0.1)">
       <use xlink:href="#DejaVuSans-32"/>
       <use xlink:href="#DejaVuSans-35" x="63.623047"/>
       <use xlink:href="#DejaVuSans-30" x="127.246094"/>
       <use xlink:href="#DejaVuSans-30" x="190.869141"/>
      </g>
     </g>
    </g>
    <g id="ytick_7">
     <g id="line2d_16">
      <g>
       <use xlink:href="#m44c0052830" x="39.65" y="21.691248" style="stroke: #000000; stroke-width: 0.8"/>
      </g>
     </g>
     <g id="text_16">
      <!-- 3000 -->
      <g transform="translate(7.2 25.490466) scale(0.1 -0.1)">
       <defs>
        <path id="DejaVuSans-33" d="M 2597 2516 
Q 3050 2419 3304 2112 
Q 3559 1806 3559 1356 
Q 3559 666 3084 287 
Q 2609 -91 1734 -91 
Q 1441 -91 1130 -33 
Q 819 25 488 141 
L 488 750 
Q 750 597 1062 519 
Q 1375 441 1716 441 
Q 2309 441 2620 675 
Q 2931 909 2931 1356 
Q 2931 1769 2642 2001 
Q 2353 2234 1838 2234 
L 1294 2234 
L 1294 2753 
L 1863 2753 
Q 2328 2753 2575 2939 
Q 2822 3125 2822 3475 
Q 2822 3834 2567 4026 
Q 2313 4219 1838 4219 
Q 1578 4219 1281 4162 
Q 984 4106 628 3988 
L 628 4550 
Q 988 4650 1302 4700 
Q 1616 4750 1894 4750 
Q 2613 4750 3031 4423 
Q 3450 4097 3450 3541 
Q 3450 3153 3228 2886 
Q 3006 2619 2597 2516 
z
" transform="scale(0.015625)"/>
       </defs>
       <use xlink:href="#DejaVuSans-33"/>
       <use xlink:href="#DejaVuSans-30" x="63.623047"/>
       <use xlink:href="#DejaVuSans-30" x="127.246094"/>
       <use xlink:href="#DejaVuSans-30" x="190.869141"/>
      </g>
     </g>
    </g>
   </g>
   <g id="line2d_17">
    <path d="M 55.882727 261.216 
L 72.197026 181.374416 
L 88.511325 128.146693 
L 104.825624 92.661545 
L 121.139922 69.004779 
L 137.454221 53.233602 
L 153.76852 42.719484 
L 170.082819 35.710072 
L 186.397117 31.03713 
L 202.711416 27.921836 
L 219.025715 25.844973 
L 235.340014 24.460398 
L 251.654312 23.537348 
L 267.968611 22.921981 
L 284.28291 22.511737 
L 300.597209 22.23824 
L 316.911508 22.055909 
L 333.225806 21.934355 
L 349.540105 21.853319 
L 365.854404 21.799295 
" clip-path="url(#p88a543f7c8)" style="fill: none; stroke: #1f77b4; stroke-width: 1.5; stroke-linecap: square"/>
   </g>
   <g id="line2d_18">
    <path d="M 55.882727 261.216 
L 72.197026 261.216 
L 88.511325 234.602139 
L 104.825624 207.988277 
L 121.139922 187.288607 
L 137.454221 172.503129 
L 153.76852 162.317577 
L 170.082819 155.417687 
L 186.397117 150.781253 
L 202.711416 147.678128 
L 219.025715 145.605321 
L 235.340014 144.222098 
L 251.654312 143.299499 
L 267.968611 142.684282 
L 284.28291 142.274088 
L 300.597209 142.000608 
L 316.911508 141.818283 
L 333.225806 141.696731 
L 349.540105 141.615695 
L 365.854404 141.561672 
" clip-path="url(#p88a543f7c8)" style="fill: none; stroke: #ff7f0e; stroke-width: 1.5; stroke-linecap: square"/>
   </g>
   <g id="line2d_19">
    <path d="M 55.882727 261.216 
L 57.514157 252.912475 
L 59.145587 245.806574 
L 62.408447 229.359208 
L 64.039877 223.450931 
L 65.671307 216.824079 
L 67.302736 212.193267 
L 70.565596 199.897663 
L 72.197026 194.787802 
L 75.459886 183.530139 
L 77.091316 176.424238 
L 78.722746 170.755485 
L 80.354175 165.565782 
L 81.985605 159.338139 
L 83.617035 156.942891 
L 86.879895 149.198257 
L 88.511325 144.008554 
L 91.774185 137.062337 
L 95.037044 128.838653 
L 96.668474 125.165941 
L 98.299904 121.972277 
L 99.931334 117.501149 
L 101.562764 114.467168 
L 103.194194 110.395248 
L 104.825624 106.642693 
L 106.457053 104.886178 
L 108.088483 100.814257 
L 109.719913 98.498851 
L 111.351343 95.544713 
L 112.982773 95.305188 
L 114.614203 91.073584 
L 116.245633 90.115485 
L 117.877063 87.720238 
L 119.508492 85.564515 
L 122.771352 80.933703 
L 124.402782 78.857822 
L 126.034212 76.143208 
L 127.665642 74.785901 
L 129.297072 71.512396 
L 130.928502 70.075248 
L 132.559931 69.117149 
L 134.191361 69.436515 
L 135.822791 67.121109 
L 139.085651 63.208871 
L 140.717081 63.528238 
L 142.348511 61.292673 
L 143.979941 58.817584 
L 145.61137 59.775683 
L 147.2428 57.220752 
L 148.87423 56.10297 
L 150.50566 53.867406 
L 152.13709 50.194693 
L 153.76852 49.476119 
L 155.39995 49.316436 
L 157.03138 47.639762 
L 158.66281 45.643723 
L 160.294239 45.723564 
L 161.925669 44.765465 
L 163.557099 43.567842 
L 165.188529 45.643723 
L 166.819959 44.525941 
L 168.451389 44.685624 
L 170.082819 44.446099 
L 171.714249 42.689584 
L 174.977108 40.773386 
L 176.608538 39.575762 
L 178.239968 36.701465 
L 179.871398 35.503842 
L 181.502828 35.663525 
L 183.134258 35.344158 
L 184.765688 35.344158 
L 186.397117 34.545743 
L 188.028547 34.625584 
L 189.659977 33.747327 
L 191.291407 32.39002 
L 192.922837 34.146535 
L 194.554267 34.625584 
L 196.185697 35.503842 
L 197.817127 33.587644 
L 199.448556 33.268277 
L 201.079986 32.549703 
L 202.711416 31.112554 
L 204.342846 30.793188 
L 205.974276 33.268277 
L 207.605706 33.028752 
L 209.237136 32.39002 
L 210.868566 34.705426 
L 212.499995 34.545743 
L 214.131425 35.024792 
L 215.762855 34.94495 
L 217.394285 35.663525 
L 219.025715 34.705426 
L 220.657145 33.986851 
L 222.288575 33.827168 
L 223.920005 34.625584 
L 225.551434 33.587644 
L 227.182864 32.948911 
L 228.814294 34.146535 
L 230.445724 33.188436 
L 232.077154 32.709386 
L 235.340014 30.473822 
L 236.971444 32.230337 
L 238.602873 31.112554 
L 240.234303 29.435881 
L 241.865733 29.994772 
L 243.497163 27.759208 
L 245.128593 27.280158 
L 246.760023 27.280158 
L 248.391453 27.759208 
L 250.022883 27.998733 
L 251.654312 29.595564 
L 253.285742 30.87303 
L 254.917172 31.511762 
L 256.548602 29.435881 
L 258.180032 28.797149 
L 259.811462 27.759208 
L 261.442892 28.238257 
L 263.074322 26.960792 
L 264.705751 27.120475 
L 266.337181 26.801109 
L 267.968611 26.082535 
L 269.600041 23.767129 
L 271.231471 23.367921 
L 272.862901 24.964752 
L 274.494331 23.288079 
L 276.125761 22.569505 
L 277.75719 23.128396 
L 279.38862 23.128396 
L 281.02005 24.246178 
L 284.28291 20.892832 
L 285.91434 19.296 
L 287.54577 19.535525 
L 289.1772 20.014574 
L 290.80863 20.333941 
L 292.440059 20.094416 
L 294.071489 21.451723 
L 295.702919 21.052515 
L 298.965779 21.052515 
L 300.597209 22.32998 
L 302.228639 20.493624 
L 303.860069 20.094416 
L 305.491498 20.254099 
L 307.122928 21.451723 
L 308.754358 20.733149 
L 310.385788 22.409822 
L 312.017218 22.569505 
L 313.648648 22.170297 
L 316.911508 25.36396 
L 318.542937 25.763168 
L 320.174367 26.641426 
L 321.805797 26.162376 
L 323.437227 25.443802 
L 325.068657 27.519683 
L 326.700087 27.040634 
L 328.331517 29.116515 
L 331.594376 29.515723 
L 333.225806 28.797149 
L 334.857236 28.797149 
L 336.488666 30.553663 
L 338.120096 30.314139 
L 339.751526 30.234297 
L 341.382956 29.755248 
L 343.014386 28.477782 
L 344.645815 28.956832 
L 346.277245 26.641426 
L 347.908675 25.922851 
L 349.540105 26.082535 
L 351.171535 27.36 
L 352.802965 27.679366 
L 354.434395 25.523644 
L 356.065825 26.162376 
L 357.697254 26.401901 
L 359.328684 26.002693 
L 360.960114 28.238257 
L 362.591544 26.481743 
L 365.854404 24.645386 
L 367.485834 23.367921 
L 369.117264 24.565545 
L 370.748693 26.162376 
L 372.380123 28.078574 
L 374.011553 28.238257 
L 375.642983 29.036673 
L 377.274413 29.435881 
L 378.905843 30.713347 
L 380.537273 30.234297 
L 380.537273 30.234297 
" clip-path="url(#p88a543f7c8)" style="fill: none; stroke: #2ca02c; stroke-width: 1.5; stroke-linecap: square"/>
   </g>
   <g id="line2d_20">
    <path d="M 55.882727 261.216 
L 57.514157 261.216 
L 60.777017 259.778851 
L 65.671307 256.984396 
L 67.302736 255.467406 
L 68.934166 254.589149 
L 72.197026 252.193901 
L 73.828456 250.597069 
L 77.091316 247.163881 
L 80.354175 242.932277 
L 81.985605 241.734653 
L 83.617035 238.301465 
L 86.879895 234.469069 
L 88.511325 234.868277 
L 90.142755 233.111762 
L 91.774185 230.796356 
L 93.405614 227.762376 
L 95.037044 226.165545 
L 96.668474 225.207446 
L 98.299904 223.291248 
L 99.931334 222.093624 
L 101.562764 219.059644 
L 103.194194 217.38297 
L 104.825624 215.945822 
L 106.457053 213.470733 
L 109.719913 209.31897 
L 111.351343 207.003564 
L 112.982773 204.129267 
L 114.614203 203.730059 
L 116.245633 202.452594 
L 117.877063 200.296871 
L 119.508492 199.418614 
L 121.139922 197.18305 
L 122.771352 195.666059 
L 124.402782 193.111129 
L 126.034212 190.955406 
L 127.665642 189.677941 
L 129.297072 189.358574 
L 130.928502 187.043168 
L 132.559931 185.685861 
L 134.191361 183.849505 
L 135.822791 182.57204 
L 137.454221 180.576 
L 139.085651 179.937267 
L 140.717081 178.260594 
L 142.348511 179.05901 
L 143.979941 177.54202 
L 145.61137 175.146772 
L 147.2428 175.625822 
L 148.87423 173.949149 
L 150.50566 173.470099 
L 152.13709 174.268515 
L 153.76852 172.751525 
L 155.39995 171.633743 
L 157.03138 170.675644 
L 158.66281 172.432158 
L 160.294239 170.51596 
L 161.925669 170.595802 
L 163.557099 169.47802 
L 165.188529 167.721505 
L 166.819959 166.843248 
L 168.451389 164.767366 
L 170.082819 164.607683 
L 171.714249 164.128634 
L 173.345678 164.448 
L 174.977108 164.128634 
L 176.608538 165.565782 
L 178.239968 165.006891 
L 179.871398 164.847208 
L 183.134258 162.611644 
L 184.765688 162.93101 
L 186.397117 162.45196 
L 188.028547 161.653545 
L 189.659977 160.695446 
L 191.291407 160.615604 
L 192.922837 158.140515 
L 194.554267 158.459881 
L 196.185697 156.942891 
L 197.817127 156.86305 
L 199.448556 156.623525 
L 201.079986 155.106535 
L 202.711416 155.745267 
L 204.342846 155.425901 
L 205.974276 154.38796 
L 207.605706 153.030653 
L 209.237136 152.232238 
L 210.868566 150.475723 
L 212.499995 151.433822 
L 214.131425 150.236198 
L 215.762855 148.399842 
L 217.394285 147.521584 
L 219.025715 148.160317 
L 220.657145 149.517624 
L 222.288575 149.677307 
L 223.920005 148.878891 
L 225.551434 150.715248 
L 227.182864 149.996673 
L 228.814294 148.719208 
L 230.445724 149.597465 
L 232.077154 148.79905 
L 233.708584 149.916832 
L 235.340014 148.639366 
L 236.971444 146.882851 
L 238.602873 147.282059 
L 240.234303 148.240158 
L 241.865733 147.761109 
L 243.497163 148.240158 
L 245.128593 147.202218 
L 246.760023 146.563485 
L 250.022883 146.563485 
L 251.654312 144.487604 
L 253.285742 143.689188 
L 258.180032 144.80697 
L 259.811462 145.765069 
L 261.442892 145.046495 
L 263.074322 145.924752 
L 266.337181 145.765069 
L 267.968611 146.80301 
L 269.600041 148.080475 
L 271.231471 147.282059 
L 272.862901 146.962693 
L 274.494331 146.80301 
L 276.125761 145.685228 
L 277.75719 143.609347 
L 279.38862 145.126337 
L 281.02005 143.529505 
L 282.65148 147.042535 
L 284.28291 148.399842 
L 285.91434 147.282059 
L 287.54577 147.042535 
L 289.1772 146.483644 
L 290.80863 145.765069 
L 292.440059 143.928713 
L 294.071489 142.571406 
L 295.702919 143.130297 
L 297.334349 145.28602 
L 300.597209 144.567446 
L 302.228639 146.723168 
L 303.860069 144.407762 
L 305.491498 146.483644 
L 307.122928 145.126337 
L 308.754358 145.685228 
L 310.385788 144.966653 
L 312.017218 143.449663 
L 313.648648 144.647287 
L 315.280078 145.126337 
L 316.911508 143.928713 
L 318.542937 144.168238 
L 320.174367 144.80697 
L 321.805797 144.008554 
L 323.437227 145.445703 
L 325.068657 143.689188 
L 326.700087 142.651248 
L 328.331517 143.529505 
L 329.962947 143.529505 
L 331.594376 143.689188 
L 333.225806 145.445703 
L 334.857236 144.647287 
L 336.488666 144.727129 
L 338.120096 146.084436 
L 339.751526 144.80697 
L 341.382956 144.088396 
L 343.014386 143.529505 
L 344.645815 142.571406 
L 347.908675 144.248079 
L 349.540105 142.571406 
L 351.171535 141.453624 
L 352.802965 141.134257 
L 354.434395 142.012515 
L 356.065825 143.210139 
L 357.697254 144.088396 
L 359.328684 143.689188 
L 360.960114 141.852832 
L 364.222974 142.810931 
L 365.854404 142.731089 
L 367.485834 143.369822 
L 369.117264 142.331881 
L 370.748693 142.012515 
L 372.380123 141.453624 
L 375.642983 139.457584 
L 377.274413 139.856792 
L 378.905843 138.818851 
L 380.537273 139.218059 
L 380.537273 139.218059 
" clip-path="url(#p88a543f7c8)" style="fill: none; stroke: #d62728; stroke-width: 1.5; stroke-linecap: square"/>
   </g>
   <g id="patch_3">
    <path d="M 39.65 273.312 
L 39.65 7.2 
" style="fill: none; stroke: #000000; stroke-width: 0.8; stroke-linejoin: miter; stroke-linecap: square"/>
   </g>
   <g id="patch_4">
    <path d="M 396.77 273.312 
L 396.77 7.2 
" style="fill: none; stroke: #000000; stroke-width: 0.8; stroke-linejoin: miter; stroke-linecap: square"/>
   </g>
   <g id="patch_5">
    <path d="M 39.65 273.312 
L 396.77 273.312 
" style="fill: none; stroke: #000000; stroke-width: 0.8; stroke-linejoin: miter; stroke-linecap: square"/>
   </g>
   <g id="patch_6">
    <path d="M 39.65 7.2 
L 396.77 7.2 
" style="fill: none; stroke: #000000; stroke-width: 0.8; stroke-linejoin: miter; stroke-linecap: square"/>
   </g>
  </g>
 </g>
 <defs>
  <clipPath id="p88a543f7c8">
   <rect x="39.65" y="7.2" width="357.12" height="266.112"/>
  </clipPath>
 </defs>
</svg>
