<?xml version="1.0" encoding="utf-8" standalone="no"?>
<!DOCTYPE svg PUBLIC "-//W3C//DTD SVG 1.1//EN"
  "http://www.w3.org/Graphics/SVG/1.1/DTD/svg11.dtd">
<!-- Created with matplotlib (https://matplotlib.org/) -->
<svg height="297.190125pt" version="1.1" viewBox="0 0 397.6075 297.190125" width="397.6075pt" xmlns="http://www.w3.org/2000/svg" xmlns:xlink="http://www.w3.org/1999/xlink">
 <metadata>
  <rdf:RDF xmlns:cc="http://creativecommons.org/ns#" xmlns:dc="http://purl.org/dc/elements/1.1/" xmlns:rdf="http://www.w3.org/1999/02/22-rdf-syntax-ns#">
   <cc:Work>
    <dc:type rdf:resource="http://purl.org/dc/dcmitype/StillImage"/>
    <dc:date>2020-10-25T14:42:54.904148</dc:date>
    <dc:format>image/svg+xml</dc:format>
    <dc:creator>
     <cc:Agent>
      <dc:title>Matplotlib v3.3.2, https://matplotlib.org/</dc:title>
     </cc:Agent>
    </dc:creator>
   </cc:Work>
  </rdf:RDF>
 </metadata>
 <defs>
  <style type="text/css">*{stroke-linecap:butt;stroke-linejoin:round;}</style>
 </defs>
 <g id="figure_1">
  <g id="patch_1">
   <path d="M 0 297.190125 
L 397.6075 297.190125 
L 397.6075 0 
L 0 0 
z
" style="fill:#ffffff;"/>
  </g>
  <g id="axes_1">
   <g id="patch_2">
    <path d="M 33.2875 273.312 
L 390.4075 273.312 
L 390.4075 7.2 
L 33.2875 7.2 
z
" style="fill:#ffffff;"/>
   </g>
   <g id="matplotlib.axis_1">
    <g id="xtick_1">
     <g id="line2d_1">
      <defs>
       <path d="M 0 0 
L 0 3.5 
" id="m855cd719a7" style="stroke:#000000;stroke-width:0.8;"/>
      </defs>
      <g>
       <use style="stroke:#000000;stroke-width:0.8;" x="49.520227" xlink:href="#m855cd719a7" y="273.312"/>
      </g>
     </g>
     <g id="text_1">
      <!-- 0.0 -->
      <g transform="translate(41.568665 287.910437)scale(0.1 -0.1)">
       <defs>
        <path d="M 31.78125 66.40625 
Q 24.171875 66.40625 20.328125 58.90625 
Q 16.5 51.421875 16.5 36.375 
Q 16.5 21.390625 20.328125 13.890625 
Q 24.171875 6.390625 31.78125 6.390625 
Q 39.453125 6.390625 43.28125 13.890625 
Q 47.125 21.390625 47.125 36.375 
Q 47.125 51.421875 43.28125 58.90625 
Q 39.453125 66.40625 31.78125 66.40625 
z
M 31.78125 74.21875 
Q 44.046875 74.21875 50.515625 64.515625 
Q 56.984375 54.828125 56.984375 36.375 
Q 56.984375 17.96875 50.515625 8.265625 
Q 44.046875 -1.421875 31.78125 -1.421875 
Q 19.53125 -1.421875 13.0625 8.265625 
Q 6.59375 17.96875 6.59375 36.375 
Q 6.59375 54.828125 13.0625 64.515625 
Q 19.53125 74.21875 31.78125 74.21875 
z
" id="DejaVuSans-48"/>
        <path d="M 10.6875 12.40625 
L 21 12.40625 
L 21 0 
L 10.6875 0 
z
" id="DejaVuSans-46"/>
       </defs>
       <use xlink:href="#DejaVuSans-48"/>
       <use x="63.623047" xlink:href="#DejaVuSans-46"/>
       <use x="95.410156" xlink:href="#DejaVuSans-48"/>
      </g>
     </g>
    </g>
    <g id="xtick_2">
     <g id="line2d_2">
      <g>
       <use style="stroke:#000000;stroke-width:0.8;" x="90.305974" xlink:href="#m855cd719a7" y="273.312"/>
      </g>
     </g>
     <g id="text_2">
      <!-- 2.5 -->
      <g transform="translate(82.354412 287.910437)scale(0.1 -0.1)">
       <defs>
        <path d="M 19.1875 8.296875 
L 53.609375 8.296875 
L 53.609375 0 
L 7.328125 0 
L 7.328125 8.296875 
Q 12.9375 14.109375 22.625 23.890625 
Q 32.328125 33.6875 34.8125 36.53125 
Q 39.546875 41.84375 41.421875 45.53125 
Q 43.3125 49.21875 43.3125 52.78125 
Q 43.3125 58.59375 39.234375 62.25 
Q 35.15625 65.921875 28.609375 65.921875 
Q 23.96875 65.921875 18.8125 64.3125 
Q 13.671875 62.703125 7.8125 59.421875 
L 7.8125 69.390625 
Q 13.765625 71.78125 18.9375 73 
Q 24.125 74.21875 28.421875 74.21875 
Q 39.75 74.21875 46.484375 68.546875 
Q 53.21875 62.890625 53.21875 53.421875 
Q 53.21875 48.921875 51.53125 44.890625 
Q 49.859375 40.875 45.40625 35.40625 
Q 44.1875 33.984375 37.640625 27.21875 
Q 31.109375 20.453125 19.1875 8.296875 
z
" id="DejaVuSans-50"/>
        <path d="M 10.796875 72.90625 
L 49.515625 72.90625 
L 49.515625 64.59375 
L 19.828125 64.59375 
L 19.828125 46.734375 
Q 21.96875 47.46875 24.109375 47.828125 
Q 26.265625 48.1875 28.421875 48.1875 
Q 40.625 48.1875 47.75 41.5 
Q 54.890625 34.8125 54.890625 23.390625 
Q 54.890625 11.625 47.5625 5.09375 
Q 40.234375 -1.421875 26.90625 -1.421875 
Q 22.3125 -1.421875 17.546875 -0.640625 
Q 12.796875 0.140625 7.71875 1.703125 
L 7.71875 11.625 
Q 12.109375 9.234375 16.796875 8.0625 
Q 21.484375 6.890625 26.703125 6.890625 
Q 35.15625 6.890625 40.078125 11.328125 
Q 45.015625 15.765625 45.015625 23.390625 
Q 45.015625 31 40.078125 35.4375 
Q 35.15625 39.890625 26.703125 39.890625 
Q 22.75 39.890625 18.8125 39.015625 
Q 14.890625 38.140625 10.796875 36.28125 
z
" id="DejaVuSans-53"/>
       </defs>
       <use xlink:href="#DejaVuSans-50"/>
       <use x="63.623047" xlink:href="#DejaVuSans-46"/>
       <use x="95.410156" xlink:href="#DejaVuSans-53"/>
      </g>
     </g>
    </g>
    <g id="xtick_3">
     <g id="line2d_3">
      <g>
       <use style="stroke:#000000;stroke-width:0.8;" x="131.091721" xlink:href="#m855cd719a7" y="273.312"/>
      </g>
     </g>
     <g id="text_3">
      <!-- 5.0 -->
      <g transform="translate(123.140159 287.910437)scale(0.1 -0.1)">
       <use xlink:href="#DejaVuSans-53"/>
       <use x="63.623047" xlink:href="#DejaVuSans-46"/>
       <use x="95.410156" xlink:href="#DejaVuSans-48"/>
      </g>
     </g>
    </g>
    <g id="xtick_4">
     <g id="line2d_4">
      <g>
       <use style="stroke:#000000;stroke-width:0.8;" x="171.877468" xlink:href="#m855cd719a7" y="273.312"/>
      </g>
     </g>
     <g id="text_4">
      <!-- 7.5 -->
      <g transform="translate(163.925906 287.910437)scale(0.1 -0.1)">
       <defs>
        <path d="M 8.203125 72.90625 
L 55.078125 72.90625 
L 55.078125 68.703125 
L 28.609375 0 
L 18.3125 0 
L 43.21875 64.59375 
L 8.203125 64.59375 
z
" id="DejaVuSans-55"/>
       </defs>
       <use xlink:href="#DejaVuSans-55"/>
       <use x="63.623047" xlink:href="#DejaVuSans-46"/>
       <use x="95.410156" xlink:href="#DejaVuSans-53"/>
      </g>
     </g>
    </g>
    <g id="xtick_5">
     <g id="line2d_5">
      <g>
       <use style="stroke:#000000;stroke-width:0.8;" x="212.663215" xlink:href="#m855cd719a7" y="273.312"/>
      </g>
     </g>
     <g id="text_5">
      <!-- 10.0 -->
      <g transform="translate(201.530402 287.910437)scale(0.1 -0.1)">
       <defs>
        <path d="M 12.40625 8.296875 
L 28.515625 8.296875 
L 28.515625 63.921875 
L 10.984375 60.40625 
L 10.984375 69.390625 
L 28.421875 72.90625 
L 38.28125 72.90625 
L 38.28125 8.296875 
L 54.390625 8.296875 
L 54.390625 0 
L 12.40625 0 
z
" id="DejaVuSans-49"/>
       </defs>
       <use xlink:href="#DejaVuSans-49"/>
       <use x="63.623047" xlink:href="#DejaVuSans-48"/>
       <use x="127.246094" xlink:href="#DejaVuSans-46"/>
       <use x="159.033203" xlink:href="#DejaVuSans-48"/>
      </g>
     </g>
    </g>
    <g id="xtick_6">
     <g id="line2d_6">
      <g>
       <use style="stroke:#000000;stroke-width:0.8;" x="253.448962" xlink:href="#m855cd719a7" y="273.312"/>
      </g>
     </g>
     <g id="text_6">
      <!-- 12.5 -->
      <g transform="translate(242.316149 287.910437)scale(0.1 -0.1)">
       <use xlink:href="#DejaVuSans-49"/>
       <use x="63.623047" xlink:href="#DejaVuSans-50"/>
       <use x="127.246094" xlink:href="#DejaVuSans-46"/>
       <use x="159.033203" xlink:href="#DejaVuSans-53"/>
      </g>
     </g>
    </g>
    <g id="xtick_7">
     <g id="line2d_7">
      <g>
       <use style="stroke:#000000;stroke-width:0.8;" x="294.234709" xlink:href="#m855cd719a7" y="273.312"/>
      </g>
     </g>
     <g id="text_7">
      <!-- 15.0 -->
      <g transform="translate(283.101896 287.910437)scale(0.1 -0.1)">
       <use xlink:href="#DejaVuSans-49"/>
       <use x="63.623047" xlink:href="#DejaVuSans-53"/>
       <use x="127.246094" xlink:href="#DejaVuSans-46"/>
       <use x="159.033203" xlink:href="#DejaVuSans-48"/>
      </g>
     </g>
    </g>
    <g id="xtick_8">
     <g id="line2d_8">
      <g>
       <use style="stroke:#000000;stroke-width:0.8;" x="335.020456" xlink:href="#m855cd719a7" y="273.312"/>
      </g>
     </g>
     <g id="text_8">
      <!-- 17.5 -->
      <g transform="translate(323.887643 287.910437)scale(0.1 -0.1)">
       <use xlink:href="#DejaVuSans-49"/>
       <use x="63.623047" xlink:href="#DejaVuSans-55"/>
       <use x="127.246094" xlink:href="#DejaVuSans-46"/>
       <use x="159.033203" xlink:href="#DejaVuSans-53"/>
      </g>
     </g>
    </g>
    <g id="xtick_9">
     <g id="line2d_9">
      <g>
       <use style="stroke:#000000;stroke-width:0.8;" x="375.806203" xlink:href="#m855cd719a7" y="273.312"/>
      </g>
     </g>
     <g id="text_9">
      <!-- 20.0 -->
      <g transform="translate(364.67339 287.910437)scale(0.1 -0.1)">
       <use xlink:href="#DejaVuSans-50"/>
       <use x="63.623047" xlink:href="#DejaVuSans-48"/>
       <use x="127.246094" xlink:href="#DejaVuSans-46"/>
       <use x="159.033203" xlink:href="#DejaVuSans-48"/>
      </g>
     </g>
    </g>
   </g>
   <g id="matplotlib.axis_2">
    <g id="ytick_1">
     <g id="line2d_10">
      <defs>
       <path d="M 0 0 
L -3.5 0 
" id="maba590b6fb" style="stroke:#000000;stroke-width:0.8;"/>
      </defs>
      <g>
       <use style="stroke:#000000;stroke-width:0.8;" x="33.2875" xlink:href="#maba590b6fb" y="261.216"/>
      </g>
     </g>
     <g id="text_10">
      <!-- 0 -->
      <g transform="translate(19.925 265.015219)scale(0.1 -0.1)">
       <use xlink:href="#DejaVuSans-48"/>
      </g>
     </g>
    </g>
    <g id="ytick_2">
     <g id="line2d_11">
      <g>
       <use style="stroke:#000000;stroke-width:0.8;" x="33.2875" xlink:href="#maba590b6fb" y="230.631479"/>
      </g>
     </g>
     <g id="text_11">
      <!-- 50 -->
      <g transform="translate(13.5625 234.430698)scale(0.1 -0.1)">
       <use xlink:href="#DejaVuSans-53"/>
       <use x="63.623047" xlink:href="#DejaVuSans-48"/>
      </g>
     </g>
    </g>
    <g id="ytick_3">
     <g id="line2d_12">
      <g>
       <use style="stroke:#000000;stroke-width:0.8;" x="33.2875" xlink:href="#maba590b6fb" y="200.046958"/>
      </g>
     </g>
     <g id="text_12">
      <!-- 100 -->
      <g transform="translate(7.2 203.846177)scale(0.1 -0.1)">
       <use xlink:href="#DejaVuSans-49"/>
       <use x="63.623047" xlink:href="#DejaVuSans-48"/>
       <use x="127.246094" xlink:href="#DejaVuSans-48"/>
      </g>
     </g>
    </g>
    <g id="ytick_4">
     <g id="line2d_13">
      <g>
       <use style="stroke:#000000;stroke-width:0.8;" x="33.2875" xlink:href="#maba590b6fb" y="169.462437"/>
      </g>
     </g>
     <g id="text_13">
      <!-- 150 -->
      <g transform="translate(7.2 173.261655)scale(0.1 -0.1)">
       <use xlink:href="#DejaVuSans-49"/>
       <use x="63.623047" xlink:href="#DejaVuSans-53"/>
       <use x="127.246094" xlink:href="#DejaVuSans-48"/>
      </g>
     </g>
    </g>
    <g id="ytick_5">
     <g id="line2d_14">
      <g>
       <use style="stroke:#000000;stroke-width:0.8;" x="33.2875" xlink:href="#maba590b6fb" y="138.877916"/>
      </g>
     </g>
     <g id="text_14">
      <!-- 200 -->
      <g transform="translate(7.2 142.677134)scale(0.1 -0.1)">
       <use xlink:href="#DejaVuSans-50"/>
       <use x="63.623047" xlink:href="#DejaVuSans-48"/>
       <use x="127.246094" xlink:href="#DejaVuSans-48"/>
      </g>
     </g>
    </g>
    <g id="ytick_6">
     <g id="line2d_15">
      <g>
       <use style="stroke:#000000;stroke-width:0.8;" x="33.2875" xlink:href="#maba590b6fb" y="108.293394"/>
      </g>
     </g>
     <g id="text_15">
      <!-- 250 -->
      <g transform="translate(7.2 112.092613)scale(0.1 -0.1)">
       <use xlink:href="#DejaVuSans-50"/>
       <use x="63.623047" xlink:href="#DejaVuSans-53"/>
       <use x="127.246094" xlink:href="#DejaVuSans-48"/>
      </g>
     </g>
    </g>
    <g id="ytick_7">
     <g id="line2d_16">
      <g>
       <use style="stroke:#000000;stroke-width:0.8;" x="33.2875" xlink:href="#maba590b6fb" y="77.708873"/>
      </g>
     </g>
     <g id="text_16">
      <!-- 300 -->
      <g transform="translate(7.2 81.508092)scale(0.1 -0.1)">
       <defs>
        <path d="M 40.578125 39.3125 
Q 47.65625 37.796875 51.625 33 
Q 55.609375 28.21875 55.609375 21.1875 
Q 55.609375 10.40625 48.1875 4.484375 
Q 40.765625 -1.421875 27.09375 -1.421875 
Q 22.515625 -1.421875 17.65625 -0.515625 
Q 12.796875 0.390625 7.625 2.203125 
L 7.625 11.71875 
Q 11.71875 9.328125 16.59375 8.109375 
Q 21.484375 6.890625 26.8125 6.890625 
Q 36.078125 6.890625 40.9375 10.546875 
Q 45.796875 14.203125 45.796875 21.1875 
Q 45.796875 27.640625 41.28125 31.265625 
Q 36.765625 34.90625 28.71875 34.90625 
L 20.21875 34.90625 
L 20.21875 43.015625 
L 29.109375 43.015625 
Q 36.375 43.015625 40.234375 45.921875 
Q 44.09375 48.828125 44.09375 54.296875 
Q 44.09375 59.90625 40.109375 62.90625 
Q 36.140625 65.921875 28.71875 65.921875 
Q 24.65625 65.921875 20.015625 65.03125 
Q 15.375 64.15625 9.8125 62.3125 
L 9.8125 71.09375 
Q 15.4375 72.65625 20.34375 73.4375 
Q 25.25 74.21875 29.59375 74.21875 
Q 40.828125 74.21875 47.359375 69.109375 
Q 53.90625 64.015625 53.90625 55.328125 
Q 53.90625 49.265625 50.4375 45.09375 
Q 46.96875 40.921875 40.578125 39.3125 
z
" id="DejaVuSans-51"/>
       </defs>
       <use xlink:href="#DejaVuSans-51"/>
       <use x="63.623047" xlink:href="#DejaVuSans-48"/>
       <use x="127.246094" xlink:href="#DejaVuSans-48"/>
      </g>
     </g>
    </g>
    <g id="ytick_8">
     <g id="line2d_17">
      <g>
       <use style="stroke:#000000;stroke-width:0.8;" x="33.2875" xlink:href="#maba590b6fb" y="47.124352"/>
      </g>
     </g>
     <g id="text_17">
      <!-- 350 -->
      <g transform="translate(7.2 50.923571)scale(0.1 -0.1)">
       <use xlink:href="#DejaVuSans-51"/>
       <use x="63.623047" xlink:href="#DejaVuSans-53"/>
       <use x="127.246094" xlink:href="#DejaVuSans-48"/>
      </g>
     </g>
    </g>
    <g id="ytick_9">
     <g id="line2d_18">
      <g>
       <use style="stroke:#000000;stroke-width:0.8;" x="33.2875" xlink:href="#maba590b6fb" y="16.539831"/>
      </g>
     </g>
     <g id="text_18">
      <!-- 400 -->
      <g transform="translate(7.2 20.33905)scale(0.1 -0.1)">
       <defs>
        <path d="M 37.796875 64.3125 
L 12.890625 25.390625 
L 37.796875 25.390625 
z
M 35.203125 72.90625 
L 47.609375 72.90625 
L 47.609375 25.390625 
L 58.015625 25.390625 
L 58.015625 17.1875 
L 47.609375 17.1875 
L 47.609375 0 
L 37.796875 0 
L 37.796875 17.1875 
L 4.890625 17.1875 
L 4.890625 26.703125 
z
" id="DejaVuSans-52"/>
       </defs>
       <use xlink:href="#DejaVuSans-52"/>
       <use x="63.623047" xlink:href="#DejaVuSans-48"/>
       <use x="127.246094" xlink:href="#DejaVuSans-48"/>
      </g>
     </g>
    </g>
   </g>
   <g id="line2d_19">
    <path clip-path="url(#p53087796c1)" d="M 49.520227 261.216 
L 53.598802 108.293394 
L 57.677377 52.036312 
L 61.755951 31.340488 
L 65.834526 23.726919 
L 69.913101 20.926044 
L 73.991675 19.89566 
L 78.07025 19.516602 
L 82.148825 19.377155 
L 86.227399 19.325855 
L 90.305974 19.306983 
L 94.384549 19.30004 
L 98.463124 19.297486 
L 102.541698 19.296547 
L 106.620273 19.296201 
L 110.698848 19.296074 
L 114.777422 19.296027 
L 118.855997 19.29601 
L 122.934572 19.296004 
L 127.013146 19.296001 
L 131.091721 19.296 
L 135.170296 19.296 
L 139.24887 19.296 
L 143.327445 19.296 
L 147.40602 19.296 
L 151.484595 19.296 
L 155.563169 19.296 
L 159.641744 19.296 
L 163.720319 19.296 
L 167.798893 19.296 
L 171.877468 19.296 
L 175.956043 19.296 
L 180.034617 19.296 
L 184.113192 19.296 
L 188.191767 19.296 
L 192.270341 19.296 
L 196.348916 19.296 
L 200.427491 19.296 
L 204.506066 19.296 
L 208.58464 19.296 
L 212.663215 19.296 
L 216.74179 19.296 
L 220.820364 19.296 
L 224.898939 19.296 
L 228.977514 19.296 
L 233.056088 19.296 
L 237.134663 19.296 
L 241.213238 19.296 
L 245.291812 19.296 
L 249.370387 19.296 
L 253.448962 19.296 
L 257.527537 19.296 
L 261.606111 19.296 
L 265.684686 19.296 
L 269.763261 19.296 
L 273.841835 19.296 
L 277.92041 19.296 
L 281.998985 19.296 
L 286.077559 19.296 
L 290.156134 19.296 
L 294.234709 19.296 
L 298.313283 19.296 
L 302.391858 19.296 
L 306.470433 19.296 
L 310.549008 19.296 
L 314.627582 19.296 
L 318.706157 19.296 
L 322.784732 19.296 
L 326.863306 19.296 
L 330.941881 19.296 
L 335.020456 19.296 
L 339.09903 19.296 
L 343.177605 19.296 
L 347.25618 19.296 
L 351.334754 19.296 
L 355.413329 19.296 
L 359.491904 19.296 
L 363.570479 19.296 
L 367.649053 19.296 
L 371.727628 19.296 
" style="fill:none;stroke:#1f77b4;stroke-linecap:square;stroke-width:1.5;"/>
   </g>
   <g id="line2d_20">
    <path clip-path="url(#p53087796c1)" d="M 49.520227 261.216 
L 53.598802 261.216 
L 57.677377 164.550477 
L 61.755951 93.42796 
L 65.834526 54.181192 
L 69.913101 34.93042 
L 73.991675 26.077966 
L 78.07025 22.170003 
L 82.148825 20.492734 
L 86.227399 19.787554 
L 90.305974 19.495705 
L 94.384549 19.37641 
L 98.463124 19.328135 
L 102.541698 19.308761 
L 106.620273 19.30104 
L 110.698848 19.297981 
L 114.777422 19.296776 
L 118.855997 19.296303 
L 122.934572 19.296118 
L 127.013146 19.296046 
L 131.091721 19.296018 
L 135.170296 19.296007 
L 139.24887 19.296003 
L 143.327445 19.296001 
L 147.40602 19.296 
L 151.484595 19.296 
L 155.563169 19.296 
L 159.641744 19.296 
L 163.720319 19.296 
L 167.798893 19.296 
L 171.877468 19.296 
L 175.956043 19.296 
L 180.034617 19.296 
L 184.113192 19.296 
L 188.191767 19.296 
L 192.270341 19.296 
L 196.348916 19.296 
L 200.427491 19.296 
L 204.506066 19.296 
L 208.58464 19.296 
L 212.663215 19.296 
L 216.74179 19.296 
L 220.820364 19.296 
L 224.898939 19.296 
L 228.977514 19.296 
L 233.056088 19.296 
L 237.134663 19.296 
L 241.213238 19.296 
L 245.291812 19.296 
L 249.370387 19.296 
L 253.448962 19.296 
L 257.527537 19.296 
L 261.606111 19.296 
L 265.684686 19.296 
L 269.763261 19.296 
L 273.841835 19.296 
L 277.92041 19.296 
L 281.998985 19.296 
L 286.077559 19.296 
L 290.156134 19.296 
L 294.234709 19.296 
L 298.313283 19.296 
L 302.391858 19.296 
L 306.470433 19.296 
L 310.549008 19.296 
L 314.627582 19.296 
L 318.706157 19.296 
L 322.784732 19.296 
L 326.863306 19.296 
L 330.941881 19.296 
L 335.020456 19.296 
L 339.09903 19.296 
L 343.177605 19.296 
L 347.25618 19.296 
L 351.334754 19.296 
L 355.413329 19.296 
L 359.491904 19.296 
L 363.570479 19.296 
L 367.649053 19.296 
L 371.727628 19.296 
" style="fill:none;stroke:#ff7f0e;stroke-linecap:square;stroke-width:1.5;"/>
   </g>
   <g id="line2d_21">
    <path clip-path="url(#p53087796c1)" d="M 49.520227 261.216 
L 51.151657 211.057385 
L 52.783087 178.637793 
L 54.414517 152.335105 
L 56.045947 135.819463 
L 57.677377 121.750584 
L 59.308807 111.963537 
L 60.940236 106.458323 
L 62.571666 114.410299 
L 64.203096 116.24537 
L 65.834526 111.963537 
L 67.465956 104.623252 
L 69.097386 99.729728 
L 70.728816 101.5648 
L 72.360246 100.953109 
L 73.991675 113.186918 
L 75.623105 110.740156 
L 77.254535 111.963537 
L 78.885965 118.080441 
L 80.517395 112.575227 
L 82.148825 110.740156 
L 83.780255 115.021989 
L 85.411685 116.24537 
L 87.043114 113.798608 
L 88.674544 107.681704 
L 90.305974 108.905085 
L 91.937404 108.293394 
L 93.568834 114.410299 
L 95.200264 108.293394 
L 96.831694 113.798608 
L 98.463124 118.080441 
L 100.094553 110.740156 
L 101.725983 110.740156 
L 103.357413 107.070014 
L 104.988843 105.846633 
L 106.620273 108.293394 
L 108.251703 105.846633 
L 109.883133 105.846633 
L 111.514563 101.5648 
L 113.145992 96.059586 
L 114.777422 94.836205 
L 116.408852 105.234942 
L 118.040282 100.341419 
L 119.671712 102.788181 
L 121.303142 97.894657 
L 122.934572 101.5648 
L 124.566002 102.788181 
L 126.197431 99.729728 
L 127.828861 100.341419 
L 129.460291 92.389443 
L 131.091721 97.282967 
L 132.723151 105.846633 
L 134.354581 98.506348 
L 135.986011 105.234942 
L 137.617441 105.846633 
L 139.24887 99.118038 
L 140.8803 105.846633 
L 142.51173 111.963537 
L 144.14316 113.186918 
L 145.77459 115.633679 
L 147.40602 111.351847 
L 149.03745 95.447896 
L 150.66888 100.953109 
L 152.30031 107.681704 
L 153.931739 111.351847 
L 155.563169 110.128466 
L 157.194599 116.85706 
L 158.826029 108.905085 
L 160.457459 106.458323 
L 162.088889 110.740156 
L 163.720319 114.410299 
L 165.351749 105.234942 
L 166.983178 105.846633 
L 168.614608 104.011561 
L 170.246038 102.788181 
L 171.877468 91.777753 
L 173.508898 94.224515 
L 175.140328 102.17649 
L 176.771758 103.399871 
L 178.403188 105.846633 
L 181.666047 107.070014 
L 183.297477 104.623252 
L 184.928907 107.681704 
L 186.560337 98.506348 
L 188.191767 112.575227 
L 191.454627 119.915512 
L 193.086056 117.468751 
L 194.717486 108.293394 
L 196.348916 102.788181 
L 197.980346 102.17649 
L 199.611776 107.681704 
L 201.243206 114.410299 
L 202.874636 117.468751 
L 204.506066 110.128466 
L 206.137495 117.468751 
L 207.768925 111.963537 
L 209.400355 116.85706 
L 211.031785 108.905085 
L 214.294645 112.575227 
L 215.926075 107.070014 
L 217.557505 106.458323 
L 219.188934 114.410299 
L 220.820364 113.186918 
L 222.451794 108.293394 
L 224.083224 99.118038 
L 225.714654 107.070014 
L 228.977514 88.10761 
L 230.608944 96.059586 
L 232.240373 101.5648 
L 233.871803 112.575227 
L 235.503233 107.070014 
L 237.134663 111.351847 
L 238.766093 106.458323 
L 240.397523 114.410299 
L 242.028953 107.681704 
L 243.660383 110.740156 
L 245.291812 118.080441 
L 246.923242 112.575227 
L 248.554672 113.186918 
L 250.186102 110.740156 
L 251.817532 112.575227 
L 253.448962 112.575227 
L 255.080392 104.011561 
L 256.711822 102.788181 
L 259.974681 101.5648 
L 261.606111 104.623252 
L 263.237541 104.623252 
L 264.868971 105.846633 
L 266.500401 111.963537 
L 268.131831 110.740156 
L 269.763261 111.963537 
L 271.39469 116.24537 
L 273.02612 104.623252 
L 274.65755 100.341419 
L 276.28898 102.17649 
L 277.92041 98.506348 
L 279.55184 91.777753 
L 281.18327 99.729728 
L 282.8147 99.729728 
L 284.44613 100.341419 
L 286.077559 110.128466 
L 287.708989 102.17649 
L 289.340419 112.575227 
L 290.971849 108.905085 
L 292.603279 110.128466 
L 294.234709 110.128466 
L 295.866139 111.963537 
L 297.497569 111.351847 
L 299.128998 108.905085 
L 300.760428 112.575227 
L 302.391858 100.341419 
L 304.023288 102.788181 
L 305.654718 100.953109 
L 307.286148 99.729728 
L 308.917578 103.399871 
L 310.549008 113.186918 
L 312.180437 116.24537 
L 313.811867 120.527203 
L 315.443297 113.798608 
L 317.074727 102.788181 
L 318.706157 114.410299 
L 320.337587 115.021989 
L 321.969017 112.575227 
L 323.600447 119.303822 
L 325.231876 110.128466 
L 326.863306 111.963537 
L 328.494736 100.341419 
L 330.126166 114.410299 
L 331.757596 126.032417 
L 333.389026 116.85706 
L 335.020456 110.128466 
L 336.651886 105.234942 
L 338.283315 114.410299 
L 339.914745 114.410299 
L 341.546175 116.24537 
L 343.177605 111.351847 
L 344.809035 108.905085 
L 346.440465 113.186918 
L 348.071895 108.905085 
L 349.703325 116.85706 
L 351.334754 116.85706 
L 352.966184 116.24537 
L 354.597614 119.915512 
L 356.229044 122.973965 
L 357.860474 125.420726 
L 359.491904 121.750584 
L 361.123334 119.303822 
L 362.754764 118.080441 
L 364.386193 114.410299 
L 366.017623 102.17649 
L 367.649053 105.234942 
L 369.280483 111.963537 
L 370.911913 115.021989 
L 372.543343 115.021989 
L 374.174773 110.740156 
L 374.174773 110.740156 
" style="fill:none;stroke:#2ca02c;stroke-linecap:square;stroke-width:1.5;"/>
   </g>
   <g id="line2d_22">
    <path clip-path="url(#p53087796c1)" d="M 49.520227 261.216 
L 51.151657 252.040644 
L 54.414517 211.057385 
L 56.045947 185.366388 
L 57.677377 167.627365 
L 59.308807 157.840319 
L 60.940236 157.228628 
L 62.571666 135.207773 
L 64.203096 122.362274 
L 65.834526 131.53763 
L 67.465956 123.585655 
L 69.097386 126.032417 
L 70.728816 116.85706 
L 72.360246 99.118038 
L 73.991675 97.894657 
L 75.623105 108.293394 
L 77.254535 102.788181 
L 78.885965 101.5648 
L 80.517395 113.798608 
L 82.148825 118.692132 
L 83.780255 108.293394 
L 85.411685 106.458323 
L 87.043114 104.011561 
L 88.674544 106.458323 
L 90.305974 102.788181 
L 91.937404 104.623252 
L 93.568834 104.623252 
L 95.200264 122.973965 
L 96.831694 123.585655 
L 98.463124 119.303822 
L 100.094553 116.85706 
L 101.725983 113.798608 
L 103.357413 111.963537 
L 104.988843 118.080441 
L 106.620273 116.85706 
L 108.251703 119.303822 
L 109.883133 112.575227 
L 111.514563 104.623252 
L 113.145992 112.575227 
L 114.777422 111.351847 
L 116.408852 101.5648 
L 118.040282 114.410299 
L 119.671712 114.410299 
L 121.303142 115.633679 
L 122.934572 108.905085 
L 124.566002 111.963537 
L 126.197431 113.186918 
L 127.828861 110.128466 
L 129.460291 115.633679 
L 131.091721 111.963537 
L 132.723151 97.894657 
L 134.354581 99.729728 
L 135.986011 104.623252 
L 137.617441 104.623252 
L 139.24887 113.798608 
L 140.8803 106.458323 
L 142.51173 91.777753 
L 144.14316 92.389443 
L 147.40602 112.575227 
L 149.03745 124.197345 
L 150.66888 107.681704 
L 152.30031 104.623252 
L 153.931739 108.293394 
L 155.563169 111.351847 
L 157.194599 105.846633 
L 158.826029 117.468751 
L 160.457459 110.740156 
L 162.088889 111.963537 
L 163.720319 102.788181 
L 165.351749 107.681704 
L 166.983178 105.846633 
L 168.614608 99.729728 
L 170.246038 110.740156 
L 171.877468 118.692132 
L 173.508898 102.17649 
L 175.140328 95.447896 
L 176.771758 100.953109 
L 178.403188 94.224515 
L 181.666047 115.021989 
L 183.297477 109.516775 
L 184.928907 105.234942 
L 186.560337 113.798608 
L 188.191767 91.777753 
L 189.823197 98.506348 
L 191.454627 96.671276 
L 193.086056 115.021989 
L 194.717486 135.819463 
L 196.348916 129.702559 
L 197.980346 122.973965 
L 199.611776 108.905085 
L 201.243206 105.234942 
L 202.874636 108.293394 
L 204.506066 116.85706 
L 206.137495 116.24537 
L 207.768925 121.750584 
L 209.400355 110.740156 
L 211.031785 121.750584 
L 212.663215 113.798608 
L 214.294645 109.516775 
L 215.926075 115.633679 
L 217.557505 118.692132 
L 219.188934 113.186918 
L 220.820364 111.351847 
L 222.451794 110.128466 
L 224.083224 119.915512 
L 225.714654 107.070014 
L 227.346084 115.633679 
L 228.977514 119.303822 
L 230.608944 116.24537 
L 232.240373 121.750584 
L 233.871803 104.011561 
L 235.503233 104.623252 
L 237.134663 111.351847 
L 238.766093 105.846633 
L 240.397523 95.447896 
L 242.028953 100.953109 
L 243.660383 102.17649 
L 245.291812 100.953109 
L 246.923242 111.963537 
L 248.554672 110.128466 
L 250.186102 110.128466 
L 251.817532 113.186918 
L 253.448962 102.17649 
L 255.080392 106.458323 
L 256.711822 98.506348 
L 258.343251 102.17649 
L 259.974681 97.894657 
L 261.606111 94.224515 
L 263.237541 101.5648 
L 264.868971 111.963537 
L 266.500401 113.186918 
L 268.131831 113.798608 
L 269.763261 112.575227 
L 271.39469 112.575227 
L 273.02612 115.021989 
L 274.65755 116.24537 
L 276.28898 111.963537 
L 277.92041 116.24537 
L 279.55184 118.080441 
L 281.18327 106.458323 
L 282.8147 107.681704 
L 284.44613 97.894657 
L 286.077559 89.330991 
L 287.708989 103.399871 
L 289.340419 101.5648 
L 290.971849 113.798608 
L 292.603279 109.516775 
L 294.234709 113.186918 
L 295.866139 109.516775 
L 297.497569 100.953109 
L 299.128998 96.671276 
L 300.760428 94.836205 
L 302.391858 109.516775 
L 304.023288 110.128466 
L 305.654718 114.410299 
L 307.286148 119.915512 
L 308.917578 109.516775 
L 310.549008 95.447896 
L 312.180437 93.001134 
L 313.811867 92.389443 
L 315.443297 99.729728 
L 317.074727 105.234942 
L 318.706157 102.788181 
L 320.337587 97.282967 
L 321.969017 104.623252 
L 323.600447 104.623252 
L 325.231876 115.021989 
L 326.863306 108.905085 
L 328.494736 113.186918 
L 330.126166 105.846633 
L 331.757596 99.729728 
L 333.389026 111.351847 
L 335.020456 114.410299 
L 336.651886 109.516775 
L 338.283315 100.341419 
L 339.914745 110.128466 
L 341.546175 110.128466 
L 343.177605 115.633679 
L 344.809035 111.351847 
L 346.440465 107.681704 
L 348.071895 113.798608 
L 349.703325 108.293394 
L 351.334754 108.293394 
L 352.966184 110.740156 
L 354.597614 110.740156 
L 356.229044 105.846633 
L 357.860474 111.351847 
L 359.491904 116.24537 
L 361.123334 109.516775 
L 362.754764 113.798608 
L 364.386193 110.740156 
L 366.017623 118.080441 
L 367.649053 114.410299 
L 369.280483 106.458323 
L 370.911913 105.846633 
L 372.543343 108.293394 
L 374.174773 113.186918 
L 374.174773 113.186918 
" style="fill:none;stroke:#d62728;stroke-linecap:square;stroke-width:1.5;"/>
   </g>
   <g id="patch_3">
    <path d="M 33.2875 273.312 
L 33.2875 7.2 
" style="fill:none;stroke:#000000;stroke-linecap:square;stroke-linejoin:miter;stroke-width:0.8;"/>
   </g>
   <g id="patch_4">
    <path d="M 390.4075 273.312 
L 390.4075 7.2 
" style="fill:none;stroke:#000000;stroke-linecap:square;stroke-linejoin:miter;stroke-width:0.8;"/>
   </g>
   <g id="patch_5">
    <path d="M 33.2875 273.312 
L 390.4075 273.312 
" style="fill:none;stroke:#000000;stroke-linecap:square;stroke-linejoin:miter;stroke-width:0.8;"/>
   </g>
   <g id="patch_6">
    <path d="M 33.2875 7.2 
L 390.4075 7.2 
" style="fill:none;stroke:#000000;stroke-linecap:square;stroke-linejoin:miter;stroke-width:0.8;"/>
   </g>
  </g>
 </g>
 <defs>
  <clipPath id="p53087796c1">
   <rect height="266.112" width="357.12" x="33.2875" y="7.2"/>
  </clipPath>
 </defs>
</svg>
