<?xml version="1.0" encoding="utf-8" standalone="no"?>
<!DOCTYPE svg PUBLIC "-//W3C//DTD SVG 1.1//EN"
  "http://www.w3.org/Graphics/SVG/1.1/DTD/svg11.dtd">
<!-- Created with matplotlib (https://matplotlib.org/) -->
<svg height="297.190125pt" version="1.1" viewBox="0 0 403.97 297.190125" width="403.97pt" xmlns="http://www.w3.org/2000/svg" xmlns:xlink="http://www.w3.org/1999/xlink">
 <metadata>
  <rdf:RDF xmlns:cc="http://creativecommons.org/ns#" xmlns:dc="http://purl.org/dc/elements/1.1/" xmlns:rdf="http://www.w3.org/1999/02/22-rdf-syntax-ns#">
   <cc:Work>
    <dc:type rdf:resource="http://purl.org/dc/dcmitype/StillImage"/>
    <dc:date>2020-10-25T14:42:34.227534</dc:date>
    <dc:format>image/svg+xml</dc:format>
    <dc:creator>
     <cc:Agent>
      <dc:title>Matplotlib v3.3.2, https://matplotlib.org/</dc:title>
     </cc:Agent>
    </dc:creator>
   </cc:Work>
  </rdf:RDF>
 </metadata>
 <defs>
  <style type="text/css">*{stroke-linecap:butt;stroke-linejoin:round;}</style>
 </defs>
 <g id="figure_1">
  <g id="patch_1">
   <path d="M 0 297.190125 
L 403.97 297.190125 
L 403.97 0 
L 0 0 
z
" style="fill:#ffffff;"/>
  </g>
  <g id="axes_1">
   <g id="patch_2">
    <path d="M 39.65 273.312 
L 396.77 273.312 
L 396.77 7.2 
L 39.65 7.2 
z
" style="fill:#ffffff;"/>
   </g>
   <g id="matplotlib.axis_1">
    <g id="xtick_1">
     <g id="line2d_1">
      <defs>
       <path d="M 0 0 
L 0 3.5 
" id="mf93e59935a" style="stroke:#000000;stroke-width:0.8;"/>
      </defs>
      <g>
       <use style="stroke:#000000;stroke-width:0.8;" x="55.882727" xlink:href="#mf93e59935a" y="273.312"/>
      </g>
     </g>
     <g id="text_1">
      <!-- 0.0 -->
      <g transform="translate(47.931165 287.910437)scale(0.1 -0.1)">
       <defs>
        <path d="M 31.78125 66.40625 
Q 24.171875 66.40625 20.328125 58.90625 
Q 16.5 51.421875 16.5 36.375 
Q 16.5 21.390625 20.328125 13.890625 
Q 24.171875 6.390625 31.78125 6.390625 
Q 39.453125 6.390625 43.28125 13.890625 
Q 47.125 21.390625 47.125 36.375 
Q 47.125 51.421875 43.28125 58.90625 
Q 39.453125 66.40625 31.78125 66.40625 
z
M 31.78125 74.21875 
Q 44.046875 74.21875 50.515625 64.515625 
Q 56.984375 54.828125 56.984375 36.375 
Q 56.984375 17.96875 50.515625 8.265625 
Q 44.046875 -1.421875 31.78125 -1.421875 
Q 19.53125 -1.421875 13.0625 8.265625 
Q 6.59375 17.96875 6.59375 36.375 
Q 6.59375 54.828125 13.0625 64.515625 
Q 19.53125 74.21875 31.78125 74.21875 
z
" id="DejaVuSans-48"/>
        <path d="M 10.6875 12.40625 
L 21 12.40625 
L 21 0 
L 10.6875 0 
z
" id="DejaVuSans-46"/>
       </defs>
       <use xlink:href="#DejaVuSans-48"/>
       <use x="63.623047" xlink:href="#DejaVuSans-46"/>
       <use x="95.410156" xlink:href="#DejaVuSans-48"/>
      </g>
     </g>
    </g>
    <g id="xtick_2">
     <g id="line2d_2">
      <g>
       <use style="stroke:#000000;stroke-width:0.8;" x="96.668474" xlink:href="#mf93e59935a" y="273.312"/>
      </g>
     </g>
     <g id="text_2">
      <!-- 2.5 -->
      <g transform="translate(88.716912 287.910437)scale(0.1 -0.1)">
       <defs>
        <path d="M 19.1875 8.296875 
L 53.609375 8.296875 
L 53.609375 0 
L 7.328125 0 
L 7.328125 8.296875 
Q 12.9375 14.109375 22.625 23.890625 
Q 32.328125 33.6875 34.8125 36.53125 
Q 39.546875 41.84375 41.421875 45.53125 
Q 43.3125 49.21875 43.3125 52.78125 
Q 43.3125 58.59375 39.234375 62.25 
Q 35.15625 65.921875 28.609375 65.921875 
Q 23.96875 65.921875 18.8125 64.3125 
Q 13.671875 62.703125 7.8125 59.421875 
L 7.8125 69.390625 
Q 13.765625 71.78125 18.9375 73 
Q 24.125 74.21875 28.421875 74.21875 
Q 39.75 74.21875 46.484375 68.546875 
Q 53.21875 62.890625 53.21875 53.421875 
Q 53.21875 48.921875 51.53125 44.890625 
Q 49.859375 40.875 45.40625 35.40625 
Q 44.1875 33.984375 37.640625 27.21875 
Q 31.109375 20.453125 19.1875 8.296875 
z
" id="DejaVuSans-50"/>
        <path d="M 10.796875 72.90625 
L 49.515625 72.90625 
L 49.515625 64.59375 
L 19.828125 64.59375 
L 19.828125 46.734375 
Q 21.96875 47.46875 24.109375 47.828125 
Q 26.265625 48.1875 28.421875 48.1875 
Q 40.625 48.1875 47.75 41.5 
Q 54.890625 34.8125 54.890625 23.390625 
Q 54.890625 11.625 47.5625 5.09375 
Q 40.234375 -1.421875 26.90625 -1.421875 
Q 22.3125 -1.421875 17.546875 -0.640625 
Q 12.796875 0.140625 7.71875 1.703125 
L 7.71875 11.625 
Q 12.109375 9.234375 16.796875 8.0625 
Q 21.484375 6.890625 26.703125 6.890625 
Q 35.15625 6.890625 40.078125 11.328125 
Q 45.015625 15.765625 45.015625 23.390625 
Q 45.015625 31 40.078125 35.4375 
Q 35.15625 39.890625 26.703125 39.890625 
Q 22.75 39.890625 18.8125 39.015625 
Q 14.890625 38.140625 10.796875 36.28125 
z
" id="DejaVuSans-53"/>
       </defs>
       <use xlink:href="#DejaVuSans-50"/>
       <use x="63.623047" xlink:href="#DejaVuSans-46"/>
       <use x="95.410156" xlink:href="#DejaVuSans-53"/>
      </g>
     </g>
    </g>
    <g id="xtick_3">
     <g id="line2d_3">
      <g>
       <use style="stroke:#000000;stroke-width:0.8;" x="137.454221" xlink:href="#mf93e59935a" y="273.312"/>
      </g>
     </g>
     <g id="text_3">
      <!-- 5.0 -->
      <g transform="translate(129.502659 287.910437)scale(0.1 -0.1)">
       <use xlink:href="#DejaVuSans-53"/>
       <use x="63.623047" xlink:href="#DejaVuSans-46"/>
       <use x="95.410156" xlink:href="#DejaVuSans-48"/>
      </g>
     </g>
    </g>
    <g id="xtick_4">
     <g id="line2d_4">
      <g>
       <use style="stroke:#000000;stroke-width:0.8;" x="178.239968" xlink:href="#mf93e59935a" y="273.312"/>
      </g>
     </g>
     <g id="text_4">
      <!-- 7.5 -->
      <g transform="translate(170.288406 287.910437)scale(0.1 -0.1)">
       <defs>
        <path d="M 8.203125 72.90625 
L 55.078125 72.90625 
L 55.078125 68.703125 
L 28.609375 0 
L 18.3125 0 
L 43.21875 64.59375 
L 8.203125 64.59375 
z
" id="DejaVuSans-55"/>
       </defs>
       <use xlink:href="#DejaVuSans-55"/>
       <use x="63.623047" xlink:href="#DejaVuSans-46"/>
       <use x="95.410156" xlink:href="#DejaVuSans-53"/>
      </g>
     </g>
    </g>
    <g id="xtick_5">
     <g id="line2d_5">
      <g>
       <use style="stroke:#000000;stroke-width:0.8;" x="219.025715" xlink:href="#mf93e59935a" y="273.312"/>
      </g>
     </g>
     <g id="text_5">
      <!-- 10.0 -->
      <g transform="translate(207.892902 287.910437)scale(0.1 -0.1)">
       <defs>
        <path d="M 12.40625 8.296875 
L 28.515625 8.296875 
L 28.515625 63.921875 
L 10.984375 60.40625 
L 10.984375 69.390625 
L 28.421875 72.90625 
L 38.28125 72.90625 
L 38.28125 8.296875 
L 54.390625 8.296875 
L 54.390625 0 
L 12.40625 0 
z
" id="DejaVuSans-49"/>
       </defs>
       <use xlink:href="#DejaVuSans-49"/>
       <use x="63.623047" xlink:href="#DejaVuSans-48"/>
       <use x="127.246094" xlink:href="#DejaVuSans-46"/>
       <use x="159.033203" xlink:href="#DejaVuSans-48"/>
      </g>
     </g>
    </g>
    <g id="xtick_6">
     <g id="line2d_6">
      <g>
       <use style="stroke:#000000;stroke-width:0.8;" x="259.811462" xlink:href="#mf93e59935a" y="273.312"/>
      </g>
     </g>
     <g id="text_6">
      <!-- 12.5 -->
      <g transform="translate(248.678649 287.910437)scale(0.1 -0.1)">
       <use xlink:href="#DejaVuSans-49"/>
       <use x="63.623047" xlink:href="#DejaVuSans-50"/>
       <use x="127.246094" xlink:href="#DejaVuSans-46"/>
       <use x="159.033203" xlink:href="#DejaVuSans-53"/>
      </g>
     </g>
    </g>
    <g id="xtick_7">
     <g id="line2d_7">
      <g>
       <use style="stroke:#000000;stroke-width:0.8;" x="300.597209" xlink:href="#mf93e59935a" y="273.312"/>
      </g>
     </g>
     <g id="text_7">
      <!-- 15.0 -->
      <g transform="translate(289.464396 287.910437)scale(0.1 -0.1)">
       <use xlink:href="#DejaVuSans-49"/>
       <use x="63.623047" xlink:href="#DejaVuSans-53"/>
       <use x="127.246094" xlink:href="#DejaVuSans-46"/>
       <use x="159.033203" xlink:href="#DejaVuSans-48"/>
      </g>
     </g>
    </g>
    <g id="xtick_8">
     <g id="line2d_8">
      <g>
       <use style="stroke:#000000;stroke-width:0.8;" x="341.382956" xlink:href="#mf93e59935a" y="273.312"/>
      </g>
     </g>
     <g id="text_8">
      <!-- 17.5 -->
      <g transform="translate(330.250143 287.910437)scale(0.1 -0.1)">
       <use xlink:href="#DejaVuSans-49"/>
       <use x="63.623047" xlink:href="#DejaVuSans-55"/>
       <use x="127.246094" xlink:href="#DejaVuSans-46"/>
       <use x="159.033203" xlink:href="#DejaVuSans-53"/>
      </g>
     </g>
    </g>
    <g id="xtick_9">
     <g id="line2d_9">
      <g>
       <use style="stroke:#000000;stroke-width:0.8;" x="382.168703" xlink:href="#mf93e59935a" y="273.312"/>
      </g>
     </g>
     <g id="text_9">
      <!-- 20.0 -->
      <g transform="translate(371.03589 287.910437)scale(0.1 -0.1)">
       <use xlink:href="#DejaVuSans-50"/>
       <use x="63.623047" xlink:href="#DejaVuSans-48"/>
       <use x="127.246094" xlink:href="#DejaVuSans-46"/>
       <use x="159.033203" xlink:href="#DejaVuSans-48"/>
      </g>
     </g>
    </g>
   </g>
   <g id="matplotlib.axis_2">
    <g id="ytick_1">
     <g id="line2d_10">
      <defs>
       <path d="M 0 0 
L -3.5 0 
" id="ma733133bcd" style="stroke:#000000;stroke-width:0.8;"/>
      </defs>
      <g>
       <use style="stroke:#000000;stroke-width:0.8;" x="39.65" xlink:href="#ma733133bcd" y="261.216"/>
      </g>
     </g>
     <g id="text_10">
      <!-- 0 -->
      <g transform="translate(26.2875 265.015219)scale(0.1 -0.1)">
       <use xlink:href="#DejaVuSans-48"/>
      </g>
     </g>
    </g>
    <g id="ytick_2">
     <g id="line2d_11">
      <g>
       <use style="stroke:#000000;stroke-width:0.8;" x="39.65" xlink:href="#ma733133bcd" y="221.841"/>
      </g>
     </g>
     <g id="text_11">
      <!-- 500 -->
      <g transform="translate(13.5625 225.640219)scale(0.1 -0.1)">
       <use xlink:href="#DejaVuSans-53"/>
       <use x="63.623047" xlink:href="#DejaVuSans-48"/>
       <use x="127.246094" xlink:href="#DejaVuSans-48"/>
      </g>
     </g>
    </g>
    <g id="ytick_3">
     <g id="line2d_12">
      <g>
       <use style="stroke:#000000;stroke-width:0.8;" x="39.65" xlink:href="#ma733133bcd" y="182.466"/>
      </g>
     </g>
     <g id="text_12">
      <!-- 1000 -->
      <g transform="translate(7.2 186.265219)scale(0.1 -0.1)">
       <use xlink:href="#DejaVuSans-49"/>
       <use x="63.623047" xlink:href="#DejaVuSans-48"/>
       <use x="127.246094" xlink:href="#DejaVuSans-48"/>
       <use x="190.869141" xlink:href="#DejaVuSans-48"/>
      </g>
     </g>
    </g>
    <g id="ytick_4">
     <g id="line2d_13">
      <g>
       <use style="stroke:#000000;stroke-width:0.8;" x="39.65" xlink:href="#ma733133bcd" y="143.091"/>
      </g>
     </g>
     <g id="text_13">
      <!-- 1500 -->
      <g transform="translate(7.2 146.890219)scale(0.1 -0.1)">
       <use xlink:href="#DejaVuSans-49"/>
       <use x="63.623047" xlink:href="#DejaVuSans-53"/>
       <use x="127.246094" xlink:href="#DejaVuSans-48"/>
       <use x="190.869141" xlink:href="#DejaVuSans-48"/>
      </g>
     </g>
    </g>
    <g id="ytick_5">
     <g id="line2d_14">
      <g>
       <use style="stroke:#000000;stroke-width:0.8;" x="39.65" xlink:href="#ma733133bcd" y="103.716"/>
      </g>
     </g>
     <g id="text_14">
      <!-- 2000 -->
      <g transform="translate(7.2 107.515219)scale(0.1 -0.1)">
       <use xlink:href="#DejaVuSans-50"/>
       <use x="63.623047" xlink:href="#DejaVuSans-48"/>
       <use x="127.246094" xlink:href="#DejaVuSans-48"/>
       <use x="190.869141" xlink:href="#DejaVuSans-48"/>
      </g>
     </g>
    </g>
    <g id="ytick_6">
     <g id="line2d_15">
      <g>
       <use style="stroke:#000000;stroke-width:0.8;" x="39.65" xlink:href="#ma733133bcd" y="64.341"/>
      </g>
     </g>
     <g id="text_15">
      <!-- 2500 -->
      <g transform="translate(7.2 68.140219)scale(0.1 -0.1)">
       <use xlink:href="#DejaVuSans-50"/>
       <use x="63.623047" xlink:href="#DejaVuSans-53"/>
       <use x="127.246094" xlink:href="#DejaVuSans-48"/>
       <use x="190.869141" xlink:href="#DejaVuSans-48"/>
      </g>
     </g>
    </g>
    <g id="ytick_7">
     <g id="line2d_16">
      <g>
       <use style="stroke:#000000;stroke-width:0.8;" x="39.65" xlink:href="#ma733133bcd" y="24.966"/>
      </g>
     </g>
     <g id="text_16">
      <!-- 3000 -->
      <g transform="translate(7.2 28.765219)scale(0.1 -0.1)">
       <defs>
        <path d="M 40.578125 39.3125 
Q 47.65625 37.796875 51.625 33 
Q 55.609375 28.21875 55.609375 21.1875 
Q 55.609375 10.40625 48.1875 4.484375 
Q 40.765625 -1.421875 27.09375 -1.421875 
Q 22.515625 -1.421875 17.65625 -0.515625 
Q 12.796875 0.390625 7.625 2.203125 
L 7.625 11.71875 
Q 11.71875 9.328125 16.59375 8.109375 
Q 21.484375 6.890625 26.8125 6.890625 
Q 36.078125 6.890625 40.9375 10.546875 
Q 45.796875 14.203125 45.796875 21.1875 
Q 45.796875 27.640625 41.28125 31.265625 
Q 36.765625 34.90625 28.71875 34.90625 
L 20.21875 34.90625 
L 20.21875 43.015625 
L 29.109375 43.015625 
Q 36.375 43.015625 40.234375 45.921875 
Q 44.09375 48.828125 44.09375 54.296875 
Q 44.09375 59.90625 40.109375 62.90625 
Q 36.140625 65.921875 28.71875 65.921875 
Q 24.65625 65.921875 20.015625 65.03125 
Q 15.375 64.15625 9.8125 62.3125 
L 9.8125 71.09375 
Q 15.4375 72.65625 20.34375 73.4375 
Q 25.25 74.21875 29.59375 74.21875 
Q 40.828125 74.21875 47.359375 69.109375 
Q 53.90625 64.015625 53.90625 55.328125 
Q 53.90625 49.265625 50.4375 45.09375 
Q 46.96875 40.921875 40.578125 39.3125 
z
" id="DejaVuSans-51"/>
       </defs>
       <use xlink:href="#DejaVuSans-51"/>
       <use x="63.623047" xlink:href="#DejaVuSans-48"/>
       <use x="127.246094" xlink:href="#DejaVuSans-48"/>
       <use x="190.869141" xlink:href="#DejaVuSans-48"/>
      </g>
     </g>
    </g>
   </g>
   <g id="line2d_17">
    <path clip-path="url(#p4ecedf56c0)" d="M 55.882727 261.216 
L 59.961302 241.5285 
L 64.039877 223.738875 
L 68.118451 207.66417 
L 72.197026 193.139066 
L 76.275601 180.014183 
L 80.354175 168.154538 
L 84.43275 157.438163 
L 88.511325 147.754846 
L 92.589899 139.005002 
L 96.668474 131.098642 
L 100.747049 123.954455 
L 104.825624 117.498968 
L 108.904198 111.66579 
L 112.982773 106.39493 
L 117.061348 101.632181 
L 121.139922 97.328561 
L 125.218497 93.439811 
L 129.297072 89.925935 
L 133.375646 86.750797 
L 137.454221 83.881743 
L 141.532796 81.289265 
L 145.61137 78.946703 
L 149.689945 76.829963 
L 153.76852 74.917277 
L 157.847095 73.188974 
L 161.925669 71.627279 
L 166.004244 70.216132 
L 170.082819 68.941019 
L 174.161393 67.788827 
L 178.239968 66.747707 
L 182.318543 65.80695 
L 186.397117 64.956883 
L 190.475692 64.188761 
L 194.554267 63.494687 
L 198.632841 62.867522 
L 202.711416 62.300815 
L 206.789991 61.788739 
L 210.868566 61.326027 
L 214.94714 60.90792 
L 219.025715 60.530119 
L 223.10429 60.188738 
L 227.182864 59.880266 
L 231.261439 59.601531 
L 235.340014 59.349666 
L 239.418588 59.12208 
L 243.497163 58.916434 
L 247.575738 58.730612 
L 251.654312 58.562704 
L 255.732887 58.410981 
L 259.811462 58.273885 
L 263.890037 58.150005 
L 267.968611 58.038067 
L 272.047186 57.93692 
L 276.125761 57.845523 
L 280.204335 57.762937 
L 284.28291 57.688312 
L 288.361485 57.620881 
L 292.440059 57.559951 
L 296.518634 57.504894 
L 300.597209 57.455145 
L 304.675783 57.410191 
L 308.754358 57.369571 
L 312.832933 57.332867 
L 316.911508 57.299701 
L 320.990082 57.269732 
L 325.068657 57.242652 
L 329.147232 57.218183 
L 333.225806 57.196073 
L 337.304381 57.176094 
L 341.382956 57.158041 
L 345.46153 57.141728 
L 349.540105 57.126988 
L 353.61868 57.113668 
L 357.697254 57.101633 
L 361.775829 57.090758 
L 365.854404 57.080932 
L 369.932979 57.072052 
L 374.011553 57.064029 
L 378.090128 57.056779 
" style="fill:none;stroke:#1f77b4;stroke-linecap:square;stroke-width:1.5;"/>
   </g>
   <g id="line2d_18">
    <path clip-path="url(#p4ecedf56c0)" d="M 55.882727 261.216 
L 59.961302 261.216 
L 64.039877 259.318125 
L 68.118451 256.1612 
L 72.197026 252.212966 
L 76.275601 247.812879 
L 80.354175 243.204453 
L 84.43275 238.559702 
L 88.511325 233.997561 
L 92.589899 229.597775 
L 96.668474 225.411332 
L 100.747049 221.4683 
L 104.825624 217.783685 
L 108.904198 214.361805 
L 112.982773 211.199542 
L 117.061348 208.288744 
L 121.139922 205.617991 
L 125.218497 203.173884 
L 129.297072 200.941975 
L 133.375646 198.907434 
L 137.454221 197.055506 
L 141.532796 195.371834 
L 145.61137 193.842666 
L 149.689945 192.45498 
L 153.76852 191.196563 
L 157.847095 190.056035 
L 161.925669 189.022853 
L 166.004244 188.087294 
L 170.082819 187.240422 
L 174.161393 186.474048 
L 178.239968 185.780685 
L 182.318543 185.153504 
L 186.397117 184.586283 
L 190.475692 184.073362 
L 194.554267 183.609598 
L 198.632841 183.190321 
L 202.711416 182.811296 
L 206.789991 182.468682 
L 210.868566 182.159 
L 214.94714 181.879098 
L 219.025715 181.626123 
L 223.10429 181.397492 
L 227.182864 181.19087 
L 231.261439 181.004141 
L 235.340014 180.835395 
L 239.418588 180.682902 
L 243.497163 180.545098 
L 247.575738 180.420571 
L 251.654312 180.308041 
L 255.732887 180.206355 
L 259.811462 180.114468 
L 263.890037 180.031436 
L 267.968611 179.956407 
L 272.047186 179.888608 
L 276.125761 179.827344 
L 280.204335 179.771985 
L 284.28291 179.721962 
L 288.361485 179.676761 
L 292.440059 179.635917 
L 296.518634 179.59901 
L 300.597209 179.56566 
L 304.675783 179.535525 
L 308.754358 179.508295 
L 312.832933 179.48369 
L 316.911508 179.461457 
L 320.990082 179.441367 
L 325.068657 179.423214 
L 329.147232 179.40681 
L 333.225806 179.391988 
L 337.304381 179.378595 
L 341.382956 179.366492 
L 345.46153 179.355557 
L 349.540105 179.345675 
L 353.61868 179.336747 
L 357.697254 179.328679 
L 361.775829 179.321388 
L 365.854404 179.314801 
L 369.932979 179.308848 
L 374.011553 179.303469 
L 378.090128 179.298609 
" style="fill:none;stroke:#ff7f0e;stroke-linecap:square;stroke-width:1.5;"/>
   </g>
   <g id="line2d_19">
    <path clip-path="url(#p4ecedf56c0)" d="M 55.882727 261.216 
L 57.514157 252.47475 
L 59.145587 244.91475 
L 60.777017 238.3785 
L 62.408447 230.976 
L 64.039877 224.28225 
L 65.671307 219.006 
L 67.302736 214.281 
L 68.934166 207.11475 
L 70.565596 201.91725 
L 72.197026 195.77475 
L 73.828456 190.341 
L 75.459886 184.43475 
L 77.091316 180.1035 
L 78.722746 174.66975 
L 80.354175 169.78725 
L 81.985605 165.2985 
L 83.617035 159.9435 
L 85.248465 156.006 
L 86.879895 150.57225 
L 88.511325 147.73725 
L 90.142755 142.9335 
L 91.774185 139.23225 
L 93.405614 134.1135 
L 95.037044 131.67225 
L 96.668474 128.04975 
L 98.299904 122.37975 
L 99.931334 120.096 
L 101.562764 116.001 
L 104.825624 110.016 
L 106.457053 106.551 
L 108.088483 104.976 
L 109.719913 102.53475 
L 111.351343 97.65225 
L 112.982773 95.0535 
L 116.245633 90.801 
L 117.877063 89.77725 
L 119.508492 85.2885 
L 122.771352 77.571 
L 124.402782 75.28725 
L 126.034212 73.23975 
L 127.665642 74.02725 
L 129.297072 72.0585 
L 130.928502 71.4285 
L 132.559931 68.98725 
L 134.191361 67.25475 
L 135.822791 66.62475 
L 137.454221 64.10475 
L 139.085651 62.2935 
L 140.717081 61.11225 
L 142.348511 59.22225 
L 143.979941 57.96225 
L 145.61137 58.671 
L 147.2428 56.6235 
L 148.87423 54.18225 
L 150.50566 52.2135 
L 152.13709 51.2685 
L 153.76852 53.001 
L 155.39995 53.55225 
L 157.03138 51.5835 
L 158.66281 50.9535 
L 160.294239 49.14225 
L 161.925669 45.99225 
L 163.557099 46.77975 
L 165.188529 46.2285 
L 166.819959 44.57475 
L 168.451389 42.291 
L 170.082819 40.63725 
L 171.714249 40.00725 
L 173.345678 37.251 
L 174.977108 37.7235 
L 176.608538 38.58975 
L 178.239968 38.58975 
L 179.871398 37.32975 
L 181.502828 37.566 
L 183.134258 36.85725 
L 184.765688 36.85725 
L 186.397117 38.43225 
L 188.028547 37.01475 
L 189.659977 37.7235 
L 191.291407 36.7785 
L 192.922837 34.8885 
L 194.554267 33.3135 
L 196.185697 34.2585 
L 197.817127 33.86475 
L 199.448556 35.75475 
L 201.079986 35.43975 
L 202.711416 34.2585 
L 204.342846 34.416 
L 205.974276 32.3685 
L 207.605706 33.54975 
L 209.237136 34.2585 
L 210.868566 32.526 
L 212.499995 35.361 
L 214.131425 34.5735 
L 215.762855 34.101 
L 217.394285 33.156 
L 219.025715 31.896 
L 220.657145 31.896 
L 222.288575 32.3685 
L 223.920005 31.50225 
L 225.551434 32.6835 
L 227.182864 31.81725 
L 228.814294 34.65225 
L 230.445724 32.841 
L 232.077154 31.50225 
L 233.708584 30.4785 
L 236.971444 30.951 
L 241.865733 31.266 
L 243.497163 30.08475 
L 245.128593 29.61225 
L 246.760023 28.82475 
L 248.391453 31.896 
L 250.022883 33.471 
L 251.654312 33.786 
L 253.285742 35.28225 
L 254.917172 34.17975 
L 256.548602 33.54975 
L 258.180032 33.54975 
L 259.811462 33.156 
L 261.442892 32.60475 
L 263.074322 30.24225 
L 264.705751 30.55725 
L 266.337181 30.636 
L 267.968611 31.4235 
L 269.600041 28.98225 
L 271.231471 28.431 
L 272.862901 27.6435 
L 276.125761 27.486 
L 277.75719 25.596 
L 279.38862 25.51725 
L 281.02005 25.596 
L 282.65148 23.15475 
L 284.28291 23.391 
L 285.91434 22.99725 
L 287.54577 24.09975 
L 289.1772 23.31225 
L 290.80863 21.501 
L 292.440059 22.52475 
L 294.071489 23.94225 
L 295.702919 26.0685 
L 297.334349 25.04475 
L 298.965779 23.15475 
L 300.597209 24.72975 
L 302.228639 25.281 
L 303.860069 24.336 
L 305.491498 23.5485 
L 307.122928 22.9185 
L 308.754358 23.31225 
L 310.385788 23.5485 
L 312.017218 24.651 
L 313.648648 23.706 
L 316.911508 23.706 
L 318.542937 25.51725 
L 320.174367 24.8085 
L 321.805797 26.93475 
L 323.437227 26.3835 
L 325.068657 25.51725 
L 326.700087 24.8085 
L 328.331517 25.911 
L 329.962947 25.67475 
L 331.594376 25.1235 
L 333.225806 25.4385 
L 334.857236 23.706 
L 336.488666 24.57225 
L 338.120096 22.99725 
L 339.751526 23.46975 
L 341.382956 23.2335 
L 343.014386 23.5485 
L 344.645815 23.706 
L 346.277245 23.31225 
L 347.908675 21.9735 
L 349.540105 22.99725 
L 351.171535 22.68225 
L 352.802965 20.31975 
L 354.434395 20.16225 
L 356.065825 21.42225 
L 357.697254 20.7135 
L 359.328684 19.296 
L 360.960114 20.241 
L 362.591544 20.871 
L 364.222974 22.05225 
L 365.854404 21.57975 
L 367.485834 21.3435 
L 369.117264 20.556 
L 370.748693 20.63475 
L 372.380123 20.241 
L 375.642983 22.761 
L 377.274413 23.46975 
L 378.905843 22.99725 
L 380.537273 20.556 
L 380.537273 20.556 
" style="fill:none;stroke:#2ca02c;stroke-linecap:square;stroke-width:1.5;"/>
   </g>
   <g id="line2d_20">
    <path clip-path="url(#p4ecedf56c0)" d="M 55.882727 261.216 
L 57.514157 261.0585 
L 59.145587 260.586 
L 60.777017 259.326 
L 62.408447 258.93225 
L 64.039877 258.14475 
L 65.671307 256.72725 
L 67.302736 255.0735 
L 68.934166 254.20725 
L 70.565596 252.94725 
L 72.197026 251.2935 
L 73.828456 250.26975 
L 75.459886 248.301 
L 77.091316 246.80475 
L 78.722746 245.70225 
L 80.354175 244.12725 
L 81.985605 242.7885 
L 83.617035 240.66225 
L 85.248465 238.0635 
L 90.142755 233.0235 
L 91.774185 230.1885 
L 93.405614 228.69225 
L 95.037044 226.7235 
L 96.668474 224.43975 
L 98.299904 223.33725 
L 101.562764 220.266 
L 103.194194 217.82475 
L 104.825624 215.6985 
L 108.088483 212.94225 
L 109.719913 210.42225 
L 111.351343 210.10725 
L 112.982773 208.84725 
L 114.614203 205.776 
L 116.245633 203.886 
L 117.877063 201.2085 
L 119.508492 200.8935 
L 121.139922 201.44475 
L 122.771352 199.9485 
L 124.402782 198.846 
L 126.034212 197.03475 
L 127.665642 194.5935 
L 129.297072 192.546 
L 130.928502 191.1285 
L 132.559931 191.1285 
L 134.191361 188.68725 
L 135.822791 185.85225 
L 137.454221 184.8285 
L 139.085651 183.096 
L 142.348511 177.2685 
L 143.979941 177.03225 
L 147.2428 172.77975 
L 148.87423 171.51975 
L 150.50566 171.126 
L 152.13709 170.10225 
L 153.76852 167.73975 
L 157.03138 165.2985 
L 158.66281 163.01475 
L 160.294239 162.1485 
L 161.925669 162.69975 
L 163.557099 161.361 
L 165.188529 161.12475 
L 166.819959 161.12475 
L 168.451389 160.2585 
L 170.082819 160.416 
L 171.714249 160.80975 
L 173.345678 161.046 
L 174.977108 158.526 
L 176.608538 158.0535 
L 178.239968 159.39225 
L 179.871398 158.76225 
L 181.502828 158.3685 
L 183.134258 158.60475 
L 184.765688 159.07725 
L 186.397117 158.44725 
L 188.028547 159.39225 
L 189.659977 157.50225 
L 191.291407 157.896 
L 192.922837 156.39975 
L 194.554267 156.1635 
L 196.185697 154.431 
L 197.817127 157.1085 
L 199.448556 154.82475 
L 201.079986 154.66725 
L 202.711416 154.03725 
L 204.342846 155.376 
L 205.974276 157.18725 
L 207.605706 157.50225 
L 209.237136 157.266 
L 210.868566 159.3135 
L 212.499995 155.2185 
L 214.131425 154.9035 
L 215.762855 156.006 
L 217.394285 156.08475 
L 219.025715 155.691 
L 220.657145 156.951 
L 223.920005 155.061 
L 225.551434 152.46225 
L 227.182864 150.4935 
L 228.814294 149.076 
L 230.445724 149.8635 
L 232.077154 149.46975 
L 233.708584 148.36725 
L 235.340014 149.62725 
L 236.971444 149.5485 
L 238.602873 149.076 
L 240.234303 150.4935 
L 241.865733 150.25725 
L 243.497163 150.1785 
L 245.128593 148.446 
L 246.760023 148.52475 
L 248.391453 146.47725 
L 250.022883 146.16225 
L 251.654312 145.68975 
L 253.285742 144.036 
L 254.917172 144.5085 
L 256.548602 145.4535 
L 258.180032 144.90225 
L 259.811462 144.11475 
L 261.442892 143.48475 
L 263.074322 144.1935 
L 264.705751 143.5635 
L 267.968611 145.53225 
L 269.600041 148.05225 
L 271.231471 148.2885 
L 272.862901 147.3435 
L 274.494331 147.42225 
L 276.125761 145.1385 
L 277.75719 145.296 
L 279.38862 145.7685 
L 281.02005 145.611 
L 282.65148 146.871 
L 284.28291 147.73725 
L 285.91434 145.7685 
L 287.54577 146.79225 
L 289.1772 146.47725 
L 290.80863 146.31975 
L 292.440059 145.1385 
L 295.702919 143.16975 
L 297.334349 144.1935 
L 298.965779 144.8235 
L 300.597209 144.8235 
L 302.228639 145.296 
L 303.860069 146.556 
L 305.491498 147.186 
L 307.122928 147.0285 
L 308.754358 147.6585 
L 310.385788 147.3435 
L 312.017218 146.16225 
L 313.648648 145.4535 
L 315.280078 146.0835 
L 316.911508 144.74475 
L 318.542937 143.64225 
L 320.174367 142.9335 
L 321.805797 141.12225 
L 326.700087 141.75225 
L 328.331517 140.80725 
L 329.962947 139.38975 
L 331.594376 141.201 
L 333.225806 142.53975 
L 334.857236 143.091 
L 336.488666 141.59475 
L 338.120096 142.3035 
L 339.751526 144.351 
L 341.382956 145.611 
L 343.014386 145.68975 
L 344.645815 145.05975 
L 346.277245 143.8785 
L 347.908675 143.32725 
L 349.540105 141.12225 
L 351.171535 140.256 
L 352.802965 141.12225 
L 354.434395 140.256 
L 356.065825 140.4135 
L 357.697254 141.27975 
L 359.328684 142.85475 
L 360.960114 142.53975 
L 364.222974 143.406 
L 367.485834 143.01225 
L 369.117264 141.831 
L 370.748693 140.886 
L 372.380123 140.80725 
L 374.011553 139.70475 
L 375.642983 139.626 
L 377.274413 138.051 
L 378.905843 139.38975 
L 380.537273 138.996 
L 380.537273 138.996 
" style="fill:none;stroke:#d62728;stroke-linecap:square;stroke-width:1.5;"/>
   </g>
   <g id="patch_3">
    <path d="M 39.65 273.312 
L 39.65 7.2 
" style="fill:none;stroke:#000000;stroke-linecap:square;stroke-linejoin:miter;stroke-width:0.8;"/>
   </g>
   <g id="patch_4">
    <path d="M 396.77 273.312 
L 396.77 7.2 
" style="fill:none;stroke:#000000;stroke-linecap:square;stroke-linejoin:miter;stroke-width:0.8;"/>
   </g>
   <g id="patch_5">
    <path d="M 39.65 273.312 
L 396.77 273.312 
" style="fill:none;stroke:#000000;stroke-linecap:square;stroke-linejoin:miter;stroke-width:0.8;"/>
   </g>
   <g id="patch_6">
    <path d="M 39.65 7.2 
L 396.77 7.2 
" style="fill:none;stroke:#000000;stroke-linecap:square;stroke-linejoin:miter;stroke-width:0.8;"/>
   </g>
  </g>
 </g>
 <defs>
  <clipPath id="p4ecedf56c0">
   <rect height="266.112" width="357.12" x="39.65" y="7.2"/>
  </clipPath>
 </defs>
</svg>
