<?xml version="1.0" encoding="utf-8" standalone="no"?>
<!DOCTYPE svg PUBLIC "-//W3C//DTD SVG 1.1//EN"
  "http://www.w3.org/Graphics/SVG/1.1/DTD/svg11.dtd">
<!-- Created with matplotlib (https://matplotlib.org/) -->
<svg height="300.735582pt" version="1.1" viewBox="0 0 397.6075 300.735582" width="397.6075pt" xmlns="http://www.w3.org/2000/svg" xmlns:xlink="http://www.w3.org/1999/xlink">
 <metadata>
  <rdf:RDF xmlns:cc="http://creativecommons.org/ns#" xmlns:dc="http://purl.org/dc/elements/1.1/" xmlns:rdf="http://www.w3.org/1999/02/22-rdf-syntax-ns#">
   <cc:Work>
    <dc:type rdf:resource="http://purl.org/dc/dcmitype/StillImage"/>
    <dc:date>2020-12-15T06:46:44.039948</dc:date>
    <dc:format>image/svg+xml</dc:format>
    <dc:creator>
     <cc:Agent>
      <dc:title>Matplotlib v3.3.3, https://matplotlib.org/</dc:title>
     </cc:Agent>
    </dc:creator>
   </cc:Work>
  </rdf:RDF>
 </metadata>
 <defs>
  <style type="text/css">*{stroke-linecap:butt;stroke-linejoin:round;}</style>
 </defs>
 <g id="figure_1">
  <g id="patch_1">
   <path d="M 0 300.735582 
L 397.6075 300.735582 
L 397.6075 0 
L 0 0 
z
" style="fill:#ffffff;"/>
  </g>
  <g id="axes_1">
   <g id="patch_2">
    <path d="M 33.2875 276.857457 
L 390.4075 276.857457 
L 390.4075 10.745457 
L 33.2875 10.745457 
z
" style="fill:#ffffff;"/>
   </g>
   <g id="matplotlib.axis_1">
    <g id="xtick_1">
     <g id="line2d_1">
      <defs>
       <path d="M 0 0 
L 0 3.5 
" id="m62d896d045" style="stroke:#000000;stroke-width:0.8;"/>
      </defs>
      <g>
       <use style="stroke:#000000;stroke-width:0.8;" x="49.520227" xlink:href="#m62d896d045" y="276.857457"/>
      </g>
     </g>
     <g id="text_1">
      <!-- 0.0 -->
      <g transform="translate(41.568665 291.455894)scale(0.1 -0.1)">
       <defs>
        <path d="M 31.78125 66.40625 
Q 24.171875 66.40625 20.328125 58.90625 
Q 16.5 51.421875 16.5 36.375 
Q 16.5 21.390625 20.328125 13.890625 
Q 24.171875 6.390625 31.78125 6.390625 
Q 39.453125 6.390625 43.28125 13.890625 
Q 47.125 21.390625 47.125 36.375 
Q 47.125 51.421875 43.28125 58.90625 
Q 39.453125 66.40625 31.78125 66.40625 
z
M 31.78125 74.21875 
Q 44.046875 74.21875 50.515625 64.515625 
Q 56.984375 54.828125 56.984375 36.375 
Q 56.984375 17.96875 50.515625 8.265625 
Q 44.046875 -1.421875 31.78125 -1.421875 
Q 19.53125 -1.421875 13.0625 8.265625 
Q 6.59375 17.96875 6.59375 36.375 
Q 6.59375 54.828125 13.0625 64.515625 
Q 19.53125 74.21875 31.78125 74.21875 
z
" id="DejaVuSans-48"/>
        <path d="M 10.6875 12.40625 
L 21 12.40625 
L 21 0 
L 10.6875 0 
z
" id="DejaVuSans-46"/>
       </defs>
       <use xlink:href="#DejaVuSans-48"/>
       <use x="63.623047" xlink:href="#DejaVuSans-46"/>
       <use x="95.410156" xlink:href="#DejaVuSans-48"/>
      </g>
     </g>
    </g>
    <g id="xtick_2">
     <g id="line2d_2">
      <g>
       <use style="stroke:#000000;stroke-width:0.8;" x="90.305974" xlink:href="#m62d896d045" y="276.857457"/>
      </g>
     </g>
     <g id="text_2">
      <!-- 2.5 -->
      <g transform="translate(82.354412 291.455894)scale(0.1 -0.1)">
       <defs>
        <path d="M 19.1875 8.296875 
L 53.609375 8.296875 
L 53.609375 0 
L 7.328125 0 
L 7.328125 8.296875 
Q 12.9375 14.109375 22.625 23.890625 
Q 32.328125 33.6875 34.8125 36.53125 
Q 39.546875 41.84375 41.421875 45.53125 
Q 43.3125 49.21875 43.3125 52.78125 
Q 43.3125 58.59375 39.234375 62.25 
Q 35.15625 65.921875 28.609375 65.921875 
Q 23.96875 65.921875 18.8125 64.3125 
Q 13.671875 62.703125 7.8125 59.421875 
L 7.8125 69.390625 
Q 13.765625 71.78125 18.9375 73 
Q 24.125 74.21875 28.421875 74.21875 
Q 39.75 74.21875 46.484375 68.546875 
Q 53.21875 62.890625 53.21875 53.421875 
Q 53.21875 48.921875 51.53125 44.890625 
Q 49.859375 40.875 45.40625 35.40625 
Q 44.1875 33.984375 37.640625 27.21875 
Q 31.109375 20.453125 19.1875 8.296875 
z
" id="DejaVuSans-50"/>
        <path d="M 10.796875 72.90625 
L 49.515625 72.90625 
L 49.515625 64.59375 
L 19.828125 64.59375 
L 19.828125 46.734375 
Q 21.96875 47.46875 24.109375 47.828125 
Q 26.265625 48.1875 28.421875 48.1875 
Q 40.625 48.1875 47.75 41.5 
Q 54.890625 34.8125 54.890625 23.390625 
Q 54.890625 11.625 47.5625 5.09375 
Q 40.234375 -1.421875 26.90625 -1.421875 
Q 22.3125 -1.421875 17.546875 -0.640625 
Q 12.796875 0.140625 7.71875 1.703125 
L 7.71875 11.625 
Q 12.109375 9.234375 16.796875 8.0625 
Q 21.484375 6.890625 26.703125 6.890625 
Q 35.15625 6.890625 40.078125 11.328125 
Q 45.015625 15.765625 45.015625 23.390625 
Q 45.015625 31 40.078125 35.4375 
Q 35.15625 39.890625 26.703125 39.890625 
Q 22.75 39.890625 18.8125 39.015625 
Q 14.890625 38.140625 10.796875 36.28125 
z
" id="DejaVuSans-53"/>
       </defs>
       <use xlink:href="#DejaVuSans-50"/>
       <use x="63.623047" xlink:href="#DejaVuSans-46"/>
       <use x="95.410156" xlink:href="#DejaVuSans-53"/>
      </g>
     </g>
    </g>
    <g id="xtick_3">
     <g id="line2d_3">
      <g>
       <use style="stroke:#000000;stroke-width:0.8;" x="131.091721" xlink:href="#m62d896d045" y="276.857457"/>
      </g>
     </g>
     <g id="text_3">
      <!-- 5.0 -->
      <g transform="translate(123.140159 291.455894)scale(0.1 -0.1)">
       <use xlink:href="#DejaVuSans-53"/>
       <use x="63.623047" xlink:href="#DejaVuSans-46"/>
       <use x="95.410156" xlink:href="#DejaVuSans-48"/>
      </g>
     </g>
    </g>
    <g id="xtick_4">
     <g id="line2d_4">
      <g>
       <use style="stroke:#000000;stroke-width:0.8;" x="171.877468" xlink:href="#m62d896d045" y="276.857457"/>
      </g>
     </g>
     <g id="text_4">
      <!-- 7.5 -->
      <g transform="translate(163.925906 291.455894)scale(0.1 -0.1)">
       <defs>
        <path d="M 8.203125 72.90625 
L 55.078125 72.90625 
L 55.078125 68.703125 
L 28.609375 0 
L 18.3125 0 
L 43.21875 64.59375 
L 8.203125 64.59375 
z
" id="DejaVuSans-55"/>
       </defs>
       <use xlink:href="#DejaVuSans-55"/>
       <use x="63.623047" xlink:href="#DejaVuSans-46"/>
       <use x="95.410156" xlink:href="#DejaVuSans-53"/>
      </g>
     </g>
    </g>
    <g id="xtick_5">
     <g id="line2d_5">
      <g>
       <use style="stroke:#000000;stroke-width:0.8;" x="212.663215" xlink:href="#m62d896d045" y="276.857457"/>
      </g>
     </g>
     <g id="text_5">
      <!-- 10.0 -->
      <g transform="translate(201.530402 291.455894)scale(0.1 -0.1)">
       <defs>
        <path d="M 12.40625 8.296875 
L 28.515625 8.296875 
L 28.515625 63.921875 
L 10.984375 60.40625 
L 10.984375 69.390625 
L 28.421875 72.90625 
L 38.28125 72.90625 
L 38.28125 8.296875 
L 54.390625 8.296875 
L 54.390625 0 
L 12.40625 0 
z
" id="DejaVuSans-49"/>
       </defs>
       <use xlink:href="#DejaVuSans-49"/>
       <use x="63.623047" xlink:href="#DejaVuSans-48"/>
       <use x="127.246094" xlink:href="#DejaVuSans-46"/>
       <use x="159.033203" xlink:href="#DejaVuSans-48"/>
      </g>
     </g>
    </g>
    <g id="xtick_6">
     <g id="line2d_6">
      <g>
       <use style="stroke:#000000;stroke-width:0.8;" x="253.448962" xlink:href="#m62d896d045" y="276.857457"/>
      </g>
     </g>
     <g id="text_6">
      <!-- 12.5 -->
      <g transform="translate(242.316149 291.455894)scale(0.1 -0.1)">
       <use xlink:href="#DejaVuSans-49"/>
       <use x="63.623047" xlink:href="#DejaVuSans-50"/>
       <use x="127.246094" xlink:href="#DejaVuSans-46"/>
       <use x="159.033203" xlink:href="#DejaVuSans-53"/>
      </g>
     </g>
    </g>
    <g id="xtick_7">
     <g id="line2d_7">
      <g>
       <use style="stroke:#000000;stroke-width:0.8;" x="294.234709" xlink:href="#m62d896d045" y="276.857457"/>
      </g>
     </g>
     <g id="text_7">
      <!-- 15.0 -->
      <g transform="translate(283.101896 291.455894)scale(0.1 -0.1)">
       <use xlink:href="#DejaVuSans-49"/>
       <use x="63.623047" xlink:href="#DejaVuSans-53"/>
       <use x="127.246094" xlink:href="#DejaVuSans-46"/>
       <use x="159.033203" xlink:href="#DejaVuSans-48"/>
      </g>
     </g>
    </g>
    <g id="xtick_8">
     <g id="line2d_8">
      <g>
       <use style="stroke:#000000;stroke-width:0.8;" x="335.020456" xlink:href="#m62d896d045" y="276.857457"/>
      </g>
     </g>
     <g id="text_8">
      <!-- 17.5 -->
      <g transform="translate(323.887643 291.455894)scale(0.1 -0.1)">
       <use xlink:href="#DejaVuSans-49"/>
       <use x="63.623047" xlink:href="#DejaVuSans-55"/>
       <use x="127.246094" xlink:href="#DejaVuSans-46"/>
       <use x="159.033203" xlink:href="#DejaVuSans-53"/>
      </g>
     </g>
    </g>
    <g id="xtick_9">
     <g id="line2d_9">
      <g>
       <use style="stroke:#000000;stroke-width:0.8;" x="375.806203" xlink:href="#m62d896d045" y="276.857457"/>
      </g>
     </g>
     <g id="text_9">
      <!-- 20.0 -->
      <g transform="translate(364.67339 291.455894)scale(0.1 -0.1)">
       <use xlink:href="#DejaVuSans-50"/>
       <use x="63.623047" xlink:href="#DejaVuSans-48"/>
       <use x="127.246094" xlink:href="#DejaVuSans-46"/>
       <use x="159.033203" xlink:href="#DejaVuSans-48"/>
      </g>
     </g>
    </g>
   </g>
   <g id="matplotlib.axis_2">
    <g id="ytick_1">
     <g id="line2d_10">
      <defs>
       <path d="M 0 0 
L -3.5 0 
" id="m5ab6e710db" style="stroke:#000000;stroke-width:0.8;"/>
      </defs>
      <g>
       <use style="stroke:#000000;stroke-width:0.8;" x="33.2875" xlink:href="#m5ab6e710db" y="264.761457"/>
      </g>
     </g>
     <g id="text_10">
      <!-- 0 -->
      <g transform="translate(19.925 268.560675)scale(0.1 -0.1)">
       <use xlink:href="#DejaVuSans-48"/>
      </g>
     </g>
    </g>
    <g id="ytick_2">
     <g id="line2d_11">
      <g>
       <use style="stroke:#000000;stroke-width:0.8;" x="33.2875" xlink:href="#m5ab6e710db" y="222.46775"/>
      </g>
     </g>
     <g id="text_11">
      <!-- 50 -->
      <g transform="translate(13.5625 226.266969)scale(0.1 -0.1)">
       <use xlink:href="#DejaVuSans-53"/>
       <use x="63.623047" xlink:href="#DejaVuSans-48"/>
      </g>
     </g>
    </g>
    <g id="ytick_3">
     <g id="line2d_12">
      <g>
       <use style="stroke:#000000;stroke-width:0.8;" x="33.2875" xlink:href="#m5ab6e710db" y="180.174044"/>
      </g>
     </g>
     <g id="text_12">
      <!-- 100 -->
      <g transform="translate(7.2 183.973263)scale(0.1 -0.1)">
       <use xlink:href="#DejaVuSans-49"/>
       <use x="63.623047" xlink:href="#DejaVuSans-48"/>
       <use x="127.246094" xlink:href="#DejaVuSans-48"/>
      </g>
     </g>
    </g>
    <g id="ytick_4">
     <g id="line2d_13">
      <g>
       <use style="stroke:#000000;stroke-width:0.8;" x="33.2875" xlink:href="#m5ab6e710db" y="137.880338"/>
      </g>
     </g>
     <g id="text_13">
      <!-- 150 -->
      <g transform="translate(7.2 141.679556)scale(0.1 -0.1)">
       <use xlink:href="#DejaVuSans-49"/>
       <use x="63.623047" xlink:href="#DejaVuSans-53"/>
       <use x="127.246094" xlink:href="#DejaVuSans-48"/>
      </g>
     </g>
    </g>
    <g id="ytick_5">
     <g id="line2d_14">
      <g>
       <use style="stroke:#000000;stroke-width:0.8;" x="33.2875" xlink:href="#m5ab6e710db" y="95.586631"/>
      </g>
     </g>
     <g id="text_14">
      <!-- 200 -->
      <g transform="translate(7.2 99.38585)scale(0.1 -0.1)">
       <use xlink:href="#DejaVuSans-50"/>
       <use x="63.623047" xlink:href="#DejaVuSans-48"/>
       <use x="127.246094" xlink:href="#DejaVuSans-48"/>
      </g>
     </g>
    </g>
    <g id="ytick_6">
     <g id="line2d_15">
      <g>
       <use style="stroke:#000000;stroke-width:0.8;" x="33.2875" xlink:href="#m5ab6e710db" y="53.292925"/>
      </g>
     </g>
     <g id="text_15">
      <!-- 250 -->
      <g transform="translate(7.2 57.092144)scale(0.1 -0.1)">
       <use xlink:href="#DejaVuSans-50"/>
       <use x="63.623047" xlink:href="#DejaVuSans-53"/>
       <use x="127.246094" xlink:href="#DejaVuSans-48"/>
      </g>
     </g>
    </g>
    <g id="ytick_7">
     <g id="line2d_16">
      <g>
       <use style="stroke:#000000;stroke-width:0.8;" x="33.2875" xlink:href="#m5ab6e710db" y="10.999219"/>
      </g>
     </g>
     <g id="text_16">
      <!-- 300 -->
      <g transform="translate(7.2 14.798437)scale(0.1 -0.1)">
       <defs>
        <path d="M 40.578125 39.3125 
Q 47.65625 37.796875 51.625 33 
Q 55.609375 28.21875 55.609375 21.1875 
Q 55.609375 10.40625 48.1875 4.484375 
Q 40.765625 -1.421875 27.09375 -1.421875 
Q 22.515625 -1.421875 17.65625 -0.515625 
Q 12.796875 0.390625 7.625 2.203125 
L 7.625 11.71875 
Q 11.71875 9.328125 16.59375 8.109375 
Q 21.484375 6.890625 26.8125 6.890625 
Q 36.078125 6.890625 40.9375 10.546875 
Q 45.796875 14.203125 45.796875 21.1875 
Q 45.796875 27.640625 41.28125 31.265625 
Q 36.765625 34.90625 28.71875 34.90625 
L 20.21875 34.90625 
L 20.21875 43.015625 
L 29.109375 43.015625 
Q 36.375 43.015625 40.234375 45.921875 
Q 44.09375 48.828125 44.09375 54.296875 
Q 44.09375 59.90625 40.109375 62.90625 
Q 36.140625 65.921875 28.71875 65.921875 
Q 24.65625 65.921875 20.015625 65.03125 
Q 15.375 64.15625 9.8125 62.3125 
L 9.8125 71.09375 
Q 15.4375 72.65625 20.34375 73.4375 
Q 25.25 74.21875 29.59375 74.21875 
Q 40.828125 74.21875 47.359375 69.109375 
Q 53.90625 64.015625 53.90625 55.328125 
Q 53.90625 49.265625 50.4375 45.09375 
Q 46.96875 40.921875 40.578125 39.3125 
z
" id="DejaVuSans-51"/>
       </defs>
       <use xlink:href="#DejaVuSans-51"/>
       <use x="63.623047" xlink:href="#DejaVuSans-48"/>
       <use x="127.246094" xlink:href="#DejaVuSans-48"/>
      </g>
     </g>
    </g>
   </g>
   <g id="line2d_17">
    <path clip-path="url(#pc06aeead7c)" d="M 49.520227 264.761457 
L 51.151657 192.862156 
L 52.783087 148.876701 
L 54.414517 117.579359 
L 56.045947 93.894883 
L 57.677377 82.898519 
L 59.308807 72.74803 
L 60.940236 71.056282 
L 62.571666 62.59754 
L 64.203096 58.36817 
L 65.834526 54.984673 
L 67.465956 39.758939 
L 69.097386 32.991946 
L 70.728816 50.755303 
L 72.360246 52.447051 
L 73.991675 60.905792 
L 75.623105 56.676422 
L 77.254535 58.36817 
L 78.885965 65.981037 
L 80.517395 55.830547 
L 82.148825 57.522296 
L 83.780255 61.751666 
L 85.411685 44.834184 
L 87.043114 39.758939 
L 88.674544 39.758939 
L 90.305974 32.146072 
L 91.937404 47.371806 
L 93.568834 38.913065 
L 95.200264 41.450687 
L 96.831694 39.758939 
L 98.463124 36.375443 
L 100.094553 35.529568 
L 101.725983 40.604813 
L 103.357413 32.146072 
L 104.988843 37.221317 
L 106.620273 55.830547 
L 108.251703 51.601177 
L 111.514563 53.292925 
L 113.145992 66.826911 
L 114.777422 58.36817 
L 116.408852 57.522296 
L 118.040282 71.056282 
L 119.671712 57.522296 
L 121.303142 56.676422 
L 122.934572 60.059918 
L 124.566002 68.518659 
L 126.197431 65.135163 
L 127.828861 64.289289 
L 129.460291 73.593904 
L 131.091721 69.364533 
L 132.723151 68.518659 
L 134.354581 63.443415 
L 135.986011 52.447051 
L 137.617441 58.36817 
L 139.24887 65.981037 
L 140.8803 70.210408 
L 142.51173 60.059918 
L 144.14316 55.830547 
L 145.77459 63.443415 
L 147.40602 65.135163 
L 149.03745 72.74803 
L 150.66888 63.443415 
L 152.30031 48.21768 
L 153.931739 55.830547 
L 155.563169 54.138799 
L 157.194599 55.830547 
L 158.826029 49.063554 
L 160.457459 60.059918 
L 162.088889 47.371806 
L 163.720319 45.680058 
L 165.351749 49.063554 
L 166.983178 54.984673 
L 168.614608 51.601177 
L 170.246038 42.296561 
L 171.877468 47.371806 
L 173.508898 43.142436 
L 175.140328 48.21768 
L 176.771758 43.142436 
L 178.403188 47.371806 
L 180.034617 47.371806 
L 181.666047 49.909429 
L 183.297477 43.142436 
L 184.928907 47.371806 
L 186.560337 49.063554 
L 188.191767 57.522296 
L 189.823197 43.142436 
L 191.454627 35.529568 
L 193.086056 38.913065 
L 194.717486 49.909429 
L 196.348916 57.522296 
L 199.611776 55.830547 
L 201.243206 60.059918 
L 202.874636 54.138799 
L 204.506066 42.296561 
L 206.137495 57.522296 
L 207.768925 52.447051 
L 209.400355 59.214044 
L 211.031785 60.905792 
L 212.663215 70.210408 
L 214.294645 57.522296 
L 215.926075 57.522296 
L 217.557505 49.063554 
L 219.188934 54.984673 
L 220.820364 54.138799 
L 222.451794 59.214044 
L 224.083224 60.059918 
L 225.714654 58.36817 
L 227.346084 57.522296 
L 228.977514 54.138799 
L 230.608944 48.21768 
L 232.240373 54.138799 
L 233.871803 57.522296 
L 235.503233 55.830547 
L 237.134663 65.981037 
L 238.766093 60.905792 
L 240.397523 56.676422 
L 242.028953 54.138799 
L 243.660383 42.296561 
L 245.291812 43.142436 
L 246.923242 47.371806 
L 248.554672 57.522296 
L 250.186102 60.905792 
L 251.817532 83.744394 
L 253.448962 62.59754 
L 255.080392 50.755303 
L 256.711822 39.758939 
L 258.343251 38.067191 
L 259.974681 51.601177 
L 261.606111 40.604813 
L 263.237541 43.98831 
L 264.868971 36.375443 
L 268.131831 49.909429 
L 269.763261 63.443415 
L 271.39469 61.751666 
L 273.02612 53.292925 
L 274.65755 53.292925 
L 276.28898 50.755303 
L 277.92041 50.755303 
L 279.55184 46.525932 
L 281.18327 76.131526 
L 282.8147 79.515023 
L 284.44613 65.135163 
L 286.077559 60.059918 
L 287.708989 65.135163 
L 289.340419 54.138799 
L 290.971849 49.063554 
L 292.603279 49.063554 
L 294.234709 52.447051 
L 295.866139 49.909429 
L 299.128998 46.525932 
L 300.760428 48.21768 
L 302.391858 43.142436 
L 304.023288 40.604813 
L 305.654718 54.984673 
L 307.286148 60.905792 
L 308.917578 51.601177 
L 310.549008 55.830547 
L 312.180437 48.21768 
L 313.811867 55.830547 
L 315.443297 56.676422 
L 317.074727 55.830547 
L 318.706157 47.371806 
L 320.337587 58.36817 
L 321.969017 50.755303 
L 323.600447 57.522296 
L 325.231876 62.59754 
L 326.863306 60.059918 
L 328.494736 53.292925 
L 330.126166 55.830547 
L 331.757596 62.59754 
L 333.389026 50.755303 
L 335.020456 51.601177 
L 336.651886 49.909429 
L 338.283315 51.601177 
L 341.546175 68.518659 
L 343.177605 66.826911 
L 344.809035 60.059918 
L 346.440465 59.214044 
L 348.071895 46.525932 
L 351.334754 38.067191 
L 352.966184 45.680058 
L 354.597614 37.221317 
L 356.229044 35.529568 
L 357.860474 40.604813 
L 359.491904 37.221317 
L 361.123334 47.371806 
L 362.754764 50.755303 
L 364.386193 47.371806 
L 366.017623 48.21768 
L 367.649053 58.36817 
L 369.280483 66.826911 
L 370.911913 66.826911 
L 372.543343 64.289289 
L 374.174773 58.36817 
L 374.174773 58.36817 
" style="fill:none;stroke:#1f77b4;stroke-linecap:square;stroke-width:1.5;"/>
   </g>
   <g id="line2d_18">
    <path clip-path="url(#pc06aeead7c)" d="M 49.520227 264.761457 
L 51.151657 255.456841 
L 56.045947 164.94831 
L 57.677377 132.805093 
L 59.308807 115.041736 
L 60.940236 105.737121 
L 62.571666 79.515023 
L 64.203096 73.593904 
L 65.834526 71.056282 
L 67.465956 71.902156 
L 69.097386 68.518659 
L 70.728816 44.834184 
L 72.360246 46.525932 
L 73.991675 53.292925 
L 75.623105 54.138799 
L 77.254535 49.909429 
L 78.885965 40.604813 
L 80.517395 58.36817 
L 82.148825 44.834184 
L 83.780255 32.991946 
L 85.411685 44.834184 
L 87.043114 48.21768 
L 88.674544 55.830547 
L 90.305974 53.292925 
L 91.937404 49.063554 
L 93.568834 60.059918 
L 95.200264 55.830547 
L 96.831694 55.830547 
L 98.463124 62.59754 
L 100.094553 59.214044 
L 101.725983 50.755303 
L 103.357413 60.905792 
L 104.988843 56.676422 
L 106.620273 53.292925 
L 108.251703 60.905792 
L 109.883133 45.680058 
L 111.514563 38.067191 
L 113.145992 28.762575 
L 114.777422 51.601177 
L 116.408852 45.680058 
L 118.040282 43.142436 
L 119.671712 54.138799 
L 121.303142 50.755303 
L 122.934572 49.909429 
L 124.566002 36.375443 
L 126.197431 51.601177 
L 127.828861 51.601177 
L 129.460291 34.683694 
L 131.091721 41.450687 
L 132.723151 37.221317 
L 134.354581 46.525932 
L 135.986011 61.751666 
L 137.617441 62.59754 
L 139.24887 47.371806 
L 140.8803 41.450687 
L 142.51173 43.98831 
L 144.14316 41.450687 
L 145.77459 34.683694 
L 147.40602 44.834184 
L 149.03745 26.224953 
L 150.66888 40.604813 
L 152.30031 43.98831 
L 153.931739 43.98831 
L 155.563169 54.984673 
L 157.194599 55.830547 
L 158.826029 65.135163 
L 160.457459 43.142436 
L 162.088889 65.981037 
L 163.720319 70.210408 
L 165.351749 61.751666 
L 166.983178 50.755303 
L 168.614608 54.984673 
L 170.246038 65.135163 
L 171.877468 57.522296 
L 173.508898 54.984673 
L 175.140328 35.529568 
L 176.771758 55.830547 
L 178.403188 41.450687 
L 180.034617 42.296561 
L 181.666047 48.21768 
L 183.297477 52.447051 
L 184.928907 54.984673 
L 186.560337 49.909429 
L 188.191767 41.450687 
L 189.823197 64.289289 
L 191.454627 72.74803 
L 193.086056 54.984673 
L 194.717486 38.913065 
L 196.348916 35.529568 
L 197.980346 30.454324 
L 199.611776 27.916701 
L 201.243206 30.454324 
L 202.874636 46.525932 
L 204.506066 50.755303 
L 206.137495 33.83782 
L 207.768925 39.758939 
L 209.400355 37.221317 
L 211.031785 48.21768 
L 212.663215 41.450687 
L 214.294645 56.676422 
L 215.926075 55.830547 
L 217.557505 58.36817 
L 219.188934 51.601177 
L 220.820364 54.984673 
L 222.451794 57.522296 
L 224.083224 57.522296 
L 225.714654 65.981037 
L 227.346084 54.138799 
L 228.977514 49.909429 
L 230.608944 51.601177 
L 232.240373 43.98831 
L 233.871803 38.913065 
L 235.503233 32.991946 
L 237.134663 42.296561 
L 238.766093 43.142436 
L 240.397523 47.371806 
L 242.028953 49.063554 
L 243.660383 56.676422 
L 245.291812 55.830547 
L 246.923242 48.21768 
L 248.554672 41.450687 
L 250.186102 30.454324 
L 251.817532 32.991946 
L 253.448962 52.447051 
L 255.080392 58.36817 
L 256.711822 68.518659 
L 258.343251 60.905792 
L 259.974681 38.913065 
L 261.606111 47.371806 
L 263.237541 46.525932 
L 264.868971 59.214044 
L 266.500401 54.138799 
L 268.131831 54.984673 
L 269.763261 40.604813 
L 271.39469 50.755303 
L 273.02612 54.984673 
L 274.65755 51.601177 
L 276.28898 65.135163 
L 277.92041 57.522296 
L 279.55184 66.826911 
L 281.18327 34.683694 
L 282.8147 43.98831 
L 284.44613 65.981037 
L 286.077559 54.138799 
L 287.708989 43.142436 
L 289.340419 55.830547 
L 290.971849 60.905792 
L 292.603279 62.59754 
L 294.234709 57.522296 
L 295.866139 60.059918 
L 297.497569 60.905792 
L 299.128998 70.210408 
L 300.760428 67.672785 
L 302.391858 76.977401 
L 304.023288 56.676422 
L 305.654718 49.063554 
L 307.286148 46.525932 
L 308.917578 60.905792 
L 310.549008 59.214044 
L 312.180437 65.135163 
L 313.811867 45.680058 
L 315.443297 47.371806 
L 318.706157 47.371806 
L 320.337587 43.142436 
L 321.969017 55.830547 
L 323.600447 47.371806 
L 325.231876 52.447051 
L 326.863306 53.292925 
L 328.494736 64.289289 
L 330.126166 57.522296 
L 331.757596 48.21768 
L 333.389026 54.138799 
L 336.651886 54.138799 
L 338.283315 41.450687 
L 339.914745 43.98831 
L 341.546175 50.755303 
L 343.177605 52.447051 
L 344.809035 64.289289 
L 346.440465 64.289289 
L 348.071895 68.518659 
L 349.703325 59.214044 
L 351.334754 65.135163 
L 352.966184 58.36817 
L 354.597614 60.059918 
L 356.229044 59.214044 
L 357.860474 54.984673 
L 359.491904 56.676422 
L 361.123334 41.450687 
L 362.754764 46.525932 
L 364.386193 55.830547 
L 367.649053 30.454324 
L 369.280483 22.841457 
L 370.911913 35.529568 
L 372.543343 44.834184 
L 374.174773 46.525932 
L 374.174773 46.525932 
" style="fill:none;stroke:#ff7f0e;stroke-linecap:square;stroke-width:1.5;"/>
   </g>
   <g id="patch_3">
    <path d="M 33.2875 276.857457 
L 33.2875 10.745457 
" style="fill:none;stroke:#000000;stroke-linecap:square;stroke-linejoin:miter;stroke-width:0.8;"/>
   </g>
   <g id="patch_4">
    <path d="M 390.4075 276.857457 
L 390.4075 10.745457 
" style="fill:none;stroke:#000000;stroke-linecap:square;stroke-linejoin:miter;stroke-width:0.8;"/>
   </g>
   <g id="patch_5">
    <path d="M 33.2875 276.857457 
L 390.4075 276.857457 
" style="fill:none;stroke:#000000;stroke-linecap:square;stroke-linejoin:miter;stroke-width:0.8;"/>
   </g>
   <g id="patch_6">
    <path d="M 33.2875 10.745457 
L 390.4075 10.745457 
" style="fill:none;stroke:#000000;stroke-linecap:square;stroke-linejoin:miter;stroke-width:0.8;"/>
   </g>
  </g>
 </g>
 <defs>
  <clipPath id="pc06aeead7c">
   <rect height="266.112" width="357.12" x="33.2875" y="10.745457"/>
  </clipPath>
 </defs>
</svg>
