<?xml version="1.0" encoding="utf-8" standalone="no"?>
<!DOCTYPE svg PUBLIC "-//W3C//DTD SVG 1.1//EN"
  "http://www.w3.org/Graphics/SVG/1.1/DTD/svg11.dtd">
<!-- Created with matplotlib (https://matplotlib.org/) -->
<svg height="297.190125pt" version="1.1" viewBox="0 0 397.6075 297.190125" width="397.6075pt" xmlns="http://www.w3.org/2000/svg" xmlns:xlink="http://www.w3.org/1999/xlink">
 <metadata>
  <rdf:RDF xmlns:cc="http://creativecommons.org/ns#" xmlns:dc="http://purl.org/dc/elements/1.1/" xmlns:rdf="http://www.w3.org/1999/02/22-rdf-syntax-ns#">
   <cc:Work>
    <dc:type rdf:resource="http://purl.org/dc/dcmitype/StillImage"/>
    <dc:date>2020-09-21T05:22:52.670843</dc:date>
    <dc:format>image/svg+xml</dc:format>
    <dc:creator>
     <cc:Agent>
      <dc:title>Matplotlib v3.3.2, https://matplotlib.org/</dc:title>
     </cc:Agent>
    </dc:creator>
   </cc:Work>
  </rdf:RDF>
 </metadata>
 <defs>
  <style type="text/css">*{stroke-linecap:butt;stroke-linejoin:round;}</style>
 </defs>
 <g id="figure_1">
  <g id="patch_1">
   <path d="M 0 297.190125 
L 397.6075 297.190125 
L 397.6075 0 
L 0 0 
z
" style="fill:#ffffff;"/>
  </g>
  <g id="axes_1">
   <g id="patch_2">
    <path d="M 33.2875 273.312 
L 390.4075 273.312 
L 390.4075 7.2 
L 33.2875 7.2 
z
" style="fill:#ffffff;"/>
   </g>
   <g id="matplotlib.axis_1">
    <g id="xtick_1">
     <g id="line2d_1">
      <defs>
       <path d="M 0 0 
L 0 3.5 
" id="m482245b6db" style="stroke:#000000;stroke-width:0.8;"/>
      </defs>
      <g>
       <use style="stroke:#000000;stroke-width:0.8;" x="49.520227" xlink:href="#m482245b6db" y="273.312"/>
      </g>
     </g>
     <g id="text_1">
      <!-- 0.0 -->
      <g transform="translate(41.568665 287.910437)scale(0.1 -0.1)">
       <defs>
        <path d="M 31.78125 66.40625 
Q 24.171875 66.40625 20.328125 58.90625 
Q 16.5 51.421875 16.5 36.375 
Q 16.5 21.390625 20.328125 13.890625 
Q 24.171875 6.390625 31.78125 6.390625 
Q 39.453125 6.390625 43.28125 13.890625 
Q 47.125 21.390625 47.125 36.375 
Q 47.125 51.421875 43.28125 58.90625 
Q 39.453125 66.40625 31.78125 66.40625 
z
M 31.78125 74.21875 
Q 44.046875 74.21875 50.515625 64.515625 
Q 56.984375 54.828125 56.984375 36.375 
Q 56.984375 17.96875 50.515625 8.265625 
Q 44.046875 -1.421875 31.78125 -1.421875 
Q 19.53125 -1.421875 13.0625 8.265625 
Q 6.59375 17.96875 6.59375 36.375 
Q 6.59375 54.828125 13.0625 64.515625 
Q 19.53125 74.21875 31.78125 74.21875 
z
" id="DejaVuSans-48"/>
        <path d="M 10.6875 12.40625 
L 21 12.40625 
L 21 0 
L 10.6875 0 
z
" id="DejaVuSans-46"/>
       </defs>
       <use xlink:href="#DejaVuSans-48"/>
       <use x="63.623047" xlink:href="#DejaVuSans-46"/>
       <use x="95.410156" xlink:href="#DejaVuSans-48"/>
      </g>
     </g>
    </g>
    <g id="xtick_2">
     <g id="line2d_2">
      <g>
       <use style="stroke:#000000;stroke-width:0.8;" x="90.305974" xlink:href="#m482245b6db" y="273.312"/>
      </g>
     </g>
     <g id="text_2">
      <!-- 2.5 -->
      <g transform="translate(82.354412 287.910437)scale(0.1 -0.1)">
       <defs>
        <path d="M 19.1875 8.296875 
L 53.609375 8.296875 
L 53.609375 0 
L 7.328125 0 
L 7.328125 8.296875 
Q 12.9375 14.109375 22.625 23.890625 
Q 32.328125 33.6875 34.8125 36.53125 
Q 39.546875 41.84375 41.421875 45.53125 
Q 43.3125 49.21875 43.3125 52.78125 
Q 43.3125 58.59375 39.234375 62.25 
Q 35.15625 65.921875 28.609375 65.921875 
Q 23.96875 65.921875 18.8125 64.3125 
Q 13.671875 62.703125 7.8125 59.421875 
L 7.8125 69.390625 
Q 13.765625 71.78125 18.9375 73 
Q 24.125 74.21875 28.421875 74.21875 
Q 39.75 74.21875 46.484375 68.546875 
Q 53.21875 62.890625 53.21875 53.421875 
Q 53.21875 48.921875 51.53125 44.890625 
Q 49.859375 40.875 45.40625 35.40625 
Q 44.1875 33.984375 37.640625 27.21875 
Q 31.109375 20.453125 19.1875 8.296875 
z
" id="DejaVuSans-50"/>
        <path d="M 10.796875 72.90625 
L 49.515625 72.90625 
L 49.515625 64.59375 
L 19.828125 64.59375 
L 19.828125 46.734375 
Q 21.96875 47.46875 24.109375 47.828125 
Q 26.265625 48.1875 28.421875 48.1875 
Q 40.625 48.1875 47.75 41.5 
Q 54.890625 34.8125 54.890625 23.390625 
Q 54.890625 11.625 47.5625 5.09375 
Q 40.234375 -1.421875 26.90625 -1.421875 
Q 22.3125 -1.421875 17.546875 -0.640625 
Q 12.796875 0.140625 7.71875 1.703125 
L 7.71875 11.625 
Q 12.109375 9.234375 16.796875 8.0625 
Q 21.484375 6.890625 26.703125 6.890625 
Q 35.15625 6.890625 40.078125 11.328125 
Q 45.015625 15.765625 45.015625 23.390625 
Q 45.015625 31 40.078125 35.4375 
Q 35.15625 39.890625 26.703125 39.890625 
Q 22.75 39.890625 18.8125 39.015625 
Q 14.890625 38.140625 10.796875 36.28125 
z
" id="DejaVuSans-53"/>
       </defs>
       <use xlink:href="#DejaVuSans-50"/>
       <use x="63.623047" xlink:href="#DejaVuSans-46"/>
       <use x="95.410156" xlink:href="#DejaVuSans-53"/>
      </g>
     </g>
    </g>
    <g id="xtick_3">
     <g id="line2d_3">
      <g>
       <use style="stroke:#000000;stroke-width:0.8;" x="131.091721" xlink:href="#m482245b6db" y="273.312"/>
      </g>
     </g>
     <g id="text_3">
      <!-- 5.0 -->
      <g transform="translate(123.140159 287.910437)scale(0.1 -0.1)">
       <use xlink:href="#DejaVuSans-53"/>
       <use x="63.623047" xlink:href="#DejaVuSans-46"/>
       <use x="95.410156" xlink:href="#DejaVuSans-48"/>
      </g>
     </g>
    </g>
    <g id="xtick_4">
     <g id="line2d_4">
      <g>
       <use style="stroke:#000000;stroke-width:0.8;" x="171.877468" xlink:href="#m482245b6db" y="273.312"/>
      </g>
     </g>
     <g id="text_4">
      <!-- 7.5 -->
      <g transform="translate(163.925906 287.910437)scale(0.1 -0.1)">
       <defs>
        <path d="M 8.203125 72.90625 
L 55.078125 72.90625 
L 55.078125 68.703125 
L 28.609375 0 
L 18.3125 0 
L 43.21875 64.59375 
L 8.203125 64.59375 
z
" id="DejaVuSans-55"/>
       </defs>
       <use xlink:href="#DejaVuSans-55"/>
       <use x="63.623047" xlink:href="#DejaVuSans-46"/>
       <use x="95.410156" xlink:href="#DejaVuSans-53"/>
      </g>
     </g>
    </g>
    <g id="xtick_5">
     <g id="line2d_5">
      <g>
       <use style="stroke:#000000;stroke-width:0.8;" x="212.663215" xlink:href="#m482245b6db" y="273.312"/>
      </g>
     </g>
     <g id="text_5">
      <!-- 10.0 -->
      <g transform="translate(201.530402 287.910437)scale(0.1 -0.1)">
       <defs>
        <path d="M 12.40625 8.296875 
L 28.515625 8.296875 
L 28.515625 63.921875 
L 10.984375 60.40625 
L 10.984375 69.390625 
L 28.421875 72.90625 
L 38.28125 72.90625 
L 38.28125 8.296875 
L 54.390625 8.296875 
L 54.390625 0 
L 12.40625 0 
z
" id="DejaVuSans-49"/>
       </defs>
       <use xlink:href="#DejaVuSans-49"/>
       <use x="63.623047" xlink:href="#DejaVuSans-48"/>
       <use x="127.246094" xlink:href="#DejaVuSans-46"/>
       <use x="159.033203" xlink:href="#DejaVuSans-48"/>
      </g>
     </g>
    </g>
    <g id="xtick_6">
     <g id="line2d_6">
      <g>
       <use style="stroke:#000000;stroke-width:0.8;" x="253.448962" xlink:href="#m482245b6db" y="273.312"/>
      </g>
     </g>
     <g id="text_6">
      <!-- 12.5 -->
      <g transform="translate(242.316149 287.910437)scale(0.1 -0.1)">
       <use xlink:href="#DejaVuSans-49"/>
       <use x="63.623047" xlink:href="#DejaVuSans-50"/>
       <use x="127.246094" xlink:href="#DejaVuSans-46"/>
       <use x="159.033203" xlink:href="#DejaVuSans-53"/>
      </g>
     </g>
    </g>
    <g id="xtick_7">
     <g id="line2d_7">
      <g>
       <use style="stroke:#000000;stroke-width:0.8;" x="294.234709" xlink:href="#m482245b6db" y="273.312"/>
      </g>
     </g>
     <g id="text_7">
      <!-- 15.0 -->
      <g transform="translate(283.101896 287.910437)scale(0.1 -0.1)">
       <use xlink:href="#DejaVuSans-49"/>
       <use x="63.623047" xlink:href="#DejaVuSans-53"/>
       <use x="127.246094" xlink:href="#DejaVuSans-46"/>
       <use x="159.033203" xlink:href="#DejaVuSans-48"/>
      </g>
     </g>
    </g>
    <g id="xtick_8">
     <g id="line2d_8">
      <g>
       <use style="stroke:#000000;stroke-width:0.8;" x="335.020456" xlink:href="#m482245b6db" y="273.312"/>
      </g>
     </g>
     <g id="text_8">
      <!-- 17.5 -->
      <g transform="translate(323.887643 287.910437)scale(0.1 -0.1)">
       <use xlink:href="#DejaVuSans-49"/>
       <use x="63.623047" xlink:href="#DejaVuSans-55"/>
       <use x="127.246094" xlink:href="#DejaVuSans-46"/>
       <use x="159.033203" xlink:href="#DejaVuSans-53"/>
      </g>
     </g>
    </g>
    <g id="xtick_9">
     <g id="line2d_9">
      <g>
       <use style="stroke:#000000;stroke-width:0.8;" x="375.806203" xlink:href="#m482245b6db" y="273.312"/>
      </g>
     </g>
     <g id="text_9">
      <!-- 20.0 -->
      <g transform="translate(364.67339 287.910437)scale(0.1 -0.1)">
       <use xlink:href="#DejaVuSans-50"/>
       <use x="63.623047" xlink:href="#DejaVuSans-48"/>
       <use x="127.246094" xlink:href="#DejaVuSans-46"/>
       <use x="159.033203" xlink:href="#DejaVuSans-48"/>
      </g>
     </g>
    </g>
   </g>
   <g id="matplotlib.axis_2">
    <g id="ytick_1">
     <g id="line2d_10">
      <defs>
       <path d="M 0 0 
L -3.5 0 
" id="m03b9b2971b" style="stroke:#000000;stroke-width:0.8;"/>
      </defs>
      <g>
       <use style="stroke:#000000;stroke-width:0.8;" x="33.2875" xlink:href="#m03b9b2971b" y="261.216"/>
      </g>
     </g>
     <g id="text_10">
      <!-- 0 -->
      <g transform="translate(19.925 265.015219)scale(0.1 -0.1)">
       <use xlink:href="#DejaVuSans-48"/>
      </g>
     </g>
    </g>
    <g id="ytick_2">
     <g id="line2d_11">
      <g>
       <use style="stroke:#000000;stroke-width:0.8;" x="33.2875" xlink:href="#m03b9b2971b" y="218.169737"/>
      </g>
     </g>
     <g id="text_11">
      <!-- 50 -->
      <g transform="translate(13.5625 221.968955)scale(0.1 -0.1)">
       <use xlink:href="#DejaVuSans-53"/>
       <use x="63.623047" xlink:href="#DejaVuSans-48"/>
      </g>
     </g>
    </g>
    <g id="ytick_3">
     <g id="line2d_12">
      <g>
       <use style="stroke:#000000;stroke-width:0.8;" x="33.2875" xlink:href="#m03b9b2971b" y="175.123473"/>
      </g>
     </g>
     <g id="text_12">
      <!-- 100 -->
      <g transform="translate(7.2 178.922692)scale(0.1 -0.1)">
       <use xlink:href="#DejaVuSans-49"/>
       <use x="63.623047" xlink:href="#DejaVuSans-48"/>
       <use x="127.246094" xlink:href="#DejaVuSans-48"/>
      </g>
     </g>
    </g>
    <g id="ytick_4">
     <g id="line2d_13">
      <g>
       <use style="stroke:#000000;stroke-width:0.8;" x="33.2875" xlink:href="#m03b9b2971b" y="132.07721"/>
      </g>
     </g>
     <g id="text_13">
      <!-- 150 -->
      <g transform="translate(7.2 135.876429)scale(0.1 -0.1)">
       <use xlink:href="#DejaVuSans-49"/>
       <use x="63.623047" xlink:href="#DejaVuSans-53"/>
       <use x="127.246094" xlink:href="#DejaVuSans-48"/>
      </g>
     </g>
    </g>
    <g id="ytick_5">
     <g id="line2d_14">
      <g>
       <use style="stroke:#000000;stroke-width:0.8;" x="33.2875" xlink:href="#m03b9b2971b" y="89.030947"/>
      </g>
     </g>
     <g id="text_14">
      <!-- 200 -->
      <g transform="translate(7.2 92.830165)scale(0.1 -0.1)">
       <use xlink:href="#DejaVuSans-50"/>
       <use x="63.623047" xlink:href="#DejaVuSans-48"/>
       <use x="127.246094" xlink:href="#DejaVuSans-48"/>
      </g>
     </g>
    </g>
    <g id="ytick_6">
     <g id="line2d_15">
      <g>
       <use style="stroke:#000000;stroke-width:0.8;" x="33.2875" xlink:href="#m03b9b2971b" y="45.984683"/>
      </g>
     </g>
     <g id="text_15">
      <!-- 250 -->
      <g transform="translate(7.2 49.783902)scale(0.1 -0.1)">
       <use xlink:href="#DejaVuSans-50"/>
       <use x="63.623047" xlink:href="#DejaVuSans-53"/>
       <use x="127.246094" xlink:href="#DejaVuSans-48"/>
      </g>
     </g>
    </g>
   </g>
   <g id="line2d_16">
    <path clip-path="url(#pb0fef1a712)" d="M 49.520227 261.216 
L 53.598802 45.984683 
L 57.677377 45.984683 
L 61.755951 45.984683 
L 65.834526 45.984683 
L 69.913101 45.984683 
L 73.991675 45.984683 
L 78.07025 45.984683 
L 82.148825 45.984683 
L 86.227399 45.984683 
L 90.305974 45.984683 
L 94.384549 45.984683 
L 98.463124 45.984683 
L 102.541698 45.984683 
L 106.620273 45.984683 
L 110.698848 45.984683 
L 114.777422 45.984683 
L 118.855997 45.984683 
L 122.934572 45.984683 
L 127.013146 45.984683 
L 131.091721 45.984683 
L 135.170296 45.984683 
L 139.24887 45.984683 
L 143.327445 45.984683 
L 147.40602 45.984683 
L 151.484595 45.984683 
L 155.563169 45.984683 
L 159.641744 45.984683 
L 163.720319 45.984683 
L 167.798893 45.984683 
L 171.877468 45.984683 
L 175.956043 45.984683 
L 180.034617 45.984683 
L 184.113192 45.984683 
L 188.191767 45.984683 
L 192.270341 45.984683 
L 196.348916 45.984683 
L 200.427491 45.984683 
L 204.506066 45.984683 
L 208.58464 45.984683 
L 212.663215 45.984683 
L 216.74179 45.984683 
L 220.820364 45.984683 
L 224.898939 45.984683 
L 228.977514 45.984683 
L 233.056088 45.984683 
L 237.134663 45.984683 
L 241.213238 45.984683 
L 245.291812 45.984683 
L 249.370387 45.984683 
L 253.448962 45.984683 
L 257.527537 45.984683 
L 261.606111 45.984683 
L 265.684686 45.984683 
L 269.763261 45.984683 
L 273.841835 45.984683 
L 277.92041 45.984683 
L 281.998985 45.984683 
L 286.077559 45.984683 
L 290.156134 45.984683 
L 294.234709 45.984683 
L 298.313283 45.984683 
L 302.391858 45.984683 
L 306.470433 45.984683 
L 310.549008 45.984683 
L 314.627582 45.984683 
L 318.706157 45.984683 
L 322.784732 45.984683 
L 326.863306 45.984683 
L 330.941881 45.984683 
L 335.020456 45.984683 
L 339.09903 45.984683 
L 343.177605 45.984683 
L 347.25618 45.984683 
L 351.334754 45.984683 
L 355.413329 45.984683 
L 359.491904 45.984683 
L 363.570479 45.984683 
L 367.649053 45.984683 
L 371.727628 45.984683 
" style="fill:none;stroke:#1f77b4;stroke-linecap:square;stroke-width:1.5;"/>
   </g>
   <g id="line2d_17">
    <path clip-path="url(#pb0fef1a712)" d="M 49.520227 261.216 
L 53.598802 261.216 
L 57.677377 45.984683 
L 61.755951 45.984683 
L 65.834526 45.984683 
L 69.913101 45.984683 
L 73.991675 45.984683 
L 78.07025 45.984683 
L 82.148825 45.984683 
L 86.227399 45.984683 
L 90.305974 45.984683 
L 94.384549 45.984683 
L 98.463124 45.984683 
L 102.541698 45.984683 
L 106.620273 45.984683 
L 110.698848 45.984683 
L 114.777422 45.984683 
L 118.855997 45.984683 
L 122.934572 45.984683 
L 127.013146 45.984683 
L 131.091721 45.984683 
L 135.170296 45.984683 
L 139.24887 45.984683 
L 143.327445 45.984683 
L 147.40602 45.984683 
L 151.484595 45.984683 
L 155.563169 45.984683 
L 159.641744 45.984683 
L 163.720319 45.984683 
L 167.798893 45.984683 
L 171.877468 45.984683 
L 175.956043 45.984683 
L 180.034617 45.984683 
L 184.113192 45.984683 
L 188.191767 45.984683 
L 192.270341 45.984683 
L 196.348916 45.984683 
L 200.427491 45.984683 
L 204.506066 45.984683 
L 208.58464 45.984683 
L 212.663215 45.984683 
L 216.74179 45.984683 
L 220.820364 45.984683 
L 224.898939 45.984683 
L 228.977514 45.984683 
L 233.056088 45.984683 
L 237.134663 45.984683 
L 241.213238 45.984683 
L 245.291812 45.984683 
L 249.370387 45.984683 
L 253.448962 45.984683 
L 257.527537 45.984683 
L 261.606111 45.984683 
L 265.684686 45.984683 
L 269.763261 45.984683 
L 273.841835 45.984683 
L 277.92041 45.984683 
L 281.998985 45.984683 
L 286.077559 45.984683 
L 290.156134 45.984683 
L 294.234709 45.984683 
L 298.313283 45.984683 
L 302.391858 45.984683 
L 306.470433 45.984683 
L 310.549008 45.984683 
L 314.627582 45.984683 
L 318.706157 45.984683 
L 322.784732 45.984683 
L 326.863306 45.984683 
L 330.941881 45.984683 
L 335.020456 45.984683 
L 339.09903 45.984683 
L 343.177605 45.984683 
L 347.25618 45.984683 
L 351.334754 45.984683 
L 355.413329 45.984683 
L 359.491904 45.984683 
L 363.570479 45.984683 
L 367.649053 45.984683 
L 371.727628 45.984683 
" style="fill:none;stroke:#ff7f0e;stroke-linecap:square;stroke-width:1.5;"/>
   </g>
   <g id="line2d_18">
    <path clip-path="url(#pb0fef1a712)" d="M 49.520227 261.216 
L 51.151657 188.898278 
L 52.783087 134.659986 
L 54.414517 97.640199 
L 56.045947 75.256142 
L 57.677377 70.090591 
L 59.308807 66.64689 
L 60.940236 64.925039 
L 62.571666 59.759488 
L 64.203096 55.454861 
L 65.834526 53.733011 
L 67.465956 58.898562 
L 69.097386 58.037637 
L 70.728816 62.342263 
L 72.360246 56.315786 
L 73.991675 60.620413 
L 75.623105 62.342263 
L 77.254535 44.262833 
L 80.517395 44.262833 
L 82.148825 37.375431 
L 83.780255 37.375431 
L 85.411685 41.680057 
L 87.043114 50.28931 
L 88.674544 45.123758 
L 91.937404 53.733011 
L 93.568834 54.593936 
L 95.200264 47.706534 
L 96.831694 33.070804 
L 98.463124 30.488028 
L 100.094553 32.209879 
L 101.725983 34.792655 
L 103.357413 33.070804 
L 104.988843 43.401907 
L 106.620273 46.845609 
L 108.251703 36.514505 
L 109.883133 44.262833 
L 111.514563 37.375431 
L 113.145992 54.593936 
L 114.777422 56.315786 
L 116.408852 52.01116 
L 118.040282 31.348954 
L 119.671712 39.958206 
L 121.303142 43.401907 
L 122.934572 39.097281 
L 124.566002 41.680057 
L 126.197431 36.514505 
L 127.828861 38.236356 
L 129.460291 55.454861 
L 131.091721 56.315786 
L 132.723151 58.898562 
L 134.354581 68.36874 
L 135.986011 66.64689 
L 137.617441 64.064114 
L 139.24887 52.872085 
L 140.8803 45.123758 
L 142.51173 33.93173 
L 144.14316 28.766178 
L 145.77459 35.65358 
L 147.40602 52.01116 
L 149.03745 47.706534 
L 150.66888 52.872085 
L 152.30031 52.01116 
L 153.931739 48.567459 
L 155.563169 40.819132 
L 157.194599 40.819132 
L 158.826029 50.28931 
L 160.457459 35.65358 
L 162.088889 43.401907 
L 163.720319 46.845609 
L 165.351749 52.872085 
L 166.983178 62.342263 
L 168.614608 59.759488 
L 170.246038 49.428384 
L 171.877468 54.593936 
L 173.508898 55.454861 
L 175.140328 72.673367 
L 176.771758 59.759488 
L 178.403188 61.481338 
L 180.034617 57.176712 
L 181.666047 64.064114 
L 183.297477 69.229665 
L 184.928907 61.481338 
L 186.560337 65.785964 
L 188.191767 55.454861 
L 189.823197 45.984683 
L 191.454627 39.958206 
L 193.086056 40.819132 
L 194.717486 51.150235 
L 196.348916 49.428384 
L 197.980346 61.481338 
L 199.611776 58.037637 
L 201.243206 56.315786 
L 204.506066 70.090591 
L 206.137495 54.593936 
L 207.768925 49.428384 
L 209.400355 49.428384 
L 211.031785 52.872085 
L 212.663215 52.872085 
L 214.294645 56.315786 
L 217.557505 51.150235 
L 219.188934 58.037637 
L 220.820364 55.454861 
L 222.451794 49.428384 
L 224.083224 49.428384 
L 225.714654 53.733011 
L 227.346084 52.01116 
L 228.977514 59.759488 
L 230.608944 45.984683 
L 232.240373 42.540982 
L 233.871803 39.958206 
L 235.503233 50.28931 
L 237.134663 39.958206 
L 238.766093 44.262833 
L 240.397523 36.514505 
L 242.028953 44.262833 
L 243.660383 37.375431 
L 245.291812 21.017851 
L 246.923242 33.070804 
L 248.554672 32.209879 
L 250.186102 36.514505 
L 251.817532 43.401907 
L 253.448962 52.01116 
L 255.080392 38.236356 
L 258.343251 53.733011 
L 259.974681 60.620413 
L 261.606111 42.540982 
L 263.237541 35.65358 
L 264.868971 33.070804 
L 266.500401 58.898562 
L 268.131831 45.984683 
L 269.763261 52.01116 
L 271.39469 38.236356 
L 273.02612 35.65358 
L 274.65755 39.097281 
L 276.28898 50.28931 
L 277.92041 42.540982 
L 279.55184 51.150235 
L 281.18327 43.401907 
L 282.8147 52.872085 
L 284.44613 55.454861 
L 286.077559 60.620413 
L 287.708989 63.203189 
L 289.340419 70.090591 
L 290.971849 60.620413 
L 292.603279 52.872085 
L 294.234709 57.176712 
L 295.866139 47.706534 
L 297.497569 51.150235 
L 299.128998 57.176712 
L 300.760428 47.706534 
L 302.391858 46.845609 
L 304.023288 34.792655 
L 305.654718 51.150235 
L 307.286148 49.428384 
L 308.917578 39.958206 
L 310.549008 40.819132 
L 312.180437 35.65358 
L 313.811867 39.958206 
L 315.443297 45.984683 
L 317.074727 50.28931 
L 318.706157 42.540982 
L 320.337587 43.401907 
L 321.969017 42.540982 
L 323.600447 45.984683 
L 326.863306 58.037637 
L 328.494736 48.567459 
L 330.126166 44.262833 
L 331.757596 48.567459 
L 333.389026 41.680057 
L 335.020456 63.203189 
L 336.651886 60.620413 
L 338.283315 58.898562 
L 339.914745 52.872085 
L 341.546175 55.454861 
L 343.177605 41.680057 
L 344.809035 44.262833 
L 346.440465 53.733011 
L 348.071895 58.037637 
L 351.334754 39.097281 
L 354.597614 49.428384 
L 356.229044 58.898562 
L 357.860474 57.176712 
L 359.491904 58.898562 
L 361.123334 49.428384 
L 362.754764 41.680057 
L 364.386193 32.209879 
L 366.017623 45.984683 
L 367.649053 52.872085 
L 369.280483 50.28931 
L 370.911913 56.315786 
L 372.543343 51.150235 
L 374.174773 59.759488 
L 374.174773 59.759488 
" style="fill:none;stroke:#2ca02c;stroke-linecap:square;stroke-width:1.5;"/>
   </g>
   <g id="line2d_19">
    <path clip-path="url(#pb0fef1a712)" d="M 49.520227 261.216 
L 51.151657 249.163046 
L 52.783087 226.778989 
L 54.414517 195.78568 
L 56.045947 167.375146 
L 57.677377 133.79906 
L 59.308807 105.388527 
L 60.940236 102.805751 
L 62.571666 80.421694 
L 64.203096 69.229665 
L 65.834526 64.064114 
L 67.465956 42.540982 
L 69.097386 42.540982 
L 70.728816 47.706534 
L 72.360246 45.984683 
L 73.991675 45.123758 
L 75.623105 39.958206 
L 77.254535 56.315786 
L 80.517395 32.209879 
L 82.148825 62.342263 
L 83.780255 59.759488 
L 85.411685 50.28931 
L 87.043114 37.375431 
L 88.674544 38.236356 
L 90.305974 55.454861 
L 91.937404 41.680057 
L 93.568834 39.958206 
L 95.200264 41.680057 
L 96.831694 55.454861 
L 98.463124 54.593936 
L 100.094553 54.593936 
L 101.725983 46.845609 
L 103.357413 47.706534 
L 104.988843 39.958206 
L 106.620273 42.540982 
L 108.251703 56.315786 
L 109.883133 47.706534 
L 111.514563 54.593936 
L 113.145992 26.183402 
L 114.777422 33.070804 
L 116.408852 39.097281 
L 118.040282 58.898562 
L 119.671712 42.540982 
L 121.303142 39.097281 
L 122.934572 42.540982 
L 124.566002 37.375431 
L 126.197431 46.845609 
L 127.828861 39.097281 
L 129.460291 23.600626 
L 131.091721 25.322477 
L 132.723151 19.296 
L 134.354581 26.183402 
L 135.986011 20.156925 
L 137.617441 30.488028 
L 139.24887 65.785964 
L 140.8803 58.898562 
L 142.51173 62.342263 
L 144.14316 51.150235 
L 145.77459 43.401907 
L 147.40602 25.322477 
L 149.03745 40.819132 
L 150.66888 33.070804 
L 152.30031 35.65358 
L 153.931739 39.097281 
L 155.563169 60.620413 
L 157.194599 54.593936 
L 158.826029 43.401907 
L 160.457459 57.176712 
L 162.088889 49.428384 
L 163.720319 36.514505 
L 165.351749 27.905253 
L 166.983178 25.322477 
L 168.614608 39.958206 
L 170.246038 52.872085 
L 171.877468 33.93173 
L 173.508898 50.28931 
L 175.140328 35.65358 
L 176.771758 40.819132 
L 180.034617 30.488028 
L 181.666047 33.93173 
L 183.297477 39.958206 
L 184.928907 45.123758 
L 186.560337 39.958206 
L 188.191767 54.593936 
L 189.823197 46.845609 
L 191.454627 52.872085 
L 193.086056 49.428384 
L 194.717486 26.183402 
L 196.348916 24.461552 
L 197.980346 32.209879 
L 199.611776 39.097281 
L 201.243206 36.514505 
L 202.874636 34.792655 
L 204.506066 39.958206 
L 206.137495 45.984683 
L 207.768925 52.872085 
L 209.400355 62.342263 
L 211.031785 56.315786 
L 212.663215 48.567459 
L 214.294645 53.733011 
L 215.926075 52.872085 
L 217.557505 52.872085 
L 219.188934 44.262833 
L 220.820364 32.209879 
L 222.451794 34.792655 
L 224.083224 21.878776 
L 225.714654 28.766178 
L 227.346084 34.792655 
L 228.977514 28.766178 
L 230.608944 50.28931 
L 232.240373 65.785964 
L 233.871803 58.037637 
L 235.503233 43.401907 
L 237.134663 52.872085 
L 238.766093 57.176712 
L 240.397523 58.898562 
L 242.028953 43.401907 
L 243.660383 44.262833 
L 245.291812 57.176712 
L 246.923242 32.209879 
L 248.554672 42.540982 
L 250.186102 45.123758 
L 251.817532 34.792655 
L 253.448962 27.905253 
L 255.080392 49.428384 
L 258.343251 42.540982 
L 259.974681 45.123758 
L 261.606111 64.064114 
L 263.237541 55.454861 
L 264.868971 57.176712 
L 266.500401 41.680057 
L 268.131831 53.733011 
L 269.763261 36.514505 
L 271.39469 52.872085 
L 273.02612 38.236356 
L 274.65755 38.236356 
L 276.28898 31.348954 
L 277.92041 39.097281 
L 279.55184 28.766178 
L 281.18327 50.28931 
L 282.8147 39.097281 
L 284.44613 47.706534 
L 286.077559 37.375431 
L 287.708989 28.766178 
L 289.340419 44.262833 
L 290.971849 61.481338 
L 292.603279 58.037637 
L 294.234709 55.454861 
L 295.866139 51.150235 
L 297.497569 36.514505 
L 299.128998 38.236356 
L 300.760428 43.401907 
L 302.391858 47.706534 
L 304.023288 45.984683 
L 305.654718 21.017851 
L 307.286148 41.680057 
L 308.917578 43.401907 
L 310.549008 36.514505 
L 312.180437 53.733011 
L 313.811867 34.792655 
L 315.443297 21.017851 
L 317.074727 29.627103 
L 318.706157 52.872085 
L 320.337587 48.567459 
L 323.600447 50.28931 
L 325.231876 44.262833 
L 326.863306 42.540982 
L 328.494736 54.593936 
L 330.126166 50.28931 
L 331.757596 44.262833 
L 333.389026 58.037637 
L 335.020456 30.488028 
L 336.651886 26.183402 
L 338.283315 40.819132 
L 339.914745 51.150235 
L 341.546175 42.540982 
L 343.177605 52.872085 
L 344.809035 51.150235 
L 346.440465 25.322477 
L 348.071895 23.600626 
L 351.334754 49.428384 
L 352.966184 46.845609 
L 354.597614 61.481338 
L 356.229044 39.097281 
L 357.860474 31.348954 
L 359.491904 30.488028 
L 362.754764 57.176712 
L 364.386193 63.203189 
L 366.017623 43.401907 
L 367.649053 48.567459 
L 369.280483 43.401907 
L 370.911913 39.958206 
L 372.543343 46.845609 
L 374.174773 23.600626 
L 374.174773 23.600626 
" style="fill:none;stroke:#d62728;stroke-linecap:square;stroke-width:1.5;"/>
   </g>
   <g id="patch_3">
    <path d="M 33.2875 273.312 
L 33.2875 7.2 
" style="fill:none;stroke:#000000;stroke-linecap:square;stroke-linejoin:miter;stroke-width:0.8;"/>
   </g>
   <g id="patch_4">
    <path d="M 390.4075 273.312 
L 390.4075 7.2 
" style="fill:none;stroke:#000000;stroke-linecap:square;stroke-linejoin:miter;stroke-width:0.8;"/>
   </g>
   <g id="patch_5">
    <path d="M 33.2875 273.312 
L 390.4075 273.312 
" style="fill:none;stroke:#000000;stroke-linecap:square;stroke-linejoin:miter;stroke-width:0.8;"/>
   </g>
   <g id="patch_6">
    <path d="M 33.2875 7.2 
L 390.4075 7.2 
" style="fill:none;stroke:#000000;stroke-linecap:square;stroke-linejoin:miter;stroke-width:0.8;"/>
   </g>
  </g>
 </g>
 <defs>
  <clipPath id="pb0fef1a712">
   <rect height="266.112" width="357.12" x="33.2875" y="7.2"/>
  </clipPath>
 </defs>
</svg>
