<?xml version="1.0" encoding="utf-8" standalone="no"?>
<!DOCTYPE svg PUBLIC "-//W3C//DTD SVG 1.1//EN"
  "http://www.w3.org/Graphics/SVG/1.1/DTD/svg11.dtd">
<!-- Created with matplotlib (https://matplotlib.org/) -->
<svg height="297.190125pt" version="1.1" viewBox="0 0 403.97 297.190125" width="403.97pt" xmlns="http://www.w3.org/2000/svg" xmlns:xlink="http://www.w3.org/1999/xlink">
 <metadata>
  <rdf:RDF xmlns:cc="http://creativecommons.org/ns#" xmlns:dc="http://purl.org/dc/elements/1.1/" xmlns:rdf="http://www.w3.org/1999/02/22-rdf-syntax-ns#">
   <cc:Work>
    <dc:type rdf:resource="http://purl.org/dc/dcmitype/StillImage"/>
    <dc:date>2021-05-06T03:32:16.612367</dc:date>
    <dc:format>image/svg+xml</dc:format>
    <dc:creator>
     <cc:Agent>
      <dc:title>Matplotlib v3.3.4, https://matplotlib.org/</dc:title>
     </cc:Agent>
    </dc:creator>
   </cc:Work>
  </rdf:RDF>
 </metadata>
 <defs>
  <style type="text/css">*{stroke-linecap:butt;stroke-linejoin:round;}</style>
 </defs>
 <g id="figure_1">
  <g id="patch_1">
   <path d="M 0 297.190125 
L 403.97 297.190125 
L 403.97 0 
L 0 0 
z
" style="fill:#ffffff;"/>
  </g>
  <g id="axes_1">
   <g id="patch_2">
    <path d="M 39.65 273.312 
L 396.77 273.312 
L 396.77 7.2 
L 39.65 7.2 
z
" style="fill:#ffffff;"/>
   </g>
   <g id="matplotlib.axis_1">
    <g id="xtick_1">
     <g id="line2d_1">
      <defs>
       <path d="M 0 0 
L 0 3.5 
" id="m2558c4e248" style="stroke:#000000;stroke-width:0.8;"/>
      </defs>
      <g>
       <use style="stroke:#000000;stroke-width:0.8;" x="55.882727" xlink:href="#m2558c4e248" y="273.312"/>
      </g>
     </g>
     <g id="text_1">
      <!-- 0.0 -->
      <g transform="translate(47.931165 287.910437)scale(0.1 -0.1)">
       <defs>
        <path d="M 31.78125 66.40625 
Q 24.171875 66.40625 20.328125 58.90625 
Q 16.5 51.421875 16.5 36.375 
Q 16.5 21.390625 20.328125 13.890625 
Q 24.171875 6.390625 31.78125 6.390625 
Q 39.453125 6.390625 43.28125 13.890625 
Q 47.125 21.390625 47.125 36.375 
Q 47.125 51.421875 43.28125 58.90625 
Q 39.453125 66.40625 31.78125 66.40625 
z
M 31.78125 74.21875 
Q 44.046875 74.21875 50.515625 64.515625 
Q 56.984375 54.828125 56.984375 36.375 
Q 56.984375 17.96875 50.515625 8.265625 
Q 44.046875 -1.421875 31.78125 -1.421875 
Q 19.53125 -1.421875 13.0625 8.265625 
Q 6.59375 17.96875 6.59375 36.375 
Q 6.59375 54.828125 13.0625 64.515625 
Q 19.53125 74.21875 31.78125 74.21875 
z
" id="DejaVuSans-48"/>
        <path d="M 10.6875 12.40625 
L 21 12.40625 
L 21 0 
L 10.6875 0 
z
" id="DejaVuSans-46"/>
       </defs>
       <use xlink:href="#DejaVuSans-48"/>
       <use x="63.623047" xlink:href="#DejaVuSans-46"/>
       <use x="95.410156" xlink:href="#DejaVuSans-48"/>
      </g>
     </g>
    </g>
    <g id="xtick_2">
     <g id="line2d_2">
      <g>
       <use style="stroke:#000000;stroke-width:0.8;" x="96.668474" xlink:href="#m2558c4e248" y="273.312"/>
      </g>
     </g>
     <g id="text_2">
      <!-- 2.5 -->
      <g transform="translate(88.716912 287.910437)scale(0.1 -0.1)">
       <defs>
        <path d="M 19.1875 8.296875 
L 53.609375 8.296875 
L 53.609375 0 
L 7.328125 0 
L 7.328125 8.296875 
Q 12.9375 14.109375 22.625 23.890625 
Q 32.328125 33.6875 34.8125 36.53125 
Q 39.546875 41.84375 41.421875 45.53125 
Q 43.3125 49.21875 43.3125 52.78125 
Q 43.3125 58.59375 39.234375 62.25 
Q 35.15625 65.921875 28.609375 65.921875 
Q 23.96875 65.921875 18.8125 64.3125 
Q 13.671875 62.703125 7.8125 59.421875 
L 7.8125 69.390625 
Q 13.765625 71.78125 18.9375 73 
Q 24.125 74.21875 28.421875 74.21875 
Q 39.75 74.21875 46.484375 68.546875 
Q 53.21875 62.890625 53.21875 53.421875 
Q 53.21875 48.921875 51.53125 44.890625 
Q 49.859375 40.875 45.40625 35.40625 
Q 44.1875 33.984375 37.640625 27.21875 
Q 31.109375 20.453125 19.1875 8.296875 
z
" id="DejaVuSans-50"/>
        <path d="M 10.796875 72.90625 
L 49.515625 72.90625 
L 49.515625 64.59375 
L 19.828125 64.59375 
L 19.828125 46.734375 
Q 21.96875 47.46875 24.109375 47.828125 
Q 26.265625 48.1875 28.421875 48.1875 
Q 40.625 48.1875 47.75 41.5 
Q 54.890625 34.8125 54.890625 23.390625 
Q 54.890625 11.625 47.5625 5.09375 
Q 40.234375 -1.421875 26.90625 -1.421875 
Q 22.3125 -1.421875 17.546875 -0.640625 
Q 12.796875 0.140625 7.71875 1.703125 
L 7.71875 11.625 
Q 12.109375 9.234375 16.796875 8.0625 
Q 21.484375 6.890625 26.703125 6.890625 
Q 35.15625 6.890625 40.078125 11.328125 
Q 45.015625 15.765625 45.015625 23.390625 
Q 45.015625 31 40.078125 35.4375 
Q 35.15625 39.890625 26.703125 39.890625 
Q 22.75 39.890625 18.8125 39.015625 
Q 14.890625 38.140625 10.796875 36.28125 
z
" id="DejaVuSans-53"/>
       </defs>
       <use xlink:href="#DejaVuSans-50"/>
       <use x="63.623047" xlink:href="#DejaVuSans-46"/>
       <use x="95.410156" xlink:href="#DejaVuSans-53"/>
      </g>
     </g>
    </g>
    <g id="xtick_3">
     <g id="line2d_3">
      <g>
       <use style="stroke:#000000;stroke-width:0.8;" x="137.454221" xlink:href="#m2558c4e248" y="273.312"/>
      </g>
     </g>
     <g id="text_3">
      <!-- 5.0 -->
      <g transform="translate(129.502659 287.910437)scale(0.1 -0.1)">
       <use xlink:href="#DejaVuSans-53"/>
       <use x="63.623047" xlink:href="#DejaVuSans-46"/>
       <use x="95.410156" xlink:href="#DejaVuSans-48"/>
      </g>
     </g>
    </g>
    <g id="xtick_4">
     <g id="line2d_4">
      <g>
       <use style="stroke:#000000;stroke-width:0.8;" x="178.239968" xlink:href="#m2558c4e248" y="273.312"/>
      </g>
     </g>
     <g id="text_4">
      <!-- 7.5 -->
      <g transform="translate(170.288406 287.910437)scale(0.1 -0.1)">
       <defs>
        <path d="M 8.203125 72.90625 
L 55.078125 72.90625 
L 55.078125 68.703125 
L 28.609375 0 
L 18.3125 0 
L 43.21875 64.59375 
L 8.203125 64.59375 
z
" id="DejaVuSans-55"/>
       </defs>
       <use xlink:href="#DejaVuSans-55"/>
       <use x="63.623047" xlink:href="#DejaVuSans-46"/>
       <use x="95.410156" xlink:href="#DejaVuSans-53"/>
      </g>
     </g>
    </g>
    <g id="xtick_5">
     <g id="line2d_5">
      <g>
       <use style="stroke:#000000;stroke-width:0.8;" x="219.025715" xlink:href="#m2558c4e248" y="273.312"/>
      </g>
     </g>
     <g id="text_5">
      <!-- 10.0 -->
      <g transform="translate(207.892902 287.910437)scale(0.1 -0.1)">
       <defs>
        <path d="M 12.40625 8.296875 
L 28.515625 8.296875 
L 28.515625 63.921875 
L 10.984375 60.40625 
L 10.984375 69.390625 
L 28.421875 72.90625 
L 38.28125 72.90625 
L 38.28125 8.296875 
L 54.390625 8.296875 
L 54.390625 0 
L 12.40625 0 
z
" id="DejaVuSans-49"/>
       </defs>
       <use xlink:href="#DejaVuSans-49"/>
       <use x="63.623047" xlink:href="#DejaVuSans-48"/>
       <use x="127.246094" xlink:href="#DejaVuSans-46"/>
       <use x="159.033203" xlink:href="#DejaVuSans-48"/>
      </g>
     </g>
    </g>
    <g id="xtick_6">
     <g id="line2d_6">
      <g>
       <use style="stroke:#000000;stroke-width:0.8;" x="259.811462" xlink:href="#m2558c4e248" y="273.312"/>
      </g>
     </g>
     <g id="text_6">
      <!-- 12.5 -->
      <g transform="translate(248.678649 287.910437)scale(0.1 -0.1)">
       <use xlink:href="#DejaVuSans-49"/>
       <use x="63.623047" xlink:href="#DejaVuSans-50"/>
       <use x="127.246094" xlink:href="#DejaVuSans-46"/>
       <use x="159.033203" xlink:href="#DejaVuSans-53"/>
      </g>
     </g>
    </g>
    <g id="xtick_7">
     <g id="line2d_7">
      <g>
       <use style="stroke:#000000;stroke-width:0.8;" x="300.597209" xlink:href="#m2558c4e248" y="273.312"/>
      </g>
     </g>
     <g id="text_7">
      <!-- 15.0 -->
      <g transform="translate(289.464396 287.910437)scale(0.1 -0.1)">
       <use xlink:href="#DejaVuSans-49"/>
       <use x="63.623047" xlink:href="#DejaVuSans-53"/>
       <use x="127.246094" xlink:href="#DejaVuSans-46"/>
       <use x="159.033203" xlink:href="#DejaVuSans-48"/>
      </g>
     </g>
    </g>
    <g id="xtick_8">
     <g id="line2d_8">
      <g>
       <use style="stroke:#000000;stroke-width:0.8;" x="341.382956" xlink:href="#m2558c4e248" y="273.312"/>
      </g>
     </g>
     <g id="text_8">
      <!-- 17.5 -->
      <g transform="translate(330.250143 287.910437)scale(0.1 -0.1)">
       <use xlink:href="#DejaVuSans-49"/>
       <use x="63.623047" xlink:href="#DejaVuSans-55"/>
       <use x="127.246094" xlink:href="#DejaVuSans-46"/>
       <use x="159.033203" xlink:href="#DejaVuSans-53"/>
      </g>
     </g>
    </g>
    <g id="xtick_9">
     <g id="line2d_9">
      <g>
       <use style="stroke:#000000;stroke-width:0.8;" x="382.168703" xlink:href="#m2558c4e248" y="273.312"/>
      </g>
     </g>
     <g id="text_9">
      <!-- 20.0 -->
      <g transform="translate(371.03589 287.910437)scale(0.1 -0.1)">
       <use xlink:href="#DejaVuSans-50"/>
       <use x="63.623047" xlink:href="#DejaVuSans-48"/>
       <use x="127.246094" xlink:href="#DejaVuSans-46"/>
       <use x="159.033203" xlink:href="#DejaVuSans-48"/>
      </g>
     </g>
    </g>
   </g>
   <g id="matplotlib.axis_2">
    <g id="ytick_1">
     <g id="line2d_10">
      <defs>
       <path d="M 0 0 
L -3.5 0 
" id="m72a18cbffd" style="stroke:#000000;stroke-width:0.8;"/>
      </defs>
      <g>
       <use style="stroke:#000000;stroke-width:0.8;" x="39.65" xlink:href="#m72a18cbffd" y="261.216"/>
      </g>
     </g>
     <g id="text_10">
      <!-- 0 -->
      <g transform="translate(26.2875 265.015219)scale(0.1 -0.1)">
       <use xlink:href="#DejaVuSans-48"/>
      </g>
     </g>
    </g>
    <g id="ytick_2">
     <g id="line2d_11">
      <g>
       <use style="stroke:#000000;stroke-width:0.8;" x="39.65" xlink:href="#m72a18cbffd" y="221.242438"/>
      </g>
     </g>
     <g id="text_11">
      <!-- 500 -->
      <g transform="translate(13.5625 225.041656)scale(0.1 -0.1)">
       <use xlink:href="#DejaVuSans-53"/>
       <use x="63.623047" xlink:href="#DejaVuSans-48"/>
       <use x="127.246094" xlink:href="#DejaVuSans-48"/>
      </g>
     </g>
    </g>
    <g id="ytick_3">
     <g id="line2d_12">
      <g>
       <use style="stroke:#000000;stroke-width:0.8;" x="39.65" xlink:href="#m72a18cbffd" y="181.268875"/>
      </g>
     </g>
     <g id="text_12">
      <!-- 1000 -->
      <g transform="translate(7.2 185.068094)scale(0.1 -0.1)">
       <use xlink:href="#DejaVuSans-49"/>
       <use x="63.623047" xlink:href="#DejaVuSans-48"/>
       <use x="127.246094" xlink:href="#DejaVuSans-48"/>
       <use x="190.869141" xlink:href="#DejaVuSans-48"/>
      </g>
     </g>
    </g>
    <g id="ytick_4">
     <g id="line2d_13">
      <g>
       <use style="stroke:#000000;stroke-width:0.8;" x="39.65" xlink:href="#m72a18cbffd" y="141.295313"/>
      </g>
     </g>
     <g id="text_13">
      <!-- 1500 -->
      <g transform="translate(7.2 145.094531)scale(0.1 -0.1)">
       <use xlink:href="#DejaVuSans-49"/>
       <use x="63.623047" xlink:href="#DejaVuSans-53"/>
       <use x="127.246094" xlink:href="#DejaVuSans-48"/>
       <use x="190.869141" xlink:href="#DejaVuSans-48"/>
      </g>
     </g>
    </g>
    <g id="ytick_5">
     <g id="line2d_14">
      <g>
       <use style="stroke:#000000;stroke-width:0.8;" x="39.65" xlink:href="#m72a18cbffd" y="101.32175"/>
      </g>
     </g>
     <g id="text_14">
      <!-- 2000 -->
      <g transform="translate(7.2 105.120969)scale(0.1 -0.1)">
       <use xlink:href="#DejaVuSans-50"/>
       <use x="63.623047" xlink:href="#DejaVuSans-48"/>
       <use x="127.246094" xlink:href="#DejaVuSans-48"/>
       <use x="190.869141" xlink:href="#DejaVuSans-48"/>
      </g>
     </g>
    </g>
    <g id="ytick_6">
     <g id="line2d_15">
      <g>
       <use style="stroke:#000000;stroke-width:0.8;" x="39.65" xlink:href="#m72a18cbffd" y="61.348188"/>
      </g>
     </g>
     <g id="text_15">
      <!-- 2500 -->
      <g transform="translate(7.2 65.147406)scale(0.1 -0.1)">
       <use xlink:href="#DejaVuSans-50"/>
       <use x="63.623047" xlink:href="#DejaVuSans-53"/>
       <use x="127.246094" xlink:href="#DejaVuSans-48"/>
       <use x="190.869141" xlink:href="#DejaVuSans-48"/>
      </g>
     </g>
    </g>
    <g id="ytick_7">
     <g id="line2d_16">
      <g>
       <use style="stroke:#000000;stroke-width:0.8;" x="39.65" xlink:href="#m72a18cbffd" y="21.374625"/>
      </g>
     </g>
     <g id="text_16">
      <!-- 3000 -->
      <g transform="translate(7.2 25.173844)scale(0.1 -0.1)">
       <defs>
        <path d="M 40.578125 39.3125 
Q 47.65625 37.796875 51.625 33 
Q 55.609375 28.21875 55.609375 21.1875 
Q 55.609375 10.40625 48.1875 4.484375 
Q 40.765625 -1.421875 27.09375 -1.421875 
Q 22.515625 -1.421875 17.65625 -0.515625 
Q 12.796875 0.390625 7.625 2.203125 
L 7.625 11.71875 
Q 11.71875 9.328125 16.59375 8.109375 
Q 21.484375 6.890625 26.8125 6.890625 
Q 36.078125 6.890625 40.9375 10.546875 
Q 45.796875 14.203125 45.796875 21.1875 
Q 45.796875 27.640625 41.28125 31.265625 
Q 36.765625 34.90625 28.71875 34.90625 
L 20.21875 34.90625 
L 20.21875 43.015625 
L 29.109375 43.015625 
Q 36.375 43.015625 40.234375 45.921875 
Q 44.09375 48.828125 44.09375 54.296875 
Q 44.09375 59.90625 40.109375 62.90625 
Q 36.140625 65.921875 28.71875 65.921875 
Q 24.65625 65.921875 20.015625 65.03125 
Q 15.375 64.15625 9.8125 62.3125 
L 9.8125 71.09375 
Q 15.4375 72.65625 20.34375 73.4375 
Q 25.25 74.21875 29.59375 74.21875 
Q 40.828125 74.21875 47.359375 69.109375 
Q 53.90625 64.015625 53.90625 55.328125 
Q 53.90625 49.265625 50.4375 45.09375 
Q 46.96875 40.921875 40.578125 39.3125 
z
" id="DejaVuSans-51"/>
       </defs>
       <use xlink:href="#DejaVuSans-51"/>
       <use x="63.623047" xlink:href="#DejaVuSans-48"/>
       <use x="127.246094" xlink:href="#DejaVuSans-48"/>
       <use x="190.869141" xlink:href="#DejaVuSans-48"/>
      </g>
     </g>
    </g>
   </g>
   <g id="line2d_17">
    <path clip-path="url(#p2e299b6508)" d="M 55.882727 261.216 
L 59.961302 241.229219 
L 64.039877 223.169163 
L 68.118451 206.850097 
L 72.197026 192.104189 
L 76.275601 178.779786 
L 80.354175 166.739856 
L 84.43275 155.860575 
L 88.511325 146.030057 
L 92.589899 137.147201 
L 96.668474 129.120652 
L 100.747049 121.867862 
L 104.825624 115.314241 
L 108.904198 109.39239 
L 112.982773 104.041404 
L 117.061348 99.206254 
L 121.139922 94.837212 
L 125.218497 90.889346 
L 129.297072 87.322054 
L 133.375646 84.09865 
L 137.454221 81.185981 
L 141.532796 78.554094 
L 145.61137 76.17592 
L 149.689945 74.027003 
L 153.76852 72.085241 
L 157.847095 70.330665 
L 161.925669 68.74523 
L 166.004244 67.312631 
L 170.082819 66.018134 
L 174.161393 64.848427 
L 178.239968 63.79148 
L 182.318543 62.836423 
L 186.397117 61.973433 
L 190.475692 61.193635 
L 194.554267 60.48901 
L 198.632841 59.85231 
L 202.711416 59.276989 
L 206.789991 58.757128 
L 210.868566 58.287382 
L 214.94714 57.86292 
L 219.025715 57.479375 
L 223.10429 57.132805 
L 227.182864 56.819644 
L 231.261439 56.536671 
L 235.340014 56.280977 
L 239.418588 56.049932 
L 243.497163 55.84116 
L 247.575738 55.652513 
L 251.654312 55.482052 
L 255.732887 55.328023 
L 259.811462 55.188843 
L 263.890037 55.06308 
L 267.968611 54.94944 
L 272.047186 54.846755 
L 276.125761 54.753969 
L 280.204335 54.670128 
L 284.28291 54.594369 
L 288.361485 54.525913 
L 292.440059 54.464056 
L 296.518634 54.408162 
L 300.597209 54.357656 
L 304.675783 54.312019 
L 308.754358 54.270782 
L 312.832933 54.23352 
L 316.911508 54.19985 
L 320.990082 54.169425 
L 325.068657 54.141934 
L 329.147232 54.117093 
L 333.225806 54.094646 
L 337.304381 54.074363 
L 341.382956 54.056036 
L 345.46153 54.039475 
L 349.540105 54.024511 
L 353.61868 54.010989 
L 357.697254 53.998771 
L 361.775829 53.987731 
L 365.854404 53.977755 
L 369.932979 53.96874 
L 374.011553 53.960595 
L 378.090128 53.953235 
" style="fill:none;stroke:#1f77b4;stroke-linecap:square;stroke-width:1.5;"/>
   </g>
   <g id="line2d_18">
    <path clip-path="url(#p2e299b6508)" d="M 55.882727 261.216 
L 59.961302 261.216 
L 64.039877 259.289274 
L 68.118451 256.084359 
L 72.197026 252.076106 
L 76.275601 247.60913 
L 80.354175 242.930649 
L 84.43275 238.21529 
L 88.511325 233.583798 
L 92.589899 229.117128 
L 96.668474 224.867045 
L 100.747049 220.864072 
L 104.825624 217.123445 
L 108.904198 213.649547 
L 112.982773 210.439213 
L 117.061348 207.484166 
L 121.139922 204.772813 
L 125.218497 202.291551 
L 129.297072 200.025715 
L 133.375646 197.960245 
L 137.454221 196.080165 
L 141.532796 194.370898 
L 145.61137 192.818484 
L 149.689945 191.409704 
L 153.76852 190.132157 
L 157.847095 188.974291 
L 161.925669 187.925403 
L 166.004244 186.975622 
L 170.082819 186.115876 
L 174.161393 185.337852 
L 178.239968 184.633949 
L 182.318543 183.997234 
L 186.397117 183.42139 
L 190.475692 182.900672 
L 194.554267 182.429858 
L 198.632841 182.004207 
L 202.711416 181.61942 
L 206.789991 181.271598 
L 210.868566 180.957208 
L 214.94714 180.673051 
L 219.025715 180.416231 
L 223.10429 180.184125 
L 227.182864 179.974361 
L 231.261439 179.784794 
L 235.340014 179.613482 
L 239.418588 179.458671 
L 243.497163 179.318772 
L 247.575738 179.192352 
L 251.654312 179.078112 
L 255.732887 178.97488 
L 259.811462 178.881596 
L 263.890037 178.797302 
L 267.968611 178.721132 
L 272.047186 178.652303 
L 276.125761 178.590108 
L 280.204335 178.533907 
L 284.28291 178.483124 
L 288.361485 178.437235 
L 292.440059 178.39577 
L 296.518634 178.358302 
L 300.597209 178.324446 
L 304.675783 178.293853 
L 308.754358 178.266209 
L 312.832933 178.24123 
L 316.911508 178.218658 
L 320.990082 178.198263 
L 325.068657 178.179834 
L 329.147232 178.163181 
L 333.225806 178.148133 
L 337.304381 178.134536 
L 341.382956 178.12225 
L 345.46153 178.111148 
L 349.540105 178.101117 
L 353.61868 178.092052 
L 357.697254 178.083861 
L 361.775829 178.07646 
L 365.854404 178.069773 
L 369.932979 178.063729 
L 374.011553 178.058269 
L 378.090128 178.053335 
" style="fill:none;stroke:#ff7f0e;stroke-linecap:square;stroke-width:1.5;"/>
   </g>
   <g id="line2d_19">
    <path clip-path="url(#p2e299b6508)" d="M 55.882727 261.216 
L 59.145587 247.784883 
L 60.777017 238.910752 
L 62.408447 231.795458 
L 64.039877 223.640851 
L 68.934166 204.933224 
L 70.565596 197.578089 
L 72.197026 192.061737 
L 73.828456 185.02639 
L 75.459886 179.909774 
L 78.722746 170.55596 
L 81.985605 158.32405 
L 83.617035 153.926958 
L 85.248465 149.130131 
L 86.879895 145.692404 
L 88.511325 140.176053 
L 90.142755 137.058115 
L 91.774185 134.259966 
L 93.405614 132.581076 
L 96.668474 125.465782 
L 98.299904 122.427791 
L 99.931334 118.270541 
L 101.562764 114.752867 
L 103.194194 111.954718 
L 104.825624 110.195881 
L 106.457053 107.397732 
L 108.088483 104.1199 
L 109.719913 101.961327 
L 111.351343 98.443654 
L 112.982773 96.444976 
L 114.614203 93.167143 
L 116.245633 93.327038 
L 117.877063 91.808042 
L 119.508492 88.929946 
L 121.139922 87.570845 
L 122.771352 85.332325 
L 124.402782 81.175075 
L 126.034212 80.615445 
L 127.665642 79.176397 
L 129.297072 78.936555 
L 132.559931 75.418882 
L 134.191361 72.220997 
L 135.822791 70.781948 
L 137.454221 68.303588 
L 139.085651 67.024434 
L 140.717081 67.983799 
L 142.348511 66.464804 
L 143.979941 63.906496 
L 145.61137 61.747923 
L 147.2428 60.708611 
L 148.87423 59.189615 
L 150.50566 56.871149 
L 152.13709 55.512048 
L 153.76852 55.032365 
L 157.03138 51.27485 
L 158.66281 50.875114 
L 160.294239 51.594638 
L 161.925669 53.833158 
L 163.557099 53.513369 
L 165.188529 52.474057 
L 166.819959 50.15559 
L 168.451389 49.835802 
L 170.082819 50.71522 
L 171.714249 50.555326 
L 173.345678 51.035009 
L 174.977108 52.713898 
L 176.608538 51.994374 
L 181.502828 50.875114 
L 183.134258 48.876436 
L 184.765688 45.198868 
L 186.397117 45.918393 
L 188.028547 44.559291 
L 189.659977 43.75982 
L 192.922837 39.922358 
L 194.554267 38.003627 
L 197.817127 35.445319 
L 199.448556 34.006271 
L 201.079986 32.08754 
L 202.711416 32.567223 
L 204.342846 31.927646 
L 205.974276 30.728439 
L 207.605706 31.847699 
L 209.237136 30.168809 
L 210.868566 30.568545 
L 212.499995 30.808386 
L 214.131425 30.888333 
L 217.394285 32.567223 
L 219.025715 32.966958 
L 220.657145 31.048227 
L 223.920005 29.049549 
L 225.551434 28.250078 
L 227.182864 30.328703 
L 228.814294 31.847699 
L 230.445724 31.687804 
L 232.077154 30.96828 
L 233.708584 30.808386 
L 235.340014 31.52791 
L 236.971444 30.808386 
L 238.602873 30.328703 
L 240.234303 30.328703 
L 241.865733 31.767751 
L 243.497163 31.927646 
L 245.128593 31.52791 
L 246.760023 30.96828 
L 248.391453 30.888333 
L 250.022883 31.607857 
L 251.654312 31.767751 
L 253.285742 31.687804 
L 254.917172 31.208122 
L 256.548602 29.769073 
L 258.180032 29.449285 
L 259.811462 28.969602 
L 263.074322 27.610501 
L 264.705751 26.81103 
L 266.337181 26.890977 
L 267.968611 26.411294 
L 269.600041 25.052193 
L 271.231471 25.292034 
L 272.862901 25.771717 
L 274.494331 26.091506 
L 276.125761 27.050871 
L 277.75719 26.890977 
L 279.38862 26.571188 
L 281.02005 26.011558 
L 282.65148 25.052193 
L 285.91434 25.292034 
L 287.54577 25.531876 
L 289.1772 23.852986 
L 290.80863 23.773039 
L 292.440059 23.373303 
L 294.071489 22.174096 
L 295.702919 23.533198 
L 297.334349 24.01288 
L 298.965779 23.773039 
L 300.597209 25.371981 
L 302.228639 24.972246 
L 303.860069 25.292034 
L 305.491498 24.732404 
L 307.122928 24.652457 
L 308.754358 25.13214 
L 310.385788 24.492563 
L 312.017218 22.653779 
L 313.648648 23.45325 
L 316.911508 20.814995 
L 318.542937 20.894942 
L 320.174367 22.573832 
L 321.805797 23.053515 
L 323.437227 24.01288 
L 325.068657 22.813673 
L 326.700087 22.333991 
L 329.962947 22.493885 
L 331.594376 22.733726 
L 333.225806 22.813673 
L 334.857236 24.172775 
L 336.488666 25.212087 
L 338.120096 24.57251 
L 339.751526 25.371981 
L 341.382956 26.491241 
L 343.014386 23.773039 
L 344.645815 24.57251 
L 346.277245 24.812352 
L 347.908675 23.45325 
L 349.540105 23.773039 
L 351.171535 23.693092 
L 352.802965 23.293356 
L 354.434395 24.412616 
L 356.065825 26.331347 
L 357.697254 26.011558 
L 359.328684 25.451929 
L 360.960114 23.293356 
L 362.591544 24.332669 
L 364.222974 25.851664 
L 365.854404 26.571188 
L 367.485834 26.651135 
L 369.117264 28.330025 
L 370.748693 27.450607 
L 372.380123 27.37066 
L 374.011553 24.812352 
L 377.274413 21.934255 
L 378.905843 20.255365 
L 380.537273 19.296 
L 380.537273 19.296 
" style="fill:none;stroke:#2ca02c;stroke-linecap:square;stroke-width:1.5;"/>
   </g>
   <g id="line2d_20">
    <path clip-path="url(#p2e299b6508)" d="M 55.882727 261.216 
L 57.514157 261.216 
L 60.777017 260.496476 
L 62.408447 259.776952 
L 64.039877 258.897533 
L 65.671307 258.497798 
L 70.565596 253.940812 
L 72.197026 252.661658 
L 73.828456 250.982768 
L 77.091316 247.065359 
L 78.722746 244.187262 
L 81.985605 240.189906 
L 83.617035 237.551651 
L 85.248465 235.63292 
L 86.879895 233.394401 
L 88.511325 231.555617 
L 90.142755 229.23715 
L 91.774185 227.957996 
L 93.405614 225.319741 
L 95.037044 223.880693 
L 96.668474 222.041909 
L 98.299904 219.643495 
L 99.931334 217.00524 
L 101.562764 215.965927 
L 103.194194 214.127143 
L 106.457053 208.770686 
L 108.088483 207.491532 
L 109.719913 203.813964 
L 111.351343 202.454863 
L 112.982773 200.056449 
L 114.614203 199.336925 
L 116.245633 196.059093 
L 117.877063 195.099728 
L 119.508492 193.260944 
L 121.139922 191.102371 
L 122.771352 190.542742 
L 124.402782 190.542742 
L 126.034212 188.863852 
L 127.665642 187.344857 
L 129.297072 184.46676 
L 130.928502 183.90713 
L 132.559931 182.228241 
L 134.191361 181.508716 
L 135.822791 180.389457 
L 137.454221 179.829827 
L 139.085651 178.150937 
L 140.717081 177.111625 
L 142.348511 176.3921 
L 143.979941 174.633264 
L 145.61137 175.672576 
L 147.2428 175.912418 
L 148.87423 175.192894 
L 150.50566 175.032999 
L 152.13709 171.67522 
L 153.76852 170.476013 
L 155.39995 168.637229 
L 157.03138 167.997652 
L 158.66281 164.080243 
L 160.294239 162.960983 
L 161.925669 161.441988 
L 163.557099 159.043574 
L 165.188529 157.444632 
L 166.819959 157.604526 
L 168.451389 156.964949 
L 170.082819 158.004262 
L 171.714249 157.284738 
L 173.345678 156.085531 
L 174.977108 155.046218 
L 176.608538 155.286059 
L 178.239968 154.486588 
L 179.871398 154.966271 
L 181.502828 156.085531 
L 183.134258 156.405319 
L 184.765688 158.084209 
L 186.397117 157.684473 
L 188.028547 159.123521 
L 189.659977 159.283416 
L 191.291407 158.723786 
L 192.922837 161.601882 
L 194.554267 161.521935 
L 196.185697 161.282094 
L 197.817127 160.322728 
L 199.448556 158.004262 
L 201.079986 158.803733 
L 204.342846 155.845689 
L 205.974276 154.886324 
L 207.605706 154.646482 
L 209.237136 154.806377 
L 210.868566 154.646482 
L 212.499995 152.887646 
L 214.131425 152.967593 
L 215.762855 151.848333 
L 217.394285 151.048862 
L 219.025715 149.290025 
L 220.657145 148.810342 
L 222.288575 149.050184 
L 223.920005 148.010871 
L 225.551434 149.369972 
L 227.182864 148.090818 
L 228.814294 147.2114 
L 230.445724 147.051506 
L 232.077154 147.371294 
L 233.708584 148.250712 
L 235.340014 148.570501 
L 236.971444 148.650448 
L 238.602873 149.449919 
L 240.234303 149.689761 
L 241.865733 148.33066 
L 243.497163 148.410607 
L 245.128593 147.691083 
L 246.760023 148.730395 
L 248.391453 146.891611 
L 250.022883 146.252034 
L 251.654312 144.333303 
L 254.917172 146.331981 
L 256.548602 147.611135 
L 258.180032 147.451241 
L 259.811462 147.850977 
L 261.442892 147.371294 
L 263.074322 147.2114 
L 264.705751 145.772352 
L 266.337181 147.131453 
L 267.968611 147.2114 
L 269.600041 147.531188 
L 271.231471 148.170765 
L 272.862901 146.252034 
L 274.494331 146.09214 
L 276.125761 143.773673 
L 277.75719 143.453885 
L 279.38862 144.653092 
L 281.02005 146.172087 
L 282.65148 145.772352 
L 284.28291 146.411929 
L 285.91434 146.411929 
L 287.54577 146.252034 
L 289.1772 146.891611 
L 290.80863 146.252034 
L 292.440059 146.331981 
L 294.071489 147.291347 
L 295.702919 146.65177 
L 297.334349 145.212722 
L 298.965779 146.571823 
L 300.597209 143.613779 
L 302.228639 143.933568 
L 303.860069 143.773673 
L 305.491498 142.334625 
L 308.754358 144.013515 
L 310.385788 142.814308 
L 312.017218 143.533832 
L 313.648648 142.734361 
L 315.280078 143.533832 
L 316.911508 144.892933 
L 318.542937 145.052827 
L 320.174367 144.812986 
L 321.805797 144.892933 
L 325.068657 146.971558 
L 326.700087 145.53251 
L 328.331517 145.772352 
L 329.962947 145.372616 
L 331.594376 145.132775 
L 333.225806 143.693726 
L 334.857236 142.734361 
L 336.488666 143.853621 
L 338.120096 143.054149 
L 339.751526 142.574467 
L 341.382956 143.933568 
L 344.645815 143.054149 
L 346.277245 144.013515 
L 347.908675 144.573145 
L 349.540105 143.693726 
L 351.171535 143.853621 
L 352.802965 143.293991 
L 354.434395 142.174731 
L 356.065825 141.615101 
L 357.697254 140.335947 
L 359.328684 140.415894 
L 360.960114 142.494519 
L 364.222974 142.254678 
L 365.854404 140.81563 
L 367.485834 140.575788 
L 369.117264 140.096106 
L 370.748693 139.856264 
L 372.380123 140.176053 
L 374.011553 140.735683 
L 375.642983 142.494519 
L 377.274413 143.853621 
L 378.905843 143.693726 
L 380.537273 143.853621 
L 380.537273 143.853621 
" style="fill:none;stroke:#d62728;stroke-linecap:square;stroke-width:1.5;"/>
   </g>
   <g id="patch_3">
    <path d="M 39.65 273.312 
L 39.65 7.2 
" style="fill:none;stroke:#000000;stroke-linecap:square;stroke-linejoin:miter;stroke-width:0.8;"/>
   </g>
   <g id="patch_4">
    <path d="M 396.77 273.312 
L 396.77 7.2 
" style="fill:none;stroke:#000000;stroke-linecap:square;stroke-linejoin:miter;stroke-width:0.8;"/>
   </g>
   <g id="patch_5">
    <path d="M 39.65 273.312 
L 396.77 273.312 
" style="fill:none;stroke:#000000;stroke-linecap:square;stroke-linejoin:miter;stroke-width:0.8;"/>
   </g>
   <g id="patch_6">
    <path d="M 39.65 7.2 
L 396.77 7.2 
" style="fill:none;stroke:#000000;stroke-linecap:square;stroke-linejoin:miter;stroke-width:0.8;"/>
   </g>
  </g>
 </g>
 <defs>
  <clipPath id="p2e299b6508">
   <rect height="266.112" width="357.12" x="39.65" y="7.2"/>
  </clipPath>
 </defs>
</svg>
