<?xml version="1.0" encoding="utf-8" standalone="no"?>
<!DOCTYPE svg PUBLIC "-//W3C//DTD SVG 1.1//EN"
  "http://www.w3.org/Graphics/SVG/1.1/DTD/svg11.dtd">
<svg xmlns:xlink="http://www.w3.org/1999/xlink" width="403.97pt" height="297.190125pt" viewBox="0 0 403.97 297.190125" xmlns="http://www.w3.org/2000/svg" version="1.1">
 <metadata>
  <rdf:RDF xmlns:dc="http://purl.org/dc/elements/1.1/" xmlns:cc="http://creativecommons.org/ns#" xmlns:rdf="http://www.w3.org/1999/02/22-rdf-syntax-ns#">
   <cc:Work>
    <dc:type rdf:resource="http://purl.org/dc/dcmitype/StillImage"/>
    <dc:date>2024-08-30T00:09:43.092095</dc:date>
    <dc:format>image/svg+xml</dc:format>
    <dc:creator>
     <cc:Agent>
      <dc:title>Matplotlib v3.9.2, https://matplotlib.org/</dc:title>
     </cc:Agent>
    </dc:creator>
   </cc:Work>
  </rdf:RDF>
 </metadata>
 <defs>
  <style type="text/css">*{stroke-linejoin: round; stroke-linecap: butt}</style>
 </defs>
 <g id="figure_1">
  <g id="patch_1">
   <path d="M 0 297.190125 
L 403.97 297.190125 
L 403.97 0 
L 0 0 
z
" style="fill: #ffffff"/>
  </g>
  <g id="axes_1">
   <g id="patch_2">
    <path d="M 39.65 273.312 
L 396.77 273.312 
L 396.77 7.2 
L 39.65 7.2 
z
" style="fill: #ffffff"/>
   </g>
   <g id="matplotlib.axis_1">
    <g id="xtick_1">
     <g id="line2d_1">
      <defs>
       <path id="m205a5e80d8" d="M 0 0 
L 0 3.5 
" style="stroke: #000000; stroke-width: 0.8"/>
      </defs>
      <g>
       <use xlink:href="#m205a5e80d8" x="55.882727" y="273.312" style="stroke: #000000; stroke-width: 0.8"/>
      </g>
     </g>
     <g id="text_1">
      <!-- 0.0 -->
      <g transform="translate(47.931165 287.910437) scale(0.1 -0.1)">
       <defs>
        <path id="DejaVuSans-30" d="M 2034 4250 
Q 1547 4250 1301 3770 
Q 1056 3291 1056 2328 
Q 1056 1369 1301 889 
Q 1547 409 2034 409 
Q 2525 409 2770 889 
Q 3016 1369 3016 2328 
Q 3016 3291 2770 3770 
Q 2525 4250 2034 4250 
z
M 2034 4750 
Q 2819 4750 3233 4129 
Q 3647 3509 3647 2328 
Q 3647 1150 3233 529 
Q 2819 -91 2034 -91 
Q 1250 -91 836 529 
Q 422 1150 422 2328 
Q 422 3509 836 4129 
Q 1250 4750 2034 4750 
z
" transform="scale(0.015625)"/>
        <path id="DejaVuSans-2e" d="M 684 794 
L 1344 794 
L 1344 0 
L 684 0 
L 684 794 
z
" transform="scale(0.015625)"/>
       </defs>
       <use xlink:href="#DejaVuSans-30"/>
       <use xlink:href="#DejaVuSans-2e" x="63.623047"/>
       <use xlink:href="#DejaVuSans-30" x="95.410156"/>
      </g>
     </g>
    </g>
    <g id="xtick_2">
     <g id="line2d_2">
      <g>
       <use xlink:href="#m205a5e80d8" x="96.668474" y="273.312" style="stroke: #000000; stroke-width: 0.8"/>
      </g>
     </g>
     <g id="text_2">
      <!-- 2.5 -->
      <g transform="translate(88.716912 287.910437) scale(0.1 -0.1)">
       <defs>
        <path id="DejaVuSans-32" d="M 1228 531 
L 3431 531 
L 3431 0 
L 469 0 
L 469 531 
Q 828 903 1448 1529 
Q 2069 2156 2228 2338 
Q 2531 2678 2651 2914 
Q 2772 3150 2772 3378 
Q 2772 3750 2511 3984 
Q 2250 4219 1831 4219 
Q 1534 4219 1204 4116 
Q 875 4013 500 3803 
L 500 4441 
Q 881 4594 1212 4672 
Q 1544 4750 1819 4750 
Q 2544 4750 2975 4387 
Q 3406 4025 3406 3419 
Q 3406 3131 3298 2873 
Q 3191 2616 2906 2266 
Q 2828 2175 2409 1742 
Q 1991 1309 1228 531 
z
" transform="scale(0.015625)"/>
        <path id="DejaVuSans-35" d="M 691 4666 
L 3169 4666 
L 3169 4134 
L 1269 4134 
L 1269 2991 
Q 1406 3038 1543 3061 
Q 1681 3084 1819 3084 
Q 2600 3084 3056 2656 
Q 3513 2228 3513 1497 
Q 3513 744 3044 326 
Q 2575 -91 1722 -91 
Q 1428 -91 1123 -41 
Q 819 9 494 109 
L 494 744 
Q 775 591 1075 516 
Q 1375 441 1709 441 
Q 2250 441 2565 725 
Q 2881 1009 2881 1497 
Q 2881 1984 2565 2268 
Q 2250 2553 1709 2553 
Q 1456 2553 1204 2497 
Q 953 2441 691 2322 
L 691 4666 
z
" transform="scale(0.015625)"/>
       </defs>
       <use xlink:href="#DejaVuSans-32"/>
       <use xlink:href="#DejaVuSans-2e" x="63.623047"/>
       <use xlink:href="#DejaVuSans-35" x="95.410156"/>
      </g>
     </g>
    </g>
    <g id="xtick_3">
     <g id="line2d_3">
      <g>
       <use xlink:href="#m205a5e80d8" x="137.454221" y="273.312" style="stroke: #000000; stroke-width: 0.8"/>
      </g>
     </g>
     <g id="text_3">
      <!-- 5.0 -->
      <g transform="translate(129.502659 287.910437) scale(0.1 -0.1)">
       <use xlink:href="#DejaVuSans-35"/>
       <use xlink:href="#DejaVuSans-2e" x="63.623047"/>
       <use xlink:href="#DejaVuSans-30" x="95.410156"/>
      </g>
     </g>
    </g>
    <g id="xtick_4">
     <g id="line2d_4">
      <g>
       <use xlink:href="#m205a5e80d8" x="178.239968" y="273.312" style="stroke: #000000; stroke-width: 0.8"/>
      </g>
     </g>
     <g id="text_4">
      <!-- 7.5 -->
      <g transform="translate(170.288406 287.910437) scale(0.1 -0.1)">
       <defs>
        <path id="DejaVuSans-37" d="M 525 4666 
L 3525 4666 
L 3525 4397 
L 1831 0 
L 1172 0 
L 2766 4134 
L 525 4134 
L 525 4666 
z
" transform="scale(0.015625)"/>
       </defs>
       <use xlink:href="#DejaVuSans-37"/>
       <use xlink:href="#DejaVuSans-2e" x="63.623047"/>
       <use xlink:href="#DejaVuSans-35" x="95.410156"/>
      </g>
     </g>
    </g>
    <g id="xtick_5">
     <g id="line2d_5">
      <g>
       <use xlink:href="#m205a5e80d8" x="219.025715" y="273.312" style="stroke: #000000; stroke-width: 0.8"/>
      </g>
     </g>
     <g id="text_5">
      <!-- 10.0 -->
      <g transform="translate(207.892902 287.910437) scale(0.1 -0.1)">
       <defs>
        <path id="DejaVuSans-31" d="M 794 531 
L 1825 531 
L 1825 4091 
L 703 3866 
L 703 4441 
L 1819 4666 
L 2450 4666 
L 2450 531 
L 3481 531 
L 3481 0 
L 794 0 
L 794 531 
z
" transform="scale(0.015625)"/>
       </defs>
       <use xlink:href="#DejaVuSans-31"/>
       <use xlink:href="#DejaVuSans-30" x="63.623047"/>
       <use xlink:href="#DejaVuSans-2e" x="127.246094"/>
       <use xlink:href="#DejaVuSans-30" x="159.033203"/>
      </g>
     </g>
    </g>
    <g id="xtick_6">
     <g id="line2d_6">
      <g>
       <use xlink:href="#m205a5e80d8" x="259.811462" y="273.312" style="stroke: #000000; stroke-width: 0.8"/>
      </g>
     </g>
     <g id="text_6">
      <!-- 12.5 -->
      <g transform="translate(248.678649 287.910437) scale(0.1 -0.1)">
       <use xlink:href="#DejaVuSans-31"/>
       <use xlink:href="#DejaVuSans-32" x="63.623047"/>
       <use xlink:href="#DejaVuSans-2e" x="127.246094"/>
       <use xlink:href="#DejaVuSans-35" x="159.033203"/>
      </g>
     </g>
    </g>
    <g id="xtick_7">
     <g id="line2d_7">
      <g>
       <use xlink:href="#m205a5e80d8" x="300.597209" y="273.312" style="stroke: #000000; stroke-width: 0.8"/>
      </g>
     </g>
     <g id="text_7">
      <!-- 15.0 -->
      <g transform="translate(289.464396 287.910437) scale(0.1 -0.1)">
       <use xlink:href="#DejaVuSans-31"/>
       <use xlink:href="#DejaVuSans-35" x="63.623047"/>
       <use xlink:href="#DejaVuSans-2e" x="127.246094"/>
       <use xlink:href="#DejaVuSans-30" x="159.033203"/>
      </g>
     </g>
    </g>
    <g id="xtick_8">
     <g id="line2d_8">
      <g>
       <use xlink:href="#m205a5e80d8" x="341.382956" y="273.312" style="stroke: #000000; stroke-width: 0.8"/>
      </g>
     </g>
     <g id="text_8">
      <!-- 17.5 -->
      <g transform="translate(330.250143 287.910437) scale(0.1 -0.1)">
       <use xlink:href="#DejaVuSans-31"/>
       <use xlink:href="#DejaVuSans-37" x="63.623047"/>
       <use xlink:href="#DejaVuSans-2e" x="127.246094"/>
       <use xlink:href="#DejaVuSans-35" x="159.033203"/>
      </g>
     </g>
    </g>
    <g id="xtick_9">
     <g id="line2d_9">
      <g>
       <use xlink:href="#m205a5e80d8" x="382.168703" y="273.312" style="stroke: #000000; stroke-width: 0.8"/>
      </g>
     </g>
     <g id="text_9">
      <!-- 20.0 -->
      <g transform="translate(371.03589 287.910437) scale(0.1 -0.1)">
       <use xlink:href="#DejaVuSans-32"/>
       <use xlink:href="#DejaVuSans-30" x="63.623047"/>
       <use xlink:href="#DejaVuSans-2e" x="127.246094"/>
       <use xlink:href="#DejaVuSans-30" x="159.033203"/>
      </g>
     </g>
    </g>
   </g>
   <g id="matplotlib.axis_2">
    <g id="ytick_1">
     <g id="line2d_10">
      <defs>
       <path id="m54d7894e29" d="M 0 0 
L -3.5 0 
" style="stroke: #000000; stroke-width: 0.8"/>
      </defs>
      <g>
       <use xlink:href="#m54d7894e29" x="39.65" y="261.216" style="stroke: #000000; stroke-width: 0.8"/>
      </g>
     </g>
     <g id="text_10">
      <!-- 0 -->
      <g transform="translate(26.2875 265.015219) scale(0.1 -0.1)">
       <use xlink:href="#DejaVuSans-30"/>
      </g>
     </g>
    </g>
    <g id="ytick_2">
     <g id="line2d_11">
      <g>
       <use xlink:href="#m54d7894e29" x="39.65" y="221.255643" style="stroke: #000000; stroke-width: 0.8"/>
      </g>
     </g>
     <g id="text_11">
      <!-- 500 -->
      <g transform="translate(13.5625 225.054862) scale(0.1 -0.1)">
       <use xlink:href="#DejaVuSans-35"/>
       <use xlink:href="#DejaVuSans-30" x="63.623047"/>
       <use xlink:href="#DejaVuSans-30" x="127.246094"/>
      </g>
     </g>
    </g>
    <g id="ytick_3">
     <g id="line2d_12">
      <g>
       <use xlink:href="#m54d7894e29" x="39.65" y="181.295286" style="stroke: #000000; stroke-width: 0.8"/>
      </g>
     </g>
     <g id="text_12">
      <!-- 1000 -->
      <g transform="translate(7.2 185.094505) scale(0.1 -0.1)">
       <use xlink:href="#DejaVuSans-31"/>
       <use xlink:href="#DejaVuSans-30" x="63.623047"/>
       <use xlink:href="#DejaVuSans-30" x="127.246094"/>
       <use xlink:href="#DejaVuSans-30" x="190.869141"/>
      </g>
     </g>
    </g>
    <g id="ytick_4">
     <g id="line2d_13">
      <g>
       <use xlink:href="#m54d7894e29" x="39.65" y="141.33493" style="stroke: #000000; stroke-width: 0.8"/>
      </g>
     </g>
     <g id="text_13">
      <!-- 1500 -->
      <g transform="translate(7.2 145.134148) scale(0.1 -0.1)">
       <use xlink:href="#DejaVuSans-31"/>
       <use xlink:href="#DejaVuSans-35" x="63.623047"/>
       <use xlink:href="#DejaVuSans-30" x="127.246094"/>
       <use xlink:href="#DejaVuSans-30" x="190.869141"/>
      </g>
     </g>
    </g>
    <g id="ytick_5">
     <g id="line2d_14">
      <g>
       <use xlink:href="#m54d7894e29" x="39.65" y="101.374573" style="stroke: #000000; stroke-width: 0.8"/>
      </g>
     </g>
     <g id="text_14">
      <!-- 2000 -->
      <g transform="translate(7.2 105.173792) scale(0.1 -0.1)">
       <use xlink:href="#DejaVuSans-32"/>
       <use xlink:href="#DejaVuSans-30" x="63.623047"/>
       <use xlink:href="#DejaVuSans-30" x="127.246094"/>
       <use xlink:href="#DejaVuSans-30" x="190.869141"/>
      </g>
     </g>
    </g>
    <g id="ytick_6">
     <g id="line2d_15">
      <g>
       <use xlink:href="#m54d7894e29" x="39.65" y="61.414216" style="stroke: #000000; stroke-width: 0.8"/>
      </g>
     </g>
     <g id="text_15">
      <!-- 2500 -->
      <g transform="translate(7.2 65.213435) scale(0.1 -0.1)">
       <use xlink:href="#DejaVuSans-32"/>
       <use xlink:href="#DejaVuSans-35" x="63.623047"/>
       <use xlink:href="#DejaVuSans-30" x="127.246094"/>
       <use xlink:href="#DejaVuSans-30" x="190.869141"/>
      </g>
     </g>
    </g>
    <g id="ytick_7">
     <g id="line2d_16">
      <g>
       <use xlink:href="#m54d7894e29" x="39.65" y="21.453859" style="stroke: #000000; stroke-width: 0.8"/>
      </g>
     </g>
     <g id="text_16">
      <!-- 3000 -->
      <g transform="translate(7.2 25.253078) scale(0.1 -0.1)">
       <defs>
        <path id="DejaVuSans-33" d="M 2597 2516 
Q 3050 2419 3304 2112 
Q 3559 1806 3559 1356 
Q 3559 666 3084 287 
Q 2609 -91 1734 -91 
Q 1441 -91 1130 -33 
Q 819 25 488 141 
L 488 750 
Q 750 597 1062 519 
Q 1375 441 1716 441 
Q 2309 441 2620 675 
Q 2931 909 2931 1356 
Q 2931 1769 2642 2001 
Q 2353 2234 1838 2234 
L 1294 2234 
L 1294 2753 
L 1863 2753 
Q 2328 2753 2575 2939 
Q 2822 3125 2822 3475 
Q 2822 3834 2567 4026 
Q 2313 4219 1838 4219 
Q 1578 4219 1281 4162 
Q 984 4106 628 3988 
L 628 4550 
Q 988 4650 1302 4700 
Q 1616 4750 1894 4750 
Q 2613 4750 3031 4423 
Q 3450 4097 3450 3541 
Q 3450 3153 3228 2886 
Q 3006 2619 2597 2516 
z
" transform="scale(0.015625)"/>
       </defs>
       <use xlink:href="#DejaVuSans-33"/>
       <use xlink:href="#DejaVuSans-30" x="63.623047"/>
       <use xlink:href="#DejaVuSans-30" x="127.246094"/>
       <use xlink:href="#DejaVuSans-30" x="190.869141"/>
      </g>
     </g>
    </g>
   </g>
   <g id="line2d_17">
    <path d="M 55.882727 261.216 
L 72.197026 181.295286 
L 88.511325 128.014811 
L 104.825624 92.494494 
L 121.139922 68.814282 
L 137.454221 53.027475 
L 153.76852 42.502936 
L 170.082819 35.486577 
L 186.397117 30.809005 
L 202.711416 27.690623 
L 219.025715 25.611702 
L 235.340014 24.225754 
L 251.654312 23.301789 
L 267.968611 22.685813 
L 284.28291 22.275161 
L 300.597209 22.001394 
L 316.911508 21.818882 
L 333.225806 21.697208 
L 349.540105 21.616092 
L 365.854404 21.562014 
" clip-path="url(#p0d6d847f84)" style="fill: none; stroke: #1f77b4; stroke-width: 1.5; stroke-linecap: square"/>
   </g>
   <g id="line2d_18">
    <path d="M 55.882727 261.216 
L 72.197026 261.216 
L 88.511325 234.575762 
L 104.825624 207.935524 
L 121.139922 187.215339 
L 137.454221 172.415207 
L 153.76852 162.219561 
L 170.082819 155.312832 
L 186.397117 150.671803 
L 202.711416 147.565603 
L 219.025715 145.490742 
L 235.340014 144.106148 
L 251.654312 143.182634 
L 267.968611 142.566808 
L 284.28291 142.156207 
L 300.597209 141.882456 
L 316.911508 141.69995 
L 333.225806 141.578278 
L 349.540105 141.497162 
L 365.854404 141.443085 
" clip-path="url(#p0d6d847f84)" style="fill: none; stroke: #ff7f0e; stroke-width: 1.5; stroke-linecap: square"/>
   </g>
   <g id="line2d_19">
    <path d="M 55.882727 261.216 
L 57.514157 253.303849 
L 59.145587 246.031064 
L 64.039877 221.175722 
L 65.671307 215.980876 
L 67.302736 209.027774 
L 68.934166 203.433324 
L 72.197026 189.52712 
L 73.828456 183.612987 
L 75.459886 179.537031 
L 77.091316 174.901629 
L 78.722746 170.745752 
L 81.985605 161.474949 
L 88.511325 145.570727 
L 90.142755 140.056198 
L 91.774185 137.258973 
L 93.405614 131.904285 
L 95.037044 125.67047 
L 96.668474 121.274831 
L 98.299904 118.397685 
L 99.931334 114.641411 
L 101.562764 112.323711 
L 103.194194 107.368626 
L 104.825624 102.893066 
L 106.457053 100.415524 
L 108.088483 97.538379 
L 111.351343 94.581312 
L 112.982773 91.544325 
L 114.614203 88.827021 
L 116.245633 87.068765 
L 117.877063 84.031778 
L 119.508492 81.554236 
L 121.139922 79.316456 
L 122.771352 77.5582 
L 124.402782 75.000737 
L 126.034212 73.08264 
L 127.665642 73.00272 
L 129.297072 70.76494 
L 132.559931 65.729935 
L 134.191361 64.211441 
L 135.822791 62.852789 
L 137.454221 62.133502 
L 139.085651 61.254375 
L 140.717081 59.496119 
L 142.348511 57.178418 
L 143.979941 55.979608 
L 145.61137 55.580004 
L 147.2428 52.383175 
L 152.13709 47.907615 
L 153.76852 48.307219 
L 155.39995 48.866664 
L 157.03138 47.987536 
L 158.66281 45.509994 
L 161.925669 43.272214 
L 163.557099 41.6738 
L 165.188529 41.513958 
L 168.451389 40.954513 
L 170.082819 40.794672 
L 171.714249 42.393086 
L 174.977108 40.075386 
L 176.608538 40.155306 
L 178.239968 39.915544 
L 179.871398 41.513958 
L 181.502828 42.552928 
L 183.134258 41.993483 
L 184.765688 41.114355 
L 186.397117 38.876575 
L 188.028547 38.636813 
L 189.659977 39.356099 
L 191.291407 39.116337 
L 192.922837 37.358081 
L 194.554267 37.677764 
L 197.817127 37.837606 
L 199.448556 37.118319 
L 201.079986 34.401015 
L 202.711416 34.800618 
L 205.974276 34.241173 
L 207.605706 34.161253 
L 209.237136 32.802601 
L 210.868566 31.044345 
L 212.499995 31.443948 
L 214.131425 29.685693 
L 217.394285 29.445931 
L 220.657145 28.087278 
L 222.288575 27.767596 
L 223.920005 26.968389 
L 225.551434 26.488864 
L 227.182864 26.329023 
L 228.814294 26.329023 
L 230.445724 26.488864 
L 232.077154 25.849499 
L 233.708584 24.89045 
L 235.340014 24.331005 
L 236.971444 26.329023 
L 238.602873 26.728626 
L 241.865733 23.77156 
L 243.497163 25.050291 
L 245.128593 25.449895 
L 246.760023 24.810529 
L 248.391453 23.851481 
L 250.022883 23.691639 
L 253.285742 25.130212 
L 254.917172 24.970371 
L 256.548602 26.408944 
L 258.180032 26.089261 
L 259.811462 26.888468 
L 261.442892 26.568785 
L 263.074322 27.367992 
L 264.705751 26.808547 
L 266.337181 26.648706 
L 267.968611 28.806565 
L 269.600041 31.923473 
L 271.231471 31.443948 
L 272.862901 31.364028 
L 274.494331 30.804583 
L 279.38862 33.921491 
L 281.02005 34.081332 
L 282.65148 33.921491 
L 284.28291 34.560856 
L 285.91434 33.521887 
L 287.54577 33.362046 
L 289.1772 31.443948 
L 290.80863 32.402997 
L 292.440059 33.84157 
L 294.071489 31.923473 
L 295.702919 31.364028 
L 297.334349 30.644741 
L 298.965779 31.204186 
L 300.597209 30.644741 
L 302.228639 31.523869 
L 303.860069 31.523869 
L 305.491498 30.325058 
L 307.122928 29.286089 
L 308.754358 29.845534 
L 310.385788 30.085296 
L 312.017218 30.564821 
L 313.648648 29.286089 
L 315.280078 29.765613 
L 316.911508 28.726644 
L 318.542937 28.327041 
L 320.174367 28.24712 
L 321.805797 27.687675 
L 323.437227 28.566803 
L 325.068657 27.367992 
L 326.700087 25.769578 
L 328.331517 24.650688 
L 329.962947 24.091243 
L 331.594376 22.65267 
L 333.225806 22.812511 
L 334.857236 24.091243 
L 336.488666 24.570767 
L 338.120096 25.609736 
L 339.751526 26.169181 
L 341.382956 24.410926 
L 343.014386 23.212115 
L 344.645815 22.253066 
L 346.277245 22.572749 
L 347.908675 21.613701 
L 349.540105 21.214097 
L 351.171535 19.935366 
L 352.802965 19.296 
L 354.434395 19.935366 
L 356.065825 22.173146 
L 357.697254 21.613701 
L 359.328684 23.212115 
L 360.960114 22.412908 
L 362.591544 21.294018 
L 364.222974 21.773542 
L 365.854404 20.734573 
L 367.485834 20.734573 
L 369.117264 21.613701 
L 370.748693 22.253066 
L 372.380123 21.933384 
L 375.642983 23.77156 
L 377.274413 23.371956 
L 378.905843 22.572749 
L 380.537273 22.732591 
L 380.537273 22.732591 
" clip-path="url(#p0d6d847f84)" style="fill: none; stroke: #2ca02c; stroke-width: 1.5; stroke-linecap: square"/>
   </g>
   <g id="line2d_20">
    <path d="M 55.882727 261.216 
L 59.145587 260.656555 
L 60.777017 259.857348 
L 62.408447 259.457744 
L 64.039877 258.898299 
L 65.671307 257.539647 
L 67.302736 256.74044 
L 68.934166 254.902264 
L 70.565596 253.38377 
L 72.197026 251.066069 
L 73.828456 249.627497 
L 77.091316 245.151937 
L 78.722746 243.233839 
L 80.354175 239.797249 
L 81.985605 238.8382 
L 85.248465 234.202799 
L 86.879895 231.565415 
L 88.511325 229.567397 
L 90.142755 227.089855 
L 91.774185 224.852075 
L 93.405614 224.21271 
L 95.037044 223.013899 
L 96.668474 220.776119 
L 98.299904 217.659211 
L 99.931334 215.980876 
L 101.562764 213.263572 
L 103.194194 213.343493 
L 104.825624 212.144682 
L 106.457053 210.306505 
L 108.088483 207.109677 
L 109.719913 204.871897 
L 111.351343 202.394355 
L 112.982773 201.754989 
L 116.245633 197.998716 
L 117.877063 197.439271 
L 119.508492 195.920777 
L 121.139922 195.521173 
L 122.771352 195.760936 
L 124.402782 194.402283 
L 126.034212 192.723948 
L 130.928502 187.049578 
L 132.559931 184.811798 
L 134.191361 184.172432 
L 135.822791 181.135445 
L 137.454221 178.817744 
L 139.085651 178.258299 
L 143.979941 175.860678 
L 145.61137 174.661867 
L 147.2428 174.422105 
L 148.87423 172.184325 
L 150.50566 171.385118 
L 152.13709 170.825673 
L 153.76852 169.626862 
L 155.39995 167.868607 
L 157.03138 167.389082 
L 158.66281 167.948527 
L 160.294239 166.589875 
L 163.557099 165.231223 
L 165.188529 164.192254 
L 166.819959 163.952492 
L 168.451389 163.233205 
L 170.082819 163.313126 
L 171.714249 161.714712 
L 174.977108 163.712729 
L 176.608538 163.472967 
L 178.239968 162.114315 
L 179.871398 159.716694 
L 181.502828 160.43598 
L 183.134258 158.757645 
L 184.765688 158.278121 
L 188.028547 158.837566 
L 189.659977 157.239152 
L 191.291407 157.07931 
L 192.922837 157.958438 
L 194.554267 154.84153 
L 197.817127 155.400975 
L 199.448556 154.601768 
L 201.079986 155.001372 
L 202.711416 153.882482 
L 205.974276 149.966367 
L 207.605706 149.966367 
L 209.237136 150.605732 
L 210.868566 150.845495 
L 212.499995 152.204147 
L 214.131425 151.085257 
L 215.762855 149.16716 
L 217.394285 148.847477 
L 219.025715 148.687635 
L 220.657145 149.806525 
L 222.288575 149.646684 
L 223.920005 150.445891 
L 225.551434 150.845495 
L 227.182864 150.765574 
L 228.814294 150.126208 
L 230.445724 149.726605 
L 232.077154 147.808507 
L 233.708584 146.689617 
L 235.340014 148.607715 
L 236.971444 147.968349 
L 238.602873 148.208111 
L 240.234303 148.687635 
L 241.865733 147.968349 
L 243.497163 147.0093 
L 245.128593 145.81049 
L 246.760023 145.011282 
L 248.391453 146.290014 
L 250.022883 146.130172 
L 251.654312 146.210093 
L 253.285742 145.970331 
L 254.917172 144.371917 
L 258.180032 142.373899 
L 259.811462 141.974295 
L 261.442892 143.492789 
L 263.074322 143.892392 
L 264.705751 143.65263 
L 266.337181 144.531758 
L 267.968611 143.013265 
L 269.600041 141.974295 
L 271.231471 143.173106 
L 272.862901 142.693582 
L 274.494331 144.77152 
L 277.75719 143.492789 
L 279.38862 143.65263 
L 281.02005 144.052234 
L 282.65148 142.933344 
L 284.28291 142.134137 
L 285.91434 142.293978 
L 287.54577 142.853423 
L 289.1772 143.65263 
L 290.80863 143.972313 
L 292.440059 143.732551 
L 294.071489 144.291996 
L 295.702919 143.892392 
L 297.334349 144.931362 
L 298.965779 143.972313 
L 300.597209 144.132155 
L 302.228639 143.253027 
L 303.860069 142.933344 
L 305.491498 143.013265 
L 307.122928 143.492789 
L 308.754358 142.773502 
L 310.385788 142.293978 
L 312.017218 141.974295 
L 313.648648 142.853423 
L 315.280078 144.052234 
L 316.911508 142.853423 
L 318.542937 144.531758 
L 320.174367 145.171124 
L 323.437227 144.531758 
L 325.068657 145.251045 
L 326.700087 146.449855 
L 328.331517 145.89041 
L 329.962947 145.89041 
L 331.594376 147.169142 
L 334.857236 146.130172 
L 336.488666 144.851441 
L 338.120096 143.892392 
L 339.751526 145.970331 
L 341.382956 145.730569 
L 343.014386 147.728587 
L 344.645815 148.607715 
L 346.277245 147.328983 
L 347.908675 147.328983 
L 349.540105 147.0093 
L 351.171535 147.089221 
L 352.802965 148.288032 
L 354.434395 144.77152 
L 356.065825 143.972313 
L 357.697254 144.931362 
L 359.328684 144.212075 
L 360.960114 144.6916 
L 362.591544 143.492789 
L 364.222974 143.892392 
L 365.854404 145.251045 
L 367.485834 145.650648 
L 369.117264 144.132155 
L 372.380123 142.134137 
L 374.011553 139.976278 
L 375.642983 138.297943 
L 377.274413 139.09715 
L 380.537273 138.617625 
L 380.537273 138.617625 
" clip-path="url(#p0d6d847f84)" style="fill: none; stroke: #d62728; stroke-width: 1.5; stroke-linecap: square"/>
   </g>
   <g id="patch_3">
    <path d="M 39.65 273.312 
L 39.65 7.2 
" style="fill: none; stroke: #000000; stroke-width: 0.8; stroke-linejoin: miter; stroke-linecap: square"/>
   </g>
   <g id="patch_4">
    <path d="M 396.77 273.312 
L 396.77 7.2 
" style="fill: none; stroke: #000000; stroke-width: 0.8; stroke-linejoin: miter; stroke-linecap: square"/>
   </g>
   <g id="patch_5">
    <path d="M 39.65 273.312 
L 396.77 273.312 
" style="fill: none; stroke: #000000; stroke-width: 0.8; stroke-linejoin: miter; stroke-linecap: square"/>
   </g>
   <g id="patch_6">
    <path d="M 39.65 7.2 
L 396.77 7.2 
" style="fill: none; stroke: #000000; stroke-width: 0.8; stroke-linejoin: miter; stroke-linecap: square"/>
   </g>
  </g>
 </g>
 <defs>
  <clipPath id="p0d6d847f84">
   <rect x="39.65" y="7.2" width="357.12" height="266.112"/>
  </clipPath>
 </defs>
</svg>
