<?xml version="1.0" encoding="utf-8" standalone="no"?>
<!DOCTYPE svg PUBLIC "-//W3C//DTD SVG 1.1//EN"
  "http://www.w3.org/Graphics/SVG/1.1/DTD/svg11.dtd">
<svg xmlns:xlink="http://www.w3.org/1999/xlink" width="397.6075pt" height="297.190125pt" viewBox="0 0 397.6075 297.190125" xmlns="http://www.w3.org/2000/svg" version="1.1">
 <metadata>
  <rdf:RDF xmlns:dc="http://purl.org/dc/elements/1.1/" xmlns:cc="http://creativecommons.org/ns#" xmlns:rdf="http://www.w3.org/1999/02/22-rdf-syntax-ns#">
   <cc:Work>
    <dc:type rdf:resource="http://purl.org/dc/dcmitype/StillImage"/>
    <dc:date>2025-03-06T19:31:18.716959</dc:date>
    <dc:format>image/svg+xml</dc:format>
    <dc:creator>
     <cc:Agent>
      <dc:title>Matplotlib v3.10.1, https://matplotlib.org/</dc:title>
     </cc:Agent>
    </dc:creator>
   </cc:Work>
  </rdf:RDF>
 </metadata>
 <defs>
  <style type="text/css">*{stroke-linejoin: round; stroke-linecap: butt}</style>
 </defs>
 <g id="figure_1">
  <g id="patch_1">
   <path d="M 0 297.190125 
L 397.6075 297.190125 
L 397.6075 0 
L 0 0 
z
" style="fill: #ffffff"/>
  </g>
  <g id="axes_1">
   <g id="patch_2">
    <path d="M 33.2875 273.312 
L 390.4075 273.312 
L 390.4075 7.2 
L 33.2875 7.2 
z
" style="fill: #ffffff"/>
   </g>
   <g id="matplotlib.axis_1">
    <g id="xtick_1">
     <g id="line2d_1">
      <defs>
       <path id="md002011656" d="M 0 0 
L 0 3.5 
" style="stroke: #000000; stroke-width: 0.8"/>
      </defs>
      <g>
       <use xlink:href="#md002011656" x="49.520227" y="273.312" style="stroke: #000000; stroke-width: 0.8"/>
      </g>
     </g>
     <g id="text_1">
      <!-- 0.0 -->
      <g transform="translate(41.568665 287.910437) scale(0.1 -0.1)">
       <defs>
        <path id="DejaVuSans-30" d="M 2034 4250 
Q 1547 4250 1301 3770 
Q 1056 3291 1056 2328 
Q 1056 1369 1301 889 
Q 1547 409 2034 409 
Q 2525 409 2770 889 
Q 3016 1369 3016 2328 
Q 3016 3291 2770 3770 
Q 2525 4250 2034 4250 
z
M 2034 4750 
Q 2819 4750 3233 4129 
Q 3647 3509 3647 2328 
Q 3647 1150 3233 529 
Q 2819 -91 2034 -91 
Q 1250 -91 836 529 
Q 422 1150 422 2328 
Q 422 3509 836 4129 
Q 1250 4750 2034 4750 
z
" transform="scale(0.015625)"/>
        <path id="DejaVuSans-2e" d="M 684 794 
L 1344 794 
L 1344 0 
L 684 0 
L 684 794 
z
" transform="scale(0.015625)"/>
       </defs>
       <use xlink:href="#DejaVuSans-30"/>
       <use xlink:href="#DejaVuSans-2e" transform="translate(63.623047 0)"/>
       <use xlink:href="#DejaVuSans-30" transform="translate(95.410156 0)"/>
      </g>
     </g>
    </g>
    <g id="xtick_2">
     <g id="line2d_2">
      <g>
       <use xlink:href="#md002011656" x="90.305974" y="273.312" style="stroke: #000000; stroke-width: 0.8"/>
      </g>
     </g>
     <g id="text_2">
      <!-- 2.5 -->
      <g transform="translate(82.354412 287.910437) scale(0.1 -0.1)">
       <defs>
        <path id="DejaVuSans-32" d="M 1228 531 
L 3431 531 
L 3431 0 
L 469 0 
L 469 531 
Q 828 903 1448 1529 
Q 2069 2156 2228 2338 
Q 2531 2678 2651 2914 
Q 2772 3150 2772 3378 
Q 2772 3750 2511 3984 
Q 2250 4219 1831 4219 
Q 1534 4219 1204 4116 
Q 875 4013 500 3803 
L 500 4441 
Q 881 4594 1212 4672 
Q 1544 4750 1819 4750 
Q 2544 4750 2975 4387 
Q 3406 4025 3406 3419 
Q 3406 3131 3298 2873 
Q 3191 2616 2906 2266 
Q 2828 2175 2409 1742 
Q 1991 1309 1228 531 
z
" transform="scale(0.015625)"/>
        <path id="DejaVuSans-35" d="M 691 4666 
L 3169 4666 
L 3169 4134 
L 1269 4134 
L 1269 2991 
Q 1406 3038 1543 3061 
Q 1681 3084 1819 3084 
Q 2600 3084 3056 2656 
Q 3513 2228 3513 1497 
Q 3513 744 3044 326 
Q 2575 -91 1722 -91 
Q 1428 -91 1123 -41 
Q 819 9 494 109 
L 494 744 
Q 775 591 1075 516 
Q 1375 441 1709 441 
Q 2250 441 2565 725 
Q 2881 1009 2881 1497 
Q 2881 1984 2565 2268 
Q 2250 2553 1709 2553 
Q 1456 2553 1204 2497 
Q 953 2441 691 2322 
L 691 4666 
z
" transform="scale(0.015625)"/>
       </defs>
       <use xlink:href="#DejaVuSans-32"/>
       <use xlink:href="#DejaVuSans-2e" transform="translate(63.623047 0)"/>
       <use xlink:href="#DejaVuSans-35" transform="translate(95.410156 0)"/>
      </g>
     </g>
    </g>
    <g id="xtick_3">
     <g id="line2d_3">
      <g>
       <use xlink:href="#md002011656" x="131.091721" y="273.312" style="stroke: #000000; stroke-width: 0.8"/>
      </g>
     </g>
     <g id="text_3">
      <!-- 5.0 -->
      <g transform="translate(123.140159 287.910437) scale(0.1 -0.1)">
       <use xlink:href="#DejaVuSans-35"/>
       <use xlink:href="#DejaVuSans-2e" transform="translate(63.623047 0)"/>
       <use xlink:href="#DejaVuSans-30" transform="translate(95.410156 0)"/>
      </g>
     </g>
    </g>
    <g id="xtick_4">
     <g id="line2d_4">
      <g>
       <use xlink:href="#md002011656" x="171.877468" y="273.312" style="stroke: #000000; stroke-width: 0.8"/>
      </g>
     </g>
     <g id="text_4">
      <!-- 7.5 -->
      <g transform="translate(163.925906 287.910437) scale(0.1 -0.1)">
       <defs>
        <path id="DejaVuSans-37" d="M 525 4666 
L 3525 4666 
L 3525 4397 
L 1831 0 
L 1172 0 
L 2766 4134 
L 525 4134 
L 525 4666 
z
" transform="scale(0.015625)"/>
       </defs>
       <use xlink:href="#DejaVuSans-37"/>
       <use xlink:href="#DejaVuSans-2e" transform="translate(63.623047 0)"/>
       <use xlink:href="#DejaVuSans-35" transform="translate(95.410156 0)"/>
      </g>
     </g>
    </g>
    <g id="xtick_5">
     <g id="line2d_5">
      <g>
       <use xlink:href="#md002011656" x="212.663215" y="273.312" style="stroke: #000000; stroke-width: 0.8"/>
      </g>
     </g>
     <g id="text_5">
      <!-- 10.0 -->
      <g transform="translate(201.530402 287.910437) scale(0.1 -0.1)">
       <defs>
        <path id="DejaVuSans-31" d="M 794 531 
L 1825 531 
L 1825 4091 
L 703 3866 
L 703 4441 
L 1819 4666 
L 2450 4666 
L 2450 531 
L 3481 531 
L 3481 0 
L 794 0 
L 794 531 
z
" transform="scale(0.015625)"/>
       </defs>
       <use xlink:href="#DejaVuSans-31"/>
       <use xlink:href="#DejaVuSans-30" transform="translate(63.623047 0)"/>
       <use xlink:href="#DejaVuSans-2e" transform="translate(127.246094 0)"/>
       <use xlink:href="#DejaVuSans-30" transform="translate(159.033203 0)"/>
      </g>
     </g>
    </g>
    <g id="xtick_6">
     <g id="line2d_6">
      <g>
       <use xlink:href="#md002011656" x="253.448962" y="273.312" style="stroke: #000000; stroke-width: 0.8"/>
      </g>
     </g>
     <g id="text_6">
      <!-- 12.5 -->
      <g transform="translate(242.316149 287.910437) scale(0.1 -0.1)">
       <use xlink:href="#DejaVuSans-31"/>
       <use xlink:href="#DejaVuSans-32" transform="translate(63.623047 0)"/>
       <use xlink:href="#DejaVuSans-2e" transform="translate(127.246094 0)"/>
       <use xlink:href="#DejaVuSans-35" transform="translate(159.033203 0)"/>
      </g>
     </g>
    </g>
    <g id="xtick_7">
     <g id="line2d_7">
      <g>
       <use xlink:href="#md002011656" x="294.234709" y="273.312" style="stroke: #000000; stroke-width: 0.8"/>
      </g>
     </g>
     <g id="text_7">
      <!-- 15.0 -->
      <g transform="translate(283.101896 287.910437) scale(0.1 -0.1)">
       <use xlink:href="#DejaVuSans-31"/>
       <use xlink:href="#DejaVuSans-35" transform="translate(63.623047 0)"/>
       <use xlink:href="#DejaVuSans-2e" transform="translate(127.246094 0)"/>
       <use xlink:href="#DejaVuSans-30" transform="translate(159.033203 0)"/>
      </g>
     </g>
    </g>
    <g id="xtick_8">
     <g id="line2d_8">
      <g>
       <use xlink:href="#md002011656" x="335.020456" y="273.312" style="stroke: #000000; stroke-width: 0.8"/>
      </g>
     </g>
     <g id="text_8">
      <!-- 17.5 -->
      <g transform="translate(323.887643 287.910437) scale(0.1 -0.1)">
       <use xlink:href="#DejaVuSans-31"/>
       <use xlink:href="#DejaVuSans-37" transform="translate(63.623047 0)"/>
       <use xlink:href="#DejaVuSans-2e" transform="translate(127.246094 0)"/>
       <use xlink:href="#DejaVuSans-35" transform="translate(159.033203 0)"/>
      </g>
     </g>
    </g>
    <g id="xtick_9">
     <g id="line2d_9">
      <g>
       <use xlink:href="#md002011656" x="375.806203" y="273.312" style="stroke: #000000; stroke-width: 0.8"/>
      </g>
     </g>
     <g id="text_9">
      <!-- 20.0 -->
      <g transform="translate(364.67339 287.910437) scale(0.1 -0.1)">
       <use xlink:href="#DejaVuSans-32"/>
       <use xlink:href="#DejaVuSans-30" transform="translate(63.623047 0)"/>
       <use xlink:href="#DejaVuSans-2e" transform="translate(127.246094 0)"/>
       <use xlink:href="#DejaVuSans-30" transform="translate(159.033203 0)"/>
      </g>
     </g>
    </g>
   </g>
   <g id="matplotlib.axis_2">
    <g id="ytick_1">
     <g id="line2d_10">
      <defs>
       <path id="m7e34e93846" d="M 0 0 
L -3.5 0 
" style="stroke: #000000; stroke-width: 0.8"/>
      </defs>
      <g>
       <use xlink:href="#m7e34e93846" x="33.2875" y="261.216" style="stroke: #000000; stroke-width: 0.8"/>
      </g>
     </g>
     <g id="text_10">
      <!-- 0 -->
      <g transform="translate(19.925 265.015219) scale(0.1 -0.1)">
       <use xlink:href="#DejaVuSans-30"/>
      </g>
     </g>
    </g>
    <g id="ytick_2">
     <g id="line2d_11">
      <g>
       <use xlink:href="#m7e34e93846" x="33.2875" y="219.932724" style="stroke: #000000; stroke-width: 0.8"/>
      </g>
     </g>
     <g id="text_11">
      <!-- 50 -->
      <g transform="translate(13.5625 223.731942) scale(0.1 -0.1)">
       <use xlink:href="#DejaVuSans-35"/>
       <use xlink:href="#DejaVuSans-30" transform="translate(63.623047 0)"/>
      </g>
     </g>
    </g>
    <g id="ytick_3">
     <g id="line2d_12">
      <g>
       <use xlink:href="#m7e34e93846" x="33.2875" y="178.649447" style="stroke: #000000; stroke-width: 0.8"/>
      </g>
     </g>
     <g id="text_12">
      <!-- 100 -->
      <g transform="translate(7.2 182.448666) scale(0.1 -0.1)">
       <use xlink:href="#DejaVuSans-31"/>
       <use xlink:href="#DejaVuSans-30" transform="translate(63.623047 0)"/>
       <use xlink:href="#DejaVuSans-30" transform="translate(127.246094 0)"/>
      </g>
     </g>
    </g>
    <g id="ytick_4">
     <g id="line2d_13">
      <g>
       <use xlink:href="#m7e34e93846" x="33.2875" y="137.366171" style="stroke: #000000; stroke-width: 0.8"/>
      </g>
     </g>
     <g id="text_13">
      <!-- 150 -->
      <g transform="translate(7.2 141.165389) scale(0.1 -0.1)">
       <use xlink:href="#DejaVuSans-31"/>
       <use xlink:href="#DejaVuSans-35" transform="translate(63.623047 0)"/>
       <use xlink:href="#DejaVuSans-30" transform="translate(127.246094 0)"/>
      </g>
     </g>
    </g>
    <g id="ytick_5">
     <g id="line2d_14">
      <g>
       <use xlink:href="#m7e34e93846" x="33.2875" y="96.082894" style="stroke: #000000; stroke-width: 0.8"/>
      </g>
     </g>
     <g id="text_14">
      <!-- 200 -->
      <g transform="translate(7.2 99.882113) scale(0.1 -0.1)">
       <use xlink:href="#DejaVuSans-32"/>
       <use xlink:href="#DejaVuSans-30" transform="translate(63.623047 0)"/>
       <use xlink:href="#DejaVuSans-30" transform="translate(127.246094 0)"/>
      </g>
     </g>
    </g>
    <g id="ytick_6">
     <g id="line2d_15">
      <g>
       <use xlink:href="#m7e34e93846" x="33.2875" y="54.799618" style="stroke: #000000; stroke-width: 0.8"/>
      </g>
     </g>
     <g id="text_15">
      <!-- 250 -->
      <g transform="translate(7.2 58.598836) scale(0.1 -0.1)">
       <use xlink:href="#DejaVuSans-32"/>
       <use xlink:href="#DejaVuSans-35" transform="translate(63.623047 0)"/>
       <use xlink:href="#DejaVuSans-30" transform="translate(127.246094 0)"/>
      </g>
     </g>
    </g>
    <g id="ytick_7">
     <g id="line2d_16">
      <g>
       <use xlink:href="#m7e34e93846" x="33.2875" y="13.516341" style="stroke: #000000; stroke-width: 0.8"/>
      </g>
     </g>
     <g id="text_16">
      <!-- 300 -->
      <g transform="translate(7.2 17.31556) scale(0.1 -0.1)">
       <defs>
        <path id="DejaVuSans-33" d="M 2597 2516 
Q 3050 2419 3304 2112 
Q 3559 1806 3559 1356 
Q 3559 666 3084 287 
Q 2609 -91 1734 -91 
Q 1441 -91 1130 -33 
Q 819 25 488 141 
L 488 750 
Q 750 597 1062 519 
Q 1375 441 1716 441 
Q 2309 441 2620 675 
Q 2931 909 2931 1356 
Q 2931 1769 2642 2001 
Q 2353 2234 1838 2234 
L 1294 2234 
L 1294 2753 
L 1863 2753 
Q 2328 2753 2575 2939 
Q 2822 3125 2822 3475 
Q 2822 3834 2567 4026 
Q 2313 4219 1838 4219 
Q 1578 4219 1281 4162 
Q 984 4106 628 3988 
L 628 4550 
Q 988 4650 1302 4700 
Q 1616 4750 1894 4750 
Q 2613 4750 3031 4423 
Q 3450 4097 3450 3541 
Q 3450 3153 3228 2886 
Q 3006 2619 2597 2516 
z
" transform="scale(0.015625)"/>
       </defs>
       <use xlink:href="#DejaVuSans-33"/>
       <use xlink:href="#DejaVuSans-30" transform="translate(63.623047 0)"/>
       <use xlink:href="#DejaVuSans-30" transform="translate(127.246094 0)"/>
      </g>
     </g>
    </g>
   </g>
   <g id="line2d_17">
    <path d="M 49.520227 261.216 
L 53.598802 54.799618 
L 57.677377 54.799618 
L 61.755951 54.799618 
L 65.834526 54.799618 
L 69.913101 54.799618 
L 73.991675 54.799618 
L 78.07025 54.799618 
L 82.148825 54.799618 
L 86.227399 54.799618 
L 90.305974 54.799618 
L 94.384549 54.799618 
L 98.463124 54.799618 
L 102.541698 54.799618 
L 106.620273 54.799618 
L 110.698848 54.799618 
L 114.777422 54.799618 
L 118.855997 54.799618 
L 122.934572 54.799618 
L 127.013146 54.799618 
L 131.091721 54.799618 
L 135.170296 54.799618 
L 139.24887 54.799618 
L 143.327445 54.799618 
L 147.40602 54.799618 
L 151.484595 54.799618 
L 155.563169 54.799618 
L 159.641744 54.799618 
L 163.720319 54.799618 
L 167.798893 54.799618 
L 171.877468 54.799618 
L 175.956043 54.799618 
L 180.034617 54.799618 
L 184.113192 54.799618 
L 188.191767 54.799618 
L 192.270341 54.799618 
L 196.348916 54.799618 
L 200.427491 54.799618 
L 204.506066 54.799618 
L 208.58464 54.799618 
L 212.663215 54.799618 
L 216.74179 54.799618 
L 220.820364 54.799618 
L 224.898939 54.799618 
L 228.977514 54.799618 
L 233.056088 54.799618 
L 237.134663 54.799618 
L 241.213238 54.799618 
L 245.291812 54.799618 
L 249.370387 54.799618 
L 253.448962 54.799618 
L 257.527537 54.799618 
L 261.606111 54.799618 
L 265.684686 54.799618 
L 269.763261 54.799618 
L 273.841835 54.799618 
L 277.92041 54.799618 
L 281.998985 54.799618 
L 286.077559 54.799618 
L 290.156134 54.799618 
L 294.234709 54.799618 
L 298.313283 54.799618 
L 302.391858 54.799618 
L 306.470433 54.799618 
L 310.549008 54.799618 
L 314.627582 54.799618 
L 318.706157 54.799618 
L 322.784732 54.799618 
L 326.863306 54.799618 
L 330.941881 54.799618 
L 335.020456 54.799618 
L 339.09903 54.799618 
L 343.177605 54.799618 
L 347.25618 54.799618 
L 351.334754 54.799618 
L 355.413329 54.799618 
L 359.491904 54.799618 
L 363.570479 54.799618 
L 367.649053 54.799618 
L 371.727628 54.799618 
" clip-path="url(#p7091f9f229)" style="fill: none; stroke: #1f77b4; stroke-width: 1.5; stroke-linecap: square"/>
   </g>
   <g id="line2d_18">
    <path d="M 49.520227 261.216 
L 53.598802 261.216 
L 57.677377 54.799618 
L 61.755951 54.799618 
L 65.834526 54.799618 
L 69.913101 54.799618 
L 73.991675 54.799618 
L 78.07025 54.799618 
L 82.148825 54.799618 
L 86.227399 54.799618 
L 90.305974 54.799618 
L 94.384549 54.799618 
L 98.463124 54.799618 
L 102.541698 54.799618 
L 106.620273 54.799618 
L 110.698848 54.799618 
L 114.777422 54.799618 
L 118.855997 54.799618 
L 122.934572 54.799618 
L 127.013146 54.799618 
L 131.091721 54.799618 
L 135.170296 54.799618 
L 139.24887 54.799618 
L 143.327445 54.799618 
L 147.40602 54.799618 
L 151.484595 54.799618 
L 155.563169 54.799618 
L 159.641744 54.799618 
L 163.720319 54.799618 
L 167.798893 54.799618 
L 171.877468 54.799618 
L 175.956043 54.799618 
L 180.034617 54.799618 
L 184.113192 54.799618 
L 188.191767 54.799618 
L 192.270341 54.799618 
L 196.348916 54.799618 
L 200.427491 54.799618 
L 204.506066 54.799618 
L 208.58464 54.799618 
L 212.663215 54.799618 
L 216.74179 54.799618 
L 220.820364 54.799618 
L 224.898939 54.799618 
L 228.977514 54.799618 
L 233.056088 54.799618 
L 237.134663 54.799618 
L 241.213238 54.799618 
L 245.291812 54.799618 
L 249.370387 54.799618 
L 253.448962 54.799618 
L 257.527537 54.799618 
L 261.606111 54.799618 
L 265.684686 54.799618 
L 269.763261 54.799618 
L 273.841835 54.799618 
L 277.92041 54.799618 
L 281.998985 54.799618 
L 286.077559 54.799618 
L 290.156134 54.799618 
L 294.234709 54.799618 
L 298.313283 54.799618 
L 302.391858 54.799618 
L 306.470433 54.799618 
L 310.549008 54.799618 
L 314.627582 54.799618 
L 318.706157 54.799618 
L 322.784732 54.799618 
L 326.863306 54.799618 
L 330.941881 54.799618 
L 335.020456 54.799618 
L 339.09903 54.799618 
L 343.177605 54.799618 
L 347.25618 54.799618 
L 351.334754 54.799618 
L 355.413329 54.799618 
L 359.491904 54.799618 
L 363.570479 54.799618 
L 367.649053 54.799618 
L 371.727628 54.799618 
" clip-path="url(#p7091f9f229)" style="fill: none; stroke: #ff7f0e; stroke-width: 1.5; stroke-linecap: square"/>
   </g>
   <g id="line2d_19">
    <path d="M 49.520227 261.216 
L 51.151657 196.814089 
L 52.783087 154.705147 
L 56.045947 96.082894 
L 57.677377 91.954567 
L 59.308807 86.174908 
L 60.940236 68.835932 
L 62.571666 69.661597 
L 64.203096 63.881939 
L 65.834526 52.322621 
L 67.465956 46.542962 
L 69.097386 56.450949 
L 70.728816 58.927945 
L 72.360246 50.67129 
L 73.991675 63.056273 
L 75.623105 71.312928 
L 77.254535 62.230608 
L 78.885965 62.230608 
L 80.517395 53.973952 
L 82.148825 58.10228 
L 83.780255 52.322621 
L 85.411685 65.53327 
L 87.043114 58.10228 
L 88.674544 60.579276 
L 90.305974 62.230608 
L 91.937404 64.707604 
L 93.568834 54.799618 
L 95.200264 35.809311 
L 96.831694 45.717297 
L 98.463124 53.148287 
L 100.094553 63.881939 
L 101.725983 66.358935 
L 103.357413 72.138594 
L 104.988843 57.276614 
L 106.620273 61.404942 
L 108.251703 54.799618 
L 109.883133 52.322621 
L 111.514563 34.983645 
L 113.145992 31.680983 
L 114.777422 30.855317 
L 116.408852 39.111973 
L 118.040282 44.891631 
L 119.671712 58.927945 
L 121.303142 51.496956 
L 122.934572 58.10228 
L 124.566002 54.799618 
L 126.197431 53.973952 
L 127.828861 63.056273 
L 129.460291 58.927945 
L 131.091721 66.358935 
L 132.723151 58.10228 
L 134.354581 53.973952 
L 135.986011 58.10228 
L 137.617441 66.358935 
L 139.24887 62.230608 
L 140.8803 49.019959 
L 142.51173 49.019959 
L 144.14316 40.763304 
L 145.77459 35.809311 
L 147.40602 39.111973 
L 149.03745 31.680983 
L 150.66888 34.15798 
L 152.30031 43.2403 
L 153.931739 46.542962 
L 155.563169 45.717297 
L 157.194599 51.496956 
L 158.826029 54.799618 
L 160.457459 53.148287 
L 162.088889 50.67129 
L 163.720319 43.2403 
L 165.351749 48.194294 
L 166.983178 53.973952 
L 168.614608 51.496956 
L 170.246038 52.322621 
L 171.877468 64.707604 
L 173.508898 60.579276 
L 175.140328 58.10228 
L 176.771758 53.973952 
L 178.403188 58.927945 
L 180.034617 61.404942 
L 181.666047 72.964259 
L 183.297477 59.753611 
L 184.928907 53.148287 
L 186.560337 56.450949 
L 188.191767 52.322621 
L 189.823197 63.881939 
L 191.454627 63.881939 
L 193.086056 58.10228 
L 194.717486 60.579276 
L 196.348916 58.927945 
L 197.980346 62.230608 
L 199.611776 44.891631 
L 201.243206 53.148287 
L 202.874636 50.67129 
L 204.506066 49.845625 
L 206.137495 54.799618 
L 207.768925 67.184601 
L 209.400355 68.835932 
L 211.031785 67.184601 
L 212.663215 67.184601 
L 214.294645 60.579276 
L 215.926075 53.148287 
L 217.557505 58.927945 
L 219.188934 56.450949 
L 220.820364 57.276614 
L 222.451794 49.019959 
L 224.083224 39.111973 
L 225.714654 35.809311 
L 227.346084 31.680983 
L 228.977514 34.983645 
L 230.608944 47.368628 
L 232.240373 42.414635 
L 233.871803 46.542962 
L 235.503233 49.845625 
L 237.134663 43.2403 
L 238.766093 47.368628 
L 240.397523 52.322621 
L 242.028953 49.019959 
L 243.660383 64.707604 
L 245.291812 63.881939 
L 246.923242 59.753611 
L 248.554672 49.019959 
L 250.186102 60.579276 
L 251.817532 58.10228 
L 253.448962 72.138594 
L 255.080392 66.358935 
L 256.711822 73.789925 
L 258.343251 74.61559 
L 259.974681 58.10228 
L 261.606111 53.973952 
L 263.237541 45.717297 
L 264.868971 42.414635 
L 266.500401 44.065966 
L 268.131831 53.148287 
L 269.763261 58.10228 
L 271.39469 54.799618 
L 273.02612 58.10228 
L 274.65755 67.184601 
L 276.28898 64.707604 
L 277.92041 53.148287 
L 279.55184 53.148287 
L 281.18327 60.579276 
L 282.8147 59.753611 
L 284.44613 53.973952 
L 286.077559 55.625283 
L 287.708989 54.799618 
L 289.340419 55.625283 
L 290.971849 50.67129 
L 292.603279 66.358935 
L 294.234709 55.625283 
L 297.497569 55.625283 
L 299.128998 51.496956 
L 300.760428 60.579276 
L 302.391858 71.312928 
L 304.023288 62.230608 
L 305.654718 55.625283 
L 307.286148 53.148287 
L 308.917578 56.450949 
L 310.549008 53.973952 
L 312.180437 58.10228 
L 313.811867 54.799618 
L 315.443297 53.973952 
L 317.074727 50.67129 
L 318.706157 49.845625 
L 320.337587 63.056273 
L 321.969017 68.010266 
L 323.600447 63.881939 
L 325.231876 57.276614 
L 326.863306 53.973952 
L 328.494736 59.753611 
L 330.126166 52.322621 
L 331.757596 58.10228 
L 333.389026 41.588969 
L 336.651886 43.2403 
L 338.283315 42.414635 
L 339.914745 39.937638 
L 341.546175 39.111973 
L 343.177605 42.414635 
L 344.809035 37.460642 
L 346.440465 49.845625 
L 348.071895 49.845625 
L 349.703325 53.148287 
L 351.334754 46.542962 
L 352.966184 35.809311 
L 354.597614 48.194294 
L 356.229044 44.891631 
L 357.860474 30.855317 
L 359.491904 29.203986 
L 361.123334 39.111973 
L 362.754764 30.029652 
L 364.386193 28.378321 
L 366.017623 43.2403 
L 367.649053 48.194294 
L 369.280483 46.542962 
L 370.911913 53.148287 
L 372.543343 33.332314 
L 374.174773 35.809311 
L 374.174773 35.809311 
" clip-path="url(#p7091f9f229)" style="fill: none; stroke: #2ca02c; stroke-width: 1.5; stroke-linecap: square"/>
   </g>
   <g id="line2d_20">
    <path d="M 49.520227 261.216 
L 51.151657 243.877024 
L 54.414517 184.429106 
L 56.045947 166.264464 
L 57.677377 128.28385 
L 59.308807 115.073201 
L 60.940236 109.293543 
L 62.571666 91.954567 
L 64.203096 87.000573 
L 65.834526 86.174908 
L 67.465956 72.138594 
L 69.097386 67.184601 
L 70.728816 48.194294 
L 72.360246 48.194294 
L 73.991675 44.891631 
L 75.623105 50.67129 
L 77.254535 58.927945 
L 78.885965 52.322621 
L 80.517395 63.881939 
L 82.148825 66.358935 
L 83.780255 65.53327 
L 85.411685 52.322621 
L 87.043114 60.579276 
L 88.674544 44.891631 
L 90.305974 58.10228 
L 91.937404 57.276614 
L 93.568834 69.661597 
L 95.200264 76.266922 
L 96.831694 53.973952 
L 98.463124 52.322621 
L 100.094553 44.891631 
L 101.725983 39.937638 
L 103.357413 41.588969 
L 104.988843 54.799618 
L 106.620273 48.194294 
L 108.251703 43.2403 
L 109.883133 42.414635 
L 111.514563 49.019959 
L 113.145992 52.322621 
L 114.777422 47.368628 
L 116.408852 43.2403 
L 118.040282 48.194294 
L 119.671712 43.2403 
L 121.303142 56.450949 
L 122.934572 52.322621 
L 124.566002 53.148287 
L 126.197431 67.184601 
L 127.828861 55.625283 
L 129.460291 59.753611 
L 131.091721 52.322621 
L 132.723151 41.588969 
L 134.354581 46.542962 
L 135.986011 33.332314 
L 137.617441 44.065966 
L 139.24887 51.496956 
L 140.8803 58.10228 
L 142.51173 47.368628 
L 144.14316 58.10228 
L 145.77459 63.056273 
L 147.40602 62.230608 
L 149.03745 69.661597 
L 150.66888 58.927945 
L 152.30031 52.322621 
L 153.931739 44.065966 
L 155.563169 37.460642 
L 157.194599 38.286307 
L 160.457459 44.891631 
L 162.088889 41.588969 
L 163.720319 58.10228 
L 165.351749 50.67129 
L 166.983178 49.019959 
L 168.614608 43.2403 
L 170.246038 48.194294 
L 171.877468 26.72699 
L 173.508898 19.296 
L 175.140328 21.772997 
L 176.771758 46.542962 
L 178.403188 48.194294 
L 180.034617 49.019959 
L 181.666047 41.588969 
L 183.297477 53.973952 
L 184.928907 59.753611 
L 186.560337 49.019959 
L 188.191767 56.450949 
L 189.823197 41.588969 
L 191.454627 35.809311 
L 193.086056 52.322621 
L 194.717486 55.625283 
L 196.348916 49.019959 
L 197.980346 52.322621 
L 199.611776 65.53327 
L 201.243206 49.845625 
L 202.874636 56.450949 
L 204.506066 45.717297 
L 206.137495 44.065966 
L 207.768925 39.937638 
L 209.400355 42.414635 
L 211.031785 39.111973 
L 212.663215 50.67129 
L 214.294645 58.10228 
L 215.926075 58.10228 
L 217.557505 50.67129 
L 219.188934 49.845625 
L 220.820364 63.056273 
L 222.451794 64.707604 
L 224.083224 70.487263 
L 225.714654 58.927945 
L 227.346084 66.358935 
L 228.977514 62.230608 
L 230.608944 47.368628 
L 232.240373 61.404942 
L 233.871803 52.322621 
L 235.503233 46.542962 
L 237.134663 43.2403 
L 238.766093 47.368628 
L 240.397523 40.763304 
L 242.028953 49.019959 
L 243.660383 40.763304 
L 245.291812 54.799618 
L 246.923242 56.450949 
L 248.554672 77.918253 
L 250.186102 59.753611 
L 251.817532 64.707604 
L 253.448962 50.67129 
L 255.080392 54.799618 
L 256.711822 39.937638 
L 258.343251 66.358935 
L 259.974681 77.918253 
L 261.606111 76.266922 
L 263.237541 62.230608 
L 264.868971 62.230608 
L 266.500401 61.404942 
L 268.131831 45.717297 
L 269.763261 54.799618 
L 271.39469 64.707604 
L 273.02612 68.835932 
L 274.65755 44.891631 
L 276.28898 45.717297 
L 277.92041 58.10228 
L 279.55184 54.799618 
L 281.18327 62.230608 
L 282.8147 66.358935 
L 284.44613 68.010266 
L 286.077559 62.230608 
L 287.708989 58.10228 
L 289.340419 56.450949 
L 290.971849 70.487263 
L 292.603279 53.973952 
L 294.234709 64.707604 
L 295.866139 52.322621 
L 297.497569 64.707604 
L 299.128998 63.881939 
L 300.760428 55.625283 
L 302.391858 49.019959 
L 304.023288 41.588969 
L 305.654718 51.496956 
L 307.286148 57.276614 
L 308.917578 46.542962 
L 310.549008 54.799618 
L 312.180437 57.276614 
L 313.811867 63.881939 
L 315.443297 63.056273 
L 318.706157 79.569584 
L 320.337587 60.579276 
L 321.969017 58.927945 
L 323.600447 61.404942 
L 325.231876 61.404942 
L 326.863306 67.184601 
L 328.494736 59.753611 
L 330.126166 64.707604 
L 331.757596 51.496956 
L 333.389026 67.184601 
L 335.020456 63.056273 
L 336.651886 68.835932 
L 338.283315 75.441256 
L 339.914745 79.569584 
L 341.546175 69.661597 
L 343.177605 69.661597 
L 344.809035 76.266922 
L 346.440465 51.496956 
L 348.071895 49.845625 
L 349.703325 44.065966 
L 351.334754 61.404942 
L 352.966184 68.010266 
L 354.597614 48.194294 
L 356.229044 63.881939 
L 357.860474 75.441256 
L 359.491904 72.964259 
L 361.123334 63.881939 
L 362.754764 73.789925 
L 364.386193 71.312928 
L 366.017623 62.230608 
L 367.649053 50.67129 
L 369.280483 53.973952 
L 370.911913 44.891631 
L 372.543343 70.487263 
L 374.174773 59.753611 
L 374.174773 59.753611 
" clip-path="url(#p7091f9f229)" style="fill: none; stroke: #d62728; stroke-width: 1.5; stroke-linecap: square"/>
   </g>
   <g id="patch_3">
    <path d="M 33.2875 273.312 
L 33.2875 7.2 
" style="fill: none; stroke: #000000; stroke-width: 0.8; stroke-linejoin: miter; stroke-linecap: square"/>
   </g>
   <g id="patch_4">
    <path d="M 390.4075 273.312 
L 390.4075 7.2 
" style="fill: none; stroke: #000000; stroke-width: 0.8; stroke-linejoin: miter; stroke-linecap: square"/>
   </g>
   <g id="patch_5">
    <path d="M 33.2875 273.312 
L 390.4075 273.312 
" style="fill: none; stroke: #000000; stroke-width: 0.8; stroke-linejoin: miter; stroke-linecap: square"/>
   </g>
   <g id="patch_6">
    <path d="M 33.2875 7.2 
L 390.4075 7.2 
" style="fill: none; stroke: #000000; stroke-width: 0.8; stroke-linejoin: miter; stroke-linecap: square"/>
   </g>
  </g>
 </g>
 <defs>
  <clipPath id="p7091f9f229">
   <rect x="33.2875" y="7.2" width="357.12" height="266.112"/>
  </clipPath>
 </defs>
</svg>
