<?xml version="1.0" encoding="utf-8" standalone="no"?>
<!DOCTYPE svg PUBLIC "-//W3C//DTD SVG 1.1//EN"
  "http://www.w3.org/Graphics/SVG/1.1/DTD/svg11.dtd">
<svg xmlns:xlink="http://www.w3.org/1999/xlink" width="403.97pt" height="297.190125pt" viewBox="0 0 403.97 297.190125" xmlns="http://www.w3.org/2000/svg" version="1.1">
 <metadata>
  <rdf:RDF xmlns:dc="http://purl.org/dc/elements/1.1/" xmlns:cc="http://creativecommons.org/ns#" xmlns:rdf="http://www.w3.org/1999/02/22-rdf-syntax-ns#">
   <cc:Work>
    <dc:type rdf:resource="http://purl.org/dc/dcmitype/StillImage"/>
    <dc:date>2025-03-06T19:31:15.232800</dc:date>
    <dc:format>image/svg+xml</dc:format>
    <dc:creator>
     <cc:Agent>
      <dc:title>Matplotlib v3.10.1, https://matplotlib.org/</dc:title>
     </cc:Agent>
    </dc:creator>
   </cc:Work>
  </rdf:RDF>
 </metadata>
 <defs>
  <style type="text/css">*{stroke-linejoin: round; stroke-linecap: butt}</style>
 </defs>
 <g id="figure_1">
  <g id="patch_1">
   <path d="M 0 297.190125 
L 403.97 297.190125 
L 403.97 0 
L 0 0 
z
" style="fill: #ffffff"/>
  </g>
  <g id="axes_1">
   <g id="patch_2">
    <path d="M 39.65 273.312 
L 396.77 273.312 
L 396.77 7.2 
L 39.65 7.2 
z
" style="fill: #ffffff"/>
   </g>
   <g id="matplotlib.axis_1">
    <g id="xtick_1">
     <g id="line2d_1">
      <defs>
       <path id="mf2e2f6c92c" d="M 0 0 
L 0 3.5 
" style="stroke: #000000; stroke-width: 0.8"/>
      </defs>
      <g>
       <use xlink:href="#mf2e2f6c92c" x="55.882727" y="273.312" style="stroke: #000000; stroke-width: 0.8"/>
      </g>
     </g>
     <g id="text_1">
      <!-- 0.0 -->
      <g transform="translate(47.931165 287.910437) scale(0.1 -0.1)">
       <defs>
        <path id="DejaVuSans-30" d="M 2034 4250 
Q 1547 4250 1301 3770 
Q 1056 3291 1056 2328 
Q 1056 1369 1301 889 
Q 1547 409 2034 409 
Q 2525 409 2770 889 
Q 3016 1369 3016 2328 
Q 3016 3291 2770 3770 
Q 2525 4250 2034 4250 
z
M 2034 4750 
Q 2819 4750 3233 4129 
Q 3647 3509 3647 2328 
Q 3647 1150 3233 529 
Q 2819 -91 2034 -91 
Q 1250 -91 836 529 
Q 422 1150 422 2328 
Q 422 3509 836 4129 
Q 1250 4750 2034 4750 
z
" transform="scale(0.015625)"/>
        <path id="DejaVuSans-2e" d="M 684 794 
L 1344 794 
L 1344 0 
L 684 0 
L 684 794 
z
" transform="scale(0.015625)"/>
       </defs>
       <use xlink:href="#DejaVuSans-30"/>
       <use xlink:href="#DejaVuSans-2e" transform="translate(63.623047 0)"/>
       <use xlink:href="#DejaVuSans-30" transform="translate(95.410156 0)"/>
      </g>
     </g>
    </g>
    <g id="xtick_2">
     <g id="line2d_2">
      <g>
       <use xlink:href="#mf2e2f6c92c" x="96.668474" y="273.312" style="stroke: #000000; stroke-width: 0.8"/>
      </g>
     </g>
     <g id="text_2">
      <!-- 2.5 -->
      <g transform="translate(88.716912 287.910437) scale(0.1 -0.1)">
       <defs>
        <path id="DejaVuSans-32" d="M 1228 531 
L 3431 531 
L 3431 0 
L 469 0 
L 469 531 
Q 828 903 1448 1529 
Q 2069 2156 2228 2338 
Q 2531 2678 2651 2914 
Q 2772 3150 2772 3378 
Q 2772 3750 2511 3984 
Q 2250 4219 1831 4219 
Q 1534 4219 1204 4116 
Q 875 4013 500 3803 
L 500 4441 
Q 881 4594 1212 4672 
Q 1544 4750 1819 4750 
Q 2544 4750 2975 4387 
Q 3406 4025 3406 3419 
Q 3406 3131 3298 2873 
Q 3191 2616 2906 2266 
Q 2828 2175 2409 1742 
Q 1991 1309 1228 531 
z
" transform="scale(0.015625)"/>
        <path id="DejaVuSans-35" d="M 691 4666 
L 3169 4666 
L 3169 4134 
L 1269 4134 
L 1269 2991 
Q 1406 3038 1543 3061 
Q 1681 3084 1819 3084 
Q 2600 3084 3056 2656 
Q 3513 2228 3513 1497 
Q 3513 744 3044 326 
Q 2575 -91 1722 -91 
Q 1428 -91 1123 -41 
Q 819 9 494 109 
L 494 744 
Q 775 591 1075 516 
Q 1375 441 1709 441 
Q 2250 441 2565 725 
Q 2881 1009 2881 1497 
Q 2881 1984 2565 2268 
Q 2250 2553 1709 2553 
Q 1456 2553 1204 2497 
Q 953 2441 691 2322 
L 691 4666 
z
" transform="scale(0.015625)"/>
       </defs>
       <use xlink:href="#DejaVuSans-32"/>
       <use xlink:href="#DejaVuSans-2e" transform="translate(63.623047 0)"/>
       <use xlink:href="#DejaVuSans-35" transform="translate(95.410156 0)"/>
      </g>
     </g>
    </g>
    <g id="xtick_3">
     <g id="line2d_3">
      <g>
       <use xlink:href="#mf2e2f6c92c" x="137.454221" y="273.312" style="stroke: #000000; stroke-width: 0.8"/>
      </g>
     </g>
     <g id="text_3">
      <!-- 5.0 -->
      <g transform="translate(129.502659 287.910437) scale(0.1 -0.1)">
       <use xlink:href="#DejaVuSans-35"/>
       <use xlink:href="#DejaVuSans-2e" transform="translate(63.623047 0)"/>
       <use xlink:href="#DejaVuSans-30" transform="translate(95.410156 0)"/>
      </g>
     </g>
    </g>
    <g id="xtick_4">
     <g id="line2d_4">
      <g>
       <use xlink:href="#mf2e2f6c92c" x="178.239968" y="273.312" style="stroke: #000000; stroke-width: 0.8"/>
      </g>
     </g>
     <g id="text_4">
      <!-- 7.5 -->
      <g transform="translate(170.288406 287.910437) scale(0.1 -0.1)">
       <defs>
        <path id="DejaVuSans-37" d="M 525 4666 
L 3525 4666 
L 3525 4397 
L 1831 0 
L 1172 0 
L 2766 4134 
L 525 4134 
L 525 4666 
z
" transform="scale(0.015625)"/>
       </defs>
       <use xlink:href="#DejaVuSans-37"/>
       <use xlink:href="#DejaVuSans-2e" transform="translate(63.623047 0)"/>
       <use xlink:href="#DejaVuSans-35" transform="translate(95.410156 0)"/>
      </g>
     </g>
    </g>
    <g id="xtick_5">
     <g id="line2d_5">
      <g>
       <use xlink:href="#mf2e2f6c92c" x="219.025715" y="273.312" style="stroke: #000000; stroke-width: 0.8"/>
      </g>
     </g>
     <g id="text_5">
      <!-- 10.0 -->
      <g transform="translate(207.892902 287.910437) scale(0.1 -0.1)">
       <defs>
        <path id="DejaVuSans-31" d="M 794 531 
L 1825 531 
L 1825 4091 
L 703 3866 
L 703 4441 
L 1819 4666 
L 2450 4666 
L 2450 531 
L 3481 531 
L 3481 0 
L 794 0 
L 794 531 
z
" transform="scale(0.015625)"/>
       </defs>
       <use xlink:href="#DejaVuSans-31"/>
       <use xlink:href="#DejaVuSans-30" transform="translate(63.623047 0)"/>
       <use xlink:href="#DejaVuSans-2e" transform="translate(127.246094 0)"/>
       <use xlink:href="#DejaVuSans-30" transform="translate(159.033203 0)"/>
      </g>
     </g>
    </g>
    <g id="xtick_6">
     <g id="line2d_6">
      <g>
       <use xlink:href="#mf2e2f6c92c" x="259.811462" y="273.312" style="stroke: #000000; stroke-width: 0.8"/>
      </g>
     </g>
     <g id="text_6">
      <!-- 12.5 -->
      <g transform="translate(248.678649 287.910437) scale(0.1 -0.1)">
       <use xlink:href="#DejaVuSans-31"/>
       <use xlink:href="#DejaVuSans-32" transform="translate(63.623047 0)"/>
       <use xlink:href="#DejaVuSans-2e" transform="translate(127.246094 0)"/>
       <use xlink:href="#DejaVuSans-35" transform="translate(159.033203 0)"/>
      </g>
     </g>
    </g>
    <g id="xtick_7">
     <g id="line2d_7">
      <g>
       <use xlink:href="#mf2e2f6c92c" x="300.597209" y="273.312" style="stroke: #000000; stroke-width: 0.8"/>
      </g>
     </g>
     <g id="text_7">
      <!-- 15.0 -->
      <g transform="translate(289.464396 287.910437) scale(0.1 -0.1)">
       <use xlink:href="#DejaVuSans-31"/>
       <use xlink:href="#DejaVuSans-35" transform="translate(63.623047 0)"/>
       <use xlink:href="#DejaVuSans-2e" transform="translate(127.246094 0)"/>
       <use xlink:href="#DejaVuSans-30" transform="translate(159.033203 0)"/>
      </g>
     </g>
    </g>
    <g id="xtick_8">
     <g id="line2d_8">
      <g>
       <use xlink:href="#mf2e2f6c92c" x="341.382956" y="273.312" style="stroke: #000000; stroke-width: 0.8"/>
      </g>
     </g>
     <g id="text_8">
      <!-- 17.5 -->
      <g transform="translate(330.250143 287.910437) scale(0.1 -0.1)">
       <use xlink:href="#DejaVuSans-31"/>
       <use xlink:href="#DejaVuSans-37" transform="translate(63.623047 0)"/>
       <use xlink:href="#DejaVuSans-2e" transform="translate(127.246094 0)"/>
       <use xlink:href="#DejaVuSans-35" transform="translate(159.033203 0)"/>
      </g>
     </g>
    </g>
    <g id="xtick_9">
     <g id="line2d_9">
      <g>
       <use xlink:href="#mf2e2f6c92c" x="382.168703" y="273.312" style="stroke: #000000; stroke-width: 0.8"/>
      </g>
     </g>
     <g id="text_9">
      <!-- 20.0 -->
      <g transform="translate(371.03589 287.910437) scale(0.1 -0.1)">
       <use xlink:href="#DejaVuSans-32"/>
       <use xlink:href="#DejaVuSans-30" transform="translate(63.623047 0)"/>
       <use xlink:href="#DejaVuSans-2e" transform="translate(127.246094 0)"/>
       <use xlink:href="#DejaVuSans-30" transform="translate(159.033203 0)"/>
      </g>
     </g>
    </g>
   </g>
   <g id="matplotlib.axis_2">
    <g id="ytick_1">
     <g id="line2d_10">
      <defs>
       <path id="m62ab85add1" d="M 0 0 
L -3.5 0 
" style="stroke: #000000; stroke-width: 0.8"/>
      </defs>
      <g>
       <use xlink:href="#m62ab85add1" x="39.65" y="261.216" style="stroke: #000000; stroke-width: 0.8"/>
      </g>
     </g>
     <g id="text_10">
      <!-- 0 -->
      <g transform="translate(26.2875 265.015219) scale(0.1 -0.1)">
       <use xlink:href="#DejaVuSans-30"/>
      </g>
     </g>
    </g>
    <g id="ytick_2">
     <g id="line2d_11">
      <g>
       <use xlink:href="#m62ab85add1" x="39.65" y="222.455389" style="stroke: #000000; stroke-width: 0.8"/>
      </g>
     </g>
     <g id="text_11">
      <!-- 500 -->
      <g transform="translate(13.5625 226.254608) scale(0.1 -0.1)">
       <use xlink:href="#DejaVuSans-35"/>
       <use xlink:href="#DejaVuSans-30" transform="translate(63.623047 0)"/>
       <use xlink:href="#DejaVuSans-30" transform="translate(127.246094 0)"/>
      </g>
     </g>
    </g>
    <g id="ytick_3">
     <g id="line2d_12">
      <g>
       <use xlink:href="#m62ab85add1" x="39.65" y="183.694778" style="stroke: #000000; stroke-width: 0.8"/>
      </g>
     </g>
     <g id="text_12">
      <!-- 1000 -->
      <g transform="translate(7.2 187.493997) scale(0.1 -0.1)">
       <use xlink:href="#DejaVuSans-31"/>
       <use xlink:href="#DejaVuSans-30" transform="translate(63.623047 0)"/>
       <use xlink:href="#DejaVuSans-30" transform="translate(127.246094 0)"/>
       <use xlink:href="#DejaVuSans-30" transform="translate(190.869141 0)"/>
      </g>
     </g>
    </g>
    <g id="ytick_4">
     <g id="line2d_13">
      <g>
       <use xlink:href="#m62ab85add1" x="39.65" y="144.934168" style="stroke: #000000; stroke-width: 0.8"/>
      </g>
     </g>
     <g id="text_13">
      <!-- 1500 -->
      <g transform="translate(7.2 148.733386) scale(0.1 -0.1)">
       <use xlink:href="#DejaVuSans-31"/>
       <use xlink:href="#DejaVuSans-35" transform="translate(63.623047 0)"/>
       <use xlink:href="#DejaVuSans-30" transform="translate(127.246094 0)"/>
       <use xlink:href="#DejaVuSans-30" transform="translate(190.869141 0)"/>
      </g>
     </g>
    </g>
    <g id="ytick_5">
     <g id="line2d_14">
      <g>
       <use xlink:href="#m62ab85add1" x="39.65" y="106.173557" style="stroke: #000000; stroke-width: 0.8"/>
      </g>
     </g>
     <g id="text_14">
      <!-- 2000 -->
      <g transform="translate(7.2 109.972776) scale(0.1 -0.1)">
       <use xlink:href="#DejaVuSans-32"/>
       <use xlink:href="#DejaVuSans-30" transform="translate(63.623047 0)"/>
       <use xlink:href="#DejaVuSans-30" transform="translate(127.246094 0)"/>
       <use xlink:href="#DejaVuSans-30" transform="translate(190.869141 0)"/>
      </g>
     </g>
    </g>
    <g id="ytick_6">
     <g id="line2d_15">
      <g>
       <use xlink:href="#m62ab85add1" x="39.65" y="67.412946" style="stroke: #000000; stroke-width: 0.8"/>
      </g>
     </g>
     <g id="text_15">
      <!-- 2500 -->
      <g transform="translate(7.2 71.212165) scale(0.1 -0.1)">
       <use xlink:href="#DejaVuSans-32"/>
       <use xlink:href="#DejaVuSans-35" transform="translate(63.623047 0)"/>
       <use xlink:href="#DejaVuSans-30" transform="translate(127.246094 0)"/>
       <use xlink:href="#DejaVuSans-30" transform="translate(190.869141 0)"/>
      </g>
     </g>
    </g>
    <g id="ytick_7">
     <g id="line2d_16">
      <g>
       <use xlink:href="#m62ab85add1" x="39.65" y="28.652335" style="stroke: #000000; stroke-width: 0.8"/>
      </g>
     </g>
     <g id="text_16">
      <!-- 3000 -->
      <g transform="translate(7.2 32.451554) scale(0.1 -0.1)">
       <defs>
        <path id="DejaVuSans-33" d="M 2597 2516 
Q 3050 2419 3304 2112 
Q 3559 1806 3559 1356 
Q 3559 666 3084 287 
Q 2609 -91 1734 -91 
Q 1441 -91 1130 -33 
Q 819 25 488 141 
L 488 750 
Q 750 597 1062 519 
Q 1375 441 1716 441 
Q 2309 441 2620 675 
Q 2931 909 2931 1356 
Q 2931 1769 2642 2001 
Q 2353 2234 1838 2234 
L 1294 2234 
L 1294 2753 
L 1863 2753 
Q 2328 2753 2575 2939 
Q 2822 3125 2822 3475 
Q 2822 3834 2567 4026 
Q 2313 4219 1838 4219 
Q 1578 4219 1281 4162 
Q 984 4106 628 3988 
L 628 4550 
Q 988 4650 1302 4700 
Q 1616 4750 1894 4750 
Q 2613 4750 3031 4423 
Q 3450 4097 3450 3541 
Q 3450 3153 3228 2886 
Q 3006 2619 2597 2516 
z
" transform="scale(0.015625)"/>
       </defs>
       <use xlink:href="#DejaVuSans-33"/>
       <use xlink:href="#DejaVuSans-30" transform="translate(63.623047 0)"/>
       <use xlink:href="#DejaVuSans-30" transform="translate(127.246094 0)"/>
       <use xlink:href="#DejaVuSans-30" transform="translate(190.869141 0)"/>
      </g>
     </g>
    </g>
   </g>
   <g id="line2d_17">
    <path d="M 55.882727 261.216 
L 59.961302 241.835695 
L 64.039877 224.005814 
L 68.118451 207.602323 
L 72.197026 192.511112 
L 76.275601 178.627198 
L 80.354175 165.853996 
L 84.43275 154.102651 
L 88.511325 143.291414 
L 92.589899 133.345075 
L 96.668474 124.194444 
L 100.747049 115.775863 
L 104.825624 108.030769 
L 108.904198 100.905282 
L 112.982773 94.349834 
L 117.061348 88.318822 
L 121.139922 82.770291 
L 125.218497 77.665642 
L 129.297072 72.969365 
L 133.375646 68.648791 
L 137.454221 64.673862 
L 141.532796 61.016928 
L 145.61137 57.652548 
L 149.689945 54.557319 
L 153.76852 51.709708 
L 157.847095 49.089906 
L 161.925669 46.679688 
L 166.004244 44.462288 
L 170.082819 42.422279 
L 174.161393 40.545471 
L 178.239968 38.818808 
L 182.318543 37.230278 
L 186.397117 35.768831 
L 190.475692 34.424299 
L 194.554267 33.187329 
L 198.632841 32.049318 
L 202.711416 31.002347 
L 206.789991 30.039134 
L 210.868566 29.152978 
L 214.94714 28.337714 
L 219.025715 27.587672 
L 223.10429 26.897632 
L 227.182864 26.262796 
L 231.261439 25.678747 
L 235.340014 25.141422 
L 239.418588 24.647083 
L 243.497163 24.192291 
L 247.575738 23.773882 
L 251.654312 23.388946 
L 255.732887 23.034805 
L 259.811462 22.708995 
L 263.890037 22.40925 
L 267.968611 22.133485 
L 272.047186 21.879781 
L 276.125761 21.646373 
L 280.204335 21.431638 
L 284.28291 21.234081 
L 288.361485 21.052329 
L 292.440059 20.885118 
L 296.518634 20.731283 
L 300.597209 20.589755 
L 304.675783 20.459549 
L 308.754358 20.33976 
L 312.832933 20.229554 
L 316.911508 20.128164 
L 320.990082 20.034885 
L 325.068657 19.949069 
L 329.147232 19.870118 
L 333.225806 19.797483 
L 337.304381 19.730659 
L 341.382956 19.669181 
L 345.46153 19.612621 
L 349.540105 19.560586 
L 353.61868 19.512714 
L 357.697254 19.468671 
L 361.775829 19.428152 
L 365.854404 19.390875 
L 369.932979 19.356579 
L 374.011553 19.325028 
L 378.090128 19.296 
" clip-path="url(#pcfbc4e3ceb)" style="fill: none; stroke: #1f77b4; stroke-width: 1.5; stroke-linecap: square"/>
   </g>
   <g id="line2d_18">
    <path d="M 55.882727 261.216 
L 59.961302 261.216 
L 64.039877 259.665576 
L 68.118451 256.926751 
L 72.197026 253.296056 
L 76.275601 249.015377 
L 80.354175 244.281068 
L 84.43275 239.25162 
L 88.511325 234.054084 
L 92.589899 228.789472 
L 96.668474 223.53727 
L 100.747049 218.35923 
L 104.825624 213.302533 
L 108.904198 208.402432 
L 112.982773 203.684457 
L 117.061348 199.166256 
L 121.139922 194.859117 
L 125.218497 190.769242 
L 129.297072 186.898791 
L 133.375646 183.246752 
L 137.454221 179.809654 
L 141.532796 176.582157 
L 145.61137 173.557526 
L 149.689945 170.728026 
L 153.76852 168.085235 
L 157.847095 165.620304 
L 161.925669 163.324156 
L 166.004244 161.187649 
L 170.082819 159.201704 
L 174.161393 157.357401 
L 178.239968 155.646054 
L 182.318543 154.059265 
L 186.397117 152.588966 
L 190.475692 151.227442 
L 194.554267 149.96735 
L 198.632841 148.801724 
L 202.711416 147.723981 
L 206.789991 146.727913 
L 210.868566 145.807685 
L 214.94714 144.95782 
L 219.025715 144.173188 
L 223.10429 143.448993 
L 227.182864 142.780759 
L 231.261439 142.164312 
L 235.340014 141.595766 
L 239.418588 141.071506 
L 243.497163 140.588172 
L 247.575738 140.142647 
L 251.654312 139.732037 
L 255.732887 139.353661 
L 259.811462 139.005035 
L 263.890037 138.683858 
L 267.968611 138.388001 
L 272.047186 138.115498 
L 276.125761 137.864528 
L 280.204335 137.633408 
L 284.28291 137.420587 
L 288.361485 137.22463 
L 292.440059 137.044211 
L 296.518634 136.87811 
L 300.597209 136.725199 
L 304.675783 136.584437 
L 308.754358 136.454866 
L 312.832933 136.335601 
L 316.911508 136.225826 
L 320.990082 136.124791 
L 325.068657 136.031803 
L 329.147232 135.946222 
L 333.225806 135.867463 
L 337.304381 135.794982 
L 341.382956 135.728281 
L 345.46153 135.6669 
L 349.540105 135.610417 
L 353.61868 135.558441 
L 357.697254 135.510613 
L 361.775829 135.466604 
L 365.854404 135.426108 
L 369.932979 135.388847 
L 374.011553 135.354561 
L 378.090128 135.323014 
" clip-path="url(#pcfbc4e3ceb)" style="fill: none; stroke: #ff7f0e; stroke-width: 1.5; stroke-linecap: square"/>
   </g>
   <g id="line2d_19">
    <path d="M 55.882727 261.216 
L 57.514157 254.006526 
L 59.145587 245.014065 
L 60.777017 237.184421 
L 62.408447 231.137766 
L 64.039877 224.470941 
L 65.671307 218.501807 
L 67.302736 213.152843 
L 70.565596 200.516884 
L 72.197026 196.175695 
L 73.828456 189.353828 
L 77.091316 180.438887 
L 80.354175 170.748734 
L 81.985605 166.950195 
L 83.617035 162.84157 
L 85.248465 159.120551 
L 86.879895 153.771587 
L 90.142755 146.717156 
L 91.774185 143.228701 
L 93.405614 138.499906 
L 95.037044 133.305984 
L 96.668474 129.119838 
L 98.299904 124.623608 
L 99.931334 121.910365 
L 101.562764 118.731995 
L 103.194194 116.173794 
L 104.825624 115.166019 
L 106.457053 111.212436 
L 108.088483 110.359703 
L 109.719913 108.189109 
L 111.351343 105.475866 
L 112.982773 104.313048 
L 116.245633 97.646222 
L 117.877063 95.863234 
L 119.508492 94.390331 
L 121.139922 91.13444 
L 122.771352 88.343676 
L 124.402782 87.3359 
L 126.034212 86.018039 
L 127.665642 83.459839 
L 129.297072 82.374542 
L 130.928502 80.901639 
L 132.559931 79.661299 
L 134.191361 79.041129 
L 135.822791 77.025578 
L 137.454221 77.025578 
L 139.085651 75.862759 
L 142.348511 70.668837 
L 143.979941 69.58354 
L 145.61137 69.428498 
L 147.2428 67.955595 
L 150.50566 66.095085 
L 152.13709 64.622182 
L 153.76852 62.374067 
L 155.39995 61.28877 
L 157.03138 59.660824 
L 158.66281 58.885612 
L 160.294239 57.955357 
L 161.925669 57.877836 
L 163.557099 57.49023 
L 165.188529 55.474678 
L 166.819959 56.327411 
L 168.451389 55.552199 
L 170.082819 55.319636 
L 171.714249 55.62972 
L 173.345678 54.621945 
L 174.977108 53.226563 
L 176.608538 52.141265 
L 178.239968 49.89315 
L 179.871398 48.497768 
L 181.502828 47.489992 
L 183.134258 47.33495 
L 184.765688 46.327174 
L 188.028547 45.784525 
L 189.659977 45.939568 
L 191.291407 43.846495 
L 192.922837 44.234101 
L 194.554267 44.079058 
L 196.185697 42.91624 
L 197.817127 41.365816 
L 199.448556 42.063507 
L 201.079986 41.210773 
L 202.711416 42.838719 
L 204.342846 43.303846 
L 205.974276 42.683676 
L 207.605706 42.29607 
L 209.237136 41.288294 
L 210.868566 40.125476 
L 212.499995 40.35804 
L 214.131425 38.962658 
L 215.762855 37.334712 
L 217.394285 38.264967 
L 219.025715 38.187446 
L 220.657145 36.947106 
L 222.288575 36.171894 
L 223.920005 35.784288 
L 225.551434 36.637021 
L 227.182864 34.621469 
L 228.814294 36.094373 
L 233.708584 36.5595 
L 235.340014 36.326936 
L 236.971444 37.644797 
L 238.602873 35.706766 
L 240.234303 36.869585 
L 241.865733 37.17967 
L 243.497163 38.730094 
L 246.760023 38.264967 
L 248.391453 36.947106 
L 250.022883 37.489755 
L 251.654312 39.350264 
L 253.285742 37.799839 
L 254.917172 36.016851 
L 256.548602 36.404457 
L 258.180032 34.931554 
L 259.811462 36.094373 
L 261.442892 35.241639 
L 263.074322 35.784288 
L 264.705751 35.551724 
L 266.337181 35.009075 
L 267.968611 35.474203 
L 269.600041 34.388906 
L 271.231471 32.295833 
L 272.862901 32.063269 
L 274.494331 33.226087 
L 276.125761 32.605918 
L 277.75719 32.76096 
L 279.38862 34.311384 
L 281.02005 32.76096 
L 282.65148 33.923778 
L 284.28291 34.311384 
L 285.91434 36.094373 
L 287.54577 36.5595 
L 289.1772 34.0013 
L 290.80863 33.38113 
L 292.440059 35.164118 
L 294.071489 34.466427 
L 295.702919 35.706766 
L 297.334349 35.31916 
L 298.965779 35.164118 
L 300.597209 35.474203 
L 302.228639 35.009075 
L 303.860069 35.93933 
L 305.491498 35.93933 
L 307.122928 34.698991 
L 308.754358 35.164118 
L 310.385788 37.024627 
L 312.017218 36.714542 
L 313.648648 36.5595 
L 316.911508 36.637021 
L 318.542937 38.342488 
L 320.174367 38.264967 
L 323.437227 36.171894 
L 325.068657 36.792064 
L 326.700087 34.543948 
L 328.331517 31.908227 
L 329.962947 30.745408 
L 331.594376 31.908227 
L 333.225806 32.76096 
L 336.488666 32.063269 
L 338.120096 34.156342 
L 339.751526 34.854033 
L 341.382956 35.009075 
L 343.014386 31.830705 
L 344.645815 32.218311 
L 346.277245 29.272505 
L 347.908675 28.109687 
L 349.540105 29.427547 
L 351.171535 28.34225 
L 352.802965 28.807378 
L 354.434395 29.58259 
L 356.065825 28.574814 
L 357.697254 30.357802 
L 359.328684 31.055493 
L 360.960114 29.194984 
L 362.591544 28.884899 
L 364.222974 29.660111 
L 365.854404 29.892675 
L 367.485834 28.032166 
L 369.117264 28.574814 
L 370.748693 27.567038 
L 372.380123 27.256953 
L 374.011553 29.194984 
L 375.642983 26.559262 
L 377.274413 25.241402 
L 378.905843 25.939093 
L 380.537273 26.791826 
L 380.537273 26.791826 
" clip-path="url(#pcfbc4e3ceb)" style="fill: none; stroke: #2ca02c; stroke-width: 1.5; stroke-linecap: square"/>
   </g>
   <g id="line2d_20">
    <path d="M 55.882727 261.216 
L 59.145587 260.828394 
L 60.777017 260.363267 
L 62.408447 259.200448 
L 64.039877 258.270194 
L 65.671307 257.029854 
L 67.302736 255.401908 
L 68.934166 254.006526 
L 70.565596 252.843708 
L 72.197026 251.448326 
L 73.828456 250.363029 
L 75.459886 248.424998 
L 81.985605 243.386119 
L 83.617035 241.758173 
L 86.879895 236.874336 
L 88.511325 233.92853 
L 91.774185 230.75016 
L 93.405614 229.897426 
L 95.037044 227.57179 
L 98.299904 224.083335 
L 101.562764 218.889413 
L 103.194194 216.79634 
L 104.825624 214.083097 
L 106.457053 213.385406 
L 108.088483 210.904727 
L 111.351343 208.346527 
L 112.982773 205.633284 
L 114.614203 204.005338 
L 116.245633 203.307647 
L 117.877063 202.067308 
L 119.508492 200.439362 
L 121.139922 198.578853 
L 124.402782 194.160143 
L 126.034212 193.074846 
L 127.665642 193.384931 
L 129.297072 192.06707 
L 130.928502 189.431349 
L 134.191361 185.012639 
L 135.822791 184.780076 
L 137.454221 184.159906 
L 139.085651 181.679227 
L 140.717081 181.136578 
L 142.348511 180.981536 
L 143.979941 181.214099 
L 145.61137 179.663675 
L 147.2428 177.493081 
L 148.87423 176.252741 
L 150.50566 174.857359 
L 152.13709 176.252741 
L 155.39995 174.624796 
L 158.66281 174.237189 
L 160.294239 172.221638 
L 161.925669 170.671213 
L 163.557099 170.206086 
L 165.188529 169.430874 
L 166.819959 168.345577 
L 170.082819 167.337801 
L 171.714249 166.485067 
L 173.345678 166.717631 
L 174.977108 164.934643 
L 176.608538 166.562588 
L 178.239968 167.570364 
L 179.871398 167.105237 
L 181.502828 166.097461 
L 183.134258 164.7796 
L 184.765688 164.236952 
L 186.397117 164.081909 
L 188.028547 162.84157 
L 189.659977 161.988836 
L 191.291407 162.919091 
L 192.922837 161.058582 
L 194.554267 161.60123 
L 196.185697 161.213624 
L 197.817127 162.2214 
L 202.711416 158.810466 
L 204.342846 158.887988 
L 205.974276 158.577903 
L 207.605706 157.337563 
L 209.237136 155.86466 
L 210.868566 156.019702 
L 212.499995 154.856884 
L 214.131425 154.779363 
L 215.762855 154.004151 
L 217.394285 152.221162 
L 219.025715 151.756035 
L 220.657145 151.523471 
L 222.288575 150.593217 
L 223.920005 150.593217 
L 225.551434 149.662962 
L 227.182864 150.903302 
L 228.814294 149.740483 
L 230.445724 150.360653 
L 232.077154 148.422623 
L 233.708584 147.414847 
L 236.971444 147.182283 
L 238.602873 147.724932 
L 240.234303 147.337326 
L 241.865733 147.104762 
L 243.497163 144.779125 
L 245.128593 146.096986 
L 246.760023 146.639635 
L 248.391453 148.112538 
L 250.022883 147.259804 
L 251.654312 145.166731 
L 253.285742 145.554337 
L 254.917172 146.949719 
L 256.548602 147.492368 
L 258.180032 147.259804 
L 261.442892 148.655186 
L 263.074322 147.259804 
L 264.705751 148.190059 
L 266.337181 148.190059 
L 267.968611 146.794677 
L 269.600041 146.717156 
L 271.231471 147.957495 
L 272.862901 148.035017 
L 274.494331 146.639635 
L 276.125761 148.345101 
L 277.75719 148.345101 
L 279.38862 147.337326 
L 281.02005 148.422623 
L 282.65148 147.259804 
L 284.28291 147.879974 
L 285.91434 146.949719 
L 287.54577 147.957495 
L 290.80863 151.368429 
L 292.440059 148.88775 
L 294.071489 149.50792 
L 295.702919 148.655186 
L 297.334349 146.32955 
L 300.597209 147.802453 
L 302.228639 148.112538 
L 303.860069 146.32955 
L 305.491498 145.786901 
L 307.122928 148.26758 
L 308.754358 148.035017 
L 312.017218 147.182283 
L 313.648648 147.414847 
L 315.280078 147.182283 
L 316.911508 148.112538 
L 318.542937 146.484592 
L 320.174367 148.500144 
L 321.805797 147.879974 
L 323.437227 148.035017 
L 325.068657 146.872198 
L 326.700087 148.88775 
L 328.331517 150.128089 
L 329.962947 150.360653 
L 331.594376 147.64741 
L 333.225806 147.64741 
L 334.857236 148.345101 
L 336.488666 148.88775 
L 338.120096 148.112538 
L 339.751526 147.182283 
L 341.382956 147.802453 
L 343.014386 148.88775 
L 344.645815 148.732707 
L 346.277245 149.042792 
L 347.908675 148.732707 
L 349.540105 147.492368 
L 351.171535 148.88775 
L 352.802965 146.639635 
L 354.434395 145.08921 
L 356.065825 146.717156 
L 357.697254 145.399295 
L 359.328684 145.321774 
L 360.960114 144.391519 
L 362.591544 144.624083 
L 364.222974 143.538786 
L 365.854404 142.220925 
L 367.485834 142.686052 
L 369.117264 141.988361 
L 370.748693 143.848871 
L 372.380123 143.461264 
L 374.011553 143.926392 
L 375.642983 146.639635 
L 377.274413 147.104762 
L 378.905843 146.794677 
L 380.537273 146.32955 
L 380.537273 146.32955 
" clip-path="url(#pcfbc4e3ceb)" style="fill: none; stroke: #d62728; stroke-width: 1.5; stroke-linecap: square"/>
   </g>
   <g id="patch_3">
    <path d="M 39.65 273.312 
L 39.65 7.2 
" style="fill: none; stroke: #000000; stroke-width: 0.8; stroke-linejoin: miter; stroke-linecap: square"/>
   </g>
   <g id="patch_4">
    <path d="M 396.77 273.312 
L 396.77 7.2 
" style="fill: none; stroke: #000000; stroke-width: 0.8; stroke-linejoin: miter; stroke-linecap: square"/>
   </g>
   <g id="patch_5">
    <path d="M 39.65 273.312 
L 396.77 273.312 
" style="fill: none; stroke: #000000; stroke-width: 0.8; stroke-linejoin: miter; stroke-linecap: square"/>
   </g>
   <g id="patch_6">
    <path d="M 39.65 7.2 
L 396.77 7.2 
" style="fill: none; stroke: #000000; stroke-width: 0.8; stroke-linejoin: miter; stroke-linecap: square"/>
   </g>
  </g>
 </g>
 <defs>
  <clipPath id="pcfbc4e3ceb">
   <rect x="39.65" y="7.2" width="357.12" height="266.112"/>
  </clipPath>
 </defs>
</svg>
