<?xml version="1.0" encoding="utf-8" standalone="no"?>
<!DOCTYPE svg PUBLIC "-//W3C//DTD SVG 1.1//EN"
  "http://www.w3.org/Graphics/SVG/1.1/DTD/svg11.dtd">
<svg xmlns:xlink="http://www.w3.org/1999/xlink" width="403.97pt" height="297.190125pt" viewBox="0 0 403.97 297.190125" xmlns="http://www.w3.org/2000/svg" version="1.1">
 <metadata>
  <rdf:RDF xmlns:dc="http://purl.org/dc/elements/1.1/" xmlns:cc="http://creativecommons.org/ns#" xmlns:rdf="http://www.w3.org/1999/02/22-rdf-syntax-ns#">
   <cc:Work>
    <dc:type rdf:resource="http://purl.org/dc/dcmitype/StillImage"/>
    <dc:date>2025-03-10T02:41:33.459681</dc:date>
    <dc:format>image/svg+xml</dc:format>
    <dc:creator>
     <cc:Agent>
      <dc:title>Matplotlib v3.10.1, https://matplotlib.org/</dc:title>
     </cc:Agent>
    </dc:creator>
   </cc:Work>
  </rdf:RDF>
 </metadata>
 <defs>
  <style type="text/css">*{stroke-linejoin: round; stroke-linecap: butt}</style>
 </defs>
 <g id="figure_1">
  <g id="patch_1">
   <path d="M 0 297.190125 
L 403.97 297.190125 
L 403.97 0 
L 0 0 
z
" style="fill: #ffffff"/>
  </g>
  <g id="axes_1">
   <g id="patch_2">
    <path d="M 39.65 273.312 
L 396.77 273.312 
L 396.77 7.2 
L 39.65 7.2 
z
" style="fill: #ffffff"/>
   </g>
   <g id="matplotlib.axis_1">
    <g id="xtick_1">
     <g id="line2d_1">
      <defs>
       <path id="mfaa8a3bc81" d="M 0 0 
L 0 3.5 
" style="stroke: #000000; stroke-width: 0.8"/>
      </defs>
      <g>
       <use xlink:href="#mfaa8a3bc81" x="55.882727" y="273.312" style="stroke: #000000; stroke-width: 0.8"/>
      </g>
     </g>
     <g id="text_1">
      <!-- 0.0 -->
      <g transform="translate(47.931165 287.910437) scale(0.1 -0.1)">
       <defs>
        <path id="DejaVuSans-30" d="M 2034 4250 
Q 1547 4250 1301 3770 
Q 1056 3291 1056 2328 
Q 1056 1369 1301 889 
Q 1547 409 2034 409 
Q 2525 409 2770 889 
Q 3016 1369 3016 2328 
Q 3016 3291 2770 3770 
Q 2525 4250 2034 4250 
z
M 2034 4750 
Q 2819 4750 3233 4129 
Q 3647 3509 3647 2328 
Q 3647 1150 3233 529 
Q 2819 -91 2034 -91 
Q 1250 -91 836 529 
Q 422 1150 422 2328 
Q 422 3509 836 4129 
Q 1250 4750 2034 4750 
z
" transform="scale(0.015625)"/>
        <path id="DejaVuSans-2e" d="M 684 794 
L 1344 794 
L 1344 0 
L 684 0 
L 684 794 
z
" transform="scale(0.015625)"/>
       </defs>
       <use xlink:href="#DejaVuSans-30"/>
       <use xlink:href="#DejaVuSans-2e" transform="translate(63.623047 0)"/>
       <use xlink:href="#DejaVuSans-30" transform="translate(95.410156 0)"/>
      </g>
     </g>
    </g>
    <g id="xtick_2">
     <g id="line2d_2">
      <g>
       <use xlink:href="#mfaa8a3bc81" x="96.668474" y="273.312" style="stroke: #000000; stroke-width: 0.8"/>
      </g>
     </g>
     <g id="text_2">
      <!-- 2.5 -->
      <g transform="translate(88.716912 287.910437) scale(0.1 -0.1)">
       <defs>
        <path id="DejaVuSans-32" d="M 1228 531 
L 3431 531 
L 3431 0 
L 469 0 
L 469 531 
Q 828 903 1448 1529 
Q 2069 2156 2228 2338 
Q 2531 2678 2651 2914 
Q 2772 3150 2772 3378 
Q 2772 3750 2511 3984 
Q 2250 4219 1831 4219 
Q 1534 4219 1204 4116 
Q 875 4013 500 3803 
L 500 4441 
Q 881 4594 1212 4672 
Q 1544 4750 1819 4750 
Q 2544 4750 2975 4387 
Q 3406 4025 3406 3419 
Q 3406 3131 3298 2873 
Q 3191 2616 2906 2266 
Q 2828 2175 2409 1742 
Q 1991 1309 1228 531 
z
" transform="scale(0.015625)"/>
        <path id="DejaVuSans-35" d="M 691 4666 
L 3169 4666 
L 3169 4134 
L 1269 4134 
L 1269 2991 
Q 1406 3038 1543 3061 
Q 1681 3084 1819 3084 
Q 2600 3084 3056 2656 
Q 3513 2228 3513 1497 
Q 3513 744 3044 326 
Q 2575 -91 1722 -91 
Q 1428 -91 1123 -41 
Q 819 9 494 109 
L 494 744 
Q 775 591 1075 516 
Q 1375 441 1709 441 
Q 2250 441 2565 725 
Q 2881 1009 2881 1497 
Q 2881 1984 2565 2268 
Q 2250 2553 1709 2553 
Q 1456 2553 1204 2497 
Q 953 2441 691 2322 
L 691 4666 
z
" transform="scale(0.015625)"/>
       </defs>
       <use xlink:href="#DejaVuSans-32"/>
       <use xlink:href="#DejaVuSans-2e" transform="translate(63.623047 0)"/>
       <use xlink:href="#DejaVuSans-35" transform="translate(95.410156 0)"/>
      </g>
     </g>
    </g>
    <g id="xtick_3">
     <g id="line2d_3">
      <g>
       <use xlink:href="#mfaa8a3bc81" x="137.454221" y="273.312" style="stroke: #000000; stroke-width: 0.8"/>
      </g>
     </g>
     <g id="text_3">
      <!-- 5.0 -->
      <g transform="translate(129.502659 287.910437) scale(0.1 -0.1)">
       <use xlink:href="#DejaVuSans-35"/>
       <use xlink:href="#DejaVuSans-2e" transform="translate(63.623047 0)"/>
       <use xlink:href="#DejaVuSans-30" transform="translate(95.410156 0)"/>
      </g>
     </g>
    </g>
    <g id="xtick_4">
     <g id="line2d_4">
      <g>
       <use xlink:href="#mfaa8a3bc81" x="178.239968" y="273.312" style="stroke: #000000; stroke-width: 0.8"/>
      </g>
     </g>
     <g id="text_4">
      <!-- 7.5 -->
      <g transform="translate(170.288406 287.910437) scale(0.1 -0.1)">
       <defs>
        <path id="DejaVuSans-37" d="M 525 4666 
L 3525 4666 
L 3525 4397 
L 1831 0 
L 1172 0 
L 2766 4134 
L 525 4134 
L 525 4666 
z
" transform="scale(0.015625)"/>
       </defs>
       <use xlink:href="#DejaVuSans-37"/>
       <use xlink:href="#DejaVuSans-2e" transform="translate(63.623047 0)"/>
       <use xlink:href="#DejaVuSans-35" transform="translate(95.410156 0)"/>
      </g>
     </g>
    </g>
    <g id="xtick_5">
     <g id="line2d_5">
      <g>
       <use xlink:href="#mfaa8a3bc81" x="219.025715" y="273.312" style="stroke: #000000; stroke-width: 0.8"/>
      </g>
     </g>
     <g id="text_5">
      <!-- 10.0 -->
      <g transform="translate(207.892902 287.910437) scale(0.1 -0.1)">
       <defs>
        <path id="DejaVuSans-31" d="M 794 531 
L 1825 531 
L 1825 4091 
L 703 3866 
L 703 4441 
L 1819 4666 
L 2450 4666 
L 2450 531 
L 3481 531 
L 3481 0 
L 794 0 
L 794 531 
z
" transform="scale(0.015625)"/>
       </defs>
       <use xlink:href="#DejaVuSans-31"/>
       <use xlink:href="#DejaVuSans-30" transform="translate(63.623047 0)"/>
       <use xlink:href="#DejaVuSans-2e" transform="translate(127.246094 0)"/>
       <use xlink:href="#DejaVuSans-30" transform="translate(159.033203 0)"/>
      </g>
     </g>
    </g>
    <g id="xtick_6">
     <g id="line2d_6">
      <g>
       <use xlink:href="#mfaa8a3bc81" x="259.811462" y="273.312" style="stroke: #000000; stroke-width: 0.8"/>
      </g>
     </g>
     <g id="text_6">
      <!-- 12.5 -->
      <g transform="translate(248.678649 287.910437) scale(0.1 -0.1)">
       <use xlink:href="#DejaVuSans-31"/>
       <use xlink:href="#DejaVuSans-32" transform="translate(63.623047 0)"/>
       <use xlink:href="#DejaVuSans-2e" transform="translate(127.246094 0)"/>
       <use xlink:href="#DejaVuSans-35" transform="translate(159.033203 0)"/>
      </g>
     </g>
    </g>
    <g id="xtick_7">
     <g id="line2d_7">
      <g>
       <use xlink:href="#mfaa8a3bc81" x="300.597209" y="273.312" style="stroke: #000000; stroke-width: 0.8"/>
      </g>
     </g>
     <g id="text_7">
      <!-- 15.0 -->
      <g transform="translate(289.464396 287.910437) scale(0.1 -0.1)">
       <use xlink:href="#DejaVuSans-31"/>
       <use xlink:href="#DejaVuSans-35" transform="translate(63.623047 0)"/>
       <use xlink:href="#DejaVuSans-2e" transform="translate(127.246094 0)"/>
       <use xlink:href="#DejaVuSans-30" transform="translate(159.033203 0)"/>
      </g>
     </g>
    </g>
    <g id="xtick_8">
     <g id="line2d_8">
      <g>
       <use xlink:href="#mfaa8a3bc81" x="341.382956" y="273.312" style="stroke: #000000; stroke-width: 0.8"/>
      </g>
     </g>
     <g id="text_8">
      <!-- 17.5 -->
      <g transform="translate(330.250143 287.910437) scale(0.1 -0.1)">
       <use xlink:href="#DejaVuSans-31"/>
       <use xlink:href="#DejaVuSans-37" transform="translate(63.623047 0)"/>
       <use xlink:href="#DejaVuSans-2e" transform="translate(127.246094 0)"/>
       <use xlink:href="#DejaVuSans-35" transform="translate(159.033203 0)"/>
      </g>
     </g>
    </g>
    <g id="xtick_9">
     <g id="line2d_9">
      <g>
       <use xlink:href="#mfaa8a3bc81" x="382.168703" y="273.312" style="stroke: #000000; stroke-width: 0.8"/>
      </g>
     </g>
     <g id="text_9">
      <!-- 20.0 -->
      <g transform="translate(371.03589 287.910437) scale(0.1 -0.1)">
       <use xlink:href="#DejaVuSans-32"/>
       <use xlink:href="#DejaVuSans-30" transform="translate(63.623047 0)"/>
       <use xlink:href="#DejaVuSans-2e" transform="translate(127.246094 0)"/>
       <use xlink:href="#DejaVuSans-30" transform="translate(159.033203 0)"/>
      </g>
     </g>
    </g>
   </g>
   <g id="matplotlib.axis_2">
    <g id="ytick_1">
     <g id="line2d_10">
      <defs>
       <path id="mf8d6cdfb8f" d="M 0 0 
L -3.5 0 
" style="stroke: #000000; stroke-width: 0.8"/>
      </defs>
      <g>
       <use xlink:href="#mf8d6cdfb8f" x="39.65" y="261.216" style="stroke: #000000; stroke-width: 0.8"/>
      </g>
     </g>
     <g id="text_10">
      <!-- 0 -->
      <g transform="translate(26.2875 265.015219) scale(0.1 -0.1)">
       <use xlink:href="#DejaVuSans-30"/>
      </g>
     </g>
    </g>
    <g id="ytick_2">
     <g id="line2d_11">
      <g>
       <use xlink:href="#mf8d6cdfb8f" x="39.65" y="220.877804" style="stroke: #000000; stroke-width: 0.8"/>
      </g>
     </g>
     <g id="text_11">
      <!-- 500 -->
      <g transform="translate(13.5625 224.677022) scale(0.1 -0.1)">
       <use xlink:href="#DejaVuSans-35"/>
       <use xlink:href="#DejaVuSans-30" transform="translate(63.623047 0)"/>
       <use xlink:href="#DejaVuSans-30" transform="translate(127.246094 0)"/>
      </g>
     </g>
    </g>
    <g id="ytick_3">
     <g id="line2d_12">
      <g>
       <use xlink:href="#mf8d6cdfb8f" x="39.65" y="180.539607" style="stroke: #000000; stroke-width: 0.8"/>
      </g>
     </g>
     <g id="text_12">
      <!-- 1000 -->
      <g transform="translate(7.2 184.338826) scale(0.1 -0.1)">
       <use xlink:href="#DejaVuSans-31"/>
       <use xlink:href="#DejaVuSans-30" transform="translate(63.623047 0)"/>
       <use xlink:href="#DejaVuSans-30" transform="translate(127.246094 0)"/>
       <use xlink:href="#DejaVuSans-30" transform="translate(190.869141 0)"/>
      </g>
     </g>
    </g>
    <g id="ytick_4">
     <g id="line2d_13">
      <g>
       <use xlink:href="#mf8d6cdfb8f" x="39.65" y="140.201411" style="stroke: #000000; stroke-width: 0.8"/>
      </g>
     </g>
     <g id="text_13">
      <!-- 1500 -->
      <g transform="translate(7.2 144.00063) scale(0.1 -0.1)">
       <use xlink:href="#DejaVuSans-31"/>
       <use xlink:href="#DejaVuSans-35" transform="translate(63.623047 0)"/>
       <use xlink:href="#DejaVuSans-30" transform="translate(127.246094 0)"/>
       <use xlink:href="#DejaVuSans-30" transform="translate(190.869141 0)"/>
      </g>
     </g>
    </g>
    <g id="ytick_5">
     <g id="line2d_14">
      <g>
       <use xlink:href="#mf8d6cdfb8f" x="39.65" y="99.863215" style="stroke: #000000; stroke-width: 0.8"/>
      </g>
     </g>
     <g id="text_14">
      <!-- 2000 -->
      <g transform="translate(7.2 103.662434) scale(0.1 -0.1)">
       <use xlink:href="#DejaVuSans-32"/>
       <use xlink:href="#DejaVuSans-30" transform="translate(63.623047 0)"/>
       <use xlink:href="#DejaVuSans-30" transform="translate(127.246094 0)"/>
       <use xlink:href="#DejaVuSans-30" transform="translate(190.869141 0)"/>
      </g>
     </g>
    </g>
    <g id="ytick_6">
     <g id="line2d_15">
      <g>
       <use xlink:href="#mf8d6cdfb8f" x="39.65" y="59.525019" style="stroke: #000000; stroke-width: 0.8"/>
      </g>
     </g>
     <g id="text_15">
      <!-- 2500 -->
      <g transform="translate(7.2 63.324237) scale(0.1 -0.1)">
       <use xlink:href="#DejaVuSans-32"/>
       <use xlink:href="#DejaVuSans-35" transform="translate(63.623047 0)"/>
       <use xlink:href="#DejaVuSans-30" transform="translate(127.246094 0)"/>
       <use xlink:href="#DejaVuSans-30" transform="translate(190.869141 0)"/>
      </g>
     </g>
    </g>
    <g id="ytick_7">
     <g id="line2d_16">
      <g>
       <use xlink:href="#mf8d6cdfb8f" x="39.65" y="19.186822" style="stroke: #000000; stroke-width: 0.8"/>
      </g>
     </g>
     <g id="text_16">
      <!-- 3000 -->
      <g transform="translate(7.2 22.986041) scale(0.1 -0.1)">
       <defs>
        <path id="DejaVuSans-33" d="M 2597 2516 
Q 3050 2419 3304 2112 
Q 3559 1806 3559 1356 
Q 3559 666 3084 287 
Q 2609 -91 1734 -91 
Q 1441 -91 1130 -33 
Q 819 25 488 141 
L 488 750 
Q 750 597 1062 519 
Q 1375 441 1716 441 
Q 2309 441 2620 675 
Q 2931 909 2931 1356 
Q 2931 1769 2642 2001 
Q 2353 2234 1838 2234 
L 1294 2234 
L 1294 2753 
L 1863 2753 
Q 2328 2753 2575 2939 
Q 2822 3125 2822 3475 
Q 2822 3834 2567 4026 
Q 2313 4219 1838 4219 
Q 1578 4219 1281 4162 
Q 984 4106 628 3988 
L 628 4550 
Q 988 4650 1302 4700 
Q 1616 4750 1894 4750 
Q 2613 4750 3031 4423 
Q 3450 4097 3450 3541 
Q 3450 3153 3228 2886 
Q 3006 2619 2597 2516 
z
" transform="scale(0.015625)"/>
       </defs>
       <use xlink:href="#DejaVuSans-33"/>
       <use xlink:href="#DejaVuSans-30" transform="translate(63.623047 0)"/>
       <use xlink:href="#DejaVuSans-30" transform="translate(127.246094 0)"/>
       <use xlink:href="#DejaVuSans-30" transform="translate(190.869141 0)"/>
      </g>
     </g>
    </g>
   </g>
   <g id="line2d_17">
    <path d="M 55.882727 261.216 
L 72.197026 180.539607 
L 88.511325 126.755346 
L 104.825624 90.899171 
L 121.139922 66.995055 
L 137.454221 51.058977 
L 153.76852 40.434926 
L 170.082819 33.352225 
L 186.397117 28.630424 
L 202.711416 25.482557 
L 219.025715 23.383979 
L 235.340014 21.984926 
L 251.654312 21.052225 
L 267.968611 20.430424 
L 284.28291 20.01589 
L 300.597209 19.739534 
L 316.911508 19.555297 
L 333.225806 19.432472 
L 349.540105 19.350589 
L 365.854404 19.296 
" clip-path="url(#pf9d56e051b)" style="fill: none; stroke: #1f77b4; stroke-width: 1.5; stroke-linecap: square"/>
   </g>
   <g id="line2d_18">
    <path d="M 55.882727 261.216 
L 72.197026 261.216 
L 88.511325 234.323869 
L 104.825624 207.431738 
L 121.139922 186.515637 
L 137.454221 171.575564 
L 153.76852 161.283514 
L 170.082819 154.31148 
L 186.397117 149.626568 
L 202.711416 146.490997 
L 219.025715 144.396518 
L 235.340014 142.998832 
L 251.654312 142.066586 
L 267.968611 141.444937 
L 284.28291 141.030454 
L 300.597209 140.754115 
L 316.911508 140.569883 
L 333.225806 140.44706 
L 349.540105 140.365177 
L 365.854404 140.310589 
" clip-path="url(#pf9d56e051b)" style="fill: none; stroke: #ff7f0e; stroke-width: 1.5; stroke-linecap: square"/>
   </g>
   <g id="line2d_19">
    <path d="M 55.882727 261.216 
L 57.514157 253.067684 
L 59.145587 246.210191 
L 60.777017 238.384581 
L 62.408447 232.979263 
L 64.039877 226.041093 
L 65.671307 217.328042 
L 67.302736 211.519342 
L 68.934166 204.823202 
L 72.197026 190.704833 
L 73.828456 185.62222 
L 75.459886 181.265695 
L 77.091316 175.537671 
L 78.722746 171.826557 
L 81.985605 162.790801 
L 83.617035 159.160363 
L 86.879895 150.527989 
L 88.511325 145.526053 
L 90.142755 141.250204 
L 91.774185 137.700443 
L 95.037044 129.874833 
L 96.668474 127.131836 
L 98.299904 123.985456 
L 99.931334 121.645841 
L 101.562764 118.499462 
L 103.194194 113.981584 
L 104.825624 110.109117 
L 106.457053 106.962737 
L 108.088483 103.3323 
L 109.719913 100.589302 
L 111.351343 98.088334 
L 112.982773 95.264661 
L 114.614203 92.925045 
L 116.245633 89.375284 
L 117.877063 86.874316 
L 119.508492 86.067552 
L 124.402782 79.371411 
L 126.034212 78.403294 
L 127.665642 74.530828 
L 129.297072 72.433241 
L 132.559931 70.254979 
L 134.191361 69.367539 
L 135.822791 67.754011 
L 137.454221 65.97913 
L 139.085651 66.301836 
L 140.717081 64.849661 
L 142.348511 62.752074 
L 145.61137 60.815841 
L 147.2428 60.412459 
L 148.87423 59.282989 
L 150.50566 57.346756 
L 152.13709 57.427432 
L 153.76852 57.346756 
L 155.39995 56.539992 
L 157.03138 56.782021 
L 158.66281 55.087817 
L 160.294239 55.410523 
L 161.925669 54.523082 
L 163.557099 53.151584 
L 165.188529 52.828878 
L 166.819959 51.699409 
L 168.451389 50.166557 
L 171.714249 48.230324 
L 174.977108 45.40665 
L 178.239968 45.971385 
L 179.871398 43.631769 
L 181.502828 42.179594 
L 183.134258 41.050125 
L 184.765688 38.871862 
L 186.397117 39.033215 
L 188.028547 39.35592 
L 189.659977 36.935629 
L 191.291407 36.6936 
L 192.922837 36.209541 
L 194.554267 35.402777 
L 196.185697 32.740456 
L 197.817127 32.901809 
L 199.448556 34.111955 
L 201.079986 33.869926 
L 202.711416 32.095045 
L 204.342846 29.836106 
L 205.974276 30.158812 
L 207.605706 29.513401 
L 209.237136 29.271371 
L 210.868566 28.706637 
L 212.499995 27.335138 
L 214.131425 27.012432 
L 215.762855 28.706637 
L 217.394285 30.078135 
L 219.025715 31.046252 
L 220.657145 30.884899 
L 222.288575 32.014369 
L 223.920005 30.64287 
L 225.551434 29.836106 
L 227.182864 31.449634 
L 228.814294 31.691663 
L 230.445724 31.77234 
L 232.077154 31.207605 
L 233.708584 32.65978 
L 235.340014 32.095045 
L 236.971444 31.207605 
L 238.602873 30.562194 
L 240.234303 30.723546 
L 241.865733 30.723546 
L 243.497163 29.594077 
L 245.128593 30.481517 
L 246.760023 31.126928 
L 248.391453 30.723546 
L 250.022883 30.078135 
L 251.654312 30.723546 
L 253.285742 32.337074 
L 254.917172 33.385867 
L 256.548602 32.579103 
L 258.180032 31.046252 
L 259.811462 30.965576 
L 261.442892 31.207605 
L 263.074322 31.853016 
L 264.705751 31.207605 
L 266.337181 31.046252 
L 267.968611 29.352048 
L 269.600041 29.432724 
L 271.231471 29.190695 
L 272.862901 28.545284 
L 274.494331 29.352048 
L 276.125761 28.383931 
L 277.75719 29.594077 
L 279.38862 29.75543 
L 281.02005 27.657844 
L 282.65148 25.963639 
L 287.54577 23.866053 
L 289.1772 25.156875 
L 290.80863 26.044316 
L 292.440059 27.173785 
L 294.071489 25.398905 
L 295.702919 25.560257 
L 297.334349 25.560257 
L 298.965779 26.528374 
L 300.597209 26.60905 
L 302.228639 24.753493 
L 303.860069 26.85108 
L 305.491498 28.222578 
L 307.122928 29.029342 
L 308.754358 28.464607 
L 312.017218 27.980549 
L 313.648648 28.62596 
L 316.911508 23.785377 
L 320.174367 23.543348 
L 321.805797 24.592141 
L 323.437227 26.205668 
L 325.068657 25.882963 
L 326.700087 27.899873 
L 329.962947 28.303255 
L 331.594376 30.078135 
L 333.225806 28.706637 
L 334.857236 28.222578 
L 336.488666 28.303255 
L 338.120096 27.73852 
L 339.751526 26.447698 
L 343.014386 27.819196 
L 344.645815 26.931756 
L 346.277245 29.110019 
L 349.540105 31.449634 
L 351.171535 31.853016 
L 352.802965 33.143838 
L 354.434395 32.256398 
L 356.065825 32.982485 
L 357.697254 33.385867 
L 359.328684 33.063162 
L 360.960114 32.417751 
L 362.591544 33.385867 
L 364.222974 33.54722 
L 365.854404 33.385867 
L 367.485834 32.821133 
L 369.117264 31.368958 
L 370.748693 31.691663 
L 374.011553 28.141902 
L 375.642983 29.352048 
L 378.905843 25.882963 
L 380.537273 26.60905 
L 380.537273 26.60905 
" clip-path="url(#pf9d56e051b)" style="fill: none; stroke: #2ca02c; stroke-width: 1.5; stroke-linecap: square"/>
   </g>
   <g id="line2d_20">
    <path d="M 55.882727 261.216 
L 59.145587 260.812618 
L 60.777017 260.247883 
L 62.408447 259.441119 
L 64.039877 259.118414 
L 65.671307 258.634355 
L 68.934166 255.487976 
L 70.565596 254.27783 
L 72.197026 253.632419 
L 73.828456 251.212127 
L 75.459886 247.823719 
L 77.091316 245.887485 
L 81.985605 239.433374 
L 83.617035 237.73917 
L 88.511325 232.091822 
L 90.142755 230.236265 
L 91.774185 228.058003 
L 93.405614 226.605828 
L 95.037044 224.9923 
L 96.668474 223.620801 
L 98.299904 221.361862 
L 99.931334 217.247366 
L 101.562764 216.03722 
L 103.194194 213.939634 
L 104.825624 212.406783 
L 108.088483 211.600019 
L 109.719913 209.260403 
L 111.351343 208.050257 
L 112.982773 205.629966 
L 114.614203 202.160881 
L 116.245633 200.224647 
L 117.877063 198.933825 
L 119.508492 198.530443 
L 121.139922 196.110151 
L 122.771352 194.093241 
L 124.402782 192.641066 
L 126.034212 190.866186 
L 127.665642 190.301451 
L 129.297072 189.010629 
L 130.928502 188.849276 
L 132.559931 187.316424 
L 134.191361 186.025602 
L 135.822791 185.299515 
L 137.454221 184.331398 
L 139.085651 182.475841 
L 140.717081 181.346371 
L 142.348511 181.588401 
L 143.979941 180.378255 
L 145.61137 178.603374 
L 147.2428 178.845403 
L 148.87423 176.425111 
L 150.50566 175.941053 
L 152.13709 173.601438 
L 153.76852 171.98791 
L 155.39995 171.10047 
L 157.03138 171.019793 
L 158.66281 170.777764 
L 160.294239 169.728971 
L 161.925669 170.85844 
L 163.557099 171.10047 
L 165.188529 169.567618 
L 168.451389 168.518825 
L 170.082819 166.905297 
L 171.714249 166.17921 
L 173.345678 166.985973 
L 174.977108 167.308679 
L 176.608538 166.743944 
L 178.239968 166.582592 
L 179.871398 164.646358 
L 181.502828 163.597565 
L 183.134258 162.710125 
L 184.765688 160.693215 
L 188.028547 157.143454 
L 189.659977 156.498042 
L 191.291407 154.965191 
L 192.922837 156.417366 
L 194.554267 156.33669 
L 196.185697 156.740072 
L 197.817127 156.659395 
L 199.448556 155.126544 
L 201.079986 154.965191 
L 202.711416 155.771955 
L 204.342846 153.997074 
L 205.974276 155.045867 
L 207.605706 154.481133 
L 210.868566 155.368573 
L 212.499995 156.659395 
L 214.131425 154.642485 
L 215.762855 153.028958 
L 217.394285 150.366637 
L 219.025715 150.28596 
L 220.657145 151.576783 
L 222.288575 150.043931 
L 223.920005 148.349727 
L 225.551434 149.075814 
L 227.182864 147.462286 
L 228.814294 147.38161 
L 230.445724 147.542963 
L 232.077154 147.300934 
L 233.708584 145.122671 
L 235.340014 144.47726 
L 236.971444 144.961318 
L 238.602873 145.848759 
L 240.234303 146.897552 
L 241.865733 144.47726 
L 243.497163 144.073878 
L 245.128593 142.783056 
L 246.760023 143.34779 
L 248.391453 144.315907 
L 250.022883 144.719289 
L 251.654312 143.912525 
L 253.285742 143.751172 
L 254.917172 143.831849 
L 256.548602 145.284024 
L 258.180032 147.784992 
L 259.811462 147.058905 
L 261.442892 148.107698 
L 263.074322 147.946345 
L 264.705751 148.26905 
L 266.337181 149.237167 
L 267.968611 148.995138 
L 269.600041 149.39852 
L 271.231471 150.931371 
L 272.862901 152.867605 
L 274.494331 150.527989 
L 276.125761 151.980164 
L 277.75719 150.447313 
L 279.38862 149.882578 
L 281.02005 150.770019 
L 282.65148 150.366637 
L 284.28291 151.980164 
L 285.91434 151.41543 
L 287.54577 149.801902 
L 289.1772 150.043931 
L 290.80863 148.672432 
L 292.440059 146.49417 
L 294.071489 145.606729 
L 295.702919 144.154554 
L 297.334349 141.976292 
L 298.965779 140.68547 
L 300.597209 141.250204 
L 302.228639 142.218321 
L 303.860069 141.330881 
L 305.491498 140.927499 
L 307.122928 141.895615 
L 308.754358 143.186438 
L 310.385788 144.154554 
L 312.017218 145.526053 
L 313.648648 144.719289 
L 315.280078 145.041995 
L 316.911508 145.606729 
L 318.542937 145.526053 
L 321.805797 145.122671 
L 323.437227 144.154554 
L 325.068657 143.912525 
L 326.700087 143.025085 
L 328.331517 141.814939 
L 331.594376 139.152618 
L 333.225806 138.507207 
L 334.857236 138.66856 
L 336.488666 138.103825 
L 338.120096 137.135708 
L 339.751526 138.749236 
L 341.382956 138.265178 
L 343.014386 138.910589 
L 344.645815 141.57291 
L 346.277245 139.798029 
L 347.908675 139.313971 
L 349.540105 139.394647 
L 351.171535 140.362764 
L 352.802965 138.587883 
L 354.434395 139.233294 
L 356.065825 138.749236 
L 357.697254 139.636676 
L 359.328684 139.878706 
L 360.960114 141.492233 
L 362.591544 140.927499 
L 364.222974 140.846822 
L 365.854404 141.411557 
L 367.485834 140.68547 
L 369.117264 142.863732 
L 370.748693 141.57291 
L 372.380123 142.944409 
L 374.011553 144.557936 
L 375.642983 145.526053 
L 377.274413 148.027021 
L 378.905843 148.188374 
L 380.537273 147.946345 
L 380.537273 147.946345 
" clip-path="url(#pf9d56e051b)" style="fill: none; stroke: #d62728; stroke-width: 1.5; stroke-linecap: square"/>
   </g>
   <g id="patch_3">
    <path d="M 39.65 273.312 
L 39.65 7.2 
" style="fill: none; stroke: #000000; stroke-width: 0.8; stroke-linejoin: miter; stroke-linecap: square"/>
   </g>
   <g id="patch_4">
    <path d="M 396.77 273.312 
L 396.77 7.2 
" style="fill: none; stroke: #000000; stroke-width: 0.8; stroke-linejoin: miter; stroke-linecap: square"/>
   </g>
   <g id="patch_5">
    <path d="M 39.65 273.312 
L 396.77 273.312 
" style="fill: none; stroke: #000000; stroke-width: 0.8; stroke-linejoin: miter; stroke-linecap: square"/>
   </g>
   <g id="patch_6">
    <path d="M 39.65 7.2 
L 396.77 7.2 
" style="fill: none; stroke: #000000; stroke-width: 0.8; stroke-linejoin: miter; stroke-linecap: square"/>
   </g>
  </g>
 </g>
 <defs>
  <clipPath id="pf9d56e051b">
   <rect x="39.65" y="7.2" width="357.12" height="266.112"/>
  </clipPath>
 </defs>
</svg>
