<?xml version="1.0" encoding="utf-8" standalone="no"?>
<!DOCTYPE svg PUBLIC "-//W3C//DTD SVG 1.1//EN"
  "http://www.w3.org/Graphics/SVG/1.1/DTD/svg11.dtd">
<svg xmlns:xlink="http://www.w3.org/1999/xlink" width="417.648125pt" height="310.86825pt" viewBox="0 0 417.648125 310.86825" xmlns="http://www.w3.org/2000/svg" version="1.1">
 <metadata>
  <rdf:RDF xmlns:dc="http://purl.org/dc/elements/1.1/" xmlns:cc="http://creativecommons.org/ns#" xmlns:rdf="http://www.w3.org/1999/02/22-rdf-syntax-ns#">
   <cc:Work>
    <dc:type rdf:resource="http://purl.org/dc/dcmitype/StillImage"/>
    <dc:date>2023-12-04T06:54:12.637199</dc:date>
    <dc:format>image/svg+xml</dc:format>
    <dc:creator>
     <cc:Agent>
      <dc:title>Matplotlib v3.8.2, https://matplotlib.org/</dc:title>
     </cc:Agent>
    </dc:creator>
   </cc:Work>
  </rdf:RDF>
 </metadata>
 <defs>
  <style type="text/css">*{stroke-linejoin: round; stroke-linecap: butt}</style>
 </defs>
 <g id="figure_1">
  <g id="patch_1">
   <path d="M 0 310.86825 
L 417.648125 310.86825 
L 417.648125 0 
L 0 0 
z
" style="fill: #ffffff"/>
  </g>
  <g id="axes_1">
   <g id="patch_2">
    <path d="M 53.328125 273.312 
L 410.448125 273.312 
L 410.448125 7.2 
L 53.328125 7.2 
z
" style="fill: #ffffff"/>
   </g>
   <g id="matplotlib.axis_1">
    <g id="xtick_1">
     <g id="line2d_1">
      <defs>
       <path id="m98131fcb48" d="M 0 0 
L 0 3.5 
" style="stroke: #000000; stroke-width: 0.8"/>
      </defs>
      <g>
       <use xlink:href="#m98131fcb48" x="69.560852" y="273.312" style="stroke: #000000; stroke-width: 0.8"/>
      </g>
     </g>
     <g id="text_1">
      <!-- 0.0 -->
      <g transform="translate(61.60929 287.910437) scale(0.1 -0.1)">
       <defs>
        <path id="DejaVuSans-30" d="M 2034 4250 
Q 1547 4250 1301 3770 
Q 1056 3291 1056 2328 
Q 1056 1369 1301 889 
Q 1547 409 2034 409 
Q 2525 409 2770 889 
Q 3016 1369 3016 2328 
Q 3016 3291 2770 3770 
Q 2525 4250 2034 4250 
z
M 2034 4750 
Q 2819 4750 3233 4129 
Q 3647 3509 3647 2328 
Q 3647 1150 3233 529 
Q 2819 -91 2034 -91 
Q 1250 -91 836 529 
Q 422 1150 422 2328 
Q 422 3509 836 4129 
Q 1250 4750 2034 4750 
z
" transform="scale(0.015625)"/>
        <path id="DejaVuSans-2e" d="M 684 794 
L 1344 794 
L 1344 0 
L 684 0 
L 684 794 
z
" transform="scale(0.015625)"/>
       </defs>
       <use xlink:href="#DejaVuSans-30"/>
       <use xlink:href="#DejaVuSans-2e" x="63.623047"/>
       <use xlink:href="#DejaVuSans-30" x="95.410156"/>
      </g>
     </g>
    </g>
    <g id="xtick_2">
     <g id="line2d_2">
      <g>
       <use xlink:href="#m98131fcb48" x="110.346599" y="273.312" style="stroke: #000000; stroke-width: 0.8"/>
      </g>
     </g>
     <g id="text_2">
      <!-- 2.5 -->
      <g transform="translate(102.395037 287.910437) scale(0.1 -0.1)">
       <defs>
        <path id="DejaVuSans-32" d="M 1228 531 
L 3431 531 
L 3431 0 
L 469 0 
L 469 531 
Q 828 903 1448 1529 
Q 2069 2156 2228 2338 
Q 2531 2678 2651 2914 
Q 2772 3150 2772 3378 
Q 2772 3750 2511 3984 
Q 2250 4219 1831 4219 
Q 1534 4219 1204 4116 
Q 875 4013 500 3803 
L 500 4441 
Q 881 4594 1212 4672 
Q 1544 4750 1819 4750 
Q 2544 4750 2975 4387 
Q 3406 4025 3406 3419 
Q 3406 3131 3298 2873 
Q 3191 2616 2906 2266 
Q 2828 2175 2409 1742 
Q 1991 1309 1228 531 
z
" transform="scale(0.015625)"/>
        <path id="DejaVuSans-35" d="M 691 4666 
L 3169 4666 
L 3169 4134 
L 1269 4134 
L 1269 2991 
Q 1406 3038 1543 3061 
Q 1681 3084 1819 3084 
Q 2600 3084 3056 2656 
Q 3513 2228 3513 1497 
Q 3513 744 3044 326 
Q 2575 -91 1722 -91 
Q 1428 -91 1123 -41 
Q 819 9 494 109 
L 494 744 
Q 775 591 1075 516 
Q 1375 441 1709 441 
Q 2250 441 2565 725 
Q 2881 1009 2881 1497 
Q 2881 1984 2565 2268 
Q 2250 2553 1709 2553 
Q 1456 2553 1204 2497 
Q 953 2441 691 2322 
L 691 4666 
z
" transform="scale(0.015625)"/>
       </defs>
       <use xlink:href="#DejaVuSans-32"/>
       <use xlink:href="#DejaVuSans-2e" x="63.623047"/>
       <use xlink:href="#DejaVuSans-35" x="95.410156"/>
      </g>
     </g>
    </g>
    <g id="xtick_3">
     <g id="line2d_3">
      <g>
       <use xlink:href="#m98131fcb48" x="151.132346" y="273.312" style="stroke: #000000; stroke-width: 0.8"/>
      </g>
     </g>
     <g id="text_3">
      <!-- 5.0 -->
      <g transform="translate(143.180784 287.910437) scale(0.1 -0.1)">
       <use xlink:href="#DejaVuSans-35"/>
       <use xlink:href="#DejaVuSans-2e" x="63.623047"/>
       <use xlink:href="#DejaVuSans-30" x="95.410156"/>
      </g>
     </g>
    </g>
    <g id="xtick_4">
     <g id="line2d_4">
      <g>
       <use xlink:href="#m98131fcb48" x="191.918093" y="273.312" style="stroke: #000000; stroke-width: 0.8"/>
      </g>
     </g>
     <g id="text_4">
      <!-- 7.5 -->
      <g transform="translate(183.966531 287.910437) scale(0.1 -0.1)">
       <defs>
        <path id="DejaVuSans-37" d="M 525 4666 
L 3525 4666 
L 3525 4397 
L 1831 0 
L 1172 0 
L 2766 4134 
L 525 4134 
L 525 4666 
z
" transform="scale(0.015625)"/>
       </defs>
       <use xlink:href="#DejaVuSans-37"/>
       <use xlink:href="#DejaVuSans-2e" x="63.623047"/>
       <use xlink:href="#DejaVuSans-35" x="95.410156"/>
      </g>
     </g>
    </g>
    <g id="xtick_5">
     <g id="line2d_5">
      <g>
       <use xlink:href="#m98131fcb48" x="232.70384" y="273.312" style="stroke: #000000; stroke-width: 0.8"/>
      </g>
     </g>
     <g id="text_5">
      <!-- 10.0 -->
      <g transform="translate(221.571027 287.910437) scale(0.1 -0.1)">
       <defs>
        <path id="DejaVuSans-31" d="M 794 531 
L 1825 531 
L 1825 4091 
L 703 3866 
L 703 4441 
L 1819 4666 
L 2450 4666 
L 2450 531 
L 3481 531 
L 3481 0 
L 794 0 
L 794 531 
z
" transform="scale(0.015625)"/>
       </defs>
       <use xlink:href="#DejaVuSans-31"/>
       <use xlink:href="#DejaVuSans-30" x="63.623047"/>
       <use xlink:href="#DejaVuSans-2e" x="127.246094"/>
       <use xlink:href="#DejaVuSans-30" x="159.033203"/>
      </g>
     </g>
    </g>
    <g id="xtick_6">
     <g id="line2d_6">
      <g>
       <use xlink:href="#m98131fcb48" x="273.489587" y="273.312" style="stroke: #000000; stroke-width: 0.8"/>
      </g>
     </g>
     <g id="text_6">
      <!-- 12.5 -->
      <g transform="translate(262.356774 287.910437) scale(0.1 -0.1)">
       <use xlink:href="#DejaVuSans-31"/>
       <use xlink:href="#DejaVuSans-32" x="63.623047"/>
       <use xlink:href="#DejaVuSans-2e" x="127.246094"/>
       <use xlink:href="#DejaVuSans-35" x="159.033203"/>
      </g>
     </g>
    </g>
    <g id="xtick_7">
     <g id="line2d_7">
      <g>
       <use xlink:href="#m98131fcb48" x="314.275334" y="273.312" style="stroke: #000000; stroke-width: 0.8"/>
      </g>
     </g>
     <g id="text_7">
      <!-- 15.0 -->
      <g transform="translate(303.142521 287.910437) scale(0.1 -0.1)">
       <use xlink:href="#DejaVuSans-31"/>
       <use xlink:href="#DejaVuSans-35" x="63.623047"/>
       <use xlink:href="#DejaVuSans-2e" x="127.246094"/>
       <use xlink:href="#DejaVuSans-30" x="159.033203"/>
      </g>
     </g>
    </g>
    <g id="xtick_8">
     <g id="line2d_8">
      <g>
       <use xlink:href="#m98131fcb48" x="355.061081" y="273.312" style="stroke: #000000; stroke-width: 0.8"/>
      </g>
     </g>
     <g id="text_8">
      <!-- 17.5 -->
      <g transform="translate(343.928268 287.910437) scale(0.1 -0.1)">
       <use xlink:href="#DejaVuSans-31"/>
       <use xlink:href="#DejaVuSans-37" x="63.623047"/>
       <use xlink:href="#DejaVuSans-2e" x="127.246094"/>
       <use xlink:href="#DejaVuSans-35" x="159.033203"/>
      </g>
     </g>
    </g>
    <g id="xtick_9">
     <g id="line2d_9">
      <g>
       <use xlink:href="#m98131fcb48" x="395.846828" y="273.312" style="stroke: #000000; stroke-width: 0.8"/>
      </g>
     </g>
     <g id="text_9">
      <!-- 20.0 -->
      <g transform="translate(384.714015 287.910437) scale(0.1 -0.1)">
       <use xlink:href="#DejaVuSans-32"/>
       <use xlink:href="#DejaVuSans-30" x="63.623047"/>
       <use xlink:href="#DejaVuSans-2e" x="127.246094"/>
       <use xlink:href="#DejaVuSans-30" x="159.033203"/>
      </g>
     </g>
    </g>
    <g id="text_10">
     <!-- Time -->
     <g transform="translate(219.654531 301.588562) scale(0.1 -0.1)">
      <defs>
       <path id="DejaVuSans-54" d="M -19 4666 
L 3928 4666 
L 3928 4134 
L 2272 4134 
L 2272 0 
L 1638 0 
L 1638 4134 
L -19 4134 
L -19 4666 
z
" transform="scale(0.015625)"/>
       <path id="DejaVuSans-69" d="M 603 3500 
L 1178 3500 
L 1178 0 
L 603 0 
L 603 3500 
z
M 603 4863 
L 1178 4863 
L 1178 4134 
L 603 4134 
L 603 4863 
z
" transform="scale(0.015625)"/>
       <path id="DejaVuSans-6d" d="M 3328 2828 
Q 3544 3216 3844 3400 
Q 4144 3584 4550 3584 
Q 5097 3584 5394 3201 
Q 5691 2819 5691 2113 
L 5691 0 
L 5113 0 
L 5113 2094 
Q 5113 2597 4934 2840 
Q 4756 3084 4391 3084 
Q 3944 3084 3684 2787 
Q 3425 2491 3425 1978 
L 3425 0 
L 2847 0 
L 2847 2094 
Q 2847 2600 2669 2842 
Q 2491 3084 2119 3084 
Q 1678 3084 1418 2786 
Q 1159 2488 1159 1978 
L 1159 0 
L 581 0 
L 581 3500 
L 1159 3500 
L 1159 2956 
Q 1356 3278 1631 3431 
Q 1906 3584 2284 3584 
Q 2666 3584 2933 3390 
Q 3200 3197 3328 2828 
z
" transform="scale(0.015625)"/>
       <path id="DejaVuSans-65" d="M 3597 1894 
L 3597 1613 
L 953 1613 
Q 991 1019 1311 708 
Q 1631 397 2203 397 
Q 2534 397 2845 478 
Q 3156 559 3463 722 
L 3463 178 
Q 3153 47 2828 -22 
Q 2503 -91 2169 -91 
Q 1331 -91 842 396 
Q 353 884 353 1716 
Q 353 2575 817 3079 
Q 1281 3584 2069 3584 
Q 2775 3584 3186 3129 
Q 3597 2675 3597 1894 
z
M 3022 2063 
Q 3016 2534 2758 2815 
Q 2500 3097 2075 3097 
Q 1594 3097 1305 2825 
Q 1016 2553 972 2059 
L 3022 2063 
z
" transform="scale(0.015625)"/>
      </defs>
      <use xlink:href="#DejaVuSans-54"/>
      <use xlink:href="#DejaVuSans-69" x="57.958984"/>
      <use xlink:href="#DejaVuSans-6d" x="85.742188"/>
      <use xlink:href="#DejaVuSans-65" x="183.154297"/>
     </g>
    </g>
   </g>
   <g id="matplotlib.axis_2">
    <g id="ytick_1">
     <g id="line2d_10">
      <defs>
       <path id="m8f65719967" d="M 0 0 
L -3.5 0 
" style="stroke: #000000; stroke-width: 0.8"/>
      </defs>
      <g>
       <use xlink:href="#m8f65719967" x="53.328125" y="261.216" style="stroke: #000000; stroke-width: 0.8"/>
      </g>
     </g>
     <g id="text_11">
      <!-- 0 -->
      <g transform="translate(39.965625 265.015219) scale(0.1 -0.1)">
       <use xlink:href="#DejaVuSans-30"/>
      </g>
     </g>
    </g>
    <g id="ytick_2">
     <g id="line2d_11">
      <g>
       <use xlink:href="#m8f65719967" x="53.328125" y="221.917754" style="stroke: #000000; stroke-width: 0.8"/>
      </g>
     </g>
     <g id="text_12">
      <!-- 500 -->
      <g transform="translate(27.240625 225.716973) scale(0.1 -0.1)">
       <use xlink:href="#DejaVuSans-35"/>
       <use xlink:href="#DejaVuSans-30" x="63.623047"/>
       <use xlink:href="#DejaVuSans-30" x="127.246094"/>
      </g>
     </g>
    </g>
    <g id="ytick_3">
     <g id="line2d_12">
      <g>
       <use xlink:href="#m8f65719967" x="53.328125" y="182.619509" style="stroke: #000000; stroke-width: 0.8"/>
      </g>
     </g>
     <g id="text_13">
      <!-- 1000 -->
      <g transform="translate(20.878125 186.418728) scale(0.1 -0.1)">
       <use xlink:href="#DejaVuSans-31"/>
       <use xlink:href="#DejaVuSans-30" x="63.623047"/>
       <use xlink:href="#DejaVuSans-30" x="127.246094"/>
       <use xlink:href="#DejaVuSans-30" x="190.869141"/>
      </g>
     </g>
    </g>
    <g id="ytick_4">
     <g id="line2d_13">
      <g>
       <use xlink:href="#m8f65719967" x="53.328125" y="143.321263" style="stroke: #000000; stroke-width: 0.8"/>
      </g>
     </g>
     <g id="text_14">
      <!-- 1500 -->
      <g transform="translate(20.878125 147.120482) scale(0.1 -0.1)">
       <use xlink:href="#DejaVuSans-31"/>
       <use xlink:href="#DejaVuSans-35" x="63.623047"/>
       <use xlink:href="#DejaVuSans-30" x="127.246094"/>
       <use xlink:href="#DejaVuSans-30" x="190.869141"/>
      </g>
     </g>
    </g>
    <g id="ytick_5">
     <g id="line2d_14">
      <g>
       <use xlink:href="#m8f65719967" x="53.328125" y="104.023018" style="stroke: #000000; stroke-width: 0.8"/>
      </g>
     </g>
     <g id="text_15">
      <!-- 2000 -->
      <g transform="translate(20.878125 107.822236) scale(0.1 -0.1)">
       <use xlink:href="#DejaVuSans-32"/>
       <use xlink:href="#DejaVuSans-30" x="63.623047"/>
       <use xlink:href="#DejaVuSans-30" x="127.246094"/>
       <use xlink:href="#DejaVuSans-30" x="190.869141"/>
      </g>
     </g>
    </g>
    <g id="ytick_6">
     <g id="line2d_15">
      <g>
       <use xlink:href="#m8f65719967" x="53.328125" y="64.724772" style="stroke: #000000; stroke-width: 0.8"/>
      </g>
     </g>
     <g id="text_16">
      <!-- 2500 -->
      <g transform="translate(20.878125 68.523991) scale(0.1 -0.1)">
       <use xlink:href="#DejaVuSans-32"/>
       <use xlink:href="#DejaVuSans-35" x="63.623047"/>
       <use xlink:href="#DejaVuSans-30" x="127.246094"/>
       <use xlink:href="#DejaVuSans-30" x="190.869141"/>
      </g>
     </g>
    </g>
    <g id="ytick_7">
     <g id="line2d_16">
      <g>
       <use xlink:href="#m8f65719967" x="53.328125" y="25.426526" style="stroke: #000000; stroke-width: 0.8"/>
      </g>
     </g>
     <g id="text_17">
      <!-- 3000 -->
      <g transform="translate(20.878125 29.225745) scale(0.1 -0.1)">
       <defs>
        <path id="DejaVuSans-33" d="M 2597 2516 
Q 3050 2419 3304 2112 
Q 3559 1806 3559 1356 
Q 3559 666 3084 287 
Q 2609 -91 1734 -91 
Q 1441 -91 1130 -33 
Q 819 25 488 141 
L 488 750 
Q 750 597 1062 519 
Q 1375 441 1716 441 
Q 2309 441 2620 675 
Q 2931 909 2931 1356 
Q 2931 1769 2642 2001 
Q 2353 2234 1838 2234 
L 1294 2234 
L 1294 2753 
L 1863 2753 
Q 2328 2753 2575 2939 
Q 2822 3125 2822 3475 
Q 2822 3834 2567 4026 
Q 2313 4219 1838 4219 
Q 1578 4219 1281 4162 
Q 984 4106 628 3988 
L 628 4550 
Q 988 4650 1302 4700 
Q 1616 4750 1894 4750 
Q 2613 4750 3031 4423 
Q 3450 4097 3450 3541 
Q 3450 3153 3228 2886 
Q 3006 2619 2597 2516 
z
" transform="scale(0.015625)"/>
       </defs>
       <use xlink:href="#DejaVuSans-33"/>
       <use xlink:href="#DejaVuSans-30" x="63.623047"/>
       <use xlink:href="#DejaVuSans-30" x="127.246094"/>
       <use xlink:href="#DejaVuSans-30" x="190.869141"/>
      </g>
     </g>
    </g>
    <g id="text_18">
     <!-- Number of entities in each compartment -->
     <g transform="translate(14.798438 242.356781) rotate(-90) scale(0.1 -0.1)">
      <defs>
       <path id="DejaVuSans-4e" d="M 628 4666 
L 1478 4666 
L 3547 763 
L 3547 4666 
L 4159 4666 
L 4159 0 
L 3309 0 
L 1241 3903 
L 1241 0 
L 628 0 
L 628 4666 
z
" transform="scale(0.015625)"/>
       <path id="DejaVuSans-75" d="M 544 1381 
L 544 3500 
L 1119 3500 
L 1119 1403 
Q 1119 906 1312 657 
Q 1506 409 1894 409 
Q 2359 409 2629 706 
Q 2900 1003 2900 1516 
L 2900 3500 
L 3475 3500 
L 3475 0 
L 2900 0 
L 2900 538 
Q 2691 219 2414 64 
Q 2138 -91 1772 -91 
Q 1169 -91 856 284 
Q 544 659 544 1381 
z
M 1991 3584 
L 1991 3584 
z
" transform="scale(0.015625)"/>
       <path id="DejaVuSans-62" d="M 3116 1747 
Q 3116 2381 2855 2742 
Q 2594 3103 2138 3103 
Q 1681 3103 1420 2742 
Q 1159 2381 1159 1747 
Q 1159 1113 1420 752 
Q 1681 391 2138 391 
Q 2594 391 2855 752 
Q 3116 1113 3116 1747 
z
M 1159 2969 
Q 1341 3281 1617 3432 
Q 1894 3584 2278 3584 
Q 2916 3584 3314 3078 
Q 3713 2572 3713 1747 
Q 3713 922 3314 415 
Q 2916 -91 2278 -91 
Q 1894 -91 1617 61 
Q 1341 213 1159 525 
L 1159 0 
L 581 0 
L 581 4863 
L 1159 4863 
L 1159 2969 
z
" transform="scale(0.015625)"/>
       <path id="DejaVuSans-72" d="M 2631 2963 
Q 2534 3019 2420 3045 
Q 2306 3072 2169 3072 
Q 1681 3072 1420 2755 
Q 1159 2438 1159 1844 
L 1159 0 
L 581 0 
L 581 3500 
L 1159 3500 
L 1159 2956 
Q 1341 3275 1631 3429 
Q 1922 3584 2338 3584 
Q 2397 3584 2469 3576 
Q 2541 3569 2628 3553 
L 2631 2963 
z
" transform="scale(0.015625)"/>
       <path id="DejaVuSans-20" transform="scale(0.015625)"/>
       <path id="DejaVuSans-6f" d="M 1959 3097 
Q 1497 3097 1228 2736 
Q 959 2375 959 1747 
Q 959 1119 1226 758 
Q 1494 397 1959 397 
Q 2419 397 2687 759 
Q 2956 1122 2956 1747 
Q 2956 2369 2687 2733 
Q 2419 3097 1959 3097 
z
M 1959 3584 
Q 2709 3584 3137 3096 
Q 3566 2609 3566 1747 
Q 3566 888 3137 398 
Q 2709 -91 1959 -91 
Q 1206 -91 779 398 
Q 353 888 353 1747 
Q 353 2609 779 3096 
Q 1206 3584 1959 3584 
z
" transform="scale(0.015625)"/>
       <path id="DejaVuSans-66" d="M 2375 4863 
L 2375 4384 
L 1825 4384 
Q 1516 4384 1395 4259 
Q 1275 4134 1275 3809 
L 1275 3500 
L 2222 3500 
L 2222 3053 
L 1275 3053 
L 1275 0 
L 697 0 
L 697 3053 
L 147 3053 
L 147 3500 
L 697 3500 
L 697 3744 
Q 697 4328 969 4595 
Q 1241 4863 1831 4863 
L 2375 4863 
z
" transform="scale(0.015625)"/>
       <path id="DejaVuSans-6e" d="M 3513 2113 
L 3513 0 
L 2938 0 
L 2938 2094 
Q 2938 2591 2744 2837 
Q 2550 3084 2163 3084 
Q 1697 3084 1428 2787 
Q 1159 2491 1159 1978 
L 1159 0 
L 581 0 
L 581 3500 
L 1159 3500 
L 1159 2956 
Q 1366 3272 1645 3428 
Q 1925 3584 2291 3584 
Q 2894 3584 3203 3211 
Q 3513 2838 3513 2113 
z
" transform="scale(0.015625)"/>
       <path id="DejaVuSans-74" d="M 1172 4494 
L 1172 3500 
L 2356 3500 
L 2356 3053 
L 1172 3053 
L 1172 1153 
Q 1172 725 1289 603 
Q 1406 481 1766 481 
L 2356 481 
L 2356 0 
L 1766 0 
Q 1100 0 847 248 
Q 594 497 594 1153 
L 594 3053 
L 172 3053 
L 172 3500 
L 594 3500 
L 594 4494 
L 1172 4494 
z
" transform="scale(0.015625)"/>
       <path id="DejaVuSans-73" d="M 2834 3397 
L 2834 2853 
Q 2591 2978 2328 3040 
Q 2066 3103 1784 3103 
Q 1356 3103 1142 2972 
Q 928 2841 928 2578 
Q 928 2378 1081 2264 
Q 1234 2150 1697 2047 
L 1894 2003 
Q 2506 1872 2764 1633 
Q 3022 1394 3022 966 
Q 3022 478 2636 193 
Q 2250 -91 1575 -91 
Q 1294 -91 989 -36 
Q 684 19 347 128 
L 347 722 
Q 666 556 975 473 
Q 1284 391 1588 391 
Q 1994 391 2212 530 
Q 2431 669 2431 922 
Q 2431 1156 2273 1281 
Q 2116 1406 1581 1522 
L 1381 1569 
Q 847 1681 609 1914 
Q 372 2147 372 2553 
Q 372 3047 722 3315 
Q 1072 3584 1716 3584 
Q 2034 3584 2315 3537 
Q 2597 3491 2834 3397 
z
" transform="scale(0.015625)"/>
       <path id="DejaVuSans-61" d="M 2194 1759 
Q 1497 1759 1228 1600 
Q 959 1441 959 1056 
Q 959 750 1161 570 
Q 1363 391 1709 391 
Q 2188 391 2477 730 
Q 2766 1069 2766 1631 
L 2766 1759 
L 2194 1759 
z
M 3341 1997 
L 3341 0 
L 2766 0 
L 2766 531 
Q 2569 213 2275 61 
Q 1981 -91 1556 -91 
Q 1019 -91 701 211 
Q 384 513 384 1019 
Q 384 1609 779 1909 
Q 1175 2209 1959 2209 
L 2766 2209 
L 2766 2266 
Q 2766 2663 2505 2880 
Q 2244 3097 1772 3097 
Q 1472 3097 1187 3025 
Q 903 2953 641 2809 
L 641 3341 
Q 956 3463 1253 3523 
Q 1550 3584 1831 3584 
Q 2591 3584 2966 3190 
Q 3341 2797 3341 1997 
z
" transform="scale(0.015625)"/>
       <path id="DejaVuSans-63" d="M 3122 3366 
L 3122 2828 
Q 2878 2963 2633 3030 
Q 2388 3097 2138 3097 
Q 1578 3097 1268 2742 
Q 959 2388 959 1747 
Q 959 1106 1268 751 
Q 1578 397 2138 397 
Q 2388 397 2633 464 
Q 2878 531 3122 666 
L 3122 134 
Q 2881 22 2623 -34 
Q 2366 -91 2075 -91 
Q 1284 -91 818 406 
Q 353 903 353 1747 
Q 353 2603 823 3093 
Q 1294 3584 2113 3584 
Q 2378 3584 2631 3529 
Q 2884 3475 3122 3366 
z
" transform="scale(0.015625)"/>
       <path id="DejaVuSans-68" d="M 3513 2113 
L 3513 0 
L 2938 0 
L 2938 2094 
Q 2938 2591 2744 2837 
Q 2550 3084 2163 3084 
Q 1697 3084 1428 2787 
Q 1159 2491 1159 1978 
L 1159 0 
L 581 0 
L 581 4863 
L 1159 4863 
L 1159 2956 
Q 1366 3272 1645 3428 
Q 1925 3584 2291 3584 
Q 2894 3584 3203 3211 
Q 3513 2838 3513 2113 
z
" transform="scale(0.015625)"/>
       <path id="DejaVuSans-70" d="M 1159 525 
L 1159 -1331 
L 581 -1331 
L 581 3500 
L 1159 3500 
L 1159 2969 
Q 1341 3281 1617 3432 
Q 1894 3584 2278 3584 
Q 2916 3584 3314 3078 
Q 3713 2572 3713 1747 
Q 3713 922 3314 415 
Q 2916 -91 2278 -91 
Q 1894 -91 1617 61 
Q 1341 213 1159 525 
z
M 3116 1747 
Q 3116 2381 2855 2742 
Q 2594 3103 2138 3103 
Q 1681 3103 1420 2742 
Q 1159 2381 1159 1747 
Q 1159 1113 1420 752 
Q 1681 391 2138 391 
Q 2594 391 2855 752 
Q 3116 1113 3116 1747 
z
" transform="scale(0.015625)"/>
      </defs>
      <use xlink:href="#DejaVuSans-4e"/>
      <use xlink:href="#DejaVuSans-75" x="74.804688"/>
      <use xlink:href="#DejaVuSans-6d" x="138.183594"/>
      <use xlink:href="#DejaVuSans-62" x="235.595703"/>
      <use xlink:href="#DejaVuSans-65" x="299.072266"/>
      <use xlink:href="#DejaVuSans-72" x="360.595703"/>
      <use xlink:href="#DejaVuSans-20" x="401.708984"/>
      <use xlink:href="#DejaVuSans-6f" x="433.496094"/>
      <use xlink:href="#DejaVuSans-66" x="494.677734"/>
      <use xlink:href="#DejaVuSans-20" x="529.882812"/>
      <use xlink:href="#DejaVuSans-65" x="561.669922"/>
      <use xlink:href="#DejaVuSans-6e" x="623.193359"/>
      <use xlink:href="#DejaVuSans-74" x="686.572266"/>
      <use xlink:href="#DejaVuSans-69" x="725.78125"/>
      <use xlink:href="#DejaVuSans-74" x="753.564453"/>
      <use xlink:href="#DejaVuSans-69" x="792.773438"/>
      <use xlink:href="#DejaVuSans-65" x="820.556641"/>
      <use xlink:href="#DejaVuSans-73" x="882.080078"/>
      <use xlink:href="#DejaVuSans-20" x="934.179688"/>
      <use xlink:href="#DejaVuSans-69" x="965.966797"/>
      <use xlink:href="#DejaVuSans-6e" x="993.75"/>
      <use xlink:href="#DejaVuSans-20" x="1057.128906"/>
      <use xlink:href="#DejaVuSans-65" x="1088.916016"/>
      <use xlink:href="#DejaVuSans-61" x="1150.439453"/>
      <use xlink:href="#DejaVuSans-63" x="1211.71875"/>
      <use xlink:href="#DejaVuSans-68" x="1266.699219"/>
      <use xlink:href="#DejaVuSans-20" x="1330.078125"/>
      <use xlink:href="#DejaVuSans-63" x="1361.865234"/>
      <use xlink:href="#DejaVuSans-6f" x="1416.845703"/>
      <use xlink:href="#DejaVuSans-6d" x="1478.027344"/>
      <use xlink:href="#DejaVuSans-70" x="1575.439453"/>
      <use xlink:href="#DejaVuSans-61" x="1638.916016"/>
      <use xlink:href="#DejaVuSans-72" x="1700.195312"/>
      <use xlink:href="#DejaVuSans-74" x="1741.308594"/>
      <use xlink:href="#DejaVuSans-6d" x="1780.517578"/>
      <use xlink:href="#DejaVuSans-65" x="1877.929688"/>
      <use xlink:href="#DejaVuSans-6e" x="1939.453125"/>
      <use xlink:href="#DejaVuSans-74" x="2002.832031"/>
     </g>
    </g>
   </g>
   <g id="line2d_17">
    <path d="M 69.560852 261.216 
L 71.192282 254.299509 
L 72.823712 246.754246 
L 74.455142 238.423018 
L 76.086572 232.056702 
L 77.718002 223.646877 
L 79.349432 217.123368 
L 80.980861 209.420912 
L 85.875151 189.693193 
L 87.506581 185.213193 
L 90.769441 172.794947 
L 94.0323 162.813193 
L 95.66373 160.848281 
L 97.29516 156.368281 
L 98.92659 150.866526 
L 102.18945 141.59214 
L 103.82088 138.212491 
L 105.45231 135.147228 
L 107.083739 132.474947 
L 108.715169 129.252491 
L 110.346599 125.322667 
L 111.978029 122.021614 
L 113.609459 118.013193 
L 116.872319 110.546526 
L 118.503749 107.638456 
L 120.135178 105.437754 
L 121.766608 103.787228 
L 123.398038 100.564772 
L 125.029468 98.835649 
L 126.660898 95.927579 
L 128.292328 93.648281 
L 129.923758 92.076351 
L 131.555188 88.303719 
L 134.818047 85.002667 
L 136.449477 82.016 
L 138.080907 81.544421 
L 139.712337 79.893895 
L 141.343767 78.950737 
L 142.975197 76.121263 
L 144.606627 75.806877 
L 146.238056 74.785123 
L 147.869486 72.270035 
L 151.132346 67.711439 
L 152.763776 64.567579 
L 154.395206 64.410386 
L 156.026636 62.131088 
L 157.658066 59.458807 
L 159.289495 58.27986 
L 160.920925 56.079158 
L 162.552355 55.764772 
L 164.183785 54.585825 
L 167.446645 51.206175 
L 169.078075 51.756351 
L 170.709505 50.891789 
L 172.340935 48.140912 
L 173.972364 47.983719 
L 175.603794 47.276351 
L 177.235224 47.74793 
L 178.866654 49.31986 
L 180.498084 50.341614 
L 183.760944 48.691088 
L 185.392374 47.040561 
L 187.023803 45.783018 
L 188.655233 46.490386 
L 190.286663 45.704421 
L 191.918093 46.333193 
L 193.549523 45.940211 
L 195.180953 42.953544 
L 196.812383 44.761263 
L 198.443813 43.818105 
L 200.075242 43.975298 
L 201.706672 41.853193 
L 203.338102 40.831439 
L 204.969532 41.381614 
L 206.600962 41.067228 
L 208.232392 40.202667 
L 211.495252 38.866526 
L 213.126681 39.495298 
L 214.758111 40.517053 
L 216.389541 40.438456 
L 219.652401 40.831439 
L 221.283831 39.652491 
L 224.546691 38.78793 
L 229.44098 36.508632 
L 231.07241 36.272842 
L 232.70384 35.093895 
L 234.33527 33.443368 
L 235.9667 33.679158 
L 237.59813 33.364772 
L 239.229559 34.386526 
L 240.860989 32.814596 
L 242.492419 33.207579 
L 244.123849 32.736 
L 245.755279 33.286175 
L 247.386709 35.722667 
L 249.018139 34.30793 
L 250.649569 32.421614 
L 252.280998 32.185825 
L 253.912428 31.39986 
L 255.543858 31.478456 
L 257.175288 30.928281 
L 260.438148 34.858105 
L 262.069578 34.229333 
L 263.701008 34.543719 
L 265.332437 31.871439 
L 266.963867 30.378105 
L 268.595297 30.220912 
L 270.226727 30.299509 
L 271.858157 30.142316 
L 275.121017 31.950035 
L 276.752447 32.578807 
L 278.383876 32.736 
L 280.015306 30.692491 
L 281.646736 28.963368 
L 283.278166 28.648982 
L 284.909596 27.234246 
L 286.541026 26.212491 
L 288.172456 24.011789 
L 289.803886 24.247579 
L 291.435315 21.889684 
L 293.066745 22.20407 
L 294.698175 21.575298 
L 296.329605 23.697404 
L 301.223895 22.125474 
L 302.855325 22.754246 
L 304.486755 22.282667 
L 306.118184 23.068632 
L 307.749614 25.11214 
L 309.381044 26.212491 
L 311.012474 27.077053 
L 312.643904 27.470035 
L 314.275334 25.11214 
L 315.906764 26.055298 
L 317.538194 26.841263 
L 319.169623 25.190737 
L 320.801053 24.404772 
L 322.432483 24.404772 
L 325.695343 23.304421 
L 327.326773 21.418105 
L 328.958203 20.239158 
L 330.589633 20.474947 
L 332.221062 20.553544 
L 333.852492 20.003368 
L 335.483922 21.575298 
L 337.115352 21.339509 
L 338.746782 20.396351 
L 340.378212 19.296 
L 342.009642 20.710737 
L 343.641072 20.160561 
L 345.272501 21.103719 
L 346.903931 22.832842 
L 348.535361 23.461614 
L 350.166791 23.383018 
L 351.798221 24.640561 
L 353.429651 25.033544 
L 355.061081 27.155649 
L 356.692511 27.391439 
L 358.32394 28.648982 
L 361.5868 25.34793 
L 363.21823 24.247579 
L 364.84966 23.618807 
L 366.48109 22.832842 
L 368.11252 23.776 
L 369.74395 23.304421 
L 371.375379 21.496702 
L 373.006809 23.933193 
L 374.638239 23.854596 
L 376.269669 22.046877 
L 377.901099 22.282667 
L 379.532529 20.396351 
L 381.163959 21.496702 
L 382.795389 21.496702 
L 384.426818 22.046877 
L 386.058248 21.103719 
L 387.689678 21.732491 
L 389.321108 22.518456 
L 390.952538 22.911439 
L 394.215398 21.811088 
L 394.215398 21.811088 
" clip-path="url(#pdd45527c11)" style="fill: none; stroke: #1f77b4; stroke-width: 1.5; stroke-linecap: square"/>
   </g>
   <g id="line2d_18">
    <path d="M 69.560852 261.216 
L 71.192282 260.980211 
L 72.823712 260.901614 
L 74.455142 260.351439 
L 76.086572 259.64407 
L 77.718002 259.172491 
L 79.349432 258.07214 
L 80.980861 256.736 
L 82.612291 255.085474 
L 84.243721 253.670737 
L 87.506581 250.448281 
L 89.138011 248.011789 
L 90.769441 246.20407 
L 92.400871 243.688982 
L 94.0323 242.588632 
L 95.66373 239.444772 
L 97.29516 237.008281 
L 98.92659 235.043368 
L 100.55802 234.021614 
L 102.18945 230.799158 
L 103.82088 228.126877 
L 105.45231 226.633544 
L 107.083739 223.961263 
L 108.715169 222.074947 
L 110.346599 221.681965 
L 111.978029 219.717053 
L 113.609459 216.573193 
L 118.503749 211.543018 
L 120.135178 209.02793 
L 121.766608 207.141614 
L 123.398038 206.748632 
L 125.029468 204.705123 
L 126.660898 201.482667 
L 128.292328 199.439158 
L 129.923758 196.216702 
L 131.555188 195.666526 
L 133.186617 194.644772 
L 134.818047 192.129684 
L 136.449477 191.265123 
L 138.080907 188.435649 
L 139.712337 188.121263 
L 141.343767 184.505825 
L 142.975197 184.270035 
L 144.606627 182.776702 
L 146.238056 181.047579 
L 147.869486 179.632842 
L 149.500916 180.340211 
L 151.132346 179.868632 
L 152.763776 179.161263 
L 154.395206 176.410386 
L 156.026636 175.231439 
L 157.658066 175.074246 
L 159.289495 173.659509 
L 160.920925 174.288281 
L 162.552355 173.580912 
L 164.183785 173.345123 
L 165.815215 171.458807 
L 167.446645 169.808281 
L 169.078075 168.550737 
L 170.709505 167.450386 
L 172.340935 168.629333 
L 173.972364 169.022316 
L 175.603794 167.686175 
L 177.235224 165.328281 
L 178.866654 162.656 
L 182.129514 162.105825 
L 183.760944 160.612491 
L 185.392374 161.08407 
L 187.023803 160.691088 
L 188.655233 159.74793 
L 191.918093 158.726175 
L 193.549523 158.961965 
L 195.180953 158.726175 
L 196.812383 157.311439 
L 198.443813 158.254596 
L 200.075242 156.525474 
L 201.706672 155.346526 
L 203.338102 155.503719 
L 204.969532 155.03214 
L 206.600962 154.953544 
L 208.232392 155.818105 
L 209.863822 155.425123 
L 211.495252 154.874947 
L 213.126681 155.03214 
L 214.758111 154.324772 
L 216.389541 156.289684 
L 218.020971 155.660912 
L 219.652401 157.075649 
L 221.283831 156.997053 
L 222.915261 155.818105 
L 224.546691 156.053895 
L 226.17812 156.525474 
L 227.80955 157.861614 
L 229.44098 157.861614 
L 231.07241 157.232842 
L 232.70384 157.232842 
L 234.33527 157.704421 
L 235.9667 157.154246 
L 237.59813 155.739509 
L 239.229559 155.189333 
L 240.860989 155.975298 
L 242.492419 155.110737 
L 244.123849 153.617404 
L 245.755279 153.774596 
L 247.386709 150.630737 
L 249.018139 151.259509 
L 250.649569 151.731088 
L 252.280998 151.416702 
L 253.912428 152.595649 
L 255.543858 151.966877 
L 257.175288 152.045474 
L 258.806718 152.35986 
L 260.438148 150.080561 
L 262.069578 149.923368 
L 263.701008 151.102316 
L 265.332437 153.145825 
L 266.963867 154.403368 
L 268.595297 154.246175 
L 270.226727 155.346526 
L 271.858157 154.481965 
L 273.489587 152.438456 
L 275.121017 152.045474 
L 278.383876 152.752842 
L 280.015306 152.831439 
L 281.646736 151.180912 
L 284.909596 151.416702 
L 286.541026 152.438456 
L 288.172456 153.696 
L 289.803886 155.818105 
L 291.435315 156.132491 
L 293.066745 155.582316 
L 294.698175 153.538807 
L 296.329605 151.259509 
L 297.961035 151.180912 
L 299.592465 150.866526 
L 301.223895 151.888281 
L 302.855325 150.630737 
L 304.486755 150.709333 
L 306.118184 148.115649 
L 307.749614 147.093895 
L 309.381044 147.251088 
L 311.012474 145.993544 
L 312.643904 147.958456 
L 314.275334 150.159158 
L 315.906764 149.058807 
L 317.538194 149.530386 
L 319.169623 148.115649 
L 320.801053 149.373193 
L 322.432483 149.766175 
L 324.063913 150.78793 
L 325.695343 150.394947 
L 327.326773 151.966877 
L 328.958203 152.35986 
L 330.589633 152.595649 
L 332.221062 153.145825 
L 333.852492 152.910035 
L 335.483922 151.809684 
L 337.115352 151.338105 
L 338.746782 151.180912 
L 340.378212 152.045474 
L 342.009642 149.844772 
L 343.641072 151.731088 
L 345.272501 151.338105 
L 346.903931 149.923368 
L 348.535361 148.115649 
L 350.166791 148.508632 
L 351.798221 147.87986 
L 353.429651 145.914947 
L 355.061081 144.421614 
L 356.692511 144.971789 
L 358.32394 143.635649 
L 359.95537 145.128982 
L 361.5868 145.993544 
L 363.21823 147.64407 
L 364.84966 148.272842 
L 366.48109 149.137404 
L 368.11252 147.172491 
L 369.74395 147.015298 
L 371.375379 147.172491 
L 373.006809 144.893193 
L 374.638239 144.578807 
L 376.269669 145.836351 
L 377.901099 146.30793 
L 379.532529 146.386526 
L 382.795389 144.657404 
L 384.426818 144.343018 
L 386.058248 144.971789 
L 387.689678 144.264421 
L 389.321108 144.578807 
L 390.952538 145.207579 
L 392.583968 145.128982 
L 394.215398 145.836351 
L 394.215398 145.836351 
" clip-path="url(#pdd45527c11)" style="fill: none; stroke: #ff7f0e; stroke-width: 1.5; stroke-linecap: square"/>
   </g>
   <g id="patch_3">
    <path d="M 53.328125 273.312 
L 53.328125 7.2 
" style="fill: none; stroke: #000000; stroke-width: 0.8; stroke-linejoin: miter; stroke-linecap: square"/>
   </g>
   <g id="patch_4">
    <path d="M 410.448125 273.312 
L 410.448125 7.2 
" style="fill: none; stroke: #000000; stroke-width: 0.8; stroke-linejoin: miter; stroke-linecap: square"/>
   </g>
   <g id="patch_5">
    <path d="M 53.328125 273.312 
L 410.448125 273.312 
" style="fill: none; stroke: #000000; stroke-width: 0.8; stroke-linejoin: miter; stroke-linecap: square"/>
   </g>
   <g id="patch_6">
    <path d="M 53.328125 7.2 
L 410.448125 7.2 
" style="fill: none; stroke: #000000; stroke-width: 0.8; stroke-linejoin: miter; stroke-linecap: square"/>
   </g>
  </g>
 </g>
 <defs>
  <clipPath id="pdd45527c11">
   <rect x="53.328125" y="7.2" width="357.12" height="266.112"/>
  </clipPath>
 </defs>
</svg>
