<?xml version="1.0" encoding="utf-8" standalone="no"?>
<!DOCTYPE svg PUBLIC "-//W3C//DTD SVG 1.1//EN"
  "http://www.w3.org/Graphics/SVG/1.1/DTD/svg11.dtd">
<svg xmlns:xlink="http://www.w3.org/1999/xlink" width="458.521425pt" height="325.986375pt" viewBox="0 0 458.521425 325.986375" xmlns="http://www.w3.org/2000/svg" version="1.1">
 <metadata>
  <rdf:RDF xmlns:dc="http://purl.org/dc/elements/1.1/" xmlns:cc="http://creativecommons.org/ns#" xmlns:rdf="http://www.w3.org/1999/02/22-rdf-syntax-ns#">
   <cc:Work>
    <dc:type rdf:resource="http://purl.org/dc/dcmitype/StillImage"/>
    <dc:date>2026-01-28T01:14:08.149809</dc:date>
    <dc:format>image/svg+xml</dc:format>
    <dc:creator>
     <cc:Agent>
      <dc:title>Matplotlib v3.10.8, https://matplotlib.org/</dc:title>
     </cc:Agent>
    </dc:creator>
   </cc:Work>
  </rdf:RDF>
 </metadata>
 <defs>
  <style type="text/css">*{stroke-linejoin: round; stroke-linecap: butt}</style>
 </defs>
 <g id="figure_1">
  <g id="patch_1">
   <path d="M 0 325.986375 
L 458.521425 325.986375 
L 458.521425 0 
L 0 0 
L 0 325.986375 
z
" style="fill: none; opacity: 0"/>
  </g>
  <g id="axes_1">
   <g id="patch_2">
    <path d="M 63.064063 288.430125 
L 348.760063 288.430125 
L 348.760063 22.318125 
L 63.064063 22.318125 
L 63.064063 288.430125 
z
" style="fill: none; opacity: 0"/>
   </g>
   <g id="matplotlib.axis_1">
    <g id="xtick_1">
     <g id="line2d_1">
      <defs>
       <path id="maef3919711" d="M 0 0 
L 0 3.5 
" style="stroke: #000000; stroke-width: 0.8"/>
      </defs>
      <g>
       <use xlink:href="#maef3919711" x="85.61901" y="288.430125" style="stroke: #000000; stroke-width: 0.8"/>
      </g>
     </g>
     <g id="text_1">
      <!-- 2017.5 -->
      <g transform="translate(68.123697 303.028562) scale(0.1 -0.1)">
       <defs>
        <path id="DejaVuSans-32" d="M 1228 531 
L 3431 531 
L 3431 0 
L 469 0 
L 469 531 
Q 828 903 1448 1529 
Q 2069 2156 2228 2338 
Q 2531 2678 2651 2914 
Q 2772 3150 2772 3378 
Q 2772 3750 2511 3984 
Q 2250 4219 1831 4219 
Q 1534 4219 1204 4116 
Q 875 4013 500 3803 
L 500 4441 
Q 881 4594 1212 4672 
Q 1544 4750 1819 4750 
Q 2544 4750 2975 4387 
Q 3406 4025 3406 3419 
Q 3406 3131 3298 2873 
Q 3191 2616 2906 2266 
Q 2828 2175 2409 1742 
Q 1991 1309 1228 531 
z
" transform="scale(0.015625)"/>
        <path id="DejaVuSans-30" d="M 2034 4250 
Q 1547 4250 1301 3770 
Q 1056 3291 1056 2328 
Q 1056 1369 1301 889 
Q 1547 409 2034 409 
Q 2525 409 2770 889 
Q 3016 1369 3016 2328 
Q 3016 3291 2770 3770 
Q 2525 4250 2034 4250 
z
M 2034 4750 
Q 2819 4750 3233 4129 
Q 3647 3509 3647 2328 
Q 3647 1150 3233 529 
Q 2819 -91 2034 -91 
Q 1250 -91 836 529 
Q 422 1150 422 2328 
Q 422 3509 836 4129 
Q 1250 4750 2034 4750 
z
" transform="scale(0.015625)"/>
        <path id="DejaVuSans-31" d="M 794 531 
L 1825 531 
L 1825 4091 
L 703 3866 
L 703 4441 
L 1819 4666 
L 2450 4666 
L 2450 531 
L 3481 531 
L 3481 0 
L 794 0 
L 794 531 
z
" transform="scale(0.015625)"/>
        <path id="DejaVuSans-37" d="M 525 4666 
L 3525 4666 
L 3525 4397 
L 1831 0 
L 1172 0 
L 2766 4134 
L 525 4134 
L 525 4666 
z
" transform="scale(0.015625)"/>
        <path id="DejaVuSans-2e" d="M 684 794 
L 1344 794 
L 1344 0 
L 684 0 
L 684 794 
z
" transform="scale(0.015625)"/>
        <path id="DejaVuSans-35" d="M 691 4666 
L 3169 4666 
L 3169 4134 
L 1269 4134 
L 1269 2991 
Q 1406 3038 1543 3061 
Q 1681 3084 1819 3084 
Q 2600 3084 3056 2656 
Q 3513 2228 3513 1497 
Q 3513 744 3044 326 
Q 2575 -91 1722 -91 
Q 1428 -91 1123 -41 
Q 819 9 494 109 
L 494 744 
Q 775 591 1075 516 
Q 1375 441 1709 441 
Q 2250 441 2565 725 
Q 2881 1009 2881 1497 
Q 2881 1984 2565 2268 
Q 2250 2553 1709 2553 
Q 1456 2553 1204 2497 
Q 953 2441 691 2322 
L 691 4666 
z
" transform="scale(0.015625)"/>
       </defs>
       <use xlink:href="#DejaVuSans-32"/>
       <use xlink:href="#DejaVuSans-30" transform="translate(63.623047 0)"/>
       <use xlink:href="#DejaVuSans-31" transform="translate(127.246094 0)"/>
       <use xlink:href="#DejaVuSans-37" transform="translate(190.869141 0)"/>
       <use xlink:href="#DejaVuSans-2e" transform="translate(254.492188 0)"/>
       <use xlink:href="#DejaVuSans-35" transform="translate(286.279297 0)"/>
      </g>
     </g>
    </g>
    <g id="xtick_2">
     <g id="line2d_2">
      <g>
       <use xlink:href="#maef3919711" x="123.210589" y="288.430125" style="stroke: #000000; stroke-width: 0.8"/>
      </g>
     </g>
     <g id="text_2">
      <!-- 2020.0 -->
      <g transform="translate(105.715276 303.028562) scale(0.1 -0.1)">
       <use xlink:href="#DejaVuSans-32"/>
       <use xlink:href="#DejaVuSans-30" transform="translate(63.623047 0)"/>
       <use xlink:href="#DejaVuSans-32" transform="translate(127.246094 0)"/>
       <use xlink:href="#DejaVuSans-30" transform="translate(190.869141 0)"/>
       <use xlink:href="#DejaVuSans-2e" transform="translate(254.492188 0)"/>
       <use xlink:href="#DejaVuSans-30" transform="translate(286.279297 0)"/>
      </g>
     </g>
    </g>
    <g id="xtick_3">
     <g id="line2d_3">
      <g>
       <use xlink:href="#maef3919711" x="160.802168" y="288.430125" style="stroke: #000000; stroke-width: 0.8"/>
      </g>
     </g>
     <g id="text_3">
      <!-- 2022.5 -->
      <g transform="translate(143.306855 303.028562) scale(0.1 -0.1)">
       <use xlink:href="#DejaVuSans-32"/>
       <use xlink:href="#DejaVuSans-30" transform="translate(63.623047 0)"/>
       <use xlink:href="#DejaVuSans-32" transform="translate(127.246094 0)"/>
       <use xlink:href="#DejaVuSans-32" transform="translate(190.869141 0)"/>
       <use xlink:href="#DejaVuSans-2e" transform="translate(254.492188 0)"/>
       <use xlink:href="#DejaVuSans-35" transform="translate(286.279297 0)"/>
      </g>
     </g>
    </g>
    <g id="xtick_4">
     <g id="line2d_4">
      <g>
       <use xlink:href="#maef3919711" x="198.393747" y="288.430125" style="stroke: #000000; stroke-width: 0.8"/>
      </g>
     </g>
     <g id="text_4">
      <!-- 2025.0 -->
      <g transform="translate(180.898434 303.028562) scale(0.1 -0.1)">
       <use xlink:href="#DejaVuSans-32"/>
       <use xlink:href="#DejaVuSans-30" transform="translate(63.623047 0)"/>
       <use xlink:href="#DejaVuSans-32" transform="translate(127.246094 0)"/>
       <use xlink:href="#DejaVuSans-35" transform="translate(190.869141 0)"/>
       <use xlink:href="#DejaVuSans-2e" transform="translate(254.492188 0)"/>
       <use xlink:href="#DejaVuSans-30" transform="translate(286.279297 0)"/>
      </g>
     </g>
    </g>
    <g id="xtick_5">
     <g id="line2d_5">
      <g>
       <use xlink:href="#maef3919711" x="235.985326" y="288.430125" style="stroke: #000000; stroke-width: 0.8"/>
      </g>
     </g>
     <g id="text_5">
      <!-- 2027.5 -->
      <g transform="translate(218.490013 303.028562) scale(0.1 -0.1)">
       <use xlink:href="#DejaVuSans-32"/>
       <use xlink:href="#DejaVuSans-30" transform="translate(63.623047 0)"/>
       <use xlink:href="#DejaVuSans-32" transform="translate(127.246094 0)"/>
       <use xlink:href="#DejaVuSans-37" transform="translate(190.869141 0)"/>
       <use xlink:href="#DejaVuSans-2e" transform="translate(254.492188 0)"/>
       <use xlink:href="#DejaVuSans-35" transform="translate(286.279297 0)"/>
      </g>
     </g>
    </g>
    <g id="xtick_6">
     <g id="line2d_6">
      <g>
       <use xlink:href="#maef3919711" x="273.576905" y="288.430125" style="stroke: #000000; stroke-width: 0.8"/>
      </g>
     </g>
     <g id="text_6">
      <!-- 2030.0 -->
      <g transform="translate(256.081592 303.028562) scale(0.1 -0.1)">
       <defs>
        <path id="DejaVuSans-33" d="M 2597 2516 
Q 3050 2419 3304 2112 
Q 3559 1806 3559 1356 
Q 3559 666 3084 287 
Q 2609 -91 1734 -91 
Q 1441 -91 1130 -33 
Q 819 25 488 141 
L 488 750 
Q 750 597 1062 519 
Q 1375 441 1716 441 
Q 2309 441 2620 675 
Q 2931 909 2931 1356 
Q 2931 1769 2642 2001 
Q 2353 2234 1838 2234 
L 1294 2234 
L 1294 2753 
L 1863 2753 
Q 2328 2753 2575 2939 
Q 2822 3125 2822 3475 
Q 2822 3834 2567 4026 
Q 2313 4219 1838 4219 
Q 1578 4219 1281 4162 
Q 984 4106 628 3988 
L 628 4550 
Q 988 4650 1302 4700 
Q 1616 4750 1894 4750 
Q 2613 4750 3031 4423 
Q 3450 4097 3450 3541 
Q 3450 3153 3228 2886 
Q 3006 2619 2597 2516 
z
" transform="scale(0.015625)"/>
       </defs>
       <use xlink:href="#DejaVuSans-32"/>
       <use xlink:href="#DejaVuSans-30" transform="translate(63.623047 0)"/>
       <use xlink:href="#DejaVuSans-33" transform="translate(127.246094 0)"/>
       <use xlink:href="#DejaVuSans-30" transform="translate(190.869141 0)"/>
       <use xlink:href="#DejaVuSans-2e" transform="translate(254.492188 0)"/>
       <use xlink:href="#DejaVuSans-30" transform="translate(286.279297 0)"/>
      </g>
     </g>
    </g>
    <g id="xtick_7">
     <g id="line2d_7">
      <g>
       <use xlink:href="#maef3919711" x="311.168484" y="288.430125" style="stroke: #000000; stroke-width: 0.8"/>
      </g>
     </g>
     <g id="text_7">
      <!-- 2032.5 -->
      <g transform="translate(293.673171 303.028562) scale(0.1 -0.1)">
       <use xlink:href="#DejaVuSans-32"/>
       <use xlink:href="#DejaVuSans-30" transform="translate(63.623047 0)"/>
       <use xlink:href="#DejaVuSans-33" transform="translate(127.246094 0)"/>
       <use xlink:href="#DejaVuSans-32" transform="translate(190.869141 0)"/>
       <use xlink:href="#DejaVuSans-2e" transform="translate(254.492188 0)"/>
       <use xlink:href="#DejaVuSans-35" transform="translate(286.279297 0)"/>
      </g>
     </g>
    </g>
    <g id="xtick_8">
     <g id="line2d_8">
      <g>
       <use xlink:href="#maef3919711" x="348.760063" y="288.430125" style="stroke: #000000; stroke-width: 0.8"/>
      </g>
     </g>
     <g id="text_8">
      <!-- 2035.0 -->
      <g transform="translate(331.26475 303.028562) scale(0.1 -0.1)">
       <use xlink:href="#DejaVuSans-32"/>
       <use xlink:href="#DejaVuSans-30" transform="translate(63.623047 0)"/>
       <use xlink:href="#DejaVuSans-33" transform="translate(127.246094 0)"/>
       <use xlink:href="#DejaVuSans-35" transform="translate(190.869141 0)"/>
       <use xlink:href="#DejaVuSans-2e" transform="translate(254.492188 0)"/>
       <use xlink:href="#DejaVuSans-30" transform="translate(286.279297 0)"/>
      </g>
     </g>
    </g>
    <g id="text_9">
     <!-- Year -->
     <g transform="translate(195.324563 316.706687) scale(0.1 -0.1)">
      <defs>
       <path id="DejaVuSans-59" d="M -13 4666 
L 666 4666 
L 1959 2747 
L 3244 4666 
L 3922 4666 
L 2272 2222 
L 2272 0 
L 1638 0 
L 1638 2222 
L -13 4666 
z
" transform="scale(0.015625)"/>
       <path id="DejaVuSans-65" d="M 3597 1894 
L 3597 1613 
L 953 1613 
Q 991 1019 1311 708 
Q 1631 397 2203 397 
Q 2534 397 2845 478 
Q 3156 559 3463 722 
L 3463 178 
Q 3153 47 2828 -22 
Q 2503 -91 2169 -91 
Q 1331 -91 842 396 
Q 353 884 353 1716 
Q 353 2575 817 3079 
Q 1281 3584 2069 3584 
Q 2775 3584 3186 3129 
Q 3597 2675 3597 1894 
z
M 3022 2063 
Q 3016 2534 2758 2815 
Q 2500 3097 2075 3097 
Q 1594 3097 1305 2825 
Q 1016 2553 972 2059 
L 3022 2063 
z
" transform="scale(0.015625)"/>
       <path id="DejaVuSans-61" d="M 2194 1759 
Q 1497 1759 1228 1600 
Q 959 1441 959 1056 
Q 959 750 1161 570 
Q 1363 391 1709 391 
Q 2188 391 2477 730 
Q 2766 1069 2766 1631 
L 2766 1759 
L 2194 1759 
z
M 3341 1997 
L 3341 0 
L 2766 0 
L 2766 531 
Q 2569 213 2275 61 
Q 1981 -91 1556 -91 
Q 1019 -91 701 211 
Q 384 513 384 1019 
Q 384 1609 779 1909 
Q 1175 2209 1959 2209 
L 2766 2209 
L 2766 2266 
Q 2766 2663 2505 2880 
Q 2244 3097 1772 3097 
Q 1472 3097 1187 3025 
Q 903 2953 641 2809 
L 641 3341 
Q 956 3463 1253 3523 
Q 1550 3584 1831 3584 
Q 2591 3584 2966 3190 
Q 3341 2797 3341 1997 
z
" transform="scale(0.015625)"/>
       <path id="DejaVuSans-72" d="M 2631 2963 
Q 2534 3019 2420 3045 
Q 2306 3072 2169 3072 
Q 1681 3072 1420 2755 
Q 1159 2438 1159 1844 
L 1159 0 
L 581 0 
L 581 3500 
L 1159 3500 
L 1159 2956 
Q 1341 3275 1631 3429 
Q 1922 3584 2338 3584 
Q 2397 3584 2469 3576 
Q 2541 3569 2628 3553 
L 2631 2963 
z
" transform="scale(0.015625)"/>
      </defs>
      <use xlink:href="#DejaVuSans-59"/>
      <use xlink:href="#DejaVuSans-65" transform="translate(47.833984 0)"/>
      <use xlink:href="#DejaVuSans-61" transform="translate(109.357422 0)"/>
      <use xlink:href="#DejaVuSans-72" transform="translate(170.636719 0)"/>
     </g>
    </g>
   </g>
   <g id="matplotlib.axis_2">
    <g id="ytick_1">
     <g id="line2d_9">
      <defs>
       <path id="m6f52d21179" d="M 0 0 
L -3.5 0 
" style="stroke: #000000; stroke-width: 0.8"/>
      </defs>
      <g>
       <use xlink:href="#m6f52d21179" x="63.064063" y="288.430125" style="stroke: #000000; stroke-width: 0.8"/>
      </g>
     </g>
     <g id="text_10">
      <!-- 0 -->
      <g transform="translate(49.701563 292.229344) scale(0.1 -0.1)">
       <use xlink:href="#DejaVuSans-30"/>
      </g>
     </g>
    </g>
    <g id="ytick_2">
     <g id="line2d_10">
      <g>
       <use xlink:href="#m6f52d21179" x="63.064063" y="251.420848" style="stroke: #000000; stroke-width: 0.8"/>
      </g>
     </g>
     <g id="text_11">
      <!-- 100.0K -->
      <g transform="translate(20.878125 255.220067) scale(0.1 -0.1)">
       <defs>
        <path id="DejaVuSans-4b" d="M 628 4666 
L 1259 4666 
L 1259 2694 
L 3353 4666 
L 4166 4666 
L 1850 2491 
L 4331 0 
L 3500 0 
L 1259 2247 
L 1259 0 
L 628 0 
L 628 4666 
z
" transform="scale(0.015625)"/>
       </defs>
       <use xlink:href="#DejaVuSans-31"/>
       <use xlink:href="#DejaVuSans-30" transform="translate(63.623047 0)"/>
       <use xlink:href="#DejaVuSans-30" transform="translate(127.246094 0)"/>
       <use xlink:href="#DejaVuSans-2e" transform="translate(190.869141 0)"/>
       <use xlink:href="#DejaVuSans-30" transform="translate(222.65625 0)"/>
       <use xlink:href="#DejaVuSans-4b" transform="translate(286.279297 0)"/>
      </g>
     </g>
    </g>
    <g id="ytick_3">
     <g id="line2d_11">
      <g>
       <use xlink:href="#m6f52d21179" x="63.064063" y="214.411572" style="stroke: #000000; stroke-width: 0.8"/>
      </g>
     </g>
     <g id="text_12">
      <!-- 200.0K -->
      <g transform="translate(20.878125 218.210791) scale(0.1 -0.1)">
       <use xlink:href="#DejaVuSans-32"/>
       <use xlink:href="#DejaVuSans-30" transform="translate(63.623047 0)"/>
       <use xlink:href="#DejaVuSans-30" transform="translate(127.246094 0)"/>
       <use xlink:href="#DejaVuSans-2e" transform="translate(190.869141 0)"/>
       <use xlink:href="#DejaVuSans-30" transform="translate(222.65625 0)"/>
       <use xlink:href="#DejaVuSans-4b" transform="translate(286.279297 0)"/>
      </g>
     </g>
    </g>
    <g id="ytick_4">
     <g id="line2d_12">
      <g>
       <use xlink:href="#m6f52d21179" x="63.064063" y="177.402295" style="stroke: #000000; stroke-width: 0.8"/>
      </g>
     </g>
     <g id="text_13">
      <!-- 300.0K -->
      <g transform="translate(20.878125 181.201514) scale(0.1 -0.1)">
       <use xlink:href="#DejaVuSans-33"/>
       <use xlink:href="#DejaVuSans-30" transform="translate(63.623047 0)"/>
       <use xlink:href="#DejaVuSans-30" transform="translate(127.246094 0)"/>
       <use xlink:href="#DejaVuSans-2e" transform="translate(190.869141 0)"/>
       <use xlink:href="#DejaVuSans-30" transform="translate(222.65625 0)"/>
       <use xlink:href="#DejaVuSans-4b" transform="translate(286.279297 0)"/>
      </g>
     </g>
    </g>
    <g id="ytick_5">
     <g id="line2d_13">
      <g>
       <use xlink:href="#m6f52d21179" x="63.064063" y="140.393019" style="stroke: #000000; stroke-width: 0.8"/>
      </g>
     </g>
     <g id="text_14">
      <!-- 400.0K -->
      <g transform="translate(20.878125 144.192238) scale(0.1 -0.1)">
       <defs>
        <path id="DejaVuSans-34" d="M 2419 4116 
L 825 1625 
L 2419 1625 
L 2419 4116 
z
M 2253 4666 
L 3047 4666 
L 3047 1625 
L 3713 1625 
L 3713 1100 
L 3047 1100 
L 3047 0 
L 2419 0 
L 2419 1100 
L 313 1100 
L 313 1709 
L 2253 4666 
z
" transform="scale(0.015625)"/>
       </defs>
       <use xlink:href="#DejaVuSans-34"/>
       <use xlink:href="#DejaVuSans-30" transform="translate(63.623047 0)"/>
       <use xlink:href="#DejaVuSans-30" transform="translate(127.246094 0)"/>
       <use xlink:href="#DejaVuSans-2e" transform="translate(190.869141 0)"/>
       <use xlink:href="#DejaVuSans-30" transform="translate(222.65625 0)"/>
       <use xlink:href="#DejaVuSans-4b" transform="translate(286.279297 0)"/>
      </g>
     </g>
    </g>
    <g id="ytick_6">
     <g id="line2d_14">
      <g>
       <use xlink:href="#m6f52d21179" x="63.064063" y="103.383742" style="stroke: #000000; stroke-width: 0.8"/>
      </g>
     </g>
     <g id="text_15">
      <!-- 500.0K -->
      <g transform="translate(20.878125 107.182961) scale(0.1 -0.1)">
       <use xlink:href="#DejaVuSans-35"/>
       <use xlink:href="#DejaVuSans-30" transform="translate(63.623047 0)"/>
       <use xlink:href="#DejaVuSans-30" transform="translate(127.246094 0)"/>
       <use xlink:href="#DejaVuSans-2e" transform="translate(190.869141 0)"/>
       <use xlink:href="#DejaVuSans-30" transform="translate(222.65625 0)"/>
       <use xlink:href="#DejaVuSans-4b" transform="translate(286.279297 0)"/>
      </g>
     </g>
    </g>
    <g id="ytick_7">
     <g id="line2d_15">
      <g>
       <use xlink:href="#m6f52d21179" x="63.064063" y="66.374466" style="stroke: #000000; stroke-width: 0.8"/>
      </g>
     </g>
     <g id="text_16">
      <!-- 600.0K -->
      <g transform="translate(20.878125 70.173685) scale(0.1 -0.1)">
       <defs>
        <path id="DejaVuSans-36" d="M 2113 2584 
Q 1688 2584 1439 2293 
Q 1191 2003 1191 1497 
Q 1191 994 1439 701 
Q 1688 409 2113 409 
Q 2538 409 2786 701 
Q 3034 994 3034 1497 
Q 3034 2003 2786 2293 
Q 2538 2584 2113 2584 
z
M 3366 4563 
L 3366 3988 
Q 3128 4100 2886 4159 
Q 2644 4219 2406 4219 
Q 1781 4219 1451 3797 
Q 1122 3375 1075 2522 
Q 1259 2794 1537 2939 
Q 1816 3084 2150 3084 
Q 2853 3084 3261 2657 
Q 3669 2231 3669 1497 
Q 3669 778 3244 343 
Q 2819 -91 2113 -91 
Q 1303 -91 875 529 
Q 447 1150 447 2328 
Q 447 3434 972 4092 
Q 1497 4750 2381 4750 
Q 2619 4750 2861 4703 
Q 3103 4656 3366 4563 
z
" transform="scale(0.015625)"/>
       </defs>
       <use xlink:href="#DejaVuSans-36"/>
       <use xlink:href="#DejaVuSans-30" transform="translate(63.623047 0)"/>
       <use xlink:href="#DejaVuSans-30" transform="translate(127.246094 0)"/>
       <use xlink:href="#DejaVuSans-2e" transform="translate(190.869141 0)"/>
       <use xlink:href="#DejaVuSans-30" transform="translate(222.65625 0)"/>
       <use xlink:href="#DejaVuSans-4b" transform="translate(286.279297 0)"/>
      </g>
     </g>
    </g>
    <g id="ytick_8">
     <g id="line2d_16">
      <g>
       <use xlink:href="#m6f52d21179" x="63.064063" y="29.365189" style="stroke: #000000; stroke-width: 0.8"/>
      </g>
     </g>
     <g id="text_17">
      <!-- 700.0K -->
      <g transform="translate(20.878125 33.164408) scale(0.1 -0.1)">
       <use xlink:href="#DejaVuSans-37"/>
       <use xlink:href="#DejaVuSans-30" transform="translate(63.623047 0)"/>
       <use xlink:href="#DejaVuSans-30" transform="translate(127.246094 0)"/>
       <use xlink:href="#DejaVuSans-2e" transform="translate(190.869141 0)"/>
       <use xlink:href="#DejaVuSans-30" transform="translate(222.65625 0)"/>
       <use xlink:href="#DejaVuSans-4b" transform="translate(286.279297 0)"/>
      </g>
     </g>
    </g>
    <g id="text_18">
     <!-- linked (Number of people) -->
     <g transform="translate(14.798438 220.810062) rotate(-90) scale(0.1 -0.1)">
      <defs>
       <path id="DejaVuSans-6c" d="M 603 4863 
L 1178 4863 
L 1178 0 
L 603 0 
L 603 4863 
z
" transform="scale(0.015625)"/>
       <path id="DejaVuSans-69" d="M 603 3500 
L 1178 3500 
L 1178 0 
L 603 0 
L 603 3500 
z
M 603 4863 
L 1178 4863 
L 1178 4134 
L 603 4134 
L 603 4863 
z
" transform="scale(0.015625)"/>
       <path id="DejaVuSans-6e" d="M 3513 2113 
L 3513 0 
L 2938 0 
L 2938 2094 
Q 2938 2591 2744 2837 
Q 2550 3084 2163 3084 
Q 1697 3084 1428 2787 
Q 1159 2491 1159 1978 
L 1159 0 
L 581 0 
L 581 3500 
L 1159 3500 
L 1159 2956 
Q 1366 3272 1645 3428 
Q 1925 3584 2291 3584 
Q 2894 3584 3203 3211 
Q 3513 2838 3513 2113 
z
" transform="scale(0.015625)"/>
       <path id="DejaVuSans-6b" d="M 581 4863 
L 1159 4863 
L 1159 1991 
L 2875 3500 
L 3609 3500 
L 1753 1863 
L 3688 0 
L 2938 0 
L 1159 1709 
L 1159 0 
L 581 0 
L 581 4863 
z
" transform="scale(0.015625)"/>
       <path id="DejaVuSans-64" d="M 2906 2969 
L 2906 4863 
L 3481 4863 
L 3481 0 
L 2906 0 
L 2906 525 
Q 2725 213 2448 61 
Q 2172 -91 1784 -91 
Q 1150 -91 751 415 
Q 353 922 353 1747 
Q 353 2572 751 3078 
Q 1150 3584 1784 3584 
Q 2172 3584 2448 3432 
Q 2725 3281 2906 2969 
z
M 947 1747 
Q 947 1113 1208 752 
Q 1469 391 1925 391 
Q 2381 391 2643 752 
Q 2906 1113 2906 1747 
Q 2906 2381 2643 2742 
Q 2381 3103 1925 3103 
Q 1469 3103 1208 2742 
Q 947 2381 947 1747 
z
" transform="scale(0.015625)"/>
       <path id="DejaVuSans-20" transform="scale(0.015625)"/>
       <path id="DejaVuSans-28" d="M 1984 4856 
Q 1566 4138 1362 3434 
Q 1159 2731 1159 2009 
Q 1159 1288 1364 580 
Q 1569 -128 1984 -844 
L 1484 -844 
Q 1016 -109 783 600 
Q 550 1309 550 2009 
Q 550 2706 781 3412 
Q 1013 4119 1484 4856 
L 1984 4856 
z
" transform="scale(0.015625)"/>
       <path id="DejaVuSans-4e" d="M 628 4666 
L 1478 4666 
L 3547 763 
L 3547 4666 
L 4159 4666 
L 4159 0 
L 3309 0 
L 1241 3903 
L 1241 0 
L 628 0 
L 628 4666 
z
" transform="scale(0.015625)"/>
       <path id="DejaVuSans-75" d="M 544 1381 
L 544 3500 
L 1119 3500 
L 1119 1403 
Q 1119 906 1312 657 
Q 1506 409 1894 409 
Q 2359 409 2629 706 
Q 2900 1003 2900 1516 
L 2900 3500 
L 3475 3500 
L 3475 0 
L 2900 0 
L 2900 538 
Q 2691 219 2414 64 
Q 2138 -91 1772 -91 
Q 1169 -91 856 284 
Q 544 659 544 1381 
z
M 1991 3584 
L 1991 3584 
z
" transform="scale(0.015625)"/>
       <path id="DejaVuSans-6d" d="M 3328 2828 
Q 3544 3216 3844 3400 
Q 4144 3584 4550 3584 
Q 5097 3584 5394 3201 
Q 5691 2819 5691 2113 
L 5691 0 
L 5113 0 
L 5113 2094 
Q 5113 2597 4934 2840 
Q 4756 3084 4391 3084 
Q 3944 3084 3684 2787 
Q 3425 2491 3425 1978 
L 3425 0 
L 2847 0 
L 2847 2094 
Q 2847 2600 2669 2842 
Q 2491 3084 2119 3084 
Q 1678 3084 1418 2786 
Q 1159 2488 1159 1978 
L 1159 0 
L 581 0 
L 581 3500 
L 1159 3500 
L 1159 2956 
Q 1356 3278 1631 3431 
Q 1906 3584 2284 3584 
Q 2666 3584 2933 3390 
Q 3200 3197 3328 2828 
z
" transform="scale(0.015625)"/>
       <path id="DejaVuSans-62" d="M 3116 1747 
Q 3116 2381 2855 2742 
Q 2594 3103 2138 3103 
Q 1681 3103 1420 2742 
Q 1159 2381 1159 1747 
Q 1159 1113 1420 752 
Q 1681 391 2138 391 
Q 2594 391 2855 752 
Q 3116 1113 3116 1747 
z
M 1159 2969 
Q 1341 3281 1617 3432 
Q 1894 3584 2278 3584 
Q 2916 3584 3314 3078 
Q 3713 2572 3713 1747 
Q 3713 922 3314 415 
Q 2916 -91 2278 -91 
Q 1894 -91 1617 61 
Q 1341 213 1159 525 
L 1159 0 
L 581 0 
L 581 4863 
L 1159 4863 
L 1159 2969 
z
" transform="scale(0.015625)"/>
       <path id="DejaVuSans-6f" d="M 1959 3097 
Q 1497 3097 1228 2736 
Q 959 2375 959 1747 
Q 959 1119 1226 758 
Q 1494 397 1959 397 
Q 2419 397 2687 759 
Q 2956 1122 2956 1747 
Q 2956 2369 2687 2733 
Q 2419 3097 1959 3097 
z
M 1959 3584 
Q 2709 3584 3137 3096 
Q 3566 2609 3566 1747 
Q 3566 888 3137 398 
Q 2709 -91 1959 -91 
Q 1206 -91 779 398 
Q 353 888 353 1747 
Q 353 2609 779 3096 
Q 1206 3584 1959 3584 
z
" transform="scale(0.015625)"/>
       <path id="DejaVuSans-66" d="M 2375 4863 
L 2375 4384 
L 1825 4384 
Q 1516 4384 1395 4259 
Q 1275 4134 1275 3809 
L 1275 3500 
L 2222 3500 
L 2222 3053 
L 1275 3053 
L 1275 0 
L 697 0 
L 697 3053 
L 147 3053 
L 147 3500 
L 697 3500 
L 697 3744 
Q 697 4328 969 4595 
Q 1241 4863 1831 4863 
L 2375 4863 
z
" transform="scale(0.015625)"/>
       <path id="DejaVuSans-70" d="M 1159 525 
L 1159 -1331 
L 581 -1331 
L 581 3500 
L 1159 3500 
L 1159 2969 
Q 1341 3281 1617 3432 
Q 1894 3584 2278 3584 
Q 2916 3584 3314 3078 
Q 3713 2572 3713 1747 
Q 3713 922 3314 415 
Q 2916 -91 2278 -91 
Q 1894 -91 1617 61 
Q 1341 213 1159 525 
z
M 3116 1747 
Q 3116 2381 2855 2742 
Q 2594 3103 2138 3103 
Q 1681 3103 1420 2742 
Q 1159 2381 1159 1747 
Q 1159 1113 1420 752 
Q 1681 391 2138 391 
Q 2594 391 2855 752 
Q 3116 1113 3116 1747 
z
" transform="scale(0.015625)"/>
       <path id="DejaVuSans-29" d="M 513 4856 
L 1013 4856 
Q 1481 4119 1714 3412 
Q 1947 2706 1947 2009 
Q 1947 1309 1714 600 
Q 1481 -109 1013 -844 
L 513 -844 
Q 928 -128 1133 580 
Q 1338 1288 1338 2009 
Q 1338 2731 1133 3434 
Q 928 4138 513 4856 
z
" transform="scale(0.015625)"/>
      </defs>
      <use xlink:href="#DejaVuSans-6c"/>
      <use xlink:href="#DejaVuSans-69" transform="translate(27.783203 0)"/>
      <use xlink:href="#DejaVuSans-6e" transform="translate(55.566406 0)"/>
      <use xlink:href="#DejaVuSans-6b" transform="translate(118.945312 0)"/>
      <use xlink:href="#DejaVuSans-65" transform="translate(173.230469 0)"/>
      <use xlink:href="#DejaVuSans-64" transform="translate(234.753906 0)"/>
      <use xlink:href="#DejaVuSans-20" transform="translate(298.230469 0)"/>
      <use xlink:href="#DejaVuSans-28" transform="translate(330.017578 0)"/>
      <use xlink:href="#DejaVuSans-4e" transform="translate(369.03125 0)"/>
      <use xlink:href="#DejaVuSans-75" transform="translate(443.835938 0)"/>
      <use xlink:href="#DejaVuSans-6d" transform="translate(507.214844 0)"/>
      <use xlink:href="#DejaVuSans-62" transform="translate(604.626953 0)"/>
      <use xlink:href="#DejaVuSans-65" transform="translate(668.103516 0)"/>
      <use xlink:href="#DejaVuSans-72" transform="translate(729.626953 0)"/>
      <use xlink:href="#DejaVuSans-20" transform="translate(770.740234 0)"/>
      <use xlink:href="#DejaVuSans-6f" transform="translate(802.527344 0)"/>
      <use xlink:href="#DejaVuSans-66" transform="translate(863.708984 0)"/>
      <use xlink:href="#DejaVuSans-20" transform="translate(898.914062 0)"/>
      <use xlink:href="#DejaVuSans-70" transform="translate(930.701172 0)"/>
      <use xlink:href="#DejaVuSans-65" transform="translate(994.177734 0)"/>
      <use xlink:href="#DejaVuSans-6f" transform="translate(1055.701172 0)"/>
      <use xlink:href="#DejaVuSans-70" transform="translate(1116.882812 0)"/>
      <use xlink:href="#DejaVuSans-6c" transform="translate(1180.359375 0)"/>
      <use xlink:href="#DejaVuSans-65" transform="translate(1208.142578 0)"/>
      <use xlink:href="#DejaVuSans-29" transform="translate(1269.666016 0)"/>
     </g>
    </g>
   </g>
   <g id="line2d_17">
    <path d="M 63.064063 232.027988 
L 78.100694 108.25663 
L 93.137326 121.193791 
L 108.173957 92.858941 
L 123.210589 88.367973 
L 138.24722 80.602683 
L 153.283852 76.751853 
L 168.320484 74.105975 
L 183.357115 72.783745 
L 198.393747 72.324184 
L 213.430378 72.510247 
L 228.46701 73.145227 
L 243.503641 74.08746 
L 258.540273 75.228382 
L 273.576905 76.486943 
L 288.613536 77.80273 
L 303.650168 79.131261 
L 318.686799 80.440229 
L 333.723431 81.706632 
L 348.760063 82.914549 
" clip-path="url(#p0ac70d697d)" style="fill: none; stroke: #377eb8; stroke-width: 3; stroke-linecap: square"/>
   </g>
   <g id="line2d_18">
    <path d="M 63.064063 232.027988 
L 66.82322 206.274145 
L 70.582378 187.540003 
L 74.341536 171.455696 
L 78.100694 157.508748 
L 81.859852 145.285772 
L 85.61901 134.4814 
L 89.378168 124.865659 
L 93.137326 116.262631 
L 96.896484 108.535359 
L 100.655641 101.575197 
L 104.414799 95.294281 
L 108.173957 89.620185 
L 111.933115 84.492113 
L 115.692273 79.85817 
L 119.451431 75.673397 
L 123.210589 71.898337 
L 126.969747 68.497985 
L 130.728905 65.441012 
L 134.488063 62.699166 
L 138.24722 60.246829 
L 142.006378 58.060664 
L 145.765536 56.119332 
L 149.524694 54.403268 
L 153.283852 52.894495 
L 157.04301 51.576466 
L 160.802168 50.433932 
L 164.561326 49.452823 
L 168.320484 48.620151 
L 172.079641 47.923916 
L 175.838799 47.353025 
L 179.597957 46.897224 
L 183.357115 46.547029 
L 187.116273 46.293666 
L 190.875431 46.129017 
L 194.634589 46.045571 
L 198.393747 46.036376 
L 202.152905 46.095 
L 205.912062 46.21549 
L 209.67122 46.392336 
L 213.430378 46.620438 
L 217.189536 46.895078 
L 220.948694 47.21189 
L 224.707852 47.566832 
L 228.46701 47.956166 
L 232.226168 48.376434 
L 235.985326 48.824437 
L 239.744484 49.297217 
L 243.503641 49.792039 
L 247.262799 50.306374 
L 251.021957 50.837886 
L 254.781115 51.384415 
L 258.540273 51.943968 
L 262.299431 52.514702 
L 266.058589 53.09492 
L 269.817747 53.683053 
L 273.576905 54.277656 
L 277.336062 54.877397 
L 281.09522 55.481049 
L 284.854378 56.087483 
L 288.613536 56.69566 
L 292.372694 57.304626 
L 296.131852 57.913503 
L 299.89101 58.521488 
L 303.650168 59.127845 
L 307.409326 59.731899 
L 311.168484 60.333033 
L 314.927641 60.930684 
L 318.686799 61.524341 
L 322.445957 62.113537 
L 326.205115 62.697848 
L 329.964273 63.276892 
L 333.723431 63.850321 
L 337.482589 64.417823 
L 341.241747 64.979119 
L 345.000905 65.533959 
L 348.760063 66.082117 
" clip-path="url(#p0ac70d697d)" style="fill: none; stroke: #e41a1c; stroke-width: 3; stroke-linecap: square"/>
   </g>
   <g id="line2d_19">
    <path d="M 63.064063 232.027988 
L 64.567726 221.726451 
L 67.575052 204.908368 
L 70.582378 190.030729 
L 73.589705 176.780983 
L 76.597031 164.909033 
L 79.604357 154.213999 
L 82.611684 144.533614 
L 85.61901 135.735934 
L 88.626336 127.712873 
L 91.633663 120.375179 
L 94.640989 113.648517 
L 97.648315 107.470418 
L 100.655641 101.787896 
L 103.662968 96.555587 
L 106.670294 91.734288 
L 109.67762 87.289815 
L 112.684947 83.192097 
L 115.692273 79.414466 
L 118.699599 75.933092 
L 121.706926 72.726533 
L 124.714252 69.775376 
L 127.721578 67.061945 
L 130.728905 64.570071 
L 133.736231 62.284899 
L 136.743557 60.192728 
L 141.254547 57.388884 
L 145.765536 54.952005 
L 150.276526 52.847093 
L 154.787515 51.042616 
L 159.298505 49.510076 
L 163.809494 48.223659 
L 168.320484 47.159943 
L 172.831473 46.297646 
L 177.342462 45.617412 
L 183.357115 44.96342 
L 189.371768 44.564471 
L 195.38642 44.387451 
L 201.401073 44.403091 
L 208.919389 44.654436 
L 216.437705 45.122535 
L 225.459684 45.917561 
L 235.985326 47.09808 
L 248.014631 48.694266 
L 263.051263 50.938219 
L 284.102547 54.328698 
L 333.723431 62.391157 
L 348.760063 64.683379 
L 348.760063 64.683379 
" clip-path="url(#p0ac70d697d)" style="fill: none; stroke: #4daf4a; stroke-width: 3; stroke-linecap: square"/>
   </g>
   <g id="line2d_20">
    <path d="M 63.064063 232.027988 
L 64.567726 222.138918 
L 66.82322 209.477747 
L 69.078715 197.922928 
L 71.33421 187.332113 
L 73.589705 177.592466 
L 75.845199 168.60789 
L 78.852526 157.662955 
L 81.859852 147.753159 
L 84.867178 138.74541 
L 87.874505 130.530123 
L 90.881831 123.016399 
L 93.889157 116.128251 
L 96.896484 109.801635 
L 99.90381 103.982109 
L 102.911136 98.622996 
L 105.918462 93.683928 
L 108.925789 89.1297 
L 111.933115 84.929354 
L 114.940441 81.055456 
L 117.947768 77.483519 
L 120.955094 74.191539 
L 124.714252 70.440119 
L 128.47341 67.060225 
L 132.232568 64.020602 
L 135.991726 61.293118 
L 139.750884 58.852317 
L 143.510041 56.675062 
L 147.269199 54.74024 
L 151.028357 53.028531 
L 155.539347 51.244134 
L 160.050336 49.727634 
L 164.561326 48.453719 
L 169.072315 47.399414 
L 174.335136 46.419202 
L 179.597957 45.679612 
L 184.860778 45.153792 
L 190.875431 44.783817 
L 196.890084 44.629601 
L 203.656568 44.678827 
L 211.174884 44.968811 
L 219.445031 45.525584 
L 228.46701 46.363014 
L 238.992652 47.576544 
L 251.021957 49.193581 
L 266.058589 51.44495 
L 289.365368 55.191473 
L 332.971599 62.223024 
L 348.760063 64.622506 
L 348.760063 64.622506 
" clip-path="url(#p0ac70d697d)" style="fill: none; stroke: #a24e99; stroke-width: 3; stroke-linecap: square"/>
   </g>
   <g id="line2d_21">
    <path d="M 63.064063 232.027988 
L 64.567726 222.439008 
L 66.82322 209.903555 
L 69.229081 197.707883 
L 71.785309 185.908576 
L 74.341536 175.15364 
L 76.897764 165.315035 
L 79.604357 155.777064 
L 82.310951 147.038417 
L 85.167911 138.581966 
L 88.024871 130.826481 
L 90.881831 123.69685 
L 93.889157 116.798279 
L 96.896484 110.459634 
L 99.90381 104.627086 
L 103.061503 98.997038 
L 106.219195 93.827683 
L 109.376888 89.078817 
L 112.53458 84.715233 
L 115.842639 80.523284 
L 119.150698 76.688405 
L 122.458757 73.182344 
L 125.917183 69.841008 
L 129.375608 66.805273 
L 132.984399 63.937878 
L 136.593191 61.353255 
L 140.352349 58.937826 
L 144.111507 56.7825 
L 148.021031 54.794572 
L 152.080921 52.981321 
L 156.291178 51.348159 
L 160.651801 49.898686 
L 165.162791 48.634769 
L 169.824147 47.556632 
L 174.786235 46.638373 
L 180.049056 45.896073 
L 185.61261 45.341823 
L 191.476896 44.983732 
L 197.792281 44.82474 
L 204.558766 44.879513 
L 211.926715 45.164318 
L 220.046496 45.704912 
L 229.068475 46.532131 
L 239.443751 47.714206 
L 251.623423 49.334751 
L 266.81042 51.590603 
L 289.515734 55.213332 
L 335.227094 62.531351 
L 348.760063 64.574763 
L 348.760063 64.574763 
" clip-path="url(#p0ac70d697d)" style="fill: none; stroke: #ff7f00; stroke-width: 3; stroke-linecap: square"/>
   </g>
   <g id="patch_3">
    <path d="M 63.064063 288.430125 
L 63.064063 22.318125 
" style="fill: none; stroke: #000000; stroke-width: 0.8; stroke-linejoin: miter; stroke-linecap: square"/>
   </g>
   <g id="patch_4">
    <path d="M 348.760063 288.430125 
L 348.760063 22.318125 
" style="fill: none"/>
   </g>
   <g id="patch_5">
    <path d="M 63.064063 288.430125 
L 348.760063 288.430125 
" style="fill: none; stroke: #000000; stroke-width: 0.8; stroke-linejoin: miter; stroke-linecap: square"/>
   </g>
   <g id="patch_6">
    <path d="M 63.064063 22.318125 
L 348.760063 22.318125 
" style="fill: none"/>
   </g>
   <g id="text_19">
    <!-- males -->
    <g transform="translate(187.906438 16.318125) scale(0.12 -0.12)">
     <defs>
      <path id="DejaVuSans-73" d="M 2834 3397 
L 2834 2853 
Q 2591 2978 2328 3040 
Q 2066 3103 1784 3103 
Q 1356 3103 1142 2972 
Q 928 2841 928 2578 
Q 928 2378 1081 2264 
Q 1234 2150 1697 2047 
L 1894 2003 
Q 2506 1872 2764 1633 
Q 3022 1394 3022 966 
Q 3022 478 2636 193 
Q 2250 -91 1575 -91 
Q 1294 -91 989 -36 
Q 684 19 347 128 
L 347 722 
Q 666 556 975 473 
Q 1284 391 1588 391 
Q 1994 391 2212 530 
Q 2431 669 2431 922 
Q 2431 1156 2273 1281 
Q 2116 1406 1581 1522 
L 1381 1569 
Q 847 1681 609 1914 
Q 372 2147 372 2553 
Q 372 3047 722 3315 
Q 1072 3584 1716 3584 
Q 2034 3584 2315 3537 
Q 2597 3491 2834 3397 
z
" transform="scale(0.015625)"/>
     </defs>
     <use xlink:href="#DejaVuSans-6d"/>
     <use xlink:href="#DejaVuSans-61" transform="translate(97.412109 0)"/>
     <use xlink:href="#DejaVuSans-6c" transform="translate(158.691406 0)"/>
     <use xlink:href="#DejaVuSans-65" transform="translate(186.474609 0)"/>
     <use xlink:href="#DejaVuSans-73" transform="translate(247.998047 0)"/>
    </g>
   </g>
   <g id="legend_1">
    <g id="patch_7">
     <path d="M 370.044863 193.569437 
L 449.321425 193.569437 
Q 451.321425 193.569437 451.321425 191.569437 
L 451.321425 119.178812 
Q 451.321425 117.178812 449.321425 117.178812 
L 370.044863 117.178812 
Q 368.044863 117.178812 368.044863 119.178812 
L 368.044863 191.569437 
Q 368.044863 193.569437 370.044863 193.569437 
L 370.044863 193.569437 
z
" style="fill: none; opacity: 0"/>
    </g>
    <g id="line2d_22">
     <path d="M 372.044863 125.27725 
L 382.044863 125.27725 
L 392.044863 125.27725 
" style="fill: none; stroke: #377eb8; stroke-width: 3; stroke-linecap: square"/>
    </g>
    <g id="text_20">
     <!-- dt=1.000 -->
     <g transform="translate(400.044863 128.77725) scale(0.1 -0.1)">
      <defs>
       <path id="DejaVuSans-74" d="M 1172 4494 
L 1172 3500 
L 2356 3500 
L 2356 3053 
L 1172 3053 
L 1172 1153 
Q 1172 725 1289 603 
Q 1406 481 1766 481 
L 2356 481 
L 2356 0 
L 1766 0 
Q 1100 0 847 248 
Q 594 497 594 1153 
L 594 3053 
L 172 3053 
L 172 3500 
L 594 3500 
L 594 4494 
L 1172 4494 
z
" transform="scale(0.015625)"/>
       <path id="DejaVuSans-3d" d="M 678 2906 
L 4684 2906 
L 4684 2381 
L 678 2381 
L 678 2906 
z
M 678 1631 
L 4684 1631 
L 4684 1100 
L 678 1100 
L 678 1631 
z
" transform="scale(0.015625)"/>
      </defs>
      <use xlink:href="#DejaVuSans-64"/>
      <use xlink:href="#DejaVuSans-74" transform="translate(63.476562 0)"/>
      <use xlink:href="#DejaVuSans-3d" transform="translate(102.685547 0)"/>
      <use xlink:href="#DejaVuSans-31" transform="translate(186.474609 0)"/>
      <use xlink:href="#DejaVuSans-2e" transform="translate(250.097656 0)"/>
      <use xlink:href="#DejaVuSans-30" transform="translate(281.884766 0)"/>
      <use xlink:href="#DejaVuSans-30" transform="translate(345.507812 0)"/>
      <use xlink:href="#DejaVuSans-30" transform="translate(409.130859 0)"/>
     </g>
    </g>
    <g id="line2d_23">
     <path d="M 372.044863 139.955375 
L 382.044863 139.955375 
L 392.044863 139.955375 
" style="fill: none; stroke: #e41a1c; stroke-width: 3; stroke-linecap: square"/>
    </g>
    <g id="text_21">
     <!-- dt=0.250 -->
     <g transform="translate(400.044863 143.455375) scale(0.1 -0.1)">
      <use xlink:href="#DejaVuSans-64"/>
      <use xlink:href="#DejaVuSans-74" transform="translate(63.476562 0)"/>
      <use xlink:href="#DejaVuSans-3d" transform="translate(102.685547 0)"/>
      <use xlink:href="#DejaVuSans-30" transform="translate(186.474609 0)"/>
      <use xlink:href="#DejaVuSans-2e" transform="translate(250.097656 0)"/>
      <use xlink:href="#DejaVuSans-32" transform="translate(281.884766 0)"/>
      <use xlink:href="#DejaVuSans-35" transform="translate(345.507812 0)"/>
      <use xlink:href="#DejaVuSans-30" transform="translate(409.130859 0)"/>
     </g>
    </g>
    <g id="line2d_24">
     <path d="M 372.044863 154.6335 
L 382.044863 154.6335 
L 392.044863 154.6335 
" style="fill: none; stroke: #4daf4a; stroke-width: 3; stroke-linecap: square"/>
    </g>
    <g id="text_22">
     <!-- dt=0.100 -->
     <g transform="translate(400.044863 158.1335) scale(0.1 -0.1)">
      <use xlink:href="#DejaVuSans-64"/>
      <use xlink:href="#DejaVuSans-74" transform="translate(63.476562 0)"/>
      <use xlink:href="#DejaVuSans-3d" transform="translate(102.685547 0)"/>
      <use xlink:href="#DejaVuSans-30" transform="translate(186.474609 0)"/>
      <use xlink:href="#DejaVuSans-2e" transform="translate(250.097656 0)"/>
      <use xlink:href="#DejaVuSans-31" transform="translate(281.884766 0)"/>
      <use xlink:href="#DejaVuSans-30" transform="translate(345.507812 0)"/>
      <use xlink:href="#DejaVuSans-30" transform="translate(409.130859 0)"/>
     </g>
    </g>
    <g id="line2d_25">
     <path d="M 372.044863 169.311625 
L 382.044863 169.311625 
L 392.044863 169.311625 
" style="fill: none; stroke: #a24e99; stroke-width: 3; stroke-linecap: square"/>
    </g>
    <g id="text_23">
     <!-- dt=0.050 -->
     <g transform="translate(400.044863 172.811625) scale(0.1 -0.1)">
      <use xlink:href="#DejaVuSans-64"/>
      <use xlink:href="#DejaVuSans-74" transform="translate(63.476562 0)"/>
      <use xlink:href="#DejaVuSans-3d" transform="translate(102.685547 0)"/>
      <use xlink:href="#DejaVuSans-30" transform="translate(186.474609 0)"/>
      <use xlink:href="#DejaVuSans-2e" transform="translate(250.097656 0)"/>
      <use xlink:href="#DejaVuSans-30" transform="translate(281.884766 0)"/>
      <use xlink:href="#DejaVuSans-35" transform="translate(345.507812 0)"/>
      <use xlink:href="#DejaVuSans-30" transform="translate(409.130859 0)"/>
     </g>
    </g>
    <g id="line2d_26">
     <path d="M 372.044863 183.98975 
L 382.044863 183.98975 
L 392.044863 183.98975 
" style="fill: none; stroke: #ff7f00; stroke-width: 3; stroke-linecap: square"/>
    </g>
    <g id="text_24">
     <!-- dt=0.010 -->
     <g transform="translate(400.044863 187.48975) scale(0.1 -0.1)">
      <use xlink:href="#DejaVuSans-64"/>
      <use xlink:href="#DejaVuSans-74" transform="translate(63.476562 0)"/>
      <use xlink:href="#DejaVuSans-3d" transform="translate(102.685547 0)"/>
      <use xlink:href="#DejaVuSans-30" transform="translate(186.474609 0)"/>
      <use xlink:href="#DejaVuSans-2e" transform="translate(250.097656 0)"/>
      <use xlink:href="#DejaVuSans-30" transform="translate(281.884766 0)"/>
      <use xlink:href="#DejaVuSans-31" transform="translate(345.507812 0)"/>
      <use xlink:href="#DejaVuSans-30" transform="translate(409.130859 0)"/>
     </g>
    </g>
   </g>
  </g>
 </g>
 <defs>
  <clipPath id="p0ac70d697d">
   <rect x="63.064063" y="22.318125" width="285.696" height="266.112"/>
  </clipPath>
 </defs>
</svg>
