<?xml version="1.0" encoding="utf-8" standalone="no"?>
<!DOCTYPE svg PUBLIC "-//W3C//DTD SVG 1.1//EN"
  "http://www.w3.org/Graphics/SVG/1.1/DTD/svg11.dtd">
<svg xmlns:xlink="http://www.w3.org/1999/xlink" width="642.372869pt" height="392.514375pt" viewBox="0 0 642.372869 392.514375" xmlns="http://www.w3.org/2000/svg" version="1.1">
 <metadata>
  <rdf:RDF xmlns:dc="http://purl.org/dc/elements/1.1/" xmlns:cc="http://creativecommons.org/ns#" xmlns:rdf="http://www.w3.org/1999/02/22-rdf-syntax-ns#">
   <cc:Work>
    <dc:type rdf:resource="http://purl.org/dc/dcmitype/StillImage"/>
    <dc:date>2026-05-29T05:15:59.966058</dc:date>
    <dc:format>image/svg+xml</dc:format>
    <dc:creator>
     <cc:Agent>
      <dc:title>Matplotlib v3.10.9, https://matplotlib.org/</dc:title>
     </cc:Agent>
    </dc:creator>
   </cc:Work>
  </rdf:RDF>
 </metadata>
 <defs>
  <style type="text/css">*{stroke-linejoin: round; stroke-linecap: butt}</style>
 </defs>
 <g id="figure_1">
  <g id="patch_1">
   <path d="M 0 392.514375 
L 642.372869 392.514375 
L 642.372869 0 
L 0 0 
L 0 392.514375 
z
" style="fill: none; opacity: 0"/>
  </g>
  <g id="axes_1">
   <g id="patch_2">
    <path d="M 45.09375 173.518125 
L 248.002841 173.518125 
L 248.002841 22.318125 
L 45.09375 22.318125 
L 45.09375 173.518125 
z
" style="fill: none; opacity: 0"/>
   </g>
   <g id="PathCollection_1">
    <defs>
     <path id="C0_0_c4c94aa5f2" d="M 0 3.162278 
C 0.838646 3.162278 1.643056 2.82908 2.236068 2.236068 
C 2.82908 1.643056 3.162278 0.838646 3.162278 -0 
C 3.162278 -0.838646 2.82908 -1.643056 2.236068 -2.236068 
C 1.643056 -2.82908 0.838646 -3.162278 0 -3.162278 
C -0.838646 -3.162278 -1.643056 -2.82908 -2.236068 -2.236068 
C -2.82908 -1.643056 -3.162278 -0.838646 -3.162278 0 
C -3.162278 0.838646 -2.82908 1.643056 -2.236068 2.236068 
C -1.643056 2.82908 -0.838646 3.162278 0 3.162278 
z
"/>
    </defs>
    <g clip-path="url(#pdab1bb0758)">
     <use xlink:href="#C0_0_c4c94aa5f2" x="45.09375" y="38.193922" style="fill: none; stroke: #377eb8; stroke-width: 3"/>
    </g>
    <g clip-path="url(#pdab1bb0758)">
     <use xlink:href="#C0_0_c4c94aa5f2" x="50.891153" y="38.870543" style="fill: none; stroke: #377eb8; stroke-width: 3"/>
    </g>
    <g clip-path="url(#pdab1bb0758)">
     <use xlink:href="#C0_0_c4c94aa5f2" x="56.688555" y="39.547164" style="fill: none; stroke: #377eb8; stroke-width: 3"/>
    </g>
    <g clip-path="url(#pdab1bb0758)">
     <use xlink:href="#C0_0_c4c94aa5f2" x="62.485958" y="40.223785" style="fill: none; stroke: #377eb8; stroke-width: 3"/>
    </g>
    <g clip-path="url(#pdab1bb0758)">
     <use xlink:href="#C0_0_c4c94aa5f2" x="68.28336" y="41.03573" style="fill: none; stroke: #377eb8; stroke-width: 3"/>
    </g>
    <g clip-path="url(#pdab1bb0758)">
     <use xlink:href="#C0_0_c4c94aa5f2" x="74.080763" y="41.847676" style="fill: none; stroke: #377eb8; stroke-width: 3"/>
    </g>
    <g clip-path="url(#pdab1bb0758)">
     <use xlink:href="#C0_0_c4c94aa5f2" x="79.878166" y="42.659621" style="fill: none; stroke: #377eb8; stroke-width: 3"/>
    </g>
    <g clip-path="url(#pdab1bb0758)">
     <use xlink:href="#C0_0_c4c94aa5f2" x="85.675568" y="43.742214" style="fill: none; stroke: #377eb8; stroke-width: 3"/>
    </g>
    <g clip-path="url(#pdab1bb0758)">
     <use xlink:href="#C0_0_c4c94aa5f2" x="91.472971" y="45.230781" style="fill: none; stroke: #377eb8; stroke-width: 3"/>
    </g>
    <g clip-path="url(#pdab1bb0758)">
     <use xlink:href="#C0_0_c4c94aa5f2" x="97.270373" y="46.989995" style="fill: none; stroke: #377eb8; stroke-width: 3"/>
    </g>
    <g clip-path="url(#pdab1bb0758)">
     <use xlink:href="#C0_0_c4c94aa5f2" x="103.067776" y="48.884534" style="fill: none; stroke: #377eb8; stroke-width: 3"/>
    </g>
    <g clip-path="url(#pdab1bb0758)">
     <use xlink:href="#C0_0_c4c94aa5f2" x="108.865179" y="50.643749" style="fill: none; stroke: #377eb8; stroke-width: 3"/>
    </g>
    <g clip-path="url(#pdab1bb0758)">
     <use xlink:href="#C0_0_c4c94aa5f2" x="114.662581" y="52.267639" style="fill: none; stroke: #377eb8; stroke-width: 3"/>
    </g>
    <g clip-path="url(#pdab1bb0758)">
     <use xlink:href="#C0_0_c4c94aa5f2" x="120.459984" y="53.756205" style="fill: none; stroke: #377eb8; stroke-width: 3"/>
    </g>
    <g clip-path="url(#pdab1bb0758)">
     <use xlink:href="#C0_0_c4c94aa5f2" x="126.257386" y="55.109447" style="fill: none; stroke: #377eb8; stroke-width: 3"/>
    </g>
    <g clip-path="url(#pdab1bb0758)">
     <use xlink:href="#C0_0_c4c94aa5f2" x="132.054789" y="56.462689" style="fill: none; stroke: #377eb8; stroke-width: 3"/>
    </g>
    <g clip-path="url(#pdab1bb0758)">
     <use xlink:href="#C0_0_c4c94aa5f2" x="137.852192" y="57.815932" style="fill: none; stroke: #377eb8; stroke-width: 3"/>
    </g>
    <g clip-path="url(#pdab1bb0758)">
     <use xlink:href="#C0_0_c4c94aa5f2" x="143.649594" y="59.169174" style="fill: none; stroke: #377eb8; stroke-width: 3"/>
    </g>
   </g>
   <g id="PathCollection_2">
    <defs>
     <path id="C1_0_8cd0450aa4" d="M 0 3.162278 
C 0.838646 3.162278 1.643056 2.82908 2.236068 2.236068 
C 2.82908 1.643056 3.162278 0.838646 3.162278 -0 
C 3.162278 -0.838646 2.82908 -1.643056 2.236068 -2.236068 
C 1.643056 -2.82908 0.838646 -3.162278 0 -3.162278 
C -0.838646 -3.162278 -1.643056 -2.82908 -2.236068 -2.236068 
C -2.82908 -1.643056 -3.162278 -0.838646 -3.162278 0 
C -3.162278 0.838646 -2.82908 1.643056 -2.236068 2.236068 
C -1.643056 2.82908 -0.838646 3.162278 0 3.162278 
z
"/>
    </defs>
    <g clip-path="url(#pdab1bb0758)">
     <use xlink:href="#C1_0_8cd0450aa4" x="45.09375" y="145.100042" style="fill: none; stroke: #e41a1c; stroke-width: 3"/>
    </g>
    <g clip-path="url(#pdab1bb0758)">
     <use xlink:href="#C1_0_8cd0450aa4" x="50.891153" y="145.370691" style="fill: none; stroke: #e41a1c; stroke-width: 3"/>
    </g>
    <g clip-path="url(#pdab1bb0758)">
     <use xlink:href="#C1_0_8cd0450aa4" x="56.688555" y="145.641339" style="fill: none; stroke: #e41a1c; stroke-width: 3"/>
    </g>
    <g clip-path="url(#pdab1bb0758)">
     <use xlink:href="#C1_0_8cd0450aa4" x="62.485958" y="145.911988" style="fill: none; stroke: #e41a1c; stroke-width: 3"/>
    </g>
    <g clip-path="url(#pdab1bb0758)">
     <use xlink:href="#C1_0_8cd0450aa4" x="68.28336" y="146.182636" style="fill: none; stroke: #e41a1c; stroke-width: 3"/>
    </g>
    <g clip-path="url(#pdab1bb0758)">
     <use xlink:href="#C1_0_8cd0450aa4" x="74.080763" y="146.453284" style="fill: none; stroke: #e41a1c; stroke-width: 3"/>
    </g>
    <g clip-path="url(#pdab1bb0758)">
     <use xlink:href="#C1_0_8cd0450aa4" x="79.878166" y="146.723933" style="fill: none; stroke: #e41a1c; stroke-width: 3"/>
    </g>
    <g clip-path="url(#pdab1bb0758)">
     <use xlink:href="#C1_0_8cd0450aa4" x="85.675568" y="146.994581" style="fill: none; stroke: #e41a1c; stroke-width: 3"/>
    </g>
    <g clip-path="url(#pdab1bb0758)">
     <use xlink:href="#C1_0_8cd0450aa4" x="91.472971" y="147.26523" style="fill: none; stroke: #e41a1c; stroke-width: 3"/>
    </g>
    <g clip-path="url(#pdab1bb0758)">
     <use xlink:href="#C1_0_8cd0450aa4" x="97.270373" y="147.535878" style="fill: none; stroke: #e41a1c; stroke-width: 3"/>
    </g>
    <g clip-path="url(#pdab1bb0758)">
     <use xlink:href="#C1_0_8cd0450aa4" x="103.067776" y="147.806526" style="fill: none; stroke: #e41a1c; stroke-width: 3"/>
    </g>
    <g clip-path="url(#pdab1bb0758)">
     <use xlink:href="#C1_0_8cd0450aa4" x="108.865179" y="148.077175" style="fill: none; stroke: #e41a1c; stroke-width: 3"/>
    </g>
    <g clip-path="url(#pdab1bb0758)">
     <use xlink:href="#C1_0_8cd0450aa4" x="114.662581" y="148.347823" style="fill: none; stroke: #e41a1c; stroke-width: 3"/>
    </g>
    <g clip-path="url(#pdab1bb0758)">
     <use xlink:href="#C1_0_8cd0450aa4" x="120.459984" y="148.618472" style="fill: none; stroke: #e41a1c; stroke-width: 3"/>
    </g>
    <g clip-path="url(#pdab1bb0758)">
     <use xlink:href="#C1_0_8cd0450aa4" x="126.257386" y="148.88912" style="fill: none; stroke: #e41a1c; stroke-width: 3"/>
    </g>
    <g clip-path="url(#pdab1bb0758)">
     <use xlink:href="#C1_0_8cd0450aa4" x="132.054789" y="149.159768" style="fill: none; stroke: #e41a1c; stroke-width: 3"/>
    </g>
    <g clip-path="url(#pdab1bb0758)">
     <use xlink:href="#C1_0_8cd0450aa4" x="137.852192" y="149.430417" style="fill: none; stroke: #e41a1c; stroke-width: 3"/>
    </g>
    <g clip-path="url(#pdab1bb0758)">
     <use xlink:href="#C1_0_8cd0450aa4" x="143.649594" y="149.701065" style="fill: none; stroke: #e41a1c; stroke-width: 3"/>
    </g>
   </g>
   <g id="matplotlib.axis_1">
    <g id="xtick_1">
     <g id="line2d_1">
      <defs>
       <path id="m192ad50934" d="M 0 0 
L 0 3.5 
" style="stroke: #000000; stroke-width: 0.8"/>
      </defs>
      <g>
       <use xlink:href="#m192ad50934" x="45.09375" y="173.518125" style="stroke: #000000; stroke-width: 0.8"/>
      </g>
     </g>
     <g id="text_1">
      <!-- 2000 -->
      <g transform="translate(32.36875 188.116562) scale(0.1 -0.1)">
       <defs>
        <path id="DejaVuSans-32" d="M 1228 531 
L 3431 531 
L 3431 0 
L 469 0 
L 469 531 
Q 828 903 1448 1529 
Q 2069 2156 2228 2338 
Q 2531 2678 2651 2914 
Q 2772 3150 2772 3378 
Q 2772 3750 2511 3984 
Q 2250 4219 1831 4219 
Q 1534 4219 1204 4116 
Q 875 4013 500 3803 
L 500 4441 
Q 881 4594 1212 4672 
Q 1544 4750 1819 4750 
Q 2544 4750 2975 4387 
Q 3406 4025 3406 3419 
Q 3406 3131 3298 2873 
Q 3191 2616 2906 2266 
Q 2828 2175 2409 1742 
Q 1991 1309 1228 531 
z
" transform="scale(0.015625)"/>
        <path id="DejaVuSans-30" d="M 2034 4250 
Q 1547 4250 1301 3770 
Q 1056 3291 1056 2328 
Q 1056 1369 1301 889 
Q 1547 409 2034 409 
Q 2525 409 2770 889 
Q 3016 1369 3016 2328 
Q 3016 3291 2770 3770 
Q 2525 4250 2034 4250 
z
M 2034 4750 
Q 2819 4750 3233 4129 
Q 3647 3509 3647 2328 
Q 3647 1150 3233 529 
Q 2819 -91 2034 -91 
Q 1250 -91 836 529 
Q 422 1150 422 2328 
Q 422 3509 836 4129 
Q 1250 4750 2034 4750 
z
" transform="scale(0.015625)"/>
       </defs>
       <use xlink:href="#DejaVuSans-32"/>
       <use xlink:href="#DejaVuSans-30" transform="translate(63.623047 0)"/>
       <use xlink:href="#DejaVuSans-30" transform="translate(127.246094 0)"/>
       <use xlink:href="#DejaVuSans-30" transform="translate(190.869141 0)"/>
      </g>
     </g>
    </g>
    <g id="xtick_2">
     <g id="line2d_2">
      <g>
       <use xlink:href="#m192ad50934" x="103.067776" y="173.518125" style="stroke: #000000; stroke-width: 0.8"/>
      </g>
     </g>
     <g id="text_2">
      <!-- 2010 -->
      <g transform="translate(90.342776 188.116562) scale(0.1 -0.1)">
       <defs>
        <path id="DejaVuSans-31" d="M 794 531 
L 1825 531 
L 1825 4091 
L 703 3866 
L 703 4441 
L 1819 4666 
L 2450 4666 
L 2450 531 
L 3481 531 
L 3481 0 
L 794 0 
L 794 531 
z
" transform="scale(0.015625)"/>
       </defs>
       <use xlink:href="#DejaVuSans-32"/>
       <use xlink:href="#DejaVuSans-30" transform="translate(63.623047 0)"/>
       <use xlink:href="#DejaVuSans-31" transform="translate(127.246094 0)"/>
       <use xlink:href="#DejaVuSans-30" transform="translate(190.869141 0)"/>
      </g>
     </g>
    </g>
    <g id="xtick_3">
     <g id="line2d_3">
      <g>
       <use xlink:href="#m192ad50934" x="161.041802" y="173.518125" style="stroke: #000000; stroke-width: 0.8"/>
      </g>
     </g>
     <g id="text_3">
      <!-- 2020 -->
      <g transform="translate(148.316802 188.116562) scale(0.1 -0.1)">
       <use xlink:href="#DejaVuSans-32"/>
       <use xlink:href="#DejaVuSans-30" transform="translate(63.623047 0)"/>
       <use xlink:href="#DejaVuSans-32" transform="translate(127.246094 0)"/>
       <use xlink:href="#DejaVuSans-30" transform="translate(190.869141 0)"/>
      </g>
     </g>
    </g>
    <g id="xtick_4">
     <g id="line2d_4">
      <g>
       <use xlink:href="#m192ad50934" x="219.015828" y="173.518125" style="stroke: #000000; stroke-width: 0.8"/>
      </g>
     </g>
     <g id="text_4">
      <!-- 2030 -->
      <g transform="translate(206.290828 188.116562) scale(0.1 -0.1)">
       <defs>
        <path id="DejaVuSans-33" d="M 2597 2516 
Q 3050 2419 3304 2112 
Q 3559 1806 3559 1356 
Q 3559 666 3084 287 
Q 2609 -91 1734 -91 
Q 1441 -91 1130 -33 
Q 819 25 488 141 
L 488 750 
Q 750 597 1062 519 
Q 1375 441 1716 441 
Q 2309 441 2620 675 
Q 2931 909 2931 1356 
Q 2931 1769 2642 2001 
Q 2353 2234 1838 2234 
L 1294 2234 
L 1294 2753 
L 1863 2753 
Q 2328 2753 2575 2939 
Q 2822 3125 2822 3475 
Q 2822 3834 2567 4026 
Q 2313 4219 1838 4219 
Q 1578 4219 1281 4162 
Q 984 4106 628 3988 
L 628 4550 
Q 988 4650 1302 4700 
Q 1616 4750 1894 4750 
Q 2613 4750 3031 4423 
Q 3450 4097 3450 3541 
Q 3450 3153 3228 2886 
Q 3006 2619 2597 2516 
z
" transform="scale(0.015625)"/>
       </defs>
       <use xlink:href="#DejaVuSans-32"/>
       <use xlink:href="#DejaVuSans-30" transform="translate(63.623047 0)"/>
       <use xlink:href="#DejaVuSans-33" transform="translate(127.246094 0)"/>
       <use xlink:href="#DejaVuSans-30" transform="translate(190.869141 0)"/>
      </g>
     </g>
    </g>
    <g id="text_5">
     <!-- Year -->
     <g transform="translate(135.960795 201.794687) scale(0.1 -0.1)">
      <defs>
       <path id="DejaVuSans-59" d="M -13 4666 
L 666 4666 
L 1959 2747 
L 3244 4666 
L 3922 4666 
L 2272 2222 
L 2272 0 
L 1638 0 
L 1638 2222 
L -13 4666 
z
" transform="scale(0.015625)"/>
       <path id="DejaVuSans-65" d="M 3597 1894 
L 3597 1613 
L 953 1613 
Q 991 1019 1311 708 
Q 1631 397 2203 397 
Q 2534 397 2845 478 
Q 3156 559 3463 722 
L 3463 178 
Q 3153 47 2828 -22 
Q 2503 -91 2169 -91 
Q 1331 -91 842 396 
Q 353 884 353 1716 
Q 353 2575 817 3079 
Q 1281 3584 2069 3584 
Q 2775 3584 3186 3129 
Q 3597 2675 3597 1894 
z
M 3022 2063 
Q 3016 2534 2758 2815 
Q 2500 3097 2075 3097 
Q 1594 3097 1305 2825 
Q 1016 2553 972 2059 
L 3022 2063 
z
" transform="scale(0.015625)"/>
       <path id="DejaVuSans-61" d="M 2194 1759 
Q 1497 1759 1228 1600 
Q 959 1441 959 1056 
Q 959 750 1161 570 
Q 1363 391 1709 391 
Q 2188 391 2477 730 
Q 2766 1069 2766 1631 
L 2766 1759 
L 2194 1759 
z
M 3341 1997 
L 3341 0 
L 2766 0 
L 2766 531 
Q 2569 213 2275 61 
Q 1981 -91 1556 -91 
Q 1019 -91 701 211 
Q 384 513 384 1019 
Q 384 1609 779 1909 
Q 1175 2209 1959 2209 
L 2766 2209 
L 2766 2266 
Q 2766 2663 2505 2880 
Q 2244 3097 1772 3097 
Q 1472 3097 1187 3025 
Q 903 2953 641 2809 
L 641 3341 
Q 956 3463 1253 3523 
Q 1550 3584 1831 3584 
Q 2591 3584 2966 3190 
Q 3341 2797 3341 1997 
z
" transform="scale(0.015625)"/>
       <path id="DejaVuSans-72" d="M 2631 2963 
Q 2534 3019 2420 3045 
Q 2306 3072 2169 3072 
Q 1681 3072 1420 2755 
Q 1159 2438 1159 1844 
L 1159 0 
L 581 0 
L 581 3500 
L 1159 3500 
L 1159 2956 
Q 1341 3275 1631 3429 
Q 1922 3584 2338 3584 
Q 2397 3584 2469 3576 
Q 2541 3569 2628 3553 
L 2631 2963 
z
" transform="scale(0.015625)"/>
      </defs>
      <use xlink:href="#DejaVuSans-59"/>
      <use xlink:href="#DejaVuSans-65" transform="translate(47.833984 0)"/>
      <use xlink:href="#DejaVuSans-61" transform="translate(109.357422 0)"/>
      <use xlink:href="#DejaVuSans-72" transform="translate(170.636719 0)"/>
     </g>
    </g>
   </g>
   <g id="matplotlib.axis_2">
    <g id="ytick_1">
     <g id="line2d_5">
      <defs>
       <path id="mbc68e7b271" d="M 0 0 
L -3.5 0 
" style="stroke: #000000; stroke-width: 0.8"/>
      </defs>
      <g>
       <use xlink:href="#mbc68e7b271" x="45.09375" y="173.518125" style="stroke: #000000; stroke-width: 0.8"/>
      </g>
     </g>
     <g id="text_6">
      <!-- 0 -->
      <g transform="translate(31.73125 177.317344) scale(0.1 -0.1)">
       <use xlink:href="#DejaVuSans-30"/>
      </g>
     </g>
    </g>
    <g id="ytick_2">
     <g id="line2d_6">
      <g>
       <use xlink:href="#mbc68e7b271" x="45.09375" y="150.964091" style="stroke: #000000; stroke-width: 0.8"/>
      </g>
     </g>
     <g id="text_7">
      <!-- 250K -->
      <g transform="translate(12.448437 154.76331) scale(0.1 -0.1)">
       <defs>
        <path id="DejaVuSans-35" d="M 691 4666 
L 3169 4666 
L 3169 4134 
L 1269 4134 
L 1269 2991 
Q 1406 3038 1543 3061 
Q 1681 3084 1819 3084 
Q 2600 3084 3056 2656 
Q 3513 2228 3513 1497 
Q 3513 744 3044 326 
Q 2575 -91 1722 -91 
Q 1428 -91 1123 -41 
Q 819 9 494 109 
L 494 744 
Q 775 591 1075 516 
Q 1375 441 1709 441 
Q 2250 441 2565 725 
Q 2881 1009 2881 1497 
Q 2881 1984 2565 2268 
Q 2250 2553 1709 2553 
Q 1456 2553 1204 2497 
Q 953 2441 691 2322 
L 691 4666 
z
" transform="scale(0.015625)"/>
        <path id="DejaVuSans-4b" d="M 628 4666 
L 1259 4666 
L 1259 2694 
L 3353 4666 
L 4166 4666 
L 1850 2491 
L 4331 0 
L 3500 0 
L 1259 2247 
L 1259 0 
L 628 0 
L 628 4666 
z
" transform="scale(0.015625)"/>
       </defs>
       <use xlink:href="#DejaVuSans-32"/>
       <use xlink:href="#DejaVuSans-35" transform="translate(63.623047 0)"/>
       <use xlink:href="#DejaVuSans-30" transform="translate(127.246094 0)"/>
       <use xlink:href="#DejaVuSans-4b" transform="translate(190.869141 0)"/>
      </g>
     </g>
    </g>
    <g id="ytick_3">
     <g id="line2d_7">
      <g>
       <use xlink:href="#mbc68e7b271" x="45.09375" y="128.410057" style="stroke: #000000; stroke-width: 0.8"/>
      </g>
     </g>
     <g id="text_8">
      <!-- 500K -->
      <g transform="translate(12.448437 132.209276) scale(0.1 -0.1)">
       <use xlink:href="#DejaVuSans-35"/>
       <use xlink:href="#DejaVuSans-30" transform="translate(63.623047 0)"/>
       <use xlink:href="#DejaVuSans-30" transform="translate(127.246094 0)"/>
       <use xlink:href="#DejaVuSans-4b" transform="translate(190.869141 0)"/>
      </g>
     </g>
    </g>
    <g id="ytick_4">
     <g id="line2d_8">
      <g>
       <use xlink:href="#mbc68e7b271" x="45.09375" y="105.856024" style="stroke: #000000; stroke-width: 0.8"/>
      </g>
     </g>
     <g id="text_9">
      <!-- 750K -->
      <g transform="translate(12.448437 109.655242) scale(0.1 -0.1)">
       <defs>
        <path id="DejaVuSans-37" d="M 525 4666 
L 3525 4666 
L 3525 4397 
L 1831 0 
L 1172 0 
L 2766 4134 
L 525 4134 
L 525 4666 
z
" transform="scale(0.015625)"/>
       </defs>
       <use xlink:href="#DejaVuSans-37"/>
       <use xlink:href="#DejaVuSans-35" transform="translate(63.623047 0)"/>
       <use xlink:href="#DejaVuSans-30" transform="translate(127.246094 0)"/>
       <use xlink:href="#DejaVuSans-4b" transform="translate(190.869141 0)"/>
      </g>
     </g>
    </g>
    <g id="ytick_5">
     <g id="line2d_9">
      <g>
       <use xlink:href="#mbc68e7b271" x="45.09375" y="83.30199" style="stroke: #000000; stroke-width: 0.8"/>
      </g>
     </g>
     <g id="text_10">
      <!-- 1M -->
      <g transform="translate(23.103125 87.101208) scale(0.1 -0.1)">
       <defs>
        <path id="DejaVuSans-4d" d="M 628 4666 
L 1569 4666 
L 2759 1491 
L 3956 4666 
L 4897 4666 
L 4897 0 
L 4281 0 
L 4281 4097 
L 3078 897 
L 2444 897 
L 1241 4097 
L 1241 0 
L 628 0 
L 628 4666 
z
" transform="scale(0.015625)"/>
       </defs>
       <use xlink:href="#DejaVuSans-31"/>
       <use xlink:href="#DejaVuSans-4d" transform="translate(63.623047 0)"/>
      </g>
     </g>
    </g>
    <g id="ytick_6">
     <g id="line2d_10">
      <g>
       <use xlink:href="#mbc68e7b271" x="45.09375" y="60.747956" style="stroke: #000000; stroke-width: 0.8"/>
      </g>
     </g>
     <g id="text_11">
      <!-- 1.25M -->
      <g transform="translate(7.2 64.547175) scale(0.1 -0.1)">
       <defs>
        <path id="DejaVuSans-2e" d="M 684 794 
L 1344 794 
L 1344 0 
L 684 0 
L 684 794 
z
" transform="scale(0.015625)"/>
       </defs>
       <use xlink:href="#DejaVuSans-31"/>
       <use xlink:href="#DejaVuSans-2e" transform="translate(63.623047 0)"/>
       <use xlink:href="#DejaVuSans-32" transform="translate(95.410156 0)"/>
       <use xlink:href="#DejaVuSans-35" transform="translate(159.033203 0)"/>
       <use xlink:href="#DejaVuSans-4d" transform="translate(222.65625 0)"/>
      </g>
     </g>
    </g>
    <g id="ytick_7">
     <g id="line2d_11">
      <g>
       <use xlink:href="#mbc68e7b271" x="45.09375" y="38.193922" style="stroke: #000000; stroke-width: 0.8"/>
      </g>
     </g>
     <g id="text_12">
      <!-- 1.5M -->
      <g transform="translate(13.5625 41.993141) scale(0.1 -0.1)">
       <use xlink:href="#DejaVuSans-31"/>
       <use xlink:href="#DejaVuSans-2e" transform="translate(63.623047 0)"/>
       <use xlink:href="#DejaVuSans-35" transform="translate(95.410156 0)"/>
       <use xlink:href="#DejaVuSans-4d" transform="translate(159.033203 0)"/>
      </g>
     </g>
    </g>
   </g>
   <g id="line2d_12">
    <path d="M 45.09375 38.193922 
L 47.992451 37.463038 
L 50.891153 36.857075 
L 53.789854 36.364439 
L 56.688555 35.974181 
L 59.587256 35.676358 
L 62.485958 35.461965 
L 65.384659 35.322795 
L 68.28336 35.251452 
L 71.182062 35.241122 
L 74.080763 35.285816 
L 76.979464 35.380028 
L 79.878166 35.5877 
L 82.776867 35.897457 
L 85.675568 36.298915 
L 88.574269 36.782418 
L 91.472971 37.339453 
L 94.371672 37.96202 
L 97.270373 38.642907 
L 100.169075 39.375771 
L 103.067776 40.154651 
L 105.966477 40.974311 
L 108.865179 41.763754 
L 111.76388 42.52614 
L 114.662581 43.264303 
L 117.561282 43.980888 
L 120.459984 44.678372 
L 123.358685 45.358753 
L 126.257386 46.023737 
L 129.156088 46.67523 
L 132.054789 47.314959 
L 134.95349 47.944022 
L 137.852192 48.577027 
L 140.750893 49.213728 
L 143.649594 49.853921 
L 146.548295 50.497045 
L 149.446997 51.075009 
L 152.345698 51.594505 
L 155.244399 52.06145 
L 158.143101 52.481147 
L 161.041802 52.858366 
L 163.940503 53.197398 
L 166.839205 53.502105 
L 169.737906 53.775955 
L 172.636607 54.022071 
L 175.535308 54.243259 
L 178.43401 54.442042 
L 181.332711 54.62069 
L 184.231412 54.781242 
L 187.130114 54.925531 
L 190.028815 55.055206 
L 192.927516 55.171748 
L 195.826218 55.27649 
L 198.724919 55.370628 
L 201.62362 55.455238 
L 204.522321 55.531287 
L 207.421023 55.599645 
L 210.319724 55.661091 
L 213.218425 55.716329 
L 216.117127 55.765987 
L 219.015828 55.810634 
L 221.914529 55.850777 
L 224.813231 55.886874 
L 227.711932 55.919335 
L 230.610633 55.94853 
L 233.509334 55.97479 
L 236.408036 55.998412 
L 239.306737 56.019665 
L 242.205438 56.038787 
L 245.10414 56.055996 
L 248.002841 56.071484 
" clip-path="url(#pdab1bb0758)" style="fill: none; stroke: #377eb8; stroke-width: 3; stroke-linecap: square"/>
   </g>
   <g id="line2d_13">
    <path d="M 45.09375 145.100042 
L 47.992451 145.235367 
L 50.891153 145.370691 
L 53.789854 145.506015 
L 56.688555 145.641339 
L 59.587256 145.776663 
L 62.485958 145.911988 
L 65.384659 146.047312 
L 68.28336 146.182636 
L 71.182062 146.31796 
L 74.080763 146.453284 
L 76.979464 146.588609 
L 79.878166 146.723933 
L 82.776867 146.859257 
L 85.675568 146.994581 
L 88.574269 147.129905 
L 91.472971 147.26523 
L 94.371672 147.400554 
L 97.270373 147.535878 
L 100.169075 147.671202 
L 103.067776 147.806526 
L 105.966477 147.941851 
L 108.865179 148.077175 
L 111.76388 148.212499 
L 114.662581 148.347823 
L 117.561282 148.483147 
L 120.459984 148.618472 
L 123.358685 148.753796 
L 126.257386 148.88912 
L 129.156088 149.024444 
L 132.054789 149.159768 
L 134.95349 149.295093 
L 137.852192 149.430417 
L 140.750893 149.565741 
L 143.649594 149.701065 
L 146.548295 149.701065 
L 149.446997 149.701065 
L 152.345698 149.701065 
L 155.244399 149.701065 
L 158.143101 149.701065 
L 161.041802 149.701065 
L 163.940503 149.701065 
L 166.839205 149.701065 
L 169.737906 149.701065 
L 172.636607 149.701065 
L 175.535308 149.701065 
L 178.43401 149.701065 
L 181.332711 149.701065 
L 184.231412 149.701065 
L 187.130114 149.701065 
L 190.028815 149.701065 
L 192.927516 149.701065 
L 195.826218 149.701065 
L 198.724919 149.701065 
L 201.62362 149.701065 
L 204.522321 149.701065 
L 207.421023 149.701065 
L 210.319724 149.701065 
L 213.218425 149.701065 
L 216.117127 149.701065 
L 219.015828 149.701065 
L 221.914529 149.701065 
L 224.813231 149.701065 
L 227.711932 149.701065 
L 230.610633 149.701065 
L 233.509334 149.701065 
L 236.408036 149.701065 
L 239.306737 149.701065 
L 242.205438 149.701065 
L 245.10414 149.701065 
L 248.002841 149.701065 
" clip-path="url(#pdab1bb0758)" style="fill: none; stroke: #e41a1c; stroke-width: 3; stroke-linecap: square"/>
   </g>
   <g id="patch_3">
    <path d="M 45.09375 173.518125 
L 45.09375 22.318125 
" style="fill: none; stroke: #000000; stroke-width: 0.8; stroke-linejoin: miter; stroke-linecap: square"/>
   </g>
   <g id="patch_4">
    <path d="M 248.002841 173.518125 
L 248.002841 22.318125 
" style="fill: none"/>
   </g>
   <g id="patch_5">
    <path d="M 45.09375 173.518125 
L 248.002841 173.518125 
" style="fill: none; stroke: #000000; stroke-width: 0.8; stroke-linejoin: miter; stroke-linecap: square"/>
   </g>
   <g id="patch_6">
    <path d="M 45.09375 22.318125 
L 248.002841 22.318125 
" style="fill: none"/>
   </g>
   <g id="text_13">
    <!-- Baseline-0-4 -->
    <g transform="translate(109.144858 16.318125) scale(0.12 -0.12)">
     <defs>
      <path id="DejaVuSans-42" d="M 1259 2228 
L 1259 519 
L 2272 519 
Q 2781 519 3026 730 
Q 3272 941 3272 1375 
Q 3272 1813 3026 2020 
Q 2781 2228 2272 2228 
L 1259 2228 
z
M 1259 4147 
L 1259 2741 
L 2194 2741 
Q 2656 2741 2882 2914 
Q 3109 3088 3109 3444 
Q 3109 3797 2882 3972 
Q 2656 4147 2194 4147 
L 1259 4147 
z
M 628 4666 
L 2241 4666 
Q 2963 4666 3353 4366 
Q 3744 4066 3744 3513 
Q 3744 3084 3544 2831 
Q 3344 2578 2956 2516 
Q 3422 2416 3680 2098 
Q 3938 1781 3938 1306 
Q 3938 681 3513 340 
Q 3088 0 2303 0 
L 628 0 
L 628 4666 
z
" transform="scale(0.015625)"/>
      <path id="DejaVuSans-73" d="M 2834 3397 
L 2834 2853 
Q 2591 2978 2328 3040 
Q 2066 3103 1784 3103 
Q 1356 3103 1142 2972 
Q 928 2841 928 2578 
Q 928 2378 1081 2264 
Q 1234 2150 1697 2047 
L 1894 2003 
Q 2506 1872 2764 1633 
Q 3022 1394 3022 966 
Q 3022 478 2636 193 
Q 2250 -91 1575 -91 
Q 1294 -91 989 -36 
Q 684 19 347 128 
L 347 722 
Q 666 556 975 473 
Q 1284 391 1588 391 
Q 1994 391 2212 530 
Q 2431 669 2431 922 
Q 2431 1156 2273 1281 
Q 2116 1406 1581 1522 
L 1381 1569 
Q 847 1681 609 1914 
Q 372 2147 372 2553 
Q 372 3047 722 3315 
Q 1072 3584 1716 3584 
Q 2034 3584 2315 3537 
Q 2597 3491 2834 3397 
z
" transform="scale(0.015625)"/>
      <path id="DejaVuSans-6c" d="M 603 4863 
L 1178 4863 
L 1178 0 
L 603 0 
L 603 4863 
z
" transform="scale(0.015625)"/>
      <path id="DejaVuSans-69" d="M 603 3500 
L 1178 3500 
L 1178 0 
L 603 0 
L 603 3500 
z
M 603 4863 
L 1178 4863 
L 1178 4134 
L 603 4134 
L 603 4863 
z
" transform="scale(0.015625)"/>
      <path id="DejaVuSans-6e" d="M 3513 2113 
L 3513 0 
L 2938 0 
L 2938 2094 
Q 2938 2591 2744 2837 
Q 2550 3084 2163 3084 
Q 1697 3084 1428 2787 
Q 1159 2491 1159 1978 
L 1159 0 
L 581 0 
L 581 3500 
L 1159 3500 
L 1159 2956 
Q 1366 3272 1645 3428 
Q 1925 3584 2291 3584 
Q 2894 3584 3203 3211 
Q 3513 2838 3513 2113 
z
" transform="scale(0.015625)"/>
      <path id="DejaVuSans-2d" d="M 313 2009 
L 1997 2009 
L 1997 1497 
L 313 1497 
L 313 2009 
z
" transform="scale(0.015625)"/>
      <path id="DejaVuSans-34" d="M 2419 4116 
L 825 1625 
L 2419 1625 
L 2419 4116 
z
M 2253 4666 
L 3047 4666 
L 3047 1625 
L 3713 1625 
L 3713 1100 
L 3047 1100 
L 3047 0 
L 2419 0 
L 2419 1100 
L 313 1100 
L 313 1709 
L 2253 4666 
z
" transform="scale(0.015625)"/>
     </defs>
     <use xlink:href="#DejaVuSans-42"/>
     <use xlink:href="#DejaVuSans-61" transform="translate(68.603516 0)"/>
     <use xlink:href="#DejaVuSans-73" transform="translate(129.882812 0)"/>
     <use xlink:href="#DejaVuSans-65" transform="translate(181.982422 0)"/>
     <use xlink:href="#DejaVuSans-6c" transform="translate(243.505859 0)"/>
     <use xlink:href="#DejaVuSans-69" transform="translate(271.289062 0)"/>
     <use xlink:href="#DejaVuSans-6e" transform="translate(299.072266 0)"/>
     <use xlink:href="#DejaVuSans-65" transform="translate(362.451172 0)"/>
     <use xlink:href="#DejaVuSans-2d" transform="translate(423.974609 0)"/>
     <use xlink:href="#DejaVuSans-30" transform="translate(460.058594 0)"/>
     <use xlink:href="#DejaVuSans-2d" transform="translate(523.681641 0)"/>
     <use xlink:href="#DejaVuSans-34" transform="translate(559.765625 0)"/>
    </g>
   </g>
   <g id="legend_1">
    <g id="patch_7">
     <path d="M 265.148295 114.235312 
L 328.809233 114.235312 
Q 330.809233 114.235312 330.809233 112.235312 
L 330.809233 83.600937 
Q 330.809233 81.600937 328.809233 81.600937 
L 265.148295 81.600937 
Q 263.148295 81.600937 263.148295 83.600937 
L 263.148295 112.235312 
Q 263.148295 114.235312 265.148295 114.235312 
L 265.148295 114.235312 
z
" style="fill: none; opacity: 0"/>
    </g>
    <g id="line2d_14">
     <path d="M 267.148295 89.699375 
L 277.148295 89.699375 
L 287.148295 89.699375 
" style="fill: none; stroke: #377eb8; stroke-width: 3; stroke-linecap: square"/>
    </g>
    <g id="text_14">
     <!-- alive -->
     <g transform="translate(295.148295 93.199375) scale(0.1 -0.1)">
      <defs>
       <path id="DejaVuSans-76" d="M 191 3500 
L 800 3500 
L 1894 563 
L 2988 3500 
L 3597 3500 
L 2284 0 
L 1503 0 
L 191 3500 
z
" transform="scale(0.015625)"/>
      </defs>
      <use xlink:href="#DejaVuSans-61"/>
      <use xlink:href="#DejaVuSans-6c" transform="translate(61.279297 0)"/>
      <use xlink:href="#DejaVuSans-69" transform="translate(89.0625 0)"/>
      <use xlink:href="#DejaVuSans-76" transform="translate(116.845703 0)"/>
      <use xlink:href="#DejaVuSans-65" transform="translate(176.025391 0)"/>
     </g>
    </g>
    <g id="line2d_15">
     <path d="M 267.148295 104.3775 
L 277.148295 104.3775 
L 287.148295 104.3775 
" style="fill: none; stroke: #e41a1c; stroke-width: 3; stroke-linecap: square"/>
    </g>
    <g id="text_15">
     <!-- b_rate -->
     <g transform="translate(295.148295 107.8775) scale(0.1 -0.1)">
      <defs>
       <path id="DejaVuSans-62" d="M 3116 1747 
Q 3116 2381 2855 2742 
Q 2594 3103 2138 3103 
Q 1681 3103 1420 2742 
Q 1159 2381 1159 1747 
Q 1159 1113 1420 752 
Q 1681 391 2138 391 
Q 2594 391 2855 752 
Q 3116 1113 3116 1747 
z
M 1159 2969 
Q 1341 3281 1617 3432 
Q 1894 3584 2278 3584 
Q 2916 3584 3314 3078 
Q 3713 2572 3713 1747 
Q 3713 922 3314 415 
Q 2916 -91 2278 -91 
Q 1894 -91 1617 61 
Q 1341 213 1159 525 
L 1159 0 
L 581 0 
L 581 4863 
L 1159 4863 
L 1159 2969 
z
" transform="scale(0.015625)"/>
       <path id="DejaVuSans-5f" d="M 3263 -1063 
L 3263 -1509 
L -63 -1509 
L -63 -1063 
L 3263 -1063 
z
" transform="scale(0.015625)"/>
       <path id="DejaVuSans-74" d="M 1172 4494 
L 1172 3500 
L 2356 3500 
L 2356 3053 
L 1172 3053 
L 1172 1153 
Q 1172 725 1289 603 
Q 1406 481 1766 481 
L 2356 481 
L 2356 0 
L 1766 0 
Q 1100 0 847 248 
Q 594 497 594 1153 
L 594 3053 
L 172 3053 
L 172 3500 
L 594 3500 
L 594 4494 
L 1172 4494 
z
" transform="scale(0.015625)"/>
      </defs>
      <use xlink:href="#DejaVuSans-62"/>
      <use xlink:href="#DejaVuSans-5f" transform="translate(63.476562 0)"/>
      <use xlink:href="#DejaVuSans-72" transform="translate(113.476562 0)"/>
      <use xlink:href="#DejaVuSans-61" transform="translate(154.589844 0)"/>
      <use xlink:href="#DejaVuSans-74" transform="translate(215.869141 0)"/>
      <use xlink:href="#DejaVuSans-65" transform="translate(255.078125 0)"/>
     </g>
    </g>
   </g>
  </g>
  <g id="axes_2">
   <g id="patch_8">
    <path d="M 349.457386 173.518125 
L 552.366477 173.518125 
L 552.366477 22.318125 
L 349.457386 22.318125 
L 349.457386 173.518125 
z
" style="fill: none; opacity: 0"/>
   </g>
   <g id="PathCollection_3">
    <defs>
     <path id="C2_0_984800465d" d="M 0 3.162278 
C 0.838646 3.162278 1.643056 2.82908 2.236068 2.236068 
C 2.82908 1.643056 3.162278 0.838646 3.162278 -0 
C 3.162278 -0.838646 2.82908 -1.643056 2.236068 -2.236068 
C 1.643056 -2.82908 0.838646 -3.162278 0 -3.162278 
C -0.838646 -3.162278 -1.643056 -2.82908 -2.236068 -2.236068 
C -2.82908 -1.643056 -3.162278 -0.838646 -3.162278 0 
C -3.162278 0.838646 -2.82908 1.643056 -2.236068 2.236068 
C -1.643056 2.82908 -0.838646 3.162278 0 3.162278 
z
"/>
    </defs>
    <g clip-path="url(#pebfb8a3a05)">
     <use xlink:href="#C2_0_984800465d" x="349.457386" y="36.375268" style="fill: none; stroke: #377eb8; stroke-width: 3"/>
    </g>
    <g clip-path="url(#pebfb8a3a05)">
     <use xlink:href="#C2_0_984800465d" x="355.254789" y="38.158125" style="fill: none; stroke: #377eb8; stroke-width: 3"/>
    </g>
    <g clip-path="url(#pebfb8a3a05)">
     <use xlink:href="#C2_0_984800465d" x="361.052192" y="39.666696" style="fill: none; stroke: #377eb8; stroke-width: 3"/>
    </g>
    <g clip-path="url(#pebfb8a3a05)">
     <use xlink:href="#C2_0_984800465d" x="366.849594" y="41.038125" style="fill: none; stroke: #377eb8; stroke-width: 3"/>
    </g>
    <g clip-path="url(#pebfb8a3a05)">
     <use xlink:href="#C2_0_984800465d" x="372.646997" y="42.203839" style="fill: none; stroke: #377eb8; stroke-width: 3"/>
    </g>
    <g clip-path="url(#pebfb8a3a05)">
     <use xlink:href="#C2_0_984800465d" x="378.444399" y="43.163839" style="fill: none; stroke: #377eb8; stroke-width: 3"/>
    </g>
    <g clip-path="url(#pebfb8a3a05)">
     <use xlink:href="#C2_0_984800465d" x="384.241802" y="44.055268" style="fill: none; stroke: #377eb8; stroke-width: 3"/>
    </g>
    <g clip-path="url(#pebfb8a3a05)">
     <use xlink:href="#C2_0_984800465d" x="390.039205" y="44.603839" style="fill: none; stroke: #377eb8; stroke-width: 3"/>
    </g>
    <g clip-path="url(#pebfb8a3a05)">
     <use xlink:href="#C2_0_984800465d" x="395.836607" y="44.946696" style="fill: none; stroke: #377eb8; stroke-width: 3"/>
    </g>
    <g clip-path="url(#pebfb8a3a05)">
     <use xlink:href="#C2_0_984800465d" x="401.63401" y="45.152411" style="fill: none; stroke: #377eb8; stroke-width: 3"/>
    </g>
    <g clip-path="url(#pebfb8a3a05)">
     <use xlink:href="#C2_0_984800465d" x="407.431412" y="45.220982" style="fill: none; stroke: #377eb8; stroke-width: 3"/>
    </g>
    <g clip-path="url(#pebfb8a3a05)">
     <use xlink:href="#C2_0_984800465d" x="413.228815" y="45.358125" style="fill: none; stroke: #377eb8; stroke-width: 3"/>
    </g>
    <g clip-path="url(#pebfb8a3a05)">
     <use xlink:href="#C2_0_984800465d" x="419.026218" y="45.563839" style="fill: none; stroke: #377eb8; stroke-width: 3"/>
    </g>
    <g clip-path="url(#pebfb8a3a05)">
     <use xlink:href="#C2_0_984800465d" x="424.82362" y="45.838125" style="fill: none; stroke: #377eb8; stroke-width: 3"/>
    </g>
    <g clip-path="url(#pebfb8a3a05)">
     <use xlink:href="#C2_0_984800465d" x="430.621023" y="46.249554" style="fill: none; stroke: #377eb8; stroke-width: 3"/>
    </g>
    <g clip-path="url(#pebfb8a3a05)">
     <use xlink:href="#C2_0_984800465d" x="436.418425" y="46.729554" style="fill: none; stroke: #377eb8; stroke-width: 3"/>
    </g>
    <g clip-path="url(#pebfb8a3a05)">
     <use xlink:href="#C2_0_984800465d" x="442.215828" y="47.278125" style="fill: none; stroke: #377eb8; stroke-width: 3"/>
    </g>
    <g clip-path="url(#pebfb8a3a05)">
     <use xlink:href="#C2_0_984800465d" x="448.013231" y="47.895268" style="fill: none; stroke: #377eb8; stroke-width: 3"/>
    </g>
   </g>
   <g id="matplotlib.axis_3">
    <g id="xtick_5">
     <g id="line2d_16">
      <g>
       <use xlink:href="#m192ad50934" x="349.457386" y="173.518125" style="stroke: #000000; stroke-width: 0.8"/>
      </g>
     </g>
     <g id="text_16">
      <!-- 2000 -->
      <g transform="translate(336.732386 188.116562) scale(0.1 -0.1)">
       <use xlink:href="#DejaVuSans-32"/>
       <use xlink:href="#DejaVuSans-30" transform="translate(63.623047 0)"/>
       <use xlink:href="#DejaVuSans-30" transform="translate(127.246094 0)"/>
       <use xlink:href="#DejaVuSans-30" transform="translate(190.869141 0)"/>
      </g>
     </g>
    </g>
    <g id="xtick_6">
     <g id="line2d_17">
      <g>
       <use xlink:href="#m192ad50934" x="407.431412" y="173.518125" style="stroke: #000000; stroke-width: 0.8"/>
      </g>
     </g>
     <g id="text_17">
      <!-- 2010 -->
      <g transform="translate(394.706412 188.116562) scale(0.1 -0.1)">
       <use xlink:href="#DejaVuSans-32"/>
       <use xlink:href="#DejaVuSans-30" transform="translate(63.623047 0)"/>
       <use xlink:href="#DejaVuSans-31" transform="translate(127.246094 0)"/>
       <use xlink:href="#DejaVuSans-30" transform="translate(190.869141 0)"/>
      </g>
     </g>
    </g>
    <g id="xtick_7">
     <g id="line2d_18">
      <g>
       <use xlink:href="#m192ad50934" x="465.405438" y="173.518125" style="stroke: #000000; stroke-width: 0.8"/>
      </g>
     </g>
     <g id="text_18">
      <!-- 2020 -->
      <g transform="translate(452.680438 188.116562) scale(0.1 -0.1)">
       <use xlink:href="#DejaVuSans-32"/>
       <use xlink:href="#DejaVuSans-30" transform="translate(63.623047 0)"/>
       <use xlink:href="#DejaVuSans-32" transform="translate(127.246094 0)"/>
       <use xlink:href="#DejaVuSans-30" transform="translate(190.869141 0)"/>
      </g>
     </g>
    </g>
    <g id="xtick_8">
     <g id="line2d_19">
      <g>
       <use xlink:href="#m192ad50934" x="523.379464" y="173.518125" style="stroke: #000000; stroke-width: 0.8"/>
      </g>
     </g>
     <g id="text_19">
      <!-- 2030 -->
      <g transform="translate(510.654464 188.116562) scale(0.1 -0.1)">
       <use xlink:href="#DejaVuSans-32"/>
       <use xlink:href="#DejaVuSans-30" transform="translate(63.623047 0)"/>
       <use xlink:href="#DejaVuSans-33" transform="translate(127.246094 0)"/>
       <use xlink:href="#DejaVuSans-30" transform="translate(190.869141 0)"/>
      </g>
     </g>
    </g>
    <g id="text_20">
     <!-- Year -->
     <g transform="translate(440.324432 201.794687) scale(0.1 -0.1)">
      <use xlink:href="#DejaVuSans-59"/>
      <use xlink:href="#DejaVuSans-65" transform="translate(47.833984 0)"/>
      <use xlink:href="#DejaVuSans-61" transform="translate(109.357422 0)"/>
      <use xlink:href="#DejaVuSans-72" transform="translate(170.636719 0)"/>
     </g>
    </g>
   </g>
   <g id="matplotlib.axis_4">
    <g id="ytick_8">
     <g id="line2d_20">
      <g>
       <use xlink:href="#mbc68e7b271" x="349.457386" y="173.518125" style="stroke: #000000; stroke-width: 0.8"/>
      </g>
     </g>
     <g id="text_21">
      <!-- 0 -->
      <g transform="translate(336.094886 177.317344) scale(0.1 -0.1)">
       <use xlink:href="#DejaVuSans-30"/>
      </g>
     </g>
    </g>
    <g id="ytick_9">
     <g id="line2d_21">
      <g>
       <use xlink:href="#mbc68e7b271" x="349.457386" y="150.660982" style="stroke: #000000; stroke-width: 0.8"/>
      </g>
     </g>
     <g id="text_22">
      <!-- 500K -->
      <g transform="translate(316.812074 154.460201) scale(0.1 -0.1)">
       <use xlink:href="#DejaVuSans-35"/>
       <use xlink:href="#DejaVuSans-30" transform="translate(63.623047 0)"/>
       <use xlink:href="#DejaVuSans-30" transform="translate(127.246094 0)"/>
       <use xlink:href="#DejaVuSans-4b" transform="translate(190.869141 0)"/>
      </g>
     </g>
    </g>
    <g id="ytick_10">
     <g id="line2d_22">
      <g>
       <use xlink:href="#mbc68e7b271" x="349.457386" y="127.803839" style="stroke: #000000; stroke-width: 0.8"/>
      </g>
     </g>
     <g id="text_23">
      <!-- 1M -->
      <g transform="translate(327.466761 131.603058) scale(0.1 -0.1)">
       <use xlink:href="#DejaVuSans-31"/>
       <use xlink:href="#DejaVuSans-4d" transform="translate(63.623047 0)"/>
      </g>
     </g>
    </g>
    <g id="ytick_11">
     <g id="line2d_23">
      <g>
       <use xlink:href="#mbc68e7b271" x="349.457386" y="104.946696" style="stroke: #000000; stroke-width: 0.8"/>
      </g>
     </g>
     <g id="text_24">
      <!-- 1.5M -->
      <g transform="translate(317.926136 108.745915) scale(0.1 -0.1)">
       <use xlink:href="#DejaVuSans-31"/>
       <use xlink:href="#DejaVuSans-2e" transform="translate(63.623047 0)"/>
       <use xlink:href="#DejaVuSans-35" transform="translate(95.410156 0)"/>
       <use xlink:href="#DejaVuSans-4d" transform="translate(159.033203 0)"/>
      </g>
     </g>
    </g>
    <g id="ytick_12">
     <g id="line2d_24">
      <g>
       <use xlink:href="#mbc68e7b271" x="349.457386" y="82.089554" style="stroke: #000000; stroke-width: 0.8"/>
      </g>
     </g>
     <g id="text_25">
      <!-- 2M -->
      <g transform="translate(327.466761 85.888772) scale(0.1 -0.1)">
       <use xlink:href="#DejaVuSans-32"/>
       <use xlink:href="#DejaVuSans-4d" transform="translate(63.623047 0)"/>
      </g>
     </g>
    </g>
    <g id="ytick_13">
     <g id="line2d_25">
      <g>
       <use xlink:href="#mbc68e7b271" x="349.457386" y="59.232411" style="stroke: #000000; stroke-width: 0.8"/>
      </g>
     </g>
     <g id="text_26">
      <!-- 2.5M -->
      <g transform="translate(317.926136 63.031629) scale(0.1 -0.1)">
       <use xlink:href="#DejaVuSans-32"/>
       <use xlink:href="#DejaVuSans-2e" transform="translate(63.623047 0)"/>
       <use xlink:href="#DejaVuSans-35" transform="translate(95.410156 0)"/>
       <use xlink:href="#DejaVuSans-4d" transform="translate(159.033203 0)"/>
      </g>
     </g>
    </g>
    <g id="ytick_14">
     <g id="line2d_26">
      <g>
       <use xlink:href="#mbc68e7b271" x="349.457386" y="36.375268" style="stroke: #000000; stroke-width: 0.8"/>
      </g>
     </g>
     <g id="text_27">
      <!-- 3M -->
      <g transform="translate(327.466761 40.174487) scale(0.1 -0.1)">
       <use xlink:href="#DejaVuSans-33"/>
       <use xlink:href="#DejaVuSans-4d" transform="translate(63.623047 0)"/>
      </g>
     </g>
    </g>
   </g>
   <g id="line2d_27">
    <path d="M 349.457386 36.375268 
L 352.356088 37.491634 
L 355.254789 38.489396 
L 358.15349 39.382518 
L 361.052192 40.181968 
L 363.950893 40.897723 
L 366.849594 41.538907 
L 369.748295 42.11374 
L 372.646997 42.629632 
L 375.545698 43.093238 
L 378.444399 43.510501 
L 381.343101 43.886761 
L 384.241802 44.191845 
L 387.140503 44.435318 
L 390.039205 44.625595 
L 392.937906 44.77027 
L 395.836607 44.875949 
L 398.735308 44.948616 
L 401.63401 44.993648 
L 404.532711 45.015749 
L 407.431412 45.019185 
L 410.330114 45.007637 
L 413.228815 45.017955 
L 416.127516 45.047537 
L 419.026218 45.094012 
L 421.924919 45.155259 
L 424.82362 45.229387 
L 427.722321 45.314683 
L 430.621023 45.409999 
L 433.519724 45.513877 
L 436.418425 45.625032 
L 439.317127 45.742733 
L 442.215828 45.886853 
L 445.114529 46.056047 
L 448.013231 46.249061 
L 450.911932 46.465004 
L 453.810633 46.702905 
L 456.709334 46.95824 
L 459.608036 47.227144 
L 462.506737 47.506254 
L 465.405438 47.792641 
L 468.30414 48.083768 
L 471.202841 48.377447 
L 474.101542 48.671796 
L 477.000244 48.965206 
L 479.898945 49.256308 
L 482.797646 49.543946 
L 485.696347 49.827152 
L 488.595049 50.105123 
L 491.49375 50.3772 
L 494.392451 50.642851 
L 497.291153 50.901657 
L 500.189854 51.153295 
L 503.088555 51.397525 
L 505.987256 51.634183 
L 508.885958 51.863166 
L 511.784659 52.084429 
L 514.68336 52.297969 
L 517.582062 52.503827 
L 520.480763 52.702077 
L 523.379464 52.89282 
L 526.278166 53.076182 
L 529.176867 53.252308 
L 532.075568 53.421359 
L 534.974269 53.583511 
L 537.872971 53.738946 
L 540.771672 53.887856 
L 543.670373 54.030438 
L 546.569075 54.166893 
L 549.467776 54.297423 
L 552.366477 54.422232 
" clip-path="url(#pebfb8a3a05)" style="fill: none; stroke: #377eb8; stroke-width: 3; stroke-linecap: square"/>
   </g>
   <g id="line2d_28">
    <path d="M 349.457386 173.518125 
L 352.356088 173.518125 
L 355.254789 173.518125 
L 358.15349 173.518125 
L 361.052192 173.518125 
L 363.950893 173.518125 
L 366.849594 173.518125 
L 369.748295 173.518125 
L 372.646997 173.518125 
L 375.545698 173.518125 
L 378.444399 173.518125 
L 381.343101 173.518125 
L 384.241802 173.518125 
L 387.140503 173.518125 
L 390.039205 173.518125 
L 392.937906 173.518125 
L 395.836607 173.518125 
L 398.735308 173.518125 
L 401.63401 173.518125 
L 404.532711 173.518125 
L 407.431412 173.518125 
L 410.330114 173.518125 
L 413.228815 173.518125 
L 416.127516 173.518125 
L 419.026218 173.518125 
L 421.924919 173.518125 
L 424.82362 173.518125 
L 427.722321 173.518125 
L 430.621023 173.518125 
L 433.519724 173.518125 
L 436.418425 173.518125 
L 439.317127 173.518125 
L 442.215828 173.518125 
L 445.114529 173.518125 
L 448.013231 173.518125 
L 450.911932 173.518125 
L 453.810633 173.518125 
L 456.709334 173.518125 
L 459.608036 173.518125 
L 462.506737 173.518125 
L 465.405438 173.518125 
L 468.30414 173.518125 
L 471.202841 173.518125 
L 474.101542 173.518125 
L 477.000244 173.518125 
L 479.898945 173.518125 
L 482.797646 173.518125 
L 485.696347 173.518125 
L 488.595049 173.518125 
L 491.49375 173.518125 
L 494.392451 173.518125 
L 497.291153 173.518125 
L 500.189854 173.518125 
L 503.088555 173.518125 
L 505.987256 173.518125 
L 508.885958 173.518125 
L 511.784659 173.518125 
L 514.68336 173.518125 
L 517.582062 173.518125 
L 520.480763 173.518125 
L 523.379464 173.518125 
L 526.278166 173.518125 
L 529.176867 173.518125 
L 532.075568 173.518125 
L 534.974269 173.518125 
L 537.872971 173.518125 
L 540.771672 173.518125 
L 543.670373 173.518125 
L 546.569075 173.518125 
L 549.467776 173.518125 
L 552.366477 173.518125 
" clip-path="url(#pebfb8a3a05)" style="fill: none; stroke: #e41a1c; stroke-width: 3; stroke-linecap: square"/>
   </g>
   <g id="patch_9">
    <path d="M 349.457386 173.518125 
L 349.457386 22.318125 
" style="fill: none; stroke: #000000; stroke-width: 0.8; stroke-linejoin: miter; stroke-linecap: square"/>
   </g>
   <g id="patch_10">
    <path d="M 552.366477 173.518125 
L 552.366477 22.318125 
" style="fill: none"/>
   </g>
   <g id="patch_11">
    <path d="M 349.457386 173.518125 
L 552.366477 173.518125 
" style="fill: none; stroke: #000000; stroke-width: 0.8; stroke-linejoin: miter; stroke-linecap: square"/>
   </g>
   <g id="patch_12">
    <path d="M 349.457386 22.318125 
L 552.366477 22.318125 
" style="fill: none"/>
   </g>
   <g id="text_28">
    <!-- Baseline-5-14 -->
    <g transform="translate(409.690994 16.318125) scale(0.12 -0.12)">
     <use xlink:href="#DejaVuSans-42"/>
     <use xlink:href="#DejaVuSans-61" transform="translate(68.603516 0)"/>
     <use xlink:href="#DejaVuSans-73" transform="translate(129.882812 0)"/>
     <use xlink:href="#DejaVuSans-65" transform="translate(181.982422 0)"/>
     <use xlink:href="#DejaVuSans-6c" transform="translate(243.505859 0)"/>
     <use xlink:href="#DejaVuSans-69" transform="translate(271.289062 0)"/>
     <use xlink:href="#DejaVuSans-6e" transform="translate(299.072266 0)"/>
     <use xlink:href="#DejaVuSans-65" transform="translate(362.451172 0)"/>
     <use xlink:href="#DejaVuSans-2d" transform="translate(423.974609 0)"/>
     <use xlink:href="#DejaVuSans-35" transform="translate(460.058594 0)"/>
     <use xlink:href="#DejaVuSans-2d" transform="translate(523.681641 0)"/>
     <use xlink:href="#DejaVuSans-31" transform="translate(559.765625 0)"/>
     <use xlink:href="#DejaVuSans-34" transform="translate(623.388672 0)"/>
    </g>
   </g>
   <g id="legend_2">
    <g id="patch_13">
     <path d="M 569.511932 114.235312 
L 633.172869 114.235312 
Q 635.172869 114.235312 635.172869 112.235312 
L 635.172869 83.600937 
Q 635.172869 81.600937 633.172869 81.600937 
L 569.511932 81.600937 
Q 567.511932 81.600937 567.511932 83.600937 
L 567.511932 112.235312 
Q 567.511932 114.235312 569.511932 114.235312 
L 569.511932 114.235312 
z
" style="fill: none; opacity: 0"/>
    </g>
    <g id="line2d_29">
     <path d="M 571.511932 89.699375 
L 581.511932 89.699375 
L 591.511932 89.699375 
" style="fill: none; stroke: #377eb8; stroke-width: 3; stroke-linecap: square"/>
    </g>
    <g id="text_29">
     <!-- alive -->
     <g transform="translate(599.511932 93.199375) scale(0.1 -0.1)">
      <use xlink:href="#DejaVuSans-61"/>
      <use xlink:href="#DejaVuSans-6c" transform="translate(61.279297 0)"/>
      <use xlink:href="#DejaVuSans-69" transform="translate(89.0625 0)"/>
      <use xlink:href="#DejaVuSans-76" transform="translate(116.845703 0)"/>
      <use xlink:href="#DejaVuSans-65" transform="translate(176.025391 0)"/>
     </g>
    </g>
    <g id="line2d_30">
     <path d="M 571.511932 104.3775 
L 581.511932 104.3775 
L 591.511932 104.3775 
" style="fill: none; stroke: #e41a1c; stroke-width: 3; stroke-linecap: square"/>
    </g>
    <g id="text_30">
     <!-- b_rate -->
     <g transform="translate(599.511932 107.8775) scale(0.1 -0.1)">
      <use xlink:href="#DejaVuSans-62"/>
      <use xlink:href="#DejaVuSans-5f" transform="translate(63.476562 0)"/>
      <use xlink:href="#DejaVuSans-72" transform="translate(113.476562 0)"/>
      <use xlink:href="#DejaVuSans-61" transform="translate(154.589844 0)"/>
      <use xlink:href="#DejaVuSans-74" transform="translate(215.869141 0)"/>
      <use xlink:href="#DejaVuSans-65" transform="translate(255.078125 0)"/>
     </g>
    </g>
   </g>
  </g>
  <g id="axes_3">
   <g id="patch_14">
    <path d="M 45.09375 354.958125 
L 248.002841 354.958125 
L 248.002841 203.758125 
L 45.09375 203.758125 
L 45.09375 354.958125 
z
" style="fill: none; opacity: 0"/>
   </g>
   <g id="PathCollection_4">
    <defs>
     <path id="C3_0_da80d7dbc9" d="M 0 3.162278 
C 0.838646 3.162278 1.643056 2.82908 2.236068 2.236068 
C 2.82908 1.643056 3.162278 0.838646 3.162278 -0 
C 3.162278 -0.838646 2.82908 -1.643056 2.236068 -2.236068 
C 1.643056 -2.82908 0.838646 -3.162278 0 -3.162278 
C -0.838646 -3.162278 -1.643056 -2.82908 -2.236068 -2.236068 
C -2.82908 -1.643056 -3.162278 -0.838646 -3.162278 0 
C -3.162278 0.838646 -2.82908 1.643056 -2.236068 2.236068 
C -1.643056 2.82908 -0.838646 3.162278 0 3.162278 
z
"/>
    </defs>
    <g clip-path="url(#p2142890eb5)">
     <use xlink:href="#C3_0_da80d7dbc9" x="45.09375" y="219.521766" style="fill: none; stroke: #377eb8; stroke-width: 3"/>
    </g>
    <g clip-path="url(#p2142890eb5)">
     <use xlink:href="#C3_0_da80d7dbc9" x="50.891153" y="218.980021" style="fill: none; stroke: #377eb8; stroke-width: 3"/>
    </g>
    <g clip-path="url(#p2142890eb5)">
     <use xlink:href="#C3_0_da80d7dbc9" x="56.688555" y="218.560168" style="fill: none; stroke: #377eb8; stroke-width: 3"/>
    </g>
    <g clip-path="url(#p2142890eb5)">
     <use xlink:href="#C3_0_da80d7dbc9" x="62.485958" y="218.235121" style="fill: none; stroke: #377eb8; stroke-width: 3"/>
    </g>
    <g clip-path="url(#p2142890eb5)">
     <use xlink:href="#C3_0_da80d7dbc9" x="68.28336" y="218.018422" style="fill: none; stroke: #377eb8; stroke-width: 3"/>
    </g>
    <g clip-path="url(#p2142890eb5)">
     <use xlink:href="#C3_0_da80d7dbc9" x="74.080763" y="217.869442" style="fill: none; stroke: #377eb8; stroke-width: 3"/>
    </g>
    <g clip-path="url(#p2142890eb5)">
     <use xlink:href="#C3_0_da80d7dbc9" x="79.878166" y="217.815268" style="fill: none; stroke: #377eb8; stroke-width: 3"/>
    </g>
    <g clip-path="url(#p2142890eb5)">
     <use xlink:href="#C3_0_da80d7dbc9" x="85.675568" y="217.842355" style="fill: none; stroke: #377eb8; stroke-width: 3"/>
    </g>
    <g clip-path="url(#p2142890eb5)">
     <use xlink:href="#C3_0_da80d7dbc9" x="91.472971" y="217.937161" style="fill: none; stroke: #377eb8; stroke-width: 3"/>
    </g>
    <g clip-path="url(#p2142890eb5)">
     <use xlink:href="#C3_0_da80d7dbc9" x="97.270373" y="218.086141" style="fill: none; stroke: #377eb8; stroke-width: 3"/>
    </g>
    <g clip-path="url(#p2142890eb5)">
     <use xlink:href="#C3_0_da80d7dbc9" x="103.067776" y="218.302839" style="fill: none; stroke: #377eb8; stroke-width: 3"/>
    </g>
    <g clip-path="url(#p2142890eb5)">
     <use xlink:href="#C3_0_da80d7dbc9" x="108.865179" y="218.546624" style="fill: none; stroke: #377eb8; stroke-width: 3"/>
    </g>
    <g clip-path="url(#p2142890eb5)">
     <use xlink:href="#C3_0_da80d7dbc9" x="114.662581" y="218.831041" style="fill: none; stroke: #377eb8; stroke-width: 3"/>
    </g>
    <g clip-path="url(#p2142890eb5)">
     <use xlink:href="#C3_0_da80d7dbc9" x="120.459984" y="219.156088" style="fill: none; stroke: #377eb8; stroke-width: 3"/>
    </g>
    <g clip-path="url(#p2142890eb5)">
     <use xlink:href="#C3_0_da80d7dbc9" x="126.257386" y="219.494679" style="fill: none; stroke: #377eb8; stroke-width: 3"/>
    </g>
    <g clip-path="url(#p2142890eb5)">
     <use xlink:href="#C3_0_da80d7dbc9" x="132.054789" y="219.846813" style="fill: none; stroke: #377eb8; stroke-width: 3"/>
    </g>
    <g clip-path="url(#p2142890eb5)">
     <use xlink:href="#C3_0_da80d7dbc9" x="137.852192" y="220.198948" style="fill: none; stroke: #377eb8; stroke-width: 3"/>
    </g>
    <g clip-path="url(#p2142890eb5)">
     <use xlink:href="#C3_0_da80d7dbc9" x="143.649594" y="220.564626" style="fill: none; stroke: #377eb8; stroke-width: 3"/>
    </g>
   </g>
   <g id="matplotlib.axis_5">
    <g id="xtick_9">
     <g id="line2d_31">
      <g>
       <use xlink:href="#m192ad50934" x="45.09375" y="354.958125" style="stroke: #000000; stroke-width: 0.8"/>
      </g>
     </g>
     <g id="text_31">
      <!-- 2000 -->
      <g transform="translate(32.36875 369.556562) scale(0.1 -0.1)">
       <use xlink:href="#DejaVuSans-32"/>
       <use xlink:href="#DejaVuSans-30" transform="translate(63.623047 0)"/>
       <use xlink:href="#DejaVuSans-30" transform="translate(127.246094 0)"/>
       <use xlink:href="#DejaVuSans-30" transform="translate(190.869141 0)"/>
      </g>
     </g>
    </g>
    <g id="xtick_10">
     <g id="line2d_32">
      <g>
       <use xlink:href="#m192ad50934" x="103.067776" y="354.958125" style="stroke: #000000; stroke-width: 0.8"/>
      </g>
     </g>
     <g id="text_32">
      <!-- 2010 -->
      <g transform="translate(90.342776 369.556562) scale(0.1 -0.1)">
       <use xlink:href="#DejaVuSans-32"/>
       <use xlink:href="#DejaVuSans-30" transform="translate(63.623047 0)"/>
       <use xlink:href="#DejaVuSans-31" transform="translate(127.246094 0)"/>
       <use xlink:href="#DejaVuSans-30" transform="translate(190.869141 0)"/>
      </g>
     </g>
    </g>
    <g id="xtick_11">
     <g id="line2d_33">
      <g>
       <use xlink:href="#m192ad50934" x="161.041802" y="354.958125" style="stroke: #000000; stroke-width: 0.8"/>
      </g>
     </g>
     <g id="text_33">
      <!-- 2020 -->
      <g transform="translate(148.316802 369.556562) scale(0.1 -0.1)">
       <use xlink:href="#DejaVuSans-32"/>
       <use xlink:href="#DejaVuSans-30" transform="translate(63.623047 0)"/>
       <use xlink:href="#DejaVuSans-32" transform="translate(127.246094 0)"/>
       <use xlink:href="#DejaVuSans-30" transform="translate(190.869141 0)"/>
      </g>
     </g>
    </g>
    <g id="xtick_12">
     <g id="line2d_34">
      <g>
       <use xlink:href="#m192ad50934" x="219.015828" y="354.958125" style="stroke: #000000; stroke-width: 0.8"/>
      </g>
     </g>
     <g id="text_34">
      <!-- 2030 -->
      <g transform="translate(206.290828 369.556562) scale(0.1 -0.1)">
       <use xlink:href="#DejaVuSans-32"/>
       <use xlink:href="#DejaVuSans-30" transform="translate(63.623047 0)"/>
       <use xlink:href="#DejaVuSans-33" transform="translate(127.246094 0)"/>
       <use xlink:href="#DejaVuSans-30" transform="translate(190.869141 0)"/>
      </g>
     </g>
    </g>
    <g id="text_35">
     <!-- Year -->
     <g transform="translate(135.960795 383.234687) scale(0.1 -0.1)">
      <use xlink:href="#DejaVuSans-59"/>
      <use xlink:href="#DejaVuSans-65" transform="translate(47.833984 0)"/>
      <use xlink:href="#DejaVuSans-61" transform="translate(109.357422 0)"/>
      <use xlink:href="#DejaVuSans-72" transform="translate(170.636719 0)"/>
     </g>
    </g>
   </g>
   <g id="matplotlib.axis_6">
    <g id="ytick_15">
     <g id="line2d_35">
      <g>
       <use xlink:href="#mbc68e7b271" x="45.09375" y="354.958125" style="stroke: #000000; stroke-width: 0.8"/>
      </g>
     </g>
     <g id="text_36">
      <!-- 0 -->
      <g transform="translate(31.73125 358.757344) scale(0.1 -0.1)">
       <use xlink:href="#DejaVuSans-30"/>
      </g>
     </g>
    </g>
    <g id="ytick_16">
     <g id="line2d_36">
      <g>
       <use xlink:href="#mbc68e7b271" x="45.09375" y="332.385398" style="stroke: #000000; stroke-width: 0.8"/>
      </g>
     </g>
     <g id="text_37">
      <!-- 2.5M -->
      <g transform="translate(13.5625 336.184617) scale(0.1 -0.1)">
       <use xlink:href="#DejaVuSans-32"/>
       <use xlink:href="#DejaVuSans-2e" transform="translate(63.623047 0)"/>
       <use xlink:href="#DejaVuSans-35" transform="translate(95.410156 0)"/>
       <use xlink:href="#DejaVuSans-4d" transform="translate(159.033203 0)"/>
      </g>
     </g>
    </g>
    <g id="ytick_17">
     <g id="line2d_37">
      <g>
       <use xlink:href="#mbc68e7b271" x="45.09375" y="309.812672" style="stroke: #000000; stroke-width: 0.8"/>
      </g>
     </g>
     <g id="text_38">
      <!-- 5M -->
      <g transform="translate(23.103125 313.611891) scale(0.1 -0.1)">
       <use xlink:href="#DejaVuSans-35"/>
       <use xlink:href="#DejaVuSans-4d" transform="translate(63.623047 0)"/>
      </g>
     </g>
    </g>
    <g id="ytick_18">
     <g id="line2d_38">
      <g>
       <use xlink:href="#mbc68e7b271" x="45.09375" y="287.239945" style="stroke: #000000; stroke-width: 0.8"/>
      </g>
     </g>
     <g id="text_39">
      <!-- 7.5M -->
      <g transform="translate(13.5625 291.039164) scale(0.1 -0.1)">
       <use xlink:href="#DejaVuSans-37"/>
       <use xlink:href="#DejaVuSans-2e" transform="translate(63.623047 0)"/>
       <use xlink:href="#DejaVuSans-35" transform="translate(95.410156 0)"/>
       <use xlink:href="#DejaVuSans-4d" transform="translate(159.033203 0)"/>
      </g>
     </g>
    </g>
    <g id="ytick_19">
     <g id="line2d_39">
      <g>
       <use xlink:href="#mbc68e7b271" x="45.09375" y="264.667219" style="stroke: #000000; stroke-width: 0.8"/>
      </g>
     </g>
     <g id="text_40">
      <!-- 10M -->
      <g transform="translate(16.740625 268.466438) scale(0.1 -0.1)">
       <use xlink:href="#DejaVuSans-31"/>
       <use xlink:href="#DejaVuSans-30" transform="translate(63.623047 0)"/>
       <use xlink:href="#DejaVuSans-4d" transform="translate(127.246094 0)"/>
      </g>
     </g>
    </g>
    <g id="ytick_20">
     <g id="line2d_40">
      <g>
       <use xlink:href="#mbc68e7b271" x="45.09375" y="242.094492" style="stroke: #000000; stroke-width: 0.8"/>
      </g>
     </g>
     <g id="text_41">
      <!-- 12.5M -->
      <g transform="translate(7.2 245.893711) scale(0.1 -0.1)">
       <use xlink:href="#DejaVuSans-31"/>
       <use xlink:href="#DejaVuSans-32" transform="translate(63.623047 0)"/>
       <use xlink:href="#DejaVuSans-2e" transform="translate(127.246094 0)"/>
       <use xlink:href="#DejaVuSans-35" transform="translate(159.033203 0)"/>
       <use xlink:href="#DejaVuSans-4d" transform="translate(222.65625 0)"/>
      </g>
     </g>
    </g>
    <g id="ytick_21">
     <g id="line2d_41">
      <g>
       <use xlink:href="#mbc68e7b271" x="45.09375" y="219.521766" style="stroke: #000000; stroke-width: 0.8"/>
      </g>
     </g>
     <g id="text_42">
      <!-- 15M -->
      <g transform="translate(16.740625 223.320985) scale(0.1 -0.1)">
       <use xlink:href="#DejaVuSans-31"/>
       <use xlink:href="#DejaVuSans-35" transform="translate(63.623047 0)"/>
       <use xlink:href="#DejaVuSans-4d" transform="translate(127.246094 0)"/>
      </g>
     </g>
    </g>
   </g>
   <g id="line2d_42">
    <path d="M 45.09375 219.521766 
L 47.992451 219.307187 
L 50.891153 219.1183 
L 53.789854 218.952331 
L 56.688555 218.808055 
L 59.587256 218.6845 
L 62.485958 218.580528 
L 65.384659 218.495057 
L 68.28336 218.427229 
L 71.182062 218.376461 
L 74.080763 218.341737 
L 76.979464 218.322061 
L 79.878166 218.316938 
L 82.776867 218.325334 
L 85.675568 218.34674 
L 88.574269 218.380624 
L 91.472971 218.426669 
L 94.371672 218.48478 
L 97.270373 218.554552 
L 100.169075 218.635692 
L 103.067776 218.727844 
L 105.966477 218.830678 
L 108.865179 218.943948 
L 111.76388 219.067887 
L 114.662581 219.202355 
L 117.561282 219.347112 
L 120.459984 219.502381 
L 123.358685 219.668251 
L 126.257386 219.84483 
L 129.156088 220.032379 
L 132.054789 220.23072 
L 134.95349 220.439496 
L 137.852192 220.646909 
L 140.750893 220.853317 
L 143.649594 221.059073 
L 146.548295 221.264411 
L 149.446997 221.46955 
L 152.345698 221.6748 
L 155.244399 221.880371 
L 158.143101 222.086386 
L 161.041802 222.292937 
L 163.940503 222.500087 
L 166.839205 222.707875 
L 169.737906 222.916319 
L 172.636607 223.125418 
L 175.535308 223.335156 
L 178.43401 223.545503 
L 181.332711 223.756419 
L 184.231412 223.967852 
L 187.130114 224.179745 
L 190.028815 224.392035 
L 192.927516 224.604653 
L 195.826218 224.817527 
L 198.724919 225.030583 
L 201.62362 225.243744 
L 204.522321 225.456934 
L 207.421023 225.670075 
L 210.319724 225.88309 
L 213.218425 226.095903 
L 216.117127 226.308438 
L 219.015828 226.520624 
L 221.914529 226.732386 
L 224.813231 226.943657 
L 227.711932 227.154368 
L 230.610633 227.364454 
L 233.509334 227.573852 
L 236.408036 227.782501 
L 239.306737 227.990345 
L 242.205438 228.197328 
L 245.10414 228.403396 
L 248.002841 228.608501 
" clip-path="url(#p2142890eb5)" style="fill: none; stroke: #377eb8; stroke-width: 3; stroke-linecap: square"/>
   </g>
   <g id="line2d_43">
    <path d="M 45.09375 354.958125 
L 47.992451 354.958125 
L 50.891153 354.958125 
L 53.789854 354.958125 
L 56.688555 354.958125 
L 59.587256 354.958125 
L 62.485958 354.958125 
L 65.384659 354.958125 
L 68.28336 354.958125 
L 71.182062 354.958125 
L 74.080763 354.958125 
L 76.979464 354.958125 
L 79.878166 354.958125 
L 82.776867 354.958125 
L 85.675568 354.958125 
L 88.574269 354.958125 
L 91.472971 354.958125 
L 94.371672 354.958125 
L 97.270373 354.958125 
L 100.169075 354.958125 
L 103.067776 354.958125 
L 105.966477 354.958125 
L 108.865179 354.958125 
L 111.76388 354.958125 
L 114.662581 354.958125 
L 117.561282 354.958125 
L 120.459984 354.958125 
L 123.358685 354.958125 
L 126.257386 354.958125 
L 129.156088 354.958125 
L 132.054789 354.958125 
L 134.95349 354.958125 
L 137.852192 354.958125 
L 140.750893 354.958125 
L 143.649594 354.958125 
L 146.548295 354.958125 
L 149.446997 354.958125 
L 152.345698 354.958125 
L 155.244399 354.958125 
L 158.143101 354.958125 
L 161.041802 354.958125 
L 163.940503 354.958125 
L 166.839205 354.958125 
L 169.737906 354.958125 
L 172.636607 354.958125 
L 175.535308 354.958125 
L 178.43401 354.958125 
L 181.332711 354.958125 
L 184.231412 354.958125 
L 187.130114 354.958125 
L 190.028815 354.958125 
L 192.927516 354.958125 
L 195.826218 354.958125 
L 198.724919 354.958125 
L 201.62362 354.958125 
L 204.522321 354.958125 
L 207.421023 354.958125 
L 210.319724 354.958125 
L 213.218425 354.958125 
L 216.117127 354.958125 
L 219.015828 354.958125 
L 221.914529 354.958125 
L 224.813231 354.958125 
L 227.711932 354.958125 
L 230.610633 354.958125 
L 233.509334 354.958125 
L 236.408036 354.958125 
L 239.306737 354.958125 
L 242.205438 354.958125 
L 245.10414 354.958125 
L 248.002841 354.958125 
" clip-path="url(#p2142890eb5)" style="fill: none; stroke: #e41a1c; stroke-width: 3; stroke-linecap: square"/>
   </g>
   <g id="patch_15">
    <path d="M 45.09375 354.958125 
L 45.09375 203.758125 
" style="fill: none; stroke: #000000; stroke-width: 0.8; stroke-linejoin: miter; stroke-linecap: square"/>
   </g>
   <g id="patch_16">
    <path d="M 248.002841 354.958125 
L 248.002841 203.758125 
" style="fill: none"/>
   </g>
   <g id="patch_17">
    <path d="M 45.09375 354.958125 
L 248.002841 354.958125 
" style="fill: none; stroke: #000000; stroke-width: 0.8; stroke-linejoin: miter; stroke-linecap: square"/>
   </g>
   <g id="patch_18">
    <path d="M 45.09375 203.758125 
L 248.002841 203.758125 
" style="fill: none"/>
   </g>
   <g id="text_43">
    <!-- Baseline-15-64 -->
    <g transform="translate(101.509858 197.758125) scale(0.12 -0.12)">
     <defs>
      <path id="DejaVuSans-36" d="M 2113 2584 
Q 1688 2584 1439 2293 
Q 1191 2003 1191 1497 
Q 1191 994 1439 701 
Q 1688 409 2113 409 
Q 2538 409 2786 701 
Q 3034 994 3034 1497 
Q 3034 2003 2786 2293 
Q 2538 2584 2113 2584 
z
M 3366 4563 
L 3366 3988 
Q 3128 4100 2886 4159 
Q 2644 4219 2406 4219 
Q 1781 4219 1451 3797 
Q 1122 3375 1075 2522 
Q 1259 2794 1537 2939 
Q 1816 3084 2150 3084 
Q 2853 3084 3261 2657 
Q 3669 2231 3669 1497 
Q 3669 778 3244 343 
Q 2819 -91 2113 -91 
Q 1303 -91 875 529 
Q 447 1150 447 2328 
Q 447 3434 972 4092 
Q 1497 4750 2381 4750 
Q 2619 4750 2861 4703 
Q 3103 4656 3366 4563 
z
" transform="scale(0.015625)"/>
     </defs>
     <use xlink:href="#DejaVuSans-42"/>
     <use xlink:href="#DejaVuSans-61" transform="translate(68.603516 0)"/>
     <use xlink:href="#DejaVuSans-73" transform="translate(129.882812 0)"/>
     <use xlink:href="#DejaVuSans-65" transform="translate(181.982422 0)"/>
     <use xlink:href="#DejaVuSans-6c" transform="translate(243.505859 0)"/>
     <use xlink:href="#DejaVuSans-69" transform="translate(271.289062 0)"/>
     <use xlink:href="#DejaVuSans-6e" transform="translate(299.072266 0)"/>
     <use xlink:href="#DejaVuSans-65" transform="translate(362.451172 0)"/>
     <use xlink:href="#DejaVuSans-2d" transform="translate(423.974609 0)"/>
     <use xlink:href="#DejaVuSans-31" transform="translate(460.058594 0)"/>
     <use xlink:href="#DejaVuSans-35" transform="translate(523.681641 0)"/>
     <use xlink:href="#DejaVuSans-2d" transform="translate(587.304688 0)"/>
     <use xlink:href="#DejaVuSans-36" transform="translate(623.388672 0)"/>
     <use xlink:href="#DejaVuSans-34" transform="translate(687.011719 0)"/>
    </g>
   </g>
   <g id="legend_3">
    <g id="patch_19">
     <path d="M 265.148295 295.675312 
L 328.809233 295.675312 
Q 330.809233 295.675312 330.809233 293.675312 
L 330.809233 265.040937 
Q 330.809233 263.040937 328.809233 263.040937 
L 265.148295 263.040937 
Q 263.148295 263.040937 263.148295 265.040937 
L 263.148295 293.675312 
Q 263.148295 295.675312 265.148295 295.675312 
L 265.148295 295.675312 
z
" style="fill: none; opacity: 0"/>
    </g>
    <g id="line2d_44">
     <path d="M 267.148295 271.139375 
L 277.148295 271.139375 
L 287.148295 271.139375 
" style="fill: none; stroke: #377eb8; stroke-width: 3; stroke-linecap: square"/>
    </g>
    <g id="text_44">
     <!-- alive -->
     <g transform="translate(295.148295 274.639375) scale(0.1 -0.1)">
      <use xlink:href="#DejaVuSans-61"/>
      <use xlink:href="#DejaVuSans-6c" transform="translate(61.279297 0)"/>
      <use xlink:href="#DejaVuSans-69" transform="translate(89.0625 0)"/>
      <use xlink:href="#DejaVuSans-76" transform="translate(116.845703 0)"/>
      <use xlink:href="#DejaVuSans-65" transform="translate(176.025391 0)"/>
     </g>
    </g>
    <g id="line2d_45">
     <path d="M 267.148295 285.8175 
L 277.148295 285.8175 
L 287.148295 285.8175 
" style="fill: none; stroke: #e41a1c; stroke-width: 3; stroke-linecap: square"/>
    </g>
    <g id="text_45">
     <!-- b_rate -->
     <g transform="translate(295.148295 289.3175) scale(0.1 -0.1)">
      <use xlink:href="#DejaVuSans-62"/>
      <use xlink:href="#DejaVuSans-5f" transform="translate(63.476562 0)"/>
      <use xlink:href="#DejaVuSans-72" transform="translate(113.476562 0)"/>
      <use xlink:href="#DejaVuSans-61" transform="translate(154.589844 0)"/>
      <use xlink:href="#DejaVuSans-74" transform="translate(215.869141 0)"/>
      <use xlink:href="#DejaVuSans-65" transform="translate(255.078125 0)"/>
     </g>
    </g>
   </g>
  </g>
  <g id="axes_4">
   <g id="patch_20">
    <path d="M 349.457386 354.958125 
L 552.366477 354.958125 
L 552.366477 203.758125 
L 349.457386 203.758125 
L 349.457386 354.958125 
z
" style="fill: none; opacity: 0"/>
   </g>
   <g id="PathCollection_5">
    <defs>
     <path id="C4_0_3d2cf8e1f3" d="M 0 3.162278 
C 0.838646 3.162278 1.643056 2.82908 2.236068 2.236068 
C 2.82908 1.643056 3.162278 0.838646 3.162278 -0 
C 3.162278 -0.838646 2.82908 -1.643056 2.236068 -2.236068 
C 1.643056 -2.82908 0.838646 -3.162278 0 -3.162278 
C -0.838646 -3.162278 -1.643056 -2.82908 -2.236068 -2.236068 
C -2.82908 -1.643056 -3.162278 -0.838646 -3.162278 0 
C -3.162278 0.838646 -2.82908 1.643056 -2.236068 2.236068 
C -1.643056 2.82908 -0.838646 3.162278 0 3.162278 
z
"/>
    </defs>
    <g clip-path="url(#pde8607597f)">
     <use xlink:href="#C4_0_3d2cf8e1f3" x="349.457386" y="243.967751" style="fill: none; stroke: #377eb8; stroke-width: 3"/>
    </g>
    <g clip-path="url(#pde8607597f)">
     <use xlink:href="#C4_0_3d2cf8e1f3" x="355.254789" y="244.522703" style="fill: none; stroke: #377eb8; stroke-width: 3"/>
    </g>
    <g clip-path="url(#pde8607597f)">
     <use xlink:href="#C4_0_3d2cf8e1f3" x="361.052192" y="244.76054" style="fill: none; stroke: #377eb8; stroke-width: 3"/>
    </g>
    <g clip-path="url(#pde8607597f)">
     <use xlink:href="#C4_0_3d2cf8e1f3" x="366.849594" y="244.681261" style="fill: none; stroke: #377eb8; stroke-width: 3"/>
    </g>
    <g clip-path="url(#pde8607597f)">
     <use xlink:href="#C4_0_3d2cf8e1f3" x="372.646997" y="244.364145" style="fill: none; stroke: #377eb8; stroke-width: 3"/>
    </g>
    <g clip-path="url(#pde8607597f)">
     <use xlink:href="#C4_0_3d2cf8e1f3" x="378.444399" y="243.809193" style="fill: none; stroke: #377eb8; stroke-width: 3"/>
    </g>
    <g clip-path="url(#pde8607597f)">
     <use xlink:href="#C4_0_3d2cf8e1f3" x="384.241802" y="242.937126" style="fill: none; stroke: #377eb8; stroke-width: 3"/>
    </g>
    <g clip-path="url(#pde8607597f)">
     <use xlink:href="#C4_0_3d2cf8e1f3" x="390.039205" y="241.906501" style="fill: none; stroke: #377eb8; stroke-width: 3"/>
    </g>
    <g clip-path="url(#pde8607597f)">
     <use xlink:href="#C4_0_3d2cf8e1f3" x="395.836607" y="240.63804" style="fill: none; stroke: #377eb8; stroke-width: 3"/>
    </g>
    <g clip-path="url(#pde8607597f)">
     <use xlink:href="#C4_0_3d2cf8e1f3" x="401.63401" y="239.2903" style="fill: none; stroke: #377eb8; stroke-width: 3"/>
    </g>
    <g clip-path="url(#pde8607597f)">
     <use xlink:href="#C4_0_3d2cf8e1f3" x="407.431412" y="237.784002" style="fill: none; stroke: #377eb8; stroke-width: 3"/>
    </g>
    <g clip-path="url(#pde8607597f)">
     <use xlink:href="#C4_0_3d2cf8e1f3" x="413.228815" y="236.198425" style="fill: none; stroke: #377eb8; stroke-width: 3"/>
    </g>
    <g clip-path="url(#pde8607597f)">
     <use xlink:href="#C4_0_3d2cf8e1f3" x="419.026218" y="234.533569" style="fill: none; stroke: #377eb8; stroke-width: 3"/>
    </g>
    <g clip-path="url(#pde8607597f)">
     <use xlink:href="#C4_0_3d2cf8e1f3" x="424.82362" y="232.947993" style="fill: none; stroke: #377eb8; stroke-width: 3"/>
    </g>
    <g clip-path="url(#pde8607597f)">
     <use xlink:href="#C4_0_3d2cf8e1f3" x="430.621023" y="231.362416" style="fill: none; stroke: #377eb8; stroke-width: 3"/>
    </g>
    <g clip-path="url(#pde8607597f)">
     <use xlink:href="#C4_0_3d2cf8e1f3" x="436.418425" y="229.856118" style="fill: none; stroke: #377eb8; stroke-width: 3"/>
    </g>
    <g clip-path="url(#pde8607597f)">
     <use xlink:href="#C4_0_3d2cf8e1f3" x="442.215828" y="228.508378" style="fill: none; stroke: #377eb8; stroke-width: 3"/>
    </g>
    <g clip-path="url(#pde8607597f)">
     <use xlink:href="#C4_0_3d2cf8e1f3" x="448.013231" y="227.239916" style="fill: none; stroke: #377eb8; stroke-width: 3"/>
    </g>
   </g>
   <g id="matplotlib.axis_7">
    <g id="xtick_13">
     <g id="line2d_46">
      <g>
       <use xlink:href="#m192ad50934" x="349.457386" y="354.958125" style="stroke: #000000; stroke-width: 0.8"/>
      </g>
     </g>
     <g id="text_46">
      <!-- 2000 -->
      <g transform="translate(336.732386 369.556562) scale(0.1 -0.1)">
       <use xlink:href="#DejaVuSans-32"/>
       <use xlink:href="#DejaVuSans-30" transform="translate(63.623047 0)"/>
       <use xlink:href="#DejaVuSans-30" transform="translate(127.246094 0)"/>
       <use xlink:href="#DejaVuSans-30" transform="translate(190.869141 0)"/>
      </g>
     </g>
    </g>
    <g id="xtick_14">
     <g id="line2d_47">
      <g>
       <use xlink:href="#m192ad50934" x="407.431412" y="354.958125" style="stroke: #000000; stroke-width: 0.8"/>
      </g>
     </g>
     <g id="text_47">
      <!-- 2010 -->
      <g transform="translate(394.706412 369.556562) scale(0.1 -0.1)">
       <use xlink:href="#DejaVuSans-32"/>
       <use xlink:href="#DejaVuSans-30" transform="translate(63.623047 0)"/>
       <use xlink:href="#DejaVuSans-31" transform="translate(127.246094 0)"/>
       <use xlink:href="#DejaVuSans-30" transform="translate(190.869141 0)"/>
      </g>
     </g>
    </g>
    <g id="xtick_15">
     <g id="line2d_48">
      <g>
       <use xlink:href="#m192ad50934" x="465.405438" y="354.958125" style="stroke: #000000; stroke-width: 0.8"/>
      </g>
     </g>
     <g id="text_48">
      <!-- 2020 -->
      <g transform="translate(452.680438 369.556562) scale(0.1 -0.1)">
       <use xlink:href="#DejaVuSans-32"/>
       <use xlink:href="#DejaVuSans-30" transform="translate(63.623047 0)"/>
       <use xlink:href="#DejaVuSans-32" transform="translate(127.246094 0)"/>
       <use xlink:href="#DejaVuSans-30" transform="translate(190.869141 0)"/>
      </g>
     </g>
    </g>
    <g id="xtick_16">
     <g id="line2d_49">
      <g>
       <use xlink:href="#m192ad50934" x="523.379464" y="354.958125" style="stroke: #000000; stroke-width: 0.8"/>
      </g>
     </g>
     <g id="text_49">
      <!-- 2030 -->
      <g transform="translate(510.654464 369.556562) scale(0.1 -0.1)">
       <use xlink:href="#DejaVuSans-32"/>
       <use xlink:href="#DejaVuSans-30" transform="translate(63.623047 0)"/>
       <use xlink:href="#DejaVuSans-33" transform="translate(127.246094 0)"/>
       <use xlink:href="#DejaVuSans-30" transform="translate(190.869141 0)"/>
      </g>
     </g>
    </g>
    <g id="text_50">
     <!-- Year -->
     <g transform="translate(440.324432 383.234687) scale(0.1 -0.1)">
      <use xlink:href="#DejaVuSans-59"/>
      <use xlink:href="#DejaVuSans-65" transform="translate(47.833984 0)"/>
      <use xlink:href="#DejaVuSans-61" transform="translate(109.357422 0)"/>
      <use xlink:href="#DejaVuSans-72" transform="translate(170.636719 0)"/>
     </g>
    </g>
   </g>
   <g id="matplotlib.axis_8">
    <g id="ytick_22">
     <g id="line2d_50">
      <g>
       <use xlink:href="#mbc68e7b271" x="349.457386" y="354.958125" style="stroke: #000000; stroke-width: 0.8"/>
      </g>
     </g>
     <g id="text_51">
      <!-- 0 -->
      <g transform="translate(336.094886 358.757344) scale(0.1 -0.1)">
       <use xlink:href="#DejaVuSans-30"/>
      </g>
     </g>
    </g>
    <g id="ytick_23">
     <g id="line2d_51">
      <g>
       <use xlink:href="#mbc68e7b271" x="349.457386" y="328.531846" style="stroke: #000000; stroke-width: 0.8"/>
      </g>
     </g>
     <g id="text_52">
      <!-- 500K -->
      <g transform="translate(316.812074 332.331064) scale(0.1 -0.1)">
       <use xlink:href="#DejaVuSans-35"/>
       <use xlink:href="#DejaVuSans-30" transform="translate(63.623047 0)"/>
       <use xlink:href="#DejaVuSans-30" transform="translate(127.246094 0)"/>
       <use xlink:href="#DejaVuSans-4b" transform="translate(190.869141 0)"/>
      </g>
     </g>
    </g>
    <g id="ytick_24">
     <g id="line2d_52">
      <g>
       <use xlink:href="#mbc68e7b271" x="349.457386" y="302.105566" style="stroke: #000000; stroke-width: 0.8"/>
      </g>
     </g>
     <g id="text_53">
      <!-- 1M -->
      <g transform="translate(327.466761 305.904785) scale(0.1 -0.1)">
       <use xlink:href="#DejaVuSans-31"/>
       <use xlink:href="#DejaVuSans-4d" transform="translate(63.623047 0)"/>
      </g>
     </g>
    </g>
    <g id="ytick_25">
     <g id="line2d_53">
      <g>
       <use xlink:href="#mbc68e7b271" x="349.457386" y="275.679287" style="stroke: #000000; stroke-width: 0.8"/>
      </g>
     </g>
     <g id="text_54">
      <!-- 1.5M -->
      <g transform="translate(317.926136 279.478505) scale(0.1 -0.1)">
       <use xlink:href="#DejaVuSans-31"/>
       <use xlink:href="#DejaVuSans-2e" transform="translate(63.623047 0)"/>
       <use xlink:href="#DejaVuSans-35" transform="translate(95.410156 0)"/>
       <use xlink:href="#DejaVuSans-4d" transform="translate(159.033203 0)"/>
      </g>
     </g>
    </g>
    <g id="ytick_26">
     <g id="line2d_54">
      <g>
       <use xlink:href="#mbc68e7b271" x="349.457386" y="249.253007" style="stroke: #000000; stroke-width: 0.8"/>
      </g>
     </g>
     <g id="text_55">
      <!-- 2M -->
      <g transform="translate(327.466761 253.052226) scale(0.1 -0.1)">
       <use xlink:href="#DejaVuSans-32"/>
       <use xlink:href="#DejaVuSans-4d" transform="translate(63.623047 0)"/>
      </g>
     </g>
    </g>
    <g id="ytick_27">
     <g id="line2d_55">
      <g>
       <use xlink:href="#mbc68e7b271" x="349.457386" y="222.826728" style="stroke: #000000; stroke-width: 0.8"/>
      </g>
     </g>
     <g id="text_56">
      <!-- 2.5M -->
      <g transform="translate(317.926136 226.625946) scale(0.1 -0.1)">
       <use xlink:href="#DejaVuSans-32"/>
       <use xlink:href="#DejaVuSans-2e" transform="translate(63.623047 0)"/>
       <use xlink:href="#DejaVuSans-35" transform="translate(95.410156 0)"/>
       <use xlink:href="#DejaVuSans-4d" transform="translate(159.033203 0)"/>
      </g>
     </g>
    </g>
   </g>
   <g id="line2d_56">
    <path d="M 349.457386 243.967751 
L 352.356088 244.185741 
L 355.254789 244.337143 
L 358.15349 244.424267 
L 361.052192 244.450223 
L 363.950893 244.417966 
L 366.849594 244.330247 
L 369.748295 244.189739 
L 372.646997 243.998864 
L 375.545698 243.759827 
L 378.444399 243.475064 
L 381.343101 243.147108 
L 384.241802 242.77778 
L 387.140503 242.368601 
L 390.039205 241.921726 
L 392.937906 241.439254 
L 395.836607 240.922879 
L 398.735308 240.374277 
L 401.63401 239.795166 
L 404.532711 239.187291 
L 407.431412 238.552075 
L 410.330114 237.890912 
L 413.228815 237.205315 
L 416.127516 236.496696 
L 419.026218 235.766566 
L 421.924919 235.016285 
L 424.82362 234.247138 
L 427.722321 233.460418 
L 430.621023 232.657228 
L 433.519724 231.838691 
L 436.418425 231.005755 
L 439.317127 230.159848 
L 442.215828 229.354439 
L 445.114529 228.588041 
L 448.013231 227.85954 
L 450.911932 227.166923 
L 453.810633 226.508528 
L 456.709334 225.88347 
L 459.608036 225.290632 
L 462.506737 224.728791 
L 465.405438 224.196779 
L 468.30414 223.693477 
L 471.202841 223.217815 
L 474.101542 222.768768 
L 477.000244 222.345352 
L 479.898945 221.946619 
L 482.797646 221.57166 
L 485.696347 221.219596 
L 488.595049 220.889584 
L 491.49375 220.580806 
L 494.392451 220.292477 
L 497.291153 220.023837 
L 500.189854 219.774151 
L 503.088555 219.542712 
L 505.987256 219.328833 
L 508.885958 219.131853 
L 511.784659 218.951131 
L 514.68336 218.786048 
L 517.582062 218.636005 
L 520.480763 218.500422 
L 523.379464 218.378738 
L 526.278166 218.27041 
L 529.176867 218.174915 
L 532.075568 218.091743 
L 534.974269 218.020404 
L 537.872971 217.960421 
L 540.771672 217.911335 
L 543.670373 217.872701 
L 546.569075 217.844087 
L 549.467776 217.825077 
L 552.366477 217.815268 
" clip-path="url(#pde8607597f)" style="fill: none; stroke: #377eb8; stroke-width: 3; stroke-linecap: square"/>
   </g>
   <g id="line2d_57">
    <path d="M 349.457386 354.958125 
L 352.356088 354.958125 
L 355.254789 354.958125 
L 358.15349 354.958125 
L 361.052192 354.958125 
L 363.950893 354.958125 
L 366.849594 354.958125 
L 369.748295 354.958125 
L 372.646997 354.958125 
L 375.545698 354.958125 
L 378.444399 354.958125 
L 381.343101 354.958125 
L 384.241802 354.958125 
L 387.140503 354.958125 
L 390.039205 354.958125 
L 392.937906 354.958125 
L 395.836607 354.958125 
L 398.735308 354.958125 
L 401.63401 354.958125 
L 404.532711 354.958125 
L 407.431412 354.958125 
L 410.330114 354.958125 
L 413.228815 354.958125 
L 416.127516 354.958125 
L 419.026218 354.958125 
L 421.924919 354.958125 
L 424.82362 354.958125 
L 427.722321 354.958125 
L 430.621023 354.958125 
L 433.519724 354.958125 
L 436.418425 354.958125 
L 439.317127 354.958125 
L 442.215828 354.958125 
L 445.114529 354.958125 
L 448.013231 354.958125 
L 450.911932 354.958125 
L 453.810633 354.958125 
L 456.709334 354.958125 
L 459.608036 354.958125 
L 462.506737 354.958125 
L 465.405438 354.958125 
L 468.30414 354.958125 
L 471.202841 354.958125 
L 474.101542 354.958125 
L 477.000244 354.958125 
L 479.898945 354.958125 
L 482.797646 354.958125 
L 485.696347 354.958125 
L 488.595049 354.958125 
L 491.49375 354.958125 
L 494.392451 354.958125 
L 497.291153 354.958125 
L 500.189854 354.958125 
L 503.088555 354.958125 
L 505.987256 354.958125 
L 508.885958 354.958125 
L 511.784659 354.958125 
L 514.68336 354.958125 
L 517.582062 354.958125 
L 520.480763 354.958125 
L 523.379464 354.958125 
L 526.278166 354.958125 
L 529.176867 354.958125 
L 532.075568 354.958125 
L 534.974269 354.958125 
L 537.872971 354.958125 
L 540.771672 354.958125 
L 543.670373 354.958125 
L 546.569075 354.958125 
L 549.467776 354.958125 
L 552.366477 354.958125 
" clip-path="url(#pde8607597f)" style="fill: none; stroke: #e41a1c; stroke-width: 3; stroke-linecap: square"/>
   </g>
   <g id="patch_21">
    <path d="M 349.457386 354.958125 
L 349.457386 203.758125 
" style="fill: none; stroke: #000000; stroke-width: 0.8; stroke-linejoin: miter; stroke-linecap: square"/>
   </g>
   <g id="patch_22">
    <path d="M 552.366477 354.958125 
L 552.366477 203.758125 
" style="fill: none"/>
   </g>
   <g id="patch_23">
    <path d="M 349.457386 354.958125 
L 552.366477 354.958125 
" style="fill: none; stroke: #000000; stroke-width: 0.8; stroke-linejoin: miter; stroke-linecap: square"/>
   </g>
   <g id="patch_24">
    <path d="M 349.457386 203.758125 
L 552.366477 203.758125 
" style="fill: none"/>
   </g>
   <g id="text_57">
    <!-- Baseline-65+ -->
    <g transform="translate(410.645369 197.758125) scale(0.12 -0.12)">
     <defs>
      <path id="DejaVuSans-2b" d="M 2944 4013 
L 2944 2272 
L 4684 2272 
L 4684 1741 
L 2944 1741 
L 2944 0 
L 2419 0 
L 2419 1741 
L 678 1741 
L 678 2272 
L 2419 2272 
L 2419 4013 
L 2944 4013 
z
" transform="scale(0.015625)"/>
     </defs>
     <use xlink:href="#DejaVuSans-42"/>
     <use xlink:href="#DejaVuSans-61" transform="translate(68.603516 0)"/>
     <use xlink:href="#DejaVuSans-73" transform="translate(129.882812 0)"/>
     <use xlink:href="#DejaVuSans-65" transform="translate(181.982422 0)"/>
     <use xlink:href="#DejaVuSans-6c" transform="translate(243.505859 0)"/>
     <use xlink:href="#DejaVuSans-69" transform="translate(271.289062 0)"/>
     <use xlink:href="#DejaVuSans-6e" transform="translate(299.072266 0)"/>
     <use xlink:href="#DejaVuSans-65" transform="translate(362.451172 0)"/>
     <use xlink:href="#DejaVuSans-2d" transform="translate(423.974609 0)"/>
     <use xlink:href="#DejaVuSans-36" transform="translate(460.058594 0)"/>
     <use xlink:href="#DejaVuSans-35" transform="translate(523.681641 0)"/>
     <use xlink:href="#DejaVuSans-2b" transform="translate(587.304688 0)"/>
    </g>
   </g>
   <g id="legend_4">
    <g id="patch_25">
     <path d="M 569.511932 295.675312 
L 633.172869 295.675312 
Q 635.172869 295.675312 635.172869 293.675312 
L 635.172869 265.040937 
Q 635.172869 263.040937 633.172869 263.040937 
L 569.511932 263.040937 
Q 567.511932 263.040937 567.511932 265.040937 
L 567.511932 293.675312 
Q 567.511932 295.675312 569.511932 295.675312 
L 569.511932 295.675312 
z
" style="fill: none; opacity: 0"/>
    </g>
    <g id="line2d_58">
     <path d="M 571.511932 271.139375 
L 581.511932 271.139375 
L 591.511932 271.139375 
" style="fill: none; stroke: #377eb8; stroke-width: 3; stroke-linecap: square"/>
    </g>
    <g id="text_58">
     <!-- alive -->
     <g transform="translate(599.511932 274.639375) scale(0.1 -0.1)">
      <use xlink:href="#DejaVuSans-61"/>
      <use xlink:href="#DejaVuSans-6c" transform="translate(61.279297 0)"/>
      <use xlink:href="#DejaVuSans-69" transform="translate(89.0625 0)"/>
      <use xlink:href="#DejaVuSans-76" transform="translate(116.845703 0)"/>
      <use xlink:href="#DejaVuSans-65" transform="translate(176.025391 0)"/>
     </g>
    </g>
    <g id="line2d_59">
     <path d="M 571.511932 285.8175 
L 581.511932 285.8175 
L 591.511932 285.8175 
" style="fill: none; stroke: #e41a1c; stroke-width: 3; stroke-linecap: square"/>
    </g>
    <g id="text_59">
     <!-- b_rate -->
     <g transform="translate(599.511932 289.3175) scale(0.1 -0.1)">
      <use xlink:href="#DejaVuSans-62"/>
      <use xlink:href="#DejaVuSans-5f" transform="translate(63.476562 0)"/>
      <use xlink:href="#DejaVuSans-72" transform="translate(113.476562 0)"/>
      <use xlink:href="#DejaVuSans-61" transform="translate(154.589844 0)"/>
      <use xlink:href="#DejaVuSans-74" transform="translate(215.869141 0)"/>
      <use xlink:href="#DejaVuSans-65" transform="translate(255.078125 0)"/>
     </g>
    </g>
   </g>
  </g>
 </g>
 <defs>
  <clipPath id="pdab1bb0758">
   <rect x="45.09375" y="22.318125" width="202.909091" height="151.2"/>
  </clipPath>
  <clipPath id="pebfb8a3a05">
   <rect x="349.457386" y="22.318125" width="202.909091" height="151.2"/>
  </clipPath>
  <clipPath id="p2142890eb5">
   <rect x="45.09375" y="203.758125" width="202.909091" height="151.2"/>
  </clipPath>
  <clipPath id="pde8607597f">
   <rect x="349.457386" y="203.758125" width="202.909091" height="151.2"/>
  </clipPath>
 </defs>
</svg>
