<?xml version="1.0" encoding="utf-8" standalone="no"?>
<!DOCTYPE svg PUBLIC "-//W3C//DTD SVG 1.1//EN"
  "http://www.w3.org/Graphics/SVG/1.1/DTD/svg11.dtd">
<svg xmlns:xlink="http://www.w3.org/1999/xlink" width="403.97pt" height="297.190125pt" viewBox="0 0 403.97 297.190125" xmlns="http://www.w3.org/2000/svg" version="1.1">
 <metadata>
  <rdf:RDF xmlns:dc="http://purl.org/dc/elements/1.1/" xmlns:cc="http://creativecommons.org/ns#" xmlns:rdf="http://www.w3.org/1999/02/22-rdf-syntax-ns#">
   <cc:Work>
    <dc:type rdf:resource="http://purl.org/dc/dcmitype/StillImage"/>
    <dc:date>2026-05-27T03:20:36.500739</dc:date>
    <dc:format>image/svg+xml</dc:format>
    <dc:creator>
     <cc:Agent>
      <dc:title>Matplotlib v3.10.9, https://matplotlib.org/</dc:title>
     </cc:Agent>
    </dc:creator>
   </cc:Work>
  </rdf:RDF>
 </metadata>
 <defs>
  <style type="text/css">*{stroke-linejoin: round; stroke-linecap: butt}</style>
 </defs>
 <g id="figure_1">
  <g id="patch_1">
   <path d="M 0 297.190125 
L 403.97 297.190125 
L 403.97 0 
L 0 0 
z
" style="fill: #ffffff"/>
  </g>
  <g id="axes_1">
   <g id="patch_2">
    <path d="M 39.65 273.312 
L 396.77 273.312 
L 396.77 7.2 
L 39.65 7.2 
z
" style="fill: #ffffff"/>
   </g>
   <g id="matplotlib.axis_1">
    <g id="xtick_1">
     <g id="line2d_1">
      <defs>
       <path id="m6837ab4289" d="M 0 0 
L 0 3.5 
" style="stroke: #000000; stroke-width: 0.8"/>
      </defs>
      <g>
       <use xlink:href="#m6837ab4289" x="55.882727" y="273.312" style="stroke: #000000; stroke-width: 0.8"/>
      </g>
     </g>
     <g id="text_1">
      <!-- 0.0 -->
      <g transform="translate(47.931165 287.910437) scale(0.1 -0.1)">
       <defs>
        <path id="DejaVuSans-30" d="M 2034 4250 
Q 1547 4250 1301 3770 
Q 1056 3291 1056 2328 
Q 1056 1369 1301 889 
Q 1547 409 2034 409 
Q 2525 409 2770 889 
Q 3016 1369 3016 2328 
Q 3016 3291 2770 3770 
Q 2525 4250 2034 4250 
z
M 2034 4750 
Q 2819 4750 3233 4129 
Q 3647 3509 3647 2328 
Q 3647 1150 3233 529 
Q 2819 -91 2034 -91 
Q 1250 -91 836 529 
Q 422 1150 422 2328 
Q 422 3509 836 4129 
Q 1250 4750 2034 4750 
z
" transform="scale(0.015625)"/>
        <path id="DejaVuSans-2e" d="M 684 794 
L 1344 794 
L 1344 0 
L 684 0 
L 684 794 
z
" transform="scale(0.015625)"/>
       </defs>
       <use xlink:href="#DejaVuSans-30"/>
       <use xlink:href="#DejaVuSans-2e" transform="translate(63.623047 0)"/>
       <use xlink:href="#DejaVuSans-30" transform="translate(95.410156 0)"/>
      </g>
     </g>
    </g>
    <g id="xtick_2">
     <g id="line2d_2">
      <g>
       <use xlink:href="#m6837ab4289" x="96.668474" y="273.312" style="stroke: #000000; stroke-width: 0.8"/>
      </g>
     </g>
     <g id="text_2">
      <!-- 2.5 -->
      <g transform="translate(88.716912 287.910437) scale(0.1 -0.1)">
       <defs>
        <path id="DejaVuSans-32" d="M 1228 531 
L 3431 531 
L 3431 0 
L 469 0 
L 469 531 
Q 828 903 1448 1529 
Q 2069 2156 2228 2338 
Q 2531 2678 2651 2914 
Q 2772 3150 2772 3378 
Q 2772 3750 2511 3984 
Q 2250 4219 1831 4219 
Q 1534 4219 1204 4116 
Q 875 4013 500 3803 
L 500 4441 
Q 881 4594 1212 4672 
Q 1544 4750 1819 4750 
Q 2544 4750 2975 4387 
Q 3406 4025 3406 3419 
Q 3406 3131 3298 2873 
Q 3191 2616 2906 2266 
Q 2828 2175 2409 1742 
Q 1991 1309 1228 531 
z
" transform="scale(0.015625)"/>
        <path id="DejaVuSans-35" d="M 691 4666 
L 3169 4666 
L 3169 4134 
L 1269 4134 
L 1269 2991 
Q 1406 3038 1543 3061 
Q 1681 3084 1819 3084 
Q 2600 3084 3056 2656 
Q 3513 2228 3513 1497 
Q 3513 744 3044 326 
Q 2575 -91 1722 -91 
Q 1428 -91 1123 -41 
Q 819 9 494 109 
L 494 744 
Q 775 591 1075 516 
Q 1375 441 1709 441 
Q 2250 441 2565 725 
Q 2881 1009 2881 1497 
Q 2881 1984 2565 2268 
Q 2250 2553 1709 2553 
Q 1456 2553 1204 2497 
Q 953 2441 691 2322 
L 691 4666 
z
" transform="scale(0.015625)"/>
       </defs>
       <use xlink:href="#DejaVuSans-32"/>
       <use xlink:href="#DejaVuSans-2e" transform="translate(63.623047 0)"/>
       <use xlink:href="#DejaVuSans-35" transform="translate(95.410156 0)"/>
      </g>
     </g>
    </g>
    <g id="xtick_3">
     <g id="line2d_3">
      <g>
       <use xlink:href="#m6837ab4289" x="137.454221" y="273.312" style="stroke: #000000; stroke-width: 0.8"/>
      </g>
     </g>
     <g id="text_3">
      <!-- 5.0 -->
      <g transform="translate(129.502659 287.910437) scale(0.1 -0.1)">
       <use xlink:href="#DejaVuSans-35"/>
       <use xlink:href="#DejaVuSans-2e" transform="translate(63.623047 0)"/>
       <use xlink:href="#DejaVuSans-30" transform="translate(95.410156 0)"/>
      </g>
     </g>
    </g>
    <g id="xtick_4">
     <g id="line2d_4">
      <g>
       <use xlink:href="#m6837ab4289" x="178.239968" y="273.312" style="stroke: #000000; stroke-width: 0.8"/>
      </g>
     </g>
     <g id="text_4">
      <!-- 7.5 -->
      <g transform="translate(170.288406 287.910437) scale(0.1 -0.1)">
       <defs>
        <path id="DejaVuSans-37" d="M 525 4666 
L 3525 4666 
L 3525 4397 
L 1831 0 
L 1172 0 
L 2766 4134 
L 525 4134 
L 525 4666 
z
" transform="scale(0.015625)"/>
       </defs>
       <use xlink:href="#DejaVuSans-37"/>
       <use xlink:href="#DejaVuSans-2e" transform="translate(63.623047 0)"/>
       <use xlink:href="#DejaVuSans-35" transform="translate(95.410156 0)"/>
      </g>
     </g>
    </g>
    <g id="xtick_5">
     <g id="line2d_5">
      <g>
       <use xlink:href="#m6837ab4289" x="219.025715" y="273.312" style="stroke: #000000; stroke-width: 0.8"/>
      </g>
     </g>
     <g id="text_5">
      <!-- 10.0 -->
      <g transform="translate(207.892902 287.910437) scale(0.1 -0.1)">
       <defs>
        <path id="DejaVuSans-31" d="M 794 531 
L 1825 531 
L 1825 4091 
L 703 3866 
L 703 4441 
L 1819 4666 
L 2450 4666 
L 2450 531 
L 3481 531 
L 3481 0 
L 794 0 
L 794 531 
z
" transform="scale(0.015625)"/>
       </defs>
       <use xlink:href="#DejaVuSans-31"/>
       <use xlink:href="#DejaVuSans-30" transform="translate(63.623047 0)"/>
       <use xlink:href="#DejaVuSans-2e" transform="translate(127.246094 0)"/>
       <use xlink:href="#DejaVuSans-30" transform="translate(159.033203 0)"/>
      </g>
     </g>
    </g>
    <g id="xtick_6">
     <g id="line2d_6">
      <g>
       <use xlink:href="#m6837ab4289" x="259.811462" y="273.312" style="stroke: #000000; stroke-width: 0.8"/>
      </g>
     </g>
     <g id="text_6">
      <!-- 12.5 -->
      <g transform="translate(248.678649 287.910437) scale(0.1 -0.1)">
       <use xlink:href="#DejaVuSans-31"/>
       <use xlink:href="#DejaVuSans-32" transform="translate(63.623047 0)"/>
       <use xlink:href="#DejaVuSans-2e" transform="translate(127.246094 0)"/>
       <use xlink:href="#DejaVuSans-35" transform="translate(159.033203 0)"/>
      </g>
     </g>
    </g>
    <g id="xtick_7">
     <g id="line2d_7">
      <g>
       <use xlink:href="#m6837ab4289" x="300.597209" y="273.312" style="stroke: #000000; stroke-width: 0.8"/>
      </g>
     </g>
     <g id="text_7">
      <!-- 15.0 -->
      <g transform="translate(289.464396 287.910437) scale(0.1 -0.1)">
       <use xlink:href="#DejaVuSans-31"/>
       <use xlink:href="#DejaVuSans-35" transform="translate(63.623047 0)"/>
       <use xlink:href="#DejaVuSans-2e" transform="translate(127.246094 0)"/>
       <use xlink:href="#DejaVuSans-30" transform="translate(159.033203 0)"/>
      </g>
     </g>
    </g>
    <g id="xtick_8">
     <g id="line2d_8">
      <g>
       <use xlink:href="#m6837ab4289" x="341.382956" y="273.312" style="stroke: #000000; stroke-width: 0.8"/>
      </g>
     </g>
     <g id="text_8">
      <!-- 17.5 -->
      <g transform="translate(330.250143 287.910437) scale(0.1 -0.1)">
       <use xlink:href="#DejaVuSans-31"/>
       <use xlink:href="#DejaVuSans-37" transform="translate(63.623047 0)"/>
       <use xlink:href="#DejaVuSans-2e" transform="translate(127.246094 0)"/>
       <use xlink:href="#DejaVuSans-35" transform="translate(159.033203 0)"/>
      </g>
     </g>
    </g>
    <g id="xtick_9">
     <g id="line2d_9">
      <g>
       <use xlink:href="#m6837ab4289" x="382.168703" y="273.312" style="stroke: #000000; stroke-width: 0.8"/>
      </g>
     </g>
     <g id="text_9">
      <!-- 20.0 -->
      <g transform="translate(371.03589 287.910437) scale(0.1 -0.1)">
       <use xlink:href="#DejaVuSans-32"/>
       <use xlink:href="#DejaVuSans-30" transform="translate(63.623047 0)"/>
       <use xlink:href="#DejaVuSans-2e" transform="translate(127.246094 0)"/>
       <use xlink:href="#DejaVuSans-30" transform="translate(159.033203 0)"/>
      </g>
     </g>
    </g>
   </g>
   <g id="matplotlib.axis_2">
    <g id="ytick_1">
     <g id="line2d_10">
      <defs>
       <path id="m4c16ebd187" d="M 0 0 
L -3.5 0 
" style="stroke: #000000; stroke-width: 0.8"/>
      </defs>
      <g>
       <use xlink:href="#m4c16ebd187" x="39.65" y="261.216" style="stroke: #000000; stroke-width: 0.8"/>
      </g>
     </g>
     <g id="text_10">
      <!-- 0 -->
      <g transform="translate(26.2875 265.015219) scale(0.1 -0.1)">
       <use xlink:href="#DejaVuSans-30"/>
      </g>
     </g>
    </g>
    <g id="ytick_2">
     <g id="line2d_11">
      <g>
       <use xlink:href="#m4c16ebd187" x="39.65" y="222.019629" style="stroke: #000000; stroke-width: 0.8"/>
      </g>
     </g>
     <g id="text_11">
      <!-- 500 -->
      <g transform="translate(13.5625 225.818848) scale(0.1 -0.1)">
       <use xlink:href="#DejaVuSans-35"/>
       <use xlink:href="#DejaVuSans-30" transform="translate(63.623047 0)"/>
       <use xlink:href="#DejaVuSans-30" transform="translate(127.246094 0)"/>
      </g>
     </g>
    </g>
    <g id="ytick_3">
     <g id="line2d_12">
      <g>
       <use xlink:href="#m4c16ebd187" x="39.65" y="182.823259" style="stroke: #000000; stroke-width: 0.8"/>
      </g>
     </g>
     <g id="text_12">
      <!-- 1000 -->
      <g transform="translate(7.2 186.622477) scale(0.1 -0.1)">
       <use xlink:href="#DejaVuSans-31"/>
       <use xlink:href="#DejaVuSans-30" transform="translate(63.623047 0)"/>
       <use xlink:href="#DejaVuSans-30" transform="translate(127.246094 0)"/>
       <use xlink:href="#DejaVuSans-30" transform="translate(190.869141 0)"/>
      </g>
     </g>
    </g>
    <g id="ytick_4">
     <g id="line2d_13">
      <g>
       <use xlink:href="#m4c16ebd187" x="39.65" y="143.626888" style="stroke: #000000; stroke-width: 0.8"/>
      </g>
     </g>
     <g id="text_13">
      <!-- 1500 -->
      <g transform="translate(7.2 147.426107) scale(0.1 -0.1)">
       <use xlink:href="#DejaVuSans-31"/>
       <use xlink:href="#DejaVuSans-35" transform="translate(63.623047 0)"/>
       <use xlink:href="#DejaVuSans-30" transform="translate(127.246094 0)"/>
       <use xlink:href="#DejaVuSans-30" transform="translate(190.869141 0)"/>
      </g>
     </g>
    </g>
    <g id="ytick_5">
     <g id="line2d_14">
      <g>
       <use xlink:href="#m4c16ebd187" x="39.65" y="104.430517" style="stroke: #000000; stroke-width: 0.8"/>
      </g>
     </g>
     <g id="text_14">
      <!-- 2000 -->
      <g transform="translate(7.2 108.229736) scale(0.1 -0.1)">
       <use xlink:href="#DejaVuSans-32"/>
       <use xlink:href="#DejaVuSans-30" transform="translate(63.623047 0)"/>
       <use xlink:href="#DejaVuSans-30" transform="translate(127.246094 0)"/>
       <use xlink:href="#DejaVuSans-30" transform="translate(190.869141 0)"/>
      </g>
     </g>
    </g>
    <g id="ytick_6">
     <g id="line2d_15">
      <g>
       <use xlink:href="#m4c16ebd187" x="39.65" y="65.234146" style="stroke: #000000; stroke-width: 0.8"/>
      </g>
     </g>
     <g id="text_15">
      <!-- 2500 -->
      <g transform="translate(7.2 69.033365) scale(0.1 -0.1)">
       <use xlink:href="#DejaVuSans-32"/>
       <use xlink:href="#DejaVuSans-35" transform="translate(63.623047 0)"/>
       <use xlink:href="#DejaVuSans-30" transform="translate(127.246094 0)"/>
       <use xlink:href="#DejaVuSans-30" transform="translate(190.869141 0)"/>
      </g>
     </g>
    </g>
    <g id="ytick_7">
     <g id="line2d_16">
      <g>
       <use xlink:href="#m4c16ebd187" x="39.65" y="26.037776" style="stroke: #000000; stroke-width: 0.8"/>
      </g>
     </g>
     <g id="text_16">
      <!-- 3000 -->
      <g transform="translate(7.2 29.836995) scale(0.1 -0.1)">
       <defs>
        <path id="DejaVuSans-33" d="M 2597 2516 
Q 3050 2419 3304 2112 
Q 3559 1806 3559 1356 
Q 3559 666 3084 287 
Q 2609 -91 1734 -91 
Q 1441 -91 1130 -33 
Q 819 25 488 141 
L 488 750 
Q 750 597 1062 519 
Q 1375 441 1716 441 
Q 2309 441 2620 675 
Q 2931 909 2931 1356 
Q 2931 1769 2642 2001 
Q 2353 2234 1838 2234 
L 1294 2234 
L 1294 2753 
L 1863 2753 
Q 2328 2753 2575 2939 
Q 2822 3125 2822 3475 
Q 2822 3834 2567 4026 
Q 2313 4219 1838 4219 
Q 1578 4219 1281 4162 
Q 984 4106 628 3988 
L 628 4550 
Q 988 4650 1302 4700 
Q 1616 4750 1894 4750 
Q 2613 4750 3031 4423 
Q 3450 4097 3450 3541 
Q 3450 3153 3228 2886 
Q 3006 2619 2597 2516 
z
" transform="scale(0.015625)"/>
       </defs>
       <use xlink:href="#DejaVuSans-33"/>
       <use xlink:href="#DejaVuSans-30" transform="translate(63.623047 0)"/>
       <use xlink:href="#DejaVuSans-30" transform="translate(127.246094 0)"/>
       <use xlink:href="#DejaVuSans-30" transform="translate(190.869141 0)"/>
      </g>
     </g>
    </g>
   </g>
   <g id="line2d_17">
    <path d="M 55.882727 261.216 
L 59.961302 241.617815 
L 64.039877 223.908894 
L 68.118451 207.907114 
L 72.197026 193.447905 
L 76.275601 180.382564 
L 80.354175 168.576722 
L 84.43275 157.908963 
L 88.511325 148.269576 
L 92.589899 139.559426 
L 96.668474 131.688934 
L 100.747049 124.577158 
L 104.825624 118.150957 
L 108.904198 112.344242 
L 112.982773 107.097294 
L 117.061348 102.356152 
L 121.139922 98.072056 
L 125.218497 94.200947 
L 129.297072 90.703013 
L 133.375646 87.542279 
L 137.454221 84.686241 
L 141.532796 82.105524 
L 145.61137 79.773589 
L 149.689945 77.666452 
L 153.76852 75.762443 
L 157.847095 74.04198 
L 161.925669 72.48737 
L 166.004244 71.082625 
L 170.082819 69.813297 
L 174.161393 68.666332 
L 178.239968 67.629935 
L 182.318543 66.693446 
L 186.397117 65.847235 
L 190.475692 65.082599 
L 194.554267 64.391673 
L 198.632841 63.767353 
L 202.711416 63.203217 
L 206.789991 62.693464 
L 210.868566 62.232851 
L 214.94714 61.816641 
L 219.025715 61.440554 
L 223.10429 61.100722 
L 227.182864 60.793649 
L 231.261439 60.516179 
L 235.340014 60.265456 
L 239.418588 60.038903 
L 243.497163 59.83419 
L 247.575738 59.649211 
L 251.654312 59.482064 
L 255.732887 59.33103 
L 259.811462 59.194556 
L 263.890037 59.071238 
L 267.968611 58.959807 
L 272.047186 58.859119 
L 276.125761 58.768137 
L 280.204335 58.685926 
L 284.28291 58.61164 
L 288.361485 58.544515 
L 292.440059 58.48386 
L 296.518634 58.429053 
L 300.597209 58.37953 
L 304.675783 58.33478 
L 308.754358 58.294344 
L 312.832933 58.257806 
L 316.911508 58.224791 
L 320.990082 58.194958 
L 325.068657 58.168001 
L 329.147232 58.143643 
L 333.225806 58.121633 
L 337.304381 58.101744 
L 341.382956 58.083773 
L 345.46153 58.067535 
L 349.540105 58.052861 
L 353.61868 58.039603 
L 357.697254 58.027622 
L 361.775829 58.016796 
L 365.854404 58.007014 
L 369.932979 57.998175 
L 374.011553 57.990188 
L 378.090128 57.982971 
" clip-path="url(#p39633647da)" style="fill: none; stroke: #1f77b4; stroke-width: 1.5; stroke-linecap: square"/>
   </g>
   <g id="line2d_18">
    <path d="M 55.882727 261.216 
L 59.961302 261.216 
L 64.039877 259.326735 
L 68.118451 256.184131 
L 72.197026 252.25381 
L 76.275601 247.873683 
L 80.354175 243.286165 
L 84.43275 238.662485 
L 88.511325 234.121041 
L 92.589899 229.741215 
L 96.668474 225.573764 
L 100.747049 221.64862 
L 104.825624 217.980721 
L 108.904198 214.574365 
L 112.982773 211.426448 
L 117.061348 208.528855 
L 121.139922 205.870218 
L 125.218497 203.437199 
L 129.297072 201.215416 
L 133.375646 199.190104 
L 137.454221 197.346577 
L 141.532796 195.670544 
L 145.61137 194.148313 
L 149.689945 192.766923 
L 153.76852 191.514215 
L 157.847095 190.378861 
L 161.925669 189.350366 
L 166.004244 188.419051 
L 170.082819 187.576021 
L 174.161393 186.813123 
L 178.239968 186.122906 
L 182.318543 185.498571 
L 186.397117 184.933923 
L 190.475692 184.423329 
L 194.554267 183.961669 
L 198.632841 183.544294 
L 202.711416 183.166988 
L 206.789991 182.825929 
L 210.868566 182.517651 
L 214.94714 182.239019 
L 219.025715 181.987192 
L 223.10429 181.759598 
L 227.182864 181.553913 
L 231.261439 181.368032 
L 235.340014 181.200051 
L 239.418588 181.04825 
L 243.497163 180.911071 
L 247.575738 180.787108 
L 251.654312 180.67509 
L 255.732887 180.573865 
L 259.811462 180.482395 
L 263.890037 180.39974 
L 267.968611 180.32505 
L 272.047186 180.257559 
L 276.125761 180.196573 
L 280.204335 180.141466 
L 284.28291 180.09167 
L 288.361485 180.046673 
L 292.440059 180.006015 
L 296.518634 179.969275 
L 300.597209 179.936077 
L 304.675783 179.906078 
L 308.754358 179.878972 
L 312.832933 179.854478 
L 316.911508 179.832346 
L 320.990082 179.812347 
L 325.068657 179.794276 
L 329.147232 179.777947 
L 333.225806 179.763192 
L 337.304381 179.74986 
L 341.382956 179.737812 
L 345.46153 179.726926 
L 349.540105 179.71709 
L 353.61868 179.708201 
L 357.697254 179.70017 
L 361.775829 179.692913 
L 365.854404 179.686355 
L 369.932979 179.68043 
L 374.011553 179.675075 
L 378.090128 179.670237 
" clip-path="url(#p39633647da)" style="fill: none; stroke: #ff7f0e; stroke-width: 1.5; stroke-linecap: square"/>
   </g>
   <g id="line2d_19">
    <path d="M 55.882727 261.216 
L 59.145587 246.713343 
L 60.777017 240.285138 
L 62.408447 231.897115 
L 64.039877 222.881949 
L 65.671307 216.688923 
L 67.302736 209.241612 
L 68.934166 203.44055 
L 70.565596 195.44449 
L 72.197026 192.073602 
L 73.828456 182.980044 
L 75.459886 179.060407 
L 77.091316 174.827199 
L 78.722746 171.064347 
L 80.354175 168.398994 
L 81.985605 164.400964 
L 83.617035 159.383829 
L 85.248465 156.091334 
L 86.879895 152.485268 
L 91.774185 137.355469 
L 96.668474 128.575482 
L 98.299904 124.185488 
L 99.931334 120.579422 
L 101.562764 117.443712 
L 103.194194 115.483894 
L 104.825624 110.937115 
L 106.457053 107.487834 
L 108.088483 103.019448 
L 109.719913 100.746058 
L 111.351343 98.707847 
L 112.982773 97.610349 
L 114.614203 96.669636 
L 116.245633 92.749999 
L 117.877063 90.398216 
L 119.508492 88.751969 
L 121.139922 89.06554 
L 122.771352 86.086616 
L 124.402782 85.537866 
L 127.665642 80.912695 
L 129.297072 80.050375 
L 130.928502 78.404127 
L 132.559931 77.541807 
L 134.191361 74.954846 
L 135.822791 73.543777 
L 137.454221 71.819137 
L 139.085651 72.2111 
L 140.717081 70.956817 
L 142.348511 69.859318 
L 145.61137 70.094496 
L 147.2428 68.683427 
L 150.50566 66.723609 
L 152.13709 64.215041 
L 153.76852 61.157724 
L 155.39995 59.90344 
L 157.03138 60.060226 
L 158.66281 60.060226 
L 160.294239 58.570763 
L 161.925669 54.807912 
L 163.557099 54.807912 
L 165.188529 55.199876 
L 166.819959 55.748625 
L 168.451389 54.337555 
L 170.082819 53.945592 
L 171.714249 51.201846 
L 173.345678 51.515417 
L 174.977108 50.809882 
L 176.608538 51.04506 
L 178.239968 50.496311 
L 179.871398 50.496311 
L 181.502828 49.633991 
L 183.134258 49.398813 
L 184.765688 49.32042 
L 188.028547 46.811852 
L 189.659977 46.733459 
L 191.291407 47.04703 
L 192.922837 45.949532 
L 194.554267 44.538463 
L 196.185697 45.008819 
L 197.817127 44.46007 
L 199.448556 41.794717 
L 201.079986 39.756506 
L 202.711416 39.834898 
L 204.342846 39.442935 
L 205.974276 37.169545 
L 207.605706 36.699189 
L 209.237136 34.190621 
L 210.868566 33.641872 
L 212.499995 32.622766 
L 214.131425 30.662948 
L 215.762855 29.87902 
L 217.394285 30.270984 
L 219.025715 30.035806 
L 220.657145 29.408664 
L 222.288575 28.546343 
L 223.920005 27.997594 
L 225.551434 30.192591 
L 227.182864 31.60366 
L 228.814294 31.682053 
L 230.445724 31.290089 
L 232.077154 30.427769 
L 233.708584 29.800627 
L 235.340014 28.467951 
L 236.971444 28.859914 
L 238.602873 28.781522 
L 240.234303 28.938307 
L 241.865733 27.840809 
L 243.497163 28.311165 
L 245.128593 28.938307 
L 246.760023 27.997594 
L 248.391453 27.919202 
L 250.022883 27.997594 
L 251.654312 26.74331 
L 253.285742 26.272954 
L 254.917172 26.508132 
L 256.548602 27.840809 
L 258.180032 30.114198 
L 259.811462 29.800627 
L 261.442892 30.035806 
L 263.074322 28.938307 
L 264.705751 28.624736 
L 266.337181 29.565449 
L 267.968611 29.0167 
L 269.600041 29.643842 
L 271.231471 29.251878 
L 272.862901 29.565449 
L 274.494331 29.487056 
L 276.125761 29.800627 
L 277.75719 30.427769 
L 279.38862 28.938307 
L 281.02005 28.467951 
L 282.65148 26.821703 
L 284.28291 26.351347 
L 285.91434 26.664918 
L 287.54577 25.724205 
L 289.1772 25.01867 
L 290.80863 23.921172 
L 292.440059 23.29403 
L 294.071489 24.234743 
L 295.702919 22.980459 
L 297.334349 21.412604 
L 298.965779 20.863855 
L 300.597209 19.296 
L 302.228639 19.687964 
L 303.860069 22.823673 
L 305.491498 22.980459 
L 307.122928 24.15635 
L 308.754358 24.783492 
L 312.017218 26.429739 
L 313.648648 25.253848 
L 315.280078 25.802598 
L 316.911508 25.097063 
L 318.542937 25.959383 
L 320.174367 27.527238 
L 321.805797 28.703129 
L 323.437227 28.546343 
L 325.068657 27.684023 
L 326.700087 27.056881 
L 328.331517 26.900096 
L 329.962947 27.056881 
L 331.594376 26.194561 
L 333.225806 24.861885 
L 334.857236 25.959383 
L 336.488666 26.900096 
L 338.120096 27.448845 
L 339.751526 25.88099 
L 341.382956 25.567419 
L 343.014386 25.959383 
L 344.645815 26.978489 
L 346.277245 27.29206 
L 347.908675 26.74331 
L 349.540105 25.175456 
L 351.171535 24.783492 
L 352.802965 23.921172 
L 354.434395 23.685994 
L 356.065825 23.607601 
L 357.697254 24.391528 
L 359.328684 22.196531 
L 360.960114 23.764386 
L 362.591544 22.118139 
L 364.222974 24.391528 
L 365.854404 24.783492 
L 367.485834 26.429739 
L 369.117264 24.313135 
L 370.748693 24.705099 
L 372.380123 24.077957 
L 374.011553 25.01867 
L 375.642983 27.370452 
L 377.274413 27.056881 
L 378.905843 28.389558 
L 380.537273 29.408664 
L 380.537273 29.408664 
" clip-path="url(#p39633647da)" style="fill: none; stroke: #2ca02c; stroke-width: 1.5; stroke-linecap: square"/>
   </g>
   <g id="line2d_20">
    <path d="M 55.882727 261.216 
L 59.145587 260.980822 
L 60.777017 259.726538 
L 62.408447 259.021003 
L 64.039877 258.550647 
L 68.934166 255.258152 
L 70.565596 253.925475 
L 72.197026 251.730478 
L 73.828456 250.397802 
L 75.459886 247.654056 
L 77.091316 245.615844 
L 80.354175 240.128353 
L 81.985605 238.011749 
L 83.617035 236.522286 
L 85.248465 235.659966 
L 86.879895 232.837828 
L 88.511325 231.897115 
L 90.142755 229.858903 
L 91.774185 229.388547 
L 95.037044 226.33123 
L 96.668474 224.214626 
L 98.299904 223.038735 
L 99.931334 220.686953 
L 103.194194 217.002494 
L 104.825624 214.572319 
L 106.457053 212.769286 
L 108.088483 211.75018 
L 109.719913 209.320005 
L 112.982773 204.930012 
L 114.614203 203.362157 
L 116.245633 202.656622 
L 119.508492 197.404308 
L 121.139922 193.955028 
L 122.771352 191.760031 
L 124.402782 190.348962 
L 126.034212 189.408249 
L 127.665642 187.44843 
L 129.297072 186.115754 
L 130.928502 184.391113 
L 132.559931 182.274509 
L 134.191361 180.706655 
L 135.822791 180.785047 
L 137.454221 180.314691 
L 139.085651 177.570945 
L 140.717081 176.86541 
L 142.348511 175.532734 
L 143.979941 173.180951 
L 145.61137 172.710595 
L 147.2428 171.456311 
L 148.87423 169.653278 
L 150.50566 168.790958 
L 152.13709 169.182922 
L 153.76852 170.045242 
L 155.39995 170.123634 
L 157.03138 168.320601 
L 160.294239 167.14471 
L 161.925669 167.14471 
L 163.557099 165.968819 
L 165.188529 163.617037 
L 166.819959 164.087393 
L 168.451389 163.538644 
L 170.082819 161.970789 
L 171.714249 162.28436 
L 173.345678 161.108469 
L 174.977108 161.343647 
L 176.608538 161.108469 
L 178.239968 161.343647 
L 179.871398 160.55972 
L 181.502828 160.089364 
L 183.134258 158.83508 
L 184.765688 157.267225 
L 186.397117 158.051152 
L 189.659977 157.659189 
L 191.291407 157.188832 
L 194.554267 157.42401 
L 196.185697 156.56169 
L 197.817127 154.680264 
L 199.448556 155.229014 
L 201.079986 155.620977 
L 202.711416 154.993835 
L 204.342846 153.269195 
L 205.974276 153.11241 
L 207.605706 152.250089 
L 209.237136 154.915443 
L 212.499995 152.406875 
L 214.131425 152.720446 
L 215.762855 152.798839 
L 217.394285 151.936518 
L 219.025715 150.682235 
L 220.657145 150.682235 
L 222.288575 150.055093 
L 223.920005 149.898307 
L 225.551434 150.211878 
L 227.182864 150.055093 
L 228.814294 150.760627 
L 232.077154 151.387769 
L 233.708584 150.83902 
L 235.340014 150.525449 
L 236.971444 149.584736 
L 238.602873 150.055093 
L 240.234303 148.722416 
L 241.865733 148.800809 
L 245.128593 145.900277 
L 246.760023 147.154561 
L 248.391453 147.860096 
L 250.022883 147.938489 
L 251.654312 148.487238 
L 253.285742 146.527419 
L 254.917172 146.135456 
L 256.548602 143.862066 
L 258.180032 143.156531 
L 259.811462 143.548495 
L 263.074322 145.586706 
L 264.705751 146.135456 
L 267.968611 146.370634 
L 269.600041 144.489208 
L 271.231471 145.97867 
L 272.862901 146.370634 
L 274.494331 147.546525 
L 276.125761 146.919383 
L 277.75719 145.586706 
L 279.38862 145.900277 
L 281.02005 144.881172 
L 282.65148 146.135456 
L 284.28291 147.938489 
L 285.91434 146.370634 
L 287.54577 146.919383 
L 289.1772 146.527419 
L 290.80863 145.97867 
L 292.440059 144.881172 
L 294.071489 144.802779 
L 295.702919 146.84099 
L 297.334349 147.860096 
L 298.965779 148.408845 
L 300.597209 148.25206 
L 302.228639 147.076169 
L 303.860069 143.078139 
L 305.491498 144.332423 
L 308.754358 143.470102 
L 310.385788 144.25403 
L 312.017218 144.097244 
L 313.648648 144.097244 
L 315.280078 143.626888 
L 316.911508 144.097244 
L 318.542937 143.705281 
L 320.174367 142.137426 
L 321.805797 140.804749 
L 323.437227 139.785644 
L 325.068657 139.942429 
L 326.700087 140.647964 
L 328.331517 140.020822 
L 329.962947 141.11832 
L 331.594376 142.450997 
L 333.225806 142.607782 
L 334.857236 142.215819 
L 336.488666 142.84296 
L 338.120096 143.783673 
L 339.751526 144.25403 
L 341.382956 145.508314 
L 344.645815 145.11635 
L 346.277245 145.665099 
L 347.908675 145.900277 
L 349.540105 146.684205 
L 351.171535 146.449027 
L 352.802965 147.389739 
L 354.434395 147.154561 
L 356.065825 147.311347 
L 357.697254 146.919383 
L 359.328684 147.311347 
L 360.960114 145.508314 
L 362.591544 145.97867 
L 364.222974 145.11635 
L 365.854404 143.783673 
L 367.485834 142.999746 
L 369.117264 143.548495 
L 370.748693 143.940459 
L 372.380123 144.567601 
L 374.011553 145.821885 
L 377.274413 144.410815 
L 378.905843 145.273135 
L 380.537273 144.410815 
L 380.537273 144.410815 
" clip-path="url(#p39633647da)" style="fill: none; stroke: #d62728; stroke-width: 1.5; stroke-linecap: square"/>
   </g>
   <g id="patch_3">
    <path d="M 39.65 273.312 
L 39.65 7.2 
" style="fill: none; stroke: #000000; stroke-width: 0.8; stroke-linejoin: miter; stroke-linecap: square"/>
   </g>
   <g id="patch_4">
    <path d="M 396.77 273.312 
L 396.77 7.2 
" style="fill: none; stroke: #000000; stroke-width: 0.8; stroke-linejoin: miter; stroke-linecap: square"/>
   </g>
   <g id="patch_5">
    <path d="M 39.65 273.312 
L 396.77 273.312 
" style="fill: none; stroke: #000000; stroke-width: 0.8; stroke-linejoin: miter; stroke-linecap: square"/>
   </g>
   <g id="patch_6">
    <path d="M 39.65 7.2 
L 396.77 7.2 
" style="fill: none; stroke: #000000; stroke-width: 0.8; stroke-linejoin: miter; stroke-linecap: square"/>
   </g>
  </g>
 </g>
 <defs>
  <clipPath id="p39633647da">
   <rect x="39.65" y="7.2" width="357.12" height="266.112"/>
  </clipPath>
 </defs>
</svg>
