<?xml version="1.0" encoding="utf-8" standalone="no"?>
<!DOCTYPE svg PUBLIC "-//W3C//DTD SVG 1.1//EN"
  "http://www.w3.org/Graphics/SVG/1.1/DTD/svg11.dtd">
<svg xmlns:xlink="http://www.w3.org/1999/xlink" width="403.97pt" height="297.190125pt" viewBox="0 0 403.97 297.190125" xmlns="http://www.w3.org/2000/svg" version="1.1">
 <metadata>
  <rdf:RDF xmlns:dc="http://purl.org/dc/elements/1.1/" xmlns:cc="http://creativecommons.org/ns#" xmlns:rdf="http://www.w3.org/1999/02/22-rdf-syntax-ns#">
   <cc:Work>
    <dc:type rdf:resource="http://purl.org/dc/dcmitype/StillImage"/>
    <dc:date>2025-07-06T21:19:14.781679</dc:date>
    <dc:format>image/svg+xml</dc:format>
    <dc:creator>
     <cc:Agent>
      <dc:title>Matplotlib v3.10.3, https://matplotlib.org/</dc:title>
     </cc:Agent>
    </dc:creator>
   </cc:Work>
  </rdf:RDF>
 </metadata>
 <defs>
  <style type="text/css">*{stroke-linejoin: round; stroke-linecap: butt}</style>
 </defs>
 <g id="figure_1">
  <g id="patch_1">
   <path d="M 0 297.190125 
L 403.97 297.190125 
L 403.97 0 
L 0 0 
z
" style="fill: #ffffff"/>
  </g>
  <g id="axes_1">
   <g id="patch_2">
    <path d="M 39.65 273.312 
L 396.77 273.312 
L 396.77 7.2 
L 39.65 7.2 
z
" style="fill: #ffffff"/>
   </g>
   <g id="matplotlib.axis_1">
    <g id="xtick_1">
     <g id="line2d_1">
      <defs>
       <path id="m741c211a44" d="M 0 0 
L 0 3.5 
" style="stroke: #000000; stroke-width: 0.8"/>
      </defs>
      <g>
       <use xlink:href="#m741c211a44" x="55.882727" y="273.312" style="stroke: #000000; stroke-width: 0.8"/>
      </g>
     </g>
     <g id="text_1">
      <!-- 0.0 -->
      <g transform="translate(47.931165 287.910437) scale(0.1 -0.1)">
       <defs>
        <path id="DejaVuSans-30" d="M 2034 4250 
Q 1547 4250 1301 3770 
Q 1056 3291 1056 2328 
Q 1056 1369 1301 889 
Q 1547 409 2034 409 
Q 2525 409 2770 889 
Q 3016 1369 3016 2328 
Q 3016 3291 2770 3770 
Q 2525 4250 2034 4250 
z
M 2034 4750 
Q 2819 4750 3233 4129 
Q 3647 3509 3647 2328 
Q 3647 1150 3233 529 
Q 2819 -91 2034 -91 
Q 1250 -91 836 529 
Q 422 1150 422 2328 
Q 422 3509 836 4129 
Q 1250 4750 2034 4750 
z
" transform="scale(0.015625)"/>
        <path id="DejaVuSans-2e" d="M 684 794 
L 1344 794 
L 1344 0 
L 684 0 
L 684 794 
z
" transform="scale(0.015625)"/>
       </defs>
       <use xlink:href="#DejaVuSans-30"/>
       <use xlink:href="#DejaVuSans-2e" transform="translate(63.623047 0)"/>
       <use xlink:href="#DejaVuSans-30" transform="translate(95.410156 0)"/>
      </g>
     </g>
    </g>
    <g id="xtick_2">
     <g id="line2d_2">
      <g>
       <use xlink:href="#m741c211a44" x="96.668474" y="273.312" style="stroke: #000000; stroke-width: 0.8"/>
      </g>
     </g>
     <g id="text_2">
      <!-- 2.5 -->
      <g transform="translate(88.716912 287.910437) scale(0.1 -0.1)">
       <defs>
        <path id="DejaVuSans-32" d="M 1228 531 
L 3431 531 
L 3431 0 
L 469 0 
L 469 531 
Q 828 903 1448 1529 
Q 2069 2156 2228 2338 
Q 2531 2678 2651 2914 
Q 2772 3150 2772 3378 
Q 2772 3750 2511 3984 
Q 2250 4219 1831 4219 
Q 1534 4219 1204 4116 
Q 875 4013 500 3803 
L 500 4441 
Q 881 4594 1212 4672 
Q 1544 4750 1819 4750 
Q 2544 4750 2975 4387 
Q 3406 4025 3406 3419 
Q 3406 3131 3298 2873 
Q 3191 2616 2906 2266 
Q 2828 2175 2409 1742 
Q 1991 1309 1228 531 
z
" transform="scale(0.015625)"/>
        <path id="DejaVuSans-35" d="M 691 4666 
L 3169 4666 
L 3169 4134 
L 1269 4134 
L 1269 2991 
Q 1406 3038 1543 3061 
Q 1681 3084 1819 3084 
Q 2600 3084 3056 2656 
Q 3513 2228 3513 1497 
Q 3513 744 3044 326 
Q 2575 -91 1722 -91 
Q 1428 -91 1123 -41 
Q 819 9 494 109 
L 494 744 
Q 775 591 1075 516 
Q 1375 441 1709 441 
Q 2250 441 2565 725 
Q 2881 1009 2881 1497 
Q 2881 1984 2565 2268 
Q 2250 2553 1709 2553 
Q 1456 2553 1204 2497 
Q 953 2441 691 2322 
L 691 4666 
z
" transform="scale(0.015625)"/>
       </defs>
       <use xlink:href="#DejaVuSans-32"/>
       <use xlink:href="#DejaVuSans-2e" transform="translate(63.623047 0)"/>
       <use xlink:href="#DejaVuSans-35" transform="translate(95.410156 0)"/>
      </g>
     </g>
    </g>
    <g id="xtick_3">
     <g id="line2d_3">
      <g>
       <use xlink:href="#m741c211a44" x="137.454221" y="273.312" style="stroke: #000000; stroke-width: 0.8"/>
      </g>
     </g>
     <g id="text_3">
      <!-- 5.0 -->
      <g transform="translate(129.502659 287.910437) scale(0.1 -0.1)">
       <use xlink:href="#DejaVuSans-35"/>
       <use xlink:href="#DejaVuSans-2e" transform="translate(63.623047 0)"/>
       <use xlink:href="#DejaVuSans-30" transform="translate(95.410156 0)"/>
      </g>
     </g>
    </g>
    <g id="xtick_4">
     <g id="line2d_4">
      <g>
       <use xlink:href="#m741c211a44" x="178.239968" y="273.312" style="stroke: #000000; stroke-width: 0.8"/>
      </g>
     </g>
     <g id="text_4">
      <!-- 7.5 -->
      <g transform="translate(170.288406 287.910437) scale(0.1 -0.1)">
       <defs>
        <path id="DejaVuSans-37" d="M 525 4666 
L 3525 4666 
L 3525 4397 
L 1831 0 
L 1172 0 
L 2766 4134 
L 525 4134 
L 525 4666 
z
" transform="scale(0.015625)"/>
       </defs>
       <use xlink:href="#DejaVuSans-37"/>
       <use xlink:href="#DejaVuSans-2e" transform="translate(63.623047 0)"/>
       <use xlink:href="#DejaVuSans-35" transform="translate(95.410156 0)"/>
      </g>
     </g>
    </g>
    <g id="xtick_5">
     <g id="line2d_5">
      <g>
       <use xlink:href="#m741c211a44" x="219.025715" y="273.312" style="stroke: #000000; stroke-width: 0.8"/>
      </g>
     </g>
     <g id="text_5">
      <!-- 10.0 -->
      <g transform="translate(207.892902 287.910437) scale(0.1 -0.1)">
       <defs>
        <path id="DejaVuSans-31" d="M 794 531 
L 1825 531 
L 1825 4091 
L 703 3866 
L 703 4441 
L 1819 4666 
L 2450 4666 
L 2450 531 
L 3481 531 
L 3481 0 
L 794 0 
L 794 531 
z
" transform="scale(0.015625)"/>
       </defs>
       <use xlink:href="#DejaVuSans-31"/>
       <use xlink:href="#DejaVuSans-30" transform="translate(63.623047 0)"/>
       <use xlink:href="#DejaVuSans-2e" transform="translate(127.246094 0)"/>
       <use xlink:href="#DejaVuSans-30" transform="translate(159.033203 0)"/>
      </g>
     </g>
    </g>
    <g id="xtick_6">
     <g id="line2d_6">
      <g>
       <use xlink:href="#m741c211a44" x="259.811462" y="273.312" style="stroke: #000000; stroke-width: 0.8"/>
      </g>
     </g>
     <g id="text_6">
      <!-- 12.5 -->
      <g transform="translate(248.678649 287.910437) scale(0.1 -0.1)">
       <use xlink:href="#DejaVuSans-31"/>
       <use xlink:href="#DejaVuSans-32" transform="translate(63.623047 0)"/>
       <use xlink:href="#DejaVuSans-2e" transform="translate(127.246094 0)"/>
       <use xlink:href="#DejaVuSans-35" transform="translate(159.033203 0)"/>
      </g>
     </g>
    </g>
    <g id="xtick_7">
     <g id="line2d_7">
      <g>
       <use xlink:href="#m741c211a44" x="300.597209" y="273.312" style="stroke: #000000; stroke-width: 0.8"/>
      </g>
     </g>
     <g id="text_7">
      <!-- 15.0 -->
      <g transform="translate(289.464396 287.910437) scale(0.1 -0.1)">
       <use xlink:href="#DejaVuSans-31"/>
       <use xlink:href="#DejaVuSans-35" transform="translate(63.623047 0)"/>
       <use xlink:href="#DejaVuSans-2e" transform="translate(127.246094 0)"/>
       <use xlink:href="#DejaVuSans-30" transform="translate(159.033203 0)"/>
      </g>
     </g>
    </g>
    <g id="xtick_8">
     <g id="line2d_8">
      <g>
       <use xlink:href="#m741c211a44" x="341.382956" y="273.312" style="stroke: #000000; stroke-width: 0.8"/>
      </g>
     </g>
     <g id="text_8">
      <!-- 17.5 -->
      <g transform="translate(330.250143 287.910437) scale(0.1 -0.1)">
       <use xlink:href="#DejaVuSans-31"/>
       <use xlink:href="#DejaVuSans-37" transform="translate(63.623047 0)"/>
       <use xlink:href="#DejaVuSans-2e" transform="translate(127.246094 0)"/>
       <use xlink:href="#DejaVuSans-35" transform="translate(159.033203 0)"/>
      </g>
     </g>
    </g>
    <g id="xtick_9">
     <g id="line2d_9">
      <g>
       <use xlink:href="#m741c211a44" x="382.168703" y="273.312" style="stroke: #000000; stroke-width: 0.8"/>
      </g>
     </g>
     <g id="text_9">
      <!-- 20.0 -->
      <g transform="translate(371.03589 287.910437) scale(0.1 -0.1)">
       <use xlink:href="#DejaVuSans-32"/>
       <use xlink:href="#DejaVuSans-30" transform="translate(63.623047 0)"/>
       <use xlink:href="#DejaVuSans-2e" transform="translate(127.246094 0)"/>
       <use xlink:href="#DejaVuSans-30" transform="translate(159.033203 0)"/>
      </g>
     </g>
    </g>
   </g>
   <g id="matplotlib.axis_2">
    <g id="ytick_1">
     <g id="line2d_10">
      <defs>
       <path id="ma37fc3cd61" d="M 0 0 
L -3.5 0 
" style="stroke: #000000; stroke-width: 0.8"/>
      </defs>
      <g>
       <use xlink:href="#ma37fc3cd61" x="39.65" y="261.216" style="stroke: #000000; stroke-width: 0.8"/>
      </g>
     </g>
     <g id="text_10">
      <!-- 0 -->
      <g transform="translate(26.2875 265.015219) scale(0.1 -0.1)">
       <use xlink:href="#DejaVuSans-30"/>
      </g>
     </g>
    </g>
    <g id="ytick_2">
     <g id="line2d_11">
      <g>
       <use xlink:href="#ma37fc3cd61" x="39.65" y="222.455389" style="stroke: #000000; stroke-width: 0.8"/>
      </g>
     </g>
     <g id="text_11">
      <!-- 500 -->
      <g transform="translate(13.5625 226.254608) scale(0.1 -0.1)">
       <use xlink:href="#DejaVuSans-35"/>
       <use xlink:href="#DejaVuSans-30" transform="translate(63.623047 0)"/>
       <use xlink:href="#DejaVuSans-30" transform="translate(127.246094 0)"/>
      </g>
     </g>
    </g>
    <g id="ytick_3">
     <g id="line2d_12">
      <g>
       <use xlink:href="#ma37fc3cd61" x="39.65" y="183.694778" style="stroke: #000000; stroke-width: 0.8"/>
      </g>
     </g>
     <g id="text_12">
      <!-- 1000 -->
      <g transform="translate(7.2 187.493997) scale(0.1 -0.1)">
       <use xlink:href="#DejaVuSans-31"/>
       <use xlink:href="#DejaVuSans-30" transform="translate(63.623047 0)"/>
       <use xlink:href="#DejaVuSans-30" transform="translate(127.246094 0)"/>
       <use xlink:href="#DejaVuSans-30" transform="translate(190.869141 0)"/>
      </g>
     </g>
    </g>
    <g id="ytick_4">
     <g id="line2d_13">
      <g>
       <use xlink:href="#ma37fc3cd61" x="39.65" y="144.934168" style="stroke: #000000; stroke-width: 0.8"/>
      </g>
     </g>
     <g id="text_13">
      <!-- 1500 -->
      <g transform="translate(7.2 148.733386) scale(0.1 -0.1)">
       <use xlink:href="#DejaVuSans-31"/>
       <use xlink:href="#DejaVuSans-35" transform="translate(63.623047 0)"/>
       <use xlink:href="#DejaVuSans-30" transform="translate(127.246094 0)"/>
       <use xlink:href="#DejaVuSans-30" transform="translate(190.869141 0)"/>
      </g>
     </g>
    </g>
    <g id="ytick_5">
     <g id="line2d_14">
      <g>
       <use xlink:href="#ma37fc3cd61" x="39.65" y="106.173557" style="stroke: #000000; stroke-width: 0.8"/>
      </g>
     </g>
     <g id="text_14">
      <!-- 2000 -->
      <g transform="translate(7.2 109.972776) scale(0.1 -0.1)">
       <use xlink:href="#DejaVuSans-32"/>
       <use xlink:href="#DejaVuSans-30" transform="translate(63.623047 0)"/>
       <use xlink:href="#DejaVuSans-30" transform="translate(127.246094 0)"/>
       <use xlink:href="#DejaVuSans-30" transform="translate(190.869141 0)"/>
      </g>
     </g>
    </g>
    <g id="ytick_6">
     <g id="line2d_15">
      <g>
       <use xlink:href="#ma37fc3cd61" x="39.65" y="67.412946" style="stroke: #000000; stroke-width: 0.8"/>
      </g>
     </g>
     <g id="text_15">
      <!-- 2500 -->
      <g transform="translate(7.2 71.212165) scale(0.1 -0.1)">
       <use xlink:href="#DejaVuSans-32"/>
       <use xlink:href="#DejaVuSans-35" transform="translate(63.623047 0)"/>
       <use xlink:href="#DejaVuSans-30" transform="translate(127.246094 0)"/>
       <use xlink:href="#DejaVuSans-30" transform="translate(190.869141 0)"/>
      </g>
     </g>
    </g>
    <g id="ytick_7">
     <g id="line2d_16">
      <g>
       <use xlink:href="#ma37fc3cd61" x="39.65" y="28.652335" style="stroke: #000000; stroke-width: 0.8"/>
      </g>
     </g>
     <g id="text_16">
      <!-- 3000 -->
      <g transform="translate(7.2 32.451554) scale(0.1 -0.1)">
       <defs>
        <path id="DejaVuSans-33" d="M 2597 2516 
Q 3050 2419 3304 2112 
Q 3559 1806 3559 1356 
Q 3559 666 3084 287 
Q 2609 -91 1734 -91 
Q 1441 -91 1130 -33 
Q 819 25 488 141 
L 488 750 
Q 750 597 1062 519 
Q 1375 441 1716 441 
Q 2309 441 2620 675 
Q 2931 909 2931 1356 
Q 2931 1769 2642 2001 
Q 2353 2234 1838 2234 
L 1294 2234 
L 1294 2753 
L 1863 2753 
Q 2328 2753 2575 2939 
Q 2822 3125 2822 3475 
Q 2822 3834 2567 4026 
Q 2313 4219 1838 4219 
Q 1578 4219 1281 4162 
Q 984 4106 628 3988 
L 628 4550 
Q 988 4650 1302 4700 
Q 1616 4750 1894 4750 
Q 2613 4750 3031 4423 
Q 3450 4097 3450 3541 
Q 3450 3153 3228 2886 
Q 3006 2619 2597 2516 
z
" transform="scale(0.015625)"/>
       </defs>
       <use xlink:href="#DejaVuSans-33"/>
       <use xlink:href="#DejaVuSans-30" transform="translate(63.623047 0)"/>
       <use xlink:href="#DejaVuSans-30" transform="translate(127.246094 0)"/>
       <use xlink:href="#DejaVuSans-30" transform="translate(190.869141 0)"/>
      </g>
     </g>
    </g>
   </g>
   <g id="line2d_17">
    <path d="M 55.882727 261.216 
L 59.961302 241.835695 
L 64.039877 224.005814 
L 68.118451 207.602323 
L 72.197026 192.511112 
L 76.275601 178.627198 
L 80.354175 165.853996 
L 84.43275 154.102651 
L 88.511325 143.291414 
L 92.589899 133.345075 
L 96.668474 124.194444 
L 100.747049 115.775863 
L 104.825624 108.030769 
L 108.904198 100.905282 
L 112.982773 94.349834 
L 117.061348 88.318822 
L 121.139922 82.770291 
L 125.218497 77.665642 
L 129.297072 72.969365 
L 133.375646 68.648791 
L 137.454221 64.673862 
L 141.532796 61.016928 
L 145.61137 57.652548 
L 149.689945 54.557319 
L 153.76852 51.709708 
L 157.847095 49.089906 
L 161.925669 46.679688 
L 166.004244 44.462288 
L 170.082819 42.422279 
L 174.161393 40.545471 
L 178.239968 38.818808 
L 182.318543 37.230278 
L 186.397117 35.768831 
L 190.475692 34.424299 
L 194.554267 33.187329 
L 198.632841 32.049318 
L 202.711416 31.002347 
L 206.789991 30.039134 
L 210.868566 29.152978 
L 214.94714 28.337714 
L 219.025715 27.587672 
L 223.10429 26.897632 
L 227.182864 26.262796 
L 231.261439 25.678747 
L 235.340014 25.141422 
L 239.418588 24.647083 
L 243.497163 24.192291 
L 247.575738 23.773882 
L 251.654312 23.388946 
L 255.732887 23.034805 
L 259.811462 22.708995 
L 263.890037 22.40925 
L 267.968611 22.133485 
L 272.047186 21.879781 
L 276.125761 21.646373 
L 280.204335 21.431638 
L 284.28291 21.234081 
L 288.361485 21.052329 
L 292.440059 20.885118 
L 296.518634 20.731283 
L 300.597209 20.589755 
L 304.675783 20.459549 
L 308.754358 20.33976 
L 312.832933 20.229554 
L 316.911508 20.128164 
L 320.990082 20.034885 
L 325.068657 19.949069 
L 329.147232 19.870118 
L 333.225806 19.797483 
L 337.304381 19.730659 
L 341.382956 19.669181 
L 345.46153 19.612621 
L 349.540105 19.560586 
L 353.61868 19.512714 
L 357.697254 19.468671 
L 361.775829 19.428152 
L 365.854404 19.390875 
L 369.932979 19.356579 
L 374.011553 19.325028 
L 378.090128 19.296 
" clip-path="url(#pe9e1e09308)" style="fill: none; stroke: #1f77b4; stroke-width: 1.5; stroke-linecap: square"/>
   </g>
   <g id="line2d_18">
    <path d="M 55.882727 261.216 
L 59.961302 261.216 
L 64.039877 259.665576 
L 68.118451 256.926751 
L 72.197026 253.296056 
L 76.275601 249.015377 
L 80.354175 244.281068 
L 84.43275 239.25162 
L 88.511325 234.054084 
L 92.589899 228.789472 
L 96.668474 223.53727 
L 100.747049 218.35923 
L 104.825624 213.302533 
L 108.904198 208.402432 
L 112.982773 203.684457 
L 117.061348 199.166256 
L 121.139922 194.859117 
L 125.218497 190.769242 
L 129.297072 186.898791 
L 133.375646 183.246752 
L 137.454221 179.809654 
L 141.532796 176.582157 
L 145.61137 173.557526 
L 149.689945 170.728026 
L 153.76852 168.085235 
L 157.847095 165.620304 
L 161.925669 163.324156 
L 166.004244 161.187649 
L 170.082819 159.201704 
L 174.161393 157.357401 
L 178.239968 155.646054 
L 182.318543 154.059265 
L 186.397117 152.588966 
L 190.475692 151.227442 
L 194.554267 149.96735 
L 198.632841 148.801724 
L 202.711416 147.723981 
L 206.789991 146.727913 
L 210.868566 145.807685 
L 214.94714 144.95782 
L 219.025715 144.173188 
L 223.10429 143.448993 
L 227.182864 142.780759 
L 231.261439 142.164312 
L 235.340014 141.595766 
L 239.418588 141.071506 
L 243.497163 140.588172 
L 247.575738 140.142647 
L 251.654312 139.732037 
L 255.732887 139.353661 
L 259.811462 139.005035 
L 263.890037 138.683858 
L 267.968611 138.388001 
L 272.047186 138.115498 
L 276.125761 137.864528 
L 280.204335 137.633408 
L 284.28291 137.420587 
L 288.361485 137.22463 
L 292.440059 137.044211 
L 296.518634 136.87811 
L 300.597209 136.725199 
L 304.675783 136.584437 
L 308.754358 136.454866 
L 312.832933 136.335601 
L 316.911508 136.225826 
L 320.990082 136.124791 
L 325.068657 136.031803 
L 329.147232 135.946222 
L 333.225806 135.867463 
L 337.304381 135.794982 
L 341.382956 135.728281 
L 345.46153 135.6669 
L 349.540105 135.610417 
L 353.61868 135.558441 
L 357.697254 135.510613 
L 361.775829 135.466604 
L 365.854404 135.426108 
L 369.932979 135.388847 
L 374.011553 135.354561 
L 378.090128 135.323014 
" clip-path="url(#pe9e1e09308)" style="fill: none; stroke: #ff7f0e; stroke-width: 1.5; stroke-linecap: square"/>
   </g>
   <g id="line2d_19">
    <path d="M 55.882727 261.216 
L 57.514157 254.85926 
L 59.145587 247.339701 
L 64.039877 226.95162 
L 65.671307 221.21505 
L 67.302736 215.013352 
L 68.934166 210.362079 
L 70.565596 205.090636 
L 73.828456 192.454676 
L 75.459886 186.718106 
L 77.091316 182.299396 
L 78.722746 178.345814 
L 80.354175 172.764286 
L 81.985605 168.810704 
L 88.511325 151.44595 
L 90.142755 147.957495 
L 91.774185 143.383743 
L 95.037044 136.639397 
L 96.668474 131.290433 
L 98.299904 127.724456 
L 99.931334 126.251553 
L 103.194194 119.352165 
L 104.825624 117.414134 
L 108.088483 109.894575 
L 109.719913 107.956545 
L 111.351343 105.320823 
L 112.982773 102.375017 
L 114.614203 98.653998 
L 116.245633 94.467852 
L 117.877063 92.684864 
L 119.508492 90.591791 
L 121.139922 87.258379 
L 122.771352 86.018039 
L 124.402782 83.924966 
L 126.034212 83.227275 
L 127.665642 81.676851 
L 129.297072 80.97916 
L 130.928502 79.118651 
L 132.559931 77.645747 
L 134.191361 76.017802 
L 137.454221 71.056443 
L 139.085651 70.281231 
L 140.717081 68.420722 
L 142.348511 66.870298 
L 143.979941 65.009788 
L 145.61137 63.84697 
L 147.2428 61.908939 
L 148.87423 58.730569 
L 150.50566 57.412708 
L 152.13709 57.257666 
L 153.76852 56.637496 
L 155.39995 55.862284 
L 157.03138 56.947581 
L 158.66281 57.49023 
L 160.294239 55.164593 
L 161.925669 53.846732 
L 165.188529 50.978447 
L 166.819959 51.598617 
L 170.082819 48.730332 
L 171.714249 48.342726 
L 173.345678 47.645035 
L 176.608538 41.908464 
L 178.239968 40.97821 
L 179.871398 38.885137 
L 181.502828 39.1177 
L 183.134258 36.714542 
L 184.765688 36.792064 
L 186.397117 36.016851 
L 188.028547 37.102148 
L 189.659977 36.171894 
L 191.291407 35.474203 
L 192.922837 35.31916 
L 196.185697 31.52062 
L 197.817127 30.900451 
L 199.448556 31.598142 
L 201.079986 30.590366 
L 202.711416 32.450875 
L 204.342846 31.133014 
L 205.974276 29.039941 
L 207.605706 29.737632 
L 209.237136 30.590366 
L 210.868566 28.884899 
L 212.499995 29.58259 
L 214.131425 29.117463 
L 215.762855 29.117463 
L 217.394285 29.660111 
L 220.657145 29.427547 
L 222.288575 29.815154 
L 228.814294 28.807378 
L 230.445724 30.435323 
L 233.708584 28.187208 
L 235.340014 28.96242 
L 236.971444 29.117463 
L 238.602873 28.264729 
L 240.234303 28.652335 
L 241.865733 29.505069 
L 243.497163 30.590366 
L 245.128593 30.435323 
L 246.760023 28.729857 
L 248.391453 31.985748 
L 250.022883 32.993524 
L 251.654312 32.838481 
L 253.285742 31.830705 
L 254.917172 31.365578 
L 256.548602 32.063269 
L 258.180032 32.450875 
L 259.811462 33.846257 
L 261.442892 33.38113 
L 263.074322 31.52062 
L 264.705751 34.078821 
L 266.337181 34.0013 
L 267.968611 35.629245 
L 271.231471 35.396682 
L 272.862901 36.249415 
L 274.494331 35.706766 
L 276.125761 35.551724 
L 277.75719 35.861809 
L 279.38862 36.404457 
L 281.02005 34.621469 
L 282.65148 34.388906 
L 284.28291 34.0013 
L 285.91434 33.923778 
L 287.54577 33.613693 
L 289.1772 31.830705 
L 290.80863 30.435323 
L 292.440059 30.900451 
L 294.071489 29.350026 
L 295.702919 29.970196 
L 297.334349 31.210536 
L 298.965779 31.985748 
L 300.597209 31.443099 
L 302.228639 29.660111 
L 303.860069 29.350026 
L 305.491498 29.58259 
L 307.122928 29.970196 
L 308.754358 30.20276 
L 310.385788 28.652335 
L 312.017218 27.799602 
L 313.648648 27.256953 
L 315.280078 25.008838 
L 318.542937 28.187208 
L 320.174367 28.497293 
L 321.805797 28.652335 
L 323.437227 29.970196 
L 325.068657 30.435323 
L 326.700087 31.055493 
L 328.331517 31.133014 
L 329.962947 30.512845 
L 331.594376 32.76096 
L 333.225806 33.923778 
L 334.857236 33.536172 
L 336.488666 32.218311 
L 338.120096 32.683439 
L 339.751526 31.675663 
L 341.382956 31.055493 
L 343.014386 30.280281 
L 344.645815 30.822929 
L 346.277245 31.985748 
L 347.908675 31.365578 
L 349.540105 30.047717 
L 351.171535 30.357802 
L 352.802965 29.039941 
L 354.434395 28.574814 
L 356.065825 27.256953 
L 357.697254 26.791826 
L 359.328684 27.489517 
L 360.960114 28.729857 
L 362.591544 28.264729 
L 364.222974 27.334475 
L 365.854404 26.559262 
L 367.485834 26.326699 
L 369.117264 29.892675 
L 370.748693 28.264729 
L 372.380123 29.350026 
L 374.011553 27.644559 
L 375.642983 27.256953 
L 377.274413 26.636784 
L 378.905843 27.567038 
L 380.537273 27.954644 
L 380.537273 27.954644 
" clip-path="url(#pe9e1e09308)" style="fill: none; stroke: #2ca02c; stroke-width: 1.5; stroke-linecap: square"/>
   </g>
   <g id="line2d_20">
    <path d="M 55.882727 261.216 
L 59.145587 261.060958 
L 60.777017 260.750873 
L 62.408447 260.130703 
L 65.671307 258.580278 
L 67.302736 257.339939 
L 68.934166 255.944557 
L 72.197026 252.688666 
L 73.828456 251.525847 
L 75.459886 249.665338 
L 77.091316 247.029616 
L 78.722746 244.70398 
L 80.354175 242.145779 
L 81.985605 239.122452 
L 83.617035 236.719294 
L 85.248465 235.323912 
L 90.142755 230.285033 
L 93.405614 228.114438 
L 96.668474 225.401196 
L 98.299904 224.315899 
L 99.931334 221.21505 
L 101.562764 219.277019 
L 103.194194 217.881637 
L 104.825624 214.393182 
L 106.457053 212.067546 
L 108.088483 210.051994 
L 109.719913 207.26123 
L 111.351343 205.245678 
L 112.982773 202.997563 
L 114.614203 202.532435 
L 117.877063 199.896714 
L 119.508492 199.896714 
L 121.139922 200.051756 
L 122.771352 195.86561 
L 124.402782 195.012877 
L 126.034212 192.222113 
L 127.665642 191.756985 
L 129.297072 190.439125 
L 130.928502 189.353828 
L 132.559931 189.818955 
L 134.191361 188.501094 
L 135.822791 186.485542 
L 139.085651 185.787851 
L 140.717081 183.539736 
L 142.348511 181.989312 
L 143.979941 180.748972 
L 148.87423 179.663675 
L 150.50566 178.190772 
L 152.13709 175.477529 
L 153.76852 174.469753 
L 155.39995 173.306935 
L 157.03138 171.291383 
L 158.66281 170.43865 
L 160.294239 170.826256 
L 161.925669 169.508395 
L 163.557099 168.345577 
L 165.188529 168.345577 
L 166.819959 165.477291 
L 168.451389 166.485067 
L 170.082819 165.39977 
L 171.714249 164.469515 
L 173.345678 164.934643 
L 174.977108 164.391994 
L 176.608538 162.84157 
L 178.239968 160.515933 
L 179.871398 161.60123 
L 181.502828 159.508157 
L 183.134258 159.508157 
L 184.765688 156.639872 
L 186.397117 156.329787 
L 188.028547 155.089448 
L 189.659977 154.701842 
L 191.291407 154.62432 
L 192.922837 152.68629 
L 194.554267 153.694066 
L 196.185697 154.469278 
L 197.817127 154.62432 
L 199.448556 153.461502 
L 201.079986 153.771587 
L 202.711416 152.221162 
L 204.342846 152.06612 
L 205.974276 153.771587 
L 207.605706 154.159193 
L 209.237136 153.771587 
L 210.868566 153.616544 
L 212.499995 151.988599 
L 214.131425 151.600993 
L 215.762855 150.903302 
L 217.394285 149.585441 
L 219.025715 148.810229 
L 220.657145 148.345101 
L 222.288575 148.112538 
L 223.920005 147.492368 
L 225.551434 147.569889 
L 227.182864 146.949719 
L 228.814294 147.337326 
L 230.445724 145.864422 
L 232.077154 147.259804 
L 233.708584 146.794677 
L 235.340014 146.639635 
L 236.971444 148.88775 
L 238.602873 147.337326 
L 240.234303 147.64741 
L 241.865733 146.484592 
L 245.128593 146.484592 
L 246.760023 147.569889 
L 248.391453 146.639635 
L 250.022883 145.166731 
L 251.654312 144.546562 
L 253.285742 144.779125 
L 254.917172 146.096986 
L 256.548602 146.484592 
L 258.180032 148.035017 
L 259.811462 146.32955 
L 261.442892 147.64741 
L 263.074322 149.662962 
L 264.705751 149.042792 
L 266.337181 149.50792 
L 267.968611 148.655186 
L 269.600041 147.337326 
L 271.231471 147.492368 
L 272.862901 147.414847 
L 274.494331 146.717156 
L 276.125761 148.112538 
L 277.75719 147.027241 
L 279.38862 148.732707 
L 281.02005 149.973047 
L 282.65148 150.050568 
L 284.28291 150.283132 
L 285.91434 150.748259 
L 287.54577 150.283132 
L 289.1772 151.678514 
L 290.80863 151.058344 
L 292.440059 153.151417 
L 294.071489 153.849108 
L 295.702919 151.833556 
L 297.334349 150.980823 
L 298.965779 149.895526 
L 300.597209 149.895526 
L 302.228639 150.82578 
L 305.491498 150.128089 
L 307.122928 148.035017 
L 308.754358 148.500144 
L 310.385788 151.368429 
L 312.017218 152.68629 
L 313.648648 153.073896 
L 315.280078 154.62432 
L 316.911508 152.841332 
L 318.542937 151.833556 
L 320.174367 150.128089 
L 321.805797 149.585441 
L 323.437227 149.197835 
L 326.700087 146.174507 
L 328.331517 146.639635 
L 329.962947 146.019465 
L 331.594376 144.003913 
L 333.225806 143.616307 
L 334.857236 143.383743 
L 336.488666 144.158955 
L 338.120096 144.391519 
L 341.382956 144.158955 
L 343.014386 145.166731 
L 344.645815 144.003913 
L 346.277245 142.686052 
L 347.908675 142.608531 
L 349.540105 143.538786 
L 351.171535 145.08921 
L 352.802965 145.399295 
L 354.434395 144.856646 
L 356.065825 145.786901 
L 357.697254 145.864422 
L 359.328684 144.856646 
L 360.960114 147.259804 
L 362.591544 145.941944 
L 364.222974 145.476816 
L 365.854404 144.003913 
L 367.485834 144.546562 
L 369.117264 143.461264 
L 370.748693 144.391519 
L 372.380123 144.158955 
L 374.011553 144.779125 
L 375.642983 144.236477 
L 377.274413 143.538786 
L 378.905843 141.29067 
L 380.537273 141.91084 
L 380.537273 141.91084 
" clip-path="url(#pe9e1e09308)" style="fill: none; stroke: #d62728; stroke-width: 1.5; stroke-linecap: square"/>
   </g>
   <g id="patch_3">
    <path d="M 39.65 273.312 
L 39.65 7.2 
" style="fill: none; stroke: #000000; stroke-width: 0.8; stroke-linejoin: miter; stroke-linecap: square"/>
   </g>
   <g id="patch_4">
    <path d="M 396.77 273.312 
L 396.77 7.2 
" style="fill: none; stroke: #000000; stroke-width: 0.8; stroke-linejoin: miter; stroke-linecap: square"/>
   </g>
   <g id="patch_5">
    <path d="M 39.65 273.312 
L 396.77 273.312 
" style="fill: none; stroke: #000000; stroke-width: 0.8; stroke-linejoin: miter; stroke-linecap: square"/>
   </g>
   <g id="patch_6">
    <path d="M 39.65 7.2 
L 396.77 7.2 
" style="fill: none; stroke: #000000; stroke-width: 0.8; stroke-linejoin: miter; stroke-linecap: square"/>
   </g>
  </g>
 </g>
 <defs>
  <clipPath id="pe9e1e09308">
   <rect x="39.65" y="7.2" width="357.12" height="266.112"/>
  </clipPath>
 </defs>
</svg>
