<?xml version="1.0" encoding="utf-8" standalone="no"?>
<!DOCTYPE svg PUBLIC "-//W3C//DTD SVG 1.1//EN"
  "http://www.w3.org/Graphics/SVG/1.1/DTD/svg11.dtd">
<svg xmlns:xlink="http://www.w3.org/1999/xlink" width="403.97pt" height="297.190125pt" viewBox="0 0 403.97 297.190125" xmlns="http://www.w3.org/2000/svg" version="1.1">
 <metadata>
  <rdf:RDF xmlns:dc="http://purl.org/dc/elements/1.1/" xmlns:cc="http://creativecommons.org/ns#" xmlns:rdf="http://www.w3.org/1999/02/22-rdf-syntax-ns#">
   <cc:Work>
    <dc:type rdf:resource="http://purl.org/dc/dcmitype/StillImage"/>
    <dc:date>2025-08-11T06:59:25.763297</dc:date>
    <dc:format>image/svg+xml</dc:format>
    <dc:creator>
     <cc:Agent>
      <dc:title>Matplotlib v3.10.5, https://matplotlib.org/</dc:title>
     </cc:Agent>
    </dc:creator>
   </cc:Work>
  </rdf:RDF>
 </metadata>
 <defs>
  <style type="text/css">*{stroke-linejoin: round; stroke-linecap: butt}</style>
 </defs>
 <g id="figure_1">
  <g id="patch_1">
   <path d="M 0 297.190125 
L 403.97 297.190125 
L 403.97 0 
L 0 0 
z
" style="fill: #ffffff"/>
  </g>
  <g id="axes_1">
   <g id="patch_2">
    <path d="M 39.65 273.312 
L 396.77 273.312 
L 396.77 7.2 
L 39.65 7.2 
z
" style="fill: #ffffff"/>
   </g>
   <g id="matplotlib.axis_1">
    <g id="xtick_1">
     <g id="line2d_1">
      <defs>
       <path id="md03a172081" d="M 0 0 
L 0 3.5 
" style="stroke: #000000; stroke-width: 0.8"/>
      </defs>
      <g>
       <use xlink:href="#md03a172081" x="55.882727" y="273.312" style="stroke: #000000; stroke-width: 0.8"/>
      </g>
     </g>
     <g id="text_1">
      <!-- 0.0 -->
      <g transform="translate(47.931165 287.910437) scale(0.1 -0.1)">
       <defs>
        <path id="DejaVuSans-30" d="M 2034 4250 
Q 1547 4250 1301 3770 
Q 1056 3291 1056 2328 
Q 1056 1369 1301 889 
Q 1547 409 2034 409 
Q 2525 409 2770 889 
Q 3016 1369 3016 2328 
Q 3016 3291 2770 3770 
Q 2525 4250 2034 4250 
z
M 2034 4750 
Q 2819 4750 3233 4129 
Q 3647 3509 3647 2328 
Q 3647 1150 3233 529 
Q 2819 -91 2034 -91 
Q 1250 -91 836 529 
Q 422 1150 422 2328 
Q 422 3509 836 4129 
Q 1250 4750 2034 4750 
z
" transform="scale(0.015625)"/>
        <path id="DejaVuSans-2e" d="M 684 794 
L 1344 794 
L 1344 0 
L 684 0 
L 684 794 
z
" transform="scale(0.015625)"/>
       </defs>
       <use xlink:href="#DejaVuSans-30"/>
       <use xlink:href="#DejaVuSans-2e" transform="translate(63.623047 0)"/>
       <use xlink:href="#DejaVuSans-30" transform="translate(95.410156 0)"/>
      </g>
     </g>
    </g>
    <g id="xtick_2">
     <g id="line2d_2">
      <g>
       <use xlink:href="#md03a172081" x="96.668474" y="273.312" style="stroke: #000000; stroke-width: 0.8"/>
      </g>
     </g>
     <g id="text_2">
      <!-- 2.5 -->
      <g transform="translate(88.716912 287.910437) scale(0.1 -0.1)">
       <defs>
        <path id="DejaVuSans-32" d="M 1228 531 
L 3431 531 
L 3431 0 
L 469 0 
L 469 531 
Q 828 903 1448 1529 
Q 2069 2156 2228 2338 
Q 2531 2678 2651 2914 
Q 2772 3150 2772 3378 
Q 2772 3750 2511 3984 
Q 2250 4219 1831 4219 
Q 1534 4219 1204 4116 
Q 875 4013 500 3803 
L 500 4441 
Q 881 4594 1212 4672 
Q 1544 4750 1819 4750 
Q 2544 4750 2975 4387 
Q 3406 4025 3406 3419 
Q 3406 3131 3298 2873 
Q 3191 2616 2906 2266 
Q 2828 2175 2409 1742 
Q 1991 1309 1228 531 
z
" transform="scale(0.015625)"/>
        <path id="DejaVuSans-35" d="M 691 4666 
L 3169 4666 
L 3169 4134 
L 1269 4134 
L 1269 2991 
Q 1406 3038 1543 3061 
Q 1681 3084 1819 3084 
Q 2600 3084 3056 2656 
Q 3513 2228 3513 1497 
Q 3513 744 3044 326 
Q 2575 -91 1722 -91 
Q 1428 -91 1123 -41 
Q 819 9 494 109 
L 494 744 
Q 775 591 1075 516 
Q 1375 441 1709 441 
Q 2250 441 2565 725 
Q 2881 1009 2881 1497 
Q 2881 1984 2565 2268 
Q 2250 2553 1709 2553 
Q 1456 2553 1204 2497 
Q 953 2441 691 2322 
L 691 4666 
z
" transform="scale(0.015625)"/>
       </defs>
       <use xlink:href="#DejaVuSans-32"/>
       <use xlink:href="#DejaVuSans-2e" transform="translate(63.623047 0)"/>
       <use xlink:href="#DejaVuSans-35" transform="translate(95.410156 0)"/>
      </g>
     </g>
    </g>
    <g id="xtick_3">
     <g id="line2d_3">
      <g>
       <use xlink:href="#md03a172081" x="137.454221" y="273.312" style="stroke: #000000; stroke-width: 0.8"/>
      </g>
     </g>
     <g id="text_3">
      <!-- 5.0 -->
      <g transform="translate(129.502659 287.910437) scale(0.1 -0.1)">
       <use xlink:href="#DejaVuSans-35"/>
       <use xlink:href="#DejaVuSans-2e" transform="translate(63.623047 0)"/>
       <use xlink:href="#DejaVuSans-30" transform="translate(95.410156 0)"/>
      </g>
     </g>
    </g>
    <g id="xtick_4">
     <g id="line2d_4">
      <g>
       <use xlink:href="#md03a172081" x="178.239968" y="273.312" style="stroke: #000000; stroke-width: 0.8"/>
      </g>
     </g>
     <g id="text_4">
      <!-- 7.5 -->
      <g transform="translate(170.288406 287.910437) scale(0.1 -0.1)">
       <defs>
        <path id="DejaVuSans-37" d="M 525 4666 
L 3525 4666 
L 3525 4397 
L 1831 0 
L 1172 0 
L 2766 4134 
L 525 4134 
L 525 4666 
z
" transform="scale(0.015625)"/>
       </defs>
       <use xlink:href="#DejaVuSans-37"/>
       <use xlink:href="#DejaVuSans-2e" transform="translate(63.623047 0)"/>
       <use xlink:href="#DejaVuSans-35" transform="translate(95.410156 0)"/>
      </g>
     </g>
    </g>
    <g id="xtick_5">
     <g id="line2d_5">
      <g>
       <use xlink:href="#md03a172081" x="219.025715" y="273.312" style="stroke: #000000; stroke-width: 0.8"/>
      </g>
     </g>
     <g id="text_5">
      <!-- 10.0 -->
      <g transform="translate(207.892902 287.910437) scale(0.1 -0.1)">
       <defs>
        <path id="DejaVuSans-31" d="M 794 531 
L 1825 531 
L 1825 4091 
L 703 3866 
L 703 4441 
L 1819 4666 
L 2450 4666 
L 2450 531 
L 3481 531 
L 3481 0 
L 794 0 
L 794 531 
z
" transform="scale(0.015625)"/>
       </defs>
       <use xlink:href="#DejaVuSans-31"/>
       <use xlink:href="#DejaVuSans-30" transform="translate(63.623047 0)"/>
       <use xlink:href="#DejaVuSans-2e" transform="translate(127.246094 0)"/>
       <use xlink:href="#DejaVuSans-30" transform="translate(159.033203 0)"/>
      </g>
     </g>
    </g>
    <g id="xtick_6">
     <g id="line2d_6">
      <g>
       <use xlink:href="#md03a172081" x="259.811462" y="273.312" style="stroke: #000000; stroke-width: 0.8"/>
      </g>
     </g>
     <g id="text_6">
      <!-- 12.5 -->
      <g transform="translate(248.678649 287.910437) scale(0.1 -0.1)">
       <use xlink:href="#DejaVuSans-31"/>
       <use xlink:href="#DejaVuSans-32" transform="translate(63.623047 0)"/>
       <use xlink:href="#DejaVuSans-2e" transform="translate(127.246094 0)"/>
       <use xlink:href="#DejaVuSans-35" transform="translate(159.033203 0)"/>
      </g>
     </g>
    </g>
    <g id="xtick_7">
     <g id="line2d_7">
      <g>
       <use xlink:href="#md03a172081" x="300.597209" y="273.312" style="stroke: #000000; stroke-width: 0.8"/>
      </g>
     </g>
     <g id="text_7">
      <!-- 15.0 -->
      <g transform="translate(289.464396 287.910437) scale(0.1 -0.1)">
       <use xlink:href="#DejaVuSans-31"/>
       <use xlink:href="#DejaVuSans-35" transform="translate(63.623047 0)"/>
       <use xlink:href="#DejaVuSans-2e" transform="translate(127.246094 0)"/>
       <use xlink:href="#DejaVuSans-30" transform="translate(159.033203 0)"/>
      </g>
     </g>
    </g>
    <g id="xtick_8">
     <g id="line2d_8">
      <g>
       <use xlink:href="#md03a172081" x="341.382956" y="273.312" style="stroke: #000000; stroke-width: 0.8"/>
      </g>
     </g>
     <g id="text_8">
      <!-- 17.5 -->
      <g transform="translate(330.250143 287.910437) scale(0.1 -0.1)">
       <use xlink:href="#DejaVuSans-31"/>
       <use xlink:href="#DejaVuSans-37" transform="translate(63.623047 0)"/>
       <use xlink:href="#DejaVuSans-2e" transform="translate(127.246094 0)"/>
       <use xlink:href="#DejaVuSans-35" transform="translate(159.033203 0)"/>
      </g>
     </g>
    </g>
    <g id="xtick_9">
     <g id="line2d_9">
      <g>
       <use xlink:href="#md03a172081" x="382.168703" y="273.312" style="stroke: #000000; stroke-width: 0.8"/>
      </g>
     </g>
     <g id="text_9">
      <!-- 20.0 -->
      <g transform="translate(371.03589 287.910437) scale(0.1 -0.1)">
       <use xlink:href="#DejaVuSans-32"/>
       <use xlink:href="#DejaVuSans-30" transform="translate(63.623047 0)"/>
       <use xlink:href="#DejaVuSans-2e" transform="translate(127.246094 0)"/>
       <use xlink:href="#DejaVuSans-30" transform="translate(159.033203 0)"/>
      </g>
     </g>
    </g>
   </g>
   <g id="matplotlib.axis_2">
    <g id="ytick_1">
     <g id="line2d_10">
      <defs>
       <path id="m2f7b403b18" d="M 0 0 
L -3.5 0 
" style="stroke: #000000; stroke-width: 0.8"/>
      </defs>
      <g>
       <use xlink:href="#m2f7b403b18" x="39.65" y="261.216" style="stroke: #000000; stroke-width: 0.8"/>
      </g>
     </g>
     <g id="text_10">
      <!-- 0 -->
      <g transform="translate(26.2875 265.015219) scale(0.1 -0.1)">
       <use xlink:href="#DejaVuSans-30"/>
      </g>
     </g>
    </g>
    <g id="ytick_2">
     <g id="line2d_11">
      <g>
       <use xlink:href="#m2f7b403b18" x="39.65" y="226.862876" style="stroke: #000000; stroke-width: 0.8"/>
      </g>
     </g>
     <g id="text_11">
      <!-- 500 -->
      <g transform="translate(13.5625 230.662095) scale(0.1 -0.1)">
       <use xlink:href="#DejaVuSans-35"/>
       <use xlink:href="#DejaVuSans-30" transform="translate(63.623047 0)"/>
       <use xlink:href="#DejaVuSans-30" transform="translate(127.246094 0)"/>
      </g>
     </g>
    </g>
    <g id="ytick_3">
     <g id="line2d_12">
      <g>
       <use xlink:href="#m2f7b403b18" x="39.65" y="192.509752" style="stroke: #000000; stroke-width: 0.8"/>
      </g>
     </g>
     <g id="text_12">
      <!-- 1000 -->
      <g transform="translate(7.2 196.308971) scale(0.1 -0.1)">
       <use xlink:href="#DejaVuSans-31"/>
       <use xlink:href="#DejaVuSans-30" transform="translate(63.623047 0)"/>
       <use xlink:href="#DejaVuSans-30" transform="translate(127.246094 0)"/>
       <use xlink:href="#DejaVuSans-30" transform="translate(190.869141 0)"/>
      </g>
     </g>
    </g>
    <g id="ytick_4">
     <g id="line2d_13">
      <g>
       <use xlink:href="#m2f7b403b18" x="39.65" y="158.156628" style="stroke: #000000; stroke-width: 0.8"/>
      </g>
     </g>
     <g id="text_13">
      <!-- 1500 -->
      <g transform="translate(7.2 161.955847) scale(0.1 -0.1)">
       <use xlink:href="#DejaVuSans-31"/>
       <use xlink:href="#DejaVuSans-35" transform="translate(63.623047 0)"/>
       <use xlink:href="#DejaVuSans-30" transform="translate(127.246094 0)"/>
       <use xlink:href="#DejaVuSans-30" transform="translate(190.869141 0)"/>
      </g>
     </g>
    </g>
    <g id="ytick_5">
     <g id="line2d_14">
      <g>
       <use xlink:href="#m2f7b403b18" x="39.65" y="123.803504" style="stroke: #000000; stroke-width: 0.8"/>
      </g>
     </g>
     <g id="text_14">
      <!-- 2000 -->
      <g transform="translate(7.2 127.602722) scale(0.1 -0.1)">
       <use xlink:href="#DejaVuSans-32"/>
       <use xlink:href="#DejaVuSans-30" transform="translate(63.623047 0)"/>
       <use xlink:href="#DejaVuSans-30" transform="translate(127.246094 0)"/>
       <use xlink:href="#DejaVuSans-30" transform="translate(190.869141 0)"/>
      </g>
     </g>
    </g>
    <g id="ytick_6">
     <g id="line2d_15">
      <g>
       <use xlink:href="#m2f7b403b18" x="39.65" y="89.45038" style="stroke: #000000; stroke-width: 0.8"/>
      </g>
     </g>
     <g id="text_15">
      <!-- 2500 -->
      <g transform="translate(7.2 93.249598) scale(0.1 -0.1)">
       <use xlink:href="#DejaVuSans-32"/>
       <use xlink:href="#DejaVuSans-35" transform="translate(63.623047 0)"/>
       <use xlink:href="#DejaVuSans-30" transform="translate(127.246094 0)"/>
       <use xlink:href="#DejaVuSans-30" transform="translate(190.869141 0)"/>
      </g>
     </g>
    </g>
    <g id="ytick_7">
     <g id="line2d_16">
      <g>
       <use xlink:href="#m2f7b403b18" x="39.65" y="55.097256" style="stroke: #000000; stroke-width: 0.8"/>
      </g>
     </g>
     <g id="text_16">
      <!-- 3000 -->
      <g transform="translate(7.2 58.896474) scale(0.1 -0.1)">
       <defs>
        <path id="DejaVuSans-33" d="M 2597 2516 
Q 3050 2419 3304 2112 
Q 3559 1806 3559 1356 
Q 3559 666 3084 287 
Q 2609 -91 1734 -91 
Q 1441 -91 1130 -33 
Q 819 25 488 141 
L 488 750 
Q 750 597 1062 519 
Q 1375 441 1716 441 
Q 2309 441 2620 675 
Q 2931 909 2931 1356 
Q 2931 1769 2642 2001 
Q 2353 2234 1838 2234 
L 1294 2234 
L 1294 2753 
L 1863 2753 
Q 2328 2753 2575 2939 
Q 2822 3125 2822 3475 
Q 2822 3834 2567 4026 
Q 2313 4219 1838 4219 
Q 1578 4219 1281 4162 
Q 984 4106 628 3988 
L 628 4550 
Q 988 4650 1302 4700 
Q 1616 4750 1894 4750 
Q 2613 4750 3031 4423 
Q 3450 4097 3450 3541 
Q 3450 3153 3228 2886 
Q 3006 2619 2597 2516 
z
" transform="scale(0.015625)"/>
       </defs>
       <use xlink:href="#DejaVuSans-33"/>
       <use xlink:href="#DejaVuSans-30" transform="translate(63.623047 0)"/>
       <use xlink:href="#DejaVuSans-30" transform="translate(127.246094 0)"/>
       <use xlink:href="#DejaVuSans-30" transform="translate(190.869141 0)"/>
      </g>
     </g>
    </g>
    <g id="ytick_8">
     <g id="line2d_17">
      <g>
       <use xlink:href="#m2f7b403b18" x="39.65" y="20.744132" style="stroke: #000000; stroke-width: 0.8"/>
      </g>
     </g>
     <g id="text_17">
      <!-- 3500 -->
      <g transform="translate(7.2 24.54335) scale(0.1 -0.1)">
       <use xlink:href="#DejaVuSans-33"/>
       <use xlink:href="#DejaVuSans-35" transform="translate(63.623047 0)"/>
       <use xlink:href="#DejaVuSans-30" transform="translate(127.246094 0)"/>
       <use xlink:href="#DejaVuSans-30" transform="translate(190.869141 0)"/>
      </g>
     </g>
    </g>
   </g>
   <g id="line2d_18">
    <path d="M 55.882727 261.216 
L 72.197026 192.509752 
L 88.511325 143.281725 
L 104.825624 108.009844 
L 121.139922 82.737541 
L 137.454221 64.629936 
L 153.76852 51.655837 
L 170.082819 42.359895 
L 186.397117 35.699353 
L 202.711416 30.927074 
L 219.025715 27.507736 
L 235.340014 25.057781 
L 251.654312 23.302388 
L 267.968611 22.044649 
L 284.28291 21.143479 
L 300.597209 20.49779 
L 316.911508 20.035155 
L 333.225806 19.703676 
L 349.540105 19.466172 
L 365.854404 19.296 
" clip-path="url(#p5abc4c8421)" style="fill: none; stroke: #1f77b4; stroke-width: 1.5; stroke-linecap: square"/>
   </g>
   <g id="line2d_19">
    <path d="M 55.882727 261.216 
L 72.197026 261.216 
L 88.511325 238.313917 
L 104.825624 210.146646 
L 121.139922 183.928275 
L 137.454221 162.043662 
L 153.76852 144.772234 
L 170.082819 131.580383 
L 186.397117 121.709039 
L 202.711416 114.420911 
L 219.025715 109.088426 
L 235.340014 105.210949 
L 251.654312 102.4036 
L 267.968611 100.377177 
L 284.28291 98.917564 
L 300.597209 97.867809 
L 316.911508 97.113636 
L 333.225806 96.572231 
L 349.540105 96.183781 
L 365.854404 95.905183 
" clip-path="url(#p5abc4c8421)" style="fill: none; stroke: #ff7f0e; stroke-width: 1.5; stroke-linecap: square"/>
   </g>
   <g id="line2d_20">
    <path d="M 55.882727 261.216 
L 57.514157 254.345375 
L 59.145587 246.306744 
L 60.777017 239.504826 
L 64.039877 227.618645 
L 65.671307 221.366376 
L 72.197026 201.785095 
L 73.828456 195.807652 
L 75.459886 190.517271 
L 77.091316 187.081958 
L 78.722746 182.890877 
L 80.354175 179.592977 
L 81.985605 175.88284 
L 83.617035 172.653646 
L 85.248465 167.019734 
L 86.879895 162.210296 
L 88.511325 159.94299 
L 90.142755 157.332153 
L 91.774185 153.622015 
L 93.405614 151.835653 
L 96.668474 146.064328 
L 98.299904 142.354191 
L 99.931334 139.056291 
L 101.562764 136.788985 
L 103.194194 133.834616 
L 106.457053 128.475529 
L 108.088483 127.238816 
L 109.719913 126.345635 
L 111.351343 123.87221 
L 112.982773 123.253854 
L 114.614203 121.192666 
L 117.877063 117.619941 
L 119.508492 114.52816 
L 121.139922 114.459454 
L 122.771352 111.161554 
L 124.402782 110.543198 
L 126.034212 107.38271 
L 127.665642 105.046698 
L 129.297072 102.985511 
L 132.559931 99.825023 
L 135.822791 97.282892 
L 137.454221 96.733242 
L 139.085651 95.359117 
L 140.717081 94.328523 
L 142.348511 94.672055 
L 143.979941 94.672055 
L 145.61137 93.229223 
L 147.2428 92.816986 
L 148.87423 90.206148 
L 150.50566 88.694611 
L 152.13709 86.221186 
L 153.76852 85.396711 
L 155.39995 82.923286 
L 157.03138 82.442342 
L 158.66281 80.175036 
L 160.294239 79.694092 
L 161.925669 78.938324 
L 163.557099 77.014549 
L 165.188529 74.884655 
L 166.819959 74.60983 
L 168.451389 73.441824 
L 170.082819 72.754761 
L 171.714249 73.441824 
L 173.345678 73.922768 
L 174.977108 73.991474 
L 176.608538 74.403711 
L 178.239968 73.029586 
L 179.871398 70.968399 
L 181.502828 69.250743 
L 183.134258 68.975918 
L 184.765688 67.601793 
L 186.397117 67.533087 
L 188.028547 66.846024 
L 189.659977 67.533087 
L 191.291407 66.502493 
L 192.922837 65.334487 
L 194.554267 65.26578 
L 196.185697 64.372599 
L 197.817127 64.372599 
L 199.448556 63.06718 
L 201.079986 63.273299 
L 202.711416 61.41823 
L 204.342846 61.555643 
L 205.974276 61.143405 
L 207.605706 60.250224 
L 209.237136 60.86858 
L 210.868566 60.937287 
L 212.499995 61.899174 
L 214.131425 60.86858 
L 215.762855 60.31893 
L 217.394285 60.456343 
L 219.025715 59.906693 
L 220.657145 60.250224 
L 223.920005 62.380118 
L 225.551434 62.105293 
L 227.182864 61.624349 
L 228.814294 62.380118 
L 230.445724 61.41823 
L 232.077154 61.693055 
L 233.708584 62.929768 
L 235.340014 62.311412 
L 236.971444 63.06718 
L 240.234303 62.242705 
L 241.865733 60.593755 
L 243.497163 59.700574 
L 245.128593 59.425749 
L 246.760023 60.250224 
L 248.391453 61.212112 
L 250.022883 61.761762 
L 253.285742 62.036587 
L 256.548602 62.586237 
L 258.180032 63.479418 
L 259.811462 64.029068 
L 261.442892 65.540605 
L 263.074322 64.647424 
L 264.705751 63.410712 
L 266.337181 61.005993 
L 267.968611 59.837987 
L 269.600041 60.387637 
L 271.231471 61.349524 
L 272.862901 62.792355 
L 274.494331 64.510012 
L 276.125761 65.197074 
L 279.38862 66.090255 
L 281.02005 65.609312 
L 282.65148 65.26578 
L 284.28291 63.754243 
L 287.54577 61.280818 
L 289.1772 60.86858 
L 292.440059 57.227149 
L 294.071489 57.914212 
L 295.702919 58.120331 
L 297.334349 58.051624 
L 298.965779 56.127849 
L 300.597209 57.295856 
L 302.228639 59.837987 
L 303.860069 59.494455 
L 305.491498 58.601274 
L 307.122928 58.601274 
L 308.754358 59.013512 
L 310.385788 57.708093 
L 313.648648 56.814912 
L 315.280078 55.715612 
L 316.911508 55.234668 
L 318.542937 55.028549 
L 320.174367 54.341487 
L 321.805797 54.204074 
L 323.437227 53.791837 
L 325.068657 54.341487 
L 326.700087 54.753724 
L 328.331517 53.791837 
L 329.962947 54.478899 
L 331.594376 52.967362 
L 333.225806 54.272781 
L 334.857236 54.753724 
L 336.488666 54.478899 
L 338.120096 55.440787 
L 339.751526 55.028549 
L 341.382956 56.196556 
L 343.014386 55.921731 
L 344.645815 55.165962 
L 346.277245 55.165962 
L 347.908675 55.440787 
L 349.540105 58.257743 
L 351.171535 56.608793 
L 352.802965 56.883618 
L 354.434395 58.66998 
L 356.065825 59.76928 
L 357.697254 59.975399 
L 360.960114 62.311412 
L 362.591544 61.41823 
L 365.854404 63.410712 
L 367.485834 61.96788 
L 369.117264 61.005993 
L 370.748693 60.937287 
L 372.380123 60.044105 
L 374.011553 61.486937 
L 375.642983 61.555643 
L 378.905843 62.448824 
L 380.537273 64.16648 
L 380.537273 64.16648 
" clip-path="url(#p5abc4c8421)" style="fill: none; stroke: #2ca02c; stroke-width: 1.5; stroke-linecap: square"/>
   </g>
   <g id="line2d_21">
    <path d="M 55.882727 261.216 
L 57.514157 261.078588 
L 59.145587 260.460231 
L 60.777017 260.047994 
L 62.408447 259.154813 
L 64.039877 257.986806 
L 65.671307 257.093625 
L 67.302736 255.994325 
L 68.934166 254.688906 
L 70.565596 253.589606 
L 72.197026 251.597125 
L 73.828456 248.917582 
L 75.459886 247.612163 
L 77.091316 245.550975 
L 78.722746 243.970732 
L 80.354175 242.665313 
L 85.248465 237.924582 
L 86.879895 236.000807 
L 88.511325 233.733501 
L 90.142755 232.359376 
L 91.774185 230.779132 
L 93.405614 228.99277 
L 96.668474 225.969695 
L 98.299904 226.24452 
L 99.931334 223.839801 
L 101.562764 222.534382 
L 103.194194 220.954139 
L 104.825624 219.09907 
L 106.457053 217.587532 
L 108.088483 215.182814 
L 109.719913 212.365858 
L 111.351343 211.610089 
L 112.982773 210.098551 
L 114.614203 209.686314 
L 116.245633 207.899951 
L 117.877063 206.388414 
L 119.508492 205.838764 
L 121.139922 203.70887 
L 122.771352 203.021808 
L 124.402782 201.441564 
L 126.034212 201.098033 
L 127.665642 200.891914 
L 129.297072 201.441564 
L 130.928502 200.548383 
L 132.559931 199.998733 
L 134.191361 199.242964 
L 135.822791 197.731427 
L 137.454221 196.700833 
L 139.085651 197.181777 
L 140.717081 196.975658 
L 142.348511 193.677758 
L 143.979941 191.273039 
L 145.61137 190.860802 
L 147.2428 190.105033 
L 148.87423 190.860802 
L 150.50566 189.898914 
L 152.13709 190.173739 
L 153.76852 190.105033 
L 155.39995 188.662202 
L 157.03138 186.87584 
L 158.66281 186.532308 
L 160.294239 184.883358 
L 161.925669 183.646646 
L 163.557099 183.509233 
L 165.188529 182.753465 
L 166.819959 181.37934 
L 168.451389 181.310633 
L 171.714249 178.768502 
L 173.345678 178.837208 
L 174.977108 178.218852 
L 176.608538 177.875321 
L 178.239968 177.325671 
L 181.502828 176.569902 
L 183.134258 177.737909 
L 184.765688 176.226371 
L 186.397117 175.608015 
L 188.028547 176.157665 
L 189.659977 174.920952 
L 191.291407 174.852246 
L 192.922837 174.508715 
L 194.554267 173.546827 
L 196.185697 174.096477 
L 197.817127 175.814134 
L 199.448556 175.33319 
L 201.079986 175.264484 
L 204.342846 173.13459 
L 205.974276 172.791059 
L 207.605706 172.722352 
L 210.868566 169.905396 
L 212.499995 169.218334 
L 214.131425 170.38634 
L 215.762855 170.455046 
L 217.394285 169.905396 
L 219.025715 170.523752 
L 220.657145 170.248927 
L 222.288575 168.874803 
L 225.551434 164.271484 
L 227.182864 163.653128 
L 228.814294 164.134071 
L 230.445724 165.508196 
L 232.077154 164.546309 
L 233.708584 162.897359 
L 235.340014 163.653128 
L 236.971444 162.622534 
L 238.602873 162.416415 
L 240.234303 163.103478 
L 241.865733 163.584421 
L 243.497163 163.859246 
L 245.128593 164.546309 
L 248.391453 161.660646 
L 250.022883 162.416415 
L 251.654312 162.072884 
L 253.285742 162.622534 
L 254.917172 163.79054 
L 256.548602 162.485121 
L 258.180032 163.172184 
L 259.811462 163.309596 
L 261.442892 161.04229 
L 263.074322 162.072884 
L 264.705751 161.523234 
L 266.337181 163.034771 
L 267.968611 162.897359 
L 269.600041 163.584421 
L 271.231471 163.996659 
L 272.862901 163.034771 
L 274.494331 161.59194 
L 276.125761 161.110996 
L 277.75719 159.94299 
L 281.02005 158.225334 
L 282.65148 158.29404 
L 284.28291 159.049809 
L 285.91434 158.774984 
L 287.54577 161.798059 
L 289.1772 161.179703 
L 290.80863 161.59194 
L 292.440059 161.866765 
L 294.071489 160.423934 
L 295.702919 159.187222 
L 297.334349 160.49264 
L 298.965779 160.767465 
L 300.597209 158.981103 
L 302.228639 156.919915 
L 303.860069 157.057328 
L 305.491498 158.362747 
L 307.122928 159.187222 
L 308.754358 158.706278 
L 310.385788 160.217815 
L 312.017218 160.217815 
L 313.648648 160.355228 
L 315.280078 160.767465 
L 316.911508 160.767465 
L 318.542937 160.49264 
L 320.174367 160.080403 
L 321.805797 158.637572 
L 323.437227 159.805578 
L 325.068657 160.011696 
L 326.700087 157.606978 
L 328.331517 156.64509 
L 329.962947 156.713797 
L 331.594376 156.438972 
L 333.225806 156.576384 
L 334.857236 155.339672 
L 336.488666 157.400859 
L 338.120096 156.438972 
L 339.751526 156.301559 
L 341.382956 155.133553 
L 343.014386 156.438972 
L 344.645815 155.751909 
L 346.277245 156.09544 
L 347.908675 156.919915 
L 349.540105 155.477084 
L 351.171535 155.751909 
L 352.802965 156.438972 
L 354.434395 155.683203 
L 356.065825 156.919915 
L 357.697254 158.84369 
L 359.328684 156.988622 
L 362.591544 155.408378 
L 364.222974 155.820615 
L 365.854404 154.99614 
L 367.485834 156.507678 
L 369.117264 157.332153 
L 370.748693 157.950509 
L 372.380123 159.599459 
L 374.011553 159.599459 
L 378.905843 159.255928 
L 380.537273 158.431453 
L 380.537273 158.431453 
" clip-path="url(#p5abc4c8421)" style="fill: none; stroke: #d62728; stroke-width: 1.5; stroke-linecap: square"/>
   </g>
   <g id="patch_3">
    <path d="M 39.65 273.312 
L 39.65 7.2 
" style="fill: none; stroke: #000000; stroke-width: 0.8; stroke-linejoin: miter; stroke-linecap: square"/>
   </g>
   <g id="patch_4">
    <path d="M 396.77 273.312 
L 396.77 7.2 
" style="fill: none; stroke: #000000; stroke-width: 0.8; stroke-linejoin: miter; stroke-linecap: square"/>
   </g>
   <g id="patch_5">
    <path d="M 39.65 273.312 
L 396.77 273.312 
" style="fill: none; stroke: #000000; stroke-width: 0.8; stroke-linejoin: miter; stroke-linecap: square"/>
   </g>
   <g id="patch_6">
    <path d="M 39.65 7.2 
L 396.77 7.2 
" style="fill: none; stroke: #000000; stroke-width: 0.8; stroke-linejoin: miter; stroke-linecap: square"/>
   </g>
  </g>
 </g>
 <defs>
  <clipPath id="p5abc4c8421">
   <rect x="39.65" y="7.2" width="357.12" height="266.112"/>
  </clipPath>
 </defs>
</svg>
