<?xml version="1.0" encoding="utf-8" standalone="no"?>
<!DOCTYPE svg PUBLIC "-//W3C//DTD SVG 1.1//EN"
  "http://www.w3.org/Graphics/SVG/1.1/DTD/svg11.dtd">
<svg xmlns:xlink="http://www.w3.org/1999/xlink" width="403.97pt" height="297.190125pt" viewBox="0 0 403.97 297.190125" xmlns="http://www.w3.org/2000/svg" version="1.1">
 <metadata>
  <rdf:RDF xmlns:dc="http://purl.org/dc/elements/1.1/" xmlns:cc="http://creativecommons.org/ns#" xmlns:rdf="http://www.w3.org/1999/02/22-rdf-syntax-ns#">
   <cc:Work>
    <dc:type rdf:resource="http://purl.org/dc/dcmitype/StillImage"/>
    <dc:date>2026-05-29T05:16:44.367112</dc:date>
    <dc:format>image/svg+xml</dc:format>
    <dc:creator>
     <cc:Agent>
      <dc:title>Matplotlib v3.10.9, https://matplotlib.org/</dc:title>
     </cc:Agent>
    </dc:creator>
   </cc:Work>
  </rdf:RDF>
 </metadata>
 <defs>
  <style type="text/css">*{stroke-linejoin: round; stroke-linecap: butt}</style>
 </defs>
 <g id="figure_1">
  <g id="patch_1">
   <path d="M 0 297.190125 
L 403.97 297.190125 
L 403.97 0 
L 0 0 
z
" style="fill: #ffffff"/>
  </g>
  <g id="axes_1">
   <g id="patch_2">
    <path d="M 39.65 273.312 
L 396.77 273.312 
L 396.77 7.2 
L 39.65 7.2 
z
" style="fill: #ffffff"/>
   </g>
   <g id="matplotlib.axis_1">
    <g id="xtick_1">
     <g id="line2d_1">
      <defs>
       <path id="m37410f446c" d="M 0 0 
L 0 3.5 
" style="stroke: #000000; stroke-width: 0.8"/>
      </defs>
      <g>
       <use xlink:href="#m37410f446c" x="55.882727" y="273.312" style="stroke: #000000; stroke-width: 0.8"/>
      </g>
     </g>
     <g id="text_1">
      <!-- 0.0 -->
      <g transform="translate(47.931165 287.910437) scale(0.1 -0.1)">
       <defs>
        <path id="DejaVuSans-30" d="M 2034 4250 
Q 1547 4250 1301 3770 
Q 1056 3291 1056 2328 
Q 1056 1369 1301 889 
Q 1547 409 2034 409 
Q 2525 409 2770 889 
Q 3016 1369 3016 2328 
Q 3016 3291 2770 3770 
Q 2525 4250 2034 4250 
z
M 2034 4750 
Q 2819 4750 3233 4129 
Q 3647 3509 3647 2328 
Q 3647 1150 3233 529 
Q 2819 -91 2034 -91 
Q 1250 -91 836 529 
Q 422 1150 422 2328 
Q 422 3509 836 4129 
Q 1250 4750 2034 4750 
z
" transform="scale(0.015625)"/>
        <path id="DejaVuSans-2e" d="M 684 794 
L 1344 794 
L 1344 0 
L 684 0 
L 684 794 
z
" transform="scale(0.015625)"/>
       </defs>
       <use xlink:href="#DejaVuSans-30"/>
       <use xlink:href="#DejaVuSans-2e" transform="translate(63.623047 0)"/>
       <use xlink:href="#DejaVuSans-30" transform="translate(95.410156 0)"/>
      </g>
     </g>
    </g>
    <g id="xtick_2">
     <g id="line2d_2">
      <g>
       <use xlink:href="#m37410f446c" x="96.668474" y="273.312" style="stroke: #000000; stroke-width: 0.8"/>
      </g>
     </g>
     <g id="text_2">
      <!-- 2.5 -->
      <g transform="translate(88.716912 287.910437) scale(0.1 -0.1)">
       <defs>
        <path id="DejaVuSans-32" d="M 1228 531 
L 3431 531 
L 3431 0 
L 469 0 
L 469 531 
Q 828 903 1448 1529 
Q 2069 2156 2228 2338 
Q 2531 2678 2651 2914 
Q 2772 3150 2772 3378 
Q 2772 3750 2511 3984 
Q 2250 4219 1831 4219 
Q 1534 4219 1204 4116 
Q 875 4013 500 3803 
L 500 4441 
Q 881 4594 1212 4672 
Q 1544 4750 1819 4750 
Q 2544 4750 2975 4387 
Q 3406 4025 3406 3419 
Q 3406 3131 3298 2873 
Q 3191 2616 2906 2266 
Q 2828 2175 2409 1742 
Q 1991 1309 1228 531 
z
" transform="scale(0.015625)"/>
        <path id="DejaVuSans-35" d="M 691 4666 
L 3169 4666 
L 3169 4134 
L 1269 4134 
L 1269 2991 
Q 1406 3038 1543 3061 
Q 1681 3084 1819 3084 
Q 2600 3084 3056 2656 
Q 3513 2228 3513 1497 
Q 3513 744 3044 326 
Q 2575 -91 1722 -91 
Q 1428 -91 1123 -41 
Q 819 9 494 109 
L 494 744 
Q 775 591 1075 516 
Q 1375 441 1709 441 
Q 2250 441 2565 725 
Q 2881 1009 2881 1497 
Q 2881 1984 2565 2268 
Q 2250 2553 1709 2553 
Q 1456 2553 1204 2497 
Q 953 2441 691 2322 
L 691 4666 
z
" transform="scale(0.015625)"/>
       </defs>
       <use xlink:href="#DejaVuSans-32"/>
       <use xlink:href="#DejaVuSans-2e" transform="translate(63.623047 0)"/>
       <use xlink:href="#DejaVuSans-35" transform="translate(95.410156 0)"/>
      </g>
     </g>
    </g>
    <g id="xtick_3">
     <g id="line2d_3">
      <g>
       <use xlink:href="#m37410f446c" x="137.454221" y="273.312" style="stroke: #000000; stroke-width: 0.8"/>
      </g>
     </g>
     <g id="text_3">
      <!-- 5.0 -->
      <g transform="translate(129.502659 287.910437) scale(0.1 -0.1)">
       <use xlink:href="#DejaVuSans-35"/>
       <use xlink:href="#DejaVuSans-2e" transform="translate(63.623047 0)"/>
       <use xlink:href="#DejaVuSans-30" transform="translate(95.410156 0)"/>
      </g>
     </g>
    </g>
    <g id="xtick_4">
     <g id="line2d_4">
      <g>
       <use xlink:href="#m37410f446c" x="178.239968" y="273.312" style="stroke: #000000; stroke-width: 0.8"/>
      </g>
     </g>
     <g id="text_4">
      <!-- 7.5 -->
      <g transform="translate(170.288406 287.910437) scale(0.1 -0.1)">
       <defs>
        <path id="DejaVuSans-37" d="M 525 4666 
L 3525 4666 
L 3525 4397 
L 1831 0 
L 1172 0 
L 2766 4134 
L 525 4134 
L 525 4666 
z
" transform="scale(0.015625)"/>
       </defs>
       <use xlink:href="#DejaVuSans-37"/>
       <use xlink:href="#DejaVuSans-2e" transform="translate(63.623047 0)"/>
       <use xlink:href="#DejaVuSans-35" transform="translate(95.410156 0)"/>
      </g>
     </g>
    </g>
    <g id="xtick_5">
     <g id="line2d_5">
      <g>
       <use xlink:href="#m37410f446c" x="219.025715" y="273.312" style="stroke: #000000; stroke-width: 0.8"/>
      </g>
     </g>
     <g id="text_5">
      <!-- 10.0 -->
      <g transform="translate(207.892902 287.910437) scale(0.1 -0.1)">
       <defs>
        <path id="DejaVuSans-31" d="M 794 531 
L 1825 531 
L 1825 4091 
L 703 3866 
L 703 4441 
L 1819 4666 
L 2450 4666 
L 2450 531 
L 3481 531 
L 3481 0 
L 794 0 
L 794 531 
z
" transform="scale(0.015625)"/>
       </defs>
       <use xlink:href="#DejaVuSans-31"/>
       <use xlink:href="#DejaVuSans-30" transform="translate(63.623047 0)"/>
       <use xlink:href="#DejaVuSans-2e" transform="translate(127.246094 0)"/>
       <use xlink:href="#DejaVuSans-30" transform="translate(159.033203 0)"/>
      </g>
     </g>
    </g>
    <g id="xtick_6">
     <g id="line2d_6">
      <g>
       <use xlink:href="#m37410f446c" x="259.811462" y="273.312" style="stroke: #000000; stroke-width: 0.8"/>
      </g>
     </g>
     <g id="text_6">
      <!-- 12.5 -->
      <g transform="translate(248.678649 287.910437) scale(0.1 -0.1)">
       <use xlink:href="#DejaVuSans-31"/>
       <use xlink:href="#DejaVuSans-32" transform="translate(63.623047 0)"/>
       <use xlink:href="#DejaVuSans-2e" transform="translate(127.246094 0)"/>
       <use xlink:href="#DejaVuSans-35" transform="translate(159.033203 0)"/>
      </g>
     </g>
    </g>
    <g id="xtick_7">
     <g id="line2d_7">
      <g>
       <use xlink:href="#m37410f446c" x="300.597209" y="273.312" style="stroke: #000000; stroke-width: 0.8"/>
      </g>
     </g>
     <g id="text_7">
      <!-- 15.0 -->
      <g transform="translate(289.464396 287.910437) scale(0.1 -0.1)">
       <use xlink:href="#DejaVuSans-31"/>
       <use xlink:href="#DejaVuSans-35" transform="translate(63.623047 0)"/>
       <use xlink:href="#DejaVuSans-2e" transform="translate(127.246094 0)"/>
       <use xlink:href="#DejaVuSans-30" transform="translate(159.033203 0)"/>
      </g>
     </g>
    </g>
    <g id="xtick_8">
     <g id="line2d_8">
      <g>
       <use xlink:href="#m37410f446c" x="341.382956" y="273.312" style="stroke: #000000; stroke-width: 0.8"/>
      </g>
     </g>
     <g id="text_8">
      <!-- 17.5 -->
      <g transform="translate(330.250143 287.910437) scale(0.1 -0.1)">
       <use xlink:href="#DejaVuSans-31"/>
       <use xlink:href="#DejaVuSans-37" transform="translate(63.623047 0)"/>
       <use xlink:href="#DejaVuSans-2e" transform="translate(127.246094 0)"/>
       <use xlink:href="#DejaVuSans-35" transform="translate(159.033203 0)"/>
      </g>
     </g>
    </g>
    <g id="xtick_9">
     <g id="line2d_9">
      <g>
       <use xlink:href="#m37410f446c" x="382.168703" y="273.312" style="stroke: #000000; stroke-width: 0.8"/>
      </g>
     </g>
     <g id="text_9">
      <!-- 20.0 -->
      <g transform="translate(371.03589 287.910437) scale(0.1 -0.1)">
       <use xlink:href="#DejaVuSans-32"/>
       <use xlink:href="#DejaVuSans-30" transform="translate(63.623047 0)"/>
       <use xlink:href="#DejaVuSans-2e" transform="translate(127.246094 0)"/>
       <use xlink:href="#DejaVuSans-30" transform="translate(159.033203 0)"/>
      </g>
     </g>
    </g>
   </g>
   <g id="matplotlib.axis_2">
    <g id="ytick_1">
     <g id="line2d_10">
      <defs>
       <path id="mf0ca509b22" d="M 0 0 
L -3.5 0 
" style="stroke: #000000; stroke-width: 0.8"/>
      </defs>
      <g>
       <use xlink:href="#mf0ca509b22" x="39.65" y="261.216" style="stroke: #000000; stroke-width: 0.8"/>
      </g>
     </g>
     <g id="text_10">
      <!-- 0 -->
      <g transform="translate(26.2875 265.015219) scale(0.1 -0.1)">
       <use xlink:href="#DejaVuSans-30"/>
      </g>
     </g>
    </g>
    <g id="ytick_2">
     <g id="line2d_11">
      <g>
       <use xlink:href="#mf0ca509b22" x="39.65" y="226.862876" style="stroke: #000000; stroke-width: 0.8"/>
      </g>
     </g>
     <g id="text_11">
      <!-- 500 -->
      <g transform="translate(13.5625 230.662095) scale(0.1 -0.1)">
       <use xlink:href="#DejaVuSans-35"/>
       <use xlink:href="#DejaVuSans-30" transform="translate(63.623047 0)"/>
       <use xlink:href="#DejaVuSans-30" transform="translate(127.246094 0)"/>
      </g>
     </g>
    </g>
    <g id="ytick_3">
     <g id="line2d_12">
      <g>
       <use xlink:href="#mf0ca509b22" x="39.65" y="192.509752" style="stroke: #000000; stroke-width: 0.8"/>
      </g>
     </g>
     <g id="text_12">
      <!-- 1000 -->
      <g transform="translate(7.2 196.308971) scale(0.1 -0.1)">
       <use xlink:href="#DejaVuSans-31"/>
       <use xlink:href="#DejaVuSans-30" transform="translate(63.623047 0)"/>
       <use xlink:href="#DejaVuSans-30" transform="translate(127.246094 0)"/>
       <use xlink:href="#DejaVuSans-30" transform="translate(190.869141 0)"/>
      </g>
     </g>
    </g>
    <g id="ytick_4">
     <g id="line2d_13">
      <g>
       <use xlink:href="#mf0ca509b22" x="39.65" y="158.156628" style="stroke: #000000; stroke-width: 0.8"/>
      </g>
     </g>
     <g id="text_13">
      <!-- 1500 -->
      <g transform="translate(7.2 161.955847) scale(0.1 -0.1)">
       <use xlink:href="#DejaVuSans-31"/>
       <use xlink:href="#DejaVuSans-35" transform="translate(63.623047 0)"/>
       <use xlink:href="#DejaVuSans-30" transform="translate(127.246094 0)"/>
       <use xlink:href="#DejaVuSans-30" transform="translate(190.869141 0)"/>
      </g>
     </g>
    </g>
    <g id="ytick_5">
     <g id="line2d_14">
      <g>
       <use xlink:href="#mf0ca509b22" x="39.65" y="123.803504" style="stroke: #000000; stroke-width: 0.8"/>
      </g>
     </g>
     <g id="text_14">
      <!-- 2000 -->
      <g transform="translate(7.2 127.602722) scale(0.1 -0.1)">
       <use xlink:href="#DejaVuSans-32"/>
       <use xlink:href="#DejaVuSans-30" transform="translate(63.623047 0)"/>
       <use xlink:href="#DejaVuSans-30" transform="translate(127.246094 0)"/>
       <use xlink:href="#DejaVuSans-30" transform="translate(190.869141 0)"/>
      </g>
     </g>
    </g>
    <g id="ytick_6">
     <g id="line2d_15">
      <g>
       <use xlink:href="#mf0ca509b22" x="39.65" y="89.45038" style="stroke: #000000; stroke-width: 0.8"/>
      </g>
     </g>
     <g id="text_15">
      <!-- 2500 -->
      <g transform="translate(7.2 93.249598) scale(0.1 -0.1)">
       <use xlink:href="#DejaVuSans-32"/>
       <use xlink:href="#DejaVuSans-35" transform="translate(63.623047 0)"/>
       <use xlink:href="#DejaVuSans-30" transform="translate(127.246094 0)"/>
       <use xlink:href="#DejaVuSans-30" transform="translate(190.869141 0)"/>
      </g>
     </g>
    </g>
    <g id="ytick_7">
     <g id="line2d_16">
      <g>
       <use xlink:href="#mf0ca509b22" x="39.65" y="55.097256" style="stroke: #000000; stroke-width: 0.8"/>
      </g>
     </g>
     <g id="text_16">
      <!-- 3000 -->
      <g transform="translate(7.2 58.896474) scale(0.1 -0.1)">
       <defs>
        <path id="DejaVuSans-33" d="M 2597 2516 
Q 3050 2419 3304 2112 
Q 3559 1806 3559 1356 
Q 3559 666 3084 287 
Q 2609 -91 1734 -91 
Q 1441 -91 1130 -33 
Q 819 25 488 141 
L 488 750 
Q 750 597 1062 519 
Q 1375 441 1716 441 
Q 2309 441 2620 675 
Q 2931 909 2931 1356 
Q 2931 1769 2642 2001 
Q 2353 2234 1838 2234 
L 1294 2234 
L 1294 2753 
L 1863 2753 
Q 2328 2753 2575 2939 
Q 2822 3125 2822 3475 
Q 2822 3834 2567 4026 
Q 2313 4219 1838 4219 
Q 1578 4219 1281 4162 
Q 984 4106 628 3988 
L 628 4550 
Q 988 4650 1302 4700 
Q 1616 4750 1894 4750 
Q 2613 4750 3031 4423 
Q 3450 4097 3450 3541 
Q 3450 3153 3228 2886 
Q 3006 2619 2597 2516 
z
" transform="scale(0.015625)"/>
       </defs>
       <use xlink:href="#DejaVuSans-33"/>
       <use xlink:href="#DejaVuSans-30" transform="translate(63.623047 0)"/>
       <use xlink:href="#DejaVuSans-30" transform="translate(127.246094 0)"/>
       <use xlink:href="#DejaVuSans-30" transform="translate(190.869141 0)"/>
      </g>
     </g>
    </g>
    <g id="ytick_8">
     <g id="line2d_17">
      <g>
       <use xlink:href="#mf0ca509b22" x="39.65" y="20.744132" style="stroke: #000000; stroke-width: 0.8"/>
      </g>
     </g>
     <g id="text_17">
      <!-- 3500 -->
      <g transform="translate(7.2 24.54335) scale(0.1 -0.1)">
       <use xlink:href="#DejaVuSans-33"/>
       <use xlink:href="#DejaVuSans-35" transform="translate(63.623047 0)"/>
       <use xlink:href="#DejaVuSans-30" transform="translate(127.246094 0)"/>
       <use xlink:href="#DejaVuSans-30" transform="translate(190.869141 0)"/>
      </g>
     </g>
    </g>
   </g>
   <g id="line2d_18">
    <path d="M 55.882727 261.216 
L 72.197026 192.509752 
L 88.511325 143.281725 
L 104.825624 108.009844 
L 121.139922 82.737541 
L 137.454221 64.629936 
L 153.76852 51.655837 
L 170.082819 42.359895 
L 186.397117 35.699353 
L 202.711416 30.927074 
L 219.025715 27.507736 
L 235.340014 25.057781 
L 251.654312 23.302388 
L 267.968611 22.044649 
L 284.28291 21.143479 
L 300.597209 20.49779 
L 316.911508 20.035155 
L 333.225806 19.703676 
L 349.540105 19.466172 
L 365.854404 19.296 
" clip-path="url(#p4750c3dc2e)" style="fill: none; stroke: #1f77b4; stroke-width: 1.5; stroke-linecap: square"/>
   </g>
   <g id="line2d_19">
    <path d="M 55.882727 261.216 
L 72.197026 261.216 
L 88.511325 238.313917 
L 104.825624 210.146646 
L 121.139922 183.928275 
L 137.454221 162.043662 
L 153.76852 144.772234 
L 170.082819 131.580383 
L 186.397117 121.709039 
L 202.711416 114.420911 
L 219.025715 109.088426 
L 235.340014 105.210949 
L 251.654312 102.4036 
L 267.968611 100.377177 
L 284.28291 98.917564 
L 300.597209 97.867809 
L 316.911508 97.113636 
L 333.225806 96.572231 
L 349.540105 96.183781 
L 365.854404 95.905183 
" clip-path="url(#p4750c3dc2e)" style="fill: none; stroke: #ff7f0e; stroke-width: 1.5; stroke-linecap: square"/>
   </g>
   <g id="line2d_20">
    <path d="M 55.882727 261.216 
L 60.777017 243.008844 
L 62.408447 237.855876 
L 64.039877 232.084551 
L 67.302736 221.709907 
L 68.934166 216.90047 
L 70.565596 212.709389 
L 72.197026 207.968658 
L 75.459886 197.044364 
L 77.091316 193.334227 
L 78.722746 189.005733 
L 80.354175 183.715352 
L 81.985605 180.211333 
L 83.617035 176.363784 
L 85.248465 173.13459 
L 88.511325 165.783021 
L 90.142755 161.866765 
L 91.774185 159.187222 
L 95.037044 152.934953 
L 96.668474 149.087403 
L 98.299904 146.545272 
L 99.931334 143.247372 
L 101.562764 140.705241 
L 103.194194 139.468528 
L 104.825624 135.346153 
L 106.457053 132.048254 
L 108.088483 127.857172 
L 109.719913 124.559272 
L 111.351343 122.154554 
L 114.614203 118.719241 
L 117.877063 114.940398 
L 119.508492 112.466973 
L 121.139922 111.77991 
L 122.771352 108.894248 
L 124.402782 106.489529 
L 126.034212 105.527642 
L 127.665642 104.977992 
L 129.297072 103.878692 
L 130.928502 102.367154 
L 134.191361 99.893729 
L 135.822791 99.550198 
L 137.454221 98.038661 
L 140.717081 97.901248 
L 142.348511 97.008067 
L 143.979941 95.359117 
L 145.61137 94.740761 
L 147.2428 94.465936 
L 148.87423 92.74828 
L 150.50566 90.54968 
L 152.13709 89.519086 
L 155.39995 86.496011 
L 157.03138 84.572236 
L 158.66281 81.961399 
L 160.294239 81.20563 
L 161.925669 78.526086 
L 163.557099 77.839024 
L 165.188529 76.945843 
L 166.819959 77.35808 
L 168.451389 77.426786 
L 170.082819 75.228186 
L 171.714249 74.335005 
L 174.977108 77.083255 
L 176.608538 75.296893 
L 178.239968 74.747243 
L 179.871398 72.96088 
L 181.502828 71.930286 
L 183.134258 72.823468 
L 186.397117 69.388155 
L 188.028547 69.731686 
L 189.659977 67.876618 
L 191.291407 67.189555 
L 192.922837 65.197074 
L 194.554267 64.510012 
L 197.817127 61.96788 
L 199.448556 61.555643 
L 201.079986 60.31893 
L 202.711416 59.563162 
L 204.342846 58.944805 
L 205.974276 57.708093 
L 207.605706 57.501974 
L 209.237136 58.66998 
L 210.868566 61.074699 
L 212.499995 62.51753 
L 214.131425 62.586237 
L 215.762855 61.830468 
L 217.394285 60.86858 
L 219.025715 61.761762 
L 220.657145 61.555643 
L 222.288575 60.799874 
L 223.920005 61.349524 
L 225.551434 59.837987 
L 227.182864 61.212112 
L 228.814294 60.731168 
L 230.445724 60.593755 
L 232.077154 61.280818 
L 233.708584 62.242705 
L 235.340014 62.173999 
L 236.971444 62.586237 
L 238.602873 64.441305 
L 240.234303 63.135887 
L 241.865733 61.41823 
L 243.497163 62.173999 
L 245.128593 61.280818 
L 246.760023 60.937287 
L 248.391453 61.074699 
L 250.022883 62.448824 
L 251.654312 62.448824 
L 253.285742 62.998474 
L 254.917172 62.036587 
L 256.548602 60.662462 
L 258.180032 61.212112 
L 261.442892 61.349524 
L 263.074322 61.693055 
L 264.705751 61.143405 
L 266.337181 61.212112 
L 267.968611 61.555643 
L 269.600041 62.448824 
L 271.231471 61.074699 
L 272.862901 60.456343 
L 274.494331 61.899174 
L 276.125761 62.448824 
L 277.75719 60.937287 
L 279.38862 61.074699 
L 281.02005 59.837987 
L 284.28291 62.654943 
L 285.91434 63.06718 
L 287.54577 62.105293 
L 289.1772 62.036587 
L 290.80863 60.86858 
L 292.440059 61.280818 
L 294.071489 58.807393 
L 295.702919 58.120331 
L 297.334349 58.601274 
L 298.965779 57.570681 
L 300.597209 56.746206 
L 303.860069 56.059143 
L 305.491498 55.509493 
L 307.122928 55.921731 
L 308.754358 55.097256 
L 310.385788 54.891137 
L 312.017218 54.822431 
L 313.648648 53.929249 
L 315.280078 55.372081 
L 316.911508 57.021031 
L 318.542937 56.952324 
L 320.174367 56.127849 
L 321.805797 56.059143 
L 323.437227 54.204074 
L 325.068657 54.822431 
L 326.700087 54.891137 
L 328.331517 55.440787 
L 329.962947 55.372081 
L 331.594376 53.448306 
L 333.225806 52.761243 
L 334.857236 53.310893 
L 336.488666 55.028549 
L 338.120096 55.372081 
L 339.751526 55.578199 
L 341.382956 54.547606 
L 343.014386 54.616312 
L 344.645815 54.959843 
L 346.277245 53.860543 
L 347.908675 54.135368 
L 349.540105 55.234668 
L 351.171535 53.173481 
L 352.802965 52.623831 
L 354.434395 53.036068 
L 356.065825 53.791837 
L 357.697254 53.997956 
L 359.328684 53.654424 
L 360.960114 54.410193 
L 362.591544 53.654424 
L 364.222974 55.097256 
L 365.854404 55.028549 
L 367.485834 53.929249 
L 369.117264 54.341487 
L 370.748693 53.310893 
L 372.380123 53.585718 
L 374.011553 53.036068 
L 375.642983 53.654424 
L 377.274413 53.036068 
L 378.905843 52.967362 
L 380.537273 52.074181 
L 380.537273 52.074181 
" clip-path="url(#p4750c3dc2e)" style="fill: none; stroke: #2ca02c; stroke-width: 1.5; stroke-linecap: square"/>
   </g>
   <g id="line2d_21">
    <path d="M 55.882727 261.216 
L 59.145587 260.66635 
L 60.777017 260.1167 
L 62.408447 259.360931 
L 64.039877 258.879988 
L 65.671307 257.780688 
L 67.302736 256.8188 
L 68.934166 255.307263 
L 70.565596 253.177369 
L 73.828456 250.016882 
L 75.459886 248.848875 
L 77.091316 247.886988 
L 78.722746 246.031919 
L 81.985605 243.07755 
L 83.617035 242.184369 
L 85.248465 240.329301 
L 86.879895 239.230001 
L 88.511325 237.374932 
L 90.142755 235.725982 
L 91.774185 233.321263 
L 95.037044 230.779132 
L 96.668474 229.817245 
L 98.299904 228.030882 
L 99.931334 224.664276 
L 104.825624 220.267076 
L 106.457053 219.09907 
L 108.088483 217.175295 
L 109.719913 216.144701 
L 111.351343 214.907989 
L 112.982773 212.297151 
L 116.245633 208.243483 
L 117.877063 207.831245 
L 119.508492 206.731945 
L 121.139922 205.014289 
L 122.771352 204.533345 
L 124.402782 204.395933 
L 126.034212 202.334745 
L 129.297072 198.968139 
L 130.928502 198.830727 
L 132.559931 198.21237 
L 134.191361 197.387895 
L 137.454221 194.433527 
L 139.085651 194.364821 
L 140.717081 193.334227 
L 143.979941 190.517271 
L 145.61137 190.448564 
L 147.2428 189.143146 
L 148.87423 189.005733 
L 150.50566 188.043846 
L 152.13709 185.982658 
L 153.76852 184.883358 
L 155.39995 184.745946 
L 157.03138 183.646646 
L 158.66281 184.058883 
L 160.294239 183.990177 
L 161.925669 183.440527 
L 163.557099 183.234408 
L 165.188529 181.92899 
L 166.819959 181.035808 
L 168.451389 179.249446 
L 170.082819 179.73039 
L 171.714249 177.325671 
L 173.345678 175.33319 
L 174.977108 172.722352 
L 178.239968 171.279521 
L 181.502828 172.653646 
L 183.134258 171.760465 
L 184.765688 172.653646 
L 186.397117 173.13459 
L 188.028547 172.241409 
L 189.659977 171.897877 
L 191.291407 170.93599 
L 192.922837 170.93599 
L 194.554267 169.493159 
L 196.185697 169.561865 
L 197.817127 169.28704 
L 199.448556 167.706796 
L 201.079986 170.042809 
L 202.711416 170.042809 
L 204.342846 170.180221 
L 205.974276 171.210815 
L 207.605706 168.943509 
L 209.237136 167.500678 
L 210.868566 165.233371 
L 212.499995 165.095959 
L 214.131425 165.783021 
L 215.762855 166.676203 
L 217.394285 165.576903 
L 219.025715 164.615015 
L 220.657145 164.546309 
L 222.288575 164.821134 
L 223.920005 164.271484 
L 225.551434 164.88984 
L 227.182864 163.653128 
L 228.814294 162.622534 
L 230.445724 161.729353 
L 232.077154 161.935471 
L 233.708584 160.767465 
L 235.340014 161.179703 
L 236.971444 161.385821 
L 238.602873 160.973584 
L 240.234303 162.485121 
L 241.865733 165.095959 
L 243.497163 163.996659 
L 246.760023 163.721834 
L 248.391453 162.14159 
L 250.022883 161.04229 
L 251.654312 160.767465 
L 254.917172 161.110996 
L 256.548602 160.561346 
L 258.180032 159.049809 
L 259.811462 158.981103 
L 261.442892 158.706278 
L 263.074322 158.568865 
L 264.705751 159.118515 
L 266.337181 158.706278 
L 267.968611 159.118515 
L 269.600041 158.431453 
L 271.231471 158.981103 
L 272.862901 159.187222 
L 274.494331 159.187222 
L 276.125761 159.805578 
L 277.75719 160.217815 
L 279.38862 161.798059 
L 281.02005 162.279003 
L 282.65148 162.14159 
L 284.28291 162.347709 
L 285.91434 162.69124 
L 287.54577 162.14159 
L 289.1772 163.24089 
L 290.80863 163.584421 
L 292.440059 162.347709 
L 294.071489 164.752428 
L 297.334349 162.828653 
L 298.965779 163.103478 
L 300.597209 164.271484 
L 302.228639 163.859246 
L 303.860069 161.866765 
L 307.122928 161.04229 
L 308.754358 161.523234 
L 310.385788 159.736872 
L 312.017218 159.462047 
L 313.648648 160.217815 
L 315.280078 160.080403 
L 316.911508 158.431453 
L 318.542937 157.950509 
L 320.174367 157.19474 
L 321.805797 157.538272 
L 323.437227 159.530753 
L 325.068657 159.324634 
L 326.700087 159.599459 
L 328.331517 158.431453 
L 329.962947 156.713797 
L 331.594376 158.500159 
L 333.225806 157.950509 
L 334.857236 158.087922 
L 336.488666 158.087922 
L 338.120096 156.782503 
L 339.751526 158.087922 
L 341.382956 158.774984 
L 343.014386 158.019215 
L 344.645815 158.637572 
L 346.277245 158.500159 
L 347.908675 155.889322 
L 349.540105 156.026734 
L 351.171535 157.950509 
L 352.802965 158.912397 
L 354.434395 158.568865 
L 356.065825 158.362747 
L 357.697254 156.782503 
L 359.328684 156.164147 
L 360.960114 155.133553 
L 362.591544 154.377784 
L 364.222974 152.866247 
L 365.854404 154.515197 
L 367.485834 155.339672 
L 369.117264 155.408378 
L 370.748693 155.683203 
L 372.380123 155.270965 
L 374.011553 156.232853 
L 375.642983 154.99614 
L 378.905843 156.988622 
L 380.537273 156.782503 
L 380.537273 156.782503 
" clip-path="url(#p4750c3dc2e)" style="fill: none; stroke: #d62728; stroke-width: 1.5; stroke-linecap: square"/>
   </g>
   <g id="patch_3">
    <path d="M 39.65 273.312 
L 39.65 7.2 
" style="fill: none; stroke: #000000; stroke-width: 0.8; stroke-linejoin: miter; stroke-linecap: square"/>
   </g>
   <g id="patch_4">
    <path d="M 396.77 273.312 
L 396.77 7.2 
" style="fill: none; stroke: #000000; stroke-width: 0.8; stroke-linejoin: miter; stroke-linecap: square"/>
   </g>
   <g id="patch_5">
    <path d="M 39.65 273.312 
L 396.77 273.312 
" style="fill: none; stroke: #000000; stroke-width: 0.8; stroke-linejoin: miter; stroke-linecap: square"/>
   </g>
   <g id="patch_6">
    <path d="M 39.65 7.2 
L 396.77 7.2 
" style="fill: none; stroke: #000000; stroke-width: 0.8; stroke-linejoin: miter; stroke-linecap: square"/>
   </g>
  </g>
 </g>
 <defs>
  <clipPath id="p4750c3dc2e">
   <rect x="39.65" y="7.2" width="357.12" height="266.112"/>
  </clipPath>
 </defs>
</svg>
