<?xml version="1.0" encoding="utf-8" standalone="no"?>
<!DOCTYPE svg PUBLIC "-//W3C//DTD SVG 1.1//EN"
  "http://www.w3.org/Graphics/SVG/1.1/DTD/svg11.dtd">
<svg xmlns:xlink="http://www.w3.org/1999/xlink" width="403.97pt" height="297.190125pt" viewBox="0 0 403.97 297.190125" xmlns="http://www.w3.org/2000/svg" version="1.1">
 <metadata>
  <rdf:RDF xmlns:dc="http://purl.org/dc/elements/1.1/" xmlns:cc="http://creativecommons.org/ns#" xmlns:rdf="http://www.w3.org/1999/02/22-rdf-syntax-ns#">
   <cc:Work>
    <dc:type rdf:resource="http://purl.org/dc/dcmitype/StillImage"/>
    <dc:date>2024-02-05T07:54:44.661068</dc:date>
    <dc:format>image/svg+xml</dc:format>
    <dc:creator>
     <cc:Agent>
      <dc:title>Matplotlib v3.8.2, https://matplotlib.org/</dc:title>
     </cc:Agent>
    </dc:creator>
   </cc:Work>
  </rdf:RDF>
 </metadata>
 <defs>
  <style type="text/css">*{stroke-linejoin: round; stroke-linecap: butt}</style>
 </defs>
 <g id="figure_1">
  <g id="patch_1">
   <path d="M 0 297.190125 
L 403.97 297.190125 
L 403.97 0 
L 0 0 
z
" style="fill: #ffffff"/>
  </g>
  <g id="axes_1">
   <g id="patch_2">
    <path d="M 39.65 273.312 
L 396.77 273.312 
L 396.77 7.2 
L 39.65 7.2 
z
" style="fill: #ffffff"/>
   </g>
   <g id="matplotlib.axis_1">
    <g id="xtick_1">
     <g id="line2d_1">
      <defs>
       <path id="mde37eee41d" d="M 0 0 
L 0 3.5 
" style="stroke: #000000; stroke-width: 0.8"/>
      </defs>
      <g>
       <use xlink:href="#mde37eee41d" x="55.882727" y="273.312" style="stroke: #000000; stroke-width: 0.8"/>
      </g>
     </g>
     <g id="text_1">
      <!-- 0.0 -->
      <g transform="translate(47.931165 287.910437) scale(0.1 -0.1)">
       <defs>
        <path id="DejaVuSans-30" d="M 2034 4250 
Q 1547 4250 1301 3770 
Q 1056 3291 1056 2328 
Q 1056 1369 1301 889 
Q 1547 409 2034 409 
Q 2525 409 2770 889 
Q 3016 1369 3016 2328 
Q 3016 3291 2770 3770 
Q 2525 4250 2034 4250 
z
M 2034 4750 
Q 2819 4750 3233 4129 
Q 3647 3509 3647 2328 
Q 3647 1150 3233 529 
Q 2819 -91 2034 -91 
Q 1250 -91 836 529 
Q 422 1150 422 2328 
Q 422 3509 836 4129 
Q 1250 4750 2034 4750 
z
" transform="scale(0.015625)"/>
        <path id="DejaVuSans-2e" d="M 684 794 
L 1344 794 
L 1344 0 
L 684 0 
L 684 794 
z
" transform="scale(0.015625)"/>
       </defs>
       <use xlink:href="#DejaVuSans-30"/>
       <use xlink:href="#DejaVuSans-2e" x="63.623047"/>
       <use xlink:href="#DejaVuSans-30" x="95.410156"/>
      </g>
     </g>
    </g>
    <g id="xtick_2">
     <g id="line2d_2">
      <g>
       <use xlink:href="#mde37eee41d" x="96.668474" y="273.312" style="stroke: #000000; stroke-width: 0.8"/>
      </g>
     </g>
     <g id="text_2">
      <!-- 2.5 -->
      <g transform="translate(88.716912 287.910437) scale(0.1 -0.1)">
       <defs>
        <path id="DejaVuSans-32" d="M 1228 531 
L 3431 531 
L 3431 0 
L 469 0 
L 469 531 
Q 828 903 1448 1529 
Q 2069 2156 2228 2338 
Q 2531 2678 2651 2914 
Q 2772 3150 2772 3378 
Q 2772 3750 2511 3984 
Q 2250 4219 1831 4219 
Q 1534 4219 1204 4116 
Q 875 4013 500 3803 
L 500 4441 
Q 881 4594 1212 4672 
Q 1544 4750 1819 4750 
Q 2544 4750 2975 4387 
Q 3406 4025 3406 3419 
Q 3406 3131 3298 2873 
Q 3191 2616 2906 2266 
Q 2828 2175 2409 1742 
Q 1991 1309 1228 531 
z
" transform="scale(0.015625)"/>
        <path id="DejaVuSans-35" d="M 691 4666 
L 3169 4666 
L 3169 4134 
L 1269 4134 
L 1269 2991 
Q 1406 3038 1543 3061 
Q 1681 3084 1819 3084 
Q 2600 3084 3056 2656 
Q 3513 2228 3513 1497 
Q 3513 744 3044 326 
Q 2575 -91 1722 -91 
Q 1428 -91 1123 -41 
Q 819 9 494 109 
L 494 744 
Q 775 591 1075 516 
Q 1375 441 1709 441 
Q 2250 441 2565 725 
Q 2881 1009 2881 1497 
Q 2881 1984 2565 2268 
Q 2250 2553 1709 2553 
Q 1456 2553 1204 2497 
Q 953 2441 691 2322 
L 691 4666 
z
" transform="scale(0.015625)"/>
       </defs>
       <use xlink:href="#DejaVuSans-32"/>
       <use xlink:href="#DejaVuSans-2e" x="63.623047"/>
       <use xlink:href="#DejaVuSans-35" x="95.410156"/>
      </g>
     </g>
    </g>
    <g id="xtick_3">
     <g id="line2d_3">
      <g>
       <use xlink:href="#mde37eee41d" x="137.454221" y="273.312" style="stroke: #000000; stroke-width: 0.8"/>
      </g>
     </g>
     <g id="text_3">
      <!-- 5.0 -->
      <g transform="translate(129.502659 287.910437) scale(0.1 -0.1)">
       <use xlink:href="#DejaVuSans-35"/>
       <use xlink:href="#DejaVuSans-2e" x="63.623047"/>
       <use xlink:href="#DejaVuSans-30" x="95.410156"/>
      </g>
     </g>
    </g>
    <g id="xtick_4">
     <g id="line2d_4">
      <g>
       <use xlink:href="#mde37eee41d" x="178.239968" y="273.312" style="stroke: #000000; stroke-width: 0.8"/>
      </g>
     </g>
     <g id="text_4">
      <!-- 7.5 -->
      <g transform="translate(170.288406 287.910437) scale(0.1 -0.1)">
       <defs>
        <path id="DejaVuSans-37" d="M 525 4666 
L 3525 4666 
L 3525 4397 
L 1831 0 
L 1172 0 
L 2766 4134 
L 525 4134 
L 525 4666 
z
" transform="scale(0.015625)"/>
       </defs>
       <use xlink:href="#DejaVuSans-37"/>
       <use xlink:href="#DejaVuSans-2e" x="63.623047"/>
       <use xlink:href="#DejaVuSans-35" x="95.410156"/>
      </g>
     </g>
    </g>
    <g id="xtick_5">
     <g id="line2d_5">
      <g>
       <use xlink:href="#mde37eee41d" x="219.025715" y="273.312" style="stroke: #000000; stroke-width: 0.8"/>
      </g>
     </g>
     <g id="text_5">
      <!-- 10.0 -->
      <g transform="translate(207.892902 287.910437) scale(0.1 -0.1)">
       <defs>
        <path id="DejaVuSans-31" d="M 794 531 
L 1825 531 
L 1825 4091 
L 703 3866 
L 703 4441 
L 1819 4666 
L 2450 4666 
L 2450 531 
L 3481 531 
L 3481 0 
L 794 0 
L 794 531 
z
" transform="scale(0.015625)"/>
       </defs>
       <use xlink:href="#DejaVuSans-31"/>
       <use xlink:href="#DejaVuSans-30" x="63.623047"/>
       <use xlink:href="#DejaVuSans-2e" x="127.246094"/>
       <use xlink:href="#DejaVuSans-30" x="159.033203"/>
      </g>
     </g>
    </g>
    <g id="xtick_6">
     <g id="line2d_6">
      <g>
       <use xlink:href="#mde37eee41d" x="259.811462" y="273.312" style="stroke: #000000; stroke-width: 0.8"/>
      </g>
     </g>
     <g id="text_6">
      <!-- 12.5 -->
      <g transform="translate(248.678649 287.910437) scale(0.1 -0.1)">
       <use xlink:href="#DejaVuSans-31"/>
       <use xlink:href="#DejaVuSans-32" x="63.623047"/>
       <use xlink:href="#DejaVuSans-2e" x="127.246094"/>
       <use xlink:href="#DejaVuSans-35" x="159.033203"/>
      </g>
     </g>
    </g>
    <g id="xtick_7">
     <g id="line2d_7">
      <g>
       <use xlink:href="#mde37eee41d" x="300.597209" y="273.312" style="stroke: #000000; stroke-width: 0.8"/>
      </g>
     </g>
     <g id="text_7">
      <!-- 15.0 -->
      <g transform="translate(289.464396 287.910437) scale(0.1 -0.1)">
       <use xlink:href="#DejaVuSans-31"/>
       <use xlink:href="#DejaVuSans-35" x="63.623047"/>
       <use xlink:href="#DejaVuSans-2e" x="127.246094"/>
       <use xlink:href="#DejaVuSans-30" x="159.033203"/>
      </g>
     </g>
    </g>
    <g id="xtick_8">
     <g id="line2d_8">
      <g>
       <use xlink:href="#mde37eee41d" x="341.382956" y="273.312" style="stroke: #000000; stroke-width: 0.8"/>
      </g>
     </g>
     <g id="text_8">
      <!-- 17.5 -->
      <g transform="translate(330.250143 287.910437) scale(0.1 -0.1)">
       <use xlink:href="#DejaVuSans-31"/>
       <use xlink:href="#DejaVuSans-37" x="63.623047"/>
       <use xlink:href="#DejaVuSans-2e" x="127.246094"/>
       <use xlink:href="#DejaVuSans-35" x="159.033203"/>
      </g>
     </g>
    </g>
    <g id="xtick_9">
     <g id="line2d_9">
      <g>
       <use xlink:href="#mde37eee41d" x="382.168703" y="273.312" style="stroke: #000000; stroke-width: 0.8"/>
      </g>
     </g>
     <g id="text_9">
      <!-- 20.0 -->
      <g transform="translate(371.03589 287.910437) scale(0.1 -0.1)">
       <use xlink:href="#DejaVuSans-32"/>
       <use xlink:href="#DejaVuSans-30" x="63.623047"/>
       <use xlink:href="#DejaVuSans-2e" x="127.246094"/>
       <use xlink:href="#DejaVuSans-30" x="159.033203"/>
      </g>
     </g>
    </g>
   </g>
   <g id="matplotlib.axis_2">
    <g id="ytick_1">
     <g id="line2d_10">
      <defs>
       <path id="mc3d41aebd7" d="M 0 0 
L -3.5 0 
" style="stroke: #000000; stroke-width: 0.8"/>
      </defs>
      <g>
       <use xlink:href="#mc3d41aebd7" x="39.65" y="261.216" style="stroke: #000000; stroke-width: 0.8"/>
      </g>
     </g>
     <g id="text_10">
      <!-- 0 -->
      <g transform="translate(26.2875 265.015219) scale(0.1 -0.1)">
       <use xlink:href="#DejaVuSans-30"/>
      </g>
     </g>
    </g>
    <g id="ytick_2">
     <g id="line2d_11">
      <g>
       <use xlink:href="#mc3d41aebd7" x="39.65" y="226.862876" style="stroke: #000000; stroke-width: 0.8"/>
      </g>
     </g>
     <g id="text_11">
      <!-- 500 -->
      <g transform="translate(13.5625 230.662095) scale(0.1 -0.1)">
       <use xlink:href="#DejaVuSans-35"/>
       <use xlink:href="#DejaVuSans-30" x="63.623047"/>
       <use xlink:href="#DejaVuSans-30" x="127.246094"/>
      </g>
     </g>
    </g>
    <g id="ytick_3">
     <g id="line2d_12">
      <g>
       <use xlink:href="#mc3d41aebd7" x="39.65" y="192.509752" style="stroke: #000000; stroke-width: 0.8"/>
      </g>
     </g>
     <g id="text_12">
      <!-- 1000 -->
      <g transform="translate(7.2 196.308971) scale(0.1 -0.1)">
       <use xlink:href="#DejaVuSans-31"/>
       <use xlink:href="#DejaVuSans-30" x="63.623047"/>
       <use xlink:href="#DejaVuSans-30" x="127.246094"/>
       <use xlink:href="#DejaVuSans-30" x="190.869141"/>
      </g>
     </g>
    </g>
    <g id="ytick_4">
     <g id="line2d_13">
      <g>
       <use xlink:href="#mc3d41aebd7" x="39.65" y="158.156628" style="stroke: #000000; stroke-width: 0.8"/>
      </g>
     </g>
     <g id="text_13">
      <!-- 1500 -->
      <g transform="translate(7.2 161.955847) scale(0.1 -0.1)">
       <use xlink:href="#DejaVuSans-31"/>
       <use xlink:href="#DejaVuSans-35" x="63.623047"/>
       <use xlink:href="#DejaVuSans-30" x="127.246094"/>
       <use xlink:href="#DejaVuSans-30" x="190.869141"/>
      </g>
     </g>
    </g>
    <g id="ytick_5">
     <g id="line2d_14">
      <g>
       <use xlink:href="#mc3d41aebd7" x="39.65" y="123.803504" style="stroke: #000000; stroke-width: 0.8"/>
      </g>
     </g>
     <g id="text_14">
      <!-- 2000 -->
      <g transform="translate(7.2 127.602722) scale(0.1 -0.1)">
       <use xlink:href="#DejaVuSans-32"/>
       <use xlink:href="#DejaVuSans-30" x="63.623047"/>
       <use xlink:href="#DejaVuSans-30" x="127.246094"/>
       <use xlink:href="#DejaVuSans-30" x="190.869141"/>
      </g>
     </g>
    </g>
    <g id="ytick_6">
     <g id="line2d_15">
      <g>
       <use xlink:href="#mc3d41aebd7" x="39.65" y="89.45038" style="stroke: #000000; stroke-width: 0.8"/>
      </g>
     </g>
     <g id="text_15">
      <!-- 2500 -->
      <g transform="translate(7.2 93.249598) scale(0.1 -0.1)">
       <use xlink:href="#DejaVuSans-32"/>
       <use xlink:href="#DejaVuSans-35" x="63.623047"/>
       <use xlink:href="#DejaVuSans-30" x="127.246094"/>
       <use xlink:href="#DejaVuSans-30" x="190.869141"/>
      </g>
     </g>
    </g>
    <g id="ytick_7">
     <g id="line2d_16">
      <g>
       <use xlink:href="#mc3d41aebd7" x="39.65" y="55.097256" style="stroke: #000000; stroke-width: 0.8"/>
      </g>
     </g>
     <g id="text_16">
      <!-- 3000 -->
      <g transform="translate(7.2 58.896474) scale(0.1 -0.1)">
       <defs>
        <path id="DejaVuSans-33" d="M 2597 2516 
Q 3050 2419 3304 2112 
Q 3559 1806 3559 1356 
Q 3559 666 3084 287 
Q 2609 -91 1734 -91 
Q 1441 -91 1130 -33 
Q 819 25 488 141 
L 488 750 
Q 750 597 1062 519 
Q 1375 441 1716 441 
Q 2309 441 2620 675 
Q 2931 909 2931 1356 
Q 2931 1769 2642 2001 
Q 2353 2234 1838 2234 
L 1294 2234 
L 1294 2753 
L 1863 2753 
Q 2328 2753 2575 2939 
Q 2822 3125 2822 3475 
Q 2822 3834 2567 4026 
Q 2313 4219 1838 4219 
Q 1578 4219 1281 4162 
Q 984 4106 628 3988 
L 628 4550 
Q 988 4650 1302 4700 
Q 1616 4750 1894 4750 
Q 2613 4750 3031 4423 
Q 3450 4097 3450 3541 
Q 3450 3153 3228 2886 
Q 3006 2619 2597 2516 
z
" transform="scale(0.015625)"/>
       </defs>
       <use xlink:href="#DejaVuSans-33"/>
       <use xlink:href="#DejaVuSans-30" x="63.623047"/>
       <use xlink:href="#DejaVuSans-30" x="127.246094"/>
       <use xlink:href="#DejaVuSans-30" x="190.869141"/>
      </g>
     </g>
    </g>
    <g id="ytick_8">
     <g id="line2d_17">
      <g>
       <use xlink:href="#mc3d41aebd7" x="39.65" y="20.744132" style="stroke: #000000; stroke-width: 0.8"/>
      </g>
     </g>
     <g id="text_17">
      <!-- 3500 -->
      <g transform="translate(7.2 24.54335) scale(0.1 -0.1)">
       <use xlink:href="#DejaVuSans-33"/>
       <use xlink:href="#DejaVuSans-35" x="63.623047"/>
       <use xlink:href="#DejaVuSans-30" x="127.246094"/>
       <use xlink:href="#DejaVuSans-30" x="190.869141"/>
      </g>
     </g>
    </g>
   </g>
   <g id="line2d_18">
    <path d="M 55.882727 261.216 
L 72.197026 192.509752 
L 88.511325 143.281725 
L 104.825624 108.009844 
L 121.139922 82.737541 
L 137.454221 64.629936 
L 153.76852 51.655837 
L 170.082819 42.359895 
L 186.397117 35.699353 
L 202.711416 30.927074 
L 219.025715 27.507736 
L 235.340014 25.057781 
L 251.654312 23.302388 
L 267.968611 22.044649 
L 284.28291 21.143479 
L 300.597209 20.49779 
L 316.911508 20.035155 
L 333.225806 19.703676 
L 349.540105 19.466172 
L 365.854404 19.296 
" clip-path="url(#p9414e495b6)" style="fill: none; stroke: #1f77b4; stroke-width: 1.5; stroke-linecap: square"/>
   </g>
   <g id="line2d_19">
    <path d="M 55.882727 261.216 
L 72.197026 261.216 
L 88.511325 238.313917 
L 104.825624 210.146646 
L 121.139922 183.928275 
L 137.454221 162.043662 
L 153.76852 144.772234 
L 170.082819 131.580383 
L 186.397117 121.709039 
L 202.711416 114.420911 
L 219.025715 109.088426 
L 235.340014 105.210949 
L 251.654312 102.4036 
L 267.968611 100.377177 
L 284.28291 98.917564 
L 300.597209 97.867809 
L 316.911508 97.113636 
L 333.225806 96.572231 
L 349.540105 96.183781 
L 365.854404 95.905183 
" clip-path="url(#p9414e495b6)" style="fill: none; stroke: #ff7f0e; stroke-width: 1.5; stroke-linecap: square"/>
   </g>
   <g id="line2d_20">
    <path d="M 55.882727 261.216 
L 59.145587 247.406044 
L 64.039877 228.855357 
L 65.671307 224.183332 
L 67.302736 218.412007 
L 68.934166 215.045401 
L 70.565596 208.793133 
L 73.828456 197.525308 
L 75.459886 193.677758 
L 77.091316 188.662202 
L 78.722746 184.402415 
L 80.354175 178.562383 
L 81.985605 175.539309 
L 85.248465 168.531271 
L 86.879895 166.332671 
L 88.511325 161.935471 
L 90.142755 158.362747 
L 93.405614 151.973065 
L 95.037044 149.499641 
L 96.668474 146.064328 
L 98.299904 143.728316 
L 99.931334 140.773947 
L 101.562764 137.476047 
L 103.194194 135.483566 
L 104.825624 131.361191 
L 106.457053 128.131997 
L 108.088483 125.52116 
L 109.719913 123.391266 
L 112.982773 116.795466 
L 114.614203 115.764873 
L 116.245633 114.184629 
L 117.877063 111.986029 
L 119.508492 110.062254 
L 121.139922 108.688129 
L 122.771352 106.558235 
L 124.402782 105.871173 
L 126.034212 105.596348 
L 127.665642 105.665054 
L 129.297072 101.542679 
L 130.928502 101.473973 
L 132.559931 98.931842 
L 134.191361 97.351598 
L 135.822791 95.221705 
L 137.454221 94.39723 
L 140.717081 91.442861 
L 142.348511 91.236742 
L 143.979941 90.274855 
L 145.61137 90.274855 
L 147.2428 88.076255 
L 148.87423 86.564717 
L 150.50566 85.60283 
L 152.13709 84.228705 
L 153.76852 83.060699 
L 155.39995 82.511049 
L 157.03138 81.823986 
L 158.66281 81.480455 
L 160.294239 79.281855 
L 161.925669 79.00703 
L 163.557099 77.839024 
L 165.188529 77.289374 
L 166.819959 77.014549 
L 168.451389 76.945843 
L 170.082819 75.365599 
L 171.714249 74.197593 
L 173.345678 73.235705 
L 174.977108 71.31193 
L 176.608538 70.624868 
L 178.239968 70.487455 
L 179.871398 69.937805 
L 181.502828 68.701093 
L 184.765688 69.319449 
L 186.397117 67.258262 
L 188.028547 68.56368 
L 189.659977 70.487455 
L 191.291407 70.006511 
L 192.922837 68.357561 
L 194.554267 67.533087 
L 196.185697 65.884137 
L 197.817127 66.296374 
L 199.448556 64.990955 
L 201.079986 64.16648 
L 202.711416 63.135887 
L 204.342846 62.998474 
L 205.974276 63.548124 
L 207.605706 62.723649 
L 209.237136 62.51753 
L 210.868566 61.693055 
L 212.499995 62.586237 
L 215.762855 62.586237 
L 217.394285 61.349524 
L 220.657145 61.486937 
L 223.920005 62.929768 
L 225.551434 63.204593 
L 227.182864 63.342005 
L 228.814294 61.280818 
L 230.445724 60.799874 
L 232.077154 60.044105 
L 233.708584 61.761762 
L 235.340014 61.624349 
L 236.971444 59.288337 
L 240.234303 59.837987 
L 241.865733 59.21963 
L 243.497163 59.631868 
L 245.128593 57.914212 
L 246.760023 57.227149 
L 248.391453 58.189037 
L 250.022883 58.395156 
L 251.654312 57.776799 
L 253.285742 56.402674 
L 254.917172 56.952324 
L 256.548602 58.189037 
L 258.180032 58.601274 
L 259.811462 58.532568 
L 261.442892 56.746206 
L 263.074322 56.746206 
L 266.337181 58.189037 
L 267.968611 58.326449 
L 269.600041 57.982918 
L 271.231471 58.120331 
L 272.862901 58.876099 
L 274.494331 57.639387 
L 276.125761 58.051624 
L 277.75719 57.570681 
L 281.02005 58.738687 
L 282.65148 57.364562 
L 289.1772 55.440787 
L 290.80863 55.578199 
L 292.440059 56.196556 
L 294.071489 53.929249 
L 295.702919 53.929249 
L 297.334349 54.685018 
L 298.965779 54.341487 
L 300.597209 52.967362 
L 302.228639 54.341487 
L 303.860069 54.547606 
L 305.491498 55.440787 
L 307.122928 57.158443 
L 308.754358 57.570681 
L 310.385788 57.227149 
L 312.017218 57.708093 
L 315.280078 57.089737 
L 316.911508 57.433268 
L 318.542937 56.196556 
L 320.174367 56.677499 
L 321.805797 57.433268 
L 323.437227 57.982918 
L 325.068657 56.196556 
L 326.700087 55.784318 
L 328.331517 54.547606 
L 329.962947 54.341487 
L 331.594376 54.891137 
L 333.225806 54.891137 
L 334.857236 54.204074 
L 336.488666 53.379599 
L 338.120096 53.104774 
L 339.751526 53.379599 
L 341.382956 53.517012 
L 343.014386 53.791837 
L 344.645815 52.417712 
L 346.277245 52.555124 
L 347.908675 53.517012 
L 349.540105 53.310893 
L 351.171535 55.715612 
L 352.802965 55.646906 
L 354.434395 54.685018 
L 356.065825 55.234668 
L 359.328684 55.165962 
L 360.960114 57.021031 
L 362.591544 58.463862 
L 364.222974 56.814912 
L 365.854404 56.333968 
L 370.748693 56.402674 
L 372.380123 57.639387 
L 374.011553 58.601274 
L 375.642983 58.876099 
L 378.905843 62.036587 
L 380.537273 62.380118 
L 380.537273 62.380118 
" clip-path="url(#p9414e495b6)" style="fill: none; stroke: #2ca02c; stroke-width: 1.5; stroke-linecap: square"/>
   </g>
   <g id="line2d_21">
    <path d="M 55.882727 261.216 
L 57.514157 261.216 
L 60.777017 260.597644 
L 62.408447 260.047994 
L 64.039877 259.086106 
L 65.671307 257.849394 
L 68.934166 255.994325 
L 70.565596 255.307263 
L 72.197026 254.139256 
L 73.828456 252.833838 
L 75.459886 251.047475 
L 77.091316 249.535938 
L 80.354175 247.680869 
L 81.985605 245.413563 
L 83.617035 243.6272 
L 85.248465 241.428601 
L 86.879895 240.191888 
L 90.142755 236.481751 
L 91.774185 234.283151 
L 93.405614 233.664794 
L 95.037044 232.221963 
L 96.668474 230.229482 
L 98.299904 228.511826 
L 99.931334 227.206407 
L 101.562764 225.626163 
L 103.194194 223.358857 
L 104.825624 220.74802 
L 106.457053 219.511307 
L 108.088483 217.724945 
L 109.719913 216.831764 
L 111.351343 215.114108 
L 112.982773 213.877395 
L 114.614203 212.365858 
L 117.877063 208.724426 
L 119.508492 207.625126 
L 122.771352 205.838764 
L 127.665642 198.76202 
L 129.297072 199.586495 
L 130.928502 197.044364 
L 132.559931 196.357302 
L 134.191361 196.288596 
L 137.454221 194.845764 
L 139.085651 193.540346 
L 140.717081 193.402933 
L 142.348511 192.097514 
L 143.979941 191.066921 
L 145.61137 188.730908 
L 147.2428 190.105033 
L 148.87423 189.830208 
L 150.50566 188.249964 
L 152.13709 187.219371 
L 153.76852 186.051365 
L 155.39995 185.158183 
L 157.03138 183.440527 
L 160.294239 183.921471 
L 161.925669 182.272521 
L 163.557099 182.272521 
L 165.188529 182.547346 
L 166.819959 180.692277 
L 168.451389 180.417452 
L 170.082819 180.28004 
L 171.714249 181.37934 
L 173.345678 180.967102 
L 174.977108 179.318152 
L 176.608538 180.211333 
L 178.239968 179.18074 
L 179.871398 178.699796 
L 181.502828 178.493677 
L 183.134258 177.119552 
L 184.765688 176.157665 
L 186.397117 174.852246 
L 188.028547 173.065884 
L 189.659977 172.103996 
L 191.291407 171.416934 
L 192.922837 172.103996 
L 194.554267 170.38634 
L 196.185697 170.661165 
L 197.817127 168.874803 
L 201.079986 168.18774 
L 202.711416 169.493159 
L 204.342846 167.775503 
L 205.974276 166.401378 
L 207.605706 165.508196 
L 209.237136 165.027253 
L 210.868566 165.302078 
L 212.499995 164.615015 
L 214.131425 164.958546 
L 215.762855 165.508196 
L 217.394285 165.645609 
L 219.025715 166.470084 
L 220.657145 165.920434 
L 222.288575 166.126553 
L 223.920005 165.370784 
L 225.551434 164.271484 
L 227.182864 162.966065 
L 228.814294 163.378303 
L 230.445724 163.653128 
L 232.077154 163.721834 
L 233.708584 162.828653 
L 235.340014 161.523234 
L 236.971444 161.660646 
L 238.602873 161.248409 
L 240.234303 159.118515 
L 241.865733 159.599459 
L 243.497163 157.813097 
L 245.128593 158.019215 
L 246.760023 158.568865 
L 248.391453 155.958028 
L 251.654312 155.958028 
L 253.285742 157.538272 
L 254.917172 158.019215 
L 256.548602 157.74439 
L 258.180032 157.881803 
L 259.811462 157.400859 
L 261.442892 159.049809 
L 263.074322 159.118515 
L 264.705751 160.080403 
L 266.337181 157.400859 
L 267.968611 156.232853 
L 269.600041 156.919915 
L 271.231471 158.019215 
L 272.862901 157.469565 
L 274.494331 156.782503 
L 276.125761 156.919915 
L 277.75719 156.09544 
L 279.38862 155.751909 
L 281.02005 154.583903 
L 282.65148 155.339672 
L 284.28291 153.484603 
L 285.91434 154.927434 
L 287.54577 154.583903 
L 289.1772 155.408378 
L 290.80863 154.034253 
L 292.440059 154.927434 
L 294.071489 155.202259 
L 295.702919 153.965547 
L 297.334349 152.041772 
L 298.965779 151.286003 
L 300.597209 152.454009 
L 302.228639 151.69824 
L 303.860069 152.24789 
L 305.491498 151.354709 
L 307.122928 150.324116 
L 308.754358 149.568347 
L 310.385788 149.705759 
L 312.017218 150.255409 
L 313.648648 150.598941 
L 315.280078 149.980584 
L 316.911508 150.324116 
L 318.542937 152.454009 
L 320.174367 152.866247 
L 323.437227 152.79754 
L 325.068657 154.790022 
L 326.700087 153.759428 
L 328.331517 156.301559 
L 329.962947 156.919915 
L 331.594376 157.400859 
L 333.225806 158.225334 
L 334.857236 158.019215 
L 336.488666 158.912397 
L 339.751526 158.981103 
L 341.382956 159.187222 
L 343.014386 158.29404 
L 344.645815 158.981103 
L 346.277245 158.156628 
L 347.908675 156.782503 
L 349.540105 157.950509 
L 351.171535 156.09544 
L 352.802965 157.675684 
L 354.434395 157.675684 
L 356.065825 157.057328 
L 357.697254 156.301559 
L 359.328684 156.438972 
L 360.960114 156.232853 
L 362.591544 156.851209 
L 364.222974 159.39334 
L 367.485834 159.94299 
L 369.117264 159.255928 
L 370.748693 159.187222 
L 372.380123 158.29404 
L 374.011553 158.431453 
L 375.642983 159.118515 
L 377.274413 158.774984 
L 378.905843 158.568865 
L 380.537273 158.087922 
L 380.537273 158.087922 
" clip-path="url(#p9414e495b6)" style="fill: none; stroke: #d62728; stroke-width: 1.5; stroke-linecap: square"/>
   </g>
   <g id="patch_3">
    <path d="M 39.65 273.312 
L 39.65 7.2 
" style="fill: none; stroke: #000000; stroke-width: 0.8; stroke-linejoin: miter; stroke-linecap: square"/>
   </g>
   <g id="patch_4">
    <path d="M 396.77 273.312 
L 396.77 7.2 
" style="fill: none; stroke: #000000; stroke-width: 0.8; stroke-linejoin: miter; stroke-linecap: square"/>
   </g>
   <g id="patch_5">
    <path d="M 39.65 273.312 
L 396.77 273.312 
" style="fill: none; stroke: #000000; stroke-width: 0.8; stroke-linejoin: miter; stroke-linecap: square"/>
   </g>
   <g id="patch_6">
    <path d="M 39.65 7.2 
L 396.77 7.2 
" style="fill: none; stroke: #000000; stroke-width: 0.8; stroke-linejoin: miter; stroke-linecap: square"/>
   </g>
  </g>
 </g>
 <defs>
  <clipPath id="p9414e495b6">
   <rect x="39.65" y="7.2" width="357.12" height="266.112"/>
  </clipPath>
 </defs>
</svg>
